<?xml version="1.0" encoding="utf-8" standalone="no"?>
<!DOCTYPE svg PUBLIC "-//W3C//DTD SVG 1.1//EN"
  "http://www.w3.org/Graphics/SVG/1.1/DTD/svg11.dtd">
<!-- Created with matplotlib (http://matplotlib.org/) -->
<svg height="864pt" version="1.1" viewBox="0 0 1440 864" width="1440pt" xmlns="http://www.w3.org/2000/svg" xmlns:xlink="http://www.w3.org/1999/xlink">
 <defs>
  <style type="text/css">
*{stroke-linecap:butt;stroke-linejoin:round;stroke-miterlimit:100000;}
  </style>
 </defs>
 <g id="figure_1">
  <g id="patch_1">
   <path d="M 0 864 
L 1440 864 
L 1440 0 
L 0 0 
z
" style="fill:#ffffff;"/>
  </g>
  <g id="axes_1">
   <g id="patch_2">
    <path d="M 198.45 747 
L 1336.05 747 
L 1336.05 51.3 
L 198.45 51.3 
z
" style="fill:#ffffff;"/>
   </g>
   <g id="line2d_1">
    <path clip-path="url(#p402013f79c)" d="M 199.5876 131.658568 
L 200.7252 208.223831 
L 201.8628 463.552224 
L 203.0004 502.096787 
L 204.138 448.25726 
L 205.2756 564.872871 
L 206.4132 525.993908 
L 207.5508 584.476711 
L 208.6884 574.391438 
L 209.826 526.461187 
L 210.9636 577.409559 
L 212.1012 590.336708 
L 213.2388 599.229957 
L 214.3764 435.672163 
L 215.514 597.558364 
L 216.6516 588.915045 
L 217.7892 566.364394 
L 218.9268 540.955053 
L 220.0644 622.410102 
L 221.202 569.402806 
L 222.3396 604.774686 
L 223.4772 566.524289 
L 224.6148 600.860041 
L 225.7524 522.602719 
L 226.89 618.959951 
L 228.0276 556.12398 
L 229.1652 597.366757 
L 230.3028 621.302953 
L 231.4404 626.831275 
L 232.578 592.128252 
L 233.7156 581.849052 
L 234.8532 529.510962 
L 235.9908 567.302255 
L 237.1284 628.244068 
L 238.266 624.672402 
L 239.4036 609.271865 
L 240.5412 605.498852 
L 241.6788 622.893149 
L 242.8164 627.678812 
L 245.0916 563.144172 
L 246.2292 631.942641 
L 247.3668 622.751748 
L 248.5044 618.699122 
L 249.642 594.18306 
L 250.7796 540.402609 
L 251.9172 577.737697 
L 255.33 643.197328 
L 256.4676 642.579314 
L 257.6052 617.619512 
L 258.7428 641.238295 
L 259.8804 580.617374 
L 261.018 642.112847 
L 262.1556 594.021773 
L 263.2932 651.235793 
L 264.4308 627.352007 
L 265.5684 641.944836 
L 266.706 639.194734 
L 267.8436 639.735583 
L 268.9812 631.82559 
L 270.1188 662.72812 
L 271.2564 592.853113 
L 272.394 653.404986 
L 273.5316 653.714225 
L 274.6692 599.702975 
L 275.8068 639.382399 
L 276.9444 573.903173 
L 278.082 650.242972 
L 279.2196 652.33442 
L 280.3572 645.019076 
L 281.4948 663.86443 
L 282.6324 666.910842 
L 283.77 602.781042 
L 284.9076 595.755342 
L 286.0452 633.154608 
L 287.1828 656.077054 
L 288.3204 631.552933 
L 289.458 641.596928 
L 290.5956 641.146984 
L 291.7332 660.839294 
L 292.8708 645.900006 
L 294.0084 643.306089 
L 295.146 654.864101 
L 298.5588 607.424318 
L 299.6964 627.558514 
L 300.834 631.030057 
L 301.9716 639.091075 
L 303.1092 627.290437 
L 304.2468 624.325538 
L 305.3844 640.698373 
L 306.522 638.985212 
L 307.6596 650.035537 
L 308.7972 663.709405 
L 309.9348 636.321841 
L 311.0724 645.910442 
L 312.21 662.579066 
L 313.3476 666.347325 
L 314.4852 674.579021 
L 315.6228 667.357423 
L 316.7604 664.320171 
L 317.898 580.440144 
L 319.0356 657.881236 
L 320.1732 650.461943 
L 321.3108 656.029109 
L 322.4484 644.631281 
L 323.586 647.52435 
L 324.7236 673.09834 
L 325.8612 653.35791 
L 326.9988 663.316856 
L 328.1364 670.54286 
L 329.274 664.345274 
L 330.4116 617.121158 
L 331.5492 648.824613 
L 332.6868 608.709971 
L 333.8244 661.894555 
L 334.962 672.618133 
L 336.0996 655.50142 
L 337.2372 669.740138 
L 338.3748 603.174055 
L 339.5124 660.010947 
L 340.65 660.374972 
L 341.7876 617.512432 
L 342.9252 649.297689 
L 344.0628 633.669542 
L 345.2004 650.397881 
L 346.338 631.249782 
L 347.4756 640.553436 
L 348.6132 687.312245 
L 349.7508 654.436825 
L 350.8884 683.856297 
L 352.026 653.758344 
L 353.1636 679.097013 
L 354.3012 674.784833 
L 355.4388 662.954164 
L 356.5764 683.890502 
L 357.714 682.812109 
L 358.8516 561.908261 
L 359.9892 624.649038 
L 361.1268 643.422503 
L 362.2644 664.13326 
L 363.402 663.469968 
L 364.5396 651.986744 
L 365.6772 671.44611 
L 366.8148 635.657853 
L 367.9524 634.316485 
L 369.09 674.643548 
L 370.2276 588.199634 
L 371.3652 666.188068 
L 372.5028 652.6963 
L 373.6404 684.021062 
L 374.778 680.203176 
L 375.9156 628.468721 
L 377.0532 627.930307 
L 378.1908 658.382256 
L 379.3284 588.275465 
L 380.466 652.20015 
L 381.6036 622.242496 
L 382.7412 670.089959 
L 383.8788 664.923981 
L 386.154 680.057659 
L 387.2916 683.96958 
L 388.4292 645.245701 
L 389.5668 620.98009 
L 390.7044 635.73496 
L 391.842 662.367457 
L 392.9796 634.992764 
L 394.1172 627.879463 
L 395.2548 674.376573 
L 396.3924 686.727393 
L 397.53 679.292041 
L 398.6676 667.432385 
L 399.8052 646.55466 
L 400.9428 670.748903 
L 402.0804 671.959073 
L 403.218 669.97169 
L 404.3556 638.541472 
L 405.4932 660.604959 
L 407.7684 642.43229 
L 408.906 669.360634 
L 410.0436 674.720249 
L 411.1812 629.332781 
L 412.3188 670.029201 
L 413.4564 632.227066 
L 414.594 685.424057 
L 415.7316 604.170877 
L 416.8692 684.422365 
L 418.0068 641.248672 
L 419.1444 634.753327 
L 420.282 674.797123 
L 421.4196 674.57363 
L 422.5572 683.499171 
L 423.6948 670.614923 
L 424.8324 619.143732 
L 425.97 678.51622 
L 427.1076 690.370078 
L 428.2452 610.190247 
L 429.3828 687.165162 
L 430.5204 651.249707 
L 431.658 693.586241 
L 432.7956 664.222251 
L 433.9332 661.082847 
L 435.0708 689.504047 
L 436.2084 670.212866 
L 437.346 654.628548 
L 438.4836 680.216105 
L 439.6212 680.504878 
L 440.7588 686.310321 
L 441.8964 655.43243 
L 443.034 674.945539 
L 444.1716 671.61047 
L 445.3092 675.541175 
L 446.4468 672.31875 
L 447.5844 678.028534 
L 448.722 685.244218 
L 449.8596 669.701121 
L 450.9972 686.612776 
L 452.1348 676.352419 
L 453.2724 621.561927 
L 454.41 687.862311 
L 455.5476 622.674062 
L 456.6852 676.429409 
L 457.8228 692.012684 
L 458.9604 673.176838 
L 460.098 621.639382 
L 461.2356 693.151892 
L 462.3732 630.205536 
L 463.5108 679.240269 
L 464.6484 665.470917 
L 465.786 676.032165 
L 466.9236 651.964133 
L 468.0612 671.890199 
L 469.1988 655.278506 
L 470.3364 654.156052 
L 471.474 688.462816 
L 472.6116 634.846261 
L 474.8868 673.44561 
L 476.0244 664.624656 
L 477.162 645.36397 
L 478.2996 675.841833 
L 479.4372 648.008557 
L 480.5748 691.915518 
L 481.7124 670.780963 
L 482.85 677.872639 
L 483.9876 678.458303 
L 485.1252 654.600894 
L 486.2628 681.019812 
L 487.4004 609.731839 
L 488.538 648.941201 
L 489.6756 680.955634 
L 490.8132 690.923565 
L 491.9508 578.50117 
L 493.0884 642.97882 
L 494.226 693.450754 
L 495.3636 656.172655 
L 496.5012 663.143163 
L 497.6388 691.134536 
L 498.7764 683.67727 
L 499.914 666.362978 
L 501.0516 667.680924 
L 502.1892 656.531926 
L 503.3268 693.687871 
L 504.4644 671.794656 
L 505.602 673.229711 
L 506.7396 657.383752 
L 507.8772 663.042112 
L 509.0148 691.864905 
L 510.1524 688.927022 
L 511.29 654.266553 
L 512.4276 696.404464 
L 513.5652 658.137543 
L 514.7028 690.665635 
L 515.8404 697.239884 
L 516.978 693.215549 
L 518.1156 697.498626 
L 519.2532 694.013227 
L 520.3908 695.580117 
L 521.5284 677.697091 
L 522.666 689.829229 
L 523.8036 680.142186 
L 524.9412 672.362521 
L 526.0788 697.115237 
L 527.2164 651.945987 
L 528.354 691.43734 
L 529.4916 688.119662 
L 530.6292 696.594506 
L 531.7668 697.52628 
L 532.9044 667.378352 
L 534.042 672.771245 
L 535.1796 680.839104 
L 536.3172 693.704104 
L 537.4548 694.69739 
L 538.5924 670.143296 
L 539.73 689.53576 
L 540.8676 686.222778 
L 542.0052 652.254182 
L 543.1428 664.085836 
L 544.2804 681.390156 
L 545.418 681.950543 
L 546.5556 677.458524 
L 547.6932 698.460953 
L 548.8308 667.57999 
L 549.9684 696.84548 
L 551.106 694.94419 
L 552.2436 702.297565 
L 553.3812 649.487789 
L 554.5188 691.686748 
L 555.6564 685.497221 
L 556.794 678.478362 
L 557.9316 663.747552 
L 559.0692 665.794823 
L 560.2068 663.503999 
L 561.3444 649.94985 
L 562.482 686.983468 
L 563.6196 688.872352 
L 564.7572 664.107809 
L 565.8948 681.051814 
L 567.0324 672.925343 
L 568.17 686.588543 
L 569.3076 677.674539 
L 570.4452 692.328995 
L 571.5828 699.552448 
L 572.7204 696.768083 
L 573.858 668.751316 
L 574.9956 696.432466 
L 576.1332 685.913424 
L 577.2708 657.730385 
L 578.4084 679.935679 
L 579.546 620.109364 
L 580.6836 689.289076 
L 581.8212 654.886421 
L 582.9588 673.104427 
L 584.0964 652.340043 
L 585.234 654.570515 
L 586.3716 696.986997 
L 587.5092 648.950303 
L 588.6468 703.099939 
L 589.7844 694.470302 
L 590.922 684.737169 
L 592.0596 671.236589 
L 593.1972 674.177371 
L 594.3348 676.800913 
L 595.4724 707.861309 
L 596.61 634.996242 
L 597.7476 703.058313 
L 598.8852 673.872364 
L 600.0228 697.34047 
L 601.1604 660.014716 
L 602.298 667.99741 
L 603.4356 681.02816 
L 604.5732 659.046128 
L 605.7108 704.358518 
L 606.8484 686.895984 
L 607.986 681.72873 
L 609.1236 675.348929 
L 610.2612 713.323772 
L 611.3988 700.956081 
L 612.5364 711.264152 
L 613.674 696.05186 
L 614.8116 672.260543 
L 615.9492 712.040437 
L 617.0868 700.232553 
L 618.2244 686.974134 
L 619.362 702.74003 
L 620.4996 704.488324 
L 621.6372 686.49758 
L 622.7748 714.490809 
L 623.9124 702.132626 
L 625.05 660.609133 
L 626.1876 688.764518 
L 627.3252 708.495846 
L 628.4628 705.941815 
L 629.6004 692.078891 
L 630.738 705.22049 
L 631.8756 685.301324 
L 633.0132 684.588695 
L 634.1508 703.421468 
L 635.2884 677.594301 
L 636.426 678.085639 
L 637.5636 708.249104 
L 638.7012 701.905654 
L 639.8388 689.989646 
L 640.9764 672.103431 
L 642.114 690.567773 
L 643.2516 695.257023 
L 644.3892 695.679023 
L 645.5268 648.537869 
L 646.6644 700.584461 
L 647.802 708.565532 
L 648.9396 709.476957 
L 650.0772 642.635434 
L 651.2148 704.807998 
L 652.3524 712.797765 
L 653.49 711.045296 
L 654.6276 706.109421 
L 655.7652 669.556241 
L 656.9028 691.563609 
L 658.0404 700.003726 
L 659.178 693.586299 
L 660.3156 709.172066 
L 661.4532 689.065351 
L 662.5908 666.314453 
L 663.7284 686.317278 
L 664.866 684.880193 
L 666.0036 705.399517 
L 667.1412 698.676504 
L 668.2788 697.708206 
L 669.4164 698.945334 
L 670.554 714.076287 
L 671.6916 716.162344 
L 672.8292 695.503416 
L 673.9668 703.99142 
L 675.1044 677.497251 
L 676.242 676.968983 
L 677.3796 694.375513 
L 678.5172 681.949325 
L 679.6548 695.821931 
L 680.7924 711.245252 
L 681.93 683.176134 
L 683.0676 702.29455 
L 684.2052 697.659796 
L 685.3428 604.779672 
L 686.4804 671.523681 
L 687.618 706.734217 
L 688.7556 688.028932 
L 689.8932 677.729209 
L 691.0308 708.401115 
L 692.1684 701.266885 
L 693.306 686.433575 
L 694.4436 663.138989 
L 695.5812 714.850022 
L 696.7188 702.184745 
L 697.8564 693.219607 
L 698.994 695.955853 
L 700.1316 708.171302 
L 701.2692 695.11023 
L 702.4068 704.394404 
L 703.5444 715.173232 
L 704.682 708.154431 
L 705.8196 659.071579 
L 706.9572 710.640631 
L 708.0948 687.892748 
L 709.2324 678.597443 
L 710.37 705.78592 
L 711.5076 710.97561 
L 712.6452 713.393052 
L 713.7828 703.532722 
L 714.9204 705.745338 
L 716.058 695.962404 
L 717.1956 701.708075 
L 718.3332 684.933356 
L 719.4708 674.552295 
L 720.6084 696.410145 
L 721.746 707.011628 
L 722.8836 697.82317 
L 724.0212 714.619629 
L 725.1588 717.54296 
L 726.2964 712.594446 
L 727.434 709.561252 
L 728.5716 696.329966 
L 729.7092 646.005637 
L 730.8468 703.688153 
L 731.9844 701.754745 
L 733.122 703.516083 
L 734.2596 694.444967 
L 735.3972 707.181089 
L 736.5348 707.366435 
L 737.6724 682.239316 
L 738.81 623.63952 
L 739.9476 709.218504 
L 741.0852 717.402777 
L 742.2228 705.607183 
L 743.3604 685.33292 
L 744.498 691.560421 
L 745.6356 713.376297 
L 746.7732 701.395763 
L 747.9108 686.749945 
L 749.0484 699.93746 
L 750.186 702.173846 
L 751.3236 704.004291 
L 752.4612 710.014443 
L 753.5988 696.899976 
L 754.7364 613.647296 
L 755.874 656.785218 
L 757.0116 654.900799 
L 758.1492 685.778806 
L 759.2868 700.385143 
L 760.4244 692.909093 
L 761.562 704.949805 
L 762.6996 706.96119 
L 763.8372 705.973643 
L 764.9748 699.575291 
L 766.1124 710.037981 
L 767.25 695.834338 
L 768.3876 683.024993 
L 769.5252 697.141384 
L 770.6628 707.407191 
L 771.8004 704.86319 
L 772.938 704.773039 
L 774.0756 665.75169 
L 775.2132 703.803175 
L 776.3508 690.284391 
L 777.4884 702.318725 
L 778.626 681.514571 
L 779.7636 714.353524 
L 780.9012 699.305011 
L 782.0388 687.041385 
L 783.1764 718.57909 
L 784.314 724.664899 
L 786.5892 716.228783 
L 787.7268 722.229949 
L 788.8644 711.024078 
L 790.002 692.623566 
L 791.1396 698.296362 
L 792.2772 702.128452 
L 793.4148 691.173496 
L 794.5524 670.758991 
L 795.69 667.553669 
L 796.8276 711.163739 
L 797.9652 710.771944 
L 799.1028 725.894027 
L 800.2404 715.602479 
L 801.378 675.766349 
L 802.5156 706.636993 
L 803.6532 694.320147 
L 804.7908 719.229395 
L 805.9284 654.270263 
L 807.066 712.750457 
L 808.2036 703.717372 
L 809.3412 570.524796 
L 810.4788 696.45067 
L 811.6164 675.740435 
L 812.754 723.701181 
L 813.8916 683.096534 
L 815.0292 711.089763 
L 816.1668 716.22658 
L 817.3044 715.57297 
L 818.442 644.023877 
L 819.5796 705.692639 
L 820.7172 705.9995 
L 821.8548 704.200768 
L 822.9924 706.318015 
L 824.13 720.895075 
L 825.2676 725.39237 
L 826.4052 688.503457 
L 827.5428 709.939075 
L 828.6804 707.216917 
L 829.818 701.838866 
L 830.9556 698.44501 
L 832.0932 707.778463 
L 833.2308 723.868207 
L 834.3684 715.361593 
L 835.506 680.612074 
L 836.6436 691.082823 
L 837.7812 698.821789 
L 838.9188 689.804822 
L 840.0564 717.325786 
L 841.194 723.744662 
L 842.3316 711.825756 
L 843.4692 705.040884 
L 844.6068 665.821086 
L 845.7444 704.895308 
L 846.882 693.854317 
L 848.0196 671.270098 
L 849.1572 693.561486 
L 850.2948 688.018322 
L 851.4324 677.32263 
L 852.57 714.712969 
L 853.7076 725.400776 
L 854.8452 714.643457 
L 855.9828 712.704657 
L 857.1204 686.541757 
L 858.258 713.98318 
L 859.3956 687.242153 
L 860.5332 724.662638 
L 861.6708 686.052042 
L 862.8084 724.957499 
L 863.946 641.137766 
L 865.0836 663.219168 
L 866.2212 696.685295 
L 867.3588 703.722068 
L 868.4964 705.216374 
L 869.634 718.379018 
L 870.7716 709.761614 
L 871.9092 709.598414 
L 873.0468 667.879604 
L 874.1844 715.260775 
L 875.322 689.635361 
L 876.4596 726.167032 
L 878.7348 692.860278 
L 879.8724 695.539477 
L 881.01 727.502776 
L 882.1476 691.573059 
L 883.2852 703.969622 
L 884.4228 714.132929 
L 885.5604 715.591232 
L 886.698 702.993612 
L 887.8356 707.474616 
L 888.9732 690.999455 
L 890.1108 684.42793 
L 891.2484 707.390842 
L 892.386 708.07715 
L 893.5236 714.19989 
L 894.6612 724.576082 
L 895.7988 696.248511 
L 896.9364 721.148368 
L 898.074 687.540666 
L 899.2116 678.651823 
L 900.3492 680.502559 
L 901.4868 715.282225 
L 902.6244 682.998035 
L 903.762 719.902195 
L 904.8996 715.060355 
L 906.0372 699.387162 
L 907.1748 706.189658 
L 908.3124 728.964325 
L 909.45 678.489029 
L 910.5876 716.904888 
L 911.7252 712.062642 
L 912.8628 707.871803 
L 914.0004 718.374206 
L 915.138 701.896783 
L 916.2756 724.210549 
L 917.4132 722.374249 
L 918.5508 710.18889 
L 919.6884 719.517937 
L 920.826 682.474405 
L 921.9636 695.578494 
L 923.1012 720.412085 
L 924.2388 721.292783 
L 925.3764 695.808307 
L 926.514 695.469037 
L 927.6516 667.35064 
L 928.7892 696.114415 
L 929.9268 685.071047 
L 931.0644 714.624673 
L 932.202 718.367017 
L 933.3396 715.530996 
L 934.4772 723.798579 
L 935.6148 695.652644 
L 936.7524 709.556209 
L 937.89 719.402103 
L 939.0276 717.523249 
L 940.1652 721.467404 
L 941.3028 720.043712 
L 942.4404 719.761606 
L 943.578 723.200335 
L 944.7156 729.239996 
L 945.8532 712.485106 
L 946.9908 719.650989 
L 948.1284 695.205135 
L 950.4036 735.985214 
L 951.5412 719.362506 
L 952.6788 725.659866 
L 953.8164 714.360423 
L 954.954 730.203019 
L 956.0916 712.198303 
L 957.2292 726.64347 
L 958.3668 717.054463 
L 959.5044 708.897613 
L 960.642 702.193152 
L 961.7796 706.936492 
L 962.9172 683.969348 
L 965.1924 721.589905 
L 966.33 685.42081 
L 967.4676 725.712102 
L 968.6052 731.960647 
L 969.7428 704.636276 
L 970.8804 704.72921 
L 972.018 727.522893 
L 973.1556 738.101765 
L 974.2932 701.527541 
L 976.5684 727.828247 
L 977.706 721.878157 
L 978.8436 687.25282 
L 979.9812 707.017309 
L 981.1188 715.842438 
L 982.2564 725.565715 
L 983.394 726.708054 
L 984.5316 673.462423 
L 985.6692 688.650597 
L 986.8068 724.617476 
L 987.9444 723.020149 
L 989.082 711.88634 
L 990.2196 688.591811 
L 991.3572 691.738056 
L 992.4948 703.011817 
L 993.6324 721.399168 
L 994.77 714.734536 
L 995.9076 721.079725 
L 997.0452 721.086856 
L 998.1828 718.121493 
L 999.3204 717.509509 
L 1000.458 718.553929 
L 1001.5956 688.525719 
L 1002.7332 718.804902 
L 1003.8708 713.982542 
L 1005.0084 705.430997 
L 1006.146 719.07437 
L 1007.2836 724.010536 
L 1008.4212 721.392616 
L 1009.5588 726.64747 
L 1010.6964 708.293629 
L 1011.834 720.868754 
L 1012.9716 714.540203 
L 1014.1092 726.880182 
L 1015.2468 717.635778 
L 1016.3844 730.210904 
L 1017.522 713.434098 
L 1018.6596 726.367335 
L 1019.7972 705.149993 
L 1020.9348 699.193699 
L 1022.0724 730.046139 
L 1023.21 705.964135 
L 1024.3476 668.994927 
L 1025.4852 701.089829 
L 1026.6228 710.156656 
L 1027.7604 707.061138 
L 1028.898 712.34127 
L 1030.0356 730.09878 
L 1031.1732 729.198428 
L 1032.3108 670.365804 
L 1033.4484 721.67281 
L 1034.586 721.725219 
L 1035.7236 685.963804 
L 1036.8612 729.466389 
L 1037.9988 719.056746 
L 1039.1364 702.294782 
L 1040.274 706.69607 
L 1041.4116 693.33805 
L 1042.5492 707.037775 
L 1043.6868 724.824447 
L 1045.962 676.932459 
L 1047.0996 718.288287 
L 1048.2372 718.576133 
L 1049.3748 720.066264 
L 1050.5124 660.10133 
L 1051.65 705.921698 
L 1052.7876 723.325097 
L 1053.9252 724.901205 
L 1055.0628 723.682339 
L 1056.2004 727.808304 
L 1057.338 733.403819 
L 1058.4756 689.454189 
L 1059.6132 716.272554 
L 1060.7508 675.855747 
L 1061.8884 728.983399 
L 1063.026 693.766601 
L 1064.1636 683.84963 
L 1065.3012 713.617763 
L 1066.4388 737.304029 
L 1067.5764 706.790627 
L 1068.714 723.786114 
L 1069.8516 667.857052 
L 1070.9892 727.533444 
L 1072.1268 725.653547 
L 1073.2644 717.809066 
L 1074.402 696.949545 
L 1075.5396 727.030743 
L 1076.6772 725.323263 
L 1077.8148 716.009812 
L 1078.9524 737.531059 
L 1080.09 702.282491 
L 1081.2276 721.4452 
L 1082.3652 732.65026 
L 1083.5028 731.537256 
L 1084.6404 719.811174 
L 1085.778 719.462049 
L 1086.9156 719.768563 
L 1088.0532 722.922345 
L 1089.1908 698.820456 
L 1090.3284 729.024735 
L 1091.466 733.632125 
L 1092.6036 726.91804 
L 1093.7412 732.97063 
L 1094.8788 714.193977 
L 1096.0164 728.509511 
L 1097.154 728.98566 
L 1098.2916 716.747833 
L 1099.4292 734.475313 
L 1100.5668 734.015165 
L 1101.7044 722.01579 
L 1102.842 732.187909 
L 1103.9796 696.533632 
L 1106.2548 721.103031 
L 1107.3924 714.930955 
L 1108.53 730.887762 
L 1109.6676 733.130583 
L 1110.8052 679.870632 
L 1111.9428 716.223044 
L 1113.0804 675.523956 
L 1114.218 720.928585 
L 1115.3556 732.001172 
L 1116.4932 739.088036 
L 1117.6308 732.516454 
L 1118.7684 741.645023 
L 1119.906 725.430459 
L 1121.0436 730.92388 
L 1122.1812 738.17951 
L 1123.3188 710.724753 
L 1124.4564 717.169022 
L 1125.594 736.438346 
L 1126.7316 728.084497 
L 1127.8692 706.149482 
L 1129.0068 670.163761 
L 1130.1444 712.494903 
L 1131.282 719.315546 
L 1132.4196 716.96953 
L 1133.5572 697.332644 
L 1134.6948 709.339614 
L 1135.8324 699.965288 
L 1138.1076 719.921733 
L 1139.2452 727.444047 
L 1140.3828 723.060789 
L 1141.5204 714.501128 
L 1142.658 709.466289 
L 1143.7956 674.667201 
L 1144.9332 723.228801 
L 1146.0708 721.235446 
L 1147.2084 729.382557 
L 1148.346 718.273619 
L 1149.4836 705.661738 
L 1150.6212 736.779529 
L 1151.7588 711.130868 
L 1152.8964 716.719194 
L 1154.034 731.472846 
L 1155.1716 681.838709 
L 1156.3092 713.38395 
L 1157.4468 710.244836 
L 1158.5844 702.689939 
L 1159.722 709.107598 
L 1160.8596 728.50812 
L 1161.9972 722.279866 
L 1163.1348 739.04125 
L 1164.2724 721.823487 
L 1165.41 695.535766 
L 1166.5476 702.891345 
L 1167.6852 716.26293 
L 1168.8228 688.334982 
L 1169.9604 720.559226 
L 1171.098 734.809423 
L 1172.2356 723.610392 
L 1173.3732 736.508496 
L 1174.5108 718.729245 
L 1175.6484 689.117296 
L 1176.786 712.814461 
L 1177.9236 703.285227 
L 1179.0612 684.07579 
L 1180.1988 735.410102 
L 1181.3364 714.732912 
L 1182.474 720.106557 
L 1183.6116 730.870659 
L 1184.7492 725.005445 
L 1185.8868 722.846398 
L 1187.0244 730.525012 
L 1188.162 705.790732 
L 1189.2996 738.687197 
L 1190.4372 734.69585 
L 1191.5748 738.00657 
L 1192.7124 714.188295 
L 1193.85 723.86496 
L 1194.9876 710.140075 
L 1196.1252 708.745776 
L 1197.2628 720.214854 
L 1198.4004 711.310068 
L 1199.538 710.120247 
L 1200.6756 714.856283 
L 1201.8132 731.215727 
L 1202.9508 732.339456 
L 1204.0884 725.003821 
L 1205.226 708.997272 
L 1206.3636 720.233522 
L 1207.5012 708.693599 
L 1208.6388 709.241868 
L 1209.7764 714.764103 
L 1210.914 725.300421 
L 1212.0516 743.190057 
L 1213.1892 716.800185 
L 1214.3268 715.837858 
L 1215.4644 707.522851 
L 1216.602 721.623415 
L 1217.7396 733.510609 
L 1218.8772 721.644518 
L 1220.0148 730.502924 
L 1221.1524 731.781563 
L 1222.29 720.624274 
L 1223.4276 733.756945 
L 1224.5652 740.760557 
L 1225.7028 710.818614 
L 1226.8404 740.026941 
L 1227.978 733.634849 
L 1229.1156 708.453814 
L 1230.2532 739.420928 
L 1231.3908 739.197145 
L 1232.5284 726.993175 
L 1233.666 717.538438 
L 1234.8036 729.387195 
L 1235.9412 717.900782 
L 1237.0788 728.426433 
L 1238.2164 714.322855 
L 1239.354 720.188128 
L 1240.4916 712.596765 
L 1241.6292 711.609915 
L 1242.7668 732.630317 
L 1243.9044 708.621652 
L 1245.042 705.387458 
L 1246.1796 725.862083 
L 1247.3172 737.9977 
L 1248.4548 739.573866 
L 1249.5924 734.680776 
L 1250.73 715.050905 
L 1251.8676 707.727097 
L 1253.0052 722.037125 
L 1254.1428 695.551362 
L 1255.2804 727.832016 
L 1256.418 711.95075 
L 1257.5556 694.115727 
L 1258.6932 708.930079 
L 1259.8308 731.330749 
L 1260.9684 732.102976 
L 1262.106 739.747154 
L 1263.2436 733.880026 
L 1264.3812 733.070347 
L 1265.5188 717.875447 
L 1266.6564 677.672915 
L 1267.794 703.322852 
L 1268.9316 704.983372 
L 1270.0692 727.587535 
L 1271.2068 714.618122 
L 1272.3444 730.887124 
L 1273.482 718.720781 
L 1274.6196 730.335202 
L 1275.7572 729.373049 
L 1276.8948 710.057692 
L 1278.0324 722.910112 
L 1279.17 733.168382 
L 1280.3076 729.178891 
L 1281.4452 713.530859 
L 1282.5828 721.898912 
L 1283.7204 701.530439 
L 1284.858 740.170777 
L 1285.9956 674.255173 
L 1287.1332 713.014591 
L 1288.2708 728.773993 
L 1289.4084 740.982195 
L 1290.546 712.89325 
L 1291.6836 713.859403 
L 1292.8212 713.787572 
L 1293.9588 730.05727 
L 1295.0964 712.413101 
L 1296.234 737.337191 
L 1297.3716 734.352464 
L 1298.5092 744.833358 
L 1299.6468 713.209793 
L 1300.7844 741.220066 
L 1301.922 734.060386 
L 1303.0596 728.460639 
L 1305.3348 719.200234 
L 1306.4724 730.875181 
L 1307.61 727.397551 
L 1308.7476 727.058919 
L 1309.8852 732.806155 
L 1311.0228 736.755412 
L 1312.1604 722.681401 
L 1313.298 730.7212 
L 1314.4356 729.298377 
L 1315.5732 727.38068 
L 1316.7108 737.791715 
L 1317.8484 692.67957 
L 1318.986 732.041986 
L 1320.1236 728.223869 
L 1321.2612 739.162997 
L 1322.3988 703.48095 
L 1323.5364 732.131963 
L 1324.674 707.81835 
L 1325.8116 734.861368 
L 1326.9492 744.075683 
L 1328.0868 734.016325 
L 1329.2244 725.426633 
L 1330.362 734.827917 
L 1331.4996 739.162534 
L 1332.6372 716.239335 
L 1333.7748 701.406373 
L 1334.9124 722.352856 
L 1336.05 739.446263 
L 1336.05 739.446263 
" style="fill:none;stroke:#0000ff;stroke-linecap:square;stroke-width:2.0;"/>
   </g>
   <g id="line2d_2">
    <path clip-path="url(#p402013f79c)" d="M 199.5876 169.820032 
L 200.7252 196.253733 
L 201.8628 487.802413 
L 203.0004 338.935426 
L 204.138 420.091208 
L 205.2756 534.263288 
L 206.4132 515.6285 
L 207.5508 563.129621 
L 208.6884 588.268334 
L 209.826 529.149719 
L 210.9636 586.302692 
L 212.1012 520.758708 
L 213.2388 589.148395 
L 214.3764 586.330694 
L 215.514 589.872445 
L 216.6516 565.124366 
L 217.7892 533.966282 
L 218.9268 613.295852 
L 220.0644 568.728498 
L 221.202 543.045167 
L 222.3396 559.576275 
L 223.4772 593.460749 
L 224.6148 549.119672 
L 225.7524 620.924318 
L 226.89 614.14391 
L 228.0276 606.127823 
L 229.1652 627.481639 
L 230.3028 638.920454 
L 231.4404 618.356606 
L 232.578 570.199266 
L 233.7156 636.86524 
L 234.8532 639.29677 
L 235.9908 622.07576 
L 237.1284 627.954483 
L 238.266 629.921285 
L 239.4036 559.12778 
L 240.5412 608.31864 
L 241.6788 590.226846 
L 243.954 536.248178 
L 245.0916 635.257478 
L 246.2292 629.426062 
L 248.5044 595.595969 
L 249.642 627.892102 
L 250.7796 625.289604 
L 251.9172 635.899609 
L 253.0548 611.164807 
L 254.1924 634.244596 
L 255.33 644.634644 
L 256.4676 634.786779 
L 257.6052 607.203491 
L 258.7428 610.207292 
L 259.8804 639.547918 
L 261.018 630.644465 
L 262.1556 651.006676 
L 263.2932 634.160301 
L 264.4308 639.43649 
L 265.5684 546.483897 
L 266.706 632.939289 
L 267.8436 609.967043 
L 268.9812 656.273879 
L 270.1188 642.218246 
L 271.2564 622.441408 
L 272.394 634.445364 
L 273.5316 572.631027 
L 274.6692 650.492844 
L 275.8068 644.390859 
L 276.9444 566.794626 
L 278.082 646.144197 
L 279.2196 630.403173 
L 280.3572 644.815816 
L 281.4948 650.571922 
L 282.6324 658.153428 
L 283.77 634.164881 
L 284.9076 636.68975 
L 286.0452 656.069285 
L 287.1828 653.185377 
L 288.3204 654.835519 
L 289.458 636.044256 
L 290.5956 640.227269 
L 291.7332 646.692235 
L 292.8708 659.281158 
L 294.0084 650.033624 
L 295.146 635.341136 
L 296.2836 638.613476 
L 297.4212 632.115523 
L 298.5588 628.783815 
L 299.6964 646.515585 
L 300.834 594.901254 
L 301.9716 646.428506 
L 303.1092 634.396723 
L 304.2468 607.313702 
L 305.3844 655.79918 
L 306.522 621.519374 
L 307.6596 665.618637 
L 308.7972 648.503026 
L 309.9348 648.722519 
L 311.0724 638.265511 
L 312.21 657.294587 
L 313.3476 652.066053 
L 314.4852 659.16573 
L 315.6228 617.252124 
L 316.7604 643.302147 
L 317.898 658.766572 
L 319.0356 664.401568 
L 320.1732 657.944255 
L 321.3108 656.434296 
L 322.4484 648.555203 
L 323.586 624.201587 
L 324.7236 615.979399 
L 325.8612 659.458504 
L 326.9988 538.073579 
L 328.1364 654.220636 
L 329.274 661.647466 
L 330.4116 658.640592 
L 331.5492 653.684252 
L 332.6868 650.659928 
L 333.8244 669.284976 
L 334.962 559.296662 
L 336.0996 649.468426 
L 337.2372 658.313729 
L 338.3748 655.941218 
L 339.5124 664.798233 
L 340.65 652.464748 
L 341.7876 649.291312 
L 342.9252 637.630278 
L 344.0628 667.423921 
L 345.2004 648.94868 
L 346.338 665.127299 
L 347.4756 615.867913 
L 348.6132 646.763544 
L 349.7508 639.245404 
L 350.8884 679.334769 
L 352.026 662.890566 
L 353.1636 644.557769 
L 354.3012 630.197304 
L 355.4388 672.486008 
L 356.5764 675.430674 
L 357.714 669.006522 
L 358.8516 659.872213 
L 359.9892 656.382234 
L 361.1268 622.941674 
L 362.2644 658.958121 
L 363.402 676.39648 
L 364.5396 643.616197 
L 365.6772 682.299436 
L 366.8148 669.985024 
L 367.9524 690.411762 
L 369.09 672.233933 
L 370.2276 650.983428 
L 371.3652 656.535056 
L 372.5028 682.232649 
L 373.6404 673.463582 
L 374.778 669.146358 
L 375.9156 659.481114 
L 377.0532 680.000727 
L 378.1908 663.056722 
L 379.3284 663.580178 
L 380.466 622.87309 
L 381.6036 659.24533 
L 382.7412 618.726834 
L 383.8788 667.265301 
L 385.0164 660.187771 
L 386.154 663.463533 
L 387.2916 664.686341 
L 388.4292 650.763297 
L 389.5668 631.604647 
L 390.7044 644.547276 
L 391.842 620.982177 
L 392.9796 643.473927 
L 394.1172 660.606061 
L 395.2548 630.623072 
L 396.3924 681.058249 
L 397.53 620.901186 
L 398.6676 617.463791 
L 399.8052 689.195736 
L 400.9428 663.888257 
L 402.0804 649.315603 
L 403.218 677.214971 
L 404.3556 652.430542 
L 405.4932 664.702748 
L 406.6308 686.915174 
L 407.7684 691.681183 
L 408.906 669.497513 
L 410.0436 674.135861 
L 411.1812 679.289954 
L 413.4564 644.639166 
L 414.594 687.884052 
L 415.7316 663.662329 
L 416.8692 654.945556 
L 418.0068 648.106361 
L 419.1444 675.167062 
L 420.282 662.526425 
L 421.4196 675.038879 
L 423.6948 682.787528 
L 424.8324 692.510747 
L 425.97 639.609255 
L 427.1076 691.16277 
L 428.2452 666.142557 
L 429.3828 682.671926 
L 430.5204 678.624807 
L 431.658 689.092251 
L 432.7956 650.166734 
L 433.9332 680.327648 
L 435.0708 675.580308 
L 436.2084 662.136137 
L 437.346 692.6667 
L 438.4836 696.072905 
L 439.6212 682.824226 
L 440.7588 666.090612 
L 441.8964 683.45024 
L 443.034 688.219147 
L 444.1716 654.448362 
L 446.4468 701.208852 
L 447.5844 671.873096 
L 448.722 669.087687 
L 449.8596 667.413485 
L 452.1348 701.057421 
L 453.2724 646.660754 
L 454.41 677.573488 
L 455.5476 692.044686 
L 456.6852 701.625982 
L 457.8228 658.807039 
L 458.9604 674.534497 
L 460.098 678.083784 
L 461.2356 694.445373 
L 462.3732 675.390034 
L 463.5108 673.803084 
L 464.6484 688.827595 
L 466.9236 679.649283 
L 468.0612 661.62758 
L 469.1988 689.001926 
L 470.3364 683.704344 
L 471.474 651.547699 
L 472.6116 670.828039 
L 473.7492 697.290438 
L 474.8868 672.397016 
L 476.0244 680.559896 
L 477.162 678.954743 
L 478.2996 668.404974 
L 479.4372 694.165121 
L 480.5748 697.089786 
L 482.85 654.578052 
L 483.9876 694.942682 
L 485.1252 695.812365 
L 486.2628 694.049403 
L 487.4004 674.901768 
L 488.538 691.397221 
L 489.6756 673.062975 
L 490.8132 668.164841 
L 491.9508 696.273962 
L 493.0884 684.43309 
L 494.226 658.060089 
L 495.3636 637.367594 
L 496.5012 671.970552 
L 497.6388 688.276949 
L 498.7764 672.457716 
L 499.914 661.851132 
L 501.0516 649.137736 
L 502.1892 691.801713 
L 503.3268 669.084383 
L 504.4644 689.238464 
L 505.602 690.836313 
L 506.7396 702.871111 
L 507.8772 697.255363 
L 509.0148 667.354989 
L 510.1524 669.067512 
L 511.29 657.070571 
L 512.4276 678.971671 
L 513.5652 689.28983 
L 514.7028 673.171272 
L 515.8404 664.763332 
L 516.978 682.091886 
L 518.1156 673.082687 
L 519.2532 699.498358 
L 520.3908 670.413692 
L 521.5284 687.581133 
L 522.666 693.97421 
L 523.8036 679.819961 
L 524.9412 687.527506 
L 526.0788 655.28326 
L 527.2164 660.569363 
L 528.354 693.352602 
L 529.4916 693.572153 
L 530.6292 692.548663 
L 531.7668 660.165161 
L 532.9044 593.719318 
L 534.042 696.484006 
L 535.1796 698.264012 
L 536.3172 702.902592 
L 537.4548 704.135604 
L 538.5924 647.760946 
L 539.73 700.696585 
L 540.8676 687.801496 
L 542.0052 689.264263 
L 543.1428 683.341363 
L 544.2804 678.18982 
L 545.418 697.418389 
L 546.5556 694.948422 
L 547.6932 701.781297 
L 548.8308 696.617464 
L 549.9684 707.992391 
L 551.106 699.777913 
L 552.2436 685.291816 
L 553.3812 656.883138 
L 554.5188 648.386438 
L 555.6564 701.622678 
L 556.794 693.473364 
L 557.9316 688.847307 
L 559.0692 679.490374 
L 560.2068 688.337011 
L 561.3444 709.804689 
L 562.482 685.187925 
L 563.6196 695.181481 
L 564.7572 687.687923 
L 565.8948 644.957681 
L 568.17 693.678016 
L 569.3076 674.98589 
L 570.4452 631.825879 
L 571.5828 697.957614 
L 572.7204 678.094336 
L 573.858 673.857117 
L 574.9956 681.545877 
L 576.1332 692.207074 
L 577.2708 663.656531 
L 578.4084 700.312211 
L 579.546 622.480251 
L 580.6836 676.963533 
L 581.8212 686.486681 
L 582.9588 697.385459 
L 584.0964 699.748636 
L 585.234 658.386256 
L 586.3716 675.20805 
L 587.5092 668.278124 
L 588.6468 698.111596 
L 589.7844 700.621565 
L 590.922 695.372915 
L 592.0596 672.337244 
L 593.1972 685.470321 
L 594.3348 627.393633 
L 595.4724 693.70509 
L 596.61 678.46839 
L 597.7476 690.980729 
L 598.8852 674.537743 
L 600.0228 670.359949 
L 601.1604 699.957172 
L 602.298 676.457469 
L 603.4356 669.163577 
L 605.7108 703.321403 
L 606.8484 681.13211 
L 607.986 677.15659 
L 609.1236 667.480273 
L 610.2612 699.660224 
L 611.3988 688.76904 
L 612.5364 660.48327 
L 613.674 712.3364 
L 614.8116 688.967837 
L 615.9492 653.781824 
L 617.0868 694.708695 
L 618.2244 698.954204 
L 619.362 649.377405 
L 620.4996 697.514975 
L 621.6372 696.816666 
L 622.7748 676.759983 
L 623.9124 673.748993 
L 625.05 698.4951 
L 626.1876 708.385519 
L 627.3252 661.250221 
L 628.4628 661.253004 
L 629.6004 685.006463 
L 630.738 693.522411 
L 631.8756 698.767409 
L 633.0132 701.99679 
L 634.1508 702.984742 
L 635.2884 698.316595 
L 636.426 644.294505 
L 637.5636 690.147686 
L 638.7012 714.198441 
L 639.8388 693.401649 
L 640.9764 669.728543 
L 642.114 697.610344 
L 643.2516 702.194253 
L 644.3892 692.359838 
L 645.5268 669.696831 
L 646.6644 682.203893 
L 647.802 698.337466 
L 650.0772 685.432231 
L 651.2148 686.487028 
L 652.3524 689.213941 
L 653.49 691.278024 
L 654.6276 642.632767 
L 655.7652 678.547468 
L 656.9028 701.561804 
L 658.0404 704.185289 
L 659.178 683.701156 
L 660.3156 695.029645 
L 661.4532 687.69801 
L 662.5908 709.557542 
L 663.7284 693.12592 
L 664.866 701.159979 
L 666.0036 705.502481 
L 667.1412 710.729623 
L 668.2788 685.836085 
L 669.4164 700.304906 
L 670.554 688.738024 
L 672.8292 718.053836 
L 673.9668 690.823384 
L 675.1044 707.860556 
L 676.242 682.609255 
L 677.3796 691.854644 
L 678.5172 711.968142 
L 679.6548 708.352532 
L 680.7924 667.30629 
L 681.93 677.401592 
L 683.0676 692.792389 
L 684.2052 702.555206 
L 685.3428 678.650258 
L 686.4804 693.347906 
L 687.618 702.392064 
L 688.7556 705.812241 
L 689.8932 705.059552 
L 691.0308 697.082481 
L 692.1684 712.775328 
L 693.306 715.519053 
L 694.4436 707.447832 
L 695.5812 686.099581 
L 696.7188 697.304062 
L 697.8564 689.52573 
L 698.994 694.148715 
L 700.1316 690.679491 
L 701.2692 693.949049 
L 702.4068 715.026614 
L 703.5444 697.908103 
L 704.682 712.579257 
L 705.8196 671.116465 
L 706.9572 686.86433 
L 708.0948 679.638152 
L 709.2324 692.842306 
L 710.37 704.061338 
L 711.5076 709.441418 
L 712.6452 691.955984 
L 713.7828 707.254253 
L 714.9204 692.665946 
L 716.058 706.259344 
L 717.1956 717.313032 
L 718.3332 716.944774 
L 719.4708 712.117486 
L 720.6084 694.167209 
L 721.746 691.877022 
L 722.8836 687.807989 
L 724.0212 668.672412 
L 725.1588 680.391305 
L 726.2964 694.760351 
L 727.434 699.147609 
L 728.5716 700.695483 
L 729.7092 710.097521 
L 730.8468 715.763824 
L 731.9844 697.863984 
L 733.122 714.753203 
L 734.2596 646.513324 
L 735.3972 702.452822 
L 736.5348 695.813409 
L 737.6724 717.468231 
L 738.81 717.028258 
L 739.9476 697.76392 
L 741.0852 719.044571 
L 742.2228 688.212538 
L 743.3604 721.458186 
L 744.498 718.326203 
L 745.6356 701.207345 
L 746.7732 720.038262 
L 747.9108 707.789942 
L 749.0484 687.564726 
L 750.186 700.487643 
L 751.3236 686.680375 
L 752.4612 697.938656 
L 753.5988 706.019212 
L 754.7364 671.977451 
L 755.874 691.390438 
L 757.0116 695.03979 
L 758.1492 672.791478 
L 759.2868 704.42345 
L 760.4244 716.494193 
L 761.562 715.521256 
L 762.6996 673.302702 
L 763.8372 700.947907 
L 764.9748 696.91963 
L 766.1124 678.097408 
L 767.25 695.808655 
L 768.3876 691.096795 
L 769.5252 667.457546 
L 770.6628 663.227111 
L 771.8004 686.973033 
L 772.938 714.488722 
L 774.0756 710.977002 
L 776.3508 705.574486 
L 777.4884 717.014808 
L 778.626 703.832395 
L 779.7636 720.235146 
L 780.9012 712.369214 
L 782.0388 657.256903 
L 783.1764 714.993278 
L 784.314 699.156131 
L 785.4516 701.892377 
L 786.5892 695.38364 
L 787.7268 709.845968 
L 788.8644 719.233917 
L 790.002 715.602073 
L 791.1396 614.900252 
L 792.2772 677.74092 
L 793.4148 720.203607 
L 794.5524 694.181818 
L 795.69 677.940702 
L 796.8276 704.748574 
L 797.9652 672.846786 
L 799.1028 712.756023 
L 800.2404 709.658998 
L 801.378 705.228201 
L 802.5156 692.77204 
L 803.6532 720.424202 
L 804.7908 659.780555 
L 805.9284 664.945374 
L 807.066 717.683608 
L 808.2036 714.320884 
L 809.3412 708.704092 
L 810.4788 698.108755 
L 811.6164 707.803508 
L 812.754 709.639519 
L 813.8916 717.029534 
L 816.1668 665.582171 
L 817.3044 716.819896 
L 818.442 701.282654 
L 819.5796 688.437134 
L 820.7172 715.16071 
L 821.8548 702.802991 
L 822.9924 711.752302 
L 824.13 708.677771 
L 825.2676 721.090799 
L 826.4052 708.08231 
L 827.5428 703.508662 
L 828.6804 632.123001 
L 829.818 704.437074 
L 830.9556 711.254122 
L 832.0932 707.764607 
L 833.2308 682.083595 
L 834.3684 709.737902 
L 835.506 709.263609 
L 836.6436 703.682587 
L 838.9188 707.221033 
L 840.0564 705.819256 
L 841.194 705.014621 
L 842.3316 715.444497 
L 843.4692 708.918599 
L 844.6068 723.469049 
L 845.7444 722.524114 
L 846.882 727.290297 
L 848.0196 666.859128 
L 849.1572 716.658088 
L 850.2948 667.26449 
L 851.4324 679.224384 
L 852.57 717.290885 
L 853.7076 720.409592 
L 854.8452 720.015942 
L 855.9828 722.543478 
L 857.1204 697.384763 
L 858.258 690.663605 
L 859.3956 702.870763 
L 860.5332 692.831928 
L 861.6708 649.085095 
L 862.8084 707.409684 
L 863.946 712.432406 
L 865.0836 699.871253 
L 866.2212 716.769632 
L 867.3588 688.704456 
L 868.4964 643.266782 
L 869.634 722.285489 
L 870.7716 719.651975 
L 871.9092 712.294542 
L 873.0468 689.923381 
L 874.1844 722.337899 
L 875.322 715.375275 
L 876.4596 719.917848 
L 877.5972 701.277842 
L 878.7348 687.136117 
L 879.8724 681.52518 
L 881.01 719.777491 
L 882.1476 714.436022 
L 883.2852 720.232711 
L 884.4228 724.508889 
L 885.5604 710.875662 
L 886.698 712.649059 
L 887.8356 704.135256 
L 888.9732 718.164452 
L 890.1108 704.628218 
L 891.2484 696.756604 
L 892.386 696.286195 
L 893.5236 714.1309 
L 894.6612 720.957746 
L 895.7988 712.508817 
L 896.9364 696.679497 
L 898.074 701.332803 
L 899.2116 722.72865 
L 900.3492 710.214225 
L 901.4868 725.48513 
L 902.6244 690.427647 
L 903.762 697.047349 
L 904.8996 715.850322 
L 906.0372 668.897413 
L 907.1748 669.491773 
L 908.3124 694.318523 
L 909.45 637.088386 
L 910.5876 684.832712 
L 911.7252 654.192171 
L 912.8628 717.711262 
L 914.0004 705.094568 
L 915.138 698.044982 
L 916.2756 716.155677 
L 917.4132 718.469285 
L 918.5508 721.537148 
L 919.6884 722.25714 
L 920.826 718.75858 
L 921.9636 684.957996 
L 923.1012 722.936259 
L 924.2388 713.926422 
L 925.3764 616.858937 
L 926.514 688.644452 
L 927.6516 675.619093 
L 928.7892 715.701848 
L 929.9268 721.838386 
L 931.0644 709.69158 
L 932.202 680.441743 
L 933.3396 727.986751 
L 934.4772 710.419108 
L 935.6148 712.289498 
L 936.7524 699.170509 
L 937.89 718.538217 
L 939.0276 719.735865 
L 940.1652 710.551523 
L 941.3028 713.862244 
L 942.4404 700.224321 
L 943.578 715.129809 
L 944.7156 699.127318 
L 945.8532 713.94451 
L 946.9908 719.569013 
L 948.1284 722.762218 
L 950.4036 691.721707 
L 951.5412 697.586458 
L 952.6788 712.655668 
L 953.8164 704.849972 
L 954.954 701.398894 
L 956.0916 725.789672 
L 957.2292 698.526407 
L 958.3668 724.226782 
L 959.5044 725.879823 
L 960.642 720.92957 
L 961.7796 710.103435 
L 962.9172 703.218961 
L 964.0548 725.783701 
L 965.1924 721.331337 
L 966.33 718.840383 
L 967.4676 721.115786 
L 968.6052 718.435602 
L 969.7428 702.803744 
L 970.8804 712.407709 
L 972.018 715.51656 
L 973.1556 709.26129 
L 974.2932 709.637837 
L 975.4308 718.021312 
L 976.5684 712.498846 
L 977.706 714.498403 
L 978.8436 732.092772 
L 979.9812 715.692978 
L 981.1188 719.099879 
L 982.2564 717.11238 
L 983.394 717.01162 
L 984.5316 699.886152 
L 985.6692 694.562366 
L 986.8068 730.788103 
L 987.9444 699.458123 
L 989.082 710.79067 
L 990.2196 725.565541 
L 992.4948 708.675047 
L 993.6324 723.988679 
L 994.77 717.277783 
L 995.9076 711.929531 
L 997.0452 717.624589 
L 998.1828 706.167628 
L 999.3204 716.572981 
L 1000.458 717.833821 
L 1001.5956 726.871196 
L 1003.8708 695.26769 
L 1005.0084 687.715577 
L 1006.146 655.519914 
L 1007.2836 694.287101 
L 1008.4212 693.902147 
L 1009.5588 714.412137 
L 1010.6964 685.266597 
L 1011.834 722.486605 
L 1012.9716 708.458568 
L 1014.1092 704.415044 
L 1015.2468 722.994118 
L 1016.3844 695.313258 
L 1017.522 712.960501 
L 1018.6596 724.718062 
L 1019.7972 687.93449 
L 1020.9348 701.409677 
L 1022.0724 701.144152 
L 1023.21 718.970827 
L 1024.3476 709.438055 
L 1025.4852 690.692535 
L 1026.6228 734.417976 
L 1028.898 693.014608 
L 1030.0356 686.932508 
L 1031.1732 708.361518 
L 1032.3108 703.227078 
L 1033.4484 714.873386 
L 1034.586 714.110551 
L 1035.7236 690.601746 
L 1036.8612 711.504806 
L 1037.9988 729.340583 
L 1039.1364 727.077993 
L 1040.274 699.659528 
L 1041.4116 698.851762 
L 1042.5492 730.722417 
L 1043.6868 728.874406 
L 1044.8244 728.498844 
L 1045.962 731.181521 
L 1047.0996 727.041874 
L 1048.2372 690.884548 
L 1049.3748 699.274574 
L 1050.5124 716.240146 
L 1051.65 707.424642 
L 1052.7876 723.504936 
L 1053.9252 686.311074 
L 1055.0628 708.703512 
L 1056.2004 714.600845 
L 1057.338 716.728934 
L 1058.4756 712.983922 
L 1059.6132 722.343348 
L 1060.7508 699.126448 
L 1061.8884 717.056434 
L 1063.026 685.908206 
L 1064.1636 706.733116 
L 1065.3012 692.148635 
L 1066.4388 723.188508 
L 1067.5764 670.278842 
L 1068.714 722.428978 
L 1069.8516 697.884276 
L 1070.9892 710.223095 
L 1072.1268 727.624929 
L 1073.2644 727.77491 
L 1074.402 729.800615 
L 1075.5396 727.74343 
L 1076.6772 722.026515 
L 1077.8148 703.255254 
L 1078.9524 723.86212 
L 1080.09 720.29799 
L 1081.2276 684.067616 
L 1082.3652 715.475282 
L 1083.5028 721.36531 
L 1085.778 704.937746 
L 1086.9156 719.386276 
L 1088.0532 730.957912 
L 1089.1908 715.923661 
L 1090.3284 703.369232 
L 1091.466 725.880635 
L 1092.6036 728.662913 
L 1093.7412 716.39894 
L 1094.8788 726.349131 
L 1096.0164 726.882559 
L 1097.154 717.988556 
L 1098.2916 724.995531 
L 1099.4292 645.618248 
L 1100.5668 711.827901 
L 1101.7044 713.35102 
L 1102.842 669.792663 
L 1103.9796 711.606668 
L 1105.1172 719.68734 
L 1106.2548 732.680697 
L 1107.3924 723.33704 
L 1108.53 724.702409 
L 1109.6676 720.810026 
L 1110.8052 717.903913 
L 1111.9428 733.671258 
L 1113.0804 728.254074 
L 1114.218 707.88247 
L 1115.3556 708.743225 
L 1116.4932 679.12861 
L 1117.6308 727.096951 
L 1118.7684 700.9395 
L 1119.906 715.305531 
L 1121.0436 668.092431 
L 1122.1812 722.794394 
L 1123.3188 735.823522 
L 1124.4564 703.834772 
L 1125.594 694.920304 
L 1126.7316 739.793302 
L 1127.8692 740.371486 
L 1129.0068 715.187204 
L 1130.1444 707.676833 
L 1131.282 724.803634 
L 1133.5572 693.65384 
L 1135.8324 733.095508 
L 1136.97 729.66849 
L 1138.1076 724.253393 
L 1139.2452 720.513194 
L 1140.3828 717.440403 
L 1141.5204 710.733797 
L 1142.658 688.579346 
L 1143.7956 729.698695 
L 1144.9332 719.025439 
L 1146.0708 729.896621 
L 1147.2084 730.014195 
L 1148.346 724.298671 
L 1149.4836 712.231813 
L 1150.6212 730.897966 
L 1152.8964 706.557857 
L 1154.034 719.612436 
L 1155.1716 702.481693 
L 1156.3092 719.525705 
L 1157.4468 722.395816 
L 1158.5844 715.474702 
L 1159.722 719.107358 
L 1160.8596 700.513732 
L 1161.9972 709.502292 
L 1163.1348 726.163089 
L 1164.2724 734.157146 
L 1165.41 715.355158 
L 1166.5476 717.50348 
L 1167.6852 718.255995 
L 1168.8228 725.386688 
L 1169.9604 700.530892 
L 1171.098 711.410655 
L 1172.2356 731.696919 
L 1173.3732 713.670984 
L 1174.5108 715.366695 
L 1175.6484 730.11368 
L 1176.786 717.097712 
L 1177.9236 727.477846 
L 1179.0612 731.400203 
L 1180.1988 721.291798 
L 1181.3364 731.93966 
L 1182.474 721.733336 
L 1183.6116 740.269798 
L 1184.7492 725.98586 
L 1185.8868 713.533583 
L 1187.0244 726.173699 
L 1188.162 729.06955 
L 1189.2996 736.021564 
L 1190.4372 688.274108 
L 1191.5748 709.389704 
L 1192.7124 733.271752 
L 1193.85 726.762783 
L 1194.9876 718.325855 
L 1196.1252 743.251858 
L 1197.2628 716.943441 
L 1198.4004 693.321063 
L 1199.538 729.429111 
L 1200.6756 741.206268 
L 1201.8132 736.85107 
L 1202.9508 728.150762 
L 1204.0884 735.282789 
L 1205.226 728.876841 
L 1206.3636 714.621774 
L 1207.5012 720.047017 
L 1208.6388 729.419023 
L 1209.7764 708.17565 
L 1210.914 733.409732 
L 1212.0516 731.122561 
L 1213.1892 735.692846 
L 1215.4644 723.076036 
L 1216.602 735.452076 
L 1217.7396 723.909485 
L 1218.8772 684.382014 
L 1220.0148 735.120053 
L 1221.1524 686.84027 
L 1222.29 736.793849 
L 1223.4276 737.046446 
L 1224.5652 729.373107 
L 1225.7028 694.592745 
L 1226.8404 724.362212 
L 1227.978 740.578051 
L 1229.1156 739.178709 
L 1230.2532 728.144733 
L 1231.3908 728.586038 
L 1232.5284 736.76376 
L 1233.666 730.148001 
L 1234.8036 725.451736 
L 1235.9412 724.433173 
L 1237.0788 727.211161 
L 1238.2164 717.044839 
L 1239.354 719.964866 
L 1240.4916 723.447598 
L 1241.6292 732.441202 
L 1242.7668 729.998773 
L 1243.9044 739.128734 
L 1245.042 725.700391 
L 1246.1796 694.372208 
L 1247.3172 736.807299 
L 1248.4548 741.99983 
L 1249.5924 734.720315 
L 1250.73 742.499111 
L 1251.8676 731.232945 
L 1253.0052 738.334361 
L 1254.1428 714.265054 
L 1255.2804 721.58318 
L 1256.418 732.003375 
L 1257.5556 717.488116 
L 1258.6932 725.880403 
L 1259.8308 723.366607 
L 1260.9684 715.706255 
L 1262.106 729.536423 
L 1263.2436 731.689208 
L 1264.3812 727.791317 
L 1265.5188 725.394805 
L 1266.6564 668.113707 
L 1267.794 709.543744 
L 1268.9316 702.572656 
L 1270.0692 732.430071 
L 1271.2068 734.33768 
L 1272.3444 718.854645 
L 1273.482 708.184288 
L 1274.6196 712.491541 
L 1275.7572 704.771532 
L 1276.8948 726.757217 
L 1278.0324 677.464553 
L 1279.17 712.703323 
L 1280.3076 723.165956 
L 1281.4452 708.023234 
L 1282.5828 725.185109 
L 1283.7204 735.858422 
L 1284.858 727.13162 
L 1285.9956 712.454669 
L 1287.1332 694.235851 
L 1288.2708 721.260607 
L 1289.4084 713.556831 
L 1290.546 711.906225 
L 1291.6836 722.59096 
L 1292.8212 736.783298 
L 1293.9588 736.014085 
L 1295.0964 716.916657 
L 1296.234 737.063143 
L 1297.3716 716.311919 
L 1298.5092 727.268441 
L 1299.6468 720.269061 
L 1300.7844 737.885866 
L 1301.922 723.940676 
L 1303.0596 718.493345 
L 1304.1972 685.889886 
L 1305.3348 702.601412 
L 1306.4724 708.600433 
L 1307.61 717.073363 
L 1308.7476 733.318944 
L 1309.8852 734.171176 
L 1311.0228 671.326682 
L 1312.1604 721.233243 
L 1313.298 739.008494 
L 1314.4356 732.388851 
L 1315.5732 726.815424 
L 1316.7108 722.338073 
L 1317.8484 700.477324 
L 1318.986 725.727175 
L 1320.1236 709.722887 
L 1321.2612 723.552011 
L 1322.3988 712.13511 
L 1323.5364 715.622307 
L 1324.674 723.049658 
L 1325.8116 705.097177 
L 1326.9492 726.093113 
L 1328.0868 737.405253 
L 1329.2244 725.956408 
L 1330.362 718.560132 
L 1331.4996 665.001551 
L 1332.6372 711.090169 
L 1333.7748 730.634527 
L 1334.9124 727.039671 
L 1336.05 701.09238 
L 1336.05 701.09238 
" style="fill:none;stroke:#008000;stroke-dasharray:6.000000,6.000000;stroke-dashoffset:0.0;stroke-width:2.0;"/>
   </g>
   <g id="patch_3">
    <path d="M 198.45 51.3 
L 1336.05 51.3 
" style="fill:none;stroke:#000000;stroke-linecap:square;stroke-linejoin:miter;"/>
   </g>
   <g id="patch_4">
    <path d="M 1336.05 747 
L 1336.05 51.3 
" style="fill:none;stroke:#000000;stroke-linecap:square;stroke-linejoin:miter;"/>
   </g>
   <g id="patch_5">
    <path d="M 198.45 747 
L 1336.05 747 
" style="fill:none;stroke:#000000;stroke-linecap:square;stroke-linejoin:miter;"/>
   </g>
   <g id="patch_6">
    <path d="M 198.45 747 
L 198.45 51.3 
" style="fill:none;stroke:#000000;stroke-linecap:square;stroke-linejoin:miter;"/>
   </g>
   <g id="matplotlib.axis_1">
    <g id="xtick_1">
     <g id="line2d_3">
      <defs>
       <path d="M 0 0 
L 0 -4 
" id="mf3df778995" style="stroke:#000000;stroke-width:0.5;"/>
      </defs>
      <g>
       <use style="stroke:#000000;stroke-width:0.5;" x="198.45" xlink:href="#mf3df778995" y="747.0"/>
      </g>
     </g>
     <g id="line2d_4">
      <defs>
       <path d="M 0 0 
L 0 4 
" id="m715bfa804e" style="stroke:#000000;stroke-width:0.5;"/>
      </defs>
      <g>
       <use style="stroke:#000000;stroke-width:0.5;" x="198.45" xlink:href="#m715bfa804e" y="51.3"/>
      </g>
     </g>
     <g id="text_1">
      <!-- 0 -->
      <defs>
       <path d="M 31.78125 66.40625 
Q 24.171875 66.40625 20.328125 58.90625 
Q 16.5 51.421875 16.5 36.375 
Q 16.5 21.390625 20.328125 13.890625 
Q 24.171875 6.390625 31.78125 6.390625 
Q 39.453125 6.390625 43.28125 13.890625 
Q 47.125 21.390625 47.125 36.375 
Q 47.125 51.421875 43.28125 58.90625 
Q 39.453125 66.40625 31.78125 66.40625 
M 31.78125 74.21875 
Q 44.046875 74.21875 50.515625 64.515625 
Q 56.984375 54.828125 56.984375 36.375 
Q 56.984375 17.96875 50.515625 8.265625 
Q 44.046875 -1.421875 31.78125 -1.421875 
Q 19.53125 -1.421875 13.0625 8.265625 
Q 6.59375 17.96875 6.59375 36.375 
Q 6.59375 54.828125 13.0625 64.515625 
Q 19.53125 74.21875 31.78125 74.21875 
" id="BitstreamVeraSans-Roman-30"/>
      </defs>
      <g transform="translate(188.90625 773.7953125)scale(0.3 -0.3)">
       <use xlink:href="#BitstreamVeraSans-Roman-30"/>
      </g>
     </g>
    </g>
    <g id="xtick_2">
     <g id="line2d_5">
      <g>
       <use style="stroke:#000000;stroke-width:0.5;" x="425.97" xlink:href="#mf3df778995" y="747.0"/>
      </g>
     </g>
     <g id="line2d_6">
      <g>
       <use style="stroke:#000000;stroke-width:0.5;" x="425.97" xlink:href="#m715bfa804e" y="51.3"/>
      </g>
     </g>
     <g id="text_2">
      <!-- 20000 -->
      <defs>
       <path d="M 19.1875 8.296875 
L 53.609375 8.296875 
L 53.609375 0 
L 7.328125 0 
L 7.328125 8.296875 
Q 12.9375 14.109375 22.625 23.890625 
Q 32.328125 33.6875 34.8125 36.53125 
Q 39.546875 41.84375 41.421875 45.53125 
Q 43.3125 49.21875 43.3125 52.78125 
Q 43.3125 58.59375 39.234375 62.25 
Q 35.15625 65.921875 28.609375 65.921875 
Q 23.96875 65.921875 18.8125 64.3125 
Q 13.671875 62.703125 7.8125 59.421875 
L 7.8125 69.390625 
Q 13.765625 71.78125 18.9375 73 
Q 24.125 74.21875 28.421875 74.21875 
Q 39.75 74.21875 46.484375 68.546875 
Q 53.21875 62.890625 53.21875 53.421875 
Q 53.21875 48.921875 51.53125 44.890625 
Q 49.859375 40.875 45.40625 35.40625 
Q 44.1875 33.984375 37.640625 27.21875 
Q 31.109375 20.453125 19.1875 8.296875 
" id="BitstreamVeraSans-Roman-32"/>
      </defs>
      <g transform="translate(378.25125 773.7953125)scale(0.3 -0.3)">
       <use xlink:href="#BitstreamVeraSans-Roman-32"/>
       <use x="63.623046875" xlink:href="#BitstreamVeraSans-Roman-30"/>
       <use x="127.24609375" xlink:href="#BitstreamVeraSans-Roman-30"/>
       <use x="190.869140625" xlink:href="#BitstreamVeraSans-Roman-30"/>
       <use x="254.4921875" xlink:href="#BitstreamVeraSans-Roman-30"/>
      </g>
     </g>
    </g>
    <g id="xtick_3">
     <g id="line2d_7">
      <g>
       <use style="stroke:#000000;stroke-width:0.5;" x="653.49" xlink:href="#mf3df778995" y="747.0"/>
      </g>
     </g>
     <g id="line2d_8">
      <g>
       <use style="stroke:#000000;stroke-width:0.5;" x="653.49" xlink:href="#m715bfa804e" y="51.3"/>
      </g>
     </g>
     <g id="text_3">
      <!-- 40000 -->
      <defs>
       <path d="M 37.796875 64.3125 
L 12.890625 25.390625 
L 37.796875 25.390625 
z
M 35.203125 72.90625 
L 47.609375 72.90625 
L 47.609375 25.390625 
L 58.015625 25.390625 
L 58.015625 17.1875 
L 47.609375 17.1875 
L 47.609375 0 
L 37.796875 0 
L 37.796875 17.1875 
L 4.890625 17.1875 
L 4.890625 26.703125 
z
" id="BitstreamVeraSans-Roman-34"/>
      </defs>
      <g transform="translate(605.77125 773.7953125)scale(0.3 -0.3)">
       <use xlink:href="#BitstreamVeraSans-Roman-34"/>
       <use x="63.623046875" xlink:href="#BitstreamVeraSans-Roman-30"/>
       <use x="127.24609375" xlink:href="#BitstreamVeraSans-Roman-30"/>
       <use x="190.869140625" xlink:href="#BitstreamVeraSans-Roman-30"/>
       <use x="254.4921875" xlink:href="#BitstreamVeraSans-Roman-30"/>
      </g>
     </g>
    </g>
    <g id="xtick_4">
     <g id="line2d_9">
      <g>
       <use style="stroke:#000000;stroke-width:0.5;" x="881.01" xlink:href="#mf3df778995" y="747.0"/>
      </g>
     </g>
     <g id="line2d_10">
      <g>
       <use style="stroke:#000000;stroke-width:0.5;" x="881.01" xlink:href="#m715bfa804e" y="51.3"/>
      </g>
     </g>
     <g id="text_4">
      <!-- 60000 -->
      <defs>
       <path d="M 33.015625 40.375 
Q 26.375 40.375 22.484375 35.828125 
Q 18.609375 31.296875 18.609375 23.390625 
Q 18.609375 15.53125 22.484375 10.953125 
Q 26.375 6.390625 33.015625 6.390625 
Q 39.65625 6.390625 43.53125 10.953125 
Q 47.40625 15.53125 47.40625 23.390625 
Q 47.40625 31.296875 43.53125 35.828125 
Q 39.65625 40.375 33.015625 40.375 
M 52.59375 71.296875 
L 52.59375 62.3125 
Q 48.875 64.0625 45.09375 64.984375 
Q 41.3125 65.921875 37.59375 65.921875 
Q 27.828125 65.921875 22.671875 59.328125 
Q 17.53125 52.734375 16.796875 39.40625 
Q 19.671875 43.65625 24.015625 45.921875 
Q 28.375 48.1875 33.59375 48.1875 
Q 44.578125 48.1875 50.953125 41.515625 
Q 57.328125 34.859375 57.328125 23.390625 
Q 57.328125 12.15625 50.6875 5.359375 
Q 44.046875 -1.421875 33.015625 -1.421875 
Q 20.359375 -1.421875 13.671875 8.265625 
Q 6.984375 17.96875 6.984375 36.375 
Q 6.984375 53.65625 15.1875 63.9375 
Q 23.390625 74.21875 37.203125 74.21875 
Q 40.921875 74.21875 44.703125 73.484375 
Q 48.484375 72.75 52.59375 71.296875 
" id="BitstreamVeraSans-Roman-36"/>
      </defs>
      <g transform="translate(833.29125 773.7953125)scale(0.3 -0.3)">
       <use xlink:href="#BitstreamVeraSans-Roman-36"/>
       <use x="63.623046875" xlink:href="#BitstreamVeraSans-Roman-30"/>
       <use x="127.24609375" xlink:href="#BitstreamVeraSans-Roman-30"/>
       <use x="190.869140625" xlink:href="#BitstreamVeraSans-Roman-30"/>
       <use x="254.4921875" xlink:href="#BitstreamVeraSans-Roman-30"/>
      </g>
     </g>
    </g>
    <g id="xtick_5">
     <g id="line2d_11">
      <g>
       <use style="stroke:#000000;stroke-width:0.5;" x="1108.53" xlink:href="#mf3df778995" y="747.0"/>
      </g>
     </g>
     <g id="line2d_12">
      <g>
       <use style="stroke:#000000;stroke-width:0.5;" x="1108.53" xlink:href="#m715bfa804e" y="51.3"/>
      </g>
     </g>
     <g id="text_5">
      <!-- 80000 -->
      <defs>
       <path d="M 31.78125 34.625 
Q 24.75 34.625 20.71875 30.859375 
Q 16.703125 27.09375 16.703125 20.515625 
Q 16.703125 13.921875 20.71875 10.15625 
Q 24.75 6.390625 31.78125 6.390625 
Q 38.8125 6.390625 42.859375 10.171875 
Q 46.921875 13.96875 46.921875 20.515625 
Q 46.921875 27.09375 42.890625 30.859375 
Q 38.875 34.625 31.78125 34.625 
M 21.921875 38.8125 
Q 15.578125 40.375 12.03125 44.71875 
Q 8.5 49.078125 8.5 55.328125 
Q 8.5 64.0625 14.71875 69.140625 
Q 20.953125 74.21875 31.78125 74.21875 
Q 42.671875 74.21875 48.875 69.140625 
Q 55.078125 64.0625 55.078125 55.328125 
Q 55.078125 49.078125 51.53125 44.71875 
Q 48 40.375 41.703125 38.8125 
Q 48.828125 37.15625 52.796875 32.3125 
Q 56.78125 27.484375 56.78125 20.515625 
Q 56.78125 9.90625 50.3125 4.234375 
Q 43.84375 -1.421875 31.78125 -1.421875 
Q 19.734375 -1.421875 13.25 4.234375 
Q 6.78125 9.90625 6.78125 20.515625 
Q 6.78125 27.484375 10.78125 32.3125 
Q 14.796875 37.15625 21.921875 38.8125 
M 18.3125 54.390625 
Q 18.3125 48.734375 21.84375 45.5625 
Q 25.390625 42.390625 31.78125 42.390625 
Q 38.140625 42.390625 41.71875 45.5625 
Q 45.3125 48.734375 45.3125 54.390625 
Q 45.3125 60.0625 41.71875 63.234375 
Q 38.140625 66.40625 31.78125 66.40625 
Q 25.390625 66.40625 21.84375 63.234375 
Q 18.3125 60.0625 18.3125 54.390625 
" id="BitstreamVeraSans-Roman-38"/>
      </defs>
      <g transform="translate(1060.81125 773.7953125)scale(0.3 -0.3)">
       <use xlink:href="#BitstreamVeraSans-Roman-38"/>
       <use x="63.623046875" xlink:href="#BitstreamVeraSans-Roman-30"/>
       <use x="127.24609375" xlink:href="#BitstreamVeraSans-Roman-30"/>
       <use x="190.869140625" xlink:href="#BitstreamVeraSans-Roman-30"/>
       <use x="254.4921875" xlink:href="#BitstreamVeraSans-Roman-30"/>
      </g>
     </g>
    </g>
    <g id="xtick_6">
     <g id="line2d_13">
      <g>
       <use style="stroke:#000000;stroke-width:0.5;" x="1336.05" xlink:href="#mf3df778995" y="747.0"/>
      </g>
     </g>
     <g id="line2d_14">
      <g>
       <use style="stroke:#000000;stroke-width:0.5;" x="1336.05" xlink:href="#m715bfa804e" y="51.3"/>
      </g>
     </g>
     <g id="text_6">
      <!-- 100000 -->
      <defs>
       <path d="M 12.40625 8.296875 
L 28.515625 8.296875 
L 28.515625 63.921875 
L 10.984375 60.40625 
L 10.984375 69.390625 
L 28.421875 72.90625 
L 38.28125 72.90625 
L 38.28125 8.296875 
L 54.390625 8.296875 
L 54.390625 0 
L 12.40625 0 
z
" id="BitstreamVeraSans-Roman-31"/>
      </defs>
      <g transform="translate(1278.7875 773.7953125)scale(0.3 -0.3)">
       <use xlink:href="#BitstreamVeraSans-Roman-31"/>
       <use x="63.623046875" xlink:href="#BitstreamVeraSans-Roman-30"/>
       <use x="127.24609375" xlink:href="#BitstreamVeraSans-Roman-30"/>
       <use x="190.869140625" xlink:href="#BitstreamVeraSans-Roman-30"/>
       <use x="254.4921875" xlink:href="#BitstreamVeraSans-Roman-30"/>
       <use x="318.115234375" xlink:href="#BitstreamVeraSans-Roman-30"/>
      </g>
     </g>
    </g>
    <g id="text_7">
     <!-- iterations -->
     <defs>
      <path d="M 54.890625 33.015625 
L 54.890625 0 
L 45.90625 0 
L 45.90625 32.71875 
Q 45.90625 40.484375 42.875 44.328125 
Q 39.84375 48.1875 33.796875 48.1875 
Q 26.515625 48.1875 22.3125 43.546875 
Q 18.109375 38.921875 18.109375 30.90625 
L 18.109375 0 
L 9.078125 0 
L 9.078125 54.6875 
L 18.109375 54.6875 
L 18.109375 46.1875 
Q 21.34375 51.125 25.703125 53.5625 
Q 30.078125 56 35.796875 56 
Q 45.21875 56 50.046875 50.171875 
Q 54.890625 44.34375 54.890625 33.015625 
" id="BitstreamVeraSans-Roman-6e"/>
      <path d="M 34.28125 27.484375 
Q 23.390625 27.484375 19.1875 25 
Q 14.984375 22.515625 14.984375 16.5 
Q 14.984375 11.71875 18.140625 8.90625 
Q 21.296875 6.109375 26.703125 6.109375 
Q 34.1875 6.109375 38.703125 11.40625 
Q 43.21875 16.703125 43.21875 25.484375 
L 43.21875 27.484375 
z
M 52.203125 31.203125 
L 52.203125 0 
L 43.21875 0 
L 43.21875 8.296875 
Q 40.140625 3.328125 35.546875 0.953125 
Q 30.953125 -1.421875 24.3125 -1.421875 
Q 15.921875 -1.421875 10.953125 3.296875 
Q 6 8.015625 6 15.921875 
Q 6 25.140625 12.171875 29.828125 
Q 18.359375 34.515625 30.609375 34.515625 
L 43.21875 34.515625 
L 43.21875 35.40625 
Q 43.21875 41.609375 39.140625 45 
Q 35.0625 48.390625 27.6875 48.390625 
Q 23 48.390625 18.546875 47.265625 
Q 14.109375 46.140625 10.015625 43.890625 
L 10.015625 52.203125 
Q 14.9375 54.109375 19.578125 55.046875 
Q 24.21875 56 28.609375 56 
Q 40.484375 56 46.34375 49.84375 
Q 52.203125 43.703125 52.203125 31.203125 
" id="BitstreamVeraSans-Roman-61"/>
      <path d="M 30.609375 48.390625 
Q 23.390625 48.390625 19.1875 42.75 
Q 14.984375 37.109375 14.984375 27.296875 
Q 14.984375 17.484375 19.15625 11.84375 
Q 23.34375 6.203125 30.609375 6.203125 
Q 37.796875 6.203125 41.984375 11.859375 
Q 46.1875 17.53125 46.1875 27.296875 
Q 46.1875 37.015625 41.984375 42.703125 
Q 37.796875 48.390625 30.609375 48.390625 
M 30.609375 56 
Q 42.328125 56 49.015625 48.375 
Q 55.71875 40.765625 55.71875 27.296875 
Q 55.71875 13.875 49.015625 6.21875 
Q 42.328125 -1.421875 30.609375 -1.421875 
Q 18.84375 -1.421875 12.171875 6.21875 
Q 5.515625 13.875 5.515625 27.296875 
Q 5.515625 40.765625 12.171875 48.375 
Q 18.84375 56 30.609375 56 
" id="BitstreamVeraSans-Roman-6f"/>
      <path d="M 9.421875 54.6875 
L 18.40625 54.6875 
L 18.40625 0 
L 9.421875 0 
z
M 9.421875 75.984375 
L 18.40625 75.984375 
L 18.40625 64.59375 
L 9.421875 64.59375 
z
" id="BitstreamVeraSans-Roman-69"/>
      <path d="M 56.203125 29.59375 
L 56.203125 25.203125 
L 14.890625 25.203125 
Q 15.484375 15.921875 20.484375 11.0625 
Q 25.484375 6.203125 34.421875 6.203125 
Q 39.59375 6.203125 44.453125 7.46875 
Q 49.3125 8.734375 54.109375 11.28125 
L 54.109375 2.78125 
Q 49.265625 0.734375 44.1875 -0.34375 
Q 39.109375 -1.421875 33.890625 -1.421875 
Q 20.796875 -1.421875 13.15625 6.1875 
Q 5.515625 13.8125 5.515625 26.8125 
Q 5.515625 40.234375 12.765625 48.109375 
Q 20.015625 56 32.328125 56 
Q 43.359375 56 49.78125 48.890625 
Q 56.203125 41.796875 56.203125 29.59375 
M 47.21875 32.234375 
Q 47.125 39.59375 43.09375 43.984375 
Q 39.0625 48.390625 32.421875 48.390625 
Q 24.90625 48.390625 20.390625 44.140625 
Q 15.875 39.890625 15.1875 32.171875 
z
" id="BitstreamVeraSans-Roman-65"/>
      <path d="M 18.3125 70.21875 
L 18.3125 54.6875 
L 36.8125 54.6875 
L 36.8125 47.703125 
L 18.3125 47.703125 
L 18.3125 18.015625 
Q 18.3125 11.328125 20.140625 9.421875 
Q 21.96875 7.515625 27.59375 7.515625 
L 36.8125 7.515625 
L 36.8125 0 
L 27.59375 0 
Q 17.1875 0 13.234375 3.875 
Q 9.28125 7.765625 9.28125 18.015625 
L 9.28125 47.703125 
L 2.6875 47.703125 
L 2.6875 54.6875 
L 9.28125 54.6875 
L 9.28125 70.21875 
z
" id="BitstreamVeraSans-Roman-74"/>
      <path d="M 41.109375 46.296875 
Q 39.59375 47.171875 37.8125 47.578125 
Q 36.03125 48 33.890625 48 
Q 26.265625 48 22.1875 43.046875 
Q 18.109375 38.09375 18.109375 28.8125 
L 18.109375 0 
L 9.078125 0 
L 9.078125 54.6875 
L 18.109375 54.6875 
L 18.109375 46.1875 
Q 20.953125 51.171875 25.484375 53.578125 
Q 30.03125 56 36.53125 56 
Q 37.453125 56 38.578125 55.875 
Q 39.703125 55.765625 41.0625 55.515625 
z
" id="BitstreamVeraSans-Roman-72"/>
      <path d="M 44.28125 53.078125 
L 44.28125 44.578125 
Q 40.484375 46.53125 36.375 47.5 
Q 32.28125 48.484375 27.875 48.484375 
Q 21.1875 48.484375 17.84375 46.4375 
Q 14.5 44.390625 14.5 40.28125 
Q 14.5 37.15625 16.890625 35.375 
Q 19.28125 33.59375 26.515625 31.984375 
L 29.59375 31.296875 
Q 39.15625 29.25 43.1875 25.515625 
Q 47.21875 21.78125 47.21875 15.09375 
Q 47.21875 7.46875 41.1875 3.015625 
Q 35.15625 -1.421875 24.609375 -1.421875 
Q 20.21875 -1.421875 15.453125 -0.5625 
Q 10.6875 0.296875 5.421875 2 
L 5.421875 11.28125 
Q 10.40625 8.6875 15.234375 7.390625 
Q 20.0625 6.109375 24.8125 6.109375 
Q 31.15625 6.109375 34.5625 8.28125 
Q 37.984375 10.453125 37.984375 14.40625 
Q 37.984375 18.0625 35.515625 20.015625 
Q 33.0625 21.96875 24.703125 23.78125 
L 21.578125 24.515625 
Q 13.234375 26.265625 9.515625 29.90625 
Q 5.8125 33.546875 5.8125 39.890625 
Q 5.8125 47.609375 11.28125 51.796875 
Q 16.75 56 26.8125 56 
Q 31.78125 56 36.171875 55.265625 
Q 40.578125 54.546875 44.28125 53.078125 
" id="BitstreamVeraSans-Roman-73"/>
     </defs>
     <g transform="translate(696.06796875 807.8296875)scale(0.3 -0.3)">
      <use xlink:href="#BitstreamVeraSans-Roman-69"/>
      <use x="27.783203125" xlink:href="#BitstreamVeraSans-Roman-74"/>
      <use x="66.9921875" xlink:href="#BitstreamVeraSans-Roman-65"/>
      <use x="128.515625" xlink:href="#BitstreamVeraSans-Roman-72"/>
      <use x="169.62890625" xlink:href="#BitstreamVeraSans-Roman-61"/>
      <use x="230.908203125" xlink:href="#BitstreamVeraSans-Roman-74"/>
      <use x="270.1171875" xlink:href="#BitstreamVeraSans-Roman-69"/>
      <use x="297.900390625" xlink:href="#BitstreamVeraSans-Roman-6f"/>
      <use x="359.08203125" xlink:href="#BitstreamVeraSans-Roman-6e"/>
      <use x="422.4609375" xlink:href="#BitstreamVeraSans-Roman-73"/>
     </g>
    </g>
   </g>
   <g id="matplotlib.axis_2">
    <g id="ytick_1">
     <g id="line2d_15">
      <defs>
       <path d="M 0 0 
L 4 0 
" id="m0bbc99c90b" style="stroke:#000000;stroke-width:0.5;"/>
      </defs>
      <g>
       <use style="stroke:#000000;stroke-width:0.5;" x="198.45" xlink:href="#m0bbc99c90b" y="747.0"/>
      </g>
     </g>
     <g id="line2d_16">
      <defs>
       <path d="M 0 0 
L -4 0 
" id="m9427b644e9" style="stroke:#000000;stroke-width:0.5;"/>
      </defs>
      <g>
       <use style="stroke:#000000;stroke-width:0.5;" x="1336.05" xlink:href="#m9427b644e9" y="747.0"/>
      </g>
     </g>
     <g id="text_8">
      <!-- 2000 -->
      <g transform="translate(118.1 755.278125)scale(0.3 -0.3)">
       <use xlink:href="#BitstreamVeraSans-Roman-32"/>
       <use x="63.623046875" xlink:href="#BitstreamVeraSans-Roman-30"/>
       <use x="127.24609375" xlink:href="#BitstreamVeraSans-Roman-30"/>
       <use x="190.869140625" xlink:href="#BitstreamVeraSans-Roman-30"/>
      </g>
     </g>
    </g>
    <g id="ytick_2">
     <g id="line2d_17">
      <g>
       <use style="stroke:#000000;stroke-width:0.5;" x="198.45" xlink:href="#m0bbc99c90b" y="631.05"/>
      </g>
     </g>
     <g id="line2d_18">
      <g>
       <use style="stroke:#000000;stroke-width:0.5;" x="1336.05" xlink:href="#m9427b644e9" y="631.05"/>
      </g>
     </g>
     <g id="text_9">
      <!-- 4000 -->
      <g transform="translate(118.1 639.328125)scale(0.3 -0.3)">
       <use xlink:href="#BitstreamVeraSans-Roman-34"/>
       <use x="63.623046875" xlink:href="#BitstreamVeraSans-Roman-30"/>
       <use x="127.24609375" xlink:href="#BitstreamVeraSans-Roman-30"/>
       <use x="190.869140625" xlink:href="#BitstreamVeraSans-Roman-30"/>
      </g>
     </g>
    </g>
    <g id="ytick_3">
     <g id="line2d_19">
      <g>
       <use style="stroke:#000000;stroke-width:0.5;" x="198.45" xlink:href="#m0bbc99c90b" y="515.1"/>
      </g>
     </g>
     <g id="line2d_20">
      <g>
       <use style="stroke:#000000;stroke-width:0.5;" x="1336.05" xlink:href="#m9427b644e9" y="515.1"/>
      </g>
     </g>
     <g id="text_10">
      <!-- 6000 -->
      <g transform="translate(118.1 523.378125)scale(0.3 -0.3)">
       <use xlink:href="#BitstreamVeraSans-Roman-36"/>
       <use x="63.623046875" xlink:href="#BitstreamVeraSans-Roman-30"/>
       <use x="127.24609375" xlink:href="#BitstreamVeraSans-Roman-30"/>
       <use x="190.869140625" xlink:href="#BitstreamVeraSans-Roman-30"/>
      </g>
     </g>
    </g>
    <g id="ytick_4">
     <g id="line2d_21">
      <g>
       <use style="stroke:#000000;stroke-width:0.5;" x="198.45" xlink:href="#m0bbc99c90b" y="399.15"/>
      </g>
     </g>
     <g id="line2d_22">
      <g>
       <use style="stroke:#000000;stroke-width:0.5;" x="1336.05" xlink:href="#m9427b644e9" y="399.15"/>
      </g>
     </g>
     <g id="text_11">
      <!-- 8000 -->
      <g transform="translate(118.1 407.428125)scale(0.3 -0.3)">
       <use xlink:href="#BitstreamVeraSans-Roman-38"/>
       <use x="63.623046875" xlink:href="#BitstreamVeraSans-Roman-30"/>
       <use x="127.24609375" xlink:href="#BitstreamVeraSans-Roman-30"/>
       <use x="190.869140625" xlink:href="#BitstreamVeraSans-Roman-30"/>
      </g>
     </g>
    </g>
    <g id="ytick_5">
     <g id="line2d_23">
      <g>
       <use style="stroke:#000000;stroke-width:0.5;" x="198.45" xlink:href="#m0bbc99c90b" y="283.2"/>
      </g>
     </g>
     <g id="line2d_24">
      <g>
       <use style="stroke:#000000;stroke-width:0.5;" x="1336.05" xlink:href="#m9427b644e9" y="283.2"/>
      </g>
     </g>
     <g id="text_12">
      <!-- 10000 -->
      <g transform="translate(99.0125 291.478125)scale(0.3 -0.3)">
       <use xlink:href="#BitstreamVeraSans-Roman-31"/>
       <use x="63.623046875" xlink:href="#BitstreamVeraSans-Roman-30"/>
       <use x="127.24609375" xlink:href="#BitstreamVeraSans-Roman-30"/>
       <use x="190.869140625" xlink:href="#BitstreamVeraSans-Roman-30"/>
       <use x="254.4921875" xlink:href="#BitstreamVeraSans-Roman-30"/>
      </g>
     </g>
    </g>
    <g id="ytick_6">
     <g id="line2d_25">
      <g>
       <use style="stroke:#000000;stroke-width:0.5;" x="198.45" xlink:href="#m0bbc99c90b" y="167.25"/>
      </g>
     </g>
     <g id="line2d_26">
      <g>
       <use style="stroke:#000000;stroke-width:0.5;" x="1336.05" xlink:href="#m9427b644e9" y="167.25"/>
      </g>
     </g>
     <g id="text_13">
      <!-- 12000 -->
      <g transform="translate(99.0125 175.528125)scale(0.3 -0.3)">
       <use xlink:href="#BitstreamVeraSans-Roman-31"/>
       <use x="63.623046875" xlink:href="#BitstreamVeraSans-Roman-32"/>
       <use x="127.24609375" xlink:href="#BitstreamVeraSans-Roman-30"/>
       <use x="190.869140625" xlink:href="#BitstreamVeraSans-Roman-30"/>
       <use x="254.4921875" xlink:href="#BitstreamVeraSans-Roman-30"/>
      </g>
     </g>
    </g>
    <g id="ytick_7">
     <g id="line2d_27">
      <g>
       <use style="stroke:#000000;stroke-width:0.5;" x="198.45" xlink:href="#m0bbc99c90b" y="51.3"/>
      </g>
     </g>
     <g id="line2d_28">
      <g>
       <use style="stroke:#000000;stroke-width:0.5;" x="1336.05" xlink:href="#m9427b644e9" y="51.3"/>
      </g>
     </g>
     <g id="text_14">
      <!-- 14000 -->
      <g transform="translate(99.0125 59.578125)scale(0.3 -0.3)">
       <use xlink:href="#BitstreamVeraSans-Roman-31"/>
       <use x="63.623046875" xlink:href="#BitstreamVeraSans-Roman-34"/>
       <use x="127.24609375" xlink:href="#BitstreamVeraSans-Roman-30"/>
       <use x="190.869140625" xlink:href="#BitstreamVeraSans-Roman-30"/>
       <use x="254.4921875" xlink:href="#BitstreamVeraSans-Roman-30"/>
      </g>
     </g>
    </g>
    <g id="text_15">
     <!-- log(loss) -->
     <defs>
      <path d="M 8.015625 75.875 
L 15.828125 75.875 
Q 23.140625 64.359375 26.78125 53.3125 
Q 30.421875 42.28125 30.421875 31.390625 
Q 30.421875 20.453125 26.78125 9.375 
Q 23.140625 -1.703125 15.828125 -13.1875 
L 8.015625 -13.1875 
Q 14.5 -2 17.703125 9.0625 
Q 20.90625 20.125 20.90625 31.390625 
Q 20.90625 42.671875 17.703125 53.65625 
Q 14.5 64.65625 8.015625 75.875 
" id="BitstreamVeraSans-Roman-29"/>
      <path d="M 31 75.875 
Q 24.46875 64.65625 21.28125 53.65625 
Q 18.109375 42.671875 18.109375 31.390625 
Q 18.109375 20.125 21.3125 9.0625 
Q 24.515625 -2 31 -13.1875 
L 23.1875 -13.1875 
Q 15.875 -1.703125 12.234375 9.375 
Q 8.59375 20.453125 8.59375 31.390625 
Q 8.59375 42.28125 12.203125 53.3125 
Q 15.828125 64.359375 23.1875 75.875 
z
" id="BitstreamVeraSans-Roman-28"/>
      <path d="M 45.40625 27.984375 
Q 45.40625 37.75 41.375 43.109375 
Q 37.359375 48.484375 30.078125 48.484375 
Q 22.859375 48.484375 18.828125 43.109375 
Q 14.796875 37.75 14.796875 27.984375 
Q 14.796875 18.265625 18.828125 12.890625 
Q 22.859375 7.515625 30.078125 7.515625 
Q 37.359375 7.515625 41.375 12.890625 
Q 45.40625 18.265625 45.40625 27.984375 
M 54.390625 6.78125 
Q 54.390625 -7.171875 48.1875 -13.984375 
Q 42 -20.796875 29.203125 -20.796875 
Q 24.46875 -20.796875 20.265625 -20.09375 
Q 16.0625 -19.390625 12.109375 -17.921875 
L 12.109375 -9.1875 
Q 16.0625 -11.328125 19.921875 -12.34375 
Q 23.78125 -13.375 27.78125 -13.375 
Q 36.625 -13.375 41.015625 -8.765625 
Q 45.40625 -4.15625 45.40625 5.171875 
L 45.40625 9.625 
Q 42.625 4.78125 38.28125 2.390625 
Q 33.9375 0 27.875 0 
Q 17.828125 0 11.671875 7.65625 
Q 5.515625 15.328125 5.515625 27.984375 
Q 5.515625 40.671875 11.671875 48.328125 
Q 17.828125 56 27.875 56 
Q 33.9375 56 38.28125 53.609375 
Q 42.625 51.21875 45.40625 46.390625 
L 45.40625 54.6875 
L 54.390625 54.6875 
z
" id="BitstreamVeraSans-Roman-67"/>
      <path d="M 9.421875 75.984375 
L 18.40625 75.984375 
L 18.40625 0 
L 9.421875 0 
z
" id="BitstreamVeraSans-Roman-6c"/>
     </defs>
     <g transform="translate(87.7734375 462.69609375)rotate(-90.0)scale(0.3 -0.3)">
      <use xlink:href="#BitstreamVeraSans-Roman-6c"/>
      <use x="27.783203125" xlink:href="#BitstreamVeraSans-Roman-6f"/>
      <use x="88.96484375" xlink:href="#BitstreamVeraSans-Roman-67"/>
      <use x="152.44140625" xlink:href="#BitstreamVeraSans-Roman-28"/>
      <use x="191.455078125" xlink:href="#BitstreamVeraSans-Roman-6c"/>
      <use x="219.23828125" xlink:href="#BitstreamVeraSans-Roman-6f"/>
      <use x="280.419921875" xlink:href="#BitstreamVeraSans-Roman-73"/>
      <use x="332.51953125" xlink:href="#BitstreamVeraSans-Roman-73"/>
      <use x="384.619140625" xlink:href="#BitstreamVeraSans-Roman-29"/>
     </g>
    </g>
   </g>
   <g id="legend_1">
    <g id="patch_7">
     <path d="M 843.876562 163.36875 
L 1321.05 163.36875 
L 1321.05 66.3 
L 843.876562 66.3 
z
" style="fill:#ffffff;stroke:#000000;stroke-linejoin:miter;"/>
    </g>
    <g id="line2d_29">
     <path d="M 864.876562 90.595312 
L 906.876562 90.595312 
" style="fill:none;stroke:#0000ff;stroke-linecap:square;stroke-width:2.0;"/>
    </g>
    <g id="line2d_30"/>
    <g id="text_16">
     <!-- random: step=0.040625 -->
     <defs>
      <path id="BitstreamVeraSans-Roman-20"/>
      <path d="M 10.796875 72.90625 
L 49.515625 72.90625 
L 49.515625 64.59375 
L 19.828125 64.59375 
L 19.828125 46.734375 
Q 21.96875 47.46875 24.109375 47.828125 
Q 26.265625 48.1875 28.421875 48.1875 
Q 40.625 48.1875 47.75 41.5 
Q 54.890625 34.8125 54.890625 23.390625 
Q 54.890625 11.625 47.5625 5.09375 
Q 40.234375 -1.421875 26.90625 -1.421875 
Q 22.3125 -1.421875 17.546875 -0.640625 
Q 12.796875 0.140625 7.71875 1.703125 
L 7.71875 11.625 
Q 12.109375 9.234375 16.796875 8.0625 
Q 21.484375 6.890625 26.703125 6.890625 
Q 35.15625 6.890625 40.078125 11.328125 
Q 45.015625 15.765625 45.015625 23.390625 
Q 45.015625 31 40.078125 35.4375 
Q 35.15625 39.890625 26.703125 39.890625 
Q 22.75 39.890625 18.8125 39.015625 
Q 14.890625 38.140625 10.796875 36.28125 
z
" id="BitstreamVeraSans-Roman-35"/>
      <path d="M 52 44.1875 
Q 55.375 50.25 60.0625 53.125 
Q 64.75 56 71.09375 56 
Q 79.640625 56 84.28125 50.015625 
Q 88.921875 44.046875 88.921875 33.015625 
L 88.921875 0 
L 79.890625 0 
L 79.890625 32.71875 
Q 79.890625 40.578125 77.09375 44.375 
Q 74.3125 48.1875 68.609375 48.1875 
Q 61.625 48.1875 57.5625 43.546875 
Q 53.515625 38.921875 53.515625 30.90625 
L 53.515625 0 
L 44.484375 0 
L 44.484375 32.71875 
Q 44.484375 40.625 41.703125 44.40625 
Q 38.921875 48.1875 33.109375 48.1875 
Q 26.21875 48.1875 22.15625 43.53125 
Q 18.109375 38.875 18.109375 30.90625 
L 18.109375 0 
L 9.078125 0 
L 9.078125 54.6875 
L 18.109375 54.6875 
L 18.109375 46.1875 
Q 21.1875 51.21875 25.484375 53.609375 
Q 29.78125 56 35.6875 56 
Q 41.65625 56 45.828125 52.96875 
Q 50 49.953125 52 44.1875 
" id="BitstreamVeraSans-Roman-6d"/>
      <path d="M 11.71875 12.40625 
L 22.015625 12.40625 
L 22.015625 0 
L 11.71875 0 
z
M 11.71875 51.703125 
L 22.015625 51.703125 
L 22.015625 39.3125 
L 11.71875 39.3125 
z
" id="BitstreamVeraSans-Roman-3a"/>
      <path d="M 10.6875 12.40625 
L 21 12.40625 
L 21 0 
L 10.6875 0 
z
" id="BitstreamVeraSans-Roman-2e"/>
      <path d="M 10.59375 45.40625 
L 73.1875 45.40625 
L 73.1875 37.203125 
L 10.59375 37.203125 
z
M 10.59375 25.484375 
L 73.1875 25.484375 
L 73.1875 17.1875 
L 10.59375 17.1875 
z
" id="BitstreamVeraSans-Roman-3d"/>
      <path d="M 45.40625 46.390625 
L 45.40625 75.984375 
L 54.390625 75.984375 
L 54.390625 0 
L 45.40625 0 
L 45.40625 8.203125 
Q 42.578125 3.328125 38.25 0.953125 
Q 33.9375 -1.421875 27.875 -1.421875 
Q 17.96875 -1.421875 11.734375 6.484375 
Q 5.515625 14.40625 5.515625 27.296875 
Q 5.515625 40.1875 11.734375 48.09375 
Q 17.96875 56 27.875 56 
Q 33.9375 56 38.25 53.625 
Q 42.578125 51.265625 45.40625 46.390625 
M 14.796875 27.296875 
Q 14.796875 17.390625 18.875 11.75 
Q 22.953125 6.109375 30.078125 6.109375 
Q 37.203125 6.109375 41.296875 11.75 
Q 45.40625 17.390625 45.40625 27.296875 
Q 45.40625 37.203125 41.296875 42.84375 
Q 37.203125 48.484375 30.078125 48.484375 
Q 22.953125 48.484375 18.875 42.84375 
Q 14.796875 37.203125 14.796875 27.296875 
" id="BitstreamVeraSans-Roman-64"/>
      <path d="M 18.109375 8.203125 
L 18.109375 -20.796875 
L 9.078125 -20.796875 
L 9.078125 54.6875 
L 18.109375 54.6875 
L 18.109375 46.390625 
Q 20.953125 51.265625 25.265625 53.625 
Q 29.59375 56 35.59375 56 
Q 45.5625 56 51.78125 48.09375 
Q 58.015625 40.1875 58.015625 27.296875 
Q 58.015625 14.40625 51.78125 6.484375 
Q 45.5625 -1.421875 35.59375 -1.421875 
Q 29.59375 -1.421875 25.265625 0.953125 
Q 20.953125 3.328125 18.109375 8.203125 
M 48.6875 27.296875 
Q 48.6875 37.203125 44.609375 42.84375 
Q 40.53125 48.484375 33.40625 48.484375 
Q 26.265625 48.484375 22.1875 42.84375 
Q 18.109375 37.203125 18.109375 27.296875 
Q 18.109375 17.390625 22.1875 11.75 
Q 26.265625 6.109375 33.40625 6.109375 
Q 40.53125 6.109375 44.609375 11.75 
Q 48.6875 17.390625 48.6875 27.296875 
" id="BitstreamVeraSans-Roman-70"/>
     </defs>
     <g transform="translate(939.8765625 101.0953125)scale(0.3 -0.3)">
      <use xlink:href="#BitstreamVeraSans-Roman-72"/>
      <use x="41.11328125" xlink:href="#BitstreamVeraSans-Roman-61"/>
      <use x="102.392578125" xlink:href="#BitstreamVeraSans-Roman-6e"/>
      <use x="165.771484375" xlink:href="#BitstreamVeraSans-Roman-64"/>
      <use x="229.248046875" xlink:href="#BitstreamVeraSans-Roman-6f"/>
      <use x="290.4296875" xlink:href="#BitstreamVeraSans-Roman-6d"/>
      <use x="387.841796875" xlink:href="#BitstreamVeraSans-Roman-3a"/>
      <use x="421.533203125" xlink:href="#BitstreamVeraSans-Roman-20"/>
      <use x="453.3203125" xlink:href="#BitstreamVeraSans-Roman-73"/>
      <use x="505.419921875" xlink:href="#BitstreamVeraSans-Roman-74"/>
      <use x="544.62890625" xlink:href="#BitstreamVeraSans-Roman-65"/>
      <use x="606.15234375" xlink:href="#BitstreamVeraSans-Roman-70"/>
      <use x="669.62890625" xlink:href="#BitstreamVeraSans-Roman-3d"/>
      <use x="753.41796875" xlink:href="#BitstreamVeraSans-Roman-30"/>
      <use x="817.041015625" xlink:href="#BitstreamVeraSans-Roman-2e"/>
      <use x="848.828125" xlink:href="#BitstreamVeraSans-Roman-30"/>
      <use x="912.451171875" xlink:href="#BitstreamVeraSans-Roman-34"/>
      <use x="976.07421875" xlink:href="#BitstreamVeraSans-Roman-30"/>
      <use x="1039.69726562" xlink:href="#BitstreamVeraSans-Roman-36"/>
      <use x="1103.3203125" xlink:href="#BitstreamVeraSans-Roman-32"/>
      <use x="1166.94335938" xlink:href="#BitstreamVeraSans-Roman-35"/>
     </g>
    </g>
    <g id="line2d_31">
     <path d="M 864.876562 134.629687 
L 906.876562 134.629687 
" style="fill:none;stroke:#008000;stroke-dasharray:6.000000,6.000000;stroke-dashoffset:0.0;stroke-width:2.0;"/>
    </g>
    <g id="line2d_32"/>
    <g id="text_17">
     <!-- corr: step=0.040625 -->
     <defs>
      <path d="M 48.78125 52.59375 
L 48.78125 44.1875 
Q 44.96875 46.296875 41.140625 47.34375 
Q 37.3125 48.390625 33.40625 48.390625 
Q 24.65625 48.390625 19.8125 42.84375 
Q 14.984375 37.3125 14.984375 27.296875 
Q 14.984375 17.28125 19.8125 11.734375 
Q 24.65625 6.203125 33.40625 6.203125 
Q 37.3125 6.203125 41.140625 7.25 
Q 44.96875 8.296875 48.78125 10.40625 
L 48.78125 2.09375 
Q 45.015625 0.34375 40.984375 -0.53125 
Q 36.96875 -1.421875 32.421875 -1.421875 
Q 20.0625 -1.421875 12.78125 6.34375 
Q 5.515625 14.109375 5.515625 27.296875 
Q 5.515625 40.671875 12.859375 48.328125 
Q 20.21875 56 33.015625 56 
Q 37.15625 56 41.109375 55.140625 
Q 45.0625 54.296875 48.78125 52.59375 
" id="BitstreamVeraSans-Roman-63"/>
     </defs>
     <g transform="translate(939.8765625 145.1296875)scale(0.3 -0.3)">
      <use xlink:href="#BitstreamVeraSans-Roman-63"/>
      <use x="54.98046875" xlink:href="#BitstreamVeraSans-Roman-6f"/>
      <use x="116.162109375" xlink:href="#BitstreamVeraSans-Roman-72"/>
      <use x="157.259765625" xlink:href="#BitstreamVeraSans-Roman-72"/>
      <use x="198.357421875" xlink:href="#BitstreamVeraSans-Roman-3a"/>
      <use x="232.048828125" xlink:href="#BitstreamVeraSans-Roman-20"/>
      <use x="263.8359375" xlink:href="#BitstreamVeraSans-Roman-73"/>
      <use x="315.935546875" xlink:href="#BitstreamVeraSans-Roman-74"/>
      <use x="355.14453125" xlink:href="#BitstreamVeraSans-Roman-65"/>
      <use x="416.66796875" xlink:href="#BitstreamVeraSans-Roman-70"/>
      <use x="480.14453125" xlink:href="#BitstreamVeraSans-Roman-3d"/>
      <use x="563.93359375" xlink:href="#BitstreamVeraSans-Roman-30"/>
      <use x="627.556640625" xlink:href="#BitstreamVeraSans-Roman-2e"/>
      <use x="659.34375" xlink:href="#BitstreamVeraSans-Roman-30"/>
      <use x="722.966796875" xlink:href="#BitstreamVeraSans-Roman-34"/>
      <use x="786.58984375" xlink:href="#BitstreamVeraSans-Roman-30"/>
      <use x="850.212890625" xlink:href="#BitstreamVeraSans-Roman-36"/>
      <use x="913.8359375" xlink:href="#BitstreamVeraSans-Roman-32"/>
      <use x="977.458984375" xlink:href="#BitstreamVeraSans-Roman-35"/>
     </g>
    </g>
   </g>
  </g>
 </g>
 <defs>
  <clipPath id="p402013f79c">
   <rect height="695.7" width="1137.6" x="198.45" y="51.3"/>
  </clipPath>
 </defs>
</svg>
