<?xml version="1.0" encoding="utf-8" standalone="no"?>
<!DOCTYPE svg PUBLIC "-//W3C//DTD SVG 1.1//EN"
  "http://www.w3.org/Graphics/SVG/1.1/DTD/svg11.dtd">
<!-- Created with matplotlib (http://matplotlib.org/) -->
<svg height="864pt" version="1.1" viewBox="0 0 1440 864" width="1440pt" xmlns="http://www.w3.org/2000/svg" xmlns:xlink="http://www.w3.org/1999/xlink">
 <defs>
  <style type="text/css">
*{stroke-linecap:butt;stroke-linejoin:round;stroke-miterlimit:100000;}
  </style>
 </defs>
 <g id="figure_1">
  <g id="patch_1">
   <path d="M 0 864 
L 1440 864 
L 1440 0 
L 0 0 
z
" style="fill:#ffffff;"/>
  </g>
  <g id="axes_1">
   <g id="patch_2">
    <path d="M 174.7125 747 
L 1336.05 747 
L 1336.05 51.3 
L 174.7125 51.3 
z
" style="fill:#ffffff;"/>
   </g>
   <g id="line2d_1">
    <path clip-path="url(#p0afd8b6109)" d="M 175.873838 318.006335 
L 177.035175 402.631747 
L 179.35785 402.631747 
L 180.519188 373.490961 
L 181.680525 312.532335 
L 182.841863 312.532335 
L 184.0032 452.249302 
L 187.487213 452.249302 
L 188.64855 458.277775 
L 189.809888 513.407362 
L 190.971225 527.331264 
L 193.2939 527.331264 
L 194.455238 447.721455 
L 195.616575 533.316186 
L 196.777913 533.316186 
L 197.93925 537.192301 
L 199.100588 497.953082 
L 200.261925 497.953082 
L 201.423263 501.421147 
L 202.5846 501.421147 
L 203.745938 510.429302 
L 204.907275 510.429302 
L 206.068613 519.263695 
L 207.22995 519.263695 
L 208.391288 450.998898 
L 209.552625 448.192908 
L 210.713963 448.192908 
L 211.8753 566.985631 
L 214.197975 566.985631 
L 215.359313 579.741081 
L 216.52065 579.741081 
L 217.681988 495.326351 
L 218.843325 495.326351 
L 220.004663 513.996388 
L 221.166 539.564406 
L 222.327338 588.477288 
L 223.488675 585.666196 
L 224.650013 585.666196 
L 226.972688 495.17121 
L 228.134025 597.903374 
L 229.295363 468.233938 
L 230.4567 562.421398 
L 231.618038 554.184751 
L 232.779375 578.393812 
L 233.940713 578.393812 
L 235.10205 581.4218 
L 236.263388 595.229984 
L 237.424725 576.060434 
L 238.586063 593.393359 
L 239.7474 581.254693 
L 240.908738 578.166017 
L 242.070075 551.907238 
L 243.231413 572.016446 
L 244.39275 553.297988 
L 245.554088 601.310935 
L 246.715425 606.277004 
L 247.876763 543.312189 
L 249.0381 570.270541 
L 250.199438 550.635081 
L 251.360775 589.502564 
L 252.522113 610.335301 
L 253.68345 596.149723 
L 254.844788 590.988695 
L 256.006125 593.946557 
L 257.167463 617.671689 
L 258.3288 617.765887 
L 259.490138 599.389435 
L 260.651475 599.389435 
L 262.97415 629.378534 
L 264.135488 622.964737 
L 265.296825 604.111568 
L 267.6195 604.111568 
L 268.780838 618.802619 
L 269.942175 618.802619 
L 271.103513 634.802861 
L 272.26485 636.106069 
L 273.426188 636.106069 
L 274.587525 627.22627 
L 275.748863 627.22627 
L 276.9102 642.978797 
L 278.071538 600.299109 
L 279.232875 646.766118 
L 280.394213 646.766118 
L 281.55555 605.982236 
L 282.716888 643.354359 
L 283.878225 650.924804 
L 285.039563 649.706216 
L 286.2009 641.639737 
L 287.362238 641.490787 
L 288.523575 656.847229 
L 289.684913 613.23143 
L 290.84625 613.216473 
L 292.007588 651.366573 
L 293.168925 638.814777 
L 294.330263 652.721032 
L 295.4916 598.137129 
L 296.652938 647.043888 
L 297.814275 603.133066 
L 298.975613 647.155432 
L 300.13695 639.237206 
L 301.298288 622.204059 
L 302.459625 659.604473 
L 303.620963 646.710717 
L 304.7823 638.121628 
L 305.943638 658.4978 
L 307.104975 614.82558 
L 308.266313 614.82558 
L 309.42765 605.661936 
L 310.588988 650.708766 
L 312.911663 650.708766 
L 314.073 666.064442 
L 315.234338 644.280707 
L 316.395675 651.389648 
L 317.557013 645.519841 
L 318.71835 610.522885 
L 319.879688 671.194 
L 321.041025 603.764971 
L 322.202363 668.497073 
L 323.3637 672.134216 
L 324.525038 662.920272 
L 325.686375 677.507872 
L 326.847713 677.120298 
L 328.00905 669.864448 
L 329.170388 644.961287 
L 330.331725 670.521189 
L 332.6544 670.521189 
L 333.815738 657.061133 
L 334.977075 655.619434 
L 337.29975 655.619434 
L 338.461088 674.65098 
L 339.622425 674.65098 
L 340.783763 664.002828 
L 341.9451 664.002828 
L 343.106438 631.302261 
L 344.267775 668.708798 
L 345.429113 668.708798 
L 346.59045 689.479547 
L 347.751788 689.479547 
L 348.913125 681.057983 
L 350.074463 671.379659 
L 351.2358 688.355899 
L 352.397138 657.887857 
L 353.558475 657.887857 
L 354.719813 686.523541 
L 355.88115 676.385499 
L 357.042488 684.400589 
L 358.203825 684.400589 
L 359.365163 677.1507 
L 360.5265 677.145273 
L 361.687838 616.893572 
L 362.849175 683.700808 
L 364.010513 687.023402 
L 365.17185 687.023402 
L 366.333188 674.741189 
L 367.494525 674.686159 
L 368.655863 669.261183 
L 369.8172 686.014752 
L 370.978538 686.014752 
L 372.139875 680.997295 
L 373.301213 661.83614 
L 374.46255 674.025522 
L 375.623888 657.430573 
L 376.785225 681.519951 
L 377.946563 677.924248 
L 379.1079 663.886252 
L 380.269238 689.299639 
L 381.430575 692.903226 
L 382.591913 690.383261 
L 383.75325 679.47937 
L 384.914588 693.999928 
L 386.075925 695.943226 
L 387.237263 688.145566 
L 388.3986 688.145566 
L 389.559938 701.914628 
L 390.721275 678.091796 
L 391.882613 678.091796 
L 393.04395 666.246298 
L 394.205288 666.246298 
L 395.366625 702.796567 
L 396.527963 702.796567 
L 397.6893 686.579128 
L 398.850638 686.579128 
L 400.011975 702.404772 
L 401.173313 669.840238 
L 402.33465 669.840238 
L 403.495988 691.766638 
L 404.657325 690.45471 
L 405.818663 699.668398 
L 408.141338 699.668398 
L 409.302675 700.760068 
L 410.464013 700.907626 
L 411.62535 698.783955 
L 413.948025 698.783932 
L 415.109363 684.441983 
L 417.432038 684.441983 
L 418.593375 685.761564 
L 419.754713 694.56094 
L 420.91605 694.56094 
L 422.077388 697.222317 
L 424.400063 697.222317 
L 425.5614 694.355917 
L 429.045413 694.355917 
L 430.20675 703.534171 
L 432.529425 703.534171 
L 433.690763 699.625961 
L 434.8521 709.85616 
L 438.336113 709.85616 
L 439.49745 709.392035 
L 442.981463 709.392035 
L 444.1428 708.480227 
L 446.465475 708.480227 
L 447.626813 710.530015 
L 449.949488 710.530015 
L 451.110825 705.340672 
L 454.594838 705.340696 
L 455.756175 690.267149 
L 456.917513 690.267149 
L 458.07885 703.563205 
L 459.240188 706.333274 
L 460.401525 704.909802 
L 461.562863 710.299854 
L 462.7242 704.917339 
L 463.885538 686.179193 
L 465.046875 705.957364 
L 466.208213 705.957364 
L 467.36955 708.055178 
L 468.530888 705.653784 
L 469.692225 709.646731 
L 470.853563 710.722167 
L 472.0149 682.11765 
L 473.176238 706.033613 
L 474.337575 710.531847 
L 475.498913 709.422159 
L 476.66025 712.302983 
L 477.821588 706.440041 
L 478.982925 708.516311 
L 480.144263 695.707523 
L 481.3056 695.707523 
L 482.466938 687.93834 
L 483.628275 706.394936 
L 484.789613 708.526978 
L 485.95095 706.486908 
L 487.112288 709.401357 
L 490.5963 709.475078 
L 491.757638 691.579425 
L 492.918975 695.245138 
L 494.080313 708.741138 
L 495.24165 706.692742 
L 496.402988 706.692742 
L 497.564325 714.899243 
L 499.887 714.899243 
L 501.048338 716.198254 
L 503.371013 716.126017 
L 504.53235 716.126017 
L 505.693688 709.751758 
L 506.855025 709.751758 
L 508.016363 717.673694 
L 509.1777 716.604913 
L 510.339038 708.12382 
L 511.500375 716.836929 
L 512.661713 710.886422 
L 513.82305 710.886422 
L 514.984388 702.34151 
L 516.145725 708.535118 
L 517.307063 715.473752 
L 519.629738 715.473752 
L 520.791075 716.48196 
L 521.952413 718.613283 
L 523.11375 718.613283 
L 524.275088 717.840732 
L 525.436425 717.723112 
L 527.7591 717.723112 
L 528.920438 716.877373 
L 530.081775 720.69069 
L 531.243113 718.121586 
L 532.40445 704.137714 
L 534.727125 720.252955 
L 535.888463 718.336325 
L 537.0498 715.023634 
L 538.211138 724.530703 
L 539.372475 724.530703 
L 540.533813 724.898536 
L 541.69515 720.13028 
L 542.856488 720.13028 
L 544.017825 722.407956 
L 545.179163 720.752004 
L 546.3405 718.748388 
L 547.501837 718.020361 
L 548.663175 719.902717 
L 549.824513 718.639418 
L 550.98585 712.420834 
L 552.147187 716.317821 
L 553.308525 725.319029 
L 554.469863 707.570205 
L 555.6312 718.449585 
L 556.792537 676.388282 
L 557.953875 712.143853 
L 559.115213 712.732485 
L 560.27655 712.613659 
L 561.437887 722.866863 
L 562.599225 711.022872 
L 563.760563 711.267874 
L 564.9219 721.228049 
L 566.083237 722.076292 
L 567.244575 722.076292 
L 568.405913 719.178632 
L 569.56725 724.555007 
L 570.728588 724.977016 
L 571.889925 726.891049 
L 573.051263 725.016126 
L 574.2126 725.016126 
L 575.373938 715.01932 
L 576.535275 715.01932 
L 577.696613 705.430139 
L 578.85795 705.430139 
L 580.019288 711.306833 
L 581.180625 711.306833 
L 582.341963 718.116182 
L 583.5033 719.39685 
L 584.664638 719.6169 
L 585.825975 721.224014 
L 586.987313 718.01904 
L 588.14865 724.971571 
L 589.309988 721.53476 
L 590.471325 695.444131 
L 591.632663 716.408425 
L 592.794 724.019473 
L 593.955338 727.795419 
L 595.116675 725.221202 
L 596.278013 725.221202 
L 597.43935 727.498407 
L 598.600688 728.107362 
L 599.762025 727.543954 
L 600.923363 727.652949 
L 602.0847 717.352907 
L 603.246038 725.63737 
L 604.407375 719.855085 
L 605.568713 724.883006 
L 606.73005 722.05563 
L 607.891388 728.122415 
L 609.052725 728.177948 
L 610.214063 726.100446 
L 611.3754 724.760458 
L 612.536738 722.740755 
L 613.698075 726.930221 
L 614.859413 726.930221 
L 616.02075 729.597368 
L 617.182088 727.918633 
L 619.504762 727.846166 
L 620.6661 730.201459 
L 621.827438 725.347977 
L 622.988775 730.478491 
L 624.150112 730.478491 
L 625.31145 722.2703 
L 626.472788 712.114216 
L 627.634125 712.114216 
L 628.795462 725.254756 
L 629.9568 714.108626 
L 631.118138 729.971173 
L 632.279475 729.095541 
L 633.440812 727.825235 
L 634.60215 704.193904 
L 636.924825 704.193904 
L 638.086163 715.431731 
L 639.2475 730.347644 
L 640.408838 730.347644 
L 641.570175 728.990361 
L 642.731513 730.549833 
L 643.89285 728.884566 
L 645.054188 730.742715 
L 647.376863 730.742715 
L 648.5382 730.553422 
L 649.699538 730.56034 
L 650.860875 731.884183 
L 652.022213 730.335232 
L 653.18355 723.994773 
L 654.344888 714.392425 
L 655.506225 726.685797 
L 656.667563 726.685797 
L 657.8289 725.804741 
L 658.990238 731.595964 
L 660.151575 731.142467 
L 661.312913 727.459376 
L 662.47425 729.873545 
L 663.635588 729.382026 
L 664.796925 729.568654 
L 665.958263 730.110558 
L 667.1196 713.657696 
L 668.280938 713.657696 
L 669.442275 725.596817 
L 670.603613 725.596817 
L 671.76495 722.903619 
L 672.926288 716.353163 
L 674.087625 730.499559 
L 675.248963 729.520336 
L 676.4103 730.873904 
L 677.571638 730.873904 
L 678.732975 729.085479 
L 679.894313 732.524793 
L 681.05565 727.050183 
L 682.216988 728.014252 
L 683.378325 728.014252 
L 684.539663 732.472597 
L 685.701 733.212573 
L 686.862337 727.817914 
L 688.023675 731.771953 
L 690.34635 731.764801 
L 691.507687 730.917893 
L 692.669025 733.608271 
L 693.830363 727.228338 
L 694.9917 731.414773 
L 696.153037 731.724209 
L 697.314375 733.893805 
L 698.475713 733.893805 
L 699.63705 733.353891 
L 700.798387 734.101098 
L 701.959725 734.101098 
L 703.121063 721.687419 
L 704.2824 727.79182 
L 705.443737 727.79182 
L 706.605075 728.26619 
L 707.766413 730.483405 
L 708.92775 730.483405 
L 710.089088 733.64048 
L 711.250425 733.986463 
L 712.411763 732.141003 
L 713.5731 733.413598 
L 714.734438 733.413598 
L 715.895775 729.268103 
L 717.057113 723.249498 
L 719.379788 733.842008 
L 720.541125 729.509082 
L 721.702463 731.545391 
L 722.8638 735.411746 
L 724.025138 735.411746 
L 725.186475 730.056572 
L 726.347813 735.112372 
L 727.50915 728.011893 
L 728.670488 735.293739 
L 729.831825 734.434791 
L 730.993163 734.633617 
L 733.315838 735.729588 
L 734.477175 735.798989 
L 735.638513 736.278579 
L 736.79985 736.278579 
L 737.961188 732.443203 
L 739.122525 732.143911 
L 740.283863 732.144704 
L 741.4452 734.16103 
L 743.767875 734.24008 
L 744.929212 734.24008 
L 746.09055 733.131218 
L 749.574562 733.131218 
L 750.7359 734.612463 
L 751.897238 734.782451 
L 754.219912 734.782451 
L 755.38125 734.656589 
L 757.703925 734.656589 
L 758.865262 736.614484 
L 762.349275 736.614484 
L 763.510612 736.193977 
L 764.67195 736.193977 
L 765.833288 735.41897 
L 768.155962 735.41897 
L 769.3173 724.970323 
L 770.478638 724.970323 
L 771.639975 731.362737 
L 772.801312 731.362737 
L 773.96265 733.549315 
L 775.123988 733.549315 
L 776.285325 735.37377 
L 779.769338 735.37377 
L 780.930675 737.169418 
L 784.414688 737.169418 
L 785.576025 736.973177 
L 789.060038 736.975575 
L 790.221375 737.131104 
L 793.705388 737.151059 
L 794.866725 735.093572 
L 798.350738 735.093572 
L 799.512075 734.362589 
L 801.83475 734.362589 
L 802.996088 732.707096 
L 804.157425 736.520522 
L 805.318763 735.68011 
L 806.4801 735.294027 
L 807.641438 735.294027 
L 808.802775 734.300822 
L 809.964113 734.300822 
L 811.12545 737.240966 
L 812.286787 737.240966 
L 813.448125 737.04576 
L 815.7708 737.045962 
L 816.932137 736.830288 
L 819.254813 736.827076 
L 820.41615 736.951921 
L 821.577487 736.95754 
L 822.738825 736.454886 
L 823.900163 737.068133 
L 825.0615 737.068133 
L 827.384175 737.547042 
L 828.545513 737.547042 
L 829.70685 729.117117 
L 830.868187 737.217632 
L 832.029525 737.22923 
L 833.190863 737.360258 
L 834.3522 736.524513 
L 835.513537 736.524513 
L 836.674875 737.252489 
L 837.836213 737.745418 
L 838.99755 737.386228 
L 840.158887 736.050559 
L 841.320225 736.050559 
L 842.481563 737.932228 
L 843.6429 738.682436 
L 845.965575 738.682436 
L 847.126913 737.714369 
L 848.28825 738.165454 
L 850.610925 738.073534 
L 851.772263 738.504255 
L 852.9336 738.504255 
L 854.094938 738.057386 
L 855.256275 738.057384 
L 856.417613 738.920045 
L 857.57895 737.99213 
L 858.740288 737.99213 
L 859.901625 728.702503 
L 861.062963 728.702503 
L 862.2243 734.141164 
L 863.385638 734.920083 
L 864.546975 734.920083 
L 865.708313 737.623903 
L 866.86965 737.330099 
L 868.030988 737.648238 
L 869.192325 738.453785 
L 870.353663 736.892715 
L 871.515 738.283129 
L 872.676338 738.551818 
L 873.837675 734.319979 
L 874.999013 738.082863 
L 876.16035 738.101241 
L 878.483025 739.082194 
L 880.8057 739.13545 
L 881.967038 737.855826 
L 883.128375 738.630796 
L 884.289712 738.111751 
L 886.612388 738.292025 
L 888.935062 738.710681 
L 890.0964 738.586227 
L 891.257738 738.122666 
L 892.419075 738.940937 
L 894.74175 738.941071 
L 895.903088 737.608342 
L 899.3871 737.608342 
L 900.548438 736.947228 
L 904.03245 736.947228 
L 905.193788 738.294261 
L 907.516462 738.294261 
L 908.6778 737.457853 
L 912.161812 737.457853 
L 913.32315 738.888678 
L 921.452513 738.833848 
L 922.61385 738.227253 
L 926.097863 738.227253 
L 927.2592 737.558537 
L 929.581875 737.558537 
L 930.743213 739.083075 
L 931.90455 739.372503 
L 936.5499 739.431371 
L 937.711238 736.960655 
L 940.033913 736.960655 
L 941.19525 738.970075 
L 942.356588 738.970075 
L 943.517925 737.54315 
L 947.001938 737.54315 
L 948.163275 739.250523 
L 951.647288 739.250523 
L 952.808625 738.876956 
L 955.1313 738.876956 
L 956.292637 739.730183 
L 957.453975 739.712427 
L 958.615313 734.339204 
L 959.77665 734.339204 
L 960.937987 737.513746 
L 962.099325 739.162044 
L 963.260663 739.547787 
L 965.583337 739.884408 
L 966.744675 739.165449 
L 970.228687 738.962708 
L 971.390025 738.456048 
L 972.551363 739.300424 
L 973.7127 739.918567 
L 974.874037 739.623175 
L 977.196713 739.623175 
L 978.35805 739.464015 
L 979.519387 739.912083 
L 980.680725 740.048382 
L 981.842063 739.615587 
L 983.0034 739.615587 
L 984.164738 740.355056 
L 985.326075 740.355056 
L 986.487413 737.050688 
L 988.810088 737.050688 
L 989.971425 739.598399 
L 991.132763 739.598399 
L 992.2941 740.060722 
L 996.93945 739.953897 
L 998.100788 740.468033 
L 1000.423463 740.468033 
L 1001.5848 740.059356 
L 1005.068813 740.059351 
L 1006.23015 740.449312 
L 1009.714163 740.449312 
L 1010.8755 740.066791 
L 1012.036838 738.830743 
L 1013.198175 738.830743 
L 1014.359513 734.667839 
L 1016.682188 734.667839 
L 1017.843525 740.283044 
L 1021.327538 740.283044 
L 1022.488875 740.445365 
L 1023.650212 740.445365 
L 1024.81155 740.324626 
L 1029.4569 740.362952 
L 1030.618238 737.031658 
L 1034.10225 737.031658 
L 1035.263588 739.489401 
L 1036.424925 739.489401 
L 1037.586262 738.521189 
L 1039.908938 738.521189 
L 1041.070275 739.875269 
L 1042.231612 739.996281 
L 1043.39295 739.867113 
L 1044.554288 740.050481 
L 1045.715625 740.422852 
L 1049.199638 740.517354 
L 1050.360975 739.57731 
L 1051.522312 740.423729 
L 1052.68365 739.436994 
L 1055.006325 739.498745 
L 1056.167663 740.256995 
L 1058.490338 740.256995 
L 1059.651675 740.576516 
L 1063.135688 740.701023 
L 1064.297025 740.212245 
L 1070.103713 740.129779 
L 1071.26505 739.784002 
L 1072.426388 740.675779 
L 1073.587725 739.784002 
L 1075.9104 739.708338 
L 1078.233075 739.708338 
L 1079.394413 740.995555 
L 1080.55575 740.995555 
L 1081.717088 740.45719 
L 1085.2011 740.45719 
L 1086.362438 740.770452 
L 1089.84645 740.816885 
L 1091.007788 740.491968 
L 1093.330463 740.491968 
L 1094.4918 739.585104 
L 1097.975813 739.585104 
L 1099.13715 739.850864 
L 1103.7825 739.85114 
L 1104.943837 739.204139 
L 1108.42785 739.205417 
L 1109.589187 739.00131 
L 1111.911863 739.008707 
L 1113.0732 740.121324 
L 1114.234537 740.121324 
L 1115.395875 740.516185 
L 1118.879887 740.582235 
L 1120.041225 740.29889 
L 1121.202563 740.760095 
L 1122.3639 741.01394 
L 1125.847913 741.083299 
L 1127.00925 740.863462 
L 1128.170588 740.949646 
L 1129.331925 740.904383 
L 1130.493263 740.987788 
L 1131.6546 740.424053 
L 1132.815938 741.070057 
L 1133.977275 741.173942 
L 1135.138613 740.999648 
L 1139.783963 740.899759 
L 1140.9453 741.245557 
L 1144.429313 741.245557 
L 1145.59065 741.069169 
L 1147.913325 741.069169 
L 1149.074663 740.92162 
L 1152.558675 740.828464 
L 1153.720013 740.621298 
L 1154.88135 741.294288 
L 1156.042688 740.97086 
L 1159.5267 741.059515 
L 1161.849375 741.140003 
L 1164.17205 741.140003 
L 1165.333388 738.826286 
L 1168.8174 738.826286 
L 1169.978738 741.064568 
L 1173.46275 741.064568 
L 1174.624088 741.222682 
L 1183.914788 741.25036 
L 1187.3988 740.880959 
L 1189.721475 740.785112 
L 1190.882812 741.240469 
L 1192.04415 740.980947 
L 1193.205488 740.980947 
L 1194.366825 741.45186 
L 1195.528163 741.163775 
L 1197.850838 741.24392 
L 1199.012175 740.947779 
L 1200.173513 741.441039 
L 1201.33485 741.277995 
L 1203.657525 741.362506 
L 1204.818863 737.673833 
L 1205.9802 740.987012 
L 1207.141538 740.987012 
L 1208.302875 741.329936 
L 1210.62555 741.224498 
L 1212.948225 741.197927 
L 1214.109563 741.388391 
L 1217.593575 741.423494 
L 1219.91625 741.532691 
L 1221.077588 741.028823 
L 1222.238925 741.482951 
L 1228.045613 741.577883 
L 1229.20695 741.768415 
L 1230.368288 741.768415 
L 1231.529625 740.935998 
L 1232.690963 741.554485 
L 1235.013638 741.471947 
L 1236.174975 741.619983 
L 1238.49765 741.649594 
L 1240.820325 741.442048 
L 1241.981663 741.442048 
L 1244.304338 741.178371 
L 1245.465675 741.178371 
L 1248.949688 741.633822 
L 1250.111025 741.727561 
L 1251.272363 741.705684 
L 1253.595038 741.877788 
L 1266.36975 741.319825 
L 1267.531088 741.477647 
L 1268.692425 741.385124 
L 1269.853763 741.915391 
L 1273.337775 741.650916 
L 1274.499113 741.844677 
L 1275.66045 741.805806 
L 1276.821788 741.934091 
L 1279.144463 741.78677 
L 1280.3058 741.589567 
L 1283.789813 741.678563 
L 1284.95115 741.916984 
L 1288.435163 741.857328 
L 1289.5965 741.448421 
L 1290.757838 741.767121 
L 1291.919175 741.907706 
L 1296.564525 741.8064 
L 1298.8872 741.761639 
L 1301.209875 741.864431 
L 1303.53255 741.763459 
L 1304.693888 741.763459 
L 1305.855225 742.031874 
L 1309.339238 742.031876 
L 1310.500575 741.909354 
L 1313.984588 741.909354 
L 1315.145925 742.023542 
L 1330.243313 741.969813 
L 1332.565988 741.903376 
L 1333.727325 741.903383 
L 1334.888663 741.633301 
L 1336.05 741.935297 
L 1336.05 741.935297 
" style="fill:none;stroke:#0000ff;stroke-linecap:square;stroke-width:2.0;"/>
   </g>
   <g id="line2d_2">
    <path clip-path="url(#p0afd8b6109)" d="M 175.873838 85.492727 
L 177.035175 85.492727 
L 179.35785 417.941321 
L 180.519188 339.442475 
L 182.841863 339.442475 
L 184.0032 260.519021 
L 185.164538 501.446192 
L 186.325875 476.465228 
L 187.487213 485.577275 
L 188.64855 485.577275 
L 189.809888 376.938386 
L 190.971225 376.938386 
L 192.132563 382.286 
L 193.2939 382.286 
L 194.455238 376.353766 
L 195.616575 509.358852 
L 196.777913 509.358852 
L 197.93925 429.810427 
L 199.100588 546.706903 
L 202.5846 546.706903 
L 203.745938 495.17492 
L 204.907275 495.17492 
L 206.068613 458.493674 
L 207.22995 458.493674 
L 208.391288 452.845517 
L 209.552625 452.845517 
L 210.713963 525.384533 
L 211.8753 539.842756 
L 213.036638 539.842756 
L 214.197975 555.867023 
L 217.681988 555.867023 
L 218.843325 547.741641 
L 220.004663 547.741641 
L 221.166 505.227321 
L 222.327338 505.227321 
L 223.488675 564.786801 
L 225.81135 564.786801 
L 226.972688 469.626497 
L 228.134025 469.626497 
L 229.295363 494.868348 
L 230.4567 494.868348 
L 231.618038 581.601754 
L 232.779375 581.601754 
L 233.940713 579.051782 
L 235.10205 566.108307 
L 236.263388 559.212111 
L 237.424725 559.212111 
L 238.586063 554.706734 
L 240.908738 594.551676 
L 242.070075 594.551676 
L 243.231413 565.355165 
L 244.39275 581.761371 
L 245.554088 581.761371 
L 246.715425 572.072218 
L 247.876763 585.729945 
L 249.0381 580.503198 
L 250.199438 581.772711 
L 251.360775 580.577174 
L 252.522113 604.021985 
L 253.68345 606.652056 
L 254.844788 598.912394 
L 256.006125 570.250759 
L 257.167463 606.533393 
L 258.3288 580.16954 
L 259.490138 631.365546 
L 260.651475 555.376462 
L 261.812813 509.879235 
L 262.97415 598.200878 
L 264.135488 601.07296 
L 265.296825 601.07296 
L 266.458163 613.044542 
L 268.780838 613.047789 
L 269.942175 618.80626 
L 271.103513 614.267304 
L 272.26485 627.458959 
L 273.426188 607.952969 
L 274.587525 597.64826 
L 275.748863 595.080501 
L 279.232875 595.080501 
L 280.394213 627.361746 
L 283.878225 627.361746 
L 285.039563 580.261836 
L 286.2009 600.296628 
L 287.362238 600.296628 
L 288.523575 623.291878 
L 292.007588 623.291878 
L 293.168925 623.050192 
L 296.652938 623.050192 
L 297.814275 622.122778 
L 300.13695 622.122778 
L 301.298288 450.058311 
L 304.7823 450.058311 
L 305.943638 629.206024 
L 308.266313 629.206024 
L 309.42765 628.415013 
L 311.750325 628.415013 
L 312.911663 641.110657 
L 315.234338 641.110657 
L 316.395675 641.635516 
L 317.557013 641.635516 
L 318.71835 645.390232 
L 322.202363 645.345406 
L 323.3637 656.798622 
L 324.525038 656.69429 
L 325.686375 656.798622 
L 326.847713 612.047279 
L 328.00905 612.047279 
L 329.170388 644.59558 
L 330.331725 650.683674 
L 331.493063 650.683674 
L 332.6544 654.275504 
L 333.815738 640.068892 
L 336.138413 640.068892 
L 337.29975 640.853201 
L 338.461088 640.853201 
L 339.622425 656.564496 
L 343.106438 656.564496 
L 344.267775 632.504732 
L 346.59045 632.504732 
L 347.751788 653.914181 
L 348.913125 653.914181 
L 350.074463 665.124296 
L 352.397138 665.124296 
L 353.558475 643.593262 
L 355.88115 643.593262 
L 357.042488 586.607061 
L 358.203825 586.56504 
L 359.365163 626.145964 
L 360.5265 626.145964 
L 361.687838 658.774689 
L 362.849175 658.774689 
L 364.010513 656.097218 
L 365.17185 663.393047 
L 366.333188 664.17012 
L 367.494525 629.916148 
L 368.655863 668.29801 
L 369.8172 658.965844 
L 370.978538 645.648291 
L 372.139875 648.472531 
L 373.301213 663.71388 
L 375.623888 663.71388 
L 376.785225 668.711882 
L 380.269238 668.69769 
L 381.430575 614.54679 
L 384.914588 614.54679 
L 386.075925 659.475954 
L 389.559938 659.475954 
L 390.721275 656.557191 
L 394.205288 656.557191 
L 395.366625 664.261976 
L 398.850638 664.309562 
L 400.011975 666.22436 
L 402.33465 666.22436 
L 403.495988 651.058402 
L 406.98 651.058402 
L 408.141338 661.42628 
L 411.62535 661.42628 
L 412.786688 662.22921 
L 413.948025 662.22921 
L 415.109363 663.176661 
L 416.2707 592.524105 
L 417.432038 657.070247 
L 418.593375 658.846578 
L 419.754713 658.846578 
L 420.91605 664.610498 
L 423.238725 664.610498 
L 424.400063 633.655049 
L 425.5614 633.655049 
L 426.722738 670.278227 
L 427.884075 660.59355 
L 429.045413 662.451393 
L 430.20675 662.665228 
L 431.368088 662.665228 
L 432.529425 668.059269 
L 433.690763 679.243783 
L 434.8521 673.064204 
L 436.013438 681.678686 
L 437.174775 658.206186 
L 438.336113 637.404431 
L 439.49745 679.266671 
L 440.658788 671.242491 
L 441.820125 687.053688 
L 442.981463 688.314992 
L 444.1428 672.019008 
L 445.304138 672.353732 
L 446.465475 689.877696 
L 447.626813 670.290541 
L 448.78815 680.586808 
L 449.949488 671.341697 
L 451.110825 580.319927 
L 452.272163 670.507808 
L 453.4335 677.513809 
L 454.594838 688.908633 
L 455.756175 691.008858 
L 456.917513 691.393 
L 458.07885 675.565895 
L 459.240188 692.915007 
L 460.401525 692.915007 
L 461.562863 691.43087 
L 462.7242 623.932919 
L 463.885538 694.581324 
L 465.046875 665.376858 
L 466.208213 660.516234 
L 467.36955 687.538428 
L 468.530888 687.538428 
L 469.692225 685.440035 
L 470.853563 685.440035 
L 472.0149 681.703407 
L 473.176238 681.703407 
L 474.337575 684.928997 
L 475.498913 681.83879 
L 476.66025 681.83879 
L 477.821588 692.033369 
L 478.982925 692.033369 
L 480.144263 677.048014 
L 482.466938 677.053742 
L 483.628275 688.150598 
L 484.789613 681.760848 
L 485.95095 657.216205 
L 487.112288 657.216205 
L 488.273625 693.676357 
L 489.434963 693.676357 
L 490.5963 691.359213 
L 491.757638 691.359213 
L 492.918975 672.507088 
L 496.402988 672.507088 
L 497.564325 685.052437 
L 498.725663 685.052437 
L 499.887 668.718816 
L 501.048338 668.718816 
L 502.209675 692.08724 
L 503.371013 692.08724 
L 504.53235 675.411264 
L 505.693688 690.876861 
L 506.855025 690.876861 
L 508.016363 696.895153 
L 509.1777 649.510492 
L 510.339038 649.510492 
L 511.500375 698.329501 
L 513.82305 698.26211 
L 514.984388 691.383632 
L 516.145725 691.383632 
L 517.307063 698.091687 
L 518.4684 682.628479 
L 519.629738 682.628479 
L 520.791075 698.639017 
L 523.11375 698.659146 
L 524.275088 702.11812 
L 525.436425 702.11812 
L 526.597763 699.753738 
L 527.7591 693.860185 
L 528.920438 693.860185 
L 530.081775 695.410042 
L 531.243113 690.548722 
L 532.40445 690.548722 
L 533.565788 701.7385 
L 534.727125 702.478771 
L 535.888463 702.478771 
L 537.0498 676.488347 
L 538.211138 681.519696 
L 539.372475 681.519696 
L 540.533813 693.846039 
L 541.69515 693.846039 
L 542.856488 698.876645 
L 544.017825 698.876645 
L 545.179163 702.413236 
L 546.3405 704.625748 
L 547.501837 709.500866 
L 548.663175 709.500866 
L 549.824513 685.27571 
L 550.98585 708.749765 
L 552.147187 708.749765 
L 553.308525 697.653187 
L 554.469863 705.956923 
L 555.6312 705.956923 
L 556.792537 709.392963 
L 557.953875 713.560159 
L 559.115213 707.869658 
L 561.437887 707.953629 
L 562.599225 715.389734 
L 563.760563 715.389734 
L 564.9219 711.327635 
L 566.083237 715.603569 
L 567.244575 714.594804 
L 568.405913 714.779489 
L 569.56725 716.971292 
L 570.728588 716.971292 
L 571.889925 715.411811 
L 573.051263 715.411811 
L 574.2126 718.33876 
L 575.373938 717.003665 
L 576.535275 717.957308 
L 577.696613 715.646958 
L 578.85795 714.000375 
L 580.019288 714.000375 
L 581.180625 705.846725 
L 582.341963 713.239418 
L 583.5033 713.155726 
L 584.664638 717.211633 
L 585.825975 715.06039 
L 586.987313 715.06039 
L 588.14865 718.494458 
L 591.632663 718.494458 
L 592.794 708.428305 
L 595.116675 708.428305 
L 596.278013 716.347342 
L 599.762025 716.347342 
L 600.923363 715.921806 
L 602.0847 716.034694 
L 604.407375 716.034694 
L 605.568713 704.711435 
L 607.891388 704.711435 
L 609.052725 716.291709 
L 610.214063 718.37547 
L 611.3754 720.828879 
L 612.536738 703.2609 
L 613.698075 689.401026 
L 614.859413 717.955337 
L 616.02075 705.301481 
L 617.182088 719.084875 
L 618.343425 715.631235 
L 619.504762 714.781553 
L 620.6661 720.542204 
L 621.827438 713.00622 
L 622.988775 713.006498 
L 624.150112 719.852487 
L 625.31145 722.746576 
L 626.472788 722.786718 
L 627.634125 717.833334 
L 628.795462 723.812718 
L 629.9568 723.812718 
L 631.118138 704.945144 
L 632.279475 713.30493 
L 633.440812 713.30493 
L 634.60215 711.260871 
L 635.763488 721.622279 
L 636.924825 719.691526 
L 640.408838 719.691526 
L 641.570175 721.824843 
L 645.054188 721.824843 
L 646.215525 726.439134 
L 649.699538 726.439134 
L 650.860875 718.99993 
L 652.022213 718.99993 
L 653.18355 713.501117 
L 655.506225 713.501117 
L 656.667563 725.561617 
L 658.990238 725.561617 
L 660.151575 725.237222 
L 662.47425 725.236595 
L 663.635588 716.091835 
L 664.796925 716.188537 
L 665.958263 701.672594 
L 668.280938 701.672594 
L 669.442275 725.150419 
L 670.603613 725.150419 
L 671.76495 727.142878 
L 675.248963 727.142878 
L 676.4103 693.459832 
L 677.571638 723.43147 
L 678.732975 726.45203 
L 679.894313 726.375848 
L 682.216988 726.447062 
L 683.378325 724.994916 
L 684.539663 727.085258 
L 685.701 728.678321 
L 686.862337 726.659151 
L 688.023675 722.211954 
L 689.185013 723.480169 
L 690.34635 725.367362 
L 691.507687 719.248782 
L 692.669025 729.236358 
L 693.830363 729.204743 
L 694.9917 728.997717 
L 696.153037 729.631335 
L 697.314375 729.631335 
L 698.475713 730.489666 
L 699.63705 730.489666 
L 700.798387 730.135982 
L 704.2824 730.135982 
L 705.443737 730.839021 
L 706.605075 730.422362 
L 707.766413 726.089677 
L 708.92775 727.631526 
L 710.089088 727.466031 
L 711.250425 727.466031 
L 712.411763 728.9454 
L 713.5731 728.234891 
L 717.057113 728.234891 
L 718.21845 727.273318 
L 720.541125 727.273318 
L 721.702463 725.979575 
L 724.025138 725.979575 
L 725.186475 730.281457 
L 728.670488 730.281457 
L 729.831825 729.139197 
L 733.315838 729.139197 
L 734.477175 730.174363 
L 735.638513 730.174366 
L 736.79985 730.685517 
L 737.961188 730.685517 
L 739.122525 728.125506 
L 740.283863 730.01723 
L 741.4452 730.002419 
L 742.606538 729.472755 
L 743.767875 729.472755 
L 744.929212 729.750211 
L 746.09055 729.750211 
L 747.251888 727.460155 
L 748.413225 726.364492 
L 749.574562 729.272052 
L 750.7359 726.16276 
L 751.897238 726.109145 
L 753.058575 723.932371 
L 754.219912 726.196991 
L 755.38125 727.688878 
L 756.542588 727.688878 
L 757.703925 730.196366 
L 758.865262 730.544991 
L 760.0266 725.455405 
L 761.187938 725.455405 
L 762.349275 727.538117 
L 763.510612 716.832454 
L 764.67195 724.513246 
L 766.994625 731.208885 
L 768.155962 722.765801 
L 769.3173 725.203234 
L 770.478638 724.026358 
L 771.639975 724.026358 
L 772.801312 730.297018 
L 776.285325 730.376476 
L 777.446663 729.499374 
L 778.608 732.043746 
L 779.769338 732.043746 
L 780.930675 729.814554 
L 782.092013 732.00718 
L 783.25335 731.316923 
L 784.414688 731.316923 
L 785.576025 731.684658 
L 786.737363 731.684658 
L 787.8987 732.014699 
L 789.060038 731.617932 
L 790.221375 730.350211 
L 791.382713 730.190944 
L 792.54405 730.190944 
L 793.705388 731.362825 
L 794.866725 731.362825 
L 796.028063 732.862502 
L 797.1894 732.862502 
L 798.350738 723.960893 
L 799.512075 730.544905 
L 800.673413 730.544905 
L 801.83475 730.795936 
L 802.996088 730.795936 
L 804.157425 731.702086 
L 805.318763 731.702086 
L 806.4801 732.108641 
L 807.641438 733.461235 
L 808.802775 733.469456 
L 809.964113 732.967963 
L 811.12545 732.198778 
L 812.286787 733.184323 
L 813.448125 733.184323 
L 814.609463 731.854068 
L 815.7708 732.745531 
L 816.932137 729.03649 
L 818.093475 732.118265 
L 819.254813 723.259562 
L 821.577487 723.259562 
L 822.738825 730.290946 
L 825.0615 730.290946 
L 826.222837 731.005284 
L 829.70685 731.005284 
L 830.868187 732.670438 
L 834.3522 732.670438 
L 835.513537 732.460229 
L 838.99755 732.460229 
L 840.158887 731.917486 
L 841.320225 730.484314 
L 844.804237 730.484314 
L 845.965575 728.022999 
L 849.449588 728.022999 
L 850.610925 724.621165 
L 851.772263 733.177216 
L 852.9336 733.177216 
L 854.094938 733.636271 
L 855.256275 733.636271 
L 856.417613 722.634429 
L 859.901625 722.634429 
L 861.062963 732.578044 
L 864.546975 732.578044 
L 865.708313 733.447108 
L 866.86965 733.664226 
L 868.030988 733.664226 
L 869.192325 731.050315 
L 872.676338 731.050315 
L 873.837675 729.471229 
L 874.999013 729.978276 
L 876.16035 729.978276 
L 877.321688 729.471229 
L 878.483025 732.702266 
L 879.644363 731.944303 
L 883.128375 731.944303 
L 884.289712 725.188052 
L 886.612388 725.188052 
L 887.773725 724.607601 
L 890.0964 724.607601 
L 891.257738 733.134794 
L 893.580412 733.134794 
L 894.74175 731.257042 
L 895.903088 733.575418 
L 897.064425 733.575418 
L 898.225762 734.314708 
L 899.3871 733.548977 
L 901.709775 727.575938 
L 902.871112 728.673961 
L 904.03245 728.673961 
L 905.193788 725.541655 
L 906.355125 735.124742 
L 907.516462 734.191205 
L 909.839138 735.537709 
L 913.32315 735.589101 
L 914.484488 736.138899 
L 917.9685 736.138899 
L 919.129838 735.17249 
L 921.452513 735.17249 
L 922.61385 736.156521 
L 924.936525 736.156521 
L 926.097863 731.516821 
L 928.420538 731.516821 
L 929.581875 736.089965 
L 933.065888 736.089963 
L 934.227225 734.090932 
L 936.5499 734.090932 
L 937.711238 735.871003 
L 940.033913 735.871003 
L 941.19525 734.325413 
L 943.517925 734.325413 
L 944.679263 736.747469 
L 947.001938 736.747469 
L 948.163275 736.368823 
L 950.48595 736.368823 
L 951.647288 734.629649 
L 952.808625 734.629649 
L 953.969963 735.071479 
L 956.292637 735.071479 
L 957.453975 735.785444 
L 959.77665 735.785444 
L 960.937987 734.422929 
L 964.422 734.422929 
L 965.583337 735.777751 
L 966.744675 735.777751 
L 967.906013 736.255067 
L 969.06735 736.188265 
L 971.390025 736.255067 
L 972.551363 735.652799 
L 974.874037 735.652799 
L 976.035375 730.416393 
L 978.35805 730.416393 
L 979.519387 735.862288 
L 980.680725 736.041584 
L 981.842063 735.862288 
L 983.0034 735.554355 
L 984.164738 735.554355 
L 985.326075 736.027083 
L 986.487413 729.547046 
L 987.64875 731.030647 
L 988.810088 735.260677 
L 989.971425 735.705118 
L 991.132763 731.739306 
L 992.2941 735.74068 
L 993.455438 735.74068 
L 994.616775 735.190715 
L 995.778113 735.273568 
L 996.93945 737.044913 
L 998.100788 737.044913 
L 999.262125 736.708188 
L 1000.423463 736.708188 
L 1001.5848 735.313446 
L 1002.746138 737.695409 
L 1003.907475 737.695409 
L 1005.068813 736.465024 
L 1006.23015 736.465024 
L 1007.391488 737.645191 
L 1008.552825 737.64518 
L 1009.714163 737.012178 
L 1010.8755 737.463516 
L 1012.036838 738.108036 
L 1013.198175 738.108036 
L 1014.359513 738.267629 
L 1015.52085 737.4988 
L 1016.682188 737.814821 
L 1017.843525 735.240618 
L 1019.004863 737.884558 
L 1020.1662 737.884558 
L 1021.327538 737.563762 
L 1022.488875 734.767442 
L 1025.972888 734.767442 
L 1027.134225 737.155611 
L 1028.295562 737.155611 
L 1029.4569 737.723879 
L 1030.618238 737.048974 
L 1031.779575 737.048974 
L 1032.940912 737.55664 
L 1034.10225 736.906555 
L 1035.263588 737.953994 
L 1036.424925 737.953994 
L 1037.586262 735.667207 
L 1038.7476 738.032367 
L 1039.908938 736.676849 
L 1041.070275 738.224347 
L 1042.231612 737.388564 
L 1043.39295 737.388564 
L 1044.554288 737.138603 
L 1045.715625 738.123854 
L 1046.876962 738.270971 
L 1048.0383 737.006696 
L 1049.199638 738.104566 
L 1050.360975 736.71888 
L 1051.522312 736.71888 
L 1052.68365 737.455188 
L 1053.844988 738.442347 
L 1055.006325 738.442347 
L 1056.167663 738.192438 
L 1057.329 738.918923 
L 1058.490338 738.929488 
L 1059.651675 738.235782 
L 1060.813013 738.382786 
L 1061.97435 737.297585 
L 1063.135688 737.087831 
L 1064.297025 737.087831 
L 1065.458363 739.110906 
L 1066.6197 738.650874 
L 1070.103713 738.56067 
L 1071.26505 739.032264 
L 1072.426388 739.032264 
L 1073.587725 739.292451 
L 1074.749063 738.52867 
L 1077.071738 738.52867 
L 1078.233075 738.822909 
L 1080.55575 738.916094 
L 1081.717088 738.916094 
L 1082.878425 739.042254 
L 1084.039763 739.52971 
L 1085.2011 739.52971 
L 1086.362438 738.12178 
L 1087.523775 737.765137 
L 1091.007788 737.765137 
L 1092.169125 738.995638 
L 1093.330463 738.450142 
L 1094.4918 738.682677 
L 1095.653137 739.934937 
L 1096.814475 734.152673 
L 1097.975813 736.900539 
L 1099.13715 736.34237 
L 1100.298487 738.597716 
L 1101.459825 739.542256 
L 1102.621163 739.542256 
L 1103.7825 736.971324 
L 1106.105175 736.971324 
L 1107.266513 737.960478 
L 1108.42785 737.960478 
L 1109.589187 738.123176 
L 1110.750525 738.123176 
L 1111.911863 737.86148 
L 1113.0732 739.266348 
L 1114.234537 739.262654 
L 1115.395875 739.466028 
L 1116.557213 737.574174 
L 1118.879887 737.574174 
L 1120.041225 739.496922 
L 1121.202563 739.782917 
L 1122.3639 739.782917 
L 1123.525238 735.601243 
L 1124.686575 738.583697 
L 1125.847913 739.278252 
L 1127.00925 739.278071 
L 1128.170588 738.715669 
L 1131.6546 738.715669 
L 1132.815938 739.472449 
L 1138.622625 739.438196 
L 1139.783963 739.619289 
L 1143.267975 739.619289 
L 1144.429313 740.065629 
L 1146.751988 740.065629 
L 1147.913325 739.513229 
L 1152.558675 739.597216 
L 1154.88135 740.262932 
L 1158.365363 740.262932 
L 1159.5267 740.386279 
L 1160.688038 740.386279 
L 1161.849375 739.874198 
L 1165.333388 739.874207 
L 1166.494725 740.039236 
L 1167.656062 739.654537 
L 1172.301412 739.654537 
L 1173.46275 740.175162 
L 1175.785425 740.175162 
L 1176.946762 739.977041 
L 1178.1081 739.977041 
L 1179.269438 739.715318 
L 1180.430775 739.715318 
L 1181.592112 739.861689 
L 1182.75345 739.861689 
L 1183.914788 740.546439 
L 1185.076125 740.553252 
L 1186.237462 740.151007 
L 1187.3988 740.144055 
L 1188.560138 739.975754 
L 1189.721475 739.27594 
L 1190.882812 740.123305 
L 1192.04415 740.123305 
L 1193.205488 740.380069 
L 1194.366825 740.279512 
L 1195.528163 740.321716 
L 1196.6895 739.946036 
L 1197.850838 739.864184 
L 1199.012175 740.06119 
L 1200.173513 740.425688 
L 1201.33485 740.261897 
L 1202.496188 739.94934 
L 1203.657525 740.25552 
L 1204.818863 740.25552 
L 1207.141538 740.455177 
L 1210.62555 740.44645 
L 1211.786888 738.446545 
L 1215.2709 738.446545 
L 1216.432238 740.215077 
L 1217.593575 740.215123 
L 1218.754913 734.132885 
L 1222.238925 734.135403 
L 1223.400263 739.093914 
L 1224.5616 738.872394 
L 1225.722938 738.872394 
L 1226.884275 739.731169 
L 1228.045613 739.731169 
L 1229.20695 740.528021 
L 1231.529625 740.528021 
L 1232.690963 740.249205 
L 1236.174975 740.249205 
L 1237.336313 740.679245 
L 1247.78835 740.64661 
L 1248.949688 740.450685 
L 1251.272363 740.450685 
L 1252.4337 739.967442 
L 1258.240388 739.878353 
L 1259.401725 740.232966 
L 1260.563063 740.232966 
L 1261.7244 740.63134 
L 1262.885738 740.233622 
L 1265.208413 740.037328 
L 1268.692425 739.99672 
L 1269.853763 740.458957 
L 1271.0151 739.914467 
L 1272.176438 740.335057 
L 1273.337775 739.77071 
L 1274.499113 740.808938 
L 1275.66045 740.484589 
L 1277.983125 740.511257 
L 1279.144463 740.82819 
L 1280.3058 740.700926 
L 1281.467138 740.273091 
L 1282.628475 739.501235 
L 1283.789813 740.353855 
L 1284.95115 740.95003 
L 1286.112488 740.674972 
L 1287.273825 740.929224 
L 1288.435163 740.632838 
L 1290.757838 740.72839 
L 1291.919175 740.698598 
L 1294.24185 739.687984 
L 1295.403188 740.948198 
L 1296.564525 740.948198 
L 1297.725863 741.202968 
L 1298.8872 741.014823 
L 1300.048538 740.038673 
L 1301.209875 740.897373 
L 1302.371213 741.170553 
L 1307.016563 741.079612 
L 1308.1779 741.35208 
L 1309.339238 741.35208 
L 1310.500575 741.11297 
L 1312.82325 741.133769 
L 1313.984588 741.309436 
L 1317.4686 741.32197 
L 1318.629938 741.117376 
L 1319.791275 741.117376 
L 1320.952613 740.896257 
L 1323.275288 740.846035 
L 1324.436625 741.273751 
L 1326.7593 741.184825 
L 1327.920638 741.333289 
L 1329.081975 741.333289 
L 1330.243313 741.033032 
L 1331.40465 741.033032 
L 1332.565988 741.1909 
L 1333.727325 740.968921 
L 1334.888663 741.077186 
L 1336.05 739.550201 
L 1336.05 739.550201 
" style="fill:none;stroke:#008000;stroke-dasharray:6.000000,6.000000;stroke-dashoffset:0.0;stroke-width:2.0;"/>
   </g>
   <g id="patch_3">
    <path d="M 174.7125 51.3 
L 1336.05 51.3 
" style="fill:none;stroke:#000000;stroke-linecap:square;stroke-linejoin:miter;"/>
   </g>
   <g id="patch_4">
    <path d="M 1336.05 747 
L 1336.05 51.3 
" style="fill:none;stroke:#000000;stroke-linecap:square;stroke-linejoin:miter;"/>
   </g>
   <g id="patch_5">
    <path d="M 174.7125 747 
L 1336.05 747 
" style="fill:none;stroke:#000000;stroke-linecap:square;stroke-linejoin:miter;"/>
   </g>
   <g id="patch_6">
    <path d="M 174.7125 747 
L 174.7125 51.3 
" style="fill:none;stroke:#000000;stroke-linecap:square;stroke-linejoin:miter;"/>
   </g>
   <g id="matplotlib.axis_1">
    <g id="xtick_1">
     <g id="line2d_3">
      <defs>
       <path d="M 0 0 
L 0 -4 
" id="mbdcb5182cd" style="stroke:#000000;stroke-width:0.5;"/>
      </defs>
      <g>
       <use style="stroke:#000000;stroke-width:0.5;" x="174.7125" xlink:href="#mbdcb5182cd" y="747.0"/>
      </g>
     </g>
     <g id="line2d_4">
      <defs>
       <path d="M 0 0 
L 0 4 
" id="m2014e45a9a" style="stroke:#000000;stroke-width:0.5;"/>
      </defs>
      <g>
       <use style="stroke:#000000;stroke-width:0.5;" x="174.7125" xlink:href="#m2014e45a9a" y="51.3"/>
      </g>
     </g>
     <g id="text_1">
      <!-- 0 -->
      <defs>
       <path d="M 31.78125 66.40625 
Q 24.171875 66.40625 20.328125 58.90625 
Q 16.5 51.421875 16.5 36.375 
Q 16.5 21.390625 20.328125 13.890625 
Q 24.171875 6.390625 31.78125 6.390625 
Q 39.453125 6.390625 43.28125 13.890625 
Q 47.125 21.390625 47.125 36.375 
Q 47.125 51.421875 43.28125 58.90625 
Q 39.453125 66.40625 31.78125 66.40625 
M 31.78125 74.21875 
Q 44.046875 74.21875 50.515625 64.515625 
Q 56.984375 54.828125 56.984375 36.375 
Q 56.984375 17.96875 50.515625 8.265625 
Q 44.046875 -1.421875 31.78125 -1.421875 
Q 19.53125 -1.421875 13.0625 8.265625 
Q 6.59375 17.96875 6.59375 36.375 
Q 6.59375 54.828125 13.0625 64.515625 
Q 19.53125 74.21875 31.78125 74.21875 
" id="BitstreamVeraSans-Roman-30"/>
      </defs>
      <g transform="translate(165.16875 773.7953125)scale(0.3 -0.3)">
       <use xlink:href="#BitstreamVeraSans-Roman-30"/>
      </g>
     </g>
    </g>
    <g id="xtick_2">
     <g id="line2d_5">
      <g>
       <use style="stroke:#000000;stroke-width:0.5;" x="406.98" xlink:href="#mbdcb5182cd" y="747.0"/>
      </g>
     </g>
     <g id="line2d_6">
      <g>
       <use style="stroke:#000000;stroke-width:0.5;" x="406.98" xlink:href="#m2014e45a9a" y="51.3"/>
      </g>
     </g>
     <g id="text_2">
      <!-- 20000 -->
      <defs>
       <path d="M 19.1875 8.296875 
L 53.609375 8.296875 
L 53.609375 0 
L 7.328125 0 
L 7.328125 8.296875 
Q 12.9375 14.109375 22.625 23.890625 
Q 32.328125 33.6875 34.8125 36.53125 
Q 39.546875 41.84375 41.421875 45.53125 
Q 43.3125 49.21875 43.3125 52.78125 
Q 43.3125 58.59375 39.234375 62.25 
Q 35.15625 65.921875 28.609375 65.921875 
Q 23.96875 65.921875 18.8125 64.3125 
Q 13.671875 62.703125 7.8125 59.421875 
L 7.8125 69.390625 
Q 13.765625 71.78125 18.9375 73 
Q 24.125 74.21875 28.421875 74.21875 
Q 39.75 74.21875 46.484375 68.546875 
Q 53.21875 62.890625 53.21875 53.421875 
Q 53.21875 48.921875 51.53125 44.890625 
Q 49.859375 40.875 45.40625 35.40625 
Q 44.1875 33.984375 37.640625 27.21875 
Q 31.109375 20.453125 19.1875 8.296875 
" id="BitstreamVeraSans-Roman-32"/>
      </defs>
      <g transform="translate(359.26125 773.7953125)scale(0.3 -0.3)">
       <use xlink:href="#BitstreamVeraSans-Roman-32"/>
       <use x="63.623046875" xlink:href="#BitstreamVeraSans-Roman-30"/>
       <use x="127.24609375" xlink:href="#BitstreamVeraSans-Roman-30"/>
       <use x="190.869140625" xlink:href="#BitstreamVeraSans-Roman-30"/>
       <use x="254.4921875" xlink:href="#BitstreamVeraSans-Roman-30"/>
      </g>
     </g>
    </g>
    <g id="xtick_3">
     <g id="line2d_7">
      <g>
       <use style="stroke:#000000;stroke-width:0.5;" x="639.2475" xlink:href="#mbdcb5182cd" y="747.0"/>
      </g>
     </g>
     <g id="line2d_8">
      <g>
       <use style="stroke:#000000;stroke-width:0.5;" x="639.2475" xlink:href="#m2014e45a9a" y="51.3"/>
      </g>
     </g>
     <g id="text_3">
      <!-- 40000 -->
      <defs>
       <path d="M 37.796875 64.3125 
L 12.890625 25.390625 
L 37.796875 25.390625 
z
M 35.203125 72.90625 
L 47.609375 72.90625 
L 47.609375 25.390625 
L 58.015625 25.390625 
L 58.015625 17.1875 
L 47.609375 17.1875 
L 47.609375 0 
L 37.796875 0 
L 37.796875 17.1875 
L 4.890625 17.1875 
L 4.890625 26.703125 
z
" id="BitstreamVeraSans-Roman-34"/>
      </defs>
      <g transform="translate(591.52875 773.7953125)scale(0.3 -0.3)">
       <use xlink:href="#BitstreamVeraSans-Roman-34"/>
       <use x="63.623046875" xlink:href="#BitstreamVeraSans-Roman-30"/>
       <use x="127.24609375" xlink:href="#BitstreamVeraSans-Roman-30"/>
       <use x="190.869140625" xlink:href="#BitstreamVeraSans-Roman-30"/>
       <use x="254.4921875" xlink:href="#BitstreamVeraSans-Roman-30"/>
      </g>
     </g>
    </g>
    <g id="xtick_4">
     <g id="line2d_9">
      <g>
       <use style="stroke:#000000;stroke-width:0.5;" x="871.515" xlink:href="#mbdcb5182cd" y="747.0"/>
      </g>
     </g>
     <g id="line2d_10">
      <g>
       <use style="stroke:#000000;stroke-width:0.5;" x="871.515" xlink:href="#m2014e45a9a" y="51.3"/>
      </g>
     </g>
     <g id="text_4">
      <!-- 60000 -->
      <defs>
       <path d="M 33.015625 40.375 
Q 26.375 40.375 22.484375 35.828125 
Q 18.609375 31.296875 18.609375 23.390625 
Q 18.609375 15.53125 22.484375 10.953125 
Q 26.375 6.390625 33.015625 6.390625 
Q 39.65625 6.390625 43.53125 10.953125 
Q 47.40625 15.53125 47.40625 23.390625 
Q 47.40625 31.296875 43.53125 35.828125 
Q 39.65625 40.375 33.015625 40.375 
M 52.59375 71.296875 
L 52.59375 62.3125 
Q 48.875 64.0625 45.09375 64.984375 
Q 41.3125 65.921875 37.59375 65.921875 
Q 27.828125 65.921875 22.671875 59.328125 
Q 17.53125 52.734375 16.796875 39.40625 
Q 19.671875 43.65625 24.015625 45.921875 
Q 28.375 48.1875 33.59375 48.1875 
Q 44.578125 48.1875 50.953125 41.515625 
Q 57.328125 34.859375 57.328125 23.390625 
Q 57.328125 12.15625 50.6875 5.359375 
Q 44.046875 -1.421875 33.015625 -1.421875 
Q 20.359375 -1.421875 13.671875 8.265625 
Q 6.984375 17.96875 6.984375 36.375 
Q 6.984375 53.65625 15.1875 63.9375 
Q 23.390625 74.21875 37.203125 74.21875 
Q 40.921875 74.21875 44.703125 73.484375 
Q 48.484375 72.75 52.59375 71.296875 
" id="BitstreamVeraSans-Roman-36"/>
      </defs>
      <g transform="translate(823.79625 773.7953125)scale(0.3 -0.3)">
       <use xlink:href="#BitstreamVeraSans-Roman-36"/>
       <use x="63.623046875" xlink:href="#BitstreamVeraSans-Roman-30"/>
       <use x="127.24609375" xlink:href="#BitstreamVeraSans-Roman-30"/>
       <use x="190.869140625" xlink:href="#BitstreamVeraSans-Roman-30"/>
       <use x="254.4921875" xlink:href="#BitstreamVeraSans-Roman-30"/>
      </g>
     </g>
    </g>
    <g id="xtick_5">
     <g id="line2d_11">
      <g>
       <use style="stroke:#000000;stroke-width:0.5;" x="1103.7825" xlink:href="#mbdcb5182cd" y="747.0"/>
      </g>
     </g>
     <g id="line2d_12">
      <g>
       <use style="stroke:#000000;stroke-width:0.5;" x="1103.7825" xlink:href="#m2014e45a9a" y="51.3"/>
      </g>
     </g>
     <g id="text_5">
      <!-- 80000 -->
      <defs>
       <path d="M 31.78125 34.625 
Q 24.75 34.625 20.71875 30.859375 
Q 16.703125 27.09375 16.703125 20.515625 
Q 16.703125 13.921875 20.71875 10.15625 
Q 24.75 6.390625 31.78125 6.390625 
Q 38.8125 6.390625 42.859375 10.171875 
Q 46.921875 13.96875 46.921875 20.515625 
Q 46.921875 27.09375 42.890625 30.859375 
Q 38.875 34.625 31.78125 34.625 
M 21.921875 38.8125 
Q 15.578125 40.375 12.03125 44.71875 
Q 8.5 49.078125 8.5 55.328125 
Q 8.5 64.0625 14.71875 69.140625 
Q 20.953125 74.21875 31.78125 74.21875 
Q 42.671875 74.21875 48.875 69.140625 
Q 55.078125 64.0625 55.078125 55.328125 
Q 55.078125 49.078125 51.53125 44.71875 
Q 48 40.375 41.703125 38.8125 
Q 48.828125 37.15625 52.796875 32.3125 
Q 56.78125 27.484375 56.78125 20.515625 
Q 56.78125 9.90625 50.3125 4.234375 
Q 43.84375 -1.421875 31.78125 -1.421875 
Q 19.734375 -1.421875 13.25 4.234375 
Q 6.78125 9.90625 6.78125 20.515625 
Q 6.78125 27.484375 10.78125 32.3125 
Q 14.796875 37.15625 21.921875 38.8125 
M 18.3125 54.390625 
Q 18.3125 48.734375 21.84375 45.5625 
Q 25.390625 42.390625 31.78125 42.390625 
Q 38.140625 42.390625 41.71875 45.5625 
Q 45.3125 48.734375 45.3125 54.390625 
Q 45.3125 60.0625 41.71875 63.234375 
Q 38.140625 66.40625 31.78125 66.40625 
Q 25.390625 66.40625 21.84375 63.234375 
Q 18.3125 60.0625 18.3125 54.390625 
" id="BitstreamVeraSans-Roman-38"/>
      </defs>
      <g transform="translate(1056.06375 773.7953125)scale(0.3 -0.3)">
       <use xlink:href="#BitstreamVeraSans-Roman-38"/>
       <use x="63.623046875" xlink:href="#BitstreamVeraSans-Roman-30"/>
       <use x="127.24609375" xlink:href="#BitstreamVeraSans-Roman-30"/>
       <use x="190.869140625" xlink:href="#BitstreamVeraSans-Roman-30"/>
       <use x="254.4921875" xlink:href="#BitstreamVeraSans-Roman-30"/>
      </g>
     </g>
    </g>
    <g id="xtick_6">
     <g id="line2d_13">
      <g>
       <use style="stroke:#000000;stroke-width:0.5;" x="1336.05" xlink:href="#mbdcb5182cd" y="747.0"/>
      </g>
     </g>
     <g id="line2d_14">
      <g>
       <use style="stroke:#000000;stroke-width:0.5;" x="1336.05" xlink:href="#m2014e45a9a" y="51.3"/>
      </g>
     </g>
     <g id="text_6">
      <!-- 100000 -->
      <defs>
       <path d="M 12.40625 8.296875 
L 28.515625 8.296875 
L 28.515625 63.921875 
L 10.984375 60.40625 
L 10.984375 69.390625 
L 28.421875 72.90625 
L 38.28125 72.90625 
L 38.28125 8.296875 
L 54.390625 8.296875 
L 54.390625 0 
L 12.40625 0 
z
" id="BitstreamVeraSans-Roman-31"/>
      </defs>
      <g transform="translate(1278.7875 773.7953125)scale(0.3 -0.3)">
       <use xlink:href="#BitstreamVeraSans-Roman-31"/>
       <use x="63.623046875" xlink:href="#BitstreamVeraSans-Roman-30"/>
       <use x="127.24609375" xlink:href="#BitstreamVeraSans-Roman-30"/>
       <use x="190.869140625" xlink:href="#BitstreamVeraSans-Roman-30"/>
       <use x="254.4921875" xlink:href="#BitstreamVeraSans-Roman-30"/>
       <use x="318.115234375" xlink:href="#BitstreamVeraSans-Roman-30"/>
      </g>
     </g>
    </g>
    <g id="text_7">
     <!-- iterations -->
     <defs>
      <path d="M 54.890625 33.015625 
L 54.890625 0 
L 45.90625 0 
L 45.90625 32.71875 
Q 45.90625 40.484375 42.875 44.328125 
Q 39.84375 48.1875 33.796875 48.1875 
Q 26.515625 48.1875 22.3125 43.546875 
Q 18.109375 38.921875 18.109375 30.90625 
L 18.109375 0 
L 9.078125 0 
L 9.078125 54.6875 
L 18.109375 54.6875 
L 18.109375 46.1875 
Q 21.34375 51.125 25.703125 53.5625 
Q 30.078125 56 35.796875 56 
Q 45.21875 56 50.046875 50.171875 
Q 54.890625 44.34375 54.890625 33.015625 
" id="BitstreamVeraSans-Roman-6e"/>
      <path d="M 34.28125 27.484375 
Q 23.390625 27.484375 19.1875 25 
Q 14.984375 22.515625 14.984375 16.5 
Q 14.984375 11.71875 18.140625 8.90625 
Q 21.296875 6.109375 26.703125 6.109375 
Q 34.1875 6.109375 38.703125 11.40625 
Q 43.21875 16.703125 43.21875 25.484375 
L 43.21875 27.484375 
z
M 52.203125 31.203125 
L 52.203125 0 
L 43.21875 0 
L 43.21875 8.296875 
Q 40.140625 3.328125 35.546875 0.953125 
Q 30.953125 -1.421875 24.3125 -1.421875 
Q 15.921875 -1.421875 10.953125 3.296875 
Q 6 8.015625 6 15.921875 
Q 6 25.140625 12.171875 29.828125 
Q 18.359375 34.515625 30.609375 34.515625 
L 43.21875 34.515625 
L 43.21875 35.40625 
Q 43.21875 41.609375 39.140625 45 
Q 35.0625 48.390625 27.6875 48.390625 
Q 23 48.390625 18.546875 47.265625 
Q 14.109375 46.140625 10.015625 43.890625 
L 10.015625 52.203125 
Q 14.9375 54.109375 19.578125 55.046875 
Q 24.21875 56 28.609375 56 
Q 40.484375 56 46.34375 49.84375 
Q 52.203125 43.703125 52.203125 31.203125 
" id="BitstreamVeraSans-Roman-61"/>
      <path d="M 30.609375 48.390625 
Q 23.390625 48.390625 19.1875 42.75 
Q 14.984375 37.109375 14.984375 27.296875 
Q 14.984375 17.484375 19.15625 11.84375 
Q 23.34375 6.203125 30.609375 6.203125 
Q 37.796875 6.203125 41.984375 11.859375 
Q 46.1875 17.53125 46.1875 27.296875 
Q 46.1875 37.015625 41.984375 42.703125 
Q 37.796875 48.390625 30.609375 48.390625 
M 30.609375 56 
Q 42.328125 56 49.015625 48.375 
Q 55.71875 40.765625 55.71875 27.296875 
Q 55.71875 13.875 49.015625 6.21875 
Q 42.328125 -1.421875 30.609375 -1.421875 
Q 18.84375 -1.421875 12.171875 6.21875 
Q 5.515625 13.875 5.515625 27.296875 
Q 5.515625 40.765625 12.171875 48.375 
Q 18.84375 56 30.609375 56 
" id="BitstreamVeraSans-Roman-6f"/>
      <path d="M 9.421875 54.6875 
L 18.40625 54.6875 
L 18.40625 0 
L 9.421875 0 
z
M 9.421875 75.984375 
L 18.40625 75.984375 
L 18.40625 64.59375 
L 9.421875 64.59375 
z
" id="BitstreamVeraSans-Roman-69"/>
      <path d="M 56.203125 29.59375 
L 56.203125 25.203125 
L 14.890625 25.203125 
Q 15.484375 15.921875 20.484375 11.0625 
Q 25.484375 6.203125 34.421875 6.203125 
Q 39.59375 6.203125 44.453125 7.46875 
Q 49.3125 8.734375 54.109375 11.28125 
L 54.109375 2.78125 
Q 49.265625 0.734375 44.1875 -0.34375 
Q 39.109375 -1.421875 33.890625 -1.421875 
Q 20.796875 -1.421875 13.15625 6.1875 
Q 5.515625 13.8125 5.515625 26.8125 
Q 5.515625 40.234375 12.765625 48.109375 
Q 20.015625 56 32.328125 56 
Q 43.359375 56 49.78125 48.890625 
Q 56.203125 41.796875 56.203125 29.59375 
M 47.21875 32.234375 
Q 47.125 39.59375 43.09375 43.984375 
Q 39.0625 48.390625 32.421875 48.390625 
Q 24.90625 48.390625 20.390625 44.140625 
Q 15.875 39.890625 15.1875 32.171875 
z
" id="BitstreamVeraSans-Roman-65"/>
      <path d="M 18.3125 70.21875 
L 18.3125 54.6875 
L 36.8125 54.6875 
L 36.8125 47.703125 
L 18.3125 47.703125 
L 18.3125 18.015625 
Q 18.3125 11.328125 20.140625 9.421875 
Q 21.96875 7.515625 27.59375 7.515625 
L 36.8125 7.515625 
L 36.8125 0 
L 27.59375 0 
Q 17.1875 0 13.234375 3.875 
Q 9.28125 7.765625 9.28125 18.015625 
L 9.28125 47.703125 
L 2.6875 47.703125 
L 2.6875 54.6875 
L 9.28125 54.6875 
L 9.28125 70.21875 
z
" id="BitstreamVeraSans-Roman-74"/>
      <path d="M 41.109375 46.296875 
Q 39.59375 47.171875 37.8125 47.578125 
Q 36.03125 48 33.890625 48 
Q 26.265625 48 22.1875 43.046875 
Q 18.109375 38.09375 18.109375 28.8125 
L 18.109375 0 
L 9.078125 0 
L 9.078125 54.6875 
L 18.109375 54.6875 
L 18.109375 46.1875 
Q 20.953125 51.171875 25.484375 53.578125 
Q 30.03125 56 36.53125 56 
Q 37.453125 56 38.578125 55.875 
Q 39.703125 55.765625 41.0625 55.515625 
z
" id="BitstreamVeraSans-Roman-72"/>
      <path d="M 44.28125 53.078125 
L 44.28125 44.578125 
Q 40.484375 46.53125 36.375 47.5 
Q 32.28125 48.484375 27.875 48.484375 
Q 21.1875 48.484375 17.84375 46.4375 
Q 14.5 44.390625 14.5 40.28125 
Q 14.5 37.15625 16.890625 35.375 
Q 19.28125 33.59375 26.515625 31.984375 
L 29.59375 31.296875 
Q 39.15625 29.25 43.1875 25.515625 
Q 47.21875 21.78125 47.21875 15.09375 
Q 47.21875 7.46875 41.1875 3.015625 
Q 35.15625 -1.421875 24.609375 -1.421875 
Q 20.21875 -1.421875 15.453125 -0.5625 
Q 10.6875 0.296875 5.421875 2 
L 5.421875 11.28125 
Q 10.40625 8.6875 15.234375 7.390625 
Q 20.0625 6.109375 24.8125 6.109375 
Q 31.15625 6.109375 34.5625 8.28125 
Q 37.984375 10.453125 37.984375 14.40625 
Q 37.984375 18.0625 35.515625 20.015625 
Q 33.0625 21.96875 24.703125 23.78125 
L 21.578125 24.515625 
Q 13.234375 26.265625 9.515625 29.90625 
Q 5.8125 33.546875 5.8125 39.890625 
Q 5.8125 47.609375 11.28125 51.796875 
Q 16.75 56 26.8125 56 
Q 31.78125 56 36.171875 55.265625 
Q 40.578125 54.546875 44.28125 53.078125 
" id="BitstreamVeraSans-Roman-73"/>
     </defs>
     <g transform="translate(684.19921875 807.8296875)scale(0.3 -0.3)">
      <use xlink:href="#BitstreamVeraSans-Roman-69"/>
      <use x="27.783203125" xlink:href="#BitstreamVeraSans-Roman-74"/>
      <use x="66.9921875" xlink:href="#BitstreamVeraSans-Roman-65"/>
      <use x="128.515625" xlink:href="#BitstreamVeraSans-Roman-72"/>
      <use x="169.62890625" xlink:href="#BitstreamVeraSans-Roman-61"/>
      <use x="230.908203125" xlink:href="#BitstreamVeraSans-Roman-74"/>
      <use x="270.1171875" xlink:href="#BitstreamVeraSans-Roman-69"/>
      <use x="297.900390625" xlink:href="#BitstreamVeraSans-Roman-6f"/>
      <use x="359.08203125" xlink:href="#BitstreamVeraSans-Roman-6e"/>
      <use x="422.4609375" xlink:href="#BitstreamVeraSans-Roman-73"/>
     </g>
    </g>
   </g>
   <g id="matplotlib.axis_2">
    <g id="ytick_1">
     <g id="line2d_15">
      <defs>
       <path d="M 0 0 
L 4 0 
" id="m124e174478" style="stroke:#000000;stroke-width:0.5;"/>
      </defs>
      <g>
       <use style="stroke:#000000;stroke-width:0.5;" x="174.7125" xlink:href="#m124e174478" y="747.0"/>
      </g>
     </g>
     <g id="line2d_16">
      <defs>
       <path d="M 0 0 
L -4 0 
" id="mb18aa6e515" style="stroke:#000000;stroke-width:0.5;"/>
      </defs>
      <g>
       <use style="stroke:#000000;stroke-width:0.5;" x="1336.05" xlink:href="#mb18aa6e515" y="747.0"/>
      </g>
     </g>
     <g id="text_8">
      <!-- 0 -->
      <g transform="translate(151.625 755.278125)scale(0.3 -0.3)">
       <use xlink:href="#BitstreamVeraSans-Roman-30"/>
      </g>
     </g>
    </g>
    <g id="ytick_2">
     <g id="line2d_17">
      <g>
       <use style="stroke:#000000;stroke-width:0.5;" x="174.7125" xlink:href="#m124e174478" y="631.05"/>
      </g>
     </g>
     <g id="line2d_18">
      <g>
       <use style="stroke:#000000;stroke-width:0.5;" x="1336.05" xlink:href="#mb18aa6e515" y="631.05"/>
      </g>
     </g>
     <g id="text_9">
      <!-- 500 -->
      <defs>
       <path d="M 10.796875 72.90625 
L 49.515625 72.90625 
L 49.515625 64.59375 
L 19.828125 64.59375 
L 19.828125 46.734375 
Q 21.96875 47.46875 24.109375 47.828125 
Q 26.265625 48.1875 28.421875 48.1875 
Q 40.625 48.1875 47.75 41.5 
Q 54.890625 34.8125 54.890625 23.390625 
Q 54.890625 11.625 47.5625 5.09375 
Q 40.234375 -1.421875 26.90625 -1.421875 
Q 22.3125 -1.421875 17.546875 -0.640625 
Q 12.796875 0.140625 7.71875 1.703125 
L 7.71875 11.625 
Q 12.109375 9.234375 16.796875 8.0625 
Q 21.484375 6.890625 26.703125 6.890625 
Q 35.15625 6.890625 40.078125 11.328125 
Q 45.015625 15.765625 45.015625 23.390625 
Q 45.015625 31 40.078125 35.4375 
Q 35.15625 39.890625 26.703125 39.890625 
Q 22.75 39.890625 18.8125 39.015625 
Q 14.890625 38.140625 10.796875 36.28125 
z
" id="BitstreamVeraSans-Roman-35"/>
      </defs>
      <g transform="translate(113.45 639.328125)scale(0.3 -0.3)">
       <use xlink:href="#BitstreamVeraSans-Roman-35"/>
       <use x="63.623046875" xlink:href="#BitstreamVeraSans-Roman-30"/>
       <use x="127.24609375" xlink:href="#BitstreamVeraSans-Roman-30"/>
      </g>
     </g>
    </g>
    <g id="ytick_3">
     <g id="line2d_19">
      <g>
       <use style="stroke:#000000;stroke-width:0.5;" x="174.7125" xlink:href="#m124e174478" y="515.1"/>
      </g>
     </g>
     <g id="line2d_20">
      <g>
       <use style="stroke:#000000;stroke-width:0.5;" x="1336.05" xlink:href="#mb18aa6e515" y="515.1"/>
      </g>
     </g>
     <g id="text_10">
      <!-- 1000 -->
      <g transform="translate(94.3625 523.378125)scale(0.3 -0.3)">
       <use xlink:href="#BitstreamVeraSans-Roman-31"/>
       <use x="63.623046875" xlink:href="#BitstreamVeraSans-Roman-30"/>
       <use x="127.24609375" xlink:href="#BitstreamVeraSans-Roman-30"/>
       <use x="190.869140625" xlink:href="#BitstreamVeraSans-Roman-30"/>
      </g>
     </g>
    </g>
    <g id="ytick_4">
     <g id="line2d_21">
      <g>
       <use style="stroke:#000000;stroke-width:0.5;" x="174.7125" xlink:href="#m124e174478" y="399.15"/>
      </g>
     </g>
     <g id="line2d_22">
      <g>
       <use style="stroke:#000000;stroke-width:0.5;" x="1336.05" xlink:href="#mb18aa6e515" y="399.15"/>
      </g>
     </g>
     <g id="text_11">
      <!-- 1500 -->
      <g transform="translate(94.3625 407.428125)scale(0.3 -0.3)">
       <use xlink:href="#BitstreamVeraSans-Roman-31"/>
       <use x="63.623046875" xlink:href="#BitstreamVeraSans-Roman-35"/>
       <use x="127.24609375" xlink:href="#BitstreamVeraSans-Roman-30"/>
       <use x="190.869140625" xlink:href="#BitstreamVeraSans-Roman-30"/>
      </g>
     </g>
    </g>
    <g id="ytick_5">
     <g id="line2d_23">
      <g>
       <use style="stroke:#000000;stroke-width:0.5;" x="174.7125" xlink:href="#m124e174478" y="283.2"/>
      </g>
     </g>
     <g id="line2d_24">
      <g>
       <use style="stroke:#000000;stroke-width:0.5;" x="1336.05" xlink:href="#mb18aa6e515" y="283.2"/>
      </g>
     </g>
     <g id="text_12">
      <!-- 2000 -->
      <g transform="translate(94.3625 291.478125)scale(0.3 -0.3)">
       <use xlink:href="#BitstreamVeraSans-Roman-32"/>
       <use x="63.623046875" xlink:href="#BitstreamVeraSans-Roman-30"/>
       <use x="127.24609375" xlink:href="#BitstreamVeraSans-Roman-30"/>
       <use x="190.869140625" xlink:href="#BitstreamVeraSans-Roman-30"/>
      </g>
     </g>
    </g>
    <g id="ytick_6">
     <g id="line2d_25">
      <g>
       <use style="stroke:#000000;stroke-width:0.5;" x="174.7125" xlink:href="#m124e174478" y="167.25"/>
      </g>
     </g>
     <g id="line2d_26">
      <g>
       <use style="stroke:#000000;stroke-width:0.5;" x="1336.05" xlink:href="#mb18aa6e515" y="167.25"/>
      </g>
     </g>
     <g id="text_13">
      <!-- 2500 -->
      <g transform="translate(94.3625 175.528125)scale(0.3 -0.3)">
       <use xlink:href="#BitstreamVeraSans-Roman-32"/>
       <use x="63.623046875" xlink:href="#BitstreamVeraSans-Roman-35"/>
       <use x="127.24609375" xlink:href="#BitstreamVeraSans-Roman-30"/>
       <use x="190.869140625" xlink:href="#BitstreamVeraSans-Roman-30"/>
      </g>
     </g>
    </g>
    <g id="ytick_7">
     <g id="line2d_27">
      <g>
       <use style="stroke:#000000;stroke-width:0.5;" x="174.7125" xlink:href="#m124e174478" y="51.3"/>
      </g>
     </g>
     <g id="line2d_28">
      <g>
       <use style="stroke:#000000;stroke-width:0.5;" x="1336.05" xlink:href="#mb18aa6e515" y="51.3"/>
      </g>
     </g>
     <g id="text_14">
      <!-- 3000 -->
      <defs>
       <path d="M 40.578125 39.3125 
Q 47.65625 37.796875 51.625 33 
Q 55.609375 28.21875 55.609375 21.1875 
Q 55.609375 10.40625 48.1875 4.484375 
Q 40.765625 -1.421875 27.09375 -1.421875 
Q 22.515625 -1.421875 17.65625 -0.515625 
Q 12.796875 0.390625 7.625 2.203125 
L 7.625 11.71875 
Q 11.71875 9.328125 16.59375 8.109375 
Q 21.484375 6.890625 26.8125 6.890625 
Q 36.078125 6.890625 40.9375 10.546875 
Q 45.796875 14.203125 45.796875 21.1875 
Q 45.796875 27.640625 41.28125 31.265625 
Q 36.765625 34.90625 28.71875 34.90625 
L 20.21875 34.90625 
L 20.21875 43.015625 
L 29.109375 43.015625 
Q 36.375 43.015625 40.234375 45.921875 
Q 44.09375 48.828125 44.09375 54.296875 
Q 44.09375 59.90625 40.109375 62.90625 
Q 36.140625 65.921875 28.71875 65.921875 
Q 24.65625 65.921875 20.015625 65.03125 
Q 15.375 64.15625 9.8125 62.3125 
L 9.8125 71.09375 
Q 15.4375 72.65625 20.34375 73.4375 
Q 25.25 74.21875 29.59375 74.21875 
Q 40.828125 74.21875 47.359375 69.109375 
Q 53.90625 64.015625 53.90625 55.328125 
Q 53.90625 49.265625 50.4375 45.09375 
Q 46.96875 40.921875 40.578125 39.3125 
" id="BitstreamVeraSans-Roman-33"/>
      </defs>
      <g transform="translate(94.3625 59.578125)scale(0.3 -0.3)">
       <use xlink:href="#BitstreamVeraSans-Roman-33"/>
       <use x="63.623046875" xlink:href="#BitstreamVeraSans-Roman-30"/>
       <use x="127.24609375" xlink:href="#BitstreamVeraSans-Roman-30"/>
       <use x="190.869140625" xlink:href="#BitstreamVeraSans-Roman-30"/>
      </g>
     </g>
    </g>
    <g id="text_15">
     <!-- log(loss) -->
     <defs>
      <path d="M 8.015625 75.875 
L 15.828125 75.875 
Q 23.140625 64.359375 26.78125 53.3125 
Q 30.421875 42.28125 30.421875 31.390625 
Q 30.421875 20.453125 26.78125 9.375 
Q 23.140625 -1.703125 15.828125 -13.1875 
L 8.015625 -13.1875 
Q 14.5 -2 17.703125 9.0625 
Q 20.90625 20.125 20.90625 31.390625 
Q 20.90625 42.671875 17.703125 53.65625 
Q 14.5 64.65625 8.015625 75.875 
" id="BitstreamVeraSans-Roman-29"/>
      <path d="M 31 75.875 
Q 24.46875 64.65625 21.28125 53.65625 
Q 18.109375 42.671875 18.109375 31.390625 
Q 18.109375 20.125 21.3125 9.0625 
Q 24.515625 -2 31 -13.1875 
L 23.1875 -13.1875 
Q 15.875 -1.703125 12.234375 9.375 
Q 8.59375 20.453125 8.59375 31.390625 
Q 8.59375 42.28125 12.203125 53.3125 
Q 15.828125 64.359375 23.1875 75.875 
z
" id="BitstreamVeraSans-Roman-28"/>
      <path d="M 45.40625 27.984375 
Q 45.40625 37.75 41.375 43.109375 
Q 37.359375 48.484375 30.078125 48.484375 
Q 22.859375 48.484375 18.828125 43.109375 
Q 14.796875 37.75 14.796875 27.984375 
Q 14.796875 18.265625 18.828125 12.890625 
Q 22.859375 7.515625 30.078125 7.515625 
Q 37.359375 7.515625 41.375 12.890625 
Q 45.40625 18.265625 45.40625 27.984375 
M 54.390625 6.78125 
Q 54.390625 -7.171875 48.1875 -13.984375 
Q 42 -20.796875 29.203125 -20.796875 
Q 24.46875 -20.796875 20.265625 -20.09375 
Q 16.0625 -19.390625 12.109375 -17.921875 
L 12.109375 -9.1875 
Q 16.0625 -11.328125 19.921875 -12.34375 
Q 23.78125 -13.375 27.78125 -13.375 
Q 36.625 -13.375 41.015625 -8.765625 
Q 45.40625 -4.15625 45.40625 5.171875 
L 45.40625 9.625 
Q 42.625 4.78125 38.28125 2.390625 
Q 33.9375 0 27.875 0 
Q 17.828125 0 11.671875 7.65625 
Q 5.515625 15.328125 5.515625 27.984375 
Q 5.515625 40.671875 11.671875 48.328125 
Q 17.828125 56 27.875 56 
Q 33.9375 56 38.28125 53.609375 
Q 42.625 51.21875 45.40625 46.390625 
L 45.40625 54.6875 
L 54.390625 54.6875 
z
" id="BitstreamVeraSans-Roman-67"/>
      <path d="M 9.421875 75.984375 
L 18.40625 75.984375 
L 18.40625 0 
L 9.421875 0 
z
" id="BitstreamVeraSans-Roman-6c"/>
     </defs>
     <g transform="translate(83.1234375 462.69609375)rotate(-90.0)scale(0.3 -0.3)">
      <use xlink:href="#BitstreamVeraSans-Roman-6c"/>
      <use x="27.783203125" xlink:href="#BitstreamVeraSans-Roman-6f"/>
      <use x="88.96484375" xlink:href="#BitstreamVeraSans-Roman-67"/>
      <use x="152.44140625" xlink:href="#BitstreamVeraSans-Roman-28"/>
      <use x="191.455078125" xlink:href="#BitstreamVeraSans-Roman-6c"/>
      <use x="219.23828125" xlink:href="#BitstreamVeraSans-Roman-6f"/>
      <use x="280.419921875" xlink:href="#BitstreamVeraSans-Roman-73"/>
      <use x="332.51953125" xlink:href="#BitstreamVeraSans-Roman-73"/>
      <use x="384.619140625" xlink:href="#BitstreamVeraSans-Roman-29"/>
     </g>
    </g>
   </g>
   <g id="legend_1">
    <g id="patch_7">
     <path d="M 843.876562 163.36875 
L 1321.05 163.36875 
L 1321.05 66.3 
L 843.876562 66.3 
z
" style="fill:#ffffff;stroke:#000000;stroke-linejoin:miter;"/>
    </g>
    <g id="line2d_29">
     <path d="M 864.876562 90.595312 
L 906.876562 90.595312 
" style="fill:none;stroke:#0000ff;stroke-linecap:square;stroke-width:2.0;"/>
    </g>
    <g id="line2d_30"/>
    <g id="text_16">
     <!-- random: step=0.064063 -->
     <defs>
      <path id="BitstreamVeraSans-Roman-20"/>
      <path d="M 52 44.1875 
Q 55.375 50.25 60.0625 53.125 
Q 64.75 56 71.09375 56 
Q 79.640625 56 84.28125 50.015625 
Q 88.921875 44.046875 88.921875 33.015625 
L 88.921875 0 
L 79.890625 0 
L 79.890625 32.71875 
Q 79.890625 40.578125 77.09375 44.375 
Q 74.3125 48.1875 68.609375 48.1875 
Q 61.625 48.1875 57.5625 43.546875 
Q 53.515625 38.921875 53.515625 30.90625 
L 53.515625 0 
L 44.484375 0 
L 44.484375 32.71875 
Q 44.484375 40.625 41.703125 44.40625 
Q 38.921875 48.1875 33.109375 48.1875 
Q 26.21875 48.1875 22.15625 43.53125 
Q 18.109375 38.875 18.109375 30.90625 
L 18.109375 0 
L 9.078125 0 
L 9.078125 54.6875 
L 18.109375 54.6875 
L 18.109375 46.1875 
Q 21.1875 51.21875 25.484375 53.609375 
Q 29.78125 56 35.6875 56 
Q 41.65625 56 45.828125 52.96875 
Q 50 49.953125 52 44.1875 
" id="BitstreamVeraSans-Roman-6d"/>
      <path d="M 11.71875 12.40625 
L 22.015625 12.40625 
L 22.015625 0 
L 11.71875 0 
z
M 11.71875 51.703125 
L 22.015625 51.703125 
L 22.015625 39.3125 
L 11.71875 39.3125 
z
" id="BitstreamVeraSans-Roman-3a"/>
      <path d="M 10.6875 12.40625 
L 21 12.40625 
L 21 0 
L 10.6875 0 
z
" id="BitstreamVeraSans-Roman-2e"/>
      <path d="M 10.59375 45.40625 
L 73.1875 45.40625 
L 73.1875 37.203125 
L 10.59375 37.203125 
z
M 10.59375 25.484375 
L 73.1875 25.484375 
L 73.1875 17.1875 
L 10.59375 17.1875 
z
" id="BitstreamVeraSans-Roman-3d"/>
      <path d="M 45.40625 46.390625 
L 45.40625 75.984375 
L 54.390625 75.984375 
L 54.390625 0 
L 45.40625 0 
L 45.40625 8.203125 
Q 42.578125 3.328125 38.25 0.953125 
Q 33.9375 -1.421875 27.875 -1.421875 
Q 17.96875 -1.421875 11.734375 6.484375 
Q 5.515625 14.40625 5.515625 27.296875 
Q 5.515625 40.1875 11.734375 48.09375 
Q 17.96875 56 27.875 56 
Q 33.9375 56 38.25 53.625 
Q 42.578125 51.265625 45.40625 46.390625 
M 14.796875 27.296875 
Q 14.796875 17.390625 18.875 11.75 
Q 22.953125 6.109375 30.078125 6.109375 
Q 37.203125 6.109375 41.296875 11.75 
Q 45.40625 17.390625 45.40625 27.296875 
Q 45.40625 37.203125 41.296875 42.84375 
Q 37.203125 48.484375 30.078125 48.484375 
Q 22.953125 48.484375 18.875 42.84375 
Q 14.796875 37.203125 14.796875 27.296875 
" id="BitstreamVeraSans-Roman-64"/>
      <path d="M 18.109375 8.203125 
L 18.109375 -20.796875 
L 9.078125 -20.796875 
L 9.078125 54.6875 
L 18.109375 54.6875 
L 18.109375 46.390625 
Q 20.953125 51.265625 25.265625 53.625 
Q 29.59375 56 35.59375 56 
Q 45.5625 56 51.78125 48.09375 
Q 58.015625 40.1875 58.015625 27.296875 
Q 58.015625 14.40625 51.78125 6.484375 
Q 45.5625 -1.421875 35.59375 -1.421875 
Q 29.59375 -1.421875 25.265625 0.953125 
Q 20.953125 3.328125 18.109375 8.203125 
M 48.6875 27.296875 
Q 48.6875 37.203125 44.609375 42.84375 
Q 40.53125 48.484375 33.40625 48.484375 
Q 26.265625 48.484375 22.1875 42.84375 
Q 18.109375 37.203125 18.109375 27.296875 
Q 18.109375 17.390625 22.1875 11.75 
Q 26.265625 6.109375 33.40625 6.109375 
Q 40.53125 6.109375 44.609375 11.75 
Q 48.6875 17.390625 48.6875 27.296875 
" id="BitstreamVeraSans-Roman-70"/>
     </defs>
     <g transform="translate(939.8765625 101.0953125)scale(0.3 -0.3)">
      <use xlink:href="#BitstreamVeraSans-Roman-72"/>
      <use x="41.11328125" xlink:href="#BitstreamVeraSans-Roman-61"/>
      <use x="102.392578125" xlink:href="#BitstreamVeraSans-Roman-6e"/>
      <use x="165.771484375" xlink:href="#BitstreamVeraSans-Roman-64"/>
      <use x="229.248046875" xlink:href="#BitstreamVeraSans-Roman-6f"/>
      <use x="290.4296875" xlink:href="#BitstreamVeraSans-Roman-6d"/>
      <use x="387.841796875" xlink:href="#BitstreamVeraSans-Roman-3a"/>
      <use x="421.533203125" xlink:href="#BitstreamVeraSans-Roman-20"/>
      <use x="453.3203125" xlink:href="#BitstreamVeraSans-Roman-73"/>
      <use x="505.419921875" xlink:href="#BitstreamVeraSans-Roman-74"/>
      <use x="544.62890625" xlink:href="#BitstreamVeraSans-Roman-65"/>
      <use x="606.15234375" xlink:href="#BitstreamVeraSans-Roman-70"/>
      <use x="669.62890625" xlink:href="#BitstreamVeraSans-Roman-3d"/>
      <use x="753.41796875" xlink:href="#BitstreamVeraSans-Roman-30"/>
      <use x="817.041015625" xlink:href="#BitstreamVeraSans-Roman-2e"/>
      <use x="848.828125" xlink:href="#BitstreamVeraSans-Roman-30"/>
      <use x="912.451171875" xlink:href="#BitstreamVeraSans-Roman-36"/>
      <use x="976.07421875" xlink:href="#BitstreamVeraSans-Roman-34"/>
      <use x="1039.69726562" xlink:href="#BitstreamVeraSans-Roman-30"/>
      <use x="1103.3203125" xlink:href="#BitstreamVeraSans-Roman-36"/>
      <use x="1166.94335938" xlink:href="#BitstreamVeraSans-Roman-33"/>
     </g>
    </g>
    <g id="line2d_31">
     <path d="M 864.876562 134.629687 
L 906.876562 134.629687 
" style="fill:none;stroke:#008000;stroke-dasharray:6.000000,6.000000;stroke-dashoffset:0.0;stroke-width:2.0;"/>
    </g>
    <g id="line2d_32"/>
    <g id="text_17">
     <!-- corr: step=0.064063 -->
     <defs>
      <path d="M 48.78125 52.59375 
L 48.78125 44.1875 
Q 44.96875 46.296875 41.140625 47.34375 
Q 37.3125 48.390625 33.40625 48.390625 
Q 24.65625 48.390625 19.8125 42.84375 
Q 14.984375 37.3125 14.984375 27.296875 
Q 14.984375 17.28125 19.8125 11.734375 
Q 24.65625 6.203125 33.40625 6.203125 
Q 37.3125 6.203125 41.140625 7.25 
Q 44.96875 8.296875 48.78125 10.40625 
L 48.78125 2.09375 
Q 45.015625 0.34375 40.984375 -0.53125 
Q 36.96875 -1.421875 32.421875 -1.421875 
Q 20.0625 -1.421875 12.78125 6.34375 
Q 5.515625 14.109375 5.515625 27.296875 
Q 5.515625 40.671875 12.859375 48.328125 
Q 20.21875 56 33.015625 56 
Q 37.15625 56 41.109375 55.140625 
Q 45.0625 54.296875 48.78125 52.59375 
" id="BitstreamVeraSans-Roman-63"/>
     </defs>
     <g transform="translate(939.8765625 145.1296875)scale(0.3 -0.3)">
      <use xlink:href="#BitstreamVeraSans-Roman-63"/>
      <use x="54.98046875" xlink:href="#BitstreamVeraSans-Roman-6f"/>
      <use x="116.162109375" xlink:href="#BitstreamVeraSans-Roman-72"/>
      <use x="157.259765625" xlink:href="#BitstreamVeraSans-Roman-72"/>
      <use x="198.357421875" xlink:href="#BitstreamVeraSans-Roman-3a"/>
      <use x="232.048828125" xlink:href="#BitstreamVeraSans-Roman-20"/>
      <use x="263.8359375" xlink:href="#BitstreamVeraSans-Roman-73"/>
      <use x="315.935546875" xlink:href="#BitstreamVeraSans-Roman-74"/>
      <use x="355.14453125" xlink:href="#BitstreamVeraSans-Roman-65"/>
      <use x="416.66796875" xlink:href="#BitstreamVeraSans-Roman-70"/>
      <use x="480.14453125" xlink:href="#BitstreamVeraSans-Roman-3d"/>
      <use x="563.93359375" xlink:href="#BitstreamVeraSans-Roman-30"/>
      <use x="627.556640625" xlink:href="#BitstreamVeraSans-Roman-2e"/>
      <use x="659.34375" xlink:href="#BitstreamVeraSans-Roman-30"/>
      <use x="722.966796875" xlink:href="#BitstreamVeraSans-Roman-36"/>
      <use x="786.58984375" xlink:href="#BitstreamVeraSans-Roman-34"/>
      <use x="850.212890625" xlink:href="#BitstreamVeraSans-Roman-30"/>
      <use x="913.8359375" xlink:href="#BitstreamVeraSans-Roman-36"/>
      <use x="977.458984375" xlink:href="#BitstreamVeraSans-Roman-33"/>
     </g>
    </g>
   </g>
  </g>
 </g>
 <defs>
  <clipPath id="p0afd8b6109">
   <rect height="695.7" width="1161.3375" x="174.7125" y="51.3"/>
  </clipPath>
 </defs>
</svg>
