<?xml version="1.0" encoding="utf-8" standalone="no"?>
<!DOCTYPE svg PUBLIC "-//W3C//DTD SVG 1.1//EN"
  "http://www.w3.org/Graphics/SVG/1.1/DTD/svg11.dtd">
<!-- Created with matplotlib (http://matplotlib.org/) -->
<svg height="864pt" version="1.1" viewBox="0 0 1440 864" width="1440pt" xmlns="http://www.w3.org/2000/svg" xmlns:xlink="http://www.w3.org/1999/xlink">
 <defs>
  <style type="text/css">
*{stroke-linecap:butt;stroke-linejoin:round;stroke-miterlimit:100000;}
  </style>
 </defs>
 <g id="figure_1">
  <g id="patch_1">
   <path d="M 0 864 
L 1440 864 
L 1440 0 
L 0 0 
z
" style="fill:#ffffff;"/>
  </g>
  <g id="axes_1">
   <g id="patch_2">
    <path d="M 174.7125 747 
L 1336.05 747 
L 1336.05 51.3 
L 174.7125 51.3 
z
" style="fill:#ffffff;"/>
   </g>
   <g id="line2d_1">
    <path clip-path="url(#p11e39bcece)" d="M 175.873838 222.694275 
L 177.035175 415.513328 
L 179.35785 353.303138 
L 180.519188 353.303138 
L 181.680525 440.083133 
L 182.841862 440.083133 
L 184.0032 419.806956 
L 185.164537 419.806956 
L 186.325875 362.098873 
L 187.487212 449.628601 
L 188.64855 449.628601 
L 189.809888 232.862858 
L 190.971225 232.862858 
L 192.132563 410.46672 
L 193.2939 405.668941 
L 194.455238 495.359976 
L 195.616575 543.183484 
L 196.777913 543.183484 
L 197.93925 319.784776 
L 199.100587 535.821633 
L 200.261925 549.266917 
L 201.423262 575.697232 
L 202.5846 575.697232 
L 203.745937 516.568971 
L 204.907275 516.568971 
L 206.068613 545.221723 
L 207.22995 545.221723 
L 208.391288 526.811785 
L 209.552625 526.811785 
L 210.713962 538.47872 
L 211.8753 538.47872 
L 213.036637 354.545194 
L 214.197975 354.545194 
L 215.359312 552.472981 
L 216.52065 552.472981 
L 217.681987 548.0676 
L 218.843325 548.0676 
L 220.004662 539.209066 
L 221.166 539.209066 
L 222.327337 556.115017 
L 223.488675 556.115017 
L 224.650013 550.852394 
L 225.81135 550.852394 
L 226.972688 571.73267 
L 228.134025 571.73267 
L 229.295362 594.136228 
L 230.4567 594.136228 
L 231.618037 605.014819 
L 232.779375 605.014819 
L 233.940712 603.25006 
L 235.10205 603.25006 
L 236.263387 580.296389 
L 237.424725 580.296389 
L 238.586062 591.717255 
L 239.7474 591.717255 
L 240.908737 580.133688 
L 242.070075 580.133688 
L 243.231412 559.119328 
L 244.39275 559.119328 
L 245.554087 596.293964 
L 246.715425 596.293964 
L 247.876762 521.845136 
L 249.0381 521.845136 
L 250.199437 594.980204 
L 251.360775 594.980204 
L 252.522112 598.067373 
L 253.68345 541.845955 
L 254.844787 541.845955 
L 256.006125 594.401382 
L 257.167462 594.401382 
L 258.3288 575.012455 
L 259.490138 575.012455 
L 260.651475 609.766264 
L 261.812812 609.766264 
L 262.97415 598.258412 
L 264.135487 598.258412 
L 265.296825 575.379274 
L 266.458162 575.379274 
L 267.6195 570.814555 
L 268.780837 569.809918 
L 269.942175 575.995224 
L 271.103512 575.995224 
L 272.26485 587.396843 
L 273.426187 587.396843 
L 274.587525 627.654984 
L 275.748862 612.638369 
L 276.9102 621.729243 
L 278.071537 586.3737 
L 279.232875 586.3737 
L 280.394212 625.174953 
L 281.55555 637.066506 
L 282.716887 637.066506 
L 283.878225 617.289889 
L 285.039562 591.794872 
L 286.2009 591.794872 
L 287.362237 622.44011 
L 288.523575 622.44011 
L 289.684912 589.93355 
L 290.84625 589.93355 
L 292.007587 627.460768 
L 293.168925 627.460768 
L 294.330263 619.082035 
L 295.4916 619.082035 
L 296.652938 626.088407 
L 297.814275 626.088407 
L 298.975612 572.280998 
L 300.13695 572.280998 
L 301.298287 631.948868 
L 302.459625 631.948868 
L 303.620962 623.051375 
L 304.7823 623.051375 
L 305.943637 609.058065 
L 307.104975 614.780661 
L 308.266312 614.769066 
L 309.42765 640.228556 
L 310.588987 640.228556 
L 311.750325 615.134332 
L 312.911662 615.134332 
L 314.073 634.401883 
L 315.234337 634.401883 
L 316.395675 637.861715 
L 317.557012 604.077178 
L 318.71835 604.077178 
L 319.879687 614.93084 
L 321.041025 614.93084 
L 322.202362 620.229987 
L 323.3637 620.229987 
L 324.525037 610.983577 
L 325.686375 633.765526 
L 326.847712 647.879748 
L 328.00905 650.041937 
L 329.170387 650.041937 
L 330.331725 657.616047 
L 331.493062 632.515399 
L 332.6544 635.892721 
L 333.815737 637.598647 
L 334.977075 637.598647 
L 336.138412 600.17662 
L 337.29975 638.101731 
L 338.461087 659.195981 
L 339.622425 615.786528 
L 340.783762 616.016224 
L 341.9451 606.420574 
L 343.106437 606.420574 
L 344.267775 644.685627 
L 345.429112 644.685627 
L 346.59045 656.854951 
L 347.751787 656.854951 
L 348.913125 601.7092 
L 350.074462 601.7092 
L 351.2358 667.996818 
L 352.397137 667.996818 
L 353.558475 669.93578 
L 354.719812 669.93578 
L 355.88115 626.500168 
L 357.042487 626.500168 
L 358.203825 671.99649 
L 359.365162 671.99649 
L 360.5265 592.051331 
L 361.687837 592.051331 
L 362.849175 664.505169 
L 364.010512 664.506027 
L 365.17185 661.466839 
L 366.333187 661.466839 
L 367.494525 661.895715 
L 368.655862 661.895715 
L 369.8172 663.332706 
L 370.978537 663.332706 
L 372.139875 644.023854 
L 373.301212 644.023854 
L 374.46255 567.9668 
L 375.623887 658.75929 
L 376.785225 670.063766 
L 377.946562 670.063766 
L 379.1079 657.797021 
L 380.269237 659.762351 
L 381.430575 672.823283 
L 382.591912 672.823283 
L 383.75325 654.7179 
L 384.914587 678.339605 
L 386.075925 674.280682 
L 387.237262 618.917734 
L 388.3986 661.042346 
L 389.559937 675.04572 
L 390.721275 664.551155 
L 391.882612 666.756014 
L 393.04395 685.20992 
L 394.205287 646.969564 
L 395.366625 671.225005 
L 396.527962 652.687731 
L 397.6893 661.395947 
L 398.850637 659.07319 
L 400.011975 623.491127 
L 401.173312 660.099696 
L 402.33465 683.657234 
L 403.495987 643.384112 
L 404.657325 689.041349 
L 405.818662 659.810516 
L 406.98 685.108882 
L 408.141337 684.145754 
L 409.302675 672.140106 
L 410.464012 654.566075 
L 411.62535 665.571585 
L 412.786687 630.413411 
L 413.948025 684.936487 
L 415.109362 650.889996 
L 416.2707 684.73216 
L 417.432037 684.73216 
L 418.593375 693.104422 
L 419.754712 644.92242 
L 420.91605 689.262373 
L 422.077387 659.540886 
L 423.238725 682.616188 
L 424.400062 686.084833 
L 425.5614 655.400868 
L 426.722737 685.039196 
L 427.884075 688.865569 
L 429.045412 677.497019 
L 430.20675 677.497019 
L 431.368087 700.372122 
L 432.529425 704.880397 
L 433.690762 705.143441 
L 434.8521 705.143441 
L 436.013437 675.099892 
L 437.174775 675.099892 
L 438.336112 699.561261 
L 439.49745 699.561261 
L 440.658787 694.867303 
L 441.820125 692.592434 
L 442.981462 692.592434 
L 444.1428 696.109128 
L 445.304137 696.109128 
L 446.465475 692.73649 
L 447.626812 692.73649 
L 448.78815 692.101339 
L 449.949487 691.285028 
L 451.110825 691.285028 
L 452.272162 695.084431 
L 453.4335 695.084431 
L 454.594837 698.333582 
L 455.756175 698.333582 
L 456.917512 675.743113 
L 458.07885 675.743113 
L 459.240187 684.335402 
L 460.401525 696.953197 
L 461.562862 696.953197 
L 462.7242 686.554639 
L 463.885537 686.554639 
L 465.046875 703.179086 
L 466.208212 696.061495 
L 467.36955 696.061495 
L 468.530887 706.890437 
L 469.692225 706.890437 
L 470.853562 702.281332 
L 472.0149 671.411198 
L 473.176237 703.514993 
L 474.337575 703.514993 
L 475.498912 693.925534 
L 476.66025 705.321309 
L 477.821587 705.321309 
L 478.982925 700.67394 
L 480.144262 700.67394 
L 481.3056 681.76929 
L 482.466937 681.76929 
L 483.628275 698.298542 
L 484.789612 698.298542 
L 485.95095 697.982787 
L 487.112287 697.982787 
L 488.273625 707.092097 
L 489.434962 707.092097 
L 490.5963 673.084148 
L 491.757637 673.084148 
L 492.918975 712.212194 
L 494.080312 712.212194 
L 495.24165 703.866484 
L 496.402987 703.866484 
L 497.564325 696.231014 
L 498.725662 696.231014 
L 499.887 697.049389 
L 501.048337 697.049389 
L 502.209675 701.808928 
L 503.371012 701.808928 
L 504.53235 691.732525 
L 505.693687 691.732525 
L 506.855025 704.382879 
L 508.016362 704.382879 
L 509.1777 685.539798 
L 510.339037 699.210025 
L 511.500375 699.210025 
L 512.661712 699.364215 
L 513.82305 699.364215 
L 514.984387 686.939825 
L 516.145725 698.675426 
L 517.307062 698.675426 
L 518.4684 689.350008 
L 519.629737 689.350008 
L 520.791075 705.01418 
L 521.952412 711.851682 
L 523.11375 711.851682 
L 524.275087 708.372672 
L 525.436425 703.27987 
L 526.597762 673.113784 
L 527.7591 709.460005 
L 528.920437 708.239863 
L 530.081775 709.998222 
L 531.243112 708.162803 
L 532.40445 706.681031 
L 533.565787 706.681031 
L 534.727125 691.593826 
L 535.888462 691.593826 
L 537.0498 711.146567 
L 538.211137 712.094342 
L 539.372475 705.857833 
L 540.533812 705.857833 
L 541.69515 714.759871 
L 542.856487 714.759871 
L 544.017825 709.414784 
L 545.179162 709.414784 
L 546.3405 714.567649 
L 547.501837 714.567649 
L 548.663175 717.110942 
L 549.824512 717.110942 
L 550.98585 712.853119 
L 552.147187 712.853119 
L 553.308525 708.119762 
L 554.469862 708.119762 
L 555.6312 714.654611 
L 556.792537 714.654611 
L 557.953875 714.372227 
L 559.115212 714.372227 
L 560.27655 706.519907 
L 561.437887 694.240408 
L 562.599225 694.240408 
L 563.760562 707.706841 
L 564.9219 707.706841 
L 566.083237 691.072468 
L 567.244575 691.072468 
L 568.405912 708.376684 
L 569.56725 710.852124 
L 570.728587 705.13718 
L 571.889925 705.13718 
L 573.051262 710.975448 
L 574.2126 702.728759 
L 575.373937 713.574583 
L 576.535275 710.335335 
L 577.696612 710.335335 
L 578.85795 689.532049 
L 580.019287 694.86837 
L 581.180625 710.47844 
L 582.341962 710.47844 
L 583.5033 709.366456 
L 584.664637 709.366456 
L 585.825975 713.978762 
L 586.987312 713.978762 
L 588.14865 715.839365 
L 589.309987 715.839365 
L 590.471325 704.727529 
L 591.632662 704.727529 
L 592.794 720.425512 
L 593.955337 720.425512 
L 595.116675 721.188278 
L 596.278012 721.188278 
L 597.43935 717.712978 
L 598.600687 717.712978 
L 599.762025 712.670034 
L 600.923362 701.124591 
L 602.0847 701.124591 
L 603.246037 719.920759 
L 604.407375 719.920759 
L 605.568712 720.556698 
L 606.73005 720.556698 
L 607.891387 712.201016 
L 609.052725 712.201016 
L 610.214062 714.578965 
L 611.3754 714.578965 
L 612.536737 718.745304 
L 613.698075 718.745304 
L 614.859412 720.475324 
L 616.02075 723.716544 
L 617.182087 723.716544 
L 618.343425 715.478366 
L 621.827437 715.386673 
L 622.988775 723.169469 
L 624.150112 718.374542 
L 625.31145 724.91515 
L 626.472787 714.025675 
L 627.634125 720.994572 
L 628.795462 720.994572 
L 629.9568 720.785096 
L 631.118137 724.100332 
L 632.279475 712.778146 
L 633.440812 712.778146 
L 634.60215 725.741894 
L 635.763487 703.401293 
L 636.924825 722.006954 
L 638.086162 726.475684 
L 639.2475 705.119486 
L 640.408837 723.986661 
L 641.570175 718.318005 
L 642.731512 719.937919 
L 643.89285 723.001666 
L 645.054187 727.353163 
L 646.215525 725.910316 
L 647.376862 726.180565 
L 648.5382 687.341939 
L 649.699537 687.341939 
L 650.860875 713.531728 
L 652.022212 713.531728 
L 653.18355 720.384025 
L 654.344887 720.384025 
L 655.506225 724.325906 
L 656.667562 724.325906 
L 657.8289 725.898649 
L 658.990237 725.898649 
L 660.151575 728.204343 
L 661.312912 728.204343 
L 662.47425 725.913486 
L 663.635587 725.913486 
L 664.796925 724.74368 
L 665.958262 724.74368 
L 667.1196 725.352432 
L 668.280937 725.352432 
L 669.442275 722.351906 
L 670.603612 722.351906 
L 671.76495 726.21148 
L 672.926287 726.21148 
L 674.087625 728.626466 
L 675.248962 726.537063 
L 676.4103 726.537063 
L 677.571637 728.517459 
L 679.894312 728.554442 
L 681.05565 726.668872 
L 682.216987 726.668872 
L 683.378325 727.707379 
L 684.539662 727.833627 
L 685.701 727.49003 
L 686.862337 722.364266 
L 688.023675 722.364266 
L 689.185012 723.575155 
L 690.34635 723.575155 
L 691.507687 729.385787 
L 692.669025 721.990049 
L 693.830362 728.906142 
L 694.9917 728.906142 
L 696.153037 710.614009 
L 697.314375 724.337083 
L 698.475712 724.337083 
L 699.63705 726.944193 
L 700.798387 726.944193 
L 701.959725 727.758726 
L 703.121062 727.758726 
L 704.2824 718.577408 
L 705.443737 718.577408 
L 706.605075 725.984498 
L 707.766412 725.984498 
L 708.92775 721.75801 
L 710.089087 721.75801 
L 711.250425 729.505364 
L 712.411762 729.681706 
L 713.5731 729.681706 
L 714.734437 727.759429 
L 715.895775 727.759429 
L 717.057112 726.109757 
L 718.21845 726.109757 
L 719.379787 730.762376 
L 720.541125 730.762376 
L 721.702462 729.77656 
L 722.8638 729.77656 
L 724.025137 725.877087 
L 725.186475 725.877087 
L 726.347812 730.360823 
L 727.50915 730.360823 
L 728.670487 731.426447 
L 729.831825 731.426447 
L 730.993162 729.030166 
L 732.1545 729.803135 
L 733.315837 729.803135 
L 734.477175 730.89999 
L 735.638512 730.89999 
L 736.79985 722.043919 
L 737.961187 722.043919 
L 739.122525 731.249215 
L 740.283862 731.249215 
L 741.4452 729.440687 
L 742.606537 730.135977 
L 743.767875 721.791867 
L 744.929212 727.511476 
L 746.09055 727.511476 
L 747.251887 728.768618 
L 748.413225 728.768618 
L 749.574562 730.042971 
L 750.7359 728.261571 
L 751.897237 731.385598 
L 753.058575 731.385598 
L 754.219912 722.94332 
L 755.38125 722.940375 
L 756.542587 726.933183 
L 757.703925 726.933183 
L 758.865262 728.958892 
L 760.0266 728.958892 
L 761.187937 729.570282 
L 762.349275 729.570282 
L 763.510612 730.895572 
L 764.67195 730.895572 
L 765.833287 729.424329 
L 766.994625 729.424329 
L 768.155962 726.441207 
L 769.3173 728.940008 
L 770.478637 728.940008 
L 771.639975 730.115846 
L 772.801312 731.613915 
L 773.96265 731.613915 
L 775.123987 732.387311 
L 776.285325 732.387311 
L 777.446662 731.832597 
L 778.608 731.832597 
L 779.769337 732.485161 
L 780.930675 732.485161 
L 782.092012 729.522383 
L 783.25335 729.522383 
L 784.414687 731.764539 
L 785.576025 732.111698 
L 786.737362 732.111698 
L 787.8987 733.876923 
L 789.060037 733.876923 
L 790.221375 733.349499 
L 791.382712 733.349499 
L 792.54405 732.695805 
L 793.705387 734.096456 
L 794.866725 734.096456 
L 796.028062 733.178602 
L 797.1894 733.558053 
L 798.350737 733.039453 
L 799.512075 733.505848 
L 800.673412 733.505848 
L 802.996087 735.010867 
L 804.157425 734.949748 
L 805.318762 731.735291 
L 806.4801 735.384699 
L 807.641437 735.491513 
L 808.802775 736.006523 
L 809.964112 733.626955 
L 811.12545 733.626955 
L 812.286787 735.268991 
L 813.448125 735.268991 
L 814.609462 734.579056 
L 818.093475 734.630326 
L 819.254812 735.081764 
L 820.41615 735.081764 
L 821.577487 734.242462 
L 822.738825 734.242462 
L 823.900162 726.743572 
L 825.0615 726.743572 
L 826.222837 732.914139 
L 827.384175 732.914139 
L 828.545512 734.196525 
L 829.70685 734.196525 
L 830.868187 735.551392 
L 832.029525 735.551392 
L 833.190862 735.130667 
L 834.3522 735.130667 
L 835.513537 734.717646 
L 836.674875 734.717646 
L 837.836212 735.56515 
L 838.99755 735.56515 
L 840.158887 736.169711 
L 841.320225 736.169711 
L 842.481562 735.716817 
L 843.6429 735.716817 
L 844.804237 735.569041 
L 845.965575 735.569041 
L 847.126912 734.62881 
L 848.28825 734.62881 
L 849.449587 735.396612 
L 850.610925 735.396612 
L 851.772262 733.231016 
L 852.9336 733.231016 
L 854.094937 735.917316 
L 855.256275 735.917316 
L 856.417612 735.653752 
L 857.57895 726.284487 
L 858.740287 735.563615 
L 859.901625 727.516956 
L 861.062962 736.618985 
L 862.2243 735.523647 
L 863.385637 733.500013 
L 864.546975 730.794339 
L 865.708312 734.918634 
L 866.86965 734.918634 
L 868.030987 735.300995 
L 869.192325 735.300995 
L 870.353662 735.602358 
L 871.515 735.602358 
L 872.676337 736.826301 
L 873.837675 736.826301 
L 874.999012 736.948355 
L 876.16035 736.948355 
L 877.321687 732.084528 
L 878.483025 732.084528 
L 879.644362 735.01323 
L 880.8057 735.01323 
L 881.967037 735.617416 
L 883.128375 735.617416 
L 884.289712 736.786829 
L 885.45105 736.786829 
L 886.612387 737.107744 
L 890.0964 737.10283 
L 891.257737 737.612227 
L 892.419075 737.612227 
L 893.580412 736.773129 
L 894.74175 736.773129 
L 895.903087 737.042119 
L 897.064425 737.042119 
L 898.225762 734.339489 
L 899.3871 734.339489 
L 900.548437 734.913015 
L 901.709775 734.913015 
L 902.871112 734.256789 
L 904.03245 734.256789 
L 905.193787 736.206252 
L 906.355125 736.206252 
L 907.516462 737.013697 
L 908.6778 737.013697 
L 909.839137 737.535479 
L 911.000475 737.535479 
L 912.161812 737.9746 
L 913.32315 737.9746 
L 914.484487 738.4745 
L 915.645825 738.454434 
L 916.807162 737.141038 
L 917.9685 736.912009 
L 919.129837 737.764858 
L 920.291175 733.737365 
L 921.452512 711.612547 
L 922.61385 730.947852 
L 923.775187 735.086673 
L 924.936525 735.086673 
L 926.097862 736.778759 
L 927.2592 736.778759 
L 928.420537 735.254669 
L 931.90455 735.186042 
L 933.065887 736.857522 
L 934.227225 736.857522 
L 935.388562 734.008146 
L 936.5499 734.008146 
L 937.711237 737.799414 
L 938.872575 737.799414 
L 940.033912 737.921495 
L 941.19525 737.921495 
L 942.356587 737.570185 
L 945.8406 737.546388 
L 947.001937 737.75805 
L 948.163275 737.75805 
L 949.324612 737.953572 
L 950.48595 737.953572 
L 951.647287 737.79651 
L 952.808625 737.79651 
L 953.969962 737.006743 
L 955.1313 737.006743 
L 956.292637 734.692072 
L 957.453975 734.692072 
L 958.615312 736.380425 
L 959.77665 736.380425 
L 960.937987 736.261752 
L 962.099325 736.261752 
L 963.260662 738.595107 
L 964.422 738.595107 
L 965.583337 738.220945 
L 966.744675 738.220945 
L 967.906012 736.961923 
L 969.06735 736.961923 
L 970.228687 738.001573 
L 971.390025 738.001573 
L 972.551362 738.505069 
L 973.7127 738.855929 
L 974.874037 738.954988 
L 976.035375 737.808662 
L 977.196712 738.713821 
L 978.35805 740.030835 
L 979.519387 737.462134 
L 980.680725 739.408696 
L 981.842062 739.275246 
L 985.326075 739.301586 
L 986.487412 739.082377 
L 987.64875 739.082377 
L 988.810087 739.622447 
L 989.971425 739.622447 
L 991.132762 738.748479 
L 992.2941 738.748479 
L 993.455437 739.926795 
L 996.93945 739.916202 
L 998.100787 738.492371 
L 999.262125 738.492371 
L 1000.423462 739.538938 
L 1001.5848 739.538938 
L 1002.746137 739.105881 
L 1003.907475 739.105881 
L 1005.068812 739.625063 
L 1008.552825 739.616455 
L 1009.714162 739.301581 
L 1010.8755 739.301525 
L 1012.036837 739.597914 
L 1013.198175 739.597914 
L 1014.359512 740.006464 
L 1015.52085 740.010251 
L 1016.682187 739.573094 
L 1017.843525 739.531883 
L 1019.004862 740.329904 
L 1020.1662 739.862549 
L 1021.327537 739.862549 
L 1022.488875 740.027836 
L 1023.650212 739.715309 
L 1024.81155 739.715309 
L 1025.972887 739.921821 
L 1027.134225 739.921821 
L 1028.295562 740.145347 
L 1030.618237 740.04307 
L 1031.779575 739.811524 
L 1034.10225 739.855384 
L 1035.263587 739.451734 
L 1036.424925 740.054903 
L 1037.586262 740.234468 
L 1038.7476 740.301204 
L 1039.908937 740.099649 
L 1041.070275 740.099649 
L 1042.231612 740.333552 
L 1043.39295 740.333552 
L 1044.554287 740.006473 
L 1048.0383 739.978977 
L 1049.199637 731.163456 
L 1050.360975 731.163456 
L 1051.522312 738.178635 
L 1052.68365 738.178635 
L 1053.844987 739.441284 
L 1055.006325 739.441284 
L 1056.167662 739.720163 
L 1058.490337 739.807464 
L 1059.651675 740.351274 
L 1065.458362 740.317073 
L 1066.6197 739.096141 
L 1067.781037 739.096141 
L 1068.942375 740.030443 
L 1070.103712 740.030443 
L 1071.26505 740.633253 
L 1073.587725 740.631667 
L 1074.749062 740.631667 
L 1075.9104 740.854954 
L 1081.717087 740.96106 
L 1082.878425 740.659495 
L 1084.039762 740.659495 
L 1085.2011 740.346775 
L 1086.362437 740.346775 
L 1087.523775 740.635062 
L 1091.007787 740.592121 
L 1092.169125 740.970264 
L 1093.330462 741.121956 
L 1096.814475 741.122882 
L 1097.975812 740.989906 
L 1099.13715 740.296559 
L 1100.298487 740.758008 
L 1101.459825 741.05215 
L 1104.943837 740.886021 
L 1106.105175 740.36039 
L 1107.266512 740.36039 
L 1108.42785 740.603352 
L 1109.589187 740.603352 
L 1110.750525 740.819677 
L 1114.234537 740.764065 
L 1115.395875 740.385878 
L 1118.879887 740.403577 
L 1120.041225 740.703168 
L 1132.815937 740.733174 
L 1133.977275 740.219402 
L 1137.461287 740.223908 
L 1138.622625 738.6893 
L 1139.783962 738.6893 
L 1140.9453 740.432444 
L 1142.106637 740.774459 
L 1143.267975 740.774459 
L 1144.429312 740.661155 
L 1146.751987 740.752025 
L 1147.913325 739.600583 
L 1149.074662 741.031221 
L 1150.236 740.471602 
L 1151.397337 739.725427 
L 1152.558675 741.158191 
L 1153.720012 741.300139 
L 1156.042687 741.254696 
L 1157.204025 725.741947 
L 1158.365362 725.741947 
L 1159.5267 741.016674 
L 1160.688037 741.016674 
L 1161.849375 741.326982 
L 1163.010712 741.030187 
L 1165.333387 740.933419 
L 1166.494725 738.207403 
L 1167.656062 738.207361 
L 1168.8174 740.738459 
L 1169.978737 740.738459 
L 1171.140075 740.621407 
L 1172.301412 740.621407 
L 1173.46275 740.979129 
L 1174.624087 741.201519 
L 1183.914787 741.281378 
L 1185.076125 741.090321 
L 1186.237462 741.090321 
L 1187.3988 740.909469 
L 1190.882812 740.948906 
L 1192.04415 741.26566 
L 1193.205487 741.26566 
L 1194.366825 739.027378 
L 1195.528162 740.392297 
L 1196.6895 740.392297 
L 1197.850837 741.235947 
L 1199.012175 741.502736 
L 1200.173512 741.502736 
L 1201.33485 741.291436 
L 1202.496187 741.291179 
L 1203.657525 741.611059 
L 1204.818862 741.622246 
L 1205.9802 741.514331 
L 1207.141537 741.593342 
L 1209.464212 741.477842 
L 1211.786887 741.467024 
L 1212.948225 741.427151 
L 1214.109562 740.114261 
L 1215.2709 740.114261 
L 1216.432237 741.328923 
L 1217.593575 741.328923 
L 1218.754912 739.196486 
L 1219.91625 739.196486 
L 1221.077587 741.044567 
L 1222.238925 741.044567 
L 1223.400262 740.545493 
L 1224.5616 740.545493 
L 1225.722937 741.423501 
L 1228.045612 741.508627 
L 1229.20695 738.25961 
L 1230.368287 738.25961 
L 1231.529625 739.956559 
L 1232.690962 739.956559 
L 1233.8523 741.627515 
L 1241.981662 741.703803 
L 1243.143 741.299986 
L 1244.304337 741.299986 
L 1245.465675 741.562316 
L 1251.272362 741.486647 
L 1252.4337 741.82001 
L 1253.595037 741.82001 
L 1254.756375 741.46855 
L 1260.563062 741.571258 
L 1261.7244 741.814143 
L 1262.885737 741.814143 
L 1264.047075 740.826579 
L 1265.208412 741.683363 
L 1266.36975 741.898001 
L 1268.692425 741.838384 
L 1269.853762 741.644033 
L 1271.0151 741.570994 
L 1272.176437 741.383591 
L 1273.337775 741.734063 
L 1277.983125 741.806382 
L 1279.144462 741.577953 
L 1280.3058 741.577953 
L 1281.467137 741.451445 
L 1287.273825 741.532893 
L 1288.435162 741.899547 
L 1291.919175 741.899789 
L 1293.080512 742.093242 
L 1294.24185 742.093242 
L 1295.403187 741.921912 
L 1296.564525 741.921912 
L 1297.725862 742.082577 
L 1300.048537 742.050971 
L 1301.209875 741.84874 
L 1302.371212 741.922849 
L 1303.53255 741.763807 
L 1307.016562 741.774978 
L 1310.500575 742.067955 
L 1313.984587 742.078352 
L 1315.145925 741.839065 
L 1316.307262 741.839065 
L 1317.4686 742.015838 
L 1320.952612 741.968732 
L 1322.11395 741.787725 
L 1323.275287 742.046379 
L 1324.436625 742.101474 
L 1325.597962 742.0046 
L 1326.7593 740.987522 
L 1327.920637 741.78465 
L 1329.081975 741.865175 
L 1330.243312 741.699529 
L 1331.40465 741.699529 
L 1332.565987 740.974375 
L 1333.727325 740.974375 
L 1334.888662 741.718035 
L 1336.05 741.718035 
L 1336.05 741.718035 
" style="fill:none;stroke:#0000ff;stroke-linecap:square;stroke-width:2.0;"/>
   </g>
   <g id="line2d_2">
    <path clip-path="url(#p11e39bcece)" d="M 175.873838 76.857235 
L 177.035175 76.857235 
L 178.196513 230.901448 
L 179.35785 294.536663 
L 180.519188 335.523829 
L 181.680525 335.523829 
L 182.841862 352.54297 
L 184.0032 441.374816 
L 185.164537 500.864123 
L 186.325875 500.864123 
L 187.487212 438.494386 
L 188.64855 438.494386 
L 189.809888 493.897615 
L 190.971225 493.897615 
L 192.132563 388.54846 
L 193.2939 503.319944 
L 194.455238 498.398794 
L 195.616575 498.398794 
L 196.777913 519.441585 
L 197.93925 552.524973 
L 199.100587 552.524973 
L 200.261925 541.725227 
L 201.423262 541.725227 
L 202.5846 533.445331 
L 203.745937 544.136431 
L 204.907275 544.136431 
L 206.068613 532.433203 
L 207.22995 532.433203 
L 208.391288 510.143833 
L 209.552625 510.143833 
L 210.713962 530.675378 
L 211.8753 530.675378 
L 213.036637 398.6593 
L 214.197975 549.488729 
L 215.359312 549.488729 
L 216.52065 574.897525 
L 217.681987 529.662114 
L 218.843325 529.662114 
L 220.004662 574.017349 
L 221.166 574.017349 
L 222.327337 570.041075 
L 223.488675 484.965291 
L 224.650013 484.965291 
L 225.81135 575.983814 
L 226.972688 555.913148 
L 228.134025 541.625997 
L 229.295362 541.625997 
L 230.4567 545.843841 
L 231.618037 545.843841 
L 232.779375 511.131263 
L 233.940712 539.827683 
L 235.10205 539.827683 
L 236.263387 558.694162 
L 237.424725 558.694162 
L 238.586062 510.063132 
L 239.7474 583.929335 
L 240.908737 579.55911 
L 242.070075 579.55911 
L 243.231412 501.108313 
L 244.39275 501.108313 
L 245.554087 471.890769 
L 246.715425 592.004881 
L 247.876762 592.004881 
L 249.0381 588.8442 
L 250.199437 572.264162 
L 251.360775 572.264162 
L 252.522112 579.029102 
L 253.68345 590.2734 
L 254.844787 590.2734 
L 256.006125 542.950309 
L 257.167462 589.486331 
L 258.3288 589.486331 
L 259.490138 562.934616 
L 260.651475 562.934616 
L 261.812812 604.064632 
L 262.97415 602.046777 
L 264.135487 602.046777 
L 265.296825 620.171965 
L 266.458162 620.171965 
L 267.6195 607.843234 
L 268.780837 607.843234 
L 269.942175 514.038594 
L 271.103512 514.038594 
L 272.26485 551.0509 
L 273.426187 607.657667 
L 274.587525 607.657667 
L 275.748862 630.867286 
L 276.9102 630.867286 
L 278.071537 621.195479 
L 280.394212 621.238149 
L 281.55555 620.071251 
L 282.716887 584.0643 
L 283.878225 584.0643 
L 285.039562 584.61875 
L 286.2009 584.61875 
L 287.362237 618.160836 
L 288.523575 588.274027 
L 289.684912 588.274027 
L 290.84625 619.262639 
L 292.007587 603.799732 
L 293.168925 603.799732 
L 294.330263 599.794935 
L 295.4916 544.886674 
L 296.652938 544.886674 
L 297.814275 613.222224 
L 298.975612 613.222224 
L 300.13695 573.333197 
L 301.298287 573.333197 
L 302.459625 632.84806 
L 303.620962 632.84806 
L 304.7823 613.774633 
L 305.943637 613.774633 
L 307.104975 634.559806 
L 308.266312 634.559806 
L 309.42765 637.211003 
L 310.588987 646.334135 
L 311.750325 646.334135 
L 312.911662 628.19654 
L 314.073 628.19654 
L 315.234337 630.693523 
L 316.395675 630.693523 
L 317.557012 629.921714 
L 318.71835 629.921714 
L 319.879687 634.155999 
L 321.041025 642.741076 
L 322.202362 622.040986 
L 323.3637 628.814345 
L 324.525037 598.285313 
L 325.686375 640.863614 
L 326.847712 633.81019 
L 328.00905 602.031356 
L 329.170387 628.969045 
L 330.331725 628.969045 
L 331.493062 645.862497 
L 332.6544 645.862497 
L 333.815737 617.617958 
L 334.977075 648.584423 
L 336.138412 648.584423 
L 337.29975 648.815882 
L 338.461087 633.610315 
L 339.622425 633.610315 
L 340.783762 633.467442 
L 341.9451 641.050966 
L 343.106437 641.050966 
L 344.267775 644.83235 
L 345.429112 625.134532 
L 346.59045 654.201203 
L 347.751787 654.201203 
L 348.913125 654.479599 
L 350.074462 654.479599 
L 351.2358 624.733322 
L 352.397137 633.528802 
L 353.558475 633.528802 
L 354.719812 660.219263 
L 355.88115 660.219263 
L 357.042487 658.382986 
L 358.203825 658.382986 
L 359.365162 650.140124 
L 360.5265 652.818523 
L 361.687837 652.818523 
L 362.849175 639.973605 
L 364.010512 639.973605 
L 365.17185 659.844443 
L 366.333187 659.844443 
L 367.494525 670.210536 
L 368.655862 670.210536 
L 369.8172 644.232518 
L 370.978537 644.232518 
L 373.301212 672.585261 
L 374.46255 641.872124 
L 375.623887 641.872124 
L 376.785225 668.817814 
L 377.946562 670.250701 
L 379.1079 647.405281 
L 380.269237 672.738315 
L 381.430575 636.664392 
L 382.591912 673.849441 
L 386.075925 673.846171 
L 387.237262 665.540951 
L 388.3986 665.540951 
L 389.559937 670.745482 
L 390.721275 670.745482 
L 391.882612 609.11277 
L 393.04395 668.964421 
L 394.205287 668.965001 
L 395.366625 670.219812 
L 396.527962 670.219812 
L 397.6893 655.397436 
L 398.850637 655.397436 
L 400.011975 639.927109 
L 401.173312 639.927109 
L 402.33465 662.523491 
L 403.495987 669.97692 
L 404.657325 669.97692 
L 405.818662 655.035278 
L 406.98 688.910465 
L 408.141337 688.910465 
L 409.302675 672.340166 
L 410.464012 672.340166 
L 411.62535 648.360361 
L 412.786687 682.293407 
L 413.948025 682.293407 
L 415.109362 679.495441 
L 416.2707 669.543893 
L 417.432037 669.543893 
L 418.593375 662.522401 
L 419.754712 680.262172 
L 420.91605 680.262172 
L 422.077387 674.016409 
L 423.238725 674.016409 
L 424.400062 673.648986 
L 425.5614 673.648986 
L 426.722737 660.488685 
L 427.884075 675.927056 
L 429.045412 678.549219 
L 432.529425 678.438371 
L 433.690762 655.672655 
L 434.8521 670.69567 
L 436.013437 648.038345 
L 437.174775 648.038345 
L 438.336112 667.583433 
L 439.49745 652.339023 
L 440.658787 674.69845 
L 441.820125 684.277404 
L 442.981462 673.311479 
L 444.1428 673.311479 
L 445.304137 668.600523 
L 446.465475 668.600523 
L 447.626812 669.851299 
L 448.78815 669.851299 
L 449.949487 655.207232 
L 451.110825 655.207232 
L 452.272162 657.492954 
L 453.4335 684.471249 
L 454.594837 659.517024 
L 455.756175 659.517024 
L 456.917512 683.512853 
L 458.07885 683.512853 
L 459.240187 674.415857 
L 460.401525 674.415857 
L 461.562862 689.712723 
L 465.046875 689.673253 
L 466.208212 645.516363 
L 467.36955 645.516363 
L 468.530887 687.852722 
L 469.692225 687.852722 
L 470.853562 693.476065 
L 472.0149 693.476065 
L 473.176237 688.829207 
L 474.337575 694.33071 
L 475.498912 694.33071 
L 476.66025 685.952464 
L 477.821587 685.952464 
L 478.982925 692.514724 
L 480.144262 692.514724 
L 481.3056 694.72538 
L 482.466937 694.72538 
L 483.628275 672.960475 
L 484.789612 696.204462 
L 485.95095 696.204462 
L 487.112287 699.392623 
L 488.273625 699.392623 
L 489.434962 682.112084 
L 490.5963 682.112084 
L 491.757637 698.28486 
L 492.918975 700.551984 
L 494.080312 694.161747 
L 495.24165 690.289829 
L 496.402987 701.586698 
L 497.564325 682.941103 
L 498.725662 682.94108 
L 499.887 704.837241 
L 501.048337 704.837241 
L 502.209675 700.325742 
L 503.371012 700.325742 
L 504.53235 694.089951 
L 505.693687 694.089951 
L 506.855025 700.595349 
L 508.016362 705.665379 
L 509.1777 705.665379 
L 510.339037 670.928707 
L 511.500375 670.928707 
L 512.661712 680.12484 
L 513.82305 680.12484 
L 514.984387 689.694681 
L 516.145725 705.648496 
L 517.307062 696.352205 
L 518.4684 696.352205 
L 519.629737 696.476179 
L 520.791075 696.476179 
L 521.952412 687.659132 
L 523.11375 687.659132 
L 524.275087 706.890808 
L 525.436425 709.409914 
L 526.597762 709.409914 
L 527.7591 711.000377 
L 528.920437 711.000377 
L 530.081775 707.971253 
L 531.243112 707.305654 
L 532.40445 707.305654 
L 533.565787 710.609835 
L 534.727125 688.607858 
L 535.888462 688.607858 
L 537.0498 702.175701 
L 538.211137 702.175701 
L 539.372475 703.42323 
L 540.533812 703.42323 
L 541.69515 696.977964 
L 542.856487 705.823929 
L 544.017825 705.823929 
L 545.179162 701.999132 
L 546.3405 701.999132 
L 547.501837 685.045155 
L 548.663175 685.045155 
L 549.824512 707.840531 
L 550.98585 682.090077 
L 552.147187 705.890762 
L 553.308525 713.550814 
L 554.469862 711.003369 
L 555.6312 700.086097 
L 556.792537 694.286602 
L 557.953875 694.286602 
L 559.115212 712.053806 
L 560.27655 712.053806 
L 561.437887 703.630572 
L 562.599225 703.630572 
L 563.760562 708.516775 
L 564.9219 708.516775 
L 566.083237 667.913775 
L 567.244575 667.913775 
L 568.405912 709.229102 
L 569.56725 709.229102 
L 570.728587 707.256213 
L 571.889925 707.256213 
L 573.051262 713.240369 
L 574.2126 713.240369 
L 575.373937 706.270475 
L 576.535275 703.216538 
L 577.696612 703.216538 
L 578.85795 709.222377 
L 580.019287 709.222377 
L 581.180625 716.297623 
L 582.341962 716.297623 
L 583.5033 707.336775 
L 584.664637 707.336775 
L 585.825975 708.51434 
L 586.987312 713.224368 
L 588.14865 713.224368 
L 589.309987 707.122035 
L 590.471325 707.122035 
L 591.632662 715.452811 
L 592.794 715.452811 
L 595.116675 709.269221 
L 596.278012 709.269221 
L 597.43935 677.904862 
L 598.600687 677.904862 
L 599.762025 713.070641 
L 600.923362 713.070641 
L 602.0847 714.032655 
L 603.246037 706.450128 
L 604.407375 688.983536 
L 605.568712 711.399848 
L 606.73005 711.399848 
L 607.891387 720.742264 
L 609.052725 691.037521 
L 610.214062 719.899795 
L 611.3754 693.937245 
L 612.536737 719.73554 
L 613.698075 684.215788 
L 614.859412 684.215788 
L 616.02075 717.244679 
L 617.182087 712.309476 
L 618.343425 712.309476 
L 619.504762 721.738345 
L 620.6661 721.738345 
L 621.827437 714.109298 
L 622.988775 714.109298 
L 624.150112 715.717316 
L 625.31145 715.717316 
L 626.472787 713.077598 
L 627.634125 713.077598 
L 628.795462 722.30163 
L 629.9568 722.30163 
L 631.118137 721.712441 
L 632.279475 721.712441 
L 633.440812 685.743569 
L 634.60215 685.743569 
L 635.763487 720.283705 
L 636.924825 720.283705 
L 638.086162 721.032835 
L 639.2475 721.032835 
L 640.408837 723.455564 
L 641.570175 723.455564 
L 642.731512 714.650669 
L 643.89285 714.650669 
L 645.054187 716.495341 
L 646.215525 720.386623 
L 647.376862 720.386623 
L 648.5382 720.041138 
L 649.699537 720.041138 
L 650.860875 717.055263 
L 652.022212 717.055263 
L 653.18355 722.689413 
L 654.344887 722.689413 
L 655.506225 725.487212 
L 656.667562 725.487212 
L 657.8289 724.508518 
L 658.990237 724.508518 
L 660.151575 721.108898 
L 661.312912 721.108898 
L 662.47425 720.706784 
L 663.635587 725.450686 
L 664.796925 725.450686 
L 665.958262 724.939801 
L 667.1196 707.073939 
L 668.280937 707.073939 
L 669.442275 718.469204 
L 670.603612 718.469204 
L 671.76495 724.330736 
L 672.926287 694.845899 
L 674.087625 712.745378 
L 675.248962 714.011181 
L 676.4103 721.700058 
L 677.571637 701.09776 
L 678.732975 723.259933 
L 682.216987 723.301861 
L 683.378325 722.668403 
L 684.539662 722.668403 
L 685.701 726.931903 
L 686.862337 726.931903 
L 688.023675 724.521539 
L 689.185012 724.521539 
L 690.34635 728.141936 
L 691.507687 728.141936 
L 692.669025 723.732012 
L 693.830362 723.732012 
L 694.9917 723.334976 
L 696.153037 723.334976 
L 697.314375 722.70342 
L 698.475712 727.970212 
L 699.63705 727.970212 
L 700.798387 726.014256 
L 701.959725 726.014256 
L 703.121062 726.880817 
L 704.2824 726.880817 
L 705.443737 728.675436 
L 706.605075 722.827648 
L 707.766412 722.827648 
L 708.92775 724.073165 
L 710.089087 724.073165 
L 711.250425 725.826224 
L 712.411762 725.826224 
L 713.5731 722.406332 
L 714.734437 728.3228 
L 715.895775 728.3228 
L 717.057112 728.500799 
L 718.21845 728.500799 
L 719.379787 726.788 
L 720.541125 726.788 
L 721.702462 725.595486 
L 722.8638 727.803443 
L 724.025137 727.803443 
L 725.186475 719.992207 
L 726.347812 726.355527 
L 727.50915 726.355527 
L 728.670487 727.63533 
L 729.831825 723.372219 
L 730.993162 723.372219 
L 732.1545 728.996388 
L 733.315837 729.310582 
L 734.477175 730.340116 
L 735.638512 725.025935 
L 736.79985 729.002807 
L 737.961187 729.002807 
L 739.122525 731.186124 
L 740.283862 724.39981 
L 741.4452 728.952923 
L 742.606537 728.952923 
L 743.767875 731.078314 
L 744.929212 731.078314 
L 746.09055 729.86929 
L 747.251887 729.86929 
L 748.413225 732.172476 
L 749.574562 732.172476 
L 750.7359 732.860744 
L 751.897237 732.860744 
L 753.058575 729.685312 
L 754.219912 729.685312 
L 755.38125 731.46414 
L 756.542587 731.46414 
L 757.703925 730.502699 
L 758.865262 730.502699 
L 760.0266 730.803791 
L 763.510612 730.80134 
L 764.67195 727.786693 
L 765.833287 727.786693 
L 766.994625 730.785893 
L 768.155962 730.785893 
L 769.3173 730.654531 
L 770.478637 730.654531 
L 771.639975 732.042329 
L 772.801312 733.188558 
L 773.96265 733.188558 
L 775.123987 731.022619 
L 776.285325 731.022619 
L 777.446662 731.330749 
L 778.608 731.330749 
L 779.769337 733.153641 
L 780.930675 733.153641 
L 782.092012 732.60128 
L 785.576025 732.679996 
L 786.737362 730.04695 
L 787.8987 730.04695 
L 789.060037 727.901493 
L 790.221375 727.901493 
L 791.382712 733.347866 
L 792.54405 733.347866 
L 793.705387 721.830293 
L 794.866725 721.830293 
L 796.028062 724.517263 
L 797.1894 724.517263 
L 798.350737 732.286005 
L 799.512075 732.286005 
L 800.673412 732.534479 
L 801.83475 733.211112 
L 802.996087 732.444518 
L 804.157425 733.989473 
L 805.318762 726.689957 
L 806.4801 726.689957 
L 807.641437 724.282844 
L 808.802775 731.405938 
L 809.964112 731.405938 
L 811.12545 732.734806 
L 812.286787 732.734806 
L 813.448125 726.426725 
L 814.609462 732.269026 
L 815.7708 732.269026 
L 816.932137 732.831886 
L 818.093475 732.831886 
L 819.254812 729.00392 
L 820.41615 729.00392 
L 821.577487 732.951034 
L 822.738825 732.951034 
L 823.900162 733.560683 
L 825.0615 733.560683 
L 826.222837 733.420727 
L 827.384175 733.420727 
L 828.545512 733.13671 
L 829.70685 733.879369 
L 830.868187 733.879369 
L 832.029525 734.296838 
L 833.190862 734.296838 
L 834.3522 736.127556 
L 835.513537 736.127556 
L 836.674875 732.8714 
L 837.836212 732.8714 
L 838.99755 734.899013 
L 840.158887 734.899013 
L 841.320225 734.193981 
L 842.481562 734.193981 
L 843.6429 735.058752 
L 844.804237 732.317701 
L 845.965575 732.317701 
L 847.126912 733.542254 
L 848.28825 733.542254 
L 849.449587 734.291098 
L 850.610925 734.291098 
L 851.772262 736.34477 
L 852.9336 736.34477 
L 854.094937 721.640344 
L 855.256275 721.640344 
L 856.417612 734.959318 
L 859.901625 735.061818 
L 861.062962 728.729172 
L 862.2243 728.729172 
L 863.385637 732.420352 
L 864.546975 732.420352 
L 865.708312 734.54009 
L 866.86965 730.807988 
L 868.030987 730.807988 
L 869.192325 734.296938 
L 870.353662 732.827529 
L 871.515 732.082692 
L 872.676337 732.07951 
L 873.837675 735.525495 
L 874.999012 734.63569 
L 876.16035 735.332547 
L 877.321687 735.332547 
L 878.483025 734.896112 
L 879.644362 734.190978 
L 880.8057 736.561321 
L 881.967037 736.512738 
L 883.128375 737.329107 
L 884.289712 736.508705 
L 885.45105 736.508705 
L 886.612387 737.839226 
L 890.0964 737.826277 
L 891.257737 737.333889 
L 892.419075 737.333889 
L 893.580412 737.518013 
L 894.74175 737.518013 
L 895.903087 736.81482 
L 898.225762 736.719296 
L 899.3871 736.420768 
L 900.548437 736.420768 
L 901.709775 736.847666 
L 902.871112 736.847666 
L 904.03245 736.316471 
L 905.193787 736.316471 
L 906.355125 733.652339 
L 907.516462 737.671424 
L 908.6778 737.671424 
L 909.839137 735.464587 
L 911.000475 735.464587 
L 913.32315 737.177115 
L 914.484487 737.177115 
L 915.645825 737.467224 
L 916.807162 737.467224 
L 917.9685 720.408444 
L 919.129837 720.408444 
L 920.291175 724.689736 
L 921.452512 733.480404 
L 922.61385 733.480404 
L 923.775187 737.581681 
L 924.936525 737.581681 
L 926.097862 736.519171 
L 927.2592 737.333244 
L 928.420537 737.333244 
L 929.581875 738.032824 
L 930.743212 738.032824 
L 933.065887 738.372926 
L 934.227225 738.372926 
L 935.388562 738.582498 
L 936.5499 738.582155 
L 937.711237 738.418605 
L 938.872575 737.8159 
L 940.033912 738.244059 
L 941.19525 738.244059 
L 942.356587 735.742797 
L 943.517925 736.753211 
L 944.679262 738.01481 
L 945.8406 738.01481 
L 947.001937 737.037824 
L 948.163275 737.286711 
L 949.324612 738.473974 
L 950.48595 738.820103 
L 951.647287 737.167025 
L 952.808625 737.491383 
L 953.969962 738.255939 
L 955.1313 737.423094 
L 956.292637 737.220448 
L 957.453975 738.662819 
L 958.615312 738.659422 
L 959.77665 738.102368 
L 960.937987 737.897837 
L 962.099325 738.858383 
L 963.260662 738.797665 
L 964.422 738.01196 
L 966.744675 738.00068 
L 967.906012 737.637545 
L 969.06735 737.637545 
L 970.228687 739.000691 
L 972.551362 738.933152 
L 973.7127 736.989995 
L 974.874037 736.989995 
L 976.035375 738.664007 
L 977.196712 738.664007 
L 978.35805 739.046827 
L 980.680725 739.148942 
L 981.842062 738.93815 
L 983.0034 738.93815 
L 984.164737 739.278987 
L 985.326075 739.278987 
L 986.487412 739.046094 
L 987.64875 739.274168 
L 988.810087 739.274168 
L 989.971425 738.79333 
L 991.132762 738.79333 
L 992.2941 738.476652 
L 993.455437 738.308114 
L 994.616775 738.308114 
L 995.778112 738.695552 
L 999.262125 738.721265 
L 1000.423462 736.109726 
L 1001.5848 736.908438 
L 1002.746137 736.910446 
L 1003.907475 736.262072 
L 1005.068812 738.710447 
L 1006.23015 739.063761 
L 1007.391487 739.063761 
L 1009.714162 739.552835 
L 1010.8755 738.137884 
L 1012.036837 738.616727 
L 1013.198175 738.616727 
L 1014.359512 739.243455 
L 1015.52085 739.243455 
L 1016.682187 738.656572 
L 1017.843525 738.656572 
L 1019.004862 739.198058 
L 1020.1662 739.069129 
L 1021.327537 739.069129 
L 1022.488875 739.194441 
L 1023.650212 739.194441 
L 1024.81155 738.63863 
L 1025.972887 738.63863 
L 1027.134225 739.022334 
L 1028.295562 738.319568 
L 1029.4569 738.319568 
L 1030.618237 739.718616 
L 1034.10225 739.69163 
L 1035.263587 739.868326 
L 1036.424925 740.18884 
L 1037.586262 740.18884 
L 1038.7476 739.982548 
L 1039.908937 739.982548 
L 1041.070275 740.22558 
L 1042.231612 740.079742 
L 1043.39295 740.079742 
L 1044.554287 740.332145 
L 1049.199637 740.420431 
L 1050.360975 739.757501 
L 1057.329 739.732365 
L 1058.490337 739.095886 
L 1059.651675 739.095886 
L 1060.813012 737.72314 
L 1061.97435 737.72314 
L 1063.135687 739.747854 
L 1064.297025 739.747854 
L 1065.458362 740.117491 
L 1068.942375 740.211121 
L 1070.103712 740.344637 
L 1071.26505 740.184373 
L 1074.749062 740.286771 
L 1075.9104 738.575787 
L 1077.071737 740.008046 
L 1078.233075 739.262003 
L 1079.394412 740.111935 
L 1080.55575 740.111935 
L 1081.717087 739.843645 
L 1082.878425 739.875146 
L 1084.039762 740.05431 
L 1085.2011 740.094401 
L 1086.362437 739.4128 
L 1087.523775 740.234146 
L 1088.685112 739.784132 
L 1092.169125 739.462747 
L 1093.330462 739.012821 
L 1094.4918 739.686391 
L 1095.653137 739.637103 
L 1096.814475 739.73147 
L 1097.975812 740.102415 
L 1099.13715 740.950719 
L 1100.298487 740.951345 
L 1101.459825 740.32942 
L 1104.943837 740.683774 
L 1106.105175 740.95052 
L 1111.911862 740.969835 
L 1113.0732 734.016339 
L 1114.234537 734.016339 
L 1115.395875 739.36901 
L 1116.557212 740.173833 
L 1117.71855 740.173833 
L 1118.879887 740.48239 
L 1120.041225 740.48239 
L 1121.202562 739.719564 
L 1122.3639 739.719564 
L 1123.525237 740.947248 
L 1124.686575 740.540254 
L 1127.00925 740.646065 
L 1128.170587 740.811825 
L 1129.331925 740.334153 
L 1130.493262 740.486868 
L 1131.6546 740.318314 
L 1132.815937 740.680403 
L 1135.138612 740.741673 
L 1136.29995 740.20933 
L 1137.461287 740.20933 
L 1138.622625 740.851714 
L 1143.267975 740.755253 
L 1144.429312 740.286108 
L 1145.59065 740.286108 
L 1146.751987 740.887023 
L 1150.236 740.820839 
L 1152.558675 740.726753 
L 1154.88135 740.652306 
L 1156.042687 740.743252 
L 1157.204025 740.556332 
L 1158.365362 740.556332 
L 1159.5267 740.959494 
L 1160.688037 740.959494 
L 1161.849375 741.120055 
L 1163.010712 741.120055 
L 1164.17205 740.954339 
L 1165.333387 741.089702 
L 1166.494725 741.089702 
L 1167.656062 740.946951 
L 1168.8174 740.946951 
L 1169.978737 739.768386 
L 1171.140075 740.750341 
L 1172.301412 740.750341 
L 1173.46275 739.977089 
L 1174.624087 739.977089 
L 1175.785425 740.736284 
L 1176.946762 740.736284 
L 1178.1081 741.362627 
L 1179.269437 741.185177 
L 1180.430775 741.185177 
L 1181.592112 736.764115 
L 1182.75345 736.764115 
L 1183.914787 740.87486 
L 1185.076125 740.87486 
L 1186.237462 741.09424 
L 1188.560137 741.134463 
L 1189.721475 739.894858 
L 1190.882812 739.894858 
L 1192.04415 741.203687 
L 1194.366825 741.11765 
L 1196.6895 741.295429 
L 1197.850837 741.116811 
L 1199.012175 741.403029 
L 1201.33485 741.310085 
L 1202.496187 741.600482 
L 1203.657525 741.444441 
L 1204.818862 741.444441 
L 1205.9802 741.089553 
L 1207.141537 741.656792 
L 1208.302875 741.656792 
L 1209.464212 741.064979 
L 1210.62555 741.064979 
L 1211.786887 741.515839 
L 1212.948225 741.515839 
L 1215.2709 740.973037 
L 1216.432237 740.973037 
L 1217.593575 741.405009 
L 1222.238925 741.415512 
L 1223.400262 741.178471 
L 1224.5616 741.178471 
L 1225.722937 740.536358 
L 1226.884275 740.536358 
L 1228.045612 741.107212 
L 1229.20695 741.107212 
L 1231.529625 741.278559 
L 1232.690962 741.278559 
L 1233.8523 740.336075 
L 1235.013637 740.336075 
L 1236.174975 741.683025 
L 1238.49765 741.610159 
L 1245.465675 741.704216 
L 1246.627012 741.43712 
L 1247.78835 741.43712 
L 1248.949687 741.912483 
L 1250.111025 741.912483 
L 1251.272362 742.037229 
L 1252.4337 742.037229 
L 1253.595037 741.692493 
L 1255.917712 741.702374 
L 1257.07905 741.818774 
L 1258.240387 741.651841 
L 1259.401725 741.805512 
L 1260.563062 741.708814 
L 1261.7244 741.20737 
L 1262.885737 741.20737 
L 1264.047075 740.844351 
L 1265.208412 741.961305 
L 1266.36975 741.992813 
L 1267.531087 741.805308 
L 1268.692425 741.856845 
L 1269.853762 741.504891 
L 1271.0151 742.008121 
L 1272.176437 742.023769 
L 1273.337775 741.509733 
L 1274.499112 741.509733 
L 1275.66045 741.702738 
L 1276.821787 741.538762 
L 1277.983125 741.538762 
L 1279.144462 742.084879 
L 1280.3058 742.084879 
L 1281.467137 741.941326 
L 1282.628475 741.941326 
L 1283.789812 742.094093 
L 1290.757837 742.017911 
L 1293.080512 741.922937 
L 1297.725862 741.944835 
L 1298.8872 741.368216 
L 1301.209875 741.426838 
L 1302.371212 742.031308 
L 1303.53255 742.031308 
L 1304.693887 741.786946 
L 1308.1779 741.878704 
L 1309.339237 742.071928 
L 1312.82325 742.040438 
L 1313.984587 741.957501 
L 1315.145925 742.085814 
L 1316.307262 742.085814 
L 1317.4686 742.203239 
L 1318.629937 742.203239 
L 1319.791275 741.993237 
L 1322.11395 742.088748 
L 1323.275287 742.169848 
L 1324.436625 742.126139 
L 1325.597962 741.795373 
L 1329.081975 741.796785 
L 1330.243312 742.031403 
L 1332.565987 742.113125 
L 1333.727325 741.879599 
L 1334.888662 741.879599 
L 1336.05 742.163665 
L 1336.05 742.163665 
" style="fill:none;stroke:#008000;stroke-dasharray:6.000000,6.000000;stroke-dashoffset:0.0;stroke-width:2.0;"/>
   </g>
   <g id="patch_3">
    <path d="M 174.7125 51.3 
L 1336.05 51.3 
" style="fill:none;stroke:#000000;stroke-linecap:square;stroke-linejoin:miter;"/>
   </g>
   <g id="patch_4">
    <path d="M 1336.05 747 
L 1336.05 51.3 
" style="fill:none;stroke:#000000;stroke-linecap:square;stroke-linejoin:miter;"/>
   </g>
   <g id="patch_5">
    <path d="M 174.7125 747 
L 1336.05 747 
" style="fill:none;stroke:#000000;stroke-linecap:square;stroke-linejoin:miter;"/>
   </g>
   <g id="patch_6">
    <path d="M 174.7125 747 
L 174.7125 51.3 
" style="fill:none;stroke:#000000;stroke-linecap:square;stroke-linejoin:miter;"/>
   </g>
   <g id="matplotlib.axis_1">
    <g id="xtick_1">
     <g id="line2d_3">
      <defs>
       <path d="M 0 0 
L 0 -4 
" id="m8ad2b01c04" style="stroke:#000000;stroke-width:0.5;"/>
      </defs>
      <g>
       <use style="stroke:#000000;stroke-width:0.5;" x="174.7125" xlink:href="#m8ad2b01c04" y="747.0"/>
      </g>
     </g>
     <g id="line2d_4">
      <defs>
       <path d="M 0 0 
L 0 4 
" id="m8da84a7887" style="stroke:#000000;stroke-width:0.5;"/>
      </defs>
      <g>
       <use style="stroke:#000000;stroke-width:0.5;" x="174.7125" xlink:href="#m8da84a7887" y="51.3"/>
      </g>
     </g>
     <g id="text_1">
      <!-- 0 -->
      <defs>
       <path d="M 31.78125 66.40625 
Q 24.171875 66.40625 20.328125 58.90625 
Q 16.5 51.421875 16.5 36.375 
Q 16.5 21.390625 20.328125 13.890625 
Q 24.171875 6.390625 31.78125 6.390625 
Q 39.453125 6.390625 43.28125 13.890625 
Q 47.125 21.390625 47.125 36.375 
Q 47.125 51.421875 43.28125 58.90625 
Q 39.453125 66.40625 31.78125 66.40625 
M 31.78125 74.21875 
Q 44.046875 74.21875 50.515625 64.515625 
Q 56.984375 54.828125 56.984375 36.375 
Q 56.984375 17.96875 50.515625 8.265625 
Q 44.046875 -1.421875 31.78125 -1.421875 
Q 19.53125 -1.421875 13.0625 8.265625 
Q 6.59375 17.96875 6.59375 36.375 
Q 6.59375 54.828125 13.0625 64.515625 
Q 19.53125 74.21875 31.78125 74.21875 
" id="BitstreamVeraSans-Roman-30"/>
      </defs>
      <g transform="translate(165.16875 773.7953125)scale(0.3 -0.3)">
       <use xlink:href="#BitstreamVeraSans-Roman-30"/>
      </g>
     </g>
    </g>
    <g id="xtick_2">
     <g id="line2d_5">
      <g>
       <use style="stroke:#000000;stroke-width:0.5;" x="406.98" xlink:href="#m8ad2b01c04" y="747.0"/>
      </g>
     </g>
     <g id="line2d_6">
      <g>
       <use style="stroke:#000000;stroke-width:0.5;" x="406.98" xlink:href="#m8da84a7887" y="51.3"/>
      </g>
     </g>
     <g id="text_2">
      <!-- 20000 -->
      <defs>
       <path d="M 19.1875 8.296875 
L 53.609375 8.296875 
L 53.609375 0 
L 7.328125 0 
L 7.328125 8.296875 
Q 12.9375 14.109375 22.625 23.890625 
Q 32.328125 33.6875 34.8125 36.53125 
Q 39.546875 41.84375 41.421875 45.53125 
Q 43.3125 49.21875 43.3125 52.78125 
Q 43.3125 58.59375 39.234375 62.25 
Q 35.15625 65.921875 28.609375 65.921875 
Q 23.96875 65.921875 18.8125 64.3125 
Q 13.671875 62.703125 7.8125 59.421875 
L 7.8125 69.390625 
Q 13.765625 71.78125 18.9375 73 
Q 24.125 74.21875 28.421875 74.21875 
Q 39.75 74.21875 46.484375 68.546875 
Q 53.21875 62.890625 53.21875 53.421875 
Q 53.21875 48.921875 51.53125 44.890625 
Q 49.859375 40.875 45.40625 35.40625 
Q 44.1875 33.984375 37.640625 27.21875 
Q 31.109375 20.453125 19.1875 8.296875 
" id="BitstreamVeraSans-Roman-32"/>
      </defs>
      <g transform="translate(359.26125 773.7953125)scale(0.3 -0.3)">
       <use xlink:href="#BitstreamVeraSans-Roman-32"/>
       <use x="63.623046875" xlink:href="#BitstreamVeraSans-Roman-30"/>
       <use x="127.24609375" xlink:href="#BitstreamVeraSans-Roman-30"/>
       <use x="190.869140625" xlink:href="#BitstreamVeraSans-Roman-30"/>
       <use x="254.4921875" xlink:href="#BitstreamVeraSans-Roman-30"/>
      </g>
     </g>
    </g>
    <g id="xtick_3">
     <g id="line2d_7">
      <g>
       <use style="stroke:#000000;stroke-width:0.5;" x="639.2475" xlink:href="#m8ad2b01c04" y="747.0"/>
      </g>
     </g>
     <g id="line2d_8">
      <g>
       <use style="stroke:#000000;stroke-width:0.5;" x="639.2475" xlink:href="#m8da84a7887" y="51.3"/>
      </g>
     </g>
     <g id="text_3">
      <!-- 40000 -->
      <defs>
       <path d="M 37.796875 64.3125 
L 12.890625 25.390625 
L 37.796875 25.390625 
z
M 35.203125 72.90625 
L 47.609375 72.90625 
L 47.609375 25.390625 
L 58.015625 25.390625 
L 58.015625 17.1875 
L 47.609375 17.1875 
L 47.609375 0 
L 37.796875 0 
L 37.796875 17.1875 
L 4.890625 17.1875 
L 4.890625 26.703125 
z
" id="BitstreamVeraSans-Roman-34"/>
      </defs>
      <g transform="translate(591.52875 773.7953125)scale(0.3 -0.3)">
       <use xlink:href="#BitstreamVeraSans-Roman-34"/>
       <use x="63.623046875" xlink:href="#BitstreamVeraSans-Roman-30"/>
       <use x="127.24609375" xlink:href="#BitstreamVeraSans-Roman-30"/>
       <use x="190.869140625" xlink:href="#BitstreamVeraSans-Roman-30"/>
       <use x="254.4921875" xlink:href="#BitstreamVeraSans-Roman-30"/>
      </g>
     </g>
    </g>
    <g id="xtick_4">
     <g id="line2d_9">
      <g>
       <use style="stroke:#000000;stroke-width:0.5;" x="871.515" xlink:href="#m8ad2b01c04" y="747.0"/>
      </g>
     </g>
     <g id="line2d_10">
      <g>
       <use style="stroke:#000000;stroke-width:0.5;" x="871.515" xlink:href="#m8da84a7887" y="51.3"/>
      </g>
     </g>
     <g id="text_4">
      <!-- 60000 -->
      <defs>
       <path d="M 33.015625 40.375 
Q 26.375 40.375 22.484375 35.828125 
Q 18.609375 31.296875 18.609375 23.390625 
Q 18.609375 15.53125 22.484375 10.953125 
Q 26.375 6.390625 33.015625 6.390625 
Q 39.65625 6.390625 43.53125 10.953125 
Q 47.40625 15.53125 47.40625 23.390625 
Q 47.40625 31.296875 43.53125 35.828125 
Q 39.65625 40.375 33.015625 40.375 
M 52.59375 71.296875 
L 52.59375 62.3125 
Q 48.875 64.0625 45.09375 64.984375 
Q 41.3125 65.921875 37.59375 65.921875 
Q 27.828125 65.921875 22.671875 59.328125 
Q 17.53125 52.734375 16.796875 39.40625 
Q 19.671875 43.65625 24.015625 45.921875 
Q 28.375 48.1875 33.59375 48.1875 
Q 44.578125 48.1875 50.953125 41.515625 
Q 57.328125 34.859375 57.328125 23.390625 
Q 57.328125 12.15625 50.6875 5.359375 
Q 44.046875 -1.421875 33.015625 -1.421875 
Q 20.359375 -1.421875 13.671875 8.265625 
Q 6.984375 17.96875 6.984375 36.375 
Q 6.984375 53.65625 15.1875 63.9375 
Q 23.390625 74.21875 37.203125 74.21875 
Q 40.921875 74.21875 44.703125 73.484375 
Q 48.484375 72.75 52.59375 71.296875 
" id="BitstreamVeraSans-Roman-36"/>
      </defs>
      <g transform="translate(823.79625 773.7953125)scale(0.3 -0.3)">
       <use xlink:href="#BitstreamVeraSans-Roman-36"/>
       <use x="63.623046875" xlink:href="#BitstreamVeraSans-Roman-30"/>
       <use x="127.24609375" xlink:href="#BitstreamVeraSans-Roman-30"/>
       <use x="190.869140625" xlink:href="#BitstreamVeraSans-Roman-30"/>
       <use x="254.4921875" xlink:href="#BitstreamVeraSans-Roman-30"/>
      </g>
     </g>
    </g>
    <g id="xtick_5">
     <g id="line2d_11">
      <g>
       <use style="stroke:#000000;stroke-width:0.5;" x="1103.7825" xlink:href="#m8ad2b01c04" y="747.0"/>
      </g>
     </g>
     <g id="line2d_12">
      <g>
       <use style="stroke:#000000;stroke-width:0.5;" x="1103.7825" xlink:href="#m8da84a7887" y="51.3"/>
      </g>
     </g>
     <g id="text_5">
      <!-- 80000 -->
      <defs>
       <path d="M 31.78125 34.625 
Q 24.75 34.625 20.71875 30.859375 
Q 16.703125 27.09375 16.703125 20.515625 
Q 16.703125 13.921875 20.71875 10.15625 
Q 24.75 6.390625 31.78125 6.390625 
Q 38.8125 6.390625 42.859375 10.171875 
Q 46.921875 13.96875 46.921875 20.515625 
Q 46.921875 27.09375 42.890625 30.859375 
Q 38.875 34.625 31.78125 34.625 
M 21.921875 38.8125 
Q 15.578125 40.375 12.03125 44.71875 
Q 8.5 49.078125 8.5 55.328125 
Q 8.5 64.0625 14.71875 69.140625 
Q 20.953125 74.21875 31.78125 74.21875 
Q 42.671875 74.21875 48.875 69.140625 
Q 55.078125 64.0625 55.078125 55.328125 
Q 55.078125 49.078125 51.53125 44.71875 
Q 48 40.375 41.703125 38.8125 
Q 48.828125 37.15625 52.796875 32.3125 
Q 56.78125 27.484375 56.78125 20.515625 
Q 56.78125 9.90625 50.3125 4.234375 
Q 43.84375 -1.421875 31.78125 -1.421875 
Q 19.734375 -1.421875 13.25 4.234375 
Q 6.78125 9.90625 6.78125 20.515625 
Q 6.78125 27.484375 10.78125 32.3125 
Q 14.796875 37.15625 21.921875 38.8125 
M 18.3125 54.390625 
Q 18.3125 48.734375 21.84375 45.5625 
Q 25.390625 42.390625 31.78125 42.390625 
Q 38.140625 42.390625 41.71875 45.5625 
Q 45.3125 48.734375 45.3125 54.390625 
Q 45.3125 60.0625 41.71875 63.234375 
Q 38.140625 66.40625 31.78125 66.40625 
Q 25.390625 66.40625 21.84375 63.234375 
Q 18.3125 60.0625 18.3125 54.390625 
" id="BitstreamVeraSans-Roman-38"/>
      </defs>
      <g transform="translate(1056.06375 773.7953125)scale(0.3 -0.3)">
       <use xlink:href="#BitstreamVeraSans-Roman-38"/>
       <use x="63.623046875" xlink:href="#BitstreamVeraSans-Roman-30"/>
       <use x="127.24609375" xlink:href="#BitstreamVeraSans-Roman-30"/>
       <use x="190.869140625" xlink:href="#BitstreamVeraSans-Roman-30"/>
       <use x="254.4921875" xlink:href="#BitstreamVeraSans-Roman-30"/>
      </g>
     </g>
    </g>
    <g id="xtick_6">
     <g id="line2d_13">
      <g>
       <use style="stroke:#000000;stroke-width:0.5;" x="1336.05" xlink:href="#m8ad2b01c04" y="747.0"/>
      </g>
     </g>
     <g id="line2d_14">
      <g>
       <use style="stroke:#000000;stroke-width:0.5;" x="1336.05" xlink:href="#m8da84a7887" y="51.3"/>
      </g>
     </g>
     <g id="text_6">
      <!-- 100000 -->
      <defs>
       <path d="M 12.40625 8.296875 
L 28.515625 8.296875 
L 28.515625 63.921875 
L 10.984375 60.40625 
L 10.984375 69.390625 
L 28.421875 72.90625 
L 38.28125 72.90625 
L 38.28125 8.296875 
L 54.390625 8.296875 
L 54.390625 0 
L 12.40625 0 
z
" id="BitstreamVeraSans-Roman-31"/>
      </defs>
      <g transform="translate(1278.7875 773.7953125)scale(0.3 -0.3)">
       <use xlink:href="#BitstreamVeraSans-Roman-31"/>
       <use x="63.623046875" xlink:href="#BitstreamVeraSans-Roman-30"/>
       <use x="127.24609375" xlink:href="#BitstreamVeraSans-Roman-30"/>
       <use x="190.869140625" xlink:href="#BitstreamVeraSans-Roman-30"/>
       <use x="254.4921875" xlink:href="#BitstreamVeraSans-Roman-30"/>
       <use x="318.115234375" xlink:href="#BitstreamVeraSans-Roman-30"/>
      </g>
     </g>
    </g>
    <g id="text_7">
     <!-- iterations -->
     <defs>
      <path d="M 54.890625 33.015625 
L 54.890625 0 
L 45.90625 0 
L 45.90625 32.71875 
Q 45.90625 40.484375 42.875 44.328125 
Q 39.84375 48.1875 33.796875 48.1875 
Q 26.515625 48.1875 22.3125 43.546875 
Q 18.109375 38.921875 18.109375 30.90625 
L 18.109375 0 
L 9.078125 0 
L 9.078125 54.6875 
L 18.109375 54.6875 
L 18.109375 46.1875 
Q 21.34375 51.125 25.703125 53.5625 
Q 30.078125 56 35.796875 56 
Q 45.21875 56 50.046875 50.171875 
Q 54.890625 44.34375 54.890625 33.015625 
" id="BitstreamVeraSans-Roman-6e"/>
      <path d="M 34.28125 27.484375 
Q 23.390625 27.484375 19.1875 25 
Q 14.984375 22.515625 14.984375 16.5 
Q 14.984375 11.71875 18.140625 8.90625 
Q 21.296875 6.109375 26.703125 6.109375 
Q 34.1875 6.109375 38.703125 11.40625 
Q 43.21875 16.703125 43.21875 25.484375 
L 43.21875 27.484375 
z
M 52.203125 31.203125 
L 52.203125 0 
L 43.21875 0 
L 43.21875 8.296875 
Q 40.140625 3.328125 35.546875 0.953125 
Q 30.953125 -1.421875 24.3125 -1.421875 
Q 15.921875 -1.421875 10.953125 3.296875 
Q 6 8.015625 6 15.921875 
Q 6 25.140625 12.171875 29.828125 
Q 18.359375 34.515625 30.609375 34.515625 
L 43.21875 34.515625 
L 43.21875 35.40625 
Q 43.21875 41.609375 39.140625 45 
Q 35.0625 48.390625 27.6875 48.390625 
Q 23 48.390625 18.546875 47.265625 
Q 14.109375 46.140625 10.015625 43.890625 
L 10.015625 52.203125 
Q 14.9375 54.109375 19.578125 55.046875 
Q 24.21875 56 28.609375 56 
Q 40.484375 56 46.34375 49.84375 
Q 52.203125 43.703125 52.203125 31.203125 
" id="BitstreamVeraSans-Roman-61"/>
      <path d="M 30.609375 48.390625 
Q 23.390625 48.390625 19.1875 42.75 
Q 14.984375 37.109375 14.984375 27.296875 
Q 14.984375 17.484375 19.15625 11.84375 
Q 23.34375 6.203125 30.609375 6.203125 
Q 37.796875 6.203125 41.984375 11.859375 
Q 46.1875 17.53125 46.1875 27.296875 
Q 46.1875 37.015625 41.984375 42.703125 
Q 37.796875 48.390625 30.609375 48.390625 
M 30.609375 56 
Q 42.328125 56 49.015625 48.375 
Q 55.71875 40.765625 55.71875 27.296875 
Q 55.71875 13.875 49.015625 6.21875 
Q 42.328125 -1.421875 30.609375 -1.421875 
Q 18.84375 -1.421875 12.171875 6.21875 
Q 5.515625 13.875 5.515625 27.296875 
Q 5.515625 40.765625 12.171875 48.375 
Q 18.84375 56 30.609375 56 
" id="BitstreamVeraSans-Roman-6f"/>
      <path d="M 9.421875 54.6875 
L 18.40625 54.6875 
L 18.40625 0 
L 9.421875 0 
z
M 9.421875 75.984375 
L 18.40625 75.984375 
L 18.40625 64.59375 
L 9.421875 64.59375 
z
" id="BitstreamVeraSans-Roman-69"/>
      <path d="M 56.203125 29.59375 
L 56.203125 25.203125 
L 14.890625 25.203125 
Q 15.484375 15.921875 20.484375 11.0625 
Q 25.484375 6.203125 34.421875 6.203125 
Q 39.59375 6.203125 44.453125 7.46875 
Q 49.3125 8.734375 54.109375 11.28125 
L 54.109375 2.78125 
Q 49.265625 0.734375 44.1875 -0.34375 
Q 39.109375 -1.421875 33.890625 -1.421875 
Q 20.796875 -1.421875 13.15625 6.1875 
Q 5.515625 13.8125 5.515625 26.8125 
Q 5.515625 40.234375 12.765625 48.109375 
Q 20.015625 56 32.328125 56 
Q 43.359375 56 49.78125 48.890625 
Q 56.203125 41.796875 56.203125 29.59375 
M 47.21875 32.234375 
Q 47.125 39.59375 43.09375 43.984375 
Q 39.0625 48.390625 32.421875 48.390625 
Q 24.90625 48.390625 20.390625 44.140625 
Q 15.875 39.890625 15.1875 32.171875 
z
" id="BitstreamVeraSans-Roman-65"/>
      <path d="M 18.3125 70.21875 
L 18.3125 54.6875 
L 36.8125 54.6875 
L 36.8125 47.703125 
L 18.3125 47.703125 
L 18.3125 18.015625 
Q 18.3125 11.328125 20.140625 9.421875 
Q 21.96875 7.515625 27.59375 7.515625 
L 36.8125 7.515625 
L 36.8125 0 
L 27.59375 0 
Q 17.1875 0 13.234375 3.875 
Q 9.28125 7.765625 9.28125 18.015625 
L 9.28125 47.703125 
L 2.6875 47.703125 
L 2.6875 54.6875 
L 9.28125 54.6875 
L 9.28125 70.21875 
z
" id="BitstreamVeraSans-Roman-74"/>
      <path d="M 41.109375 46.296875 
Q 39.59375 47.171875 37.8125 47.578125 
Q 36.03125 48 33.890625 48 
Q 26.265625 48 22.1875 43.046875 
Q 18.109375 38.09375 18.109375 28.8125 
L 18.109375 0 
L 9.078125 0 
L 9.078125 54.6875 
L 18.109375 54.6875 
L 18.109375 46.1875 
Q 20.953125 51.171875 25.484375 53.578125 
Q 30.03125 56 36.53125 56 
Q 37.453125 56 38.578125 55.875 
Q 39.703125 55.765625 41.0625 55.515625 
z
" id="BitstreamVeraSans-Roman-72"/>
      <path d="M 44.28125 53.078125 
L 44.28125 44.578125 
Q 40.484375 46.53125 36.375 47.5 
Q 32.28125 48.484375 27.875 48.484375 
Q 21.1875 48.484375 17.84375 46.4375 
Q 14.5 44.390625 14.5 40.28125 
Q 14.5 37.15625 16.890625 35.375 
Q 19.28125 33.59375 26.515625 31.984375 
L 29.59375 31.296875 
Q 39.15625 29.25 43.1875 25.515625 
Q 47.21875 21.78125 47.21875 15.09375 
Q 47.21875 7.46875 41.1875 3.015625 
Q 35.15625 -1.421875 24.609375 -1.421875 
Q 20.21875 -1.421875 15.453125 -0.5625 
Q 10.6875 0.296875 5.421875 2 
L 5.421875 11.28125 
Q 10.40625 8.6875 15.234375 7.390625 
Q 20.0625 6.109375 24.8125 6.109375 
Q 31.15625 6.109375 34.5625 8.28125 
Q 37.984375 10.453125 37.984375 14.40625 
Q 37.984375 18.0625 35.515625 20.015625 
Q 33.0625 21.96875 24.703125 23.78125 
L 21.578125 24.515625 
Q 13.234375 26.265625 9.515625 29.90625 
Q 5.8125 33.546875 5.8125 39.890625 
Q 5.8125 47.609375 11.28125 51.796875 
Q 16.75 56 26.8125 56 
Q 31.78125 56 36.171875 55.265625 
Q 40.578125 54.546875 44.28125 53.078125 
" id="BitstreamVeraSans-Roman-73"/>
     </defs>
     <g transform="translate(684.19921875 807.8296875)scale(0.3 -0.3)">
      <use xlink:href="#BitstreamVeraSans-Roman-69"/>
      <use x="27.783203125" xlink:href="#BitstreamVeraSans-Roman-74"/>
      <use x="66.9921875" xlink:href="#BitstreamVeraSans-Roman-65"/>
      <use x="128.515625" xlink:href="#BitstreamVeraSans-Roman-72"/>
      <use x="169.62890625" xlink:href="#BitstreamVeraSans-Roman-61"/>
      <use x="230.908203125" xlink:href="#BitstreamVeraSans-Roman-74"/>
      <use x="270.1171875" xlink:href="#BitstreamVeraSans-Roman-69"/>
      <use x="297.900390625" xlink:href="#BitstreamVeraSans-Roman-6f"/>
      <use x="359.08203125" xlink:href="#BitstreamVeraSans-Roman-6e"/>
      <use x="422.4609375" xlink:href="#BitstreamVeraSans-Roman-73"/>
     </g>
    </g>
   </g>
   <g id="matplotlib.axis_2">
    <g id="ytick_1">
     <g id="line2d_15">
      <defs>
       <path d="M 0 0 
L 4 0 
" id="m227008caed" style="stroke:#000000;stroke-width:0.5;"/>
      </defs>
      <g>
       <use style="stroke:#000000;stroke-width:0.5;" x="174.7125" xlink:href="#m227008caed" y="747.0"/>
      </g>
     </g>
     <g id="line2d_16">
      <defs>
       <path d="M 0 0 
L -4 0 
" id="mae8a0ee139" style="stroke:#000000;stroke-width:0.5;"/>
      </defs>
      <g>
       <use style="stroke:#000000;stroke-width:0.5;" x="1336.05" xlink:href="#mae8a0ee139" y="747.0"/>
      </g>
     </g>
     <g id="text_8">
      <!-- 0 -->
      <g transform="translate(151.625 755.278125)scale(0.3 -0.3)">
       <use xlink:href="#BitstreamVeraSans-Roman-30"/>
      </g>
     </g>
    </g>
    <g id="ytick_2">
     <g id="line2d_17">
      <g>
       <use style="stroke:#000000;stroke-width:0.5;" x="174.7125" xlink:href="#m227008caed" y="631.05"/>
      </g>
     </g>
     <g id="line2d_18">
      <g>
       <use style="stroke:#000000;stroke-width:0.5;" x="1336.05" xlink:href="#mae8a0ee139" y="631.05"/>
      </g>
     </g>
     <g id="text_9">
      <!-- 500 -->
      <defs>
       <path d="M 10.796875 72.90625 
L 49.515625 72.90625 
L 49.515625 64.59375 
L 19.828125 64.59375 
L 19.828125 46.734375 
Q 21.96875 47.46875 24.109375 47.828125 
Q 26.265625 48.1875 28.421875 48.1875 
Q 40.625 48.1875 47.75 41.5 
Q 54.890625 34.8125 54.890625 23.390625 
Q 54.890625 11.625 47.5625 5.09375 
Q 40.234375 -1.421875 26.90625 -1.421875 
Q 22.3125 -1.421875 17.546875 -0.640625 
Q 12.796875 0.140625 7.71875 1.703125 
L 7.71875 11.625 
Q 12.109375 9.234375 16.796875 8.0625 
Q 21.484375 6.890625 26.703125 6.890625 
Q 35.15625 6.890625 40.078125 11.328125 
Q 45.015625 15.765625 45.015625 23.390625 
Q 45.015625 31 40.078125 35.4375 
Q 35.15625 39.890625 26.703125 39.890625 
Q 22.75 39.890625 18.8125 39.015625 
Q 14.890625 38.140625 10.796875 36.28125 
z
" id="BitstreamVeraSans-Roman-35"/>
      </defs>
      <g transform="translate(113.45 639.328125)scale(0.3 -0.3)">
       <use xlink:href="#BitstreamVeraSans-Roman-35"/>
       <use x="63.623046875" xlink:href="#BitstreamVeraSans-Roman-30"/>
       <use x="127.24609375" xlink:href="#BitstreamVeraSans-Roman-30"/>
      </g>
     </g>
    </g>
    <g id="ytick_3">
     <g id="line2d_19">
      <g>
       <use style="stroke:#000000;stroke-width:0.5;" x="174.7125" xlink:href="#m227008caed" y="515.1"/>
      </g>
     </g>
     <g id="line2d_20">
      <g>
       <use style="stroke:#000000;stroke-width:0.5;" x="1336.05" xlink:href="#mae8a0ee139" y="515.1"/>
      </g>
     </g>
     <g id="text_10">
      <!-- 1000 -->
      <g transform="translate(94.3625 523.378125)scale(0.3 -0.3)">
       <use xlink:href="#BitstreamVeraSans-Roman-31"/>
       <use x="63.623046875" xlink:href="#BitstreamVeraSans-Roman-30"/>
       <use x="127.24609375" xlink:href="#BitstreamVeraSans-Roman-30"/>
       <use x="190.869140625" xlink:href="#BitstreamVeraSans-Roman-30"/>
      </g>
     </g>
    </g>
    <g id="ytick_4">
     <g id="line2d_21">
      <g>
       <use style="stroke:#000000;stroke-width:0.5;" x="174.7125" xlink:href="#m227008caed" y="399.15"/>
      </g>
     </g>
     <g id="line2d_22">
      <g>
       <use style="stroke:#000000;stroke-width:0.5;" x="1336.05" xlink:href="#mae8a0ee139" y="399.15"/>
      </g>
     </g>
     <g id="text_11">
      <!-- 1500 -->
      <g transform="translate(94.3625 407.428125)scale(0.3 -0.3)">
       <use xlink:href="#BitstreamVeraSans-Roman-31"/>
       <use x="63.623046875" xlink:href="#BitstreamVeraSans-Roman-35"/>
       <use x="127.24609375" xlink:href="#BitstreamVeraSans-Roman-30"/>
       <use x="190.869140625" xlink:href="#BitstreamVeraSans-Roman-30"/>
      </g>
     </g>
    </g>
    <g id="ytick_5">
     <g id="line2d_23">
      <g>
       <use style="stroke:#000000;stroke-width:0.5;" x="174.7125" xlink:href="#m227008caed" y="283.2"/>
      </g>
     </g>
     <g id="line2d_24">
      <g>
       <use style="stroke:#000000;stroke-width:0.5;" x="1336.05" xlink:href="#mae8a0ee139" y="283.2"/>
      </g>
     </g>
     <g id="text_12">
      <!-- 2000 -->
      <g transform="translate(94.3625 291.478125)scale(0.3 -0.3)">
       <use xlink:href="#BitstreamVeraSans-Roman-32"/>
       <use x="63.623046875" xlink:href="#BitstreamVeraSans-Roman-30"/>
       <use x="127.24609375" xlink:href="#BitstreamVeraSans-Roman-30"/>
       <use x="190.869140625" xlink:href="#BitstreamVeraSans-Roman-30"/>
      </g>
     </g>
    </g>
    <g id="ytick_6">
     <g id="line2d_25">
      <g>
       <use style="stroke:#000000;stroke-width:0.5;" x="174.7125" xlink:href="#m227008caed" y="167.25"/>
      </g>
     </g>
     <g id="line2d_26">
      <g>
       <use style="stroke:#000000;stroke-width:0.5;" x="1336.05" xlink:href="#mae8a0ee139" y="167.25"/>
      </g>
     </g>
     <g id="text_13">
      <!-- 2500 -->
      <g transform="translate(94.3625 175.528125)scale(0.3 -0.3)">
       <use xlink:href="#BitstreamVeraSans-Roman-32"/>
       <use x="63.623046875" xlink:href="#BitstreamVeraSans-Roman-35"/>
       <use x="127.24609375" xlink:href="#BitstreamVeraSans-Roman-30"/>
       <use x="190.869140625" xlink:href="#BitstreamVeraSans-Roman-30"/>
      </g>
     </g>
    </g>
    <g id="ytick_7">
     <g id="line2d_27">
      <g>
       <use style="stroke:#000000;stroke-width:0.5;" x="174.7125" xlink:href="#m227008caed" y="51.3"/>
      </g>
     </g>
     <g id="line2d_28">
      <g>
       <use style="stroke:#000000;stroke-width:0.5;" x="1336.05" xlink:href="#mae8a0ee139" y="51.3"/>
      </g>
     </g>
     <g id="text_14">
      <!-- 3000 -->
      <defs>
       <path d="M 40.578125 39.3125 
Q 47.65625 37.796875 51.625 33 
Q 55.609375 28.21875 55.609375 21.1875 
Q 55.609375 10.40625 48.1875 4.484375 
Q 40.765625 -1.421875 27.09375 -1.421875 
Q 22.515625 -1.421875 17.65625 -0.515625 
Q 12.796875 0.390625 7.625 2.203125 
L 7.625 11.71875 
Q 11.71875 9.328125 16.59375 8.109375 
Q 21.484375 6.890625 26.8125 6.890625 
Q 36.078125 6.890625 40.9375 10.546875 
Q 45.796875 14.203125 45.796875 21.1875 
Q 45.796875 27.640625 41.28125 31.265625 
Q 36.765625 34.90625 28.71875 34.90625 
L 20.21875 34.90625 
L 20.21875 43.015625 
L 29.109375 43.015625 
Q 36.375 43.015625 40.234375 45.921875 
Q 44.09375 48.828125 44.09375 54.296875 
Q 44.09375 59.90625 40.109375 62.90625 
Q 36.140625 65.921875 28.71875 65.921875 
Q 24.65625 65.921875 20.015625 65.03125 
Q 15.375 64.15625 9.8125 62.3125 
L 9.8125 71.09375 
Q 15.4375 72.65625 20.34375 73.4375 
Q 25.25 74.21875 29.59375 74.21875 
Q 40.828125 74.21875 47.359375 69.109375 
Q 53.90625 64.015625 53.90625 55.328125 
Q 53.90625 49.265625 50.4375 45.09375 
Q 46.96875 40.921875 40.578125 39.3125 
" id="BitstreamVeraSans-Roman-33"/>
      </defs>
      <g transform="translate(94.3625 59.578125)scale(0.3 -0.3)">
       <use xlink:href="#BitstreamVeraSans-Roman-33"/>
       <use x="63.623046875" xlink:href="#BitstreamVeraSans-Roman-30"/>
       <use x="127.24609375" xlink:href="#BitstreamVeraSans-Roman-30"/>
       <use x="190.869140625" xlink:href="#BitstreamVeraSans-Roman-30"/>
      </g>
     </g>
    </g>
    <g id="text_15">
     <!-- log(loss) -->
     <defs>
      <path d="M 8.015625 75.875 
L 15.828125 75.875 
Q 23.140625 64.359375 26.78125 53.3125 
Q 30.421875 42.28125 30.421875 31.390625 
Q 30.421875 20.453125 26.78125 9.375 
Q 23.140625 -1.703125 15.828125 -13.1875 
L 8.015625 -13.1875 
Q 14.5 -2 17.703125 9.0625 
Q 20.90625 20.125 20.90625 31.390625 
Q 20.90625 42.671875 17.703125 53.65625 
Q 14.5 64.65625 8.015625 75.875 
" id="BitstreamVeraSans-Roman-29"/>
      <path d="M 31 75.875 
Q 24.46875 64.65625 21.28125 53.65625 
Q 18.109375 42.671875 18.109375 31.390625 
Q 18.109375 20.125 21.3125 9.0625 
Q 24.515625 -2 31 -13.1875 
L 23.1875 -13.1875 
Q 15.875 -1.703125 12.234375 9.375 
Q 8.59375 20.453125 8.59375 31.390625 
Q 8.59375 42.28125 12.203125 53.3125 
Q 15.828125 64.359375 23.1875 75.875 
z
" id="BitstreamVeraSans-Roman-28"/>
      <path d="M 45.40625 27.984375 
Q 45.40625 37.75 41.375 43.109375 
Q 37.359375 48.484375 30.078125 48.484375 
Q 22.859375 48.484375 18.828125 43.109375 
Q 14.796875 37.75 14.796875 27.984375 
Q 14.796875 18.265625 18.828125 12.890625 
Q 22.859375 7.515625 30.078125 7.515625 
Q 37.359375 7.515625 41.375 12.890625 
Q 45.40625 18.265625 45.40625 27.984375 
M 54.390625 6.78125 
Q 54.390625 -7.171875 48.1875 -13.984375 
Q 42 -20.796875 29.203125 -20.796875 
Q 24.46875 -20.796875 20.265625 -20.09375 
Q 16.0625 -19.390625 12.109375 -17.921875 
L 12.109375 -9.1875 
Q 16.0625 -11.328125 19.921875 -12.34375 
Q 23.78125 -13.375 27.78125 -13.375 
Q 36.625 -13.375 41.015625 -8.765625 
Q 45.40625 -4.15625 45.40625 5.171875 
L 45.40625 9.625 
Q 42.625 4.78125 38.28125 2.390625 
Q 33.9375 0 27.875 0 
Q 17.828125 0 11.671875 7.65625 
Q 5.515625 15.328125 5.515625 27.984375 
Q 5.515625 40.671875 11.671875 48.328125 
Q 17.828125 56 27.875 56 
Q 33.9375 56 38.28125 53.609375 
Q 42.625 51.21875 45.40625 46.390625 
L 45.40625 54.6875 
L 54.390625 54.6875 
z
" id="BitstreamVeraSans-Roman-67"/>
      <path d="M 9.421875 75.984375 
L 18.40625 75.984375 
L 18.40625 0 
L 9.421875 0 
z
" id="BitstreamVeraSans-Roman-6c"/>
     </defs>
     <g transform="translate(83.1234375 462.69609375)rotate(-90.0)scale(0.3 -0.3)">
      <use xlink:href="#BitstreamVeraSans-Roman-6c"/>
      <use x="27.783203125" xlink:href="#BitstreamVeraSans-Roman-6f"/>
      <use x="88.96484375" xlink:href="#BitstreamVeraSans-Roman-67"/>
      <use x="152.44140625" xlink:href="#BitstreamVeraSans-Roman-28"/>
      <use x="191.455078125" xlink:href="#BitstreamVeraSans-Roman-6c"/>
      <use x="219.23828125" xlink:href="#BitstreamVeraSans-Roman-6f"/>
      <use x="280.419921875" xlink:href="#BitstreamVeraSans-Roman-73"/>
      <use x="332.51953125" xlink:href="#BitstreamVeraSans-Roman-73"/>
      <use x="384.619140625" xlink:href="#BitstreamVeraSans-Roman-29"/>
     </g>
    </g>
   </g>
   <g id="legend_1">
    <g id="patch_7">
     <path d="M 843.876562 163.36875 
L 1321.05 163.36875 
L 1321.05 66.3 
L 843.876562 66.3 
z
" style="fill:#ffffff;stroke:#000000;stroke-linejoin:miter;"/>
    </g>
    <g id="line2d_29">
     <path d="M 864.876562 90.595312 
L 906.876562 90.595312 
" style="fill:none;stroke:#0000ff;stroke-linecap:square;stroke-width:2.0;"/>
    </g>
    <g id="line2d_30"/>
    <g id="text_16">
     <!-- random: step=0.068750 -->
     <defs>
      <path id="BitstreamVeraSans-Roman-20"/>
      <path d="M 8.203125 72.90625 
L 55.078125 72.90625 
L 55.078125 68.703125 
L 28.609375 0 
L 18.3125 0 
L 43.21875 64.59375 
L 8.203125 64.59375 
z
" id="BitstreamVeraSans-Roman-37"/>
      <path d="M 52 44.1875 
Q 55.375 50.25 60.0625 53.125 
Q 64.75 56 71.09375 56 
Q 79.640625 56 84.28125 50.015625 
Q 88.921875 44.046875 88.921875 33.015625 
L 88.921875 0 
L 79.890625 0 
L 79.890625 32.71875 
Q 79.890625 40.578125 77.09375 44.375 
Q 74.3125 48.1875 68.609375 48.1875 
Q 61.625 48.1875 57.5625 43.546875 
Q 53.515625 38.921875 53.515625 30.90625 
L 53.515625 0 
L 44.484375 0 
L 44.484375 32.71875 
Q 44.484375 40.625 41.703125 44.40625 
Q 38.921875 48.1875 33.109375 48.1875 
Q 26.21875 48.1875 22.15625 43.53125 
Q 18.109375 38.875 18.109375 30.90625 
L 18.109375 0 
L 9.078125 0 
L 9.078125 54.6875 
L 18.109375 54.6875 
L 18.109375 46.1875 
Q 21.1875 51.21875 25.484375 53.609375 
Q 29.78125 56 35.6875 56 
Q 41.65625 56 45.828125 52.96875 
Q 50 49.953125 52 44.1875 
" id="BitstreamVeraSans-Roman-6d"/>
      <path d="M 11.71875 12.40625 
L 22.015625 12.40625 
L 22.015625 0 
L 11.71875 0 
z
M 11.71875 51.703125 
L 22.015625 51.703125 
L 22.015625 39.3125 
L 11.71875 39.3125 
z
" id="BitstreamVeraSans-Roman-3a"/>
      <path d="M 10.6875 12.40625 
L 21 12.40625 
L 21 0 
L 10.6875 0 
z
" id="BitstreamVeraSans-Roman-2e"/>
      <path d="M 10.59375 45.40625 
L 73.1875 45.40625 
L 73.1875 37.203125 
L 10.59375 37.203125 
z
M 10.59375 25.484375 
L 73.1875 25.484375 
L 73.1875 17.1875 
L 10.59375 17.1875 
z
" id="BitstreamVeraSans-Roman-3d"/>
      <path d="M 45.40625 46.390625 
L 45.40625 75.984375 
L 54.390625 75.984375 
L 54.390625 0 
L 45.40625 0 
L 45.40625 8.203125 
Q 42.578125 3.328125 38.25 0.953125 
Q 33.9375 -1.421875 27.875 -1.421875 
Q 17.96875 -1.421875 11.734375 6.484375 
Q 5.515625 14.40625 5.515625 27.296875 
Q 5.515625 40.1875 11.734375 48.09375 
Q 17.96875 56 27.875 56 
Q 33.9375 56 38.25 53.625 
Q 42.578125 51.265625 45.40625 46.390625 
M 14.796875 27.296875 
Q 14.796875 17.390625 18.875 11.75 
Q 22.953125 6.109375 30.078125 6.109375 
Q 37.203125 6.109375 41.296875 11.75 
Q 45.40625 17.390625 45.40625 27.296875 
Q 45.40625 37.203125 41.296875 42.84375 
Q 37.203125 48.484375 30.078125 48.484375 
Q 22.953125 48.484375 18.875 42.84375 
Q 14.796875 37.203125 14.796875 27.296875 
" id="BitstreamVeraSans-Roman-64"/>
      <path d="M 18.109375 8.203125 
L 18.109375 -20.796875 
L 9.078125 -20.796875 
L 9.078125 54.6875 
L 18.109375 54.6875 
L 18.109375 46.390625 
Q 20.953125 51.265625 25.265625 53.625 
Q 29.59375 56 35.59375 56 
Q 45.5625 56 51.78125 48.09375 
Q 58.015625 40.1875 58.015625 27.296875 
Q 58.015625 14.40625 51.78125 6.484375 
Q 45.5625 -1.421875 35.59375 -1.421875 
Q 29.59375 -1.421875 25.265625 0.953125 
Q 20.953125 3.328125 18.109375 8.203125 
M 48.6875 27.296875 
Q 48.6875 37.203125 44.609375 42.84375 
Q 40.53125 48.484375 33.40625 48.484375 
Q 26.265625 48.484375 22.1875 42.84375 
Q 18.109375 37.203125 18.109375 27.296875 
Q 18.109375 17.390625 22.1875 11.75 
Q 26.265625 6.109375 33.40625 6.109375 
Q 40.53125 6.109375 44.609375 11.75 
Q 48.6875 17.390625 48.6875 27.296875 
" id="BitstreamVeraSans-Roman-70"/>
     </defs>
     <g transform="translate(939.8765625 101.0953125)scale(0.3 -0.3)">
      <use xlink:href="#BitstreamVeraSans-Roman-72"/>
      <use x="41.11328125" xlink:href="#BitstreamVeraSans-Roman-61"/>
      <use x="102.392578125" xlink:href="#BitstreamVeraSans-Roman-6e"/>
      <use x="165.771484375" xlink:href="#BitstreamVeraSans-Roman-64"/>
      <use x="229.248046875" xlink:href="#BitstreamVeraSans-Roman-6f"/>
      <use x="290.4296875" xlink:href="#BitstreamVeraSans-Roman-6d"/>
      <use x="387.841796875" xlink:href="#BitstreamVeraSans-Roman-3a"/>
      <use x="421.533203125" xlink:href="#BitstreamVeraSans-Roman-20"/>
      <use x="453.3203125" xlink:href="#BitstreamVeraSans-Roman-73"/>
      <use x="505.419921875" xlink:href="#BitstreamVeraSans-Roman-74"/>
      <use x="544.62890625" xlink:href="#BitstreamVeraSans-Roman-65"/>
      <use x="606.15234375" xlink:href="#BitstreamVeraSans-Roman-70"/>
      <use x="669.62890625" xlink:href="#BitstreamVeraSans-Roman-3d"/>
      <use x="753.41796875" xlink:href="#BitstreamVeraSans-Roman-30"/>
      <use x="817.041015625" xlink:href="#BitstreamVeraSans-Roman-2e"/>
      <use x="848.828125" xlink:href="#BitstreamVeraSans-Roman-30"/>
      <use x="912.451171875" xlink:href="#BitstreamVeraSans-Roman-36"/>
      <use x="976.07421875" xlink:href="#BitstreamVeraSans-Roman-38"/>
      <use x="1039.69726562" xlink:href="#BitstreamVeraSans-Roman-37"/>
      <use x="1103.3203125" xlink:href="#BitstreamVeraSans-Roman-35"/>
      <use x="1166.94335938" xlink:href="#BitstreamVeraSans-Roman-30"/>
     </g>
    </g>
    <g id="line2d_31">
     <path d="M 864.876562 134.629687 
L 906.876562 134.629687 
" style="fill:none;stroke:#008000;stroke-dasharray:6.000000,6.000000;stroke-dashoffset:0.0;stroke-width:2.0;"/>
    </g>
    <g id="line2d_32"/>
    <g id="text_17">
     <!-- corr: step=0.068750 -->
     <defs>
      <path d="M 48.78125 52.59375 
L 48.78125 44.1875 
Q 44.96875 46.296875 41.140625 47.34375 
Q 37.3125 48.390625 33.40625 48.390625 
Q 24.65625 48.390625 19.8125 42.84375 
Q 14.984375 37.3125 14.984375 27.296875 
Q 14.984375 17.28125 19.8125 11.734375 
Q 24.65625 6.203125 33.40625 6.203125 
Q 37.3125 6.203125 41.140625 7.25 
Q 44.96875 8.296875 48.78125 10.40625 
L 48.78125 2.09375 
Q 45.015625 0.34375 40.984375 -0.53125 
Q 36.96875 -1.421875 32.421875 -1.421875 
Q 20.0625 -1.421875 12.78125 6.34375 
Q 5.515625 14.109375 5.515625 27.296875 
Q 5.515625 40.671875 12.859375 48.328125 
Q 20.21875 56 33.015625 56 
Q 37.15625 56 41.109375 55.140625 
Q 45.0625 54.296875 48.78125 52.59375 
" id="BitstreamVeraSans-Roman-63"/>
     </defs>
     <g transform="translate(939.8765625 145.1296875)scale(0.3 -0.3)">
      <use xlink:href="#BitstreamVeraSans-Roman-63"/>
      <use x="54.98046875" xlink:href="#BitstreamVeraSans-Roman-6f"/>
      <use x="116.162109375" xlink:href="#BitstreamVeraSans-Roman-72"/>
      <use x="157.259765625" xlink:href="#BitstreamVeraSans-Roman-72"/>
      <use x="198.357421875" xlink:href="#BitstreamVeraSans-Roman-3a"/>
      <use x="232.048828125" xlink:href="#BitstreamVeraSans-Roman-20"/>
      <use x="263.8359375" xlink:href="#BitstreamVeraSans-Roman-73"/>
      <use x="315.935546875" xlink:href="#BitstreamVeraSans-Roman-74"/>
      <use x="355.14453125" xlink:href="#BitstreamVeraSans-Roman-65"/>
      <use x="416.66796875" xlink:href="#BitstreamVeraSans-Roman-70"/>
      <use x="480.14453125" xlink:href="#BitstreamVeraSans-Roman-3d"/>
      <use x="563.93359375" xlink:href="#BitstreamVeraSans-Roman-30"/>
      <use x="627.556640625" xlink:href="#BitstreamVeraSans-Roman-2e"/>
      <use x="659.34375" xlink:href="#BitstreamVeraSans-Roman-30"/>
      <use x="722.966796875" xlink:href="#BitstreamVeraSans-Roman-36"/>
      <use x="786.58984375" xlink:href="#BitstreamVeraSans-Roman-38"/>
      <use x="850.212890625" xlink:href="#BitstreamVeraSans-Roman-37"/>
      <use x="913.8359375" xlink:href="#BitstreamVeraSans-Roman-35"/>
      <use x="977.458984375" xlink:href="#BitstreamVeraSans-Roman-30"/>
     </g>
    </g>
   </g>
  </g>
 </g>
 <defs>
  <clipPath id="p11e39bcece">
   <rect height="695.7" width="1161.3375" x="174.7125" y="51.3"/>
  </clipPath>
 </defs>
</svg>
