<?xml version="1.0" encoding="utf-8" standalone="no"?>
<!DOCTYPE svg PUBLIC "-//W3C//DTD SVG 1.1//EN"
  "http://www.w3.org/Graphics/SVG/1.1/DTD/svg11.dtd">
<!-- Created with matplotlib (http://matplotlib.org/) -->
<svg height="864pt" version="1.1" viewBox="0 0 1440 864" width="1440pt" xmlns="http://www.w3.org/2000/svg" xmlns:xlink="http://www.w3.org/1999/xlink">
 <defs>
  <style type="text/css">
*{stroke-linecap:butt;stroke-linejoin:round;stroke-miterlimit:100000;}
  </style>
 </defs>
 <g id="figure_1">
  <g id="patch_1">
   <path d="M 0 864 
L 1440 864 
L 1440 0 
L 0 0 
z
" style="fill:#ffffff;"/>
  </g>
  <g id="axes_1">
   <g id="patch_2">
    <path d="M 198.5625 747 
L 1336.05 747 
L 1336.05 51.3 
L 198.5625 51.3 
z
" style="fill:#ffffff;"/>
   </g>
   <g id="line2d_1">
    <path clip-path="url(#pf53d777269)" d="M 199.699988 370.986518 
L 200.837475 516.443474 
L 201.974963 555.840656 
L 203.11245 578.541038 
L 204.249938 555.568405 
L 205.387425 587.838372 
L 206.524913 538.199714 
L 207.6624 588.258266 
L 208.799888 619.926793 
L 209.937375 625.006191 
L 211.074863 554.375666 
L 212.21235 629.545325 
L 213.349838 571.697669 
L 214.487325 571.697669 
L 215.624813 627.174564 
L 216.7623 627.174564 
L 217.899788 636.650292 
L 219.037275 596.557936 
L 220.174763 614.609805 
L 221.31225 625.957399 
L 222.449738 608.049756 
L 223.587225 611.193392 
L 224.724713 635.641357 
L 225.8622 613.581004 
L 226.999688 607.357055 
L 228.137175 657.791007 
L 229.274663 651.699999 
L 230.41215 639.848642 
L 231.549638 623.783228 
L 232.687125 644.095241 
L 233.824613 633.584265 
L 234.9621 642.754426 
L 236.099588 654.473307 
L 237.237075 619.747751 
L 238.374563 651.519782 
L 239.51205 643.628349 
L 240.649538 609.267494 
L 241.787025 660.273992 
L 242.924513 615.260934 
L 244.062 645.740911 
L 245.199488 646.527052 
L 246.336975 660.607618 
L 247.474463 648.144045 
L 248.61195 617.161432 
L 249.749438 649.973426 
L 250.886925 627.264526 
L 252.024413 594.229196 
L 253.1619 655.683315 
L 254.299388 660.329014 
L 255.436875 671.763168 
L 256.574363 655.297139 
L 257.71185 610.078263 
L 258.849338 663.180224 
L 259.986825 666.593437 
L 261.124313 672.671026 
L 262.2618 664.94455 
L 263.399288 666.921019 
L 264.536775 645.142903 
L 265.674263 642.761677 
L 266.81175 668.932612 
L 267.949238 576.530619 
L 269.086725 576.530619 
L 270.224213 652.34632 
L 271.3617 665.186778 
L 272.499188 604.920343 
L 273.636675 641.6732 
L 274.774163 637.519283 
L 275.91165 606.139859 
L 277.049138 657.415932 
L 278.186625 629.546778 
L 279.324113 671.273132 
L 280.4616 629.199515 
L 281.599088 656.554826 
L 282.736575 628.129405 
L 283.874063 628.129405 
L 285.01155 648.81187 
L 286.149038 649.256685 
L 287.286525 606.885216 
L 288.424013 661.016613 
L 289.5615 661.527179 
L 290.698988 671.37775 
L 291.836475 654.424407 
L 292.973963 654.424407 
L 294.11145 662.097499 
L 295.248938 636.684165 
L 296.386425 639.091024 
L 297.523913 671.3959 
L 298.6614 658.306598 
L 299.798888 670.950204 
L 300.936375 637.494748 
L 302.073863 646.821936 
L 303.21135 662.987716 
L 304.348838 652.864369 
L 305.486325 645.129159 
L 306.623813 645.129159 
L 307.7613 668.61259 
L 308.898788 667.953561 
L 310.036275 668.200658 
L 311.173763 668.200658 
L 312.31125 640.015795 
L 313.448738 640.015795 
L 314.586225 659.320187 
L 315.723713 635.317872 
L 316.8612 674.362782 
L 317.998688 674.362782 
L 319.136175 650.122708 
L 320.273663 650.122708 
L 321.41115 652.965215 
L 322.548638 652.965215 
L 323.686125 665.203876 
L 324.823613 680.547092 
L 325.9611 680.547092 
L 327.098588 665.500569 
L 328.236075 668.346647 
L 329.373563 656.935482 
L 330.51105 656.935482 
L 331.648538 655.231774 
L 332.786025 656.851163 
L 333.923513 656.851163 
L 335.061 664.776067 
L 336.198488 664.776067 
L 337.335975 667.507633 
L 338.473463 662.758182 
L 339.61095 666.716189 
L 340.748438 681.122822 
L 341.885925 633.729697 
L 343.023413 648.679301 
L 344.1609 676.036822 
L 345.298388 650.606034 
L 346.435875 629.892773 
L 347.573363 650.36039 
L 348.71085 655.709257 
L 349.848338 674.32322 
L 350.985825 674.32322 
L 352.123313 658.563003 
L 353.2608 650.718568 
L 354.398288 648.04156 
L 355.535775 674.04814 
L 356.673263 664.643513 
L 357.81075 648.870294 
L 358.948238 677.335137 
L 360.085725 654.861446 
L 361.223213 596.452035 
L 362.3607 662.719439 
L 363.498188 661.444453 
L 364.635675 649.836884 
L 365.773163 649.836884 
L 366.91065 661.138128 
L 368.048138 660.638956 
L 369.185625 660.638956 
L 370.323113 648.955602 
L 371.4606 648.955602 
L 372.598088 652.616143 
L 373.735575 679.859261 
L 374.873063 680.255794 
L 376.01055 679.92863 
L 377.148038 682.548018 
L 378.285525 666.781925 
L 379.423013 677.552598 
L 380.5605 657.694398 
L 381.697988 668.900579 
L 382.835475 642.421201 
L 383.972963 667.082065 
L 385.11045 675.0085 
L 386.247938 671.816551 
L 387.385425 681.46087 
L 388.522913 632.353309 
L 389.6604 615.504692 
L 390.797888 645.932074 
L 391.935375 667.04459 
L 393.072863 642.47579 
L 394.21035 646.145144 
L 395.347838 674.471976 
L 396.485325 662.648323 
L 397.622813 666.266721 
L 398.7603 652.77181 
L 399.897788 668.750509 
L 401.035275 662.424957 
L 402.172763 665.779236 
L 403.31025 665.779236 
L 404.447738 663.528538 
L 405.585225 606.593424 
L 406.722713 640.810625 
L 407.8602 653.574663 
L 408.997688 677.935171 
L 410.135175 686.963996 
L 411.272663 688.919053 
L 412.41015 691.196357 
L 413.547638 666.220186 
L 414.685125 689.951131 
L 415.822613 664.115462 
L 416.9601 671.130452 
L 418.097588 668.664613 
L 419.235075 685.112739 
L 420.372563 676.951637 
L 421.51005 682.631301 
L 422.647538 686.118566 
L 423.785025 676.13017 
L 424.922513 660.096248 
L 426.06 683.257492 
L 427.197488 664.205949 
L 428.334975 678.571365 
L 429.472463 678.560141 
L 430.60995 681.020461 
L 431.747438 673.798307 
L 432.884925 680.214933 
L 434.022413 652.932795 
L 435.1599 652.932795 
L 436.297388 676.684704 
L 437.434875 676.684704 
L 438.572363 688.611661 
L 439.70985 676.41434 
L 440.847338 680.109898 
L 441.984825 697.505598 
L 443.122313 687.79256 
L 444.2598 693.2718 
L 445.397288 685.726856 
L 446.534775 657.281539 
L 447.672263 692.008424 
L 448.80975 671.232302 
L 449.947238 686.939369 
L 451.084725 689.582719 
L 452.222213 667.89639 
L 454.497188 671.56007 
L 455.634675 678.937381 
L 456.772163 668.285549 
L 457.90965 668.285549 
L 459.047138 677.913867 
L 460.184625 654.059999 
L 461.322113 654.059999 
L 462.4596 630.135139 
L 463.597088 659.262459 
L 464.734575 659.262459 
L 465.872063 687.782603 
L 467.00955 687.782603 
L 468.147038 655.108898 
L 469.284525 655.108898 
L 470.422013 685.08236 
L 471.5595 696.124526 
L 472.696988 680.932927 
L 473.834475 680.932927 
L 474.971963 689.503456 
L 476.10945 689.503456 
L 477.246938 687.250733 
L 478.384425 687.250733 
L 479.521913 686.395208 
L 480.6594 686.395208 
L 481.796888 673.9137 
L 482.934375 689.020316 
L 484.071863 672.999875 
L 485.20935 685.369638 
L 486.346838 694.002502 
L 487.484325 663.183749 
L 488.621813 663.183749 
L 490.896788 689.710033 
L 492.034275 665.158316 
L 493.171763 669.69782 
L 494.30925 686.245153 
L 495.446738 686.245153 
L 496.584225 690.786466 
L 497.721713 609.333292 
L 498.8592 694.770029 
L 499.996688 691.506964 
L 501.134175 681.148965 
L 502.271663 696.187046 
L 503.40915 690.034955 
L 504.546638 690.970115 
L 505.684125 691.381815 
L 506.821613 695.438488 
L 507.9591 686.39816 
L 509.096588 686.495852 
L 510.234075 687.325807 
L 511.371563 645.946483 
L 512.50905 679.900029 
L 513.646538 693.111727 
L 514.784025 677.225495 
L 515.921513 693.355733 
L 517.059 678.395678 
L 518.196488 695.207021 
L 519.333975 677.700024 
L 520.471463 662.59463 
L 521.60895 662.59463 
L 522.746438 692.223659 
L 523.883925 688.498618 
L 525.021413 688.498618 
L 526.1589 675.961687 
L 527.296388 682.294937 
L 528.433875 668.367085 
L 529.571363 702.959917 
L 530.70885 702.887472 
L 531.846338 695.950817 
L 532.983825 697.524738 
L 534.121313 700.227625 
L 535.2588 695.307295 
L 536.396288 664.698412 
L 537.533775 677.707399 
L 538.671263 695.259647 
L 539.80875 695.883288 
L 540.946238 695.445059 
L 542.083725 701.299915 
L 544.3587 681.177288 
L 545.496188 659.839473 
L 546.633675 655.156484 
L 547.771163 687.141245 
L 548.90865 695.014127 
L 550.046138 689.973085 
L 551.183625 690.468624 
L 552.321113 677.767353 
L 553.4586 686.012542 
L 554.596088 665.04569 
L 555.733575 681.821691 
L 556.871063 643.279633 
L 558.00855 643.279633 
L 559.146038 700.245002 
L 560.283525 678.22299 
L 561.421013 684.873093 
L 562.5585 692.855401 
L 563.695988 693.874539 
L 564.833475 700.50623 
L 565.970963 700.929014 
L 567.10845 699.637069 
L 568.245938 568.633651 
L 569.383425 695.56962 
L 570.520913 703.389752 
L 571.6584 697.778251 
L 572.795888 689.670981 
L 573.933375 697.448103 
L 575.070863 674.318165 
L 576.20835 682.61751 
L 577.345838 692.570117 
L 578.483325 700.447204 
L 579.620813 700.447204 
L 580.7583 671.151709 
L 581.895788 693.805572 
L 583.033275 698.539903 
L 584.170763 698.539903 
L 585.30825 690.058841 
L 586.445738 690.058841 
L 587.583225 699.06307 
L 588.720713 698.290224 
L 589.8582 694.661113 
L 590.995688 701.904788 
L 592.133175 661.570251 
L 593.270663 694.126274 
L 594.40815 699.423659 
L 595.545638 690.779184 
L 596.683125 693.273748 
L 597.820613 691.433405 
L 598.9581 674.584061 
L 600.095588 696.436632 
L 601.233075 700.148934 
L 602.370563 683.644874 
L 603.50805 695.412794 
L 604.645538 690.957361 
L 605.783025 691.839323 
L 606.920513 692.217274 
L 608.058 682.954646 
L 609.195488 683.757469 
L 610.332975 696.672119 
L 611.470463 698.808815 
L 612.60795 660.865043 
L 613.745438 691.161371 
L 614.882925 683.941907 
L 616.020413 702.645353 
L 617.1579 701.630357 
L 618.295388 687.16626 
L 619.432875 702.27102 
L 620.570363 705.230342 
L 621.70785 689.821654 
L 622.845338 704.549082 
L 623.982825 680.621238 
L 625.120313 683.130906 
L 626.2578 704.667892 
L 627.395288 703.267123 
L 628.532775 656.209573 
L 629.670263 698.773071 
L 630.80775 697.167844 
L 631.945238 690.244438 
L 633.082725 695.845303 
L 634.220213 680.954694 
L 635.3577 696.741519 
L 636.495188 696.788208 
L 637.632675 702.569738 
L 638.770163 702.106541 
L 639.90765 699.269445 
L 641.045138 683.06081 
L 642.182625 696.374004 
L 643.320113 694.476382 
L 644.4576 700.978517 
L 645.595088 687.387121 
L 646.732575 694.734718 
L 647.870063 708.711965 
L 649.00755 709.512329 
L 650.145038 685.182463 
L 651.282525 694.375691 
L 652.420013 700.095891 
L 653.5575 694.610188 
L 654.694988 695.461199 
L 655.832475 698.335878 
L 656.969963 697.610773 
L 658.10745 695.748152 
L 659.244938 697.356379 
L 660.382425 690.191905 
L 661.519913 702.257291 
L 662.6574 702.242372 
L 663.794888 698.066874 
L 664.932375 707.681247 
L 666.069863 696.152307 
L 668.344838 709.462285 
L 669.482325 698.624346 
L 670.619813 703.514174 
L 671.7573 706.546065 
L 672.894788 708.375973 
L 674.032275 698.623047 
L 675.169763 698.411508 
L 676.30725 678.672613 
L 677.444738 700.953055 
L 678.582225 692.736312 
L 679.719713 677.091101 
L 680.8572 684.252483 
L 681.994688 685.986986 
L 683.132175 703.257059 
L 684.269663 690.251766 
L 685.40715 692.894839 
L 686.544638 697.058232 
L 687.682125 691.838133 
L 688.819613 699.188296 
L 689.9571 702.502332 
L 691.094588 707.218854 
L 692.232075 694.725952 
L 693.369563 707.037183 
L 694.50705 705.61072 
L 695.644538 679.506618 
L 696.782025 706.297561 
L 697.919513 684.267757 
L 699.057 684.094048 
L 700.194488 706.91559 
L 701.331975 700.941924 
L 702.469463 704.727135 
L 703.60695 700.239638 
L 704.744438 700.659701 
L 705.881925 695.720448 
L 707.019413 702.832991 
L 708.1569 694.35482 
L 709.294388 682.549208 
L 710.431875 700.510311 
L 711.569363 699.817255 
L 712.70685 697.389185 
L 713.844338 705.44992 
L 714.981825 700.768323 
L 716.119313 705.896297 
L 717.2568 694.243198 
L 718.394288 709.660328 
L 719.531775 696.406191 
L 720.669263 710.532921 
L 721.80675 670.849327 
L 722.944238 667.806366 
L 724.081725 698.16557 
L 725.219213 701.850832 
L 726.3567 704.233682 
L 727.494188 709.745404 
L 728.631675 702.763637 
L 729.769163 711.629932 
L 730.90665 709.235812 
L 732.044138 702.530454 
L 733.181625 692.126755 
L 734.319113 689.997991 
L 735.4566 677.98387 
L 736.594088 685.020721 
L 737.731575 706.777038 
L 738.869063 701.995801 
L 740.00655 693.471157 
L 741.144038 709.176182 
L 742.281525 708.982299 
L 743.419013 703.018387 
L 744.5565 706.768581 
L 745.693988 707.962078 
L 746.831475 706.620505 
L 747.968963 699.830906 
L 749.10645 688.030195 
L 750.243938 697.346871 
L 751.381425 663.301477 
L 752.518913 697.820318 
L 753.6564 700.15235 
L 754.793888 705.908912 
L 755.931375 713.115901 
L 757.068863 701.72253 
L 758.20635 687.682593 
L 759.343838 706.189728 
L 760.481325 695.322878 
L 761.618813 688.785617 
L 762.7563 713.42861 
L 763.893788 703.950671 
L 765.031275 707.46391 
L 766.168763 708.003139 
L 767.30625 705.470544 
L 768.443738 708.115827 
L 769.581225 713.958069 
L 770.718713 703.916304 
L 771.8562 701.682334 
L 772.993688 715.434236 
L 774.131175 705.240638 
L 775.268663 697.273451 
L 776.40615 700.159447 
L 777.543638 695.822762 
L 778.681125 711.693503 
L 779.818613 712.327286 
L 780.9561 714.025242 
L 782.093588 706.968355 
L 783.231075 658.657927 
L 784.368563 691.342763 
L 785.50605 681.672394 
L 786.643538 667.129296 
L 787.781025 700.393202 
L 788.918513 713.017158 
L 790.056 709.012631 
L 792.330975 686.919735 
L 793.468463 710.007652 
L 794.60595 707.148078 
L 795.743438 694.848612 
L 796.880925 695.511846 
L 798.018413 706.771951 
L 799.1559 714.588837 
L 800.293388 712.87188 
L 801.430875 709.958891 
L 802.568363 711.687304 
L 803.70585 703.940128 
L 804.843338 704.660409 
L 805.980825 693.034319 
L 808.2558 709.302846 
L 809.393288 685.433101 
L 810.530775 700.786999 
L 811.668263 679.310694 
L 812.80575 709.097615 
L 813.943238 701.464487 
L 815.080725 681.43094 
L 816.218213 705.274125 
L 817.3557 705.993061 
L 818.493188 715.865833 
L 819.630675 711.397599 
L 820.768163 669.104728 
L 821.90565 677.466238 
L 823.043138 698.400841 
L 824.180625 711.295965 
L 825.318113 705.655477 
L 826.4556 710.607995 
L 827.593088 708.466522 
L 828.730575 683.273416 
L 829.868063 697.981024 
L 831.00555 699.923836 
L 832.143038 697.64899 
L 833.280525 711.136634 
L 834.418013 710.801291 
L 835.5555 703.85199 
L 836.692988 702.997903 
L 837.830475 712.243632 
L 840.10545 696.097764 
L 841.242938 711.380608 
L 842.380425 710.558863 
L 843.517913 702.082083 
L 844.6554 706.770282 
L 845.792888 671.167401 
L 846.930375 658.118821 
L 848.067863 708.757618 
L 849.20535 714.140002 
L 850.342838 683.180502 
L 851.480325 715.273297 
L 852.617813 716.40854 
L 853.7553 684.759354 
L 854.892788 701.589667 
L 856.030275 698.5754 
L 857.167763 693.575033 
L 858.30525 697.216713 
L 860.580225 713.50455 
L 861.717713 710.703538 
L 862.8552 710.344417 
L 863.992688 710.848212 
L 865.130175 696.76726 
L 866.267663 719.46659 
L 867.40515 699.369889 
L 868.542638 675.356984 
L 869.680125 705.626134 
L 870.817613 703.01848 
L 871.9551 707.090891 
L 873.092588 700.922413 
L 874.230075 679.489086 
L 875.367563 710.881745 
L 876.50505 713.446312 
L 877.642538 686.671864 
L 878.780025 678.949393 
L 879.917513 697.668299 
L 881.055 698.549968 
L 882.192488 715.200604 
L 883.329975 710.946151 
L 884.467463 698.169435 
L 885.60495 705.224127 
L 886.742438 714.672491 
L 887.879925 686.171239 
L 889.017413 696.601204 
L 890.1549 708.408949 
L 891.292388 712.418392 
L 892.429875 712.427668 
L 893.567363 696.82508 
L 894.70485 699.665747 
L 895.842338 711.219948 
L 896.979825 700.146228 
L 898.117313 704.072914 
L 899.2548 717.912551 
L 900.392288 702.128169 
L 901.529775 712.371826 
L 902.667263 706.812163 
L 903.80475 708.081908 
L 904.942238 694.339143 
L 906.079725 707.908447 
L 907.217213 694.188424 
L 908.3547 713.295994 
L 909.492188 704.274574 
L 910.629675 709.017841 
L 911.767163 702.967075 
L 912.90465 710.443439 
L 914.042138 709.261985 
L 915.179625 692.968351 
L 916.317113 713.224213 
L 917.4546 705.180453 
L 918.592088 718.279973 
L 919.729575 694.767401 
L 920.867063 707.853054 
L 922.00455 693.06377 
L 923.142038 705.049012 
L 924.279525 710.831763 
L 925.417013 688.880233 
L 926.5545 690.159177 
L 928.829475 717.587675 
L 929.966963 699.116948 
L 931.10445 712.397675 
L 932.241938 710.575065 
L 933.379425 704.121474 
L 934.516913 708.457586 
L 935.6544 697.10823 
L 936.791888 705.387354 
L 937.929375 699.269569 
L 939.066863 707.300745 
L 940.20435 705.934499 
L 941.341838 707.054699 
L 942.479325 698.360815 
L 943.616813 706.271001 
L 944.7543 692.075505 
L 945.891788 710.729449 
L 947.029275 706.175505 
L 948.166763 717.354352 
L 949.30425 703.78426 
L 950.441738 697.436956 
L 951.579225 709.503146 
L 952.716713 715.5925 
L 953.8542 704.158222 
L 954.991688 690.754804 
L 956.129175 718.123333 
L 957.266663 716.016119 
L 958.40415 716.104829 
L 959.541638 704.565887 
L 960.679125 709.619405 
L 961.816613 717.712437 
L 962.9541 717.648417 
L 964.091588 717.888835 
L 965.229075 718.667602 
L 966.366563 714.927565 
L 967.50405 714.078749 
L 968.641538 709.559219 
L 969.779025 710.377022 
L 970.916513 710.917458 
L 972.054 718.98447 
L 973.191488 717.708402 
L 974.328975 713.194298 
L 975.466463 691.578033 
L 976.60395 706.033211 
L 977.741438 694.24207 
L 978.878925 693.590802 
L 980.016413 698.558162 
L 981.1539 715.851548 
L 982.291388 715.851548 
L 983.428875 716.940735 
L 984.566363 714.052452 
L 985.70385 721.070519 
L 986.841338 723.138727 
L 987.978825 709.450845 
L 989.116313 705.994947 
L 990.2538 705.994947 
L 991.391288 719.070752 
L 992.528775 715.460935 
L 993.666263 715.460935 
L 994.80375 713.748431 
L 995.941238 713.748431 
L 997.078725 717.724712 
L 998.216213 720.895558 
L 999.3537 706.948938 
L 1000.491188 711.75188 
L 1001.628675 708.664503 
L 1002.766163 692.614286 
L 1003.90365 710.996968 
L 1005.041138 705.26035 
L 1006.178625 678.310988 
L 1007.316113 698.542547 
L 1008.4536 714.068731 
L 1009.591088 686.672498 
L 1010.728575 713.833616 
L 1011.866063 716.060706 
L 1013.00355 688.626735 
L 1014.141038 714.613805 
L 1015.278525 724.140287 
L 1016.416013 721.251633 
L 1017.5535 702.921654 
L 1018.690988 712.966913 
L 1019.828475 714.544327 
L 1020.965963 708.24665 
L 1022.10345 718.534692 
L 1023.240938 712.354047 
L 1024.378425 712.354047 
L 1025.515913 719.038673 
L 1026.6534 719.038673 
L 1027.790888 684.183763 
L 1028.928375 684.183763 
L 1030.065863 697.46262 
L 1031.20335 713.331691 
L 1032.340838 703.583898 
L 1033.478325 700.974142 
L 1034.615813 718.098473 
L 1035.7533 699.252424 
L 1036.890788 721.450928 
L 1039.165763 708.89093 
L 1040.30325 720.911606 
L 1041.440738 711.477512 
L 1042.578225 713.044012 
L 1043.715713 700.806726 
L 1044.8532 703.827625 
L 1045.990688 717.031996 
L 1047.128175 721.754021 
L 1048.265663 708.164944 
L 1049.40315 702.981608 
L 1050.540638 713.650229 
L 1051.678125 695.217163 
L 1052.815613 698.060195 
L 1053.9531 713.547637 
L 1055.090588 711.103271 
L 1056.228075 709.520678 
L 1057.365563 711.846016 
L 1058.50305 714.443219 
L 1059.640538 661.863589 
L 1060.778025 713.834791 
L 1061.915513 719.029351 
L 1063.053 721.263661 
L 1064.190488 717.149817 
L 1065.327975 721.341254 
L 1066.465463 695.24261 
L 1067.60295 712.064822 
L 1068.740438 712.064822 
L 1069.877925 703.37944 
L 1071.015413 714.142414 
L 1072.1529 701.212922 
L 1073.290388 695.569187 
L 1074.427875 717.8927 
L 1075.565363 719.988984 
L 1076.70285 719.988984 
L 1078.977825 704.701687 
L 1080.115313 704.701687 
L 1081.2528 719.13689 
L 1082.390288 715.536998 
L 1083.527775 702.772511 
L 1084.665263 702.772511 
L 1085.80275 713.149943 
L 1086.940238 721.52999 
L 1088.077725 719.039879 
L 1089.215213 717.450684 
L 1090.3527 723.89891 
L 1091.490188 708.210056 
L 1092.627675 707.798665 
L 1093.765163 711.490452 
L 1094.90265 714.057677 
L 1096.040138 706.410713 
L 1097.177625 706.797971 
L 1098.315113 720.780891 
L 1099.4526 708.329253 
L 1100.590088 716.592963 
L 1101.727575 718.677713 
L 1102.865063 699.751844 
L 1104.00255 711.202277 
L 1105.140038 707.312047 
L 1106.277525 712.212233 
L 1107.415013 705.254568 
L 1108.5525 716.282789 
L 1109.689988 648.014567 
L 1110.827475 710.321707 
L 1111.964963 703.21074 
L 1113.10245 714.141641 
L 1114.239938 715.64712 
L 1115.377425 709.483218 
L 1116.514913 697.408726 
L 1117.6524 725.050851 
L 1118.789888 718.436181 
L 1119.927375 719.497603 
L 1121.064863 667.851216 
L 1122.20235 711.331013 
L 1123.339838 697.364603 
L 1124.477325 710.793623 
L 1125.614813 719.41027 
L 1126.7523 716.139784 
L 1127.889788 719.565364 
L 1129.027275 722.306376 
L 1130.164763 720.900629 
L 1131.30225 710.514848 
L 1132.439738 715.34698 
L 1133.577225 721.36446 
L 1134.714713 723.931129 
L 1135.8522 715.530041 
L 1136.989688 718.86784 
L 1138.127175 710.691061 
L 1139.264663 719.859104 
L 1140.40215 721.110823 
L 1141.539638 704.616688 
L 1142.677125 716.573066 
L 1143.814613 714.468805 
L 1144.9521 700.114025 
L 1146.089588 710.232502 
L 1147.227075 723.509272 
L 1148.364563 726.504941 
L 1149.50205 706.180003 
L 1150.639538 712.733266 
L 1151.777025 721.506584 
L 1152.914513 722.629644 
L 1154.052 721.396045 
L 1155.189488 726.412892 
L 1157.464463 714.557298 
L 1158.60195 716.256383 
L 1159.739438 721.858051 
L 1160.876925 720.852533 
L 1162.014413 716.854963 
L 1163.1519 724.473466 
L 1165.426875 717.039262 
L 1166.564363 717.039262 
L 1167.70185 723.506025 
L 1168.839338 723.506025 
L 1169.976825 714.659133 
L 1171.114313 719.824134 
L 1172.2518 719.824134 
L 1173.389288 716.272369 
L 1174.526775 716.272369 
L 1175.664263 720.728776 
L 1176.80175 720.728776 
L 1179.076725 699.440959 
L 1180.214213 705.833715 
L 1181.3517 681.844155 
L 1182.489188 715.132163 
L 1183.626675 718.307415 
L 1184.764163 712.85826 
L 1185.90165 714.717603 
L 1187.039138 714.717603 
L 1188.176625 723.298212 
L 1189.314113 725.296077 
L 1190.4516 710.55557 
L 1191.589088 710.55557 
L 1192.726575 720.306037 
L 1193.864063 719.792271 
L 1195.00155 721.861762 
L 1196.139038 697.222928 
L 1197.276525 697.360305 
L 1198.414013 718.577439 
L 1199.5515 715.136646 
L 1200.688988 717.134619 
L 1201.826475 725.284157 
L 1202.963963 722.282923 
L 1204.10145 720.177256 
L 1205.238938 722.204232 
L 1206.376425 717.737915 
L 1207.513913 713.739093 
L 1208.6514 718.799368 
L 1209.788888 698.10642 
L 1210.926375 705.588179 
L 1212.063863 719.451455 
L 1213.20135 717.830474 
L 1214.338838 704.429081 
L 1215.476325 712.717558 
L 1216.613813 714.089417 
L 1217.7513 716.833598 
L 1218.888788 711.458542 
L 1220.026275 711.458542 
L 1221.163763 721.905993 
L 1222.30125 710.90829 
L 1223.438738 710.90829 
L 1224.576225 720.138544 
L 1225.713713 720.595294 
L 1226.8512 716.320929 
L 1227.988688 725.313299 
L 1229.126175 720.692878 
L 1230.263663 718.982708 
L 1231.40115 706.55344 
L 1232.538638 704.711829 
L 1233.676125 727.963035 
L 1234.813613 727.345841 
L 1237.088588 719.071386 
L 1238.226075 717.45325 
L 1239.363563 698.368452 
L 1240.50105 706.806675 
L 1241.638538 719.67833 
L 1242.776025 709.413478 
L 1243.913513 717.228477 
L 1245.051 707.455825 
L 1246.188488 711.520135 
L 1247.325975 728.477034 
L 1248.463463 717.106621 
L 1249.60095 722.705553 
L 1250.738438 719.097235 
L 1251.875925 711.173398 
L 1253.013413 712.209697 
L 1254.1509 715.248484 
L 1255.288388 716.068374 
L 1256.425875 715.456189 
L 1257.563363 710.704342 
L 1258.70085 721.14448 
L 1259.838338 717.381624 
L 1260.975825 714.06751 
L 1262.113313 709.563533 
L 1263.2508 706.835229 
L 1264.388288 713.60136 
L 1265.525775 717.746124 
L 1266.663263 724.117994 
L 1267.80075 726.548059 
L 1268.938238 698.730757 
L 1270.075725 721.019068 
L 1271.213213 719.70217 
L 1272.3507 721.985581 
L 1273.488188 718.451409 
L 1274.625675 726.838027 
L 1275.763163 699.412218 
L 1276.90065 719.039956 
L 1278.038138 721.594783 
L 1279.175625 719.157251 
L 1280.313113 713.477835 
L 1281.4506 717.545361 
L 1282.588088 710.572483 
L 1283.725575 714.484976 
L 1284.863063 714.484976 
L 1286.00055 717.639759 
L 1287.138038 717.639759 
L 1288.275525 724.946233 
L 1289.413013 724.946233 
L 1290.5505 720.465461 
L 1291.687988 720.465461 
L 1292.825475 704.113512 
L 1293.962963 716.52163 
L 1295.10045 716.52163 
L 1296.237938 728.437456 
L 1297.375425 723.922271 
L 1298.512913 723.922271 
L 1299.6504 717.868042 
L 1300.787888 707.338174 
L 1301.925375 713.64219 
L 1303.062863 717.900693 
L 1304.20035 717.731004 
L 1305.337838 723.938102 
L 1306.475325 722.938628 
L 1307.612813 716.579683 
L 1308.7503 726.336504 
L 1311.025275 718.353996 
L 1312.162763 718.353996 
L 1313.30025 701.204744 
L 1314.437738 723.064333 
L 1315.575225 719.512986 
L 1316.712713 719.512986 
L 1317.8502 717.260572 
L 1318.987688 718.801625 
L 1320.125175 701.255174 
L 1321.262663 701.255174 
L 1322.40015 725.946943 
L 1323.537638 726.204739 
L 1324.675125 726.204739 
L 1325.812613 724.193624 
L 1326.9501 726.156874 
L 1328.087588 723.903177 
L 1329.225075 729.373126 
L 1330.362563 714.165294 
L 1331.50005 727.755114 
L 1332.637538 727.755114 
L 1333.775025 721.353205 
L 1334.912513 724.789329 
L 1336.05 718.671158 
L 1336.05 718.671158 
" style="fill:none;stroke:#0000ff;stroke-linecap:square;stroke-width:2.0;"/>
   </g>
   <g id="line2d_2">
    <path clip-path="url(#pf53d777269)" d="M 199.699988 90.598702 
L 200.837475 586.601727 
L 201.974963 586.601727 
L 203.11245 592.152949 
L 204.249938 550.249547 
L 205.387425 628.834149 
L 206.524913 526.022181 
L 207.6624 621.716365 
L 208.799888 621.716365 
L 209.937375 632.309542 
L 211.074863 585.561578 
L 212.21235 619.225759 
L 213.349838 581.483849 
L 214.487325 628.393663 
L 215.624813 546.118635 
L 216.7623 546.118635 
L 217.899788 616.449885 
L 219.037275 616.449885 
L 220.174763 639.207701 
L 221.31225 639.207701 
L 222.449738 625.709312 
L 223.587225 503.500671 
L 224.724713 637.286023 
L 225.8622 623.75322 
L 226.999688 638.311021 
L 228.137175 595.016265 
L 229.274663 624.076798 
L 230.41215 625.855347 
L 231.549638 622.615936 
L 232.687125 597.176212 
L 233.824613 643.80433 
L 234.9621 639.403239 
L 236.099588 623.926218 
L 237.237075 622.812665 
L 238.374563 588.22379 
L 239.51205 641.989125 
L 240.649538 641.989125 
L 241.787025 630.732204 
L 242.924513 617.438537 
L 244.062 636.594466 
L 245.199488 644.062419 
L 246.336975 637.655347 
L 247.474463 653.845662 
L 248.61195 653.845662 
L 249.749438 644.788143 
L 250.886925 664.11087 
L 252.024413 661.072516 
L 253.1619 661.072516 
L 254.299388 626.451284 
L 255.436875 643.84904 
L 256.574363 649.198664 
L 257.71185 649.198664 
L 258.849338 658.9773 
L 259.986825 665.421074 
L 261.124313 633.796423 
L 262.2618 658.228974 
L 263.399288 668.130624 
L 264.536775 646.213539 
L 265.674263 646.213539 
L 266.81175 637.563375 
L 267.949238 637.563375 
L 269.086725 646.7325 
L 270.224213 646.7325 
L 271.3617 666.630355 
L 272.499188 666.630355 
L 273.636675 666.100742 
L 274.774163 666.100742 
L 275.91165 633.257147 
L 277.049138 633.257147 
L 278.186625 612.952308 
L 279.324113 612.952308 
L 280.4616 660.023138 
L 281.599088 660.717013 
L 282.736575 635.871309 
L 283.874063 673.652473 
L 285.01155 667.065013 
L 286.149038 667.065013 
L 287.286525 657.830477 
L 288.424013 667.220432 
L 289.5615 667.220432 
L 291.836475 663.356175 
L 292.973963 666.930217 
L 294.11145 662.4842 
L 295.248938 642.067538 
L 296.386425 636.347663 
L 297.523913 636.347663 
L 298.6614 661.622707 
L 299.798888 661.622707 
L 300.936375 663.565673 
L 302.073863 663.565673 
L 303.21135 627.631593 
L 304.348838 627.631593 
L 305.486325 602.532314 
L 306.623813 654.318691 
L 307.7613 654.318691 
L 308.898788 661.546643 
L 310.036275 661.546643 
L 311.173763 664.569398 
L 312.31125 660.020618 
L 313.448738 660.020618 
L 314.586225 662.472852 
L 315.723713 662.472852 
L 316.8612 673.655333 
L 317.998688 666.137444 
L 319.136175 542.101663 
L 320.273663 670.134426 
L 321.41115 649.488956 
L 322.548638 646.743972 
L 323.686125 673.433389 
L 324.823613 642.471029 
L 325.9611 671.172859 
L 327.098588 642.671669 
L 328.236075 642.671669 
L 329.373563 653.180897 
L 330.51105 636.580521 
L 331.648538 634.946384 
L 332.786025 636.363664 
L 333.923513 636.363664 
L 335.061 665.061536 
L 336.198488 658.904205 
L 337.335975 658.904205 
L 338.473463 664.400498 
L 339.61095 664.400498 
L 340.748438 640.560374 
L 341.885925 640.560374 
L 343.023413 670.204305 
L 344.1609 659.573298 
L 345.298388 646.358446 
L 346.435875 668.420175 
L 347.573363 678.108246 
L 348.71085 678.108246 
L 349.848338 687.936601 
L 350.985825 674.722073 
L 352.123313 641.689587 
L 353.2608 675.171603 
L 354.398288 669.988669 
L 355.535775 668.431832 
L 356.673263 668.431832 
L 357.81075 652.777314 
L 358.948238 652.777314 
L 360.085725 670.467867 
L 361.223213 670.467867 
L 362.3607 673.760646 
L 363.498188 662.483179 
L 366.91065 662.546828 
L 368.048138 661.574672 
L 369.185625 661.574672 
L 370.323113 666.548464 
L 371.4606 666.548464 
L 372.598088 659.931676 
L 373.735575 660.782796 
L 374.873063 663.305249 
L 376.01055 672.301068 
L 377.148038 670.469599 
L 378.285525 632.677923 
L 379.423013 632.677923 
L 380.5605 591.172476 
L 381.697988 642.954339 
L 382.835475 685.236326 
L 383.972963 611.398346 
L 385.11045 645.791466 
L 386.247938 668.302014 
L 387.385425 653.98743 
L 388.522913 676.904375 
L 389.6604 676.904375 
L 390.797888 665.871439 
L 391.935375 665.871439 
L 393.072863 669.426002 
L 394.21035 669.426002 
L 395.347838 681.274036 
L 396.485325 635.162035 
L 397.622813 659.684579 
L 398.7603 670.592398 
L 399.897788 659.556957 
L 401.035275 654.864862 
L 402.172763 684.212859 
L 403.31025 621.29021 
L 405.585225 679.033465 
L 406.722713 679.280114 
L 407.8602 684.392519 
L 408.997688 678.834077 
L 410.135175 664.757314 
L 411.272663 660.055403 
L 412.41015 668.899651 
L 413.547638 631.199776 
L 414.685125 671.813769 
L 415.822613 683.352927 
L 416.9601 680.336913 
L 418.097588 670.763478 
L 419.235075 678.677375 
L 420.372563 677.969384 
L 421.51005 683.783009 
L 422.647538 681.970015 
L 423.785025 648.723161 
L 424.922513 681.606132 
L 426.06 666.995227 
L 427.197488 666.677802 
L 428.334975 663.420519 
L 429.472463 679.407751 
L 430.60995 672.460584 
L 431.747438 672.344789 
L 432.884925 686.279165 
L 434.022413 664.512041 
L 435.1599 657.276684 
L 436.297388 673.006507 
L 437.434875 682.378174 
L 438.572363 677.158291 
L 439.70985 604.664696 
L 440.847338 679.222231 
L 441.984825 665.422002 
L 443.122313 675.436124 
L 444.2598 666.975098 
L 445.397288 667.525999 
L 446.534775 677.232684 
L 447.672263 684.352694 
L 448.80975 652.899108 
L 449.947238 654.426092 
L 451.084725 678.319507 
L 452.222213 671.672078 
L 453.3597 653.353075 
L 454.497188 672.51505 
L 455.634675 664.148144 
L 456.772163 679.8436 
L 457.90965 652.553608 
L 459.047138 680.75979 
L 460.184625 670.725385 
L 461.322113 680.839564 
L 462.4596 679.120103 
L 463.597088 684.018078 
L 464.734575 684.910043 
L 465.872063 663.893997 
L 467.00955 656.492321 
L 468.147038 639.072936 
L 469.284525 689.006834 
L 470.422013 682.657011 
L 471.5595 689.662292 
L 472.696988 681.869107 
L 473.834475 652.058749 
L 474.971963 676.649842 
L 476.10945 676.615196 
L 477.246938 673.650896 
L 478.384425 685.25041 
L 479.521913 681.568889 
L 480.6594 689.599695 
L 481.796888 688.679314 
L 482.934375 691.819596 
L 484.071863 693.920687 
L 485.20935 673.364314 
L 486.346838 660.749758 
L 487.484325 660.749758 
L 488.621813 682.754362 
L 490.896788 630.279566 
L 492.034275 685.487335 
L 493.171763 679.940147 
L 494.30925 686.137582 
L 495.446738 686.137582 
L 496.584225 694.341849 
L 497.721713 694.341849 
L 498.8592 660.084359 
L 499.996688 660.084359 
L 501.134175 675.325399 
L 502.271663 668.433331 
L 503.40915 689.890621 
L 504.546638 669.66622 
L 505.684125 676.839583 
L 506.821613 646.047962 
L 507.9591 692.327843 
L 509.096588 677.148968 
L 510.234075 677.219945 
L 511.371563 680.071928 
L 512.50905 668.070825 
L 513.646538 684.551958 
L 514.784025 686.347081 
L 515.921513 683.726672 
L 517.059 682.123579 
L 518.196488 667.869397 
L 519.333975 685.998473 
L 520.471463 670.888611 
L 521.60895 672.003045 
L 522.746438 672.003045 
L 523.883925 688.878393 
L 525.021413 690.224572 
L 526.1589 669.436422 
L 527.296388 680.727108 
L 528.433875 664.497942 
L 529.571363 689.672403 
L 530.70885 689.672403 
L 531.846338 683.323074 
L 532.983825 686.089826 
L 534.121313 698.492426 
L 535.2588 693.425287 
L 536.396288 689.273195 
L 537.533775 691.059551 
L 538.671263 691.059551 
L 539.80875 682.540937 
L 540.946238 682.540937 
L 542.083725 669.481906 
L 543.221213 687.429312 
L 544.3587 683.102058 
L 545.496188 683.102058 
L 546.633675 691.415781 
L 547.771163 691.415781 
L 548.90865 689.976424 
L 551.183625 690.081366 
L 552.321113 693.219159 
L 553.4586 683.201574 
L 554.596088 683.384574 
L 555.733575 672.084875 
L 556.871063 671.260764 
L 558.00855 662.328626 
L 559.146038 662.328626 
L 560.283525 688.375927 
L 562.5585 688.460432 
L 563.695988 696.237384 
L 564.833475 700.423117 
L 565.970963 679.530009 
L 567.10845 669.472042 
L 568.245938 672.93264 
L 569.383425 673.445061 
L 570.520913 698.180474 
L 571.6584 696.142135 
L 572.795888 684.245495 
L 573.933375 690.086731 
L 575.070863 678.486104 
L 576.20835 683.385764 
L 577.345838 687.42976 
L 578.483325 695.407321 
L 579.620813 676.878171 
L 580.7583 690.880911 
L 581.895788 696.123057 
L 583.033275 683.332953 
L 584.170763 597.670113 
L 585.30825 693.202354 
L 586.445738 676.035029 
L 587.583225 695.711172 
L 588.720713 700.681933 
L 589.8582 606.297937 
L 590.995688 698.671406 
L 592.133175 699.177257 
L 593.270663 679.112063 
L 594.40815 695.450083 
L 595.545638 681.316752 
L 596.683125 681.316752 
L 597.820613 680.284473 
L 598.9581 680.284473 
L 600.095588 697.559368 
L 601.233075 688.44593 
L 602.370563 688.44593 
L 603.50805 700.409172 
L 604.645538 700.409172 
L 605.783025 699.816497 
L 606.920513 683.736706 
L 608.058 689.601658 
L 609.195488 690.330365 
L 610.332975 694.667714 
L 611.470463 664.855408 
L 612.60795 678.29695 
L 613.745438 668.68921 
L 614.882925 688.733656 
L 616.020413 688.733656 
L 617.1579 698.057026 
L 618.295388 703.968203 
L 619.432875 703.968203 
L 620.570363 684.627913 
L 621.70785 684.627913 
L 622.845338 687.85089 
L 623.982825 686.149842 
L 625.120313 681.167517 
L 626.2578 681.167517 
L 627.395288 688.006016 
L 628.532775 683.589063 
L 629.670263 683.589063 
L 630.80775 676.906432 
L 631.945238 696.579081 
L 633.082725 702.368758 
L 634.220213 684.700312 
L 635.3577 696.738906 
L 636.495188 691.774932 
L 637.632675 692.399454 
L 638.770163 678.168029 
L 639.90765 700.268579 
L 641.045138 692.776833 
L 642.182625 691.686547 
L 643.320113 690.392545 
L 644.4576 684.454143 
L 645.595088 689.782432 
L 646.732575 697.681224 
L 647.870063 697.230673 
L 649.00755 682.021326 
L 650.145038 699.418495 
L 651.282525 697.347597 
L 652.420013 708.803148 
L 653.5575 702.601864 
L 654.694988 706.148264 
L 656.969963 694.663911 
L 658.10745 684.522553 
L 659.244938 694.926175 
L 660.382425 703.754871 
L 661.519913 699.674157 
L 662.6574 699.386106 
L 663.794888 700.575228 
L 664.932375 700.749215 
L 666.069863 681.449445 
L 667.20735 705.068089 
L 668.344838 690.879999 
L 669.482325 688.812997 
L 670.619813 707.742468 
L 671.7573 674.768669 
L 672.894788 707.814759 
L 674.032275 671.837159 
L 675.169763 704.655276 
L 676.30725 686.965403 
L 677.444738 702.867049 
L 678.582225 705.786021 
L 679.719713 694.587972 
L 680.8572 685.852484 
L 681.994688 694.287228 
L 683.132175 685.885213 
L 684.269663 698.341938 
L 685.40715 702.45351 
L 686.544638 697.946904 
L 687.682125 682.312624 
L 688.819613 694.588142 
L 689.9571 686.507354 
L 691.094588 680.916555 
L 692.232075 679.358279 
L 693.369563 700.254015 
L 694.50705 681.588972 
L 695.644538 700.283235 
L 696.782025 665.386753 
L 697.919513 689.217925 
L 699.057 701.44609 
L 700.194488 700.739645 
L 701.331975 698.103344 
L 702.469463 704.719374 
L 703.60695 689.483002 
L 704.744438 697.004818 
L 705.881925 697.765048 
L 707.019413 710.435956 
L 708.1569 708.15287 
L 709.294388 658.815217 
L 710.431875 699.406297 
L 711.569363 694.00983 
L 712.70685 700.516279 
L 713.844338 690.662972 
L 714.981825 685.497198 
L 717.2568 705.202174 
L 718.394288 689.147737 
L 719.531775 702.64022 
L 720.669263 703.827579 
L 721.80675 668.890669 
L 722.944238 649.47764 
L 724.081725 695.292871 
L 725.219213 706.582211 
L 726.3567 691.720884 
L 727.494188 708.231391 
L 728.631675 703.157759 
L 729.769163 701.238817 
L 730.90665 680.388008 
L 732.044138 694.854471 
L 733.181625 700.87863 
L 734.319113 699.605948 
L 735.4566 692.80514 
L 736.594088 707.406136 
L 737.731575 685.192698 
L 738.869063 707.969545 
L 740.00655 707.107248 
L 741.144038 708.168855 
L 742.281525 693.201194 
L 743.419013 701.815676 
L 744.5565 690.424115 
L 745.693988 682.502921 
L 746.831475 702.340683 
L 747.968963 686.367009 
L 749.10645 698.640934 
L 750.243938 691.220042 
L 751.381425 694.121884 
L 752.518913 694.083234 
L 753.6564 694.858661 
L 754.793888 701.082965 
L 755.931375 698.099139 
L 757.068863 710.7463 
L 759.343838 710.79704 
L 760.481325 694.784252 
L 761.618813 698.368174 
L 762.7563 693.326482 
L 763.893788 694.428656 
L 765.031275 655.925032 
L 766.168763 684.136672 
L 767.30625 685.960936 
L 768.443738 672.494008 
L 769.581225 698.198005 
L 770.718713 691.922235 
L 771.8562 694.376402 
L 772.993688 691.255491 
L 774.131175 659.28367 
L 775.268663 703.421847 
L 776.40615 687.394666 
L 777.543638 695.072612 
L 778.681125 700.503524 
L 779.818613 686.034912 
L 780.9561 695.185872 
L 782.093588 647.781399 
L 783.231075 687.755317 
L 784.368563 699.375996 
L 785.50605 697.195548 
L 786.643538 699.52285 
L 787.781025 700.250413 
L 788.918513 701.431063 
L 790.056 693.003198 
L 791.193488 696.380373 
L 792.330975 695.168387 
L 793.468463 703.918778 
L 794.60595 684.642616 
L 795.743438 709.956 
L 796.880925 701.547786 
L 798.018413 706.285703 
L 799.1559 707.030845 
L 800.293388 694.237184 
L 801.430875 690.602322 
L 802.568363 633.317735 
L 803.70585 709.974104 
L 804.843338 709.197718 
L 805.980825 706.967428 
L 807.118313 697.640456 
L 808.2558 698.30471 
L 809.393288 696.561781 
L 810.530775 696.277023 
L 811.668263 703.008771 
L 812.80575 689.65215 
L 813.943238 706.641809 
L 815.080725 714.409145 
L 816.218213 698.7379 
L 817.3557 707.613517 
L 818.493188 698.103591 
L 819.630675 707.875084 
L 820.768163 709.771501 
L 821.90565 697.271735 
L 823.043138 709.675108 
L 824.180625 706.261509 
L 825.318113 703.956639 
L 826.4556 683.374988 
L 827.593088 683.066129 
L 828.730575 685.551014 
L 829.868063 701.850137 
L 831.00555 689.461513 
L 832.143038 694.254886 
L 833.280525 672.473277 
L 834.418013 701.805674 
L 835.5555 698.896504 
L 836.692988 707.916764 
L 837.830475 700.019611 
L 838.967963 704.873402 
L 840.10545 706.468039 
L 841.242938 667.440552 
L 842.380425 645.248449 
L 843.517913 690.06368 
L 844.6554 708.276905 
L 845.792888 698.861518 
L 846.930375 675.957311 
L 848.067863 663.338859 
L 849.20535 700.48069 
L 852.617813 710.320253 
L 853.7553 695.549847 
L 854.892788 711.264937 
L 856.030275 691.539646 
L 857.167763 699.734219 
L 858.30525 695.846045 
L 859.442738 692.868557 
L 860.580225 680.385782 
L 861.717713 715.269803 
L 862.8552 701.363719 
L 863.992688 683.810543 
L 865.130175 708.497148 
L 866.267663 711.73172 
L 867.40515 703.350994 
L 868.542638 690.866224 
L 869.680125 684.039506 
L 870.817613 680.641197 
L 871.9551 700.197772 
L 873.092588 706.899697 
L 874.230075 698.672937 
L 875.367563 685.761951 
L 876.50505 707.669868 
L 877.642538 704.162412 
L 879.917513 715.542796 
L 881.055 710.672942 
L 882.192488 714.612027 
L 883.329975 713.444518 
L 884.467463 713.599149 
L 885.60495 713.221044 
L 886.742438 714.293489 
L 887.879925 713.810163 
L 889.017413 716.145813 
L 890.1549 713.477386 
L 891.292388 712.934261 
L 892.429875 707.60254 
L 893.567363 709.216548 
L 894.70485 708.832723 
L 895.842338 710.15596 
L 896.979825 710.372214 
L 898.117313 714.002501 
L 899.2548 710.251565 
L 900.392288 709.000603 
L 901.529775 690.911924 
L 902.667263 713.656846 
L 903.80475 716.875154 
L 904.942238 710.189276 
L 906.079725 705.713405 
L 907.217213 710.689608 
L 908.3547 704.433997 
L 909.492188 706.541396 
L 910.629675 696.953646 
L 911.767163 711.453038 
L 912.90465 710.456904 
L 914.042138 699.324421 
L 915.179625 698.343654 
L 916.317113 713.13436 
L 917.4546 715.007323 
L 918.592088 715.844003 
L 919.729575 711.729185 
L 920.867063 716.124339 
L 922.00455 717.291075 
L 923.142038 701.222492 
L 924.279525 695.150577 
L 925.417013 719.938012 
L 926.5545 707.682654 
L 927.691988 697.707908 
L 928.829475 715.132256 
L 929.966963 709.646908 
L 931.10445 712.710648 
L 932.241938 709.54866 
L 933.379425 694.79393 
L 934.516913 707.724473 
L 935.6544 711.138149 
L 936.791888 698.112496 
L 937.929375 695.193354 
L 939.066863 673.923301 
L 940.20435 709.520848 
L 941.341838 711.321969 
L 942.479325 704.330091 
L 943.616813 715.863838 
L 944.7543 712.140931 
L 945.891788 717.069564 
L 947.029275 720.815661 
L 948.166763 702.791512 
L 949.30425 706.110897 
L 950.441738 714.455958 
L 951.579225 695.528465 
L 952.716713 700.628101 
L 953.8542 715.992156 
L 954.991688 715.987225 
L 956.129175 717.047935 
L 957.266663 673.229116 
L 958.40415 712.664005 
L 959.541638 719.917172 
L 960.679125 713.710539 
L 961.816613 712.798955 
L 962.9541 713.710013 
L 964.091588 717.307199 
L 965.229075 711.185472 
L 966.366563 715.575927 
L 967.50405 706.361782 
L 968.641538 716.60111 
L 969.779025 713.360524 
L 970.916513 713.417572 
L 972.054 719.608281 
L 973.191488 710.422769 
L 974.328975 712.398649 
L 975.466463 716.398461 
L 977.741438 711.451879 
L 978.878925 708.618726 
L 980.016413 715.80843 
L 981.1539 710.899308 
L 982.291388 717.604511 
L 983.428875 703.712495 
L 984.566363 709.773588 
L 985.70385 717.04237 
L 986.841338 713.400535 
L 987.978825 711.958457 
L 989.116313 715.714232 
L 990.2538 711.975556 
L 991.391288 709.034321 
L 992.528775 702.558066 
L 993.666263 711.632096 
L 994.80375 712.143652 
L 995.941238 716.320341 
L 997.078725 702.934919 
L 998.216213 721.130256 
L 999.3537 716.670649 
L 1000.491188 713.581958 
L 1001.628675 712.159761 
L 1002.766163 703.535972 
L 1003.90365 713.530259 
L 1005.041138 703.899097 
L 1006.178625 717.001107 
L 1007.316113 708.914893 
L 1008.4536 714.27067 
L 1009.591088 718.32776 
L 1010.728575 710.855618 
L 1011.866063 710.855618 
L 1013.00355 700.170825 
L 1014.141038 706.712693 
L 1015.278525 706.549219 
L 1016.416013 713.526472 
L 1017.5535 665.372792 
L 1018.690988 721.824828 
L 1019.828475 719.450976 
L 1020.965963 713.080203 
L 1022.10345 705.312342 
L 1023.240938 692.148368 
L 1024.378425 697.324237 
L 1025.515913 709.986116 
L 1026.6534 714.203125 
L 1027.790888 682.880779 
L 1028.928375 720.899439 
L 1030.065863 716.284799 
L 1031.20335 710.613097 
L 1032.340838 710.613097 
L 1033.478325 706.114113 
L 1034.615813 706.114113 
L 1035.7533 715.623513 
L 1036.890788 715.623513 
L 1038.028275 710.683718 
L 1039.165763 713.222374 
L 1040.30325 712.915508 
L 1041.440738 713.146836 
L 1042.578225 704.637698 
L 1043.715713 704.637698 
L 1044.8532 697.539564 
L 1045.990688 717.197155 
L 1047.128175 715.548841 
L 1048.265663 707.206687 
L 1049.40315 712.602489 
L 1050.540638 688.155653 
L 1051.678125 693.953524 
L 1052.815613 718.51059 
L 1053.9531 714.862664 
L 1055.090588 706.476758 
L 1056.228075 715.258286 
L 1057.365563 717.247044 
L 1058.50305 713.467569 
L 1059.640538 706.863274 
L 1060.778025 719.050917 
L 1061.915513 715.567115 
L 1063.053 706.044589 
L 1064.190488 702.644101 
L 1065.327975 708.517324 
L 1066.465463 716.63118 
L 1067.60295 722.904848 
L 1069.877925 711.505216 
L 1071.015413 702.067659 
L 1072.1529 676.255921 
L 1073.290388 713.463441 
L 1074.427875 717.637951 
L 1075.565363 716.365098 
L 1076.70285 716.365098 
L 1077.840338 719.866803 
L 1078.977825 717.594292 
L 1080.115313 716.836411 
L 1081.2528 707.639443 
L 1082.390288 720.593547 
L 1083.527775 706.588194 
L 1084.665263 709.305459 
L 1085.80275 715.044814 
L 1086.940238 718.861811 
L 1088.077725 718.013737 
L 1089.215213 721.249793 
L 1090.3527 720.995584 
L 1091.490188 715.85583 
L 1092.627675 713.601777 
L 1093.765163 718.775095 
L 1094.90265 721.055894 
L 1096.040138 702.929291 
L 1097.177625 709.936691 
L 1098.315113 712.725767 
L 1099.4526 713.269341 
L 1100.590088 706.90197 
L 1101.727575 706.90197 
L 1102.865063 704.708382 
L 1104.00255 717.293687 
L 1105.140038 718.070738 
L 1106.277525 708.035636 
L 1107.415013 710.105931 
L 1108.5525 704.082746 
L 1109.689988 717.551962 
L 1110.827475 702.359095 
L 1111.964963 702.359095 
L 1113.10245 719.125852 
L 1114.239938 715.37017 
L 1115.377425 721.78154 
L 1116.514913 721.78154 
L 1117.6524 712.983671 
L 1118.789888 712.983671 
L 1119.927375 714.358637 
L 1121.064863 718.194557 
L 1122.20235 716.975057 
L 1123.339838 716.8735 
L 1124.477325 717.406267 
L 1125.614813 717.406267 
L 1126.7523 720.612408 
L 1127.889788 699.787293 
L 1129.027275 723.229894 
L 1130.164763 723.229894 
L 1131.30225 721.337946 
L 1132.439738 723.11699 
L 1133.577225 709.320301 
L 1134.714713 715.469376 
L 1135.8522 715.5436 
L 1136.989688 717.765588 
L 1138.127175 720.285012 
L 1139.264663 720.993435 
L 1140.40215 706.15485 
L 1141.539638 705.172089 
L 1142.677125 720.346991 
L 1143.814613 713.657109 
L 1144.9521 713.657109 
L 1146.089588 717.262736 
L 1147.227075 685.048812 
L 1148.364563 710.873922 
L 1149.50205 724.948598 
L 1150.639538 710.681693 
L 1151.777025 712.579964 
L 1152.914513 714.126258 
L 1154.052 691.079711 
L 1155.189488 716.420275 
L 1156.326975 720.282198 
L 1157.464463 710.928141 
L 1158.60195 707.490579 
L 1159.739438 706.418891 
L 1160.876925 717.419841 
L 1162.014413 720.649079 
L 1163.1519 705.380165 
L 1164.289388 705.380165 
L 1165.426875 721.010302 
L 1166.564363 721.911203 
L 1167.70185 721.911203 
L 1168.839338 718.067213 
L 1169.976825 712.005331 
L 1171.114313 721.636525 
L 1172.2518 715.663616 
L 1173.389288 715.663616 
L 1174.526775 719.726365 
L 1175.664263 719.726365 
L 1176.80175 697.95349 
L 1177.939238 720.822649 
L 1179.076725 718.057195 
L 1180.214213 718.057195 
L 1181.3517 703.439007 
L 1182.489188 709.65535 
L 1183.626675 715.137636 
L 1184.764163 709.05983 
L 1185.90165 695.589764 
L 1187.039138 714.23372 
L 1188.176625 711.829644 
L 1189.314113 717.586809 
L 1190.4516 708.799762 
L 1191.589088 697.126597 
L 1192.726575 710.419244 
L 1193.864063 698.102602 
L 1195.00155 699.285122 
L 1196.139038 678.220547 
L 1197.276525 708.844705 
L 1198.414013 704.675374 
L 1199.5515 710.513596 
L 1200.688988 709.800705 
L 1201.826475 720.922783 
L 1202.963963 725.168331 
L 1204.10145 720.397715 
L 1205.238938 721.294009 
L 1206.376425 721.294009 
L 1207.513913 712.821341 
L 1208.6514 718.173825 
L 1209.788888 721.140244 
L 1210.926375 714.774882 
L 1212.063863 715.988972 
L 1213.20135 709.373127 
L 1214.338838 710.989749 
L 1215.476325 719.207589 
L 1216.613813 707.51666 
L 1217.7513 717.972211 
L 1218.888788 717.972211 
L 1220.026275 718.530348 
L 1221.163763 721.048148 
L 1222.30125 698.700224 
L 1223.438738 700.249006 
L 1224.576225 706.898136 
L 1225.713713 717.767691 
L 1226.8512 712.559557 
L 1227.988688 721.929399 
L 1229.126175 717.861069 
L 1230.263663 717.861069 
L 1231.40115 716.049296 
L 1232.538638 718.112217 
L 1233.676125 703.632165 
L 1234.813613 716.49473 
L 1235.9511 703.032734 
L 1237.088588 711.554147 
L 1238.226075 706.248847 
L 1239.363563 720.790677 
L 1240.50105 721.326738 
L 1241.638538 721.326738 
L 1242.776025 723.260691 
L 1243.913513 718.335274 
L 1245.051 725.437057 
L 1246.188488 723.571329 
L 1247.325975 719.172758 
L 1248.463463 708.194813 
L 1249.60095 709.815994 
L 1250.738438 719.054489 
L 1251.875925 713.633409 
L 1253.013413 716.914871 
L 1254.1509 717.2047 
L 1255.288388 725.653543 
L 1256.425875 721.933094 
L 1257.563363 704.54398 
L 1258.70085 715.696097 
L 1259.838338 715.696097 
L 1260.975825 720.87093 
L 1262.113313 724.47931 
L 1263.2508 715.143541 
L 1264.388288 710.988744 
L 1265.525775 718.811612 
L 1266.663263 724.294918 
L 1267.80075 721.942788 
L 1268.938238 718.824397 
L 1270.075725 708.195864 
L 1271.213213 718.065033 
L 1272.3507 718.065033 
L 1273.488188 711.403613 
L 1274.625675 722.809305 
L 1275.763163 724.812086 
L 1276.90065 725.828427 
L 1278.038138 725.802237 
L 1279.175625 724.677584 
L 1280.313113 719.233423 
L 1281.4506 717.380835 
L 1282.588088 718.797868 
L 1283.725575 720.946329 
L 1284.863063 714.628847 
L 1286.00055 716.7678 
L 1287.138038 720.029226 
L 1288.275525 718.245343 
L 1289.413013 718.245343 
L 1290.5505 725.196221 
L 1291.687988 719.090077 
L 1292.825475 714.949024 
L 1293.962963 719.170145 
L 1295.10045 722.767177 
L 1296.237938 724.572905 
L 1297.375425 721.035193 
L 1298.512913 704.290838 
L 1299.6504 726.248769 
L 1300.787888 708.231762 
L 1301.925375 710.674581 
L 1303.062863 723.191461 
L 1304.20035 715.600415 
L 1305.337838 706.998425 
L 1306.475325 707.388063 
L 1307.612813 708.95311 
L 1308.7503 720.557989 
L 1309.887788 722.798251 
L 1311.025275 726.986937 
L 1312.162763 725.740645 
L 1313.30025 715.333421 
L 1314.437738 723.041932 
L 1315.575225 726.225038 
L 1316.712713 722.23744 
L 1317.8502 725.851307 
L 1318.987688 725.851307 
L 1320.125175 726.451604 
L 1321.262663 719.783922 
L 1322.40015 726.447615 
L 1323.537638 708.002011 
L 1324.675125 707.105547 
L 1325.812613 708.208216 
L 1326.9501 729.025153 
L 1328.087588 728.037181 
L 1329.225075 725.707622 
L 1330.362563 728.722601 
L 1331.50005 720.204512 
L 1332.637538 722.038949 
L 1333.775025 719.058013 
L 1334.912513 709.918185 
L 1336.05 723.493286 
L 1336.05 723.493286 
" style="fill:none;stroke:#008000;stroke-dasharray:6.000000,6.000000;stroke-dashoffset:0.0;stroke-width:2.0;"/>
   </g>
   <g id="patch_3">
    <path d="M 198.5625 51.3 
L 1336.05 51.3 
" style="fill:none;stroke:#000000;stroke-linecap:square;stroke-linejoin:miter;"/>
   </g>
   <g id="patch_4">
    <path d="M 1336.05 747 
L 1336.05 51.3 
" style="fill:none;stroke:#000000;stroke-linecap:square;stroke-linejoin:miter;"/>
   </g>
   <g id="patch_5">
    <path d="M 198.5625 747 
L 1336.05 747 
" style="fill:none;stroke:#000000;stroke-linecap:square;stroke-linejoin:miter;"/>
   </g>
   <g id="patch_6">
    <path d="M 198.5625 747 
L 198.5625 51.3 
" style="fill:none;stroke:#000000;stroke-linecap:square;stroke-linejoin:miter;"/>
   </g>
   <g id="matplotlib.axis_1">
    <g id="xtick_1">
     <g id="line2d_3">
      <defs>
       <path d="M 0 0 
L 0 -4 
" id="m8964d965ab" style="stroke:#000000;stroke-width:0.5;"/>
      </defs>
      <g>
       <use style="stroke:#000000;stroke-width:0.5;" x="198.5625" xlink:href="#m8964d965ab" y="747.0"/>
      </g>
     </g>
     <g id="line2d_4">
      <defs>
       <path d="M 0 0 
L 0 4 
" id="medd1028212" style="stroke:#000000;stroke-width:0.5;"/>
      </defs>
      <g>
       <use style="stroke:#000000;stroke-width:0.5;" x="198.5625" xlink:href="#medd1028212" y="51.3"/>
      </g>
     </g>
     <g id="text_1">
      <!-- 0 -->
      <defs>
       <path d="M 31.78125 66.40625 
Q 24.171875 66.40625 20.328125 58.90625 
Q 16.5 51.421875 16.5 36.375 
Q 16.5 21.390625 20.328125 13.890625 
Q 24.171875 6.390625 31.78125 6.390625 
Q 39.453125 6.390625 43.28125 13.890625 
Q 47.125 21.390625 47.125 36.375 
Q 47.125 51.421875 43.28125 58.90625 
Q 39.453125 66.40625 31.78125 66.40625 
M 31.78125 74.21875 
Q 44.046875 74.21875 50.515625 64.515625 
Q 56.984375 54.828125 56.984375 36.375 
Q 56.984375 17.96875 50.515625 8.265625 
Q 44.046875 -1.421875 31.78125 -1.421875 
Q 19.53125 -1.421875 13.0625 8.265625 
Q 6.59375 17.96875 6.59375 36.375 
Q 6.59375 54.828125 13.0625 64.515625 
Q 19.53125 74.21875 31.78125 74.21875 
" id="BitstreamVeraSans-Roman-30"/>
      </defs>
      <g transform="translate(189.01875 773.7953125)scale(0.3 -0.3)">
       <use xlink:href="#BitstreamVeraSans-Roman-30"/>
      </g>
     </g>
    </g>
    <g id="xtick_2">
     <g id="line2d_5">
      <g>
       <use style="stroke:#000000;stroke-width:0.5;" x="426.06" xlink:href="#m8964d965ab" y="747.0"/>
      </g>
     </g>
     <g id="line2d_6">
      <g>
       <use style="stroke:#000000;stroke-width:0.5;" x="426.06" xlink:href="#medd1028212" y="51.3"/>
      </g>
     </g>
     <g id="text_2">
      <!-- 20000 -->
      <defs>
       <path d="M 19.1875 8.296875 
L 53.609375 8.296875 
L 53.609375 0 
L 7.328125 0 
L 7.328125 8.296875 
Q 12.9375 14.109375 22.625 23.890625 
Q 32.328125 33.6875 34.8125 36.53125 
Q 39.546875 41.84375 41.421875 45.53125 
Q 43.3125 49.21875 43.3125 52.78125 
Q 43.3125 58.59375 39.234375 62.25 
Q 35.15625 65.921875 28.609375 65.921875 
Q 23.96875 65.921875 18.8125 64.3125 
Q 13.671875 62.703125 7.8125 59.421875 
L 7.8125 69.390625 
Q 13.765625 71.78125 18.9375 73 
Q 24.125 74.21875 28.421875 74.21875 
Q 39.75 74.21875 46.484375 68.546875 
Q 53.21875 62.890625 53.21875 53.421875 
Q 53.21875 48.921875 51.53125 44.890625 
Q 49.859375 40.875 45.40625 35.40625 
Q 44.1875 33.984375 37.640625 27.21875 
Q 31.109375 20.453125 19.1875 8.296875 
" id="BitstreamVeraSans-Roman-32"/>
      </defs>
      <g transform="translate(378.34125 773.7953125)scale(0.3 -0.3)">
       <use xlink:href="#BitstreamVeraSans-Roman-32"/>
       <use x="63.623046875" xlink:href="#BitstreamVeraSans-Roman-30"/>
       <use x="127.24609375" xlink:href="#BitstreamVeraSans-Roman-30"/>
       <use x="190.869140625" xlink:href="#BitstreamVeraSans-Roman-30"/>
       <use x="254.4921875" xlink:href="#BitstreamVeraSans-Roman-30"/>
      </g>
     </g>
    </g>
    <g id="xtick_3">
     <g id="line2d_7">
      <g>
       <use style="stroke:#000000;stroke-width:0.5;" x="653.5575" xlink:href="#m8964d965ab" y="747.0"/>
      </g>
     </g>
     <g id="line2d_8">
      <g>
       <use style="stroke:#000000;stroke-width:0.5;" x="653.5575" xlink:href="#medd1028212" y="51.3"/>
      </g>
     </g>
     <g id="text_3">
      <!-- 40000 -->
      <defs>
       <path d="M 37.796875 64.3125 
L 12.890625 25.390625 
L 37.796875 25.390625 
z
M 35.203125 72.90625 
L 47.609375 72.90625 
L 47.609375 25.390625 
L 58.015625 25.390625 
L 58.015625 17.1875 
L 47.609375 17.1875 
L 47.609375 0 
L 37.796875 0 
L 37.796875 17.1875 
L 4.890625 17.1875 
L 4.890625 26.703125 
z
" id="BitstreamVeraSans-Roman-34"/>
      </defs>
      <g transform="translate(605.83875 773.7953125)scale(0.3 -0.3)">
       <use xlink:href="#BitstreamVeraSans-Roman-34"/>
       <use x="63.623046875" xlink:href="#BitstreamVeraSans-Roman-30"/>
       <use x="127.24609375" xlink:href="#BitstreamVeraSans-Roman-30"/>
       <use x="190.869140625" xlink:href="#BitstreamVeraSans-Roman-30"/>
       <use x="254.4921875" xlink:href="#BitstreamVeraSans-Roman-30"/>
      </g>
     </g>
    </g>
    <g id="xtick_4">
     <g id="line2d_9">
      <g>
       <use style="stroke:#000000;stroke-width:0.5;" x="881.055" xlink:href="#m8964d965ab" y="747.0"/>
      </g>
     </g>
     <g id="line2d_10">
      <g>
       <use style="stroke:#000000;stroke-width:0.5;" x="881.055" xlink:href="#medd1028212" y="51.3"/>
      </g>
     </g>
     <g id="text_4">
      <!-- 60000 -->
      <defs>
       <path d="M 33.015625 40.375 
Q 26.375 40.375 22.484375 35.828125 
Q 18.609375 31.296875 18.609375 23.390625 
Q 18.609375 15.53125 22.484375 10.953125 
Q 26.375 6.390625 33.015625 6.390625 
Q 39.65625 6.390625 43.53125 10.953125 
Q 47.40625 15.53125 47.40625 23.390625 
Q 47.40625 31.296875 43.53125 35.828125 
Q 39.65625 40.375 33.015625 40.375 
M 52.59375 71.296875 
L 52.59375 62.3125 
Q 48.875 64.0625 45.09375 64.984375 
Q 41.3125 65.921875 37.59375 65.921875 
Q 27.828125 65.921875 22.671875 59.328125 
Q 17.53125 52.734375 16.796875 39.40625 
Q 19.671875 43.65625 24.015625 45.921875 
Q 28.375 48.1875 33.59375 48.1875 
Q 44.578125 48.1875 50.953125 41.515625 
Q 57.328125 34.859375 57.328125 23.390625 
Q 57.328125 12.15625 50.6875 5.359375 
Q 44.046875 -1.421875 33.015625 -1.421875 
Q 20.359375 -1.421875 13.671875 8.265625 
Q 6.984375 17.96875 6.984375 36.375 
Q 6.984375 53.65625 15.1875 63.9375 
Q 23.390625 74.21875 37.203125 74.21875 
Q 40.921875 74.21875 44.703125 73.484375 
Q 48.484375 72.75 52.59375 71.296875 
" id="BitstreamVeraSans-Roman-36"/>
      </defs>
      <g transform="translate(833.33625 773.7953125)scale(0.3 -0.3)">
       <use xlink:href="#BitstreamVeraSans-Roman-36"/>
       <use x="63.623046875" xlink:href="#BitstreamVeraSans-Roman-30"/>
       <use x="127.24609375" xlink:href="#BitstreamVeraSans-Roman-30"/>
       <use x="190.869140625" xlink:href="#BitstreamVeraSans-Roman-30"/>
       <use x="254.4921875" xlink:href="#BitstreamVeraSans-Roman-30"/>
      </g>
     </g>
    </g>
    <g id="xtick_5">
     <g id="line2d_11">
      <g>
       <use style="stroke:#000000;stroke-width:0.5;" x="1108.5525" xlink:href="#m8964d965ab" y="747.0"/>
      </g>
     </g>
     <g id="line2d_12">
      <g>
       <use style="stroke:#000000;stroke-width:0.5;" x="1108.5525" xlink:href="#medd1028212" y="51.3"/>
      </g>
     </g>
     <g id="text_5">
      <!-- 80000 -->
      <defs>
       <path d="M 31.78125 34.625 
Q 24.75 34.625 20.71875 30.859375 
Q 16.703125 27.09375 16.703125 20.515625 
Q 16.703125 13.921875 20.71875 10.15625 
Q 24.75 6.390625 31.78125 6.390625 
Q 38.8125 6.390625 42.859375 10.171875 
Q 46.921875 13.96875 46.921875 20.515625 
Q 46.921875 27.09375 42.890625 30.859375 
Q 38.875 34.625 31.78125 34.625 
M 21.921875 38.8125 
Q 15.578125 40.375 12.03125 44.71875 
Q 8.5 49.078125 8.5 55.328125 
Q 8.5 64.0625 14.71875 69.140625 
Q 20.953125 74.21875 31.78125 74.21875 
Q 42.671875 74.21875 48.875 69.140625 
Q 55.078125 64.0625 55.078125 55.328125 
Q 55.078125 49.078125 51.53125 44.71875 
Q 48 40.375 41.703125 38.8125 
Q 48.828125 37.15625 52.796875 32.3125 
Q 56.78125 27.484375 56.78125 20.515625 
Q 56.78125 9.90625 50.3125 4.234375 
Q 43.84375 -1.421875 31.78125 -1.421875 
Q 19.734375 -1.421875 13.25 4.234375 
Q 6.78125 9.90625 6.78125 20.515625 
Q 6.78125 27.484375 10.78125 32.3125 
Q 14.796875 37.15625 21.921875 38.8125 
M 18.3125 54.390625 
Q 18.3125 48.734375 21.84375 45.5625 
Q 25.390625 42.390625 31.78125 42.390625 
Q 38.140625 42.390625 41.71875 45.5625 
Q 45.3125 48.734375 45.3125 54.390625 
Q 45.3125 60.0625 41.71875 63.234375 
Q 38.140625 66.40625 31.78125 66.40625 
Q 25.390625 66.40625 21.84375 63.234375 
Q 18.3125 60.0625 18.3125 54.390625 
" id="BitstreamVeraSans-Roman-38"/>
      </defs>
      <g transform="translate(1060.83375 773.7953125)scale(0.3 -0.3)">
       <use xlink:href="#BitstreamVeraSans-Roman-38"/>
       <use x="63.623046875" xlink:href="#BitstreamVeraSans-Roman-30"/>
       <use x="127.24609375" xlink:href="#BitstreamVeraSans-Roman-30"/>
       <use x="190.869140625" xlink:href="#BitstreamVeraSans-Roman-30"/>
       <use x="254.4921875" xlink:href="#BitstreamVeraSans-Roman-30"/>
      </g>
     </g>
    </g>
    <g id="xtick_6">
     <g id="line2d_13">
      <g>
       <use style="stroke:#000000;stroke-width:0.5;" x="1336.05" xlink:href="#m8964d965ab" y="747.0"/>
      </g>
     </g>
     <g id="line2d_14">
      <g>
       <use style="stroke:#000000;stroke-width:0.5;" x="1336.05" xlink:href="#medd1028212" y="51.3"/>
      </g>
     </g>
     <g id="text_6">
      <!-- 100000 -->
      <defs>
       <path d="M 12.40625 8.296875 
L 28.515625 8.296875 
L 28.515625 63.921875 
L 10.984375 60.40625 
L 10.984375 69.390625 
L 28.421875 72.90625 
L 38.28125 72.90625 
L 38.28125 8.296875 
L 54.390625 8.296875 
L 54.390625 0 
L 12.40625 0 
z
" id="BitstreamVeraSans-Roman-31"/>
      </defs>
      <g transform="translate(1278.7875 773.7953125)scale(0.3 -0.3)">
       <use xlink:href="#BitstreamVeraSans-Roman-31"/>
       <use x="63.623046875" xlink:href="#BitstreamVeraSans-Roman-30"/>
       <use x="127.24609375" xlink:href="#BitstreamVeraSans-Roman-30"/>
       <use x="190.869140625" xlink:href="#BitstreamVeraSans-Roman-30"/>
       <use x="254.4921875" xlink:href="#BitstreamVeraSans-Roman-30"/>
       <use x="318.115234375" xlink:href="#BitstreamVeraSans-Roman-30"/>
      </g>
     </g>
    </g>
    <g id="text_7">
     <!-- iterations -->
     <defs>
      <path d="M 54.890625 33.015625 
L 54.890625 0 
L 45.90625 0 
L 45.90625 32.71875 
Q 45.90625 40.484375 42.875 44.328125 
Q 39.84375 48.1875 33.796875 48.1875 
Q 26.515625 48.1875 22.3125 43.546875 
Q 18.109375 38.921875 18.109375 30.90625 
L 18.109375 0 
L 9.078125 0 
L 9.078125 54.6875 
L 18.109375 54.6875 
L 18.109375 46.1875 
Q 21.34375 51.125 25.703125 53.5625 
Q 30.078125 56 35.796875 56 
Q 45.21875 56 50.046875 50.171875 
Q 54.890625 44.34375 54.890625 33.015625 
" id="BitstreamVeraSans-Roman-6e"/>
      <path d="M 34.28125 27.484375 
Q 23.390625 27.484375 19.1875 25 
Q 14.984375 22.515625 14.984375 16.5 
Q 14.984375 11.71875 18.140625 8.90625 
Q 21.296875 6.109375 26.703125 6.109375 
Q 34.1875 6.109375 38.703125 11.40625 
Q 43.21875 16.703125 43.21875 25.484375 
L 43.21875 27.484375 
z
M 52.203125 31.203125 
L 52.203125 0 
L 43.21875 0 
L 43.21875 8.296875 
Q 40.140625 3.328125 35.546875 0.953125 
Q 30.953125 -1.421875 24.3125 -1.421875 
Q 15.921875 -1.421875 10.953125 3.296875 
Q 6 8.015625 6 15.921875 
Q 6 25.140625 12.171875 29.828125 
Q 18.359375 34.515625 30.609375 34.515625 
L 43.21875 34.515625 
L 43.21875 35.40625 
Q 43.21875 41.609375 39.140625 45 
Q 35.0625 48.390625 27.6875 48.390625 
Q 23 48.390625 18.546875 47.265625 
Q 14.109375 46.140625 10.015625 43.890625 
L 10.015625 52.203125 
Q 14.9375 54.109375 19.578125 55.046875 
Q 24.21875 56 28.609375 56 
Q 40.484375 56 46.34375 49.84375 
Q 52.203125 43.703125 52.203125 31.203125 
" id="BitstreamVeraSans-Roman-61"/>
      <path d="M 30.609375 48.390625 
Q 23.390625 48.390625 19.1875 42.75 
Q 14.984375 37.109375 14.984375 27.296875 
Q 14.984375 17.484375 19.15625 11.84375 
Q 23.34375 6.203125 30.609375 6.203125 
Q 37.796875 6.203125 41.984375 11.859375 
Q 46.1875 17.53125 46.1875 27.296875 
Q 46.1875 37.015625 41.984375 42.703125 
Q 37.796875 48.390625 30.609375 48.390625 
M 30.609375 56 
Q 42.328125 56 49.015625 48.375 
Q 55.71875 40.765625 55.71875 27.296875 
Q 55.71875 13.875 49.015625 6.21875 
Q 42.328125 -1.421875 30.609375 -1.421875 
Q 18.84375 -1.421875 12.171875 6.21875 
Q 5.515625 13.875 5.515625 27.296875 
Q 5.515625 40.765625 12.171875 48.375 
Q 18.84375 56 30.609375 56 
" id="BitstreamVeraSans-Roman-6f"/>
      <path d="M 9.421875 54.6875 
L 18.40625 54.6875 
L 18.40625 0 
L 9.421875 0 
z
M 9.421875 75.984375 
L 18.40625 75.984375 
L 18.40625 64.59375 
L 9.421875 64.59375 
z
" id="BitstreamVeraSans-Roman-69"/>
      <path d="M 56.203125 29.59375 
L 56.203125 25.203125 
L 14.890625 25.203125 
Q 15.484375 15.921875 20.484375 11.0625 
Q 25.484375 6.203125 34.421875 6.203125 
Q 39.59375 6.203125 44.453125 7.46875 
Q 49.3125 8.734375 54.109375 11.28125 
L 54.109375 2.78125 
Q 49.265625 0.734375 44.1875 -0.34375 
Q 39.109375 -1.421875 33.890625 -1.421875 
Q 20.796875 -1.421875 13.15625 6.1875 
Q 5.515625 13.8125 5.515625 26.8125 
Q 5.515625 40.234375 12.765625 48.109375 
Q 20.015625 56 32.328125 56 
Q 43.359375 56 49.78125 48.890625 
Q 56.203125 41.796875 56.203125 29.59375 
M 47.21875 32.234375 
Q 47.125 39.59375 43.09375 43.984375 
Q 39.0625 48.390625 32.421875 48.390625 
Q 24.90625 48.390625 20.390625 44.140625 
Q 15.875 39.890625 15.1875 32.171875 
z
" id="BitstreamVeraSans-Roman-65"/>
      <path d="M 18.3125 70.21875 
L 18.3125 54.6875 
L 36.8125 54.6875 
L 36.8125 47.703125 
L 18.3125 47.703125 
L 18.3125 18.015625 
Q 18.3125 11.328125 20.140625 9.421875 
Q 21.96875 7.515625 27.59375 7.515625 
L 36.8125 7.515625 
L 36.8125 0 
L 27.59375 0 
Q 17.1875 0 13.234375 3.875 
Q 9.28125 7.765625 9.28125 18.015625 
L 9.28125 47.703125 
L 2.6875 47.703125 
L 2.6875 54.6875 
L 9.28125 54.6875 
L 9.28125 70.21875 
z
" id="BitstreamVeraSans-Roman-74"/>
      <path d="M 41.109375 46.296875 
Q 39.59375 47.171875 37.8125 47.578125 
Q 36.03125 48 33.890625 48 
Q 26.265625 48 22.1875 43.046875 
Q 18.109375 38.09375 18.109375 28.8125 
L 18.109375 0 
L 9.078125 0 
L 9.078125 54.6875 
L 18.109375 54.6875 
L 18.109375 46.1875 
Q 20.953125 51.171875 25.484375 53.578125 
Q 30.03125 56 36.53125 56 
Q 37.453125 56 38.578125 55.875 
Q 39.703125 55.765625 41.0625 55.515625 
z
" id="BitstreamVeraSans-Roman-72"/>
      <path d="M 44.28125 53.078125 
L 44.28125 44.578125 
Q 40.484375 46.53125 36.375 47.5 
Q 32.28125 48.484375 27.875 48.484375 
Q 21.1875 48.484375 17.84375 46.4375 
Q 14.5 44.390625 14.5 40.28125 
Q 14.5 37.15625 16.890625 35.375 
Q 19.28125 33.59375 26.515625 31.984375 
L 29.59375 31.296875 
Q 39.15625 29.25 43.1875 25.515625 
Q 47.21875 21.78125 47.21875 15.09375 
Q 47.21875 7.46875 41.1875 3.015625 
Q 35.15625 -1.421875 24.609375 -1.421875 
Q 20.21875 -1.421875 15.453125 -0.5625 
Q 10.6875 0.296875 5.421875 2 
L 5.421875 11.28125 
Q 10.40625 8.6875 15.234375 7.390625 
Q 20.0625 6.109375 24.8125 6.109375 
Q 31.15625 6.109375 34.5625 8.28125 
Q 37.984375 10.453125 37.984375 14.40625 
Q 37.984375 18.0625 35.515625 20.015625 
Q 33.0625 21.96875 24.703125 23.78125 
L 21.578125 24.515625 
Q 13.234375 26.265625 9.515625 29.90625 
Q 5.8125 33.546875 5.8125 39.890625 
Q 5.8125 47.609375 11.28125 51.796875 
Q 16.75 56 26.8125 56 
Q 31.78125 56 36.171875 55.265625 
Q 40.578125 54.546875 44.28125 53.078125 
" id="BitstreamVeraSans-Roman-73"/>
     </defs>
     <g transform="translate(696.12421875 807.8296875)scale(0.3 -0.3)">
      <use xlink:href="#BitstreamVeraSans-Roman-69"/>
      <use x="27.783203125" xlink:href="#BitstreamVeraSans-Roman-74"/>
      <use x="66.9921875" xlink:href="#BitstreamVeraSans-Roman-65"/>
      <use x="128.515625" xlink:href="#BitstreamVeraSans-Roman-72"/>
      <use x="169.62890625" xlink:href="#BitstreamVeraSans-Roman-61"/>
      <use x="230.908203125" xlink:href="#BitstreamVeraSans-Roman-74"/>
      <use x="270.1171875" xlink:href="#BitstreamVeraSans-Roman-69"/>
      <use x="297.900390625" xlink:href="#BitstreamVeraSans-Roman-6f"/>
      <use x="359.08203125" xlink:href="#BitstreamVeraSans-Roman-6e"/>
      <use x="422.4609375" xlink:href="#BitstreamVeraSans-Roman-73"/>
     </g>
    </g>
   </g>
   <g id="matplotlib.axis_2">
    <g id="ytick_1">
     <g id="line2d_15">
      <defs>
       <path d="M 0 0 
L 4 0 
" id="mea2d21cf67" style="stroke:#000000;stroke-width:0.5;"/>
      </defs>
      <g>
       <use style="stroke:#000000;stroke-width:0.5;" x="198.5625" xlink:href="#mea2d21cf67" y="747.0"/>
      </g>
     </g>
     <g id="line2d_16">
      <defs>
       <path d="M 0 0 
L -4 0 
" id="m63e974ce11" style="stroke:#000000;stroke-width:0.5;"/>
      </defs>
      <g>
       <use style="stroke:#000000;stroke-width:0.5;" x="1336.05" xlink:href="#m63e974ce11" y="747.0"/>
      </g>
     </g>
     <g id="text_8">
      <!-- 0 -->
      <g transform="translate(175.475 755.278125)scale(0.3 -0.3)">
       <use xlink:href="#BitstreamVeraSans-Roman-30"/>
      </g>
     </g>
    </g>
    <g id="ytick_2">
     <g id="line2d_17">
      <g>
       <use style="stroke:#000000;stroke-width:0.5;" x="198.5625" xlink:href="#mea2d21cf67" y="669.7"/>
      </g>
     </g>
     <g id="line2d_18">
      <g>
       <use style="stroke:#000000;stroke-width:0.5;" x="1336.05" xlink:href="#m63e974ce11" y="669.7"/>
      </g>
     </g>
     <g id="text_9">
      <!-- 5000 -->
      <defs>
       <path d="M 10.796875 72.90625 
L 49.515625 72.90625 
L 49.515625 64.59375 
L 19.828125 64.59375 
L 19.828125 46.734375 
Q 21.96875 47.46875 24.109375 47.828125 
Q 26.265625 48.1875 28.421875 48.1875 
Q 40.625 48.1875 47.75 41.5 
Q 54.890625 34.8125 54.890625 23.390625 
Q 54.890625 11.625 47.5625 5.09375 
Q 40.234375 -1.421875 26.90625 -1.421875 
Q 22.3125 -1.421875 17.546875 -0.640625 
Q 12.796875 0.140625 7.71875 1.703125 
L 7.71875 11.625 
Q 12.109375 9.234375 16.796875 8.0625 
Q 21.484375 6.890625 26.703125 6.890625 
Q 35.15625 6.890625 40.078125 11.328125 
Q 45.015625 15.765625 45.015625 23.390625 
Q 45.015625 31 40.078125 35.4375 
Q 35.15625 39.890625 26.703125 39.890625 
Q 22.75 39.890625 18.8125 39.015625 
Q 14.890625 38.140625 10.796875 36.28125 
z
" id="BitstreamVeraSans-Roman-35"/>
      </defs>
      <g transform="translate(118.2125 677.978125)scale(0.3 -0.3)">
       <use xlink:href="#BitstreamVeraSans-Roman-35"/>
       <use x="63.623046875" xlink:href="#BitstreamVeraSans-Roman-30"/>
       <use x="127.24609375" xlink:href="#BitstreamVeraSans-Roman-30"/>
       <use x="190.869140625" xlink:href="#BitstreamVeraSans-Roman-30"/>
      </g>
     </g>
    </g>
    <g id="ytick_3">
     <g id="line2d_19">
      <g>
       <use style="stroke:#000000;stroke-width:0.5;" x="198.5625" xlink:href="#mea2d21cf67" y="592.4"/>
      </g>
     </g>
     <g id="line2d_20">
      <g>
       <use style="stroke:#000000;stroke-width:0.5;" x="1336.05" xlink:href="#m63e974ce11" y="592.4"/>
      </g>
     </g>
     <g id="text_10">
      <!-- 10000 -->
      <g transform="translate(99.125 600.678125)scale(0.3 -0.3)">
       <use xlink:href="#BitstreamVeraSans-Roman-31"/>
       <use x="63.623046875" xlink:href="#BitstreamVeraSans-Roman-30"/>
       <use x="127.24609375" xlink:href="#BitstreamVeraSans-Roman-30"/>
       <use x="190.869140625" xlink:href="#BitstreamVeraSans-Roman-30"/>
       <use x="254.4921875" xlink:href="#BitstreamVeraSans-Roman-30"/>
      </g>
     </g>
    </g>
    <g id="ytick_4">
     <g id="line2d_21">
      <g>
       <use style="stroke:#000000;stroke-width:0.5;" x="198.5625" xlink:href="#mea2d21cf67" y="515.1"/>
      </g>
     </g>
     <g id="line2d_22">
      <g>
       <use style="stroke:#000000;stroke-width:0.5;" x="1336.05" xlink:href="#m63e974ce11" y="515.1"/>
      </g>
     </g>
     <g id="text_11">
      <!-- 15000 -->
      <g transform="translate(99.125 523.378125)scale(0.3 -0.3)">
       <use xlink:href="#BitstreamVeraSans-Roman-31"/>
       <use x="63.623046875" xlink:href="#BitstreamVeraSans-Roman-35"/>
       <use x="127.24609375" xlink:href="#BitstreamVeraSans-Roman-30"/>
       <use x="190.869140625" xlink:href="#BitstreamVeraSans-Roman-30"/>
       <use x="254.4921875" xlink:href="#BitstreamVeraSans-Roman-30"/>
      </g>
     </g>
    </g>
    <g id="ytick_5">
     <g id="line2d_23">
      <g>
       <use style="stroke:#000000;stroke-width:0.5;" x="198.5625" xlink:href="#mea2d21cf67" y="437.8"/>
      </g>
     </g>
     <g id="line2d_24">
      <g>
       <use style="stroke:#000000;stroke-width:0.5;" x="1336.05" xlink:href="#m63e974ce11" y="437.8"/>
      </g>
     </g>
     <g id="text_12">
      <!-- 20000 -->
      <g transform="translate(99.125 446.078125)scale(0.3 -0.3)">
       <use xlink:href="#BitstreamVeraSans-Roman-32"/>
       <use x="63.623046875" xlink:href="#BitstreamVeraSans-Roman-30"/>
       <use x="127.24609375" xlink:href="#BitstreamVeraSans-Roman-30"/>
       <use x="190.869140625" xlink:href="#BitstreamVeraSans-Roman-30"/>
       <use x="254.4921875" xlink:href="#BitstreamVeraSans-Roman-30"/>
      </g>
     </g>
    </g>
    <g id="ytick_6">
     <g id="line2d_25">
      <g>
       <use style="stroke:#000000;stroke-width:0.5;" x="198.5625" xlink:href="#mea2d21cf67" y="360.5"/>
      </g>
     </g>
     <g id="line2d_26">
      <g>
       <use style="stroke:#000000;stroke-width:0.5;" x="1336.05" xlink:href="#m63e974ce11" y="360.5"/>
      </g>
     </g>
     <g id="text_13">
      <!-- 25000 -->
      <g transform="translate(99.125 368.778125)scale(0.3 -0.3)">
       <use xlink:href="#BitstreamVeraSans-Roman-32"/>
       <use x="63.623046875" xlink:href="#BitstreamVeraSans-Roman-35"/>
       <use x="127.24609375" xlink:href="#BitstreamVeraSans-Roman-30"/>
       <use x="190.869140625" xlink:href="#BitstreamVeraSans-Roman-30"/>
       <use x="254.4921875" xlink:href="#BitstreamVeraSans-Roman-30"/>
      </g>
     </g>
    </g>
    <g id="ytick_7">
     <g id="line2d_27">
      <g>
       <use style="stroke:#000000;stroke-width:0.5;" x="198.5625" xlink:href="#mea2d21cf67" y="283.2"/>
      </g>
     </g>
     <g id="line2d_28">
      <g>
       <use style="stroke:#000000;stroke-width:0.5;" x="1336.05" xlink:href="#m63e974ce11" y="283.2"/>
      </g>
     </g>
     <g id="text_14">
      <!-- 30000 -->
      <defs>
       <path d="M 40.578125 39.3125 
Q 47.65625 37.796875 51.625 33 
Q 55.609375 28.21875 55.609375 21.1875 
Q 55.609375 10.40625 48.1875 4.484375 
Q 40.765625 -1.421875 27.09375 -1.421875 
Q 22.515625 -1.421875 17.65625 -0.515625 
Q 12.796875 0.390625 7.625 2.203125 
L 7.625 11.71875 
Q 11.71875 9.328125 16.59375 8.109375 
Q 21.484375 6.890625 26.8125 6.890625 
Q 36.078125 6.890625 40.9375 10.546875 
Q 45.796875 14.203125 45.796875 21.1875 
Q 45.796875 27.640625 41.28125 31.265625 
Q 36.765625 34.90625 28.71875 34.90625 
L 20.21875 34.90625 
L 20.21875 43.015625 
L 29.109375 43.015625 
Q 36.375 43.015625 40.234375 45.921875 
Q 44.09375 48.828125 44.09375 54.296875 
Q 44.09375 59.90625 40.109375 62.90625 
Q 36.140625 65.921875 28.71875 65.921875 
Q 24.65625 65.921875 20.015625 65.03125 
Q 15.375 64.15625 9.8125 62.3125 
L 9.8125 71.09375 
Q 15.4375 72.65625 20.34375 73.4375 
Q 25.25 74.21875 29.59375 74.21875 
Q 40.828125 74.21875 47.359375 69.109375 
Q 53.90625 64.015625 53.90625 55.328125 
Q 53.90625 49.265625 50.4375 45.09375 
Q 46.96875 40.921875 40.578125 39.3125 
" id="BitstreamVeraSans-Roman-33"/>
      </defs>
      <g transform="translate(99.125 291.478125)scale(0.3 -0.3)">
       <use xlink:href="#BitstreamVeraSans-Roman-33"/>
       <use x="63.623046875" xlink:href="#BitstreamVeraSans-Roman-30"/>
       <use x="127.24609375" xlink:href="#BitstreamVeraSans-Roman-30"/>
       <use x="190.869140625" xlink:href="#BitstreamVeraSans-Roman-30"/>
       <use x="254.4921875" xlink:href="#BitstreamVeraSans-Roman-30"/>
      </g>
     </g>
    </g>
    <g id="ytick_8">
     <g id="line2d_29">
      <g>
       <use style="stroke:#000000;stroke-width:0.5;" x="198.5625" xlink:href="#mea2d21cf67" y="205.9"/>
      </g>
     </g>
     <g id="line2d_30">
      <g>
       <use style="stroke:#000000;stroke-width:0.5;" x="1336.05" xlink:href="#m63e974ce11" y="205.9"/>
      </g>
     </g>
     <g id="text_15">
      <!-- 35000 -->
      <g transform="translate(99.125 214.178125)scale(0.3 -0.3)">
       <use xlink:href="#BitstreamVeraSans-Roman-33"/>
       <use x="63.623046875" xlink:href="#BitstreamVeraSans-Roman-35"/>
       <use x="127.24609375" xlink:href="#BitstreamVeraSans-Roman-30"/>
       <use x="190.869140625" xlink:href="#BitstreamVeraSans-Roman-30"/>
       <use x="254.4921875" xlink:href="#BitstreamVeraSans-Roman-30"/>
      </g>
     </g>
    </g>
    <g id="ytick_9">
     <g id="line2d_31">
      <g>
       <use style="stroke:#000000;stroke-width:0.5;" x="198.5625" xlink:href="#mea2d21cf67" y="128.6"/>
      </g>
     </g>
     <g id="line2d_32">
      <g>
       <use style="stroke:#000000;stroke-width:0.5;" x="1336.05" xlink:href="#m63e974ce11" y="128.6"/>
      </g>
     </g>
     <g id="text_16">
      <!-- 40000 -->
      <g transform="translate(99.125 136.878125)scale(0.3 -0.3)">
       <use xlink:href="#BitstreamVeraSans-Roman-34"/>
       <use x="63.623046875" xlink:href="#BitstreamVeraSans-Roman-30"/>
       <use x="127.24609375" xlink:href="#BitstreamVeraSans-Roman-30"/>
       <use x="190.869140625" xlink:href="#BitstreamVeraSans-Roman-30"/>
       <use x="254.4921875" xlink:href="#BitstreamVeraSans-Roman-30"/>
      </g>
     </g>
    </g>
    <g id="ytick_10">
     <g id="line2d_33">
      <g>
       <use style="stroke:#000000;stroke-width:0.5;" x="198.5625" xlink:href="#mea2d21cf67" y="51.3"/>
      </g>
     </g>
     <g id="line2d_34">
      <g>
       <use style="stroke:#000000;stroke-width:0.5;" x="1336.05" xlink:href="#m63e974ce11" y="51.3"/>
      </g>
     </g>
     <g id="text_17">
      <!-- 45000 -->
      <g transform="translate(99.125 59.578125)scale(0.3 -0.3)">
       <use xlink:href="#BitstreamVeraSans-Roman-34"/>
       <use x="63.623046875" xlink:href="#BitstreamVeraSans-Roman-35"/>
       <use x="127.24609375" xlink:href="#BitstreamVeraSans-Roman-30"/>
       <use x="190.869140625" xlink:href="#BitstreamVeraSans-Roman-30"/>
       <use x="254.4921875" xlink:href="#BitstreamVeraSans-Roman-30"/>
      </g>
     </g>
    </g>
    <g id="text_18">
     <!-- log(loss) -->
     <defs>
      <path d="M 8.015625 75.875 
L 15.828125 75.875 
Q 23.140625 64.359375 26.78125 53.3125 
Q 30.421875 42.28125 30.421875 31.390625 
Q 30.421875 20.453125 26.78125 9.375 
Q 23.140625 -1.703125 15.828125 -13.1875 
L 8.015625 -13.1875 
Q 14.5 -2 17.703125 9.0625 
Q 20.90625 20.125 20.90625 31.390625 
Q 20.90625 42.671875 17.703125 53.65625 
Q 14.5 64.65625 8.015625 75.875 
" id="BitstreamVeraSans-Roman-29"/>
      <path d="M 31 75.875 
Q 24.46875 64.65625 21.28125 53.65625 
Q 18.109375 42.671875 18.109375 31.390625 
Q 18.109375 20.125 21.3125 9.0625 
Q 24.515625 -2 31 -13.1875 
L 23.1875 -13.1875 
Q 15.875 -1.703125 12.234375 9.375 
Q 8.59375 20.453125 8.59375 31.390625 
Q 8.59375 42.28125 12.203125 53.3125 
Q 15.828125 64.359375 23.1875 75.875 
z
" id="BitstreamVeraSans-Roman-28"/>
      <path d="M 45.40625 27.984375 
Q 45.40625 37.75 41.375 43.109375 
Q 37.359375 48.484375 30.078125 48.484375 
Q 22.859375 48.484375 18.828125 43.109375 
Q 14.796875 37.75 14.796875 27.984375 
Q 14.796875 18.265625 18.828125 12.890625 
Q 22.859375 7.515625 30.078125 7.515625 
Q 37.359375 7.515625 41.375 12.890625 
Q 45.40625 18.265625 45.40625 27.984375 
M 54.390625 6.78125 
Q 54.390625 -7.171875 48.1875 -13.984375 
Q 42 -20.796875 29.203125 -20.796875 
Q 24.46875 -20.796875 20.265625 -20.09375 
Q 16.0625 -19.390625 12.109375 -17.921875 
L 12.109375 -9.1875 
Q 16.0625 -11.328125 19.921875 -12.34375 
Q 23.78125 -13.375 27.78125 -13.375 
Q 36.625 -13.375 41.015625 -8.765625 
Q 45.40625 -4.15625 45.40625 5.171875 
L 45.40625 9.625 
Q 42.625 4.78125 38.28125 2.390625 
Q 33.9375 0 27.875 0 
Q 17.828125 0 11.671875 7.65625 
Q 5.515625 15.328125 5.515625 27.984375 
Q 5.515625 40.671875 11.671875 48.328125 
Q 17.828125 56 27.875 56 
Q 33.9375 56 38.28125 53.609375 
Q 42.625 51.21875 45.40625 46.390625 
L 45.40625 54.6875 
L 54.390625 54.6875 
z
" id="BitstreamVeraSans-Roman-67"/>
      <path d="M 9.421875 75.984375 
L 18.40625 75.984375 
L 18.40625 0 
L 9.421875 0 
z
" id="BitstreamVeraSans-Roman-6c"/>
     </defs>
     <g transform="translate(87.8859375 462.69609375)rotate(-90.0)scale(0.3 -0.3)">
      <use xlink:href="#BitstreamVeraSans-Roman-6c"/>
      <use x="27.783203125" xlink:href="#BitstreamVeraSans-Roman-6f"/>
      <use x="88.96484375" xlink:href="#BitstreamVeraSans-Roman-67"/>
      <use x="152.44140625" xlink:href="#BitstreamVeraSans-Roman-28"/>
      <use x="191.455078125" xlink:href="#BitstreamVeraSans-Roman-6c"/>
      <use x="219.23828125" xlink:href="#BitstreamVeraSans-Roman-6f"/>
      <use x="280.419921875" xlink:href="#BitstreamVeraSans-Roman-73"/>
      <use x="332.51953125" xlink:href="#BitstreamVeraSans-Roman-73"/>
      <use x="384.619140625" xlink:href="#BitstreamVeraSans-Roman-29"/>
     </g>
    </g>
   </g>
   <g id="legend_1">
    <g id="patch_7">
     <path d="M 843.876562 163.36875 
L 1321.05 163.36875 
L 1321.05 66.3 
L 843.876562 66.3 
z
" style="fill:#ffffff;stroke:#000000;stroke-linejoin:miter;"/>
    </g>
    <g id="line2d_35">
     <path d="M 864.876562 90.595312 
L 906.876562 90.595312 
" style="fill:none;stroke:#0000ff;stroke-linecap:square;stroke-width:2.0;"/>
    </g>
    <g id="line2d_36"/>
    <g id="text_19">
     <!-- random: step=0.193750 -->
     <defs>
      <path id="BitstreamVeraSans-Roman-20"/>
      <path d="M 8.203125 72.90625 
L 55.078125 72.90625 
L 55.078125 68.703125 
L 28.609375 0 
L 18.3125 0 
L 43.21875 64.59375 
L 8.203125 64.59375 
z
" id="BitstreamVeraSans-Roman-37"/>
      <path d="M 52 44.1875 
Q 55.375 50.25 60.0625 53.125 
Q 64.75 56 71.09375 56 
Q 79.640625 56 84.28125 50.015625 
Q 88.921875 44.046875 88.921875 33.015625 
L 88.921875 0 
L 79.890625 0 
L 79.890625 32.71875 
Q 79.890625 40.578125 77.09375 44.375 
Q 74.3125 48.1875 68.609375 48.1875 
Q 61.625 48.1875 57.5625 43.546875 
Q 53.515625 38.921875 53.515625 30.90625 
L 53.515625 0 
L 44.484375 0 
L 44.484375 32.71875 
Q 44.484375 40.625 41.703125 44.40625 
Q 38.921875 48.1875 33.109375 48.1875 
Q 26.21875 48.1875 22.15625 43.53125 
Q 18.109375 38.875 18.109375 30.90625 
L 18.109375 0 
L 9.078125 0 
L 9.078125 54.6875 
L 18.109375 54.6875 
L 18.109375 46.1875 
Q 21.1875 51.21875 25.484375 53.609375 
Q 29.78125 56 35.6875 56 
Q 41.65625 56 45.828125 52.96875 
Q 50 49.953125 52 44.1875 
" id="BitstreamVeraSans-Roman-6d"/>
      <path d="M 10.984375 1.515625 
L 10.984375 10.5 
Q 14.703125 8.734375 18.5 7.8125 
Q 22.3125 6.890625 25.984375 6.890625 
Q 35.75 6.890625 40.890625 13.453125 
Q 46.046875 20.015625 46.78125 33.40625 
Q 43.953125 29.203125 39.59375 26.953125 
Q 35.25 24.703125 29.984375 24.703125 
Q 19.046875 24.703125 12.671875 31.3125 
Q 6.296875 37.9375 6.296875 49.421875 
Q 6.296875 60.640625 12.9375 67.421875 
Q 19.578125 74.21875 30.609375 74.21875 
Q 43.265625 74.21875 49.921875 64.515625 
Q 56.59375 54.828125 56.59375 36.375 
Q 56.59375 19.140625 48.40625 8.859375 
Q 40.234375 -1.421875 26.421875 -1.421875 
Q 22.703125 -1.421875 18.890625 -0.6875 
Q 15.09375 0.046875 10.984375 1.515625 
M 30.609375 32.421875 
Q 37.25 32.421875 41.125 36.953125 
Q 45.015625 41.5 45.015625 49.421875 
Q 45.015625 57.28125 41.125 61.84375 
Q 37.25 66.40625 30.609375 66.40625 
Q 23.96875 66.40625 20.09375 61.84375 
Q 16.21875 57.28125 16.21875 49.421875 
Q 16.21875 41.5 20.09375 36.953125 
Q 23.96875 32.421875 30.609375 32.421875 
" id="BitstreamVeraSans-Roman-39"/>
      <path d="M 11.71875 12.40625 
L 22.015625 12.40625 
L 22.015625 0 
L 11.71875 0 
z
M 11.71875 51.703125 
L 22.015625 51.703125 
L 22.015625 39.3125 
L 11.71875 39.3125 
z
" id="BitstreamVeraSans-Roman-3a"/>
      <path d="M 10.6875 12.40625 
L 21 12.40625 
L 21 0 
L 10.6875 0 
z
" id="BitstreamVeraSans-Roman-2e"/>
      <path d="M 10.59375 45.40625 
L 73.1875 45.40625 
L 73.1875 37.203125 
L 10.59375 37.203125 
z
M 10.59375 25.484375 
L 73.1875 25.484375 
L 73.1875 17.1875 
L 10.59375 17.1875 
z
" id="BitstreamVeraSans-Roman-3d"/>
      <path d="M 45.40625 46.390625 
L 45.40625 75.984375 
L 54.390625 75.984375 
L 54.390625 0 
L 45.40625 0 
L 45.40625 8.203125 
Q 42.578125 3.328125 38.25 0.953125 
Q 33.9375 -1.421875 27.875 -1.421875 
Q 17.96875 -1.421875 11.734375 6.484375 
Q 5.515625 14.40625 5.515625 27.296875 
Q 5.515625 40.1875 11.734375 48.09375 
Q 17.96875 56 27.875 56 
Q 33.9375 56 38.25 53.625 
Q 42.578125 51.265625 45.40625 46.390625 
M 14.796875 27.296875 
Q 14.796875 17.390625 18.875 11.75 
Q 22.953125 6.109375 30.078125 6.109375 
Q 37.203125 6.109375 41.296875 11.75 
Q 45.40625 17.390625 45.40625 27.296875 
Q 45.40625 37.203125 41.296875 42.84375 
Q 37.203125 48.484375 30.078125 48.484375 
Q 22.953125 48.484375 18.875 42.84375 
Q 14.796875 37.203125 14.796875 27.296875 
" id="BitstreamVeraSans-Roman-64"/>
      <path d="M 18.109375 8.203125 
L 18.109375 -20.796875 
L 9.078125 -20.796875 
L 9.078125 54.6875 
L 18.109375 54.6875 
L 18.109375 46.390625 
Q 20.953125 51.265625 25.265625 53.625 
Q 29.59375 56 35.59375 56 
Q 45.5625 56 51.78125 48.09375 
Q 58.015625 40.1875 58.015625 27.296875 
Q 58.015625 14.40625 51.78125 6.484375 
Q 45.5625 -1.421875 35.59375 -1.421875 
Q 29.59375 -1.421875 25.265625 0.953125 
Q 20.953125 3.328125 18.109375 8.203125 
M 48.6875 27.296875 
Q 48.6875 37.203125 44.609375 42.84375 
Q 40.53125 48.484375 33.40625 48.484375 
Q 26.265625 48.484375 22.1875 42.84375 
Q 18.109375 37.203125 18.109375 27.296875 
Q 18.109375 17.390625 22.1875 11.75 
Q 26.265625 6.109375 33.40625 6.109375 
Q 40.53125 6.109375 44.609375 11.75 
Q 48.6875 17.390625 48.6875 27.296875 
" id="BitstreamVeraSans-Roman-70"/>
     </defs>
     <g transform="translate(939.8765625 101.0953125)scale(0.3 -0.3)">
      <use xlink:href="#BitstreamVeraSans-Roman-72"/>
      <use x="41.11328125" xlink:href="#BitstreamVeraSans-Roman-61"/>
      <use x="102.392578125" xlink:href="#BitstreamVeraSans-Roman-6e"/>
      <use x="165.771484375" xlink:href="#BitstreamVeraSans-Roman-64"/>
      <use x="229.248046875" xlink:href="#BitstreamVeraSans-Roman-6f"/>
      <use x="290.4296875" xlink:href="#BitstreamVeraSans-Roman-6d"/>
      <use x="387.841796875" xlink:href="#BitstreamVeraSans-Roman-3a"/>
      <use x="421.533203125" xlink:href="#BitstreamVeraSans-Roman-20"/>
      <use x="453.3203125" xlink:href="#BitstreamVeraSans-Roman-73"/>
      <use x="505.419921875" xlink:href="#BitstreamVeraSans-Roman-74"/>
      <use x="544.62890625" xlink:href="#BitstreamVeraSans-Roman-65"/>
      <use x="606.15234375" xlink:href="#BitstreamVeraSans-Roman-70"/>
      <use x="669.62890625" xlink:href="#BitstreamVeraSans-Roman-3d"/>
      <use x="753.41796875" xlink:href="#BitstreamVeraSans-Roman-30"/>
      <use x="817.041015625" xlink:href="#BitstreamVeraSans-Roman-2e"/>
      <use x="848.828125" xlink:href="#BitstreamVeraSans-Roman-31"/>
      <use x="912.451171875" xlink:href="#BitstreamVeraSans-Roman-39"/>
      <use x="976.07421875" xlink:href="#BitstreamVeraSans-Roman-33"/>
      <use x="1039.69726562" xlink:href="#BitstreamVeraSans-Roman-37"/>
      <use x="1103.3203125" xlink:href="#BitstreamVeraSans-Roman-35"/>
      <use x="1166.94335938" xlink:href="#BitstreamVeraSans-Roman-30"/>
     </g>
    </g>
    <g id="line2d_37">
     <path d="M 864.876562 134.629687 
L 906.876562 134.629687 
" style="fill:none;stroke:#008000;stroke-dasharray:6.000000,6.000000;stroke-dashoffset:0.0;stroke-width:2.0;"/>
    </g>
    <g id="line2d_38"/>
    <g id="text_20">
     <!-- corr: step=0.193750 -->
     <defs>
      <path d="M 48.78125 52.59375 
L 48.78125 44.1875 
Q 44.96875 46.296875 41.140625 47.34375 
Q 37.3125 48.390625 33.40625 48.390625 
Q 24.65625 48.390625 19.8125 42.84375 
Q 14.984375 37.3125 14.984375 27.296875 
Q 14.984375 17.28125 19.8125 11.734375 
Q 24.65625 6.203125 33.40625 6.203125 
Q 37.3125 6.203125 41.140625 7.25 
Q 44.96875 8.296875 48.78125 10.40625 
L 48.78125 2.09375 
Q 45.015625 0.34375 40.984375 -0.53125 
Q 36.96875 -1.421875 32.421875 -1.421875 
Q 20.0625 -1.421875 12.78125 6.34375 
Q 5.515625 14.109375 5.515625 27.296875 
Q 5.515625 40.671875 12.859375 48.328125 
Q 20.21875 56 33.015625 56 
Q 37.15625 56 41.109375 55.140625 
Q 45.0625 54.296875 48.78125 52.59375 
" id="BitstreamVeraSans-Roman-63"/>
     </defs>
     <g transform="translate(939.8765625 145.1296875)scale(0.3 -0.3)">
      <use xlink:href="#BitstreamVeraSans-Roman-63"/>
      <use x="54.98046875" xlink:href="#BitstreamVeraSans-Roman-6f"/>
      <use x="116.162109375" xlink:href="#BitstreamVeraSans-Roman-72"/>
      <use x="157.259765625" xlink:href="#BitstreamVeraSans-Roman-72"/>
      <use x="198.357421875" xlink:href="#BitstreamVeraSans-Roman-3a"/>
      <use x="232.048828125" xlink:href="#BitstreamVeraSans-Roman-20"/>
      <use x="263.8359375" xlink:href="#BitstreamVeraSans-Roman-73"/>
      <use x="315.935546875" xlink:href="#BitstreamVeraSans-Roman-74"/>
      <use x="355.14453125" xlink:href="#BitstreamVeraSans-Roman-65"/>
      <use x="416.66796875" xlink:href="#BitstreamVeraSans-Roman-70"/>
      <use x="480.14453125" xlink:href="#BitstreamVeraSans-Roman-3d"/>
      <use x="563.93359375" xlink:href="#BitstreamVeraSans-Roman-30"/>
      <use x="627.556640625" xlink:href="#BitstreamVeraSans-Roman-2e"/>
      <use x="659.34375" xlink:href="#BitstreamVeraSans-Roman-31"/>
      <use x="722.966796875" xlink:href="#BitstreamVeraSans-Roman-39"/>
      <use x="786.58984375" xlink:href="#BitstreamVeraSans-Roman-33"/>
      <use x="850.212890625" xlink:href="#BitstreamVeraSans-Roman-37"/>
      <use x="913.8359375" xlink:href="#BitstreamVeraSans-Roman-35"/>
      <use x="977.458984375" xlink:href="#BitstreamVeraSans-Roman-30"/>
     </g>
    </g>
   </g>
  </g>
 </g>
 <defs>
  <clipPath id="pf53d777269">
   <rect height="695.7" width="1137.4875" x="198.5625" y="51.3"/>
  </clipPath>
 </defs>
</svg>
