<?xml version="1.0" encoding="utf-8" standalone="no"?>
<!DOCTYPE svg PUBLIC "-//W3C//DTD SVG 1.1//EN"
  "http://www.w3.org/Graphics/SVG/1.1/DTD/svg11.dtd">
<!-- Created with matplotlib (http://matplotlib.org/) -->
<svg height="864pt" version="1.1" viewBox="0 0 1440 864" width="1440pt" xmlns="http://www.w3.org/2000/svg" xmlns:xlink="http://www.w3.org/1999/xlink">
 <defs>
  <style type="text/css">
*{stroke-linecap:butt;stroke-linejoin:round;stroke-miterlimit:100000;}
  </style>
 </defs>
 <g id="figure_1">
  <g id="patch_1">
   <path d="M 0 864 
L 1440 864 
L 1440 0 
L 0 0 
z
" style="fill:#ffffff;"/>
  </g>
  <g id="axes_1">
   <g id="patch_2">
    <path d="M 198.45 747 
L 1336.05 747 
L 1336.05 51.3 
L 198.45 51.3 
z
" style="fill:#ffffff;"/>
   </g>
   <g id="line2d_1">
    <path clip-path="url(#pad31242b8f)" d="M 199.5876 159.557042 
L 200.7252 332.818623 
L 201.8628 576.469153 
L 203.0004 587.629072 
L 204.138 466.145075 
L 205.2756 602.111236 
L 206.4132 541.641716 
L 207.5508 607.303023 
L 208.6884 639.662284 
L 209.826 506.445 
L 210.9636 595.162251 
L 212.1012 577.856797 
L 213.2388 615.587363 
L 214.3764 624.629236 
L 215.514 607.396079 
L 216.6516 605.335138 
L 217.7892 540.83526 
L 218.9268 584.332177 
L 220.0644 574.299432 
L 221.202 505.344236 
L 222.3396 579.002447 
L 223.4772 615.954525 
L 224.6148 597.255918 
L 225.7524 629.981841 
L 226.89 635.228031 
L 228.0276 630.860065 
L 229.1652 636.195054 
L 230.3028 579.522831 
L 231.4404 546.345176 
L 232.578 625.158998 
L 233.7156 603.144712 
L 234.8532 604.359766 
L 235.9908 601.004878 
L 237.1284 627.642591 
L 238.266 629.522317 
L 239.4036 529.054833 
L 240.5412 609.390317 
L 241.6788 610.011411 
L 242.8164 618.207619 
L 243.954 620.149791 
L 245.0916 628.416154 
L 246.2292 621.535347 
L 247.3668 593.216906 
L 248.5044 531.177525 
L 249.642 648.546846 
L 250.7796 621.560587 
L 251.9172 638.694788 
L 253.0548 577.34568 
L 254.1924 584.561369 
L 255.33 586.995428 
L 256.4676 644.349715 
L 257.6052 645.988117 
L 258.7428 588.353101 
L 259.8804 631.505591 
L 261.018 591.507544 
L 262.1556 642.978658 
L 263.2932 638.681514 
L 264.4308 635.473585 
L 265.5684 646.70146 
L 266.706 634.741514 
L 267.8436 643.215919 
L 270.1188 649.082952 
L 271.2564 607.029919 
L 272.394 658.063131 
L 273.5316 624.421417 
L 274.6692 616.315621 
L 275.8068 639.411108 
L 276.9444 621.187302 
L 278.082 656.346088 
L 279.2196 583.345341 
L 280.3572 635.86443 
L 282.6324 658.781094 
L 283.77 636.139509 
L 284.9076 608.706723 
L 286.0452 652.834918 
L 287.1828 628.422332 
L 288.3204 654.488235 
L 289.458 653.838507 
L 290.5956 656.581513 
L 291.7332 653.075352 
L 292.8708 648.642379 
L 294.0084 630.577388 
L 295.146 658.922961 
L 296.2836 633.557822 
L 297.4212 621.427569 
L 298.5588 636.853854 
L 299.6964 640.456996 
L 300.834 613.527367 
L 301.9716 630.594641 
L 303.1092 626.532421 
L 304.2468 659.020387 
L 305.3844 656.960614 
L 306.522 651.142781 
L 307.6596 616.298062 
L 308.7972 659.376975 
L 309.9348 651.93151 
L 311.0724 660.011397 
L 312.21 660.223502 
L 313.3476 664.780922 
L 314.4852 644.957646 
L 315.6228 630.144607 
L 316.7604 605.181638 
L 317.898 652.693774 
L 319.0356 632.447624 
L 320.1732 646.356949 
L 321.3108 634.968646 
L 322.4484 632.790298 
L 323.586 651.321576 
L 324.7236 667.847929 
L 325.8612 661.587464 
L 326.9988 656.33824 
L 328.1364 621.823478 
L 329.274 621.66664 
L 330.4116 652.021589 
L 331.5492 599.505478 
L 332.6868 630.082105 
L 333.8244 645.403423 
L 334.962 590.99242 
L 336.0996 647.657129 
L 337.2372 601.825665 
L 338.3748 637.947578 
L 339.5124 654.640315 
L 340.65 664.189493 
L 341.7876 616.813631 
L 342.9252 628.056338 
L 344.0628 661.983456 
L 345.2004 651.956666 
L 346.338 674.377575 
L 347.4756 594.936009 
L 348.6132 657.415768 
L 349.7508 650.141195 
L 350.8884 620.937101 
L 352.026 656.136487 
L 353.1636 634.796085 
L 354.3012 655.21808 
L 355.4388 652.412517 
L 356.5764 663.01248 
L 357.714 639.446116 
L 358.8516 657.905374 
L 359.9892 660.778476 
L 361.1268 667.778693 
L 362.2644 644.900237 
L 363.402 646.155641 
L 364.5396 656.333148 
L 365.6772 660.490568 
L 366.8148 627.63441 
L 367.9524 658.568404 
L 369.09 636.913601 
L 370.2276 674.048926 
L 371.3652 667.924512 
L 372.5028 659.322265 
L 373.6404 646.152886 
L 374.778 636.751864 
L 375.9156 670.752866 
L 377.0532 647.189201 
L 378.1908 628.935731 
L 379.3284 650.133348 
L 380.466 608.16032 
L 381.6036 668.306702 
L 382.7412 667.37861 
L 383.8788 654.675128 
L 385.0164 672.279538 
L 386.154 665.636828 
L 387.2916 628.971935 
L 388.4292 656.935902 
L 389.5668 655.068365 
L 390.7044 673.337531 
L 391.842 656.674041 
L 392.9796 665.937509 
L 394.1172 679.116933 
L 395.2548 681.445887 
L 396.3924 651.956638 
L 397.53 649.539916 
L 399.8052 677.291695 
L 400.9428 667.195669 
L 402.0804 673.003873 
L 403.218 676.434926 
L 404.3556 657.795036 
L 405.4932 655.042847 
L 406.6308 655.620612 
L 407.7684 676.486547 
L 408.906 653.559559 
L 410.0436 657.675571 
L 411.1812 642.98247 
L 412.3188 667.599536 
L 413.4564 661.975609 
L 414.594 669.062482 
L 415.7316 649.325751 
L 416.8692 677.93352 
L 418.0068 617.606061 
L 419.1444 673.211414 
L 420.282 668.953619 
L 421.4196 652.418082 
L 422.5572 672.828334 
L 423.6948 648.540195 
L 424.8324 558.728469 
L 425.97 664.163947 
L 427.1076 651.370748 
L 428.2452 660.40188 
L 429.3828 674.992545 
L 430.5204 656.608395 
L 431.658 681.536355 
L 432.7956 622.879189 
L 433.9332 662.227091 
L 435.0708 664.251884 
L 436.2084 667.287612 
L 437.346 659.946864 
L 438.4836 662.703228 
L 439.6212 637.512515 
L 440.7588 654.766571 
L 441.8964 673.899267 
L 443.034 672.039716 
L 444.1716 672.159293 
L 445.3092 663.450215 
L 446.4468 647.124612 
L 447.5844 670.262759 
L 448.722 664.501389 
L 449.8596 673.732577 
L 450.9972 675.536193 
L 452.1348 666.185373 
L 453.2724 617.969801 
L 454.41 675.386562 
L 455.5476 668.323927 
L 456.6852 673.011971 
L 457.8228 656.614934 
L 458.9604 684.053982 
L 460.098 674.205124 
L 461.2356 655.371579 
L 462.3732 677.698846 
L 463.5108 656.754464 
L 464.6484 629.133727 
L 465.786 625.918981 
L 468.0612 677.809045 
L 469.1988 678.186977 
L 470.3364 678.880256 
L 471.474 671.771232 
L 472.6116 666.840277 
L 473.7492 666.607246 
L 474.8868 654.478607 
L 476.0244 625.337932 
L 477.162 688.84588 
L 478.2996 682.447472 
L 479.4372 654.839564 
L 480.5748 674.030587 
L 481.7124 666.651242 
L 482.85 672.971787 
L 483.9876 659.651108 
L 485.1252 657.475515 
L 486.2628 665.983537 
L 487.4004 672.638158 
L 488.538 685.225847 
L 489.6756 688.666418 
L 490.8132 643.921776 
L 491.9508 653.077578 
L 493.0884 642.646892 
L 494.226 657.020166 
L 496.5012 682.292887 
L 497.6388 682.915094 
L 498.7764 688.703123 
L 499.914 655.862938 
L 501.0516 677.754141 
L 502.1892 679.099123 
L 503.3268 681.874493 
L 504.4644 682.360454 
L 505.602 676.271632 
L 506.7396 691.158972 
L 507.8772 675.279397 
L 509.0148 634.857612 
L 510.1524 687.261438 
L 511.29 636.296042 
L 512.4276 678.04127 
L 513.5652 668.489392 
L 514.7028 647.562458 
L 515.8404 687.525637 
L 516.978 667.349057 
L 518.1156 680.14323 
L 519.2532 665.687363 
L 520.3908 681.721467 
L 521.5284 658.410592 
L 522.666 680.328203 
L 523.8036 682.856321 
L 524.9412 686.550015 
L 526.0788 683.033808 
L 527.2164 668.263429 
L 528.354 656.502426 
L 529.4916 681.756948 
L 530.6292 680.450173 
L 531.7668 666.669775 
L 532.9044 686.11626 
L 534.042 685.565293 
L 535.1796 693.347922 
L 536.3172 646.338249 
L 537.4548 678.620315 
L 538.5924 689.209954 
L 539.73 664.019548 
L 540.8676 682.560871 
L 542.0052 665.795892 
L 543.1428 664.74661 
L 544.2804 676.565245 
L 545.418 684.65849 
L 546.5556 681.435395 
L 547.6932 644.298735 
L 548.8308 668.257891 
L 551.106 680.678001 
L 552.2436 693.282443 
L 553.3812 679.329539 
L 554.5188 653.248637 
L 555.6564 685.97186 
L 556.794 657.398014 
L 557.9316 668.597337 
L 559.0692 675.072078 
L 560.2068 692.395258 
L 561.3444 691.853447 
L 562.482 646.241992 
L 563.6196 674.970534 
L 564.7572 690.800686 
L 565.8948 687.131203 
L 567.0324 681.930066 
L 568.17 691.354018 
L 569.3076 695.764394 
L 570.4452 679.931014 
L 571.5828 688.485174 
L 572.7204 689.822699 
L 573.858 684.144813 
L 574.9956 691.579341 
L 576.1332 686.17019 
L 577.2708 691.947478 
L 578.4084 677.655629 
L 579.546 692.475681 
L 580.6836 702.434432 
L 581.8212 684.345731 
L 582.9588 682.735881 
L 584.0964 696.124349 
L 585.234 682.217557 
L 586.3716 684.483869 
L 587.5092 669.547969 
L 588.6468 692.518035 
L 589.7844 694.651024 
L 590.922 693.418271 
L 592.0596 695.82787 
L 593.1972 687.207563 
L 594.3348 687.026124 
L 595.4724 678.585836 
L 596.61 690.292408 
L 597.7476 693.130975 
L 598.8852 669.837186 
L 600.0228 688.082308 
L 601.1604 678.7904 
L 602.298 685.253926 
L 603.4356 647.096868 
L 604.5732 648.22123 
L 605.7108 688.360866 
L 606.8484 683.854956 
L 607.986 690.004499 
L 609.1236 696.909572 
L 610.2612 676.926118 
L 611.3988 679.920411 
L 612.5364 688.029156 
L 613.674 678.263198 
L 614.8116 701.262344 
L 615.9492 687.028962 
L 617.0868 700.208554 
L 618.2244 696.278544 
L 619.362 672.313321 
L 620.4996 687.658738 
L 621.6372 686.425457 
L 622.7748 684.07182 
L 623.9124 652.460798 
L 625.05 690.270841 
L 626.1876 686.588584 
L 627.3252 697.384318 
L 628.4628 649.691244 
L 629.6004 673.669714 
L 630.738 681.037316 
L 631.8756 698.35852 
L 633.0132 665.760606 
L 634.1508 676.598805 
L 635.2884 692.772773 
L 636.426 698.963613 
L 637.5636 695.767984 
L 638.7012 698.668163 
L 639.8388 695.576555 
L 640.9764 678.757368 
L 642.114 652.551601 
L 643.2516 682.14743 
L 644.3892 689.502037 
L 645.5268 685.506298 
L 646.6644 679.943286 
L 647.802 704.81022 
L 648.9396 695.023251 
L 650.0772 657.798654 
L 651.2148 685.646356 
L 652.3524 676.524366 
L 653.49 683.439039 
L 654.6276 688.311722 
L 655.7652 695.080577 
L 656.9028 688.452559 
L 658.0404 677.823098 
L 659.178 687.988361 
L 660.3156 690.406363 
L 661.4532 657.284504 
L 662.5908 669.803597 
L 663.7284 677.034481 
L 664.866 679.617169 
L 666.0036 702.664653 
L 667.1412 692.524325 
L 668.2788 701.837466 
L 669.4164 698.421022 
L 670.554 687.776784 
L 671.6916 695.230208 
L 672.8292 690.946922 
L 673.9668 679.864867 
L 675.1044 689.103401 
L 676.242 680.3085 
L 677.3796 696.268693 
L 678.5172 688.935097 
L 679.6548 699.430817 
L 680.7924 703.908899 
L 681.93 675.039046 
L 683.0676 696.040865 
L 684.2052 704.675532 
L 685.3428 696.963809 
L 686.4804 699.000178 
L 687.618 700.405882 
L 688.7556 697.593139 
L 689.8932 684.804949 
L 691.0308 688.217302 
L 692.1684 684.398966 
L 693.306 695.579978 
L 694.4436 679.424127 
L 695.5812 684.891327 
L 696.7188 704.136392 
L 697.8564 685.530508 
L 698.994 673.983641 
L 700.1316 688.93518 
L 701.2692 686.551323 
L 702.4068 679.093363 
L 703.5444 691.481637 
L 704.682 689.304959 
L 705.8196 691.552348 
L 706.9572 689.025928 
L 708.0948 682.258353 
L 709.2324 684.155026 
L 710.37 671.328516 
L 711.5076 700.684496 
L 712.6452 688.490155 
L 713.7828 691.770965 
L 714.9204 691.496525 
L 716.058 706.733635 
L 717.1956 657.756383 
L 718.3332 682.92116 
L 719.4708 700.468857 
L 720.6084 642.056354 
L 721.746 692.347979 
L 722.8836 698.030345 
L 724.0212 701.528324 
L 725.1588 697.714775 
L 726.2964 696.06861 
L 727.434 700.436966 
L 728.5716 702.282102 
L 729.7092 707.092366 
L 730.8468 694.463185 
L 731.9844 689.231437 
L 733.122 700.301917 
L 734.2596 686.067783 
L 735.3972 680.970278 
L 736.5348 700.298216 
L 737.6724 696.698497 
L 738.81 695.402797 
L 739.9476 701.950475 
L 741.0852 692.007893 
L 742.2228 699.752175 
L 743.3604 698.611867 
L 744.498 688.244406 
L 745.6356 680.403756 
L 746.7732 706.95587 
L 747.9108 698.754791 
L 749.0484 688.379956 
L 750.186 695.922596 
L 751.3236 706.3906 
L 752.4612 707.295789 
L 753.5988 702.52376 
L 754.7364 699.903392 
L 755.874 695.183318 
L 757.0116 695.426562 
L 758.1492 679.217031 
L 759.2868 674.057692 
L 760.4244 702.362079 
L 761.562 690.046436 
L 762.6996 707.975126 
L 763.8372 692.549732 
L 764.9748 704.381724 
L 766.1124 698.935061 
L 767.25 689.073235 
L 768.3876 693.602966 
L 769.5252 690.729836 
L 770.6628 702.980584 
L 771.8004 666.853078 
L 772.938 700.242893 
L 774.0756 698.4213 
L 775.2132 689.177034 
L 776.3508 696.140852 
L 777.4884 695.953736 
L 778.626 696.908403 
L 779.7636 690.450109 
L 780.9012 699.019881 
L 782.0388 692.257037 
L 783.1764 689.500367 
L 784.314 691.800546 
L 785.4516 691.175947 
L 786.5892 689.385744 
L 787.7268 693.066164 
L 788.8644 705.922505 
L 790.002 702.74477 
L 791.1396 701.955456 
L 792.2772 704.869326 
L 793.4148 687.42874 
L 794.5524 696.948142 
L 795.69 690.326219 
L 796.8276 704.02355 
L 797.9652 704.269299 
L 799.1028 702.828977 
L 800.2404 693.724685 
L 801.378 698.38312 
L 802.5156 704.520447 
L 803.6532 691.013181 
L 804.7908 689.723993 
L 805.9284 663.844843 
L 807.066 699.397868 
L 808.2036 706.558569 
L 809.3412 699.019658 
L 810.4788 694.078407 
L 811.6164 667.797087 
L 812.754 697.307874 
L 813.8916 650.904684 
L 815.0292 695.259288 
L 816.1668 709.400365 
L 817.3044 707.707281 
L 818.442 707.141316 
L 819.5796 711.610771 
L 820.7172 702.003237 
L 821.8548 708.668794 
L 822.9924 700.807885 
L 824.13 686.774475 
L 825.2676 694.609727 
L 826.4052 700.677873 
L 827.5428 675.839992 
L 828.6804 691.789888 
L 829.818 700.967201 
L 830.9556 707.276643 
L 832.0932 677.558482 
L 833.2308 709.725451 
L 834.3684 697.246458 
L 835.506 709.297457 
L 836.6436 709.351081 
L 837.7812 707.374653 
L 838.9188 688.75377 
L 840.0564 666.809722 
L 841.194 709.532882 
L 842.3316 703.745687 
L 843.4692 709.096233 
L 844.6068 691.647687 
L 845.7444 700.844591 
L 846.882 707.306113 
L 848.0196 702.339956 
L 849.1572 682.224291 
L 850.2948 712.437012 
L 851.4324 714.383664 
L 852.57 714.074077 
L 853.7076 711.650954 
L 854.8452 707.808492 
L 855.9828 711.570949 
L 857.1204 694.692599 
L 858.258 708.850205 
L 859.3956 711.714263 
L 860.5332 694.1669 
L 861.6708 653.882614 
L 862.8084 665.844313 
L 863.946 697.910879 
L 865.0836 706.232564 
L 866.2212 710.564883 
L 867.3588 707.596916 
L 868.4964 718.500844 
L 869.634 719.526687 
L 870.7716 675.480398 
L 871.9092 696.459927 
L 873.0468 707.386786 
L 874.1844 712.651872 
L 875.322 705.489223 
L 876.4596 712.437568 
L 877.5972 699.294098 
L 878.7348 702.111878 
L 879.8724 677.404203 
L 881.01 712.750772 
L 882.1476 707.128181 
L 883.2852 703.741819 
L 884.4228 708.730517 
L 886.698 686.012879 
L 887.8356 706.667182 
L 888.9732 688.228015 
L 890.1108 709.987035 
L 891.2484 698.638248 
L 892.386 705.149026 
L 893.5236 710.065064 
L 894.6612 710.031309 
L 895.7988 666.332528 
L 896.9364 694.195034 
L 898.074 680.932599 
L 899.2116 700.504365 
L 900.3492 702.674476 
L 901.4868 696.706122 
L 902.6244 660.254614 
L 903.762 686.561786 
L 904.8996 704.839578 
L 906.0372 699.693736 
L 907.1748 699.561386 
L 908.3124 710.666288 
L 909.45 697.542353 
L 910.5876 701.330801 
L 911.7252 679.742284 
L 912.8628 700.562999 
L 914.0004 698.035771 
L 915.138 711.728038 
L 916.2756 710.110285 
L 917.4132 700.849572 
L 918.5508 703.109484 
L 919.6884 706.590349 
L 920.826 713.835536 
L 921.9636 637.309426 
L 923.1012 692.737292 
L 924.2388 706.036683 
L 925.3764 701.871527 
L 926.514 706.711262 
L 927.6516 692.129668 
L 928.7892 710.981079 
L 929.9268 716.114983 
L 931.0644 709.719441 
L 932.202 698.557185 
L 933.3396 704.552978 
L 934.4772 662.939905 
L 935.6148 701.733667 
L 936.7524 708.985115 
L 937.89 702.755623 
L 939.0276 711.245389 
L 940.1652 715.980852 
L 941.3028 696.947975 
L 942.4404 699.358019 
L 943.578 702.308705 
L 944.7156 706.151613 
L 945.8532 709.113319 
L 946.9908 700.076593 
L 948.1284 708.468071 
L 949.266 713.305357 
L 950.4036 707.955535 
L 951.5412 691.402467 
L 952.6788 710.563547 
L 953.8164 702.093038 
L 954.954 705.709955 
L 956.0916 672.067684 
L 957.2292 705.366223 
L 958.3668 698.178084 
L 959.5044 696.60519 
L 960.642 705.937393 
L 961.7796 709.975263 
L 962.9172 715.381854 
L 964.0548 709.259722 
L 965.1924 706.066598 
L 966.33 711.972451 
L 967.4676 707.757789 
L 968.6052 691.780705 
L 969.7428 705.661116 
L 970.8804 715.996575 
L 972.018 697.521204 
L 973.1556 694.342189 
L 974.2932 715.247389 
L 975.4308 701.70609 
L 976.5684 713.487658 
L 977.706 694.512635 
L 978.8436 716.424402 
L 979.9812 705.080485 
L 981.1188 702.320922 
L 982.2564 716.988866 
L 983.394 716.456794 
L 984.5316 709.244695 
L 985.6692 720.019304 
L 986.8068 711.910979 
L 987.9444 717.170638 
L 989.082 706.352893 
L 991.3572 714.223235 
L 992.4948 716.600832 
L 993.6324 713.168332 
L 994.77 710.521026 
L 995.9076 709.922001 
L 997.0452 708.899934 
L 998.1828 708.215588 
L 999.3204 706.928014 
L 1000.458 709.682012 
L 1001.5956 668.302305 
L 1002.7332 713.107027 
L 1003.8708 717.751937 
L 1005.0084 709.462477 
L 1006.146 709.510564 
L 1007.2836 697.798454 
L 1008.4212 700.507426 
L 1009.5588 691.362339 
L 1010.6964 701.892231 
L 1011.834 700.050101 
L 1012.9716 699.879849 
L 1014.1092 665.847541 
L 1015.2468 708.469963 
L 1016.3844 704.775129 
L 1017.522 706.956092 
L 1018.6596 694.782066 
L 1019.7972 697.683163 
L 1020.9348 717.310056 
L 1022.0724 706.018066 
L 1023.21 716.210767 
L 1024.3476 709.823406 
L 1025.4852 708.858971 
L 1026.6228 708.84951 
L 1027.7604 712.971588 
L 1028.898 705.99124 
L 1030.0356 708.689387 
L 1031.1732 688.285007 
L 1032.3108 695.846097 
L 1033.4484 694.951761 
L 1034.586 703.940233 
L 1035.7236 675.618815 
L 1036.8612 710.308615 
L 1037.9988 692.759082 
L 1039.1364 716.622176 
L 1040.274 711.712593 
L 1042.5492 704.931271 
L 1043.6868 694.960833 
L 1044.8244 710.641716 
L 1045.962 715.355195 
L 1047.0996 683.979849 
L 1049.3748 717.357308 
L 1050.5124 689.88534 
L 1051.65 698.216208 
L 1052.7876 711.009435 
L 1053.9252 703.631398 
L 1055.0628 710.280342 
L 1056.2004 705.975879 
L 1057.338 710.224352 
L 1058.4756 701.206271 
L 1059.6132 712.462113 
L 1060.7508 712.351858 
L 1061.8884 701.65714 
L 1063.026 694.021137 
L 1064.1636 712.897343 
L 1065.3012 714.010407 
L 1066.4388 695.693906 
L 1067.5764 707.708033 
L 1068.714 690.180066 
L 1069.8516 697.16584 
L 1070.9892 710.994547 
L 1072.1268 711.416253 
L 1073.2644 692.573218 
L 1074.402 700.583035 
L 1075.5396 698.866966 
L 1076.6772 690.563731 
L 1077.8148 717.057016 
L 1078.9524 714.96321 
L 1080.09 719.214226 
L 1081.2276 683.632639 
L 1082.3652 705.699992 
L 1083.5028 711.668569 
L 1084.6404 687.547704 
L 1085.778 709.727232 
L 1086.9156 713.686378 
L 1088.0532 712.687492 
L 1089.1908 697.903421 
L 1090.3284 709.060251 
L 1091.466 708.429112 
L 1092.6036 697.123848 
L 1093.7412 716.543395 
L 1094.8788 716.123415 
L 1096.0164 719.211947 
L 1097.154 718.620978 
L 1098.2916 718.519155 
L 1099.4292 712.985446 
L 1100.5668 709.785755 
L 1101.7044 707.058444 
L 1102.842 682.632556 
L 1103.9796 683.940695 
L 1105.1172 699.457448 
L 1106.2548 696.205218 
L 1107.3924 710.175152 
L 1108.53 709.825298 
L 1109.6676 714.414748 
L 1110.8052 714.59883 
L 1111.9428 709.202174 
L 1113.0804 712.948657 
L 1114.218 692.178339 
L 1115.3556 701.578443 
L 1116.4932 706.012361 
L 1117.6308 716.096477 
L 1118.7684 697.55123 
L 1119.906 709.694089 
L 1121.0436 684.338496 
L 1122.1812 704.526819 
L 1123.3188 702.166671 
L 1124.4564 703.306478 
L 1125.594 696.093822 
L 1126.7316 706.853936 
L 1127.8692 678.236122 
L 1129.0068 706.940898 
L 1130.1444 714.723555 
L 1131.282 715.096228 
L 1132.4196 685.034418 
L 1133.5572 708.061671 
L 1134.6948 709.099989 
L 1135.8324 716.391454 
L 1136.97 720.477901 
L 1138.1076 712.252234 
L 1139.2452 716.466812 
L 1140.3828 706.871801 
L 1141.5204 716.347764 
L 1142.658 711.924225 
L 1143.7956 713.704772 
L 1144.9332 703.340873 
L 1146.0708 707.797834 
L 1147.2084 706.821655 
L 1148.346 709.681622 
L 1149.4836 710.630084 
L 1150.6212 707.165359 
L 1151.7588 721.515243 
L 1152.8964 690.08264 
L 1154.034 714.983385 
L 1155.1716 703.84726 
L 1156.3092 710.693059 
L 1157.4468 719.177566 
L 1158.5844 715.088436 
L 1159.722 713.893529 
L 1160.8596 709.193269 
L 1161.9972 718.202918 
L 1163.1348 702.837521 
L 1164.2724 717.224541 
L 1166.5476 705.412501 
L 1167.6852 704.024524 
L 1168.8228 708.200644 
L 1169.9604 702.304197 
L 1171.098 712.947934 
L 1172.2356 712.013525 
L 1173.3732 713.650424 
L 1174.5108 712.820871 
L 1175.6484 707.751027 
L 1176.786 714.319159 
L 1177.9236 711.903382 
L 1179.0612 719.990536 
L 1180.1988 700.425835 
L 1181.3364 712.721442 
L 1182.474 696.32805 
L 1183.6116 712.640156 
L 1184.7492 716.737022 
L 1185.8868 704.856999 
L 1187.0244 716.087934 
L 1188.162 702.87648 
L 1189.2996 712.285182 
L 1190.4372 677.802283 
L 1191.5748 720.973899 
L 1192.7124 715.32041 
L 1193.85 710.989956 
L 1194.9876 713.554389 
L 1196.1252 717.347235 
L 1197.2628 713.13761 
L 1198.4004 722.001356 
L 1199.538 688.721962 
L 1200.6756 713.480924 
L 1201.8132 716.2443 
L 1202.9508 667.919475 
L 1204.0884 713.877083 
L 1205.226 706.126373 
L 1206.3636 706.293647 
L 1207.5012 723.353196 
L 1208.6388 694.023697 
L 1209.7764 709.153809 
L 1210.914 715.330957 
L 1212.0516 716.942699 
L 1213.1892 708.290278 
L 1214.3268 722.034257 
L 1215.4644 706.710482 
L 1216.602 723.187466 
L 1217.7396 714.230554 
L 1218.8772 715.553442 
L 1220.0148 720.358625 
L 1221.1524 720.477194 
L 1222.29 717.263834 
L 1223.4276 723.005883 
L 1224.5652 705.639021 
L 1225.7028 719.438228 
L 1226.8404 719.582132 
L 1227.978 712.252846 
L 1229.1156 721.925041 
L 1230.2532 721.275775 
L 1231.3908 717.945481 
L 1232.5284 700.460481 
L 1233.666 714.264087 
L 1234.8036 713.575678 
L 1235.9412 702.079625 
L 1237.0788 699.092094 
L 1238.2164 706.33884 
L 1239.354 718.957363 
L 1240.4916 720.972277 
L 1241.6292 721.219949 
L 1242.7668 698.978334 
L 1243.9044 717.893136 
L 1245.042 701.563137 
L 1246.1796 715.136439 
L 1247.3172 703.156374 
L 1248.4548 700.383926 
L 1249.5924 707.095232 
L 1250.73 711.833534 
L 1253.0052 716.997381 
L 1254.1428 701.940457 
L 1255.2804 713.206261 
L 1256.418 704.759267 
L 1257.5556 714.257492 
L 1258.6932 701.398396 
L 1259.8308 717.807621 
L 1260.9684 723.065132 
L 1262.106 707.389319 
L 1263.2436 721.090668 
L 1264.3812 721.993478 
L 1265.5188 715.019645 
L 1266.6564 711.481537 
L 1267.794 715.390759 
L 1268.9316 720.629775 
L 1270.0692 720.669105 
L 1271.2068 720.905214 
L 1272.3444 719.980145 
L 1273.482 715.121635 
L 1274.6196 721.948219 
L 1275.7572 721.770292 
L 1278.0324 715.925669 
L 1279.17 723.491935 
L 1280.3076 722.923078 
L 1281.4452 715.547069 
L 1282.5828 710.818841 
L 1283.7204 715.211603 
L 1284.858 723.357788 
L 1285.9956 707.190738 
L 1287.1332 721.706135 
L 1288.2708 724.304705 
L 1289.4084 709.03284 
L 1290.546 720.670657 
L 1291.6836 719.661603 
L 1292.8212 708.773762 
L 1293.9588 721.701899 
L 1295.0964 722.905226 
L 1296.234 715.256823 
L 1297.3716 702.400983 
L 1298.5092 720.190583 
L 1299.6468 715.101571 
L 1301.922 692.328221 
L 1303.0596 709.29267 
L 1304.1972 719.671521 
L 1305.3348 717.070624 
L 1306.4724 722.909512 
L 1307.61 700.032124 
L 1308.7476 722.320073 
L 1309.8852 704.611249 
L 1311.0228 707.740731 
L 1312.1604 720.862891 
L 1313.298 703.837353 
L 1314.4356 679.496146 
L 1315.5732 703.92028 
L 1316.7108 720.373613 
L 1317.8484 706.193466 
L 1318.986 721.46845 
L 1320.1236 700.637689 
L 1321.2612 716.591343 
L 1322.3988 707.448453 
L 1323.5364 709.264648 
L 1324.674 715.880031 
L 1325.8116 718.188141 
L 1326.9492 721.814438 
L 1328.0868 712.896536 
L 1329.2244 721.166934 
L 1330.362 679.88276 
L 1331.4996 723.93683 
L 1332.6372 725.128881 
L 1333.7748 719.877356 
L 1334.9124 717.068231 
L 1336.05 703.597754 
L 1336.05 703.597754 
" style="fill:none;stroke:#0000ff;stroke-linecap:square;stroke-width:2.0;"/>
   </g>
   <g id="line2d_2">
    <path clip-path="url(#pad31242b8f)" d="M 199.5876 484.20759 
L 200.7252 479.67964 
L 201.8628 551.112808 
L 203.0004 463.154122 
L 204.138 582.820366 
L 205.2756 494.955793 
L 206.4132 497.563666 
L 207.5508 588.289542 
L 208.6884 565.920393 
L 209.826 619.436476 
L 210.9636 545.012271 
L 212.1012 528.142186 
L 213.2388 602.302637 
L 214.3764 575.800224 
L 215.514 607.643526 
L 216.6516 615.175452 
L 217.7892 592.04596 
L 218.9268 625.392252 
L 221.202 482.540554 
L 222.3396 627.986044 
L 223.4772 620.837087 
L 224.6148 622.714809 
L 225.7524 591.327302 
L 226.89 628.125101 
L 228.0276 564.799704 
L 229.1652 622.933175 
L 230.3028 596.410976 
L 231.4404 618.151768 
L 232.578 588.507602 
L 233.7156 600.127239 
L 234.8532 586.13802 
L 235.9908 575.056075 
L 237.1284 604.065235 
L 238.266 588.34709 
L 239.4036 620.13404 
L 240.5412 598.953593 
L 241.6788 625.858705 
L 242.8164 631.974882 
L 243.954 631.547166 
L 245.0916 610.015056 
L 246.2292 610.945624 
L 247.3668 640.697263 
L 248.5044 631.53865 
L 249.642 603.140566 
L 250.7796 631.212618 
L 251.9172 642.679868 
L 253.0548 647.685931 
L 254.1924 638.882794 
L 255.33 634.339177 
L 256.4676 548.496448 
L 257.6052 543.506498 
L 258.7428 623.696609 
L 259.8804 616.681253 
L 261.018 618.130842 
L 262.1556 637.089168 
L 263.2932 609.591124 
L 264.4308 610.059136 
L 265.5684 657.232799 
L 266.706 610.49815 
L 267.8436 649.931706 
L 268.9812 633.925903 
L 270.1188 638.858194 
L 271.2564 649.043047 
L 272.394 601.139399 
L 273.5316 635.303389 
L 274.6692 643.930264 
L 275.8068 614.549378 
L 276.9444 602.927125 
L 278.082 660.919842 
L 279.2196 638.212807 
L 280.3572 601.558015 
L 281.4948 647.438568 
L 282.6324 611.645081 
L 283.77 650.692134 
L 284.9076 617.748568 
L 286.0452 655.372859 
L 287.1828 651.134571 
L 288.3204 612.932655 
L 289.458 641.280732 
L 290.5956 657.564147 
L 291.7332 652.354078 
L 292.8708 658.599293 
L 294.0084 607.49434 
L 295.146 624.778394 
L 296.2836 600.084968 
L 297.4212 638.651626 
L 298.5588 645.746319 
L 299.6964 524.947392 
L 300.834 664.564587 
L 301.9716 639.321085 
L 303.1092 648.135186 
L 304.2468 655.456983 
L 305.3844 650.880975 
L 306.522 641.92086 
L 307.6596 635.836546 
L 308.7972 588.870896 
L 309.9348 650.580794 
L 311.0724 642.428582 
L 312.21 625.870087 
L 313.3476 643.823488 
L 314.4852 638.703247 
L 315.6228 645.705997 
L 316.7604 634.592523 
L 317.898 626.125409 
L 319.0356 651.56905 
L 320.1732 640.664954 
L 321.3108 651.051282 
L 322.4484 645.407819 
L 323.586 613.81419 
L 324.7236 658.610703 
L 325.8612 661.320148 
L 326.9988 637.296681 
L 328.1364 628.263545 
L 329.274 624.596427 
L 330.4116 644.426048 
L 331.5492 654.196959 
L 332.6868 651.068563 
L 333.8244 647.110837 
L 334.962 664.99183 
L 336.0996 596.478376 
L 337.2372 630.131945 
L 338.3748 647.823234 
L 339.5124 652.593148 
L 340.65 648.550769 
L 341.7876 658.275264 
L 342.9252 643.185531 
L 344.0628 645.33388 
L 345.2004 643.641521 
L 346.338 651.694026 
L 347.4756 611.466091 
L 348.6132 651.260465 
L 349.7508 621.609982 
L 350.8884 652.042627 
L 352.026 650.823983 
L 353.1636 618.304962 
L 354.3012 643.274775 
L 355.4388 647.580379 
L 356.5764 639.991294 
L 357.714 652.753799 
L 358.8516 601.994999 
L 359.9892 671.881375 
L 361.1268 674.540953 
L 362.2644 648.453205 
L 363.402 653.80734 
L 364.5396 658.018523 
L 365.6772 670.962272 
L 366.8148 616.548041 
L 367.9524 646.576651 
L 369.09 633.312407 
L 370.2276 665.544633 
L 371.3652 639.667432 
L 372.5028 660.073259 
L 373.6404 673.041135 
L 374.778 645.152358 
L 375.9156 658.917061 
L 377.0532 677.481343 
L 378.1908 650.577538 
L 379.3284 660.642703 
L 380.466 661.214847 
L 381.6036 646.728286 
L 382.7412 664.62873 
L 383.8788 650.714842 
L 385.0164 665.651827 
L 386.154 671.12796 
L 387.2916 652.962287 
L 388.4292 663.756323 
L 389.5668 667.176078 
L 390.7044 664.331277 
L 391.842 606.007574 
L 392.9796 642.07934 
L 394.1172 628.607249 
L 395.2548 652.010653 
L 396.3924 663.3096 
L 397.53 631.631206 
L 398.6676 672.339034 
L 400.9428 639.416702 
L 402.0804 674.556063 
L 403.218 647.10939 
L 404.3556 637.028252 
L 405.4932 665.687057 
L 406.6308 618.991311 
L 407.7684 653.552212 
L 408.906 637.05057 
L 410.0436 664.463376 
L 411.1812 675.547269 
L 412.3188 668.376578 
L 413.4564 634.956263 
L 414.594 641.526175 
L 415.7316 665.084108 
L 416.8692 670.972095 
L 418.0068 665.751479 
L 419.1444 616.841877 
L 420.282 658.780092 
L 421.4196 659.474985 
L 422.5572 671.30066 
L 423.6948 672.315158 
L 424.8324 661.191666 
L 425.97 662.813454 
L 427.1076 662.453555 
L 428.2452 594.455252 
L 429.3828 595.373215 
L 430.5204 656.616103 
L 431.658 620.139216 
L 432.7956 651.572946 
L 433.9332 660.328943 
L 435.0708 673.677617 
L 436.2084 662.97263 
L 437.346 618.517011 
L 438.4836 682.221954 
L 440.7588 657.23522 
L 441.8964 659.316504 
L 443.034 664.922538 
L 444.1716 672.522977 
L 445.3092 684.54459 
L 446.4468 663.520508 
L 447.5844 664.494015 
L 448.722 642.037487 
L 449.8596 673.929321 
L 450.9972 669.728156 
L 452.1348 649.854233 
L 453.2724 669.432149 
L 454.41 666.134977 
L 455.5476 664.614705 
L 456.6852 668.095125 
L 457.8228 678.741255 
L 458.9604 668.69173 
L 460.098 679.511729 
L 461.2356 646.653763 
L 462.3732 677.154197 
L 463.5108 674.635011 
L 464.6484 678.772506 
L 465.786 665.88266 
L 466.9236 659.297526 
L 468.0612 654.649164 
L 469.1988 678.184389 
L 470.3364 662.888061 
L 471.474 667.08995 
L 472.6116 660.742077 
L 473.7492 687.607312 
L 474.8868 655.329531 
L 476.0244 681.61906 
L 477.162 668.150392 
L 478.2996 668.66393 
L 479.4372 673.901048 
L 480.5748 653.649583 
L 481.7124 671.122339 
L 482.85 620.889237 
L 483.9876 681.175649 
L 485.1252 669.325345 
L 486.2628 685.357724 
L 487.4004 683.788921 
L 488.538 666.352981 
L 489.6756 672.43966 
L 490.8132 667.866156 
L 491.9508 656.735096 
L 493.0884 662.686141 
L 494.226 671.998197 
L 495.3636 673.829697 
L 496.5012 643.563658 
L 497.6388 630.516444 
L 498.7764 685.305185 
L 499.914 668.256249 
L 501.0516 685.228073 
L 502.1892 679.676054 
L 503.3268 669.539649 
L 504.4644 646.202698 
L 505.602 667.886554 
L 506.7396 539.600087 
L 507.8772 652.12522 
L 509.0148 674.468628 
L 510.1524 650.992899 
L 511.29 683.949683 
L 512.4276 664.509599 
L 513.5652 677.165884 
L 514.7028 672.989625 
L 515.8404 646.830999 
L 516.978 681.49606 
L 518.1156 682.490188 
L 519.2532 660.839781 
L 520.3908 662.560164 
L 521.5284 639.541037 
L 522.666 660.883805 
L 523.8036 661.48258 
L 524.9412 647.536383 
L 526.0788 672.94677 
L 527.2164 660.52961 
L 528.354 652.164458 
L 529.4916 679.88109 
L 530.6292 667.535949 
L 531.7668 648.886793 
L 532.9044 674.247312 
L 534.042 678.336052 
L 535.1796 667.163054 
L 536.3172 660.579422 
L 537.4548 674.04336 
L 538.5924 676.260834 
L 539.73 682.712144 
L 540.8676 694.288898 
L 542.0052 681.103853 
L 543.1428 695.092654 
L 544.2804 680.900959 
L 545.418 688.553019 
L 546.5556 662.069723 
L 547.6932 683.16229 
L 548.8308 681.421843 
L 549.9684 688.542583 
L 551.106 655.588304 
L 552.2436 678.588841 
L 553.3812 649.547541 
L 554.5188 681.493055 
L 555.6564 680.83381 
L 556.794 678.785613 
L 557.9316 664.084916 
L 559.0692 677.336498 
L 560.2068 671.753199 
L 561.3444 679.636009 
L 562.482 686.139134 
L 563.6196 680.078029 
L 564.7572 686.160256 
L 565.8948 679.850062 
L 567.0324 679.278892 
L 568.17 685.341083 
L 569.3076 673.031785 
L 570.4452 679.904466 
L 571.5828 648.228076 
L 572.7204 676.902548 
L 573.858 665.478208 
L 574.9956 687.37762 
L 576.1332 689.027236 
L 577.2708 657.036779 
L 578.4084 690.293855 
L 579.546 679.368443 
L 580.6836 688.131424 
L 581.8212 652.029047 
L 582.9588 674.164245 
L 584.0964 643.530988 
L 585.234 684.780265 
L 586.3716 686.247079 
L 587.5092 695.213094 
L 588.6468 673.684991 
L 589.7844 657.788719 
L 590.922 683.828464 
L 592.0596 666.423692 
L 593.1972 687.064443 
L 594.3348 685.460215 
L 595.4724 682.484483 
L 596.61 688.806587 
L 597.7476 661.681133 
L 598.8852 679.535105 
L 600.0228 681.915401 
L 601.1604 684.94779 
L 602.298 691.441899 
L 603.4356 652.560061 
L 604.5732 656.80614 
L 605.7108 680.793459 
L 606.8484 571.440745 
L 607.986 673.689472 
L 609.1236 679.212662 
L 610.2612 667.272585 
L 611.3988 674.038824 
L 612.5364 663.862319 
L 613.674 688.56632 
L 614.8116 692.093909 
L 615.9492 642.01912 
L 617.0868 685.166462 
L 618.2244 683.945731 
L 619.362 662.763141 
L 620.4996 663.673868 
L 621.6372 691.711997 
L 622.7748 675.892642 
L 623.9124 693.808893 
L 625.05 698.55045 
L 626.1876 687.454286 
L 627.3252 695.998706 
L 628.4628 693.377587 
L 630.738 672.170285 
L 631.8756 686.111279 
L 633.0132 678.91813 
L 634.1508 683.790089 
L 635.2884 666.520951 
L 636.426 684.935406 
L 637.5636 687.072458 
L 638.7012 672.050152 
L 639.8388 683.182604 
L 640.9764 690.193006 
L 642.114 652.101038 
L 643.2516 692.394535 
L 644.3892 679.618533 
L 645.5268 683.743283 
L 646.6644 687.367908 
L 647.802 685.134571 
L 648.9396 664.195226 
L 650.0772 675.11574 
L 651.2148 675.39402 
L 652.3524 695.49399 
L 653.49 702.915495 
L 654.6276 701.469496 
L 658.0404 665.719087 
L 659.178 688.817691 
L 660.3156 685.145285 
L 661.4532 691.729167 
L 662.5908 694.66196 
L 663.7284 693.337681 
L 664.866 666.134782 
L 666.0036 689.465443 
L 667.1412 677.687632 
L 668.2788 676.153557 
L 669.4164 688.004167 
L 670.554 692.413625 
L 671.6916 678.798108 
L 672.8292 683.875521 
L 675.1044 698.002266 
L 676.242 695.116002 
L 677.3796 659.513694 
L 678.5172 688.609482 
L 679.6548 692.673677 
L 680.7924 688.234277 
L 681.93 686.932288 
L 683.0676 686.073794 
L 684.2052 690.347062 
L 685.3428 696.262822 
L 686.4804 686.666948 
L 687.618 672.329684 
L 688.7556 670.451127 
L 689.8932 654.110804 
L 691.0308 667.325876 
L 692.1684 671.863482 
L 693.306 689.943194 
L 694.4436 684.539804 
L 695.5812 667.371514 
L 696.7188 680.824793 
L 697.8564 687.465473 
L 698.994 677.474052 
L 700.1316 695.956129 
L 701.2692 626.237472 
L 702.4068 694.306569 
L 703.5444 701.206911 
L 704.682 688.743696 
L 705.8196 692.732756 
L 706.9572 689.476741 
L 708.0948 694.157661 
L 709.2324 669.650293 
L 710.37 674.093256 
L 711.5076 692.091599 
L 712.6452 699.319338 
L 713.7828 696.293238 
L 714.9204 676.081789 
L 716.058 698.627562 
L 717.1956 693.853696 
L 718.3332 686.049166 
L 719.4708 681.429718 
L 720.6084 691.759194 
L 721.746 700.249099 
L 722.8836 681.264142 
L 725.1588 705.268742 
L 726.2964 697.047683 
L 727.434 685.073155 
L 728.5716 689.468588 
L 729.7092 665.347333 
L 730.8468 693.572438 
L 733.122 697.674174 
L 734.2596 665.397034 
L 735.3972 664.844676 
L 736.5348 686.522827 
L 737.6724 698.758798 
L 738.81 681.575064 
L 739.9476 659.759999 
L 741.0852 683.728116 
L 742.2228 703.151309 
L 743.3604 701.239386 
L 744.498 684.835281 
L 745.6356 697.447571 
L 746.7732 689.842123 
L 747.9108 660.754906 
L 749.0484 653.56095 
L 750.186 683.768133 
L 751.3236 668.459728 
L 752.4612 698.161331 
L 753.5988 702.834209 
L 754.7364 698.735451 
L 755.874 669.710791 
L 757.0116 686.631551 
L 758.1492 693.961557 
L 759.2868 692.853307 
L 760.4244 636.324259 
L 761.562 684.208177 
L 762.6996 698.948641 
L 763.8372 695.212009 
L 764.9748 689.09149 
L 766.1124 694.594366 
L 767.25 685.549932 
L 768.3876 700.148724 
L 769.5252 699.011365 
L 770.6628 688.641011 
L 771.8004 696.433825 
L 772.938 680.312035 
L 774.0756 657.110718 
L 775.2132 656.214601 
L 776.3508 677.779854 
L 777.4884 681.606899 
L 779.7636 674.497875 
L 780.9012 634.20218 
L 782.0388 684.89333 
L 783.1764 694.73743 
L 784.314 685.449529 
L 785.4516 671.271831 
L 786.5892 668.434849 
L 787.7268 640.746073 
L 788.8644 694.009533 
L 790.002 699.647987 
L 791.1396 695.046877 
L 792.2772 692.384934 
L 793.4148 673.986007 
L 794.5524 704.638298 
L 795.69 678.995019 
L 796.8276 700.778972 
L 797.9652 695.490066 
L 799.1028 694.622556 
L 800.2404 708.857886 
L 801.378 696.854974 
L 802.5156 695.76484 
L 803.6532 703.913685 
L 804.7908 702.011836 
L 805.9284 703.650989 
L 807.066 680.582745 
L 808.2036 693.828373 
L 809.3412 699.64089 
L 810.4788 687.733289 
L 811.6164 708.59057 
L 812.754 708.184281 
L 813.8916 694.035747 
L 815.0292 694.305317 
L 816.1668 700.200929 
L 817.3044 694.604468 
L 818.442 701.756458 
L 819.5796 702.553898 
L 820.7172 703.631899 
L 821.8548 704.154397 
L 822.9924 669.831314 
L 824.13 712.302324 
L 825.2676 698.662235 
L 826.4052 707.07809 
L 827.5428 712.686323 
L 828.6804 686.831105 
L 829.818 688.202553 
L 830.9556 693.967262 
L 832.0932 631.620604 
L 833.2308 684.245884 
L 834.3684 696.406136 
L 835.506 680.725976 
L 836.6436 661.285224 
L 837.7812 678.773397 
L 838.9188 699.62244 
L 840.0564 697.929162 
L 841.194 700.14441 
L 842.3316 698.800874 
L 843.4692 689.609843 
L 844.6068 697.89485 
L 845.7444 694.203522 
L 846.882 705.534582 
L 849.1572 669.279986 
L 850.2948 685.689072 
L 851.4324 682.783885 
L 852.57 699.384901 
L 853.7076 698.8641 
L 854.8452 683.386027 
L 855.9828 663.500277 
L 857.1204 689.714671 
L 858.258 691.303009 
L 859.3956 692.629681 
L 860.5332 661.679742 
L 861.6708 656.037253 
L 862.8084 690.819581 
L 863.946 705.68708 
L 865.0836 703.137813 
L 866.2212 682.692748 
L 867.3588 706.126929 
L 868.4964 707.725676 
L 869.634 707.138895 
L 870.7716 707.202982 
L 871.9092 705.047286 
L 873.0468 704.590267 
L 874.1844 690.062437 
L 875.322 708.507392 
L 876.4596 707.037684 
L 878.7348 695.001879 
L 879.8724 702.868131 
L 881.01 703.973849 
L 882.1476 698.948752 
L 883.2852 657.923824 
L 884.4228 711.782664 
L 885.5604 707.338755 
L 886.698 708.636013 
L 887.8356 710.705498 
L 888.9732 696.82453 
L 890.1108 700.788294 
L 891.2484 702.672473 
L 892.386 712.63217 
L 893.5236 710.046865 
L 894.6612 694.600572 
L 895.7988 706.659919 
L 898.074 705.647314 
L 899.2116 675.254296 
L 900.3492 706.281124 
L 901.4868 701.385845 
L 902.6244 693.500113 
L 903.762 690.280803 
L 904.8996 704.94026 
L 906.0372 712.106304 
L 907.1748 692.574665 
L 908.3124 694.349034 
L 909.45 713.478558 
L 910.5876 703.594442 
L 911.7252 702.690394 
L 912.8628 706.887886 
L 914.0004 701.602848 
L 915.138 690.379982 
L 916.2756 689.322852 
L 917.4132 685.299647 
L 918.5508 708.991488 
L 919.6884 699.274618 
L 920.826 702.467547 
L 921.9636 703.463623 
L 923.1012 700.434684 
L 924.2388 684.851088 
L 925.3764 703.337701 
L 926.514 694.602909 
L 927.6516 705.191936 
L 928.7892 698.104701 
L 929.9268 692.2092 
L 931.0644 710.129876 
L 932.202 711.406791 
L 933.3396 704.566112 
L 934.4772 708.926426 
L 935.6148 702.565836 
L 936.7524 679.266119 
L 937.89 668.62216 
L 939.0276 703.579081 
L 940.1652 697.697105 
L 941.3028 688.552796 
L 942.4404 704.241081 
L 943.578 697.822303 
L 944.7156 689.094134 
L 945.8532 688.746674 
L 946.9908 682.473853 
L 948.1284 696.724711 
L 949.266 705.284214 
L 950.4036 708.322892 
L 951.5412 709.254156 
L 952.6788 701.956291 
L 953.8164 650.671124 
L 954.954 703.22984 
L 956.0916 708.648564 
L 957.2292 703.996612 
L 958.3668 699.961942 
L 959.5044 686.798992 
L 960.642 668.254441 
L 961.7796 709.872467 
L 962.9172 693.740408 
L 964.0548 704.435543 
L 965.1924 699.945134 
L 966.33 683.234921 
L 967.4676 702.494346 
L 968.6052 697.085501 
L 969.7428 708.449287 
L 970.8804 710.60554 
L 972.018 708.425856 
L 973.1556 710.46601 
L 974.2932 708.171731 
L 975.4308 709.037488 
L 976.5684 714.38013 
L 977.706 697.34508 
L 978.8436 707.685214 
L 979.9812 712.638208 
L 981.1188 705.217176 
L 982.2564 701.066519 
L 983.394 701.040611 
L 984.5316 702.38398 
L 985.6692 700.126739 
L 986.8068 703.129882 
L 987.9444 713.34696 
L 990.2196 712.109949 
L 991.3572 718.669371 
L 992.4948 707.582835 
L 993.6324 714.964991 
L 994.77 718.978039 
L 995.9076 716.929453 
L 998.1828 675.660195 
L 999.3204 708.932604 
L 1000.458 717.479946 
L 1001.5956 716.648 
L 1002.7332 710.204232 
L 1003.8708 674.919553 
L 1005.0084 702.137869 
L 1006.146 701.257168 
L 1007.2836 707.297987 
L 1008.4212 708.340368 
L 1009.5588 718.425375 
L 1010.6964 708.531742 
L 1011.834 701.910459 
L 1012.9716 704.81598 
L 1014.1092 710.844193 
L 1015.2468 709.089554 
L 1016.3844 710.901268 
L 1017.522 709.740952 
L 1018.6596 691.586994 
L 1019.7972 711.94262 
L 1020.9348 714.961484 
L 1022.0724 711.999083 
L 1023.21 716.421397 
L 1024.3476 708.673692 
L 1025.4852 713.9358 
L 1026.6228 712.444664 
L 1027.7604 712.815584 
L 1028.898 711.080619 
L 1030.0356 710.655964 
L 1031.1732 688.233136 
L 1032.3108 707.1574 
L 1033.4484 706.784672 
L 1034.586 704.586956 
L 1035.7236 711.384835 
L 1036.8612 714.659523 
L 1037.9988 709.891445 
L 1039.1364 713.466787 
L 1040.274 717.904295 
L 1041.4116 715.035813 
L 1042.5492 712.633505 
L 1043.6868 692.881775 
L 1044.8244 704.686858 
L 1045.962 719.603779 
L 1047.0996 707.054993 
L 1048.2372 698.421801 
L 1049.3748 683.066283 
L 1050.5124 659.20561 
L 1051.65 688.583212 
L 1052.7876 693.819941 
L 1053.9252 717.892218 
L 1055.0628 709.157565 
L 1056.2004 719.669517 
L 1057.338 713.49801 
L 1058.4756 703.473724 
L 1059.6132 711.68471 
L 1060.7508 711.542842 
L 1061.8884 716.758199 
L 1063.026 686.634111 
L 1064.1636 706.876866 
L 1065.3012 707.801424 
L 1066.4388 716.909111 
L 1067.5764 721.561702 
L 1068.714 657.820694 
L 1069.8516 704.999116 
L 1070.9892 720.916546 
L 1072.1268 707.300603 
L 1073.2644 715.375203 
L 1074.402 705.105002 
L 1075.5396 707.239047 
L 1076.6772 720.432597 
L 1077.8148 715.474271 
L 1078.9524 700.232931 
L 1080.09 696.643258 
L 1081.2276 695.188939 
L 1082.3652 712.748212 
L 1083.5028 707.514489 
L 1084.6404 698.815846 
L 1085.778 716.486737 
L 1086.9156 702.63446 
L 1088.0532 702.531051 
L 1089.1908 703.577272 
L 1090.3284 720.894645 
L 1091.466 708.656161 
L 1092.6036 713.472937 
L 1093.7412 705.024106 
L 1094.8788 719.0827 
L 1096.0164 712.314736 
L 1097.154 715.979878 
L 1098.2916 703.810026 
L 1099.4292 704.090393 
L 1100.5668 698.011756 
L 1101.7044 717.682256 
L 1102.842 704.45942 
L 1103.9796 713.396271 
L 1105.1172 712.146766 
L 1106.2548 712.699068 
L 1107.3924 699.605632 
L 1108.53 714.581465 
L 1109.6676 711.916016 
L 1110.8052 711.731962 
L 1111.9428 710.409937 
L 1113.0804 712.319327 
L 1114.218 717.893582 
L 1115.3556 699.646512 
L 1116.4932 706.997946 
L 1117.6308 702.638272 
L 1118.7684 719.583251 
L 1119.906 718.963958 
L 1121.0436 712.241158 
L 1122.1812 718.448361 
L 1123.3188 709.57788 
L 1124.4564 716.480643 
L 1125.594 690.852752 
L 1126.7316 716.747569 
L 1127.8692 713.180325 
L 1129.0068 713.295895 
L 1130.1444 710.964326 
L 1131.282 712.758286 
L 1132.4196 721.768455 
L 1133.5572 712.328427 
L 1134.6948 720.842771 
L 1136.97 718.552994 
L 1138.1076 686.980263 
L 1139.2452 716.585721 
L 1140.3828 687.403527 
L 1141.5204 679.659496 
L 1142.658 698.367537 
L 1143.7956 722.34885 
L 1144.9332 717.640903 
L 1146.0708 721.077074 
L 1147.2084 723.704733 
L 1148.346 716.079975 
L 1149.4836 722.312034 
L 1150.6212 703.37986 
L 1151.7588 718.523246 
L 1152.8964 701.715356 
L 1154.034 696.989105 
L 1155.1716 712.640184 
L 1156.3092 699.530803 
L 1157.4468 714.39243 
L 1158.5844 712.135356 
L 1159.722 713.967357 
L 1160.8596 715.316264 
L 1161.9972 717.491328 
L 1163.1348 716.487127 
L 1164.2724 714.521218 
L 1165.41 712.833923 
L 1166.5476 717.564961 
L 1167.6852 693.793615 
L 1168.8228 717.604059 
L 1169.9604 704.298129 
L 1171.098 716.720938 
L 1172.2356 715.965491 
L 1173.3732 710.388092 
L 1174.5108 706.038186 
L 1175.6484 711.991708 
L 1176.786 710.558538 
L 1177.9236 715.482174 
L 1179.0612 720.945058 
L 1180.1988 702.807021 
L 1181.3364 706.335361 
L 1182.474 713.583525 
L 1183.6116 713.3818 
L 1184.7492 716.698814 
L 1185.8868 709.864285 
L 1187.0244 715.762263 
L 1188.162 713.196494 
L 1189.2996 720.132728 
L 1190.4372 718.03723 
L 1191.5748 701.791466 
L 1192.7124 704.635655 
L 1193.85 705.132579 
L 1194.9876 680.97743 
L 1196.1252 717.019616 
L 1197.2628 699.008388 
L 1198.4004 715.491497 
L 1199.538 716.134323 
L 1200.6756 713.223515 
L 1201.8132 722.355626 
L 1202.9508 724.248943 
L 1204.0884 720.347716 
L 1205.226 704.753979 
L 1206.3636 713.582245 
L 1207.5012 714.144232 
L 1208.6388 715.846359 
L 1209.7764 719.836413 
L 1210.914 722.911969 
L 1212.0516 711.623961 
L 1213.1892 716.728479 
L 1214.3268 707.758068 
L 1215.4644 720.125596 
L 1216.602 707.785784 
L 1217.7396 718.478777 
L 1218.8772 695.988938 
L 1220.0148 696.907791 
L 1221.1524 718.451422 
L 1222.29 695.652025 
L 1223.4276 719.407617 
L 1224.5652 703.15181 
L 1225.7028 712.744344 
L 1226.8404 713.401948 
L 1227.978 716.576956 
L 1229.1156 720.486865 
L 1230.2532 716.436341 
L 1231.3908 723.672725 
L 1232.5284 721.906819 
L 1233.666 722.294037 
L 1234.8036 725.087014 
L 1235.9412 709.211385 
L 1237.0788 697.410114 
L 1238.2164 702.873363 
L 1239.354 725.478212 
L 1240.4916 724.359273 
L 1241.6292 725.000956 
L 1242.7668 723.886684 
L 1243.9044 720.810229 
L 1245.042 716.212798 
L 1246.1796 718.037981 
L 1247.3172 716.069484 
L 1248.4548 724.403881 
L 1249.5924 703.688751 
L 1250.73 711.952165 
L 1251.8676 709.108922 
L 1253.0052 707.26913 
L 1254.1428 722.481275 
L 1255.2804 724.439501 
L 1256.418 720.400943 
L 1257.5556 723.36969 
L 1258.6932 692.671006 
L 1259.8308 703.478761 
L 1260.9684 725.492857 
L 1262.106 714.949685 
L 1263.2436 723.752174 
L 1264.3812 697.936064 
L 1265.5188 685.292356 
L 1266.6564 704.202957 
L 1267.794 712.787116 
L 1268.9316 719.612926 
L 1270.0692 719.772072 
L 1271.2068 719.153995 
L 1272.3444 720.02308 
L 1273.482 723.951197 
L 1274.6196 725.713745 
L 1275.7572 718.990645 
L 1276.8948 714.383135 
L 1278.0324 702.367144 
L 1279.17 702.760632 
L 1280.3076 719.946114 
L 1281.4452 695.48745 
L 1282.5828 710.274943 
L 1283.7204 716.391927 
L 1284.858 705.505947 
L 1285.9956 721.073248 
L 1287.1332 723.595083 
L 1288.2708 721.731258 
L 1289.4084 715.576678 
L 1290.546 723.992361 
L 1291.6836 721.735888 
L 1292.8212 714.557116 
L 1293.9588 705.804987 
L 1295.0964 722.842844 
L 1296.234 691.383571 
L 1297.3716 704.475699 
L 1298.5092 720.148128 
L 1299.6468 712.883067 
L 1300.7844 723.714902 
L 1301.922 712.258634 
L 1303.0596 715.857741 
L 1304.1972 724.196053 
L 1305.3348 717.631498 
L 1306.4724 707.924062 
L 1307.61 682.190202 
L 1308.7476 720.043331 
L 1309.8852 709.553196 
L 1311.0228 712.175345 
L 1312.1604 716.008791 
L 1313.298 722.240875 
L 1314.4356 723.743934 
L 1315.5732 720.570685 
L 1316.7108 721.400822 
L 1317.8484 712.500905 
L 1318.986 719.642591 
L 1320.1236 709.862198 
L 1321.2612 718.88885 
L 1322.3988 724.529118 
L 1323.5364 711.531461 
L 1324.674 708.73458 
L 1325.8116 724.429522 
L 1326.9492 717.16741 
L 1328.0868 721.209959 
L 1329.2244 718.405032 
L 1330.362 721.231297 
L 1331.4996 715.681089 
L 1332.6372 724.565787 
L 1333.7748 722.991707 
L 1334.9124 709.221514 
L 1336.05 721.950489 
L 1336.05 721.950489 
" style="fill:none;stroke:#008000;stroke-dasharray:6.000000,6.000000;stroke-dashoffset:0.0;stroke-width:2.0;"/>
   </g>
   <g id="patch_3">
    <path d="M 198.45 51.3 
L 1336.05 51.3 
" style="fill:none;stroke:#000000;stroke-linecap:square;stroke-linejoin:miter;"/>
   </g>
   <g id="patch_4">
    <path d="M 1336.05 747 
L 1336.05 51.3 
" style="fill:none;stroke:#000000;stroke-linecap:square;stroke-linejoin:miter;"/>
   </g>
   <g id="patch_5">
    <path d="M 198.45 747 
L 1336.05 747 
" style="fill:none;stroke:#000000;stroke-linecap:square;stroke-linejoin:miter;"/>
   </g>
   <g id="patch_6">
    <path d="M 198.45 747 
L 198.45 51.3 
" style="fill:none;stroke:#000000;stroke-linecap:square;stroke-linejoin:miter;"/>
   </g>
   <g id="matplotlib.axis_1">
    <g id="xtick_1">
     <g id="line2d_3">
      <defs>
       <path d="M 0 0 
L 0 -4 
" id="m76b16a9f2e" style="stroke:#000000;stroke-width:0.5;"/>
      </defs>
      <g>
       <use style="stroke:#000000;stroke-width:0.5;" x="198.45" xlink:href="#m76b16a9f2e" y="747.0"/>
      </g>
     </g>
     <g id="line2d_4">
      <defs>
       <path d="M 0 0 
L 0 4 
" id="m6d868ab9a6" style="stroke:#000000;stroke-width:0.5;"/>
      </defs>
      <g>
       <use style="stroke:#000000;stroke-width:0.5;" x="198.45" xlink:href="#m6d868ab9a6" y="51.3"/>
      </g>
     </g>
     <g id="text_1">
      <!-- 0 -->
      <defs>
       <path d="M 31.78125 66.40625 
Q 24.171875 66.40625 20.328125 58.90625 
Q 16.5 51.421875 16.5 36.375 
Q 16.5 21.390625 20.328125 13.890625 
Q 24.171875 6.390625 31.78125 6.390625 
Q 39.453125 6.390625 43.28125 13.890625 
Q 47.125 21.390625 47.125 36.375 
Q 47.125 51.421875 43.28125 58.90625 
Q 39.453125 66.40625 31.78125 66.40625 
M 31.78125 74.21875 
Q 44.046875 74.21875 50.515625 64.515625 
Q 56.984375 54.828125 56.984375 36.375 
Q 56.984375 17.96875 50.515625 8.265625 
Q 44.046875 -1.421875 31.78125 -1.421875 
Q 19.53125 -1.421875 13.0625 8.265625 
Q 6.59375 17.96875 6.59375 36.375 
Q 6.59375 54.828125 13.0625 64.515625 
Q 19.53125 74.21875 31.78125 74.21875 
" id="BitstreamVeraSans-Roman-30"/>
      </defs>
      <g transform="translate(188.90625 773.7953125)scale(0.3 -0.3)">
       <use xlink:href="#BitstreamVeraSans-Roman-30"/>
      </g>
     </g>
    </g>
    <g id="xtick_2">
     <g id="line2d_5">
      <g>
       <use style="stroke:#000000;stroke-width:0.5;" x="425.97" xlink:href="#m76b16a9f2e" y="747.0"/>
      </g>
     </g>
     <g id="line2d_6">
      <g>
       <use style="stroke:#000000;stroke-width:0.5;" x="425.97" xlink:href="#m6d868ab9a6" y="51.3"/>
      </g>
     </g>
     <g id="text_2">
      <!-- 20000 -->
      <defs>
       <path d="M 19.1875 8.296875 
L 53.609375 8.296875 
L 53.609375 0 
L 7.328125 0 
L 7.328125 8.296875 
Q 12.9375 14.109375 22.625 23.890625 
Q 32.328125 33.6875 34.8125 36.53125 
Q 39.546875 41.84375 41.421875 45.53125 
Q 43.3125 49.21875 43.3125 52.78125 
Q 43.3125 58.59375 39.234375 62.25 
Q 35.15625 65.921875 28.609375 65.921875 
Q 23.96875 65.921875 18.8125 64.3125 
Q 13.671875 62.703125 7.8125 59.421875 
L 7.8125 69.390625 
Q 13.765625 71.78125 18.9375 73 
Q 24.125 74.21875 28.421875 74.21875 
Q 39.75 74.21875 46.484375 68.546875 
Q 53.21875 62.890625 53.21875 53.421875 
Q 53.21875 48.921875 51.53125 44.890625 
Q 49.859375 40.875 45.40625 35.40625 
Q 44.1875 33.984375 37.640625 27.21875 
Q 31.109375 20.453125 19.1875 8.296875 
" id="BitstreamVeraSans-Roman-32"/>
      </defs>
      <g transform="translate(378.25125 773.7953125)scale(0.3 -0.3)">
       <use xlink:href="#BitstreamVeraSans-Roman-32"/>
       <use x="63.623046875" xlink:href="#BitstreamVeraSans-Roman-30"/>
       <use x="127.24609375" xlink:href="#BitstreamVeraSans-Roman-30"/>
       <use x="190.869140625" xlink:href="#BitstreamVeraSans-Roman-30"/>
       <use x="254.4921875" xlink:href="#BitstreamVeraSans-Roman-30"/>
      </g>
     </g>
    </g>
    <g id="xtick_3">
     <g id="line2d_7">
      <g>
       <use style="stroke:#000000;stroke-width:0.5;" x="653.49" xlink:href="#m76b16a9f2e" y="747.0"/>
      </g>
     </g>
     <g id="line2d_8">
      <g>
       <use style="stroke:#000000;stroke-width:0.5;" x="653.49" xlink:href="#m6d868ab9a6" y="51.3"/>
      </g>
     </g>
     <g id="text_3">
      <!-- 40000 -->
      <defs>
       <path d="M 37.796875 64.3125 
L 12.890625 25.390625 
L 37.796875 25.390625 
z
M 35.203125 72.90625 
L 47.609375 72.90625 
L 47.609375 25.390625 
L 58.015625 25.390625 
L 58.015625 17.1875 
L 47.609375 17.1875 
L 47.609375 0 
L 37.796875 0 
L 37.796875 17.1875 
L 4.890625 17.1875 
L 4.890625 26.703125 
z
" id="BitstreamVeraSans-Roman-34"/>
      </defs>
      <g transform="translate(605.77125 773.7953125)scale(0.3 -0.3)">
       <use xlink:href="#BitstreamVeraSans-Roman-34"/>
       <use x="63.623046875" xlink:href="#BitstreamVeraSans-Roman-30"/>
       <use x="127.24609375" xlink:href="#BitstreamVeraSans-Roman-30"/>
       <use x="190.869140625" xlink:href="#BitstreamVeraSans-Roman-30"/>
       <use x="254.4921875" xlink:href="#BitstreamVeraSans-Roman-30"/>
      </g>
     </g>
    </g>
    <g id="xtick_4">
     <g id="line2d_9">
      <g>
       <use style="stroke:#000000;stroke-width:0.5;" x="881.01" xlink:href="#m76b16a9f2e" y="747.0"/>
      </g>
     </g>
     <g id="line2d_10">
      <g>
       <use style="stroke:#000000;stroke-width:0.5;" x="881.01" xlink:href="#m6d868ab9a6" y="51.3"/>
      </g>
     </g>
     <g id="text_4">
      <!-- 60000 -->
      <defs>
       <path d="M 33.015625 40.375 
Q 26.375 40.375 22.484375 35.828125 
Q 18.609375 31.296875 18.609375 23.390625 
Q 18.609375 15.53125 22.484375 10.953125 
Q 26.375 6.390625 33.015625 6.390625 
Q 39.65625 6.390625 43.53125 10.953125 
Q 47.40625 15.53125 47.40625 23.390625 
Q 47.40625 31.296875 43.53125 35.828125 
Q 39.65625 40.375 33.015625 40.375 
M 52.59375 71.296875 
L 52.59375 62.3125 
Q 48.875 64.0625 45.09375 64.984375 
Q 41.3125 65.921875 37.59375 65.921875 
Q 27.828125 65.921875 22.671875 59.328125 
Q 17.53125 52.734375 16.796875 39.40625 
Q 19.671875 43.65625 24.015625 45.921875 
Q 28.375 48.1875 33.59375 48.1875 
Q 44.578125 48.1875 50.953125 41.515625 
Q 57.328125 34.859375 57.328125 23.390625 
Q 57.328125 12.15625 50.6875 5.359375 
Q 44.046875 -1.421875 33.015625 -1.421875 
Q 20.359375 -1.421875 13.671875 8.265625 
Q 6.984375 17.96875 6.984375 36.375 
Q 6.984375 53.65625 15.1875 63.9375 
Q 23.390625 74.21875 37.203125 74.21875 
Q 40.921875 74.21875 44.703125 73.484375 
Q 48.484375 72.75 52.59375 71.296875 
" id="BitstreamVeraSans-Roman-36"/>
      </defs>
      <g transform="translate(833.29125 773.7953125)scale(0.3 -0.3)">
       <use xlink:href="#BitstreamVeraSans-Roman-36"/>
       <use x="63.623046875" xlink:href="#BitstreamVeraSans-Roman-30"/>
       <use x="127.24609375" xlink:href="#BitstreamVeraSans-Roman-30"/>
       <use x="190.869140625" xlink:href="#BitstreamVeraSans-Roman-30"/>
       <use x="254.4921875" xlink:href="#BitstreamVeraSans-Roman-30"/>
      </g>
     </g>
    </g>
    <g id="xtick_5">
     <g id="line2d_11">
      <g>
       <use style="stroke:#000000;stroke-width:0.5;" x="1108.53" xlink:href="#m76b16a9f2e" y="747.0"/>
      </g>
     </g>
     <g id="line2d_12">
      <g>
       <use style="stroke:#000000;stroke-width:0.5;" x="1108.53" xlink:href="#m6d868ab9a6" y="51.3"/>
      </g>
     </g>
     <g id="text_5">
      <!-- 80000 -->
      <defs>
       <path d="M 31.78125 34.625 
Q 24.75 34.625 20.71875 30.859375 
Q 16.703125 27.09375 16.703125 20.515625 
Q 16.703125 13.921875 20.71875 10.15625 
Q 24.75 6.390625 31.78125 6.390625 
Q 38.8125 6.390625 42.859375 10.171875 
Q 46.921875 13.96875 46.921875 20.515625 
Q 46.921875 27.09375 42.890625 30.859375 
Q 38.875 34.625 31.78125 34.625 
M 21.921875 38.8125 
Q 15.578125 40.375 12.03125 44.71875 
Q 8.5 49.078125 8.5 55.328125 
Q 8.5 64.0625 14.71875 69.140625 
Q 20.953125 74.21875 31.78125 74.21875 
Q 42.671875 74.21875 48.875 69.140625 
Q 55.078125 64.0625 55.078125 55.328125 
Q 55.078125 49.078125 51.53125 44.71875 
Q 48 40.375 41.703125 38.8125 
Q 48.828125 37.15625 52.796875 32.3125 
Q 56.78125 27.484375 56.78125 20.515625 
Q 56.78125 9.90625 50.3125 4.234375 
Q 43.84375 -1.421875 31.78125 -1.421875 
Q 19.734375 -1.421875 13.25 4.234375 
Q 6.78125 9.90625 6.78125 20.515625 
Q 6.78125 27.484375 10.78125 32.3125 
Q 14.796875 37.15625 21.921875 38.8125 
M 18.3125 54.390625 
Q 18.3125 48.734375 21.84375 45.5625 
Q 25.390625 42.390625 31.78125 42.390625 
Q 38.140625 42.390625 41.71875 45.5625 
Q 45.3125 48.734375 45.3125 54.390625 
Q 45.3125 60.0625 41.71875 63.234375 
Q 38.140625 66.40625 31.78125 66.40625 
Q 25.390625 66.40625 21.84375 63.234375 
Q 18.3125 60.0625 18.3125 54.390625 
" id="BitstreamVeraSans-Roman-38"/>
      </defs>
      <g transform="translate(1060.81125 773.7953125)scale(0.3 -0.3)">
       <use xlink:href="#BitstreamVeraSans-Roman-38"/>
       <use x="63.623046875" xlink:href="#BitstreamVeraSans-Roman-30"/>
       <use x="127.24609375" xlink:href="#BitstreamVeraSans-Roman-30"/>
       <use x="190.869140625" xlink:href="#BitstreamVeraSans-Roman-30"/>
       <use x="254.4921875" xlink:href="#BitstreamVeraSans-Roman-30"/>
      </g>
     </g>
    </g>
    <g id="xtick_6">
     <g id="line2d_13">
      <g>
       <use style="stroke:#000000;stroke-width:0.5;" x="1336.05" xlink:href="#m76b16a9f2e" y="747.0"/>
      </g>
     </g>
     <g id="line2d_14">
      <g>
       <use style="stroke:#000000;stroke-width:0.5;" x="1336.05" xlink:href="#m6d868ab9a6" y="51.3"/>
      </g>
     </g>
     <g id="text_6">
      <!-- 100000 -->
      <defs>
       <path d="M 12.40625 8.296875 
L 28.515625 8.296875 
L 28.515625 63.921875 
L 10.984375 60.40625 
L 10.984375 69.390625 
L 28.421875 72.90625 
L 38.28125 72.90625 
L 38.28125 8.296875 
L 54.390625 8.296875 
L 54.390625 0 
L 12.40625 0 
z
" id="BitstreamVeraSans-Roman-31"/>
      </defs>
      <g transform="translate(1278.7875 773.7953125)scale(0.3 -0.3)">
       <use xlink:href="#BitstreamVeraSans-Roman-31"/>
       <use x="63.623046875" xlink:href="#BitstreamVeraSans-Roman-30"/>
       <use x="127.24609375" xlink:href="#BitstreamVeraSans-Roman-30"/>
       <use x="190.869140625" xlink:href="#BitstreamVeraSans-Roman-30"/>
       <use x="254.4921875" xlink:href="#BitstreamVeraSans-Roman-30"/>
       <use x="318.115234375" xlink:href="#BitstreamVeraSans-Roman-30"/>
      </g>
     </g>
    </g>
    <g id="text_7">
     <!-- iterations -->
     <defs>
      <path d="M 54.890625 33.015625 
L 54.890625 0 
L 45.90625 0 
L 45.90625 32.71875 
Q 45.90625 40.484375 42.875 44.328125 
Q 39.84375 48.1875 33.796875 48.1875 
Q 26.515625 48.1875 22.3125 43.546875 
Q 18.109375 38.921875 18.109375 30.90625 
L 18.109375 0 
L 9.078125 0 
L 9.078125 54.6875 
L 18.109375 54.6875 
L 18.109375 46.1875 
Q 21.34375 51.125 25.703125 53.5625 
Q 30.078125 56 35.796875 56 
Q 45.21875 56 50.046875 50.171875 
Q 54.890625 44.34375 54.890625 33.015625 
" id="BitstreamVeraSans-Roman-6e"/>
      <path d="M 34.28125 27.484375 
Q 23.390625 27.484375 19.1875 25 
Q 14.984375 22.515625 14.984375 16.5 
Q 14.984375 11.71875 18.140625 8.90625 
Q 21.296875 6.109375 26.703125 6.109375 
Q 34.1875 6.109375 38.703125 11.40625 
Q 43.21875 16.703125 43.21875 25.484375 
L 43.21875 27.484375 
z
M 52.203125 31.203125 
L 52.203125 0 
L 43.21875 0 
L 43.21875 8.296875 
Q 40.140625 3.328125 35.546875 0.953125 
Q 30.953125 -1.421875 24.3125 -1.421875 
Q 15.921875 -1.421875 10.953125 3.296875 
Q 6 8.015625 6 15.921875 
Q 6 25.140625 12.171875 29.828125 
Q 18.359375 34.515625 30.609375 34.515625 
L 43.21875 34.515625 
L 43.21875 35.40625 
Q 43.21875 41.609375 39.140625 45 
Q 35.0625 48.390625 27.6875 48.390625 
Q 23 48.390625 18.546875 47.265625 
Q 14.109375 46.140625 10.015625 43.890625 
L 10.015625 52.203125 
Q 14.9375 54.109375 19.578125 55.046875 
Q 24.21875 56 28.609375 56 
Q 40.484375 56 46.34375 49.84375 
Q 52.203125 43.703125 52.203125 31.203125 
" id="BitstreamVeraSans-Roman-61"/>
      <path d="M 30.609375 48.390625 
Q 23.390625 48.390625 19.1875 42.75 
Q 14.984375 37.109375 14.984375 27.296875 
Q 14.984375 17.484375 19.15625 11.84375 
Q 23.34375 6.203125 30.609375 6.203125 
Q 37.796875 6.203125 41.984375 11.859375 
Q 46.1875 17.53125 46.1875 27.296875 
Q 46.1875 37.015625 41.984375 42.703125 
Q 37.796875 48.390625 30.609375 48.390625 
M 30.609375 56 
Q 42.328125 56 49.015625 48.375 
Q 55.71875 40.765625 55.71875 27.296875 
Q 55.71875 13.875 49.015625 6.21875 
Q 42.328125 -1.421875 30.609375 -1.421875 
Q 18.84375 -1.421875 12.171875 6.21875 
Q 5.515625 13.875 5.515625 27.296875 
Q 5.515625 40.765625 12.171875 48.375 
Q 18.84375 56 30.609375 56 
" id="BitstreamVeraSans-Roman-6f"/>
      <path d="M 9.421875 54.6875 
L 18.40625 54.6875 
L 18.40625 0 
L 9.421875 0 
z
M 9.421875 75.984375 
L 18.40625 75.984375 
L 18.40625 64.59375 
L 9.421875 64.59375 
z
" id="BitstreamVeraSans-Roman-69"/>
      <path d="M 56.203125 29.59375 
L 56.203125 25.203125 
L 14.890625 25.203125 
Q 15.484375 15.921875 20.484375 11.0625 
Q 25.484375 6.203125 34.421875 6.203125 
Q 39.59375 6.203125 44.453125 7.46875 
Q 49.3125 8.734375 54.109375 11.28125 
L 54.109375 2.78125 
Q 49.265625 0.734375 44.1875 -0.34375 
Q 39.109375 -1.421875 33.890625 -1.421875 
Q 20.796875 -1.421875 13.15625 6.1875 
Q 5.515625 13.8125 5.515625 26.8125 
Q 5.515625 40.234375 12.765625 48.109375 
Q 20.015625 56 32.328125 56 
Q 43.359375 56 49.78125 48.890625 
Q 56.203125 41.796875 56.203125 29.59375 
M 47.21875 32.234375 
Q 47.125 39.59375 43.09375 43.984375 
Q 39.0625 48.390625 32.421875 48.390625 
Q 24.90625 48.390625 20.390625 44.140625 
Q 15.875 39.890625 15.1875 32.171875 
z
" id="BitstreamVeraSans-Roman-65"/>
      <path d="M 18.3125 70.21875 
L 18.3125 54.6875 
L 36.8125 54.6875 
L 36.8125 47.703125 
L 18.3125 47.703125 
L 18.3125 18.015625 
Q 18.3125 11.328125 20.140625 9.421875 
Q 21.96875 7.515625 27.59375 7.515625 
L 36.8125 7.515625 
L 36.8125 0 
L 27.59375 0 
Q 17.1875 0 13.234375 3.875 
Q 9.28125 7.765625 9.28125 18.015625 
L 9.28125 47.703125 
L 2.6875 47.703125 
L 2.6875 54.6875 
L 9.28125 54.6875 
L 9.28125 70.21875 
z
" id="BitstreamVeraSans-Roman-74"/>
      <path d="M 41.109375 46.296875 
Q 39.59375 47.171875 37.8125 47.578125 
Q 36.03125 48 33.890625 48 
Q 26.265625 48 22.1875 43.046875 
Q 18.109375 38.09375 18.109375 28.8125 
L 18.109375 0 
L 9.078125 0 
L 9.078125 54.6875 
L 18.109375 54.6875 
L 18.109375 46.1875 
Q 20.953125 51.171875 25.484375 53.578125 
Q 30.03125 56 36.53125 56 
Q 37.453125 56 38.578125 55.875 
Q 39.703125 55.765625 41.0625 55.515625 
z
" id="BitstreamVeraSans-Roman-72"/>
      <path d="M 44.28125 53.078125 
L 44.28125 44.578125 
Q 40.484375 46.53125 36.375 47.5 
Q 32.28125 48.484375 27.875 48.484375 
Q 21.1875 48.484375 17.84375 46.4375 
Q 14.5 44.390625 14.5 40.28125 
Q 14.5 37.15625 16.890625 35.375 
Q 19.28125 33.59375 26.515625 31.984375 
L 29.59375 31.296875 
Q 39.15625 29.25 43.1875 25.515625 
Q 47.21875 21.78125 47.21875 15.09375 
Q 47.21875 7.46875 41.1875 3.015625 
Q 35.15625 -1.421875 24.609375 -1.421875 
Q 20.21875 -1.421875 15.453125 -0.5625 
Q 10.6875 0.296875 5.421875 2 
L 5.421875 11.28125 
Q 10.40625 8.6875 15.234375 7.390625 
Q 20.0625 6.109375 24.8125 6.109375 
Q 31.15625 6.109375 34.5625 8.28125 
Q 37.984375 10.453125 37.984375 14.40625 
Q 37.984375 18.0625 35.515625 20.015625 
Q 33.0625 21.96875 24.703125 23.78125 
L 21.578125 24.515625 
Q 13.234375 26.265625 9.515625 29.90625 
Q 5.8125 33.546875 5.8125 39.890625 
Q 5.8125 47.609375 11.28125 51.796875 
Q 16.75 56 26.8125 56 
Q 31.78125 56 36.171875 55.265625 
Q 40.578125 54.546875 44.28125 53.078125 
" id="BitstreamVeraSans-Roman-73"/>
     </defs>
     <g transform="translate(696.06796875 807.8296875)scale(0.3 -0.3)">
      <use xlink:href="#BitstreamVeraSans-Roman-69"/>
      <use x="27.783203125" xlink:href="#BitstreamVeraSans-Roman-74"/>
      <use x="66.9921875" xlink:href="#BitstreamVeraSans-Roman-65"/>
      <use x="128.515625" xlink:href="#BitstreamVeraSans-Roman-72"/>
      <use x="169.62890625" xlink:href="#BitstreamVeraSans-Roman-61"/>
      <use x="230.908203125" xlink:href="#BitstreamVeraSans-Roman-74"/>
      <use x="270.1171875" xlink:href="#BitstreamVeraSans-Roman-69"/>
      <use x="297.900390625" xlink:href="#BitstreamVeraSans-Roman-6f"/>
      <use x="359.08203125" xlink:href="#BitstreamVeraSans-Roman-6e"/>
      <use x="422.4609375" xlink:href="#BitstreamVeraSans-Roman-73"/>
     </g>
    </g>
   </g>
   <g id="matplotlib.axis_2">
    <g id="ytick_1">
     <g id="line2d_15">
      <defs>
       <path d="M 0 0 
L 4 0 
" id="me82d21ba1c" style="stroke:#000000;stroke-width:0.5;"/>
      </defs>
      <g>
       <use style="stroke:#000000;stroke-width:0.5;" x="198.45" xlink:href="#me82d21ba1c" y="747.0"/>
      </g>
     </g>
     <g id="line2d_16">
      <defs>
       <path d="M 0 0 
L -4 0 
" id="m22391bbf11" style="stroke:#000000;stroke-width:0.5;"/>
      </defs>
      <g>
       <use style="stroke:#000000;stroke-width:0.5;" x="1336.05" xlink:href="#m22391bbf11" y="747.0"/>
      </g>
     </g>
     <g id="text_8">
      <!-- 0 -->
      <g transform="translate(175.3625 755.278125)scale(0.3 -0.3)">
       <use xlink:href="#BitstreamVeraSans-Roman-30"/>
      </g>
     </g>
    </g>
    <g id="ytick_2">
     <g id="line2d_17">
      <g>
       <use style="stroke:#000000;stroke-width:0.5;" x="198.45" xlink:href="#me82d21ba1c" y="607.86"/>
      </g>
     </g>
     <g id="line2d_18">
      <g>
       <use style="stroke:#000000;stroke-width:0.5;" x="1336.05" xlink:href="#m22391bbf11" y="607.86"/>
      </g>
     </g>
     <g id="text_9">
      <!-- 5000 -->
      <defs>
       <path d="M 10.796875 72.90625 
L 49.515625 72.90625 
L 49.515625 64.59375 
L 19.828125 64.59375 
L 19.828125 46.734375 
Q 21.96875 47.46875 24.109375 47.828125 
Q 26.265625 48.1875 28.421875 48.1875 
Q 40.625 48.1875 47.75 41.5 
Q 54.890625 34.8125 54.890625 23.390625 
Q 54.890625 11.625 47.5625 5.09375 
Q 40.234375 -1.421875 26.90625 -1.421875 
Q 22.3125 -1.421875 17.546875 -0.640625 
Q 12.796875 0.140625 7.71875 1.703125 
L 7.71875 11.625 
Q 12.109375 9.234375 16.796875 8.0625 
Q 21.484375 6.890625 26.703125 6.890625 
Q 35.15625 6.890625 40.078125 11.328125 
Q 45.015625 15.765625 45.015625 23.390625 
Q 45.015625 31 40.078125 35.4375 
Q 35.15625 39.890625 26.703125 39.890625 
Q 22.75 39.890625 18.8125 39.015625 
Q 14.890625 38.140625 10.796875 36.28125 
z
" id="BitstreamVeraSans-Roman-35"/>
      </defs>
      <g transform="translate(118.1 616.138125)scale(0.3 -0.3)">
       <use xlink:href="#BitstreamVeraSans-Roman-35"/>
       <use x="63.623046875" xlink:href="#BitstreamVeraSans-Roman-30"/>
       <use x="127.24609375" xlink:href="#BitstreamVeraSans-Roman-30"/>
       <use x="190.869140625" xlink:href="#BitstreamVeraSans-Roman-30"/>
      </g>
     </g>
    </g>
    <g id="ytick_3">
     <g id="line2d_19">
      <g>
       <use style="stroke:#000000;stroke-width:0.5;" x="198.45" xlink:href="#me82d21ba1c" y="468.72"/>
      </g>
     </g>
     <g id="line2d_20">
      <g>
       <use style="stroke:#000000;stroke-width:0.5;" x="1336.05" xlink:href="#m22391bbf11" y="468.72"/>
      </g>
     </g>
     <g id="text_10">
      <!-- 10000 -->
      <g transform="translate(99.0125 476.998125)scale(0.3 -0.3)">
       <use xlink:href="#BitstreamVeraSans-Roman-31"/>
       <use x="63.623046875" xlink:href="#BitstreamVeraSans-Roman-30"/>
       <use x="127.24609375" xlink:href="#BitstreamVeraSans-Roman-30"/>
       <use x="190.869140625" xlink:href="#BitstreamVeraSans-Roman-30"/>
       <use x="254.4921875" xlink:href="#BitstreamVeraSans-Roman-30"/>
      </g>
     </g>
    </g>
    <g id="ytick_4">
     <g id="line2d_21">
      <g>
       <use style="stroke:#000000;stroke-width:0.5;" x="198.45" xlink:href="#me82d21ba1c" y="329.58"/>
      </g>
     </g>
     <g id="line2d_22">
      <g>
       <use style="stroke:#000000;stroke-width:0.5;" x="1336.05" xlink:href="#m22391bbf11" y="329.58"/>
      </g>
     </g>
     <g id="text_11">
      <!-- 15000 -->
      <g transform="translate(99.0125 337.858125)scale(0.3 -0.3)">
       <use xlink:href="#BitstreamVeraSans-Roman-31"/>
       <use x="63.623046875" xlink:href="#BitstreamVeraSans-Roman-35"/>
       <use x="127.24609375" xlink:href="#BitstreamVeraSans-Roman-30"/>
       <use x="190.869140625" xlink:href="#BitstreamVeraSans-Roman-30"/>
       <use x="254.4921875" xlink:href="#BitstreamVeraSans-Roman-30"/>
      </g>
     </g>
    </g>
    <g id="ytick_5">
     <g id="line2d_23">
      <g>
       <use style="stroke:#000000;stroke-width:0.5;" x="198.45" xlink:href="#me82d21ba1c" y="190.44"/>
      </g>
     </g>
     <g id="line2d_24">
      <g>
       <use style="stroke:#000000;stroke-width:0.5;" x="1336.05" xlink:href="#m22391bbf11" y="190.44"/>
      </g>
     </g>
     <g id="text_12">
      <!-- 20000 -->
      <g transform="translate(99.0125 198.718125)scale(0.3 -0.3)">
       <use xlink:href="#BitstreamVeraSans-Roman-32"/>
       <use x="63.623046875" xlink:href="#BitstreamVeraSans-Roman-30"/>
       <use x="127.24609375" xlink:href="#BitstreamVeraSans-Roman-30"/>
       <use x="190.869140625" xlink:href="#BitstreamVeraSans-Roman-30"/>
       <use x="254.4921875" xlink:href="#BitstreamVeraSans-Roman-30"/>
      </g>
     </g>
    </g>
    <g id="ytick_6">
     <g id="line2d_25">
      <g>
       <use style="stroke:#000000;stroke-width:0.5;" x="198.45" xlink:href="#me82d21ba1c" y="51.3"/>
      </g>
     </g>
     <g id="line2d_26">
      <g>
       <use style="stroke:#000000;stroke-width:0.5;" x="1336.05" xlink:href="#m22391bbf11" y="51.3"/>
      </g>
     </g>
     <g id="text_13">
      <!-- 25000 -->
      <g transform="translate(99.0125 59.578125)scale(0.3 -0.3)">
       <use xlink:href="#BitstreamVeraSans-Roman-32"/>
       <use x="63.623046875" xlink:href="#BitstreamVeraSans-Roman-35"/>
       <use x="127.24609375" xlink:href="#BitstreamVeraSans-Roman-30"/>
       <use x="190.869140625" xlink:href="#BitstreamVeraSans-Roman-30"/>
       <use x="254.4921875" xlink:href="#BitstreamVeraSans-Roman-30"/>
      </g>
     </g>
    </g>
    <g id="text_14">
     <!-- log(loss) -->
     <defs>
      <path d="M 8.015625 75.875 
L 15.828125 75.875 
Q 23.140625 64.359375 26.78125 53.3125 
Q 30.421875 42.28125 30.421875 31.390625 
Q 30.421875 20.453125 26.78125 9.375 
Q 23.140625 -1.703125 15.828125 -13.1875 
L 8.015625 -13.1875 
Q 14.5 -2 17.703125 9.0625 
Q 20.90625 20.125 20.90625 31.390625 
Q 20.90625 42.671875 17.703125 53.65625 
Q 14.5 64.65625 8.015625 75.875 
" id="BitstreamVeraSans-Roman-29"/>
      <path d="M 31 75.875 
Q 24.46875 64.65625 21.28125 53.65625 
Q 18.109375 42.671875 18.109375 31.390625 
Q 18.109375 20.125 21.3125 9.0625 
Q 24.515625 -2 31 -13.1875 
L 23.1875 -13.1875 
Q 15.875 -1.703125 12.234375 9.375 
Q 8.59375 20.453125 8.59375 31.390625 
Q 8.59375 42.28125 12.203125 53.3125 
Q 15.828125 64.359375 23.1875 75.875 
z
" id="BitstreamVeraSans-Roman-28"/>
      <path d="M 45.40625 27.984375 
Q 45.40625 37.75 41.375 43.109375 
Q 37.359375 48.484375 30.078125 48.484375 
Q 22.859375 48.484375 18.828125 43.109375 
Q 14.796875 37.75 14.796875 27.984375 
Q 14.796875 18.265625 18.828125 12.890625 
Q 22.859375 7.515625 30.078125 7.515625 
Q 37.359375 7.515625 41.375 12.890625 
Q 45.40625 18.265625 45.40625 27.984375 
M 54.390625 6.78125 
Q 54.390625 -7.171875 48.1875 -13.984375 
Q 42 -20.796875 29.203125 -20.796875 
Q 24.46875 -20.796875 20.265625 -20.09375 
Q 16.0625 -19.390625 12.109375 -17.921875 
L 12.109375 -9.1875 
Q 16.0625 -11.328125 19.921875 -12.34375 
Q 23.78125 -13.375 27.78125 -13.375 
Q 36.625 -13.375 41.015625 -8.765625 
Q 45.40625 -4.15625 45.40625 5.171875 
L 45.40625 9.625 
Q 42.625 4.78125 38.28125 2.390625 
Q 33.9375 0 27.875 0 
Q 17.828125 0 11.671875 7.65625 
Q 5.515625 15.328125 5.515625 27.984375 
Q 5.515625 40.671875 11.671875 48.328125 
Q 17.828125 56 27.875 56 
Q 33.9375 56 38.28125 53.609375 
Q 42.625 51.21875 45.40625 46.390625 
L 45.40625 54.6875 
L 54.390625 54.6875 
z
" id="BitstreamVeraSans-Roman-67"/>
      <path d="M 9.421875 75.984375 
L 18.40625 75.984375 
L 18.40625 0 
L 9.421875 0 
z
" id="BitstreamVeraSans-Roman-6c"/>
     </defs>
     <g transform="translate(87.7734375 462.69609375)rotate(-90.0)scale(0.3 -0.3)">
      <use xlink:href="#BitstreamVeraSans-Roman-6c"/>
      <use x="27.783203125" xlink:href="#BitstreamVeraSans-Roman-6f"/>
      <use x="88.96484375" xlink:href="#BitstreamVeraSans-Roman-67"/>
      <use x="152.44140625" xlink:href="#BitstreamVeraSans-Roman-28"/>
      <use x="191.455078125" xlink:href="#BitstreamVeraSans-Roman-6c"/>
      <use x="219.23828125" xlink:href="#BitstreamVeraSans-Roman-6f"/>
      <use x="280.419921875" xlink:href="#BitstreamVeraSans-Roman-73"/>
      <use x="332.51953125" xlink:href="#BitstreamVeraSans-Roman-73"/>
      <use x="384.619140625" xlink:href="#BitstreamVeraSans-Roman-29"/>
     </g>
    </g>
   </g>
   <g id="legend_1">
    <g id="patch_7">
     <path d="M 843.876562 163.36875 
L 1321.05 163.36875 
L 1321.05 66.3 
L 843.876562 66.3 
z
" style="fill:#ffffff;stroke:#000000;stroke-linejoin:miter;"/>
    </g>
    <g id="line2d_27">
     <path d="M 864.876562 90.595313 
L 906.876562 90.595313 
" style="fill:none;stroke:#0000ff;stroke-linecap:square;stroke-width:2.0;"/>
    </g>
    <g id="line2d_28"/>
    <g id="text_15">
     <!-- random: step=0.138281 -->
     <defs>
      <path id="BitstreamVeraSans-Roman-20"/>
      <path d="M 40.578125 39.3125 
Q 47.65625 37.796875 51.625 33 
Q 55.609375 28.21875 55.609375 21.1875 
Q 55.609375 10.40625 48.1875 4.484375 
Q 40.765625 -1.421875 27.09375 -1.421875 
Q 22.515625 -1.421875 17.65625 -0.515625 
Q 12.796875 0.390625 7.625 2.203125 
L 7.625 11.71875 
Q 11.71875 9.328125 16.59375 8.109375 
Q 21.484375 6.890625 26.8125 6.890625 
Q 36.078125 6.890625 40.9375 10.546875 
Q 45.796875 14.203125 45.796875 21.1875 
Q 45.796875 27.640625 41.28125 31.265625 
Q 36.765625 34.90625 28.71875 34.90625 
L 20.21875 34.90625 
L 20.21875 43.015625 
L 29.109375 43.015625 
Q 36.375 43.015625 40.234375 45.921875 
Q 44.09375 48.828125 44.09375 54.296875 
Q 44.09375 59.90625 40.109375 62.90625 
Q 36.140625 65.921875 28.71875 65.921875 
Q 24.65625 65.921875 20.015625 65.03125 
Q 15.375 64.15625 9.8125 62.3125 
L 9.8125 71.09375 
Q 15.4375 72.65625 20.34375 73.4375 
Q 25.25 74.21875 29.59375 74.21875 
Q 40.828125 74.21875 47.359375 69.109375 
Q 53.90625 64.015625 53.90625 55.328125 
Q 53.90625 49.265625 50.4375 45.09375 
Q 46.96875 40.921875 40.578125 39.3125 
" id="BitstreamVeraSans-Roman-33"/>
      <path d="M 52 44.1875 
Q 55.375 50.25 60.0625 53.125 
Q 64.75 56 71.09375 56 
Q 79.640625 56 84.28125 50.015625 
Q 88.921875 44.046875 88.921875 33.015625 
L 88.921875 0 
L 79.890625 0 
L 79.890625 32.71875 
Q 79.890625 40.578125 77.09375 44.375 
Q 74.3125 48.1875 68.609375 48.1875 
Q 61.625 48.1875 57.5625 43.546875 
Q 53.515625 38.921875 53.515625 30.90625 
L 53.515625 0 
L 44.484375 0 
L 44.484375 32.71875 
Q 44.484375 40.625 41.703125 44.40625 
Q 38.921875 48.1875 33.109375 48.1875 
Q 26.21875 48.1875 22.15625 43.53125 
Q 18.109375 38.875 18.109375 30.90625 
L 18.109375 0 
L 9.078125 0 
L 9.078125 54.6875 
L 18.109375 54.6875 
L 18.109375 46.1875 
Q 21.1875 51.21875 25.484375 53.609375 
Q 29.78125 56 35.6875 56 
Q 41.65625 56 45.828125 52.96875 
Q 50 49.953125 52 44.1875 
" id="BitstreamVeraSans-Roman-6d"/>
      <path d="M 11.71875 12.40625 
L 22.015625 12.40625 
L 22.015625 0 
L 11.71875 0 
z
M 11.71875 51.703125 
L 22.015625 51.703125 
L 22.015625 39.3125 
L 11.71875 39.3125 
z
" id="BitstreamVeraSans-Roman-3a"/>
      <path d="M 10.6875 12.40625 
L 21 12.40625 
L 21 0 
L 10.6875 0 
z
" id="BitstreamVeraSans-Roman-2e"/>
      <path d="M 10.59375 45.40625 
L 73.1875 45.40625 
L 73.1875 37.203125 
L 10.59375 37.203125 
z
M 10.59375 25.484375 
L 73.1875 25.484375 
L 73.1875 17.1875 
L 10.59375 17.1875 
z
" id="BitstreamVeraSans-Roman-3d"/>
      <path d="M 45.40625 46.390625 
L 45.40625 75.984375 
L 54.390625 75.984375 
L 54.390625 0 
L 45.40625 0 
L 45.40625 8.203125 
Q 42.578125 3.328125 38.25 0.953125 
Q 33.9375 -1.421875 27.875 -1.421875 
Q 17.96875 -1.421875 11.734375 6.484375 
Q 5.515625 14.40625 5.515625 27.296875 
Q 5.515625 40.1875 11.734375 48.09375 
Q 17.96875 56 27.875 56 
Q 33.9375 56 38.25 53.625 
Q 42.578125 51.265625 45.40625 46.390625 
M 14.796875 27.296875 
Q 14.796875 17.390625 18.875 11.75 
Q 22.953125 6.109375 30.078125 6.109375 
Q 37.203125 6.109375 41.296875 11.75 
Q 45.40625 17.390625 45.40625 27.296875 
Q 45.40625 37.203125 41.296875 42.84375 
Q 37.203125 48.484375 30.078125 48.484375 
Q 22.953125 48.484375 18.875 42.84375 
Q 14.796875 37.203125 14.796875 27.296875 
" id="BitstreamVeraSans-Roman-64"/>
      <path d="M 18.109375 8.203125 
L 18.109375 -20.796875 
L 9.078125 -20.796875 
L 9.078125 54.6875 
L 18.109375 54.6875 
L 18.109375 46.390625 
Q 20.953125 51.265625 25.265625 53.625 
Q 29.59375 56 35.59375 56 
Q 45.5625 56 51.78125 48.09375 
Q 58.015625 40.1875 58.015625 27.296875 
Q 58.015625 14.40625 51.78125 6.484375 
Q 45.5625 -1.421875 35.59375 -1.421875 
Q 29.59375 -1.421875 25.265625 0.953125 
Q 20.953125 3.328125 18.109375 8.203125 
M 48.6875 27.296875 
Q 48.6875 37.203125 44.609375 42.84375 
Q 40.53125 48.484375 33.40625 48.484375 
Q 26.265625 48.484375 22.1875 42.84375 
Q 18.109375 37.203125 18.109375 27.296875 
Q 18.109375 17.390625 22.1875 11.75 
Q 26.265625 6.109375 33.40625 6.109375 
Q 40.53125 6.109375 44.609375 11.75 
Q 48.6875 17.390625 48.6875 27.296875 
" id="BitstreamVeraSans-Roman-70"/>
     </defs>
     <g transform="translate(939.8765625 101.0953125)scale(0.3 -0.3)">
      <use xlink:href="#BitstreamVeraSans-Roman-72"/>
      <use x="41.11328125" xlink:href="#BitstreamVeraSans-Roman-61"/>
      <use x="102.392578125" xlink:href="#BitstreamVeraSans-Roman-6e"/>
      <use x="165.771484375" xlink:href="#BitstreamVeraSans-Roman-64"/>
      <use x="229.248046875" xlink:href="#BitstreamVeraSans-Roman-6f"/>
      <use x="290.4296875" xlink:href="#BitstreamVeraSans-Roman-6d"/>
      <use x="387.841796875" xlink:href="#BitstreamVeraSans-Roman-3a"/>
      <use x="421.533203125" xlink:href="#BitstreamVeraSans-Roman-20"/>
      <use x="453.3203125" xlink:href="#BitstreamVeraSans-Roman-73"/>
      <use x="505.419921875" xlink:href="#BitstreamVeraSans-Roman-74"/>
      <use x="544.62890625" xlink:href="#BitstreamVeraSans-Roman-65"/>
      <use x="606.15234375" xlink:href="#BitstreamVeraSans-Roman-70"/>
      <use x="669.62890625" xlink:href="#BitstreamVeraSans-Roman-3d"/>
      <use x="753.41796875" xlink:href="#BitstreamVeraSans-Roman-30"/>
      <use x="817.041015625" xlink:href="#BitstreamVeraSans-Roman-2e"/>
      <use x="848.828125" xlink:href="#BitstreamVeraSans-Roman-31"/>
      <use x="912.451171875" xlink:href="#BitstreamVeraSans-Roman-33"/>
      <use x="976.07421875" xlink:href="#BitstreamVeraSans-Roman-38"/>
      <use x="1039.69726562" xlink:href="#BitstreamVeraSans-Roman-32"/>
      <use x="1103.3203125" xlink:href="#BitstreamVeraSans-Roman-38"/>
      <use x="1166.94335938" xlink:href="#BitstreamVeraSans-Roman-31"/>
     </g>
    </g>
    <g id="line2d_29">
     <path d="M 864.876562 134.629688 
L 906.876562 134.629688 
" style="fill:none;stroke:#008000;stroke-dasharray:6.000000,6.000000;stroke-dashoffset:0.0;stroke-width:2.0;"/>
    </g>
    <g id="line2d_30"/>
    <g id="text_16">
     <!-- corr: step=0.138281 -->
     <defs>
      <path d="M 48.78125 52.59375 
L 48.78125 44.1875 
Q 44.96875 46.296875 41.140625 47.34375 
Q 37.3125 48.390625 33.40625 48.390625 
Q 24.65625 48.390625 19.8125 42.84375 
Q 14.984375 37.3125 14.984375 27.296875 
Q 14.984375 17.28125 19.8125 11.734375 
Q 24.65625 6.203125 33.40625 6.203125 
Q 37.3125 6.203125 41.140625 7.25 
Q 44.96875 8.296875 48.78125 10.40625 
L 48.78125 2.09375 
Q 45.015625 0.34375 40.984375 -0.53125 
Q 36.96875 -1.421875 32.421875 -1.421875 
Q 20.0625 -1.421875 12.78125 6.34375 
Q 5.515625 14.109375 5.515625 27.296875 
Q 5.515625 40.671875 12.859375 48.328125 
Q 20.21875 56 33.015625 56 
Q 37.15625 56 41.109375 55.140625 
Q 45.0625 54.296875 48.78125 52.59375 
" id="BitstreamVeraSans-Roman-63"/>
     </defs>
     <g transform="translate(939.8765625 145.1296875)scale(0.3 -0.3)">
      <use xlink:href="#BitstreamVeraSans-Roman-63"/>
      <use x="54.98046875" xlink:href="#BitstreamVeraSans-Roman-6f"/>
      <use x="116.162109375" xlink:href="#BitstreamVeraSans-Roman-72"/>
      <use x="157.259765625" xlink:href="#BitstreamVeraSans-Roman-72"/>
      <use x="198.357421875" xlink:href="#BitstreamVeraSans-Roman-3a"/>
      <use x="232.048828125" xlink:href="#BitstreamVeraSans-Roman-20"/>
      <use x="263.8359375" xlink:href="#BitstreamVeraSans-Roman-73"/>
      <use x="315.935546875" xlink:href="#BitstreamVeraSans-Roman-74"/>
      <use x="355.14453125" xlink:href="#BitstreamVeraSans-Roman-65"/>
      <use x="416.66796875" xlink:href="#BitstreamVeraSans-Roman-70"/>
      <use x="480.14453125" xlink:href="#BitstreamVeraSans-Roman-3d"/>
      <use x="563.93359375" xlink:href="#BitstreamVeraSans-Roman-30"/>
      <use x="627.556640625" xlink:href="#BitstreamVeraSans-Roman-2e"/>
      <use x="659.34375" xlink:href="#BitstreamVeraSans-Roman-31"/>
      <use x="722.966796875" xlink:href="#BitstreamVeraSans-Roman-33"/>
      <use x="786.58984375" xlink:href="#BitstreamVeraSans-Roman-38"/>
      <use x="850.212890625" xlink:href="#BitstreamVeraSans-Roman-32"/>
      <use x="913.8359375" xlink:href="#BitstreamVeraSans-Roman-38"/>
      <use x="977.458984375" xlink:href="#BitstreamVeraSans-Roman-31"/>
     </g>
    </g>
   </g>
  </g>
 </g>
 <defs>
  <clipPath id="pad31242b8f">
   <rect height="695.7" width="1137.6" x="198.45" y="51.3"/>
  </clipPath>
 </defs>
</svg>
