<?xml version="1.0" encoding="utf-8" standalone="no"?>
<!DOCTYPE svg PUBLIC "-//W3C//DTD SVG 1.1//EN"
  "http://www.w3.org/Graphics/SVG/1.1/DTD/svg11.dtd">
<!-- Created with matplotlib (http://matplotlib.org/) -->
<svg height="864pt" version="1.1" viewBox="0 0 1440 864" width="1440pt" xmlns="http://www.w3.org/2000/svg" xmlns:xlink="http://www.w3.org/1999/xlink">
 <defs>
  <style type="text/css">
*{stroke-linecap:butt;stroke-linejoin:round;stroke-miterlimit:100000;}
  </style>
 </defs>
 <g id="figure_1">
  <g id="patch_1">
   <path d="M 0 864 
L 1440 864 
L 1440 0 
L 0 0 
z
" style="fill:#ffffff;"/>
  </g>
  <g id="axes_1">
   <g id="patch_2">
    <path d="M 198.5625 747 
L 1336.05 747 
L 1336.05 51.3 
L 198.5625 51.3 
z
" style="fill:#ffffff;"/>
   </g>
   <g id="line2d_1">
    <path clip-path="url(#p3f197272cf)" d="M 199.699988 319.287553 
L 200.837475 319.287553 
L 201.974963 504.804437 
L 203.11245 523.454154 
L 204.249938 523.917403 
L 205.387425 589.229632 
L 206.524913 595.696425 
L 207.6624 595.282831 
L 208.799888 603.475133 
L 209.937375 598.50814 
L 211.074863 617.986348 
L 212.21235 623.088134 
L 213.349838 623.088134 
L 214.487325 621.586335 
L 215.624813 621.586335 
L 216.7623 583.870481 
L 217.899788 628.461068 
L 219.037275 609.439935 
L 220.174763 605.289041 
L 221.31225 632.403513 
L 222.449738 607.914439 
L 223.587225 640.695953 
L 224.724713 559.057167 
L 225.8622 559.057167 
L 226.999688 646.169329 
L 228.137175 607.623853 
L 229.274663 536.72824 
L 230.41215 624.996178 
L 231.549638 655.568801 
L 232.687125 614.235525 
L 233.824613 555.92169 
L 234.9621 555.92169 
L 236.099588 627.661448 
L 237.237075 628.755306 
L 238.374563 637.646222 
L 239.51205 655.683244 
L 240.649538 654.036392 
L 241.787025 657.970097 
L 242.924513 615.648057 
L 244.062 640.289534 
L 245.199488 677.930121 
L 246.336975 637.53391 
L 247.474463 609.368234 
L 248.61195 623.49077 
L 249.749438 662.688813 
L 250.886925 579.186507 
L 252.024413 642.445465 
L 253.1619 665.648842 
L 254.299388 657.575505 
L 255.436875 632.536088 
L 256.574363 647.292189 
L 257.71185 650.367705 
L 258.849338 675.834803 
L 259.986825 669.603201 
L 261.124313 635.582254 
L 262.2618 635.582254 
L 263.399288 669.762429 
L 264.536775 645.262528 
L 265.674263 665.682149 
L 266.81175 682.260463 
L 267.949238 673.536732 
L 269.086725 659.353236 
L 270.224213 642.432551 
L 271.3617 651.83598 
L 272.499188 640.021689 
L 273.636675 630.844841 
L 274.774163 649.193668 
L 275.91165 673.947891 
L 277.049138 662.622591 
L 278.186625 644.351422 
L 279.324113 670.629315 
L 280.4616 657.062861 
L 281.599088 679.309694 
L 282.736575 675.789931 
L 283.874063 670.711973 
L 285.01155 674.548063 
L 286.149038 681.019899 
L 287.286525 670.632011 
L 288.424013 666.926234 
L 289.5615 666.926234 
L 291.836475 634.127588 
L 292.973963 658.848984 
L 294.11145 664.330969 
L 295.248938 672.602973 
L 296.386425 647.768048 
L 297.523913 682.092712 
L 298.6614 645.861873 
L 299.798888 673.446639 
L 300.936375 655.650416 
L 302.073863 642.161358 
L 303.21135 682.852286 
L 304.348838 679.884821 
L 305.486325 680.367202 
L 306.623813 685.277713 
L 307.7613 632.500911 
L 308.898788 667.394919 
L 310.036275 672.069197 
L 311.173763 675.834412 
L 312.31125 674.73838 
L 313.448738 658.780979 
L 314.586225 658.743368 
L 315.723713 684.241686 
L 316.8612 682.380732 
L 317.998688 657.248004 
L 319.136175 668.647179 
L 320.273663 668.647179 
L 322.548638 624.541147 
L 323.686125 678.360238 
L 324.823613 672.145419 
L 325.9611 648.485619 
L 327.098588 661.224669 
L 328.236075 686.528973 
L 329.373563 667.014414 
L 330.51105 683.172569 
L 331.648538 626.855654 
L 332.786025 695.604467 
L 333.923513 693.006158 
L 335.061 667.758813 
L 336.198488 671.950884 
L 337.335975 684.926081 
L 338.473463 676.420583 
L 339.61095 685.090179 
L 340.748438 661.418378 
L 341.885925 684.710457 
L 343.023413 689.706192 
L 344.1609 692.998331 
L 345.298388 616.633821 
L 346.435875 667.604629 
L 347.573363 641.886339 
L 348.71085 681.455885 
L 349.848338 661.857756 
L 350.985825 664.277878 
L 352.123313 679.667241 
L 353.2608 683.705779 
L 354.398288 643.622285 
L 355.535775 637.305763 
L 356.673263 686.394181 
L 357.81075 677.97869 
L 358.948238 685.856188 
L 360.085725 691.462617 
L 361.223213 691.462617 
L 362.3607 697.97763 
L 363.498188 686.974656 
L 364.635675 689.129761 
L 365.773163 695.001121 
L 366.91065 669.009117 
L 368.048138 679.282606 
L 369.185625 665.065672 
L 370.323113 675.666574 
L 371.4606 676.660512 
L 372.598088 674.260347 
L 373.735575 680.446468 
L 374.873063 680.467644 
L 376.01055 674.516365 
L 377.148038 686.022112 
L 378.285525 612.800601 
L 379.423013 693.997835 
L 380.5605 689.27938 
L 381.697988 668.046094 
L 383.972963 684.622016 
L 385.11045 681.854174 
L 386.247938 648.446355 
L 387.385425 695.186612 
L 388.522913 675.863197 
L 389.6604 647.932233 
L 390.797888 647.932233 
L 391.935375 690.222358 
L 393.072863 686.55241 
L 394.21035 664.186829 
L 395.347838 687.456037 
L 396.485325 687.456037 
L 397.622813 675.077925 
L 399.897788 675.124755 
L 401.035275 691.852252 
L 402.172763 662.926394 
L 403.31025 662.926394 
L 404.447738 668.969331 
L 405.585225 701.017491 
L 406.722713 701.017491 
L 407.8602 673.004261 
L 408.997688 697.458464 
L 410.135175 697.458464 
L 411.272663 702.978539 
L 412.41015 687.186497 
L 413.547638 677.199506 
L 414.685125 678.993847 
L 415.822613 679.108985 
L 416.9601 630.926716 
L 418.097588 694.74419 
L 419.235075 694.459736 
L 420.372563 679.088766 
L 421.51005 691.103331 
L 422.647538 696.699412 
L 423.785025 678.300929 
L 424.922513 701.910161 
L 426.06 693.311179 
L 427.197488 689.600054 
L 428.334975 694.750234 
L 429.472463 696.776678 
L 430.60995 689.914597 
L 431.747438 660.87421 
L 432.884925 652.138392 
L 434.022413 693.567501 
L 435.1599 693.567501 
L 436.297388 678.479246 
L 437.434875 678.479246 
L 438.572363 686.540844 
L 439.70985 673.238668 
L 440.847338 661.52782 
L 441.984825 697.213403 
L 443.122313 704.041482 
L 444.2598 680.429467 
L 445.397288 697.755789 
L 446.534775 699.957549 
L 447.672263 657.009335 
L 448.80975 692.479295 
L 449.947238 675.735362 
L 451.084725 634.492613 
L 452.222213 676.812392 
L 453.3597 671.079433 
L 454.497188 701.736236 
L 455.634675 685.983805 
L 456.772163 682.249592 
L 457.90965 684.436438 
L 459.047138 690.175137 
L 460.184625 666.885188 
L 461.322113 664.392843 
L 462.4596 664.392843 
L 463.597088 676.941053 
L 464.734575 697.929844 
L 465.872063 676.705602 
L 467.00955 679.947521 
L 468.147038 701.131455 
L 469.284525 704.533515 
L 470.422013 678.802747 
L 471.5595 690.462461 
L 472.696988 688.287181 
L 473.834475 694.893461 
L 474.971963 683.648341 
L 476.10945 698.389745 
L 477.246938 703.461746 
L 478.384425 696.458482 
L 479.521913 679.556146 
L 480.6594 688.405755 
L 481.796888 670.095061 
L 482.934375 668.64744 
L 484.071863 673.488599 
L 485.20935 673.488599 
L 486.346838 705.259913 
L 487.484325 703.341564 
L 488.621813 640.116 
L 489.7593 698.958176 
L 490.896788 676.259963 
L 492.034275 693.317049 
L 493.171763 685.822403 
L 494.30925 702.737522 
L 495.446738 643.730205 
L 496.584225 689.06293 
L 497.721713 691.416657 
L 498.8592 680.407509 
L 499.996688 686.470535 
L 501.134175 694.378774 
L 502.271663 694.51487 
L 503.40915 711.427989 
L 504.546638 693.765297 
L 505.684125 700.221828 
L 506.821613 700.335923 
L 507.9591 698.636849 
L 509.096588 702.223791 
L 510.234075 677.367561 
L 511.371563 697.283191 
L 512.50905 700.899266 
L 513.646538 687.980508 
L 514.784025 676.374275 
L 515.921513 701.057668 
L 517.059 686.067115 
L 518.196488 709.848185 
L 519.333975 690.100567 
L 520.471463 702.894055 
L 521.60895 711.616785 
L 522.746438 700.426494 
L 523.883925 701.866463 
L 525.021413 704.515514 
L 526.1589 703.388915 
L 527.296388 686.825037 
L 528.433875 703.617192 
L 529.571363 697.767137 
L 530.70885 685.550384 
L 531.846338 650.612809 
L 532.983825 640.322275 
L 534.121313 676.330403 
L 535.2588 704.638218 
L 536.396288 692.370766 
L 537.533775 707.499285 
L 538.671263 701.077408 
L 539.80875 701.734062 
L 540.946238 701.734062 
L 542.083725 701.561311 
L 543.221213 708.054062 
L 544.3587 699.099272 
L 545.496188 683.902793 
L 546.633675 702.584947 
L 547.771163 690.160788 
L 548.90865 702.541813 
L 550.046138 667.297782 
L 551.183625 683.896358 
L 552.321113 695.805046 
L 553.4586 703.877557 
L 554.596088 698.397007 
L 555.733575 698.397007 
L 556.871063 675.450647 
L 558.00855 689.102063 
L 559.146038 696.336474 
L 560.283525 698.943392 
L 561.421013 709.467855 
L 562.5585 717.130207 
L 563.695988 708.585011 
L 564.833475 686.778469 
L 565.970963 637.332678 
L 567.10845 695.304403 
L 568.245938 687.213368 
L 569.383425 692.001958 
L 570.520913 701.477001 
L 571.6584 693.512366 
L 572.795888 677.581663 
L 573.933375 666.258536 
L 575.070863 695.792175 
L 576.20835 697.773399 
L 577.345838 704.357373 
L 578.483325 687.49417 
L 579.620813 697.513207 
L 580.7583 710.267736 
L 581.895788 713.451041 
L 583.033275 700.647987 
L 584.170763 695.500721 
L 585.30825 695.500721 
L 586.445738 705.689204 
L 587.583225 711.662179 
L 588.720713 706.812194 
L 589.8582 713.570919 
L 590.995688 674.119251 
L 592.133175 689.732889 
L 593.270663 673.710962 
L 594.40815 699.714793 
L 595.545638 700.114038 
L 596.683125 647.841705 
L 597.820613 708.746153 
L 598.9581 711.801319 
L 600.095588 677.75824 
L 601.233075 714.922143 
L 602.370563 710.875082 
L 603.50805 705.553716 
L 604.645538 713.316684 
L 605.783025 693.290916 
L 606.920513 671.087738 
L 608.058 685.517991 
L 609.195488 660.459964 
L 610.332975 694.128322 
L 611.470463 710.249039 
L 612.60795 710.249039 
L 613.745438 702.944232 
L 614.882925 706.424645 
L 616.020413 714.971189 
L 617.1579 710.630152 
L 618.295388 690.59821 
L 619.432875 698.125031 
L 620.570363 657.227959 
L 621.70785 657.227959 
L 622.845338 689.153893 
L 623.982825 712.09547 
L 625.120313 688.361012 
L 626.2578 682.205241 
L 627.395288 712.942528 
L 628.532775 714.97245 
L 629.670263 701.853592 
L 630.80775 684.535749 
L 631.945238 706.487954 
L 633.082725 678.90071 
L 634.220213 704.198927 
L 635.3577 718.442167 
L 636.495188 670.193155 
L 637.632675 686.085682 
L 638.770163 706.770278 
L 639.90765 716.442117 
L 641.045138 716.729702 
L 642.182625 716.341588 
L 643.320113 680.119359 
L 644.4576 721.578339 
L 645.595088 712.378707 
L 646.732575 707.575638 
L 647.870063 684.076196 
L 649.00755 695.219614 
L 650.145038 722.900909 
L 651.282525 715.246948 
L 652.420013 722.22221 
L 653.5575 715.768027 
L 654.694988 715.452875 
L 655.832475 689.654971 
L 656.969963 719.525807 
L 658.10745 698.135945 
L 659.244938 710.70107 
L 660.382425 701.563963 
L 661.519913 711.87115 
L 662.6574 707.372841 
L 663.794888 710.493664 
L 664.932375 723.103314 
L 666.069863 704.895497 
L 667.20735 709.078524 
L 668.344838 678.100046 
L 669.482325 695.585422 
L 670.619813 698.843081 
L 671.7573 706.151192 
L 672.894788 709.041869 
L 674.032275 699.115099 
L 675.169763 706.671184 
L 676.30725 697.384763 
L 677.444738 709.938061 
L 678.582225 710.870255 
L 679.719713 701.913814 
L 680.8572 709.599298 
L 681.994688 709.558165 
L 683.132175 702.912578 
L 684.269663 697.661043 
L 685.40715 716.321935 
L 686.544638 712.34914 
L 687.682125 689.914945 
L 688.819613 707.960708 
L 689.9571 700.769474 
L 691.094588 694.911202 
L 692.232075 706.32316 
L 693.369563 696.203769 
L 694.50705 699.455558 
L 695.644538 714.234095 
L 697.919513 717.333004 
L 699.057 710.171294 
L 700.194488 711.855106 
L 701.331975 719.630945 
L 702.469463 693.673725 
L 703.60695 693.162516 
L 704.744438 701.292032 
L 705.881925 719.942357 
L 707.019413 721.042085 
L 708.1569 720.812461 
L 709.294388 721.475028 
L 710.431875 701.620706 
L 711.569363 705.809864 
L 712.70685 679.538058 
L 713.844338 709.447462 
L 714.981825 698.661764 
L 716.119313 711.675833 
L 717.2568 676.310053 
L 718.394288 699.535737 
L 719.531775 693.304135 
L 720.669263 688.110169 
L 721.80675 556.80049 
L 722.944238 711.750881 
L 724.081725 725.395341 
L 725.219213 711.240281 
L 726.3567 723.042744 
L 728.631675 689.133892 
L 729.769163 703.795682 
L 730.90665 675.838978 
L 732.044138 713.920813 
L 733.181625 689.502656 
L 734.319113 689.154893 
L 735.4566 703.973042 
L 736.594088 698.355873 
L 737.731575 724.166474 
L 738.869063 722.57506 
L 740.00655 718.66453 
L 741.144038 721.056434 
L 742.281525 701.167719 
L 743.419013 694.391514 
L 744.5565 712.18665 
L 745.693988 716.941716 
L 746.831475 694.69997 
L 747.968963 709.27732 
L 749.10645 674.805472 
L 750.243938 692.597086 
L 751.381425 675.199934 
L 752.518913 705.018766 
L 753.6564 703.770506 
L 754.793888 716.075657 
L 755.931375 712.787605 
L 757.068863 679.022196 
L 758.20635 704.369635 
L 759.343838 723.901021 
L 760.481325 724.217999 
L 761.618813 712.141299 
L 762.7563 704.618608 
L 763.893788 704.618608 
L 765.031275 722.704982 
L 766.168763 693.973224 
L 767.30625 705.252087 
L 768.443738 719.818044 
L 769.581225 714.908142 
L 770.718713 711.323939 
L 771.8562 700.225611 
L 772.993688 705.430099 
L 774.131175 691.648195 
L 775.268663 696.882033 
L 776.40615 718.630267 
L 777.543638 711.742968 
L 778.681125 721.03378 
L 779.818613 720.282642 
L 780.9561 707.398886 
L 782.093588 711.584826 
L 783.231075 701.819068 
L 784.368563 715.746721 
L 785.50605 694.926681 
L 786.643538 707.907747 
L 787.781025 701.326078 
L 788.918513 701.326078 
L 790.056 710.624673 
L 791.193488 728.591213 
L 793.468463 707.426453 
L 794.60595 719.899572 
L 795.743438 720.586358 
L 796.880925 723.993897 
L 798.018413 724.72786 
L 799.1559 732.291163 
L 800.293388 710.271171 
L 801.430875 715.465441 
L 802.568363 711.731315 
L 803.70585 719.783477 
L 804.843338 725.171456 
L 805.980825 718.332681 
L 807.118313 696.71263 
L 808.2558 715.103329 
L 809.393288 711.020787 
L 810.530775 726.093258 
L 811.668263 726.093258 
L 812.80575 710.879778 
L 813.943238 728.254537 
L 815.080725 728.254537 
L 816.218213 710.315043 
L 817.3557 729.024329 
L 818.493188 727.251512 
L 819.630675 695.969579 
L 820.768163 708.908947 
L 821.90565 714.530507 
L 823.043138 691.109419 
L 824.180625 677.471003 
L 825.318113 718.225283 
L 826.4556 701.390386 
L 827.593088 715.756113 
L 828.730575 716.199143 
L 829.868063 719.086472 
L 831.00555 723.733879 
L 832.143038 726.258183 
L 833.280525 704.183274 
L 834.418013 725.584658 
L 835.5555 712.634725 
L 836.692988 725.205937 
L 837.830475 712.223957 
L 838.967963 716.149227 
L 840.10545 720.65832 
L 841.242938 697.008563 
L 842.380425 720.934686 
L 843.517913 715.146723 
L 844.6554 715.146723 
L 845.792888 719.318445 
L 846.930375 718.119797 
L 848.067863 730.885675 
L 849.20535 728.298845 
L 850.342838 717.261564 
L 851.480325 728.91967 
L 852.617813 715.254339 
L 853.7553 711.727575 
L 854.892788 701.206982 
L 856.030275 723.716747 
L 857.167763 712.523934 
L 858.30525 693.563848 
L 859.442738 718.551783 
L 860.580225 725.840937 
L 861.717713 701.036492 
L 862.8552 699.828366 
L 863.992688 699.828366 
L 865.130175 694.212719 
L 866.267663 716.349632 
L 867.40515 724.21139 
L 868.542638 716.286715 
L 869.680125 724.9834 
L 870.817613 726.446413 
L 871.9551 723.683615 
L 873.092588 710.76777 
L 874.230075 714.980799 
L 875.367563 715.166942 
L 876.50505 725.315031 
L 877.642538 725.315031 
L 878.780025 717.508886 
L 879.917513 716.967414 
L 881.055 716.683394 
L 882.192488 733.853053 
L 883.329975 723.609262 
L 884.467463 706.774583 
L 885.60495 723.570911 
L 886.742438 721.019344 
L 887.879925 709.125788 
L 889.017413 727.776244 
L 890.1549 702.957668 
L 891.292388 720.457958 
L 893.567363 714.882183 
L 894.70485 717.544758 
L 895.842338 717.544758 
L 896.979825 704.39581 
L 898.117313 727.245859 
L 899.2548 717.632851 
L 900.392288 706.561524 
L 901.529775 725.159542 
L 902.667263 699.724924 
L 903.80475 722.644065 
L 904.942238 722.85534 
L 906.079725 722.85534 
L 907.217213 726.92175 
L 908.3547 726.92175 
L 909.492188 719.024207 
L 910.629675 717.866954 
L 911.767163 726.893053 
L 912.90465 721.518379 
L 914.042138 729.545496 
L 915.179625 714.971103 
L 916.317113 713.627228 
L 917.4546 724.906568 
L 918.592088 728.099135 
L 919.729575 726.95123 
L 920.867063 721.512291 
L 922.00455 719.058775 
L 923.142038 719.058775 
L 924.279525 702.532073 
L 925.417013 714.089346 
L 926.5545 724.385619 
L 927.691988 673.792576 
L 928.829475 688.616334 
L 929.966963 718.680792 
L 931.10445 695.103824 
L 932.241938 694.731363 
L 933.379425 724.71912 
L 934.516913 724.71912 
L 935.6544 717.321003 
L 936.791888 719.829132 
L 937.929375 716.437682 
L 939.066863 719.84822 
L 940.20435 692.47386 
L 941.341838 705.154297 
L 942.479325 719.090777 
L 943.616813 712.448407 
L 944.7543 698.634806 
L 945.891788 724.426405 
L 947.029275 714.654733 
L 948.166763 694.761235 
L 949.30425 702.634994 
L 950.441738 708.575141 
L 951.579225 685.376198 
L 952.716713 695.005556 
L 953.8542 710.383135 
L 954.991688 722.417788 
L 956.129175 719.409103 
L 957.266663 723.282196 
L 958.40415 726.53468 
L 959.541638 718.128015 
L 960.679125 727.363172 
L 961.816613 702.954755 
L 962.9541 713.279943 
L 964.091588 727.855553 
L 965.229075 730.87737 
L 966.366563 695.450674 
L 967.50405 717.446621 
L 968.641538 726.672994 
L 969.779025 713.191676 
L 970.916513 715.092198 
L 972.054 704.984851 
L 973.191488 718.643703 
L 974.328975 721.119003 
L 975.466463 706.123407 
L 976.60395 716.097354 
L 977.741438 696.061716 
L 978.878925 723.152535 
L 980.016413 709.148572 
L 981.1539 724.857521 
L 982.291388 737.220197 
L 984.566363 712.873306 
L 985.70385 712.236306 
L 986.841338 701.637186 
L 987.978825 703.518402 
L 989.116313 731.857872 
L 990.2538 726.020601 
L 991.391288 699.580001 
L 992.528775 699.832757 
L 993.666263 714.251705 
L 994.80375 725.915246 
L 995.941238 725.095929 
L 997.078725 720.277119 
L 998.216213 679.91878 
L 999.3537 727.202335 
L 1000.491188 694.879373 
L 1002.766163 712.225131 
L 1003.90365 690.404675 
L 1005.041138 723.759881 
L 1006.178625 702.974365 
L 1007.316113 721.144962 
L 1008.4536 708.924861 
L 1009.591088 716.216579 
L 1010.728575 714.883444 
L 1011.866063 704.091181 
L 1013.00355 701.339818 
L 1014.141038 724.744644 
L 1015.278525 722.484706 
L 1016.416013 719.03199 
L 1017.5535 706.993598 
L 1018.690988 702.339104 
L 1019.828475 700.979749 
L 1020.965963 732.039928 
L 1022.10345 727.61058 
L 1023.240938 717.95396 
L 1024.378425 731.32227 
L 1025.515913 690.203443 
L 1026.6534 612.957394 
L 1027.790888 708.682235 
L 1028.928375 732.19346 
L 1030.065863 723.151404 
L 1031.20335 723.172797 
L 1032.340838 727.254773 
L 1033.478325 730.078924 
L 1034.615813 697.608605 
L 1035.7533 721.210836 
L 1036.890788 712.877306 
L 1038.028275 679.396526 
L 1039.165763 706.106971 
L 1040.30325 681.713207 
L 1041.440738 709.455115 
L 1042.578225 709.576514 
L 1043.715713 685.509599 
L 1044.8532 728.02687 
L 1045.990688 729.338612 
L 1047.128175 717.149513 
L 1048.265663 732.165371 
L 1049.40315 728.249624 
L 1050.540638 730.002049 
L 1051.678125 726.261531 
L 1052.815613 728.801271 
L 1053.9531 716.633652 
L 1055.090588 726.585423 
L 1056.228075 722.383395 
L 1057.365563 725.5567 
L 1058.50305 733.612732 
L 1059.640538 734.426657 
L 1061.915513 736.837084 
L 1063.053 731.167433 
L 1065.327975 731.274658 
L 1066.465463 731.505804 
L 1067.60295 647.724393 
L 1068.740438 710.088767 
L 1069.877925 729.569367 
L 1071.015413 707.741866 
L 1072.1529 711.238368 
L 1073.290388 715.157289 
L 1074.427875 714.572684 
L 1075.565363 728.566124 
L 1076.70285 691.055198 
L 1077.840338 717.999659 
L 1078.977825 723.785317 
L 1080.115313 731.818913 
L 1081.2528 734.66463 
L 1082.390288 734.66463 
L 1083.527775 706.700186 
L 1084.665263 686.299523 
L 1085.80275 705.780601 
L 1086.940238 718.393425 
L 1088.077725 726.834396 
L 1089.215213 722.901735 
L 1090.3527 725.041969 
L 1091.490188 737.295202 
L 1092.627675 673.376504 
L 1093.765163 722.923301 
L 1094.90265 727.870033 
L 1096.040138 723.689441 
L 1097.177625 716.78714 
L 1098.315113 726.065604 
L 1099.4526 730.278677 
L 1100.590088 709.618735 
L 1101.727575 695.603728 
L 1102.865063 710.263127 
L 1104.00255 728.237319 
L 1105.140038 718.5997 
L 1106.277525 722.484967 
L 1107.415013 706.085057 
L 1108.5525 727.947603 
L 1109.689988 683.997017 
L 1110.827475 721.919189 
L 1111.964963 724.908916 
L 1113.10245 729.940088 
L 1114.239938 708.206724 
L 1115.377425 712.614549 
L 1116.514913 717.918479 
L 1117.6524 706.537001 
L 1118.789888 722.063155 
L 1119.927375 726.590597 
L 1121.064863 732.281162 
L 1122.20235 727.566229 
L 1123.339838 734.341217 
L 1124.477325 725.791846 
L 1125.614813 730.584828 
L 1126.7523 703.003454 
L 1127.889788 706.723231 
L 1129.027275 717.242824 
L 1130.164763 661.962458 
L 1131.30225 731.655206 
L 1132.439738 728.149661 
L 1133.577225 715.285776 
L 1134.714713 729.564584 
L 1135.8522 732.05606 
L 1136.989688 732.05606 
L 1138.127175 725.929943 
L 1139.264663 734.38922 
L 1140.40215 732.433999 
L 1141.539638 721.52264 
L 1142.677125 728.542557 
L 1143.814613 731.480368 
L 1144.9521 724.633723 
L 1146.089588 712.622767 
L 1147.227075 707.27053 
L 1148.364563 718.963029 
L 1149.50205 714.555161 
L 1150.639538 723.620958 
L 1151.777025 699.749969 
L 1152.914513 699.749969 
L 1154.052 726.023732 
L 1155.189488 719.301792 
L 1156.326975 721.401979 
L 1157.464463 707.344361 
L 1158.60195 718.823237 
L 1159.739438 729.116031 
L 1160.876925 727.807028 
L 1162.014413 727.701673 
L 1163.1519 734.279604 
L 1164.289388 698.231865 
L 1165.426875 720.524832 
L 1166.564363 695.340753 
L 1167.70185 649.206973 
L 1168.839338 729.016546 
L 1169.976825 683.245704 
L 1171.114313 710.957261 
L 1172.2518 734.772072 
L 1173.389288 709.476333 
L 1174.526775 730.224064 
L 1175.664263 693.585154 
L 1176.80175 666.433766 
L 1177.939238 740.174705 
L 1179.076725 726.483937 
L 1180.214213 719.64138 
L 1182.489188 734.721112 
L 1183.626675 733.572642 
L 1184.764163 672.895906 
L 1185.90165 672.895906 
L 1187.039138 731.380491 
L 1188.176625 730.395119 
L 1189.314113 730.395119 
L 1190.4516 715.617321 
L 1191.589088 725.528393 
L 1192.726575 725.907941 
L 1193.864063 711.179146 
L 1195.00155 726.327927 
L 1196.139038 731.479194 
L 1197.276525 732.315382 
L 1198.414013 688.004553 
L 1199.5515 710.490577 
L 1200.688988 725.32938 
L 1201.826475 733.199399 
L 1202.963963 733.782135 
L 1204.10145 735.754749 
L 1205.238938 723.677397 
L 1207.513913 707.038079 
L 1208.6514 665.249989 
L 1209.788888 726.487199 
L 1210.926375 729.918347 
L 1212.063863 730.922721 
L 1213.20135 722.041241 
L 1214.338838 729.189819 
L 1215.476325 728.186054 
L 1216.613813 728.186054 
L 1217.7513 720.370648 
L 1218.888788 706.381816 
L 1220.026275 736.73512 
L 1221.163763 725.422038 
L 1222.30125 726.376147 
L 1223.438738 717.095509 
L 1224.576225 736.043116 
L 1225.713713 734.181945 
L 1226.8512 737.945812 
L 1227.988688 734.712286 
L 1229.126175 737.114581 
L 1230.263663 740.813575 
L 1231.40115 731.294007 
L 1232.538638 727.405523 
L 1233.676125 714.465503 
L 1234.813613 717.909435 
L 1235.9511 731.098603 
L 1237.088588 733.981235 
L 1238.226075 732.246768 
L 1239.363563 736.23039 
L 1240.50105 733.64269 
L 1241.638538 733.211313 
L 1242.776025 681.996662 
L 1243.913513 741.416094 
L 1245.051 741.416094 
L 1246.188488 727.15994 
L 1247.325975 727.15994 
L 1248.463463 724.062597 
L 1249.60095 732.843549 
L 1250.738438 713.213503 
L 1251.875925 712.334182 
L 1253.013413 703.722329 
L 1254.1509 737.852067 
L 1255.288388 717.519104 
L 1256.425875 724.02342 
L 1257.563363 693.972311 
L 1258.70085 731.444278 
L 1259.838338 733.355932 
L 1260.975825 717.670549 
L 1262.113313 709.242143 
L 1263.2508 713.419605 
L 1264.388288 694.062796 
L 1265.525775 718.726882 
L 1266.663263 690.838835 
L 1267.80075 729.449576 
L 1268.938238 731.278267 
L 1270.075725 722.1389 
L 1271.213213 718.823411 
L 1272.3507 713.050014 
L 1273.488188 730.598786 
L 1274.625675 725.199675 
L 1275.763163 728.823272 
L 1276.90065 728.823272 
L 1278.038138 705.963657 
L 1279.175625 730.093273 
L 1280.313113 710.960827 
L 1281.4506 740.503727 
L 1282.588088 729.586977 
L 1283.725575 732.575965 
L 1284.863063 734.655021 
L 1286.00055 720.730107 
L 1287.138038 714.735695 
L 1288.275525 732.02984 
L 1289.413013 739.725022 
L 1290.5505 723.104618 
L 1291.687988 734.98113 
L 1292.825475 732.205113 
L 1293.962963 719.882005 
L 1295.10045 710.43866 
L 1296.237938 703.725938 
L 1298.512913 725.202632 
L 1299.6504 729.849343 
L 1300.787888 727.085022 
L 1301.925375 727.7105 
L 1303.062863 685.310759 
L 1304.20035 685.310759 
L 1305.337838 722.206687 
L 1306.475325 739.300645 
L 1307.612813 721.480767 
L 1308.7503 701.758977 
L 1309.887788 744.070494 
L 1311.025275 732.324556 
L 1312.162763 730.172148 
L 1313.30025 736.104425 
L 1314.437738 724.375227 
L 1315.575225 744.33973 
L 1316.712713 739.173071 
L 1317.8502 715.981476 
L 1318.987688 707.816654 
L 1320.125175 733.903404 
L 1321.262663 730.075228 
L 1322.40015 731.875439 
L 1323.537638 729.308219 
L 1324.675125 742.789884 
L 1325.812613 731.882961 
L 1326.9501 738.864136 
L 1328.087588 742.582218 
L 1329.225075 742.582218 
L 1330.362563 734.024021 
L 1331.50005 731.978185 
L 1332.637538 738.168306 
L 1333.775025 741.8773 
L 1334.912513 728.5286 
L 1336.05 725.463519 
L 1336.05 725.463519 
" style="fill:none;stroke:#0000ff;stroke-linecap:square;stroke-width:2.0;"/>
   </g>
   <g id="line2d_2">
    <path clip-path="url(#p3f197272cf)" d="M 199.699988 88.398203 
L 200.837475 474.800983 
L 201.974963 476.053895 
L 203.11245 481.562448 
L 204.249938 561.608429 
L 205.387425 579.099979 
L 206.524913 528.294791 
L 207.6624 583.523762 
L 208.799888 595.088296 
L 209.937375 594.652614 
L 211.074863 594.764839 
L 212.21235 610.757895 
L 213.349838 610.757895 
L 214.487325 581.200515 
L 215.624813 590.187089 
L 216.7623 612.268781 
L 217.899788 585.063172 
L 219.037275 614.646814 
L 220.174763 626.587766 
L 221.31225 602.790391 
L 222.449738 645.832437 
L 223.587225 629.630323 
L 224.724713 629.180031 
L 225.8622 612.509407 
L 226.999688 614.248091 
L 228.137175 639.855895 
L 229.274663 627.656622 
L 230.41215 649.816841 
L 231.549638 630.984633 
L 232.687125 637.427946 
L 233.824613 632.332248 
L 234.9621 637.204104 
L 236.099588 651.857285 
L 237.237075 647.994324 
L 238.374563 614.660294 
L 239.51205 637.057268 
L 240.649538 646.820722 
L 241.787025 646.820722 
L 242.924513 643.029331 
L 244.062 649.299588 
L 245.199488 654.148443 
L 246.336975 652.471545 
L 247.474463 649.892107 
L 248.61195 670.479348 
L 249.749438 645.077254 
L 250.886925 669.476845 
L 252.024413 670.304815 
L 253.1619 652.698909 
L 254.299388 650.801561 
L 255.436875 644.783843 
L 256.574363 601.988727 
L 257.71185 662.849606 
L 258.849338 653.401479 
L 259.986825 665.91873 
L 261.124313 608.433039 
L 262.2618 676.736518 
L 263.399288 662.709901 
L 264.536775 684.118286 
L 265.674263 676.387928 
L 266.81175 645.694775 
L 267.949238 661.869713 
L 269.086725 656.902937 
L 270.224213 623.951671 
L 271.3617 668.318895 
L 272.499188 662.977224 
L 273.636675 616.304233 
L 274.774163 658.135239 
L 275.91165 673.39894 
L 277.049138 662.628765 
L 278.186625 672.025498 
L 279.324113 672.025498 
L 280.4616 649.742531 
L 281.599088 667.398963 
L 282.736575 636.803685 
L 283.874063 666.384893 
L 285.01155 680.89563 
L 286.149038 679.338218 
L 287.286525 651.715189 
L 288.424013 650.008289 
L 289.5615 682.739452 
L 290.698988 642.131791 
L 291.836475 661.903498 
L 292.973963 665.524268 
L 294.11145 665.524268 
L 295.248938 637.730662 
L 296.386425 667.155381 
L 297.523913 676.172218 
L 298.6614 674.536236 
L 299.798888 669.367141 
L 300.936375 682.805587 
L 302.073863 679.405136 
L 303.21135 676.359057 
L 304.348838 672.832032 
L 305.486325 646.725411 
L 306.623813 653.563446 
L 307.7613 669.387795 
L 308.898788 619.835867 
L 311.173763 680.374376 
L 312.31125 687.661008 
L 313.448738 677.044104 
L 314.586225 641.437178 
L 315.723713 672.270732 
L 316.8612 682.595399 
L 317.998688 688.533198 
L 319.136175 686.927609 
L 320.273663 658.720192 
L 321.41115 671.619992 
L 322.548638 686.463882 
L 323.686125 695.69056 
L 324.823613 684.740416 
L 325.9611 686.769164 
L 327.098588 678.874186 
L 328.236075 682.891462 
L 329.373563 666.684653 
L 330.51105 677.053105 
L 331.648538 584.893073 
L 332.786025 584.893073 
L 333.923513 683.241269 
L 335.061 686.264346 
L 336.198488 678.063696 
L 337.335975 686.783382 
L 338.473463 572.946774 
L 339.61095 662.501669 
L 341.885925 679.604236 
L 343.023413 683.846311 
L 344.1609 665.632145 
L 345.298388 683.727172 
L 346.435875 688.380492 
L 347.573363 663.648922 
L 348.71085 678.031085 
L 349.848338 594.172363 
L 350.985825 690.343018 
L 352.123313 668.134839 
L 353.2608 690.3895 
L 354.398288 673.750356 
L 355.535775 673.096876 
L 356.673263 669.723166 
L 357.81075 680.844365 
L 358.948238 628.839355 
L 360.085725 669.767299 
L 361.223213 625.196583 
L 362.3607 679.002543 
L 363.498188 682.129106 
L 364.635675 676.167478 
L 365.773163 683.740477 
L 366.91065 675.682184 
L 368.048138 675.682184 
L 369.185625 690.665127 
L 370.323113 673.043742 
L 371.4606 676.551287 
L 372.598088 681.065076 
L 373.735575 680.568129 
L 374.873063 686.556062 
L 376.01055 670.988209 
L 377.148038 661.100182 
L 379.423013 696.862814 
L 380.5605 661.878627 
L 381.697988 672.240817 
L 382.835475 675.718491 
L 383.972963 681.480452 
L 385.11045 668.518083 
L 386.247938 641.8249 
L 387.385425 690.220792 
L 388.522913 693.332963 
L 389.6604 693.332963 
L 390.797888 682.517958 
L 391.935375 701.82959 
L 393.072863 688.319705 
L 394.21035 664.76152 
L 395.347838 638.667118 
L 396.485325 689.191896 
L 397.622813 659.931058 
L 398.7603 684.616538 
L 399.897788 697.088612 
L 401.035275 672.919559 
L 402.172763 655.525146 
L 403.31025 681.585155 
L 404.447738 679.991263 
L 405.585225 674.660549 
L 406.722713 672.402437 
L 407.8602 672.402437 
L 408.997688 696.632233 
L 410.135175 690.486028 
L 411.272663 690.277927 
L 412.41015 699.658137 
L 413.547638 663.398992 
L 414.685125 645.452063 
L 415.822613 698.442227 
L 416.9601 692.45725 
L 418.097588 688.197349 
L 419.235075 687.581785 
L 420.372563 688.457715 
L 421.51005 687.309114 
L 422.647538 690.099088 
L 423.785025 635.42159 
L 426.06 700.151301 
L 427.197488 686.637068 
L 428.334975 687.14819 
L 429.472463 688.708036 
L 430.60995 681.216217 
L 431.747438 685.641738 
L 432.884925 701.768499 
L 434.022413 701.768499 
L 435.1599 672.708328 
L 436.297388 699.925286 
L 437.434875 676.852699 
L 438.572363 679.488576 
L 439.70985 698.909085 
L 440.847338 693.37627 
L 441.984825 661.149229 
L 443.122313 695.123825 
L 444.2598 687.355726 
L 445.397288 686.328612 
L 446.534775 688.944531 
L 447.672263 705.824648 
L 448.80975 689.085366 
L 449.947238 683.770871 
L 451.084725 696.774721 
L 452.222213 689.816025 
L 453.3597 691.951259 
L 454.497188 691.951259 
L 455.634675 681.925613 
L 456.772163 688.716819 
L 457.90965 688.410494 
L 459.047138 702.893664 
L 460.184625 697.102309 
L 461.322113 685.932541 
L 462.4596 676.942967 
L 463.597088 701.636968 
L 464.734575 686.952176 
L 465.872063 686.952176 
L 467.00955 691.320868 
L 468.147038 694.373208 
L 469.284525 664.673427 
L 470.422013 676.543548 
L 471.5595 663.306203 
L 472.696988 685.829186 
L 473.834475 674.497016 
L 474.971963 698.996265 
L 477.246938 681.79817 
L 478.384425 683.471763 
L 479.521913 667.124726 
L 480.6594 660.265472 
L 481.796888 683.33671 
L 482.934375 685.72931 
L 484.071863 682.527872 
L 485.20935 684.564751 
L 486.346838 684.564751 
L 487.484325 689.178155 
L 488.621813 706.208935 
L 489.7593 692.547257 
L 490.896788 680.386203 
L 492.034275 689.33047 
L 493.171763 693.899176 
L 494.30925 693.359443 
L 495.446738 683.730129 
L 496.584225 664.431802 
L 497.721713 695.609424 
L 498.8592 670.914552 
L 499.996688 691.584321 
L 501.134175 685.820359 
L 502.271663 706.307724 
L 503.40915 706.602832 
L 504.546638 696.661366 
L 505.684125 678.310495 
L 506.821613 694.669403 
L 507.9591 681.485192 
L 509.096588 693.599285 
L 510.234075 680.670875 
L 511.371563 704.459206 
L 512.50905 701.718104 
L 513.646538 694.798411 
L 514.784025 692.485339 
L 515.921513 675.094709 
L 517.059 714.084302 
L 518.196488 688.225742 
L 519.333975 704.367547 
L 520.471463 711.20854 
L 521.60895 683.013123 
L 522.746438 710.337523 
L 523.883925 706.830152 
L 525.021413 685.519687 
L 526.1589 674.172211 
L 527.296388 695.24092 
L 528.433875 685.000781 
L 529.571363 711.301589 
L 530.70885 649.889324 
L 531.846338 649.157448 
L 532.983825 701.840852 
L 534.121313 692.598217 
L 535.2588 640.523419 
L 536.396288 634.923817 
L 537.533775 668.178234 
L 538.671263 671.278055 
L 539.80875 679.048024 
L 540.946238 710.370351 
L 542.083725 695.823395 
L 543.221213 689.680668 
L 545.496188 717.562585 
L 546.633675 702.680692 
L 547.771163 683.264749 
L 548.90865 689.519918 
L 550.046138 707.433106 
L 551.183625 679.573104 
L 552.321113 707.96436 
L 553.4586 699.379031 
L 554.596088 707.585334 
L 555.733575 659.345713 
L 556.871063 632.353292 
L 558.00855 673.823013 
L 559.146038 704.188709 
L 560.283525 641.803116 
L 561.421013 682.307901 
L 562.5585 683.114608 
L 563.695988 690.435416 
L 564.833475 669.457582 
L 565.970963 681.572111 
L 567.10845 695.691255 
L 568.245938 684.598797 
L 569.383425 647.894013 
L 570.520913 692.514385 
L 571.6584 694.468606 
L 572.795888 691.984131 
L 573.933375 716.660871 
L 575.070863 711.371116 
L 576.20835 683.702736 
L 577.345838 709.945061 
L 578.483325 707.271704 
L 579.620813 706.027575 
L 580.7583 689.57253 
L 581.895788 686.897651 
L 583.033275 693.598981 
L 584.170763 706.952769 
L 585.30825 698.550148 
L 586.445738 706.30442 
L 587.583225 704.121531 
L 588.720713 710.606498 
L 589.8582 710.606498 
L 590.995688 688.651119 
L 592.133175 674.450708 
L 593.270663 706.502433 
L 594.40815 688.432017 
L 595.545638 686.016155 
L 597.820613 708.088499 
L 598.9581 712.394186 
L 600.095588 702.65056 
L 601.233075 715.301212 
L 602.370563 720.337558 
L 603.50805 708.00858 
L 604.645538 715.66602 
L 605.783025 702.697911 
L 606.920513 717.600457 
L 608.058 699.768536 
L 609.195488 670.465434 
L 610.332975 718.17241 
L 611.470463 712.961877 
L 612.60795 684.60258 
L 613.745438 702.811875 
L 616.020413 718.622093 
L 617.1579 718.594743 
L 618.295388 697.097135 
L 619.432875 697.463725 
L 620.570363 696.539748 
L 621.70785 716.416332 
L 622.845338 702.149699 
L 623.982825 679.918823 
L 625.120313 702.420457 
L 626.2578 701.764499 
L 627.395288 711.753751 
L 628.532775 695.776392 
L 629.670263 710.426268 
L 630.80775 695.352971 
L 631.945238 714.631601 
L 633.082725 677.84729 
L 634.220213 712.147082 
L 635.3577 695.555768 
L 636.495188 706.240894 
L 637.632675 667.47175 
L 638.770163 688.653815 
L 639.90765 713.144803 
L 641.045138 713.133715 
L 642.182625 712.81265 
L 643.320113 703.025368 
L 644.4576 706.037141 
L 645.595088 706.840326 
L 646.732575 620.869242 
L 647.870063 699.79232 
L 649.00755 689.407867 
L 650.145038 693.745339 
L 651.282525 697.432288 
L 652.420013 697.432288 
L 653.5575 694.677925 
L 654.694988 698.638806 
L 655.832475 705.706422 
L 656.969963 702.762959 
L 658.10745 699.489082 
L 659.244938 702.744392 
L 660.382425 699.15258 
L 661.519913 705.275914 
L 662.6574 705.498364 
L 663.794888 709.977281 
L 664.932375 708.118588 
L 666.069863 712.933702 
L 667.20735 698.249257 
L 668.344838 698.249257 
L 669.482325 696.512573 
L 670.619813 716.297933 
L 671.7573 686.187254 
L 672.894788 712.033988 
L 674.032275 697.975108 
L 675.169763 697.277017 
L 676.30725 713.071233 
L 677.444738 716.805098 
L 678.582225 707.979361 
L 679.719713 722.653196 
L 680.8572 716.73692 
L 681.994688 714.58051 
L 683.132175 713.997383 
L 684.269663 706.41421 
L 685.40715 714.603425 
L 686.544638 711.692573 
L 687.682125 707.358275 
L 688.819613 711.708052 
L 689.9571 708.73563 
L 691.094588 714.900402 
L 692.232075 697.898668 
L 693.369563 713.432388 
L 694.50705 711.708791 
L 695.644538 700.399405 
L 696.782025 669.286832 
L 697.919513 682.543091 
L 699.057 647.699347 
L 700.194488 689.456479 
L 701.331975 679.42705 
L 702.469463 705.419402 
L 703.60695 715.382261 
L 704.744438 715.725589 
L 705.881925 676.492544 
L 707.019413 702.980235 
L 708.1569 714.076128 
L 709.294388 714.076128 
L 710.431875 707.506937 
L 711.569363 705.108729 
L 712.70685 688.24283 
L 713.844338 713.860548 
L 714.981825 688.74843 
L 716.119313 678.84875 
L 717.2568 715.416046 
L 718.394288 711.110794 
L 719.531775 726.917054 
L 720.669263 726.917054 
L 721.80675 680.64996 
L 722.944238 701.024492 
L 724.081725 706.441038 
L 725.219213 701.892682 
L 726.3567 719.669426 
L 727.494188 708.154069 
L 728.631675 667.968263 
L 729.769163 713.476174 
L 730.90665 712.708947 
L 732.044138 643.269086 
L 733.181625 700.252525 
L 734.319113 713.291944 
L 735.4566 693.368009 
L 736.594088 708.647537 
L 737.731575 702.57812 
L 738.869063 710.639848 
L 740.00655 695.199222 
L 741.144038 717.727683 
L 742.281525 713.346121 
L 743.419013 680.604218 
L 744.5565 680.604218 
L 745.693988 701.955121 
L 746.831475 716.915714 
L 747.968963 708.857247 
L 749.10645 701.88129 
L 750.243938 716.961326 
L 751.381425 712.310354 
L 752.518913 696.172636 
L 753.6564 683.610642 
L 754.793888 717.149948 
L 755.931375 706.201761 
L 757.068863 689.546529 
L 758.20635 715.385653 
L 759.343838 679.91004 
L 760.481325 690.474114 
L 761.618813 708.810201 
L 762.7563 711.53878 
L 763.893788 718.161322 
L 765.031275 720.805504 
L 766.168763 716.143835 
L 767.30625 695.609511 
L 768.443738 716.732571 
L 769.581225 716.508947 
L 770.718713 715.443048 
L 771.8562 695.864833 
L 772.993688 717.883346 
L 774.131175 712.485888 
L 775.268663 726.071779 
L 776.40615 726.071779 
L 777.543638 691.240993 
L 778.681125 717.279044 
L 779.818613 725.595746 
L 780.9561 726.462284 
L 782.093588 671.797048 
L 783.231075 719.697514 
L 784.368563 682.446388 
L 785.50605 711.774883 
L 786.643538 677.321123 
L 787.781025 716.171142 
L 788.918513 702.447285 
L 790.056 717.04655 
L 791.193488 703.44231 
L 792.330975 702.598121 
L 793.468463 691.94752 
L 794.60595 689.424999 
L 795.743438 727.10698 
L 796.880925 705.00533 
L 798.018413 693.001288 
L 799.1559 719.693905 
L 800.293388 687.435123 
L 801.430875 706.068708 
L 802.568363 718.127189 
L 803.70585 719.594812 
L 804.843338 713.200155 
L 805.980825 722.304868 
L 807.118313 705.40201 
L 808.2558 719.210959 
L 809.393288 702.772699 
L 810.530775 682.481739 
L 811.668263 714.953145 
L 812.80575 719.898267 
L 813.943238 678.841271 
L 815.080725 706.533088 
L 816.218213 719.693905 
L 817.3557 719.820175 
L 818.493188 726.669037 
L 819.630675 704.183144 
L 820.768163 703.427526 
L 821.90565 710.949652 
L 824.180625 729.591542 
L 825.318113 701.453652 
L 826.4556 706.738145 
L 827.593088 717.931915 
L 829.868063 683.01034 
L 831.00555 695.697038 
L 832.143038 718.004398 
L 833.280525 720.577966 
L 834.418013 707.827524 
L 835.5555 709.288973 
L 836.692988 703.238165 
L 837.830475 700.517805 
L 838.967963 668.280154 
L 840.10545 717.727335 
L 841.242938 716.562342 
L 842.380425 714.474199 
L 843.517913 680.828581 
L 844.6554 701.973861 
L 845.792888 707.291096 
L 846.930375 724.402577 
L 848.067863 715.352172 
L 849.20535 711.377073 
L 850.342838 708.270338 
L 851.480325 721.192574 
L 852.617813 711.381334 
L 853.7553 721.594297 
L 854.892788 669.04638 
L 856.030275 718.160061 
L 857.167763 724.463581 
L 858.30525 712.980922 
L 859.442738 717.47197 
L 860.580225 727.141374 
L 861.717713 723.776534 
L 862.8552 723.776534 
L 863.992688 721.102394 
L 865.130175 728.002564 
L 866.267663 674.842474 
L 867.40515 697.381502 
L 868.542638 711.118707 
L 869.680125 713.401647 
L 870.817613 721.793398 
L 871.9551 691.527578 
L 873.092588 718.827802 
L 874.230075 718.495214 
L 875.367563 719.152086 
L 876.50505 722.676067 
L 877.642538 725.569657 
L 878.780025 717.357658 
L 879.917513 710.812121 
L 881.055 699.107316 
L 882.192488 693.871609 
L 883.329975 702.268751 
L 884.467463 688.810608 
L 886.742438 720.00497 
L 887.879925 724.221912 
L 889.017413 706.127495 
L 891.292388 727.347475 
L 892.429875 714.271881 
L 893.567363 705.179038 
L 894.70485 705.179038 
L 895.842338 719.307444 
L 896.979825 718.595395 
L 898.117313 667.281215 
L 899.2548 711.439903 
L 900.392288 712.850044 
L 901.529775 701.516047 
L 902.667263 711.305285 
L 903.80475 693.977268 
L 904.942238 696.373041 
L 906.079725 712.54037 
L 907.217213 704.405246 
L 908.3547 698.979003 
L 909.492188 694.272767 
L 910.629675 706.446169 
L 911.767163 704.34859 
L 912.90465 715.407219 
L 914.042138 687.466342 
L 915.179625 696.621058 
L 916.317113 696.621058 
L 917.4546 717.510625 
L 918.592088 724.550544 
L 919.729575 706.363467 
L 920.867063 727.340431 
L 922.00455 708.569532 
L 923.142038 705.998399 
L 924.279525 701.891725 
L 925.417013 700.580244 
L 926.5545 718.465386 
L 927.691988 709.906711 
L 928.829475 711.795623 
L 929.966963 706.312246 
L 931.10445 708.145894 
L 932.241938 667.133075 
L 933.379425 725.463172 
L 934.516913 726.340362 
L 935.6544 710.741812 
L 936.791888 719.46789 
L 937.929375 710.439791 
L 939.066863 708.042496 
L 940.20435 727.183681 
L 941.341838 719.435366 
L 942.479325 730.473081 
L 943.616813 700.00103 
L 944.7543 720.645536 
L 945.891788 720.875378 
L 947.029275 716.928628 
L 948.166763 668.408119 
L 949.30425 722.768508 
L 950.441738 707.592074 
L 951.579225 723.074486 
L 952.716713 704.958806 
L 953.8542 714.058431 
L 954.991688 721.150788 
L 956.129175 706.824282 
L 957.266663 708.956385 
L 958.40415 731.757909 
L 959.541638 708.275294 
L 960.679125 690.016257 
L 961.816613 653.895513 
L 962.9541 717.907739 
L 964.091588 676.944401 
L 965.229075 711.360637 
L 966.366563 721.548729 
L 967.50405 727.631842 
L 968.641538 707.13239 
L 969.779025 720.007057 
L 970.916513 701.86468 
L 972.054 679.112594 
L 973.191488 719.286138 
L 974.328975 700.478063 
L 975.466463 696.124633 
L 976.60395 727.84664 
L 977.741438 701.23268 
L 978.878925 713.568658 
L 980.016413 719.088081 
L 981.1539 714.641906 
L 982.291388 717.765555 
L 983.428875 717.293349 
L 984.566363 729.351526 
L 985.70385 724.746601 
L 986.841338 722.302998 
L 987.978825 707.40593 
L 990.2538 717.208561 
L 991.391288 727.256556 
L 992.528775 723.64209 
L 993.666263 713.340121 
L 994.80375 729.495492 
L 995.941238 716.629521 
L 997.078725 719.363187 
L 998.216213 727.079718 
L 999.3537 720.651754 
L 1000.491188 719.172348 
L 1001.628675 713.467695 
L 1002.766163 685.591561 
L 1005.041138 726.212658 
L 1006.178625 730.637223 
L 1007.316113 710.469141 
L 1008.4536 717.60711 
L 1009.591088 682.187544 
L 1010.728575 715.853033 
L 1011.866063 727.444177 
L 1013.00355 733.647473 
L 1014.141038 711.600784 
L 1015.278525 725.290116 
L 1016.416013 708.069411 
L 1017.5535 714.322449 
L 1018.690988 715.622756 
L 1019.828475 713.223852 
L 1020.965963 712.42771 
L 1022.10345 725.287725 
L 1023.240938 734.840425 
L 1024.378425 722.675328 
L 1025.515913 720.085628 
L 1026.6534 692.823928 
L 1027.790888 732.435694 
L 1028.928375 723.979939 
L 1030.065863 726.312534 
L 1031.20335 723.588086 
L 1032.340838 708.677931 
L 1033.478325 722.280562 
L 1034.615813 722.280562 
L 1035.7533 716.2698 
L 1036.890788 716.2698 
L 1038.028275 713.416909 
L 1039.165763 706.346249 
L 1040.30325 703.424352 
L 1041.440738 722.838122 
L 1042.578225 727.044367 
L 1043.715713 732.477958 
L 1044.8532 729.692115 
L 1045.990688 729.619544 
L 1047.128175 705.920393 
L 1048.265663 729.565932 
L 1049.40315 711.598566 
L 1050.540638 709.72035 
L 1052.815613 718.986335 
L 1053.9531 719.687688 
L 1055.090588 731.872177 
L 1056.228075 726.102259 
L 1057.365563 729.153121 
L 1058.50305 724.503149 
L 1060.778025 733.192964 
L 1061.915513 717.703899 
L 1063.053 665.152156 
L 1064.190488 725.569483 
L 1065.327975 722.65937 
L 1066.465463 732.586227 
L 1067.60295 719.115213 
L 1068.740438 727.439525 
L 1069.877925 695.075996 
L 1071.015413 733.698868 
L 1072.1529 733.698868 
L 1073.290388 727.906166 
L 1074.427875 679.6495 
L 1075.565363 733.828312 
L 1076.70285 734.771681 
L 1077.840338 713.298335 
L 1078.977825 719.453932 
L 1080.115313 711.309851 
L 1081.2528 689.953731 
L 1082.390288 693.850085 
L 1083.527775 707.685341 
L 1084.665263 734.236123 
L 1085.80275 725.947857 
L 1086.940238 725.947857 
L 1088.077725 706.130712 
L 1089.215213 708.182505 
L 1090.3527 687.77045 
L 1091.490188 726.488155 
L 1092.627675 709.81427 
L 1093.765163 728.729048 
L 1094.90265 715.312691 
L 1096.040138 731.169999 
L 1097.177625 669.021335 
L 1098.315113 724.837824 
L 1099.4526 723.121011 
L 1100.590088 711.041006 
L 1101.727575 717.177515 
L 1102.865063 719.140607 
L 1104.00255 722.571016 
L 1105.140038 733.75609 
L 1106.277525 697.119571 
L 1107.415013 732.629403 
L 1108.5525 701.642621 
L 1109.689988 728.300671 
L 1110.827475 731.829566 
L 1111.964963 740.08309 
L 1113.10245 737.114929 
L 1114.239938 739.297123 
L 1115.377425 719.89305 
L 1116.514913 679.618107 
L 1117.6524 724.356835 
L 1118.789888 733.261447 
L 1119.927375 716.828361 
L 1121.064863 728.068829 
L 1122.20235 724.451189 
L 1123.339838 728.388981 
L 1124.477325 716.662219 
L 1125.614813 713.175762 
L 1126.7523 713.026099 
L 1127.889788 714.906533 
L 1129.027275 700.766343 
L 1130.164763 732.336905 
L 1131.30225 719.023598 
L 1132.439738 730.667964 
L 1133.577225 734.425701 
L 1134.714713 721.261057 
L 1135.8522 735.014915 
L 1136.989688 726.769957 
L 1138.127175 721.787267 
L 1139.264663 732.066408 
L 1140.40215 722.705547 
L 1141.539638 723.319589 
L 1142.677125 734.02163 
L 1143.814613 734.02163 
L 1144.9521 725.645836 
L 1146.089588 678.028476 
L 1147.227075 722.178207 
L 1148.364563 733.28871 
L 1149.50205 730.407077 
L 1150.639538 699.360595 
L 1151.777025 723.954024 
L 1152.914513 735.2428 
L 1154.052 730.569305 
L 1155.189488 731.805738 
L 1156.326975 731.805738 
L 1157.464463 724.533629 
L 1158.60195 686.504233 
L 1159.739438 728.884668 
L 1160.876925 732.58527 
L 1162.014413 731.180739 
L 1163.1519 719.278094 
L 1164.289388 735.683613 
L 1165.426875 738.652991 
L 1166.564363 724.872131 
L 1167.70185 727.829856 
L 1168.839338 731.368273 
L 1169.976825 694.706449 
L 1171.114313 731.481977 
L 1172.2518 740.052218 
L 1173.389288 730.829541 
L 1174.526775 730.829541 
L 1175.664263 720.159198 
L 1176.80175 724.966137 
L 1177.939238 730.995335 
L 1179.076725 728.990371 
L 1180.214213 717.496494 
L 1181.3517 718.634746 
L 1182.489188 715.520184 
L 1183.626675 716.465901 
L 1184.764163 710.661632 
L 1185.90165 709.198401 
L 1187.039138 716.101615 
L 1188.176625 688.537068 
L 1189.314113 719.944531 
L 1190.4516 717.097379 
L 1191.589088 730.898545 
L 1192.726575 735.299196 
L 1193.864063 727.716109 
L 1195.00155 725.117322 
L 1196.139038 734.427223 
L 1197.276525 734.427223 
L 1198.414013 695.668341 
L 1199.5515 733.263012 
L 1200.688988 715.783202 
L 1201.826475 703.171857 
L 1202.963963 706.581569 
L 1204.10145 731.329227 
L 1205.238938 726.432108 
L 1206.376425 738.224136 
L 1207.513913 740.313627 
L 1208.6514 728.716874 
L 1209.788888 730.399772 
L 1210.926375 722.003716 
L 1212.063863 737.470388 
L 1213.20135 735.593564 
L 1214.338838 739.622754 
L 1215.476325 722.34187 
L 1216.613813 730.672921 
L 1217.7513 707.987796 
L 1218.888788 723.125881 
L 1220.026275 740.34476 
L 1221.163763 733.710347 
L 1222.30125 738.960273 
L 1223.438738 636.814382 
L 1224.576225 710.666285 
L 1225.713713 738.195003 
L 1226.8512 735.360678 
L 1227.988688 736.338963 
L 1229.126175 736.954918 
L 1230.263663 722.257647 
L 1231.40115 734.709155 
L 1232.538638 734.866209 
L 1233.676125 737.864633 
L 1234.813613 732.449782 
L 1235.9511 730.244761 
L 1237.088588 722.361393 
L 1238.226075 734.700763 
L 1239.363563 718.859413 
L 1240.50105 719.215873 
L 1241.638538 726.670385 
L 1242.776025 726.933968 
L 1243.913513 730.525954 
L 1245.051 742.359464 
L 1248.463463 727.765243 
L 1249.60095 713.442389 
L 1250.738438 736.973876 
L 1251.875925 741.035416 
L 1253.013413 735.847755 
L 1254.1509 707.863614 
L 1255.288388 729.656503 
L 1256.425875 724.39575 
L 1257.563363 724.39575 
L 1258.70085 739.628972 
L 1259.838338 735.84619 
L 1260.975825 705.237216 
L 1262.113313 700.024858 
L 1263.2508 726.931664 
L 1264.388288 735.631392 
L 1265.525775 720.843376 
L 1266.663263 731.297051 
L 1267.80075 730.030703 
L 1268.938238 737.15628 
L 1270.075725 739.792374 
L 1271.213213 725.040751 
L 1272.3507 736.539846 
L 1273.488188 726.204396 
L 1274.625675 721.482289 
L 1275.763163 725.712537 
L 1276.90065 724.364313 
L 1278.038138 733.983931 
L 1279.175625 735.223756 
L 1280.313113 719.55807 
L 1281.4506 728.797879 
L 1282.588088 718.943071 
L 1283.725575 738.55055 
L 1284.863063 736.219607 
L 1286.00055 734.667761 
L 1287.138038 722.591452 
L 1288.275525 733.070782 
L 1289.413013 735.789621 
L 1290.5505 726.901184 
L 1291.687988 731.159868 
L 1292.825475 738.690168 
L 1293.962963 737.950552 
L 1295.10045 741.730942 
L 1296.237938 740.92093 
L 1297.375425 741.10803 
L 1298.512913 736.529454 
L 1299.6504 736.822344 
L 1300.787888 738.860614 
L 1301.925375 705.146123 
L 1303.062863 704.08018 
L 1304.20035 721.078914 
L 1305.337838 733.962191 
L 1306.475325 723.76762 
L 1307.612813 738.136521 
L 1308.7503 730.441644 
L 1309.887788 710.028806 
L 1311.025275 746.853599 
L 1312.162763 746.853599 
L 1313.30025 744.969687 
L 1314.437738 736.885739 
L 1315.575225 736.16269 
L 1316.712713 720.512701 
L 1317.8502 741.615412 
L 1318.987688 719.667164 
L 1320.125175 721.182877 
L 1321.262663 729.466273 
L 1322.40015 734.703981 
L 1323.537638 732.010317 
L 1324.675125 743.484671 
L 1325.812613 726.286315 
L 1326.9501 736.019723 
L 1328.087588 729.215212 
L 1329.225075 721.421416 
L 1330.362563 717.354484 
L 1331.50005 725.235895 
L 1332.637538 719.032686 
L 1333.775025 720.739369 
L 1334.912513 716.779923 
L 1336.05 718.987987 
L 1336.05 718.987987 
" style="fill:none;stroke:#008000;stroke-dasharray:6.000000,6.000000;stroke-dashoffset:0.0;stroke-width:2.0;"/>
   </g>
   <g id="patch_3">
    <path d="M 198.5625 51.3 
L 1336.05 51.3 
" style="fill:none;stroke:#000000;stroke-linecap:square;stroke-linejoin:miter;"/>
   </g>
   <g id="patch_4">
    <path d="M 1336.05 747 
L 1336.05 51.3 
" style="fill:none;stroke:#000000;stroke-linecap:square;stroke-linejoin:miter;"/>
   </g>
   <g id="patch_5">
    <path d="M 198.5625 747 
L 1336.05 747 
" style="fill:none;stroke:#000000;stroke-linecap:square;stroke-linejoin:miter;"/>
   </g>
   <g id="patch_6">
    <path d="M 198.5625 747 
L 198.5625 51.3 
" style="fill:none;stroke:#000000;stroke-linecap:square;stroke-linejoin:miter;"/>
   </g>
   <g id="matplotlib.axis_1">
    <g id="xtick_1">
     <g id="line2d_3">
      <defs>
       <path d="M 0 0 
L 0 -4 
" id="mecb62b0a43" style="stroke:#000000;stroke-width:0.5;"/>
      </defs>
      <g>
       <use style="stroke:#000000;stroke-width:0.5;" x="198.5625" xlink:href="#mecb62b0a43" y="747.0"/>
      </g>
     </g>
     <g id="line2d_4">
      <defs>
       <path d="M 0 0 
L 0 4 
" id="mc6e36e6dde" style="stroke:#000000;stroke-width:0.5;"/>
      </defs>
      <g>
       <use style="stroke:#000000;stroke-width:0.5;" x="198.5625" xlink:href="#mc6e36e6dde" y="51.3"/>
      </g>
     </g>
     <g id="text_1">
      <!-- 0 -->
      <defs>
       <path d="M 31.78125 66.40625 
Q 24.171875 66.40625 20.328125 58.90625 
Q 16.5 51.421875 16.5 36.375 
Q 16.5 21.390625 20.328125 13.890625 
Q 24.171875 6.390625 31.78125 6.390625 
Q 39.453125 6.390625 43.28125 13.890625 
Q 47.125 21.390625 47.125 36.375 
Q 47.125 51.421875 43.28125 58.90625 
Q 39.453125 66.40625 31.78125 66.40625 
M 31.78125 74.21875 
Q 44.046875 74.21875 50.515625 64.515625 
Q 56.984375 54.828125 56.984375 36.375 
Q 56.984375 17.96875 50.515625 8.265625 
Q 44.046875 -1.421875 31.78125 -1.421875 
Q 19.53125 -1.421875 13.0625 8.265625 
Q 6.59375 17.96875 6.59375 36.375 
Q 6.59375 54.828125 13.0625 64.515625 
Q 19.53125 74.21875 31.78125 74.21875 
" id="BitstreamVeraSans-Roman-30"/>
      </defs>
      <g transform="translate(189.01875 773.7953125)scale(0.3 -0.3)">
       <use xlink:href="#BitstreamVeraSans-Roman-30"/>
      </g>
     </g>
    </g>
    <g id="xtick_2">
     <g id="line2d_5">
      <g>
       <use style="stroke:#000000;stroke-width:0.5;" x="426.06" xlink:href="#mecb62b0a43" y="747.0"/>
      </g>
     </g>
     <g id="line2d_6">
      <g>
       <use style="stroke:#000000;stroke-width:0.5;" x="426.06" xlink:href="#mc6e36e6dde" y="51.3"/>
      </g>
     </g>
     <g id="text_2">
      <!-- 20000 -->
      <defs>
       <path d="M 19.1875 8.296875 
L 53.609375 8.296875 
L 53.609375 0 
L 7.328125 0 
L 7.328125 8.296875 
Q 12.9375 14.109375 22.625 23.890625 
Q 32.328125 33.6875 34.8125 36.53125 
Q 39.546875 41.84375 41.421875 45.53125 
Q 43.3125 49.21875 43.3125 52.78125 
Q 43.3125 58.59375 39.234375 62.25 
Q 35.15625 65.921875 28.609375 65.921875 
Q 23.96875 65.921875 18.8125 64.3125 
Q 13.671875 62.703125 7.8125 59.421875 
L 7.8125 69.390625 
Q 13.765625 71.78125 18.9375 73 
Q 24.125 74.21875 28.421875 74.21875 
Q 39.75 74.21875 46.484375 68.546875 
Q 53.21875 62.890625 53.21875 53.421875 
Q 53.21875 48.921875 51.53125 44.890625 
Q 49.859375 40.875 45.40625 35.40625 
Q 44.1875 33.984375 37.640625 27.21875 
Q 31.109375 20.453125 19.1875 8.296875 
" id="BitstreamVeraSans-Roman-32"/>
      </defs>
      <g transform="translate(378.34125 773.7953125)scale(0.3 -0.3)">
       <use xlink:href="#BitstreamVeraSans-Roman-32"/>
       <use x="63.623046875" xlink:href="#BitstreamVeraSans-Roman-30"/>
       <use x="127.24609375" xlink:href="#BitstreamVeraSans-Roman-30"/>
       <use x="190.869140625" xlink:href="#BitstreamVeraSans-Roman-30"/>
       <use x="254.4921875" xlink:href="#BitstreamVeraSans-Roman-30"/>
      </g>
     </g>
    </g>
    <g id="xtick_3">
     <g id="line2d_7">
      <g>
       <use style="stroke:#000000;stroke-width:0.5;" x="653.5575" xlink:href="#mecb62b0a43" y="747.0"/>
      </g>
     </g>
     <g id="line2d_8">
      <g>
       <use style="stroke:#000000;stroke-width:0.5;" x="653.5575" xlink:href="#mc6e36e6dde" y="51.3"/>
      </g>
     </g>
     <g id="text_3">
      <!-- 40000 -->
      <defs>
       <path d="M 37.796875 64.3125 
L 12.890625 25.390625 
L 37.796875 25.390625 
z
M 35.203125 72.90625 
L 47.609375 72.90625 
L 47.609375 25.390625 
L 58.015625 25.390625 
L 58.015625 17.1875 
L 47.609375 17.1875 
L 47.609375 0 
L 37.796875 0 
L 37.796875 17.1875 
L 4.890625 17.1875 
L 4.890625 26.703125 
z
" id="BitstreamVeraSans-Roman-34"/>
      </defs>
      <g transform="translate(605.83875 773.7953125)scale(0.3 -0.3)">
       <use xlink:href="#BitstreamVeraSans-Roman-34"/>
       <use x="63.623046875" xlink:href="#BitstreamVeraSans-Roman-30"/>
       <use x="127.24609375" xlink:href="#BitstreamVeraSans-Roman-30"/>
       <use x="190.869140625" xlink:href="#BitstreamVeraSans-Roman-30"/>
       <use x="254.4921875" xlink:href="#BitstreamVeraSans-Roman-30"/>
      </g>
     </g>
    </g>
    <g id="xtick_4">
     <g id="line2d_9">
      <g>
       <use style="stroke:#000000;stroke-width:0.5;" x="881.055" xlink:href="#mecb62b0a43" y="747.0"/>
      </g>
     </g>
     <g id="line2d_10">
      <g>
       <use style="stroke:#000000;stroke-width:0.5;" x="881.055" xlink:href="#mc6e36e6dde" y="51.3"/>
      </g>
     </g>
     <g id="text_4">
      <!-- 60000 -->
      <defs>
       <path d="M 33.015625 40.375 
Q 26.375 40.375 22.484375 35.828125 
Q 18.609375 31.296875 18.609375 23.390625 
Q 18.609375 15.53125 22.484375 10.953125 
Q 26.375 6.390625 33.015625 6.390625 
Q 39.65625 6.390625 43.53125 10.953125 
Q 47.40625 15.53125 47.40625 23.390625 
Q 47.40625 31.296875 43.53125 35.828125 
Q 39.65625 40.375 33.015625 40.375 
M 52.59375 71.296875 
L 52.59375 62.3125 
Q 48.875 64.0625 45.09375 64.984375 
Q 41.3125 65.921875 37.59375 65.921875 
Q 27.828125 65.921875 22.671875 59.328125 
Q 17.53125 52.734375 16.796875 39.40625 
Q 19.671875 43.65625 24.015625 45.921875 
Q 28.375 48.1875 33.59375 48.1875 
Q 44.578125 48.1875 50.953125 41.515625 
Q 57.328125 34.859375 57.328125 23.390625 
Q 57.328125 12.15625 50.6875 5.359375 
Q 44.046875 -1.421875 33.015625 -1.421875 
Q 20.359375 -1.421875 13.671875 8.265625 
Q 6.984375 17.96875 6.984375 36.375 
Q 6.984375 53.65625 15.1875 63.9375 
Q 23.390625 74.21875 37.203125 74.21875 
Q 40.921875 74.21875 44.703125 73.484375 
Q 48.484375 72.75 52.59375 71.296875 
" id="BitstreamVeraSans-Roman-36"/>
      </defs>
      <g transform="translate(833.33625 773.7953125)scale(0.3 -0.3)">
       <use xlink:href="#BitstreamVeraSans-Roman-36"/>
       <use x="63.623046875" xlink:href="#BitstreamVeraSans-Roman-30"/>
       <use x="127.24609375" xlink:href="#BitstreamVeraSans-Roman-30"/>
       <use x="190.869140625" xlink:href="#BitstreamVeraSans-Roman-30"/>
       <use x="254.4921875" xlink:href="#BitstreamVeraSans-Roman-30"/>
      </g>
     </g>
    </g>
    <g id="xtick_5">
     <g id="line2d_11">
      <g>
       <use style="stroke:#000000;stroke-width:0.5;" x="1108.5525" xlink:href="#mecb62b0a43" y="747.0"/>
      </g>
     </g>
     <g id="line2d_12">
      <g>
       <use style="stroke:#000000;stroke-width:0.5;" x="1108.5525" xlink:href="#mc6e36e6dde" y="51.3"/>
      </g>
     </g>
     <g id="text_5">
      <!-- 80000 -->
      <defs>
       <path d="M 31.78125 34.625 
Q 24.75 34.625 20.71875 30.859375 
Q 16.703125 27.09375 16.703125 20.515625 
Q 16.703125 13.921875 20.71875 10.15625 
Q 24.75 6.390625 31.78125 6.390625 
Q 38.8125 6.390625 42.859375 10.171875 
Q 46.921875 13.96875 46.921875 20.515625 
Q 46.921875 27.09375 42.890625 30.859375 
Q 38.875 34.625 31.78125 34.625 
M 21.921875 38.8125 
Q 15.578125 40.375 12.03125 44.71875 
Q 8.5 49.078125 8.5 55.328125 
Q 8.5 64.0625 14.71875 69.140625 
Q 20.953125 74.21875 31.78125 74.21875 
Q 42.671875 74.21875 48.875 69.140625 
Q 55.078125 64.0625 55.078125 55.328125 
Q 55.078125 49.078125 51.53125 44.71875 
Q 48 40.375 41.703125 38.8125 
Q 48.828125 37.15625 52.796875 32.3125 
Q 56.78125 27.484375 56.78125 20.515625 
Q 56.78125 9.90625 50.3125 4.234375 
Q 43.84375 -1.421875 31.78125 -1.421875 
Q 19.734375 -1.421875 13.25 4.234375 
Q 6.78125 9.90625 6.78125 20.515625 
Q 6.78125 27.484375 10.78125 32.3125 
Q 14.796875 37.15625 21.921875 38.8125 
M 18.3125 54.390625 
Q 18.3125 48.734375 21.84375 45.5625 
Q 25.390625 42.390625 31.78125 42.390625 
Q 38.140625 42.390625 41.71875 45.5625 
Q 45.3125 48.734375 45.3125 54.390625 
Q 45.3125 60.0625 41.71875 63.234375 
Q 38.140625 66.40625 31.78125 66.40625 
Q 25.390625 66.40625 21.84375 63.234375 
Q 18.3125 60.0625 18.3125 54.390625 
" id="BitstreamVeraSans-Roman-38"/>
      </defs>
      <g transform="translate(1060.83375 773.7953125)scale(0.3 -0.3)">
       <use xlink:href="#BitstreamVeraSans-Roman-38"/>
       <use x="63.623046875" xlink:href="#BitstreamVeraSans-Roman-30"/>
       <use x="127.24609375" xlink:href="#BitstreamVeraSans-Roman-30"/>
       <use x="190.869140625" xlink:href="#BitstreamVeraSans-Roman-30"/>
       <use x="254.4921875" xlink:href="#BitstreamVeraSans-Roman-30"/>
      </g>
     </g>
    </g>
    <g id="xtick_6">
     <g id="line2d_13">
      <g>
       <use style="stroke:#000000;stroke-width:0.5;" x="1336.05" xlink:href="#mecb62b0a43" y="747.0"/>
      </g>
     </g>
     <g id="line2d_14">
      <g>
       <use style="stroke:#000000;stroke-width:0.5;" x="1336.05" xlink:href="#mc6e36e6dde" y="51.3"/>
      </g>
     </g>
     <g id="text_6">
      <!-- 100000 -->
      <defs>
       <path d="M 12.40625 8.296875 
L 28.515625 8.296875 
L 28.515625 63.921875 
L 10.984375 60.40625 
L 10.984375 69.390625 
L 28.421875 72.90625 
L 38.28125 72.90625 
L 38.28125 8.296875 
L 54.390625 8.296875 
L 54.390625 0 
L 12.40625 0 
z
" id="BitstreamVeraSans-Roman-31"/>
      </defs>
      <g transform="translate(1278.7875 773.7953125)scale(0.3 -0.3)">
       <use xlink:href="#BitstreamVeraSans-Roman-31"/>
       <use x="63.623046875" xlink:href="#BitstreamVeraSans-Roman-30"/>
       <use x="127.24609375" xlink:href="#BitstreamVeraSans-Roman-30"/>
       <use x="190.869140625" xlink:href="#BitstreamVeraSans-Roman-30"/>
       <use x="254.4921875" xlink:href="#BitstreamVeraSans-Roman-30"/>
       <use x="318.115234375" xlink:href="#BitstreamVeraSans-Roman-30"/>
      </g>
     </g>
    </g>
    <g id="text_7">
     <!-- iterations -->
     <defs>
      <path d="M 54.890625 33.015625 
L 54.890625 0 
L 45.90625 0 
L 45.90625 32.71875 
Q 45.90625 40.484375 42.875 44.328125 
Q 39.84375 48.1875 33.796875 48.1875 
Q 26.515625 48.1875 22.3125 43.546875 
Q 18.109375 38.921875 18.109375 30.90625 
L 18.109375 0 
L 9.078125 0 
L 9.078125 54.6875 
L 18.109375 54.6875 
L 18.109375 46.1875 
Q 21.34375 51.125 25.703125 53.5625 
Q 30.078125 56 35.796875 56 
Q 45.21875 56 50.046875 50.171875 
Q 54.890625 44.34375 54.890625 33.015625 
" id="BitstreamVeraSans-Roman-6e"/>
      <path d="M 34.28125 27.484375 
Q 23.390625 27.484375 19.1875 25 
Q 14.984375 22.515625 14.984375 16.5 
Q 14.984375 11.71875 18.140625 8.90625 
Q 21.296875 6.109375 26.703125 6.109375 
Q 34.1875 6.109375 38.703125 11.40625 
Q 43.21875 16.703125 43.21875 25.484375 
L 43.21875 27.484375 
z
M 52.203125 31.203125 
L 52.203125 0 
L 43.21875 0 
L 43.21875 8.296875 
Q 40.140625 3.328125 35.546875 0.953125 
Q 30.953125 -1.421875 24.3125 -1.421875 
Q 15.921875 -1.421875 10.953125 3.296875 
Q 6 8.015625 6 15.921875 
Q 6 25.140625 12.171875 29.828125 
Q 18.359375 34.515625 30.609375 34.515625 
L 43.21875 34.515625 
L 43.21875 35.40625 
Q 43.21875 41.609375 39.140625 45 
Q 35.0625 48.390625 27.6875 48.390625 
Q 23 48.390625 18.546875 47.265625 
Q 14.109375 46.140625 10.015625 43.890625 
L 10.015625 52.203125 
Q 14.9375 54.109375 19.578125 55.046875 
Q 24.21875 56 28.609375 56 
Q 40.484375 56 46.34375 49.84375 
Q 52.203125 43.703125 52.203125 31.203125 
" id="BitstreamVeraSans-Roman-61"/>
      <path d="M 30.609375 48.390625 
Q 23.390625 48.390625 19.1875 42.75 
Q 14.984375 37.109375 14.984375 27.296875 
Q 14.984375 17.484375 19.15625 11.84375 
Q 23.34375 6.203125 30.609375 6.203125 
Q 37.796875 6.203125 41.984375 11.859375 
Q 46.1875 17.53125 46.1875 27.296875 
Q 46.1875 37.015625 41.984375 42.703125 
Q 37.796875 48.390625 30.609375 48.390625 
M 30.609375 56 
Q 42.328125 56 49.015625 48.375 
Q 55.71875 40.765625 55.71875 27.296875 
Q 55.71875 13.875 49.015625 6.21875 
Q 42.328125 -1.421875 30.609375 -1.421875 
Q 18.84375 -1.421875 12.171875 6.21875 
Q 5.515625 13.875 5.515625 27.296875 
Q 5.515625 40.765625 12.171875 48.375 
Q 18.84375 56 30.609375 56 
" id="BitstreamVeraSans-Roman-6f"/>
      <path d="M 9.421875 54.6875 
L 18.40625 54.6875 
L 18.40625 0 
L 9.421875 0 
z
M 9.421875 75.984375 
L 18.40625 75.984375 
L 18.40625 64.59375 
L 9.421875 64.59375 
z
" id="BitstreamVeraSans-Roman-69"/>
      <path d="M 56.203125 29.59375 
L 56.203125 25.203125 
L 14.890625 25.203125 
Q 15.484375 15.921875 20.484375 11.0625 
Q 25.484375 6.203125 34.421875 6.203125 
Q 39.59375 6.203125 44.453125 7.46875 
Q 49.3125 8.734375 54.109375 11.28125 
L 54.109375 2.78125 
Q 49.265625 0.734375 44.1875 -0.34375 
Q 39.109375 -1.421875 33.890625 -1.421875 
Q 20.796875 -1.421875 13.15625 6.1875 
Q 5.515625 13.8125 5.515625 26.8125 
Q 5.515625 40.234375 12.765625 48.109375 
Q 20.015625 56 32.328125 56 
Q 43.359375 56 49.78125 48.890625 
Q 56.203125 41.796875 56.203125 29.59375 
M 47.21875 32.234375 
Q 47.125 39.59375 43.09375 43.984375 
Q 39.0625 48.390625 32.421875 48.390625 
Q 24.90625 48.390625 20.390625 44.140625 
Q 15.875 39.890625 15.1875 32.171875 
z
" id="BitstreamVeraSans-Roman-65"/>
      <path d="M 18.3125 70.21875 
L 18.3125 54.6875 
L 36.8125 54.6875 
L 36.8125 47.703125 
L 18.3125 47.703125 
L 18.3125 18.015625 
Q 18.3125 11.328125 20.140625 9.421875 
Q 21.96875 7.515625 27.59375 7.515625 
L 36.8125 7.515625 
L 36.8125 0 
L 27.59375 0 
Q 17.1875 0 13.234375 3.875 
Q 9.28125 7.765625 9.28125 18.015625 
L 9.28125 47.703125 
L 2.6875 47.703125 
L 2.6875 54.6875 
L 9.28125 54.6875 
L 9.28125 70.21875 
z
" id="BitstreamVeraSans-Roman-74"/>
      <path d="M 41.109375 46.296875 
Q 39.59375 47.171875 37.8125 47.578125 
Q 36.03125 48 33.890625 48 
Q 26.265625 48 22.1875 43.046875 
Q 18.109375 38.09375 18.109375 28.8125 
L 18.109375 0 
L 9.078125 0 
L 9.078125 54.6875 
L 18.109375 54.6875 
L 18.109375 46.1875 
Q 20.953125 51.171875 25.484375 53.578125 
Q 30.03125 56 36.53125 56 
Q 37.453125 56 38.578125 55.875 
Q 39.703125 55.765625 41.0625 55.515625 
z
" id="BitstreamVeraSans-Roman-72"/>
      <path d="M 44.28125 53.078125 
L 44.28125 44.578125 
Q 40.484375 46.53125 36.375 47.5 
Q 32.28125 48.484375 27.875 48.484375 
Q 21.1875 48.484375 17.84375 46.4375 
Q 14.5 44.390625 14.5 40.28125 
Q 14.5 37.15625 16.890625 35.375 
Q 19.28125 33.59375 26.515625 31.984375 
L 29.59375 31.296875 
Q 39.15625 29.25 43.1875 25.515625 
Q 47.21875 21.78125 47.21875 15.09375 
Q 47.21875 7.46875 41.1875 3.015625 
Q 35.15625 -1.421875 24.609375 -1.421875 
Q 20.21875 -1.421875 15.453125 -0.5625 
Q 10.6875 0.296875 5.421875 2 
L 5.421875 11.28125 
Q 10.40625 8.6875 15.234375 7.390625 
Q 20.0625 6.109375 24.8125 6.109375 
Q 31.15625 6.109375 34.5625 8.28125 
Q 37.984375 10.453125 37.984375 14.40625 
Q 37.984375 18.0625 35.515625 20.015625 
Q 33.0625 21.96875 24.703125 23.78125 
L 21.578125 24.515625 
Q 13.234375 26.265625 9.515625 29.90625 
Q 5.8125 33.546875 5.8125 39.890625 
Q 5.8125 47.609375 11.28125 51.796875 
Q 16.75 56 26.8125 56 
Q 31.78125 56 36.171875 55.265625 
Q 40.578125 54.546875 44.28125 53.078125 
" id="BitstreamVeraSans-Roman-73"/>
     </defs>
     <g transform="translate(696.12421875 807.8296875)scale(0.3 -0.3)">
      <use xlink:href="#BitstreamVeraSans-Roman-69"/>
      <use x="27.783203125" xlink:href="#BitstreamVeraSans-Roman-74"/>
      <use x="66.9921875" xlink:href="#BitstreamVeraSans-Roman-65"/>
      <use x="128.515625" xlink:href="#BitstreamVeraSans-Roman-72"/>
      <use x="169.62890625" xlink:href="#BitstreamVeraSans-Roman-61"/>
      <use x="230.908203125" xlink:href="#BitstreamVeraSans-Roman-74"/>
      <use x="270.1171875" xlink:href="#BitstreamVeraSans-Roman-69"/>
      <use x="297.900390625" xlink:href="#BitstreamVeraSans-Roman-6f"/>
      <use x="359.08203125" xlink:href="#BitstreamVeraSans-Roman-6e"/>
      <use x="422.4609375" xlink:href="#BitstreamVeraSans-Roman-73"/>
     </g>
    </g>
   </g>
   <g id="matplotlib.axis_2">
    <g id="ytick_1">
     <g id="line2d_15">
      <defs>
       <path d="M 0 0 
L 4 0 
" id="m3f96883571" style="stroke:#000000;stroke-width:0.5;"/>
      </defs>
      <g>
       <use style="stroke:#000000;stroke-width:0.5;" x="198.5625" xlink:href="#m3f96883571" y="747.0"/>
      </g>
     </g>
     <g id="line2d_16">
      <defs>
       <path d="M 0 0 
L -4 0 
" id="m166a793652" style="stroke:#000000;stroke-width:0.5;"/>
      </defs>
      <g>
       <use style="stroke:#000000;stroke-width:0.5;" x="1336.05" xlink:href="#m166a793652" y="747.0"/>
      </g>
     </g>
     <g id="text_8">
      <!-- 2000 -->
      <g transform="translate(118.2125 755.278125)scale(0.3 -0.3)">
       <use xlink:href="#BitstreamVeraSans-Roman-32"/>
       <use x="63.623046875" xlink:href="#BitstreamVeraSans-Roman-30"/>
       <use x="127.24609375" xlink:href="#BitstreamVeraSans-Roman-30"/>
       <use x="190.869140625" xlink:href="#BitstreamVeraSans-Roman-30"/>
      </g>
     </g>
    </g>
    <g id="ytick_2">
     <g id="line2d_17">
      <g>
       <use style="stroke:#000000;stroke-width:0.5;" x="198.5625" xlink:href="#m3f96883571" y="660.0375"/>
      </g>
     </g>
     <g id="line2d_18">
      <g>
       <use style="stroke:#000000;stroke-width:0.5;" x="1336.05" xlink:href="#m166a793652" y="660.0375"/>
      </g>
     </g>
     <g id="text_9">
      <!-- 4000 -->
      <g transform="translate(118.2125 668.315625)scale(0.3 -0.3)">
       <use xlink:href="#BitstreamVeraSans-Roman-34"/>
       <use x="63.623046875" xlink:href="#BitstreamVeraSans-Roman-30"/>
       <use x="127.24609375" xlink:href="#BitstreamVeraSans-Roman-30"/>
       <use x="190.869140625" xlink:href="#BitstreamVeraSans-Roman-30"/>
      </g>
     </g>
    </g>
    <g id="ytick_3">
     <g id="line2d_19">
      <g>
       <use style="stroke:#000000;stroke-width:0.5;" x="198.5625" xlink:href="#m3f96883571" y="573.075"/>
      </g>
     </g>
     <g id="line2d_20">
      <g>
       <use style="stroke:#000000;stroke-width:0.5;" x="1336.05" xlink:href="#m166a793652" y="573.075"/>
      </g>
     </g>
     <g id="text_10">
      <!-- 6000 -->
      <g transform="translate(118.2125 581.353125)scale(0.3 -0.3)">
       <use xlink:href="#BitstreamVeraSans-Roman-36"/>
       <use x="63.623046875" xlink:href="#BitstreamVeraSans-Roman-30"/>
       <use x="127.24609375" xlink:href="#BitstreamVeraSans-Roman-30"/>
       <use x="190.869140625" xlink:href="#BitstreamVeraSans-Roman-30"/>
      </g>
     </g>
    </g>
    <g id="ytick_4">
     <g id="line2d_21">
      <g>
       <use style="stroke:#000000;stroke-width:0.5;" x="198.5625" xlink:href="#m3f96883571" y="486.1125"/>
      </g>
     </g>
     <g id="line2d_22">
      <g>
       <use style="stroke:#000000;stroke-width:0.5;" x="1336.05" xlink:href="#m166a793652" y="486.1125"/>
      </g>
     </g>
     <g id="text_11">
      <!-- 8000 -->
      <g transform="translate(118.2125 494.390625)scale(0.3 -0.3)">
       <use xlink:href="#BitstreamVeraSans-Roman-38"/>
       <use x="63.623046875" xlink:href="#BitstreamVeraSans-Roman-30"/>
       <use x="127.24609375" xlink:href="#BitstreamVeraSans-Roman-30"/>
       <use x="190.869140625" xlink:href="#BitstreamVeraSans-Roman-30"/>
      </g>
     </g>
    </g>
    <g id="ytick_5">
     <g id="line2d_23">
      <g>
       <use style="stroke:#000000;stroke-width:0.5;" x="198.5625" xlink:href="#m3f96883571" y="399.15"/>
      </g>
     </g>
     <g id="line2d_24">
      <g>
       <use style="stroke:#000000;stroke-width:0.5;" x="1336.05" xlink:href="#m166a793652" y="399.15"/>
      </g>
     </g>
     <g id="text_12">
      <!-- 10000 -->
      <g transform="translate(99.125 407.428125)scale(0.3 -0.3)">
       <use xlink:href="#BitstreamVeraSans-Roman-31"/>
       <use x="63.623046875" xlink:href="#BitstreamVeraSans-Roman-30"/>
       <use x="127.24609375" xlink:href="#BitstreamVeraSans-Roman-30"/>
       <use x="190.869140625" xlink:href="#BitstreamVeraSans-Roman-30"/>
       <use x="254.4921875" xlink:href="#BitstreamVeraSans-Roman-30"/>
      </g>
     </g>
    </g>
    <g id="ytick_6">
     <g id="line2d_25">
      <g>
       <use style="stroke:#000000;stroke-width:0.5;" x="198.5625" xlink:href="#m3f96883571" y="312.1875"/>
      </g>
     </g>
     <g id="line2d_26">
      <g>
       <use style="stroke:#000000;stroke-width:0.5;" x="1336.05" xlink:href="#m166a793652" y="312.1875"/>
      </g>
     </g>
     <g id="text_13">
      <!-- 12000 -->
      <g transform="translate(99.125 320.465625)scale(0.3 -0.3)">
       <use xlink:href="#BitstreamVeraSans-Roman-31"/>
       <use x="63.623046875" xlink:href="#BitstreamVeraSans-Roman-32"/>
       <use x="127.24609375" xlink:href="#BitstreamVeraSans-Roman-30"/>
       <use x="190.869140625" xlink:href="#BitstreamVeraSans-Roman-30"/>
       <use x="254.4921875" xlink:href="#BitstreamVeraSans-Roman-30"/>
      </g>
     </g>
    </g>
    <g id="ytick_7">
     <g id="line2d_27">
      <g>
       <use style="stroke:#000000;stroke-width:0.5;" x="198.5625" xlink:href="#m3f96883571" y="225.225"/>
      </g>
     </g>
     <g id="line2d_28">
      <g>
       <use style="stroke:#000000;stroke-width:0.5;" x="1336.05" xlink:href="#m166a793652" y="225.225"/>
      </g>
     </g>
     <g id="text_14">
      <!-- 14000 -->
      <g transform="translate(99.125 233.503125)scale(0.3 -0.3)">
       <use xlink:href="#BitstreamVeraSans-Roman-31"/>
       <use x="63.623046875" xlink:href="#BitstreamVeraSans-Roman-34"/>
       <use x="127.24609375" xlink:href="#BitstreamVeraSans-Roman-30"/>
       <use x="190.869140625" xlink:href="#BitstreamVeraSans-Roman-30"/>
       <use x="254.4921875" xlink:href="#BitstreamVeraSans-Roman-30"/>
      </g>
     </g>
    </g>
    <g id="ytick_8">
     <g id="line2d_29">
      <g>
       <use style="stroke:#000000;stroke-width:0.5;" x="198.5625" xlink:href="#m3f96883571" y="138.2625"/>
      </g>
     </g>
     <g id="line2d_30">
      <g>
       <use style="stroke:#000000;stroke-width:0.5;" x="1336.05" xlink:href="#m166a793652" y="138.2625"/>
      </g>
     </g>
     <g id="text_15">
      <!-- 16000 -->
      <g transform="translate(99.125 146.540625)scale(0.3 -0.3)">
       <use xlink:href="#BitstreamVeraSans-Roman-31"/>
       <use x="63.623046875" xlink:href="#BitstreamVeraSans-Roman-36"/>
       <use x="127.24609375" xlink:href="#BitstreamVeraSans-Roman-30"/>
       <use x="190.869140625" xlink:href="#BitstreamVeraSans-Roman-30"/>
       <use x="254.4921875" xlink:href="#BitstreamVeraSans-Roman-30"/>
      </g>
     </g>
    </g>
    <g id="ytick_9">
     <g id="line2d_31">
      <g>
       <use style="stroke:#000000;stroke-width:0.5;" x="198.5625" xlink:href="#m3f96883571" y="51.3"/>
      </g>
     </g>
     <g id="line2d_32">
      <g>
       <use style="stroke:#000000;stroke-width:0.5;" x="1336.05" xlink:href="#m166a793652" y="51.3"/>
      </g>
     </g>
     <g id="text_16">
      <!-- 18000 -->
      <g transform="translate(99.125 59.578125)scale(0.3 -0.3)">
       <use xlink:href="#BitstreamVeraSans-Roman-31"/>
       <use x="63.623046875" xlink:href="#BitstreamVeraSans-Roman-38"/>
       <use x="127.24609375" xlink:href="#BitstreamVeraSans-Roman-30"/>
       <use x="190.869140625" xlink:href="#BitstreamVeraSans-Roman-30"/>
       <use x="254.4921875" xlink:href="#BitstreamVeraSans-Roman-30"/>
      </g>
     </g>
    </g>
    <g id="text_17">
     <!-- log(loss) -->
     <defs>
      <path d="M 8.015625 75.875 
L 15.828125 75.875 
Q 23.140625 64.359375 26.78125 53.3125 
Q 30.421875 42.28125 30.421875 31.390625 
Q 30.421875 20.453125 26.78125 9.375 
Q 23.140625 -1.703125 15.828125 -13.1875 
L 8.015625 -13.1875 
Q 14.5 -2 17.703125 9.0625 
Q 20.90625 20.125 20.90625 31.390625 
Q 20.90625 42.671875 17.703125 53.65625 
Q 14.5 64.65625 8.015625 75.875 
" id="BitstreamVeraSans-Roman-29"/>
      <path d="M 31 75.875 
Q 24.46875 64.65625 21.28125 53.65625 
Q 18.109375 42.671875 18.109375 31.390625 
Q 18.109375 20.125 21.3125 9.0625 
Q 24.515625 -2 31 -13.1875 
L 23.1875 -13.1875 
Q 15.875 -1.703125 12.234375 9.375 
Q 8.59375 20.453125 8.59375 31.390625 
Q 8.59375 42.28125 12.203125 53.3125 
Q 15.828125 64.359375 23.1875 75.875 
z
" id="BitstreamVeraSans-Roman-28"/>
      <path d="M 45.40625 27.984375 
Q 45.40625 37.75 41.375 43.109375 
Q 37.359375 48.484375 30.078125 48.484375 
Q 22.859375 48.484375 18.828125 43.109375 
Q 14.796875 37.75 14.796875 27.984375 
Q 14.796875 18.265625 18.828125 12.890625 
Q 22.859375 7.515625 30.078125 7.515625 
Q 37.359375 7.515625 41.375 12.890625 
Q 45.40625 18.265625 45.40625 27.984375 
M 54.390625 6.78125 
Q 54.390625 -7.171875 48.1875 -13.984375 
Q 42 -20.796875 29.203125 -20.796875 
Q 24.46875 -20.796875 20.265625 -20.09375 
Q 16.0625 -19.390625 12.109375 -17.921875 
L 12.109375 -9.1875 
Q 16.0625 -11.328125 19.921875 -12.34375 
Q 23.78125 -13.375 27.78125 -13.375 
Q 36.625 -13.375 41.015625 -8.765625 
Q 45.40625 -4.15625 45.40625 5.171875 
L 45.40625 9.625 
Q 42.625 4.78125 38.28125 2.390625 
Q 33.9375 0 27.875 0 
Q 17.828125 0 11.671875 7.65625 
Q 5.515625 15.328125 5.515625 27.984375 
Q 5.515625 40.671875 11.671875 48.328125 
Q 17.828125 56 27.875 56 
Q 33.9375 56 38.28125 53.609375 
Q 42.625 51.21875 45.40625 46.390625 
L 45.40625 54.6875 
L 54.390625 54.6875 
z
" id="BitstreamVeraSans-Roman-67"/>
      <path d="M 9.421875 75.984375 
L 18.40625 75.984375 
L 18.40625 0 
L 9.421875 0 
z
" id="BitstreamVeraSans-Roman-6c"/>
     </defs>
     <g transform="translate(87.8859375 462.69609375)rotate(-90.0)scale(0.3 -0.3)">
      <use xlink:href="#BitstreamVeraSans-Roman-6c"/>
      <use x="27.783203125" xlink:href="#BitstreamVeraSans-Roman-6f"/>
      <use x="88.96484375" xlink:href="#BitstreamVeraSans-Roman-67"/>
      <use x="152.44140625" xlink:href="#BitstreamVeraSans-Roman-28"/>
      <use x="191.455078125" xlink:href="#BitstreamVeraSans-Roman-6c"/>
      <use x="219.23828125" xlink:href="#BitstreamVeraSans-Roman-6f"/>
      <use x="280.419921875" xlink:href="#BitstreamVeraSans-Roman-73"/>
      <use x="332.51953125" xlink:href="#BitstreamVeraSans-Roman-73"/>
      <use x="384.619140625" xlink:href="#BitstreamVeraSans-Roman-29"/>
     </g>
    </g>
   </g>
   <g id="legend_1">
    <g id="patch_7">
     <path d="M 843.876562 163.36875 
L 1321.05 163.36875 
L 1321.05 66.3 
L 843.876562 66.3 
z
" style="fill:#ffffff;stroke:#000000;stroke-linejoin:miter;"/>
    </g>
    <g id="line2d_33">
     <path d="M 864.876562 90.595312 
L 906.876562 90.595312 
" style="fill:none;stroke:#0000ff;stroke-linecap:square;stroke-width:2.0;"/>
    </g>
    <g id="line2d_34"/>
    <g id="text_18">
     <!-- random: step=0.043750 -->
     <defs>
      <path id="BitstreamVeraSans-Roman-20"/>
      <path d="M 8.203125 72.90625 
L 55.078125 72.90625 
L 55.078125 68.703125 
L 28.609375 0 
L 18.3125 0 
L 43.21875 64.59375 
L 8.203125 64.59375 
z
" id="BitstreamVeraSans-Roman-37"/>
      <path d="M 40.578125 39.3125 
Q 47.65625 37.796875 51.625 33 
Q 55.609375 28.21875 55.609375 21.1875 
Q 55.609375 10.40625 48.1875 4.484375 
Q 40.765625 -1.421875 27.09375 -1.421875 
Q 22.515625 -1.421875 17.65625 -0.515625 
Q 12.796875 0.390625 7.625 2.203125 
L 7.625 11.71875 
Q 11.71875 9.328125 16.59375 8.109375 
Q 21.484375 6.890625 26.8125 6.890625 
Q 36.078125 6.890625 40.9375 10.546875 
Q 45.796875 14.203125 45.796875 21.1875 
Q 45.796875 27.640625 41.28125 31.265625 
Q 36.765625 34.90625 28.71875 34.90625 
L 20.21875 34.90625 
L 20.21875 43.015625 
L 29.109375 43.015625 
Q 36.375 43.015625 40.234375 45.921875 
Q 44.09375 48.828125 44.09375 54.296875 
Q 44.09375 59.90625 40.109375 62.90625 
Q 36.140625 65.921875 28.71875 65.921875 
Q 24.65625 65.921875 20.015625 65.03125 
Q 15.375 64.15625 9.8125 62.3125 
L 9.8125 71.09375 
Q 15.4375 72.65625 20.34375 73.4375 
Q 25.25 74.21875 29.59375 74.21875 
Q 40.828125 74.21875 47.359375 69.109375 
Q 53.90625 64.015625 53.90625 55.328125 
Q 53.90625 49.265625 50.4375 45.09375 
Q 46.96875 40.921875 40.578125 39.3125 
" id="BitstreamVeraSans-Roman-33"/>
      <path d="M 52 44.1875 
Q 55.375 50.25 60.0625 53.125 
Q 64.75 56 71.09375 56 
Q 79.640625 56 84.28125 50.015625 
Q 88.921875 44.046875 88.921875 33.015625 
L 88.921875 0 
L 79.890625 0 
L 79.890625 32.71875 
Q 79.890625 40.578125 77.09375 44.375 
Q 74.3125 48.1875 68.609375 48.1875 
Q 61.625 48.1875 57.5625 43.546875 
Q 53.515625 38.921875 53.515625 30.90625 
L 53.515625 0 
L 44.484375 0 
L 44.484375 32.71875 
Q 44.484375 40.625 41.703125 44.40625 
Q 38.921875 48.1875 33.109375 48.1875 
Q 26.21875 48.1875 22.15625 43.53125 
Q 18.109375 38.875 18.109375 30.90625 
L 18.109375 0 
L 9.078125 0 
L 9.078125 54.6875 
L 18.109375 54.6875 
L 18.109375 46.1875 
Q 21.1875 51.21875 25.484375 53.609375 
Q 29.78125 56 35.6875 56 
Q 41.65625 56 45.828125 52.96875 
Q 50 49.953125 52 44.1875 
" id="BitstreamVeraSans-Roman-6d"/>
      <path d="M 10.796875 72.90625 
L 49.515625 72.90625 
L 49.515625 64.59375 
L 19.828125 64.59375 
L 19.828125 46.734375 
Q 21.96875 47.46875 24.109375 47.828125 
Q 26.265625 48.1875 28.421875 48.1875 
Q 40.625 48.1875 47.75 41.5 
Q 54.890625 34.8125 54.890625 23.390625 
Q 54.890625 11.625 47.5625 5.09375 
Q 40.234375 -1.421875 26.90625 -1.421875 
Q 22.3125 -1.421875 17.546875 -0.640625 
Q 12.796875 0.140625 7.71875 1.703125 
L 7.71875 11.625 
Q 12.109375 9.234375 16.796875 8.0625 
Q 21.484375 6.890625 26.703125 6.890625 
Q 35.15625 6.890625 40.078125 11.328125 
Q 45.015625 15.765625 45.015625 23.390625 
Q 45.015625 31 40.078125 35.4375 
Q 35.15625 39.890625 26.703125 39.890625 
Q 22.75 39.890625 18.8125 39.015625 
Q 14.890625 38.140625 10.796875 36.28125 
z
" id="BitstreamVeraSans-Roman-35"/>
      <path d="M 11.71875 12.40625 
L 22.015625 12.40625 
L 22.015625 0 
L 11.71875 0 
z
M 11.71875 51.703125 
L 22.015625 51.703125 
L 22.015625 39.3125 
L 11.71875 39.3125 
z
" id="BitstreamVeraSans-Roman-3a"/>
      <path d="M 10.6875 12.40625 
L 21 12.40625 
L 21 0 
L 10.6875 0 
z
" id="BitstreamVeraSans-Roman-2e"/>
      <path d="M 10.59375 45.40625 
L 73.1875 45.40625 
L 73.1875 37.203125 
L 10.59375 37.203125 
z
M 10.59375 25.484375 
L 73.1875 25.484375 
L 73.1875 17.1875 
L 10.59375 17.1875 
z
" id="BitstreamVeraSans-Roman-3d"/>
      <path d="M 45.40625 46.390625 
L 45.40625 75.984375 
L 54.390625 75.984375 
L 54.390625 0 
L 45.40625 0 
L 45.40625 8.203125 
Q 42.578125 3.328125 38.25 0.953125 
Q 33.9375 -1.421875 27.875 -1.421875 
Q 17.96875 -1.421875 11.734375 6.484375 
Q 5.515625 14.40625 5.515625 27.296875 
Q 5.515625 40.1875 11.734375 48.09375 
Q 17.96875 56 27.875 56 
Q 33.9375 56 38.25 53.625 
Q 42.578125 51.265625 45.40625 46.390625 
M 14.796875 27.296875 
Q 14.796875 17.390625 18.875 11.75 
Q 22.953125 6.109375 30.078125 6.109375 
Q 37.203125 6.109375 41.296875 11.75 
Q 45.40625 17.390625 45.40625 27.296875 
Q 45.40625 37.203125 41.296875 42.84375 
Q 37.203125 48.484375 30.078125 48.484375 
Q 22.953125 48.484375 18.875 42.84375 
Q 14.796875 37.203125 14.796875 27.296875 
" id="BitstreamVeraSans-Roman-64"/>
      <path d="M 18.109375 8.203125 
L 18.109375 -20.796875 
L 9.078125 -20.796875 
L 9.078125 54.6875 
L 18.109375 54.6875 
L 18.109375 46.390625 
Q 20.953125 51.265625 25.265625 53.625 
Q 29.59375 56 35.59375 56 
Q 45.5625 56 51.78125 48.09375 
Q 58.015625 40.1875 58.015625 27.296875 
Q 58.015625 14.40625 51.78125 6.484375 
Q 45.5625 -1.421875 35.59375 -1.421875 
Q 29.59375 -1.421875 25.265625 0.953125 
Q 20.953125 3.328125 18.109375 8.203125 
M 48.6875 27.296875 
Q 48.6875 37.203125 44.609375 42.84375 
Q 40.53125 48.484375 33.40625 48.484375 
Q 26.265625 48.484375 22.1875 42.84375 
Q 18.109375 37.203125 18.109375 27.296875 
Q 18.109375 17.390625 22.1875 11.75 
Q 26.265625 6.109375 33.40625 6.109375 
Q 40.53125 6.109375 44.609375 11.75 
Q 48.6875 17.390625 48.6875 27.296875 
" id="BitstreamVeraSans-Roman-70"/>
     </defs>
     <g transform="translate(939.8765625 101.0953125)scale(0.3 -0.3)">
      <use xlink:href="#BitstreamVeraSans-Roman-72"/>
      <use x="41.11328125" xlink:href="#BitstreamVeraSans-Roman-61"/>
      <use x="102.392578125" xlink:href="#BitstreamVeraSans-Roman-6e"/>
      <use x="165.771484375" xlink:href="#BitstreamVeraSans-Roman-64"/>
      <use x="229.248046875" xlink:href="#BitstreamVeraSans-Roman-6f"/>
      <use x="290.4296875" xlink:href="#BitstreamVeraSans-Roman-6d"/>
      <use x="387.841796875" xlink:href="#BitstreamVeraSans-Roman-3a"/>
      <use x="421.533203125" xlink:href="#BitstreamVeraSans-Roman-20"/>
      <use x="453.3203125" xlink:href="#BitstreamVeraSans-Roman-73"/>
      <use x="505.419921875" xlink:href="#BitstreamVeraSans-Roman-74"/>
      <use x="544.62890625" xlink:href="#BitstreamVeraSans-Roman-65"/>
      <use x="606.15234375" xlink:href="#BitstreamVeraSans-Roman-70"/>
      <use x="669.62890625" xlink:href="#BitstreamVeraSans-Roman-3d"/>
      <use x="753.41796875" xlink:href="#BitstreamVeraSans-Roman-30"/>
      <use x="817.041015625" xlink:href="#BitstreamVeraSans-Roman-2e"/>
      <use x="848.828125" xlink:href="#BitstreamVeraSans-Roman-30"/>
      <use x="912.451171875" xlink:href="#BitstreamVeraSans-Roman-34"/>
      <use x="976.07421875" xlink:href="#BitstreamVeraSans-Roman-33"/>
      <use x="1039.69726562" xlink:href="#BitstreamVeraSans-Roman-37"/>
      <use x="1103.3203125" xlink:href="#BitstreamVeraSans-Roman-35"/>
      <use x="1166.94335938" xlink:href="#BitstreamVeraSans-Roman-30"/>
     </g>
    </g>
    <g id="line2d_35">
     <path d="M 864.876562 134.629687 
L 906.876562 134.629687 
" style="fill:none;stroke:#008000;stroke-dasharray:6.000000,6.000000;stroke-dashoffset:0.0;stroke-width:2.0;"/>
    </g>
    <g id="line2d_36"/>
    <g id="text_19">
     <!-- corr: step=0.043750 -->
     <defs>
      <path d="M 48.78125 52.59375 
L 48.78125 44.1875 
Q 44.96875 46.296875 41.140625 47.34375 
Q 37.3125 48.390625 33.40625 48.390625 
Q 24.65625 48.390625 19.8125 42.84375 
Q 14.984375 37.3125 14.984375 27.296875 
Q 14.984375 17.28125 19.8125 11.734375 
Q 24.65625 6.203125 33.40625 6.203125 
Q 37.3125 6.203125 41.140625 7.25 
Q 44.96875 8.296875 48.78125 10.40625 
L 48.78125 2.09375 
Q 45.015625 0.34375 40.984375 -0.53125 
Q 36.96875 -1.421875 32.421875 -1.421875 
Q 20.0625 -1.421875 12.78125 6.34375 
Q 5.515625 14.109375 5.515625 27.296875 
Q 5.515625 40.671875 12.859375 48.328125 
Q 20.21875 56 33.015625 56 
Q 37.15625 56 41.109375 55.140625 
Q 45.0625 54.296875 48.78125 52.59375 
" id="BitstreamVeraSans-Roman-63"/>
     </defs>
     <g transform="translate(939.8765625 145.1296875)scale(0.3 -0.3)">
      <use xlink:href="#BitstreamVeraSans-Roman-63"/>
      <use x="54.98046875" xlink:href="#BitstreamVeraSans-Roman-6f"/>
      <use x="116.162109375" xlink:href="#BitstreamVeraSans-Roman-72"/>
      <use x="157.259765625" xlink:href="#BitstreamVeraSans-Roman-72"/>
      <use x="198.357421875" xlink:href="#BitstreamVeraSans-Roman-3a"/>
      <use x="232.048828125" xlink:href="#BitstreamVeraSans-Roman-20"/>
      <use x="263.8359375" xlink:href="#BitstreamVeraSans-Roman-73"/>
      <use x="315.935546875" xlink:href="#BitstreamVeraSans-Roman-74"/>
      <use x="355.14453125" xlink:href="#BitstreamVeraSans-Roman-65"/>
      <use x="416.66796875" xlink:href="#BitstreamVeraSans-Roman-70"/>
      <use x="480.14453125" xlink:href="#BitstreamVeraSans-Roman-3d"/>
      <use x="563.93359375" xlink:href="#BitstreamVeraSans-Roman-30"/>
      <use x="627.556640625" xlink:href="#BitstreamVeraSans-Roman-2e"/>
      <use x="659.34375" xlink:href="#BitstreamVeraSans-Roman-30"/>
      <use x="722.966796875" xlink:href="#BitstreamVeraSans-Roman-34"/>
      <use x="786.58984375" xlink:href="#BitstreamVeraSans-Roman-33"/>
      <use x="850.212890625" xlink:href="#BitstreamVeraSans-Roman-37"/>
      <use x="913.8359375" xlink:href="#BitstreamVeraSans-Roman-35"/>
      <use x="977.458984375" xlink:href="#BitstreamVeraSans-Roman-30"/>
     </g>
    </g>
   </g>
  </g>
 </g>
 <defs>
  <clipPath id="p3f197272cf">
   <rect height="695.7" width="1137.4875" x="198.5625" y="51.3"/>
  </clipPath>
 </defs>
</svg>
