<?xml version="1.0" encoding="utf-8" standalone="no"?>
<!DOCTYPE svg PUBLIC "-//W3C//DTD SVG 1.1//EN"
  "http://www.w3.org/Graphics/SVG/1.1/DTD/svg11.dtd">
<!-- Created with matplotlib (http://matplotlib.org/) -->
<svg height="864pt" version="1.1" viewBox="0 0 1440 864" width="1440pt" xmlns="http://www.w3.org/2000/svg" xmlns:xlink="http://www.w3.org/1999/xlink">
 <defs>
  <style type="text/css">
*{stroke-linecap:butt;stroke-linejoin:round;stroke-miterlimit:100000;}
  </style>
 </defs>
 <g id="figure_1">
  <g id="patch_1">
   <path d="M 0 864 
L 1440 864 
L 1440 0 
L 0 0 
z
" style="fill:#ffffff;"/>
  </g>
  <g id="axes_1">
   <g id="patch_2">
    <path d="M 198.5625 747 
L 1336.05 747 
L 1336.05 51.3 
L 198.5625 51.3 
z
" style="fill:#ffffff;"/>
   </g>
   <g id="line2d_1">
    <path clip-path="url(#pb6bb3833a0)" d="M 199.699988 302.983588 
L 200.837475 445.468315 
L 201.974963 303.786326 
L 203.11245 417.21872 
L 204.249938 351.098498 
L 205.387425 444.66826 
L 206.524913 474.434182 
L 207.6624 478.536128 
L 208.799888 523.9553 
L 209.937375 470.786328 
L 211.074863 494.937653 
L 212.21235 471.454896 
L 213.349838 569.669847 
L 214.487325 498.513154 
L 215.624813 533.271121 
L 216.7623 391.791879 
L 217.899788 545.259721 
L 219.037275 574.515298 
L 220.174763 474.718922 
L 221.31225 513.808218 
L 222.449738 464.891364 
L 223.587225 565.641247 
L 224.724713 565.641247 
L 225.8622 548.389874 
L 226.999688 516.47086 
L 228.137175 528.758811 
L 229.274663 528.758811 
L 230.41215 575.667775 
L 232.687125 485.895939 
L 233.824613 485.895939 
L 234.9621 507.448824 
L 236.099588 539.942188 
L 237.237075 435.450533 
L 238.374563 572.947985 
L 239.51205 518.581217 
L 240.649538 517.498807 
L 241.787025 398.165982 
L 242.924513 492.288726 
L 244.062 564.128596 
L 245.199488 382.336322 
L 246.336975 494.951269 
L 247.474463 551.613549 
L 248.61195 562.09099 
L 249.749438 577.447872 
L 250.886925 528.664692 
L 252.024413 525.635913 
L 254.299388 614.001441 
L 255.436875 614.001441 
L 256.574363 486.682775 
L 257.71185 528.909778 
L 258.849338 528.909778 
L 259.986825 545.053993 
L 261.124313 536.435761 
L 262.2618 536.435761 
L 263.399288 599.17995 
L 264.536775 443.755899 
L 265.674263 443.755899 
L 266.81175 537.451383 
L 267.949238 474.380016 
L 269.086725 474.380016 
L 270.224213 547.58644 
L 271.3617 492.772535 
L 272.499188 569.0949 
L 273.636675 569.0949 
L 274.774163 548.92119 
L 275.91165 575.065298 
L 277.049138 575.065298 
L 278.186625 592.04823 
L 279.324113 575.515317 
L 280.4616 575.515317 
L 281.599088 581.330872 
L 282.736575 582.726943 
L 283.874063 582.726943 
L 285.01155 457.847103 
L 286.149038 569.228673 
L 287.286525 569.228673 
L 288.424013 501.842277 
L 289.5615 501.842277 
L 290.698988 547.353679 
L 291.836475 547.353679 
L 292.973963 592.477079 
L 294.11145 592.477079 
L 295.248938 574.260473 
L 296.386425 574.260473 
L 297.523913 587.049228 
L 298.6614 587.049228 
L 299.798888 576.356319 
L 300.936375 576.356319 
L 302.073863 525.676263 
L 303.21135 578.707884 
L 304.348838 492.716084 
L 305.486325 492.716084 
L 306.623813 549.278979 
L 307.7613 519.800679 
L 308.898788 582.430376 
L 310.036275 491.982121 
L 311.173763 491.982121 
L 312.31125 545.190946 
L 313.448738 545.190946 
L 314.586225 549.970505 
L 315.723713 580.901526 
L 316.8612 580.901526 
L 317.998688 558.697266 
L 319.136175 600.653045 
L 320.273663 600.653045 
L 321.41115 574.821704 
L 322.548638 572.702701 
L 323.686125 572.702701 
L 324.823613 576.113619 
L 325.9611 568.579685 
L 327.098588 571.307823 
L 328.236075 537.61855 
L 329.373563 559.442659 
L 330.51105 525.530266 
L 331.648538 525.530266 
L 332.786025 513.268553 
L 333.923513 564.446332 
L 335.061 548.633071 
L 336.198488 586.614614 
L 337.335975 571.345987 
L 338.473463 571.345987 
L 339.61095 493.643452 
L 340.748438 587.878701 
L 341.885925 587.878701 
L 343.023413 565.642439 
L 344.1609 559.586669 
L 345.298388 559.586669 
L 346.435875 537.757094 
L 347.573363 580.778486 
L 348.71085 580.778486 
L 349.848338 584.797147 
L 350.985825 584.797147 
L 352.123313 506.454172 
L 353.2608 506.454172 
L 354.398288 561.436038 
L 355.535775 585.215064 
L 356.673263 585.215064 
L 357.81075 588.498271 
L 358.948238 580.941081 
L 360.085725 580.941081 
L 361.223213 553.048977 
L 362.3607 547.330224 
L 363.498188 547.330224 
L 364.635675 541.723379 
L 365.773163 541.723379 
L 366.91065 597.775729 
L 368.048138 561.363487 
L 369.185625 516.566867 
L 370.323113 516.566867 
L 371.4606 507.155835 
L 372.598088 541.394512 
L 373.735575 541.394512 
L 374.873063 487.218166 
L 376.01055 574.209985 
L 377.148038 577.263213 
L 378.285525 577.263213 
L 379.423013 597.696916 
L 380.5605 527.485183 
L 381.697988 584.34693 
L 382.835475 584.34693 
L 383.972963 567.122591 
L 385.11045 595.173612 
L 386.247938 598.080446 
L 387.385425 580.375974 
L 388.522913 568.621029 
L 389.6604 568.621029 
L 390.797888 575.122743 
L 391.935375 575.122743 
L 393.072863 586.029033 
L 394.21035 588.063459 
L 395.347838 588.063459 
L 396.485325 566.861703 
L 397.622813 583.387858 
L 398.7603 397.818629 
L 399.897788 563.778361 
L 401.035275 555.450633 
L 402.172763 555.450633 
L 403.31025 562.818792 
L 404.447738 579.293465 
L 405.585225 586.564126 
L 406.722713 564.691119 
L 407.8602 515.121898 
L 408.997688 569.850828 
L 410.135175 601.5664 
L 411.272663 601.5664 
L 412.41015 577.934166 
L 413.547638 575.300942 
L 414.685125 575.300942 
L 415.822613 546.637605 
L 416.9601 546.637605 
L 418.097588 577.080046 
L 419.235075 577.080046 
L 420.372563 554.877575 
L 421.51005 554.877575 
L 422.647538 607.91665 
L 423.785025 607.91665 
L 424.922513 574.605341 
L 426.06 570.20653 
L 427.197488 539.619681 
L 428.334975 585.225102 
L 429.472463 585.225102 
L 430.60995 539.301747 
L 431.747438 512.358379 
L 432.884925 512.358379 
L 434.022413 579.29754 
L 435.1599 579.29754 
L 436.297388 482.329085 
L 437.434875 482.329085 
L 438.572363 582.871847 
L 439.70985 582.871847 
L 440.847338 586.063023 
L 441.984825 586.063023 
L 443.122313 598.034231 
L 444.2598 595.768436 
L 445.397288 595.768436 
L 446.534775 582.774449 
L 447.672263 565.710519 
L 448.80975 565.710519 
L 449.947238 591.269841 
L 451.084725 551.692263 
L 452.222213 576.138863 
L 453.3597 555.06939 
L 454.497188 555.06939 
L 455.634675 527.179671 
L 456.772163 594.956057 
L 457.90965 594.956057 
L 459.047138 568.061985 
L 460.184625 593.63214 
L 461.322113 610.462614 
L 462.4596 550.107061 
L 463.597088 550.107061 
L 464.734575 608.914781 
L 465.872063 556.495276 
L 467.00955 556.495276 
L 468.147038 606.889002 
L 469.284525 552.80906 
L 470.422013 541.000348 
L 471.5595 542.626795 
L 472.696988 535.52817 
L 473.834475 557.60134 
L 474.971963 568.969277 
L 476.10945 568.969277 
L 477.246938 500.775968 
L 478.384425 581.834161 
L 479.521913 581.834161 
L 480.6594 548.404882 
L 481.796888 614.297908 
L 482.934375 614.297908 
L 484.071863 600.649368 
L 485.20935 554.607147 
L 486.346838 554.607147 
L 487.484325 607.585497 
L 488.621813 573.262044 
L 489.7593 591.02247 
L 490.896788 590.382128 
L 492.034275 590.706821 
L 493.171763 590.706821 
L 494.30925 600.851618 
L 495.446738 600.851618 
L 496.584225 521.606021 
L 497.721713 587.508191 
L 498.8592 587.508191 
L 499.996688 580.397342 
L 501.134175 530.178834 
L 502.271663 530.178834 
L 503.40915 584.618651 
L 504.546638 570.634584 
L 505.684125 570.634584 
L 506.821613 574.598981 
L 507.9591 597.478765 
L 509.096588 597.478765 
L 510.234075 616.03527 
L 511.371563 584.188907 
L 512.50905 614.44818 
L 513.646538 606.631096 
L 514.784025 591.485905 
L 515.921513 591.485905 
L 517.059 603.503328 
L 518.196488 603.503328 
L 520.471463 519.794617 
L 521.60895 519.794617 
L 522.746438 626.150351 
L 523.883925 626.150351 
L 525.021413 616.467002 
L 526.1589 616.467002 
L 527.296388 615.434881 
L 528.433875 610.994228 
L 529.571363 585.588158 
L 530.70885 618.323527 
L 531.846338 618.323527 
L 532.983825 571.086292 
L 534.121313 613.151991 
L 535.2588 587.557685 
L 536.396288 551.630346 
L 537.533775 553.97068 
L 538.671263 605.531492 
L 539.80875 605.531492 
L 540.946238 569.60137 
L 542.083725 596.881456 
L 543.221213 596.881456 
L 544.3587 607.362276 
L 545.496188 597.245407 
L 546.633675 612.041555 
L 547.771163 612.041555 
L 548.90865 554.623843 
L 550.046138 554.623843 
L 551.183625 572.485046 
L 552.321113 572.485046 
L 553.4586 571.727032 
L 554.596088 571.727032 
L 555.733575 571.091162 
L 556.871063 571.091162 
L 558.00855 608.323933 
L 559.146038 608.323933 
L 560.283525 609.445401 
L 561.421013 593.514964 
L 562.5585 593.514964 
L 563.695988 603.778527 
L 564.833475 591.172443 
L 565.970963 591.172443 
L 567.10845 592.183096 
L 568.245938 592.183096 
L 569.383425 626.627402 
L 570.520913 626.627402 
L 571.6584 593.610275 
L 572.795888 574.10076 
L 573.933375 587.361597 
L 575.070863 587.361597 
L 576.20835 576.819456 
L 577.345838 576.819456 
L 578.483325 597.938125 
L 579.620813 587.439217 
L 580.7583 587.439217 
L 581.895788 549.038466 
L 583.033275 549.038466 
L 584.170763 601.185156 
L 585.30825 560.41326 
L 586.445738 560.41326 
L 587.583225 586.075049 
L 588.720713 614.679351 
L 589.8582 618.557381 
L 590.995688 583.114349 
L 592.133175 618.557381 
L 593.270663 604.776558 
L 594.40815 576.296687 
L 595.545638 604.776558 
L 596.683125 591.270835 
L 597.820613 618.900461 
L 598.9581 577.523604 
L 600.095588 592.386439 
L 601.233075 597.086986 
L 602.370563 610.878046 
L 603.50805 575.938899 
L 604.645538 553.034765 
L 605.783025 585.218046 
L 606.920513 579.072431 
L 608.058 613.305443 
L 609.195488 626.557236 
L 611.470463 565.310491 
L 612.60795 565.310491 
L 613.745438 619.676961 
L 614.882925 620.796939 
L 616.020413 542.431105 
L 617.1579 620.796939 
L 618.295388 629.33775 
L 619.432875 556.204573 
L 620.570363 629.33775 
L 621.70785 581.713904 
L 622.845338 583.551745 
L 623.982825 591.090549 
L 625.120313 589.225179 
L 626.2578 560.237546 
L 627.395288 474.221297 
L 628.532775 588.807957 
L 629.670263 627.047804 
L 630.80775 593.840949 
L 631.945238 611.198565 
L 633.082725 607.765981 
L 634.220213 605.193283 
L 635.3577 551.334375 
L 636.495188 548.040534 
L 637.632675 607.308807 
L 638.770163 610.713066 
L 639.90765 594.690001 
L 641.045138 605.82637 
L 642.182625 588.940737 
L 643.320113 605.82637 
L 644.4576 606.083878 
L 645.595088 609.147244 
L 646.732575 606.083878 
L 647.870063 598.431874 
L 649.00755 519.139367 
L 650.145038 594.844149 
L 651.282525 548.105532 
L 652.420013 604.421254 
L 653.5575 553.428432 
L 654.694988 527.114673 
L 655.832475 577.853863 
L 656.969963 584.970874 
L 658.10745 613.880886 
L 660.382425 563.273481 
L 661.519913 553.658709 
L 662.6574 606.203936 
L 663.794888 606.203936 
L 664.932375 586.96952 
L 666.069863 601.916337 
L 667.20735 588.113251 
L 668.344838 601.916337 
L 669.482325 544.221836 
L 670.619813 573.841164 
L 671.7573 544.221836 
L 672.894788 597.627943 
L 674.032275 605.661588 
L 675.169763 576.68131 
L 676.30725 605.142198 
L 677.444738 590.974864 
L 678.582225 580.693611 
L 679.719713 548.046397 
L 680.8572 600.589736 
L 681.994688 620.125589 
L 683.132175 618.966354 
L 684.269663 604.345721 
L 685.40715 592.341418 
L 686.544638 568.842262 
L 687.682125 596.268346 
L 688.819613 607.418529 
L 689.9571 569.89903 
L 691.094588 580.313858 
L 692.232075 513.900149 
L 693.369563 580.313858 
L 694.50705 592.859615 
L 695.644538 587.514154 
L 696.782025 592.859615 
L 697.919513 610.430512 
L 699.057 583.642186 
L 700.194488 619.022506 
L 701.331975 512.415724 
L 702.469463 618.445374 
L 703.60695 609.769597 
L 704.744438 593.115334 
L 705.881925 592.692448 
L 707.019413 631.999796 
L 708.1569 616.958464 
L 709.294388 628.061041 
L 710.431875 582.862803 
L 711.569363 608.937043 
L 712.70685 598.869668 
L 713.844338 568.489144 
L 714.981825 613.516339 
L 716.119313 578.599454 
L 717.2568 561.425603 
L 718.394288 578.599454 
L 719.531775 538.548701 
L 720.669263 590.923581 
L 721.80675 611.112199 
L 722.944238 602.296984 
L 724.081725 598.331096 
L 725.219213 609.444208 
L 726.3567 598.331096 
L 727.494188 618.316669 
L 728.631675 587.825927 
L 729.769163 587.475096 
L 730.90665 549.050491 
L 732.044138 551.591088 
L 733.181625 599.91769 
L 734.319113 596.161308 
L 735.4566 581.010154 
L 736.594088 607.291216 
L 737.731575 466.543353 
L 738.869063 596.589759 
L 740.00655 596.589759 
L 741.144038 580.77143 
L 742.281525 620.895828 
L 743.419013 622.107141 
L 744.5565 576.885945 
L 745.693988 622.107141 
L 746.831475 570.695209 
L 747.968963 597.14622 
L 749.10645 615.287492 
L 750.243938 612.529041 
L 751.381425 571.697415 
L 752.518913 518.266263 
L 753.6564 604.223675 
L 754.793888 597.459384 
L 755.931375 596.492759 
L 757.068863 597.03789 
L 758.20635 602.688564 
L 759.343838 580.716768 
L 760.481325 610.042113 
L 761.618813 593.515163 
L 762.7563 603.669898 
L 763.893788 585.671941 
L 765.031275 597.219268 
L 766.168763 619.011673 
L 767.30625 597.219268 
L 768.443738 530.052713 
L 769.581225 557.667928 
L 770.718713 530.052713 
L 771.8562 612.140841 
L 772.993688 544.924096 
L 774.131175 609.747732 
L 775.268663 582.963978 
L 776.40615 563.404671 
L 777.543638 556.741355 
L 778.681125 522.462129 
L 779.818613 570.333743 
L 780.9561 610.268911 
L 782.093588 547.637425 
L 783.231075 617.494948 
L 784.368563 593.614549 
L 785.50605 609.768206 
L 787.781025 569.999608 
L 788.918513 534.257822 
L 790.056 534.257822 
L 791.193488 584.593307 
L 792.330975 570.143519 
L 793.468463 578.625493 
L 794.60595 595.365725 
L 795.743438 577.206961 
L 796.880925 621.192892 
L 798.018413 578.489136 
L 799.1559 612.77999 
L 800.293388 578.489136 
L 801.430875 605.530498 
L 802.568363 604.931799 
L 803.70585 610.759479 
L 804.843338 527.460535 
L 805.980825 605.489054 
L 807.118313 539.44526 
L 808.2558 603.618715 
L 809.393288 595.534681 
L 810.530775 623.395577 
L 811.668263 566.936541 
L 812.80575 588.85129 
L 813.943238 566.936541 
L 815.080725 588.089498 
L 816.218213 630.942233 
L 817.3557 620.461413 
L 818.493188 604.458623 
L 819.630675 630.833107 
L 820.768163 611.829465 
L 821.90565 609.412902 
L 823.043138 606.115284 
L 824.180625 625.243953 
L 825.318113 598.92274 
L 826.4556 615.345931 
L 827.593088 552.308256 
L 828.730575 615.345931 
L 829.868063 629.515054 
L 831.00555 618.751084 
L 832.143038 570.049898 
L 833.280525 634.883671 
L 834.418013 624.175656 
L 835.5555 610.562496 
L 836.692988 598.315095 
L 837.830475 626.446619 
L 838.967963 632.201549 
L 840.10545 583.328127 
L 841.242938 587.970533 
L 842.380425 587.970533 
L 843.517913 614.565157 
L 844.6554 615.916206 
L 845.792888 578.97543 
L 846.930375 633.701876 
L 848.067863 578.97543 
L 849.20535 623.764497 
L 850.342838 617.87162 
L 851.480325 598.242842 
L 852.617813 595.506554 
L 853.7553 618.862794 
L 856.030275 537.946523 
L 857.167763 557.526105 
L 858.30525 618.456704 
L 859.442738 627.912956 
L 860.580225 610.126988 
L 861.717713 438.989658 
L 862.8552 564.385409 
L 863.992688 602.243117 
L 865.130175 625.141884 
L 866.267663 623.237852 
L 867.40515 639.991501 
L 868.542638 621.076114 
L 869.680125 624.286173 
L 870.817613 624.85118 
L 871.9551 635.062566 
L 873.092588 628.889123 
L 874.230075 583.276447 
L 875.367563 602.747301 
L 876.50505 627.349737 
L 877.642538 616.531006 
L 878.780025 610.611295 
L 879.917513 578.861634 
L 881.055 606.806909 
L 882.192488 588.710857 
L 883.329975 626.876562 
L 884.467463 560.400141 
L 885.60495 560.400141 
L 886.742438 598.62826 
L 887.879925 565.280079 
L 889.017413 617.804833 
L 890.1549 616.298642 
L 891.292388 565.668081 
L 892.429875 620.197743 
L 893.567363 566.025273 
L 894.70485 563.939565 
L 895.842338 615.475132 
L 896.979825 617.151272 
L 898.117313 614.961109 
L 899.2548 621.582484 
L 900.392288 582.539104 
L 901.529775 568.475827 
L 902.667263 571.695228 
L 903.80475 606.421193 
L 904.942238 607.60269 
L 906.079725 634.420435 
L 907.217213 608.182606 
L 908.3547 519.104284 
L 909.492188 589.337385 
L 910.629675 604.958931 
L 911.767163 554.052674 
L 912.90465 629.999559 
L 914.042138 631.374163 
L 915.179625 612.371018 
L 916.317113 610.499188 
L 917.4546 559.509347 
L 918.592088 580.830962 
L 919.729575 604.424037 
L 920.867063 617.790024 
L 922.00455 621.636351 
L 923.142038 605.283922 
L 924.279525 626.082172 
L 925.417013 612.411766 
L 926.5545 603.854458 
L 927.691988 608.840639 
L 928.829475 578.495497 
L 929.966963 583.716825 
L 931.10445 625.923453 
L 932.241938 563.388073 
L 933.379425 619.02191 
L 934.516913 634.994685 
L 935.6544 589.945427 
L 936.791888 622.019085 
L 937.929375 615.456845 
L 939.066863 628.11461 
L 940.20435 628.11461 
L 941.341838 587.749201 
L 942.479325 587.749201 
L 943.616813 617.495445 
L 944.7543 618.436826 
L 947.029275 618.436826 
L 948.166763 587.399264 
L 949.30425 615.472747 
L 950.441738 621.352406 
L 951.579225 585.671742 
L 952.716713 565.019887 
L 953.8542 619.068721 
L 954.991688 567.33468 
L 956.129175 621.291582 
L 957.266663 568.847927 
L 958.40415 582.162035 
L 959.541638 599.100243 
L 960.679125 602.235762 
L 961.816613 621.277966 
L 962.9541 634.325621 
L 964.091588 540.126648 
L 965.229075 622.210701 
L 966.366563 617.875794 
L 967.50405 617.875794 
L 968.641538 633.711616 
L 969.779025 629.872942 
L 970.916513 623.66541 
L 972.054 631.776675 
L 973.191488 624.684511 
L 974.328975 587.50024 
L 975.466463 600.888092 
L 976.60395 632.046209 
L 977.741438 628.224431 
L 978.878925 587.350068 
L 980.016413 587.350068 
L 981.1539 598.542589 
L 982.291388 626.135443 
L 983.428875 601.348646 
L 984.566363 631.032773 
L 985.70385 629.54487 
L 986.841338 600.905683 
L 987.978825 585.845667 
L 989.116313 580.982923 
L 990.2538 621.491347 
L 991.391288 616.324681 
L 992.528775 587.491693 
L 993.666263 575.263473 
L 994.80375 634.886057 
L 995.941238 631.323576 
L 997.078725 640.837472 
L 998.216213 623.561154 
L 999.3537 626.506251 
L 1000.491188 623.818464 
L 1001.628675 611.474957 
L 1002.766163 595.359265 
L 1003.90365 573.60403 
L 1005.041138 591.415938 
L 1006.178625 591.415938 
L 1007.316113 635.19932 
L 1008.4536 625.118528 
L 1009.591088 556.086304 
L 1010.728575 630.531273 
L 1011.866063 633.231285 
L 1013.00355 630.472635 
L 1014.141038 600.232643 
L 1015.278525 600.232643 
L 1016.416013 623.283768 
L 1017.5535 635.77695 
L 1018.690988 612.893191 
L 1019.828475 634.86608 
L 1020.965963 634.86608 
L 1022.10345 583.153904 
L 1023.240938 610.377937 
L 1024.378425 620.024116 
L 1025.515913 620.024116 
L 1026.6534 620.655414 
L 1027.790888 603.863005 
L 1028.928375 603.863005 
L 1030.065863 620.726773 
L 1031.20335 619.002828 
L 1032.340838 609.767112 
L 1033.478325 619.234397 
L 1034.615813 619.234397 
L 1035.7533 630.951774 
L 1036.890788 628.492474 
L 1038.028275 611.129591 
L 1039.165763 628.27313 
L 1040.30325 628.27313 
L 1041.440738 622.397347 
L 1042.578225 622.397347 
L 1043.715713 584.264738 
L 1044.8532 518.0661 
L 1045.990688 518.0661 
L 1047.128175 615.959836 
L 1048.265663 621.794374 
L 1049.40315 599.028784 
L 1051.678125 599.028784 
L 1052.815613 595.929441 
L 1055.090588 595.929441 
L 1056.228075 576.319745 
L 1057.365563 599.961519 
L 1058.50305 599.795346 
L 1059.640538 638.251257 
L 1060.778025 627.736745 
L 1061.915513 612.266862 
L 1063.053 612.266862 
L 1064.190488 637.728985 
L 1065.327975 616.164472 
L 1067.60295 616.164472 
L 1068.740438 643.842797 
L 1069.877925 629.014249 
L 1071.015413 595.500293 
L 1072.1529 612.163799 
L 1073.290388 590.678098 
L 1074.427875 572.242545 
L 1075.565363 637.702847 
L 1076.70285 578.381601 
L 1077.840338 627.4366 
L 1078.977825 636.930421 
L 1080.115313 601.937903 
L 1081.2528 580.599691 
L 1082.390288 602.328887 
L 1083.527775 596.404803 
L 1084.665263 596.404803 
L 1085.80275 610.528805 
L 1086.940238 631.892857 
L 1088.077725 629.94122 
L 1089.215213 602.674849 
L 1090.3527 596.875791 
L 1091.490188 599.309847 
L 1092.627675 606.027129 
L 1093.765163 641.189496 
L 1094.90265 631.479214 
L 1096.040138 637.909768 
L 1097.177625 571.075558 
L 1098.315113 584.637037 
L 1099.4526 592.114023 
L 1100.590088 572.750207 
L 1101.727575 578.405255 
L 1102.865063 627.49653 
L 1104.00255 606.512528 
L 1105.140038 624.954144 
L 1107.415013 610.123808 
L 1108.5525 638.66003 
L 1110.827475 632.280461 
L 1111.964963 581.700984 
L 1113.10245 642.483796 
L 1114.239938 642.483796 
L 1115.377425 600.260173 
L 1116.514913 594.692983 
L 1117.6524 627.706333 
L 1119.927375 559.317334 
L 1121.064863 607.480347 
L 1122.20235 621.237715 
L 1123.339838 636.495111 
L 1124.477325 598.81421 
L 1125.614813 592.076058 
L 1126.7523 556.64038 
L 1127.889788 598.924727 
L 1129.027275 598.924727 
L 1130.164763 601.202052 
L 1131.30225 595.293472 
L 1132.439738 643.922305 
L 1133.577225 634.714119 
L 1136.989688 634.713722 
L 1138.127175 637.624531 
L 1139.264663 614.936362 
L 1140.40215 606.435505 
L 1141.539638 586.276504 
L 1142.677125 606.852428 
L 1143.814613 620.518261 
L 1144.9521 617.959974 
L 1146.089588 613.752678 
L 1147.227075 631.04619 
L 1148.364563 631.04619 
L 1149.50205 633.116892 
L 1150.639538 634.029153 
L 1151.777025 600.947028 
L 1152.914513 588.170994 
L 1154.052 617.959179 
L 1155.189488 618.767781 
L 1156.326975 623.456401 
L 1157.464463 644.090267 
L 1158.60195 641.6581 
L 1159.739438 619.50244 
L 1160.876925 579.058616 
L 1162.014413 637.817935 
L 1163.1519 629.43803 
L 1164.289388 595.822899 
L 1165.426875 608.307335 
L 1166.564363 643.965041 
L 1167.70185 566.014937 
L 1168.839338 631.073323 
L 1169.976825 634.684602 
L 1171.114313 603.839748 
L 1172.2518 626.306585 
L 1173.389288 633.448641 
L 1174.526775 601.295574 
L 1175.664263 637.00496 
L 1176.80175 636.003649 
L 1177.939238 596.878674 
L 1179.076725 650.238824 
L 1180.214213 608.7661 
L 1181.3517 615.582966 
L 1182.489188 648.169226 
L 1183.626675 606.510441 
L 1184.764163 632.920406 
L 1185.90165 644.83725 
L 1187.039138 612.890408 
L 1188.176625 623.553203 
L 1189.314113 554.619272 
L 1190.4516 576.073765 
L 1191.589088 623.152679 
L 1192.726575 592.339032 
L 1193.864063 628.536105 
L 1195.00155 600.399512 
L 1196.139038 618.58352 
L 1197.276525 638.865958 
L 1198.414013 628.112523 
L 1199.5515 639.327803 
L 1200.688988 589.062186 
L 1201.826475 638.133485 
L 1202.963963 614.998677 
L 1204.10145 627.696693 
L 1205.238938 632.853221 
L 1206.376425 619.120401 
L 1207.513913 615.447801 
L 1208.6514 604.014568 
L 1209.788888 625.825757 
L 1210.926375 580.272911 
L 1212.063863 578.803493 
L 1213.20135 615.465492 
L 1214.338838 646.412216 
L 1215.476325 645.844226 
L 1216.613813 637.242393 
L 1217.7513 578.161163 
L 1218.888788 633.637971 
L 1220.026275 636.003152 
L 1221.163763 607.778702 
L 1222.30125 599.198336 
L 1223.438738 582.711141 
L 1224.576225 644.214102 
L 1225.713713 582.442998 
L 1226.8512 626.968891 
L 1227.988688 622.178897 
L 1229.126175 635.294333 
L 1230.263663 643.276 
L 1231.40115 582.199205 
L 1232.538638 620.964603 
L 1233.676125 631.171516 
L 1234.813613 606.149671 
L 1235.9511 634.772558 
L 1237.088588 614.764524 
L 1238.226075 620.21106 
L 1239.363563 621.11388 
L 1240.50105 626.601164 
L 1241.638538 642.315238 
L 1242.776025 597.299075 
L 1243.913513 640.531563 
L 1245.051 630.253589 
L 1246.188488 610.800128 
L 1247.325975 636.970871 
L 1248.463463 636.970871 
L 1249.60095 623.42917 
L 1250.738438 623.349164 
L 1251.875925 622.44704 
L 1253.013413 622.44704 
L 1254.1509 633.276903 
L 1255.288388 637.623537 
L 1256.425875 634.924618 
L 1257.563363 634.924618 
L 1258.70085 538.69132 
L 1259.838338 636.735625 
L 1260.975825 631.740598 
L 1262.113313 631.740598 
L 1263.2508 636.084648 
L 1264.388288 633.134781 
L 1265.525775 628.499829 
L 1266.663263 628.499829 
L 1267.80075 622.029024 
L 1268.938238 640.77307 
L 1270.075725 649.303157 
L 1271.213213 649.303157 
L 1272.3507 621.012507 
L 1273.488188 631.986578 
L 1274.625675 593.598349 
L 1275.763163 628.811105 
L 1276.90065 633.235757 
L 1278.038138 615.878936 
L 1279.175625 580.582001 
L 1280.313113 615.269702 
L 1281.4506 636.541922 
L 1282.588088 613.697321 
L 1283.725575 579.237411 
L 1284.863063 632.049091 
L 1286.00055 618.822145 
L 1287.138038 620.111774 
L 1288.275525 620.767024 
L 1289.413013 620.582564 
L 1290.5505 592.126645 
L 1292.825475 622.284346 
L 1293.962963 622.284346 
L 1295.10045 632.489569 
L 1296.237938 644.828305 
L 1297.375425 644.828305 
L 1298.512913 565.012433 
L 1299.6504 619.40693 
L 1300.787888 633.670072 
L 1301.925375 622.154647 
L 1303.062863 622.154647 
L 1304.20035 635.042192 
L 1305.337838 636.189302 
L 1306.475325 636.189302 
L 1307.612813 594.454259 
L 1308.7503 594.454259 
L 1309.887788 638.495249 
L 1311.025275 629.973023 
L 1312.162763 631.309264 
L 1313.30025 573.127774 
L 1314.437738 632.364442 
L 1315.575225 588.973236 
L 1316.712713 588.973236 
L 1317.8502 617.879869 
L 1318.987688 611.769933 
L 1320.125175 562.119613 
L 1321.262663 562.119613 
L 1322.40015 614.227643 
L 1323.537638 614.227643 
L 1324.675125 616.138432 
L 1325.812613 616.138432 
L 1326.9501 567.052424 
L 1328.087588 567.052424 
L 1329.225075 628.585201 
L 1330.362563 628.585201 
L 1331.50005 652.318271 
L 1332.637538 652.318271 
L 1333.775025 642.00108 
L 1334.912513 642.00108 
L 1336.05 634.427193 
L 1336.05 634.427193 
" style="fill:none;stroke:#0000ff;stroke-linecap:square;stroke-width:2.0;"/>
   </g>
   <g id="line2d_2">
    <path clip-path="url(#pb6bb3833a0)" d="M 199.699988 131.88303 
L 200.837475 131.88303 
L 201.974963 131.88303 
L 203.11245 427.844147 
L 204.249938 351.104461 
L 205.387425 351.104461 
L 206.524913 472.778316 
L 207.6624 545.908014 
L 208.799888 475.395341 
L 209.937375 545.908014 
L 211.074863 545.908014 
L 212.21235 497.316053 
L 213.349838 491.338002 
L 214.487325 317.279626 
L 215.624813 534.864174 
L 216.7623 563.725388 
L 217.899788 563.725388 
L 219.037275 390.144561 
L 220.174763 502.660122 
L 221.31225 511.368398 
L 222.449738 452.471529 
L 223.587225 524.934548 
L 224.724713 561.711734 
L 225.8622 524.934548 
L 226.999688 524.934548 
L 228.137175 531.390942 
L 229.274663 528.755332 
L 230.41215 542.756394 
L 231.549638 523.210504 
L 232.687125 546.584831 
L 233.824613 507.889898 
L 236.099588 507.889898 
L 237.237075 474.956951 
L 238.374563 458.549959 
L 239.51205 553.631477 
L 240.649538 505.888071 
L 241.787025 496.941369 
L 242.924513 496.941369 
L 244.062 484.839965 
L 245.199488 479.39164 
L 246.336975 564.512523 
L 247.474463 581.876201 
L 248.61195 581.876201 
L 249.749438 536.493305 
L 250.886925 448.159083 
L 252.024413 558.245459 
L 253.1619 468.525403 
L 254.299388 468.525403 
L 255.436875 548.40518 
L 256.574363 552.354768 
L 257.71185 511.055432 
L 258.849338 542.796546 
L 259.986825 511.055432 
L 261.124313 511.055432 
L 262.2618 545.08848 
L 263.399288 557.213139 
L 264.536775 537.620836 
L 265.674263 598.671691 
L 266.81175 515.497675 
L 267.949238 515.930798 
L 269.086725 528.834145 
L 270.224213 585.880154 
L 271.3617 532.76962 
L 272.499188 532.76962 
L 273.636675 574.062993 
L 274.774163 525.917572 
L 275.91165 533.221925 
L 277.049138 583.594083 
L 278.186625 583.594083 
L 279.324113 273.23645 
L 280.4616 566.993688 
L 281.599088 539.765083 
L 282.736575 563.138317 
L 283.874063 563.138317 
L 285.01155 444.289401 
L 286.149038 511.539937 
L 287.286525 466.299362 
L 288.424013 452.792843 
L 289.5615 508.649006 
L 290.698988 508.649006 
L 291.836475 482.054084 
L 292.973963 390.844535 
L 294.11145 586.055768 
L 295.248938 507.846963 
L 296.386425 507.846963 
L 297.523913 500.518757 
L 298.6614 561.382171 
L 299.798888 569.133164 
L 300.936375 578.646364 
L 302.073863 578.646364 
L 303.21135 563.523536 
L 304.348838 546.865695 
L 305.486325 571.028052 
L 306.623813 506.10493 
L 307.7613 502.643425 
L 308.898788 502.643425 
L 311.173763 552.500567 
L 312.31125 559.260584 
L 313.448738 559.002778 
L 314.586225 559.002778 
L 315.723713 553.030591 
L 316.8612 576.88187 
L 317.998688 575.181281 
L 319.136175 581.858113 
L 320.273663 581.858113 
L 321.41115 564.383123 
L 322.548638 537.420176 
L 323.686125 556.998069 
L 324.823613 545.840531 
L 325.9611 519.728426 
L 327.098588 519.728426 
L 328.236075 534.150585 
L 330.51105 462.794425 
L 331.648538 538.617873 
L 332.786025 555.36208 
L 333.923513 535.812314 
L 335.061 551.930789 
L 336.198488 577.207557 
L 337.335975 577.94003 
L 338.473463 561.209538 
L 339.61095 583.933883 
L 340.748438 538.524053 
L 341.885925 482.817068 
L 343.023413 518.466525 
L 344.1609 562.495788 
L 345.298388 454.610409 
L 346.435875 551.491901 
L 347.573363 528.504681 
L 348.71085 591.531523 
L 349.848338 528.263472 
L 350.985825 591.472687 
L 352.123313 574.010915 
L 353.2608 587.686986 
L 354.398288 531.64527 
L 355.535775 576.502913 
L 356.673263 490.807084 
L 357.81075 584.441048 
L 358.948238 584.441048 
L 360.085725 544.098797 
L 361.223213 595.037454 
L 362.3607 510.825553 
L 363.498188 576.477867 
L 364.635675 582.477385 
L 365.773163 511.754114 
L 366.91065 588.424925 
L 368.048138 565.645023 
L 369.185625 591.662911 
L 370.323113 570.27769 
L 371.4606 585.060321 
L 372.598088 566.834969 
L 373.735575 566.834969 
L 374.873063 576.336939 
L 376.01055 560.180399 
L 377.148038 560.180399 
L 378.285525 571.683401 
L 379.423013 587.862402 
L 380.5605 552.41599 
L 381.697988 609.819787 
L 382.835475 571.946475 
L 383.972963 589.714454 
L 385.11045 601.70713 
L 386.247938 573.705404 
L 387.385425 594.638023 
L 388.522913 515.58752 
L 389.6604 556.85227 
L 390.797888 553.782543 
L 391.935375 583.895421 
L 393.072863 598.797712 
L 394.21035 598.797712 
L 395.347838 585.258297 
L 396.485325 549.519492 
L 397.622813 370.645283 
L 398.7603 592.039384 
L 399.897788 592.039384 
L 401.035275 590.631884 
L 402.172763 604.07579 
L 403.31025 606.061019 
L 404.447738 606.061019 
L 405.585225 559.838512 
L 406.722713 559.838512 
L 407.8602 574.757898 
L 408.997688 574.757898 
L 410.135175 580.09183 
L 411.272663 569.116865 
L 412.41015 569.116865 
L 413.547638 518.075443 
L 414.685125 554.24588 
L 415.822613 554.24588 
L 416.9601 520.962697 
L 418.097588 593.893326 
L 419.235075 593.893326 
L 420.372563 578.757577 
L 421.51005 578.757577 
L 422.647538 378.458789 
L 423.785025 582.606984 
L 424.922513 555.205449 
L 426.06 555.205449 
L 427.197488 549.541755 
L 428.334975 553.794271 
L 429.472463 553.794271 
L 430.60995 594.645675 
L 431.747438 586.937021 
L 432.884925 586.937021 
L 434.022413 576.051602 
L 435.1599 576.051602 
L 436.297388 585.021362 
L 437.434875 585.021362 
L 438.572363 509.371142 
L 439.70985 586.963756 
L 440.847338 585.994447 
L 441.984825 570.339309 
L 443.122313 570.339309 
L 444.2598 575.615498 
L 445.397288 575.615498 
L 446.534775 548.392061 
L 447.672263 548.392061 
L 448.80975 568.929026 
L 449.947238 566.860511 
L 451.084725 601.60039 
L 452.222213 576.870839 
L 453.3597 591.778099 
L 454.497188 544.860191 
L 455.634675 543.789906 
L 456.772163 579.309565 
L 457.90965 581.998645 
L 459.047138 580.110316 
L 460.184625 414.732289 
L 461.322113 595.293372 
L 462.4596 602.02586 
L 464.734575 602.02586 
L 465.872063 605.525131 
L 467.00955 605.525131 
L 468.147038 575.71866 
L 469.284525 575.71866 
L 470.422013 527.47425 
L 471.5595 527.47425 
L 472.696988 563.540332 
L 473.834475 563.540332 
L 474.971963 551.100123 
L 477.246938 551.100123 
L 478.384425 524.595444 
L 479.521913 524.595444 
L 480.6594 602.468027 
L 481.796888 590.738425 
L 482.934375 590.738425 
L 484.071863 584.200137 
L 485.20935 571.19502 
L 486.346838 571.19502 
L 487.484325 525.098435 
L 488.621813 602.783278 
L 489.7593 602.783278 
L 490.896788 554.377367 
L 492.034275 570.819839 
L 493.171763 570.819839 
L 494.30925 575.996344 
L 495.446738 555.828696 
L 496.584225 555.828696 
L 497.721713 578.150927 
L 498.8592 593.41041 
L 499.996688 593.41041 
L 501.134175 525.602618 
L 502.271663 501.648375 
L 503.40915 501.648375 
L 504.546638 568.100049 
L 505.684125 551.284583 
L 506.821613 551.284583 
L 507.9591 522.070649 
L 509.096588 605.272791 
L 511.371563 534.320932 
L 512.50905 545.074864 
L 513.646538 575.13626 
L 514.784025 575.13626 
L 515.921513 583.794246 
L 517.059 583.794246 
L 518.196488 606.915239 
L 519.333975 571.003106 
L 520.471463 571.003106 
L 521.60895 566.583423 
L 522.746438 566.583423 
L 523.883925 606.438387 
L 525.021413 606.438387 
L 526.1589 598.887557 
L 527.296388 598.887557 
L 528.433875 602.106064 
L 529.571363 606.160703 
L 530.70885 606.160703 
L 531.846338 592.93326 
L 532.983825 592.93326 
L 534.121313 511.163564 
L 535.2588 511.163564 
L 536.396288 604.775564 
L 537.533775 604.775564 
L 538.671263 600.925461 
L 539.80875 595.423965 
L 540.946238 588.506819 
L 542.083725 588.506819 
L 543.221213 567.630949 
L 544.3587 567.630949 
L 545.496188 566.950455 
L 546.633675 566.950455 
L 547.771163 591.273319 
L 548.90865 558.22747 
L 550.046138 558.22747 
L 551.183625 513.550113 
L 552.321113 587.573487 
L 553.4586 601.816057 
L 554.596088 598.610768 
L 555.733575 620.037433 
L 556.871063 604.825058 
L 558.00855 562.862025 
L 559.146038 494.582648 
L 560.283525 403.030515 
L 561.421013 574.044607 
L 562.5585 601.422986 
L 563.695988 601.422986 
L 564.833475 572.566543 
L 565.970963 552.729552 
L 567.10845 552.729552 
L 568.245938 550.561552 
L 569.383425 577.782106 
L 570.520913 577.782106 
L 571.6584 603.067323 
L 572.795888 614.820379 
L 573.933375 609.775163 
L 575.070863 603.698024 
L 576.20835 603.698024 
L 577.345838 584.988465 
L 578.483325 477.554794 
L 579.620813 595.215951 
L 580.7583 592.200191 
L 581.895788 550.610251 
L 583.033275 587.202083 
L 584.170763 587.202083 
L 585.30825 534.484521 
L 586.445738 531.797429 
L 587.583225 531.797429 
L 588.720713 579.39772 
L 589.8582 612.281074 
L 590.995688 612.281074 
L 592.133175 585.401015 
L 593.270663 601.358982 
L 594.40815 594.27606 
L 595.545638 615.771898 
L 596.683125 582.944995 
L 597.820613 569.689127 
L 598.9581 584.273385 
L 600.095588 571.528658 
L 601.233075 500.540523 
L 602.370563 575.241012 
L 603.50805 521.7227 
L 604.645538 579.342661 
L 605.783025 581.068891 
L 606.920513 566.638582 
L 608.058 604.888566 
L 609.195488 573.897814 
L 610.332975 573.897814 
L 611.470463 575.770837 
L 612.60795 529.805442 
L 613.745438 595.838503 
L 614.882925 581.088371 
L 616.020413 550.515635 
L 617.1579 550.515635 
L 618.295388 567.161053 
L 619.432875 562.231223 
L 620.570363 562.231223 
L 621.70785 572.22883 
L 622.845338 572.22883 
L 623.982825 599.152122 
L 625.120313 611.539955 
L 626.2578 611.816347 
L 627.395288 613.92392 
L 628.532775 584.655523 
L 629.670263 584.655523 
L 630.80775 589.379922 
L 631.945238 589.379922 
L 633.082725 613.719185 
L 634.220213 613.719185 
L 635.3577 537.551862 
L 636.495188 537.551862 
L 637.632675 626.17152 
L 639.90765 561.472414 
L 641.045138 605.826866 
L 642.182625 605.826866 
L 644.4576 623.04405 
L 645.595088 620.540325 
L 646.732575 620.540325 
L 647.870063 626.841976 
L 649.00755 614.835088 
L 650.145038 605.066168 
L 651.282525 619.655295 
L 652.420013 627.552584 
L 653.5575 589.408048 
L 654.694988 585.272907 
L 655.832475 460.959665 
L 656.969963 600.84635 
L 659.244938 597.597829 
L 660.382425 615.966694 
L 661.519913 587.96616 
L 662.6574 553.791289 
L 663.794888 553.791289 
L 664.932375 595.171525 
L 666.069863 611.474062 
L 667.20735 611.474062 
L 668.344838 588.78818 
L 669.482325 570.936816 
L 670.619813 606.273406 
L 671.7573 584.121523 
L 672.894788 596.934429 
L 674.032275 627.934225 
L 675.169763 604.733822 
L 676.30725 585.820025 
L 677.444738 601.042836 
L 678.582225 629.442204 
L 679.719713 613.164613 
L 680.8572 599.320879 
L 681.994688 592.631723 
L 683.132175 620.123998 
L 684.269663 618.099909 
L 685.40715 597.079135 
L 686.544638 580.252338 
L 687.682125 593.8327 
L 688.819613 601.015306 
L 689.9571 601.015306 
L 691.094588 596.79837 
L 692.232075 595.777381 
L 693.369563 607.839527 
L 694.50705 612.997148 
L 695.644538 612.997148 
L 696.782025 540.957811 
L 697.919513 540.957811 
L 699.057 624.039796 
L 700.194488 575.122346 
L 701.331975 575.122346 
L 702.469463 591.652277 
L 703.60695 591.652277 
L 704.744438 486.734555 
L 705.881925 486.734555 
L 707.019413 617.190033 
L 708.1569 617.190033 
L 709.294388 568.750827 
L 710.431875 568.750827 
L 711.569363 624.704785 
L 712.70685 581.32153 
L 713.844338 620.972951 
L 714.981825 620.972951 
L 716.119313 587.086895 
L 717.2568 587.086895 
L 718.394288 609.891842 
L 719.531775 551.580056 
L 720.669263 551.580056 
L 721.80675 589.507931 
L 722.944238 589.507931 
L 724.081725 570.401723 
L 725.219213 587.566431 
L 726.3567 587.566431 
L 727.494188 551.274048 
L 728.631675 551.274048 
L 729.769163 475.549289 
L 730.90665 475.549289 
L 732.044138 578.855671 
L 733.181625 578.855671 
L 734.319113 601.986304 
L 735.4566 573.265423 
L 736.594088 603.465859 
L 737.731575 617.400929 
L 738.869063 595.794475 
L 740.00655 595.794475 
L 741.144038 587.208444 
L 742.281525 587.208444 
L 743.419013 602.527658 
L 744.5565 602.527658 
L 745.693988 570.514327 
L 746.831475 570.514327 
L 747.968963 602.14234 
L 749.10645 602.14234 
L 750.243938 598.250992 
L 751.381425 598.250992 
L 752.518913 566.272445 
L 753.6564 590.200948 
L 754.793888 590.200948 
L 755.931375 525.810633 
L 757.068863 525.810633 
L 758.20635 574.998611 
L 759.343838 574.998611 
L 760.481325 561.627753 
L 761.618813 561.627753 
L 762.7563 574.325173 
L 763.893788 536.857256 
L 765.031275 519.424405 
L 766.168763 519.424405 
L 767.30625 624.965375 
L 768.443738 624.965375 
L 769.581225 598.863605 
L 770.718713 587.104387 
L 771.8562 475.212471 
L 772.993688 628.525868 
L 774.131175 617.661916 
L 775.268663 617.661916 
L 776.40615 630.051936 
L 777.543638 633.024264 
L 778.681125 633.024264 
L 779.818613 613.202877 
L 780.9561 613.202877 
L 782.093588 584.610203 
L 783.231075 615.837592 
L 784.368563 523.226803 
L 785.50605 551.396889 
L 786.643538 543.157614 
L 787.781025 620.970367 
L 788.918513 613.250482 
L 790.056 611.3223 
L 791.193488 605.138422 
L 792.330975 605.138422 
L 793.468463 594.89086 
L 794.60595 604.257864 
L 795.743438 604.257864 
L 796.880925 638.151176 
L 798.018413 638.151176 
L 799.1559 613.372429 
L 800.293388 601.67145 
L 801.430875 611.562416 
L 802.568363 611.562416 
L 803.70585 519.539792 
L 804.843338 579.105725 
L 805.980825 623.865572 
L 807.118313 623.865572 
L 808.2558 605.524436 
L 809.393288 589.547486 
L 810.530775 589.547486 
L 811.668263 588.891143 
L 812.80575 609.464085 
L 813.943238 609.464085 
L 815.080725 591.187748 
L 816.218213 539.750274 
L 817.3557 535.788462 
L 818.493188 611.996831 
L 819.630675 611.996831 
L 820.768163 619.559984 
L 821.90565 531.168218 
L 823.043138 607.329479 
L 824.180625 607.329479 
L 825.318113 585.819727 
L 826.4556 577.180823 
L 827.593088 577.180823 
L 828.730575 601.528236 
L 829.868063 601.528236 
L 831.00555 605.09817 
L 832.143038 605.09817 
L 833.280525 440.10894 
L 834.418013 604.54171 
L 835.5555 611.576728 
L 836.692988 615.175584 
L 837.830475 615.175584 
L 838.967963 611.572852 
L 840.10545 611.572852 
L 841.242938 601.415234 
L 842.380425 599.773084 
L 843.517913 617.984323 
L 844.6554 596.325393 
L 845.792888 596.325393 
L 846.930375 549.094122 
L 848.067863 598.50681 
L 849.20535 598.50681 
L 850.342838 591.487794 
L 851.480325 591.487794 
L 852.617813 595.664677 
L 853.7553 595.664677 
L 854.892788 544.742916 
L 856.030275 544.742916 
L 857.167763 571.073173 
L 858.30525 571.073173 
L 859.442738 568.580977 
L 860.580225 568.399498 
L 861.717713 610.664069 
L 862.8552 610.664069 
L 863.992688 526.447298 
L 865.130175 526.447298 
L 866.267663 609.285291 
L 867.40515 609.285291 
L 868.542638 569.924771 
L 869.680125 582.146928 
L 870.817613 582.146928 
L 871.9551 604.794448 
L 873.092588 604.794448 
L 874.230075 599.177664 
L 875.367563 588.175467 
L 876.50505 582.570609 
L 877.642538 609.956243 
L 878.780025 615.903186 
L 879.917513 602.316961 
L 881.055 524.022982 
L 882.192488 619.192059 
L 883.329975 619.192059 
L 884.467463 574.432808 
L 885.60495 611.943958 
L 887.879925 618.865576 
L 889.017413 540.221462 
L 890.1549 569.304107 
L 891.292388 591.359686 
L 892.429875 633.052688 
L 893.567363 633.052688 
L 894.70485 629.657672 
L 895.842338 620.243858 
L 896.979825 620.243858 
L 898.117313 608.816886 
L 899.2548 608.816886 
L 900.392288 623.549029 
L 901.529775 598.048145 
L 902.667263 608.939229 
L 903.80475 632.991069 
L 904.942238 602.041364 
L 906.079725 614.986353 
L 907.217213 615.450485 
L 908.3547 582.499747 
L 909.492188 544.629715 
L 910.629675 583.062469 
L 911.767163 583.062469 
L 912.90465 634.804958 
L 914.042138 634.804958 
L 915.179625 536.736999 
L 916.317113 536.736999 
L 917.4546 604.094474 
L 918.592088 604.094474 
L 919.729575 635.380998 
L 920.867063 640.456328 
L 922.00455 612.829783 
L 923.142038 612.829783 
L 924.279525 521.027099 
L 925.417013 599.608899 
L 926.5545 550.12018 
L 927.691988 624.193148 
L 928.829475 583.07201 
L 929.966963 630.28897 
L 931.10445 607.496845 
L 932.241938 602.03709 
L 933.379425 602.03709 
L 934.516913 621.943453 
L 935.6544 620.665154 
L 936.791888 614.308344 
L 937.929375 554.475759 
L 939.066863 608.939229 
L 940.20435 609.490323 
L 941.341838 609.490323 
L 942.479325 625.766424 
L 943.616813 548.532692 
L 944.7543 548.532692 
L 945.891788 605.565383 
L 947.029275 586.98085 
L 948.166763 611.021857 
L 949.30425 630.46538 
L 950.441738 594.928925 
L 951.579225 570.899645 
L 952.716713 557.644374 
L 953.8542 620.579384 
L 954.991688 485.769619 
L 956.129175 596.475168 
L 957.266663 587.997467 
L 958.40415 598.251886 
L 959.541638 603.259535 
L 961.816613 632.473369 
L 962.9541 602.785862 
L 964.091588 589.932606 
L 965.229075 620.861937 
L 966.366563 634.451344 
L 967.50405 575.296966 
L 968.641538 602.556083 
L 969.779025 602.556083 
L 970.916513 525.121293 
L 972.054 539.605171 
L 973.191488 609.336474 
L 974.328975 610.593107 
L 975.466463 610.593107 
L 976.60395 625.373751 
L 977.741438 631.774886 
L 978.878925 631.774886 
L 980.016413 617.105952 
L 981.1539 557.091491 
L 982.291388 557.091491 
L 983.428875 595.888394 
L 984.566363 606.167263 
L 985.70385 513.447646 
L 986.841338 591.290811 
L 987.978825 591.290811 
L 989.116313 621.341573 
L 990.2538 609.800407 
L 991.391288 609.800407 
L 992.528775 586.595631 
L 993.666263 608.01852 
L 994.80375 608.01852 
L 995.941238 585.771923 
L 997.078725 600.947624 
L 998.216213 600.947624 
L 999.3537 589.214445 
L 1000.491188 600.406469 
L 1001.628675 607.935633 
L 1002.766163 616.488469 
L 1003.90365 616.488469 
L 1005.041138 580.823607 
L 1006.178625 597.439905 
L 1007.316113 560.597024 
L 1008.4536 603.712237 
L 1009.591088 598.197025 
L 1010.728575 579.731756 
L 1011.866063 578.613766 
L 1013.00355 564.954193 
L 1014.141038 603.248602 
L 1015.278525 603.248602 
L 1016.416013 606.757713 
L 1017.5535 606.757713 
L 1018.690988 608.772858 
L 1019.828475 605.494819 
L 1020.965963 605.428528 
L 1022.10345 607.964454 
L 1023.240938 604.22775 
L 1024.378425 607.251461 
L 1025.515913 607.251461 
L 1026.6534 568.787997 
L 1027.790888 568.787997 
L 1028.928375 630.963899 
L 1030.065863 620.165045 
L 1031.20335 587.930481 
L 1032.340838 587.930481 
L 1033.478325 615.429912 
L 1034.615813 583.030268 
L 1035.7533 587.015238 
L 1036.890788 625.015366 
L 1038.028275 625.015366 
L 1039.165763 588.310035 
L 1040.30325 623.107756 
L 1041.440738 623.107756 
L 1042.578225 566.307628 
L 1043.715713 591.250759 
L 1044.8532 545.110543 
L 1045.990688 630.411116 
L 1047.128175 597.766784 
L 1048.265663 630.706291 
L 1049.40315 616.826579 
L 1050.540638 611.289602 
L 1051.678125 614.7037 
L 1052.815613 624.963387 
L 1053.9531 600.029698 
L 1055.090588 592.818966 
L 1056.228075 620.730649 
L 1057.365563 596.047809 
L 1058.50305 616.535677 
L 1059.640538 604.300998 
L 1060.778025 604.300998 
L 1061.915513 616.219631 
L 1063.053 581.831378 
L 1064.190488 581.831378 
L 1065.327975 611.046306 
L 1066.465463 574.334515 
L 1067.60295 574.334515 
L 1068.740438 604.903176 
L 1069.877925 616.244278 
L 1071.015413 616.244278 
L 1072.1529 597.990303 
L 1073.290388 551.257252 
L 1074.427875 551.257252 
L 1075.565363 618.55281 
L 1076.70285 632.111208 
L 1077.840338 606.508156 
L 1078.977825 606.422783 
L 1080.115313 627.18585 
L 1081.2528 616.743791 
L 1082.390288 601.331352 
L 1083.527775 588.504632 
L 1084.665263 631.383903 
L 1085.80275 598.379497 
L 1086.940238 612.265371 
L 1088.077725 612.265371 
L 1089.215213 605.043806 
L 1090.3527 605.043806 
L 1091.490188 638.655459 
L 1092.627675 608.588597 
L 1093.765163 608.588597 
L 1094.90265 631.318408 
L 1096.040138 621.65424 
L 1097.177625 637.094805 
L 1099.4526 574.048284 
L 1100.590088 571.807136 
L 1101.727575 593.707176 
L 1102.865063 587.231501 
L 1104.00255 619.057192 
L 1105.140038 627.995049 
L 1106.277525 541.69565 
L 1107.415013 633.558264 
L 1108.5525 639.746416 
L 1109.689988 628.804844 
L 1110.827475 628.804844 
L 1111.964963 580.824601 
L 1113.10245 629.722869 
L 1114.239938 634.163622 
L 1115.377425 619.793342 
L 1116.514913 551.242344 
L 1117.6524 612.464441 
L 1118.789888 632.282648 
L 1119.927375 601.294381 
L 1121.064863 640.966972 
L 1122.20235 621.663483 
L 1123.339838 621.663483 
L 1124.477325 587.374517 
L 1125.614813 618.088678 
L 1126.7523 618.088678 
L 1127.889788 616.307885 
L 1129.027275 574.873981 
L 1130.164763 574.873981 
L 1131.30225 619.067528 
L 1132.439738 565.15863 
L 1133.577225 565.15863 
L 1136.989688 628.540776 
L 1138.127175 577.875529 
L 1139.264663 624.914191 
L 1140.40215 588.009095 
L 1141.539638 509.05768 
L 1142.677125 614.472827 
L 1143.814613 605.372177 
L 1144.9521 604.952769 
L 1146.089588 625.955853 
L 1147.227075 625.955853 
L 1148.364563 593.122391 
L 1149.50205 627.128505 
L 1150.639538 627.128505 
L 1151.777025 646.271684 
L 1152.914513 608.782498 
L 1154.052 608.782498 
L 1155.189488 618.467437 
L 1157.464463 618.467437 
L 1158.60195 596.828583 
L 1159.739438 596.828583 
L 1160.876925 626.825875 
L 1162.014413 617.699881 
L 1163.1519 617.699881 
L 1164.289388 599.715838 
L 1165.426875 599.715838 
L 1166.564363 593.756968 
L 1167.70185 593.756968 
L 1168.839338 626.831341 
L 1169.976825 626.831341 
L 1171.114313 611.086259 
L 1172.2518 611.086259 
L 1173.389288 626.279353 
L 1174.526775 607.381259 
L 1175.664263 607.381259 
L 1176.80175 584.508233 
L 1177.939238 584.508233 
L 1179.076725 614.026387 
L 1180.214213 627.234847 
L 1181.3517 617.007561 
L 1182.489188 577.558588 
L 1183.626675 611.637253 
L 1184.764163 620.693677 
L 1185.90165 611.078209 
L 1187.039138 547.489241 
L 1188.176625 631.056526 
L 1189.314113 631.056526 
L 1190.4516 638.519499 
L 1191.589088 634.176443 
L 1192.726575 634.176443 
L 1193.864063 631.573829 
L 1195.00155 631.573829 
L 1196.139038 632.172926 
L 1197.276525 621.438275 
L 1198.414013 621.438275 
L 1199.5515 634.609069 
L 1200.688988 620.985474 
L 1201.826475 620.985474 
L 1202.963963 630.10789 
L 1204.10145 630.10789 
L 1205.238938 592.280892 
L 1206.376425 592.280892 
L 1207.513913 637.236728 
L 1208.6514 637.236728 
L 1209.788888 626.820707 
L 1210.926375 636.869497 
L 1212.063863 636.869497 
L 1213.20135 588.99202 
L 1214.338838 588.99202 
L 1215.476325 629.827622 
L 1216.613813 629.827622 
L 1217.7513 601.480133 
L 1218.888788 601.480133 
L 1220.026275 519.828308 
L 1221.163763 519.828308 
L 1222.30125 601.435906 
L 1223.438738 601.435906 
L 1224.576225 633.110432 
L 1225.713713 602.270746 
L 1226.8512 602.270746 
L 1227.988688 599.062277 
L 1229.126175 599.062277 
L 1230.263663 638.853733 
L 1231.40115 638.853733 
L 1232.538638 644.563045 
L 1233.676125 644.563045 
L 1234.813613 602.854637 
L 1237.088588 602.854637 
L 1238.226075 596.276197 
L 1239.363563 596.276197 
L 1240.50105 603.862408 
L 1241.638538 638.501013 
L 1242.776025 636.527213 
L 1243.913513 597.165898 
L 1245.051 596.028429 
L 1246.188488 612.465236 
L 1247.325975 612.465236 
L 1248.463463 594.332412 
L 1249.60095 586.85314 
L 1250.738438 586.85314 
L 1251.875925 632.572357 
L 1253.013413 575.268443 
L 1254.1509 592.871442 
L 1255.288388 614.157775 
L 1256.425875 614.157775 
L 1257.563363 619.500552 
L 1258.70085 631.40219 
L 1259.838338 578.036732 
L 1260.975825 563.615965 
L 1262.113313 614.843536 
L 1263.2508 609.97781 
L 1264.388288 636.951988 
L 1265.525775 609.076282 
L 1266.663263 628.357409 
L 1267.80075 632.426558 
L 1268.938238 622.517604 
L 1270.075725 599.625397 
L 1271.213213 599.625397 
L 1272.3507 622.609834 
L 1273.488188 595.993843 
L 1274.625675 591.35889 
L 1275.763163 585.379846 
L 1276.90065 638.22492 
L 1278.038138 602.027052 
L 1279.175625 542.865023 
L 1280.313113 630.991031 
L 1281.4506 518.056559 
L 1282.588088 637.384415 
L 1283.725575 600.751834 
L 1284.863063 611.845268 
L 1286.00055 613.180614 
L 1287.138038 613.180614 
L 1288.275525 605.784429 
L 1289.413013 614.483462 
L 1290.5505 523.870226 
L 1291.687988 616.498904 
L 1292.825475 623.537401 
L 1293.962963 572.838064 
L 1295.10045 591.434225 
L 1296.237938 626.623128 
L 1297.375425 607.411472 
L 1298.512913 617.063515 
L 1299.6504 620.320683 
L 1300.787888 599.928026 
L 1301.925375 617.345273 
L 1303.062863 600.20889 
L 1304.20035 577.740066 
L 1305.337838 573.170112 
L 1306.475325 610.419878 
L 1307.612813 573.041706 
L 1308.7503 578.271879 
L 1309.887788 561.403639 
L 1311.025275 533.538369 
L 1312.162763 603.075969 
L 1313.30025 613.600718 
L 1314.437738 590.897045 
L 1315.575225 554.979147 
L 1316.712713 604.927724 
L 1317.8502 558.946625 
L 1318.987688 617.513931 
L 1320.125175 625.555328 
L 1321.262663 592.364674 
L 1322.40015 606.687845 
L 1323.537638 616.502284 
L 1324.675125 636.269208 
L 1325.812613 594.6579 
L 1326.9501 596.679207 
L 1328.087588 609.081848 
L 1329.225075 601.416924 
L 1330.362563 606.303222 
L 1331.50005 636.727674 
L 1332.637538 639.102893 
L 1333.775025 585.927163 
L 1334.912513 618.822046 
L 1336.05 638.038373 
L 1336.05 638.038373 
" style="fill:none;stroke:#008000;stroke-dasharray:6.000000,6.000000;stroke-dashoffset:0.0;stroke-width:2.0;"/>
   </g>
   <g id="patch_3">
    <path d="M 198.5625 51.3 
L 1336.05 51.3 
" style="fill:none;stroke:#000000;stroke-linecap:square;stroke-linejoin:miter;"/>
   </g>
   <g id="patch_4">
    <path d="M 1336.05 747 
L 1336.05 51.3 
" style="fill:none;stroke:#000000;stroke-linecap:square;stroke-linejoin:miter;"/>
   </g>
   <g id="patch_5">
    <path d="M 198.5625 747 
L 1336.05 747 
" style="fill:none;stroke:#000000;stroke-linecap:square;stroke-linejoin:miter;"/>
   </g>
   <g id="patch_6">
    <path d="M 198.5625 747 
L 198.5625 51.3 
" style="fill:none;stroke:#000000;stroke-linecap:square;stroke-linejoin:miter;"/>
   </g>
   <g id="matplotlib.axis_1">
    <g id="xtick_1">
     <g id="line2d_3">
      <defs>
       <path d="M 0 0 
L 0 -4 
" id="m848ef27835" style="stroke:#000000;stroke-width:0.5;"/>
      </defs>
      <g>
       <use style="stroke:#000000;stroke-width:0.5;" x="198.5625" xlink:href="#m848ef27835" y="747.0"/>
      </g>
     </g>
     <g id="line2d_4">
      <defs>
       <path d="M 0 0 
L 0 4 
" id="mc07a347534" style="stroke:#000000;stroke-width:0.5;"/>
      </defs>
      <g>
       <use style="stroke:#000000;stroke-width:0.5;" x="198.5625" xlink:href="#mc07a347534" y="51.3"/>
      </g>
     </g>
     <g id="text_1">
      <!-- 0 -->
      <defs>
       <path d="M 31.78125 66.40625 
Q 24.171875 66.40625 20.328125 58.90625 
Q 16.5 51.421875 16.5 36.375 
Q 16.5 21.390625 20.328125 13.890625 
Q 24.171875 6.390625 31.78125 6.390625 
Q 39.453125 6.390625 43.28125 13.890625 
Q 47.125 21.390625 47.125 36.375 
Q 47.125 51.421875 43.28125 58.90625 
Q 39.453125 66.40625 31.78125 66.40625 
M 31.78125 74.21875 
Q 44.046875 74.21875 50.515625 64.515625 
Q 56.984375 54.828125 56.984375 36.375 
Q 56.984375 17.96875 50.515625 8.265625 
Q 44.046875 -1.421875 31.78125 -1.421875 
Q 19.53125 -1.421875 13.0625 8.265625 
Q 6.59375 17.96875 6.59375 36.375 
Q 6.59375 54.828125 13.0625 64.515625 
Q 19.53125 74.21875 31.78125 74.21875 
" id="BitstreamVeraSans-Roman-30"/>
      </defs>
      <g transform="translate(189.01875 773.7953125)scale(0.3 -0.3)">
       <use xlink:href="#BitstreamVeraSans-Roman-30"/>
      </g>
     </g>
    </g>
    <g id="xtick_2">
     <g id="line2d_5">
      <g>
       <use style="stroke:#000000;stroke-width:0.5;" x="426.06" xlink:href="#m848ef27835" y="747.0"/>
      </g>
     </g>
     <g id="line2d_6">
      <g>
       <use style="stroke:#000000;stroke-width:0.5;" x="426.06" xlink:href="#mc07a347534" y="51.3"/>
      </g>
     </g>
     <g id="text_2">
      <!-- 20000 -->
      <defs>
       <path d="M 19.1875 8.296875 
L 53.609375 8.296875 
L 53.609375 0 
L 7.328125 0 
L 7.328125 8.296875 
Q 12.9375 14.109375 22.625 23.890625 
Q 32.328125 33.6875 34.8125 36.53125 
Q 39.546875 41.84375 41.421875 45.53125 
Q 43.3125 49.21875 43.3125 52.78125 
Q 43.3125 58.59375 39.234375 62.25 
Q 35.15625 65.921875 28.609375 65.921875 
Q 23.96875 65.921875 18.8125 64.3125 
Q 13.671875 62.703125 7.8125 59.421875 
L 7.8125 69.390625 
Q 13.765625 71.78125 18.9375 73 
Q 24.125 74.21875 28.421875 74.21875 
Q 39.75 74.21875 46.484375 68.546875 
Q 53.21875 62.890625 53.21875 53.421875 
Q 53.21875 48.921875 51.53125 44.890625 
Q 49.859375 40.875 45.40625 35.40625 
Q 44.1875 33.984375 37.640625 27.21875 
Q 31.109375 20.453125 19.1875 8.296875 
" id="BitstreamVeraSans-Roman-32"/>
      </defs>
      <g transform="translate(378.34125 773.7953125)scale(0.3 -0.3)">
       <use xlink:href="#BitstreamVeraSans-Roman-32"/>
       <use x="63.623046875" xlink:href="#BitstreamVeraSans-Roman-30"/>
       <use x="127.24609375" xlink:href="#BitstreamVeraSans-Roman-30"/>
       <use x="190.869140625" xlink:href="#BitstreamVeraSans-Roman-30"/>
       <use x="254.4921875" xlink:href="#BitstreamVeraSans-Roman-30"/>
      </g>
     </g>
    </g>
    <g id="xtick_3">
     <g id="line2d_7">
      <g>
       <use style="stroke:#000000;stroke-width:0.5;" x="653.5575" xlink:href="#m848ef27835" y="747.0"/>
      </g>
     </g>
     <g id="line2d_8">
      <g>
       <use style="stroke:#000000;stroke-width:0.5;" x="653.5575" xlink:href="#mc07a347534" y="51.3"/>
      </g>
     </g>
     <g id="text_3">
      <!-- 40000 -->
      <defs>
       <path d="M 37.796875 64.3125 
L 12.890625 25.390625 
L 37.796875 25.390625 
z
M 35.203125 72.90625 
L 47.609375 72.90625 
L 47.609375 25.390625 
L 58.015625 25.390625 
L 58.015625 17.1875 
L 47.609375 17.1875 
L 47.609375 0 
L 37.796875 0 
L 37.796875 17.1875 
L 4.890625 17.1875 
L 4.890625 26.703125 
z
" id="BitstreamVeraSans-Roman-34"/>
      </defs>
      <g transform="translate(605.83875 773.7953125)scale(0.3 -0.3)">
       <use xlink:href="#BitstreamVeraSans-Roman-34"/>
       <use x="63.623046875" xlink:href="#BitstreamVeraSans-Roman-30"/>
       <use x="127.24609375" xlink:href="#BitstreamVeraSans-Roman-30"/>
       <use x="190.869140625" xlink:href="#BitstreamVeraSans-Roman-30"/>
       <use x="254.4921875" xlink:href="#BitstreamVeraSans-Roman-30"/>
      </g>
     </g>
    </g>
    <g id="xtick_4">
     <g id="line2d_9">
      <g>
       <use style="stroke:#000000;stroke-width:0.5;" x="881.055" xlink:href="#m848ef27835" y="747.0"/>
      </g>
     </g>
     <g id="line2d_10">
      <g>
       <use style="stroke:#000000;stroke-width:0.5;" x="881.055" xlink:href="#mc07a347534" y="51.3"/>
      </g>
     </g>
     <g id="text_4">
      <!-- 60000 -->
      <defs>
       <path d="M 33.015625 40.375 
Q 26.375 40.375 22.484375 35.828125 
Q 18.609375 31.296875 18.609375 23.390625 
Q 18.609375 15.53125 22.484375 10.953125 
Q 26.375 6.390625 33.015625 6.390625 
Q 39.65625 6.390625 43.53125 10.953125 
Q 47.40625 15.53125 47.40625 23.390625 
Q 47.40625 31.296875 43.53125 35.828125 
Q 39.65625 40.375 33.015625 40.375 
M 52.59375 71.296875 
L 52.59375 62.3125 
Q 48.875 64.0625 45.09375 64.984375 
Q 41.3125 65.921875 37.59375 65.921875 
Q 27.828125 65.921875 22.671875 59.328125 
Q 17.53125 52.734375 16.796875 39.40625 
Q 19.671875 43.65625 24.015625 45.921875 
Q 28.375 48.1875 33.59375 48.1875 
Q 44.578125 48.1875 50.953125 41.515625 
Q 57.328125 34.859375 57.328125 23.390625 
Q 57.328125 12.15625 50.6875 5.359375 
Q 44.046875 -1.421875 33.015625 -1.421875 
Q 20.359375 -1.421875 13.671875 8.265625 
Q 6.984375 17.96875 6.984375 36.375 
Q 6.984375 53.65625 15.1875 63.9375 
Q 23.390625 74.21875 37.203125 74.21875 
Q 40.921875 74.21875 44.703125 73.484375 
Q 48.484375 72.75 52.59375 71.296875 
" id="BitstreamVeraSans-Roman-36"/>
      </defs>
      <g transform="translate(833.33625 773.7953125)scale(0.3 -0.3)">
       <use xlink:href="#BitstreamVeraSans-Roman-36"/>
       <use x="63.623046875" xlink:href="#BitstreamVeraSans-Roman-30"/>
       <use x="127.24609375" xlink:href="#BitstreamVeraSans-Roman-30"/>
       <use x="190.869140625" xlink:href="#BitstreamVeraSans-Roman-30"/>
       <use x="254.4921875" xlink:href="#BitstreamVeraSans-Roman-30"/>
      </g>
     </g>
    </g>
    <g id="xtick_5">
     <g id="line2d_11">
      <g>
       <use style="stroke:#000000;stroke-width:0.5;" x="1108.5525" xlink:href="#m848ef27835" y="747.0"/>
      </g>
     </g>
     <g id="line2d_12">
      <g>
       <use style="stroke:#000000;stroke-width:0.5;" x="1108.5525" xlink:href="#mc07a347534" y="51.3"/>
      </g>
     </g>
     <g id="text_5">
      <!-- 80000 -->
      <defs>
       <path d="M 31.78125 34.625 
Q 24.75 34.625 20.71875 30.859375 
Q 16.703125 27.09375 16.703125 20.515625 
Q 16.703125 13.921875 20.71875 10.15625 
Q 24.75 6.390625 31.78125 6.390625 
Q 38.8125 6.390625 42.859375 10.171875 
Q 46.921875 13.96875 46.921875 20.515625 
Q 46.921875 27.09375 42.890625 30.859375 
Q 38.875 34.625 31.78125 34.625 
M 21.921875 38.8125 
Q 15.578125 40.375 12.03125 44.71875 
Q 8.5 49.078125 8.5 55.328125 
Q 8.5 64.0625 14.71875 69.140625 
Q 20.953125 74.21875 31.78125 74.21875 
Q 42.671875 74.21875 48.875 69.140625 
Q 55.078125 64.0625 55.078125 55.328125 
Q 55.078125 49.078125 51.53125 44.71875 
Q 48 40.375 41.703125 38.8125 
Q 48.828125 37.15625 52.796875 32.3125 
Q 56.78125 27.484375 56.78125 20.515625 
Q 56.78125 9.90625 50.3125 4.234375 
Q 43.84375 -1.421875 31.78125 -1.421875 
Q 19.734375 -1.421875 13.25 4.234375 
Q 6.78125 9.90625 6.78125 20.515625 
Q 6.78125 27.484375 10.78125 32.3125 
Q 14.796875 37.15625 21.921875 38.8125 
M 18.3125 54.390625 
Q 18.3125 48.734375 21.84375 45.5625 
Q 25.390625 42.390625 31.78125 42.390625 
Q 38.140625 42.390625 41.71875 45.5625 
Q 45.3125 48.734375 45.3125 54.390625 
Q 45.3125 60.0625 41.71875 63.234375 
Q 38.140625 66.40625 31.78125 66.40625 
Q 25.390625 66.40625 21.84375 63.234375 
Q 18.3125 60.0625 18.3125 54.390625 
" id="BitstreamVeraSans-Roman-38"/>
      </defs>
      <g transform="translate(1060.83375 773.7953125)scale(0.3 -0.3)">
       <use xlink:href="#BitstreamVeraSans-Roman-38"/>
       <use x="63.623046875" xlink:href="#BitstreamVeraSans-Roman-30"/>
       <use x="127.24609375" xlink:href="#BitstreamVeraSans-Roman-30"/>
       <use x="190.869140625" xlink:href="#BitstreamVeraSans-Roman-30"/>
       <use x="254.4921875" xlink:href="#BitstreamVeraSans-Roman-30"/>
      </g>
     </g>
    </g>
    <g id="xtick_6">
     <g id="line2d_13">
      <g>
       <use style="stroke:#000000;stroke-width:0.5;" x="1336.05" xlink:href="#m848ef27835" y="747.0"/>
      </g>
     </g>
     <g id="line2d_14">
      <g>
       <use style="stroke:#000000;stroke-width:0.5;" x="1336.05" xlink:href="#mc07a347534" y="51.3"/>
      </g>
     </g>
     <g id="text_6">
      <!-- 100000 -->
      <defs>
       <path d="M 12.40625 8.296875 
L 28.515625 8.296875 
L 28.515625 63.921875 
L 10.984375 60.40625 
L 10.984375 69.390625 
L 28.421875 72.90625 
L 38.28125 72.90625 
L 38.28125 8.296875 
L 54.390625 8.296875 
L 54.390625 0 
L 12.40625 0 
z
" id="BitstreamVeraSans-Roman-31"/>
      </defs>
      <g transform="translate(1278.7875 773.7953125)scale(0.3 -0.3)">
       <use xlink:href="#BitstreamVeraSans-Roman-31"/>
       <use x="63.623046875" xlink:href="#BitstreamVeraSans-Roman-30"/>
       <use x="127.24609375" xlink:href="#BitstreamVeraSans-Roman-30"/>
       <use x="190.869140625" xlink:href="#BitstreamVeraSans-Roman-30"/>
       <use x="254.4921875" xlink:href="#BitstreamVeraSans-Roman-30"/>
       <use x="318.115234375" xlink:href="#BitstreamVeraSans-Roman-30"/>
      </g>
     </g>
    </g>
    <g id="text_7">
     <!-- iterations -->
     <defs>
      <path d="M 54.890625 33.015625 
L 54.890625 0 
L 45.90625 0 
L 45.90625 32.71875 
Q 45.90625 40.484375 42.875 44.328125 
Q 39.84375 48.1875 33.796875 48.1875 
Q 26.515625 48.1875 22.3125 43.546875 
Q 18.109375 38.921875 18.109375 30.90625 
L 18.109375 0 
L 9.078125 0 
L 9.078125 54.6875 
L 18.109375 54.6875 
L 18.109375 46.1875 
Q 21.34375 51.125 25.703125 53.5625 
Q 30.078125 56 35.796875 56 
Q 45.21875 56 50.046875 50.171875 
Q 54.890625 44.34375 54.890625 33.015625 
" id="BitstreamVeraSans-Roman-6e"/>
      <path d="M 34.28125 27.484375 
Q 23.390625 27.484375 19.1875 25 
Q 14.984375 22.515625 14.984375 16.5 
Q 14.984375 11.71875 18.140625 8.90625 
Q 21.296875 6.109375 26.703125 6.109375 
Q 34.1875 6.109375 38.703125 11.40625 
Q 43.21875 16.703125 43.21875 25.484375 
L 43.21875 27.484375 
z
M 52.203125 31.203125 
L 52.203125 0 
L 43.21875 0 
L 43.21875 8.296875 
Q 40.140625 3.328125 35.546875 0.953125 
Q 30.953125 -1.421875 24.3125 -1.421875 
Q 15.921875 -1.421875 10.953125 3.296875 
Q 6 8.015625 6 15.921875 
Q 6 25.140625 12.171875 29.828125 
Q 18.359375 34.515625 30.609375 34.515625 
L 43.21875 34.515625 
L 43.21875 35.40625 
Q 43.21875 41.609375 39.140625 45 
Q 35.0625 48.390625 27.6875 48.390625 
Q 23 48.390625 18.546875 47.265625 
Q 14.109375 46.140625 10.015625 43.890625 
L 10.015625 52.203125 
Q 14.9375 54.109375 19.578125 55.046875 
Q 24.21875 56 28.609375 56 
Q 40.484375 56 46.34375 49.84375 
Q 52.203125 43.703125 52.203125 31.203125 
" id="BitstreamVeraSans-Roman-61"/>
      <path d="M 30.609375 48.390625 
Q 23.390625 48.390625 19.1875 42.75 
Q 14.984375 37.109375 14.984375 27.296875 
Q 14.984375 17.484375 19.15625 11.84375 
Q 23.34375 6.203125 30.609375 6.203125 
Q 37.796875 6.203125 41.984375 11.859375 
Q 46.1875 17.53125 46.1875 27.296875 
Q 46.1875 37.015625 41.984375 42.703125 
Q 37.796875 48.390625 30.609375 48.390625 
M 30.609375 56 
Q 42.328125 56 49.015625 48.375 
Q 55.71875 40.765625 55.71875 27.296875 
Q 55.71875 13.875 49.015625 6.21875 
Q 42.328125 -1.421875 30.609375 -1.421875 
Q 18.84375 -1.421875 12.171875 6.21875 
Q 5.515625 13.875 5.515625 27.296875 
Q 5.515625 40.765625 12.171875 48.375 
Q 18.84375 56 30.609375 56 
" id="BitstreamVeraSans-Roman-6f"/>
      <path d="M 9.421875 54.6875 
L 18.40625 54.6875 
L 18.40625 0 
L 9.421875 0 
z
M 9.421875 75.984375 
L 18.40625 75.984375 
L 18.40625 64.59375 
L 9.421875 64.59375 
z
" id="BitstreamVeraSans-Roman-69"/>
      <path d="M 56.203125 29.59375 
L 56.203125 25.203125 
L 14.890625 25.203125 
Q 15.484375 15.921875 20.484375 11.0625 
Q 25.484375 6.203125 34.421875 6.203125 
Q 39.59375 6.203125 44.453125 7.46875 
Q 49.3125 8.734375 54.109375 11.28125 
L 54.109375 2.78125 
Q 49.265625 0.734375 44.1875 -0.34375 
Q 39.109375 -1.421875 33.890625 -1.421875 
Q 20.796875 -1.421875 13.15625 6.1875 
Q 5.515625 13.8125 5.515625 26.8125 
Q 5.515625 40.234375 12.765625 48.109375 
Q 20.015625 56 32.328125 56 
Q 43.359375 56 49.78125 48.890625 
Q 56.203125 41.796875 56.203125 29.59375 
M 47.21875 32.234375 
Q 47.125 39.59375 43.09375 43.984375 
Q 39.0625 48.390625 32.421875 48.390625 
Q 24.90625 48.390625 20.390625 44.140625 
Q 15.875 39.890625 15.1875 32.171875 
z
" id="BitstreamVeraSans-Roman-65"/>
      <path d="M 18.3125 70.21875 
L 18.3125 54.6875 
L 36.8125 54.6875 
L 36.8125 47.703125 
L 18.3125 47.703125 
L 18.3125 18.015625 
Q 18.3125 11.328125 20.140625 9.421875 
Q 21.96875 7.515625 27.59375 7.515625 
L 36.8125 7.515625 
L 36.8125 0 
L 27.59375 0 
Q 17.1875 0 13.234375 3.875 
Q 9.28125 7.765625 9.28125 18.015625 
L 9.28125 47.703125 
L 2.6875 47.703125 
L 2.6875 54.6875 
L 9.28125 54.6875 
L 9.28125 70.21875 
z
" id="BitstreamVeraSans-Roman-74"/>
      <path d="M 41.109375 46.296875 
Q 39.59375 47.171875 37.8125 47.578125 
Q 36.03125 48 33.890625 48 
Q 26.265625 48 22.1875 43.046875 
Q 18.109375 38.09375 18.109375 28.8125 
L 18.109375 0 
L 9.078125 0 
L 9.078125 54.6875 
L 18.109375 54.6875 
L 18.109375 46.1875 
Q 20.953125 51.171875 25.484375 53.578125 
Q 30.03125 56 36.53125 56 
Q 37.453125 56 38.578125 55.875 
Q 39.703125 55.765625 41.0625 55.515625 
z
" id="BitstreamVeraSans-Roman-72"/>
      <path d="M 44.28125 53.078125 
L 44.28125 44.578125 
Q 40.484375 46.53125 36.375 47.5 
Q 32.28125 48.484375 27.875 48.484375 
Q 21.1875 48.484375 17.84375 46.4375 
Q 14.5 44.390625 14.5 40.28125 
Q 14.5 37.15625 16.890625 35.375 
Q 19.28125 33.59375 26.515625 31.984375 
L 29.59375 31.296875 
Q 39.15625 29.25 43.1875 25.515625 
Q 47.21875 21.78125 47.21875 15.09375 
Q 47.21875 7.46875 41.1875 3.015625 
Q 35.15625 -1.421875 24.609375 -1.421875 
Q 20.21875 -1.421875 15.453125 -0.5625 
Q 10.6875 0.296875 5.421875 2 
L 5.421875 11.28125 
Q 10.40625 8.6875 15.234375 7.390625 
Q 20.0625 6.109375 24.8125 6.109375 
Q 31.15625 6.109375 34.5625 8.28125 
Q 37.984375 10.453125 37.984375 14.40625 
Q 37.984375 18.0625 35.515625 20.015625 
Q 33.0625 21.96875 24.703125 23.78125 
L 21.578125 24.515625 
Q 13.234375 26.265625 9.515625 29.90625 
Q 5.8125 33.546875 5.8125 39.890625 
Q 5.8125 47.609375 11.28125 51.796875 
Q 16.75 56 26.8125 56 
Q 31.78125 56 36.171875 55.265625 
Q 40.578125 54.546875 44.28125 53.078125 
" id="BitstreamVeraSans-Roman-73"/>
     </defs>
     <g transform="translate(696.12421875 807.8296875)scale(0.3 -0.3)">
      <use xlink:href="#BitstreamVeraSans-Roman-69"/>
      <use x="27.783203125" xlink:href="#BitstreamVeraSans-Roman-74"/>
      <use x="66.9921875" xlink:href="#BitstreamVeraSans-Roman-65"/>
      <use x="128.515625" xlink:href="#BitstreamVeraSans-Roman-72"/>
      <use x="169.62890625" xlink:href="#BitstreamVeraSans-Roman-61"/>
      <use x="230.908203125" xlink:href="#BitstreamVeraSans-Roman-74"/>
      <use x="270.1171875" xlink:href="#BitstreamVeraSans-Roman-69"/>
      <use x="297.900390625" xlink:href="#BitstreamVeraSans-Roman-6f"/>
      <use x="359.08203125" xlink:href="#BitstreamVeraSans-Roman-6e"/>
      <use x="422.4609375" xlink:href="#BitstreamVeraSans-Roman-73"/>
     </g>
    </g>
   </g>
   <g id="matplotlib.axis_2">
    <g id="ytick_1">
     <g id="line2d_15">
      <defs>
       <path d="M 0 0 
L 4 0 
" id="meb74ed2c18" style="stroke:#000000;stroke-width:0.5;"/>
      </defs>
      <g>
       <use style="stroke:#000000;stroke-width:0.5;" x="198.5625" xlink:href="#meb74ed2c18" y="747.0"/>
      </g>
     </g>
     <g id="line2d_16">
      <defs>
       <path d="M 0 0 
L -4 0 
" id="m21d45998bd" style="stroke:#000000;stroke-width:0.5;"/>
      </defs>
      <g>
       <use style="stroke:#000000;stroke-width:0.5;" x="1336.05" xlink:href="#m21d45998bd" y="747.0"/>
      </g>
     </g>
     <g id="text_8">
      <!-- 0 -->
      <g transform="translate(175.475 755.278125)scale(0.3 -0.3)">
       <use xlink:href="#BitstreamVeraSans-Roman-30"/>
      </g>
     </g>
    </g>
    <g id="ytick_2">
     <g id="line2d_17">
      <g>
       <use style="stroke:#000000;stroke-width:0.5;" x="198.5625" xlink:href="#meb74ed2c18" y="647.614285714"/>
      </g>
     </g>
     <g id="line2d_18">
      <g>
       <use style="stroke:#000000;stroke-width:0.5;" x="1336.05" xlink:href="#m21d45998bd" y="647.614285714"/>
      </g>
     </g>
     <g id="text_9">
      <!-- 10000 -->
      <g transform="translate(99.125 655.892410714)scale(0.3 -0.3)">
       <use xlink:href="#BitstreamVeraSans-Roman-31"/>
       <use x="63.623046875" xlink:href="#BitstreamVeraSans-Roman-30"/>
       <use x="127.24609375" xlink:href="#BitstreamVeraSans-Roman-30"/>
       <use x="190.869140625" xlink:href="#BitstreamVeraSans-Roman-30"/>
       <use x="254.4921875" xlink:href="#BitstreamVeraSans-Roman-30"/>
      </g>
     </g>
    </g>
    <g id="ytick_3">
     <g id="line2d_19">
      <g>
       <use style="stroke:#000000;stroke-width:0.5;" x="198.5625" xlink:href="#meb74ed2c18" y="548.228571429"/>
      </g>
     </g>
     <g id="line2d_20">
      <g>
       <use style="stroke:#000000;stroke-width:0.5;" x="1336.05" xlink:href="#m21d45998bd" y="548.228571429"/>
      </g>
     </g>
     <g id="text_10">
      <!-- 20000 -->
      <g transform="translate(99.125 556.506696429)scale(0.3 -0.3)">
       <use xlink:href="#BitstreamVeraSans-Roman-32"/>
       <use x="63.623046875" xlink:href="#BitstreamVeraSans-Roman-30"/>
       <use x="127.24609375" xlink:href="#BitstreamVeraSans-Roman-30"/>
       <use x="190.869140625" xlink:href="#BitstreamVeraSans-Roman-30"/>
       <use x="254.4921875" xlink:href="#BitstreamVeraSans-Roman-30"/>
      </g>
     </g>
    </g>
    <g id="ytick_4">
     <g id="line2d_21">
      <g>
       <use style="stroke:#000000;stroke-width:0.5;" x="198.5625" xlink:href="#meb74ed2c18" y="448.842857143"/>
      </g>
     </g>
     <g id="line2d_22">
      <g>
       <use style="stroke:#000000;stroke-width:0.5;" x="1336.05" xlink:href="#m21d45998bd" y="448.842857143"/>
      </g>
     </g>
     <g id="text_11">
      <!-- 30000 -->
      <defs>
       <path d="M 40.578125 39.3125 
Q 47.65625 37.796875 51.625 33 
Q 55.609375 28.21875 55.609375 21.1875 
Q 55.609375 10.40625 48.1875 4.484375 
Q 40.765625 -1.421875 27.09375 -1.421875 
Q 22.515625 -1.421875 17.65625 -0.515625 
Q 12.796875 0.390625 7.625 2.203125 
L 7.625 11.71875 
Q 11.71875 9.328125 16.59375 8.109375 
Q 21.484375 6.890625 26.8125 6.890625 
Q 36.078125 6.890625 40.9375 10.546875 
Q 45.796875 14.203125 45.796875 21.1875 
Q 45.796875 27.640625 41.28125 31.265625 
Q 36.765625 34.90625 28.71875 34.90625 
L 20.21875 34.90625 
L 20.21875 43.015625 
L 29.109375 43.015625 
Q 36.375 43.015625 40.234375 45.921875 
Q 44.09375 48.828125 44.09375 54.296875 
Q 44.09375 59.90625 40.109375 62.90625 
Q 36.140625 65.921875 28.71875 65.921875 
Q 24.65625 65.921875 20.015625 65.03125 
Q 15.375 64.15625 9.8125 62.3125 
L 9.8125 71.09375 
Q 15.4375 72.65625 20.34375 73.4375 
Q 25.25 74.21875 29.59375 74.21875 
Q 40.828125 74.21875 47.359375 69.109375 
Q 53.90625 64.015625 53.90625 55.328125 
Q 53.90625 49.265625 50.4375 45.09375 
Q 46.96875 40.921875 40.578125 39.3125 
" id="BitstreamVeraSans-Roman-33"/>
      </defs>
      <g transform="translate(99.125 457.120982143)scale(0.3 -0.3)">
       <use xlink:href="#BitstreamVeraSans-Roman-33"/>
       <use x="63.623046875" xlink:href="#BitstreamVeraSans-Roman-30"/>
       <use x="127.24609375" xlink:href="#BitstreamVeraSans-Roman-30"/>
       <use x="190.869140625" xlink:href="#BitstreamVeraSans-Roman-30"/>
       <use x="254.4921875" xlink:href="#BitstreamVeraSans-Roman-30"/>
      </g>
     </g>
    </g>
    <g id="ytick_5">
     <g id="line2d_23">
      <g>
       <use style="stroke:#000000;stroke-width:0.5;" x="198.5625" xlink:href="#meb74ed2c18" y="349.457142857"/>
      </g>
     </g>
     <g id="line2d_24">
      <g>
       <use style="stroke:#000000;stroke-width:0.5;" x="1336.05" xlink:href="#m21d45998bd" y="349.457142857"/>
      </g>
     </g>
     <g id="text_12">
      <!-- 40000 -->
      <g transform="translate(99.125 357.735267857)scale(0.3 -0.3)">
       <use xlink:href="#BitstreamVeraSans-Roman-34"/>
       <use x="63.623046875" xlink:href="#BitstreamVeraSans-Roman-30"/>
       <use x="127.24609375" xlink:href="#BitstreamVeraSans-Roman-30"/>
       <use x="190.869140625" xlink:href="#BitstreamVeraSans-Roman-30"/>
       <use x="254.4921875" xlink:href="#BitstreamVeraSans-Roman-30"/>
      </g>
     </g>
    </g>
    <g id="ytick_6">
     <g id="line2d_25">
      <g>
       <use style="stroke:#000000;stroke-width:0.5;" x="198.5625" xlink:href="#meb74ed2c18" y="250.071428571"/>
      </g>
     </g>
     <g id="line2d_26">
      <g>
       <use style="stroke:#000000;stroke-width:0.5;" x="1336.05" xlink:href="#m21d45998bd" y="250.071428571"/>
      </g>
     </g>
     <g id="text_13">
      <!-- 50000 -->
      <defs>
       <path d="M 10.796875 72.90625 
L 49.515625 72.90625 
L 49.515625 64.59375 
L 19.828125 64.59375 
L 19.828125 46.734375 
Q 21.96875 47.46875 24.109375 47.828125 
Q 26.265625 48.1875 28.421875 48.1875 
Q 40.625 48.1875 47.75 41.5 
Q 54.890625 34.8125 54.890625 23.390625 
Q 54.890625 11.625 47.5625 5.09375 
Q 40.234375 -1.421875 26.90625 -1.421875 
Q 22.3125 -1.421875 17.546875 -0.640625 
Q 12.796875 0.140625 7.71875 1.703125 
L 7.71875 11.625 
Q 12.109375 9.234375 16.796875 8.0625 
Q 21.484375 6.890625 26.703125 6.890625 
Q 35.15625 6.890625 40.078125 11.328125 
Q 45.015625 15.765625 45.015625 23.390625 
Q 45.015625 31 40.078125 35.4375 
Q 35.15625 39.890625 26.703125 39.890625 
Q 22.75 39.890625 18.8125 39.015625 
Q 14.890625 38.140625 10.796875 36.28125 
z
" id="BitstreamVeraSans-Roman-35"/>
      </defs>
      <g transform="translate(99.125 258.349553571)scale(0.3 -0.3)">
       <use xlink:href="#BitstreamVeraSans-Roman-35"/>
       <use x="63.623046875" xlink:href="#BitstreamVeraSans-Roman-30"/>
       <use x="127.24609375" xlink:href="#BitstreamVeraSans-Roman-30"/>
       <use x="190.869140625" xlink:href="#BitstreamVeraSans-Roman-30"/>
       <use x="254.4921875" xlink:href="#BitstreamVeraSans-Roman-30"/>
      </g>
     </g>
    </g>
    <g id="ytick_7">
     <g id="line2d_27">
      <g>
       <use style="stroke:#000000;stroke-width:0.5;" x="198.5625" xlink:href="#meb74ed2c18" y="150.685714286"/>
      </g>
     </g>
     <g id="line2d_28">
      <g>
       <use style="stroke:#000000;stroke-width:0.5;" x="1336.05" xlink:href="#m21d45998bd" y="150.685714286"/>
      </g>
     </g>
     <g id="text_14">
      <!-- 60000 -->
      <g transform="translate(99.125 158.963839286)scale(0.3 -0.3)">
       <use xlink:href="#BitstreamVeraSans-Roman-36"/>
       <use x="63.623046875" xlink:href="#BitstreamVeraSans-Roman-30"/>
       <use x="127.24609375" xlink:href="#BitstreamVeraSans-Roman-30"/>
       <use x="190.869140625" xlink:href="#BitstreamVeraSans-Roman-30"/>
       <use x="254.4921875" xlink:href="#BitstreamVeraSans-Roman-30"/>
      </g>
     </g>
    </g>
    <g id="ytick_8">
     <g id="line2d_29">
      <g>
       <use style="stroke:#000000;stroke-width:0.5;" x="198.5625" xlink:href="#meb74ed2c18" y="51.3"/>
      </g>
     </g>
     <g id="line2d_30">
      <g>
       <use style="stroke:#000000;stroke-width:0.5;" x="1336.05" xlink:href="#m21d45998bd" y="51.3"/>
      </g>
     </g>
     <g id="text_15">
      <!-- 70000 -->
      <defs>
       <path d="M 8.203125 72.90625 
L 55.078125 72.90625 
L 55.078125 68.703125 
L 28.609375 0 
L 18.3125 0 
L 43.21875 64.59375 
L 8.203125 64.59375 
z
" id="BitstreamVeraSans-Roman-37"/>
      </defs>
      <g transform="translate(99.125 59.578125)scale(0.3 -0.3)">
       <use xlink:href="#BitstreamVeraSans-Roman-37"/>
       <use x="63.623046875" xlink:href="#BitstreamVeraSans-Roman-30"/>
       <use x="127.24609375" xlink:href="#BitstreamVeraSans-Roman-30"/>
       <use x="190.869140625" xlink:href="#BitstreamVeraSans-Roman-30"/>
       <use x="254.4921875" xlink:href="#BitstreamVeraSans-Roman-30"/>
      </g>
     </g>
    </g>
    <g id="text_16">
     <!-- log(loss) -->
     <defs>
      <path d="M 8.015625 75.875 
L 15.828125 75.875 
Q 23.140625 64.359375 26.78125 53.3125 
Q 30.421875 42.28125 30.421875 31.390625 
Q 30.421875 20.453125 26.78125 9.375 
Q 23.140625 -1.703125 15.828125 -13.1875 
L 8.015625 -13.1875 
Q 14.5 -2 17.703125 9.0625 
Q 20.90625 20.125 20.90625 31.390625 
Q 20.90625 42.671875 17.703125 53.65625 
Q 14.5 64.65625 8.015625 75.875 
" id="BitstreamVeraSans-Roman-29"/>
      <path d="M 31 75.875 
Q 24.46875 64.65625 21.28125 53.65625 
Q 18.109375 42.671875 18.109375 31.390625 
Q 18.109375 20.125 21.3125 9.0625 
Q 24.515625 -2 31 -13.1875 
L 23.1875 -13.1875 
Q 15.875 -1.703125 12.234375 9.375 
Q 8.59375 20.453125 8.59375 31.390625 
Q 8.59375 42.28125 12.203125 53.3125 
Q 15.828125 64.359375 23.1875 75.875 
z
" id="BitstreamVeraSans-Roman-28"/>
      <path d="M 45.40625 27.984375 
Q 45.40625 37.75 41.375 43.109375 
Q 37.359375 48.484375 30.078125 48.484375 
Q 22.859375 48.484375 18.828125 43.109375 
Q 14.796875 37.75 14.796875 27.984375 
Q 14.796875 18.265625 18.828125 12.890625 
Q 22.859375 7.515625 30.078125 7.515625 
Q 37.359375 7.515625 41.375 12.890625 
Q 45.40625 18.265625 45.40625 27.984375 
M 54.390625 6.78125 
Q 54.390625 -7.171875 48.1875 -13.984375 
Q 42 -20.796875 29.203125 -20.796875 
Q 24.46875 -20.796875 20.265625 -20.09375 
Q 16.0625 -19.390625 12.109375 -17.921875 
L 12.109375 -9.1875 
Q 16.0625 -11.328125 19.921875 -12.34375 
Q 23.78125 -13.375 27.78125 -13.375 
Q 36.625 -13.375 41.015625 -8.765625 
Q 45.40625 -4.15625 45.40625 5.171875 
L 45.40625 9.625 
Q 42.625 4.78125 38.28125 2.390625 
Q 33.9375 0 27.875 0 
Q 17.828125 0 11.671875 7.65625 
Q 5.515625 15.328125 5.515625 27.984375 
Q 5.515625 40.671875 11.671875 48.328125 
Q 17.828125 56 27.875 56 
Q 33.9375 56 38.28125 53.609375 
Q 42.625 51.21875 45.40625 46.390625 
L 45.40625 54.6875 
L 54.390625 54.6875 
z
" id="BitstreamVeraSans-Roman-67"/>
      <path d="M 9.421875 75.984375 
L 18.40625 75.984375 
L 18.40625 0 
L 9.421875 0 
z
" id="BitstreamVeraSans-Roman-6c"/>
     </defs>
     <g transform="translate(87.8859375 462.69609375)rotate(-90.0)scale(0.3 -0.3)">
      <use xlink:href="#BitstreamVeraSans-Roman-6c"/>
      <use x="27.783203125" xlink:href="#BitstreamVeraSans-Roman-6f"/>
      <use x="88.96484375" xlink:href="#BitstreamVeraSans-Roman-67"/>
      <use x="152.44140625" xlink:href="#BitstreamVeraSans-Roman-28"/>
      <use x="191.455078125" xlink:href="#BitstreamVeraSans-Roman-6c"/>
      <use x="219.23828125" xlink:href="#BitstreamVeraSans-Roman-6f"/>
      <use x="280.419921875" xlink:href="#BitstreamVeraSans-Roman-73"/>
      <use x="332.51953125" xlink:href="#BitstreamVeraSans-Roman-73"/>
      <use x="384.619140625" xlink:href="#BitstreamVeraSans-Roman-29"/>
     </g>
    </g>
   </g>
   <g id="legend_1">
    <g id="patch_7">
     <path d="M 843.876562 163.36875 
L 1321.05 163.36875 
L 1321.05 66.3 
L 843.876562 66.3 
z
" style="fill:#ffffff;stroke:#000000;stroke-linejoin:miter;"/>
    </g>
    <g id="line2d_31">
     <path d="M 864.876562 90.595312 
L 906.876562 90.595312 
" style="fill:none;stroke:#0000ff;stroke-linecap:square;stroke-width:2.0;"/>
    </g>
    <g id="line2d_32"/>
    <g id="text_17">
     <!-- random: step=0.243750 -->
     <defs>
      <path id="BitstreamVeraSans-Roman-20"/>
      <path d="M 52 44.1875 
Q 55.375 50.25 60.0625 53.125 
Q 64.75 56 71.09375 56 
Q 79.640625 56 84.28125 50.015625 
Q 88.921875 44.046875 88.921875 33.015625 
L 88.921875 0 
L 79.890625 0 
L 79.890625 32.71875 
Q 79.890625 40.578125 77.09375 44.375 
Q 74.3125 48.1875 68.609375 48.1875 
Q 61.625 48.1875 57.5625 43.546875 
Q 53.515625 38.921875 53.515625 30.90625 
L 53.515625 0 
L 44.484375 0 
L 44.484375 32.71875 
Q 44.484375 40.625 41.703125 44.40625 
Q 38.921875 48.1875 33.109375 48.1875 
Q 26.21875 48.1875 22.15625 43.53125 
Q 18.109375 38.875 18.109375 30.90625 
L 18.109375 0 
L 9.078125 0 
L 9.078125 54.6875 
L 18.109375 54.6875 
L 18.109375 46.1875 
Q 21.1875 51.21875 25.484375 53.609375 
Q 29.78125 56 35.6875 56 
Q 41.65625 56 45.828125 52.96875 
Q 50 49.953125 52 44.1875 
" id="BitstreamVeraSans-Roman-6d"/>
      <path d="M 11.71875 12.40625 
L 22.015625 12.40625 
L 22.015625 0 
L 11.71875 0 
z
M 11.71875 51.703125 
L 22.015625 51.703125 
L 22.015625 39.3125 
L 11.71875 39.3125 
z
" id="BitstreamVeraSans-Roman-3a"/>
      <path d="M 10.6875 12.40625 
L 21 12.40625 
L 21 0 
L 10.6875 0 
z
" id="BitstreamVeraSans-Roman-2e"/>
      <path d="M 10.59375 45.40625 
L 73.1875 45.40625 
L 73.1875 37.203125 
L 10.59375 37.203125 
z
M 10.59375 25.484375 
L 73.1875 25.484375 
L 73.1875 17.1875 
L 10.59375 17.1875 
z
" id="BitstreamVeraSans-Roman-3d"/>
      <path d="M 45.40625 46.390625 
L 45.40625 75.984375 
L 54.390625 75.984375 
L 54.390625 0 
L 45.40625 0 
L 45.40625 8.203125 
Q 42.578125 3.328125 38.25 0.953125 
Q 33.9375 -1.421875 27.875 -1.421875 
Q 17.96875 -1.421875 11.734375 6.484375 
Q 5.515625 14.40625 5.515625 27.296875 
Q 5.515625 40.1875 11.734375 48.09375 
Q 17.96875 56 27.875 56 
Q 33.9375 56 38.25 53.625 
Q 42.578125 51.265625 45.40625 46.390625 
M 14.796875 27.296875 
Q 14.796875 17.390625 18.875 11.75 
Q 22.953125 6.109375 30.078125 6.109375 
Q 37.203125 6.109375 41.296875 11.75 
Q 45.40625 17.390625 45.40625 27.296875 
Q 45.40625 37.203125 41.296875 42.84375 
Q 37.203125 48.484375 30.078125 48.484375 
Q 22.953125 48.484375 18.875 42.84375 
Q 14.796875 37.203125 14.796875 27.296875 
" id="BitstreamVeraSans-Roman-64"/>
      <path d="M 18.109375 8.203125 
L 18.109375 -20.796875 
L 9.078125 -20.796875 
L 9.078125 54.6875 
L 18.109375 54.6875 
L 18.109375 46.390625 
Q 20.953125 51.265625 25.265625 53.625 
Q 29.59375 56 35.59375 56 
Q 45.5625 56 51.78125 48.09375 
Q 58.015625 40.1875 58.015625 27.296875 
Q 58.015625 14.40625 51.78125 6.484375 
Q 45.5625 -1.421875 35.59375 -1.421875 
Q 29.59375 -1.421875 25.265625 0.953125 
Q 20.953125 3.328125 18.109375 8.203125 
M 48.6875 27.296875 
Q 48.6875 37.203125 44.609375 42.84375 
Q 40.53125 48.484375 33.40625 48.484375 
Q 26.265625 48.484375 22.1875 42.84375 
Q 18.109375 37.203125 18.109375 27.296875 
Q 18.109375 17.390625 22.1875 11.75 
Q 26.265625 6.109375 33.40625 6.109375 
Q 40.53125 6.109375 44.609375 11.75 
Q 48.6875 17.390625 48.6875 27.296875 
" id="BitstreamVeraSans-Roman-70"/>
     </defs>
     <g transform="translate(939.8765625 101.0953125)scale(0.3 -0.3)">
      <use xlink:href="#BitstreamVeraSans-Roman-72"/>
      <use x="41.11328125" xlink:href="#BitstreamVeraSans-Roman-61"/>
      <use x="102.392578125" xlink:href="#BitstreamVeraSans-Roman-6e"/>
      <use x="165.771484375" xlink:href="#BitstreamVeraSans-Roman-64"/>
      <use x="229.248046875" xlink:href="#BitstreamVeraSans-Roman-6f"/>
      <use x="290.4296875" xlink:href="#BitstreamVeraSans-Roman-6d"/>
      <use x="387.841796875" xlink:href="#BitstreamVeraSans-Roman-3a"/>
      <use x="421.533203125" xlink:href="#BitstreamVeraSans-Roman-20"/>
      <use x="453.3203125" xlink:href="#BitstreamVeraSans-Roman-73"/>
      <use x="505.419921875" xlink:href="#BitstreamVeraSans-Roman-74"/>
      <use x="544.62890625" xlink:href="#BitstreamVeraSans-Roman-65"/>
      <use x="606.15234375" xlink:href="#BitstreamVeraSans-Roman-70"/>
      <use x="669.62890625" xlink:href="#BitstreamVeraSans-Roman-3d"/>
      <use x="753.41796875" xlink:href="#BitstreamVeraSans-Roman-30"/>
      <use x="817.041015625" xlink:href="#BitstreamVeraSans-Roman-2e"/>
      <use x="848.828125" xlink:href="#BitstreamVeraSans-Roman-32"/>
      <use x="912.451171875" xlink:href="#BitstreamVeraSans-Roman-34"/>
      <use x="976.07421875" xlink:href="#BitstreamVeraSans-Roman-33"/>
      <use x="1039.69726562" xlink:href="#BitstreamVeraSans-Roman-37"/>
      <use x="1103.3203125" xlink:href="#BitstreamVeraSans-Roman-35"/>
      <use x="1166.94335938" xlink:href="#BitstreamVeraSans-Roman-30"/>
     </g>
    </g>
    <g id="line2d_33">
     <path d="M 864.876562 134.629687 
L 906.876562 134.629687 
" style="fill:none;stroke:#008000;stroke-dasharray:6.000000,6.000000;stroke-dashoffset:0.0;stroke-width:2.0;"/>
    </g>
    <g id="line2d_34"/>
    <g id="text_18">
     <!-- corr: step=0.243750 -->
     <defs>
      <path d="M 48.78125 52.59375 
L 48.78125 44.1875 
Q 44.96875 46.296875 41.140625 47.34375 
Q 37.3125 48.390625 33.40625 48.390625 
Q 24.65625 48.390625 19.8125 42.84375 
Q 14.984375 37.3125 14.984375 27.296875 
Q 14.984375 17.28125 19.8125 11.734375 
Q 24.65625 6.203125 33.40625 6.203125 
Q 37.3125 6.203125 41.140625 7.25 
Q 44.96875 8.296875 48.78125 10.40625 
L 48.78125 2.09375 
Q 45.015625 0.34375 40.984375 -0.53125 
Q 36.96875 -1.421875 32.421875 -1.421875 
Q 20.0625 -1.421875 12.78125 6.34375 
Q 5.515625 14.109375 5.515625 27.296875 
Q 5.515625 40.671875 12.859375 48.328125 
Q 20.21875 56 33.015625 56 
Q 37.15625 56 41.109375 55.140625 
Q 45.0625 54.296875 48.78125 52.59375 
" id="BitstreamVeraSans-Roman-63"/>
     </defs>
     <g transform="translate(939.8765625 145.1296875)scale(0.3 -0.3)">
      <use xlink:href="#BitstreamVeraSans-Roman-63"/>
      <use x="54.98046875" xlink:href="#BitstreamVeraSans-Roman-6f"/>
      <use x="116.162109375" xlink:href="#BitstreamVeraSans-Roman-72"/>
      <use x="157.259765625" xlink:href="#BitstreamVeraSans-Roman-72"/>
      <use x="198.357421875" xlink:href="#BitstreamVeraSans-Roman-3a"/>
      <use x="232.048828125" xlink:href="#BitstreamVeraSans-Roman-20"/>
      <use x="263.8359375" xlink:href="#BitstreamVeraSans-Roman-73"/>
      <use x="315.935546875" xlink:href="#BitstreamVeraSans-Roman-74"/>
      <use x="355.14453125" xlink:href="#BitstreamVeraSans-Roman-65"/>
      <use x="416.66796875" xlink:href="#BitstreamVeraSans-Roman-70"/>
      <use x="480.14453125" xlink:href="#BitstreamVeraSans-Roman-3d"/>
      <use x="563.93359375" xlink:href="#BitstreamVeraSans-Roman-30"/>
      <use x="627.556640625" xlink:href="#BitstreamVeraSans-Roman-2e"/>
      <use x="659.34375" xlink:href="#BitstreamVeraSans-Roman-32"/>
      <use x="722.966796875" xlink:href="#BitstreamVeraSans-Roman-34"/>
      <use x="786.58984375" xlink:href="#BitstreamVeraSans-Roman-33"/>
      <use x="850.212890625" xlink:href="#BitstreamVeraSans-Roman-37"/>
      <use x="913.8359375" xlink:href="#BitstreamVeraSans-Roman-35"/>
      <use x="977.458984375" xlink:href="#BitstreamVeraSans-Roman-30"/>
     </g>
    </g>
   </g>
  </g>
 </g>
 <defs>
  <clipPath id="pb6bb3833a0">
   <rect height="695.7" width="1137.4875" x="198.5625" y="51.3"/>
  </clipPath>
 </defs>
</svg>
