<?xml version="1.0" encoding="utf-8" standalone="no"?>
<!DOCTYPE svg PUBLIC "-//W3C//DTD SVG 1.1//EN"
  "http://www.w3.org/Graphics/SVG/1.1/DTD/svg11.dtd">
<!-- Created with matplotlib (http://matplotlib.org/) -->
<svg height="864pt" version="1.1" viewBox="0 0 1440 864" width="1440pt" xmlns="http://www.w3.org/2000/svg" xmlns:xlink="http://www.w3.org/1999/xlink">
 <defs>
  <style type="text/css">
*{stroke-linecap:butt;stroke-linejoin:round;stroke-miterlimit:100000;}
  </style>
 </defs>
 <g id="figure_1">
  <g id="patch_1">
   <path d="M 0 864 
L 1440 864 
L 1440 0 
L 0 0 
z
" style="fill:#ffffff;"/>
  </g>
  <g id="axes_1">
   <g id="patch_2">
    <path d="M 166.8375 763.2 
L 1350.225 763.2 
L 1350.225 47.25 
L 166.8375 47.25 
z
" style="fill:#ffffff;"/>
   </g>
   <g id="line2d_1">
    <path clip-path="url(#p7ef1d0a27b)" d="M 168.020888 312.878905 
L 169.204275 342.896183 
L 170.387663 475.339272 
L 171.57105 520.257331 
L 172.754438 422.281435 
L 173.937825 514.23365 
L 175.121213 499.162508 
L 176.3046 500.495214 
L 177.487988 527.011746 
L 178.671375 578.449281 
L 179.854763 567.123525 
L 181.03815 607.97821 
L 182.221538 617.369147 
L 183.404925 482.519141 
L 184.588313 590.682397 
L 185.7717 535.708534 
L 186.955088 598.878879 
L 188.138475 583.099305 
L 189.321863 607.300026 
L 190.50525 602.959579 
L 191.688638 611.390392 
L 192.872025 601.341747 
L 194.055413 599.572527 
L 195.2388 575.996616 
L 196.422188 606.230218 
L 197.605575 550.154866 
L 198.788963 607.062832 
L 199.97235 623.545719 
L 201.155738 620.981043 
L 202.339125 455.781523 
L 203.522513 591.333124 
L 204.7059 592.51795 
L 205.889288 605.998608 
L 207.072675 580.575295 
L 208.256063 641.672893 
L 209.43945 589.710996 
L 210.622838 605.18017 
L 211.806225 628.95959 
L 212.989613 640.771834 
L 214.173 578.473624 
L 215.356388 641.651844 
L 216.539775 642.441179 
L 217.723163 663.841497 
L 218.90655 569.384137 
L 220.089938 635.108133 
L 221.273325 594.368859 
L 222.456713 586.791495 
L 223.6401 642.040605 
L 224.823488 651.246469 
L 226.006875 670.442843 
L 227.190263 655.977431 
L 228.37365 558.259957 
L 229.557038 656.557959 
L 230.740425 576.673833 
L 231.923813 657.526532 
L 233.1072 617.03759 
L 234.290588 607.573734 
L 235.473975 618.797145 
L 236.657363 683.419687 
L 237.84075 650.05026 
L 239.024138 644.730035 
L 240.207525 654.138048 
L 241.390913 611.064992 
L 242.5743 680.487227 
L 243.757688 665.577497 
L 244.941075 681.613596 
L 246.124463 693.497292 
L 247.30785 673.831219 
L 248.491238 696.78318 
L 249.674625 680.871585 
L 250.858013 647.352882 
L 252.0414 655.561356 
L 253.224788 657.459769 
L 254.408175 631.442934 
L 255.591563 680.187387 
L 256.77495 696.797213 
L 257.958338 696.374373 
L 259.141725 687.398794 
L 260.325113 625.750237 
L 261.5085 691.816062 
L 262.691888 699.115781 
L 263.875275 656.705015 
L 265.058663 657.571708 
L 266.24205 693.385245 
L 267.425438 689.283997 
L 268.608825 674.057781 
L 269.792213 669.422757 
L 270.9756 631.977749 
L 272.158988 667.79261 
L 273.342375 690.622394 
L 274.525763 627.035367 
L 275.70915 687.320684 
L 276.892538 691.512857 
L 278.075925 665.219414 
L 279.259313 689.134221 
L 280.4427 661.217648 
L 281.626088 681.019679 
L 282.809475 698.758235 
L 283.992863 676.486928 
L 285.17625 617.993205 
L 286.359638 686.018979 
L 287.543025 629.54001 
L 288.726413 646.427553 
L 289.9098 690.53827 
L 291.093187 683.629389 
L 292.276575 661.50614 
L 293.459963 677.226505 
L 294.64335 663.782145 
L 295.826738 697.634552 
L 297.010125 691.807614 
L 298.193512 672.724611 
L 299.3769 698.28646 
L 301.743675 675.386871 
L 302.927063 697.265265 
L 304.11045 691.659376 
L 305.293837 626.515694 
L 306.477225 636.845672 
L 307.660613 663.264656 
L 308.844 658.048602 
L 310.027388 690.773281 
L 311.210775 703.759934 
L 312.394162 683.797529 
L 313.57755 686.668811 
L 314.760938 693.434932 
L 315.944325 703.024689 
L 317.127713 716.424015 
L 318.3111 711.184765 
L 319.494487 680.350624 
L 320.677875 709.803876 
L 321.861263 690.263703 
L 323.04465 700.564541 
L 324.228038 719.651267 
L 325.411425 692.157463 
L 326.594812 685.318315 
L 327.7782 706.091675 
L 328.961588 668.23317 
L 330.144975 693.851436 
L 331.328363 709.604806 
L 332.51175 671.378339 
L 333.695137 716.558829 
L 334.878525 684.717203 
L 336.061913 688.909556 
L 337.2453 668.004603 
L 338.428688 695.13449 
L 339.612075 712.582478 
L 340.795462 710.759061 
L 341.97885 685.081944 
L 343.162238 708.44375 
L 344.345625 718.098873 
L 345.529013 651.760091 
L 346.7124 722.711524 
L 347.895787 722.685141 
L 349.079175 704.129185 
L 350.262563 714.250606 
L 352.629338 689.322444 
L 353.812725 711.695524 
L 354.996112 697.801118 
L 356.1795 702.575466 
L 357.362888 723.225683 
L 358.546275 687.455819 
L 359.729663 676.61716 
L 360.91305 678.029908 
L 362.096437 688.791639 
L 363.279825 718.552714 
L 364.463213 706.171289 
L 365.6466 715.920846 
L 366.829988 720.199649 
L 368.013375 716.018609 
L 369.196762 700.521692 
L 370.38015 718.860787 
L 371.563538 692.747943 
L 372.746925 703.22562 
L 373.930313 687.200583 
L 375.1137 708.796857 
L 376.297087 706.691713 
L 377.480475 709.093761 
L 379.84725 689.072184 
L 381.030638 713.785453 
L 382.214025 705.429959 
L 383.397412 723.191067 
L 384.5808 716.303628 
L 385.764188 718.164991 
L 386.947575 718.991806 
L 388.130963 709.588089 
L 389.31435 714.272514 
L 390.497737 714.039329 
L 391.681125 703.661419 
L 392.864513 719.659035 
L 394.0479 689.895311 
L 395.231288 718.039843 
L 396.414675 705.089202 
L 397.598063 722.308731 
L 398.78145 692.910714 
L 399.964838 709.468561 
L 401.148225 733.353566 
L 403.515 715.923316 
L 404.698388 711.469391 
L 405.881775 723.532647 
L 407.065163 703.739064 
L 408.24855 700.645014 
L 409.431938 691.507523 
L 410.615325 680.874699 
L 411.798713 725.123953 
L 412.9821 717.111972 
L 414.165488 686.139903 
L 415.348875 740.861777 
L 416.532263 679.861451 
L 417.71565 721.048694 
L 418.899038 704.714474 
L 420.082425 729.665307 
L 421.265813 734.300195 
L 422.4492 728.630895 
L 423.632587 721.409533 
L 424.815975 722.44383 
L 425.999363 724.546468 
L 427.18275 739.36731 
L 428.366138 711.576819 
L 429.549525 714.697394 
L 431.9163 737.637997 
L 433.099688 729.59853 
L 434.283075 725.611515 
L 435.466463 714.389393 
L 436.64985 727.229598 
L 437.833237 707.517776 
L 439.016625 737.115772 
L 440.200013 735.046279 
L 441.3834 730.384611 
L 442.566788 727.821689 
L 443.750175 723.320905 
L 444.933562 733.859814 
L 446.11695 734.471629 
L 447.300338 735.287436 
L 448.483725 730.778795 
L 449.667113 736.765547 
L 450.8505 730.740227 
L 452.033887 735.547917 
L 453.217275 735.190898 
L 454.400663 736.88394 
L 455.58405 719.85227 
L 456.767438 730.971622 
L 457.950825 724.30752 
L 459.134212 720.079799 
L 460.3176 722.369371 
L 461.500988 737.349977 
L 462.684375 727.83086 
L 463.867763 738.625707 
L 465.05115 614.131156 
L 466.234537 719.803299 
L 467.417925 695.69465 
L 468.601313 735.850717 
L 469.7847 716.917305 
L 470.968088 730.421529 
L 472.151475 731.394365 
L 473.334862 734.050235 
L 474.51825 742.533445 
L 475.701638 739.182444 
L 476.885025 723.190996 
L 478.068413 735.870187 
L 479.2518 745.366548 
L 480.435187 723.366117 
L 481.618575 741.298946 
L 482.801963 742.700941 
L 483.98535 715.826412 
L 485.168738 730.380584 
L 486.352125 734.894441 
L 487.535512 740.9027 
L 488.7189 744.583184 
L 489.902287 744.027933 
L 491.085675 739.352561 
L 492.269063 741.084004 
L 493.45245 740.404764 
L 494.635837 740.566143 
L 495.819225 742.686998 
L 497.002612 746.284887 
L 498.186 723.8966 
L 499.369388 749.652211 
L 500.552775 745.858091 
L 501.736162 746.901728 
L 502.91955 740.653739 
L 504.102937 738.402044 
L 505.286325 710.051344 
L 506.469713 736.997862 
L 507.6531 724.373423 
L 508.836487 728.731267 
L 510.019875 725.46428 
L 511.203262 740.589107 
L 512.38665 747.124073 
L 513.570038 743.792231 
L 514.753425 741.138735 
L 515.936812 731.890841 
L 517.1202 739.82913 
L 518.303588 742.793864 
L 519.486975 735.885262 
L 520.670363 741.614029 
L 521.85375 737.612498 
L 523.037137 744.752431 
L 524.220525 742.232892 
L 525.403912 730.564772 
L 526.5873 739.928192 
L 527.770688 734.250956 
L 528.954075 747.100722 
L 530.137463 746.820281 
L 532.504238 731.414877 
L 533.687625 744.222038 
L 534.871013 743.449388 
L 536.0544 724.702617 
L 537.237787 751.464097 
L 538.421175 713.241188 
L 539.604562 735.152884 
L 540.78795 741.586926 
L 541.971338 736.522389 
L 543.154725 733.333029 
L 544.338113 751.839194 
L 546.704888 751.922388 
L 547.888275 744.414034 
L 549.071663 743.990571 
L 550.25505 725.743107 
L 551.438437 741.996478 
L 552.621825 730.15628 
L 553.805212 721.606026 
L 554.9886 736.221085 
L 556.171988 747.272368 
L 557.355375 727.689474 
L 558.538763 721.686284 
L 559.72215 752.138701 
L 560.905538 748.313774 
L 562.088925 750.998755 
L 563.272312 718.590874 
L 564.4557 711.076119 
L 565.639087 733.046488 
L 566.822475 653.810644 
L 568.005862 746.809886 
L 569.18925 744.817884 
L 570.372637 747.339119 
L 571.556025 752.469757 
L 572.739413 755.125698 
L 573.9228 745.571435 
L 575.106188 746.891289 
L 576.289575 745.86713 
L 577.472962 753.240742 
L 578.65635 755.359299 
L 579.839737 755.520198 
L 581.023125 738.702747 
L 582.206512 750.593058 
L 583.3899 749.876679 
L 584.573287 749.597415 
L 585.756675 742.155498 
L 586.940063 752.613147 
L 588.12345 740.402244 
L 589.306838 747.928776 
L 590.490225 754.029371 
L 591.673612 751.087372 
L 592.857 731.702295 
L 594.040387 744.900007 
L 595.223775 750.024383 
L 596.407162 752.196529 
L 597.59055 744.570165 
L 598.773937 752.498316 
L 599.957325 744.736018 
L 601.140713 751.978601 
L 602.3241 750.872637 
L 603.507488 750.889676 
L 604.690875 753.256088 
L 605.874262 724.661163 
L 607.05765 749.184817 
L 608.241037 748.473578 
L 609.424425 743.92755 
L 610.607812 748.869294 
L 611.7912 735.226552 
L 612.974587 752.12454 
L 614.157975 731.336226 
L 615.341363 737.850129 
L 616.52475 692.640371 
L 617.708138 755.622704 
L 618.891525 745.845007 
L 620.074912 747.604647 
L 621.2583 751.876184 
L 622.441687 741.289532 
L 623.625075 746.805665 
L 624.808463 745.998234 
L 625.99185 753.891884 
L 627.175237 748.09173 
L 628.358625 754.208724 
L 629.542013 754.225524 
L 630.7254 750.272997 
L 631.908788 741.2159 
L 633.092175 755.208537 
L 634.275562 735.100172 
L 635.45895 741.599409 
L 636.642337 753.439021 
L 637.825725 753.575563 
L 639.009113 754.517327 
L 640.1925 727.165914 
L 641.375887 750.766028 
L 642.559275 752.390057 
L 643.742663 752.961507 
L 644.92605 757.086102 
L 646.109438 758.468612 
L 647.292825 749.92672 
L 648.476212 745.117423 
L 649.6596 750.948606 
L 650.842987 757.346142 
L 652.026375 758.207648 
L 653.209763 759.3098 
L 654.39315 757.376824 
L 655.576537 757.975512 
L 656.759925 757.2941 
L 657.943313 752.498387 
L 659.1267 756.914292 
L 660.310088 759.312592 
L 661.493475 758.570266 
L 662.676862 758.159365 
L 663.86025 756.959329 
L 665.043637 756.507439 
L 666.227025 750.919149 
L 667.410413 743.060183 
L 668.5938 757.021287 
L 669.777187 756.493789 
L 670.960575 757.391161 
L 672.143963 751.416762 
L 673.32735 741.097908 
L 674.510738 752.707474 
L 675.694125 757.240078 
L 676.877512 754.76046 
L 678.0609 755.021796 
L 679.244287 757.376337 
L 680.427675 751.669052 
L 681.611062 755.648457 
L 682.79445 750.979457 
L 683.977838 752.420736 
L 686.344613 759.627664 
L 687.528 759.199987 
L 689.894775 759.295459 
L 691.078162 756.424264 
L 692.26155 759.727738 
L 693.444937 746.61824 
L 694.628325 750.826204 
L 695.811712 758.212642 
L 696.9951 756.711785 
L 698.178488 757.195338 
L 699.361875 757.848746 
L 700.545263 759.501001 
L 701.72865 728.379493 
L 702.912037 756.175575 
L 704.095425 759.970865 
L 705.278812 756.182426 
L 706.4622 759.912424 
L 707.645587 757.310903 
L 708.828975 756.414723 
L 710.012362 757.866477 
L 711.19575 758.935383 
L 712.379138 756.582388 
L 713.562525 756.276516 
L 714.745913 756.802958 
L 715.9293 758.834151 
L 717.112687 753.46879 
L 718.296075 757.654735 
L 719.479462 758.005321 
L 720.66285 756.029825 
L 721.846237 758.511616 
L 723.029625 747.345044 
L 724.213012 758.156569 
L 725.3964 758.196308 
L 726.579788 756.142083 
L 727.763175 758.75632 
L 728.946563 756.869237 
L 730.12995 749.482666 
L 731.313337 758.273305 
L 732.496725 758.790432 
L 733.680112 755.246404 
L 734.8635 759.633651 
L 736.046887 755.355948 
L 737.230275 755.378218 
L 738.413662 759.203907 
L 739.59705 754.5673 
L 740.780438 757.610049 
L 741.963825 757.74232 
L 743.147213 756.463727 
L 744.3306 756.463791 
L 745.513987 755.960833 
L 746.697375 758.967311 
L 747.880762 756.71829 
L 749.06415 755.972535 
L 750.247537 761.059231 
L 751.430925 758.908728 
L 752.614312 759.063466 
L 753.7977 757.792025 
L 754.981088 751.921081 
L 756.164475 760.483279 
L 757.347863 761.070177 
L 758.53125 761.424585 
L 759.714637 761.208904 
L 760.898025 760.74263 
L 762.081412 755.477148 
L 763.2648 760.054568 
L 764.448187 761.339968 
L 766.814963 761.455146 
L 769.181738 761.461309 
L 770.365125 756.144349 
L 771.548513 756.920066 
L 772.7319 759.358409 
L 775.098675 759.521474 
L 776.282062 755.843986 
L 777.46545 760.335204 
L 778.648837 757.95896 
L 779.832225 758.607385 
L 781.015613 758.64857 
L 782.199 760.1693 
L 783.382388 760.1526 
L 784.565775 760.651019 
L 785.749163 760.693783 
L 786.93255 760.850564 
L 788.115937 761.411816 
L 789.299325 761.087455 
L 792.849487 761.077573 
L 794.032875 758.420683 
L 795.216263 758.849337 
L 797.583038 759.158817 
L 798.766425 752.975514 
L 799.949813 760.045103 
L 802.316587 760.075286 
L 803.499975 760.46141 
L 804.683362 761.053388 
L 807.050137 761.129758 
L 808.233525 760.96693 
L 809.416913 761.463278 
L 815.33385 761.488675 
L 816.517237 759.468615 
L 817.700625 759.611945 
L 818.884012 761.318993 
L 820.0674 761.646347 
L 821.250787 759.126889 
L 822.434175 756.325022 
L 823.617563 760.735794 
L 824.80095 757.336183 
L 825.984338 751.93671 
L 827.167725 757.661493 
L 828.351112 761.501744 
L 829.5345 757.182122 
L 830.717887 756.433263 
L 831.901275 758.73467 
L 833.084662 760.635877 
L 834.26805 759.98818 
L 835.451437 760.259869 
L 836.634825 760.259894 
L 837.818213 762.113969 
L 839.0016 750.856439 
L 840.184988 754.41423 
L 841.368375 749.473885 
L 842.551762 753.440248 
L 843.73515 758.075667 
L 844.918537 759.808772 
L 846.101925 759.532539 
L 847.285312 751.070035 
L 848.4687 740.683938 
L 849.652087 755.409014 
L 850.835475 760.766177 
L 852.018863 760.78227 
L 853.20225 757.49405 
L 854.385638 749.038616 
L 855.569025 760.399489 
L 856.752412 762.314151 
L 861.485962 762.338075 
L 862.66935 762.5847 
L 863.852737 757.479459 
L 865.036125 760.013515 
L 866.219513 758.532403 
L 867.4029 759.311901 
L 868.586288 762.88951 
L 875.686612 762.906566 
L 878.053387 763.028296 
L 879.236775 763.022584 
L 880.420163 762.472505 
L 882.786938 762.496515 
L 883.970325 758.609515 
L 885.153712 760.385555 
L 886.3371 760.694282 
L 887.520487 757.32906 
L 888.703875 761.429093 
L 889.887262 761.958033 
L 891.07065 762.202362 
L 893.437425 762.238766 
L 894.620813 762.339443 
L 895.8042 762.124588 
L 899.354362 762.234909 
L 902.904525 762.36554 
L 904.087912 757.672182 
L 906.454687 762.244272 
L 911.188238 762.325441 
L 913.555012 762.364741 
L 914.7384 762.202644 
L 915.921787 761.623706 
L 917.105175 761.653109 
L 918.288562 762.071184 
L 921.838725 762.391722 
L 923.022113 762.097745 
L 925.388888 762.142473 
L 926.572275 762.913088 
L 927.755662 762.863361 
L 930.122437 760.395037 
L 931.305825 749.994531 
L 932.489212 760.141906 
L 933.6726 762.529502 
L 934.855987 761.741845 
L 936.039375 759.303285 
L 937.222763 761.743915 
L 938.40615 756.452569 
L 939.589538 761.796679 
L 940.772925 761.650705 
L 941.956312 759.389438 
L 943.1397 759.813084 
L 944.323087 762.088093 
L 945.506475 760.191556 
L 946.689862 754.425782 
L 947.87325 759.037481 
L 949.056637 755.723864 
L 950.240025 756.035223 
L 951.423413 761.524986 
L 952.6068 757.063421 
L 953.790188 761.805445 
L 954.973575 761.707243 
L 956.156962 761.345986 
L 958.523737 762.097762 
L 960.890512 762.1127 
L 962.0739 762.328791 
L 963.257287 762.328892 
L 964.440675 754.622328 
L 965.624063 759.675861 
L 966.80745 756.89252 
L 967.990837 757.060049 
L 969.174225 762.196555 
L 970.357612 762.212398 
L 971.541 762.36057 
L 972.724387 762.34997 
L 973.907775 759.942146 
L 975.091162 762.712207 
L 976.27455 755.66773 
L 977.457938 759.142479 
L 978.641325 757.727146 
L 979.824713 758.070845 
L 981.0081 758.048632 
L 982.191487 752.387043 
L 983.374875 752.390712 
L 984.558262 744.224934 
L 985.74165 761.50273 
L 986.925037 760.115598 
L 988.108425 761.109024 
L 989.291812 762.886588 
L 999.9423 762.960378 
L 1001.125687 762.7168 
L 1003.492462 762.735826 
L 1004.67585 762.9387 
L 1007.042625 762.881651 
L 1010.592787 762.942395 
L 1011.776175 761.308184 
L 1012.959562 762.605982 
L 1014.14295 763.07731 
L 1015.326337 763.079736 
L 1016.509725 760.208085 
L 1017.693112 760.663485 
L 1018.8765 761.880422 
L 1020.059888 762.464072 
L 1021.243275 758.496459 
L 1022.426663 756.710751 
L 1023.61005 762.06394 
L 1025.976825 762.235653 
L 1027.160212 761.20106 
L 1028.3436 761.200738 
L 1029.526987 761.709405 
L 1030.710375 761.757278 
L 1031.893762 762.661606 
L 1038.994087 762.872244 
L 1040.177475 762.44698 
L 1041.360862 762.449571 
L 1042.54425 762.573251 
L 1043.727637 763.027178 
L 1062.661838 763.154641 
L 1063.845225 762.368143 
L 1065.028613 762.378433 
L 1066.212 762.695872 
L 1078.045875 762.669724 
L 1079.229263 763.010839 
L 1083.962812 763.051895 
L 1085.1462 762.050206 
L 1086.329587 762.244023 
L 1087.512975 762.247858 
L 1088.696362 763.114287 
L 1093.429913 763.11065 
L 1094.6133 757.246793 
L 1095.796687 762.814038 
L 1096.980075 762.780813 
L 1099.34685 762.865363 
L 1113.5475 762.813478 
L 1114.730887 763.089607 
L 1130.114925 763.14771 
L 1350.225 763.198575 
L 1350.225 763.198575 
" style="fill:none;stroke:#0000ff;stroke-linecap:square;stroke-width:2.0;"/>
   </g>
   <g id="line2d_2">
    <path clip-path="url(#p7ef1d0a27b)" d="M 168.020888 70.36731 
L 169.204275 365.854194 
L 170.387663 445.628278 
L 171.57105 501.685051 
L 172.754438 524.032965 
L 173.937825 502.396669 
L 175.121213 520.617633 
L 176.3046 546.314761 
L 177.487988 592.860496 
L 178.671375 526.565566 
L 179.854763 547.171037 
L 181.03815 537.490068 
L 183.404925 617.628285 
L 184.588313 589.136947 
L 185.7717 533.573249 
L 186.955088 569.71598 
L 188.138475 600.192576 
L 189.321863 592.141503 
L 190.50525 629.180675 
L 191.688638 562.472177 
L 192.872025 598.12484 
L 194.055413 618.701816 
L 195.2388 589.559537 
L 196.422188 567.596016 
L 197.605575 638.929122 
L 198.788963 580.122099 
L 199.97235 633.337087 
L 201.155738 653.40513 
L 202.339125 639.84586 
L 203.522513 600.670186 
L 204.7059 509.072867 
L 205.889288 636.682292 
L 207.072675 646.701511 
L 208.256063 530.878449 
L 209.43945 608.898742 
L 210.622838 614.318985 
L 211.806225 608.102534 
L 212.989613 608.202374 
L 214.173 647.124995 
L 215.356388 630.460006 
L 216.539775 661.359621 
L 217.723163 585.954442 
L 218.90655 586.570947 
L 220.089938 620.311916 
L 221.273325 626.035292 
L 222.456713 629.73142 
L 223.6401 646.301689 
L 224.823488 638.603723 
L 226.006875 582.663721 
L 227.190263 627.400143 
L 228.37365 667.731432 
L 229.557038 662.830862 
L 230.740425 652.2832 
L 231.923813 659.111108 
L 233.1072 615.253479 
L 234.290588 674.287637 
L 235.473975 625.224228 
L 236.657363 641.278906 
L 237.84075 666.824825 
L 239.024138 637.98797 
L 240.207525 668.201597 
L 241.390913 687.164571 
L 242.5743 676.910198 
L 243.757688 646.943287 
L 244.941075 676.551113 
L 246.124463 628.978097 
L 247.30785 615.134989 
L 248.491238 670.264535 
L 249.674625 643.81208 
L 250.858013 558.990906 
L 252.0414 650.614679 
L 253.224788 643.229869 
L 254.408175 650.694078 
L 255.591563 668.01749 
L 256.77495 669.234319 
L 257.958338 660.966994 
L 259.141725 687.400226 
L 260.325113 664.873324 
L 261.5085 674.938364 
L 262.691888 621.540486 
L 263.875275 680.046703 
L 265.058663 672.092284 
L 266.24205 660.907713 
L 267.425438 685.876827 
L 268.608825 636.828202 
L 269.792213 702.06997 
L 270.9756 570.934599 
L 272.158988 686.900707 
L 273.342375 663.73031 
L 274.525763 703.708708 
L 275.70915 669.293421 
L 276.892538 688.180182 
L 278.075925 692.289126 
L 279.259313 693.907137 
L 280.4427 673.087705 
L 281.626088 687.268312 
L 282.809475 677.699425 
L 283.992863 677.139087 
L 285.17625 708.979925 
L 286.359638 667.638896 
L 287.543025 702.784595 
L 288.726413 691.085972 
L 289.9098 695.971865 
L 291.093187 692.30391 
L 292.276575 693.185925 
L 293.459963 697.382895 
L 294.64335 680.01266 
L 295.826738 698.85428 
L 297.010125 696.471992 
L 298.193512 633.953055 
L 299.3769 690.357457 
L 300.560288 694.991336 
L 301.743675 693.61929 
L 302.927063 704.812702 
L 304.11045 683.012956 
L 305.293837 694.381561 
L 306.477225 686.411069 
L 307.660613 697.078259 
L 308.844 697.443536 
L 310.027388 707.434977 
L 311.210775 676.79246 
L 312.394162 715.449106 
L 313.57755 631.421097 
L 314.760938 689.51328 
L 315.944325 701.343889 
L 317.127713 714.880033 
L 318.3111 713.266246 
L 319.494487 697.611534 
L 320.677875 703.906596 
L 321.861263 699.57943 
L 323.04465 681.467685 
L 324.228038 683.460639 
L 325.411425 679.688764 
L 326.594812 685.674643 
L 327.7782 712.203633 
L 328.961588 691.636896 
L 330.144975 705.038119 
L 331.328363 658.1764 
L 332.51175 701.612621 
L 333.695137 714.411909 
L 334.878525 722.667636 
L 337.2453 712.085323 
L 338.428688 714.617817 
L 339.612075 665.51503 
L 340.795462 653.58265 
L 341.97885 652.159663 
L 343.162238 676.994394 
L 344.345625 660.518916 
L 345.529013 712.885934 
L 346.7124 684.17326 
L 347.895787 700.290404 
L 349.079175 721.431405 
L 350.262563 712.211473 
L 351.44595 683.405726 
L 352.629338 721.743094 
L 353.812725 711.117 
L 354.996112 713.301077 
L 356.1795 676.611074 
L 357.362888 721.162351 
L 358.546275 708.017867 
L 359.729663 717.814498 
L 360.91305 698.917284 
L 362.096437 723.237604 
L 363.279825 725.350158 
L 364.463213 721.766864 
L 365.6466 601.833354 
L 366.829988 709.737651 
L 368.013375 680.301223 
L 369.196762 702.011548 
L 370.38015 720.145022 
L 371.563538 704.005075 
L 372.746925 724.497282 
L 373.930313 719.272995 
L 375.1137 703.705199 
L 377.480475 723.309378 
L 378.663863 720.549248 
L 379.84725 720.876831 
L 381.030638 723.446447 
L 382.214025 726.722992 
L 383.397412 714.180264 
L 384.5808 729.51394 
L 385.764188 700.472327 
L 386.947575 700.191209 
L 388.130963 721.843649 
L 389.31435 703.723098 
L 390.497737 714.87853 
L 391.681125 716.775797 
L 392.864513 724.875196 
L 394.0479 724.104226 
L 395.231288 674.305357 
L 396.414675 718.250046 
L 397.598063 718.186111 
L 399.964838 721.458146 
L 401.148225 719.241565 
L 402.331613 736.710222 
L 403.515 717.92189 
L 404.698388 731.208934 
L 405.881775 728.982211 
L 407.065163 719.712302 
L 408.24855 737.339073 
L 409.431938 730.770701 
L 410.615325 727.909496 
L 411.798713 737.186891 
L 412.9821 730.621082 
L 414.165488 725.85927 
L 415.348875 708.200077 
L 416.532263 718.560875 
L 417.71565 723.22776 
L 418.899038 737.077823 
L 420.082425 725.886225 
L 421.265813 700.881851 
L 422.4492 726.605612 
L 423.632587 714.748084 
L 424.815975 722.942633 
L 425.999363 734.56902 
L 427.18275 737.352222 
L 428.366138 727.776119 
L 429.549525 735.066219 
L 430.732912 716.774688 
L 431.9163 725.834963 
L 433.099688 730.084714 
L 434.283075 724.00836 
L 435.466463 727.418698 
L 436.64985 703.683148 
L 437.833237 733.336798 
L 439.016625 711.83159 
L 440.200013 730.786914 
L 441.3834 734.135634 
L 442.566788 713.554273 
L 443.750175 740.774567 
L 444.933562 718.247325 
L 446.11695 712.85189 
L 447.300338 741.445487 
L 448.483725 740.548871 
L 449.667113 744.850864 
L 450.8505 742.354067 
L 452.033887 713.56673 
L 453.217275 727.087339 
L 454.400663 731.122172 
L 455.58405 742.523894 
L 456.767438 725.073264 
L 457.950825 724.385952 
L 459.134212 691.702799 
L 460.3176 709.909371 
L 461.500988 716.055408 
L 462.684375 717.741757 
L 463.867763 744.625676 
L 465.05115 740.867218 
L 466.234537 740.941644 
L 467.417925 739.465423 
L 468.601313 730.942089 
L 469.7847 729.939218 
L 470.968088 724.080027 
L 472.151475 716.865935 
L 473.334862 712.740274 
L 474.51825 716.63991 
L 475.701638 727.081611 
L 476.885025 732.80464 
L 478.068413 732.457196 
L 479.2518 702.663635 
L 480.435187 739.229153 
L 481.618575 737.603395 
L 482.801963 732.937846 
L 483.98535 741.036794 
L 485.168738 733.000681 
L 486.352125 742.38588 
L 487.535512 740.2836 
L 488.7189 726.930116 
L 489.902287 743.974935 
L 491.085675 721.800048 
L 492.269063 742.294722 
L 493.45245 745.947298 
L 494.635837 737.419224 
L 495.819225 738.459897 
L 497.002612 745.121632 
L 498.186 743.527176 
L 499.369388 742.631301 
L 500.552775 734.611465 
L 501.736162 707.794133 
L 502.91955 739.045683 
L 504.102937 726.908029 
L 505.286325 748.284044 
L 506.469713 707.35633 
L 507.6531 738.571406 
L 508.836487 740.716825 
L 510.019875 726.893961 
L 511.203262 729.929603 
L 512.38665 741.418542 
L 513.570038 728.935456 
L 514.753425 749.550034 
L 515.936812 750.461048 
L 517.1202 750.499094 
L 518.303588 747.456972 
L 519.486975 747.10998 
L 520.670363 741.546085 
L 521.85375 740.201556 
L 523.037137 748.701848 
L 524.220525 748.484117 
L 525.403912 746.003618 
L 526.5873 725.597304 
L 527.770688 737.813197 
L 528.954075 738.990101 
L 530.137463 741.779932 
L 531.32085 750.403525 
L 532.504238 747.452372 
L 533.687625 738.681401 
L 534.871013 741.401878 
L 536.0544 734.681535 
L 537.237787 743.242922 
L 538.421175 737.358955 
L 539.604562 744.566836 
L 540.78795 745.034544 
L 541.971338 745.042563 
L 543.154725 745.676104 
L 544.338113 747.507436 
L 545.5215 747.901806 
L 546.704888 744.767151 
L 547.888275 728.918642 
L 549.071663 742.886075 
L 550.25505 753.479286 
L 551.438437 707.37387 
L 552.621825 749.444889 
L 553.805212 749.952627 
L 554.9886 752.050836 
L 556.171988 750.837963 
L 557.355375 749.256888 
L 558.538763 746.998682 
L 559.72215 749.796349 
L 560.905538 724.359068 
L 562.088925 737.774024 
L 563.272312 740.096848 
L 564.4557 744.366549 
L 565.639087 746.925368 
L 566.822475 751.424233 
L 568.005862 750.941526 
L 569.18925 751.599988 
L 570.372637 749.812258 
L 571.556025 740.075739 
L 572.739413 740.200296 
L 573.9228 748.566082 
L 575.106188 745.5547 
L 576.289575 751.5204 
L 577.472962 754.244529 
L 578.65635 756.042873 
L 579.839737 754.906915 
L 581.023125 756.199018 
L 582.206512 756.639936 
L 583.3899 758.161606 
L 584.573287 758.154167 
L 585.756675 758.388172 
L 586.940063 758.384144 
L 588.12345 732.538145 
L 589.306838 743.873399 
L 590.490225 751.609772 
L 591.673612 753.171409 
L 592.857 752.198891 
L 594.040387 750.319963 
L 595.223775 749.000077 
L 596.407162 739.002673 
L 597.59055 751.220231 
L 598.773937 754.758975 
L 599.957325 752.047396 
L 601.140713 752.042574 
L 602.3241 749.06172 
L 603.507488 737.914185 
L 604.690875 747.468252 
L 605.874262 744.369767 
L 607.05765 732.077113 
L 608.241037 743.888713 
L 609.424425 752.632284 
L 610.607812 741.293727 
L 611.7912 749.195606 
L 612.974587 753.62912 
L 614.157975 738.149017 
L 615.341363 742.288199 
L 616.52475 741.65138 
L 617.708138 739.809738 
L 618.891525 748.317386 
L 620.074912 746.20223 
L 621.2583 739.195253 
L 622.441687 736.249566 
L 623.625075 752.688472 
L 624.808463 742.558897 
L 625.99185 737.680138 
L 627.175237 741.722492 
L 628.358625 746.744476 
L 629.542013 740.957875 
L 630.7254 744.979935 
L 631.908788 742.677075 
L 633.092175 738.758655 
L 634.275562 749.682728 
L 635.45895 746.600971 
L 636.642337 755.187449 
L 637.825725 748.65801 
L 639.009113 755.540284 
L 640.1925 752.912844 
L 641.375887 757.296652 
L 642.559275 746.726266 
L 643.742663 758.541084 
L 644.92605 736.245703 
L 646.109438 756.402123 
L 647.292825 746.71552 
L 648.476212 754.950545 
L 649.6596 737.42779 
L 650.842987 757.958605 
L 652.026375 728.557535 
L 653.209763 747.267506 
L 654.39315 754.198103 
L 655.576537 755.753472 
L 656.759925 754.519418 
L 657.943313 732.193874 
L 659.1267 721.973308 
L 660.310088 750.265966 
L 661.493475 745.254556 
L 662.676862 746.521809 
L 663.86025 751.423346 
L 665.043637 753.103297 
L 666.227025 750.527331 
L 667.410413 757.956787 
L 668.5938 757.178818 
L 669.777187 749.099333 
L 670.960575 753.497725 
L 672.143963 749.670185 
L 673.32735 756.725353 
L 674.510738 756.524736 
L 675.694125 747.61917 
L 676.877512 757.946438 
L 678.0609 744.901847 
L 679.244287 752.164662 
L 680.427675 753.167375 
L 681.611062 747.063758 
L 682.79445 756.205981 
L 683.977838 750.122196 
L 685.161225 750.669214 
L 686.344613 749.243872 
L 687.528 749.660895 
L 688.711388 746.705479 
L 689.894775 756.336989 
L 691.078162 757.679632 
L 692.26155 756.281621 
L 694.628325 756.329765 
L 695.811712 757.818139 
L 696.9951 757.888596 
L 698.178488 747.248523 
L 699.361875 754.354764 
L 700.545263 752.267551 
L 701.72865 739.46828 
L 704.095425 754.109465 
L 705.278812 737.719368 
L 706.4622 733.81385 
L 707.645587 757.883366 
L 708.828975 758.629139 
L 711.19575 759.750218 
L 712.379138 757.084692 
L 713.562525 759.94566 
L 715.9293 759.97849 
L 717.112687 748.9792 
L 718.296075 749.50988 
L 719.479462 753.891372 
L 720.66285 754.481444 
L 721.846237 753.646954 
L 723.029625 754.294008 
L 724.213012 752.086595 
L 725.3964 753.390322 
L 726.579788 751.799312 
L 727.763175 754.48439 
L 730.12995 754.516769 
L 731.313337 751.755618 
L 732.496725 757.279305 
L 733.680112 759.197181 
L 737.230275 759.710325 
L 741.963825 759.731596 
L 743.147213 750.151664 
L 744.3306 749.263818 
L 745.513987 759.525082 
L 746.697375 759.533821 
L 747.880762 760.826176 
L 750.247537 761.198678 
L 752.614312 761.167565 
L 754.981088 761.249147 
L 756.164475 759.300052 
L 757.347863 759.299945 
L 758.53125 761.196875 
L 762.081412 761.18883 
L 763.2648 745.931125 
L 764.448187 744.252967 
L 765.631575 753.309888 
L 766.814963 758.131085 
L 767.99835 752.734207 
L 769.181738 753.727409 
L 770.365125 753.229734 
L 771.548513 753.764294 
L 772.7319 759.1364 
L 773.915287 758.756234 
L 775.098675 759.875897 
L 776.282062 759.66999 
L 777.46545 760.368693 
L 778.648837 760.812784 
L 779.832225 760.817588 
L 781.015613 760.634852 
L 782.199 760.808825 
L 783.382388 751.885538 
L 784.565775 737.068369 
L 785.749163 758.615471 
L 786.93255 749.887815 
L 788.115937 757.046395 
L 789.299325 756.749219 
L 790.482712 750.514014 
L 791.6661 757.832849 
L 794.032875 745.658362 
L 796.39965 758.107398 
L 797.583038 758.17987 
L 798.766425 758.550757 
L 799.949813 748.850458 
L 801.1332 757.834757 
L 802.316587 760.644042 
L 803.499975 759.020678 
L 804.683362 758.381334 
L 807.050137 760.111759 
L 808.233525 757.959028 
L 809.416913 757.978294 
L 810.6003 755.161904 
L 811.783688 759.800674 
L 812.967075 760.891159 
L 814.150463 757.189593 
L 815.33385 759.089223 
L 816.517237 760.253227 
L 817.700625 760.187921 
L 818.884012 759.902341 
L 820.0674 758.832809 
L 821.250787 758.857892 
L 822.434175 751.464359 
L 823.617563 759.125299 
L 824.80095 760.911278 
L 825.984338 752.359604 
L 828.351112 755.151254 
L 829.5345 758.740423 
L 830.717887 754.49199 
L 831.901275 754.929614 
L 833.084662 751.420682 
L 834.26805 752.538073 
L 835.451437 757.806731 
L 836.634825 757.890336 
L 837.818213 758.364971 
L 839.0016 759.515986 
L 840.184988 758.510452 
L 841.368375 760.74644 
L 842.551762 761.265334 
L 843.73515 754.838388 
L 844.918537 754.840929 
L 846.101925 754.225581 
L 847.285312 751.255964 
L 848.4687 758.768792 
L 849.652087 758.96348 
L 850.835475 761.430933 
L 852.018863 761.96136 
L 853.20225 752.599229 
L 854.385638 757.059558 
L 855.569025 757.445577 
L 856.752412 757.468545 
L 857.9358 758.849498 
L 859.119187 752.734665 
L 860.302575 750.32438 
L 861.485962 750.627954 
L 862.66935 760.35895 
L 863.852737 760.498496 
L 865.036125 760.470312 
L 866.219513 755.806248 
L 867.4029 760.378876 
L 868.586288 760.3828 
L 869.769675 750.775561 
L 870.953062 760.932257 
L 872.13645 751.589127 
L 873.319837 753.547809 
L 874.503225 752.355427 
L 875.686612 761.231096 
L 876.87 760.659533 
L 878.053387 760.703263 
L 879.236775 758.734992 
L 880.420163 758.753868 
L 881.60355 760.192031 
L 882.786938 761.816971 
L 883.970325 761.135882 
L 885.153712 758.263736 
L 886.3371 760.246085 
L 887.520487 760.944282 
L 888.703875 760.025974 
L 889.887262 759.913521 
L 891.07065 759.325522 
L 892.254037 754.51171 
L 893.437425 757.480411 
L 894.620813 758.329546 
L 895.8042 759.64543 
L 896.987588 760.27161 
L 898.170975 757.765968 
L 899.354362 758.05358 
L 900.53775 757.371827 
L 901.721137 757.381095 
L 902.904525 759.221616 
L 904.087912 761.390166 
L 908.821463 761.635754 
L 910.00485 761.875279 
L 911.188238 755.111319 
L 912.371625 759.950765 
L 913.555012 751.396304 
L 914.7384 760.548516 
L 915.921787 761.78731 
L 917.105175 761.707746 
L 918.288562 759.061548 
L 919.47195 757.57268 
L 920.655337 757.093244 
L 921.838725 758.002242 
L 923.022113 755.363007 
L 924.2055 759.903684 
L 925.388888 757.264459 
L 926.572275 761.844792 
L 927.755662 761.859934 
L 928.93905 762.075149 
L 934.855987 762.183862 
L 937.222763 762.260429 
L 938.40615 762.015348 
L 940.772925 762.034006 
L 941.956312 762.255853 
L 943.1397 762.256262 
L 944.323087 761.966613 
L 945.506475 762.440378 
L 946.689862 762.185038 
L 947.87325 762.253026 
L 949.056637 762.632631 
L 950.240025 762.632897 
L 951.423413 762.912335 
L 954.973575 762.914598 
L 956.156962 761.804497 
L 957.34035 761.807154 
L 959.707125 762.710286 
L 962.0739 762.783428 
L 963.257287 762.247895 
L 964.440675 762.354493 
L 965.624063 762.100339 
L 969.174225 762.223757 
L 970.357612 762.740427 
L 976.27455 762.765212 
L 977.457938 762.031641 
L 979.824713 762.032322 
L 981.0081 762.173195 
L 983.374875 762.228192 
L 984.558262 760.22479 
L 985.74165 760.241085 
L 988.108425 761.998265 
L 989.291812 761.994642 
L 990.4752 762.274258 
L 992.841975 762.274426 
L 994.025363 762.433928 
L 995.20875 754.400989 
L 996.392137 754.344601 
L 997.575525 760.330992 
L 998.758912 760.395434 
L 999.9423 759.672791 
L 1001.125687 759.659867 
L 1002.309075 759.936527 
L 1003.492462 759.998534 
L 1004.67585 760.384403 
L 1005.859238 761.073646 
L 1007.042625 761.605444 
L 1009.4094 761.678309 
L 1010.592787 761.98701 
L 1012.959562 762.083022 
L 1014.14295 762.683132 
L 1016.509725 762.649225 
L 1017.693112 749.951707 
L 1018.8765 748.847941 
L 1020.059888 760.880565 
L 1021.243275 761.854979 
L 1024.793437 762.034107 
L 1025.976825 761.158336 
L 1027.160212 761.260578 
L 1028.3436 762.923283 
L 1030.710375 762.906752 
L 1031.893762 761.796622 
L 1033.07715 762.319066 
L 1035.443925 762.366972 
L 1036.627313 760.450789 
L 1037.8107 754.528424 
L 1038.994087 759.122969 
L 1040.177475 761.355389 
L 1041.360862 760.008608 
L 1042.54425 759.209327 
L 1043.727637 760.50593 
L 1044.911025 760.595597 
L 1046.094412 761.697665 
L 1048.461188 761.787149 
L 1049.644575 759.245307 
L 1050.827963 760.059307 
L 1052.01135 761.689838 
L 1053.194737 762.031152 
L 1055.561512 762.199412 
L 1056.7449 752.961904 
L 1057.928287 761.133224 
L 1059.111675 762.25481 
L 1062.661838 762.337821 
L 1063.845225 755.653851 
L 1065.028613 755.979208 
L 1066.212 762.298851 
L 1068.578775 762.472208 
L 1070.94555 762.522518 
L 1072.128937 761.986599 
L 1073.312325 762.122325 
L 1074.495712 761.432245 
L 1075.6791 761.423077 
L 1076.862488 761.577918 
L 1081.596037 761.791322 
L 1082.779425 760.776213 
L 1085.1462 760.989611 
L 1086.329587 760.992393 
L 1087.512975 762.80269 
L 1088.696362 763.075194 
L 1098.163462 762.991798 
L 1099.34685 759.70681 
L 1100.530237 762.755258 
L 1101.713625 761.724894 
L 1102.897012 761.206742 
L 1104.0804 761.851654 
L 1105.263788 762.199181 
L 1106.447175 762.204032 
L 1108.81395 762.086991 
L 1109.997337 762.094758 
L 1111.180725 762.543627 
L 1112.364112 762.776698 
L 1119.464438 762.809724 
L 1120.647825 762.66081 
L 1127.74815 762.71039 
L 1128.931537 762.876237 
L 1137.21525 762.704331 
L 1138.398637 762.877388 
L 1146.68235 762.880025 
L 1147.865738 762.706071 
L 1149.049125 762.712417 
L 1150.232512 762.864649 
L 1159.699612 762.888583 
L 1160.883 761.299124 
L 1162.066388 763.062256 
L 1223.602537 763.137922 
L 1225.969312 763.196907 
L 1350.225 763.198381 
L 1350.225 763.198381 
" style="fill:none;stroke:#008000;stroke-dasharray:6.000000,6.000000;stroke-dashoffset:0.0;stroke-width:2.0;"/>
   </g>
   <g id="patch_3">
    <path d="M 166.8375 47.25 
L 1350.225 47.25 
" style="fill:none;stroke:#000000;stroke-linecap:square;stroke-linejoin:miter;"/>
   </g>
   <g id="patch_4">
    <path d="M 1350.225 763.2 
L 1350.225 47.25 
" style="fill:none;stroke:#000000;stroke-linecap:square;stroke-linejoin:miter;"/>
   </g>
   <g id="patch_5">
    <path d="M 166.8375 763.2 
L 1350.225 763.2 
" style="fill:none;stroke:#000000;stroke-linecap:square;stroke-linejoin:miter;"/>
   </g>
   <g id="patch_6">
    <path d="M 166.8375 763.2 
L 166.8375 47.25 
" style="fill:none;stroke:#000000;stroke-linecap:square;stroke-linejoin:miter;"/>
   </g>
   <g id="matplotlib.axis_1">
    <g id="xtick_1">
     <g id="line2d_3">
      <defs>
       <path d="M 0 0 
L 0 -4 
" id="mbe1bcec625" style="stroke:#000000;stroke-width:0.5;"/>
      </defs>
      <g>
       <use style="stroke:#000000;stroke-width:0.5;" x="166.8375" xlink:href="#mbe1bcec625" y="763.2"/>
      </g>
     </g>
     <g id="line2d_4">
      <defs>
       <path d="M 0 0 
L 0 4 
" id="m877b8f0564" style="stroke:#000000;stroke-width:0.5;"/>
      </defs>
      <g>
       <use style="stroke:#000000;stroke-width:0.5;" x="166.8375" xlink:href="#m877b8f0564" y="47.25"/>
      </g>
     </g>
     <g id="text_1">
      <!-- 0 -->
      <defs>
       <path d="M 31.78125 66.40625 
Q 24.171875 66.40625 20.328125 58.90625 
Q 16.5 51.421875 16.5 36.375 
Q 16.5 21.390625 20.328125 13.890625 
Q 24.171875 6.390625 31.78125 6.390625 
Q 39.453125 6.390625 43.28125 13.890625 
Q 47.125 21.390625 47.125 36.375 
Q 47.125 51.421875 43.28125 58.90625 
Q 39.453125 66.40625 31.78125 66.40625 
M 31.78125 74.21875 
Q 44.046875 74.21875 50.515625 64.515625 
Q 56.984375 54.828125 56.984375 36.375 
Q 56.984375 17.96875 50.515625 8.265625 
Q 44.046875 -1.421875 31.78125 -1.421875 
Q 19.53125 -1.421875 13.0625 8.265625 
Q 6.59375 17.96875 6.59375 36.375 
Q 6.59375 54.828125 13.0625 64.515625 
Q 19.53125 74.21875 31.78125 74.21875 
" id="BitstreamVeraSans-Roman-30"/>
      </defs>
      <g transform="translate(157.29375 789.9953125)scale(0.3 -0.3)">
       <use xlink:href="#BitstreamVeraSans-Roman-30"/>
      </g>
     </g>
    </g>
    <g id="xtick_2">
     <g id="line2d_5">
      <g>
       <use style="stroke:#000000;stroke-width:0.5;" x="403.515" xlink:href="#mbe1bcec625" y="763.2"/>
      </g>
     </g>
     <g id="line2d_6">
      <g>
       <use style="stroke:#000000;stroke-width:0.5;" x="403.515" xlink:href="#m877b8f0564" y="47.25"/>
      </g>
     </g>
     <g id="text_2">
      <!-- 20000 -->
      <defs>
       <path d="M 19.1875 8.296875 
L 53.609375 8.296875 
L 53.609375 0 
L 7.328125 0 
L 7.328125 8.296875 
Q 12.9375 14.109375 22.625 23.890625 
Q 32.328125 33.6875 34.8125 36.53125 
Q 39.546875 41.84375 41.421875 45.53125 
Q 43.3125 49.21875 43.3125 52.78125 
Q 43.3125 58.59375 39.234375 62.25 
Q 35.15625 65.921875 28.609375 65.921875 
Q 23.96875 65.921875 18.8125 64.3125 
Q 13.671875 62.703125 7.8125 59.421875 
L 7.8125 69.390625 
Q 13.765625 71.78125 18.9375 73 
Q 24.125 74.21875 28.421875 74.21875 
Q 39.75 74.21875 46.484375 68.546875 
Q 53.21875 62.890625 53.21875 53.421875 
Q 53.21875 48.921875 51.53125 44.890625 
Q 49.859375 40.875 45.40625 35.40625 
Q 44.1875 33.984375 37.640625 27.21875 
Q 31.109375 20.453125 19.1875 8.296875 
" id="BitstreamVeraSans-Roman-32"/>
      </defs>
      <g transform="translate(355.79625 789.9953125)scale(0.3 -0.3)">
       <use xlink:href="#BitstreamVeraSans-Roman-32"/>
       <use x="63.623046875" xlink:href="#BitstreamVeraSans-Roman-30"/>
       <use x="127.24609375" xlink:href="#BitstreamVeraSans-Roman-30"/>
       <use x="190.869140625" xlink:href="#BitstreamVeraSans-Roman-30"/>
       <use x="254.4921875" xlink:href="#BitstreamVeraSans-Roman-30"/>
      </g>
     </g>
    </g>
    <g id="xtick_3">
     <g id="line2d_7">
      <g>
       <use style="stroke:#000000;stroke-width:0.5;" x="640.1925" xlink:href="#mbe1bcec625" y="763.2"/>
      </g>
     </g>
     <g id="line2d_8">
      <g>
       <use style="stroke:#000000;stroke-width:0.5;" x="640.1925" xlink:href="#m877b8f0564" y="47.25"/>
      </g>
     </g>
     <g id="text_3">
      <!-- 40000 -->
      <defs>
       <path d="M 37.796875 64.3125 
L 12.890625 25.390625 
L 37.796875 25.390625 
z
M 35.203125 72.90625 
L 47.609375 72.90625 
L 47.609375 25.390625 
L 58.015625 25.390625 
L 58.015625 17.1875 
L 47.609375 17.1875 
L 47.609375 0 
L 37.796875 0 
L 37.796875 17.1875 
L 4.890625 17.1875 
L 4.890625 26.703125 
z
" id="BitstreamVeraSans-Roman-34"/>
      </defs>
      <g transform="translate(592.47375 789.9953125)scale(0.3 -0.3)">
       <use xlink:href="#BitstreamVeraSans-Roman-34"/>
       <use x="63.623046875" xlink:href="#BitstreamVeraSans-Roman-30"/>
       <use x="127.24609375" xlink:href="#BitstreamVeraSans-Roman-30"/>
       <use x="190.869140625" xlink:href="#BitstreamVeraSans-Roman-30"/>
       <use x="254.4921875" xlink:href="#BitstreamVeraSans-Roman-30"/>
      </g>
     </g>
    </g>
    <g id="xtick_4">
     <g id="line2d_9">
      <g>
       <use style="stroke:#000000;stroke-width:0.5;" x="876.87" xlink:href="#mbe1bcec625" y="763.2"/>
      </g>
     </g>
     <g id="line2d_10">
      <g>
       <use style="stroke:#000000;stroke-width:0.5;" x="876.87" xlink:href="#m877b8f0564" y="47.25"/>
      </g>
     </g>
     <g id="text_4">
      <!-- 60000 -->
      <defs>
       <path d="M 33.015625 40.375 
Q 26.375 40.375 22.484375 35.828125 
Q 18.609375 31.296875 18.609375 23.390625 
Q 18.609375 15.53125 22.484375 10.953125 
Q 26.375 6.390625 33.015625 6.390625 
Q 39.65625 6.390625 43.53125 10.953125 
Q 47.40625 15.53125 47.40625 23.390625 
Q 47.40625 31.296875 43.53125 35.828125 
Q 39.65625 40.375 33.015625 40.375 
M 52.59375 71.296875 
L 52.59375 62.3125 
Q 48.875 64.0625 45.09375 64.984375 
Q 41.3125 65.921875 37.59375 65.921875 
Q 27.828125 65.921875 22.671875 59.328125 
Q 17.53125 52.734375 16.796875 39.40625 
Q 19.671875 43.65625 24.015625 45.921875 
Q 28.375 48.1875 33.59375 48.1875 
Q 44.578125 48.1875 50.953125 41.515625 
Q 57.328125 34.859375 57.328125 23.390625 
Q 57.328125 12.15625 50.6875 5.359375 
Q 44.046875 -1.421875 33.015625 -1.421875 
Q 20.359375 -1.421875 13.671875 8.265625 
Q 6.984375 17.96875 6.984375 36.375 
Q 6.984375 53.65625 15.1875 63.9375 
Q 23.390625 74.21875 37.203125 74.21875 
Q 40.921875 74.21875 44.703125 73.484375 
Q 48.484375 72.75 52.59375 71.296875 
" id="BitstreamVeraSans-Roman-36"/>
      </defs>
      <g transform="translate(829.15125 789.9953125)scale(0.3 -0.3)">
       <use xlink:href="#BitstreamVeraSans-Roman-36"/>
       <use x="63.623046875" xlink:href="#BitstreamVeraSans-Roman-30"/>
       <use x="127.24609375" xlink:href="#BitstreamVeraSans-Roman-30"/>
       <use x="190.869140625" xlink:href="#BitstreamVeraSans-Roman-30"/>
       <use x="254.4921875" xlink:href="#BitstreamVeraSans-Roman-30"/>
      </g>
     </g>
    </g>
    <g id="xtick_5">
     <g id="line2d_11">
      <g>
       <use style="stroke:#000000;stroke-width:0.5;" x="1113.5475" xlink:href="#mbe1bcec625" y="763.2"/>
      </g>
     </g>
     <g id="line2d_12">
      <g>
       <use style="stroke:#000000;stroke-width:0.5;" x="1113.5475" xlink:href="#m877b8f0564" y="47.25"/>
      </g>
     </g>
     <g id="text_5">
      <!-- 80000 -->
      <defs>
       <path d="M 31.78125 34.625 
Q 24.75 34.625 20.71875 30.859375 
Q 16.703125 27.09375 16.703125 20.515625 
Q 16.703125 13.921875 20.71875 10.15625 
Q 24.75 6.390625 31.78125 6.390625 
Q 38.8125 6.390625 42.859375 10.171875 
Q 46.921875 13.96875 46.921875 20.515625 
Q 46.921875 27.09375 42.890625 30.859375 
Q 38.875 34.625 31.78125 34.625 
M 21.921875 38.8125 
Q 15.578125 40.375 12.03125 44.71875 
Q 8.5 49.078125 8.5 55.328125 
Q 8.5 64.0625 14.71875 69.140625 
Q 20.953125 74.21875 31.78125 74.21875 
Q 42.671875 74.21875 48.875 69.140625 
Q 55.078125 64.0625 55.078125 55.328125 
Q 55.078125 49.078125 51.53125 44.71875 
Q 48 40.375 41.703125 38.8125 
Q 48.828125 37.15625 52.796875 32.3125 
Q 56.78125 27.484375 56.78125 20.515625 
Q 56.78125 9.90625 50.3125 4.234375 
Q 43.84375 -1.421875 31.78125 -1.421875 
Q 19.734375 -1.421875 13.25 4.234375 
Q 6.78125 9.90625 6.78125 20.515625 
Q 6.78125 27.484375 10.78125 32.3125 
Q 14.796875 37.15625 21.921875 38.8125 
M 18.3125 54.390625 
Q 18.3125 48.734375 21.84375 45.5625 
Q 25.390625 42.390625 31.78125 42.390625 
Q 38.140625 42.390625 41.71875 45.5625 
Q 45.3125 48.734375 45.3125 54.390625 
Q 45.3125 60.0625 41.71875 63.234375 
Q 38.140625 66.40625 31.78125 66.40625 
Q 25.390625 66.40625 21.84375 63.234375 
Q 18.3125 60.0625 18.3125 54.390625 
" id="BitstreamVeraSans-Roman-38"/>
      </defs>
      <g transform="translate(1065.82875 789.9953125)scale(0.3 -0.3)">
       <use xlink:href="#BitstreamVeraSans-Roman-38"/>
       <use x="63.623046875" xlink:href="#BitstreamVeraSans-Roman-30"/>
       <use x="127.24609375" xlink:href="#BitstreamVeraSans-Roman-30"/>
       <use x="190.869140625" xlink:href="#BitstreamVeraSans-Roman-30"/>
       <use x="254.4921875" xlink:href="#BitstreamVeraSans-Roman-30"/>
      </g>
     </g>
    </g>
    <g id="xtick_6">
     <g id="line2d_13">
      <g>
       <use style="stroke:#000000;stroke-width:0.5;" x="1350.225" xlink:href="#mbe1bcec625" y="763.2"/>
      </g>
     </g>
     <g id="line2d_14">
      <g>
       <use style="stroke:#000000;stroke-width:0.5;" x="1350.225" xlink:href="#m877b8f0564" y="47.25"/>
      </g>
     </g>
     <g id="text_6">
      <!-- 100000 -->
      <defs>
       <path d="M 12.40625 8.296875 
L 28.515625 8.296875 
L 28.515625 63.921875 
L 10.984375 60.40625 
L 10.984375 69.390625 
L 28.421875 72.90625 
L 38.28125 72.90625 
L 38.28125 8.296875 
L 54.390625 8.296875 
L 54.390625 0 
L 12.40625 0 
z
" id="BitstreamVeraSans-Roman-31"/>
      </defs>
      <g transform="translate(1292.9625 789.9953125)scale(0.3 -0.3)">
       <use xlink:href="#BitstreamVeraSans-Roman-31"/>
       <use x="63.623046875" xlink:href="#BitstreamVeraSans-Roman-30"/>
       <use x="127.24609375" xlink:href="#BitstreamVeraSans-Roman-30"/>
       <use x="190.869140625" xlink:href="#BitstreamVeraSans-Roman-30"/>
       <use x="254.4921875" xlink:href="#BitstreamVeraSans-Roman-30"/>
       <use x="318.115234375" xlink:href="#BitstreamVeraSans-Roman-30"/>
      </g>
     </g>
    </g>
    <g id="text_7">
     <!-- iterations -->
     <defs>
      <path d="M 54.890625 33.015625 
L 54.890625 0 
L 45.90625 0 
L 45.90625 32.71875 
Q 45.90625 40.484375 42.875 44.328125 
Q 39.84375 48.1875 33.796875 48.1875 
Q 26.515625 48.1875 22.3125 43.546875 
Q 18.109375 38.921875 18.109375 30.90625 
L 18.109375 0 
L 9.078125 0 
L 9.078125 54.6875 
L 18.109375 54.6875 
L 18.109375 46.1875 
Q 21.34375 51.125 25.703125 53.5625 
Q 30.078125 56 35.796875 56 
Q 45.21875 56 50.046875 50.171875 
Q 54.890625 44.34375 54.890625 33.015625 
" id="BitstreamVeraSans-Roman-6e"/>
      <path d="M 34.28125 27.484375 
Q 23.390625 27.484375 19.1875 25 
Q 14.984375 22.515625 14.984375 16.5 
Q 14.984375 11.71875 18.140625 8.90625 
Q 21.296875 6.109375 26.703125 6.109375 
Q 34.1875 6.109375 38.703125 11.40625 
Q 43.21875 16.703125 43.21875 25.484375 
L 43.21875 27.484375 
z
M 52.203125 31.203125 
L 52.203125 0 
L 43.21875 0 
L 43.21875 8.296875 
Q 40.140625 3.328125 35.546875 0.953125 
Q 30.953125 -1.421875 24.3125 -1.421875 
Q 15.921875 -1.421875 10.953125 3.296875 
Q 6 8.015625 6 15.921875 
Q 6 25.140625 12.171875 29.828125 
Q 18.359375 34.515625 30.609375 34.515625 
L 43.21875 34.515625 
L 43.21875 35.40625 
Q 43.21875 41.609375 39.140625 45 
Q 35.0625 48.390625 27.6875 48.390625 
Q 23 48.390625 18.546875 47.265625 
Q 14.109375 46.140625 10.015625 43.890625 
L 10.015625 52.203125 
Q 14.9375 54.109375 19.578125 55.046875 
Q 24.21875 56 28.609375 56 
Q 40.484375 56 46.34375 49.84375 
Q 52.203125 43.703125 52.203125 31.203125 
" id="BitstreamVeraSans-Roman-61"/>
      <path d="M 30.609375 48.390625 
Q 23.390625 48.390625 19.1875 42.75 
Q 14.984375 37.109375 14.984375 27.296875 
Q 14.984375 17.484375 19.15625 11.84375 
Q 23.34375 6.203125 30.609375 6.203125 
Q 37.796875 6.203125 41.984375 11.859375 
Q 46.1875 17.53125 46.1875 27.296875 
Q 46.1875 37.015625 41.984375 42.703125 
Q 37.796875 48.390625 30.609375 48.390625 
M 30.609375 56 
Q 42.328125 56 49.015625 48.375 
Q 55.71875 40.765625 55.71875 27.296875 
Q 55.71875 13.875 49.015625 6.21875 
Q 42.328125 -1.421875 30.609375 -1.421875 
Q 18.84375 -1.421875 12.171875 6.21875 
Q 5.515625 13.875 5.515625 27.296875 
Q 5.515625 40.765625 12.171875 48.375 
Q 18.84375 56 30.609375 56 
" id="BitstreamVeraSans-Roman-6f"/>
      <path d="M 9.421875 54.6875 
L 18.40625 54.6875 
L 18.40625 0 
L 9.421875 0 
z
M 9.421875 75.984375 
L 18.40625 75.984375 
L 18.40625 64.59375 
L 9.421875 64.59375 
z
" id="BitstreamVeraSans-Roman-69"/>
      <path d="M 56.203125 29.59375 
L 56.203125 25.203125 
L 14.890625 25.203125 
Q 15.484375 15.921875 20.484375 11.0625 
Q 25.484375 6.203125 34.421875 6.203125 
Q 39.59375 6.203125 44.453125 7.46875 
Q 49.3125 8.734375 54.109375 11.28125 
L 54.109375 2.78125 
Q 49.265625 0.734375 44.1875 -0.34375 
Q 39.109375 -1.421875 33.890625 -1.421875 
Q 20.796875 -1.421875 13.15625 6.1875 
Q 5.515625 13.8125 5.515625 26.8125 
Q 5.515625 40.234375 12.765625 48.109375 
Q 20.015625 56 32.328125 56 
Q 43.359375 56 49.78125 48.890625 
Q 56.203125 41.796875 56.203125 29.59375 
M 47.21875 32.234375 
Q 47.125 39.59375 43.09375 43.984375 
Q 39.0625 48.390625 32.421875 48.390625 
Q 24.90625 48.390625 20.390625 44.140625 
Q 15.875 39.890625 15.1875 32.171875 
z
" id="BitstreamVeraSans-Roman-65"/>
      <path d="M 18.3125 70.21875 
L 18.3125 54.6875 
L 36.8125 54.6875 
L 36.8125 47.703125 
L 18.3125 47.703125 
L 18.3125 18.015625 
Q 18.3125 11.328125 20.140625 9.421875 
Q 21.96875 7.515625 27.59375 7.515625 
L 36.8125 7.515625 
L 36.8125 0 
L 27.59375 0 
Q 17.1875 0 13.234375 3.875 
Q 9.28125 7.765625 9.28125 18.015625 
L 9.28125 47.703125 
L 2.6875 47.703125 
L 2.6875 54.6875 
L 9.28125 54.6875 
L 9.28125 70.21875 
z
" id="BitstreamVeraSans-Roman-74"/>
      <path d="M 41.109375 46.296875 
Q 39.59375 47.171875 37.8125 47.578125 
Q 36.03125 48 33.890625 48 
Q 26.265625 48 22.1875 43.046875 
Q 18.109375 38.09375 18.109375 28.8125 
L 18.109375 0 
L 9.078125 0 
L 9.078125 54.6875 
L 18.109375 54.6875 
L 18.109375 46.1875 
Q 20.953125 51.171875 25.484375 53.578125 
Q 30.03125 56 36.53125 56 
Q 37.453125 56 38.578125 55.875 
Q 39.703125 55.765625 41.0625 55.515625 
z
" id="BitstreamVeraSans-Roman-72"/>
      <path d="M 44.28125 53.078125 
L 44.28125 44.578125 
Q 40.484375 46.53125 36.375 47.5 
Q 32.28125 48.484375 27.875 48.484375 
Q 21.1875 48.484375 17.84375 46.4375 
Q 14.5 44.390625 14.5 40.28125 
Q 14.5 37.15625 16.890625 35.375 
Q 19.28125 33.59375 26.515625 31.984375 
L 29.59375 31.296875 
Q 39.15625 29.25 43.1875 25.515625 
Q 47.21875 21.78125 47.21875 15.09375 
Q 47.21875 7.46875 41.1875 3.015625 
Q 35.15625 -1.421875 24.609375 -1.421875 
Q 20.21875 -1.421875 15.453125 -0.5625 
Q 10.6875 0.296875 5.421875 2 
L 5.421875 11.28125 
Q 10.40625 8.6875 15.234375 7.390625 
Q 20.0625 6.109375 24.8125 6.109375 
Q 31.15625 6.109375 34.5625 8.28125 
Q 37.984375 10.453125 37.984375 14.40625 
Q 37.984375 18.0625 35.515625 20.015625 
Q 33.0625 21.96875 24.703125 23.78125 
L 21.578125 24.515625 
Q 13.234375 26.265625 9.515625 29.90625 
Q 5.8125 33.546875 5.8125 39.890625 
Q 5.8125 47.609375 11.28125 51.796875 
Q 16.75 56 26.8125 56 
Q 31.78125 56 36.171875 55.265625 
Q 40.578125 54.546875 44.28125 53.078125 
" id="BitstreamVeraSans-Roman-73"/>
     </defs>
     <g transform="translate(687.34921875 824.0296875)scale(0.3 -0.3)">
      <use xlink:href="#BitstreamVeraSans-Roman-69"/>
      <use x="27.783203125" xlink:href="#BitstreamVeraSans-Roman-74"/>
      <use x="66.9921875" xlink:href="#BitstreamVeraSans-Roman-65"/>
      <use x="128.515625" xlink:href="#BitstreamVeraSans-Roman-72"/>
      <use x="169.62890625" xlink:href="#BitstreamVeraSans-Roman-61"/>
      <use x="230.908203125" xlink:href="#BitstreamVeraSans-Roman-74"/>
      <use x="270.1171875" xlink:href="#BitstreamVeraSans-Roman-69"/>
      <use x="297.900390625" xlink:href="#BitstreamVeraSans-Roman-6f"/>
      <use x="359.08203125" xlink:href="#BitstreamVeraSans-Roman-6e"/>
      <use x="422.4609375" xlink:href="#BitstreamVeraSans-Roman-73"/>
     </g>
    </g>
   </g>
   <g id="matplotlib.axis_2">
    <g id="ytick_1">
     <g id="line2d_15">
      <defs>
       <path d="M 0 0 
L 4 0 
" id="mbf24a76102" style="stroke:#000000;stroke-width:0.5;"/>
      </defs>
      <g>
       <use style="stroke:#000000;stroke-width:0.5;" x="166.8375" xlink:href="#mbf24a76102" y="763.2"/>
      </g>
     </g>
     <g id="line2d_16">
      <defs>
       <path d="M 0 0 
L -4 0 
" id="m67cd1717f4" style="stroke:#000000;stroke-width:0.5;"/>
      </defs>
      <g>
       <use style="stroke:#000000;stroke-width:0.5;" x="1350.225" xlink:href="#m67cd1717f4" y="763.2"/>
      </g>
     </g>
     <g id="text_8">
      <!-- 0 -->
      <g transform="translate(143.75 771.478125)scale(0.3 -0.3)">
       <use xlink:href="#BitstreamVeraSans-Roman-30"/>
      </g>
     </g>
    </g>
    <g id="ytick_2">
     <g id="line2d_17">
      <g>
       <use style="stroke:#000000;stroke-width:0.5;" x="166.8375" xlink:href="#mbf24a76102" y="584.2125"/>
      </g>
     </g>
     <g id="line2d_18">
      <g>
       <use style="stroke:#000000;stroke-width:0.5;" x="1350.225" xlink:href="#m67cd1717f4" y="584.2125"/>
      </g>
     </g>
     <g id="text_9">
      <!-- 5000 -->
      <defs>
       <path d="M 10.796875 72.90625 
L 49.515625 72.90625 
L 49.515625 64.59375 
L 19.828125 64.59375 
L 19.828125 46.734375 
Q 21.96875 47.46875 24.109375 47.828125 
Q 26.265625 48.1875 28.421875 48.1875 
Q 40.625 48.1875 47.75 41.5 
Q 54.890625 34.8125 54.890625 23.390625 
Q 54.890625 11.625 47.5625 5.09375 
Q 40.234375 -1.421875 26.90625 -1.421875 
Q 22.3125 -1.421875 17.546875 -0.640625 
Q 12.796875 0.140625 7.71875 1.703125 
L 7.71875 11.625 
Q 12.109375 9.234375 16.796875 8.0625 
Q 21.484375 6.890625 26.703125 6.890625 
Q 35.15625 6.890625 40.078125 11.328125 
Q 45.015625 15.765625 45.015625 23.390625 
Q 45.015625 31 40.078125 35.4375 
Q 35.15625 39.890625 26.703125 39.890625 
Q 22.75 39.890625 18.8125 39.015625 
Q 14.890625 38.140625 10.796875 36.28125 
z
" id="BitstreamVeraSans-Roman-35"/>
      </defs>
      <g transform="translate(86.4875 592.490625)scale(0.3 -0.3)">
       <use xlink:href="#BitstreamVeraSans-Roman-35"/>
       <use x="63.623046875" xlink:href="#BitstreamVeraSans-Roman-30"/>
       <use x="127.24609375" xlink:href="#BitstreamVeraSans-Roman-30"/>
       <use x="190.869140625" xlink:href="#BitstreamVeraSans-Roman-30"/>
      </g>
     </g>
    </g>
    <g id="ytick_3">
     <g id="line2d_19">
      <g>
       <use style="stroke:#000000;stroke-width:0.5;" x="166.8375" xlink:href="#mbf24a76102" y="405.225"/>
      </g>
     </g>
     <g id="line2d_20">
      <g>
       <use style="stroke:#000000;stroke-width:0.5;" x="1350.225" xlink:href="#m67cd1717f4" y="405.225"/>
      </g>
     </g>
     <g id="text_10">
      <!-- 10000 -->
      <g transform="translate(67.4 413.503125)scale(0.3 -0.3)">
       <use xlink:href="#BitstreamVeraSans-Roman-31"/>
       <use x="63.623046875" xlink:href="#BitstreamVeraSans-Roman-30"/>
       <use x="127.24609375" xlink:href="#BitstreamVeraSans-Roman-30"/>
       <use x="190.869140625" xlink:href="#BitstreamVeraSans-Roman-30"/>
       <use x="254.4921875" xlink:href="#BitstreamVeraSans-Roman-30"/>
      </g>
     </g>
    </g>
    <g id="ytick_4">
     <g id="line2d_21">
      <g>
       <use style="stroke:#000000;stroke-width:0.5;" x="166.8375" xlink:href="#mbf24a76102" y="226.2375"/>
      </g>
     </g>
     <g id="line2d_22">
      <g>
       <use style="stroke:#000000;stroke-width:0.5;" x="1350.225" xlink:href="#m67cd1717f4" y="226.2375"/>
      </g>
     </g>
     <g id="text_11">
      <!-- 15000 -->
      <g transform="translate(67.4 234.515625)scale(0.3 -0.3)">
       <use xlink:href="#BitstreamVeraSans-Roman-31"/>
       <use x="63.623046875" xlink:href="#BitstreamVeraSans-Roman-35"/>
       <use x="127.24609375" xlink:href="#BitstreamVeraSans-Roman-30"/>
       <use x="190.869140625" xlink:href="#BitstreamVeraSans-Roman-30"/>
       <use x="254.4921875" xlink:href="#BitstreamVeraSans-Roman-30"/>
      </g>
     </g>
    </g>
    <g id="ytick_5">
     <g id="line2d_23">
      <g>
       <use style="stroke:#000000;stroke-width:0.5;" x="166.8375" xlink:href="#mbf24a76102" y="47.25"/>
      </g>
     </g>
     <g id="line2d_24">
      <g>
       <use style="stroke:#000000;stroke-width:0.5;" x="1350.225" xlink:href="#m67cd1717f4" y="47.25"/>
      </g>
     </g>
     <g id="text_12">
      <!-- 20000 -->
      <g transform="translate(67.4 55.528125)scale(0.3 -0.3)">
       <use xlink:href="#BitstreamVeraSans-Roman-32"/>
       <use x="63.623046875" xlink:href="#BitstreamVeraSans-Roman-30"/>
       <use x="127.24609375" xlink:href="#BitstreamVeraSans-Roman-30"/>
       <use x="190.869140625" xlink:href="#BitstreamVeraSans-Roman-30"/>
       <use x="254.4921875" xlink:href="#BitstreamVeraSans-Roman-30"/>
      </g>
     </g>
    </g>
    <g id="text_13">
     <!-- log(loss) -->
     <defs>
      <path d="M 8.015625 75.875 
L 15.828125 75.875 
Q 23.140625 64.359375 26.78125 53.3125 
Q 30.421875 42.28125 30.421875 31.390625 
Q 30.421875 20.453125 26.78125 9.375 
Q 23.140625 -1.703125 15.828125 -13.1875 
L 8.015625 -13.1875 
Q 14.5 -2 17.703125 9.0625 
Q 20.90625 20.125 20.90625 31.390625 
Q 20.90625 42.671875 17.703125 53.65625 
Q 14.5 64.65625 8.015625 75.875 
" id="BitstreamVeraSans-Roman-29"/>
      <path d="M 31 75.875 
Q 24.46875 64.65625 21.28125 53.65625 
Q 18.109375 42.671875 18.109375 31.390625 
Q 18.109375 20.125 21.3125 9.0625 
Q 24.515625 -2 31 -13.1875 
L 23.1875 -13.1875 
Q 15.875 -1.703125 12.234375 9.375 
Q 8.59375 20.453125 8.59375 31.390625 
Q 8.59375 42.28125 12.203125 53.3125 
Q 15.828125 64.359375 23.1875 75.875 
z
" id="BitstreamVeraSans-Roman-28"/>
      <path d="M 45.40625 27.984375 
Q 45.40625 37.75 41.375 43.109375 
Q 37.359375 48.484375 30.078125 48.484375 
Q 22.859375 48.484375 18.828125 43.109375 
Q 14.796875 37.75 14.796875 27.984375 
Q 14.796875 18.265625 18.828125 12.890625 
Q 22.859375 7.515625 30.078125 7.515625 
Q 37.359375 7.515625 41.375 12.890625 
Q 45.40625 18.265625 45.40625 27.984375 
M 54.390625 6.78125 
Q 54.390625 -7.171875 48.1875 -13.984375 
Q 42 -20.796875 29.203125 -20.796875 
Q 24.46875 -20.796875 20.265625 -20.09375 
Q 16.0625 -19.390625 12.109375 -17.921875 
L 12.109375 -9.1875 
Q 16.0625 -11.328125 19.921875 -12.34375 
Q 23.78125 -13.375 27.78125 -13.375 
Q 36.625 -13.375 41.015625 -8.765625 
Q 45.40625 -4.15625 45.40625 5.171875 
L 45.40625 9.625 
Q 42.625 4.78125 38.28125 2.390625 
Q 33.9375 0 27.875 0 
Q 17.828125 0 11.671875 7.65625 
Q 5.515625 15.328125 5.515625 27.984375 
Q 5.515625 40.671875 11.671875 48.328125 
Q 17.828125 56 27.875 56 
Q 33.9375 56 38.28125 53.609375 
Q 42.625 51.21875 45.40625 46.390625 
L 45.40625 54.6875 
L 54.390625 54.6875 
z
" id="BitstreamVeraSans-Roman-67"/>
      <path d="M 9.421875 75.984375 
L 18.40625 75.984375 
L 18.40625 0 
L 9.421875 0 
z
" id="BitstreamVeraSans-Roman-6c"/>
     </defs>
     <g transform="translate(56.1609375 468.77109375)rotate(-90.0)scale(0.3 -0.3)">
      <use xlink:href="#BitstreamVeraSans-Roman-6c"/>
      <use x="27.783203125" xlink:href="#BitstreamVeraSans-Roman-6f"/>
      <use x="88.96484375" xlink:href="#BitstreamVeraSans-Roman-67"/>
      <use x="152.44140625" xlink:href="#BitstreamVeraSans-Roman-28"/>
      <use x="191.455078125" xlink:href="#BitstreamVeraSans-Roman-6c"/>
      <use x="219.23828125" xlink:href="#BitstreamVeraSans-Roman-6f"/>
      <use x="280.419921875" xlink:href="#BitstreamVeraSans-Roman-73"/>
      <use x="332.51953125" xlink:href="#BitstreamVeraSans-Roman-73"/>
      <use x="384.619140625" xlink:href="#BitstreamVeraSans-Roman-29"/>
     </g>
    </g>
   </g>
   <g id="legend_1">
    <g id="patch_7">
     <path d="M 858.051562 159.31875 
L 1335.225 159.31875 
L 1335.225 62.25 
L 858.051562 62.25 
z
" style="fill:#ffffff;stroke:#000000;stroke-linejoin:miter;"/>
    </g>
    <g id="line2d_25">
     <path d="M 879.051562 86.545313 
L 921.051562 86.545313 
" style="fill:none;stroke:#0000ff;stroke-linecap:square;stroke-width:2.0;"/>
    </g>
    <g id="line2d_26"/>
    <g id="text_14">
     <!-- random: step=0.343750 -->
     <defs>
      <path id="BitstreamVeraSans-Roman-20"/>
      <path d="M 8.203125 72.90625 
L 55.078125 72.90625 
L 55.078125 68.703125 
L 28.609375 0 
L 18.3125 0 
L 43.21875 64.59375 
L 8.203125 64.59375 
z
" id="BitstreamVeraSans-Roman-37"/>
      <path d="M 40.578125 39.3125 
Q 47.65625 37.796875 51.625 33 
Q 55.609375 28.21875 55.609375 21.1875 
Q 55.609375 10.40625 48.1875 4.484375 
Q 40.765625 -1.421875 27.09375 -1.421875 
Q 22.515625 -1.421875 17.65625 -0.515625 
Q 12.796875 0.390625 7.625 2.203125 
L 7.625 11.71875 
Q 11.71875 9.328125 16.59375 8.109375 
Q 21.484375 6.890625 26.8125 6.890625 
Q 36.078125 6.890625 40.9375 10.546875 
Q 45.796875 14.203125 45.796875 21.1875 
Q 45.796875 27.640625 41.28125 31.265625 
Q 36.765625 34.90625 28.71875 34.90625 
L 20.21875 34.90625 
L 20.21875 43.015625 
L 29.109375 43.015625 
Q 36.375 43.015625 40.234375 45.921875 
Q 44.09375 48.828125 44.09375 54.296875 
Q 44.09375 59.90625 40.109375 62.90625 
Q 36.140625 65.921875 28.71875 65.921875 
Q 24.65625 65.921875 20.015625 65.03125 
Q 15.375 64.15625 9.8125 62.3125 
L 9.8125 71.09375 
Q 15.4375 72.65625 20.34375 73.4375 
Q 25.25 74.21875 29.59375 74.21875 
Q 40.828125 74.21875 47.359375 69.109375 
Q 53.90625 64.015625 53.90625 55.328125 
Q 53.90625 49.265625 50.4375 45.09375 
Q 46.96875 40.921875 40.578125 39.3125 
" id="BitstreamVeraSans-Roman-33"/>
      <path d="M 52 44.1875 
Q 55.375 50.25 60.0625 53.125 
Q 64.75 56 71.09375 56 
Q 79.640625 56 84.28125 50.015625 
Q 88.921875 44.046875 88.921875 33.015625 
L 88.921875 0 
L 79.890625 0 
L 79.890625 32.71875 
Q 79.890625 40.578125 77.09375 44.375 
Q 74.3125 48.1875 68.609375 48.1875 
Q 61.625 48.1875 57.5625 43.546875 
Q 53.515625 38.921875 53.515625 30.90625 
L 53.515625 0 
L 44.484375 0 
L 44.484375 32.71875 
Q 44.484375 40.625 41.703125 44.40625 
Q 38.921875 48.1875 33.109375 48.1875 
Q 26.21875 48.1875 22.15625 43.53125 
Q 18.109375 38.875 18.109375 30.90625 
L 18.109375 0 
L 9.078125 0 
L 9.078125 54.6875 
L 18.109375 54.6875 
L 18.109375 46.1875 
Q 21.1875 51.21875 25.484375 53.609375 
Q 29.78125 56 35.6875 56 
Q 41.65625 56 45.828125 52.96875 
Q 50 49.953125 52 44.1875 
" id="BitstreamVeraSans-Roman-6d"/>
      <path d="M 11.71875 12.40625 
L 22.015625 12.40625 
L 22.015625 0 
L 11.71875 0 
z
M 11.71875 51.703125 
L 22.015625 51.703125 
L 22.015625 39.3125 
L 11.71875 39.3125 
z
" id="BitstreamVeraSans-Roman-3a"/>
      <path d="M 10.6875 12.40625 
L 21 12.40625 
L 21 0 
L 10.6875 0 
z
" id="BitstreamVeraSans-Roman-2e"/>
      <path d="M 10.59375 45.40625 
L 73.1875 45.40625 
L 73.1875 37.203125 
L 10.59375 37.203125 
z
M 10.59375 25.484375 
L 73.1875 25.484375 
L 73.1875 17.1875 
L 10.59375 17.1875 
z
" id="BitstreamVeraSans-Roman-3d"/>
      <path d="M 45.40625 46.390625 
L 45.40625 75.984375 
L 54.390625 75.984375 
L 54.390625 0 
L 45.40625 0 
L 45.40625 8.203125 
Q 42.578125 3.328125 38.25 0.953125 
Q 33.9375 -1.421875 27.875 -1.421875 
Q 17.96875 -1.421875 11.734375 6.484375 
Q 5.515625 14.40625 5.515625 27.296875 
Q 5.515625 40.1875 11.734375 48.09375 
Q 17.96875 56 27.875 56 
Q 33.9375 56 38.25 53.625 
Q 42.578125 51.265625 45.40625 46.390625 
M 14.796875 27.296875 
Q 14.796875 17.390625 18.875 11.75 
Q 22.953125 6.109375 30.078125 6.109375 
Q 37.203125 6.109375 41.296875 11.75 
Q 45.40625 17.390625 45.40625 27.296875 
Q 45.40625 37.203125 41.296875 42.84375 
Q 37.203125 48.484375 30.078125 48.484375 
Q 22.953125 48.484375 18.875 42.84375 
Q 14.796875 37.203125 14.796875 27.296875 
" id="BitstreamVeraSans-Roman-64"/>
      <path d="M 18.109375 8.203125 
L 18.109375 -20.796875 
L 9.078125 -20.796875 
L 9.078125 54.6875 
L 18.109375 54.6875 
L 18.109375 46.390625 
Q 20.953125 51.265625 25.265625 53.625 
Q 29.59375 56 35.59375 56 
Q 45.5625 56 51.78125 48.09375 
Q 58.015625 40.1875 58.015625 27.296875 
Q 58.015625 14.40625 51.78125 6.484375 
Q 45.5625 -1.421875 35.59375 -1.421875 
Q 29.59375 -1.421875 25.265625 0.953125 
Q 20.953125 3.328125 18.109375 8.203125 
M 48.6875 27.296875 
Q 48.6875 37.203125 44.609375 42.84375 
Q 40.53125 48.484375 33.40625 48.484375 
Q 26.265625 48.484375 22.1875 42.84375 
Q 18.109375 37.203125 18.109375 27.296875 
Q 18.109375 17.390625 22.1875 11.75 
Q 26.265625 6.109375 33.40625 6.109375 
Q 40.53125 6.109375 44.609375 11.75 
Q 48.6875 17.390625 48.6875 27.296875 
" id="BitstreamVeraSans-Roman-70"/>
     </defs>
     <g transform="translate(954.0515625 97.0453125)scale(0.3 -0.3)">
      <use xlink:href="#BitstreamVeraSans-Roman-72"/>
      <use x="41.11328125" xlink:href="#BitstreamVeraSans-Roman-61"/>
      <use x="102.392578125" xlink:href="#BitstreamVeraSans-Roman-6e"/>
      <use x="165.771484375" xlink:href="#BitstreamVeraSans-Roman-64"/>
      <use x="229.248046875" xlink:href="#BitstreamVeraSans-Roman-6f"/>
      <use x="290.4296875" xlink:href="#BitstreamVeraSans-Roman-6d"/>
      <use x="387.841796875" xlink:href="#BitstreamVeraSans-Roman-3a"/>
      <use x="421.533203125" xlink:href="#BitstreamVeraSans-Roman-20"/>
      <use x="453.3203125" xlink:href="#BitstreamVeraSans-Roman-73"/>
      <use x="505.419921875" xlink:href="#BitstreamVeraSans-Roman-74"/>
      <use x="544.62890625" xlink:href="#BitstreamVeraSans-Roman-65"/>
      <use x="606.15234375" xlink:href="#BitstreamVeraSans-Roman-70"/>
      <use x="669.62890625" xlink:href="#BitstreamVeraSans-Roman-3d"/>
      <use x="753.41796875" xlink:href="#BitstreamVeraSans-Roman-30"/>
      <use x="817.041015625" xlink:href="#BitstreamVeraSans-Roman-2e"/>
      <use x="848.828125" xlink:href="#BitstreamVeraSans-Roman-33"/>
      <use x="912.451171875" xlink:href="#BitstreamVeraSans-Roman-34"/>
      <use x="976.07421875" xlink:href="#BitstreamVeraSans-Roman-33"/>
      <use x="1039.69726562" xlink:href="#BitstreamVeraSans-Roman-37"/>
      <use x="1103.3203125" xlink:href="#BitstreamVeraSans-Roman-35"/>
      <use x="1166.94335938" xlink:href="#BitstreamVeraSans-Roman-30"/>
     </g>
    </g>
    <g id="line2d_27">
     <path d="M 879.051562 130.579688 
L 921.051562 130.579688 
" style="fill:none;stroke:#008000;stroke-dasharray:6.000000,6.000000;stroke-dashoffset:0.0;stroke-width:2.0;"/>
    </g>
    <g id="line2d_28"/>
    <g id="text_15">
     <!-- corr: step=0.343750 -->
     <defs>
      <path d="M 48.78125 52.59375 
L 48.78125 44.1875 
Q 44.96875 46.296875 41.140625 47.34375 
Q 37.3125 48.390625 33.40625 48.390625 
Q 24.65625 48.390625 19.8125 42.84375 
Q 14.984375 37.3125 14.984375 27.296875 
Q 14.984375 17.28125 19.8125 11.734375 
Q 24.65625 6.203125 33.40625 6.203125 
Q 37.3125 6.203125 41.140625 7.25 
Q 44.96875 8.296875 48.78125 10.40625 
L 48.78125 2.09375 
Q 45.015625 0.34375 40.984375 -0.53125 
Q 36.96875 -1.421875 32.421875 -1.421875 
Q 20.0625 -1.421875 12.78125 6.34375 
Q 5.515625 14.109375 5.515625 27.296875 
Q 5.515625 40.671875 12.859375 48.328125 
Q 20.21875 56 33.015625 56 
Q 37.15625 56 41.109375 55.140625 
Q 45.0625 54.296875 48.78125 52.59375 
" id="BitstreamVeraSans-Roman-63"/>
     </defs>
     <g transform="translate(954.0515625 141.0796875)scale(0.3 -0.3)">
      <use xlink:href="#BitstreamVeraSans-Roman-63"/>
      <use x="54.98046875" xlink:href="#BitstreamVeraSans-Roman-6f"/>
      <use x="116.162109375" xlink:href="#BitstreamVeraSans-Roman-72"/>
      <use x="157.259765625" xlink:href="#BitstreamVeraSans-Roman-72"/>
      <use x="198.357421875" xlink:href="#BitstreamVeraSans-Roman-3a"/>
      <use x="232.048828125" xlink:href="#BitstreamVeraSans-Roman-20"/>
      <use x="263.8359375" xlink:href="#BitstreamVeraSans-Roman-73"/>
      <use x="315.935546875" xlink:href="#BitstreamVeraSans-Roman-74"/>
      <use x="355.14453125" xlink:href="#BitstreamVeraSans-Roman-65"/>
      <use x="416.66796875" xlink:href="#BitstreamVeraSans-Roman-70"/>
      <use x="480.14453125" xlink:href="#BitstreamVeraSans-Roman-3d"/>
      <use x="563.93359375" xlink:href="#BitstreamVeraSans-Roman-30"/>
      <use x="627.556640625" xlink:href="#BitstreamVeraSans-Roman-2e"/>
      <use x="659.34375" xlink:href="#BitstreamVeraSans-Roman-33"/>
      <use x="722.966796875" xlink:href="#BitstreamVeraSans-Roman-34"/>
      <use x="786.58984375" xlink:href="#BitstreamVeraSans-Roman-33"/>
      <use x="850.212890625" xlink:href="#BitstreamVeraSans-Roman-37"/>
      <use x="913.8359375" xlink:href="#BitstreamVeraSans-Roman-35"/>
      <use x="977.458984375" xlink:href="#BitstreamVeraSans-Roman-30"/>
     </g>
    </g>
   </g>
  </g>
 </g>
 <defs>
  <clipPath id="p7ef1d0a27b">
   <rect height="715.95" width="1183.3875" x="166.8375" y="47.25"/>
  </clipPath>
 </defs>
</svg>
