<?xml version="1.0" encoding="utf-8" standalone="no"?>
<!DOCTYPE svg PUBLIC "-//W3C//DTD SVG 1.1//EN"
  "http://www.w3.org/Graphics/SVG/1.1/DTD/svg11.dtd">
<!-- Created with matplotlib (http://matplotlib.org/) -->
<svg height="864pt" version="1.1" viewBox="0 0 1440 864" width="1440pt" xmlns="http://www.w3.org/2000/svg" xmlns:xlink="http://www.w3.org/1999/xlink">
 <defs>
  <style type="text/css">
*{stroke-linecap:butt;stroke-linejoin:round;stroke-miterlimit:100000;}
  </style>
 </defs>
 <g id="figure_1">
  <g id="patch_1">
   <path d="M 0 864 
L 1440 864 
L 1440 0 
L 0 0 
z
" style="fill:#ffffff;"/>
  </g>
  <g id="axes_1">
   <g id="patch_2">
    <path d="M 198.45 747 
L 1336.05 747 
L 1336.05 51.3 
L 198.45 51.3 
z
" style="fill:#ffffff;"/>
   </g>
   <g id="line2d_1">
    <path clip-path="url(#pa52e0880fb)" d="M 199.5876 246.828224 
L 200.7252 322.633609 
L 201.8628 245.048971 
L 203.0004 306.253614 
L 204.138 421.399008 
L 205.2756 573.414806 
L 206.4132 570.961898 
L 207.5508 421.399008 
L 208.6884 580.582603 
L 209.826 587.350677 
L 210.9636 566.395802 
L 212.1012 574.574973 
L 213.2388 601.421253 
L 214.3764 609.664211 
L 215.514 566.395802 
L 216.6516 628.177049 
L 217.7892 628.177049 
L 218.9268 599.067743 
L 220.0644 636.788076 
L 221.202 629.929778 
L 222.3396 636.788076 
L 223.4772 612.137207 
L 224.6148 612.137207 
L 225.7524 633.697211 
L 226.89 627.875985 
L 228.0276 606.431728 
L 229.1652 603.620317 
L 230.3028 631.989181 
L 231.4404 644.863587 
L 232.578 631.989181 
L 233.7156 561.350194 
L 234.8532 640.014776 
L 235.9908 561.350194 
L 237.1284 616.2771 
L 238.266 633.908921 
L 239.4036 616.2771 
L 240.5412 619.141123 
L 241.6788 646.074192 
L 242.8164 646.074192 
L 243.954 610.736676 
L 245.0916 582.448905 
L 246.2292 582.448905 
L 247.3668 632.594005 
L 248.5044 613.499736 
L 249.642 632.594005 
L 250.7796 619.554152 
L 251.9172 617.023413 
L 253.0548 617.023413 
L 254.1924 607.100948 
L 255.33 639.776107 
L 256.4676 485.622553 
L 257.6052 607.564588 
L 258.7428 607.100948 
L 259.8804 595.014204 
L 261.018 655.103509 
L 262.1556 655.103509 
L 263.2932 655.753945 
L 264.4308 634.728369 
L 265.5684 622.241467 
L 266.706 653.82716 
L 267.8436 632.614789 
L 268.9812 618.105487 
L 270.1188 639.251158 
L 271.2564 632.614789 
L 272.394 645.501153 
L 273.5316 645.471064 
L 274.6692 641.109025 
L 275.8068 641.031411 
L 276.9444 651.315509 
L 278.082 645.510893 
L 279.2196 645.340968 
L 280.3572 618.405986 
L 281.4948 646.76037 
L 282.6324 646.76037 
L 283.77 634.716716 
L 284.9076 646.76037 
L 286.0452 653.873598 
L 287.1828 640.285707 
L 288.3204 612.625632 
L 289.458 642.587996 
L 290.5956 623.32989 
L 291.7332 623.339282 
L 292.8708 643.677549 
L 294.0084 658.006969 
L 295.146 625.128361 
L 296.2836 643.76499 
L 297.4212 643.752989 
L 299.6964 565.143194 
L 300.834 655.217386 
L 301.9716 589.659749 
L 303.1092 565.143194 
L 304.2468 649.792535 
L 305.3844 619.987268 
L 306.522 661.080615 
L 307.6596 645.634901 
L 308.7972 590.199482 
L 309.9348 590.199482 
L 311.0724 653.974214 
L 312.21 657.618899 
L 313.3476 619.342789 
L 314.4852 663.428777 
L 315.6228 653.656366 
L 316.7604 652.788654 
L 317.898 654.705177 
L 319.0356 654.705177 
L 320.1732 622.411131 
L 321.3108 659.605514 
L 322.4484 649.572955 
L 323.586 664.879442 
L 324.7236 664.879442 
L 325.8612 658.648491 
L 326.9988 670.566485 
L 328.1364 664.879442 
L 329.274 664.508329 
L 330.4116 664.447238 
L 331.5492 637.937111 
L 332.6868 638.589112 
L 333.8244 626.378317 
L 334.962 638.589112 
L 336.0996 663.658923 
L 337.2372 663.658923 
L 338.3748 625.408424 
L 339.5124 651.078841 
L 340.65 651.078841 
L 341.7876 661.444423 
L 342.9252 659.041388 
L 344.0628 651.078841 
L 345.2004 659.041388 
L 346.338 648.914474 
L 347.4756 667.414485 
L 348.6132 634.497353 
L 349.7508 668.647309 
L 350.8884 656.420599 
L 352.026 664.842004 
L 353.1636 657.995316 
L 354.3012 657.992707 
L 355.4388 668.643961 
L 356.5764 662.687378 
L 357.714 662.687378 
L 358.8516 667.710506 
L 359.9892 666.554905 
L 361.1268 656.079532 
L 362.2644 661.296369 
L 363.402 597.668734 
L 364.5396 658.727279 
L 365.6772 650.068597 
L 366.8148 637.063355 
L 367.9524 663.530784 
L 369.09 641.513487 
L 370.2276 676.780781 
L 371.3652 671.475808 
L 372.5028 670.912508 
L 373.6404 670.912508 
L 374.778 645.328445 
L 375.9156 670.912508 
L 377.0532 664.576377 
L 378.1908 664.576247 
L 379.3284 659.026952 
L 380.466 669.416188 
L 381.6036 651.437648 
L 382.7412 674.202822 
L 383.8788 655.951741 
L 385.0164 647.677259 
L 386.154 664.60864 
L 387.2916 655.951741 
L 388.4292 675.814845 
L 389.5668 676.249049 
L 390.7044 677.540747 
L 391.842 675.814845 
L 392.9796 673.856493 
L 394.1172 673.856493 
L 395.2548 653.602623 
L 396.3924 674.875607 
L 397.53 673.230885 
L 398.6676 663.985206 
L 399.8052 663.985206 
L 400.9428 655.430009 
L 402.0804 668.565086 
L 403.218 674.422663 
L 404.3556 644.893894 
L 405.4932 650.293917 
L 406.6308 661.0507 
L 407.7684 652.074692 
L 408.906 670.186415 
L 410.0436 660.197294 
L 411.1812 660.197294 
L 412.3188 663.66401 
L 413.4564 661.0507 
L 414.594 655.221082 
L 415.7316 670.307945 
L 416.8692 643.9747 
L 418.0068 672.862208 
L 419.1444 632.197673 
L 420.282 649.448294 
L 421.4196 649.448294 
L 422.5572 677.421521 
L 423.6948 621.800437 
L 424.8324 675.216674 
L 425.97 675.644877 
L 427.1076 675.644877 
L 428.2452 670.431128 
L 429.3828 674.704726 
L 430.5204 665.7982 
L 431.658 671.459372 
L 432.7956 671.459372 
L 433.9332 677.019711 
L 435.0708 650.081337 
L 436.2084 664.174697 
L 437.346 664.174697 
L 438.4836 657.275093 
L 439.6212 664.22544 
L 440.7588 667.771727 
L 441.8964 657.820043 
L 443.034 668.653875 
L 444.1716 657.820043 
L 445.3092 657.820043 
L 446.4468 648.535057 
L 447.5844 648.535057 
L 448.722 665.463351 
L 449.8596 675.977204 
L 450.9972 675.977204 
L 452.1348 664.789653 
L 453.2724 664.789653 
L 454.41 662.96644 
L 455.5476 668.150666 
L 456.6852 668.150666 
L 457.8228 636.191382 
L 458.9604 669.969183 
L 460.098 669.969183 
L 461.2356 676.380276 
L 462.3732 657.408363 
L 463.5108 651.810108 
L 464.6484 651.810108 
L 465.786 672.842467 
L 466.9236 679.000369 
L 468.0612 659.631342 
L 469.1988 659.631342 
L 470.3364 661.395637 
L 471.474 649.259672 
L 472.6116 648.581321 
L 473.7492 651.519001 
L 474.8868 651.519001 
L 476.0244 658.818634 
L 477.162 681.711468 
L 478.2996 675.146539 
L 479.4372 685.481206 
L 480.5748 671.250314 
L 481.7124 671.250314 
L 482.85 655.319219 
L 483.9876 642.407679 
L 485.1252 672.424612 
L 486.2628 672.424438 
L 487.4004 678.554947 
L 488.538 676.671165 
L 489.6756 678.554947 
L 490.8132 688.118952 
L 491.9508 683.309491 
L 493.0884 677.977038 
L 494.226 674.944829 
L 495.3636 674.944829 
L 496.5012 669.448669 
L 497.6388 681.34566 
L 498.7764 680.563824 
L 501.0516 680.563824 
L 502.1892 683.703649 
L 503.3268 685.547123 
L 504.4644 685.547123 
L 505.602 684.775505 
L 506.7396 684.775505 
L 507.8772 650.911177 
L 509.0148 684.775505 
L 510.1524 692.649916 
L 511.29 692.778403 
L 512.4276 687.561783 
L 513.5652 687.561783 
L 514.7028 682.497131 
L 515.8404 695.318969 
L 518.1156 695.318969 
L 519.2532 664.096562 
L 521.5284 686.199168 
L 522.666 686.199168 
L 523.8036 680.58213 
L 524.9412 684.031976 
L 526.0788 686.193994 
L 527.2164 684.139548 
L 528.354 684.139548 
L 529.4916 682.219721 
L 530.6292 682.219721 
L 531.7668 683.985581 
L 532.9044 683.985581 
L 534.042 683.128044 
L 536.3172 661.121096 
L 537.4548 667.511318 
L 538.5924 683.128044 
L 539.73 671.159482 
L 540.8676 663.916114 
L 542.0052 663.916114 
L 543.1428 684.495486 
L 544.2804 693.391054 
L 545.418 676.337621 
L 546.5556 682.405864 
L 547.6932 671.829658 
L 548.8308 675.0861 
L 549.9684 667.04459 
L 551.106 693.226738 
L 552.2436 686.414922 
L 553.3812 686.414922 
L 554.5188 679.439921 
L 555.6564 676.337621 
L 556.794 690.449025 
L 557.9316 691.669544 
L 559.0692 695.751738 
L 560.2068 685.157575 
L 561.3444 695.923706 
L 562.482 677.486134 
L 563.6196 688.319357 
L 564.7572 675.42708 
L 565.8948 675.426297 
L 567.0324 692.437206 
L 568.17 657.487107 
L 569.3076 682.997426 
L 570.4452 682.997426 
L 571.5828 675.568916 
L 572.7204 683.950622 
L 574.9956 683.950622 
L 576.1332 688.921399 
L 577.2708 664.189394 
L 578.4084 683.09939 
L 579.546 690.609732 
L 580.6836 684.782984 
L 581.8212 664.183959 
L 582.9588 674.14047 
L 584.0964 674.14047 
L 585.234 673.614042 
L 586.3716 693.198127 
L 587.5092 693.198127 
L 588.6468 691.068546 
L 589.7844 685.657826 
L 590.922 690.008865 
L 592.0596 682.421169 
L 593.1972 684.729241 
L 594.3348 682.421169 
L 595.4724 692.411986 
L 596.61 668.256543 
L 597.7476 682.421169 
L 598.8852 676.85783 
L 600.0228 676.85783 
L 601.1604 676.221352 
L 602.298 687.938896 
L 603.4356 684.473702 
L 604.5732 655.841168 
L 605.7108 655.841168 
L 606.8484 687.228804 
L 607.986 677.982342 
L 609.1236 665.680844 
L 610.2612 690.049085 
L 611.3988 685.75092 
L 612.5364 685.75092 
L 613.674 697.842273 
L 614.8116 682.051013 
L 615.9492 682.050144 
L 617.0868 699.960375 
L 618.2244 684.238207 
L 619.362 684.238207 
L 620.4996 695.362189 
L 621.6372 684.229467 
L 622.7748 695.639947 
L 623.9124 700.908571 
L 625.05 693.573545 
L 626.1876 674.302046 
L 627.3252 685.64526 
L 628.4628 692.420857 
L 629.6004 687.374423 
L 630.738 678.155572 
L 631.8756 678.155572 
L 633.0132 687.374423 
L 634.1508 691.086808 
L 635.2884 696.58436 
L 636.426 696.58436 
L 637.5636 687.809496 
L 638.7012 687.809496 
L 639.8388 691.878167 
L 640.9764 687.847847 
L 642.114 687.847847 
L 643.2516 678.109525 
L 644.3892 690.837704 
L 645.5268 677.34169 
L 646.6644 677.34169 
L 647.802 669.074643 
L 648.9396 675.248328 
L 650.0772 669.074643 
L 651.2148 687.38738 
L 652.3524 695.117433 
L 653.49 697.325716 
L 654.6276 676.75991 
L 655.7652 682.881983 
L 656.9028 685.754311 
L 658.0404 688.13017 
L 659.178 689.84094 
L 660.3156 694.79989 
L 661.4532 693.867391 
L 662.5908 689.217897 
L 663.7284 700.522674 
L 664.866 679.711026 
L 666.0036 688.713254 
L 667.1412 686.968525 
L 668.2788 690.313277 
L 670.554 690.364107 
L 671.6916 678.014301 
L 672.8292 651.908376 
L 673.9668 689.852897 
L 675.1044 680.502298 
L 676.242 700.453322 
L 677.3796 680.502298 
L 678.5172 690.437242 
L 679.6548 698.426487 
L 680.7924 685.711656 
L 681.93 697.452072 
L 683.0676 698.426487 
L 684.2052 689.442304 
L 686.4804 684.107589 
L 687.618 684.107589 
L 688.7556 685.55882 
L 689.8932 657.075427 
L 691.0308 657.075427 
L 692.1684 681.866261 
L 693.306 690.730567 
L 694.4436 676.632815 
L 695.5812 675.554436 
L 696.7188 691.230036 
L 697.8564 685.660305 
L 698.994 695.508982 
L 700.1316 692.007046 
L 701.2692 703.756419 
L 702.4068 690.355932 
L 703.5444 690.355932 
L 704.682 697.649781 
L 705.8196 700.145388 
L 708.0948 700.145388 
L 709.2324 694.711058 
L 710.37 696.741501 
L 711.5076 685.789662 
L 712.6452 701.814633 
L 713.7828 700.768083 
L 714.9204 685.789662 
L 716.058 693.741121 
L 717.1956 697.693089 
L 718.3332 697.693089 
L 719.4708 684.735807 
L 720.6084 674.033158 
L 721.746 674.489624 
L 722.8836 674.033158 
L 724.0212 678.830748 
L 725.1588 678.830705 
L 726.2964 692.558344 
L 727.434 668.920806 
L 728.5716 678.577948 
L 729.7092 668.920806 
L 730.8468 675.964508 
L 731.9844 706.458722 
L 733.122 698.57541 
L 734.2596 698.268433 
L 735.3972 698.268433 
L 736.5348 695.432803 
L 737.6724 695.128695 
L 738.81 698.052809 
L 739.9476 691.229383 
L 741.0852 689.229637 
L 742.2228 689.229637 
L 743.3604 694.587093 
L 744.498 696.935689 
L 745.6356 694.587093 
L 746.7732 703.837315 
L 747.9108 703.176031 
L 749.0484 703.837315 
L 750.186 704.256783 
L 751.3236 688.903702 
L 752.4612 706.496855 
L 753.5988 688.903702 
L 754.7364 705.156489 
L 755.874 699.188322 
L 757.0116 705.093128 
L 758.1492 689.883813 
L 759.2868 693.810343 
L 760.4244 683.896836 
L 761.562 683.200353 
L 762.6996 710.84925 
L 763.8372 689.883813 
L 764.9748 702.769046 
L 766.1124 683.749652 
L 767.25 683.287968 
L 768.3876 688.906876 
L 769.5252 687.658225 
L 770.6628 681.830172 
L 771.8004 697.821228 
L 772.938 704.225159 
L 774.0756 698.269998 
L 775.2132 694.678621 
L 776.3508 702.692345 
L 777.4884 696.075369 
L 778.626 696.064281 
L 779.7636 692.096226 
L 780.9012 699.609394 
L 782.0388 692.790708 
L 783.1764 692.790708 
L 784.314 706.706652 
L 785.4516 701.213983 
L 786.5892 701.213983 
L 787.7268 703.712502 
L 788.8644 701.90877 
L 790.002 706.800315 
L 791.1396 701.90877 
L 792.2772 683.995103 
L 793.4148 706.763038 
L 794.5524 683.995103 
L 795.69 695.010643 
L 796.8276 690.888882 
L 797.9652 683.767392 
L 799.1028 696.560489 
L 800.2404 696.560489 
L 801.378 701.597966 
L 802.5156 694.618921 
L 803.6532 694.617529 
L 804.7908 703.522563 
L 805.9284 660.748766 
L 807.066 689.47635 
L 808.2036 704.682221 
L 809.3412 703.522563 
L 810.4788 700.890482 
L 811.6164 702.093087 
L 812.754 702.093087 
L 813.8916 700.421668 
L 815.0292 713.052971 
L 816.1668 681.762341 
L 817.3044 703.950832 
L 818.442 703.268428 
L 819.5796 675.119189 
L 820.7172 698.397007 
L 821.8548 711.888199 
L 824.13 698.397007 
L 825.2676 700.391187 
L 826.4052 697.84836 
L 827.5428 706.49415 
L 828.6804 705.198983 
L 829.818 702.05691 
L 830.9556 708.72436 
L 832.0932 706.49415 
L 833.2308 702.05691 
L 834.3684 706.785957 
L 835.506 709.672373 
L 836.6436 709.672373 
L 837.7812 700.241003 
L 838.9188 694.68149 
L 840.0564 699.179147 
L 842.3316 699.179147 
L 843.4692 695.086214 
L 844.6068 705.393922 
L 845.7444 707.886811 
L 846.882 690.240228 
L 848.0196 669.738776 
L 849.1572 704.719076 
L 850.2948 701.496785 
L 851.4324 697.831055 
L 852.57 672.624017 
L 853.7076 695.138609 
L 854.8452 672.624017 
L 855.9828 711.08627 
L 858.258 711.08627 
L 860.5332 704.077462 
L 861.6708 702.736044 
L 863.946 702.736044 
L 865.0836 698.713333 
L 866.2212 689.114629 
L 867.3588 710.022432 
L 868.4964 705.02748 
L 869.634 705.02748 
L 870.7716 690.193182 
L 871.9092 702.807136 
L 873.0468 702.807136 
L 874.1844 703.828219 
L 875.322 706.015665 
L 876.4596 711.536471 
L 877.5972 710.213067 
L 878.7348 700.779301 
L 879.8724 696.947211 
L 881.01 695.148827 
L 882.1476 695.148827 
L 883.2852 696.771112 
L 885.5604 696.771112 
L 886.698 687.796756 
L 887.8356 691.852209 
L 888.9732 687.796756 
L 890.1108 703.167378 
L 891.2484 689.6958 
L 892.386 705.79712 
L 893.5236 681.086643 
L 895.7988 681.086643 
L 896.9364 703.038413 
L 898.074 705.79712 
L 899.2116 704.800377 
L 900.3492 704.800377 
L 901.4868 701.453434 
L 902.6244 699.427425 
L 903.762 699.427425 
L 904.8996 691.120811 
L 906.0372 703.119853 
L 907.1748 712.319507 
L 908.3124 712.319507 
L 909.45 712.057259 
L 910.5876 700.273396 
L 911.7252 709.768362 
L 912.8628 701.717104 
L 914.0004 708.917486 
L 915.138 708.917486 
L 916.2756 713.431801 
L 917.4132 708.854947 
L 918.5508 714.530216 
L 919.6884 699.526519 
L 920.826 682.396733 
L 921.9636 702.474287 
L 923.1012 708.643641 
L 924.2388 708.643641 
L 925.3764 705.328157 
L 926.514 705.328157 
L 927.6516 707.048545 
L 928.7892 707.048545 
L 929.9268 704.168873 
L 931.0644 710.505013 
L 932.202 710.90921 
L 933.3396 703.187379 
L 934.4772 712.612006 
L 935.6148 702.407152 
L 936.7524 683.178873 
L 937.89 713.95228 
L 939.0276 692.604087 
L 940.1652 708.450319 
L 941.3028 709.289999 
L 942.4404 713.851752 
L 943.578 707.495497 
L 944.7156 684.922515 
L 945.8532 710.530806 
L 946.9908 709.628057 
L 948.1284 709.628057 
L 949.266 694.727667 
L 950.4036 694.727667 
L 951.5412 713.845403 
L 952.6788 712.111897 
L 953.8164 705.590071 
L 954.954 705.590071 
L 956.0916 677.199158 
L 957.2292 708.813557 
L 958.3668 708.813557 
L 959.5044 714.814914 
L 960.642 708.813557 
L 961.7796 654.150313 
L 962.9172 714.562479 
L 964.0548 714.814914 
L 965.1924 712.669579 
L 966.33 712.669579 
L 967.4676 707.626241 
L 968.6052 707.626241 
L 969.7428 702.60734 
L 970.8804 713.272503 
L 972.018 649.324633 
L 973.1556 708.660821 
L 974.2932 700.719905 
L 975.4308 710.597228 
L 976.5684 710.597228 
L 977.706 704.988008 
L 978.8436 697.688871 
L 979.9812 697.688871 
L 981.1188 706.927032 
L 982.2564 702.746175 
L 983.394 704.410477 
L 984.5316 703.873527 
L 985.6692 694.361294 
L 986.8068 713.065041 
L 987.9444 713.065041 
L 989.082 705.574439 
L 990.2196 711.279984 
L 991.3572 705.574439 
L 992.4948 708.428701 
L 993.6324 709.301595 
L 994.77 706.378829 
L 995.9076 706.378829 
L 997.0452 694.874851 
L 998.1828 694.874851 
L 999.3204 711.112985 
L 1000.458 709.888992 
L 1001.5956 705.982845 
L 1002.7332 693.324614 
L 1003.8708 693.324614 
L 1005.0084 693.796343 
L 1006.146 708.479487 
L 1007.2836 696.415088 
L 1008.4212 709.996204 
L 1009.5588 709.996204 
L 1010.6964 705.290363 
L 1011.834 688.849089 
L 1012.9716 674.641156 
L 1014.1092 699.590393 
L 1015.2468 699.590393 
L 1016.3844 681.778342 
L 1017.522 697.14192 
L 1018.6596 694.717667 
L 1019.7972 697.231709 
L 1020.9348 703.937409 
L 1022.0724 694.717667 
L 1023.21 703.381915 
L 1024.3476 714.495652 
L 1025.4852 707.484179 
L 1026.6228 707.484179 
L 1027.7604 687.891806 
L 1028.898 696.820594 
L 1030.0356 696.820594 
L 1031.1732 700.9564 
L 1032.3108 700.9564 
L 1033.4484 688.33001 
L 1034.586 714.696101 
L 1035.7236 714.680017 
L 1036.8612 700.409319 
L 1037.9988 715.852233 
L 1039.1364 715.310187 
L 1040.274 690.77283 
L 1041.4116 673.378243 
L 1042.5492 719.709006 
L 1043.6868 719.709006 
L 1044.8244 706.632808 
L 1045.962 695.653905 
L 1047.0996 708.676826 
L 1048.2372 706.632808 
L 1049.3748 709.647502 
L 1050.5124 696.746763 
L 1051.65 704.947353 
L 1052.7876 711.870763 
L 1053.9252 704.947353 
L 1055.0628 715.727941 
L 1056.2004 708.158038 
L 1057.338 708.993113 
L 1058.4756 719.515976 
L 1059.6132 707.805619 
L 1061.8884 715.628274 
L 1063.026 715.628274 
L 1064.1636 709.116074 
L 1066.4388 709.116074 
L 1067.5764 710.897349 
L 1068.714 711.708383 
L 1069.8516 695.337448 
L 1070.9892 708.082399 
L 1072.1268 698.731203 
L 1073.2644 710.003561 
L 1074.402 710.003561 
L 1075.5396 688.143041 
L 1076.6772 705.239947 
L 1077.8148 688.143041 
L 1080.09 720.194296 
L 1081.2276 720.194296 
L 1082.3652 663.905375 
L 1083.5028 708.251915 
L 1084.6404 702.598643 
L 1085.778 716.2584 
L 1086.9156 720.386731 
L 1088.0532 717.189799 
L 1089.1908 710.908536 
L 1090.3284 717.180154 
L 1091.466 711.404492 
L 1092.6036 717.553058 
L 1094.8788 717.553058 
L 1096.0164 717.837495 
L 1097.154 716.588962 
L 1098.2916 699.833975 
L 1099.4292 661.554039 
L 1100.5668 697.794965 
L 1101.7044 713.719773 
L 1102.842 714.616978 
L 1103.9796 707.097166 
L 1105.1172 713.109483 
L 1106.2548 713.663508 
L 1107.3924 713.109483 
L 1108.53 715.503757 
L 1109.6676 707.235597 
L 1110.8052 678.422112 
L 1113.0804 678.422112 
L 1114.218 707.235597 
L 1115.3556 700.314182 
L 1116.4932 712.419731 
L 1117.6308 699.818843 
L 1118.7684 709.710797 
L 1119.906 694.78041 
L 1121.0436 686.182123 
L 1123.3188 718.218387 
L 1125.594 718.231153 
L 1126.7316 711.211048 
L 1129.0068 711.211048 
L 1130.1444 700.441799 
L 1131.282 707.867866 
L 1132.4196 693.032333 
L 1133.5572 708.153856 
L 1134.6948 708.395894 
L 1135.8324 716.750651 
L 1136.97 719.278812 
L 1138.1076 715.643414 
L 1139.2452 714.071249 
L 1140.3828 715.643414 
L 1141.5204 715.575466 
L 1142.658 710.372843 
L 1143.7956 710.372843 
L 1144.9332 718.28343 
L 1146.0708 707.417148 
L 1147.2084 699.142145 
L 1148.346 707.017086 
L 1149.4836 707.017086 
L 1150.6212 697.951802 
L 1151.7588 712.757233 
L 1152.8964 714.177296 
L 1154.034 714.177296 
L 1155.1716 717.555145 
L 1156.3092 718.505272 
L 1157.4468 709.127675 
L 1158.5844 715.156785 
L 1159.722 715.399784 
L 1160.8596 693.924438 
L 1161.9972 708.582094 
L 1163.1348 716.295685 
L 1164.2724 714.914473 
L 1165.41 710.74629 
L 1166.5476 671.068693 
L 1167.6852 694.605833 
L 1168.8228 696.914861 
L 1169.9604 708.017629 
L 1171.098 671.068693 
L 1172.2356 710.800851 
L 1173.3732 709.172587 
L 1174.5108 708.017629 
L 1175.6484 715.57067 
L 1176.786 713.810523 
L 1177.9236 711.762465 
L 1179.0612 707.399708 
L 1180.1988 715.95911 
L 1181.3364 715.95911 
L 1182.474 714.01982 
L 1183.6116 717.194247 
L 1184.7492 707.890337 
L 1185.8868 715.901553 
L 1187.0244 715.389218 
L 1188.162 715.389218 
L 1189.2996 715.64761 
L 1190.4372 709.269028 
L 1191.5748 721.713818 
L 1192.7124 713.382102 
L 1193.85 714.498866 
L 1194.9876 717.598879 
L 1196.1252 722.306929 
L 1197.2628 721.713818 
L 1198.4004 718.101448 
L 1199.538 718.101448 
L 1200.6756 715.050238 
L 1201.8132 714.277998 
L 1202.9508 718.196585 
L 1204.0884 714.277998 
L 1205.226 718.194998 
L 1206.3636 716.300829 
L 1207.5012 721.60518 
L 1208.6388 715.924577 
L 1209.7764 715.924577 
L 1210.914 715.209154 
L 1212.0516 710.674559 
L 1213.1892 711.090105 
L 1214.3268 705.47061 
L 1215.4644 706.933167 
L 1216.602 709.543373 
L 1217.7396 721.82583 
L 1218.8772 688.054426 
L 1220.0148 712.339469 
L 1221.1524 713.764333 
L 1222.29 713.764333 
L 1223.4276 708.030138 
L 1224.5652 709.818287 
L 1225.7028 716.852219 
L 1226.8404 699.731533 
L 1227.978 720.528532 
L 1230.2532 699.731533 
L 1231.3908 717.344435 
L 1232.5284 715.561352 
L 1233.666 719.676356 
L 1234.8036 711.656466 
L 1235.9412 720.129522 
L 1237.0788 707.26749 
L 1238.2164 710.795824 
L 1239.354 718.354218 
L 1240.4916 707.26749 
L 1241.6292 711.688207 
L 1242.7668 710.82383 
L 1243.9044 701.013143 
L 1245.042 709.605603 
L 1246.1796 712.038366 
L 1247.3172 719.528794 
L 1248.4548 710.48849 
L 1249.5924 704.567918 
L 1250.73 704.567918 
L 1251.8676 702.494158 
L 1253.0052 705.982541 
L 1254.1428 717.236928 
L 1255.2804 705.982541 
L 1256.418 720.026424 
L 1257.5556 720.026424 
L 1258.6932 716.540076 
L 1259.8308 718.595339 
L 1260.9684 703.790212 
L 1262.106 707.858988 
L 1263.2436 707.858988 
L 1264.3812 714.124779 
L 1265.5188 716.786884 
L 1266.6564 720.675499 
L 1267.794 717.98954 
L 1268.9316 720.695844 
L 1270.0692 691.481966 
L 1271.2068 715.062996 
L 1272.3444 717.710426 
L 1273.482 721.631117 
L 1274.6196 718.284939 
L 1275.7572 715.386562 
L 1276.8948 715.386562 
L 1278.0324 718.30558 
L 1279.17 720.804508 
L 1280.3076 720.984612 
L 1281.4452 723.401134 
L 1282.5828 724.174257 
L 1284.858 724.174257 
L 1285.9956 720.476968 
L 1287.1332 712.189663 
L 1288.2708 708.833263 
L 1289.4084 721.9606 
L 1290.546 713.977634 
L 1291.6836 722.464287 
L 1293.9588 722.464287 
L 1295.0964 719.524316 
L 1296.234 711.802189 
L 1297.3716 715.473028 
L 1298.5092 714.610652 
L 1299.6468 719.524316 
L 1300.7844 716.536401 
L 1301.922 721.764226 
L 1303.0596 721.764226 
L 1304.1972 725.022272 
L 1305.3348 725.022272 
L 1306.4724 688.84435 
L 1307.61 717.783174 
L 1308.7476 719.646341 
L 1309.8852 717.783174 
L 1311.0228 720.565291 
L 1312.1604 713.720356 
L 1313.298 708.294922 
L 1314.4356 679.321739 
L 1315.5732 705.447417 
L 1316.7108 705.447417 
L 1318.986 719.882471 
L 1320.1236 713.073207 
L 1321.2612 720.891375 
L 1322.3988 720.891375 
L 1323.5364 719.625823 
L 1324.674 719.625823 
L 1325.8116 722.189642 
L 1326.9492 706.022805 
L 1328.0868 722.911905 
L 1329.2244 721.489494 
L 1330.362 721.489494 
L 1331.4996 699.821105 
L 1333.7748 699.821105 
L 1334.9124 724.495431 
L 1336.05 719.022416 
L 1336.05 719.022416 
" style="fill:none;stroke:#0000ff;stroke-linecap:square;stroke-width:2.0;"/>
   </g>
   <g id="line2d_2">
    <path clip-path="url(#pa52e0880fb)" d="M 199.5876 127.927442 
L 203.0004 127.927442 
L 204.138 401.741004 
L 205.2756 401.741004 
L 206.4132 434.451557 
L 207.5508 555.724503 
L 208.6884 436.131499 
L 209.826 511.293492 
L 210.9636 573.538814 
L 212.1012 532.404161 
L 213.2388 532.404161 
L 214.3764 528.381928 
L 215.514 574.277344 
L 216.6516 601.844934 
L 217.7892 601.844934 
L 218.9268 631.253782 
L 220.0644 612.433271 
L 221.202 631.253782 
L 222.3396 608.214894 
L 223.4772 553.113628 
L 224.6148 595.095427 
L 225.7524 620.53348 
L 226.89 620.53348 
L 228.0276 602.133258 
L 229.1652 612.061506 
L 230.3028 639.150108 
L 231.4404 639.150108 
L 232.578 618.164534 
L 233.7156 618.796404 
L 234.8532 598.315561 
L 235.9908 603.381214 
L 237.1284 598.315561 
L 238.266 595.437233 
L 239.4036 595.442146 
L 240.5412 577.070231 
L 241.6788 577.070231 
L 242.8164 627.566746 
L 243.954 627.560615 
L 245.0916 620.927507 
L 246.2292 596.92677 
L 247.3668 617.535361 
L 248.5044 617.842904 
L 249.642 596.92677 
L 250.7796 572.697235 
L 251.9172 624.359134 
L 253.0548 624.359134 
L 254.1924 595.786344 
L 255.33 595.786344 
L 256.4676 602.868483 
L 257.6052 614.425973 
L 258.7428 614.425973 
L 261.018 589.042663 
L 262.1556 589.042663 
L 263.2932 588.578066 
L 264.4308 614.529198 
L 265.5684 562.75716 
L 266.706 556.006174 
L 267.8436 556.006174 
L 268.9812 644.107927 
L 270.1188 622.116763 
L 271.2564 622.116763 
L 272.394 626.696382 
L 273.5316 624.156903 
L 274.6692 628.204051 
L 275.8068 433.337915 
L 276.9444 613.656225 
L 278.082 613.656225 
L 279.2196 634.437566 
L 280.3572 564.107079 
L 281.4948 559.130694 
L 282.6324 648.025935 
L 283.77 619.736947 
L 284.9076 622.448046 
L 286.0452 581.157512 
L 287.1828 647.234185 
L 288.3204 652.950361 
L 289.458 645.893093 
L 290.5956 645.52172 
L 291.7332 613.143059 
L 292.8708 641.985172 
L 294.0084 643.918001 
L 295.146 640.377975 
L 296.2836 604.041607 
L 297.4212 604.041607 
L 298.5588 635.695044 
L 299.6964 635.695044 
L 300.834 643.590456 
L 301.9716 655.882823 
L 303.1092 648.203686 
L 304.2468 653.709848 
L 305.3844 614.282485 
L 306.522 614.282485 
L 307.6596 652.709692 
L 308.7972 610.939212 
L 309.9348 637.556041 
L 311.0724 637.556041 
L 312.21 646.436391 
L 313.3476 642.732223 
L 314.4852 625.962157 
L 315.6228 657.428147 
L 316.7604 657.428147 
L 317.898 654.384764 
L 319.0356 644.372162 
L 320.1732 639.827589 
L 321.3108 665.217117 
L 322.4484 651.466824 
L 323.586 639.827589 
L 324.7236 613.310766 
L 325.8612 663.329987 
L 326.9988 642.725092 
L 328.1364 662.564456 
L 329.274 661.269976 
L 330.4116 664.63612 
L 331.5492 664.475892 
L 332.6868 637.882673 
L 333.8244 664.475892 
L 334.962 657.669468 
L 336.0996 635.605777 
L 337.2372 659.862705 
L 338.3748 658.439781 
L 339.5124 615.829157 
L 340.65 657.185695 
L 341.7876 626.34688 
L 342.9252 657.185695 
L 344.0628 672.031716 
L 345.2004 672.031716 
L 346.338 647.804572 
L 347.4756 653.016496 
L 348.6132 653.016496 
L 349.7508 671.248575 
L 350.8884 662.89274 
L 352.026 659.50929 
L 353.1636 659.50929 
L 354.3012 666.468638 
L 355.4388 656.124535 
L 356.5764 658.899335 
L 357.714 661.28102 
L 358.8516 668.50656 
L 359.9892 511.177962 
L 361.1268 511.177962 
L 362.2644 598.887079 
L 363.402 639.328772 
L 364.5396 639.328772 
L 365.6772 648.887168 
L 366.8148 668.719836 
L 367.9524 675.521347 
L 369.09 667.27778 
L 370.2276 668.679529 
L 371.3652 635.619691 
L 372.5028 668.679529 
L 373.6404 668.666919 
L 374.778 630.282237 
L 375.9156 643.54554 
L 377.0532 666.45155 
L 378.1908 629.592972 
L 379.3284 641.342432 
L 380.466 641.342432 
L 381.6036 666.387067 
L 382.7412 654.387764 
L 383.8788 660.917778 
L 385.0164 634.771676 
L 386.154 634.771676 
L 387.2916 670.422866 
L 388.4292 671.174961 
L 389.5668 672.145593 
L 390.7044 672.145593 
L 391.842 671.056823 
L 392.9796 679.545928 
L 394.1172 672.018498 
L 395.2548 625.291372 
L 396.3924 638.966834 
L 397.53 649.838364 
L 398.6676 644.032139 
L 399.8052 644.032139 
L 400.9428 653.214248 
L 402.0804 648.134769 
L 403.218 640.876487 
L 404.3556 659.90236 
L 405.4932 666.413634 
L 406.6308 674.785557 
L 407.7684 640.876487 
L 408.906 671.094391 
L 410.0436 628.757132 
L 411.1812 674.785557 
L 412.3188 658.571573 
L 413.4564 638.100209 
L 414.594 662.310787 
L 415.7316 638.593026 
L 416.8692 665.167114 
L 418.0068 651.89107 
L 419.1444 667.685069 
L 420.282 664.988666 
L 421.4196 667.685069 
L 422.5572 666.919712 
L 423.6948 659.938493 
L 424.8324 671.664169 
L 425.97 666.919712 
L 427.1076 665.866031 
L 428.2452 669.749863 
L 429.3828 671.50381 
L 430.5204 648.908735 
L 431.658 660.878123 
L 432.7956 662.140253 
L 433.9332 654.191185 
L 436.2084 680.327591 
L 437.346 667.624109 
L 438.4836 680.327591 
L 439.6212 678.92806 
L 440.7588 680.49995 
L 441.8964 655.415747 
L 443.034 604.813356 
L 444.1716 635.576775 
L 445.3092 655.415617 
L 446.4468 604.813356 
L 447.5844 673.898279 
L 448.722 664.042775 
L 449.8596 664.042775 
L 450.9972 675.683489 
L 452.1348 675.683445 
L 453.2724 668.525083 
L 454.41 675.683489 
L 455.5476 681.595417 
L 456.6852 661.613695 
L 457.8228 661.025959 
L 458.9604 667.406963 
L 460.098 623.049349 
L 461.2356 661.613826 
L 462.3732 667.406963 
L 463.5108 635.565905 
L 464.6484 660.237035 
L 465.786 650.234957 
L 466.9236 650.234957 
L 468.0612 635.565905 
L 470.3364 542.766699 
L 471.474 675.386077 
L 472.6116 681.730687 
L 473.7492 670.931118 
L 474.8868 661.454815 
L 476.0244 654.873884 
L 477.162 654.873884 
L 478.2996 676.328707 
L 479.4372 676.328707 
L 480.5748 671.835485 
L 481.7124 671.835485 
L 482.85 684.938342 
L 483.9876 684.938342 
L 485.1252 676.195524 
L 486.2628 651.143497 
L 487.4004 651.143497 
L 488.538 665.555749 
L 489.6756 668.151536 
L 490.8132 668.151536 
L 491.9508 684.242773 
L 493.0884 684.242773 
L 494.226 669.731645 
L 495.3636 650.078728 
L 496.5012 671.446676 
L 497.6388 679.442182 
L 498.7764 670.651491 
L 499.914 668.552955 
L 501.0516 652.634991 
L 502.1892 652.634991 
L 503.3268 676.890832 
L 504.4644 684.365781 
L 505.602 669.514108 
L 507.8772 683.50107 
L 509.0148 658.894769 
L 510.1524 667.062244 
L 511.29 672.217816 
L 512.4276 681.382359 
L 513.5652 655.879258 
L 514.7028 681.382359 
L 515.8404 622.820289 
L 516.978 622.820289 
L 518.1156 626.944268 
L 519.2532 688.777171 
L 520.3908 626.944268 
L 521.5284 685.140052 
L 522.666 686.374354 
L 523.8036 680.34507 
L 524.9412 647.80392 
L 526.0788 683.371235 
L 527.2164 690.264969 
L 528.354 646.364212 
L 529.4916 673.409767 
L 530.6292 674.37966 
L 531.7668 674.216953 
L 532.9044 683.287316 
L 534.042 666.481856 
L 535.1796 684.796854 
L 536.3172 666.481856 
L 537.4548 669.926615 
L 538.5924 691.504663 
L 539.73 668.261587 
L 540.8676 668.261587 
L 542.0052 674.616328 
L 543.1428 671.072519 
L 544.2804 669.926615 
L 545.418 657.700339 
L 546.5556 669.875611 
L 547.6932 669.875611 
L 548.8308 657.696078 
L 549.9684 666.461246 
L 551.106 663.612224 
L 552.2436 688.211045 
L 553.3812 680.069616 
L 554.5188 663.612224 
L 555.6564 677.951645 
L 556.794 683.834136 
L 557.9316 673.017827 
L 559.0692 683.656298 
L 560.2068 683.656298 
L 561.3444 691.942432 
L 562.482 686.493145 
L 563.6196 676.930313 
L 564.7572 681.927048 
L 565.8948 695.904618 
L 567.0324 685.347762 
L 568.17 680.580304 
L 569.3076 685.347762 
L 570.4452 684.765026 
L 571.5828 672.147419 
L 572.7204 678.598211 
L 573.858 676.744692 
L 574.9956 697.266538 
L 577.2708 697.266538 
L 578.4084 676.744692 
L 579.546 690.478332 
L 580.6836 694.637357 
L 581.8212 694.637357 
L 582.9588 682.016011 
L 584.0964 682.016011 
L 585.234 676.299487 
L 586.3716 657.741255 
L 587.5092 681.593721 
L 588.6468 661.107052 
L 589.7844 677.318558 
L 590.922 675.433863 
L 592.0596 697.436375 
L 593.1972 697.113223 
L 594.3348 687.1698 
L 595.4724 682.056188 
L 596.61 682.386384 
L 597.7476 669.734427 
L 598.8852 679.702721 
L 600.0228 679.702721 
L 601.1604 686.47997 
L 602.298 682.511393 
L 603.4356 688.35162 
L 604.5732 686.47997 
L 605.7108 682.510828 
L 606.8484 682.15476 
L 607.986 681.101122 
L 609.1236 682.983425 
L 610.2612 680.539996 
L 611.3988 682.983425 
L 612.5364 694.557438 
L 613.674 692.302109 
L 614.8116 692.302109 
L 615.9492 685.759964 
L 617.0868 698.4294 
L 618.2244 692.629393 
L 619.362 685.759964 
L 620.4996 684.741416 
L 621.6372 679.904214 
L 622.7748 681.620158 
L 623.9124 699.467471 
L 625.05 691.400569 
L 626.1876 686.050897 
L 627.3252 695.800785 
L 628.4628 679.34161 
L 629.6004 695.800785 
L 630.738 691.478009 
L 631.8756 691.478009 
L 633.0132 695.007339 
L 634.1508 686.90726 
L 635.2884 693.864956 
L 636.426 696.2786 
L 637.5636 696.251033 
L 638.7012 686.170688 
L 639.8388 700.002204 
L 640.9764 699.864934 
L 642.114 692.417683 
L 643.2516 691.106853 
L 644.3892 698.805904 
L 645.5268 700.553764 
L 646.6644 694.465693 
L 647.802 694.465693 
L 648.9396 694.80289 
L 650.0772 689.997864 
L 651.2148 673.872668 
L 652.3524 666.72509 
L 653.49 695.619729 
L 654.6276 695.619729 
L 655.7652 666.32428 
L 656.9028 695.302011 
L 658.0404 689.661623 
L 659.178 660.23747 
L 660.3156 694.22198 
L 661.4532 660.23747 
L 662.5908 696.051889 
L 663.7284 663.039445 
L 664.866 686.62798 
L 666.0036 694.22198 
L 667.1412 696.320733 
L 668.2788 668.609002 
L 669.4164 697.309149 
L 670.554 681.379793 
L 671.6916 698.495492 
L 672.8292 682.667099 
L 673.9668 655.761119 
L 675.1044 655.761119 
L 676.242 701.588356 
L 677.3796 652.514548 
L 678.5172 665.585273 
L 679.6548 696.121068 
L 680.7924 705.428773 
L 681.93 705.428773 
L 683.0676 674.343614 
L 684.2052 706.234685 
L 685.3428 706.234685 
L 686.4804 706.834991 
L 687.618 706.834991 
L 688.7556 706.571269 
L 689.8932 706.571269 
L 691.0308 697.028173 
L 692.1684 703.430005 
L 693.306 702.825963 
L 694.4436 691.692111 
L 695.5812 691.692111 
L 696.7188 665.771372 
L 697.8564 691.692111 
L 698.994 700.848219 
L 700.1316 700.848219 
L 701.2692 687.853412 
L 702.4068 701.3436 
L 703.5444 691.502272 
L 704.682 665.926818 
L 705.8196 694.057143 
L 706.9572 696.25012 
L 708.0948 706.520817 
L 709.2324 704.942787 
L 710.37 690.093958 
L 711.5076 688.446018 
L 712.6452 702.779003 
L 713.7828 704.040264 
L 714.9204 704.040264 
L 716.058 695.437281 
L 717.1956 681.148517 
L 718.3332 681.148517 
L 719.4708 698.470359 
L 720.6084 690.378673 
L 721.746 695.910401 
L 722.8836 700.735733 
L 724.0212 671.751653 
L 725.1588 693.984964 
L 726.2964 697.685784 
L 727.434 693.984964 
L 728.5716 700.600115 
L 729.7092 702.489114 
L 730.8468 687.179279 
L 731.9844 686.352483 
L 733.122 694.169846 
L 734.2596 686.106944 
L 735.3972 699.434991 
L 736.5348 703.41383 
L 737.6724 703.41383 
L 738.81 694.819717 
L 739.9476 693.719033 
L 741.0852 693.719033 
L 742.2228 680.667788 
L 743.3604 692.05931 
L 744.498 701.850505 
L 745.6356 692.05931 
L 746.7732 691.733114 
L 747.9108 673.604954 
L 749.0484 689.065278 
L 750.186 689.065278 
L 751.3236 682.010489 
L 753.5988 682.010489 
L 754.7364 696.446307 
L 755.874 688.859786 
L 757.0116 702.82205 
L 759.2868 702.82205 
L 760.4244 707.522938 
L 761.562 701.14463 
L 762.6996 699.908893 
L 763.8372 685.496859 
L 764.9748 685.496859 
L 766.1124 682.959989 
L 767.25 698.05807 
L 768.3876 703.334824 
L 769.5252 705.396014 
L 770.6628 675.197977 
L 771.8004 700.377751 
L 772.938 700.377751 
L 774.0756 670.728061 
L 775.2132 680.411466 
L 776.3508 691.83486 
L 777.4884 619.009375 
L 778.626 687.462037 
L 779.7636 619.009375 
L 780.9012 687.462037 
L 782.0388 703.262211 
L 783.1764 690.407936 
L 784.314 703.262211 
L 785.4516 690.861576 
L 786.5892 704.829275 
L 787.7268 697.460855 
L 788.8644 670.647664 
L 790.002 670.647664 
L 791.1396 694.382513 
L 792.2772 696.073586 
L 793.4148 702.397282 
L 794.5524 693.918394 
L 795.69 700.233046 
L 796.8276 683.115217 
L 797.9652 697.741875 
L 799.1028 697.741875 
L 800.2404 700.335923 
L 801.378 694.366338 
L 802.5156 694.612833 
L 803.6532 701.333035 
L 804.7908 701.333035 
L 805.9284 696.447003 
L 807.066 696.447003 
L 808.2036 704.776267 
L 809.3412 682.170413 
L 810.4788 675.068533 
L 811.6164 693.716815 
L 812.754 695.132869 
L 813.8916 693.067727 
L 815.0292 702.923274 
L 816.1668 693.067727 
L 817.3044 699.644832 
L 818.442 700.781301 
L 819.5796 700.781301 
L 820.7172 704.650819 
L 821.8548 707.833203 
L 822.9924 688.049078 
L 824.13 688.049078 
L 825.2676 703.95878 
L 826.4052 693.999617 
L 827.5428 691.770551 
L 828.6804 701.735367 
L 830.9556 701.644926 
L 832.0932 701.215505 
L 833.2308 693.478712 
L 834.3684 687.386815 
L 835.506 696.215509 
L 836.6436 687.386815 
L 837.7812 703.326389 
L 838.9188 701.280205 
L 840.0564 701.593226 
L 841.194 701.280205 
L 842.3316 683.677777 
L 843.4692 683.677777 
L 844.6068 679.140031 
L 845.7444 692.597825 
L 846.882 696.11098 
L 848.0196 704.415012 
L 849.1572 670.0301 
L 850.2948 702.093739 
L 851.4324 702.18131 
L 852.57 680.604914 
L 853.7076 673.129096 
L 854.8452 682.315945 
L 855.9828 694.425603 
L 857.1204 697.89832 
L 858.258 694.425603 
L 859.3956 691.911822 
L 860.5332 694.857024 
L 861.6708 698.6812 
L 862.8084 698.6812 
L 863.946 696.456351 
L 865.0836 696.456351 
L 866.2212 699.235021 
L 867.3588 687.023138 
L 868.4964 685.892973 
L 869.634 703.815527 
L 870.7716 703.815527 
L 871.9092 700.443973 
L 873.0468 708.498975 
L 874.1844 707.788174 
L 875.322 694.707231 
L 876.4596 692.841364 
L 877.5972 703.613817 
L 878.7348 694.400254 
L 879.8724 694.459736 
L 881.01 710.291946 
L 882.1476 708.127554 
L 883.2852 697.143877 
L 884.4228 710.291946 
L 885.5604 697.143877 
L 886.698 691.99961 
L 887.8356 701.071669 
L 888.9732 705.275101 
L 890.1108 697.248797 
L 891.2484 702.992453 
L 892.386 682.518219 
L 893.5236 683.385975 
L 895.7988 708.433131 
L 896.9364 711.724814 
L 898.074 699.269675 
L 899.2116 699.269675 
L 900.3492 708.4905 
L 901.4868 700.187434 
L 902.6244 710.857433 
L 903.762 710.857433 
L 904.8996 712.436085 
L 906.0372 712.436085 
L 907.1748 716.391261 
L 908.3124 684.050716 
L 909.45 684.050716 
L 910.5876 709.445079 
L 911.7252 696.052237 
L 912.8628 709.445079 
L 914.0004 709.022589 
L 915.138 708.123554 
L 916.2756 708.123554 
L 917.4132 709.132075 
L 918.5508 700.647683 
L 919.6884 695.607163 
L 920.826 695.607163 
L 921.9636 696.650843 
L 923.1012 699.139014 
L 924.2388 696.650843 
L 925.3764 676.572854 
L 926.514 702.369932 
L 927.6516 703.061719 
L 928.7892 703.061719 
L 929.9268 710.421503 
L 931.0644 713.574802 
L 932.202 677.930643 
L 933.3396 715.474637 
L 934.4772 706.249981 
L 936.7524 706.249981 
L 937.89 710.40665 
L 939.0276 710.40665 
L 941.3028 695.314403 
L 942.4404 712.462069 
L 943.578 700.907266 
L 944.7156 712.462069 
L 945.8532 694.963466 
L 946.9908 704.920333 
L 948.1284 698.237213 
L 949.266 701.718583 
L 950.4036 699.889848 
L 951.5412 709.184613 
L 952.6788 712.557893 
L 953.8164 709.296552 
L 954.954 709.296552 
L 956.0916 710.011105 
L 957.2292 693.006419 
L 958.3668 693.006419 
L 959.5044 700.434973 
L 960.642 700.434973 
L 961.7796 700.2667 
L 962.9172 709.238617 
L 964.0548 700.434973 
L 965.1924 708.682161 
L 966.33 708.387454 
L 967.4676 707.819328 
L 968.6052 708.387454 
L 969.7428 707.819328 
L 970.8804 714.540656 
L 972.018 712.882998 
L 973.1556 712.882998 
L 974.2932 704.578045 
L 975.4308 704.274893 
L 976.5684 708.775016 
L 977.706 702.682388 
L 978.8436 709.047343 
L 979.9812 708.097613 
L 981.1188 712.871767 
L 982.2564 708.097613 
L 983.394 704.861908 
L 984.5316 709.928478 
L 985.6692 704.861908 
L 986.8068 707.072473 
L 987.9444 712.824846 
L 989.082 700.321052 
L 990.2196 712.007277 
L 991.3572 712.824846 
L 992.4948 701.559615 
L 993.6324 672.645715 
L 994.77 709.132771 
L 995.9076 715.032768 
L 997.0452 715.032768 
L 998.1828 707.130359 
L 999.3204 711.483858 
L 1000.458 711.276996 
L 1001.5956 702.01469 
L 1002.7332 701.439477 
L 1003.8708 710.510148 
L 1005.0084 716.158019 
L 1006.146 710.297338 
L 1007.2836 708.701145 
L 1008.4212 712.167484 
L 1009.5588 712.161101 
L 1010.6964 707.444629 
L 1011.834 706.164662 
L 1012.9716 706.197221 
L 1014.1092 709.993443 
L 1016.3844 709.993443 
L 1017.522 698.543538 
L 1018.6596 704.386536 
L 1019.7972 699.691009 
L 1020.9348 712.443124 
L 1022.0724 712.443124 
L 1023.21 705.608233 
L 1024.3476 705.608233 
L 1025.4852 706.852814 
L 1026.6228 701.997515 
L 1027.7604 676.111866 
L 1028.898 701.997515 
L 1030.0356 708.814262 
L 1031.1732 714.424835 
L 1032.3108 709.11727 
L 1033.4484 708.814262 
L 1034.586 704.77358 
L 1035.7236 702.110131 
L 1036.8612 712.431384 
L 1037.9988 713.846212 
L 1039.1364 692.596043 
L 1040.274 696.470787 
L 1041.4116 713.846212 
L 1042.5492 703.60773 
L 1043.6868 709.029451 
L 1044.8244 707.537431 
L 1045.962 711.919832 
L 1047.0996 714.132454 
L 1048.2372 708.678013 
L 1049.3748 676.465673 
L 1050.5124 714.132454 
L 1051.65 698.470881 
L 1052.7876 701.155109 
L 1053.9252 688.425756 
L 1055.0628 712.684054 
L 1056.2004 713.388624 
L 1057.338 708.686544 
L 1058.4756 708.686544 
L 1059.6132 713.388624 
L 1060.7508 703.397524 
L 1063.026 703.397524 
L 1064.1636 706.760721 
L 1065.3012 714.515049 
L 1066.4388 717.186946 
L 1067.5764 698.137076 
L 1068.714 710.857411 
L 1070.9892 710.857411 
L 1072.1268 719.901724 
L 1073.2644 712.130499 
L 1074.402 713.319893 
L 1075.5396 703.489965 
L 1076.6772 712.350762 
L 1077.8148 715.229168 
L 1078.9524 713.11434 
L 1080.09 713.11434 
L 1081.2276 713.378145 
L 1082.3652 713.378145 
L 1083.5028 715.887831 
L 1084.6404 721.174655 
L 1086.9156 712.260777 
L 1088.0532 714.243361 
L 1089.1908 714.243361 
L 1090.3284 711.256708 
L 1091.466 709.628222 
L 1092.6036 713.269333 
L 1093.7412 717.305515 
L 1094.8788 715.390531 
L 1096.0164 710.948561 
L 1097.154 708.743013 
L 1098.2916 717.848348 
L 1099.4292 719.130897 
L 1100.5668 717.952425 
L 1102.842 709.285564 
L 1103.9796 683.562987 
L 1105.1172 709.109382 
L 1107.3924 717.247146 
L 1109.6676 714.51658 
L 1110.8052 714.51658 
L 1111.9428 711.188838 
L 1113.0804 714.51658 
L 1114.218 714.980142 
L 1115.3556 714.980142 
L 1116.4932 713.253371 
L 1117.6308 713.401455 
L 1118.7684 714.70448 
L 1119.906 708.278721 
L 1121.0436 712.980457 
L 1122.1812 702.128046 
L 1123.3188 715.461271 
L 1124.4564 715.461271 
L 1125.594 716.628482 
L 1126.7316 719.029064 
L 1127.8692 712.189033 
L 1129.0068 712.189033 
L 1130.1444 716.457431 
L 1131.282 716.764913 
L 1132.4196 715.261383 
L 1133.5572 715.261383 
L 1134.6948 709.12557 
L 1135.8324 715.067057 
L 1136.97 716.271892 
L 1138.1076 715.692409 
L 1139.2452 699.81093 
L 1141.5204 699.81093 
L 1142.658 718.365588 
L 1143.7956 718.365588 
L 1144.9332 719.623992 
L 1146.0708 708.880114 
L 1147.2084 709.526154 
L 1148.346 705.881452 
L 1149.4836 719.117531 
L 1150.6212 705.881452 
L 1151.7588 715.726933 
L 1152.8964 715.016767 
L 1154.034 717.515804 
L 1155.1716 719.004293 
L 1156.3092 717.933928 
L 1157.4468 718.4096 
L 1158.5844 703.979943 
L 1159.722 714.984377 
L 1160.8596 716.770335 
L 1161.9972 712.895834 
L 1163.1348 711.657179 
L 1164.2724 719.755097 
L 1165.41 695.661123 
L 1166.5476 713.50018 
L 1167.6852 709.012215 
L 1168.8228 719.455854 
L 1169.9604 701.452738 
L 1171.098 717.763368 
L 1172.2356 717.763368 
L 1173.3732 719.843859 
L 1174.5108 709.386223 
L 1175.6484 719.843859 
L 1176.786 715.803264 
L 1177.9236 690.433894 
L 1179.0612 715.803264 
L 1180.1988 713.101757 
L 1181.3364 709.861195 
L 1182.474 709.861195 
L 1183.6116 709.375561 
L 1184.7492 709.861195 
L 1185.8868 693.220346 
L 1187.0244 683.936665 
L 1188.162 683.936665 
L 1189.2996 706.364576 
L 1190.4372 683.832875 
L 1191.5748 706.082078 
L 1192.7124 697.634954 
L 1193.85 691.32926 
L 1194.9876 714.338081 
L 1196.1252 704.071318 
L 1197.2628 712.441607 
L 1198.4004 718.471261 
L 1199.538 707.875367 
L 1200.6756 708.640502 
L 1201.8132 708.640502 
L 1202.9508 697.257015 
L 1204.0884 697.257015 
L 1205.226 713.5433 
L 1206.3636 698.675547 
L 1207.5012 710.528684 
L 1208.6388 717.593631 
L 1209.7764 721.858185 
L 1212.0516 726.571491 
L 1213.1892 714.557235 
L 1214.3268 698.94761 
L 1216.602 698.94761 
L 1217.7396 708.869361 
L 1218.8772 699.206975 
L 1220.0148 713.537826 
L 1221.1524 714.087877 
L 1222.29 718.258915 
L 1223.4276 713.88945 
L 1224.5652 707.700216 
L 1225.7028 695.12126 
L 1226.8404 711.414597 
L 1227.978 711.414597 
L 1229.1156 721.405388 
L 1231.3908 721.405388 
L 1232.5284 713.001589 
L 1233.666 706.5236 
L 1234.8036 719.023716 
L 1235.9412 710.729902 
L 1237.0788 717.531365 
L 1238.2164 717.531365 
L 1239.354 723.857574 
L 1240.4916 710.729902 
L 1241.6292 713.63315 
L 1242.7668 679.428659 
L 1243.9044 720.330419 
L 1246.1796 720.330419 
L 1247.3172 712.404639 
L 1248.4548 720.041503 
L 1249.5924 719.993839 
L 1250.73 711.665684 
L 1251.8676 698.978612 
L 1253.0052 715.918524 
L 1254.1428 718.001907 
L 1255.2804 712.925684 
L 1256.418 716.124438 
L 1257.5556 724.828058 
L 1258.6932 722.417932 
L 1259.8308 722.417932 
L 1260.9684 721.718253 
L 1262.106 712.921696 
L 1263.2436 719.722073 
L 1264.3812 719.384589 
L 1265.5188 719.384589 
L 1266.6564 709.094564 
L 1267.794 720.095868 
L 1268.9316 718.609131 
L 1270.0692 718.609131 
L 1271.2068 714.163169 
L 1272.3444 719.439301 
L 1273.482 719.439301 
L 1274.6196 704.995051 
L 1275.7572 704.995051 
L 1276.8948 713.597943 
L 1278.0324 723.068529 
L 1279.17 723.068533 
L 1280.3076 722.178989 
L 1281.4452 723.068529 
L 1282.5828 686.288826 
L 1283.7204 686.288826 
L 1284.858 717.099801 
L 1285.9956 715.38344 
L 1287.1332 719.649159 
L 1288.2708 720.203314 
L 1289.4084 721.458866 
L 1290.546 719.973746 
L 1291.6836 717.150535 
L 1292.8212 715.396045 
L 1295.0964 715.396045 
L 1296.234 712.05375 
L 1297.3716 705.859354 
L 1298.5092 716.896778 
L 1299.6468 722.263421 
L 1300.7844 717.90907 
L 1301.922 717.90907 
L 1303.0596 715.412715 
L 1304.1972 712.362671 
L 1305.3348 722.708669 
L 1306.4724 724.609783 
L 1307.61 706.71073 
L 1308.7476 701.590183 
L 1309.8852 710.470067 
L 1311.0228 704.154446 
L 1312.1604 700.222393 
L 1313.298 704.202714 
L 1314.4356 720.224877 
L 1315.5732 706.061947 
L 1316.7108 714.11874 
L 1317.8484 719.438936 
L 1318.986 719.438936 
L 1320.1236 723.776638 
L 1321.2612 721.601828 
L 1322.3988 721.601828 
L 1323.5364 714.886688 
L 1324.674 711.705252 
L 1325.8116 711.705252 
L 1326.9492 708.204911 
L 1328.0868 708.204911 
L 1329.2244 721.136783 
L 1330.362 709.019906 
L 1331.4996 716.906731 
L 1332.6372 721.923867 
L 1334.9124 721.923867 
L 1336.05 716.490964 
L 1336.05 716.490964 
" style="fill:none;stroke:#008000;stroke-dasharray:6.000000,6.000000;stroke-dashoffset:0.0;stroke-width:2.0;"/>
   </g>
   <g id="patch_3">
    <path d="M 198.45 51.3 
L 1336.05 51.3 
" style="fill:none;stroke:#000000;stroke-linecap:square;stroke-linejoin:miter;"/>
   </g>
   <g id="patch_4">
    <path d="M 1336.05 747 
L 1336.05 51.3 
" style="fill:none;stroke:#000000;stroke-linecap:square;stroke-linejoin:miter;"/>
   </g>
   <g id="patch_5">
    <path d="M 198.45 747 
L 1336.05 747 
" style="fill:none;stroke:#000000;stroke-linecap:square;stroke-linejoin:miter;"/>
   </g>
   <g id="patch_6">
    <path d="M 198.45 747 
L 198.45 51.3 
" style="fill:none;stroke:#000000;stroke-linecap:square;stroke-linejoin:miter;"/>
   </g>
   <g id="matplotlib.axis_1">
    <g id="xtick_1">
     <g id="line2d_3">
      <defs>
       <path d="M 0 0 
L 0 -4 
" id="m72ea9c6b4a" style="stroke:#000000;stroke-width:0.5;"/>
      </defs>
      <g>
       <use style="stroke:#000000;stroke-width:0.5;" x="198.45" xlink:href="#m72ea9c6b4a" y="747.0"/>
      </g>
     </g>
     <g id="line2d_4">
      <defs>
       <path d="M 0 0 
L 0 4 
" id="md86bd4bc3e" style="stroke:#000000;stroke-width:0.5;"/>
      </defs>
      <g>
       <use style="stroke:#000000;stroke-width:0.5;" x="198.45" xlink:href="#md86bd4bc3e" y="51.3"/>
      </g>
     </g>
     <g id="text_1">
      <!-- 0 -->
      <defs>
       <path d="M 31.78125 66.40625 
Q 24.171875 66.40625 20.328125 58.90625 
Q 16.5 51.421875 16.5 36.375 
Q 16.5 21.390625 20.328125 13.890625 
Q 24.171875 6.390625 31.78125 6.390625 
Q 39.453125 6.390625 43.28125 13.890625 
Q 47.125 21.390625 47.125 36.375 
Q 47.125 51.421875 43.28125 58.90625 
Q 39.453125 66.40625 31.78125 66.40625 
M 31.78125 74.21875 
Q 44.046875 74.21875 50.515625 64.515625 
Q 56.984375 54.828125 56.984375 36.375 
Q 56.984375 17.96875 50.515625 8.265625 
Q 44.046875 -1.421875 31.78125 -1.421875 
Q 19.53125 -1.421875 13.0625 8.265625 
Q 6.59375 17.96875 6.59375 36.375 
Q 6.59375 54.828125 13.0625 64.515625 
Q 19.53125 74.21875 31.78125 74.21875 
" id="BitstreamVeraSans-Roman-30"/>
      </defs>
      <g transform="translate(188.90625 773.7953125)scale(0.3 -0.3)">
       <use xlink:href="#BitstreamVeraSans-Roman-30"/>
      </g>
     </g>
    </g>
    <g id="xtick_2">
     <g id="line2d_5">
      <g>
       <use style="stroke:#000000;stroke-width:0.5;" x="425.97" xlink:href="#m72ea9c6b4a" y="747.0"/>
      </g>
     </g>
     <g id="line2d_6">
      <g>
       <use style="stroke:#000000;stroke-width:0.5;" x="425.97" xlink:href="#md86bd4bc3e" y="51.3"/>
      </g>
     </g>
     <g id="text_2">
      <!-- 20000 -->
      <defs>
       <path d="M 19.1875 8.296875 
L 53.609375 8.296875 
L 53.609375 0 
L 7.328125 0 
L 7.328125 8.296875 
Q 12.9375 14.109375 22.625 23.890625 
Q 32.328125 33.6875 34.8125 36.53125 
Q 39.546875 41.84375 41.421875 45.53125 
Q 43.3125 49.21875 43.3125 52.78125 
Q 43.3125 58.59375 39.234375 62.25 
Q 35.15625 65.921875 28.609375 65.921875 
Q 23.96875 65.921875 18.8125 64.3125 
Q 13.671875 62.703125 7.8125 59.421875 
L 7.8125 69.390625 
Q 13.765625 71.78125 18.9375 73 
Q 24.125 74.21875 28.421875 74.21875 
Q 39.75 74.21875 46.484375 68.546875 
Q 53.21875 62.890625 53.21875 53.421875 
Q 53.21875 48.921875 51.53125 44.890625 
Q 49.859375 40.875 45.40625 35.40625 
Q 44.1875 33.984375 37.640625 27.21875 
Q 31.109375 20.453125 19.1875 8.296875 
" id="BitstreamVeraSans-Roman-32"/>
      </defs>
      <g transform="translate(378.25125 773.7953125)scale(0.3 -0.3)">
       <use xlink:href="#BitstreamVeraSans-Roman-32"/>
       <use x="63.623046875" xlink:href="#BitstreamVeraSans-Roman-30"/>
       <use x="127.24609375" xlink:href="#BitstreamVeraSans-Roman-30"/>
       <use x="190.869140625" xlink:href="#BitstreamVeraSans-Roman-30"/>
       <use x="254.4921875" xlink:href="#BitstreamVeraSans-Roman-30"/>
      </g>
     </g>
    </g>
    <g id="xtick_3">
     <g id="line2d_7">
      <g>
       <use style="stroke:#000000;stroke-width:0.5;" x="653.49" xlink:href="#m72ea9c6b4a" y="747.0"/>
      </g>
     </g>
     <g id="line2d_8">
      <g>
       <use style="stroke:#000000;stroke-width:0.5;" x="653.49" xlink:href="#md86bd4bc3e" y="51.3"/>
      </g>
     </g>
     <g id="text_3">
      <!-- 40000 -->
      <defs>
       <path d="M 37.796875 64.3125 
L 12.890625 25.390625 
L 37.796875 25.390625 
z
M 35.203125 72.90625 
L 47.609375 72.90625 
L 47.609375 25.390625 
L 58.015625 25.390625 
L 58.015625 17.1875 
L 47.609375 17.1875 
L 47.609375 0 
L 37.796875 0 
L 37.796875 17.1875 
L 4.890625 17.1875 
L 4.890625 26.703125 
z
" id="BitstreamVeraSans-Roman-34"/>
      </defs>
      <g transform="translate(605.77125 773.7953125)scale(0.3 -0.3)">
       <use xlink:href="#BitstreamVeraSans-Roman-34"/>
       <use x="63.623046875" xlink:href="#BitstreamVeraSans-Roman-30"/>
       <use x="127.24609375" xlink:href="#BitstreamVeraSans-Roman-30"/>
       <use x="190.869140625" xlink:href="#BitstreamVeraSans-Roman-30"/>
       <use x="254.4921875" xlink:href="#BitstreamVeraSans-Roman-30"/>
      </g>
     </g>
    </g>
    <g id="xtick_4">
     <g id="line2d_9">
      <g>
       <use style="stroke:#000000;stroke-width:0.5;" x="881.01" xlink:href="#m72ea9c6b4a" y="747.0"/>
      </g>
     </g>
     <g id="line2d_10">
      <g>
       <use style="stroke:#000000;stroke-width:0.5;" x="881.01" xlink:href="#md86bd4bc3e" y="51.3"/>
      </g>
     </g>
     <g id="text_4">
      <!-- 60000 -->
      <defs>
       <path d="M 33.015625 40.375 
Q 26.375 40.375 22.484375 35.828125 
Q 18.609375 31.296875 18.609375 23.390625 
Q 18.609375 15.53125 22.484375 10.953125 
Q 26.375 6.390625 33.015625 6.390625 
Q 39.65625 6.390625 43.53125 10.953125 
Q 47.40625 15.53125 47.40625 23.390625 
Q 47.40625 31.296875 43.53125 35.828125 
Q 39.65625 40.375 33.015625 40.375 
M 52.59375 71.296875 
L 52.59375 62.3125 
Q 48.875 64.0625 45.09375 64.984375 
Q 41.3125 65.921875 37.59375 65.921875 
Q 27.828125 65.921875 22.671875 59.328125 
Q 17.53125 52.734375 16.796875 39.40625 
Q 19.671875 43.65625 24.015625 45.921875 
Q 28.375 48.1875 33.59375 48.1875 
Q 44.578125 48.1875 50.953125 41.515625 
Q 57.328125 34.859375 57.328125 23.390625 
Q 57.328125 12.15625 50.6875 5.359375 
Q 44.046875 -1.421875 33.015625 -1.421875 
Q 20.359375 -1.421875 13.671875 8.265625 
Q 6.984375 17.96875 6.984375 36.375 
Q 6.984375 53.65625 15.1875 63.9375 
Q 23.390625 74.21875 37.203125 74.21875 
Q 40.921875 74.21875 44.703125 73.484375 
Q 48.484375 72.75 52.59375 71.296875 
" id="BitstreamVeraSans-Roman-36"/>
      </defs>
      <g transform="translate(833.29125 773.7953125)scale(0.3 -0.3)">
       <use xlink:href="#BitstreamVeraSans-Roman-36"/>
       <use x="63.623046875" xlink:href="#BitstreamVeraSans-Roman-30"/>
       <use x="127.24609375" xlink:href="#BitstreamVeraSans-Roman-30"/>
       <use x="190.869140625" xlink:href="#BitstreamVeraSans-Roman-30"/>
       <use x="254.4921875" xlink:href="#BitstreamVeraSans-Roman-30"/>
      </g>
     </g>
    </g>
    <g id="xtick_5">
     <g id="line2d_11">
      <g>
       <use style="stroke:#000000;stroke-width:0.5;" x="1108.53" xlink:href="#m72ea9c6b4a" y="747.0"/>
      </g>
     </g>
     <g id="line2d_12">
      <g>
       <use style="stroke:#000000;stroke-width:0.5;" x="1108.53" xlink:href="#md86bd4bc3e" y="51.3"/>
      </g>
     </g>
     <g id="text_5">
      <!-- 80000 -->
      <defs>
       <path d="M 31.78125 34.625 
Q 24.75 34.625 20.71875 30.859375 
Q 16.703125 27.09375 16.703125 20.515625 
Q 16.703125 13.921875 20.71875 10.15625 
Q 24.75 6.390625 31.78125 6.390625 
Q 38.8125 6.390625 42.859375 10.171875 
Q 46.921875 13.96875 46.921875 20.515625 
Q 46.921875 27.09375 42.890625 30.859375 
Q 38.875 34.625 31.78125 34.625 
M 21.921875 38.8125 
Q 15.578125 40.375 12.03125 44.71875 
Q 8.5 49.078125 8.5 55.328125 
Q 8.5 64.0625 14.71875 69.140625 
Q 20.953125 74.21875 31.78125 74.21875 
Q 42.671875 74.21875 48.875 69.140625 
Q 55.078125 64.0625 55.078125 55.328125 
Q 55.078125 49.078125 51.53125 44.71875 
Q 48 40.375 41.703125 38.8125 
Q 48.828125 37.15625 52.796875 32.3125 
Q 56.78125 27.484375 56.78125 20.515625 
Q 56.78125 9.90625 50.3125 4.234375 
Q 43.84375 -1.421875 31.78125 -1.421875 
Q 19.734375 -1.421875 13.25 4.234375 
Q 6.78125 9.90625 6.78125 20.515625 
Q 6.78125 27.484375 10.78125 32.3125 
Q 14.796875 37.15625 21.921875 38.8125 
M 18.3125 54.390625 
Q 18.3125 48.734375 21.84375 45.5625 
Q 25.390625 42.390625 31.78125 42.390625 
Q 38.140625 42.390625 41.71875 45.5625 
Q 45.3125 48.734375 45.3125 54.390625 
Q 45.3125 60.0625 41.71875 63.234375 
Q 38.140625 66.40625 31.78125 66.40625 
Q 25.390625 66.40625 21.84375 63.234375 
Q 18.3125 60.0625 18.3125 54.390625 
" id="BitstreamVeraSans-Roman-38"/>
      </defs>
      <g transform="translate(1060.81125 773.7953125)scale(0.3 -0.3)">
       <use xlink:href="#BitstreamVeraSans-Roman-38"/>
       <use x="63.623046875" xlink:href="#BitstreamVeraSans-Roman-30"/>
       <use x="127.24609375" xlink:href="#BitstreamVeraSans-Roman-30"/>
       <use x="190.869140625" xlink:href="#BitstreamVeraSans-Roman-30"/>
       <use x="254.4921875" xlink:href="#BitstreamVeraSans-Roman-30"/>
      </g>
     </g>
    </g>
    <g id="xtick_6">
     <g id="line2d_13">
      <g>
       <use style="stroke:#000000;stroke-width:0.5;" x="1336.05" xlink:href="#m72ea9c6b4a" y="747.0"/>
      </g>
     </g>
     <g id="line2d_14">
      <g>
       <use style="stroke:#000000;stroke-width:0.5;" x="1336.05" xlink:href="#md86bd4bc3e" y="51.3"/>
      </g>
     </g>
     <g id="text_6">
      <!-- 100000 -->
      <defs>
       <path d="M 12.40625 8.296875 
L 28.515625 8.296875 
L 28.515625 63.921875 
L 10.984375 60.40625 
L 10.984375 69.390625 
L 28.421875 72.90625 
L 38.28125 72.90625 
L 38.28125 8.296875 
L 54.390625 8.296875 
L 54.390625 0 
L 12.40625 0 
z
" id="BitstreamVeraSans-Roman-31"/>
      </defs>
      <g transform="translate(1278.7875 773.7953125)scale(0.3 -0.3)">
       <use xlink:href="#BitstreamVeraSans-Roman-31"/>
       <use x="63.623046875" xlink:href="#BitstreamVeraSans-Roman-30"/>
       <use x="127.24609375" xlink:href="#BitstreamVeraSans-Roman-30"/>
       <use x="190.869140625" xlink:href="#BitstreamVeraSans-Roman-30"/>
       <use x="254.4921875" xlink:href="#BitstreamVeraSans-Roman-30"/>
       <use x="318.115234375" xlink:href="#BitstreamVeraSans-Roman-30"/>
      </g>
     </g>
    </g>
    <g id="text_7">
     <!-- iterations -->
     <defs>
      <path d="M 54.890625 33.015625 
L 54.890625 0 
L 45.90625 0 
L 45.90625 32.71875 
Q 45.90625 40.484375 42.875 44.328125 
Q 39.84375 48.1875 33.796875 48.1875 
Q 26.515625 48.1875 22.3125 43.546875 
Q 18.109375 38.921875 18.109375 30.90625 
L 18.109375 0 
L 9.078125 0 
L 9.078125 54.6875 
L 18.109375 54.6875 
L 18.109375 46.1875 
Q 21.34375 51.125 25.703125 53.5625 
Q 30.078125 56 35.796875 56 
Q 45.21875 56 50.046875 50.171875 
Q 54.890625 44.34375 54.890625 33.015625 
" id="BitstreamVeraSans-Roman-6e"/>
      <path d="M 34.28125 27.484375 
Q 23.390625 27.484375 19.1875 25 
Q 14.984375 22.515625 14.984375 16.5 
Q 14.984375 11.71875 18.140625 8.90625 
Q 21.296875 6.109375 26.703125 6.109375 
Q 34.1875 6.109375 38.703125 11.40625 
Q 43.21875 16.703125 43.21875 25.484375 
L 43.21875 27.484375 
z
M 52.203125 31.203125 
L 52.203125 0 
L 43.21875 0 
L 43.21875 8.296875 
Q 40.140625 3.328125 35.546875 0.953125 
Q 30.953125 -1.421875 24.3125 -1.421875 
Q 15.921875 -1.421875 10.953125 3.296875 
Q 6 8.015625 6 15.921875 
Q 6 25.140625 12.171875 29.828125 
Q 18.359375 34.515625 30.609375 34.515625 
L 43.21875 34.515625 
L 43.21875 35.40625 
Q 43.21875 41.609375 39.140625 45 
Q 35.0625 48.390625 27.6875 48.390625 
Q 23 48.390625 18.546875 47.265625 
Q 14.109375 46.140625 10.015625 43.890625 
L 10.015625 52.203125 
Q 14.9375 54.109375 19.578125 55.046875 
Q 24.21875 56 28.609375 56 
Q 40.484375 56 46.34375 49.84375 
Q 52.203125 43.703125 52.203125 31.203125 
" id="BitstreamVeraSans-Roman-61"/>
      <path d="M 30.609375 48.390625 
Q 23.390625 48.390625 19.1875 42.75 
Q 14.984375 37.109375 14.984375 27.296875 
Q 14.984375 17.484375 19.15625 11.84375 
Q 23.34375 6.203125 30.609375 6.203125 
Q 37.796875 6.203125 41.984375 11.859375 
Q 46.1875 17.53125 46.1875 27.296875 
Q 46.1875 37.015625 41.984375 42.703125 
Q 37.796875 48.390625 30.609375 48.390625 
M 30.609375 56 
Q 42.328125 56 49.015625 48.375 
Q 55.71875 40.765625 55.71875 27.296875 
Q 55.71875 13.875 49.015625 6.21875 
Q 42.328125 -1.421875 30.609375 -1.421875 
Q 18.84375 -1.421875 12.171875 6.21875 
Q 5.515625 13.875 5.515625 27.296875 
Q 5.515625 40.765625 12.171875 48.375 
Q 18.84375 56 30.609375 56 
" id="BitstreamVeraSans-Roman-6f"/>
      <path d="M 9.421875 54.6875 
L 18.40625 54.6875 
L 18.40625 0 
L 9.421875 0 
z
M 9.421875 75.984375 
L 18.40625 75.984375 
L 18.40625 64.59375 
L 9.421875 64.59375 
z
" id="BitstreamVeraSans-Roman-69"/>
      <path d="M 56.203125 29.59375 
L 56.203125 25.203125 
L 14.890625 25.203125 
Q 15.484375 15.921875 20.484375 11.0625 
Q 25.484375 6.203125 34.421875 6.203125 
Q 39.59375 6.203125 44.453125 7.46875 
Q 49.3125 8.734375 54.109375 11.28125 
L 54.109375 2.78125 
Q 49.265625 0.734375 44.1875 -0.34375 
Q 39.109375 -1.421875 33.890625 -1.421875 
Q 20.796875 -1.421875 13.15625 6.1875 
Q 5.515625 13.8125 5.515625 26.8125 
Q 5.515625 40.234375 12.765625 48.109375 
Q 20.015625 56 32.328125 56 
Q 43.359375 56 49.78125 48.890625 
Q 56.203125 41.796875 56.203125 29.59375 
M 47.21875 32.234375 
Q 47.125 39.59375 43.09375 43.984375 
Q 39.0625 48.390625 32.421875 48.390625 
Q 24.90625 48.390625 20.390625 44.140625 
Q 15.875 39.890625 15.1875 32.171875 
z
" id="BitstreamVeraSans-Roman-65"/>
      <path d="M 18.3125 70.21875 
L 18.3125 54.6875 
L 36.8125 54.6875 
L 36.8125 47.703125 
L 18.3125 47.703125 
L 18.3125 18.015625 
Q 18.3125 11.328125 20.140625 9.421875 
Q 21.96875 7.515625 27.59375 7.515625 
L 36.8125 7.515625 
L 36.8125 0 
L 27.59375 0 
Q 17.1875 0 13.234375 3.875 
Q 9.28125 7.765625 9.28125 18.015625 
L 9.28125 47.703125 
L 2.6875 47.703125 
L 2.6875 54.6875 
L 9.28125 54.6875 
L 9.28125 70.21875 
z
" id="BitstreamVeraSans-Roman-74"/>
      <path d="M 41.109375 46.296875 
Q 39.59375 47.171875 37.8125 47.578125 
Q 36.03125 48 33.890625 48 
Q 26.265625 48 22.1875 43.046875 
Q 18.109375 38.09375 18.109375 28.8125 
L 18.109375 0 
L 9.078125 0 
L 9.078125 54.6875 
L 18.109375 54.6875 
L 18.109375 46.1875 
Q 20.953125 51.171875 25.484375 53.578125 
Q 30.03125 56 36.53125 56 
Q 37.453125 56 38.578125 55.875 
Q 39.703125 55.765625 41.0625 55.515625 
z
" id="BitstreamVeraSans-Roman-72"/>
      <path d="M 44.28125 53.078125 
L 44.28125 44.578125 
Q 40.484375 46.53125 36.375 47.5 
Q 32.28125 48.484375 27.875 48.484375 
Q 21.1875 48.484375 17.84375 46.4375 
Q 14.5 44.390625 14.5 40.28125 
Q 14.5 37.15625 16.890625 35.375 
Q 19.28125 33.59375 26.515625 31.984375 
L 29.59375 31.296875 
Q 39.15625 29.25 43.1875 25.515625 
Q 47.21875 21.78125 47.21875 15.09375 
Q 47.21875 7.46875 41.1875 3.015625 
Q 35.15625 -1.421875 24.609375 -1.421875 
Q 20.21875 -1.421875 15.453125 -0.5625 
Q 10.6875 0.296875 5.421875 2 
L 5.421875 11.28125 
Q 10.40625 8.6875 15.234375 7.390625 
Q 20.0625 6.109375 24.8125 6.109375 
Q 31.15625 6.109375 34.5625 8.28125 
Q 37.984375 10.453125 37.984375 14.40625 
Q 37.984375 18.0625 35.515625 20.015625 
Q 33.0625 21.96875 24.703125 23.78125 
L 21.578125 24.515625 
Q 13.234375 26.265625 9.515625 29.90625 
Q 5.8125 33.546875 5.8125 39.890625 
Q 5.8125 47.609375 11.28125 51.796875 
Q 16.75 56 26.8125 56 
Q 31.78125 56 36.171875 55.265625 
Q 40.578125 54.546875 44.28125 53.078125 
" id="BitstreamVeraSans-Roman-73"/>
     </defs>
     <g transform="translate(696.06796875 807.8296875)scale(0.3 -0.3)">
      <use xlink:href="#BitstreamVeraSans-Roman-69"/>
      <use x="27.783203125" xlink:href="#BitstreamVeraSans-Roman-74"/>
      <use x="66.9921875" xlink:href="#BitstreamVeraSans-Roman-65"/>
      <use x="128.515625" xlink:href="#BitstreamVeraSans-Roman-72"/>
      <use x="169.62890625" xlink:href="#BitstreamVeraSans-Roman-61"/>
      <use x="230.908203125" xlink:href="#BitstreamVeraSans-Roman-74"/>
      <use x="270.1171875" xlink:href="#BitstreamVeraSans-Roman-69"/>
      <use x="297.900390625" xlink:href="#BitstreamVeraSans-Roman-6f"/>
      <use x="359.08203125" xlink:href="#BitstreamVeraSans-Roman-6e"/>
      <use x="422.4609375" xlink:href="#BitstreamVeraSans-Roman-73"/>
     </g>
    </g>
   </g>
   <g id="matplotlib.axis_2">
    <g id="ytick_1">
     <g id="line2d_15">
      <defs>
       <path d="M 0 0 
L 4 0 
" id="m07e6cbbc3e" style="stroke:#000000;stroke-width:0.5;"/>
      </defs>
      <g>
       <use style="stroke:#000000;stroke-width:0.5;" x="198.45" xlink:href="#m07e6cbbc3e" y="747.0"/>
      </g>
     </g>
     <g id="line2d_16">
      <defs>
       <path d="M 0 0 
L -4 0 
" id="m8785d530d6" style="stroke:#000000;stroke-width:0.5;"/>
      </defs>
      <g>
       <use style="stroke:#000000;stroke-width:0.5;" x="1336.05" xlink:href="#m8785d530d6" y="747.0"/>
      </g>
     </g>
     <g id="text_8">
      <!-- 0 -->
      <g transform="translate(175.3625 755.278125)scale(0.3 -0.3)">
       <use xlink:href="#BitstreamVeraSans-Roman-30"/>
      </g>
     </g>
    </g>
    <g id="ytick_2">
     <g id="line2d_17">
      <g>
       <use style="stroke:#000000;stroke-width:0.5;" x="198.45" xlink:href="#m07e6cbbc3e" y="660.0375"/>
      </g>
     </g>
     <g id="line2d_18">
      <g>
       <use style="stroke:#000000;stroke-width:0.5;" x="1336.05" xlink:href="#m8785d530d6" y="660.0375"/>
      </g>
     </g>
     <g id="text_9">
      <!-- 2000 -->
      <g transform="translate(118.1 668.315625)scale(0.3 -0.3)">
       <use xlink:href="#BitstreamVeraSans-Roman-32"/>
       <use x="63.623046875" xlink:href="#BitstreamVeraSans-Roman-30"/>
       <use x="127.24609375" xlink:href="#BitstreamVeraSans-Roman-30"/>
       <use x="190.869140625" xlink:href="#BitstreamVeraSans-Roman-30"/>
      </g>
     </g>
    </g>
    <g id="ytick_3">
     <g id="line2d_19">
      <g>
       <use style="stroke:#000000;stroke-width:0.5;" x="198.45" xlink:href="#m07e6cbbc3e" y="573.075"/>
      </g>
     </g>
     <g id="line2d_20">
      <g>
       <use style="stroke:#000000;stroke-width:0.5;" x="1336.05" xlink:href="#m8785d530d6" y="573.075"/>
      </g>
     </g>
     <g id="text_10">
      <!-- 4000 -->
      <g transform="translate(118.1 581.353125)scale(0.3 -0.3)">
       <use xlink:href="#BitstreamVeraSans-Roman-34"/>
       <use x="63.623046875" xlink:href="#BitstreamVeraSans-Roman-30"/>
       <use x="127.24609375" xlink:href="#BitstreamVeraSans-Roman-30"/>
       <use x="190.869140625" xlink:href="#BitstreamVeraSans-Roman-30"/>
      </g>
     </g>
    </g>
    <g id="ytick_4">
     <g id="line2d_21">
      <g>
       <use style="stroke:#000000;stroke-width:0.5;" x="198.45" xlink:href="#m07e6cbbc3e" y="486.1125"/>
      </g>
     </g>
     <g id="line2d_22">
      <g>
       <use style="stroke:#000000;stroke-width:0.5;" x="1336.05" xlink:href="#m8785d530d6" y="486.1125"/>
      </g>
     </g>
     <g id="text_11">
      <!-- 6000 -->
      <g transform="translate(118.1 494.390625)scale(0.3 -0.3)">
       <use xlink:href="#BitstreamVeraSans-Roman-36"/>
       <use x="63.623046875" xlink:href="#BitstreamVeraSans-Roman-30"/>
       <use x="127.24609375" xlink:href="#BitstreamVeraSans-Roman-30"/>
       <use x="190.869140625" xlink:href="#BitstreamVeraSans-Roman-30"/>
      </g>
     </g>
    </g>
    <g id="ytick_5">
     <g id="line2d_23">
      <g>
       <use style="stroke:#000000;stroke-width:0.5;" x="198.45" xlink:href="#m07e6cbbc3e" y="399.15"/>
      </g>
     </g>
     <g id="line2d_24">
      <g>
       <use style="stroke:#000000;stroke-width:0.5;" x="1336.05" xlink:href="#m8785d530d6" y="399.15"/>
      </g>
     </g>
     <g id="text_12">
      <!-- 8000 -->
      <g transform="translate(118.1 407.428125)scale(0.3 -0.3)">
       <use xlink:href="#BitstreamVeraSans-Roman-38"/>
       <use x="63.623046875" xlink:href="#BitstreamVeraSans-Roman-30"/>
       <use x="127.24609375" xlink:href="#BitstreamVeraSans-Roman-30"/>
       <use x="190.869140625" xlink:href="#BitstreamVeraSans-Roman-30"/>
      </g>
     </g>
    </g>
    <g id="ytick_6">
     <g id="line2d_25">
      <g>
       <use style="stroke:#000000;stroke-width:0.5;" x="198.45" xlink:href="#m07e6cbbc3e" y="312.1875"/>
      </g>
     </g>
     <g id="line2d_26">
      <g>
       <use style="stroke:#000000;stroke-width:0.5;" x="1336.05" xlink:href="#m8785d530d6" y="312.1875"/>
      </g>
     </g>
     <g id="text_13">
      <!-- 10000 -->
      <g transform="translate(99.0125 320.465625)scale(0.3 -0.3)">
       <use xlink:href="#BitstreamVeraSans-Roman-31"/>
       <use x="63.623046875" xlink:href="#BitstreamVeraSans-Roman-30"/>
       <use x="127.24609375" xlink:href="#BitstreamVeraSans-Roman-30"/>
       <use x="190.869140625" xlink:href="#BitstreamVeraSans-Roman-30"/>
       <use x="254.4921875" xlink:href="#BitstreamVeraSans-Roman-30"/>
      </g>
     </g>
    </g>
    <g id="ytick_7">
     <g id="line2d_27">
      <g>
       <use style="stroke:#000000;stroke-width:0.5;" x="198.45" xlink:href="#m07e6cbbc3e" y="225.225"/>
      </g>
     </g>
     <g id="line2d_28">
      <g>
       <use style="stroke:#000000;stroke-width:0.5;" x="1336.05" xlink:href="#m8785d530d6" y="225.225"/>
      </g>
     </g>
     <g id="text_14">
      <!-- 12000 -->
      <g transform="translate(99.0125 233.503125)scale(0.3 -0.3)">
       <use xlink:href="#BitstreamVeraSans-Roman-31"/>
       <use x="63.623046875" xlink:href="#BitstreamVeraSans-Roman-32"/>
       <use x="127.24609375" xlink:href="#BitstreamVeraSans-Roman-30"/>
       <use x="190.869140625" xlink:href="#BitstreamVeraSans-Roman-30"/>
       <use x="254.4921875" xlink:href="#BitstreamVeraSans-Roman-30"/>
      </g>
     </g>
    </g>
    <g id="ytick_8">
     <g id="line2d_29">
      <g>
       <use style="stroke:#000000;stroke-width:0.5;" x="198.45" xlink:href="#m07e6cbbc3e" y="138.2625"/>
      </g>
     </g>
     <g id="line2d_30">
      <g>
       <use style="stroke:#000000;stroke-width:0.5;" x="1336.05" xlink:href="#m8785d530d6" y="138.2625"/>
      </g>
     </g>
     <g id="text_15">
      <!-- 14000 -->
      <g transform="translate(99.0125 146.540625)scale(0.3 -0.3)">
       <use xlink:href="#BitstreamVeraSans-Roman-31"/>
       <use x="63.623046875" xlink:href="#BitstreamVeraSans-Roman-34"/>
       <use x="127.24609375" xlink:href="#BitstreamVeraSans-Roman-30"/>
       <use x="190.869140625" xlink:href="#BitstreamVeraSans-Roman-30"/>
       <use x="254.4921875" xlink:href="#BitstreamVeraSans-Roman-30"/>
      </g>
     </g>
    </g>
    <g id="ytick_9">
     <g id="line2d_31">
      <g>
       <use style="stroke:#000000;stroke-width:0.5;" x="198.45" xlink:href="#m07e6cbbc3e" y="51.3"/>
      </g>
     </g>
     <g id="line2d_32">
      <g>
       <use style="stroke:#000000;stroke-width:0.5;" x="1336.05" xlink:href="#m8785d530d6" y="51.3"/>
      </g>
     </g>
     <g id="text_16">
      <!-- 16000 -->
      <g transform="translate(99.0125 59.578125)scale(0.3 -0.3)">
       <use xlink:href="#BitstreamVeraSans-Roman-31"/>
       <use x="63.623046875" xlink:href="#BitstreamVeraSans-Roman-36"/>
       <use x="127.24609375" xlink:href="#BitstreamVeraSans-Roman-30"/>
       <use x="190.869140625" xlink:href="#BitstreamVeraSans-Roman-30"/>
       <use x="254.4921875" xlink:href="#BitstreamVeraSans-Roman-30"/>
      </g>
     </g>
    </g>
    <g id="text_17">
     <!-- log(loss) -->
     <defs>
      <path d="M 8.015625 75.875 
L 15.828125 75.875 
Q 23.140625 64.359375 26.78125 53.3125 
Q 30.421875 42.28125 30.421875 31.390625 
Q 30.421875 20.453125 26.78125 9.375 
Q 23.140625 -1.703125 15.828125 -13.1875 
L 8.015625 -13.1875 
Q 14.5 -2 17.703125 9.0625 
Q 20.90625 20.125 20.90625 31.390625 
Q 20.90625 42.671875 17.703125 53.65625 
Q 14.5 64.65625 8.015625 75.875 
" id="BitstreamVeraSans-Roman-29"/>
      <path d="M 31 75.875 
Q 24.46875 64.65625 21.28125 53.65625 
Q 18.109375 42.671875 18.109375 31.390625 
Q 18.109375 20.125 21.3125 9.0625 
Q 24.515625 -2 31 -13.1875 
L 23.1875 -13.1875 
Q 15.875 -1.703125 12.234375 9.375 
Q 8.59375 20.453125 8.59375 31.390625 
Q 8.59375 42.28125 12.203125 53.3125 
Q 15.828125 64.359375 23.1875 75.875 
z
" id="BitstreamVeraSans-Roman-28"/>
      <path d="M 45.40625 27.984375 
Q 45.40625 37.75 41.375 43.109375 
Q 37.359375 48.484375 30.078125 48.484375 
Q 22.859375 48.484375 18.828125 43.109375 
Q 14.796875 37.75 14.796875 27.984375 
Q 14.796875 18.265625 18.828125 12.890625 
Q 22.859375 7.515625 30.078125 7.515625 
Q 37.359375 7.515625 41.375 12.890625 
Q 45.40625 18.265625 45.40625 27.984375 
M 54.390625 6.78125 
Q 54.390625 -7.171875 48.1875 -13.984375 
Q 42 -20.796875 29.203125 -20.796875 
Q 24.46875 -20.796875 20.265625 -20.09375 
Q 16.0625 -19.390625 12.109375 -17.921875 
L 12.109375 -9.1875 
Q 16.0625 -11.328125 19.921875 -12.34375 
Q 23.78125 -13.375 27.78125 -13.375 
Q 36.625 -13.375 41.015625 -8.765625 
Q 45.40625 -4.15625 45.40625 5.171875 
L 45.40625 9.625 
Q 42.625 4.78125 38.28125 2.390625 
Q 33.9375 0 27.875 0 
Q 17.828125 0 11.671875 7.65625 
Q 5.515625 15.328125 5.515625 27.984375 
Q 5.515625 40.671875 11.671875 48.328125 
Q 17.828125 56 27.875 56 
Q 33.9375 56 38.28125 53.609375 
Q 42.625 51.21875 45.40625 46.390625 
L 45.40625 54.6875 
L 54.390625 54.6875 
z
" id="BitstreamVeraSans-Roman-67"/>
      <path d="M 9.421875 75.984375 
L 18.40625 75.984375 
L 18.40625 0 
L 9.421875 0 
z
" id="BitstreamVeraSans-Roman-6c"/>
     </defs>
     <g transform="translate(87.7734375 462.69609375)rotate(-90.0)scale(0.3 -0.3)">
      <use xlink:href="#BitstreamVeraSans-Roman-6c"/>
      <use x="27.783203125" xlink:href="#BitstreamVeraSans-Roman-6f"/>
      <use x="88.96484375" xlink:href="#BitstreamVeraSans-Roman-67"/>
      <use x="152.44140625" xlink:href="#BitstreamVeraSans-Roman-28"/>
      <use x="191.455078125" xlink:href="#BitstreamVeraSans-Roman-6c"/>
      <use x="219.23828125" xlink:href="#BitstreamVeraSans-Roman-6f"/>
      <use x="280.419921875" xlink:href="#BitstreamVeraSans-Roman-73"/>
      <use x="332.51953125" xlink:href="#BitstreamVeraSans-Roman-73"/>
      <use x="384.619140625" xlink:href="#BitstreamVeraSans-Roman-29"/>
     </g>
    </g>
   </g>
   <g id="legend_1">
    <g id="patch_7">
     <path d="M 843.876562 163.36875 
L 1321.05 163.36875 
L 1321.05 66.3 
L 843.876562 66.3 
z
" style="fill:#ffffff;stroke:#000000;stroke-linejoin:miter;"/>
    </g>
    <g id="line2d_33">
     <path d="M 864.876562 90.595312 
L 906.876562 90.595312 
" style="fill:none;stroke:#0000ff;stroke-linecap:square;stroke-width:2.0;"/>
    </g>
    <g id="line2d_34"/>
    <g id="text_18">
     <!-- random: step=0.081250 -->
     <defs>
      <path id="BitstreamVeraSans-Roman-20"/>
      <path d="M 10.796875 72.90625 
L 49.515625 72.90625 
L 49.515625 64.59375 
L 19.828125 64.59375 
L 19.828125 46.734375 
Q 21.96875 47.46875 24.109375 47.828125 
Q 26.265625 48.1875 28.421875 48.1875 
Q 40.625 48.1875 47.75 41.5 
Q 54.890625 34.8125 54.890625 23.390625 
Q 54.890625 11.625 47.5625 5.09375 
Q 40.234375 -1.421875 26.90625 -1.421875 
Q 22.3125 -1.421875 17.546875 -0.640625 
Q 12.796875 0.140625 7.71875 1.703125 
L 7.71875 11.625 
Q 12.109375 9.234375 16.796875 8.0625 
Q 21.484375 6.890625 26.703125 6.890625 
Q 35.15625 6.890625 40.078125 11.328125 
Q 45.015625 15.765625 45.015625 23.390625 
Q 45.015625 31 40.078125 35.4375 
Q 35.15625 39.890625 26.703125 39.890625 
Q 22.75 39.890625 18.8125 39.015625 
Q 14.890625 38.140625 10.796875 36.28125 
z
" id="BitstreamVeraSans-Roman-35"/>
      <path d="M 52 44.1875 
Q 55.375 50.25 60.0625 53.125 
Q 64.75 56 71.09375 56 
Q 79.640625 56 84.28125 50.015625 
Q 88.921875 44.046875 88.921875 33.015625 
L 88.921875 0 
L 79.890625 0 
L 79.890625 32.71875 
Q 79.890625 40.578125 77.09375 44.375 
Q 74.3125 48.1875 68.609375 48.1875 
Q 61.625 48.1875 57.5625 43.546875 
Q 53.515625 38.921875 53.515625 30.90625 
L 53.515625 0 
L 44.484375 0 
L 44.484375 32.71875 
Q 44.484375 40.625 41.703125 44.40625 
Q 38.921875 48.1875 33.109375 48.1875 
Q 26.21875 48.1875 22.15625 43.53125 
Q 18.109375 38.875 18.109375 30.90625 
L 18.109375 0 
L 9.078125 0 
L 9.078125 54.6875 
L 18.109375 54.6875 
L 18.109375 46.1875 
Q 21.1875 51.21875 25.484375 53.609375 
Q 29.78125 56 35.6875 56 
Q 41.65625 56 45.828125 52.96875 
Q 50 49.953125 52 44.1875 
" id="BitstreamVeraSans-Roman-6d"/>
      <path d="M 11.71875 12.40625 
L 22.015625 12.40625 
L 22.015625 0 
L 11.71875 0 
z
M 11.71875 51.703125 
L 22.015625 51.703125 
L 22.015625 39.3125 
L 11.71875 39.3125 
z
" id="BitstreamVeraSans-Roman-3a"/>
      <path d="M 10.6875 12.40625 
L 21 12.40625 
L 21 0 
L 10.6875 0 
z
" id="BitstreamVeraSans-Roman-2e"/>
      <path d="M 10.59375 45.40625 
L 73.1875 45.40625 
L 73.1875 37.203125 
L 10.59375 37.203125 
z
M 10.59375 25.484375 
L 73.1875 25.484375 
L 73.1875 17.1875 
L 10.59375 17.1875 
z
" id="BitstreamVeraSans-Roman-3d"/>
      <path d="M 45.40625 46.390625 
L 45.40625 75.984375 
L 54.390625 75.984375 
L 54.390625 0 
L 45.40625 0 
L 45.40625 8.203125 
Q 42.578125 3.328125 38.25 0.953125 
Q 33.9375 -1.421875 27.875 -1.421875 
Q 17.96875 -1.421875 11.734375 6.484375 
Q 5.515625 14.40625 5.515625 27.296875 
Q 5.515625 40.1875 11.734375 48.09375 
Q 17.96875 56 27.875 56 
Q 33.9375 56 38.25 53.625 
Q 42.578125 51.265625 45.40625 46.390625 
M 14.796875 27.296875 
Q 14.796875 17.390625 18.875 11.75 
Q 22.953125 6.109375 30.078125 6.109375 
Q 37.203125 6.109375 41.296875 11.75 
Q 45.40625 17.390625 45.40625 27.296875 
Q 45.40625 37.203125 41.296875 42.84375 
Q 37.203125 48.484375 30.078125 48.484375 
Q 22.953125 48.484375 18.875 42.84375 
Q 14.796875 37.203125 14.796875 27.296875 
" id="BitstreamVeraSans-Roman-64"/>
      <path d="M 18.109375 8.203125 
L 18.109375 -20.796875 
L 9.078125 -20.796875 
L 9.078125 54.6875 
L 18.109375 54.6875 
L 18.109375 46.390625 
Q 20.953125 51.265625 25.265625 53.625 
Q 29.59375 56 35.59375 56 
Q 45.5625 56 51.78125 48.09375 
Q 58.015625 40.1875 58.015625 27.296875 
Q 58.015625 14.40625 51.78125 6.484375 
Q 45.5625 -1.421875 35.59375 -1.421875 
Q 29.59375 -1.421875 25.265625 0.953125 
Q 20.953125 3.328125 18.109375 8.203125 
M 48.6875 27.296875 
Q 48.6875 37.203125 44.609375 42.84375 
Q 40.53125 48.484375 33.40625 48.484375 
Q 26.265625 48.484375 22.1875 42.84375 
Q 18.109375 37.203125 18.109375 27.296875 
Q 18.109375 17.390625 22.1875 11.75 
Q 26.265625 6.109375 33.40625 6.109375 
Q 40.53125 6.109375 44.609375 11.75 
Q 48.6875 17.390625 48.6875 27.296875 
" id="BitstreamVeraSans-Roman-70"/>
     </defs>
     <g transform="translate(939.8765625 101.0953125)scale(0.3 -0.3)">
      <use xlink:href="#BitstreamVeraSans-Roman-72"/>
      <use x="41.11328125" xlink:href="#BitstreamVeraSans-Roman-61"/>
      <use x="102.392578125" xlink:href="#BitstreamVeraSans-Roman-6e"/>
      <use x="165.771484375" xlink:href="#BitstreamVeraSans-Roman-64"/>
      <use x="229.248046875" xlink:href="#BitstreamVeraSans-Roman-6f"/>
      <use x="290.4296875" xlink:href="#BitstreamVeraSans-Roman-6d"/>
      <use x="387.841796875" xlink:href="#BitstreamVeraSans-Roman-3a"/>
      <use x="421.533203125" xlink:href="#BitstreamVeraSans-Roman-20"/>
      <use x="453.3203125" xlink:href="#BitstreamVeraSans-Roman-73"/>
      <use x="505.419921875" xlink:href="#BitstreamVeraSans-Roman-74"/>
      <use x="544.62890625" xlink:href="#BitstreamVeraSans-Roman-65"/>
      <use x="606.15234375" xlink:href="#BitstreamVeraSans-Roman-70"/>
      <use x="669.62890625" xlink:href="#BitstreamVeraSans-Roman-3d"/>
      <use x="753.41796875" xlink:href="#BitstreamVeraSans-Roman-30"/>
      <use x="817.041015625" xlink:href="#BitstreamVeraSans-Roman-2e"/>
      <use x="848.828125" xlink:href="#BitstreamVeraSans-Roman-30"/>
      <use x="912.451171875" xlink:href="#BitstreamVeraSans-Roman-38"/>
      <use x="976.07421875" xlink:href="#BitstreamVeraSans-Roman-31"/>
      <use x="1039.69726562" xlink:href="#BitstreamVeraSans-Roman-32"/>
      <use x="1103.3203125" xlink:href="#BitstreamVeraSans-Roman-35"/>
      <use x="1166.94335938" xlink:href="#BitstreamVeraSans-Roman-30"/>
     </g>
    </g>
    <g id="line2d_35">
     <path d="M 864.876562 134.629687 
L 906.876562 134.629687 
" style="fill:none;stroke:#008000;stroke-dasharray:6.000000,6.000000;stroke-dashoffset:0.0;stroke-width:2.0;"/>
    </g>
    <g id="line2d_36"/>
    <g id="text_19">
     <!-- corr: step=0.081250 -->
     <defs>
      <path d="M 48.78125 52.59375 
L 48.78125 44.1875 
Q 44.96875 46.296875 41.140625 47.34375 
Q 37.3125 48.390625 33.40625 48.390625 
Q 24.65625 48.390625 19.8125 42.84375 
Q 14.984375 37.3125 14.984375 27.296875 
Q 14.984375 17.28125 19.8125 11.734375 
Q 24.65625 6.203125 33.40625 6.203125 
Q 37.3125 6.203125 41.140625 7.25 
Q 44.96875 8.296875 48.78125 10.40625 
L 48.78125 2.09375 
Q 45.015625 0.34375 40.984375 -0.53125 
Q 36.96875 -1.421875 32.421875 -1.421875 
Q 20.0625 -1.421875 12.78125 6.34375 
Q 5.515625 14.109375 5.515625 27.296875 
Q 5.515625 40.671875 12.859375 48.328125 
Q 20.21875 56 33.015625 56 
Q 37.15625 56 41.109375 55.140625 
Q 45.0625 54.296875 48.78125 52.59375 
" id="BitstreamVeraSans-Roman-63"/>
     </defs>
     <g transform="translate(939.8765625 145.1296875)scale(0.3 -0.3)">
      <use xlink:href="#BitstreamVeraSans-Roman-63"/>
      <use x="54.98046875" xlink:href="#BitstreamVeraSans-Roman-6f"/>
      <use x="116.162109375" xlink:href="#BitstreamVeraSans-Roman-72"/>
      <use x="157.259765625" xlink:href="#BitstreamVeraSans-Roman-72"/>
      <use x="198.357421875" xlink:href="#BitstreamVeraSans-Roman-3a"/>
      <use x="232.048828125" xlink:href="#BitstreamVeraSans-Roman-20"/>
      <use x="263.8359375" xlink:href="#BitstreamVeraSans-Roman-73"/>
      <use x="315.935546875" xlink:href="#BitstreamVeraSans-Roman-74"/>
      <use x="355.14453125" xlink:href="#BitstreamVeraSans-Roman-65"/>
      <use x="416.66796875" xlink:href="#BitstreamVeraSans-Roman-70"/>
      <use x="480.14453125" xlink:href="#BitstreamVeraSans-Roman-3d"/>
      <use x="563.93359375" xlink:href="#BitstreamVeraSans-Roman-30"/>
      <use x="627.556640625" xlink:href="#BitstreamVeraSans-Roman-2e"/>
      <use x="659.34375" xlink:href="#BitstreamVeraSans-Roman-30"/>
      <use x="722.966796875" xlink:href="#BitstreamVeraSans-Roman-38"/>
      <use x="786.58984375" xlink:href="#BitstreamVeraSans-Roman-31"/>
      <use x="850.212890625" xlink:href="#BitstreamVeraSans-Roman-32"/>
      <use x="913.8359375" xlink:href="#BitstreamVeraSans-Roman-35"/>
      <use x="977.458984375" xlink:href="#BitstreamVeraSans-Roman-30"/>
     </g>
    </g>
   </g>
  </g>
 </g>
 <defs>
  <clipPath id="pa52e0880fb">
   <rect height="695.7" width="1137.6" x="198.45" y="51.3"/>
  </clipPath>
 </defs>
</svg>
