<?xml version="1.0" encoding="utf-8" standalone="no"?>
<!DOCTYPE svg PUBLIC "-//W3C//DTD SVG 1.1//EN"
  "http://www.w3.org/Graphics/SVG/1.1/DTD/svg11.dtd">
<!-- Created with matplotlib (http://matplotlib.org/) -->
<svg height="864pt" version="1.1" viewBox="0 0 1440 864" width="1440pt" xmlns="http://www.w3.org/2000/svg" xmlns:xlink="http://www.w3.org/1999/xlink">
 <defs>
  <style type="text/css">
*{stroke-linecap:butt;stroke-linejoin:round;stroke-miterlimit:100000;}
  </style>
 </defs>
 <g id="figure_1">
  <g id="patch_1">
   <path d="M 0 864 
L 1440 864 
L 1440 0 
L 0 0 
z
" style="fill:#ffffff;"/>
  </g>
  <g id="axes_1">
   <g id="patch_2">
    <path d="M 158.4 747 
L 1336.05 747 
L 1336.05 51.3 
L 158.4 51.3 
z
" style="fill:#ffffff;"/>
   </g>
   <g id="line2d_1">
    <path clip-path="url(#p8af6690794)" d="M 159.57765 52.824013 
L 160.7553 58.650387 
L 161.93295 64.050256 
L 165.4659 76.027296 
L 166.64355 79.038978 
L 168.99885 87.139071 
L 170.1765 89.762148 
L 171.35415 94.599942 
L 172.5318 94.599942 
L 173.70945 99.903212 
L 174.8871 113.718532 
L 176.06475 121.180854 
L 177.2424 121.180854 
L 178.42005 127.206057 
L 179.5977 127.213359 
L 180.77535 139.621394 
L 181.953 139.618557 
L 183.13065 147.827792 
L 184.3083 153.766801 
L 185.48595 158.269232 
L 186.6636 167.176842 
L 187.84125 167.178604 
L 189.0189 176.906673 
L 190.19655 182.728894 
L 191.3742 189.607468 
L 192.55185 189.607468 
L 193.7295 190.39818 
L 194.90715 198.361534 
L 196.0848 203.191925 
L 197.26245 204.317774 
L 199.61775 222.644355 
L 200.7954 233.604407 
L 203.1507 233.604407 
L 204.32835 243.790964 
L 206.68365 243.790964 
L 207.8613 253.044382 
L 209.03895 261.242057 
L 210.2166 261.243552 
L 211.39425 269.190069 
L 212.5719 274.872554 
L 213.74955 274.872554 
L 214.9272 275.358975 
L 217.2825 290.714606 
L 218.46015 290.71507 
L 219.6378 303.151774 
L 220.81545 303.075819 
L 221.9931 312.266675 
L 223.17075 318.098206 
L 224.3484 326.120645 
L 225.52605 326.718719 
L 226.7037 336.120154 
L 227.88135 340.595668 
L 229.059 348.366959 
L 230.23665 354.724359 
L 231.4143 365.475266 
L 232.59195 379.500319 
L 233.7696 379.507158 
L 236.1249 394.635401 
L 237.30255 402.609099 
L 238.4802 408.012919 
L 239.65785 408.012914 
L 240.8355 417.217306 
L 242.01315 417.220475 
L 243.1908 428.078984 
L 244.36845 433.9929 
L 245.5461 438.051143 
L 246.72375 443.177836 
L 247.9014 449.163123 
L 249.07905 456.681465 
L 250.2567 456.680632 
L 251.43435 464.283602 
L 253.78965 464.283602 
L 254.9673 475.925626 
L 256.14495 484.26793 
L 257.3226 494.721696 
L 258.50025 500.503919 
L 259.6779 508.27891 
L 260.85555 514.637852 
L 262.0332 515.287649 
L 263.21085 515.288353 
L 264.3885 531.00416 
L 265.56615 536.960708 
L 266.7438 536.960708 
L 267.92145 540.525191 
L 270.27675 560.639151 
L 271.4544 572.094313 
L 272.63205 572.562972 
L 274.98735 586.191868 
L 276.165 586.205694 
L 278.5203 597.551092 
L 279.69795 597.557595 
L 280.8756 600.894798 
L 282.05325 610.363063 
L 283.2309 610.364334 
L 284.40855 612.847934 
L 285.5862 619.3816 
L 286.76385 619.357014 
L 287.9415 623.055808 
L 289.11915 633.136671 
L 292.6521 647.631238 
L 293.82975 647.631238 
L 295.0074 651.94706 
L 296.18505 651.953953 
L 297.3627 652.108886 
L 298.54035 655.464964 
L 299.718 657.203458 
L 300.89565 657.203458 
L 302.0733 658.086585 
L 304.4286 658.086585 
L 305.60625 656.955142 
L 306.7839 658.770887 
L 307.96155 658.984122 
L 310.31685 658.984122 
L 311.4945 659.370252 
L 312.67215 659.38623 
L 315.02745 660.693461 
L 316.2051 660.377773 
L 317.38275 660.371257 
L 318.5604 659.621694 
L 319.73805 658.642293 
L 322.09335 658.718598 
L 323.271 658.168546 
L 325.6263 658.18976 
L 326.80395 658.919989 
L 327.9816 658.564212 
L 329.15925 658.6654 
L 330.3369 659.204411 
L 332.6922 659.192529 
L 333.86985 658.942673 
L 335.0475 659.076262 
L 336.22515 659.450701 
L 337.4028 659.389449 
L 338.58045 659.142736 
L 340.93575 659.142736 
L 342.1134 657.990551 
L 343.29105 658.002496 
L 344.4687 656.904747 
L 346.824 656.904747 
L 348.00165 657.150197 
L 350.35695 657.158388 
L 351.5346 657.51307 
L 352.71225 657.313429 
L 355.06755 657.354949 
L 356.2452 659.477267 
L 357.42285 659.477267 
L 358.6005 659.837197 
L 359.77815 659.849772 
L 362.13345 658.248878 
L 364.48875 659.850318 
L 365.6664 659.850318 
L 366.84405 660.859656 
L 368.0217 660.856804 
L 369.19935 660.511071 
L 370.377 660.512312 
L 371.55465 659.598688 
L 372.7323 657.472454 
L 373.90995 657.492308 
L 375.0876 658.517057 
L 376.26525 658.549762 
L 377.4429 658.710205 
L 378.62055 658.47384 
L 379.7982 657.933431 
L 380.97585 657.933431 
L 382.1535 658.412222 
L 383.33115 658.417975 
L 384.5088 656.52603 
L 385.68645 658.543412 
L 386.8641 658.53822 
L 388.04175 658.671382 
L 389.2194 659.076352 
L 390.39705 659.043369 
L 391.5747 658.588264 
L 392.75235 658.620901 
L 393.93 657.331403 
L 395.10765 657.331403 
L 396.2853 659.31061 
L 397.46295 658.74042 
L 398.6406 658.728622 
L 399.81825 657.232074 
L 400.9959 656.983727 
L 402.17355 656.981246 
L 403.3512 657.876884 
L 404.52885 657.883797 
L 405.7065 659.944961 
L 406.88415 659.944961 
L 408.0618 659.158663 
L 409.23945 658.520118 
L 410.4171 656.519188 
L 412.7724 656.613297 
L 413.95005 658.228367 
L 415.1277 658.228367 
L 416.30535 657.098712 
L 418.66065 657.098712 
L 419.8383 657.732512 
L 421.01595 659.423295 
L 422.1936 659.761921 
L 423.37125 658.686035 
L 424.5489 658.834961 
L 426.9042 658.874132 
L 429.2595 656.904297 
L 430.43715 657.825939 
L 431.6148 657.367995 
L 432.79245 657.367995 
L 433.9701 657.159579 
L 435.14775 658.960343 
L 436.3254 658.960343 
L 437.50305 658.545219 
L 438.6807 657.581829 
L 439.85835 658.592594 
L 442.21365 658.717949 
L 443.3913 659.572457 
L 444.56895 659.572457 
L 445.7466 660.011025 
L 446.92425 659.236206 
L 448.1019 657.895496 
L 449.27955 658.040681 
L 451.63485 658.032049 
L 452.8125 658.622108 
L 453.99015 658.615932 
L 455.1678 659.683815 
L 456.34545 658.924834 
L 458.70075 658.506383 
L 461.05605 658.537468 
L 462.2337 657.929354 
L 463.41135 657.929354 
L 464.589 658.868548 
L 465.76665 659.432003 
L 466.9443 658.936012 
L 468.12195 658.302915 
L 469.2996 659.102441 
L 470.47725 660.591044 
L 471.6549 659.816726 
L 472.83255 658.549294 
L 475.18785 658.801357 
L 476.3655 659.533189 
L 477.54315 659.151271 
L 478.7208 657.526043 
L 479.89845 657.522525 
L 481.0761 656.406545 
L 483.4314 658.095684 
L 484.60905 658.294093 
L 485.7867 657.413859 
L 486.96435 659.514148 
L 490.4973 659.592922 
L 491.67495 659.326639 
L 492.8526 658.553019 
L 494.03025 659.404664 
L 495.2079 659.468592 
L 496.38555 659.404664 
L 497.5632 658.011507 
L 498.74085 659.994261 
L 499.9185 660.299267 
L 501.09615 660.255126 
L 502.2738 658.275186 
L 503.45145 658.321419 
L 504.6291 657.680865 
L 505.80675 655.946115 
L 506.9844 656.104214 
L 508.16205 659.104848 
L 509.3397 659.104848 
L 510.51735 657.928528 
L 511.695 657.928177 
L 512.87265 658.559611 
L 515.22795 659.357478 
L 516.4056 659.588891 
L 517.58325 659.505612 
L 519.93855 659.578598 
L 521.1162 659.578598 
L 522.29385 659.756749 
L 523.4715 659.435496 
L 525.8268 659.32817 
L 527.00445 657.972424 
L 528.1821 657.892538 
L 530.5374 659.597328 
L 531.71505 659.781794 
L 532.8927 658.743954 
L 534.07035 658.624243 
L 535.248 658.980439 
L 536.42565 658.487914 
L 537.6033 658.699393 
L 538.78095 658.735631 
L 539.9586 660.138491 
L 541.13625 660.132846 
L 542.3139 658.381072 
L 543.49155 658.357987 
L 544.6692 658.098711 
L 545.84685 657.97859 
L 549.3798 657.985161 
L 550.55745 658.554627 
L 551.7351 659.687078 
L 552.91275 659.690465 
L 554.0904 659.810116 
L 555.26805 658.927799 
L 556.4457 658.81435 
L 557.62335 658.359968 
L 559.97865 658.360771 
L 561.1563 658.513806 
L 562.33395 660.128218 
L 564.68925 659.32726 
L 565.8669 660.11253 
L 567.04455 660.213867 
L 568.2222 658.779639 
L 569.39985 658.776254 
L 570.5775 658.44222 
L 571.75515 657.19905 
L 572.9328 657.173399 
L 574.11045 658.873246 
L 575.2881 659.743034 
L 576.46575 659.692296 
L 577.6434 658.539808 
L 578.82105 656.605731 
L 579.9987 656.605731 
L 581.17635 657.517157 
L 582.354 657.50577 
L 583.53165 657.26129 
L 584.7093 657.249188 
L 585.88695 658.547302 
L 587.0646 658.53939 
L 588.24225 657.860849 
L 590.59755 657.916683 
L 591.7752 659.051659 
L 592.95285 658.637819 
L 594.1305 658.637819 
L 595.30815 657.645469 
L 596.4858 657.645469 
L 597.66345 658.201468 
L 598.8411 658.96135 
L 600.01875 658.96135 
L 601.1964 658.387075 
L 602.37405 658.387075 
L 603.5517 659.216412 
L 605.907 659.216412 
L 607.08465 659.074742 
L 608.2623 659.082021 
L 609.43995 659.757355 
L 610.6176 660.222464 
L 611.79525 660.218464 
L 612.9729 661.27541 
L 617.6835 661.183932 
L 618.86115 659.281937 
L 620.0388 657.64771 
L 621.21645 657.629199 
L 622.3941 657.38863 
L 623.57175 657.38863 
L 624.7494 657.969417 
L 625.92705 659.272677 
L 627.1047 658.947228 
L 628.28235 660.654402 
L 629.46 661.139276 
L 630.63765 661.152222 
L 631.8153 659.821074 
L 634.1706 658.477715 
L 635.34825 658.747772 
L 636.5259 657.966466 
L 637.70355 658.627181 
L 638.8812 658.627181 
L 640.05885 660.373065 
L 641.2365 660.373065 
L 642.41415 660.03943 
L 643.5918 658.038881 
L 645.9471 657.385972 
L 647.12475 657.396953 
L 648.3024 657.540221 
L 649.48005 658.681131 
L 650.6577 658.687837 
L 651.83535 658.316349 
L 653.013 658.80358 
L 654.19065 658.100189 
L 655.3683 657.947539 
L 657.7236 657.908127 
L 658.90125 658.604234 
L 660.0789 658.604234 
L 661.25655 659.089606 
L 662.4342 658.974901 
L 663.61185 658.278893 
L 664.7895 656.964867 
L 665.96715 656.964867 
L 667.1448 658.231892 
L 668.32245 658.618235 
L 669.5001 658.640974 
L 670.67775 658.373285 
L 673.03305 658.541715 
L 674.2107 659.7649 
L 675.38835 659.35531 
L 676.566 658.449796 
L 677.74365 658.449796 
L 678.9213 660.095703 
L 680.09895 658.972272 
L 681.2766 658.972272 
L 682.45425 657.368762 
L 683.6319 657.371905 
L 684.80955 658.278568 
L 685.9872 658.345216 
L 687.16485 659.012985 
L 690.6978 659.125466 
L 691.87545 660.3129 
L 693.0531 660.350155 
L 694.23075 660.250399 
L 695.4084 659.894072 
L 696.58605 660.243506 
L 697.7637 659.440886 
L 698.94135 659.168723 
L 700.119 659.168723 
L 701.29665 657.959777 
L 702.4743 657.643018 
L 703.65195 656.841835 
L 704.8296 657.596218 
L 706.00725 657.899572 
L 709.5402 657.908656 
L 710.71785 658.230609 
L 711.8955 658.230609 
L 713.07315 657.104309 
L 714.2508 658.311494 
L 715.42845 657.169171 
L 716.6061 657.169171 
L 717.78375 658.672587 
L 718.9614 660.582909 
L 720.13905 660.566658 
L 721.3167 658.49726 
L 722.49435 658.49726 
L 723.672 659.768994 
L 724.84965 659.750557 
L 726.0273 658.039126 
L 728.3826 658.039126 
L 729.56025 658.532697 
L 730.7379 660.573785 
L 731.91555 658.627494 
L 735.4485 658.620192 
L 736.62615 658.844982 
L 737.8038 659.822453 
L 738.98145 658.285718 
L 740.1591 658.289901 
L 741.33675 657.574546 
L 742.5144 657.571008 
L 743.69205 657.312733 
L 744.8697 657.302292 
L 746.04735 657.570582 
L 747.225 658.051715 
L 748.40265 658.071346 
L 749.5803 658.840083 
L 750.75795 658.840083 
L 751.9356 658.441352 
L 753.11325 658.439807 
L 754.2909 659.102057 
L 755.46855 657.591846 
L 756.6462 659.442869 
L 757.82385 658.207903 
L 759.0015 657.615553 
L 761.3568 657.707922 
L 762.53445 656.670707 
L 763.7121 656.670707 
L 764.88975 656.552338 
L 766.0674 657.096707 
L 767.24505 657.794045 
L 768.4227 658.228092 
L 769.60035 658.947338 
L 771.95565 659.026002 
L 773.1333 657.986023 
L 774.31095 658.992737 
L 775.4886 659.627536 
L 776.66625 660.124189 
L 777.8439 660.121024 
L 779.02155 657.563929 
L 780.1992 658.43494 
L 781.37685 657.982322 
L 782.5545 657.982322 
L 783.73215 657.327264 
L 784.9098 657.328624 
L 786.08745 657.533263 
L 787.2651 658.681216 
L 788.44275 658.225133 
L 789.6204 659.817376 
L 791.9757 659.817376 
L 793.15335 659.326187 
L 794.331 659.496609 
L 799.0416 659.722252 
L 800.21925 660.968402 
L 801.3969 660.823154 
L 802.57455 659.560479 
L 803.7522 659.078275 
L 804.92985 657.983239 
L 806.1075 657.989892 
L 807.28515 658.592216 
L 808.4628 658.584255 
L 809.64045 658.915036 
L 810.8181 658.830526 
L 811.99575 660.980732 
L 813.1734 660.984662 
L 814.35105 660.534076 
L 815.5287 660.516673 
L 816.70635 657.558797 
L 817.884 658.702655 
L 819.06165 657.286398 
L 820.2393 659.487302 
L 821.41695 660.866012 
L 822.5946 658.381088 
L 823.77225 658.484765 
L 824.9499 658.08315 
L 826.12755 658.636999 
L 827.3052 658.903277 
L 828.48285 658.033382 
L 830.83815 658.124376 
L 832.0158 658.792832 
L 833.19345 659.712906 
L 834.3711 659.188488 
L 835.54875 659.362604 
L 836.7264 659.362604 
L 837.90405 657.086381 
L 839.0817 657.090343 
L 840.25935 657.322074 
L 841.437 657.328239 
L 842.61465 658.390624 
L 843.7923 658.505333 
L 844.96995 658.064568 
L 846.1476 658.057392 
L 847.32525 658.78472 
L 848.5029 658.78472 
L 849.68055 657.508888 
L 852.03585 657.532526 
L 853.2135 657.998905 
L 854.39115 657.998905 
L 855.5688 657.511725 
L 857.9241 657.507485 
L 859.10175 658.533983 
L 860.2794 659.094409 
L 861.45705 659.072557 
L 862.6347 659.235047 
L 863.81235 659.235047 
L 864.99 658.060184 
L 866.16765 658.065843 
L 867.3453 657.34174 
L 868.52295 657.856667 
L 869.7006 657.4871 
L 872.0559 658.47053 
L 873.23355 657.554302 
L 874.4112 657.554302 
L 875.58885 655.23811 
L 877.94415 656.615274 
L 879.1218 657.905415 
L 880.29945 658.981402 
L 882.65475 660.441182 
L 883.8324 660.362475 
L 885.01005 661.776904 
L 886.1877 661.311169 
L 887.36535 661.301978 
L 888.543 660.078815 
L 889.72065 659.637879 
L 890.8983 661.294873 
L 892.07595 661.021365 
L 893.2536 659.798982 
L 894.43125 660.597801 
L 895.6089 658.835203 
L 896.78655 657.819418 
L 897.9642 657.132949 
L 899.14185 657.012161 
L 900.3195 658.360435 
L 901.49715 658.369489 
L 902.6748 659.701014 
L 903.85245 660.462892 
L 905.0301 659.290154 
L 906.20775 660.655221 
L 907.3854 659.620397 
L 908.56305 658.73634 
L 909.7407 658.421067 
L 910.91835 659.167029 
L 912.096 659.752771 
L 913.27365 661.031944 
L 914.4513 660.161183 
L 915.62895 659.990863 
L 916.8066 658.722285 
L 917.98425 657.804564 
L 919.1619 658.713607 
L 920.33955 658.713607 
L 921.5172 658.951283 
L 922.69485 657.519372 
L 923.8725 657.848108 
L 925.05015 657.552302 
L 926.2278 659.999713 
L 927.40545 660.816658 
L 928.5831 659.993421 
L 929.76075 659.828335 
L 930.9384 659.828335 
L 932.11605 657.821789 
L 934.47135 657.790049 
L 935.649 657.097819 
L 936.82665 656.255207 
L 938.0043 656.661413 
L 939.18195 657.309669 
L 940.3596 656.546546 
L 941.53725 659.671495 
L 942.7149 658.859194 
L 943.89255 659.559334 
L 945.0702 659.559334 
L 946.24785 658.641329 
L 949.7808 658.140251 
L 950.95845 657.150603 
L 952.1361 659.438642 
L 953.31375 658.63962 
L 954.4914 658.63962 
L 955.66905 658.924633 
L 956.8467 658.011248 
L 958.02435 657.712999 
L 959.202 658.190716 
L 960.37965 658.438815 
L 961.5573 658.327535 
L 962.73495 658.480729 
L 963.9126 659.720331 
L 965.09025 659.641414 
L 966.2679 658.619863 
L 967.44555 658.248377 
L 968.6232 658.276321 
L 969.80085 659.227619 
L 972.15615 658.704018 
L 973.3338 657.165401 
L 975.6891 656.877497 
L 976.86675 658.494839 
L 978.0444 659.890325 
L 979.22205 658.663992 
L 980.3997 658.628338 
L 981.57735 659.670252 
L 982.755 659.616605 
L 983.93265 658.297158 
L 985.1103 660.100235 
L 986.28795 660.096093 
L 987.4656 659.412584 
L 988.64325 659.412584 
L 989.8209 658.47994 
L 990.99855 658.459092 
L 992.1762 656.746458 
L 994.5315 656.733727 
L 995.70915 658.895678 
L 998.06445 658.895678 
L 999.2421 659.126484 
L 1000.41975 659.040137 
L 1001.5974 657.990935 
L 1002.77505 657.987373 
L 1003.9527 656.791967 
L 1005.13035 656.791967 
L 1006.308 657.316305 
L 1007.48565 657.192081 
L 1011.0186 657.219603 
L 1012.19625 658.760008 
L 1015.7292 658.709924 
L 1016.90685 657.726472 
L 1018.0845 657.726472 
L 1019.26215 658.214279 
L 1020.4398 658.165223 
L 1021.61745 656.624672 
L 1022.7951 658.293573 
L 1023.97275 659.041431 
L 1025.1504 658.700764 
L 1026.32805 657.889264 
L 1027.5057 659.799565 
L 1028.68335 658.684029 
L 1029.861 658.980233 
L 1031.03865 658.980233 
L 1032.2163 660.120918 
L 1033.39395 660.122253 
L 1034.5716 658.454058 
L 1035.74925 658.426561 
L 1036.9269 658.797895 
L 1040.45985 657.453397 
L 1041.6375 657.931637 
L 1042.81515 657.608054 
L 1043.9928 658.635951 
L 1045.17045 657.25112 
L 1046.3481 658.578064 
L 1047.52575 658.399166 
L 1048.7034 659.381661 
L 1049.88105 657.454135 
L 1051.0587 658.116641 
L 1053.414 658.723498 
L 1054.59165 659.444103 
L 1055.7693 659.444103 
L 1056.94695 657.411186 
L 1058.1246 657.406121 
L 1059.30225 658.268838 
L 1060.4799 658.253827 
L 1061.65755 658.087998 
L 1062.8352 658.077829 
L 1064.01285 659.354441 
L 1065.1905 658.278154 
L 1066.36815 658.199088 
L 1067.5458 657.463511 
L 1068.72345 658.023679 
L 1071.07875 657.492731 
L 1072.2564 657.912373 
L 1073.43405 658.08772 
L 1074.6117 658.921687 
L 1075.78935 658.784342 
L 1076.967 658.906708 
L 1078.14465 658.236057 
L 1079.3223 658.136619 
L 1080.49995 656.606253 
L 1081.6776 658.018488 
L 1082.85525 657.648087 
L 1084.0329 657.671887 
L 1085.21055 657.95894 
L 1087.56585 659.171883 
L 1088.7435 659.006329 
L 1089.92115 658.464428 
L 1091.0988 657.102176 
L 1092.27645 656.235885 
L 1093.4541 659.703069 
L 1094.63175 657.582368 
L 1095.8094 657.507953 
L 1096.98705 657.807522 
L 1098.1647 657.70809 
L 1099.34235 657.24627 
L 1100.52 656.99914 
L 1101.69765 657.378296 
L 1102.8753 659.07425 
L 1104.05295 657.510537 
L 1105.2306 657.282186 
L 1106.40825 658.945889 
L 1107.5859 656.733965 
L 1108.76355 656.845838 
L 1109.9412 656.708815 
L 1111.11885 656.708815 
L 1114.6518 657.780643 
L 1115.82945 656.552045 
L 1117.0071 657.515195 
L 1118.18475 657.640982 
L 1119.3624 656.533852 
L 1120.54005 655.938797 
L 1121.7177 656.400987 
L 1122.89535 656.128021 
L 1126.4283 658.517799 
L 1128.7836 658.509714 
L 1129.96125 657.951007 
L 1131.1389 657.952656 
L 1132.31655 656.936246 
L 1133.4942 656.936246 
L 1134.67185 657.321492 
L 1135.8495 657.321492 
L 1137.02715 658.106112 
L 1138.2048 658.106112 
L 1139.38245 657.209281 
L 1142.9154 657.143694 
L 1144.09305 658.726452 
L 1145.2707 658.729818 
L 1146.44835 659.812735 
L 1147.626 659.812735 
L 1148.80365 658.01109 
L 1152.3366 658.070824 
L 1153.51425 659.262738 
L 1154.6919 659.262738 
L 1155.86955 657.59007 
L 1157.0472 657.59007 
L 1158.22485 657.095992 
L 1159.4025 657.095992 
L 1160.58015 656.108202 
L 1161.7578 656.108202 
L 1162.93545 657.28833 
L 1164.1131 657.28833 
L 1165.29075 658.829264 
L 1166.4684 658.829264 
L 1167.64605 658.072471 
L 1168.8237 658.072471 
L 1170.00135 658.755516 
L 1173.5343 658.865735 
L 1174.71195 659.908614 
L 1175.8896 659.902441 
L 1177.06725 659.444117 
L 1178.2449 659.444117 
L 1179.42255 659.186315 
L 1180.6002 659.186315 
L 1181.77785 659.393384 
L 1182.9555 659.393384 
L 1184.13315 660.329777 
L 1185.3108 660.329777 
L 1186.48845 659.830827 
L 1187.6661 659.830827 
L 1188.84375 658.70533 
L 1190.0214 658.70533 
L 1191.19905 657.192231 
L 1192.3767 657.207359 
L 1193.55435 657.955313 
L 1194.732 657.955313 
L 1195.90965 658.10655 
L 1197.0873 658.105126 
L 1198.26495 658.520251 
L 1199.4426 658.540502 
L 1200.62025 659.84782 
L 1201.7979 659.84782 
L 1202.97555 659.054657 
L 1204.1532 659.054657 
L 1205.33085 658.627578 
L 1206.5085 658.628161 
L 1207.68615 656.672339 
L 1208.8638 656.672339 
L 1210.04145 656.140789 
L 1211.2191 656.135785 
L 1212.39675 658.356849 
L 1213.5744 658.358977 
L 1214.75205 657.667523 
L 1215.9297 657.667523 
L 1217.10735 657.371466 
L 1218.285 657.371466 
L 1219.46265 656.638326 
L 1222.9956 656.700475 
L 1225.3509 656.786943 
L 1226.52855 658.918174 
L 1227.7062 658.918174 
L 1228.88385 659.145648 
L 1230.0615 659.145648 
L 1231.23915 659.424679 
L 1232.4168 659.42071 
L 1233.59445 656.539908 
L 1234.7721 656.539908 
L 1235.94975 659.079315 
L 1237.1274 659.079315 
L 1238.30505 657.91729 
L 1239.4827 657.91729 
L 1240.66035 658.518733 
L 1241.838 658.518733 
L 1243.01565 658.716917 
L 1244.1933 658.715313 
L 1245.37095 657.791606 
L 1246.5486 657.791606 
L 1247.72625 659.245518 
L 1251.2592 659.22325 
L 1252.43685 656.787367 
L 1253.6145 656.787367 
L 1254.79215 657.601822 
L 1258.3251 657.558647 
L 1259.50275 657.191143 
L 1260.6804 657.191143 
L 1261.85805 656.721211 
L 1263.0357 656.715197 
L 1264.21335 657.190226 
L 1265.391 657.169778 
L 1266.56865 657.598963 
L 1267.7463 657.598963 
L 1268.92395 657.459782 
L 1270.1016 657.459782 
L 1271.27925 656.602813 
L 1272.4569 656.603342 
L 1273.63455 658.457494 
L 1274.8122 658.457494 
L 1275.98985 660.797459 
L 1277.1675 660.797459 
L 1278.34515 658.914478 
L 1279.5228 658.914478 
L 1280.70045 658.533407 
L 1281.8781 658.533407 
L 1283.05575 658.827155 
L 1284.2334 658.827155 
L 1285.41105 658.35969 
L 1286.5887 658.35969 
L 1287.76635 657.39063 
L 1291.2993 657.366914 
L 1292.47695 656.261651 
L 1293.6546 656.261651 
L 1294.83225 656.643702 
L 1296.0099 656.643702 
L 1297.18755 658.036246 
L 1298.3652 658.036246 
L 1299.54285 657.721099 
L 1300.7205 657.721099 
L 1301.89815 658.313449 
L 1303.0758 658.313449 
L 1304.25345 657.579755 
L 1305.4311 657.579755 
L 1306.60875 657.006363 
L 1310.1417 657.053997 
L 1311.31935 657.445123 
L 1312.497 657.445123 
L 1313.67465 656.715007 
L 1314.8523 656.715007 
L 1316.02995 657.543634 
L 1317.2076 657.543634 
L 1318.38525 658.880598 
L 1321.9182 658.863965 
L 1323.09585 658.185257 
L 1324.2735 658.185257 
L 1325.45115 658.574077 
L 1326.6288 658.574077 
L 1327.80645 657.922156 
L 1331.3394 658.015639 
L 1332.51705 657.279416 
L 1333.6947 657.284198 
L 1334.87235 658.505542 
L 1336.05 658.505542 
L 1336.05 658.505542 
" style="fill:none;stroke:#0000ff;stroke-linecap:square;stroke-width:2.0;"/>
   </g>
   <g id="line2d_2">
    <path clip-path="url(#p8af6690794)" d="M 159.57765 54.099708 
L 160.7553 61.744377 
L 161.93295 69.167405 
L 163.1106 73.962218 
L 164.28825 77.695714 
L 165.4659 82.580908 
L 166.64355 86.383415 
L 170.1765 95.800322 
L 171.35415 98.686732 
L 172.5318 100.847485 
L 174.8871 108.288787 
L 176.06475 110.765534 
L 177.2424 113.522922 
L 178.42005 117.096131 
L 179.5977 120.253514 
L 181.953 125.230739 
L 183.13065 127.817759 
L 185.48595 132.264716 
L 186.6636 134.318606 
L 187.84125 135.922598 
L 190.19655 141.558253 
L 191.3742 143.911058 
L 192.55185 146.531024 
L 193.7295 150.225517 
L 194.90715 155.306324 
L 196.0848 155.306324 
L 197.26245 161.841202 
L 201.97305 161.841821 
L 204.32835 177.673668 
L 205.506 195.750488 
L 206.68365 196.750764 
L 207.8613 195.868725 
L 209.03895 196.750764 
L 210.2166 217.026717 
L 211.39425 223.148256 
L 212.5719 223.139834 
L 214.9272 239.860571 
L 216.10485 240.292514 
L 217.2825 244.781523 
L 218.46015 251.710183 
L 219.6378 263.11241 
L 220.81545 270.769801 
L 221.9931 270.769801 
L 223.17075 278.866552 
L 225.52605 278.892441 
L 226.7037 281.474387 
L 227.88135 292.193299 
L 229.059 292.197902 
L 230.23665 302.701587 
L 231.4143 302.701587 
L 232.59195 303.177466 
L 233.7696 311.171799 
L 234.94725 311.139742 
L 236.1249 315.839613 
L 237.30255 325.514905 
L 238.4802 325.629661 
L 239.65785 333.161153 
L 240.8355 325.629661 
L 242.01315 332.201841 
L 243.1908 340.130135 
L 244.36845 345.144692 
L 245.5461 357.790821 
L 246.72375 358.182936 
L 247.9014 367.345118 
L 249.07905 367.649268 
L 250.2567 367.436112 
L 252.612 384.523493 
L 253.78965 384.523493 
L 254.9673 385.835743 
L 256.14495 398.292831 
L 257.3226 403.191338 
L 258.50025 409.071635 
L 259.6779 409.299571 
L 260.85555 419.61885 
L 262.0332 424.866114 
L 263.21085 431.225871 
L 265.56615 441.625265 
L 266.7438 441.789948 
L 267.92145 447.6738 
L 269.0991 447.72689 
L 270.27675 453.550999 
L 271.4544 461.893577 
L 272.63205 473.439201 
L 273.8097 473.438781 
L 274.98735 478.558642 
L 276.165 489.893189 
L 277.34265 490.247463 
L 278.5203 500.312559 
L 279.69795 507.041927 
L 282.05325 507.041927 
L 283.2309 524.001939 
L 284.40855 530.451846 
L 287.9415 546.677034 
L 289.11915 546.677034 
L 290.2968 556.023923 
L 291.47445 556.027388 
L 292.6521 565.603464 
L 293.82975 565.603923 
L 295.0074 579.970877 
L 296.18505 579.975915 
L 297.3627 587.69481 
L 298.54035 597.453264 
L 299.718 597.834812 
L 300.89565 606.040156 
L 302.0733 610.648402 
L 303.25095 617.343482 
L 304.4286 623.068627 
L 305.60625 631.004351 
L 306.7839 631.015241 
L 307.96155 638.533619 
L 309.1392 638.533619 
L 310.31685 643.592436 
L 312.67215 643.592436 
L 313.8498 648.770824 
L 315.02745 653.110554 
L 316.2051 653.108082 
L 317.38275 654.687147 
L 318.5604 654.687147 
L 319.73805 657.296413 
L 322.09335 657.296413 
L 323.271 656.736098 
L 324.44865 656.725112 
L 325.6263 658.088418 
L 331.51455 657.990496 
L 332.6922 658.408961 
L 333.86985 658.387707 
L 335.0475 658.864034 
L 336.22515 658.840896 
L 337.4028 659.742018 
L 338.58045 659.762867 
L 339.7581 660.314199 
L 342.1134 660.314199 
L 343.29105 659.815189 
L 344.4687 659.815419 
L 345.64635 660.146821 
L 346.824 660.140477 
L 348.00165 658.926495 
L 350.35695 658.926495 
L 351.5346 658.036538 
L 352.71225 658.049226 
L 353.8899 658.696771 
L 355.06755 658.785442 
L 356.2452 658.436295 
L 357.42285 658.434346 
L 358.6005 657.897149 
L 359.77815 657.897149 
L 360.9558 657.65214 
L 362.13345 657.656157 
L 363.3111 657.40257 
L 364.48875 657.397606 
L 365.6664 657.546319 
L 366.84405 658.540051 
L 368.0217 658.542032 
L 369.19935 658.665714 
L 370.377 659.256557 
L 371.55465 658.374991 
L 372.7323 658.293532 
L 373.90995 658.838015 
L 375.0876 658.512772 
L 376.26525 658.512772 
L 377.4429 658.962828 
L 378.62055 658.607865 
L 379.7982 658.870901 
L 380.97585 658.870901 
L 382.1535 659.865936 
L 383.33115 659.865936 
L 384.5088 660.870688 
L 385.68645 659.442089 
L 386.8641 659.442089 
L 388.04175 658.825531 
L 389.2194 657.466297 
L 392.75235 657.365891 
L 393.93 656.972913 
L 395.10765 659.079371 
L 396.2853 658.983917 
L 397.46295 659.178494 
L 398.6406 659.682322 
L 399.81825 659.68298 
L 400.9959 658.496636 
L 402.17355 658.496636 
L 404.52885 657.968682 
L 405.7065 658.798308 
L 409.23945 658.876843 
L 410.4171 657.43227 
L 411.59475 658.451633 
L 412.7724 658.451633 
L 413.95005 658.574924 
L 415.1277 659.621433 
L 416.30535 658.399537 
L 417.483 658.387781 
L 418.66065 657.867926 
L 421.01595 657.696595 
L 422.1936 659.076961 
L 425.72655 659.042276 
L 426.9042 658.068107 
L 428.08185 658.056562 
L 429.2595 657.264957 
L 430.43715 658.836622 
L 431.6148 658.836622 
L 432.79245 659.541543 
L 433.9701 658.888784 
L 435.14775 658.885352 
L 436.3254 658.179295 
L 437.50305 656.793506 
L 439.85835 656.793506 
L 441.036 658.154755 
L 442.21365 658.139764 
L 443.3913 659.061786 
L 444.56895 659.023008 
L 445.7466 659.815936 
L 446.92425 659.815936 
L 448.1019 659.607495 
L 449.27955 659.600973 
L 450.4572 658.531269 
L 451.63485 658.531269 
L 452.8125 658.301061 
L 453.99015 658.879425 
L 455.1678 658.171046 
L 459.8784 658.065724 
L 461.05605 658.865275 
L 462.2337 658.865275 
L 463.41135 657.876265 
L 464.589 657.874328 
L 465.76665 657.529444 
L 466.9443 657.529444 
L 468.12195 657.29953 
L 469.2996 657.326232 
L 470.47725 657.912288 
L 471.6549 657.923448 
L 472.83255 656.627691 
L 475.18785 656.614664 
L 476.3655 658.896305 
L 478.7208 658.90987 
L 479.89845 657.940146 
L 481.0761 657.940146 
L 482.25375 658.488596 
L 483.4314 658.383371 
L 484.60905 658.932677 
L 485.7867 658.945796 
L 486.96435 658.029684 
L 490.4973 658.972231 
L 491.67495 658.461022 
L 492.8526 658.698082 
L 494.03025 659.688856 
L 495.2079 659.705996 
L 496.38555 660.085877 
L 497.5632 660.085877 
L 498.74085 659.467448 
L 499.9185 659.467448 
L 501.09615 658.685703 
L 502.2738 658.685703 
L 503.45145 658.249614 
L 505.80675 658.249614 
L 506.9844 658.87979 
L 508.16205 658.850447 
L 509.3397 658.524273 
L 510.51735 658.524273 
L 511.695 658.068867 
L 512.87265 658.068867 
L 514.0503 657.642098 
L 515.22795 657.640311 
L 516.4056 658.212411 
L 518.7609 658.212411 
L 519.93855 657.030035 
L 521.1162 656.737423 
L 522.29385 657.020637 
L 523.4715 657.028812 
L 524.64915 657.687138 
L 525.8268 657.020637 
L 527.00445 657.028812 
L 528.1821 657.213795 
L 529.35975 657.227961 
L 530.5374 658.304771 
L 531.71505 658.298833 
L 532.8927 658.610772 
L 534.07035 658.610772 
L 535.248 658.191977 
L 536.42565 658.191977 
L 537.6033 659.173936 
L 539.9586 659.225367 
L 541.13625 659.864652 
L 542.3139 659.930566 
L 543.49155 660.113134 
L 547.0245 660.021723 
L 548.20215 659.202245 
L 550.55745 659.202245 
L 551.7351 657.953976 
L 552.91275 657.963626 
L 554.0904 657.577652 
L 558.801 657.517417 
L 559.97865 659.167743 
L 561.1563 659.167743 
L 562.33395 660.053543 
L 564.68925 658.239254 
L 568.2222 658.137832 
L 569.39985 658.105309 
L 570.5775 658.854182 
L 574.11045 658.854182 
L 575.2881 658.154491 
L 576.46575 658.813867 
L 577.6434 658.813867 
L 578.82105 659.704518 
L 579.9987 657.159393 
L 581.17635 657.173192 
L 582.354 658.205715 
L 583.53165 658.206431 
L 584.7093 657.703137 
L 587.0646 657.609196 
L 588.24225 657.229463 
L 590.59755 657.229463 
L 591.7752 658.8766 
L 592.95285 658.8766 
L 594.1305 657.513129 
L 595.30815 657.514303 
L 596.4858 659.312301 
L 597.66345 659.312301 
L 598.8411 657.985443 
L 600.01875 657.960653 
L 601.1964 659.018555 
L 603.5517 658.933321 
L 604.72935 659.802164 
L 608.2623 659.81861 
L 611.79525 660.299343 
L 612.9729 658.095787 
L 614.15055 657.825415 
L 615.3282 658.095827 
L 616.50585 657.437836 
L 617.6835 657.437836 
L 618.86115 657.145032 
L 620.0388 657.145032 
L 621.21645 658.280929 
L 622.3941 658.492195 
L 623.57175 658.474014 
L 624.7494 659.581638 
L 625.92705 660.05415 
L 627.1047 660.090235 
L 628.28235 658.162685 
L 629.46 657.944704 
L 631.8153 658.293849 
L 632.99295 659.232744 
L 634.1706 658.934676 
L 635.34825 658.934676 
L 636.5259 657.775596 
L 637.70355 657.15356 
L 638.8812 656.39898 
L 640.05885 656.532511 
L 641.2365 658.341996 
L 642.41415 659.05342 
L 643.5918 657.968431 
L 644.76945 657.914707 
L 645.9471 659.036102 
L 647.12475 657.914707 
L 648.3024 657.914707 
L 649.48005 659.013246 
L 650.6577 657.650223 
L 651.83535 658.662449 
L 653.013 658.032956 
L 654.19065 658.352986 
L 655.3683 657.893772 
L 656.54595 656.961143 
L 657.7236 656.643353 
L 658.90125 656.107285 
L 660.0789 656.362425 
L 661.25655 659.513453 
L 662.4342 660.48032 
L 664.7895 660.470208 
L 665.96715 657.917072 
L 667.1448 657.792726 
L 668.32245 657.947203 
L 669.5001 657.660274 
L 670.67775 657.210637 
L 671.8554 657.143672 
L 673.03305 657.637153 
L 674.2107 657.626662 
L 675.38835 657.16805 
L 676.566 658.989045 
L 677.74365 658.455374 
L 678.9213 658.805519 
L 681.2766 659.062684 
L 682.45425 658.891961 
L 684.80955 658.891961 
L 685.9872 657.156997 
L 687.16485 656.98017 
L 688.3425 657.193398 
L 690.6978 657.292943 
L 691.87545 657.06662 
L 693.0531 657.063417 
L 694.23075 657.432608 
L 695.4084 657.430872 
L 696.58605 658.3703 
L 700.119 658.427955 
L 701.29665 658.178156 
L 702.4743 658.176256 
L 703.65195 658.519876 
L 704.8296 658.519876 
L 706.00725 658.727153 
L 708.36255 658.728622 
L 709.5402 659.189763 
L 710.71785 658.421528 
L 714.2508 658.440278 
L 715.42845 658.214408 
L 716.6061 658.440278 
L 717.78375 658.112939 
L 718.9614 657.51741 
L 720.13905 657.416812 
L 721.3167 655.941414 
L 722.49435 658.993983 
L 723.672 658.86275 
L 724.84965 658.972509 
L 726.0273 658.763361 
L 727.20495 658.731955 
L 728.3826 658.206238 
L 730.7379 658.206238 
L 731.91555 658.732203 
L 733.0932 659.487533 
L 734.27085 659.489739 
L 735.4485 657.589605 
L 737.8038 657.589605 
L 738.98145 659.583087 
L 740.1591 659.576711 
L 741.33675 658.960594 
L 744.8697 658.928265 
L 746.04735 659.442691 
L 747.225 659.442691 
L 748.40265 659.602255 
L 749.5803 659.600811 
L 750.75795 660.46002 
L 751.9356 660.46002 
L 753.11325 659.446037 
L 754.2909 659.455133 
L 755.46855 658.052269 
L 756.6462 658.052269 
L 757.82385 657.1759 
L 759.0015 657.1759 
L 760.17915 657.392402 
L 761.3568 657.392402 
L 762.53445 658.391372 
L 763.7121 658.391372 
L 764.88975 657.442345 
L 766.0674 657.450742 
L 767.24505 657.832826 
L 768.4227 657.832826 
L 769.60035 657.34241 
L 771.95565 657.34241 
L 773.1333 659.420619 
L 775.4886 659.31898 
L 776.66625 657.30882 
L 777.8439 657.30882 
L 779.02155 656.589015 
L 780.1992 656.589015 
L 781.37685 657.004667 
L 782.5545 657.100136 
L 783.73215 658.92608 
L 784.9098 658.918887 
L 786.08745 658.136635 
L 789.6204 658.117549 
L 790.79805 658.983241 
L 791.9757 658.990575 
L 793.15335 658.487441 
L 794.331 658.487441 
L 795.50865 656.748567 
L 796.6863 656.758268 
L 797.86395 657.697278 
L 799.0416 657.686365 
L 800.21925 657.105451 
L 801.3969 656.97917 
L 802.57455 656.979722 
L 803.7522 658.464635 
L 804.92985 658.486809 
L 806.1075 660.200737 
L 807.28515 660.200737 
L 808.4628 660.326845 
L 809.64045 660.629996 
L 810.8181 660.662187 
L 811.99575 659.763801 
L 813.1734 659.752635 
L 814.35105 657.588031 
L 815.5287 657.74066 
L 816.70635 658.277278 
L 817.884 658.27264 
L 819.06165 656.690561 
L 820.2393 656.690561 
L 821.41695 657.170499 
L 822.5946 657.170499 
L 823.77225 657.570073 
L 824.9499 657.561971 
L 826.12755 657.838254 
L 827.3052 657.850926 
L 828.48285 658.834814 
L 829.6605 658.319764 
L 830.83815 657.641751 
L 832.0158 657.5966 
L 833.19345 657.388857 
L 834.3711 659.750442 
L 835.54875 659.642766 
L 836.7264 660.009012 
L 837.90405 660.007353 
L 839.0817 659.429333 
L 841.437 659.424587 
L 842.61465 659.690996 
L 843.7923 660.841891 
L 844.96995 661.028263 
L 846.1476 659.081381 
L 847.32525 659.35484 
L 848.5029 656.847854 
L 849.68055 659.653898 
L 852.03585 659.628962 
L 853.2135 656.959602 
L 854.39115 656.8233 
L 855.5688 660.072872 
L 857.9241 660.072872 
L 860.2794 655.738355 
L 861.45705 655.738355 
L 862.6347 654.769899 
L 863.81235 654.759911 
L 864.99 657.049777 
L 866.16765 657.038254 
L 867.3453 658.427518 
L 869.7006 658.406589 
L 870.87825 658.485131 
L 872.0559 658.184029 
L 873.23355 658.219362 
L 874.4112 658.509414 
L 877.94415 658.463624 
L 879.1218 659.006061 
L 880.29945 659.006061 
L 881.4771 658.824848 
L 882.65475 658.819399 
L 883.8324 659.276281 
L 885.01005 659.271976 
L 886.1877 659.896113 
L 887.36535 659.896113 
L 888.543 658.05294 
L 889.72065 658.053644 
L 890.8983 658.312244 
L 896.78655 658.388036 
L 897.9642 656.588594 
L 900.3195 656.557921 
L 901.49715 656.856179 
L 902.6748 658.355506 
L 903.85245 658.366005 
L 905.0301 659.652404 
L 906.20775 659.672851 
L 907.3854 657.786192 
L 908.56305 657.786192 
L 909.7407 657.133689 
L 910.91835 657.048586 
L 912.096 656.532359 
L 913.27365 656.541197 
L 914.4513 657.222398 
L 915.62895 657.222398 
L 916.8066 655.958445 
L 919.1619 655.957401 
L 921.5172 655.562625 
L 922.69485 656.936225 
L 923.8725 656.957574 
L 925.05015 657.171363 
L 926.2278 657.175679 
L 927.40545 656.663967 
L 929.76075 656.663967 
L 930.9384 655.878962 
L 932.11605 655.795386 
L 933.2937 656.500197 
L 934.47135 656.496026 
L 935.649 656.747499 
L 936.82665 658.855916 
L 938.0043 658.664527 
L 939.18195 658.662517 
L 940.3596 659.01826 
L 942.7149 658.989941 
L 943.89255 658.817396 
L 945.0702 657.281188 
L 947.4255 657.237477 
L 948.60315 657.237477 
L 949.7808 656.96329 
L 950.95845 656.96329 
L 952.1361 659.370865 
L 953.31375 659.370865 
L 954.4914 661.171936 
L 956.8467 661.180755 
L 958.02435 660.646017 
L 959.202 660.627133 
L 960.37965 657.974516 
L 961.5573 657.974516 
L 962.73495 658.597264 
L 963.9126 661.077906 
L 965.09025 661.077906 
L 966.2679 658.872221 
L 967.44555 658.872221 
L 968.6232 657.364584 
L 972.15615 657.364584 
L 973.3338 659.027986 
L 974.51145 659.011696 
L 975.6891 658.649884 
L 976.86675 658.649884 
L 978.0444 658.365096 
L 979.22205 658.365096 
L 980.3997 659.008896 
L 981.57735 659.258579 
L 982.755 659.258579 
L 983.93265 658.483719 
L 985.1103 658.483719 
L 986.28795 659.455472 
L 987.4656 659.455472 
L 988.64325 658.691154 
L 989.8209 658.687387 
L 990.99855 659.502888 
L 993.35385 659.502888 
L 994.5315 658.527027 
L 995.70915 658.527027 
L 996.8868 658.960186 
L 998.06445 658.960186 
L 999.2421 659.574811 
L 1000.41975 659.579177 
L 1001.5974 660.271142 
L 1002.77505 660.276274 
L 1003.9527 659.560027 
L 1007.48565 659.558388 
L 1008.6633 657.909605 
L 1009.84095 657.909605 
L 1011.0186 656.640456 
L 1013.3739 656.662215 
L 1014.55155 656.926213 
L 1015.7292 656.926213 
L 1016.90685 657.601867 
L 1019.26215 657.603046 
L 1020.4398 658.258019 
L 1022.7951 658.235145 
L 1023.97275 658.40263 
L 1027.5057 658.509731 
L 1028.68335 657.525366 
L 1029.861 657.528082 
L 1031.03865 658.111252 
L 1036.9269 658.005774 
L 1038.10455 659.554841 
L 1039.2822 659.551137 
L 1040.45985 658.509748 
L 1041.6375 659.93722 
L 1042.81515 659.747556 
L 1043.9928 659.729532 
L 1045.17045 660.188291 
L 1046.3481 658.132549 
L 1047.52575 656.719963 
L 1048.7034 658.70487 
L 1049.88105 658.356349 
L 1051.0587 658.356349 
L 1052.23635 657.463297 
L 1053.414 657.463297 
L 1054.59165 656.253041 
L 1056.94695 656.253041 
L 1058.1246 657.704352 
L 1059.30225 657.713683 
L 1060.4799 657.859295 
L 1061.65755 657.859295 
L 1062.8352 659.542225 
L 1064.01285 659.542225 
L 1065.1905 659.159333 
L 1066.36815 659.159333 
L 1067.5458 657.863764 
L 1068.72345 657.863764 
L 1069.9011 657.609421 
L 1071.07875 657.609421 
L 1072.2564 657.043475 
L 1073.43405 657.043475 
L 1074.6117 657.898858 
L 1076.967 657.912957 
L 1078.14465 656.956723 
L 1081.6776 656.956723 
L 1082.85525 657.188652 
L 1084.0329 658.95697 
L 1085.21055 658.964323 
L 1086.3882 658.426453 
L 1087.56585 658.426453 
L 1088.7435 656.667208 
L 1089.92115 656.667208 
L 1091.0988 656.391487 
L 1092.27645 656.391487 
L 1093.4541 656.252109 
L 1094.63175 656.258827 
L 1095.8094 657.88065 
L 1098.1647 657.882564 
L 1099.34235 657.724143 
L 1100.52 657.714535 
L 1101.69765 656.994051 
L 1102.8753 656.994121 
L 1104.05295 656.413331 
L 1105.2306 656.413331 
L 1106.40825 655.720044 
L 1108.76355 655.720014 
L 1109.9412 656.086851 
L 1111.11885 656.107785 
L 1112.2965 657.197674 
L 1113.47415 657.022596 
L 1114.6518 657.89153 
L 1115.82945 657.756858 
L 1117.0071 659.427212 
L 1118.18475 659.454472 
L 1119.3624 659.253008 
L 1120.54005 659.778716 
L 1121.7177 658.796586 
L 1122.89535 658.796586 
L 1124.073 658.55755 
L 1125.25065 658.55755 
L 1126.4283 656.512577 
L 1127.60595 658.856662 
L 1128.7836 659.441104 
L 1132.31655 659.546272 
L 1133.4942 658.745486 
L 1134.67185 658.745486 
L 1135.8495 660.196423 
L 1137.02715 660.196622 
L 1138.2048 659.741787 
L 1139.38245 659.763537 
L 1140.5601 660.759216 
L 1142.9154 660.756451 
L 1144.09305 660.394629 
L 1146.44835 660.400141 
L 1147.626 660.5155 
L 1149.9813 660.5155 
L 1151.15895 661.011691 
L 1153.51425 661.011691 
L 1154.6919 659.030164 
L 1157.0472 659.030164 
L 1158.22485 657.749618 
L 1160.58015 657.749618 
L 1161.7578 658.502877 
L 1164.1131 658.469294 
L 1166.4684 658.545077 
L 1167.64605 658.545077 
L 1168.8237 657.979014 
L 1173.5343 658.055992 
L 1180.6002 658.304038 
L 1181.77785 658.91767 
L 1184.13315 658.912162 
L 1185.3108 659.483235 
L 1187.6661 659.483235 
L 1188.84375 660.884758 
L 1191.19905 660.884758 
L 1192.3767 660.146237 
L 1195.90965 660.146237 
L 1197.0873 658.321451 
L 1199.4426 658.321451 
L 1200.62025 656.03584 
L 1202.97555 656.03584 
L 1204.1532 657.078456 
L 1207.68615 657.078456 
L 1208.8638 656.429929 
L 1212.39675 656.429929 
L 1213.5744 657.249029 
L 1215.9297 657.253578 
L 1217.10735 658.037145 
L 1219.46265 658.037145 
L 1220.6403 657.035441 
L 1228.88385 657.037227 
L 1230.0615 659.219026 
L 1231.23915 658.370686 
L 1233.59445 658.374163 
L 1234.7721 657.598806 
L 1235.94975 657.598806 
L 1237.1274 658.140507 
L 1239.4827 658.14287 
L 1240.66035 656.664068 
L 1243.01565 656.665732 
L 1244.1933 656.879134 
L 1246.5486 656.879134 
L 1247.72625 658.605843 
L 1248.9039 658.605843 
L 1250.08155 658.032057 
L 1251.2592 658.032057 
L 1252.43685 658.419145 
L 1253.6145 658.419145 
L 1254.79215 659.282976 
L 1255.9698 659.282976 
L 1257.14745 660.391944 
L 1258.3251 660.391944 
L 1259.50275 658.842229 
L 1260.6804 658.842229 
L 1261.85805 658.343214 
L 1265.391 658.286733 
L 1266.56865 657.403399 
L 1268.92395 657.403399 
L 1270.1016 658.438864 
L 1273.63455 658.438864 
L 1274.8122 656.8666 
L 1277.1675 656.8666 
L 1278.34515 658.26815 
L 1279.5228 656.959253 
L 1285.41105 657.021304 
L 1287.76635 657.087648 
L 1288.944 657.087648 
L 1290.12165 656.8666 
L 1291.2993 657.346083 
L 1293.6546 657.321398 
L 1294.83225 658.892466 
L 1296.0099 657.941496 
L 1297.18755 657.939031 
L 1298.3652 657.321398 
L 1299.54285 658.238431 
L 1300.7205 656.93918 
L 1301.89815 657.023656 
L 1303.0758 657.35252 
L 1304.25345 659.081194 
L 1305.4311 659.145337 
L 1306.60875 659.074427 
L 1307.7864 658.086101 
L 1308.96405 658.749742 
L 1310.1417 659.543107 
L 1311.31935 659.543107 
L 1312.497 659.085985 
L 1313.67465 659.084932 
L 1314.8523 657.783486 
L 1316.02995 657.783486 
L 1317.2076 659.591732 
L 1321.9182 659.656804 
L 1323.09585 659.063131 
L 1324.2735 657.439552 
L 1325.45115 657.523373 
L 1326.6288 658.497593 
L 1330.16175 658.583784 
L 1331.3394 659.461839 
L 1332.51705 659.468028 
L 1333.6947 657.987647 
L 1334.87235 658.011814 
L 1336.05 659.176876 
L 1336.05 659.176876 
" style="fill:none;stroke:#008000;stroke-dasharray:6.000000,6.000000;stroke-dashoffset:0.0;stroke-width:2.0;"/>
   </g>
   <g id="patch_3">
    <path d="M 158.4 51.3 
L 1336.05 51.3 
" style="fill:none;stroke:#000000;stroke-linecap:square;stroke-linejoin:miter;"/>
   </g>
   <g id="patch_4">
    <path d="M 1336.05 747 
L 1336.05 51.3 
" style="fill:none;stroke:#000000;stroke-linecap:square;stroke-linejoin:miter;"/>
   </g>
   <g id="patch_5">
    <path d="M 158.4 747 
L 1336.05 747 
" style="fill:none;stroke:#000000;stroke-linecap:square;stroke-linejoin:miter;"/>
   </g>
   <g id="patch_6">
    <path d="M 158.4 747 
L 158.4 51.3 
" style="fill:none;stroke:#000000;stroke-linecap:square;stroke-linejoin:miter;"/>
   </g>
   <g id="matplotlib.axis_1">
    <g id="xtick_1">
     <g id="line2d_3">
      <defs>
       <path d="M 0 0 
L 0 -4 
" id="m02b5a7dd97" style="stroke:#000000;stroke-width:0.5;"/>
      </defs>
      <g>
       <use style="stroke:#000000;stroke-width:0.5;" x="158.4" xlink:href="#m02b5a7dd97" y="747.0"/>
      </g>
     </g>
     <g id="line2d_4">
      <defs>
       <path d="M 0 0 
L 0 4 
" id="m79a058a662" style="stroke:#000000;stroke-width:0.5;"/>
      </defs>
      <g>
       <use style="stroke:#000000;stroke-width:0.5;" x="158.4" xlink:href="#m79a058a662" y="51.3"/>
      </g>
     </g>
     <g id="text_1">
      <!-- 0 -->
      <defs>
       <path d="M 31.78125 66.40625 
Q 24.171875 66.40625 20.328125 58.90625 
Q 16.5 51.421875 16.5 36.375 
Q 16.5 21.390625 20.328125 13.890625 
Q 24.171875 6.390625 31.78125 6.390625 
Q 39.453125 6.390625 43.28125 13.890625 
Q 47.125 21.390625 47.125 36.375 
Q 47.125 51.421875 43.28125 58.90625 
Q 39.453125 66.40625 31.78125 66.40625 
M 31.78125 74.21875 
Q 44.046875 74.21875 50.515625 64.515625 
Q 56.984375 54.828125 56.984375 36.375 
Q 56.984375 17.96875 50.515625 8.265625 
Q 44.046875 -1.421875 31.78125 -1.421875 
Q 19.53125 -1.421875 13.0625 8.265625 
Q 6.59375 17.96875 6.59375 36.375 
Q 6.59375 54.828125 13.0625 64.515625 
Q 19.53125 74.21875 31.78125 74.21875 
" id="BitstreamVeraSans-Roman-30"/>
      </defs>
      <g transform="translate(148.85625 773.7953125)scale(0.3 -0.3)">
       <use xlink:href="#BitstreamVeraSans-Roman-30"/>
      </g>
     </g>
    </g>
    <g id="xtick_2">
     <g id="line2d_5">
      <g>
       <use style="stroke:#000000;stroke-width:0.5;" x="393.93" xlink:href="#m02b5a7dd97" y="747.0"/>
      </g>
     </g>
     <g id="line2d_6">
      <g>
       <use style="stroke:#000000;stroke-width:0.5;" x="393.93" xlink:href="#m79a058a662" y="51.3"/>
      </g>
     </g>
     <g id="text_2">
      <!-- 20000 -->
      <defs>
       <path d="M 19.1875 8.296875 
L 53.609375 8.296875 
L 53.609375 0 
L 7.328125 0 
L 7.328125 8.296875 
Q 12.9375 14.109375 22.625 23.890625 
Q 32.328125 33.6875 34.8125 36.53125 
Q 39.546875 41.84375 41.421875 45.53125 
Q 43.3125 49.21875 43.3125 52.78125 
Q 43.3125 58.59375 39.234375 62.25 
Q 35.15625 65.921875 28.609375 65.921875 
Q 23.96875 65.921875 18.8125 64.3125 
Q 13.671875 62.703125 7.8125 59.421875 
L 7.8125 69.390625 
Q 13.765625 71.78125 18.9375 73 
Q 24.125 74.21875 28.421875 74.21875 
Q 39.75 74.21875 46.484375 68.546875 
Q 53.21875 62.890625 53.21875 53.421875 
Q 53.21875 48.921875 51.53125 44.890625 
Q 49.859375 40.875 45.40625 35.40625 
Q 44.1875 33.984375 37.640625 27.21875 
Q 31.109375 20.453125 19.1875 8.296875 
" id="BitstreamVeraSans-Roman-32"/>
      </defs>
      <g transform="translate(346.21125 773.7953125)scale(0.3 -0.3)">
       <use xlink:href="#BitstreamVeraSans-Roman-32"/>
       <use x="63.623046875" xlink:href="#BitstreamVeraSans-Roman-30"/>
       <use x="127.24609375" xlink:href="#BitstreamVeraSans-Roman-30"/>
       <use x="190.869140625" xlink:href="#BitstreamVeraSans-Roman-30"/>
       <use x="254.4921875" xlink:href="#BitstreamVeraSans-Roman-30"/>
      </g>
     </g>
    </g>
    <g id="xtick_3">
     <g id="line2d_7">
      <g>
       <use style="stroke:#000000;stroke-width:0.5;" x="629.46" xlink:href="#m02b5a7dd97" y="747.0"/>
      </g>
     </g>
     <g id="line2d_8">
      <g>
       <use style="stroke:#000000;stroke-width:0.5;" x="629.46" xlink:href="#m79a058a662" y="51.3"/>
      </g>
     </g>
     <g id="text_3">
      <!-- 40000 -->
      <defs>
       <path d="M 37.796875 64.3125 
L 12.890625 25.390625 
L 37.796875 25.390625 
z
M 35.203125 72.90625 
L 47.609375 72.90625 
L 47.609375 25.390625 
L 58.015625 25.390625 
L 58.015625 17.1875 
L 47.609375 17.1875 
L 47.609375 0 
L 37.796875 0 
L 37.796875 17.1875 
L 4.890625 17.1875 
L 4.890625 26.703125 
z
" id="BitstreamVeraSans-Roman-34"/>
      </defs>
      <g transform="translate(581.74125 773.7953125)scale(0.3 -0.3)">
       <use xlink:href="#BitstreamVeraSans-Roman-34"/>
       <use x="63.623046875" xlink:href="#BitstreamVeraSans-Roman-30"/>
       <use x="127.24609375" xlink:href="#BitstreamVeraSans-Roman-30"/>
       <use x="190.869140625" xlink:href="#BitstreamVeraSans-Roman-30"/>
       <use x="254.4921875" xlink:href="#BitstreamVeraSans-Roman-30"/>
      </g>
     </g>
    </g>
    <g id="xtick_4">
     <g id="line2d_9">
      <g>
       <use style="stroke:#000000;stroke-width:0.5;" x="864.99" xlink:href="#m02b5a7dd97" y="747.0"/>
      </g>
     </g>
     <g id="line2d_10">
      <g>
       <use style="stroke:#000000;stroke-width:0.5;" x="864.99" xlink:href="#m79a058a662" y="51.3"/>
      </g>
     </g>
     <g id="text_4">
      <!-- 60000 -->
      <defs>
       <path d="M 33.015625 40.375 
Q 26.375 40.375 22.484375 35.828125 
Q 18.609375 31.296875 18.609375 23.390625 
Q 18.609375 15.53125 22.484375 10.953125 
Q 26.375 6.390625 33.015625 6.390625 
Q 39.65625 6.390625 43.53125 10.953125 
Q 47.40625 15.53125 47.40625 23.390625 
Q 47.40625 31.296875 43.53125 35.828125 
Q 39.65625 40.375 33.015625 40.375 
M 52.59375 71.296875 
L 52.59375 62.3125 
Q 48.875 64.0625 45.09375 64.984375 
Q 41.3125 65.921875 37.59375 65.921875 
Q 27.828125 65.921875 22.671875 59.328125 
Q 17.53125 52.734375 16.796875 39.40625 
Q 19.671875 43.65625 24.015625 45.921875 
Q 28.375 48.1875 33.59375 48.1875 
Q 44.578125 48.1875 50.953125 41.515625 
Q 57.328125 34.859375 57.328125 23.390625 
Q 57.328125 12.15625 50.6875 5.359375 
Q 44.046875 -1.421875 33.015625 -1.421875 
Q 20.359375 -1.421875 13.671875 8.265625 
Q 6.984375 17.96875 6.984375 36.375 
Q 6.984375 53.65625 15.1875 63.9375 
Q 23.390625 74.21875 37.203125 74.21875 
Q 40.921875 74.21875 44.703125 73.484375 
Q 48.484375 72.75 52.59375 71.296875 
" id="BitstreamVeraSans-Roman-36"/>
      </defs>
      <g transform="translate(817.27125 773.7953125)scale(0.3 -0.3)">
       <use xlink:href="#BitstreamVeraSans-Roman-36"/>
       <use x="63.623046875" xlink:href="#BitstreamVeraSans-Roman-30"/>
       <use x="127.24609375" xlink:href="#BitstreamVeraSans-Roman-30"/>
       <use x="190.869140625" xlink:href="#BitstreamVeraSans-Roman-30"/>
       <use x="254.4921875" xlink:href="#BitstreamVeraSans-Roman-30"/>
      </g>
     </g>
    </g>
    <g id="xtick_5">
     <g id="line2d_11">
      <g>
       <use style="stroke:#000000;stroke-width:0.5;" x="1100.52" xlink:href="#m02b5a7dd97" y="747.0"/>
      </g>
     </g>
     <g id="line2d_12">
      <g>
       <use style="stroke:#000000;stroke-width:0.5;" x="1100.52" xlink:href="#m79a058a662" y="51.3"/>
      </g>
     </g>
     <g id="text_5">
      <!-- 80000 -->
      <defs>
       <path d="M 31.78125 34.625 
Q 24.75 34.625 20.71875 30.859375 
Q 16.703125 27.09375 16.703125 20.515625 
Q 16.703125 13.921875 20.71875 10.15625 
Q 24.75 6.390625 31.78125 6.390625 
Q 38.8125 6.390625 42.859375 10.171875 
Q 46.921875 13.96875 46.921875 20.515625 
Q 46.921875 27.09375 42.890625 30.859375 
Q 38.875 34.625 31.78125 34.625 
M 21.921875 38.8125 
Q 15.578125 40.375 12.03125 44.71875 
Q 8.5 49.078125 8.5 55.328125 
Q 8.5 64.0625 14.71875 69.140625 
Q 20.953125 74.21875 31.78125 74.21875 
Q 42.671875 74.21875 48.875 69.140625 
Q 55.078125 64.0625 55.078125 55.328125 
Q 55.078125 49.078125 51.53125 44.71875 
Q 48 40.375 41.703125 38.8125 
Q 48.828125 37.15625 52.796875 32.3125 
Q 56.78125 27.484375 56.78125 20.515625 
Q 56.78125 9.90625 50.3125 4.234375 
Q 43.84375 -1.421875 31.78125 -1.421875 
Q 19.734375 -1.421875 13.25 4.234375 
Q 6.78125 9.90625 6.78125 20.515625 
Q 6.78125 27.484375 10.78125 32.3125 
Q 14.796875 37.15625 21.921875 38.8125 
M 18.3125 54.390625 
Q 18.3125 48.734375 21.84375 45.5625 
Q 25.390625 42.390625 31.78125 42.390625 
Q 38.140625 42.390625 41.71875 45.5625 
Q 45.3125 48.734375 45.3125 54.390625 
Q 45.3125 60.0625 41.71875 63.234375 
Q 38.140625 66.40625 31.78125 66.40625 
Q 25.390625 66.40625 21.84375 63.234375 
Q 18.3125 60.0625 18.3125 54.390625 
" id="BitstreamVeraSans-Roman-38"/>
      </defs>
      <g transform="translate(1052.80125 773.7953125)scale(0.3 -0.3)">
       <use xlink:href="#BitstreamVeraSans-Roman-38"/>
       <use x="63.623046875" xlink:href="#BitstreamVeraSans-Roman-30"/>
       <use x="127.24609375" xlink:href="#BitstreamVeraSans-Roman-30"/>
       <use x="190.869140625" xlink:href="#BitstreamVeraSans-Roman-30"/>
       <use x="254.4921875" xlink:href="#BitstreamVeraSans-Roman-30"/>
      </g>
     </g>
    </g>
    <g id="xtick_6">
     <g id="line2d_13">
      <g>
       <use style="stroke:#000000;stroke-width:0.5;" x="1336.05" xlink:href="#m02b5a7dd97" y="747.0"/>
      </g>
     </g>
     <g id="line2d_14">
      <g>
       <use style="stroke:#000000;stroke-width:0.5;" x="1336.05" xlink:href="#m79a058a662" y="51.3"/>
      </g>
     </g>
     <g id="text_6">
      <!-- 100000 -->
      <defs>
       <path d="M 12.40625 8.296875 
L 28.515625 8.296875 
L 28.515625 63.921875 
L 10.984375 60.40625 
L 10.984375 69.390625 
L 28.421875 72.90625 
L 38.28125 72.90625 
L 38.28125 8.296875 
L 54.390625 8.296875 
L 54.390625 0 
L 12.40625 0 
z
" id="BitstreamVeraSans-Roman-31"/>
      </defs>
      <g transform="translate(1278.7875 773.7953125)scale(0.3 -0.3)">
       <use xlink:href="#BitstreamVeraSans-Roman-31"/>
       <use x="63.623046875" xlink:href="#BitstreamVeraSans-Roman-30"/>
       <use x="127.24609375" xlink:href="#BitstreamVeraSans-Roman-30"/>
       <use x="190.869140625" xlink:href="#BitstreamVeraSans-Roman-30"/>
       <use x="254.4921875" xlink:href="#BitstreamVeraSans-Roman-30"/>
       <use x="318.115234375" xlink:href="#BitstreamVeraSans-Roman-30"/>
      </g>
     </g>
    </g>
    <g id="text_7">
     <!-- iterations -->
     <defs>
      <path d="M 54.890625 33.015625 
L 54.890625 0 
L 45.90625 0 
L 45.90625 32.71875 
Q 45.90625 40.484375 42.875 44.328125 
Q 39.84375 48.1875 33.796875 48.1875 
Q 26.515625 48.1875 22.3125 43.546875 
Q 18.109375 38.921875 18.109375 30.90625 
L 18.109375 0 
L 9.078125 0 
L 9.078125 54.6875 
L 18.109375 54.6875 
L 18.109375 46.1875 
Q 21.34375 51.125 25.703125 53.5625 
Q 30.078125 56 35.796875 56 
Q 45.21875 56 50.046875 50.171875 
Q 54.890625 44.34375 54.890625 33.015625 
" id="BitstreamVeraSans-Roman-6e"/>
      <path d="M 34.28125 27.484375 
Q 23.390625 27.484375 19.1875 25 
Q 14.984375 22.515625 14.984375 16.5 
Q 14.984375 11.71875 18.140625 8.90625 
Q 21.296875 6.109375 26.703125 6.109375 
Q 34.1875 6.109375 38.703125 11.40625 
Q 43.21875 16.703125 43.21875 25.484375 
L 43.21875 27.484375 
z
M 52.203125 31.203125 
L 52.203125 0 
L 43.21875 0 
L 43.21875 8.296875 
Q 40.140625 3.328125 35.546875 0.953125 
Q 30.953125 -1.421875 24.3125 -1.421875 
Q 15.921875 -1.421875 10.953125 3.296875 
Q 6 8.015625 6 15.921875 
Q 6 25.140625 12.171875 29.828125 
Q 18.359375 34.515625 30.609375 34.515625 
L 43.21875 34.515625 
L 43.21875 35.40625 
Q 43.21875 41.609375 39.140625 45 
Q 35.0625 48.390625 27.6875 48.390625 
Q 23 48.390625 18.546875 47.265625 
Q 14.109375 46.140625 10.015625 43.890625 
L 10.015625 52.203125 
Q 14.9375 54.109375 19.578125 55.046875 
Q 24.21875 56 28.609375 56 
Q 40.484375 56 46.34375 49.84375 
Q 52.203125 43.703125 52.203125 31.203125 
" id="BitstreamVeraSans-Roman-61"/>
      <path d="M 30.609375 48.390625 
Q 23.390625 48.390625 19.1875 42.75 
Q 14.984375 37.109375 14.984375 27.296875 
Q 14.984375 17.484375 19.15625 11.84375 
Q 23.34375 6.203125 30.609375 6.203125 
Q 37.796875 6.203125 41.984375 11.859375 
Q 46.1875 17.53125 46.1875 27.296875 
Q 46.1875 37.015625 41.984375 42.703125 
Q 37.796875 48.390625 30.609375 48.390625 
M 30.609375 56 
Q 42.328125 56 49.015625 48.375 
Q 55.71875 40.765625 55.71875 27.296875 
Q 55.71875 13.875 49.015625 6.21875 
Q 42.328125 -1.421875 30.609375 -1.421875 
Q 18.84375 -1.421875 12.171875 6.21875 
Q 5.515625 13.875 5.515625 27.296875 
Q 5.515625 40.765625 12.171875 48.375 
Q 18.84375 56 30.609375 56 
" id="BitstreamVeraSans-Roman-6f"/>
      <path d="M 9.421875 54.6875 
L 18.40625 54.6875 
L 18.40625 0 
L 9.421875 0 
z
M 9.421875 75.984375 
L 18.40625 75.984375 
L 18.40625 64.59375 
L 9.421875 64.59375 
z
" id="BitstreamVeraSans-Roman-69"/>
      <path d="M 56.203125 29.59375 
L 56.203125 25.203125 
L 14.890625 25.203125 
Q 15.484375 15.921875 20.484375 11.0625 
Q 25.484375 6.203125 34.421875 6.203125 
Q 39.59375 6.203125 44.453125 7.46875 
Q 49.3125 8.734375 54.109375 11.28125 
L 54.109375 2.78125 
Q 49.265625 0.734375 44.1875 -0.34375 
Q 39.109375 -1.421875 33.890625 -1.421875 
Q 20.796875 -1.421875 13.15625 6.1875 
Q 5.515625 13.8125 5.515625 26.8125 
Q 5.515625 40.234375 12.765625 48.109375 
Q 20.015625 56 32.328125 56 
Q 43.359375 56 49.78125 48.890625 
Q 56.203125 41.796875 56.203125 29.59375 
M 47.21875 32.234375 
Q 47.125 39.59375 43.09375 43.984375 
Q 39.0625 48.390625 32.421875 48.390625 
Q 24.90625 48.390625 20.390625 44.140625 
Q 15.875 39.890625 15.1875 32.171875 
z
" id="BitstreamVeraSans-Roman-65"/>
      <path d="M 18.3125 70.21875 
L 18.3125 54.6875 
L 36.8125 54.6875 
L 36.8125 47.703125 
L 18.3125 47.703125 
L 18.3125 18.015625 
Q 18.3125 11.328125 20.140625 9.421875 
Q 21.96875 7.515625 27.59375 7.515625 
L 36.8125 7.515625 
L 36.8125 0 
L 27.59375 0 
Q 17.1875 0 13.234375 3.875 
Q 9.28125 7.765625 9.28125 18.015625 
L 9.28125 47.703125 
L 2.6875 47.703125 
L 2.6875 54.6875 
L 9.28125 54.6875 
L 9.28125 70.21875 
z
" id="BitstreamVeraSans-Roman-74"/>
      <path d="M 41.109375 46.296875 
Q 39.59375 47.171875 37.8125 47.578125 
Q 36.03125 48 33.890625 48 
Q 26.265625 48 22.1875 43.046875 
Q 18.109375 38.09375 18.109375 28.8125 
L 18.109375 0 
L 9.078125 0 
L 9.078125 54.6875 
L 18.109375 54.6875 
L 18.109375 46.1875 
Q 20.953125 51.171875 25.484375 53.578125 
Q 30.03125 56 36.53125 56 
Q 37.453125 56 38.578125 55.875 
Q 39.703125 55.765625 41.0625 55.515625 
z
" id="BitstreamVeraSans-Roman-72"/>
      <path d="M 44.28125 53.078125 
L 44.28125 44.578125 
Q 40.484375 46.53125 36.375 47.5 
Q 32.28125 48.484375 27.875 48.484375 
Q 21.1875 48.484375 17.84375 46.4375 
Q 14.5 44.390625 14.5 40.28125 
Q 14.5 37.15625 16.890625 35.375 
Q 19.28125 33.59375 26.515625 31.984375 
L 29.59375 31.296875 
Q 39.15625 29.25 43.1875 25.515625 
Q 47.21875 21.78125 47.21875 15.09375 
Q 47.21875 7.46875 41.1875 3.015625 
Q 35.15625 -1.421875 24.609375 -1.421875 
Q 20.21875 -1.421875 15.453125 -0.5625 
Q 10.6875 0.296875 5.421875 2 
L 5.421875 11.28125 
Q 10.40625 8.6875 15.234375 7.390625 
Q 20.0625 6.109375 24.8125 6.109375 
Q 31.15625 6.109375 34.5625 8.28125 
Q 37.984375 10.453125 37.984375 14.40625 
Q 37.984375 18.0625 35.515625 20.015625 
Q 33.0625 21.96875 24.703125 23.78125 
L 21.578125 24.515625 
Q 13.234375 26.265625 9.515625 29.90625 
Q 5.8125 33.546875 5.8125 39.890625 
Q 5.8125 47.609375 11.28125 51.796875 
Q 16.75 56 26.8125 56 
Q 31.78125 56 36.171875 55.265625 
Q 40.578125 54.546875 44.28125 53.078125 
" id="BitstreamVeraSans-Roman-73"/>
     </defs>
     <g transform="translate(676.04296875 807.8296875)scale(0.3 -0.3)">
      <use xlink:href="#BitstreamVeraSans-Roman-69"/>
      <use x="27.783203125" xlink:href="#BitstreamVeraSans-Roman-74"/>
      <use x="66.9921875" xlink:href="#BitstreamVeraSans-Roman-65"/>
      <use x="128.515625" xlink:href="#BitstreamVeraSans-Roman-72"/>
      <use x="169.62890625" xlink:href="#BitstreamVeraSans-Roman-61"/>
      <use x="230.908203125" xlink:href="#BitstreamVeraSans-Roman-74"/>
      <use x="270.1171875" xlink:href="#BitstreamVeraSans-Roman-69"/>
      <use x="297.900390625" xlink:href="#BitstreamVeraSans-Roman-6f"/>
      <use x="359.08203125" xlink:href="#BitstreamVeraSans-Roman-6e"/>
      <use x="422.4609375" xlink:href="#BitstreamVeraSans-Roman-73"/>
     </g>
    </g>
   </g>
   <g id="matplotlib.axis_2">
    <g id="ytick_1">
     <g id="line2d_15">
      <defs>
       <path d="M 0 0 
L 4 0 
" id="ma6bd14cb5d" style="stroke:#000000;stroke-width:0.5;"/>
      </defs>
      <g>
       <use style="stroke:#000000;stroke-width:0.5;" x="158.4" xlink:href="#ma6bd14cb5d" y="747.0"/>
      </g>
     </g>
     <g id="line2d_16">
      <defs>
       <path d="M 0 0 
L -4 0 
" id="mb713115ba5" style="stroke:#000000;stroke-width:0.5;"/>
      </defs>
      <g>
       <use style="stroke:#000000;stroke-width:0.5;" x="1336.05" xlink:href="#mb713115ba5" y="747.0"/>
      </g>
     </g>
     <g id="text_8">
      <!-- 70 -->
      <defs>
       <path d="M 10.59375 35.5 
L 73.1875 35.5 
L 73.1875 27.203125 
L 10.59375 27.203125 
z
" id="BitstreamVeraSans-Roman-2212"/>
       <path d="M 8.203125 72.90625 
L 55.078125 72.90625 
L 55.078125 68.703125 
L 28.609375 0 
L 18.3125 0 
L 43.21875 64.59375 
L 8.203125 64.59375 
z
" id="BitstreamVeraSans-Roman-37"/>
      </defs>
      <g transform="translate(91.0859375 755.278125)scale(0.3 -0.3)">
       <use xlink:href="#BitstreamVeraSans-Roman-2212"/>
       <use x="83.7890625" xlink:href="#BitstreamVeraSans-Roman-37"/>
       <use x="147.412109375" xlink:href="#BitstreamVeraSans-Roman-30"/>
      </g>
     </g>
    </g>
    <g id="ytick_2">
     <g id="line2d_17">
      <g>
       <use style="stroke:#000000;stroke-width:0.5;" x="158.4" xlink:href="#ma6bd14cb5d" y="660.0375"/>
      </g>
     </g>
     <g id="line2d_18">
      <g>
       <use style="stroke:#000000;stroke-width:0.5;" x="1336.05" xlink:href="#mb713115ba5" y="660.0375"/>
      </g>
     </g>
     <g id="text_9">
      <!-- 60 -->
      <g transform="translate(91.0859375 668.315625)scale(0.3 -0.3)">
       <use xlink:href="#BitstreamVeraSans-Roman-2212"/>
       <use x="83.7890625" xlink:href="#BitstreamVeraSans-Roman-36"/>
       <use x="147.412109375" xlink:href="#BitstreamVeraSans-Roman-30"/>
      </g>
     </g>
    </g>
    <g id="ytick_3">
     <g id="line2d_19">
      <g>
       <use style="stroke:#000000;stroke-width:0.5;" x="158.4" xlink:href="#ma6bd14cb5d" y="573.075"/>
      </g>
     </g>
     <g id="line2d_20">
      <g>
       <use style="stroke:#000000;stroke-width:0.5;" x="1336.05" xlink:href="#mb713115ba5" y="573.075"/>
      </g>
     </g>
     <g id="text_10">
      <!-- 50 -->
      <defs>
       <path d="M 10.796875 72.90625 
L 49.515625 72.90625 
L 49.515625 64.59375 
L 19.828125 64.59375 
L 19.828125 46.734375 
Q 21.96875 47.46875 24.109375 47.828125 
Q 26.265625 48.1875 28.421875 48.1875 
Q 40.625 48.1875 47.75 41.5 
Q 54.890625 34.8125 54.890625 23.390625 
Q 54.890625 11.625 47.5625 5.09375 
Q 40.234375 -1.421875 26.90625 -1.421875 
Q 22.3125 -1.421875 17.546875 -0.640625 
Q 12.796875 0.140625 7.71875 1.703125 
L 7.71875 11.625 
Q 12.109375 9.234375 16.796875 8.0625 
Q 21.484375 6.890625 26.703125 6.890625 
Q 35.15625 6.890625 40.078125 11.328125 
Q 45.015625 15.765625 45.015625 23.390625 
Q 45.015625 31 40.078125 35.4375 
Q 35.15625 39.890625 26.703125 39.890625 
Q 22.75 39.890625 18.8125 39.015625 
Q 14.890625 38.140625 10.796875 36.28125 
z
" id="BitstreamVeraSans-Roman-35"/>
      </defs>
      <g transform="translate(91.0859375 581.353125)scale(0.3 -0.3)">
       <use xlink:href="#BitstreamVeraSans-Roman-2212"/>
       <use x="83.7890625" xlink:href="#BitstreamVeraSans-Roman-35"/>
       <use x="147.412109375" xlink:href="#BitstreamVeraSans-Roman-30"/>
      </g>
     </g>
    </g>
    <g id="ytick_4">
     <g id="line2d_21">
      <g>
       <use style="stroke:#000000;stroke-width:0.5;" x="158.4" xlink:href="#ma6bd14cb5d" y="486.1125"/>
      </g>
     </g>
     <g id="line2d_22">
      <g>
       <use style="stroke:#000000;stroke-width:0.5;" x="1336.05" xlink:href="#mb713115ba5" y="486.1125"/>
      </g>
     </g>
     <g id="text_11">
      <!-- 40 -->
      <g transform="translate(91.0859375 494.390625)scale(0.3 -0.3)">
       <use xlink:href="#BitstreamVeraSans-Roman-2212"/>
       <use x="83.7890625" xlink:href="#BitstreamVeraSans-Roman-34"/>
       <use x="147.412109375" xlink:href="#BitstreamVeraSans-Roman-30"/>
      </g>
     </g>
    </g>
    <g id="ytick_5">
     <g id="line2d_23">
      <g>
       <use style="stroke:#000000;stroke-width:0.5;" x="158.4" xlink:href="#ma6bd14cb5d" y="399.15"/>
      </g>
     </g>
     <g id="line2d_24">
      <g>
       <use style="stroke:#000000;stroke-width:0.5;" x="1336.05" xlink:href="#mb713115ba5" y="399.15"/>
      </g>
     </g>
     <g id="text_12">
      <!-- 30 -->
      <defs>
       <path d="M 40.578125 39.3125 
Q 47.65625 37.796875 51.625 33 
Q 55.609375 28.21875 55.609375 21.1875 
Q 55.609375 10.40625 48.1875 4.484375 
Q 40.765625 -1.421875 27.09375 -1.421875 
Q 22.515625 -1.421875 17.65625 -0.515625 
Q 12.796875 0.390625 7.625 2.203125 
L 7.625 11.71875 
Q 11.71875 9.328125 16.59375 8.109375 
Q 21.484375 6.890625 26.8125 6.890625 
Q 36.078125 6.890625 40.9375 10.546875 
Q 45.796875 14.203125 45.796875 21.1875 
Q 45.796875 27.640625 41.28125 31.265625 
Q 36.765625 34.90625 28.71875 34.90625 
L 20.21875 34.90625 
L 20.21875 43.015625 
L 29.109375 43.015625 
Q 36.375 43.015625 40.234375 45.921875 
Q 44.09375 48.828125 44.09375 54.296875 
Q 44.09375 59.90625 40.109375 62.90625 
Q 36.140625 65.921875 28.71875 65.921875 
Q 24.65625 65.921875 20.015625 65.03125 
Q 15.375 64.15625 9.8125 62.3125 
L 9.8125 71.09375 
Q 15.4375 72.65625 20.34375 73.4375 
Q 25.25 74.21875 29.59375 74.21875 
Q 40.828125 74.21875 47.359375 69.109375 
Q 53.90625 64.015625 53.90625 55.328125 
Q 53.90625 49.265625 50.4375 45.09375 
Q 46.96875 40.921875 40.578125 39.3125 
" id="BitstreamVeraSans-Roman-33"/>
      </defs>
      <g transform="translate(91.0859375 407.428125)scale(0.3 -0.3)">
       <use xlink:href="#BitstreamVeraSans-Roman-2212"/>
       <use x="83.7890625" xlink:href="#BitstreamVeraSans-Roman-33"/>
       <use x="147.412109375" xlink:href="#BitstreamVeraSans-Roman-30"/>
      </g>
     </g>
    </g>
    <g id="ytick_6">
     <g id="line2d_25">
      <g>
       <use style="stroke:#000000;stroke-width:0.5;" x="158.4" xlink:href="#ma6bd14cb5d" y="312.1875"/>
      </g>
     </g>
     <g id="line2d_26">
      <g>
       <use style="stroke:#000000;stroke-width:0.5;" x="1336.05" xlink:href="#mb713115ba5" y="312.1875"/>
      </g>
     </g>
     <g id="text_13">
      <!-- 20 -->
      <g transform="translate(91.0859375 320.465625)scale(0.3 -0.3)">
       <use xlink:href="#BitstreamVeraSans-Roman-2212"/>
       <use x="83.7890625" xlink:href="#BitstreamVeraSans-Roman-32"/>
       <use x="147.412109375" xlink:href="#BitstreamVeraSans-Roman-30"/>
      </g>
     </g>
    </g>
    <g id="ytick_7">
     <g id="line2d_27">
      <g>
       <use style="stroke:#000000;stroke-width:0.5;" x="158.4" xlink:href="#ma6bd14cb5d" y="225.225"/>
      </g>
     </g>
     <g id="line2d_28">
      <g>
       <use style="stroke:#000000;stroke-width:0.5;" x="1336.05" xlink:href="#mb713115ba5" y="225.225"/>
      </g>
     </g>
     <g id="text_14">
      <!-- 10 -->
      <g transform="translate(91.0859375 233.503125)scale(0.3 -0.3)">
       <use xlink:href="#BitstreamVeraSans-Roman-2212"/>
       <use x="83.7890625" xlink:href="#BitstreamVeraSans-Roman-31"/>
       <use x="147.412109375" xlink:href="#BitstreamVeraSans-Roman-30"/>
      </g>
     </g>
    </g>
    <g id="ytick_8">
     <g id="line2d_29">
      <g>
       <use style="stroke:#000000;stroke-width:0.5;" x="158.4" xlink:href="#ma6bd14cb5d" y="138.2625"/>
      </g>
     </g>
     <g id="line2d_30">
      <g>
       <use style="stroke:#000000;stroke-width:0.5;" x="1336.05" xlink:href="#mb713115ba5" y="138.2625"/>
      </g>
     </g>
     <g id="text_15">
      <!-- 0 -->
      <g transform="translate(135.3125 146.540625)scale(0.3 -0.3)">
       <use xlink:href="#BitstreamVeraSans-Roman-30"/>
      </g>
     </g>
    </g>
    <g id="ytick_9">
     <g id="line2d_31">
      <g>
       <use style="stroke:#000000;stroke-width:0.5;" x="158.4" xlink:href="#ma6bd14cb5d" y="51.3"/>
      </g>
     </g>
     <g id="line2d_32">
      <g>
       <use style="stroke:#000000;stroke-width:0.5;" x="1336.05" xlink:href="#mb713115ba5" y="51.3"/>
      </g>
     </g>
     <g id="text_16">
      <!-- 10 -->
      <g transform="translate(116.225 59.578125)scale(0.3 -0.3)">
       <use xlink:href="#BitstreamVeraSans-Roman-31"/>
       <use x="63.623046875" xlink:href="#BitstreamVeraSans-Roman-30"/>
      </g>
     </g>
    </g>
    <g id="text_17">
     <!-- log(loss) -->
     <defs>
      <path d="M 8.015625 75.875 
L 15.828125 75.875 
Q 23.140625 64.359375 26.78125 53.3125 
Q 30.421875 42.28125 30.421875 31.390625 
Q 30.421875 20.453125 26.78125 9.375 
Q 23.140625 -1.703125 15.828125 -13.1875 
L 8.015625 -13.1875 
Q 14.5 -2 17.703125 9.0625 
Q 20.90625 20.125 20.90625 31.390625 
Q 20.90625 42.671875 17.703125 53.65625 
Q 14.5 64.65625 8.015625 75.875 
" id="BitstreamVeraSans-Roman-29"/>
      <path d="M 31 75.875 
Q 24.46875 64.65625 21.28125 53.65625 
Q 18.109375 42.671875 18.109375 31.390625 
Q 18.109375 20.125 21.3125 9.0625 
Q 24.515625 -2 31 -13.1875 
L 23.1875 -13.1875 
Q 15.875 -1.703125 12.234375 9.375 
Q 8.59375 20.453125 8.59375 31.390625 
Q 8.59375 42.28125 12.203125 53.3125 
Q 15.828125 64.359375 23.1875 75.875 
z
" id="BitstreamVeraSans-Roman-28"/>
      <path d="M 45.40625 27.984375 
Q 45.40625 37.75 41.375 43.109375 
Q 37.359375 48.484375 30.078125 48.484375 
Q 22.859375 48.484375 18.828125 43.109375 
Q 14.796875 37.75 14.796875 27.984375 
Q 14.796875 18.265625 18.828125 12.890625 
Q 22.859375 7.515625 30.078125 7.515625 
Q 37.359375 7.515625 41.375 12.890625 
Q 45.40625 18.265625 45.40625 27.984375 
M 54.390625 6.78125 
Q 54.390625 -7.171875 48.1875 -13.984375 
Q 42 -20.796875 29.203125 -20.796875 
Q 24.46875 -20.796875 20.265625 -20.09375 
Q 16.0625 -19.390625 12.109375 -17.921875 
L 12.109375 -9.1875 
Q 16.0625 -11.328125 19.921875 -12.34375 
Q 23.78125 -13.375 27.78125 -13.375 
Q 36.625 -13.375 41.015625 -8.765625 
Q 45.40625 -4.15625 45.40625 5.171875 
L 45.40625 9.625 
Q 42.625 4.78125 38.28125 2.390625 
Q 33.9375 0 27.875 0 
Q 17.828125 0 11.671875 7.65625 
Q 5.515625 15.328125 5.515625 27.984375 
Q 5.515625 40.671875 11.671875 48.328125 
Q 17.828125 56 27.875 56 
Q 33.9375 56 38.28125 53.609375 
Q 42.625 51.21875 45.40625 46.390625 
L 45.40625 54.6875 
L 54.390625 54.6875 
z
" id="BitstreamVeraSans-Roman-67"/>
      <path d="M 9.421875 75.984375 
L 18.40625 75.984375 
L 18.40625 0 
L 9.421875 0 
z
" id="BitstreamVeraSans-Roman-6c"/>
     </defs>
     <g transform="translate(79.846875 462.69609375)rotate(-90.0)scale(0.3 -0.3)">
      <use xlink:href="#BitstreamVeraSans-Roman-6c"/>
      <use x="27.783203125" xlink:href="#BitstreamVeraSans-Roman-6f"/>
      <use x="88.96484375" xlink:href="#BitstreamVeraSans-Roman-67"/>
      <use x="152.44140625" xlink:href="#BitstreamVeraSans-Roman-28"/>
      <use x="191.455078125" xlink:href="#BitstreamVeraSans-Roman-6c"/>
      <use x="219.23828125" xlink:href="#BitstreamVeraSans-Roman-6f"/>
      <use x="280.419921875" xlink:href="#BitstreamVeraSans-Roman-73"/>
      <use x="332.51953125" xlink:href="#BitstreamVeraSans-Roman-73"/>
      <use x="384.619140625" xlink:href="#BitstreamVeraSans-Roman-29"/>
     </g>
    </g>
   </g>
   <g id="legend_1">
    <g id="patch_7">
     <path d="M 843.876562 163.36875 
L 1321.05 163.36875 
L 1321.05 66.3 
L 843.876562 66.3 
z
" style="fill:#ffffff;stroke:#000000;stroke-linejoin:miter;"/>
    </g>
    <g id="line2d_33">
     <path d="M 864.876562 90.595312 
L 906.876562 90.595312 
" style="fill:none;stroke:#0000ff;stroke-linecap:square;stroke-width:2.0;"/>
    </g>
    <g id="line2d_34"/>
    <g id="text_18">
     <!-- random: step=0.003938 -->
     <defs>
      <path id="BitstreamVeraSans-Roman-20"/>
      <path d="M 52 44.1875 
Q 55.375 50.25 60.0625 53.125 
Q 64.75 56 71.09375 56 
Q 79.640625 56 84.28125 50.015625 
Q 88.921875 44.046875 88.921875 33.015625 
L 88.921875 0 
L 79.890625 0 
L 79.890625 32.71875 
Q 79.890625 40.578125 77.09375 44.375 
Q 74.3125 48.1875 68.609375 48.1875 
Q 61.625 48.1875 57.5625 43.546875 
Q 53.515625 38.921875 53.515625 30.90625 
L 53.515625 0 
L 44.484375 0 
L 44.484375 32.71875 
Q 44.484375 40.625 41.703125 44.40625 
Q 38.921875 48.1875 33.109375 48.1875 
Q 26.21875 48.1875 22.15625 43.53125 
Q 18.109375 38.875 18.109375 30.90625 
L 18.109375 0 
L 9.078125 0 
L 9.078125 54.6875 
L 18.109375 54.6875 
L 18.109375 46.1875 
Q 21.1875 51.21875 25.484375 53.609375 
Q 29.78125 56 35.6875 56 
Q 41.65625 56 45.828125 52.96875 
Q 50 49.953125 52 44.1875 
" id="BitstreamVeraSans-Roman-6d"/>
      <path d="M 10.984375 1.515625 
L 10.984375 10.5 
Q 14.703125 8.734375 18.5 7.8125 
Q 22.3125 6.890625 25.984375 6.890625 
Q 35.75 6.890625 40.890625 13.453125 
Q 46.046875 20.015625 46.78125 33.40625 
Q 43.953125 29.203125 39.59375 26.953125 
Q 35.25 24.703125 29.984375 24.703125 
Q 19.046875 24.703125 12.671875 31.3125 
Q 6.296875 37.9375 6.296875 49.421875 
Q 6.296875 60.640625 12.9375 67.421875 
Q 19.578125 74.21875 30.609375 74.21875 
Q 43.265625 74.21875 49.921875 64.515625 
Q 56.59375 54.828125 56.59375 36.375 
Q 56.59375 19.140625 48.40625 8.859375 
Q 40.234375 -1.421875 26.421875 -1.421875 
Q 22.703125 -1.421875 18.890625 -0.6875 
Q 15.09375 0.046875 10.984375 1.515625 
M 30.609375 32.421875 
Q 37.25 32.421875 41.125 36.953125 
Q 45.015625 41.5 45.015625 49.421875 
Q 45.015625 57.28125 41.125 61.84375 
Q 37.25 66.40625 30.609375 66.40625 
Q 23.96875 66.40625 20.09375 61.84375 
Q 16.21875 57.28125 16.21875 49.421875 
Q 16.21875 41.5 20.09375 36.953125 
Q 23.96875 32.421875 30.609375 32.421875 
" id="BitstreamVeraSans-Roman-39"/>
      <path d="M 11.71875 12.40625 
L 22.015625 12.40625 
L 22.015625 0 
L 11.71875 0 
z
M 11.71875 51.703125 
L 22.015625 51.703125 
L 22.015625 39.3125 
L 11.71875 39.3125 
z
" id="BitstreamVeraSans-Roman-3a"/>
      <path d="M 10.6875 12.40625 
L 21 12.40625 
L 21 0 
L 10.6875 0 
z
" id="BitstreamVeraSans-Roman-2e"/>
      <path d="M 10.59375 45.40625 
L 73.1875 45.40625 
L 73.1875 37.203125 
L 10.59375 37.203125 
z
M 10.59375 25.484375 
L 73.1875 25.484375 
L 73.1875 17.1875 
L 10.59375 17.1875 
z
" id="BitstreamVeraSans-Roman-3d"/>
      <path d="M 45.40625 46.390625 
L 45.40625 75.984375 
L 54.390625 75.984375 
L 54.390625 0 
L 45.40625 0 
L 45.40625 8.203125 
Q 42.578125 3.328125 38.25 0.953125 
Q 33.9375 -1.421875 27.875 -1.421875 
Q 17.96875 -1.421875 11.734375 6.484375 
Q 5.515625 14.40625 5.515625 27.296875 
Q 5.515625 40.1875 11.734375 48.09375 
Q 17.96875 56 27.875 56 
Q 33.9375 56 38.25 53.625 
Q 42.578125 51.265625 45.40625 46.390625 
M 14.796875 27.296875 
Q 14.796875 17.390625 18.875 11.75 
Q 22.953125 6.109375 30.078125 6.109375 
Q 37.203125 6.109375 41.296875 11.75 
Q 45.40625 17.390625 45.40625 27.296875 
Q 45.40625 37.203125 41.296875 42.84375 
Q 37.203125 48.484375 30.078125 48.484375 
Q 22.953125 48.484375 18.875 42.84375 
Q 14.796875 37.203125 14.796875 27.296875 
" id="BitstreamVeraSans-Roman-64"/>
      <path d="M 18.109375 8.203125 
L 18.109375 -20.796875 
L 9.078125 -20.796875 
L 9.078125 54.6875 
L 18.109375 54.6875 
L 18.109375 46.390625 
Q 20.953125 51.265625 25.265625 53.625 
Q 29.59375 56 35.59375 56 
Q 45.5625 56 51.78125 48.09375 
Q 58.015625 40.1875 58.015625 27.296875 
Q 58.015625 14.40625 51.78125 6.484375 
Q 45.5625 -1.421875 35.59375 -1.421875 
Q 29.59375 -1.421875 25.265625 0.953125 
Q 20.953125 3.328125 18.109375 8.203125 
M 48.6875 27.296875 
Q 48.6875 37.203125 44.609375 42.84375 
Q 40.53125 48.484375 33.40625 48.484375 
Q 26.265625 48.484375 22.1875 42.84375 
Q 18.109375 37.203125 18.109375 27.296875 
Q 18.109375 17.390625 22.1875 11.75 
Q 26.265625 6.109375 33.40625 6.109375 
Q 40.53125 6.109375 44.609375 11.75 
Q 48.6875 17.390625 48.6875 27.296875 
" id="BitstreamVeraSans-Roman-70"/>
     </defs>
     <g transform="translate(939.8765625 101.0953125)scale(0.3 -0.3)">
      <use xlink:href="#BitstreamVeraSans-Roman-72"/>
      <use x="41.11328125" xlink:href="#BitstreamVeraSans-Roman-61"/>
      <use x="102.392578125" xlink:href="#BitstreamVeraSans-Roman-6e"/>
      <use x="165.771484375" xlink:href="#BitstreamVeraSans-Roman-64"/>
      <use x="229.248046875" xlink:href="#BitstreamVeraSans-Roman-6f"/>
      <use x="290.4296875" xlink:href="#BitstreamVeraSans-Roman-6d"/>
      <use x="387.841796875" xlink:href="#BitstreamVeraSans-Roman-3a"/>
      <use x="421.533203125" xlink:href="#BitstreamVeraSans-Roman-20"/>
      <use x="453.3203125" xlink:href="#BitstreamVeraSans-Roman-73"/>
      <use x="505.419921875" xlink:href="#BitstreamVeraSans-Roman-74"/>
      <use x="544.62890625" xlink:href="#BitstreamVeraSans-Roman-65"/>
      <use x="606.15234375" xlink:href="#BitstreamVeraSans-Roman-70"/>
      <use x="669.62890625" xlink:href="#BitstreamVeraSans-Roman-3d"/>
      <use x="753.41796875" xlink:href="#BitstreamVeraSans-Roman-30"/>
      <use x="817.041015625" xlink:href="#BitstreamVeraSans-Roman-2e"/>
      <use x="848.828125" xlink:href="#BitstreamVeraSans-Roman-30"/>
      <use x="912.451171875" xlink:href="#BitstreamVeraSans-Roman-30"/>
      <use x="976.07421875" xlink:href="#BitstreamVeraSans-Roman-33"/>
      <use x="1039.69726562" xlink:href="#BitstreamVeraSans-Roman-39"/>
      <use x="1103.3203125" xlink:href="#BitstreamVeraSans-Roman-33"/>
      <use x="1166.94335938" xlink:href="#BitstreamVeraSans-Roman-38"/>
     </g>
    </g>
    <g id="line2d_35">
     <path d="M 864.876562 134.629687 
L 906.876562 134.629687 
" style="fill:none;stroke:#008000;stroke-dasharray:6.000000,6.000000;stroke-dashoffset:0.0;stroke-width:2.0;"/>
    </g>
    <g id="line2d_36"/>
    <g id="text_19">
     <!-- corr: step=0.003938 -->
     <defs>
      <path d="M 48.78125 52.59375 
L 48.78125 44.1875 
Q 44.96875 46.296875 41.140625 47.34375 
Q 37.3125 48.390625 33.40625 48.390625 
Q 24.65625 48.390625 19.8125 42.84375 
Q 14.984375 37.3125 14.984375 27.296875 
Q 14.984375 17.28125 19.8125 11.734375 
Q 24.65625 6.203125 33.40625 6.203125 
Q 37.3125 6.203125 41.140625 7.25 
Q 44.96875 8.296875 48.78125 10.40625 
L 48.78125 2.09375 
Q 45.015625 0.34375 40.984375 -0.53125 
Q 36.96875 -1.421875 32.421875 -1.421875 
Q 20.0625 -1.421875 12.78125 6.34375 
Q 5.515625 14.109375 5.515625 27.296875 
Q 5.515625 40.671875 12.859375 48.328125 
Q 20.21875 56 33.015625 56 
Q 37.15625 56 41.109375 55.140625 
Q 45.0625 54.296875 48.78125 52.59375 
" id="BitstreamVeraSans-Roman-63"/>
     </defs>
     <g transform="translate(939.8765625 145.1296875)scale(0.3 -0.3)">
      <use xlink:href="#BitstreamVeraSans-Roman-63"/>
      <use x="54.98046875" xlink:href="#BitstreamVeraSans-Roman-6f"/>
      <use x="116.162109375" xlink:href="#BitstreamVeraSans-Roman-72"/>
      <use x="157.259765625" xlink:href="#BitstreamVeraSans-Roman-72"/>
      <use x="198.357421875" xlink:href="#BitstreamVeraSans-Roman-3a"/>
      <use x="232.048828125" xlink:href="#BitstreamVeraSans-Roman-20"/>
      <use x="263.8359375" xlink:href="#BitstreamVeraSans-Roman-73"/>
      <use x="315.935546875" xlink:href="#BitstreamVeraSans-Roman-74"/>
      <use x="355.14453125" xlink:href="#BitstreamVeraSans-Roman-65"/>
      <use x="416.66796875" xlink:href="#BitstreamVeraSans-Roman-70"/>
      <use x="480.14453125" xlink:href="#BitstreamVeraSans-Roman-3d"/>
      <use x="563.93359375" xlink:href="#BitstreamVeraSans-Roman-30"/>
      <use x="627.556640625" xlink:href="#BitstreamVeraSans-Roman-2e"/>
      <use x="659.34375" xlink:href="#BitstreamVeraSans-Roman-30"/>
      <use x="722.966796875" xlink:href="#BitstreamVeraSans-Roman-30"/>
      <use x="786.58984375" xlink:href="#BitstreamVeraSans-Roman-33"/>
      <use x="850.212890625" xlink:href="#BitstreamVeraSans-Roman-39"/>
      <use x="913.8359375" xlink:href="#BitstreamVeraSans-Roman-33"/>
      <use x="977.458984375" xlink:href="#BitstreamVeraSans-Roman-38"/>
     </g>
    </g>
   </g>
  </g>
 </g>
 <defs>
  <clipPath id="p8af6690794">
   <rect height="695.7" width="1177.65" x="158.4" y="51.3"/>
  </clipPath>
 </defs>
</svg>
