<?xml version="1.0" encoding="utf-8" standalone="no"?>
<!DOCTYPE svg PUBLIC "-//W3C//DTD SVG 1.1//EN"
  "http://www.w3.org/Graphics/SVG/1.1/DTD/svg11.dtd">
<!-- Created with matplotlib (http://matplotlib.org/) -->
<svg height="864pt" version="1.1" viewBox="0 0 1440 864" width="1440pt" xmlns="http://www.w3.org/2000/svg" xmlns:xlink="http://www.w3.org/1999/xlink">
 <defs>
  <style type="text/css">
*{stroke-linecap:butt;stroke-linejoin:round;stroke-miterlimit:100000;}
  </style>
 </defs>
 <g id="figure_1">
  <g id="patch_1">
   <path d="M 0 864 
L 1440 864 
L 1440 0 
L 0 0 
z
" style="fill:#ffffff;"/>
  </g>
  <g id="axes_1">
   <g id="patch_2">
    <path d="M 158.4 747 
L 1336.05 747 
L 1336.05 51.3 
L 158.4 51.3 
z
" style="fill:#ffffff;"/>
   </g>
   <g id="line2d_1">
    <path clip-path="url(#pf98c164cda)" d="M 159.57765 131.69583 
L 160.7553 134.926646 
L 163.1106 139.791345 
L 164.28825 141.634752 
L 165.4659 144.999923 
L 166.64355 147.973375 
L 167.8212 149.926517 
L 168.99885 152.980798 
L 170.1765 154.511483 
L 171.35415 155.845563 
L 172.5318 157.600843 
L 173.70945 160.307018 
L 174.8871 161.259262 
L 176.06475 163.560596 
L 177.2424 165.242648 
L 178.42005 167.70133 
L 179.5977 169.849331 
L 180.77535 171.561465 
L 181.953 171.55986 
L 183.13065 173.740373 
L 184.3083 175.090654 
L 185.48595 175.090654 
L 186.6636 178.631448 
L 187.84125 178.629637 
L 189.0189 181.159196 
L 190.19655 181.159196 
L 191.3742 183.41578 
L 192.55185 183.416178 
L 193.7295 185.380453 
L 194.90715 185.380453 
L 196.0848 187.973177 
L 197.26245 187.973153 
L 198.4401 190.548811 
L 199.61775 190.548811 
L 200.7954 192.069593 
L 201.97305 192.069724 
L 203.1507 194.725925 
L 204.32835 194.725993 
L 205.506 196.813441 
L 206.68365 196.813431 
L 207.8613 199.749962 
L 209.03895 199.749874 
L 210.2166 201.938009 
L 211.39425 201.939228 
L 212.5719 204.630276 
L 213.74955 204.630251 
L 214.9272 208.16189 
L 216.10485 208.155983 
L 217.2825 210.026298 
L 218.46015 210.026298 
L 219.6378 212.237386 
L 220.81545 212.23772 
L 221.9931 215.021216 
L 223.17075 215.01986 
L 224.3484 216.826239 
L 225.52605 216.821387 
L 226.7037 217.886479 
L 227.88135 217.886004 
L 229.059 220.410766 
L 230.23665 220.406747 
L 231.4143 222.871706 
L 232.59195 222.872575 
L 234.94725 228.563856 
L 236.1249 228.563856 
L 237.30255 231.026016 
L 238.4802 231.026973 
L 239.65785 233.136378 
L 240.8355 233.136378 
L 242.01315 235.945743 
L 243.1908 235.946128 
L 244.36845 238.622776 
L 245.5461 238.62308 
L 246.72375 241.560152 
L 247.9014 241.560499 
L 249.07905 245.091247 
L 250.2567 245.086619 
L 251.43435 247.925912 
L 252.612 247.916216 
L 253.78965 249.661831 
L 254.9673 249.66052 
L 256.14495 252.275134 
L 257.3226 252.275649 
L 258.50025 254.4424 
L 259.6779 254.44052 
L 260.85555 256.888933 
L 262.0332 256.88835 
L 263.21085 258.97842 
L 264.3885 258.979592 
L 265.56615 261.441682 
L 266.7438 261.441066 
L 267.92145 262.789762 
L 269.0991 262.788704 
L 270.27675 266.148335 
L 271.4544 266.148335 
L 272.63205 269.3623 
L 273.8097 269.363128 
L 274.98735 271.194432 
L 276.165 271.194432 
L 277.34265 274.285792 
L 278.5203 274.286932 
L 279.69795 276.67152 
L 280.8756 276.672746 
L 282.05325 279.775191 
L 283.2309 279.774564 
L 284.40855 282.179095 
L 285.5862 282.179739 
L 286.76385 284.41088 
L 287.9415 284.412011 
L 289.11915 287.266765 
L 290.2968 289.074741 
L 291.47445 289.069717 
L 292.6521 291.121807 
L 293.82975 291.118738 
L 295.0074 293.852199 
L 296.18505 293.852199 
L 297.3627 296.782055 
L 298.54035 296.782055 
L 299.718 298.791669 
L 300.89565 298.791669 
L 302.0733 301.944035 
L 303.25095 301.943775 
L 304.4286 304.121609 
L 305.60625 304.121609 
L 306.7839 306.392406 
L 307.96155 306.395077 
L 309.1392 309.375099 
L 310.31685 309.375099 
L 311.4945 313.114114 
L 312.67215 313.112386 
L 313.8498 315.569077 
L 315.02745 315.568453 
L 316.2051 318.138103 
L 317.38275 318.132717 
L 318.5604 320.6404 
L 319.73805 320.640193 
L 320.9157 323.329298 
L 322.09335 323.329698 
L 323.271 325.944152 
L 324.44865 327.982788 
L 325.6263 330.725003 
L 326.80395 330.725057 
L 327.9816 333.095003 
L 329.15925 333.094064 
L 330.3369 335.743552 
L 331.51455 335.744096 
L 332.6922 337.823501 
L 333.86985 337.823366 
L 335.0475 340.332802 
L 336.22515 340.335761 
L 337.4028 342.639987 
L 338.58045 342.640515 
L 339.7581 345.112915 
L 340.93575 348.092215 
L 342.1134 348.098478 
L 343.29105 350.466878 
L 344.4687 350.468097 
L 345.64635 352.471051 
L 346.824 352.47188 
L 348.00165 355.120952 
L 349.1793 355.11719 
L 350.35695 357.855019 
L 351.5346 357.85503 
L 352.71225 360.301225 
L 353.8899 360.30043 
L 355.06755 363.044961 
L 356.2452 363.046999 
L 357.42285 365.068552 
L 358.6005 365.068887 
L 359.77815 368.038441 
L 360.9558 368.038441 
L 362.13345 370.583519 
L 363.3111 373.476895 
L 364.48875 376.042329 
L 365.6664 376.042927 
L 366.84405 378.727544 
L 368.0217 378.73218 
L 369.19935 382.311015 
L 370.377 382.312944 
L 371.55465 385.081221 
L 372.7323 385.081439 
L 373.90995 386.456974 
L 375.0876 386.456987 
L 376.26525 389.009504 
L 377.4429 389.010578 
L 378.62055 391.812836 
L 379.7982 391.812533 
L 380.97585 395.301134 
L 382.1535 395.301636 
L 383.33115 397.410535 
L 384.5088 397.41078 
L 385.68645 399.889773 
L 386.8641 399.889875 
L 388.04175 402.222128 
L 389.2194 402.218891 
L 390.39705 404.459875 
L 391.5747 404.459867 
L 392.75235 408.030864 
L 393.93 408.030148 
L 395.10765 410.53726 
L 396.2853 410.533946 
L 397.46295 412.802524 
L 398.6406 412.803329 
L 399.81825 414.060852 
L 400.9959 414.059868 
L 402.17355 417.568511 
L 403.3512 417.568644 
L 404.52885 420.93694 
L 405.7065 420.936946 
L 406.88415 423.586066 
L 408.0618 423.585645 
L 409.23945 425.632095 
L 410.4171 425.628892 
L 411.59475 429.048379 
L 412.7724 429.045286 
L 413.95005 431.946554 
L 415.1277 431.946106 
L 416.30535 434.412765 
L 417.483 434.412775 
L 418.66065 436.877625 
L 419.8383 436.87757 
L 421.01595 439.79161 
L 422.1936 439.791425 
L 423.37125 441.832516 
L 424.5489 441.832516 
L 425.72655 444.050755 
L 426.9042 445.459221 
L 428.08185 445.459125 
L 429.2595 448.536252 
L 430.43715 448.536944 
L 431.6148 451.604723 
L 432.79245 451.60441 
L 433.9701 454.118201 
L 435.14775 454.114649 
L 436.3254 457.495286 
L 437.50305 457.495286 
L 438.6807 460.556781 
L 439.85835 460.558468 
L 441.036 463.343902 
L 442.21365 463.342634 
L 443.3913 466.505002 
L 444.56895 466.503411 
L 445.7466 469.616715 
L 446.92425 469.616933 
L 448.1019 471.45991 
L 450.4572 471.45991 
L 452.8125 478.258212 
L 453.99015 478.258212 
L 455.1678 480.816529 
L 456.34545 480.816524 
L 457.5231 483.930347 
L 458.70075 483.936075 
L 459.8784 486.180886 
L 461.05605 486.180224 
L 462.2337 488.471571 
L 463.41135 492.91492 
L 464.589 492.918543 
L 465.76665 496.118935 
L 466.9443 496.1188 
L 468.12195 499.493265 
L 469.2996 499.493282 
L 470.47725 501.664652 
L 471.6549 501.664985 
L 472.83255 504.759279 
L 474.0102 504.760429 
L 475.18785 506.575386 
L 476.3655 506.575269 
L 477.54315 509.550303 
L 478.7208 509.551257 
L 479.89845 512.168549 
L 481.0761 512.16799 
L 482.25375 514.826227 
L 483.4314 514.826227 
L 485.7867 519.530768 
L 486.96435 519.530226 
L 488.142 521.726495 
L 489.31965 521.726495 
L 490.4973 524.176092 
L 491.67495 524.176092 
L 492.8526 526.647799 
L 494.03025 526.647585 
L 495.2079 529.639372 
L 496.38555 529.63925 
L 497.5632 531.971584 
L 498.74085 531.972013 
L 499.9185 533.710862 
L 501.09615 533.710924 
L 502.2738 535.992351 
L 503.45145 535.995155 
L 504.6291 538.424725 
L 505.80675 538.422741 
L 506.9844 540.284585 
L 508.16205 540.284306 
L 509.3397 543.287485 
L 510.51735 543.287485 
L 511.695 545.583866 
L 512.87265 545.583415 
L 514.0503 548.378056 
L 515.22795 548.378056 
L 516.4056 551.010492 
L 517.58325 551.011139 
L 518.7609 553.209772 
L 519.93855 553.209772 
L 521.1162 556.025503 
L 522.29385 556.025818 
L 523.4715 558.868549 
L 524.64915 558.868717 
L 525.8268 563.261754 
L 527.00445 563.257325 
L 528.1821 565.937753 
L 529.35975 565.939292 
L 530.5374 568.74846 
L 531.71505 568.746842 
L 532.8927 570.870008 
L 534.07035 570.871133 
L 536.42565 577.005714 
L 537.6033 577.001646 
L 538.78095 579.905161 
L 539.9586 579.904694 
L 541.13625 583.591895 
L 542.3139 583.598792 
L 543.49155 585.56157 
L 544.6692 585.561011 
L 545.84685 588.010682 
L 547.0245 588.008287 
L 548.20215 590.846161 
L 549.3798 590.846161 
L 550.55745 593.88078 
L 551.7351 593.88078 
L 552.91275 596.937721 
L 554.0904 596.937721 
L 555.26805 599.055957 
L 556.4457 599.055957 
L 557.62335 602.111044 
L 558.801 602.110929 
L 559.97865 605.669825 
L 561.1563 605.671294 
L 562.33395 607.878442 
L 563.5116 607.874977 
L 564.68925 609.934945 
L 565.8669 612.306732 
L 567.04455 612.307101 
L 568.2222 615.268978 
L 569.39985 617.674536 
L 570.5775 617.674045 
L 571.75515 619.730932 
L 572.9328 619.730932 
L 574.11045 622.33959 
L 575.2881 622.341079 
L 576.46575 625.823132 
L 577.6434 625.823132 
L 578.82105 628.140315 
L 579.9987 631.051051 
L 581.17635 631.051097 
L 582.354 633.189987 
L 583.53165 635.744334 
L 584.7093 635.744334 
L 585.88695 638.520689 
L 587.0646 638.520689 
L 588.24225 641.507098 
L 589.4199 641.507098 
L 590.59755 645.270616 
L 591.7752 648.282026 
L 592.95285 648.283011 
L 594.1305 650.724239 
L 595.30815 650.728947 
L 596.4858 652.824657 
L 597.66345 652.824657 
L 598.8411 654.760895 
L 600.01875 654.76192 
L 601.1964 658.843494 
L 602.37405 658.844878 
L 603.5517 661.242022 
L 604.72935 661.240287 
L 605.907 665.319819 
L 607.08465 666.852544 
L 608.2623 666.852544 
L 609.43995 668.823896 
L 610.6176 668.823896 
L 611.79525 672.137512 
L 612.9729 672.137743 
L 614.15055 675.622869 
L 615.3282 675.628408 
L 616.50585 677.030913 
L 617.6835 677.030913 
L 618.86115 679.872546 
L 620.0388 679.872546 
L 621.21645 682.900086 
L 622.3941 682.900086 
L 623.57175 685.310186 
L 624.7494 685.310186 
L 625.92705 687.920454 
L 627.1047 687.912579 
L 628.28235 690.643382 
L 629.46 690.644335 
L 630.63765 692.818255 
L 631.8153 692.815073 
L 632.99295 695.198071 
L 634.1706 695.198117 
L 635.34825 698.401671 
L 636.5259 698.401671 
L 637.70355 701.795382 
L 638.8812 701.78904 
L 640.05885 703.822175 
L 641.2365 703.820797 
L 642.41415 706.085234 
L 644.76945 706.085234 
L 647.12475 712.547905 
L 648.3024 712.541644 
L 649.48005 715.348429 
L 650.6577 715.350711 
L 651.83535 716.924191 
L 653.013 716.919382 
L 654.19065 718.196342 
L 656.54595 718.196342 
L 657.7236 719.853116 
L 658.90125 719.585492 
L 660.0789 719.585492 
L 661.25655 721.309882 
L 667.1448 721.272954 
L 668.32245 722.405786 
L 669.5001 722.405786 
L 670.67775 721.834257 
L 671.8554 721.83495 
L 673.03305 723.388753 
L 674.2107 723.388753 
L 675.38835 723.898943 
L 676.566 723.895814 
L 677.74365 723.370246 
L 678.9213 723.370246 
L 680.09895 722.098325 
L 683.6319 722.01438 
L 684.80955 722.01438 
L 685.9872 723.266397 
L 687.16485 723.848186 
L 688.3425 723.848186 
L 689.52015 724.318381 
L 690.6978 724.318381 
L 691.87545 723.814809 
L 693.0531 723.805445 
L 694.23075 725.267681 
L 695.4084 725.267681 
L 696.58605 724.618017 
L 697.7637 724.618017 
L 698.94135 724.779621 
L 700.119 724.771895 
L 701.29665 724.402355 
L 702.4743 724.402296 
L 703.65195 724.859679 
L 707.1849 724.89821 
L 708.36255 724.346145 
L 709.5402 724.346145 
L 710.71785 723.335102 
L 711.8955 723.330308 
L 713.07315 723.983309 
L 714.2508 723.993381 
L 715.42845 724.283248 
L 718.9614 724.22893 
L 720.13905 723.852214 
L 721.3167 723.852214 
L 722.49435 724.944568 
L 723.672 724.791494 
L 724.84965 724.791494 
L 726.0273 725.783297 
L 727.20495 725.783297 
L 728.3826 723.597128 
L 729.56025 723.606688 
L 730.7379 723.401431 
L 731.91555 723.401431 
L 733.0932 725.16547 
L 734.27085 725.159368 
L 735.4485 724.283867 
L 736.62615 723.814747 
L 737.8038 723.823872 
L 740.1591 723.714128 
L 741.33675 724.022444 
L 742.5144 724.023894 
L 743.69205 724.193686 
L 744.8697 724.193232 
L 746.04735 723.785728 
L 747.225 723.929287 
L 748.40265 723.929287 
L 749.5803 722.80226 
L 750.75795 722.80226 
L 751.9356 721.306859 
L 753.11325 721.306859 
L 754.2909 721.994414 
L 755.46855 721.99605 
L 756.6462 722.166363 
L 757.82385 722.516914 
L 759.0015 722.510523 
L 760.17915 721.500854 
L 763.7121 721.532623 
L 764.88975 722.219051 
L 766.0674 722.473969 
L 767.24505 722.471218 
L 768.4227 723.759886 
L 769.60035 723.765122 
L 770.778 722.235785 
L 771.95565 722.235785 
L 773.1333 722.555549 
L 774.31095 722.557341 
L 775.4886 721.650169 
L 776.66625 721.650169 
L 777.8439 721.150094 
L 779.02155 721.150978 
L 780.1992 722.796472 
L 781.37685 722.800736 
L 782.5545 722.054427 
L 783.73215 722.052244 
L 784.9098 722.408617 
L 786.08745 722.408617 
L 787.2651 723.871728 
L 788.44275 723.871728 
L 789.6204 723.746661 
L 790.79805 723.750389 
L 791.9757 722.109792 
L 793.15335 722.112749 
L 794.331 722.663677 
L 795.50865 722.663677 
L 796.6863 723.891682 
L 797.86395 723.891682 
L 799.0416 724.382389 
L 800.21925 724.382389 
L 801.3969 723.162806 
L 802.57455 723.162806 
L 803.7522 723.284391 
L 804.92985 723.282339 
L 806.1075 723.673709 
L 807.28515 723.669159 
L 808.4628 722.766487 
L 809.64045 722.767576 
L 810.8181 722.30233 
L 811.99575 722.30233 
L 813.1734 722.791229 
L 814.35105 722.791229 
L 815.5287 723.672419 
L 816.70635 723.666634 
L 817.884 722.388347 
L 819.06165 722.388347 
L 820.2393 722.56333 
L 821.41695 722.556349 
L 822.5946 723.730297 
L 823.77225 723.72895 
L 824.9499 724.171984 
L 826.12755 724.171984 
L 827.3052 722.183105 
L 828.48285 722.183105 
L 829.6605 722.872682 
L 830.83815 722.872682 
L 832.0158 723.618756 
L 833.19345 723.620937 
L 834.3711 724.466183 
L 835.54875 724.466302 
L 836.7264 723.738096 
L 837.90405 723.738096 
L 839.0817 723.614876 
L 842.61465 723.710627 
L 843.7923 724.45589 
L 844.96995 723.479589 
L 846.1476 723.477071 
L 847.32525 723.189192 
L 848.5029 723.189192 
L 849.68055 723.384244 
L 850.8582 723.385177 
L 852.03585 723.159463 
L 853.2135 723.161544 
L 854.39115 724.405687 
L 855.5688 724.399401 
L 856.74645 724.950758 
L 857.9241 724.945794 
L 859.10175 724.044839 
L 860.2794 724.037009 
L 861.45705 724.535342 
L 862.6347 724.537705 
L 863.81235 723.804555 
L 864.99 723.801783 
L 866.16765 722.662867 
L 867.3453 722.661385 
L 868.52295 723.524814 
L 872.0559 723.586697 
L 873.23355 722.598797 
L 874.4112 722.598797 
L 875.58885 723.906881 
L 876.7665 723.906881 
L 877.94415 725.806133 
L 879.1218 725.809354 
L 880.29945 724.447533 
L 881.4771 724.438493 
L 882.65475 722.926513 
L 883.8324 722.930959 
L 885.01005 722.600172 
L 886.1877 722.605434 
L 887.36535 722.989429 
L 888.543 722.997514 
L 889.72065 722.759843 
L 890.8983 722.758693 
L 892.07595 723.246286 
L 893.2536 723.246286 
L 894.43125 724.04642 
L 895.6089 724.04642 
L 896.78655 724.427344 
L 897.9642 724.427344 
L 899.14185 723.670307 
L 900.3195 723.654669 
L 901.49715 723.948996 
L 902.6748 723.948996 
L 903.85245 723.567443 
L 905.0301 723.567443 
L 906.20775 724.566285 
L 909.7407 724.541082 
L 910.91835 724.751532 
L 912.096 724.741787 
L 913.27365 722.957964 
L 914.4513 722.962827 
L 915.62895 723.540494 
L 916.8066 723.541183 
L 917.98425 724.359535 
L 919.1619 724.36041 
L 920.33955 724.192641 
L 921.5172 724.18616 
L 922.69485 724.334469 
L 923.8725 724.334469 
L 925.05015 724.579725 
L 926.2278 724.579725 
L 927.40545 723.964056 
L 928.5831 723.962364 
L 929.76075 723.544174 
L 930.9384 723.544174 
L 932.11605 723.688525 
L 933.2937 723.688525 
L 934.47135 724.110522 
L 935.649 724.10102 
L 938.0043 724.213765 
L 939.18195 722.995446 
L 942.7149 723.002348 
L 943.89255 723.797255 
L 945.0702 723.799377 
L 946.24785 723.675102 
L 947.4255 723.675102 
L 948.60315 722.224472 
L 949.7808 722.225887 
L 950.95845 721.125212 
L 952.1361 721.127052 
L 953.31375 722.940314 
L 954.4914 723.501306 
L 955.66905 723.503864 
L 956.8467 724.638479 
L 958.02435 724.637128 
L 959.202 724.038851 
L 960.37965 724.029858 
L 961.5573 723.527211 
L 962.73495 723.220203 
L 963.9126 723.187335 
L 965.09025 723.878527 
L 966.2679 723.878527 
L 967.44555 723.096695 
L 968.6232 724.328505 
L 969.80085 725.341661 
L 970.9785 725.344254 
L 972.15615 724.373896 
L 975.6891 724.374507 
L 976.86675 724.818194 
L 978.0444 724.818194 
L 979.22205 725.131553 
L 980.3997 725.131553 
L 981.57735 722.088174 
L 982.755 722.090348 
L 983.93265 723.302162 
L 985.1103 723.302162 
L 986.28795 723.717527 
L 987.4656 723.722274 
L 988.64325 723.209525 
L 989.8209 723.221545 
L 990.99855 722.896213 
L 992.1762 722.896213 
L 993.35385 722.737653 
L 994.5315 722.755954 
L 995.70915 722.989316 
L 996.8868 722.989064 
L 998.06445 722.315703 
L 999.2421 722.316162 
L 1000.41975 722.464033 
L 1001.5974 722.46703 
L 1002.77505 724.485828 
L 1003.9527 724.485828 
L 1005.13035 723.142242 
L 1006.308 723.131398 
L 1007.48565 721.284229 
L 1009.84095 721.284229 
L 1011.0186 722.369797 
L 1012.19625 721.232699 
L 1013.3739 721.21454 
L 1014.55155 720.703804 
L 1015.7292 720.703804 
L 1016.90685 721.070049 
L 1018.0845 721.070049 
L 1019.26215 722.761482 
L 1022.7951 722.746814 
L 1023.97275 724.493103 
L 1025.1504 724.493103 
L 1026.32805 726.053014 
L 1027.5057 726.053257 
L 1028.68335 723.62557 
L 1029.861 722.708787 
L 1031.03865 722.708787 
L 1032.2163 723.225841 
L 1033.39395 724.118226 
L 1034.5716 724.105538 
L 1035.74925 722.909157 
L 1036.9269 722.911123 
L 1038.10455 722.046485 
L 1039.2822 722.044169 
L 1040.45985 722.884666 
L 1041.6375 722.884666 
L 1042.81515 722.467994 
L 1043.9928 722.467994 
L 1045.17045 723.299982 
L 1046.3481 723.297074 
L 1047.52575 724.299972 
L 1048.7034 724.927822 
L 1049.88105 724.930796 
L 1051.0587 724.181687 
L 1052.23635 725.246019 
L 1053.414 725.246019 
L 1054.59165 723.847992 
L 1055.7693 723.850238 
L 1056.94695 722.800103 
L 1058.1246 722.809557 
L 1059.30225 721.201545 
L 1060.4799 721.197369 
L 1061.65755 722.650894 
L 1062.8352 722.650894 
L 1064.01285 722.447663 
L 1065.1905 722.44617 
L 1066.36815 723.615301 
L 1067.5458 723.627976 
L 1068.72345 722.102922 
L 1069.9011 722.102922 
L 1071.07875 722.807946 
L 1074.6117 722.767276 
L 1075.78935 723.06939 
L 1076.967 723.073992 
L 1078.14465 722.698385 
L 1079.3223 722.69178 
L 1080.49995 723.580787 
L 1081.6776 723.580787 
L 1082.85525 723.416356 
L 1084.0329 723.42007 
L 1085.21055 723.26654 
L 1086.3882 723.26654 
L 1087.56585 723.652215 
L 1088.7435 723.652215 
L 1089.92115 723.042069 
L 1091.0988 723.415162 
L 1093.4541 723.241657 
L 1094.63175 723.569396 
L 1095.8094 723.569396 
L 1096.98705 723.03417 
L 1098.1647 723.040945 
L 1099.34235 723.774691 
L 1102.8753 723.761293 
L 1104.05295 724.020479 
L 1105.2306 724.020479 
L 1106.40825 723.832447 
L 1107.5859 723.829583 
L 1108.76355 724.301556 
L 1109.9412 724.301556 
L 1111.11885 723.972777 
L 1112.2965 723.974641 
L 1113.47415 724.248822 
L 1114.6518 724.248822 
L 1115.82945 723.89955 
L 1117.0071 723.900219 
L 1118.18475 724.693111 
L 1119.3624 723.361178 
L 1120.54005 723.361178 
L 1121.7177 724.325759 
L 1122.89535 724.330981 
L 1124.073 725.143925 
L 1125.25065 725.13218 
L 1126.4283 724.818752 
L 1128.7836 724.818752 
L 1129.96125 724.396057 
L 1131.1389 724.629975 
L 1132.31655 723.926245 
L 1133.4942 724.059101 
L 1135.8495 722.127039 
L 1137.02715 722.507838 
L 1138.2048 721.96485 
L 1139.38245 723.20957 
L 1140.5601 723.64272 
L 1141.73775 723.646647 
L 1142.9154 724.563049 
L 1144.09305 724.563049 
L 1145.2707 724.388634 
L 1146.44835 724.388634 
L 1147.626 724.224108 
L 1148.80365 724.223356 
L 1149.9813 724.542546 
L 1151.15895 724.538711 
L 1152.3366 722.102333 
L 1153.51425 722.103886 
L 1154.6919 722.832684 
L 1155.86955 722.834725 
L 1157.0472 723.340527 
L 1158.22485 723.340527 
L 1159.4025 722.227055 
L 1160.58015 722.230121 
L 1161.7578 721.195428 
L 1162.93545 721.195428 
L 1164.1131 721.028053 
L 1165.29075 721.028053 
L 1166.4684 721.924491 
L 1167.64605 721.925019 
L 1168.8237 722.815784 
L 1170.00135 722.809471 
L 1171.179 723.978333 
L 1173.5343 723.978108 
L 1174.71195 722.22648 
L 1175.8896 722.620858 
L 1177.06725 722.795121 
L 1178.2449 723.302013 
L 1179.42255 723.297035 
L 1181.77785 723.41474 
L 1182.9555 722.629149 
L 1184.13315 722.629149 
L 1185.3108 723.371703 
L 1186.48845 723.375168 
L 1187.6661 722.115463 
L 1188.84375 722.115463 
L 1190.0214 722.22969 
L 1191.19905 722.224064 
L 1192.3767 722.547375 
L 1193.55435 722.550771 
L 1194.732 723.797351 
L 1195.90965 723.797351 
L 1197.0873 723.609722 
L 1198.26495 723.608866 
L 1199.4426 723.99735 
L 1200.62025 723.99735 
L 1201.7979 723.136033 
L 1202.97555 723.136033 
L 1204.1532 721.955323 
L 1205.33085 721.956862 
L 1206.5085 723.08227 
L 1207.68615 723.08227 
L 1208.8638 722.602094 
L 1210.04145 722.602094 
L 1211.2191 722.840069 
L 1212.39675 722.840069 
L 1213.5744 724.689598 
L 1214.75205 724.847013 
L 1218.285 724.898633 
L 1219.46265 724.10743 
L 1220.6403 724.10743 
L 1221.81795 723.246538 
L 1222.9956 723.246215 
L 1224.17325 724.699529 
L 1225.3509 724.699529 
L 1226.52855 725.222179 
L 1227.7062 725.223202 
L 1228.88385 725.514324 
L 1230.0615 725.515541 
L 1231.23915 725.393547 
L 1232.4168 725.399161 
L 1233.59445 724.284793 
L 1234.7721 724.294534 
L 1235.94975 724.166145 
L 1237.1274 724.177792 
L 1238.30505 723.427324 
L 1239.4827 723.427324 
L 1240.66035 723.088803 
L 1241.838 723.088803 
L 1243.01565 724.067754 
L 1244.1933 724.070328 
L 1245.37095 723.389437 
L 1246.5486 723.389437 
L 1247.72625 722.866477 
L 1248.9039 722.866477 
L 1250.08155 723.848484 
L 1251.2592 723.844929 
L 1252.43685 723.620681 
L 1255.9698 723.664041 
L 1257.14745 723.031078 
L 1258.3251 723.033021 
L 1259.50275 725.063284 
L 1260.6804 725.063284 
L 1261.85805 724.09674 
L 1263.0357 724.09674 
L 1264.21335 723.539277 
L 1265.391 723.539277 
L 1266.56865 723.97057 
L 1267.7463 723.97057 
L 1268.92395 723.595734 
L 1270.1016 723.595734 
L 1271.27925 723.246577 
L 1272.4569 723.246577 
L 1273.63455 722.712539 
L 1274.8122 722.713117 
L 1275.98985 723.561224 
L 1278.34515 723.615119 
L 1280.70045 723.539009 
L 1281.8781 722.457067 
L 1283.05575 722.459057 
L 1284.2334 721.812928 
L 1285.41105 722.741955 
L 1286.5887 722.741955 
L 1287.76635 722.167232 
L 1288.944 722.167232 
L 1290.12165 722.391536 
L 1291.2993 722.387257 
L 1292.47695 723.101051 
L 1293.6546 722.613296 
L 1294.83225 722.613296 
L 1296.0099 722.86704 
L 1297.18755 722.866724 
L 1298.3652 721.781285 
L 1299.54285 721.780465 
L 1300.7205 723.863392 
L 1301.89815 723.863392 
L 1303.0758 722.678787 
L 1304.25345 722.678787 
L 1305.4311 722.234484 
L 1306.60875 722.234559 
L 1307.7864 722.112369 
L 1308.96405 722.112369 
L 1310.1417 722.23019 
L 1311.31935 722.23019 
L 1312.497 722.6124 
L 1316.02995 722.580231 
L 1318.38525 722.959948 
L 1319.5629 722.963146 
L 1320.74055 722.040059 
L 1323.09585 722.109327 
L 1324.2735 721.948975 
L 1326.6288 722.050711 
L 1327.80645 723.840967 
L 1328.9841 724.837727 
L 1331.3394 724.837727 
L 1332.51705 724.952142 
L 1333.6947 724.500234 
L 1334.87235 725.052905 
L 1336.05 724.236601 
L 1336.05 724.236601 
" style="fill:none;stroke:#0000ff;stroke-linecap:square;stroke-width:2.0;"/>
   </g>
   <g id="line2d_2">
    <path clip-path="url(#pf98c164cda)" d="M 159.57765 132.191707 
L 160.7553 135.063872 
L 161.93295 137.182602 
L 163.1106 138.899234 
L 165.4659 144.658263 
L 166.64355 146.455238 
L 167.8212 147.919124 
L 168.99885 150.243311 
L 170.1765 152.829651 
L 171.35415 154.455858 
L 173.70945 158.967992 
L 174.8871 160.79433 
L 176.06475 163.962351 
L 177.2424 165.474341 
L 178.42005 168.038659 
L 179.5977 171.152692 
L 181.953 174.294684 
L 183.13065 176.626775 
L 184.3083 178.516456 
L 186.6636 183.300541 
L 187.84125 185.111171 
L 190.19655 189.362828 
L 191.3742 189.362277 
L 192.55185 191.839891 
L 193.7295 191.840991 
L 194.90715 194.713924 
L 196.0848 194.713874 
L 197.26245 197.78777 
L 198.4401 197.790911 
L 199.61775 200.26265 
L 200.7954 200.264218 
L 201.97305 203.604839 
L 203.1507 203.61011 
L 204.32835 205.35025 
L 205.506 205.351478 
L 206.68365 208.876371 
L 207.8613 208.877369 
L 209.03895 211.516541 
L 210.2166 211.516541 
L 211.39425 214.499994 
L 212.5719 214.497086 
L 213.74955 217.448919 
L 214.9272 217.448919 
L 216.10485 218.917263 
L 217.2825 218.917263 
L 218.46015 221.430117 
L 219.6378 221.43001 
L 220.81545 223.848692 
L 221.9931 223.849695 
L 223.17075 227.51937 
L 224.3484 227.516753 
L 225.52605 229.831216 
L 226.7037 229.831216 
L 227.88135 233.097398 
L 229.059 233.098819 
L 230.23665 235.549991 
L 231.4143 235.556114 
L 232.59195 238.225215 
L 233.7696 238.220443 
L 234.94725 241.136962 
L 236.1249 241.138198 
L 237.30255 242.530984 
L 238.4802 242.531296 
L 239.65785 245.589122 
L 240.8355 245.589608 
L 242.01315 247.56097 
L 243.1908 247.560737 
L 244.36845 250.248622 
L 245.5461 250.2488 
L 246.72375 252.216208 
L 247.9014 252.215636 
L 250.2567 258.822552 
L 251.43435 258.822552 
L 253.78965 266.424636 
L 254.9673 266.424636 
L 256.14495 269.347672 
L 257.3226 271.286102 
L 258.50025 271.286102 
L 260.85555 276.467621 
L 262.0332 276.467621 
L 263.21085 279.962775 
L 264.3885 281.034447 
L 265.56615 281.033051 
L 267.92145 287.278688 
L 269.0991 287.278688 
L 270.27675 289.026935 
L 271.4544 289.027623 
L 272.63205 291.749324 
L 273.8097 291.747965 
L 274.98735 294.301409 
L 276.165 297.162467 
L 277.34265 297.165153 
L 279.69795 301.445406 
L 280.8756 301.445406 
L 282.05325 304.224489 
L 283.2309 305.616641 
L 284.40855 305.617755 
L 285.5862 308.794556 
L 286.76385 308.793341 
L 287.9415 311.179556 
L 289.11915 313.968684 
L 290.2968 313.968588 
L 291.47445 316.211454 
L 292.6521 319.945126 
L 293.82975 319.940075 
L 295.0074 321.860456 
L 296.18505 321.860456 
L 297.3627 324.854416 
L 298.54035 326.884768 
L 299.718 326.88157 
L 300.89565 329.720003 
L 302.0733 332.152423 
L 303.25095 332.155175 
L 304.4286 333.372405 
L 305.60625 337.515889 
L 306.7839 337.515889 
L 309.1392 342.51723 
L 310.31685 342.516033 
L 312.67215 348.204128 
L 313.8498 348.204128 
L 315.02745 350.573048 
L 316.2051 353.472135 
L 317.38275 353.471102 
L 318.5604 357.426918 
L 319.73805 359.424998 
L 320.9157 359.424915 
L 322.09335 363.277175 
L 323.271 364.99828 
L 324.44865 364.997847 
L 325.6263 368.907308 
L 326.80395 368.907407 
L 327.9816 371.443512 
L 329.15925 373.522118 
L 330.3369 373.520513 
L 331.51455 377.025255 
L 332.6922 378.931247 
L 333.86985 378.931895 
L 335.0475 381.727301 
L 336.22515 383.794908 
L 337.4028 383.794908 
L 339.7581 388.831458 
L 340.93575 388.829559 
L 342.1134 390.960774 
L 343.29105 390.958347 
L 344.4687 392.72771 
L 345.64635 392.727712 
L 346.824 396.030133 
L 348.00165 398.284217 
L 349.1793 398.284526 
L 350.35695 401.413634 
L 351.5346 403.435722 
L 352.71225 403.43738 
L 353.8899 407.605939 
L 355.06755 409.922048 
L 356.2452 409.922048 
L 357.42285 412.358722 
L 358.6005 412.359485 
L 359.77815 415.497293 
L 360.9558 419.443905 
L 362.13345 419.444097 
L 363.3111 421.651456 
L 364.48875 423.41874 
L 365.6664 423.416836 
L 366.84405 425.017378 
L 368.0217 428.602619 
L 369.19935 428.604205 
L 370.377 430.810286 
L 371.55465 433.937796 
L 372.7323 433.937796 
L 373.90995 436.591582 
L 375.0876 440.627221 
L 376.26525 440.627221 
L 377.4429 441.54464 
L 378.62055 441.54464 
L 379.7982 442.831402 
L 380.97585 442.831511 
L 382.1535 447.05645 
L 383.33115 447.05645 
L 384.5088 448.93455 
L 385.68645 448.933657 
L 386.8641 451.298096 
L 388.04175 454.222341 
L 389.2194 457.531954 
L 390.39705 457.533038 
L 391.5747 460.915908 
L 392.75235 460.914878 
L 393.93 462.869732 
L 395.10765 462.870008 
L 396.2853 465.746949 
L 397.46295 468.155659 
L 398.6406 468.155077 
L 399.81825 470.129508 
L 400.9959 473.058038 
L 402.17355 473.058096 
L 403.3512 475.762786 
L 404.52885 475.762378 
L 406.88415 480.731859 
L 408.0618 480.731624 
L 409.23945 484.206694 
L 410.4171 487.115331 
L 411.59475 487.115772 
L 412.7724 488.962145 
L 413.95005 491.557417 
L 415.1277 491.558656 
L 416.30535 495.048309 
L 417.483 497.383646 
L 418.66065 497.383646 
L 419.8383 500.098644 
L 421.01595 501.391165 
L 422.1936 501.391165 
L 423.37125 505.19269 
L 424.5489 505.192039 
L 425.72655 506.723294 
L 426.9042 506.723294 
L 428.08185 510.588837 
L 429.2595 510.588837 
L 430.43715 512.65304 
L 431.6148 512.651328 
L 432.79245 515.830007 
L 433.9701 515.832271 
L 435.14775 518.534675 
L 436.3254 518.534629 
L 437.50305 521.171504 
L 438.6807 521.171494 
L 439.85835 524.032481 
L 441.036 524.034322 
L 442.21365 526.680589 
L 443.3913 526.678825 
L 444.56895 529.824755 
L 445.7466 529.825166 
L 446.92425 532.972766 
L 448.1019 532.972766 
L 449.27955 535.828082 
L 450.4572 535.828082 
L 451.63485 537.599677 
L 452.8125 537.599677 
L 453.99015 540.433275 
L 455.1678 540.433217 
L 456.34545 542.294676 
L 457.5231 542.293363 
L 458.70075 545.027844 
L 459.8784 545.027941 
L 461.05605 548.370472 
L 462.2337 548.370472 
L 463.41135 551.050769 
L 464.589 551.053918 
L 465.76665 553.860268 
L 466.9443 553.859965 
L 468.12195 556.741578 
L 469.2996 560.673403 
L 470.47725 562.58049 
L 471.6549 565.019961 
L 472.83255 567.011742 
L 475.18785 567.011742 
L 476.3655 571.77806 
L 477.54315 570.910876 
L 478.7208 574.054316 
L 479.89845 574.054316 
L 481.0761 576.835919 
L 482.25375 576.83613 
L 483.4314 579.498173 
L 484.60905 579.498173 
L 485.7867 581.529077 
L 486.96435 581.529407 
L 488.142 585.834968 
L 489.31965 585.834968 
L 490.4973 588.22496 
L 491.67495 588.225514 
L 492.8526 590.547784 
L 494.03025 590.548301 
L 496.38555 595.283037 
L 497.5632 595.283508 
L 498.74085 598.898193 
L 499.9185 598.898345 
L 501.09615 601.50605 
L 502.2738 601.507417 
L 503.45145 604.290043 
L 504.6291 604.288523 
L 505.80675 608.157657 
L 506.9844 608.157859 
L 508.16205 610.621713 
L 509.3397 610.621695 
L 510.51735 612.301229 
L 511.695 612.301117 
L 512.87265 615.422519 
L 514.0503 619.108615 
L 515.22795 619.108818 
L 516.4056 622.433732 
L 517.58325 624.83639 
L 518.7609 624.837556 
L 519.93855 627.503742 
L 521.1162 627.503667 
L 522.29385 629.430312 
L 523.4715 629.430224 
L 524.64915 633.096689 
L 525.8268 633.096628 
L 527.00445 634.938611 
L 528.1821 637.218991 
L 529.35975 637.224711 
L 530.5374 639.783145 
L 531.71505 639.783159 
L 534.07035 645.65244 
L 535.248 645.652448 
L 536.42565 648.267819 
L 537.6033 651.335827 
L 538.78095 651.335827 
L 539.9586 653.211975 
L 541.13625 656.090109 
L 542.3139 656.091652 
L 543.49155 658.813718 
L 544.6692 660.380792 
L 545.84685 660.380792 
L 547.0245 663.077855 
L 548.20215 666.784385 
L 549.3798 666.777256 
L 550.55745 669.537389 
L 551.7351 669.537389 
L 552.91275 672.693479 
L 554.0904 674.997684 
L 555.26805 674.997684 
L 556.4457 677.317397 
L 557.62335 679.294393 
L 558.801 679.290265 
L 559.97865 681.419376 
L 561.1563 683.954653 
L 562.33395 683.958294 
L 564.68925 689.479549 
L 565.8669 689.479936 
L 567.04455 691.79913 
L 568.2222 695.184587 
L 569.39985 695.193448 
L 570.5775 697.708331 
L 571.75515 697.704188 
L 572.9328 700.433317 
L 574.11045 702.252022 
L 575.2881 702.2565 
L 576.46575 703.488686 
L 577.6434 706.192276 
L 578.82105 706.189111 
L 579.9987 709.153804 
L 581.17635 709.153804 
L 582.354 710.307388 
L 583.53165 710.30242 
L 584.7093 711.686522 
L 585.88695 711.690459 
L 587.0646 713.926357 
L 588.24225 715.467781 
L 589.4199 715.474314 
L 590.59755 716.859715 
L 591.7752 716.859715 
L 592.95285 718.124385 
L 594.1305 719.196058 
L 595.30815 719.196058 
L 596.4858 719.81352 
L 597.66345 719.793287 
L 598.8411 719.589517 
L 600.01875 721.78058 
L 601.1964 721.78058 
L 602.37405 721.01657 
L 603.5517 721.650341 
L 604.72935 721.648812 
L 605.907 722.125026 
L 607.08465 724.239812 
L 608.2623 724.236609 
L 609.43995 724.748357 
L 610.6176 724.215226 
L 611.79525 725.17031 
L 612.9729 723.829002 
L 614.15055 723.704183 
L 615.3282 724.007989 
L 616.50585 723.286002 
L 617.6835 723.981746 
L 618.86115 723.981746 
L 620.0388 723.100968 
L 621.21645 722.888402 
L 622.3941 722.888402 
L 623.57175 724.122359 
L 624.7494 723.55241 
L 625.92705 723.55241 
L 627.1047 722.598653 
L 628.28235 723.029759 
L 629.46 723.028762 
L 630.63765 725.499579 
L 631.8153 723.719528 
L 632.99295 723.719528 
L 634.1706 722.628848 
L 636.5259 722.577062 
L 637.70355 722.769486 
L 638.8812 723.108617 
L 640.05885 723.108617 
L 641.2365 722.888787 
L 642.41415 723.330099 
L 643.5918 723.331385 
L 644.76945 724.191696 
L 645.9471 722.837224 
L 647.12475 722.843748 
L 648.3024 722.998318 
L 649.48005 722.998318 
L 650.6577 724.27793 
L 653.013 724.302162 
L 654.19065 723.7206 
L 655.3683 723.605893 
L 656.54595 723.603076 
L 657.7236 724.172955 
L 658.90125 723.412597 
L 660.0789 723.412597 
L 661.25655 724.197293 
L 663.61185 724.087195 
L 664.7895 722.253018 
L 665.96715 723.675095 
L 667.1448 723.55371 
L 668.32245 723.551319 
L 669.5001 723.754817 
L 670.67775 724.236072 
L 671.8554 724.243192 
L 673.03305 723.509028 
L 674.2107 723.071469 
L 675.38835 724.4037 
L 676.566 724.405045 
L 677.74365 723.606702 
L 678.9213 724.175013 
L 680.09895 724.170143 
L 681.2766 724.976366 
L 683.6319 724.880695 
L 684.80955 725.092584 
L 685.9872 724.128549 
L 687.16485 724.128549 
L 688.3425 724.248698 
L 689.52015 723.97438 
L 690.6978 723.97438 
L 691.87545 725.728112 
L 693.0531 724.467887 
L 694.23075 724.467887 
L 695.4084 725.298457 
L 696.58605 724.069951 
L 697.7637 724.069951 
L 698.94135 724.266025 
L 700.119 723.613688 
L 701.29665 723.613628 
L 702.4743 723.821965 
L 703.65195 723.821965 
L 704.8296 723.081458 
L 706.00725 723.220319 
L 707.1849 723.222357 
L 708.36255 722.337702 
L 709.5402 723.871769 
L 710.71785 723.878833 
L 711.8955 723.306681 
L 713.07315 724.01944 
L 715.42845 723.957554 
L 716.6061 724.53301 
L 717.78375 724.53301 
L 718.9614 724.232116 
L 720.13905 725.634496 
L 721.3167 725.634496 
L 722.49435 724.627299 
L 723.672 724.011773 
L 724.84965 724.009253 
L 726.0273 724.392042 
L 727.20495 723.990703 
L 728.3826 723.990703 
L 729.56025 723.69316 
L 730.7379 722.793826 
L 731.91555 722.808044 
L 733.0932 722.34956 
L 734.27085 722.888501 
L 735.4485 722.890096 
L 737.8038 724.180952 
L 738.98145 724.183336 
L 740.1591 722.334114 
L 741.33675 721.809101 
L 742.5144 721.808021 
L 743.69205 721.497886 
L 744.8697 722.783297 
L 746.04735 722.783297 
L 747.225 722.56266 
L 748.40265 722.690955 
L 750.75795 722.592184 
L 751.9356 721.739145 
L 754.2909 721.739145 
L 755.46855 722.148839 
L 757.82385 722.089725 
L 759.0015 723.581023 
L 760.17915 723.766015 
L 761.3568 723.775124 
L 762.53445 723.631004 
L 763.7121 723.343927 
L 764.88975 723.34621 
L 766.0674 723.865663 
L 767.24505 722.367324 
L 768.4227 722.365582 
L 769.60035 723.178405 
L 771.95565 723.086517 
L 773.1333 723.709113 
L 774.31095 723.235815 
L 776.66625 723.203841 
L 777.8439 723.623361 
L 779.02155 723.618048 
L 780.1992 722.717096 
L 781.37685 722.379404 
L 786.08745 722.385693 
L 787.2651 723.623118 
L 788.44275 721.700808 
L 789.6204 721.700808 
L 790.79805 721.867159 
L 791.9757 721.867159 
L 793.15335 723.152607 
L 794.331 723.514562 
L 795.50865 723.519893 
L 796.6863 723.068927 
L 797.86395 724.209386 
L 799.0416 724.209386 
L 800.21925 723.563759 
L 801.3969 724.02074 
L 802.57455 724.022911 
L 804.92985 723.560393 
L 806.1075 723.560393 
L 807.28515 723.213944 
L 808.4628 724.045697 
L 810.8181 724.01604 
L 811.99575 724.24069 
L 813.1734 724.24069 
L 814.35105 723.215523 
L 820.2393 723.473047 
L 821.41695 723.953976 
L 822.5946 723.446985 
L 823.77225 723.454195 
L 824.9499 724.712189 
L 826.12755 725.414359 
L 827.3052 725.41426 
L 828.48285 724.059349 
L 833.19345 724.074367 
L 834.3711 723.456487 
L 835.54875 723.456487 
L 836.7264 721.824948 
L 839.0817 721.875243 
L 840.25935 723.14579 
L 842.61465 723.232076 
L 843.7923 722.873481 
L 846.1476 722.927124 
L 847.32525 723.503544 
L 848.5029 723.503544 
L 849.68055 724.113073 
L 852.03585 724.175755 
L 853.2135 722.802204 
L 854.39115 723.412874 
L 855.5688 723.412874 
L 856.74645 723.205385 
L 857.9241 722.563593 
L 859.10175 724.095499 
L 860.2794 724.817109 
L 861.45705 724.817109 
L 863.81235 723.873716 
L 864.99 723.879306 
L 866.16765 724.689308 
L 867.3453 725.134084 
L 868.52295 725.134084 
L 870.87825 725.744009 
L 872.0559 725.744009 
L 873.23355 724.90191 
L 874.4112 723.432622 
L 875.58885 724.908485 
L 876.7665 724.907866 
L 877.94415 724.144891 
L 879.1218 722.977996 
L 880.29945 722.977996 
L 881.4771 723.763351 
L 882.65475 722.056192 
L 883.8324 722.056192 
L 885.01005 722.193332 
L 886.1877 721.250001 
L 887.36535 721.255442 
L 888.543 722.248514 
L 889.72065 722.920668 
L 892.07595 722.966051 
L 893.2536 723.655658 
L 895.6089 723.706344 
L 896.78655 722.63933 
L 897.9642 722.867139 
L 900.3195 722.867139 
L 901.49715 723.258894 
L 902.6748 723.398192 
L 903.85245 723.398192 
L 905.0301 722.920001 
L 906.20775 722.741338 
L 907.3854 723.09198 
L 908.56305 723.101687 
L 909.7407 723.931981 
L 910.91835 724.501684 
L 912.096 724.501684 
L 913.27365 725.553463 
L 914.4513 724.921758 
L 915.62895 724.917564 
L 916.8066 725.120579 
L 917.98425 724.966949 
L 919.1619 724.9646 
L 920.33955 725.554636 
L 921.5172 725.004258 
L 922.69485 724.996835 
L 923.8725 725.383585 
L 925.05015 725.62803 
L 926.2278 725.62803 
L 927.40545 725.10784 
L 929.76075 725.018352 
L 930.9384 724.197791 
L 932.11605 723.960742 
L 933.2937 723.40097 
L 934.47135 723.403031 
L 935.649 724.086868 
L 936.82665 723.091008 
L 938.0043 723.099506 
L 939.18195 722.109168 
L 940.3596 721.515545 
L 941.53725 721.515545 
L 942.7149 722.862404 
L 943.89255 722.60231 
L 945.0702 722.60231 
L 946.24785 721.965068 
L 947.4255 722.428397 
L 948.60315 722.428397 
L 949.7808 720.812793 
L 950.95845 721.057937 
L 952.1361 721.057937 
L 953.31375 720.88616 
L 954.4914 721.11484 
L 955.66905 721.122496 
L 956.8467 720.998791 
L 958.02435 722.462662 
L 959.202 722.462662 
L 960.37965 723.376396 
L 961.5573 722.996772 
L 963.9126 723.090182 
L 965.09025 722.755636 
L 967.44555 722.684272 
L 968.6232 723.043333 
L 969.80085 723.035659 
L 970.9785 723.847077 
L 972.15615 723.399456 
L 973.3338 723.396738 
L 974.51145 723.572457 
L 975.6891 722.860214 
L 976.86675 722.860214 
L 978.0444 722.589587 
L 979.22205 723.126715 
L 980.3997 723.126715 
L 981.57735 722.59363 
L 982.755 723.026044 
L 983.93265 723.01015 
L 985.1103 723.570597 
L 987.4656 723.665324 
L 988.64325 722.835435 
L 990.99855 722.787633 
L 992.1762 724.660352 
L 993.35385 724.945071 
L 994.5315 724.945071 
L 995.70915 724.606833 
L 996.8868 725.01702 
L 998.06445 725.01702 
L 999.2421 724.45734 
L 1000.41975 723.627131 
L 1001.5974 723.627131 
L 1002.77505 723.314682 
L 1003.9527 723.314682 
L 1005.13035 724.441186 
L 1006.308 724.880859 
L 1007.48565 724.880859 
L 1009.84095 725.956804 
L 1011.0186 725.956804 
L 1012.19625 725.013794 
L 1013.3739 724.301425 
L 1014.55155 724.298409 
L 1015.7292 725.568959 
L 1016.90685 724.260929 
L 1018.0845 724.260929 
L 1019.26215 723.353711 
L 1020.4398 723.255481 
L 1021.61745 723.278547 
L 1022.7951 724.06143 
L 1023.97275 723.373777 
L 1026.32805 723.372713 
L 1027.5057 722.858438 
L 1028.68335 722.866384 
L 1029.861 723.465715 
L 1032.2163 723.433692 
L 1033.39395 724.825667 
L 1034.5716 724.517643 
L 1035.74925 724.517643 
L 1036.9269 725.020747 
L 1038.10455 724.776281 
L 1039.2822 724.770977 
L 1040.45985 724.465513 
L 1041.6375 723.733293 
L 1042.81515 723.911515 
L 1043.9928 723.880537 
L 1045.17045 723.447441 
L 1046.3481 723.447441 
L 1048.7034 724.681242 
L 1049.88105 724.67444 
L 1051.0587 724.198411 
L 1052.23635 724.555798 
L 1053.414 724.562741 
L 1054.59165 723.507488 
L 1055.7693 723.576353 
L 1056.94695 724.516101 
L 1058.1246 724.516101 
L 1059.30225 724.851414 
L 1060.4799 724.675812 
L 1062.8352 724.675812 
L 1064.01285 722.311636 
L 1065.1905 721.872393 
L 1066.36815 721.87152 
L 1067.5458 722.552801 
L 1068.72345 722.31883 
L 1069.9011 722.333316 
L 1071.07875 723.673852 
L 1072.2564 723.372497 
L 1073.43405 723.37043 
L 1074.6117 724.020726 
L 1076.967 724.059037 
L 1078.14465 723.66491 
L 1079.3223 723.959246 
L 1080.49995 723.948295 
L 1081.6776 725.203489 
L 1082.85525 724.385478 
L 1084.0329 724.384836 
L 1085.21055 723.686905 
L 1086.3882 724.215349 
L 1087.56585 724.219478 
L 1088.7435 724.992952 
L 1094.63175 724.498031 
L 1095.8094 723.655685 
L 1096.98705 725.387207 
L 1098.1647 724.043074 
L 1099.34235 724.009648 
L 1100.52 725.105949 
L 1101.69765 725.105949 
L 1102.8753 725.437602 
L 1104.05295 726.756202 
L 1105.2306 725.894806 
L 1106.40825 726.271975 
L 1107.5859 726.271975 
L 1108.76355 725.722651 
L 1109.9412 724.256896 
L 1111.11885 725.005904 
L 1115.82945 725.008763 
L 1117.0071 725.933216 
L 1118.18475 724.734286 
L 1120.54005 724.643073 
L 1121.7177 725.801091 
L 1122.89535 725.801091 
L 1125.25065 724.501579 
L 1126.4283 724.501579 
L 1127.60595 723.607747 
L 1128.7836 721.968311 
L 1129.96125 722.393224 
L 1131.1389 722.393224 
L 1132.31655 722.735524 
L 1134.67185 722.641991 
L 1135.8495 723.883425 
L 1137.02715 722.656488 
L 1138.2048 722.661077 
L 1139.38245 721.947783 
L 1140.5601 721.098577 
L 1141.73775 721.098577 
L 1142.9154 721.290037 
L 1144.09305 722.888079 
L 1145.2707 722.892294 
L 1146.44835 722.155004 
L 1147.626 723.513475 
L 1148.80365 723.516964 
L 1149.9813 722.812738 
L 1151.15895 723.182583 
L 1152.3366 723.182583 
L 1153.51425 722.781513 
L 1154.6919 722.949728 
L 1155.86955 722.951923 
L 1157.0472 723.262625 
L 1158.22485 722.816677 
L 1159.4025 722.824011 
L 1160.58015 722.630191 
L 1161.7578 722.870632 
L 1162.93545 722.874931 
L 1164.1131 724.207681 
L 1165.29075 723.379968 
L 1166.4684 723.379968 
L 1168.8237 722.853102 
L 1170.00135 722.853102 
L 1171.179 724.08555 
L 1172.35665 724.821046 
L 1173.5343 724.821046 
L 1174.71195 723.434875 
L 1175.8896 723.313222 
L 1177.06725 724.494148 
L 1178.2449 724.494148 
L 1179.42255 723.726032 
L 1181.77785 723.758747 
L 1182.9555 723.021089 
L 1184.13315 723.227809 
L 1185.3108 723.227809 
L 1186.48845 722.068965 
L 1187.6661 722.785848 
L 1188.84375 722.832338 
L 1190.0214 723.930421 
L 1191.19905 722.429916 
L 1192.3767 722.429916 
L 1193.55435 723.208901 
L 1194.732 723.654052 
L 1195.90965 723.654052 
L 1197.0873 722.416061 
L 1198.26495 723.354582 
L 1199.4426 723.342737 
L 1200.62025 724.70222 
L 1201.7979 725.338329 
L 1205.33085 725.378153 
L 1206.5085 724.085899 
L 1207.68615 724.085899 
L 1208.8638 726.269444 
L 1210.04145 725.344081 
L 1211.2191 725.344081 
L 1212.39675 725.636871 
L 1213.5744 724.716752 
L 1214.75205 723.545721 
L 1215.9297 723.545721 
L 1217.10735 723.773584 
L 1218.285 723.40581 
L 1219.46265 723.40581 
L 1220.6403 723.554119 
L 1221.81795 722.606329 
L 1222.9956 722.606329 
L 1224.17325 722.392526 
L 1225.3509 721.08916 
L 1227.7062 722.715192 
L 1228.88385 722.487881 
L 1230.0615 722.102588 
L 1231.23915 723.345549 
L 1232.4168 723.34307 
L 1233.59445 722.614751 
L 1234.7721 722.614751 
L 1235.94975 723.488528 
L 1237.1274 723.615935 
L 1238.30505 723.615935 
L 1239.4827 722.61139 
L 1240.66035 722.484693 
L 1241.838 722.482181 
L 1244.1933 722.659009 
L 1245.37095 722.659009 
L 1246.5486 723.261737 
L 1247.72625 723.698036 
L 1248.9039 723.698036 
L 1250.08155 724.061281 
L 1251.2592 723.485211 
L 1252.43685 723.485211 
L 1253.6145 724.061956 
L 1254.79215 723.656811 
L 1257.14745 723.654553 
L 1258.3251 722.510517 
L 1259.50275 722.510517 
L 1260.6804 722.9079 
L 1261.85805 724.435 
L 1263.0357 724.435 
L 1264.21335 725.304052 
L 1265.391 724.60086 
L 1266.56865 723.182057 
L 1267.7463 723.186102 
L 1268.92395 724.654312 
L 1270.1016 723.625685 
L 1271.27925 723.627246 
L 1272.4569 724.495992 
L 1273.63455 724.820488 
L 1274.8122 724.820488 
L 1275.98985 724.425922 
L 1277.1675 724.703818 
L 1278.34515 724.281863 
L 1279.5228 724.281863 
L 1280.70045 725.17764 
L 1281.8781 723.492799 
L 1284.2334 723.492799 
L 1285.41105 724.525289 
L 1286.5887 724.527185 
L 1287.76635 723.37979 
L 1288.944 725.652559 
L 1290.12165 725.652559 
L 1291.2993 724.568115 
L 1293.6546 724.538358 
L 1294.83225 723.510055 
L 1296.0099 724.312267 
L 1297.18755 724.322172 
L 1298.3652 725.798697 
L 1299.54285 726.0543 
L 1300.7205 725.818608 
L 1301.89815 724.894817 
L 1303.0758 724.872434 
L 1305.4311 726.439645 
L 1306.60875 726.439645 
L 1307.7864 725.574147 
L 1308.96405 725.335426 
L 1310.1417 725.335426 
L 1311.31935 725.504684 
L 1312.497 724.249446 
L 1313.67465 724.249446 
L 1314.8523 724.567949 
L 1316.02995 723.515543 
L 1317.2076 723.501972 
L 1319.5629 725.127176 
L 1321.9182 725.050604 
L 1323.09585 723.798509 
L 1325.45115 723.703767 
L 1326.6288 724.15972 
L 1330.16175 724.137128 
L 1331.3394 724.826031 
L 1332.51705 724.981117 
L 1333.6947 724.983739 
L 1334.87235 725.765825 
L 1336.05 724.446471 
L 1336.05 724.446471 
" style="fill:none;stroke:#008000;stroke-dasharray:6.000000,6.000000;stroke-dashoffset:0.0;stroke-width:2.0;"/>
   </g>
   <g id="patch_3">
    <path d="M 158.4 51.3 
L 1336.05 51.3 
" style="fill:none;stroke:#000000;stroke-linecap:square;stroke-linejoin:miter;"/>
   </g>
   <g id="patch_4">
    <path d="M 1336.05 747 
L 1336.05 51.3 
" style="fill:none;stroke:#000000;stroke-linecap:square;stroke-linejoin:miter;"/>
   </g>
   <g id="patch_5">
    <path d="M 158.4 747 
L 1336.05 747 
" style="fill:none;stroke:#000000;stroke-linecap:square;stroke-linejoin:miter;"/>
   </g>
   <g id="patch_6">
    <path d="M 158.4 747 
L 158.4 51.3 
" style="fill:none;stroke:#000000;stroke-linecap:square;stroke-linejoin:miter;"/>
   </g>
   <g id="matplotlib.axis_1">
    <g id="xtick_1">
     <g id="line2d_3">
      <defs>
       <path d="M 0 0 
L 0 -4 
" id="m03329ecf8a" style="stroke:#000000;stroke-width:0.5;"/>
      </defs>
      <g>
       <use style="stroke:#000000;stroke-width:0.5;" x="158.4" xlink:href="#m03329ecf8a" y="747.0"/>
      </g>
     </g>
     <g id="line2d_4">
      <defs>
       <path d="M 0 0 
L 0 4 
" id="m247d84a3c0" style="stroke:#000000;stroke-width:0.5;"/>
      </defs>
      <g>
       <use style="stroke:#000000;stroke-width:0.5;" x="158.4" xlink:href="#m247d84a3c0" y="51.3"/>
      </g>
     </g>
     <g id="text_1">
      <!-- 0 -->
      <defs>
       <path d="M 31.78125 66.40625 
Q 24.171875 66.40625 20.328125 58.90625 
Q 16.5 51.421875 16.5 36.375 
Q 16.5 21.390625 20.328125 13.890625 
Q 24.171875 6.390625 31.78125 6.390625 
Q 39.453125 6.390625 43.28125 13.890625 
Q 47.125 21.390625 47.125 36.375 
Q 47.125 51.421875 43.28125 58.90625 
Q 39.453125 66.40625 31.78125 66.40625 
M 31.78125 74.21875 
Q 44.046875 74.21875 50.515625 64.515625 
Q 56.984375 54.828125 56.984375 36.375 
Q 56.984375 17.96875 50.515625 8.265625 
Q 44.046875 -1.421875 31.78125 -1.421875 
Q 19.53125 -1.421875 13.0625 8.265625 
Q 6.59375 17.96875 6.59375 36.375 
Q 6.59375 54.828125 13.0625 64.515625 
Q 19.53125 74.21875 31.78125 74.21875 
" id="BitstreamVeraSans-Roman-30"/>
      </defs>
      <g transform="translate(148.85625 773.7953125)scale(0.3 -0.3)">
       <use xlink:href="#BitstreamVeraSans-Roman-30"/>
      </g>
     </g>
    </g>
    <g id="xtick_2">
     <g id="line2d_5">
      <g>
       <use style="stroke:#000000;stroke-width:0.5;" x="393.93" xlink:href="#m03329ecf8a" y="747.0"/>
      </g>
     </g>
     <g id="line2d_6">
      <g>
       <use style="stroke:#000000;stroke-width:0.5;" x="393.93" xlink:href="#m247d84a3c0" y="51.3"/>
      </g>
     </g>
     <g id="text_2">
      <!-- 20000 -->
      <defs>
       <path d="M 19.1875 8.296875 
L 53.609375 8.296875 
L 53.609375 0 
L 7.328125 0 
L 7.328125 8.296875 
Q 12.9375 14.109375 22.625 23.890625 
Q 32.328125 33.6875 34.8125 36.53125 
Q 39.546875 41.84375 41.421875 45.53125 
Q 43.3125 49.21875 43.3125 52.78125 
Q 43.3125 58.59375 39.234375 62.25 
Q 35.15625 65.921875 28.609375 65.921875 
Q 23.96875 65.921875 18.8125 64.3125 
Q 13.671875 62.703125 7.8125 59.421875 
L 7.8125 69.390625 
Q 13.765625 71.78125 18.9375 73 
Q 24.125 74.21875 28.421875 74.21875 
Q 39.75 74.21875 46.484375 68.546875 
Q 53.21875 62.890625 53.21875 53.421875 
Q 53.21875 48.921875 51.53125 44.890625 
Q 49.859375 40.875 45.40625 35.40625 
Q 44.1875 33.984375 37.640625 27.21875 
Q 31.109375 20.453125 19.1875 8.296875 
" id="BitstreamVeraSans-Roman-32"/>
      </defs>
      <g transform="translate(346.21125 773.7953125)scale(0.3 -0.3)">
       <use xlink:href="#BitstreamVeraSans-Roman-32"/>
       <use x="63.623046875" xlink:href="#BitstreamVeraSans-Roman-30"/>
       <use x="127.24609375" xlink:href="#BitstreamVeraSans-Roman-30"/>
       <use x="190.869140625" xlink:href="#BitstreamVeraSans-Roman-30"/>
       <use x="254.4921875" xlink:href="#BitstreamVeraSans-Roman-30"/>
      </g>
     </g>
    </g>
    <g id="xtick_3">
     <g id="line2d_7">
      <g>
       <use style="stroke:#000000;stroke-width:0.5;" x="629.46" xlink:href="#m03329ecf8a" y="747.0"/>
      </g>
     </g>
     <g id="line2d_8">
      <g>
       <use style="stroke:#000000;stroke-width:0.5;" x="629.46" xlink:href="#m247d84a3c0" y="51.3"/>
      </g>
     </g>
     <g id="text_3">
      <!-- 40000 -->
      <defs>
       <path d="M 37.796875 64.3125 
L 12.890625 25.390625 
L 37.796875 25.390625 
z
M 35.203125 72.90625 
L 47.609375 72.90625 
L 47.609375 25.390625 
L 58.015625 25.390625 
L 58.015625 17.1875 
L 47.609375 17.1875 
L 47.609375 0 
L 37.796875 0 
L 37.796875 17.1875 
L 4.890625 17.1875 
L 4.890625 26.703125 
z
" id="BitstreamVeraSans-Roman-34"/>
      </defs>
      <g transform="translate(581.74125 773.7953125)scale(0.3 -0.3)">
       <use xlink:href="#BitstreamVeraSans-Roman-34"/>
       <use x="63.623046875" xlink:href="#BitstreamVeraSans-Roman-30"/>
       <use x="127.24609375" xlink:href="#BitstreamVeraSans-Roman-30"/>
       <use x="190.869140625" xlink:href="#BitstreamVeraSans-Roman-30"/>
       <use x="254.4921875" xlink:href="#BitstreamVeraSans-Roman-30"/>
      </g>
     </g>
    </g>
    <g id="xtick_4">
     <g id="line2d_9">
      <g>
       <use style="stroke:#000000;stroke-width:0.5;" x="864.99" xlink:href="#m03329ecf8a" y="747.0"/>
      </g>
     </g>
     <g id="line2d_10">
      <g>
       <use style="stroke:#000000;stroke-width:0.5;" x="864.99" xlink:href="#m247d84a3c0" y="51.3"/>
      </g>
     </g>
     <g id="text_4">
      <!-- 60000 -->
      <defs>
       <path d="M 33.015625 40.375 
Q 26.375 40.375 22.484375 35.828125 
Q 18.609375 31.296875 18.609375 23.390625 
Q 18.609375 15.53125 22.484375 10.953125 
Q 26.375 6.390625 33.015625 6.390625 
Q 39.65625 6.390625 43.53125 10.953125 
Q 47.40625 15.53125 47.40625 23.390625 
Q 47.40625 31.296875 43.53125 35.828125 
Q 39.65625 40.375 33.015625 40.375 
M 52.59375 71.296875 
L 52.59375 62.3125 
Q 48.875 64.0625 45.09375 64.984375 
Q 41.3125 65.921875 37.59375 65.921875 
Q 27.828125 65.921875 22.671875 59.328125 
Q 17.53125 52.734375 16.796875 39.40625 
Q 19.671875 43.65625 24.015625 45.921875 
Q 28.375 48.1875 33.59375 48.1875 
Q 44.578125 48.1875 50.953125 41.515625 
Q 57.328125 34.859375 57.328125 23.390625 
Q 57.328125 12.15625 50.6875 5.359375 
Q 44.046875 -1.421875 33.015625 -1.421875 
Q 20.359375 -1.421875 13.671875 8.265625 
Q 6.984375 17.96875 6.984375 36.375 
Q 6.984375 53.65625 15.1875 63.9375 
Q 23.390625 74.21875 37.203125 74.21875 
Q 40.921875 74.21875 44.703125 73.484375 
Q 48.484375 72.75 52.59375 71.296875 
" id="BitstreamVeraSans-Roman-36"/>
      </defs>
      <g transform="translate(817.27125 773.7953125)scale(0.3 -0.3)">
       <use xlink:href="#BitstreamVeraSans-Roman-36"/>
       <use x="63.623046875" xlink:href="#BitstreamVeraSans-Roman-30"/>
       <use x="127.24609375" xlink:href="#BitstreamVeraSans-Roman-30"/>
       <use x="190.869140625" xlink:href="#BitstreamVeraSans-Roman-30"/>
       <use x="254.4921875" xlink:href="#BitstreamVeraSans-Roman-30"/>
      </g>
     </g>
    </g>
    <g id="xtick_5">
     <g id="line2d_11">
      <g>
       <use style="stroke:#000000;stroke-width:0.5;" x="1100.52" xlink:href="#m03329ecf8a" y="747.0"/>
      </g>
     </g>
     <g id="line2d_12">
      <g>
       <use style="stroke:#000000;stroke-width:0.5;" x="1100.52" xlink:href="#m247d84a3c0" y="51.3"/>
      </g>
     </g>
     <g id="text_5">
      <!-- 80000 -->
      <defs>
       <path d="M 31.78125 34.625 
Q 24.75 34.625 20.71875 30.859375 
Q 16.703125 27.09375 16.703125 20.515625 
Q 16.703125 13.921875 20.71875 10.15625 
Q 24.75 6.390625 31.78125 6.390625 
Q 38.8125 6.390625 42.859375 10.171875 
Q 46.921875 13.96875 46.921875 20.515625 
Q 46.921875 27.09375 42.890625 30.859375 
Q 38.875 34.625 31.78125 34.625 
M 21.921875 38.8125 
Q 15.578125 40.375 12.03125 44.71875 
Q 8.5 49.078125 8.5 55.328125 
Q 8.5 64.0625 14.71875 69.140625 
Q 20.953125 74.21875 31.78125 74.21875 
Q 42.671875 74.21875 48.875 69.140625 
Q 55.078125 64.0625 55.078125 55.328125 
Q 55.078125 49.078125 51.53125 44.71875 
Q 48 40.375 41.703125 38.8125 
Q 48.828125 37.15625 52.796875 32.3125 
Q 56.78125 27.484375 56.78125 20.515625 
Q 56.78125 9.90625 50.3125 4.234375 
Q 43.84375 -1.421875 31.78125 -1.421875 
Q 19.734375 -1.421875 13.25 4.234375 
Q 6.78125 9.90625 6.78125 20.515625 
Q 6.78125 27.484375 10.78125 32.3125 
Q 14.796875 37.15625 21.921875 38.8125 
M 18.3125 54.390625 
Q 18.3125 48.734375 21.84375 45.5625 
Q 25.390625 42.390625 31.78125 42.390625 
Q 38.140625 42.390625 41.71875 45.5625 
Q 45.3125 48.734375 45.3125 54.390625 
Q 45.3125 60.0625 41.71875 63.234375 
Q 38.140625 66.40625 31.78125 66.40625 
Q 25.390625 66.40625 21.84375 63.234375 
Q 18.3125 60.0625 18.3125 54.390625 
" id="BitstreamVeraSans-Roman-38"/>
      </defs>
      <g transform="translate(1052.80125 773.7953125)scale(0.3 -0.3)">
       <use xlink:href="#BitstreamVeraSans-Roman-38"/>
       <use x="63.623046875" xlink:href="#BitstreamVeraSans-Roman-30"/>
       <use x="127.24609375" xlink:href="#BitstreamVeraSans-Roman-30"/>
       <use x="190.869140625" xlink:href="#BitstreamVeraSans-Roman-30"/>
       <use x="254.4921875" xlink:href="#BitstreamVeraSans-Roman-30"/>
      </g>
     </g>
    </g>
    <g id="xtick_6">
     <g id="line2d_13">
      <g>
       <use style="stroke:#000000;stroke-width:0.5;" x="1336.05" xlink:href="#m03329ecf8a" y="747.0"/>
      </g>
     </g>
     <g id="line2d_14">
      <g>
       <use style="stroke:#000000;stroke-width:0.5;" x="1336.05" xlink:href="#m247d84a3c0" y="51.3"/>
      </g>
     </g>
     <g id="text_6">
      <!-- 100000 -->
      <defs>
       <path d="M 12.40625 8.296875 
L 28.515625 8.296875 
L 28.515625 63.921875 
L 10.984375 60.40625 
L 10.984375 69.390625 
L 28.421875 72.90625 
L 38.28125 72.90625 
L 38.28125 8.296875 
L 54.390625 8.296875 
L 54.390625 0 
L 12.40625 0 
z
" id="BitstreamVeraSans-Roman-31"/>
      </defs>
      <g transform="translate(1278.7875 773.7953125)scale(0.3 -0.3)">
       <use xlink:href="#BitstreamVeraSans-Roman-31"/>
       <use x="63.623046875" xlink:href="#BitstreamVeraSans-Roman-30"/>
       <use x="127.24609375" xlink:href="#BitstreamVeraSans-Roman-30"/>
       <use x="190.869140625" xlink:href="#BitstreamVeraSans-Roman-30"/>
       <use x="254.4921875" xlink:href="#BitstreamVeraSans-Roman-30"/>
       <use x="318.115234375" xlink:href="#BitstreamVeraSans-Roman-30"/>
      </g>
     </g>
    </g>
    <g id="text_7">
     <!-- iterations -->
     <defs>
      <path d="M 54.890625 33.015625 
L 54.890625 0 
L 45.90625 0 
L 45.90625 32.71875 
Q 45.90625 40.484375 42.875 44.328125 
Q 39.84375 48.1875 33.796875 48.1875 
Q 26.515625 48.1875 22.3125 43.546875 
Q 18.109375 38.921875 18.109375 30.90625 
L 18.109375 0 
L 9.078125 0 
L 9.078125 54.6875 
L 18.109375 54.6875 
L 18.109375 46.1875 
Q 21.34375 51.125 25.703125 53.5625 
Q 30.078125 56 35.796875 56 
Q 45.21875 56 50.046875 50.171875 
Q 54.890625 44.34375 54.890625 33.015625 
" id="BitstreamVeraSans-Roman-6e"/>
      <path d="M 34.28125 27.484375 
Q 23.390625 27.484375 19.1875 25 
Q 14.984375 22.515625 14.984375 16.5 
Q 14.984375 11.71875 18.140625 8.90625 
Q 21.296875 6.109375 26.703125 6.109375 
Q 34.1875 6.109375 38.703125 11.40625 
Q 43.21875 16.703125 43.21875 25.484375 
L 43.21875 27.484375 
z
M 52.203125 31.203125 
L 52.203125 0 
L 43.21875 0 
L 43.21875 8.296875 
Q 40.140625 3.328125 35.546875 0.953125 
Q 30.953125 -1.421875 24.3125 -1.421875 
Q 15.921875 -1.421875 10.953125 3.296875 
Q 6 8.015625 6 15.921875 
Q 6 25.140625 12.171875 29.828125 
Q 18.359375 34.515625 30.609375 34.515625 
L 43.21875 34.515625 
L 43.21875 35.40625 
Q 43.21875 41.609375 39.140625 45 
Q 35.0625 48.390625 27.6875 48.390625 
Q 23 48.390625 18.546875 47.265625 
Q 14.109375 46.140625 10.015625 43.890625 
L 10.015625 52.203125 
Q 14.9375 54.109375 19.578125 55.046875 
Q 24.21875 56 28.609375 56 
Q 40.484375 56 46.34375 49.84375 
Q 52.203125 43.703125 52.203125 31.203125 
" id="BitstreamVeraSans-Roman-61"/>
      <path d="M 30.609375 48.390625 
Q 23.390625 48.390625 19.1875 42.75 
Q 14.984375 37.109375 14.984375 27.296875 
Q 14.984375 17.484375 19.15625 11.84375 
Q 23.34375 6.203125 30.609375 6.203125 
Q 37.796875 6.203125 41.984375 11.859375 
Q 46.1875 17.53125 46.1875 27.296875 
Q 46.1875 37.015625 41.984375 42.703125 
Q 37.796875 48.390625 30.609375 48.390625 
M 30.609375 56 
Q 42.328125 56 49.015625 48.375 
Q 55.71875 40.765625 55.71875 27.296875 
Q 55.71875 13.875 49.015625 6.21875 
Q 42.328125 -1.421875 30.609375 -1.421875 
Q 18.84375 -1.421875 12.171875 6.21875 
Q 5.515625 13.875 5.515625 27.296875 
Q 5.515625 40.765625 12.171875 48.375 
Q 18.84375 56 30.609375 56 
" id="BitstreamVeraSans-Roman-6f"/>
      <path d="M 9.421875 54.6875 
L 18.40625 54.6875 
L 18.40625 0 
L 9.421875 0 
z
M 9.421875 75.984375 
L 18.40625 75.984375 
L 18.40625 64.59375 
L 9.421875 64.59375 
z
" id="BitstreamVeraSans-Roman-69"/>
      <path d="M 56.203125 29.59375 
L 56.203125 25.203125 
L 14.890625 25.203125 
Q 15.484375 15.921875 20.484375 11.0625 
Q 25.484375 6.203125 34.421875 6.203125 
Q 39.59375 6.203125 44.453125 7.46875 
Q 49.3125 8.734375 54.109375 11.28125 
L 54.109375 2.78125 
Q 49.265625 0.734375 44.1875 -0.34375 
Q 39.109375 -1.421875 33.890625 -1.421875 
Q 20.796875 -1.421875 13.15625 6.1875 
Q 5.515625 13.8125 5.515625 26.8125 
Q 5.515625 40.234375 12.765625 48.109375 
Q 20.015625 56 32.328125 56 
Q 43.359375 56 49.78125 48.890625 
Q 56.203125 41.796875 56.203125 29.59375 
M 47.21875 32.234375 
Q 47.125 39.59375 43.09375 43.984375 
Q 39.0625 48.390625 32.421875 48.390625 
Q 24.90625 48.390625 20.390625 44.140625 
Q 15.875 39.890625 15.1875 32.171875 
z
" id="BitstreamVeraSans-Roman-65"/>
      <path d="M 18.3125 70.21875 
L 18.3125 54.6875 
L 36.8125 54.6875 
L 36.8125 47.703125 
L 18.3125 47.703125 
L 18.3125 18.015625 
Q 18.3125 11.328125 20.140625 9.421875 
Q 21.96875 7.515625 27.59375 7.515625 
L 36.8125 7.515625 
L 36.8125 0 
L 27.59375 0 
Q 17.1875 0 13.234375 3.875 
Q 9.28125 7.765625 9.28125 18.015625 
L 9.28125 47.703125 
L 2.6875 47.703125 
L 2.6875 54.6875 
L 9.28125 54.6875 
L 9.28125 70.21875 
z
" id="BitstreamVeraSans-Roman-74"/>
      <path d="M 41.109375 46.296875 
Q 39.59375 47.171875 37.8125 47.578125 
Q 36.03125 48 33.890625 48 
Q 26.265625 48 22.1875 43.046875 
Q 18.109375 38.09375 18.109375 28.8125 
L 18.109375 0 
L 9.078125 0 
L 9.078125 54.6875 
L 18.109375 54.6875 
L 18.109375 46.1875 
Q 20.953125 51.171875 25.484375 53.578125 
Q 30.03125 56 36.53125 56 
Q 37.453125 56 38.578125 55.875 
Q 39.703125 55.765625 41.0625 55.515625 
z
" id="BitstreamVeraSans-Roman-72"/>
      <path d="M 44.28125 53.078125 
L 44.28125 44.578125 
Q 40.484375 46.53125 36.375 47.5 
Q 32.28125 48.484375 27.875 48.484375 
Q 21.1875 48.484375 17.84375 46.4375 
Q 14.5 44.390625 14.5 40.28125 
Q 14.5 37.15625 16.890625 35.375 
Q 19.28125 33.59375 26.515625 31.984375 
L 29.59375 31.296875 
Q 39.15625 29.25 43.1875 25.515625 
Q 47.21875 21.78125 47.21875 15.09375 
Q 47.21875 7.46875 41.1875 3.015625 
Q 35.15625 -1.421875 24.609375 -1.421875 
Q 20.21875 -1.421875 15.453125 -0.5625 
Q 10.6875 0.296875 5.421875 2 
L 5.421875 11.28125 
Q 10.40625 8.6875 15.234375 7.390625 
Q 20.0625 6.109375 24.8125 6.109375 
Q 31.15625 6.109375 34.5625 8.28125 
Q 37.984375 10.453125 37.984375 14.40625 
Q 37.984375 18.0625 35.515625 20.015625 
Q 33.0625 21.96875 24.703125 23.78125 
L 21.578125 24.515625 
Q 13.234375 26.265625 9.515625 29.90625 
Q 5.8125 33.546875 5.8125 39.890625 
Q 5.8125 47.609375 11.28125 51.796875 
Q 16.75 56 26.8125 56 
Q 31.78125 56 36.171875 55.265625 
Q 40.578125 54.546875 44.28125 53.078125 
" id="BitstreamVeraSans-Roman-73"/>
     </defs>
     <g transform="translate(676.04296875 807.8296875)scale(0.3 -0.3)">
      <use xlink:href="#BitstreamVeraSans-Roman-69"/>
      <use x="27.783203125" xlink:href="#BitstreamVeraSans-Roman-74"/>
      <use x="66.9921875" xlink:href="#BitstreamVeraSans-Roman-65"/>
      <use x="128.515625" xlink:href="#BitstreamVeraSans-Roman-72"/>
      <use x="169.62890625" xlink:href="#BitstreamVeraSans-Roman-61"/>
      <use x="230.908203125" xlink:href="#BitstreamVeraSans-Roman-74"/>
      <use x="270.1171875" xlink:href="#BitstreamVeraSans-Roman-69"/>
      <use x="297.900390625" xlink:href="#BitstreamVeraSans-Roman-6f"/>
      <use x="359.08203125" xlink:href="#BitstreamVeraSans-Roman-6e"/>
      <use x="422.4609375" xlink:href="#BitstreamVeraSans-Roman-73"/>
     </g>
    </g>
   </g>
   <g id="matplotlib.axis_2">
    <g id="ytick_1">
     <g id="line2d_15">
      <defs>
       <path d="M 0 0 
L 4 0 
" id="m26728b6262" style="stroke:#000000;stroke-width:0.5;"/>
      </defs>
      <g>
       <use style="stroke:#000000;stroke-width:0.5;" x="158.4" xlink:href="#m26728b6262" y="747.0"/>
      </g>
     </g>
     <g id="line2d_16">
      <defs>
       <path d="M 0 0 
L -4 0 
" id="m9a6b61a3e6" style="stroke:#000000;stroke-width:0.5;"/>
      </defs>
      <g>
       <use style="stroke:#000000;stroke-width:0.5;" x="1336.05" xlink:href="#m9a6b61a3e6" y="747.0"/>
      </g>
     </g>
     <g id="text_8">
      <!-- 60 -->
      <defs>
       <path d="M 10.59375 35.5 
L 73.1875 35.5 
L 73.1875 27.203125 
L 10.59375 27.203125 
z
" id="BitstreamVeraSans-Roman-2212"/>
      </defs>
      <g transform="translate(91.0859375 755.278125)scale(0.3 -0.3)">
       <use xlink:href="#BitstreamVeraSans-Roman-2212"/>
       <use x="83.7890625" xlink:href="#BitstreamVeraSans-Roman-36"/>
       <use x="147.412109375" xlink:href="#BitstreamVeraSans-Roman-30"/>
      </g>
     </g>
    </g>
    <g id="ytick_2">
     <g id="line2d_17">
      <g>
       <use style="stroke:#000000;stroke-width:0.5;" x="158.4" xlink:href="#m26728b6262" y="660.0375"/>
      </g>
     </g>
     <g id="line2d_18">
      <g>
       <use style="stroke:#000000;stroke-width:0.5;" x="1336.05" xlink:href="#m9a6b61a3e6" y="660.0375"/>
      </g>
     </g>
     <g id="text_9">
      <!-- 50 -->
      <defs>
       <path d="M 10.796875 72.90625 
L 49.515625 72.90625 
L 49.515625 64.59375 
L 19.828125 64.59375 
L 19.828125 46.734375 
Q 21.96875 47.46875 24.109375 47.828125 
Q 26.265625 48.1875 28.421875 48.1875 
Q 40.625 48.1875 47.75 41.5 
Q 54.890625 34.8125 54.890625 23.390625 
Q 54.890625 11.625 47.5625 5.09375 
Q 40.234375 -1.421875 26.90625 -1.421875 
Q 22.3125 -1.421875 17.546875 -0.640625 
Q 12.796875 0.140625 7.71875 1.703125 
L 7.71875 11.625 
Q 12.109375 9.234375 16.796875 8.0625 
Q 21.484375 6.890625 26.703125 6.890625 
Q 35.15625 6.890625 40.078125 11.328125 
Q 45.015625 15.765625 45.015625 23.390625 
Q 45.015625 31 40.078125 35.4375 
Q 35.15625 39.890625 26.703125 39.890625 
Q 22.75 39.890625 18.8125 39.015625 
Q 14.890625 38.140625 10.796875 36.28125 
z
" id="BitstreamVeraSans-Roman-35"/>
      </defs>
      <g transform="translate(91.0859375 668.315625)scale(0.3 -0.3)">
       <use xlink:href="#BitstreamVeraSans-Roman-2212"/>
       <use x="83.7890625" xlink:href="#BitstreamVeraSans-Roman-35"/>
       <use x="147.412109375" xlink:href="#BitstreamVeraSans-Roman-30"/>
      </g>
     </g>
    </g>
    <g id="ytick_3">
     <g id="line2d_19">
      <g>
       <use style="stroke:#000000;stroke-width:0.5;" x="158.4" xlink:href="#m26728b6262" y="573.075"/>
      </g>
     </g>
     <g id="line2d_20">
      <g>
       <use style="stroke:#000000;stroke-width:0.5;" x="1336.05" xlink:href="#m9a6b61a3e6" y="573.075"/>
      </g>
     </g>
     <g id="text_10">
      <!-- 40 -->
      <g transform="translate(91.0859375 581.353125)scale(0.3 -0.3)">
       <use xlink:href="#BitstreamVeraSans-Roman-2212"/>
       <use x="83.7890625" xlink:href="#BitstreamVeraSans-Roman-34"/>
       <use x="147.412109375" xlink:href="#BitstreamVeraSans-Roman-30"/>
      </g>
     </g>
    </g>
    <g id="ytick_4">
     <g id="line2d_21">
      <g>
       <use style="stroke:#000000;stroke-width:0.5;" x="158.4" xlink:href="#m26728b6262" y="486.1125"/>
      </g>
     </g>
     <g id="line2d_22">
      <g>
       <use style="stroke:#000000;stroke-width:0.5;" x="1336.05" xlink:href="#m9a6b61a3e6" y="486.1125"/>
      </g>
     </g>
     <g id="text_11">
      <!-- 30 -->
      <defs>
       <path d="M 40.578125 39.3125 
Q 47.65625 37.796875 51.625 33 
Q 55.609375 28.21875 55.609375 21.1875 
Q 55.609375 10.40625 48.1875 4.484375 
Q 40.765625 -1.421875 27.09375 -1.421875 
Q 22.515625 -1.421875 17.65625 -0.515625 
Q 12.796875 0.390625 7.625 2.203125 
L 7.625 11.71875 
Q 11.71875 9.328125 16.59375 8.109375 
Q 21.484375 6.890625 26.8125 6.890625 
Q 36.078125 6.890625 40.9375 10.546875 
Q 45.796875 14.203125 45.796875 21.1875 
Q 45.796875 27.640625 41.28125 31.265625 
Q 36.765625 34.90625 28.71875 34.90625 
L 20.21875 34.90625 
L 20.21875 43.015625 
L 29.109375 43.015625 
Q 36.375 43.015625 40.234375 45.921875 
Q 44.09375 48.828125 44.09375 54.296875 
Q 44.09375 59.90625 40.109375 62.90625 
Q 36.140625 65.921875 28.71875 65.921875 
Q 24.65625 65.921875 20.015625 65.03125 
Q 15.375 64.15625 9.8125 62.3125 
L 9.8125 71.09375 
Q 15.4375 72.65625 20.34375 73.4375 
Q 25.25 74.21875 29.59375 74.21875 
Q 40.828125 74.21875 47.359375 69.109375 
Q 53.90625 64.015625 53.90625 55.328125 
Q 53.90625 49.265625 50.4375 45.09375 
Q 46.96875 40.921875 40.578125 39.3125 
" id="BitstreamVeraSans-Roman-33"/>
      </defs>
      <g transform="translate(91.0859375 494.390625)scale(0.3 -0.3)">
       <use xlink:href="#BitstreamVeraSans-Roman-2212"/>
       <use x="83.7890625" xlink:href="#BitstreamVeraSans-Roman-33"/>
       <use x="147.412109375" xlink:href="#BitstreamVeraSans-Roman-30"/>
      </g>
     </g>
    </g>
    <g id="ytick_5">
     <g id="line2d_23">
      <g>
       <use style="stroke:#000000;stroke-width:0.5;" x="158.4" xlink:href="#m26728b6262" y="399.15"/>
      </g>
     </g>
     <g id="line2d_24">
      <g>
       <use style="stroke:#000000;stroke-width:0.5;" x="1336.05" xlink:href="#m9a6b61a3e6" y="399.15"/>
      </g>
     </g>
     <g id="text_12">
      <!-- 20 -->
      <g transform="translate(91.0859375 407.428125)scale(0.3 -0.3)">
       <use xlink:href="#BitstreamVeraSans-Roman-2212"/>
       <use x="83.7890625" xlink:href="#BitstreamVeraSans-Roman-32"/>
       <use x="147.412109375" xlink:href="#BitstreamVeraSans-Roman-30"/>
      </g>
     </g>
    </g>
    <g id="ytick_6">
     <g id="line2d_25">
      <g>
       <use style="stroke:#000000;stroke-width:0.5;" x="158.4" xlink:href="#m26728b6262" y="312.1875"/>
      </g>
     </g>
     <g id="line2d_26">
      <g>
       <use style="stroke:#000000;stroke-width:0.5;" x="1336.05" xlink:href="#m9a6b61a3e6" y="312.1875"/>
      </g>
     </g>
     <g id="text_13">
      <!-- 10 -->
      <g transform="translate(91.0859375 320.465625)scale(0.3 -0.3)">
       <use xlink:href="#BitstreamVeraSans-Roman-2212"/>
       <use x="83.7890625" xlink:href="#BitstreamVeraSans-Roman-31"/>
       <use x="147.412109375" xlink:href="#BitstreamVeraSans-Roman-30"/>
      </g>
     </g>
    </g>
    <g id="ytick_7">
     <g id="line2d_27">
      <g>
       <use style="stroke:#000000;stroke-width:0.5;" x="158.4" xlink:href="#m26728b6262" y="225.225"/>
      </g>
     </g>
     <g id="line2d_28">
      <g>
       <use style="stroke:#000000;stroke-width:0.5;" x="1336.05" xlink:href="#m9a6b61a3e6" y="225.225"/>
      </g>
     </g>
     <g id="text_14">
      <!-- 0 -->
      <g transform="translate(135.3125 233.503125)scale(0.3 -0.3)">
       <use xlink:href="#BitstreamVeraSans-Roman-30"/>
      </g>
     </g>
    </g>
    <g id="ytick_8">
     <g id="line2d_29">
      <g>
       <use style="stroke:#000000;stroke-width:0.5;" x="158.4" xlink:href="#m26728b6262" y="138.2625"/>
      </g>
     </g>
     <g id="line2d_30">
      <g>
       <use style="stroke:#000000;stroke-width:0.5;" x="1336.05" xlink:href="#m9a6b61a3e6" y="138.2625"/>
      </g>
     </g>
     <g id="text_15">
      <!-- 10 -->
      <g transform="translate(116.225 146.540625)scale(0.3 -0.3)">
       <use xlink:href="#BitstreamVeraSans-Roman-31"/>
       <use x="63.623046875" xlink:href="#BitstreamVeraSans-Roman-30"/>
      </g>
     </g>
    </g>
    <g id="ytick_9">
     <g id="line2d_31">
      <g>
       <use style="stroke:#000000;stroke-width:0.5;" x="158.4" xlink:href="#m26728b6262" y="51.3"/>
      </g>
     </g>
     <g id="line2d_32">
      <g>
       <use style="stroke:#000000;stroke-width:0.5;" x="1336.05" xlink:href="#m9a6b61a3e6" y="51.3"/>
      </g>
     </g>
     <g id="text_16">
      <!-- 20 -->
      <g transform="translate(116.225 59.578125)scale(0.3 -0.3)">
       <use xlink:href="#BitstreamVeraSans-Roman-32"/>
       <use x="63.623046875" xlink:href="#BitstreamVeraSans-Roman-30"/>
      </g>
     </g>
    </g>
    <g id="text_17">
     <!-- log(loss) -->
     <defs>
      <path d="M 8.015625 75.875 
L 15.828125 75.875 
Q 23.140625 64.359375 26.78125 53.3125 
Q 30.421875 42.28125 30.421875 31.390625 
Q 30.421875 20.453125 26.78125 9.375 
Q 23.140625 -1.703125 15.828125 -13.1875 
L 8.015625 -13.1875 
Q 14.5 -2 17.703125 9.0625 
Q 20.90625 20.125 20.90625 31.390625 
Q 20.90625 42.671875 17.703125 53.65625 
Q 14.5 64.65625 8.015625 75.875 
" id="BitstreamVeraSans-Roman-29"/>
      <path d="M 31 75.875 
Q 24.46875 64.65625 21.28125 53.65625 
Q 18.109375 42.671875 18.109375 31.390625 
Q 18.109375 20.125 21.3125 9.0625 
Q 24.515625 -2 31 -13.1875 
L 23.1875 -13.1875 
Q 15.875 -1.703125 12.234375 9.375 
Q 8.59375 20.453125 8.59375 31.390625 
Q 8.59375 42.28125 12.203125 53.3125 
Q 15.828125 64.359375 23.1875 75.875 
z
" id="BitstreamVeraSans-Roman-28"/>
      <path d="M 45.40625 27.984375 
Q 45.40625 37.75 41.375 43.109375 
Q 37.359375 48.484375 30.078125 48.484375 
Q 22.859375 48.484375 18.828125 43.109375 
Q 14.796875 37.75 14.796875 27.984375 
Q 14.796875 18.265625 18.828125 12.890625 
Q 22.859375 7.515625 30.078125 7.515625 
Q 37.359375 7.515625 41.375 12.890625 
Q 45.40625 18.265625 45.40625 27.984375 
M 54.390625 6.78125 
Q 54.390625 -7.171875 48.1875 -13.984375 
Q 42 -20.796875 29.203125 -20.796875 
Q 24.46875 -20.796875 20.265625 -20.09375 
Q 16.0625 -19.390625 12.109375 -17.921875 
L 12.109375 -9.1875 
Q 16.0625 -11.328125 19.921875 -12.34375 
Q 23.78125 -13.375 27.78125 -13.375 
Q 36.625 -13.375 41.015625 -8.765625 
Q 45.40625 -4.15625 45.40625 5.171875 
L 45.40625 9.625 
Q 42.625 4.78125 38.28125 2.390625 
Q 33.9375 0 27.875 0 
Q 17.828125 0 11.671875 7.65625 
Q 5.515625 15.328125 5.515625 27.984375 
Q 5.515625 40.671875 11.671875 48.328125 
Q 17.828125 56 27.875 56 
Q 33.9375 56 38.28125 53.609375 
Q 42.625 51.21875 45.40625 46.390625 
L 45.40625 54.6875 
L 54.390625 54.6875 
z
" id="BitstreamVeraSans-Roman-67"/>
      <path d="M 9.421875 75.984375 
L 18.40625 75.984375 
L 18.40625 0 
L 9.421875 0 
z
" id="BitstreamVeraSans-Roman-6c"/>
     </defs>
     <g transform="translate(79.846875 462.69609375)rotate(-90.0)scale(0.3 -0.3)">
      <use xlink:href="#BitstreamVeraSans-Roman-6c"/>
      <use x="27.783203125" xlink:href="#BitstreamVeraSans-Roman-6f"/>
      <use x="88.96484375" xlink:href="#BitstreamVeraSans-Roman-67"/>
      <use x="152.44140625" xlink:href="#BitstreamVeraSans-Roman-28"/>
      <use x="191.455078125" xlink:href="#BitstreamVeraSans-Roman-6c"/>
      <use x="219.23828125" xlink:href="#BitstreamVeraSans-Roman-6f"/>
      <use x="280.419921875" xlink:href="#BitstreamVeraSans-Roman-73"/>
      <use x="332.51953125" xlink:href="#BitstreamVeraSans-Roman-73"/>
      <use x="384.619140625" xlink:href="#BitstreamVeraSans-Roman-29"/>
     </g>
    </g>
   </g>
   <g id="legend_1">
    <g id="patch_7">
     <path d="M 843.876562 163.36875 
L 1321.05 163.36875 
L 1321.05 66.3 
L 843.876562 66.3 
z
" style="fill:#ffffff;stroke:#000000;stroke-linejoin:miter;"/>
    </g>
    <g id="line2d_33">
     <path d="M 864.876562 90.595312 
L 906.876562 90.595312 
" style="fill:none;stroke:#0000ff;stroke-linecap:square;stroke-width:2.0;"/>
    </g>
    <g id="line2d_34"/>
    <g id="text_18">
     <!-- random: step=0.003891 -->
     <defs>
      <path id="BitstreamVeraSans-Roman-20"/>
      <path d="M 52 44.1875 
Q 55.375 50.25 60.0625 53.125 
Q 64.75 56 71.09375 56 
Q 79.640625 56 84.28125 50.015625 
Q 88.921875 44.046875 88.921875 33.015625 
L 88.921875 0 
L 79.890625 0 
L 79.890625 32.71875 
Q 79.890625 40.578125 77.09375 44.375 
Q 74.3125 48.1875 68.609375 48.1875 
Q 61.625 48.1875 57.5625 43.546875 
Q 53.515625 38.921875 53.515625 30.90625 
L 53.515625 0 
L 44.484375 0 
L 44.484375 32.71875 
Q 44.484375 40.625 41.703125 44.40625 
Q 38.921875 48.1875 33.109375 48.1875 
Q 26.21875 48.1875 22.15625 43.53125 
Q 18.109375 38.875 18.109375 30.90625 
L 18.109375 0 
L 9.078125 0 
L 9.078125 54.6875 
L 18.109375 54.6875 
L 18.109375 46.1875 
Q 21.1875 51.21875 25.484375 53.609375 
Q 29.78125 56 35.6875 56 
Q 41.65625 56 45.828125 52.96875 
Q 50 49.953125 52 44.1875 
" id="BitstreamVeraSans-Roman-6d"/>
      <path d="M 10.984375 1.515625 
L 10.984375 10.5 
Q 14.703125 8.734375 18.5 7.8125 
Q 22.3125 6.890625 25.984375 6.890625 
Q 35.75 6.890625 40.890625 13.453125 
Q 46.046875 20.015625 46.78125 33.40625 
Q 43.953125 29.203125 39.59375 26.953125 
Q 35.25 24.703125 29.984375 24.703125 
Q 19.046875 24.703125 12.671875 31.3125 
Q 6.296875 37.9375 6.296875 49.421875 
Q 6.296875 60.640625 12.9375 67.421875 
Q 19.578125 74.21875 30.609375 74.21875 
Q 43.265625 74.21875 49.921875 64.515625 
Q 56.59375 54.828125 56.59375 36.375 
Q 56.59375 19.140625 48.40625 8.859375 
Q 40.234375 -1.421875 26.421875 -1.421875 
Q 22.703125 -1.421875 18.890625 -0.6875 
Q 15.09375 0.046875 10.984375 1.515625 
M 30.609375 32.421875 
Q 37.25 32.421875 41.125 36.953125 
Q 45.015625 41.5 45.015625 49.421875 
Q 45.015625 57.28125 41.125 61.84375 
Q 37.25 66.40625 30.609375 66.40625 
Q 23.96875 66.40625 20.09375 61.84375 
Q 16.21875 57.28125 16.21875 49.421875 
Q 16.21875 41.5 20.09375 36.953125 
Q 23.96875 32.421875 30.609375 32.421875 
" id="BitstreamVeraSans-Roman-39"/>
      <path d="M 11.71875 12.40625 
L 22.015625 12.40625 
L 22.015625 0 
L 11.71875 0 
z
M 11.71875 51.703125 
L 22.015625 51.703125 
L 22.015625 39.3125 
L 11.71875 39.3125 
z
" id="BitstreamVeraSans-Roman-3a"/>
      <path d="M 10.6875 12.40625 
L 21 12.40625 
L 21 0 
L 10.6875 0 
z
" id="BitstreamVeraSans-Roman-2e"/>
      <path d="M 10.59375 45.40625 
L 73.1875 45.40625 
L 73.1875 37.203125 
L 10.59375 37.203125 
z
M 10.59375 25.484375 
L 73.1875 25.484375 
L 73.1875 17.1875 
L 10.59375 17.1875 
z
" id="BitstreamVeraSans-Roman-3d"/>
      <path d="M 45.40625 46.390625 
L 45.40625 75.984375 
L 54.390625 75.984375 
L 54.390625 0 
L 45.40625 0 
L 45.40625 8.203125 
Q 42.578125 3.328125 38.25 0.953125 
Q 33.9375 -1.421875 27.875 -1.421875 
Q 17.96875 -1.421875 11.734375 6.484375 
Q 5.515625 14.40625 5.515625 27.296875 
Q 5.515625 40.1875 11.734375 48.09375 
Q 17.96875 56 27.875 56 
Q 33.9375 56 38.25 53.625 
Q 42.578125 51.265625 45.40625 46.390625 
M 14.796875 27.296875 
Q 14.796875 17.390625 18.875 11.75 
Q 22.953125 6.109375 30.078125 6.109375 
Q 37.203125 6.109375 41.296875 11.75 
Q 45.40625 17.390625 45.40625 27.296875 
Q 45.40625 37.203125 41.296875 42.84375 
Q 37.203125 48.484375 30.078125 48.484375 
Q 22.953125 48.484375 18.875 42.84375 
Q 14.796875 37.203125 14.796875 27.296875 
" id="BitstreamVeraSans-Roman-64"/>
      <path d="M 18.109375 8.203125 
L 18.109375 -20.796875 
L 9.078125 -20.796875 
L 9.078125 54.6875 
L 18.109375 54.6875 
L 18.109375 46.390625 
Q 20.953125 51.265625 25.265625 53.625 
Q 29.59375 56 35.59375 56 
Q 45.5625 56 51.78125 48.09375 
Q 58.015625 40.1875 58.015625 27.296875 
Q 58.015625 14.40625 51.78125 6.484375 
Q 45.5625 -1.421875 35.59375 -1.421875 
Q 29.59375 -1.421875 25.265625 0.953125 
Q 20.953125 3.328125 18.109375 8.203125 
M 48.6875 27.296875 
Q 48.6875 37.203125 44.609375 42.84375 
Q 40.53125 48.484375 33.40625 48.484375 
Q 26.265625 48.484375 22.1875 42.84375 
Q 18.109375 37.203125 18.109375 27.296875 
Q 18.109375 17.390625 22.1875 11.75 
Q 26.265625 6.109375 33.40625 6.109375 
Q 40.53125 6.109375 44.609375 11.75 
Q 48.6875 17.390625 48.6875 27.296875 
" id="BitstreamVeraSans-Roman-70"/>
     </defs>
     <g transform="translate(939.8765625 101.0953125)scale(0.3 -0.3)">
      <use xlink:href="#BitstreamVeraSans-Roman-72"/>
      <use x="41.11328125" xlink:href="#BitstreamVeraSans-Roman-61"/>
      <use x="102.392578125" xlink:href="#BitstreamVeraSans-Roman-6e"/>
      <use x="165.771484375" xlink:href="#BitstreamVeraSans-Roman-64"/>
      <use x="229.248046875" xlink:href="#BitstreamVeraSans-Roman-6f"/>
      <use x="290.4296875" xlink:href="#BitstreamVeraSans-Roman-6d"/>
      <use x="387.841796875" xlink:href="#BitstreamVeraSans-Roman-3a"/>
      <use x="421.533203125" xlink:href="#BitstreamVeraSans-Roman-20"/>
      <use x="453.3203125" xlink:href="#BitstreamVeraSans-Roman-73"/>
      <use x="505.419921875" xlink:href="#BitstreamVeraSans-Roman-74"/>
      <use x="544.62890625" xlink:href="#BitstreamVeraSans-Roman-65"/>
      <use x="606.15234375" xlink:href="#BitstreamVeraSans-Roman-70"/>
      <use x="669.62890625" xlink:href="#BitstreamVeraSans-Roman-3d"/>
      <use x="753.41796875" xlink:href="#BitstreamVeraSans-Roman-30"/>
      <use x="817.041015625" xlink:href="#BitstreamVeraSans-Roman-2e"/>
      <use x="848.828125" xlink:href="#BitstreamVeraSans-Roman-30"/>
      <use x="912.451171875" xlink:href="#BitstreamVeraSans-Roman-30"/>
      <use x="976.07421875" xlink:href="#BitstreamVeraSans-Roman-33"/>
      <use x="1039.69726562" xlink:href="#BitstreamVeraSans-Roman-38"/>
      <use x="1103.3203125" xlink:href="#BitstreamVeraSans-Roman-39"/>
      <use x="1166.94335938" xlink:href="#BitstreamVeraSans-Roman-31"/>
     </g>
    </g>
    <g id="line2d_35">
     <path d="M 864.876562 134.629687 
L 906.876562 134.629687 
" style="fill:none;stroke:#008000;stroke-dasharray:6.000000,6.000000;stroke-dashoffset:0.0;stroke-width:2.0;"/>
    </g>
    <g id="line2d_36"/>
    <g id="text_19">
     <!-- corr: step=0.003891 -->
     <defs>
      <path d="M 48.78125 52.59375 
L 48.78125 44.1875 
Q 44.96875 46.296875 41.140625 47.34375 
Q 37.3125 48.390625 33.40625 48.390625 
Q 24.65625 48.390625 19.8125 42.84375 
Q 14.984375 37.3125 14.984375 27.296875 
Q 14.984375 17.28125 19.8125 11.734375 
Q 24.65625 6.203125 33.40625 6.203125 
Q 37.3125 6.203125 41.140625 7.25 
Q 44.96875 8.296875 48.78125 10.40625 
L 48.78125 2.09375 
Q 45.015625 0.34375 40.984375 -0.53125 
Q 36.96875 -1.421875 32.421875 -1.421875 
Q 20.0625 -1.421875 12.78125 6.34375 
Q 5.515625 14.109375 5.515625 27.296875 
Q 5.515625 40.671875 12.859375 48.328125 
Q 20.21875 56 33.015625 56 
Q 37.15625 56 41.109375 55.140625 
Q 45.0625 54.296875 48.78125 52.59375 
" id="BitstreamVeraSans-Roman-63"/>
     </defs>
     <g transform="translate(939.8765625 145.1296875)scale(0.3 -0.3)">
      <use xlink:href="#BitstreamVeraSans-Roman-63"/>
      <use x="54.98046875" xlink:href="#BitstreamVeraSans-Roman-6f"/>
      <use x="116.162109375" xlink:href="#BitstreamVeraSans-Roman-72"/>
      <use x="157.259765625" xlink:href="#BitstreamVeraSans-Roman-72"/>
      <use x="198.357421875" xlink:href="#BitstreamVeraSans-Roman-3a"/>
      <use x="232.048828125" xlink:href="#BitstreamVeraSans-Roman-20"/>
      <use x="263.8359375" xlink:href="#BitstreamVeraSans-Roman-73"/>
      <use x="315.935546875" xlink:href="#BitstreamVeraSans-Roman-74"/>
      <use x="355.14453125" xlink:href="#BitstreamVeraSans-Roman-65"/>
      <use x="416.66796875" xlink:href="#BitstreamVeraSans-Roman-70"/>
      <use x="480.14453125" xlink:href="#BitstreamVeraSans-Roman-3d"/>
      <use x="563.93359375" xlink:href="#BitstreamVeraSans-Roman-30"/>
      <use x="627.556640625" xlink:href="#BitstreamVeraSans-Roman-2e"/>
      <use x="659.34375" xlink:href="#BitstreamVeraSans-Roman-30"/>
      <use x="722.966796875" xlink:href="#BitstreamVeraSans-Roman-30"/>
      <use x="786.58984375" xlink:href="#BitstreamVeraSans-Roman-33"/>
      <use x="850.212890625" xlink:href="#BitstreamVeraSans-Roman-38"/>
      <use x="913.8359375" xlink:href="#BitstreamVeraSans-Roman-39"/>
      <use x="977.458984375" xlink:href="#BitstreamVeraSans-Roman-31"/>
     </g>
    </g>
   </g>
  </g>
 </g>
 <defs>
  <clipPath id="pf98c164cda">
   <rect height="695.7" width="1177.65" x="158.4" y="51.3"/>
  </clipPath>
 </defs>
</svg>
