<?xml version="1.0" encoding="utf-8" standalone="no"?>
<!DOCTYPE svg PUBLIC "-//W3C//DTD SVG 1.1//EN"
  "http://www.w3.org/Graphics/SVG/1.1/DTD/svg11.dtd">
<!-- Created with matplotlib (http://matplotlib.org/) -->
<svg height="864pt" version="1.1" viewBox="0 0 1440 864" width="1440pt" xmlns="http://www.w3.org/2000/svg" xmlns:xlink="http://www.w3.org/1999/xlink">
 <defs>
  <style type="text/css">
*{stroke-linecap:butt;stroke-linejoin:round;stroke-miterlimit:100000;}
  </style>
 </defs>
 <g id="figure_1">
  <g id="patch_1">
   <path d="M 0 864 
L 1440 864 
L 1440 0 
L 0 0 
z
" style="fill:#ffffff;"/>
  </g>
  <g id="axes_1">
   <g id="patch_2">
    <path d="M 158.4 747 
L 1336.05 747 
L 1336.05 51.3 
L 158.4 51.3 
z
" style="fill:#ffffff;"/>
   </g>
   <g id="line2d_1">
    <path clip-path="url(#p2964e882e6)" d="M 159.57765 135.252808 
L 164.28825 160.750401 
L 165.4659 165.027257 
L 166.64355 168.273993 
L 167.8212 174.642801 
L 173.70945 203.203225 
L 174.8871 209.513582 
L 176.06475 214.938607 
L 177.2424 219.757367 
L 178.42005 225.166178 
L 179.5977 229.661816 
L 180.77535 232.900478 
L 181.953 240.476622 
L 183.13065 246.728176 
L 184.3083 254.785855 
L 185.48595 259.495774 
L 186.6636 267.527391 
L 187.84125 274.572004 
L 189.0189 279.768791 
L 191.3742 292.401268 
L 193.7295 304.642 
L 194.90715 309.692712 
L 197.26245 321.843409 
L 200.7954 340.153018 
L 201.97305 345.368511 
L 204.32835 353.013204 
L 206.68365 364.278931 
L 207.8613 370.748474 
L 209.03895 375.528488 
L 211.39425 387.101333 
L 212.5719 394.925641 
L 213.74955 399.916518 
L 216.10485 412.24387 
L 217.2825 417.119987 
L 218.46015 423.150234 
L 219.6378 427.128174 
L 220.81545 433.556576 
L 221.9931 438.153851 
L 223.17075 443.542483 
L 225.52605 452.563098 
L 226.7037 459.229243 
L 227.88135 465.210079 
L 229.059 468.94843 
L 230.23665 476.295532 
L 231.4143 481.444909 
L 233.7696 494.262947 
L 234.94725 499.603134 
L 236.1249 505.612061 
L 237.30255 512.403683 
L 239.65785 522.784474 
L 240.8355 528.542749 
L 245.5461 554.846676 
L 246.72375 559.277652 
L 247.9014 565.520412 
L 249.07905 569.897413 
L 250.2567 575.601246 
L 251.43435 582.047271 
L 252.612 586.718642 
L 260.85555 627.377529 
L 262.0332 633.869807 
L 263.21085 639.468403 
L 264.3885 644.151055 
L 267.92145 660.971227 
L 270.27675 675.285183 
L 271.4544 681.022172 
L 276.165 701.572623 
L 278.5203 710.80937 
L 279.69795 713.759108 
L 280.8756 718.472696 
L 282.05325 721.073459 
L 283.2309 724.041834 
L 284.40855 726.103583 
L 285.5862 730.826232 
L 286.76385 728.8107 
L 287.9415 729.430678 
L 289.11915 729.614399 
L 290.2968 729.596537 
L 291.47445 728.042193 
L 292.6521 729.858732 
L 293.82975 726.891574 
L 295.0074 727.329909 
L 296.18505 730.716689 
L 297.3627 729.259754 
L 298.54035 728.659468 
L 299.718 727.626197 
L 300.89565 727.481013 
L 302.0733 726.98192 
L 303.25095 727.691185 
L 304.4286 726.523745 
L 305.60625 727.416214 
L 306.7839 728.072409 
L 307.96155 729.434124 
L 309.1392 730.035077 
L 310.31685 729.034783 
L 311.4945 729.250714 
L 312.67215 728.469266 
L 313.8498 725.791821 
L 315.02745 727.445018 
L 316.2051 725.917511 
L 317.38275 726.08458 
L 320.9157 728.016535 
L 322.09335 728.597818 
L 323.271 729.403834 
L 324.44865 728.419846 
L 325.6263 728.061817 
L 326.80395 727.015778 
L 329.15925 729.674936 
L 330.3369 728.136679 
L 331.51455 728.583801 
L 332.6922 730.706065 
L 333.86985 731.546078 
L 335.0475 730.444556 
L 336.22515 730.273095 
L 337.4028 730.641064 
L 338.58045 731.264115 
L 339.7581 729.458578 
L 340.93575 727.005114 
L 342.1134 726.969616 
L 343.29105 727.377572 
L 344.4687 729.367535 
L 345.64635 727.190137 
L 346.824 727.007842 
L 348.00165 727.653889 
L 349.1793 727.586593 
L 351.5346 730.620722 
L 352.71225 730.293523 
L 353.8899 727.444336 
L 355.06755 728.876852 
L 356.2452 728.943546 
L 357.42285 729.538579 
L 358.6005 728.646403 
L 359.77815 728.875618 
L 360.9558 729.800763 
L 362.13345 726.815687 
L 363.3111 727.624621 
L 364.48875 727.180924 
L 365.6664 726.948599 
L 366.84405 727.194217 
L 368.0217 728.322305 
L 369.19935 728.209868 
L 370.377 729.141348 
L 372.7323 728.329647 
L 373.90995 730.157792 
L 375.0876 730.526218 
L 376.26525 730.253844 
L 377.4429 730.432926 
L 378.62055 731.781994 
L 379.7982 730.779032 
L 380.97585 729.526822 
L 382.1535 729.282738 
L 383.33115 729.405981 
L 384.5088 728.622746 
L 385.68645 728.700137 
L 386.8641 730.340442 
L 388.04175 728.010909 
L 389.2194 729.870839 
L 390.39705 730.539502 
L 391.5747 729.918841 
L 392.75235 728.518531 
L 393.93 727.935173 
L 395.10765 729.247813 
L 396.2853 730.358403 
L 397.46295 728.867222 
L 398.6406 728.315014 
L 399.81825 726.412843 
L 400.9959 729.807413 
L 402.17355 728.804421 
L 403.3512 729.689113 
L 404.52885 728.60613 
L 405.7065 727.7354 
L 408.0618 728.815954 
L 409.23945 728.892865 
L 410.4171 728.616037 
L 411.59475 729.280089 
L 412.7724 728.874698 
L 413.95005 730.077299 
L 415.1277 730.931032 
L 416.30535 729.329673 
L 417.483 730.316497 
L 418.66065 728.077097 
L 419.8383 728.650094 
L 421.01595 731.306549 
L 422.1936 729.240255 
L 423.37125 729.04186 
L 424.5489 728.713533 
L 425.72655 725.977874 
L 426.9042 729.088394 
L 428.08185 728.792246 
L 429.2595 727.508324 
L 430.43715 726.763815 
L 431.6148 725.882023 
L 432.79245 726.837472 
L 433.9701 725.258555 
L 435.14775 727.137957 
L 436.3254 726.976996 
L 437.50305 726.21891 
L 438.6807 725.255654 
L 439.85835 727.037084 
L 441.036 728.397374 
L 442.21365 728.442263 
L 443.3913 729.001171 
L 444.56895 729.704577 
L 445.7466 730.99107 
L 446.92425 729.135051 
L 448.1019 728.138684 
L 449.27955 727.722525 
L 450.4572 729.814058 
L 452.8125 729.195636 
L 453.99015 726.968424 
L 455.1678 728.183466 
L 456.34545 728.059274 
L 457.5231 728.448935 
L 458.70075 729.302019 
L 459.8784 729.017859 
L 461.05605 729.881182 
L 462.2337 729.561679 
L 463.41135 729.95358 
L 465.76665 728.722709 
L 466.9443 729.256082 
L 468.12195 727.705257 
L 469.2996 729.690921 
L 470.47725 729.176221 
L 471.6549 731.254151 
L 472.83255 728.167108 
L 474.0102 730.173404 
L 475.18785 730.283238 
L 476.3655 728.953357 
L 477.54315 729.743297 
L 479.89845 729.070433 
L 481.0761 727.853563 
L 482.25375 729.230731 
L 483.4314 729.195212 
L 484.60905 729.314732 
L 485.7867 728.323672 
L 486.96435 729.256632 
L 489.31965 729.344462 
L 490.4973 729.169133 
L 491.67495 728.361032 
L 492.8526 728.848542 
L 494.03025 729.103011 
L 495.2079 729.657614 
L 496.38555 728.242842 
L 497.5632 729.636485 
L 498.74085 729.815069 
L 499.9185 728.014606 
L 501.09615 727.273619 
L 502.2738 726.322838 
L 503.45145 728.626258 
L 504.6291 728.708868 
L 505.80675 727.072641 
L 506.9844 724.844805 
L 508.16205 726.199126 
L 509.3397 727.239062 
L 510.51735 729.193888 
L 511.695 728.092213 
L 512.87265 727.40099 
L 514.0503 726.843849 
L 515.22795 728.395668 
L 516.4056 726.993636 
L 517.58325 726.656507 
L 518.7609 728.050898 
L 519.93855 728.199048 
L 521.1162 727.221014 
L 522.29385 727.82736 
L 525.8268 726.528441 
L 527.00445 728.793207 
L 528.1821 730.138708 
L 529.35975 729.051466 
L 530.5374 730.307019 
L 531.71505 730.008048 
L 532.8927 730.356583 
L 534.07035 729.374873 
L 535.248 728.019967 
L 536.42565 727.950738 
L 537.6033 728.37396 
L 538.78095 729.07285 
L 541.13625 727.062328 
L 542.3139 728.386824 
L 543.49155 729.233149 
L 544.6692 729.004005 
L 545.84685 729.303903 
L 547.0245 728.262983 
L 548.20215 727.524913 
L 549.3798 729.883856 
L 550.55745 728.967396 
L 551.7351 729.899997 
L 552.91275 729.443511 
L 554.0904 727.973404 
L 555.26805 727.288119 
L 557.62335 727.907328 
L 558.801 726.209287 
L 561.1563 727.712331 
L 562.33395 729.332666 
L 563.5116 729.398852 
L 564.68925 728.668969 
L 565.8669 728.377667 
L 568.2222 730.566454 
L 569.39985 728.314501 
L 570.5775 728.343136 
L 571.75515 729.783327 
L 572.9328 728.913032 
L 575.2881 727.862224 
L 576.46575 726.691038 
L 577.6434 726.835614 
L 578.82105 727.883843 
L 579.9987 728.405501 
L 581.17635 728.416605 
L 582.354 728.647624 
L 583.53165 729.551664 
L 584.7093 728.109238 
L 585.88695 727.153011 
L 587.0646 727.630785 
L 588.24225 727.648865 
L 589.4199 728.718147 
L 590.59755 727.967436 
L 591.7752 730.435052 
L 592.95285 729.03469 
L 594.1305 731.468397 
L 595.30815 730.534649 
L 596.4858 731.43894 
L 597.66345 728.882375 
L 598.8411 729.3364 
L 600.01875 729.362883 
L 601.1964 729.995675 
L 602.37405 728.162989 
L 603.5517 727.322914 
L 604.72935 725.015149 
L 605.907 726.11703 
L 607.08465 726.963514 
L 608.2623 727.287255 
L 609.43995 726.864032 
L 610.6176 728.272108 
L 611.79525 727.158614 
L 612.9729 727.108339 
L 614.15055 727.609099 
L 615.3282 727.3232 
L 617.6835 727.323826 
L 618.86115 727.9683 
L 620.0388 727.621301 
L 621.21645 727.53417 
L 622.3941 729.184962 
L 623.57175 730.368064 
L 624.7494 730.585357 
L 625.92705 729.03842 
L 627.1047 729.66479 
L 628.28235 728.526522 
L 629.46 728.678146 
L 630.63765 728.590877 
L 631.8153 729.215295 
L 632.99295 730.973374 
L 634.1706 730.289751 
L 635.34825 729.179591 
L 636.5259 728.554134 
L 640.05885 729.609886 
L 641.2365 731.678713 
L 642.41415 732.3324 
L 643.5918 731.539826 
L 644.76945 728.453199 
L 645.9471 729.224009 
L 647.12475 726.580797 
L 648.3024 726.983712 
L 649.48005 728.372949 
L 650.6577 729.143078 
L 651.83535 730.123144 
L 653.013 729.766656 
L 654.19065 728.415423 
L 655.3683 730.134675 
L 656.54595 727.494188 
L 657.7236 726.898156 
L 658.90125 727.554416 
L 660.0789 725.624382 
L 662.4342 730.365307 
L 663.61185 729.352361 
L 664.7895 728.634997 
L 665.96715 728.221492 
L 668.32245 732.470074 
L 670.67775 731.26787 
L 671.8554 726.996532 
L 673.03305 729.040235 
L 674.2107 727.665963 
L 675.38835 728.064699 
L 676.566 726.695061 
L 677.74365 728.468111 
L 678.9213 726.395963 
L 680.09895 727.345964 
L 681.2766 729.256281 
L 682.45425 729.947643 
L 683.6319 728.275499 
L 684.80955 727.995584 
L 685.9872 727.932466 
L 687.16485 728.019916 
L 688.3425 729.372484 
L 689.52015 727.581719 
L 690.6978 729.427606 
L 691.87545 732.226345 
L 693.0531 731.294757 
L 694.23075 729.981831 
L 695.4084 729.896452 
L 696.58605 729.437071 
L 697.7637 731.13902 
L 698.94135 731.009318 
L 700.119 729.990371 
L 701.29665 730.595641 
L 702.4743 729.521474 
L 703.65195 729.92159 
L 704.8296 729.470244 
L 706.00725 728.333893 
L 707.1849 727.747243 
L 708.36255 729.508471 
L 709.5402 727.542488 
L 710.71785 726.056369 
L 711.8955 729.1825 
L 713.07315 731.092933 
L 714.2508 729.101428 
L 715.42845 730.630839 
L 716.6061 728.986959 
L 717.78375 729.812262 
L 718.9614 730.223328 
L 720.13905 729.835128 
L 721.3167 730.435466 
L 722.49435 728.22786 
L 724.84965 729.488395 
L 726.0273 730.253327 
L 727.20495 728.125113 
L 728.3826 728.633848 
L 729.56025 728.895279 
L 730.7379 730.538882 
L 731.91555 730.237816 
L 733.0932 729.359949 
L 734.27085 727.663202 
L 735.4485 728.616812 
L 736.62615 728.552704 
L 737.8038 729.338906 
L 738.98145 730.693578 
L 740.1591 729.153263 
L 742.5144 729.454697 
L 743.69205 727.766343 
L 744.8697 728.332669 
L 746.04735 727.886508 
L 747.225 727.855145 
L 748.40265 728.965847 
L 749.5803 728.054156 
L 750.75795 727.412764 
L 751.9356 727.843341 
L 753.11325 729.841353 
L 754.2909 730.820145 
L 755.46855 729.90407 
L 756.6462 729.712416 
L 757.82385 730.264162 
L 759.0015 729.130467 
L 760.17915 728.658685 
L 761.3568 728.709428 
L 762.53445 729.326919 
L 763.7121 728.860874 
L 764.88975 728.719563 
L 766.0674 728.373455 
L 768.4227 729.273948 
L 769.60035 729.060022 
L 770.778 729.117103 
L 771.95565 727.0992 
L 773.1333 726.646674 
L 775.4886 726.966857 
L 776.66625 725.150057 
L 777.8439 724.62974 
L 779.02155 725.068745 
L 780.1992 727.879786 
L 781.37685 725.810883 
L 782.5545 727.221078 
L 783.73215 726.864952 
L 784.9098 723.604794 
L 786.08745 724.757986 
L 787.2651 725.721903 
L 788.44275 727.761205 
L 789.6204 726.393091 
L 790.79805 728.358808 
L 791.9757 729.162662 
L 793.15335 728.983691 
L 794.331 728.680914 
L 795.50865 727.913357 
L 796.6863 728.752395 
L 797.86395 729.830405 
L 799.0416 728.515048 
L 800.21925 727.85755 
L 801.3969 728.96119 
L 802.57455 729.042801 
L 803.7522 728.588819 
L 804.92985 730.09107 
L 806.1075 732.242845 
L 807.28515 731.210955 
L 808.4628 729.579227 
L 809.64045 729.423288 
L 810.8181 729.885125 
L 811.99575 729.743491 
L 813.1734 730.97677 
L 814.35105 730.037988 
L 815.5287 728.472713 
L 816.70635 729.040104 
L 817.884 729.919872 
L 819.06165 729.417789 
L 820.2393 728.101373 
L 821.41695 728.457802 
L 822.5946 728.962467 
L 823.77225 729.851884 
L 824.9499 730.471801 
L 826.12755 730.077271 
L 827.3052 726.312742 
L 829.6605 729.574106 
L 830.83815 729.733491 
L 832.0158 729.318495 
L 833.19345 727.804256 
L 834.3711 729.459174 
L 835.54875 728.222727 
L 836.7264 728.583115 
L 837.90405 728.010567 
L 839.0817 728.662933 
L 840.25935 727.469393 
L 841.437 731.067963 
L 842.61465 730.975903 
L 843.7923 732.577873 
L 844.96995 730.425648 
L 846.1476 729.28145 
L 847.32525 729.233752 
L 848.5029 730.546366 
L 849.68055 728.373395 
L 850.8582 729.452443 
L 852.03585 730.365093 
L 853.2135 729.766538 
L 854.39115 730.152033 
L 856.74645 729.178724 
L 857.9241 731.802368 
L 859.10175 731.076848 
L 860.2794 731.740235 
L 861.45705 730.347585 
L 862.6347 727.012531 
L 863.81235 727.850743 
L 864.99 728.543657 
L 866.16765 729.556645 
L 867.3453 729.596792 
L 868.52295 730.730486 
L 869.7006 730.309618 
L 870.87825 731.155993 
L 872.0559 730.347333 
L 873.23355 732.329066 
L 874.4112 731.407824 
L 875.58885 729.576311 
L 876.7665 728.376177 
L 877.94415 728.075162 
L 879.1218 726.899997 
L 880.29945 727.489889 
L 881.4771 729.797702 
L 882.65475 727.433848 
L 885.01005 727.265987 
L 886.1877 727.890984 
L 887.36535 726.693413 
L 888.543 727.307641 
L 889.72065 727.174808 
L 890.8983 729.084445 
L 892.07595 728.821427 
L 893.2536 727.651287 
L 894.43125 728.391947 
L 896.78655 729.143597 
L 897.9642 727.089695 
L 900.3195 727.524692 
L 902.6748 729.84819 
L 903.85245 726.9289 
L 905.0301 726.566653 
L 906.20775 728.13336 
L 907.3854 727.805766 
L 908.56305 727.327554 
L 909.7407 727.913184 
L 912.096 729.722713 
L 913.27365 730.928959 
L 914.4513 730.384048 
L 915.62895 730.198222 
L 916.8066 731.118028 
L 917.98425 726.191185 
L 919.1619 728.736388 
L 920.33955 729.969155 
L 921.5172 730.526626 
L 922.69485 730.309528 
L 923.8725 729.018525 
L 925.05015 727.256313 
L 926.2278 729.727248 
L 927.40545 728.636128 
L 928.5831 728.216863 
L 929.76075 726.955481 
L 930.9384 728.651286 
L 932.11605 726.360339 
L 933.2937 727.897419 
L 934.47135 729.133555 
L 935.649 729.125929 
L 936.82665 728.889288 
L 938.0043 727.672337 
L 939.18195 728.468871 
L 940.3596 730.820592 
L 941.53725 730.205874 
L 943.89255 727.988126 
L 945.0702 726.541421 
L 946.24785 729.312107 
L 947.4255 729.001693 
L 948.60315 731.211871 
L 949.7808 729.335943 
L 950.95845 728.800777 
L 952.1361 728.418503 
L 953.31375 726.469738 
L 954.4914 727.85889 
L 955.66905 726.621882 
L 956.8467 726.719738 
L 958.02435 729.103525 
L 959.202 730.361139 
L 960.37965 727.945797 
L 961.5573 731.071975 
L 962.73495 730.917417 
L 963.9126 730.59536 
L 966.2679 729.437538 
L 967.44555 729.653331 
L 968.6232 730.699105 
L 969.80085 729.280077 
L 970.9785 729.702753 
L 972.15615 729.498515 
L 973.3338 729.804207 
L 974.51145 728.360869 
L 975.6891 728.704077 
L 976.86675 730.494834 
L 978.0444 729.89858 
L 979.22205 728.090626 
L 980.3997 727.35084 
L 981.57735 728.418507 
L 982.755 728.026684 
L 983.93265 725.267142 
L 985.1103 727.555352 
L 986.28795 727.701195 
L 987.4656 727.410957 
L 988.64325 729.034407 
L 989.8209 729.66211 
L 990.99855 730.932851 
L 992.1762 729.981294 
L 993.35385 731.408674 
L 994.5315 731.672215 
L 995.70915 730.112132 
L 996.8868 727.578081 
L 998.06445 727.542594 
L 999.2421 729.566437 
L 1000.41975 729.999169 
L 1001.5974 728.428566 
L 1002.77505 730.05262 
L 1003.9527 730.059692 
L 1005.13035 728.271253 
L 1006.308 726.777281 
L 1007.48565 728.57738 
L 1008.6633 728.242703 
L 1009.84095 728.155857 
L 1011.0186 729.672141 
L 1012.19625 727.588864 
L 1013.3739 726.869673 
L 1014.55155 729.312178 
L 1016.90685 728.948536 
L 1018.0845 729.769598 
L 1019.26215 729.472531 
L 1020.4398 726.752297 
L 1021.61745 728.832102 
L 1022.7951 728.850887 
L 1023.97275 727.230361 
L 1025.1504 727.08946 
L 1026.32805 729.62741 
L 1027.5057 728.748252 
L 1028.68335 728.760239 
L 1029.861 730.028993 
L 1031.03865 729.494157 
L 1032.2163 730.985734 
L 1033.39395 729.947014 
L 1034.5716 730.435704 
L 1035.74925 727.31392 
L 1036.9269 730.707557 
L 1038.10455 727.43175 
L 1039.2822 728.577946 
L 1040.45985 730.606742 
L 1041.6375 731.06013 
L 1042.81515 729.716797 
L 1043.9928 729.285288 
L 1045.17045 728.145588 
L 1047.52575 727.687741 
L 1048.7034 726.703783 
L 1049.88105 729.244675 
L 1051.0587 728.845123 
L 1052.23635 730.331936 
L 1053.414 726.344761 
L 1054.59165 727.741976 
L 1055.7693 727.557375 
L 1056.94695 729.316793 
L 1058.1246 729.017893 
L 1059.30225 730.252005 
L 1061.65755 729.803515 
L 1062.8352 728.08668 
L 1064.01285 726.118198 
L 1065.1905 727.294543 
L 1066.36815 729.300355 
L 1067.5458 727.318488 
L 1068.72345 730.013094 
L 1069.9011 730.184447 
L 1071.07875 731.390559 
L 1072.2564 731.200587 
L 1073.43405 728.913794 
L 1074.6117 731.422242 
L 1075.78935 731.528297 
L 1076.967 729.877347 
L 1078.14465 730.276787 
L 1079.3223 729.23203 
L 1080.49995 728.81519 
L 1081.6776 728.563272 
L 1082.85525 729.119815 
L 1085.21055 729.680747 
L 1086.3882 727.629833 
L 1087.56585 727.319855 
L 1088.7435 727.265506 
L 1089.92115 727.03015 
L 1091.0988 728.165193 
L 1092.27645 726.556375 
L 1093.4541 726.662132 
L 1094.63175 728.234861 
L 1095.8094 726.977965 
L 1096.98705 727.035772 
L 1098.1647 729.110943 
L 1099.34235 729.273627 
L 1102.8753 732.117996 
L 1104.05295 729.796296 
L 1105.2306 728.49637 
L 1106.40825 728.02622 
L 1108.76355 730.382324 
L 1109.9412 728.750648 
L 1111.11885 728.158583 
L 1112.2965 728.090162 
L 1113.47415 726.520447 
L 1114.6518 727.138629 
L 1115.82945 729.597101 
L 1117.0071 729.543829 
L 1118.18475 728.507684 
L 1119.3624 731.32277 
L 1120.54005 732.117777 
L 1121.7177 731.606344 
L 1122.89535 730.079351 
L 1124.073 730.62616 
L 1125.25065 727.91148 
L 1126.4283 728.022253 
L 1127.60595 729.790776 
L 1128.7836 729.186177 
L 1129.96125 729.513426 
L 1131.1389 730.961803 
L 1132.31655 728.008921 
L 1133.4942 728.270035 
L 1134.67185 728.032861 
L 1135.8495 730.252642 
L 1137.02715 726.654277 
L 1138.2048 726.562639 
L 1139.38245 728.895913 
L 1140.5601 729.911347 
L 1141.73775 729.932961 
L 1142.9154 728.821406 
L 1144.09305 728.845621 
L 1145.2707 730.523587 
L 1146.44835 728.167473 
L 1147.626 729.701186 
L 1149.9813 729.360951 
L 1151.15895 728.985369 
L 1152.3366 729.800825 
L 1153.51425 727.598901 
L 1154.6919 729.840016 
L 1155.86955 729.853952 
L 1157.0472 729.590579 
L 1158.22485 730.451401 
L 1159.4025 727.308339 
L 1160.58015 727.413535 
L 1161.7578 728.023036 
L 1162.93545 728.503844 
L 1164.1131 726.966523 
L 1165.29075 725.698112 
L 1166.4684 727.50361 
L 1167.64605 727.808255 
L 1168.8237 728.362566 
L 1171.179 728.396395 
L 1172.35665 728.837065 
L 1173.5343 727.782867 
L 1174.71195 728.720909 
L 1175.8896 727.575657 
L 1177.06725 728.989652 
L 1178.2449 728.716212 
L 1179.42255 727.76795 
L 1180.6002 726.643084 
L 1181.77785 727.832386 
L 1182.9555 729.526639 
L 1184.13315 727.804256 
L 1185.3108 728.377646 
L 1186.48845 729.913887 
L 1187.6661 729.858642 
L 1188.84375 729.929674 
L 1190.0214 728.28034 
L 1191.19905 729.191131 
L 1192.3767 725.461991 
L 1193.55435 726.207041 
L 1194.732 725.993346 
L 1195.90965 727.121684 
L 1197.0873 728.951226 
L 1198.26495 728.004025 
L 1199.4426 729.197006 
L 1200.62025 729.150307 
L 1201.7979 730.622393 
L 1202.97555 729.125615 
L 1204.1532 728.594219 
L 1205.33085 729.110181 
L 1206.5085 729.139229 
L 1207.68615 728.333929 
L 1208.8638 728.654275 
L 1210.04145 728.127338 
L 1211.2191 729.657295 
L 1212.39675 727.537204 
L 1213.5744 727.498505 
L 1214.75205 728.57021 
L 1215.9297 729.169478 
L 1217.10735 728.520173 
L 1218.285 726.113406 
L 1219.46265 728.39084 
L 1221.81795 729.159427 
L 1222.9956 731.450624 
L 1224.17325 731.735132 
L 1225.3509 728.802746 
L 1226.52855 730.629994 
L 1227.7062 731.894641 
L 1228.88385 732.769014 
L 1230.0615 730.8818 
L 1231.23915 727.355915 
L 1232.4168 726.77875 
L 1233.59445 728.312744 
L 1234.7721 728.832384 
L 1235.94975 728.074033 
L 1237.1274 729.811422 
L 1238.30505 725.983733 
L 1240.66035 727.823083 
L 1241.838 728.236044 
L 1243.01565 729.648863 
L 1244.1933 727.881703 
L 1245.37095 727.470167 
L 1246.5486 726.516049 
L 1247.72625 727.151042 
L 1248.9039 729.49185 
L 1250.08155 727.791624 
L 1251.2592 727.128448 
L 1252.43685 729.101674 
L 1253.6145 728.270007 
L 1254.79215 726.866737 
L 1255.9698 727.698081 
L 1257.14745 730.160286 
L 1258.3251 729.935704 
L 1259.50275 729.951381 
L 1260.6804 730.419524 
L 1261.85805 730.297437 
L 1263.0357 729.024829 
L 1264.21335 727.006163 
L 1265.391 726.333972 
L 1266.56865 726.160835 
L 1267.7463 727.240556 
L 1268.92395 727.460603 
L 1270.1016 727.303698 
L 1272.4569 727.746988 
L 1273.63455 728.548933 
L 1278.34515 730.072623 
L 1279.5228 730.142703 
L 1280.70045 729.402764 
L 1281.8781 729.772074 
L 1283.05575 728.222395 
L 1284.2334 729.482084 
L 1285.41105 728.178417 
L 1286.5887 728.754419 
L 1287.76635 727.519548 
L 1288.944 728.903301 
L 1290.12165 729.913816 
L 1291.2993 729.437753 
L 1292.47695 728.46828 
L 1293.6546 727.811712 
L 1294.83225 729.190456 
L 1296.0099 730.911283 
L 1297.18755 731.860989 
L 1298.3652 729.068535 
L 1299.54285 729.801752 
L 1300.7205 728.337984 
L 1301.89815 727.987313 
L 1303.0758 728.400823 
L 1304.25345 730.810945 
L 1305.4311 728.051425 
L 1307.7864 728.109707 
L 1308.96405 729.472811 
L 1310.1417 728.812554 
L 1312.497 729.037553 
L 1313.67465 726.652245 
L 1314.8523 725.873069 
L 1316.02995 729.066947 
L 1317.2076 727.745443 
L 1318.38525 730.200106 
L 1319.5629 728.396521 
L 1320.74055 727.761738 
L 1321.9182 728.668777 
L 1323.09585 730.822162 
L 1324.2735 730.082002 
L 1325.45115 729.853997 
L 1326.6288 730.263269 
L 1327.80645 729.791855 
L 1328.9841 730.544924 
L 1330.16175 730.384996 
L 1331.3394 727.87266 
L 1332.51705 728.459087 
L 1333.6947 727.430033 
L 1334.87235 727.790818 
L 1336.05 727.641257 
L 1336.05 727.641257 
" style="fill:none;stroke:#0000ff;stroke-linecap:square;stroke-width:2.0;"/>
   </g>
   <g id="line2d_2">
    <path clip-path="url(#p2964e882e6)" d="M 159.57765 133.703916 
L 160.7553 140.089568 
L 161.93295 146.211212 
L 163.1106 153.484953 
L 164.28825 158.717127 
L 165.4659 166.464504 
L 166.64355 171.97313 
L 167.8212 178.348198 
L 168.99885 183.761106 
L 171.35415 192.291996 
L 172.5318 198.890717 
L 173.70945 203.639077 
L 176.06475 216.242429 
L 177.2424 220.967233 
L 178.42005 226.963144 
L 179.5977 233.654933 
L 180.77535 238.838634 
L 181.953 243.337591 
L 183.13065 248.335421 
L 184.3083 254.109361 
L 185.48595 258.899502 
L 186.6636 264.870296 
L 187.84125 268.551433 
L 189.0189 274.067401 
L 191.3742 283.260774 
L 192.55185 290.299641 
L 193.7295 294.73864 
L 194.90715 302.281728 
L 197.26245 311.777018 
L 198.4401 317.899054 
L 199.61775 322.482879 
L 201.97305 334.863808 
L 203.1507 342.511949 
L 204.32835 347.506681 
L 205.506 353.295635 
L 206.68365 361.920456 
L 207.8613 368.273148 
L 209.03895 372.01335 
L 210.2166 378.677382 
L 211.39425 383.44904 
L 214.9272 400.684991 
L 216.10485 404.763007 
L 219.6378 420.422684 
L 220.81545 426.465144 
L 221.9931 431.499634 
L 223.17075 435.483082 
L 225.52605 447.249951 
L 226.7037 451.775478 
L 227.88135 458.015874 
L 229.059 465.264439 
L 230.23665 470.257639 
L 232.59195 484.285372 
L 233.7696 488.990766 
L 234.94725 495.005693 
L 236.1249 500.055522 
L 237.30255 506.282274 
L 238.4802 510.272294 
L 240.8355 520.784753 
L 242.01315 527.761776 
L 243.1908 531.938442 
L 245.5461 544.516915 
L 246.72375 549.280221 
L 247.9014 554.851959 
L 249.07905 562.17011 
L 250.2567 565.248546 
L 252.612 576.403466 
L 253.78965 580.527748 
L 254.9673 585.976807 
L 256.14495 592.247072 
L 257.3226 599.539943 
L 259.6779 612.695952 
L 260.85555 617.710666 
L 262.0332 623.534238 
L 263.21085 628.448501 
L 265.56615 639.616652 
L 266.7438 644.253094 
L 267.92145 650.842767 
L 270.27675 661.22498 
L 271.4544 666.887957 
L 272.63205 673.257563 
L 273.8097 677.285483 
L 278.5203 700.248526 
L 279.69795 703.9544 
L 280.8756 709.655181 
L 283.2309 719.858227 
L 284.40855 724.00986 
L 285.5862 724.70362 
L 286.76385 724.927924 
L 290.2968 728.44037 
L 291.47445 729.310073 
L 292.6521 727.488365 
L 293.82975 728.534801 
L 295.0074 728.385418 
L 296.18505 728.080796 
L 297.3627 729.4229 
L 298.54035 729.829227 
L 299.718 729.244088 
L 300.89565 729.530829 
L 302.0733 729.634839 
L 303.25095 731.500867 
L 304.4286 728.928836 
L 305.60625 729.60077 
L 306.7839 729.907588 
L 307.96155 729.437724 
L 309.1392 727.020322 
L 310.31685 729.160658 
L 311.4945 729.338657 
L 312.67215 731.52091 
L 313.8498 729.59372 
L 315.02745 731.9338 
L 316.2051 731.249789 
L 317.38275 730.760067 
L 318.5604 731.248504 
L 319.73805 729.51996 
L 320.9157 729.387265 
L 322.09335 729.515928 
L 323.271 728.174569 
L 324.44865 728.409836 
L 325.6263 727.031624 
L 326.80395 727.744692 
L 327.9816 728.726342 
L 329.15925 729.137082 
L 330.3369 729.89362 
L 331.51455 728.15805 
L 332.6922 730.215575 
L 333.86985 728.874422 
L 335.0475 728.819036 
L 336.22515 727.715947 
L 337.4028 728.154217 
L 338.58045 728.792844 
L 339.7581 727.329215 
L 340.93575 728.654126 
L 342.1134 727.076107 
L 343.29105 728.320733 
L 344.4687 729.000266 
L 345.64635 728.279514 
L 346.824 730.117298 
L 348.00165 729.871314 
L 349.1793 730.169984 
L 350.35695 730.353937 
L 351.5346 731.699517 
L 352.71225 729.172644 
L 353.8899 728.496025 
L 355.06755 728.606518 
L 356.2452 729.130193 
L 357.42285 729.009656 
L 358.6005 729.965019 
L 359.77815 728.220697 
L 360.9558 727.39415 
L 362.13345 729.118715 
L 363.3111 729.736784 
L 364.48875 728.807037 
L 365.6664 730.659619 
L 366.84405 731.106463 
L 368.0217 728.703262 
L 369.19935 728.072025 
L 370.377 728.613616 
L 371.55465 730.520278 
L 372.7323 731.135347 
L 373.90995 729.531213 
L 375.0876 728.84733 
L 376.26525 731.287024 
L 377.4429 729.325685 
L 378.62055 728.24345 
L 379.7982 728.292929 
L 380.97585 729.827427 
L 382.1535 730.181903 
L 383.33115 730.008269 
L 384.5088 729.672807 
L 385.68645 728.668958 
L 386.8641 726.506824 
L 388.04175 727.386194 
L 389.2194 729.424046 
L 390.39705 728.909094 
L 391.5747 730.030536 
L 392.75235 729.598913 
L 393.93 728.710979 
L 395.10765 727.59802 
L 396.2853 728.099141 
L 398.6406 726.902385 
L 399.81825 727.827196 
L 400.9959 727.073859 
L 403.3512 729.603764 
L 404.52885 727.288518 
L 405.7065 728.967855 
L 406.88415 728.550198 
L 408.0618 729.124077 
L 409.23945 729.565695 
L 410.4171 727.743546 
L 411.59475 727.845828 
L 412.7724 727.761109 
L 413.95005 728.045913 
L 415.1277 727.64689 
L 416.30535 727.693596 
L 418.66065 727.076546 
L 419.8383 727.852006 
L 421.01595 728.871495 
L 422.1936 729.21243 
L 423.37125 730.016895 
L 424.5489 729.234252 
L 426.9042 730.081837 
L 428.08185 729.450421 
L 429.2595 729.905915 
L 430.43715 726.979761 
L 431.6148 730.360147 
L 432.79245 729.333828 
L 433.9701 729.836004 
L 436.3254 727.687857 
L 437.50305 731.48027 
L 441.036 728.585524 
L 442.21365 727.95801 
L 443.3913 729.849276 
L 444.56895 730.960358 
L 445.7466 730.624412 
L 446.92425 728.376528 
L 448.1019 728.051622 
L 449.27955 728.04708 
L 450.4572 727.283321 
L 452.8125 728.796842 
L 453.99015 728.411177 
L 455.1678 729.762609 
L 456.34545 730.515356 
L 457.5231 729.934372 
L 458.70075 728.297608 
L 459.8784 727.567203 
L 461.05605 727.417869 
L 462.2337 727.954797 
L 463.41135 729.570043 
L 464.589 728.824239 
L 465.76665 729.027706 
L 468.12195 731.047416 
L 469.2996 732.253499 
L 470.47725 729.790264 
L 471.6549 730.567901 
L 472.83255 728.551299 
L 474.0102 728.411191 
L 475.18785 730.7021 
L 476.3655 730.061004 
L 477.54315 731.365842 
L 478.7208 730.231973 
L 479.89845 730.406466 
L 481.0761 729.706666 
L 482.25375 728.511069 
L 483.4314 727.57369 
L 484.60905 728.62152 
L 485.7867 730.160924 
L 486.96435 727.870835 
L 488.142 731.466431 
L 489.31965 728.843659 
L 490.4973 730.30475 
L 491.67495 728.220872 
L 492.8526 729.849248 
L 494.03025 729.873377 
L 495.2079 728.486446 
L 496.38555 727.577051 
L 497.5632 729.922374 
L 498.74085 729.735045 
L 499.9185 728.486556 
L 501.09615 728.572619 
L 502.2738 730.504026 
L 504.6291 729.836202 
L 505.80675 730.548567 
L 506.9844 729.516649 
L 508.16205 730.971258 
L 509.3397 729.15042 
L 510.51735 730.490758 
L 511.695 730.025799 
L 512.87265 728.380516 
L 514.0503 728.899501 
L 515.22795 730.012605 
L 516.4056 731.886705 
L 517.58325 731.112483 
L 518.7609 730.557039 
L 519.93855 729.448405 
L 522.29385 732.346543 
L 523.4715 730.821151 
L 524.64915 730.064649 
L 525.8268 728.403157 
L 527.00445 728.218708 
L 528.1821 728.337626 
L 529.35975 730.354511 
L 530.5374 729.638208 
L 531.71505 729.501915 
L 532.8927 731.49504 
L 534.07035 729.998265 
L 535.248 728.080919 
L 536.42565 729.019706 
L 539.9586 729.024194 
L 541.13625 729.571257 
L 542.3139 729.844889 
L 543.49155 730.520365 
L 544.6692 730.127227 
L 545.84685 730.203405 
L 547.0245 731.38504 
L 548.20215 727.169989 
L 550.55745 729.121719 
L 551.7351 724.490842 
L 552.91275 726.557869 
L 554.0904 727.499874 
L 556.4457 726.686293 
L 557.62335 725.833359 
L 558.801 727.699412 
L 559.97865 729.294364 
L 561.1563 728.343988 
L 562.33395 729.401374 
L 563.5116 728.811428 
L 564.68925 730.054778 
L 565.8669 729.21232 
L 567.04455 726.985049 
L 568.2222 727.436328 
L 569.39985 726.597393 
L 571.75515 729.103352 
L 572.9328 730.649798 
L 574.11045 728.85057 
L 575.2881 727.880154 
L 576.46575 729.783018 
L 577.6434 729.536215 
L 578.82105 729.90587 
L 579.9987 728.864135 
L 581.17635 728.32768 
L 582.354 728.884217 
L 583.53165 728.976519 
L 584.7093 726.98174 
L 585.88695 727.580554 
L 587.0646 728.517019 
L 588.24225 728.967411 
L 590.59755 728.178417 
L 591.7752 728.342125 
L 592.95285 729.026778 
L 594.1305 729.153541 
L 595.30815 730.060588 
L 596.4858 728.785342 
L 598.8411 729.548198 
L 600.01875 728.621958 
L 601.1964 729.049163 
L 602.37405 730.080434 
L 603.5517 726.989033 
L 604.72935 727.025275 
L 605.907 727.25902 
L 607.08465 729.095562 
L 608.2623 731.561895 
L 609.43995 729.214474 
L 610.6176 729.783472 
L 611.79525 729.298433 
L 612.9729 730.040162 
L 614.15055 731.063339 
L 615.3282 731.336028 
L 616.50585 731.044348 
L 617.6835 730.23799 
L 618.86115 727.874065 
L 620.0388 729.233021 
L 621.21645 728.644445 
L 622.3941 730.16745 
L 623.57175 729.881786 
L 624.7494 728.86742 
L 625.92705 726.956988 
L 627.1047 730.564259 
L 628.28235 733.010006 
L 629.46 731.966554 
L 630.63765 730.494057 
L 631.8153 730.840897 
L 632.99295 731.477591 
L 634.1706 732.379516 
L 635.34825 729.854901 
L 636.5259 729.768272 
L 637.70355 730.115306 
L 638.8812 729.633836 
L 640.05885 731.822068 
L 641.2365 730.470281 
L 642.41415 726.95175 
L 643.5918 729.225595 
L 644.76945 728.268021 
L 645.9471 729.628104 
L 647.12475 729.274264 
L 648.3024 725.953582 
L 650.6577 728.456854 
L 651.83535 727.666664 
L 653.013 727.944263 
L 654.19065 728.823414 
L 655.3683 730.588495 
L 656.54595 728.12668 
L 657.7236 729.390637 
L 660.0789 733.028776 
L 661.25655 732.395413 
L 662.4342 732.310126 
L 663.61185 729.270508 
L 664.7895 730.828795 
L 665.96715 728.742033 
L 667.1448 728.305446 
L 668.32245 729.23199 
L 669.5001 730.823463 
L 670.67775 729.819217 
L 671.8554 730.221062 
L 673.03305 729.603158 
L 674.2107 730.061472 
L 675.38835 729.056955 
L 676.566 729.717885 
L 677.74365 728.702928 
L 678.9213 726.570011 
L 680.09895 728.309615 
L 681.2766 726.275273 
L 682.45425 727.982866 
L 683.6319 729.420182 
L 684.80955 727.904482 
L 685.9872 728.236101 
L 687.16485 727.749953 
L 689.52015 727.612512 
L 690.6978 725.846026 
L 691.87545 727.026419 
L 693.0531 728.459876 
L 694.23075 731.332474 
L 695.4084 730.553481 
L 696.58605 729.549052 
L 697.7637 729.858363 
L 698.94135 727.606015 
L 700.119 729.641359 
L 701.29665 728.079028 
L 702.4743 729.477346 
L 703.65195 729.340806 
L 704.8296 728.777835 
L 706.00725 727.471349 
L 707.1849 728.060595 
L 708.36255 727.168088 
L 709.5402 728.730095 
L 711.8955 728.335912 
L 713.07315 728.921383 
L 714.2508 731.082332 
L 715.42845 729.802252 
L 716.6061 730.984742 
L 717.78375 731.184822 
L 718.9614 729.120714 
L 720.13905 729.933771 
L 721.3167 730.484848 
L 722.49435 729.393734 
L 723.672 728.786474 
L 724.84965 727.260879 
L 726.0273 729.843286 
L 727.20495 730.647815 
L 728.3826 730.71631 
L 729.56025 728.310626 
L 730.7379 730.130017 
L 731.91555 729.469702 
L 733.0932 731.022527 
L 734.27085 728.566731 
L 735.4485 729.21036 
L 736.62615 730.313676 
L 737.8038 729.074304 
L 738.98145 729.040417 
L 740.1591 727.481786 
L 741.33675 728.481565 
L 742.5144 729.111707 
L 743.69205 730.072883 
L 744.8697 729.306641 
L 746.04735 728.736858 
L 747.225 727.689397 
L 749.5803 730.534709 
L 750.75795 730.799984 
L 751.9356 727.517863 
L 753.11325 727.517485 
L 754.2909 729.945567 
L 755.46855 730.632832 
L 756.6462 731.451658 
L 757.82385 730.175028 
L 759.0015 729.604437 
L 760.17915 730.036672 
L 762.53445 728.453049 
L 763.7121 728.901949 
L 764.88975 731.172274 
L 766.0674 729.094382 
L 767.24505 729.08114 
L 768.4227 729.195505 
L 769.60035 729.936171 
L 770.778 729.245884 
L 771.95565 729.010674 
L 773.1333 730.143328 
L 774.31095 729.363156 
L 775.4886 729.468679 
L 776.66625 729.075321 
L 777.8439 729.035247 
L 779.02155 730.280301 
L 780.1992 729.448454 
L 781.37685 730.044915 
L 782.5545 728.505469 
L 783.73215 728.78721 
L 784.9098 727.93936 
L 786.08745 727.686861 
L 787.2651 725.552511 
L 788.44275 725.564357 
L 789.6204 725.911253 
L 790.79805 727.590211 
L 791.9757 727.032485 
L 793.15335 728.974775 
L 794.331 727.195508 
L 795.50865 727.312026 
L 796.6863 728.943356 
L 797.86395 729.103511 
L 799.0416 727.931894 
L 800.21925 728.641996 
L 801.3969 729.521256 
L 802.57455 729.20856 
L 803.7522 730.655938 
L 804.92985 729.334858 
L 806.1075 729.250765 
L 807.28515 728.775158 
L 808.4628 728.14076 
L 809.64045 729.679836 
L 810.8181 729.532881 
L 811.99575 727.846691 
L 813.1734 728.222196 
L 814.35105 729.115782 
L 815.5287 729.346387 
L 817.884 728.723923 
L 819.06165 727.008193 
L 820.2393 728.428188 
L 821.41695 728.701655 
L 822.5946 726.569912 
L 823.77225 729.446963 
L 824.9499 730.539063 
L 826.12755 730.58314 
L 828.48285 730.387589 
L 829.6605 728.587858 
L 830.83815 728.511656 
L 832.0158 729.196369 
L 833.19345 730.838897 
L 834.3711 727.912089 
L 835.54875 727.975407 
L 836.7264 726.581348 
L 837.90405 729.459073 
L 839.0817 727.953514 
L 840.25935 728.658669 
L 841.437 726.917148 
L 842.61465 728.136594 
L 843.7923 726.399188 
L 844.96995 728.156535 
L 846.1476 727.728962 
L 847.32525 728.850914 
L 848.5029 728.618824 
L 849.68055 727.435867 
L 850.8582 727.007779 
L 852.03585 725.592373 
L 853.2135 728.32187 
L 854.39115 726.267289 
L 855.5688 727.118703 
L 856.74645 730.605077 
L 857.9241 730.491569 
L 859.10175 727.032093 
L 860.2794 727.247068 
L 861.45705 727.763093 
L 862.6347 727.594506 
L 863.81235 727.779257 
L 864.99 726.472863 
L 866.16765 726.530016 
L 867.3453 727.541593 
L 868.52295 727.327106 
L 870.87825 728.493857 
L 872.0559 728.030977 
L 873.23355 725.958787 
L 874.4112 727.770716 
L 875.58885 727.212754 
L 876.7665 728.530921 
L 877.94415 730.750301 
L 879.1218 730.058586 
L 880.29945 730.132044 
L 881.4771 729.621573 
L 882.65475 728.783238 
L 883.8324 729.183956 
L 885.01005 726.617026 
L 886.1877 727.371958 
L 887.36535 727.675121 
L 888.543 729.169466 
L 889.72065 729.296707 
L 890.8983 730.278435 
L 892.07595 731.063374 
L 893.2536 729.439585 
L 894.43125 729.788549 
L 895.6089 727.919299 
L 896.78655 730.471114 
L 897.9642 729.337232 
L 899.14185 729.761735 
L 900.3195 729.741412 
L 901.49715 728.869172 
L 902.6748 727.445243 
L 903.85245 728.590397 
L 905.0301 729.241952 
L 906.20775 731.06216 
L 908.56305 729.232292 
L 909.7407 728.757097 
L 910.91835 728.428338 
L 912.096 729.81274 
L 913.27365 729.668492 
L 914.4513 728.620869 
L 915.62895 729.159198 
L 916.8066 729.107677 
L 917.98425 729.713734 
L 919.1619 729.623052 
L 920.33955 729.830262 
L 922.69485 727.88879 
L 923.8725 727.852552 
L 925.05015 727.683787 
L 926.2278 728.53914 
L 927.40545 729.970647 
L 928.5831 727.214482 
L 929.76075 728.131767 
L 930.9384 727.511578 
L 932.11605 727.116832 
L 933.2937 725.969714 
L 934.47135 729.028127 
L 935.649 728.160076 
L 936.82665 731.043406 
L 938.0043 729.469433 
L 940.3596 728.643854 
L 941.53725 731.810251 
L 942.7149 730.060934 
L 943.89255 729.53137 
L 946.24785 730.051121 
L 947.4255 729.222229 
L 949.7808 729.527915 
L 950.95845 732.043937 
L 952.1361 730.393098 
L 953.31375 729.467719 
L 954.4914 728.048168 
L 955.66905 728.746056 
L 956.8467 731.37035 
L 958.02435 729.645965 
L 959.202 727.343375 
L 960.37965 729.771747 
L 961.5573 729.677839 
L 962.73495 729.379953 
L 963.9126 728.513161 
L 965.09025 729.065818 
L 967.44555 729.481866 
L 968.6232 727.190343 
L 969.80085 727.62007 
L 970.9785 727.346843 
L 972.15615 729.808677 
L 973.3338 729.852871 
L 974.51145 731.005971 
L 975.6891 730.168091 
L 976.86675 730.59158 
L 978.0444 730.747152 
L 979.22205 729.979309 
L 980.3997 728.473197 
L 981.57735 729.045744 
L 982.755 728.238382 
L 983.93265 728.956343 
L 985.1103 727.923344 
L 986.28795 729.381527 
L 987.4656 728.354965 
L 988.64325 729.007712 
L 989.8209 729.89043 
L 990.99855 729.6283 
L 992.1762 729.060658 
L 994.5315 726.997081 
L 995.70915 728.813399 
L 996.8868 729.712077 
L 998.06445 728.748646 
L 999.2421 730.087596 
L 1000.41975 728.724558 
L 1001.5974 728.511283 
L 1002.77505 729.489589 
L 1003.9527 727.881416 
L 1005.13035 728.820798 
L 1006.308 728.527772 
L 1007.48565 728.118123 
L 1008.6633 725.68111 
L 1012.19625 727.847858 
L 1013.3739 728.946862 
L 1014.55155 727.76264 
L 1015.7292 728.368188 
L 1016.90685 729.286373 
L 1018.0845 726.726615 
L 1019.26215 727.33027 
L 1020.4398 730.016333 
L 1021.61745 728.82667 
L 1023.97275 730.571344 
L 1025.1504 730.985276 
L 1026.32805 730.826147 
L 1027.5057 731.354195 
L 1028.68335 732.501415 
L 1029.861 730.157949 
L 1031.03865 730.611889 
L 1032.2163 731.442663 
L 1033.39395 731.131653 
L 1035.74925 730.136245 
L 1036.9269 729.109913 
L 1038.10455 728.762828 
L 1039.2822 727.830482 
L 1040.45985 728.433511 
L 1041.6375 727.163469 
L 1042.81515 727.196216 
L 1043.9928 727.995021 
L 1045.17045 727.624538 
L 1046.3481 729.67472 
L 1047.52575 730.631757 
L 1048.7034 730.273193 
L 1049.88105 729.473134 
L 1051.0587 729.389645 
L 1052.23635 727.339588 
L 1053.414 727.726494 
L 1054.59165 727.746078 
L 1055.7693 727.590048 
L 1056.94695 729.105076 
L 1058.1246 727.96633 
L 1059.30225 728.829808 
L 1060.4799 730.008093 
L 1061.65755 730.625667 
L 1062.8352 729.3367 
L 1064.01285 731.205324 
L 1065.1905 729.632876 
L 1066.36815 729.401223 
L 1067.5458 731.01815 
L 1068.72345 729.701432 
L 1069.9011 728.735434 
L 1071.07875 729.578104 
L 1072.2564 727.135801 
L 1073.43405 728.714293 
L 1074.6117 726.457868 
L 1075.78935 727.453955 
L 1076.967 728.771207 
L 1078.14465 729.872475 
L 1079.3223 729.260402 
L 1080.49995 727.331288 
L 1081.6776 727.425113 
L 1082.85525 727.77495 
L 1084.0329 728.33087 
L 1085.21055 729.362746 
L 1086.3882 729.973175 
L 1088.7435 726.837264 
L 1089.92115 726.152492 
L 1091.0988 729.508332 
L 1092.27645 729.460208 
L 1093.4541 729.618437 
L 1094.63175 731.913605 
L 1095.8094 731.421778 
L 1096.98705 731.473421 
L 1098.1647 732.683753 
L 1099.34235 730.696288 
L 1100.52 730.951326 
L 1101.69765 731.035964 
L 1102.8753 728.943178 
L 1104.05295 726.408701 
L 1106.40825 729.535588 
L 1107.5859 730.54942 
L 1108.76355 728.410792 
L 1109.9412 728.386918 
L 1111.11885 729.259429 
L 1112.2965 727.482838 
L 1113.47415 726.689133 
L 1115.82945 727.06087 
L 1117.0071 727.355461 
L 1118.18475 729.941202 
L 1119.3624 729.278927 
L 1120.54005 727.938595 
L 1121.7177 727.446885 
L 1122.89535 727.542413 
L 1124.073 729.492413 
L 1125.25065 728.616751 
L 1126.4283 727.441878 
L 1127.60595 728.722977 
L 1128.7836 726.66264 
L 1129.96125 729.075335 
L 1131.1389 729.288904 
L 1132.31655 731.030767 
L 1133.4942 731.981614 
L 1134.67185 730.270335 
L 1137.02715 728.865819 
L 1138.2048 728.552606 
L 1139.38245 727.890257 
L 1141.73775 730.041236 
L 1142.9154 730.818056 
L 1144.09305 729.201413 
L 1145.2707 729.378302 
L 1146.44835 727.75467 
L 1147.626 728.262746 
L 1148.80365 729.009418 
L 1149.9813 728.407904 
L 1151.15895 728.818456 
L 1152.3366 729.825343 
L 1153.51425 731.079987 
L 1154.6919 730.399421 
L 1155.86955 731.779266 
L 1157.0472 731.693003 
L 1158.22485 730.218014 
L 1159.4025 731.215941 
L 1160.58015 733.250356 
L 1161.7578 731.673591 
L 1164.1131 730.701185 
L 1165.29075 728.869345 
L 1166.4684 728.976697 
L 1167.64605 729.474268 
L 1168.8237 730.419771 
L 1170.00135 729.195173 
L 1171.179 731.122515 
L 1172.35665 729.136745 
L 1173.5343 729.167045 
L 1174.71195 727.669189 
L 1175.8896 727.436049 
L 1177.06725 730.733591 
L 1178.2449 729.287858 
L 1179.42255 729.250168 
L 1180.6002 728.879384 
L 1181.77785 728.163605 
L 1182.9555 729.491682 
L 1184.13315 727.81848 
L 1185.3108 729.675753 
L 1186.48845 729.85861 
L 1187.6661 728.83029 
L 1188.84375 729.384407 
L 1190.0214 727.555913 
L 1191.19905 726.377122 
L 1192.3767 726.660944 
L 1193.55435 727.670548 
L 1194.732 728.503733 
L 1195.90965 730.132101 
L 1197.0873 729.893638 
L 1198.26495 731.896035 
L 1200.62025 730.041863 
L 1201.7979 727.465961 
L 1202.97555 728.737361 
L 1204.1532 728.216004 
L 1205.33085 727.341577 
L 1206.5085 730.405623 
L 1207.68615 729.153075 
L 1208.8638 728.932679 
L 1210.04145 729.665041 
L 1211.2191 729.8007 
L 1212.39675 728.86895 
L 1213.5744 726.99696 
L 1214.75205 729.045735 
L 1215.9297 727.573635 
L 1217.10735 728.00594 
L 1218.285 727.933645 
L 1219.46265 730.053161 
L 1220.6403 730.572561 
L 1221.81795 727.717224 
L 1222.9956 725.555901 
L 1224.17325 726.861495 
L 1225.3509 727.453558 
L 1226.52855 728.751883 
L 1227.7062 728.484381 
L 1228.88385 728.691995 
L 1230.0615 728.342336 
L 1231.23915 728.213256 
L 1232.4168 726.620923 
L 1233.59445 727.131157 
L 1234.7721 726.533025 
L 1235.94975 725.115782 
L 1238.30505 730.601392 
L 1239.4827 731.44201 
L 1240.66035 731.549277 
L 1241.838 730.070942 
L 1243.01565 730.203098 
L 1244.1933 727.32274 
L 1245.37095 727.982891 
L 1246.5486 728.008093 
L 1247.72625 730.383713 
L 1248.9039 730.484358 
L 1250.08155 728.14636 
L 1251.2592 727.637963 
L 1252.43685 726.715059 
L 1253.6145 726.749098 
L 1254.79215 727.411211 
L 1255.9698 729.028228 
L 1257.14745 726.627679 
L 1258.3251 728.393907 
L 1259.50275 727.910373 
L 1260.6804 727.237486 
L 1261.85805 727.694492 
L 1263.0357 727.182932 
L 1264.21335 726.942277 
L 1265.391 728.746663 
L 1266.56865 727.28733 
L 1267.7463 726.99643 
L 1268.92395 728.746242 
L 1270.1016 729.792246 
L 1271.27925 728.783591 
L 1272.4569 729.391631 
L 1273.63455 729.672147 
L 1274.8122 728.331138 
L 1277.1675 728.286603 
L 1278.34515 727.883442 
L 1280.70045 729.464942 
L 1281.8781 729.80963 
L 1283.05575 728.035981 
L 1284.2334 729.424991 
L 1285.41105 729.491842 
L 1286.5887 731.073909 
L 1287.76635 728.591472 
L 1290.12165 729.710218 
L 1291.2993 729.320748 
L 1292.47695 728.38235 
L 1293.6546 728.538592 
L 1294.83225 727.472491 
L 1296.0099 728.034273 
L 1297.18755 727.858632 
L 1298.3652 728.286749 
L 1299.54285 729.571844 
L 1300.7205 729.624299 
L 1301.89815 729.327593 
L 1303.0758 728.566355 
L 1304.25345 729.480101 
L 1305.4311 727.889345 
L 1306.60875 729.219871 
L 1307.7864 727.774251 
L 1308.96405 728.733343 
L 1310.1417 727.843445 
L 1311.31935 728.017152 
L 1312.497 727.625628 
L 1313.67465 729.206866 
L 1314.8523 728.76234 
L 1316.02995 728.900971 
L 1317.2076 727.421951 
L 1318.38525 729.748813 
L 1319.5629 728.631285 
L 1320.74055 729.94389 
L 1321.9182 727.695224 
L 1323.09585 727.436244 
L 1324.2735 730.348 
L 1325.45115 731.196286 
L 1326.6288 732.522658 
L 1327.80645 729.955482 
L 1328.9841 729.094022 
L 1330.16175 728.719992 
L 1331.3394 728.116356 
L 1332.51705 725.890014 
L 1333.6947 727.91148 
L 1334.87235 730.281962 
L 1336.05 729.752284 
L 1336.05 729.752284 
" style="fill:none;stroke:#008000;stroke-dasharray:6.000000,6.000000;stroke-dashoffset:0.0;stroke-width:2.0;"/>
   </g>
   <g id="patch_3">
    <path d="M 158.4 51.3 
L 1336.05 51.3 
" style="fill:none;stroke:#000000;stroke-linecap:square;stroke-linejoin:miter;"/>
   </g>
   <g id="patch_4">
    <path d="M 1336.05 747 
L 1336.05 51.3 
" style="fill:none;stroke:#000000;stroke-linecap:square;stroke-linejoin:miter;"/>
   </g>
   <g id="patch_5">
    <path d="M 158.4 747 
L 1336.05 747 
" style="fill:none;stroke:#000000;stroke-linecap:square;stroke-linejoin:miter;"/>
   </g>
   <g id="patch_6">
    <path d="M 158.4 747 
L 158.4 51.3 
" style="fill:none;stroke:#000000;stroke-linecap:square;stroke-linejoin:miter;"/>
   </g>
   <g id="matplotlib.axis_1">
    <g id="xtick_1">
     <g id="line2d_3">
      <defs>
       <path d="M 0 0 
L 0 -4 
" id="m202f1e284f" style="stroke:#000000;stroke-width:0.5;"/>
      </defs>
      <g>
       <use style="stroke:#000000;stroke-width:0.5;" x="158.4" xlink:href="#m202f1e284f" y="747.0"/>
      </g>
     </g>
     <g id="line2d_4">
      <defs>
       <path d="M 0 0 
L 0 4 
" id="m4d2ae7bc1f" style="stroke:#000000;stroke-width:0.5;"/>
      </defs>
      <g>
       <use style="stroke:#000000;stroke-width:0.5;" x="158.4" xlink:href="#m4d2ae7bc1f" y="51.3"/>
      </g>
     </g>
     <g id="text_1">
      <!-- 0 -->
      <defs>
       <path d="M 31.78125 66.40625 
Q 24.171875 66.40625 20.328125 58.90625 
Q 16.5 51.421875 16.5 36.375 
Q 16.5 21.390625 20.328125 13.890625 
Q 24.171875 6.390625 31.78125 6.390625 
Q 39.453125 6.390625 43.28125 13.890625 
Q 47.125 21.390625 47.125 36.375 
Q 47.125 51.421875 43.28125 58.90625 
Q 39.453125 66.40625 31.78125 66.40625 
M 31.78125 74.21875 
Q 44.046875 74.21875 50.515625 64.515625 
Q 56.984375 54.828125 56.984375 36.375 
Q 56.984375 17.96875 50.515625 8.265625 
Q 44.046875 -1.421875 31.78125 -1.421875 
Q 19.53125 -1.421875 13.0625 8.265625 
Q 6.59375 17.96875 6.59375 36.375 
Q 6.59375 54.828125 13.0625 64.515625 
Q 19.53125 74.21875 31.78125 74.21875 
" id="BitstreamVeraSans-Roman-30"/>
      </defs>
      <g transform="translate(148.85625 773.7953125)scale(0.3 -0.3)">
       <use xlink:href="#BitstreamVeraSans-Roman-30"/>
      </g>
     </g>
    </g>
    <g id="xtick_2">
     <g id="line2d_5">
      <g>
       <use style="stroke:#000000;stroke-width:0.5;" x="393.93" xlink:href="#m202f1e284f" y="747.0"/>
      </g>
     </g>
     <g id="line2d_6">
      <g>
       <use style="stroke:#000000;stroke-width:0.5;" x="393.93" xlink:href="#m4d2ae7bc1f" y="51.3"/>
      </g>
     </g>
     <g id="text_2">
      <!-- 20000 -->
      <defs>
       <path d="M 19.1875 8.296875 
L 53.609375 8.296875 
L 53.609375 0 
L 7.328125 0 
L 7.328125 8.296875 
Q 12.9375 14.109375 22.625 23.890625 
Q 32.328125 33.6875 34.8125 36.53125 
Q 39.546875 41.84375 41.421875 45.53125 
Q 43.3125 49.21875 43.3125 52.78125 
Q 43.3125 58.59375 39.234375 62.25 
Q 35.15625 65.921875 28.609375 65.921875 
Q 23.96875 65.921875 18.8125 64.3125 
Q 13.671875 62.703125 7.8125 59.421875 
L 7.8125 69.390625 
Q 13.765625 71.78125 18.9375 73 
Q 24.125 74.21875 28.421875 74.21875 
Q 39.75 74.21875 46.484375 68.546875 
Q 53.21875 62.890625 53.21875 53.421875 
Q 53.21875 48.921875 51.53125 44.890625 
Q 49.859375 40.875 45.40625 35.40625 
Q 44.1875 33.984375 37.640625 27.21875 
Q 31.109375 20.453125 19.1875 8.296875 
" id="BitstreamVeraSans-Roman-32"/>
      </defs>
      <g transform="translate(346.21125 773.7953125)scale(0.3 -0.3)">
       <use xlink:href="#BitstreamVeraSans-Roman-32"/>
       <use x="63.623046875" xlink:href="#BitstreamVeraSans-Roman-30"/>
       <use x="127.24609375" xlink:href="#BitstreamVeraSans-Roman-30"/>
       <use x="190.869140625" xlink:href="#BitstreamVeraSans-Roman-30"/>
       <use x="254.4921875" xlink:href="#BitstreamVeraSans-Roman-30"/>
      </g>
     </g>
    </g>
    <g id="xtick_3">
     <g id="line2d_7">
      <g>
       <use style="stroke:#000000;stroke-width:0.5;" x="629.46" xlink:href="#m202f1e284f" y="747.0"/>
      </g>
     </g>
     <g id="line2d_8">
      <g>
       <use style="stroke:#000000;stroke-width:0.5;" x="629.46" xlink:href="#m4d2ae7bc1f" y="51.3"/>
      </g>
     </g>
     <g id="text_3">
      <!-- 40000 -->
      <defs>
       <path d="M 37.796875 64.3125 
L 12.890625 25.390625 
L 37.796875 25.390625 
z
M 35.203125 72.90625 
L 47.609375 72.90625 
L 47.609375 25.390625 
L 58.015625 25.390625 
L 58.015625 17.1875 
L 47.609375 17.1875 
L 47.609375 0 
L 37.796875 0 
L 37.796875 17.1875 
L 4.890625 17.1875 
L 4.890625 26.703125 
z
" id="BitstreamVeraSans-Roman-34"/>
      </defs>
      <g transform="translate(581.74125 773.7953125)scale(0.3 -0.3)">
       <use xlink:href="#BitstreamVeraSans-Roman-34"/>
       <use x="63.623046875" xlink:href="#BitstreamVeraSans-Roman-30"/>
       <use x="127.24609375" xlink:href="#BitstreamVeraSans-Roman-30"/>
       <use x="190.869140625" xlink:href="#BitstreamVeraSans-Roman-30"/>
       <use x="254.4921875" xlink:href="#BitstreamVeraSans-Roman-30"/>
      </g>
     </g>
    </g>
    <g id="xtick_4">
     <g id="line2d_9">
      <g>
       <use style="stroke:#000000;stroke-width:0.5;" x="864.99" xlink:href="#m202f1e284f" y="747.0"/>
      </g>
     </g>
     <g id="line2d_10">
      <g>
       <use style="stroke:#000000;stroke-width:0.5;" x="864.99" xlink:href="#m4d2ae7bc1f" y="51.3"/>
      </g>
     </g>
     <g id="text_4">
      <!-- 60000 -->
      <defs>
       <path d="M 33.015625 40.375 
Q 26.375 40.375 22.484375 35.828125 
Q 18.609375 31.296875 18.609375 23.390625 
Q 18.609375 15.53125 22.484375 10.953125 
Q 26.375 6.390625 33.015625 6.390625 
Q 39.65625 6.390625 43.53125 10.953125 
Q 47.40625 15.53125 47.40625 23.390625 
Q 47.40625 31.296875 43.53125 35.828125 
Q 39.65625 40.375 33.015625 40.375 
M 52.59375 71.296875 
L 52.59375 62.3125 
Q 48.875 64.0625 45.09375 64.984375 
Q 41.3125 65.921875 37.59375 65.921875 
Q 27.828125 65.921875 22.671875 59.328125 
Q 17.53125 52.734375 16.796875 39.40625 
Q 19.671875 43.65625 24.015625 45.921875 
Q 28.375 48.1875 33.59375 48.1875 
Q 44.578125 48.1875 50.953125 41.515625 
Q 57.328125 34.859375 57.328125 23.390625 
Q 57.328125 12.15625 50.6875 5.359375 
Q 44.046875 -1.421875 33.015625 -1.421875 
Q 20.359375 -1.421875 13.671875 8.265625 
Q 6.984375 17.96875 6.984375 36.375 
Q 6.984375 53.65625 15.1875 63.9375 
Q 23.390625 74.21875 37.203125 74.21875 
Q 40.921875 74.21875 44.703125 73.484375 
Q 48.484375 72.75 52.59375 71.296875 
" id="BitstreamVeraSans-Roman-36"/>
      </defs>
      <g transform="translate(817.27125 773.7953125)scale(0.3 -0.3)">
       <use xlink:href="#BitstreamVeraSans-Roman-36"/>
       <use x="63.623046875" xlink:href="#BitstreamVeraSans-Roman-30"/>
       <use x="127.24609375" xlink:href="#BitstreamVeraSans-Roman-30"/>
       <use x="190.869140625" xlink:href="#BitstreamVeraSans-Roman-30"/>
       <use x="254.4921875" xlink:href="#BitstreamVeraSans-Roman-30"/>
      </g>
     </g>
    </g>
    <g id="xtick_5">
     <g id="line2d_11">
      <g>
       <use style="stroke:#000000;stroke-width:0.5;" x="1100.52" xlink:href="#m202f1e284f" y="747.0"/>
      </g>
     </g>
     <g id="line2d_12">
      <g>
       <use style="stroke:#000000;stroke-width:0.5;" x="1100.52" xlink:href="#m4d2ae7bc1f" y="51.3"/>
      </g>
     </g>
     <g id="text_5">
      <!-- 80000 -->
      <defs>
       <path d="M 31.78125 34.625 
Q 24.75 34.625 20.71875 30.859375 
Q 16.703125 27.09375 16.703125 20.515625 
Q 16.703125 13.921875 20.71875 10.15625 
Q 24.75 6.390625 31.78125 6.390625 
Q 38.8125 6.390625 42.859375 10.171875 
Q 46.921875 13.96875 46.921875 20.515625 
Q 46.921875 27.09375 42.890625 30.859375 
Q 38.875 34.625 31.78125 34.625 
M 21.921875 38.8125 
Q 15.578125 40.375 12.03125 44.71875 
Q 8.5 49.078125 8.5 55.328125 
Q 8.5 64.0625 14.71875 69.140625 
Q 20.953125 74.21875 31.78125 74.21875 
Q 42.671875 74.21875 48.875 69.140625 
Q 55.078125 64.0625 55.078125 55.328125 
Q 55.078125 49.078125 51.53125 44.71875 
Q 48 40.375 41.703125 38.8125 
Q 48.828125 37.15625 52.796875 32.3125 
Q 56.78125 27.484375 56.78125 20.515625 
Q 56.78125 9.90625 50.3125 4.234375 
Q 43.84375 -1.421875 31.78125 -1.421875 
Q 19.734375 -1.421875 13.25 4.234375 
Q 6.78125 9.90625 6.78125 20.515625 
Q 6.78125 27.484375 10.78125 32.3125 
Q 14.796875 37.15625 21.921875 38.8125 
M 18.3125 54.390625 
Q 18.3125 48.734375 21.84375 45.5625 
Q 25.390625 42.390625 31.78125 42.390625 
Q 38.140625 42.390625 41.71875 45.5625 
Q 45.3125 48.734375 45.3125 54.390625 
Q 45.3125 60.0625 41.71875 63.234375 
Q 38.140625 66.40625 31.78125 66.40625 
Q 25.390625 66.40625 21.84375 63.234375 
Q 18.3125 60.0625 18.3125 54.390625 
" id="BitstreamVeraSans-Roman-38"/>
      </defs>
      <g transform="translate(1052.80125 773.7953125)scale(0.3 -0.3)">
       <use xlink:href="#BitstreamVeraSans-Roman-38"/>
       <use x="63.623046875" xlink:href="#BitstreamVeraSans-Roman-30"/>
       <use x="127.24609375" xlink:href="#BitstreamVeraSans-Roman-30"/>
       <use x="190.869140625" xlink:href="#BitstreamVeraSans-Roman-30"/>
       <use x="254.4921875" xlink:href="#BitstreamVeraSans-Roman-30"/>
      </g>
     </g>
    </g>
    <g id="xtick_6">
     <g id="line2d_13">
      <g>
       <use style="stroke:#000000;stroke-width:0.5;" x="1336.05" xlink:href="#m202f1e284f" y="747.0"/>
      </g>
     </g>
     <g id="line2d_14">
      <g>
       <use style="stroke:#000000;stroke-width:0.5;" x="1336.05" xlink:href="#m4d2ae7bc1f" y="51.3"/>
      </g>
     </g>
     <g id="text_6">
      <!-- 100000 -->
      <defs>
       <path d="M 12.40625 8.296875 
L 28.515625 8.296875 
L 28.515625 63.921875 
L 10.984375 60.40625 
L 10.984375 69.390625 
L 28.421875 72.90625 
L 38.28125 72.90625 
L 38.28125 8.296875 
L 54.390625 8.296875 
L 54.390625 0 
L 12.40625 0 
z
" id="BitstreamVeraSans-Roman-31"/>
      </defs>
      <g transform="translate(1278.7875 773.7953125)scale(0.3 -0.3)">
       <use xlink:href="#BitstreamVeraSans-Roman-31"/>
       <use x="63.623046875" xlink:href="#BitstreamVeraSans-Roman-30"/>
       <use x="127.24609375" xlink:href="#BitstreamVeraSans-Roman-30"/>
       <use x="190.869140625" xlink:href="#BitstreamVeraSans-Roman-30"/>
       <use x="254.4921875" xlink:href="#BitstreamVeraSans-Roman-30"/>
       <use x="318.115234375" xlink:href="#BitstreamVeraSans-Roman-30"/>
      </g>
     </g>
    </g>
    <g id="text_7">
     <!-- iterations -->
     <defs>
      <path d="M 54.890625 33.015625 
L 54.890625 0 
L 45.90625 0 
L 45.90625 32.71875 
Q 45.90625 40.484375 42.875 44.328125 
Q 39.84375 48.1875 33.796875 48.1875 
Q 26.515625 48.1875 22.3125 43.546875 
Q 18.109375 38.921875 18.109375 30.90625 
L 18.109375 0 
L 9.078125 0 
L 9.078125 54.6875 
L 18.109375 54.6875 
L 18.109375 46.1875 
Q 21.34375 51.125 25.703125 53.5625 
Q 30.078125 56 35.796875 56 
Q 45.21875 56 50.046875 50.171875 
Q 54.890625 44.34375 54.890625 33.015625 
" id="BitstreamVeraSans-Roman-6e"/>
      <path d="M 34.28125 27.484375 
Q 23.390625 27.484375 19.1875 25 
Q 14.984375 22.515625 14.984375 16.5 
Q 14.984375 11.71875 18.140625 8.90625 
Q 21.296875 6.109375 26.703125 6.109375 
Q 34.1875 6.109375 38.703125 11.40625 
Q 43.21875 16.703125 43.21875 25.484375 
L 43.21875 27.484375 
z
M 52.203125 31.203125 
L 52.203125 0 
L 43.21875 0 
L 43.21875 8.296875 
Q 40.140625 3.328125 35.546875 0.953125 
Q 30.953125 -1.421875 24.3125 -1.421875 
Q 15.921875 -1.421875 10.953125 3.296875 
Q 6 8.015625 6 15.921875 
Q 6 25.140625 12.171875 29.828125 
Q 18.359375 34.515625 30.609375 34.515625 
L 43.21875 34.515625 
L 43.21875 35.40625 
Q 43.21875 41.609375 39.140625 45 
Q 35.0625 48.390625 27.6875 48.390625 
Q 23 48.390625 18.546875 47.265625 
Q 14.109375 46.140625 10.015625 43.890625 
L 10.015625 52.203125 
Q 14.9375 54.109375 19.578125 55.046875 
Q 24.21875 56 28.609375 56 
Q 40.484375 56 46.34375 49.84375 
Q 52.203125 43.703125 52.203125 31.203125 
" id="BitstreamVeraSans-Roman-61"/>
      <path d="M 30.609375 48.390625 
Q 23.390625 48.390625 19.1875 42.75 
Q 14.984375 37.109375 14.984375 27.296875 
Q 14.984375 17.484375 19.15625 11.84375 
Q 23.34375 6.203125 30.609375 6.203125 
Q 37.796875 6.203125 41.984375 11.859375 
Q 46.1875 17.53125 46.1875 27.296875 
Q 46.1875 37.015625 41.984375 42.703125 
Q 37.796875 48.390625 30.609375 48.390625 
M 30.609375 56 
Q 42.328125 56 49.015625 48.375 
Q 55.71875 40.765625 55.71875 27.296875 
Q 55.71875 13.875 49.015625 6.21875 
Q 42.328125 -1.421875 30.609375 -1.421875 
Q 18.84375 -1.421875 12.171875 6.21875 
Q 5.515625 13.875 5.515625 27.296875 
Q 5.515625 40.765625 12.171875 48.375 
Q 18.84375 56 30.609375 56 
" id="BitstreamVeraSans-Roman-6f"/>
      <path d="M 9.421875 54.6875 
L 18.40625 54.6875 
L 18.40625 0 
L 9.421875 0 
z
M 9.421875 75.984375 
L 18.40625 75.984375 
L 18.40625 64.59375 
L 9.421875 64.59375 
z
" id="BitstreamVeraSans-Roman-69"/>
      <path d="M 56.203125 29.59375 
L 56.203125 25.203125 
L 14.890625 25.203125 
Q 15.484375 15.921875 20.484375 11.0625 
Q 25.484375 6.203125 34.421875 6.203125 
Q 39.59375 6.203125 44.453125 7.46875 
Q 49.3125 8.734375 54.109375 11.28125 
L 54.109375 2.78125 
Q 49.265625 0.734375 44.1875 -0.34375 
Q 39.109375 -1.421875 33.890625 -1.421875 
Q 20.796875 -1.421875 13.15625 6.1875 
Q 5.515625 13.8125 5.515625 26.8125 
Q 5.515625 40.234375 12.765625 48.109375 
Q 20.015625 56 32.328125 56 
Q 43.359375 56 49.78125 48.890625 
Q 56.203125 41.796875 56.203125 29.59375 
M 47.21875 32.234375 
Q 47.125 39.59375 43.09375 43.984375 
Q 39.0625 48.390625 32.421875 48.390625 
Q 24.90625 48.390625 20.390625 44.140625 
Q 15.875 39.890625 15.1875 32.171875 
z
" id="BitstreamVeraSans-Roman-65"/>
      <path d="M 18.3125 70.21875 
L 18.3125 54.6875 
L 36.8125 54.6875 
L 36.8125 47.703125 
L 18.3125 47.703125 
L 18.3125 18.015625 
Q 18.3125 11.328125 20.140625 9.421875 
Q 21.96875 7.515625 27.59375 7.515625 
L 36.8125 7.515625 
L 36.8125 0 
L 27.59375 0 
Q 17.1875 0 13.234375 3.875 
Q 9.28125 7.765625 9.28125 18.015625 
L 9.28125 47.703125 
L 2.6875 47.703125 
L 2.6875 54.6875 
L 9.28125 54.6875 
L 9.28125 70.21875 
z
" id="BitstreamVeraSans-Roman-74"/>
      <path d="M 41.109375 46.296875 
Q 39.59375 47.171875 37.8125 47.578125 
Q 36.03125 48 33.890625 48 
Q 26.265625 48 22.1875 43.046875 
Q 18.109375 38.09375 18.109375 28.8125 
L 18.109375 0 
L 9.078125 0 
L 9.078125 54.6875 
L 18.109375 54.6875 
L 18.109375 46.1875 
Q 20.953125 51.171875 25.484375 53.578125 
Q 30.03125 56 36.53125 56 
Q 37.453125 56 38.578125 55.875 
Q 39.703125 55.765625 41.0625 55.515625 
z
" id="BitstreamVeraSans-Roman-72"/>
      <path d="M 44.28125 53.078125 
L 44.28125 44.578125 
Q 40.484375 46.53125 36.375 47.5 
Q 32.28125 48.484375 27.875 48.484375 
Q 21.1875 48.484375 17.84375 46.4375 
Q 14.5 44.390625 14.5 40.28125 
Q 14.5 37.15625 16.890625 35.375 
Q 19.28125 33.59375 26.515625 31.984375 
L 29.59375 31.296875 
Q 39.15625 29.25 43.1875 25.515625 
Q 47.21875 21.78125 47.21875 15.09375 
Q 47.21875 7.46875 41.1875 3.015625 
Q 35.15625 -1.421875 24.609375 -1.421875 
Q 20.21875 -1.421875 15.453125 -0.5625 
Q 10.6875 0.296875 5.421875 2 
L 5.421875 11.28125 
Q 10.40625 8.6875 15.234375 7.390625 
Q 20.0625 6.109375 24.8125 6.109375 
Q 31.15625 6.109375 34.5625 8.28125 
Q 37.984375 10.453125 37.984375 14.40625 
Q 37.984375 18.0625 35.515625 20.015625 
Q 33.0625 21.96875 24.703125 23.78125 
L 21.578125 24.515625 
Q 13.234375 26.265625 9.515625 29.90625 
Q 5.8125 33.546875 5.8125 39.890625 
Q 5.8125 47.609375 11.28125 51.796875 
Q 16.75 56 26.8125 56 
Q 31.78125 56 36.171875 55.265625 
Q 40.578125 54.546875 44.28125 53.078125 
" id="BitstreamVeraSans-Roman-73"/>
     </defs>
     <g transform="translate(676.04296875 807.8296875)scale(0.3 -0.3)">
      <use xlink:href="#BitstreamVeraSans-Roman-69"/>
      <use x="27.783203125" xlink:href="#BitstreamVeraSans-Roman-74"/>
      <use x="66.9921875" xlink:href="#BitstreamVeraSans-Roman-65"/>
      <use x="128.515625" xlink:href="#BitstreamVeraSans-Roman-72"/>
      <use x="169.62890625" xlink:href="#BitstreamVeraSans-Roman-61"/>
      <use x="230.908203125" xlink:href="#BitstreamVeraSans-Roman-74"/>
      <use x="270.1171875" xlink:href="#BitstreamVeraSans-Roman-69"/>
      <use x="297.900390625" xlink:href="#BitstreamVeraSans-Roman-6f"/>
      <use x="359.08203125" xlink:href="#BitstreamVeraSans-Roman-6e"/>
      <use x="422.4609375" xlink:href="#BitstreamVeraSans-Roman-73"/>
     </g>
    </g>
   </g>
   <g id="matplotlib.axis_2">
    <g id="ytick_1">
     <g id="line2d_15">
      <defs>
       <path d="M 0 0 
L 4 0 
" id="mc171dfe302" style="stroke:#000000;stroke-width:0.5;"/>
      </defs>
      <g>
       <use style="stroke:#000000;stroke-width:0.5;" x="158.4" xlink:href="#mc171dfe302" y="747.0"/>
      </g>
     </g>
     <g id="line2d_16">
      <defs>
       <path d="M 0 0 
L -4 0 
" id="mff06aded2b" style="stroke:#000000;stroke-width:0.5;"/>
      </defs>
      <g>
       <use style="stroke:#000000;stroke-width:0.5;" x="1336.05" xlink:href="#mff06aded2b" y="747.0"/>
      </g>
     </g>
     <g id="text_8">
      <!-- 60 -->
      <defs>
       <path d="M 10.59375 35.5 
L 73.1875 35.5 
L 73.1875 27.203125 
L 10.59375 27.203125 
z
" id="BitstreamVeraSans-Roman-2212"/>
      </defs>
      <g transform="translate(91.0859375 755.278125)scale(0.3 -0.3)">
       <use xlink:href="#BitstreamVeraSans-Roman-2212"/>
       <use x="83.7890625" xlink:href="#BitstreamVeraSans-Roman-36"/>
       <use x="147.412109375" xlink:href="#BitstreamVeraSans-Roman-30"/>
      </g>
     </g>
    </g>
    <g id="ytick_2">
     <g id="line2d_17">
      <g>
       <use style="stroke:#000000;stroke-width:0.5;" x="158.4" xlink:href="#mc171dfe302" y="660.0375"/>
      </g>
     </g>
     <g id="line2d_18">
      <g>
       <use style="stroke:#000000;stroke-width:0.5;" x="1336.05" xlink:href="#mff06aded2b" y="660.0375"/>
      </g>
     </g>
     <g id="text_9">
      <!-- 50 -->
      <defs>
       <path d="M 10.796875 72.90625 
L 49.515625 72.90625 
L 49.515625 64.59375 
L 19.828125 64.59375 
L 19.828125 46.734375 
Q 21.96875 47.46875 24.109375 47.828125 
Q 26.265625 48.1875 28.421875 48.1875 
Q 40.625 48.1875 47.75 41.5 
Q 54.890625 34.8125 54.890625 23.390625 
Q 54.890625 11.625 47.5625 5.09375 
Q 40.234375 -1.421875 26.90625 -1.421875 
Q 22.3125 -1.421875 17.546875 -0.640625 
Q 12.796875 0.140625 7.71875 1.703125 
L 7.71875 11.625 
Q 12.109375 9.234375 16.796875 8.0625 
Q 21.484375 6.890625 26.703125 6.890625 
Q 35.15625 6.890625 40.078125 11.328125 
Q 45.015625 15.765625 45.015625 23.390625 
Q 45.015625 31 40.078125 35.4375 
Q 35.15625 39.890625 26.703125 39.890625 
Q 22.75 39.890625 18.8125 39.015625 
Q 14.890625 38.140625 10.796875 36.28125 
z
" id="BitstreamVeraSans-Roman-35"/>
      </defs>
      <g transform="translate(91.0859375 668.315625)scale(0.3 -0.3)">
       <use xlink:href="#BitstreamVeraSans-Roman-2212"/>
       <use x="83.7890625" xlink:href="#BitstreamVeraSans-Roman-35"/>
       <use x="147.412109375" xlink:href="#BitstreamVeraSans-Roman-30"/>
      </g>
     </g>
    </g>
    <g id="ytick_3">
     <g id="line2d_19">
      <g>
       <use style="stroke:#000000;stroke-width:0.5;" x="158.4" xlink:href="#mc171dfe302" y="573.075"/>
      </g>
     </g>
     <g id="line2d_20">
      <g>
       <use style="stroke:#000000;stroke-width:0.5;" x="1336.05" xlink:href="#mff06aded2b" y="573.075"/>
      </g>
     </g>
     <g id="text_10">
      <!-- 40 -->
      <g transform="translate(91.0859375 581.353125)scale(0.3 -0.3)">
       <use xlink:href="#BitstreamVeraSans-Roman-2212"/>
       <use x="83.7890625" xlink:href="#BitstreamVeraSans-Roman-34"/>
       <use x="147.412109375" xlink:href="#BitstreamVeraSans-Roman-30"/>
      </g>
     </g>
    </g>
    <g id="ytick_4">
     <g id="line2d_21">
      <g>
       <use style="stroke:#000000;stroke-width:0.5;" x="158.4" xlink:href="#mc171dfe302" y="486.1125"/>
      </g>
     </g>
     <g id="line2d_22">
      <g>
       <use style="stroke:#000000;stroke-width:0.5;" x="1336.05" xlink:href="#mff06aded2b" y="486.1125"/>
      </g>
     </g>
     <g id="text_11">
      <!-- 30 -->
      <defs>
       <path d="M 40.578125 39.3125 
Q 47.65625 37.796875 51.625 33 
Q 55.609375 28.21875 55.609375 21.1875 
Q 55.609375 10.40625 48.1875 4.484375 
Q 40.765625 -1.421875 27.09375 -1.421875 
Q 22.515625 -1.421875 17.65625 -0.515625 
Q 12.796875 0.390625 7.625 2.203125 
L 7.625 11.71875 
Q 11.71875 9.328125 16.59375 8.109375 
Q 21.484375 6.890625 26.8125 6.890625 
Q 36.078125 6.890625 40.9375 10.546875 
Q 45.796875 14.203125 45.796875 21.1875 
Q 45.796875 27.640625 41.28125 31.265625 
Q 36.765625 34.90625 28.71875 34.90625 
L 20.21875 34.90625 
L 20.21875 43.015625 
L 29.109375 43.015625 
Q 36.375 43.015625 40.234375 45.921875 
Q 44.09375 48.828125 44.09375 54.296875 
Q 44.09375 59.90625 40.109375 62.90625 
Q 36.140625 65.921875 28.71875 65.921875 
Q 24.65625 65.921875 20.015625 65.03125 
Q 15.375 64.15625 9.8125 62.3125 
L 9.8125 71.09375 
Q 15.4375 72.65625 20.34375 73.4375 
Q 25.25 74.21875 29.59375 74.21875 
Q 40.828125 74.21875 47.359375 69.109375 
Q 53.90625 64.015625 53.90625 55.328125 
Q 53.90625 49.265625 50.4375 45.09375 
Q 46.96875 40.921875 40.578125 39.3125 
" id="BitstreamVeraSans-Roman-33"/>
      </defs>
      <g transform="translate(91.0859375 494.390625)scale(0.3 -0.3)">
       <use xlink:href="#BitstreamVeraSans-Roman-2212"/>
       <use x="83.7890625" xlink:href="#BitstreamVeraSans-Roman-33"/>
       <use x="147.412109375" xlink:href="#BitstreamVeraSans-Roman-30"/>
      </g>
     </g>
    </g>
    <g id="ytick_5">
     <g id="line2d_23">
      <g>
       <use style="stroke:#000000;stroke-width:0.5;" x="158.4" xlink:href="#mc171dfe302" y="399.15"/>
      </g>
     </g>
     <g id="line2d_24">
      <g>
       <use style="stroke:#000000;stroke-width:0.5;" x="1336.05" xlink:href="#mff06aded2b" y="399.15"/>
      </g>
     </g>
     <g id="text_12">
      <!-- 20 -->
      <g transform="translate(91.0859375 407.428125)scale(0.3 -0.3)">
       <use xlink:href="#BitstreamVeraSans-Roman-2212"/>
       <use x="83.7890625" xlink:href="#BitstreamVeraSans-Roman-32"/>
       <use x="147.412109375" xlink:href="#BitstreamVeraSans-Roman-30"/>
      </g>
     </g>
    </g>
    <g id="ytick_6">
     <g id="line2d_25">
      <g>
       <use style="stroke:#000000;stroke-width:0.5;" x="158.4" xlink:href="#mc171dfe302" y="312.1875"/>
      </g>
     </g>
     <g id="line2d_26">
      <g>
       <use style="stroke:#000000;stroke-width:0.5;" x="1336.05" xlink:href="#mff06aded2b" y="312.1875"/>
      </g>
     </g>
     <g id="text_13">
      <!-- 10 -->
      <g transform="translate(91.0859375 320.465625)scale(0.3 -0.3)">
       <use xlink:href="#BitstreamVeraSans-Roman-2212"/>
       <use x="83.7890625" xlink:href="#BitstreamVeraSans-Roman-31"/>
       <use x="147.412109375" xlink:href="#BitstreamVeraSans-Roman-30"/>
      </g>
     </g>
    </g>
    <g id="ytick_7">
     <g id="line2d_27">
      <g>
       <use style="stroke:#000000;stroke-width:0.5;" x="158.4" xlink:href="#mc171dfe302" y="225.225"/>
      </g>
     </g>
     <g id="line2d_28">
      <g>
       <use style="stroke:#000000;stroke-width:0.5;" x="1336.05" xlink:href="#mff06aded2b" y="225.225"/>
      </g>
     </g>
     <g id="text_14">
      <!-- 0 -->
      <g transform="translate(135.3125 233.503125)scale(0.3 -0.3)">
       <use xlink:href="#BitstreamVeraSans-Roman-30"/>
      </g>
     </g>
    </g>
    <g id="ytick_8">
     <g id="line2d_29">
      <g>
       <use style="stroke:#000000;stroke-width:0.5;" x="158.4" xlink:href="#mc171dfe302" y="138.2625"/>
      </g>
     </g>
     <g id="line2d_30">
      <g>
       <use style="stroke:#000000;stroke-width:0.5;" x="1336.05" xlink:href="#mff06aded2b" y="138.2625"/>
      </g>
     </g>
     <g id="text_15">
      <!-- 10 -->
      <g transform="translate(116.225 146.540625)scale(0.3 -0.3)">
       <use xlink:href="#BitstreamVeraSans-Roman-31"/>
       <use x="63.623046875" xlink:href="#BitstreamVeraSans-Roman-30"/>
      </g>
     </g>
    </g>
    <g id="ytick_9">
     <g id="line2d_31">
      <g>
       <use style="stroke:#000000;stroke-width:0.5;" x="158.4" xlink:href="#mc171dfe302" y="51.3"/>
      </g>
     </g>
     <g id="line2d_32">
      <g>
       <use style="stroke:#000000;stroke-width:0.5;" x="1336.05" xlink:href="#mff06aded2b" y="51.3"/>
      </g>
     </g>
     <g id="text_16">
      <!-- 20 -->
      <g transform="translate(116.225 59.578125)scale(0.3 -0.3)">
       <use xlink:href="#BitstreamVeraSans-Roman-32"/>
       <use x="63.623046875" xlink:href="#BitstreamVeraSans-Roman-30"/>
      </g>
     </g>
    </g>
    <g id="text_17">
     <!-- log(loss) -->
     <defs>
      <path d="M 8.015625 75.875 
L 15.828125 75.875 
Q 23.140625 64.359375 26.78125 53.3125 
Q 30.421875 42.28125 30.421875 31.390625 
Q 30.421875 20.453125 26.78125 9.375 
Q 23.140625 -1.703125 15.828125 -13.1875 
L 8.015625 -13.1875 
Q 14.5 -2 17.703125 9.0625 
Q 20.90625 20.125 20.90625 31.390625 
Q 20.90625 42.671875 17.703125 53.65625 
Q 14.5 64.65625 8.015625 75.875 
" id="BitstreamVeraSans-Roman-29"/>
      <path d="M 31 75.875 
Q 24.46875 64.65625 21.28125 53.65625 
Q 18.109375 42.671875 18.109375 31.390625 
Q 18.109375 20.125 21.3125 9.0625 
Q 24.515625 -2 31 -13.1875 
L 23.1875 -13.1875 
Q 15.875 -1.703125 12.234375 9.375 
Q 8.59375 20.453125 8.59375 31.390625 
Q 8.59375 42.28125 12.203125 53.3125 
Q 15.828125 64.359375 23.1875 75.875 
z
" id="BitstreamVeraSans-Roman-28"/>
      <path d="M 45.40625 27.984375 
Q 45.40625 37.75 41.375 43.109375 
Q 37.359375 48.484375 30.078125 48.484375 
Q 22.859375 48.484375 18.828125 43.109375 
Q 14.796875 37.75 14.796875 27.984375 
Q 14.796875 18.265625 18.828125 12.890625 
Q 22.859375 7.515625 30.078125 7.515625 
Q 37.359375 7.515625 41.375 12.890625 
Q 45.40625 18.265625 45.40625 27.984375 
M 54.390625 6.78125 
Q 54.390625 -7.171875 48.1875 -13.984375 
Q 42 -20.796875 29.203125 -20.796875 
Q 24.46875 -20.796875 20.265625 -20.09375 
Q 16.0625 -19.390625 12.109375 -17.921875 
L 12.109375 -9.1875 
Q 16.0625 -11.328125 19.921875 -12.34375 
Q 23.78125 -13.375 27.78125 -13.375 
Q 36.625 -13.375 41.015625 -8.765625 
Q 45.40625 -4.15625 45.40625 5.171875 
L 45.40625 9.625 
Q 42.625 4.78125 38.28125 2.390625 
Q 33.9375 0 27.875 0 
Q 17.828125 0 11.671875 7.65625 
Q 5.515625 15.328125 5.515625 27.984375 
Q 5.515625 40.671875 11.671875 48.328125 
Q 17.828125 56 27.875 56 
Q 33.9375 56 38.28125 53.609375 
Q 42.625 51.21875 45.40625 46.390625 
L 45.40625 54.6875 
L 54.390625 54.6875 
z
" id="BitstreamVeraSans-Roman-67"/>
      <path d="M 9.421875 75.984375 
L 18.40625 75.984375 
L 18.40625 0 
L 9.421875 0 
z
" id="BitstreamVeraSans-Roman-6c"/>
     </defs>
     <g transform="translate(79.846875 462.69609375)rotate(-90.0)scale(0.3 -0.3)">
      <use xlink:href="#BitstreamVeraSans-Roman-6c"/>
      <use x="27.783203125" xlink:href="#BitstreamVeraSans-Roman-6f"/>
      <use x="88.96484375" xlink:href="#BitstreamVeraSans-Roman-67"/>
      <use x="152.44140625" xlink:href="#BitstreamVeraSans-Roman-28"/>
      <use x="191.455078125" xlink:href="#BitstreamVeraSans-Roman-6c"/>
      <use x="219.23828125" xlink:href="#BitstreamVeraSans-Roman-6f"/>
      <use x="280.419921875" xlink:href="#BitstreamVeraSans-Roman-73"/>
      <use x="332.51953125" xlink:href="#BitstreamVeraSans-Roman-73"/>
      <use x="384.619140625" xlink:href="#BitstreamVeraSans-Roman-29"/>
     </g>
    </g>
   </g>
   <g id="legend_1">
    <g id="patch_7">
     <path d="M 843.876562 163.36875 
L 1321.05 163.36875 
L 1321.05 66.3 
L 843.876562 66.3 
z
" style="fill:#ffffff;stroke:#000000;stroke-linejoin:miter;"/>
    </g>
    <g id="line2d_33">
     <path d="M 864.876562 90.595312 
L 906.876562 90.595312 
" style="fill:none;stroke:#0000ff;stroke-linecap:square;stroke-width:2.0;"/>
    </g>
    <g id="line2d_34"/>
    <g id="text_18">
     <!-- random: step=0.007688 -->
     <defs>
      <path id="BitstreamVeraSans-Roman-20"/>
      <path d="M 8.203125 72.90625 
L 55.078125 72.90625 
L 55.078125 68.703125 
L 28.609375 0 
L 18.3125 0 
L 43.21875 64.59375 
L 8.203125 64.59375 
z
" id="BitstreamVeraSans-Roman-37"/>
      <path d="M 52 44.1875 
Q 55.375 50.25 60.0625 53.125 
Q 64.75 56 71.09375 56 
Q 79.640625 56 84.28125 50.015625 
Q 88.921875 44.046875 88.921875 33.015625 
L 88.921875 0 
L 79.890625 0 
L 79.890625 32.71875 
Q 79.890625 40.578125 77.09375 44.375 
Q 74.3125 48.1875 68.609375 48.1875 
Q 61.625 48.1875 57.5625 43.546875 
Q 53.515625 38.921875 53.515625 30.90625 
L 53.515625 0 
L 44.484375 0 
L 44.484375 32.71875 
Q 44.484375 40.625 41.703125 44.40625 
Q 38.921875 48.1875 33.109375 48.1875 
Q 26.21875 48.1875 22.15625 43.53125 
Q 18.109375 38.875 18.109375 30.90625 
L 18.109375 0 
L 9.078125 0 
L 9.078125 54.6875 
L 18.109375 54.6875 
L 18.109375 46.1875 
Q 21.1875 51.21875 25.484375 53.609375 
Q 29.78125 56 35.6875 56 
Q 41.65625 56 45.828125 52.96875 
Q 50 49.953125 52 44.1875 
" id="BitstreamVeraSans-Roman-6d"/>
      <path d="M 11.71875 12.40625 
L 22.015625 12.40625 
L 22.015625 0 
L 11.71875 0 
z
M 11.71875 51.703125 
L 22.015625 51.703125 
L 22.015625 39.3125 
L 11.71875 39.3125 
z
" id="BitstreamVeraSans-Roman-3a"/>
      <path d="M 10.6875 12.40625 
L 21 12.40625 
L 21 0 
L 10.6875 0 
z
" id="BitstreamVeraSans-Roman-2e"/>
      <path d="M 10.59375 45.40625 
L 73.1875 45.40625 
L 73.1875 37.203125 
L 10.59375 37.203125 
z
M 10.59375 25.484375 
L 73.1875 25.484375 
L 73.1875 17.1875 
L 10.59375 17.1875 
z
" id="BitstreamVeraSans-Roman-3d"/>
      <path d="M 45.40625 46.390625 
L 45.40625 75.984375 
L 54.390625 75.984375 
L 54.390625 0 
L 45.40625 0 
L 45.40625 8.203125 
Q 42.578125 3.328125 38.25 0.953125 
Q 33.9375 -1.421875 27.875 -1.421875 
Q 17.96875 -1.421875 11.734375 6.484375 
Q 5.515625 14.40625 5.515625 27.296875 
Q 5.515625 40.1875 11.734375 48.09375 
Q 17.96875 56 27.875 56 
Q 33.9375 56 38.25 53.625 
Q 42.578125 51.265625 45.40625 46.390625 
M 14.796875 27.296875 
Q 14.796875 17.390625 18.875 11.75 
Q 22.953125 6.109375 30.078125 6.109375 
Q 37.203125 6.109375 41.296875 11.75 
Q 45.40625 17.390625 45.40625 27.296875 
Q 45.40625 37.203125 41.296875 42.84375 
Q 37.203125 48.484375 30.078125 48.484375 
Q 22.953125 48.484375 18.875 42.84375 
Q 14.796875 37.203125 14.796875 27.296875 
" id="BitstreamVeraSans-Roman-64"/>
      <path d="M 18.109375 8.203125 
L 18.109375 -20.796875 
L 9.078125 -20.796875 
L 9.078125 54.6875 
L 18.109375 54.6875 
L 18.109375 46.390625 
Q 20.953125 51.265625 25.265625 53.625 
Q 29.59375 56 35.59375 56 
Q 45.5625 56 51.78125 48.09375 
Q 58.015625 40.1875 58.015625 27.296875 
Q 58.015625 14.40625 51.78125 6.484375 
Q 45.5625 -1.421875 35.59375 -1.421875 
Q 29.59375 -1.421875 25.265625 0.953125 
Q 20.953125 3.328125 18.109375 8.203125 
M 48.6875 27.296875 
Q 48.6875 37.203125 44.609375 42.84375 
Q 40.53125 48.484375 33.40625 48.484375 
Q 26.265625 48.484375 22.1875 42.84375 
Q 18.109375 37.203125 18.109375 27.296875 
Q 18.109375 17.390625 22.1875 11.75 
Q 26.265625 6.109375 33.40625 6.109375 
Q 40.53125 6.109375 44.609375 11.75 
Q 48.6875 17.390625 48.6875 27.296875 
" id="BitstreamVeraSans-Roman-70"/>
     </defs>
     <g transform="translate(939.8765625 101.0953125)scale(0.3 -0.3)">
      <use xlink:href="#BitstreamVeraSans-Roman-72"/>
      <use x="41.11328125" xlink:href="#BitstreamVeraSans-Roman-61"/>
      <use x="102.392578125" xlink:href="#BitstreamVeraSans-Roman-6e"/>
      <use x="165.771484375" xlink:href="#BitstreamVeraSans-Roman-64"/>
      <use x="229.248046875" xlink:href="#BitstreamVeraSans-Roman-6f"/>
      <use x="290.4296875" xlink:href="#BitstreamVeraSans-Roman-6d"/>
      <use x="387.841796875" xlink:href="#BitstreamVeraSans-Roman-3a"/>
      <use x="421.533203125" xlink:href="#BitstreamVeraSans-Roman-20"/>
      <use x="453.3203125" xlink:href="#BitstreamVeraSans-Roman-73"/>
      <use x="505.419921875" xlink:href="#BitstreamVeraSans-Roman-74"/>
      <use x="544.62890625" xlink:href="#BitstreamVeraSans-Roman-65"/>
      <use x="606.15234375" xlink:href="#BitstreamVeraSans-Roman-70"/>
      <use x="669.62890625" xlink:href="#BitstreamVeraSans-Roman-3d"/>
      <use x="753.41796875" xlink:href="#BitstreamVeraSans-Roman-30"/>
      <use x="817.041015625" xlink:href="#BitstreamVeraSans-Roman-2e"/>
      <use x="848.828125" xlink:href="#BitstreamVeraSans-Roman-30"/>
      <use x="912.451171875" xlink:href="#BitstreamVeraSans-Roman-30"/>
      <use x="976.07421875" xlink:href="#BitstreamVeraSans-Roman-37"/>
      <use x="1039.69726562" xlink:href="#BitstreamVeraSans-Roman-36"/>
      <use x="1103.3203125" xlink:href="#BitstreamVeraSans-Roman-38"/>
      <use x="1166.94335938" xlink:href="#BitstreamVeraSans-Roman-38"/>
     </g>
    </g>
    <g id="line2d_35">
     <path d="M 864.876562 134.629687 
L 906.876562 134.629687 
" style="fill:none;stroke:#008000;stroke-dasharray:6.000000,6.000000;stroke-dashoffset:0.0;stroke-width:2.0;"/>
    </g>
    <g id="line2d_36"/>
    <g id="text_19">
     <!-- corr: step=0.007688 -->
     <defs>
      <path d="M 48.78125 52.59375 
L 48.78125 44.1875 
Q 44.96875 46.296875 41.140625 47.34375 
Q 37.3125 48.390625 33.40625 48.390625 
Q 24.65625 48.390625 19.8125 42.84375 
Q 14.984375 37.3125 14.984375 27.296875 
Q 14.984375 17.28125 19.8125 11.734375 
Q 24.65625 6.203125 33.40625 6.203125 
Q 37.3125 6.203125 41.140625 7.25 
Q 44.96875 8.296875 48.78125 10.40625 
L 48.78125 2.09375 
Q 45.015625 0.34375 40.984375 -0.53125 
Q 36.96875 -1.421875 32.421875 -1.421875 
Q 20.0625 -1.421875 12.78125 6.34375 
Q 5.515625 14.109375 5.515625 27.296875 
Q 5.515625 40.671875 12.859375 48.328125 
Q 20.21875 56 33.015625 56 
Q 37.15625 56 41.109375 55.140625 
Q 45.0625 54.296875 48.78125 52.59375 
" id="BitstreamVeraSans-Roman-63"/>
     </defs>
     <g transform="translate(939.8765625 145.1296875)scale(0.3 -0.3)">
      <use xlink:href="#BitstreamVeraSans-Roman-63"/>
      <use x="54.98046875" xlink:href="#BitstreamVeraSans-Roman-6f"/>
      <use x="116.162109375" xlink:href="#BitstreamVeraSans-Roman-72"/>
      <use x="157.259765625" xlink:href="#BitstreamVeraSans-Roman-72"/>
      <use x="198.357421875" xlink:href="#BitstreamVeraSans-Roman-3a"/>
      <use x="232.048828125" xlink:href="#BitstreamVeraSans-Roman-20"/>
      <use x="263.8359375" xlink:href="#BitstreamVeraSans-Roman-73"/>
      <use x="315.935546875" xlink:href="#BitstreamVeraSans-Roman-74"/>
      <use x="355.14453125" xlink:href="#BitstreamVeraSans-Roman-65"/>
      <use x="416.66796875" xlink:href="#BitstreamVeraSans-Roman-70"/>
      <use x="480.14453125" xlink:href="#BitstreamVeraSans-Roman-3d"/>
      <use x="563.93359375" xlink:href="#BitstreamVeraSans-Roman-30"/>
      <use x="627.556640625" xlink:href="#BitstreamVeraSans-Roman-2e"/>
      <use x="659.34375" xlink:href="#BitstreamVeraSans-Roman-30"/>
      <use x="722.966796875" xlink:href="#BitstreamVeraSans-Roman-30"/>
      <use x="786.58984375" xlink:href="#BitstreamVeraSans-Roman-37"/>
      <use x="850.212890625" xlink:href="#BitstreamVeraSans-Roman-36"/>
      <use x="913.8359375" xlink:href="#BitstreamVeraSans-Roman-38"/>
      <use x="977.458984375" xlink:href="#BitstreamVeraSans-Roman-38"/>
     </g>
    </g>
   </g>
  </g>
 </g>
 <defs>
  <clipPath id="p2964e882e6">
   <rect height="695.7" width="1177.65" x="158.4" y="51.3"/>
  </clipPath>
 </defs>
</svg>
