<?xml version="1.0" encoding="utf-8" standalone="no"?>
<!DOCTYPE svg PUBLIC "-//W3C//DTD SVG 1.1//EN"
  "http://www.w3.org/Graphics/SVG/1.1/DTD/svg11.dtd">
<!-- Created with matplotlib (http://matplotlib.org/) -->
<svg height="864pt" version="1.1" viewBox="0 0 1440 864" width="1440pt" xmlns="http://www.w3.org/2000/svg" xmlns:xlink="http://www.w3.org/1999/xlink">
 <defs>
  <style type="text/css">
*{stroke-linecap:butt;stroke-linejoin:round;stroke-miterlimit:100000;}
  </style>
 </defs>
 <g id="figure_1">
  <g id="patch_1">
   <path d="M 0 864 
L 1440 864 
L 1440 0 
L 0 0 
z
" style="fill:#ffffff;"/>
  </g>
  <g id="axes_1">
   <g id="patch_2">
    <path d="M 158.4 747 
L 1336.05 747 
L 1336.05 51.3 
L 158.4 51.3 
z
" style="fill:#ffffff;"/>
   </g>
   <g id="line2d_1">
    <path clip-path="url(#p20b07eab3c)" d="M 159.57765 126.307817 
L 160.7553 128.72535 
L 163.1106 134.621677 
L 164.28825 137.035549 
L 165.4659 140.236211 
L 166.64355 143.857064 
L 168.99885 147.765763 
L 170.1765 150.418656 
L 171.35415 153.684572 
L 172.5318 156.55748 
L 173.70945 159.012823 
L 176.06475 164.521037 
L 177.2424 167.444667 
L 178.42005 170.88469 
L 183.13065 180.777156 
L 185.48595 186.801625 
L 186.6636 189.366581 
L 189.0189 195.331042 
L 190.19655 197.524914 
L 192.55185 204.092808 
L 193.7295 205.766632 
L 194.90715 209.135832 
L 196.0848 211.658226 
L 197.26245 214.531911 
L 198.4401 217.820533 
L 199.61775 220.697475 
L 200.7954 223.230993 
L 201.97305 226.892621 
L 203.1507 229.11796 
L 204.32835 232.243927 
L 205.506 235.874674 
L 206.68365 237.990721 
L 207.8613 241.789752 
L 209.03895 244.19966 
L 210.2166 248.578549 
L 211.39425 251.043164 
L 212.5719 254.613426 
L 213.74955 256.774376 
L 217.2825 264.358694 
L 218.46015 268.479417 
L 219.6378 270.631471 
L 220.81545 274.209899 
L 221.9931 277.321875 
L 223.17075 279.895821 
L 224.3484 281.931328 
L 225.52605 284.511904 
L 226.7037 287.806413 
L 229.059 293.633888 
L 231.4143 300.984988 
L 232.59195 303.795821 
L 233.7696 305.968688 
L 236.1249 311.541991 
L 237.30255 313.607855 
L 239.65785 318.608776 
L 240.8355 322.039718 
L 244.36845 330.360481 
L 245.5461 333.947936 
L 247.9014 339.050739 
L 249.07905 340.715463 
L 254.9673 354.689421 
L 256.14495 359.460138 
L 258.50025 363.721782 
L 259.6779 367.43059 
L 260.85555 370.346146 
L 262.0332 372.952214 
L 263.21085 374.532422 
L 264.3885 377.463139 
L 265.56615 380.027132 
L 266.7438 383.971605 
L 267.92145 387.197382 
L 269.0991 389.61933 
L 270.27675 392.312988 
L 271.4544 396.068651 
L 272.63205 398.714197 
L 273.8097 401.871386 
L 276.165 406.782292 
L 277.34265 409.054692 
L 282.05325 419.729351 
L 283.2309 422.88688 
L 284.40855 426.784007 
L 286.76385 432.761512 
L 289.11915 436.585447 
L 292.6521 445.526421 
L 293.82975 447.539878 
L 295.0074 450.757166 
L 296.18505 453.295611 
L 297.3627 454.86608 
L 299.718 461.770565 
L 302.0733 466.519426 
L 303.25095 470.267058 
L 305.60625 475.861965 
L 307.96155 481.121604 
L 309.1392 485.023071 
L 310.31685 487.394064 
L 311.4945 489.499456 
L 313.8498 495.349663 
L 315.02745 498.920674 
L 316.2051 501.045632 
L 317.38275 504.049088 
L 318.5604 506.591652 
L 319.73805 508.599907 
L 320.9157 511.284179 
L 322.09335 516.02825 
L 323.271 518.437294 
L 324.44865 520.335805 
L 325.6263 523.069245 
L 326.80395 526.104111 
L 329.15925 531.387904 
L 330.3369 535.322408 
L 333.86985 543.327145 
L 335.0475 547.150655 
L 336.22515 550.473897 
L 338.58045 555.59232 
L 340.93575 561.153866 
L 342.1134 564.833289 
L 343.29105 567.380962 
L 344.4687 571.317454 
L 345.64635 573.97264 
L 346.824 577.401125 
L 349.1793 583.109403 
L 351.5346 589.389736 
L 352.71225 591.306497 
L 353.8899 594.102039 
L 355.06755 595.888081 
L 356.2452 598.202808 
L 357.42285 602.294635 
L 358.6005 605.572091 
L 359.77815 608.098427 
L 360.9558 612.428338 
L 362.13345 615.311849 
L 363.3111 617.366893 
L 364.48875 619.647774 
L 365.6664 622.282076 
L 366.84405 625.634001 
L 368.0217 628.359298 
L 369.19935 632.357553 
L 370.377 634.36813 
L 371.55465 637.204731 
L 373.90995 641.742046 
L 375.0876 644.638848 
L 376.26525 647.896048 
L 377.4429 650.651054 
L 379.7982 655.416658 
L 380.97585 659.619967 
L 382.1535 662.319248 
L 383.33115 665.381759 
L 384.5088 667.64411 
L 388.04175 677.736893 
L 389.2194 680.372457 
L 390.39705 683.713533 
L 393.93 690.677345 
L 396.2853 695.570883 
L 397.46295 698.47293 
L 398.6406 700.771238 
L 399.81825 702.403718 
L 400.9959 703.53873 
L 402.17355 705.31296 
L 403.3512 706.475419 
L 404.52885 708.814812 
L 405.7065 710.25787 
L 406.88415 711.070358 
L 408.0618 712.748842 
L 409.23945 713.543787 
L 410.4171 715.333407 
L 411.59475 716.206697 
L 412.7724 715.570418 
L 413.95005 716.687514 
L 415.1277 718.204433 
L 416.30535 717.519409 
L 417.483 718.653014 
L 418.66065 717.561297 
L 419.8383 717.941074 
L 421.01595 717.54094 
L 423.37125 718.803774 
L 424.5489 717.908697 
L 425.72655 718.094957 
L 426.9042 717.467496 
L 428.08185 717.380954 
L 429.2595 719.203469 
L 430.43715 719.243217 
L 431.6148 717.272116 
L 432.79245 718.662535 
L 433.9701 718.982099 
L 435.14775 718.911124 
L 436.3254 719.907177 
L 438.6807 717.46089 
L 439.85835 717.942479 
L 441.036 718.194645 
L 442.21365 719.467098 
L 443.3913 717.746459 
L 444.56895 716.812516 
L 445.7466 717.243469 
L 446.92425 717.892217 
L 448.1019 717.845462 
L 449.27955 717.936953 
L 450.4572 717.450532 
L 451.63485 718.325226 
L 452.8125 717.709305 
L 453.99015 717.788996 
L 455.1678 717.720182 
L 456.34545 718.724112 
L 457.5231 717.528687 
L 458.70075 718.03879 
L 461.05605 717.586302 
L 462.2337 717.852221 
L 463.41135 717.353513 
L 465.76665 717.094871 
L 466.9443 717.3033 
L 468.12195 718.158606 
L 469.2996 717.668787 
L 470.47725 718.581252 
L 471.6549 717.960576 
L 472.83255 715.909786 
L 474.0102 716.112807 
L 475.18785 717.939946 
L 476.3655 717.421871 
L 477.54315 718.418166 
L 478.7208 717.413444 
L 479.89845 718.220754 
L 481.0761 718.869827 
L 482.25375 718.00676 
L 483.4314 717.812487 
L 484.60905 719.006062 
L 485.7867 718.262844 
L 486.96435 718.991526 
L 489.31965 719.530423 
L 490.4973 717.380074 
L 491.67495 718.088854 
L 492.8526 718.592482 
L 494.03025 719.628173 
L 495.2079 718.428979 
L 496.38555 718.531803 
L 497.5632 717.607087 
L 498.74085 718.917648 
L 499.9185 717.873289 
L 501.09615 718.66155 
L 502.2738 718.489832 
L 503.45145 717.684644 
L 504.6291 719.36056 
L 505.80675 718.730967 
L 506.9844 717.674619 
L 508.16205 717.796875 
L 509.3397 718.122878 
L 510.51735 717.662343 
L 512.87265 717.90686 
L 514.0503 717.499744 
L 515.22795 718.104845 
L 516.4056 718.42488 
L 517.58325 717.71027 
L 518.7609 717.699747 
L 519.93855 717.924213 
L 521.1162 718.417175 
L 522.29385 717.313952 
L 523.4715 718.738978 
L 524.64915 717.272087 
L 525.8268 718.059346 
L 527.00445 718.708784 
L 528.1821 717.746744 
L 529.35975 717.975331 
L 530.5374 720.230634 
L 531.71505 717.81914 
L 534.07035 716.768314 
L 535.248 716.037761 
L 536.42565 716.21932 
L 537.6033 716.831603 
L 539.9586 718.233464 
L 542.3139 717.760273 
L 543.49155 717.412452 
L 544.6692 717.201961 
L 545.84685 717.170298 
L 547.0245 715.926577 
L 548.20215 715.508544 
L 549.3798 716.584146 
L 550.55745 717.033802 
L 551.7351 717.21108 
L 552.91275 717.593406 
L 554.0904 718.575169 
L 555.26805 718.375974 
L 556.4457 719.694139 
L 557.62335 719.095385 
L 558.801 719.424494 
L 559.97865 718.262289 
L 561.1563 719.245679 
L 562.33395 718.98983 
L 563.5116 719.815233 
L 564.68925 719.425103 
L 565.8669 718.364357 
L 567.04455 719.112359 
L 568.2222 717.530215 
L 569.39985 717.368124 
L 570.5775 718.55915 
L 571.75515 717.355372 
L 572.9328 717.496241 
L 574.11045 717.829829 
L 575.2881 718.396815 
L 576.46575 717.099935 
L 577.6434 717.386735 
L 579.9987 717.813605 
L 581.17635 717.55943 
L 582.354 716.992215 
L 583.53165 717.861947 
L 584.7093 718.211622 
L 585.88695 717.973765 
L 588.24225 717.102755 
L 589.4199 717.965568 
L 590.59755 719.343825 
L 591.7752 718.153193 
L 592.95285 719.54111 
L 594.1305 718.711709 
L 595.30815 718.620545 
L 596.4858 716.786316 
L 597.66345 717.440269 
L 598.8411 717.151682 
L 600.01875 717.25284 
L 601.1964 718.300412 
L 602.37405 718.747398 
L 603.5517 718.650082 
L 604.72935 719.32358 
L 608.2623 719.241695 
L 609.43995 718.229213 
L 610.6176 717.835722 
L 611.79525 716.933972 
L 612.9729 716.815127 
L 614.15055 716.47415 
L 615.3282 716.444144 
L 616.50585 716.966669 
L 617.6835 718.524424 
L 618.86115 716.917548 
L 620.0388 717.911376 
L 621.21645 718.334471 
L 622.3941 716.769149 
L 623.57175 717.794481 
L 624.7494 716.969459 
L 625.92705 718.067297 
L 628.28235 717.651501 
L 629.46 717.275387 
L 630.63765 717.260408 
L 631.8153 717.082733 
L 632.99295 717.403284 
L 634.1706 718.318948 
L 635.34825 719.487286 
L 636.5259 719.703777 
L 637.70355 717.998681 
L 638.8812 718.487983 
L 640.05885 718.791564 
L 642.41415 718.21927 
L 643.5918 719.243181 
L 644.76945 719.08223 
L 645.9471 719.223636 
L 648.3024 716.905801 
L 649.48005 717.261064 
L 650.6577 717.470568 
L 651.83535 716.88787 
L 653.013 718.152447 
L 654.19065 717.688903 
L 655.3683 717.633604 
L 656.54595 718.687539 
L 657.7236 719.473244 
L 660.0789 718.570891 
L 661.25655 719.310852 
L 662.4342 720.474074 
L 663.61185 720.40736 
L 664.7895 719.615119 
L 665.96715 717.712207 
L 668.32245 719.198323 
L 669.5001 718.421853 
L 670.67775 718.141768 
L 671.8554 718.686949 
L 674.2107 718.09485 
L 675.38835 716.312595 
L 676.566 716.576262 
L 677.74365 716.061491 
L 678.9213 717.406499 
L 680.09895 716.985799 
L 681.2766 716.771624 
L 683.6319 718.310485 
L 684.80955 717.888113 
L 685.9872 716.630242 
L 687.16485 716.431834 
L 688.3425 717.329194 
L 690.6978 716.937663 
L 691.87545 716.990551 
L 693.0531 717.594348 
L 694.23075 717.873264 
L 695.4084 717.279336 
L 696.58605 718.343829 
L 697.7637 719.027134 
L 698.94135 718.564683 
L 700.119 718.459669 
L 701.29665 717.530751 
L 702.4743 718.932159 
L 703.65195 717.293591 
L 704.8296 718.274264 
L 706.00725 718.060233 
L 707.1849 717.164977 
L 708.36255 718.66166 
L 709.5402 718.375365 
L 710.71785 719.286211 
L 711.8955 717.841348 
L 713.07315 719.320503 
L 714.2508 719.994335 
L 715.42845 719.731013 
L 716.6061 718.836239 
L 717.78375 717.747105 
L 718.9614 719.142622 
L 720.13905 718.357564 
L 721.3167 718.986124 
L 722.49435 717.561371 
L 723.672 719.149459 
L 724.84965 717.854951 
L 726.0273 717.873003 
L 727.20495 718.568398 
L 728.3826 718.998258 
L 729.56025 720.678942 
L 730.7379 719.560853 
L 731.91555 719.150598 
L 733.0932 717.688039 
L 734.27085 717.260291 
L 735.4485 717.766587 
L 736.62615 718.869315 
L 737.8038 717.841386 
L 738.98145 717.206887 
L 740.1591 717.853292 
L 741.33675 717.401986 
L 742.5144 718.013996 
L 743.69205 717.802715 
L 744.8697 718.579645 
L 746.04735 717.764827 
L 747.225 717.145453 
L 748.40265 715.694261 
L 749.5803 716.059504 
L 750.75795 716.627855 
L 751.9356 714.860947 
L 753.11325 715.125739 
L 754.2909 715.028393 
L 755.46855 715.109175 
L 756.6462 714.568752 
L 759.0015 717.053106 
L 760.17915 716.543839 
L 761.3568 715.453193 
L 763.7121 717.304995 
L 764.88975 717.618331 
L 766.0674 718.921474 
L 767.24505 718.168029 
L 768.4227 718.155317 
L 769.60035 717.851285 
L 771.95565 717.058831 
L 773.1333 717.977674 
L 774.31095 719.186073 
L 775.4886 719.018013 
L 776.66625 719.009431 
L 777.8439 717.779043 
L 779.02155 718.564449 
L 780.1992 718.237531 
L 781.37685 718.879545 
L 782.5545 719.283997 
L 784.9098 719.369881 
L 786.08745 719.638533 
L 787.2651 719.007945 
L 788.44275 717.764807 
L 790.79805 718.409607 
L 793.15335 717.912497 
L 794.331 717.506634 
L 795.50865 717.76458 
L 796.6863 717.442983 
L 797.86395 717.419756 
L 799.0416 718.753221 
L 800.21925 717.94463 
L 801.3969 719.087913 
L 802.57455 718.853714 
L 803.7522 719.763251 
L 804.92985 720.245286 
L 806.1075 718.94074 
L 807.28515 719.763429 
L 808.4628 718.901889 
L 809.64045 719.675489 
L 810.8181 720.119284 
L 811.99575 719.300053 
L 813.1734 719.403254 
L 814.35105 718.43726 
L 815.5287 718.508386 
L 816.70635 718.253314 
L 817.884 719.245397 
L 819.06165 719.627221 
L 820.2393 718.892107 
L 821.41695 718.63157 
L 822.5946 718.537868 
L 823.77225 718.863757 
L 824.9499 718.028753 
L 827.3052 717.199056 
L 828.48285 716.122874 
L 830.83815 716.150291 
L 832.0158 717.532447 
L 833.19345 717.272133 
L 834.3711 717.534982 
L 835.54875 716.848281 
L 836.7264 717.072841 
L 837.90405 716.512024 
L 839.0817 716.636437 
L 840.25935 716.987156 
L 841.437 718.38233 
L 842.61465 717.719689 
L 843.7923 717.18808 
L 844.96995 717.96171 
L 846.1476 718.556465 
L 847.32525 718.337184 
L 848.5029 717.370855 
L 849.68055 717.139965 
L 850.8582 718.352865 
L 852.03585 717.899145 
L 854.39115 717.324126 
L 855.5688 717.168086 
L 856.74645 717.578253 
L 857.9241 717.282997 
L 859.10175 718.961164 
L 860.2794 717.951477 
L 861.45705 718.40465 
L 863.81235 718.229177 
L 864.99 719.243801 
L 866.16765 719.334301 
L 867.3453 719.236742 
L 868.52295 719.731907 
L 869.7006 719.755793 
L 870.87825 718.414997 
L 872.0559 717.503656 
L 873.23355 718.325163 
L 874.4112 718.665047 
L 875.58885 718.614764 
L 876.7665 718.292114 
L 877.94415 718.64203 
L 879.1218 719.525134 
L 880.29945 719.264115 
L 881.4771 717.379475 
L 882.65475 718.207175 
L 883.8324 718.578076 
L 885.01005 719.131683 
L 886.1877 719.252336 
L 887.36535 718.867978 
L 888.543 718.08048 
L 889.72065 718.080827 
L 890.8983 719.869299 
L 892.07595 718.39372 
L 893.2536 718.468319 
L 894.43125 719.336628 
L 895.6089 718.674902 
L 896.78655 719.607659 
L 897.9642 719.854723 
L 899.14185 719.233578 
L 900.3195 719.527554 
L 901.49715 718.126298 
L 902.6748 717.092094 
L 903.85245 718.116217 
L 905.0301 717.785671 
L 906.20775 717.877387 
L 907.3854 718.859171 
L 908.56305 718.589543 
L 909.7407 718.510779 
L 910.91835 718.095136 
L 912.096 717.401768 
L 913.27365 717.170706 
L 914.4513 717.983261 
L 915.62895 717.676855 
L 916.8066 718.605451 
L 917.98425 718.892515 
L 919.1619 717.982181 
L 920.33955 718.588468 
L 921.5172 718.998151 
L 923.8725 720.39855 
L 925.05015 719.963136 
L 926.2278 717.926296 
L 927.40545 717.72134 
L 928.5831 717.872191 
L 929.76075 718.690507 
L 930.9384 717.163242 
L 932.11605 717.735258 
L 933.2937 718.056853 
L 934.47135 717.546785 
L 935.649 717.438415 
L 936.82665 717.842355 
L 939.18195 718.07937 
L 940.3596 718.909702 
L 941.53725 717.328382 
L 942.7149 717.034761 
L 945.0702 719.218555 
L 946.24785 717.889625 
L 947.4255 718.519484 
L 948.60315 716.79517 
L 949.7808 717.516879 
L 950.95845 718.52324 
L 952.1361 718.503482 
L 953.31375 718.957292 
L 955.66905 719.279274 
L 956.8467 720.116315 
L 958.02435 719.318873 
L 961.5573 719.288369 
L 962.73495 719.515266 
L 963.9126 718.944648 
L 965.09025 719.072931 
L 966.2679 718.408769 
L 967.44555 718.915222 
L 968.6232 717.636633 
L 969.80085 717.400233 
L 970.9785 717.926647 
L 972.15615 717.325975 
L 973.3338 716.233818 
L 974.51145 715.453757 
L 975.6891 716.615274 
L 976.86675 716.44836 
L 978.0444 716.766198 
L 979.22205 717.681823 
L 980.3997 717.701969 
L 981.57735 717.581634 
L 982.755 717.661975 
L 986.28795 719.113332 
L 987.4656 718.493014 
L 988.64325 717.659998 
L 989.8209 717.998401 
L 990.99855 718.04702 
L 992.1762 717.805423 
L 993.35385 718.095755 
L 994.5315 719.08114 
L 995.70915 718.194583 
L 996.8868 720.009651 
L 998.06445 719.412921 
L 999.2421 720.185427 
L 1000.41975 719.271192 
L 1001.5974 718.832423 
L 1002.77505 718.913403 
L 1003.9527 718.570835 
L 1005.13035 717.961527 
L 1006.308 718.532417 
L 1007.48565 718.857504 
L 1008.6633 718.561414 
L 1009.84095 719.7584 
L 1011.0186 718.420639 
L 1012.19625 719.06142 
L 1013.3739 719.242764 
L 1014.55155 717.600931 
L 1015.7292 716.940785 
L 1016.90685 717.911113 
L 1018.0845 717.895674 
L 1019.26215 718.579044 
L 1020.4398 719.587254 
L 1021.61745 718.650879 
L 1022.7951 718.147624 
L 1023.97275 718.466083 
L 1025.1504 717.759075 
L 1026.32805 717.595415 
L 1027.5057 718.153304 
L 1028.68335 718.183635 
L 1029.861 717.705313 
L 1031.03865 717.026897 
L 1032.2163 716.146486 
L 1033.39395 717.42444 
L 1034.5716 718.00207 
L 1035.74925 717.484901 
L 1036.9269 718.374135 
L 1039.2822 719.506663 
L 1040.45985 719.072627 
L 1042.81515 717.321452 
L 1043.9928 718.799414 
L 1045.17045 718.394335 
L 1046.3481 718.823793 
L 1048.7034 718.428384 
L 1049.88105 718.028884 
L 1051.0587 718.765169 
L 1052.23635 718.546302 
L 1053.414 719.829918 
L 1054.59165 718.364323 
L 1055.7693 718.172387 
L 1056.94695 718.417383 
L 1058.1246 719.360357 
L 1059.30225 719.416754 
L 1060.4799 719.280438 
L 1061.65755 719.784218 
L 1062.8352 718.282483 
L 1064.01285 718.701303 
L 1065.1905 718.293889 
L 1066.36815 718.112274 
L 1067.5458 718.098252 
L 1068.72345 717.605413 
L 1069.9011 717.243339 
L 1071.07875 717.340081 
L 1072.2564 718.023324 
L 1073.43405 717.206991 
L 1074.6117 717.663088 
L 1075.78935 718.248878 
L 1076.967 718.187871 
L 1078.14465 717.74447 
L 1079.3223 717.4331 
L 1080.49995 717.645803 
L 1081.6776 717.3755 
L 1082.85525 717.458164 
L 1084.0329 717.755229 
L 1085.21055 718.452794 
L 1086.3882 717.410171 
L 1087.56585 717.527611 
L 1088.7435 717.962306 
L 1089.92115 717.688299 
L 1091.0988 718.414296 
L 1094.63175 718.295188 
L 1095.8094 718.465016 
L 1096.98705 718.882751 
L 1098.1647 719.594055 
L 1099.34235 717.848309 
L 1100.52 717.632522 
L 1101.69765 717.818084 
L 1102.8753 718.275294 
L 1104.05295 719.784691 
L 1105.2306 719.672766 
L 1106.40825 718.586686 
L 1107.5859 719.317136 
L 1108.76355 718.250903 
L 1109.9412 719.030781 
L 1112.2965 716.493746 
L 1113.47415 715.882486 
L 1114.6518 716.996829 
L 1115.82945 716.614891 
L 1117.0071 716.787375 
L 1118.18475 717.420696 
L 1119.3624 716.999272 
L 1120.54005 716.839921 
L 1121.7177 717.255035 
L 1124.073 717.411731 
L 1125.25065 717.333535 
L 1126.4283 716.59122 
L 1128.7836 716.793917 
L 1129.96125 718.233922 
L 1131.1389 717.708795 
L 1132.31655 719.763901 
L 1133.4942 720.394258 
L 1134.67185 719.4172 
L 1135.8495 718.903863 
L 1138.2048 719.103282 
L 1139.38245 718.287849 
L 1140.5601 718.728381 
L 1141.73775 719.799755 
L 1142.9154 718.398948 
L 1144.09305 718.622372 
L 1145.2707 718.094421 
L 1146.44835 717.914847 
L 1147.626 718.302885 
L 1148.80365 717.579234 
L 1149.9813 719.231499 
L 1151.15895 718.169396 
L 1152.3366 718.744934 
L 1153.51425 718.316365 
L 1154.6919 719.025812 
L 1155.86955 718.518444 
L 1157.0472 719.268694 
L 1158.22485 717.544112 
L 1159.4025 717.993334 
L 1160.58015 719.283119 
L 1161.7578 719.888743 
L 1164.1131 719.344024 
L 1165.29075 719.571727 
L 1166.4684 720.940864 
L 1167.64605 720.621522 
L 1168.8237 718.84139 
L 1170.00135 718.388595 
L 1171.179 719.150493 
L 1172.35665 718.706416 
L 1173.5343 717.601485 
L 1174.71195 716.890476 
L 1175.8896 717.820069 
L 1177.06725 717.663401 
L 1178.2449 717.729227 
L 1179.42255 717.987178 
L 1180.6002 719.375498 
L 1182.9555 719.162155 
L 1184.13315 719.65246 
L 1185.3108 719.527188 
L 1186.48845 718.73746 
L 1187.6661 718.826158 
L 1188.84375 719.147574 
L 1191.19905 717.297731 
L 1192.3767 717.290686 
L 1193.55435 716.603133 
L 1194.732 716.996488 
L 1195.90965 717.584821 
L 1197.0873 717.061251 
L 1198.26495 718.057501 
L 1199.4426 717.64187 
L 1200.62025 718.343089 
L 1201.7979 718.599104 
L 1202.97555 720.434334 
L 1204.1532 720.779861 
L 1206.5085 717.980077 
L 1207.68615 717.623394 
L 1208.8638 718.421263 
L 1210.04145 718.276345 
L 1211.2191 719.327272 
L 1212.39675 718.202112 
L 1213.5744 718.90881 
L 1214.75205 718.836185 
L 1215.9297 719.264757 
L 1217.10735 718.580348 
L 1218.285 718.36918 
L 1219.46265 718.007801 
L 1220.6403 718.767058 
L 1221.81795 718.133372 
L 1222.9956 718.609203 
L 1224.17325 718.594508 
L 1226.52855 718.337464 
L 1227.7062 717.421696 
L 1228.88385 718.266859 
L 1230.0615 717.578071 
L 1231.23915 719.45226 
L 1232.4168 720.401296 
L 1233.59445 720.326685 
L 1234.7721 719.915974 
L 1235.94975 719.989015 
L 1237.1274 719.210822 
L 1238.30505 718.81301 
L 1239.4827 716.889878 
L 1240.66035 716.223792 
L 1241.838 717.247624 
L 1244.1933 715.987045 
L 1245.37095 716.585292 
L 1246.5486 717.928405 
L 1247.72625 716.472812 
L 1248.9039 716.777358 
L 1250.08155 717.548091 
L 1251.2592 717.41478 
L 1252.43685 716.821264 
L 1253.6145 716.486564 
L 1254.79215 717.464316 
L 1255.9698 717.53236 
L 1257.14745 717.957509 
L 1259.50275 717.556962 
L 1260.6804 717.832157 
L 1261.85805 717.61125 
L 1263.0357 719.119696 
L 1264.21335 719.177461 
L 1265.391 719.593383 
L 1266.56865 718.392695 
L 1267.7463 718.398315 
L 1268.92395 717.517544 
L 1270.1016 717.700291 
L 1271.27925 718.738951 
L 1272.4569 718.25095 
L 1273.63455 718.494819 
L 1274.8122 717.637024 
L 1275.98985 717.514359 
L 1277.1675 717.804911 
L 1278.34515 718.968548 
L 1279.5228 718.591213 
L 1280.70045 717.075681 
L 1283.05575 718.512941 
L 1285.41105 717.420915 
L 1286.5887 717.841851 
L 1287.76635 715.609002 
L 1288.944 715.809409 
L 1290.12165 716.718889 
L 1291.2993 717.326175 
L 1292.47695 717.745315 
L 1293.6546 718.432406 
L 1294.83225 717.810067 
L 1296.0099 718.156164 
L 1297.18755 718.351778 
L 1299.54285 718.087239 
L 1300.7205 718.75696 
L 1301.89815 719.196768 
L 1303.0758 720.237531 
L 1304.25345 718.832026 
L 1305.4311 718.195936 
L 1306.60875 717.366772 
L 1307.7864 718.6962 
L 1308.96405 717.882739 
L 1310.1417 718.177188 
L 1311.31935 717.601526 
L 1312.497 718.350497 
L 1313.67465 718.321958 
L 1314.8523 719.698253 
L 1316.02995 719.520494 
L 1317.2076 718.189798 
L 1318.38525 717.420597 
L 1319.5629 717.723074 
L 1320.74055 717.775922 
L 1321.9182 717.57452 
L 1323.09585 717.856468 
L 1324.2735 715.840371 
L 1325.45115 717.254119 
L 1326.6288 718.974608 
L 1327.80645 718.62357 
L 1330.16175 719.168534 
L 1333.6947 718.220507 
L 1334.87235 717.554421 
L 1336.05 717.554572 
L 1336.05 717.554572 
" style="fill:none;stroke:#0000ff;stroke-linecap:square;stroke-width:2.0;"/>
   </g>
   <g id="line2d_2">
    <path clip-path="url(#p20b07eab3c)" d="M 159.57765 126.667789 
L 161.93295 130.964878 
L 163.1106 133.97524 
L 166.64355 141.322 
L 168.99885 146.762523 
L 171.35415 152.649617 
L 172.5318 155.34996 
L 173.70945 157.069741 
L 177.2424 166.006785 
L 178.42005 170.091433 
L 179.5977 172.60219 
L 180.77535 176.610138 
L 181.953 178.672375 
L 185.48595 187.116739 
L 186.6636 189.561504 
L 187.84125 192.270955 
L 189.0189 194.162341 
L 192.55185 202.920984 
L 193.7295 206.826948 
L 194.90715 210.240497 
L 196.0848 212.908517 
L 197.26245 216.005957 
L 198.4401 218.310433 
L 199.61775 221.704211 
L 200.7954 223.986381 
L 201.97305 225.994279 
L 203.1507 229.696619 
L 204.32835 232.633566 
L 205.506 236.363356 
L 206.68365 239.608936 
L 207.8613 241.395285 
L 209.03895 243.619991 
L 211.39425 249.463546 
L 212.5719 251.226436 
L 213.74955 254.781922 
L 214.9272 257.119192 
L 216.10485 260.17408 
L 218.46015 267.001945 
L 220.81545 272.023632 
L 221.9931 275.244383 
L 224.3484 279.953422 
L 227.88135 287.648023 
L 229.059 290.539072 
L 231.4143 297.944741 
L 232.59195 300.265992 
L 238.4802 315.723461 
L 239.65785 317.727893 
L 240.8355 321.395369 
L 243.1908 328.097823 
L 244.36845 330.178292 
L 245.5461 334.156311 
L 246.72375 336.957334 
L 249.07905 341.698832 
L 250.2567 345.101269 
L 259.6779 367.706544 
L 260.85555 371.103475 
L 262.0332 373.262854 
L 264.3885 377.913773 
L 265.56615 381.855894 
L 267.92145 387.008614 
L 270.27675 392.589834 
L 271.4544 395.130749 
L 272.63205 398.143414 
L 276.165 405.690925 
L 277.34265 408.936453 
L 278.5203 411.561712 
L 279.69795 414.798961 
L 280.8756 416.732708 
L 282.05325 419.263916 
L 284.40855 425.666712 
L 286.76385 431.282611 
L 290.2968 438.984919 
L 291.47445 441.335429 
L 293.82975 446.770422 
L 295.0074 450.194801 
L 297.3627 456.24998 
L 298.54035 459.415789 
L 299.718 461.253516 
L 300.89565 463.997108 
L 302.0733 466.276833 
L 303.25095 469.480541 
L 304.4286 472.029416 
L 305.60625 474.953771 
L 306.7839 477.467975 
L 307.96155 480.527073 
L 309.1392 482.962535 
L 312.67215 491.178172 
L 313.8498 494.201155 
L 315.02745 496.412407 
L 316.2051 499.532437 
L 317.38275 501.887915 
L 318.5604 505.651494 
L 319.73805 508.711749 
L 322.09335 514.239385 
L 324.44865 519.640591 
L 325.6263 522.763006 
L 327.9816 528.288096 
L 329.15925 530.678131 
L 330.3369 533.675877 
L 332.6922 539.099221 
L 333.86985 542.580967 
L 335.0475 544.878891 
L 336.22515 546.222917 
L 337.4028 550.41055 
L 340.93575 556.77535 
L 342.1134 560.996147 
L 343.29105 563.624143 
L 345.64635 570.533367 
L 346.824 573.252351 
L 348.00165 576.310394 
L 351.5346 583.868327 
L 353.8899 588.378038 
L 355.06755 591.096521 
L 357.42285 597.91995 
L 358.6005 600.317855 
L 359.77815 603.090498 
L 362.13345 611.469712 
L 363.3111 614.029487 
L 364.48875 615.859169 
L 365.6664 619.577148 
L 366.84405 622.495473 
L 368.0217 625.755412 
L 370.377 630.114776 
L 371.55465 632.551381 
L 372.7323 635.909781 
L 373.90995 637.608225 
L 376.26525 642.312642 
L 377.4429 645.52737 
L 379.7982 649.766166 
L 380.97585 652.514193 
L 382.1535 655.709726 
L 384.5088 660.489225 
L 385.68645 663.638153 
L 386.8641 665.845438 
L 388.04175 669.155057 
L 390.39705 674.934906 
L 392.75235 680.15427 
L 393.93 683.084287 
L 395.10765 686.522427 
L 396.2853 688.420143 
L 397.46295 692.233986 
L 398.6406 694.623157 
L 399.81825 696.185461 
L 400.9959 698.216501 
L 403.3512 703.822272 
L 404.52885 705.997166 
L 405.7065 707.609224 
L 406.88415 710.08155 
L 408.0618 710.859082 
L 409.23945 712.748157 
L 410.4171 712.963174 
L 411.59475 713.570917 
L 412.7724 713.450923 
L 413.95005 714.728377 
L 415.1277 715.577963 
L 416.30535 715.576694 
L 417.483 716.396282 
L 419.8383 715.080772 
L 421.01595 716.665453 
L 422.1936 715.480465 
L 423.37125 716.351055 
L 424.5489 716.487245 
L 426.9042 717.996481 
L 428.08185 717.227341 
L 429.2595 716.965934 
L 430.43715 717.588309 
L 431.6148 716.765474 
L 433.9701 718.235103 
L 435.14775 717.764934 
L 436.3254 718.043592 
L 437.50305 717.316424 
L 438.6807 717.296204 
L 439.85835 717.712433 
L 441.036 717.347915 
L 442.21365 717.869702 
L 443.3913 717.488512 
L 444.56895 718.038782 
L 445.7466 716.802837 
L 446.92425 716.499165 
L 448.1019 716.725786 
L 449.27955 717.750941 
L 450.4572 718.375132 
L 451.63485 717.653404 
L 452.8125 717.234718 
L 455.1678 715.720156 
L 457.5231 717.409682 
L 458.70075 717.654584 
L 459.8784 717.113793 
L 461.05605 717.993702 
L 462.2337 718.580227 
L 463.41135 716.646811 
L 464.589 717.627223 
L 465.76665 717.558348 
L 466.9443 718.313448 
L 468.12195 719.407845 
L 469.2996 717.645259 
L 470.47725 717.388502 
L 471.6549 717.875423 
L 474.0102 716.791903 
L 475.18785 716.612454 
L 476.3655 716.887889 
L 478.7208 718.25641 
L 479.89845 718.032754 
L 481.0761 717.542135 
L 482.25375 718.898926 
L 483.4314 718.689852 
L 484.60905 718.813344 
L 485.7867 717.906363 
L 486.96435 716.440328 
L 488.142 717.305609 
L 489.31965 717.499337 
L 490.4973 718.194229 
L 491.67495 716.965695 
L 492.8526 718.317964 
L 494.03025 719.075854 
L 497.5632 718.420973 
L 498.74085 719.462266 
L 499.9185 719.167199 
L 501.09615 719.804499 
L 502.2738 718.349977 
L 503.45145 717.782272 
L 504.6291 718.114834 
L 505.80675 718.285422 
L 508.16205 717.559639 
L 509.3397 717.766418 
L 510.51735 717.223098 
L 511.695 717.555584 
L 512.87265 719.194885 
L 514.0503 718.635512 
L 515.22795 719.079726 
L 516.4056 719.387939 
L 517.58325 719.257028 
L 518.7609 719.543569 
L 519.93855 718.194663 
L 521.1162 718.910212 
L 522.29385 718.808975 
L 523.4715 719.477746 
L 524.64915 716.603546 
L 525.8268 718.070795 
L 527.00445 717.913982 
L 529.35975 718.396604 
L 530.5374 718.069878 
L 531.71505 718.126359 
L 532.8927 719.096068 
L 534.07035 718.884596 
L 535.248 717.696279 
L 536.42565 718.277167 
L 537.6033 719.917615 
L 538.78095 719.116317 
L 539.9586 719.370047 
L 541.13625 720.435692 
L 542.3139 719.991292 
L 544.6692 720.388031 
L 545.84685 718.372912 
L 548.20215 719.04656 
L 549.3798 719.430214 
L 550.55745 717.91361 
L 551.7351 717.640703 
L 552.91275 717.694626 
L 554.0904 718.359009 
L 555.26805 716.498046 
L 556.4457 716.370264 
L 557.62335 716.808838 
L 558.801 716.412719 
L 559.97865 716.329395 
L 561.1563 716.105905 
L 562.33395 717.378638 
L 563.5116 718.013582 
L 564.68925 718.891958 
L 565.8669 718.694526 
L 567.04455 719.575704 
L 568.2222 719.956648 
L 569.39985 718.722659 
L 570.5775 718.743639 
L 571.75515 717.992977 
L 572.9328 719.139165 
L 575.2881 720.126216 
L 576.46575 718.607113 
L 577.6434 717.896943 
L 579.9987 719.315518 
L 581.17635 718.484796 
L 582.354 718.163414 
L 583.53165 718.027415 
L 584.7093 718.025325 
L 585.88695 718.265152 
L 588.24225 719.810941 
L 589.4199 718.561369 
L 590.59755 717.636474 
L 591.7752 718.149665 
L 594.1305 717.86958 
L 595.30815 716.790542 
L 596.4858 718.219829 
L 597.66345 718.928919 
L 598.8411 718.580526 
L 600.01875 716.416219 
L 601.1964 716.562945 
L 602.37405 717.268414 
L 603.5517 716.636873 
L 604.72935 717.50247 
L 605.907 717.658338 
L 607.08465 718.514934 
L 608.2623 718.830434 
L 609.43995 718.510614 
L 610.6176 719.054301 
L 612.9729 718.61803 
L 614.15055 719.006428 
L 617.6835 718.111981 
L 620.0388 718.00132 
L 621.21645 717.337071 
L 622.3941 717.997192 
L 623.57175 717.973218 
L 624.7494 718.239913 
L 625.92705 717.433004 
L 628.28235 717.695538 
L 629.46 718.351495 
L 630.63765 719.269087 
L 631.8153 718.111672 
L 632.99295 718.212191 
L 634.1706 717.380361 
L 635.34825 717.703778 
L 636.5259 716.977948 
L 638.8812 718.1646 
L 640.05885 717.931805 
L 642.41415 718.254858 
L 643.5918 718.033958 
L 644.76945 717.060063 
L 645.9471 718.19352 
L 647.12475 718.119344 
L 649.48005 717.527832 
L 650.6577 718.069229 
L 653.013 718.151094 
L 654.19065 717.961048 
L 655.3683 717.967094 
L 656.54595 717.233033 
L 657.7236 717.785992 
L 658.90125 717.580333 
L 660.0789 718.199577 
L 661.25655 717.530329 
L 662.4342 717.032048 
L 663.61185 716.84457 
L 664.7895 716.912598 
L 665.96715 716.694736 
L 667.1448 717.874338 
L 668.32245 717.512974 
L 669.5001 717.967196 
L 671.8554 717.559464 
L 673.03305 718.355817 
L 674.2107 717.440909 
L 676.566 719.830573 
L 677.74365 719.731341 
L 678.9213 718.745674 
L 680.09895 717.924167 
L 682.45425 718.262844 
L 683.6319 718.578635 
L 684.80955 719.435315 
L 685.9872 718.022742 
L 687.16485 717.826513 
L 688.3425 718.811084 
L 689.52015 718.566408 
L 690.6978 718.017682 
L 691.87545 718.310177 
L 694.23075 717.82454 
L 695.4084 717.690111 
L 696.58605 716.784292 
L 697.7637 717.859235 
L 700.119 717.637343 
L 701.29665 717.420048 
L 702.4743 718.519623 
L 703.65195 718.656222 
L 704.8296 718.515163 
L 706.00725 718.592497 
L 707.1849 717.278532 
L 708.36255 716.839794 
L 709.5402 716.809967 
L 710.71785 716.457247 
L 711.8955 717.523514 
L 713.07315 718.980982 
L 714.2508 717.804427 
L 715.42845 719.168214 
L 716.6061 717.82505 
L 717.78375 717.494769 
L 718.9614 716.480885 
L 721.3167 717.820433 
L 722.49435 717.53512 
L 724.84965 717.569495 
L 726.0273 716.56389 
L 727.20495 716.796498 
L 728.3826 717.901849 
L 729.56025 718.55079 
L 730.7379 717.908921 
L 731.91555 717.091237 
L 733.0932 717.749734 
L 734.27085 717.362303 
L 736.62615 717.232748 
L 737.8038 716.753449 
L 738.98145 716.75033 
L 740.1591 716.512235 
L 741.33675 717.178113 
L 742.5144 716.141687 
L 743.69205 716.303099 
L 746.04735 717.027618 
L 747.225 717.669809 
L 748.40265 718.724158 
L 749.5803 718.558494 
L 750.75795 719.313843 
L 751.9356 717.205773 
L 753.11325 716.988775 
L 754.2909 717.680247 
L 755.46855 717.231009 
L 756.6462 718.308887 
L 759.0015 718.939684 
L 760.17915 718.320963 
L 762.53445 717.46731 
L 763.7121 717.623387 
L 764.88975 717.223884 
L 766.0674 718.307065 
L 767.24505 718.588468 
L 768.4227 717.72319 
L 769.60035 717.341593 
L 770.778 717.679166 
L 773.1333 717.251616 
L 774.31095 717.401157 
L 775.4886 717.425854 
L 776.66625 717.734115 
L 777.8439 718.372318 
L 779.02155 717.560571 
L 780.1992 717.311886 
L 781.37685 718.561735 
L 782.5545 718.754737 
L 783.73215 718.169122 
L 784.9098 717.817391 
L 786.08745 719.312926 
L 787.2651 718.678236 
L 788.44275 717.631396 
L 789.6204 717.9691 
L 790.79805 720.151425 
L 791.9757 718.462385 
L 793.15335 717.865758 
L 794.331 717.95803 
L 795.50865 718.713418 
L 796.6863 718.849293 
L 797.86395 718.734084 
L 800.21925 719.159289 
L 801.3969 719.8756 
L 802.57455 719.15669 
L 803.7522 719.702917 
L 804.92985 719.972714 
L 806.1075 719.035754 
L 807.28515 718.561535 
L 808.4628 718.346744 
L 809.64045 718.407501 
L 810.8181 718.922851 
L 811.99575 718.443519 
L 813.1734 718.923279 
L 814.35105 718.294734 
L 815.5287 716.840426 
L 816.70635 716.981053 
L 817.884 717.549414 
L 820.2393 717.378609 
L 821.41695 716.681605 
L 822.5946 717.986592 
L 823.77225 717.120035 
L 824.9499 718.045018 
L 826.12755 716.812102 
L 827.3052 716.585884 
L 829.6605 718.263628 
L 830.83815 718.226264 
L 832.0158 717.796371 
L 834.3711 718.210531 
L 835.54875 718.862022 
L 836.7264 718.723881 
L 839.0817 719.957888 
L 840.25935 718.835714 
L 841.437 718.28028 
L 842.61465 717.971412 
L 843.7923 716.183559 
L 844.96995 716.450571 
L 846.1476 715.527436 
L 847.32525 717.138933 
L 848.5029 718.224928 
L 849.68055 719.503777 
L 852.03585 716.919982 
L 853.2135 716.804832 
L 855.5688 716.090817 
L 857.9241 717.724688 
L 859.10175 716.990334 
L 860.2794 718.085098 
L 861.45705 718.382619 
L 862.6347 716.891675 
L 863.81235 716.479174 
L 864.99 715.697741 
L 866.16765 715.488442 
L 867.3453 715.607307 
L 868.52295 715.969619 
L 869.7006 715.860508 
L 870.87825 716.433046 
L 872.0559 716.839739 
L 873.23355 717.383959 
L 874.4112 718.499355 
L 875.58885 718.383558 
L 876.7665 719.478727 
L 877.94415 718.941588 
L 879.1218 719.097914 
L 880.29945 719.366767 
L 881.4771 718.717302 
L 882.65475 719.896136 
L 885.01005 718.434757 
L 887.36535 718.565049 
L 888.543 718.712646 
L 889.72065 718.973991 
L 890.8983 719.51936 
L 892.07595 718.466042 
L 893.2536 718.378198 
L 894.43125 718.783662 
L 895.6089 720.242232 
L 896.78655 718.480215 
L 897.9642 718.638066 
L 899.14185 719.964107 
L 900.3195 717.679143 
L 901.49715 718.265436 
L 902.6748 718.018146 
L 903.85245 716.605695 
L 905.0301 717.043165 
L 906.20775 715.834641 
L 907.3854 716.481993 
L 908.56305 715.805417 
L 909.7407 716.337459 
L 910.91835 716.595569 
L 912.096 718.740141 
L 914.4513 717.845531 
L 915.62895 718.580443 
L 916.8066 717.601266 
L 917.98425 718.179203 
L 919.1619 717.906296 
L 920.33955 717.831921 
L 921.5172 718.718742 
L 922.69485 718.744345 
L 923.8725 718.581619 
L 925.05015 717.466125 
L 927.40545 716.51143 
L 928.5831 714.625585 
L 929.76075 716.630572 
L 930.9384 716.117832 
L 932.11605 716.05315 
L 933.2937 715.156438 
L 934.47135 716.47415 
L 935.649 717.187343 
L 936.82665 716.905542 
L 938.0043 716.061638 
L 939.18195 716.015155 
L 940.3596 717.292221 
L 941.53725 716.852422 
L 942.7149 717.247365 
L 943.89255 715.995323 
L 945.0702 715.889643 
L 946.24785 717.457014 
L 948.60315 718.158307 
L 949.7808 717.496442 
L 950.95845 719.14602 
L 952.1361 716.824545 
L 953.31375 717.539095 
L 954.4914 717.215446 
L 955.66905 717.679729 
L 958.02435 717.653503 
L 959.202 716.871632 
L 960.37965 718.285206 
L 961.5573 716.642088 
L 962.73495 716.446765 
L 965.09025 717.428392 
L 966.2679 717.380269 
L 967.44555 716.753361 
L 968.6232 716.984934 
L 969.80085 717.821708 
L 970.9785 717.487618 
L 972.15615 718.414711 
L 973.3338 718.237124 
L 976.86675 719.125669 
L 978.0444 719.185895 
L 980.3997 718.099697 
L 981.57735 717.009384 
L 982.755 717.439218 
L 983.93265 718.579509 
L 985.1103 717.556895 
L 986.28795 718.136545 
L 987.4656 718.049083 
L 988.64325 717.638269 
L 989.8209 716.790884 
L 990.99855 716.819537 
L 992.1762 718.430087 
L 993.35385 718.41039 
L 994.5315 718.608236 
L 995.70915 717.103745 
L 996.8868 718.461146 
L 999.2421 718.832225 
L 1000.41975 719.734416 
L 1001.5974 718.491857 
L 1003.9527 719.035762 
L 1005.13035 718.934672 
L 1006.308 717.795676 
L 1007.48565 717.175056 
L 1008.6633 718.284208 
L 1009.84095 718.463027 
L 1011.0186 718.456067 
L 1012.19625 717.026536 
L 1013.3739 716.644056 
L 1014.55155 716.700967 
L 1015.7292 717.178435 
L 1016.90685 719.01888 
L 1018.0845 719.197763 
L 1019.26215 718.333879 
L 1020.4398 717.075041 
L 1021.61745 718.232548 
L 1022.7951 718.102704 
L 1023.97275 718.168192 
L 1025.1504 716.748663 
L 1026.32805 717.678481 
L 1028.68335 717.492343 
L 1029.861 717.369615 
L 1031.03865 717.885909 
L 1032.2163 718.964199 
L 1033.39395 718.520153 
L 1035.74925 716.426599 
L 1036.9269 717.484314 
L 1039.2822 718.417758 
L 1040.45985 717.477278 
L 1041.6375 717.740589 
L 1043.9928 717.641952 
L 1046.3481 718.576189 
L 1047.52575 718.662569 
L 1048.7034 718.565136 
L 1049.88105 719.059019 
L 1051.0587 717.651905 
L 1052.23635 717.185773 
L 1053.414 716.940105 
L 1054.59165 717.544485 
L 1055.7693 717.494352 
L 1056.94695 718.628542 
L 1058.1246 719.557082 
L 1059.30225 717.523206 
L 1060.4799 717.554115 
L 1061.65755 717.768092 
L 1062.8352 718.407987 
L 1064.01285 718.244293 
L 1065.1905 717.776043 
L 1066.36815 716.66894 
L 1067.5458 716.841906 
L 1068.72345 716.52328 
L 1069.9011 716.903743 
L 1071.07875 717.707543 
L 1072.2564 718.705365 
L 1073.43405 719.905627 
L 1074.6117 720.094632 
L 1075.78935 719.773856 
L 1076.967 719.086378 
L 1078.14465 718.634268 
L 1079.3223 716.856454 
L 1080.49995 717.184617 
L 1081.6776 717.712611 
L 1082.85525 719.021076 
L 1084.0329 719.083284 
L 1086.3882 717.533031 
L 1088.7435 717.117612 
L 1089.92115 717.127671 
L 1091.0988 717.774181 
L 1092.27645 717.694814 
L 1093.4541 716.255588 
L 1094.63175 715.443653 
L 1096.98705 717.65744 
L 1098.1647 716.814658 
L 1099.34235 718.309151 
L 1100.52 717.84057 
L 1101.69765 717.924423 
L 1102.8753 719.161007 
L 1104.05295 720.191561 
L 1105.2306 718.571575 
L 1106.40825 718.914676 
L 1107.5859 717.663745 
L 1108.76355 719.641032 
L 1109.9412 720.487358 
L 1111.11885 720.387025 
L 1112.2965 719.388031 
L 1114.6518 717.952167 
L 1115.82945 719.658931 
L 1117.0071 720.630182 
L 1118.18475 719.192328 
L 1119.3624 719.298377 
L 1120.54005 719.68163 
L 1122.89535 718.428284 
L 1124.073 718.236924 
L 1125.25065 717.353073 
L 1126.4283 717.677049 
L 1127.60595 718.689281 
L 1128.7836 718.959342 
L 1129.96125 717.70212 
L 1131.1389 718.012926 
L 1132.31655 717.717048 
L 1133.4942 717.986101 
L 1134.67185 717.623042 
L 1135.8495 718.243881 
L 1137.02715 717.660539 
L 1138.2048 719.003358 
L 1139.38245 718.988157 
L 1141.73775 717.98378 
L 1142.9154 718.435181 
L 1144.09305 717.714203 
L 1145.2707 717.902776 
L 1146.44835 718.903757 
L 1147.626 718.619952 
L 1148.80365 718.106435 
L 1149.9813 718.048219 
L 1152.3366 718.406244 
L 1153.51425 718.90327 
L 1154.6919 718.499966 
L 1155.86955 717.907497 
L 1157.0472 717.102283 
L 1158.22485 716.653517 
L 1160.58015 716.56302 
L 1161.7578 716.600434 
L 1162.93545 718.478286 
L 1165.29075 720.468198 
L 1166.4684 719.336698 
L 1167.64605 720.486845 
L 1168.8237 719.533494 
L 1170.00135 718.90859 
L 1171.179 718.956992 
L 1173.5343 718.541855 
L 1174.71195 718.846528 
L 1175.8896 719.383753 
L 1177.06725 718.194996 
L 1178.2449 717.295953 
L 1179.42255 717.892406 
L 1180.6002 717.965417 
L 1181.77785 717.855327 
L 1182.9555 719.331703 
L 1185.3108 719.813708 
L 1187.6661 719.745016 
L 1188.84375 719.893303 
L 1190.0214 719.035941 
L 1191.19905 718.451311 
L 1192.3767 718.446588 
L 1193.55435 717.400084 
L 1194.732 717.494599 
L 1197.0873 718.288047 
L 1198.26495 718.078627 
L 1199.4426 718.515294 
L 1200.62025 717.747878 
L 1201.7979 716.743119 
L 1202.97555 716.793803 
L 1205.33085 718.445843 
L 1207.68615 718.825951 
L 1208.8638 719.939006 
L 1210.04145 720.117565 
L 1211.2191 720.676819 
L 1212.39675 720.156374 
L 1213.5744 719.940642 
L 1214.75205 720.299669 
L 1215.9297 720.230341 
L 1217.10735 719.793883 
L 1218.285 719.138149 
L 1219.46265 718.213297 
L 1220.6403 717.874631 
L 1221.81795 717.867364 
L 1222.9956 718.711541 
L 1224.17325 718.053681 
L 1225.3509 718.010092 
L 1226.52855 718.977038 
L 1227.7062 717.862968 
L 1228.88385 718.569596 
L 1230.0615 718.685579 
L 1231.23915 719.416775 
L 1232.4168 720.693705 
L 1233.59445 720.964686 
L 1234.7721 720.552309 
L 1235.94975 716.94492 
L 1237.1274 718.398893 
L 1238.30505 718.53119 
L 1239.4827 717.83517 
L 1240.66035 718.334566 
L 1241.838 719.032315 
L 1243.01565 718.359418 
L 1244.1933 718.792885 
L 1245.37095 718.868095 
L 1246.5486 719.173517 
L 1247.72625 719.903984 
L 1248.9039 718.703462 
L 1250.08155 719.66844 
L 1251.2592 719.690245 
L 1252.43685 719.194596 
L 1253.6145 718.33049 
L 1254.79215 717.079588 
L 1255.9698 717.67495 
L 1257.14745 717.241407 
L 1258.3251 717.804683 
L 1259.50275 717.243177 
L 1260.6804 716.416826 
L 1261.85805 717.660359 
L 1263.0357 717.254213 
L 1264.21335 717.163268 
L 1265.391 716.357036 
L 1266.56865 716.770254 
L 1267.7463 716.924335 
L 1268.92395 716.870075 
L 1270.1016 717.011487 
L 1271.27925 717.574584 
L 1272.4569 716.582111 
L 1273.63455 714.373573 
L 1274.8122 714.233513 
L 1275.98985 714.685203 
L 1277.1675 716.215729 
L 1278.34515 716.926533 
L 1279.5228 718.118921 
L 1280.70045 718.094324 
L 1281.8781 718.658378 
L 1283.05575 718.206059 
L 1284.2334 718.224874 
L 1285.41105 718.104186 
L 1286.5887 717.850332 
L 1287.76635 719.790709 
L 1290.12165 718.570544 
L 1291.2993 718.33653 
L 1292.47695 719.381447 
L 1293.6546 720.202537 
L 1294.83225 719.360535 
L 1296.0099 719.186053 
L 1297.18755 718.656676 
L 1298.3652 718.725243 
L 1299.54285 718.632628 
L 1300.7205 717.097674 
L 1301.89815 717.586349 
L 1303.0758 718.981952 
L 1304.25345 718.778105 
L 1306.60875 717.206212 
L 1307.7864 716.72913 
L 1308.96405 717.894601 
L 1310.1417 718.227303 
L 1311.31935 717.746336 
L 1312.497 719.276455 
L 1313.67465 718.890516 
L 1314.8523 718.728635 
L 1316.02995 718.804143 
L 1317.2076 719.217156 
L 1318.38525 718.042696 
L 1319.5629 720.332716 
L 1320.74055 718.986738 
L 1321.9182 718.974826 
L 1323.09585 718.842664 
L 1325.45115 718.060639 
L 1326.6288 718.161096 
L 1327.80645 718.4548 
L 1328.9841 719.46096 
L 1330.16175 718.489574 
L 1331.3394 718.271143 
L 1332.51705 719.489599 
L 1333.6947 718.690342 
L 1334.87235 718.557592 
L 1336.05 718.990615 
L 1336.05 718.990615 
" style="fill:none;stroke:#008000;stroke-dasharray:6.000000,6.000000;stroke-dashoffset:0.0;stroke-width:2.0;"/>
   </g>
   <g id="patch_3">
    <path d="M 158.4 51.3 
L 1336.05 51.3 
" style="fill:none;stroke:#000000;stroke-linecap:square;stroke-linejoin:miter;"/>
   </g>
   <g id="patch_4">
    <path d="M 1336.05 747 
L 1336.05 51.3 
" style="fill:none;stroke:#000000;stroke-linecap:square;stroke-linejoin:miter;"/>
   </g>
   <g id="patch_5">
    <path d="M 158.4 747 
L 1336.05 747 
" style="fill:none;stroke:#000000;stroke-linecap:square;stroke-linejoin:miter;"/>
   </g>
   <g id="patch_6">
    <path d="M 158.4 747 
L 158.4 51.3 
" style="fill:none;stroke:#000000;stroke-linecap:square;stroke-linejoin:miter;"/>
   </g>
   <g id="matplotlib.axis_1">
    <g id="xtick_1">
     <g id="line2d_3">
      <defs>
       <path d="M 0 0 
L 0 -4 
" id="m1efe849bee" style="stroke:#000000;stroke-width:0.5;"/>
      </defs>
      <g>
       <use style="stroke:#000000;stroke-width:0.5;" x="158.4" xlink:href="#m1efe849bee" y="747.0"/>
      </g>
     </g>
     <g id="line2d_4">
      <defs>
       <path d="M 0 0 
L 0 4 
" id="me83b0d8136" style="stroke:#000000;stroke-width:0.5;"/>
      </defs>
      <g>
       <use style="stroke:#000000;stroke-width:0.5;" x="158.4" xlink:href="#me83b0d8136" y="51.3"/>
      </g>
     </g>
     <g id="text_1">
      <!-- 0 -->
      <defs>
       <path d="M 31.78125 66.40625 
Q 24.171875 66.40625 20.328125 58.90625 
Q 16.5 51.421875 16.5 36.375 
Q 16.5 21.390625 20.328125 13.890625 
Q 24.171875 6.390625 31.78125 6.390625 
Q 39.453125 6.390625 43.28125 13.890625 
Q 47.125 21.390625 47.125 36.375 
Q 47.125 51.421875 43.28125 58.90625 
Q 39.453125 66.40625 31.78125 66.40625 
M 31.78125 74.21875 
Q 44.046875 74.21875 50.515625 64.515625 
Q 56.984375 54.828125 56.984375 36.375 
Q 56.984375 17.96875 50.515625 8.265625 
Q 44.046875 -1.421875 31.78125 -1.421875 
Q 19.53125 -1.421875 13.0625 8.265625 
Q 6.59375 17.96875 6.59375 36.375 
Q 6.59375 54.828125 13.0625 64.515625 
Q 19.53125 74.21875 31.78125 74.21875 
" id="BitstreamVeraSans-Roman-30"/>
      </defs>
      <g transform="translate(148.85625 773.7953125)scale(0.3 -0.3)">
       <use xlink:href="#BitstreamVeraSans-Roman-30"/>
      </g>
     </g>
    </g>
    <g id="xtick_2">
     <g id="line2d_5">
      <g>
       <use style="stroke:#000000;stroke-width:0.5;" x="393.93" xlink:href="#m1efe849bee" y="747.0"/>
      </g>
     </g>
     <g id="line2d_6">
      <g>
       <use style="stroke:#000000;stroke-width:0.5;" x="393.93" xlink:href="#me83b0d8136" y="51.3"/>
      </g>
     </g>
     <g id="text_2">
      <!-- 20000 -->
      <defs>
       <path d="M 19.1875 8.296875 
L 53.609375 8.296875 
L 53.609375 0 
L 7.328125 0 
L 7.328125 8.296875 
Q 12.9375 14.109375 22.625 23.890625 
Q 32.328125 33.6875 34.8125 36.53125 
Q 39.546875 41.84375 41.421875 45.53125 
Q 43.3125 49.21875 43.3125 52.78125 
Q 43.3125 58.59375 39.234375 62.25 
Q 35.15625 65.921875 28.609375 65.921875 
Q 23.96875 65.921875 18.8125 64.3125 
Q 13.671875 62.703125 7.8125 59.421875 
L 7.8125 69.390625 
Q 13.765625 71.78125 18.9375 73 
Q 24.125 74.21875 28.421875 74.21875 
Q 39.75 74.21875 46.484375 68.546875 
Q 53.21875 62.890625 53.21875 53.421875 
Q 53.21875 48.921875 51.53125 44.890625 
Q 49.859375 40.875 45.40625 35.40625 
Q 44.1875 33.984375 37.640625 27.21875 
Q 31.109375 20.453125 19.1875 8.296875 
" id="BitstreamVeraSans-Roman-32"/>
      </defs>
      <g transform="translate(346.21125 773.7953125)scale(0.3 -0.3)">
       <use xlink:href="#BitstreamVeraSans-Roman-32"/>
       <use x="63.623046875" xlink:href="#BitstreamVeraSans-Roman-30"/>
       <use x="127.24609375" xlink:href="#BitstreamVeraSans-Roman-30"/>
       <use x="190.869140625" xlink:href="#BitstreamVeraSans-Roman-30"/>
       <use x="254.4921875" xlink:href="#BitstreamVeraSans-Roman-30"/>
      </g>
     </g>
    </g>
    <g id="xtick_3">
     <g id="line2d_7">
      <g>
       <use style="stroke:#000000;stroke-width:0.5;" x="629.46" xlink:href="#m1efe849bee" y="747.0"/>
      </g>
     </g>
     <g id="line2d_8">
      <g>
       <use style="stroke:#000000;stroke-width:0.5;" x="629.46" xlink:href="#me83b0d8136" y="51.3"/>
      </g>
     </g>
     <g id="text_3">
      <!-- 40000 -->
      <defs>
       <path d="M 37.796875 64.3125 
L 12.890625 25.390625 
L 37.796875 25.390625 
z
M 35.203125 72.90625 
L 47.609375 72.90625 
L 47.609375 25.390625 
L 58.015625 25.390625 
L 58.015625 17.1875 
L 47.609375 17.1875 
L 47.609375 0 
L 37.796875 0 
L 37.796875 17.1875 
L 4.890625 17.1875 
L 4.890625 26.703125 
z
" id="BitstreamVeraSans-Roman-34"/>
      </defs>
      <g transform="translate(581.74125 773.7953125)scale(0.3 -0.3)">
       <use xlink:href="#BitstreamVeraSans-Roman-34"/>
       <use x="63.623046875" xlink:href="#BitstreamVeraSans-Roman-30"/>
       <use x="127.24609375" xlink:href="#BitstreamVeraSans-Roman-30"/>
       <use x="190.869140625" xlink:href="#BitstreamVeraSans-Roman-30"/>
       <use x="254.4921875" xlink:href="#BitstreamVeraSans-Roman-30"/>
      </g>
     </g>
    </g>
    <g id="xtick_4">
     <g id="line2d_9">
      <g>
       <use style="stroke:#000000;stroke-width:0.5;" x="864.99" xlink:href="#m1efe849bee" y="747.0"/>
      </g>
     </g>
     <g id="line2d_10">
      <g>
       <use style="stroke:#000000;stroke-width:0.5;" x="864.99" xlink:href="#me83b0d8136" y="51.3"/>
      </g>
     </g>
     <g id="text_4">
      <!-- 60000 -->
      <defs>
       <path d="M 33.015625 40.375 
Q 26.375 40.375 22.484375 35.828125 
Q 18.609375 31.296875 18.609375 23.390625 
Q 18.609375 15.53125 22.484375 10.953125 
Q 26.375 6.390625 33.015625 6.390625 
Q 39.65625 6.390625 43.53125 10.953125 
Q 47.40625 15.53125 47.40625 23.390625 
Q 47.40625 31.296875 43.53125 35.828125 
Q 39.65625 40.375 33.015625 40.375 
M 52.59375 71.296875 
L 52.59375 62.3125 
Q 48.875 64.0625 45.09375 64.984375 
Q 41.3125 65.921875 37.59375 65.921875 
Q 27.828125 65.921875 22.671875 59.328125 
Q 17.53125 52.734375 16.796875 39.40625 
Q 19.671875 43.65625 24.015625 45.921875 
Q 28.375 48.1875 33.59375 48.1875 
Q 44.578125 48.1875 50.953125 41.515625 
Q 57.328125 34.859375 57.328125 23.390625 
Q 57.328125 12.15625 50.6875 5.359375 
Q 44.046875 -1.421875 33.015625 -1.421875 
Q 20.359375 -1.421875 13.671875 8.265625 
Q 6.984375 17.96875 6.984375 36.375 
Q 6.984375 53.65625 15.1875 63.9375 
Q 23.390625 74.21875 37.203125 74.21875 
Q 40.921875 74.21875 44.703125 73.484375 
Q 48.484375 72.75 52.59375 71.296875 
" id="BitstreamVeraSans-Roman-36"/>
      </defs>
      <g transform="translate(817.27125 773.7953125)scale(0.3 -0.3)">
       <use xlink:href="#BitstreamVeraSans-Roman-36"/>
       <use x="63.623046875" xlink:href="#BitstreamVeraSans-Roman-30"/>
       <use x="127.24609375" xlink:href="#BitstreamVeraSans-Roman-30"/>
       <use x="190.869140625" xlink:href="#BitstreamVeraSans-Roman-30"/>
       <use x="254.4921875" xlink:href="#BitstreamVeraSans-Roman-30"/>
      </g>
     </g>
    </g>
    <g id="xtick_5">
     <g id="line2d_11">
      <g>
       <use style="stroke:#000000;stroke-width:0.5;" x="1100.52" xlink:href="#m1efe849bee" y="747.0"/>
      </g>
     </g>
     <g id="line2d_12">
      <g>
       <use style="stroke:#000000;stroke-width:0.5;" x="1100.52" xlink:href="#me83b0d8136" y="51.3"/>
      </g>
     </g>
     <g id="text_5">
      <!-- 80000 -->
      <defs>
       <path d="M 31.78125 34.625 
Q 24.75 34.625 20.71875 30.859375 
Q 16.703125 27.09375 16.703125 20.515625 
Q 16.703125 13.921875 20.71875 10.15625 
Q 24.75 6.390625 31.78125 6.390625 
Q 38.8125 6.390625 42.859375 10.171875 
Q 46.921875 13.96875 46.921875 20.515625 
Q 46.921875 27.09375 42.890625 30.859375 
Q 38.875 34.625 31.78125 34.625 
M 21.921875 38.8125 
Q 15.578125 40.375 12.03125 44.71875 
Q 8.5 49.078125 8.5 55.328125 
Q 8.5 64.0625 14.71875 69.140625 
Q 20.953125 74.21875 31.78125 74.21875 
Q 42.671875 74.21875 48.875 69.140625 
Q 55.078125 64.0625 55.078125 55.328125 
Q 55.078125 49.078125 51.53125 44.71875 
Q 48 40.375 41.703125 38.8125 
Q 48.828125 37.15625 52.796875 32.3125 
Q 56.78125 27.484375 56.78125 20.515625 
Q 56.78125 9.90625 50.3125 4.234375 
Q 43.84375 -1.421875 31.78125 -1.421875 
Q 19.734375 -1.421875 13.25 4.234375 
Q 6.78125 9.90625 6.78125 20.515625 
Q 6.78125 27.484375 10.78125 32.3125 
Q 14.796875 37.15625 21.921875 38.8125 
M 18.3125 54.390625 
Q 18.3125 48.734375 21.84375 45.5625 
Q 25.390625 42.390625 31.78125 42.390625 
Q 38.140625 42.390625 41.71875 45.5625 
Q 45.3125 48.734375 45.3125 54.390625 
Q 45.3125 60.0625 41.71875 63.234375 
Q 38.140625 66.40625 31.78125 66.40625 
Q 25.390625 66.40625 21.84375 63.234375 
Q 18.3125 60.0625 18.3125 54.390625 
" id="BitstreamVeraSans-Roman-38"/>
      </defs>
      <g transform="translate(1052.80125 773.7953125)scale(0.3 -0.3)">
       <use xlink:href="#BitstreamVeraSans-Roman-38"/>
       <use x="63.623046875" xlink:href="#BitstreamVeraSans-Roman-30"/>
       <use x="127.24609375" xlink:href="#BitstreamVeraSans-Roman-30"/>
       <use x="190.869140625" xlink:href="#BitstreamVeraSans-Roman-30"/>
       <use x="254.4921875" xlink:href="#BitstreamVeraSans-Roman-30"/>
      </g>
     </g>
    </g>
    <g id="xtick_6">
     <g id="line2d_13">
      <g>
       <use style="stroke:#000000;stroke-width:0.5;" x="1336.05" xlink:href="#m1efe849bee" y="747.0"/>
      </g>
     </g>
     <g id="line2d_14">
      <g>
       <use style="stroke:#000000;stroke-width:0.5;" x="1336.05" xlink:href="#me83b0d8136" y="51.3"/>
      </g>
     </g>
     <g id="text_6">
      <!-- 100000 -->
      <defs>
       <path d="M 12.40625 8.296875 
L 28.515625 8.296875 
L 28.515625 63.921875 
L 10.984375 60.40625 
L 10.984375 69.390625 
L 28.421875 72.90625 
L 38.28125 72.90625 
L 38.28125 8.296875 
L 54.390625 8.296875 
L 54.390625 0 
L 12.40625 0 
z
" id="BitstreamVeraSans-Roman-31"/>
      </defs>
      <g transform="translate(1278.7875 773.7953125)scale(0.3 -0.3)">
       <use xlink:href="#BitstreamVeraSans-Roman-31"/>
       <use x="63.623046875" xlink:href="#BitstreamVeraSans-Roman-30"/>
       <use x="127.24609375" xlink:href="#BitstreamVeraSans-Roman-30"/>
       <use x="190.869140625" xlink:href="#BitstreamVeraSans-Roman-30"/>
       <use x="254.4921875" xlink:href="#BitstreamVeraSans-Roman-30"/>
       <use x="318.115234375" xlink:href="#BitstreamVeraSans-Roman-30"/>
      </g>
     </g>
    </g>
    <g id="text_7">
     <!-- iterations -->
     <defs>
      <path d="M 54.890625 33.015625 
L 54.890625 0 
L 45.90625 0 
L 45.90625 32.71875 
Q 45.90625 40.484375 42.875 44.328125 
Q 39.84375 48.1875 33.796875 48.1875 
Q 26.515625 48.1875 22.3125 43.546875 
Q 18.109375 38.921875 18.109375 30.90625 
L 18.109375 0 
L 9.078125 0 
L 9.078125 54.6875 
L 18.109375 54.6875 
L 18.109375 46.1875 
Q 21.34375 51.125 25.703125 53.5625 
Q 30.078125 56 35.796875 56 
Q 45.21875 56 50.046875 50.171875 
Q 54.890625 44.34375 54.890625 33.015625 
" id="BitstreamVeraSans-Roman-6e"/>
      <path d="M 34.28125 27.484375 
Q 23.390625 27.484375 19.1875 25 
Q 14.984375 22.515625 14.984375 16.5 
Q 14.984375 11.71875 18.140625 8.90625 
Q 21.296875 6.109375 26.703125 6.109375 
Q 34.1875 6.109375 38.703125 11.40625 
Q 43.21875 16.703125 43.21875 25.484375 
L 43.21875 27.484375 
z
M 52.203125 31.203125 
L 52.203125 0 
L 43.21875 0 
L 43.21875 8.296875 
Q 40.140625 3.328125 35.546875 0.953125 
Q 30.953125 -1.421875 24.3125 -1.421875 
Q 15.921875 -1.421875 10.953125 3.296875 
Q 6 8.015625 6 15.921875 
Q 6 25.140625 12.171875 29.828125 
Q 18.359375 34.515625 30.609375 34.515625 
L 43.21875 34.515625 
L 43.21875 35.40625 
Q 43.21875 41.609375 39.140625 45 
Q 35.0625 48.390625 27.6875 48.390625 
Q 23 48.390625 18.546875 47.265625 
Q 14.109375 46.140625 10.015625 43.890625 
L 10.015625 52.203125 
Q 14.9375 54.109375 19.578125 55.046875 
Q 24.21875 56 28.609375 56 
Q 40.484375 56 46.34375 49.84375 
Q 52.203125 43.703125 52.203125 31.203125 
" id="BitstreamVeraSans-Roman-61"/>
      <path d="M 30.609375 48.390625 
Q 23.390625 48.390625 19.1875 42.75 
Q 14.984375 37.109375 14.984375 27.296875 
Q 14.984375 17.484375 19.15625 11.84375 
Q 23.34375 6.203125 30.609375 6.203125 
Q 37.796875 6.203125 41.984375 11.859375 
Q 46.1875 17.53125 46.1875 27.296875 
Q 46.1875 37.015625 41.984375 42.703125 
Q 37.796875 48.390625 30.609375 48.390625 
M 30.609375 56 
Q 42.328125 56 49.015625 48.375 
Q 55.71875 40.765625 55.71875 27.296875 
Q 55.71875 13.875 49.015625 6.21875 
Q 42.328125 -1.421875 30.609375 -1.421875 
Q 18.84375 -1.421875 12.171875 6.21875 
Q 5.515625 13.875 5.515625 27.296875 
Q 5.515625 40.765625 12.171875 48.375 
Q 18.84375 56 30.609375 56 
" id="BitstreamVeraSans-Roman-6f"/>
      <path d="M 9.421875 54.6875 
L 18.40625 54.6875 
L 18.40625 0 
L 9.421875 0 
z
M 9.421875 75.984375 
L 18.40625 75.984375 
L 18.40625 64.59375 
L 9.421875 64.59375 
z
" id="BitstreamVeraSans-Roman-69"/>
      <path d="M 56.203125 29.59375 
L 56.203125 25.203125 
L 14.890625 25.203125 
Q 15.484375 15.921875 20.484375 11.0625 
Q 25.484375 6.203125 34.421875 6.203125 
Q 39.59375 6.203125 44.453125 7.46875 
Q 49.3125 8.734375 54.109375 11.28125 
L 54.109375 2.78125 
Q 49.265625 0.734375 44.1875 -0.34375 
Q 39.109375 -1.421875 33.890625 -1.421875 
Q 20.796875 -1.421875 13.15625 6.1875 
Q 5.515625 13.8125 5.515625 26.8125 
Q 5.515625 40.234375 12.765625 48.109375 
Q 20.015625 56 32.328125 56 
Q 43.359375 56 49.78125 48.890625 
Q 56.203125 41.796875 56.203125 29.59375 
M 47.21875 32.234375 
Q 47.125 39.59375 43.09375 43.984375 
Q 39.0625 48.390625 32.421875 48.390625 
Q 24.90625 48.390625 20.390625 44.140625 
Q 15.875 39.890625 15.1875 32.171875 
z
" id="BitstreamVeraSans-Roman-65"/>
      <path d="M 18.3125 70.21875 
L 18.3125 54.6875 
L 36.8125 54.6875 
L 36.8125 47.703125 
L 18.3125 47.703125 
L 18.3125 18.015625 
Q 18.3125 11.328125 20.140625 9.421875 
Q 21.96875 7.515625 27.59375 7.515625 
L 36.8125 7.515625 
L 36.8125 0 
L 27.59375 0 
Q 17.1875 0 13.234375 3.875 
Q 9.28125 7.765625 9.28125 18.015625 
L 9.28125 47.703125 
L 2.6875 47.703125 
L 2.6875 54.6875 
L 9.28125 54.6875 
L 9.28125 70.21875 
z
" id="BitstreamVeraSans-Roman-74"/>
      <path d="M 41.109375 46.296875 
Q 39.59375 47.171875 37.8125 47.578125 
Q 36.03125 48 33.890625 48 
Q 26.265625 48 22.1875 43.046875 
Q 18.109375 38.09375 18.109375 28.8125 
L 18.109375 0 
L 9.078125 0 
L 9.078125 54.6875 
L 18.109375 54.6875 
L 18.109375 46.1875 
Q 20.953125 51.171875 25.484375 53.578125 
Q 30.03125 56 36.53125 56 
Q 37.453125 56 38.578125 55.875 
Q 39.703125 55.765625 41.0625 55.515625 
z
" id="BitstreamVeraSans-Roman-72"/>
      <path d="M 44.28125 53.078125 
L 44.28125 44.578125 
Q 40.484375 46.53125 36.375 47.5 
Q 32.28125 48.484375 27.875 48.484375 
Q 21.1875 48.484375 17.84375 46.4375 
Q 14.5 44.390625 14.5 40.28125 
Q 14.5 37.15625 16.890625 35.375 
Q 19.28125 33.59375 26.515625 31.984375 
L 29.59375 31.296875 
Q 39.15625 29.25 43.1875 25.515625 
Q 47.21875 21.78125 47.21875 15.09375 
Q 47.21875 7.46875 41.1875 3.015625 
Q 35.15625 -1.421875 24.609375 -1.421875 
Q 20.21875 -1.421875 15.453125 -0.5625 
Q 10.6875 0.296875 5.421875 2 
L 5.421875 11.28125 
Q 10.40625 8.6875 15.234375 7.390625 
Q 20.0625 6.109375 24.8125 6.109375 
Q 31.15625 6.109375 34.5625 8.28125 
Q 37.984375 10.453125 37.984375 14.40625 
Q 37.984375 18.0625 35.515625 20.015625 
Q 33.0625 21.96875 24.703125 23.78125 
L 21.578125 24.515625 
Q 13.234375 26.265625 9.515625 29.90625 
Q 5.8125 33.546875 5.8125 39.890625 
Q 5.8125 47.609375 11.28125 51.796875 
Q 16.75 56 26.8125 56 
Q 31.78125 56 36.171875 55.265625 
Q 40.578125 54.546875 44.28125 53.078125 
" id="BitstreamVeraSans-Roman-73"/>
     </defs>
     <g transform="translate(676.04296875 807.8296875)scale(0.3 -0.3)">
      <use xlink:href="#BitstreamVeraSans-Roman-69"/>
      <use x="27.783203125" xlink:href="#BitstreamVeraSans-Roman-74"/>
      <use x="66.9921875" xlink:href="#BitstreamVeraSans-Roman-65"/>
      <use x="128.515625" xlink:href="#BitstreamVeraSans-Roman-72"/>
      <use x="169.62890625" xlink:href="#BitstreamVeraSans-Roman-61"/>
      <use x="230.908203125" xlink:href="#BitstreamVeraSans-Roman-74"/>
      <use x="270.1171875" xlink:href="#BitstreamVeraSans-Roman-69"/>
      <use x="297.900390625" xlink:href="#BitstreamVeraSans-Roman-6f"/>
      <use x="359.08203125" xlink:href="#BitstreamVeraSans-Roman-6e"/>
      <use x="422.4609375" xlink:href="#BitstreamVeraSans-Roman-73"/>
     </g>
    </g>
   </g>
   <g id="matplotlib.axis_2">
    <g id="ytick_1">
     <g id="line2d_15">
      <defs>
       <path d="M 0 0 
L 4 0 
" id="m1bec09e405" style="stroke:#000000;stroke-width:0.5;"/>
      </defs>
      <g>
       <use style="stroke:#000000;stroke-width:0.5;" x="158.4" xlink:href="#m1bec09e405" y="747.0"/>
      </g>
     </g>
     <g id="line2d_16">
      <defs>
       <path d="M 0 0 
L -4 0 
" id="mae81555b84" style="stroke:#000000;stroke-width:0.5;"/>
      </defs>
      <g>
       <use style="stroke:#000000;stroke-width:0.5;" x="1336.05" xlink:href="#mae81555b84" y="747.0"/>
      </g>
     </g>
     <g id="text_8">
      <!-- 60 -->
      <defs>
       <path d="M 10.59375 35.5 
L 73.1875 35.5 
L 73.1875 27.203125 
L 10.59375 27.203125 
z
" id="BitstreamVeraSans-Roman-2212"/>
      </defs>
      <g transform="translate(91.0859375 755.278125)scale(0.3 -0.3)">
       <use xlink:href="#BitstreamVeraSans-Roman-2212"/>
       <use x="83.7890625" xlink:href="#BitstreamVeraSans-Roman-36"/>
       <use x="147.412109375" xlink:href="#BitstreamVeraSans-Roman-30"/>
      </g>
     </g>
    </g>
    <g id="ytick_2">
     <g id="line2d_17">
      <g>
       <use style="stroke:#000000;stroke-width:0.5;" x="158.4" xlink:href="#m1bec09e405" y="660.0375"/>
      </g>
     </g>
     <g id="line2d_18">
      <g>
       <use style="stroke:#000000;stroke-width:0.5;" x="1336.05" xlink:href="#mae81555b84" y="660.0375"/>
      </g>
     </g>
     <g id="text_9">
      <!-- 50 -->
      <defs>
       <path d="M 10.796875 72.90625 
L 49.515625 72.90625 
L 49.515625 64.59375 
L 19.828125 64.59375 
L 19.828125 46.734375 
Q 21.96875 47.46875 24.109375 47.828125 
Q 26.265625 48.1875 28.421875 48.1875 
Q 40.625 48.1875 47.75 41.5 
Q 54.890625 34.8125 54.890625 23.390625 
Q 54.890625 11.625 47.5625 5.09375 
Q 40.234375 -1.421875 26.90625 -1.421875 
Q 22.3125 -1.421875 17.546875 -0.640625 
Q 12.796875 0.140625 7.71875 1.703125 
L 7.71875 11.625 
Q 12.109375 9.234375 16.796875 8.0625 
Q 21.484375 6.890625 26.703125 6.890625 
Q 35.15625 6.890625 40.078125 11.328125 
Q 45.015625 15.765625 45.015625 23.390625 
Q 45.015625 31 40.078125 35.4375 
Q 35.15625 39.890625 26.703125 39.890625 
Q 22.75 39.890625 18.8125 39.015625 
Q 14.890625 38.140625 10.796875 36.28125 
z
" id="BitstreamVeraSans-Roman-35"/>
      </defs>
      <g transform="translate(91.0859375 668.315625)scale(0.3 -0.3)">
       <use xlink:href="#BitstreamVeraSans-Roman-2212"/>
       <use x="83.7890625" xlink:href="#BitstreamVeraSans-Roman-35"/>
       <use x="147.412109375" xlink:href="#BitstreamVeraSans-Roman-30"/>
      </g>
     </g>
    </g>
    <g id="ytick_3">
     <g id="line2d_19">
      <g>
       <use style="stroke:#000000;stroke-width:0.5;" x="158.4" xlink:href="#m1bec09e405" y="573.075"/>
      </g>
     </g>
     <g id="line2d_20">
      <g>
       <use style="stroke:#000000;stroke-width:0.5;" x="1336.05" xlink:href="#mae81555b84" y="573.075"/>
      </g>
     </g>
     <g id="text_10">
      <!-- 40 -->
      <g transform="translate(91.0859375 581.353125)scale(0.3 -0.3)">
       <use xlink:href="#BitstreamVeraSans-Roman-2212"/>
       <use x="83.7890625" xlink:href="#BitstreamVeraSans-Roman-34"/>
       <use x="147.412109375" xlink:href="#BitstreamVeraSans-Roman-30"/>
      </g>
     </g>
    </g>
    <g id="ytick_4">
     <g id="line2d_21">
      <g>
       <use style="stroke:#000000;stroke-width:0.5;" x="158.4" xlink:href="#m1bec09e405" y="486.1125"/>
      </g>
     </g>
     <g id="line2d_22">
      <g>
       <use style="stroke:#000000;stroke-width:0.5;" x="1336.05" xlink:href="#mae81555b84" y="486.1125"/>
      </g>
     </g>
     <g id="text_11">
      <!-- 30 -->
      <defs>
       <path d="M 40.578125 39.3125 
Q 47.65625 37.796875 51.625 33 
Q 55.609375 28.21875 55.609375 21.1875 
Q 55.609375 10.40625 48.1875 4.484375 
Q 40.765625 -1.421875 27.09375 -1.421875 
Q 22.515625 -1.421875 17.65625 -0.515625 
Q 12.796875 0.390625 7.625 2.203125 
L 7.625 11.71875 
Q 11.71875 9.328125 16.59375 8.109375 
Q 21.484375 6.890625 26.8125 6.890625 
Q 36.078125 6.890625 40.9375 10.546875 
Q 45.796875 14.203125 45.796875 21.1875 
Q 45.796875 27.640625 41.28125 31.265625 
Q 36.765625 34.90625 28.71875 34.90625 
L 20.21875 34.90625 
L 20.21875 43.015625 
L 29.109375 43.015625 
Q 36.375 43.015625 40.234375 45.921875 
Q 44.09375 48.828125 44.09375 54.296875 
Q 44.09375 59.90625 40.109375 62.90625 
Q 36.140625 65.921875 28.71875 65.921875 
Q 24.65625 65.921875 20.015625 65.03125 
Q 15.375 64.15625 9.8125 62.3125 
L 9.8125 71.09375 
Q 15.4375 72.65625 20.34375 73.4375 
Q 25.25 74.21875 29.59375 74.21875 
Q 40.828125 74.21875 47.359375 69.109375 
Q 53.90625 64.015625 53.90625 55.328125 
Q 53.90625 49.265625 50.4375 45.09375 
Q 46.96875 40.921875 40.578125 39.3125 
" id="BitstreamVeraSans-Roman-33"/>
      </defs>
      <g transform="translate(91.0859375 494.390625)scale(0.3 -0.3)">
       <use xlink:href="#BitstreamVeraSans-Roman-2212"/>
       <use x="83.7890625" xlink:href="#BitstreamVeraSans-Roman-33"/>
       <use x="147.412109375" xlink:href="#BitstreamVeraSans-Roman-30"/>
      </g>
     </g>
    </g>
    <g id="ytick_5">
     <g id="line2d_23">
      <g>
       <use style="stroke:#000000;stroke-width:0.5;" x="158.4" xlink:href="#m1bec09e405" y="399.15"/>
      </g>
     </g>
     <g id="line2d_24">
      <g>
       <use style="stroke:#000000;stroke-width:0.5;" x="1336.05" xlink:href="#mae81555b84" y="399.15"/>
      </g>
     </g>
     <g id="text_12">
      <!-- 20 -->
      <g transform="translate(91.0859375 407.428125)scale(0.3 -0.3)">
       <use xlink:href="#BitstreamVeraSans-Roman-2212"/>
       <use x="83.7890625" xlink:href="#BitstreamVeraSans-Roman-32"/>
       <use x="147.412109375" xlink:href="#BitstreamVeraSans-Roman-30"/>
      </g>
     </g>
    </g>
    <g id="ytick_6">
     <g id="line2d_25">
      <g>
       <use style="stroke:#000000;stroke-width:0.5;" x="158.4" xlink:href="#m1bec09e405" y="312.1875"/>
      </g>
     </g>
     <g id="line2d_26">
      <g>
       <use style="stroke:#000000;stroke-width:0.5;" x="1336.05" xlink:href="#mae81555b84" y="312.1875"/>
      </g>
     </g>
     <g id="text_13">
      <!-- 10 -->
      <g transform="translate(91.0859375 320.465625)scale(0.3 -0.3)">
       <use xlink:href="#BitstreamVeraSans-Roman-2212"/>
       <use x="83.7890625" xlink:href="#BitstreamVeraSans-Roman-31"/>
       <use x="147.412109375" xlink:href="#BitstreamVeraSans-Roman-30"/>
      </g>
     </g>
    </g>
    <g id="ytick_7">
     <g id="line2d_27">
      <g>
       <use style="stroke:#000000;stroke-width:0.5;" x="158.4" xlink:href="#m1bec09e405" y="225.225"/>
      </g>
     </g>
     <g id="line2d_28">
      <g>
       <use style="stroke:#000000;stroke-width:0.5;" x="1336.05" xlink:href="#mae81555b84" y="225.225"/>
      </g>
     </g>
     <g id="text_14">
      <!-- 0 -->
      <g transform="translate(135.3125 233.503125)scale(0.3 -0.3)">
       <use xlink:href="#BitstreamVeraSans-Roman-30"/>
      </g>
     </g>
    </g>
    <g id="ytick_8">
     <g id="line2d_29">
      <g>
       <use style="stroke:#000000;stroke-width:0.5;" x="158.4" xlink:href="#m1bec09e405" y="138.2625"/>
      </g>
     </g>
     <g id="line2d_30">
      <g>
       <use style="stroke:#000000;stroke-width:0.5;" x="1336.05" xlink:href="#mae81555b84" y="138.2625"/>
      </g>
     </g>
     <g id="text_15">
      <!-- 10 -->
      <g transform="translate(116.225 146.540625)scale(0.3 -0.3)">
       <use xlink:href="#BitstreamVeraSans-Roman-31"/>
       <use x="63.623046875" xlink:href="#BitstreamVeraSans-Roman-30"/>
      </g>
     </g>
    </g>
    <g id="ytick_9">
     <g id="line2d_31">
      <g>
       <use style="stroke:#000000;stroke-width:0.5;" x="158.4" xlink:href="#m1bec09e405" y="51.3"/>
      </g>
     </g>
     <g id="line2d_32">
      <g>
       <use style="stroke:#000000;stroke-width:0.5;" x="1336.05" xlink:href="#mae81555b84" y="51.3"/>
      </g>
     </g>
     <g id="text_16">
      <!-- 20 -->
      <g transform="translate(116.225 59.578125)scale(0.3 -0.3)">
       <use xlink:href="#BitstreamVeraSans-Roman-32"/>
       <use x="63.623046875" xlink:href="#BitstreamVeraSans-Roman-30"/>
      </g>
     </g>
    </g>
    <g id="text_17">
     <!-- log(loss) -->
     <defs>
      <path d="M 8.015625 75.875 
L 15.828125 75.875 
Q 23.140625 64.359375 26.78125 53.3125 
Q 30.421875 42.28125 30.421875 31.390625 
Q 30.421875 20.453125 26.78125 9.375 
Q 23.140625 -1.703125 15.828125 -13.1875 
L 8.015625 -13.1875 
Q 14.5 -2 17.703125 9.0625 
Q 20.90625 20.125 20.90625 31.390625 
Q 20.90625 42.671875 17.703125 53.65625 
Q 14.5 64.65625 8.015625 75.875 
" id="BitstreamVeraSans-Roman-29"/>
      <path d="M 31 75.875 
Q 24.46875 64.65625 21.28125 53.65625 
Q 18.109375 42.671875 18.109375 31.390625 
Q 18.109375 20.125 21.3125 9.0625 
Q 24.515625 -2 31 -13.1875 
L 23.1875 -13.1875 
Q 15.875 -1.703125 12.234375 9.375 
Q 8.59375 20.453125 8.59375 31.390625 
Q 8.59375 42.28125 12.203125 53.3125 
Q 15.828125 64.359375 23.1875 75.875 
z
" id="BitstreamVeraSans-Roman-28"/>
      <path d="M 45.40625 27.984375 
Q 45.40625 37.75 41.375 43.109375 
Q 37.359375 48.484375 30.078125 48.484375 
Q 22.859375 48.484375 18.828125 43.109375 
Q 14.796875 37.75 14.796875 27.984375 
Q 14.796875 18.265625 18.828125 12.890625 
Q 22.859375 7.515625 30.078125 7.515625 
Q 37.359375 7.515625 41.375 12.890625 
Q 45.40625 18.265625 45.40625 27.984375 
M 54.390625 6.78125 
Q 54.390625 -7.171875 48.1875 -13.984375 
Q 42 -20.796875 29.203125 -20.796875 
Q 24.46875 -20.796875 20.265625 -20.09375 
Q 16.0625 -19.390625 12.109375 -17.921875 
L 12.109375 -9.1875 
Q 16.0625 -11.328125 19.921875 -12.34375 
Q 23.78125 -13.375 27.78125 -13.375 
Q 36.625 -13.375 41.015625 -8.765625 
Q 45.40625 -4.15625 45.40625 5.171875 
L 45.40625 9.625 
Q 42.625 4.78125 38.28125 2.390625 
Q 33.9375 0 27.875 0 
Q 17.828125 0 11.671875 7.65625 
Q 5.515625 15.328125 5.515625 27.984375 
Q 5.515625 40.671875 11.671875 48.328125 
Q 17.828125 56 27.875 56 
Q 33.9375 56 38.28125 53.609375 
Q 42.625 51.21875 45.40625 46.390625 
L 45.40625 54.6875 
L 54.390625 54.6875 
z
" id="BitstreamVeraSans-Roman-67"/>
      <path d="M 9.421875 75.984375 
L 18.40625 75.984375 
L 18.40625 0 
L 9.421875 0 
z
" id="BitstreamVeraSans-Roman-6c"/>
     </defs>
     <g transform="translate(79.846875 462.69609375)rotate(-90.0)scale(0.3 -0.3)">
      <use xlink:href="#BitstreamVeraSans-Roman-6c"/>
      <use x="27.783203125" xlink:href="#BitstreamVeraSans-Roman-6f"/>
      <use x="88.96484375" xlink:href="#BitstreamVeraSans-Roman-67"/>
      <use x="152.44140625" xlink:href="#BitstreamVeraSans-Roman-28"/>
      <use x="191.455078125" xlink:href="#BitstreamVeraSans-Roman-6c"/>
      <use x="219.23828125" xlink:href="#BitstreamVeraSans-Roman-6f"/>
      <use x="280.419921875" xlink:href="#BitstreamVeraSans-Roman-73"/>
      <use x="332.51953125" xlink:href="#BitstreamVeraSans-Roman-73"/>
      <use x="384.619140625" xlink:href="#BitstreamVeraSans-Roman-29"/>
     </g>
    </g>
   </g>
   <g id="legend_1">
    <g id="patch_7">
     <path d="M 843.876562 163.36875 
L 1321.05 163.36875 
L 1321.05 66.3 
L 843.876562 66.3 
z
" style="fill:#ffffff;stroke:#000000;stroke-linejoin:miter;"/>
    </g>
    <g id="line2d_33">
     <path d="M 864.876562 90.595312 
L 906.876562 90.595312 
" style="fill:none;stroke:#0000ff;stroke-linecap:square;stroke-width:2.0;"/>
    </g>
    <g id="line2d_34"/>
    <g id="text_18">
     <!-- random: step=0.003891 -->
     <defs>
      <path id="BitstreamVeraSans-Roman-20"/>
      <path d="M 52 44.1875 
Q 55.375 50.25 60.0625 53.125 
Q 64.75 56 71.09375 56 
Q 79.640625 56 84.28125 50.015625 
Q 88.921875 44.046875 88.921875 33.015625 
L 88.921875 0 
L 79.890625 0 
L 79.890625 32.71875 
Q 79.890625 40.578125 77.09375 44.375 
Q 74.3125 48.1875 68.609375 48.1875 
Q 61.625 48.1875 57.5625 43.546875 
Q 53.515625 38.921875 53.515625 30.90625 
L 53.515625 0 
L 44.484375 0 
L 44.484375 32.71875 
Q 44.484375 40.625 41.703125 44.40625 
Q 38.921875 48.1875 33.109375 48.1875 
Q 26.21875 48.1875 22.15625 43.53125 
Q 18.109375 38.875 18.109375 30.90625 
L 18.109375 0 
L 9.078125 0 
L 9.078125 54.6875 
L 18.109375 54.6875 
L 18.109375 46.1875 
Q 21.1875 51.21875 25.484375 53.609375 
Q 29.78125 56 35.6875 56 
Q 41.65625 56 45.828125 52.96875 
Q 50 49.953125 52 44.1875 
" id="BitstreamVeraSans-Roman-6d"/>
      <path d="M 10.984375 1.515625 
L 10.984375 10.5 
Q 14.703125 8.734375 18.5 7.8125 
Q 22.3125 6.890625 25.984375 6.890625 
Q 35.75 6.890625 40.890625 13.453125 
Q 46.046875 20.015625 46.78125 33.40625 
Q 43.953125 29.203125 39.59375 26.953125 
Q 35.25 24.703125 29.984375 24.703125 
Q 19.046875 24.703125 12.671875 31.3125 
Q 6.296875 37.9375 6.296875 49.421875 
Q 6.296875 60.640625 12.9375 67.421875 
Q 19.578125 74.21875 30.609375 74.21875 
Q 43.265625 74.21875 49.921875 64.515625 
Q 56.59375 54.828125 56.59375 36.375 
Q 56.59375 19.140625 48.40625 8.859375 
Q 40.234375 -1.421875 26.421875 -1.421875 
Q 22.703125 -1.421875 18.890625 -0.6875 
Q 15.09375 0.046875 10.984375 1.515625 
M 30.609375 32.421875 
Q 37.25 32.421875 41.125 36.953125 
Q 45.015625 41.5 45.015625 49.421875 
Q 45.015625 57.28125 41.125 61.84375 
Q 37.25 66.40625 30.609375 66.40625 
Q 23.96875 66.40625 20.09375 61.84375 
Q 16.21875 57.28125 16.21875 49.421875 
Q 16.21875 41.5 20.09375 36.953125 
Q 23.96875 32.421875 30.609375 32.421875 
" id="BitstreamVeraSans-Roman-39"/>
      <path d="M 11.71875 12.40625 
L 22.015625 12.40625 
L 22.015625 0 
L 11.71875 0 
z
M 11.71875 51.703125 
L 22.015625 51.703125 
L 22.015625 39.3125 
L 11.71875 39.3125 
z
" id="BitstreamVeraSans-Roman-3a"/>
      <path d="M 10.6875 12.40625 
L 21 12.40625 
L 21 0 
L 10.6875 0 
z
" id="BitstreamVeraSans-Roman-2e"/>
      <path d="M 10.59375 45.40625 
L 73.1875 45.40625 
L 73.1875 37.203125 
L 10.59375 37.203125 
z
M 10.59375 25.484375 
L 73.1875 25.484375 
L 73.1875 17.1875 
L 10.59375 17.1875 
z
" id="BitstreamVeraSans-Roman-3d"/>
      <path d="M 45.40625 46.390625 
L 45.40625 75.984375 
L 54.390625 75.984375 
L 54.390625 0 
L 45.40625 0 
L 45.40625 8.203125 
Q 42.578125 3.328125 38.25 0.953125 
Q 33.9375 -1.421875 27.875 -1.421875 
Q 17.96875 -1.421875 11.734375 6.484375 
Q 5.515625 14.40625 5.515625 27.296875 
Q 5.515625 40.1875 11.734375 48.09375 
Q 17.96875 56 27.875 56 
Q 33.9375 56 38.25 53.625 
Q 42.578125 51.265625 45.40625 46.390625 
M 14.796875 27.296875 
Q 14.796875 17.390625 18.875 11.75 
Q 22.953125 6.109375 30.078125 6.109375 
Q 37.203125 6.109375 41.296875 11.75 
Q 45.40625 17.390625 45.40625 27.296875 
Q 45.40625 37.203125 41.296875 42.84375 
Q 37.203125 48.484375 30.078125 48.484375 
Q 22.953125 48.484375 18.875 42.84375 
Q 14.796875 37.203125 14.796875 27.296875 
" id="BitstreamVeraSans-Roman-64"/>
      <path d="M 18.109375 8.203125 
L 18.109375 -20.796875 
L 9.078125 -20.796875 
L 9.078125 54.6875 
L 18.109375 54.6875 
L 18.109375 46.390625 
Q 20.953125 51.265625 25.265625 53.625 
Q 29.59375 56 35.59375 56 
Q 45.5625 56 51.78125 48.09375 
Q 58.015625 40.1875 58.015625 27.296875 
Q 58.015625 14.40625 51.78125 6.484375 
Q 45.5625 -1.421875 35.59375 -1.421875 
Q 29.59375 -1.421875 25.265625 0.953125 
Q 20.953125 3.328125 18.109375 8.203125 
M 48.6875 27.296875 
Q 48.6875 37.203125 44.609375 42.84375 
Q 40.53125 48.484375 33.40625 48.484375 
Q 26.265625 48.484375 22.1875 42.84375 
Q 18.109375 37.203125 18.109375 27.296875 
Q 18.109375 17.390625 22.1875 11.75 
Q 26.265625 6.109375 33.40625 6.109375 
Q 40.53125 6.109375 44.609375 11.75 
Q 48.6875 17.390625 48.6875 27.296875 
" id="BitstreamVeraSans-Roman-70"/>
     </defs>
     <g transform="translate(939.8765625 101.0953125)scale(0.3 -0.3)">
      <use xlink:href="#BitstreamVeraSans-Roman-72"/>
      <use x="41.11328125" xlink:href="#BitstreamVeraSans-Roman-61"/>
      <use x="102.392578125" xlink:href="#BitstreamVeraSans-Roman-6e"/>
      <use x="165.771484375" xlink:href="#BitstreamVeraSans-Roman-64"/>
      <use x="229.248046875" xlink:href="#BitstreamVeraSans-Roman-6f"/>
      <use x="290.4296875" xlink:href="#BitstreamVeraSans-Roman-6d"/>
      <use x="387.841796875" xlink:href="#BitstreamVeraSans-Roman-3a"/>
      <use x="421.533203125" xlink:href="#BitstreamVeraSans-Roman-20"/>
      <use x="453.3203125" xlink:href="#BitstreamVeraSans-Roman-73"/>
      <use x="505.419921875" xlink:href="#BitstreamVeraSans-Roman-74"/>
      <use x="544.62890625" xlink:href="#BitstreamVeraSans-Roman-65"/>
      <use x="606.15234375" xlink:href="#BitstreamVeraSans-Roman-70"/>
      <use x="669.62890625" xlink:href="#BitstreamVeraSans-Roman-3d"/>
      <use x="753.41796875" xlink:href="#BitstreamVeraSans-Roman-30"/>
      <use x="817.041015625" xlink:href="#BitstreamVeraSans-Roman-2e"/>
      <use x="848.828125" xlink:href="#BitstreamVeraSans-Roman-30"/>
      <use x="912.451171875" xlink:href="#BitstreamVeraSans-Roman-30"/>
      <use x="976.07421875" xlink:href="#BitstreamVeraSans-Roman-33"/>
      <use x="1039.69726562" xlink:href="#BitstreamVeraSans-Roman-38"/>
      <use x="1103.3203125" xlink:href="#BitstreamVeraSans-Roman-39"/>
      <use x="1166.94335938" xlink:href="#BitstreamVeraSans-Roman-31"/>
     </g>
    </g>
    <g id="line2d_35">
     <path d="M 864.876562 134.629687 
L 906.876562 134.629687 
" style="fill:none;stroke:#008000;stroke-dasharray:6.000000,6.000000;stroke-dashoffset:0.0;stroke-width:2.0;"/>
    </g>
    <g id="line2d_36"/>
    <g id="text_19">
     <!-- corr: step=0.003891 -->
     <defs>
      <path d="M 48.78125 52.59375 
L 48.78125 44.1875 
Q 44.96875 46.296875 41.140625 47.34375 
Q 37.3125 48.390625 33.40625 48.390625 
Q 24.65625 48.390625 19.8125 42.84375 
Q 14.984375 37.3125 14.984375 27.296875 
Q 14.984375 17.28125 19.8125 11.734375 
Q 24.65625 6.203125 33.40625 6.203125 
Q 37.3125 6.203125 41.140625 7.25 
Q 44.96875 8.296875 48.78125 10.40625 
L 48.78125 2.09375 
Q 45.015625 0.34375 40.984375 -0.53125 
Q 36.96875 -1.421875 32.421875 -1.421875 
Q 20.0625 -1.421875 12.78125 6.34375 
Q 5.515625 14.109375 5.515625 27.296875 
Q 5.515625 40.671875 12.859375 48.328125 
Q 20.21875 56 33.015625 56 
Q 37.15625 56 41.109375 55.140625 
Q 45.0625 54.296875 48.78125 52.59375 
" id="BitstreamVeraSans-Roman-63"/>
     </defs>
     <g transform="translate(939.8765625 145.1296875)scale(0.3 -0.3)">
      <use xlink:href="#BitstreamVeraSans-Roman-63"/>
      <use x="54.98046875" xlink:href="#BitstreamVeraSans-Roman-6f"/>
      <use x="116.162109375" xlink:href="#BitstreamVeraSans-Roman-72"/>
      <use x="157.259765625" xlink:href="#BitstreamVeraSans-Roman-72"/>
      <use x="198.357421875" xlink:href="#BitstreamVeraSans-Roman-3a"/>
      <use x="232.048828125" xlink:href="#BitstreamVeraSans-Roman-20"/>
      <use x="263.8359375" xlink:href="#BitstreamVeraSans-Roman-73"/>
      <use x="315.935546875" xlink:href="#BitstreamVeraSans-Roman-74"/>
      <use x="355.14453125" xlink:href="#BitstreamVeraSans-Roman-65"/>
      <use x="416.66796875" xlink:href="#BitstreamVeraSans-Roman-70"/>
      <use x="480.14453125" xlink:href="#BitstreamVeraSans-Roman-3d"/>
      <use x="563.93359375" xlink:href="#BitstreamVeraSans-Roman-30"/>
      <use x="627.556640625" xlink:href="#BitstreamVeraSans-Roman-2e"/>
      <use x="659.34375" xlink:href="#BitstreamVeraSans-Roman-30"/>
      <use x="722.966796875" xlink:href="#BitstreamVeraSans-Roman-30"/>
      <use x="786.58984375" xlink:href="#BitstreamVeraSans-Roman-33"/>
      <use x="850.212890625" xlink:href="#BitstreamVeraSans-Roman-38"/>
      <use x="913.8359375" xlink:href="#BitstreamVeraSans-Roman-39"/>
      <use x="977.458984375" xlink:href="#BitstreamVeraSans-Roman-31"/>
     </g>
    </g>
   </g>
  </g>
 </g>
 <defs>
  <clipPath id="p20b07eab3c">
   <rect height="695.7" width="1177.65" x="158.4" y="51.3"/>
  </clipPath>
 </defs>
</svg>
