<?xml version="1.0" encoding="utf-8" standalone="no"?>
<!DOCTYPE svg PUBLIC "-//W3C//DTD SVG 1.1//EN"
  "http://www.w3.org/Graphics/SVG/1.1/DTD/svg11.dtd">
<!-- Created with matplotlib (http://matplotlib.org/) -->
<svg height="864pt" version="1.1" viewBox="0 0 1440 864" width="1440pt" xmlns="http://www.w3.org/2000/svg" xmlns:xlink="http://www.w3.org/1999/xlink">
 <defs>
  <style type="text/css">
*{stroke-linecap:butt;stroke-linejoin:round;stroke-miterlimit:100000;}
  </style>
 </defs>
 <g id="figure_1">
  <g id="patch_1">
   <path d="M 0 864 
L 1440 864 
L 1440 0 
L 0 0 
z
" style="fill:#ffffff;"/>
  </g>
  <g id="axes_1">
   <g id="patch_2">
    <path d="M 158.4 747 
L 1336.05 747 
L 1336.05 51.3 
L 158.4 51.3 
z
" style="fill:#ffffff;"/>
   </g>
   <g id="line2d_1">
    <path clip-path="url(#p86dcc1fcf0)" d="M 159.57765 107.37339 
L 160.7553 109.137554 
L 161.93295 110.06591 
L 166.64355 114.450389 
L 167.8212 115.816592 
L 170.1765 117.795936 
L 171.35415 118.414967 
L 172.5318 119.602408 
L 176.06475 123.795869 
L 178.42005 126.373358 
L 180.77535 128.437286 
L 181.953 129.762334 
L 185.48595 133.10201 
L 186.6636 134.57562 
L 187.84125 135.695268 
L 189.0189 137.056052 
L 190.19655 137.945991 
L 192.55185 140.231348 
L 193.7295 141.627679 
L 196.0848 143.486224 
L 197.26245 144.351775 
L 203.1507 150.203002 
L 204.32835 152.10307 
L 205.506 153.480219 
L 206.68365 154.593044 
L 207.8613 155.381517 
L 209.03895 156.81795 
L 211.39425 159.158298 
L 213.74955 161.329381 
L 214.9272 162.129959 
L 216.10485 163.468053 
L 224.3484 171.337478 
L 225.52605 172.601391 
L 227.88135 174.777681 
L 230.23665 177.66484 
L 231.4143 178.462253 
L 233.7696 181.284468 
L 234.94725 182.602844 
L 236.1249 183.520828 
L 239.65785 186.733098 
L 242.01315 189.576963 
L 243.1908 190.879574 
L 244.36845 191.742554 
L 246.72375 194.189391 
L 250.2567 197.38731 
L 252.612 199.129501 
L 254.9673 201.132347 
L 257.3226 203.693542 
L 259.6779 205.594988 
L 260.85555 206.777893 
L 262.0332 208.143832 
L 264.3885 209.982007 
L 265.56615 211.202829 
L 266.7438 212.068427 
L 267.92145 213.287073 
L 270.27675 215.276533 
L 271.4544 216.609958 
L 272.63205 217.569414 
L 273.8097 218.849271 
L 274.98735 219.696096 
L 276.165 220.787026 
L 277.34265 222.385469 
L 278.5203 223.289443 
L 279.69795 224.344342 
L 280.8756 225.069672 
L 282.05325 226.252882 
L 284.40855 229.037046 
L 285.5862 229.837873 
L 286.76385 231.227682 
L 289.11915 233.125795 
L 290.2968 234.797879 
L 292.6521 237.402151 
L 293.82975 238.333024 
L 295.0074 238.999972 
L 297.3627 241.350712 
L 298.54035 242.1073 
L 300.89565 243.951054 
L 302.0733 245.332048 
L 304.4286 247.734582 
L 305.60625 248.66645 
L 307.96155 251.633365 
L 310.31685 253.89394 
L 311.4945 255.619474 
L 312.67215 256.395827 
L 313.8498 257.424909 
L 315.02745 258.893231 
L 316.2051 259.838858 
L 317.38275 261.118096 
L 318.5604 262.193312 
L 319.73805 263.046941 
L 323.271 266.507705 
L 325.6263 268.770324 
L 327.9816 271.244692 
L 329.15925 273.078589 
L 330.3369 273.809252 
L 331.51455 275.076773 
L 332.6922 275.791718 
L 333.86985 277.754828 
L 335.0475 278.676911 
L 336.22515 279.773029 
L 337.4028 281.082602 
L 338.58045 281.961215 
L 339.7581 283.26847 
L 340.93575 284.308975 
L 342.1134 285.611734 
L 343.29105 286.660176 
L 348.00165 291.559835 
L 349.1793 293.018308 
L 352.71225 296.538309 
L 355.06755 298.925385 
L 358.6005 302.006258 
L 362.13345 304.405653 
L 365.6664 308.182542 
L 368.0217 310.405952 
L 369.19935 311.837632 
L 370.377 312.871925 
L 372.7323 315.621392 
L 373.90995 316.845079 
L 376.26525 318.826824 
L 377.4429 320.375871 
L 379.7982 322.84824 
L 380.97585 324.051797 
L 383.33115 325.984897 
L 384.5088 327.174024 
L 385.68645 328.199193 
L 386.8641 329.035933 
L 388.04175 330.119619 
L 390.39705 332.024609 
L 392.75235 334.494802 
L 393.93 336.01169 
L 395.10765 336.939725 
L 396.2853 338.163998 
L 397.46295 339.001742 
L 398.6406 340.298509 
L 399.81825 341.092307 
L 402.17355 343.674147 
L 403.3512 344.61041 
L 404.52885 345.701866 
L 405.7065 346.414705 
L 406.88415 348.000984 
L 408.0618 349.227844 
L 410.4171 350.913584 
L 411.59475 352.691013 
L 413.95005 354.866967 
L 415.1277 356.050837 
L 416.30535 356.936937 
L 419.8383 360.344491 
L 421.01595 361.691663 
L 423.37125 363.935473 
L 424.5489 365.532651 
L 426.9042 367.895834 
L 428.08185 368.73822 
L 429.2595 370.03855 
L 430.43715 371.01674 
L 431.6148 371.840147 
L 432.79245 373.028063 
L 433.9701 374.460663 
L 437.50305 377.203743 
L 441.036 380.804756 
L 442.21365 381.849117 
L 445.7466 385.50923 
L 446.92425 387.051363 
L 449.27955 389.000367 
L 450.4572 390.055351 
L 451.63485 390.678808 
L 452.8125 391.792959 
L 453.99015 393.395 
L 456.34545 395.737761 
L 459.8784 399.691767 
L 461.05605 400.465662 
L 462.2337 401.528385 
L 463.41135 402.816682 
L 464.589 404.397947 
L 466.9443 406.483546 
L 469.2996 408.098278 
L 470.47725 409.69221 
L 472.83255 412.167857 
L 474.0102 413.229732 
L 475.18785 414.028545 
L 477.54315 416.030496 
L 478.7208 417.36948 
L 481.0761 419.692707 
L 482.25375 420.91477 
L 483.4314 421.624654 
L 485.7867 423.851024 
L 490.4973 428.41478 
L 491.67495 429.405709 
L 494.03025 431.69948 
L 495.2079 432.328335 
L 496.38555 433.65365 
L 498.74085 435.899542 
L 499.9185 436.642456 
L 501.09615 438.194099 
L 503.45145 440.328375 
L 504.6291 441.881292 
L 505.80675 442.84976 
L 506.9844 444.102972 
L 508.16205 445.045935 
L 509.3397 446.319662 
L 511.695 448.12222 
L 512.87265 449.40504 
L 514.0503 450.400326 
L 515.22795 451.159609 
L 516.4056 452.824439 
L 517.58325 453.714346 
L 518.7609 455.263717 
L 521.1162 457.566831 
L 523.4715 459.528956 
L 524.64915 461.130051 
L 528.1821 463.766884 
L 529.35975 464.842559 
L 530.5374 466.488551 
L 531.71505 467.794435 
L 532.8927 468.733434 
L 535.248 471.197434 
L 537.6033 473.284244 
L 538.78095 474.540782 
L 539.9586 475.589011 
L 541.13625 477.147824 
L 542.3139 478.459889 
L 543.49155 479.515229 
L 545.84685 481.816825 
L 547.0245 482.847901 
L 548.20215 484.321957 
L 550.55745 486.398635 
L 551.7351 487.542619 
L 552.91275 488.361897 
L 554.0904 489.842855 
L 555.26805 491.132226 
L 556.4457 492.112938 
L 557.62335 493.413926 
L 558.801 494.494876 
L 564.68925 500.757282 
L 567.04455 502.734109 
L 568.2222 503.936194 
L 569.39985 504.903849 
L 570.5775 506.034253 
L 571.75515 506.951929 
L 572.9328 508.033487 
L 574.11045 509.481792 
L 577.6434 512.964017 
L 578.82105 514.077152 
L 581.17635 516.720511 
L 582.354 518.59045 
L 584.7093 521.578053 
L 585.88695 522.602247 
L 587.0646 523.882044 
L 588.24225 525.342635 
L 589.4199 526.350853 
L 590.59755 527.19466 
L 591.7752 528.560152 
L 592.95285 529.607941 
L 594.1305 530.865836 
L 597.66345 533.709046 
L 598.8411 535.023777 
L 601.1964 536.996141 
L 602.37405 537.724244 
L 604.72935 540.51964 
L 605.907 542.220151 
L 607.08465 543.30791 
L 609.43995 545.947459 
L 610.6176 547.397697 
L 611.79525 548.58597 
L 612.9729 549.505689 
L 614.15055 550.132751 
L 615.3282 551.550222 
L 618.86115 555.084213 
L 620.0388 555.799007 
L 622.3941 557.874049 
L 623.57175 559.323853 
L 624.7494 560.17048 
L 625.92705 561.5925 
L 627.1047 562.624108 
L 628.28235 564.082084 
L 631.8153 567.357273 
L 634.1706 569.347888 
L 636.5259 571.489918 
L 637.70355 572.593978 
L 638.8812 573.936887 
L 640.05885 575.467839 
L 641.2365 576.62706 
L 642.41415 577.456574 
L 643.5918 578.515509 
L 645.9471 581.125744 
L 648.3024 582.800064 
L 650.6577 584.831333 
L 653.013 587.308303 
L 655.3683 589.234496 
L 657.7236 590.693112 
L 660.0789 593.121279 
L 662.4342 595.263872 
L 663.61185 596.389644 
L 665.96715 598.335152 
L 667.1448 599.646328 
L 668.32245 600.509563 
L 673.03305 605.151173 
L 675.38835 607.549815 
L 680.09895 610.853534 
L 681.2766 611.861184 
L 682.45425 613.053983 
L 684.80955 614.992425 
L 687.16485 616.82224 
L 691.87545 621.339001 
L 693.0531 622.109842 
L 694.23075 623.549854 
L 695.4084 624.538365 
L 697.7637 627.050437 
L 700.119 628.96714 
L 701.29665 630.107568 
L 702.4743 631.485234 
L 704.8296 633.09719 
L 706.00725 634.450159 
L 707.1849 635.494765 
L 708.36255 636.306521 
L 711.8955 639.391876 
L 713.07315 640.357978 
L 714.2508 641.755994 
L 715.42845 642.907259 
L 717.78375 644.706275 
L 718.9614 645.894467 
L 720.13905 647.327873 
L 722.49435 649.576664 
L 731.91555 658.532072 
L 733.0932 659.918884 
L 735.4485 661.850247 
L 738.98145 664.907143 
L 740.1591 665.996894 
L 741.33675 667.361479 
L 744.8697 670.756391 
L 748.40265 673.651166 
L 749.5803 674.397582 
L 755.46855 679.103315 
L 756.6462 679.855229 
L 757.82385 680.997844 
L 759.0015 681.856936 
L 760.17915 682.224436 
L 762.53445 684.194937 
L 764.88975 685.532702 
L 766.0674 686.497753 
L 767.24505 687.670778 
L 768.4227 688.252483 
L 769.60035 687.871901 
L 771.95565 689.448859 
L 773.1333 689.897583 
L 774.31095 690.223923 
L 775.4886 690.795853 
L 777.8439 691.354185 
L 779.02155 691.960094 
L 780.1992 692.136451 
L 781.37685 692.148701 
L 782.5545 692.563687 
L 783.73215 692.325941 
L 786.08745 692.19516 
L 787.2651 693.063664 
L 788.44275 692.857818 
L 789.6204 692.987483 
L 790.79805 692.862636 
L 793.15335 693.344515 
L 794.331 693.09268 
L 795.50865 693.389357 
L 796.6863 693.051442 
L 797.86395 693.550298 
L 799.0416 693.7957 
L 800.21925 693.743625 
L 801.3969 693.342949 
L 802.57455 693.243463 
L 803.7522 692.878553 
L 806.1075 692.524201 
L 807.28515 692.998879 
L 809.64045 693.004993 
L 811.99575 693.290721 
L 815.5287 692.543943 
L 816.70635 692.472472 
L 817.884 692.620566 
L 819.06165 693.190356 
L 821.41695 693.649402 
L 822.5946 694.185913 
L 823.77225 694.227883 
L 824.9499 694.484636 
L 826.12755 693.931368 
L 827.3052 694.282529 
L 828.48285 693.852688 
L 829.6605 693.964348 
L 830.83815 693.259384 
L 832.0158 693.133421 
L 833.19345 693.402806 
L 834.3711 693.382642 
L 835.54875 693.747955 
L 836.7264 693.256717 
L 837.90405 693.348657 
L 840.25935 693.73731 
L 841.437 693.519707 
L 842.61465 693.483389 
L 843.7923 693.639622 
L 844.96995 693.930732 
L 847.32525 693.654002 
L 848.5029 693.872895 
L 849.68055 693.316534 
L 850.8582 693.032362 
L 852.03585 693.063258 
L 854.39115 694.30541 
L 855.5688 694.613625 
L 856.74645 694.497112 
L 857.9241 694.530979 
L 859.10175 694.961408 
L 860.2794 694.379078 
L 861.45705 694.237395 
L 862.6347 693.834555 
L 863.81235 694.102487 
L 866.16765 693.370211 
L 869.7006 692.924145 
L 874.4112 692.910213 
L 876.7665 692.457042 
L 879.1218 692.606863 
L 880.29945 693.152763 
L 881.4771 693.514493 
L 882.65475 693.307777 
L 885.01005 693.791318 
L 886.1877 693.807929 
L 887.36535 693.403632 
L 889.72065 693.322132 
L 890.8983 693.239001 
L 894.43125 693.327984 
L 895.6089 693.578616 
L 896.78655 693.253983 
L 897.9642 692.542987 
L 899.14185 692.872597 
L 903.85245 693.029155 
L 905.0301 693.298597 
L 906.20775 693.062793 
L 907.3854 693.665028 
L 908.56305 693.254384 
L 910.91835 693.666634 
L 912.096 693.525661 
L 913.27365 693.628995 
L 914.4513 693.845883 
L 915.62895 694.537177 
L 917.98425 694.906266 
L 919.1619 694.735911 
L 920.33955 694.114058 
L 921.5172 693.676394 
L 922.69485 693.568899 
L 923.8725 693.957421 
L 925.05015 693.860158 
L 926.2278 693.554676 
L 927.40545 693.65397 
L 929.76075 693.2874 
L 930.9384 693.698578 
L 932.11605 694.347251 
L 933.2937 694.703987 
L 934.47135 694.729464 
L 935.649 694.368099 
L 936.82665 695.186564 
L 938.0043 694.706936 
L 939.18195 694.530022 
L 940.3596 694.826091 
L 941.53725 694.476301 
L 943.89255 693.513159 
L 945.0702 693.708262 
L 946.24785 694.030751 
L 947.4255 693.361253 
L 948.60315 693.310613 
L 949.7808 692.839622 
L 950.95845 693.003007 
L 952.1361 692.940207 
L 953.31375 693.357999 
L 954.4914 693.634607 
L 958.02435 694.032156 
L 959.202 693.853921 
L 960.37965 693.383578 
L 961.5573 693.399085 
L 962.73495 693.62435 
L 963.9126 693.695165 
L 965.09025 693.389151 
L 966.2679 693.828486 
L 967.44555 693.549756 
L 968.6232 693.624949 
L 970.9785 694.283094 
L 972.15615 693.794596 
L 973.3338 693.727822 
L 974.51145 694.247096 
L 976.86675 693.935837 
L 978.0444 694.170842 
L 979.22205 694.220699 
L 980.3997 694.096905 
L 981.57735 694.173866 
L 982.755 694.406186 
L 983.93265 694.253663 
L 985.1103 694.396551 
L 987.4656 694.262233 
L 989.8209 694.642541 
L 992.1762 694.269412 
L 993.35385 694.82786 
L 995.70915 695.098582 
L 998.06445 694.698653 
L 999.2421 695.206403 
L 1000.41975 694.860858 
L 1001.5974 694.949487 
L 1002.77505 694.781726 
L 1003.9527 695.238659 
L 1006.308 694.862774 
L 1007.48565 694.022388 
L 1008.6633 693.890224 
L 1009.84095 693.990966 
L 1011.0186 693.69523 
L 1012.19625 693.920784 
L 1014.55155 693.402793 
L 1015.7292 693.76131 
L 1016.90685 694.700675 
L 1019.26215 695.024633 
L 1020.4398 694.612697 
L 1021.61745 694.933154 
L 1022.7951 694.451224 
L 1023.97275 694.110919 
L 1025.1504 693.94978 
L 1026.32805 693.929115 
L 1028.68335 694.426618 
L 1029.861 694.316058 
L 1031.03865 694.743609 
L 1032.2163 694.679892 
L 1033.39395 694.30727 
L 1034.5716 694.326402 
L 1035.74925 694.148601 
L 1039.2822 694.426096 
L 1040.45985 693.746942 
L 1041.6375 694.311556 
L 1042.81515 694.065098 
L 1043.9928 694.065445 
L 1045.17045 694.498784 
L 1046.3481 694.320858 
L 1047.52575 694.486794 
L 1048.7034 694.438159 
L 1049.88105 694.524568 
L 1051.0587 694.856445 
L 1052.23635 694.93674 
L 1053.414 694.851677 
L 1054.59165 694.565577 
L 1055.7693 693.784258 
L 1056.94695 694.296505 
L 1058.1246 694.499764 
L 1060.4799 694.365595 
L 1061.65755 694.152637 
L 1062.8352 694.374683 
L 1064.01285 693.747864 
L 1065.1905 693.604197 
L 1066.36815 693.637944 
L 1067.5458 693.987913 
L 1068.72345 694.195557 
L 1069.9011 694.714241 
L 1071.07875 694.75504 
L 1072.2564 694.655745 
L 1073.43405 695.327002 
L 1074.6117 694.518925 
L 1075.78935 694.463245 
L 1076.967 694.125761 
L 1079.3223 694.554194 
L 1080.49995 694.279876 
L 1081.6776 694.231682 
L 1082.85525 694.483635 
L 1084.0329 694.484239 
L 1086.3882 694.732506 
L 1088.7435 694.691834 
L 1089.92115 694.519338 
L 1091.0988 694.857009 
L 1092.27645 694.51287 
L 1093.4541 694.421219 
L 1094.63175 694.476085 
L 1095.8094 694.926584 
L 1096.98705 694.111781 
L 1098.1647 693.956082 
L 1099.34235 694.186853 
L 1100.52 693.764154 
L 1101.69765 693.718546 
L 1102.8753 693.318936 
L 1104.05295 693.304663 
L 1105.2306 693.407803 
L 1108.76355 693.282963 
L 1109.9412 693.05946 
L 1111.11885 693.951335 
L 1112.2965 693.871879 
L 1113.47415 693.557376 
L 1114.6518 693.682125 
L 1115.82945 693.635899 
L 1117.0071 693.702544 
L 1118.18475 693.517363 
L 1119.3624 693.80394 
L 1120.54005 693.344449 
L 1122.89535 693.51841 
L 1124.073 693.260978 
L 1125.25065 693.389764 
L 1126.4283 693.877215 
L 1128.7836 693.732021 
L 1129.96125 693.927442 
L 1131.1389 694.34813 
L 1133.4942 694.889545 
L 1134.67185 694.653794 
L 1135.8495 694.183419 
L 1137.02715 694.031716 
L 1138.2048 694.390075 
L 1139.38245 693.881674 
L 1140.5601 693.8073 
L 1142.9154 694.010341 
L 1144.09305 693.544182 
L 1145.2707 693.554748 
L 1146.44835 694.087727 
L 1147.626 693.375046 
L 1148.80365 693.514196 
L 1149.9813 693.77875 
L 1152.3366 693.177222 
L 1153.51425 693.018037 
L 1155.86955 693.206456 
L 1157.0472 693.703843 
L 1158.22485 693.748047 
L 1159.4025 694.305038 
L 1160.58015 694.5808 
L 1161.7578 694.290091 
L 1162.93545 694.557163 
L 1164.1131 694.102369 
L 1165.29075 694.592013 
L 1166.4684 694.210302 
L 1168.8237 694.914455 
L 1170.00135 694.13278 
L 1171.179 694.247126 
L 1172.35665 693.357522 
L 1173.5343 693.385266 
L 1174.71195 693.847264 
L 1175.8896 693.821152 
L 1177.06725 693.59434 
L 1178.2449 693.968524 
L 1180.6002 693.844057 
L 1181.77785 694.036685 
L 1182.9555 693.60062 
L 1184.13315 693.04087 
L 1185.3108 693.56671 
L 1186.48845 693.458411 
L 1187.6661 693.60455 
L 1188.84375 693.574134 
L 1190.0214 693.043149 
L 1192.3767 693.485652 
L 1193.55435 693.43221 
L 1194.732 693.739381 
L 1197.0873 693.950239 
L 1198.26495 693.545295 
L 1200.62025 693.681136 
L 1201.7979 694.096792 
L 1202.97555 694.105742 
L 1204.1532 693.899707 
L 1205.33085 694.042786 
L 1206.5085 693.50619 
L 1207.68615 693.307305 
L 1208.8638 693.660082 
L 1210.04145 693.420838 
L 1211.2191 692.939346 
L 1212.39675 692.87458 
L 1213.5744 693.081173 
L 1214.75205 692.498157 
L 1215.9297 692.214896 
L 1217.10735 692.681531 
L 1218.285 692.281906 
L 1219.46265 692.362151 
L 1221.81795 692.946873 
L 1222.9956 692.872591 
L 1224.17325 693.286552 
L 1226.52855 693.733467 
L 1227.7062 693.500921 
L 1228.88385 693.948985 
L 1230.0615 694.149921 
L 1231.23915 693.766415 
L 1232.4168 693.110702 
L 1233.59445 693.010861 
L 1234.7721 692.717282 
L 1237.1274 693.460996 
L 1238.30505 693.46168 
L 1239.4827 693.923181 
L 1240.66035 693.696034 
L 1241.838 694.113577 
L 1243.01565 693.847573 
L 1244.1933 693.182349 
L 1245.37095 693.036938 
L 1250.08155 693.332558 
L 1252.43685 692.55043 
L 1253.6145 692.833384 
L 1254.79215 692.796184 
L 1255.9698 693.087645 
L 1257.14745 693.011113 
L 1258.3251 692.738458 
L 1259.50275 693.48117 
L 1260.6804 692.953111 
L 1261.85805 692.808273 
L 1263.0357 693.171985 
L 1264.21335 693.249458 
L 1267.7463 693.130362 
L 1268.92395 693.273492 
L 1270.1016 693.5708 
L 1272.4569 693.822214 
L 1273.63455 693.334607 
L 1274.8122 693.024731 
L 1275.98985 692.535985 
L 1279.5228 693.59961 
L 1280.70045 693.535796 
L 1283.05575 694.4412 
L 1284.2334 693.835737 
L 1285.41105 694.329732 
L 1286.5887 694.192383 
L 1287.76635 694.281264 
L 1288.944 694.916411 
L 1290.12165 694.632889 
L 1291.2993 694.920383 
L 1292.47695 694.654241 
L 1293.6546 694.853811 
L 1294.83225 695.198177 
L 1296.0099 695.280706 
L 1297.18755 695.085827 
L 1299.54285 694.100756 
L 1301.89815 693.472629 
L 1303.0758 693.214009 
L 1304.25345 692.623433 
L 1305.4311 692.493149 
L 1306.60875 692.985924 
L 1308.96405 693.094502 
L 1310.1417 693.439959 
L 1311.31935 693.197584 
L 1312.497 693.153049 
L 1313.67465 693.452063 
L 1316.02995 693.601557 
L 1317.2076 694.111422 
L 1318.38525 694.074977 
L 1319.5629 693.69106 
L 1320.74055 693.146148 
L 1323.09585 693.684377 
L 1324.2735 693.738034 
L 1325.45115 693.519643 
L 1328.9841 693.658751 
L 1330.16175 693.343792 
L 1331.3394 693.822298 
L 1332.51705 693.954513 
L 1333.6947 693.700506 
L 1334.87235 694.021784 
L 1336.05 694.019993 
L 1336.05 694.019993 
" style="fill:none;stroke:#0000ff;stroke-linecap:square;stroke-width:2.0;"/>
   </g>
   <g id="line2d_2">
    <path clip-path="url(#p86dcc1fcf0)" d="M 159.57765 107.563846 
L 161.93295 110.367793 
L 164.28825 112.581869 
L 166.64355 115.31402 
L 167.8212 116.140435 
L 168.99885 117.158893 
L 173.70945 121.901597 
L 178.42005 125.643634 
L 180.77535 128.051141 
L 184.3083 131.737426 
L 185.48595 132.496658 
L 186.6636 133.709965 
L 187.84125 134.686304 
L 190.19655 137.329018 
L 191.3742 138.398374 
L 192.55185 139.720532 
L 193.7295 140.767582 
L 194.90715 141.660466 
L 196.0848 143.040598 
L 197.26245 143.663901 
L 198.4401 144.508048 
L 200.7954 147.2684 
L 201.97305 147.946448 
L 205.506 151.093729 
L 206.68365 152.6513 
L 209.03895 154.870718 
L 210.2166 155.643409 
L 211.39425 157.042737 
L 214.9272 160.825487 
L 216.10485 162.142517 
L 217.2825 163.220152 
L 218.46015 164.12027 
L 221.9931 168.138179 
L 223.17075 168.78516 
L 225.52605 171.003161 
L 229.059 174.71721 
L 230.23665 175.503482 
L 231.4143 176.445437 
L 232.59195 177.027032 
L 233.7696 178.000245 
L 234.94725 179.414904 
L 236.1249 180.595367 
L 237.30255 182.485669 
L 238.4802 183.675545 
L 239.65785 185.057964 
L 242.01315 188.187873 
L 243.1908 189.368412 
L 245.5461 191.446721 
L 246.72375 192.503148 
L 249.07905 195.165987 
L 251.43435 198.121178 
L 253.78965 200.328719 
L 254.9673 201.22867 
L 257.3226 203.956125 
L 258.50025 204.707625 
L 262.0332 207.530945 
L 263.21085 208.654062 
L 264.3885 210.348522 
L 266.7438 212.14154 
L 267.92145 213.370052 
L 269.0991 214.879072 
L 271.4544 217.218125 
L 272.63205 218.081616 
L 273.8097 219.394052 
L 274.98735 220.25959 
L 276.165 221.498415 
L 278.5203 223.287466 
L 279.69795 224.859053 
L 280.8756 226.068397 
L 283.2309 229.422637 
L 285.5862 230.950938 
L 286.76385 231.872053 
L 287.9415 233.283079 
L 289.11915 234.316235 
L 290.2968 235.146653 
L 291.47445 236.24952 
L 292.6521 236.945522 
L 295.0074 239.655393 
L 297.3627 241.655371 
L 298.54035 243.025987 
L 300.89565 245.30146 
L 302.0733 246.211464 
L 303.25095 247.473962 
L 304.4286 248.276609 
L 305.60625 249.49538 
L 307.96155 252.31492 
L 310.31685 253.994413 
L 311.4945 255.132739 
L 313.8498 257.584815 
L 315.02745 258.470154 
L 317.38275 261.01302 
L 322.09335 265.929355 
L 323.271 266.801842 
L 324.44865 268.217104 
L 326.80395 270.577516 
L 327.9816 271.527117 
L 330.3369 273.929012 
L 331.51455 275.244315 
L 335.0475 278.057987 
L 339.7581 282.375124 
L 340.93575 283.142218 
L 342.1134 284.654303 
L 343.29105 285.542825 
L 344.4687 286.638002 
L 346.824 289.367876 
L 348.00165 290.168775 
L 350.35695 292.768872 
L 351.5346 293.388156 
L 352.71225 294.392008 
L 355.06755 296.717728 
L 356.2452 297.591293 
L 357.42285 298.846917 
L 358.6005 299.916981 
L 359.77815 301.669006 
L 362.13345 304.277704 
L 364.48875 306.023061 
L 368.0217 309.915179 
L 369.19935 310.757942 
L 370.377 311.789089 
L 371.55465 313.017771 
L 373.90995 314.932659 
L 375.0876 315.609531 
L 377.4429 318.052427 
L 378.62055 319.656466 
L 379.7982 320.284845 
L 380.97585 321.120998 
L 382.1535 322.467017 
L 386.8641 326.745703 
L 389.2194 329.021376 
L 390.39705 330.163036 
L 391.5747 330.993831 
L 392.75235 331.97233 
L 395.10765 334.242948 
L 396.2853 335.18746 
L 398.6406 337.644845 
L 400.9959 339.397124 
L 402.17355 340.265807 
L 403.3512 341.426279 
L 404.52885 342.825939 
L 406.88415 345.058843 
L 408.0618 345.93388 
L 409.23945 347.489322 
L 410.4171 348.379155 
L 411.59475 349.416938 
L 413.95005 351.810547 
L 416.30535 354.139494 
L 417.483 354.947575 
L 419.8383 358.133138 
L 421.01595 359.270087 
L 422.1936 359.918854 
L 423.37125 360.802466 
L 424.5489 361.993676 
L 428.08185 364.876232 
L 429.2595 365.577897 
L 430.43715 366.722636 
L 432.79245 368.430203 
L 433.9701 369.339056 
L 435.14775 370.963889 
L 436.3254 372.33084 
L 438.6807 374.476236 
L 439.85835 375.355995 
L 441.036 376.813027 
L 442.21365 377.789732 
L 443.3913 379.439961 
L 444.56895 380.397353 
L 445.7466 381.502195 
L 448.1019 383.217803 
L 449.27955 384.605713 
L 450.4572 385.23796 
L 452.8125 387.244767 
L 453.99015 388.564407 
L 456.34545 390.587107 
L 457.5231 391.440204 
L 461.05605 395.412608 
L 462.2337 396.913604 
L 463.41135 397.847915 
L 464.589 399.190062 
L 465.76665 400.236098 
L 468.12195 403.323638 
L 469.2996 404.431624 
L 470.47725 405.904026 
L 471.6549 407.113263 
L 472.83255 407.886534 
L 474.0102 408.884566 
L 476.3655 411.337539 
L 477.54315 412.240472 
L 478.7208 413.589372 
L 479.89845 414.706904 
L 481.0761 416.275664 
L 482.25375 417.591132 
L 485.7867 420.669603 
L 486.96435 422.027912 
L 488.142 423.586788 
L 489.31965 424.808031 
L 492.8526 427.84845 
L 494.03025 429.23104 
L 495.2079 430.985102 
L 496.38555 432.212887 
L 497.5632 433.147278 
L 501.09615 436.73232 
L 503.45145 438.508787 
L 504.6291 439.665586 
L 505.80675 441.057936 
L 506.9844 442.086328 
L 509.3397 444.604129 
L 510.51735 446.154079 
L 511.695 447.200232 
L 512.87265 448.048404 
L 514.0503 449.191372 
L 515.22795 449.787118 
L 516.4056 450.984556 
L 517.58325 452.691234 
L 518.7609 453.975885 
L 519.93855 454.715644 
L 521.1162 456.104504 
L 522.29385 457.128245 
L 523.4715 457.876823 
L 527.00445 461.855229 
L 530.5374 465.004686 
L 539.9586 475.106761 
L 541.13625 476.166385 
L 542.3139 477.651103 
L 543.49155 478.530733 
L 545.84685 481.2887 
L 548.20215 483.654956 
L 550.55745 485.974599 
L 551.7351 487.517802 
L 552.91275 488.868713 
L 555.26805 490.871828 
L 556.4457 491.758353 
L 557.62335 492.980825 
L 562.33395 497.108753 
L 563.5116 498.37998 
L 565.8669 500.180323 
L 568.2222 502.508464 
L 570.5775 504.583412 
L 571.75515 505.930292 
L 574.11045 507.986158 
L 575.2881 508.71822 
L 578.82105 511.989346 
L 579.9987 512.921344 
L 583.53165 516.541965 
L 584.7093 517.86243 
L 585.88695 519.36467 
L 587.0646 520.500418 
L 588.24225 521.339747 
L 589.4199 522.92172 
L 590.59755 523.855673 
L 594.1305 527.460047 
L 595.30815 528.378054 
L 596.4858 529.837623 
L 597.66345 530.885226 
L 600.01875 533.303608 
L 601.1964 534.205535 
L 602.37405 535.276488 
L 603.5517 536.024669 
L 604.72935 537.316191 
L 605.907 538.227542 
L 607.08465 539.542318 
L 608.2623 540.562146 
L 609.43995 541.778499 
L 610.6176 542.479574 
L 611.79525 544.033628 
L 615.3282 547.77719 
L 616.50585 548.889824 
L 617.6835 550.337096 
L 618.86115 551.512945 
L 620.0388 552.279358 
L 621.21645 553.846831 
L 624.7494 557.767605 
L 625.92705 558.590917 
L 629.46 561.990429 
L 631.8153 564.515689 
L 632.99295 565.484773 
L 635.34825 567.78394 
L 636.5259 568.669423 
L 637.70355 570.273658 
L 638.8812 571.298562 
L 640.05885 572.621892 
L 641.2365 573.765347 
L 642.41415 574.547517 
L 643.5918 576.022988 
L 645.9471 577.943798 
L 650.6577 583.13257 
L 651.83535 584.182533 
L 654.19065 586.636653 
L 655.3683 587.465934 
L 656.54595 589.165811 
L 657.7236 589.982916 
L 661.25655 593.434193 
L 662.4342 594.839989 
L 664.7895 597.159197 
L 665.96715 598.472143 
L 667.1448 599.341042 
L 670.67775 602.593848 
L 671.8554 603.361523 
L 673.03305 604.652 
L 674.2107 605.464389 
L 675.38835 606.67836 
L 676.566 607.434669 
L 677.74365 608.604461 
L 678.9213 609.532337 
L 680.09895 610.818683 
L 683.6319 613.650599 
L 684.80955 614.734218 
L 685.9872 615.405752 
L 689.52015 619.160693 
L 690.6978 619.979393 
L 693.0531 622.606829 
L 695.4084 624.914121 
L 696.58605 626.11082 
L 697.7637 627.014917 
L 698.94135 628.646797 
L 701.29665 630.933364 
L 703.65195 632.846438 
L 704.8296 634.004221 
L 706.00725 635.495819 
L 707.1849 636.648346 
L 708.36255 637.464691 
L 713.07315 642.947518 
L 717.78375 647.296196 
L 720.13905 649.771628 
L 721.3167 650.714645 
L 722.49435 651.95543 
L 724.84965 654.117594 
L 726.0273 655.325373 
L 727.20495 656.110465 
L 731.91555 660.223457 
L 733.0932 661.157336 
L 734.27085 661.65022 
L 736.62615 664.036684 
L 737.8038 665.435918 
L 738.98145 666.63692 
L 740.1591 667.265506 
L 741.33675 668.209859 
L 742.5144 668.936972 
L 744.8697 671.265217 
L 746.04735 672.119576 
L 747.225 672.802311 
L 749.5803 674.819869 
L 750.75795 675.467309 
L 751.9356 676.321807 
L 753.11325 677.824371 
L 754.2909 678.719834 
L 755.46855 679.3293 
L 756.6462 680.270707 
L 757.82385 680.890658 
L 759.0015 682.373319 
L 760.17915 683.398155 
L 761.3568 683.813112 
L 763.7121 685.32461 
L 766.0674 686.56338 
L 767.24505 687.761573 
L 768.4227 688.38986 
L 769.60035 688.463244 
L 770.778 689.166474 
L 771.95565 689.473235 
L 773.1333 689.589467 
L 774.31095 689.92849 
L 775.4886 690.041621 
L 776.66625 690.0308 
L 779.02155 690.758721 
L 780.1992 691.425801 
L 781.37685 691.452252 
L 782.5545 691.92534 
L 783.73215 691.526035 
L 786.08745 692.772912 
L 787.2651 692.419711 
L 789.6204 693.171053 
L 790.79805 693.390169 
L 791.9757 693.097952 
L 793.15335 693.429605 
L 795.50865 692.923506 
L 799.0416 692.796652 
L 800.21925 693.175113 
L 801.3969 692.682699 
L 802.57455 692.407798 
L 803.7522 692.311479 
L 804.92985 692.833025 
L 806.1075 692.54389 
L 808.4628 692.710883 
L 810.8181 691.788499 
L 811.99575 692.313531 
L 813.1734 692.34969 
L 814.35105 692.68628 
L 815.5287 692.623173 
L 819.06165 692.937313 
L 821.41695 693.098666 
L 822.5946 691.892036 
L 823.77225 692.344421 
L 826.12755 692.915294 
L 827.3052 692.601938 
L 828.48285 692.420661 
L 829.6605 692.664305 
L 830.83815 693.027871 
L 832.0158 692.487652 
L 835.54875 693.345543 
L 836.7264 692.901001 
L 839.0817 693.957994 
L 842.61465 694.593362 
L 843.7923 694.197798 
L 844.96995 694.23559 
L 847.32525 694.694235 
L 848.5029 695.208065 
L 849.68055 695.068036 
L 850.8582 695.065704 
L 852.03585 694.893336 
L 853.2135 694.366889 
L 855.5688 693.897314 
L 856.74645 694.317182 
L 857.9241 694.215571 
L 859.10175 694.521374 
L 860.2794 694.605938 
L 861.45705 694.253294 
L 862.6347 693.74518 
L 863.81235 693.788517 
L 864.99 694.190579 
L 866.16765 693.411297 
L 867.3453 693.948798 
L 868.52295 693.514175 
L 870.87825 693.339212 
L 872.0559 693.76899 
L 873.23355 693.599824 
L 874.4112 694.337784 
L 875.58885 693.831341 
L 876.7665 693.935141 
L 877.94415 694.313564 
L 879.1218 693.83412 
L 880.29945 694.232464 
L 881.4771 693.600021 
L 882.65475 693.632172 
L 883.8324 694.588607 
L 887.36535 693.735626 
L 888.543 694.075716 
L 890.8983 694.286532 
L 892.07595 693.776181 
L 893.2536 693.458613 
L 894.43125 693.665244 
L 895.6089 692.998749 
L 896.78655 693.097724 
L 897.9642 693.464659 
L 900.3195 693.458752 
L 901.49715 693.187512 
L 902.6748 693.365724 
L 903.85245 693.285154 
L 906.20775 693.967714 
L 907.3854 693.718622 
L 908.56305 694.195592 
L 909.7407 694.274198 
L 910.91835 693.611662 
L 912.096 693.351979 
L 913.27365 693.337649 
L 914.4513 693.943517 
L 915.62895 693.631191 
L 916.8066 693.841523 
L 917.98425 693.683943 
L 919.1619 693.305703 
L 921.5172 692.884032 
L 922.69485 692.952938 
L 923.8725 693.665132 
L 925.05015 693.188514 
L 926.2278 693.416977 
L 927.40545 693.821025 
L 928.5831 693.700687 
L 929.76075 694.099086 
L 930.9384 693.643583 
L 932.11605 693.791495 
L 933.2937 693.578571 
L 934.47135 694.284989 
L 935.649 694.232312 
L 936.82665 694.489241 
L 938.0043 694.06131 
L 940.3596 694.153975 
L 941.53725 694.470909 
L 942.7149 694.648089 
L 945.0702 693.938361 
L 946.24785 694.378986 
L 947.4255 694.116793 
L 948.60315 694.060421 
L 949.7808 694.358859 
L 950.95845 694.07453 
L 954.4914 693.66383 
L 955.66905 693.376792 
L 956.8467 693.715751 
L 961.5573 694.311712 
L 962.73495 694.381824 
L 963.9126 694.26279 
L 966.2679 693.618045 
L 967.44555 694.374108 
L 968.6232 693.846065 
L 969.80085 694.137832 
L 972.15615 694.148913 
L 974.51145 694.515471 
L 975.6891 694.240574 
L 976.86675 693.523206 
L 978.0444 694.081017 
L 979.22205 694.020379 
L 980.3997 693.373939 
L 981.57735 694.137148 
L 982.755 693.669568 
L 983.93265 693.520366 
L 985.1103 693.069713 
L 987.4656 693.344712 
L 988.64325 692.8477 
L 989.8209 692.99736 
L 990.99855 693.36574 
L 992.1762 694.117329 
L 993.35385 694.000555 
L 994.5315 694.08459 
L 995.70915 693.585115 
L 999.2421 694.51082 
L 1000.41975 693.930899 
L 1002.77505 693.381497 
L 1003.9527 693.436904 
L 1005.13035 693.909055 
L 1006.308 693.673853 
L 1007.48565 694.005589 
L 1008.6633 694.102655 
L 1009.84095 694.709902 
L 1011.0186 694.716025 
L 1012.19625 694.500544 
L 1013.3739 694.598723 
L 1014.55155 694.841413 
L 1015.7292 694.654888 
L 1016.90685 694.92431 
L 1018.0845 694.459191 
L 1019.26215 694.596681 
L 1020.4398 694.16216 
L 1021.61745 694.538726 
L 1022.7951 694.753978 
L 1023.97275 694.808311 
L 1025.1504 694.140707 
L 1026.32805 693.949313 
L 1027.5057 694.57754 
L 1028.68335 694.667163 
L 1029.861 693.381071 
L 1033.39395 694.195839 
L 1034.5716 694.055919 
L 1035.74925 693.783199 
L 1039.2822 694.102537 
L 1040.45985 693.981291 
L 1041.6375 694.253672 
L 1042.81515 693.409058 
L 1043.9928 693.830741 
L 1045.17045 694.089091 
L 1046.3481 694.047903 
L 1047.52575 693.816614 
L 1048.7034 694.257021 
L 1049.88105 693.374235 
L 1051.0587 694.067851 
L 1052.23635 693.907138 
L 1053.414 694.316267 
L 1054.59165 694.356598 
L 1055.7693 694.122567 
L 1058.1246 693.909684 
L 1059.30225 693.941966 
L 1060.4799 693.524521 
L 1061.65755 693.849862 
L 1064.01285 693.522345 
L 1066.36815 693.392943 
L 1067.5458 692.905288 
L 1068.72345 692.850048 
L 1069.9011 693.579922 
L 1071.07875 693.053917 
L 1072.2564 693.486342 
L 1075.78935 693.112694 
L 1078.14465 693.942378 
L 1079.3223 694.304454 
L 1080.49995 694.811372 
L 1081.6776 694.262672 
L 1082.85525 694.424713 
L 1084.0329 693.716868 
L 1085.21055 694.001151 
L 1086.3882 693.965396 
L 1087.56585 694.121765 
L 1088.7435 694.053334 
L 1089.92115 694.34287 
L 1092.27645 694.595931 
L 1093.4541 694.59144 
L 1094.63175 694.459335 
L 1095.8094 694.627676 
L 1096.98705 694.184222 
L 1098.1647 694.326081 
L 1099.34235 693.932741 
L 1101.69765 694.32715 
L 1102.8753 694.728565 
L 1105.2306 694.601602 
L 1106.40825 694.775644 
L 1107.5859 694.445746 
L 1108.76355 694.650277 
L 1109.9412 694.253659 
L 1111.11885 694.302054 
L 1112.2965 694.093581 
L 1113.47415 694.392548 
L 1114.6518 694.090865 
L 1115.82945 694.167514 
L 1117.0071 693.689449 
L 1119.3624 693.099882 
L 1120.54005 693.42216 
L 1121.7177 693.059929 
L 1122.89535 693.542958 
L 1124.073 693.229543 
L 1125.25065 693.210408 
L 1126.4283 692.98369 
L 1127.60595 693.326607 
L 1129.96125 693.253093 
L 1131.1389 693.830987 
L 1132.31655 693.182773 
L 1133.4942 692.931448 
L 1134.67185 692.883413 
L 1135.8495 693.192258 
L 1137.02715 693.170658 
L 1138.2048 692.728972 
L 1139.38245 692.628803 
L 1141.73775 693.208071 
L 1142.9154 693.099884 
L 1144.09305 693.344382 
L 1145.2707 693.041211 
L 1146.44835 693.299843 
L 1147.626 693.6924 
L 1148.80365 693.328855 
L 1151.15895 693.108537 
L 1152.3366 693.553318 
L 1155.86955 693.48862 
L 1157.0472 693.793443 
L 1158.22485 693.463288 
L 1159.4025 693.497619 
L 1161.7578 693.158053 
L 1162.93545 693.84831 
L 1167.64605 694.211321 
L 1168.8237 694.405482 
L 1170.00135 693.93744 
L 1171.179 693.97777 
L 1172.35665 693.87383 
L 1173.5343 693.49462 
L 1174.71195 693.423162 
L 1175.8896 693.657627 
L 1177.06725 693.742246 
L 1178.2449 693.314027 
L 1179.42255 693.58402 
L 1180.6002 693.215322 
L 1181.77785 693.426021 
L 1182.9555 693.335587 
L 1184.13315 693.074186 
L 1186.48845 693.21074 
L 1187.6661 693.59623 
L 1188.84375 693.817985 
L 1190.0214 693.746328 
L 1191.19905 693.308586 
L 1192.3767 693.152962 
L 1193.55435 693.420408 
L 1194.732 693.263653 
L 1197.0873 693.372582 
L 1199.4426 693.951544 
L 1200.62025 694.058879 
L 1201.7979 694.393994 
L 1202.97555 694.145718 
L 1206.5085 694.369585 
L 1208.8638 694.346584 
L 1210.04145 693.817024 
L 1211.2191 693.894126 
L 1214.75205 693.335076 
L 1217.10735 693.538732 
L 1218.285 693.143023 
L 1220.6403 693.175663 
L 1221.81795 693.186586 
L 1222.9956 693.417618 
L 1224.17325 693.534764 
L 1225.3509 693.316511 
L 1226.52855 693.854935 
L 1227.7062 694.189181 
L 1228.88385 694.160015 
L 1230.0615 694.417654 
L 1231.23915 694.490985 
L 1232.4168 695.289452 
L 1233.59445 694.806911 
L 1234.7721 694.803913 
L 1235.94975 695.239116 
L 1237.1274 694.680962 
L 1238.30505 694.474321 
L 1239.4827 694.418611 
L 1240.66035 694.84761 
L 1241.838 694.659801 
L 1243.01565 695.064987 
L 1244.1933 694.407202 
L 1245.37095 694.611779 
L 1246.5486 694.391883 
L 1247.72625 693.967478 
L 1248.9039 694.397808 
L 1250.08155 694.184504 
L 1251.2592 694.329367 
L 1252.43685 694.868954 
L 1253.6145 694.439065 
L 1254.79215 694.623501 
L 1255.9698 694.22489 
L 1257.14745 694.087259 
L 1258.3251 694.521171 
L 1259.50275 693.925077 
L 1261.85805 693.785904 
L 1263.0357 693.249781 
L 1264.21335 693.460072 
L 1265.391 693.076479 
L 1266.56865 693.514092 
L 1267.7463 693.180633 
L 1270.1016 692.971031 
L 1271.27925 692.897695 
L 1273.63455 692.19382 
L 1274.8122 692.602466 
L 1275.98985 692.86129 
L 1277.1675 692.808347 
L 1278.34515 693.040517 
L 1279.5228 692.66603 
L 1280.70045 692.416712 
L 1283.05575 692.704121 
L 1284.2334 693.198452 
L 1285.41105 693.013412 
L 1286.5887 693.169988 
L 1287.76635 692.817232 
L 1288.944 692.951926 
L 1290.12165 692.937687 
L 1291.2993 693.342781 
L 1292.47695 693.378904 
L 1293.6546 693.727894 
L 1296.0099 693.761125 
L 1297.18755 694.063442 
L 1298.3652 694.060336 
L 1299.54285 693.616037 
L 1300.7205 692.863831 
L 1301.89815 693.368364 
L 1303.0758 693.490494 
L 1304.25345 693.421202 
L 1305.4311 693.879724 
L 1306.60875 693.706895 
L 1307.7864 693.86443 
L 1310.1417 693.243114 
L 1311.31935 694.055531 
L 1312.497 693.68507 
L 1313.67465 693.445154 
L 1314.8523 693.663214 
L 1317.2076 693.748184 
L 1318.38525 694.190872 
L 1319.5629 694.47794 
L 1320.74055 694.422743 
L 1321.9182 694.613954 
L 1323.09585 693.59175 
L 1324.2735 693.07484 
L 1326.6288 693.572392 
L 1327.80645 692.971712 
L 1331.3394 693.293981 
L 1332.51705 693.090578 
L 1336.05 692.999184 
L 1336.05 692.999184 
" style="fill:none;stroke:#008000;stroke-dasharray:6.000000,6.000000;stroke-dashoffset:0.0;stroke-width:2.0;"/>
   </g>
   <g id="patch_3">
    <path d="M 158.4 51.3 
L 1336.05 51.3 
" style="fill:none;stroke:#000000;stroke-linecap:square;stroke-linejoin:miter;"/>
   </g>
   <g id="patch_4">
    <path d="M 1336.05 747 
L 1336.05 51.3 
" style="fill:none;stroke:#000000;stroke-linecap:square;stroke-linejoin:miter;"/>
   </g>
   <g id="patch_5">
    <path d="M 158.4 747 
L 1336.05 747 
" style="fill:none;stroke:#000000;stroke-linecap:square;stroke-linejoin:miter;"/>
   </g>
   <g id="patch_6">
    <path d="M 158.4 747 
L 158.4 51.3 
" style="fill:none;stroke:#000000;stroke-linecap:square;stroke-linejoin:miter;"/>
   </g>
   <g id="matplotlib.axis_1">
    <g id="xtick_1">
     <g id="line2d_3">
      <defs>
       <path d="M 0 0 
L 0 -4 
" id="me7abcc54c0" style="stroke:#000000;stroke-width:0.5;"/>
      </defs>
      <g>
       <use style="stroke:#000000;stroke-width:0.5;" x="158.4" xlink:href="#me7abcc54c0" y="747.0"/>
      </g>
     </g>
     <g id="line2d_4">
      <defs>
       <path d="M 0 0 
L 0 4 
" id="m35f3ca5418" style="stroke:#000000;stroke-width:0.5;"/>
      </defs>
      <g>
       <use style="stroke:#000000;stroke-width:0.5;" x="158.4" xlink:href="#m35f3ca5418" y="51.3"/>
      </g>
     </g>
     <g id="text_1">
      <!-- 0 -->
      <defs>
       <path d="M 31.78125 66.40625 
Q 24.171875 66.40625 20.328125 58.90625 
Q 16.5 51.421875 16.5 36.375 
Q 16.5 21.390625 20.328125 13.890625 
Q 24.171875 6.390625 31.78125 6.390625 
Q 39.453125 6.390625 43.28125 13.890625 
Q 47.125 21.390625 47.125 36.375 
Q 47.125 51.421875 43.28125 58.90625 
Q 39.453125 66.40625 31.78125 66.40625 
M 31.78125 74.21875 
Q 44.046875 74.21875 50.515625 64.515625 
Q 56.984375 54.828125 56.984375 36.375 
Q 56.984375 17.96875 50.515625 8.265625 
Q 44.046875 -1.421875 31.78125 -1.421875 
Q 19.53125 -1.421875 13.0625 8.265625 
Q 6.59375 17.96875 6.59375 36.375 
Q 6.59375 54.828125 13.0625 64.515625 
Q 19.53125 74.21875 31.78125 74.21875 
" id="BitstreamVeraSans-Roman-30"/>
      </defs>
      <g transform="translate(148.85625 773.7953125)scale(0.3 -0.3)">
       <use xlink:href="#BitstreamVeraSans-Roman-30"/>
      </g>
     </g>
    </g>
    <g id="xtick_2">
     <g id="line2d_5">
      <g>
       <use style="stroke:#000000;stroke-width:0.5;" x="393.93" xlink:href="#me7abcc54c0" y="747.0"/>
      </g>
     </g>
     <g id="line2d_6">
      <g>
       <use style="stroke:#000000;stroke-width:0.5;" x="393.93" xlink:href="#m35f3ca5418" y="51.3"/>
      </g>
     </g>
     <g id="text_2">
      <!-- 20000 -->
      <defs>
       <path d="M 19.1875 8.296875 
L 53.609375 8.296875 
L 53.609375 0 
L 7.328125 0 
L 7.328125 8.296875 
Q 12.9375 14.109375 22.625 23.890625 
Q 32.328125 33.6875 34.8125 36.53125 
Q 39.546875 41.84375 41.421875 45.53125 
Q 43.3125 49.21875 43.3125 52.78125 
Q 43.3125 58.59375 39.234375 62.25 
Q 35.15625 65.921875 28.609375 65.921875 
Q 23.96875 65.921875 18.8125 64.3125 
Q 13.671875 62.703125 7.8125 59.421875 
L 7.8125 69.390625 
Q 13.765625 71.78125 18.9375 73 
Q 24.125 74.21875 28.421875 74.21875 
Q 39.75 74.21875 46.484375 68.546875 
Q 53.21875 62.890625 53.21875 53.421875 
Q 53.21875 48.921875 51.53125 44.890625 
Q 49.859375 40.875 45.40625 35.40625 
Q 44.1875 33.984375 37.640625 27.21875 
Q 31.109375 20.453125 19.1875 8.296875 
" id="BitstreamVeraSans-Roman-32"/>
      </defs>
      <g transform="translate(346.21125 773.7953125)scale(0.3 -0.3)">
       <use xlink:href="#BitstreamVeraSans-Roman-32"/>
       <use x="63.623046875" xlink:href="#BitstreamVeraSans-Roman-30"/>
       <use x="127.24609375" xlink:href="#BitstreamVeraSans-Roman-30"/>
       <use x="190.869140625" xlink:href="#BitstreamVeraSans-Roman-30"/>
       <use x="254.4921875" xlink:href="#BitstreamVeraSans-Roman-30"/>
      </g>
     </g>
    </g>
    <g id="xtick_3">
     <g id="line2d_7">
      <g>
       <use style="stroke:#000000;stroke-width:0.5;" x="629.46" xlink:href="#me7abcc54c0" y="747.0"/>
      </g>
     </g>
     <g id="line2d_8">
      <g>
       <use style="stroke:#000000;stroke-width:0.5;" x="629.46" xlink:href="#m35f3ca5418" y="51.3"/>
      </g>
     </g>
     <g id="text_3">
      <!-- 40000 -->
      <defs>
       <path d="M 37.796875 64.3125 
L 12.890625 25.390625 
L 37.796875 25.390625 
z
M 35.203125 72.90625 
L 47.609375 72.90625 
L 47.609375 25.390625 
L 58.015625 25.390625 
L 58.015625 17.1875 
L 47.609375 17.1875 
L 47.609375 0 
L 37.796875 0 
L 37.796875 17.1875 
L 4.890625 17.1875 
L 4.890625 26.703125 
z
" id="BitstreamVeraSans-Roman-34"/>
      </defs>
      <g transform="translate(581.74125 773.7953125)scale(0.3 -0.3)">
       <use xlink:href="#BitstreamVeraSans-Roman-34"/>
       <use x="63.623046875" xlink:href="#BitstreamVeraSans-Roman-30"/>
       <use x="127.24609375" xlink:href="#BitstreamVeraSans-Roman-30"/>
       <use x="190.869140625" xlink:href="#BitstreamVeraSans-Roman-30"/>
       <use x="254.4921875" xlink:href="#BitstreamVeraSans-Roman-30"/>
      </g>
     </g>
    </g>
    <g id="xtick_4">
     <g id="line2d_9">
      <g>
       <use style="stroke:#000000;stroke-width:0.5;" x="864.99" xlink:href="#me7abcc54c0" y="747.0"/>
      </g>
     </g>
     <g id="line2d_10">
      <g>
       <use style="stroke:#000000;stroke-width:0.5;" x="864.99" xlink:href="#m35f3ca5418" y="51.3"/>
      </g>
     </g>
     <g id="text_4">
      <!-- 60000 -->
      <defs>
       <path d="M 33.015625 40.375 
Q 26.375 40.375 22.484375 35.828125 
Q 18.609375 31.296875 18.609375 23.390625 
Q 18.609375 15.53125 22.484375 10.953125 
Q 26.375 6.390625 33.015625 6.390625 
Q 39.65625 6.390625 43.53125 10.953125 
Q 47.40625 15.53125 47.40625 23.390625 
Q 47.40625 31.296875 43.53125 35.828125 
Q 39.65625 40.375 33.015625 40.375 
M 52.59375 71.296875 
L 52.59375 62.3125 
Q 48.875 64.0625 45.09375 64.984375 
Q 41.3125 65.921875 37.59375 65.921875 
Q 27.828125 65.921875 22.671875 59.328125 
Q 17.53125 52.734375 16.796875 39.40625 
Q 19.671875 43.65625 24.015625 45.921875 
Q 28.375 48.1875 33.59375 48.1875 
Q 44.578125 48.1875 50.953125 41.515625 
Q 57.328125 34.859375 57.328125 23.390625 
Q 57.328125 12.15625 50.6875 5.359375 
Q 44.046875 -1.421875 33.015625 -1.421875 
Q 20.359375 -1.421875 13.671875 8.265625 
Q 6.984375 17.96875 6.984375 36.375 
Q 6.984375 53.65625 15.1875 63.9375 
Q 23.390625 74.21875 37.203125 74.21875 
Q 40.921875 74.21875 44.703125 73.484375 
Q 48.484375 72.75 52.59375 71.296875 
" id="BitstreamVeraSans-Roman-36"/>
      </defs>
      <g transform="translate(817.27125 773.7953125)scale(0.3 -0.3)">
       <use xlink:href="#BitstreamVeraSans-Roman-36"/>
       <use x="63.623046875" xlink:href="#BitstreamVeraSans-Roman-30"/>
       <use x="127.24609375" xlink:href="#BitstreamVeraSans-Roman-30"/>
       <use x="190.869140625" xlink:href="#BitstreamVeraSans-Roman-30"/>
       <use x="254.4921875" xlink:href="#BitstreamVeraSans-Roman-30"/>
      </g>
     </g>
    </g>
    <g id="xtick_5">
     <g id="line2d_11">
      <g>
       <use style="stroke:#000000;stroke-width:0.5;" x="1100.52" xlink:href="#me7abcc54c0" y="747.0"/>
      </g>
     </g>
     <g id="line2d_12">
      <g>
       <use style="stroke:#000000;stroke-width:0.5;" x="1100.52" xlink:href="#m35f3ca5418" y="51.3"/>
      </g>
     </g>
     <g id="text_5">
      <!-- 80000 -->
      <defs>
       <path d="M 31.78125 34.625 
Q 24.75 34.625 20.71875 30.859375 
Q 16.703125 27.09375 16.703125 20.515625 
Q 16.703125 13.921875 20.71875 10.15625 
Q 24.75 6.390625 31.78125 6.390625 
Q 38.8125 6.390625 42.859375 10.171875 
Q 46.921875 13.96875 46.921875 20.515625 
Q 46.921875 27.09375 42.890625 30.859375 
Q 38.875 34.625 31.78125 34.625 
M 21.921875 38.8125 
Q 15.578125 40.375 12.03125 44.71875 
Q 8.5 49.078125 8.5 55.328125 
Q 8.5 64.0625 14.71875 69.140625 
Q 20.953125 74.21875 31.78125 74.21875 
Q 42.671875 74.21875 48.875 69.140625 
Q 55.078125 64.0625 55.078125 55.328125 
Q 55.078125 49.078125 51.53125 44.71875 
Q 48 40.375 41.703125 38.8125 
Q 48.828125 37.15625 52.796875 32.3125 
Q 56.78125 27.484375 56.78125 20.515625 
Q 56.78125 9.90625 50.3125 4.234375 
Q 43.84375 -1.421875 31.78125 -1.421875 
Q 19.734375 -1.421875 13.25 4.234375 
Q 6.78125 9.90625 6.78125 20.515625 
Q 6.78125 27.484375 10.78125 32.3125 
Q 14.796875 37.15625 21.921875 38.8125 
M 18.3125 54.390625 
Q 18.3125 48.734375 21.84375 45.5625 
Q 25.390625 42.390625 31.78125 42.390625 
Q 38.140625 42.390625 41.71875 45.5625 
Q 45.3125 48.734375 45.3125 54.390625 
Q 45.3125 60.0625 41.71875 63.234375 
Q 38.140625 66.40625 31.78125 66.40625 
Q 25.390625 66.40625 21.84375 63.234375 
Q 18.3125 60.0625 18.3125 54.390625 
" id="BitstreamVeraSans-Roman-38"/>
      </defs>
      <g transform="translate(1052.80125 773.7953125)scale(0.3 -0.3)">
       <use xlink:href="#BitstreamVeraSans-Roman-38"/>
       <use x="63.623046875" xlink:href="#BitstreamVeraSans-Roman-30"/>
       <use x="127.24609375" xlink:href="#BitstreamVeraSans-Roman-30"/>
       <use x="190.869140625" xlink:href="#BitstreamVeraSans-Roman-30"/>
       <use x="254.4921875" xlink:href="#BitstreamVeraSans-Roman-30"/>
      </g>
     </g>
    </g>
    <g id="xtick_6">
     <g id="line2d_13">
      <g>
       <use style="stroke:#000000;stroke-width:0.5;" x="1336.05" xlink:href="#me7abcc54c0" y="747.0"/>
      </g>
     </g>
     <g id="line2d_14">
      <g>
       <use style="stroke:#000000;stroke-width:0.5;" x="1336.05" xlink:href="#m35f3ca5418" y="51.3"/>
      </g>
     </g>
     <g id="text_6">
      <!-- 100000 -->
      <defs>
       <path d="M 12.40625 8.296875 
L 28.515625 8.296875 
L 28.515625 63.921875 
L 10.984375 60.40625 
L 10.984375 69.390625 
L 28.421875 72.90625 
L 38.28125 72.90625 
L 38.28125 8.296875 
L 54.390625 8.296875 
L 54.390625 0 
L 12.40625 0 
z
" id="BitstreamVeraSans-Roman-31"/>
      </defs>
      <g transform="translate(1278.7875 773.7953125)scale(0.3 -0.3)">
       <use xlink:href="#BitstreamVeraSans-Roman-31"/>
       <use x="63.623046875" xlink:href="#BitstreamVeraSans-Roman-30"/>
       <use x="127.24609375" xlink:href="#BitstreamVeraSans-Roman-30"/>
       <use x="190.869140625" xlink:href="#BitstreamVeraSans-Roman-30"/>
       <use x="254.4921875" xlink:href="#BitstreamVeraSans-Roman-30"/>
       <use x="318.115234375" xlink:href="#BitstreamVeraSans-Roman-30"/>
      </g>
     </g>
    </g>
    <g id="text_7">
     <!-- iterations -->
     <defs>
      <path d="M 54.890625 33.015625 
L 54.890625 0 
L 45.90625 0 
L 45.90625 32.71875 
Q 45.90625 40.484375 42.875 44.328125 
Q 39.84375 48.1875 33.796875 48.1875 
Q 26.515625 48.1875 22.3125 43.546875 
Q 18.109375 38.921875 18.109375 30.90625 
L 18.109375 0 
L 9.078125 0 
L 9.078125 54.6875 
L 18.109375 54.6875 
L 18.109375 46.1875 
Q 21.34375 51.125 25.703125 53.5625 
Q 30.078125 56 35.796875 56 
Q 45.21875 56 50.046875 50.171875 
Q 54.890625 44.34375 54.890625 33.015625 
" id="BitstreamVeraSans-Roman-6e"/>
      <path d="M 34.28125 27.484375 
Q 23.390625 27.484375 19.1875 25 
Q 14.984375 22.515625 14.984375 16.5 
Q 14.984375 11.71875 18.140625 8.90625 
Q 21.296875 6.109375 26.703125 6.109375 
Q 34.1875 6.109375 38.703125 11.40625 
Q 43.21875 16.703125 43.21875 25.484375 
L 43.21875 27.484375 
z
M 52.203125 31.203125 
L 52.203125 0 
L 43.21875 0 
L 43.21875 8.296875 
Q 40.140625 3.328125 35.546875 0.953125 
Q 30.953125 -1.421875 24.3125 -1.421875 
Q 15.921875 -1.421875 10.953125 3.296875 
Q 6 8.015625 6 15.921875 
Q 6 25.140625 12.171875 29.828125 
Q 18.359375 34.515625 30.609375 34.515625 
L 43.21875 34.515625 
L 43.21875 35.40625 
Q 43.21875 41.609375 39.140625 45 
Q 35.0625 48.390625 27.6875 48.390625 
Q 23 48.390625 18.546875 47.265625 
Q 14.109375 46.140625 10.015625 43.890625 
L 10.015625 52.203125 
Q 14.9375 54.109375 19.578125 55.046875 
Q 24.21875 56 28.609375 56 
Q 40.484375 56 46.34375 49.84375 
Q 52.203125 43.703125 52.203125 31.203125 
" id="BitstreamVeraSans-Roman-61"/>
      <path d="M 30.609375 48.390625 
Q 23.390625 48.390625 19.1875 42.75 
Q 14.984375 37.109375 14.984375 27.296875 
Q 14.984375 17.484375 19.15625 11.84375 
Q 23.34375 6.203125 30.609375 6.203125 
Q 37.796875 6.203125 41.984375 11.859375 
Q 46.1875 17.53125 46.1875 27.296875 
Q 46.1875 37.015625 41.984375 42.703125 
Q 37.796875 48.390625 30.609375 48.390625 
M 30.609375 56 
Q 42.328125 56 49.015625 48.375 
Q 55.71875 40.765625 55.71875 27.296875 
Q 55.71875 13.875 49.015625 6.21875 
Q 42.328125 -1.421875 30.609375 -1.421875 
Q 18.84375 -1.421875 12.171875 6.21875 
Q 5.515625 13.875 5.515625 27.296875 
Q 5.515625 40.765625 12.171875 48.375 
Q 18.84375 56 30.609375 56 
" id="BitstreamVeraSans-Roman-6f"/>
      <path d="M 9.421875 54.6875 
L 18.40625 54.6875 
L 18.40625 0 
L 9.421875 0 
z
M 9.421875 75.984375 
L 18.40625 75.984375 
L 18.40625 64.59375 
L 9.421875 64.59375 
z
" id="BitstreamVeraSans-Roman-69"/>
      <path d="M 56.203125 29.59375 
L 56.203125 25.203125 
L 14.890625 25.203125 
Q 15.484375 15.921875 20.484375 11.0625 
Q 25.484375 6.203125 34.421875 6.203125 
Q 39.59375 6.203125 44.453125 7.46875 
Q 49.3125 8.734375 54.109375 11.28125 
L 54.109375 2.78125 
Q 49.265625 0.734375 44.1875 -0.34375 
Q 39.109375 -1.421875 33.890625 -1.421875 
Q 20.796875 -1.421875 13.15625 6.1875 
Q 5.515625 13.8125 5.515625 26.8125 
Q 5.515625 40.234375 12.765625 48.109375 
Q 20.015625 56 32.328125 56 
Q 43.359375 56 49.78125 48.890625 
Q 56.203125 41.796875 56.203125 29.59375 
M 47.21875 32.234375 
Q 47.125 39.59375 43.09375 43.984375 
Q 39.0625 48.390625 32.421875 48.390625 
Q 24.90625 48.390625 20.390625 44.140625 
Q 15.875 39.890625 15.1875 32.171875 
z
" id="BitstreamVeraSans-Roman-65"/>
      <path d="M 18.3125 70.21875 
L 18.3125 54.6875 
L 36.8125 54.6875 
L 36.8125 47.703125 
L 18.3125 47.703125 
L 18.3125 18.015625 
Q 18.3125 11.328125 20.140625 9.421875 
Q 21.96875 7.515625 27.59375 7.515625 
L 36.8125 7.515625 
L 36.8125 0 
L 27.59375 0 
Q 17.1875 0 13.234375 3.875 
Q 9.28125 7.765625 9.28125 18.015625 
L 9.28125 47.703125 
L 2.6875 47.703125 
L 2.6875 54.6875 
L 9.28125 54.6875 
L 9.28125 70.21875 
z
" id="BitstreamVeraSans-Roman-74"/>
      <path d="M 41.109375 46.296875 
Q 39.59375 47.171875 37.8125 47.578125 
Q 36.03125 48 33.890625 48 
Q 26.265625 48 22.1875 43.046875 
Q 18.109375 38.09375 18.109375 28.8125 
L 18.109375 0 
L 9.078125 0 
L 9.078125 54.6875 
L 18.109375 54.6875 
L 18.109375 46.1875 
Q 20.953125 51.171875 25.484375 53.578125 
Q 30.03125 56 36.53125 56 
Q 37.453125 56 38.578125 55.875 
Q 39.703125 55.765625 41.0625 55.515625 
z
" id="BitstreamVeraSans-Roman-72"/>
      <path d="M 44.28125 53.078125 
L 44.28125 44.578125 
Q 40.484375 46.53125 36.375 47.5 
Q 32.28125 48.484375 27.875 48.484375 
Q 21.1875 48.484375 17.84375 46.4375 
Q 14.5 44.390625 14.5 40.28125 
Q 14.5 37.15625 16.890625 35.375 
Q 19.28125 33.59375 26.515625 31.984375 
L 29.59375 31.296875 
Q 39.15625 29.25 43.1875 25.515625 
Q 47.21875 21.78125 47.21875 15.09375 
Q 47.21875 7.46875 41.1875 3.015625 
Q 35.15625 -1.421875 24.609375 -1.421875 
Q 20.21875 -1.421875 15.453125 -0.5625 
Q 10.6875 0.296875 5.421875 2 
L 5.421875 11.28125 
Q 10.40625 8.6875 15.234375 7.390625 
Q 20.0625 6.109375 24.8125 6.109375 
Q 31.15625 6.109375 34.5625 8.28125 
Q 37.984375 10.453125 37.984375 14.40625 
Q 37.984375 18.0625 35.515625 20.015625 
Q 33.0625 21.96875 24.703125 23.78125 
L 21.578125 24.515625 
Q 13.234375 26.265625 9.515625 29.90625 
Q 5.8125 33.546875 5.8125 39.890625 
Q 5.8125 47.609375 11.28125 51.796875 
Q 16.75 56 26.8125 56 
Q 31.78125 56 36.171875 55.265625 
Q 40.578125 54.546875 44.28125 53.078125 
" id="BitstreamVeraSans-Roman-73"/>
     </defs>
     <g transform="translate(676.04296875 807.8296875)scale(0.3 -0.3)">
      <use xlink:href="#BitstreamVeraSans-Roman-69"/>
      <use x="27.783203125" xlink:href="#BitstreamVeraSans-Roman-74"/>
      <use x="66.9921875" xlink:href="#BitstreamVeraSans-Roman-65"/>
      <use x="128.515625" xlink:href="#BitstreamVeraSans-Roman-72"/>
      <use x="169.62890625" xlink:href="#BitstreamVeraSans-Roman-61"/>
      <use x="230.908203125" xlink:href="#BitstreamVeraSans-Roman-74"/>
      <use x="270.1171875" xlink:href="#BitstreamVeraSans-Roman-69"/>
      <use x="297.900390625" xlink:href="#BitstreamVeraSans-Roman-6f"/>
      <use x="359.08203125" xlink:href="#BitstreamVeraSans-Roman-6e"/>
      <use x="422.4609375" xlink:href="#BitstreamVeraSans-Roman-73"/>
     </g>
    </g>
   </g>
   <g id="matplotlib.axis_2">
    <g id="ytick_1">
     <g id="line2d_15">
      <defs>
       <path d="M 0 0 
L 4 0 
" id="m8a24937d3c" style="stroke:#000000;stroke-width:0.5;"/>
      </defs>
      <g>
       <use style="stroke:#000000;stroke-width:0.5;" x="158.4" xlink:href="#m8a24937d3c" y="747.0"/>
      </g>
     </g>
     <g id="line2d_16">
      <defs>
       <path d="M 0 0 
L -4 0 
" id="m012ee5d8b7" style="stroke:#000000;stroke-width:0.5;"/>
      </defs>
      <g>
       <use style="stroke:#000000;stroke-width:0.5;" x="1336.05" xlink:href="#m012ee5d8b7" y="747.0"/>
      </g>
     </g>
     <g id="text_8">
      <!-- 60 -->
      <defs>
       <path d="M 10.59375 35.5 
L 73.1875 35.5 
L 73.1875 27.203125 
L 10.59375 27.203125 
z
" id="BitstreamVeraSans-Roman-2212"/>
      </defs>
      <g transform="translate(91.0859375 755.278125)scale(0.3 -0.3)">
       <use xlink:href="#BitstreamVeraSans-Roman-2212"/>
       <use x="83.7890625" xlink:href="#BitstreamVeraSans-Roman-36"/>
       <use x="147.412109375" xlink:href="#BitstreamVeraSans-Roman-30"/>
      </g>
     </g>
    </g>
    <g id="ytick_2">
     <g id="line2d_17">
      <g>
       <use style="stroke:#000000;stroke-width:0.5;" x="158.4" xlink:href="#m8a24937d3c" y="660.0375"/>
      </g>
     </g>
     <g id="line2d_18">
      <g>
       <use style="stroke:#000000;stroke-width:0.5;" x="1336.05" xlink:href="#m012ee5d8b7" y="660.0375"/>
      </g>
     </g>
     <g id="text_9">
      <!-- 50 -->
      <defs>
       <path d="M 10.796875 72.90625 
L 49.515625 72.90625 
L 49.515625 64.59375 
L 19.828125 64.59375 
L 19.828125 46.734375 
Q 21.96875 47.46875 24.109375 47.828125 
Q 26.265625 48.1875 28.421875 48.1875 
Q 40.625 48.1875 47.75 41.5 
Q 54.890625 34.8125 54.890625 23.390625 
Q 54.890625 11.625 47.5625 5.09375 
Q 40.234375 -1.421875 26.90625 -1.421875 
Q 22.3125 -1.421875 17.546875 -0.640625 
Q 12.796875 0.140625 7.71875 1.703125 
L 7.71875 11.625 
Q 12.109375 9.234375 16.796875 8.0625 
Q 21.484375 6.890625 26.703125 6.890625 
Q 35.15625 6.890625 40.078125 11.328125 
Q 45.015625 15.765625 45.015625 23.390625 
Q 45.015625 31 40.078125 35.4375 
Q 35.15625 39.890625 26.703125 39.890625 
Q 22.75 39.890625 18.8125 39.015625 
Q 14.890625 38.140625 10.796875 36.28125 
z
" id="BitstreamVeraSans-Roman-35"/>
      </defs>
      <g transform="translate(91.0859375 668.315625)scale(0.3 -0.3)">
       <use xlink:href="#BitstreamVeraSans-Roman-2212"/>
       <use x="83.7890625" xlink:href="#BitstreamVeraSans-Roman-35"/>
       <use x="147.412109375" xlink:href="#BitstreamVeraSans-Roman-30"/>
      </g>
     </g>
    </g>
    <g id="ytick_3">
     <g id="line2d_19">
      <g>
       <use style="stroke:#000000;stroke-width:0.5;" x="158.4" xlink:href="#m8a24937d3c" y="573.075"/>
      </g>
     </g>
     <g id="line2d_20">
      <g>
       <use style="stroke:#000000;stroke-width:0.5;" x="1336.05" xlink:href="#m012ee5d8b7" y="573.075"/>
      </g>
     </g>
     <g id="text_10">
      <!-- 40 -->
      <g transform="translate(91.0859375 581.353125)scale(0.3 -0.3)">
       <use xlink:href="#BitstreamVeraSans-Roman-2212"/>
       <use x="83.7890625" xlink:href="#BitstreamVeraSans-Roman-34"/>
       <use x="147.412109375" xlink:href="#BitstreamVeraSans-Roman-30"/>
      </g>
     </g>
    </g>
    <g id="ytick_4">
     <g id="line2d_21">
      <g>
       <use style="stroke:#000000;stroke-width:0.5;" x="158.4" xlink:href="#m8a24937d3c" y="486.1125"/>
      </g>
     </g>
     <g id="line2d_22">
      <g>
       <use style="stroke:#000000;stroke-width:0.5;" x="1336.05" xlink:href="#m012ee5d8b7" y="486.1125"/>
      </g>
     </g>
     <g id="text_11">
      <!-- 30 -->
      <defs>
       <path d="M 40.578125 39.3125 
Q 47.65625 37.796875 51.625 33 
Q 55.609375 28.21875 55.609375 21.1875 
Q 55.609375 10.40625 48.1875 4.484375 
Q 40.765625 -1.421875 27.09375 -1.421875 
Q 22.515625 -1.421875 17.65625 -0.515625 
Q 12.796875 0.390625 7.625 2.203125 
L 7.625 11.71875 
Q 11.71875 9.328125 16.59375 8.109375 
Q 21.484375 6.890625 26.8125 6.890625 
Q 36.078125 6.890625 40.9375 10.546875 
Q 45.796875 14.203125 45.796875 21.1875 
Q 45.796875 27.640625 41.28125 31.265625 
Q 36.765625 34.90625 28.71875 34.90625 
L 20.21875 34.90625 
L 20.21875 43.015625 
L 29.109375 43.015625 
Q 36.375 43.015625 40.234375 45.921875 
Q 44.09375 48.828125 44.09375 54.296875 
Q 44.09375 59.90625 40.109375 62.90625 
Q 36.140625 65.921875 28.71875 65.921875 
Q 24.65625 65.921875 20.015625 65.03125 
Q 15.375 64.15625 9.8125 62.3125 
L 9.8125 71.09375 
Q 15.4375 72.65625 20.34375 73.4375 
Q 25.25 74.21875 29.59375 74.21875 
Q 40.828125 74.21875 47.359375 69.109375 
Q 53.90625 64.015625 53.90625 55.328125 
Q 53.90625 49.265625 50.4375 45.09375 
Q 46.96875 40.921875 40.578125 39.3125 
" id="BitstreamVeraSans-Roman-33"/>
      </defs>
      <g transform="translate(91.0859375 494.390625)scale(0.3 -0.3)">
       <use xlink:href="#BitstreamVeraSans-Roman-2212"/>
       <use x="83.7890625" xlink:href="#BitstreamVeraSans-Roman-33"/>
       <use x="147.412109375" xlink:href="#BitstreamVeraSans-Roman-30"/>
      </g>
     </g>
    </g>
    <g id="ytick_5">
     <g id="line2d_23">
      <g>
       <use style="stroke:#000000;stroke-width:0.5;" x="158.4" xlink:href="#m8a24937d3c" y="399.15"/>
      </g>
     </g>
     <g id="line2d_24">
      <g>
       <use style="stroke:#000000;stroke-width:0.5;" x="1336.05" xlink:href="#m012ee5d8b7" y="399.15"/>
      </g>
     </g>
     <g id="text_12">
      <!-- 20 -->
      <g transform="translate(91.0859375 407.428125)scale(0.3 -0.3)">
       <use xlink:href="#BitstreamVeraSans-Roman-2212"/>
       <use x="83.7890625" xlink:href="#BitstreamVeraSans-Roman-32"/>
       <use x="147.412109375" xlink:href="#BitstreamVeraSans-Roman-30"/>
      </g>
     </g>
    </g>
    <g id="ytick_6">
     <g id="line2d_25">
      <g>
       <use style="stroke:#000000;stroke-width:0.5;" x="158.4" xlink:href="#m8a24937d3c" y="312.1875"/>
      </g>
     </g>
     <g id="line2d_26">
      <g>
       <use style="stroke:#000000;stroke-width:0.5;" x="1336.05" xlink:href="#m012ee5d8b7" y="312.1875"/>
      </g>
     </g>
     <g id="text_13">
      <!-- 10 -->
      <g transform="translate(91.0859375 320.465625)scale(0.3 -0.3)">
       <use xlink:href="#BitstreamVeraSans-Roman-2212"/>
       <use x="83.7890625" xlink:href="#BitstreamVeraSans-Roman-31"/>
       <use x="147.412109375" xlink:href="#BitstreamVeraSans-Roman-30"/>
      </g>
     </g>
    </g>
    <g id="ytick_7">
     <g id="line2d_27">
      <g>
       <use style="stroke:#000000;stroke-width:0.5;" x="158.4" xlink:href="#m8a24937d3c" y="225.225"/>
      </g>
     </g>
     <g id="line2d_28">
      <g>
       <use style="stroke:#000000;stroke-width:0.5;" x="1336.05" xlink:href="#m012ee5d8b7" y="225.225"/>
      </g>
     </g>
     <g id="text_14">
      <!-- 0 -->
      <g transform="translate(135.3125 233.503125)scale(0.3 -0.3)">
       <use xlink:href="#BitstreamVeraSans-Roman-30"/>
      </g>
     </g>
    </g>
    <g id="ytick_8">
     <g id="line2d_29">
      <g>
       <use style="stroke:#000000;stroke-width:0.5;" x="158.4" xlink:href="#m8a24937d3c" y="138.2625"/>
      </g>
     </g>
     <g id="line2d_30">
      <g>
       <use style="stroke:#000000;stroke-width:0.5;" x="1336.05" xlink:href="#m012ee5d8b7" y="138.2625"/>
      </g>
     </g>
     <g id="text_15">
      <!-- 10 -->
      <g transform="translate(116.225 146.540625)scale(0.3 -0.3)">
       <use xlink:href="#BitstreamVeraSans-Roman-31"/>
       <use x="63.623046875" xlink:href="#BitstreamVeraSans-Roman-30"/>
      </g>
     </g>
    </g>
    <g id="ytick_9">
     <g id="line2d_31">
      <g>
       <use style="stroke:#000000;stroke-width:0.5;" x="158.4" xlink:href="#m8a24937d3c" y="51.3"/>
      </g>
     </g>
     <g id="line2d_32">
      <g>
       <use style="stroke:#000000;stroke-width:0.5;" x="1336.05" xlink:href="#m012ee5d8b7" y="51.3"/>
      </g>
     </g>
     <g id="text_16">
      <!-- 20 -->
      <g transform="translate(116.225 59.578125)scale(0.3 -0.3)">
       <use xlink:href="#BitstreamVeraSans-Roman-32"/>
       <use x="63.623046875" xlink:href="#BitstreamVeraSans-Roman-30"/>
      </g>
     </g>
    </g>
    <g id="text_17">
     <!-- log(loss) -->
     <defs>
      <path d="M 8.015625 75.875 
L 15.828125 75.875 
Q 23.140625 64.359375 26.78125 53.3125 
Q 30.421875 42.28125 30.421875 31.390625 
Q 30.421875 20.453125 26.78125 9.375 
Q 23.140625 -1.703125 15.828125 -13.1875 
L 8.015625 -13.1875 
Q 14.5 -2 17.703125 9.0625 
Q 20.90625 20.125 20.90625 31.390625 
Q 20.90625 42.671875 17.703125 53.65625 
Q 14.5 64.65625 8.015625 75.875 
" id="BitstreamVeraSans-Roman-29"/>
      <path d="M 31 75.875 
Q 24.46875 64.65625 21.28125 53.65625 
Q 18.109375 42.671875 18.109375 31.390625 
Q 18.109375 20.125 21.3125 9.0625 
Q 24.515625 -2 31 -13.1875 
L 23.1875 -13.1875 
Q 15.875 -1.703125 12.234375 9.375 
Q 8.59375 20.453125 8.59375 31.390625 
Q 8.59375 42.28125 12.203125 53.3125 
Q 15.828125 64.359375 23.1875 75.875 
z
" id="BitstreamVeraSans-Roman-28"/>
      <path d="M 45.40625 27.984375 
Q 45.40625 37.75 41.375 43.109375 
Q 37.359375 48.484375 30.078125 48.484375 
Q 22.859375 48.484375 18.828125 43.109375 
Q 14.796875 37.75 14.796875 27.984375 
Q 14.796875 18.265625 18.828125 12.890625 
Q 22.859375 7.515625 30.078125 7.515625 
Q 37.359375 7.515625 41.375 12.890625 
Q 45.40625 18.265625 45.40625 27.984375 
M 54.390625 6.78125 
Q 54.390625 -7.171875 48.1875 -13.984375 
Q 42 -20.796875 29.203125 -20.796875 
Q 24.46875 -20.796875 20.265625 -20.09375 
Q 16.0625 -19.390625 12.109375 -17.921875 
L 12.109375 -9.1875 
Q 16.0625 -11.328125 19.921875 -12.34375 
Q 23.78125 -13.375 27.78125 -13.375 
Q 36.625 -13.375 41.015625 -8.765625 
Q 45.40625 -4.15625 45.40625 5.171875 
L 45.40625 9.625 
Q 42.625 4.78125 38.28125 2.390625 
Q 33.9375 0 27.875 0 
Q 17.828125 0 11.671875 7.65625 
Q 5.515625 15.328125 5.515625 27.984375 
Q 5.515625 40.671875 11.671875 48.328125 
Q 17.828125 56 27.875 56 
Q 33.9375 56 38.28125 53.609375 
Q 42.625 51.21875 45.40625 46.390625 
L 45.40625 54.6875 
L 54.390625 54.6875 
z
" id="BitstreamVeraSans-Roman-67"/>
      <path d="M 9.421875 75.984375 
L 18.40625 75.984375 
L 18.40625 0 
L 9.421875 0 
z
" id="BitstreamVeraSans-Roman-6c"/>
     </defs>
     <g transform="translate(79.846875 462.69609375)rotate(-90.0)scale(0.3 -0.3)">
      <use xlink:href="#BitstreamVeraSans-Roman-6c"/>
      <use x="27.783203125" xlink:href="#BitstreamVeraSans-Roman-6f"/>
      <use x="88.96484375" xlink:href="#BitstreamVeraSans-Roman-67"/>
      <use x="152.44140625" xlink:href="#BitstreamVeraSans-Roman-28"/>
      <use x="191.455078125" xlink:href="#BitstreamVeraSans-Roman-6c"/>
      <use x="219.23828125" xlink:href="#BitstreamVeraSans-Roman-6f"/>
      <use x="280.419921875" xlink:href="#BitstreamVeraSans-Roman-73"/>
      <use x="332.51953125" xlink:href="#BitstreamVeraSans-Roman-73"/>
      <use x="384.619140625" xlink:href="#BitstreamVeraSans-Roman-29"/>
     </g>
    </g>
   </g>
   <g id="legend_1">
    <g id="patch_7">
     <path d="M 843.876562 163.36875 
L 1321.05 163.36875 
L 1321.05 66.3 
L 843.876562 66.3 
z
" style="fill:#ffffff;stroke:#000000;stroke-linejoin:miter;"/>
    </g>
    <g id="line2d_33">
     <path d="M 864.876562 90.595312 
L 906.876562 90.595312 
" style="fill:none;stroke:#0000ff;stroke-linecap:square;stroke-width:2.0;"/>
    </g>
    <g id="line2d_34"/>
    <g id="text_18">
     <!-- random: step=0.001563 -->
     <defs>
      <path id="BitstreamVeraSans-Roman-20"/>
      <path d="M 52 44.1875 
Q 55.375 50.25 60.0625 53.125 
Q 64.75 56 71.09375 56 
Q 79.640625 56 84.28125 50.015625 
Q 88.921875 44.046875 88.921875 33.015625 
L 88.921875 0 
L 79.890625 0 
L 79.890625 32.71875 
Q 79.890625 40.578125 77.09375 44.375 
Q 74.3125 48.1875 68.609375 48.1875 
Q 61.625 48.1875 57.5625 43.546875 
Q 53.515625 38.921875 53.515625 30.90625 
L 53.515625 0 
L 44.484375 0 
L 44.484375 32.71875 
Q 44.484375 40.625 41.703125 44.40625 
Q 38.921875 48.1875 33.109375 48.1875 
Q 26.21875 48.1875 22.15625 43.53125 
Q 18.109375 38.875 18.109375 30.90625 
L 18.109375 0 
L 9.078125 0 
L 9.078125 54.6875 
L 18.109375 54.6875 
L 18.109375 46.1875 
Q 21.1875 51.21875 25.484375 53.609375 
Q 29.78125 56 35.6875 56 
Q 41.65625 56 45.828125 52.96875 
Q 50 49.953125 52 44.1875 
" id="BitstreamVeraSans-Roman-6d"/>
      <path d="M 11.71875 12.40625 
L 22.015625 12.40625 
L 22.015625 0 
L 11.71875 0 
z
M 11.71875 51.703125 
L 22.015625 51.703125 
L 22.015625 39.3125 
L 11.71875 39.3125 
z
" id="BitstreamVeraSans-Roman-3a"/>
      <path d="M 10.6875 12.40625 
L 21 12.40625 
L 21 0 
L 10.6875 0 
z
" id="BitstreamVeraSans-Roman-2e"/>
      <path d="M 10.59375 45.40625 
L 73.1875 45.40625 
L 73.1875 37.203125 
L 10.59375 37.203125 
z
M 10.59375 25.484375 
L 73.1875 25.484375 
L 73.1875 17.1875 
L 10.59375 17.1875 
z
" id="BitstreamVeraSans-Roman-3d"/>
      <path d="M 45.40625 46.390625 
L 45.40625 75.984375 
L 54.390625 75.984375 
L 54.390625 0 
L 45.40625 0 
L 45.40625 8.203125 
Q 42.578125 3.328125 38.25 0.953125 
Q 33.9375 -1.421875 27.875 -1.421875 
Q 17.96875 -1.421875 11.734375 6.484375 
Q 5.515625 14.40625 5.515625 27.296875 
Q 5.515625 40.1875 11.734375 48.09375 
Q 17.96875 56 27.875 56 
Q 33.9375 56 38.25 53.625 
Q 42.578125 51.265625 45.40625 46.390625 
M 14.796875 27.296875 
Q 14.796875 17.390625 18.875 11.75 
Q 22.953125 6.109375 30.078125 6.109375 
Q 37.203125 6.109375 41.296875 11.75 
Q 45.40625 17.390625 45.40625 27.296875 
Q 45.40625 37.203125 41.296875 42.84375 
Q 37.203125 48.484375 30.078125 48.484375 
Q 22.953125 48.484375 18.875 42.84375 
Q 14.796875 37.203125 14.796875 27.296875 
" id="BitstreamVeraSans-Roman-64"/>
      <path d="M 18.109375 8.203125 
L 18.109375 -20.796875 
L 9.078125 -20.796875 
L 9.078125 54.6875 
L 18.109375 54.6875 
L 18.109375 46.390625 
Q 20.953125 51.265625 25.265625 53.625 
Q 29.59375 56 35.59375 56 
Q 45.5625 56 51.78125 48.09375 
Q 58.015625 40.1875 58.015625 27.296875 
Q 58.015625 14.40625 51.78125 6.484375 
Q 45.5625 -1.421875 35.59375 -1.421875 
Q 29.59375 -1.421875 25.265625 0.953125 
Q 20.953125 3.328125 18.109375 8.203125 
M 48.6875 27.296875 
Q 48.6875 37.203125 44.609375 42.84375 
Q 40.53125 48.484375 33.40625 48.484375 
Q 26.265625 48.484375 22.1875 42.84375 
Q 18.109375 37.203125 18.109375 27.296875 
Q 18.109375 17.390625 22.1875 11.75 
Q 26.265625 6.109375 33.40625 6.109375 
Q 40.53125 6.109375 44.609375 11.75 
Q 48.6875 17.390625 48.6875 27.296875 
" id="BitstreamVeraSans-Roman-70"/>
     </defs>
     <g transform="translate(939.8765625 101.0953125)scale(0.3 -0.3)">
      <use xlink:href="#BitstreamVeraSans-Roman-72"/>
      <use x="41.11328125" xlink:href="#BitstreamVeraSans-Roman-61"/>
      <use x="102.392578125" xlink:href="#BitstreamVeraSans-Roman-6e"/>
      <use x="165.771484375" xlink:href="#BitstreamVeraSans-Roman-64"/>
      <use x="229.248046875" xlink:href="#BitstreamVeraSans-Roman-6f"/>
      <use x="290.4296875" xlink:href="#BitstreamVeraSans-Roman-6d"/>
      <use x="387.841796875" xlink:href="#BitstreamVeraSans-Roman-3a"/>
      <use x="421.533203125" xlink:href="#BitstreamVeraSans-Roman-20"/>
      <use x="453.3203125" xlink:href="#BitstreamVeraSans-Roman-73"/>
      <use x="505.419921875" xlink:href="#BitstreamVeraSans-Roman-74"/>
      <use x="544.62890625" xlink:href="#BitstreamVeraSans-Roman-65"/>
      <use x="606.15234375" xlink:href="#BitstreamVeraSans-Roman-70"/>
      <use x="669.62890625" xlink:href="#BitstreamVeraSans-Roman-3d"/>
      <use x="753.41796875" xlink:href="#BitstreamVeraSans-Roman-30"/>
      <use x="817.041015625" xlink:href="#BitstreamVeraSans-Roman-2e"/>
      <use x="848.828125" xlink:href="#BitstreamVeraSans-Roman-30"/>
      <use x="912.451171875" xlink:href="#BitstreamVeraSans-Roman-30"/>
      <use x="976.07421875" xlink:href="#BitstreamVeraSans-Roman-31"/>
      <use x="1039.69726562" xlink:href="#BitstreamVeraSans-Roman-35"/>
      <use x="1103.3203125" xlink:href="#BitstreamVeraSans-Roman-36"/>
      <use x="1166.94335938" xlink:href="#BitstreamVeraSans-Roman-33"/>
     </g>
    </g>
    <g id="line2d_35">
     <path d="M 864.876562 134.629687 
L 906.876562 134.629687 
" style="fill:none;stroke:#008000;stroke-dasharray:6.000000,6.000000;stroke-dashoffset:0.0;stroke-width:2.0;"/>
    </g>
    <g id="line2d_36"/>
    <g id="text_19">
     <!-- corr: step=0.001563 -->
     <defs>
      <path d="M 48.78125 52.59375 
L 48.78125 44.1875 
Q 44.96875 46.296875 41.140625 47.34375 
Q 37.3125 48.390625 33.40625 48.390625 
Q 24.65625 48.390625 19.8125 42.84375 
Q 14.984375 37.3125 14.984375 27.296875 
Q 14.984375 17.28125 19.8125 11.734375 
Q 24.65625 6.203125 33.40625 6.203125 
Q 37.3125 6.203125 41.140625 7.25 
Q 44.96875 8.296875 48.78125 10.40625 
L 48.78125 2.09375 
Q 45.015625 0.34375 40.984375 -0.53125 
Q 36.96875 -1.421875 32.421875 -1.421875 
Q 20.0625 -1.421875 12.78125 6.34375 
Q 5.515625 14.109375 5.515625 27.296875 
Q 5.515625 40.671875 12.859375 48.328125 
Q 20.21875 56 33.015625 56 
Q 37.15625 56 41.109375 55.140625 
Q 45.0625 54.296875 48.78125 52.59375 
" id="BitstreamVeraSans-Roman-63"/>
     </defs>
     <g transform="translate(939.8765625 145.1296875)scale(0.3 -0.3)">
      <use xlink:href="#BitstreamVeraSans-Roman-63"/>
      <use x="54.98046875" xlink:href="#BitstreamVeraSans-Roman-6f"/>
      <use x="116.162109375" xlink:href="#BitstreamVeraSans-Roman-72"/>
      <use x="157.259765625" xlink:href="#BitstreamVeraSans-Roman-72"/>
      <use x="198.357421875" xlink:href="#BitstreamVeraSans-Roman-3a"/>
      <use x="232.048828125" xlink:href="#BitstreamVeraSans-Roman-20"/>
      <use x="263.8359375" xlink:href="#BitstreamVeraSans-Roman-73"/>
      <use x="315.935546875" xlink:href="#BitstreamVeraSans-Roman-74"/>
      <use x="355.14453125" xlink:href="#BitstreamVeraSans-Roman-65"/>
      <use x="416.66796875" xlink:href="#BitstreamVeraSans-Roman-70"/>
      <use x="480.14453125" xlink:href="#BitstreamVeraSans-Roman-3d"/>
      <use x="563.93359375" xlink:href="#BitstreamVeraSans-Roman-30"/>
      <use x="627.556640625" xlink:href="#BitstreamVeraSans-Roman-2e"/>
      <use x="659.34375" xlink:href="#BitstreamVeraSans-Roman-30"/>
      <use x="722.966796875" xlink:href="#BitstreamVeraSans-Roman-30"/>
      <use x="786.58984375" xlink:href="#BitstreamVeraSans-Roman-31"/>
      <use x="850.212890625" xlink:href="#BitstreamVeraSans-Roman-35"/>
      <use x="913.8359375" xlink:href="#BitstreamVeraSans-Roman-36"/>
      <use x="977.458984375" xlink:href="#BitstreamVeraSans-Roman-33"/>
     </g>
    </g>
   </g>
  </g>
 </g>
 <defs>
  <clipPath id="p86dcc1fcf0">
   <rect height="695.7" width="1177.65" x="158.4" y="51.3"/>
  </clipPath>
 </defs>
</svg>
