<?xml version="1.0" encoding="utf-8" standalone="no"?>
<!DOCTYPE svg PUBLIC "-//W3C//DTD SVG 1.1//EN"
  "http://www.w3.org/Graphics/SVG/1.1/DTD/svg11.dtd">
<!-- Created with matplotlib (http://matplotlib.org/) -->
<svg height="864pt" version="1.1" viewBox="0 0 1440 864" width="1440pt" xmlns="http://www.w3.org/2000/svg" xmlns:xlink="http://www.w3.org/1999/xlink">
 <defs>
  <style type="text/css">
*{stroke-linecap:butt;stroke-linejoin:round;stroke-miterlimit:100000;}
  </style>
 </defs>
 <g id="figure_1">
  <g id="patch_1">
   <path d="M 0 864 
L 1440 864 
L 1440 0 
L 0 0 
z
" style="fill:#ffffff;"/>
  </g>
  <g id="axes_1">
   <g id="patch_2">
    <path d="M 158.4 747 
L 1336.05 747 
L 1336.05 51.3 
L 158.4 51.3 
z
" style="fill:#ffffff;"/>
   </g>
   <g id="line2d_1">
    <path clip-path="url(#pd53c8b618a)" d="M 159.57765 125.966157 
L 163.1106 143.123762 
L 164.28825 149.765272 
L 166.64355 159.320275 
L 167.8212 165.139087 
L 168.99885 170.157007 
L 171.35415 182.435269 
L 172.5318 187.310655 
L 173.70945 193.742034 
L 176.06475 204.485191 
L 177.2424 209.377893 
L 178.42005 215.192633 
L 179.5977 219.733198 
L 180.77535 224.801073 
L 181.953 230.635804 
L 184.3083 238.249403 
L 185.48595 244.571607 
L 186.6636 248.797983 
L 187.84125 255.146097 
L 189.0189 260.82726 
L 190.19655 265.87414 
L 192.55185 277.713791 
L 193.7295 282.395471 
L 194.90715 289.039353 
L 199.61775 308.143777 
L 200.7954 313.280117 
L 201.97305 320.127954 
L 205.506 337.748156 
L 206.68365 343.049561 
L 207.8613 347.474608 
L 209.03895 354.361156 
L 211.39425 364.490577 
L 213.74955 373.982504 
L 214.9272 382.490544 
L 216.10485 386.951365 
L 219.6378 404.791397 
L 220.81545 411.633474 
L 221.9931 417.781543 
L 223.17075 422.818684 
L 224.3484 430.182554 
L 225.52605 435.029342 
L 226.7037 441.036475 
L 229.059 451.280823 
L 230.23665 458.733154 
L 232.59195 469.908193 
L 233.7696 474.111098 
L 234.94725 480.090006 
L 236.1249 484.835507 
L 237.30255 490.717168 
L 238.4802 495.695095 
L 240.8355 506.551168 
L 242.01315 515.219841 
L 243.1908 520.904055 
L 245.5461 530.733458 
L 246.72375 534.922651 
L 249.07905 546.75382 
L 251.43435 558.740243 
L 252.612 562.101511 
L 254.9673 573.811905 
L 256.14495 580.269105 
L 257.3226 585.793447 
L 259.6779 599.281435 
L 260.85555 603.518214 
L 263.21085 614.162148 
L 264.3885 618.236251 
L 265.56615 623.935364 
L 266.7438 628.708274 
L 269.0991 641.811758 
L 270.27675 645.845132 
L 271.4544 651.743726 
L 272.63205 656.228415 
L 274.98735 668.685569 
L 278.5203 683.161621 
L 280.8756 695.101817 
L 282.05325 700.515061 
L 283.2309 705.195345 
L 284.40855 709.245696 
L 285.5862 712.167327 
L 286.76385 716.066387 
L 287.9415 718.093591 
L 289.11915 717.240833 
L 290.2968 719.886848 
L 291.47445 719.457107 
L 292.6521 721.145333 
L 293.82975 720.083858 
L 295.0074 721.182548 
L 296.18505 721.015464 
L 297.3627 719.975209 
L 298.54035 719.858718 
L 299.718 720.209672 
L 300.89565 720.766337 
L 302.0733 719.334726 
L 304.4286 720.270935 
L 305.60625 719.882683 
L 306.7839 719.112492 
L 307.96155 718.966567 
L 309.1392 718.360207 
L 311.4945 720.811747 
L 312.67215 719.165354 
L 315.02745 720.099049 
L 317.38275 722.090025 
L 318.5604 722.038871 
L 319.73805 721.339842 
L 320.9157 721.741821 
L 322.09335 719.862153 
L 323.271 722.789474 
L 324.44865 721.697116 
L 325.6263 721.965771 
L 326.80395 719.878625 
L 327.9816 721.16849 
L 329.15925 723.859581 
L 330.3369 722.483141 
L 331.51455 721.926652 
L 332.6922 722.495952 
L 333.86985 721.578287 
L 336.22515 717.997025 
L 337.4028 720.921126 
L 338.58045 723.110425 
L 339.7581 721.419438 
L 340.93575 721.752691 
L 342.1134 721.550735 
L 343.29105 722.365518 
L 344.4687 722.049804 
L 345.64635 720.230711 
L 346.824 719.058331 
L 348.00165 721.80413 
L 349.1793 721.69051 
L 350.35695 720.586666 
L 351.5346 720.192193 
L 352.71225 716.803238 
L 353.8899 719.261207 
L 355.06755 719.92279 
L 356.2452 718.075986 
L 357.42285 720.721265 
L 358.6005 720.080478 
L 359.77815 720.237028 
L 360.9558 722.576919 
L 362.13345 719.578834 
L 363.3111 719.35546 
L 364.48875 721.956304 
L 365.6664 720.568289 
L 366.84405 719.516087 
L 368.0217 720.86173 
L 369.19935 720.812627 
L 370.377 721.67895 
L 371.55465 720.451763 
L 372.7323 720.660548 
L 373.90995 719.453581 
L 375.0876 721.05392 
L 376.26525 721.309685 
L 378.62055 721.24813 
L 379.7982 720.647539 
L 380.97585 719.259358 
L 382.1535 719.971884 
L 384.5088 721.851979 
L 385.68645 721.535422 
L 386.8641 720.586204 
L 388.04175 720.660898 
L 389.2194 720.967149 
L 390.39705 722.938397 
L 392.75235 721.721483 
L 393.93 722.258588 
L 395.10765 722.493733 
L 396.2853 722.925622 
L 397.46295 722.099299 
L 398.6406 722.91865 
L 399.81825 721.774124 
L 400.9959 721.690456 
L 402.17355 719.94823 
L 403.3512 719.982836 
L 404.52885 721.494258 
L 405.7065 719.176481 
L 406.88415 721.361316 
L 408.0618 721.399473 
L 409.23945 720.765802 
L 410.4171 721.116723 
L 411.59475 720.808355 
L 412.7724 722.847194 
L 413.95005 723.410383 
L 415.1277 721.093531 
L 416.30535 720.673186 
L 417.483 721.04316 
L 418.66065 719.192093 
L 419.8383 720.686841 
L 421.01595 720.532769 
L 422.1936 720.614953 
L 423.37125 721.904315 
L 425.72655 720.792894 
L 426.9042 721.060653 
L 428.08185 719.56957 
L 429.2595 720.643031 
L 430.43715 722.176857 
L 431.6148 720.345794 
L 432.79245 721.480522 
L 433.9701 721.268404 
L 435.14775 719.399023 
L 436.3254 719.798193 
L 437.50305 719.160477 
L 438.6807 719.094996 
L 439.85835 722.436555 
L 441.036 722.360704 
L 442.21365 722.77588 
L 443.3913 722.199483 
L 444.56895 719.911257 
L 445.7466 721.582484 
L 446.92425 719.233277 
L 448.1019 719.728255 
L 449.27955 721.505914 
L 450.4572 722.923983 
L 451.63485 721.292791 
L 452.8125 722.943374 
L 453.99015 721.102225 
L 455.1678 721.870388 
L 457.5231 718.917935 
L 458.70075 719.574995 
L 459.8784 721.416598 
L 461.05605 722.488847 
L 462.2337 724.717242 
L 463.41135 722.612574 
L 464.589 722.600629 
L 465.76665 719.77488 
L 466.9443 721.080595 
L 468.12195 720.798744 
L 469.2996 723.026441 
L 470.47725 724.51459 
L 471.6549 722.64435 
L 472.83255 721.283852 
L 474.0102 721.447712 
L 475.18785 719.250187 
L 476.3655 721.194008 
L 477.54315 719.896791 
L 478.7208 720.457783 
L 481.0761 719.625596 
L 482.25375 721.367316 
L 483.4314 720.447665 
L 484.60905 721.396273 
L 485.7867 721.109016 
L 486.96435 722.769327 
L 488.142 721.862646 
L 489.31965 720.356541 
L 490.4973 721.303253 
L 491.67495 720.075568 
L 492.8526 719.627119 
L 494.03025 719.670434 
L 495.2079 722.626788 
L 497.5632 720.835864 
L 499.9185 721.974863 
L 501.09615 720.265599 
L 502.2738 722.598605 
L 503.45145 722.034751 
L 504.6291 721.343858 
L 505.80675 721.741826 
L 506.9844 721.155651 
L 508.16205 720.713973 
L 509.3397 720.61383 
L 510.51735 720.29239 
L 511.695 719.511418 
L 512.87265 720.116829 
L 514.0503 721.519696 
L 515.22795 721.454194 
L 516.4056 721.207743 
L 518.7609 720.11821 
L 519.93855 721.168893 
L 521.1162 720.354783 
L 522.29385 719.923501 
L 523.4715 721.238986 
L 524.64915 721.686931 
L 525.8268 720.071261 
L 527.00445 720.580138 
L 528.1821 721.587629 
L 529.35975 722.235152 
L 530.5374 721.997019 
L 531.71505 722.734665 
L 532.8927 721.796879 
L 534.07035 723.102005 
L 535.248 720.951781 
L 536.42565 720.495768 
L 537.6033 718.641558 
L 538.78095 719.938188 
L 539.9586 720.279161 
L 542.3139 721.899234 
L 543.49155 720.970369 
L 544.6692 720.356814 
L 545.84685 718.215273 
L 547.0245 720.045339 
L 548.20215 721.284606 
L 549.3798 721.531895 
L 550.55745 721.56494 
L 551.7351 722.991388 
L 552.91275 723.494995 
L 554.0904 722.230927 
L 555.26805 721.384476 
L 556.4457 720.927945 
L 557.62335 721.855478 
L 558.801 721.598084 
L 559.97865 720.770958 
L 561.1563 721.083146 
L 562.33395 722.264495 
L 563.5116 722.997922 
L 564.68925 722.528251 
L 565.8669 722.179677 
L 567.04455 720.936271 
L 568.2222 721.794727 
L 569.39985 722.364262 
L 570.5775 721.870642 
L 571.75515 720.993075 
L 572.9328 719.252986 
L 574.11045 720.538604 
L 575.2881 720.372755 
L 576.46575 720.581804 
L 577.6434 719.637025 
L 578.82105 718.063622 
L 579.9987 720.059521 
L 581.17635 720.942229 
L 582.354 721.324367 
L 583.53165 721.476305 
L 584.7093 720.090294 
L 585.88695 719.618255 
L 587.0646 720.7483 
L 588.24225 720.580799 
L 589.4199 721.740711 
L 590.59755 721.727602 
L 591.7752 720.745928 
L 592.95285 721.412993 
L 594.1305 718.638238 
L 595.30815 719.581884 
L 596.4858 723.070924 
L 597.66345 721.069102 
L 598.8411 724.916576 
L 600.01875 723.166067 
L 602.37405 721.602199 
L 603.5517 722.075797 
L 604.72935 720.844324 
L 605.907 721.109876 
L 607.08465 721.629555 
L 608.2623 721.08525 
L 609.43995 719.949584 
L 610.6176 721.205912 
L 611.79525 720.420785 
L 612.9729 721.296495 
L 614.15055 723.233703 
L 615.3282 722.128631 
L 616.50585 720.798368 
L 620.0388 722.119252 
L 621.21645 720.245804 
L 622.3941 719.083756 
L 623.57175 719.013361 
L 624.7494 718.329549 
L 625.92705 721.333191 
L 627.1047 720.083786 
L 628.28235 720.595883 
L 629.46 719.547072 
L 630.63765 721.467683 
L 631.8153 720.835257 
L 632.99295 722.38376 
L 634.1706 722.786431 
L 635.34825 723.936545 
L 637.70355 720.134081 
L 638.8812 721.53877 
L 640.05885 719.933958 
L 641.2365 720.998137 
L 642.41415 721.764939 
L 643.5918 722.129353 
L 644.76945 721.474433 
L 645.9471 720.208733 
L 647.12475 721.257438 
L 648.3024 719.011855 
L 649.48005 719.488314 
L 650.6577 718.652137 
L 651.83535 717.959062 
L 653.013 722.140577 
L 654.19065 720.617238 
L 655.3683 720.426769 
L 656.54595 719.916221 
L 657.7236 721.308758 
L 658.90125 721.533372 
L 660.0789 720.757657 
L 661.25655 721.329351 
L 662.4342 721.736491 
L 663.61185 719.005125 
L 664.7895 720.580085 
L 665.96715 718.7293 
L 667.1448 721.335709 
L 668.32245 720.031877 
L 669.5001 721.396665 
L 670.67775 717.729663 
L 671.8554 719.241491 
L 673.03305 719.453063 
L 674.2107 720.871519 
L 675.38835 720.082613 
L 676.566 720.478768 
L 677.74365 719.864546 
L 678.9213 720.947833 
L 680.09895 721.677352 
L 681.2766 720.400522 
L 682.45425 721.005887 
L 683.6319 720.815101 
L 684.80955 720.20596 
L 685.9872 722.196679 
L 687.16485 721.665971 
L 688.3425 721.575255 
L 689.52015 722.257029 
L 690.6978 724.491409 
L 691.87545 722.76306 
L 693.0531 721.45622 
L 694.23075 721.915157 
L 695.4084 720.462811 
L 696.58605 719.61532 
L 697.7637 721.008131 
L 698.94135 720.499299 
L 700.119 720.485733 
L 701.29665 719.694311 
L 702.4743 720.96689 
L 703.65195 722.428044 
L 704.8296 721.577374 
L 706.00725 721.50512 
L 707.1849 720.801126 
L 708.36255 720.347861 
L 709.5402 722.271668 
L 710.71785 723.110788 
L 711.8955 720.466784 
L 713.07315 721.663523 
L 714.2508 719.19075 
L 716.6061 719.269067 
L 717.78375 720.283903 
L 718.9614 721.447765 
L 720.13905 720.533802 
L 721.3167 722.670254 
L 722.49435 721.403334 
L 723.672 719.620765 
L 724.84965 719.337036 
L 726.0273 721.206301 
L 727.20495 722.426696 
L 728.3826 723.320844 
L 729.56025 722.460552 
L 730.7379 721.354778 
L 731.91555 722.349204 
L 734.27085 722.119473 
L 735.4485 722.235031 
L 736.62615 723.018115 
L 737.8038 723.004669 
L 738.98145 723.500993 
L 740.1591 723.725868 
L 741.33675 722.61833 
L 742.5144 722.747626 
L 743.69205 722.094313 
L 744.8697 721.6525 
L 746.04735 720.75312 
L 747.225 721.550421 
L 748.40265 720.666079 
L 749.5803 720.129027 
L 750.75795 720.290323 
L 751.9356 721.057258 
L 753.11325 721.341879 
L 754.2909 720.037769 
L 755.46855 722.25089 
L 756.6462 721.014954 
L 760.17915 722.375869 
L 761.3568 723.105963 
L 762.53445 720.992256 
L 763.7121 720.045684 
L 764.88975 722.632674 
L 766.0674 721.175812 
L 767.24505 721.794525 
L 768.4227 720.741437 
L 769.60035 721.975171 
L 770.778 721.56349 
L 771.95565 720.765535 
L 773.1333 721.872774 
L 774.31095 722.102469 
L 775.4886 721.260376 
L 776.66625 720.12058 
L 777.8439 722.358951 
L 779.02155 720.265718 
L 780.1992 718.823878 
L 781.37685 719.505884 
L 782.5545 718.968259 
L 783.73215 719.617105 
L 784.9098 720.067572 
L 786.08745 721.012052 
L 788.44275 719.738247 
L 789.6204 720.798432 
L 790.79805 720.861303 
L 793.15335 719.079846 
L 794.331 719.69646 
L 795.50865 720.459749 
L 796.6863 719.036846 
L 799.0416 722.087217 
L 800.21925 722.149118 
L 801.3969 719.509234 
L 802.57455 720.683276 
L 803.7522 719.552391 
L 804.92985 719.460006 
L 806.1075 717.6451 
L 807.28515 716.170732 
L 808.4628 718.813127 
L 809.64045 719.049541 
L 810.8181 718.299889 
L 811.99575 719.013711 
L 813.1734 718.821179 
L 814.35105 718.457618 
L 815.5287 719.163696 
L 816.70635 720.271707 
L 817.884 721.67068 
L 819.06165 722.216046 
L 820.2393 723.394093 
L 821.41695 721.761945 
L 822.5946 721.945633 
L 823.77225 721.019028 
L 824.9499 720.8114 
L 826.12755 721.47696 
L 827.3052 719.946831 
L 828.48285 721.014548 
L 829.6605 721.761122 
L 830.83815 719.666782 
L 832.0158 718.513357 
L 833.19345 721.698772 
L 834.3711 723.122958 
L 835.54875 722.683811 
L 836.7264 724.105423 
L 837.90405 725.322302 
L 839.0817 724.508 
L 840.25935 722.390316 
L 841.437 721.527797 
L 842.61465 721.47477 
L 843.7923 722.898947 
L 844.96995 721.380869 
L 846.1476 718.761152 
L 847.32525 722.597123 
L 848.5029 722.487129 
L 849.68055 720.91824 
L 852.03585 721.74846 
L 853.2135 721.358088 
L 854.39115 722.107318 
L 855.5688 720.511248 
L 856.74645 723.504996 
L 857.9241 723.418975 
L 859.10175 721.992494 
L 860.2794 721.186492 
L 861.45705 721.578484 
L 862.6347 721.795417 
L 863.81235 721.66773 
L 864.99 721.86376 
L 867.3453 719.815107 
L 868.52295 720.837129 
L 869.7006 720.547201 
L 870.87825 720.76623 
L 872.0559 722.575996 
L 873.23355 723.344444 
L 874.4112 722.078041 
L 875.58885 721.42023 
L 876.7665 722.237685 
L 877.94415 722.18635 
L 879.1218 721.56712 
L 880.29945 720.110211 
L 881.4771 720.846203 
L 882.65475 723.041027 
L 883.8324 721.219523 
L 885.01005 721.642485 
L 886.1877 720.25094 
L 887.36535 719.494614 
L 888.543 717.766969 
L 889.72065 719.103234 
L 890.8983 720.981852 
L 892.07595 722.56879 
L 893.2536 721.315137 
L 895.6089 722.739294 
L 896.78655 721.505586 
L 899.14185 722.083171 
L 900.3195 720.250591 
L 901.49715 720.72956 
L 902.6748 722.127454 
L 903.85245 720.904959 
L 905.0301 721.214222 
L 906.20775 722.149609 
L 907.3854 719.975724 
L 908.56305 719.020718 
L 909.7407 720.770432 
L 910.91835 721.47343 
L 912.096 721.825426 
L 913.27365 722.632879 
L 914.4513 722.127977 
L 915.62895 723.127053 
L 916.8066 723.20807 
L 917.98425 723.507768 
L 919.1619 723.630956 
L 920.33955 719.254841 
L 921.5172 718.51123 
L 922.69485 719.537445 
L 923.8725 720.230615 
L 925.05015 719.484998 
L 926.2278 721.414365 
L 927.40545 721.021561 
L 928.5831 720.433211 
L 929.76075 721.744868 
L 930.9384 723.240913 
L 932.11605 720.763177 
L 934.47135 718.525262 
L 935.649 718.333919 
L 936.82665 718.518564 
L 938.0043 719.968321 
L 939.18195 722.254167 
L 940.3596 719.065526 
L 941.53725 719.015146 
L 942.7149 721.556831 
L 943.89255 720.869659 
L 945.0702 722.38966 
L 946.24785 718.474407 
L 947.4255 716.858768 
L 948.60315 718.605959 
L 949.7808 719.693717 
L 950.95845 720.038708 
L 952.1361 719.551926 
L 953.31375 720.668281 
L 954.4914 720.648719 
L 955.66905 720.136708 
L 956.8467 719.822136 
L 958.02435 721.359218 
L 959.202 719.806907 
L 960.37965 720.290824 
L 961.5573 720.927999 
L 962.73495 721.761263 
L 963.9126 721.829826 
L 965.09025 723.563142 
L 966.2679 723.757087 
L 967.44555 722.658265 
L 968.6232 722.644863 
L 969.80085 721.964521 
L 970.9785 719.752404 
L 972.15615 720.84347 
L 973.3338 721.523345 
L 974.51145 723.308003 
L 975.6891 723.509868 
L 976.86675 721.566667 
L 978.0444 720.368931 
L 979.22205 719.380319 
L 980.3997 720.718135 
L 981.57735 720.047931 
L 982.755 721.994862 
L 983.93265 722.152557 
L 985.1103 720.626272 
L 986.28795 721.888488 
L 987.4656 722.738153 
L 988.64325 720.283871 
L 989.8209 719.764881 
L 990.99855 720.084011 
L 992.1762 719.872897 
L 993.35385 719.09899 
L 994.5315 722.506299 
L 995.70915 723.133083 
L 996.8868 724.911727 
L 998.06445 724.232688 
L 999.2421 722.003379 
L 1000.41975 720.535028 
L 1001.5974 721.19221 
L 1002.77505 720.957153 
L 1003.9527 721.427688 
L 1005.13035 724.0998 
L 1006.308 723.397692 
L 1007.48565 724.603929 
L 1008.6633 722.83512 
L 1009.84095 722.090852 
L 1011.0186 721.746501 
L 1012.19625 722.274998 
L 1013.3739 722.072739 
L 1014.55155 721.753192 
L 1015.7292 720.80515 
L 1016.90685 720.394994 
L 1018.0845 721.28633 
L 1019.26215 721.378537 
L 1020.4398 721.79035 
L 1021.61745 721.312486 
L 1022.7951 721.09391 
L 1023.97275 720.717831 
L 1025.1504 721.177943 
L 1026.32805 721.220819 
L 1027.5057 719.100885 
L 1028.68335 719.157692 
L 1029.861 720.812954 
L 1031.03865 721.960872 
L 1032.2163 721.608433 
L 1033.39395 719.881809 
L 1034.5716 722.116963 
L 1035.74925 719.267822 
L 1036.9269 719.548141 
L 1038.10455 718.334636 
L 1039.2822 718.050837 
L 1041.6375 719.437961 
L 1042.81515 718.408409 
L 1043.9928 718.872666 
L 1045.17045 718.964665 
L 1046.3481 718.32397 
L 1047.52575 718.659756 
L 1048.7034 720.130554 
L 1051.0587 718.89935 
L 1052.23635 719.872655 
L 1053.414 719.652524 
L 1054.59165 719.914118 
L 1055.7693 721.441945 
L 1056.94695 722.072869 
L 1058.1246 720.212569 
L 1059.30225 722.363099 
L 1060.4799 719.320812 
L 1061.65755 719.21292 
L 1062.8352 720.477832 
L 1064.01285 720.639934 
L 1066.36815 721.50737 
L 1067.5458 720.330944 
L 1068.72345 722.466303 
L 1069.9011 719.005026 
L 1071.07875 719.30256 
L 1072.2564 718.644975 
L 1073.43405 719.196472 
L 1074.6117 718.69302 
L 1075.78935 720.399669 
L 1076.967 720.230634 
L 1078.14465 720.704142 
L 1079.3223 722.492375 
L 1080.49995 719.523347 
L 1081.6776 719.957928 
L 1082.85525 720.026016 
L 1084.0329 720.966338 
L 1085.21055 720.587976 
L 1086.3882 720.993783 
L 1087.56585 721.876541 
L 1088.7435 722.118599 
L 1089.92115 718.536589 
L 1091.0988 717.701709 
L 1092.27645 721.26555 
L 1093.4541 721.690721 
L 1094.63175 722.311979 
L 1095.8094 723.953239 
L 1096.98705 723.799695 
L 1098.1647 723.387307 
L 1099.34235 721.203508 
L 1100.52 721.687634 
L 1101.69765 721.874315 
L 1102.8753 720.747471 
L 1104.05295 721.754789 
L 1105.2306 721.861526 
L 1106.40825 721.053156 
L 1107.5859 718.785207 
L 1108.76355 720.374572 
L 1109.9412 720.187324 
L 1111.11885 720.960717 
L 1112.2965 721.143657 
L 1113.47415 720.835095 
L 1114.6518 720.033772 
L 1115.82945 720.774272 
L 1117.0071 721.062771 
L 1118.18475 722.313686 
L 1119.3624 722.107063 
L 1120.54005 722.258743 
L 1121.7177 723.102718 
L 1122.89535 722.954593 
L 1124.073 720.213528 
L 1126.4283 721.964861 
L 1127.60595 722.778429 
L 1128.7836 721.67672 
L 1129.96125 723.974922 
L 1131.1389 723.1409 
L 1132.31655 723.513035 
L 1133.4942 723.046265 
L 1134.67185 723.568745 
L 1135.8495 721.219774 
L 1137.02715 720.418822 
L 1139.38245 719.63396 
L 1140.5601 720.440941 
L 1141.73775 720.377831 
L 1142.9154 721.172316 
L 1144.09305 722.411671 
L 1145.2707 722.091968 
L 1146.44835 722.346154 
L 1147.626 722.180352 
L 1148.80365 720.303896 
L 1149.9813 722.181405 
L 1151.15895 721.493841 
L 1152.3366 720.98594 
L 1153.51425 720.690595 
L 1154.6919 721.2664 
L 1155.86955 722.513983 
L 1157.0472 724.136118 
L 1159.4025 720.911914 
L 1160.58015 721.766466 
L 1161.7578 722.215288 
L 1162.93545 721.354466 
L 1164.1131 720.98403 
L 1165.29075 722.66842 
L 1166.4684 722.749355 
L 1167.64605 721.089977 
L 1168.8237 723.24714 
L 1170.00135 721.970109 
L 1171.179 721.002258 
L 1172.35665 720.235706 
L 1173.5343 721.083459 
L 1174.71195 720.033643 
L 1175.8896 720.463712 
L 1177.06725 719.924834 
L 1178.2449 719.92084 
L 1179.42255 719.100114 
L 1180.6002 719.74365 
L 1181.77785 720.608294 
L 1182.9555 722.175999 
L 1184.13315 719.903019 
L 1185.3108 719.700701 
L 1186.48845 720.044968 
L 1187.6661 721.021907 
L 1188.84375 720.485936 
L 1191.19905 719.738714 
L 1192.3767 719.063615 
L 1193.55435 719.025243 
L 1194.732 720.038968 
L 1195.90965 720.577097 
L 1197.0873 718.087389 
L 1198.26495 719.906873 
L 1199.4426 720.288776 
L 1200.62025 721.590852 
L 1201.7979 722.262959 
L 1202.97555 722.111427 
L 1204.1532 723.035148 
L 1205.33085 722.955218 
L 1206.5085 721.726765 
L 1207.68615 721.045018 
L 1208.8638 720.915757 
L 1210.04145 720.299272 
L 1211.2191 721.574695 
L 1212.39675 719.347753 
L 1213.5744 721.009791 
L 1214.75205 720.482561 
L 1215.9297 719.684846 
L 1217.10735 718.272285 
L 1218.285 719.929346 
L 1220.6403 718.449407 
L 1221.81795 718.986219 
L 1222.9956 718.979968 
L 1224.17325 719.236375 
L 1225.3509 717.521398 
L 1226.52855 717.522536 
L 1227.7062 720.539878 
L 1230.0615 722.873327 
L 1231.23915 721.347195 
L 1232.4168 722.270887 
L 1233.59445 722.825231 
L 1234.7721 723.739649 
L 1235.94975 723.280904 
L 1237.1274 720.485828 
L 1238.30505 719.993805 
L 1239.4827 718.559924 
L 1240.66035 719.145511 
L 1241.838 720.748077 
L 1243.01565 721.629539 
L 1244.1933 721.923874 
L 1245.37095 721.541629 
L 1246.5486 722.130428 
L 1247.72625 724.291682 
L 1248.9039 724.75177 
L 1250.08155 723.609547 
L 1251.2592 721.676574 
L 1252.43685 722.11815 
L 1253.6145 719.694422 
L 1254.79215 721.136799 
L 1255.9698 722.188062 
L 1257.14745 721.446655 
L 1258.3251 721.761749 
L 1259.50275 722.706143 
L 1260.6804 722.808284 
L 1261.85805 722.090337 
L 1263.0357 724.099914 
L 1264.21335 724.173344 
L 1265.391 725.38461 
L 1266.56865 720.009905 
L 1267.7463 720.943335 
L 1270.1016 718.865621 
L 1271.27925 720.555413 
L 1272.4569 721.122592 
L 1273.63455 722.11535 
L 1274.8122 720.57694 
L 1275.98985 720.359487 
L 1277.1675 720.989043 
L 1278.34515 719.410058 
L 1279.5228 721.337287 
L 1280.70045 719.368668 
L 1281.8781 720.475409 
L 1283.05575 721.972455 
L 1284.2334 720.445106 
L 1285.41105 721.336586 
L 1286.5887 721.916695 
L 1287.76635 723.491947 
L 1288.944 721.008946 
L 1290.12165 723.016786 
L 1291.2993 721.992012 
L 1292.47695 722.440321 
L 1293.6546 721.048694 
L 1294.83225 720.581223 
L 1296.0099 719.307994 
L 1297.18755 720.991238 
L 1298.3652 719.172881 
L 1299.54285 719.832997 
L 1300.7205 721.392907 
L 1301.89815 720.84879 
L 1303.0758 720.601525 
L 1304.25345 719.899128 
L 1305.4311 718.809981 
L 1306.60875 720.48675 
L 1307.7864 719.656564 
L 1308.96405 722.15712 
L 1310.1417 722.717498 
L 1311.31935 721.858841 
L 1312.497 724.342748 
L 1313.67465 723.111864 
L 1314.8523 724.356647 
L 1316.02995 721.684466 
L 1317.2076 721.794038 
L 1318.38525 723.761032 
L 1319.5629 719.125331 
L 1320.74055 721.017356 
L 1321.9182 722.427185 
L 1323.09585 722.134907 
L 1324.2735 722.59339 
L 1325.45115 722.807571 
L 1326.6288 722.637238 
L 1327.80645 724.202619 
L 1328.9841 723.309241 
L 1330.16175 721.860666 
L 1332.51705 720.88336 
L 1333.6947 722.008853 
L 1334.87235 721.122866 
L 1336.05 721.694459 
L 1336.05 721.694459 
" style="fill:none;stroke:#0000ff;stroke-linecap:square;stroke-width:2.0;"/>
   </g>
   <g id="line2d_2">
    <path clip-path="url(#pd53c8b618a)" d="M 159.57765 124.679816 
L 160.7553 129.615597 
L 161.93295 136.310868 
L 163.1106 140.676452 
L 165.4659 151.545904 
L 167.8212 162.636822 
L 168.99885 166.814587 
L 170.1765 172.177321 
L 171.35415 178.458863 
L 172.5318 182.959062 
L 176.06475 200.329503 
L 177.2424 205.200084 
L 178.42005 211.537957 
L 186.6636 244.850235 
L 187.84125 250.681512 
L 189.0189 257.296901 
L 192.55185 274.277017 
L 193.7295 278.854646 
L 197.26245 295.837161 
L 198.4401 299.867275 
L 200.7954 311.212485 
L 201.97305 315.726966 
L 203.1507 322.608891 
L 205.506 333.628747 
L 209.03895 351.642581 
L 210.2166 357.513658 
L 211.39425 364.370834 
L 212.5719 369.013363 
L 216.10485 385.534486 
L 218.46015 395.122677 
L 219.6378 400.051278 
L 225.52605 427.46731 
L 226.7037 434.301832 
L 229.059 444.376863 
L 231.4143 455.944455 
L 232.59195 460.922812 
L 234.94725 472.591055 
L 236.1249 476.64537 
L 237.30255 482.231426 
L 238.4802 487.258849 
L 239.65785 493.091227 
L 240.8355 497.683822 
L 242.01315 503.567939 
L 243.1908 510.441531 
L 244.36845 514.669116 
L 245.5461 521.973562 
L 246.72375 526.776892 
L 247.9014 530.97932 
L 249.07905 535.776089 
L 251.43435 547.009783 
L 252.612 551.402563 
L 254.9673 564.170962 
L 256.14495 569.435476 
L 257.3226 573.917473 
L 258.50025 579.787749 
L 259.6779 584.687039 
L 262.0332 596.934039 
L 263.21085 603.171685 
L 265.56615 612.742069 
L 266.7438 619.070303 
L 267.92145 623.496515 
L 269.0991 628.672694 
L 270.27675 637.627877 
L 271.4544 642.92285 
L 272.63205 649.632805 
L 273.8097 653.63902 
L 274.98735 658.720221 
L 276.165 664.974757 
L 277.34265 670.058637 
L 278.5203 675.673191 
L 280.8756 689.823051 
L 283.2309 698.424497 
L 285.5862 707.086573 
L 286.76385 711.935571 
L 287.9415 715.399956 
L 289.11915 717.59269 
L 290.2968 716.932004 
L 291.47445 718.782389 
L 292.6521 719.417566 
L 293.82975 717.697096 
L 295.0074 717.457057 
L 297.3627 720.392762 
L 298.54035 719.936663 
L 299.718 719.814348 
L 300.89565 719.531456 
L 302.0733 721.406113 
L 303.25095 722.723257 
L 304.4286 722.626637 
L 305.60625 718.446711 
L 306.7839 719.23773 
L 307.96155 718.106653 
L 309.1392 721.173432 
L 310.31685 723.144607 
L 311.4945 719.679857 
L 312.67215 717.986122 
L 313.8498 719.724122 
L 315.02745 721.71507 
L 316.2051 722.00754 
L 317.38275 720.636714 
L 318.5604 721.683488 
L 319.73805 721.22556 
L 320.9157 720.512348 
L 322.09335 720.17917 
L 323.271 720.939024 
L 324.44865 721.917039 
L 325.6263 722.564932 
L 326.80395 720.610462 
L 327.9816 719.457764 
L 329.15925 721.383991 
L 330.3369 720.952824 
L 331.51455 720.323902 
L 332.6922 720.362805 
L 333.86985 721.827228 
L 335.0475 722.34402 
L 336.22515 723.287029 
L 337.4028 721.903971 
L 338.58045 721.278074 
L 339.7581 720.967567 
L 340.93575 718.408335 
L 343.29105 721.371741 
L 344.4687 719.170319 
L 345.64635 722.52159 
L 346.824 720.876315 
L 348.00165 721.613947 
L 349.1793 719.992315 
L 350.35695 722.893331 
L 351.5346 723.536769 
L 352.71225 722.804786 
L 353.8899 723.023308 
L 355.06755 723.822752 
L 356.2452 723.154175 
L 357.42285 723.152537 
L 358.6005 723.334057 
L 359.77815 722.468473 
L 360.9558 721.033216 
L 362.13345 720.47029 
L 363.3111 721.216358 
L 364.48875 720.863348 
L 365.6664 719.635232 
L 366.84405 720.800379 
L 368.0217 720.556875 
L 369.19935 721.691381 
L 370.377 721.012327 
L 371.55465 721.256337 
L 372.7323 721.679075 
L 373.90995 718.788116 
L 375.0876 718.412708 
L 376.26525 718.509943 
L 379.7982 719.931511 
L 380.97585 719.942712 
L 382.1535 720.294568 
L 383.33115 720.410547 
L 384.5088 720.378924 
L 385.68645 722.878223 
L 386.8641 722.810523 
L 388.04175 722.343384 
L 389.2194 720.159906 
L 390.39705 719.513565 
L 391.5747 719.723699 
L 392.75235 719.452231 
L 393.93 721.682872 
L 395.10765 720.345452 
L 396.2853 719.657364 
L 397.46295 720.61266 
L 398.6406 720.746617 
L 399.81825 719.886809 
L 400.9959 717.564577 
L 402.17355 719.354257 
L 403.3512 719.78166 
L 404.52885 719.6469 
L 405.7065 721.174242 
L 406.88415 720.880856 
L 408.0618 719.330854 
L 409.23945 719.898837 
L 410.4171 723.122499 
L 412.7724 721.117781 
L 413.95005 720.571165 
L 415.1277 721.115741 
L 416.30535 720.668973 
L 417.483 721.11652 
L 418.66065 721.25068 
L 421.01595 719.309018 
L 422.1936 719.308594 
L 423.37125 719.993694 
L 424.5489 722.259078 
L 425.72655 720.82876 
L 426.9042 721.622652 
L 428.08185 721.966547 
L 429.2595 722.487217 
L 430.43715 721.757497 
L 431.6148 721.529729 
L 432.79245 722.604292 
L 433.9701 719.441476 
L 435.14775 722.376676 
L 436.3254 722.804706 
L 437.50305 721.712809 
L 438.6807 723.195652 
L 439.85835 724.422804 
L 441.036 723.706787 
L 442.21365 722.145539 
L 443.3913 721.258915 
L 444.56895 724.802146 
L 445.7466 721.801511 
L 446.92425 719.703807 
L 448.1019 720.427307 
L 449.27955 719.882947 
L 450.4572 721.248058 
L 451.63485 721.294454 
L 452.8125 722.697954 
L 453.99015 723.215691 
L 455.1678 720.587756 
L 456.34545 722.003497 
L 457.5231 721.696494 
L 458.70075 721.962891 
L 459.8784 724.453237 
L 461.05605 722.4646 
L 462.2337 723.08109 
L 463.41135 719.593209 
L 464.589 721.651568 
L 465.76665 719.925889 
L 466.9443 720.494198 
L 468.12195 720.664473 
L 469.2996 721.706717 
L 470.47725 720.525525 
L 471.6549 720.069233 
L 472.83255 723.345798 
L 474.0102 720.038838 
L 475.18785 722.455106 
L 476.3655 721.639302 
L 477.54315 722.338104 
L 478.7208 720.647567 
L 479.89845 718.448334 
L 481.0761 719.217624 
L 482.25375 718.830555 
L 483.4314 720.36443 
L 484.60905 720.579485 
L 485.7867 720.438866 
L 486.96435 721.231365 
L 488.142 722.622338 
L 489.31965 721.511343 
L 490.4973 720.820296 
L 491.67495 723.615078 
L 495.2079 720.746699 
L 496.38555 722.134508 
L 498.74085 720.781566 
L 499.9185 719.610439 
L 502.2738 718.64555 
L 503.45145 717.643925 
L 504.6291 719.87409 
L 505.80675 719.515477 
L 506.9844 720.297646 
L 508.16205 721.668765 
L 509.3397 722.540294 
L 510.51735 721.510378 
L 511.695 722.068829 
L 512.87265 721.079652 
L 514.0503 721.53555 
L 515.22795 722.691337 
L 516.4056 721.837391 
L 517.58325 723.038734 
L 518.7609 721.636679 
L 519.93855 718.347701 
L 521.1162 720.625918 
L 522.29385 720.947416 
L 523.4715 720.892847 
L 524.64915 721.047192 
L 525.8268 720.835933 
L 527.00445 721.459132 
L 528.1821 722.556965 
L 529.35975 721.461686 
L 530.5374 719.852989 
L 531.71505 719.652148 
L 532.8927 718.969485 
L 534.07035 719.072683 
L 535.248 721.280777 
L 536.42565 720.86144 
L 537.6033 719.610162 
L 538.78095 720.062377 
L 539.9586 720.388841 
L 541.13625 719.906838 
L 542.3139 718.740091 
L 544.6692 719.620838 
L 545.84685 720.493454 
L 547.0245 722.053225 
L 548.20215 721.683818 
L 549.3798 721.876353 
L 550.55745 723.390186 
L 551.7351 724.510094 
L 552.91275 721.637453 
L 554.0904 721.01626 
L 555.26805 720.261372 
L 556.4457 720.321851 
L 557.62335 719.20544 
L 558.801 718.875956 
L 559.97865 720.451191 
L 561.1563 722.570184 
L 562.33395 721.056087 
L 563.5116 722.447279 
L 565.8669 726.047128 
L 567.04455 722.248047 
L 568.2222 719.830682 
L 569.39985 720.603639 
L 570.5775 721.169529 
L 571.75515 722.597867 
L 572.9328 722.853362 
L 575.2881 720.255588 
L 576.46575 720.006067 
L 578.82105 720.115566 
L 579.9987 718.939313 
L 581.17635 720.34201 
L 582.354 718.781769 
L 584.7093 721.622829 
L 585.88695 722.348533 
L 587.0646 724.289378 
L 589.4199 719.728514 
L 590.59755 720.308226 
L 591.7752 721.516976 
L 592.95285 720.090613 
L 595.30815 720.08558 
L 596.4858 722.291249 
L 597.66345 721.710267 
L 598.8411 722.170649 
L 601.1964 719.596226 
L 603.5517 723.150132 
L 604.72935 721.702703 
L 605.907 721.046771 
L 607.08465 719.006289 
L 608.2623 717.683307 
L 609.43995 720.866987 
L 610.6176 721.438582 
L 611.79525 722.93328 
L 612.9729 722.136608 
L 615.3282 721.522889 
L 616.50585 719.761869 
L 617.6835 721.492112 
L 618.86115 720.978363 
L 620.0388 720.895083 
L 621.21645 722.635785 
L 622.3941 723.56604 
L 623.57175 722.757183 
L 624.7494 722.767839 
L 625.92705 720.070988 
L 627.1047 723.017372 
L 628.28235 723.151373 
L 629.46 721.766521 
L 630.63765 721.581816 
L 631.8153 719.917461 
L 632.99295 720.09768 
L 634.1706 719.548594 
L 635.34825 718.810404 
L 636.5259 721.15015 
L 637.70355 721.10542 
L 638.8812 719.277737 
L 640.05885 720.370668 
L 641.2365 722.064476 
L 642.41415 722.778993 
L 643.5918 721.379351 
L 644.76945 720.442904 
L 645.9471 720.800663 
L 647.12475 721.533733 
L 648.3024 720.005061 
L 649.48005 719.99591 
L 650.6577 718.624858 
L 651.83535 719.936442 
L 654.19065 719.153086 
L 655.3683 719.83751 
L 656.54595 720.332438 
L 658.90125 720.352668 
L 660.0789 722.564938 
L 661.25655 722.366219 
L 662.4342 722.307792 
L 663.61185 720.26413 
L 664.7895 719.195977 
L 665.96715 719.327453 
L 667.1448 720.296052 
L 668.32245 720.191042 
L 669.5001 721.025528 
L 670.67775 723.013008 
L 673.03305 720.175494 
L 674.2107 722.610752 
L 675.38835 720.201658 
L 676.566 719.667926 
L 677.74365 721.549011 
L 678.9213 720.416842 
L 680.09895 721.049448 
L 681.2766 722.037278 
L 682.45425 720.916345 
L 683.6319 719.021339 
L 684.80955 720.360517 
L 685.9872 720.273195 
L 687.16485 720.337098 
L 688.3425 721.877331 
L 689.52015 722.930404 
L 690.6978 720.876842 
L 691.87545 721.793573 
L 693.0531 720.728921 
L 694.23075 721.57279 
L 695.4084 720.980795 
L 696.58605 718.768357 
L 697.7637 717.766532 
L 698.94135 719.466072 
L 700.119 722.101766 
L 701.29665 720.010194 
L 702.4743 723.18413 
L 703.65195 720.465629 
L 704.8296 721.149962 
L 706.00725 722.282752 
L 707.1849 724.212898 
L 708.36255 722.396156 
L 709.5402 722.836286 
L 710.71785 722.937311 
L 711.8955 722.012876 
L 713.07315 721.535704 
L 714.2508 721.761367 
L 715.42845 721.689159 
L 716.6061 722.358473 
L 717.78375 722.062308 
L 718.9614 722.838186 
L 720.13905 721.880553 
L 721.3167 719.897733 
L 722.49435 720.225916 
L 723.672 720.22689 
L 724.84965 719.492421 
L 726.0273 719.593808 
L 727.20495 721.326737 
L 728.3826 722.295046 
L 729.56025 721.652575 
L 730.7379 722.291493 
L 731.91555 720.924735 
L 733.0932 721.318256 
L 734.27085 722.086006 
L 735.4485 721.856046 
L 736.62615 722.02884 
L 738.98145 722.704502 
L 740.1591 722.286609 
L 741.33675 722.568246 
L 742.5144 722.717723 
L 743.69205 722.670139 
L 744.8697 721.765206 
L 746.04735 721.287192 
L 747.225 723.916746 
L 748.40265 724.293929 
L 749.5803 723.642557 
L 750.75795 720.523132 
L 751.9356 719.369086 
L 753.11325 719.16802 
L 754.2909 716.960345 
L 755.46855 717.798797 
L 756.6462 719.142537 
L 757.82385 719.193517 
L 759.0015 722.528989 
L 760.17915 721.970718 
L 761.3568 723.131519 
L 763.7121 720.246161 
L 764.88975 720.207059 
L 766.0674 720.632543 
L 767.24505 721.487113 
L 768.4227 719.680793 
L 770.778 722.318504 
L 771.95565 720.309375 
L 773.1333 721.497807 
L 774.31095 721.868903 
L 775.4886 722.687595 
L 776.66625 720.968085 
L 777.8439 720.460087 
L 779.02155 720.6781 
L 781.37685 720.789983 
L 782.5545 719.552141 
L 783.73215 722.244109 
L 784.9098 720.87244 
L 786.08745 720.072882 
L 788.44275 722.766934 
L 789.6204 720.7247 
L 790.79805 718.081512 
L 791.9757 720.223385 
L 793.15335 719.733107 
L 794.331 721.035659 
L 795.50865 721.918005 
L 796.6863 720.202897 
L 797.86395 721.198933 
L 799.0416 721.274227 
L 800.21925 721.672143 
L 801.3969 720.029232 
L 802.57455 721.899162 
L 803.7522 722.356651 
L 804.92985 721.822669 
L 806.1075 721.743529 
L 807.28515 720.255029 
L 808.4628 720.014247 
L 809.64045 720.995381 
L 810.8181 721.04988 
L 811.99575 722.032271 
L 813.1734 721.375772 
L 814.35105 721.194513 
L 815.5287 720.337236 
L 816.70635 719.99769 
L 819.06165 720.010261 
L 820.2393 718.882782 
L 821.41695 721.09694 
L 823.77225 721.031767 
L 824.9499 721.846499 
L 826.12755 721.85652 
L 827.3052 722.576404 
L 828.48285 722.008443 
L 829.6605 722.591506 
L 830.83815 722.887409 
L 832.0158 720.628406 
L 833.19345 722.697838 
L 834.3711 722.154445 
L 835.54875 722.324982 
L 836.7264 721.256872 
L 837.90405 719.721293 
L 839.0817 723.603858 
L 840.25935 723.662528 
L 841.437 721.212446 
L 842.61465 719.189959 
L 843.7923 719.842003 
L 844.96995 722.987351 
L 846.1476 723.157401 
L 847.32525 720.953917 
L 848.5029 720.750048 
L 849.68055 722.687467 
L 850.8582 722.276011 
L 852.03585 722.80644 
L 853.2135 721.79736 
L 854.39115 721.586336 
L 855.5688 722.392087 
L 856.74645 721.6815 
L 857.9241 722.192731 
L 859.10175 721.707719 
L 860.2794 720.187124 
L 861.45705 721.293937 
L 862.6347 721.276594 
L 863.81235 719.637785 
L 864.99 718.779571 
L 867.3453 719.37324 
L 868.52295 721.41271 
L 869.7006 722.62624 
L 870.87825 721.110498 
L 872.0559 721.522804 
L 873.23355 719.413495 
L 874.4112 719.232062 
L 875.58885 722.206073 
L 876.7665 722.860183 
L 877.94415 722.021427 
L 879.1218 722.474502 
L 880.29945 721.94693 
L 881.4771 721.846961 
L 882.65475 722.260071 
L 883.8324 721.249399 
L 885.01005 718.931883 
L 886.1877 719.663654 
L 887.36535 720.588509 
L 888.543 720.154044 
L 889.72065 720.937109 
L 890.8983 722.360546 
L 893.2536 721.756668 
L 894.43125 722.362316 
L 895.6089 720.816964 
L 896.78655 723.916187 
L 897.9642 722.202092 
L 899.14185 721.886934 
L 900.3195 721.127969 
L 901.49715 719.779589 
L 902.6748 719.779863 
L 903.85245 720.085796 
L 905.0301 721.128872 
L 906.20775 720.088099 
L 907.3854 719.859458 
L 908.56305 720.119767 
L 909.7407 721.892888 
L 910.91835 721.85755 
L 912.096 719.928436 
L 913.27365 720.084294 
L 914.4513 718.372122 
L 915.62895 719.420607 
L 916.8066 720.997962 
L 917.98425 719.936088 
L 919.1619 720.467226 
L 920.33955 721.87115 
L 921.5172 722.092002 
L 922.69485 723.347224 
L 923.8725 721.96172 
L 925.05015 721.622657 
L 926.2278 721.014463 
L 927.40545 721.351059 
L 928.5831 723.375877 
L 929.76075 721.644583 
L 932.11605 724.288299 
L 933.2937 723.095157 
L 935.649 719.492333 
L 936.82665 719.923435 
L 938.0043 721.088181 
L 939.18195 720.634597 
L 940.3596 721.554408 
L 941.53725 720.923522 
L 942.7149 720.878122 
L 945.0702 723.046062 
L 946.24785 724.494477 
L 947.4255 724.913716 
L 948.60315 722.48509 
L 949.7808 722.966972 
L 950.95845 721.090881 
L 952.1361 722.080869 
L 953.31375 722.009346 
L 954.4914 719.454936 
L 955.66905 720.764037 
L 958.02435 721.545256 
L 959.202 721.296067 
L 960.37965 720.925483 
L 961.5573 721.698096 
L 962.73495 720.249061 
L 963.9126 720.406608 
L 965.09025 720.161752 
L 966.2679 719.515818 
L 967.44555 719.012837 
L 968.6232 720.622483 
L 969.80085 720.103401 
L 970.9785 719.879042 
L 972.15615 720.212145 
L 973.3338 722.391002 
L 974.51145 722.091379 
L 975.6891 721.298361 
L 976.86675 722.448436 
L 978.0444 722.810978 
L 979.22205 721.237374 
L 980.3997 721.485227 
L 981.57735 721.32892 
L 982.755 721.983517 
L 983.93265 723.40199 
L 986.28795 720.840218 
L 987.4656 718.901147 
L 988.64325 717.941537 
L 989.8209 719.84116 
L 990.99855 719.869799 
L 992.1762 718.745154 
L 993.35385 719.87488 
L 994.5315 720.783617 
L 995.70915 720.374791 
L 996.8868 722.556517 
L 998.06445 722.068174 
L 999.2421 723.058491 
L 1000.41975 721.093718 
L 1001.5974 719.81037 
L 1002.77505 719.339957 
L 1003.9527 719.55297 
L 1005.13035 720.858093 
L 1006.308 720.653733 
L 1007.48565 722.304204 
L 1008.6633 724.245687 
L 1011.0186 721.2485 
L 1012.19625 720.893869 
L 1013.3739 719.570794 
L 1014.55155 719.519377 
L 1015.7292 718.845292 
L 1016.90685 718.903949 
L 1018.0845 718.750104 
L 1019.26215 719.968773 
L 1020.4398 716.579888 
L 1021.61745 718.134623 
L 1022.7951 718.839586 
L 1023.97275 718.893816 
L 1025.1504 719.530465 
L 1026.32805 719.776256 
L 1027.5057 722.797867 
L 1028.68335 720.972127 
L 1029.861 719.62508 
L 1031.03865 719.899295 
L 1032.2163 719.776781 
L 1033.39395 722.165438 
L 1034.5716 720.896302 
L 1035.74925 721.728443 
L 1036.9269 719.562559 
L 1038.10455 718.365345 
L 1039.2822 719.970952 
L 1040.45985 720.416968 
L 1041.6375 720.250706 
L 1042.81515 719.950846 
L 1043.9928 720.71844 
L 1045.17045 719.995857 
L 1046.3481 719.025506 
L 1047.52575 715.731912 
L 1048.7034 717.739768 
L 1049.88105 718.985288 
L 1051.0587 719.271069 
L 1052.23635 719.871471 
L 1054.59165 717.277929 
L 1055.7693 718.05466 
L 1056.94695 717.387955 
L 1059.30225 722.196736 
L 1060.4799 723.12044 
L 1061.65755 722.946666 
L 1062.8352 722.241234 
L 1064.01285 721.796178 
L 1065.1905 721.98453 
L 1066.36815 724.564607 
L 1067.5458 721.902292 
L 1068.72345 721.902126 
L 1069.9011 721.759851 
L 1071.07875 722.179998 
L 1072.2564 720.752994 
L 1073.43405 723.242781 
L 1074.6117 719.799177 
L 1075.78935 719.200614 
L 1076.967 719.405565 
L 1078.14465 719.442019 
L 1079.3223 721.125359 
L 1080.49995 721.565857 
L 1081.6776 720.344757 
L 1082.85525 721.082415 
L 1084.0329 720.600772 
L 1085.21055 720.459702 
L 1086.3882 719.649722 
L 1087.56585 719.129653 
L 1088.7435 720.666035 
L 1089.92115 723.621673 
L 1091.0988 723.246383 
L 1092.27645 721.682613 
L 1093.4541 722.124173 
L 1094.63175 721.174084 
L 1095.8094 722.031748 
L 1096.98705 720.005805 
L 1098.1647 719.368945 
L 1099.34235 720.355822 
L 1100.52 720.332424 
L 1101.69765 719.329407 
L 1102.8753 720.260909 
L 1105.2306 721.403569 
L 1106.40825 719.655181 
L 1107.5859 720.703886 
L 1108.76355 722.50599 
L 1109.9412 720.728282 
L 1112.2965 721.59497 
L 1113.47415 721.21792 
L 1114.6518 720.598968 
L 1115.82945 721.028123 
L 1117.0071 719.827237 
L 1118.18475 720.596522 
L 1119.3624 722.359606 
L 1120.54005 721.394026 
L 1121.7177 720.128701 
L 1122.89535 721.302845 
L 1124.073 721.476765 
L 1125.25065 721.807818 
L 1126.4283 723.026605 
L 1127.60595 723.187053 
L 1128.7836 720.784085 
L 1129.96125 720.26162 
L 1131.1389 721.64702 
L 1132.31655 721.685418 
L 1133.4942 723.782316 
L 1134.67185 722.472886 
L 1135.8495 721.551528 
L 1137.02715 720.389996 
L 1138.2048 723.50513 
L 1139.38245 720.575056 
L 1140.5601 720.784728 
L 1141.73775 720.782823 
L 1142.9154 722.063945 
L 1144.09305 720.879275 
L 1145.2707 718.7746 
L 1146.44835 721.330819 
L 1147.626 719.831219 
L 1148.80365 720.515371 
L 1149.9813 722.500587 
L 1151.15895 722.422589 
L 1152.3366 720.477375 
L 1153.51425 719.080535 
L 1154.6919 721.81028 
L 1155.86955 723.662555 
L 1157.0472 722.898717 
L 1158.22485 720.75517 
L 1159.4025 721.648436 
L 1160.58015 721.750856 
L 1161.7578 721.230672 
L 1162.93545 722.899096 
L 1164.1131 721.32487 
L 1166.4684 721.866326 
L 1168.8237 723.042208 
L 1170.00135 721.968959 
L 1171.179 720.627861 
L 1172.35665 720.074871 
L 1173.5343 719.771822 
L 1174.71195 720.004677 
L 1175.8896 720.945167 
L 1177.06725 719.978157 
L 1178.2449 719.525906 
L 1179.42255 721.862596 
L 1180.6002 722.493437 
L 1181.77785 722.037424 
L 1182.9555 721.115275 
L 1184.13315 720.749543 
L 1185.3108 719.540819 
L 1186.48845 720.445284 
L 1187.6661 721.979704 
L 1188.84375 722.523798 
L 1190.0214 722.798598 
L 1191.19905 721.666974 
L 1193.55435 722.280952 
L 1194.732 722.281867 
L 1195.90965 721.920025 
L 1197.0873 720.925027 
L 1198.26495 721.775166 
L 1199.4426 721.85765 
L 1200.62025 719.845559 
L 1201.7979 721.354336 
L 1202.97555 720.345373 
L 1204.1532 719.558923 
L 1205.33085 720.568783 
L 1207.68615 722.976748 
L 1208.8638 722.671416 
L 1210.04145 719.823668 
L 1211.2191 722.196696 
L 1212.39675 721.439291 
L 1213.5744 719.847475 
L 1214.75205 721.23606 
L 1215.9297 722.999223 
L 1217.10735 722.738391 
L 1218.285 723.227215 
L 1219.46265 720.582256 
L 1220.6403 721.400394 
L 1221.81795 722.639017 
L 1222.9956 721.798313 
L 1224.17325 721.590077 
L 1225.3509 721.951243 
L 1226.52855 720.901975 
L 1227.7062 720.504351 
L 1228.88385 720.571793 
L 1230.0615 721.690089 
L 1232.4168 722.598737 
L 1233.59445 720.416314 
L 1234.7721 721.856536 
L 1235.94975 721.737753 
L 1237.1274 721.969959 
L 1238.30505 721.996996 
L 1239.4827 718.951812 
L 1240.66035 720.751222 
L 1241.838 719.709231 
L 1243.01565 721.067733 
L 1244.1933 720.286581 
L 1245.37095 721.334188 
L 1246.5486 721.800202 
L 1247.72625 721.649528 
L 1248.9039 718.851181 
L 1250.08155 717.867231 
L 1252.43685 722.067468 
L 1253.6145 720.118811 
L 1254.79215 720.641895 
L 1255.9698 721.566161 
L 1257.14745 722.827986 
L 1258.3251 722.715234 
L 1259.50275 722.031433 
L 1260.6804 722.150778 
L 1261.85805 721.877966 
L 1263.0357 723.482286 
L 1264.21335 721.728449 
L 1265.391 720.805546 
L 1266.56865 720.324429 
L 1267.7463 720.734854 
L 1268.92395 718.558875 
L 1270.1016 720.307262 
L 1271.27925 719.973704 
L 1272.4569 721.953935 
L 1273.63455 722.595184 
L 1274.8122 720.436047 
L 1275.98985 721.245566 
L 1277.1675 722.377379 
L 1278.34515 719.643643 
L 1279.5228 718.157561 
L 1280.70045 718.08253 
L 1281.8781 720.546641 
L 1284.2334 722.537879 
L 1285.41105 719.885244 
L 1287.76635 723.170182 
L 1288.944 720.606823 
L 1290.12165 721.256445 
L 1291.2993 722.287831 
L 1292.47695 721.025854 
L 1293.6546 720.901274 
L 1294.83225 720.557672 
L 1296.0099 720.345577 
L 1297.18755 719.205448 
L 1298.3652 720.291736 
L 1299.54285 720.63283 
L 1300.7205 719.075105 
L 1301.89815 720.109265 
L 1303.0758 722.144211 
L 1304.25345 723.041014 
L 1305.4311 721.969316 
L 1306.60875 721.827535 
L 1307.7864 721.249811 
L 1310.1417 721.19481 
L 1311.31935 722.390205 
L 1312.497 721.279596 
L 1313.67465 722.211463 
L 1314.8523 720.549833 
L 1316.02995 723.807783 
L 1317.2076 723.141603 
L 1318.38525 722.683144 
L 1319.5629 723.18916 
L 1320.74055 721.909526 
L 1321.9182 719.869769 
L 1323.09585 721.844335 
L 1324.2735 719.494311 
L 1325.45115 720.462984 
L 1326.6288 721.991536 
L 1327.80645 721.276599 
L 1328.9841 722.051151 
L 1330.16175 721.300109 
L 1331.3394 721.783187 
L 1332.51705 723.079453 
L 1333.6947 723.280112 
L 1334.87235 723.120421 
L 1336.05 722.462993 
L 1336.05 722.462993 
" style="fill:none;stroke:#008000;stroke-dasharray:6.000000,6.000000;stroke-dashoffset:0.0;stroke-width:2.0;"/>
   </g>
   <g id="patch_3">
    <path d="M 158.4 51.3 
L 1336.05 51.3 
" style="fill:none;stroke:#000000;stroke-linecap:square;stroke-linejoin:miter;"/>
   </g>
   <g id="patch_4">
    <path d="M 1336.05 747 
L 1336.05 51.3 
" style="fill:none;stroke:#000000;stroke-linecap:square;stroke-linejoin:miter;"/>
   </g>
   <g id="patch_5">
    <path d="M 158.4 747 
L 1336.05 747 
" style="fill:none;stroke:#000000;stroke-linecap:square;stroke-linejoin:miter;"/>
   </g>
   <g id="patch_6">
    <path d="M 158.4 747 
L 158.4 51.3 
" style="fill:none;stroke:#000000;stroke-linecap:square;stroke-linejoin:miter;"/>
   </g>
   <g id="matplotlib.axis_1">
    <g id="xtick_1">
     <g id="line2d_3">
      <defs>
       <path d="M 0 0 
L 0 -4 
" id="m7cf88d209c" style="stroke:#000000;stroke-width:0.5;"/>
      </defs>
      <g>
       <use style="stroke:#000000;stroke-width:0.5;" x="158.4" xlink:href="#m7cf88d209c" y="747.0"/>
      </g>
     </g>
     <g id="line2d_4">
      <defs>
       <path d="M 0 0 
L 0 4 
" id="m3ff7d89358" style="stroke:#000000;stroke-width:0.5;"/>
      </defs>
      <g>
       <use style="stroke:#000000;stroke-width:0.5;" x="158.4" xlink:href="#m3ff7d89358" y="51.3"/>
      </g>
     </g>
     <g id="text_1">
      <!-- 0 -->
      <defs>
       <path d="M 31.78125 66.40625 
Q 24.171875 66.40625 20.328125 58.90625 
Q 16.5 51.421875 16.5 36.375 
Q 16.5 21.390625 20.328125 13.890625 
Q 24.171875 6.390625 31.78125 6.390625 
Q 39.453125 6.390625 43.28125 13.890625 
Q 47.125 21.390625 47.125 36.375 
Q 47.125 51.421875 43.28125 58.90625 
Q 39.453125 66.40625 31.78125 66.40625 
M 31.78125 74.21875 
Q 44.046875 74.21875 50.515625 64.515625 
Q 56.984375 54.828125 56.984375 36.375 
Q 56.984375 17.96875 50.515625 8.265625 
Q 44.046875 -1.421875 31.78125 -1.421875 
Q 19.53125 -1.421875 13.0625 8.265625 
Q 6.59375 17.96875 6.59375 36.375 
Q 6.59375 54.828125 13.0625 64.515625 
Q 19.53125 74.21875 31.78125 74.21875 
" id="BitstreamVeraSans-Roman-30"/>
      </defs>
      <g transform="translate(148.85625 773.7953125)scale(0.3 -0.3)">
       <use xlink:href="#BitstreamVeraSans-Roman-30"/>
      </g>
     </g>
    </g>
    <g id="xtick_2">
     <g id="line2d_5">
      <g>
       <use style="stroke:#000000;stroke-width:0.5;" x="393.93" xlink:href="#m7cf88d209c" y="747.0"/>
      </g>
     </g>
     <g id="line2d_6">
      <g>
       <use style="stroke:#000000;stroke-width:0.5;" x="393.93" xlink:href="#m3ff7d89358" y="51.3"/>
      </g>
     </g>
     <g id="text_2">
      <!-- 20000 -->
      <defs>
       <path d="M 19.1875 8.296875 
L 53.609375 8.296875 
L 53.609375 0 
L 7.328125 0 
L 7.328125 8.296875 
Q 12.9375 14.109375 22.625 23.890625 
Q 32.328125 33.6875 34.8125 36.53125 
Q 39.546875 41.84375 41.421875 45.53125 
Q 43.3125 49.21875 43.3125 52.78125 
Q 43.3125 58.59375 39.234375 62.25 
Q 35.15625 65.921875 28.609375 65.921875 
Q 23.96875 65.921875 18.8125 64.3125 
Q 13.671875 62.703125 7.8125 59.421875 
L 7.8125 69.390625 
Q 13.765625 71.78125 18.9375 73 
Q 24.125 74.21875 28.421875 74.21875 
Q 39.75 74.21875 46.484375 68.546875 
Q 53.21875 62.890625 53.21875 53.421875 
Q 53.21875 48.921875 51.53125 44.890625 
Q 49.859375 40.875 45.40625 35.40625 
Q 44.1875 33.984375 37.640625 27.21875 
Q 31.109375 20.453125 19.1875 8.296875 
" id="BitstreamVeraSans-Roman-32"/>
      </defs>
      <g transform="translate(346.21125 773.7953125)scale(0.3 -0.3)">
       <use xlink:href="#BitstreamVeraSans-Roman-32"/>
       <use x="63.623046875" xlink:href="#BitstreamVeraSans-Roman-30"/>
       <use x="127.24609375" xlink:href="#BitstreamVeraSans-Roman-30"/>
       <use x="190.869140625" xlink:href="#BitstreamVeraSans-Roman-30"/>
       <use x="254.4921875" xlink:href="#BitstreamVeraSans-Roman-30"/>
      </g>
     </g>
    </g>
    <g id="xtick_3">
     <g id="line2d_7">
      <g>
       <use style="stroke:#000000;stroke-width:0.5;" x="629.46" xlink:href="#m7cf88d209c" y="747.0"/>
      </g>
     </g>
     <g id="line2d_8">
      <g>
       <use style="stroke:#000000;stroke-width:0.5;" x="629.46" xlink:href="#m3ff7d89358" y="51.3"/>
      </g>
     </g>
     <g id="text_3">
      <!-- 40000 -->
      <defs>
       <path d="M 37.796875 64.3125 
L 12.890625 25.390625 
L 37.796875 25.390625 
z
M 35.203125 72.90625 
L 47.609375 72.90625 
L 47.609375 25.390625 
L 58.015625 25.390625 
L 58.015625 17.1875 
L 47.609375 17.1875 
L 47.609375 0 
L 37.796875 0 
L 37.796875 17.1875 
L 4.890625 17.1875 
L 4.890625 26.703125 
z
" id="BitstreamVeraSans-Roman-34"/>
      </defs>
      <g transform="translate(581.74125 773.7953125)scale(0.3 -0.3)">
       <use xlink:href="#BitstreamVeraSans-Roman-34"/>
       <use x="63.623046875" xlink:href="#BitstreamVeraSans-Roman-30"/>
       <use x="127.24609375" xlink:href="#BitstreamVeraSans-Roman-30"/>
       <use x="190.869140625" xlink:href="#BitstreamVeraSans-Roman-30"/>
       <use x="254.4921875" xlink:href="#BitstreamVeraSans-Roman-30"/>
      </g>
     </g>
    </g>
    <g id="xtick_4">
     <g id="line2d_9">
      <g>
       <use style="stroke:#000000;stroke-width:0.5;" x="864.99" xlink:href="#m7cf88d209c" y="747.0"/>
      </g>
     </g>
     <g id="line2d_10">
      <g>
       <use style="stroke:#000000;stroke-width:0.5;" x="864.99" xlink:href="#m3ff7d89358" y="51.3"/>
      </g>
     </g>
     <g id="text_4">
      <!-- 60000 -->
      <defs>
       <path d="M 33.015625 40.375 
Q 26.375 40.375 22.484375 35.828125 
Q 18.609375 31.296875 18.609375 23.390625 
Q 18.609375 15.53125 22.484375 10.953125 
Q 26.375 6.390625 33.015625 6.390625 
Q 39.65625 6.390625 43.53125 10.953125 
Q 47.40625 15.53125 47.40625 23.390625 
Q 47.40625 31.296875 43.53125 35.828125 
Q 39.65625 40.375 33.015625 40.375 
M 52.59375 71.296875 
L 52.59375 62.3125 
Q 48.875 64.0625 45.09375 64.984375 
Q 41.3125 65.921875 37.59375 65.921875 
Q 27.828125 65.921875 22.671875 59.328125 
Q 17.53125 52.734375 16.796875 39.40625 
Q 19.671875 43.65625 24.015625 45.921875 
Q 28.375 48.1875 33.59375 48.1875 
Q 44.578125 48.1875 50.953125 41.515625 
Q 57.328125 34.859375 57.328125 23.390625 
Q 57.328125 12.15625 50.6875 5.359375 
Q 44.046875 -1.421875 33.015625 -1.421875 
Q 20.359375 -1.421875 13.671875 8.265625 
Q 6.984375 17.96875 6.984375 36.375 
Q 6.984375 53.65625 15.1875 63.9375 
Q 23.390625 74.21875 37.203125 74.21875 
Q 40.921875 74.21875 44.703125 73.484375 
Q 48.484375 72.75 52.59375 71.296875 
" id="BitstreamVeraSans-Roman-36"/>
      </defs>
      <g transform="translate(817.27125 773.7953125)scale(0.3 -0.3)">
       <use xlink:href="#BitstreamVeraSans-Roman-36"/>
       <use x="63.623046875" xlink:href="#BitstreamVeraSans-Roman-30"/>
       <use x="127.24609375" xlink:href="#BitstreamVeraSans-Roman-30"/>
       <use x="190.869140625" xlink:href="#BitstreamVeraSans-Roman-30"/>
       <use x="254.4921875" xlink:href="#BitstreamVeraSans-Roman-30"/>
      </g>
     </g>
    </g>
    <g id="xtick_5">
     <g id="line2d_11">
      <g>
       <use style="stroke:#000000;stroke-width:0.5;" x="1100.52" xlink:href="#m7cf88d209c" y="747.0"/>
      </g>
     </g>
     <g id="line2d_12">
      <g>
       <use style="stroke:#000000;stroke-width:0.5;" x="1100.52" xlink:href="#m3ff7d89358" y="51.3"/>
      </g>
     </g>
     <g id="text_5">
      <!-- 80000 -->
      <defs>
       <path d="M 31.78125 34.625 
Q 24.75 34.625 20.71875 30.859375 
Q 16.703125 27.09375 16.703125 20.515625 
Q 16.703125 13.921875 20.71875 10.15625 
Q 24.75 6.390625 31.78125 6.390625 
Q 38.8125 6.390625 42.859375 10.171875 
Q 46.921875 13.96875 46.921875 20.515625 
Q 46.921875 27.09375 42.890625 30.859375 
Q 38.875 34.625 31.78125 34.625 
M 21.921875 38.8125 
Q 15.578125 40.375 12.03125 44.71875 
Q 8.5 49.078125 8.5 55.328125 
Q 8.5 64.0625 14.71875 69.140625 
Q 20.953125 74.21875 31.78125 74.21875 
Q 42.671875 74.21875 48.875 69.140625 
Q 55.078125 64.0625 55.078125 55.328125 
Q 55.078125 49.078125 51.53125 44.71875 
Q 48 40.375 41.703125 38.8125 
Q 48.828125 37.15625 52.796875 32.3125 
Q 56.78125 27.484375 56.78125 20.515625 
Q 56.78125 9.90625 50.3125 4.234375 
Q 43.84375 -1.421875 31.78125 -1.421875 
Q 19.734375 -1.421875 13.25 4.234375 
Q 6.78125 9.90625 6.78125 20.515625 
Q 6.78125 27.484375 10.78125 32.3125 
Q 14.796875 37.15625 21.921875 38.8125 
M 18.3125 54.390625 
Q 18.3125 48.734375 21.84375 45.5625 
Q 25.390625 42.390625 31.78125 42.390625 
Q 38.140625 42.390625 41.71875 45.5625 
Q 45.3125 48.734375 45.3125 54.390625 
Q 45.3125 60.0625 41.71875 63.234375 
Q 38.140625 66.40625 31.78125 66.40625 
Q 25.390625 66.40625 21.84375 63.234375 
Q 18.3125 60.0625 18.3125 54.390625 
" id="BitstreamVeraSans-Roman-38"/>
      </defs>
      <g transform="translate(1052.80125 773.7953125)scale(0.3 -0.3)">
       <use xlink:href="#BitstreamVeraSans-Roman-38"/>
       <use x="63.623046875" xlink:href="#BitstreamVeraSans-Roman-30"/>
       <use x="127.24609375" xlink:href="#BitstreamVeraSans-Roman-30"/>
       <use x="190.869140625" xlink:href="#BitstreamVeraSans-Roman-30"/>
       <use x="254.4921875" xlink:href="#BitstreamVeraSans-Roman-30"/>
      </g>
     </g>
    </g>
    <g id="xtick_6">
     <g id="line2d_13">
      <g>
       <use style="stroke:#000000;stroke-width:0.5;" x="1336.05" xlink:href="#m7cf88d209c" y="747.0"/>
      </g>
     </g>
     <g id="line2d_14">
      <g>
       <use style="stroke:#000000;stroke-width:0.5;" x="1336.05" xlink:href="#m3ff7d89358" y="51.3"/>
      </g>
     </g>
     <g id="text_6">
      <!-- 100000 -->
      <defs>
       <path d="M 12.40625 8.296875 
L 28.515625 8.296875 
L 28.515625 63.921875 
L 10.984375 60.40625 
L 10.984375 69.390625 
L 28.421875 72.90625 
L 38.28125 72.90625 
L 38.28125 8.296875 
L 54.390625 8.296875 
L 54.390625 0 
L 12.40625 0 
z
" id="BitstreamVeraSans-Roman-31"/>
      </defs>
      <g transform="translate(1278.7875 773.7953125)scale(0.3 -0.3)">
       <use xlink:href="#BitstreamVeraSans-Roman-31"/>
       <use x="63.623046875" xlink:href="#BitstreamVeraSans-Roman-30"/>
       <use x="127.24609375" xlink:href="#BitstreamVeraSans-Roman-30"/>
       <use x="190.869140625" xlink:href="#BitstreamVeraSans-Roman-30"/>
       <use x="254.4921875" xlink:href="#BitstreamVeraSans-Roman-30"/>
       <use x="318.115234375" xlink:href="#BitstreamVeraSans-Roman-30"/>
      </g>
     </g>
    </g>
    <g id="text_7">
     <!-- iterations -->
     <defs>
      <path d="M 54.890625 33.015625 
L 54.890625 0 
L 45.90625 0 
L 45.90625 32.71875 
Q 45.90625 40.484375 42.875 44.328125 
Q 39.84375 48.1875 33.796875 48.1875 
Q 26.515625 48.1875 22.3125 43.546875 
Q 18.109375 38.921875 18.109375 30.90625 
L 18.109375 0 
L 9.078125 0 
L 9.078125 54.6875 
L 18.109375 54.6875 
L 18.109375 46.1875 
Q 21.34375 51.125 25.703125 53.5625 
Q 30.078125 56 35.796875 56 
Q 45.21875 56 50.046875 50.171875 
Q 54.890625 44.34375 54.890625 33.015625 
" id="BitstreamVeraSans-Roman-6e"/>
      <path d="M 34.28125 27.484375 
Q 23.390625 27.484375 19.1875 25 
Q 14.984375 22.515625 14.984375 16.5 
Q 14.984375 11.71875 18.140625 8.90625 
Q 21.296875 6.109375 26.703125 6.109375 
Q 34.1875 6.109375 38.703125 11.40625 
Q 43.21875 16.703125 43.21875 25.484375 
L 43.21875 27.484375 
z
M 52.203125 31.203125 
L 52.203125 0 
L 43.21875 0 
L 43.21875 8.296875 
Q 40.140625 3.328125 35.546875 0.953125 
Q 30.953125 -1.421875 24.3125 -1.421875 
Q 15.921875 -1.421875 10.953125 3.296875 
Q 6 8.015625 6 15.921875 
Q 6 25.140625 12.171875 29.828125 
Q 18.359375 34.515625 30.609375 34.515625 
L 43.21875 34.515625 
L 43.21875 35.40625 
Q 43.21875 41.609375 39.140625 45 
Q 35.0625 48.390625 27.6875 48.390625 
Q 23 48.390625 18.546875 47.265625 
Q 14.109375 46.140625 10.015625 43.890625 
L 10.015625 52.203125 
Q 14.9375 54.109375 19.578125 55.046875 
Q 24.21875 56 28.609375 56 
Q 40.484375 56 46.34375 49.84375 
Q 52.203125 43.703125 52.203125 31.203125 
" id="BitstreamVeraSans-Roman-61"/>
      <path d="M 30.609375 48.390625 
Q 23.390625 48.390625 19.1875 42.75 
Q 14.984375 37.109375 14.984375 27.296875 
Q 14.984375 17.484375 19.15625 11.84375 
Q 23.34375 6.203125 30.609375 6.203125 
Q 37.796875 6.203125 41.984375 11.859375 
Q 46.1875 17.53125 46.1875 27.296875 
Q 46.1875 37.015625 41.984375 42.703125 
Q 37.796875 48.390625 30.609375 48.390625 
M 30.609375 56 
Q 42.328125 56 49.015625 48.375 
Q 55.71875 40.765625 55.71875 27.296875 
Q 55.71875 13.875 49.015625 6.21875 
Q 42.328125 -1.421875 30.609375 -1.421875 
Q 18.84375 -1.421875 12.171875 6.21875 
Q 5.515625 13.875 5.515625 27.296875 
Q 5.515625 40.765625 12.171875 48.375 
Q 18.84375 56 30.609375 56 
" id="BitstreamVeraSans-Roman-6f"/>
      <path d="M 9.421875 54.6875 
L 18.40625 54.6875 
L 18.40625 0 
L 9.421875 0 
z
M 9.421875 75.984375 
L 18.40625 75.984375 
L 18.40625 64.59375 
L 9.421875 64.59375 
z
" id="BitstreamVeraSans-Roman-69"/>
      <path d="M 56.203125 29.59375 
L 56.203125 25.203125 
L 14.890625 25.203125 
Q 15.484375 15.921875 20.484375 11.0625 
Q 25.484375 6.203125 34.421875 6.203125 
Q 39.59375 6.203125 44.453125 7.46875 
Q 49.3125 8.734375 54.109375 11.28125 
L 54.109375 2.78125 
Q 49.265625 0.734375 44.1875 -0.34375 
Q 39.109375 -1.421875 33.890625 -1.421875 
Q 20.796875 -1.421875 13.15625 6.1875 
Q 5.515625 13.8125 5.515625 26.8125 
Q 5.515625 40.234375 12.765625 48.109375 
Q 20.015625 56 32.328125 56 
Q 43.359375 56 49.78125 48.890625 
Q 56.203125 41.796875 56.203125 29.59375 
M 47.21875 32.234375 
Q 47.125 39.59375 43.09375 43.984375 
Q 39.0625 48.390625 32.421875 48.390625 
Q 24.90625 48.390625 20.390625 44.140625 
Q 15.875 39.890625 15.1875 32.171875 
z
" id="BitstreamVeraSans-Roman-65"/>
      <path d="M 18.3125 70.21875 
L 18.3125 54.6875 
L 36.8125 54.6875 
L 36.8125 47.703125 
L 18.3125 47.703125 
L 18.3125 18.015625 
Q 18.3125 11.328125 20.140625 9.421875 
Q 21.96875 7.515625 27.59375 7.515625 
L 36.8125 7.515625 
L 36.8125 0 
L 27.59375 0 
Q 17.1875 0 13.234375 3.875 
Q 9.28125 7.765625 9.28125 18.015625 
L 9.28125 47.703125 
L 2.6875 47.703125 
L 2.6875 54.6875 
L 9.28125 54.6875 
L 9.28125 70.21875 
z
" id="BitstreamVeraSans-Roman-74"/>
      <path d="M 41.109375 46.296875 
Q 39.59375 47.171875 37.8125 47.578125 
Q 36.03125 48 33.890625 48 
Q 26.265625 48 22.1875 43.046875 
Q 18.109375 38.09375 18.109375 28.8125 
L 18.109375 0 
L 9.078125 0 
L 9.078125 54.6875 
L 18.109375 54.6875 
L 18.109375 46.1875 
Q 20.953125 51.171875 25.484375 53.578125 
Q 30.03125 56 36.53125 56 
Q 37.453125 56 38.578125 55.875 
Q 39.703125 55.765625 41.0625 55.515625 
z
" id="BitstreamVeraSans-Roman-72"/>
      <path d="M 44.28125 53.078125 
L 44.28125 44.578125 
Q 40.484375 46.53125 36.375 47.5 
Q 32.28125 48.484375 27.875 48.484375 
Q 21.1875 48.484375 17.84375 46.4375 
Q 14.5 44.390625 14.5 40.28125 
Q 14.5 37.15625 16.890625 35.375 
Q 19.28125 33.59375 26.515625 31.984375 
L 29.59375 31.296875 
Q 39.15625 29.25 43.1875 25.515625 
Q 47.21875 21.78125 47.21875 15.09375 
Q 47.21875 7.46875 41.1875 3.015625 
Q 35.15625 -1.421875 24.609375 -1.421875 
Q 20.21875 -1.421875 15.453125 -0.5625 
Q 10.6875 0.296875 5.421875 2 
L 5.421875 11.28125 
Q 10.40625 8.6875 15.234375 7.390625 
Q 20.0625 6.109375 24.8125 6.109375 
Q 31.15625 6.109375 34.5625 8.28125 
Q 37.984375 10.453125 37.984375 14.40625 
Q 37.984375 18.0625 35.515625 20.015625 
Q 33.0625 21.96875 24.703125 23.78125 
L 21.578125 24.515625 
Q 13.234375 26.265625 9.515625 29.90625 
Q 5.8125 33.546875 5.8125 39.890625 
Q 5.8125 47.609375 11.28125 51.796875 
Q 16.75 56 26.8125 56 
Q 31.78125 56 36.171875 55.265625 
Q 40.578125 54.546875 44.28125 53.078125 
" id="BitstreamVeraSans-Roman-73"/>
     </defs>
     <g transform="translate(676.04296875 807.8296875)scale(0.3 -0.3)">
      <use xlink:href="#BitstreamVeraSans-Roman-69"/>
      <use x="27.783203125" xlink:href="#BitstreamVeraSans-Roman-74"/>
      <use x="66.9921875" xlink:href="#BitstreamVeraSans-Roman-65"/>
      <use x="128.515625" xlink:href="#BitstreamVeraSans-Roman-72"/>
      <use x="169.62890625" xlink:href="#BitstreamVeraSans-Roman-61"/>
      <use x="230.908203125" xlink:href="#BitstreamVeraSans-Roman-74"/>
      <use x="270.1171875" xlink:href="#BitstreamVeraSans-Roman-69"/>
      <use x="297.900390625" xlink:href="#BitstreamVeraSans-Roman-6f"/>
      <use x="359.08203125" xlink:href="#BitstreamVeraSans-Roman-6e"/>
      <use x="422.4609375" xlink:href="#BitstreamVeraSans-Roman-73"/>
     </g>
    </g>
   </g>
   <g id="matplotlib.axis_2">
    <g id="ytick_1">
     <g id="line2d_15">
      <defs>
       <path d="M 0 0 
L 4 0 
" id="md036f42d82" style="stroke:#000000;stroke-width:0.5;"/>
      </defs>
      <g>
       <use style="stroke:#000000;stroke-width:0.5;" x="158.4" xlink:href="#md036f42d82" y="747.0"/>
      </g>
     </g>
     <g id="line2d_16">
      <defs>
       <path d="M 0 0 
L -4 0 
" id="m2491c8e396" style="stroke:#000000;stroke-width:0.5;"/>
      </defs>
      <g>
       <use style="stroke:#000000;stroke-width:0.5;" x="1336.05" xlink:href="#m2491c8e396" y="747.0"/>
      </g>
     </g>
     <g id="text_8">
      <!-- 60 -->
      <defs>
       <path d="M 10.59375 35.5 
L 73.1875 35.5 
L 73.1875 27.203125 
L 10.59375 27.203125 
z
" id="BitstreamVeraSans-Roman-2212"/>
      </defs>
      <g transform="translate(91.0859375 755.278125)scale(0.3 -0.3)">
       <use xlink:href="#BitstreamVeraSans-Roman-2212"/>
       <use x="83.7890625" xlink:href="#BitstreamVeraSans-Roman-36"/>
       <use x="147.412109375" xlink:href="#BitstreamVeraSans-Roman-30"/>
      </g>
     </g>
    </g>
    <g id="ytick_2">
     <g id="line2d_17">
      <g>
       <use style="stroke:#000000;stroke-width:0.5;" x="158.4" xlink:href="#md036f42d82" y="660.0375"/>
      </g>
     </g>
     <g id="line2d_18">
      <g>
       <use style="stroke:#000000;stroke-width:0.5;" x="1336.05" xlink:href="#m2491c8e396" y="660.0375"/>
      </g>
     </g>
     <g id="text_9">
      <!-- 50 -->
      <defs>
       <path d="M 10.796875 72.90625 
L 49.515625 72.90625 
L 49.515625 64.59375 
L 19.828125 64.59375 
L 19.828125 46.734375 
Q 21.96875 47.46875 24.109375 47.828125 
Q 26.265625 48.1875 28.421875 48.1875 
Q 40.625 48.1875 47.75 41.5 
Q 54.890625 34.8125 54.890625 23.390625 
Q 54.890625 11.625 47.5625 5.09375 
Q 40.234375 -1.421875 26.90625 -1.421875 
Q 22.3125 -1.421875 17.546875 -0.640625 
Q 12.796875 0.140625 7.71875 1.703125 
L 7.71875 11.625 
Q 12.109375 9.234375 16.796875 8.0625 
Q 21.484375 6.890625 26.703125 6.890625 
Q 35.15625 6.890625 40.078125 11.328125 
Q 45.015625 15.765625 45.015625 23.390625 
Q 45.015625 31 40.078125 35.4375 
Q 35.15625 39.890625 26.703125 39.890625 
Q 22.75 39.890625 18.8125 39.015625 
Q 14.890625 38.140625 10.796875 36.28125 
z
" id="BitstreamVeraSans-Roman-35"/>
      </defs>
      <g transform="translate(91.0859375 668.315625)scale(0.3 -0.3)">
       <use xlink:href="#BitstreamVeraSans-Roman-2212"/>
       <use x="83.7890625" xlink:href="#BitstreamVeraSans-Roman-35"/>
       <use x="147.412109375" xlink:href="#BitstreamVeraSans-Roman-30"/>
      </g>
     </g>
    </g>
    <g id="ytick_3">
     <g id="line2d_19">
      <g>
       <use style="stroke:#000000;stroke-width:0.5;" x="158.4" xlink:href="#md036f42d82" y="573.075"/>
      </g>
     </g>
     <g id="line2d_20">
      <g>
       <use style="stroke:#000000;stroke-width:0.5;" x="1336.05" xlink:href="#m2491c8e396" y="573.075"/>
      </g>
     </g>
     <g id="text_10">
      <!-- 40 -->
      <g transform="translate(91.0859375 581.353125)scale(0.3 -0.3)">
       <use xlink:href="#BitstreamVeraSans-Roman-2212"/>
       <use x="83.7890625" xlink:href="#BitstreamVeraSans-Roman-34"/>
       <use x="147.412109375" xlink:href="#BitstreamVeraSans-Roman-30"/>
      </g>
     </g>
    </g>
    <g id="ytick_4">
     <g id="line2d_21">
      <g>
       <use style="stroke:#000000;stroke-width:0.5;" x="158.4" xlink:href="#md036f42d82" y="486.1125"/>
      </g>
     </g>
     <g id="line2d_22">
      <g>
       <use style="stroke:#000000;stroke-width:0.5;" x="1336.05" xlink:href="#m2491c8e396" y="486.1125"/>
      </g>
     </g>
     <g id="text_11">
      <!-- 30 -->
      <defs>
       <path d="M 40.578125 39.3125 
Q 47.65625 37.796875 51.625 33 
Q 55.609375 28.21875 55.609375 21.1875 
Q 55.609375 10.40625 48.1875 4.484375 
Q 40.765625 -1.421875 27.09375 -1.421875 
Q 22.515625 -1.421875 17.65625 -0.515625 
Q 12.796875 0.390625 7.625 2.203125 
L 7.625 11.71875 
Q 11.71875 9.328125 16.59375 8.109375 
Q 21.484375 6.890625 26.8125 6.890625 
Q 36.078125 6.890625 40.9375 10.546875 
Q 45.796875 14.203125 45.796875 21.1875 
Q 45.796875 27.640625 41.28125 31.265625 
Q 36.765625 34.90625 28.71875 34.90625 
L 20.21875 34.90625 
L 20.21875 43.015625 
L 29.109375 43.015625 
Q 36.375 43.015625 40.234375 45.921875 
Q 44.09375 48.828125 44.09375 54.296875 
Q 44.09375 59.90625 40.109375 62.90625 
Q 36.140625 65.921875 28.71875 65.921875 
Q 24.65625 65.921875 20.015625 65.03125 
Q 15.375 64.15625 9.8125 62.3125 
L 9.8125 71.09375 
Q 15.4375 72.65625 20.34375 73.4375 
Q 25.25 74.21875 29.59375 74.21875 
Q 40.828125 74.21875 47.359375 69.109375 
Q 53.90625 64.015625 53.90625 55.328125 
Q 53.90625 49.265625 50.4375 45.09375 
Q 46.96875 40.921875 40.578125 39.3125 
" id="BitstreamVeraSans-Roman-33"/>
      </defs>
      <g transform="translate(91.0859375 494.390625)scale(0.3 -0.3)">
       <use xlink:href="#BitstreamVeraSans-Roman-2212"/>
       <use x="83.7890625" xlink:href="#BitstreamVeraSans-Roman-33"/>
       <use x="147.412109375" xlink:href="#BitstreamVeraSans-Roman-30"/>
      </g>
     </g>
    </g>
    <g id="ytick_5">
     <g id="line2d_23">
      <g>
       <use style="stroke:#000000;stroke-width:0.5;" x="158.4" xlink:href="#md036f42d82" y="399.15"/>
      </g>
     </g>
     <g id="line2d_24">
      <g>
       <use style="stroke:#000000;stroke-width:0.5;" x="1336.05" xlink:href="#m2491c8e396" y="399.15"/>
      </g>
     </g>
     <g id="text_12">
      <!-- 20 -->
      <g transform="translate(91.0859375 407.428125)scale(0.3 -0.3)">
       <use xlink:href="#BitstreamVeraSans-Roman-2212"/>
       <use x="83.7890625" xlink:href="#BitstreamVeraSans-Roman-32"/>
       <use x="147.412109375" xlink:href="#BitstreamVeraSans-Roman-30"/>
      </g>
     </g>
    </g>
    <g id="ytick_6">
     <g id="line2d_25">
      <g>
       <use style="stroke:#000000;stroke-width:0.5;" x="158.4" xlink:href="#md036f42d82" y="312.1875"/>
      </g>
     </g>
     <g id="line2d_26">
      <g>
       <use style="stroke:#000000;stroke-width:0.5;" x="1336.05" xlink:href="#m2491c8e396" y="312.1875"/>
      </g>
     </g>
     <g id="text_13">
      <!-- 10 -->
      <g transform="translate(91.0859375 320.465625)scale(0.3 -0.3)">
       <use xlink:href="#BitstreamVeraSans-Roman-2212"/>
       <use x="83.7890625" xlink:href="#BitstreamVeraSans-Roman-31"/>
       <use x="147.412109375" xlink:href="#BitstreamVeraSans-Roman-30"/>
      </g>
     </g>
    </g>
    <g id="ytick_7">
     <g id="line2d_27">
      <g>
       <use style="stroke:#000000;stroke-width:0.5;" x="158.4" xlink:href="#md036f42d82" y="225.225"/>
      </g>
     </g>
     <g id="line2d_28">
      <g>
       <use style="stroke:#000000;stroke-width:0.5;" x="1336.05" xlink:href="#m2491c8e396" y="225.225"/>
      </g>
     </g>
     <g id="text_14">
      <!-- 0 -->
      <g transform="translate(135.3125 233.503125)scale(0.3 -0.3)">
       <use xlink:href="#BitstreamVeraSans-Roman-30"/>
      </g>
     </g>
    </g>
    <g id="ytick_8">
     <g id="line2d_29">
      <g>
       <use style="stroke:#000000;stroke-width:0.5;" x="158.4" xlink:href="#md036f42d82" y="138.2625"/>
      </g>
     </g>
     <g id="line2d_30">
      <g>
       <use style="stroke:#000000;stroke-width:0.5;" x="1336.05" xlink:href="#m2491c8e396" y="138.2625"/>
      </g>
     </g>
     <g id="text_15">
      <!-- 10 -->
      <g transform="translate(116.225 146.540625)scale(0.3 -0.3)">
       <use xlink:href="#BitstreamVeraSans-Roman-31"/>
       <use x="63.623046875" xlink:href="#BitstreamVeraSans-Roman-30"/>
      </g>
     </g>
    </g>
    <g id="ytick_9">
     <g id="line2d_31">
      <g>
       <use style="stroke:#000000;stroke-width:0.5;" x="158.4" xlink:href="#md036f42d82" y="51.3"/>
      </g>
     </g>
     <g id="line2d_32">
      <g>
       <use style="stroke:#000000;stroke-width:0.5;" x="1336.05" xlink:href="#m2491c8e396" y="51.3"/>
      </g>
     </g>
     <g id="text_16">
      <!-- 20 -->
      <g transform="translate(116.225 59.578125)scale(0.3 -0.3)">
       <use xlink:href="#BitstreamVeraSans-Roman-32"/>
       <use x="63.623046875" xlink:href="#BitstreamVeraSans-Roman-30"/>
      </g>
     </g>
    </g>
    <g id="text_17">
     <!-- log(loss) -->
     <defs>
      <path d="M 8.015625 75.875 
L 15.828125 75.875 
Q 23.140625 64.359375 26.78125 53.3125 
Q 30.421875 42.28125 30.421875 31.390625 
Q 30.421875 20.453125 26.78125 9.375 
Q 23.140625 -1.703125 15.828125 -13.1875 
L 8.015625 -13.1875 
Q 14.5 -2 17.703125 9.0625 
Q 20.90625 20.125 20.90625 31.390625 
Q 20.90625 42.671875 17.703125 53.65625 
Q 14.5 64.65625 8.015625 75.875 
" id="BitstreamVeraSans-Roman-29"/>
      <path d="M 31 75.875 
Q 24.46875 64.65625 21.28125 53.65625 
Q 18.109375 42.671875 18.109375 31.390625 
Q 18.109375 20.125 21.3125 9.0625 
Q 24.515625 -2 31 -13.1875 
L 23.1875 -13.1875 
Q 15.875 -1.703125 12.234375 9.375 
Q 8.59375 20.453125 8.59375 31.390625 
Q 8.59375 42.28125 12.203125 53.3125 
Q 15.828125 64.359375 23.1875 75.875 
z
" id="BitstreamVeraSans-Roman-28"/>
      <path d="M 45.40625 27.984375 
Q 45.40625 37.75 41.375 43.109375 
Q 37.359375 48.484375 30.078125 48.484375 
Q 22.859375 48.484375 18.828125 43.109375 
Q 14.796875 37.75 14.796875 27.984375 
Q 14.796875 18.265625 18.828125 12.890625 
Q 22.859375 7.515625 30.078125 7.515625 
Q 37.359375 7.515625 41.375 12.890625 
Q 45.40625 18.265625 45.40625 27.984375 
M 54.390625 6.78125 
Q 54.390625 -7.171875 48.1875 -13.984375 
Q 42 -20.796875 29.203125 -20.796875 
Q 24.46875 -20.796875 20.265625 -20.09375 
Q 16.0625 -19.390625 12.109375 -17.921875 
L 12.109375 -9.1875 
Q 16.0625 -11.328125 19.921875 -12.34375 
Q 23.78125 -13.375 27.78125 -13.375 
Q 36.625 -13.375 41.015625 -8.765625 
Q 45.40625 -4.15625 45.40625 5.171875 
L 45.40625 9.625 
Q 42.625 4.78125 38.28125 2.390625 
Q 33.9375 0 27.875 0 
Q 17.828125 0 11.671875 7.65625 
Q 5.515625 15.328125 5.515625 27.984375 
Q 5.515625 40.671875 11.671875 48.328125 
Q 17.828125 56 27.875 56 
Q 33.9375 56 38.28125 53.609375 
Q 42.625 51.21875 45.40625 46.390625 
L 45.40625 54.6875 
L 54.390625 54.6875 
z
" id="BitstreamVeraSans-Roman-67"/>
      <path d="M 9.421875 75.984375 
L 18.40625 75.984375 
L 18.40625 0 
L 9.421875 0 
z
" id="BitstreamVeraSans-Roman-6c"/>
     </defs>
     <g transform="translate(79.846875 462.69609375)rotate(-90.0)scale(0.3 -0.3)">
      <use xlink:href="#BitstreamVeraSans-Roman-6c"/>
      <use x="27.783203125" xlink:href="#BitstreamVeraSans-Roman-6f"/>
      <use x="88.96484375" xlink:href="#BitstreamVeraSans-Roman-67"/>
      <use x="152.44140625" xlink:href="#BitstreamVeraSans-Roman-28"/>
      <use x="191.455078125" xlink:href="#BitstreamVeraSans-Roman-6c"/>
      <use x="219.23828125" xlink:href="#BitstreamVeraSans-Roman-6f"/>
      <use x="280.419921875" xlink:href="#BitstreamVeraSans-Roman-73"/>
      <use x="332.51953125" xlink:href="#BitstreamVeraSans-Roman-73"/>
      <use x="384.619140625" xlink:href="#BitstreamVeraSans-Roman-29"/>
     </g>
    </g>
   </g>
   <g id="legend_1">
    <g id="patch_7">
     <path d="M 843.876562 163.36875 
L 1321.05 163.36875 
L 1321.05 66.3 
L 843.876562 66.3 
z
" style="fill:#ffffff;stroke:#000000;stroke-linejoin:miter;"/>
    </g>
    <g id="line2d_33">
     <path d="M 864.876562 90.595312 
L 906.876562 90.595312 
" style="fill:none;stroke:#0000ff;stroke-linecap:square;stroke-width:2.0;"/>
    </g>
    <g id="line2d_34"/>
    <g id="text_18">
     <!-- random: step=0.007813 -->
     <defs>
      <path id="BitstreamVeraSans-Roman-20"/>
      <path d="M 8.203125 72.90625 
L 55.078125 72.90625 
L 55.078125 68.703125 
L 28.609375 0 
L 18.3125 0 
L 43.21875 64.59375 
L 8.203125 64.59375 
z
" id="BitstreamVeraSans-Roman-37"/>
      <path d="M 52 44.1875 
Q 55.375 50.25 60.0625 53.125 
Q 64.75 56 71.09375 56 
Q 79.640625 56 84.28125 50.015625 
Q 88.921875 44.046875 88.921875 33.015625 
L 88.921875 0 
L 79.890625 0 
L 79.890625 32.71875 
Q 79.890625 40.578125 77.09375 44.375 
Q 74.3125 48.1875 68.609375 48.1875 
Q 61.625 48.1875 57.5625 43.546875 
Q 53.515625 38.921875 53.515625 30.90625 
L 53.515625 0 
L 44.484375 0 
L 44.484375 32.71875 
Q 44.484375 40.625 41.703125 44.40625 
Q 38.921875 48.1875 33.109375 48.1875 
Q 26.21875 48.1875 22.15625 43.53125 
Q 18.109375 38.875 18.109375 30.90625 
L 18.109375 0 
L 9.078125 0 
L 9.078125 54.6875 
L 18.109375 54.6875 
L 18.109375 46.1875 
Q 21.1875 51.21875 25.484375 53.609375 
Q 29.78125 56 35.6875 56 
Q 41.65625 56 45.828125 52.96875 
Q 50 49.953125 52 44.1875 
" id="BitstreamVeraSans-Roman-6d"/>
      <path d="M 11.71875 12.40625 
L 22.015625 12.40625 
L 22.015625 0 
L 11.71875 0 
z
M 11.71875 51.703125 
L 22.015625 51.703125 
L 22.015625 39.3125 
L 11.71875 39.3125 
z
" id="BitstreamVeraSans-Roman-3a"/>
      <path d="M 10.6875 12.40625 
L 21 12.40625 
L 21 0 
L 10.6875 0 
z
" id="BitstreamVeraSans-Roman-2e"/>
      <path d="M 10.59375 45.40625 
L 73.1875 45.40625 
L 73.1875 37.203125 
L 10.59375 37.203125 
z
M 10.59375 25.484375 
L 73.1875 25.484375 
L 73.1875 17.1875 
L 10.59375 17.1875 
z
" id="BitstreamVeraSans-Roman-3d"/>
      <path d="M 45.40625 46.390625 
L 45.40625 75.984375 
L 54.390625 75.984375 
L 54.390625 0 
L 45.40625 0 
L 45.40625 8.203125 
Q 42.578125 3.328125 38.25 0.953125 
Q 33.9375 -1.421875 27.875 -1.421875 
Q 17.96875 -1.421875 11.734375 6.484375 
Q 5.515625 14.40625 5.515625 27.296875 
Q 5.515625 40.1875 11.734375 48.09375 
Q 17.96875 56 27.875 56 
Q 33.9375 56 38.25 53.625 
Q 42.578125 51.265625 45.40625 46.390625 
M 14.796875 27.296875 
Q 14.796875 17.390625 18.875 11.75 
Q 22.953125 6.109375 30.078125 6.109375 
Q 37.203125 6.109375 41.296875 11.75 
Q 45.40625 17.390625 45.40625 27.296875 
Q 45.40625 37.203125 41.296875 42.84375 
Q 37.203125 48.484375 30.078125 48.484375 
Q 22.953125 48.484375 18.875 42.84375 
Q 14.796875 37.203125 14.796875 27.296875 
" id="BitstreamVeraSans-Roman-64"/>
      <path d="M 18.109375 8.203125 
L 18.109375 -20.796875 
L 9.078125 -20.796875 
L 9.078125 54.6875 
L 18.109375 54.6875 
L 18.109375 46.390625 
Q 20.953125 51.265625 25.265625 53.625 
Q 29.59375 56 35.59375 56 
Q 45.5625 56 51.78125 48.09375 
Q 58.015625 40.1875 58.015625 27.296875 
Q 58.015625 14.40625 51.78125 6.484375 
Q 45.5625 -1.421875 35.59375 -1.421875 
Q 29.59375 -1.421875 25.265625 0.953125 
Q 20.953125 3.328125 18.109375 8.203125 
M 48.6875 27.296875 
Q 48.6875 37.203125 44.609375 42.84375 
Q 40.53125 48.484375 33.40625 48.484375 
Q 26.265625 48.484375 22.1875 42.84375 
Q 18.109375 37.203125 18.109375 27.296875 
Q 18.109375 17.390625 22.1875 11.75 
Q 26.265625 6.109375 33.40625 6.109375 
Q 40.53125 6.109375 44.609375 11.75 
Q 48.6875 17.390625 48.6875 27.296875 
" id="BitstreamVeraSans-Roman-70"/>
     </defs>
     <g transform="translate(939.8765625 101.0953125)scale(0.3 -0.3)">
      <use xlink:href="#BitstreamVeraSans-Roman-72"/>
      <use x="41.11328125" xlink:href="#BitstreamVeraSans-Roman-61"/>
      <use x="102.392578125" xlink:href="#BitstreamVeraSans-Roman-6e"/>
      <use x="165.771484375" xlink:href="#BitstreamVeraSans-Roman-64"/>
      <use x="229.248046875" xlink:href="#BitstreamVeraSans-Roman-6f"/>
      <use x="290.4296875" xlink:href="#BitstreamVeraSans-Roman-6d"/>
      <use x="387.841796875" xlink:href="#BitstreamVeraSans-Roman-3a"/>
      <use x="421.533203125" xlink:href="#BitstreamVeraSans-Roman-20"/>
      <use x="453.3203125" xlink:href="#BitstreamVeraSans-Roman-73"/>
      <use x="505.419921875" xlink:href="#BitstreamVeraSans-Roman-74"/>
      <use x="544.62890625" xlink:href="#BitstreamVeraSans-Roman-65"/>
      <use x="606.15234375" xlink:href="#BitstreamVeraSans-Roman-70"/>
      <use x="669.62890625" xlink:href="#BitstreamVeraSans-Roman-3d"/>
      <use x="753.41796875" xlink:href="#BitstreamVeraSans-Roman-30"/>
      <use x="817.041015625" xlink:href="#BitstreamVeraSans-Roman-2e"/>
      <use x="848.828125" xlink:href="#BitstreamVeraSans-Roman-30"/>
      <use x="912.451171875" xlink:href="#BitstreamVeraSans-Roman-30"/>
      <use x="976.07421875" xlink:href="#BitstreamVeraSans-Roman-37"/>
      <use x="1039.69726562" xlink:href="#BitstreamVeraSans-Roman-38"/>
      <use x="1103.3203125" xlink:href="#BitstreamVeraSans-Roman-31"/>
      <use x="1166.94335938" xlink:href="#BitstreamVeraSans-Roman-33"/>
     </g>
    </g>
    <g id="line2d_35">
     <path d="M 864.876562 134.629687 
L 906.876562 134.629687 
" style="fill:none;stroke:#008000;stroke-dasharray:6.000000,6.000000;stroke-dashoffset:0.0;stroke-width:2.0;"/>
    </g>
    <g id="line2d_36"/>
    <g id="text_19">
     <!-- corr: step=0.007813 -->
     <defs>
      <path d="M 48.78125 52.59375 
L 48.78125 44.1875 
Q 44.96875 46.296875 41.140625 47.34375 
Q 37.3125 48.390625 33.40625 48.390625 
Q 24.65625 48.390625 19.8125 42.84375 
Q 14.984375 37.3125 14.984375 27.296875 
Q 14.984375 17.28125 19.8125 11.734375 
Q 24.65625 6.203125 33.40625 6.203125 
Q 37.3125 6.203125 41.140625 7.25 
Q 44.96875 8.296875 48.78125 10.40625 
L 48.78125 2.09375 
Q 45.015625 0.34375 40.984375 -0.53125 
Q 36.96875 -1.421875 32.421875 -1.421875 
Q 20.0625 -1.421875 12.78125 6.34375 
Q 5.515625 14.109375 5.515625 27.296875 
Q 5.515625 40.671875 12.859375 48.328125 
Q 20.21875 56 33.015625 56 
Q 37.15625 56 41.109375 55.140625 
Q 45.0625 54.296875 48.78125 52.59375 
" id="BitstreamVeraSans-Roman-63"/>
     </defs>
     <g transform="translate(939.8765625 145.1296875)scale(0.3 -0.3)">
      <use xlink:href="#BitstreamVeraSans-Roman-63"/>
      <use x="54.98046875" xlink:href="#BitstreamVeraSans-Roman-6f"/>
      <use x="116.162109375" xlink:href="#BitstreamVeraSans-Roman-72"/>
      <use x="157.259765625" xlink:href="#BitstreamVeraSans-Roman-72"/>
      <use x="198.357421875" xlink:href="#BitstreamVeraSans-Roman-3a"/>
      <use x="232.048828125" xlink:href="#BitstreamVeraSans-Roman-20"/>
      <use x="263.8359375" xlink:href="#BitstreamVeraSans-Roman-73"/>
      <use x="315.935546875" xlink:href="#BitstreamVeraSans-Roman-74"/>
      <use x="355.14453125" xlink:href="#BitstreamVeraSans-Roman-65"/>
      <use x="416.66796875" xlink:href="#BitstreamVeraSans-Roman-70"/>
      <use x="480.14453125" xlink:href="#BitstreamVeraSans-Roman-3d"/>
      <use x="563.93359375" xlink:href="#BitstreamVeraSans-Roman-30"/>
      <use x="627.556640625" xlink:href="#BitstreamVeraSans-Roman-2e"/>
      <use x="659.34375" xlink:href="#BitstreamVeraSans-Roman-30"/>
      <use x="722.966796875" xlink:href="#BitstreamVeraSans-Roman-30"/>
      <use x="786.58984375" xlink:href="#BitstreamVeraSans-Roman-37"/>
      <use x="850.212890625" xlink:href="#BitstreamVeraSans-Roman-38"/>
      <use x="913.8359375" xlink:href="#BitstreamVeraSans-Roman-31"/>
      <use x="977.458984375" xlink:href="#BitstreamVeraSans-Roman-33"/>
     </g>
    </g>
   </g>
  </g>
 </g>
 <defs>
  <clipPath id="pd53c8b618a">
   <rect height="695.7" width="1177.65" x="158.4" y="51.3"/>
  </clipPath>
 </defs>
</svg>
