<?xml version="1.0" encoding="utf-8" standalone="no"?>
<!DOCTYPE svg PUBLIC "-//W3C//DTD SVG 1.1//EN"
  "http://www.w3.org/Graphics/SVG/1.1/DTD/svg11.dtd">
<!-- Created with matplotlib (http://matplotlib.org/) -->
<svg height="864pt" version="1.1" viewBox="0 0 1440 864" width="1440pt" xmlns="http://www.w3.org/2000/svg" xmlns:xlink="http://www.w3.org/1999/xlink">
 <defs>
  <style type="text/css">
*{stroke-linecap:butt;stroke-linejoin:round;stroke-miterlimit:100000;}
  </style>
 </defs>
 <g id="figure_1">
  <g id="patch_1">
   <path d="M 0 864 
L 1440 864 
L 1440 0 
L 0 0 
z
" style="fill:#ffffff;"/>
  </g>
  <g id="axes_1">
   <g id="patch_2">
    <path d="M 158.4 747 
L 1336.05 747 
L 1336.05 51.3 
L 158.4 51.3 
z
" style="fill:#ffffff;"/>
   </g>
   <g id="line2d_1">
    <path clip-path="url(#pbb72e1b3ba)" d="M 159.57765 127.012846 
L 160.7553 133.364799 
L 161.93295 138.011224 
L 163.1106 142.189355 
L 164.28825 147.854711 
L 167.8212 162.278253 
L 170.1765 162.278165 
L 171.35415 173.338394 
L 172.5318 173.343712 
M 174.8871 186.105081 
L 176.06475 185.457277 
L 177.2424 185.426192 
L 178.42005 186.105081 
L 179.5977 185.426192 
L 180.77535 196.286363 
L 181.953 196.298142 
L 183.13065 196.669872 
L 184.3083 199.621991 
L 185.48595 207.536584 
L 186.6636 207.527711 
L 187.84125 213.227139 
L 189.0189 218.266929 
L 190.19655 218.261539 
L 191.3742 228.761258 
L 192.55185 228.761917 
L 193.7295 228.376611 
L 194.90715 238.44415 
L 196.0848 241.322634 
L 197.26245 241.323359 
L 198.4401 245.622265 
L 199.61775 245.636473 
L 200.7954 253.042698 
L 203.1507 253.042698 
L 204.32835 264.489781 
L 205.506 264.506901 
L 206.68365 265.164854 
L 207.8613 268.456654 
L 209.03895 277.755631 
L 210.2166 277.777753 
L 211.39425 286.974823 
L 212.5719 290.650363 
L 213.74955 299.861146 
L 214.9272 299.86512 
L 216.10485 300.614717 
L 217.2825 303.611297 
L 218.46015 309.156385 
L 219.6378 316.453061 
L 220.81545 321.174898 
L 221.9931 329.874968 
L 223.17075 329.880699 
L 224.3484 330.939718 
L 225.52605 335.813396 
L 226.7037 349.262385 
L 229.059 349.262675 
L 230.23665 350.321053 
L 231.4143 364.521498 
L 232.59195 367.98214 
L 233.7696 372.103288 
L 234.94725 386.737463 
L 236.1249 386.738236 
L 237.30255 387.526513 
L 238.4802 395.507693 
L 239.65785 395.598397 
L 240.8355 396.151587 
L 242.01315 400.971834 
L 243.1908 409.995114 
L 244.36845 413.024607 
L 245.5461 419.55773 
L 246.72375 419.501839 
L 247.9014 420.645408 
L 249.07905 426.231176 
L 250.2567 429.828932 
L 251.43435 437.488638 
L 252.612 446.221888 
L 253.78965 446.221888 
L 254.9673 460.604333 
L 256.14495 461.829657 
L 257.3226 465.573009 
L 258.50025 476.535293 
L 259.6779 482.394501 
L 260.85555 483.703506 
L 262.0332 489.339624 
L 264.3885 509.935163 
L 265.56615 507.214625 
L 266.7438 522.204718 
L 269.0991 522.174807 
L 270.27675 530.937044 
L 271.4544 530.984045 
L 272.63205 534.624302 
L 273.8097 534.623778 
L 274.98735 539.259872 
L 276.165 539.260073 
L 277.34265 549.945949 
L 279.69795 549.945949 
L 280.8756 561.697583 
L 282.05325 562.716483 
L 283.2309 562.718119 
L 284.40855 573.446037 
L 286.76385 573.446037 
L 287.9415 578.665889 
L 289.11915 578.665578 
L 290.2968 585.898253 
L 291.47445 587.203148 
L 292.6521 594.444108 
L 293.82975 594.44709 
L 295.0074 604.055934 
L 296.18505 604.055934 
L 297.3627 604.768452 
L 298.54035 604.770316 
L 299.718 613.83118 
L 300.89565 613.908791 
L 302.0733 620.150343 
L 303.25095 620.152401 
L 304.4286 625.397145 
L 305.60625 625.401621 
L 306.7839 635.907408 
L 307.96155 642.240474 
L 309.1392 642.497644 
L 310.31685 642.496504 
L 311.4945 653.780557 
L 312.67215 654.525381 
L 313.8498 666.365369 
L 315.02745 669.09056 
L 316.2051 669.09056 
L 317.38275 680.737821 
L 318.5604 683.622507 
L 319.73805 683.615333 
L 320.9157 695.643453 
L 322.09335 695.552493 
L 323.271 697.468994 
L 324.44865 697.470102 
L 325.6263 705.688492 
L 326.80395 705.695262 
L 327.9816 710.263349 
L 329.15925 710.263056 
L 330.3369 713.282098 
L 331.51455 713.394127 
L 332.6922 719.32958 
L 333.86985 719.32958 
L 335.0475 721.24702 
L 336.22515 721.423093 
L 337.4028 721.05841 
L 338.58045 721.059969 
L 339.7581 720.906105 
L 340.93575 720.906224 
L 342.1134 721.168638 
L 343.29105 721.172413 
L 344.4687 722.781574 
L 345.64635 722.786425 
L 346.824 724.418111 
L 348.00165 724.398426 
L 349.1793 722.967899 
L 350.35695 722.967899 
L 351.5346 722.771966 
L 352.71225 722.775592 
L 353.8899 723.435232 
L 355.06755 722.914802 
L 356.2452 722.911192 
L 357.42285 721.818321 
L 358.6005 721.967094 
L 359.77815 721.965057 
L 362.13345 722.873791 
L 363.3111 723.792757 
L 364.48875 723.997921 
L 365.6664 724.352269 
L 366.84405 724.351821 
L 368.0217 722.999506 
L 369.19935 722.745434 
L 370.377 721.854883 
L 371.55465 721.856051 
L 372.7323 722.281091 
L 373.90995 723.026397 
L 375.0876 723.352198 
L 376.26525 723.338062 
L 377.4429 722.712174 
L 378.62055 722.936905 
L 380.97585 722.965482 
L 382.1535 723.367406 
L 383.33115 722.873172 
L 384.5088 722.87531 
L 385.68645 722.532426 
L 386.8641 722.53379 
L 388.04175 724.589312 
L 389.2194 724.589312 
L 390.39705 721.385228 
L 391.5747 721.667255 
L 392.75235 721.670589 
L 393.93 723.670965 
L 395.10765 723.453294 
L 396.2853 723.449407 
L 397.46295 722.494416 
L 398.6406 722.486536 
L 399.81825 723.068408 
L 400.9959 723.068408 
L 402.17355 722.285225 
L 403.3512 722.285729 
L 404.52885 723.068408 
L 405.7065 723.508622 
L 408.0618 723.602348 
L 409.23945 724.215182 
L 410.4171 724.219225 
L 411.59475 724.029717 
L 412.7724 724.03247 
L 413.95005 723.762404 
L 415.1277 723.734018 
L 416.30535 723.32611 
L 419.8383 723.3241 
L 421.01595 722.290629 
L 422.1936 722.131191 
L 423.37125 720.042077 
L 424.5489 720.06877 
L 425.72655 719.610282 
L 426.9042 719.6119 
L 428.08185 719.414527 
L 429.2595 721.100664 
L 430.43715 721.099178 
L 431.6148 720.370552 
L 432.79245 722.098869 
L 433.9701 722.06692 
L 435.14775 721.703857 
L 436.3254 721.052076 
L 437.50305 720.587423 
L 438.6807 720.398056 
L 439.85835 720.397562 
L 441.036 720.535639 
L 442.21365 721.990993 
L 443.3913 722.20698 
L 444.56895 722.067536 
L 445.7466 721.385364 
L 446.92425 721.343297 
L 448.1019 721.46559 
L 449.27955 721.472075 
L 450.4572 721.799808 
L 451.63485 722.524964 
L 452.8125 723.024153 
L 453.99015 722.978372 
L 455.1678 722.597453 
L 456.34545 722.695222 
L 457.5231 723.548305 
L 458.70075 723.526737 
L 459.8784 723.350496 
L 463.41135 723.53388 
L 464.589 723.672079 
L 465.76665 724.96698 
L 466.9443 725.406015 
L 468.12195 725.20912 
L 469.2996 723.515003 
L 470.47725 723.474661 
L 471.6549 722.648358 
L 472.83255 721.630543 
L 474.0102 722.79223 
L 477.54315 722.72453 
L 478.7208 719.709046 
L 479.89845 719.711816 
L 481.0761 720.114095 
L 482.25375 720.121298 
L 483.4314 722.34809 
L 484.60905 722.360815 
L 485.7867 721.754582 
L 486.96435 721.753083 
L 488.142 721.086536 
L 489.31965 721.08696 
L 490.4973 723.777172 
L 491.67495 722.862571 
L 492.8526 722.863357 
L 494.03025 722.542793 
L 495.2079 722.560628 
L 496.38555 724.039836 
L 497.5632 724.040523 
L 498.74085 723.308752 
L 499.9185 723.310511 
L 501.09615 721.96235 
L 502.2738 720.32265 
L 504.6291 720.32265 
L 505.80675 722.399136 
L 506.9844 722.507327 
L 510.51735 722.565243 
L 511.695 722.353341 
L 512.87265 722.348708 
L 514.0503 722.706234 
L 515.22795 723.297867 
L 516.4056 723.29697 
L 517.58325 723.858686 
L 518.7609 724.014571 
L 519.93855 724.014966 
L 521.1162 723.738814 
L 522.29385 724.179649 
L 523.4715 724.17728 
L 524.64915 723.929938 
L 525.8268 724.598767 
L 527.00445 724.59567 
L 528.1821 723.462274 
L 529.35975 723.462612 
L 530.5374 723.317485 
L 531.71505 723.32072 
L 532.8927 721.51219 
L 534.07035 721.47687 
L 535.248 721.841275 
L 536.42565 721.832388 
L 537.6033 722.709328 
L 538.78095 721.814766 
L 539.9586 721.814766 
L 541.13625 721.69704 
L 544.6692 721.788632 
L 545.84685 721.491467 
L 547.0245 721.567888 
L 548.20215 722.209683 
L 549.3798 722.21028 
L 550.55745 722.897381 
L 551.7351 722.908752 
L 552.91275 725.411439 
L 554.0904 725.408304 
L 555.26805 725.001305 
L 556.4457 725.004495 
L 557.62335 723.179977 
L 561.1563 723.060269 
L 562.33395 722.737879 
L 563.5116 722.761041 
L 564.68925 721.847066 
L 565.8669 721.843587 
L 567.04455 721.627579 
L 568.2222 721.627579 
L 569.39985 721.063279 
L 571.75515 720.975942 
L 572.9328 721.513616 
L 574.11045 721.719676 
L 575.2881 721.708061 
L 576.46575 721.862105 
L 577.6434 721.708061 
L 579.9987 721.927225 
L 582.354 722.227688 
L 583.53165 722.38338 
L 585.88695 721.987786 
L 587.0646 722.247072 
L 588.24225 722.644652 
L 590.59755 722.680271 
L 591.7752 721.814113 
L 592.95285 721.811853 
L 594.1305 721.450174 
L 595.30815 721.739341 
L 596.4858 721.716345 
L 597.66345 721.095869 
L 600.01875 721.095869 
L 601.1964 721.86828 
L 603.5517 721.816708 
L 604.72935 721.940617 
L 605.907 721.889955 
L 607.08465 721.196449 
L 608.2623 721.194467 
L 609.43995 720.619743 
L 610.6176 720.624487 
L 611.79525 719.2833 
L 612.9729 719.2833 
L 614.15055 720.374028 
L 616.50585 720.391393 
L 617.6835 720.746001 
L 618.86115 720.77232 
L 621.21645 720.673898 
L 622.3941 721.068221 
L 623.57175 721.324865 
L 625.92705 721.33507 
L 627.1047 721.911828 
L 628.28235 721.963249 
L 629.46 722.53363 
L 634.1706 722.46667 
L 635.34825 722.765036 
L 637.70355 722.729916 
L 638.8812 723.277534 
L 640.05885 723.277534 
L 641.2365 723.019268 
L 642.41415 723.873458 
L 643.5918 723.285184 
L 645.9471 723.194334 
L 647.12475 722.347804 
L 648.3024 722.347903 
L 649.48005 722.139968 
L 650.6577 722.077826 
L 651.83535 722.671428 
L 653.013 722.905294 
L 654.19065 722.899165 
L 655.3683 722.654966 
L 656.54595 722.721436 
L 657.7236 721.498145 
L 660.0789 721.498145 
L 661.25655 721.823487 
L 662.4342 721.845491 
L 663.61185 722.723994 
L 664.7895 722.795134 
L 665.96715 722.454327 
L 667.1448 722.45663 
L 668.32245 722.685563 
L 669.5001 722.712521 
L 670.67775 723.497144 
L 671.8554 723.235725 
L 675.38835 723.234116 
L 676.566 721.81712 
L 677.74365 721.521838 
L 678.9213 721.520263 
L 681.2766 722.22656 
L 682.45425 722.388394 
L 683.6319 723.126453 
L 684.80955 723.002128 
L 685.9872 722.291342 
L 687.16485 722.241147 
L 688.3425 723.921588 
L 689.52015 723.881671 
L 690.6978 723.577569 
L 691.87545 723.715684 
L 693.0531 722.433898 
L 694.23075 721.975109 
L 695.4084 721.39574 
L 697.7637 720.786063 
L 698.94135 721.309752 
L 701.29665 721.326545 
L 702.4743 721.645132 
L 703.65195 721.643556 
L 704.8296 721.854387 
L 706.00725 721.856602 
L 707.1849 722.32664 
L 708.36255 722.35302 
L 709.5402 721.701447 
L 713.07315 721.699216 
L 714.2508 723.081896 
L 715.42845 723.081693 
L 716.6061 722.899687 
L 717.78375 722.899444 
L 718.9614 720.646263 
L 720.13905 720.140128 
L 721.3167 720.140228 
L 722.49435 720.866043 
L 723.672 721.258935 
L 724.84965 721.257299 
L 726.0273 721.538238 
L 727.20495 721.538924 
L 728.3826 722.404136 
L 731.91555 722.376618 
L 733.0932 719.900858 
L 734.27085 719.908723 
L 735.4485 719.664674 
L 736.62615 719.543641 
L 737.8038 719.544287 
L 738.98145 720.548718 
L 740.1591 720.666737 
L 741.33675 723.108623 
L 742.5144 723.108623 
L 743.69205 722.432078 
L 744.8697 722.432637 
L 746.04735 721.707226 
L 749.5803 721.636985 
L 750.75795 721.10402 
L 751.9356 721.094991 
L 753.11325 721.53368 
L 754.2909 721.535459 
L 756.6462 722.585978 
L 757.82385 722.585978 
L 759.0015 722.869938 
L 761.3568 722.869938 
L 762.53445 723.421871 
L 763.7121 723.47921 
L 766.0674 722.601872 
L 767.24505 722.603031 
L 768.4227 721.964755 
L 769.60035 722.876252 
L 770.778 722.8803 
L 771.95565 724.280683 
L 773.1333 724.281827 
L 774.31095 724.099165 
L 775.4886 724.101976 
L 776.66625 723.856771 
L 777.8439 723.853747 
L 779.02155 723.719105 
L 780.1992 723.719603 
L 781.37685 722.365086 
L 782.5545 722.391893 
L 783.73215 722.647772 
L 784.9098 722.646583 
L 786.08745 721.989773 
L 787.2651 721.763025 
L 788.44275 721.761634 
L 789.6204 722.018372 
L 791.9757 722.018372 
L 793.15335 723.056832 
L 794.331 723.05918 
L 796.6863 724.544768 
L 797.86395 724.544768 
L 799.0416 725.229885 
L 800.21925 725.227262 
L 801.3969 724.82262 
L 802.57455 724.824101 
L 803.7522 721.983282 
L 804.92985 721.963812 
L 806.1075 722.552742 
L 807.28515 722.556702 
L 808.4628 722.704405 
L 809.64045 723.167733 
L 810.8181 723.167733 
L 811.99575 724.241553 
L 813.1734 722.453329 
L 815.5287 722.539209 
L 816.70635 722.020203 
L 817.884 722.197161 
L 819.06165 722.194948 
L 820.2393 722.493852 
L 821.41695 722.331314 
L 822.5946 722.801313 
L 824.9499 722.810892 
L 826.12755 722.29907 
L 827.3052 722.251351 
L 828.48285 721.374698 
L 829.6605 721.131468 
L 830.83815 721.119255 
L 832.0158 720.61903 
L 833.19345 723.13558 
L 834.3711 722.943336 
L 835.54875 723.049211 
L 836.7264 721.886132 
L 837.90405 721.790388 
L 839.0817 722.094188 
L 840.25935 721.724751 
L 841.437 721.716068 
L 843.7923 721.956728 
L 844.96995 721.947437 
L 846.1476 720.997183 
L 847.32525 720.765637 
L 848.5029 720.751868 
L 849.68055 720.570409 
L 850.8582 720.239115 
L 852.03585 720.235642 
L 853.2135 721.086112 
L 855.5688 720.974941 
L 856.74645 721.979044 
L 857.9241 721.977853 
L 859.10175 721.834625 
L 860.2794 721.272063 
L 861.45705 721.272918 
L 862.6347 721.786533 
L 863.81235 721.281783 
L 866.16765 721.272057 
L 867.3453 722.159763 
L 868.52295 722.663387 
L 870.87825 722.635375 
L 872.0559 723.724207 
L 874.4112 723.790133 
L 880.29945 723.708861 
L 881.4771 721.600133 
L 882.65475 722.362111 
L 883.8324 722.362111 
L 885.01005 723.497531 
L 887.36535 723.497531 
L 888.543 724.058391 
L 889.72065 722.75332 
L 890.8983 722.75928 
L 892.07595 721.060552 
L 894.43125 721.027923 
L 895.6089 722.839408 
L 896.78655 722.839377 
L 897.9642 723.49825 
L 899.14185 723.497957 
L 900.3195 723.099938 
L 901.49715 723.094655 
L 902.6748 721.402607 
L 903.85245 721.403951 
L 905.0301 720.187592 
L 909.7407 720.194975 
L 910.91835 721.611128 
L 912.096 721.602007 
L 913.27365 721.365785 
L 914.4513 720.270471 
L 916.8066 720.306155 
L 917.98425 721.124665 
L 919.1619 722.446654 
L 920.33955 722.429699 
L 921.5172 722.879568 
L 922.69485 723.471687 
L 923.8725 723.465132 
L 925.05015 725.064694 
L 926.2278 725.064694 
L 927.40545 724.885754 
L 928.5831 723.998358 
L 929.76075 723.973937 
L 930.9384 724.094401 
L 932.11605 723.152268 
L 933.2937 721.866817 
L 934.47135 721.950323 
L 935.649 720.868483 
L 936.82665 720.87497 
L 939.18195 720.45974 
L 940.3596 720.461444 
L 941.53725 720.774077 
L 942.7149 723.098463 
L 943.89255 723.199144 
L 945.0702 724.040948 
L 946.24785 723.723387 
L 947.4255 723.855827 
L 948.60315 722.476254 
L 949.7808 722.55868 
L 950.95845 722.491527 
L 952.1361 721.838288 
L 955.66905 721.947448 
L 956.8467 722.257139 
L 958.02435 722.718052 
L 959.202 723.601466 
L 960.37965 723.656851 
L 961.5573 722.805831 
L 963.9126 722.805831 
L 965.09025 722.570214 
L 966.2679 722.769553 
L 967.44555 721.86797 
L 969.80085 721.86797 
L 970.9785 722.84213 
L 973.3338 722.84213 
L 974.51145 724.249439 
L 976.86675 724.249439 
L 978.0444 723.186333 
L 980.3997 723.186333 
L 981.57735 721.945655 
L 987.4656 721.981364 
L 988.64325 722.49616 
L 992.1762 722.519912 
L 993.35385 723.341423 
L 994.5315 723.3832 
L 995.70915 724.278171 
L 998.06445 724.095527 
L 999.2421 723.285827 
L 1001.5974 722.152922 
L 1002.77505 721.992068 
L 1003.9527 720.784133 
L 1005.13035 721.529097 
L 1006.308 722.609652 
L 1007.48565 720.814886 
L 1008.6633 721.535682 
L 1012.19625 721.535682 
L 1013.3739 720.265617 
L 1016.90685 720.265617 
L 1018.0845 721.210829 
L 1021.61745 721.210875 
L 1022.7951 722.286192 
L 1026.32805 722.287188 
L 1027.5057 721.452042 
L 1032.2163 721.454894 
L 1033.39395 722.066288 
L 1034.5716 722.072598 
L 1035.74925 722.345868 
L 1039.2822 722.345868 
L 1040.45985 722.010687 
L 1043.9928 722.010687 
L 1045.17045 721.876878 
L 1048.7034 721.86897 
L 1049.88105 722.395851 
L 1053.414 722.396643 
L 1054.59165 719.331856 
L 1055.7693 721.149261 
L 1056.94695 722.639988 
L 1058.1246 723.631517 
L 1059.30225 723.825628 
L 1060.4799 723.826084 
L 1061.65755 722.303862 
L 1062.8352 722.138926 
L 1064.01285 722.135339 
L 1065.1905 722.267124 
L 1066.36815 722.678478 
L 1067.5458 722.678478 
L 1068.72345 722.290119 
L 1069.9011 722.572512 
L 1071.07875 722.570268 
L 1072.2564 723.107064 
L 1075.78935 722.972397 
L 1076.967 722.725852 
L 1079.3223 722.732451 
L 1080.49995 721.538057 
L 1082.85525 721.54683 
L 1084.0329 720.705421 
L 1085.21055 720.705421 
L 1086.3882 721.999613 
L 1087.56585 722.119718 
L 1089.92115 722.804761 
L 1091.0988 722.545089 
L 1092.27645 722.993618 
L 1094.63175 721.028509 
L 1095.8094 718.890504 
L 1096.98705 719.215288 
L 1098.1647 719.25935 
L 1099.34235 721.026194 
L 1100.52 721.029497 
L 1102.8753 721.232232 
L 1106.40825 721.342123 
L 1108.76355 721.43958 
L 1109.9412 722.16938 
L 1112.2965 722.213008 
L 1113.47415 721.808196 
L 1115.82945 721.808196 
L 1117.0071 724.503963 
L 1119.3624 724.503963 
L 1120.54005 724.198419 
L 1124.073 724.136748 
L 1125.25065 722.979563 
L 1126.4283 722.993222 
L 1127.60595 721.390592 
L 1128.7836 721.211422 
L 1129.96125 721.21174 
L 1131.1389 721.497675 
L 1132.31655 722.838118 
L 1133.4942 723.295252 
L 1134.67185 724.24626 
L 1135.8495 721.780842 
L 1137.02715 721.76968 
L 1138.2048 721.208751 
L 1139.38245 720.294964 
L 1140.5601 719.977385 
L 1142.9154 720.114722 
L 1144.09305 723.379803 
L 1145.2707 723.963115 
L 1146.44835 723.220165 
L 1147.626 722.129433 
L 1148.80365 721.542793 
L 1149.9813 720.565799 
L 1151.15895 721.672591 
L 1152.3366 721.744231 
L 1153.51425 722.004546 
L 1154.6919 721.862111 
L 1155.86955 721.908328 
L 1157.0472 721.543687 
L 1158.22485 721.579595 
L 1159.4025 721.181992 
L 1160.58015 721.494375 
L 1161.7578 721.08752 
L 1162.93545 723.258291 
L 1164.1131 722.84919 
L 1165.29075 722.84919 
L 1166.4684 722.560174 
L 1167.64605 719.852871 
L 1168.8237 720.367444 
L 1171.179 722.370587 
L 1172.35665 721.276465 
L 1173.5343 721.917338 
L 1174.71195 721.897666 
L 1175.8896 723.653543 
L 1177.06725 723.577837 
L 1178.2449 723.003298 
L 1179.42255 721.865277 
L 1180.6002 722.166061 
L 1182.9555 721.741277 
L 1184.13315 722.598671 
L 1185.3108 720.839301 
L 1186.48845 720.573928 
L 1187.6661 721.482771 
L 1188.84375 720.674577 
L 1190.0214 721.838706 
L 1191.19905 720.74732 
L 1192.3767 720.72365 
L 1193.55435 721.992029 
L 1194.732 720.745093 
L 1195.90965 720.825073 
L 1197.0873 723.433851 
L 1199.4426 723.446978 
L 1200.62025 720.962184 
L 1201.7979 720.683406 
L 1204.1532 721.001304 
L 1205.33085 721.431487 
L 1206.5085 723.448348 
L 1207.68615 723.31373 
L 1208.8638 723.932142 
L 1210.04145 724.98242 
L 1211.2191 724.2008 
L 1212.39675 723.873625 
L 1213.5744 722.525917 
L 1214.75205 721.783832 
L 1215.9297 721.773714 
L 1217.10735 720.519827 
L 1218.285 721.633562 
L 1221.81795 722.021422 
L 1222.9956 721.805631 
L 1225.3509 721.703884 
L 1226.52855 722.830766 
L 1227.7062 723.301935 
L 1228.88385 723.404025 
L 1230.0615 722.725937 
L 1231.23915 723.149997 
L 1233.59445 723.199986 
L 1234.7721 723.014286 
L 1235.94975 721.533552 
L 1237.1274 721.371449 
L 1238.30505 721.800109 
L 1239.4827 723.577689 
L 1240.66035 723.418064 
L 1241.838 721.967323 
L 1244.1933 720.396933 
L 1245.37095 720.374967 
L 1246.5486 721.098804 
L 1247.72625 722.864917 
L 1248.9039 722.001317 
L 1250.08155 722.155289 
L 1251.2592 723.360117 
L 1252.43685 723.305222 
L 1253.6145 722.463406 
L 1254.79215 721.287708 
L 1255.9698 722.560562 
L 1257.14745 722.578937 
L 1258.3251 722.983058 
L 1259.50275 723.544141 
L 1260.6804 722.808979 
L 1261.85805 723.601735 
L 1263.0357 721.925963 
L 1264.21335 721.68938 
L 1265.391 722.157634 
L 1266.56865 721.884362 
L 1267.7463 721.813713 
L 1268.92395 721.87046 
L 1270.1016 720.678774 
L 1271.27925 721.536777 
L 1272.4569 721.241584 
L 1273.63455 721.504882 
L 1274.8122 720.911033 
L 1275.98985 721.70585 
L 1278.34515 721.657918 
L 1279.5228 721.690819 
L 1280.70045 723.53709 
L 1281.8781 723.319383 
L 1283.05575 723.513769 
L 1284.2334 722.682077 
L 1285.41105 722.39065 
L 1286.5887 723.017567 
L 1288.944 723.027614 
L 1290.12165 720.933371 
L 1291.2993 720.337269 
L 1292.47695 720.664406 
L 1293.6546 721.341203 
L 1294.83225 721.329917 
L 1297.18755 721.853615 
L 1298.3652 723.69931 
L 1300.7205 723.617528 
L 1301.89815 721.962105 
L 1303.0758 722.089805 
L 1304.25345 721.791855 
L 1305.4311 720.746811 
L 1306.60875 720.733963 
L 1307.7864 720.192384 
L 1308.96405 722.162811 
L 1311.31935 722.827813 
L 1312.497 722.806446 
L 1313.67465 722.53618 
L 1314.8523 721.970484 
L 1320.74055 722.074564 
L 1321.9182 722.137707 
L 1323.09585 721.456647 
L 1324.2735 720.974836 
L 1325.45115 719.024518 
L 1326.6288 719.14583 
L 1327.80645 721.755906 
L 1328.9841 722.684005 
L 1330.16175 724.142059 
L 1332.51705 724.243707 
L 1333.6947 724.106708 
L 1334.87235 723.125247 
L 1336.05 723.136103 
L 1336.05 723.136103 
" style="fill:none;stroke:#0000ff;stroke-linecap:square;stroke-width:2.0;"/>
   </g>
   <g id="line2d_2">
    <path clip-path="url(#pbb72e1b3ba)" d="M 159.57765 129.651372 
L 160.7553 135.982724 
L 163.1106 145.968629 
L 165.4659 159.3249 
L 166.64355 164.227876 
L 168.99885 175.608138 
L 170.1765 175.608138 
L 171.35415 181.035421 
L 172.5318 181.035421 
L 173.70945 186.174263 
L 174.8871 186.174111 
L 176.06475 193.076075 
L 178.42005 193.076075 
L 179.5977 203.43004 
L 180.77535 209.092593 
L 181.953 209.40344 
L 183.13065 209.403253 
L 184.3083 193.076075 
L 185.48595 221.144745 
L 187.84125 232.779012 
L 189.0189 240.441578 
L 190.19655 241.560084 
L 191.3742 250.18869 
L 192.55185 251.898414 
L 193.7295 266.822429 
L 194.90715 270.052814 
L 196.0848 271.623017 
L 197.26245 278.823239 
L 198.4401 284.420625 
L 199.61775 292.290212 
L 200.7954 296.877921 
L 201.97305 307.63144 
L 203.1507 310.315612 
L 204.32835 317.708088 
L 205.506 317.779316 
L 206.68365 327.754918 
L 207.8613 327.755094 
L 209.03895 326.02167 
L 210.2166 328.021305 
L 211.39425 337.637914 
L 212.5719 337.630749 
L 213.74955 340.860539 
L 214.9272 350.985685 
L 217.2825 351.00274 
L 218.46015 355.948859 
L 219.6378 361.513542 
L 220.81545 370.939015 
L 221.9931 381.415526 
L 223.17075 378.225701 
L 224.3484 382.93038 
L 225.52605 390.243334 
L 226.7037 391.310022 
L 227.88135 401.494348 
L 229.059 406.890929 
L 230.23665 421.219033 
L 231.4143 420.385765 
L 232.59195 422.209622 
L 233.7696 428.813531 
L 234.94725 428.842669 
L 236.1249 429.873063 
L 237.30255 435.503418 
L 238.4802 447.103422 
L 239.65785 453.314367 
L 240.8355 462.783 
L 242.01315 463.643958 
L 243.1908 473.919866 
L 244.36845 473.919875 
L 245.5461 478.029936 
L 246.72375 478.029734 
L 247.9014 481.95215 
L 249.07905 481.963855 
L 250.2567 494.253862 
L 251.43435 494.253862 
L 252.612 493.356064 
L 253.78965 493.357466 
L 254.9673 501.092023 
L 256.14495 501.11767 
L 257.3226 504.179428 
L 258.50025 504.182003 
L 259.6779 509.850855 
L 260.85555 518.361947 
L 262.0332 518.361788 
L 263.21085 516.841786 
L 264.3885 516.837153 
L 265.56615 524.518591 
L 266.7438 524.518098 
L 267.92145 525.316611 
L 269.0991 525.316914 
L 270.27675 534.048428 
L 271.4544 534.052195 
L 272.63205 538.618143 
L 273.8097 538.618556 
L 274.98735 542.477517 
L 276.165 542.47404 
L 277.34265 552.75454 
L 278.5203 552.75454 
L 279.69795 551.838501 
L 280.8756 562.888951 
L 282.05325 562.926631 
L 283.2309 563.741367 
L 284.40855 567.146552 
L 285.5862 573.667275 
L 286.76385 573.824353 
L 287.9415 573.667275 
L 289.11915 582.469615 
L 290.2968 588.194597 
L 291.47445 602.22843 
L 292.6521 602.744536 
L 293.82975 611.648415 
L 295.0074 611.70916 
L 296.18505 616.516409 
L 297.3627 616.519673 
L 298.54035 620.161207 
L 299.718 620.174982 
L 300.89565 629.239792 
L 302.0733 629.239733 
L 303.25095 628.403218 
L 304.4286 628.400852 
L 305.60625 638.862956 
L 306.7839 638.867903 
L 307.96155 641.557331 
L 309.1392 641.555295 
L 310.31685 647.701556 
L 311.4945 647.709534 
L 312.67215 654.155727 
L 313.8498 654.155096 
L 315.02745 660.504297 
L 316.2051 660.504297 
L 317.38275 661.1733 
L 318.5604 661.173094 
L 319.73805 668.588187 
L 320.9157 668.610714 
L 322.09335 673.092995 
L 323.271 673.091476 
L 324.44865 678.514397 
L 325.6263 678.512556 
L 326.80395 688.506775 
L 327.9816 688.506775 
L 329.15925 694.373851 
L 330.3369 694.373851 
L 331.51455 695.139807 
L 332.6922 695.14008 
L 333.86985 702.007211 
L 335.0475 701.976475 
L 336.22515 705.91901 
L 337.4028 705.920088 
L 338.58045 710.726304 
L 339.7581 710.706066 
L 340.93575 714.792666 
L 342.1134 714.792666 
L 343.29105 714.436847 
L 344.4687 717.628826 
L 345.64635 717.628826 
L 346.824 717.059365 
L 348.00165 718.323243 
L 349.1793 718.56898 
L 350.35695 718.562143 
L 351.5346 718.837653 
L 352.71225 719.93745 
L 353.8899 720.76184 
L 355.06755 720.573776 
L 356.2452 722.018091 
L 357.42285 723.678228 
L 358.6005 721.180584 
L 359.77815 721.083928 
L 360.9558 719.506221 
L 363.3111 719.551114 
L 364.48875 719.552746 
L 365.6664 719.953348 
L 366.84405 719.941398 
L 368.0217 720.731531 
L 369.19935 720.731531 
L 370.377 721.754756 
L 373.90995 721.816379 
L 375.0876 722.711736 
L 378.62055 722.747345 
L 379.7982 722.488474 
L 384.5088 722.03828 
L 388.04175 722.092987 
L 389.2194 721.844043 
L 390.39705 723.003065 
L 391.5747 723.07578 
L 392.75235 723.028857 
L 393.93 721.982069 
L 395.10765 721.983014 
L 396.2853 724.632698 
L 397.46295 722.8673 
L 398.6406 722.762803 
L 399.81825 722.538714 
L 400.9959 721.855395 
L 402.17355 721.306331 
L 403.3512 722.307379 
L 404.52885 722.07786 
L 405.7065 722.008701 
L 406.88415 721.714452 
L 409.23945 721.739335 
L 410.4171 721.838227 
L 411.59475 722.899277 
L 412.7724 723.286184 
L 415.1277 722.437922 
L 416.30535 722.313617 
L 417.483 721.815891 
L 418.66065 723.124795 
L 421.01595 723.124795 
L 423.37125 722.789069 
L 424.5489 720.868055 
L 425.72655 720.847151 
L 426.9042 720.673172 
L 428.08185 720.674793 
L 429.2595 721.384132 
L 430.43715 722.698421 
L 433.9701 722.615737 
L 436.3254 722.466823 
L 437.50305 721.69104 
L 438.6807 721.63583 
L 439.85835 721.726961 
L 441.036 720.193459 
L 442.21365 720.178952 
L 443.3913 720.566521 
L 444.56895 721.260227 
L 445.7466 722.712764 
L 446.92425 723.260856 
L 448.1019 723.278612 
L 449.27955 723.580949 
L 450.4572 724.202395 
L 451.63485 726.080325 
L 452.8125 723.839257 
L 453.99015 723.805527 
L 455.1678 721.385051 
L 456.34545 721.384931 
L 457.5231 721.17116 
L 461.05605 721.228898 
L 462.2337 722.082877 
L 464.589 722.082877 
L 465.76665 722.719579 
L 466.9443 722.396086 
L 468.12195 722.383274 
L 469.2996 720.561799 
L 470.47725 720.562397 
L 471.6549 719.869326 
L 472.83255 719.867361 
L 474.0102 719.68716 
L 475.18785 722.315592 
L 476.3655 722.31522 
L 477.54315 721.234936 
L 478.7208 721.234412 
L 479.89845 721.104611 
L 481.0761 721.100542 
L 482.25375 722.01246 
L 484.60905 722.057444 
L 485.7867 722.054528 
L 486.96435 721.891742 
L 488.142 721.882162 
L 489.31965 720.975399 
L 490.4973 720.974771 
L 491.67495 719.941792 
L 492.8526 719.942389 
L 494.03025 720.185786 
L 495.2079 720.183508 
L 496.38555 721.137784 
L 497.5632 720.819146 
L 498.74085 721.034681 
L 499.9185 721.028409 
L 501.09615 721.716361 
L 502.2738 721.716833 
L 503.45145 722.097582 
L 504.6291 722.100269 
L 505.80675 721.955423 
L 506.9844 721.9536 
L 508.16205 722.911154 
L 509.3397 722.909835 
L 510.51735 723.31332 
L 511.695 723.312857 
L 512.87265 723.170913 
L 515.22795 723.170919 
L 516.4056 722.794262 
L 518.7609 722.816215 
L 519.93855 721.405014 
L 521.1162 720.932781 
L 522.29385 720.934987 
L 523.4715 721.469939 
L 524.64915 722.871338 
L 525.8268 722.87 
L 527.00445 723.769922 
L 528.1821 723.784655 
L 529.35975 723.614788 
L 534.07035 723.615274 
L 535.248 722.830612 
L 536.42565 722.833337 
L 537.6033 722.615533 
L 538.78095 722.774477 
L 539.9586 722.76555 
L 541.13625 722.631758 
L 542.3139 723.126287 
L 543.49155 724.659385 
L 544.6692 724.675462 
L 545.84685 724.540662 
L 547.0245 723.052353 
L 548.20215 723.717548 
L 549.3798 723.429081 
L 550.55745 722.258466 
L 551.7351 722.645104 
L 552.91275 722.801915 
L 554.0904 723.129803 
L 555.26805 723.10996 
L 556.4457 723.361539 
L 557.62335 724.259207 
L 559.97865 724.257594 
L 561.1563 723.86367 
L 562.33395 723.90963 
L 563.5116 723.578845 
L 564.68925 723.546885 
L 565.8669 723.893145 
L 567.04455 723.808349 
L 568.2222 723.184342 
L 571.75515 723.429768 
L 574.11045 723.999366 
L 575.2881 721.905872 
L 576.46575 721.879 
L 577.6434 721.668663 
L 578.82105 721.931733 
L 579.9987 723.206351 
L 581.17635 723.611665 
L 582.354 722.893536 
L 583.53165 722.610013 
L 584.7093 722.776805 
L 585.88695 724.163191 
L 587.0646 724.644721 
L 588.24225 724.55834 
L 589.4199 724.769906 
L 590.59755 725.89363 
L 591.7752 724.657308 
L 592.95285 723.763132 
L 595.30815 723.353069 
L 596.4858 722.880653 
L 597.66345 722.974742 
L 598.8411 723.198642 
L 600.01875 724.199689 
L 601.1964 723.701313 
L 602.37405 723.424346 
L 603.5517 722.226278 
L 604.72935 721.965648 
L 605.907 721.49622 
L 607.08465 720.681547 
L 608.2623 720.423192 
L 609.43995 720.377148 
L 610.6176 719.668878 
L 611.79525 720.429416 
L 612.9729 720.291801 
L 614.15055 718.957877 
L 615.3282 719.30323 
L 616.50585 720.561238 
L 617.6835 723.391462 
L 618.86115 723.854766 
L 620.0388 724.526151 
L 621.21645 724.530483 
L 622.3941 724.283707 
L 623.57175 723.601742 
L 624.7494 723.105212 
L 625.92705 721.217397 
L 627.1047 720.177634 
L 628.28235 720.591873 
L 629.46 720.577011 
L 630.63765 720.850572 
L 631.8153 722.640832 
L 632.99295 724.124155 
L 634.1706 723.744243 
L 635.34825 722.87018 
L 636.5259 722.818856 
L 637.70355 720.946582 
L 638.8812 719.910156 
L 640.05885 723.05539 
L 641.2365 723.317942 
L 642.41415 723.993092 
L 643.5918 724.052691 
L 644.76945 723.625564 
L 645.9471 723.623159 
L 647.12475 722.851946 
L 648.3024 722.851248 
L 649.48005 720.313044 
L 650.6577 720.312462 
L 651.83535 720.647697 
L 653.013 722.907633 
L 654.19065 722.895114 
L 655.3683 723.182429 
L 656.54595 723.331157 
L 657.7236 722.815076 
L 658.90125 721.707107 
L 660.0789 720.830675 
L 661.25655 722.766903 
L 662.4342 722.950366 
L 664.7895 724.499629 
L 669.5001 724.375553 
L 670.67775 724.375553 
L 671.8554 723.12727 
L 673.03305 722.974541 
L 675.38835 722.975375 
L 676.566 721.487303 
L 677.74365 721.046088 
L 680.09895 721.007456 
L 681.2766 721.417006 
L 682.45425 720.779199 
L 684.80955 720.792738 
L 685.9872 723.66261 
L 687.16485 723.66261 
L 688.3425 723.992472 
L 689.52015 723.759358 
L 690.6978 722.371347 
L 691.87545 721.968758 
L 694.23075 721.968758 
L 695.4084 721.201729 
L 696.58605 722.449539 
L 697.7637 722.706672 
L 698.94135 723.275964 
L 700.119 723.281644 
L 701.29665 723.619594 
L 702.4743 723.640723 
L 703.65195 721.991038 
L 704.8296 722.156909 
L 711.8955 721.94453 
L 713.07315 720.405689 
L 714.2508 720.347171 
L 715.42845 719.828625 
L 716.6061 719.829651 
L 717.78375 719.696542 
L 718.9614 719.705404 
L 720.13905 722.275259 
L 723.672 722.229293 
L 724.84965 722.490146 
L 726.0273 722.546706 
L 727.20495 722.866043 
L 728.3826 722.867467 
L 729.56025 723.067388 
L 730.7379 721.247857 
L 733.0932 721.247857 
L 734.27085 723.211219 
L 735.4485 723.361873 
L 736.62615 723.352643 
L 737.8038 724.046264 
L 738.98145 724.079512 
L 740.1591 723.243848 
L 741.33675 723.242904 
L 742.5144 722.589311 
L 743.69205 724.818512 
L 744.8697 724.818512 
L 746.04735 723.955098 
L 749.5803 724.000763 
L 750.75795 722.467302 
L 751.9356 722.421201 
L 753.11325 721.969417 
L 755.46855 721.857859 
L 756.6462 723.751883 
L 757.82385 723.751883 
L 759.0015 723.586529 
L 760.17915 723.585493 
L 761.3568 722.7638 
L 762.53445 722.775862 
L 763.7121 721.931299 
L 764.88975 721.926652 
L 766.0674 720.841547 
L 767.24505 721.724496 
L 768.4227 721.724496 
L 769.60035 721.36864 
L 770.778 720.407215 
L 773.1333 720.417991 
L 775.4886 720.789241 
L 776.66625 723.005952 
L 777.8439 723.003958 
L 779.02155 723.663648 
L 782.5545 723.651741 
L 783.73215 723.8907 
L 784.9098 723.908639 
L 786.08745 723.511115 
L 787.2651 723.510861 
L 788.44275 722.876493 
L 789.6204 722.896617 
L 790.79805 720.860196 
L 791.9757 720.860196 
L 793.15335 721.903389 
L 794.331 722.04609 
L 795.50865 722.042097 
L 796.6863 722.356131 
L 797.86395 722.345553 
L 799.0416 722.198651 
L 800.21925 722.205356 
L 801.3969 722.746967 
L 802.57455 722.751908 
L 803.7522 723.154969 
L 804.92985 723.159514 
L 806.1075 722.633958 
L 807.28515 722.696764 
L 808.4628 721.170278 
L 810.8181 721.170278 
L 811.99575 723.373225 
L 813.1734 723.461995 
L 814.35105 722.37739 
L 815.5287 722.365699 
L 816.70635 722.231428 
L 817.884 722.234058 
L 819.06165 721.71269 
L 820.2393 721.672531 
L 821.41695 722.563605 
L 822.5946 721.96312 
L 823.77225 721.810027 
L 824.9499 721.805889 
L 826.12755 721.988245 
L 827.3052 722.749281 
L 830.83815 722.735537 
L 832.0158 721.362805 
L 833.19345 721.358983 
L 834.3711 721.080449 
L 835.54875 721.081714 
L 836.7264 721.93873 
L 840.25935 721.854139 
L 841.437 721.551789 
L 842.61465 721.547495 
L 843.7923 721.974819 
L 847.32525 721.940477 
L 848.5029 722.214369 
L 849.68055 722.217023 
L 850.8582 723.061086 
L 852.03585 723.062637 
L 853.2135 723.635088 
L 854.39115 723.643519 
L 855.5688 723.090315 
L 856.74645 723.095157 
L 857.9241 724.057709 
L 859.10175 724.058128 
L 860.2794 723.879216 
L 861.45705 723.879397 
L 862.6347 724.533595 
L 863.81235 724.567791 
L 864.99 723.230481 
L 866.16765 723.232031 
L 867.3453 722.305841 
L 868.52295 722.285202 
L 869.7006 721.924308 
L 870.87825 721.922597 
L 872.0559 719.957596 
L 873.23355 719.955974 
L 874.4112 720.213181 
L 875.58885 720.21079 
L 876.7665 720.690147 
L 877.94415 720.647222 
L 879.1218 720.372783 
L 880.29945 720.372406 
L 881.4771 720.010025 
L 882.65475 720.09343 
L 883.8324 721.575645 
L 885.01005 721.575645 
L 886.1877 721.195739 
L 887.36535 722.540628 
L 889.72065 722.58512 
L 890.8983 722.250255 
L 892.07595 722.731062 
L 893.2536 722.760644 
L 894.43125 721.888455 
L 895.6089 721.8749 
L 896.78655 723.95272 
L 899.14185 723.939829 
L 901.49715 724.624062 
L 902.6748 724.614739 
L 903.85245 724.218031 
L 905.0301 724.245136 
L 906.20775 723.840074 
L 907.3854 723.578113 
L 908.56305 723.175447 
L 909.7407 723.242135 
L 910.91835 723.992655 
L 912.096 723.993296 
L 913.27365 724.562628 
L 914.4513 724.57824 
L 915.62895 721.693972 
L 916.8066 721.695509 
L 917.98425 721.889036 
L 919.1619 721.888168 
L 920.33955 721.768518 
L 921.5172 721.761863 
L 922.69485 722.390609 
L 926.2278 722.325046 
L 927.40545 721.604876 
L 928.5831 721.606097 
L 929.76075 722.475757 
L 930.9384 722.586481 
L 932.11605 722.577206 
L 933.2937 721.766832 
L 936.82665 721.714067 
L 938.0043 722.870037 
L 939.18195 722.863635 
L 940.3596 723.129171 
L 941.53725 723.129171 
L 942.7149 723.42597 
L 943.89255 723.428526 
L 945.0702 723.63939 
L 946.24785 723.63964 
L 947.4255 722.388775 
L 948.60315 722.434534 
L 949.7808 721.859458 
L 952.1361 721.859458 
L 953.31375 722.74621 
L 955.66905 722.815347 
L 956.8467 722.240128 
L 958.02435 722.257629 
L 959.202 723.013505 
L 960.37965 723.015829 
L 961.5573 723.252432 
L 962.73495 722.102497 
L 963.9126 722.103705 
L 965.09025 722.477497 
L 966.2679 722.477497 
L 967.44555 723.019067 
L 969.80085 723.019067 
L 970.9785 722.658658 
L 972.15615 723.012995 
L 973.3338 724.110051 
L 976.86675 724.0113 
L 978.0444 725.126839 
L 979.22205 725.144311 
L 980.3997 722.629185 
L 981.57735 722.629185 
L 982.755 723.339265 
L 983.93265 723.339265 
L 985.1103 722.838193 
L 986.28795 722.837903 
L 987.4656 720.182967 
L 988.64325 720.179825 
L 989.8209 721.019879 
L 990.99855 721.022172 
L 993.35385 722.408317 
L 994.5315 722.408317 
L 995.70915 722.626969 
L 996.8868 724.303206 
L 999.2421 724.315133 
L 1000.41975 723.765871 
L 1001.5974 722.394708 
L 1002.77505 722.219316 
L 1003.9527 722.51173 
L 1005.13035 722.56903 
L 1006.308 722.948816 
L 1007.48565 722.918002 
L 1008.6633 722.761445 
L 1009.84095 721.692339 
L 1011.0186 721.469317 
L 1012.19625 720.943241 
L 1013.3739 721.279843 
L 1014.55155 722.033345 
L 1015.7292 722.596228 
L 1016.90685 722.294315 
L 1018.0845 723.221209 
L 1019.26215 722.970919 
L 1020.4398 723.090633 
L 1021.61745 723.456925 
L 1022.7951 722.707431 
L 1023.97275 721.697457 
L 1026.32805 721.872807 
L 1028.68335 721.623612 
L 1031.03865 722.620454 
L 1033.39395 722.364174 
L 1034.5716 721.594157 
L 1035.74925 721.244332 
L 1036.9269 722.330027 
L 1038.10455 721.535534 
L 1039.2822 723.41182 
L 1040.45985 724.158865 
L 1041.6375 723.202206 
L 1042.81515 723.164279 
L 1043.9928 721.177158 
L 1046.3481 721.153535 
L 1047.52575 722.554091 
L 1048.7034 722.567026 
L 1051.0587 722.93678 
L 1052.23635 722.74522 
L 1053.414 722.713628 
L 1054.59165 722.313419 
L 1055.7693 722.879891 
L 1056.94695 723.057972 
L 1060.4799 723.202785 
L 1061.65755 722.899426 
L 1062.8352 723.521495 
L 1064.01285 723.743292 
L 1065.1905 723.108006 
L 1066.36815 723.557932 
L 1067.5458 723.708335 
L 1068.72345 723.183161 
L 1073.43405 722.117445 
L 1074.6117 722.071937 
L 1075.78935 724.330475 
L 1076.967 723.985526 
L 1078.14465 722.027328 
L 1079.3223 722.052301 
L 1080.49995 721.955986 
L 1081.6776 722.233603 
L 1082.85525 722.906905 
L 1084.0329 722.735213 
L 1085.21055 721.840791 
L 1086.3882 723.0047 
L 1087.56585 724.709028 
L 1088.7435 724.779097 
L 1089.92115 720.949238 
L 1091.0988 720.86895 
L 1092.27645 720.251595 
L 1093.4541 722.448867 
L 1094.63175 723.054947 
L 1095.8094 723.204195 
L 1096.98705 724.243054 
L 1098.1647 724.767233 
L 1099.34235 722.924089 
L 1100.52 722.561064 
L 1101.69765 722.035916 
L 1102.8753 721.907231 
L 1104.05295 721.956678 
L 1105.2306 722.565668 
L 1107.5859 724.535717 
L 1108.76355 723.607659 
L 1109.9412 723.566282 
L 1111.11885 723.818061 
L 1113.47415 723.848436 
L 1114.6518 722.390311 
L 1115.82945 721.986415 
L 1117.0071 722.050091 
L 1118.18475 723.649342 
L 1119.3624 724.963095 
L 1121.7177 723.739204 
L 1122.89535 722.582693 
L 1124.073 722.325255 
L 1125.25065 722.467764 
L 1126.4283 720.959216 
L 1127.60595 721.115295 
L 1128.7836 721.019528 
L 1129.96125 722.242847 
L 1131.1389 723.292599 
L 1132.31655 723.158938 
L 1133.4942 723.605131 
L 1134.67185 723.034864 
L 1135.8495 723.032889 
L 1137.02715 723.230707 
L 1138.2048 723.042574 
L 1139.38245 722.644078 
L 1140.5601 722.650731 
L 1141.73775 721.957129 
L 1142.9154 721.805346 
L 1144.09305 721.791751 
L 1145.2707 724.233232 
L 1147.626 724.233232 
L 1148.80365 723.54485 
L 1151.15895 723.437202 
L 1152.3366 721.89384 
L 1153.51425 721.893607 
L 1154.6919 722.240398 
L 1155.86955 722.250273 
L 1157.0472 722.571962 
L 1158.22485 721.79111 
L 1159.4025 721.791214 
L 1160.58015 722.096726 
L 1161.7578 722.096726 
L 1162.93545 721.665599 
L 1166.4684 721.693805 
L 1167.64605 722.336624 
L 1168.8237 722.337411 
L 1170.00135 722.652664 
L 1173.5343 722.656114 
L 1175.8896 722.610921 
L 1177.06725 723.180099 
L 1178.2449 723.192797 
L 1179.42255 722.856818 
L 1180.6002 722.852082 
L 1181.77785 723.421713 
L 1182.9555 723.322742 
L 1184.13315 724.707597 
L 1185.3108 724.703497 
L 1186.48845 724.878338 
L 1188.84375 724.558573 
L 1190.0214 725.314448 
L 1191.19905 725.378674 
L 1192.3767 725.251018 
L 1193.55435 725.247004 
L 1194.732 723.15049 
L 1195.90965 723.232683 
L 1197.0873 722.716323 
L 1198.26495 722.716323 
L 1200.62025 722.218161 
L 1201.7979 722.392438 
L 1202.97555 723.130977 
L 1206.5085 723.052328 
L 1207.68615 723.283229 
L 1208.8638 723.292053 
L 1210.04145 723.541016 
L 1213.5744 723.474866 
L 1214.75205 722.730214 
L 1215.9297 722.731513 
L 1217.10735 722.286007 
L 1218.285 722.28863 
L 1219.46265 722.580704 
L 1220.6403 722.576158 
L 1221.81795 722.077023 
L 1224.17325 722.190508 
L 1225.3509 722.190508 
L 1226.52855 723.652168 
L 1227.7062 723.652181 
L 1228.88385 723.324648 
L 1230.0615 723.321066 
L 1231.23915 721.71288 
L 1232.4168 721.732078 
L 1233.59445 721.014713 
L 1234.7721 721.021571 
L 1235.94975 720.601292 
L 1237.1274 720.60574 
L 1238.30505 722.062342 
L 1239.4827 722.06237 
L 1240.66035 723.334005 
L 1244.1933 723.261789 
L 1245.37095 721.117999 
L 1246.5486 721.07934 
L 1247.72625 720.754281 
L 1251.2592 720.86143 
L 1252.43685 720.905162 
L 1253.6145 721.846636 
L 1254.79215 721.848476 
L 1255.9698 722.419942 
L 1257.14745 722.419425 
L 1258.3251 724.729414 
L 1259.50275 724.69674 
L 1260.6804 724.015729 
L 1261.85805 724.017227 
L 1263.0357 723.333658 
L 1264.21335 723.350405 
L 1265.391 720.167656 
L 1267.7463 720.167656 
L 1268.92395 722.588244 
L 1271.27925 722.602094 
L 1272.4569 723.666708 
L 1274.8122 723.732164 
L 1277.1675 723.648008 
L 1280.70045 723.950335 
L 1281.8781 723.913512 
L 1283.05575 724.198664 
L 1284.2334 724.199342 
L 1285.41105 722.270719 
L 1286.5887 722.271483 
L 1287.76635 722.085723 
L 1288.944 722.08329 
L 1290.12165 722.398878 
L 1291.2993 722.391729 
L 1292.47695 723.549189 
L 1293.6546 723.537564 
L 1294.83225 723.714913 
L 1296.0099 723.706637 
L 1297.18755 724.954952 
L 1298.3652 724.954267 
L 1299.54285 723.593143 
L 1303.0758 723.651361 
L 1304.25345 723.018248 
L 1305.4311 723.001493 
L 1306.60875 723.485264 
L 1307.7864 723.480472 
L 1308.96405 724.104845 
L 1310.1417 724.117239 
L 1311.31935 724.452279 
L 1312.497 724.45673 
L 1313.67465 722.637189 
L 1317.2076 722.560628 
L 1318.38525 720.357872 
L 1321.9182 720.317153 
L 1323.09585 722.019972 
L 1324.2735 722.038505 
L 1325.45115 723.363499 
L 1327.80645 723.363499 
L 1328.9841 721.980548 
L 1331.3394 721.923024 
L 1332.51705 721.608261 
L 1336.05 721.94482 
L 1336.05 721.94482 
" style="fill:none;stroke:#008000;stroke-dasharray:6.000000,6.000000;stroke-dashoffset:0.0;stroke-width:2.0;"/>
   </g>
   <g id="patch_3">
    <path d="M 158.4 51.3 
L 1336.05 51.3 
" style="fill:none;stroke:#000000;stroke-linecap:square;stroke-linejoin:miter;"/>
   </g>
   <g id="patch_4">
    <path d="M 1336.05 747 
L 1336.05 51.3 
" style="fill:none;stroke:#000000;stroke-linecap:square;stroke-linejoin:miter;"/>
   </g>
   <g id="patch_5">
    <path d="M 158.4 747 
L 1336.05 747 
" style="fill:none;stroke:#000000;stroke-linecap:square;stroke-linejoin:miter;"/>
   </g>
   <g id="patch_6">
    <path d="M 158.4 747 
L 158.4 51.3 
" style="fill:none;stroke:#000000;stroke-linecap:square;stroke-linejoin:miter;"/>
   </g>
   <g id="matplotlib.axis_1">
    <g id="xtick_1">
     <g id="line2d_3">
      <defs>
       <path d="M 0 0 
L 0 -4 
" id="m0182e58ddd" style="stroke:#000000;stroke-width:0.5;"/>
      </defs>
      <g>
       <use style="stroke:#000000;stroke-width:0.5;" x="158.4" xlink:href="#m0182e58ddd" y="747.0"/>
      </g>
     </g>
     <g id="line2d_4">
      <defs>
       <path d="M 0 0 
L 0 4 
" id="mcbbb73a450" style="stroke:#000000;stroke-width:0.5;"/>
      </defs>
      <g>
       <use style="stroke:#000000;stroke-width:0.5;" x="158.4" xlink:href="#mcbbb73a450" y="51.3"/>
      </g>
     </g>
     <g id="text_1">
      <!-- 0 -->
      <defs>
       <path d="M 31.78125 66.40625 
Q 24.171875 66.40625 20.328125 58.90625 
Q 16.5 51.421875 16.5 36.375 
Q 16.5 21.390625 20.328125 13.890625 
Q 24.171875 6.390625 31.78125 6.390625 
Q 39.453125 6.390625 43.28125 13.890625 
Q 47.125 21.390625 47.125 36.375 
Q 47.125 51.421875 43.28125 58.90625 
Q 39.453125 66.40625 31.78125 66.40625 
M 31.78125 74.21875 
Q 44.046875 74.21875 50.515625 64.515625 
Q 56.984375 54.828125 56.984375 36.375 
Q 56.984375 17.96875 50.515625 8.265625 
Q 44.046875 -1.421875 31.78125 -1.421875 
Q 19.53125 -1.421875 13.0625 8.265625 
Q 6.59375 17.96875 6.59375 36.375 
Q 6.59375 54.828125 13.0625 64.515625 
Q 19.53125 74.21875 31.78125 74.21875 
" id="BitstreamVeraSans-Roman-30"/>
      </defs>
      <g transform="translate(148.85625 773.7953125)scale(0.3 -0.3)">
       <use xlink:href="#BitstreamVeraSans-Roman-30"/>
      </g>
     </g>
    </g>
    <g id="xtick_2">
     <g id="line2d_5">
      <g>
       <use style="stroke:#000000;stroke-width:0.5;" x="393.93" xlink:href="#m0182e58ddd" y="747.0"/>
      </g>
     </g>
     <g id="line2d_6">
      <g>
       <use style="stroke:#000000;stroke-width:0.5;" x="393.93" xlink:href="#mcbbb73a450" y="51.3"/>
      </g>
     </g>
     <g id="text_2">
      <!-- 20000 -->
      <defs>
       <path d="M 19.1875 8.296875 
L 53.609375 8.296875 
L 53.609375 0 
L 7.328125 0 
L 7.328125 8.296875 
Q 12.9375 14.109375 22.625 23.890625 
Q 32.328125 33.6875 34.8125 36.53125 
Q 39.546875 41.84375 41.421875 45.53125 
Q 43.3125 49.21875 43.3125 52.78125 
Q 43.3125 58.59375 39.234375 62.25 
Q 35.15625 65.921875 28.609375 65.921875 
Q 23.96875 65.921875 18.8125 64.3125 
Q 13.671875 62.703125 7.8125 59.421875 
L 7.8125 69.390625 
Q 13.765625 71.78125 18.9375 73 
Q 24.125 74.21875 28.421875 74.21875 
Q 39.75 74.21875 46.484375 68.546875 
Q 53.21875 62.890625 53.21875 53.421875 
Q 53.21875 48.921875 51.53125 44.890625 
Q 49.859375 40.875 45.40625 35.40625 
Q 44.1875 33.984375 37.640625 27.21875 
Q 31.109375 20.453125 19.1875 8.296875 
" id="BitstreamVeraSans-Roman-32"/>
      </defs>
      <g transform="translate(346.21125 773.7953125)scale(0.3 -0.3)">
       <use xlink:href="#BitstreamVeraSans-Roman-32"/>
       <use x="63.623046875" xlink:href="#BitstreamVeraSans-Roman-30"/>
       <use x="127.24609375" xlink:href="#BitstreamVeraSans-Roman-30"/>
       <use x="190.869140625" xlink:href="#BitstreamVeraSans-Roman-30"/>
       <use x="254.4921875" xlink:href="#BitstreamVeraSans-Roman-30"/>
      </g>
     </g>
    </g>
    <g id="xtick_3">
     <g id="line2d_7">
      <g>
       <use style="stroke:#000000;stroke-width:0.5;" x="629.46" xlink:href="#m0182e58ddd" y="747.0"/>
      </g>
     </g>
     <g id="line2d_8">
      <g>
       <use style="stroke:#000000;stroke-width:0.5;" x="629.46" xlink:href="#mcbbb73a450" y="51.3"/>
      </g>
     </g>
     <g id="text_3">
      <!-- 40000 -->
      <defs>
       <path d="M 37.796875 64.3125 
L 12.890625 25.390625 
L 37.796875 25.390625 
z
M 35.203125 72.90625 
L 47.609375 72.90625 
L 47.609375 25.390625 
L 58.015625 25.390625 
L 58.015625 17.1875 
L 47.609375 17.1875 
L 47.609375 0 
L 37.796875 0 
L 37.796875 17.1875 
L 4.890625 17.1875 
L 4.890625 26.703125 
z
" id="BitstreamVeraSans-Roman-34"/>
      </defs>
      <g transform="translate(581.74125 773.7953125)scale(0.3 -0.3)">
       <use xlink:href="#BitstreamVeraSans-Roman-34"/>
       <use x="63.623046875" xlink:href="#BitstreamVeraSans-Roman-30"/>
       <use x="127.24609375" xlink:href="#BitstreamVeraSans-Roman-30"/>
       <use x="190.869140625" xlink:href="#BitstreamVeraSans-Roman-30"/>
       <use x="254.4921875" xlink:href="#BitstreamVeraSans-Roman-30"/>
      </g>
     </g>
    </g>
    <g id="xtick_4">
     <g id="line2d_9">
      <g>
       <use style="stroke:#000000;stroke-width:0.5;" x="864.99" xlink:href="#m0182e58ddd" y="747.0"/>
      </g>
     </g>
     <g id="line2d_10">
      <g>
       <use style="stroke:#000000;stroke-width:0.5;" x="864.99" xlink:href="#mcbbb73a450" y="51.3"/>
      </g>
     </g>
     <g id="text_4">
      <!-- 60000 -->
      <defs>
       <path d="M 33.015625 40.375 
Q 26.375 40.375 22.484375 35.828125 
Q 18.609375 31.296875 18.609375 23.390625 
Q 18.609375 15.53125 22.484375 10.953125 
Q 26.375 6.390625 33.015625 6.390625 
Q 39.65625 6.390625 43.53125 10.953125 
Q 47.40625 15.53125 47.40625 23.390625 
Q 47.40625 31.296875 43.53125 35.828125 
Q 39.65625 40.375 33.015625 40.375 
M 52.59375 71.296875 
L 52.59375 62.3125 
Q 48.875 64.0625 45.09375 64.984375 
Q 41.3125 65.921875 37.59375 65.921875 
Q 27.828125 65.921875 22.671875 59.328125 
Q 17.53125 52.734375 16.796875 39.40625 
Q 19.671875 43.65625 24.015625 45.921875 
Q 28.375 48.1875 33.59375 48.1875 
Q 44.578125 48.1875 50.953125 41.515625 
Q 57.328125 34.859375 57.328125 23.390625 
Q 57.328125 12.15625 50.6875 5.359375 
Q 44.046875 -1.421875 33.015625 -1.421875 
Q 20.359375 -1.421875 13.671875 8.265625 
Q 6.984375 17.96875 6.984375 36.375 
Q 6.984375 53.65625 15.1875 63.9375 
Q 23.390625 74.21875 37.203125 74.21875 
Q 40.921875 74.21875 44.703125 73.484375 
Q 48.484375 72.75 52.59375 71.296875 
" id="BitstreamVeraSans-Roman-36"/>
      </defs>
      <g transform="translate(817.27125 773.7953125)scale(0.3 -0.3)">
       <use xlink:href="#BitstreamVeraSans-Roman-36"/>
       <use x="63.623046875" xlink:href="#BitstreamVeraSans-Roman-30"/>
       <use x="127.24609375" xlink:href="#BitstreamVeraSans-Roman-30"/>
       <use x="190.869140625" xlink:href="#BitstreamVeraSans-Roman-30"/>
       <use x="254.4921875" xlink:href="#BitstreamVeraSans-Roman-30"/>
      </g>
     </g>
    </g>
    <g id="xtick_5">
     <g id="line2d_11">
      <g>
       <use style="stroke:#000000;stroke-width:0.5;" x="1100.52" xlink:href="#m0182e58ddd" y="747.0"/>
      </g>
     </g>
     <g id="line2d_12">
      <g>
       <use style="stroke:#000000;stroke-width:0.5;" x="1100.52" xlink:href="#mcbbb73a450" y="51.3"/>
      </g>
     </g>
     <g id="text_5">
      <!-- 80000 -->
      <defs>
       <path d="M 31.78125 34.625 
Q 24.75 34.625 20.71875 30.859375 
Q 16.703125 27.09375 16.703125 20.515625 
Q 16.703125 13.921875 20.71875 10.15625 
Q 24.75 6.390625 31.78125 6.390625 
Q 38.8125 6.390625 42.859375 10.171875 
Q 46.921875 13.96875 46.921875 20.515625 
Q 46.921875 27.09375 42.890625 30.859375 
Q 38.875 34.625 31.78125 34.625 
M 21.921875 38.8125 
Q 15.578125 40.375 12.03125 44.71875 
Q 8.5 49.078125 8.5 55.328125 
Q 8.5 64.0625 14.71875 69.140625 
Q 20.953125 74.21875 31.78125 74.21875 
Q 42.671875 74.21875 48.875 69.140625 
Q 55.078125 64.0625 55.078125 55.328125 
Q 55.078125 49.078125 51.53125 44.71875 
Q 48 40.375 41.703125 38.8125 
Q 48.828125 37.15625 52.796875 32.3125 
Q 56.78125 27.484375 56.78125 20.515625 
Q 56.78125 9.90625 50.3125 4.234375 
Q 43.84375 -1.421875 31.78125 -1.421875 
Q 19.734375 -1.421875 13.25 4.234375 
Q 6.78125 9.90625 6.78125 20.515625 
Q 6.78125 27.484375 10.78125 32.3125 
Q 14.796875 37.15625 21.921875 38.8125 
M 18.3125 54.390625 
Q 18.3125 48.734375 21.84375 45.5625 
Q 25.390625 42.390625 31.78125 42.390625 
Q 38.140625 42.390625 41.71875 45.5625 
Q 45.3125 48.734375 45.3125 54.390625 
Q 45.3125 60.0625 41.71875 63.234375 
Q 38.140625 66.40625 31.78125 66.40625 
Q 25.390625 66.40625 21.84375 63.234375 
Q 18.3125 60.0625 18.3125 54.390625 
" id="BitstreamVeraSans-Roman-38"/>
      </defs>
      <g transform="translate(1052.80125 773.7953125)scale(0.3 -0.3)">
       <use xlink:href="#BitstreamVeraSans-Roman-38"/>
       <use x="63.623046875" xlink:href="#BitstreamVeraSans-Roman-30"/>
       <use x="127.24609375" xlink:href="#BitstreamVeraSans-Roman-30"/>
       <use x="190.869140625" xlink:href="#BitstreamVeraSans-Roman-30"/>
       <use x="254.4921875" xlink:href="#BitstreamVeraSans-Roman-30"/>
      </g>
     </g>
    </g>
    <g id="xtick_6">
     <g id="line2d_13">
      <g>
       <use style="stroke:#000000;stroke-width:0.5;" x="1336.05" xlink:href="#m0182e58ddd" y="747.0"/>
      </g>
     </g>
     <g id="line2d_14">
      <g>
       <use style="stroke:#000000;stroke-width:0.5;" x="1336.05" xlink:href="#mcbbb73a450" y="51.3"/>
      </g>
     </g>
     <g id="text_6">
      <!-- 100000 -->
      <defs>
       <path d="M 12.40625 8.296875 
L 28.515625 8.296875 
L 28.515625 63.921875 
L 10.984375 60.40625 
L 10.984375 69.390625 
L 28.421875 72.90625 
L 38.28125 72.90625 
L 38.28125 8.296875 
L 54.390625 8.296875 
L 54.390625 0 
L 12.40625 0 
z
" id="BitstreamVeraSans-Roman-31"/>
      </defs>
      <g transform="translate(1278.7875 773.7953125)scale(0.3 -0.3)">
       <use xlink:href="#BitstreamVeraSans-Roman-31"/>
       <use x="63.623046875" xlink:href="#BitstreamVeraSans-Roman-30"/>
       <use x="127.24609375" xlink:href="#BitstreamVeraSans-Roman-30"/>
       <use x="190.869140625" xlink:href="#BitstreamVeraSans-Roman-30"/>
       <use x="254.4921875" xlink:href="#BitstreamVeraSans-Roman-30"/>
       <use x="318.115234375" xlink:href="#BitstreamVeraSans-Roman-30"/>
      </g>
     </g>
    </g>
    <g id="text_7">
     <!-- iterations -->
     <defs>
      <path d="M 54.890625 33.015625 
L 54.890625 0 
L 45.90625 0 
L 45.90625 32.71875 
Q 45.90625 40.484375 42.875 44.328125 
Q 39.84375 48.1875 33.796875 48.1875 
Q 26.515625 48.1875 22.3125 43.546875 
Q 18.109375 38.921875 18.109375 30.90625 
L 18.109375 0 
L 9.078125 0 
L 9.078125 54.6875 
L 18.109375 54.6875 
L 18.109375 46.1875 
Q 21.34375 51.125 25.703125 53.5625 
Q 30.078125 56 35.796875 56 
Q 45.21875 56 50.046875 50.171875 
Q 54.890625 44.34375 54.890625 33.015625 
" id="BitstreamVeraSans-Roman-6e"/>
      <path d="M 34.28125 27.484375 
Q 23.390625 27.484375 19.1875 25 
Q 14.984375 22.515625 14.984375 16.5 
Q 14.984375 11.71875 18.140625 8.90625 
Q 21.296875 6.109375 26.703125 6.109375 
Q 34.1875 6.109375 38.703125 11.40625 
Q 43.21875 16.703125 43.21875 25.484375 
L 43.21875 27.484375 
z
M 52.203125 31.203125 
L 52.203125 0 
L 43.21875 0 
L 43.21875 8.296875 
Q 40.140625 3.328125 35.546875 0.953125 
Q 30.953125 -1.421875 24.3125 -1.421875 
Q 15.921875 -1.421875 10.953125 3.296875 
Q 6 8.015625 6 15.921875 
Q 6 25.140625 12.171875 29.828125 
Q 18.359375 34.515625 30.609375 34.515625 
L 43.21875 34.515625 
L 43.21875 35.40625 
Q 43.21875 41.609375 39.140625 45 
Q 35.0625 48.390625 27.6875 48.390625 
Q 23 48.390625 18.546875 47.265625 
Q 14.109375 46.140625 10.015625 43.890625 
L 10.015625 52.203125 
Q 14.9375 54.109375 19.578125 55.046875 
Q 24.21875 56 28.609375 56 
Q 40.484375 56 46.34375 49.84375 
Q 52.203125 43.703125 52.203125 31.203125 
" id="BitstreamVeraSans-Roman-61"/>
      <path d="M 30.609375 48.390625 
Q 23.390625 48.390625 19.1875 42.75 
Q 14.984375 37.109375 14.984375 27.296875 
Q 14.984375 17.484375 19.15625 11.84375 
Q 23.34375 6.203125 30.609375 6.203125 
Q 37.796875 6.203125 41.984375 11.859375 
Q 46.1875 17.53125 46.1875 27.296875 
Q 46.1875 37.015625 41.984375 42.703125 
Q 37.796875 48.390625 30.609375 48.390625 
M 30.609375 56 
Q 42.328125 56 49.015625 48.375 
Q 55.71875 40.765625 55.71875 27.296875 
Q 55.71875 13.875 49.015625 6.21875 
Q 42.328125 -1.421875 30.609375 -1.421875 
Q 18.84375 -1.421875 12.171875 6.21875 
Q 5.515625 13.875 5.515625 27.296875 
Q 5.515625 40.765625 12.171875 48.375 
Q 18.84375 56 30.609375 56 
" id="BitstreamVeraSans-Roman-6f"/>
      <path d="M 9.421875 54.6875 
L 18.40625 54.6875 
L 18.40625 0 
L 9.421875 0 
z
M 9.421875 75.984375 
L 18.40625 75.984375 
L 18.40625 64.59375 
L 9.421875 64.59375 
z
" id="BitstreamVeraSans-Roman-69"/>
      <path d="M 56.203125 29.59375 
L 56.203125 25.203125 
L 14.890625 25.203125 
Q 15.484375 15.921875 20.484375 11.0625 
Q 25.484375 6.203125 34.421875 6.203125 
Q 39.59375 6.203125 44.453125 7.46875 
Q 49.3125 8.734375 54.109375 11.28125 
L 54.109375 2.78125 
Q 49.265625 0.734375 44.1875 -0.34375 
Q 39.109375 -1.421875 33.890625 -1.421875 
Q 20.796875 -1.421875 13.15625 6.1875 
Q 5.515625 13.8125 5.515625 26.8125 
Q 5.515625 40.234375 12.765625 48.109375 
Q 20.015625 56 32.328125 56 
Q 43.359375 56 49.78125 48.890625 
Q 56.203125 41.796875 56.203125 29.59375 
M 47.21875 32.234375 
Q 47.125 39.59375 43.09375 43.984375 
Q 39.0625 48.390625 32.421875 48.390625 
Q 24.90625 48.390625 20.390625 44.140625 
Q 15.875 39.890625 15.1875 32.171875 
z
" id="BitstreamVeraSans-Roman-65"/>
      <path d="M 18.3125 70.21875 
L 18.3125 54.6875 
L 36.8125 54.6875 
L 36.8125 47.703125 
L 18.3125 47.703125 
L 18.3125 18.015625 
Q 18.3125 11.328125 20.140625 9.421875 
Q 21.96875 7.515625 27.59375 7.515625 
L 36.8125 7.515625 
L 36.8125 0 
L 27.59375 0 
Q 17.1875 0 13.234375 3.875 
Q 9.28125 7.765625 9.28125 18.015625 
L 9.28125 47.703125 
L 2.6875 47.703125 
L 2.6875 54.6875 
L 9.28125 54.6875 
L 9.28125 70.21875 
z
" id="BitstreamVeraSans-Roman-74"/>
      <path d="M 41.109375 46.296875 
Q 39.59375 47.171875 37.8125 47.578125 
Q 36.03125 48 33.890625 48 
Q 26.265625 48 22.1875 43.046875 
Q 18.109375 38.09375 18.109375 28.8125 
L 18.109375 0 
L 9.078125 0 
L 9.078125 54.6875 
L 18.109375 54.6875 
L 18.109375 46.1875 
Q 20.953125 51.171875 25.484375 53.578125 
Q 30.03125 56 36.53125 56 
Q 37.453125 56 38.578125 55.875 
Q 39.703125 55.765625 41.0625 55.515625 
z
" id="BitstreamVeraSans-Roman-72"/>
      <path d="M 44.28125 53.078125 
L 44.28125 44.578125 
Q 40.484375 46.53125 36.375 47.5 
Q 32.28125 48.484375 27.875 48.484375 
Q 21.1875 48.484375 17.84375 46.4375 
Q 14.5 44.390625 14.5 40.28125 
Q 14.5 37.15625 16.890625 35.375 
Q 19.28125 33.59375 26.515625 31.984375 
L 29.59375 31.296875 
Q 39.15625 29.25 43.1875 25.515625 
Q 47.21875 21.78125 47.21875 15.09375 
Q 47.21875 7.46875 41.1875 3.015625 
Q 35.15625 -1.421875 24.609375 -1.421875 
Q 20.21875 -1.421875 15.453125 -0.5625 
Q 10.6875 0.296875 5.421875 2 
L 5.421875 11.28125 
Q 10.40625 8.6875 15.234375 7.390625 
Q 20.0625 6.109375 24.8125 6.109375 
Q 31.15625 6.109375 34.5625 8.28125 
Q 37.984375 10.453125 37.984375 14.40625 
Q 37.984375 18.0625 35.515625 20.015625 
Q 33.0625 21.96875 24.703125 23.78125 
L 21.578125 24.515625 
Q 13.234375 26.265625 9.515625 29.90625 
Q 5.8125 33.546875 5.8125 39.890625 
Q 5.8125 47.609375 11.28125 51.796875 
Q 16.75 56 26.8125 56 
Q 31.78125 56 36.171875 55.265625 
Q 40.578125 54.546875 44.28125 53.078125 
" id="BitstreamVeraSans-Roman-73"/>
     </defs>
     <g transform="translate(676.04296875 807.8296875)scale(0.3 -0.3)">
      <use xlink:href="#BitstreamVeraSans-Roman-69"/>
      <use x="27.783203125" xlink:href="#BitstreamVeraSans-Roman-74"/>
      <use x="66.9921875" xlink:href="#BitstreamVeraSans-Roman-65"/>
      <use x="128.515625" xlink:href="#BitstreamVeraSans-Roman-72"/>
      <use x="169.62890625" xlink:href="#BitstreamVeraSans-Roman-61"/>
      <use x="230.908203125" xlink:href="#BitstreamVeraSans-Roman-74"/>
      <use x="270.1171875" xlink:href="#BitstreamVeraSans-Roman-69"/>
      <use x="297.900390625" xlink:href="#BitstreamVeraSans-Roman-6f"/>
      <use x="359.08203125" xlink:href="#BitstreamVeraSans-Roman-6e"/>
      <use x="422.4609375" xlink:href="#BitstreamVeraSans-Roman-73"/>
     </g>
    </g>
   </g>
   <g id="matplotlib.axis_2">
    <g id="ytick_1">
     <g id="line2d_15">
      <defs>
       <path d="M 0 0 
L 4 0 
" id="m19b18f8afb" style="stroke:#000000;stroke-width:0.5;"/>
      </defs>
      <g>
       <use style="stroke:#000000;stroke-width:0.5;" x="158.4" xlink:href="#m19b18f8afb" y="747.0"/>
      </g>
     </g>
     <g id="line2d_16">
      <defs>
       <path d="M 0 0 
L -4 0 
" id="m6cbd2dbdea" style="stroke:#000000;stroke-width:0.5;"/>
      </defs>
      <g>
       <use style="stroke:#000000;stroke-width:0.5;" x="1336.05" xlink:href="#m6cbd2dbdea" y="747.0"/>
      </g>
     </g>
     <g id="text_8">
      <!-- 60 -->
      <defs>
       <path d="M 10.59375 35.5 
L 73.1875 35.5 
L 73.1875 27.203125 
L 10.59375 27.203125 
z
" id="BitstreamVeraSans-Roman-2212"/>
      </defs>
      <g transform="translate(91.0859375 755.278125)scale(0.3 -0.3)">
       <use xlink:href="#BitstreamVeraSans-Roman-2212"/>
       <use x="83.7890625" xlink:href="#BitstreamVeraSans-Roman-36"/>
       <use x="147.412109375" xlink:href="#BitstreamVeraSans-Roman-30"/>
      </g>
     </g>
    </g>
    <g id="ytick_2">
     <g id="line2d_17">
      <g>
       <use style="stroke:#000000;stroke-width:0.5;" x="158.4" xlink:href="#m19b18f8afb" y="660.0375"/>
      </g>
     </g>
     <g id="line2d_18">
      <g>
       <use style="stroke:#000000;stroke-width:0.5;" x="1336.05" xlink:href="#m6cbd2dbdea" y="660.0375"/>
      </g>
     </g>
     <g id="text_9">
      <!-- 50 -->
      <defs>
       <path d="M 10.796875 72.90625 
L 49.515625 72.90625 
L 49.515625 64.59375 
L 19.828125 64.59375 
L 19.828125 46.734375 
Q 21.96875 47.46875 24.109375 47.828125 
Q 26.265625 48.1875 28.421875 48.1875 
Q 40.625 48.1875 47.75 41.5 
Q 54.890625 34.8125 54.890625 23.390625 
Q 54.890625 11.625 47.5625 5.09375 
Q 40.234375 -1.421875 26.90625 -1.421875 
Q 22.3125 -1.421875 17.546875 -0.640625 
Q 12.796875 0.140625 7.71875 1.703125 
L 7.71875 11.625 
Q 12.109375 9.234375 16.796875 8.0625 
Q 21.484375 6.890625 26.703125 6.890625 
Q 35.15625 6.890625 40.078125 11.328125 
Q 45.015625 15.765625 45.015625 23.390625 
Q 45.015625 31 40.078125 35.4375 
Q 35.15625 39.890625 26.703125 39.890625 
Q 22.75 39.890625 18.8125 39.015625 
Q 14.890625 38.140625 10.796875 36.28125 
z
" id="BitstreamVeraSans-Roman-35"/>
      </defs>
      <g transform="translate(91.0859375 668.315625)scale(0.3 -0.3)">
       <use xlink:href="#BitstreamVeraSans-Roman-2212"/>
       <use x="83.7890625" xlink:href="#BitstreamVeraSans-Roman-35"/>
       <use x="147.412109375" xlink:href="#BitstreamVeraSans-Roman-30"/>
      </g>
     </g>
    </g>
    <g id="ytick_3">
     <g id="line2d_19">
      <g>
       <use style="stroke:#000000;stroke-width:0.5;" x="158.4" xlink:href="#m19b18f8afb" y="573.075"/>
      </g>
     </g>
     <g id="line2d_20">
      <g>
       <use style="stroke:#000000;stroke-width:0.5;" x="1336.05" xlink:href="#m6cbd2dbdea" y="573.075"/>
      </g>
     </g>
     <g id="text_10">
      <!-- 40 -->
      <g transform="translate(91.0859375 581.353125)scale(0.3 -0.3)">
       <use xlink:href="#BitstreamVeraSans-Roman-2212"/>
       <use x="83.7890625" xlink:href="#BitstreamVeraSans-Roman-34"/>
       <use x="147.412109375" xlink:href="#BitstreamVeraSans-Roman-30"/>
      </g>
     </g>
    </g>
    <g id="ytick_4">
     <g id="line2d_21">
      <g>
       <use style="stroke:#000000;stroke-width:0.5;" x="158.4" xlink:href="#m19b18f8afb" y="486.1125"/>
      </g>
     </g>
     <g id="line2d_22">
      <g>
       <use style="stroke:#000000;stroke-width:0.5;" x="1336.05" xlink:href="#m6cbd2dbdea" y="486.1125"/>
      </g>
     </g>
     <g id="text_11">
      <!-- 30 -->
      <defs>
       <path d="M 40.578125 39.3125 
Q 47.65625 37.796875 51.625 33 
Q 55.609375 28.21875 55.609375 21.1875 
Q 55.609375 10.40625 48.1875 4.484375 
Q 40.765625 -1.421875 27.09375 -1.421875 
Q 22.515625 -1.421875 17.65625 -0.515625 
Q 12.796875 0.390625 7.625 2.203125 
L 7.625 11.71875 
Q 11.71875 9.328125 16.59375 8.109375 
Q 21.484375 6.890625 26.8125 6.890625 
Q 36.078125 6.890625 40.9375 10.546875 
Q 45.796875 14.203125 45.796875 21.1875 
Q 45.796875 27.640625 41.28125 31.265625 
Q 36.765625 34.90625 28.71875 34.90625 
L 20.21875 34.90625 
L 20.21875 43.015625 
L 29.109375 43.015625 
Q 36.375 43.015625 40.234375 45.921875 
Q 44.09375 48.828125 44.09375 54.296875 
Q 44.09375 59.90625 40.109375 62.90625 
Q 36.140625 65.921875 28.71875 65.921875 
Q 24.65625 65.921875 20.015625 65.03125 
Q 15.375 64.15625 9.8125 62.3125 
L 9.8125 71.09375 
Q 15.4375 72.65625 20.34375 73.4375 
Q 25.25 74.21875 29.59375 74.21875 
Q 40.828125 74.21875 47.359375 69.109375 
Q 53.90625 64.015625 53.90625 55.328125 
Q 53.90625 49.265625 50.4375 45.09375 
Q 46.96875 40.921875 40.578125 39.3125 
" id="BitstreamVeraSans-Roman-33"/>
      </defs>
      <g transform="translate(91.0859375 494.390625)scale(0.3 -0.3)">
       <use xlink:href="#BitstreamVeraSans-Roman-2212"/>
       <use x="83.7890625" xlink:href="#BitstreamVeraSans-Roman-33"/>
       <use x="147.412109375" xlink:href="#BitstreamVeraSans-Roman-30"/>
      </g>
     </g>
    </g>
    <g id="ytick_5">
     <g id="line2d_23">
      <g>
       <use style="stroke:#000000;stroke-width:0.5;" x="158.4" xlink:href="#m19b18f8afb" y="399.15"/>
      </g>
     </g>
     <g id="line2d_24">
      <g>
       <use style="stroke:#000000;stroke-width:0.5;" x="1336.05" xlink:href="#m6cbd2dbdea" y="399.15"/>
      </g>
     </g>
     <g id="text_12">
      <!-- 20 -->
      <g transform="translate(91.0859375 407.428125)scale(0.3 -0.3)">
       <use xlink:href="#BitstreamVeraSans-Roman-2212"/>
       <use x="83.7890625" xlink:href="#BitstreamVeraSans-Roman-32"/>
       <use x="147.412109375" xlink:href="#BitstreamVeraSans-Roman-30"/>
      </g>
     </g>
    </g>
    <g id="ytick_6">
     <g id="line2d_25">
      <g>
       <use style="stroke:#000000;stroke-width:0.5;" x="158.4" xlink:href="#m19b18f8afb" y="312.1875"/>
      </g>
     </g>
     <g id="line2d_26">
      <g>
       <use style="stroke:#000000;stroke-width:0.5;" x="1336.05" xlink:href="#m6cbd2dbdea" y="312.1875"/>
      </g>
     </g>
     <g id="text_13">
      <!-- 10 -->
      <g transform="translate(91.0859375 320.465625)scale(0.3 -0.3)">
       <use xlink:href="#BitstreamVeraSans-Roman-2212"/>
       <use x="83.7890625" xlink:href="#BitstreamVeraSans-Roman-31"/>
       <use x="147.412109375" xlink:href="#BitstreamVeraSans-Roman-30"/>
      </g>
     </g>
    </g>
    <g id="ytick_7">
     <g id="line2d_27">
      <g>
       <use style="stroke:#000000;stroke-width:0.5;" x="158.4" xlink:href="#m19b18f8afb" y="225.225"/>
      </g>
     </g>
     <g id="line2d_28">
      <g>
       <use style="stroke:#000000;stroke-width:0.5;" x="1336.05" xlink:href="#m6cbd2dbdea" y="225.225"/>
      </g>
     </g>
     <g id="text_14">
      <!-- 0 -->
      <g transform="translate(135.3125 233.503125)scale(0.3 -0.3)">
       <use xlink:href="#BitstreamVeraSans-Roman-30"/>
      </g>
     </g>
    </g>
    <g id="ytick_8">
     <g id="line2d_29">
      <g>
       <use style="stroke:#000000;stroke-width:0.5;" x="158.4" xlink:href="#m19b18f8afb" y="138.2625"/>
      </g>
     </g>
     <g id="line2d_30">
      <g>
       <use style="stroke:#000000;stroke-width:0.5;" x="1336.05" xlink:href="#m6cbd2dbdea" y="138.2625"/>
      </g>
     </g>
     <g id="text_15">
      <!-- 10 -->
      <g transform="translate(116.225 146.540625)scale(0.3 -0.3)">
       <use xlink:href="#BitstreamVeraSans-Roman-31"/>
       <use x="63.623046875" xlink:href="#BitstreamVeraSans-Roman-30"/>
      </g>
     </g>
    </g>
    <g id="ytick_9">
     <g id="line2d_31">
      <g>
       <use style="stroke:#000000;stroke-width:0.5;" x="158.4" xlink:href="#m19b18f8afb" y="51.3"/>
      </g>
     </g>
     <g id="line2d_32">
      <g>
       <use style="stroke:#000000;stroke-width:0.5;" x="1336.05" xlink:href="#m6cbd2dbdea" y="51.3"/>
      </g>
     </g>
     <g id="text_16">
      <!-- 20 -->
      <g transform="translate(116.225 59.578125)scale(0.3 -0.3)">
       <use xlink:href="#BitstreamVeraSans-Roman-32"/>
       <use x="63.623046875" xlink:href="#BitstreamVeraSans-Roman-30"/>
      </g>
     </g>
    </g>
    <g id="text_17">
     <!-- log(loss) -->
     <defs>
      <path d="M 8.015625 75.875 
L 15.828125 75.875 
Q 23.140625 64.359375 26.78125 53.3125 
Q 30.421875 42.28125 30.421875 31.390625 
Q 30.421875 20.453125 26.78125 9.375 
Q 23.140625 -1.703125 15.828125 -13.1875 
L 8.015625 -13.1875 
Q 14.5 -2 17.703125 9.0625 
Q 20.90625 20.125 20.90625 31.390625 
Q 20.90625 42.671875 17.703125 53.65625 
Q 14.5 64.65625 8.015625 75.875 
" id="BitstreamVeraSans-Roman-29"/>
      <path d="M 31 75.875 
Q 24.46875 64.65625 21.28125 53.65625 
Q 18.109375 42.671875 18.109375 31.390625 
Q 18.109375 20.125 21.3125 9.0625 
Q 24.515625 -2 31 -13.1875 
L 23.1875 -13.1875 
Q 15.875 -1.703125 12.234375 9.375 
Q 8.59375 20.453125 8.59375 31.390625 
Q 8.59375 42.28125 12.203125 53.3125 
Q 15.828125 64.359375 23.1875 75.875 
z
" id="BitstreamVeraSans-Roman-28"/>
      <path d="M 45.40625 27.984375 
Q 45.40625 37.75 41.375 43.109375 
Q 37.359375 48.484375 30.078125 48.484375 
Q 22.859375 48.484375 18.828125 43.109375 
Q 14.796875 37.75 14.796875 27.984375 
Q 14.796875 18.265625 18.828125 12.890625 
Q 22.859375 7.515625 30.078125 7.515625 
Q 37.359375 7.515625 41.375 12.890625 
Q 45.40625 18.265625 45.40625 27.984375 
M 54.390625 6.78125 
Q 54.390625 -7.171875 48.1875 -13.984375 
Q 42 -20.796875 29.203125 -20.796875 
Q 24.46875 -20.796875 20.265625 -20.09375 
Q 16.0625 -19.390625 12.109375 -17.921875 
L 12.109375 -9.1875 
Q 16.0625 -11.328125 19.921875 -12.34375 
Q 23.78125 -13.375 27.78125 -13.375 
Q 36.625 -13.375 41.015625 -8.765625 
Q 45.40625 -4.15625 45.40625 5.171875 
L 45.40625 9.625 
Q 42.625 4.78125 38.28125 2.390625 
Q 33.9375 0 27.875 0 
Q 17.828125 0 11.671875 7.65625 
Q 5.515625 15.328125 5.515625 27.984375 
Q 5.515625 40.671875 11.671875 48.328125 
Q 17.828125 56 27.875 56 
Q 33.9375 56 38.28125 53.609375 
Q 42.625 51.21875 45.40625 46.390625 
L 45.40625 54.6875 
L 54.390625 54.6875 
z
" id="BitstreamVeraSans-Roman-67"/>
      <path d="M 9.421875 75.984375 
L 18.40625 75.984375 
L 18.40625 0 
L 9.421875 0 
z
" id="BitstreamVeraSans-Roman-6c"/>
     </defs>
     <g transform="translate(79.846875 462.69609375)rotate(-90.0)scale(0.3 -0.3)">
      <use xlink:href="#BitstreamVeraSans-Roman-6c"/>
      <use x="27.783203125" xlink:href="#BitstreamVeraSans-Roman-6f"/>
      <use x="88.96484375" xlink:href="#BitstreamVeraSans-Roman-67"/>
      <use x="152.44140625" xlink:href="#BitstreamVeraSans-Roman-28"/>
      <use x="191.455078125" xlink:href="#BitstreamVeraSans-Roman-6c"/>
      <use x="219.23828125" xlink:href="#BitstreamVeraSans-Roman-6f"/>
      <use x="280.419921875" xlink:href="#BitstreamVeraSans-Roman-73"/>
      <use x="332.51953125" xlink:href="#BitstreamVeraSans-Roman-73"/>
      <use x="384.619140625" xlink:href="#BitstreamVeraSans-Roman-29"/>
     </g>
    </g>
   </g>
   <g id="legend_1">
    <g id="patch_7">
     <path d="M 843.876562 163.36875 
L 1321.05 163.36875 
L 1321.05 66.3 
L 843.876562 66.3 
z
" style="fill:#ffffff;stroke:#000000;stroke-linejoin:miter;"/>
    </g>
    <g id="line2d_33">
     <path d="M 864.876562 90.595312 
L 906.876562 90.595312 
" style="fill:none;stroke:#0000ff;stroke-linecap:square;stroke-width:2.0;"/>
    </g>
    <g id="line2d_34"/>
    <g id="text_18">
     <!-- random: step=0.007688 -->
     <defs>
      <path id="BitstreamVeraSans-Roman-20"/>
      <path d="M 8.203125 72.90625 
L 55.078125 72.90625 
L 55.078125 68.703125 
L 28.609375 0 
L 18.3125 0 
L 43.21875 64.59375 
L 8.203125 64.59375 
z
" id="BitstreamVeraSans-Roman-37"/>
      <path d="M 52 44.1875 
Q 55.375 50.25 60.0625 53.125 
Q 64.75 56 71.09375 56 
Q 79.640625 56 84.28125 50.015625 
Q 88.921875 44.046875 88.921875 33.015625 
L 88.921875 0 
L 79.890625 0 
L 79.890625 32.71875 
Q 79.890625 40.578125 77.09375 44.375 
Q 74.3125 48.1875 68.609375 48.1875 
Q 61.625 48.1875 57.5625 43.546875 
Q 53.515625 38.921875 53.515625 30.90625 
L 53.515625 0 
L 44.484375 0 
L 44.484375 32.71875 
Q 44.484375 40.625 41.703125 44.40625 
Q 38.921875 48.1875 33.109375 48.1875 
Q 26.21875 48.1875 22.15625 43.53125 
Q 18.109375 38.875 18.109375 30.90625 
L 18.109375 0 
L 9.078125 0 
L 9.078125 54.6875 
L 18.109375 54.6875 
L 18.109375 46.1875 
Q 21.1875 51.21875 25.484375 53.609375 
Q 29.78125 56 35.6875 56 
Q 41.65625 56 45.828125 52.96875 
Q 50 49.953125 52 44.1875 
" id="BitstreamVeraSans-Roman-6d"/>
      <path d="M 11.71875 12.40625 
L 22.015625 12.40625 
L 22.015625 0 
L 11.71875 0 
z
M 11.71875 51.703125 
L 22.015625 51.703125 
L 22.015625 39.3125 
L 11.71875 39.3125 
z
" id="BitstreamVeraSans-Roman-3a"/>
      <path d="M 10.6875 12.40625 
L 21 12.40625 
L 21 0 
L 10.6875 0 
z
" id="BitstreamVeraSans-Roman-2e"/>
      <path d="M 10.59375 45.40625 
L 73.1875 45.40625 
L 73.1875 37.203125 
L 10.59375 37.203125 
z
M 10.59375 25.484375 
L 73.1875 25.484375 
L 73.1875 17.1875 
L 10.59375 17.1875 
z
" id="BitstreamVeraSans-Roman-3d"/>
      <path d="M 45.40625 46.390625 
L 45.40625 75.984375 
L 54.390625 75.984375 
L 54.390625 0 
L 45.40625 0 
L 45.40625 8.203125 
Q 42.578125 3.328125 38.25 0.953125 
Q 33.9375 -1.421875 27.875 -1.421875 
Q 17.96875 -1.421875 11.734375 6.484375 
Q 5.515625 14.40625 5.515625 27.296875 
Q 5.515625 40.1875 11.734375 48.09375 
Q 17.96875 56 27.875 56 
Q 33.9375 56 38.25 53.625 
Q 42.578125 51.265625 45.40625 46.390625 
M 14.796875 27.296875 
Q 14.796875 17.390625 18.875 11.75 
Q 22.953125 6.109375 30.078125 6.109375 
Q 37.203125 6.109375 41.296875 11.75 
Q 45.40625 17.390625 45.40625 27.296875 
Q 45.40625 37.203125 41.296875 42.84375 
Q 37.203125 48.484375 30.078125 48.484375 
Q 22.953125 48.484375 18.875 42.84375 
Q 14.796875 37.203125 14.796875 27.296875 
" id="BitstreamVeraSans-Roman-64"/>
      <path d="M 18.109375 8.203125 
L 18.109375 -20.796875 
L 9.078125 -20.796875 
L 9.078125 54.6875 
L 18.109375 54.6875 
L 18.109375 46.390625 
Q 20.953125 51.265625 25.265625 53.625 
Q 29.59375 56 35.59375 56 
Q 45.5625 56 51.78125 48.09375 
Q 58.015625 40.1875 58.015625 27.296875 
Q 58.015625 14.40625 51.78125 6.484375 
Q 45.5625 -1.421875 35.59375 -1.421875 
Q 29.59375 -1.421875 25.265625 0.953125 
Q 20.953125 3.328125 18.109375 8.203125 
M 48.6875 27.296875 
Q 48.6875 37.203125 44.609375 42.84375 
Q 40.53125 48.484375 33.40625 48.484375 
Q 26.265625 48.484375 22.1875 42.84375 
Q 18.109375 37.203125 18.109375 27.296875 
Q 18.109375 17.390625 22.1875 11.75 
Q 26.265625 6.109375 33.40625 6.109375 
Q 40.53125 6.109375 44.609375 11.75 
Q 48.6875 17.390625 48.6875 27.296875 
" id="BitstreamVeraSans-Roman-70"/>
     </defs>
     <g transform="translate(939.8765625 101.0953125)scale(0.3 -0.3)">
      <use xlink:href="#BitstreamVeraSans-Roman-72"/>
      <use x="41.11328125" xlink:href="#BitstreamVeraSans-Roman-61"/>
      <use x="102.392578125" xlink:href="#BitstreamVeraSans-Roman-6e"/>
      <use x="165.771484375" xlink:href="#BitstreamVeraSans-Roman-64"/>
      <use x="229.248046875" xlink:href="#BitstreamVeraSans-Roman-6f"/>
      <use x="290.4296875" xlink:href="#BitstreamVeraSans-Roman-6d"/>
      <use x="387.841796875" xlink:href="#BitstreamVeraSans-Roman-3a"/>
      <use x="421.533203125" xlink:href="#BitstreamVeraSans-Roman-20"/>
      <use x="453.3203125" xlink:href="#BitstreamVeraSans-Roman-73"/>
      <use x="505.419921875" xlink:href="#BitstreamVeraSans-Roman-74"/>
      <use x="544.62890625" xlink:href="#BitstreamVeraSans-Roman-65"/>
      <use x="606.15234375" xlink:href="#BitstreamVeraSans-Roman-70"/>
      <use x="669.62890625" xlink:href="#BitstreamVeraSans-Roman-3d"/>
      <use x="753.41796875" xlink:href="#BitstreamVeraSans-Roman-30"/>
      <use x="817.041015625" xlink:href="#BitstreamVeraSans-Roman-2e"/>
      <use x="848.828125" xlink:href="#BitstreamVeraSans-Roman-30"/>
      <use x="912.451171875" xlink:href="#BitstreamVeraSans-Roman-30"/>
      <use x="976.07421875" xlink:href="#BitstreamVeraSans-Roman-37"/>
      <use x="1039.69726562" xlink:href="#BitstreamVeraSans-Roman-36"/>
      <use x="1103.3203125" xlink:href="#BitstreamVeraSans-Roman-38"/>
      <use x="1166.94335938" xlink:href="#BitstreamVeraSans-Roman-38"/>
     </g>
    </g>
    <g id="line2d_35">
     <path d="M 864.876562 134.629687 
L 906.876562 134.629687 
" style="fill:none;stroke:#008000;stroke-dasharray:6.000000,6.000000;stroke-dashoffset:0.0;stroke-width:2.0;"/>
    </g>
    <g id="line2d_36"/>
    <g id="text_19">
     <!-- corr: step=0.007688 -->
     <defs>
      <path d="M 48.78125 52.59375 
L 48.78125 44.1875 
Q 44.96875 46.296875 41.140625 47.34375 
Q 37.3125 48.390625 33.40625 48.390625 
Q 24.65625 48.390625 19.8125 42.84375 
Q 14.984375 37.3125 14.984375 27.296875 
Q 14.984375 17.28125 19.8125 11.734375 
Q 24.65625 6.203125 33.40625 6.203125 
Q 37.3125 6.203125 41.140625 7.25 
Q 44.96875 8.296875 48.78125 10.40625 
L 48.78125 2.09375 
Q 45.015625 0.34375 40.984375 -0.53125 
Q 36.96875 -1.421875 32.421875 -1.421875 
Q 20.0625 -1.421875 12.78125 6.34375 
Q 5.515625 14.109375 5.515625 27.296875 
Q 5.515625 40.671875 12.859375 48.328125 
Q 20.21875 56 33.015625 56 
Q 37.15625 56 41.109375 55.140625 
Q 45.0625 54.296875 48.78125 52.59375 
" id="BitstreamVeraSans-Roman-63"/>
     </defs>
     <g transform="translate(939.8765625 145.1296875)scale(0.3 -0.3)">
      <use xlink:href="#BitstreamVeraSans-Roman-63"/>
      <use x="54.98046875" xlink:href="#BitstreamVeraSans-Roman-6f"/>
      <use x="116.162109375" xlink:href="#BitstreamVeraSans-Roman-72"/>
      <use x="157.259765625" xlink:href="#BitstreamVeraSans-Roman-72"/>
      <use x="198.357421875" xlink:href="#BitstreamVeraSans-Roman-3a"/>
      <use x="232.048828125" xlink:href="#BitstreamVeraSans-Roman-20"/>
      <use x="263.8359375" xlink:href="#BitstreamVeraSans-Roman-73"/>
      <use x="315.935546875" xlink:href="#BitstreamVeraSans-Roman-74"/>
      <use x="355.14453125" xlink:href="#BitstreamVeraSans-Roman-65"/>
      <use x="416.66796875" xlink:href="#BitstreamVeraSans-Roman-70"/>
      <use x="480.14453125" xlink:href="#BitstreamVeraSans-Roman-3d"/>
      <use x="563.93359375" xlink:href="#BitstreamVeraSans-Roman-30"/>
      <use x="627.556640625" xlink:href="#BitstreamVeraSans-Roman-2e"/>
      <use x="659.34375" xlink:href="#BitstreamVeraSans-Roman-30"/>
      <use x="722.966796875" xlink:href="#BitstreamVeraSans-Roman-30"/>
      <use x="786.58984375" xlink:href="#BitstreamVeraSans-Roman-37"/>
      <use x="850.212890625" xlink:href="#BitstreamVeraSans-Roman-36"/>
      <use x="913.8359375" xlink:href="#BitstreamVeraSans-Roman-38"/>
      <use x="977.458984375" xlink:href="#BitstreamVeraSans-Roman-38"/>
     </g>
    </g>
   </g>
  </g>
 </g>
 <defs>
  <clipPath id="pbb72e1b3ba">
   <rect height="695.7" width="1177.65" x="158.4" y="51.3"/>
  </clipPath>
 </defs>
</svg>
