<?xml version="1.0" encoding="utf-8" standalone="no"?>
<!DOCTYPE svg PUBLIC "-//W3C//DTD SVG 1.1//EN"
  "http://www.w3.org/Graphics/SVG/1.1/DTD/svg11.dtd">
<!-- Created with matplotlib (http://matplotlib.org/) -->
<svg height="864pt" version="1.1" viewBox="0 0 1440 864" width="1440pt" xmlns="http://www.w3.org/2000/svg" xmlns:xlink="http://www.w3.org/1999/xlink">
 <defs>
  <style type="text/css">
*{stroke-linecap:butt;stroke-linejoin:round;stroke-miterlimit:100000;}
  </style>
 </defs>
 <g id="figure_1">
  <g id="patch_1">
   <path d="M 0 864 
L 1440 864 
L 1440 0 
L 0 0 
z
" style="fill:#ffffff;"/>
  </g>
  <g id="axes_1">
   <g id="patch_2">
    <path d="M 158.4 747 
L 1336.05 747 
L 1336.05 51.3 
L 158.4 51.3 
z
" style="fill:#ffffff;"/>
   </g>
   <g id="line2d_1">
    <path clip-path="url(#p4b56fec96a)" d="M 159.57765 95.954913 
L 160.7553 97.688871 
L 161.93295 98.934023 
L 163.1106 99.157065 
L 164.28825 100.144871 
L 165.4659 101.53655 
L 166.64355 101.347195 
L 167.8212 101.997464 
L 168.99885 103.229935 
L 170.1765 104.300939 
L 171.35415 104.301742 
L 173.70945 106.666994 
L 174.8871 107.084068 
L 176.06475 107.085067 
L 177.2424 108.683042 
L 178.42005 109.884226 
L 180.77535 109.999765 
L 181.953 112.381229 
L 183.13065 113.415645 
L 185.48595 113.416708 
L 186.6636 115.604605 
L 187.84125 116.453115 
L 190.19655 116.459558 
L 191.3742 118.622725 
L 192.55185 119.179649 
L 194.90715 119.17982 
L 196.0848 121.935075 
L 197.26245 122.413604 
L 199.61775 122.418589 
L 200.7954 125.45018 
L 201.97305 125.617774 
L 204.32835 125.617525 
L 205.506 128.421574 
L 207.8613 128.480757 
L 209.03895 128.481103 
L 210.2166 131.280694 
L 213.74955 131.292016 
L 214.9272 133.876272 
L 218.46015 133.900225 
L 219.6378 136.761938 
L 223.17075 136.790071 
L 224.3484 140.089071 
L 227.88135 140.129496 
L 229.059 143.158744 
L 232.59195 143.189038 
L 233.7696 145.861618 
L 237.30255 145.868501 
L 238.4802 148.818246 
L 242.01315 148.855858 
L 243.1908 151.878877 
L 246.72375 151.907235 
L 247.9014 155.050368 
L 251.43435 155.091767 
L 252.612 158.311381 
L 254.9673 158.402273 
L 256.14495 158.403582 
L 257.3226 161.683528 
L 258.50025 161.837017 
L 260.85555 161.842376 
L 262.0332 164.805799 
L 263.21085 164.93479 
L 265.56615 164.935477 
L 266.7438 167.618534 
L 267.92145 167.845887 
L 270.27675 167.845921 
L 271.4544 170.439411 
L 272.63205 170.677488 
L 274.98735 170.678345 
L 276.165 173.784124 
L 277.34265 174.120982 
L 279.69795 174.120792 
L 280.8756 176.75112 
L 282.05325 177.051621 
L 284.40855 177.050651 
L 285.5862 179.947553 
L 286.76385 180.370522 
L 289.11915 180.368911 
L 290.2968 183.098704 
L 291.47445 183.522058 
L 293.82975 183.522697 
L 295.0074 186.027551 
L 296.18505 186.510745 
L 298.54035 186.512575 
L 299.718 189.389133 
L 300.89565 189.955697 
L 303.25095 189.95463 
L 304.4286 193.02979 
L 305.60625 193.029292 
L 306.7839 192.567403 
L 307.96155 193.434698 
L 309.1392 195.656409 
L 310.31685 195.652122 
L 311.4945 196.175066 
L 312.67215 196.976692 
L 313.8498 197.944641 
L 315.02745 197.943176 
L 316.2051 200.196102 
L 317.38275 200.917275 
L 318.5604 200.917376 
L 319.73805 201.180745 
L 320.9157 203.558856 
L 322.09335 203.557474 
L 323.271 203.950964 
L 324.44865 204.601251 
L 325.6263 205.794417 
L 326.80395 205.793247 
L 327.9816 207.937445 
L 329.15925 208.91777 
L 331.51455 208.84607 
L 332.6922 212.042384 
L 333.86985 212.042067 
L 335.0475 212.29326 
L 336.22515 212.817733 
L 337.4028 214.43673 
L 338.58045 214.435463 
L 340.93575 216.804202 
L 342.1134 216.349718 
L 343.29105 217.039381 
L 344.4687 218.440882 
L 345.64635 219.584835 
L 346.824 220.934416 
L 348.00165 220.416632 
L 349.1793 220.863626 
L 350.35695 221.830259 
L 351.5346 223.371059 
L 352.71225 224.2485 
L 353.8899 224.063779 
L 355.06755 224.430021 
L 356.2452 225.396257 
L 357.42285 226.84044 
L 358.6005 227.938558 
L 359.77815 227.859171 
L 360.9558 228.219681 
L 362.13345 229.103428 
L 363.3111 230.316866 
L 364.48875 231.802055 
L 365.6664 231.49518 
L 366.84405 232.299368 
L 368.0217 231.888272 
L 369.19935 234.335348 
L 370.377 235.228065 
L 372.7323 235.804768 
L 373.90995 236.489879 
L 375.0876 237.038191 
L 376.26525 239.3605 
L 377.4429 239.629187 
L 378.62055 239.198836 
L 379.7982 239.673219 
L 380.97585 242.173455 
L 382.1535 242.511418 
L 383.33115 243.42017 
L 384.5088 243.744215 
L 385.68645 244.301989 
L 386.8641 244.401251 
L 388.04175 246.701499 
L 389.2194 246.707319 
L 390.39705 246.572553 
L 391.5747 247.069463 
L 392.75235 249.028395 
L 393.93 249.029772 
L 395.10765 250.325244 
L 396.2853 250.7586 
L 397.46295 251.627266 
L 398.6406 251.628282 
L 399.81825 254.384918 
L 400.9959 254.385247 
L 402.17355 254.121388 
L 403.3512 254.737266 
L 404.52885 257.261872 
L 405.7065 257.264341 
L 406.88415 258.102898 
L 408.0618 258.458261 
L 409.23945 259.349234 
L 410.4171 259.347373 
L 411.59475 261.927699 
L 412.7724 261.9278 
L 413.95005 261.574892 
L 415.1277 262.052352 
L 416.30535 264.780951 
L 417.483 264.785554 
L 418.66065 265.517914 
L 419.8383 265.937807 
L 421.01595 267.30458 
L 422.1936 267.303801 
L 423.37125 269.936876 
L 424.5489 269.936842 
L 425.72655 269.439872 
L 426.9042 269.910153 
L 428.08185 272.610828 
L 429.2595 272.611069 
L 430.43715 273.098561 
L 431.6148 273.463132 
L 432.79245 274.780625 
L 433.9701 274.780726 
L 435.14775 276.95784 
L 436.3254 277.628506 
L 437.50305 277.628499 
L 438.6807 277.470448 
L 439.85835 280.403849 
L 441.036 280.405584 
L 442.21365 280.885828 
L 443.3913 281.199938 
L 444.56895 282.559383 
L 445.7466 282.559338 
L 446.92425 284.419351 
L 448.1019 285.041306 
L 449.27955 285.040757 
L 450.4572 284.834648 
L 451.63485 288.175545 
L 452.8125 288.174645 
L 455.1678 288.877078 
L 456.34545 290.163413 
L 457.5231 290.164026 
L 458.70075 291.468147 
L 459.8784 292.085293 
L 461.05605 292.084635 
L 462.2337 291.967147 
L 463.41135 295.001057 
L 464.589 295.000855 
L 466.9443 295.693254 
L 468.12195 297.33625 
L 469.2996 297.335844 
L 470.47725 298.82576 
L 471.6549 299.512472 
L 472.83255 299.514916 
L 474.0102 299.171828 
L 475.18785 302.263738 
L 476.3655 302.264595 
L 478.7208 302.980833 
L 479.89845 304.651045 
L 481.0761 304.817525 
L 482.25375 306.254599 
L 483.4314 306.993412 
L 484.60905 307.149553 
L 485.7867 306.655143 
L 486.96435 309.583234 
L 490.4973 310.500645 
L 491.67495 311.636332 
L 492.8526 312.159648 
L 494.03025 314.158744 
L 495.2079 313.797654 
L 496.38555 314.604492 
L 497.5632 314.243016 
L 498.74085 316.593719 
L 499.9185 317.321246 
L 502.2738 317.886735 
L 503.45145 318.43778 
L 504.6291 319.536172 
L 505.80675 321.63847 
L 506.9844 321.622652 
L 508.16205 322.111737 
L 509.3397 322.075719 
L 511.695 325.754194 
L 512.87265 326.843279 
L 514.0503 326.258869 
L 515.22795 326.783696 
L 517.58325 329.540858 
L 518.7609 330.449575 
L 519.93855 329.979785 
L 521.1162 330.466159 
L 522.29385 331.503972 
L 523.4715 333.23914 
L 524.64915 334.096033 
L 525.8268 333.886604 
L 527.00445 334.322909 
L 529.35975 336.360731 
L 530.5374 337.950308 
L 531.71505 337.563497 
L 532.8927 338.526149 
L 534.07035 338.028641 
L 535.248 340.836992 
L 536.42565 341.597832 
L 537.6033 341.692271 
L 538.78095 342.117257 
L 539.9586 343.224122 
L 541.13625 343.879329 
L 542.3139 346.40604 
L 543.49155 345.862027 
L 544.6692 346.547894 
L 545.84685 346.610262 
L 547.0245 348.723152 
L 548.20215 348.94353 
L 549.3798 349.658774 
L 550.55745 350.055976 
L 551.7351 351.103987 
L 552.91275 351.145023 
L 554.0904 353.979099 
L 555.26805 353.981173 
L 556.4457 353.63279 
L 557.62335 354.192446 
L 558.801 356.781905 
L 559.97865 356.783915 
L 561.1563 357.720775 
L 562.33395 358.153444 
L 563.5116 358.867732 
L 564.68925 358.867502 
L 565.8669 361.278367 
L 567.04455 361.278367 
L 568.2222 361.081412 
L 569.39985 361.645356 
L 570.5775 363.626072 
L 571.75515 363.626285 
L 572.9328 364.58517 
L 574.11045 365.046452 
L 575.2881 365.646116 
L 576.46575 365.645939 
L 577.6434 368.670023 
L 578.82105 368.690428 
L 579.9987 368.538161 
L 581.17635 369.225799 
L 582.354 370.765972 
L 583.53165 370.766845 
L 585.88695 372.789656 
L 587.0646 372.78956 
L 588.24225 372.335668 
L 589.4199 375.630621 
L 591.7752 375.611251 
L 592.95285 376.421955 
L 594.1305 378.238588 
L 595.30815 378.238336 
L 596.4858 379.643106 
L 597.66345 380.679074 
L 598.8411 380.679744 
L 600.01875 380.379767 
L 601.1964 383.544488 
L 602.37405 383.544565 
L 603.5517 383.668523 
L 604.72935 384.327582 
L 605.907 385.899004 
L 607.08465 385.899033 
L 608.2623 387.41125 
L 609.43995 388.293518 
L 610.6176 388.293643 
L 611.79525 388.075881 
L 612.9729 391.342742 
L 614.15055 391.343622 
L 615.3282 391.525796 
L 616.50585 392.245834 
L 617.6835 393.872298 
L 618.86115 393.871077 
L 620.0388 395.335949 
L 621.21645 396.136695 
L 623.57175 396.038398 
L 624.7494 399.093914 
L 625.92705 399.093918 
L 627.1047 399.408268 
L 628.28235 400.082755 
L 629.46 401.448532 
L 630.63765 401.449318 
L 631.8153 403.288311 
L 632.99295 404.065932 
L 635.34825 404.114429 
L 636.5259 407.293892 
L 637.70355 407.294018 
L 638.8812 407.596258 
L 640.05885 408.254206 
L 641.2365 409.574178 
L 642.41415 409.574278 
L 643.5918 411.571917 
L 644.76945 412.337047 
L 647.12475 412.312193 
L 648.3024 415.343045 
L 649.48005 415.34279 
L 651.83535 416.479589 
L 653.013 417.542112 
L 654.19065 417.542329 
L 655.3683 420.068257 
L 656.54595 420.067854 
L 657.7236 419.367405 
L 658.90125 420.131337 
L 660.0789 422.31429 
L 661.25655 422.314914 
L 663.61185 423.380973 
L 664.7895 424.351347 
L 665.96715 424.351982 
L 667.1448 426.874133 
L 668.32245 426.874133 
L 669.5001 426.411337 
L 670.67775 427.119176 
L 671.8554 429.253529 
L 673.03305 429.255898 
L 675.38835 430.655303 
L 676.566 431.526136 
L 677.74365 431.52623 
L 678.9213 433.955349 
L 680.09895 433.955361 
L 681.2766 433.433356 
L 682.45425 434.288031 
L 683.6319 436.532792 
L 684.80955 436.533494 
L 685.9872 437.245832 
L 687.16485 437.791957 
L 688.3425 438.604799 
L 689.52015 438.60483 
L 690.6978 440.945576 
L 691.87545 440.945416 
L 693.0531 440.533939 
L 694.23075 441.46859 
L 695.4084 443.503388 
L 696.58605 443.503797 
L 697.7637 444.136961 
L 698.94135 444.596268 
L 700.119 445.254829 
L 701.29665 445.256709 
L 702.4743 448.506159 
L 703.65195 448.506415 
L 704.8296 447.810228 
L 706.00725 448.913738 
L 707.1849 451.101554 
L 708.36255 451.101113 
L 711.8955 453.432593 
L 713.07315 453.432519 
L 714.2508 456.236539 
L 715.42845 456.236515 
L 716.6061 455.668259 
L 717.78375 456.624857 
L 718.9614 458.634083 
L 720.13905 458.633977 
L 721.3167 459.528956 
L 722.49435 460.220971 
L 723.672 461.081823 
L 724.84965 461.081911 
L 726.0273 463.713877 
L 727.20495 463.713814 
L 728.3826 463.184991 
L 729.56025 464.229045 
L 730.7379 466.374981 
L 731.91555 466.375005 
L 733.0932 467.430191 
L 734.27085 468.920149 
L 735.4485 468.920162 
L 736.62615 468.154953 
L 737.8038 471.394928 
L 738.98145 471.394617 
L 740.1591 471.230406 
L 741.33675 471.967965 
L 742.5144 473.685443 
L 743.69205 473.685407 
L 746.04735 475.766065 
L 747.225 475.765918 
L 748.40265 475.460555 
L 749.5803 478.374519 
L 751.9356 478.410964 
L 753.11325 479.316129 
L 754.2909 481.022367 
L 755.46855 481.021016 
L 756.6462 482.678206 
L 757.82385 483.68263 
L 759.0015 483.682545 
L 760.17915 483.510733 
L 761.3568 486.468262 
L 762.53445 486.468008 
L 763.7121 486.679291 
L 764.88975 487.555883 
L 766.0674 489.192659 
L 767.24505 489.193007 
L 768.4227 490.874622 
L 769.60035 491.67565 
L 771.95565 491.756902 
L 773.1333 494.133787 
L 774.31095 494.133686 
L 775.4886 494.518802 
L 776.66625 495.17981 
L 777.8439 496.314961 
L 779.02155 496.314652 
L 780.1992 497.91665 
L 781.37685 498.496528 
L 782.5545 498.496528 
L 783.73215 498.728108 
L 784.9098 501.069373 
L 786.08745 501.068854 
L 787.2651 501.797458 
L 788.44275 502.369473 
L 789.6204 503.27088 
L 790.79805 503.271047 
L 791.9757 505.673654 
L 793.15335 505.674259 
L 794.331 505.227426 
L 795.50865 506.135447 
L 796.6863 508.479108 
L 797.86395 508.479292 
L 799.0416 509.267706 
L 800.21925 510.533185 
L 801.3969 510.533134 
L 802.57455 509.923099 
L 803.7522 513.872225 
L 804.92985 513.872212 
L 806.1075 513.426084 
L 807.28515 514.569527 
L 808.4628 516.465925 
L 809.64045 516.46634 
L 811.99575 519.031894 
L 813.1734 519.032042 
L 814.35105 518.582868 
L 815.5287 522.121476 
L 817.884 522.047647 
L 819.06165 522.817713 
L 820.2393 524.369244 
L 821.41695 524.369237 
L 822.5946 525.722107 
L 823.77225 526.546867 
L 826.12755 526.527732 
L 827.3052 529.47875 
L 828.48285 529.478757 
L 829.6605 529.693358 
L 830.83815 530.354455 
L 832.0158 531.741979 
L 833.19345 531.741754 
L 834.3711 533.700509 
L 835.54875 534.660158 
L 837.90405 534.697993 
L 839.0817 537.416933 
L 840.25935 537.41694 
L 841.437 537.794216 
L 842.61465 538.543637 
L 843.7923 539.696085 
L 844.96995 539.695891 
L 846.1476 541.990214 
L 847.32525 541.990231 
L 848.5029 541.439517 
L 849.68055 542.293416 
L 850.8582 544.530736 
L 852.03585 544.530213 
L 854.39115 545.724204 
L 855.5688 546.724563 
L 856.74645 546.724316 
L 857.9241 549.573035 
L 859.10175 549.573089 
L 860.2794 548.963571 
L 861.45705 550.116329 
L 862.6347 552.157841 
L 863.81235 552.15711 
L 864.99 553.005558 
L 866.16765 554.398318 
L 867.3453 554.398179 
L 868.52295 553.785722 
L 869.7006 556.772705 
L 870.87825 556.771851 
L 872.0559 556.51335 
L 873.23355 557.300887 
L 874.4112 558.873526 
L 875.58885 558.872762 
L 877.94415 561.012152 
L 879.1218 561.011896 
L 880.29945 560.653126 
L 881.4771 563.934798 
L 882.65475 563.934176 
L 883.8324 563.784274 
L 885.01005 564.710306 
L 886.1877 566.290575 
L 887.36535 566.291111 
L 888.543 567.865916 
L 889.72065 569.009726 
L 890.8983 569.009679 
L 892.07595 568.858443 
L 893.2536 571.737107 
L 894.43125 571.737012 
L 895.6089 571.878033 
L 896.78655 572.728558 
L 897.9642 574.22863 
L 899.14185 574.264193 
L 900.3195 575.571388 
L 901.49715 576.61399 
L 902.6748 576.463534 
L 903.85245 577.358176 
L 905.0301 579.118734 
L 906.20775 579.133721 
L 907.3854 579.917341 
L 908.56305 580.370724 
L 909.7407 581.499192 
L 910.91835 583.020192 
L 912.096 584.205154 
L 913.27365 583.98123 
L 914.4513 583.878531 
L 915.62895 586.725744 
L 916.8066 586.762785 
L 917.98425 586.450181 
L 919.1619 587.072603 
L 920.33955 589.450563 
L 921.5172 589.339549 
L 922.69485 590.20867 
L 923.8725 590.479732 
L 925.05015 591.240369 
L 926.2278 591.24035 
L 927.40545 594.271038 
L 928.5831 594.27105 
L 929.76075 594.155474 
L 930.9384 594.716184 
L 932.11605 597.008151 
L 933.2937 597.007923 
L 935.649 598.999133 
L 936.82665 598.999154 
L 938.0043 598.407385 
L 939.18195 601.551536 
L 940.3596 601.551152 
L 941.53725 601.771391 
L 942.7149 602.270882 
L 943.89255 604.127438 
L 945.0702 604.127568 
L 946.24785 605.786508 
L 947.4255 606.475766 
L 948.60315 606.475772 
L 949.7808 606.164589 
L 950.95845 609.632838 
L 952.1361 609.635608 
L 953.31375 610.100713 
L 954.4914 610.425042 
L 955.66905 611.886595 
L 956.8467 611.886904 
L 958.02435 614.424515 
L 959.202 614.424116 
L 960.37965 613.897767 
L 961.5573 614.453242 
L 962.73495 617.267866 
L 963.9126 617.267744 
L 965.09025 618.010212 
L 966.2679 618.324688 
L 967.44555 619.216376 
L 968.6232 619.217308 
L 969.80085 622.270218 
L 970.9785 622.271015 
L 972.15615 621.876452 
L 973.3338 622.52372 
L 974.51145 624.809611 
L 975.6891 624.809407 
L 976.86675 625.876392 
L 978.0444 626.293647 
L 979.22205 627.092522 
L 980.3997 627.09265 
L 981.57735 629.943555 
L 982.755 629.943549 
L 983.93265 629.804614 
L 985.1103 630.470625 
L 986.28795 632.482504 
L 987.4656 632.481921 
L 988.64325 633.958751 
L 989.8209 634.981365 
L 990.99855 634.982545 
L 992.1762 634.383361 
L 993.35385 637.831691 
L 994.5315 637.831933 
L 995.70915 637.999202 
L 996.8868 638.390006 
L 998.06445 640.040083 
L 999.2421 640.039047 
L 1000.41975 641.720825 
L 1001.5974 642.413496 
L 1002.77505 642.413538 
L 1003.9527 642.22146 
L 1005.13035 645.11407 
L 1006.308 645.112401 
L 1008.6633 645.849184 
L 1009.84095 646.927825 
L 1011.0186 646.928089 
L 1012.19625 649.42199 
L 1013.3739 649.42199 
L 1014.55155 648.911619 
L 1015.7292 649.582049 
L 1016.90685 652.251952 
L 1018.0845 652.248462 
L 1019.26215 652.92099 
L 1020.4398 653.376729 
L 1021.61745 654.405666 
L 1022.7951 654.403305 
L 1023.97275 657.105236 
L 1025.1504 657.105452 
L 1026.32805 656.79367 
L 1027.5057 657.353781 
L 1028.68335 659.315999 
L 1029.861 659.316198 
L 1031.03865 660.169956 
L 1032.2163 660.598103 
L 1033.39395 661.247373 
L 1034.5716 661.249078 
L 1035.74925 663.509462 
L 1038.10455 663.423401 
L 1039.2822 664.032079 
L 1040.45985 665.764244 
L 1041.6375 665.76368 
L 1042.81515 666.835983 
L 1043.9928 667.561007 
L 1045.17045 667.560708 
L 1046.3481 667.207453 
L 1047.52575 669.495146 
L 1048.7034 669.495207 
L 1051.0587 669.934089 
L 1052.23635 670.980736 
L 1053.414 670.979987 
L 1054.59165 672.15329 
L 1055.7693 672.63352 
L 1056.94695 672.634522 
L 1058.1246 672.493722 
L 1059.30225 673.888795 
L 1060.4799 673.893587 
L 1062.8352 674.403111 
L 1064.01285 675.081236 
L 1065.1905 675.08249 
L 1066.36815 676.160863 
L 1067.5458 676.161004 
L 1068.72345 675.913192 
L 1069.9011 676.132294 
L 1071.07875 677.290829 
L 1072.2564 677.290612 
L 1073.43405 677.591953 
L 1075.78935 677.786251 
L 1076.967 677.790452 
L 1078.14465 678.352085 
L 1080.49995 678.390988 
L 1081.6776 678.463042 
L 1082.85525 679.237491 
L 1088.7435 679.294281 
L 1089.92115 680.080326 
L 1095.8094 680.025782 
L 1096.98705 680.446855 
L 1098.1647 680.625648 
L 1105.2306 680.731054 
L 1109.9412 681.068171 
L 1112.2965 681.152627 
L 1113.47415 681.314438 
L 1117.0071 681.19863 
L 1118.18475 681.025052 
L 1119.3624 681.020671 
L 1120.54005 681.204459 
L 1126.4283 681.119476 
L 1128.7836 680.911052 
L 1133.4942 680.962695 
L 1134.67185 680.941721 
L 1139.38245 681.372215 
L 1141.73775 681.32972 
L 1149.9813 681.654727 
L 1152.3366 682.039738 
L 1154.6919 681.976081 
L 1155.86955 682.33291 
L 1157.0472 682.339283 
L 1158.22485 682.162564 
L 1159.4025 682.136332 
L 1160.58015 681.98785 
L 1161.7578 681.984048 
L 1162.93545 681.620434 
L 1165.29075 681.682552 
L 1166.4684 681.732962 
L 1167.64605 681.559216 
L 1173.5343 681.557342 
L 1174.71195 682.076394 
L 1178.2449 682.077593 
L 1179.42255 682.311608 
L 1181.77785 682.347993 
L 1182.9555 681.987046 
L 1184.13315 681.988149 
L 1185.3108 682.14789 
L 1186.48845 681.744165 
L 1188.84375 681.784138 
L 1193.55435 682.008255 
L 1197.0873 681.788657 
L 1198.26495 681.980415 
L 1199.4426 681.979223 
L 1204.1532 682.425696 
L 1207.68615 682.26981 
L 1208.8638 682.419603 
L 1211.2191 682.318906 
L 1215.9297 682.527651 
L 1217.10735 681.989184 
L 1220.6403 682.074984 
L 1222.9956 682.094626 
L 1224.17325 681.931948 
L 1225.3509 681.968824 
L 1226.52855 682.130971 
L 1227.7062 682.129541 
L 1228.88385 682.250866 
L 1232.4168 682.173904 
L 1233.59445 682.039036 
L 1235.94975 681.959481 
L 1238.30505 681.908124 
L 1239.4827 682.01248 
L 1240.66035 681.830189 
L 1243.01565 681.765722 
L 1244.1933 682.085215 
L 1245.37095 682.234873 
L 1246.5486 682.119463 
L 1248.9039 682.194825 
L 1251.2592 682.170363 
L 1254.79215 682.119126 
L 1255.9698 681.873308 
L 1258.3251 681.944206 
L 1259.50275 682.155379 
L 1260.6804 682.485722 
L 1261.85805 682.324899 
L 1263.0357 682.456521 
L 1266.56865 682.284062 
L 1267.7463 682.729008 
L 1268.92395 682.713049 
L 1270.1016 682.56814 
L 1271.27925 682.588079 
L 1272.4569 682.366087 
L 1273.63455 682.260371 
L 1274.8122 681.866591 
L 1275.98985 681.715379 
L 1277.1675 681.708352 
L 1278.34515 681.571266 
L 1280.70045 681.799999 
L 1281.8781 681.598943 
L 1284.2334 681.743476 
L 1285.41105 681.737165 
L 1286.5887 681.865975 
L 1288.944 681.750761 
L 1291.2993 681.733235 
L 1292.47695 681.590543 
L 1293.6546 681.902785 
L 1294.83225 681.717495 
L 1298.3652 681.662929 
L 1299.54285 681.448615 
L 1300.7205 681.347381 
L 1301.89815 681.452259 
L 1304.25345 681.3707 
L 1305.4311 681.553487 
L 1308.96405 681.676106 
L 1311.31935 681.727117 
L 1313.67465 681.887508 
L 1314.8523 682.129386 
L 1316.02995 682.033582 
L 1317.2076 682.0707 
L 1318.38525 682.225159 
L 1319.5629 682.542739 
L 1325.45115 681.976812 
L 1326.6288 681.95379 
L 1327.80645 681.70948 
L 1328.9841 681.328593 
L 1330.16175 681.3383 
L 1333.6947 681.929645 
L 1334.87235 681.751106 
L 1336.05 681.69263 
L 1336.05 681.69263 
" style="fill:none;stroke:#0000ff;stroke-linecap:square;stroke-width:2.0;"/>
   </g>
   <g id="line2d_2">
    <path clip-path="url(#p4b56fec96a)" d="M 159.57765 95.864109 
L 160.7553 97.718348 
L 161.93295 98.88571 
L 163.1106 99.128517 
L 164.28825 99.128473 
L 165.4659 101.660562 
L 166.64355 102.013215 
L 167.8212 102.739334 
L 168.99885 102.739546 
L 170.1765 104.486333 
L 171.35415 104.920484 
L 172.5318 106.067655 
L 173.70945 106.066977 
L 174.8871 107.48938 
L 176.06475 107.949644 
L 177.2424 109.617042 
L 178.42005 109.616947 
L 179.5977 110.640686 
L 180.77535 110.931258 
L 181.953 112.991601 
L 183.13065 112.991687 
L 184.3083 113.54662 
L 185.48595 113.884227 
L 186.6636 116.504295 
L 187.84125 116.504275 
L 190.19655 116.877994 
L 191.3742 119.590275 
L 192.55185 119.508425 
L 194.90715 119.538608 
L 196.0848 122.600656 
L 197.26245 122.602638 
L 198.4401 122.982041 
L 199.61775 122.981646 
L 200.7954 125.185327 
L 201.97305 125.185433 
L 203.1507 126.694153 
L 204.32835 126.694212 
L 205.506 127.743668 
L 206.68365 127.743554 
L 207.8613 130.627996 
L 209.03895 130.626759 
L 210.2166 130.468103 
L 211.39425 130.467699 
L 212.5719 133.591613 
L 213.74955 133.607188 
L 214.9272 134.088888 
L 216.10485 134.089291 
L 217.2825 135.705502 
L 218.46015 135.705025 
L 219.6378 137.247641 
L 220.81545 137.247567 
L 221.9931 137.850919 
L 223.17075 137.85075 
L 224.3484 140.848806 
L 227.88135 140.941975 
L 229.059 143.439542 
L 230.23665 143.439958 
L 231.4143 144.413472 
L 232.59195 144.413392 
L 233.7696 145.854341 
L 234.94725 145.853462 
L 236.1249 147.958673 
L 237.30255 147.958675 
L 238.4802 148.353428 
L 239.65785 148.353176 
L 240.8355 151.083982 
L 242.01315 151.083856 
L 243.1908 151.307167 
L 244.36845 151.307214 
L 245.5461 153.95109 
L 246.72375 153.952071 
L 247.9014 155.022188 
L 249.07905 155.022085 
L 250.2567 156.248463 
L 251.43435 156.248666 
L 252.612 158.426168 
L 253.78965 158.42913 
L 254.9673 159.399189 
L 256.14495 159.401239 
L 257.3226 161.166036 
L 258.50025 161.165728 
L 259.6779 162.536199 
L 260.85555 162.539765 
L 262.0332 164.239463 
L 263.21085 164.239173 
L 264.3885 165.573335 
L 265.56615 165.579624 
L 266.7438 166.91746 
L 267.92145 166.917173 
L 269.0991 168.763879 
L 270.27675 168.902357 
L 271.4544 169.40345 
L 272.63205 169.403299 
L 273.8097 171.761555 
L 274.98735 171.97839 
L 277.34265 171.904668 
L 278.5203 175.078099 
L 282.05325 175.066098 
L 283.2309 177.55029 
L 286.76385 177.546716 
L 287.9415 180.48584 
L 291.47445 180.487589 
L 292.6521 183.462071 
L 296.18505 183.461465 
L 297.3627 186.675851 
L 300.89565 186.675577 
L 302.0733 189.413589 
L 305.60625 189.4152 
L 306.7839 192.568195 
L 310.31685 192.568209 
L 311.4945 195.318537 
L 315.02745 195.318989 
L 316.2051 198.264448 
L 319.73805 198.261229 
L 320.9157 201.164805 
L 324.44865 201.163722 
L 325.6263 203.912494 
L 329.15925 203.984106 
L 330.3369 206.811943 
L 331.51455 206.81333 
L 332.6922 207.462906 
L 333.86985 207.462799 
L 335.0475 208.993562 
L 336.22515 208.993283 
L 337.4028 210.47934 
L 338.58045 210.479378 
L 339.7581 211.072326 
L 340.93575 211.072377 
L 342.1134 214.382175 
L 345.64635 214.31237 
L 346.824 217.382091 
L 348.00165 217.382476 
L 349.1793 217.771579 
L 350.35695 217.77125 
L 351.5346 219.719331 
L 352.71225 219.719756 
L 353.8899 221.02419 
L 355.06755 221.024115 
L 356.2452 221.923438 
L 357.42285 221.92295 
L 358.6005 224.393432 
L 359.77815 224.392412 
L 360.9558 224.261412 
L 362.13345 224.261584 
L 363.3111 227.7064 
L 364.48875 227.654214 
L 365.6664 228.120309 
L 366.84405 228.120326 
L 368.0217 230.240945 
L 369.19935 230.24054 
L 370.377 231.596936 
L 371.55465 231.596775 
L 372.7323 232.457746 
L 373.90995 232.457832 
L 375.0876 235.152699 
L 378.62055 235.064097 
L 379.7982 237.928252 
L 380.97585 237.923977 
L 382.1535 238.664946 
L 383.33115 238.66504 
L 384.5088 240.228196 
L 385.68645 240.228069 
L 386.8641 242.045615 
L 388.04175 242.045783 
L 389.2194 242.46594 
L 390.39705 242.466307 
L 391.5747 245.515217 
L 392.75235 245.515167 
L 393.93 245.667106 
L 395.10765 245.66712 
L 396.2853 247.876364 
L 397.46295 247.876744 
L 398.6406 248.88952 
L 399.81825 248.889538 
L 400.9959 250.417298 
L 402.17355 250.41257 
L 403.3512 252.046556 
L 404.52885 252.047307 
L 405.7065 253.354606 
L 406.88415 253.36169 
L 408.0618 254.885916 
L 409.23945 254.88506 
L 410.4171 256.463057 
L 411.59475 256.458498 
L 412.7724 258.168273 
L 413.95005 258.168726 
L 415.1277 259.397395 
L 416.30535 259.393971 
L 417.483 260.963389 
L 418.66065 260.962293 
L 419.8383 262.440442 
L 421.01595 262.443588 
L 422.1936 263.950943 
L 423.37125 263.951257 
L 424.5489 265.238299 
L 425.72655 265.240369 
L 426.9042 266.692587 
L 428.08185 266.692555 
L 429.2595 268.202439 
L 430.43715 268.199397 
L 431.6148 269.956609 
L 432.79245 269.956906 
L 433.9701 271.641411 
L 435.14775 271.640985 
L 436.3254 273.389145 
L 437.50305 273.393742 
L 438.6807 274.61881 
L 439.85835 274.617926 
L 441.036 275.962543 
L 442.21365 275.962689 
L 443.3913 277.512495 
L 444.56895 277.505935 
L 445.7466 278.869463 
L 446.92425 278.880176 
L 448.1019 280.474088 
L 449.27955 280.475716 
L 450.4572 281.990753 
L 451.63485 281.991276 
L 452.8125 283.758504 
L 453.99015 283.757608 
L 455.1678 284.960403 
L 456.34545 284.960245 
L 457.5231 286.483402 
L 458.70075 286.487221 
L 459.8784 288.073506 
L 461.05605 288.07405 
L 462.2337 289.813017 
L 463.41135 289.8071 
L 464.589 290.972316 
L 465.76665 290.972921 
L 466.9443 292.389634 
L 468.12195 292.385895 
L 469.2996 293.586002 
L 470.47725 293.586429 
L 471.6549 295.289792 
L 472.83255 295.292377 
L 474.0102 296.550095 
L 475.18785 296.554683 
L 476.3655 298.191734 
L 477.54315 298.200826 
L 478.7208 299.36339 
L 479.89845 299.363341 
L 481.0761 301.192182 
L 482.25375 301.208085 
L 483.4314 302.344596 
L 484.60905 302.350657 
L 485.7867 304.471966 
L 486.96435 304.562403 
L 488.142 305.013558 
L 489.31965 305.014171 
L 490.4973 308.165518 
L 491.67495 308.283887 
L 494.03025 308.282666 
L 495.2079 311.539751 
L 498.74085 311.541104 
L 499.9185 314.666854 
L 503.45145 314.662533 
L 504.6291 317.782046 
L 508.16205 317.789893 
L 509.3397 321.00161 
L 512.87265 321.002692 
L 514.0503 323.943612 
L 517.58325 323.94467 
L 518.7609 326.540006 
L 522.29385 326.54369 
L 523.4715 329.229358 
L 527.00445 329.231982 
L 528.1821 331.785177 
L 531.71505 331.786927 
L 532.8927 334.999923 
L 536.42565 335.000767 
L 537.6033 338.017479 
L 541.13625 338.017198 
L 542.3139 341.754458 
L 545.84685 341.75463 
L 547.0245 344.762066 
L 550.55745 344.761109 
L 551.7351 347.767978 
L 555.26805 347.768751 
L 556.4457 350.832028 
L 559.97865 350.832563 
L 561.1563 353.927732 
L 564.68925 353.927672 
L 565.8669 357.147282 
L 569.39985 357.1468 
L 570.5775 360.02436 
L 574.11045 360.024726 
L 575.2881 363.035478 
L 578.82105 363.035087 
L 579.9987 366.10123 
L 583.53165 366.101997 
L 584.7093 369.27664 
L 588.24225 369.278207 
L 589.4199 372.877552 
L 592.95285 372.876997 
L 594.1305 376.050098 
L 597.66345 376.05198 
L 598.8411 378.692469 
L 602.37405 378.691891 
L 603.5517 381.434855 
L 607.08465 381.433975 
L 608.2623 384.575264 
L 611.79525 384.574893 
L 612.9729 387.383929 
L 616.50585 387.383744 
L 617.6835 390.336877 
L 621.21645 390.334858 
L 622.3941 393.254477 
L 625.92705 393.254616 
L 627.1047 396.538076 
L 630.63765 396.536405 
L 631.8153 399.394301 
L 635.34825 399.391789 
L 636.5259 402.45799 
L 640.05885 402.457657 
L 641.2365 405.707424 
L 644.76945 405.706727 
L 645.9471 408.542876 
L 649.48005 408.542684 
L 650.6577 411.243085 
L 654.19065 411.244014 
L 655.3683 414.48028 
L 658.90125 414.480219 
L 660.0789 417.5117 
L 663.61185 417.513861 
L 664.7895 420.510383 
L 668.32245 420.51091 
L 669.5001 423.39821 
L 673.03305 423.398793 
L 674.2107 426.614074 
L 677.74365 426.614024 
L 678.9213 430.032938 
L 682.45425 430.033579 
L 683.6319 433.398169 
L 687.16485 433.403908 
L 688.3425 436.11342 
L 691.87545 436.116679 
L 693.0531 438.986821 
L 696.58605 438.986912 
L 697.7637 441.532695 
L 701.29665 441.530124 
L 702.4743 444.843565 
L 706.00725 444.84308 
L 707.1849 447.633035 
L 710.71785 447.632931 
L 711.8955 450.953021 
L 715.42845 450.952075 
L 716.6061 453.984011 
L 720.13905 453.983198 
L 721.3167 456.545732 
L 724.84965 456.54778 
L 726.0273 459.329239 
L 729.56025 459.328833 
L 730.7379 462.179661 
L 734.27085 462.179122 
L 735.4485 465.321684 
L 738.98145 465.322364 
L 740.1591 468.442396 
L 743.69205 468.444216 
L 744.8697 471.714358 
L 748.40265 471.717933 
L 749.5803 474.68267 
L 753.11325 474.684913 
L 754.2909 477.368092 
L 757.82385 477.366865 
L 759.0015 480.442402 
L 762.53445 480.442692 
L 763.7121 483.069264 
L 767.24505 483.070024 
L 768.4227 486.201199 
L 771.95565 486.20944 
L 773.1333 489.602825 
L 776.66625 489.602943 
L 777.8439 492.31934 
L 781.37685 492.317849 
L 782.5545 495.284958 
L 786.08745 495.28546 
L 787.2651 497.959601 
L 790.79805 497.961866 
L 791.9757 500.937252 
L 795.50865 500.934365 
L 796.6863 503.750725 
L 800.21925 503.749291 
L 801.3969 506.765756 
L 804.92985 506.765972 
L 806.1075 509.907291 
L 809.64045 509.91048 
L 810.8181 512.858307 
L 814.35105 512.859668 
L 815.5287 515.519555 
L 819.06165 515.518391 
L 820.2393 518.065519 
L 823.77225 518.06475 
L 824.9499 520.753795 
L 828.48285 520.75372 
L 829.6605 523.725697 
L 833.19345 523.723583 
L 834.3711 526.87093 
L 837.90405 526.872467 
L 839.0817 530.243246 
L 842.61465 530.241889 
L 843.7923 533.260095 
L 847.32525 533.2622 
L 848.5029 536.534232 
L 852.03585 536.534416 
L 853.2135 539.821151 
L 856.74645 539.817409 
L 857.9241 543.290362 
L 861.45705 543.28911 
L 862.6347 546.143284 
L 866.16765 546.142754 
L 867.3453 548.832135 
L 870.87825 548.833061 
L 872.0559 551.863686 
L 875.58885 551.863249 
L 876.7665 554.514605 
L 880.29945 554.514881 
L 881.4771 557.701114 
L 885.01005 557.701089 
L 886.1877 560.764384 
L 889.72065 560.764121 
L 890.8983 563.860406 
L 894.43125 563.860562 
L 895.6089 567.147363 
L 899.14185 567.147254 
L 900.3195 570.307085 
L 903.85245 570.304011 
L 905.0301 573.171668 
L 908.56305 573.171328 
L 909.7407 576.391099 
L 913.27365 576.39053 
L 914.4513 579.535729 
L 917.98425 579.535811 
L 919.1619 582.312592 
L 922.69485 582.312136 
L 923.8725 585.324506 
L 927.40545 585.315745 
L 928.5831 588.073027 
L 932.11605 588.073486 
L 933.2937 591.210008 
L 936.82665 591.208881 
L 938.0043 594.256228 
L 941.53725 594.257755 
L 942.7149 597.258001 
L 946.24785 597.261323 
L 947.4255 600.039142 
L 950.95845 600.039301 
L 952.1361 603.668907 
L 955.66905 603.66881 
L 956.8467 607.027271 
L 960.37965 607.027323 
L 961.5573 609.984242 
L 965.09025 609.984456 
L 966.2679 613.331951 
L 969.80085 613.334069 
L 970.9785 616.438646 
L 974.51145 616.44027 
L 975.6891 619.292694 
L 979.22205 619.291262 
L 980.3997 622.589363 
L 983.93265 622.588707 
L 985.1103 625.916775 
L 988.64325 625.916787 
L 989.8209 628.990353 
L 990.99855 628.993227 
L 992.1762 629.277095 
L 993.35385 629.277852 
L 994.5315 631.200341 
L 995.70915 631.201079 
L 996.8868 632.376865 
L 998.06445 632.377161 
L 999.2421 633.451535 
L 1000.41975 633.455028 
L 1001.5974 635.665702 
L 1002.77505 635.664103 
L 1003.9527 635.368345 
L 1005.13035 635.371092 
L 1006.308 638.377647 
L 1007.48565 638.3868 
L 1008.6633 638.75458 
L 1009.84095 638.754596 
L 1011.0186 640.723009 
L 1012.19625 640.724374 
L 1013.3739 642.28989 
L 1014.55155 642.289755 
L 1015.7292 643.332938 
L 1016.90685 643.327841 
L 1018.0845 645.902658 
L 1021.61745 645.86568 
L 1022.7951 648.721785 
L 1023.97275 648.721256 
L 1025.1504 649.327692 
L 1026.32805 649.45969 
L 1027.5057 650.67352 
L 1028.68335 650.67258 
L 1029.861 652.023203 
L 1031.03865 652.407339 
L 1032.2163 653.060221 
L 1033.39395 653.059237 
L 1034.5716 655.754521 
L 1035.74925 656.141246 
L 1038.10455 656.032489 
L 1039.2822 658.190183 
L 1042.81515 658.188736 
L 1043.9928 660.73458 
L 1047.52575 660.73523 
L 1048.7034 663.48079 
L 1052.23635 663.475011 
L 1053.414 665.63623 
L 1056.94695 665.639475 
L 1058.1246 667.949897 
L 1061.65755 667.959087 
L 1062.8352 669.481296 
L 1066.36815 669.480362 
L 1067.5458 671.134297 
L 1071.07875 671.133698 
L 1072.2564 673.073908 
L 1075.78935 673.067227 
L 1076.967 674.899897 
L 1080.49995 674.908306 
L 1081.6776 676.325562 
L 1085.21055 676.321822 
L 1086.3882 677.230606 
L 1089.92115 677.225671 
L 1091.0988 678.341191 
L 1094.63175 678.435798 
L 1095.8094 678.74116 
L 1096.98705 678.736133 
L 1098.1647 679.020403 
L 1099.34235 679.020387 
L 1100.52 679.272022 
L 1101.69765 679.271932 
L 1102.8753 679.759714 
L 1106.40825 679.719042 
L 1107.5859 679.971716 
L 1111.11885 679.995108 
L 1112.2965 680.191037 
L 1113.47415 680.191532 
L 1114.6518 680.76015 
L 1115.82945 680.75931 
L 1117.0071 680.98879 
L 1118.18475 680.99565 
L 1119.3624 681.193894 
L 1122.89535 681.140521 
L 1128.7836 680.91703 
L 1134.67185 680.978678 
L 1135.8495 681.218751 
L 1151.15895 681.170116 
L 1152.3366 680.982778 
L 1158.22485 681.051588 
L 1159.4025 681.521601 
L 1160.58015 681.521686 
L 1161.7578 681.686943 
L 1162.93545 681.696117 
L 1164.1131 681.514942 
L 1165.29075 681.516482 
L 1166.4684 681.706375 
L 1167.64605 681.700482 
L 1168.8237 681.900021 
L 1174.71195 681.949112 
L 1175.8896 682.268898 
L 1177.06725 682.268782 
L 1178.2449 681.921868 
L 1179.42255 681.918071 
L 1180.6002 682.126813 
L 1184.13315 682.080596 
L 1185.3108 681.810666 
L 1191.19905 681.91065 
L 1200.62025 681.708096 
L 1201.7979 681.888821 
L 1205.33085 681.892655 
L 1206.5085 681.624993 
L 1212.39675 681.634016 
L 1213.5744 681.864733 
L 1214.75205 681.866314 
L 1215.9297 681.991728 
L 1217.10735 681.994391 
L 1218.285 682.140368 
L 1219.46265 682.143129 
L 1220.6403 681.79286 
L 1221.81795 681.791682 
L 1222.9956 681.517261 
L 1226.52855 681.402447 
L 1227.7062 681.251017 
L 1233.59445 681.264277 
L 1234.7721 681.397472 
L 1235.94975 681.398229 
L 1237.1274 681.270596 
L 1238.30505 681.2748 
L 1239.4827 681.52685 
L 1243.01565 681.619339 
L 1244.1933 681.814333 
L 1247.72625 681.87958 
L 1250.08155 681.951913 
L 1251.2592 681.43835 
L 1252.43685 681.43899 
L 1253.6145 681.649459 
L 1259.50275 681.661553 
L 1261.85805 681.675015 
L 1263.0357 681.808092 
L 1266.56865 681.869166 
L 1268.92395 681.93909 
L 1271.27925 681.846699 
L 1272.4569 682.032338 
L 1278.34515 681.98335 
L 1279.5228 682.14046 
L 1280.70045 682.161059 
L 1281.8781 682.029668 
L 1283.05575 682.030432 
L 1284.2334 681.73394 
L 1290.12165 681.678723 
L 1292.47695 681.767406 
L 1293.6546 681.648934 
L 1294.83225 681.662344 
L 1296.0099 681.513876 
L 1297.18755 681.514297 
L 1298.3652 681.213962 
L 1299.54285 681.210056 
L 1300.7205 681.063581 
L 1301.89815 681.05912 
L 1303.0758 680.751243 
L 1308.96405 680.874716 
L 1310.1417 681.030827 
L 1311.31935 681.328296 
L 1313.67465 681.378004 
L 1314.8523 681.603383 
L 1323.09585 681.549318 
L 1324.2735 681.267934 
L 1325.45115 681.277848 
L 1326.6288 681.096225 
L 1330.16175 681.145428 
L 1331.3394 681.400327 
L 1333.6947 681.371585 
L 1334.87235 681.133143 
L 1336.05 681.072176 
L 1336.05 681.072176 
" style="fill:none;stroke:#008000;stroke-linecap:square;stroke-width:2.0;"/>
   </g>
   <g id="patch_3">
    <path d="M 158.4 51.3 
L 1336.05 51.3 
" style="fill:none;stroke:#000000;stroke-linecap:square;stroke-linejoin:miter;"/>
   </g>
   <g id="patch_4">
    <path d="M 1336.05 747 
L 1336.05 51.3 
" style="fill:none;stroke:#000000;stroke-linecap:square;stroke-linejoin:miter;"/>
   </g>
   <g id="patch_5">
    <path d="M 158.4 747 
L 1336.05 747 
" style="fill:none;stroke:#000000;stroke-linecap:square;stroke-linejoin:miter;"/>
   </g>
   <g id="patch_6">
    <path d="M 158.4 747 
L 158.4 51.3 
" style="fill:none;stroke:#000000;stroke-linecap:square;stroke-linejoin:miter;"/>
   </g>
   <g id="matplotlib.axis_1">
    <g id="xtick_1">
     <g id="line2d_3">
      <defs>
       <path d="M 0 0 
L 0 -4 
" id="m4071f5e338" style="stroke:#000000;stroke-width:0.5;"/>
      </defs>
      <g>
       <use style="stroke:#000000;stroke-width:0.5;" x="158.4" xlink:href="#m4071f5e338" y="747.0"/>
      </g>
     </g>
     <g id="line2d_4">
      <defs>
       <path d="M 0 0 
L 0 4 
" id="m04732b87f0" style="stroke:#000000;stroke-width:0.5;"/>
      </defs>
      <g>
       <use style="stroke:#000000;stroke-width:0.5;" x="158.4" xlink:href="#m04732b87f0" y="51.3"/>
      </g>
     </g>
     <g id="text_1">
      <!-- 0 -->
      <defs>
       <path d="M 31.78125 66.40625 
Q 24.171875 66.40625 20.328125 58.90625 
Q 16.5 51.421875 16.5 36.375 
Q 16.5 21.390625 20.328125 13.890625 
Q 24.171875 6.390625 31.78125 6.390625 
Q 39.453125 6.390625 43.28125 13.890625 
Q 47.125 21.390625 47.125 36.375 
Q 47.125 51.421875 43.28125 58.90625 
Q 39.453125 66.40625 31.78125 66.40625 
M 31.78125 74.21875 
Q 44.046875 74.21875 50.515625 64.515625 
Q 56.984375 54.828125 56.984375 36.375 
Q 56.984375 17.96875 50.515625 8.265625 
Q 44.046875 -1.421875 31.78125 -1.421875 
Q 19.53125 -1.421875 13.0625 8.265625 
Q 6.59375 17.96875 6.59375 36.375 
Q 6.59375 54.828125 13.0625 64.515625 
Q 19.53125 74.21875 31.78125 74.21875 
" id="BitstreamVeraSans-Roman-30"/>
      </defs>
      <g transform="translate(148.85625 773.7953125)scale(0.3 -0.3)">
       <use xlink:href="#BitstreamVeraSans-Roman-30"/>
      </g>
     </g>
    </g>
    <g id="xtick_2">
     <g id="line2d_5">
      <g>
       <use style="stroke:#000000;stroke-width:0.5;" x="393.93" xlink:href="#m4071f5e338" y="747.0"/>
      </g>
     </g>
     <g id="line2d_6">
      <g>
       <use style="stroke:#000000;stroke-width:0.5;" x="393.93" xlink:href="#m04732b87f0" y="51.3"/>
      </g>
     </g>
     <g id="text_2">
      <!-- 20000 -->
      <defs>
       <path d="M 19.1875 8.296875 
L 53.609375 8.296875 
L 53.609375 0 
L 7.328125 0 
L 7.328125 8.296875 
Q 12.9375 14.109375 22.625 23.890625 
Q 32.328125 33.6875 34.8125 36.53125 
Q 39.546875 41.84375 41.421875 45.53125 
Q 43.3125 49.21875 43.3125 52.78125 
Q 43.3125 58.59375 39.234375 62.25 
Q 35.15625 65.921875 28.609375 65.921875 
Q 23.96875 65.921875 18.8125 64.3125 
Q 13.671875 62.703125 7.8125 59.421875 
L 7.8125 69.390625 
Q 13.765625 71.78125 18.9375 73 
Q 24.125 74.21875 28.421875 74.21875 
Q 39.75 74.21875 46.484375 68.546875 
Q 53.21875 62.890625 53.21875 53.421875 
Q 53.21875 48.921875 51.53125 44.890625 
Q 49.859375 40.875 45.40625 35.40625 
Q 44.1875 33.984375 37.640625 27.21875 
Q 31.109375 20.453125 19.1875 8.296875 
" id="BitstreamVeraSans-Roman-32"/>
      </defs>
      <g transform="translate(346.21125 773.7953125)scale(0.3 -0.3)">
       <use xlink:href="#BitstreamVeraSans-Roman-32"/>
       <use x="63.623046875" xlink:href="#BitstreamVeraSans-Roman-30"/>
       <use x="127.24609375" xlink:href="#BitstreamVeraSans-Roman-30"/>
       <use x="190.869140625" xlink:href="#BitstreamVeraSans-Roman-30"/>
       <use x="254.4921875" xlink:href="#BitstreamVeraSans-Roman-30"/>
      </g>
     </g>
    </g>
    <g id="xtick_3">
     <g id="line2d_7">
      <g>
       <use style="stroke:#000000;stroke-width:0.5;" x="629.46" xlink:href="#m4071f5e338" y="747.0"/>
      </g>
     </g>
     <g id="line2d_8">
      <g>
       <use style="stroke:#000000;stroke-width:0.5;" x="629.46" xlink:href="#m04732b87f0" y="51.3"/>
      </g>
     </g>
     <g id="text_3">
      <!-- 40000 -->
      <defs>
       <path d="M 37.796875 64.3125 
L 12.890625 25.390625 
L 37.796875 25.390625 
z
M 35.203125 72.90625 
L 47.609375 72.90625 
L 47.609375 25.390625 
L 58.015625 25.390625 
L 58.015625 17.1875 
L 47.609375 17.1875 
L 47.609375 0 
L 37.796875 0 
L 37.796875 17.1875 
L 4.890625 17.1875 
L 4.890625 26.703125 
z
" id="BitstreamVeraSans-Roman-34"/>
      </defs>
      <g transform="translate(581.74125 773.7953125)scale(0.3 -0.3)">
       <use xlink:href="#BitstreamVeraSans-Roman-34"/>
       <use x="63.623046875" xlink:href="#BitstreamVeraSans-Roman-30"/>
       <use x="127.24609375" xlink:href="#BitstreamVeraSans-Roman-30"/>
       <use x="190.869140625" xlink:href="#BitstreamVeraSans-Roman-30"/>
       <use x="254.4921875" xlink:href="#BitstreamVeraSans-Roman-30"/>
      </g>
     </g>
    </g>
    <g id="xtick_4">
     <g id="line2d_9">
      <g>
       <use style="stroke:#000000;stroke-width:0.5;" x="864.99" xlink:href="#m4071f5e338" y="747.0"/>
      </g>
     </g>
     <g id="line2d_10">
      <g>
       <use style="stroke:#000000;stroke-width:0.5;" x="864.99" xlink:href="#m04732b87f0" y="51.3"/>
      </g>
     </g>
     <g id="text_4">
      <!-- 60000 -->
      <defs>
       <path d="M 33.015625 40.375 
Q 26.375 40.375 22.484375 35.828125 
Q 18.609375 31.296875 18.609375 23.390625 
Q 18.609375 15.53125 22.484375 10.953125 
Q 26.375 6.390625 33.015625 6.390625 
Q 39.65625 6.390625 43.53125 10.953125 
Q 47.40625 15.53125 47.40625 23.390625 
Q 47.40625 31.296875 43.53125 35.828125 
Q 39.65625 40.375 33.015625 40.375 
M 52.59375 71.296875 
L 52.59375 62.3125 
Q 48.875 64.0625 45.09375 64.984375 
Q 41.3125 65.921875 37.59375 65.921875 
Q 27.828125 65.921875 22.671875 59.328125 
Q 17.53125 52.734375 16.796875 39.40625 
Q 19.671875 43.65625 24.015625 45.921875 
Q 28.375 48.1875 33.59375 48.1875 
Q 44.578125 48.1875 50.953125 41.515625 
Q 57.328125 34.859375 57.328125 23.390625 
Q 57.328125 12.15625 50.6875 5.359375 
Q 44.046875 -1.421875 33.015625 -1.421875 
Q 20.359375 -1.421875 13.671875 8.265625 
Q 6.984375 17.96875 6.984375 36.375 
Q 6.984375 53.65625 15.1875 63.9375 
Q 23.390625 74.21875 37.203125 74.21875 
Q 40.921875 74.21875 44.703125 73.484375 
Q 48.484375 72.75 52.59375 71.296875 
" id="BitstreamVeraSans-Roman-36"/>
      </defs>
      <g transform="translate(817.27125 773.7953125)scale(0.3 -0.3)">
       <use xlink:href="#BitstreamVeraSans-Roman-36"/>
       <use x="63.623046875" xlink:href="#BitstreamVeraSans-Roman-30"/>
       <use x="127.24609375" xlink:href="#BitstreamVeraSans-Roman-30"/>
       <use x="190.869140625" xlink:href="#BitstreamVeraSans-Roman-30"/>
       <use x="254.4921875" xlink:href="#BitstreamVeraSans-Roman-30"/>
      </g>
     </g>
    </g>
    <g id="xtick_5">
     <g id="line2d_11">
      <g>
       <use style="stroke:#000000;stroke-width:0.5;" x="1100.52" xlink:href="#m4071f5e338" y="747.0"/>
      </g>
     </g>
     <g id="line2d_12">
      <g>
       <use style="stroke:#000000;stroke-width:0.5;" x="1100.52" xlink:href="#m04732b87f0" y="51.3"/>
      </g>
     </g>
     <g id="text_5">
      <!-- 80000 -->
      <defs>
       <path d="M 31.78125 34.625 
Q 24.75 34.625 20.71875 30.859375 
Q 16.703125 27.09375 16.703125 20.515625 
Q 16.703125 13.921875 20.71875 10.15625 
Q 24.75 6.390625 31.78125 6.390625 
Q 38.8125 6.390625 42.859375 10.171875 
Q 46.921875 13.96875 46.921875 20.515625 
Q 46.921875 27.09375 42.890625 30.859375 
Q 38.875 34.625 31.78125 34.625 
M 21.921875 38.8125 
Q 15.578125 40.375 12.03125 44.71875 
Q 8.5 49.078125 8.5 55.328125 
Q 8.5 64.0625 14.71875 69.140625 
Q 20.953125 74.21875 31.78125 74.21875 
Q 42.671875 74.21875 48.875 69.140625 
Q 55.078125 64.0625 55.078125 55.328125 
Q 55.078125 49.078125 51.53125 44.71875 
Q 48 40.375 41.703125 38.8125 
Q 48.828125 37.15625 52.796875 32.3125 
Q 56.78125 27.484375 56.78125 20.515625 
Q 56.78125 9.90625 50.3125 4.234375 
Q 43.84375 -1.421875 31.78125 -1.421875 
Q 19.734375 -1.421875 13.25 4.234375 
Q 6.78125 9.90625 6.78125 20.515625 
Q 6.78125 27.484375 10.78125 32.3125 
Q 14.796875 37.15625 21.921875 38.8125 
M 18.3125 54.390625 
Q 18.3125 48.734375 21.84375 45.5625 
Q 25.390625 42.390625 31.78125 42.390625 
Q 38.140625 42.390625 41.71875 45.5625 
Q 45.3125 48.734375 45.3125 54.390625 
Q 45.3125 60.0625 41.71875 63.234375 
Q 38.140625 66.40625 31.78125 66.40625 
Q 25.390625 66.40625 21.84375 63.234375 
Q 18.3125 60.0625 18.3125 54.390625 
" id="BitstreamVeraSans-Roman-38"/>
      </defs>
      <g transform="translate(1052.80125 773.7953125)scale(0.3 -0.3)">
       <use xlink:href="#BitstreamVeraSans-Roman-38"/>
       <use x="63.623046875" xlink:href="#BitstreamVeraSans-Roman-30"/>
       <use x="127.24609375" xlink:href="#BitstreamVeraSans-Roman-30"/>
       <use x="190.869140625" xlink:href="#BitstreamVeraSans-Roman-30"/>
       <use x="254.4921875" xlink:href="#BitstreamVeraSans-Roman-30"/>
      </g>
     </g>
    </g>
    <g id="xtick_6">
     <g id="line2d_13">
      <g>
       <use style="stroke:#000000;stroke-width:0.5;" x="1336.05" xlink:href="#m4071f5e338" y="747.0"/>
      </g>
     </g>
     <g id="line2d_14">
      <g>
       <use style="stroke:#000000;stroke-width:0.5;" x="1336.05" xlink:href="#m04732b87f0" y="51.3"/>
      </g>
     </g>
     <g id="text_6">
      <!-- 100000 -->
      <defs>
       <path d="M 12.40625 8.296875 
L 28.515625 8.296875 
L 28.515625 63.921875 
L 10.984375 60.40625 
L 10.984375 69.390625 
L 28.421875 72.90625 
L 38.28125 72.90625 
L 38.28125 8.296875 
L 54.390625 8.296875 
L 54.390625 0 
L 12.40625 0 
z
" id="BitstreamVeraSans-Roman-31"/>
      </defs>
      <g transform="translate(1278.7875 773.7953125)scale(0.3 -0.3)">
       <use xlink:href="#BitstreamVeraSans-Roman-31"/>
       <use x="63.623046875" xlink:href="#BitstreamVeraSans-Roman-30"/>
       <use x="127.24609375" xlink:href="#BitstreamVeraSans-Roman-30"/>
       <use x="190.869140625" xlink:href="#BitstreamVeraSans-Roman-30"/>
       <use x="254.4921875" xlink:href="#BitstreamVeraSans-Roman-30"/>
       <use x="318.115234375" xlink:href="#BitstreamVeraSans-Roman-30"/>
      </g>
     </g>
    </g>
    <g id="text_7">
     <!-- iterations -->
     <defs>
      <path d="M 54.890625 33.015625 
L 54.890625 0 
L 45.90625 0 
L 45.90625 32.71875 
Q 45.90625 40.484375 42.875 44.328125 
Q 39.84375 48.1875 33.796875 48.1875 
Q 26.515625 48.1875 22.3125 43.546875 
Q 18.109375 38.921875 18.109375 30.90625 
L 18.109375 0 
L 9.078125 0 
L 9.078125 54.6875 
L 18.109375 54.6875 
L 18.109375 46.1875 
Q 21.34375 51.125 25.703125 53.5625 
Q 30.078125 56 35.796875 56 
Q 45.21875 56 50.046875 50.171875 
Q 54.890625 44.34375 54.890625 33.015625 
" id="BitstreamVeraSans-Roman-6e"/>
      <path d="M 34.28125 27.484375 
Q 23.390625 27.484375 19.1875 25 
Q 14.984375 22.515625 14.984375 16.5 
Q 14.984375 11.71875 18.140625 8.90625 
Q 21.296875 6.109375 26.703125 6.109375 
Q 34.1875 6.109375 38.703125 11.40625 
Q 43.21875 16.703125 43.21875 25.484375 
L 43.21875 27.484375 
z
M 52.203125 31.203125 
L 52.203125 0 
L 43.21875 0 
L 43.21875 8.296875 
Q 40.140625 3.328125 35.546875 0.953125 
Q 30.953125 -1.421875 24.3125 -1.421875 
Q 15.921875 -1.421875 10.953125 3.296875 
Q 6 8.015625 6 15.921875 
Q 6 25.140625 12.171875 29.828125 
Q 18.359375 34.515625 30.609375 34.515625 
L 43.21875 34.515625 
L 43.21875 35.40625 
Q 43.21875 41.609375 39.140625 45 
Q 35.0625 48.390625 27.6875 48.390625 
Q 23 48.390625 18.546875 47.265625 
Q 14.109375 46.140625 10.015625 43.890625 
L 10.015625 52.203125 
Q 14.9375 54.109375 19.578125 55.046875 
Q 24.21875 56 28.609375 56 
Q 40.484375 56 46.34375 49.84375 
Q 52.203125 43.703125 52.203125 31.203125 
" id="BitstreamVeraSans-Roman-61"/>
      <path d="M 30.609375 48.390625 
Q 23.390625 48.390625 19.1875 42.75 
Q 14.984375 37.109375 14.984375 27.296875 
Q 14.984375 17.484375 19.15625 11.84375 
Q 23.34375 6.203125 30.609375 6.203125 
Q 37.796875 6.203125 41.984375 11.859375 
Q 46.1875 17.53125 46.1875 27.296875 
Q 46.1875 37.015625 41.984375 42.703125 
Q 37.796875 48.390625 30.609375 48.390625 
M 30.609375 56 
Q 42.328125 56 49.015625 48.375 
Q 55.71875 40.765625 55.71875 27.296875 
Q 55.71875 13.875 49.015625 6.21875 
Q 42.328125 -1.421875 30.609375 -1.421875 
Q 18.84375 -1.421875 12.171875 6.21875 
Q 5.515625 13.875 5.515625 27.296875 
Q 5.515625 40.765625 12.171875 48.375 
Q 18.84375 56 30.609375 56 
" id="BitstreamVeraSans-Roman-6f"/>
      <path d="M 9.421875 54.6875 
L 18.40625 54.6875 
L 18.40625 0 
L 9.421875 0 
z
M 9.421875 75.984375 
L 18.40625 75.984375 
L 18.40625 64.59375 
L 9.421875 64.59375 
z
" id="BitstreamVeraSans-Roman-69"/>
      <path d="M 56.203125 29.59375 
L 56.203125 25.203125 
L 14.890625 25.203125 
Q 15.484375 15.921875 20.484375 11.0625 
Q 25.484375 6.203125 34.421875 6.203125 
Q 39.59375 6.203125 44.453125 7.46875 
Q 49.3125 8.734375 54.109375 11.28125 
L 54.109375 2.78125 
Q 49.265625 0.734375 44.1875 -0.34375 
Q 39.109375 -1.421875 33.890625 -1.421875 
Q 20.796875 -1.421875 13.15625 6.1875 
Q 5.515625 13.8125 5.515625 26.8125 
Q 5.515625 40.234375 12.765625 48.109375 
Q 20.015625 56 32.328125 56 
Q 43.359375 56 49.78125 48.890625 
Q 56.203125 41.796875 56.203125 29.59375 
M 47.21875 32.234375 
Q 47.125 39.59375 43.09375 43.984375 
Q 39.0625 48.390625 32.421875 48.390625 
Q 24.90625 48.390625 20.390625 44.140625 
Q 15.875 39.890625 15.1875 32.171875 
z
" id="BitstreamVeraSans-Roman-65"/>
      <path d="M 18.3125 70.21875 
L 18.3125 54.6875 
L 36.8125 54.6875 
L 36.8125 47.703125 
L 18.3125 47.703125 
L 18.3125 18.015625 
Q 18.3125 11.328125 20.140625 9.421875 
Q 21.96875 7.515625 27.59375 7.515625 
L 36.8125 7.515625 
L 36.8125 0 
L 27.59375 0 
Q 17.1875 0 13.234375 3.875 
Q 9.28125 7.765625 9.28125 18.015625 
L 9.28125 47.703125 
L 2.6875 47.703125 
L 2.6875 54.6875 
L 9.28125 54.6875 
L 9.28125 70.21875 
z
" id="BitstreamVeraSans-Roman-74"/>
      <path d="M 41.109375 46.296875 
Q 39.59375 47.171875 37.8125 47.578125 
Q 36.03125 48 33.890625 48 
Q 26.265625 48 22.1875 43.046875 
Q 18.109375 38.09375 18.109375 28.8125 
L 18.109375 0 
L 9.078125 0 
L 9.078125 54.6875 
L 18.109375 54.6875 
L 18.109375 46.1875 
Q 20.953125 51.171875 25.484375 53.578125 
Q 30.03125 56 36.53125 56 
Q 37.453125 56 38.578125 55.875 
Q 39.703125 55.765625 41.0625 55.515625 
z
" id="BitstreamVeraSans-Roman-72"/>
      <path d="M 44.28125 53.078125 
L 44.28125 44.578125 
Q 40.484375 46.53125 36.375 47.5 
Q 32.28125 48.484375 27.875 48.484375 
Q 21.1875 48.484375 17.84375 46.4375 
Q 14.5 44.390625 14.5 40.28125 
Q 14.5 37.15625 16.890625 35.375 
Q 19.28125 33.59375 26.515625 31.984375 
L 29.59375 31.296875 
Q 39.15625 29.25 43.1875 25.515625 
Q 47.21875 21.78125 47.21875 15.09375 
Q 47.21875 7.46875 41.1875 3.015625 
Q 35.15625 -1.421875 24.609375 -1.421875 
Q 20.21875 -1.421875 15.453125 -0.5625 
Q 10.6875 0.296875 5.421875 2 
L 5.421875 11.28125 
Q 10.40625 8.6875 15.234375 7.390625 
Q 20.0625 6.109375 24.8125 6.109375 
Q 31.15625 6.109375 34.5625 8.28125 
Q 37.984375 10.453125 37.984375 14.40625 
Q 37.984375 18.0625 35.515625 20.015625 
Q 33.0625 21.96875 24.703125 23.78125 
L 21.578125 24.515625 
Q 13.234375 26.265625 9.515625 29.90625 
Q 5.8125 33.546875 5.8125 39.890625 
Q 5.8125 47.609375 11.28125 51.796875 
Q 16.75 56 26.8125 56 
Q 31.78125 56 36.171875 55.265625 
Q 40.578125 54.546875 44.28125 53.078125 
" id="BitstreamVeraSans-Roman-73"/>
     </defs>
     <g transform="translate(676.04296875 807.8296875)scale(0.3 -0.3)">
      <use xlink:href="#BitstreamVeraSans-Roman-69"/>
      <use x="27.783203125" xlink:href="#BitstreamVeraSans-Roman-74"/>
      <use x="66.9921875" xlink:href="#BitstreamVeraSans-Roman-65"/>
      <use x="128.515625" xlink:href="#BitstreamVeraSans-Roman-72"/>
      <use x="169.62890625" xlink:href="#BitstreamVeraSans-Roman-61"/>
      <use x="230.908203125" xlink:href="#BitstreamVeraSans-Roman-74"/>
      <use x="270.1171875" xlink:href="#BitstreamVeraSans-Roman-69"/>
      <use x="297.900390625" xlink:href="#BitstreamVeraSans-Roman-6f"/>
      <use x="359.08203125" xlink:href="#BitstreamVeraSans-Roman-6e"/>
      <use x="422.4609375" xlink:href="#BitstreamVeraSans-Roman-73"/>
     </g>
    </g>
   </g>
   <g id="matplotlib.axis_2">
    <g id="ytick_1">
     <g id="line2d_15">
      <defs>
       <path d="M 0 0 
L 4 0 
" id="me2ebdeea5f" style="stroke:#000000;stroke-width:0.5;"/>
      </defs>
      <g>
       <use style="stroke:#000000;stroke-width:0.5;" x="158.4" xlink:href="#me2ebdeea5f" y="747.0"/>
      </g>
     </g>
     <g id="line2d_16">
      <defs>
       <path d="M 0 0 
L -4 0 
" id="m5b4d5b8681" style="stroke:#000000;stroke-width:0.5;"/>
      </defs>
      <g>
       <use style="stroke:#000000;stroke-width:0.5;" x="1336.05" xlink:href="#m5b4d5b8681" y="747.0"/>
      </g>
     </g>
     <g id="text_8">
      <!-- 60 -->
      <defs>
       <path d="M 10.59375 35.5 
L 73.1875 35.5 
L 73.1875 27.203125 
L 10.59375 27.203125 
z
" id="BitstreamVeraSans-Roman-2212"/>
      </defs>
      <g transform="translate(91.0859375 755.278125)scale(0.3 -0.3)">
       <use xlink:href="#BitstreamVeraSans-Roman-2212"/>
       <use x="83.7890625" xlink:href="#BitstreamVeraSans-Roman-36"/>
       <use x="147.412109375" xlink:href="#BitstreamVeraSans-Roman-30"/>
      </g>
     </g>
    </g>
    <g id="ytick_2">
     <g id="line2d_17">
      <g>
       <use style="stroke:#000000;stroke-width:0.5;" x="158.4" xlink:href="#me2ebdeea5f" y="660.0375"/>
      </g>
     </g>
     <g id="line2d_18">
      <g>
       <use style="stroke:#000000;stroke-width:0.5;" x="1336.05" xlink:href="#m5b4d5b8681" y="660.0375"/>
      </g>
     </g>
     <g id="text_9">
      <!-- 50 -->
      <defs>
       <path d="M 10.796875 72.90625 
L 49.515625 72.90625 
L 49.515625 64.59375 
L 19.828125 64.59375 
L 19.828125 46.734375 
Q 21.96875 47.46875 24.109375 47.828125 
Q 26.265625 48.1875 28.421875 48.1875 
Q 40.625 48.1875 47.75 41.5 
Q 54.890625 34.8125 54.890625 23.390625 
Q 54.890625 11.625 47.5625 5.09375 
Q 40.234375 -1.421875 26.90625 -1.421875 
Q 22.3125 -1.421875 17.546875 -0.640625 
Q 12.796875 0.140625 7.71875 1.703125 
L 7.71875 11.625 
Q 12.109375 9.234375 16.796875 8.0625 
Q 21.484375 6.890625 26.703125 6.890625 
Q 35.15625 6.890625 40.078125 11.328125 
Q 45.015625 15.765625 45.015625 23.390625 
Q 45.015625 31 40.078125 35.4375 
Q 35.15625 39.890625 26.703125 39.890625 
Q 22.75 39.890625 18.8125 39.015625 
Q 14.890625 38.140625 10.796875 36.28125 
z
" id="BitstreamVeraSans-Roman-35"/>
      </defs>
      <g transform="translate(91.0859375 668.315625)scale(0.3 -0.3)">
       <use xlink:href="#BitstreamVeraSans-Roman-2212"/>
       <use x="83.7890625" xlink:href="#BitstreamVeraSans-Roman-35"/>
       <use x="147.412109375" xlink:href="#BitstreamVeraSans-Roman-30"/>
      </g>
     </g>
    </g>
    <g id="ytick_3">
     <g id="line2d_19">
      <g>
       <use style="stroke:#000000;stroke-width:0.5;" x="158.4" xlink:href="#me2ebdeea5f" y="573.075"/>
      </g>
     </g>
     <g id="line2d_20">
      <g>
       <use style="stroke:#000000;stroke-width:0.5;" x="1336.05" xlink:href="#m5b4d5b8681" y="573.075"/>
      </g>
     </g>
     <g id="text_10">
      <!-- 40 -->
      <g transform="translate(91.0859375 581.353125)scale(0.3 -0.3)">
       <use xlink:href="#BitstreamVeraSans-Roman-2212"/>
       <use x="83.7890625" xlink:href="#BitstreamVeraSans-Roman-34"/>
       <use x="147.412109375" xlink:href="#BitstreamVeraSans-Roman-30"/>
      </g>
     </g>
    </g>
    <g id="ytick_4">
     <g id="line2d_21">
      <g>
       <use style="stroke:#000000;stroke-width:0.5;" x="158.4" xlink:href="#me2ebdeea5f" y="486.1125"/>
      </g>
     </g>
     <g id="line2d_22">
      <g>
       <use style="stroke:#000000;stroke-width:0.5;" x="1336.05" xlink:href="#m5b4d5b8681" y="486.1125"/>
      </g>
     </g>
     <g id="text_11">
      <!-- 30 -->
      <defs>
       <path d="M 40.578125 39.3125 
Q 47.65625 37.796875 51.625 33 
Q 55.609375 28.21875 55.609375 21.1875 
Q 55.609375 10.40625 48.1875 4.484375 
Q 40.765625 -1.421875 27.09375 -1.421875 
Q 22.515625 -1.421875 17.65625 -0.515625 
Q 12.796875 0.390625 7.625 2.203125 
L 7.625 11.71875 
Q 11.71875 9.328125 16.59375 8.109375 
Q 21.484375 6.890625 26.8125 6.890625 
Q 36.078125 6.890625 40.9375 10.546875 
Q 45.796875 14.203125 45.796875 21.1875 
Q 45.796875 27.640625 41.28125 31.265625 
Q 36.765625 34.90625 28.71875 34.90625 
L 20.21875 34.90625 
L 20.21875 43.015625 
L 29.109375 43.015625 
Q 36.375 43.015625 40.234375 45.921875 
Q 44.09375 48.828125 44.09375 54.296875 
Q 44.09375 59.90625 40.109375 62.90625 
Q 36.140625 65.921875 28.71875 65.921875 
Q 24.65625 65.921875 20.015625 65.03125 
Q 15.375 64.15625 9.8125 62.3125 
L 9.8125 71.09375 
Q 15.4375 72.65625 20.34375 73.4375 
Q 25.25 74.21875 29.59375 74.21875 
Q 40.828125 74.21875 47.359375 69.109375 
Q 53.90625 64.015625 53.90625 55.328125 
Q 53.90625 49.265625 50.4375 45.09375 
Q 46.96875 40.921875 40.578125 39.3125 
" id="BitstreamVeraSans-Roman-33"/>
      </defs>
      <g transform="translate(91.0859375 494.390625)scale(0.3 -0.3)">
       <use xlink:href="#BitstreamVeraSans-Roman-2212"/>
       <use x="83.7890625" xlink:href="#BitstreamVeraSans-Roman-33"/>
       <use x="147.412109375" xlink:href="#BitstreamVeraSans-Roman-30"/>
      </g>
     </g>
    </g>
    <g id="ytick_5">
     <g id="line2d_23">
      <g>
       <use style="stroke:#000000;stroke-width:0.5;" x="158.4" xlink:href="#me2ebdeea5f" y="399.15"/>
      </g>
     </g>
     <g id="line2d_24">
      <g>
       <use style="stroke:#000000;stroke-width:0.5;" x="1336.05" xlink:href="#m5b4d5b8681" y="399.15"/>
      </g>
     </g>
     <g id="text_12">
      <!-- 20 -->
      <g transform="translate(91.0859375 407.428125)scale(0.3 -0.3)">
       <use xlink:href="#BitstreamVeraSans-Roman-2212"/>
       <use x="83.7890625" xlink:href="#BitstreamVeraSans-Roman-32"/>
       <use x="147.412109375" xlink:href="#BitstreamVeraSans-Roman-30"/>
      </g>
     </g>
    </g>
    <g id="ytick_6">
     <g id="line2d_25">
      <g>
       <use style="stroke:#000000;stroke-width:0.5;" x="158.4" xlink:href="#me2ebdeea5f" y="312.1875"/>
      </g>
     </g>
     <g id="line2d_26">
      <g>
       <use style="stroke:#000000;stroke-width:0.5;" x="1336.05" xlink:href="#m5b4d5b8681" y="312.1875"/>
      </g>
     </g>
     <g id="text_13">
      <!-- 10 -->
      <g transform="translate(91.0859375 320.465625)scale(0.3 -0.3)">
       <use xlink:href="#BitstreamVeraSans-Roman-2212"/>
       <use x="83.7890625" xlink:href="#BitstreamVeraSans-Roman-31"/>
       <use x="147.412109375" xlink:href="#BitstreamVeraSans-Roman-30"/>
      </g>
     </g>
    </g>
    <g id="ytick_7">
     <g id="line2d_27">
      <g>
       <use style="stroke:#000000;stroke-width:0.5;" x="158.4" xlink:href="#me2ebdeea5f" y="225.225"/>
      </g>
     </g>
     <g id="line2d_28">
      <g>
       <use style="stroke:#000000;stroke-width:0.5;" x="1336.05" xlink:href="#m5b4d5b8681" y="225.225"/>
      </g>
     </g>
     <g id="text_14">
      <!-- 0 -->
      <g transform="translate(135.3125 233.503125)scale(0.3 -0.3)">
       <use xlink:href="#BitstreamVeraSans-Roman-30"/>
      </g>
     </g>
    </g>
    <g id="ytick_8">
     <g id="line2d_29">
      <g>
       <use style="stroke:#000000;stroke-width:0.5;" x="158.4" xlink:href="#me2ebdeea5f" y="138.2625"/>
      </g>
     </g>
     <g id="line2d_30">
      <g>
       <use style="stroke:#000000;stroke-width:0.5;" x="1336.05" xlink:href="#m5b4d5b8681" y="138.2625"/>
      </g>
     </g>
     <g id="text_15">
      <!-- 10 -->
      <g transform="translate(116.225 146.540625)scale(0.3 -0.3)">
       <use xlink:href="#BitstreamVeraSans-Roman-31"/>
       <use x="63.623046875" xlink:href="#BitstreamVeraSans-Roman-30"/>
      </g>
     </g>
    </g>
    <g id="ytick_9">
     <g id="line2d_31">
      <g>
       <use style="stroke:#000000;stroke-width:0.5;" x="158.4" xlink:href="#me2ebdeea5f" y="51.3"/>
      </g>
     </g>
     <g id="line2d_32">
      <g>
       <use style="stroke:#000000;stroke-width:0.5;" x="1336.05" xlink:href="#m5b4d5b8681" y="51.3"/>
      </g>
     </g>
     <g id="text_16">
      <!-- 20 -->
      <g transform="translate(116.225 59.578125)scale(0.3 -0.3)">
       <use xlink:href="#BitstreamVeraSans-Roman-32"/>
       <use x="63.623046875" xlink:href="#BitstreamVeraSans-Roman-30"/>
      </g>
     </g>
    </g>
    <g id="text_17">
     <!-- log(loss) -->
     <defs>
      <path d="M 8.015625 75.875 
L 15.828125 75.875 
Q 23.140625 64.359375 26.78125 53.3125 
Q 30.421875 42.28125 30.421875 31.390625 
Q 30.421875 20.453125 26.78125 9.375 
Q 23.140625 -1.703125 15.828125 -13.1875 
L 8.015625 -13.1875 
Q 14.5 -2 17.703125 9.0625 
Q 20.90625 20.125 20.90625 31.390625 
Q 20.90625 42.671875 17.703125 53.65625 
Q 14.5 64.65625 8.015625 75.875 
" id="BitstreamVeraSans-Roman-29"/>
      <path d="M 31 75.875 
Q 24.46875 64.65625 21.28125 53.65625 
Q 18.109375 42.671875 18.109375 31.390625 
Q 18.109375 20.125 21.3125 9.0625 
Q 24.515625 -2 31 -13.1875 
L 23.1875 -13.1875 
Q 15.875 -1.703125 12.234375 9.375 
Q 8.59375 20.453125 8.59375 31.390625 
Q 8.59375 42.28125 12.203125 53.3125 
Q 15.828125 64.359375 23.1875 75.875 
z
" id="BitstreamVeraSans-Roman-28"/>
      <path d="M 45.40625 27.984375 
Q 45.40625 37.75 41.375 43.109375 
Q 37.359375 48.484375 30.078125 48.484375 
Q 22.859375 48.484375 18.828125 43.109375 
Q 14.796875 37.75 14.796875 27.984375 
Q 14.796875 18.265625 18.828125 12.890625 
Q 22.859375 7.515625 30.078125 7.515625 
Q 37.359375 7.515625 41.375 12.890625 
Q 45.40625 18.265625 45.40625 27.984375 
M 54.390625 6.78125 
Q 54.390625 -7.171875 48.1875 -13.984375 
Q 42 -20.796875 29.203125 -20.796875 
Q 24.46875 -20.796875 20.265625 -20.09375 
Q 16.0625 -19.390625 12.109375 -17.921875 
L 12.109375 -9.1875 
Q 16.0625 -11.328125 19.921875 -12.34375 
Q 23.78125 -13.375 27.78125 -13.375 
Q 36.625 -13.375 41.015625 -8.765625 
Q 45.40625 -4.15625 45.40625 5.171875 
L 45.40625 9.625 
Q 42.625 4.78125 38.28125 2.390625 
Q 33.9375 0 27.875 0 
Q 17.828125 0 11.671875 7.65625 
Q 5.515625 15.328125 5.515625 27.984375 
Q 5.515625 40.671875 11.671875 48.328125 
Q 17.828125 56 27.875 56 
Q 33.9375 56 38.28125 53.609375 
Q 42.625 51.21875 45.40625 46.390625 
L 45.40625 54.6875 
L 54.390625 54.6875 
z
" id="BitstreamVeraSans-Roman-67"/>
      <path d="M 9.421875 75.984375 
L 18.40625 75.984375 
L 18.40625 0 
L 9.421875 0 
z
" id="BitstreamVeraSans-Roman-6c"/>
     </defs>
     <g transform="translate(79.846875 462.69609375)rotate(-90.0)scale(0.3 -0.3)">
      <use xlink:href="#BitstreamVeraSans-Roman-6c"/>
      <use x="27.783203125" xlink:href="#BitstreamVeraSans-Roman-6f"/>
      <use x="88.96484375" xlink:href="#BitstreamVeraSans-Roman-67"/>
      <use x="152.44140625" xlink:href="#BitstreamVeraSans-Roman-28"/>
      <use x="191.455078125" xlink:href="#BitstreamVeraSans-Roman-6c"/>
      <use x="219.23828125" xlink:href="#BitstreamVeraSans-Roman-6f"/>
      <use x="280.419921875" xlink:href="#BitstreamVeraSans-Roman-73"/>
      <use x="332.51953125" xlink:href="#BitstreamVeraSans-Roman-73"/>
      <use x="384.619140625" xlink:href="#BitstreamVeraSans-Roman-29"/>
     </g>
    </g>
   </g>
   <g id="legend_1">
    <g id="patch_7">
     <path d="M 843.876562 163.36875 
L 1321.05 163.36875 
L 1321.05 66.3 
L 843.876562 66.3 
z
" style="fill:#ffffff;stroke:#000000;stroke-linejoin:miter;"/>
    </g>
    <g id="line2d_33">
     <path d="M 864.876562 90.595312 
L 906.876562 90.595312 
" style="fill:none;stroke:#0000ff;stroke-linecap:square;stroke-width:2.0;"/>
    </g>
    <g id="line2d_34"/>
    <g id="text_18">
     <!-- random: step=0.000625 -->
     <defs>
      <path id="BitstreamVeraSans-Roman-20"/>
      <path d="M 52 44.1875 
Q 55.375 50.25 60.0625 53.125 
Q 64.75 56 71.09375 56 
Q 79.640625 56 84.28125 50.015625 
Q 88.921875 44.046875 88.921875 33.015625 
L 88.921875 0 
L 79.890625 0 
L 79.890625 32.71875 
Q 79.890625 40.578125 77.09375 44.375 
Q 74.3125 48.1875 68.609375 48.1875 
Q 61.625 48.1875 57.5625 43.546875 
Q 53.515625 38.921875 53.515625 30.90625 
L 53.515625 0 
L 44.484375 0 
L 44.484375 32.71875 
Q 44.484375 40.625 41.703125 44.40625 
Q 38.921875 48.1875 33.109375 48.1875 
Q 26.21875 48.1875 22.15625 43.53125 
Q 18.109375 38.875 18.109375 30.90625 
L 18.109375 0 
L 9.078125 0 
L 9.078125 54.6875 
L 18.109375 54.6875 
L 18.109375 46.1875 
Q 21.1875 51.21875 25.484375 53.609375 
Q 29.78125 56 35.6875 56 
Q 41.65625 56 45.828125 52.96875 
Q 50 49.953125 52 44.1875 
" id="BitstreamVeraSans-Roman-6d"/>
      <path d="M 11.71875 12.40625 
L 22.015625 12.40625 
L 22.015625 0 
L 11.71875 0 
z
M 11.71875 51.703125 
L 22.015625 51.703125 
L 22.015625 39.3125 
L 11.71875 39.3125 
z
" id="BitstreamVeraSans-Roman-3a"/>
      <path d="M 10.6875 12.40625 
L 21 12.40625 
L 21 0 
L 10.6875 0 
z
" id="BitstreamVeraSans-Roman-2e"/>
      <path d="M 10.59375 45.40625 
L 73.1875 45.40625 
L 73.1875 37.203125 
L 10.59375 37.203125 
z
M 10.59375 25.484375 
L 73.1875 25.484375 
L 73.1875 17.1875 
L 10.59375 17.1875 
z
" id="BitstreamVeraSans-Roman-3d"/>
      <path d="M 45.40625 46.390625 
L 45.40625 75.984375 
L 54.390625 75.984375 
L 54.390625 0 
L 45.40625 0 
L 45.40625 8.203125 
Q 42.578125 3.328125 38.25 0.953125 
Q 33.9375 -1.421875 27.875 -1.421875 
Q 17.96875 -1.421875 11.734375 6.484375 
Q 5.515625 14.40625 5.515625 27.296875 
Q 5.515625 40.1875 11.734375 48.09375 
Q 17.96875 56 27.875 56 
Q 33.9375 56 38.25 53.625 
Q 42.578125 51.265625 45.40625 46.390625 
M 14.796875 27.296875 
Q 14.796875 17.390625 18.875 11.75 
Q 22.953125 6.109375 30.078125 6.109375 
Q 37.203125 6.109375 41.296875 11.75 
Q 45.40625 17.390625 45.40625 27.296875 
Q 45.40625 37.203125 41.296875 42.84375 
Q 37.203125 48.484375 30.078125 48.484375 
Q 22.953125 48.484375 18.875 42.84375 
Q 14.796875 37.203125 14.796875 27.296875 
" id="BitstreamVeraSans-Roman-64"/>
      <path d="M 18.109375 8.203125 
L 18.109375 -20.796875 
L 9.078125 -20.796875 
L 9.078125 54.6875 
L 18.109375 54.6875 
L 18.109375 46.390625 
Q 20.953125 51.265625 25.265625 53.625 
Q 29.59375 56 35.59375 56 
Q 45.5625 56 51.78125 48.09375 
Q 58.015625 40.1875 58.015625 27.296875 
Q 58.015625 14.40625 51.78125 6.484375 
Q 45.5625 -1.421875 35.59375 -1.421875 
Q 29.59375 -1.421875 25.265625 0.953125 
Q 20.953125 3.328125 18.109375 8.203125 
M 48.6875 27.296875 
Q 48.6875 37.203125 44.609375 42.84375 
Q 40.53125 48.484375 33.40625 48.484375 
Q 26.265625 48.484375 22.1875 42.84375 
Q 18.109375 37.203125 18.109375 27.296875 
Q 18.109375 17.390625 22.1875 11.75 
Q 26.265625 6.109375 33.40625 6.109375 
Q 40.53125 6.109375 44.609375 11.75 
Q 48.6875 17.390625 48.6875 27.296875 
" id="BitstreamVeraSans-Roman-70"/>
     </defs>
     <g transform="translate(939.8765625 101.0953125)scale(0.3 -0.3)">
      <use xlink:href="#BitstreamVeraSans-Roman-72"/>
      <use x="41.11328125" xlink:href="#BitstreamVeraSans-Roman-61"/>
      <use x="102.392578125" xlink:href="#BitstreamVeraSans-Roman-6e"/>
      <use x="165.771484375" xlink:href="#BitstreamVeraSans-Roman-64"/>
      <use x="229.248046875" xlink:href="#BitstreamVeraSans-Roman-6f"/>
      <use x="290.4296875" xlink:href="#BitstreamVeraSans-Roman-6d"/>
      <use x="387.841796875" xlink:href="#BitstreamVeraSans-Roman-3a"/>
      <use x="421.533203125" xlink:href="#BitstreamVeraSans-Roman-20"/>
      <use x="453.3203125" xlink:href="#BitstreamVeraSans-Roman-73"/>
      <use x="505.419921875" xlink:href="#BitstreamVeraSans-Roman-74"/>
      <use x="544.62890625" xlink:href="#BitstreamVeraSans-Roman-65"/>
      <use x="606.15234375" xlink:href="#BitstreamVeraSans-Roman-70"/>
      <use x="669.62890625" xlink:href="#BitstreamVeraSans-Roman-3d"/>
      <use x="753.41796875" xlink:href="#BitstreamVeraSans-Roman-30"/>
      <use x="817.041015625" xlink:href="#BitstreamVeraSans-Roman-2e"/>
      <use x="848.828125" xlink:href="#BitstreamVeraSans-Roman-30"/>
      <use x="912.451171875" xlink:href="#BitstreamVeraSans-Roman-30"/>
      <use x="976.07421875" xlink:href="#BitstreamVeraSans-Roman-30"/>
      <use x="1039.69726562" xlink:href="#BitstreamVeraSans-Roman-36"/>
      <use x="1103.3203125" xlink:href="#BitstreamVeraSans-Roman-32"/>
      <use x="1166.94335938" xlink:href="#BitstreamVeraSans-Roman-35"/>
     </g>
    </g>
    <g id="line2d_35">
     <path d="M 864.876562 134.629687 
L 906.876562 134.629687 
" style="fill:none;stroke:#008000;stroke-linecap:square;stroke-width:2.0;"/>
    </g>
    <g id="line2d_36"/>
    <g id="text_19">
     <!-- corr: step=0.000625 -->
     <defs>
      <path d="M 48.78125 52.59375 
L 48.78125 44.1875 
Q 44.96875 46.296875 41.140625 47.34375 
Q 37.3125 48.390625 33.40625 48.390625 
Q 24.65625 48.390625 19.8125 42.84375 
Q 14.984375 37.3125 14.984375 27.296875 
Q 14.984375 17.28125 19.8125 11.734375 
Q 24.65625 6.203125 33.40625 6.203125 
Q 37.3125 6.203125 41.140625 7.25 
Q 44.96875 8.296875 48.78125 10.40625 
L 48.78125 2.09375 
Q 45.015625 0.34375 40.984375 -0.53125 
Q 36.96875 -1.421875 32.421875 -1.421875 
Q 20.0625 -1.421875 12.78125 6.34375 
Q 5.515625 14.109375 5.515625 27.296875 
Q 5.515625 40.671875 12.859375 48.328125 
Q 20.21875 56 33.015625 56 
Q 37.15625 56 41.109375 55.140625 
Q 45.0625 54.296875 48.78125 52.59375 
" id="BitstreamVeraSans-Roman-63"/>
     </defs>
     <g transform="translate(939.8765625 145.1296875)scale(0.3 -0.3)">
      <use xlink:href="#BitstreamVeraSans-Roman-63"/>
      <use x="54.98046875" xlink:href="#BitstreamVeraSans-Roman-6f"/>
      <use x="116.162109375" xlink:href="#BitstreamVeraSans-Roman-72"/>
      <use x="157.259765625" xlink:href="#BitstreamVeraSans-Roman-72"/>
      <use x="198.357421875" xlink:href="#BitstreamVeraSans-Roman-3a"/>
      <use x="232.048828125" xlink:href="#BitstreamVeraSans-Roman-20"/>
      <use x="263.8359375" xlink:href="#BitstreamVeraSans-Roman-73"/>
      <use x="315.935546875" xlink:href="#BitstreamVeraSans-Roman-74"/>
      <use x="355.14453125" xlink:href="#BitstreamVeraSans-Roman-65"/>
      <use x="416.66796875" xlink:href="#BitstreamVeraSans-Roman-70"/>
      <use x="480.14453125" xlink:href="#BitstreamVeraSans-Roman-3d"/>
      <use x="563.93359375" xlink:href="#BitstreamVeraSans-Roman-30"/>
      <use x="627.556640625" xlink:href="#BitstreamVeraSans-Roman-2e"/>
      <use x="659.34375" xlink:href="#BitstreamVeraSans-Roman-30"/>
      <use x="722.966796875" xlink:href="#BitstreamVeraSans-Roman-30"/>
      <use x="786.58984375" xlink:href="#BitstreamVeraSans-Roman-30"/>
      <use x="850.212890625" xlink:href="#BitstreamVeraSans-Roman-36"/>
      <use x="913.8359375" xlink:href="#BitstreamVeraSans-Roman-32"/>
      <use x="977.458984375" xlink:href="#BitstreamVeraSans-Roman-35"/>
     </g>
    </g>
   </g>
  </g>
 </g>
 <defs>
  <clipPath id="p4b56fec96a">
   <rect height="695.7" width="1177.65" x="158.4" y="51.3"/>
  </clipPath>
 </defs>
</svg>
