<?xml version="1.0" encoding="utf-8" standalone="no"?>
<!DOCTYPE svg PUBLIC "-//W3C//DTD SVG 1.1//EN"
  "http://www.w3.org/Graphics/SVG/1.1/DTD/svg11.dtd">
<!-- Created with matplotlib (http://matplotlib.org/) -->
<svg height="864pt" version="1.1" viewBox="0 0 1440 864" width="1440pt" xmlns="http://www.w3.org/2000/svg" xmlns:xlink="http://www.w3.org/1999/xlink">
 <defs>
  <style type="text/css">
*{stroke-linecap:butt;stroke-linejoin:round;stroke-miterlimit:100000;}
  </style>
 </defs>
 <g id="figure_1">
  <g id="patch_1">
   <path d="M 0 864 
L 1440 864 
L 1440 0 
L 0 0 
z
" style="fill:#ffffff;"/>
  </g>
  <g id="axes_1">
   <g id="patch_2">
    <path d="M 127.0125 747 
L 1336.05 747 
L 1336.05 51.3 
L 127.0125 51.3 
z
" style="fill:#ffffff;"/>
   </g>
   <g id="line2d_1">
    <path clip-path="url(#pf020faf907)" d="M 128.221538 84.612263 
L 129.430575 92.46041 
L 130.639613 99.039603 
L 131.84865 104.811116 
L 133.057688 119.171079 
L 134.266725 119.782324 
L 135.475763 132.038254 
L 136.6848 131.765238 
L 137.893838 167.320892 
L 139.102875 167.319348 
L 140.311913 170.127168 
L 141.52095 170.112199 
L 142.729988 191.144981 
L 143.939025 191.291812 
L 145.148063 203.802151 
L 146.3571 203.797992 
L 147.566138 210.594752 
L 148.775175 210.442116 
L 149.984213 229.714696 
L 151.19325 229.722655 
L 152.402288 228.857618 
L 153.611325 228.755521 
L 154.820363 250.238575 
L 157.238438 251.086315 
L 158.447475 251.054703 
L 159.656513 268.903554 
L 160.86555 268.879873 
L 162.074588 269.346283 
L 163.283625 269.348278 
L 164.492663 277.3925 
L 165.7017 277.341992 
L 166.910738 289.652412 
L 168.119775 289.646346 
L 169.328813 291.435039 
L 170.53785 291.509874 
L 171.746888 311.191117 
L 172.955925 311.18144 
L 174.164963 310.38094 
L 175.374 310.388024 
L 176.583038 331.898177 
L 177.792075 331.961196 
L 179.001113 333.786604 
L 180.21015 333.787954 
L 181.419188 343.619305 
L 182.628225 343.819933 
L 183.837263 347.830723 
L 185.0463 347.856218 
L 186.255338 355.185254 
L 187.464375 355.125591 
L 188.673413 362.391959 
L 189.88245 362.322268 
L 191.091488 364.554432 
L 192.300525 364.537986 
L 193.509563 373.436369 
L 195.927638 373.211093 
L 197.136675 373.210666 
L 198.345713 382.410673 
L 199.55475 382.135734 
L 201.972825 382.219935 
L 203.181863 385.329483 
L 204.3909 384.795448 
L 205.599938 396.435092 
L 206.808975 396.348008 
L 208.018012 398.511938 
L 209.22705 398.521797 
L 210.436088 404.420665 
L 214.0632 404.397499 
L 215.272238 405.505618 
L 216.481275 405.496227 
L 217.690313 407.565312 
L 218.89935 407.593833 
L 220.108387 421.432749 
L 222.526463 422.735611 
L 223.7355 422.785669 
L 224.944538 427.975373 
L 226.153575 425.808292 
L 227.362613 422.553181 
L 228.57165 422.536172 
L 229.780687 425.777833 
L 230.989725 427.468588 
L 232.198762 435.854383 
L 233.4078 436.357172 
L 234.616838 436.637011 
L 235.825875 436.677355 
L 237.034913 438.941742 
L 238.24395 437.560067 
L 239.452988 437.565755 
L 240.662025 438.88597 
L 241.871062 439.030534 
L 243.0801 440.100174 
L 244.289137 441.944408 
L 245.498175 441.960059 
L 246.707212 444.912002 
L 247.91625 446.613696 
L 249.125288 449.172805 
L 250.334325 449.485114 
L 251.543363 449.47498 
L 252.7524 450.249775 
L 253.961437 457.076383 
L 255.170475 455.141802 
L 256.379512 455.965778 
L 257.58855 455.959087 
L 258.797588 455.59879 
L 260.006625 465.011278 
L 261.215663 469.184641 
L 262.4247 468.371805 
L 263.633737 468.16374 
L 264.842775 468.681553 
L 266.051812 468.124575 
L 267.26085 471.394048 
L 268.469887 471.840412 
L 269.678925 471.833363 
L 270.887963 469.630839 
L 272.097 471.604017 
L 273.306038 474.366877 
L 274.515075 474.349317 
L 275.724112 476.830947 
L 276.93315 477.458927 
L 278.142187 486.667002 
L 279.351225 486.246173 
L 280.560262 486.257238 
L 281.7693 486.494656 
L 282.978338 488.987571 
L 284.187375 488.166073 
L 285.396412 489.19012 
L 286.60545 489.177114 
L 287.814487 485.497741 
L 289.023525 488.48818 
L 290.232562 490.349361 
L 292.650638 490.317383 
L 293.859675 490.459671 
L 295.068713 493.984417 
L 296.27775 497.012941 
L 297.486787 495.357535 
L 298.695825 495.353713 
L 299.904862 498.229093 
L 301.1139 496.888868 
L 302.322937 500.703965 
L 303.531975 500.701566 
L 304.741013 502.857276 
L 305.95005 502.741908 
L 307.159087 508.897817 
L 308.368125 508.958926 
L 309.577162 508.453931 
L 310.7862 508.458135 
L 311.995237 506.592551 
L 313.204275 509.317706 
L 314.413312 509.446078 
L 315.62235 509.437627 
L 316.831388 507.219438 
L 318.040425 510.99137 
L 319.249462 513.996255 
L 321.667537 513.88543 
L 322.876575 513.309634 
L 324.085612 513.479251 
L 325.29465 514.984496 
L 326.503687 517.114081 
L 327.712725 517.114081 
L 328.921762 516.262678 
L 330.1308 517.271021 
L 331.339837 520.777871 
L 332.548875 520.801695 
L 333.757912 520.669542 
L 334.96695 520.294407 
L 336.175987 521.109182 
L 338.594062 521.206534 
L 339.8031 521.245829 
L 341.012137 517.494123 
L 342.221175 517.165828 
L 343.430212 522.773185 
L 344.63925 522.766047 
L 345.848287 524.019712 
L 347.057325 521.814374 
L 348.266362 528.976903 
L 349.4754 529.137926 
L 350.684438 529.068046 
L 351.893475 527.772794 
L 353.102512 535.417317 
L 354.31155 535.461958 
L 355.520587 535.664335 
L 356.729625 535.64711 
L 357.938662 537.496819 
L 359.1477 537.988956 
L 360.356737 537.489577 
L 361.565775 537.491488 
L 362.774812 539.026244 
L 363.98385 539.450377 
L 365.192887 543.581764 
L 366.401925 543.58318 
L 367.610962 542.313188 
L 368.82 542.31808 
L 370.029037 542.511593 
L 371.238075 542.407555 
L 372.447112 543.180347 
L 373.65615 543.175603 
L 374.865187 547.835414 
L 376.074225 547.76945 
L 377.283262 546.774093 
L 378.4923 546.763624 
L 379.701337 557.706232 
L 380.910375 557.238861 
L 382.119412 556.250658 
L 383.32845 556.361735 
L 384.537487 555.624043 
L 385.746525 555.648277 
L 386.955562 556.806441 
L 388.1646 556.954798 
L 389.373637 556.984797 
L 390.582675 556.866614 
L 391.791712 557.673824 
L 393.00075 557.475285 
L 394.209788 558.782708 
L 395.418825 558.790201 
L 396.627862 557.893496 
L 397.8369 558.399082 
L 399.045937 557.971801 
L 400.254975 557.950042 
L 401.464012 554.286232 
L 402.67305 554.302266 
L 403.882087 557.89482 
L 405.091125 557.905991 
L 406.300162 558.264635 
L 407.5092 558.272311 
L 408.718237 567.155216 
L 409.927275 567.438927 
L 411.136312 567.264794 
L 412.34535 567.25451 
L 413.554387 568.432664 
L 414.763425 568.544154 
L 415.972462 571.260037 
L 417.1815 571.262399 
L 418.390537 574.884866 
L 419.599575 574.959861 
L 420.808612 569.106252 
L 424.435725 569.136976 
L 425.644762 576.469951 
L 426.8538 576.553852 
L 428.062837 579.345469 
L 429.271875 579.333818 
L 430.480912 571.92917 
L 431.68995 572.072627 
L 432.898987 572.796992 
L 434.108025 572.797364 
L 435.317062 571.637356 
L 436.5261 571.706611 
L 437.735137 578.814428 
L 438.944175 578.817514 
L 440.153212 579.04119 
L 441.36225 579.131352 
L 442.571287 575.866393 
L 443.780325 575.888318 
L 444.989362 575.472728 
L 446.1984 575.47884 
L 447.407437 577.082329 
L 448.616475 577.312934 
L 449.825512 582.208819 
L 451.03455 582.256663 
L 452.243587 581.968467 
L 453.452625 581.924264 
L 454.661662 588.881753 
L 455.8707 588.883547 
L 458.288775 589.02845 
L 459.497812 590.345872 
L 460.70685 590.835802 
L 461.915887 592.763565 
L 463.124925 592.774424 
L 464.333962 591.771482 
L 465.543 591.031047 
L 466.752037 589.233907 
L 467.961075 589.242901 
L 469.170112 587.683299 
L 470.37915 587.672754 
L 471.588187 592.437371 
L 472.797225 592.454588 
L 474.006262 592.821244 
L 475.2153 592.85142 
L 476.424337 591.725521 
L 480.05145 591.838886 
L 481.260487 592.378637 
L 482.469525 589.550083 
L 483.678562 589.94429 
L 484.8876 589.963336 
L 486.096637 590.248686 
L 487.305675 594.720969 
L 488.514712 596.511368 
L 489.72375 596.074367 
L 490.932787 596.072619 
L 492.141825 596.637242 
L 493.350862 600.765653 
L 494.5599 599.980192 
L 495.768937 600.600234 
L 496.977975 599.851418 
L 498.187012 604.709816 
L 499.39605 603.704117 
L 500.605087 603.078794 
L 501.814125 603.072216 
L 503.023162 606.412899 
L 504.2322 605.502373 
L 505.441237 606.713803 
L 506.650275 606.726348 
L 507.859312 605.747512 
L 509.06835 602.935798 
L 510.277387 606.506646 
L 511.486425 606.669544 
L 512.695462 606.67012 
L 513.9045 607.835187 
L 515.113537 611.518945 
L 516.322575 607.285133 
L 517.531612 608.794671 
L 518.74065 608.792657 
L 519.949687 610.856801 
L 521.158725 609.82174 
L 522.367762 611.007247 
L 524.785837 610.905619 
L 525.994875 612.22439 
L 527.203912 614.609419 
L 528.41295 614.064442 
L 529.621987 614.556394 
L 530.831025 614.559916 
L 532.040062 612.952154 
L 533.2491 611.015218 
L 534.458137 611.453605 
L 535.667175 611.41113 
L 536.876212 612.681939 
L 538.08525 610.844152 
L 539.294287 613.949753 
L 540.503325 613.949753 
L 541.712362 613.747271 
L 542.9214 614.358377 
L 544.130437 619.760889 
L 545.339475 621.518162 
L 546.548512 623.061431 
L 547.75755 623.065334 
L 548.966587 624.2067 
L 550.175625 620.678207 
L 551.384662 618.727977 
L 552.5937 620.304254 
L 553.802737 620.228966 
L 555.011775 619.095501 
L 556.220812 624.469311 
L 557.42985 620.831147 
L 558.638887 621.868924 
L 559.847925 621.864829 
L 561.056962 619.656489 
L 562.266 622.80023 
L 563.475037 627.373179 
L 564.684075 627.382427 
L 565.893112 629.597459 
L 567.10215 629.968084 
L 568.311187 627.982953 
L 569.520225 626.322661 
L 570.729262 626.520023 
L 571.9383 628.674125 
L 573.147337 626.127905 
L 574.356375 628.280007 
L 575.565412 628.973298 
L 576.77445 628.971268 
L 577.983487 628.389259 
L 579.192525 622.745394 
L 580.401562 626.858762 
L 581.6106 627.014641 
L 582.819637 627.022017 
L 584.028675 625.436174 
L 585.237712 622.944003 
L 587.655787 623.218194 
L 588.864825 623.212257 
L 590.073862 625.196734 
L 591.2829 625.690268 
L 592.491937 629.695272 
L 593.700975 629.689561 
L 594.910012 630.882224 
L 596.11905 627.32882 
L 597.328087 634.542734 
L 598.537125 633.806539 
L 599.746162 633.802414 
L 600.9552 635.833814 
L 602.164237 634.092309 
L 603.373275 628.477823 
L 604.582312 628.756238 
L 605.79135 628.753632 
L 607.000387 630.873745 
L 608.209425 632.518563 
L 609.418462 636.375377 
L 611.836537 636.42538 
L 613.045575 633.728303 
L 614.254612 631.829033 
L 615.46365 630.185891 
L 616.672687 630.232202 
L 617.881725 629.061364 
L 619.090762 634.024125 
L 620.2998 639.534801 
L 621.508837 639.334526 
L 622.717875 639.694251 
L 623.926912 638.309831 
L 625.13595 637.442735 
L 626.344987 637.318274 
L 628.763062 637.394984 
L 631.181137 636.05328 
L 632.390175 635.727486 
L 633.599212 635.727956 
L 634.80825 634.555228 
L 636.017287 635.296887 
L 637.226325 638.080102 
L 638.435362 638.092178 
L 639.6444 640.080117 
L 640.853437 639.844366 
L 642.062475 641.724045 
L 643.271512 643.285215 
L 644.48055 641.678976 
L 645.689587 643.024486 
L 646.898625 642.992699 
L 648.107662 643.25295 
L 649.3167 644.296919 
L 650.525737 644.301644 
L 651.734775 643.997643 
L 652.943812 642.213147 
L 654.15285 644.616407 
L 655.361887 644.619795 
L 656.570925 644.479289 
L 657.779962 644.568454 
L 658.989 651.058613 
L 660.198037 651.078341 
L 662.616112 650.850918 
L 663.82515 645.057733 
L 665.034187 645.19774 
L 666.243225 644.825201 
L 667.452262 644.825428 
L 668.6613 648.312244 
L 669.870337 648.401081 
L 671.079375 649.236085 
L 672.288412 649.236965 
L 673.49745 643.813274 
L 674.706487 643.803885 
L 675.915525 646.536092 
L 677.124562 646.473858 
L 678.3336 645.561752 
L 679.542637 645.559313 
L 680.751675 644.277611 
L 681.960712 644.03904 
L 683.16975 646.19479 
L 684.378787 646.212162 
L 685.587825 655.223326 
L 686.796862 654.842991 
L 688.0059 654.063337 
L 689.214937 654.059465 
L 690.423975 650.748421 
L 691.633012 650.758163 
L 692.84205 654.566628 
L 694.051087 654.573523 
L 695.260125 654.336366 
L 696.469162 654.387277 
L 697.6782 656.033593 
L 698.887237 656.027876 
L 700.096275 655.018493 
L 701.305312 655.03034 
L 702.51435 656.677178 
L 703.723387 656.519699 
L 704.932425 658.988185 
L 706.141462 658.985872 
L 707.3505 660.62575 
L 708.559537 660.635199 
L 709.768575 657.952368 
L 710.977612 657.952681 
L 712.18665 656.680743 
L 713.395687 656.653857 
L 714.604725 657.123394 
L 715.813762 656.74344 
L 717.0228 657.643156 
L 718.231837 657.647256 
L 719.440875 657.472804 
L 720.649912 658.236547 
L 721.85895 661.298155 
L 723.067987 661.302547 
L 724.277025 662.142401 
L 725.486062 662.110997 
L 726.6951 666.560082 
L 727.904137 666.569535 
L 730.322212 666.786363 
L 731.53125 660.093846 
L 732.740287 660.086349 
L 733.949325 660.377066 
L 735.158362 660.381406 
L 736.3674 662.221273 
L 737.576437 662.537474 
L 738.785475 662.660913 
L 741.20355 662.66077 
L 742.412587 662.703673 
L 744.830662 663.928787 
L 746.0397 663.841201 
L 747.248737 664.013859 
L 749.666812 662.864938 
L 750.87585 662.861839 
L 752.084887 664.810882 
L 753.293925 664.272455 
L 754.502962 662.983457 
L 755.712 665.167294 
L 756.921037 665.241547 
L 758.130075 667.118366 
L 759.339112 664.816798 
L 760.54815 668.237212 
L 762.966225 668.147621 
L 764.175262 664.991652 
L 765.3843 663.683285 
L 766.593337 664.809806 
L 767.802375 664.392716 
L 769.011412 665.463848 
L 770.22045 666.852599 
L 771.429487 668.414197 
L 772.638525 669.736029 
L 773.847562 669.738426 
L 775.0566 669.457335 
L 776.265637 671.402316 
L 777.474675 670.590891 
L 778.683712 671.554371 
L 779.89275 671.485422 
L 781.101787 669.665715 
L 782.310825 666.373815 
L 783.519862 666.188793 
L 784.7289 666.142967 
L 785.937937 666.237385 
L 787.146975 664.086867 
L 788.356012 668.256227 
L 789.56505 666.948693 
L 790.774087 666.431511 
L 791.983125 666.481255 
L 793.192162 675.869903 
L 794.4012 676.654102 
L 795.610237 679.873375 
L 796.819275 679.876643 
L 798.028312 679.648477 
L 799.23735 673.795842 
L 800.446387 672.920799 
L 804.0735 674.311873 
L 805.282537 677.660292 
L 806.491575 676.235413 
L 807.700612 675.889706 
L 808.90965 675.892979 
L 810.118687 678.575165 
L 811.327725 675.377251 
L 812.536762 678.509469 
L 813.7458 678.517233 
L 814.954837 681.876348 
L 816.163875 680.512296 
L 817.372912 681.775325 
L 818.58195 682.578489 
L 819.790987 682.467636 
L 821.000025 682.129422 
L 822.209062 683.135584 
L 823.4181 682.979821 
L 824.627137 683.290171 
L 825.836175 683.293152 
L 827.045212 682.608828 
L 828.25425 682.480417 
L 829.463287 679.487635 
L 830.672325 679.476464 
L 831.881362 680.252392 
L 833.0904 680.227858 
L 834.299437 679.446148 
L 835.508475 679.461452 
L 836.717512 678.593921 
L 837.92655 678.709066 
L 839.135587 682.67453 
L 840.344625 682.511762 
L 841.553662 681.8427 
L 842.7627 681.840628 
L 843.971737 680.496663 
L 845.180775 680.529131 
L 846.389812 684.469121 
L 847.59885 684.467734 
L 848.807887 685.074749 
L 850.016925 685.038727 
L 851.225962 685.899061 
L 852.435 685.765391 
L 853.644037 685.950459 
L 854.853075 685.977843 
L 856.062112 678.203624 
L 857.27115 678.10479 
L 858.480187 680.437513 
L 859.689225 680.453074 
L 860.898262 685.190553 
L 862.1073 685.479705 
L 863.316337 686.769207 
L 864.525375 686.707266 
L 865.734412 687.311327 
L 866.94345 687.321859 
L 868.152487 689.167436 
L 869.361525 689.160469 
L 870.570562 689.465494 
L 871.7796 689.462602 
L 872.988637 687.308776 
L 874.197675 686.175216 
L 875.406712 686.774144 
L 876.61575 686.779276 
L 877.824787 688.17472 
L 879.033825 685.266514 
L 880.242862 686.240409 
L 881.4519 686.208031 
L 882.660937 685.341721 
L 883.869975 688.273672 
L 885.079012 692.340664 
L 886.28805 692.725779 
L 887.497087 692.651378 
L 888.706125 692.446986 
L 889.915162 689.00426 
L 891.1242 689.867406 
L 892.333237 689.867 
L 893.542275 689.619471 
L 894.751312 687.73432 
L 895.96035 689.055291 
L 897.169387 688.406844 
L 898.378425 688.413611 
L 899.587462 690.638618 
L 900.7965 691.142312 
L 902.005537 689.841245 
L 903.214575 689.860645 
L 904.423612 693.137151 
L 905.63265 695.135025 
L 906.841687 697.921942 
L 908.050725 698.274134 
L 909.259762 698.240146 
L 910.4688 698.384717 
L 911.677837 696.577658 
L 912.886875 693.516766 
L 914.095912 694.284642 
L 915.30495 694.286575 
L 916.513987 695.60896 
L 917.723025 693.355543 
L 918.932062 697.670607 
L 920.1411 697.931172 
L 921.350137 697.99063 
L 922.559175 697.25997 
L 923.768212 694.566777 
L 924.97725 692.518671 
L 926.186287 694.251862 
L 927.395325 694.252291 
L 928.604362 699.025601 
L 929.8134 699.520096 
L 931.022437 699.270086 
L 932.231475 699.265428 
L 933.440512 699.111886 
L 934.64955 701.632347 
L 935.858587 697.450956 
L 937.067625 697.121644 
L 938.276662 697.432388 
L 939.4857 697.539682 
L 940.694737 694.338207 
L 941.903775 695.948772 
L 943.112812 692.635749 
L 944.32185 692.58363 
L 945.530887 696.723436 
L 946.739925 694.786802 
L 947.948962 693.939365 
L 949.158 694.463313 
L 950.367037 697.327551 
L 951.576075 698.816569 
L 952.785112 696.174459 
L 953.99415 697.095805 
L 955.203187 697.650042 
L 956.412225 697.586063 
L 957.621262 700.164245 
L 958.8303 697.873559 
L 960.039337 699.156476 
L 961.248375 699.152969 
L 962.457412 699.67023 
L 963.66645 698.801388 
L 964.875487 700.824184 
L 966.084525 701.21217 
L 967.293562 701.134804 
L 968.5026 700.537065 
L 969.711637 702.249853 
L 970.920675 697.412483 
L 972.129712 695.821533 
L 974.547787 695.741686 
L 975.756825 699.115468 
L 976.965862 703.246315 
L 978.1749 703.272646 
L 979.383937 703.830803 
L 980.592975 702.810607 
L 981.802012 704.301981 
L 983.01105 704.288715 
L 984.220087 703.758928 
L 985.429125 703.490261 
L 986.638162 701.886858 
L 987.8472 701.022921 
L 989.056237 702.483649 
L 990.265275 702.482543 
L 991.474312 700.77374 
L 992.68335 702.972787 
L 993.892387 701.611645 
L 996.310462 701.580469 
L 997.5195 702.117687 
L 998.728537 703.685543 
L 999.937575 702.964569 
L 1001.146612 702.509363 
L 1002.35565 702.498273 
L 1003.564687 706.579333 
L 1004.773725 706.760149 
L 1005.982762 708.337413 
L 1007.1918 707.957736 
L 1008.400837 707.410738 
L 1009.609875 707.638849 
L 1010.818912 708.105095 
L 1012.02795 707.580663 
L 1013.236987 707.583656 
L 1014.446025 709.970075 
L 1015.655062 709.943202 
L 1016.8641 713.198455 
L 1018.073137 713.20769 
L 1019.282175 712.927097 
L 1020.491212 714.314639 
L 1022.909287 714.184345 
L 1024.118325 715.294132 
L 1025.327362 715.290966 
L 1026.5364 711.370861 
L 1027.745437 711.382631 
L 1028.954475 711.042579 
L 1030.163512 710.918587 
L 1031.37255 708.607722 
L 1032.581587 708.700096 
L 1033.790625 706.608126 
L 1034.999662 706.615447 
L 1036.2087 716.079135 
L 1037.417737 716.142936 
L 1038.626775 714.006092 
L 1039.835812 713.989353 
L 1041.04485 715.723717 
L 1043.462925 715.41645 
L 1044.671962 715.424307 
L 1045.881 715.768252 
L 1047.090037 715.788331 
L 1048.299075 713.779778 
L 1049.508112 713.463125 
L 1050.71715 714.420487 
L 1051.926187 714.397918 
L 1053.135225 713.750425 
L 1056.762337 713.528943 
L 1057.971375 715.632657 
L 1059.180412 715.649643 
L 1060.38945 712.674559 
L 1061.598487 712.685022 
L 1062.807525 712.039068 
L 1064.016562 711.928001 
L 1065.2256 714.97467 
L 1066.434637 715.116725 
L 1067.643675 714.841523 
L 1068.852712 714.837367 
L 1070.06175 712.057805 
L 1071.270787 712.415793 
L 1072.479825 713.692874 
L 1073.688862 713.69108 
L 1074.8979 714.062305 
L 1076.106937 714.038066 
L 1077.315975 714.338965 
L 1078.525012 714.309305 
L 1080.943087 714.776286 
L 1082.152125 714.484569 
L 1083.361162 714.540229 
L 1084.5702 717.271658 
L 1085.779237 717.258012 
L 1086.988275 713.255867 
L 1088.197312 712.935207 
L 1089.40635 715.784937 
L 1090.615387 715.82178 
L 1091.824425 714.829578 
L 1093.033462 715.123127 
L 1094.2425 714.127174 
L 1095.451537 714.045045 
L 1096.660575 712.501544 
L 1097.869612 712.580597 
L 1099.07865 714.442746 
L 1100.287687 714.433093 
L 1101.496725 714.738539 
L 1102.705762 714.798741 
L 1103.9148 718.040548 
L 1105.123837 717.897171 
L 1106.332875 723.881841 
L 1107.541912 723.889968 
L 1108.75095 722.647094 
L 1109.959987 722.64292 
L 1111.169025 718.710437 
L 1112.378062 718.68241 
L 1113.5871 719.038948 
L 1114.796137 719.061799 
L 1116.005175 725.730262 
L 1117.214212 725.756007 
L 1118.42325 727.147108 
L 1119.632287 727.11425 
L 1120.841325 725.142171 
L 1122.050362 725.357594 
L 1123.2594 723.331722 
L 1124.468437 723.331117 
L 1125.677475 723.632271 
L 1126.886512 723.593217 
L 1128.09555 719.533642 
L 1129.304587 719.49707 
L 1131.722662 720.352828 
L 1132.9317 725.298304 
L 1134.140737 725.270412 
L 1135.349775 726.176316 
L 1136.558812 726.177949 
L 1137.76785 725.659168 
L 1138.976887 721.847158 
L 1140.185925 721.693029 
L 1141.394962 721.771924 
L 1142.604 721.667561 
L 1143.813037 725.408407 
L 1145.022075 726.154863 
L 1146.231112 725.629396 
L 1147.44015 724.907981 
L 1148.649187 720.558983 
L 1149.858225 728.107203 
L 1151.067262 729.170916 
L 1153.485337 728.630788 
L 1154.694375 726.154182 
L 1155.903412 726.958026 
L 1157.11245 727.526864 
L 1158.321487 728.613129 
L 1159.530525 726.762202 
L 1160.739562 731.508896 
L 1161.9486 726.734997 
L 1163.157637 727.614437 
L 1164.366675 726.910683 
L 1165.575712 728.038953 
L 1166.78475 729.002429 
L 1167.993787 729.646178 
L 1169.202825 729.407003 
L 1170.411862 727.004119 
L 1171.6209 725.926569 
L 1174.038975 726.463434 
L 1175.248012 727.526412 
L 1176.45705 726.982708 
L 1177.666087 725.672093 
L 1178.875125 726.579689 
L 1180.084162 726.418009 
L 1181.2932 726.39522 
L 1182.502237 726.715131 
L 1183.711275 726.851335 
L 1184.920312 724.238923 
L 1186.12935 724.959606 
L 1187.338387 724.438484 
L 1188.547425 723.060606 
L 1189.756462 722.903191 
L 1192.174537 722.933009 
L 1193.383575 719.38124 
L 1194.592612 718.924373 
L 1195.80165 719.916743 
L 1197.010687 720.251363 
L 1198.219725 718.317201 
L 1199.428762 718.404283 
L 1200.6378 718.803488 
L 1201.846837 718.77693 
L 1203.055875 718.01864 
L 1204.264912 717.9938 
L 1205.47395 718.890204 
L 1206.682987 718.878001 
L 1207.892025 717.29216 
L 1209.101062 717.219419 
L 1210.3101 715.273382 
L 1211.519137 715.254967 
L 1212.728175 714.468711 
L 1213.937212 714.430259 
L 1215.14625 715.478764 
L 1216.355287 715.450622 
L 1217.564325 714.591078 
L 1218.773362 714.518202 
L 1219.9824 714.294318 
L 1221.191437 714.295885 
L 1222.400475 714.530145 
L 1223.609512 714.533065 
L 1224.81855 714.056508 
L 1226.027587 714.079033 
L 1227.236625 712.78665 
L 1228.445662 712.795036 
L 1229.6547 712.324558 
L 1230.863737 712.320861 
L 1232.072775 711.397475 
L 1233.281812 711.398136 
L 1234.49085 711.145737 
L 1235.699887 711.144536 
L 1236.908925 710.836772 
L 1238.117962 710.835388 
L 1239.327 710.346404 
L 1242.954112 710.379659 
L 1244.16315 710.270483 
L 1245.372187 710.323391 
L 1246.581225 709.843552 
L 1247.790262 709.855792 
L 1248.9993 710.049634 
L 1252.626412 709.924331 
L 1253.83545 709.691517 
L 1255.044487 709.69122 
L 1256.253525 709.370737 
L 1257.462562 709.370563 
L 1258.6716 709.017399 
L 1264.716787 708.930017 
L 1268.3439 708.825442 
L 1269.552937 708.825883 
L 1270.761975 708.552143 
L 1281.643312 708.512333 
L 1282.85235 708.218548 
L 1288.897537 708.11529 
L 1291.315612 708.076834 
L 1293.733687 708.11767 
L 1297.3608 708.007947 
L 1300.987912 707.92409 
L 1303.405987 707.824039 
L 1336.05 707.385495 
L 1336.05 707.385495 
" style="fill:none;stroke:#0000ff;stroke-linecap:square;stroke-width:2.0;"/>
   </g>
   <g id="line2d_2">
    <path clip-path="url(#pf020faf907)" d="M 128.221538 87.047085 
L 129.430575 93.04012 
L 130.639613 101.253848 
L 131.84865 106.573301 
L 133.057688 124.064804 
L 134.266725 124.054817 
L 135.475763 132.432825 
L 136.6848 132.434772 
L 137.893838 159.526164 
L 139.102875 159.587198 
L 140.311913 162.790828 
L 141.52095 162.802803 
L 142.729988 191.395474 
L 143.939025 193.375141 
L 145.148063 205.516599 
L 146.3571 205.511846 
L 147.566138 219.946974 
L 148.775175 221.928344 
L 149.984213 238.158106 
L 152.402288 238.161104 
L 153.611325 240.742379 
L 154.820363 260.898588 
L 156.0294 261.445776 
L 158.447475 261.473751 
L 159.656513 277.785842 
L 160.86555 280.2302 
L 162.074588 280.362054 
L 163.283625 280.34477 
L 164.492663 292.602892 
L 165.7017 292.163301 
L 166.910738 293.647566 
L 168.119775 293.652668 
L 169.328813 300.181134 
L 170.53785 300.155914 
L 171.746888 304.930438 
L 172.955925 304.932111 
L 174.164963 315.397747 
L 175.374 315.363263 
L 176.583038 328.088251 
L 177.792075 328.042476 
L 179.001113 331.242437 
L 180.21015 331.511566 
L 181.419188 345.799929 
L 182.628225 345.95573 
L 183.837263 345.924289 
L 185.0463 346.067961 
L 187.464375 352.376829 
L 188.673413 354.759479 
L 189.88245 354.757858 
L 191.091488 361.707854 
L 193.509563 369.73003 
L 194.7186 369.734716 
L 195.927638 369.160018 
L 197.136675 377.08951 
L 198.345713 382.664353 
L 199.55475 382.655102 
L 200.763788 382.774859 
L 201.972825 385.486994 
L 203.181863 387.559545 
L 204.3909 389.887928 
L 205.599938 391.436604 
L 206.808975 391.433188 
L 208.018012 394.270232 
L 209.22705 402.14345 
L 210.436088 403.568414 
L 212.854163 403.510233 
L 214.0632 405.975281 
L 215.272238 411.922005 
L 216.481275 409.560549 
L 217.690313 409.412659 
L 218.89935 409.52901 
L 220.108387 415.182265 
L 221.317425 418.606863 
L 222.526463 420.855548 
L 223.7355 420.817944 
L 224.944538 422.085191 
L 226.153575 423.595024 
L 227.362613 427.184162 
L 228.57165 425.863825 
L 229.780687 425.945997 
L 230.989725 427.142899 
L 233.4078 435.083404 
L 234.616838 435.718056 
L 235.825875 435.717526 
L 237.034913 438.645978 
L 238.24395 442.932714 
L 239.452988 446.131709 
L 240.662025 445.983568 
L 241.871062 445.999771 
L 243.0801 446.470403 
L 244.289137 450.216821 
L 245.498175 449.573089 
L 246.707212 449.979221 
L 247.91625 449.970509 
L 249.125288 452.131831 
L 250.334325 450.505812 
L 251.543363 453.075537 
L 252.7524 453.10044 
L 253.961437 453.654249 
L 255.170475 454.015618 
L 256.379512 459.455549 
L 257.58855 461.195709 
L 260.006625 461.217577 
L 261.215663 462.543634 
L 262.4247 459.62663 
L 263.633737 459.825048 
L 264.842775 459.81143 
L 266.051812 462.212737 
L 267.26085 466.224382 
L 268.469887 470.696233 
L 269.678925 470.862699 
L 270.887963 471.597391 
L 272.097 473.422889 
L 273.306038 478.9485 
L 274.515075 479.908601 
L 275.724112 480.40162 
L 276.93315 480.424121 
L 278.142187 481.968857 
L 279.351225 482.673215 
L 280.560262 486.775012 
L 281.7693 486.777357 
L 282.978338 488.022131 
L 284.187375 488.273359 
L 285.396412 489.049392 
L 286.60545 489.650555 
L 287.814487 489.341711 
L 289.023525 489.381273 
L 290.232562 493.305595 
L 291.4416 493.116381 
L 292.650638 493.622555 
L 293.859675 493.631312 
L 295.068713 494.934067 
L 296.27775 495.82013 
L 297.486787 493.307669 
L 298.695825 493.307563 
L 299.904862 497.049599 
L 301.1139 497.295382 
L 302.322937 500.29838 
L 303.531975 500.408407 
L 304.741013 500.985564 
L 305.95005 501.032969 
L 307.159087 506.783983 
L 309.577162 506.259248 
L 310.7862 506.225619 
L 311.995237 504.914391 
L 313.204275 504.858557 
L 314.413312 510.6054 
L 315.62235 510.591035 
L 316.831388 510.263183 
L 318.040425 510.254178 
L 319.249462 512.452302 
L 322.876575 512.565592 
L 324.085612 512.323876 
L 325.29465 512.268814 
L 326.503687 516.820179 
L 327.712725 516.831711 
L 328.921762 518.718168 
L 330.1308 518.697636 
L 331.339837 519.526787 
L 332.548875 519.366471 
L 333.757912 520.731382 
L 334.96695 520.659846 
L 336.175987 523.249219 
L 337.385025 523.239609 
L 338.594062 525.446447 
L 339.8031 525.443941 
L 341.012137 526.880619 
L 342.221175 526.785344 
L 343.430212 526.357631 
L 344.63925 526.357215 
L 345.848287 525.536052 
L 347.057325 525.586435 
L 348.266362 531.951288 
L 349.4754 531.817287 
L 350.684438 532.292232 
L 351.893475 532.293641 
L 353.102512 535.085184 
L 355.520587 534.973495 
L 356.729625 534.982073 
L 357.938662 533.786206 
L 359.1477 533.777446 
L 360.356737 535.140723 
L 361.565775 535.143674 
L 362.774812 537.057055 
L 363.98385 537.056521 
L 365.192887 541.411769 
L 366.401925 541.414364 
L 367.610962 542.489107 
L 368.82 542.474511 
L 370.029037 543.04638 
L 371.238075 543.100382 
L 372.447112 544.778968 
L 373.65615 544.711393 
L 374.865187 545.823669 
L 376.074225 545.862593 
L 377.283262 544.034414 
L 378.4923 544.032723 
L 379.701337 546.844049 
L 380.910375 546.859515 
L 382.119412 547.23937 
L 384.537487 547.202309 
L 385.746525 546.926335 
L 386.955562 549.137144 
L 389.373637 549.182231 
L 390.582675 549.179263 
L 391.791712 554.191266 
L 393.00075 554.202885 
L 394.209788 551.131708 
L 395.418825 551.154326 
L 396.627862 551.321152 
L 397.8369 551.314046 
L 399.045937 557.265565 
L 400.254975 557.26593 
L 401.464012 558.272397 
L 402.67305 558.225736 
L 403.882087 558.031365 
L 405.091125 558.023037 
L 406.300162 557.188373 
L 407.5092 557.182577 
L 408.718237 557.86373 
L 409.927275 557.751503 
L 411.136312 562.165117 
L 412.34535 562.171428 
L 413.554387 561.264695 
L 414.763425 561.293596 
L 415.972462 564.372747 
L 417.1815 564.37276 
L 418.390537 564.666457 
L 419.599575 564.709151 
L 420.808612 565.850165 
L 422.01765 565.836643 
L 423.226687 566.554092 
L 424.435725 566.55342 
L 425.644762 568.177595 
L 426.8538 568.15404 
L 428.062837 569.382702 
L 429.271875 569.369031 
L 430.480912 566.944906 
L 431.68995 566.93483 
L 432.898987 572.536217 
L 436.5261 572.566957 
L 437.735137 574.905247 
L 438.944175 574.925877 
L 440.153212 578.520987 
L 441.36225 578.529009 
L 442.571287 577.014856 
L 443.780325 577.031943 
L 444.989362 577.829709 
L 446.1984 577.595029 
L 447.407437 578.78494 
L 448.616475 578.789712 
L 449.825512 578.675638 
L 453.452625 578.756042 
L 454.661662 579.512126 
L 455.8707 579.543612 
L 457.079737 580.773109 
L 458.288775 580.782012 
L 459.497812 582.492318 
L 460.70685 582.499296 
L 461.915887 585.5951 
L 463.124925 585.474109 
L 464.333962 584.997514 
L 465.543 585.010138 
L 466.752037 582.606465 
L 467.961075 582.649894 
L 469.170112 582.551133 
L 470.37915 582.571563 
L 471.588187 580.34947 
L 472.797225 580.202956 
L 474.006262 584.398138 
L 475.2153 584.394147 
L 476.424337 588.144185 
L 477.633375 588.114178 
L 478.842412 588.844889 
L 480.05145 588.842419 
L 481.260487 588.512117 
L 482.469525 588.528353 
L 483.678562 595.885056 
L 484.8876 596.062191 
L 486.096637 595.471885 
L 487.305675 595.459525 
L 488.514712 592.514972 
L 489.72375 592.535834 
L 490.932787 597.466121 
L 494.5599 597.47187 
L 495.768937 601.631864 
L 496.977975 601.625754 
L 498.187012 602.219585 
L 499.39605 602.220825 
L 500.605087 601.035056 
L 501.814125 600.80418 
L 504.2322 600.833023 
L 505.441237 606.699554 
L 506.650275 606.723073 
L 507.859312 604.307132 
L 509.06835 604.310306 
L 510.277387 605.935542 
L 511.486425 605.939583 
L 512.695462 605.3912 
L 513.9045 605.391291 
L 515.113537 606.089256 
L 516.322575 606.080588 
L 517.531612 601.002047 
L 518.74065 600.964728 
L 519.949687 599.355418 
L 521.158725 599.346907 
L 522.367762 604.976347 
L 523.5768 604.94711 
L 524.785837 610.602238 
L 525.994875 610.594285 
L 527.203912 611.175377 
L 528.41295 611.155714 
L 529.621987 610.398483 
L 533.2491 610.379331 
L 534.458137 610.979683 
L 538.08525 611.125924 
L 539.294287 607.584537 
L 540.503325 607.847377 
L 541.712362 610.781785 
L 542.9214 610.790463 
L 544.130437 611.904258 
L 545.339475 611.884212 
L 546.548512 615.660073 
L 547.75755 615.660073 
L 548.966587 616.061649 
L 550.175625 616.083485 
L 551.384662 617.83607 
L 552.5937 617.713551 
L 553.802737 620.429026 
L 555.011775 620.424042 
L 556.220812 617.474473 
L 557.42985 617.448849 
L 558.638887 619.949668 
L 562.266 619.529556 
L 563.475037 620.374745 
L 564.684075 620.390816 
L 567.10215 620.204774 
L 568.311187 620.977707 
L 569.520225 620.976071 
L 570.729262 623.817713 
L 571.9383 623.815527 
L 573.147337 623.550966 
L 574.356375 623.522216 
L 575.565412 621.010354 
L 576.77445 621.101516 
L 577.983487 621.791313 
L 579.192525 621.796105 
L 580.401562 624.07352 
L 581.6106 624.069363 
L 582.819637 624.591783 
L 586.44675 624.628377 
L 587.655787 626.658594 
L 588.864825 626.654535 
L 590.073862 626.253392 
L 591.2829 626.184661 
L 592.491937 632.236296 
L 593.700975 632.214164 
L 594.910012 630.135425 
L 596.11905 630.132709 
L 597.328087 630.268439 
L 598.537125 630.247395 
L 599.746162 630.737798 
L 600.9552 630.739151 
L 602.164237 626.787577 
L 603.373275 626.945768 
L 604.582312 625.269605 
L 605.79135 625.243343 
L 607.000387 632.692653 
L 608.209425 632.701108 
L 609.418462 632.931491 
L 610.6275 632.965875 
L 611.836537 635.011725 
L 613.045575 635.010927 
L 614.254612 636.909207 
L 615.46365 636.911967 
L 616.672687 635.357153 
L 617.881725 635.348803 
L 619.090762 633.948554 
L 620.2998 633.911305 
L 621.508837 632.929225 
L 622.717875 632.923237 
L 623.926912 631.820418 
L 625.13595 631.792217 
L 626.344987 630.668924 
L 629.9721 630.754098 
L 631.181137 635.273528 
L 632.390175 635.381506 
L 633.599212 635.810897 
L 634.80825 635.80401 
L 636.017287 636.238802 
L 637.226325 636.247249 
L 638.435362 635.717251 
L 642.062475 635.785871 
L 643.271512 637.971747 
L 646.898625 637.977793 
L 648.107662 641.875287 
L 650.525737 641.769938 
L 651.734775 641.785835 
L 652.943812 649.721685 
L 654.15285 649.633046 
L 655.361887 645.396017 
L 656.570925 645.394153 
L 657.779962 645.613949 
L 658.989 645.693856 
L 660.198037 646.721314 
L 662.616112 646.751266 
L 663.82515 646.847122 
L 665.034187 651.423571 
L 666.243225 651.244712 
L 667.452262 648.922995 
L 668.6613 648.936093 
L 669.870337 651.437058 
L 671.079375 651.446024 
L 672.288412 650.435897 
L 673.49745 650.711909 
L 674.706487 652.949428 
L 675.915525 652.940371 
L 677.124562 653.955006 
L 680.751675 653.831894 
L 681.960712 651.034022 
L 683.16975 650.960173 
L 684.378787 649.591676 
L 685.587825 649.567748 
L 686.796862 653.063161 
L 688.0059 653.062069 
L 689.214937 648.503321 
L 690.423975 648.289064 
L 691.633012 651.503133 
L 692.84205 651.482021 
L 694.051087 652.647611 
L 695.260125 652.538325 
L 696.469162 652.744503 
L 697.6782 652.706116 
L 698.887237 652.280833 
L 700.096275 652.271396 
L 701.305312 649.648716 
L 702.51435 649.649158 
L 703.723387 650.27239 
L 704.932425 650.262465 
L 706.141462 652.096954 
L 707.3505 652.096125 
L 708.559537 653.030997 
L 709.768575 653.056232 
L 710.977612 652.614116 
L 712.18665 652.477112 
L 713.395687 652.174929 
L 714.604725 652.183731 
L 715.813762 656.453628 
L 717.0228 656.388272 
L 718.231837 655.244967 
L 719.440875 655.185199 
L 720.649912 655.592912 
L 721.85895 655.58879 
L 723.067987 656.580903 
L 724.277025 656.576639 
L 725.486062 656.823426 
L 726.6951 656.856855 
L 727.904137 654.161807 
L 729.113175 654.224071 
L 730.322212 653.788385 
L 731.53125 653.738249 
L 732.740287 655.691831 
L 733.949325 655.677841 
L 735.158362 658.284342 
L 736.3674 658.286409 
L 737.576437 656.895992 
L 738.785475 656.904599 
L 739.994512 659.090278 
L 741.20355 659.054371 
L 742.412587 660.073977 
L 743.621625 660.12214 
L 744.830662 661.941543 
L 746.0397 661.910457 
L 747.248737 662.317124 
L 750.87585 662.252627 
L 752.084887 666.836788 
L 753.293925 666.837039 
L 754.502962 669.254745 
L 755.712 669.244544 
L 756.921037 666.687565 
L 758.130075 666.653659 
L 759.339112 666.104128 
L 760.54815 666.063023 
L 761.757187 661.923314 
L 762.966225 661.958741 
L 764.175262 662.930951 
L 765.3843 662.949038 
L 766.593337 667.410227 
L 767.802375 667.418166 
L 769.011412 668.715629 
L 770.22045 668.688893 
L 771.429487 666.715272 
L 773.847562 666.842961 
L 777.474675 666.968549 
L 778.683712 671.345207 
L 779.89275 671.246415 
L 781.101787 668.248457 
L 782.310825 668.203744 
L 783.519862 675.196969 
L 784.7289 675.263882 
L 785.937937 673.731724 
L 787.146975 673.809298 
L 788.356012 670.868898 
L 794.4012 670.873076 
L 795.610237 674.041829 
L 796.819275 674.035989 
L 798.028312 672.691666 
L 799.23735 672.68609 
L 800.446387 674.643971 
L 801.655425 674.611274 
L 802.864462 676.504655 
L 804.0735 676.504484 
L 805.282537 677.595599 
L 806.491575 677.587581 
L 807.700612 678.189207 
L 808.90965 678.263184 
L 810.118687 678.059917 
L 811.327725 678.168341 
L 812.536762 676.372302 
L 813.7458 676.569522 
L 814.954837 673.015231 
L 816.163875 673.009958 
L 817.372912 675.08727 
L 818.58195 675.090788 
L 819.790987 678.10148 
L 821.000025 678.114429 
L 822.209062 677.212652 
L 823.4181 677.207601 
L 824.627137 678.417939 
L 825.836175 678.421145 
L 827.045212 679.462338 
L 828.25425 679.466062 
L 829.463287 678.85598 
L 830.672325 678.807505 
L 831.881362 679.082638 
L 833.0904 679.078933 
L 834.299437 681.617962 
L 835.508475 681.621304 
L 836.717512 684.709905 
L 840.344625 684.692894 
L 841.553662 683.783227 
L 842.7627 683.914949 
L 843.971737 683.589804 
L 845.180775 683.594417 
L 846.389812 683.313958 
L 847.59885 683.324953 
L 848.807887 686.086445 
L 850.016925 686.08181 
L 851.225962 685.176935 
L 852.435 685.13158 
L 853.644037 687.160505 
L 854.853075 687.160505 
L 856.062112 687.794655 
L 857.27115 687.805582 
L 859.689225 687.467819 
L 860.898262 688.156532 
L 862.1073 688.154746 
L 863.316337 685.516573 
L 864.525375 685.502386 
L 865.734412 686.888945 
L 866.94345 686.886668 
L 868.152487 685.868238 
L 869.361525 685.861176 
L 870.570562 684.802427 
L 871.7796 684.771342 
L 872.988637 684.475427 
L 874.197675 684.465717 
L 875.406712 687.256924 
L 876.61575 687.331411 
L 877.824787 684.88105 
L 879.033825 684.889545 
L 880.242862 687.005221 
L 881.4519 686.569018 
L 882.660937 692.624398 
L 883.869975 692.603381 
L 885.079012 695.106296 
L 886.28805 695.109696 
L 887.497087 691.617835 
L 888.706125 691.609536 
L 889.915162 691.101219 
L 893.542275 690.982463 
L 894.751312 692.816194 
L 895.96035 692.797302 
L 897.169387 692.098946 
L 898.378425 692.080228 
L 899.587462 692.528888 
L 900.7965 692.466352 
L 902.005537 689.723125 
L 903.214575 689.715904 
L 904.423612 689.067 
L 905.63265 689.05509 
L 906.841687 688.923402 
L 908.050725 688.921866 
L 909.259762 687.043344 
L 910.4688 687.31571 
L 911.677837 689.716781 
L 912.886875 689.718671 
L 914.095912 691.576074 
L 915.30495 691.555755 
L 916.513987 692.453767 
L 917.723025 692.434823 
L 918.932062 695.788533 
L 920.1411 695.75562 
L 921.350137 693.499828 
L 922.559175 693.4926 
L 923.768212 693.342035 
L 924.97725 693.451797 
L 926.186287 699.298572 
L 927.395325 699.603792 
L 928.604362 698.939411 
L 929.8134 698.936978 
L 931.022437 698.744034 
L 932.231475 698.751542 
L 933.440512 699.500488 
L 934.64955 699.480809 
L 935.858587 697.687736 
L 937.067625 697.698135 
L 938.276662 701.079788 
L 939.4857 701.07831 
L 940.694737 700.531732 
L 944.32185 700.721229 
L 945.530887 697.711304 
L 946.739925 697.609675 
L 947.948962 702.003709 
L 949.158 702.03565 
L 950.367037 699.568831 
L 951.576075 699.563312 
L 952.785112 700.929788 
L 953.99415 700.930997 
L 955.203187 697.264434 
L 956.412225 697.261533 
L 957.621262 697.409576 
L 958.8303 697.392732 
L 960.039337 703.903199 
L 961.248375 703.881952 
L 962.457412 701.759245 
L 963.66645 701.76859 
L 964.875487 705.126878 
L 966.084525 705.186691 
L 967.293562 703.592394 
L 970.920675 703.523048 
L 972.129712 704.61389 
L 974.547787 704.621688 
L 975.756825 704.356787 
L 976.965862 704.757045 
L 978.1749 704.738546 
L 979.383937 706.847982 
L 980.592975 706.879403 
L 981.802012 706.521436 
L 983.01105 706.554436 
L 984.220087 709.631566 
L 985.429125 709.622111 
L 986.638162 708.225072 
L 987.8472 708.224832 
L 989.056237 707.187527 
L 990.265275 707.182884 
L 991.474312 706.859403 
L 992.68335 706.926085 
L 993.892387 705.992235 
L 995.101425 706.001948 
L 996.310462 703.821934 
L 997.5195 703.822849 
L 998.728537 706.645547 
L 999.937575 706.555468 
L 1001.146612 705.246071 
L 1002.35565 705.330201 
L 1003.564687 706.827334 
L 1004.773725 706.826189 
L 1005.982762 707.586411 
L 1007.1918 707.537662 
L 1008.400837 707.776999 
L 1012.02795 707.905184 
L 1013.236987 708.324707 
L 1014.446025 708.349589 
L 1015.655062 707.288756 
L 1016.8641 707.302682 
L 1018.073137 712.790297 
L 1019.282175 712.76079 
L 1020.491212 714.309788 
L 1021.70025 714.302219 
L 1022.909287 709.748813 
L 1024.118325 709.826911 
L 1025.327362 709.483764 
L 1026.5364 709.496287 
L 1027.745437 713.391716 
L 1028.954475 713.509791 
L 1030.163512 711.48155 
L 1033.790625 711.469792 
L 1034.999662 712.335317 
L 1036.2087 712.363885 
L 1037.417737 714.724046 
L 1038.626775 714.71971 
L 1039.835812 711.628002 
L 1041.04485 711.566378 
L 1042.253887 710.781677 
L 1043.462925 710.789493 
L 1044.671962 715.603912 
L 1045.881 715.597904 
L 1047.090037 714.879693 
L 1048.299075 714.870238 
L 1049.508112 712.965492 
L 1050.71715 712.931617 
L 1051.926187 716.00544 
L 1053.135225 716.050005 
L 1054.344262 717.396462 
L 1055.5533 717.424211 
L 1056.762337 712.673451 
L 1057.971375 712.639123 
L 1059.180412 713.823622 
L 1060.38945 713.840778 
L 1061.598487 712.705551 
L 1062.807525 712.761862 
L 1064.016562 716.068279 
L 1065.2256 716.069114 
L 1066.434637 720.437435 
L 1067.643675 720.341184 
L 1068.852712 719.904627 
L 1070.06175 719.900299 
L 1071.270787 719.631564 
L 1072.479825 719.656569 
L 1073.688862 714.310075 
L 1074.8979 714.305438 
L 1076.106937 712.677284 
L 1077.315975 712.675404 
L 1078.525012 715.446942 
L 1079.73405 715.477333 
L 1080.943087 717.324501 
L 1082.152125 717.312755 
L 1083.361162 716.253355 
L 1084.5702 716.261316 
L 1085.779237 723.641878 
L 1086.988275 723.641721 
L 1088.197312 723.208382 
L 1089.40635 723.214293 
L 1090.615387 715.980035 
L 1091.824425 714.517904 
L 1093.033462 719.01637 
L 1094.2425 719.017326 
L 1095.451537 715.750588 
L 1096.660575 715.880673 
L 1097.869612 717.747134 
L 1099.07865 717.734393 
L 1100.287687 720.520677 
L 1101.496725 720.527261 
L 1102.705762 714.397315 
L 1103.9148 714.400277 
L 1105.123837 714.588965 
L 1106.332875 714.540424 
L 1107.541912 721.818951 
L 1108.75095 721.819309 
L 1109.959987 724.221828 
L 1111.169025 724.19758 
L 1112.378062 723.276495 
L 1113.5871 723.309939 
L 1114.796137 726.292302 
L 1116.005175 726.28758 
L 1117.214212 729.3443 
L 1118.42325 729.344581 
L 1119.632287 727.001966 
L 1120.841325 727.067206 
L 1122.050362 726.789133 
L 1123.2594 726.972644 
L 1124.468437 726.664106 
L 1125.677475 725.322151 
L 1126.886512 727.340441 
L 1128.09555 727.364389 
L 1129.304587 727.946382 
L 1130.513625 727.743065 
L 1131.722662 726.670201 
L 1132.9317 726.822987 
L 1134.140737 728.188987 
L 1135.349775 728.173926 
L 1136.558812 731.060775 
L 1137.76785 731.137871 
L 1138.976887 730.800632 
L 1140.185925 730.791104 
L 1141.394962 726.797385 
L 1142.604 726.793013 
L 1143.813037 728.628734 
L 1145.022075 728.628075 
L 1146.231112 729.26752 
L 1147.44015 729.270807 
L 1148.649187 727.698415 
L 1149.858225 727.655478 
L 1151.067262 726.173969 
L 1152.2763 726.170703 
L 1153.485337 725.978835 
L 1154.694375 726.025859 
L 1155.903412 725.449117 
L 1157.11245 725.453006 
L 1158.321487 724.2458 
L 1159.530525 724.237847 
L 1160.739562 725.704869 
L 1161.9486 725.70388 
L 1163.157637 730.041968 
L 1164.366675 730.02977 
L 1165.575712 725.173998 
L 1166.78475 725.606688 
L 1167.993787 725.596179 
L 1169.202825 726.477633 
L 1171.6209 726.507549 
L 1172.829937 728.840588 
L 1174.038975 723.835873 
L 1175.248012 723.838811 
L 1176.45705 724.78445 
L 1177.666087 729.768978 
L 1180.084162 729.721716 
L 1181.2932 729.875692 
L 1182.502237 729.712489 
L 1183.711275 729.712489 
L 1184.920312 729.432063 
L 1186.12935 729.475637 
L 1187.338387 730.031622 
L 1188.547425 730.048096 
L 1189.756462 729.311385 
L 1190.9655 729.328021 
L 1192.174537 729.113233 
L 1193.383575 729.12003 
L 1194.592612 728.582008 
L 1198.219725 728.634807 
L 1199.428762 727.902633 
L 1200.6378 727.901272 
L 1201.846837 727.401452 
L 1203.055875 727.416308 
L 1204.264912 726.605099 
L 1205.47395 726.605132 
L 1206.682987 724.983701 
L 1207.892025 724.983701 
L 1209.101062 723.791158 
L 1210.3101 723.810056 
L 1211.519137 723.056846 
L 1212.728175 723.056191 
L 1213.937212 723.235216 
L 1215.14625 723.239026 
L 1216.355287 722.774622 
L 1217.564325 722.772853 
L 1218.773362 721.808822 
L 1219.9824 721.809527 
L 1221.191437 721.643774 
L 1222.400475 721.6456 
L 1223.609512 720.529865 
L 1227.236625 720.506918 
L 1228.445662 719.550911 
L 1229.6547 719.554495 
L 1230.863737 718.307188 
L 1232.072775 718.307306 
L 1233.281812 717.735169 
L 1234.49085 717.735624 
L 1235.699887 716.80428 
L 1241.745075 716.766028 
L 1242.954112 716.314596 
L 1244.16315 716.315405 
L 1245.372187 715.242245 
L 1246.581225 715.242114 
L 1247.790262 714.757792 
L 1248.9993 714.752223 
L 1250.208337 714.483081 
L 1251.417375 714.483081 
L 1252.626412 714.111898 
L 1256.253525 714.039758 
L 1257.462562 713.695736 
L 1258.6716 713.697723 
L 1259.880637 713.238933 
L 1261.089675 713.238951 
L 1262.298712 713.081201 
L 1265.925825 713.011019 
L 1267.134862 712.747354 
L 1268.3439 712.747426 
L 1269.552937 712.553155 
L 1273.18005 712.520983 
L 1274.389087 712.310881 
L 1275.598125 712.310881 
L 1276.807162 711.846531 
L 1278.0162 711.847681 
L 1279.225237 711.668589 
L 1280.434275 711.668284 
L 1281.643312 711.516209 
L 1285.270425 711.409348 
L 1286.479462 711.094479 
L 1290.106575 711.020193 
L 1296.151762 710.749258 
L 1299.778875 710.723442 
L 1303.405987 710.513262 
L 1304.615025 710.513827 
L 1305.824062 710.386104 
L 1309.451175 710.350537 
L 1310.660212 710.228802 
L 1311.86925 710.22823 
L 1313.078287 710.061556 
L 1316.7054 709.986141 
L 1325.168662 709.816618 
L 1336.05 709.724028 
L 1336.05 709.724028 
" style="fill:none;stroke:#008000;stroke-linecap:square;stroke-width:2.0;"/>
   </g>
   <g id="patch_3">
    <path d="M 127.0125 51.3 
L 1336.05 51.3 
" style="fill:none;stroke:#000000;stroke-linecap:square;stroke-linejoin:miter;"/>
   </g>
   <g id="patch_4">
    <path d="M 1336.05 747 
L 1336.05 51.3 
" style="fill:none;stroke:#000000;stroke-linecap:square;stroke-linejoin:miter;"/>
   </g>
   <g id="patch_5">
    <path d="M 127.0125 747 
L 1336.05 747 
" style="fill:none;stroke:#000000;stroke-linecap:square;stroke-linejoin:miter;"/>
   </g>
   <g id="patch_6">
    <path d="M 127.0125 747 
L 127.0125 51.3 
" style="fill:none;stroke:#000000;stroke-linecap:square;stroke-linejoin:miter;"/>
   </g>
   <g id="matplotlib.axis_1">
    <g id="xtick_1">
     <g id="line2d_3">
      <defs>
       <path d="M 0 0 
L 0 -4 
" id="m03b6493dcf" style="stroke:#000000;stroke-width:0.5;"/>
      </defs>
      <g>
       <use style="stroke:#000000;stroke-width:0.5;" x="127.0125" xlink:href="#m03b6493dcf" y="747.0"/>
      </g>
     </g>
     <g id="line2d_4">
      <defs>
       <path d="M 0 0 
L 0 4 
" id="m694c597f9d" style="stroke:#000000;stroke-width:0.5;"/>
      </defs>
      <g>
       <use style="stroke:#000000;stroke-width:0.5;" x="127.0125" xlink:href="#m694c597f9d" y="51.3"/>
      </g>
     </g>
     <g id="text_1">
      <!-- 0 -->
      <defs>
       <path d="M 31.78125 66.40625 
Q 24.171875 66.40625 20.328125 58.90625 
Q 16.5 51.421875 16.5 36.375 
Q 16.5 21.390625 20.328125 13.890625 
Q 24.171875 6.390625 31.78125 6.390625 
Q 39.453125 6.390625 43.28125 13.890625 
Q 47.125 21.390625 47.125 36.375 
Q 47.125 51.421875 43.28125 58.90625 
Q 39.453125 66.40625 31.78125 66.40625 
M 31.78125 74.21875 
Q 44.046875 74.21875 50.515625 64.515625 
Q 56.984375 54.828125 56.984375 36.375 
Q 56.984375 17.96875 50.515625 8.265625 
Q 44.046875 -1.421875 31.78125 -1.421875 
Q 19.53125 -1.421875 13.0625 8.265625 
Q 6.59375 17.96875 6.59375 36.375 
Q 6.59375 54.828125 13.0625 64.515625 
Q 19.53125 74.21875 31.78125 74.21875 
" id="BitstreamVeraSans-Roman-30"/>
      </defs>
      <g transform="translate(117.46875 773.7953125)scale(0.3 -0.3)">
       <use xlink:href="#BitstreamVeraSans-Roman-30"/>
      </g>
     </g>
    </g>
    <g id="xtick_2">
     <g id="line2d_5">
      <g>
       <use style="stroke:#000000;stroke-width:0.5;" x="368.82" xlink:href="#m03b6493dcf" y="747.0"/>
      </g>
     </g>
     <g id="line2d_6">
      <g>
       <use style="stroke:#000000;stroke-width:0.5;" x="368.82" xlink:href="#m694c597f9d" y="51.3"/>
      </g>
     </g>
     <g id="text_2">
      <!-- 20000 -->
      <defs>
       <path d="M 19.1875 8.296875 
L 53.609375 8.296875 
L 53.609375 0 
L 7.328125 0 
L 7.328125 8.296875 
Q 12.9375 14.109375 22.625 23.890625 
Q 32.328125 33.6875 34.8125 36.53125 
Q 39.546875 41.84375 41.421875 45.53125 
Q 43.3125 49.21875 43.3125 52.78125 
Q 43.3125 58.59375 39.234375 62.25 
Q 35.15625 65.921875 28.609375 65.921875 
Q 23.96875 65.921875 18.8125 64.3125 
Q 13.671875 62.703125 7.8125 59.421875 
L 7.8125 69.390625 
Q 13.765625 71.78125 18.9375 73 
Q 24.125 74.21875 28.421875 74.21875 
Q 39.75 74.21875 46.484375 68.546875 
Q 53.21875 62.890625 53.21875 53.421875 
Q 53.21875 48.921875 51.53125 44.890625 
Q 49.859375 40.875 45.40625 35.40625 
Q 44.1875 33.984375 37.640625 27.21875 
Q 31.109375 20.453125 19.1875 8.296875 
" id="BitstreamVeraSans-Roman-32"/>
      </defs>
      <g transform="translate(321.10125 773.7953125)scale(0.3 -0.3)">
       <use xlink:href="#BitstreamVeraSans-Roman-32"/>
       <use x="63.623046875" xlink:href="#BitstreamVeraSans-Roman-30"/>
       <use x="127.24609375" xlink:href="#BitstreamVeraSans-Roman-30"/>
       <use x="190.869140625" xlink:href="#BitstreamVeraSans-Roman-30"/>
       <use x="254.4921875" xlink:href="#BitstreamVeraSans-Roman-30"/>
      </g>
     </g>
    </g>
    <g id="xtick_3">
     <g id="line2d_7">
      <g>
       <use style="stroke:#000000;stroke-width:0.5;" x="610.6275" xlink:href="#m03b6493dcf" y="747.0"/>
      </g>
     </g>
     <g id="line2d_8">
      <g>
       <use style="stroke:#000000;stroke-width:0.5;" x="610.6275" xlink:href="#m694c597f9d" y="51.3"/>
      </g>
     </g>
     <g id="text_3">
      <!-- 40000 -->
      <defs>
       <path d="M 37.796875 64.3125 
L 12.890625 25.390625 
L 37.796875 25.390625 
z
M 35.203125 72.90625 
L 47.609375 72.90625 
L 47.609375 25.390625 
L 58.015625 25.390625 
L 58.015625 17.1875 
L 47.609375 17.1875 
L 47.609375 0 
L 37.796875 0 
L 37.796875 17.1875 
L 4.890625 17.1875 
L 4.890625 26.703125 
z
" id="BitstreamVeraSans-Roman-34"/>
      </defs>
      <g transform="translate(562.90875 773.7953125)scale(0.3 -0.3)">
       <use xlink:href="#BitstreamVeraSans-Roman-34"/>
       <use x="63.623046875" xlink:href="#BitstreamVeraSans-Roman-30"/>
       <use x="127.24609375" xlink:href="#BitstreamVeraSans-Roman-30"/>
       <use x="190.869140625" xlink:href="#BitstreamVeraSans-Roman-30"/>
       <use x="254.4921875" xlink:href="#BitstreamVeraSans-Roman-30"/>
      </g>
     </g>
    </g>
    <g id="xtick_4">
     <g id="line2d_9">
      <g>
       <use style="stroke:#000000;stroke-width:0.5;" x="852.435" xlink:href="#m03b6493dcf" y="747.0"/>
      </g>
     </g>
     <g id="line2d_10">
      <g>
       <use style="stroke:#000000;stroke-width:0.5;" x="852.435" xlink:href="#m694c597f9d" y="51.3"/>
      </g>
     </g>
     <g id="text_4">
      <!-- 60000 -->
      <defs>
       <path d="M 33.015625 40.375 
Q 26.375 40.375 22.484375 35.828125 
Q 18.609375 31.296875 18.609375 23.390625 
Q 18.609375 15.53125 22.484375 10.953125 
Q 26.375 6.390625 33.015625 6.390625 
Q 39.65625 6.390625 43.53125 10.953125 
Q 47.40625 15.53125 47.40625 23.390625 
Q 47.40625 31.296875 43.53125 35.828125 
Q 39.65625 40.375 33.015625 40.375 
M 52.59375 71.296875 
L 52.59375 62.3125 
Q 48.875 64.0625 45.09375 64.984375 
Q 41.3125 65.921875 37.59375 65.921875 
Q 27.828125 65.921875 22.671875 59.328125 
Q 17.53125 52.734375 16.796875 39.40625 
Q 19.671875 43.65625 24.015625 45.921875 
Q 28.375 48.1875 33.59375 48.1875 
Q 44.578125 48.1875 50.953125 41.515625 
Q 57.328125 34.859375 57.328125 23.390625 
Q 57.328125 12.15625 50.6875 5.359375 
Q 44.046875 -1.421875 33.015625 -1.421875 
Q 20.359375 -1.421875 13.671875 8.265625 
Q 6.984375 17.96875 6.984375 36.375 
Q 6.984375 53.65625 15.1875 63.9375 
Q 23.390625 74.21875 37.203125 74.21875 
Q 40.921875 74.21875 44.703125 73.484375 
Q 48.484375 72.75 52.59375 71.296875 
" id="BitstreamVeraSans-Roman-36"/>
      </defs>
      <g transform="translate(804.71625 773.7953125)scale(0.3 -0.3)">
       <use xlink:href="#BitstreamVeraSans-Roman-36"/>
       <use x="63.623046875" xlink:href="#BitstreamVeraSans-Roman-30"/>
       <use x="127.24609375" xlink:href="#BitstreamVeraSans-Roman-30"/>
       <use x="190.869140625" xlink:href="#BitstreamVeraSans-Roman-30"/>
       <use x="254.4921875" xlink:href="#BitstreamVeraSans-Roman-30"/>
      </g>
     </g>
    </g>
    <g id="xtick_5">
     <g id="line2d_11">
      <g>
       <use style="stroke:#000000;stroke-width:0.5;" x="1094.2425" xlink:href="#m03b6493dcf" y="747.0"/>
      </g>
     </g>
     <g id="line2d_12">
      <g>
       <use style="stroke:#000000;stroke-width:0.5;" x="1094.2425" xlink:href="#m694c597f9d" y="51.3"/>
      </g>
     </g>
     <g id="text_5">
      <!-- 80000 -->
      <defs>
       <path d="M 31.78125 34.625 
Q 24.75 34.625 20.71875 30.859375 
Q 16.703125 27.09375 16.703125 20.515625 
Q 16.703125 13.921875 20.71875 10.15625 
Q 24.75 6.390625 31.78125 6.390625 
Q 38.8125 6.390625 42.859375 10.171875 
Q 46.921875 13.96875 46.921875 20.515625 
Q 46.921875 27.09375 42.890625 30.859375 
Q 38.875 34.625 31.78125 34.625 
M 21.921875 38.8125 
Q 15.578125 40.375 12.03125 44.71875 
Q 8.5 49.078125 8.5 55.328125 
Q 8.5 64.0625 14.71875 69.140625 
Q 20.953125 74.21875 31.78125 74.21875 
Q 42.671875 74.21875 48.875 69.140625 
Q 55.078125 64.0625 55.078125 55.328125 
Q 55.078125 49.078125 51.53125 44.71875 
Q 48 40.375 41.703125 38.8125 
Q 48.828125 37.15625 52.796875 32.3125 
Q 56.78125 27.484375 56.78125 20.515625 
Q 56.78125 9.90625 50.3125 4.234375 
Q 43.84375 -1.421875 31.78125 -1.421875 
Q 19.734375 -1.421875 13.25 4.234375 
Q 6.78125 9.90625 6.78125 20.515625 
Q 6.78125 27.484375 10.78125 32.3125 
Q 14.796875 37.15625 21.921875 38.8125 
M 18.3125 54.390625 
Q 18.3125 48.734375 21.84375 45.5625 
Q 25.390625 42.390625 31.78125 42.390625 
Q 38.140625 42.390625 41.71875 45.5625 
Q 45.3125 48.734375 45.3125 54.390625 
Q 45.3125 60.0625 41.71875 63.234375 
Q 38.140625 66.40625 31.78125 66.40625 
Q 25.390625 66.40625 21.84375 63.234375 
Q 18.3125 60.0625 18.3125 54.390625 
" id="BitstreamVeraSans-Roman-38"/>
      </defs>
      <g transform="translate(1046.52375 773.7953125)scale(0.3 -0.3)">
       <use xlink:href="#BitstreamVeraSans-Roman-38"/>
       <use x="63.623046875" xlink:href="#BitstreamVeraSans-Roman-30"/>
       <use x="127.24609375" xlink:href="#BitstreamVeraSans-Roman-30"/>
       <use x="190.869140625" xlink:href="#BitstreamVeraSans-Roman-30"/>
       <use x="254.4921875" xlink:href="#BitstreamVeraSans-Roman-30"/>
      </g>
     </g>
    </g>
    <g id="xtick_6">
     <g id="line2d_13">
      <g>
       <use style="stroke:#000000;stroke-width:0.5;" x="1336.05" xlink:href="#m03b6493dcf" y="747.0"/>
      </g>
     </g>
     <g id="line2d_14">
      <g>
       <use style="stroke:#000000;stroke-width:0.5;" x="1336.05" xlink:href="#m694c597f9d" y="51.3"/>
      </g>
     </g>
     <g id="text_6">
      <!-- 100000 -->
      <defs>
       <path d="M 12.40625 8.296875 
L 28.515625 8.296875 
L 28.515625 63.921875 
L 10.984375 60.40625 
L 10.984375 69.390625 
L 28.421875 72.90625 
L 38.28125 72.90625 
L 38.28125 8.296875 
L 54.390625 8.296875 
L 54.390625 0 
L 12.40625 0 
z
" id="BitstreamVeraSans-Roman-31"/>
      </defs>
      <g transform="translate(1278.7875 773.7953125)scale(0.3 -0.3)">
       <use xlink:href="#BitstreamVeraSans-Roman-31"/>
       <use x="63.623046875" xlink:href="#BitstreamVeraSans-Roman-30"/>
       <use x="127.24609375" xlink:href="#BitstreamVeraSans-Roman-30"/>
       <use x="190.869140625" xlink:href="#BitstreamVeraSans-Roman-30"/>
       <use x="254.4921875" xlink:href="#BitstreamVeraSans-Roman-30"/>
       <use x="318.115234375" xlink:href="#BitstreamVeraSans-Roman-30"/>
      </g>
     </g>
    </g>
    <g id="text_7">
     <!-- iterations -->
     <defs>
      <path d="M 54.890625 33.015625 
L 54.890625 0 
L 45.90625 0 
L 45.90625 32.71875 
Q 45.90625 40.484375 42.875 44.328125 
Q 39.84375 48.1875 33.796875 48.1875 
Q 26.515625 48.1875 22.3125 43.546875 
Q 18.109375 38.921875 18.109375 30.90625 
L 18.109375 0 
L 9.078125 0 
L 9.078125 54.6875 
L 18.109375 54.6875 
L 18.109375 46.1875 
Q 21.34375 51.125 25.703125 53.5625 
Q 30.078125 56 35.796875 56 
Q 45.21875 56 50.046875 50.171875 
Q 54.890625 44.34375 54.890625 33.015625 
" id="BitstreamVeraSans-Roman-6e"/>
      <path d="M 34.28125 27.484375 
Q 23.390625 27.484375 19.1875 25 
Q 14.984375 22.515625 14.984375 16.5 
Q 14.984375 11.71875 18.140625 8.90625 
Q 21.296875 6.109375 26.703125 6.109375 
Q 34.1875 6.109375 38.703125 11.40625 
Q 43.21875 16.703125 43.21875 25.484375 
L 43.21875 27.484375 
z
M 52.203125 31.203125 
L 52.203125 0 
L 43.21875 0 
L 43.21875 8.296875 
Q 40.140625 3.328125 35.546875 0.953125 
Q 30.953125 -1.421875 24.3125 -1.421875 
Q 15.921875 -1.421875 10.953125 3.296875 
Q 6 8.015625 6 15.921875 
Q 6 25.140625 12.171875 29.828125 
Q 18.359375 34.515625 30.609375 34.515625 
L 43.21875 34.515625 
L 43.21875 35.40625 
Q 43.21875 41.609375 39.140625 45 
Q 35.0625 48.390625 27.6875 48.390625 
Q 23 48.390625 18.546875 47.265625 
Q 14.109375 46.140625 10.015625 43.890625 
L 10.015625 52.203125 
Q 14.9375 54.109375 19.578125 55.046875 
Q 24.21875 56 28.609375 56 
Q 40.484375 56 46.34375 49.84375 
Q 52.203125 43.703125 52.203125 31.203125 
" id="BitstreamVeraSans-Roman-61"/>
      <path d="M 30.609375 48.390625 
Q 23.390625 48.390625 19.1875 42.75 
Q 14.984375 37.109375 14.984375 27.296875 
Q 14.984375 17.484375 19.15625 11.84375 
Q 23.34375 6.203125 30.609375 6.203125 
Q 37.796875 6.203125 41.984375 11.859375 
Q 46.1875 17.53125 46.1875 27.296875 
Q 46.1875 37.015625 41.984375 42.703125 
Q 37.796875 48.390625 30.609375 48.390625 
M 30.609375 56 
Q 42.328125 56 49.015625 48.375 
Q 55.71875 40.765625 55.71875 27.296875 
Q 55.71875 13.875 49.015625 6.21875 
Q 42.328125 -1.421875 30.609375 -1.421875 
Q 18.84375 -1.421875 12.171875 6.21875 
Q 5.515625 13.875 5.515625 27.296875 
Q 5.515625 40.765625 12.171875 48.375 
Q 18.84375 56 30.609375 56 
" id="BitstreamVeraSans-Roman-6f"/>
      <path d="M 9.421875 54.6875 
L 18.40625 54.6875 
L 18.40625 0 
L 9.421875 0 
z
M 9.421875 75.984375 
L 18.40625 75.984375 
L 18.40625 64.59375 
L 9.421875 64.59375 
z
" id="BitstreamVeraSans-Roman-69"/>
      <path d="M 56.203125 29.59375 
L 56.203125 25.203125 
L 14.890625 25.203125 
Q 15.484375 15.921875 20.484375 11.0625 
Q 25.484375 6.203125 34.421875 6.203125 
Q 39.59375 6.203125 44.453125 7.46875 
Q 49.3125 8.734375 54.109375 11.28125 
L 54.109375 2.78125 
Q 49.265625 0.734375 44.1875 -0.34375 
Q 39.109375 -1.421875 33.890625 -1.421875 
Q 20.796875 -1.421875 13.15625 6.1875 
Q 5.515625 13.8125 5.515625 26.8125 
Q 5.515625 40.234375 12.765625 48.109375 
Q 20.015625 56 32.328125 56 
Q 43.359375 56 49.78125 48.890625 
Q 56.203125 41.796875 56.203125 29.59375 
M 47.21875 32.234375 
Q 47.125 39.59375 43.09375 43.984375 
Q 39.0625 48.390625 32.421875 48.390625 
Q 24.90625 48.390625 20.390625 44.140625 
Q 15.875 39.890625 15.1875 32.171875 
z
" id="BitstreamVeraSans-Roman-65"/>
      <path d="M 18.3125 70.21875 
L 18.3125 54.6875 
L 36.8125 54.6875 
L 36.8125 47.703125 
L 18.3125 47.703125 
L 18.3125 18.015625 
Q 18.3125 11.328125 20.140625 9.421875 
Q 21.96875 7.515625 27.59375 7.515625 
L 36.8125 7.515625 
L 36.8125 0 
L 27.59375 0 
Q 17.1875 0 13.234375 3.875 
Q 9.28125 7.765625 9.28125 18.015625 
L 9.28125 47.703125 
L 2.6875 47.703125 
L 2.6875 54.6875 
L 9.28125 54.6875 
L 9.28125 70.21875 
z
" id="BitstreamVeraSans-Roman-74"/>
      <path d="M 41.109375 46.296875 
Q 39.59375 47.171875 37.8125 47.578125 
Q 36.03125 48 33.890625 48 
Q 26.265625 48 22.1875 43.046875 
Q 18.109375 38.09375 18.109375 28.8125 
L 18.109375 0 
L 9.078125 0 
L 9.078125 54.6875 
L 18.109375 54.6875 
L 18.109375 46.1875 
Q 20.953125 51.171875 25.484375 53.578125 
Q 30.03125 56 36.53125 56 
Q 37.453125 56 38.578125 55.875 
Q 39.703125 55.765625 41.0625 55.515625 
z
" id="BitstreamVeraSans-Roman-72"/>
      <path d="M 44.28125 53.078125 
L 44.28125 44.578125 
Q 40.484375 46.53125 36.375 47.5 
Q 32.28125 48.484375 27.875 48.484375 
Q 21.1875 48.484375 17.84375 46.4375 
Q 14.5 44.390625 14.5 40.28125 
Q 14.5 37.15625 16.890625 35.375 
Q 19.28125 33.59375 26.515625 31.984375 
L 29.59375 31.296875 
Q 39.15625 29.25 43.1875 25.515625 
Q 47.21875 21.78125 47.21875 15.09375 
Q 47.21875 7.46875 41.1875 3.015625 
Q 35.15625 -1.421875 24.609375 -1.421875 
Q 20.21875 -1.421875 15.453125 -0.5625 
Q 10.6875 0.296875 5.421875 2 
L 5.421875 11.28125 
Q 10.40625 8.6875 15.234375 7.390625 
Q 20.0625 6.109375 24.8125 6.109375 
Q 31.15625 6.109375 34.5625 8.28125 
Q 37.984375 10.453125 37.984375 14.40625 
Q 37.984375 18.0625 35.515625 20.015625 
Q 33.0625 21.96875 24.703125 23.78125 
L 21.578125 24.515625 
Q 13.234375 26.265625 9.515625 29.90625 
Q 5.8125 33.546875 5.8125 39.890625 
Q 5.8125 47.609375 11.28125 51.796875 
Q 16.75 56 26.8125 56 
Q 31.78125 56 36.171875 55.265625 
Q 40.578125 54.546875 44.28125 53.078125 
" id="BitstreamVeraSans-Roman-73"/>
     </defs>
     <g transform="translate(660.34921875 807.8296875)scale(0.3 -0.3)">
      <use xlink:href="#BitstreamVeraSans-Roman-69"/>
      <use x="27.783203125" xlink:href="#BitstreamVeraSans-Roman-74"/>
      <use x="66.9921875" xlink:href="#BitstreamVeraSans-Roman-65"/>
      <use x="128.515625" xlink:href="#BitstreamVeraSans-Roman-72"/>
      <use x="169.62890625" xlink:href="#BitstreamVeraSans-Roman-61"/>
      <use x="230.908203125" xlink:href="#BitstreamVeraSans-Roman-74"/>
      <use x="270.1171875" xlink:href="#BitstreamVeraSans-Roman-69"/>
      <use x="297.900390625" xlink:href="#BitstreamVeraSans-Roman-6f"/>
      <use x="359.08203125" xlink:href="#BitstreamVeraSans-Roman-6e"/>
      <use x="422.4609375" xlink:href="#BitstreamVeraSans-Roman-73"/>
     </g>
    </g>
   </g>
   <g id="matplotlib.axis_2">
    <g id="ytick_1">
     <g id="line2d_15">
      <defs>
       <path d="M 0 0 
L 4 0 
" id="m1ff36141ba" style="stroke:#000000;stroke-width:0.5;"/>
      </defs>
      <g>
       <use style="stroke:#000000;stroke-width:0.5;" x="127.0125" xlink:href="#m1ff36141ba" y="747.0"/>
      </g>
     </g>
     <g id="line2d_16">
      <defs>
       <path d="M 0 0 
L -4 0 
" id="m31ca79a6e4" style="stroke:#000000;stroke-width:0.5;"/>
      </defs>
      <g>
       <use style="stroke:#000000;stroke-width:0.5;" x="1336.05" xlink:href="#m31ca79a6e4" y="747.0"/>
      </g>
     </g>
     <g id="text_8">
      <!-- 4 -->
      <g transform="translate(103.925 755.278125)scale(0.3 -0.3)">
       <use xlink:href="#BitstreamVeraSans-Roman-34"/>
      </g>
     </g>
    </g>
    <g id="ytick_2">
     <g id="line2d_17">
      <g>
       <use style="stroke:#000000;stroke-width:0.5;" x="127.0125" xlink:href="#m1ff36141ba" y="669.7"/>
      </g>
     </g>
     <g id="line2d_18">
      <g>
       <use style="stroke:#000000;stroke-width:0.5;" x="1336.05" xlink:href="#m31ca79a6e4" y="669.7"/>
      </g>
     </g>
     <g id="text_9">
      <!-- 5 -->
      <defs>
       <path d="M 10.796875 72.90625 
L 49.515625 72.90625 
L 49.515625 64.59375 
L 19.828125 64.59375 
L 19.828125 46.734375 
Q 21.96875 47.46875 24.109375 47.828125 
Q 26.265625 48.1875 28.421875 48.1875 
Q 40.625 48.1875 47.75 41.5 
Q 54.890625 34.8125 54.890625 23.390625 
Q 54.890625 11.625 47.5625 5.09375 
Q 40.234375 -1.421875 26.90625 -1.421875 
Q 22.3125 -1.421875 17.546875 -0.640625 
Q 12.796875 0.140625 7.71875 1.703125 
L 7.71875 11.625 
Q 12.109375 9.234375 16.796875 8.0625 
Q 21.484375 6.890625 26.703125 6.890625 
Q 35.15625 6.890625 40.078125 11.328125 
Q 45.015625 15.765625 45.015625 23.390625 
Q 45.015625 31 40.078125 35.4375 
Q 35.15625 39.890625 26.703125 39.890625 
Q 22.75 39.890625 18.8125 39.015625 
Q 14.890625 38.140625 10.796875 36.28125 
z
" id="BitstreamVeraSans-Roman-35"/>
      </defs>
      <g transform="translate(103.925 677.978125)scale(0.3 -0.3)">
       <use xlink:href="#BitstreamVeraSans-Roman-35"/>
      </g>
     </g>
    </g>
    <g id="ytick_3">
     <g id="line2d_19">
      <g>
       <use style="stroke:#000000;stroke-width:0.5;" x="127.0125" xlink:href="#m1ff36141ba" y="592.4"/>
      </g>
     </g>
     <g id="line2d_20">
      <g>
       <use style="stroke:#000000;stroke-width:0.5;" x="1336.05" xlink:href="#m31ca79a6e4" y="592.4"/>
      </g>
     </g>
     <g id="text_10">
      <!-- 6 -->
      <g transform="translate(103.925 600.678125)scale(0.3 -0.3)">
       <use xlink:href="#BitstreamVeraSans-Roman-36"/>
      </g>
     </g>
    </g>
    <g id="ytick_4">
     <g id="line2d_21">
      <g>
       <use style="stroke:#000000;stroke-width:0.5;" x="127.0125" xlink:href="#m1ff36141ba" y="515.1"/>
      </g>
     </g>
     <g id="line2d_22">
      <g>
       <use style="stroke:#000000;stroke-width:0.5;" x="1336.05" xlink:href="#m31ca79a6e4" y="515.1"/>
      </g>
     </g>
     <g id="text_11">
      <!-- 7 -->
      <defs>
       <path d="M 8.203125 72.90625 
L 55.078125 72.90625 
L 55.078125 68.703125 
L 28.609375 0 
L 18.3125 0 
L 43.21875 64.59375 
L 8.203125 64.59375 
z
" id="BitstreamVeraSans-Roman-37"/>
      </defs>
      <g transform="translate(103.925 523.378125)scale(0.3 -0.3)">
       <use xlink:href="#BitstreamVeraSans-Roman-37"/>
      </g>
     </g>
    </g>
    <g id="ytick_5">
     <g id="line2d_23">
      <g>
       <use style="stroke:#000000;stroke-width:0.5;" x="127.0125" xlink:href="#m1ff36141ba" y="437.8"/>
      </g>
     </g>
     <g id="line2d_24">
      <g>
       <use style="stroke:#000000;stroke-width:0.5;" x="1336.05" xlink:href="#m31ca79a6e4" y="437.8"/>
      </g>
     </g>
     <g id="text_12">
      <!-- 8 -->
      <g transform="translate(103.925 446.078125)scale(0.3 -0.3)">
       <use xlink:href="#BitstreamVeraSans-Roman-38"/>
      </g>
     </g>
    </g>
    <g id="ytick_6">
     <g id="line2d_25">
      <g>
       <use style="stroke:#000000;stroke-width:0.5;" x="127.0125" xlink:href="#m1ff36141ba" y="360.5"/>
      </g>
     </g>
     <g id="line2d_26">
      <g>
       <use style="stroke:#000000;stroke-width:0.5;" x="1336.05" xlink:href="#m31ca79a6e4" y="360.5"/>
      </g>
     </g>
     <g id="text_13">
      <!-- 9 -->
      <defs>
       <path d="M 10.984375 1.515625 
L 10.984375 10.5 
Q 14.703125 8.734375 18.5 7.8125 
Q 22.3125 6.890625 25.984375 6.890625 
Q 35.75 6.890625 40.890625 13.453125 
Q 46.046875 20.015625 46.78125 33.40625 
Q 43.953125 29.203125 39.59375 26.953125 
Q 35.25 24.703125 29.984375 24.703125 
Q 19.046875 24.703125 12.671875 31.3125 
Q 6.296875 37.9375 6.296875 49.421875 
Q 6.296875 60.640625 12.9375 67.421875 
Q 19.578125 74.21875 30.609375 74.21875 
Q 43.265625 74.21875 49.921875 64.515625 
Q 56.59375 54.828125 56.59375 36.375 
Q 56.59375 19.140625 48.40625 8.859375 
Q 40.234375 -1.421875 26.421875 -1.421875 
Q 22.703125 -1.421875 18.890625 -0.6875 
Q 15.09375 0.046875 10.984375 1.515625 
M 30.609375 32.421875 
Q 37.25 32.421875 41.125 36.953125 
Q 45.015625 41.5 45.015625 49.421875 
Q 45.015625 57.28125 41.125 61.84375 
Q 37.25 66.40625 30.609375 66.40625 
Q 23.96875 66.40625 20.09375 61.84375 
Q 16.21875 57.28125 16.21875 49.421875 
Q 16.21875 41.5 20.09375 36.953125 
Q 23.96875 32.421875 30.609375 32.421875 
" id="BitstreamVeraSans-Roman-39"/>
      </defs>
      <g transform="translate(103.925 368.778125)scale(0.3 -0.3)">
       <use xlink:href="#BitstreamVeraSans-Roman-39"/>
      </g>
     </g>
    </g>
    <g id="ytick_7">
     <g id="line2d_27">
      <g>
       <use style="stroke:#000000;stroke-width:0.5;" x="127.0125" xlink:href="#m1ff36141ba" y="283.2"/>
      </g>
     </g>
     <g id="line2d_28">
      <g>
       <use style="stroke:#000000;stroke-width:0.5;" x="1336.05" xlink:href="#m31ca79a6e4" y="283.2"/>
      </g>
     </g>
     <g id="text_14">
      <!-- 10 -->
      <g transform="translate(84.8375 291.478125)scale(0.3 -0.3)">
       <use xlink:href="#BitstreamVeraSans-Roman-31"/>
       <use x="63.623046875" xlink:href="#BitstreamVeraSans-Roman-30"/>
      </g>
     </g>
    </g>
    <g id="ytick_8">
     <g id="line2d_29">
      <g>
       <use style="stroke:#000000;stroke-width:0.5;" x="127.0125" xlink:href="#m1ff36141ba" y="205.9"/>
      </g>
     </g>
     <g id="line2d_30">
      <g>
       <use style="stroke:#000000;stroke-width:0.5;" x="1336.05" xlink:href="#m31ca79a6e4" y="205.9"/>
      </g>
     </g>
     <g id="text_15">
      <!-- 11 -->
      <g transform="translate(84.8375 214.178125)scale(0.3 -0.3)">
       <use xlink:href="#BitstreamVeraSans-Roman-31"/>
       <use x="63.623046875" xlink:href="#BitstreamVeraSans-Roman-31"/>
      </g>
     </g>
    </g>
    <g id="ytick_9">
     <g id="line2d_31">
      <g>
       <use style="stroke:#000000;stroke-width:0.5;" x="127.0125" xlink:href="#m1ff36141ba" y="128.6"/>
      </g>
     </g>
     <g id="line2d_32">
      <g>
       <use style="stroke:#000000;stroke-width:0.5;" x="1336.05" xlink:href="#m31ca79a6e4" y="128.6"/>
      </g>
     </g>
     <g id="text_16">
      <!-- 12 -->
      <g transform="translate(84.8375 136.878125)scale(0.3 -0.3)">
       <use xlink:href="#BitstreamVeraSans-Roman-31"/>
       <use x="63.623046875" xlink:href="#BitstreamVeraSans-Roman-32"/>
      </g>
     </g>
    </g>
    <g id="ytick_10">
     <g id="line2d_33">
      <g>
       <use style="stroke:#000000;stroke-width:0.5;" x="127.0125" xlink:href="#m1ff36141ba" y="51.3"/>
      </g>
     </g>
     <g id="line2d_34">
      <g>
       <use style="stroke:#000000;stroke-width:0.5;" x="1336.05" xlink:href="#m31ca79a6e4" y="51.3"/>
      </g>
     </g>
     <g id="text_17">
      <!-- 13 -->
      <defs>
       <path d="M 40.578125 39.3125 
Q 47.65625 37.796875 51.625 33 
Q 55.609375 28.21875 55.609375 21.1875 
Q 55.609375 10.40625 48.1875 4.484375 
Q 40.765625 -1.421875 27.09375 -1.421875 
Q 22.515625 -1.421875 17.65625 -0.515625 
Q 12.796875 0.390625 7.625 2.203125 
L 7.625 11.71875 
Q 11.71875 9.328125 16.59375 8.109375 
Q 21.484375 6.890625 26.8125 6.890625 
Q 36.078125 6.890625 40.9375 10.546875 
Q 45.796875 14.203125 45.796875 21.1875 
Q 45.796875 27.640625 41.28125 31.265625 
Q 36.765625 34.90625 28.71875 34.90625 
L 20.21875 34.90625 
L 20.21875 43.015625 
L 29.109375 43.015625 
Q 36.375 43.015625 40.234375 45.921875 
Q 44.09375 48.828125 44.09375 54.296875 
Q 44.09375 59.90625 40.109375 62.90625 
Q 36.140625 65.921875 28.71875 65.921875 
Q 24.65625 65.921875 20.015625 65.03125 
Q 15.375 64.15625 9.8125 62.3125 
L 9.8125 71.09375 
Q 15.4375 72.65625 20.34375 73.4375 
Q 25.25 74.21875 29.59375 74.21875 
Q 40.828125 74.21875 47.359375 69.109375 
Q 53.90625 64.015625 53.90625 55.328125 
Q 53.90625 49.265625 50.4375 45.09375 
Q 46.96875 40.921875 40.578125 39.3125 
" id="BitstreamVeraSans-Roman-33"/>
      </defs>
      <g transform="translate(84.8375 59.578125)scale(0.3 -0.3)">
       <use xlink:href="#BitstreamVeraSans-Roman-31"/>
       <use x="63.623046875" xlink:href="#BitstreamVeraSans-Roman-33"/>
      </g>
     </g>
    </g>
    <g id="text_18">
     <!-- log(loss) -->
     <defs>
      <path d="M 8.015625 75.875 
L 15.828125 75.875 
Q 23.140625 64.359375 26.78125 53.3125 
Q 30.421875 42.28125 30.421875 31.390625 
Q 30.421875 20.453125 26.78125 9.375 
Q 23.140625 -1.703125 15.828125 -13.1875 
L 8.015625 -13.1875 
Q 14.5 -2 17.703125 9.0625 
Q 20.90625 20.125 20.90625 31.390625 
Q 20.90625 42.671875 17.703125 53.65625 
Q 14.5 64.65625 8.015625 75.875 
" id="BitstreamVeraSans-Roman-29"/>
      <path d="M 31 75.875 
Q 24.46875 64.65625 21.28125 53.65625 
Q 18.109375 42.671875 18.109375 31.390625 
Q 18.109375 20.125 21.3125 9.0625 
Q 24.515625 -2 31 -13.1875 
L 23.1875 -13.1875 
Q 15.875 -1.703125 12.234375 9.375 
Q 8.59375 20.453125 8.59375 31.390625 
Q 8.59375 42.28125 12.203125 53.3125 
Q 15.828125 64.359375 23.1875 75.875 
z
" id="BitstreamVeraSans-Roman-28"/>
      <path d="M 45.40625 27.984375 
Q 45.40625 37.75 41.375 43.109375 
Q 37.359375 48.484375 30.078125 48.484375 
Q 22.859375 48.484375 18.828125 43.109375 
Q 14.796875 37.75 14.796875 27.984375 
Q 14.796875 18.265625 18.828125 12.890625 
Q 22.859375 7.515625 30.078125 7.515625 
Q 37.359375 7.515625 41.375 12.890625 
Q 45.40625 18.265625 45.40625 27.984375 
M 54.390625 6.78125 
Q 54.390625 -7.171875 48.1875 -13.984375 
Q 42 -20.796875 29.203125 -20.796875 
Q 24.46875 -20.796875 20.265625 -20.09375 
Q 16.0625 -19.390625 12.109375 -17.921875 
L 12.109375 -9.1875 
Q 16.0625 -11.328125 19.921875 -12.34375 
Q 23.78125 -13.375 27.78125 -13.375 
Q 36.625 -13.375 41.015625 -8.765625 
Q 45.40625 -4.15625 45.40625 5.171875 
L 45.40625 9.625 
Q 42.625 4.78125 38.28125 2.390625 
Q 33.9375 0 27.875 0 
Q 17.828125 0 11.671875 7.65625 
Q 5.515625 15.328125 5.515625 27.984375 
Q 5.515625 40.671875 11.671875 48.328125 
Q 17.828125 56 27.875 56 
Q 33.9375 56 38.28125 53.609375 
Q 42.625 51.21875 45.40625 46.390625 
L 45.40625 54.6875 
L 54.390625 54.6875 
z
" id="BitstreamVeraSans-Roman-67"/>
      <path d="M 9.421875 75.984375 
L 18.40625 75.984375 
L 18.40625 0 
L 9.421875 0 
z
" id="BitstreamVeraSans-Roman-6c"/>
     </defs>
     <g transform="translate(73.5984375 462.69609375)rotate(-90.0)scale(0.3 -0.3)">
      <use xlink:href="#BitstreamVeraSans-Roman-6c"/>
      <use x="27.783203125" xlink:href="#BitstreamVeraSans-Roman-6f"/>
      <use x="88.96484375" xlink:href="#BitstreamVeraSans-Roman-67"/>
      <use x="152.44140625" xlink:href="#BitstreamVeraSans-Roman-28"/>
      <use x="191.455078125" xlink:href="#BitstreamVeraSans-Roman-6c"/>
      <use x="219.23828125" xlink:href="#BitstreamVeraSans-Roman-6f"/>
      <use x="280.419921875" xlink:href="#BitstreamVeraSans-Roman-73"/>
      <use x="332.51953125" xlink:href="#BitstreamVeraSans-Roman-73"/>
      <use x="384.619140625" xlink:href="#BitstreamVeraSans-Roman-29"/>
     </g>
    </g>
   </g>
   <g id="legend_1">
    <g id="patch_7">
     <path d="M 843.876562 163.36875 
L 1321.05 163.36875 
L 1321.05 66.3 
L 843.876562 66.3 
z
" style="fill:#ffffff;stroke:#000000;stroke-linejoin:miter;"/>
    </g>
    <g id="line2d_35">
     <path d="M 864.876562 90.595312 
L 906.876562 90.595312 
" style="fill:none;stroke:#0000ff;stroke-linecap:square;stroke-width:2.0;"/>
    </g>
    <g id="line2d_36"/>
    <g id="text_19">
     <!-- random: step=0.000620 -->
     <defs>
      <path id="BitstreamVeraSans-Roman-20"/>
      <path d="M 52 44.1875 
Q 55.375 50.25 60.0625 53.125 
Q 64.75 56 71.09375 56 
Q 79.640625 56 84.28125 50.015625 
Q 88.921875 44.046875 88.921875 33.015625 
L 88.921875 0 
L 79.890625 0 
L 79.890625 32.71875 
Q 79.890625 40.578125 77.09375 44.375 
Q 74.3125 48.1875 68.609375 48.1875 
Q 61.625 48.1875 57.5625 43.546875 
Q 53.515625 38.921875 53.515625 30.90625 
L 53.515625 0 
L 44.484375 0 
L 44.484375 32.71875 
Q 44.484375 40.625 41.703125 44.40625 
Q 38.921875 48.1875 33.109375 48.1875 
Q 26.21875 48.1875 22.15625 43.53125 
Q 18.109375 38.875 18.109375 30.90625 
L 18.109375 0 
L 9.078125 0 
L 9.078125 54.6875 
L 18.109375 54.6875 
L 18.109375 46.1875 
Q 21.1875 51.21875 25.484375 53.609375 
Q 29.78125 56 35.6875 56 
Q 41.65625 56 45.828125 52.96875 
Q 50 49.953125 52 44.1875 
" id="BitstreamVeraSans-Roman-6d"/>
      <path d="M 11.71875 12.40625 
L 22.015625 12.40625 
L 22.015625 0 
L 11.71875 0 
z
M 11.71875 51.703125 
L 22.015625 51.703125 
L 22.015625 39.3125 
L 11.71875 39.3125 
z
" id="BitstreamVeraSans-Roman-3a"/>
      <path d="M 10.6875 12.40625 
L 21 12.40625 
L 21 0 
L 10.6875 0 
z
" id="BitstreamVeraSans-Roman-2e"/>
      <path d="M 10.59375 45.40625 
L 73.1875 45.40625 
L 73.1875 37.203125 
L 10.59375 37.203125 
z
M 10.59375 25.484375 
L 73.1875 25.484375 
L 73.1875 17.1875 
L 10.59375 17.1875 
z
" id="BitstreamVeraSans-Roman-3d"/>
      <path d="M 45.40625 46.390625 
L 45.40625 75.984375 
L 54.390625 75.984375 
L 54.390625 0 
L 45.40625 0 
L 45.40625 8.203125 
Q 42.578125 3.328125 38.25 0.953125 
Q 33.9375 -1.421875 27.875 -1.421875 
Q 17.96875 -1.421875 11.734375 6.484375 
Q 5.515625 14.40625 5.515625 27.296875 
Q 5.515625 40.1875 11.734375 48.09375 
Q 17.96875 56 27.875 56 
Q 33.9375 56 38.25 53.625 
Q 42.578125 51.265625 45.40625 46.390625 
M 14.796875 27.296875 
Q 14.796875 17.390625 18.875 11.75 
Q 22.953125 6.109375 30.078125 6.109375 
Q 37.203125 6.109375 41.296875 11.75 
Q 45.40625 17.390625 45.40625 27.296875 
Q 45.40625 37.203125 41.296875 42.84375 
Q 37.203125 48.484375 30.078125 48.484375 
Q 22.953125 48.484375 18.875 42.84375 
Q 14.796875 37.203125 14.796875 27.296875 
" id="BitstreamVeraSans-Roman-64"/>
      <path d="M 18.109375 8.203125 
L 18.109375 -20.796875 
L 9.078125 -20.796875 
L 9.078125 54.6875 
L 18.109375 54.6875 
L 18.109375 46.390625 
Q 20.953125 51.265625 25.265625 53.625 
Q 29.59375 56 35.59375 56 
Q 45.5625 56 51.78125 48.09375 
Q 58.015625 40.1875 58.015625 27.296875 
Q 58.015625 14.40625 51.78125 6.484375 
Q 45.5625 -1.421875 35.59375 -1.421875 
Q 29.59375 -1.421875 25.265625 0.953125 
Q 20.953125 3.328125 18.109375 8.203125 
M 48.6875 27.296875 
Q 48.6875 37.203125 44.609375 42.84375 
Q 40.53125 48.484375 33.40625 48.484375 
Q 26.265625 48.484375 22.1875 42.84375 
Q 18.109375 37.203125 18.109375 27.296875 
Q 18.109375 17.390625 22.1875 11.75 
Q 26.265625 6.109375 33.40625 6.109375 
Q 40.53125 6.109375 44.609375 11.75 
Q 48.6875 17.390625 48.6875 27.296875 
" id="BitstreamVeraSans-Roman-70"/>
     </defs>
     <g transform="translate(939.8765625 101.0953125)scale(0.3 -0.3)">
      <use xlink:href="#BitstreamVeraSans-Roman-72"/>
      <use x="41.11328125" xlink:href="#BitstreamVeraSans-Roman-61"/>
      <use x="102.392578125" xlink:href="#BitstreamVeraSans-Roman-6e"/>
      <use x="165.771484375" xlink:href="#BitstreamVeraSans-Roman-64"/>
      <use x="229.248046875" xlink:href="#BitstreamVeraSans-Roman-6f"/>
      <use x="290.4296875" xlink:href="#BitstreamVeraSans-Roman-6d"/>
      <use x="387.841796875" xlink:href="#BitstreamVeraSans-Roman-3a"/>
      <use x="421.533203125" xlink:href="#BitstreamVeraSans-Roman-20"/>
      <use x="453.3203125" xlink:href="#BitstreamVeraSans-Roman-73"/>
      <use x="505.419921875" xlink:href="#BitstreamVeraSans-Roman-74"/>
      <use x="544.62890625" xlink:href="#BitstreamVeraSans-Roman-65"/>
      <use x="606.15234375" xlink:href="#BitstreamVeraSans-Roman-70"/>
      <use x="669.62890625" xlink:href="#BitstreamVeraSans-Roman-3d"/>
      <use x="753.41796875" xlink:href="#BitstreamVeraSans-Roman-30"/>
      <use x="817.041015625" xlink:href="#BitstreamVeraSans-Roman-2e"/>
      <use x="848.828125" xlink:href="#BitstreamVeraSans-Roman-30"/>
      <use x="912.451171875" xlink:href="#BitstreamVeraSans-Roman-30"/>
      <use x="976.07421875" xlink:href="#BitstreamVeraSans-Roman-30"/>
      <use x="1039.69726562" xlink:href="#BitstreamVeraSans-Roman-36"/>
      <use x="1103.3203125" xlink:href="#BitstreamVeraSans-Roman-32"/>
      <use x="1166.94335938" xlink:href="#BitstreamVeraSans-Roman-30"/>
     </g>
    </g>
    <g id="line2d_37">
     <path d="M 864.876562 134.629687 
L 906.876562 134.629687 
" style="fill:none;stroke:#008000;stroke-linecap:square;stroke-width:2.0;"/>
    </g>
    <g id="line2d_38"/>
    <g id="text_20">
     <!-- corr: step=0.000620 -->
     <defs>
      <path d="M 48.78125 52.59375 
L 48.78125 44.1875 
Q 44.96875 46.296875 41.140625 47.34375 
Q 37.3125 48.390625 33.40625 48.390625 
Q 24.65625 48.390625 19.8125 42.84375 
Q 14.984375 37.3125 14.984375 27.296875 
Q 14.984375 17.28125 19.8125 11.734375 
Q 24.65625 6.203125 33.40625 6.203125 
Q 37.3125 6.203125 41.140625 7.25 
Q 44.96875 8.296875 48.78125 10.40625 
L 48.78125 2.09375 
Q 45.015625 0.34375 40.984375 -0.53125 
Q 36.96875 -1.421875 32.421875 -1.421875 
Q 20.0625 -1.421875 12.78125 6.34375 
Q 5.515625 14.109375 5.515625 27.296875 
Q 5.515625 40.671875 12.859375 48.328125 
Q 20.21875 56 33.015625 56 
Q 37.15625 56 41.109375 55.140625 
Q 45.0625 54.296875 48.78125 52.59375 
" id="BitstreamVeraSans-Roman-63"/>
     </defs>
     <g transform="translate(939.8765625 145.1296875)scale(0.3 -0.3)">
      <use xlink:href="#BitstreamVeraSans-Roman-63"/>
      <use x="54.98046875" xlink:href="#BitstreamVeraSans-Roman-6f"/>
      <use x="116.162109375" xlink:href="#BitstreamVeraSans-Roman-72"/>
      <use x="157.259765625" xlink:href="#BitstreamVeraSans-Roman-72"/>
      <use x="198.357421875" xlink:href="#BitstreamVeraSans-Roman-3a"/>
      <use x="232.048828125" xlink:href="#BitstreamVeraSans-Roman-20"/>
      <use x="263.8359375" xlink:href="#BitstreamVeraSans-Roman-73"/>
      <use x="315.935546875" xlink:href="#BitstreamVeraSans-Roman-74"/>
      <use x="355.14453125" xlink:href="#BitstreamVeraSans-Roman-65"/>
      <use x="416.66796875" xlink:href="#BitstreamVeraSans-Roman-70"/>
      <use x="480.14453125" xlink:href="#BitstreamVeraSans-Roman-3d"/>
      <use x="563.93359375" xlink:href="#BitstreamVeraSans-Roman-30"/>
      <use x="627.556640625" xlink:href="#BitstreamVeraSans-Roman-2e"/>
      <use x="659.34375" xlink:href="#BitstreamVeraSans-Roman-30"/>
      <use x="722.966796875" xlink:href="#BitstreamVeraSans-Roman-30"/>
      <use x="786.58984375" xlink:href="#BitstreamVeraSans-Roman-30"/>
      <use x="850.212890625" xlink:href="#BitstreamVeraSans-Roman-36"/>
      <use x="913.8359375" xlink:href="#BitstreamVeraSans-Roman-32"/>
      <use x="977.458984375" xlink:href="#BitstreamVeraSans-Roman-30"/>
     </g>
    </g>
   </g>
  </g>
 </g>
 <defs>
  <clipPath id="pf020faf907">
   <rect height="695.7" width="1209.0375" x="127.0125" y="51.3"/>
  </clipPath>
 </defs>
</svg>
