<?xml version="1.0" encoding="utf-8" standalone="no"?>
<!DOCTYPE svg PUBLIC "-//W3C//DTD SVG 1.1//EN"
  "http://www.w3.org/Graphics/SVG/1.1/DTD/svg11.dtd">
<!-- Created with matplotlib (http://matplotlib.org/) -->
<svg height="864pt" version="1.1" viewBox="0 0 1440 864" width="1440pt" xmlns="http://www.w3.org/2000/svg" xmlns:xlink="http://www.w3.org/1999/xlink">
 <defs>
  <style type="text/css">
*{stroke-linecap:butt;stroke-linejoin:round;stroke-miterlimit:100000;}
  </style>
 </defs>
 <g id="figure_1">
  <g id="patch_1">
   <path d="M 0 864 
L 1440 864 
L 1440 0 
L 0 0 
z
" style="fill:#ffffff;"/>
  </g>
  <g id="axes_1">
   <g id="patch_2">
    <path d="M 134.6625 763.2 
L 1350.225 763.2 
L 1350.225 47.25 
L 134.6625 47.25 
z
" style="fill:#ffffff;"/>
   </g>
   <g id="line2d_1">
    <path clip-path="url(#p6caf366a57)" d="M 135.878063 64.735042 
L 137.093625 64.767216 
L 138.309188 80.822527 
L 139.52475 82.563414 
L 140.740313 101.25475 
L 141.955875 103.833339 
L 143.171438 120.900949 
L 144.387 124.851283 
L 145.602563 141.839881 
L 146.818125 144.799032 
L 148.033688 157.756369 
L 149.24925 160.337028 
L 150.464813 174.880643 
L 151.680375 178.557843 
L 152.895938 193.731452 
L 154.1115 197.708794 
L 155.327063 210.008719 
L 156.542625 217.809017 
L 157.758188 229.286766 
L 160.189313 241.91358 
L 161.404875 249.00092 
L 165.051563 274.182161 
L 166.267125 286.613648 
L 167.482688 292.799596 
L 168.69825 304.201952 
L 169.913813 307.762467 
L 171.129375 319.920428 
L 172.344938 323.073873 
L 173.5605 339.091263 
L 174.776063 342.178688 
L 175.991625 358.992341 
L 177.207188 360.078722 
L 178.42275 374.569329 
L 179.638313 375.674136 
L 180.853875 393.141011 
L 182.069438 394.813138 
L 183.285 407.721596 
L 184.500563 408.828271 
L 185.716125 424.860865 
L 186.931688 424.815346 
L 188.14725 438.583197 
L 189.362813 445.88292 
L 190.578375 450.736283 
L 191.793938 467.004844 
L 193.0095 467.501022 
L 194.225063 479.18649 
L 195.440625 489.300286 
L 196.656188 491.201056 
L 197.87175 508.451847 
L 199.087313 509.217235 
L 200.302875 521.045129 
L 201.518438 530.767138 
L 202.734 532.16863 
L 203.949563 550.287905 
L 205.165125 550.568634 
L 206.380688 566.489233 
L 207.59625 567.736732 
L 208.811813 580.50577 
L 210.027375 583.957567 
L 211.242938 600.936322 
L 212.4585 605.094843 
L 213.674063 619.096366 
L 214.889625 624.816564 
L 216.105188 639.077223 
L 217.32075 644.108818 
L 218.536313 658.176371 
L 219.751875 664.962607 
L 220.967438 676.382148 
L 222.183 682.73945 
L 223.398563 691.194436 
L 224.614125 701.082726 
L 225.829688 707.037624 
L 227.04525 719.954766 
L 228.260813 725.725304 
L 229.476375 736.432924 
L 231.9075 746.984533 
L 233.123063 747.867152 
L 234.338625 752.294229 
L 235.554188 753.144534 
L 236.76975 757.08659 
L 237.985313 757.664062 
L 239.200875 757.291043 
L 240.416438 756.789678 
L 241.632 757.390427 
L 242.847563 758.488471 
L 246.49425 760.201723 
L 247.709813 760.67072 
L 248.925375 760.266312 
L 250.140938 761.008412 
L 251.3565 760.386918 
L 252.572063 761.499872 
L 253.787625 758.12781 
L 255.003188 758.686668 
L 256.21875 762.986394 
L 257.434313 762.787608 
L 258.649875 759.461471 
L 259.865438 759.486576 
L 261.081 759.033921 
L 262.296563 759.050715 
L 263.512125 758.582254 
L 264.727688 758.527941 
L 265.94325 759.562525 
L 269.589938 759.730587 
L 270.8055 758.837225 
L 272.021063 758.925067 
L 273.236625 759.947125 
L 274.452188 759.996022 
L 275.66775 761.633585 
L 276.883312 761.633585 
L 278.098875 762.218204 
L 279.314438 762.081475 
L 280.53 761.811985 
L 281.745563 762.51574 
L 282.961125 759.063195 
L 284.176688 758.885394 
L 285.39225 757.929844 
L 286.607813 758.088336 
L 289.038938 759.90688 
L 291.470063 758.859 
L 292.685625 759.982514 
L 293.901187 760.511145 
L 295.11675 761.599558 
L 296.332313 762.202449 
L 297.547875 759.313463 
L 298.763438 759.481451 
L 299.979 760.559789 
L 301.194563 760.879097 
L 302.410125 758.368653 
L 303.625688 758.485657 
L 304.84125 757.19231 
L 306.056813 756.973134 
L 307.272375 760.086818 
L 308.487938 758.760712 
L 309.7035 759.405253 
L 310.919062 758.044242 
L 312.134625 759.924876 
L 313.350188 759.979027 
L 314.56575 759.022098 
L 315.781313 760.504313 
L 316.996875 758.897574 
L 318.212438 760.219887 
L 319.428 758.945805 
L 320.643563 759.727267 
L 321.859125 757.926719 
L 323.074687 757.941984 
L 324.29025 760.503919 
L 325.505813 760.768841 
L 326.721375 759.721729 
L 327.936937 761.199768 
L 329.1525 759.669904 
L 330.368063 759.691672 
L 331.583625 758.318314 
L 332.799188 759.174206 
L 334.01475 757.562016 
L 335.230313 756.214174 
L 336.445875 756.309465 
L 337.661438 758.492554 
L 338.877 758.995443 
L 340.092562 759.739651 
L 341.308125 759.498046 
L 342.523688 760.050312 
L 343.73925 759.960757 
L 344.954813 759.531813 
L 346.170375 761.566838 
L 347.385938 759.698438 
L 348.6015 760.71882 
L 349.817063 760.398404 
L 351.032625 759.579588 
L 352.248188 759.244871 
L 353.46375 760.463974 
L 354.679313 761.189476 
L 355.894875 760.148628 
L 357.110437 758.884651 
L 358.326 759.889373 
L 359.541563 760.373699 
L 360.757125 760.094178 
L 361.972688 761.066025 
L 363.18825 761.512561 
L 364.403813 761.805185 
L 365.619375 761.772675 
L 366.834938 758.981414 
L 368.0505 758.801233 
L 369.266062 758.294158 
L 370.481625 758.327188 
L 371.697188 759.158498 
L 372.91275 759.166912 
L 374.128312 757.881114 
L 375.343875 757.929795 
L 376.559438 757.208506 
L 377.775 757.188312 
L 378.990563 759.595062 
L 380.206125 759.700279 
L 381.421688 757.317203 
L 383.852813 758.350324 
L 385.068375 758.332651 
L 386.283937 759.501747 
L 387.4995 759.425737 
L 388.715063 758.211779 
L 391.146187 758.212776 
L 392.36175 758.149536 
L 393.577313 756.788174 
L 394.792875 757.567712 
L 396.008438 756.950989 
L 397.224 757.074492 
L 398.439562 755.764458 
L 399.655125 756.052361 
L 400.870688 755.665002 
L 402.08625 756.514834 
L 403.301812 758.945536 
L 404.517375 759.17074 
L 405.732938 759.51813 
L 406.9485 759.14261 
L 408.164062 758.582931 
L 409.379625 760.385596 
L 410.595187 759.687645 
L 411.81075 758.468823 
L 413.026313 758.517604 
L 414.241875 758.282149 
L 415.457437 758.743284 
L 417.888563 760.404837 
L 419.104125 761.893169 
L 420.319687 761.230986 
L 421.53525 760.128816 
L 422.750813 761.88613 
L 423.966375 760.198613 
L 425.181938 759.530834 
L 426.3975 759.292524 
L 427.613062 758.092701 
L 428.828625 758.992888 
L 430.044188 758.258072 
L 431.25975 759.061145 
L 432.475312 760.095557 
L 433.690875 758.378482 
L 434.906438 759.298768 
L 436.122 758.0968 
L 437.337562 759.369048 
L 438.553125 757.780156 
L 439.768688 759.143569 
L 440.98425 756.64251 
L 442.199813 757.589325 
L 443.415375 760.243638 
L 445.8465 760.355224 
L 447.062063 760.499128 
L 448.277625 758.209857 
L 449.493187 758.218868 
L 450.70875 759.863244 
L 451.924313 760.254771 
L 453.139875 757.897953 
L 454.355437 757.945855 
L 455.571 761.133036 
L 456.786562 761.14609 
L 458.002125 760.080152 
L 459.217688 759.999379 
L 460.43325 757.368747 
L 461.648812 757.335205 
L 462.864375 757.792168 
L 464.079938 757.721804 
L 465.2955 759.039931 
L 466.511062 758.951062 
L 467.726625 757.081169 
L 468.942188 757.028092 
L 470.15775 757.368615 
L 473.804437 757.7259 
L 475.02 757.40755 
L 476.235563 757.496509 
L 477.451125 758.336963 
L 478.666687 758.09402 
L 479.88225 759.158003 
L 481.097813 758.880072 
L 482.313375 759.704561 
L 483.528937 759.513136 
L 484.7445 760.534034 
L 485.960063 760.161342 
L 487.175625 760.754917 
L 488.391188 760.339582 
L 489.60675 759.734723 
L 490.822312 760.21994 
L 492.037875 759.590046 
L 493.253438 759.805116 
L 494.469 761.156414 
L 495.684562 761.195091 
L 496.900125 759.485041 
L 498.115688 758.201471 
L 499.33125 758.182931 
L 500.546812 757.218271 
L 501.762375 759.23319 
L 502.977937 758.820275 
L 504.1935 757.745226 
L 505.409063 760.084044 
L 506.624625 758.168066 
L 507.840187 758.014976 
L 509.05575 758.38363 
L 510.271313 758.560696 
L 511.486875 757.83894 
L 512.702437 756.126511 
L 513.918 758.037662 
L 515.133563 758.94915 
L 517.564687 758.965559 
L 518.78025 758.056971 
L 519.995812 755.162923 
L 521.211375 754.364116 
L 522.426938 757.269141 
L 523.6425 758.217762 
L 524.858062 759.517454 
L 526.073625 760.013645 
L 527.289188 759.171756 
L 528.50475 759.874376 
L 529.720312 756.213148 
L 530.935875 757.032807 
L 532.151438 758.07048 
L 533.367 757.718694 
L 534.582562 759.882328 
L 535.798125 760.411104 
L 537.013687 759.777671 
L 538.22925 759.654912 
L 539.444813 758.265892 
L 540.660375 758.233857 
L 541.875937 756.285483 
L 543.0915 756.360499 
L 544.307063 759.309685 
L 546.738187 759.301002 
L 547.95375 759.044995 
L 549.169312 758.533675 
L 550.384875 758.647563 
L 551.600437 757.323783 
L 552.816 757.210295 
L 554.031562 760.16807 
L 555.247125 759.365853 
L 556.462688 759.306891 
L 557.67825 760.385623 
L 558.893812 759.543244 
L 560.109375 759.451508 
L 561.324938 761.291188 
L 562.5405 759.149746 
L 563.756062 758.338626 
L 564.971625 759.172371 
L 567.40275 760.082701 
L 568.618313 758.768532 
L 569.833875 760.169373 
L 571.049437 760.732043 
L 572.265 758.916827 
L 573.480563 760.514738 
L 574.696125 760.692031 
L 575.911687 760.285505 
L 577.12725 760.018256 
L 578.342812 761.759498 
L 580.773937 759.266841 
L 581.9895 758.545183 
L 583.205062 758.13929 
L 584.420625 758.660549 
L 585.636188 759.322805 
L 586.85175 759.041821 
L 588.067312 759.293433 
L 589.282875 758.871049 
L 590.498438 758.871944 
L 591.714 756.435347 
L 592.929562 756.599531 
L 594.145125 756.166335 
L 595.360687 756.117268 
L 596.57625 757.435971 
L 597.791812 757.439908 
L 599.007375 758.028359 
L 600.222937 758.090618 
L 601.4385 760.152547 
L 602.654063 760.178992 
L 603.869625 758.80897 
L 605.085187 758.730207 
L 606.30075 759.929167 
L 607.516313 759.950993 
L 608.731875 760.515322 
L 609.947437 760.296051 
L 611.163 759.241396 
L 612.378562 759.180591 
L 613.594125 758.352105 
L 614.809687 758.413022 
L 616.02525 760.671824 
L 617.240812 760.750918 
L 618.456375 758.764194 
L 619.671938 758.754365 
L 620.8875 759.928082 
L 622.103062 759.947448 
L 623.318625 758.525544 
L 624.534187 758.452266 
L 625.74975 758.721105 
L 626.965312 758.743321 
L 628.180875 760.596433 
L 629.396437 760.707636 
L 630.612 757.834681 
L 631.827562 757.847983 
L 633.043125 758.240414 
L 634.258687 758.148474 
L 635.47425 759.154502 
L 636.689813 759.115655 
L 637.905375 758.64626 
L 639.120937 758.60356 
L 640.3365 759.99067 
L 641.552062 759.869812 
L 642.767625 760.308105 
L 643.983187 760.357727 
L 645.19875 759.634368 
L 646.414312 759.704362 
L 647.629875 760.976531 
L 648.845437 760.996682 
L 650.061 758.75584 
L 651.276562 758.82396 
L 652.492125 758.778208 
L 653.707687 758.914161 
L 654.92325 759.726918 
L 656.138812 759.768948 
L 657.354375 758.639625 
L 659.7855 758.680299 
L 661.001062 758.664154 
L 662.216625 761.257458 
L 663.432187 761.328618 
L 664.64775 758.501043 
L 665.863312 758.486283 
L 667.078875 760.232629 
L 668.294437 760.316384 
L 669.51 760.05038 
L 670.725562 759.972788 
L 673.156687 760.49676 
L 674.37225 758.791664 
L 675.587812 758.692281 
L 676.803375 761.089622 
L 678.018937 759.598511 
L 679.2345 759.59925 
L 680.450062 758.468073 
L 681.665625 758.451106 
L 682.881187 758.172973 
L 684.09675 759.846181 
L 685.312312 760.030904 
L 686.527875 759.246696 
L 687.743437 758.065091 
L 688.959 757.748995 
L 690.174562 758.715792 
L 691.390125 759.984245 
L 692.605687 760.333067 
L 693.82125 759.248998 
L 695.036812 760.236467 
L 697.467937 760.555711 
L 698.6835 761.857849 
L 699.899062 759.033338 
L 701.114625 758.938996 
L 702.330187 760.480139 
L 703.54575 760.498832 
L 704.761312 758.100658 
L 705.976875 758.330235 
L 707.192437 757.116284 
L 708.408 757.197141 
L 709.623562 760.281149 
L 710.839125 760.423739 
L 712.054687 758.124439 
L 713.27025 757.969277 
L 714.485812 757.64666 
L 715.701375 757.503279 
L 716.916937 757.11075 
L 718.1325 757.028775 
L 719.348062 759.11343 
L 720.563625 759.070946 
L 721.779187 759.689318 
L 722.99475 759.51518 
L 724.210312 758.251978 
L 725.425875 758.252835 
L 726.641437 760.013722 
L 727.857 760.111754 
L 729.072562 758.753956 
L 730.288125 758.684429 
L 731.503687 760.37688 
L 732.71925 760.610678 
L 733.934812 759.286595 
L 735.150375 759.381947 
L 736.365937 759.644593 
L 737.5815 759.675497 
L 738.797062 760.972989 
L 740.012625 761.097721 
L 741.228187 759.100905 
L 742.44375 759.03808 
L 743.659312 760.558589 
L 744.874875 760.452137 
L 746.090437 758.706694 
L 747.306 758.684384 
L 748.521562 756.896166 
L 749.737125 756.946926 
L 750.952687 760.589237 
L 752.16825 760.513839 
L 753.383812 756.917757 
L 754.599375 756.848908 
L 755.814937 756.662727 
L 757.0305 756.829173 
L 758.246062 757.871751 
L 759.461625 757.871272 
L 760.677187 759.797249 
L 761.89275 759.846341 
L 763.108312 760.237944 
L 764.323875 760.279533 
L 765.539437 760.433823 
L 766.755 760.434572 
L 767.970562 758.066803 
L 769.186125 758.185191 
L 770.401687 759.188755 
L 771.61725 759.172182 
L 772.832812 758.631925 
L 774.048375 758.630998 
L 775.263937 758.982767 
L 776.4795 758.982829 
L 777.695062 760.00418 
L 778.910625 760.05166 
L 780.126187 758.36309 
L 781.34175 758.328856 
L 782.557312 759.734581 
L 783.772875 759.65554 
L 784.988437 760.901202 
L 786.204 761.044423 
L 787.419562 759.85556 
L 788.635125 760.704543 
L 789.850687 759.919611 
L 791.06625 760.420526 
L 792.281812 761.060651 
L 794.712937 760.081349 
L 795.9285 760.634772 
L 797.144062 756.560558 
L 798.359625 757.500703 
L 799.575187 757.293285 
L 800.79075 757.685437 
L 802.006312 756.745947 
L 803.221875 756.017144 
L 804.437437 757.846951 
L 805.653 757.653204 
L 806.868562 758.282741 
L 808.084125 757.744972 
L 809.299687 761.266242 
L 810.51525 761.236623 
L 811.730812 758.299004 
L 812.946375 757.921663 
L 814.161937 758.713185 
L 815.3775 758.74209 
L 816.593062 757.116226 
L 817.808625 757.316993 
L 819.024187 757.20434 
L 820.23975 757.322724 
L 821.455312 758.580366 
L 822.670875 758.710316 
L 823.886437 759.2207 
L 825.102 759.227216 
L 826.317562 758.831097 
L 827.533125 758.827051 
L 828.748687 758.591041 
L 829.96425 758.060299 
L 831.179812 760.821802 
L 832.395375 760.891327 
L 833.610937 759.240254 
L 834.8265 759.213301 
L 836.042062 759.461179 
L 837.257625 759.414365 
L 838.473187 760.182374 
L 839.68875 760.217479 
L 840.904312 756.997206 
L 842.119875 756.899497 
L 843.335437 758.42534 
L 844.551 758.34225 
L 845.766562 759.006017 
L 846.982125 759.155399 
L 848.197687 758.240508 
L 849.41325 758.02745 
L 850.628812 758.895979 
L 851.844375 758.967659 
L 853.059937 758.315328 
L 854.2755 758.30074 
L 855.491062 758.599894 
L 856.706625 758.626972 
L 857.922187 756.716334 
L 859.13775 756.669035 
L 860.353312 759.025134 
L 861.568875 758.956491 
L 862.784437 761.63113 
L 864 761.650626 
L 865.215562 759.126786 
L 866.431125 758.954208 
L 867.646687 759.369611 
L 868.86225 759.3728 
L 870.077812 759.65222 
L 871.293375 759.657968 
L 872.508937 760.268294 
L 873.7245 760.243016 
L 874.940062 759.672427 
L 876.155625 759.652302 
L 877.371187 759.23629 
L 878.58675 759.208398 
L 879.802312 758.236351 
L 881.017875 758.202123 
L 882.233437 759.049415 
L 883.449 758.968887 
L 884.664562 757.725175 
L 885.880125 757.630548 
L 887.095687 758.125157 
L 888.31125 758.169344 
L 889.526812 760.882691 
L 890.742375 760.917391 
L 891.957937 758.212324 
L 893.1735 758.242205 
L 894.389062 758.5255 
L 896.820187 758.374233 
L 898.03575 758.602726 
L 899.251312 757.302041 
L 900.466875 757.439828 
L 901.682437 758.37236 
L 902.898 758.44109 
L 904.113562 759.299629 
L 905.329125 759.243649 
L 906.544687 758.842304 
L 907.76025 758.96613 
L 908.975812 758.067001 
L 912.6225 758.155526 
L 913.838062 759.147969 
L 915.053625 759.374134 
L 916.269187 757.961954 
L 917.48475 758.075893 
L 918.700312 760.916812 
L 919.915875 760.751074 
L 921.131437 759.488884 
L 922.347 759.650387 
L 924.778125 759.64796 
L 925.993687 760.526656 
L 927.20925 760.735852 
L 928.424812 759.925512 
L 929.640375 759.805593 
L 930.855937 758.959369 
L 932.0715 758.899921 
L 933.287062 758.625172 
L 934.502625 758.724513 
L 935.718187 758.266598 
L 936.93375 758.10684 
L 938.149312 759.830533 
L 939.364875 760.010002 
L 940.580437 757.891625 
L 941.796 757.945995 
L 943.011562 759.349832 
L 944.227125 759.108324 
L 945.442687 758.475349 
L 946.65825 758.684008 
L 947.873812 757.855398 
L 949.089375 757.999833 
L 950.304937 757.71249 
L 951.5205 758.167187 
L 952.736062 759.782144 
L 953.951625 759.819583 
L 956.38275 759.601525 
L 957.598312 761.447797 
L 958.813875 761.362925 
L 960.029437 760.54247 
L 961.245 760.420312 
L 962.460562 759.96692 
L 963.676125 759.809642 
L 964.891687 759.081544 
L 966.10725 759.080397 
L 967.322812 759.853134 
L 968.538375 759.745899 
L 970.9695 759.069315 
L 972.185062 761.938662 
L 973.400625 761.519248 
L 975.83175 761.148383 
L 977.047312 760.64726 
L 978.262875 760.293317 
L 979.478437 760.175176 
L 980.694 760.295409 
L 981.909562 757.72802 
L 983.125125 757.651011 
L 984.340687 758.023147 
L 985.55625 758.041463 
L 986.771812 758.199092 
L 987.987375 758.175031 
L 989.202937 756.603373 
L 990.4185 756.58903 
L 991.634062 757.646259 
L 992.849625 757.646259 
L 994.065187 759.22108 
L 995.28075 759.232168 
L 996.496312 757.874013 
L 997.711875 757.852275 
L 998.927437 756.566058 
L 1000.143 756.575698 
L 1001.358562 757.612688 
L 1002.574125 757.637258 
L 1003.789687 759.479291 
L 1005.00525 759.479291 
L 1006.220812 760.395563 
L 1007.436375 760.373876 
L 1008.651937 759.783013 
L 1009.8675 759.740767 
L 1011.083062 760.483309 
L 1012.298625 760.51994 
L 1013.514187 760.032352 
L 1014.72975 760.029533 
L 1015.945312 758.669162 
L 1017.160875 758.61561 
L 1018.376437 758.37459 
L 1019.592 758.359655 
L 1020.807562 759.240762 
L 1022.023125 759.192283 
L 1023.238687 758.910751 
L 1024.45425 758.962525 
L 1025.669813 760.816379 
L 1026.885375 760.80458 
L 1028.100937 759.973172 
L 1031.747625 760.042623 
L 1032.963188 755.952149 
L 1034.17875 755.959264 
L 1035.394312 757.346916 
L 1036.609875 757.475598 
L 1037.825437 758.385089 
L 1039.041 758.375887 
L 1040.256562 760.43205 
L 1041.472125 760.47808 
L 1042.687688 757.594759 
L 1043.90325 757.593888 
L 1045.118812 759.845315 
L 1046.334375 759.845315 
L 1047.549937 761.87892 
L 1048.7655 761.846832 
L 1049.981063 758.853042 
L 1051.196625 758.797518 
L 1052.412187 757.710428 
L 1053.62775 757.730374 
L 1054.843312 758.297897 
L 1056.058875 758.201937 
L 1058.49 758.321452 
L 1059.705563 760.354552 
L 1060.921125 760.336086 
L 1062.136687 755.917475 
L 1063.35225 755.891827 
L 1064.567812 757.513838 
L 1065.783375 757.416677 
L 1066.998938 758.325687 
L 1070.645625 758.074315 
L 1071.861187 758.260226 
L 1073.07675 758.239213 
L 1074.292312 759.163637 
L 1075.507875 759.199445 
L 1076.723437 760.638254 
L 1077.939 760.589047 
L 1079.154562 757.39322 
L 1080.370125 757.499111 
L 1081.585687 756.471752 
L 1082.80125 756.539725 
L 1084.016813 758.127177 
L 1085.232375 758.168537 
L 1086.447937 758.817489 
L 1087.6635 758.77867 
L 1088.879062 758.138877 
L 1092.52575 758.049182 
L 1093.741312 758.564652 
L 1094.956875 758.576887 
L 1096.172437 759.647663 
L 1097.388 759.55342 
L 1098.603562 758.46897 
L 1099.819125 758.44969 
L 1101.034688 758.290898 
L 1102.25025 758.324983 
L 1103.465812 757.601554 
L 1104.681375 757.458847 
L 1105.896937 760.34649 
L 1107.1125 760.390929 
L 1108.328062 758.902223 
L 1109.543625 759.068083 
L 1110.759187 759.54536 
L 1111.97475 759.631434 
L 1113.190312 758.627659 
L 1114.405875 758.597816 
L 1115.621437 761.061826 
L 1116.837 760.847875 
L 1118.052563 756.758271 
L 1119.268125 756.658481 
L 1120.483687 757.397359 
L 1121.69925 757.204801 
L 1122.914812 756.7647 
L 1124.130375 758.029486 
L 1125.345937 758.410396 
L 1126.5615 759.969509 
L 1127.777062 758.619535 
L 1128.992625 759.043517 
L 1130.208187 761.338661 
L 1131.42375 759.289145 
L 1132.639312 760.563687 
L 1133.854875 758.75407 
L 1135.070438 758.470743 
L 1136.286 760.991975 
L 1137.501562 760.724769 
L 1138.717125 759.462087 
L 1139.932687 760.589608 
L 1141.14825 759.027627 
L 1142.363812 759.029725 
L 1143.579375 759.191083 
L 1144.794937 758.984755 
L 1146.0105 758.247933 
L 1147.226062 758.690861 
L 1148.441625 758.789919 
L 1149.657187 759.019506 
L 1150.87275 757.913517 
L 1152.088312 758.101524 
L 1153.303875 757.583523 
L 1154.519437 759.081427 
L 1155.735 757.95295 
L 1156.950562 757.351629 
L 1158.166125 757.005987 
L 1159.381687 755.601699 
L 1160.59725 758.067354 
L 1161.812813 758.499383 
L 1163.028375 762.271833 
L 1164.243937 761.669948 
L 1165.4595 759.482767 
L 1166.675062 759.111417 
L 1167.890625 759.007645 
L 1169.106188 758.639991 
L 1170.32175 759.486535 
L 1171.537312 759.649116 
L 1172.752875 760.91159 
L 1173.968437 760.716886 
L 1175.184 760.192109 
L 1176.399563 759.939378 
L 1177.615125 760.999432 
L 1178.830688 761.114082 
L 1180.04625 758.58363 
L 1181.261812 758.568201 
L 1182.477375 761.291808 
L 1183.692937 761.30036 
L 1184.9085 760.52421 
L 1186.124063 760.550175 
L 1187.339625 759.20507 
L 1188.555187 759.204549 
L 1189.77075 756.817094 
L 1190.986312 756.849975 
L 1192.201875 757.873235 
L 1193.417438 757.885684 
L 1194.633 758.252425 
L 1197.064125 758.313618 
L 1198.279687 757.905787 
L 1199.49525 758.311858 
L 1200.710812 758.479971 
L 1201.926375 761.222385 
L 1205.573062 760.608547 
L 1206.788625 759.925401 
L 1208.004187 759.90644 
L 1209.21975 758.42646 
L 1210.435313 758.558908 
L 1211.650875 760.892203 
L 1212.866438 759.883485 
L 1214.082 759.596572 
L 1215.297562 759.708811 
L 1216.513125 760.191195 
L 1218.94425 758.243155 
L 1220.159813 757.966455 
L 1221.375375 759.92826 
L 1222.590937 760.051806 
L 1225.022062 759.792602 
L 1226.237625 762.173437 
L 1228.66875 760.278173 
L 1229.884312 758.527622 
L 1231.099875 760.70706 
L 1232.315437 760.413425 
L 1233.531 757.542724 
L 1234.746562 757.233198 
L 1235.962125 756.22907 
L 1237.177688 756.814266 
L 1238.39325 759.265235 
L 1239.608812 759.673304 
L 1240.824375 758.610008 
L 1242.039937 758.559301 
L 1243.2555 759.490883 
L 1244.471063 759.592525 
L 1246.902187 760.494796 
L 1248.11775 758.566538 
L 1249.333312 758.517013 
L 1250.548875 757.828628 
L 1251.764437 757.88897 
L 1252.98 759.4103 
L 1254.195563 759.643843 
L 1255.411125 762.201453 
L 1256.626687 762.247834 
L 1257.84225 760.728961 
L 1259.057812 760.74964 
L 1260.273375 758.599313 
L 1261.488938 758.626815 
L 1262.7045 757.243031 
L 1263.920062 757.216845 
L 1265.135625 759.051292 
L 1266.351187 759.237931 
L 1267.56675 759.567576 
L 1268.782312 759.613849 
L 1271.213438 759.576194 
L 1272.429 758.751627 
L 1273.644562 758.73155 
L 1274.860125 757.089436 
L 1276.075687 757.262256 
L 1277.29125 759.36692 
L 1278.506813 759.288356 
L 1279.722375 760.631792 
L 1280.937937 760.582362 
L 1282.1535 760.151628 
L 1283.369062 760.193519 
L 1284.584625 758.866101 
L 1285.800187 758.761325 
L 1287.01575 756.42517 
L 1288.231313 756.35749 
L 1289.446875 757.588596 
L 1290.662437 757.582457 
L 1291.878 758.656675 
L 1293.093562 758.76567 
L 1294.309125 758.229797 
L 1295.524688 758.197001 
L 1296.74025 760.050672 
L 1297.955812 760.134519 
L 1300.386937 759.984885 
L 1302.818062 759.910902 
L 1304.033625 759.094601 
L 1305.249187 759.081263 
L 1306.46475 760.366241 
L 1307.680312 760.01705 
L 1308.895875 757.993512 
L 1310.111437 757.968801 
L 1311.327 759.362553 
L 1312.542563 759.337534 
L 1313.758125 759.128826 
L 1314.973687 759.119016 
L 1316.18925 758.960549 
L 1317.404812 759.041712 
L 1318.620375 757.803588 
L 1319.835938 757.80221 
L 1321.0515 759.940253 
L 1322.267062 759.790426 
L 1323.482625 761.440252 
L 1324.698187 761.396711 
L 1325.91375 761.611031 
L 1327.129312 761.621246 
L 1328.344875 760.578664 
L 1329.560438 760.468033 
L 1330.776 759.525638 
L 1331.991562 759.479665 
L 1333.207125 760.500859 
L 1334.422687 760.529472 
L 1335.63825 757.716459 
L 1336.853813 757.795315 
L 1338.069375 759.523534 
L 1339.284937 758.46772 
L 1340.5005 760.208556 
L 1341.716062 758.950638 
L 1342.931625 760.704076 
L 1344.147187 758.021281 
L 1345.36275 756.35822 
L 1346.578313 757.203352 
L 1347.793875 758.990148 
L 1349.009437 757.398524 
L 1350.225 757.21613 
L 1350.225 757.21613 
" style="fill:none;stroke:#0000ff;stroke-linecap:square;stroke-width:2.0;"/>
   </g>
   <g id="line2d_2">
    <path clip-path="url(#p6caf366a57)" d="M 135.878063 62.267699 
L 137.093625 62.267699 
L 138.309188 82.572807 
L 139.52475 84.862235 
L 140.740313 100.726044 
L 141.955875 101.88868 
L 143.171438 118.29526 
L 144.387 119.53264 
L 145.602563 134.693908 
L 146.818125 136.023753 
L 148.033688 151.871048 
L 149.24925 152.462923 
L 150.464813 168.723718 
L 151.680375 169.230994 
L 152.895938 183.223771 
L 154.1115 183.494372 
L 155.327063 204.41598 
L 156.542625 204.861432 
L 157.758188 221.953575 
L 158.97375 222.366477 
L 160.189313 240.609824 
L 161.404875 240.553885 
L 162.620438 258.771231 
L 163.836 258.753056 
L 165.051563 276.328314 
L 166.267125 276.364576 
L 167.482688 295.743525 
L 168.69825 295.700969 
L 169.913813 317.466437 
L 171.129375 317.494716 
L 172.344938 335.863243 
L 173.5605 335.961088 
L 174.776063 350.646462 
L 175.991625 350.73083 
L 177.207188 370.380906 
L 178.42275 370.405227 
L 179.638313 388.833143 
L 180.853875 388.832823 
L 182.069438 403.999743 
L 183.285 404.004951 
L 184.500563 421.866561 
L 185.716125 421.866561 
L 186.931688 436.292165 
L 188.14725 436.282617 
L 189.362813 451.788934 
L 190.578375 451.81651 
L 191.793938 466.931755 
L 193.0095 466.941022 
L 194.225063 481.362839 
L 195.440625 481.364762 
L 196.656188 498.487281 
L 197.87175 498.487731 
L 199.087313 512.486168 
L 200.302875 512.478421 
L 201.518438 525.944278 
L 202.734 525.998646 
L 203.949563 543.390311 
L 205.165125 543.398318 
L 206.380688 561.934608 
L 207.59625 561.952454 
L 208.811813 576.709476 
L 210.027375 576.721304 
L 211.242938 597.265655 
L 212.4585 597.292497 
L 213.674063 611.650149 
L 214.889625 611.620028 
L 216.105188 631.072079 
L 217.32075 631.098101 
L 218.536313 645.826754 
L 219.751875 645.834771 
L 220.967438 661.396436 
L 222.183 661.429291 
L 223.398563 679.696327 
L 224.614125 679.745829 
L 225.829688 693.641366 
L 227.04525 693.806725 
L 228.260813 713.37048 
L 229.476375 713.424977 
L 230.691938 727.707549 
L 231.9075 728.077038 
L 233.123063 744.042188 
L 234.338625 744.813751 
L 235.554188 751.994282 
L 236.76975 753.001186 
L 237.985313 754.201215 
L 239.200875 754.509304 
L 240.416438 756.684324 
L 241.632 757.204853 
L 242.847563 758.708313 
L 244.063125 759.0334 
L 245.278688 758.020662 
L 246.49425 759.408018 
L 247.709813 759.293377 
L 250.140938 756.015466 
L 251.3565 758.430042 
L 252.572063 756.602889 
L 253.787625 756.520109 
L 255.003188 757.783168 
L 256.21875 758.283398 
L 257.434313 759.299127 
L 258.649875 761.037159 
L 259.865438 760.126299 
L 261.081 759.911529 
L 262.296563 758.784464 
L 263.512125 758.475452 
L 264.727688 759.068395 
L 265.94325 758.361241 
L 267.158813 759.263891 
L 269.589938 757.641361 
L 270.8055 757.237038 
L 272.021063 757.190187 
L 273.236625 758.946299 
L 274.452188 759.230845 
L 275.66775 761.272238 
L 276.883312 760.715366 
L 278.098875 757.505648 
L 279.314438 758.006073 
L 280.53 759.537976 
L 281.745563 759.42728 
L 284.176688 760.233774 
L 285.39225 760.885205 
L 286.607813 758.858122 
L 287.823375 758.04902 
L 289.038938 758.655372 
L 290.2545 762.063512 
L 291.470063 761.502365 
L 292.685625 760.040496 
L 293.901187 760.25923 
L 295.11675 760.35771 
L 296.332313 760.901155 
L 297.547875 760.319318 
L 298.763438 759.337927 
L 299.979 760.45587 
L 301.194563 760.26206 
L 302.410125 759.828584 
L 303.625688 761.151442 
L 304.84125 759.287591 
L 306.056813 758.50001 
L 307.272375 758.841404 
L 308.487938 758.309403 
L 309.7035 759.138251 
L 310.919062 759.266141 
L 312.134625 758.604917 
L 313.350188 758.781043 
L 315.781313 758.840374 
L 316.996875 758.046155 
L 318.212438 758.010607 
L 319.428 760.196375 
L 320.643563 760.342735 
L 321.859125 758.252072 
L 323.074687 758.184397 
L 324.29025 760.952116 
L 325.505813 760.867765 
L 326.721375 758.819103 
L 327.936937 758.979141 
L 329.1525 760.118389 
L 330.368063 759.972575 
L 331.583625 760.132918 
L 332.799188 759.830903 
L 334.01475 758.038007 
L 335.230313 757.843208 
L 336.445875 761.309065 
L 337.661438 759.738011 
L 338.877 760.195313 
L 340.092562 760.061306 
L 341.308125 760.093195 
L 342.523688 761.24622 
L 343.73925 760.830628 
L 344.954813 760.650909 
L 346.170375 760.964105 
L 348.6015 758.591651 
L 349.817063 756.640283 
L 351.032625 755.823736 
L 353.46375 758.087825 
L 354.679313 758.659522 
L 355.894875 757.402877 
L 357.110437 757.768213 
L 358.326 758.527364 
L 359.541563 759.525581 
L 360.757125 761.066433 
L 361.972688 759.067873 
L 363.18825 759.839183 
L 364.403813 760.300677 
L 365.619375 758.505876 
L 366.834938 756.024311 
L 368.0505 756.719433 
L 369.266062 758.551602 
L 370.481625 758.627711 
L 371.697188 760.449807 
L 374.128312 758.985258 
L 375.343875 759.206074 
L 376.559438 759.936831 
L 377.775 759.971604 
L 378.990563 758.076664 
L 380.206125 757.752409 
L 381.421688 759.243967 
L 382.63725 758.944449 
L 383.852813 760.564103 
L 385.068375 760.357161 
L 386.283937 758.100346 
L 387.4995 758.100346 
L 388.715063 759.464032 
L 389.930625 759.240262 
L 391.146187 758.111249 
L 392.36175 758.017122 
L 393.577313 759.585066 
L 394.792875 759.911707 
L 396.008438 758.455821 
L 397.224 758.715061 
L 398.439562 761.098235 
L 399.655125 761.04184 
L 400.870688 758.237336 
L 402.08625 758.30831 
L 403.301812 759.217771 
L 404.517375 759.73548 
L 405.732938 758.709246 
L 406.9485 756.880488 
L 408.164062 758.198097 
L 409.379625 757.177701 
L 410.595187 758.586345 
L 411.81075 759.330547 
L 413.026313 759.360475 
L 414.241875 758.884919 
L 415.457437 759.420667 
L 416.673 760.141489 
L 417.888563 759.973819 
L 419.104125 758.232592 
L 420.319687 758.892253 
L 421.53525 760.25239 
L 422.750813 759.306548 
L 423.966375 759.734997 
L 426.3975 757.32692 
L 427.613062 759.814339 
L 428.828625 760.134562 
L 430.044188 760.955482 
L 431.25975 760.442499 
L 432.475312 759.565759 
L 433.690875 759.391738 
L 434.906438 759.480266 
L 436.122 757.817304 
L 437.337562 757.345486 
L 438.553125 757.027459 
L 439.768688 757.293901 
L 440.98425 756.134903 
L 442.199813 756.221687 
L 443.415375 759.068395 
L 444.630937 759.04116 
L 445.8465 758.155647 
L 447.062063 758.014835 
L 448.277625 759.318704 
L 449.493187 759.321446 
L 450.70875 757.168857 
L 451.924313 757.152141 
L 453.139875 758.713012 
L 454.355437 758.65484 
L 455.571 760.710603 
L 456.786562 760.699328 
L 458.002125 758.337711 
L 459.217688 758.33456 
L 460.43325 760.457201 
L 461.648812 760.472541 
L 462.864375 759.353151 
L 464.079938 759.340473 
L 465.2955 755.667781 
L 466.511062 755.677237 
L 467.726625 758.58732 
L 468.942188 758.58732 
L 471.373312 759.236813 
L 472.588875 761.319255 
L 473.804437 761.324455 
L 475.02 759.5705 
L 476.235563 759.327491 
L 477.451125 758.515676 
L 478.666687 758.572108 
L 479.88225 758.388606 
L 481.097813 758.442351 
L 483.528937 758.070211 
L 484.7445 756.744772 
L 485.960063 755.953126 
L 487.175625 757.701206 
L 488.391188 758.042098 
L 489.60675 758.587513 
L 490.822312 757.370848 
L 492.037875 758.502688 
L 493.253438 759.166527 
L 494.469 759.6407 
L 495.684562 758.640881 
L 496.900125 759.264456 
L 498.115688 758.677348 
L 499.33125 759.418496 
L 500.546812 758.212668 
L 501.762375 757.516022 
L 502.977937 758.744281 
L 504.1935 757.873451 
L 505.409063 757.440094 
L 506.624625 757.756662 
L 507.840187 757.487946 
L 509.05575 761.109958 
L 510.271313 759.675605 
L 511.486875 760.328479 
L 512.702437 758.802243 
L 513.918 756.814203 
L 515.133563 757.861627 
L 516.349125 757.010616 
L 517.564687 758.284178 
L 518.78025 757.428196 
L 519.995812 755.84688 
L 521.211375 756.324392 
L 522.426938 756.663541 
L 523.6425 756.576498 
L 524.858062 760.337639 
L 526.073625 760.497666 
L 527.289188 759.846989 
L 529.720312 758.819795 
L 530.935875 758.770191 
L 532.151438 757.116297 
L 533.367 757.170735 
L 534.582562 757.921517 
L 535.798125 757.598703 
L 537.013687 758.310787 
L 538.22925 758.545494 
L 539.444813 760.315644 
L 540.660375 759.973189 
L 541.875937 759.21831 
L 543.0915 758.725433 
L 544.307063 757.12037 
L 545.522625 757.454357 
L 546.738187 759.712041 
L 547.95375 759.807094 
L 549.169312 759.182838 
L 550.384875 759.961932 
L 551.600437 760.886593 
L 552.816 759.521553 
L 555.247125 758.685443 
L 556.462688 760.354694 
L 557.67825 760.962144 
L 558.893812 760.628893 
L 560.109375 762.234288 
L 561.324938 761.047261 
L 562.5405 761.904714 
L 563.756062 761.090838 
L 564.971625 761.139661 
L 566.187187 758.7657 
L 567.40275 759.166842 
L 568.618313 758.382777 
L 569.833875 757.866708 
L 571.049437 758.643746 
L 572.265 759.864298 
L 573.480563 757.673597 
L 574.696125 758.588682 
L 577.12725 757.930897 
L 578.342812 761.675028 
L 579.558375 760.994686 
L 580.773937 759.799946 
L 581.9895 759.701258 
L 583.205062 757.983435 
L 584.420625 758.347263 
L 585.636188 760.589997 
L 586.85175 759.492492 
L 588.067312 761.562707 
L 589.282875 761.091275 
L 590.498438 758.541842 
L 591.714 757.611106 
L 592.929562 758.985343 
L 594.145125 758.280488 
L 595.360687 757.151617 
L 596.57625 759.063164 
L 597.791812 760.019634 
L 599.007375 758.922046 
L 600.222937 758.624963 
L 602.654063 759.038345 
L 603.869625 759.524293 
L 605.085187 758.793107 
L 606.30075 759.385051 
L 607.516313 759.181687 
L 608.731875 760.301628 
L 609.947437 759.412034 
L 611.163 758.664573 
L 612.378562 759.383829 
L 613.594125 761.012825 
L 614.809687 758.153515 
L 616.02525 759.246204 
L 617.240812 756.400885 
L 618.456375 754.78959 
L 619.671938 754.908476 
L 620.8875 757.224312 
L 622.103062 759.002003 
L 623.318625 758.960125 
L 624.534187 761.188267 
L 625.74975 759.431804 
L 626.965312 758.400784 
L 628.180875 759.727351 
L 629.396437 758.81459 
L 630.612 758.069143 
L 631.827562 757.657599 
L 633.043125 758.895902 
L 634.258687 760.607242 
L 635.47425 759.275488 
L 636.689813 758.503729 
L 637.905375 760.306115 
L 639.120937 761.026189 
L 640.3365 760.274294 
L 641.552062 758.762952 
L 642.767625 758.010087 
L 643.983187 758.575645 
L 645.19875 758.782029 
L 646.414312 760.069989 
L 647.629875 758.160384 
L 648.845437 757.606278 
L 651.276562 758.346377 
L 652.492125 760.086783 
L 653.707687 760.331126 
L 654.92325 758.801157 
L 656.138812 759.416438 
L 657.354375 759.376376 
L 658.569937 758.410681 
L 659.7855 760.21139 
L 661.001062 760.497738 
L 662.216625 761.965458 
L 663.432187 759.469595 
L 664.64775 759.067896 
L 665.863312 759.948545 
L 667.078875 759.065736 
L 668.294437 761.556439 
L 669.51 761.039391 
L 670.725562 758.895404 
L 671.941125 759.916772 
L 673.156687 758.595493 
L 674.37225 757.589629 
L 675.587812 757.357427 
L 676.803375 758.232125 
L 678.018937 758.66665 
L 679.2345 759.301592 
L 680.450062 760.21125 
L 681.665625 760.625079 
L 682.881187 759.336694 
L 684.09675 760.409263 
L 685.312312 759.26568 
L 686.527875 758.394094 
L 687.743437 760.118718 
L 690.174562 760.092264 
L 691.390125 760.539336 
L 692.605687 759.829651 
L 693.82125 755.8302 
L 695.036812 756.952555 
L 696.252375 756.439917 
L 697.467937 757.948574 
L 698.6835 758.182216 
L 699.899062 758.92949 
L 701.114625 761.351502 
L 702.330187 761.445878 
L 703.54575 760.649954 
L 704.761312 760.152746 
L 705.976875 759.03417 
L 707.192437 759.147663 
L 708.408 757.536331 
L 709.623562 757.397001 
L 710.839125 758.929629 
L 712.054687 758.648828 
L 713.27025 758.860139 
L 714.485812 758.595336 
L 715.701375 758.720313 
L 716.916937 758.52706 
L 718.1325 758.775509 
L 719.348062 759.315628 
L 720.563625 760.486677 
L 721.779187 760.339767 
L 722.99475 759.208106 
L 724.210312 759.230171 
L 725.425875 756.358004 
L 726.641437 756.321435 
L 727.857 757.88492 
L 729.072562 757.920875 
L 730.288125 759.71322 
L 731.503687 759.697675 
L 732.71925 759.919586 
L 733.934812 759.961047 
L 735.150375 760.517406 
L 736.365937 760.538949 
L 737.5815 759.055785 
L 738.797062 759.0564 
L 740.012625 755.968775 
L 741.228187 756.130513 
L 742.44375 758.897934 
L 743.659312 758.937879 
L 744.874875 762.571877 
L 746.090437 762.569251 
L 747.306 759.696829 
L 748.521562 759.641063 
L 749.737125 760.082322 
L 750.952687 760.026269 
L 752.16825 760.231712 
L 753.383812 760.272407 
L 754.599375 758.507486 
L 755.814937 758.319379 
L 757.0305 758.748142 
L 760.677187 759.035942 
L 761.89275 758.529198 
L 763.108312 758.820374 
L 764.323875 756.977176 
L 765.539437 757.678014 
L 766.755 759.21884 
L 767.970562 759.155871 
L 769.186125 761.259989 
L 770.401687 758.677649 
L 771.61725 759.317066 
L 772.832812 757.679804 
L 774.048375 759.163606 
L 775.263937 758.61276 
L 776.4795 759.244371 
L 777.695062 762.078509 
L 778.910625 760.301082 
L 780.126187 762.027023 
L 781.34175 758.880837 
L 782.557312 760.505157 
L 783.772875 759.10092 
L 784.988437 758.417214 
L 786.204 759.673569 
L 787.419562 759.535706 
L 788.635125 759.075089 
L 789.850687 758.267759 
L 791.06625 759.465451 
L 792.281812 760.225064 
L 793.497375 759.360033 
L 794.712937 760.154151 
L 795.9285 759.387626 
L 797.144062 761.812209 
L 798.359625 762.225049 
L 799.575187 760.382864 
L 800.79075 760.976907 
L 802.006312 760.189916 
L 803.221875 760.016032 
L 804.437437 761.096523 
L 805.653 761.100251 
L 806.868562 762.45686 
L 808.084125 762.248247 
L 809.299687 759.419311 
L 810.51525 759.429841 
L 811.730812 757.321856 
L 812.946375 757.313819 
L 814.161937 759.871153 
L 815.3775 759.871153 
L 816.593062 760.046286 
L 819.024187 759.94179 
L 820.23975 759.919196 
L 821.455312 759.554303 
L 822.670875 759.618143 
L 823.886437 757.589204 
L 825.102 757.529123 
L 826.317562 761.263574 
L 827.533125 761.22098 
L 828.748687 760.672763 
L 829.96425 760.672763 
L 831.179812 759.959677 
L 832.395375 759.933215 
L 833.610937 756.457864 
L 834.8265 756.647821 
L 836.042062 756.251309 
L 837.257625 756.428266 
L 838.473187 759.289026 
L 839.68875 758.897313 
L 840.904312 760.719764 
L 842.119875 761.465832 
L 843.335437 760.373291 
L 844.551 759.65682 
L 845.766562 760.151732 
L 846.982125 759.857792 
L 848.197687 757.579908 
L 849.41325 757.744493 
L 850.628812 759.097494 
L 851.844375 759.74165 
L 853.059937 758.574694 
L 854.2755 757.853182 
L 855.491062 760.002608 
L 856.706625 758.39124 
L 857.922187 755.997233 
L 859.13775 757.116587 
L 860.353312 758.892789 
L 861.568875 757.804374 
L 862.784437 759.008894 
L 864 759.379921 
L 865.215562 761.991933 
L 866.431125 761.633284 
L 867.646687 760.548201 
L 868.86225 760.272934 
L 870.077812 758.389912 
L 871.293375 757.835338 
L 872.508937 757.697665 
L 873.7245 758.995032 
L 874.940062 758.770214 
L 876.155625 759.031613 
L 877.371187 757.989729 
L 878.58675 758.487521 
L 879.802312 758.35185 
L 881.017875 757.240096 
L 882.233437 757.238427 
L 883.449 760.03716 
L 885.880125 759.269354 
L 887.095687 759.89414 
L 888.31125 757.862216 
L 889.526812 757.768364 
L 890.742375 758.980022 
L 891.957937 758.949782 
L 893.1735 758.702284 
L 894.389062 758.670453 
L 895.604625 758.309331 
L 896.820187 758.324657 
L 898.03575 759.017558 
L 899.251312 758.934377 
L 900.466875 757.379485 
L 901.682437 757.468593 
L 902.898 757.069732 
L 904.113562 757.075076 
L 905.329125 759.573351 
L 906.544687 759.578498 
L 907.76025 759.109913 
L 908.975812 759.059922 
L 910.191375 760.586613 
L 911.406937 760.570243 
L 912.6225 759.078257 
L 913.838062 759.117222 
L 915.053625 758.642497 
L 916.269187 758.622864 
L 917.48475 759.013423 
L 918.700312 759.011755 
L 919.915875 760.663398 
L 921.131437 760.674962 
L 922.347 757.048331 
L 923.562562 757.057674 
L 924.778125 758.800336 
L 925.993687 758.812704 
L 927.20925 760.938615 
L 928.424812 760.924626 
L 929.640375 760.273934 
L 930.855937 760.270162 
L 932.0715 757.864011 
L 933.287062 757.865204 
L 934.502625 758.631918 
L 935.718187 758.695033 
L 936.93375 760.187915 
L 938.149312 760.132944 
L 939.364875 759.769867 
L 940.580437 759.769867 
L 941.796 760.138614 
L 943.011562 760.138614 
L 944.227125 761.50756 
L 945.442687 761.656992 
L 946.65825 760.466861 
L 947.873812 760.55059 
L 949.089375 761.422409 
L 950.304937 761.317321 
L 951.5205 757.974581 
L 952.736062 757.837751 
L 953.951625 757.468559 
L 955.167187 757.720895 
L 956.38275 759.057358 
L 957.598312 759.149533 
L 958.813875 761.11432 
L 960.029437 760.445113 
L 961.245 758.528976 
L 962.460562 758.902905 
L 963.676125 758.011599 
L 964.891687 757.965013 
L 966.10725 758.366745 
L 967.322812 758.38266 
L 968.538375 760.518511 
L 969.753937 761.446656 
L 970.9695 760.365692 
L 972.185062 760.210736 
L 973.400625 758.472464 
L 974.616187 758.782537 
L 975.83175 760.184974 
L 977.047312 759.233951 
L 978.262875 760.226104 
L 979.478437 758.695582 
L 980.694 757.675237 
L 981.909562 756.984063 
L 983.125125 758.43724 
L 984.340687 757.901709 
L 985.55625 757.816042 
L 986.771812 758.865237 
L 987.987375 756.650652 
L 989.202937 756.760891 
L 990.4185 759.102274 
L 991.634062 758.309396 
L 992.849625 759.091677 
L 994.065187 757.091982 
L 995.28075 757.638675 
L 996.496312 757.998631 
L 997.711875 757.208032 
L 998.927437 759.080545 
L 1000.143 758.962 
L 1001.358562 758.018867 
L 1002.574125 759.525108 
L 1003.789687 760.073895 
L 1005.00525 757.730258 
L 1006.220812 759.187855 
L 1007.436375 758.225537 
L 1008.651937 758.249595 
L 1009.8675 756.722154 
L 1011.083062 758.282214 
L 1012.298625 759.20221 
L 1013.514187 758.248559 
L 1014.72975 759.213119 
L 1015.945312 759.144402 
L 1017.160875 759.909471 
L 1018.376437 759.098613 
L 1019.592 760.494823 
L 1020.807562 759.000438 
L 1022.023125 757.833036 
L 1023.238687 760.388959 
L 1024.45425 760.228427 
L 1025.669813 758.088711 
L 1026.885375 758.677986 
L 1029.3165 759.071827 
L 1030.532062 760.574344 
L 1031.747625 760.735733 
L 1032.963188 759.248553 
L 1036.609875 759.159513 
L 1037.825437 758.604954 
L 1039.041 758.217439 
L 1040.256562 758.639311 
L 1041.472125 758.643552 
L 1042.687688 757.923336 
L 1043.90325 758.054972 
L 1045.118812 759.093663 
L 1046.334375 759.093663 
L 1047.549937 760.467362 
L 1048.7655 760.445826 
L 1049.981063 759.885926 
L 1051.196625 759.987086 
L 1052.412187 760.484643 
L 1053.62775 760.488657 
L 1054.843312 759.865975 
L 1056.058875 759.883172 
L 1057.274437 758.821462 
L 1058.49 758.808187 
L 1059.705563 759.001763 
L 1060.921125 758.9662 
L 1062.136687 760.21187 
L 1063.35225 760.221415 
L 1064.567812 758.473921 
L 1066.998938 758.514221 
L 1068.2145 758.640276 
L 1070.645625 759.523469 
L 1071.861187 759.538507 
L 1073.07675 759.924799 
L 1074.292312 761.911421 
L 1075.507875 761.473328 
L 1076.723437 758.264277 
L 1077.939 758.310837 
L 1079.154562 758.594517 
L 1080.370125 758.569367 
L 1081.585687 761.480345 
L 1082.80125 762.024441 
L 1084.016813 760.151784 
L 1085.232375 760.27332 
L 1086.447937 761.829326 
L 1087.6635 761.870273 
L 1088.879062 758.98494 
L 1090.094625 760.158696 
L 1091.310187 759.483441 
L 1092.52575 759.651056 
L 1093.741312 761.12222 
L 1094.956875 762.172839 
L 1096.172437 760.08873 
L 1097.388 759.412493 
L 1098.603562 760.56181 
L 1099.819125 759.458278 
L 1101.034688 760.375994 
L 1102.25025 760.448495 
L 1103.465812 758.896155 
L 1104.681375 757.633055 
L 1105.896937 759.909742 
L 1107.1125 759.308041 
L 1108.328062 758.269707 
L 1109.543625 758.763951 
L 1110.759187 758.912778 
L 1111.97475 757.113559 
L 1113.190312 758.574456 
L 1114.405875 758.697357 
L 1115.621437 760.525137 
L 1116.837 758.902115 
L 1118.052563 759.654482 
L 1119.268125 756.643747 
L 1120.483687 756.495028 
L 1121.69925 757.800522 
L 1122.914812 758.781165 
L 1124.130375 759.305821 
L 1125.345937 760.845064 
L 1127.777062 759.978941 
L 1128.992625 760.322139 
L 1130.208187 761.115406 
L 1131.42375 758.758782 
L 1132.639312 758.496632 
L 1133.854875 759.108739 
L 1135.070438 759.54719 
L 1136.286 758.556215 
L 1137.501562 758.79423 
L 1138.717125 760.287112 
L 1139.932687 760.802889 
L 1141.14825 759.35664 
L 1142.363812 759.991719 
L 1143.579375 758.194695 
L 1144.794937 758.057501 
L 1146.0105 758.436983 
L 1147.226062 758.458054 
L 1148.441625 758.62164 
L 1149.657187 758.658023 
L 1150.87275 760.943157 
L 1152.088312 760.98536 
L 1153.303875 760.427925 
L 1154.519437 760.427444 
L 1155.735 757.842322 
L 1156.950562 757.842322 
L 1158.166125 758.887968 
L 1159.381687 758.890666 
L 1160.59725 759.257065 
L 1161.812813 759.399589 
L 1163.028375 756.596144 
L 1164.243937 756.787063 
L 1165.4595 758.228719 
L 1167.890625 758.480523 
L 1169.106188 758.699463 
L 1170.32175 758.140964 
L 1171.537312 758.095942 
L 1172.752875 759.535021 
L 1173.968437 760.041774 
L 1175.184 757.642202 
L 1176.399563 757.313458 
L 1177.615125 759.80639 
L 1178.830688 758.842914 
L 1181.261812 759.030681 
L 1182.477375 757.773393 
L 1184.9085 757.872514 
L 1186.124063 758.577333 
L 1187.339625 759.584844 
L 1188.555187 759.126214 
L 1189.77075 757.762419 
L 1190.986312 757.786677 
L 1192.201875 760.47068 
L 1193.417438 760.046595 
L 1194.633 759.407123 
L 1195.848563 760.00295 
L 1197.064125 759.542435 
L 1198.279687 759.541782 
L 1199.49525 760.598317 
L 1200.710812 761.904819 
L 1201.926375 759.631706 
L 1203.141938 758.857297 
L 1204.3575 757.747377 
L 1206.788625 760.9085 
L 1208.004187 761.971783 
L 1209.21975 760.37082 
L 1210.435313 761.291837 
L 1211.650875 761.700286 
L 1212.866438 760.362196 
L 1215.297562 758.849515 
L 1216.513125 760.60484 
L 1217.728687 759.75421 
L 1218.94425 758.066534 
L 1220.159813 758.731633 
L 1221.375375 760.492232 
L 1222.590937 759.084379 
L 1223.8065 759.047983 
L 1225.022062 761.134162 
L 1226.237625 761.171174 
L 1228.66875 760.295524 
L 1229.884312 760.71663 
L 1231.099875 759.044279 
L 1232.315437 760.166273 
L 1233.531 759.462549 
L 1234.746562 758.50812 
L 1235.962125 758.177139 
L 1237.177688 755.942947 
L 1238.39325 757.618934 
L 1239.608812 761.744108 
L 1240.824375 761.011382 
L 1242.039937 761.29332 
L 1243.2555 761.833699 
L 1244.471063 759.964468 
L 1245.686625 760.144373 
L 1246.902187 758.887938 
L 1248.11775 759.127468 
L 1249.333312 757.962899 
L 1250.548875 757.944024 
L 1251.764437 759.360731 
L 1255.411125 759.326579 
L 1256.626687 761.075975 
L 1257.84225 761.051483 
L 1259.057812 762.433276 
L 1260.273375 762.404052 
L 1261.488938 759.207592 
L 1262.7045 759.255294 
L 1263.920062 759.975907 
L 1265.135625 759.971093 
L 1266.351187 754.351574 
L 1267.56675 754.342727 
L 1268.782312 758.080409 
L 1269.997875 758.089356 
L 1271.213438 756.205411 
L 1272.429 756.237309 
L 1273.644562 758.245738 
L 1274.860125 758.250128 
L 1276.075687 758.563851 
L 1277.29125 758.583601 
L 1278.506813 759.68559 
L 1279.722375 759.705631 
L 1280.937937 762.719947 
L 1282.1535 762.71731 
L 1283.369062 761.103295 
L 1284.584625 761.162021 
L 1285.800187 758.756021 
L 1287.01575 758.756626 
L 1288.231313 757.304994 
L 1289.446875 757.318129 
L 1290.662437 756.85564 
L 1291.878 756.808981 
L 1293.093562 757.855357 
L 1294.309125 757.850274 
L 1295.524688 759.130826 
L 1296.74025 759.120396 
L 1297.955812 758.613543 
L 1299.171375 758.625874 
L 1300.386937 757.912841 
L 1301.6025 757.807524 
L 1302.818062 760.375232 
L 1304.033625 760.403361 
L 1305.249187 758.040327 
L 1306.46475 758.003107 
L 1307.680312 759.882835 
L 1308.895875 759.908286 
L 1310.111437 760.570378 
L 1311.327 760.546272 
L 1312.542563 759.441077 
L 1313.758125 759.432903 
L 1314.973687 758.103802 
L 1316.18925 758.110546 
L 1317.404812 758.326644 
L 1318.620375 758.322641 
L 1319.835938 759.277024 
L 1321.0515 759.284843 
L 1322.267062 758.994947 
L 1323.482625 759.048302 
L 1324.698187 760.949238 
L 1325.91375 760.945855 
L 1327.129312 758.518425 
L 1328.344875 758.584315 
L 1329.560438 760.591563 
L 1330.776 760.637136 
L 1331.991562 759.470268 
L 1333.207125 759.470268 
L 1334.422687 759.051214 
L 1335.63825 759.291345 
L 1336.853813 759.374479 
L 1338.069375 759.596441 
L 1339.284937 758.993623 
L 1340.5005 759.237518 
L 1341.716062 756.240136 
L 1342.931625 756.580325 
L 1344.147187 757.877615 
L 1345.36275 758.040384 
L 1346.578313 758.426057 
L 1347.793875 758.165773 
L 1349.009437 759.469838 
L 1350.225 758.52235 
L 1350.225 758.52235 
" style="fill:none;stroke:#008000;stroke-linecap:square;stroke-width:2.0;"/>
   </g>
   <g id="patch_3">
    <path d="M 134.6625 47.25 
L 1350.225 47.25 
" style="fill:none;stroke:#000000;stroke-linecap:square;stroke-linejoin:miter;"/>
   </g>
   <g id="patch_4">
    <path d="M 1350.225 763.2 
L 1350.225 47.25 
" style="fill:none;stroke:#000000;stroke-linecap:square;stroke-linejoin:miter;"/>
   </g>
   <g id="patch_5">
    <path d="M 134.6625 763.2 
L 1350.225 763.2 
" style="fill:none;stroke:#000000;stroke-linecap:square;stroke-linejoin:miter;"/>
   </g>
   <g id="patch_6">
    <path d="M 134.6625 763.2 
L 134.6625 47.25 
" style="fill:none;stroke:#000000;stroke-linecap:square;stroke-linejoin:miter;"/>
   </g>
   <g id="matplotlib.axis_1">
    <g id="xtick_1">
     <g id="line2d_3">
      <defs>
       <path d="M 0 0 
L 0 -4 
" id="m07a8916a2a" style="stroke:#000000;stroke-width:0.5;"/>
      </defs>
      <g>
       <use style="stroke:#000000;stroke-width:0.5;" x="134.6625" xlink:href="#m07a8916a2a" y="763.2"/>
      </g>
     </g>
     <g id="line2d_4">
      <defs>
       <path d="M 0 0 
L 0 4 
" id="md7b0e15f26" style="stroke:#000000;stroke-width:0.5;"/>
      </defs>
      <g>
       <use style="stroke:#000000;stroke-width:0.5;" x="134.6625" xlink:href="#md7b0e15f26" y="47.25"/>
      </g>
     </g>
     <g id="text_1">
      <!-- 0 -->
      <defs>
       <path d="M 31.78125 66.40625 
Q 24.171875 66.40625 20.328125 58.90625 
Q 16.5 51.421875 16.5 36.375 
Q 16.5 21.390625 20.328125 13.890625 
Q 24.171875 6.390625 31.78125 6.390625 
Q 39.453125 6.390625 43.28125 13.890625 
Q 47.125 21.390625 47.125 36.375 
Q 47.125 51.421875 43.28125 58.90625 
Q 39.453125 66.40625 31.78125 66.40625 
M 31.78125 74.21875 
Q 44.046875 74.21875 50.515625 64.515625 
Q 56.984375 54.828125 56.984375 36.375 
Q 56.984375 17.96875 50.515625 8.265625 
Q 44.046875 -1.421875 31.78125 -1.421875 
Q 19.53125 -1.421875 13.0625 8.265625 
Q 6.59375 17.96875 6.59375 36.375 
Q 6.59375 54.828125 13.0625 64.515625 
Q 19.53125 74.21875 31.78125 74.21875 
" id="BitstreamVeraSans-Roman-30"/>
      </defs>
      <g transform="translate(125.11875 789.9953125)scale(0.3 -0.3)">
       <use xlink:href="#BitstreamVeraSans-Roman-30"/>
      </g>
     </g>
    </g>
    <g id="xtick_2">
     <g id="line2d_5">
      <g>
       <use style="stroke:#000000;stroke-width:0.5;" x="377.775" xlink:href="#m07a8916a2a" y="763.2"/>
      </g>
     </g>
     <g id="line2d_6">
      <g>
       <use style="stroke:#000000;stroke-width:0.5;" x="377.775" xlink:href="#md7b0e15f26" y="47.25"/>
      </g>
     </g>
     <g id="text_2">
      <!-- 20000 -->
      <defs>
       <path d="M 19.1875 8.296875 
L 53.609375 8.296875 
L 53.609375 0 
L 7.328125 0 
L 7.328125 8.296875 
Q 12.9375 14.109375 22.625 23.890625 
Q 32.328125 33.6875 34.8125 36.53125 
Q 39.546875 41.84375 41.421875 45.53125 
Q 43.3125 49.21875 43.3125 52.78125 
Q 43.3125 58.59375 39.234375 62.25 
Q 35.15625 65.921875 28.609375 65.921875 
Q 23.96875 65.921875 18.8125 64.3125 
Q 13.671875 62.703125 7.8125 59.421875 
L 7.8125 69.390625 
Q 13.765625 71.78125 18.9375 73 
Q 24.125 74.21875 28.421875 74.21875 
Q 39.75 74.21875 46.484375 68.546875 
Q 53.21875 62.890625 53.21875 53.421875 
Q 53.21875 48.921875 51.53125 44.890625 
Q 49.859375 40.875 45.40625 35.40625 
Q 44.1875 33.984375 37.640625 27.21875 
Q 31.109375 20.453125 19.1875 8.296875 
" id="BitstreamVeraSans-Roman-32"/>
      </defs>
      <g transform="translate(330.05625 789.9953125)scale(0.3 -0.3)">
       <use xlink:href="#BitstreamVeraSans-Roman-32"/>
       <use x="63.623046875" xlink:href="#BitstreamVeraSans-Roman-30"/>
       <use x="127.24609375" xlink:href="#BitstreamVeraSans-Roman-30"/>
       <use x="190.869140625" xlink:href="#BitstreamVeraSans-Roman-30"/>
       <use x="254.4921875" xlink:href="#BitstreamVeraSans-Roman-30"/>
      </g>
     </g>
    </g>
    <g id="xtick_3">
     <g id="line2d_7">
      <g>
       <use style="stroke:#000000;stroke-width:0.5;" x="620.8875" xlink:href="#m07a8916a2a" y="763.2"/>
      </g>
     </g>
     <g id="line2d_8">
      <g>
       <use style="stroke:#000000;stroke-width:0.5;" x="620.8875" xlink:href="#md7b0e15f26" y="47.25"/>
      </g>
     </g>
     <g id="text_3">
      <!-- 40000 -->
      <defs>
       <path d="M 37.796875 64.3125 
L 12.890625 25.390625 
L 37.796875 25.390625 
z
M 35.203125 72.90625 
L 47.609375 72.90625 
L 47.609375 25.390625 
L 58.015625 25.390625 
L 58.015625 17.1875 
L 47.609375 17.1875 
L 47.609375 0 
L 37.796875 0 
L 37.796875 17.1875 
L 4.890625 17.1875 
L 4.890625 26.703125 
z
" id="BitstreamVeraSans-Roman-34"/>
      </defs>
      <g transform="translate(573.16875 789.9953125)scale(0.3 -0.3)">
       <use xlink:href="#BitstreamVeraSans-Roman-34"/>
       <use x="63.623046875" xlink:href="#BitstreamVeraSans-Roman-30"/>
       <use x="127.24609375" xlink:href="#BitstreamVeraSans-Roman-30"/>
       <use x="190.869140625" xlink:href="#BitstreamVeraSans-Roman-30"/>
       <use x="254.4921875" xlink:href="#BitstreamVeraSans-Roman-30"/>
      </g>
     </g>
    </g>
    <g id="xtick_4">
     <g id="line2d_9">
      <g>
       <use style="stroke:#000000;stroke-width:0.5;" x="864.0" xlink:href="#m07a8916a2a" y="763.2"/>
      </g>
     </g>
     <g id="line2d_10">
      <g>
       <use style="stroke:#000000;stroke-width:0.5;" x="864.0" xlink:href="#md7b0e15f26" y="47.25"/>
      </g>
     </g>
     <g id="text_4">
      <!-- 60000 -->
      <defs>
       <path d="M 33.015625 40.375 
Q 26.375 40.375 22.484375 35.828125 
Q 18.609375 31.296875 18.609375 23.390625 
Q 18.609375 15.53125 22.484375 10.953125 
Q 26.375 6.390625 33.015625 6.390625 
Q 39.65625 6.390625 43.53125 10.953125 
Q 47.40625 15.53125 47.40625 23.390625 
Q 47.40625 31.296875 43.53125 35.828125 
Q 39.65625 40.375 33.015625 40.375 
M 52.59375 71.296875 
L 52.59375 62.3125 
Q 48.875 64.0625 45.09375 64.984375 
Q 41.3125 65.921875 37.59375 65.921875 
Q 27.828125 65.921875 22.671875 59.328125 
Q 17.53125 52.734375 16.796875 39.40625 
Q 19.671875 43.65625 24.015625 45.921875 
Q 28.375 48.1875 33.59375 48.1875 
Q 44.578125 48.1875 50.953125 41.515625 
Q 57.328125 34.859375 57.328125 23.390625 
Q 57.328125 12.15625 50.6875 5.359375 
Q 44.046875 -1.421875 33.015625 -1.421875 
Q 20.359375 -1.421875 13.671875 8.265625 
Q 6.984375 17.96875 6.984375 36.375 
Q 6.984375 53.65625 15.1875 63.9375 
Q 23.390625 74.21875 37.203125 74.21875 
Q 40.921875 74.21875 44.703125 73.484375 
Q 48.484375 72.75 52.59375 71.296875 
" id="BitstreamVeraSans-Roman-36"/>
      </defs>
      <g transform="translate(816.28125 789.9953125)scale(0.3 -0.3)">
       <use xlink:href="#BitstreamVeraSans-Roman-36"/>
       <use x="63.623046875" xlink:href="#BitstreamVeraSans-Roman-30"/>
       <use x="127.24609375" xlink:href="#BitstreamVeraSans-Roman-30"/>
       <use x="190.869140625" xlink:href="#BitstreamVeraSans-Roman-30"/>
       <use x="254.4921875" xlink:href="#BitstreamVeraSans-Roman-30"/>
      </g>
     </g>
    </g>
    <g id="xtick_5">
     <g id="line2d_11">
      <g>
       <use style="stroke:#000000;stroke-width:0.5;" x="1107.1125" xlink:href="#m07a8916a2a" y="763.2"/>
      </g>
     </g>
     <g id="line2d_12">
      <g>
       <use style="stroke:#000000;stroke-width:0.5;" x="1107.1125" xlink:href="#md7b0e15f26" y="47.25"/>
      </g>
     </g>
     <g id="text_5">
      <!-- 80000 -->
      <defs>
       <path d="M 31.78125 34.625 
Q 24.75 34.625 20.71875 30.859375 
Q 16.703125 27.09375 16.703125 20.515625 
Q 16.703125 13.921875 20.71875 10.15625 
Q 24.75 6.390625 31.78125 6.390625 
Q 38.8125 6.390625 42.859375 10.171875 
Q 46.921875 13.96875 46.921875 20.515625 
Q 46.921875 27.09375 42.890625 30.859375 
Q 38.875 34.625 31.78125 34.625 
M 21.921875 38.8125 
Q 15.578125 40.375 12.03125 44.71875 
Q 8.5 49.078125 8.5 55.328125 
Q 8.5 64.0625 14.71875 69.140625 
Q 20.953125 74.21875 31.78125 74.21875 
Q 42.671875 74.21875 48.875 69.140625 
Q 55.078125 64.0625 55.078125 55.328125 
Q 55.078125 49.078125 51.53125 44.71875 
Q 48 40.375 41.703125 38.8125 
Q 48.828125 37.15625 52.796875 32.3125 
Q 56.78125 27.484375 56.78125 20.515625 
Q 56.78125 9.90625 50.3125 4.234375 
Q 43.84375 -1.421875 31.78125 -1.421875 
Q 19.734375 -1.421875 13.25 4.234375 
Q 6.78125 9.90625 6.78125 20.515625 
Q 6.78125 27.484375 10.78125 32.3125 
Q 14.796875 37.15625 21.921875 38.8125 
M 18.3125 54.390625 
Q 18.3125 48.734375 21.84375 45.5625 
Q 25.390625 42.390625 31.78125 42.390625 
Q 38.140625 42.390625 41.71875 45.5625 
Q 45.3125 48.734375 45.3125 54.390625 
Q 45.3125 60.0625 41.71875 63.234375 
Q 38.140625 66.40625 31.78125 66.40625 
Q 25.390625 66.40625 21.84375 63.234375 
Q 18.3125 60.0625 18.3125 54.390625 
" id="BitstreamVeraSans-Roman-38"/>
      </defs>
      <g transform="translate(1059.39375 789.9953125)scale(0.3 -0.3)">
       <use xlink:href="#BitstreamVeraSans-Roman-38"/>
       <use x="63.623046875" xlink:href="#BitstreamVeraSans-Roman-30"/>
       <use x="127.24609375" xlink:href="#BitstreamVeraSans-Roman-30"/>
       <use x="190.869140625" xlink:href="#BitstreamVeraSans-Roman-30"/>
       <use x="254.4921875" xlink:href="#BitstreamVeraSans-Roman-30"/>
      </g>
     </g>
    </g>
    <g id="xtick_6">
     <g id="line2d_13">
      <g>
       <use style="stroke:#000000;stroke-width:0.5;" x="1350.225" xlink:href="#m07a8916a2a" y="763.2"/>
      </g>
     </g>
     <g id="line2d_14">
      <g>
       <use style="stroke:#000000;stroke-width:0.5;" x="1350.225" xlink:href="#md7b0e15f26" y="47.25"/>
      </g>
     </g>
     <g id="text_6">
      <!-- 100000 -->
      <defs>
       <path d="M 12.40625 8.296875 
L 28.515625 8.296875 
L 28.515625 63.921875 
L 10.984375 60.40625 
L 10.984375 69.390625 
L 28.421875 72.90625 
L 38.28125 72.90625 
L 38.28125 8.296875 
L 54.390625 8.296875 
L 54.390625 0 
L 12.40625 0 
z
" id="BitstreamVeraSans-Roman-31"/>
      </defs>
      <g transform="translate(1292.9625 789.9953125)scale(0.3 -0.3)">
       <use xlink:href="#BitstreamVeraSans-Roman-31"/>
       <use x="63.623046875" xlink:href="#BitstreamVeraSans-Roman-30"/>
       <use x="127.24609375" xlink:href="#BitstreamVeraSans-Roman-30"/>
       <use x="190.869140625" xlink:href="#BitstreamVeraSans-Roman-30"/>
       <use x="254.4921875" xlink:href="#BitstreamVeraSans-Roman-30"/>
       <use x="318.115234375" xlink:href="#BitstreamVeraSans-Roman-30"/>
      </g>
     </g>
    </g>
    <g id="text_7">
     <!-- iterations -->
     <defs>
      <path d="M 54.890625 33.015625 
L 54.890625 0 
L 45.90625 0 
L 45.90625 32.71875 
Q 45.90625 40.484375 42.875 44.328125 
Q 39.84375 48.1875 33.796875 48.1875 
Q 26.515625 48.1875 22.3125 43.546875 
Q 18.109375 38.921875 18.109375 30.90625 
L 18.109375 0 
L 9.078125 0 
L 9.078125 54.6875 
L 18.109375 54.6875 
L 18.109375 46.1875 
Q 21.34375 51.125 25.703125 53.5625 
Q 30.078125 56 35.796875 56 
Q 45.21875 56 50.046875 50.171875 
Q 54.890625 44.34375 54.890625 33.015625 
" id="BitstreamVeraSans-Roman-6e"/>
      <path d="M 34.28125 27.484375 
Q 23.390625 27.484375 19.1875 25 
Q 14.984375 22.515625 14.984375 16.5 
Q 14.984375 11.71875 18.140625 8.90625 
Q 21.296875 6.109375 26.703125 6.109375 
Q 34.1875 6.109375 38.703125 11.40625 
Q 43.21875 16.703125 43.21875 25.484375 
L 43.21875 27.484375 
z
M 52.203125 31.203125 
L 52.203125 0 
L 43.21875 0 
L 43.21875 8.296875 
Q 40.140625 3.328125 35.546875 0.953125 
Q 30.953125 -1.421875 24.3125 -1.421875 
Q 15.921875 -1.421875 10.953125 3.296875 
Q 6 8.015625 6 15.921875 
Q 6 25.140625 12.171875 29.828125 
Q 18.359375 34.515625 30.609375 34.515625 
L 43.21875 34.515625 
L 43.21875 35.40625 
Q 43.21875 41.609375 39.140625 45 
Q 35.0625 48.390625 27.6875 48.390625 
Q 23 48.390625 18.546875 47.265625 
Q 14.109375 46.140625 10.015625 43.890625 
L 10.015625 52.203125 
Q 14.9375 54.109375 19.578125 55.046875 
Q 24.21875 56 28.609375 56 
Q 40.484375 56 46.34375 49.84375 
Q 52.203125 43.703125 52.203125 31.203125 
" id="BitstreamVeraSans-Roman-61"/>
      <path d="M 30.609375 48.390625 
Q 23.390625 48.390625 19.1875 42.75 
Q 14.984375 37.109375 14.984375 27.296875 
Q 14.984375 17.484375 19.15625 11.84375 
Q 23.34375 6.203125 30.609375 6.203125 
Q 37.796875 6.203125 41.984375 11.859375 
Q 46.1875 17.53125 46.1875 27.296875 
Q 46.1875 37.015625 41.984375 42.703125 
Q 37.796875 48.390625 30.609375 48.390625 
M 30.609375 56 
Q 42.328125 56 49.015625 48.375 
Q 55.71875 40.765625 55.71875 27.296875 
Q 55.71875 13.875 49.015625 6.21875 
Q 42.328125 -1.421875 30.609375 -1.421875 
Q 18.84375 -1.421875 12.171875 6.21875 
Q 5.515625 13.875 5.515625 27.296875 
Q 5.515625 40.765625 12.171875 48.375 
Q 18.84375 56 30.609375 56 
" id="BitstreamVeraSans-Roman-6f"/>
      <path d="M 9.421875 54.6875 
L 18.40625 54.6875 
L 18.40625 0 
L 9.421875 0 
z
M 9.421875 75.984375 
L 18.40625 75.984375 
L 18.40625 64.59375 
L 9.421875 64.59375 
z
" id="BitstreamVeraSans-Roman-69"/>
      <path d="M 56.203125 29.59375 
L 56.203125 25.203125 
L 14.890625 25.203125 
Q 15.484375 15.921875 20.484375 11.0625 
Q 25.484375 6.203125 34.421875 6.203125 
Q 39.59375 6.203125 44.453125 7.46875 
Q 49.3125 8.734375 54.109375 11.28125 
L 54.109375 2.78125 
Q 49.265625 0.734375 44.1875 -0.34375 
Q 39.109375 -1.421875 33.890625 -1.421875 
Q 20.796875 -1.421875 13.15625 6.1875 
Q 5.515625 13.8125 5.515625 26.8125 
Q 5.515625 40.234375 12.765625 48.109375 
Q 20.015625 56 32.328125 56 
Q 43.359375 56 49.78125 48.890625 
Q 56.203125 41.796875 56.203125 29.59375 
M 47.21875 32.234375 
Q 47.125 39.59375 43.09375 43.984375 
Q 39.0625 48.390625 32.421875 48.390625 
Q 24.90625 48.390625 20.390625 44.140625 
Q 15.875 39.890625 15.1875 32.171875 
z
" id="BitstreamVeraSans-Roman-65"/>
      <path d="M 18.3125 70.21875 
L 18.3125 54.6875 
L 36.8125 54.6875 
L 36.8125 47.703125 
L 18.3125 47.703125 
L 18.3125 18.015625 
Q 18.3125 11.328125 20.140625 9.421875 
Q 21.96875 7.515625 27.59375 7.515625 
L 36.8125 7.515625 
L 36.8125 0 
L 27.59375 0 
Q 17.1875 0 13.234375 3.875 
Q 9.28125 7.765625 9.28125 18.015625 
L 9.28125 47.703125 
L 2.6875 47.703125 
L 2.6875 54.6875 
L 9.28125 54.6875 
L 9.28125 70.21875 
z
" id="BitstreamVeraSans-Roman-74"/>
      <path d="M 41.109375 46.296875 
Q 39.59375 47.171875 37.8125 47.578125 
Q 36.03125 48 33.890625 48 
Q 26.265625 48 22.1875 43.046875 
Q 18.109375 38.09375 18.109375 28.8125 
L 18.109375 0 
L 9.078125 0 
L 9.078125 54.6875 
L 18.109375 54.6875 
L 18.109375 46.1875 
Q 20.953125 51.171875 25.484375 53.578125 
Q 30.03125 56 36.53125 56 
Q 37.453125 56 38.578125 55.875 
Q 39.703125 55.765625 41.0625 55.515625 
z
" id="BitstreamVeraSans-Roman-72"/>
      <path d="M 44.28125 53.078125 
L 44.28125 44.578125 
Q 40.484375 46.53125 36.375 47.5 
Q 32.28125 48.484375 27.875 48.484375 
Q 21.1875 48.484375 17.84375 46.4375 
Q 14.5 44.390625 14.5 40.28125 
Q 14.5 37.15625 16.890625 35.375 
Q 19.28125 33.59375 26.515625 31.984375 
L 29.59375 31.296875 
Q 39.15625 29.25 43.1875 25.515625 
Q 47.21875 21.78125 47.21875 15.09375 
Q 47.21875 7.46875 41.1875 3.015625 
Q 35.15625 -1.421875 24.609375 -1.421875 
Q 20.21875 -1.421875 15.453125 -0.5625 
Q 10.6875 0.296875 5.421875 2 
L 5.421875 11.28125 
Q 10.40625 8.6875 15.234375 7.390625 
Q 20.0625 6.109375 24.8125 6.109375 
Q 31.15625 6.109375 34.5625 8.28125 
Q 37.984375 10.453125 37.984375 14.40625 
Q 37.984375 18.0625 35.515625 20.015625 
Q 33.0625 21.96875 24.703125 23.78125 
L 21.578125 24.515625 
Q 13.234375 26.265625 9.515625 29.90625 
Q 5.8125 33.546875 5.8125 39.890625 
Q 5.8125 47.609375 11.28125 51.796875 
Q 16.75 56 26.8125 56 
Q 31.78125 56 36.171875 55.265625 
Q 40.578125 54.546875 44.28125 53.078125 
" id="BitstreamVeraSans-Roman-73"/>
     </defs>
     <g transform="translate(671.26171875 824.0296875)scale(0.3 -0.3)">
      <use xlink:href="#BitstreamVeraSans-Roman-69"/>
      <use x="27.783203125" xlink:href="#BitstreamVeraSans-Roman-74"/>
      <use x="66.9921875" xlink:href="#BitstreamVeraSans-Roman-65"/>
      <use x="128.515625" xlink:href="#BitstreamVeraSans-Roman-72"/>
      <use x="169.62890625" xlink:href="#BitstreamVeraSans-Roman-61"/>
      <use x="230.908203125" xlink:href="#BitstreamVeraSans-Roman-74"/>
      <use x="270.1171875" xlink:href="#BitstreamVeraSans-Roman-69"/>
      <use x="297.900390625" xlink:href="#BitstreamVeraSans-Roman-6f"/>
      <use x="359.08203125" xlink:href="#BitstreamVeraSans-Roman-6e"/>
      <use x="422.4609375" xlink:href="#BitstreamVeraSans-Roman-73"/>
     </g>
    </g>
   </g>
   <g id="matplotlib.axis_2">
    <g id="ytick_1">
     <g id="line2d_15">
      <defs>
       <path d="M 0 0 
L 4 0 
" id="m6f4fb5f6cf" style="stroke:#000000;stroke-width:0.5;"/>
      </defs>
      <g>
       <use style="stroke:#000000;stroke-width:0.5;" x="134.6625" xlink:href="#m6f4fb5f6cf" y="763.2"/>
      </g>
     </g>
     <g id="line2d_16">
      <defs>
       <path d="M 0 0 
L -4 0 
" id="mfafc6e288a" style="stroke:#000000;stroke-width:0.5;"/>
      </defs>
      <g>
       <use style="stroke:#000000;stroke-width:0.5;" x="1350.225" xlink:href="#mfafc6e288a" y="763.2"/>
      </g>
     </g>
     <g id="text_8">
      <!-- 60 -->
      <defs>
       <path d="M 10.59375 35.5 
L 73.1875 35.5 
L 73.1875 27.203125 
L 10.59375 27.203125 
z
" id="BitstreamVeraSans-Roman-2212"/>
      </defs>
      <g transform="translate(67.3484375 771.478125)scale(0.3 -0.3)">
       <use xlink:href="#BitstreamVeraSans-Roman-2212"/>
       <use x="83.7890625" xlink:href="#BitstreamVeraSans-Roman-36"/>
       <use x="147.412109375" xlink:href="#BitstreamVeraSans-Roman-30"/>
      </g>
     </g>
    </g>
    <g id="ytick_2">
     <g id="line2d_17">
      <g>
       <use style="stroke:#000000;stroke-width:0.5;" x="134.6625" xlink:href="#m6f4fb5f6cf" y="660.921428571"/>
      </g>
     </g>
     <g id="line2d_18">
      <g>
       <use style="stroke:#000000;stroke-width:0.5;" x="1350.225" xlink:href="#mfafc6e288a" y="660.921428571"/>
      </g>
     </g>
     <g id="text_9">
      <!-- 50 -->
      <defs>
       <path d="M 10.796875 72.90625 
L 49.515625 72.90625 
L 49.515625 64.59375 
L 19.828125 64.59375 
L 19.828125 46.734375 
Q 21.96875 47.46875 24.109375 47.828125 
Q 26.265625 48.1875 28.421875 48.1875 
Q 40.625 48.1875 47.75 41.5 
Q 54.890625 34.8125 54.890625 23.390625 
Q 54.890625 11.625 47.5625 5.09375 
Q 40.234375 -1.421875 26.90625 -1.421875 
Q 22.3125 -1.421875 17.546875 -0.640625 
Q 12.796875 0.140625 7.71875 1.703125 
L 7.71875 11.625 
Q 12.109375 9.234375 16.796875 8.0625 
Q 21.484375 6.890625 26.703125 6.890625 
Q 35.15625 6.890625 40.078125 11.328125 
Q 45.015625 15.765625 45.015625 23.390625 
Q 45.015625 31 40.078125 35.4375 
Q 35.15625 39.890625 26.703125 39.890625 
Q 22.75 39.890625 18.8125 39.015625 
Q 14.890625 38.140625 10.796875 36.28125 
z
" id="BitstreamVeraSans-Roman-35"/>
      </defs>
      <g transform="translate(67.3484375 669.199553571)scale(0.3 -0.3)">
       <use xlink:href="#BitstreamVeraSans-Roman-2212"/>
       <use x="83.7890625" xlink:href="#BitstreamVeraSans-Roman-35"/>
       <use x="147.412109375" xlink:href="#BitstreamVeraSans-Roman-30"/>
      </g>
     </g>
    </g>
    <g id="ytick_3">
     <g id="line2d_19">
      <g>
       <use style="stroke:#000000;stroke-width:0.5;" x="134.6625" xlink:href="#m6f4fb5f6cf" y="558.642857143"/>
      </g>
     </g>
     <g id="line2d_20">
      <g>
       <use style="stroke:#000000;stroke-width:0.5;" x="1350.225" xlink:href="#mfafc6e288a" y="558.642857143"/>
      </g>
     </g>
     <g id="text_10">
      <!-- 40 -->
      <g transform="translate(67.3484375 566.920982143)scale(0.3 -0.3)">
       <use xlink:href="#BitstreamVeraSans-Roman-2212"/>
       <use x="83.7890625" xlink:href="#BitstreamVeraSans-Roman-34"/>
       <use x="147.412109375" xlink:href="#BitstreamVeraSans-Roman-30"/>
      </g>
     </g>
    </g>
    <g id="ytick_4">
     <g id="line2d_21">
      <g>
       <use style="stroke:#000000;stroke-width:0.5;" x="134.6625" xlink:href="#m6f4fb5f6cf" y="456.364285714"/>
      </g>
     </g>
     <g id="line2d_22">
      <g>
       <use style="stroke:#000000;stroke-width:0.5;" x="1350.225" xlink:href="#mfafc6e288a" y="456.364285714"/>
      </g>
     </g>
     <g id="text_11">
      <!-- 30 -->
      <defs>
       <path d="M 40.578125 39.3125 
Q 47.65625 37.796875 51.625 33 
Q 55.609375 28.21875 55.609375 21.1875 
Q 55.609375 10.40625 48.1875 4.484375 
Q 40.765625 -1.421875 27.09375 -1.421875 
Q 22.515625 -1.421875 17.65625 -0.515625 
Q 12.796875 0.390625 7.625 2.203125 
L 7.625 11.71875 
Q 11.71875 9.328125 16.59375 8.109375 
Q 21.484375 6.890625 26.8125 6.890625 
Q 36.078125 6.890625 40.9375 10.546875 
Q 45.796875 14.203125 45.796875 21.1875 
Q 45.796875 27.640625 41.28125 31.265625 
Q 36.765625 34.90625 28.71875 34.90625 
L 20.21875 34.90625 
L 20.21875 43.015625 
L 29.109375 43.015625 
Q 36.375 43.015625 40.234375 45.921875 
Q 44.09375 48.828125 44.09375 54.296875 
Q 44.09375 59.90625 40.109375 62.90625 
Q 36.140625 65.921875 28.71875 65.921875 
Q 24.65625 65.921875 20.015625 65.03125 
Q 15.375 64.15625 9.8125 62.3125 
L 9.8125 71.09375 
Q 15.4375 72.65625 20.34375 73.4375 
Q 25.25 74.21875 29.59375 74.21875 
Q 40.828125 74.21875 47.359375 69.109375 
Q 53.90625 64.015625 53.90625 55.328125 
Q 53.90625 49.265625 50.4375 45.09375 
Q 46.96875 40.921875 40.578125 39.3125 
" id="BitstreamVeraSans-Roman-33"/>
      </defs>
      <g transform="translate(67.3484375 464.642410714)scale(0.3 -0.3)">
       <use xlink:href="#BitstreamVeraSans-Roman-2212"/>
       <use x="83.7890625" xlink:href="#BitstreamVeraSans-Roman-33"/>
       <use x="147.412109375" xlink:href="#BitstreamVeraSans-Roman-30"/>
      </g>
     </g>
    </g>
    <g id="ytick_5">
     <g id="line2d_23">
      <g>
       <use style="stroke:#000000;stroke-width:0.5;" x="134.6625" xlink:href="#m6f4fb5f6cf" y="354.085714286"/>
      </g>
     </g>
     <g id="line2d_24">
      <g>
       <use style="stroke:#000000;stroke-width:0.5;" x="1350.225" xlink:href="#mfafc6e288a" y="354.085714286"/>
      </g>
     </g>
     <g id="text_12">
      <!-- 20 -->
      <g transform="translate(67.3484375 362.363839286)scale(0.3 -0.3)">
       <use xlink:href="#BitstreamVeraSans-Roman-2212"/>
       <use x="83.7890625" xlink:href="#BitstreamVeraSans-Roman-32"/>
       <use x="147.412109375" xlink:href="#BitstreamVeraSans-Roman-30"/>
      </g>
     </g>
    </g>
    <g id="ytick_6">
     <g id="line2d_25">
      <g>
       <use style="stroke:#000000;stroke-width:0.5;" x="134.6625" xlink:href="#m6f4fb5f6cf" y="251.807142857"/>
      </g>
     </g>
     <g id="line2d_26">
      <g>
       <use style="stroke:#000000;stroke-width:0.5;" x="1350.225" xlink:href="#mfafc6e288a" y="251.807142857"/>
      </g>
     </g>
     <g id="text_13">
      <!-- 10 -->
      <g transform="translate(67.3484375 260.085267857)scale(0.3 -0.3)">
       <use xlink:href="#BitstreamVeraSans-Roman-2212"/>
       <use x="83.7890625" xlink:href="#BitstreamVeraSans-Roman-31"/>
       <use x="147.412109375" xlink:href="#BitstreamVeraSans-Roman-30"/>
      </g>
     </g>
    </g>
    <g id="ytick_7">
     <g id="line2d_27">
      <g>
       <use style="stroke:#000000;stroke-width:0.5;" x="134.6625" xlink:href="#m6f4fb5f6cf" y="149.528571429"/>
      </g>
     </g>
     <g id="line2d_28">
      <g>
       <use style="stroke:#000000;stroke-width:0.5;" x="1350.225" xlink:href="#mfafc6e288a" y="149.528571429"/>
      </g>
     </g>
     <g id="text_14">
      <!-- 0 -->
      <g transform="translate(111.575 157.806696429)scale(0.3 -0.3)">
       <use xlink:href="#BitstreamVeraSans-Roman-30"/>
      </g>
     </g>
    </g>
    <g id="ytick_8">
     <g id="line2d_29">
      <g>
       <use style="stroke:#000000;stroke-width:0.5;" x="134.6625" xlink:href="#m6f4fb5f6cf" y="47.25"/>
      </g>
     </g>
     <g id="line2d_30">
      <g>
       <use style="stroke:#000000;stroke-width:0.5;" x="1350.225" xlink:href="#mfafc6e288a" y="47.25"/>
      </g>
     </g>
     <g id="text_15">
      <!-- 10 -->
      <g transform="translate(92.4875 55.528125)scale(0.3 -0.3)">
       <use xlink:href="#BitstreamVeraSans-Roman-31"/>
       <use x="63.623046875" xlink:href="#BitstreamVeraSans-Roman-30"/>
      </g>
     </g>
    </g>
    <g id="text_16">
     <!-- log(loss) -->
     <defs>
      <path d="M 8.015625 75.875 
L 15.828125 75.875 
Q 23.140625 64.359375 26.78125 53.3125 
Q 30.421875 42.28125 30.421875 31.390625 
Q 30.421875 20.453125 26.78125 9.375 
Q 23.140625 -1.703125 15.828125 -13.1875 
L 8.015625 -13.1875 
Q 14.5 -2 17.703125 9.0625 
Q 20.90625 20.125 20.90625 31.390625 
Q 20.90625 42.671875 17.703125 53.65625 
Q 14.5 64.65625 8.015625 75.875 
" id="BitstreamVeraSans-Roman-29"/>
      <path d="M 31 75.875 
Q 24.46875 64.65625 21.28125 53.65625 
Q 18.109375 42.671875 18.109375 31.390625 
Q 18.109375 20.125 21.3125 9.0625 
Q 24.515625 -2 31 -13.1875 
L 23.1875 -13.1875 
Q 15.875 -1.703125 12.234375 9.375 
Q 8.59375 20.453125 8.59375 31.390625 
Q 8.59375 42.28125 12.203125 53.3125 
Q 15.828125 64.359375 23.1875 75.875 
z
" id="BitstreamVeraSans-Roman-28"/>
      <path d="M 45.40625 27.984375 
Q 45.40625 37.75 41.375 43.109375 
Q 37.359375 48.484375 30.078125 48.484375 
Q 22.859375 48.484375 18.828125 43.109375 
Q 14.796875 37.75 14.796875 27.984375 
Q 14.796875 18.265625 18.828125 12.890625 
Q 22.859375 7.515625 30.078125 7.515625 
Q 37.359375 7.515625 41.375 12.890625 
Q 45.40625 18.265625 45.40625 27.984375 
M 54.390625 6.78125 
Q 54.390625 -7.171875 48.1875 -13.984375 
Q 42 -20.796875 29.203125 -20.796875 
Q 24.46875 -20.796875 20.265625 -20.09375 
Q 16.0625 -19.390625 12.109375 -17.921875 
L 12.109375 -9.1875 
Q 16.0625 -11.328125 19.921875 -12.34375 
Q 23.78125 -13.375 27.78125 -13.375 
Q 36.625 -13.375 41.015625 -8.765625 
Q 45.40625 -4.15625 45.40625 5.171875 
L 45.40625 9.625 
Q 42.625 4.78125 38.28125 2.390625 
Q 33.9375 0 27.875 0 
Q 17.828125 0 11.671875 7.65625 
Q 5.515625 15.328125 5.515625 27.984375 
Q 5.515625 40.671875 11.671875 48.328125 
Q 17.828125 56 27.875 56 
Q 33.9375 56 38.28125 53.609375 
Q 42.625 51.21875 45.40625 46.390625 
L 45.40625 54.6875 
L 54.390625 54.6875 
z
" id="BitstreamVeraSans-Roman-67"/>
      <path d="M 9.421875 75.984375 
L 18.40625 75.984375 
L 18.40625 0 
L 9.421875 0 
z
" id="BitstreamVeraSans-Roman-6c"/>
     </defs>
     <g transform="translate(56.109375 468.77109375)rotate(-90.0)scale(0.3 -0.3)">
      <use xlink:href="#BitstreamVeraSans-Roman-6c"/>
      <use x="27.783203125" xlink:href="#BitstreamVeraSans-Roman-6f"/>
      <use x="88.96484375" xlink:href="#BitstreamVeraSans-Roman-67"/>
      <use x="152.44140625" xlink:href="#BitstreamVeraSans-Roman-28"/>
      <use x="191.455078125" xlink:href="#BitstreamVeraSans-Roman-6c"/>
      <use x="219.23828125" xlink:href="#BitstreamVeraSans-Roman-6f"/>
      <use x="280.419921875" xlink:href="#BitstreamVeraSans-Roman-73"/>
      <use x="332.51953125" xlink:href="#BitstreamVeraSans-Roman-73"/>
      <use x="384.619140625" xlink:href="#BitstreamVeraSans-Roman-29"/>
     </g>
    </g>
   </g>
   <g id="legend_1">
    <g id="patch_7">
     <path d="M 858.051562 159.31875 
L 1335.225 159.31875 
L 1335.225 62.25 
L 858.051562 62.25 
z
" style="fill:#ffffff;stroke:#000000;stroke-linejoin:miter;"/>
    </g>
    <g id="line2d_31">
     <path d="M 879.051562 86.545312 
L 921.051562 86.545312 
" style="fill:none;stroke:#0000ff;stroke-linecap:square;stroke-width:2.0;"/>
    </g>
    <g id="line2d_32"/>
    <g id="text_17">
     <!-- random: step=0.004893 -->
     <defs>
      <path id="BitstreamVeraSans-Roman-20"/>
      <path d="M 52 44.1875 
Q 55.375 50.25 60.0625 53.125 
Q 64.75 56 71.09375 56 
Q 79.640625 56 84.28125 50.015625 
Q 88.921875 44.046875 88.921875 33.015625 
L 88.921875 0 
L 79.890625 0 
L 79.890625 32.71875 
Q 79.890625 40.578125 77.09375 44.375 
Q 74.3125 48.1875 68.609375 48.1875 
Q 61.625 48.1875 57.5625 43.546875 
Q 53.515625 38.921875 53.515625 30.90625 
L 53.515625 0 
L 44.484375 0 
L 44.484375 32.71875 
Q 44.484375 40.625 41.703125 44.40625 
Q 38.921875 48.1875 33.109375 48.1875 
Q 26.21875 48.1875 22.15625 43.53125 
Q 18.109375 38.875 18.109375 30.90625 
L 18.109375 0 
L 9.078125 0 
L 9.078125 54.6875 
L 18.109375 54.6875 
L 18.109375 46.1875 
Q 21.1875 51.21875 25.484375 53.609375 
Q 29.78125 56 35.6875 56 
Q 41.65625 56 45.828125 52.96875 
Q 50 49.953125 52 44.1875 
" id="BitstreamVeraSans-Roman-6d"/>
      <path d="M 10.984375 1.515625 
L 10.984375 10.5 
Q 14.703125 8.734375 18.5 7.8125 
Q 22.3125 6.890625 25.984375 6.890625 
Q 35.75 6.890625 40.890625 13.453125 
Q 46.046875 20.015625 46.78125 33.40625 
Q 43.953125 29.203125 39.59375 26.953125 
Q 35.25 24.703125 29.984375 24.703125 
Q 19.046875 24.703125 12.671875 31.3125 
Q 6.296875 37.9375 6.296875 49.421875 
Q 6.296875 60.640625 12.9375 67.421875 
Q 19.578125 74.21875 30.609375 74.21875 
Q 43.265625 74.21875 49.921875 64.515625 
Q 56.59375 54.828125 56.59375 36.375 
Q 56.59375 19.140625 48.40625 8.859375 
Q 40.234375 -1.421875 26.421875 -1.421875 
Q 22.703125 -1.421875 18.890625 -0.6875 
Q 15.09375 0.046875 10.984375 1.515625 
M 30.609375 32.421875 
Q 37.25 32.421875 41.125 36.953125 
Q 45.015625 41.5 45.015625 49.421875 
Q 45.015625 57.28125 41.125 61.84375 
Q 37.25 66.40625 30.609375 66.40625 
Q 23.96875 66.40625 20.09375 61.84375 
Q 16.21875 57.28125 16.21875 49.421875 
Q 16.21875 41.5 20.09375 36.953125 
Q 23.96875 32.421875 30.609375 32.421875 
" id="BitstreamVeraSans-Roman-39"/>
      <path d="M 11.71875 12.40625 
L 22.015625 12.40625 
L 22.015625 0 
L 11.71875 0 
z
M 11.71875 51.703125 
L 22.015625 51.703125 
L 22.015625 39.3125 
L 11.71875 39.3125 
z
" id="BitstreamVeraSans-Roman-3a"/>
      <path d="M 10.6875 12.40625 
L 21 12.40625 
L 21 0 
L 10.6875 0 
z
" id="BitstreamVeraSans-Roman-2e"/>
      <path d="M 10.59375 45.40625 
L 73.1875 45.40625 
L 73.1875 37.203125 
L 10.59375 37.203125 
z
M 10.59375 25.484375 
L 73.1875 25.484375 
L 73.1875 17.1875 
L 10.59375 17.1875 
z
" id="BitstreamVeraSans-Roman-3d"/>
      <path d="M 45.40625 46.390625 
L 45.40625 75.984375 
L 54.390625 75.984375 
L 54.390625 0 
L 45.40625 0 
L 45.40625 8.203125 
Q 42.578125 3.328125 38.25 0.953125 
Q 33.9375 -1.421875 27.875 -1.421875 
Q 17.96875 -1.421875 11.734375 6.484375 
Q 5.515625 14.40625 5.515625 27.296875 
Q 5.515625 40.1875 11.734375 48.09375 
Q 17.96875 56 27.875 56 
Q 33.9375 56 38.25 53.625 
Q 42.578125 51.265625 45.40625 46.390625 
M 14.796875 27.296875 
Q 14.796875 17.390625 18.875 11.75 
Q 22.953125 6.109375 30.078125 6.109375 
Q 37.203125 6.109375 41.296875 11.75 
Q 45.40625 17.390625 45.40625 27.296875 
Q 45.40625 37.203125 41.296875 42.84375 
Q 37.203125 48.484375 30.078125 48.484375 
Q 22.953125 48.484375 18.875 42.84375 
Q 14.796875 37.203125 14.796875 27.296875 
" id="BitstreamVeraSans-Roman-64"/>
      <path d="M 18.109375 8.203125 
L 18.109375 -20.796875 
L 9.078125 -20.796875 
L 9.078125 54.6875 
L 18.109375 54.6875 
L 18.109375 46.390625 
Q 20.953125 51.265625 25.265625 53.625 
Q 29.59375 56 35.59375 56 
Q 45.5625 56 51.78125 48.09375 
Q 58.015625 40.1875 58.015625 27.296875 
Q 58.015625 14.40625 51.78125 6.484375 
Q 45.5625 -1.421875 35.59375 -1.421875 
Q 29.59375 -1.421875 25.265625 0.953125 
Q 20.953125 3.328125 18.109375 8.203125 
M 48.6875 27.296875 
Q 48.6875 37.203125 44.609375 42.84375 
Q 40.53125 48.484375 33.40625 48.484375 
Q 26.265625 48.484375 22.1875 42.84375 
Q 18.109375 37.203125 18.109375 27.296875 
Q 18.109375 17.390625 22.1875 11.75 
Q 26.265625 6.109375 33.40625 6.109375 
Q 40.53125 6.109375 44.609375 11.75 
Q 48.6875 17.390625 48.6875 27.296875 
" id="BitstreamVeraSans-Roman-70"/>
     </defs>
     <g transform="translate(954.0515625 97.0453125)scale(0.3 -0.3)">
      <use xlink:href="#BitstreamVeraSans-Roman-72"/>
      <use x="41.11328125" xlink:href="#BitstreamVeraSans-Roman-61"/>
      <use x="102.392578125" xlink:href="#BitstreamVeraSans-Roman-6e"/>
      <use x="165.771484375" xlink:href="#BitstreamVeraSans-Roman-64"/>
      <use x="229.248046875" xlink:href="#BitstreamVeraSans-Roman-6f"/>
      <use x="290.4296875" xlink:href="#BitstreamVeraSans-Roman-6d"/>
      <use x="387.841796875" xlink:href="#BitstreamVeraSans-Roman-3a"/>
      <use x="421.533203125" xlink:href="#BitstreamVeraSans-Roman-20"/>
      <use x="453.3203125" xlink:href="#BitstreamVeraSans-Roman-73"/>
      <use x="505.419921875" xlink:href="#BitstreamVeraSans-Roman-74"/>
      <use x="544.62890625" xlink:href="#BitstreamVeraSans-Roman-65"/>
      <use x="606.15234375" xlink:href="#BitstreamVeraSans-Roman-70"/>
      <use x="669.62890625" xlink:href="#BitstreamVeraSans-Roman-3d"/>
      <use x="753.41796875" xlink:href="#BitstreamVeraSans-Roman-30"/>
      <use x="817.041015625" xlink:href="#BitstreamVeraSans-Roman-2e"/>
      <use x="848.828125" xlink:href="#BitstreamVeraSans-Roman-30"/>
      <use x="912.451171875" xlink:href="#BitstreamVeraSans-Roman-30"/>
      <use x="976.07421875" xlink:href="#BitstreamVeraSans-Roman-34"/>
      <use x="1039.69726562" xlink:href="#BitstreamVeraSans-Roman-38"/>
      <use x="1103.3203125" xlink:href="#BitstreamVeraSans-Roman-39"/>
      <use x="1166.94335938" xlink:href="#BitstreamVeraSans-Roman-33"/>
     </g>
    </g>
    <g id="line2d_33">
     <path d="M 879.051562 130.579687 
L 921.051562 130.579687 
" style="fill:none;stroke:#008000;stroke-linecap:square;stroke-width:2.0;"/>
    </g>
    <g id="line2d_34"/>
    <g id="text_18">
     <!-- corr: step=0.004893 -->
     <defs>
      <path d="M 48.78125 52.59375 
L 48.78125 44.1875 
Q 44.96875 46.296875 41.140625 47.34375 
Q 37.3125 48.390625 33.40625 48.390625 
Q 24.65625 48.390625 19.8125 42.84375 
Q 14.984375 37.3125 14.984375 27.296875 
Q 14.984375 17.28125 19.8125 11.734375 
Q 24.65625 6.203125 33.40625 6.203125 
Q 37.3125 6.203125 41.140625 7.25 
Q 44.96875 8.296875 48.78125 10.40625 
L 48.78125 2.09375 
Q 45.015625 0.34375 40.984375 -0.53125 
Q 36.96875 -1.421875 32.421875 -1.421875 
Q 20.0625 -1.421875 12.78125 6.34375 
Q 5.515625 14.109375 5.515625 27.296875 
Q 5.515625 40.671875 12.859375 48.328125 
Q 20.21875 56 33.015625 56 
Q 37.15625 56 41.109375 55.140625 
Q 45.0625 54.296875 48.78125 52.59375 
" id="BitstreamVeraSans-Roman-63"/>
     </defs>
     <g transform="translate(954.0515625 141.0796875)scale(0.3 -0.3)">
      <use xlink:href="#BitstreamVeraSans-Roman-63"/>
      <use x="54.98046875" xlink:href="#BitstreamVeraSans-Roman-6f"/>
      <use x="116.162109375" xlink:href="#BitstreamVeraSans-Roman-72"/>
      <use x="157.259765625" xlink:href="#BitstreamVeraSans-Roman-72"/>
      <use x="198.357421875" xlink:href="#BitstreamVeraSans-Roman-3a"/>
      <use x="232.048828125" xlink:href="#BitstreamVeraSans-Roman-20"/>
      <use x="263.8359375" xlink:href="#BitstreamVeraSans-Roman-73"/>
      <use x="315.935546875" xlink:href="#BitstreamVeraSans-Roman-74"/>
      <use x="355.14453125" xlink:href="#BitstreamVeraSans-Roman-65"/>
      <use x="416.66796875" xlink:href="#BitstreamVeraSans-Roman-70"/>
      <use x="480.14453125" xlink:href="#BitstreamVeraSans-Roman-3d"/>
      <use x="563.93359375" xlink:href="#BitstreamVeraSans-Roman-30"/>
      <use x="627.556640625" xlink:href="#BitstreamVeraSans-Roman-2e"/>
      <use x="659.34375" xlink:href="#BitstreamVeraSans-Roman-30"/>
      <use x="722.966796875" xlink:href="#BitstreamVeraSans-Roman-30"/>
      <use x="786.58984375" xlink:href="#BitstreamVeraSans-Roman-34"/>
      <use x="850.212890625" xlink:href="#BitstreamVeraSans-Roman-38"/>
      <use x="913.8359375" xlink:href="#BitstreamVeraSans-Roman-39"/>
      <use x="977.458984375" xlink:href="#BitstreamVeraSans-Roman-33"/>
     </g>
    </g>
   </g>
  </g>
 </g>
 <defs>
  <clipPath id="p6caf366a57">
   <rect height="715.95" width="1215.5625" x="134.6625" y="47.25"/>
  </clipPath>
 </defs>
</svg>
