<?xml version="1.0" encoding="utf-8" standalone="no"?>
<!DOCTYPE svg PUBLIC "-//W3C//DTD SVG 1.1//EN"
  "http://www.w3.org/Graphics/SVG/1.1/DTD/svg11.dtd">
<!-- Created with matplotlib (http://matplotlib.org/) -->
<svg height="864pt" version="1.1" viewBox="0 0 1440 864" width="1440pt" xmlns="http://www.w3.org/2000/svg" xmlns:xlink="http://www.w3.org/1999/xlink">
 <defs>
  <style type="text/css">
*{stroke-linecap:butt;stroke-linejoin:round;stroke-miterlimit:100000;}
  </style>
 </defs>
 <g id="figure_1">
  <g id="patch_1">
   <path d="M 0 864 
L 1440 864 
L 1440 0 
L 0 0 
z
" style="fill:#ffffff;"/>
  </g>
  <g id="axes_1">
   <g id="patch_2">
    <path d="M 158.4 747 
L 1336.05 747 
L 1336.05 51.3 
L 158.4 51.3 
z
" style="fill:#ffffff;"/>
   </g>
   <g id="line2d_1">
    <path clip-path="url(#p2a79246cf5)" d="M 159.57765 75.208834 
L 160.7553 75.492759 
L 161.93295 75.603389 
L 163.1106 101.707321 
L 164.28825 106.118118 
L 165.4659 106.957924 
L 166.64355 112.492372 
L 167.8212 134.165708 
L 171.35415 153.333961 
L 172.5318 165.183808 
L 173.70945 175.339836 
L 174.8871 186.937576 
L 177.2424 197.43225 
L 178.42005 204.142884 
L 179.5977 222.093129 
L 180.77535 227.619732 
L 181.953 227.585165 
L 183.13065 230.815178 
L 184.3083 259.690236 
L 186.6636 261.266491 
L 187.84125 264.677293 
L 189.0189 290.682486 
L 190.19655 291.116548 
L 191.3742 292.499778 
L 192.55185 296.835619 
L 193.7295 321.380798 
L 194.90715 322.027102 
L 196.0848 325.836038 
L 197.26245 332.447919 
L 198.4401 358.112149 
L 199.61775 358.382999 
L 200.7954 370.222038 
L 201.97305 376.814901 
L 203.1507 393.849129 
L 204.32835 394.399828 
L 205.506 412.518557 
L 206.68365 418.112415 
L 207.8613 422.623826 
L 209.03895 425.274212 
L 210.2166 450.708448 
L 211.39425 455.367039 
L 212.5719 454.889022 
L 213.74955 456.671404 
L 214.9272 485.830051 
L 216.10485 489.045866 
L 217.2825 489.570421 
L 218.46015 490.882597 
L 219.6378 522.417831 
L 220.81545 524.105779 
L 221.9931 523.679849 
L 223.17075 532.269742 
L 224.3484 555.727603 
L 225.52605 559.614942 
L 226.7037 564.290385 
L 227.88135 573.345904 
L 229.059 585.145548 
L 230.23665 588.456689 
L 231.4143 600.792866 
L 232.59195 609.646706 
L 233.7696 614.940206 
L 234.94725 619.244723 
L 236.1249 635.854865 
L 237.30255 646.46439 
L 238.4802 646.06918 
L 239.65785 650.35768 
L 240.8355 678.799388 
L 242.01315 681.778895 
L 243.1908 684.43772 
L 244.36845 685.412691 
L 245.5461 717.235979 
L 246.72375 720.029138 
L 247.9014 719.499499 
L 249.07905 726.372721 
L 250.2567 735.972553 
L 251.43435 736.753832 
L 252.612 736.908014 
L 253.78965 738.319801 
L 254.9673 741.179506 
L 256.14495 742.776178 
L 257.3226 742.659425 
L 259.6779 743.344652 
L 260.85555 743.165732 
L 264.3885 740.636236 
L 265.56615 743.676134 
L 266.7438 745.503944 
L 267.92145 745.751749 
L 269.0991 744.530229 
L 270.27675 744.487907 
L 271.4544 743.899289 
L 272.63205 741.926096 
L 273.8097 741.482852 
L 274.98735 742.263594 
L 276.165 741.572929 
L 277.34265 741.978447 
L 278.5203 742.542941 
L 280.8756 742.290537 
L 282.05325 742.588666 
L 283.2309 743.462473 
L 284.40855 741.07044 
L 285.5862 740.987102 
L 286.76385 742.427971 
L 287.9415 742.979042 
L 290.2968 743.756098 
L 291.47445 742.435196 
L 292.6521 743.142462 
L 293.82975 742.724009 
L 295.0074 742.51209 
L 296.18505 741.809884 
L 297.3627 742.78776 
L 298.54035 742.281631 
L 299.718 740.615198 
L 300.89565 742.137121 
L 302.0733 741.29595 
L 303.25095 742.903536 
L 304.4286 743.065167 
L 305.60625 743.653308 
L 306.7839 745.255569 
L 307.96155 742.064314 
L 309.1392 743.091932 
L 310.31685 742.552978 
L 311.4945 743.553416 
L 312.67215 742.614316 
L 313.8498 743.552229 
L 315.02745 743.266281 
L 316.2051 742.326372 
L 318.5604 741.033639 
L 319.73805 741.123161 
L 320.9157 743.271053 
L 322.09335 741.570379 
L 323.271 741.208179 
L 324.44865 743.578804 
L 325.6263 743.422466 
L 329.15925 742.170821 
L 330.3369 741.369388 
L 331.51455 741.290006 
L 332.6922 742.421117 
L 333.86985 744.020298 
L 335.0475 743.067543 
L 336.22515 741.401399 
L 337.4028 741.308111 
L 338.58045 744.12129 
L 339.7581 743.151905 
L 340.93575 742.981981 
L 343.29105 741.89392 
L 344.4687 742.656609 
L 345.64635 743.166079 
L 346.824 743.55137 
L 348.00165 742.759703 
L 349.1793 742.957874 
L 350.35695 743.00929 
L 351.5346 745.184961 
L 352.71225 744.724382 
L 353.8899 744.588161 
L 355.06755 743.42363 
L 356.2452 743.323053 
L 357.42285 742.435268 
L 358.6005 742.556272 
L 359.77815 742.253184 
L 362.13345 743.561861 
L 363.3111 741.901528 
L 364.48875 741.690039 
L 365.6664 742.026265 
L 366.84405 741.602643 
L 368.0217 742.996976 
L 369.19935 742.12587 
L 370.377 741.646006 
L 372.7323 742.22861 
L 373.90995 744.434868 
L 375.0876 744.245944 
L 376.26525 743.27589 
L 377.4429 745.276226 
L 378.62055 743.375177 
L 379.7982 742.037115 
L 380.97585 742.101386 
L 382.1535 742.473666 
L 384.5088 741.266481 
L 385.68645 741.464536 
L 386.8641 742.747251 
L 389.2194 741.181743 
L 390.39705 740.735876 
L 391.5747 741.19724 
L 392.75235 742.575968 
L 393.93 743.616523 
L 395.10765 742.138666 
L 396.2853 742.416865 
L 397.46295 744.078098 
L 398.6406 744.227577 
L 399.81825 743.624828 
L 400.9959 742.380845 
L 402.17355 741.948649 
L 403.3512 741.756663 
L 404.52885 744.414381 
L 405.7065 744.524309 
L 406.88415 744.245755 
L 408.0618 745.591874 
L 409.23945 743.612567 
L 410.4171 743.847747 
L 411.59475 742.601045 
L 412.7724 741.104536 
L 413.95005 741.935712 
L 415.1277 742.17798 
L 416.30535 741.599465 
L 417.483 742.126314 
L 418.66065 743.460573 
L 419.8383 743.233105 
L 421.01595 741.597139 
L 422.1936 740.998178 
L 423.37125 741.015697 
L 425.72655 743.341934 
L 426.9042 742.108675 
L 428.08185 742.517308 
L 429.2595 742.748331 
L 430.43715 744.39936 
L 431.6148 743.830084 
L 432.79245 744.640925 
L 433.9701 744.156593 
L 435.14775 743.297027 
L 436.3254 742.693556 
L 437.50305 743.127999 
L 438.6807 742.345994 
L 439.85835 741.709968 
L 441.036 740.875476 
L 442.21365 741.562698 
L 443.3913 743.329398 
L 444.56895 743.762701 
L 445.7466 743.507449 
L 446.92425 744.345339 
L 448.1019 743.699622 
L 449.27955 742.53479 
L 451.63485 742.634142 
L 452.8125 743.088486 
L 453.99015 741.649616 
L 455.1678 742.668017 
L 456.34545 745.107971 
L 457.5231 744.304565 
L 458.70075 742.615126 
L 459.8784 743.917042 
L 461.05605 744.057379 
L 462.2337 742.206387 
L 463.41135 741.544595 
L 464.589 742.15792 
L 465.76665 741.676245 
L 466.9443 741.825685 
L 468.12195 742.849425 
L 469.2996 740.125039 
L 470.47725 740.934109 
L 471.6549 741.029972 
L 472.83255 742.822178 
L 474.0102 743.053653 
L 475.18785 740.996583 
L 476.3655 741.697172 
L 477.54315 740.964574 
L 478.7208 740.816156 
L 479.89845 742.040919 
L 481.0761 742.840071 
L 482.25375 742.28096 
L 483.4314 745.561286 
L 486.96435 741.936858 
L 488.142 740.365755 
L 489.31965 740.634459 
L 490.4973 743.707581 
L 491.67495 742.702361 
L 492.8526 742.506983 
L 494.03025 742.688546 
L 495.2079 743.072289 
L 496.38555 745.168918 
L 497.5632 745.534151 
L 498.74085 744.501165 
L 499.9185 744.20166 
L 501.09615 742.942749 
L 502.2738 742.757074 
L 503.45145 743.60825 
L 504.6291 740.64649 
L 505.80675 744.294852 
L 506.9844 743.770595 
L 508.16205 743.046094 
L 509.3397 744.47075 
L 510.51735 744.384222 
L 511.695 743.936737 
L 512.87265 742.78098 
L 514.0503 742.459094 
L 515.22795 742.776771 
L 516.4056 742.080103 
L 517.58325 742.755371 
L 518.7609 743.06076 
L 519.93855 742.628145 
L 521.1162 742.711181 
L 522.29385 743.426545 
L 523.4715 742.663269 
L 524.64915 743.401077 
L 525.8268 742.12938 
L 527.00445 742.61655 
L 529.35975 742.973227 
L 530.5374 743.687578 
L 531.71505 745.337775 
L 532.8927 745.617529 
L 534.07035 745.627133 
L 535.248 746.180084 
L 536.42565 745.580238 
L 537.6033 745.821012 
L 538.78095 742.936352 
L 539.9586 742.11295 
L 542.3139 742.717892 
L 543.49155 743.412739 
L 544.6692 742.96585 
L 545.84685 744.228238 
L 547.0245 742.893702 
L 548.20215 743.212677 
L 549.3798 742.343621 
L 550.55745 742.596716 
L 551.7351 743.990815 
L 552.91275 745.900971 
L 555.26805 743.967716 
L 556.4457 742.500406 
L 558.801 741.212508 
L 559.97865 743.719111 
L 561.1563 742.215402 
L 562.33395 743.050411 
L 563.5116 743.414163 
L 564.68925 741.941885 
L 565.8669 741.355794 
L 567.04455 741.029256 
L 568.2222 741.722434 
L 569.39985 743.169244 
L 570.5775 745.473577 
L 572.9328 744.006415 
L 574.11045 744.043772 
L 575.2881 745.189472 
L 576.46575 742.960006 
L 577.6434 743.390596 
L 578.82105 743.280658 
L 579.9987 742.779785 
L 582.354 742.717103 
L 583.53165 742.066317 
L 585.88695 742.62775 
L 587.0646 742.40169 
L 588.24225 743.537934 
L 589.4199 743.415223 
L 590.59755 742.704865 
L 591.7752 743.740927 
L 592.95285 743.972645 
L 594.1305 743.643368 
L 595.30815 742.50941 
L 596.4858 742.269911 
L 597.66345 741.200127 
L 598.8411 742.131807 
L 600.01875 742.088014 
L 601.1964 739.924413 
L 602.37405 742.174013 
L 603.5517 742.333822 
L 604.72935 743.407369 
L 605.907 743.399331 
L 607.08465 742.268338 
L 608.2623 744.126389 
L 609.43995 743.786099 
L 610.6176 741.878363 
L 611.79525 741.077111 
L 612.9729 742.407329 
L 615.3282 741.611912 
L 616.50585 740.575641 
L 617.6835 740.234972 
L 618.86115 740.185129 
L 620.0388 741.586922 
L 621.21645 742.502845 
L 622.3941 741.577841 
L 623.57175 740.992099 
L 624.7494 741.444313 
L 625.92705 744.131464 
L 627.1047 744.658603 
L 628.28235 743.281197 
L 629.46 742.462688 
L 630.63765 744.269484 
L 631.8153 744.267345 
L 632.99295 744.000882 
L 634.1706 741.252524 
L 635.34825 742.748464 
L 636.5259 742.689171 
L 637.70355 742.993472 
L 638.8812 742.386994 
L 640.05885 742.031083 
L 641.2365 742.727102 
L 642.41415 743.018068 
L 643.5918 743.818878 
L 644.76945 743.189745 
L 645.9471 743.818688 
L 647.12475 742.810124 
L 648.3024 742.239423 
L 649.48005 742.666505 
L 651.83535 743.065892 
L 653.013 743.860367 
L 654.19065 744.119387 
L 655.3683 742.251487 
L 656.54595 743.854311 
L 658.90125 743.838445 
L 660.0789 742.781596 
L 661.25655 742.089385 
L 662.4342 741.872765 
L 663.61185 742.357341 
L 664.7895 744.049017 
L 665.96715 743.394197 
L 667.1448 743.459953 
L 668.32245 742.672106 
L 669.5001 743.876866 
L 671.8554 742.279118 
L 673.03305 742.048888 
L 674.2107 743.180691 
L 675.38835 743.451364 
L 676.566 743.85499 
L 677.74365 743.36544 
L 678.9213 743.232965 
L 680.09895 743.726309 
L 681.2766 745.657786 
L 682.45425 744.910053 
L 683.6319 744.310625 
L 684.80955 744.730116 
L 685.9872 742.406886 
L 687.16485 743.311934 
L 688.3425 744.794909 
L 689.52015 744.425526 
L 690.6978 744.316107 
L 691.87545 744.685128 
L 693.0531 744.799428 
L 695.4084 744.628025 
L 696.58605 743.537309 
L 697.7637 743.570554 
L 698.94135 743.306062 
L 700.119 743.250072 
L 701.29665 744.209346 
L 702.4743 743.485988 
L 703.65195 743.778315 
L 704.8296 745.264553 
L 706.00725 745.106433 
L 708.36255 740.446569 
L 709.5402 740.004454 
L 710.71785 741.179146 
L 711.8955 741.39419 
L 713.07315 741.992358 
L 714.2508 741.016642 
L 715.42845 742.526074 
L 716.6061 742.652307 
L 717.78375 741.590208 
L 718.9614 739.819711 
L 720.13905 741.672439 
L 721.3167 742.134269 
L 722.49435 741.176726 
L 723.672 743.67823 
L 724.84965 743.724326 
L 726.0273 745.393381 
L 727.20495 744.422198 
L 728.3826 741.981159 
L 729.56025 742.253571 
L 730.7379 743.705177 
L 731.91555 740.567325 
L 733.0932 741.518617 
L 734.27085 740.711841 
L 735.4485 740.14717 
L 736.62615 740.255455 
L 737.8038 740.710213 
L 738.98145 742.506838 
L 740.1591 742.515689 
L 741.33675 744.360244 
L 742.5144 743.614044 
L 743.69205 743.817872 
L 744.8697 741.865978 
L 746.04735 741.960734 
L 747.225 742.438029 
L 748.40265 742.220874 
L 749.5803 742.747147 
L 750.75795 744.67571 
L 751.9356 745.180074 
L 753.11325 744.862103 
L 754.2909 742.706354 
L 755.46855 743.513465 
L 756.6462 743.686618 
L 757.82385 746.230977 
L 759.0015 746.046019 
L 760.17915 744.023915 
L 761.3568 742.408516 
L 762.53445 742.837562 
L 763.7121 742.981367 
L 764.88975 742.935756 
L 766.0674 743.308896 
L 767.24505 744.482188 
L 768.4227 743.110156 
L 769.60035 742.748213 
L 770.778 740.69172 
L 771.95565 742.866394 
L 773.1333 743.735679 
L 774.31095 743.481414 
L 775.4886 742.647479 
L 776.66625 743.698173 
L 777.8439 743.012968 
L 779.02155 742.505943 
L 780.1992 743.623341 
L 781.37685 743.943211 
L 782.5545 745.030959 
L 783.73215 744.823433 
L 784.9098 742.892246 
L 786.08745 742.287097 
L 787.2651 742.324614 
L 788.44275 745.854857 
L 789.6204 746.322504 
L 790.79805 745.79214 
L 791.9757 746.578731 
L 793.15335 744.741368 
L 794.331 744.724274 
L 796.6863 744.455925 
L 799.0416 744.379756 
L 800.21925 743.443815 
L 801.3969 742.026974 
L 802.57455 742.744736 
L 803.7522 741.472264 
L 804.92985 741.262084 
L 806.1075 742.013523 
L 807.28515 743.03289 
L 808.4628 742.601731 
L 809.64045 744.497167 
L 810.8181 743.042092 
L 811.99575 742.692312 
L 813.1734 743.499354 
L 814.35105 742.018279 
L 815.5287 743.672292 
L 816.70635 743.728228 
L 817.884 743.368291 
L 819.06165 743.663793 
L 820.2393 742.418647 
L 821.41695 742.611199 
L 822.5946 742.477568 
L 823.77225 743.854452 
L 824.9499 744.106959 
L 826.12755 743.917317 
L 827.3052 744.977209 
L 828.48285 743.442085 
L 829.6605 742.451485 
L 830.83815 743.262867 
L 832.0158 741.68654 
L 833.19345 743.912973 
L 834.3711 743.56207 
L 835.54875 744.856055 
L 836.7264 741.979433 
L 837.90405 740.78208 
L 840.25935 743.853881 
L 842.61465 743.765356 
L 843.7923 743.856139 
L 844.96995 745.003347 
L 846.1476 745.475261 
L 847.32525 744.669262 
L 848.5029 744.193108 
L 849.68055 744.039424 
L 850.8582 741.53442 
L 852.03585 742.794017 
L 853.2135 741.945959 
L 854.39115 742.629351 
L 855.5688 742.59359 
L 856.74645 741.410204 
L 857.9241 741.487029 
L 859.10175 739.87042 
L 860.2794 740.725155 
L 862.6347 744.331784 
L 863.81235 744.597301 
L 864.99 744.726883 
L 866.16765 742.667833 
L 867.3453 742.450947 
L 868.52295 741.994004 
L 869.7006 742.706575 
L 870.87825 742.261001 
L 873.23355 741.225983 
L 874.4112 741.83935 
L 875.58885 741.779586 
L 876.7665 742.483445 
L 877.94415 742.920619 
L 879.1218 743.745278 
L 880.29945 743.100783 
L 881.4771 741.758585 
L 883.8324 742.38434 
L 885.01005 741.93846 
L 886.1877 743.053722 
L 887.36535 742.27001 
L 888.543 743.230922 
L 889.72065 743.383132 
L 890.8983 743.254338 
L 892.07595 742.167289 
L 893.2536 742.014506 
L 894.43125 742.873165 
L 895.6089 743.558633 
L 896.78655 744.449574 
L 897.9642 741.668151 
L 899.14185 741.062562 
L 900.3195 742.43445 
L 901.49715 742.309104 
L 902.6748 742.676226 
L 905.0301 744.70766 
L 906.20775 742.584393 
L 907.3854 742.506911 
L 908.56305 745.167908 
L 909.7407 744.43706 
L 910.91835 743.50309 
L 912.096 743.650739 
L 913.27365 741.425388 
L 914.4513 742.541049 
L 915.62895 744.536127 
L 916.8066 745.384753 
L 917.98425 744.691326 
L 919.1619 742.207032 
L 920.33955 742.515154 
L 922.69485 741.100486 
L 923.8725 740.574035 
L 925.05015 742.36559 
L 926.2278 742.971865 
L 927.40545 743.337411 
L 928.5831 743.106427 
L 929.76075 745.752191 
L 930.9384 742.593408 
L 932.11605 742.555793 
L 933.2937 742.676255 
L 934.47135 744.824673 
L 935.649 742.812566 
L 936.82665 742.787002 
L 939.18195 743.519469 
L 940.3596 743.340583 
L 941.53725 743.320905 
L 943.89255 742.95146 
L 945.0702 742.637683 
L 946.24785 742.602168 
L 947.4255 740.554921 
L 948.60315 740.603849 
L 949.7808 742.29511 
L 950.95845 742.265829 
L 952.1361 742.09158 
L 953.31375 741.7618 
L 954.4914 744.034083 
L 955.66905 744.956323 
L 958.02435 744.04137 
L 959.202 742.462702 
L 960.37965 742.795742 
L 961.5573 741.798331 
L 962.73495 741.696653 
L 963.9126 742.48552 
L 965.09025 744.324879 
L 967.44555 743.566801 
L 968.6232 742.638407 
L 970.9785 741.808127 
L 972.15615 742.200594 
L 973.3338 741.718257 
L 974.51145 742.230562 
L 975.6891 744.12163 
L 976.86675 744.238935 
L 978.0444 742.943986 
L 979.22205 743.150711 
L 980.3997 742.486803 
L 981.57735 742.996453 
L 982.755 741.573942 
L 983.93265 745.167049 
L 985.1103 744.32207 
L 987.4656 743.090339 
L 988.64325 741.30074 
L 989.8209 742.481169 
L 990.99855 742.116442 
L 992.1762 743.881268 
L 993.35385 744.067581 
L 994.5315 743.805149 
L 995.70915 744.71572 
L 996.8868 745.044664 
L 998.06445 742.749567 
L 999.2421 742.592067 
L 1000.41975 742.211931 
L 1001.5974 743.386745 
L 1002.77505 742.553094 
L 1003.9527 742.17826 
L 1005.13035 742.461408 
L 1006.308 743.064693 
L 1007.48565 742.43202 
L 1008.6633 742.669793 
L 1009.84095 743.3834 
L 1011.0186 743.187286 
L 1012.19625 743.193947 
L 1013.3739 742.803328 
L 1014.55155 743.010734 
L 1015.7292 742.485434 
L 1016.90685 743.404293 
L 1018.0845 743.906112 
L 1019.26215 741.735904 
L 1020.4398 743.345713 
L 1021.61745 742.298908 
L 1022.7951 744.524972 
L 1023.97275 745.281237 
L 1025.1504 744.055868 
L 1026.32805 744.980914 
L 1027.5057 744.193818 
L 1028.68335 742.254092 
L 1031.03865 741.356791 
L 1032.2163 741.550943 
L 1033.39395 741.57055 
L 1034.5716 743.90938 
L 1035.74925 743.939415 
L 1036.9269 742.503408 
L 1038.10455 742.557092 
L 1039.2822 743.602781 
L 1040.45985 744.012018 
L 1041.6375 743.740003 
L 1042.81515 742.999245 
L 1043.9928 743.655545 
L 1045.17045 743.704085 
L 1046.3481 743.86834 
L 1047.52575 743.817765 
L 1048.7034 744.776878 
L 1049.88105 744.444913 
L 1051.0587 742.035256 
L 1052.23635 742.578979 
L 1054.59165 742.733425 
L 1055.7693 742.352206 
L 1056.94695 742.452936 
L 1059.30225 743.026077 
L 1060.4799 744.588214 
L 1061.65755 744.32174 
L 1062.8352 743.671707 
L 1064.01285 741.729858 
L 1066.36815 741.496242 
L 1067.5458 742.371195 
L 1068.72345 743.836744 
L 1069.9011 742.544623 
L 1071.07875 741.48622 
L 1072.2564 741.325423 
L 1073.43405 742.337129 
L 1074.6117 743.148477 
L 1075.78935 743.640519 
L 1076.967 743.434415 
L 1078.14465 742.641086 
L 1079.3223 742.647537 
L 1080.49995 742.94536 
L 1081.6776 742.693467 
L 1082.85525 743.635283 
L 1084.0329 743.376997 
L 1085.21055 742.633213 
L 1086.3882 743.729706 
L 1087.56585 744.012312 
L 1088.7435 743.776346 
L 1089.92115 741.432152 
L 1091.0988 741.519971 
L 1092.27645 741.417249 
L 1093.4541 741.823062 
L 1094.63175 742.471708 
L 1095.8094 743.763913 
L 1096.98705 743.189165 
L 1098.1647 742.48449 
L 1099.34235 739.46869 
L 1100.52 742.757963 
L 1101.69765 743.129675 
L 1102.8753 742.427577 
L 1104.05295 744.176051 
L 1106.40825 744.313344 
L 1107.5859 744.945351 
L 1108.76355 744.269113 
L 1109.9412 743.845995 
L 1111.11885 744.023671 
L 1112.2965 740.552702 
L 1113.47415 741.00359 
L 1114.6518 742.384768 
L 1115.82945 742.727752 
L 1117.0071 741.532698 
L 1118.18475 742.142369 
L 1119.3624 741.621004 
L 1120.54005 741.580177 
L 1121.7177 743.189536 
L 1122.89535 741.907992 
L 1124.073 741.775928 
L 1125.25065 743.040576 
L 1126.4283 743.423163 
L 1127.60595 742.526762 
L 1128.7836 743.951359 
L 1129.96125 741.591058 
L 1131.1389 741.898213 
L 1132.31655 740.937766 
L 1133.4942 741.177591 
L 1134.67185 741.226713 
L 1135.8495 742.363048 
L 1137.02715 741.936326 
L 1138.2048 741.275078 
L 1139.38245 742.19316 
L 1140.5601 741.361179 
L 1141.73775 741.598213 
L 1142.9154 742.182019 
L 1144.09305 742.960648 
L 1145.2707 742.491042 
L 1146.44835 742.598895 
L 1147.626 742.557542 
L 1148.80365 741.793786 
L 1149.9813 740.764398 
L 1151.15895 740.03791 
L 1152.3366 740.714572 
L 1153.51425 743.194488 
L 1154.6919 743.305835 
L 1155.86955 742.512235 
L 1157.0472 742.879971 
L 1158.22485 743.999866 
L 1159.4025 742.141513 
L 1161.7578 740.054593 
L 1162.93545 740.791805 
L 1164.1131 744.028695 
L 1166.4684 745.036854 
L 1167.64605 744.11183 
L 1168.8237 742.706612 
L 1170.00135 741.611192 
L 1171.179 742.04309 
L 1172.35665 743.021756 
L 1173.5343 743.46431 
L 1174.71195 742.428752 
L 1175.8896 742.051226 
L 1177.06725 743.177291 
L 1178.2449 743.632452 
L 1179.42255 742.578615 
L 1180.6002 742.087183 
L 1181.77785 742.727981 
L 1182.9555 741.856043 
L 1184.13315 742.456083 
L 1185.3108 742.279188 
L 1186.48845 742.407129 
L 1188.84375 740.558981 
L 1190.0214 742.947504 
L 1191.19905 741.359004 
L 1192.3767 740.268569 
L 1194.732 742.191978 
L 1195.90965 742.774263 
L 1197.0873 742.759244 
L 1198.26495 741.293597 
L 1199.4426 741.156399 
L 1200.62025 743.536949 
L 1201.7979 742.652541 
L 1202.97555 743.088149 
L 1204.1532 743.13572 
L 1205.33085 743.673859 
L 1206.5085 740.463236 
L 1207.68615 741.27053 
L 1208.8638 740.71719 
L 1211.2191 741.716082 
L 1212.39675 741.65627 
L 1213.5744 742.13701 
L 1214.75205 742.125592 
L 1215.9297 743.359749 
L 1217.10735 743.474471 
L 1218.285 743.987017 
L 1219.46265 743.314762 
L 1220.6403 741.333685 
L 1221.81795 744.112874 
L 1222.9956 743.77898 
L 1224.17325 745.240696 
L 1225.3509 744.337304 
L 1226.52855 742.952948 
L 1227.7062 743.6466 
L 1228.88385 743.992886 
L 1230.0615 742.83224 
L 1231.23915 741.830117 
L 1232.4168 739.860969 
L 1233.59445 741.859358 
L 1234.7721 742.885011 
L 1235.94975 743.264636 
L 1237.1274 741.19069 
L 1238.30505 741.317199 
L 1239.4827 741.949263 
L 1240.66035 741.694217 
L 1241.838 740.967555 
L 1243.01565 740.98867 
L 1245.37095 740.637881 
L 1246.5486 741.776498 
L 1247.72625 742.557833 
L 1248.9039 742.760896 
L 1250.08155 744.027037 
L 1251.2592 740.772183 
L 1252.43685 742.554146 
L 1253.6145 742.188172 
L 1254.79215 739.993153 
L 1255.9698 741.490699 
L 1257.14745 743.988501 
L 1258.3251 742.527391 
L 1259.50275 742.409224 
L 1260.6804 743.432029 
L 1261.85805 743.035159 
L 1263.0357 741.684399 
L 1264.21335 742.891998 
L 1265.391 740.800177 
L 1266.56865 741.053685 
L 1267.7463 740.310168 
L 1268.92395 741.392027 
L 1270.1016 742.647369 
L 1271.27925 743.345815 
L 1272.4569 741.609839 
L 1273.63455 740.929345 
L 1274.8122 743.948277 
L 1275.98985 743.111231 
L 1277.1675 743.699687 
L 1278.34515 741.110772 
L 1279.5228 742.563417 
L 1280.70045 741.364642 
L 1281.8781 743.068651 
L 1283.05575 741.93334 
L 1284.2334 741.66533 
L 1285.41105 742.019971 
L 1286.5887 741.971191 
L 1287.76635 742.513217 
L 1288.944 741.237246 
L 1290.12165 741.424325 
L 1291.2993 742.056187 
L 1292.47695 741.549986 
L 1293.6546 743.084329 
L 1294.83225 743.739684 
L 1296.0099 742.34804 
L 1297.18755 744.06786 
L 1298.3652 743.654921 
L 1299.54285 742.996923 
L 1300.7205 742.76876 
L 1301.89815 743.053066 
L 1303.0758 741.207139 
L 1304.25345 742.503661 
L 1305.4311 743.598556 
L 1306.60875 741.285151 
L 1307.7864 742.661897 
L 1308.96405 744.581325 
L 1310.1417 741.12934 
L 1311.31935 742.362607 
L 1313.67465 744.20381 
L 1314.8523 743.776608 
L 1316.02995 743.796545 
L 1317.2076 742.842005 
L 1318.38525 742.378307 
L 1320.74055 742.471759 
L 1321.9182 741.866364 
L 1323.09585 742.777929 
L 1324.2735 741.643126 
L 1325.45115 741.283465 
L 1326.6288 743.284273 
L 1327.80645 743.124394 
L 1328.9841 743.313649 
L 1330.16175 742.49154 
L 1331.3394 743.518709 
L 1332.51705 744.979756 
L 1333.6947 743.8892 
L 1334.87235 743.709765 
L 1336.05 743.856768 
L 1336.05 743.856768 
" style="fill:none;stroke:#0000ff;stroke-linecap:square;stroke-width:2.0;"/>
   </g>
   <g id="line2d_2">
    <path clip-path="url(#p2a79246cf5)" d="M 159.57765 55.308373 
L 160.7553 63.63731 
L 161.93295 71.76126 
L 164.28825 83.616395 
L 165.4659 90.405637 
L 166.64355 96.173716 
L 167.8212 99.594704 
L 170.1765 109.390519 
L 171.35415 112.048498 
L 173.70945 119.889149 
L 174.8871 124.213854 
L 176.06475 126.863787 
L 177.2424 130.447321 
L 178.42005 134.926732 
L 180.77535 142.238782 
L 181.953 145.200973 
L 184.3083 154.012393 
L 186.6636 159.865273 
L 189.0189 167.110163 
L 191.3742 173.747097 
L 198.4401 191.741757 
L 199.61775 213.537213 
L 200.7954 218.873955 
L 201.97305 221.806213 
L 203.1507 224.331177 
L 204.32835 249.742473 
L 205.506 250.652702 
L 206.68365 251.994415 
L 207.8613 266.306561 
L 209.03895 284.252283 
L 210.2166 288.558953 
L 211.39425 291.52127 
L 212.5719 303.554211 
L 213.74955 312.028734 
L 214.9272 317.771381 
L 216.10485 329.880703 
L 217.2825 343.194178 
L 218.46015 344.108418 
L 219.6378 348.227344 
L 220.81545 364.283552 
L 221.9931 372.276181 
L 223.17075 375.659543 
L 224.3484 376.000733 
L 225.52605 401.534687 
L 226.7037 401.391278 
L 227.88135 404.643456 
L 229.059 413.683302 
L 230.23665 433.744929 
L 231.4143 437.381076 
L 232.59195 438.473237 
L 233.7696 453.124784 
L 234.94725 463.48602 
L 236.1249 466.969951 
L 237.30255 476.30908 
L 238.4802 492.540392 
L 239.65785 496.477275 
L 240.8355 498.247335 
L 242.01315 514.415718 
L 243.1908 526.574423 
L 244.36845 526.330183 
L 245.5461 527.001288 
L 246.72375 546.315074 
L 247.9014 556.746179 
L 249.07905 557.890318 
L 250.2567 560.859835 
L 251.43435 581.548207 
L 252.612 584.56014 
L 253.78965 586.587653 
L 254.9673 598.928594 
L 256.14495 617.181863 
L 257.3226 618.257466 
L 258.50025 619.785816 
L 259.6779 633.282951 
L 260.85555 643.72477 
L 263.21085 651.287483 
L 264.3885 667.820955 
L 265.56615 671.671654 
L 266.7438 676.950157 
L 267.92145 690.900161 
L 269.0991 706.610388 
L 270.27675 707.450296 
L 271.4544 710.012234 
L 272.63205 725.290868 
L 273.8097 731.949781 
L 274.98735 734.554057 
L 276.165 734.851938 
L 277.34265 744.124213 
L 279.69795 743.433908 
L 280.8756 744.248491 
L 282.05325 743.853724 
L 283.2309 744.040106 
L 284.40855 744.503707 
L 285.5862 741.857938 
L 286.76385 742.954912 
L 287.9415 742.963204 
L 289.11915 742.384718 
L 290.2968 743.088203 
L 291.47445 742.831501 
L 292.6521 743.901516 
L 296.18505 744.521849 
L 297.3627 742.546015 
L 298.54035 744.099353 
L 299.718 745.219988 
L 300.89565 744.350649 
L 302.0733 743.691475 
L 303.25095 742.764794 
L 304.4286 742.772216 
L 305.60625 742.410376 
L 306.7839 741.68523 
L 307.96155 742.200384 
L 309.1392 743.745998 
L 310.31685 743.091534 
L 311.4945 742.129943 
L 312.67215 743.180444 
L 313.8498 742.757726 
L 315.02745 743.110133 
L 316.2051 741.420479 
L 317.38275 743.063944 
L 318.5604 743.81868 
L 319.73805 741.935044 
L 320.9157 740.512222 
L 322.09335 740.200635 
L 323.271 742.146603 
L 324.44865 742.461595 
L 325.6263 743.568424 
L 326.80395 743.59871 
L 327.9816 744.452964 
L 329.15925 744.210315 
L 330.3369 743.704248 
L 331.51455 740.217066 
L 332.6922 740.327739 
L 333.86985 740.832838 
L 336.22515 741.275914 
L 337.4028 743.296448 
L 338.58045 743.923595 
L 339.7581 742.211321 
L 340.93575 741.72473 
L 342.1134 744.121817 
L 343.29105 744.589781 
L 344.4687 744.590013 
L 345.64635 741.526676 
L 346.824 739.578057 
L 348.00165 740.208535 
L 349.1793 741.054877 
L 351.5346 741.865057 
L 352.71225 743.528757 
L 353.8899 744.325625 
L 355.06755 742.137539 
L 356.2452 741.577749 
L 357.42285 742.861887 
L 358.6005 742.480355 
L 359.77815 740.978175 
L 360.9558 741.201216 
L 362.13345 741.071177 
L 364.48875 742.745594 
L 365.6664 744.330248 
L 366.84405 744.366085 
L 368.0217 743.130274 
L 369.19935 743.161203 
L 370.377 740.682633 
L 371.55465 744.439446 
L 372.7323 744.030791 
L 375.0876 742.608703 
L 376.26525 743.619237 
L 377.4429 744.233117 
L 378.62055 743.27383 
L 379.7982 745.097769 
L 380.97585 743.757113 
L 382.1535 743.00989 
L 383.33115 744.00964 
L 384.5088 741.235911 
L 385.68645 740.277897 
L 386.8641 742.489045 
L 389.2194 743.759685 
L 390.39705 742.692356 
L 391.5747 742.850988 
L 392.75235 743.295017 
L 393.93 742.685104 
L 395.10765 743.271076 
L 396.2853 743.996334 
L 397.46295 744.322599 
L 398.6406 744.871526 
L 399.81825 743.666049 
L 400.9959 743.804548 
L 402.17355 745.065924 
L 403.3512 745.499493 
L 404.52885 743.680017 
L 405.7065 743.537662 
L 406.88415 744.032508 
L 409.23945 743.123103 
L 410.4171 743.483924 
L 411.59475 743.33438 
L 412.7724 744.769313 
L 413.95005 742.966319 
L 415.1277 742.943775 
L 416.30535 743.994455 
L 417.483 744.353119 
L 418.66065 743.70029 
L 419.8383 744.371511 
L 421.01595 742.767085 
L 423.37125 743.465782 
L 424.5489 743.889333 
L 425.72655 740.527478 
L 426.9042 741.141437 
L 428.08185 741.883639 
L 429.2595 741.993716 
L 430.43715 742.595761 
L 431.6148 741.756542 
L 432.79245 742.321671 
L 433.9701 744.224881 
L 435.14775 743.473117 
L 436.3254 741.170853 
L 437.50305 741.595109 
L 438.6807 741.704731 
L 439.85835 742.597313 
L 441.036 742.843305 
L 442.21365 741.510206 
L 443.3913 742.559031 
L 444.56895 741.743626 
L 445.7466 741.91623 
L 446.92425 741.969337 
L 449.27955 742.896398 
L 450.4572 742.932334 
L 451.63485 742.416414 
L 452.8125 741.535894 
L 453.99015 740.898276 
L 455.1678 740.885495 
L 456.34545 742.655913 
L 457.5231 743.177948 
L 458.70075 742.767433 
L 459.8784 744.539564 
L 461.05605 745.26117 
L 462.2337 743.496083 
L 465.76665 742.18569 
L 466.9443 742.460467 
L 468.12195 743.632169 
L 469.2996 743.133051 
L 470.47725 744.180879 
L 471.6549 744.146001 
L 472.83255 742.315705 
L 474.0102 742.276697 
L 475.18785 742.581198 
L 476.3655 742.1787 
L 477.54315 743.195804 
L 478.7208 741.013472 
L 479.89845 741.83883 
L 481.0761 743.609646 
L 482.25375 742.898344 
L 484.60905 741.905314 
L 485.7867 741.062412 
L 486.96435 740.946391 
L 488.142 742.050164 
L 489.31965 741.250869 
L 490.4973 744.25047 
L 491.67495 741.777539 
L 492.8526 741.698457 
L 494.03025 743.152352 
L 495.2079 743.049206 
L 496.38555 744.136653 
L 497.5632 741.982372 
L 498.74085 743.572748 
L 501.09615 743.206127 
L 502.2738 742.644615 
L 503.45145 742.994155 
L 504.6291 741.938917 
L 506.9844 741.626376 
L 508.16205 742.20465 
L 509.3397 742.272111 
L 510.51735 745.506571 
L 511.695 746.035965 
L 512.87265 745.346507 
L 514.0503 744.498155 
L 515.22795 738.670174 
L 517.58325 739.543334 
L 518.7609 742.286376 
L 519.93855 740.938487 
L 521.1162 741.608249 
L 522.29385 741.250946 
L 523.4715 742.267704 
L 524.64915 743.096383 
L 525.8268 742.317646 
L 527.00445 742.05182 
L 528.1821 741.334167 
L 529.35975 741.399635 
L 530.5374 740.543012 
L 532.8927 742.161889 
L 534.07035 742.092952 
L 535.248 742.199719 
L 536.42565 743.389413 
L 537.6033 743.318695 
L 538.78095 742.076416 
L 539.9586 742.879919 
L 541.13625 740.911682 
L 542.3139 740.897109 
L 543.49155 741.004409 
L 544.6692 743.602854 
L 545.84685 743.653389 
L 547.0245 744.258375 
L 548.20215 744.715449 
L 549.3798 742.606777 
L 550.55745 742.6958 
L 551.7351 743.179733 
L 552.91275 742.538847 
L 554.0904 743.283696 
L 555.26805 743.595188 
L 556.4457 743.552911 
L 557.62335 744.651843 
L 558.801 743.889889 
L 559.97865 744.030639 
L 561.1563 744.360696 
L 562.33395 744.380724 
L 563.5116 745.683198 
L 564.68925 745.560884 
L 565.8669 743.683098 
L 567.04455 741.044062 
L 568.2222 741.1528 
L 569.39985 741.112649 
L 570.5775 740.397397 
L 571.75515 741.290619 
L 572.9328 741.379763 
L 574.11045 740.679009 
L 575.2881 740.468958 
L 576.46575 739.46419 
L 577.6434 739.726752 
L 578.82105 741.842653 
L 579.9987 742.225331 
L 581.17635 742.421317 
L 582.354 741.794041 
L 583.53165 742.355563 
L 584.7093 742.50686 
L 585.88695 743.026313 
L 587.0646 744.444553 
L 588.24225 743.773769 
L 590.59755 743.584477 
L 591.7752 741.621314 
L 592.95285 742.167254 
L 594.1305 741.557951 
L 595.30815 741.953846 
L 596.4858 741.435245 
L 597.66345 743.121128 
L 598.8411 743.17441 
L 600.01875 743.548611 
L 601.1964 742.856746 
L 602.37405 742.945813 
L 603.5517 743.829151 
L 604.72935 741.209769 
L 605.907 742.174222 
L 607.08465 741.384148 
L 608.2623 742.269974 
L 609.43995 742.123062 
L 610.6176 741.643331 
L 611.79525 739.65855 
L 612.9729 742.696433 
L 614.15055 743.852922 
L 615.3282 742.607821 
L 616.50585 742.051799 
L 617.6835 745.553266 
L 618.86115 744.907451 
L 620.0388 745.41188 
L 621.21645 746.865134 
L 622.3941 745.838411 
L 623.57175 742.992896 
L 624.7494 742.77597 
L 625.92705 743.136159 
L 627.1047 743.777733 
L 628.28235 744.236889 
L 629.46 742.008844 
L 630.63765 741.555936 
L 631.8153 742.229691 
L 632.99295 741.349704 
L 634.1706 740.719784 
L 635.34825 741.394829 
L 636.5259 741.564511 
L 637.70355 741.435744 
L 638.8812 741.461902 
L 640.05885 742.041491 
L 641.2365 741.811312 
L 642.41415 741.330625 
L 644.76945 744.406902 
L 645.9471 744.883508 
L 647.12475 742.924558 
L 648.3024 742.977815 
L 649.48005 742.262826 
L 651.83535 742.790502 
L 653.013 742.317079 
L 654.19065 743.283992 
L 655.3683 746.359429 
L 656.54595 744.668813 
L 657.7236 745.295999 
L 658.90125 744.150533 
L 661.25655 744.599351 
L 662.4342 744.026111 
L 663.61185 744.869548 
L 664.7895 744.379564 
L 665.96715 745.301163 
L 667.1448 742.398389 
L 668.32245 742.892268 
L 669.5001 742.887495 
L 670.67775 743.741851 
L 671.8554 745.215331 
L 673.03305 744.196865 
L 674.2107 744.178016 
L 675.38835 743.574992 
L 676.566 744.003048 
L 677.74365 742.893079 
L 678.9213 743.915952 
L 680.09895 743.049412 
L 681.2766 742.639468 
L 682.45425 742.67436 
L 683.6319 741.850032 
L 684.80955 741.731341 
L 685.9872 741.737562 
L 687.16485 741.896922 
L 688.3425 743.31748 
L 689.52015 745.847946 
L 691.87545 744.785122 
L 693.0531 746.463003 
L 694.23075 743.38217 
L 695.4084 743.449546 
L 696.58605 742.887299 
L 697.7637 743.341565 
L 698.94135 744.821346 
L 700.119 744.086434 
L 701.29665 744.762025 
L 702.4743 743.67667 
L 703.65195 743.675086 
L 704.8296 743.060065 
L 706.00725 742.595222 
L 707.1849 743.216058 
L 708.36255 742.146652 
L 709.5402 742.543905 
L 711.8955 741.979858 
L 713.07315 741.808134 
L 714.2508 741.438 
L 715.42845 741.539097 
L 716.6061 741.980276 
L 717.78375 742.572594 
L 718.9614 742.955879 
L 720.13905 745.613234 
L 721.3167 744.600474 
L 722.49435 744.144842 
L 723.672 742.638744 
L 724.84965 743.499051 
L 726.0273 743.314072 
L 727.20495 742.169278 
L 728.3826 741.503388 
L 729.56025 741.415508 
L 730.7379 741.760836 
L 731.91555 743.508863 
L 733.0932 743.632233 
L 734.27085 742.884553 
L 735.4485 743.050533 
L 736.62615 742.604494 
L 737.8038 742.879671 
L 738.98145 742.648878 
L 740.1591 743.210506 
L 741.33675 740.548508 
L 742.5144 741.014286 
L 744.8697 741.464087 
L 746.04735 743.490364 
L 747.225 743.544586 
L 748.40265 744.301666 
L 749.5803 745.388043 
L 750.75795 745.720782 
L 751.9356 745.772878 
L 753.11325 741.275869 
L 754.2909 742.177792 
L 756.6462 741.973621 
L 757.82385 742.920024 
L 759.0015 743.192469 
L 760.17915 743.056828 
L 761.3568 743.577879 
L 762.53445 740.821763 
L 763.7121 741.274376 
L 764.88975 740.936107 
L 766.0674 742.428788 
L 767.24505 743.689799 
L 768.4227 742.962561 
L 769.60035 742.558225 
L 770.778 742.79337 
L 771.95565 743.402863 
L 773.1333 742.272831 
L 774.31095 744.056627 
L 775.4886 742.132148 
L 776.66625 742.704173 
L 777.8439 742.340609 
L 779.02155 742.980655 
L 780.1992 741.908897 
L 781.37685 744.188223 
L 782.5545 746.133429 
L 783.73215 742.5512 
L 784.9098 742.694174 
L 786.08745 741.651611 
L 787.2651 742.674441 
L 788.44275 742.826376 
L 789.6204 742.75124 
L 790.79805 742.488122 
L 791.9757 742.528253 
L 793.15335 742.739877 
L 794.331 742.622591 
L 795.50865 743.502084 
L 796.6863 744.948739 
L 797.86395 744.407444 
L 799.0416 743.605031 
L 800.21925 745.605043 
L 801.3969 744.259684 
L 802.57455 744.008691 
L 803.7522 741.895102 
L 804.92985 742.931836 
L 806.1075 742.669609 
L 807.28515 742.719301 
L 808.4628 742.00344 
L 809.64045 742.043179 
L 810.8181 740.943503 
L 811.99575 741.662557 
L 813.1734 743.438959 
L 814.35105 741.748027 
L 815.5287 741.675461 
L 816.70635 742.086456 
L 817.884 742.307207 
L 819.06165 742.891225 
L 820.2393 744.15811 
L 821.41695 743.234573 
L 822.5946 742.756518 
L 823.77225 743.456576 
L 824.9499 743.165007 
L 826.12755 744.288897 
L 827.3052 743.405993 
L 830.83815 743.600475 
L 832.0158 743.53304 
L 833.19345 742.945186 
L 834.3711 741.735924 
L 835.54875 741.222873 
L 836.7264 741.656482 
L 837.90405 744.781508 
L 839.0817 744.761254 
L 840.25935 743.089864 
L 841.437 741.924427 
L 842.61465 742.37634 
L 843.7923 742.629527 
L 846.1476 741.977365 
L 847.32525 741.719004 
L 848.5029 742.525228 
L 849.68055 742.149097 
L 850.8582 741.17538 
L 852.03585 741.479536 
L 853.2135 740.885992 
L 854.39115 741.896297 
L 855.5688 741.811258 
L 856.74645 743.37561 
L 857.9241 742.846682 
L 859.10175 743.329045 
L 860.2794 743.383621 
L 861.45705 745.299805 
L 863.81235 745.158823 
L 867.3453 742.197878 
L 868.52295 741.549979 
L 869.7006 742.752698 
L 872.0559 742.274778 
L 873.23355 744.467838 
L 874.4112 743.878739 
L 875.58885 744.432107 
L 876.7665 743.486076 
L 877.94415 742.189319 
L 879.1218 742.878097 
L 880.29945 742.722813 
L 881.4771 741.453312 
L 882.65475 744.171968 
L 883.8324 742.761778 
L 885.01005 744.144757 
L 886.1877 744.437972 
L 887.36535 744.083369 
L 888.543 741.604344 
L 889.72065 742.242911 
L 890.8983 742.351716 
L 892.07595 741.856544 
L 893.2536 741.870584 
L 894.43125 742.063768 
L 895.6089 742.797489 
L 896.78655 742.443545 
L 897.9642 742.32994 
L 899.14185 744.305716 
L 900.3195 742.295535 
L 901.49715 743.208824 
L 903.85245 743.090653 
L 905.0301 743.497335 
L 906.20775 742.696779 
L 907.3854 743.000452 
L 908.56305 742.750477 
L 909.7407 743.224811 
L 910.91835 744.152339 
L 912.096 744.139734 
L 913.27365 744.313084 
L 914.4513 744.125709 
L 915.62895 742.635612 
L 916.8066 740.935638 
L 917.98425 742.075704 
L 919.1619 741.831095 
L 920.33955 743.30039 
L 921.5172 745.587679 
L 922.69485 743.907567 
L 923.8725 743.780581 
L 925.05015 742.962311 
L 926.2278 743.544241 
L 927.40545 743.907401 
L 928.5831 744.022031 
L 929.76075 743.567299 
L 930.9384 743.788342 
L 932.11605 741.928153 
L 933.2937 742.520099 
L 935.649 744.101091 
L 936.82665 742.502744 
L 938.0043 742.246308 
L 939.18195 742.771993 
L 940.3596 743.061668 
L 941.53725 744.010295 
L 942.7149 742.461473 
L 943.89255 743.127699 
L 945.0702 743.191091 
L 946.24785 742.821776 
L 947.4255 743.031382 
L 948.60315 741.271091 
L 950.95845 741.429022 
L 952.1361 741.404708 
L 953.31375 740.269976 
L 955.66905 739.837384 
L 956.8467 739.994634 
L 958.02435 740.979866 
L 959.202 741.373614 
L 960.37965 741.472193 
L 961.5573 742.216538 
L 962.73495 742.372677 
L 963.9126 742.056684 
L 965.09025 742.16678 
L 966.2679 742.471895 
L 967.44555 743.452032 
L 968.6232 743.314393 
L 969.80085 741.759503 
L 970.9785 741.812275 
L 972.15615 742.100214 
L 973.3338 742.141193 
L 974.51145 744.985825 
L 975.6891 745.578359 
L 978.0444 745.136074 
L 979.22205 743.625547 
L 980.3997 744.307759 
L 982.755 743.194171 
L 983.93265 742.473896 
L 985.1103 742.443301 
L 986.28795 742.006529 
L 987.4656 741.987587 
L 988.64325 741.345874 
L 989.8209 741.326211 
L 990.99855 744.108283 
L 992.1762 743.648519 
L 993.35385 744.279224 
L 994.5315 744.404271 
L 995.70915 743.281931 
L 999.2421 743.493602 
L 1000.41975 742.937725 
L 1001.5974 742.944756 
L 1002.77505 744.374639 
L 1003.9527 744.599511 
L 1005.13035 742.165203 
L 1006.308 741.987977 
L 1007.48565 743.665952 
L 1008.6633 743.8984 
L 1009.84095 742.984943 
L 1011.0186 743.098744 
L 1012.19625 742.166891 
L 1013.3739 742.855475 
L 1014.55155 743.108806 
L 1015.7292 742.8453 
L 1016.90685 744.840215 
L 1018.0845 744.982127 
L 1019.26215 744.436034 
L 1020.4398 744.289251 
L 1021.61745 744.604647 
L 1022.7951 744.470961 
L 1023.97275 744.209449 
L 1025.1504 744.367165 
L 1026.32805 742.792776 
L 1027.5057 742.347998 
L 1028.68335 743.194388 
L 1029.861 743.31083 
L 1031.03865 744.121893 
L 1033.39395 743.609831 
L 1034.5716 743.678506 
L 1035.74925 742.440726 
L 1036.9269 742.247884 
L 1038.10455 740.994828 
L 1039.2822 740.881759 
L 1041.6375 741.171263 
L 1042.81515 742.228146 
L 1043.9928 742.55083 
L 1045.17045 742.580841 
L 1046.3481 742.323975 
L 1047.52575 742.572652 
L 1048.7034 742.237223 
L 1049.88105 743.310853 
L 1051.0587 743.271747 
L 1052.23635 742.945413 
L 1053.414 740.961674 
L 1054.59165 741.284946 
L 1055.7693 741.723849 
L 1056.94695 740.825744 
L 1059.30225 742.057803 
L 1060.4799 742.086207 
L 1061.65755 742.287365 
L 1062.8352 742.719301 
L 1064.01285 742.40813 
L 1065.1905 740.941356 
L 1066.36815 741.550996 
L 1067.5458 742.58237 
L 1068.72345 743.24745 
L 1069.9011 743.005865 
L 1072.2564 743.655327 
L 1073.43405 746.078739 
L 1074.6117 743.88871 
L 1075.78935 743.780203 
L 1076.967 743.450205 
L 1078.14465 743.741982 
L 1080.49995 743.108975 
L 1081.6776 743.405953 
L 1082.85525 742.347699 
L 1084.0329 741.848139 
L 1085.21055 742.27348 
L 1086.3882 741.641305 
L 1087.56585 741.672572 
L 1088.7435 742.697567 
L 1089.92115 739.90699 
L 1091.0988 741.067603 
L 1092.27645 740.480354 
L 1093.4541 740.06292 
L 1094.63175 741.531821 
L 1095.8094 743.753412 
L 1096.98705 743.091794 
L 1098.1647 742.720201 
L 1099.34235 742.806789 
L 1100.52 744.452525 
L 1101.69765 744.304115 
L 1102.8753 742.725109 
L 1105.2306 743.175955 
L 1106.40825 740.932174 
L 1107.5859 742.044565 
L 1108.76355 741.671629 
L 1109.9412 741.035103 
L 1111.11885 741.747432 
L 1112.2965 744.424448 
L 1113.47415 743.637613 
L 1114.6518 744.168417 
L 1115.82945 743.892744 
L 1117.0071 743.121927 
L 1118.18475 743.091633 
L 1119.3624 744.70848 
L 1120.54005 744.904398 
L 1121.7177 745.860329 
L 1122.89535 744.051016 
L 1124.073 741.628551 
L 1125.25065 741.514636 
L 1126.4283 741.583901 
L 1127.60595 741.928542 
L 1128.7836 742.678511 
L 1129.96125 742.488591 
L 1131.1389 742.110931 
L 1132.31655 742.368887 
L 1133.4942 741.983934 
L 1134.67185 742.814324 
L 1135.8495 745.600951 
L 1137.02715 745.819428 
L 1138.2048 745.613401 
L 1139.38245 744.22604 
L 1140.5601 742.333509 
L 1141.73775 742.697236 
L 1142.9154 742.677938 
L 1144.09305 744.109148 
L 1145.2707 744.379966 
L 1146.44835 742.630821 
L 1147.626 743.503505 
L 1148.80365 743.634717 
L 1149.9813 742.479202 
L 1151.15895 742.856028 
L 1152.3366 743.884595 
L 1153.51425 744.059709 
L 1154.6919 743.810014 
L 1155.86955 744.343975 
L 1157.0472 745.795476 
L 1158.22485 744.542436 
L 1159.4025 744.36134 
L 1160.58015 742.101871 
L 1161.7578 743.376934 
L 1162.93545 743.534882 
L 1164.1131 744.022241 
L 1165.29075 743.26519 
L 1166.4684 743.193196 
L 1167.64605 744.057269 
L 1170.00135 744.52047 
L 1171.179 742.824803 
L 1173.5343 743.127122 
L 1174.71195 743.699932 
L 1175.8896 744.437613 
L 1177.06725 743.462489 
L 1178.2449 743.870237 
L 1179.42255 744.039617 
L 1180.6002 743.412675 
L 1181.77785 741.354128 
L 1182.9555 742.56819 
L 1184.13315 741.254027 
L 1185.3108 741.542616 
L 1186.48845 741.195854 
L 1187.6661 741.490451 
L 1188.84375 742.520569 
L 1190.0214 742.348787 
L 1192.3767 741.432742 
L 1193.55435 741.688462 
L 1194.732 742.812298 
L 1195.90965 743.608621 
L 1197.0873 743.6701 
L 1198.26495 743.292469 
L 1200.62025 741.316193 
L 1205.33085 741.312862 
L 1206.5085 742.397796 
L 1207.68615 742.473918 
L 1208.8638 743.710491 
L 1210.04145 743.111092 
L 1211.2191 743.821111 
L 1212.39675 743.506339 
L 1213.5744 744.899583 
L 1214.75205 745.085067 
L 1215.9297 742.928859 
L 1218.285 742.748131 
L 1220.6403 743.860856 
L 1221.81795 743.834342 
L 1222.9956 744.431221 
L 1224.17325 744.240276 
L 1225.3509 744.903259 
L 1226.52855 744.138687 
L 1227.7062 743.696341 
L 1228.88385 743.496162 
L 1230.0615 742.321118 
L 1231.23915 742.54542 
L 1233.59445 742.56126 
L 1234.7721 742.275342 
L 1235.94975 741.856848 
L 1237.1274 744.575027 
L 1238.30505 744.272019 
L 1239.4827 744.955741 
L 1240.66035 744.324862 
L 1241.838 742.508398 
L 1243.01565 742.640522 
L 1244.1933 742.153445 
L 1246.5486 743.013575 
L 1247.72625 743.004217 
L 1248.9039 745.48465 
L 1250.08155 744.204127 
L 1251.2592 742.726984 
L 1252.43685 742.429297 
L 1253.6145 743.163101 
L 1254.79215 742.439413 
L 1255.9698 742.842917 
L 1258.3251 743.062631 
L 1259.50275 742.843709 
L 1260.6804 740.797136 
L 1261.85805 740.838857 
L 1263.0357 740.613551 
L 1264.21335 740.926893 
L 1265.391 740.351518 
L 1266.56865 740.262045 
L 1267.7463 739.496018 
L 1268.92395 739.433339 
L 1270.1016 740.019591 
L 1271.27925 739.915222 
L 1272.4569 741.017891 
L 1273.63455 741.557466 
L 1274.8122 741.951339 
L 1275.98985 741.760045 
L 1277.1675 742.976846 
L 1278.34515 743.453167 
L 1279.5228 742.339331 
L 1280.70045 742.033665 
L 1281.8781 741.132955 
L 1283.05575 741.032842 
L 1284.2334 744.343184 
L 1285.41105 744.317078 
L 1286.5887 742.888057 
L 1287.76635 742.759014 
L 1288.944 740.549837 
L 1290.12165 740.675777 
L 1292.47695 740.548384 
L 1293.6546 742.579801 
L 1294.83225 742.577386 
L 1296.0099 744.319313 
L 1297.18755 744.302488 
L 1299.54285 742.913326 
L 1300.7205 741.857511 
L 1301.89815 742.237005 
L 1303.0758 742.484713 
L 1304.25345 740.989501 
L 1305.4311 741.163708 
L 1306.60875 741.677182 
L 1307.7864 741.791319 
L 1310.1417 740.377132 
L 1311.31935 739.59078 
L 1312.497 741.713788 
L 1313.67465 741.119838 
L 1316.02995 741.826811 
L 1317.2076 740.001967 
L 1318.38525 740.46567 
L 1319.5629 740.032521 
L 1320.74055 741.328155 
L 1321.9182 742.097684 
L 1323.09585 740.959127 
L 1324.2735 741.630191 
L 1325.45115 741.285317 
L 1326.6288 741.137435 
L 1327.80645 741.460823 
L 1328.9841 741.454169 
L 1330.16175 741.613839 
L 1331.3394 742.53734 
L 1332.51705 740.901108 
L 1333.6947 741.980098 
L 1334.87235 741.313259 
L 1336.05 741.497978 
L 1336.05 741.497978 
" style="fill:none;stroke:#008000;stroke-linecap:square;stroke-width:2.0;"/>
   </g>
   <g id="patch_3">
    <path d="M 158.4 51.3 
L 1336.05 51.3 
" style="fill:none;stroke:#000000;stroke-linecap:square;stroke-linejoin:miter;"/>
   </g>
   <g id="patch_4">
    <path d="M 1336.05 747 
L 1336.05 51.3 
" style="fill:none;stroke:#000000;stroke-linecap:square;stroke-linejoin:miter;"/>
   </g>
   <g id="patch_5">
    <path d="M 158.4 747 
L 1336.05 747 
" style="fill:none;stroke:#000000;stroke-linecap:square;stroke-linejoin:miter;"/>
   </g>
   <g id="patch_6">
    <path d="M 158.4 747 
L 158.4 51.3 
" style="fill:none;stroke:#000000;stroke-linecap:square;stroke-linejoin:miter;"/>
   </g>
   <g id="matplotlib.axis_1">
    <g id="xtick_1">
     <g id="line2d_3">
      <defs>
       <path d="M 0 0 
L 0 -4 
" id="m57dae7b302" style="stroke:#000000;stroke-width:0.5;"/>
      </defs>
      <g>
       <use style="stroke:#000000;stroke-width:0.5;" x="158.4" xlink:href="#m57dae7b302" y="747.0"/>
      </g>
     </g>
     <g id="line2d_4">
      <defs>
       <path d="M 0 0 
L 0 4 
" id="m20518d6d1a" style="stroke:#000000;stroke-width:0.5;"/>
      </defs>
      <g>
       <use style="stroke:#000000;stroke-width:0.5;" x="158.4" xlink:href="#m20518d6d1a" y="51.3"/>
      </g>
     </g>
     <g id="text_1">
      <!-- 0 -->
      <defs>
       <path d="M 31.78125 66.40625 
Q 24.171875 66.40625 20.328125 58.90625 
Q 16.5 51.421875 16.5 36.375 
Q 16.5 21.390625 20.328125 13.890625 
Q 24.171875 6.390625 31.78125 6.390625 
Q 39.453125 6.390625 43.28125 13.890625 
Q 47.125 21.390625 47.125 36.375 
Q 47.125 51.421875 43.28125 58.90625 
Q 39.453125 66.40625 31.78125 66.40625 
M 31.78125 74.21875 
Q 44.046875 74.21875 50.515625 64.515625 
Q 56.984375 54.828125 56.984375 36.375 
Q 56.984375 17.96875 50.515625 8.265625 
Q 44.046875 -1.421875 31.78125 -1.421875 
Q 19.53125 -1.421875 13.0625 8.265625 
Q 6.59375 17.96875 6.59375 36.375 
Q 6.59375 54.828125 13.0625 64.515625 
Q 19.53125 74.21875 31.78125 74.21875 
" id="BitstreamVeraSans-Roman-30"/>
      </defs>
      <g transform="translate(148.85625 773.7953125)scale(0.3 -0.3)">
       <use xlink:href="#BitstreamVeraSans-Roman-30"/>
      </g>
     </g>
    </g>
    <g id="xtick_2">
     <g id="line2d_5">
      <g>
       <use style="stroke:#000000;stroke-width:0.5;" x="393.93" xlink:href="#m57dae7b302" y="747.0"/>
      </g>
     </g>
     <g id="line2d_6">
      <g>
       <use style="stroke:#000000;stroke-width:0.5;" x="393.93" xlink:href="#m20518d6d1a" y="51.3"/>
      </g>
     </g>
     <g id="text_2">
      <!-- 20000 -->
      <defs>
       <path d="M 19.1875 8.296875 
L 53.609375 8.296875 
L 53.609375 0 
L 7.328125 0 
L 7.328125 8.296875 
Q 12.9375 14.109375 22.625 23.890625 
Q 32.328125 33.6875 34.8125 36.53125 
Q 39.546875 41.84375 41.421875 45.53125 
Q 43.3125 49.21875 43.3125 52.78125 
Q 43.3125 58.59375 39.234375 62.25 
Q 35.15625 65.921875 28.609375 65.921875 
Q 23.96875 65.921875 18.8125 64.3125 
Q 13.671875 62.703125 7.8125 59.421875 
L 7.8125 69.390625 
Q 13.765625 71.78125 18.9375 73 
Q 24.125 74.21875 28.421875 74.21875 
Q 39.75 74.21875 46.484375 68.546875 
Q 53.21875 62.890625 53.21875 53.421875 
Q 53.21875 48.921875 51.53125 44.890625 
Q 49.859375 40.875 45.40625 35.40625 
Q 44.1875 33.984375 37.640625 27.21875 
Q 31.109375 20.453125 19.1875 8.296875 
" id="BitstreamVeraSans-Roman-32"/>
      </defs>
      <g transform="translate(346.21125 773.7953125)scale(0.3 -0.3)">
       <use xlink:href="#BitstreamVeraSans-Roman-32"/>
       <use x="63.623046875" xlink:href="#BitstreamVeraSans-Roman-30"/>
       <use x="127.24609375" xlink:href="#BitstreamVeraSans-Roman-30"/>
       <use x="190.869140625" xlink:href="#BitstreamVeraSans-Roman-30"/>
       <use x="254.4921875" xlink:href="#BitstreamVeraSans-Roman-30"/>
      </g>
     </g>
    </g>
    <g id="xtick_3">
     <g id="line2d_7">
      <g>
       <use style="stroke:#000000;stroke-width:0.5;" x="629.46" xlink:href="#m57dae7b302" y="747.0"/>
      </g>
     </g>
     <g id="line2d_8">
      <g>
       <use style="stroke:#000000;stroke-width:0.5;" x="629.46" xlink:href="#m20518d6d1a" y="51.3"/>
      </g>
     </g>
     <g id="text_3">
      <!-- 40000 -->
      <defs>
       <path d="M 37.796875 64.3125 
L 12.890625 25.390625 
L 37.796875 25.390625 
z
M 35.203125 72.90625 
L 47.609375 72.90625 
L 47.609375 25.390625 
L 58.015625 25.390625 
L 58.015625 17.1875 
L 47.609375 17.1875 
L 47.609375 0 
L 37.796875 0 
L 37.796875 17.1875 
L 4.890625 17.1875 
L 4.890625 26.703125 
z
" id="BitstreamVeraSans-Roman-34"/>
      </defs>
      <g transform="translate(581.74125 773.7953125)scale(0.3 -0.3)">
       <use xlink:href="#BitstreamVeraSans-Roman-34"/>
       <use x="63.623046875" xlink:href="#BitstreamVeraSans-Roman-30"/>
       <use x="127.24609375" xlink:href="#BitstreamVeraSans-Roman-30"/>
       <use x="190.869140625" xlink:href="#BitstreamVeraSans-Roman-30"/>
       <use x="254.4921875" xlink:href="#BitstreamVeraSans-Roman-30"/>
      </g>
     </g>
    </g>
    <g id="xtick_4">
     <g id="line2d_9">
      <g>
       <use style="stroke:#000000;stroke-width:0.5;" x="864.99" xlink:href="#m57dae7b302" y="747.0"/>
      </g>
     </g>
     <g id="line2d_10">
      <g>
       <use style="stroke:#000000;stroke-width:0.5;" x="864.99" xlink:href="#m20518d6d1a" y="51.3"/>
      </g>
     </g>
     <g id="text_4">
      <!-- 60000 -->
      <defs>
       <path d="M 33.015625 40.375 
Q 26.375 40.375 22.484375 35.828125 
Q 18.609375 31.296875 18.609375 23.390625 
Q 18.609375 15.53125 22.484375 10.953125 
Q 26.375 6.390625 33.015625 6.390625 
Q 39.65625 6.390625 43.53125 10.953125 
Q 47.40625 15.53125 47.40625 23.390625 
Q 47.40625 31.296875 43.53125 35.828125 
Q 39.65625 40.375 33.015625 40.375 
M 52.59375 71.296875 
L 52.59375 62.3125 
Q 48.875 64.0625 45.09375 64.984375 
Q 41.3125 65.921875 37.59375 65.921875 
Q 27.828125 65.921875 22.671875 59.328125 
Q 17.53125 52.734375 16.796875 39.40625 
Q 19.671875 43.65625 24.015625 45.921875 
Q 28.375 48.1875 33.59375 48.1875 
Q 44.578125 48.1875 50.953125 41.515625 
Q 57.328125 34.859375 57.328125 23.390625 
Q 57.328125 12.15625 50.6875 5.359375 
Q 44.046875 -1.421875 33.015625 -1.421875 
Q 20.359375 -1.421875 13.671875 8.265625 
Q 6.984375 17.96875 6.984375 36.375 
Q 6.984375 53.65625 15.1875 63.9375 
Q 23.390625 74.21875 37.203125 74.21875 
Q 40.921875 74.21875 44.703125 73.484375 
Q 48.484375 72.75 52.59375 71.296875 
" id="BitstreamVeraSans-Roman-36"/>
      </defs>
      <g transform="translate(817.27125 773.7953125)scale(0.3 -0.3)">
       <use xlink:href="#BitstreamVeraSans-Roman-36"/>
       <use x="63.623046875" xlink:href="#BitstreamVeraSans-Roman-30"/>
       <use x="127.24609375" xlink:href="#BitstreamVeraSans-Roman-30"/>
       <use x="190.869140625" xlink:href="#BitstreamVeraSans-Roman-30"/>
       <use x="254.4921875" xlink:href="#BitstreamVeraSans-Roman-30"/>
      </g>
     </g>
    </g>
    <g id="xtick_5">
     <g id="line2d_11">
      <g>
       <use style="stroke:#000000;stroke-width:0.5;" x="1100.52" xlink:href="#m57dae7b302" y="747.0"/>
      </g>
     </g>
     <g id="line2d_12">
      <g>
       <use style="stroke:#000000;stroke-width:0.5;" x="1100.52" xlink:href="#m20518d6d1a" y="51.3"/>
      </g>
     </g>
     <g id="text_5">
      <!-- 80000 -->
      <defs>
       <path d="M 31.78125 34.625 
Q 24.75 34.625 20.71875 30.859375 
Q 16.703125 27.09375 16.703125 20.515625 
Q 16.703125 13.921875 20.71875 10.15625 
Q 24.75 6.390625 31.78125 6.390625 
Q 38.8125 6.390625 42.859375 10.171875 
Q 46.921875 13.96875 46.921875 20.515625 
Q 46.921875 27.09375 42.890625 30.859375 
Q 38.875 34.625 31.78125 34.625 
M 21.921875 38.8125 
Q 15.578125 40.375 12.03125 44.71875 
Q 8.5 49.078125 8.5 55.328125 
Q 8.5 64.0625 14.71875 69.140625 
Q 20.953125 74.21875 31.78125 74.21875 
Q 42.671875 74.21875 48.875 69.140625 
Q 55.078125 64.0625 55.078125 55.328125 
Q 55.078125 49.078125 51.53125 44.71875 
Q 48 40.375 41.703125 38.8125 
Q 48.828125 37.15625 52.796875 32.3125 
Q 56.78125 27.484375 56.78125 20.515625 
Q 56.78125 9.90625 50.3125 4.234375 
Q 43.84375 -1.421875 31.78125 -1.421875 
Q 19.734375 -1.421875 13.25 4.234375 
Q 6.78125 9.90625 6.78125 20.515625 
Q 6.78125 27.484375 10.78125 32.3125 
Q 14.796875 37.15625 21.921875 38.8125 
M 18.3125 54.390625 
Q 18.3125 48.734375 21.84375 45.5625 
Q 25.390625 42.390625 31.78125 42.390625 
Q 38.140625 42.390625 41.71875 45.5625 
Q 45.3125 48.734375 45.3125 54.390625 
Q 45.3125 60.0625 41.71875 63.234375 
Q 38.140625 66.40625 31.78125 66.40625 
Q 25.390625 66.40625 21.84375 63.234375 
Q 18.3125 60.0625 18.3125 54.390625 
" id="BitstreamVeraSans-Roman-38"/>
      </defs>
      <g transform="translate(1052.80125 773.7953125)scale(0.3 -0.3)">
       <use xlink:href="#BitstreamVeraSans-Roman-38"/>
       <use x="63.623046875" xlink:href="#BitstreamVeraSans-Roman-30"/>
       <use x="127.24609375" xlink:href="#BitstreamVeraSans-Roman-30"/>
       <use x="190.869140625" xlink:href="#BitstreamVeraSans-Roman-30"/>
       <use x="254.4921875" xlink:href="#BitstreamVeraSans-Roman-30"/>
      </g>
     </g>
    </g>
    <g id="xtick_6">
     <g id="line2d_13">
      <g>
       <use style="stroke:#000000;stroke-width:0.5;" x="1336.05" xlink:href="#m57dae7b302" y="747.0"/>
      </g>
     </g>
     <g id="line2d_14">
      <g>
       <use style="stroke:#000000;stroke-width:0.5;" x="1336.05" xlink:href="#m20518d6d1a" y="51.3"/>
      </g>
     </g>
     <g id="text_6">
      <!-- 100000 -->
      <defs>
       <path d="M 12.40625 8.296875 
L 28.515625 8.296875 
L 28.515625 63.921875 
L 10.984375 60.40625 
L 10.984375 69.390625 
L 28.421875 72.90625 
L 38.28125 72.90625 
L 38.28125 8.296875 
L 54.390625 8.296875 
L 54.390625 0 
L 12.40625 0 
z
" id="BitstreamVeraSans-Roman-31"/>
      </defs>
      <g transform="translate(1278.7875 773.7953125)scale(0.3 -0.3)">
       <use xlink:href="#BitstreamVeraSans-Roman-31"/>
       <use x="63.623046875" xlink:href="#BitstreamVeraSans-Roman-30"/>
       <use x="127.24609375" xlink:href="#BitstreamVeraSans-Roman-30"/>
       <use x="190.869140625" xlink:href="#BitstreamVeraSans-Roman-30"/>
       <use x="254.4921875" xlink:href="#BitstreamVeraSans-Roman-30"/>
       <use x="318.115234375" xlink:href="#BitstreamVeraSans-Roman-30"/>
      </g>
     </g>
    </g>
    <g id="text_7">
     <!-- iterations -->
     <defs>
      <path d="M 54.890625 33.015625 
L 54.890625 0 
L 45.90625 0 
L 45.90625 32.71875 
Q 45.90625 40.484375 42.875 44.328125 
Q 39.84375 48.1875 33.796875 48.1875 
Q 26.515625 48.1875 22.3125 43.546875 
Q 18.109375 38.921875 18.109375 30.90625 
L 18.109375 0 
L 9.078125 0 
L 9.078125 54.6875 
L 18.109375 54.6875 
L 18.109375 46.1875 
Q 21.34375 51.125 25.703125 53.5625 
Q 30.078125 56 35.796875 56 
Q 45.21875 56 50.046875 50.171875 
Q 54.890625 44.34375 54.890625 33.015625 
" id="BitstreamVeraSans-Roman-6e"/>
      <path d="M 34.28125 27.484375 
Q 23.390625 27.484375 19.1875 25 
Q 14.984375 22.515625 14.984375 16.5 
Q 14.984375 11.71875 18.140625 8.90625 
Q 21.296875 6.109375 26.703125 6.109375 
Q 34.1875 6.109375 38.703125 11.40625 
Q 43.21875 16.703125 43.21875 25.484375 
L 43.21875 27.484375 
z
M 52.203125 31.203125 
L 52.203125 0 
L 43.21875 0 
L 43.21875 8.296875 
Q 40.140625 3.328125 35.546875 0.953125 
Q 30.953125 -1.421875 24.3125 -1.421875 
Q 15.921875 -1.421875 10.953125 3.296875 
Q 6 8.015625 6 15.921875 
Q 6 25.140625 12.171875 29.828125 
Q 18.359375 34.515625 30.609375 34.515625 
L 43.21875 34.515625 
L 43.21875 35.40625 
Q 43.21875 41.609375 39.140625 45 
Q 35.0625 48.390625 27.6875 48.390625 
Q 23 48.390625 18.546875 47.265625 
Q 14.109375 46.140625 10.015625 43.890625 
L 10.015625 52.203125 
Q 14.9375 54.109375 19.578125 55.046875 
Q 24.21875 56 28.609375 56 
Q 40.484375 56 46.34375 49.84375 
Q 52.203125 43.703125 52.203125 31.203125 
" id="BitstreamVeraSans-Roman-61"/>
      <path d="M 30.609375 48.390625 
Q 23.390625 48.390625 19.1875 42.75 
Q 14.984375 37.109375 14.984375 27.296875 
Q 14.984375 17.484375 19.15625 11.84375 
Q 23.34375 6.203125 30.609375 6.203125 
Q 37.796875 6.203125 41.984375 11.859375 
Q 46.1875 17.53125 46.1875 27.296875 
Q 46.1875 37.015625 41.984375 42.703125 
Q 37.796875 48.390625 30.609375 48.390625 
M 30.609375 56 
Q 42.328125 56 49.015625 48.375 
Q 55.71875 40.765625 55.71875 27.296875 
Q 55.71875 13.875 49.015625 6.21875 
Q 42.328125 -1.421875 30.609375 -1.421875 
Q 18.84375 -1.421875 12.171875 6.21875 
Q 5.515625 13.875 5.515625 27.296875 
Q 5.515625 40.765625 12.171875 48.375 
Q 18.84375 56 30.609375 56 
" id="BitstreamVeraSans-Roman-6f"/>
      <path d="M 9.421875 54.6875 
L 18.40625 54.6875 
L 18.40625 0 
L 9.421875 0 
z
M 9.421875 75.984375 
L 18.40625 75.984375 
L 18.40625 64.59375 
L 9.421875 64.59375 
z
" id="BitstreamVeraSans-Roman-69"/>
      <path d="M 56.203125 29.59375 
L 56.203125 25.203125 
L 14.890625 25.203125 
Q 15.484375 15.921875 20.484375 11.0625 
Q 25.484375 6.203125 34.421875 6.203125 
Q 39.59375 6.203125 44.453125 7.46875 
Q 49.3125 8.734375 54.109375 11.28125 
L 54.109375 2.78125 
Q 49.265625 0.734375 44.1875 -0.34375 
Q 39.109375 -1.421875 33.890625 -1.421875 
Q 20.796875 -1.421875 13.15625 6.1875 
Q 5.515625 13.8125 5.515625 26.8125 
Q 5.515625 40.234375 12.765625 48.109375 
Q 20.015625 56 32.328125 56 
Q 43.359375 56 49.78125 48.890625 
Q 56.203125 41.796875 56.203125 29.59375 
M 47.21875 32.234375 
Q 47.125 39.59375 43.09375 43.984375 
Q 39.0625 48.390625 32.421875 48.390625 
Q 24.90625 48.390625 20.390625 44.140625 
Q 15.875 39.890625 15.1875 32.171875 
z
" id="BitstreamVeraSans-Roman-65"/>
      <path d="M 18.3125 70.21875 
L 18.3125 54.6875 
L 36.8125 54.6875 
L 36.8125 47.703125 
L 18.3125 47.703125 
L 18.3125 18.015625 
Q 18.3125 11.328125 20.140625 9.421875 
Q 21.96875 7.515625 27.59375 7.515625 
L 36.8125 7.515625 
L 36.8125 0 
L 27.59375 0 
Q 17.1875 0 13.234375 3.875 
Q 9.28125 7.765625 9.28125 18.015625 
L 9.28125 47.703125 
L 2.6875 47.703125 
L 2.6875 54.6875 
L 9.28125 54.6875 
L 9.28125 70.21875 
z
" id="BitstreamVeraSans-Roman-74"/>
      <path d="M 41.109375 46.296875 
Q 39.59375 47.171875 37.8125 47.578125 
Q 36.03125 48 33.890625 48 
Q 26.265625 48 22.1875 43.046875 
Q 18.109375 38.09375 18.109375 28.8125 
L 18.109375 0 
L 9.078125 0 
L 9.078125 54.6875 
L 18.109375 54.6875 
L 18.109375 46.1875 
Q 20.953125 51.171875 25.484375 53.578125 
Q 30.03125 56 36.53125 56 
Q 37.453125 56 38.578125 55.875 
Q 39.703125 55.765625 41.0625 55.515625 
z
" id="BitstreamVeraSans-Roman-72"/>
      <path d="M 44.28125 53.078125 
L 44.28125 44.578125 
Q 40.484375 46.53125 36.375 47.5 
Q 32.28125 48.484375 27.875 48.484375 
Q 21.1875 48.484375 17.84375 46.4375 
Q 14.5 44.390625 14.5 40.28125 
Q 14.5 37.15625 16.890625 35.375 
Q 19.28125 33.59375 26.515625 31.984375 
L 29.59375 31.296875 
Q 39.15625 29.25 43.1875 25.515625 
Q 47.21875 21.78125 47.21875 15.09375 
Q 47.21875 7.46875 41.1875 3.015625 
Q 35.15625 -1.421875 24.609375 -1.421875 
Q 20.21875 -1.421875 15.453125 -0.5625 
Q 10.6875 0.296875 5.421875 2 
L 5.421875 11.28125 
Q 10.40625 8.6875 15.234375 7.390625 
Q 20.0625 6.109375 24.8125 6.109375 
Q 31.15625 6.109375 34.5625 8.28125 
Q 37.984375 10.453125 37.984375 14.40625 
Q 37.984375 18.0625 35.515625 20.015625 
Q 33.0625 21.96875 24.703125 23.78125 
L 21.578125 24.515625 
Q 13.234375 26.265625 9.515625 29.90625 
Q 5.8125 33.546875 5.8125 39.890625 
Q 5.8125 47.609375 11.28125 51.796875 
Q 16.75 56 26.8125 56 
Q 31.78125 56 36.171875 55.265625 
Q 40.578125 54.546875 44.28125 53.078125 
" id="BitstreamVeraSans-Roman-73"/>
     </defs>
     <g transform="translate(676.04296875 807.8296875)scale(0.3 -0.3)">
      <use xlink:href="#BitstreamVeraSans-Roman-69"/>
      <use x="27.783203125" xlink:href="#BitstreamVeraSans-Roman-74"/>
      <use x="66.9921875" xlink:href="#BitstreamVeraSans-Roman-65"/>
      <use x="128.515625" xlink:href="#BitstreamVeraSans-Roman-72"/>
      <use x="169.62890625" xlink:href="#BitstreamVeraSans-Roman-61"/>
      <use x="230.908203125" xlink:href="#BitstreamVeraSans-Roman-74"/>
      <use x="270.1171875" xlink:href="#BitstreamVeraSans-Roman-69"/>
      <use x="297.900390625" xlink:href="#BitstreamVeraSans-Roman-6f"/>
      <use x="359.08203125" xlink:href="#BitstreamVeraSans-Roman-6e"/>
      <use x="422.4609375" xlink:href="#BitstreamVeraSans-Roman-73"/>
     </g>
    </g>
   </g>
   <g id="matplotlib.axis_2">
    <g id="ytick_1">
     <g id="line2d_15">
      <defs>
       <path d="M 0 0 
L 4 0 
" id="m7f27cac6c3" style="stroke:#000000;stroke-width:0.5;"/>
      </defs>
      <g>
       <use style="stroke:#000000;stroke-width:0.5;" x="158.4" xlink:href="#m7f27cac6c3" y="747.0"/>
      </g>
     </g>
     <g id="line2d_16">
      <defs>
       <path d="M 0 0 
L -4 0 
" id="m4b57327369" style="stroke:#000000;stroke-width:0.5;"/>
      </defs>
      <g>
       <use style="stroke:#000000;stroke-width:0.5;" x="1336.05" xlink:href="#m4b57327369" y="747.0"/>
      </g>
     </g>
     <g id="text_8">
      <!-- 60 -->
      <defs>
       <path d="M 10.59375 35.5 
L 73.1875 35.5 
L 73.1875 27.203125 
L 10.59375 27.203125 
z
" id="BitstreamVeraSans-Roman-2212"/>
      </defs>
      <g transform="translate(91.0859375 755.278125)scale(0.3 -0.3)">
       <use xlink:href="#BitstreamVeraSans-Roman-2212"/>
       <use x="83.7890625" xlink:href="#BitstreamVeraSans-Roman-36"/>
       <use x="147.412109375" xlink:href="#BitstreamVeraSans-Roman-30"/>
      </g>
     </g>
    </g>
    <g id="ytick_2">
     <g id="line2d_17">
      <g>
       <use style="stroke:#000000;stroke-width:0.5;" x="158.4" xlink:href="#m7f27cac6c3" y="647.614285714"/>
      </g>
     </g>
     <g id="line2d_18">
      <g>
       <use style="stroke:#000000;stroke-width:0.5;" x="1336.05" xlink:href="#m4b57327369" y="647.614285714"/>
      </g>
     </g>
     <g id="text_9">
      <!-- 50 -->
      <defs>
       <path d="M 10.796875 72.90625 
L 49.515625 72.90625 
L 49.515625 64.59375 
L 19.828125 64.59375 
L 19.828125 46.734375 
Q 21.96875 47.46875 24.109375 47.828125 
Q 26.265625 48.1875 28.421875 48.1875 
Q 40.625 48.1875 47.75 41.5 
Q 54.890625 34.8125 54.890625 23.390625 
Q 54.890625 11.625 47.5625 5.09375 
Q 40.234375 -1.421875 26.90625 -1.421875 
Q 22.3125 -1.421875 17.546875 -0.640625 
Q 12.796875 0.140625 7.71875 1.703125 
L 7.71875 11.625 
Q 12.109375 9.234375 16.796875 8.0625 
Q 21.484375 6.890625 26.703125 6.890625 
Q 35.15625 6.890625 40.078125 11.328125 
Q 45.015625 15.765625 45.015625 23.390625 
Q 45.015625 31 40.078125 35.4375 
Q 35.15625 39.890625 26.703125 39.890625 
Q 22.75 39.890625 18.8125 39.015625 
Q 14.890625 38.140625 10.796875 36.28125 
z
" id="BitstreamVeraSans-Roman-35"/>
      </defs>
      <g transform="translate(91.0859375 655.892410714)scale(0.3 -0.3)">
       <use xlink:href="#BitstreamVeraSans-Roman-2212"/>
       <use x="83.7890625" xlink:href="#BitstreamVeraSans-Roman-35"/>
       <use x="147.412109375" xlink:href="#BitstreamVeraSans-Roman-30"/>
      </g>
     </g>
    </g>
    <g id="ytick_3">
     <g id="line2d_19">
      <g>
       <use style="stroke:#000000;stroke-width:0.5;" x="158.4" xlink:href="#m7f27cac6c3" y="548.228571429"/>
      </g>
     </g>
     <g id="line2d_20">
      <g>
       <use style="stroke:#000000;stroke-width:0.5;" x="1336.05" xlink:href="#m4b57327369" y="548.228571429"/>
      </g>
     </g>
     <g id="text_10">
      <!-- 40 -->
      <g transform="translate(91.0859375 556.506696429)scale(0.3 -0.3)">
       <use xlink:href="#BitstreamVeraSans-Roman-2212"/>
       <use x="83.7890625" xlink:href="#BitstreamVeraSans-Roman-34"/>
       <use x="147.412109375" xlink:href="#BitstreamVeraSans-Roman-30"/>
      </g>
     </g>
    </g>
    <g id="ytick_4">
     <g id="line2d_21">
      <g>
       <use style="stroke:#000000;stroke-width:0.5;" x="158.4" xlink:href="#m7f27cac6c3" y="448.842857143"/>
      </g>
     </g>
     <g id="line2d_22">
      <g>
       <use style="stroke:#000000;stroke-width:0.5;" x="1336.05" xlink:href="#m4b57327369" y="448.842857143"/>
      </g>
     </g>
     <g id="text_11">
      <!-- 30 -->
      <defs>
       <path d="M 40.578125 39.3125 
Q 47.65625 37.796875 51.625 33 
Q 55.609375 28.21875 55.609375 21.1875 
Q 55.609375 10.40625 48.1875 4.484375 
Q 40.765625 -1.421875 27.09375 -1.421875 
Q 22.515625 -1.421875 17.65625 -0.515625 
Q 12.796875 0.390625 7.625 2.203125 
L 7.625 11.71875 
Q 11.71875 9.328125 16.59375 8.109375 
Q 21.484375 6.890625 26.8125 6.890625 
Q 36.078125 6.890625 40.9375 10.546875 
Q 45.796875 14.203125 45.796875 21.1875 
Q 45.796875 27.640625 41.28125 31.265625 
Q 36.765625 34.90625 28.71875 34.90625 
L 20.21875 34.90625 
L 20.21875 43.015625 
L 29.109375 43.015625 
Q 36.375 43.015625 40.234375 45.921875 
Q 44.09375 48.828125 44.09375 54.296875 
Q 44.09375 59.90625 40.109375 62.90625 
Q 36.140625 65.921875 28.71875 65.921875 
Q 24.65625 65.921875 20.015625 65.03125 
Q 15.375 64.15625 9.8125 62.3125 
L 9.8125 71.09375 
Q 15.4375 72.65625 20.34375 73.4375 
Q 25.25 74.21875 29.59375 74.21875 
Q 40.828125 74.21875 47.359375 69.109375 
Q 53.90625 64.015625 53.90625 55.328125 
Q 53.90625 49.265625 50.4375 45.09375 
Q 46.96875 40.921875 40.578125 39.3125 
" id="BitstreamVeraSans-Roman-33"/>
      </defs>
      <g transform="translate(91.0859375 457.120982143)scale(0.3 -0.3)">
       <use xlink:href="#BitstreamVeraSans-Roman-2212"/>
       <use x="83.7890625" xlink:href="#BitstreamVeraSans-Roman-33"/>
       <use x="147.412109375" xlink:href="#BitstreamVeraSans-Roman-30"/>
      </g>
     </g>
    </g>
    <g id="ytick_5">
     <g id="line2d_23">
      <g>
       <use style="stroke:#000000;stroke-width:0.5;" x="158.4" xlink:href="#m7f27cac6c3" y="349.457142857"/>
      </g>
     </g>
     <g id="line2d_24">
      <g>
       <use style="stroke:#000000;stroke-width:0.5;" x="1336.05" xlink:href="#m4b57327369" y="349.457142857"/>
      </g>
     </g>
     <g id="text_12">
      <!-- 20 -->
      <g transform="translate(91.0859375 357.735267857)scale(0.3 -0.3)">
       <use xlink:href="#BitstreamVeraSans-Roman-2212"/>
       <use x="83.7890625" xlink:href="#BitstreamVeraSans-Roman-32"/>
       <use x="147.412109375" xlink:href="#BitstreamVeraSans-Roman-30"/>
      </g>
     </g>
    </g>
    <g id="ytick_6">
     <g id="line2d_25">
      <g>
       <use style="stroke:#000000;stroke-width:0.5;" x="158.4" xlink:href="#m7f27cac6c3" y="250.071428571"/>
      </g>
     </g>
     <g id="line2d_26">
      <g>
       <use style="stroke:#000000;stroke-width:0.5;" x="1336.05" xlink:href="#m4b57327369" y="250.071428571"/>
      </g>
     </g>
     <g id="text_13">
      <!-- 10 -->
      <g transform="translate(91.0859375 258.349553571)scale(0.3 -0.3)">
       <use xlink:href="#BitstreamVeraSans-Roman-2212"/>
       <use x="83.7890625" xlink:href="#BitstreamVeraSans-Roman-31"/>
       <use x="147.412109375" xlink:href="#BitstreamVeraSans-Roman-30"/>
      </g>
     </g>
    </g>
    <g id="ytick_7">
     <g id="line2d_27">
      <g>
       <use style="stroke:#000000;stroke-width:0.5;" x="158.4" xlink:href="#m7f27cac6c3" y="150.685714286"/>
      </g>
     </g>
     <g id="line2d_28">
      <g>
       <use style="stroke:#000000;stroke-width:0.5;" x="1336.05" xlink:href="#m4b57327369" y="150.685714286"/>
      </g>
     </g>
     <g id="text_14">
      <!-- 0 -->
      <g transform="translate(135.3125 158.963839286)scale(0.3 -0.3)">
       <use xlink:href="#BitstreamVeraSans-Roman-30"/>
      </g>
     </g>
    </g>
    <g id="ytick_8">
     <g id="line2d_29">
      <g>
       <use style="stroke:#000000;stroke-width:0.5;" x="158.4" xlink:href="#m7f27cac6c3" y="51.3"/>
      </g>
     </g>
     <g id="line2d_30">
      <g>
       <use style="stroke:#000000;stroke-width:0.5;" x="1336.05" xlink:href="#m4b57327369" y="51.3"/>
      </g>
     </g>
     <g id="text_15">
      <!-- 10 -->
      <g transform="translate(116.225 59.578125)scale(0.3 -0.3)">
       <use xlink:href="#BitstreamVeraSans-Roman-31"/>
       <use x="63.623046875" xlink:href="#BitstreamVeraSans-Roman-30"/>
      </g>
     </g>
    </g>
    <g id="text_16">
     <!-- log(loss) -->
     <defs>
      <path d="M 8.015625 75.875 
L 15.828125 75.875 
Q 23.140625 64.359375 26.78125 53.3125 
Q 30.421875 42.28125 30.421875 31.390625 
Q 30.421875 20.453125 26.78125 9.375 
Q 23.140625 -1.703125 15.828125 -13.1875 
L 8.015625 -13.1875 
Q 14.5 -2 17.703125 9.0625 
Q 20.90625 20.125 20.90625 31.390625 
Q 20.90625 42.671875 17.703125 53.65625 
Q 14.5 64.65625 8.015625 75.875 
" id="BitstreamVeraSans-Roman-29"/>
      <path d="M 31 75.875 
Q 24.46875 64.65625 21.28125 53.65625 
Q 18.109375 42.671875 18.109375 31.390625 
Q 18.109375 20.125 21.3125 9.0625 
Q 24.515625 -2 31 -13.1875 
L 23.1875 -13.1875 
Q 15.875 -1.703125 12.234375 9.375 
Q 8.59375 20.453125 8.59375 31.390625 
Q 8.59375 42.28125 12.203125 53.3125 
Q 15.828125 64.359375 23.1875 75.875 
z
" id="BitstreamVeraSans-Roman-28"/>
      <path d="M 45.40625 27.984375 
Q 45.40625 37.75 41.375 43.109375 
Q 37.359375 48.484375 30.078125 48.484375 
Q 22.859375 48.484375 18.828125 43.109375 
Q 14.796875 37.75 14.796875 27.984375 
Q 14.796875 18.265625 18.828125 12.890625 
Q 22.859375 7.515625 30.078125 7.515625 
Q 37.359375 7.515625 41.375 12.890625 
Q 45.40625 18.265625 45.40625 27.984375 
M 54.390625 6.78125 
Q 54.390625 -7.171875 48.1875 -13.984375 
Q 42 -20.796875 29.203125 -20.796875 
Q 24.46875 -20.796875 20.265625 -20.09375 
Q 16.0625 -19.390625 12.109375 -17.921875 
L 12.109375 -9.1875 
Q 16.0625 -11.328125 19.921875 -12.34375 
Q 23.78125 -13.375 27.78125 -13.375 
Q 36.625 -13.375 41.015625 -8.765625 
Q 45.40625 -4.15625 45.40625 5.171875 
L 45.40625 9.625 
Q 42.625 4.78125 38.28125 2.390625 
Q 33.9375 0 27.875 0 
Q 17.828125 0 11.671875 7.65625 
Q 5.515625 15.328125 5.515625 27.984375 
Q 5.515625 40.671875 11.671875 48.328125 
Q 17.828125 56 27.875 56 
Q 33.9375 56 38.28125 53.609375 
Q 42.625 51.21875 45.40625 46.390625 
L 45.40625 54.6875 
L 54.390625 54.6875 
z
" id="BitstreamVeraSans-Roman-67"/>
      <path d="M 9.421875 75.984375 
L 18.40625 75.984375 
L 18.40625 0 
L 9.421875 0 
z
" id="BitstreamVeraSans-Roman-6c"/>
     </defs>
     <g transform="translate(79.846875 462.69609375)rotate(-90.0)scale(0.3 -0.3)">
      <use xlink:href="#BitstreamVeraSans-Roman-6c"/>
      <use x="27.783203125" xlink:href="#BitstreamVeraSans-Roman-6f"/>
      <use x="88.96484375" xlink:href="#BitstreamVeraSans-Roman-67"/>
      <use x="152.44140625" xlink:href="#BitstreamVeraSans-Roman-28"/>
      <use x="191.455078125" xlink:href="#BitstreamVeraSans-Roman-6c"/>
      <use x="219.23828125" xlink:href="#BitstreamVeraSans-Roman-6f"/>
      <use x="280.419921875" xlink:href="#BitstreamVeraSans-Roman-73"/>
      <use x="332.51953125" xlink:href="#BitstreamVeraSans-Roman-73"/>
      <use x="384.619140625" xlink:href="#BitstreamVeraSans-Roman-29"/>
     </g>
    </g>
   </g>
   <g id="legend_1">
    <g id="patch_7">
     <path d="M 843.876562 163.36875 
L 1321.05 163.36875 
L 1321.05 66.3 
L 843.876562 66.3 
z
" style="fill:#ffffff;stroke:#000000;stroke-linejoin:miter;"/>
    </g>
    <g id="line2d_31">
     <path d="M 864.876562 90.595312 
L 906.876562 90.595312 
" style="fill:none;stroke:#0000ff;stroke-linecap:square;stroke-width:2.0;"/>
    </g>
    <g id="line2d_32"/>
    <g id="text_17">
     <!-- random: step=0.004893 -->
     <defs>
      <path id="BitstreamVeraSans-Roman-20"/>
      <path d="M 52 44.1875 
Q 55.375 50.25 60.0625 53.125 
Q 64.75 56 71.09375 56 
Q 79.640625 56 84.28125 50.015625 
Q 88.921875 44.046875 88.921875 33.015625 
L 88.921875 0 
L 79.890625 0 
L 79.890625 32.71875 
Q 79.890625 40.578125 77.09375 44.375 
Q 74.3125 48.1875 68.609375 48.1875 
Q 61.625 48.1875 57.5625 43.546875 
Q 53.515625 38.921875 53.515625 30.90625 
L 53.515625 0 
L 44.484375 0 
L 44.484375 32.71875 
Q 44.484375 40.625 41.703125 44.40625 
Q 38.921875 48.1875 33.109375 48.1875 
Q 26.21875 48.1875 22.15625 43.53125 
Q 18.109375 38.875 18.109375 30.90625 
L 18.109375 0 
L 9.078125 0 
L 9.078125 54.6875 
L 18.109375 54.6875 
L 18.109375 46.1875 
Q 21.1875 51.21875 25.484375 53.609375 
Q 29.78125 56 35.6875 56 
Q 41.65625 56 45.828125 52.96875 
Q 50 49.953125 52 44.1875 
" id="BitstreamVeraSans-Roman-6d"/>
      <path d="M 10.984375 1.515625 
L 10.984375 10.5 
Q 14.703125 8.734375 18.5 7.8125 
Q 22.3125 6.890625 25.984375 6.890625 
Q 35.75 6.890625 40.890625 13.453125 
Q 46.046875 20.015625 46.78125 33.40625 
Q 43.953125 29.203125 39.59375 26.953125 
Q 35.25 24.703125 29.984375 24.703125 
Q 19.046875 24.703125 12.671875 31.3125 
Q 6.296875 37.9375 6.296875 49.421875 
Q 6.296875 60.640625 12.9375 67.421875 
Q 19.578125 74.21875 30.609375 74.21875 
Q 43.265625 74.21875 49.921875 64.515625 
Q 56.59375 54.828125 56.59375 36.375 
Q 56.59375 19.140625 48.40625 8.859375 
Q 40.234375 -1.421875 26.421875 -1.421875 
Q 22.703125 -1.421875 18.890625 -0.6875 
Q 15.09375 0.046875 10.984375 1.515625 
M 30.609375 32.421875 
Q 37.25 32.421875 41.125 36.953125 
Q 45.015625 41.5 45.015625 49.421875 
Q 45.015625 57.28125 41.125 61.84375 
Q 37.25 66.40625 30.609375 66.40625 
Q 23.96875 66.40625 20.09375 61.84375 
Q 16.21875 57.28125 16.21875 49.421875 
Q 16.21875 41.5 20.09375 36.953125 
Q 23.96875 32.421875 30.609375 32.421875 
" id="BitstreamVeraSans-Roman-39"/>
      <path d="M 11.71875 12.40625 
L 22.015625 12.40625 
L 22.015625 0 
L 11.71875 0 
z
M 11.71875 51.703125 
L 22.015625 51.703125 
L 22.015625 39.3125 
L 11.71875 39.3125 
z
" id="BitstreamVeraSans-Roman-3a"/>
      <path d="M 10.6875 12.40625 
L 21 12.40625 
L 21 0 
L 10.6875 0 
z
" id="BitstreamVeraSans-Roman-2e"/>
      <path d="M 10.59375 45.40625 
L 73.1875 45.40625 
L 73.1875 37.203125 
L 10.59375 37.203125 
z
M 10.59375 25.484375 
L 73.1875 25.484375 
L 73.1875 17.1875 
L 10.59375 17.1875 
z
" id="BitstreamVeraSans-Roman-3d"/>
      <path d="M 45.40625 46.390625 
L 45.40625 75.984375 
L 54.390625 75.984375 
L 54.390625 0 
L 45.40625 0 
L 45.40625 8.203125 
Q 42.578125 3.328125 38.25 0.953125 
Q 33.9375 -1.421875 27.875 -1.421875 
Q 17.96875 -1.421875 11.734375 6.484375 
Q 5.515625 14.40625 5.515625 27.296875 
Q 5.515625 40.1875 11.734375 48.09375 
Q 17.96875 56 27.875 56 
Q 33.9375 56 38.25 53.625 
Q 42.578125 51.265625 45.40625 46.390625 
M 14.796875 27.296875 
Q 14.796875 17.390625 18.875 11.75 
Q 22.953125 6.109375 30.078125 6.109375 
Q 37.203125 6.109375 41.296875 11.75 
Q 45.40625 17.390625 45.40625 27.296875 
Q 45.40625 37.203125 41.296875 42.84375 
Q 37.203125 48.484375 30.078125 48.484375 
Q 22.953125 48.484375 18.875 42.84375 
Q 14.796875 37.203125 14.796875 27.296875 
" id="BitstreamVeraSans-Roman-64"/>
      <path d="M 18.109375 8.203125 
L 18.109375 -20.796875 
L 9.078125 -20.796875 
L 9.078125 54.6875 
L 18.109375 54.6875 
L 18.109375 46.390625 
Q 20.953125 51.265625 25.265625 53.625 
Q 29.59375 56 35.59375 56 
Q 45.5625 56 51.78125 48.09375 
Q 58.015625 40.1875 58.015625 27.296875 
Q 58.015625 14.40625 51.78125 6.484375 
Q 45.5625 -1.421875 35.59375 -1.421875 
Q 29.59375 -1.421875 25.265625 0.953125 
Q 20.953125 3.328125 18.109375 8.203125 
M 48.6875 27.296875 
Q 48.6875 37.203125 44.609375 42.84375 
Q 40.53125 48.484375 33.40625 48.484375 
Q 26.265625 48.484375 22.1875 42.84375 
Q 18.109375 37.203125 18.109375 27.296875 
Q 18.109375 17.390625 22.1875 11.75 
Q 26.265625 6.109375 33.40625 6.109375 
Q 40.53125 6.109375 44.609375 11.75 
Q 48.6875 17.390625 48.6875 27.296875 
" id="BitstreamVeraSans-Roman-70"/>
     </defs>
     <g transform="translate(939.8765625 101.0953125)scale(0.3 -0.3)">
      <use xlink:href="#BitstreamVeraSans-Roman-72"/>
      <use x="41.11328125" xlink:href="#BitstreamVeraSans-Roman-61"/>
      <use x="102.392578125" xlink:href="#BitstreamVeraSans-Roman-6e"/>
      <use x="165.771484375" xlink:href="#BitstreamVeraSans-Roman-64"/>
      <use x="229.248046875" xlink:href="#BitstreamVeraSans-Roman-6f"/>
      <use x="290.4296875" xlink:href="#BitstreamVeraSans-Roman-6d"/>
      <use x="387.841796875" xlink:href="#BitstreamVeraSans-Roman-3a"/>
      <use x="421.533203125" xlink:href="#BitstreamVeraSans-Roman-20"/>
      <use x="453.3203125" xlink:href="#BitstreamVeraSans-Roman-73"/>
      <use x="505.419921875" xlink:href="#BitstreamVeraSans-Roman-74"/>
      <use x="544.62890625" xlink:href="#BitstreamVeraSans-Roman-65"/>
      <use x="606.15234375" xlink:href="#BitstreamVeraSans-Roman-70"/>
      <use x="669.62890625" xlink:href="#BitstreamVeraSans-Roman-3d"/>
      <use x="753.41796875" xlink:href="#BitstreamVeraSans-Roman-30"/>
      <use x="817.041015625" xlink:href="#BitstreamVeraSans-Roman-2e"/>
      <use x="848.828125" xlink:href="#BitstreamVeraSans-Roman-30"/>
      <use x="912.451171875" xlink:href="#BitstreamVeraSans-Roman-30"/>
      <use x="976.07421875" xlink:href="#BitstreamVeraSans-Roman-34"/>
      <use x="1039.69726562" xlink:href="#BitstreamVeraSans-Roman-38"/>
      <use x="1103.3203125" xlink:href="#BitstreamVeraSans-Roman-39"/>
      <use x="1166.94335938" xlink:href="#BitstreamVeraSans-Roman-33"/>
     </g>
    </g>
    <g id="line2d_33">
     <path d="M 864.876562 134.629687 
L 906.876562 134.629687 
" style="fill:none;stroke:#008000;stroke-linecap:square;stroke-width:2.0;"/>
    </g>
    <g id="line2d_34"/>
    <g id="text_18">
     <!-- corr: step=0.004893 -->
     <defs>
      <path d="M 48.78125 52.59375 
L 48.78125 44.1875 
Q 44.96875 46.296875 41.140625 47.34375 
Q 37.3125 48.390625 33.40625 48.390625 
Q 24.65625 48.390625 19.8125 42.84375 
Q 14.984375 37.3125 14.984375 27.296875 
Q 14.984375 17.28125 19.8125 11.734375 
Q 24.65625 6.203125 33.40625 6.203125 
Q 37.3125 6.203125 41.140625 7.25 
Q 44.96875 8.296875 48.78125 10.40625 
L 48.78125 2.09375 
Q 45.015625 0.34375 40.984375 -0.53125 
Q 36.96875 -1.421875 32.421875 -1.421875 
Q 20.0625 -1.421875 12.78125 6.34375 
Q 5.515625 14.109375 5.515625 27.296875 
Q 5.515625 40.671875 12.859375 48.328125 
Q 20.21875 56 33.015625 56 
Q 37.15625 56 41.109375 55.140625 
Q 45.0625 54.296875 48.78125 52.59375 
" id="BitstreamVeraSans-Roman-63"/>
     </defs>
     <g transform="translate(939.8765625 145.1296875)scale(0.3 -0.3)">
      <use xlink:href="#BitstreamVeraSans-Roman-63"/>
      <use x="54.98046875" xlink:href="#BitstreamVeraSans-Roman-6f"/>
      <use x="116.162109375" xlink:href="#BitstreamVeraSans-Roman-72"/>
      <use x="157.259765625" xlink:href="#BitstreamVeraSans-Roman-72"/>
      <use x="198.357421875" xlink:href="#BitstreamVeraSans-Roman-3a"/>
      <use x="232.048828125" xlink:href="#BitstreamVeraSans-Roman-20"/>
      <use x="263.8359375" xlink:href="#BitstreamVeraSans-Roman-73"/>
      <use x="315.935546875" xlink:href="#BitstreamVeraSans-Roman-74"/>
      <use x="355.14453125" xlink:href="#BitstreamVeraSans-Roman-65"/>
      <use x="416.66796875" xlink:href="#BitstreamVeraSans-Roman-70"/>
      <use x="480.14453125" xlink:href="#BitstreamVeraSans-Roman-3d"/>
      <use x="563.93359375" xlink:href="#BitstreamVeraSans-Roman-30"/>
      <use x="627.556640625" xlink:href="#BitstreamVeraSans-Roman-2e"/>
      <use x="659.34375" xlink:href="#BitstreamVeraSans-Roman-30"/>
      <use x="722.966796875" xlink:href="#BitstreamVeraSans-Roman-30"/>
      <use x="786.58984375" xlink:href="#BitstreamVeraSans-Roman-34"/>
      <use x="850.212890625" xlink:href="#BitstreamVeraSans-Roman-38"/>
      <use x="913.8359375" xlink:href="#BitstreamVeraSans-Roman-39"/>
      <use x="977.458984375" xlink:href="#BitstreamVeraSans-Roman-33"/>
     </g>
    </g>
   </g>
  </g>
 </g>
 <defs>
  <clipPath id="p2a79246cf5">
   <rect height="695.7" width="1177.65" x="158.4" y="51.3"/>
  </clipPath>
 </defs>
</svg>
