<?xml version="1.0" encoding="utf-8" standalone="no"?>
<!DOCTYPE svg PUBLIC "-//W3C//DTD SVG 1.1//EN"
  "http://www.w3.org/Graphics/SVG/1.1/DTD/svg11.dtd">
<!-- Created with matplotlib (http://matplotlib.org/) -->
<svg height="864pt" version="1.1" viewBox="0 0 1440 864" width="1440pt" xmlns="http://www.w3.org/2000/svg" xmlns:xlink="http://www.w3.org/1999/xlink">
 <defs>
  <style type="text/css">
*{stroke-linecap:butt;stroke-linejoin:round;stroke-miterlimit:100000;}
  </style>
 </defs>
 <g id="figure_1">
  <g id="patch_1">
   <path d="M 0 864 
L 1440 864 
L 1440 0 
L 0 0 
z
" style="fill:#ffffff;"/>
  </g>
  <g id="axes_1">
   <g id="patch_2">
    <path d="M 93.395313 770.34375 
L 1356.046875 770.34375 
L 1356.046875 57.917187 
L 93.395313 57.917187 
z
" style="fill:#ffffff;"/>
   </g>
   <g id="line2d_1">
    <path clip-path="url(#pd00c412b7e)" d="M 94.657964 105.869902 
L 95.920616 105.903369 
L 97.183267 105.91185 
L 98.445919 106.447426 
L 99.70857 108.914807 
L 100.971222 109.258099 
L 102.233873 109.258041 
L 103.496525 109.55176 
L 104.759177 111.763219 
L 106.021828 112.43007 
L 108.547131 112.430087 
L 109.809783 115.163389 
L 111.072434 115.893772 
L 113.597737 115.905977 
L 114.860389 118.222474 
L 116.123041 118.967657 
L 117.385692 119.194533 
L 118.648344 119.194476 
L 119.910995 121.071914 
L 121.173647 121.92479 
L 122.436298 122.524944 
L 123.69895 122.524933 
L 124.961602 124.065453 
L 126.224253 124.767436 
L 127.486905 125.679588 
L 128.749556 125.679399 
L 130.012208 126.597845 
L 131.274859 127.354465 
L 132.537511 128.936669 
L 133.800162 128.936557 
L 136.325466 130.331527 
L 137.588117 132.055462 
L 138.850769 132.055386 
L 140.11342 132.215161 
L 141.376072 132.957681 
L 142.638723 135.364755 
L 145.164027 135.364181 
L 146.426678 136.262298 
L 147.68933 138.387857 
L 148.951981 138.504735 
L 150.214633 138.504786 
L 151.477284 139.085387 
L 152.739936 141.469987 
L 154.002588 142.12215 
L 155.265239 142.122439 
L 156.527891 142.287447 
L 157.790542 144.126196 
L 159.053194 145.077499 
L 161.578497 145.065847 
L 162.841148 147.300181 
L 164.1038 148.166031 
L 166.629103 148.198049 
L 167.891755 150.31623 
L 169.154406 151.279568 
L 170.417058 151.484595 
L 171.679709 151.483662 
L 172.942361 153.238361 
L 174.205012 154.184123 
L 175.467664 154.954999 
L 176.730316 154.95498 
L 177.992967 156.618656 
L 179.255619 157.566263 
L 180.51827 158.829107 
L 181.780922 158.828903 
L 184.306225 160.685849 
L 185.568877 162.039837 
L 186.831528 162.040063 
L 188.09418 162.333998 
L 189.356831 163.251507 
L 190.619483 165.193708 
L 191.882134 165.192782 
L 193.144786 165.759941 
L 194.407437 166.584773 
L 195.670089 167.828213 
L 196.932741 167.828415 
L 198.195392 169.270907 
L 199.458044 170.203336 
L 200.720695 170.677329 
L 201.983347 170.678394 
L 203.245998 172.92724 
L 204.50865 173.815818 
L 207.033953 173.815967 
L 208.296605 176.29861 
L 209.559256 176.725413 
L 212.084559 176.725201 
L 213.347211 179.456941 
L 214.609862 179.701923 
L 217.135166 179.700996 
L 218.397817 181.921528 
L 222.185772 181.955937 
L 223.448423 184.686612 
L 227.236378 184.697594 
L 228.49903 187.710541 
L 232.286984 187.73009 
L 233.549636 191.074502 
L 237.337591 191.075767 
L 238.600242 193.762834 
L 242.388197 193.757442 
L 243.650848 196.848347 
L 247.438803 196.848654 
L 248.701455 200.290893 
L 252.489409 200.296815 
L 253.752061 203.047298 
L 257.540016 203.048013 
L 258.802667 205.997718 
L 262.590622 205.997174 
L 263.853273 208.801966 
L 267.641228 208.801895 
L 268.90388 211.699884 
L 272.691834 211.699484 
L 273.954486 214.952858 
L 277.742441 214.955274 
L 279.005092 217.550583 
L 282.793047 217.552706 
L 284.055698 220.925261 
L 287.843653 220.925416 
L 289.106305 224.540985 
L 292.894259 224.54085 
L 294.156911 227.414744 
L 297.944866 227.414622 
L 299.207517 230.541257 
L 302.995472 230.540992 
L 304.258123 233.335815 
L 308.046078 233.335637 
L 309.30873 236.009058 
L 313.096684 236.008871 
L 314.359336 239.2561 
L 318.147291 239.256413 
L 319.409942 242.065394 
L 323.197897 242.063055 
L 324.460548 244.998359 
L 328.248503 244.998977 
L 329.511155 247.943243 
L 333.299109 247.943552 
L 334.561761 250.865638 
L 338.349716 250.866072 
L 339.612367 254.434465 
L 343.400322 254.434542 
L 344.662973 257.54968 
L 348.450928 257.550057 
L 349.71358 260.149264 
L 353.501534 260.149216 
L 354.764186 263.145814 
L 358.552141 263.146183 
L 359.814792 266.144347 
L 363.602747 266.144151 
L 364.865398 268.91465 
L 368.653353 268.914989 
L 369.916005 272.120885 
L 373.703959 272.120557 
L 374.966611 275.138689 
L 378.754566 275.138078 
L 380.017217 278.138497 
L 383.805172 278.138359 
L 385.067823 280.912424 
L 388.855778 280.911846 
L 390.11843 284.47193 
L 393.906384 284.471942 
L 395.169036 287.52527 
L 398.956991 287.524309 
L 400.219642 290.658214 
L 404.007597 290.659517 
L 405.270248 293.618224 
L 409.058203 293.619887 
L 410.320855 296.70249 
L 414.108809 296.701825 
L 415.371461 299.520605 
L 419.159416 299.5211 
L 420.422067 302.682548 
L 424.210022 302.682346 
L 425.472673 305.653022 
L 429.260628 305.653025 
L 430.52328 309.012391 
L 434.311234 309.013147 
L 435.573886 311.940654 
L 439.361841 311.940703 
L 440.624492 315.205709 
L 444.412447 315.205237 
L 445.675098 318.283269 
L 449.463053 318.283331 
L 450.725705 321.626557 
L 454.513659 321.626796 
L 455.776311 324.708697 
L 459.564266 324.707731 
L 460.826917 327.743956 
L 464.614872 327.74408 
L 465.877523 331.072038 
L 469.665478 331.075061 
L 470.92813 334.206953 
L 474.716084 334.207686 
L 475.978736 337.380598 
L 479.766691 337.381043 
L 481.029342 340.625277 
L 484.817297 340.626284 
L 486.079948 343.681874 
L 489.867903 343.682695 
L 491.130555 346.393231 
L 494.918509 346.393308 
L 496.181161 349.373077 
L 499.969116 349.373131 
L 501.231767 352.116187 
L 505.019722 352.118667 
L 506.282373 355.09967 
L 510.070328 355.09943 
L 511.33298 358.375213 
L 515.120934 358.375097 
L 516.383586 361.786287 
L 520.171541 361.786749 
L 521.434192 364.496279 
L 525.222147 364.494728 
L 526.484798 368.142682 
L 530.272753 368.141931 
L 531.535405 371.337198 
L 535.323359 371.337222 
L 536.586011 373.949246 
L 540.373966 373.951091 
L 541.636617 377.235999 
L 545.424572 377.235979 
L 546.687223 380.392136 
L 550.475178 380.392539 
L 551.73783 383.510248 
L 555.525784 383.510254 
L 556.788436 386.527909 
L 560.576391 386.528941 
L 561.839042 389.842533 
L 565.626997 389.843327 
L 566.889648 392.900717 
L 570.677603 392.900705 
L 571.940255 396.203615 
L 575.728209 396.206103 
L 576.990861 399.166423 
L 580.778816 399.166246 
L 582.041467 401.935297 
L 585.829422 401.934975 
L 587.092073 405.207642 
L 590.880028 405.207693 
L 592.14268 408.47232 
L 595.930634 408.471445 
L 597.193286 411.646751 
L 600.981241 411.646322 
L 602.243892 414.364279 
L 606.031847 414.364231 
L 607.294498 417.364008 
L 611.082453 417.364536 
L 612.345105 420.637703 
L 616.133059 420.637856 
L 617.395711 423.617683 
L 621.183666 423.61765 
L 622.446317 426.488841 
L 626.234272 426.488852 
L 627.496923 429.881574 
L 631.284878 429.881787 
L 632.54753 432.717285 
L 636.335484 432.717898 
L 637.598136 435.821999 
L 641.386091 435.821851 
L 642.648742 439.378277 
L 646.436697 439.377586 
L 647.699348 442.468006 
L 651.487303 442.468143 
L 652.749955 445.634589 
L 656.537909 445.635548 
L 657.800561 448.689755 
L 661.588516 448.688942 
L 662.851167 451.589587 
L 666.639122 451.589506 
L 667.901773 454.519998 
L 671.689728 454.51995 
L 672.95238 457.821537 
L 676.740334 457.821537 
L 678.002986 460.412705 
L 681.790941 460.418189 
L 683.053592 463.467549 
L 686.841547 463.465136 
L 688.104198 466.365858 
L 691.892153 466.368657 
L 693.154805 469.274575 
L 696.942759 469.274442 
L 698.205411 472.283733 
L 701.993366 472.28431 
L 703.256017 475.459923 
L 707.043972 475.460701 
L 708.306623 478.488688 
L 712.094578 478.491602 
L 713.35723 481.52937 
L 717.145184 481.530432 
L 718.407836 484.583268 
L 722.195791 484.583281 
L 723.458442 487.712909 
L 727.246397 487.711313 
L 728.509048 490.843311 
L 732.297003 490.842064 
L 733.559655 493.888813 
L 737.347609 493.888944 
L 738.610261 497.216124 
L 742.398216 497.21552 
L 743.660867 500.672972 
L 747.448822 500.674838 
L 748.711473 503.886222 
L 752.499428 503.886475 
L 753.76208 507.063319 
L 757.550034 507.063187 
L 758.812686 510.248386 
L 762.600641 510.247227 
L 763.863292 513.361882 
L 767.651247 513.361957 
L 768.913898 515.69444 
L 772.701853 515.696038 
L 773.964505 518.841549 
L 777.752459 518.841052 
L 779.015111 521.464709 
L 782.803066 521.464813 
L 784.065717 524.418639 
L 787.853672 524.417617 
L 789.116323 527.469431 
L 792.904278 527.469441 
L 794.16693 530.592252 
L 797.954884 530.59187 
L 799.217536 533.486689 
L 803.005491 533.486789 
L 804.268142 536.942975 
L 808.056097 536.943354 
L 809.318748 540.083065 
L 813.106703 540.082826 
L 814.369355 542.923749 
L 818.157309 542.923659 
L 819.419961 546.473961 
L 823.207916 546.474472 
L 824.470567 549.484409 
L 828.258522 549.484661 
L 829.521173 552.709366 
L 833.309128 552.709467 
L 834.57178 555.443814 
L 838.359734 555.443777 
L 839.622386 558.486255 
L 843.410341 558.487121 
L 844.672992 561.523863 
L 848.460947 561.524123 
L 849.723598 564.529795 
L 853.511553 564.526328 
L 854.774205 567.29647 
L 858.562159 567.295278 
L 859.824811 570.731465 
L 863.612766 570.731133 
L 864.875417 573.667646 
L 868.663372 573.668318 
L 869.926023 577.228369 
L 873.713978 577.229546 
L 874.97663 580.359817 
L 878.764584 580.360695 
L 880.027236 583.34948 
L 883.815191 583.350075 
L 885.077842 586.89102 
L 888.865797 586.890094 
L 890.128448 589.64345 
L 893.916403 589.643782 
L 895.179055 592.962237 
L 898.967009 592.962494 
L 900.229661 596.140031 
L 904.017616 596.140385 
L 905.280267 599.234834 
L 909.068222 599.234995 
L 910.330873 602.622216 
L 914.118828 602.623629 
L 915.38148 605.305786 
L 919.169434 605.306442 
L 920.432086 608.420468 
L 924.220041 608.420456 
L 925.482692 611.444745 
L 929.270647 611.445108 
L 930.533298 614.738077 
L 934.321253 614.737529 
L 935.583905 617.863652 
L 939.371859 617.863037 
L 940.634511 621.062586 
L 944.422466 621.061652 
L 945.685117 624.251199 
L 949.473072 624.251466 
L 950.735723 627.254651 
L 954.523678 627.25391 
L 955.78633 630.134549 
L 959.574284 630.134648 
L 960.836936 633.182232 
L 964.624891 633.18084 
L 965.887542 636.513833 
L 969.675497 636.513745 
L 970.938148 639.35293 
L 974.726103 639.357812 
L 975.988755 642.676526 
L 979.776709 642.676266 
L 981.039361 645.898323 
L 984.827316 645.898288 
L 986.089967 649.102108 
L 989.877922 649.102083 
L 991.140573 652.119216 
L 994.928528 652.121267 
L 996.19118 655.442273 
L 999.979134 655.441632 
L 1001.241786 658.223381 
L 1005.029741 658.223488 
L 1006.292392 661.297553 
L 1010.080347 661.299676 
L 1011.342998 664.525967 
L 1015.130953 664.528301 
L 1016.393605 667.56727 
L 1020.181559 667.567765 
L 1021.444211 670.74989 
L 1025.232166 670.747915 
L 1026.494817 673.918507 
L 1030.282772 673.918482 
L 1031.545423 677.197004 
L 1035.333378 677.196447 
L 1036.59603 679.96466 
L 1040.383984 679.964664 
L 1041.646636 682.727749 
L 1045.434591 682.72706 
L 1046.697242 685.304893 
L 1050.485197 685.304705 
L 1051.747848 687.787787 
L 1055.535803 687.786427 
L 1056.798455 690.232784 
L 1060.586409 690.23204 
L 1061.849061 692.461157 
L 1065.637016 692.460511 
L 1066.899667 694.345562 
L 1070.687622 694.344482 
L 1071.950273 696.133733 
L 1075.738228 696.132625 
L 1077.00088 697.897388 
L 1080.788834 697.896086 
L 1082.051486 699.195229 
L 1085.839441 699.196891 
L 1087.102092 699.550006 
L 1090.890047 699.551391 
L 1092.152698 700.099182 
L 1095.940653 700.104068 
L 1097.203305 700.486455 
L 1099.728608 700.486455 
L 1100.991259 700.602734 
L 1102.253911 701.114173 
L 1104.779214 701.114421 
L 1108.567169 701.503958 
L 1111.092472 701.489881 
L 1112.355123 701.703202 
L 1114.880427 701.702494 
L 1117.40573 702.387597 
L 1119.931033 702.386551 
L 1122.456336 702.853583 
L 1124.981639 702.852309 
L 1126.244291 703.007136 
L 1128.769594 702.921623 
L 1130.032245 702.917852 
L 1132.557548 703.304371 
L 1135.082852 703.308917 
L 1137.608155 703.076381 
L 1141.396109 703.160483 
L 1143.921412 703.228098 
L 1145.184064 703.227013 
L 1146.446716 703.611921 
L 1147.709367 703.755774 
L 1156.547928 703.815515 
L 1157.81058 703.599943 
L 1160.335883 703.599004 
L 1161.598534 703.979888 
L 1167.911792 703.92419 
L 1170.437095 703.923803 
L 1171.699747 704.217403 
L 1175.487702 704.24691 
L 1176.750353 703.544137 
L 1178.013005 703.416615 
L 1180.538308 703.413718 
L 1181.800959 703.685971 
L 1185.588914 703.665733 
L 1186.851566 703.366067 
L 1190.63952 703.344795 
L 1191.902172 703.511468 
L 1195.690127 703.507645 
L 1196.952778 704.071021 
L 1200.740733 704.070371 
L 1203.266036 704.228148 
L 1210.841945 704.193951 
L 1212.104597 703.948917 
L 1220.943158 703.893704 
L 1222.205809 703.560711 
L 1225.993764 703.523747 
L 1228.519067 703.64695 
L 1231.04437 703.648292 
L 1232.307022 703.490538 
L 1236.094977 703.448921 
L 1237.357628 703.908958 
L 1244.933537 703.862082 
L 1246.196189 703.862163 
L 1247.458841 703.330164 
L 1251.246795 703.368837 
L 1252.509447 703.659931 
L 1256.297402 703.665306 
L 1257.560053 703.341927 
L 1261.348008 703.351071 
L 1262.610659 703.174831 
L 1271.44922 703.172821 
L 1272.711872 703.482148 
L 1276.499827 703.486127 
L 1277.762478 703.152763 
L 1281.550433 703.172837 
L 1282.813084 702.976344 
L 1286.601039 703.018554 
L 1287.863691 703.598575 
L 1301.752858 703.625479 
L 1303.015509 703.042363 
L 1306.803464 703.032379 
L 1308.066116 703.187379 
L 1311.85407 703.197425 
L 1314.379373 703.087605 
L 1316.904677 703.090643 
L 1318.167328 703.288649 
L 1327.005889 703.170822 
L 1328.268541 702.894796 
L 1332.056495 702.872102 
L 1334.581798 702.962458 
L 1342.157708 703.058369 
L 1343.420359 703.435639 
L 1347.208314 703.458955 
L 1348.470966 703.705569 
L 1354.784223 703.560666 
L 1356.046875 703.566539 
L 1356.046875 703.566539 
" style="fill:none;stroke:#0000ff;stroke-linecap:square;stroke-width:2.0;"/>
   </g>
   <g id="line2d_2">
    <path clip-path="url(#pd00c412b7e)" d="M 94.657964 104.840996 
L 95.920616 105.055653 
L 99.70857 108.142491 
L 100.971222 108.143044 
L 102.233873 110.720602 
L 103.496525 110.379249 
L 104.759177 112.328501 
L 106.021828 112.327964 
L 107.28448 113.96426 
L 108.547131 113.965366 
L 109.809783 116.131857 
L 111.072434 116.130728 
L 112.335086 117.056635 
L 113.597737 117.06277 
L 114.860389 119.683046 
L 116.123041 119.681806 
L 117.385692 119.461652 
L 118.648344 119.461243 
L 119.910995 122.775262 
L 121.173647 122.774303 
L 122.436298 123.007663 
L 123.69895 123.007677 
L 124.961602 125.19338 
L 126.224253 125.194175 
L 127.486905 126.662816 
L 128.749556 126.662845 
L 130.012208 127.992613 
L 131.274859 127.989143 
L 132.537511 130.340381 
L 133.800162 130.340331 
L 135.062814 130.746934 
L 136.325466 130.746914 
L 137.588117 133.68465 
L 138.850769 133.684369 
L 140.11342 134.129346 
L 141.376072 134.128892 
L 142.638723 136.713144 
L 143.901375 136.713696 
L 145.164027 138.122856 
L 146.426678 138.122911 
L 147.68933 139.288195 
L 148.951981 139.29152 
L 150.214633 141.934147 
L 151.477284 141.934122 
L 152.739936 141.68578 
L 154.002588 141.685637 
L 155.265239 144.798226 
L 156.527891 144.797589 
L 157.790542 145.119593 
L 159.053194 145.119599 
L 160.315845 147.312205 
L 161.578497 147.310668 
L 162.841148 148.727319 
L 164.1038 148.727437 
L 165.366452 149.900285 
L 166.629103 149.90197 
L 167.891755 152.655784 
L 169.154406 152.655761 
L 170.417058 152.458196 
L 171.679709 152.45845 
L 172.942361 156.154915 
L 174.205012 156.154918 
L 175.467664 156.55433 
L 176.730316 156.554318 
L 177.992967 158.824599 
L 179.255619 158.826614 
L 180.51827 160.505956 
L 181.780922 160.506402 
L 183.043573 161.923183 
L 184.306225 161.9256 
L 185.568877 164.661238 
L 186.831528 164.661005 
L 188.09418 164.307372 
L 189.356831 164.307579 
L 190.619483 167.717611 
L 191.882134 167.718259 
L 193.144786 168.110208 
L 194.407437 168.110083 
L 195.670089 170.364535 
L 196.932741 170.364193 
L 198.195392 171.676741 
L 199.458044 171.676618 
L 200.720695 172.953767 
L 201.983347 172.955398 
L 203.245998 175.518057 
L 204.50865 175.518042 
L 205.771302 175.826211 
L 207.033953 175.825811 
L 208.296605 178.754155 
L 209.559256 178.753973 
L 210.821908 179.076427 
L 212.084559 179.076558 
L 213.347211 181.507364 
L 214.609862 181.507663 
L 215.872514 182.682843 
L 217.135166 182.683088 
L 218.397817 183.965784 
L 219.660469 183.961481 
L 220.92312 186.024048 
L 222.185772 186.024684 
L 223.448423 186.412026 
L 224.711075 186.411259 
L 225.973727 189.675964 
L 227.236378 189.675959 
L 228.49903 189.885758 
L 229.761681 189.88353 
L 231.024333 192.067467 
L 232.286984 192.067287 
L 233.549636 193.102067 
L 234.812287 193.102203 
L 236.074939 194.53435 
L 237.337591 194.535473 
L 238.600242 196.084654 
L 239.862894 196.084649 
L 241.125545 196.525918 
L 242.388197 196.525867 
L 243.650848 199.646311 
L 244.9135 199.646294 
L 246.176152 199.795081 
L 247.438803 199.795125 
L 248.701455 202.636441 
L 249.964106 202.636336 
L 251.226758 203.470794 
L 252.489409 203.470985 
L 253.752061 205.107663 
L 255.014712 205.109824 
L 256.277364 207.00131 
L 257.540016 207.001358 
L 258.802667 207.62529 
L 260.065319 207.620259 
L 261.32797 210.892641 
L 265.115925 210.913946 
L 266.378577 214.01425 
L 267.641228 214.013461 
L 268.90388 214.824691 
L 270.166531 214.82507 
L 271.429183 216.529998 
L 272.691834 216.529265 
L 273.954486 218.224685 
L 275.217137 218.224749 
L 276.479789 219.127253 
L 277.742441 219.125662 
L 279.005092 222.266505 
L 280.267744 222.266592 
L 281.530395 222.140447 
L 282.793047 222.140378 
L 284.055698 225.244183 
L 285.31835 225.24417 
L 286.581002 225.963598 
L 287.843653 225.963584 
L 289.106305 228.189488 
L 290.368956 228.192526 
L 291.631608 229.561806 
L 292.894259 229.561853 
L 294.156911 230.588946 
L 295.419562 230.592608 
L 296.682214 233.633502 
L 297.944866 233.63355 
L 299.207517 233.319125 
L 300.470169 233.319387 
L 301.73282 236.378865 
L 302.995472 236.38087 
L 304.258123 236.864639 
L 305.520775 236.86448 
L 306.783427 239.278369 
L 308.046078 239.276153 
L 309.30873 240.551686 
L 310.571381 240.551754 
L 311.834033 241.63657 
L 313.096684 241.636012 
L 314.359336 244.141557 
L 315.621987 244.14147 
L 316.884639 244.457735 
L 318.147291 244.457657 
L 319.409942 247.244783 
L 320.672594 247.244616 
L 321.935245 247.51845 
L 323.197897 247.518706 
L 324.460548 249.66316 
L 325.7232 249.663115 
L 326.985852 250.995169 
L 328.248503 251.01456 
L 329.511155 252.61999 
L 330.773806 252.620845 
L 332.036458 253.847358 
L 333.299109 253.84604 
L 334.561761 255.382659 
L 335.824412 255.377556 
L 337.087064 256.816378 
L 338.349716 256.816655 
L 339.612367 258.678603 
L 340.875019 258.680616 
L 342.13767 260.118022 
L 343.400322 260.128447 
L 344.662973 261.666195 
L 345.925625 261.664997 
L 347.188277 263.3752 
L 348.450928 263.369883 
L 349.71358 265.405773 
L 350.976231 265.407793 
L 352.238883 266.907287 
L 353.501534 266.949856 
L 354.764186 268.486512 
L 356.026837 268.488138 
L 357.289489 269.931136 
L 358.552141 269.99343 
L 359.814792 271.48545 
L 361.077444 271.483488 
L 362.340095 272.900946 
L 363.602747 272.900851 
L 364.865398 274.453681 
L 366.12805 274.456714 
L 367.390702 276.005368 
L 368.653353 276.091297 
L 369.916005 277.991063 
L 371.178656 277.990343 
L 372.441308 279.225814 
L 373.703959 279.283729 
L 374.966611 280.927492 
L 376.229262 280.928751 
L 377.491914 282.421276 
L 378.754566 282.501488 
L 380.017217 284.581681 
L 381.279869 284.581482 
L 382.54252 286.066641 
L 383.805172 286.084173 
L 385.067823 287.676033 
L 386.330475 287.677639 
L 387.593127 288.830732 
L 388.855778 288.863581 
L 390.11843 290.633932 
L 391.381081 290.636262 
L 392.643733 291.735266 
L 393.906384 291.772077 
L 395.169036 293.194508 
L 396.431687 293.192032 
L 397.694339 294.476044 
L 398.956991 294.519318 
L 400.219642 296.186273 
L 401.482294 296.188866 
L 402.744945 297.536922 
L 404.007597 297.58416 
L 405.270248 299.133369 
L 406.5329 299.133457 
L 407.795552 300.37673 
L 409.058203 300.415468 
L 410.320855 301.878428 
L 411.583506 301.882553 
L 412.846158 303.075408 
L 414.108809 303.162943 
L 415.371461 304.703531 
L 416.634112 304.704841 
L 417.896764 306.337038 
L 419.159416 306.360513 
L 420.422067 308.069857 
L 421.684719 308.066078 
L 422.94737 309.508363 
L 424.210022 309.530979 
L 425.472673 311.247291 
L 426.735325 311.250376 
L 427.997977 312.835546 
L 429.260628 312.891851 
L 430.52328 314.794669 
L 431.785931 314.798145 
L 433.048583 316.420725 
L 434.311234 316.508939 
L 435.573886 318.234238 
L 436.836537 318.229351 
L 438.099189 319.590248 
L 439.361841 319.632162 
L 440.624492 321.158524 
L 441.887144 321.180462 
L 443.149795 322.810419 
L 444.412447 322.915031 
L 445.675098 324.45214 
L 446.93775 324.640531 
L 448.200402 326.124502 
L 449.463053 326.23138 
L 450.725705 327.685786 
L 451.988356 327.854631 
L 453.251008 329.316042 
L 454.513659 329.562249 
L 455.776311 330.813106 
L 457.038962 331.012986 
L 458.301614 332.386354 
L 459.564266 332.724574 
L 460.826917 334.01605 
L 462.089569 334.291491 
L 463.35222 335.779071 
L 464.614872 336.245186 
L 465.877523 337.405544 
L 467.140175 337.763494 
L 468.402827 339.380267 
L 469.665478 339.869374 
L 470.92813 341.002888 
L 472.190781 341.207262 
L 473.453433 342.812286 
L 474.716084 343.306177 
L 475.978736 344.343178 
L 477.241387 344.617615 
L 478.504039 346.05805 
L 479.766691 346.860114 
L 481.029342 347.884067 
L 482.291994 348.255387 
L 483.554645 349.56959 
L 484.817297 350.01118 
L 486.079948 350.955803 
L 487.3426 351.186217 
L 488.605252 352.679719 
L 489.867903 353.159035 
L 491.130555 353.86847 
L 492.393206 354.202577 
L 493.655858 355.671782 
L 494.918509 356.168704 
L 496.181161 356.958826 
L 497.443812 357.272078 
L 498.706464 358.738432 
L 499.969116 359.133316 
L 501.231767 359.825592 
L 502.494419 360.120979 
L 503.75707 361.608137 
L 505.019722 361.91136 
L 506.282373 362.762419 
L 507.545025 363.177303 
L 508.807677 365.222668 
L 510.070328 365.608614 
L 511.33298 366.211571 
L 512.595631 366.590589 
L 513.858283 368.130357 
L 515.120934 368.573096 
L 517.646237 369.647371 
L 518.908889 371.37021 
L 520.171541 371.766181 
L 521.434192 372.316841 
L 522.696844 372.705606 
L 523.959495 374.86899 
L 527.74745 376.23781 
L 529.010102 377.987989 
L 532.798056 379.264461 
L 534.060708 381.037772 
L 535.323359 381.53429 
L 536.586011 381.755622 
L 537.848662 382.234361 
L 539.111314 384.168964 
L 540.373966 384.719559 
L 541.636617 384.920832 
L 542.899269 385.409428 
L 544.16192 387.607265 
L 545.424572 388.165097 
L 546.687223 388.319194 
L 547.949875 388.766433 
L 549.212527 390.955967 
L 550.475178 391.436576 
L 551.73783 391.562291 
L 553.000481 391.976721 
L 554.263133 393.942027 
L 555.525784 394.432786 
L 556.788436 394.430345 
L 558.051087 394.9338 
L 559.313739 396.931189 
L 560.576391 397.2249 
L 561.839042 397.219697 
L 563.101694 397.815632 
L 564.364345 400.273062 
L 565.626997 400.519374 
L 566.889648 400.533716 
L 568.1523 401.230718 
L 569.414952 403.43505 
L 571.940255 403.518886 
L 573.202906 404.287419 
L 574.465558 406.479816 
L 576.990861 406.499732 
L 578.253512 407.224613 
L 579.516164 408.999802 
L 582.041467 409.017891 
L 583.304119 410.001115 
L 584.56677 411.917698 
L 587.092073 411.917537 
L 588.354725 412.93224 
L 589.617377 414.599886 
L 592.14268 414.59918 
L 593.405331 415.703798 
L 594.667983 418.030098 
L 597.193286 418.031832 
L 598.455937 418.922413 
L 599.718589 421.421072 
L 602.243892 421.420254 
L 603.506544 422.339905 
L 604.769195 424.546014 
L 607.294498 424.546239 
L 608.55715 425.367883 
L 609.819802 427.775476 
L 612.345105 427.775954 
L 613.607756 428.482434 
L 614.870408 431.008165 
L 617.395711 431.007444 
L 618.658362 431.684835 
L 619.921014 433.95011 
L 622.446317 433.954215 
L 623.708969 434.421915 
L 624.97162 436.452787 
L 627.496923 436.45116 
L 628.759575 436.920032 
L 630.022227 439.364754 
L 632.54753 439.361801 
L 633.810181 439.932681 
L 635.072833 442.705413 
L 637.598136 442.705558 
L 638.860787 442.976891 
L 640.123439 445.589594 
L 642.648742 445.589522 
L 643.911394 445.98926 
L 645.174045 448.942454 
L 647.699348 448.943876 
L 648.962 449.159278 
L 650.224652 452.292389 
L 652.749955 452.295973 
L 654.012606 452.50422 
L 655.275258 455.367932 
L 657.800561 455.376969 
L 659.063212 455.498473 
L 660.325864 458.441527 
L 664.113819 458.518228 
L 665.37647 461.844395 
L 669.164425 461.921334 
L 670.427077 464.967522 
L 674.215031 464.976981 
L 675.477683 467.941247 
L 679.265637 467.941107 
L 680.528289 470.875465 
L 684.316244 470.874861 
L 685.578895 474.244212 
L 689.36685 474.244389 
L 690.629502 477.693896 
L 694.417456 477.695032 
L 695.680108 480.91617 
L 699.468062 480.916139 
L 700.730714 483.58057 
L 704.518669 483.581215 
L 705.78132 486.893684 
L 709.569275 486.894514 
L 710.831927 489.934153 
L 714.619881 489.933867 
L 715.882533 493.147185 
L 719.670487 493.149753 
L 720.933139 496.364331 
L 724.721094 496.364539 
L 725.983745 499.526316 
L 727.246397 499.525395 
L 728.509048 499.922064 
L 729.7717 499.9225 
L 731.034352 502.11034 
L 732.297003 502.108838 
L 733.559655 503.654137 
L 734.822306 503.654161 
L 736.084958 504.908437 
L 737.347609 504.908011 
L 738.610261 507.509628 
L 739.872912 507.509614 
L 741.135564 507.22323 
L 742.398216 507.223278 
L 743.660867 510.817754 
L 744.923519 510.816574 
L 746.18617 511.156733 
L 747.448822 511.157576 
L 748.711473 513.256498 
L 749.974125 513.257843 
L 751.236777 514.461515 
L 752.499428 514.462623 
L 753.76208 515.646232 
L 755.024731 515.646263 
L 756.287383 517.709045 
L 757.550034 517.709079 
L 758.812686 518.177458 
L 760.075337 518.177432 
L 761.337989 521.526415 
L 762.600641 521.526602 
L 763.863292 521.796884 
L 765.125944 521.796807 
L 766.388595 524.071325 
L 767.651247 524.072642 
L 768.913898 525.111412 
L 770.17655 525.111327 
L 771.439202 526.488079 
L 772.701853 526.487692 
L 773.964505 528.519861 
L 775.227156 528.519828 
L 776.489808 529.072884 
L 777.752459 529.073445 
L 779.015111 531.919044 
L 780.277762 531.919629 
L 781.540414 532.145534 
L 782.803066 532.144091 
L 784.065717 535.056708 
L 785.328369 535.157182 
L 787.853672 536.245919 
L 789.116323 537.486115 
L 790.378975 538.352407 
L 791.641627 538.763613 
L 792.904278 539.743645 
L 794.16693 539.663857 
L 795.429581 540.430379 
L 796.692233 542.14544 
L 797.954884 541.863974 
L 799.217536 542.865111 
L 800.480187 543.081407 
L 801.742839 544.788105 
L 803.005491 545.826145 
L 804.268142 545.838655 
L 805.530794 547.406767 
L 806.793445 546.993286 
L 808.056097 548.387843 
L 809.318748 549.996802 
L 810.5814 549.562338 
L 811.844052 550.682049 
L 813.106703 550.537801 
L 814.369355 552.682705 
L 815.632006 553.772909 
L 816.894658 553.833659 
L 818.157309 553.309665 
L 819.419961 555.710941 
L 820.682612 557.077411 
L 823.207916 557.077435 
L 824.470567 558.919468 
L 825.733219 560.182501 
L 828.258522 560.185997 
L 829.521173 561.649593 
L 830.783825 562.858092 
L 833.309128 562.858231 
L 835.834431 565.473629 
L 838.359734 565.473326 
L 840.885037 568.655506 
L 843.410341 568.656262 
L 844.672992 569.976522 
L 845.935644 571.547328 
L 848.460947 571.547124 
L 850.98625 574.446334 
L 853.511553 574.44806 
L 854.774205 575.86003 
L 856.036856 577.75767 
L 858.562159 577.757575 
L 859.824811 578.964841 
L 861.087462 581.007357 
L 863.612766 581.007732 
L 864.875417 582.011251 
L 866.138069 583.713761 
L 868.663372 583.715331 
L 869.926023 584.627979 
L 871.188675 586.976293 
L 873.713978 586.97548 
L 874.97663 587.910223 
L 876.239281 590.198293 
L 878.764584 590.197432 
L 880.027236 591.1614 
L 881.289887 593.579301 
L 883.815191 593.579586 
L 885.077842 594.327781 
L 886.340494 596.774051 
L 888.865797 596.773866 
L 890.128448 597.51699 
L 891.3911 599.862673 
L 893.916403 599.861316 
L 895.179055 600.437819 
L 896.441706 603.188563 
L 898.967009 603.188699 
L 900.229661 603.790986 
L 901.492312 606.061178 
L 904.017616 606.061274 
L 905.280267 606.540726 
L 906.542919 608.80749 
L 909.068222 608.80832 
L 910.330873 609.363451 
L 911.593525 611.534333 
L 914.118828 611.534277 
L 915.38148 611.892304 
L 916.644131 614.409925 
L 919.169434 614.408851 
L 920.432086 614.729046 
L 921.694737 617.579855 
L 924.220041 617.585096 
L 925.482692 617.808644 
L 926.745344 620.891995 
L 929.270647 620.897378 
L 930.533298 621.588511 
L 931.79595 623.854362 
L 934.321253 623.85434 
L 935.583905 624.659808 
L 936.846556 627.07057 
L 939.371859 627.069011 
L 940.634511 627.884455 
L 941.897162 630.450824 
L 944.422466 630.456022 
L 945.685117 631.260305 
L 946.947769 633.802298 
L 949.473072 633.802235 
L 950.735723 634.599251 
L 951.998375 636.681006 
L 954.523678 636.68153 
L 955.78633 637.399706 
L 957.048981 639.766119 
L 959.574284 639.767069 
L 960.836936 640.413143 
L 962.099587 642.851869 
L 964.624891 642.857171 
L 965.887542 643.497621 
L 967.150194 646.149003 
L 969.675497 646.14973 
L 970.938148 646.723187 
L 972.2008 649.30404 
L 974.726103 649.303165 
L 975.988755 649.810398 
L 977.251406 652.176588 
L 979.776709 652.177615 
L 981.039361 652.516694 
L 982.302012 655.32394 
L 984.827316 655.324111 
L 986.089967 655.679966 
L 987.352619 658.297926 
L 989.877922 658.29948 
L 991.140573 658.656814 
L 992.403225 661.442083 
L 994.928528 661.44018 
L 996.19118 661.753029 
L 997.453831 664.724989 
L 999.979134 664.724429 
L 1001.241786 664.978337 
L 1002.504437 667.713294 
L 1005.029741 667.717254 
L 1006.292392 667.935479 
L 1007.555044 670.486789 
L 1010.080347 670.495245 
L 1011.342998 670.668972 
L 1012.60565 673.704455 
L 1015.130953 673.704213 
L 1016.393605 673.847268 
L 1017.656256 676.567716 
L 1021.444211 676.623884 
L 1022.706862 679.254198 
L 1026.494817 679.259839 
L 1027.757469 681.999013 
L 1031.545423 681.999828 
L 1032.808075 684.407709 
L 1036.59603 684.410009 
L 1037.858681 686.91549 
L 1041.646636 686.919563 
L 1042.909287 689.516576 
L 1046.697242 689.518002 
L 1047.959894 691.39592 
L 1051.747848 691.39536 
L 1053.0105 693.407917 
L 1056.798455 693.407957 
L 1058.061106 695.363519 
L 1061.849061 695.363561 
L 1063.111712 696.46534 
L 1066.899667 696.461755 
L 1068.162319 697.583571 
L 1071.950273 697.58091 
L 1073.212925 698.827966 
L 1077.00088 698.826206 
L 1078.263531 699.643275 
L 1082.051486 699.644624 
L 1083.314137 700.637888 
L 1087.102092 700.638192 
L 1088.364744 701.156801 
L 1092.152698 701.157127 
L 1093.41535 700.857259 
L 1097.203305 700.861598 
L 1098.465956 701.252803 
L 1102.253911 701.251447 
L 1103.516562 702.159916 
L 1107.304517 702.158776 
L 1108.567169 702.51017 
L 1112.355123 702.521358 
L 1113.617775 702.353516 
L 1117.40573 702.357823 
L 1118.668381 702.949367 
L 1122.456336 702.963706 
L 1123.718987 703.161435 
L 1127.506942 703.163551 
L 1128.769594 703.44842 
L 1132.557548 703.449493 
L 1133.8202 703.254394 
L 1137.608155 703.255993 
L 1138.870806 703.412019 
L 1152.759973 703.468003 
L 1154.022625 703.689871 
L 1157.81058 703.690968 
L 1159.073231 703.283349 
L 1162.861186 703.284882 
L 1164.123837 703.138031 
L 1167.911792 703.138546 
L 1169.174444 702.926534 
L 1172.962398 702.927541 
L 1174.22505 703.386358 
L 1178.013005 703.383239 
L 1179.275656 703.993328 
L 1183.063611 703.992648 
L 1184.326262 703.391725 
L 1193.164823 703.339736 
L 1195.690127 703.246305 
L 1198.21543 703.246794 
L 1199.478081 703.027139 
L 1203.266036 703.025554 
L 1204.528687 703.300849 
L 1208.316642 703.305634 
L 1209.579294 703.001822 
L 1213.367248 703.000891 
L 1214.6299 703.278739 
L 1218.417855 703.279759 
L 1219.680506 704.022213 
L 1223.468461 704.018301 
L 1224.731112 703.775445 
L 1228.519067 703.779229 
L 1229.781719 703.232312 
L 1233.569673 703.231238 
L 1234.832325 703.454988 
L 1238.62028 703.45506 
L 1239.882931 703.570184 
L 1243.670886 703.56975 
L 1244.933537 703.228244 
L 1248.721492 703.230674 
L 1249.984144 703.521886 
L 1258.822705 703.531565 
L 1260.085356 703.348031 
L 1263.873311 703.345393 
L 1265.135962 703.704808 
L 1268.923917 703.704911 
L 1270.186569 703.365114 
L 1294.176948 703.325875 
L 1295.4396 703.194453 
L 1304.278161 703.191822 
L 1305.540812 702.636117 
L 1309.328767 702.639675 
L 1310.591419 702.844546 
L 1313.116722 702.844733 
L 1314.379373 702.493351 
L 1316.904677 702.493126 
L 1318.167328 703.356126 
L 1320.692631 703.356192 
L 1321.955283 703.765198 
L 1325.743237 703.782362 
L 1327.005889 703.630561 
L 1328.268541 703.629875 
L 1329.531192 703.205113 
L 1333.319147 703.246158 
L 1338.369753 703.473247 
L 1339.632405 703.806385 
L 1343.420359 703.728536 
L 1344.683011 703.945989 
L 1348.470966 703.964006 
L 1349.733617 703.629143 
L 1350.996269 703.625837 
L 1352.25892 703.841085 
L 1354.784223 703.782131 
L 1356.046875 703.660523 
L 1356.046875 703.660523 
" style="fill:none;stroke:#008000;stroke-linecap:square;stroke-width:2.0;"/>
   </g>
   <g id="patch_3">
    <path d="M 93.395313 57.917187 
L 1356.046875 57.917187 
" style="fill:none;stroke:#000000;stroke-linecap:square;stroke-linejoin:miter;"/>
   </g>
   <g id="patch_4">
    <path d="M 1356.046875 770.34375 
L 1356.046875 57.917187 
" style="fill:none;stroke:#000000;stroke-linecap:square;stroke-linejoin:miter;"/>
   </g>
   <g id="patch_5">
    <path d="M 93.395313 770.34375 
L 1356.046875 770.34375 
" style="fill:none;stroke:#000000;stroke-linecap:square;stroke-linejoin:miter;"/>
   </g>
   <g id="patch_6">
    <path d="M 93.395313 770.34375 
L 93.395313 57.917187 
" style="fill:none;stroke:#000000;stroke-linecap:square;stroke-linejoin:miter;"/>
   </g>
   <g id="matplotlib.axis_1">
    <g id="xtick_1">
     <g id="line2d_3">
      <defs>
       <path d="M 0 0 
L 0 -4 
" id="m417725eb3d" style="stroke:#000000;stroke-width:0.5;"/>
      </defs>
      <g>
       <use style="stroke:#000000;stroke-width:0.5;" x="93.3953125" xlink:href="#m417725eb3d" y="770.34375"/>
      </g>
     </g>
     <g id="line2d_4">
      <defs>
       <path d="M 0 0 
L 0 4 
" id="md8915df556" style="stroke:#000000;stroke-width:0.5;"/>
      </defs>
      <g>
       <use style="stroke:#000000;stroke-width:0.5;" x="93.3953125" xlink:href="#md8915df556" y="57.9171875"/>
      </g>
     </g>
     <g id="text_1">
      <!-- 0 -->
      <defs>
       <path d="M 31.78125 66.40625 
Q 24.171875 66.40625 20.328125 58.90625 
Q 16.5 51.421875 16.5 36.375 
Q 16.5 21.390625 20.328125 13.890625 
Q 24.171875 6.390625 31.78125 6.390625 
Q 39.453125 6.390625 43.28125 13.890625 
Q 47.125 21.390625 47.125 36.375 
Q 47.125 51.421875 43.28125 58.90625 
Q 39.453125 66.40625 31.78125 66.40625 
M 31.78125 74.21875 
Q 44.046875 74.21875 50.515625 64.515625 
Q 56.984375 54.828125 56.984375 36.375 
Q 56.984375 17.96875 50.515625 8.265625 
Q 44.046875 -1.421875 31.78125 -1.421875 
Q 19.53125 -1.421875 13.0625 8.265625 
Q 6.59375 17.96875 6.59375 36.375 
Q 6.59375 54.828125 13.0625 64.515625 
Q 19.53125 74.21875 31.78125 74.21875 
" id="BitstreamVeraSans-Roman-30"/>
      </defs>
      <g transform="translate(83.8515625 797.1390625)scale(0.3 -0.3)">
       <use xlink:href="#BitstreamVeraSans-Roman-30"/>
      </g>
     </g>
    </g>
    <g id="xtick_2">
     <g id="line2d_5">
      <g>
       <use style="stroke:#000000;stroke-width:0.5;" x="345.925625" xlink:href="#m417725eb3d" y="770.34375"/>
      </g>
     </g>
     <g id="line2d_6">
      <g>
       <use style="stroke:#000000;stroke-width:0.5;" x="345.925625" xlink:href="#md8915df556" y="57.9171875"/>
      </g>
     </g>
     <g id="text_2">
      <!-- 20000 -->
      <defs>
       <path d="M 19.1875 8.296875 
L 53.609375 8.296875 
L 53.609375 0 
L 7.328125 0 
L 7.328125 8.296875 
Q 12.9375 14.109375 22.625 23.890625 
Q 32.328125 33.6875 34.8125 36.53125 
Q 39.546875 41.84375 41.421875 45.53125 
Q 43.3125 49.21875 43.3125 52.78125 
Q 43.3125 58.59375 39.234375 62.25 
Q 35.15625 65.921875 28.609375 65.921875 
Q 23.96875 65.921875 18.8125 64.3125 
Q 13.671875 62.703125 7.8125 59.421875 
L 7.8125 69.390625 
Q 13.765625 71.78125 18.9375 73 
Q 24.125 74.21875 28.421875 74.21875 
Q 39.75 74.21875 46.484375 68.546875 
Q 53.21875 62.890625 53.21875 53.421875 
Q 53.21875 48.921875 51.53125 44.890625 
Q 49.859375 40.875 45.40625 35.40625 
Q 44.1875 33.984375 37.640625 27.21875 
Q 31.109375 20.453125 19.1875 8.296875 
" id="BitstreamVeraSans-Roman-32"/>
      </defs>
      <g transform="translate(298.206875 797.1390625)scale(0.3 -0.3)">
       <use xlink:href="#BitstreamVeraSans-Roman-32"/>
       <use x="63.623046875" xlink:href="#BitstreamVeraSans-Roman-30"/>
       <use x="127.24609375" xlink:href="#BitstreamVeraSans-Roman-30"/>
       <use x="190.869140625" xlink:href="#BitstreamVeraSans-Roman-30"/>
       <use x="254.4921875" xlink:href="#BitstreamVeraSans-Roman-30"/>
      </g>
     </g>
    </g>
    <g id="xtick_3">
     <g id="line2d_7">
      <g>
       <use style="stroke:#000000;stroke-width:0.5;" x="598.4559375" xlink:href="#m417725eb3d" y="770.34375"/>
      </g>
     </g>
     <g id="line2d_8">
      <g>
       <use style="stroke:#000000;stroke-width:0.5;" x="598.4559375" xlink:href="#md8915df556" y="57.9171875"/>
      </g>
     </g>
     <g id="text_3">
      <!-- 40000 -->
      <defs>
       <path d="M 37.796875 64.3125 
L 12.890625 25.390625 
L 37.796875 25.390625 
z
M 35.203125 72.90625 
L 47.609375 72.90625 
L 47.609375 25.390625 
L 58.015625 25.390625 
L 58.015625 17.1875 
L 47.609375 17.1875 
L 47.609375 0 
L 37.796875 0 
L 37.796875 17.1875 
L 4.890625 17.1875 
L 4.890625 26.703125 
z
" id="BitstreamVeraSans-Roman-34"/>
      </defs>
      <g transform="translate(550.7371875 797.1390625)scale(0.3 -0.3)">
       <use xlink:href="#BitstreamVeraSans-Roman-34"/>
       <use x="63.623046875" xlink:href="#BitstreamVeraSans-Roman-30"/>
       <use x="127.24609375" xlink:href="#BitstreamVeraSans-Roman-30"/>
       <use x="190.869140625" xlink:href="#BitstreamVeraSans-Roman-30"/>
       <use x="254.4921875" xlink:href="#BitstreamVeraSans-Roman-30"/>
      </g>
     </g>
    </g>
    <g id="xtick_4">
     <g id="line2d_9">
      <g>
       <use style="stroke:#000000;stroke-width:0.5;" x="850.98625" xlink:href="#m417725eb3d" y="770.34375"/>
      </g>
     </g>
     <g id="line2d_10">
      <g>
       <use style="stroke:#000000;stroke-width:0.5;" x="850.98625" xlink:href="#md8915df556" y="57.9171875"/>
      </g>
     </g>
     <g id="text_4">
      <!-- 60000 -->
      <defs>
       <path d="M 33.015625 40.375 
Q 26.375 40.375 22.484375 35.828125 
Q 18.609375 31.296875 18.609375 23.390625 
Q 18.609375 15.53125 22.484375 10.953125 
Q 26.375 6.390625 33.015625 6.390625 
Q 39.65625 6.390625 43.53125 10.953125 
Q 47.40625 15.53125 47.40625 23.390625 
Q 47.40625 31.296875 43.53125 35.828125 
Q 39.65625 40.375 33.015625 40.375 
M 52.59375 71.296875 
L 52.59375 62.3125 
Q 48.875 64.0625 45.09375 64.984375 
Q 41.3125 65.921875 37.59375 65.921875 
Q 27.828125 65.921875 22.671875 59.328125 
Q 17.53125 52.734375 16.796875 39.40625 
Q 19.671875 43.65625 24.015625 45.921875 
Q 28.375 48.1875 33.59375 48.1875 
Q 44.578125 48.1875 50.953125 41.515625 
Q 57.328125 34.859375 57.328125 23.390625 
Q 57.328125 12.15625 50.6875 5.359375 
Q 44.046875 -1.421875 33.015625 -1.421875 
Q 20.359375 -1.421875 13.671875 8.265625 
Q 6.984375 17.96875 6.984375 36.375 
Q 6.984375 53.65625 15.1875 63.9375 
Q 23.390625 74.21875 37.203125 74.21875 
Q 40.921875 74.21875 44.703125 73.484375 
Q 48.484375 72.75 52.59375 71.296875 
" id="BitstreamVeraSans-Roman-36"/>
      </defs>
      <g transform="translate(803.2675 797.1390625)scale(0.3 -0.3)">
       <use xlink:href="#BitstreamVeraSans-Roman-36"/>
       <use x="63.623046875" xlink:href="#BitstreamVeraSans-Roman-30"/>
       <use x="127.24609375" xlink:href="#BitstreamVeraSans-Roman-30"/>
       <use x="190.869140625" xlink:href="#BitstreamVeraSans-Roman-30"/>
       <use x="254.4921875" xlink:href="#BitstreamVeraSans-Roman-30"/>
      </g>
     </g>
    </g>
    <g id="xtick_5">
     <g id="line2d_11">
      <g>
       <use style="stroke:#000000;stroke-width:0.5;" x="1103.5165625" xlink:href="#m417725eb3d" y="770.34375"/>
      </g>
     </g>
     <g id="line2d_12">
      <g>
       <use style="stroke:#000000;stroke-width:0.5;" x="1103.5165625" xlink:href="#md8915df556" y="57.9171875"/>
      </g>
     </g>
     <g id="text_5">
      <!-- 80000 -->
      <defs>
       <path d="M 31.78125 34.625 
Q 24.75 34.625 20.71875 30.859375 
Q 16.703125 27.09375 16.703125 20.515625 
Q 16.703125 13.921875 20.71875 10.15625 
Q 24.75 6.390625 31.78125 6.390625 
Q 38.8125 6.390625 42.859375 10.171875 
Q 46.921875 13.96875 46.921875 20.515625 
Q 46.921875 27.09375 42.890625 30.859375 
Q 38.875 34.625 31.78125 34.625 
M 21.921875 38.8125 
Q 15.578125 40.375 12.03125 44.71875 
Q 8.5 49.078125 8.5 55.328125 
Q 8.5 64.0625 14.71875 69.140625 
Q 20.953125 74.21875 31.78125 74.21875 
Q 42.671875 74.21875 48.875 69.140625 
Q 55.078125 64.0625 55.078125 55.328125 
Q 55.078125 49.078125 51.53125 44.71875 
Q 48 40.375 41.703125 38.8125 
Q 48.828125 37.15625 52.796875 32.3125 
Q 56.78125 27.484375 56.78125 20.515625 
Q 56.78125 9.90625 50.3125 4.234375 
Q 43.84375 -1.421875 31.78125 -1.421875 
Q 19.734375 -1.421875 13.25 4.234375 
Q 6.78125 9.90625 6.78125 20.515625 
Q 6.78125 27.484375 10.78125 32.3125 
Q 14.796875 37.15625 21.921875 38.8125 
M 18.3125 54.390625 
Q 18.3125 48.734375 21.84375 45.5625 
Q 25.390625 42.390625 31.78125 42.390625 
Q 38.140625 42.390625 41.71875 45.5625 
Q 45.3125 48.734375 45.3125 54.390625 
Q 45.3125 60.0625 41.71875 63.234375 
Q 38.140625 66.40625 31.78125 66.40625 
Q 25.390625 66.40625 21.84375 63.234375 
Q 18.3125 60.0625 18.3125 54.390625 
" id="BitstreamVeraSans-Roman-38"/>
      </defs>
      <g transform="translate(1055.7978125 797.1390625)scale(0.3 -0.3)">
       <use xlink:href="#BitstreamVeraSans-Roman-38"/>
       <use x="63.623046875" xlink:href="#BitstreamVeraSans-Roman-30"/>
       <use x="127.24609375" xlink:href="#BitstreamVeraSans-Roman-30"/>
       <use x="190.869140625" xlink:href="#BitstreamVeraSans-Roman-30"/>
       <use x="254.4921875" xlink:href="#BitstreamVeraSans-Roman-30"/>
      </g>
     </g>
    </g>
    <g id="xtick_6">
     <g id="line2d_13">
      <g>
       <use style="stroke:#000000;stroke-width:0.5;" x="1356.046875" xlink:href="#m417725eb3d" y="770.34375"/>
      </g>
     </g>
     <g id="line2d_14">
      <g>
       <use style="stroke:#000000;stroke-width:0.5;" x="1356.046875" xlink:href="#md8915df556" y="57.9171875"/>
      </g>
     </g>
     <g id="text_6">
      <!-- 100000 -->
      <defs>
       <path d="M 12.40625 8.296875 
L 28.515625 8.296875 
L 28.515625 63.921875 
L 10.984375 60.40625 
L 10.984375 69.390625 
L 28.421875 72.90625 
L 38.28125 72.90625 
L 38.28125 8.296875 
L 54.390625 8.296875 
L 54.390625 0 
L 12.40625 0 
z
" id="BitstreamVeraSans-Roman-31"/>
      </defs>
      <g transform="translate(1298.784375 797.1390625)scale(0.3 -0.3)">
       <use xlink:href="#BitstreamVeraSans-Roman-31"/>
       <use x="63.623046875" xlink:href="#BitstreamVeraSans-Roman-30"/>
       <use x="127.24609375" xlink:href="#BitstreamVeraSans-Roman-30"/>
       <use x="190.869140625" xlink:href="#BitstreamVeraSans-Roman-30"/>
       <use x="254.4921875" xlink:href="#BitstreamVeraSans-Roman-30"/>
       <use x="318.115234375" xlink:href="#BitstreamVeraSans-Roman-30"/>
      </g>
     </g>
    </g>
    <g id="text_7">
     <!-- iterations -->
     <defs>
      <path d="M 54.890625 33.015625 
L 54.890625 0 
L 45.90625 0 
L 45.90625 32.71875 
Q 45.90625 40.484375 42.875 44.328125 
Q 39.84375 48.1875 33.796875 48.1875 
Q 26.515625 48.1875 22.3125 43.546875 
Q 18.109375 38.921875 18.109375 30.90625 
L 18.109375 0 
L 9.078125 0 
L 9.078125 54.6875 
L 18.109375 54.6875 
L 18.109375 46.1875 
Q 21.34375 51.125 25.703125 53.5625 
Q 30.078125 56 35.796875 56 
Q 45.21875 56 50.046875 50.171875 
Q 54.890625 44.34375 54.890625 33.015625 
" id="BitstreamVeraSans-Roman-6e"/>
      <path d="M 34.28125 27.484375 
Q 23.390625 27.484375 19.1875 25 
Q 14.984375 22.515625 14.984375 16.5 
Q 14.984375 11.71875 18.140625 8.90625 
Q 21.296875 6.109375 26.703125 6.109375 
Q 34.1875 6.109375 38.703125 11.40625 
Q 43.21875 16.703125 43.21875 25.484375 
L 43.21875 27.484375 
z
M 52.203125 31.203125 
L 52.203125 0 
L 43.21875 0 
L 43.21875 8.296875 
Q 40.140625 3.328125 35.546875 0.953125 
Q 30.953125 -1.421875 24.3125 -1.421875 
Q 15.921875 -1.421875 10.953125 3.296875 
Q 6 8.015625 6 15.921875 
Q 6 25.140625 12.171875 29.828125 
Q 18.359375 34.515625 30.609375 34.515625 
L 43.21875 34.515625 
L 43.21875 35.40625 
Q 43.21875 41.609375 39.140625 45 
Q 35.0625 48.390625 27.6875 48.390625 
Q 23 48.390625 18.546875 47.265625 
Q 14.109375 46.140625 10.015625 43.890625 
L 10.015625 52.203125 
Q 14.9375 54.109375 19.578125 55.046875 
Q 24.21875 56 28.609375 56 
Q 40.484375 56 46.34375 49.84375 
Q 52.203125 43.703125 52.203125 31.203125 
" id="BitstreamVeraSans-Roman-61"/>
      <path d="M 30.609375 48.390625 
Q 23.390625 48.390625 19.1875 42.75 
Q 14.984375 37.109375 14.984375 27.296875 
Q 14.984375 17.484375 19.15625 11.84375 
Q 23.34375 6.203125 30.609375 6.203125 
Q 37.796875 6.203125 41.984375 11.859375 
Q 46.1875 17.53125 46.1875 27.296875 
Q 46.1875 37.015625 41.984375 42.703125 
Q 37.796875 48.390625 30.609375 48.390625 
M 30.609375 56 
Q 42.328125 56 49.015625 48.375 
Q 55.71875 40.765625 55.71875 27.296875 
Q 55.71875 13.875 49.015625 6.21875 
Q 42.328125 -1.421875 30.609375 -1.421875 
Q 18.84375 -1.421875 12.171875 6.21875 
Q 5.515625 13.875 5.515625 27.296875 
Q 5.515625 40.765625 12.171875 48.375 
Q 18.84375 56 30.609375 56 
" id="BitstreamVeraSans-Roman-6f"/>
      <path d="M 9.421875 54.6875 
L 18.40625 54.6875 
L 18.40625 0 
L 9.421875 0 
z
M 9.421875 75.984375 
L 18.40625 75.984375 
L 18.40625 64.59375 
L 9.421875 64.59375 
z
" id="BitstreamVeraSans-Roman-69"/>
      <path d="M 56.203125 29.59375 
L 56.203125 25.203125 
L 14.890625 25.203125 
Q 15.484375 15.921875 20.484375 11.0625 
Q 25.484375 6.203125 34.421875 6.203125 
Q 39.59375 6.203125 44.453125 7.46875 
Q 49.3125 8.734375 54.109375 11.28125 
L 54.109375 2.78125 
Q 49.265625 0.734375 44.1875 -0.34375 
Q 39.109375 -1.421875 33.890625 -1.421875 
Q 20.796875 -1.421875 13.15625 6.1875 
Q 5.515625 13.8125 5.515625 26.8125 
Q 5.515625 40.234375 12.765625 48.109375 
Q 20.015625 56 32.328125 56 
Q 43.359375 56 49.78125 48.890625 
Q 56.203125 41.796875 56.203125 29.59375 
M 47.21875 32.234375 
Q 47.125 39.59375 43.09375 43.984375 
Q 39.0625 48.390625 32.421875 48.390625 
Q 24.90625 48.390625 20.390625 44.140625 
Q 15.875 39.890625 15.1875 32.171875 
z
" id="BitstreamVeraSans-Roman-65"/>
      <path d="M 18.3125 70.21875 
L 18.3125 54.6875 
L 36.8125 54.6875 
L 36.8125 47.703125 
L 18.3125 47.703125 
L 18.3125 18.015625 
Q 18.3125 11.328125 20.140625 9.421875 
Q 21.96875 7.515625 27.59375 7.515625 
L 36.8125 7.515625 
L 36.8125 0 
L 27.59375 0 
Q 17.1875 0 13.234375 3.875 
Q 9.28125 7.765625 9.28125 18.015625 
L 9.28125 47.703125 
L 2.6875 47.703125 
L 2.6875 54.6875 
L 9.28125 54.6875 
L 9.28125 70.21875 
z
" id="BitstreamVeraSans-Roman-74"/>
      <path d="M 41.109375 46.296875 
Q 39.59375 47.171875 37.8125 47.578125 
Q 36.03125 48 33.890625 48 
Q 26.265625 48 22.1875 43.046875 
Q 18.109375 38.09375 18.109375 28.8125 
L 18.109375 0 
L 9.078125 0 
L 9.078125 54.6875 
L 18.109375 54.6875 
L 18.109375 46.1875 
Q 20.953125 51.171875 25.484375 53.578125 
Q 30.03125 56 36.53125 56 
Q 37.453125 56 38.578125 55.875 
Q 39.703125 55.765625 41.0625 55.515625 
z
" id="BitstreamVeraSans-Roman-72"/>
      <path d="M 44.28125 53.078125 
L 44.28125 44.578125 
Q 40.484375 46.53125 36.375 47.5 
Q 32.28125 48.484375 27.875 48.484375 
Q 21.1875 48.484375 17.84375 46.4375 
Q 14.5 44.390625 14.5 40.28125 
Q 14.5 37.15625 16.890625 35.375 
Q 19.28125 33.59375 26.515625 31.984375 
L 29.59375 31.296875 
Q 39.15625 29.25 43.1875 25.515625 
Q 47.21875 21.78125 47.21875 15.09375 
Q 47.21875 7.46875 41.1875 3.015625 
Q 35.15625 -1.421875 24.609375 -1.421875 
Q 20.21875 -1.421875 15.453125 -0.5625 
Q 10.6875 0.296875 5.421875 2 
L 5.421875 11.28125 
Q 10.40625 8.6875 15.234375 7.390625 
Q 20.0625 6.109375 24.8125 6.109375 
Q 31.15625 6.109375 34.5625 8.28125 
Q 37.984375 10.453125 37.984375 14.40625 
Q 37.984375 18.0625 35.515625 20.015625 
Q 33.0625 21.96875 24.703125 23.78125 
L 21.578125 24.515625 
Q 13.234375 26.265625 9.515625 29.90625 
Q 5.8125 33.546875 5.8125 39.890625 
Q 5.8125 47.609375 11.28125 51.796875 
Q 16.75 56 26.8125 56 
Q 31.78125 56 36.171875 55.265625 
Q 40.578125 54.546875 44.28125 53.078125 
" id="BitstreamVeraSans-Roman-73"/>
     </defs>
     <g transform="translate(653.5390625 831.1734375)scale(0.3 -0.3)">
      <use xlink:href="#BitstreamVeraSans-Roman-69"/>
      <use x="27.783203125" xlink:href="#BitstreamVeraSans-Roman-74"/>
      <use x="66.9921875" xlink:href="#BitstreamVeraSans-Roman-65"/>
      <use x="128.515625" xlink:href="#BitstreamVeraSans-Roman-72"/>
      <use x="169.62890625" xlink:href="#BitstreamVeraSans-Roman-61"/>
      <use x="230.908203125" xlink:href="#BitstreamVeraSans-Roman-74"/>
      <use x="270.1171875" xlink:href="#BitstreamVeraSans-Roman-69"/>
      <use x="297.900390625" xlink:href="#BitstreamVeraSans-Roman-6f"/>
      <use x="359.08203125" xlink:href="#BitstreamVeraSans-Roman-6e"/>
      <use x="422.4609375" xlink:href="#BitstreamVeraSans-Roman-73"/>
     </g>
    </g>
   </g>
   <g id="matplotlib.axis_2">
    <g id="ytick_1">
     <g id="line2d_15">
      <defs>
       <path d="M 0 0 
L 4 0 
" id="m394570444b" style="stroke:#000000;stroke-width:0.5;"/>
      </defs>
      <g>
       <use style="stroke:#000000;stroke-width:0.5;" x="93.3953125" xlink:href="#m394570444b" y="770.34375"/>
      </g>
     </g>
     <g id="line2d_16">
      <defs>
       <path d="M 0 0 
L -4 0 
" id="m9ec8d4b09b" style="stroke:#000000;stroke-width:0.5;"/>
      </defs>
      <g>
       <use style="stroke:#000000;stroke-width:0.5;" x="1356.046875" xlink:href="#m9ec8d4b09b" y="770.34375"/>
      </g>
     </g>
     <g id="text_8">
      <!-- 60 -->
      <defs>
       <path d="M 10.59375 35.5 
L 73.1875 35.5 
L 73.1875 27.203125 
L 10.59375 27.203125 
z
" id="BitstreamVeraSans-Roman-2212"/>
      </defs>
      <g transform="translate(26.08125 778.621875)scale(0.3 -0.3)">
       <use xlink:href="#BitstreamVeraSans-Roman-2212"/>
       <use x="83.7890625" xlink:href="#BitstreamVeraSans-Roman-36"/>
       <use x="147.412109375" xlink:href="#BitstreamVeraSans-Roman-30"/>
      </g>
     </g>
    </g>
    <g id="ytick_2">
     <g id="line2d_17">
      <g>
       <use style="stroke:#000000;stroke-width:0.5;" x="93.3953125" xlink:href="#m394570444b" y="681.290429687"/>
      </g>
     </g>
     <g id="line2d_18">
      <g>
       <use style="stroke:#000000;stroke-width:0.5;" x="1356.046875" xlink:href="#m9ec8d4b09b" y="681.290429687"/>
      </g>
     </g>
     <g id="text_9">
      <!-- 50 -->
      <defs>
       <path d="M 10.796875 72.90625 
L 49.515625 72.90625 
L 49.515625 64.59375 
L 19.828125 64.59375 
L 19.828125 46.734375 
Q 21.96875 47.46875 24.109375 47.828125 
Q 26.265625 48.1875 28.421875 48.1875 
Q 40.625 48.1875 47.75 41.5 
Q 54.890625 34.8125 54.890625 23.390625 
Q 54.890625 11.625 47.5625 5.09375 
Q 40.234375 -1.421875 26.90625 -1.421875 
Q 22.3125 -1.421875 17.546875 -0.640625 
Q 12.796875 0.140625 7.71875 1.703125 
L 7.71875 11.625 
Q 12.109375 9.234375 16.796875 8.0625 
Q 21.484375 6.890625 26.703125 6.890625 
Q 35.15625 6.890625 40.078125 11.328125 
Q 45.015625 15.765625 45.015625 23.390625 
Q 45.015625 31 40.078125 35.4375 
Q 35.15625 39.890625 26.703125 39.890625 
Q 22.75 39.890625 18.8125 39.015625 
Q 14.890625 38.140625 10.796875 36.28125 
z
" id="BitstreamVeraSans-Roman-35"/>
      </defs>
      <g transform="translate(26.08125 689.568554687)scale(0.3 -0.3)">
       <use xlink:href="#BitstreamVeraSans-Roman-2212"/>
       <use x="83.7890625" xlink:href="#BitstreamVeraSans-Roman-35"/>
       <use x="147.412109375" xlink:href="#BitstreamVeraSans-Roman-30"/>
      </g>
     </g>
    </g>
    <g id="ytick_3">
     <g id="line2d_19">
      <g>
       <use style="stroke:#000000;stroke-width:0.5;" x="93.3953125" xlink:href="#m394570444b" y="592.237109375"/>
      </g>
     </g>
     <g id="line2d_20">
      <g>
       <use style="stroke:#000000;stroke-width:0.5;" x="1356.046875" xlink:href="#m9ec8d4b09b" y="592.237109375"/>
      </g>
     </g>
     <g id="text_10">
      <!-- 40 -->
      <g transform="translate(26.08125 600.515234375)scale(0.3 -0.3)">
       <use xlink:href="#BitstreamVeraSans-Roman-2212"/>
       <use x="83.7890625" xlink:href="#BitstreamVeraSans-Roman-34"/>
       <use x="147.412109375" xlink:href="#BitstreamVeraSans-Roman-30"/>
      </g>
     </g>
    </g>
    <g id="ytick_4">
     <g id="line2d_21">
      <g>
       <use style="stroke:#000000;stroke-width:0.5;" x="93.3953125" xlink:href="#m394570444b" y="503.183789062"/>
      </g>
     </g>
     <g id="line2d_22">
      <g>
       <use style="stroke:#000000;stroke-width:0.5;" x="1356.046875" xlink:href="#m9ec8d4b09b" y="503.183789062"/>
      </g>
     </g>
     <g id="text_11">
      <!-- 30 -->
      <defs>
       <path d="M 40.578125 39.3125 
Q 47.65625 37.796875 51.625 33 
Q 55.609375 28.21875 55.609375 21.1875 
Q 55.609375 10.40625 48.1875 4.484375 
Q 40.765625 -1.421875 27.09375 -1.421875 
Q 22.515625 -1.421875 17.65625 -0.515625 
Q 12.796875 0.390625 7.625 2.203125 
L 7.625 11.71875 
Q 11.71875 9.328125 16.59375 8.109375 
Q 21.484375 6.890625 26.8125 6.890625 
Q 36.078125 6.890625 40.9375 10.546875 
Q 45.796875 14.203125 45.796875 21.1875 
Q 45.796875 27.640625 41.28125 31.265625 
Q 36.765625 34.90625 28.71875 34.90625 
L 20.21875 34.90625 
L 20.21875 43.015625 
L 29.109375 43.015625 
Q 36.375 43.015625 40.234375 45.921875 
Q 44.09375 48.828125 44.09375 54.296875 
Q 44.09375 59.90625 40.109375 62.90625 
Q 36.140625 65.921875 28.71875 65.921875 
Q 24.65625 65.921875 20.015625 65.03125 
Q 15.375 64.15625 9.8125 62.3125 
L 9.8125 71.09375 
Q 15.4375 72.65625 20.34375 73.4375 
Q 25.25 74.21875 29.59375 74.21875 
Q 40.828125 74.21875 47.359375 69.109375 
Q 53.90625 64.015625 53.90625 55.328125 
Q 53.90625 49.265625 50.4375 45.09375 
Q 46.96875 40.921875 40.578125 39.3125 
" id="BitstreamVeraSans-Roman-33"/>
      </defs>
      <g transform="translate(26.08125 511.461914062)scale(0.3 -0.3)">
       <use xlink:href="#BitstreamVeraSans-Roman-2212"/>
       <use x="83.7890625" xlink:href="#BitstreamVeraSans-Roman-33"/>
       <use x="147.412109375" xlink:href="#BitstreamVeraSans-Roman-30"/>
      </g>
     </g>
    </g>
    <g id="ytick_5">
     <g id="line2d_23">
      <g>
       <use style="stroke:#000000;stroke-width:0.5;" x="93.3953125" xlink:href="#m394570444b" y="414.13046875"/>
      </g>
     </g>
     <g id="line2d_24">
      <g>
       <use style="stroke:#000000;stroke-width:0.5;" x="1356.046875" xlink:href="#m9ec8d4b09b" y="414.13046875"/>
      </g>
     </g>
     <g id="text_12">
      <!-- 20 -->
      <g transform="translate(26.08125 422.40859375)scale(0.3 -0.3)">
       <use xlink:href="#BitstreamVeraSans-Roman-2212"/>
       <use x="83.7890625" xlink:href="#BitstreamVeraSans-Roman-32"/>
       <use x="147.412109375" xlink:href="#BitstreamVeraSans-Roman-30"/>
      </g>
     </g>
    </g>
    <g id="ytick_6">
     <g id="line2d_25">
      <g>
       <use style="stroke:#000000;stroke-width:0.5;" x="93.3953125" xlink:href="#m394570444b" y="325.077148437"/>
      </g>
     </g>
     <g id="line2d_26">
      <g>
       <use style="stroke:#000000;stroke-width:0.5;" x="1356.046875" xlink:href="#m9ec8d4b09b" y="325.077148437"/>
      </g>
     </g>
     <g id="text_13">
      <!-- 10 -->
      <g transform="translate(26.08125 333.355273437)scale(0.3 -0.3)">
       <use xlink:href="#BitstreamVeraSans-Roman-2212"/>
       <use x="83.7890625" xlink:href="#BitstreamVeraSans-Roman-31"/>
       <use x="147.412109375" xlink:href="#BitstreamVeraSans-Roman-30"/>
      </g>
     </g>
    </g>
    <g id="ytick_7">
     <g id="line2d_27">
      <g>
       <use style="stroke:#000000;stroke-width:0.5;" x="93.3953125" xlink:href="#m394570444b" y="236.023828125"/>
      </g>
     </g>
     <g id="line2d_28">
      <g>
       <use style="stroke:#000000;stroke-width:0.5;" x="1356.046875" xlink:href="#m9ec8d4b09b" y="236.023828125"/>
      </g>
     </g>
     <g id="text_14">
      <!-- 0 -->
      <g transform="translate(70.3078125 244.301953125)scale(0.3 -0.3)">
       <use xlink:href="#BitstreamVeraSans-Roman-30"/>
      </g>
     </g>
    </g>
    <g id="ytick_8">
     <g id="line2d_29">
      <g>
       <use style="stroke:#000000;stroke-width:0.5;" x="93.3953125" xlink:href="#m394570444b" y="146.970507812"/>
      </g>
     </g>
     <g id="line2d_30">
      <g>
       <use style="stroke:#000000;stroke-width:0.5;" x="1356.046875" xlink:href="#m9ec8d4b09b" y="146.970507812"/>
      </g>
     </g>
     <g id="text_15">
      <!-- 10 -->
      <g transform="translate(51.2203125 155.248632812)scale(0.3 -0.3)">
       <use xlink:href="#BitstreamVeraSans-Roman-31"/>
       <use x="63.623046875" xlink:href="#BitstreamVeraSans-Roman-30"/>
      </g>
     </g>
    </g>
    <g id="ytick_9">
     <g id="line2d_31">
      <g>
       <use style="stroke:#000000;stroke-width:0.5;" x="93.3953125" xlink:href="#m394570444b" y="57.9171875"/>
      </g>
     </g>
     <g id="line2d_32">
      <g>
       <use style="stroke:#000000;stroke-width:0.5;" x="1356.046875" xlink:href="#m9ec8d4b09b" y="57.9171875"/>
      </g>
     </g>
     <g id="text_16">
      <!-- 20 -->
      <g transform="translate(51.2203125 66.1953125)scale(0.3 -0.3)">
       <use xlink:href="#BitstreamVeraSans-Roman-32"/>
       <use x="63.623046875" xlink:href="#BitstreamVeraSans-Roman-30"/>
      </g>
     </g>
    </g>
   </g>
   <g id="text_17">
    <!-- log(loss) -->
    <defs>
     <path d="M 8.015625 75.875 
L 15.828125 75.875 
Q 23.140625 64.359375 26.78125 53.3125 
Q 30.421875 42.28125 30.421875 31.390625 
Q 30.421875 20.453125 26.78125 9.375 
Q 23.140625 -1.703125 15.828125 -13.1875 
L 8.015625 -13.1875 
Q 14.5 -2 17.703125 9.0625 
Q 20.90625 20.125 20.90625 31.390625 
Q 20.90625 42.671875 17.703125 53.65625 
Q 14.5 64.65625 8.015625 75.875 
" id="BitstreamVeraSans-Roman-29"/>
     <path d="M 31 75.875 
Q 24.46875 64.65625 21.28125 53.65625 
Q 18.109375 42.671875 18.109375 31.390625 
Q 18.109375 20.125 21.3125 9.0625 
Q 24.515625 -2 31 -13.1875 
L 23.1875 -13.1875 
Q 15.875 -1.703125 12.234375 9.375 
Q 8.59375 20.453125 8.59375 31.390625 
Q 8.59375 42.28125 12.203125 53.3125 
Q 15.828125 64.359375 23.1875 75.875 
z
" id="BitstreamVeraSans-Roman-28"/>
     <path d="M 45.40625 27.984375 
Q 45.40625 37.75 41.375 43.109375 
Q 37.359375 48.484375 30.078125 48.484375 
Q 22.859375 48.484375 18.828125 43.109375 
Q 14.796875 37.75 14.796875 27.984375 
Q 14.796875 18.265625 18.828125 12.890625 
Q 22.859375 7.515625 30.078125 7.515625 
Q 37.359375 7.515625 41.375 12.890625 
Q 45.40625 18.265625 45.40625 27.984375 
M 54.390625 6.78125 
Q 54.390625 -7.171875 48.1875 -13.984375 
Q 42 -20.796875 29.203125 -20.796875 
Q 24.46875 -20.796875 20.265625 -20.09375 
Q 16.0625 -19.390625 12.109375 -17.921875 
L 12.109375 -9.1875 
Q 16.0625 -11.328125 19.921875 -12.34375 
Q 23.78125 -13.375 27.78125 -13.375 
Q 36.625 -13.375 41.015625 -8.765625 
Q 45.40625 -4.15625 45.40625 5.171875 
L 45.40625 9.625 
Q 42.625 4.78125 38.28125 2.390625 
Q 33.9375 0 27.875 0 
Q 17.828125 0 11.671875 7.65625 
Q 5.515625 15.328125 5.515625 27.984375 
Q 5.515625 40.671875 11.671875 48.328125 
Q 17.828125 56 27.875 56 
Q 33.9375 56 38.28125 53.609375 
Q 42.625 51.21875 45.40625 46.390625 
L 45.40625 54.6875 
L 54.390625 54.6875 
z
" id="BitstreamVeraSans-Roman-67"/>
     <path d="M 9.421875 75.984375 
L 18.40625 75.984375 
L 18.40625 0 
L 9.421875 0 
z
" id="BitstreamVeraSans-Roman-6c"/>
    </defs>
    <g transform="translate(661.175 52.9171875)scale(0.3 -0.3)">
     <use xlink:href="#BitstreamVeraSans-Roman-6c"/>
     <use x="27.783203125" xlink:href="#BitstreamVeraSans-Roman-6f"/>
     <use x="88.96484375" xlink:href="#BitstreamVeraSans-Roman-67"/>
     <use x="152.44140625" xlink:href="#BitstreamVeraSans-Roman-28"/>
     <use x="191.455078125" xlink:href="#BitstreamVeraSans-Roman-6c"/>
     <use x="219.23828125" xlink:href="#BitstreamVeraSans-Roman-6f"/>
     <use x="280.419921875" xlink:href="#BitstreamVeraSans-Roman-73"/>
     <use x="332.51953125" xlink:href="#BitstreamVeraSans-Roman-73"/>
     <use x="384.619140625" xlink:href="#BitstreamVeraSans-Roman-29"/>
    </g>
   </g>
   <g id="legend_1">
    <g id="patch_7">
     <path d="M 863.873437 169.985937 
L 1341.046875 169.985937 
L 1341.046875 72.917187 
L 863.873437 72.917187 
z
" style="fill:#ffffff;stroke:#000000;stroke-linejoin:miter;"/>
    </g>
    <g id="line2d_33">
     <path d="M 884.873437 97.2125 
L 926.873437 97.2125 
" style="fill:none;stroke:#0000ff;stroke-linecap:square;stroke-width:2.0;"/>
    </g>
    <g id="line2d_34"/>
    <g id="text_18">
     <!-- random: step=0.000620 -->
     <defs>
      <path id="BitstreamVeraSans-Roman-20"/>
      <path d="M 52 44.1875 
Q 55.375 50.25 60.0625 53.125 
Q 64.75 56 71.09375 56 
Q 79.640625 56 84.28125 50.015625 
Q 88.921875 44.046875 88.921875 33.015625 
L 88.921875 0 
L 79.890625 0 
L 79.890625 32.71875 
Q 79.890625 40.578125 77.09375 44.375 
Q 74.3125 48.1875 68.609375 48.1875 
Q 61.625 48.1875 57.5625 43.546875 
Q 53.515625 38.921875 53.515625 30.90625 
L 53.515625 0 
L 44.484375 0 
L 44.484375 32.71875 
Q 44.484375 40.625 41.703125 44.40625 
Q 38.921875 48.1875 33.109375 48.1875 
Q 26.21875 48.1875 22.15625 43.53125 
Q 18.109375 38.875 18.109375 30.90625 
L 18.109375 0 
L 9.078125 0 
L 9.078125 54.6875 
L 18.109375 54.6875 
L 18.109375 46.1875 
Q 21.1875 51.21875 25.484375 53.609375 
Q 29.78125 56 35.6875 56 
Q 41.65625 56 45.828125 52.96875 
Q 50 49.953125 52 44.1875 
" id="BitstreamVeraSans-Roman-6d"/>
      <path d="M 11.71875 12.40625 
L 22.015625 12.40625 
L 22.015625 0 
L 11.71875 0 
z
M 11.71875 51.703125 
L 22.015625 51.703125 
L 22.015625 39.3125 
L 11.71875 39.3125 
z
" id="BitstreamVeraSans-Roman-3a"/>
      <path d="M 10.6875 12.40625 
L 21 12.40625 
L 21 0 
L 10.6875 0 
z
" id="BitstreamVeraSans-Roman-2e"/>
      <path d="M 10.59375 45.40625 
L 73.1875 45.40625 
L 73.1875 37.203125 
L 10.59375 37.203125 
z
M 10.59375 25.484375 
L 73.1875 25.484375 
L 73.1875 17.1875 
L 10.59375 17.1875 
z
" id="BitstreamVeraSans-Roman-3d"/>
      <path d="M 45.40625 46.390625 
L 45.40625 75.984375 
L 54.390625 75.984375 
L 54.390625 0 
L 45.40625 0 
L 45.40625 8.203125 
Q 42.578125 3.328125 38.25 0.953125 
Q 33.9375 -1.421875 27.875 -1.421875 
Q 17.96875 -1.421875 11.734375 6.484375 
Q 5.515625 14.40625 5.515625 27.296875 
Q 5.515625 40.1875 11.734375 48.09375 
Q 17.96875 56 27.875 56 
Q 33.9375 56 38.25 53.625 
Q 42.578125 51.265625 45.40625 46.390625 
M 14.796875 27.296875 
Q 14.796875 17.390625 18.875 11.75 
Q 22.953125 6.109375 30.078125 6.109375 
Q 37.203125 6.109375 41.296875 11.75 
Q 45.40625 17.390625 45.40625 27.296875 
Q 45.40625 37.203125 41.296875 42.84375 
Q 37.203125 48.484375 30.078125 48.484375 
Q 22.953125 48.484375 18.875 42.84375 
Q 14.796875 37.203125 14.796875 27.296875 
" id="BitstreamVeraSans-Roman-64"/>
      <path d="M 18.109375 8.203125 
L 18.109375 -20.796875 
L 9.078125 -20.796875 
L 9.078125 54.6875 
L 18.109375 54.6875 
L 18.109375 46.390625 
Q 20.953125 51.265625 25.265625 53.625 
Q 29.59375 56 35.59375 56 
Q 45.5625 56 51.78125 48.09375 
Q 58.015625 40.1875 58.015625 27.296875 
Q 58.015625 14.40625 51.78125 6.484375 
Q 45.5625 -1.421875 35.59375 -1.421875 
Q 29.59375 -1.421875 25.265625 0.953125 
Q 20.953125 3.328125 18.109375 8.203125 
M 48.6875 27.296875 
Q 48.6875 37.203125 44.609375 42.84375 
Q 40.53125 48.484375 33.40625 48.484375 
Q 26.265625 48.484375 22.1875 42.84375 
Q 18.109375 37.203125 18.109375 27.296875 
Q 18.109375 17.390625 22.1875 11.75 
Q 26.265625 6.109375 33.40625 6.109375 
Q 40.53125 6.109375 44.609375 11.75 
Q 48.6875 17.390625 48.6875 27.296875 
" id="BitstreamVeraSans-Roman-70"/>
     </defs>
     <g transform="translate(959.8734375 107.7125)scale(0.3 -0.3)">
      <use xlink:href="#BitstreamVeraSans-Roman-72"/>
      <use x="41.11328125" xlink:href="#BitstreamVeraSans-Roman-61"/>
      <use x="102.392578125" xlink:href="#BitstreamVeraSans-Roman-6e"/>
      <use x="165.771484375" xlink:href="#BitstreamVeraSans-Roman-64"/>
      <use x="229.248046875" xlink:href="#BitstreamVeraSans-Roman-6f"/>
      <use x="290.4296875" xlink:href="#BitstreamVeraSans-Roman-6d"/>
      <use x="387.841796875" xlink:href="#BitstreamVeraSans-Roman-3a"/>
      <use x="421.533203125" xlink:href="#BitstreamVeraSans-Roman-20"/>
      <use x="453.3203125" xlink:href="#BitstreamVeraSans-Roman-73"/>
      <use x="505.419921875" xlink:href="#BitstreamVeraSans-Roman-74"/>
      <use x="544.62890625" xlink:href="#BitstreamVeraSans-Roman-65"/>
      <use x="606.15234375" xlink:href="#BitstreamVeraSans-Roman-70"/>
      <use x="669.62890625" xlink:href="#BitstreamVeraSans-Roman-3d"/>
      <use x="753.41796875" xlink:href="#BitstreamVeraSans-Roman-30"/>
      <use x="817.041015625" xlink:href="#BitstreamVeraSans-Roman-2e"/>
      <use x="848.828125" xlink:href="#BitstreamVeraSans-Roman-30"/>
      <use x="912.451171875" xlink:href="#BitstreamVeraSans-Roman-30"/>
      <use x="976.07421875" xlink:href="#BitstreamVeraSans-Roman-30"/>
      <use x="1039.69726562" xlink:href="#BitstreamVeraSans-Roman-36"/>
      <use x="1103.3203125" xlink:href="#BitstreamVeraSans-Roman-32"/>
      <use x="1166.94335938" xlink:href="#BitstreamVeraSans-Roman-30"/>
     </g>
    </g>
    <g id="line2d_35">
     <path d="M 884.873437 141.246875 
L 926.873437 141.246875 
" style="fill:none;stroke:#008000;stroke-linecap:square;stroke-width:2.0;"/>
    </g>
    <g id="line2d_36"/>
    <g id="text_19">
     <!-- corr: step=0.000620 -->
     <defs>
      <path d="M 48.78125 52.59375 
L 48.78125 44.1875 
Q 44.96875 46.296875 41.140625 47.34375 
Q 37.3125 48.390625 33.40625 48.390625 
Q 24.65625 48.390625 19.8125 42.84375 
Q 14.984375 37.3125 14.984375 27.296875 
Q 14.984375 17.28125 19.8125 11.734375 
Q 24.65625 6.203125 33.40625 6.203125 
Q 37.3125 6.203125 41.140625 7.25 
Q 44.96875 8.296875 48.78125 10.40625 
L 48.78125 2.09375 
Q 45.015625 0.34375 40.984375 -0.53125 
Q 36.96875 -1.421875 32.421875 -1.421875 
Q 20.0625 -1.421875 12.78125 6.34375 
Q 5.515625 14.109375 5.515625 27.296875 
Q 5.515625 40.671875 12.859375 48.328125 
Q 20.21875 56 33.015625 56 
Q 37.15625 56 41.109375 55.140625 
Q 45.0625 54.296875 48.78125 52.59375 
" id="BitstreamVeraSans-Roman-63"/>
     </defs>
     <g transform="translate(959.8734375 151.746875)scale(0.3 -0.3)">
      <use xlink:href="#BitstreamVeraSans-Roman-63"/>
      <use x="54.98046875" xlink:href="#BitstreamVeraSans-Roman-6f"/>
      <use x="116.162109375" xlink:href="#BitstreamVeraSans-Roman-72"/>
      <use x="157.259765625" xlink:href="#BitstreamVeraSans-Roman-72"/>
      <use x="198.357421875" xlink:href="#BitstreamVeraSans-Roman-3a"/>
      <use x="232.048828125" xlink:href="#BitstreamVeraSans-Roman-20"/>
      <use x="263.8359375" xlink:href="#BitstreamVeraSans-Roman-73"/>
      <use x="315.935546875" xlink:href="#BitstreamVeraSans-Roman-74"/>
      <use x="355.14453125" xlink:href="#BitstreamVeraSans-Roman-65"/>
      <use x="416.66796875" xlink:href="#BitstreamVeraSans-Roman-70"/>
      <use x="480.14453125" xlink:href="#BitstreamVeraSans-Roman-3d"/>
      <use x="563.93359375" xlink:href="#BitstreamVeraSans-Roman-30"/>
      <use x="627.556640625" xlink:href="#BitstreamVeraSans-Roman-2e"/>
      <use x="659.34375" xlink:href="#BitstreamVeraSans-Roman-30"/>
      <use x="722.966796875" xlink:href="#BitstreamVeraSans-Roman-30"/>
      <use x="786.58984375" xlink:href="#BitstreamVeraSans-Roman-30"/>
      <use x="850.212890625" xlink:href="#BitstreamVeraSans-Roman-36"/>
      <use x="913.8359375" xlink:href="#BitstreamVeraSans-Roman-32"/>
      <use x="977.458984375" xlink:href="#BitstreamVeraSans-Roman-30"/>
     </g>
    </g>
   </g>
  </g>
 </g>
 <defs>
  <clipPath id="pd00c412b7e">
   <rect height="712.4265625" width="1262.6515625" x="93.3953125" y="57.9171875"/>
  </clipPath>
 </defs>
</svg>
