<?xml version="1.0" encoding="utf-8" standalone="no"?>
<!DOCTYPE svg PUBLIC "-//W3C//DTD SVG 1.1//EN"
  "http://www.w3.org/Graphics/SVG/1.1/DTD/svg11.dtd">
<!-- Created with matplotlib (http://matplotlib.org/) -->
<svg height="864pt" version="1.1" viewBox="0 0 1440 864" width="1440pt" xmlns="http://www.w3.org/2000/svg" xmlns:xlink="http://www.w3.org/1999/xlink">
 <defs>
  <style type="text/css">
*{stroke-linecap:butt;stroke-linejoin:round;stroke-miterlimit:100000;}
  </style>
 </defs>
 <g id="figure_1">
  <g id="patch_1">
   <path d="M 0 864 
L 1440 864 
L 1440 0 
L 0 0 
z
" style="fill:#ffffff;"/>
  </g>
  <g id="axes_1">
   <g id="patch_2">
    <path d="M 127.0125 747 
L 1336.05 747 
L 1336.05 51.3 
L 127.0125 51.3 
z
" style="fill:#ffffff;"/>
   </g>
   <g id="line2d_1">
    <path clip-path="url(#p4bca0e9631)" d="M 128.221538 139.821417 
L 129.430575 147.602431 
L 130.639613 145.964396 
L 131.84865 147.843543 
L 133.057688 148.333796 
L 134.266725 148.399424 
L 135.475763 150.593135 
L 136.6848 181.85258 
L 137.893838 185.78611 
L 139.102875 186.02609 
L 140.311913 186.067982 
L 141.52095 190.189346 
L 142.729988 199.919446 
L 143.939025 217.899854 
L 145.148063 217.882606 
L 146.3571 217.582035 
L 147.566138 219.884896 
L 148.775175 224.648407 
L 149.984213 232.615228 
L 151.19325 253.819692 
L 152.402288 255.925786 
L 153.611325 253.804503 
L 154.820363 253.893544 
L 156.0294 217.756184 
L 157.238438 255.093311 
L 158.447475 255.376753 
L 159.656513 262.81003 
L 160.86555 272.25882 
L 162.074588 272.373901 
L 163.283625 272.316781 
L 164.492663 275.681518 
L 165.7017 288.671662 
L 166.910738 290.502572 
L 168.119775 293.16655 
L 169.328813 292.714898 
L 170.53785 296.132315 
L 171.746888 298.108319 
L 172.955925 301.684581 
L 174.164963 303.58985 
L 175.374 305.189147 
L 176.583038 307.705413 
L 177.792075 307.622001 
L 179.001113 309.611953 
L 180.21015 319.966611 
L 181.419188 324.110158 
L 182.628225 326.817624 
L 183.837263 327.253223 
L 185.0463 330.791695 
L 186.255338 330.627142 
L 187.464375 331.005045 
L 188.673413 335.116549 
L 189.88245 335.313814 
L 191.091488 335.937386 
L 192.300525 336.264593 
L 193.509563 341.545319 
L 194.7186 346.054238 
L 195.927638 355.232388 
L 197.136675 354.702321 
L 198.345713 355.286266 
L 199.55475 354.374054 
L 200.763788 354.953563 
L 201.972825 358.289201 
L 203.181863 366.290738 
L 204.3909 367.259881 
L 205.599938 368.036744 
L 206.808975 367.376816 
L 208.018012 367.266586 
L 209.22705 367.963205 
L 210.436088 370.612613 
L 211.645125 384.253402 
L 212.854163 387.21493 
L 215.272238 386.974106 
L 217.690313 386.981791 
L 218.89935 386.360002 
L 220.108387 402.013551 
L 221.317425 408.316236 
L 222.526463 408.189602 
L 223.7355 408.598258 
L 224.944538 408.598933 
L 226.153575 411.448996 
L 227.362613 411.960309 
L 228.57165 416.483406 
L 229.780687 417.779779 
L 230.989725 417.794711 
L 232.198762 417.618211 
L 233.4078 418.260658 
L 234.616838 422.21243 
L 235.825875 423.707702 
L 237.034913 428.069951 
L 239.452988 427.567703 
L 240.662025 428.930256 
L 241.871062 429.574074 
L 243.0801 420.168593 
L 244.289137 431.766744 
L 245.498175 437.106374 
L 246.707212 438.986994 
L 247.91625 439.024738 
L 249.125288 437.109355 
L 250.334325 436.245291 
L 251.543363 437.455597 
L 252.7524 439.378654 
L 253.961437 443.707043 
L 255.170475 452.567613 
L 258.797588 452.555654 
L 260.006625 453.148782 
L 261.215663 453.336082 
L 262.4247 457.708767 
L 263.633737 459.217286 
L 264.842775 459.154468 
L 266.051812 459.458123 
L 267.26085 458.774614 
L 268.469887 462.334454 
L 269.678925 459.999853 
L 270.887963 465.640037 
L 272.097 463.535793 
L 273.306038 469.43615 
L 274.515075 468.819674 
L 275.724112 471.525192 
L 276.93315 472.551526 
L 278.142187 474.181074 
L 280.560262 474.173394 
L 281.7693 480.978726 
L 282.978338 481.425319 
L 284.187375 479.996909 
L 285.396412 478.830953 
L 286.60545 478.832628 
L 287.814487 482.179768 
L 289.023525 483.78 
L 290.232562 482.502649 
L 291.4416 485.836021 
L 292.650638 485.833752 
L 295.068713 485.066339 
L 296.27775 489.683476 
L 297.486787 483.813194 
L 298.695825 489.905361 
L 301.1139 489.887808 
L 302.322937 489.801427 
L 303.531975 490.494733 
L 304.741013 489.307875 
L 305.95005 491.054696 
L 307.159087 494.341891 
L 308.368125 495.112929 
L 310.7862 495.208455 
L 311.995237 492.654033 
L 313.204275 496.835978 
L 314.413312 492.71585 
L 315.62235 493.665546 
L 316.831388 493.58023 
L 318.040425 498.620634 
L 319.249462 498.480424 
L 320.4585 502.043408 
L 321.667537 501.144459 
L 322.876575 503.242742 
L 324.085612 503.662536 
L 325.29465 503.403745 
L 326.503687 503.310552 
L 327.712725 507.190861 
L 328.921762 508.669296 
L 330.1308 509.035072 
L 331.339837 512.372785 
L 333.757912 512.364416 
L 334.96695 514.141346 
L 336.175987 514.564816 
L 337.385025 514.742756 
L 338.594062 514.733425 
L 339.8031 518.017921 
L 342.221175 518.020849 
L 343.430212 518.843547 
L 344.63925 518.287548 
L 347.057325 524.973596 
L 350.684438 524.975847 
L 351.893475 525.149591 
L 353.102512 523.304169 
L 354.31155 524.065514 
L 355.520587 522.993487 
L 356.729625 530.241486 
L 357.938662 530.247273 
L 359.1477 525.601291 
L 360.356737 525.755248 
L 361.565775 529.980255 
L 362.774812 529.737008 
L 363.98385 532.291123 
L 365.192887 532.256221 
L 366.401925 531.574819 
L 367.610962 534.516374 
L 368.82 534.756762 
L 370.029037 534.43107 
L 371.238075 536.359038 
L 372.447112 534.385581 
L 373.65615 536.674922 
L 374.865187 537.880244 
L 376.074225 538.777771 
L 377.283262 538.975723 
L 378.4923 538.980869 
L 380.910375 538.004122 
L 382.119412 543.906203 
L 383.32845 542.905018 
L 384.537487 542.954616 
L 385.746525 544.174963 
L 386.955562 544.070622 
L 388.1646 543.148404 
L 389.373637 546.414869 
L 390.582675 545.99136 
L 391.791712 546.667671 
L 393.00075 551.206723 
L 394.209788 551.05204 
L 395.418825 548.578045 
L 396.627862 548.944583 
L 397.8369 551.964136 
L 399.045937 551.504276 
L 400.254975 550.389645 
L 401.464012 550.389656 
L 402.67305 552.086585 
L 403.882087 549.136771 
L 405.091125 551.564469 
L 406.300162 553.62841 
L 407.5092 551.380537 
L 408.718237 551.719628 
L 409.927275 554.439628 
L 411.136312 555.742046 
L 412.34535 558.344612 
L 413.554387 555.768452 
L 415.972462 558.324227 
L 417.1815 555.045945 
L 418.390537 557.150073 
L 419.599575 552.974747 
L 420.808612 555.194345 
L 422.01765 552.943458 
L 423.226687 552.925496 
L 424.435725 552.682505 
L 425.644762 554.025846 
L 426.8538 556.239651 
L 428.062837 556.67903 
L 429.271875 562.958823 
L 430.480912 564.017504 
L 431.68995 563.810387 
L 432.898987 563.798805 
L 434.108025 564.74032 
L 435.317062 564.218964 
L 436.5261 562.296703 
L 437.735137 562.77382 
L 438.944175 562.694009 
L 440.153212 562.747651 
L 441.36225 562.576009 
L 442.571287 567.225894 
L 443.780325 564.842554 
L 444.989362 568.491694 
L 446.1984 569.352519 
L 447.407437 569.509648 
L 448.616475 569.470073 
L 449.825512 568.188157 
L 451.03455 572.877996 
L 452.243587 572.71695 
L 453.452625 576.549997 
L 454.661662 574.135226 
L 455.8707 573.544948 
L 457.079737 574.346042 
L 458.288775 574.647583 
L 459.497812 570.054939 
L 460.70685 570.057479 
L 461.915887 569.606422 
L 463.124925 573.220933 
L 464.333962 574.199004 
L 465.543 574.46356 
L 466.752037 574.099063 
L 467.961075 578.25533 
L 469.170112 578.443961 
L 470.37915 578.772876 
L 471.588187 577.840517 
L 472.797225 580.44805 
L 474.006262 579.720357 
L 476.424337 579.695464 
L 478.842412 584.840922 
L 480.05145 582.653221 
L 481.260487 583.115519 
L 482.469525 582.869423 
L 483.678562 583.750434 
L 484.8876 587.099949 
L 486.096637 588.778436 
L 487.305675 585.566891 
L 488.514712 586.10795 
L 489.72375 585.95641 
L 490.932787 587.458133 
L 492.141825 583.88377 
L 493.350862 584.580776 
L 494.5599 584.451904 
L 495.768937 585.830329 
L 496.977975 586.564788 
L 498.187012 588.672883 
L 499.39605 587.803738 
L 500.605087 587.287154 
L 501.814125 587.337477 
L 503.023162 590.043286 
L 504.2322 587.121886 
L 505.441237 587.456443 
L 506.650275 594.800779 
L 507.859312 594.679082 
L 509.06835 594.085456 
L 510.277387 594.155733 
L 511.486425 593.832524 
L 512.695462 593.048969 
L 513.9045 599.176649 
L 515.113537 600.871155 
L 517.531612 601.346134 
L 518.74065 601.069537 
L 519.949687 601.422582 
L 521.158725 598.838399 
L 522.367762 597.219049 
L 523.5768 600.440929 
L 524.785837 599.725303 
L 525.994875 599.872817 
L 527.203912 600.377427 
L 528.41295 599.630714 
L 529.621987 599.225316 
L 530.831025 601.058542 
L 532.040062 602.255883 
L 534.458137 601.973675 
L 535.667175 600.953512 
L 536.876212 603.629723 
L 538.08525 602.164018 
L 539.294287 600.918783 
L 540.503325 599.428746 
L 541.712362 601.424089 
L 542.9214 603.648027 
L 544.130437 603.537651 
L 545.339475 606.471607 
L 546.548512 604.345586 
L 547.75755 605.563142 
L 548.966587 604.515843 
L 550.175625 604.300225 
L 551.384662 605.117411 
L 552.5937 606.372829 
L 553.802737 604.690226 
L 555.011775 602.253184 
L 556.220812 603.277835 
L 557.42985 602.365053 
L 558.638887 603.655717 
L 559.847925 604.727973 
L 561.056962 607.08733 
L 562.266 607.593959 
L 563.475037 604.437687 
L 564.684075 609.731536 
L 565.893112 609.544386 
L 567.10215 610.009636 
L 568.311187 610.02316 
L 569.520225 608.755785 
L 570.729262 609.730121 
L 571.9383 609.626829 
L 573.147337 608.7937 
L 574.356375 609.807435 
L 575.565412 609.811491 
L 576.77445 607.384015 
L 577.983487 608.872809 
L 579.192525 608.962372 
L 580.401562 610.756902 
L 581.6106 610.790219 
L 582.819637 611.169367 
L 584.028675 616.773697 
L 585.237712 615.295863 
L 586.44675 614.197005 
L 587.655787 615.243498 
L 588.864825 615.299856 
L 590.073862 615.471452 
L 591.2829 611.791791 
L 592.491937 614.945492 
L 593.700975 616.101969 
L 594.910012 613.019524 
L 597.328087 612.99446 
L 599.746162 616.373926 
L 600.9552 615.373741 
L 602.164237 616.970028 
L 603.373275 613.896015 
L 604.582312 614.89544 
L 605.79135 618.741069 
L 607.000387 617.341941 
L 608.209425 620.601837 
L 609.418462 621.349033 
L 610.6275 620.033094 
L 611.836537 621.443357 
L 613.045575 622.462016 
L 614.254612 622.040433 
L 615.46365 622.24372 
L 616.672687 622.133804 
L 617.881725 621.211447 
L 619.090762 621.446817 
L 620.2998 622.578996 
L 621.508837 619.268337 
L 622.717875 619.376668 
L 623.926912 619.854661 
L 625.13595 623.576688 
L 626.344987 624.133899 
L 627.554025 624.027783 
L 628.763062 622.360597 
L 629.9721 620.243139 
L 631.181137 622.148471 
L 632.390175 623.634786 
L 633.599212 627.193341 
L 634.80825 625.250582 
L 637.226325 627.229323 
L 638.435362 625.120771 
L 639.6444 628.476937 
L 640.853437 628.263337 
L 643.271512 637.206088 
L 645.689587 633.134939 
L 646.898625 634.555724 
L 648.107662 635.29662 
L 649.3167 634.70068 
L 650.525737 634.37294 
L 651.734775 634.94804 
L 652.943812 635.165569 
L 654.15285 631.804147 
L 655.361887 633.093182 
L 656.570925 631.038765 
L 657.779962 630.737547 
L 658.989 630.849448 
L 661.407075 637.114802 
L 662.616112 637.319541 
L 663.82515 636.230256 
L 665.034187 636.482974 
L 666.243225 635.831529 
L 667.452262 636.479754 
L 668.6613 636.660087 
L 669.870337 637.70517 
L 671.079375 637.621857 
L 672.288412 636.501955 
L 673.49745 637.848191 
L 674.706487 637.251292 
L 675.915525 636.320197 
L 677.124562 637.430108 
L 678.3336 636.444144 
L 679.542637 640.878301 
L 680.751675 640.173765 
L 681.960712 638.020858 
L 683.16975 637.852813 
L 684.378787 637.318445 
L 685.587825 639.336811 
L 686.796862 639.733581 
L 688.0059 639.863837 
L 690.423975 635.606223 
L 691.633012 637.686958 
L 692.84205 634.451336 
L 694.051087 636.931395 
L 695.260125 641.394198 
L 696.469162 639.943896 
L 697.6782 640.513429 
L 698.887237 643.479568 
L 700.096275 641.364446 
L 701.305312 641.317241 
L 702.51435 641.88957 
L 703.723387 643.88735 
L 704.932425 644.95972 
L 706.141462 644.757841 
L 707.3505 646.811554 
L 709.768575 647.722036 
L 712.18665 646.960754 
L 713.395687 647.814002 
L 714.604725 644.411104 
L 715.813762 645.837813 
L 717.0228 645.413172 
L 718.231837 645.367346 
L 719.440875 645.803509 
L 720.649912 647.269916 
L 721.85895 650.175511 
L 723.067987 652.198972 
L 724.277025 652.532735 
L 725.486062 652.258593 
L 726.6951 652.559227 
L 727.904137 651.073715 
L 729.113175 652.448149 
L 730.322212 651.327129 
L 731.53125 655.958431 
L 733.949325 656.147807 
L 735.158362 656.035688 
L 736.3674 654.397787 
L 737.576437 653.94069 
L 738.785475 653.045818 
L 739.994512 653.769649 
L 741.20355 651.338916 
L 742.412587 651.459269 
L 743.621625 651.809721 
L 744.830662 651.322324 
L 746.0397 652.177378 
L 747.248737 652.043384 
L 748.457775 655.957821 
L 749.666812 659.045612 
L 750.87585 653.812893 
L 752.084887 653.628003 
L 753.293925 653.293868 
L 754.502962 654.63599 
L 755.712 654.812569 
L 756.921037 654.862032 
L 758.130075 654.003498 
L 759.339112 659.843747 
L 760.54815 654.889248 
L 762.966225 655.355511 
L 764.175262 656.909851 
L 765.3843 655.999297 
L 766.593337 656.105771 
L 767.802375 657.192122 
L 769.011412 653.808865 
L 770.22045 655.938551 
L 771.429487 655.942213 
L 772.638525 658.529573 
L 773.847562 659.760163 
L 775.0566 658.958989 
L 776.265637 660.215744 
L 777.474675 656.703456 
L 778.683712 656.489312 
L 781.101787 659.582116 
L 782.310825 660.251365 
L 783.519862 660.166603 
L 785.937937 662.452351 
L 787.146975 662.432388 
L 788.356012 657.226464 
L 789.56505 656.799267 
L 790.774087 660.144782 
L 791.983125 659.77986 
L 793.192162 666.720634 
L 794.4012 666.640992 
L 795.610237 666.223442 
L 796.819275 667.264941 
L 798.028312 669.443525 
L 799.23735 666.919898 
L 800.446387 669.48787 
L 801.655425 670.005692 
L 802.864462 665.893615 
L 805.282537 664.966221 
L 807.700612 662.121574 
L 808.90965 661.31306 
L 810.118687 661.370465 
L 811.327725 661.016573 
L 812.536762 664.646974 
L 813.7458 663.137556 
L 814.954837 665.528072 
L 816.163875 667.521548 
L 817.372912 667.488034 
L 818.58195 667.211765 
L 819.790987 667.610366 
L 821.000025 667.438852 
L 822.209062 667.615638 
L 823.4181 666.843514 
L 824.627137 668.303681 
L 827.045212 669.864688 
L 830.672325 669.699562 
L 831.881362 667.685786 
L 833.0904 668.607865 
L 834.299437 669.971502 
L 835.508475 670.670175 
L 836.717512 670.731802 
L 837.92655 669.899824 
L 839.135587 671.846046 
L 840.344625 672.099219 
L 841.553662 671.650566 
L 842.7627 670.52627 
L 843.971737 670.188717 
L 845.180775 670.733597 
L 846.389812 670.505005 
L 847.59885 673.673306 
L 848.807887 673.777282 
L 850.016925 673.231587 
L 851.225962 673.120285 
L 852.435 673.657187 
L 853.644037 671.94373 
L 854.853075 672.984683 
L 856.062112 670.38216 
L 857.27115 670.797176 
L 858.480187 671.04248 
L 859.689225 670.878153 
L 860.898262 670.478852 
L 862.1073 674.167599 
L 863.316337 675.566214 
L 864.525375 677.20123 
L 865.734412 676.264779 
L 866.94345 675.148387 
L 868.152487 672.231014 
L 869.361525 673.803531 
L 870.570562 677.021 
L 872.988637 677.826975 
L 874.197675 675.754627 
L 875.406712 675.187462 
L 876.61575 676.431659 
L 877.824787 676.085302 
L 879.033825 678.24573 
L 882.660937 677.545602 
L 883.869975 677.572182 
L 885.079012 679.026264 
L 886.28805 677.81043 
L 887.497087 679.083108 
L 888.706125 676.433307 
L 889.915162 674.374703 
L 891.1242 673.901248 
L 892.333237 675.0286 
L 893.542275 675.689032 
L 894.751312 678.285763 
L 895.96035 681.491731 
L 897.169387 680.593209 
L 898.378425 678.032878 
L 900.7965 677.100114 
L 902.005537 677.350018 
L 903.214575 678.61496 
L 904.423612 678.089752 
L 905.63265 679.055886 
L 906.841687 682.195392 
L 908.050725 682.822704 
L 909.259762 685.30857 
L 910.4688 686.427008 
L 911.677837 684.720531 
L 912.886875 684.095384 
L 914.095912 685.627536 
L 915.30495 681.652181 
L 916.513987 682.292735 
L 917.723025 688.256851 
L 918.932062 685.144618 
L 920.1411 684.718065 
L 921.350137 686.68916 
L 922.559175 686.705124 
L 923.768212 684.000884 
L 924.97725 681.647318 
L 926.186287 681.597304 
L 927.395325 685.688234 
L 928.604362 683.828173 
L 929.8134 684.195088 
L 931.022437 684.716673 
L 932.231475 685.737057 
L 933.440512 687.637895 
L 934.64955 683.163352 
L 935.858587 687.259016 
L 938.276662 687.233788 
L 939.4857 685.672735 
L 940.694737 685.180944 
L 941.903775 683.824296 
L 943.112812 684.378698 
L 944.32185 687.954503 
L 945.530887 691.113792 
L 946.739925 691.969477 
L 947.948962 690.543415 
L 949.158 691.172905 
L 950.367037 691.473083 
L 951.576075 690.587624 
L 952.785112 688.743547 
L 953.99415 687.973765 
L 956.412225 688.163344 
L 957.621262 687.96011 
L 958.8303 690.222499 
L 960.039337 691.259112 
L 961.248375 690.975124 
L 962.457412 688.740415 
L 963.66645 692.91642 
L 964.875487 690.435727 
L 968.5026 690.82931 
L 969.711637 693.97244 
L 970.920675 692.733987 
L 972.129712 695.477262 
L 975.756825 695.942994 
L 976.965862 696.520529 
L 978.1749 695.396753 
L 979.383937 696.841366 
L 980.592975 697.850091 
L 981.802012 695.234609 
L 983.01105 696.813845 
L 984.220087 696.688055 
L 985.429125 696.363735 
L 986.638162 690.899236 
L 987.8472 688.677607 
L 989.056237 690.226914 
L 990.265275 694.193351 
L 991.474312 694.371668 
L 992.68335 699.166464 
L 993.892387 702.22444 
L 995.101425 695.53799 
L 996.310462 696.57552 
L 997.5195 695.404597 
L 998.728537 698.651113 
L 999.937575 700.029418 
L 1001.146612 696.627376 
L 1002.35565 700.646031 
L 1003.564687 697.200328 
L 1004.773725 697.039701 
L 1005.982762 697.061663 
L 1007.1918 697.946632 
L 1008.400837 699.707848 
L 1009.609875 698.621047 
L 1010.818912 698.296449 
L 1012.02795 703.262924 
L 1013.236987 698.395135 
L 1014.446025 698.505665 
L 1015.655062 698.732583 
L 1016.8641 697.24777 
L 1018.073137 700.158607 
L 1019.282175 697.811868 
L 1020.491212 694.685562 
L 1021.70025 696.323593 
L 1022.909287 696.909989 
L 1024.118325 696.426488 
L 1025.327362 696.915395 
L 1026.5364 696.454092 
L 1028.954475 694.931403 
L 1030.163512 699.898674 
L 1031.37255 700.533898 
L 1032.581587 700.103941 
L 1033.790625 696.927839 
L 1034.999662 698.665582 
L 1036.2087 699.339218 
L 1037.417737 700.316759 
L 1038.626775 698.820212 
L 1039.835812 699.090477 
L 1041.04485 702.319449 
L 1042.253887 702.020236 
L 1043.462925 702.507866 
L 1044.671962 704.186398 
L 1045.881 703.489051 
L 1047.090037 699.583473 
L 1048.299075 704.57178 
L 1049.508112 704.354079 
L 1050.71715 707.005466 
L 1051.926187 705.005164 
L 1053.135225 701.889844 
L 1054.344262 701.923903 
L 1055.5533 701.576102 
L 1056.762337 700.568529 
L 1057.971375 699.290323 
L 1059.180412 699.463584 
L 1060.38945 699.390592 
L 1061.598487 700.879642 
L 1062.807525 701.82256 
L 1064.016562 701.450988 
L 1065.2256 706.864744 
L 1066.434637 706.911047 
L 1067.643675 707.649094 
L 1068.852712 707.687738 
L 1070.06175 710.131762 
L 1071.270787 710.457859 
L 1072.479825 711.376665 
L 1073.688862 709.78217 
L 1074.8979 713.099352 
L 1076.106937 713.904528 
L 1077.315975 713.698064 
L 1078.525012 708.682104 
L 1079.73405 706.702225 
L 1080.943087 710.837313 
L 1082.152125 710.621517 
L 1083.361162 711.054335 
L 1084.5702 710.298394 
L 1085.779237 710.312054 
L 1086.988275 709.040122 
L 1088.197312 713.521928 
L 1089.40635 713.017268 
L 1090.615387 714.427528 
L 1091.824425 714.845417 
L 1093.033462 714.904001 
L 1094.2425 715.912665 
L 1095.451537 716.217257 
L 1096.660575 712.843539 
L 1097.869612 715.222542 
L 1099.07865 716.567068 
L 1100.287687 717.129419 
L 1101.496725 714.919547 
L 1102.705762 717.469389 
L 1103.9148 715.771154 
L 1105.123837 714.936377 
L 1106.332875 710.809011 
L 1107.541912 714.249307 
L 1108.75095 713.32269 
L 1109.959987 712.909333 
L 1111.169025 714.251865 
L 1112.378062 713.113096 
L 1113.5871 712.715709 
L 1114.796137 714.236351 
L 1116.005175 713.776149 
L 1117.214212 715.372182 
L 1118.42325 717.452414 
L 1119.632287 715.735526 
L 1120.841325 717.525472 
L 1122.050362 715.45773 
L 1123.2594 715.537925 
L 1124.468437 713.876133 
L 1125.677475 714.401837 
L 1126.886512 722.703506 
L 1128.09555 714.885665 
L 1129.304587 717.798227 
L 1131.722662 710.198022 
L 1132.9317 710.179581 
L 1134.140737 709.628842 
L 1135.349775 711.264085 
L 1136.558812 708.176407 
L 1137.76785 708.815429 
L 1138.976887 708.65171 
L 1141.394962 714.208741 
L 1142.604 714.480051 
L 1143.813037 714.542015 
L 1145.022075 717.174435 
L 1146.231112 714.307237 
L 1147.44015 712.573341 
L 1148.649187 712.591029 
L 1149.858225 709.309251 
L 1151.067262 710.746114 
L 1152.2763 713.757958 
L 1153.485337 713.327334 
L 1154.694375 713.646097 
L 1155.903412 712.073464 
L 1157.11245 715.956011 
L 1158.321487 716.076848 
L 1159.530525 716.07217 
L 1160.739562 715.865245 
L 1163.157637 717.632055 
L 1164.366675 717.093112 
L 1165.575712 718.139082 
L 1166.78475 717.288217 
L 1167.993787 719.12894 
L 1169.202825 713.067043 
L 1170.411862 718.884624 
L 1171.6209 717.094313 
L 1172.829937 719.622433 
L 1174.038975 718.202597 
L 1175.248012 720.535404 
L 1176.45705 719.713515 
L 1177.666087 720.523371 
L 1178.875125 721.703225 
L 1181.2932 721.55034 
L 1182.502237 720.629119 
L 1183.711275 720.350411 
L 1184.920312 721.192225 
L 1186.12935 720.327938 
L 1187.338387 720.525401 
L 1188.547425 720.173434 
L 1189.756462 720.76449 
L 1190.9655 720.085167 
L 1192.174537 717.849945 
L 1193.383575 715.950696 
L 1194.592612 719.111952 
L 1195.80165 720.529634 
L 1197.010687 720.536751 
L 1198.219725 721.217952 
L 1199.428762 717.333229 
L 1200.6378 718.413291 
L 1201.846837 718.58625 
L 1203.055875 721.146409 
L 1204.264912 720.963457 
L 1205.47395 722.097392 
L 1206.682987 721.238139 
L 1207.892025 719.702504 
L 1209.101062 722.927887 
L 1210.3101 719.197167 
L 1211.519137 718.886091 
L 1212.728175 719.73176 
L 1213.937212 723.39213 
L 1215.14625 726.078744 
L 1216.355287 722.7288 
L 1217.564325 722.097351 
L 1218.773362 725.394617 
L 1219.9824 721.020666 
L 1221.191437 719.566706 
L 1222.400475 726.924364 
L 1223.609512 719.663408 
L 1224.81855 724.584683 
L 1226.027587 716.766067 
L 1227.236625 720.089195 
L 1228.445662 716.660202 
L 1229.6547 722.062634 
L 1230.863737 722.095012 
L 1232.072775 720.791084 
L 1233.281812 721.316012 
L 1234.49085 722.225311 
L 1235.699887 722.629346 
L 1236.908925 723.968427 
L 1238.117962 725.625777 
L 1239.327 724.128029 
L 1240.536037 724.760576 
L 1242.954112 722.785458 
L 1244.16315 723.022826 
L 1245.372187 723.772181 
L 1246.581225 723.4965 
L 1247.790262 722.892649 
L 1248.9993 724.30546 
L 1250.208337 723.999932 
L 1251.417375 725.987433 
L 1252.626412 725.679732 
L 1253.83545 727.754841 
L 1255.044487 722.488074 
L 1256.253525 722.37821 
L 1257.462562 723.730133 
L 1258.6716 723.614243 
L 1259.880637 722.811101 
L 1261.089675 719.872484 
L 1262.298712 726.186288 
L 1263.50775 721.830942 
L 1264.716787 728.969861 
L 1265.925825 728.885129 
L 1267.134862 729.283989 
L 1268.3439 727.309729 
L 1269.552937 729.016564 
L 1270.761975 726.080947 
L 1271.971012 727.942211 
L 1273.18005 730.848938 
L 1275.598125 727.772923 
L 1276.807162 728.158935 
L 1278.0162 728.093067 
L 1279.225237 727.660681 
L 1280.434275 729.609019 
L 1281.643312 727.297296 
L 1284.061387 729.653123 
L 1287.6885 728.241441 
L 1288.897537 729.069548 
L 1290.106575 725.222777 
L 1291.315612 725.592723 
L 1292.52465 725.51189 
L 1293.733687 724.31664 
L 1294.942725 723.738642 
L 1296.151762 721.865515 
L 1297.3608 720.406345 
L 1298.569837 719.5565 
L 1299.778875 718.505524 
L 1300.987912 719.278658 
L 1302.19695 718.714237 
L 1303.405987 719.428033 
L 1304.615025 719.68011 
L 1305.824062 720.312098 
L 1307.0331 718.559149 
L 1308.242137 719.144855 
L 1309.451175 719.270973 
L 1310.660212 718.379318 
L 1311.86925 716.679682 
L 1313.078287 715.993248 
L 1314.287325 715.769916 
L 1315.496362 716.092745 
L 1316.7054 715.407464 
L 1319.123475 715.502178 
L 1320.332512 714.714945 
L 1321.54155 715.029635 
L 1322.750587 714.851218 
L 1323.959625 715.159974 
L 1325.168662 714.704745 
L 1326.3777 713.087245 
L 1328.795775 713.168407 
L 1330.004812 713.568207 
L 1336.05 713.505174 
L 1336.05 713.505174 
" style="fill:none;stroke:#0000ff;stroke-linecap:square;stroke-width:2.0;"/>
   </g>
   <g id="line2d_2">
    <path clip-path="url(#p4bca0e9631)" d="M 128.221538 115.41231 
L 129.430575 115.394212 
L 130.639613 116.296385 
L 131.84865 116.556994 
L 133.057688 159.729373 
L 134.266725 159.803438 
L 135.475763 158.322679 
L 136.6848 159.696769 
L 137.893838 175.328231 
L 140.311913 175.257579 
L 141.52095 185.964785 
L 142.729988 191.629454 
L 143.939025 192.167262 
L 145.148063 193.244073 
L 146.3571 201.295154 
L 147.566138 201.364457 
L 148.775175 201.216506 
L 149.984213 213.141142 
L 151.19325 213.970681 
L 152.402288 246.636975 
L 153.611325 245.723341 
L 154.820363 246.005819 
L 157.238438 246.145544 
L 158.447475 270.326098 
L 159.656513 270.075839 
L 160.86555 272.324342 
L 164.492663 272.306508 
L 165.7017 248.181457 
L 166.910738 281.83791 
L 168.119775 282.809708 
L 169.328813 287.327878 
L 170.53785 289.936765 
L 171.746888 290.8166 
L 172.955925 294.842739 
L 174.164963 297.021751 
L 175.374 296.955725 
L 176.583038 310.71342 
L 177.792075 312.402481 
L 179.001113 310.770552 
L 180.21015 313.677938 
L 181.419188 313.271982 
L 182.628225 316.396912 
L 183.837263 320.638838 
L 185.0463 327.311696 
L 186.255338 329.009355 
L 187.464375 328.736006 
L 188.673413 326.456101 
L 189.88245 326.214573 
L 191.091488 333.233087 
L 192.300525 344.999077 
L 193.509563 344.110394 
L 194.7186 344.926116 
L 195.927638 344.60759 
L 197.136675 344.640131 
L 198.345713 353.981414 
L 199.55475 353.973847 
L 200.763788 355.363333 
L 201.972825 361.046734 
L 203.181863 365.677184 
L 204.3909 366.037832 
L 205.599938 365.664466 
L 208.018012 366.251328 
L 209.22705 368.447664 
L 210.436088 381.91915 
L 211.645125 381.633523 
L 214.0632 381.659609 
L 215.272238 382.046822 
L 216.481275 381.629285 
L 217.690313 380.455489 
L 218.89935 397.591001 
L 220.108387 399.850039 
L 221.317425 399.886202 
L 222.526463 400.187322 
L 223.7355 400.003856 
L 224.944538 399.959469 
L 226.153575 402.343446 
L 227.362613 406.859314 
L 228.57165 412.183554 
L 229.780687 412.164326 
L 232.198762 412.409015 
L 233.4078 411.975681 
L 234.616838 411.137664 
L 235.825875 418.233394 
L 237.034913 420.753854 
L 238.24395 421.522734 
L 239.452988 420.66131 
L 240.662025 420.809638 
L 241.871062 425.48177 
L 243.0801 427.251483 
L 244.289137 427.299097 
L 245.498175 429.156308 
L 246.707212 429.712424 
L 247.91625 428.714522 
L 249.125288 428.639558 
L 250.334325 432.334034 
L 251.543363 432.664537 
L 252.7524 442.485416 
L 253.961437 442.395017 
L 255.170475 441.751027 
L 256.379512 442.165707 
L 257.58855 443.934745 
L 258.797588 446.04938 
L 260.006625 445.90157 
L 261.215663 451.656383 
L 262.4247 451.474249 
L 263.633737 455.930624 
L 264.842775 455.759769 
L 266.051812 456.058168 
L 267.26085 455.965483 
L 268.469887 447.361168 
L 269.678925 455.893486 
L 270.887963 455.499383 
L 272.097 455.494884 
L 273.306038 458.670565 
L 274.515075 458.080272 
L 275.724112 458.467393 
L 276.93315 460.670379 
L 278.142187 464.776608 
L 279.351225 465.936545 
L 280.560262 466.270654 
L 281.7693 470.048372 
L 282.978338 469.785845 
L 285.396412 469.589475 
L 286.60545 473.271049 
L 289.023525 474.169533 
L 290.232562 469.85 
L 291.4416 468.759232 
L 292.650638 472.760061 
L 293.859675 469.280517 
L 295.068713 467.837964 
L 296.27775 470.557256 
L 297.486787 469.629703 
L 298.695825 470.50898 
L 299.904862 475.438154 
L 302.322937 474.35406 
L 303.531975 483.668911 
L 304.741013 485.211341 
L 305.95005 485.206265 
L 307.159087 485.459493 
L 308.368125 485.042063 
L 309.577162 490.001079 
L 310.7862 490.146665 
L 311.995237 482.45712 
L 313.204275 481.76658 
L 314.413312 484.414451 
L 315.62235 485.943842 
L 316.831388 489.312318 
L 318.040425 489.084625 
L 319.249462 490.252955 
L 320.4585 490.820482 
L 321.667537 491.05671 
L 322.876575 490.330991 
L 324.085612 493.954599 
L 325.29465 495.777462 
L 326.503687 492.552342 
L 327.712725 493.857128 
L 328.921762 493.931547 
L 330.1308 497.512187 
L 331.339837 499.317765 
L 332.548875 499.471653 
L 333.757912 498.913825 
L 334.96695 499.556062 
L 336.175987 499.445226 
L 337.385025 503.45872 
L 338.594062 503.996039 
L 339.8031 501.995439 
L 341.012137 501.063001 
L 342.221175 507.493391 
L 343.430212 507.573349 
L 344.63925 509.387986 
L 345.848287 509.669222 
L 347.057325 513.369923 
L 348.266362 512.218205 
L 349.4754 511.987456 
L 350.684438 512.037168 
L 351.893475 516.724595 
L 353.102512 516.719988 
L 354.31155 518.17847 
L 355.520587 516.815134 
L 356.729625 518.773736 
L 357.938662 518.085148 
L 359.1477 519.145779 
L 360.356737 524.131757 
L 361.565775 523.44821 
L 362.774812 523.051161 
L 363.98385 525.32005 
L 365.192887 522.062958 
L 366.401925 522.691554 
L 367.610962 520.74268 
L 368.82 520.85582 
L 370.029037 523.233086 
L 371.238075 532.748944 
L 372.447112 531.21167 
L 373.65615 531.353148 
L 374.865187 530.440893 
L 376.074225 529.202606 
L 377.283262 529.445881 
L 378.4923 531.188309 
L 379.701337 530.213599 
L 380.910375 528.974702 
L 382.119412 528.965273 
L 383.32845 528.816948 
L 384.537487 529.926055 
L 385.746525 530.670038 
L 386.955562 534.748073 
L 389.373637 534.808319 
L 390.582675 533.966564 
L 391.791712 531.826983 
L 393.00075 533.439606 
L 394.209788 532.825513 
L 395.418825 536.450233 
L 397.8369 536.469868 
L 399.045937 539.304116 
L 400.254975 540.405194 
L 405.091125 540.853033 
L 406.300162 540.768904 
L 407.5092 538.533998 
L 408.718237 544.017495 
L 409.927275 543.770084 
L 411.136312 544.665388 
L 412.34535 544.016665 
L 414.763425 544.160251 
L 415.972462 544.878022 
L 417.1815 545.116703 
L 420.808612 545.052125 
L 422.01765 543.812872 
L 423.226687 551.917522 
L 424.435725 551.941802 
L 425.644762 551.111657 
L 426.8538 551.544701 
L 428.062837 552.399312 
L 429.271875 551.114554 
L 430.480912 552.625112 
L 431.68995 556.725744 
L 432.898987 558.533999 
L 434.108025 558.622103 
L 435.317062 558.424783 
L 436.5261 559.75339 
L 437.735137 561.477475 
L 438.944175 563.763013 
L 440.153212 562.383186 
L 441.36225 561.287625 
L 442.571287 561.557068 
L 444.989362 560.55085 
L 446.1984 562.589728 
L 447.407437 562.227639 
L 448.616475 562.781696 
L 449.825512 562.972493 
L 451.03455 564.848068 
L 452.243587 567.156115 
L 453.452625 566.858111 
L 454.661662 566.310565 
L 455.8707 565.299431 
L 457.079737 567.145624 
L 458.288775 567.451234 
L 459.497812 567.120848 
L 460.70685 566.992809 
L 461.915887 563.730384 
L 463.124925 563.050076 
L 464.333962 563.373757 
L 465.543 563.386105 
L 466.752037 563.678884 
L 469.170112 563.966887 
L 470.37915 564.681435 
L 471.588187 568.187652 
L 472.797225 567.971487 
L 474.006262 567.12042 
L 476.424337 567.680572 
L 477.633375 567.166634 
L 478.842412 567.414833 
L 480.05145 569.3664 
L 481.260487 566.302253 
L 482.469525 572.186368 
L 483.678562 568.522443 
L 484.8876 568.363894 
L 486.096637 569.075497 
L 487.305675 565.708053 
L 488.514712 564.290589 
L 489.72375 569.393571 
L 490.932787 571.760566 
L 492.141825 575.222298 
L 493.350862 574.962568 
L 494.5599 575.277475 
L 495.768937 577.879872 
L 496.977975 573.634585 
L 498.187012 575.860344 
L 499.39605 574.721205 
L 500.605087 578.313674 
L 503.023162 578.376361 
L 504.2322 575.618279 
L 505.441237 578.224587 
L 507.859312 579.701431 
L 509.06835 581.606335 
L 510.277387 585.732116 
L 511.486425 586.165305 
L 512.695462 588.171972 
L 513.9045 587.11709 
L 515.113537 587.141539 
L 516.322575 585.632236 
L 517.531612 586.713397 
L 518.74065 587.190566 
L 519.949687 590.594988 
L 521.158725 590.177217 
L 522.367762 590.970418 
L 523.5768 591.121099 
L 524.785837 587.934618 
L 525.994875 590.111339 
L 527.203912 589.902667 
L 528.41295 593.573977 
L 529.621987 593.628856 
L 530.831025 588.773353 
L 532.040062 588.570701 
L 533.2491 588.008731 
L 534.458137 588.160979 
L 535.667175 585.299802 
L 536.876212 591.005111 
L 538.08525 589.922297 
L 539.294287 589.456363 
L 540.503325 589.439875 
L 541.712362 589.545208 
L 542.9214 589.513545 
L 544.130437 596.947196 
L 545.339475 596.69353 
L 546.548512 599.424759 
L 547.75755 599.439806 
L 551.384662 598.951541 
L 552.5937 595.133629 
L 553.802737 595.153938 
L 555.011775 597.928309 
L 557.42985 597.993992 
L 558.638887 596.568253 
L 559.847925 597.182391 
L 561.056962 592.561002 
L 562.266 592.190912 
L 563.475037 595.185257 
L 564.684075 594.87436 
L 565.893112 596.782218 
L 567.10215 596.80114 
L 568.311187 595.90765 
L 569.520225 596.154823 
L 570.729262 595.721507 
L 571.9383 597.499926 
L 573.147337 601.009693 
L 574.356375 600.328221 
L 575.565412 601.675966 
L 576.77445 601.593527 
L 577.983487 600.845739 
L 579.192525 601.427017 
L 580.401562 608.887677 
L 581.6106 609.504835 
L 582.819637 610.824768 
L 584.028675 610.313715 
L 585.237712 610.753354 
L 588.864825 610.715293 
L 590.073862 605.799815 
L 591.2829 604.457347 
L 592.491937 605.161717 
L 593.700975 605.00591 
L 594.910012 605.00185 
L 596.11905 604.88644 
L 597.328087 604.972784 
L 598.537125 607.181436 
L 599.746162 611.243856 
L 600.9552 611.199271 
L 602.164237 610.178863 
L 603.373275 610.044246 
L 604.582312 610.200305 
L 605.79135 610.086892 
L 607.000387 609.85264 
L 608.209425 610.535608 
L 609.418462 620.391422 
L 610.6275 621.086546 
L 611.836537 620.119517 
L 613.045575 619.692183 
L 614.254612 619.583572 
L 616.672687 619.672112 
L 617.881725 617.638406 
L 619.090762 623.724184 
L 620.2998 623.530929 
L 621.508837 623.541793 
L 622.717875 625.099855 
L 623.926912 624.237904 
L 625.13595 624.414264 
L 626.344987 622.206858 
L 627.554025 620.234871 
L 628.763062 621.285582 
L 629.9721 621.809391 
L 631.181137 620.947209 
L 632.390175 621.138216 
L 633.599212 621.54221 
L 634.80825 620.406147 
L 636.017287 620.35711 
L 637.226325 622.916643 
L 638.435362 620.133999 
L 639.6444 619.83034 
L 640.853437 620.65114 
L 643.271512 624.202218 
L 644.48055 624.328554 
L 645.689587 627.545525 
L 646.898625 631.734444 
L 648.107662 631.054433 
L 649.3167 632.096524 
L 650.525737 631.354385 
L 651.734775 629.719613 
L 652.943812 633.147792 
L 654.15285 634.046518 
L 655.361887 635.169467 
L 657.779962 635.079655 
L 658.989 633.931337 
L 660.198037 633.473791 
L 661.407075 632.145276 
L 662.616112 634.493141 
L 663.82515 634.577875 
L 665.034187 634.480755 
L 666.243225 634.505792 
L 667.452262 637.341162 
L 668.6613 634.75856 
L 671.079375 633.587671 
L 672.288412 634.073779 
L 673.49745 635.111945 
L 674.706487 633.67887 
L 675.915525 633.349436 
L 677.124562 632.010659 
L 678.3336 631.472107 
L 679.542637 631.473568 
L 680.751675 631.591377 
L 681.960712 629.27916 
L 683.16975 630.638564 
L 684.378787 630.624362 
L 685.587825 631.400291 
L 686.796862 631.636882 
L 688.0059 635.23787 
L 689.214937 636.941759 
L 690.423975 637.984151 
L 691.633012 638.441844 
L 692.84205 638.091244 
L 694.051087 638.709792 
L 695.260125 640.866535 
L 696.469162 640.544034 
L 697.6782 642.566788 
L 698.887237 641.119678 
L 700.096275 639.034908 
L 701.305312 640.480338 
L 702.51435 638.167859 
L 703.723387 637.959724 
L 704.932425 639.118215 
L 706.141462 638.81559 
L 707.3505 639.072187 
L 709.768575 638.891564 
L 710.977612 639.941734 
L 712.18665 637.863577 
L 713.395687 637.540524 
L 714.604725 637.47637 
L 715.813762 639.521088 
L 717.0228 637.138109 
L 718.231837 641.290007 
L 719.440875 641.584573 
L 720.649912 640.980537 
L 721.85895 639.819309 
L 723.067987 639.21225 
L 724.277025 642.894985 
L 725.486062 637.56255 
L 726.6951 640.00435 
L 727.904137 637.480215 
L 729.113175 637.456015 
L 730.322212 638.618074 
L 731.53125 637.490549 
L 733.949325 642.10391 
L 735.158362 641.358201 
L 736.3674 646.194637 
L 737.576437 644.176388 
L 738.785475 643.267083 
L 739.994512 644.519741 
L 741.20355 643.69037 
L 742.412587 643.853379 
L 743.621625 643.737706 
L 744.830662 643.736664 
L 746.0397 643.366824 
L 747.248737 647.331429 
L 749.666812 647.845323 
L 750.87585 646.030302 
L 752.084887 645.910715 
L 753.293925 649.954921 
L 754.502962 652.387632 
L 755.712 653.381748 
L 758.130075 652.186638 
L 759.339112 652.31851 
L 761.757187 650.874227 
L 762.966225 650.525299 
L 766.593337 650.199021 
L 767.802375 651.392944 
L 769.011412 650.305817 
L 770.22045 650.897583 
L 771.429487 651.088821 
L 772.638525 649.181266 
L 773.847562 648.931515 
L 775.0566 645.44266 
L 776.265637 646.271723 
L 777.474675 645.2566 
L 778.683712 647.283945 
L 779.89275 650.750622 
L 781.101787 650.6426 
L 782.310825 648.234517 
L 783.519862 642.805118 
L 785.937937 642.846837 
L 787.146975 644.437356 
L 789.56505 648.662966 
L 790.774087 647.768339 
L 791.983125 650.151644 
L 793.192162 653.44596 
L 794.4012 655.582498 
L 795.610237 661.740267 
L 798.028312 661.697661 
L 799.23735 661.294885 
L 800.446387 661.639778 
L 801.655425 661.293296 
L 802.864462 663.505642 
L 804.0735 664.963429 
L 805.282537 663.969111 
L 806.491575 660.485542 
L 810.118687 660.1876 
L 811.327725 662.437177 
L 812.536762 662.091642 
L 813.7458 665.428947 
L 816.163875 665.544852 
L 817.372912 664.98778 
L 818.58195 662.803269 
L 819.790987 660.990789 
L 821.000025 660.499505 
L 822.209062 662.949753 
L 823.4181 663.520835 
L 824.627137 663.021141 
L 825.836175 662.839292 
L 827.045212 663.152868 
L 828.25425 661.755963 
L 830.672325 661.946679 
L 831.881362 661.094537 
L 833.0904 662.433621 
L 834.299437 662.808414 
L 835.508475 665.64986 
L 836.717512 666.799104 
L 837.92655 668.842703 
L 840.344625 667.819462 
L 842.7627 663.813878 
L 843.971737 660.181337 
L 845.180775 661.698741 
L 846.389812 661.413125 
L 848.807887 661.357278 
L 850.016925 660.573802 
L 851.225962 665.450783 
L 852.435 662.764263 
L 853.644037 663.185129 
L 854.853075 662.523518 
L 857.27115 665.206255 
L 858.480187 663.059226 
L 859.689225 664.884157 
L 860.898262 663.946674 
L 862.1073 664.595861 
L 863.316337 664.886555 
L 864.525375 664.655708 
L 865.734412 666.324041 
L 866.94345 668.766814 
L 868.152487 665.005375 
L 869.361525 664.294404 
L 871.7796 661.700948 
L 872.988637 665.343091 
L 875.406712 668.980769 
L 876.61575 669.785861 
L 877.824787 668.0146 
L 879.033825 668.903302 
L 880.242862 670.106522 
L 881.4519 671.105413 
L 882.660937 671.049847 
L 883.869975 672.262396 
L 885.079012 672.756011 
L 886.28805 673.738144 
L 887.497087 672.162642 
L 888.706125 673.804794 
L 889.915162 672.570975 
L 891.1242 672.1492 
L 892.333237 670.445819 
L 893.542275 672.250122 
L 894.751312 671.408386 
L 895.96035 672.018832 
L 897.169387 679.317749 
L 898.378425 674.363749 
L 899.587462 674.649913 
L 900.7965 674.352021 
L 902.005537 674.817791 
L 903.214575 674.785911 
L 904.423612 677.422678 
L 905.63265 678.762515 
L 906.841687 678.709241 
L 908.050725 679.116694 
L 909.259762 678.943393 
L 910.4688 679.116459 
L 911.677837 679.109282 
L 912.886875 681.259239 
L 914.095912 677.358759 
L 915.30495 677.885087 
L 916.513987 677.558516 
L 918.932062 677.549983 
L 920.1411 678.022147 
L 921.350137 685.711809 
L 922.559175 685.850135 
L 923.768212 681.923065 
L 924.97725 681.723038 
L 926.186287 680.418604 
L 927.395325 679.36867 
L 928.604362 680.384507 
L 929.8134 682.280292 
L 931.022437 681.914952 
L 932.231475 682.342097 
L 933.440512 681.946861 
L 935.858587 684.076751 
L 937.067625 681.003145 
L 938.276662 687.568757 
L 939.4857 689.473835 
L 940.694737 690.552896 
L 941.903775 689.466033 
L 943.112812 690.756642 
L 944.32185 688.625893 
L 945.530887 689.369037 
L 946.739925 685.979 
L 947.948962 687.151627 
L 950.367037 687.338936 
L 951.576075 689.604713 
L 952.785112 689.453321 
L 953.99415 686.477206 
L 955.203187 678.876856 
L 956.412225 679.364007 
L 957.621262 679.024325 
L 958.8303 679.066586 
L 960.039337 682.790801 
L 961.248375 687.387111 
L 962.457412 687.051754 
L 963.66645 685.946667 
L 964.875487 685.522644 
L 966.084525 685.299838 
L 967.293562 685.209966 
L 968.5026 683.734748 
L 969.711637 684.813256 
L 970.920675 687.06049 
L 972.129712 687.619768 
L 973.33875 687.778925 
L 974.547787 687.301713 
L 975.756825 687.087357 
L 976.965862 689.657625 
L 978.1749 685.9763 
L 979.383937 687.729716 
L 980.592975 686.276931 
L 981.802012 687.019881 
L 984.220087 686.73414 
L 985.429125 684.851644 
L 986.638162 686.639408 
L 987.8472 690.688758 
L 989.056237 688.562114 
L 990.265275 688.745612 
L 991.474312 688.170553 
L 992.68335 688.787138 
L 993.892387 687.815787 
L 995.101425 689.015026 
L 996.310462 687.972182 
L 997.5195 693.485727 
L 998.728537 694.501136 
L 999.937575 695.700554 
L 1001.146612 695.960403 
L 1002.35565 695.199613 
L 1003.564687 693.478147 
L 1004.773725 693.381011 
L 1005.982762 694.902389 
L 1007.1918 701.155425 
L 1008.400837 701.88332 
L 1009.609875 700.756848 
L 1010.818912 698.744413 
L 1012.02795 698.909689 
L 1013.236987 698.840104 
L 1014.446025 696.391905 
L 1015.655062 695.961354 
L 1016.8641 697.03436 
L 1018.073137 694.730189 
L 1019.282175 696.090656 
L 1020.491212 693.759766 
L 1021.70025 693.593708 
L 1022.909287 695.580346 
L 1024.118325 695.560184 
L 1025.327362 695.345933 
L 1026.5364 695.51042 
L 1027.745437 695.466649 
L 1028.954475 697.679732 
L 1030.163512 698.096822 
L 1031.37255 691.079102 
L 1032.581587 690.689373 
L 1033.790625 690.698872 
L 1034.999662 690.866011 
L 1036.2087 690.792694 
L 1037.417737 691.104242 
L 1039.835812 691.104242 
L 1041.04485 697.36926 
L 1042.253887 697.685866 
L 1043.462925 697.32636 
L 1044.671962 697.298219 
L 1045.881 699.262374 
L 1047.090037 696.893549 
L 1048.299075 696.683181 
L 1049.508112 699.118668 
L 1050.71715 698.723864 
L 1051.926187 698.800478 
L 1053.135225 698.454573 
L 1055.5533 698.30972 
L 1056.762337 699.522777 
L 1057.971375 694.643765 
L 1059.180412 695.817663 
L 1060.38945 694.735877 
L 1061.598487 695.459089 
L 1062.807525 695.107019 
L 1064.016562 695.831538 
L 1065.2256 696.282885 
L 1066.434637 696.171451 
L 1067.643675 700.078938 
L 1068.852712 698.952185 
L 1070.06175 694.480248 
L 1072.479825 695.691003 
L 1073.688862 696.545292 
L 1074.8979 699.202388 
L 1076.106937 695.188241 
L 1077.315975 695.612092 
L 1078.525012 696.793137 
L 1079.73405 695.194615 
L 1080.943087 696.387197 
L 1082.152125 692.613819 
L 1083.361162 691.071891 
L 1084.5702 693.702408 
L 1085.779237 693.538954 
L 1086.988275 692.01875 
L 1088.197312 696.44938 
L 1089.40635 696.273997 
L 1090.615387 700.642914 
L 1091.824425 701.011026 
L 1093.033462 699.489231 
L 1094.2425 700.512751 
L 1095.451537 700.229938 
L 1096.660575 700.812709 
L 1097.869612 701.078474 
L 1099.07865 700.67572 
L 1100.287687 706.050062 
L 1101.496725 706.629899 
L 1102.705762 705.838563 
L 1103.9148 707.592601 
L 1105.123837 707.597737 
L 1106.332875 705.622078 
L 1107.541912 705.413688 
L 1108.75095 706.545585 
L 1109.959987 706.539897 
L 1111.169025 705.466889 
L 1112.378062 708.025492 
L 1113.5871 708.471727 
L 1114.796137 709.223397 
L 1116.005175 709.201853 
L 1117.214212 709.748184 
L 1118.42325 709.629156 
L 1119.632287 708.849293 
L 1120.841325 707.383688 
L 1122.050362 705.120734 
L 1123.2594 706.371564 
L 1124.468437 706.268352 
L 1125.677475 705.400858 
L 1126.886512 705.675033 
L 1128.09555 705.429637 
L 1129.304587 710.006449 
L 1130.513625 709.515054 
L 1131.722662 709.572873 
L 1132.9317 708.289588 
L 1134.140737 708.56914 
L 1135.349775 709.078089 
L 1136.558812 713.819705 
L 1137.76785 712.650434 
L 1138.976887 710.785718 
L 1140.185925 710.993966 
L 1141.394962 709.818518 
L 1142.604 710.963342 
L 1143.813037 710.813887 
L 1145.022075 712.517503 
L 1146.231112 712.327144 
L 1147.44015 711.550355 
L 1148.649187 710.190274 
L 1152.2763 710.493174 
L 1153.485337 712.702063 
L 1154.694375 712.908322 
L 1155.903412 712.601679 
L 1157.11245 710.353913 
L 1158.321487 710.379606 
L 1159.530525 714.743445 
L 1160.739562 712.814894 
L 1161.9486 713.752773 
L 1163.157637 713.815613 
L 1164.366675 716.898228 
L 1165.575712 713.305439 
L 1166.78475 713.308396 
L 1167.993787 714.059698 
L 1169.202825 712.978537 
L 1170.411862 713.000431 
L 1171.6209 712.7411 
L 1172.829937 715.64817 
L 1175.248012 717.44431 
L 1176.45705 717.995307 
L 1177.666087 713.193947 
L 1178.875125 714.019786 
L 1180.084162 713.246663 
L 1181.2932 712.915445 
L 1182.502237 713.078362 
L 1183.711275 712.51811 
L 1184.920312 714.96726 
L 1186.12935 713.175847 
L 1187.338387 713.870451 
L 1188.547425 713.9814 
L 1189.756462 714.314806 
L 1190.9655 715.030543 
L 1192.174537 716.744478 
L 1193.383575 715.526824 
L 1194.592612 717.783158 
L 1195.80165 718.538925 
L 1197.010687 717.860239 
L 1198.219725 718.070438 
L 1199.428762 717.355958 
L 1200.6378 717.022095 
L 1201.846837 715.637705 
L 1203.055875 711.763243 
L 1204.264912 715.929827 
L 1205.47395 714.763539 
L 1206.682987 715.133505 
L 1207.892025 718.965038 
L 1209.101062 720.828071 
L 1210.3101 719.264228 
L 1211.519137 719.271913 
L 1212.728175 722.643499 
L 1213.937212 723.154075 
L 1215.14625 723.157206 
L 1216.355287 722.772884 
L 1217.564325 721.559172 
L 1218.773362 721.246894 
L 1219.9824 719.342256 
L 1221.191437 716.964696 
L 1222.400475 716.954982 
L 1223.609512 718.140407 
L 1224.81855 717.728246 
L 1226.027587 720.577741 
L 1227.236625 721.633046 
L 1228.445662 721.575922 
L 1229.6547 721.359084 
L 1230.863737 722.69171 
L 1232.072775 722.695152 
L 1233.281812 723.567262 
L 1234.49085 723.340437 
L 1235.699887 721.354176 
L 1236.908925 721.810477 
L 1238.117962 722.019271 
L 1239.327 719.942628 
L 1240.536037 720.250732 
L 1242.954112 718.356923 
L 1244.16315 718.454637 
L 1245.372187 717.966867 
L 1246.581225 718.373912 
L 1247.790262 718.19969 
L 1248.9993 718.890372 
L 1250.208337 718.454804 
L 1251.417375 717.168063 
L 1252.626412 718.007644 
L 1253.83545 717.969201 
L 1255.044487 716.476097 
L 1256.253525 719.212207 
L 1257.462562 714.232635 
L 1258.6716 714.337499 
L 1259.880637 714.155801 
L 1261.089675 714.276023 
L 1262.298712 713.629794 
L 1263.50775 714.275578 
L 1264.716787 712.90803 
L 1265.925825 714.034157 
L 1267.134862 714.076517 
L 1268.3439 713.802665 
L 1269.552937 714.136326 
L 1270.761975 713.798749 
L 1271.971012 713.804572 
L 1273.18005 710.237627 
L 1274.389087 710.457206 
L 1275.598125 710.46874 
L 1276.807162 710.256012 
L 1279.225237 710.555406 
L 1280.434275 708.534745 
L 1281.643312 708.728586 
L 1284.061387 708.767091 
L 1285.270425 708.875866 
L 1290.106575 708.835232 
L 1291.315612 709.010755 
L 1293.733687 708.972146 
L 1294.942725 707.920033 
L 1298.569837 707.944102 
L 1299.778875 706.239 
L 1303.405987 706.25151 
L 1304.615025 705.022838 
L 1305.824062 705.022443 
L 1308.242137 704.625468 
L 1309.451175 704.634446 
L 1310.660212 704.337495 
L 1311.86925 704.260684 
L 1314.287325 704.40778 
L 1315.496362 703.995741 
L 1317.914437 703.98114 
L 1319.123475 703.677055 
L 1321.54155 703.718559 
L 1323.959625 703.605937 
L 1325.168662 703.600954 
L 1326.3777 703.231943 
L 1327.586737 703.231822 
L 1330.004812 703.452361 
L 1331.21385 703.327475 
L 1334.840962 703.357858 
L 1336.05 703.357367 
L 1336.05 703.357367 
" style="fill:none;stroke:#008000;stroke-linecap:square;stroke-width:2.0;"/>
   </g>
   <g id="patch_3">
    <path d="M 127.0125 51.3 
L 1336.05 51.3 
" style="fill:none;stroke:#000000;stroke-linecap:square;stroke-linejoin:miter;"/>
   </g>
   <g id="patch_4">
    <path d="M 1336.05 747 
L 1336.05 51.3 
" style="fill:none;stroke:#000000;stroke-linecap:square;stroke-linejoin:miter;"/>
   </g>
   <g id="patch_5">
    <path d="M 127.0125 747 
L 1336.05 747 
" style="fill:none;stroke:#000000;stroke-linecap:square;stroke-linejoin:miter;"/>
   </g>
   <g id="patch_6">
    <path d="M 127.0125 747 
L 127.0125 51.3 
" style="fill:none;stroke:#000000;stroke-linecap:square;stroke-linejoin:miter;"/>
   </g>
   <g id="matplotlib.axis_1">
    <g id="xtick_1">
     <g id="line2d_3">
      <defs>
       <path d="M 0 0 
L 0 -4 
" id="md11966c26e" style="stroke:#000000;stroke-width:0.5;"/>
      </defs>
      <g>
       <use style="stroke:#000000;stroke-width:0.5;" x="127.0125" xlink:href="#md11966c26e" y="747.0"/>
      </g>
     </g>
     <g id="line2d_4">
      <defs>
       <path d="M 0 0 
L 0 4 
" id="m2e6ce15fbc" style="stroke:#000000;stroke-width:0.5;"/>
      </defs>
      <g>
       <use style="stroke:#000000;stroke-width:0.5;" x="127.0125" xlink:href="#m2e6ce15fbc" y="51.3"/>
      </g>
     </g>
     <g id="text_1">
      <!-- 0 -->
      <defs>
       <path d="M 31.78125 66.40625 
Q 24.171875 66.40625 20.328125 58.90625 
Q 16.5 51.421875 16.5 36.375 
Q 16.5 21.390625 20.328125 13.890625 
Q 24.171875 6.390625 31.78125 6.390625 
Q 39.453125 6.390625 43.28125 13.890625 
Q 47.125 21.390625 47.125 36.375 
Q 47.125 51.421875 43.28125 58.90625 
Q 39.453125 66.40625 31.78125 66.40625 
M 31.78125 74.21875 
Q 44.046875 74.21875 50.515625 64.515625 
Q 56.984375 54.828125 56.984375 36.375 
Q 56.984375 17.96875 50.515625 8.265625 
Q 44.046875 -1.421875 31.78125 -1.421875 
Q 19.53125 -1.421875 13.0625 8.265625 
Q 6.59375 17.96875 6.59375 36.375 
Q 6.59375 54.828125 13.0625 64.515625 
Q 19.53125 74.21875 31.78125 74.21875 
" id="BitstreamVeraSans-Roman-30"/>
      </defs>
      <g transform="translate(117.46875 773.7953125)scale(0.3 -0.3)">
       <use xlink:href="#BitstreamVeraSans-Roman-30"/>
      </g>
     </g>
    </g>
    <g id="xtick_2">
     <g id="line2d_5">
      <g>
       <use style="stroke:#000000;stroke-width:0.5;" x="368.82" xlink:href="#md11966c26e" y="747.0"/>
      </g>
     </g>
     <g id="line2d_6">
      <g>
       <use style="stroke:#000000;stroke-width:0.5;" x="368.82" xlink:href="#m2e6ce15fbc" y="51.3"/>
      </g>
     </g>
     <g id="text_2">
      <!-- 20000 -->
      <defs>
       <path d="M 19.1875 8.296875 
L 53.609375 8.296875 
L 53.609375 0 
L 7.328125 0 
L 7.328125 8.296875 
Q 12.9375 14.109375 22.625 23.890625 
Q 32.328125 33.6875 34.8125 36.53125 
Q 39.546875 41.84375 41.421875 45.53125 
Q 43.3125 49.21875 43.3125 52.78125 
Q 43.3125 58.59375 39.234375 62.25 
Q 35.15625 65.921875 28.609375 65.921875 
Q 23.96875 65.921875 18.8125 64.3125 
Q 13.671875 62.703125 7.8125 59.421875 
L 7.8125 69.390625 
Q 13.765625 71.78125 18.9375 73 
Q 24.125 74.21875 28.421875 74.21875 
Q 39.75 74.21875 46.484375 68.546875 
Q 53.21875 62.890625 53.21875 53.421875 
Q 53.21875 48.921875 51.53125 44.890625 
Q 49.859375 40.875 45.40625 35.40625 
Q 44.1875 33.984375 37.640625 27.21875 
Q 31.109375 20.453125 19.1875 8.296875 
" id="BitstreamVeraSans-Roman-32"/>
      </defs>
      <g transform="translate(321.10125 773.7953125)scale(0.3 -0.3)">
       <use xlink:href="#BitstreamVeraSans-Roman-32"/>
       <use x="63.623046875" xlink:href="#BitstreamVeraSans-Roman-30"/>
       <use x="127.24609375" xlink:href="#BitstreamVeraSans-Roman-30"/>
       <use x="190.869140625" xlink:href="#BitstreamVeraSans-Roman-30"/>
       <use x="254.4921875" xlink:href="#BitstreamVeraSans-Roman-30"/>
      </g>
     </g>
    </g>
    <g id="xtick_3">
     <g id="line2d_7">
      <g>
       <use style="stroke:#000000;stroke-width:0.5;" x="610.6275" xlink:href="#md11966c26e" y="747.0"/>
      </g>
     </g>
     <g id="line2d_8">
      <g>
       <use style="stroke:#000000;stroke-width:0.5;" x="610.6275" xlink:href="#m2e6ce15fbc" y="51.3"/>
      </g>
     </g>
     <g id="text_3">
      <!-- 40000 -->
      <defs>
       <path d="M 37.796875 64.3125 
L 12.890625 25.390625 
L 37.796875 25.390625 
z
M 35.203125 72.90625 
L 47.609375 72.90625 
L 47.609375 25.390625 
L 58.015625 25.390625 
L 58.015625 17.1875 
L 47.609375 17.1875 
L 47.609375 0 
L 37.796875 0 
L 37.796875 17.1875 
L 4.890625 17.1875 
L 4.890625 26.703125 
z
" id="BitstreamVeraSans-Roman-34"/>
      </defs>
      <g transform="translate(562.90875 773.7953125)scale(0.3 -0.3)">
       <use xlink:href="#BitstreamVeraSans-Roman-34"/>
       <use x="63.623046875" xlink:href="#BitstreamVeraSans-Roman-30"/>
       <use x="127.24609375" xlink:href="#BitstreamVeraSans-Roman-30"/>
       <use x="190.869140625" xlink:href="#BitstreamVeraSans-Roman-30"/>
       <use x="254.4921875" xlink:href="#BitstreamVeraSans-Roman-30"/>
      </g>
     </g>
    </g>
    <g id="xtick_4">
     <g id="line2d_9">
      <g>
       <use style="stroke:#000000;stroke-width:0.5;" x="852.435" xlink:href="#md11966c26e" y="747.0"/>
      </g>
     </g>
     <g id="line2d_10">
      <g>
       <use style="stroke:#000000;stroke-width:0.5;" x="852.435" xlink:href="#m2e6ce15fbc" y="51.3"/>
      </g>
     </g>
     <g id="text_4">
      <!-- 60000 -->
      <defs>
       <path d="M 33.015625 40.375 
Q 26.375 40.375 22.484375 35.828125 
Q 18.609375 31.296875 18.609375 23.390625 
Q 18.609375 15.53125 22.484375 10.953125 
Q 26.375 6.390625 33.015625 6.390625 
Q 39.65625 6.390625 43.53125 10.953125 
Q 47.40625 15.53125 47.40625 23.390625 
Q 47.40625 31.296875 43.53125 35.828125 
Q 39.65625 40.375 33.015625 40.375 
M 52.59375 71.296875 
L 52.59375 62.3125 
Q 48.875 64.0625 45.09375 64.984375 
Q 41.3125 65.921875 37.59375 65.921875 
Q 27.828125 65.921875 22.671875 59.328125 
Q 17.53125 52.734375 16.796875 39.40625 
Q 19.671875 43.65625 24.015625 45.921875 
Q 28.375 48.1875 33.59375 48.1875 
Q 44.578125 48.1875 50.953125 41.515625 
Q 57.328125 34.859375 57.328125 23.390625 
Q 57.328125 12.15625 50.6875 5.359375 
Q 44.046875 -1.421875 33.015625 -1.421875 
Q 20.359375 -1.421875 13.671875 8.265625 
Q 6.984375 17.96875 6.984375 36.375 
Q 6.984375 53.65625 15.1875 63.9375 
Q 23.390625 74.21875 37.203125 74.21875 
Q 40.921875 74.21875 44.703125 73.484375 
Q 48.484375 72.75 52.59375 71.296875 
" id="BitstreamVeraSans-Roman-36"/>
      </defs>
      <g transform="translate(804.71625 773.7953125)scale(0.3 -0.3)">
       <use xlink:href="#BitstreamVeraSans-Roman-36"/>
       <use x="63.623046875" xlink:href="#BitstreamVeraSans-Roman-30"/>
       <use x="127.24609375" xlink:href="#BitstreamVeraSans-Roman-30"/>
       <use x="190.869140625" xlink:href="#BitstreamVeraSans-Roman-30"/>
       <use x="254.4921875" xlink:href="#BitstreamVeraSans-Roman-30"/>
      </g>
     </g>
    </g>
    <g id="xtick_5">
     <g id="line2d_11">
      <g>
       <use style="stroke:#000000;stroke-width:0.5;" x="1094.2425" xlink:href="#md11966c26e" y="747.0"/>
      </g>
     </g>
     <g id="line2d_12">
      <g>
       <use style="stroke:#000000;stroke-width:0.5;" x="1094.2425" xlink:href="#m2e6ce15fbc" y="51.3"/>
      </g>
     </g>
     <g id="text_5">
      <!-- 80000 -->
      <defs>
       <path d="M 31.78125 34.625 
Q 24.75 34.625 20.71875 30.859375 
Q 16.703125 27.09375 16.703125 20.515625 
Q 16.703125 13.921875 20.71875 10.15625 
Q 24.75 6.390625 31.78125 6.390625 
Q 38.8125 6.390625 42.859375 10.171875 
Q 46.921875 13.96875 46.921875 20.515625 
Q 46.921875 27.09375 42.890625 30.859375 
Q 38.875 34.625 31.78125 34.625 
M 21.921875 38.8125 
Q 15.578125 40.375 12.03125 44.71875 
Q 8.5 49.078125 8.5 55.328125 
Q 8.5 64.0625 14.71875 69.140625 
Q 20.953125 74.21875 31.78125 74.21875 
Q 42.671875 74.21875 48.875 69.140625 
Q 55.078125 64.0625 55.078125 55.328125 
Q 55.078125 49.078125 51.53125 44.71875 
Q 48 40.375 41.703125 38.8125 
Q 48.828125 37.15625 52.796875 32.3125 
Q 56.78125 27.484375 56.78125 20.515625 
Q 56.78125 9.90625 50.3125 4.234375 
Q 43.84375 -1.421875 31.78125 -1.421875 
Q 19.734375 -1.421875 13.25 4.234375 
Q 6.78125 9.90625 6.78125 20.515625 
Q 6.78125 27.484375 10.78125 32.3125 
Q 14.796875 37.15625 21.921875 38.8125 
M 18.3125 54.390625 
Q 18.3125 48.734375 21.84375 45.5625 
Q 25.390625 42.390625 31.78125 42.390625 
Q 38.140625 42.390625 41.71875 45.5625 
Q 45.3125 48.734375 45.3125 54.390625 
Q 45.3125 60.0625 41.71875 63.234375 
Q 38.140625 66.40625 31.78125 66.40625 
Q 25.390625 66.40625 21.84375 63.234375 
Q 18.3125 60.0625 18.3125 54.390625 
" id="BitstreamVeraSans-Roman-38"/>
      </defs>
      <g transform="translate(1046.52375 773.7953125)scale(0.3 -0.3)">
       <use xlink:href="#BitstreamVeraSans-Roman-38"/>
       <use x="63.623046875" xlink:href="#BitstreamVeraSans-Roman-30"/>
       <use x="127.24609375" xlink:href="#BitstreamVeraSans-Roman-30"/>
       <use x="190.869140625" xlink:href="#BitstreamVeraSans-Roman-30"/>
       <use x="254.4921875" xlink:href="#BitstreamVeraSans-Roman-30"/>
      </g>
     </g>
    </g>
    <g id="xtick_6">
     <g id="line2d_13">
      <g>
       <use style="stroke:#000000;stroke-width:0.5;" x="1336.05" xlink:href="#md11966c26e" y="747.0"/>
      </g>
     </g>
     <g id="line2d_14">
      <g>
       <use style="stroke:#000000;stroke-width:0.5;" x="1336.05" xlink:href="#m2e6ce15fbc" y="51.3"/>
      </g>
     </g>
     <g id="text_6">
      <!-- 100000 -->
      <defs>
       <path d="M 12.40625 8.296875 
L 28.515625 8.296875 
L 28.515625 63.921875 
L 10.984375 60.40625 
L 10.984375 69.390625 
L 28.421875 72.90625 
L 38.28125 72.90625 
L 38.28125 8.296875 
L 54.390625 8.296875 
L 54.390625 0 
L 12.40625 0 
z
" id="BitstreamVeraSans-Roman-31"/>
      </defs>
      <g transform="translate(1278.7875 773.7953125)scale(0.3 -0.3)">
       <use xlink:href="#BitstreamVeraSans-Roman-31"/>
       <use x="63.623046875" xlink:href="#BitstreamVeraSans-Roman-30"/>
       <use x="127.24609375" xlink:href="#BitstreamVeraSans-Roman-30"/>
       <use x="190.869140625" xlink:href="#BitstreamVeraSans-Roman-30"/>
       <use x="254.4921875" xlink:href="#BitstreamVeraSans-Roman-30"/>
       <use x="318.115234375" xlink:href="#BitstreamVeraSans-Roman-30"/>
      </g>
     </g>
    </g>
    <g id="text_7">
     <!-- iterations -->
     <defs>
      <path d="M 54.890625 33.015625 
L 54.890625 0 
L 45.90625 0 
L 45.90625 32.71875 
Q 45.90625 40.484375 42.875 44.328125 
Q 39.84375 48.1875 33.796875 48.1875 
Q 26.515625 48.1875 22.3125 43.546875 
Q 18.109375 38.921875 18.109375 30.90625 
L 18.109375 0 
L 9.078125 0 
L 9.078125 54.6875 
L 18.109375 54.6875 
L 18.109375 46.1875 
Q 21.34375 51.125 25.703125 53.5625 
Q 30.078125 56 35.796875 56 
Q 45.21875 56 50.046875 50.171875 
Q 54.890625 44.34375 54.890625 33.015625 
" id="BitstreamVeraSans-Roman-6e"/>
      <path d="M 34.28125 27.484375 
Q 23.390625 27.484375 19.1875 25 
Q 14.984375 22.515625 14.984375 16.5 
Q 14.984375 11.71875 18.140625 8.90625 
Q 21.296875 6.109375 26.703125 6.109375 
Q 34.1875 6.109375 38.703125 11.40625 
Q 43.21875 16.703125 43.21875 25.484375 
L 43.21875 27.484375 
z
M 52.203125 31.203125 
L 52.203125 0 
L 43.21875 0 
L 43.21875 8.296875 
Q 40.140625 3.328125 35.546875 0.953125 
Q 30.953125 -1.421875 24.3125 -1.421875 
Q 15.921875 -1.421875 10.953125 3.296875 
Q 6 8.015625 6 15.921875 
Q 6 25.140625 12.171875 29.828125 
Q 18.359375 34.515625 30.609375 34.515625 
L 43.21875 34.515625 
L 43.21875 35.40625 
Q 43.21875 41.609375 39.140625 45 
Q 35.0625 48.390625 27.6875 48.390625 
Q 23 48.390625 18.546875 47.265625 
Q 14.109375 46.140625 10.015625 43.890625 
L 10.015625 52.203125 
Q 14.9375 54.109375 19.578125 55.046875 
Q 24.21875 56 28.609375 56 
Q 40.484375 56 46.34375 49.84375 
Q 52.203125 43.703125 52.203125 31.203125 
" id="BitstreamVeraSans-Roman-61"/>
      <path d="M 30.609375 48.390625 
Q 23.390625 48.390625 19.1875 42.75 
Q 14.984375 37.109375 14.984375 27.296875 
Q 14.984375 17.484375 19.15625 11.84375 
Q 23.34375 6.203125 30.609375 6.203125 
Q 37.796875 6.203125 41.984375 11.859375 
Q 46.1875 17.53125 46.1875 27.296875 
Q 46.1875 37.015625 41.984375 42.703125 
Q 37.796875 48.390625 30.609375 48.390625 
M 30.609375 56 
Q 42.328125 56 49.015625 48.375 
Q 55.71875 40.765625 55.71875 27.296875 
Q 55.71875 13.875 49.015625 6.21875 
Q 42.328125 -1.421875 30.609375 -1.421875 
Q 18.84375 -1.421875 12.171875 6.21875 
Q 5.515625 13.875 5.515625 27.296875 
Q 5.515625 40.765625 12.171875 48.375 
Q 18.84375 56 30.609375 56 
" id="BitstreamVeraSans-Roman-6f"/>
      <path d="M 9.421875 54.6875 
L 18.40625 54.6875 
L 18.40625 0 
L 9.421875 0 
z
M 9.421875 75.984375 
L 18.40625 75.984375 
L 18.40625 64.59375 
L 9.421875 64.59375 
z
" id="BitstreamVeraSans-Roman-69"/>
      <path d="M 56.203125 29.59375 
L 56.203125 25.203125 
L 14.890625 25.203125 
Q 15.484375 15.921875 20.484375 11.0625 
Q 25.484375 6.203125 34.421875 6.203125 
Q 39.59375 6.203125 44.453125 7.46875 
Q 49.3125 8.734375 54.109375 11.28125 
L 54.109375 2.78125 
Q 49.265625 0.734375 44.1875 -0.34375 
Q 39.109375 -1.421875 33.890625 -1.421875 
Q 20.796875 -1.421875 13.15625 6.1875 
Q 5.515625 13.8125 5.515625 26.8125 
Q 5.515625 40.234375 12.765625 48.109375 
Q 20.015625 56 32.328125 56 
Q 43.359375 56 49.78125 48.890625 
Q 56.203125 41.796875 56.203125 29.59375 
M 47.21875 32.234375 
Q 47.125 39.59375 43.09375 43.984375 
Q 39.0625 48.390625 32.421875 48.390625 
Q 24.90625 48.390625 20.390625 44.140625 
Q 15.875 39.890625 15.1875 32.171875 
z
" id="BitstreamVeraSans-Roman-65"/>
      <path d="M 18.3125 70.21875 
L 18.3125 54.6875 
L 36.8125 54.6875 
L 36.8125 47.703125 
L 18.3125 47.703125 
L 18.3125 18.015625 
Q 18.3125 11.328125 20.140625 9.421875 
Q 21.96875 7.515625 27.59375 7.515625 
L 36.8125 7.515625 
L 36.8125 0 
L 27.59375 0 
Q 17.1875 0 13.234375 3.875 
Q 9.28125 7.765625 9.28125 18.015625 
L 9.28125 47.703125 
L 2.6875 47.703125 
L 2.6875 54.6875 
L 9.28125 54.6875 
L 9.28125 70.21875 
z
" id="BitstreamVeraSans-Roman-74"/>
      <path d="M 41.109375 46.296875 
Q 39.59375 47.171875 37.8125 47.578125 
Q 36.03125 48 33.890625 48 
Q 26.265625 48 22.1875 43.046875 
Q 18.109375 38.09375 18.109375 28.8125 
L 18.109375 0 
L 9.078125 0 
L 9.078125 54.6875 
L 18.109375 54.6875 
L 18.109375 46.1875 
Q 20.953125 51.171875 25.484375 53.578125 
Q 30.03125 56 36.53125 56 
Q 37.453125 56 38.578125 55.875 
Q 39.703125 55.765625 41.0625 55.515625 
z
" id="BitstreamVeraSans-Roman-72"/>
      <path d="M 44.28125 53.078125 
L 44.28125 44.578125 
Q 40.484375 46.53125 36.375 47.5 
Q 32.28125 48.484375 27.875 48.484375 
Q 21.1875 48.484375 17.84375 46.4375 
Q 14.5 44.390625 14.5 40.28125 
Q 14.5 37.15625 16.890625 35.375 
Q 19.28125 33.59375 26.515625 31.984375 
L 29.59375 31.296875 
Q 39.15625 29.25 43.1875 25.515625 
Q 47.21875 21.78125 47.21875 15.09375 
Q 47.21875 7.46875 41.1875 3.015625 
Q 35.15625 -1.421875 24.609375 -1.421875 
Q 20.21875 -1.421875 15.453125 -0.5625 
Q 10.6875 0.296875 5.421875 2 
L 5.421875 11.28125 
Q 10.40625 8.6875 15.234375 7.390625 
Q 20.0625 6.109375 24.8125 6.109375 
Q 31.15625 6.109375 34.5625 8.28125 
Q 37.984375 10.453125 37.984375 14.40625 
Q 37.984375 18.0625 35.515625 20.015625 
Q 33.0625 21.96875 24.703125 23.78125 
L 21.578125 24.515625 
Q 13.234375 26.265625 9.515625 29.90625 
Q 5.8125 33.546875 5.8125 39.890625 
Q 5.8125 47.609375 11.28125 51.796875 
Q 16.75 56 26.8125 56 
Q 31.78125 56 36.171875 55.265625 
Q 40.578125 54.546875 44.28125 53.078125 
" id="BitstreamVeraSans-Roman-73"/>
     </defs>
     <g transform="translate(660.34921875 807.8296875)scale(0.3 -0.3)">
      <use xlink:href="#BitstreamVeraSans-Roman-69"/>
      <use x="27.783203125" xlink:href="#BitstreamVeraSans-Roman-74"/>
      <use x="66.9921875" xlink:href="#BitstreamVeraSans-Roman-65"/>
      <use x="128.515625" xlink:href="#BitstreamVeraSans-Roman-72"/>
      <use x="169.62890625" xlink:href="#BitstreamVeraSans-Roman-61"/>
      <use x="230.908203125" xlink:href="#BitstreamVeraSans-Roman-74"/>
      <use x="270.1171875" xlink:href="#BitstreamVeraSans-Roman-69"/>
      <use x="297.900390625" xlink:href="#BitstreamVeraSans-Roman-6f"/>
      <use x="359.08203125" xlink:href="#BitstreamVeraSans-Roman-6e"/>
      <use x="422.4609375" xlink:href="#BitstreamVeraSans-Roman-73"/>
     </g>
    </g>
   </g>
   <g id="matplotlib.axis_2">
    <g id="ytick_1">
     <g id="line2d_15">
      <defs>
       <path d="M 0 0 
L 4 0 
" id="m165f2c50f4" style="stroke:#000000;stroke-width:0.5;"/>
      </defs>
      <g>
       <use style="stroke:#000000;stroke-width:0.5;" x="127.0125" xlink:href="#m165f2c50f4" y="747.0"/>
      </g>
     </g>
     <g id="line2d_16">
      <defs>
       <path d="M 0 0 
L -4 0 
" id="m962cd28b13" style="stroke:#000000;stroke-width:0.5;"/>
      </defs>
      <g>
       <use style="stroke:#000000;stroke-width:0.5;" x="1336.05" xlink:href="#m962cd28b13" y="747.0"/>
      </g>
     </g>
     <g id="text_8">
      <!-- 4 -->
      <g transform="translate(103.925 755.278125)scale(0.3 -0.3)">
       <use xlink:href="#BitstreamVeraSans-Roman-34"/>
      </g>
     </g>
    </g>
    <g id="ytick_2">
     <g id="line2d_17">
      <g>
       <use style="stroke:#000000;stroke-width:0.5;" x="127.0125" xlink:href="#m165f2c50f4" y="669.7"/>
      </g>
     </g>
     <g id="line2d_18">
      <g>
       <use style="stroke:#000000;stroke-width:0.5;" x="1336.05" xlink:href="#m962cd28b13" y="669.7"/>
      </g>
     </g>
     <g id="text_9">
      <!-- 5 -->
      <defs>
       <path d="M 10.796875 72.90625 
L 49.515625 72.90625 
L 49.515625 64.59375 
L 19.828125 64.59375 
L 19.828125 46.734375 
Q 21.96875 47.46875 24.109375 47.828125 
Q 26.265625 48.1875 28.421875 48.1875 
Q 40.625 48.1875 47.75 41.5 
Q 54.890625 34.8125 54.890625 23.390625 
Q 54.890625 11.625 47.5625 5.09375 
Q 40.234375 -1.421875 26.90625 -1.421875 
Q 22.3125 -1.421875 17.546875 -0.640625 
Q 12.796875 0.140625 7.71875 1.703125 
L 7.71875 11.625 
Q 12.109375 9.234375 16.796875 8.0625 
Q 21.484375 6.890625 26.703125 6.890625 
Q 35.15625 6.890625 40.078125 11.328125 
Q 45.015625 15.765625 45.015625 23.390625 
Q 45.015625 31 40.078125 35.4375 
Q 35.15625 39.890625 26.703125 39.890625 
Q 22.75 39.890625 18.8125 39.015625 
Q 14.890625 38.140625 10.796875 36.28125 
z
" id="BitstreamVeraSans-Roman-35"/>
      </defs>
      <g transform="translate(103.925 677.978125)scale(0.3 -0.3)">
       <use xlink:href="#BitstreamVeraSans-Roman-35"/>
      </g>
     </g>
    </g>
    <g id="ytick_3">
     <g id="line2d_19">
      <g>
       <use style="stroke:#000000;stroke-width:0.5;" x="127.0125" xlink:href="#m165f2c50f4" y="592.4"/>
      </g>
     </g>
     <g id="line2d_20">
      <g>
       <use style="stroke:#000000;stroke-width:0.5;" x="1336.05" xlink:href="#m962cd28b13" y="592.4"/>
      </g>
     </g>
     <g id="text_10">
      <!-- 6 -->
      <g transform="translate(103.925 600.678125)scale(0.3 -0.3)">
       <use xlink:href="#BitstreamVeraSans-Roman-36"/>
      </g>
     </g>
    </g>
    <g id="ytick_4">
     <g id="line2d_21">
      <g>
       <use style="stroke:#000000;stroke-width:0.5;" x="127.0125" xlink:href="#m165f2c50f4" y="515.1"/>
      </g>
     </g>
     <g id="line2d_22">
      <g>
       <use style="stroke:#000000;stroke-width:0.5;" x="1336.05" xlink:href="#m962cd28b13" y="515.1"/>
      </g>
     </g>
     <g id="text_11">
      <!-- 7 -->
      <defs>
       <path d="M 8.203125 72.90625 
L 55.078125 72.90625 
L 55.078125 68.703125 
L 28.609375 0 
L 18.3125 0 
L 43.21875 64.59375 
L 8.203125 64.59375 
z
" id="BitstreamVeraSans-Roman-37"/>
      </defs>
      <g transform="translate(103.925 523.378125)scale(0.3 -0.3)">
       <use xlink:href="#BitstreamVeraSans-Roman-37"/>
      </g>
     </g>
    </g>
    <g id="ytick_5">
     <g id="line2d_23">
      <g>
       <use style="stroke:#000000;stroke-width:0.5;" x="127.0125" xlink:href="#m165f2c50f4" y="437.8"/>
      </g>
     </g>
     <g id="line2d_24">
      <g>
       <use style="stroke:#000000;stroke-width:0.5;" x="1336.05" xlink:href="#m962cd28b13" y="437.8"/>
      </g>
     </g>
     <g id="text_12">
      <!-- 8 -->
      <g transform="translate(103.925 446.078125)scale(0.3 -0.3)">
       <use xlink:href="#BitstreamVeraSans-Roman-38"/>
      </g>
     </g>
    </g>
    <g id="ytick_6">
     <g id="line2d_25">
      <g>
       <use style="stroke:#000000;stroke-width:0.5;" x="127.0125" xlink:href="#m165f2c50f4" y="360.5"/>
      </g>
     </g>
     <g id="line2d_26">
      <g>
       <use style="stroke:#000000;stroke-width:0.5;" x="1336.05" xlink:href="#m962cd28b13" y="360.5"/>
      </g>
     </g>
     <g id="text_13">
      <!-- 9 -->
      <defs>
       <path d="M 10.984375 1.515625 
L 10.984375 10.5 
Q 14.703125 8.734375 18.5 7.8125 
Q 22.3125 6.890625 25.984375 6.890625 
Q 35.75 6.890625 40.890625 13.453125 
Q 46.046875 20.015625 46.78125 33.40625 
Q 43.953125 29.203125 39.59375 26.953125 
Q 35.25 24.703125 29.984375 24.703125 
Q 19.046875 24.703125 12.671875 31.3125 
Q 6.296875 37.9375 6.296875 49.421875 
Q 6.296875 60.640625 12.9375 67.421875 
Q 19.578125 74.21875 30.609375 74.21875 
Q 43.265625 74.21875 49.921875 64.515625 
Q 56.59375 54.828125 56.59375 36.375 
Q 56.59375 19.140625 48.40625 8.859375 
Q 40.234375 -1.421875 26.421875 -1.421875 
Q 22.703125 -1.421875 18.890625 -0.6875 
Q 15.09375 0.046875 10.984375 1.515625 
M 30.609375 32.421875 
Q 37.25 32.421875 41.125 36.953125 
Q 45.015625 41.5 45.015625 49.421875 
Q 45.015625 57.28125 41.125 61.84375 
Q 37.25 66.40625 30.609375 66.40625 
Q 23.96875 66.40625 20.09375 61.84375 
Q 16.21875 57.28125 16.21875 49.421875 
Q 16.21875 41.5 20.09375 36.953125 
Q 23.96875 32.421875 30.609375 32.421875 
" id="BitstreamVeraSans-Roman-39"/>
      </defs>
      <g transform="translate(103.925 368.778125)scale(0.3 -0.3)">
       <use xlink:href="#BitstreamVeraSans-Roman-39"/>
      </g>
     </g>
    </g>
    <g id="ytick_7">
     <g id="line2d_27">
      <g>
       <use style="stroke:#000000;stroke-width:0.5;" x="127.0125" xlink:href="#m165f2c50f4" y="283.2"/>
      </g>
     </g>
     <g id="line2d_28">
      <g>
       <use style="stroke:#000000;stroke-width:0.5;" x="1336.05" xlink:href="#m962cd28b13" y="283.2"/>
      </g>
     </g>
     <g id="text_14">
      <!-- 10 -->
      <g transform="translate(84.8375 291.478125)scale(0.3 -0.3)">
       <use xlink:href="#BitstreamVeraSans-Roman-31"/>
       <use x="63.623046875" xlink:href="#BitstreamVeraSans-Roman-30"/>
      </g>
     </g>
    </g>
    <g id="ytick_8">
     <g id="line2d_29">
      <g>
       <use style="stroke:#000000;stroke-width:0.5;" x="127.0125" xlink:href="#m165f2c50f4" y="205.9"/>
      </g>
     </g>
     <g id="line2d_30">
      <g>
       <use style="stroke:#000000;stroke-width:0.5;" x="1336.05" xlink:href="#m962cd28b13" y="205.9"/>
      </g>
     </g>
     <g id="text_15">
      <!-- 11 -->
      <g transform="translate(84.8375 214.178125)scale(0.3 -0.3)">
       <use xlink:href="#BitstreamVeraSans-Roman-31"/>
       <use x="63.623046875" xlink:href="#BitstreamVeraSans-Roman-31"/>
      </g>
     </g>
    </g>
    <g id="ytick_9">
     <g id="line2d_31">
      <g>
       <use style="stroke:#000000;stroke-width:0.5;" x="127.0125" xlink:href="#m165f2c50f4" y="128.6"/>
      </g>
     </g>
     <g id="line2d_32">
      <g>
       <use style="stroke:#000000;stroke-width:0.5;" x="1336.05" xlink:href="#m962cd28b13" y="128.6"/>
      </g>
     </g>
     <g id="text_16">
      <!-- 12 -->
      <g transform="translate(84.8375 136.878125)scale(0.3 -0.3)">
       <use xlink:href="#BitstreamVeraSans-Roman-31"/>
       <use x="63.623046875" xlink:href="#BitstreamVeraSans-Roman-32"/>
      </g>
     </g>
    </g>
    <g id="ytick_10">
     <g id="line2d_33">
      <g>
       <use style="stroke:#000000;stroke-width:0.5;" x="127.0125" xlink:href="#m165f2c50f4" y="51.3"/>
      </g>
     </g>
     <g id="line2d_34">
      <g>
       <use style="stroke:#000000;stroke-width:0.5;" x="1336.05" xlink:href="#m962cd28b13" y="51.3"/>
      </g>
     </g>
     <g id="text_17">
      <!-- 13 -->
      <defs>
       <path d="M 40.578125 39.3125 
Q 47.65625 37.796875 51.625 33 
Q 55.609375 28.21875 55.609375 21.1875 
Q 55.609375 10.40625 48.1875 4.484375 
Q 40.765625 -1.421875 27.09375 -1.421875 
Q 22.515625 -1.421875 17.65625 -0.515625 
Q 12.796875 0.390625 7.625 2.203125 
L 7.625 11.71875 
Q 11.71875 9.328125 16.59375 8.109375 
Q 21.484375 6.890625 26.8125 6.890625 
Q 36.078125 6.890625 40.9375 10.546875 
Q 45.796875 14.203125 45.796875 21.1875 
Q 45.796875 27.640625 41.28125 31.265625 
Q 36.765625 34.90625 28.71875 34.90625 
L 20.21875 34.90625 
L 20.21875 43.015625 
L 29.109375 43.015625 
Q 36.375 43.015625 40.234375 45.921875 
Q 44.09375 48.828125 44.09375 54.296875 
Q 44.09375 59.90625 40.109375 62.90625 
Q 36.140625 65.921875 28.71875 65.921875 
Q 24.65625 65.921875 20.015625 65.03125 
Q 15.375 64.15625 9.8125 62.3125 
L 9.8125 71.09375 
Q 15.4375 72.65625 20.34375 73.4375 
Q 25.25 74.21875 29.59375 74.21875 
Q 40.828125 74.21875 47.359375 69.109375 
Q 53.90625 64.015625 53.90625 55.328125 
Q 53.90625 49.265625 50.4375 45.09375 
Q 46.96875 40.921875 40.578125 39.3125 
" id="BitstreamVeraSans-Roman-33"/>
      </defs>
      <g transform="translate(84.8375 59.578125)scale(0.3 -0.3)">
       <use xlink:href="#BitstreamVeraSans-Roman-31"/>
       <use x="63.623046875" xlink:href="#BitstreamVeraSans-Roman-33"/>
      </g>
     </g>
    </g>
    <g id="text_18">
     <!-- log(loss) -->
     <defs>
      <path d="M 8.015625 75.875 
L 15.828125 75.875 
Q 23.140625 64.359375 26.78125 53.3125 
Q 30.421875 42.28125 30.421875 31.390625 
Q 30.421875 20.453125 26.78125 9.375 
Q 23.140625 -1.703125 15.828125 -13.1875 
L 8.015625 -13.1875 
Q 14.5 -2 17.703125 9.0625 
Q 20.90625 20.125 20.90625 31.390625 
Q 20.90625 42.671875 17.703125 53.65625 
Q 14.5 64.65625 8.015625 75.875 
" id="BitstreamVeraSans-Roman-29"/>
      <path d="M 31 75.875 
Q 24.46875 64.65625 21.28125 53.65625 
Q 18.109375 42.671875 18.109375 31.390625 
Q 18.109375 20.125 21.3125 9.0625 
Q 24.515625 -2 31 -13.1875 
L 23.1875 -13.1875 
Q 15.875 -1.703125 12.234375 9.375 
Q 8.59375 20.453125 8.59375 31.390625 
Q 8.59375 42.28125 12.203125 53.3125 
Q 15.828125 64.359375 23.1875 75.875 
z
" id="BitstreamVeraSans-Roman-28"/>
      <path d="M 45.40625 27.984375 
Q 45.40625 37.75 41.375 43.109375 
Q 37.359375 48.484375 30.078125 48.484375 
Q 22.859375 48.484375 18.828125 43.109375 
Q 14.796875 37.75 14.796875 27.984375 
Q 14.796875 18.265625 18.828125 12.890625 
Q 22.859375 7.515625 30.078125 7.515625 
Q 37.359375 7.515625 41.375 12.890625 
Q 45.40625 18.265625 45.40625 27.984375 
M 54.390625 6.78125 
Q 54.390625 -7.171875 48.1875 -13.984375 
Q 42 -20.796875 29.203125 -20.796875 
Q 24.46875 -20.796875 20.265625 -20.09375 
Q 16.0625 -19.390625 12.109375 -17.921875 
L 12.109375 -9.1875 
Q 16.0625 -11.328125 19.921875 -12.34375 
Q 23.78125 -13.375 27.78125 -13.375 
Q 36.625 -13.375 41.015625 -8.765625 
Q 45.40625 -4.15625 45.40625 5.171875 
L 45.40625 9.625 
Q 42.625 4.78125 38.28125 2.390625 
Q 33.9375 0 27.875 0 
Q 17.828125 0 11.671875 7.65625 
Q 5.515625 15.328125 5.515625 27.984375 
Q 5.515625 40.671875 11.671875 48.328125 
Q 17.828125 56 27.875 56 
Q 33.9375 56 38.28125 53.609375 
Q 42.625 51.21875 45.40625 46.390625 
L 45.40625 54.6875 
L 54.390625 54.6875 
z
" id="BitstreamVeraSans-Roman-67"/>
      <path d="M 9.421875 75.984375 
L 18.40625 75.984375 
L 18.40625 0 
L 9.421875 0 
z
" id="BitstreamVeraSans-Roman-6c"/>
     </defs>
     <g transform="translate(73.5984375 462.69609375)rotate(-90.0)scale(0.3 -0.3)">
      <use xlink:href="#BitstreamVeraSans-Roman-6c"/>
      <use x="27.783203125" xlink:href="#BitstreamVeraSans-Roman-6f"/>
      <use x="88.96484375" xlink:href="#BitstreamVeraSans-Roman-67"/>
      <use x="152.44140625" xlink:href="#BitstreamVeraSans-Roman-28"/>
      <use x="191.455078125" xlink:href="#BitstreamVeraSans-Roman-6c"/>
      <use x="219.23828125" xlink:href="#BitstreamVeraSans-Roman-6f"/>
      <use x="280.419921875" xlink:href="#BitstreamVeraSans-Roman-73"/>
      <use x="332.51953125" xlink:href="#BitstreamVeraSans-Roman-73"/>
      <use x="384.619140625" xlink:href="#BitstreamVeraSans-Roman-29"/>
     </g>
    </g>
   </g>
   <g id="legend_1">
    <g id="patch_7">
     <path d="M 843.876562 163.36875 
L 1321.05 163.36875 
L 1321.05 66.3 
L 843.876562 66.3 
z
" style="fill:#ffffff;stroke:#000000;stroke-linejoin:miter;"/>
    </g>
    <g id="line2d_35">
     <path d="M 864.876562 90.595312 
L 906.876562 90.595312 
" style="fill:none;stroke:#0000ff;stroke-linecap:square;stroke-width:2.0;"/>
    </g>
    <g id="line2d_36"/>
    <g id="text_19">
     <!-- random: step=0.000625 -->
     <defs>
      <path id="BitstreamVeraSans-Roman-20"/>
      <path d="M 52 44.1875 
Q 55.375 50.25 60.0625 53.125 
Q 64.75 56 71.09375 56 
Q 79.640625 56 84.28125 50.015625 
Q 88.921875 44.046875 88.921875 33.015625 
L 88.921875 0 
L 79.890625 0 
L 79.890625 32.71875 
Q 79.890625 40.578125 77.09375 44.375 
Q 74.3125 48.1875 68.609375 48.1875 
Q 61.625 48.1875 57.5625 43.546875 
Q 53.515625 38.921875 53.515625 30.90625 
L 53.515625 0 
L 44.484375 0 
L 44.484375 32.71875 
Q 44.484375 40.625 41.703125 44.40625 
Q 38.921875 48.1875 33.109375 48.1875 
Q 26.21875 48.1875 22.15625 43.53125 
Q 18.109375 38.875 18.109375 30.90625 
L 18.109375 0 
L 9.078125 0 
L 9.078125 54.6875 
L 18.109375 54.6875 
L 18.109375 46.1875 
Q 21.1875 51.21875 25.484375 53.609375 
Q 29.78125 56 35.6875 56 
Q 41.65625 56 45.828125 52.96875 
Q 50 49.953125 52 44.1875 
" id="BitstreamVeraSans-Roman-6d"/>
      <path d="M 11.71875 12.40625 
L 22.015625 12.40625 
L 22.015625 0 
L 11.71875 0 
z
M 11.71875 51.703125 
L 22.015625 51.703125 
L 22.015625 39.3125 
L 11.71875 39.3125 
z
" id="BitstreamVeraSans-Roman-3a"/>
      <path d="M 10.6875 12.40625 
L 21 12.40625 
L 21 0 
L 10.6875 0 
z
" id="BitstreamVeraSans-Roman-2e"/>
      <path d="M 10.59375 45.40625 
L 73.1875 45.40625 
L 73.1875 37.203125 
L 10.59375 37.203125 
z
M 10.59375 25.484375 
L 73.1875 25.484375 
L 73.1875 17.1875 
L 10.59375 17.1875 
z
" id="BitstreamVeraSans-Roman-3d"/>
      <path d="M 45.40625 46.390625 
L 45.40625 75.984375 
L 54.390625 75.984375 
L 54.390625 0 
L 45.40625 0 
L 45.40625 8.203125 
Q 42.578125 3.328125 38.25 0.953125 
Q 33.9375 -1.421875 27.875 -1.421875 
Q 17.96875 -1.421875 11.734375 6.484375 
Q 5.515625 14.40625 5.515625 27.296875 
Q 5.515625 40.1875 11.734375 48.09375 
Q 17.96875 56 27.875 56 
Q 33.9375 56 38.25 53.625 
Q 42.578125 51.265625 45.40625 46.390625 
M 14.796875 27.296875 
Q 14.796875 17.390625 18.875 11.75 
Q 22.953125 6.109375 30.078125 6.109375 
Q 37.203125 6.109375 41.296875 11.75 
Q 45.40625 17.390625 45.40625 27.296875 
Q 45.40625 37.203125 41.296875 42.84375 
Q 37.203125 48.484375 30.078125 48.484375 
Q 22.953125 48.484375 18.875 42.84375 
Q 14.796875 37.203125 14.796875 27.296875 
" id="BitstreamVeraSans-Roman-64"/>
      <path d="M 18.109375 8.203125 
L 18.109375 -20.796875 
L 9.078125 -20.796875 
L 9.078125 54.6875 
L 18.109375 54.6875 
L 18.109375 46.390625 
Q 20.953125 51.265625 25.265625 53.625 
Q 29.59375 56 35.59375 56 
Q 45.5625 56 51.78125 48.09375 
Q 58.015625 40.1875 58.015625 27.296875 
Q 58.015625 14.40625 51.78125 6.484375 
Q 45.5625 -1.421875 35.59375 -1.421875 
Q 29.59375 -1.421875 25.265625 0.953125 
Q 20.953125 3.328125 18.109375 8.203125 
M 48.6875 27.296875 
Q 48.6875 37.203125 44.609375 42.84375 
Q 40.53125 48.484375 33.40625 48.484375 
Q 26.265625 48.484375 22.1875 42.84375 
Q 18.109375 37.203125 18.109375 27.296875 
Q 18.109375 17.390625 22.1875 11.75 
Q 26.265625 6.109375 33.40625 6.109375 
Q 40.53125 6.109375 44.609375 11.75 
Q 48.6875 17.390625 48.6875 27.296875 
" id="BitstreamVeraSans-Roman-70"/>
     </defs>
     <g transform="translate(939.8765625 101.0953125)scale(0.3 -0.3)">
      <use xlink:href="#BitstreamVeraSans-Roman-72"/>
      <use x="41.11328125" xlink:href="#BitstreamVeraSans-Roman-61"/>
      <use x="102.392578125" xlink:href="#BitstreamVeraSans-Roman-6e"/>
      <use x="165.771484375" xlink:href="#BitstreamVeraSans-Roman-64"/>
      <use x="229.248046875" xlink:href="#BitstreamVeraSans-Roman-6f"/>
      <use x="290.4296875" xlink:href="#BitstreamVeraSans-Roman-6d"/>
      <use x="387.841796875" xlink:href="#BitstreamVeraSans-Roman-3a"/>
      <use x="421.533203125" xlink:href="#BitstreamVeraSans-Roman-20"/>
      <use x="453.3203125" xlink:href="#BitstreamVeraSans-Roman-73"/>
      <use x="505.419921875" xlink:href="#BitstreamVeraSans-Roman-74"/>
      <use x="544.62890625" xlink:href="#BitstreamVeraSans-Roman-65"/>
      <use x="606.15234375" xlink:href="#BitstreamVeraSans-Roman-70"/>
      <use x="669.62890625" xlink:href="#BitstreamVeraSans-Roman-3d"/>
      <use x="753.41796875" xlink:href="#BitstreamVeraSans-Roman-30"/>
      <use x="817.041015625" xlink:href="#BitstreamVeraSans-Roman-2e"/>
      <use x="848.828125" xlink:href="#BitstreamVeraSans-Roman-30"/>
      <use x="912.451171875" xlink:href="#BitstreamVeraSans-Roman-30"/>
      <use x="976.07421875" xlink:href="#BitstreamVeraSans-Roman-30"/>
      <use x="1039.69726562" xlink:href="#BitstreamVeraSans-Roman-36"/>
      <use x="1103.3203125" xlink:href="#BitstreamVeraSans-Roman-32"/>
      <use x="1166.94335938" xlink:href="#BitstreamVeraSans-Roman-35"/>
     </g>
    </g>
    <g id="line2d_37">
     <path d="M 864.876562 134.629687 
L 906.876562 134.629687 
" style="fill:none;stroke:#008000;stroke-linecap:square;stroke-width:2.0;"/>
    </g>
    <g id="line2d_38"/>
    <g id="text_20">
     <!-- corr: step=0.000625 -->
     <defs>
      <path d="M 48.78125 52.59375 
L 48.78125 44.1875 
Q 44.96875 46.296875 41.140625 47.34375 
Q 37.3125 48.390625 33.40625 48.390625 
Q 24.65625 48.390625 19.8125 42.84375 
Q 14.984375 37.3125 14.984375 27.296875 
Q 14.984375 17.28125 19.8125 11.734375 
Q 24.65625 6.203125 33.40625 6.203125 
Q 37.3125 6.203125 41.140625 7.25 
Q 44.96875 8.296875 48.78125 10.40625 
L 48.78125 2.09375 
Q 45.015625 0.34375 40.984375 -0.53125 
Q 36.96875 -1.421875 32.421875 -1.421875 
Q 20.0625 -1.421875 12.78125 6.34375 
Q 5.515625 14.109375 5.515625 27.296875 
Q 5.515625 40.671875 12.859375 48.328125 
Q 20.21875 56 33.015625 56 
Q 37.15625 56 41.109375 55.140625 
Q 45.0625 54.296875 48.78125 52.59375 
" id="BitstreamVeraSans-Roman-63"/>
     </defs>
     <g transform="translate(939.8765625 145.1296875)scale(0.3 -0.3)">
      <use xlink:href="#BitstreamVeraSans-Roman-63"/>
      <use x="54.98046875" xlink:href="#BitstreamVeraSans-Roman-6f"/>
      <use x="116.162109375" xlink:href="#BitstreamVeraSans-Roman-72"/>
      <use x="157.259765625" xlink:href="#BitstreamVeraSans-Roman-72"/>
      <use x="198.357421875" xlink:href="#BitstreamVeraSans-Roman-3a"/>
      <use x="232.048828125" xlink:href="#BitstreamVeraSans-Roman-20"/>
      <use x="263.8359375" xlink:href="#BitstreamVeraSans-Roman-73"/>
      <use x="315.935546875" xlink:href="#BitstreamVeraSans-Roman-74"/>
      <use x="355.14453125" xlink:href="#BitstreamVeraSans-Roman-65"/>
      <use x="416.66796875" xlink:href="#BitstreamVeraSans-Roman-70"/>
      <use x="480.14453125" xlink:href="#BitstreamVeraSans-Roman-3d"/>
      <use x="563.93359375" xlink:href="#BitstreamVeraSans-Roman-30"/>
      <use x="627.556640625" xlink:href="#BitstreamVeraSans-Roman-2e"/>
      <use x="659.34375" xlink:href="#BitstreamVeraSans-Roman-30"/>
      <use x="722.966796875" xlink:href="#BitstreamVeraSans-Roman-30"/>
      <use x="786.58984375" xlink:href="#BitstreamVeraSans-Roman-30"/>
      <use x="850.212890625" xlink:href="#BitstreamVeraSans-Roman-36"/>
      <use x="913.8359375" xlink:href="#BitstreamVeraSans-Roman-32"/>
      <use x="977.458984375" xlink:href="#BitstreamVeraSans-Roman-35"/>
     </g>
    </g>
   </g>
  </g>
 </g>
 <defs>
  <clipPath id="p4bca0e9631">
   <rect height="695.7" width="1209.0375" x="127.0125" y="51.3"/>
  </clipPath>
 </defs>
</svg>
