<?xml version="1.0" encoding="utf-8" standalone="no"?>
<!DOCTYPE svg PUBLIC "-//W3C//DTD SVG 1.1//EN"
  "http://www.w3.org/Graphics/SVG/1.1/DTD/svg11.dtd">
<!-- Created with matplotlib (http://matplotlib.org/) -->
<svg height="864pt" version="1.1" viewBox="0 0 1440 864" width="1440pt" xmlns="http://www.w3.org/2000/svg" xmlns:xlink="http://www.w3.org/1999/xlink">
 <defs>
  <style type="text/css">
*{stroke-linecap:butt;stroke-linejoin:round;stroke-miterlimit:100000;}
  </style>
 </defs>
 <g id="figure_1">
  <g id="patch_1">
   <path d="M 0 864 
L 1440 864 
L 1440 0 
L 0 0 
z
" style="fill:#ffffff;"/>
  </g>
  <g id="axes_1">
   <g id="patch_2">
    <path d="M 158.4 747 
L 1336.05 747 
L 1336.05 51.3 
L 158.4 51.3 
z
" style="fill:#ffffff;"/>
   </g>
   <g id="line2d_1">
    <path clip-path="url(#pa8427eab1f)" d="M 159.57765 98.126867 
L 160.7553 98.159548 
L 161.93295 98.167829 
L 163.1106 98.690831 
L 164.28825 101.100282 
L 165.4659 101.435515 
L 166.64355 101.435458 
L 167.8212 101.722281 
L 168.99885 103.881818 
L 170.1765 104.533013 
L 172.5318 104.53303 
L 173.70945 107.202158 
L 174.8871 107.915393 
L 177.2424 107.927311 
L 178.42005 110.189421 
L 179.5977 110.917108 
L 180.77535 111.138658 
L 181.953 111.138602 
L 183.13065 112.971961 
L 184.3083 113.804813 
L 185.48595 114.390876 
L 186.6636 114.390866 
L 187.84125 115.895217 
L 189.0189 116.580719 
L 190.19655 117.471454 
L 191.3742 117.47127 
L 192.55185 118.368152 
L 193.7295 119.107009 
L 194.90715 120.652065 
L 196.0848 120.651955 
L 198.4401 122.014174 
L 199.61775 123.697634 
L 200.7954 123.69756 
L 201.97305 123.853583 
L 203.1507 124.578671 
L 204.32835 126.929231 
L 206.68365 126.92867 
L 207.8613 127.8057 
L 209.03895 129.881355 
L 210.2166 129.995489 
L 211.39425 129.995539 
L 212.5719 130.562509 
L 213.74955 132.891122 
L 214.9272 133.527973 
L 216.10485 133.528255 
L 217.2825 133.68939 
L 218.46015 135.484967 
L 219.6378 136.413936 
L 221.9931 136.402557 
L 223.17075 138.584433 
L 224.3484 139.429955 
L 226.7037 139.461221 
L 227.88135 141.52967 
L 229.059 142.470391 
L 230.23665 142.670604 
L 231.4143 142.669693 
L 232.59195 144.383195 
L 233.7696 145.306752 
L 234.94725 146.059529 
L 236.1249 146.059511 
L 237.30255 147.684126 
L 238.4802 148.609485 
L 239.65785 149.842679 
L 240.8355 149.84248 
L 243.1908 151.655828 
L 244.36845 152.978027 
L 245.5461 152.978248 
L 246.72375 153.265281 
L 247.9014 154.161249 
L 249.07905 156.05785 
L 250.2567 156.056946 
L 251.43435 156.610789 
L 252.612 157.416255 
L 253.78965 158.630502 
L 254.9673 158.630699 
L 256.14495 160.039324 
L 257.3226 160.949861 
L 258.50025 161.412725 
L 259.6779 161.413766 
L 260.85555 163.609813 
L 262.0332 164.477528 
L 264.3885 164.477673 
L 265.56615 166.902028 
L 266.7438 167.31881 
L 269.0991 167.318604 
L 270.27675 169.986207 
L 271.4544 170.225438 
L 273.8097 170.224532 
L 274.98735 172.39293 
L 278.5203 172.426531 
L 279.69795 175.093094 
L 283.2309 175.103819 
L 284.40855 178.046026 
L 287.9415 178.065116 
L 289.11915 181.331008 
L 292.6521 181.332243 
L 293.82975 183.956222 
L 297.3627 183.950956 
L 298.54035 186.969292 
L 302.0733 186.969592 
L 303.25095 190.331014 
L 306.7839 190.336796 
L 307.96155 193.022702 
L 311.4945 193.023401 
L 312.67215 195.903852 
L 316.2051 195.90332 
L 317.38275 198.642261 
L 320.9157 198.642192 
L 322.09335 201.472141 
L 325.6263 201.47175 
L 326.80395 204.648741 
L 330.3369 204.651099 
L 331.51455 207.185475 
L 335.0475 207.187548 
L 336.22515 210.480921 
L 339.7581 210.481073 
L 340.93575 214.011755 
L 344.4687 214.011623 
L 345.64635 216.818043 
L 349.1793 216.817924 
L 350.35695 219.87115 
L 353.8899 219.870892 
L 355.06755 222.600097 
L 358.6005 222.599923 
L 359.77815 225.210576 
L 363.3111 225.210394 
L 364.48875 228.381384 
L 368.0217 228.381689 
L 369.19935 231.12472 
L 372.7323 231.122436 
L 373.90995 233.988824 
L 377.4429 233.989427 
L 378.62055 236.864567 
L 382.1535 236.864869 
L 383.33115 239.71835 
L 386.8641 239.718773 
L 388.04175 243.203386 
L 391.5747 243.203462 
L 392.75235 246.245461 
L 396.2853 246.24583 
L 397.46295 248.784012 
L 400.9959 248.783965 
L 402.17355 251.710208 
L 405.7065 251.710568 
L 406.88415 254.638341 
L 410.4171 254.638149 
L 411.59475 257.343601 
L 415.1277 257.343933 
L 416.30535 260.47456 
L 419.8383 260.474239 
L 421.01595 263.421511 
L 424.5489 263.420914 
L 425.72655 266.350888 
L 429.2595 266.350753 
L 430.43715 269.059688 
L 433.9701 269.059123 
L 435.14775 272.535623 
L 438.6807 272.535635 
L 439.85835 275.517275 
L 443.3913 275.516338 
L 444.56895 278.576663 
L 448.1019 278.577936 
L 449.27955 281.467177 
L 452.8125 281.468801 
L 453.99015 284.47903 
L 457.5231 284.478381 
L 458.70075 287.230981 
L 462.2337 287.231464 
L 463.41135 290.318686 
L 466.9443 290.31849 
L 468.12195 293.219419 
L 471.6549 293.219422 
L 472.83255 296.499915 
L 476.3655 296.500654 
L 477.54315 299.359428 
L 481.0761 299.359476 
L 482.25375 302.547825 
L 485.7867 302.547364 
L 486.96435 305.553129 
L 490.4973 305.55319 
L 491.67495 308.817922 
L 495.2079 308.818156 
L 496.38555 311.827699 
L 499.9185 311.826756 
L 501.09615 314.791695 
L 504.6291 314.791816 
L 505.80675 318.04164 
L 509.3397 318.044592 
L 510.51735 321.102953 
L 514.0503 321.103668 
L 515.22795 324.202085 
L 518.7609 324.20252 
L 519.93855 327.370585 
L 523.4715 327.371568 
L 524.64915 330.355418 
L 528.1821 330.35622 
L 529.35975 333.003117 
L 532.8927 333.003193 
L 534.07035 335.913001 
L 537.6033 335.913054 
L 538.78095 338.591708 
L 542.3139 338.59413 
L 543.49155 341.505144 
L 547.0245 341.50491 
L 548.20215 344.703782 
L 551.7351 344.70367 
L 552.91275 348.03477 
L 556.4457 348.035222 
L 557.62335 350.681137 
L 561.1563 350.679622 
L 562.33395 354.241928 
L 565.8669 354.241194 
L 567.04455 357.361442 
L 570.5775 357.361466 
L 571.75515 359.912164 
L 575.2881 359.913966 
L 576.46575 363.12175 
L 579.9987 363.12173 
L 581.17635 366.203786 
L 584.7093 366.204179 
L 585.88695 369.24869 
L 589.4199 369.248695 
L 590.59755 372.195501 
L 594.1305 372.196509 
L 595.30815 375.432304 
L 598.8411 375.433079 
L 600.01875 378.418687 
L 603.5517 378.418675 
L 604.72935 381.644038 
L 608.2623 381.646468 
L 609.43995 384.537285 
L 612.9729 384.537112 
L 614.15055 387.24115 
L 617.6835 387.240836 
L 618.86115 390.436666 
L 622.3941 390.436716 
L 623.57175 393.624695 
L 627.1047 393.623841 
L 628.28235 396.724595 
L 631.8153 396.724177 
L 632.99295 399.378321 
L 636.5259 399.378274 
L 637.70355 402.307621 
L 641.2365 402.308137 
L 642.41415 405.504456 
L 645.9471 405.504605 
L 647.12475 408.414471 
L 650.6577 408.414439 
L 651.83535 411.218219 
L 655.3683 411.218229 
L 656.54595 414.531296 
L 660.0789 414.531504 
L 661.25655 417.300429 
L 664.7895 417.301028 
L 665.96715 420.33225 
L 669.5001 420.332105 
L 670.67775 423.805033 
L 674.2107 423.804358 
L 675.38835 426.82222 
L 678.9213 426.822354 
L 680.09895 429.914457 
L 683.6319 429.915393 
L 684.80955 432.897893 
L 688.3425 432.8971 
L 689.52015 435.729642 
L 693.0531 435.729562 
L 694.23075 438.591252 
L 697.7637 438.591205 
L 698.94135 441.815277 
L 702.4743 441.815277 
L 703.65195 444.345608 
L 707.1849 444.350963 
L 708.36255 447.328729 
L 711.8955 447.326373 
L 713.07315 450.158992 
L 716.6061 450.161724 
L 717.78375 452.999416 
L 721.3167 452.999287 
L 722.49435 455.937924 
L 726.0273 455.938488 
L 727.20495 459.039543 
L 730.7379 459.040303 
L 731.91555 461.997198 
L 735.4485 462.000043 
L 736.62615 464.966489 
L 740.1591 464.967527 
L 741.33675 467.948687 
L 744.8697 467.9487 
L 746.04735 471.00485 
L 749.5803 471.003291 
L 750.75795 474.061756 
L 754.2909 474.060538 
L 755.46855 477.035754 
L 759.0015 477.035882 
L 760.17915 480.284945 
L 763.7121 480.284356 
L 764.88975 483.660632 
L 768.4227 483.662455 
L 769.60035 486.798441 
L 773.1333 486.798688 
L 774.31095 489.900945 
L 777.8439 489.900816 
L 779.02155 493.011233 
L 782.5545 493.010101 
L 783.73215 496.051629 
L 787.2651 496.051702 
L 788.44275 498.329422 
L 791.9757 498.330983 
L 793.15335 501.402643 
L 796.6863 501.402158 
L 797.86395 503.964215 
L 801.3969 503.964317 
L 802.57455 506.848792 
L 806.1075 506.847794 
L 807.28515 509.827956 
L 810.8181 509.827966 
L 811.99575 512.877459 
L 815.5287 512.877086 
L 816.70635 515.70394 
L 820.2393 515.704037 
L 821.41695 519.079078 
L 824.9499 519.079448 
L 826.12755 522.145444 
L 829.6605 522.14521 
L 830.83815 524.919434 
L 834.3711 524.919345 
L 835.54875 528.386292 
L 839.0817 528.386792 
L 840.25935 531.326061 
L 843.7923 531.326306 
L 844.96995 534.475301 
L 848.5029 534.4754 
L 849.68055 537.145548 
L 853.2135 537.145512 
L 854.39115 540.116558 
L 857.9241 540.117404 
L 859.10175 543.082848 
L 862.6347 543.083102 
L 863.81235 546.018206 
L 867.3453 546.01482 
L 868.52295 548.719925 
L 872.0559 548.71876 
L 873.23355 552.074271 
L 876.7665 552.073947 
L 877.94415 554.941516 
L 881.4771 554.942172 
L 882.65475 558.418639 
L 886.1877 558.419789 
L 887.36535 561.476566 
L 890.8983 561.477424 
L 892.07595 564.396037 
L 895.6089 564.396618 
L 896.78655 567.854428 
L 900.3195 567.853524 
L 901.49715 570.542235 
L 905.0301 570.54256 
L 906.20775 573.783103 
L 909.7407 573.783354 
L 910.91835 576.886288 
L 914.4513 576.886634 
L 915.62895 579.90843 
L 919.1619 579.908587 
L 920.33955 583.216282 
L 923.8725 583.217662 
L 925.05015 585.836846 
L 928.5831 585.837487 
L 929.76075 588.878401 
L 933.2937 588.878389 
L 934.47135 591.831673 
L 938.0043 591.832027 
L 939.18195 595.047683 
L 942.7149 595.047148 
L 943.89255 598.099875 
L 947.4255 598.099274 
L 948.60315 601.223703 
L 952.1361 601.222792 
L 953.31375 604.337453 
L 956.8467 604.337714 
L 958.02435 607.270389 
L 961.5573 607.269666 
L 962.73495 610.082672 
L 966.2679 610.082769 
L 967.44555 613.058801 
L 970.9785 613.057442 
L 972.15615 616.312181 
L 975.6891 616.312096 
L 976.86675 619.084622 
L 980.3997 619.089389 
L 981.57735 622.330185 
L 985.1103 622.329931 
L 986.28795 625.47634 
L 989.8209 625.476306 
L 990.99855 628.604905 
L 994.5315 628.604881 
L 995.70915 631.551177 
L 999.2421 631.553179 
L 1000.41975 634.796214 
L 1003.9527 634.795588 
L 1005.13035 637.512026 
L 1008.6633 637.512131 
L 1009.84095 640.514022 
L 1013.3739 640.516095 
L 1014.55155 643.666639 
L 1018.0845 643.668917 
L 1019.26215 646.636536 
L 1022.7951 646.63702 
L 1023.97275 649.744434 
L 1027.5057 649.742506 
L 1028.68335 652.838657 
L 1032.2163 652.838633 
L 1033.39395 656.040181 
L 1036.9269 656.039637 
L 1038.10455 658.742858 
L 1041.6375 658.742861 
L 1042.81515 661.441074 
L 1046.3481 661.440401 
L 1047.52575 663.957711 
L 1051.0587 663.957527 
L 1052.23635 666.382311 
L 1055.7693 666.380982 
L 1056.94695 668.769903 
L 1060.4799 668.769176 
L 1061.65755 670.945957 
L 1065.1905 670.945327 
L 1066.36815 672.78612 
L 1069.9011 672.785065 
L 1071.07875 674.532307 
L 1074.6117 674.531226 
L 1075.78935 676.254555 
L 1079.3223 676.253283 
L 1080.49995 677.521925 
L 1084.0329 677.523548 
L 1085.21055 677.868373 
L 1088.7435 677.869725 
L 1089.92115 678.404655 
L 1093.4541 678.409426 
L 1094.63175 678.782836 
L 1096.98705 678.782836 
L 1098.1647 678.896384 
L 1099.34235 679.395816 
L 1101.69765 679.396058 
L 1105.2306 679.776449 
L 1107.5859 679.762702 
L 1108.76355 679.971015 
L 1111.11885 679.970323 
L 1113.47415 680.639342 
L 1115.82945 680.63832 
L 1118.18475 681.094387 
L 1120.54005 681.093143 
L 1121.7177 681.244335 
L 1124.073 681.16083 
L 1125.25065 681.157147 
L 1127.60595 681.534591 
L 1129.96125 681.539031 
L 1132.31655 681.311954 
L 1135.8495 681.394081 
L 1138.2048 681.460109 
L 1139.38245 681.45905 
L 1140.5601 681.83492 
L 1141.73775 681.975396 
L 1149.9813 682.033735 
L 1151.15895 681.823224 
L 1153.51425 681.822307 
L 1154.6919 682.194249 
L 1160.58015 682.139859 
L 1162.93545 682.139481 
L 1164.1131 682.426187 
L 1167.64605 682.455001 
L 1168.8237 681.768728 
L 1170.00135 681.6442 
L 1172.35665 681.641372 
L 1173.5343 681.907232 
L 1177.06725 681.887469 
L 1178.2449 681.594839 
L 1181.77785 681.574066 
L 1182.9555 681.736826 
L 1186.48845 681.733093 
L 1187.6661 682.283241 
L 1191.19905 682.282607 
L 1193.55435 682.43668 
L 1200.62025 682.403286 
L 1201.7979 682.164005 
L 1210.04145 682.110088 
L 1211.2191 681.784913 
L 1214.75205 681.748817 
L 1217.10735 681.869128 
L 1219.46265 681.870438 
L 1220.6403 681.716388 
L 1224.17325 681.675747 
L 1225.3509 682.124984 
L 1232.4168 682.079208 
L 1233.59445 682.079288 
L 1234.7721 681.559779 
L 1238.30505 681.597544 
L 1239.4827 681.881803 
L 1243.01565 681.887052 
L 1244.1933 681.571266 
L 1247.72625 681.580195 
L 1248.9039 681.408093 
L 1257.14745 681.40613 
L 1258.3251 681.708194 
L 1261.85805 681.71208 
L 1263.0357 681.386543 
L 1266.56865 681.406146 
L 1267.7463 681.214266 
L 1271.27925 681.255485 
L 1272.4569 681.821888 
L 1285.41105 681.848161 
L 1286.5887 681.278735 
L 1290.12165 681.268985 
L 1291.2993 681.420346 
L 1294.83225 681.430156 
L 1297.18755 681.322915 
L 1299.54285 681.325881 
L 1300.7205 681.519238 
L 1308.96405 681.404178 
L 1310.1417 681.134633 
L 1313.67465 681.112472 
L 1316.02995 681.200706 
L 1323.09585 681.294365 
L 1324.2735 681.662778 
L 1327.80645 681.685546 
L 1328.9841 681.92637 
L 1334.87235 681.784869 
L 1336.05 681.790604 
L 1336.05 681.790604 
" style="fill:none;stroke:#0000ff;stroke-linecap:square;stroke-width:2.0;"/>
   </g>
   <g id="line2d_2">
    <path clip-path="url(#pa8427eab1f)" d="M 159.57765 97.122117 
L 160.7553 97.331735 
L 164.28825 100.346099 
L 165.4659 100.346639 
L 166.64355 102.86368 
L 167.8212 102.530342 
L 168.99885 104.433829 
L 170.1765 104.433304 
L 171.35415 106.031182 
L 172.5318 106.032263 
L 173.70945 108.147888 
L 174.8871 108.146786 
L 176.06475 109.050954 
L 177.2424 109.056945 
L 178.42005 111.615701 
L 179.5977 111.61449 
L 180.77535 111.399505 
L 181.953 111.399106 
L 183.13065 114.635317 
L 184.3083 114.63438 
L 185.48595 114.862262 
L 186.6636 114.862276 
L 187.84125 116.996662 
L 189.0189 116.997439 
L 190.19655 118.431599 
L 191.3742 118.431627 
L 192.55185 119.730173 
L 193.7295 119.726786 
L 194.90715 122.02282 
L 196.0848 122.022772 
L 197.26245 122.419828 
L 198.4401 122.419809 
L 199.61775 125.288571 
L 200.7954 125.288298 
L 201.97305 125.722827 
L 203.1507 125.722384 
L 204.32835 128.245962 
L 205.506 128.246501 
L 206.68365 129.622576 
L 207.8613 129.62263 
L 209.03895 130.760555 
L 210.2166 130.763801 
L 211.39425 133.344385 
L 212.5719 133.34436 
L 213.74955 133.101849 
L 214.9272 133.101709 
L 216.10485 136.14122 
L 217.2825 136.140598 
L 218.46015 136.455041 
L 219.6378 136.455048 
L 220.81545 138.596175 
L 221.9931 138.594673 
L 223.17075 139.978064 
L 224.3484 139.97818 
L 225.52605 141.123491 
L 226.7037 141.125137 
L 227.88135 143.814295 
L 229.059 143.814273 
L 230.23665 143.621346 
L 231.4143 143.621595 
L 232.59195 147.231273 
L 233.7696 147.231275 
L 234.94725 147.62131 
L 236.1249 147.621298 
L 237.30255 149.838277 
L 238.4802 149.840245 
L 239.65785 151.480159 
L 240.8355 151.480594 
L 242.01315 152.864112 
L 243.1908 152.866472 
L 244.36845 155.537882 
L 245.5461 155.537655 
L 246.72375 155.192324 
L 247.9014 155.192526 
L 249.07905 158.522496 
L 250.2567 158.523129 
L 251.43435 158.905876 
L 252.612 158.905754 
L 253.78965 161.107275 
L 254.9673 161.106942 
L 256.14495 162.388673 
L 257.3226 162.388552 
L 258.50025 163.635717 
L 259.6779 163.637309 
L 260.85555 166.139801 
L 262.0332 166.139786 
L 263.21085 166.44072 
L 264.3885 166.44033 
L 265.56615 169.299921 
L 266.7438 169.299743 
L 267.92145 169.614627 
L 269.0991 169.614755 
L 270.27675 171.988489 
L 271.4544 171.988781 
L 272.63205 173.13637 
L 273.8097 173.13661 
L 274.98735 174.38919 
L 276.165 174.384988 
L 277.34265 176.39913 
L 278.5203 176.399751 
L 279.69795 176.777998 
L 280.8756 176.77725 
L 282.05325 179.965305 
L 283.2309 179.9653 
L 284.40855 180.170173 
L 285.5862 180.167997 
L 286.76385 182.300659 
L 287.9415 182.300484 
L 289.11915 183.310969 
L 290.2968 183.311102 
L 291.47445 184.709624 
L 292.6521 184.710721 
L 293.82975 186.22353 
L 295.0074 186.223525 
L 296.18505 186.654433 
L 297.3627 186.654384 
L 298.54035 189.701565 
L 299.718 189.701548 
L 300.89565 189.846842 
L 302.0733 189.846885 
L 303.25095 192.621492 
L 304.4286 192.62139 
L 305.60625 193.436256 
L 306.7839 193.436443 
L 307.96155 195.034694 
L 309.1392 195.036804 
L 310.31685 196.883881 
L 311.4945 196.883928 
L 312.67215 197.493211 
L 313.8498 197.488299 
L 315.02745 200.68385 
L 318.5604 200.704655 
L 319.73805 203.73217 
L 320.9157 203.731398 
L 322.09335 204.523582 
L 323.271 204.523952 
L 324.44865 206.188852 
L 325.6263 206.188136 
L 326.80395 207.84375 
L 327.9816 207.843813 
L 329.15925 208.725127 
L 330.3369 208.723574 
L 331.51455 211.790675 
L 332.6922 211.79076 
L 333.86985 211.667577 
L 335.0475 211.667509 
L 336.22515 214.698443 
L 337.4028 214.69843 
L 338.58045 215.400967 
L 339.7581 215.400953 
L 340.93575 217.574597 
L 342.1134 217.577563 
L 343.29105 218.914695 
L 344.4687 218.914741 
L 345.64635 219.917719 
L 346.824 219.921296 
L 348.00165 222.890795 
L 349.1793 222.890841 
L 350.35695 222.583798 
L 351.5346 222.584055 
L 352.71225 225.571701 
L 353.8899 225.57366 
L 355.06755 226.046071 
L 356.2452 226.045915 
L 357.42285 228.40313 
L 358.6005 228.400966 
L 359.77815 229.646551 
L 360.9558 229.646618 
L 362.13345 230.705965 
L 363.3111 230.705419 
L 364.48875 233.152138 
L 365.6664 233.152054 
L 366.84405 233.460893 
L 368.0217 233.460817 
L 369.19935 236.182506 
L 370.377 236.182343 
L 371.55465 236.449748 
L 372.7323 236.449998 
L 373.90995 238.544104 
L 375.0876 238.544059 
L 376.26525 239.844839 
L 377.4429 239.863775 
L 378.62055 241.431512 
L 379.7982 241.432347 
L 380.97585 242.630064 
L 382.1535 242.628777 
L 383.33115 244.129318 
L 384.5088 244.124335 
L 385.68645 245.529376 
L 386.8641 245.529646 
L 388.04175 247.34788 
L 389.2194 247.349845 
L 390.39705 248.753503 
L 391.5747 248.763683 
L 392.75235 250.265328 
L 393.93 250.264158 
L 395.10765 251.934208 
L 396.2853 251.929016 
L 397.46295 253.917107 
L 398.6406 253.919079 
L 399.81825 255.383368 
L 400.9959 255.424938 
L 402.17355 256.925515 
L 403.3512 256.927104 
L 404.52885 258.336222 
L 405.7065 258.397053 
L 406.88415 259.854044 
L 408.0618 259.852127 
L 409.23945 261.236306 
L 410.4171 261.236213 
L 411.59475 262.752585 
L 412.7724 262.755547 
L 413.95005 264.267841 
L 415.1277 264.351753 
L 416.30535 266.206915 
L 417.483 266.206212 
L 418.66065 267.412676 
L 419.8383 267.469232 
L 421.01595 269.074403 
L 422.1936 269.075632 
L 423.37125 270.533115 
L 424.5489 270.611444 
L 425.72655 272.642797 
L 426.9042 272.642603 
L 428.08185 274.092893 
L 429.2595 274.110014 
L 430.43715 275.664499 
L 431.6148 275.666068 
L 432.79245 276.792088 
L 433.9701 276.824165 
L 435.14775 278.552952 
L 436.3254 278.555227 
L 437.50305 279.628428 
L 438.6807 279.664375 
L 439.85835 281.05341 
L 441.036 281.050992 
L 442.21365 282.304857 
L 443.3913 282.347115 
L 444.56895 283.974933 
L 445.7466 283.977466 
L 446.92425 285.293871 
L 448.1019 285.34 
L 449.27955 286.852837 
L 450.4572 286.852922 
L 451.63485 288.067005 
L 452.8125 288.104834 
L 453.99015 289.533446 
L 455.1678 289.537474 
L 456.34545 290.702323 
L 457.5231 290.787803 
L 458.70075 292.29222 
L 459.8784 292.2935 
L 461.05605 293.887376 
L 462.2337 293.9103 
L 463.41135 295.579511 
L 464.589 295.575821 
L 465.76665 296.984243 
L 466.9443 297.006328 
L 468.12195 298.682345 
L 469.2996 298.685357 
L 470.47725 300.23331 
L 471.6549 300.288293 
L 472.83255 302.146436 
L 474.0102 302.14983 
L 475.18785 303.734314 
L 476.3655 303.820457 
L 477.54315 305.50525 
L 478.7208 305.500477 
L 479.89845 306.829423 
L 481.0761 306.870352 
L 482.25375 308.360878 
L 483.4314 308.382302 
L 484.60905 309.97399 
L 485.7867 310.076145 
L 486.96435 311.577165 
L 488.142 311.761134 
L 489.31965 313.210263 
L 490.4973 313.314632 
L 491.67495 314.734891 
L 492.8526 314.899772 
L 494.03025 316.326871 
L 495.2079 316.567298 
L 496.38555 317.788787 
L 497.5632 317.983975 
L 498.74085 319.325097 
L 499.9185 319.655377 
L 501.09615 320.916532 
L 502.2738 321.185505 
L 503.45145 322.638159 
L 504.6291 323.093331 
L 505.80675 324.226446 
L 506.9844 324.575991 
L 508.16205 326.154806 
L 509.3397 326.632429 
L 510.51735 327.73933 
L 511.695 327.938906 
L 512.87265 329.506247 
L 514.0503 329.988542 
L 515.22795 331.001196 
L 516.4056 331.26919 
L 517.58325 332.675805 
L 518.7609 333.459038 
L 519.93855 334.458951 
L 521.1162 334.821553 
L 522.29385 336.104901 
L 523.4715 336.536123 
L 524.64915 337.458568 
L 525.8268 337.683572 
L 527.00445 339.142009 
L 528.1821 339.610071 
L 529.35975 340.30285 
L 530.5374 340.629113 
L 531.71505 342.063824 
L 532.8927 342.549079 
L 534.07035 343.32065 
L 535.248 343.626547 
L 536.42565 345.058474 
L 537.6033 345.444087 
L 538.78095 346.120109 
L 539.9586 346.408561 
L 541.13625 347.860803 
L 542.3139 348.156907 
L 543.49155 348.987984 
L 544.6692 349.393127 
L 545.84685 351.390471 
L 547.0245 351.767356 
L 548.20215 352.356156 
L 549.3798 352.726276 
L 550.55745 354.229892 
L 551.7351 354.662237 
L 554.0904 355.711289 
L 555.26805 357.39368 
L 556.4457 357.780354 
L 557.62335 358.318085 
L 558.801 358.697722 
L 559.97865 360.810314 
L 563.5116 362.146997 
L 564.68925 363.856084 
L 568.2222 365.102586 
L 569.39985 366.834263 
L 570.5775 367.319124 
L 571.75515 367.53526 
L 572.9328 368.002758 
L 574.11045 369.89194 
L 575.2881 370.429608 
L 576.46575 370.626156 
L 577.6434 371.103281 
L 578.82105 373.249516 
L 579.9987 373.794251 
L 581.17635 373.94473 
L 582.354 374.381469 
L 583.53165 376.519596 
L 584.7093 376.988921 
L 585.88695 377.111684 
L 587.0646 377.516385 
L 588.24225 379.435549 
L 589.4199 379.914785 
L 590.59755 379.912402 
L 591.7752 380.404036 
L 592.95285 382.35453 
L 594.1305 382.641345 
L 595.30815 382.636265 
L 596.4858 383.218208 
L 597.66345 385.617942 
L 598.8411 385.85847 
L 600.01875 385.872476 
L 601.1964 386.553114 
L 602.37405 388.705692 
L 604.72935 388.787559 
L 605.907 389.538048 
L 607.08465 391.678972 
L 609.43995 391.69842 
L 610.6176 392.406282 
L 611.79525 394.139793 
L 614.15055 394.157456 
L 615.3282 395.117596 
L 616.50585 396.989182 
L 618.86115 396.989024 
L 620.0388 397.979904 
L 621.21645 399.608397 
L 623.57175 399.607707 
L 624.7494 400.686391 
L 625.92705 402.958072 
L 628.28235 402.959765 
L 629.46 403.829438 
L 630.63765 406.269432 
L 632.99295 406.268634 
L 634.1706 407.166693 
L 635.34825 409.321006 
L 637.70355 409.321226 
L 638.8812 410.123579 
L 640.05885 412.474645 
L 642.41415 412.475112 
L 643.5918 413.165006 
L 644.76945 415.631437 
L 647.12475 415.630732 
L 648.3024 416.29222 
L 649.48005 418.504309 
L 651.83535 418.508318 
L 653.013 418.965037 
L 654.19065 420.948228 
L 656.54595 420.94664 
L 657.7236 421.404503 
L 658.90125 423.791827 
L 661.25655 423.788943 
L 662.4342 424.34642 
L 663.61185 427.054054 
L 665.96715 427.054195 
L 667.1448 427.319158 
L 668.32245 429.870519 
L 670.67775 429.870448 
L 671.8554 430.260801 
L 673.03305 433.144659 
L 675.38835 433.146047 
L 676.566 433.356392 
L 677.74365 436.415943 
L 680.09895 436.419443 
L 681.2766 436.622801 
L 682.45425 439.419278 
L 684.80955 439.428103 
L 685.9872 439.546754 
L 687.16485 442.42071 
L 690.6978 442.49561 
L 691.87545 445.743684 
L 695.4084 445.818817 
L 696.58605 448.793486 
L 700.119 448.802722 
L 701.29665 451.697393 
L 704.8296 451.697256 
L 706.00725 454.56272 
L 709.5402 454.56213 
L 710.71785 457.852375 
L 714.2508 457.852548 
L 715.42845 461.221066 
L 718.9614 461.222176 
L 720.13905 464.367687 
L 723.672 464.367656 
L 724.84965 466.969532 
L 728.3826 466.970161 
L 729.56025 470.204859 
L 733.0932 470.205669 
L 734.27085 473.173943 
L 737.8038 473.173663 
L 738.98145 476.311538 
L 742.5144 476.314046 
L 743.69205 479.453151 
L 747.225 479.453354 
L 748.40265 482.540899 
L 749.5803 482.539999 
L 750.75795 482.927355 
L 751.9356 482.92778 
L 753.11325 485.064253 
L 754.2909 485.062787 
L 755.46855 486.571805 
L 756.6462 486.571828 
L 757.82385 487.796657 
L 759.0015 487.79624 
L 760.17915 490.336776 
L 761.3568 490.336762 
L 762.53445 490.057102 
L 763.7121 490.057149 
L 764.88975 493.567232 
L 766.0674 493.566081 
L 767.24505 493.898252 
L 768.4227 493.899076 
L 769.60035 495.948719 
L 770.778 495.950033 
L 771.95565 497.125444 
L 773.1333 497.126526 
L 774.31095 498.282346 
L 775.4886 498.282376 
L 776.66625 500.296727 
L 777.8439 500.296761 
L 779.02155 500.754143 
L 780.1992 500.754118 
L 781.37685 504.024473 
L 782.5545 504.024655 
L 783.73215 504.288591 
L 784.9098 504.288516 
L 786.08745 506.509632 
L 787.2651 506.510918 
L 788.44275 507.525299 
L 789.6204 507.525216 
L 790.79805 508.869644 
L 791.9757 508.869267 
L 793.15335 510.853724 
L 794.331 510.853692 
L 795.50865 511.393763 
L 796.6863 511.394311 
L 797.86395 514.1731 
L 799.0416 514.173671 
L 800.21925 514.394273 
L 801.3969 514.392863 
L 802.57455 517.237097 
L 803.7522 517.335212 
L 806.1075 518.398387 
L 807.28515 519.609466 
L 808.4628 520.455419 
L 809.64045 520.85697 
L 810.8181 521.813993 
L 811.99575 521.736078 
L 813.1734 522.484603 
L 814.35105 524.159398 
L 815.5287 523.88454 
L 816.70635 524.862173 
L 817.884 525.07339 
L 819.06165 526.740018 
L 820.2393 527.753686 
L 821.41695 527.765902 
L 822.5946 529.297197 
L 823.77225 528.893425 
L 824.9499 530.25524 
L 826.12755 531.826423 
L 827.3052 531.402159 
L 828.48285 532.495581 
L 829.6605 532.35472 
L 830.83815 534.449266 
L 832.0158 535.513873 
L 833.19345 535.573198 
L 834.3711 535.061506 
L 835.54875 537.406403 
L 836.7264 538.740791 
L 839.0817 538.740815 
L 840.25935 540.5396 
L 841.437 541.772979 
L 843.7923 541.776393 
L 844.96995 543.205627 
L 846.1476 544.385751 
L 848.5029 544.385887 
L 850.8582 546.939881 
L 853.2135 546.939585 
L 855.5688 550.047053 
L 857.9241 550.047791 
L 859.10175 551.337054 
L 860.2794 552.870979 
L 862.6347 552.870781 
L 864.99 555.701921 
L 867.3453 555.703607 
L 868.52295 557.082427 
L 869.7006 558.935513 
L 872.0559 558.935421 
L 873.23355 560.114342 
L 874.4112 562.108904 
L 876.7665 562.109269 
L 877.94415 563.089228 
L 879.1218 564.751765 
L 881.4771 564.753298 
L 882.65475 565.644519 
L 883.8324 567.937698 
L 886.1877 567.936905 
L 887.36535 568.849702 
L 888.543 571.084051 
L 890.8983 571.083211 
L 892.07595 572.024547 
L 893.2536 574.385679 
L 895.6089 574.385957 
L 896.78655 575.116587 
L 897.9642 577.505422 
L 900.3195 577.505241 
L 901.49715 578.230918 
L 902.6748 580.521529 
L 905.0301 580.520203 
L 906.20775 581.083171 
L 907.3854 583.769332 
L 909.7407 583.769465 
L 910.91835 584.357611 
L 912.096 586.574503 
L 914.4513 586.574597 
L 915.62895 587.042792 
L 916.8066 589.256336 
L 919.1619 589.257147 
L 920.33955 589.799244 
L 921.5172 591.919158 
L 923.8725 591.919103 
L 925.05015 592.268724 
L 926.2278 594.727236 
L 928.5831 594.726187 
L 929.76075 595.038865 
L 930.9384 597.822741 
L 933.2937 597.827859 
L 934.47135 598.046158 
L 935.649 601.057118 
L 938.0043 601.062374 
L 939.18195 601.737281 
L 940.3596 603.949934 
L 942.7149 603.949912 
L 943.89255 604.736468 
L 945.0702 607.09063 
L 947.4255 607.089108 
L 948.60315 607.885407 
L 949.7808 610.391521 
L 952.1361 610.396598 
L 953.31375 611.181997 
L 954.4914 613.664308 
L 956.8467 613.664247 
L 958.02435 614.442551 
L 959.202 616.47543 
L 961.5573 616.475941 
L 962.73495 617.177256 
L 963.9126 619.488109 
L 966.2679 619.489037 
L 967.44555 620.119942 
L 968.6232 622.501411 
L 970.9785 622.506588 
L 972.15615 623.132002 
L 973.3338 625.721134 
L 975.6891 625.721844 
L 976.86675 626.281837 
L 978.0444 628.802097 
L 980.3997 628.801242 
L 981.57735 629.296566 
L 982.755 631.607202 
L 985.1103 631.608205 
L 986.28795 631.939322 
L 987.4656 634.68066 
L 989.8209 634.680826 
L 990.99855 635.028326 
L 992.1762 637.584822 
L 994.5315 637.586339 
L 995.70915 637.935283 
L 996.8868 640.655159 
L 999.2421 640.6533 
L 1000.41975 640.958804 
L 1001.5974 643.860988 
L 1003.9527 643.860441 
L 1005.13035 644.108388 
L 1006.308 646.779132 
L 1008.6633 646.783 
L 1009.84095 646.9961 
L 1011.0186 649.487511 
L 1013.3739 649.495768 
L 1014.55155 649.665416 
L 1015.7292 652.629631 
L 1018.0845 652.629395 
L 1019.26215 652.769091 
L 1020.4398 655.425668 
L 1023.97275 655.480517 
L 1025.1504 658.049076 
L 1028.68335 658.054584 
L 1029.861 660.729447 
L 1033.39395 660.730243 
L 1034.5716 663.081591 
L 1038.10455 663.083837 
L 1039.2822 665.530493 
L 1042.81515 665.534471 
L 1043.9928 668.07051 
L 1047.52575 668.071903 
L 1048.7034 669.905731 
L 1052.23635 669.905184 
L 1053.414 671.87049 
L 1056.94695 671.870528 
L 1058.1246 673.780177 
L 1061.65755 673.780218 
L 1062.8352 674.856129 
L 1066.36815 674.852628 
L 1067.5458 675.948106 
L 1071.07875 675.945508 
L 1072.2564 677.163285 
L 1075.78935 677.161566 
L 1076.967 677.959452 
L 1080.49995 677.960769 
L 1081.6776 678.930713 
L 1085.21055 678.93101 
L 1086.3882 679.437443 
L 1089.92115 679.437761 
L 1091.0988 679.144933 
L 1094.63175 679.149171 
L 1095.8094 679.53119 
L 1099.34235 679.529867 
L 1100.52 680.417006 
L 1104.05295 680.415893 
L 1105.2306 680.759036 
L 1108.76355 680.769962 
L 1109.9412 680.606061 
L 1113.47415 680.610267 
L 1114.6518 681.187923 
L 1118.18475 681.201925 
L 1119.3624 681.395012 
L 1122.89535 681.397078 
L 1124.073 681.675259 
L 1127.60595 681.676307 
L 1128.7836 681.485788 
L 1132.31655 681.48735 
L 1133.4942 681.639712 
L 1146.44835 681.694382 
L 1147.626 681.911041 
L 1151.15895 681.912112 
L 1152.3366 681.514063 
L 1155.86955 681.51556 
L 1157.0472 681.372157 
L 1160.58015 681.37266 
L 1161.7578 681.165625 
L 1165.29075 681.166608 
L 1166.4684 681.614653 
L 1170.00135 681.611608 
L 1171.179 682.207373 
L 1174.71195 682.206709 
L 1175.8896 681.619894 
L 1184.13315 681.569126 
L 1186.48845 681.477889 
L 1188.84375 681.478366 
L 1190.0214 681.263868 
L 1193.55435 681.26232 
L 1194.732 681.531152 
L 1198.26495 681.535825 
L 1199.4426 681.239145 
L 1202.97555 681.238237 
L 1204.1532 681.509562 
L 1207.68615 681.510557 
L 1208.8638 682.23558 
L 1212.39675 682.231759 
L 1213.5744 681.994605 
L 1217.10735 681.9983 
L 1218.285 681.464225 
L 1221.81795 681.463176 
L 1222.9956 681.681672 
L 1226.52855 681.681743 
L 1227.7062 681.794164 
L 1231.23915 681.79374 
L 1232.4168 681.460252 
L 1235.94975 681.462625 
L 1237.1274 681.747 
L 1245.37095 681.756452 
L 1246.5486 681.577227 
L 1250.08155 681.574651 
L 1251.2592 681.925627 
L 1254.79215 681.925727 
L 1255.9698 681.593908 
L 1278.34515 681.555591 
L 1279.5228 681.427254 
L 1287.76635 681.424685 
L 1288.944 680.882027 
L 1292.47695 680.885501 
L 1293.6546 681.085562 
L 1296.0099 681.085745 
L 1297.18755 680.742613 
L 1299.54285 680.742393 
L 1300.7205 681.585131 
L 1303.0758 681.585195 
L 1304.25345 681.984599 
L 1307.7864 682.00136 
L 1308.96405 681.853123 
L 1310.1417 681.852453 
L 1311.31935 681.437664 
L 1314.8523 681.477745 
L 1319.5629 681.699502 
L 1320.74055 682.024819 
L 1324.2735 681.948798 
L 1325.45115 682.161146 
L 1328.9841 682.17874 
L 1330.16175 681.851738 
L 1331.3394 681.84851 
L 1332.51705 682.058705 
L 1334.87235 682.001134 
L 1336.05 681.882381 
L 1336.05 681.882381 
" style="fill:none;stroke:#008000;stroke-linecap:square;stroke-width:2.0;"/>
   </g>
   <g id="patch_3">
    <path d="M 158.4 51.3 
L 1336.05 51.3 
" style="fill:none;stroke:#000000;stroke-linecap:square;stroke-linejoin:miter;"/>
   </g>
   <g id="patch_4">
    <path d="M 1336.05 747 
L 1336.05 51.3 
" style="fill:none;stroke:#000000;stroke-linecap:square;stroke-linejoin:miter;"/>
   </g>
   <g id="patch_5">
    <path d="M 158.4 747 
L 1336.05 747 
" style="fill:none;stroke:#000000;stroke-linecap:square;stroke-linejoin:miter;"/>
   </g>
   <g id="patch_6">
    <path d="M 158.4 747 
L 158.4 51.3 
" style="fill:none;stroke:#000000;stroke-linecap:square;stroke-linejoin:miter;"/>
   </g>
   <g id="matplotlib.axis_1">
    <g id="xtick_1">
     <g id="line2d_3">
      <defs>
       <path d="M 0 0 
L 0 -4 
" id="m3897cb36cd" style="stroke:#000000;stroke-width:0.5;"/>
      </defs>
      <g>
       <use style="stroke:#000000;stroke-width:0.5;" x="158.4" xlink:href="#m3897cb36cd" y="747.0"/>
      </g>
     </g>
     <g id="line2d_4">
      <defs>
       <path d="M 0 0 
L 0 4 
" id="m325b0f4de1" style="stroke:#000000;stroke-width:0.5;"/>
      </defs>
      <g>
       <use style="stroke:#000000;stroke-width:0.5;" x="158.4" xlink:href="#m325b0f4de1" y="51.3"/>
      </g>
     </g>
     <g id="text_1">
      <!-- 0 -->
      <defs>
       <path d="M 31.78125 66.40625 
Q 24.171875 66.40625 20.328125 58.90625 
Q 16.5 51.421875 16.5 36.375 
Q 16.5 21.390625 20.328125 13.890625 
Q 24.171875 6.390625 31.78125 6.390625 
Q 39.453125 6.390625 43.28125 13.890625 
Q 47.125 21.390625 47.125 36.375 
Q 47.125 51.421875 43.28125 58.90625 
Q 39.453125 66.40625 31.78125 66.40625 
M 31.78125 74.21875 
Q 44.046875 74.21875 50.515625 64.515625 
Q 56.984375 54.828125 56.984375 36.375 
Q 56.984375 17.96875 50.515625 8.265625 
Q 44.046875 -1.421875 31.78125 -1.421875 
Q 19.53125 -1.421875 13.0625 8.265625 
Q 6.59375 17.96875 6.59375 36.375 
Q 6.59375 54.828125 13.0625 64.515625 
Q 19.53125 74.21875 31.78125 74.21875 
" id="BitstreamVeraSans-Roman-30"/>
      </defs>
      <g transform="translate(148.85625 773.7953125)scale(0.3 -0.3)">
       <use xlink:href="#BitstreamVeraSans-Roman-30"/>
      </g>
     </g>
    </g>
    <g id="xtick_2">
     <g id="line2d_5">
      <g>
       <use style="stroke:#000000;stroke-width:0.5;" x="393.93" xlink:href="#m3897cb36cd" y="747.0"/>
      </g>
     </g>
     <g id="line2d_6">
      <g>
       <use style="stroke:#000000;stroke-width:0.5;" x="393.93" xlink:href="#m325b0f4de1" y="51.3"/>
      </g>
     </g>
     <g id="text_2">
      <!-- 20000 -->
      <defs>
       <path d="M 19.1875 8.296875 
L 53.609375 8.296875 
L 53.609375 0 
L 7.328125 0 
L 7.328125 8.296875 
Q 12.9375 14.109375 22.625 23.890625 
Q 32.328125 33.6875 34.8125 36.53125 
Q 39.546875 41.84375 41.421875 45.53125 
Q 43.3125 49.21875 43.3125 52.78125 
Q 43.3125 58.59375 39.234375 62.25 
Q 35.15625 65.921875 28.609375 65.921875 
Q 23.96875 65.921875 18.8125 64.3125 
Q 13.671875 62.703125 7.8125 59.421875 
L 7.8125 69.390625 
Q 13.765625 71.78125 18.9375 73 
Q 24.125 74.21875 28.421875 74.21875 
Q 39.75 74.21875 46.484375 68.546875 
Q 53.21875 62.890625 53.21875 53.421875 
Q 53.21875 48.921875 51.53125 44.890625 
Q 49.859375 40.875 45.40625 35.40625 
Q 44.1875 33.984375 37.640625 27.21875 
Q 31.109375 20.453125 19.1875 8.296875 
" id="BitstreamVeraSans-Roman-32"/>
      </defs>
      <g transform="translate(346.21125 773.7953125)scale(0.3 -0.3)">
       <use xlink:href="#BitstreamVeraSans-Roman-32"/>
       <use x="63.623046875" xlink:href="#BitstreamVeraSans-Roman-30"/>
       <use x="127.24609375" xlink:href="#BitstreamVeraSans-Roman-30"/>
       <use x="190.869140625" xlink:href="#BitstreamVeraSans-Roman-30"/>
       <use x="254.4921875" xlink:href="#BitstreamVeraSans-Roman-30"/>
      </g>
     </g>
    </g>
    <g id="xtick_3">
     <g id="line2d_7">
      <g>
       <use style="stroke:#000000;stroke-width:0.5;" x="629.46" xlink:href="#m3897cb36cd" y="747.0"/>
      </g>
     </g>
     <g id="line2d_8">
      <g>
       <use style="stroke:#000000;stroke-width:0.5;" x="629.46" xlink:href="#m325b0f4de1" y="51.3"/>
      </g>
     </g>
     <g id="text_3">
      <!-- 40000 -->
      <defs>
       <path d="M 37.796875 64.3125 
L 12.890625 25.390625 
L 37.796875 25.390625 
z
M 35.203125 72.90625 
L 47.609375 72.90625 
L 47.609375 25.390625 
L 58.015625 25.390625 
L 58.015625 17.1875 
L 47.609375 17.1875 
L 47.609375 0 
L 37.796875 0 
L 37.796875 17.1875 
L 4.890625 17.1875 
L 4.890625 26.703125 
z
" id="BitstreamVeraSans-Roman-34"/>
      </defs>
      <g transform="translate(581.74125 773.7953125)scale(0.3 -0.3)">
       <use xlink:href="#BitstreamVeraSans-Roman-34"/>
       <use x="63.623046875" xlink:href="#BitstreamVeraSans-Roman-30"/>
       <use x="127.24609375" xlink:href="#BitstreamVeraSans-Roman-30"/>
       <use x="190.869140625" xlink:href="#BitstreamVeraSans-Roman-30"/>
       <use x="254.4921875" xlink:href="#BitstreamVeraSans-Roman-30"/>
      </g>
     </g>
    </g>
    <g id="xtick_4">
     <g id="line2d_9">
      <g>
       <use style="stroke:#000000;stroke-width:0.5;" x="864.99" xlink:href="#m3897cb36cd" y="747.0"/>
      </g>
     </g>
     <g id="line2d_10">
      <g>
       <use style="stroke:#000000;stroke-width:0.5;" x="864.99" xlink:href="#m325b0f4de1" y="51.3"/>
      </g>
     </g>
     <g id="text_4">
      <!-- 60000 -->
      <defs>
       <path d="M 33.015625 40.375 
Q 26.375 40.375 22.484375 35.828125 
Q 18.609375 31.296875 18.609375 23.390625 
Q 18.609375 15.53125 22.484375 10.953125 
Q 26.375 6.390625 33.015625 6.390625 
Q 39.65625 6.390625 43.53125 10.953125 
Q 47.40625 15.53125 47.40625 23.390625 
Q 47.40625 31.296875 43.53125 35.828125 
Q 39.65625 40.375 33.015625 40.375 
M 52.59375 71.296875 
L 52.59375 62.3125 
Q 48.875 64.0625 45.09375 64.984375 
Q 41.3125 65.921875 37.59375 65.921875 
Q 27.828125 65.921875 22.671875 59.328125 
Q 17.53125 52.734375 16.796875 39.40625 
Q 19.671875 43.65625 24.015625 45.921875 
Q 28.375 48.1875 33.59375 48.1875 
Q 44.578125 48.1875 50.953125 41.515625 
Q 57.328125 34.859375 57.328125 23.390625 
Q 57.328125 12.15625 50.6875 5.359375 
Q 44.046875 -1.421875 33.015625 -1.421875 
Q 20.359375 -1.421875 13.671875 8.265625 
Q 6.984375 17.96875 6.984375 36.375 
Q 6.984375 53.65625 15.1875 63.9375 
Q 23.390625 74.21875 37.203125 74.21875 
Q 40.921875 74.21875 44.703125 73.484375 
Q 48.484375 72.75 52.59375 71.296875 
" id="BitstreamVeraSans-Roman-36"/>
      </defs>
      <g transform="translate(817.27125 773.7953125)scale(0.3 -0.3)">
       <use xlink:href="#BitstreamVeraSans-Roman-36"/>
       <use x="63.623046875" xlink:href="#BitstreamVeraSans-Roman-30"/>
       <use x="127.24609375" xlink:href="#BitstreamVeraSans-Roman-30"/>
       <use x="190.869140625" xlink:href="#BitstreamVeraSans-Roman-30"/>
       <use x="254.4921875" xlink:href="#BitstreamVeraSans-Roman-30"/>
      </g>
     </g>
    </g>
    <g id="xtick_5">
     <g id="line2d_11">
      <g>
       <use style="stroke:#000000;stroke-width:0.5;" x="1100.52" xlink:href="#m3897cb36cd" y="747.0"/>
      </g>
     </g>
     <g id="line2d_12">
      <g>
       <use style="stroke:#000000;stroke-width:0.5;" x="1100.52" xlink:href="#m325b0f4de1" y="51.3"/>
      </g>
     </g>
     <g id="text_5">
      <!-- 80000 -->
      <defs>
       <path d="M 31.78125 34.625 
Q 24.75 34.625 20.71875 30.859375 
Q 16.703125 27.09375 16.703125 20.515625 
Q 16.703125 13.921875 20.71875 10.15625 
Q 24.75 6.390625 31.78125 6.390625 
Q 38.8125 6.390625 42.859375 10.171875 
Q 46.921875 13.96875 46.921875 20.515625 
Q 46.921875 27.09375 42.890625 30.859375 
Q 38.875 34.625 31.78125 34.625 
M 21.921875 38.8125 
Q 15.578125 40.375 12.03125 44.71875 
Q 8.5 49.078125 8.5 55.328125 
Q 8.5 64.0625 14.71875 69.140625 
Q 20.953125 74.21875 31.78125 74.21875 
Q 42.671875 74.21875 48.875 69.140625 
Q 55.078125 64.0625 55.078125 55.328125 
Q 55.078125 49.078125 51.53125 44.71875 
Q 48 40.375 41.703125 38.8125 
Q 48.828125 37.15625 52.796875 32.3125 
Q 56.78125 27.484375 56.78125 20.515625 
Q 56.78125 9.90625 50.3125 4.234375 
Q 43.84375 -1.421875 31.78125 -1.421875 
Q 19.734375 -1.421875 13.25 4.234375 
Q 6.78125 9.90625 6.78125 20.515625 
Q 6.78125 27.484375 10.78125 32.3125 
Q 14.796875 37.15625 21.921875 38.8125 
M 18.3125 54.390625 
Q 18.3125 48.734375 21.84375 45.5625 
Q 25.390625 42.390625 31.78125 42.390625 
Q 38.140625 42.390625 41.71875 45.5625 
Q 45.3125 48.734375 45.3125 54.390625 
Q 45.3125 60.0625 41.71875 63.234375 
Q 38.140625 66.40625 31.78125 66.40625 
Q 25.390625 66.40625 21.84375 63.234375 
Q 18.3125 60.0625 18.3125 54.390625 
" id="BitstreamVeraSans-Roman-38"/>
      </defs>
      <g transform="translate(1052.80125 773.7953125)scale(0.3 -0.3)">
       <use xlink:href="#BitstreamVeraSans-Roman-38"/>
       <use x="63.623046875" xlink:href="#BitstreamVeraSans-Roman-30"/>
       <use x="127.24609375" xlink:href="#BitstreamVeraSans-Roman-30"/>
       <use x="190.869140625" xlink:href="#BitstreamVeraSans-Roman-30"/>
       <use x="254.4921875" xlink:href="#BitstreamVeraSans-Roman-30"/>
      </g>
     </g>
    </g>
    <g id="xtick_6">
     <g id="line2d_13">
      <g>
       <use style="stroke:#000000;stroke-width:0.5;" x="1336.05" xlink:href="#m3897cb36cd" y="747.0"/>
      </g>
     </g>
     <g id="line2d_14">
      <g>
       <use style="stroke:#000000;stroke-width:0.5;" x="1336.05" xlink:href="#m325b0f4de1" y="51.3"/>
      </g>
     </g>
     <g id="text_6">
      <!-- 100000 -->
      <defs>
       <path d="M 12.40625 8.296875 
L 28.515625 8.296875 
L 28.515625 63.921875 
L 10.984375 60.40625 
L 10.984375 69.390625 
L 28.421875 72.90625 
L 38.28125 72.90625 
L 38.28125 8.296875 
L 54.390625 8.296875 
L 54.390625 0 
L 12.40625 0 
z
" id="BitstreamVeraSans-Roman-31"/>
      </defs>
      <g transform="translate(1278.7875 773.7953125)scale(0.3 -0.3)">
       <use xlink:href="#BitstreamVeraSans-Roman-31"/>
       <use x="63.623046875" xlink:href="#BitstreamVeraSans-Roman-30"/>
       <use x="127.24609375" xlink:href="#BitstreamVeraSans-Roman-30"/>
       <use x="190.869140625" xlink:href="#BitstreamVeraSans-Roman-30"/>
       <use x="254.4921875" xlink:href="#BitstreamVeraSans-Roman-30"/>
       <use x="318.115234375" xlink:href="#BitstreamVeraSans-Roman-30"/>
      </g>
     </g>
    </g>
    <g id="text_7">
     <!-- iterations -->
     <defs>
      <path d="M 54.890625 33.015625 
L 54.890625 0 
L 45.90625 0 
L 45.90625 32.71875 
Q 45.90625 40.484375 42.875 44.328125 
Q 39.84375 48.1875 33.796875 48.1875 
Q 26.515625 48.1875 22.3125 43.546875 
Q 18.109375 38.921875 18.109375 30.90625 
L 18.109375 0 
L 9.078125 0 
L 9.078125 54.6875 
L 18.109375 54.6875 
L 18.109375 46.1875 
Q 21.34375 51.125 25.703125 53.5625 
Q 30.078125 56 35.796875 56 
Q 45.21875 56 50.046875 50.171875 
Q 54.890625 44.34375 54.890625 33.015625 
" id="BitstreamVeraSans-Roman-6e"/>
      <path d="M 34.28125 27.484375 
Q 23.390625 27.484375 19.1875 25 
Q 14.984375 22.515625 14.984375 16.5 
Q 14.984375 11.71875 18.140625 8.90625 
Q 21.296875 6.109375 26.703125 6.109375 
Q 34.1875 6.109375 38.703125 11.40625 
Q 43.21875 16.703125 43.21875 25.484375 
L 43.21875 27.484375 
z
M 52.203125 31.203125 
L 52.203125 0 
L 43.21875 0 
L 43.21875 8.296875 
Q 40.140625 3.328125 35.546875 0.953125 
Q 30.953125 -1.421875 24.3125 -1.421875 
Q 15.921875 -1.421875 10.953125 3.296875 
Q 6 8.015625 6 15.921875 
Q 6 25.140625 12.171875 29.828125 
Q 18.359375 34.515625 30.609375 34.515625 
L 43.21875 34.515625 
L 43.21875 35.40625 
Q 43.21875 41.609375 39.140625 45 
Q 35.0625 48.390625 27.6875 48.390625 
Q 23 48.390625 18.546875 47.265625 
Q 14.109375 46.140625 10.015625 43.890625 
L 10.015625 52.203125 
Q 14.9375 54.109375 19.578125 55.046875 
Q 24.21875 56 28.609375 56 
Q 40.484375 56 46.34375 49.84375 
Q 52.203125 43.703125 52.203125 31.203125 
" id="BitstreamVeraSans-Roman-61"/>
      <path d="M 30.609375 48.390625 
Q 23.390625 48.390625 19.1875 42.75 
Q 14.984375 37.109375 14.984375 27.296875 
Q 14.984375 17.484375 19.15625 11.84375 
Q 23.34375 6.203125 30.609375 6.203125 
Q 37.796875 6.203125 41.984375 11.859375 
Q 46.1875 17.53125 46.1875 27.296875 
Q 46.1875 37.015625 41.984375 42.703125 
Q 37.796875 48.390625 30.609375 48.390625 
M 30.609375 56 
Q 42.328125 56 49.015625 48.375 
Q 55.71875 40.765625 55.71875 27.296875 
Q 55.71875 13.875 49.015625 6.21875 
Q 42.328125 -1.421875 30.609375 -1.421875 
Q 18.84375 -1.421875 12.171875 6.21875 
Q 5.515625 13.875 5.515625 27.296875 
Q 5.515625 40.765625 12.171875 48.375 
Q 18.84375 56 30.609375 56 
" id="BitstreamVeraSans-Roman-6f"/>
      <path d="M 9.421875 54.6875 
L 18.40625 54.6875 
L 18.40625 0 
L 9.421875 0 
z
M 9.421875 75.984375 
L 18.40625 75.984375 
L 18.40625 64.59375 
L 9.421875 64.59375 
z
" id="BitstreamVeraSans-Roman-69"/>
      <path d="M 56.203125 29.59375 
L 56.203125 25.203125 
L 14.890625 25.203125 
Q 15.484375 15.921875 20.484375 11.0625 
Q 25.484375 6.203125 34.421875 6.203125 
Q 39.59375 6.203125 44.453125 7.46875 
Q 49.3125 8.734375 54.109375 11.28125 
L 54.109375 2.78125 
Q 49.265625 0.734375 44.1875 -0.34375 
Q 39.109375 -1.421875 33.890625 -1.421875 
Q 20.796875 -1.421875 13.15625 6.1875 
Q 5.515625 13.8125 5.515625 26.8125 
Q 5.515625 40.234375 12.765625 48.109375 
Q 20.015625 56 32.328125 56 
Q 43.359375 56 49.78125 48.890625 
Q 56.203125 41.796875 56.203125 29.59375 
M 47.21875 32.234375 
Q 47.125 39.59375 43.09375 43.984375 
Q 39.0625 48.390625 32.421875 48.390625 
Q 24.90625 48.390625 20.390625 44.140625 
Q 15.875 39.890625 15.1875 32.171875 
z
" id="BitstreamVeraSans-Roman-65"/>
      <path d="M 18.3125 70.21875 
L 18.3125 54.6875 
L 36.8125 54.6875 
L 36.8125 47.703125 
L 18.3125 47.703125 
L 18.3125 18.015625 
Q 18.3125 11.328125 20.140625 9.421875 
Q 21.96875 7.515625 27.59375 7.515625 
L 36.8125 7.515625 
L 36.8125 0 
L 27.59375 0 
Q 17.1875 0 13.234375 3.875 
Q 9.28125 7.765625 9.28125 18.015625 
L 9.28125 47.703125 
L 2.6875 47.703125 
L 2.6875 54.6875 
L 9.28125 54.6875 
L 9.28125 70.21875 
z
" id="BitstreamVeraSans-Roman-74"/>
      <path d="M 41.109375 46.296875 
Q 39.59375 47.171875 37.8125 47.578125 
Q 36.03125 48 33.890625 48 
Q 26.265625 48 22.1875 43.046875 
Q 18.109375 38.09375 18.109375 28.8125 
L 18.109375 0 
L 9.078125 0 
L 9.078125 54.6875 
L 18.109375 54.6875 
L 18.109375 46.1875 
Q 20.953125 51.171875 25.484375 53.578125 
Q 30.03125 56 36.53125 56 
Q 37.453125 56 38.578125 55.875 
Q 39.703125 55.765625 41.0625 55.515625 
z
" id="BitstreamVeraSans-Roman-72"/>
      <path d="M 44.28125 53.078125 
L 44.28125 44.578125 
Q 40.484375 46.53125 36.375 47.5 
Q 32.28125 48.484375 27.875 48.484375 
Q 21.1875 48.484375 17.84375 46.4375 
Q 14.5 44.390625 14.5 40.28125 
Q 14.5 37.15625 16.890625 35.375 
Q 19.28125 33.59375 26.515625 31.984375 
L 29.59375 31.296875 
Q 39.15625 29.25 43.1875 25.515625 
Q 47.21875 21.78125 47.21875 15.09375 
Q 47.21875 7.46875 41.1875 3.015625 
Q 35.15625 -1.421875 24.609375 -1.421875 
Q 20.21875 -1.421875 15.453125 -0.5625 
Q 10.6875 0.296875 5.421875 2 
L 5.421875 11.28125 
Q 10.40625 8.6875 15.234375 7.390625 
Q 20.0625 6.109375 24.8125 6.109375 
Q 31.15625 6.109375 34.5625 8.28125 
Q 37.984375 10.453125 37.984375 14.40625 
Q 37.984375 18.0625 35.515625 20.015625 
Q 33.0625 21.96875 24.703125 23.78125 
L 21.578125 24.515625 
Q 13.234375 26.265625 9.515625 29.90625 
Q 5.8125 33.546875 5.8125 39.890625 
Q 5.8125 47.609375 11.28125 51.796875 
Q 16.75 56 26.8125 56 
Q 31.78125 56 36.171875 55.265625 
Q 40.578125 54.546875 44.28125 53.078125 
" id="BitstreamVeraSans-Roman-73"/>
     </defs>
     <g transform="translate(676.04296875 807.8296875)scale(0.3 -0.3)">
      <use xlink:href="#BitstreamVeraSans-Roman-69"/>
      <use x="27.783203125" xlink:href="#BitstreamVeraSans-Roman-74"/>
      <use x="66.9921875" xlink:href="#BitstreamVeraSans-Roman-65"/>
      <use x="128.515625" xlink:href="#BitstreamVeraSans-Roman-72"/>
      <use x="169.62890625" xlink:href="#BitstreamVeraSans-Roman-61"/>
      <use x="230.908203125" xlink:href="#BitstreamVeraSans-Roman-74"/>
      <use x="270.1171875" xlink:href="#BitstreamVeraSans-Roman-69"/>
      <use x="297.900390625" xlink:href="#BitstreamVeraSans-Roman-6f"/>
      <use x="359.08203125" xlink:href="#BitstreamVeraSans-Roman-6e"/>
      <use x="422.4609375" xlink:href="#BitstreamVeraSans-Roman-73"/>
     </g>
    </g>
   </g>
   <g id="matplotlib.axis_2">
    <g id="ytick_1">
     <g id="line2d_15">
      <defs>
       <path d="M 0 0 
L 4 0 
" id="m98ae96a732" style="stroke:#000000;stroke-width:0.5;"/>
      </defs>
      <g>
       <use style="stroke:#000000;stroke-width:0.5;" x="158.4" xlink:href="#m98ae96a732" y="747.0"/>
      </g>
     </g>
     <g id="line2d_16">
      <defs>
       <path d="M 0 0 
L -4 0 
" id="ma2a0b4275a" style="stroke:#000000;stroke-width:0.5;"/>
      </defs>
      <g>
       <use style="stroke:#000000;stroke-width:0.5;" x="1336.05" xlink:href="#ma2a0b4275a" y="747.0"/>
      </g>
     </g>
     <g id="text_8">
      <!-- −60 -->
      <defs>
       <path d="M 10.59375 35.5 
L 73.1875 35.5 
L 73.1875 27.203125 
L 10.59375 27.203125 
z
" id="BitstreamVeraSans-Roman-2212"/>
      </defs>
      <g transform="translate(91.0859375 755.278125)scale(0.3 -0.3)">
       <use xlink:href="#BitstreamVeraSans-Roman-2212"/>
       <use x="83.7890625" xlink:href="#BitstreamVeraSans-Roman-36"/>
       <use x="147.412109375" xlink:href="#BitstreamVeraSans-Roman-30"/>
      </g>
     </g>
    </g>
    <g id="ytick_2">
     <g id="line2d_17">
      <g>
       <use style="stroke:#000000;stroke-width:0.5;" x="158.4" xlink:href="#m98ae96a732" y="660.0375"/>
      </g>
     </g>
     <g id="line2d_18">
      <g>
       <use style="stroke:#000000;stroke-width:0.5;" x="1336.05" xlink:href="#ma2a0b4275a" y="660.0375"/>
      </g>
     </g>
     <g id="text_9">
      <!-- −50 -->
      <defs>
       <path d="M 10.796875 72.90625 
L 49.515625 72.90625 
L 49.515625 64.59375 
L 19.828125 64.59375 
L 19.828125 46.734375 
Q 21.96875 47.46875 24.109375 47.828125 
Q 26.265625 48.1875 28.421875 48.1875 
Q 40.625 48.1875 47.75 41.5 
Q 54.890625 34.8125 54.890625 23.390625 
Q 54.890625 11.625 47.5625 5.09375 
Q 40.234375 -1.421875 26.90625 -1.421875 
Q 22.3125 -1.421875 17.546875 -0.640625 
Q 12.796875 0.140625 7.71875 1.703125 
L 7.71875 11.625 
Q 12.109375 9.234375 16.796875 8.0625 
Q 21.484375 6.890625 26.703125 6.890625 
Q 35.15625 6.890625 40.078125 11.328125 
Q 45.015625 15.765625 45.015625 23.390625 
Q 45.015625 31 40.078125 35.4375 
Q 35.15625 39.890625 26.703125 39.890625 
Q 22.75 39.890625 18.8125 39.015625 
Q 14.890625 38.140625 10.796875 36.28125 
z
" id="BitstreamVeraSans-Roman-35"/>
      </defs>
      <g transform="translate(91.0859375 668.315625)scale(0.3 -0.3)">
       <use xlink:href="#BitstreamVeraSans-Roman-2212"/>
       <use x="83.7890625" xlink:href="#BitstreamVeraSans-Roman-35"/>
       <use x="147.412109375" xlink:href="#BitstreamVeraSans-Roman-30"/>
      </g>
     </g>
    </g>
    <g id="ytick_3">
     <g id="line2d_19">
      <g>
       <use style="stroke:#000000;stroke-width:0.5;" x="158.4" xlink:href="#m98ae96a732" y="573.075"/>
      </g>
     </g>
     <g id="line2d_20">
      <g>
       <use style="stroke:#000000;stroke-width:0.5;" x="1336.05" xlink:href="#ma2a0b4275a" y="573.075"/>
      </g>
     </g>
     <g id="text_10">
      <!-- −40 -->
      <g transform="translate(91.0859375 581.353125)scale(0.3 -0.3)">
       <use xlink:href="#BitstreamVeraSans-Roman-2212"/>
       <use x="83.7890625" xlink:href="#BitstreamVeraSans-Roman-34"/>
       <use x="147.412109375" xlink:href="#BitstreamVeraSans-Roman-30"/>
      </g>
     </g>
    </g>
    <g id="ytick_4">
     <g id="line2d_21">
      <g>
       <use style="stroke:#000000;stroke-width:0.5;" x="158.4" xlink:href="#m98ae96a732" y="486.1125"/>
      </g>
     </g>
     <g id="line2d_22">
      <g>
       <use style="stroke:#000000;stroke-width:0.5;" x="1336.05" xlink:href="#ma2a0b4275a" y="486.1125"/>
      </g>
     </g>
     <g id="text_11">
      <!-- −30 -->
      <defs>
       <path d="M 40.578125 39.3125 
Q 47.65625 37.796875 51.625 33 
Q 55.609375 28.21875 55.609375 21.1875 
Q 55.609375 10.40625 48.1875 4.484375 
Q 40.765625 -1.421875 27.09375 -1.421875 
Q 22.515625 -1.421875 17.65625 -0.515625 
Q 12.796875 0.390625 7.625 2.203125 
L 7.625 11.71875 
Q 11.71875 9.328125 16.59375 8.109375 
Q 21.484375 6.890625 26.8125 6.890625 
Q 36.078125 6.890625 40.9375 10.546875 
Q 45.796875 14.203125 45.796875 21.1875 
Q 45.796875 27.640625 41.28125 31.265625 
Q 36.765625 34.90625 28.71875 34.90625 
L 20.21875 34.90625 
L 20.21875 43.015625 
L 29.109375 43.015625 
Q 36.375 43.015625 40.234375 45.921875 
Q 44.09375 48.828125 44.09375 54.296875 
Q 44.09375 59.90625 40.109375 62.90625 
Q 36.140625 65.921875 28.71875 65.921875 
Q 24.65625 65.921875 20.015625 65.03125 
Q 15.375 64.15625 9.8125 62.3125 
L 9.8125 71.09375 
Q 15.4375 72.65625 20.34375 73.4375 
Q 25.25 74.21875 29.59375 74.21875 
Q 40.828125 74.21875 47.359375 69.109375 
Q 53.90625 64.015625 53.90625 55.328125 
Q 53.90625 49.265625 50.4375 45.09375 
Q 46.96875 40.921875 40.578125 39.3125 
" id="BitstreamVeraSans-Roman-33"/>
      </defs>
      <g transform="translate(91.0859375 494.390625)scale(0.3 -0.3)">
       <use xlink:href="#BitstreamVeraSans-Roman-2212"/>
       <use x="83.7890625" xlink:href="#BitstreamVeraSans-Roman-33"/>
       <use x="147.412109375" xlink:href="#BitstreamVeraSans-Roman-30"/>
      </g>
     </g>
    </g>
    <g id="ytick_5">
     <g id="line2d_23">
      <g>
       <use style="stroke:#000000;stroke-width:0.5;" x="158.4" xlink:href="#m98ae96a732" y="399.15"/>
      </g>
     </g>
     <g id="line2d_24">
      <g>
       <use style="stroke:#000000;stroke-width:0.5;" x="1336.05" xlink:href="#ma2a0b4275a" y="399.15"/>
      </g>
     </g>
     <g id="text_12">
      <!-- −20 -->
      <g transform="translate(91.0859375 407.428125)scale(0.3 -0.3)">
       <use xlink:href="#BitstreamVeraSans-Roman-2212"/>
       <use x="83.7890625" xlink:href="#BitstreamVeraSans-Roman-32"/>
       <use x="147.412109375" xlink:href="#BitstreamVeraSans-Roman-30"/>
      </g>
     </g>
    </g>
    <g id="ytick_6">
     <g id="line2d_25">
      <g>
       <use style="stroke:#000000;stroke-width:0.5;" x="158.4" xlink:href="#m98ae96a732" y="312.1875"/>
      </g>
     </g>
     <g id="line2d_26">
      <g>
       <use style="stroke:#000000;stroke-width:0.5;" x="1336.05" xlink:href="#ma2a0b4275a" y="312.1875"/>
      </g>
     </g>
     <g id="text_13">
      <!-- −10 -->
      <g transform="translate(91.0859375 320.465625)scale(0.3 -0.3)">
       <use xlink:href="#BitstreamVeraSans-Roman-2212"/>
       <use x="83.7890625" xlink:href="#BitstreamVeraSans-Roman-31"/>
       <use x="147.412109375" xlink:href="#BitstreamVeraSans-Roman-30"/>
      </g>
     </g>
    </g>
    <g id="ytick_7">
     <g id="line2d_27">
      <g>
       <use style="stroke:#000000;stroke-width:0.5;" x="158.4" xlink:href="#m98ae96a732" y="225.225"/>
      </g>
     </g>
     <g id="line2d_28">
      <g>
       <use style="stroke:#000000;stroke-width:0.5;" x="1336.05" xlink:href="#ma2a0b4275a" y="225.225"/>
      </g>
     </g>
     <g id="text_14">
      <!-- 0 -->
      <g transform="translate(135.3125 233.503125)scale(0.3 -0.3)">
       <use xlink:href="#BitstreamVeraSans-Roman-30"/>
      </g>
     </g>
    </g>
    <g id="ytick_8">
     <g id="line2d_29">
      <g>
       <use style="stroke:#000000;stroke-width:0.5;" x="158.4" xlink:href="#m98ae96a732" y="138.2625"/>
      </g>
     </g>
     <g id="line2d_30">
      <g>
       <use style="stroke:#000000;stroke-width:0.5;" x="1336.05" xlink:href="#ma2a0b4275a" y="138.2625"/>
      </g>
     </g>
     <g id="text_15">
      <!-- 10 -->
      <g transform="translate(116.225 146.540625)scale(0.3 -0.3)">
       <use xlink:href="#BitstreamVeraSans-Roman-31"/>
       <use x="63.623046875" xlink:href="#BitstreamVeraSans-Roman-30"/>
      </g>
     </g>
    </g>
    <g id="ytick_9">
     <g id="line2d_31">
      <g>
       <use style="stroke:#000000;stroke-width:0.5;" x="158.4" xlink:href="#m98ae96a732" y="51.3"/>
      </g>
     </g>
     <g id="line2d_32">
      <g>
       <use style="stroke:#000000;stroke-width:0.5;" x="1336.05" xlink:href="#ma2a0b4275a" y="51.3"/>
      </g>
     </g>
     <g id="text_16">
      <!-- 20 -->
      <g transform="translate(116.225 59.578125)scale(0.3 -0.3)">
       <use xlink:href="#BitstreamVeraSans-Roman-32"/>
       <use x="63.623046875" xlink:href="#BitstreamVeraSans-Roman-30"/>
      </g>
     </g>
    </g>
    <g id="text_17">
     <!-- log(loss) -->
     <defs>
      <path d="M 8.015625 75.875 
L 15.828125 75.875 
Q 23.140625 64.359375 26.78125 53.3125 
Q 30.421875 42.28125 30.421875 31.390625 
Q 30.421875 20.453125 26.78125 9.375 
Q 23.140625 -1.703125 15.828125 -13.1875 
L 8.015625 -13.1875 
Q 14.5 -2 17.703125 9.0625 
Q 20.90625 20.125 20.90625 31.390625 
Q 20.90625 42.671875 17.703125 53.65625 
Q 14.5 64.65625 8.015625 75.875 
" id="BitstreamVeraSans-Roman-29"/>
      <path d="M 31 75.875 
Q 24.46875 64.65625 21.28125 53.65625 
Q 18.109375 42.671875 18.109375 31.390625 
Q 18.109375 20.125 21.3125 9.0625 
Q 24.515625 -2 31 -13.1875 
L 23.1875 -13.1875 
Q 15.875 -1.703125 12.234375 9.375 
Q 8.59375 20.453125 8.59375 31.390625 
Q 8.59375 42.28125 12.203125 53.3125 
Q 15.828125 64.359375 23.1875 75.875 
z
" id="BitstreamVeraSans-Roman-28"/>
      <path d="M 45.40625 27.984375 
Q 45.40625 37.75 41.375 43.109375 
Q 37.359375 48.484375 30.078125 48.484375 
Q 22.859375 48.484375 18.828125 43.109375 
Q 14.796875 37.75 14.796875 27.984375 
Q 14.796875 18.265625 18.828125 12.890625 
Q 22.859375 7.515625 30.078125 7.515625 
Q 37.359375 7.515625 41.375 12.890625 
Q 45.40625 18.265625 45.40625 27.984375 
M 54.390625 6.78125 
Q 54.390625 -7.171875 48.1875 -13.984375 
Q 42 -20.796875 29.203125 -20.796875 
Q 24.46875 -20.796875 20.265625 -20.09375 
Q 16.0625 -19.390625 12.109375 -17.921875 
L 12.109375 -9.1875 
Q 16.0625 -11.328125 19.921875 -12.34375 
Q 23.78125 -13.375 27.78125 -13.375 
Q 36.625 -13.375 41.015625 -8.765625 
Q 45.40625 -4.15625 45.40625 5.171875 
L 45.40625 9.625 
Q 42.625 4.78125 38.28125 2.390625 
Q 33.9375 0 27.875 0 
Q 17.828125 0 11.671875 7.65625 
Q 5.515625 15.328125 5.515625 27.984375 
Q 5.515625 40.671875 11.671875 48.328125 
Q 17.828125 56 27.875 56 
Q 33.9375 56 38.28125 53.609375 
Q 42.625 51.21875 45.40625 46.390625 
L 45.40625 54.6875 
L 54.390625 54.6875 
z
" id="BitstreamVeraSans-Roman-67"/>
      <path d="M 9.421875 75.984375 
L 18.40625 75.984375 
L 18.40625 0 
L 9.421875 0 
z
" id="BitstreamVeraSans-Roman-6c"/>
     </defs>
     <g transform="translate(79.846875 462.69609375)rotate(-90.0)scale(0.3 -0.3)">
      <use xlink:href="#BitstreamVeraSans-Roman-6c"/>
      <use x="27.783203125" xlink:href="#BitstreamVeraSans-Roman-6f"/>
      <use x="88.96484375" xlink:href="#BitstreamVeraSans-Roman-67"/>
      <use x="152.44140625" xlink:href="#BitstreamVeraSans-Roman-28"/>
      <use x="191.455078125" xlink:href="#BitstreamVeraSans-Roman-6c"/>
      <use x="219.23828125" xlink:href="#BitstreamVeraSans-Roman-6f"/>
      <use x="280.419921875" xlink:href="#BitstreamVeraSans-Roman-73"/>
      <use x="332.51953125" xlink:href="#BitstreamVeraSans-Roman-73"/>
      <use x="384.619140625" xlink:href="#BitstreamVeraSans-Roman-29"/>
     </g>
    </g>
   </g>
   <g id="legend_1">
    <g id="patch_7">
     <path d="M 843.876562 163.36875 
L 1321.05 163.36875 
L 1321.05 66.3 
L 843.876562 66.3 
z
" style="fill:#ffffff;stroke:#000000;stroke-linejoin:miter;"/>
    </g>
    <g id="line2d_33">
     <path d="M 864.876562 90.595312 
L 906.876562 90.595312 
" style="fill:none;stroke:#0000ff;stroke-linecap:square;stroke-width:2.0;"/>
    </g>
    <g id="line2d_34"/>
    <g id="text_18">
     <!-- random: step=0.000620 -->
     <defs>
      <path id="BitstreamVeraSans-Roman-20"/>
      <path d="M 52 44.1875 
Q 55.375 50.25 60.0625 53.125 
Q 64.75 56 71.09375 56 
Q 79.640625 56 84.28125 50.015625 
Q 88.921875 44.046875 88.921875 33.015625 
L 88.921875 0 
L 79.890625 0 
L 79.890625 32.71875 
Q 79.890625 40.578125 77.09375 44.375 
Q 74.3125 48.1875 68.609375 48.1875 
Q 61.625 48.1875 57.5625 43.546875 
Q 53.515625 38.921875 53.515625 30.90625 
L 53.515625 0 
L 44.484375 0 
L 44.484375 32.71875 
Q 44.484375 40.625 41.703125 44.40625 
Q 38.921875 48.1875 33.109375 48.1875 
Q 26.21875 48.1875 22.15625 43.53125 
Q 18.109375 38.875 18.109375 30.90625 
L 18.109375 0 
L 9.078125 0 
L 9.078125 54.6875 
L 18.109375 54.6875 
L 18.109375 46.1875 
Q 21.1875 51.21875 25.484375 53.609375 
Q 29.78125 56 35.6875 56 
Q 41.65625 56 45.828125 52.96875 
Q 50 49.953125 52 44.1875 
" id="BitstreamVeraSans-Roman-6d"/>
      <path d="M 11.71875 12.40625 
L 22.015625 12.40625 
L 22.015625 0 
L 11.71875 0 
z
M 11.71875 51.703125 
L 22.015625 51.703125 
L 22.015625 39.3125 
L 11.71875 39.3125 
z
" id="BitstreamVeraSans-Roman-3a"/>
      <path d="M 10.6875 12.40625 
L 21 12.40625 
L 21 0 
L 10.6875 0 
z
" id="BitstreamVeraSans-Roman-2e"/>
      <path d="M 10.59375 45.40625 
L 73.1875 45.40625 
L 73.1875 37.203125 
L 10.59375 37.203125 
z
M 10.59375 25.484375 
L 73.1875 25.484375 
L 73.1875 17.1875 
L 10.59375 17.1875 
z
" id="BitstreamVeraSans-Roman-3d"/>
      <path d="M 45.40625 46.390625 
L 45.40625 75.984375 
L 54.390625 75.984375 
L 54.390625 0 
L 45.40625 0 
L 45.40625 8.203125 
Q 42.578125 3.328125 38.25 0.953125 
Q 33.9375 -1.421875 27.875 -1.421875 
Q 17.96875 -1.421875 11.734375 6.484375 
Q 5.515625 14.40625 5.515625 27.296875 
Q 5.515625 40.1875 11.734375 48.09375 
Q 17.96875 56 27.875 56 
Q 33.9375 56 38.25 53.625 
Q 42.578125 51.265625 45.40625 46.390625 
M 14.796875 27.296875 
Q 14.796875 17.390625 18.875 11.75 
Q 22.953125 6.109375 30.078125 6.109375 
Q 37.203125 6.109375 41.296875 11.75 
Q 45.40625 17.390625 45.40625 27.296875 
Q 45.40625 37.203125 41.296875 42.84375 
Q 37.203125 48.484375 30.078125 48.484375 
Q 22.953125 48.484375 18.875 42.84375 
Q 14.796875 37.203125 14.796875 27.296875 
" id="BitstreamVeraSans-Roman-64"/>
      <path d="M 18.109375 8.203125 
L 18.109375 -20.796875 
L 9.078125 -20.796875 
L 9.078125 54.6875 
L 18.109375 54.6875 
L 18.109375 46.390625 
Q 20.953125 51.265625 25.265625 53.625 
Q 29.59375 56 35.59375 56 
Q 45.5625 56 51.78125 48.09375 
Q 58.015625 40.1875 58.015625 27.296875 
Q 58.015625 14.40625 51.78125 6.484375 
Q 45.5625 -1.421875 35.59375 -1.421875 
Q 29.59375 -1.421875 25.265625 0.953125 
Q 20.953125 3.328125 18.109375 8.203125 
M 48.6875 27.296875 
Q 48.6875 37.203125 44.609375 42.84375 
Q 40.53125 48.484375 33.40625 48.484375 
Q 26.265625 48.484375 22.1875 42.84375 
Q 18.109375 37.203125 18.109375 27.296875 
Q 18.109375 17.390625 22.1875 11.75 
Q 26.265625 6.109375 33.40625 6.109375 
Q 40.53125 6.109375 44.609375 11.75 
Q 48.6875 17.390625 48.6875 27.296875 
" id="BitstreamVeraSans-Roman-70"/>
     </defs>
     <g transform="translate(939.8765625 101.0953125)scale(0.3 -0.3)">
      <use xlink:href="#BitstreamVeraSans-Roman-72"/>
      <use x="41.11328125" xlink:href="#BitstreamVeraSans-Roman-61"/>
      <use x="102.392578125" xlink:href="#BitstreamVeraSans-Roman-6e"/>
      <use x="165.771484375" xlink:href="#BitstreamVeraSans-Roman-64"/>
      <use x="229.248046875" xlink:href="#BitstreamVeraSans-Roman-6f"/>
      <use x="290.4296875" xlink:href="#BitstreamVeraSans-Roman-6d"/>
      <use x="387.841796875" xlink:href="#BitstreamVeraSans-Roman-3a"/>
      <use x="421.533203125" xlink:href="#BitstreamVeraSans-Roman-20"/>
      <use x="453.3203125" xlink:href="#BitstreamVeraSans-Roman-73"/>
      <use x="505.419921875" xlink:href="#BitstreamVeraSans-Roman-74"/>
      <use x="544.62890625" xlink:href="#BitstreamVeraSans-Roman-65"/>
      <use x="606.15234375" xlink:href="#BitstreamVeraSans-Roman-70"/>
      <use x="669.62890625" xlink:href="#BitstreamVeraSans-Roman-3d"/>
      <use x="753.41796875" xlink:href="#BitstreamVeraSans-Roman-30"/>
      <use x="817.041015625" xlink:href="#BitstreamVeraSans-Roman-2e"/>
      <use x="848.828125" xlink:href="#BitstreamVeraSans-Roman-30"/>
      <use x="912.451171875" xlink:href="#BitstreamVeraSans-Roman-30"/>
      <use x="976.07421875" xlink:href="#BitstreamVeraSans-Roman-30"/>
      <use x="1039.69726562" xlink:href="#BitstreamVeraSans-Roman-36"/>
      <use x="1103.3203125" xlink:href="#BitstreamVeraSans-Roman-32"/>
      <use x="1166.94335938" xlink:href="#BitstreamVeraSans-Roman-30"/>
     </g>
    </g>
    <g id="line2d_35">
     <path d="M 864.876562 134.629687 
L 906.876562 134.629687 
" style="fill:none;stroke:#008000;stroke-linecap:square;stroke-width:2.0;"/>
    </g>
    <g id="line2d_36"/>
    <g id="text_19">
     <!-- corr: step=0.000620 -->
     <defs>
      <path d="M 48.78125 52.59375 
L 48.78125 44.1875 
Q 44.96875 46.296875 41.140625 47.34375 
Q 37.3125 48.390625 33.40625 48.390625 
Q 24.65625 48.390625 19.8125 42.84375 
Q 14.984375 37.3125 14.984375 27.296875 
Q 14.984375 17.28125 19.8125 11.734375 
Q 24.65625 6.203125 33.40625 6.203125 
Q 37.3125 6.203125 41.140625 7.25 
Q 44.96875 8.296875 48.78125 10.40625 
L 48.78125 2.09375 
Q 45.015625 0.34375 40.984375 -0.53125 
Q 36.96875 -1.421875 32.421875 -1.421875 
Q 20.0625 -1.421875 12.78125 6.34375 
Q 5.515625 14.109375 5.515625 27.296875 
Q 5.515625 40.671875 12.859375 48.328125 
Q 20.21875 56 33.015625 56 
Q 37.15625 56 41.109375 55.140625 
Q 45.0625 54.296875 48.78125 52.59375 
" id="BitstreamVeraSans-Roman-63"/>
     </defs>
     <g transform="translate(939.8765625 145.1296875)scale(0.3 -0.3)">
      <use xlink:href="#BitstreamVeraSans-Roman-63"/>
      <use x="54.98046875" xlink:href="#BitstreamVeraSans-Roman-6f"/>
      <use x="116.162109375" xlink:href="#BitstreamVeraSans-Roman-72"/>
      <use x="157.259765625" xlink:href="#BitstreamVeraSans-Roman-72"/>
      <use x="198.357421875" xlink:href="#BitstreamVeraSans-Roman-3a"/>
      <use x="232.048828125" xlink:href="#BitstreamVeraSans-Roman-20"/>
      <use x="263.8359375" xlink:href="#BitstreamVeraSans-Roman-73"/>
      <use x="315.935546875" xlink:href="#BitstreamVeraSans-Roman-74"/>
      <use x="355.14453125" xlink:href="#BitstreamVeraSans-Roman-65"/>
      <use x="416.66796875" xlink:href="#BitstreamVeraSans-Roman-70"/>
      <use x="480.14453125" xlink:href="#BitstreamVeraSans-Roman-3d"/>
      <use x="563.93359375" xlink:href="#BitstreamVeraSans-Roman-30"/>
      <use x="627.556640625" xlink:href="#BitstreamVeraSans-Roman-2e"/>
      <use x="659.34375" xlink:href="#BitstreamVeraSans-Roman-30"/>
      <use x="722.966796875" xlink:href="#BitstreamVeraSans-Roman-30"/>
      <use x="786.58984375" xlink:href="#BitstreamVeraSans-Roman-30"/>
      <use x="850.212890625" xlink:href="#BitstreamVeraSans-Roman-36"/>
      <use x="913.8359375" xlink:href="#BitstreamVeraSans-Roman-32"/>
      <use x="977.458984375" xlink:href="#BitstreamVeraSans-Roman-30"/>
     </g>
    </g>
   </g>
  </g>
 </g>
 <defs>
  <clipPath id="pa8427eab1f">
   <rect height="695.7" width="1177.65" x="158.4" y="51.3"/>
  </clipPath>
 </defs>
</svg>
