<?xml version="1.0" encoding="utf-8" standalone="no"?>
<!DOCTYPE svg PUBLIC "-//W3C//DTD SVG 1.1//EN"
  "http://www.w3.org/Graphics/SVG/1.1/DTD/svg11.dtd">
<!-- Created with matplotlib (http://matplotlib.org/) -->
<svg height="864pt" version="1.1" viewBox="0 0 1440 864" width="1440pt" xmlns="http://www.w3.org/2000/svg" xmlns:xlink="http://www.w3.org/1999/xlink">
 <defs>
  <style type="text/css">
*{stroke-linecap:butt;stroke-linejoin:round;stroke-miterlimit:100000;}
  </style>
 </defs>
 <g id="figure_1">
  <g id="patch_1">
   <path d="M 0 864 
L 1440 864 
L 1440 0 
L 0 0 
z
" style="fill:#ffffff;"/>
  </g>
  <g id="axes_1">
   <g id="patch_2">
    <path d="M 158.4 747 
L 1336.05 747 
L 1336.05 51.3 
L 158.4 51.3 
z
" style="fill:#ffffff;"/>
   </g>
   <g id="line2d_1">
    <path clip-path="url(#p2d77d1121b)" d="M 159.57765 137.337146 
L 160.7553 138.072066 
L 161.93295 147.559253 
L 163.1106 147.898415 
L 164.28825 153.982496 
L 165.4659 155.428355 
L 166.64355 161.628868 
L 167.8212 166.601144 
L 168.99885 168.845758 
L 170.1765 173.899458 
L 171.35415 174.67675 
L 172.5318 180.551321 
L 173.70945 180.581668 
L 174.8871 188.887053 
L 176.06475 189.099878 
L 177.2424 194.330007 
L 178.42005 195.217446 
L 179.5977 200.536696 
L 180.77535 202.171198 
L 181.953 204.664669 
L 183.13065 209.584014 
L 184.3083 210.296605 
L 185.48595 216.777002 
L 186.6636 216.793926 
L 187.84125 222.714811 
L 189.0189 222.702948 
L 190.19655 229.757313 
L 191.3742 229.967195 
L 192.55185 235.544562 
L 193.7295 236.757504 
L 194.90715 241.501781 
L 196.0848 243.72813 
L 197.26245 247.299642 
L 198.4401 251.569935 
L 199.61775 252.760147 
L 200.7954 257.321465 
L 201.97305 257.569489 
L 203.1507 262.767913 
L 204.32835 262.81996 
L 205.506 268.505646 
L 206.68365 268.671863 
L 207.8613 276.60149 
L 209.03895 276.66854 
L 210.2166 282.488467 
L 211.39425 282.469108 
L 212.5719 287.767034 
L 213.74955 287.738902 
L 214.9272 293.368388 
L 216.10485 293.363393 
L 217.2825 299.043281 
L 218.46015 299.040552 
L 219.6378 303.313503 
L 220.81545 303.32025 
L 221.9931 308.316676 
L 223.17075 308.319268 
L 224.3484 313.546423 
L 225.52605 313.546423 
L 226.7037 319.006057 
L 227.88135 319.007525 
L 229.059 324.683311 
L 230.23665 324.752472 
L 231.4143 329.103161 
L 232.59195 330.602432 
L 233.7696 333.96334 
L 234.94725 338.653625 
L 236.1249 340.072235 
L 237.30255 345.208954 
L 238.4802 345.799437 
L 239.65785 350.537861 
L 240.8355 351.842501 
L 242.01315 357.961547 
L 243.1908 358.461228 
L 244.36845 364.392769 
L 245.5461 365.127622 
L 246.72375 370.423847 
L 247.9014 371.04388 
L 249.07905 376.038163 
L 250.2567 376.7724 
L 251.43435 381.091696 
L 252.612 382.025431 
L 253.78965 386.85946 
L 254.9673 387.907602 
L 256.14495 392.454427 
L 257.3226 393.945365 
L 258.50025 398.126025 
L 259.6779 399.17725 
L 260.85555 403.087555 
L 262.0332 404.548392 
L 263.21085 410.210519 
L 264.3885 410.680081 
L 265.56615 416.080395 
L 266.7438 416.721152 
L 267.92145 422.463097 
L 269.0991 422.916708 
L 270.27675 426.594321 
L 271.4544 426.675991 
L 272.63205 433.094724 
L 273.8097 433.099856 
L 274.98735 438.995189 
L 276.165 439.073213 
L 277.34265 445.377742 
L 278.5203 445.449068 
L 279.69795 451.006693 
L 280.8756 451.118377 
L 282.05325 456.979659 
L 283.2309 457.01819 
L 284.40855 461.659992 
L 285.5862 461.642307 
L 286.76385 467.440979 
L 287.9415 467.442199 
L 289.11915 473.430667 
L 290.2968 473.430554 
L 291.47445 478.941189 
L 292.6521 478.941189 
L 293.82975 483.969169 
L 295.0074 483.969169 
L 296.18505 490.800687 
L 297.3627 490.797544 
L 298.54035 494.822225 
L 299.718 494.823812 
L 300.89565 501.351541 
L 302.0733 501.346884 
L 303.25095 507.557299 
L 304.4286 507.563511 
L 305.60625 511.851626 
L 306.7839 511.851626 
L 307.96155 517.521559 
L 309.1392 517.526282 
L 310.31685 523.454454 
L 311.4945 523.455108 
L 312.67215 529.285812 
L 313.8498 529.280665 
L 315.02745 533.818335 
L 316.2051 533.816786 
L 317.38275 540.276977 
L 318.5604 540.286028 
L 319.73805 545.353228 
L 320.9157 545.361391 
L 322.09335 553.119749 
L 323.271 553.118307 
L 324.44865 559.87447 
L 325.6263 559.892352 
L 326.80395 565.808827 
L 327.9816 565.815383 
L 329.15925 573.167365 
L 330.3369 573.170662 
L 331.51455 578.869083 
L 332.6922 578.837389 
L 333.86985 583.596225 
L 335.0475 583.588534 
L 336.22515 588.830699 
L 337.4028 588.868298 
L 338.58045 593.53391 
L 339.7581 593.649825 
L 340.93575 598.40159 
L 342.1134 598.399063 
L 343.29105 604.811504 
L 344.4687 604.914007 
L 345.64635 610.666347 
L 346.824 610.66627 
L 348.00165 614.579219 
L 349.1793 614.583857 
L 350.35695 619.951274 
L 351.5346 619.977348 
L 352.71225 627.255688 
L 353.8899 627.261886 
L 355.06755 632.211973 
L 356.2452 632.210572 
L 357.42285 639.206866 
L 358.6005 639.204154 
L 359.77815 646.166769 
L 360.9558 646.167843 
L 362.13345 650.287539 
L 363.3111 650.286061 
L 364.48875 655.277373 
L 365.6664 655.277373 
L 366.84405 662.41766 
L 368.0217 662.396487 
L 369.19935 667.768506 
L 370.377 667.772613 
L 371.55465 673.048895 
L 372.7323 673.076622 
L 373.90995 677.624952 
L 375.0876 677.655253 
L 376.26525 686.097773 
L 377.4429 686.104796 
L 378.62055 691.916256 
L 379.7982 691.902432 
L 380.97585 698.554708 
L 382.1535 698.597711 
L 383.33115 705.084761 
L 384.5088 705.110887 
L 385.68645 709.976163 
L 386.8641 710.068222 
L 388.04175 713.997967 
L 389.2194 714.881304 
L 390.39705 717.638547 
L 391.5747 718.495156 
L 392.75235 721.944057 
L 393.93 722.439212 
L 395.10765 725.677012 
L 396.2853 725.98897 
L 397.46295 727.484449 
L 398.6406 727.202173 
L 399.81825 728.87117 
L 400.9959 728.915711 
L 402.17355 729.578687 
L 403.3512 729.629876 
L 404.52885 731.28828 
L 405.7065 731.248751 
L 406.88415 730.394119 
L 408.0618 730.354537 
L 409.23945 730.561304 
L 410.4171 730.626633 
L 411.59475 731.285252 
L 412.7724 731.467249 
L 413.95005 730.866767 
L 415.1277 730.805671 
L 416.30535 732.188442 
L 417.483 732.275627 
L 418.66065 732.702036 
L 419.8383 732.651923 
L 421.01595 732.085554 
L 422.1936 731.913916 
L 423.37125 731.364557 
L 425.72655 731.889903 
L 426.9042 732.179213 
L 428.08185 732.310619 
L 429.2595 731.949811 
L 430.43715 732.571772 
L 431.6148 732.374662 
L 432.79245 731.916562 
L 433.9701 731.804528 
L 435.14775 732.998954 
L 436.3254 733.027415 
L 437.50305 732.503292 
L 439.85835 732.641712 
L 441.036 732.258121 
L 442.21365 732.631508 
L 443.3913 732.475058 
L 444.56895 731.975645 
L 445.7466 732.624168 
L 448.1019 733.082562 
L 449.27955 732.98729 
L 450.4572 733.375699 
L 451.63485 732.191653 
L 452.8125 732.347604 
L 455.1678 732.978241 
L 456.34545 732.656551 
L 457.5231 732.584798 
L 458.70075 731.657153 
L 459.8784 732.384782 
L 461.05605 732.528053 
L 462.2337 731.847161 
L 463.41135 731.854523 
L 464.589 733.066095 
L 465.76665 732.036922 
L 468.12195 732.018902 
L 469.2996 731.592016 
L 470.47725 732.127541 
L 471.6549 731.3581 
L 472.83255 731.882776 
L 474.0102 732.05427 
L 475.18785 732.433515 
L 476.3655 733.879397 
L 477.54315 734.120254 
L 479.89845 732.93713 
L 481.0761 733.38722 
L 482.25375 733.402183 
L 483.4314 731.931164 
L 484.60905 731.215441 
L 485.7867 732.118423 
L 486.96435 732.035799 
L 488.142 731.489393 
L 489.31965 730.72337 
L 490.4973 730.980692 
L 491.67495 731.474689 
L 492.8526 732.86466 
L 494.03025 732.798029 
L 496.38555 731.369866 
L 497.5632 732.399896 
L 498.74085 733.707662 
L 501.09615 733.722595 
L 502.2738 733.255173 
L 503.45145 733.4498 
L 504.6291 732.907078 
L 505.80675 732.723002 
L 506.9844 733.011608 
L 510.51735 732.970962 
L 511.695 732.649556 
L 512.87265 732.634413 
L 514.0503 732.379118 
L 515.22795 732.382657 
L 516.4056 733.952204 
L 518.7609 733.190356 
L 521.1162 733.329676 
L 522.29385 733.58785 
L 524.64915 732.950267 
L 525.8268 733.393338 
L 527.00445 733.296767 
L 528.1821 730.089483 
L 529.35975 729.886414 
L 530.5374 732.472425 
L 531.71505 732.53622 
L 532.8927 731.190531 
L 534.07035 731.329806 
L 535.248 731.947981 
L 538.78095 731.601695 
L 539.9586 730.752625 
L 541.13625 730.762552 
L 542.3139 731.783002 
L 543.49155 731.963382 
L 544.6692 733.313953 
L 545.84685 733.602995 
L 547.0245 732.621748 
L 548.20215 732.559011 
L 549.3798 732.821396 
L 550.55745 732.792828 
L 551.7351 733.453334 
L 552.91275 733.439683 
L 554.0904 732.996318 
L 555.26805 733.089055 
L 557.62335 734.112696 
L 558.801 731.540554 
L 559.97865 731.265108 
L 561.1563 731.946676 
L 562.33395 732.218351 
L 563.5116 732.272904 
L 568.2222 733.035419 
L 569.39985 732.907784 
L 570.5775 732.608236 
L 571.75515 732.424879 
L 572.9328 731.452912 
L 574.11045 731.352618 
L 575.2881 733.461935 
L 576.46575 733.700708 
L 577.6434 733.246274 
L 578.82105 733.104545 
L 579.9987 732.693867 
L 581.17635 732.723742 
L 582.354 731.935446 
L 583.53165 731.839658 
L 584.7093 732.563598 
L 585.88695 732.540895 
L 587.0646 732.04353 
L 590.59755 732.029729 
L 591.7752 731.762613 
L 592.95285 731.836686 
L 594.1305 732.0849 
L 595.30815 731.985438 
L 596.4858 732.151531 
L 597.66345 732.142393 
L 598.8411 731.876395 
L 600.01875 731.883942 
L 601.1964 732.332512 
L 602.37405 732.348501 
L 603.5517 732.216732 
L 604.72935 732.220868 
L 605.907 734.160032 
L 607.08465 734.149031 
L 608.2623 733.753801 
L 609.43995 733.745521 
L 610.6176 732.347962 
L 614.15055 732.296719 
L 615.3282 732.608226 
L 616.50585 732.625912 
L 617.6835 731.552623 
L 621.21645 731.477596 
L 622.3941 733.082741 
L 623.57175 733.01539 
L 624.7494 732.529283 
L 625.92705 732.526374 
L 627.1047 731.927864 
L 628.28235 731.974355 
L 629.46 731.235131 
L 630.63765 731.337498 
L 631.8153 732.791372 
L 632.99295 732.793262 
L 634.1706 731.872584 
L 635.34825 731.874028 
L 636.5259 733.373917 
L 638.8812 733.366028 
L 640.05885 733.408672 
L 641.2365 733.705993 
L 642.41415 733.762232 
L 643.5918 733.355693 
L 644.76945 733.341663 
L 645.9471 732.413864 
L 648.3024 732.553457 
L 649.48005 732.677394 
L 650.6577 732.996477 
L 651.83535 733.006894 
L 653.013 732.141026 
L 654.19065 732.141026 
L 655.3683 731.993091 
L 656.54595 731.999737 
L 657.7236 732.467891 
L 658.90125 732.465279 
L 660.0789 733.941753 
L 661.25655 733.9417 
L 662.4342 732.967603 
L 668.32245 732.920699 
L 669.5001 732.34098 
L 670.67775 732.364577 
L 671.8554 732.003201 
L 673.03305 732.043278 
L 674.2107 731.550704 
L 675.38835 731.555902 
L 676.566 732.558319 
L 677.74365 732.521624 
L 678.9213 732.618684 
L 680.09895 732.561677 
L 681.2766 734.124959 
L 682.45425 734.157654 
L 683.6319 733.522832 
L 684.80955 733.375604 
L 685.9872 732.801152 
L 687.16485 732.827478 
L 688.3425 732.297214 
L 689.52015 732.246187 
L 690.6978 731.886255 
L 691.87545 731.903118 
L 693.0531 731.491578 
L 694.23075 731.519783 
L 696.58605 731.77708 
L 697.7637 731.044016 
L 698.94135 731.065871 
L 700.119 731.576308 
L 702.4743 731.331692 
L 703.65195 731.529551 
L 704.8296 733.540085 
L 706.00725 733.512747 
L 707.1849 733.920604 
L 708.36255 734.168986 
L 709.5402 732.655773 
L 710.71785 732.811023 
L 711.8955 734.95113 
L 713.07315 734.697711 
L 714.2508 733.261116 
L 715.42845 733.49933 
L 716.6061 733.994802 
L 717.78375 733.993727 
L 718.9614 733.36808 
L 720.13905 733.345529 
L 722.49435 733.905904 
L 724.84965 733.125445 
L 726.0273 732.345691 
L 727.20495 732.556874 
L 728.3826 732.17907 
L 729.56025 732.074361 
L 730.7379 732.950605 
L 731.91555 732.442815 
L 733.0932 733.082163 
L 734.27085 732.942905 
L 735.4485 733.359785 
L 736.62615 733.231952 
L 737.8038 732.815722 
L 738.98145 732.797457 
L 740.1591 734.688627 
L 741.33675 734.578168 
L 742.5144 733.082671 
L 743.69205 733.488905 
L 744.8697 734.045349 
L 746.04735 733.441374 
L 747.225 734.048965 
L 748.40265 733.787716 
L 749.5803 734.514037 
L 750.75795 733.93922 
L 753.11325 734.222706 
L 754.2909 733.491526 
L 755.46855 732.98242 
L 756.6462 732.093863 
L 757.82385 732.537724 
L 759.0015 732.092518 
L 761.3568 732.526357 
L 762.53445 732.14059 
L 763.7121 732.196546 
L 764.88975 732.057271 
L 766.0674 732.274995 
L 768.4227 732.249918 
L 769.60035 732.017742 
L 770.778 732.697912 
L 771.95565 732.603574 
L 773.1333 731.608878 
L 774.31095 731.648054 
L 775.4886 731.80096 
L 776.66625 731.354675 
L 777.8439 731.842172 
L 779.02155 731.755996 
L 780.1992 732.949963 
L 781.37685 733.612855 
L 782.5545 733.576875 
L 783.73215 733.270844 
L 786.08745 733.119926 
L 787.2651 734.164752 
L 788.44275 734.155561 
L 789.6204 732.914418 
L 790.79805 732.317017 
L 791.9757 732.470091 
L 793.15335 732.022503 
L 794.331 731.69831 
L 796.6863 731.764058 
L 797.86395 731.417413 
L 799.0416 732.630669 
L 800.21925 732.867188 
L 801.3969 733.68928 
L 802.57455 732.593759 
L 803.7522 733.186171 
L 804.92985 733.150938 
L 806.1075 732.477187 
L 807.28515 732.245603 
L 808.4628 731.68799 
L 809.64045 731.573681 
L 810.8181 732.880153 
L 811.99575 733.034088 
L 813.1734 732.855068 
L 814.35105 732.231455 
L 815.5287 732.874339 
L 816.70635 733.646387 
L 817.884 733.293961 
L 819.06165 733.57163 
L 821.41695 734.394697 
L 823.77225 734.717704 
L 824.9499 733.557952 
L 827.3052 733.249998 
L 828.48285 734.096191 
L 829.6605 733.814935 
L 832.0158 733.011233 
L 833.19345 734.281712 
L 834.3711 733.785526 
L 835.54875 735.190322 
L 836.7264 734.167115 
L 837.90405 733.661725 
L 839.0817 733.308934 
L 840.25935 733.081931 
L 843.7923 733.092911 
L 844.96995 734.217922 
L 846.1476 734.046027 
L 847.32525 733.549205 
L 848.5029 733.441218 
L 849.68055 732.642903 
L 853.2135 732.452007 
L 854.39115 732.716202 
L 855.5688 732.856466 
L 856.74645 733.627189 
L 857.9241 732.983924 
L 859.10175 731.677527 
L 860.2794 732.23135 
L 861.45705 734.355132 
L 862.6347 734.263593 
L 863.81235 732.093287 
L 864.99 731.904544 
L 866.16765 732.97993 
L 867.3453 732.864965 
L 868.52295 732.090002 
L 869.7006 731.953337 
L 870.87825 732.764532 
L 872.0559 732.964664 
L 874.4112 732.861111 
L 875.58885 731.853448 
L 876.7665 731.817057 
L 877.94415 731.239848 
L 879.1218 731.096898 
L 880.29945 731.927704 
L 881.4771 731.883866 
L 882.65475 732.250239 
L 883.8324 732.460715 
L 885.01005 731.829084 
L 886.1877 731.498105 
L 887.36535 731.511783 
L 888.543 731.785897 
L 889.72065 732.489085 
L 890.8983 732.417755 
L 892.07595 733.195528 
L 893.2536 733.148946 
L 894.43125 732.875308 
L 895.6089 733.310699 
L 896.78655 732.603553 
L 899.14185 732.292456 
L 900.3195 732.311678 
L 902.6748 732.059245 
L 903.85245 732.516522 
L 905.0301 732.422378 
L 906.20775 732.709341 
L 907.3854 732.745758 
L 908.56305 732.098351 
L 909.7407 731.704054 
L 910.91835 732.068204 
L 912.096 731.984503 
L 913.27365 732.866893 
L 914.4513 732.873112 
L 915.62895 732.131732 
L 917.98425 731.982009 
L 919.1619 731.893143 
L 920.33955 732.105438 
L 921.5172 731.979011 
L 922.69485 731.366842 
L 926.2278 731.931489 
L 927.40545 731.710351 
L 928.5831 731.724076 
L 929.76075 732.297097 
L 930.9384 732.208671 
L 932.11605 731.838341 
L 933.2937 731.629604 
L 934.47135 731.214885 
L 935.649 731.411659 
L 936.82665 732.198074 
L 938.0043 731.99645 
L 939.18195 730.810743 
L 940.3596 730.958339 
L 941.53725 731.362153 
L 942.7149 731.325018 
L 943.89255 731.053534 
L 945.0702 731.047526 
L 946.24785 733.050333 
L 947.4255 733.050333 
L 948.60315 731.738193 
L 949.7808 731.822007 
L 950.95845 733.366361 
L 952.1361 733.371179 
L 953.31375 732.282962 
L 954.4914 732.22627 
L 955.66905 732.464198 
L 956.8467 732.498964 
L 958.02435 731.538681 
L 959.202 731.504845 
L 960.37965 732.028987 
L 961.5573 731.984155 
L 962.73495 731.224566 
L 963.9126 731.201413 
L 965.09025 730.160861 
L 966.2679 730.096437 
L 967.44555 731.148045 
L 968.6232 731.157569 
L 969.80085 732.723861 
L 970.9785 732.739978 
L 972.15615 731.735214 
L 973.3338 731.758098 
L 974.51145 732.116323 
L 975.6891 732.118954 
L 976.86675 732.794662 
L 978.0444 732.821092 
L 979.22205 732.377006 
L 980.3997 732.377006 
L 981.57735 733.020595 
L 982.755 733.009563 
L 983.93265 732.738017 
L 985.1103 732.656261 
L 986.28795 733.865187 
L 987.4656 733.889821 
L 988.64325 732.278873 
L 989.8209 732.282854 
L 990.99855 732.95598 
L 992.1762 732.942006 
L 993.35385 733.501835 
L 994.5315 733.511724 
L 995.70915 733.356706 
L 996.8868 733.321045 
L 998.06445 732.843983 
L 999.2421 732.808873 
L 1000.41975 733.987315 
L 1001.5974 733.952337 
L 1002.77505 733.256884 
L 1003.9527 733.270325 
L 1005.13035 732.507739 
L 1006.308 732.514289 
L 1007.48565 732.890675 
L 1008.6633 732.861492 
L 1009.84095 732.458948 
L 1011.0186 732.467781 
L 1012.19625 734.224713 
L 1013.3739 734.260409 
L 1014.55155 732.930037 
L 1018.0845 732.941811 
L 1019.26215 732.521021 
L 1020.4398 732.536965 
L 1021.61745 732.090585 
L 1022.7951 732.087338 
L 1023.97275 732.344236 
L 1025.1504 732.357305 
L 1026.32805 732.653243 
L 1027.5057 732.711534 
L 1028.68335 731.574468 
L 1029.861 731.529814 
L 1031.03865 730.988778 
L 1032.2163 730.923569 
L 1033.39395 730.579917 
L 1034.5716 730.648219 
L 1035.74925 730.875147 
L 1036.9269 730.802156 
L 1038.10455 732.327178 
L 1039.2822 732.234856 
L 1040.45985 732.959396 
L 1041.6375 732.711363 
L 1042.81515 732.949695 
L 1048.7034 733.180459 
L 1049.88105 732.737167 
L 1052.23635 733.035786 
L 1053.414 732.890853 
L 1054.59165 731.566194 
L 1055.7693 731.555254 
L 1056.94695 732.269716 
L 1060.4799 732.217084 
L 1061.65755 732.279833 
L 1062.8352 732.572776 
L 1065.1905 732.50628 
L 1066.36815 731.993222 
L 1067.5458 731.865956 
L 1069.9011 732.069994 
L 1071.07875 732.152924 
L 1072.2564 731.872943 
L 1073.43405 733.173919 
L 1074.6117 733.089915 
L 1075.78935 732.883175 
L 1076.967 732.810841 
L 1078.14465 732.556136 
L 1079.3223 732.673335 
L 1080.49995 732.174373 
L 1081.6776 731.992532 
L 1082.85525 733.305586 
L 1084.0329 733.244501 
L 1085.21055 731.592781 
L 1088.7435 731.825548 
L 1089.92115 732.408712 
L 1091.0988 732.348755 
L 1093.4541 731.912379 
L 1094.63175 732.777937 
L 1095.8094 732.860255 
L 1096.98705 733.629191 
L 1098.1647 733.633648 
L 1099.34235 734.66909 
L 1100.52 734.786713 
L 1101.69765 733.604025 
L 1102.8753 733.520583 
L 1104.05295 735.250356 
L 1105.2306 735.185757 
L 1106.40825 734.061134 
L 1107.5859 733.9263 
L 1108.76355 732.244702 
L 1109.9412 732.103792 
L 1111.11885 731.215664 
L 1112.2965 731.06615 
L 1113.47415 732.816466 
L 1114.6518 732.702896 
L 1117.0071 732.988077 
L 1118.18475 733.48045 
L 1119.3624 733.44526 
L 1120.54005 733.121007 
L 1121.7177 733.078775 
L 1122.89535 731.526817 
L 1124.073 731.563523 
L 1125.25065 731.220064 
L 1126.4283 731.320004 
L 1127.60595 732.175482 
L 1128.7836 732.244032 
L 1129.96125 731.355613 
L 1131.1389 731.360018 
L 1132.31655 732.67655 
L 1135.8495 732.830446 
L 1138.2048 733.142805 
L 1139.38245 733.73219 
L 1140.5601 733.528598 
L 1142.9154 733.254261 
L 1144.09305 732.408003 
L 1147.626 732.714974 
L 1148.80365 731.693314 
L 1149.9813 731.772445 
L 1151.15895 731.522332 
L 1155.86955 731.507901 
L 1157.0472 730.704284 
L 1158.22485 731.127652 
L 1159.4025 732.247811 
L 1160.58015 732.834 
L 1161.7578 732.732108 
L 1162.93545 732.788979 
L 1164.1131 732.698043 
L 1166.4684 732.81407 
L 1167.64605 732.863173 
L 1168.8237 732.537905 
L 1170.00135 731.478341 
L 1171.179 730.920324 
L 1172.35665 731.230261 
L 1173.5343 730.933862 
L 1174.71195 731.171416 
L 1175.8896 731.544982 
L 1177.06725 732.036259 
L 1178.2449 732.071973 
L 1179.42255 731.835477 
L 1180.6002 732.205877 
L 1181.77785 731.653544 
L 1182.9555 732.044259 
L 1185.3108 731.980858 
L 1186.48845 730.270165 
L 1187.6661 730.658807 
L 1188.84375 730.504177 
L 1190.0214 730.084644 
L 1191.19905 730.532463 
L 1192.3767 731.289555 
L 1193.55435 730.583996 
L 1194.732 731.47325 
L 1195.90965 732.11491 
L 1197.0873 732.016999 
L 1198.26495 731.23605 
L 1199.4426 731.10443 
L 1200.62025 731.965218 
L 1201.7979 732.977829 
L 1202.97555 732.578286 
L 1204.1532 732.783669 
L 1205.33085 731.24989 
L 1206.5085 731.135643 
L 1207.68615 730.894353 
L 1211.2191 731.2131 
L 1212.39675 732.368455 
L 1213.5744 732.676751 
L 1214.75205 732.355837 
L 1215.9297 732.658021 
L 1217.10735 731.632272 
L 1218.285 731.678424 
L 1219.46265 733.339452 
L 1221.81795 731.736138 
L 1222.9956 732.028131 
L 1225.3509 731.984281 
L 1226.52855 732.794862 
L 1227.7062 732.814142 
L 1228.88385 732.139362 
L 1231.23915 732.172154 
L 1232.4168 731.78785 
L 1233.59445 732.126329 
L 1234.7721 731.891168 
L 1235.94975 732.660243 
L 1237.1274 732.818453 
L 1238.30505 733.104965 
L 1239.4827 733.0391 
L 1240.66035 733.811914 
L 1241.838 732.784353 
L 1243.01565 733.059895 
L 1244.1933 731.922474 
L 1245.37095 732.300626 
L 1246.5486 732.032487 
L 1247.72625 732.879462 
L 1248.9039 732.103238 
L 1250.08155 732.461389 
L 1251.2592 732.152051 
L 1252.43685 732.094319 
L 1253.6145 731.318776 
L 1255.9698 731.657922 
L 1257.14745 731.495623 
L 1258.3251 732.068245 
L 1259.50275 732.427769 
L 1260.6804 732.550744 
L 1261.85805 730.940532 
L 1264.21335 731.855089 
L 1265.391 733.024888 
L 1266.56865 732.13242 
L 1267.7463 732.611831 
L 1268.92395 733.212548 
L 1270.1016 732.635414 
L 1271.27925 733.133473 
L 1272.4569 731.657005 
L 1273.63455 732.612012 
L 1274.8122 731.797676 
L 1275.98985 732.515527 
L 1277.1675 732.567145 
L 1278.34515 732.353115 
L 1279.5228 733.361587 
L 1280.70045 733.262262 
L 1281.8781 732.469146 
L 1283.05575 732.653191 
L 1284.2334 731.572646 
L 1285.41105 731.886302 
L 1286.5887 732.573638 
L 1287.76635 732.621632 
L 1288.944 733.343685 
L 1290.12165 733.276787 
L 1291.2993 733.722433 
L 1292.47695 733.605256 
L 1294.83225 732.905698 
L 1296.0099 733.369192 
L 1297.18755 732.827437 
L 1298.3652 733.296999 
L 1299.54285 732.879654 
L 1300.7205 732.080817 
L 1301.89815 731.946989 
L 1303.0758 731.34659 
L 1304.25345 731.813526 
L 1305.4311 733.106398 
L 1306.60875 733.345147 
L 1307.7864 734.217863 
L 1308.96405 733.953436 
L 1310.1417 733.315254 
L 1312.497 732.896482 
L 1313.67465 733.055704 
L 1314.8523 733.381132 
L 1316.02995 733.521099 
L 1317.2076 733.139538 
L 1318.38525 732.990474 
L 1320.74055 733.223558 
L 1321.9182 732.370517 
L 1323.09585 732.50676 
L 1324.2735 731.938371 
L 1325.45115 731.859049 
L 1326.6288 732.62807 
L 1328.9841 732.495465 
L 1330.16175 731.340159 
L 1331.3394 732.779524 
L 1332.51705 732.829882 
L 1333.6947 732.069807 
L 1336.05 732.63685 
L 1336.05 732.63685 
" style="fill:none;stroke:#0000ff;stroke-linecap:square;stroke-width:2.0;"/>
   </g>
   <g id="line2d_2">
    <path clip-path="url(#p2d77d1121b)" d="M 159.57765 137.408407 
L 160.7553 137.407502 
L 161.93295 145.289426 
L 163.1106 145.538878 
L 164.28825 153.408059 
L 165.4659 153.491615 
L 166.64355 159.581012 
L 167.8212 159.757615 
L 168.99885 166.144529 
L 170.1765 166.348403 
L 171.35415 171.360985 
L 172.5318 171.573425 
L 173.70945 177.849965 
L 174.8871 177.89744 
L 176.06475 183.145288 
L 177.2424 183.35138 
L 178.42005 189.52058 
L 179.5977 189.640256 
L 180.77535 194.979227 
L 181.953 194.980043 
L 183.13065 200.760352 
L 184.3083 200.763865 
L 185.48595 206.736577 
L 186.6636 206.746549 
L 187.84125 213.673421 
L 189.0189 213.659727 
L 190.19655 219.152349 
L 191.3742 219.166605 
L 192.55185 226.635231 
L 193.7295 226.716668 
L 194.90715 233.110438 
L 196.0848 233.112813 
L 197.26245 239.533128 
L 198.4401 239.647685 
L 199.61775 245.311733 
L 200.7954 246.77731 
L 201.97305 252.624972 
L 203.1507 252.63848 
L 204.32835 258.475612 
L 205.506 258.860721 
L 206.68365 263.562836 
L 207.8613 264.886668 
L 209.03895 270.444728 
L 210.2166 270.507419 
L 211.39425 274.62761 
L 212.5719 275.477177 
L 213.74955 280.412747 
L 214.9272 280.830464 
L 216.10485 285.108642 
L 217.2825 285.7199 
L 218.46015 290.997572 
L 219.6378 291.267463 
L 220.81545 297.121057 
L 221.9931 297.364386 
L 223.17075 302.787796 
L 224.3484 302.746139 
L 225.52605 307.049229 
L 226.7037 307.255297 
L 227.88135 312.141335 
L 229.059 312.161001 
L 230.23665 317.673697 
L 231.4143 317.942142 
L 232.59195 322.055081 
L 233.7696 322.169936 
L 234.94725 327.114867 
L 236.1249 327.286448 
L 237.30255 332.583179 
L 238.4802 332.687622 
L 239.65785 338.792145 
L 240.8355 338.88978 
L 242.01315 342.989057 
L 243.1908 343.070041 
L 244.36845 349.25836 
L 245.5461 349.281428 
L 246.72375 355.055297 
L 247.9014 355.060576 
L 249.07905 361.635063 
L 250.2567 361.637085 
L 251.43435 366.580682 
L 252.612 366.586207 
L 253.78965 371.794957 
L 254.9673 371.841567 
L 256.14495 379.062608 
L 257.3226 379.060137 
L 258.50025 385.116345 
L 259.6779 385.118539 
L 260.85555 390.832983 
L 262.0332 390.848169 
L 263.21085 396.349937 
L 264.3885 396.357499 
L 265.56615 401.228886 
L 266.7438 401.228549 
L 267.92145 406.400371 
L 269.0991 406.409157 
L 270.27675 413.270195 
L 271.4544 413.470908 
L 272.63205 418.934183 
L 273.8097 419.061386 
L 274.98735 426.226816 
L 276.165 426.335308 
L 277.34265 432.466929 
L 278.5203 432.546507 
L 279.69795 438.23794 
L 280.8756 438.263379 
L 282.05325 442.982255 
L 283.2309 443.037803 
L 284.40855 449.070595 
L 285.5862 449.248413 
L 286.76385 454.812591 
L 287.9415 455.057692 
L 289.11915 461.60191 
L 290.2968 461.950156 
L 291.47445 466.944554 
L 292.6521 467.048669 
L 293.82975 472.426152 
L 295.0074 472.715351 
L 296.18505 478.670054 
L 297.3627 479.076899 
L 298.54035 484.088887 
L 299.718 484.51741 
L 300.89565 490.335967 
L 302.0733 490.915831 
L 303.25095 495.613972 
L 304.4286 495.705199 
L 305.60625 502.331824 
L 306.7839 502.620648 
L 307.96155 507.398406 
L 309.1392 507.74759 
L 310.31685 513.22943 
L 311.4945 513.601644 
L 312.67215 518.644896 
L 313.8498 518.694942 
L 315.02745 524.310531 
L 316.2051 524.371499 
L 317.38275 529.533656 
L 318.5604 529.954177 
L 319.73805 535.677527 
L 320.9157 535.936703 
L 322.09335 540.600596 
L 323.271 540.718601 
L 324.44865 545.697202 
L 325.6263 546.88624 
L 326.80395 550.278166 
L 327.9816 554.043751 
L 329.15925 554.009139 
L 330.3369 559.752916 
L 331.51455 559.811841 
L 332.6922 564.51461 
L 333.86985 564.480136 
L 335.0475 571.304346 
L 336.22515 571.384491 
L 337.4028 576.527135 
L 338.58045 576.631206 
L 339.7581 582.566596 
L 340.93575 582.769648 
L 342.1134 587.619327 
L 343.29105 587.601973 
L 344.4687 592.721517 
L 345.64635 592.855313 
L 346.824 597.455615 
L 348.00165 597.61266 
L 349.1793 602.703418 
L 350.35695 602.826237 
L 351.5346 608.792326 
L 352.71225 608.78943 
L 353.8899 616.234599 
L 355.06755 616.172849 
L 356.2452 623.327753 
L 357.42285 623.329289 
L 358.6005 628.732143 
L 359.77815 628.856194 
L 360.9558 634.361134 
L 362.13345 634.402494 
L 363.3111 641.01842 
L 364.48875 641.056674 
L 365.6664 645.396006 
L 366.84405 645.490236 
L 368.0217 651.273637 
L 369.19935 651.549782 
L 370.377 657.219595 
L 371.55465 657.459791 
L 372.7323 663.087998 
L 373.90995 663.252213 
L 375.0876 669.910791 
L 376.26525 670.300945 
L 377.4429 676.756168 
L 378.62055 677.350092 
L 379.7982 682.112993 
L 380.97585 682.705804 
L 382.1535 687.679442 
L 383.33115 688.337498 
L 384.5088 693.485219 
L 385.68645 694.370917 
L 386.8641 698.680378 
L 388.04175 699.615096 
L 389.2194 703.956912 
L 390.39705 705.347615 
L 391.5747 710.054738 
L 392.75235 711.572788 
L 393.93 715.146698 
L 395.10765 716.360141 
L 396.2853 719.334986 
L 397.46295 721.099214 
L 398.6406 722.481832 
L 399.81825 723.491794 
L 402.17355 727.456468 
L 403.3512 728.35414 
L 404.52885 729.058441 
L 405.7065 729.031206 
L 406.88415 730.336006 
L 408.0618 730.436925 
L 409.23945 731.077636 
L 410.4171 731.528829 
L 411.59475 731.18435 
L 412.7724 731.645137 
L 413.95005 731.398731 
L 415.1277 731.866052 
L 416.30535 731.27726 
L 417.483 731.127391 
L 418.66065 730.737516 
L 419.8383 730.6968 
L 421.01595 732.644245 
L 422.1936 732.532573 
L 423.37125 733.745839 
L 424.5489 733.725072 
L 425.72655 732.32418 
L 426.9042 732.175574 
L 428.08185 732.267199 
L 430.43715 732.826328 
L 431.6148 732.810138 
L 432.79245 732.403064 
L 433.9701 732.359321 
L 435.14775 732.522017 
L 436.3254 732.548435 
L 437.50305 733.861695 
L 438.6807 733.816119 
L 439.85835 732.159645 
L 441.036 732.101034 
L 442.21365 733.185402 
L 445.7466 733.187989 
L 446.92425 732.56047 
L 448.1019 732.552705 
L 449.27955 731.4471 
L 450.4572 731.454464 
L 451.63485 732.751564 
L 452.8125 732.78406 
L 453.99015 731.441274 
L 455.1678 731.447757 
L 456.34545 732.28743 
L 457.5231 732.358513 
L 458.70075 733.443325 
L 459.8784 733.348091 
L 461.05605 732.883487 
L 462.2337 732.941917 
L 463.41135 732.269207 
L 464.589 732.258242 
L 465.76665 733.428492 
L 466.9443 733.401284 
L 469.2996 733.142252 
L 470.47725 733.360025 
L 472.83255 733.150425 
L 474.0102 732.839444 
L 475.18785 733.145003 
L 477.54315 733.024182 
L 478.7208 733.150607 
L 479.89845 732.488443 
L 481.0761 732.184735 
L 482.25375 732.896031 
L 483.4314 732.755926 
L 484.60905 734.2597 
L 485.7867 734.047227 
L 488.142 733.954337 
L 489.31965 732.755426 
L 490.4973 733.144084 
L 492.8526 732.411725 
L 494.03025 733.529539 
L 495.2079 733.894258 
L 496.38555 732.381215 
L 497.5632 732.345998 
L 498.74085 733.624256 
L 499.9185 733.682994 
L 502.2738 733.637984 
L 503.45145 732.915165 
L 504.6291 732.957386 
L 505.80675 732.461023 
L 506.9844 732.457363 
L 508.16205 733.559095 
L 509.3397 733.558763 
L 510.51735 732.384414 
L 511.695 732.373578 
L 512.87265 731.893159 
L 514.0503 731.866829 
L 515.22795 732.286782 
L 516.4056 732.336831 
L 517.58325 733.427677 
L 518.7609 733.427735 
L 519.93855 733.817343 
L 521.1162 733.730209 
L 522.29385 733.085617 
L 523.4715 733.145534 
L 524.64915 731.718249 
L 525.8268 731.677732 
L 527.00445 731.892075 
L 528.1821 731.931824 
L 529.35975 732.784637 
L 530.5374 732.790421 
L 531.71505 734.041349 
L 532.8927 734.004321 
L 534.07035 732.837047 
L 535.248 732.785896 
L 536.42565 731.84608 
L 537.6033 731.860279 
L 538.78095 731.648692 
L 539.9586 731.629427 
L 541.13625 731.126778 
L 542.3139 731.18521 
L 543.49155 731.513505 
L 544.6692 731.45971 
L 545.84685 733.114447 
L 547.0245 733.331823 
L 548.20215 731.474725 
L 550.55745 731.387957 
L 551.7351 731.306888 
L 552.91275 733.521963 
L 554.0904 733.894432 
L 555.26805 733.197179 
L 556.4457 734.009923 
L 557.62335 733.639775 
L 558.801 733.60929 
L 559.97865 733.291893 
L 561.1563 732.819184 
L 563.5116 733.096389 
L 564.68925 734.246354 
L 565.8669 734.341545 
L 567.04455 733.757463 
L 568.2222 733.768731 
L 569.39985 732.016889 
L 570.5775 732.280083 
L 571.75515 731.790531 
L 574.11045 731.970772 
L 575.2881 732.242973 
L 576.46575 732.189435 
L 577.6434 731.158603 
L 578.82105 731.777677 
L 579.9987 731.605305 
L 582.354 732.160885 
L 583.53165 731.788795 
L 584.7093 732.711405 
L 585.88695 732.341101 
L 587.0646 732.847242 
L 590.59755 731.84097 
L 591.7752 731.360625 
L 592.95285 732.184119 
L 594.1305 732.474207 
L 595.30815 733.455288 
L 596.4858 732.57415 
L 597.66345 733.02968 
L 598.8411 732.588354 
L 600.01875 732.330556 
L 601.1964 733.33939 
L 603.5517 732.749508 
L 604.72935 733.258739 
L 605.907 730.81691 
L 607.08465 730.455357 
L 608.2623 732.180705 
L 609.43995 732.858452 
L 610.6176 732.847657 
L 614.15055 733.836045 
L 615.3282 735.536072 
L 616.50585 735.422438 
L 617.6835 733.630721 
L 618.86115 733.617722 
L 620.0388 732.503665 
L 621.21645 732.499104 
L 622.3941 731.978291 
L 623.57175 732.006971 
L 624.7494 732.819752 
L 625.92705 732.877009 
L 627.1047 732.62129 
L 628.28235 732.62129 
L 629.46 732.07691 
L 630.63765 732.098336 
L 631.8153 733.534315 
L 632.99295 733.276814 
L 634.1706 732.651108 
L 635.34825 732.953391 
L 636.5259 734.149407 
L 637.70355 734.481831 
L 638.8812 732.653687 
L 640.05885 732.840807 
L 641.2365 733.840179 
L 642.41415 733.81541 
L 643.5918 733.479648 
L 644.76945 733.676363 
L 645.9471 732.534821 
L 647.12475 732.671045 
L 648.3024 734.146834 
L 651.83535 734.18006 
L 653.013 732.359568 
L 654.19065 732.3441 
L 655.3683 732.621364 
L 656.54595 732.691554 
L 657.7236 731.835738 
L 658.90125 731.884929 
L 660.0789 732.876247 
L 661.25655 732.904462 
L 662.4342 732.629977 
L 663.61185 732.643204 
L 664.7895 733.437607 
L 665.96715 733.4426 
L 667.1448 733.89392 
L 668.32245 733.885149 
L 669.5001 734.391411 
L 670.67775 734.36047 
L 671.8554 731.124163 
L 673.03305 731.094356 
L 674.2107 732.060179 
L 675.38835 731.930144 
L 676.566 732.862479 
L 677.74365 732.997825 
L 678.9213 732.276484 
L 680.09895 732.207691 
L 681.2766 732.625685 
L 682.45425 732.621134 
L 683.6319 734.315678 
L 684.80955 734.189861 
L 685.9872 732.616218 
L 687.16485 732.6591 
L 689.52015 732.418619 
L 690.6978 732.512393 
L 691.87545 732.742774 
L 693.0531 733.412313 
L 697.7637 732.695165 
L 698.94135 732.828149 
L 700.119 733.411588 
L 701.29665 732.794323 
L 702.4743 731.849399 
L 703.65195 732.133734 
L 704.8296 733.831627 
L 706.00725 734.03914 
L 707.1849 731.722531 
L 708.36255 731.701931 
L 709.5402 733.319669 
L 710.71785 734.075207 
L 711.8955 732.371518 
L 713.07315 732.424622 
L 714.2508 732.157545 
L 715.42845 731.657473 
L 716.6061 731.572208 
L 717.78375 731.975776 
L 718.9614 733.113381 
L 721.3167 731.45414 
L 722.49435 730.853583 
L 726.0273 733.855077 
L 728.3826 733.663126 
L 729.56025 732.800155 
L 730.7379 732.706791 
L 731.91555 731.880386 
L 733.0932 732.710691 
L 734.27085 731.908818 
L 735.4485 731.618892 
L 736.62615 731.830944 
L 737.8038 731.916876 
L 738.98145 731.0641 
L 740.1591 731.069247 
L 741.33675 732.625159 
L 742.5144 731.926639 
L 743.69205 732.201464 
L 744.8697 732.265633 
L 746.04735 732.557275 
L 747.225 732.087831 
L 748.40265 731.109962 
L 749.5803 731.677531 
L 750.75795 732.742886 
L 753.11325 732.358843 
L 754.2909 731.962504 
L 755.46855 732.832746 
L 756.6462 732.527917 
L 757.82385 732.422731 
L 759.0015 732.771125 
L 760.17915 732.476192 
L 761.3568 732.550482 
L 762.53445 730.484216 
L 763.7121 730.594476 
L 766.0674 731.124201 
L 767.24505 732.618314 
L 768.4227 732.831809 
L 769.60035 732.083803 
L 770.778 732.123214 
L 771.95565 732.504935 
L 773.1333 732.375961 
L 774.31095 733.060895 
L 775.4886 733.146808 
L 776.66625 731.937728 
L 777.8439 731.671089 
L 779.02155 732.668837 
L 780.1992 732.58845 
L 781.37685 732.896969 
L 782.5545 732.667415 
L 784.9098 732.687035 
L 786.08745 734.460115 
L 787.2651 734.145647 
L 788.44275 731.604362 
L 789.6204 731.609367 
L 790.79805 733.363585 
L 791.9757 733.355875 
L 793.15335 732.945012 
L 794.331 732.897916 
L 795.50865 731.469471 
L 796.6863 731.598062 
L 797.86395 732.604369 
L 799.0416 732.595275 
L 800.21925 732.397336 
L 801.3969 732.349616 
L 802.57455 732.542439 
L 803.7522 732.536894 
L 804.92985 732.098771 
L 806.1075 732.067679 
L 807.28515 733.632897 
L 808.4628 733.621462 
L 810.8181 733.734728 
L 811.99575 733.362616 
L 813.1734 733.361316 
L 814.35105 734.121722 
L 815.5287 734.113723 
L 816.70635 732.811474 
L 817.884 732.812549 
L 819.06165 733.551494 
L 820.2393 733.556379 
L 821.41695 733.705704 
L 822.5946 733.69028 
L 823.77225 732.480698 
L 824.9499 732.427142 
L 826.12755 732.229173 
L 827.3052 732.261916 
L 828.48285 731.640425 
L 829.6605 731.655168 
L 830.83815 733.309161 
L 832.0158 733.285036 
L 833.19345 732.538225 
L 834.3711 732.525193 
L 835.54875 732.826211 
L 839.0817 732.743316 
L 840.25935 732.27963 
L 841.437 732.256506 
L 842.61465 733.493319 
L 843.7923 733.485325 
L 844.96995 733.127756 
L 846.1476 733.120437 
L 847.32525 732.591299 
L 848.5029 732.590316 
L 849.68055 732.052508 
L 850.8582 732.09693 
L 852.03585 731.000235 
L 853.2135 730.993221 
L 854.39115 731.572924 
L 855.5688 731.552423 
L 856.74645 732.362632 
L 857.9241 732.35097 
L 859.10175 730.079148 
L 860.2794 729.971073 
L 861.45705 731.301324 
L 862.6347 731.298761 
L 863.81235 731.718014 
L 864.99 731.723445 
L 866.16765 731.245091 
L 867.3453 731.258321 
L 868.52295 732.786379 
L 869.7006 732.791719 
L 870.87825 732.490124 
L 874.4112 732.423725 
L 875.58885 732.861281 
L 876.7665 732.859431 
L 877.94415 731.965169 
L 879.1218 731.970026 
L 880.29945 730.901779 
L 881.4771 730.915698 
L 882.65475 730.705483 
L 885.01005 730.711623 
L 887.36535 731.763767 
L 888.543 731.438804 
L 889.72065 730.909931 
L 890.8983 731.49069 
L 893.2536 731.436342 
L 894.43125 732.208573 
L 895.6089 731.904236 
L 896.78655 731.0446 
L 897.9642 730.869831 
L 899.14185 731.792608 
L 900.3195 731.661491 
L 901.49715 732.390348 
L 902.6748 732.541011 
L 903.85245 732.979964 
L 906.20775 733.20342 
L 907.3854 733.009297 
L 908.56305 732.218313 
L 909.7407 731.82001 
L 910.91835 732.532253 
L 914.4513 732.889508 
L 915.62895 732.733475 
L 916.8066 733.214009 
L 917.98425 732.556294 
L 919.1619 732.651248 
L 920.33955 732.141715 
L 921.5172 731.798547 
L 922.69485 733.843119 
L 923.8725 733.664097 
L 926.2278 734.660891 
L 927.40545 734.111586 
L 928.5831 734.110916 
L 929.76075 733.699073 
L 930.9384 733.636895 
L 932.11605 733.887695 
L 933.2937 733.806015 
L 934.47135 732.590217 
L 935.649 732.509676 
L 936.82665 731.431905 
L 938.0043 731.60216 
L 940.3596 731.339361 
L 941.53725 731.435415 
L 942.7149 731.730454 
L 943.89255 732.377274 
L 945.0702 732.071811 
L 946.24785 732.280527 
L 947.4255 732.059634 
L 948.60315 732.96053 
L 949.7808 732.692827 
L 952.1361 731.885331 
L 953.31375 732.544577 
L 954.4914 732.341729 
L 955.66905 731.925469 
L 956.8467 731.649701 
L 958.02435 732.541183 
L 959.202 733.142175 
L 960.37965 732.70753 
L 961.5573 732.687619 
L 962.73495 731.202544 
L 963.9126 731.288655 
L 965.09025 731.62293 
L 966.2679 731.811847 
L 968.6232 732.733437 
L 970.9785 732.96602 
L 972.15615 734.220725 
L 973.3338 734.322616 
L 974.51145 733.319135 
L 975.6891 733.347848 
L 976.86675 730.512082 
L 978.0444 730.446325 
L 979.22205 732.994122 
L 980.3997 733.058772 
L 981.57735 732.650664 
L 983.93265 732.739325 
L 985.1103 733.125886 
L 986.28795 731.362921 
L 987.4656 731.185157 
L 988.64325 733.356791 
L 989.8209 733.677324 
L 990.99855 733.774641 
L 992.1762 733.999897 
L 993.35385 732.263461 
L 994.5315 732.135383 
L 995.70915 731.855061 
L 998.06445 732.659779 
L 999.2421 732.141824 
L 1000.41975 732.474624 
L 1001.5974 732.134697 
L 1002.77505 732.803437 
L 1003.9527 732.690359 
L 1005.13035 732.151143 
L 1006.308 732.325506 
L 1008.6633 732.203719 
L 1009.84095 734.480516 
L 1011.0186 734.580325 
L 1012.19625 733.834176 
L 1013.3739 733.650199 
L 1014.55155 734.150839 
L 1015.7292 733.926476 
L 1016.90685 732.710612 
L 1018.0845 732.506773 
L 1019.26215 733.331638 
L 1022.7951 733.311152 
L 1023.97275 732.877765 
L 1025.1504 732.789673 
L 1026.32805 732.892532 
L 1027.5057 732.676483 
L 1028.68335 733.915061 
L 1029.861 734.054717 
L 1031.03865 732.516415 
L 1032.2163 732.214512 
L 1033.39395 730.956024 
L 1034.5716 731.29787 
L 1035.74925 732.133599 
L 1038.10455 732.219794 
L 1039.2822 732.035848 
L 1040.45985 732.778957 
L 1041.6375 732.556619 
L 1042.81515 730.862715 
L 1043.9928 731.064448 
L 1045.17045 730.431026 
L 1046.3481 730.440473 
L 1047.52575 732.229644 
L 1049.88105 732.328847 
L 1051.0587 732.066572 
L 1052.23635 732.109901 
L 1053.414 731.854226 
L 1054.59165 731.111322 
L 1055.7693 731.025501 
L 1056.94695 732.652928 
L 1058.1246 732.621079 
L 1059.30225 731.989424 
L 1061.65755 732.366947 
L 1062.8352 732.31002 
L 1064.01285 732.401577 
L 1065.1905 732.273563 
L 1066.36815 733.289186 
L 1067.5458 733.42457 
L 1068.72345 733.206002 
L 1069.9011 733.145431 
L 1071.07875 732.88679 
L 1072.2564 732.93703 
L 1073.43405 733.27642 
L 1074.6117 733.166523 
L 1076.967 732.547373 
L 1078.14465 731.957383 
L 1079.3223 732.252674 
L 1080.49995 733.412508 
L 1081.6776 733.31917 
L 1082.85525 732.543366 
L 1084.0329 732.396301 
L 1085.21055 731.872852 
L 1086.3882 731.980803 
L 1088.7435 731.499866 
L 1089.92115 733.513373 
L 1091.0988 733.646511 
L 1092.27645 732.881569 
L 1093.4541 732.763867 
L 1095.8094 732.77565 
L 1098.1647 732.646748 
L 1099.34235 732.687058 
L 1100.52 732.580866 
L 1101.69765 732.692725 
L 1102.8753 732.535409 
L 1104.05295 731.967884 
L 1105.2306 731.916851 
L 1106.40825 732.592661 
L 1107.5859 732.546152 
L 1109.9412 731.994805 
L 1111.11885 732.92285 
L 1112.2965 732.936911 
L 1113.47415 732.212767 
L 1114.6518 732.110596 
L 1115.82945 733.142058 
L 1117.0071 732.951019 
L 1118.18475 733.0757 
L 1119.3624 733.362275 
L 1120.54005 732.140481 
L 1121.7177 732.05179 
L 1122.89535 731.775723 
L 1124.073 732.035491 
L 1125.25065 730.745584 
L 1126.4283 730.990597 
L 1127.60595 732.058991 
L 1128.7836 731.840097 
L 1129.96125 732.435665 
L 1131.1389 732.482717 
L 1132.31655 732.107519 
L 1133.4942 732.476157 
L 1134.67185 731.432244 
L 1137.02715 730.995835 
L 1138.2048 731.121066 
L 1139.38245 733.178457 
L 1140.5601 732.881594 
L 1141.73775 731.956785 
L 1142.9154 731.918871 
L 1144.09305 732.019244 
L 1145.2707 731.914008 
L 1146.44835 730.51005 
L 1147.626 730.810129 
L 1148.80365 732.142328 
L 1149.9813 732.115711 
L 1151.15895 731.899423 
L 1152.3366 731.938782 
L 1153.51425 733.118664 
L 1154.6919 733.214011 
L 1155.86955 733.03601 
L 1157.0472 733.14051 
L 1158.22485 732.374905 
L 1159.4025 732.314586 
L 1160.58015 732.521913 
L 1161.7578 732.410667 
L 1162.93545 732.940716 
L 1164.1131 732.825711 
L 1165.29075 733.822109 
L 1166.4684 733.812424 
L 1167.64605 734.482366 
L 1168.8237 734.510742 
L 1170.00135 732.266759 
L 1172.35665 732.73402 
L 1173.5343 732.696503 
L 1174.71195 732.425652 
L 1175.8896 732.599582 
L 1177.06725 734.102458 
L 1179.42255 733.798132 
L 1180.6002 733.77598 
L 1181.77785 732.884249 
L 1182.9555 733.101696 
L 1184.13315 732.237158 
L 1185.3108 732.245173 
L 1186.48845 732.017024 
L 1187.6661 731.938443 
L 1188.84375 732.716 
L 1190.0214 732.720319 
L 1191.19905 732.29379 
L 1192.3767 732.634066 
L 1193.55435 732.01523 
L 1194.732 732.406215 
L 1195.90965 730.461871 
L 1197.0873 730.788539 
L 1198.26495 731.237408 
L 1199.4426 730.987141 
L 1200.62025 732.466182 
L 1201.7979 732.92044 
L 1202.97555 731.947647 
L 1204.1532 732.174223 
L 1205.33085 733.07943 
L 1206.5085 732.951584 
L 1207.68615 732.236938 
L 1208.8638 732.207065 
L 1210.04145 732.482079 
L 1212.39675 732.68579 
L 1213.5744 732.960034 
L 1214.75205 731.726344 
L 1215.9297 731.594249 
L 1217.10735 730.125926 
L 1218.285 730.448511 
L 1219.46265 731.114489 
L 1220.6403 731.056874 
L 1221.81795 731.467447 
L 1222.9956 731.237532 
L 1224.17325 732.242629 
L 1225.3509 732.418984 
L 1226.52855 732.909353 
L 1230.0615 732.731261 
L 1231.23915 732.79334 
L 1232.4168 731.903615 
L 1233.59445 731.710205 
L 1235.94975 732.536598 
L 1238.30505 732.786675 
L 1239.4827 733.314624 
L 1240.66035 732.795199 
L 1241.838 734.495824 
L 1243.01565 734.75956 
L 1244.1933 732.714371 
L 1245.37095 733.156556 
L 1246.5486 733.345195 
L 1247.72625 733.316755 
L 1248.9039 732.766474 
L 1250.08155 732.820999 
L 1251.2592 733.96639 
L 1252.43685 734.159149 
L 1253.6145 732.074036 
L 1254.79215 732.026162 
L 1255.9698 730.901141 
L 1257.14745 731.307232 
L 1258.3251 733.086135 
L 1261.85805 733.381219 
L 1263.0357 733.495882 
L 1264.21335 733.48466 
L 1265.391 732.007635 
L 1267.7463 731.732805 
L 1268.92395 731.719991 
L 1270.1016 731.923278 
L 1271.27925 731.914539 
L 1272.4569 731.277834 
L 1275.98985 731.460364 
L 1277.1675 732.528042 
L 1278.34515 732.419619 
L 1279.5228 733.39885 
L 1280.70045 733.356498 
L 1281.8781 731.565352 
L 1283.05575 731.408897 
L 1284.2334 732.285817 
L 1285.41105 732.205337 
L 1286.5887 732.377909 
L 1287.76635 732.326945 
L 1288.944 733.492489 
L 1290.12165 733.531263 
L 1291.2993 732.776745 
L 1292.47695 733.04577 
L 1293.6546 734.494089 
L 1294.83225 734.376292 
L 1296.0099 733.704905 
L 1297.18755 733.636378 
L 1298.3652 732.259157 
L 1301.89815 732.473676 
L 1303.0758 732.882897 
L 1304.25345 732.855433 
L 1305.4311 731.797477 
L 1308.96405 732.023236 
L 1310.1417 732.817003 
L 1311.31935 732.61343 
L 1313.67465 732.980552 
L 1314.8523 731.776828 
L 1316.02995 731.770575 
L 1317.2076 732.73818 
L 1318.38525 732.913447 
L 1319.5629 732.957784 
L 1320.74055 732.853783 
L 1321.9182 732.101589 
L 1324.2735 732.032855 
L 1325.45115 732.038864 
L 1326.6288 731.086916 
L 1327.80645 731.088234 
L 1328.9841 733.005653 
L 1330.16175 732.921699 
L 1331.3394 731.716136 
L 1332.51705 731.636251 
L 1333.6947 731.881594 
L 1334.87235 731.827009 
L 1336.05 731.457438 
L 1336.05 731.457438 
" style="fill:none;stroke:#008000;stroke-linecap:square;stroke-width:2.0;"/>
   </g>
   <g id="patch_3">
    <path d="M 158.4 51.3 
L 1336.05 51.3 
" style="fill:none;stroke:#000000;stroke-linecap:square;stroke-linejoin:miter;"/>
   </g>
   <g id="patch_4">
    <path d="M 1336.05 747 
L 1336.05 51.3 
" style="fill:none;stroke:#000000;stroke-linecap:square;stroke-linejoin:miter;"/>
   </g>
   <g id="patch_5">
    <path d="M 158.4 747 
L 1336.05 747 
" style="fill:none;stroke:#000000;stroke-linecap:square;stroke-linejoin:miter;"/>
   </g>
   <g id="patch_6">
    <path d="M 158.4 747 
L 158.4 51.3 
" style="fill:none;stroke:#000000;stroke-linecap:square;stroke-linejoin:miter;"/>
   </g>
   <g id="matplotlib.axis_1">
    <g id="xtick_1">
     <g id="line2d_3">
      <defs>
       <path d="M 0 0 
L 0 -4 
" id="m0553b06995" style="stroke:#000000;stroke-width:0.5;"/>
      </defs>
      <g>
       <use style="stroke:#000000;stroke-width:0.5;" x="158.4" xlink:href="#m0553b06995" y="747.0"/>
      </g>
     </g>
     <g id="line2d_4">
      <defs>
       <path d="M 0 0 
L 0 4 
" id="m7a4a6a9a1b" style="stroke:#000000;stroke-width:0.5;"/>
      </defs>
      <g>
       <use style="stroke:#000000;stroke-width:0.5;" x="158.4" xlink:href="#m7a4a6a9a1b" y="51.3"/>
      </g>
     </g>
     <g id="text_1">
      <!-- 0 -->
      <defs>
       <path d="M 31.78125 66.40625 
Q 24.171875 66.40625 20.328125 58.90625 
Q 16.5 51.421875 16.5 36.375 
Q 16.5 21.390625 20.328125 13.890625 
Q 24.171875 6.390625 31.78125 6.390625 
Q 39.453125 6.390625 43.28125 13.890625 
Q 47.125 21.390625 47.125 36.375 
Q 47.125 51.421875 43.28125 58.90625 
Q 39.453125 66.40625 31.78125 66.40625 
M 31.78125 74.21875 
Q 44.046875 74.21875 50.515625 64.515625 
Q 56.984375 54.828125 56.984375 36.375 
Q 56.984375 17.96875 50.515625 8.265625 
Q 44.046875 -1.421875 31.78125 -1.421875 
Q 19.53125 -1.421875 13.0625 8.265625 
Q 6.59375 17.96875 6.59375 36.375 
Q 6.59375 54.828125 13.0625 64.515625 
Q 19.53125 74.21875 31.78125 74.21875 
" id="BitstreamVeraSans-Roman-30"/>
      </defs>
      <g transform="translate(148.85625 773.7953125)scale(0.3 -0.3)">
       <use xlink:href="#BitstreamVeraSans-Roman-30"/>
      </g>
     </g>
    </g>
    <g id="xtick_2">
     <g id="line2d_5">
      <g>
       <use style="stroke:#000000;stroke-width:0.5;" x="393.93" xlink:href="#m0553b06995" y="747.0"/>
      </g>
     </g>
     <g id="line2d_6">
      <g>
       <use style="stroke:#000000;stroke-width:0.5;" x="393.93" xlink:href="#m7a4a6a9a1b" y="51.3"/>
      </g>
     </g>
     <g id="text_2">
      <!-- 20000 -->
      <defs>
       <path d="M 19.1875 8.296875 
L 53.609375 8.296875 
L 53.609375 0 
L 7.328125 0 
L 7.328125 8.296875 
Q 12.9375 14.109375 22.625 23.890625 
Q 32.328125 33.6875 34.8125 36.53125 
Q 39.546875 41.84375 41.421875 45.53125 
Q 43.3125 49.21875 43.3125 52.78125 
Q 43.3125 58.59375 39.234375 62.25 
Q 35.15625 65.921875 28.609375 65.921875 
Q 23.96875 65.921875 18.8125 64.3125 
Q 13.671875 62.703125 7.8125 59.421875 
L 7.8125 69.390625 
Q 13.765625 71.78125 18.9375 73 
Q 24.125 74.21875 28.421875 74.21875 
Q 39.75 74.21875 46.484375 68.546875 
Q 53.21875 62.890625 53.21875 53.421875 
Q 53.21875 48.921875 51.53125 44.890625 
Q 49.859375 40.875 45.40625 35.40625 
Q 44.1875 33.984375 37.640625 27.21875 
Q 31.109375 20.453125 19.1875 8.296875 
" id="BitstreamVeraSans-Roman-32"/>
      </defs>
      <g transform="translate(346.21125 773.7953125)scale(0.3 -0.3)">
       <use xlink:href="#BitstreamVeraSans-Roman-32"/>
       <use x="63.623046875" xlink:href="#BitstreamVeraSans-Roman-30"/>
       <use x="127.24609375" xlink:href="#BitstreamVeraSans-Roman-30"/>
       <use x="190.869140625" xlink:href="#BitstreamVeraSans-Roman-30"/>
       <use x="254.4921875" xlink:href="#BitstreamVeraSans-Roman-30"/>
      </g>
     </g>
    </g>
    <g id="xtick_3">
     <g id="line2d_7">
      <g>
       <use style="stroke:#000000;stroke-width:0.5;" x="629.46" xlink:href="#m0553b06995" y="747.0"/>
      </g>
     </g>
     <g id="line2d_8">
      <g>
       <use style="stroke:#000000;stroke-width:0.5;" x="629.46" xlink:href="#m7a4a6a9a1b" y="51.3"/>
      </g>
     </g>
     <g id="text_3">
      <!-- 40000 -->
      <defs>
       <path d="M 37.796875 64.3125 
L 12.890625 25.390625 
L 37.796875 25.390625 
z
M 35.203125 72.90625 
L 47.609375 72.90625 
L 47.609375 25.390625 
L 58.015625 25.390625 
L 58.015625 17.1875 
L 47.609375 17.1875 
L 47.609375 0 
L 37.796875 0 
L 37.796875 17.1875 
L 4.890625 17.1875 
L 4.890625 26.703125 
z
" id="BitstreamVeraSans-Roman-34"/>
      </defs>
      <g transform="translate(581.74125 773.7953125)scale(0.3 -0.3)">
       <use xlink:href="#BitstreamVeraSans-Roman-34"/>
       <use x="63.623046875" xlink:href="#BitstreamVeraSans-Roman-30"/>
       <use x="127.24609375" xlink:href="#BitstreamVeraSans-Roman-30"/>
       <use x="190.869140625" xlink:href="#BitstreamVeraSans-Roman-30"/>
       <use x="254.4921875" xlink:href="#BitstreamVeraSans-Roman-30"/>
      </g>
     </g>
    </g>
    <g id="xtick_4">
     <g id="line2d_9">
      <g>
       <use style="stroke:#000000;stroke-width:0.5;" x="864.99" xlink:href="#m0553b06995" y="747.0"/>
      </g>
     </g>
     <g id="line2d_10">
      <g>
       <use style="stroke:#000000;stroke-width:0.5;" x="864.99" xlink:href="#m7a4a6a9a1b" y="51.3"/>
      </g>
     </g>
     <g id="text_4">
      <!-- 60000 -->
      <defs>
       <path d="M 33.015625 40.375 
Q 26.375 40.375 22.484375 35.828125 
Q 18.609375 31.296875 18.609375 23.390625 
Q 18.609375 15.53125 22.484375 10.953125 
Q 26.375 6.390625 33.015625 6.390625 
Q 39.65625 6.390625 43.53125 10.953125 
Q 47.40625 15.53125 47.40625 23.390625 
Q 47.40625 31.296875 43.53125 35.828125 
Q 39.65625 40.375 33.015625 40.375 
M 52.59375 71.296875 
L 52.59375 62.3125 
Q 48.875 64.0625 45.09375 64.984375 
Q 41.3125 65.921875 37.59375 65.921875 
Q 27.828125 65.921875 22.671875 59.328125 
Q 17.53125 52.734375 16.796875 39.40625 
Q 19.671875 43.65625 24.015625 45.921875 
Q 28.375 48.1875 33.59375 48.1875 
Q 44.578125 48.1875 50.953125 41.515625 
Q 57.328125 34.859375 57.328125 23.390625 
Q 57.328125 12.15625 50.6875 5.359375 
Q 44.046875 -1.421875 33.015625 -1.421875 
Q 20.359375 -1.421875 13.671875 8.265625 
Q 6.984375 17.96875 6.984375 36.375 
Q 6.984375 53.65625 15.1875 63.9375 
Q 23.390625 74.21875 37.203125 74.21875 
Q 40.921875 74.21875 44.703125 73.484375 
Q 48.484375 72.75 52.59375 71.296875 
" id="BitstreamVeraSans-Roman-36"/>
      </defs>
      <g transform="translate(817.27125 773.7953125)scale(0.3 -0.3)">
       <use xlink:href="#BitstreamVeraSans-Roman-36"/>
       <use x="63.623046875" xlink:href="#BitstreamVeraSans-Roman-30"/>
       <use x="127.24609375" xlink:href="#BitstreamVeraSans-Roman-30"/>
       <use x="190.869140625" xlink:href="#BitstreamVeraSans-Roman-30"/>
       <use x="254.4921875" xlink:href="#BitstreamVeraSans-Roman-30"/>
      </g>
     </g>
    </g>
    <g id="xtick_5">
     <g id="line2d_11">
      <g>
       <use style="stroke:#000000;stroke-width:0.5;" x="1100.52" xlink:href="#m0553b06995" y="747.0"/>
      </g>
     </g>
     <g id="line2d_12">
      <g>
       <use style="stroke:#000000;stroke-width:0.5;" x="1100.52" xlink:href="#m7a4a6a9a1b" y="51.3"/>
      </g>
     </g>
     <g id="text_5">
      <!-- 80000 -->
      <defs>
       <path d="M 31.78125 34.625 
Q 24.75 34.625 20.71875 30.859375 
Q 16.703125 27.09375 16.703125 20.515625 
Q 16.703125 13.921875 20.71875 10.15625 
Q 24.75 6.390625 31.78125 6.390625 
Q 38.8125 6.390625 42.859375 10.171875 
Q 46.921875 13.96875 46.921875 20.515625 
Q 46.921875 27.09375 42.890625 30.859375 
Q 38.875 34.625 31.78125 34.625 
M 21.921875 38.8125 
Q 15.578125 40.375 12.03125 44.71875 
Q 8.5 49.078125 8.5 55.328125 
Q 8.5 64.0625 14.71875 69.140625 
Q 20.953125 74.21875 31.78125 74.21875 
Q 42.671875 74.21875 48.875 69.140625 
Q 55.078125 64.0625 55.078125 55.328125 
Q 55.078125 49.078125 51.53125 44.71875 
Q 48 40.375 41.703125 38.8125 
Q 48.828125 37.15625 52.796875 32.3125 
Q 56.78125 27.484375 56.78125 20.515625 
Q 56.78125 9.90625 50.3125 4.234375 
Q 43.84375 -1.421875 31.78125 -1.421875 
Q 19.734375 -1.421875 13.25 4.234375 
Q 6.78125 9.90625 6.78125 20.515625 
Q 6.78125 27.484375 10.78125 32.3125 
Q 14.796875 37.15625 21.921875 38.8125 
M 18.3125 54.390625 
Q 18.3125 48.734375 21.84375 45.5625 
Q 25.390625 42.390625 31.78125 42.390625 
Q 38.140625 42.390625 41.71875 45.5625 
Q 45.3125 48.734375 45.3125 54.390625 
Q 45.3125 60.0625 41.71875 63.234375 
Q 38.140625 66.40625 31.78125 66.40625 
Q 25.390625 66.40625 21.84375 63.234375 
Q 18.3125 60.0625 18.3125 54.390625 
" id="BitstreamVeraSans-Roman-38"/>
      </defs>
      <g transform="translate(1052.80125 773.7953125)scale(0.3 -0.3)">
       <use xlink:href="#BitstreamVeraSans-Roman-38"/>
       <use x="63.623046875" xlink:href="#BitstreamVeraSans-Roman-30"/>
       <use x="127.24609375" xlink:href="#BitstreamVeraSans-Roman-30"/>
       <use x="190.869140625" xlink:href="#BitstreamVeraSans-Roman-30"/>
       <use x="254.4921875" xlink:href="#BitstreamVeraSans-Roman-30"/>
      </g>
     </g>
    </g>
    <g id="xtick_6">
     <g id="line2d_13">
      <g>
       <use style="stroke:#000000;stroke-width:0.5;" x="1336.05" xlink:href="#m0553b06995" y="747.0"/>
      </g>
     </g>
     <g id="line2d_14">
      <g>
       <use style="stroke:#000000;stroke-width:0.5;" x="1336.05" xlink:href="#m7a4a6a9a1b" y="51.3"/>
      </g>
     </g>
     <g id="text_6">
      <!-- 100000 -->
      <defs>
       <path d="M 12.40625 8.296875 
L 28.515625 8.296875 
L 28.515625 63.921875 
L 10.984375 60.40625 
L 10.984375 69.390625 
L 28.421875 72.90625 
L 38.28125 72.90625 
L 38.28125 8.296875 
L 54.390625 8.296875 
L 54.390625 0 
L 12.40625 0 
z
" id="BitstreamVeraSans-Roman-31"/>
      </defs>
      <g transform="translate(1278.7875 773.7953125)scale(0.3 -0.3)">
       <use xlink:href="#BitstreamVeraSans-Roman-31"/>
       <use x="63.623046875" xlink:href="#BitstreamVeraSans-Roman-30"/>
       <use x="127.24609375" xlink:href="#BitstreamVeraSans-Roman-30"/>
       <use x="190.869140625" xlink:href="#BitstreamVeraSans-Roman-30"/>
       <use x="254.4921875" xlink:href="#BitstreamVeraSans-Roman-30"/>
       <use x="318.115234375" xlink:href="#BitstreamVeraSans-Roman-30"/>
      </g>
     </g>
    </g>
    <g id="text_7">
     <!-- iterations -->
     <defs>
      <path d="M 54.890625 33.015625 
L 54.890625 0 
L 45.90625 0 
L 45.90625 32.71875 
Q 45.90625 40.484375 42.875 44.328125 
Q 39.84375 48.1875 33.796875 48.1875 
Q 26.515625 48.1875 22.3125 43.546875 
Q 18.109375 38.921875 18.109375 30.90625 
L 18.109375 0 
L 9.078125 0 
L 9.078125 54.6875 
L 18.109375 54.6875 
L 18.109375 46.1875 
Q 21.34375 51.125 25.703125 53.5625 
Q 30.078125 56 35.796875 56 
Q 45.21875 56 50.046875 50.171875 
Q 54.890625 44.34375 54.890625 33.015625 
" id="BitstreamVeraSans-Roman-6e"/>
      <path d="M 34.28125 27.484375 
Q 23.390625 27.484375 19.1875 25 
Q 14.984375 22.515625 14.984375 16.5 
Q 14.984375 11.71875 18.140625 8.90625 
Q 21.296875 6.109375 26.703125 6.109375 
Q 34.1875 6.109375 38.703125 11.40625 
Q 43.21875 16.703125 43.21875 25.484375 
L 43.21875 27.484375 
z
M 52.203125 31.203125 
L 52.203125 0 
L 43.21875 0 
L 43.21875 8.296875 
Q 40.140625 3.328125 35.546875 0.953125 
Q 30.953125 -1.421875 24.3125 -1.421875 
Q 15.921875 -1.421875 10.953125 3.296875 
Q 6 8.015625 6 15.921875 
Q 6 25.140625 12.171875 29.828125 
Q 18.359375 34.515625 30.609375 34.515625 
L 43.21875 34.515625 
L 43.21875 35.40625 
Q 43.21875 41.609375 39.140625 45 
Q 35.0625 48.390625 27.6875 48.390625 
Q 23 48.390625 18.546875 47.265625 
Q 14.109375 46.140625 10.015625 43.890625 
L 10.015625 52.203125 
Q 14.9375 54.109375 19.578125 55.046875 
Q 24.21875 56 28.609375 56 
Q 40.484375 56 46.34375 49.84375 
Q 52.203125 43.703125 52.203125 31.203125 
" id="BitstreamVeraSans-Roman-61"/>
      <path d="M 30.609375 48.390625 
Q 23.390625 48.390625 19.1875 42.75 
Q 14.984375 37.109375 14.984375 27.296875 
Q 14.984375 17.484375 19.15625 11.84375 
Q 23.34375 6.203125 30.609375 6.203125 
Q 37.796875 6.203125 41.984375 11.859375 
Q 46.1875 17.53125 46.1875 27.296875 
Q 46.1875 37.015625 41.984375 42.703125 
Q 37.796875 48.390625 30.609375 48.390625 
M 30.609375 56 
Q 42.328125 56 49.015625 48.375 
Q 55.71875 40.765625 55.71875 27.296875 
Q 55.71875 13.875 49.015625 6.21875 
Q 42.328125 -1.421875 30.609375 -1.421875 
Q 18.84375 -1.421875 12.171875 6.21875 
Q 5.515625 13.875 5.515625 27.296875 
Q 5.515625 40.765625 12.171875 48.375 
Q 18.84375 56 30.609375 56 
" id="BitstreamVeraSans-Roman-6f"/>
      <path d="M 9.421875 54.6875 
L 18.40625 54.6875 
L 18.40625 0 
L 9.421875 0 
z
M 9.421875 75.984375 
L 18.40625 75.984375 
L 18.40625 64.59375 
L 9.421875 64.59375 
z
" id="BitstreamVeraSans-Roman-69"/>
      <path d="M 56.203125 29.59375 
L 56.203125 25.203125 
L 14.890625 25.203125 
Q 15.484375 15.921875 20.484375 11.0625 
Q 25.484375 6.203125 34.421875 6.203125 
Q 39.59375 6.203125 44.453125 7.46875 
Q 49.3125 8.734375 54.109375 11.28125 
L 54.109375 2.78125 
Q 49.265625 0.734375 44.1875 -0.34375 
Q 39.109375 -1.421875 33.890625 -1.421875 
Q 20.796875 -1.421875 13.15625 6.1875 
Q 5.515625 13.8125 5.515625 26.8125 
Q 5.515625 40.234375 12.765625 48.109375 
Q 20.015625 56 32.328125 56 
Q 43.359375 56 49.78125 48.890625 
Q 56.203125 41.796875 56.203125 29.59375 
M 47.21875 32.234375 
Q 47.125 39.59375 43.09375 43.984375 
Q 39.0625 48.390625 32.421875 48.390625 
Q 24.90625 48.390625 20.390625 44.140625 
Q 15.875 39.890625 15.1875 32.171875 
z
" id="BitstreamVeraSans-Roman-65"/>
      <path d="M 18.3125 70.21875 
L 18.3125 54.6875 
L 36.8125 54.6875 
L 36.8125 47.703125 
L 18.3125 47.703125 
L 18.3125 18.015625 
Q 18.3125 11.328125 20.140625 9.421875 
Q 21.96875 7.515625 27.59375 7.515625 
L 36.8125 7.515625 
L 36.8125 0 
L 27.59375 0 
Q 17.1875 0 13.234375 3.875 
Q 9.28125 7.765625 9.28125 18.015625 
L 9.28125 47.703125 
L 2.6875 47.703125 
L 2.6875 54.6875 
L 9.28125 54.6875 
L 9.28125 70.21875 
z
" id="BitstreamVeraSans-Roman-74"/>
      <path d="M 41.109375 46.296875 
Q 39.59375 47.171875 37.8125 47.578125 
Q 36.03125 48 33.890625 48 
Q 26.265625 48 22.1875 43.046875 
Q 18.109375 38.09375 18.109375 28.8125 
L 18.109375 0 
L 9.078125 0 
L 9.078125 54.6875 
L 18.109375 54.6875 
L 18.109375 46.1875 
Q 20.953125 51.171875 25.484375 53.578125 
Q 30.03125 56 36.53125 56 
Q 37.453125 56 38.578125 55.875 
Q 39.703125 55.765625 41.0625 55.515625 
z
" id="BitstreamVeraSans-Roman-72"/>
      <path d="M 44.28125 53.078125 
L 44.28125 44.578125 
Q 40.484375 46.53125 36.375 47.5 
Q 32.28125 48.484375 27.875 48.484375 
Q 21.1875 48.484375 17.84375 46.4375 
Q 14.5 44.390625 14.5 40.28125 
Q 14.5 37.15625 16.890625 35.375 
Q 19.28125 33.59375 26.515625 31.984375 
L 29.59375 31.296875 
Q 39.15625 29.25 43.1875 25.515625 
Q 47.21875 21.78125 47.21875 15.09375 
Q 47.21875 7.46875 41.1875 3.015625 
Q 35.15625 -1.421875 24.609375 -1.421875 
Q 20.21875 -1.421875 15.453125 -0.5625 
Q 10.6875 0.296875 5.421875 2 
L 5.421875 11.28125 
Q 10.40625 8.6875 15.234375 7.390625 
Q 20.0625 6.109375 24.8125 6.109375 
Q 31.15625 6.109375 34.5625 8.28125 
Q 37.984375 10.453125 37.984375 14.40625 
Q 37.984375 18.0625 35.515625 20.015625 
Q 33.0625 21.96875 24.703125 23.78125 
L 21.578125 24.515625 
Q 13.234375 26.265625 9.515625 29.90625 
Q 5.8125 33.546875 5.8125 39.890625 
Q 5.8125 47.609375 11.28125 51.796875 
Q 16.75 56 26.8125 56 
Q 31.78125 56 36.171875 55.265625 
Q 40.578125 54.546875 44.28125 53.078125 
" id="BitstreamVeraSans-Roman-73"/>
     </defs>
     <g transform="translate(676.04296875 807.8296875)scale(0.3 -0.3)">
      <use xlink:href="#BitstreamVeraSans-Roman-69"/>
      <use x="27.783203125" xlink:href="#BitstreamVeraSans-Roman-74"/>
      <use x="66.9921875" xlink:href="#BitstreamVeraSans-Roman-65"/>
      <use x="128.515625" xlink:href="#BitstreamVeraSans-Roman-72"/>
      <use x="169.62890625" xlink:href="#BitstreamVeraSans-Roman-61"/>
      <use x="230.908203125" xlink:href="#BitstreamVeraSans-Roman-74"/>
      <use x="270.1171875" xlink:href="#BitstreamVeraSans-Roman-69"/>
      <use x="297.900390625" xlink:href="#BitstreamVeraSans-Roman-6f"/>
      <use x="359.08203125" xlink:href="#BitstreamVeraSans-Roman-6e"/>
      <use x="422.4609375" xlink:href="#BitstreamVeraSans-Roman-73"/>
     </g>
    </g>
   </g>
   <g id="matplotlib.axis_2">
    <g id="ytick_1">
     <g id="line2d_15">
      <defs>
       <path d="M 0 0 
L 4 0 
" id="m2edbdb97b0" style="stroke:#000000;stroke-width:0.5;"/>
      </defs>
      <g>
       <use style="stroke:#000000;stroke-width:0.5;" x="158.4" xlink:href="#m2edbdb97b0" y="747.0"/>
      </g>
     </g>
     <g id="line2d_16">
      <defs>
       <path d="M 0 0 
L -4 0 
" id="m0e1fb810e6" style="stroke:#000000;stroke-width:0.5;"/>
      </defs>
      <g>
       <use style="stroke:#000000;stroke-width:0.5;" x="1336.05" xlink:href="#m0e1fb810e6" y="747.0"/>
      </g>
     </g>
     <g id="text_8">
      <!-- 60 -->
      <defs>
       <path d="M 10.59375 35.5 
L 73.1875 35.5 
L 73.1875 27.203125 
L 10.59375 27.203125 
z
" id="BitstreamVeraSans-Roman-2212"/>
      </defs>
      <g transform="translate(91.0859375 755.278125)scale(0.3 -0.3)">
       <use xlink:href="#BitstreamVeraSans-Roman-2212"/>
       <use x="83.7890625" xlink:href="#BitstreamVeraSans-Roman-36"/>
       <use x="147.412109375" xlink:href="#BitstreamVeraSans-Roman-30"/>
      </g>
     </g>
    </g>
    <g id="ytick_2">
     <g id="line2d_17">
      <g>
       <use style="stroke:#000000;stroke-width:0.5;" x="158.4" xlink:href="#m2edbdb97b0" y="660.0375"/>
      </g>
     </g>
     <g id="line2d_18">
      <g>
       <use style="stroke:#000000;stroke-width:0.5;" x="1336.05" xlink:href="#m0e1fb810e6" y="660.0375"/>
      </g>
     </g>
     <g id="text_9">
      <!-- 50 -->
      <defs>
       <path d="M 10.796875 72.90625 
L 49.515625 72.90625 
L 49.515625 64.59375 
L 19.828125 64.59375 
L 19.828125 46.734375 
Q 21.96875 47.46875 24.109375 47.828125 
Q 26.265625 48.1875 28.421875 48.1875 
Q 40.625 48.1875 47.75 41.5 
Q 54.890625 34.8125 54.890625 23.390625 
Q 54.890625 11.625 47.5625 5.09375 
Q 40.234375 -1.421875 26.90625 -1.421875 
Q 22.3125 -1.421875 17.546875 -0.640625 
Q 12.796875 0.140625 7.71875 1.703125 
L 7.71875 11.625 
Q 12.109375 9.234375 16.796875 8.0625 
Q 21.484375 6.890625 26.703125 6.890625 
Q 35.15625 6.890625 40.078125 11.328125 
Q 45.015625 15.765625 45.015625 23.390625 
Q 45.015625 31 40.078125 35.4375 
Q 35.15625 39.890625 26.703125 39.890625 
Q 22.75 39.890625 18.8125 39.015625 
Q 14.890625 38.140625 10.796875 36.28125 
z
" id="BitstreamVeraSans-Roman-35"/>
      </defs>
      <g transform="translate(91.0859375 668.315625)scale(0.3 -0.3)">
       <use xlink:href="#BitstreamVeraSans-Roman-2212"/>
       <use x="83.7890625" xlink:href="#BitstreamVeraSans-Roman-35"/>
       <use x="147.412109375" xlink:href="#BitstreamVeraSans-Roman-30"/>
      </g>
     </g>
    </g>
    <g id="ytick_3">
     <g id="line2d_19">
      <g>
       <use style="stroke:#000000;stroke-width:0.5;" x="158.4" xlink:href="#m2edbdb97b0" y="573.075"/>
      </g>
     </g>
     <g id="line2d_20">
      <g>
       <use style="stroke:#000000;stroke-width:0.5;" x="1336.05" xlink:href="#m0e1fb810e6" y="573.075"/>
      </g>
     </g>
     <g id="text_10">
      <!-- 40 -->
      <g transform="translate(91.0859375 581.353125)scale(0.3 -0.3)">
       <use xlink:href="#BitstreamVeraSans-Roman-2212"/>
       <use x="83.7890625" xlink:href="#BitstreamVeraSans-Roman-34"/>
       <use x="147.412109375" xlink:href="#BitstreamVeraSans-Roman-30"/>
      </g>
     </g>
    </g>
    <g id="ytick_4">
     <g id="line2d_21">
      <g>
       <use style="stroke:#000000;stroke-width:0.5;" x="158.4" xlink:href="#m2edbdb97b0" y="486.1125"/>
      </g>
     </g>
     <g id="line2d_22">
      <g>
       <use style="stroke:#000000;stroke-width:0.5;" x="1336.05" xlink:href="#m0e1fb810e6" y="486.1125"/>
      </g>
     </g>
     <g id="text_11">
      <!-- 30 -->
      <defs>
       <path d="M 40.578125 39.3125 
Q 47.65625 37.796875 51.625 33 
Q 55.609375 28.21875 55.609375 21.1875 
Q 55.609375 10.40625 48.1875 4.484375 
Q 40.765625 -1.421875 27.09375 -1.421875 
Q 22.515625 -1.421875 17.65625 -0.515625 
Q 12.796875 0.390625 7.625 2.203125 
L 7.625 11.71875 
Q 11.71875 9.328125 16.59375 8.109375 
Q 21.484375 6.890625 26.8125 6.890625 
Q 36.078125 6.890625 40.9375 10.546875 
Q 45.796875 14.203125 45.796875 21.1875 
Q 45.796875 27.640625 41.28125 31.265625 
Q 36.765625 34.90625 28.71875 34.90625 
L 20.21875 34.90625 
L 20.21875 43.015625 
L 29.109375 43.015625 
Q 36.375 43.015625 40.234375 45.921875 
Q 44.09375 48.828125 44.09375 54.296875 
Q 44.09375 59.90625 40.109375 62.90625 
Q 36.140625 65.921875 28.71875 65.921875 
Q 24.65625 65.921875 20.015625 65.03125 
Q 15.375 64.15625 9.8125 62.3125 
L 9.8125 71.09375 
Q 15.4375 72.65625 20.34375 73.4375 
Q 25.25 74.21875 29.59375 74.21875 
Q 40.828125 74.21875 47.359375 69.109375 
Q 53.90625 64.015625 53.90625 55.328125 
Q 53.90625 49.265625 50.4375 45.09375 
Q 46.96875 40.921875 40.578125 39.3125 
" id="BitstreamVeraSans-Roman-33"/>
      </defs>
      <g transform="translate(91.0859375 494.390625)scale(0.3 -0.3)">
       <use xlink:href="#BitstreamVeraSans-Roman-2212"/>
       <use x="83.7890625" xlink:href="#BitstreamVeraSans-Roman-33"/>
       <use x="147.412109375" xlink:href="#BitstreamVeraSans-Roman-30"/>
      </g>
     </g>
    </g>
    <g id="ytick_5">
     <g id="line2d_23">
      <g>
       <use style="stroke:#000000;stroke-width:0.5;" x="158.4" xlink:href="#m2edbdb97b0" y="399.15"/>
      </g>
     </g>
     <g id="line2d_24">
      <g>
       <use style="stroke:#000000;stroke-width:0.5;" x="1336.05" xlink:href="#m0e1fb810e6" y="399.15"/>
      </g>
     </g>
     <g id="text_12">
      <!-- 20 -->
      <g transform="translate(91.0859375 407.428125)scale(0.3 -0.3)">
       <use xlink:href="#BitstreamVeraSans-Roman-2212"/>
       <use x="83.7890625" xlink:href="#BitstreamVeraSans-Roman-32"/>
       <use x="147.412109375" xlink:href="#BitstreamVeraSans-Roman-30"/>
      </g>
     </g>
    </g>
    <g id="ytick_6">
     <g id="line2d_25">
      <g>
       <use style="stroke:#000000;stroke-width:0.5;" x="158.4" xlink:href="#m2edbdb97b0" y="312.1875"/>
      </g>
     </g>
     <g id="line2d_26">
      <g>
       <use style="stroke:#000000;stroke-width:0.5;" x="1336.05" xlink:href="#m0e1fb810e6" y="312.1875"/>
      </g>
     </g>
     <g id="text_13">
      <!-- 10 -->
      <g transform="translate(91.0859375 320.465625)scale(0.3 -0.3)">
       <use xlink:href="#BitstreamVeraSans-Roman-2212"/>
       <use x="83.7890625" xlink:href="#BitstreamVeraSans-Roman-31"/>
       <use x="147.412109375" xlink:href="#BitstreamVeraSans-Roman-30"/>
      </g>
     </g>
    </g>
    <g id="ytick_7">
     <g id="line2d_27">
      <g>
       <use style="stroke:#000000;stroke-width:0.5;" x="158.4" xlink:href="#m2edbdb97b0" y="225.225"/>
      </g>
     </g>
     <g id="line2d_28">
      <g>
       <use style="stroke:#000000;stroke-width:0.5;" x="1336.05" xlink:href="#m0e1fb810e6" y="225.225"/>
      </g>
     </g>
     <g id="text_14">
      <!-- 0 -->
      <g transform="translate(135.3125 233.503125)scale(0.3 -0.3)">
       <use xlink:href="#BitstreamVeraSans-Roman-30"/>
      </g>
     </g>
    </g>
    <g id="ytick_8">
     <g id="line2d_29">
      <g>
       <use style="stroke:#000000;stroke-width:0.5;" x="158.4" xlink:href="#m2edbdb97b0" y="138.2625"/>
      </g>
     </g>
     <g id="line2d_30">
      <g>
       <use style="stroke:#000000;stroke-width:0.5;" x="1336.05" xlink:href="#m0e1fb810e6" y="138.2625"/>
      </g>
     </g>
     <g id="text_15">
      <!-- 10 -->
      <g transform="translate(116.225 146.540625)scale(0.3 -0.3)">
       <use xlink:href="#BitstreamVeraSans-Roman-31"/>
       <use x="63.623046875" xlink:href="#BitstreamVeraSans-Roman-30"/>
      </g>
     </g>
    </g>
    <g id="ytick_9">
     <g id="line2d_31">
      <g>
       <use style="stroke:#000000;stroke-width:0.5;" x="158.4" xlink:href="#m2edbdb97b0" y="51.3"/>
      </g>
     </g>
     <g id="line2d_32">
      <g>
       <use style="stroke:#000000;stroke-width:0.5;" x="1336.05" xlink:href="#m0e1fb810e6" y="51.3"/>
      </g>
     </g>
     <g id="text_16">
      <!-- 20 -->
      <g transform="translate(116.225 59.578125)scale(0.3 -0.3)">
       <use xlink:href="#BitstreamVeraSans-Roman-32"/>
       <use x="63.623046875" xlink:href="#BitstreamVeraSans-Roman-30"/>
      </g>
     </g>
    </g>
    <g id="text_17">
     <!-- log(loss) -->
     <defs>
      <path d="M 8.015625 75.875 
L 15.828125 75.875 
Q 23.140625 64.359375 26.78125 53.3125 
Q 30.421875 42.28125 30.421875 31.390625 
Q 30.421875 20.453125 26.78125 9.375 
Q 23.140625 -1.703125 15.828125 -13.1875 
L 8.015625 -13.1875 
Q 14.5 -2 17.703125 9.0625 
Q 20.90625 20.125 20.90625 31.390625 
Q 20.90625 42.671875 17.703125 53.65625 
Q 14.5 64.65625 8.015625 75.875 
" id="BitstreamVeraSans-Roman-29"/>
      <path d="M 31 75.875 
Q 24.46875 64.65625 21.28125 53.65625 
Q 18.109375 42.671875 18.109375 31.390625 
Q 18.109375 20.125 21.3125 9.0625 
Q 24.515625 -2 31 -13.1875 
L 23.1875 -13.1875 
Q 15.875 -1.703125 12.234375 9.375 
Q 8.59375 20.453125 8.59375 31.390625 
Q 8.59375 42.28125 12.203125 53.3125 
Q 15.828125 64.359375 23.1875 75.875 
z
" id="BitstreamVeraSans-Roman-28"/>
      <path d="M 45.40625 27.984375 
Q 45.40625 37.75 41.375 43.109375 
Q 37.359375 48.484375 30.078125 48.484375 
Q 22.859375 48.484375 18.828125 43.109375 
Q 14.796875 37.75 14.796875 27.984375 
Q 14.796875 18.265625 18.828125 12.890625 
Q 22.859375 7.515625 30.078125 7.515625 
Q 37.359375 7.515625 41.375 12.890625 
Q 45.40625 18.265625 45.40625 27.984375 
M 54.390625 6.78125 
Q 54.390625 -7.171875 48.1875 -13.984375 
Q 42 -20.796875 29.203125 -20.796875 
Q 24.46875 -20.796875 20.265625 -20.09375 
Q 16.0625 -19.390625 12.109375 -17.921875 
L 12.109375 -9.1875 
Q 16.0625 -11.328125 19.921875 -12.34375 
Q 23.78125 -13.375 27.78125 -13.375 
Q 36.625 -13.375 41.015625 -8.765625 
Q 45.40625 -4.15625 45.40625 5.171875 
L 45.40625 9.625 
Q 42.625 4.78125 38.28125 2.390625 
Q 33.9375 0 27.875 0 
Q 17.828125 0 11.671875 7.65625 
Q 5.515625 15.328125 5.515625 27.984375 
Q 5.515625 40.671875 11.671875 48.328125 
Q 17.828125 56 27.875 56 
Q 33.9375 56 38.28125 53.609375 
Q 42.625 51.21875 45.40625 46.390625 
L 45.40625 54.6875 
L 54.390625 54.6875 
z
" id="BitstreamVeraSans-Roman-67"/>
      <path d="M 9.421875 75.984375 
L 18.40625 75.984375 
L 18.40625 0 
L 9.421875 0 
z
" id="BitstreamVeraSans-Roman-6c"/>
     </defs>
     <g transform="translate(79.846875 462.69609375)rotate(-90.0)scale(0.3 -0.3)">
      <use xlink:href="#BitstreamVeraSans-Roman-6c"/>
      <use x="27.783203125" xlink:href="#BitstreamVeraSans-Roman-6f"/>
      <use x="88.96484375" xlink:href="#BitstreamVeraSans-Roman-67"/>
      <use x="152.44140625" xlink:href="#BitstreamVeraSans-Roman-28"/>
      <use x="191.455078125" xlink:href="#BitstreamVeraSans-Roman-6c"/>
      <use x="219.23828125" xlink:href="#BitstreamVeraSans-Roman-6f"/>
      <use x="280.419921875" xlink:href="#BitstreamVeraSans-Roman-73"/>
      <use x="332.51953125" xlink:href="#BitstreamVeraSans-Roman-73"/>
      <use x="384.619140625" xlink:href="#BitstreamVeraSans-Roman-29"/>
     </g>
    </g>
   </g>
   <g id="legend_1">
    <g id="patch_7">
     <path d="M 843.876562 163.36875 
L 1321.05 163.36875 
L 1321.05 66.3 
L 843.876562 66.3 
z
" style="fill:#ffffff;stroke:#000000;stroke-linejoin:miter;"/>
    </g>
    <g id="line2d_33">
     <path d="M 864.876562 90.595312 
L 906.876562 90.595312 
" style="fill:none;stroke:#0000ff;stroke-linecap:square;stroke-width:2.0;"/>
    </g>
    <g id="line2d_34"/>
    <g id="text_18">
     <!-- random: step=0.002500 -->
     <defs>
      <path id="BitstreamVeraSans-Roman-20"/>
      <path d="M 52 44.1875 
Q 55.375 50.25 60.0625 53.125 
Q 64.75 56 71.09375 56 
Q 79.640625 56 84.28125 50.015625 
Q 88.921875 44.046875 88.921875 33.015625 
L 88.921875 0 
L 79.890625 0 
L 79.890625 32.71875 
Q 79.890625 40.578125 77.09375 44.375 
Q 74.3125 48.1875 68.609375 48.1875 
Q 61.625 48.1875 57.5625 43.546875 
Q 53.515625 38.921875 53.515625 30.90625 
L 53.515625 0 
L 44.484375 0 
L 44.484375 32.71875 
Q 44.484375 40.625 41.703125 44.40625 
Q 38.921875 48.1875 33.109375 48.1875 
Q 26.21875 48.1875 22.15625 43.53125 
Q 18.109375 38.875 18.109375 30.90625 
L 18.109375 0 
L 9.078125 0 
L 9.078125 54.6875 
L 18.109375 54.6875 
L 18.109375 46.1875 
Q 21.1875 51.21875 25.484375 53.609375 
Q 29.78125 56 35.6875 56 
Q 41.65625 56 45.828125 52.96875 
Q 50 49.953125 52 44.1875 
" id="BitstreamVeraSans-Roman-6d"/>
      <path d="M 11.71875 12.40625 
L 22.015625 12.40625 
L 22.015625 0 
L 11.71875 0 
z
M 11.71875 51.703125 
L 22.015625 51.703125 
L 22.015625 39.3125 
L 11.71875 39.3125 
z
" id="BitstreamVeraSans-Roman-3a"/>
      <path d="M 10.6875 12.40625 
L 21 12.40625 
L 21 0 
L 10.6875 0 
z
" id="BitstreamVeraSans-Roman-2e"/>
      <path d="M 10.59375 45.40625 
L 73.1875 45.40625 
L 73.1875 37.203125 
L 10.59375 37.203125 
z
M 10.59375 25.484375 
L 73.1875 25.484375 
L 73.1875 17.1875 
L 10.59375 17.1875 
z
" id="BitstreamVeraSans-Roman-3d"/>
      <path d="M 45.40625 46.390625 
L 45.40625 75.984375 
L 54.390625 75.984375 
L 54.390625 0 
L 45.40625 0 
L 45.40625 8.203125 
Q 42.578125 3.328125 38.25 0.953125 
Q 33.9375 -1.421875 27.875 -1.421875 
Q 17.96875 -1.421875 11.734375 6.484375 
Q 5.515625 14.40625 5.515625 27.296875 
Q 5.515625 40.1875 11.734375 48.09375 
Q 17.96875 56 27.875 56 
Q 33.9375 56 38.25 53.625 
Q 42.578125 51.265625 45.40625 46.390625 
M 14.796875 27.296875 
Q 14.796875 17.390625 18.875 11.75 
Q 22.953125 6.109375 30.078125 6.109375 
Q 37.203125 6.109375 41.296875 11.75 
Q 45.40625 17.390625 45.40625 27.296875 
Q 45.40625 37.203125 41.296875 42.84375 
Q 37.203125 48.484375 30.078125 48.484375 
Q 22.953125 48.484375 18.875 42.84375 
Q 14.796875 37.203125 14.796875 27.296875 
" id="BitstreamVeraSans-Roman-64"/>
      <path d="M 18.109375 8.203125 
L 18.109375 -20.796875 
L 9.078125 -20.796875 
L 9.078125 54.6875 
L 18.109375 54.6875 
L 18.109375 46.390625 
Q 20.953125 51.265625 25.265625 53.625 
Q 29.59375 56 35.59375 56 
Q 45.5625 56 51.78125 48.09375 
Q 58.015625 40.1875 58.015625 27.296875 
Q 58.015625 14.40625 51.78125 6.484375 
Q 45.5625 -1.421875 35.59375 -1.421875 
Q 29.59375 -1.421875 25.265625 0.953125 
Q 20.953125 3.328125 18.109375 8.203125 
M 48.6875 27.296875 
Q 48.6875 37.203125 44.609375 42.84375 
Q 40.53125 48.484375 33.40625 48.484375 
Q 26.265625 48.484375 22.1875 42.84375 
Q 18.109375 37.203125 18.109375 27.296875 
Q 18.109375 17.390625 22.1875 11.75 
Q 26.265625 6.109375 33.40625 6.109375 
Q 40.53125 6.109375 44.609375 11.75 
Q 48.6875 17.390625 48.6875 27.296875 
" id="BitstreamVeraSans-Roman-70"/>
     </defs>
     <g transform="translate(939.8765625 101.0953125)scale(0.3 -0.3)">
      <use xlink:href="#BitstreamVeraSans-Roman-72"/>
      <use x="41.11328125" xlink:href="#BitstreamVeraSans-Roman-61"/>
      <use x="102.392578125" xlink:href="#BitstreamVeraSans-Roman-6e"/>
      <use x="165.771484375" xlink:href="#BitstreamVeraSans-Roman-64"/>
      <use x="229.248046875" xlink:href="#BitstreamVeraSans-Roman-6f"/>
      <use x="290.4296875" xlink:href="#BitstreamVeraSans-Roman-6d"/>
      <use x="387.841796875" xlink:href="#BitstreamVeraSans-Roman-3a"/>
      <use x="421.533203125" xlink:href="#BitstreamVeraSans-Roman-20"/>
      <use x="453.3203125" xlink:href="#BitstreamVeraSans-Roman-73"/>
      <use x="505.419921875" xlink:href="#BitstreamVeraSans-Roman-74"/>
      <use x="544.62890625" xlink:href="#BitstreamVeraSans-Roman-65"/>
      <use x="606.15234375" xlink:href="#BitstreamVeraSans-Roman-70"/>
      <use x="669.62890625" xlink:href="#BitstreamVeraSans-Roman-3d"/>
      <use x="753.41796875" xlink:href="#BitstreamVeraSans-Roman-30"/>
      <use x="817.041015625" xlink:href="#BitstreamVeraSans-Roman-2e"/>
      <use x="848.828125" xlink:href="#BitstreamVeraSans-Roman-30"/>
      <use x="912.451171875" xlink:href="#BitstreamVeraSans-Roman-30"/>
      <use x="976.07421875" xlink:href="#BitstreamVeraSans-Roman-32"/>
      <use x="1039.69726562" xlink:href="#BitstreamVeraSans-Roman-35"/>
      <use x="1103.3203125" xlink:href="#BitstreamVeraSans-Roman-30"/>
      <use x="1166.94335938" xlink:href="#BitstreamVeraSans-Roman-30"/>
     </g>
    </g>
    <g id="line2d_35">
     <path d="M 864.876562 134.629687 
L 906.876562 134.629687 
" style="fill:none;stroke:#008000;stroke-linecap:square;stroke-width:2.0;"/>
    </g>
    <g id="line2d_36"/>
    <g id="text_19">
     <!-- corr: step=0.002500 -->
     <defs>
      <path d="M 48.78125 52.59375 
L 48.78125 44.1875 
Q 44.96875 46.296875 41.140625 47.34375 
Q 37.3125 48.390625 33.40625 48.390625 
Q 24.65625 48.390625 19.8125 42.84375 
Q 14.984375 37.3125 14.984375 27.296875 
Q 14.984375 17.28125 19.8125 11.734375 
Q 24.65625 6.203125 33.40625 6.203125 
Q 37.3125 6.203125 41.140625 7.25 
Q 44.96875 8.296875 48.78125 10.40625 
L 48.78125 2.09375 
Q 45.015625 0.34375 40.984375 -0.53125 
Q 36.96875 -1.421875 32.421875 -1.421875 
Q 20.0625 -1.421875 12.78125 6.34375 
Q 5.515625 14.109375 5.515625 27.296875 
Q 5.515625 40.671875 12.859375 48.328125 
Q 20.21875 56 33.015625 56 
Q 37.15625 56 41.109375 55.140625 
Q 45.0625 54.296875 48.78125 52.59375 
" id="BitstreamVeraSans-Roman-63"/>
     </defs>
     <g transform="translate(939.8765625 145.1296875)scale(0.3 -0.3)">
      <use xlink:href="#BitstreamVeraSans-Roman-63"/>
      <use x="54.98046875" xlink:href="#BitstreamVeraSans-Roman-6f"/>
      <use x="116.162109375" xlink:href="#BitstreamVeraSans-Roman-72"/>
      <use x="157.259765625" xlink:href="#BitstreamVeraSans-Roman-72"/>
      <use x="198.357421875" xlink:href="#BitstreamVeraSans-Roman-3a"/>
      <use x="232.048828125" xlink:href="#BitstreamVeraSans-Roman-20"/>
      <use x="263.8359375" xlink:href="#BitstreamVeraSans-Roman-73"/>
      <use x="315.935546875" xlink:href="#BitstreamVeraSans-Roman-74"/>
      <use x="355.14453125" xlink:href="#BitstreamVeraSans-Roman-65"/>
      <use x="416.66796875" xlink:href="#BitstreamVeraSans-Roman-70"/>
      <use x="480.14453125" xlink:href="#BitstreamVeraSans-Roman-3d"/>
      <use x="563.93359375" xlink:href="#BitstreamVeraSans-Roman-30"/>
      <use x="627.556640625" xlink:href="#BitstreamVeraSans-Roman-2e"/>
      <use x="659.34375" xlink:href="#BitstreamVeraSans-Roman-30"/>
      <use x="722.966796875" xlink:href="#BitstreamVeraSans-Roman-30"/>
      <use x="786.58984375" xlink:href="#BitstreamVeraSans-Roman-32"/>
      <use x="850.212890625" xlink:href="#BitstreamVeraSans-Roman-35"/>
      <use x="913.8359375" xlink:href="#BitstreamVeraSans-Roman-30"/>
      <use x="977.458984375" xlink:href="#BitstreamVeraSans-Roman-30"/>
     </g>
    </g>
   </g>
  </g>
 </g>
 <defs>
  <clipPath id="p2d77d1121b">
   <rect height="695.7" width="1177.65" x="158.4" y="51.3"/>
  </clipPath>
 </defs>
</svg>
