<?xml version="1.0" encoding="utf-8" standalone="no"?>
<!DOCTYPE svg PUBLIC "-//W3C//DTD SVG 1.1//EN"
  "http://www.w3.org/Graphics/SVG/1.1/DTD/svg11.dtd">
<!-- Created with matplotlib (http://matplotlib.org/) -->
<svg height="864pt" version="1.1" viewBox="0 0 1440 864" width="1440pt" xmlns="http://www.w3.org/2000/svg" xmlns:xlink="http://www.w3.org/1999/xlink">
 <defs>
  <style type="text/css">
*{stroke-linecap:butt;stroke-linejoin:round;stroke-miterlimit:100000;}
  </style>
 </defs>
 <g id="figure_1">
  <g id="patch_1">
   <path d="M 0 864 
L 1440 864 
L 1440 0 
L 0 0 
z
" style="fill:#ffffff;"/>
  </g>
  <g id="axes_1">
   <g id="patch_2">
    <path d="M 158.4 747 
L 1336.05 747 
L 1336.05 51.3 
L 158.4 51.3 
z
" style="fill:#ffffff;"/>
   </g>
   <g id="line2d_1">
    <path clip-path="url(#p02f1345679)" d="M 159.57765 113.452154 
L 160.7553 117.19845 
L 161.93295 124.045519 
L 163.1106 127.702441 
L 164.28825 130.847989 
L 165.4659 138.704173 
L 166.64355 137.647512 
L 167.8212 151.517743 
L 170.1765 151.577334 
L 171.35415 164.00195 
L 173.70945 163.988439 
L 174.8871 181.86871 
L 177.2424 181.879095 
L 178.42005 181.537612 
L 179.5977 200.462658 
L 183.13065 200.503973 
L 184.3083 216.434942 
L 187.84125 216.483497 
L 189.0189 233.7084 
L 192.55185 233.80073 
L 193.7295 251.692321 
L 194.90715 251.715665 
L 196.0848 251.858337 
L 197.26245 251.858302 
L 198.4401 269.078718 
L 201.97305 269.133311 
L 203.1507 283.801763 
L 205.506 283.804062 
L 206.68365 301.42314 
L 209.03895 301.499233 
L 210.2166 301.424834 
L 211.39425 319.632238 
L 214.9272 319.668719 
L 216.10485 335.386477 
L 219.6378 335.396638 
L 220.81545 349.686887 
L 223.17075 349.691621 
L 224.3484 354.238131 
L 225.52605 367.43661 
L 227.88135 367.456773 
L 229.059 371.123094 
L 230.23665 383.79872 
L 232.59195 383.81441 
L 233.7696 385.99512 
L 234.94725 399.731674 
L 236.1249 399.351681 
L 238.4802 399.351823 
L 239.65785 418.210413 
L 243.1908 418.260264 
L 244.36845 435.224683 
L 247.9014 435.23702 
L 249.07905 453.810633 
L 252.612 453.827689 
L 253.78965 469.96794 
L 257.3226 470.010691 
L 258.50025 486.907327 
L 262.0332 486.912251 
L 263.21085 502.873289 
L 266.7438 502.89903 
L 267.92145 520.726513 
L 271.4544 520.730594 
L 272.63205 538.762069 
L 276.165 538.77436 
L 277.34265 555.978566 
L 280.8756 555.978896 
L 282.05325 571.890576 
L 285.5862 571.893004 
L 286.76385 589.197217 
L 290.2968 589.186069 
L 291.47445 606.108295 
L 295.0074 606.125215 
L 296.18505 624.289625 
L 299.718 624.289883 
L 300.89565 643.131083 
L 304.4286 643.138545 
L 305.60625 662.004546 
L 309.1392 662.006949 
L 310.31685 679.260727 
L 313.8498 679.253427 
L 315.02745 694.335591 
L 318.5604 694.369982 
L 319.73805 704.240337 
L 323.271 704.238113 
L 324.44865 710.481625 
L 327.9816 710.481813 
L 329.15925 714.745014 
L 332.6922 714.758572 
L 333.86985 713.693654 
L 337.4028 713.69125 
L 338.58045 712.203964 
L 342.1134 712.196733 
L 343.29105 713.31763 
L 346.824 713.299851 
L 348.00165 712.732091 
L 350.35695 712.740355 
L 351.5346 712.732365 
L 352.71225 714.11153 
L 356.2452 714.113202 
L 357.42285 712.767866 
L 360.9558 712.768821 
L 362.13345 713.54253 
L 365.6664 713.54345 
L 366.84405 712.96036 
L 370.377 712.9879 
L 371.55465 710.867212 
L 375.0876 710.888945 
L 376.26525 711.995103 
L 379.7982 712.00315 
L 380.97585 713.174449 
L 384.5088 713.15141 
L 385.68645 712.109456 
L 389.2194 712.105841 
L 390.39705 713.111628 
L 393.93 713.110743 
L 395.10765 713.636833 
L 398.6406 713.635273 
L 399.81825 712.890348 
L 403.3512 712.891197 
L 404.52885 712.243033 
L 408.0618 712.237883 
L 409.23945 713.50646 
L 412.7724 713.515061 
L 413.95005 713.040543 
L 417.483 713.034307 
L 418.66065 713.620643 
L 422.1936 713.619876 
L 423.37125 714.55017 
L 426.9042 714.536276 
L 428.08185 712.163559 
L 433.9701 712.114579 
L 436.3254 712.114509 
L 437.50305 713.903935 
L 441.036 713.899779 
L 442.21365 713.193705 
L 445.7466 713.184964 
L 446.92425 712.817419 
L 455.1678 712.956175 
L 456.34545 713.326854 
L 459.8784 713.339251 
L 461.05605 714.322678 
L 464.589 714.356123 
L 465.76665 713.42657 
L 469.2996 713.431652 
L 470.47725 711.348259 
L 474.0102 711.369865 
L 475.18785 713.020463 
L 478.7208 713.021968 
L 479.89845 713.373095 
L 483.4314 713.377323 
L 484.60905 713.198606 
L 492.8526 713.158608 
L 494.03025 713.422746 
L 497.5632 713.422746 
L 498.74085 714.91706 
L 502.2738 714.928554 
L 503.45145 714.222508 
L 506.9844 714.22744 
L 508.16205 713.480642 
L 511.695 713.487506 
L 512.87265 712.551866 
L 516.4056 712.553104 
L 517.58325 713.490482 
L 521.1162 713.494997 
L 522.29385 713.640844 
L 525.8268 713.649414 
L 527.00445 712.359271 
L 530.5374 712.383834 
L 531.71505 713.572744 
L 535.248 713.574785 
L 536.42565 712.708187 
L 539.9586 712.710623 
L 541.13625 712.210479 
L 544.6692 712.21229 
L 545.84685 714.264954 
L 554.0904 714.232423 
L 556.4457 714.307368 
L 558.801 714.299854 
L 559.97865 713.993817 
L 563.5116 714.006999 
L 564.68925 713.390701 
L 572.9328 713.474591 
L 574.11045 711.109611 
L 577.6434 711.11884 
L 578.82105 711.395739 
L 582.354 711.395726 
L 583.53165 711.825071 
L 587.0646 711.825243 
L 588.24225 712.197198 
L 596.4858 712.208229 
L 597.66345 713.883141 
L 601.1964 713.891329 
L 602.37405 713.337632 
L 605.907 713.353077 
L 607.08465 713.119409 
L 610.6176 713.114284 
L 611.79525 712.27997 
L 615.3282 712.280923 
L 616.50585 711.902829 
L 620.0388 711.930255 
L 621.21645 714.362801 
L 624.7494 714.363854 
L 625.92705 711.951352 
L 629.46 711.940125 
L 630.63765 712.199026 
L 634.1706 712.205808 
L 635.34825 711.958198 
L 638.8812 711.961791 
L 640.05885 713.687449 
L 643.5918 713.671986 
L 644.76945 712.289458 
L 648.3024 712.323732 
L 649.48005 712.750869 
L 653.013 712.768554 
L 654.19065 712.008821 
L 657.7236 711.996174 
L 658.90125 714.135836 
L 662.4342 714.129638 
L 663.61185 713.80939 
L 665.96715 713.735477 
L 667.1448 713.809307 
L 668.32245 712.438438 
L 671.8554 712.449509 
L 673.03305 713.146604 
L 676.566 713.141388 
L 677.74365 713.330135 
L 681.2766 713.326724 
L 682.45425 712.909682 
L 690.6978 712.946697 
L 691.87545 712.687246 
L 695.4084 712.719196 
L 696.58605 713.450508 
L 700.119 713.451715 
L 701.29665 714.411888 
L 704.8296 714.42179 
L 706.00725 712.189124 
L 709.5402 712.189971 
L 710.71785 712.912831 
L 714.2508 712.912831 
L 715.42845 712.511905 
L 723.672 712.528715 
L 724.84965 712.322903 
L 728.3826 712.328058 
L 729.56025 710.75816 
L 733.0932 710.767626 
L 734.27085 712.113133 
L 737.8038 712.110448 
L 738.98145 713.176659 
L 742.5144 713.157874 
L 743.69205 713.487076 
L 747.225 713.485931 
L 748.40265 713.120865 
L 751.9356 713.137775 
L 753.11325 712.92716 
L 756.6462 712.926348 
L 757.82385 712.676429 
L 766.0674 712.716394 
L 767.24505 713.361955 
L 770.778 713.347622 
L 771.95565 712.403625 
L 775.4886 712.408292 
L 776.66625 712.256595 
L 780.1992 712.257043 
L 781.37685 714.408809 
L 784.9098 714.410006 
L 786.08745 713.070769 
L 789.6204 713.076449 
L 790.79805 713.287918 
L 794.331 713.305588 
L 795.50865 712.742303 
L 799.0416 712.741814 
L 800.21925 711.037974 
L 803.7522 711.039431 
L 804.92985 713.33398 
L 808.4628 713.335677 
L 809.64045 712.659141 
L 813.1734 712.659061 
L 814.35105 711.998078 
L 817.884 711.99726 
L 819.06165 712.338819 
L 822.5946 712.330439 
L 823.77225 711.865705 
L 827.3052 711.841771 
L 828.48285 712.135811 
L 832.0158 712.143228 
L 833.19345 712.663814 
L 839.0817 712.681604 
L 841.437 712.687561 
L 842.61465 712.946699 
L 846.1476 712.940256 
L 847.32525 713.163508 
L 850.8582 713.155027 
L 852.03585 712.815199 
L 855.5688 712.787854 
L 856.74645 712.330439 
L 860.2794 712.328966 
L 861.45705 712.549784 
L 864.99 712.537647 
L 866.16765 712.711653 
L 869.7006 712.703911 
L 870.87825 714.358797 
L 874.4112 714.359081 
L 875.58885 713.712251 
L 883.8324 713.70179 
L 885.01005 713.328789 
L 893.2536 713.235675 
L 894.43125 711.950139 
L 897.9642 711.958747 
L 899.14185 713.055482 
L 902.6748 713.064706 
L 903.85245 713.908047 
L 907.3854 713.91308 
L 908.56305 713.329877 
L 912.096 713.327892 
L 913.27365 712.91891 
L 916.8066 712.938034 
L 917.98425 713.160072 
L 921.5172 713.165476 
L 922.69485 714.289236 
L 926.2278 714.29067 
L 927.40545 711.969097 
L 930.9384 711.961942 
L 932.11605 711.801139 
L 935.649 711.814273 
L 936.82665 712.405172 
L 940.3596 712.411575 
L 941.53725 712.96231 
L 945.0702 712.938839 
L 946.24785 713.074852 
L 959.202 713.146199 
L 960.37965 712.763033 
L 963.9126 712.766817 
L 965.09025 711.131004 
L 968.6232 711.123518 
L 969.80085 712.247806 
L 973.3338 712.260262 
L 974.51145 712.954565 
L 982.755 712.999595 
L 983.93265 713.281815 
L 986.28795 713.250419 
L 987.4656 713.284922 
L 988.64325 713.787663 
L 992.1762 713.769551 
L 993.35385 712.447607 
L 996.8868 712.434873 
L 998.06445 715.045793 
L 1001.5974 715.056472 
L 1002.77505 713.595956 
L 1006.308 713.609693 
L 1007.48565 712.411557 
L 1011.0186 712.411871 
L 1012.19625 712.795603 
L 1015.7292 712.81969 
L 1016.90685 713.029228 
L 1020.4398 713.031787 
L 1021.61745 711.833785 
L 1025.1504 711.830344 
L 1026.32805 713.914515 
L 1029.861 713.91014 
L 1031.03865 712.595501 
L 1034.5716 712.566549 
L 1035.74925 712.124976 
L 1043.9928 712.198085 
L 1045.17045 713.031633 
L 1048.7034 713.002234 
L 1049.88105 711.911311 
L 1053.414 711.91119 
L 1054.59165 713.971788 
L 1058.1246 713.965368 
L 1059.30225 714.767972 
L 1062.8352 714.768059 
L 1064.01285 714.232478 
L 1067.5458 714.241328 
L 1068.72345 714.773428 
L 1072.2564 714.790252 
L 1073.43405 713.202597 
L 1076.967 713.202707 
L 1078.14465 712.880797 
L 1081.6776 712.867862 
L 1082.85525 711.367263 
L 1086.3882 711.395456 
L 1087.56585 712.538368 
L 1091.0988 712.557383 
L 1092.27645 712.739353 
L 1095.8094 712.754104 
L 1096.98705 712.003563 
L 1100.52 712.008516 
L 1101.69765 712.751376 
L 1105.2306 712.744194 
L 1106.40825 711.849956 
L 1109.9412 711.880445 
L 1111.11885 712.148129 
L 1114.6518 712.171888 
L 1115.82945 713.135484 
L 1119.3624 713.139931 
L 1120.54005 712.340426 
L 1124.073 712.344472 
L 1125.25065 713.053189 
L 1128.7836 713.056254 
L 1129.96125 712.245378 
L 1133.4942 712.240725 
L 1134.67185 713.2962 
L 1138.2048 713.321228 
L 1139.38245 713.556026 
L 1142.9154 713.550115 
L 1144.09305 713.389096 
L 1147.626 713.382516 
L 1148.80365 714.538861 
L 1152.3366 714.552337 
L 1153.51425 714.162703 
L 1161.7578 714.215096 
L 1162.93545 714.001152 
L 1171.179 713.929992 
L 1172.35665 713.364907 
L 1175.8896 713.34825 
L 1177.06725 712.54369 
L 1180.6002 712.545649 
L 1181.77785 713.159588 
L 1185.3108 713.153742 
L 1186.48845 714.058748 
L 1190.0214 714.047117 
L 1191.19905 713.621327 
L 1194.732 713.623472 
L 1195.90965 713.08445 
L 1199.4426 713.093245 
L 1200.62025 713.32849 
L 1204.1532 713.323362 
L 1205.33085 712.669745 
L 1208.8638 712.651407 
L 1210.04145 712.169212 
L 1213.5744 712.168854 
L 1214.75205 712.377594 
L 1218.285 712.371552 
L 1219.46265 712.081302 
L 1222.9956 712.079859 
L 1224.17325 713.507019 
L 1227.7062 713.489203 
L 1228.88385 712.942614 
L 1232.4168 712.934744 
L 1233.59445 712.514038 
L 1237.1274 712.49597 
L 1238.30505 713.204403 
L 1241.838 713.215912 
L 1243.01565 713.422301 
L 1246.5486 713.430064 
L 1247.72625 712.731626 
L 1251.2592 712.720943 
L 1252.43685 713.476011 
L 1255.9698 713.466079 
L 1257.14745 712.397928 
L 1260.6804 712.386273 
L 1261.85805 712.862174 
L 1265.391 712.869766 
L 1266.56865 711.838759 
L 1274.8122 711.829613 
L 1275.98985 714.043485 
L 1279.5228 714.038757 
L 1280.70045 712.921058 
L 1284.2334 712.936378 
L 1285.41105 711.363919 
L 1288.944 711.365105 
L 1290.12165 711.881447 
L 1293.6546 711.871025 
L 1294.83225 713.034711 
L 1298.3652 713.031923 
L 1299.54285 713.294969 
L 1303.0758 713.270261 
L 1304.25345 712.893236 
L 1307.7864 712.926222 
L 1308.96405 712.291519 
L 1312.497 712.277958 
L 1313.67465 711.520661 
L 1317.2076 711.542096 
L 1320.74055 711.592815 
L 1321.9182 711.598334 
L 1323.09585 713.608027 
L 1328.9841 713.640126 
L 1330.16175 712.913255 
L 1331.3394 712.91789 
L 1332.51705 714.401212 
L 1333.6947 714.400234 
L 1334.87235 713.956519 
L 1336.05 713.9105 
L 1336.05 713.9105 
" style="fill:none;stroke:#0000ff;stroke-linecap:square;stroke-width:2.0;"/>
   </g>
   <g id="line2d_2">
    <path clip-path="url(#p02f1345679)" d="M 159.57765 117.422652 
L 160.7553 117.422652 
L 161.93295 135.04981 
L 163.1106 135.07962 
L 164.28825 134.792239 
L 165.4659 135.050124 
L 166.64355 153.703 
L 170.1765 153.744982 
L 171.35415 169.081144 
L 173.70945 169.149339 
L 174.8871 169.095723 
L 176.06475 186.724162 
L 179.5977 186.781461 
L 180.77535 204.41135 
L 184.3083 204.410326 
L 185.48595 221.269527 
L 189.0189 221.339563 
L 190.19655 240.361153 
L 193.7295 240.431737 
L 194.90715 257.033751 
L 198.4401 257.097551 
L 199.61775 272.078946 
L 203.1507 272.102982 
L 204.32835 287.041315 
L 207.8613 287.061523 
L 209.03895 302.790435 
L 211.39425 302.865114 
L 212.5719 302.865107 
L 213.74955 316.532695 
L 217.2825 316.59122 
L 218.46015 333.796457 
L 221.9931 333.860178 
L 223.17075 349.785305 
L 226.7037 349.820889 
L 227.88135 364.952249 
L 231.4143 364.995936 
L 232.59195 380.976545 
L 236.1249 380.997087 
L 237.30255 395.984808 
L 240.8355 396.028849 
L 242.01315 412.976163 
L 245.5461 413.054631 
L 246.72375 430.537873 
L 250.2567 430.588307 
L 251.43435 447.452078 
L 253.78965 447.580659 
L 254.9673 447.580831 
L 256.14495 463.360116 
L 259.6779 463.437395 
L 260.85555 478.907485 
L 263.21085 478.988237 
L 264.3885 478.987402 
L 265.56615 496.790957 
L 269.0991 496.81653 
L 270.27675 513.450558 
L 273.8097 513.528816 
L 274.98735 530.377334 
L 278.5203 530.435775 
L 279.69795 547.611975 
L 283.2309 547.639334 
L 284.40855 566.09706 
L 286.76385 566.122217 
L 287.9415 566.123041 
L 289.11915 581.772564 
L 292.6521 581.79535 
L 293.82975 598.918011 
L 297.3627 598.98072 
L 298.54035 614.262662 
L 302.0733 614.327109 
L 303.25095 633.277382 
L 305.60625 633.389212 
L 306.7839 633.389976 
L 307.96155 649.63063 
L 311.4945 649.696379 
L 312.67215 666.111314 
L 316.2051 666.145984 
L 317.38275 682.132366 
L 320.9157 682.155648 
L 322.09335 697.2031 
L 325.6263 697.264809 
L 326.80395 706.721432 
L 330.3369 706.759506 
L 331.51455 711.297171 
L 335.0475 711.295544 
L 336.22515 710.691644 
L 339.7581 710.710892 
L 340.93575 712.028912 
L 344.4687 712.038222 
L 345.64635 710.853823 
L 349.1793 710.821444 
L 350.35695 711.417731 
L 353.8899 711.395603 
L 355.06755 712.488881 
L 358.6005 712.519974 
L 359.77815 713.780668 
L 363.3111 713.803261 
L 364.48875 713.293787 
L 368.0217 713.330301 
L 369.19935 712.339559 
L 372.7323 712.351333 
L 373.90995 712.710738 
L 384.5088 712.521279 
L 386.8641 712.523231 
L 388.04175 711.4026 
L 391.5747 711.394673 
L 392.75235 712.780462 
L 396.2853 712.779686 
L 397.46295 713.754105 
L 400.9959 713.776744 
L 402.17355 714.216509 
L 405.7065 714.214236 
L 406.88415 712.599645 
L 419.8383 712.632841 
L 421.01595 713.963795 
L 424.5489 713.981493 
L 425.72655 712.492655 
L 429.2595 712.464488 
L 430.43715 712.713857 
L 433.9701 712.720752 
L 435.14775 713.896567 
L 438.6807 713.872823 
L 439.85835 712.491701 
L 443.3913 712.477907 
L 444.56895 712.703791 
L 448.1019 712.732846 
L 449.27955 712.423495 
L 457.5231 712.339372 
L 458.70075 712.826697 
L 462.2337 712.812724 
L 463.41135 710.640802 
L 466.9443 710.628794 
L 468.12195 711.957631 
L 471.6549 711.961248 
L 472.83255 712.857864 
L 476.3655 712.862382 
L 477.54315 711.907895 
L 481.0761 711.94189 
L 482.25375 713.261608 
L 485.7867 713.226081 
L 486.96435 713.0133 
L 490.4973 713.013978 
L 491.67495 713.758524 
L 495.2079 713.76275 
L 496.38555 712.416414 
L 499.9185 712.442896 
L 501.09615 713.111293 
L 504.6291 713.085429 
L 505.80675 712.647954 
L 508.16205 712.640081 
L 509.3397 714.320376 
L 512.87265 714.366369 
L 514.0503 713.700094 
L 517.58325 713.726272 
L 518.7609 714.140628 
L 522.29385 714.126259 
L 523.4715 714.801084 
L 527.00445 714.844698 
L 528.1821 710.783517 
L 531.71505 710.771425 
L 532.8927 712.429149 
L 536.42565 712.456341 
L 537.6033 712.911718 
L 545.84685 712.97465 
L 547.0245 712.781833 
L 550.55745 712.771016 
L 551.7351 713.832439 
L 555.26805 713.845032 
L 556.4457 712.639959 
L 559.97865 712.635315 
L 561.1563 713.73494 
L 564.68925 713.694404 
L 565.8669 712.258926 
L 569.39985 712.246435 
L 570.5775 713.233297 
L 574.11045 713.214224 
L 575.2881 712.839368 
L 578.82105 712.878033 
L 579.9987 711.577486 
L 583.53165 711.603435 
L 584.7093 712.186409 
L 588.24225 712.202122 
L 589.4199 713.893171 
L 592.95285 713.907841 
L 594.1305 713.297152 
L 602.37405 713.363769 
L 603.5517 712.420304 
L 607.08465 712.4143 
L 608.2623 713.875159 
L 611.79525 713.858336 
L 612.9729 712.020911 
L 616.50585 711.96732 
L 617.6835 714.117837 
L 621.21645 714.146248 
L 622.3941 713.304254 
L 625.92705 713.326722 
L 627.1047 713.848205 
L 628.28235 713.942139 
L 629.46 713.830939 
L 630.63765 713.917512 
L 631.8153 712.839937 
L 638.8812 712.868103 
L 640.05885 712.866247 
L 641.2365 713.272966 
L 649.48005 713.221448 
L 650.6577 712.873352 
L 658.90125 712.945462 
L 660.0789 711.992611 
L 663.61185 711.93812 
L 664.7895 712.924436 
L 668.32245 712.959327 
L 669.5001 712.548403 
L 673.03305 712.539834 
L 674.2107 712.867302 
L 677.74365 712.859396 
L 678.9213 712.27447 
L 682.45425 712.304851 
L 683.6319 713.569272 
L 687.16485 713.608689 
L 689.52015 713.720229 
L 691.87545 713.759048 
L 693.0531 713.155444 
L 696.58605 713.167258 
L 697.7637 713.533 
L 701.29665 713.542691 
L 702.4743 713.144462 
L 706.00725 713.17593 
L 707.1849 711.883505 
L 710.71785 711.890393 
L 711.8955 712.489529 
L 715.42845 712.470358 
L 716.6061 713.165401 
L 720.13905 713.174165 
L 721.3167 711.887152 
L 724.84965 711.919824 
L 726.0273 711.627372 
L 729.56025 711.610576 
L 730.7379 713.278028 
L 734.27085 713.278546 
L 735.4485 712.470231 
L 738.98145 712.499031 
L 740.1591 712.780018 
L 743.69205 712.812818 
L 744.8697 713.005476 
L 749.5803 713.217559 
L 751.9356 713.157787 
L 753.11325 713.15754 
L 754.2909 712.437765 
L 757.82385 712.475747 
L 759.0015 713.180614 
L 762.53445 713.295156 
L 763.7121 713.806417 
L 771.95565 713.713843 
L 773.1333 714.862284 
L 776.66625 714.813609 
L 777.8439 712.201682 
L 781.37685 712.1755 
L 782.5545 713.626082 
L 786.08745 713.626189 
L 787.2651 713.238324 
L 789.6204 713.195083 
L 790.79805 713.195083 
L 791.9757 710.926687 
L 795.50865 710.954279 
L 796.6863 712.829235 
L 800.21925 712.802491 
L 803.7522 712.813488 
L 804.92985 713.015897 
L 808.4628 713.015039 
L 809.64045 711.864887 
L 813.1734 711.86938 
L 814.35105 714.485252 
L 817.884 714.452412 
L 819.06165 712.454415 
L 822.5946 712.470431 
L 823.77225 713.0969 
L 827.3052 713.089519 
L 828.48285 713.303281 
L 832.0158 713.306662 
L 833.19345 714.199993 
L 836.7264 714.205722 
L 837.90405 713.592328 
L 841.437 713.585828 
L 842.61465 711.500853 
L 846.1476 711.503238 
L 847.32525 713.069013 
L 850.8582 713.075338 
L 852.03585 713.461194 
L 855.5688 713.44599 
L 856.74645 714.801358 
L 860.2794 714.799172 
L 861.45705 714.086095 
L 864.99 714.077327 
L 866.16765 712.595137 
L 869.7006 712.59932 
L 870.87825 711.392596 
L 874.4112 711.37571 
L 875.58885 710.688553 
L 879.1218 710.696332 
L 880.29945 713.53089 
L 883.8324 713.51954 
L 885.01005 713.279637 
L 888.543 713.282647 
L 889.72065 712.669397 
L 893.2536 712.664804 
L 894.43125 712.31789 
L 897.9642 712.325556 
L 899.14185 711.362764 
L 902.6748 711.382887 
L 903.85245 712.92575 
L 907.3854 712.928332 
L 908.56305 715.162749 
L 916.8066 715.030983 
L 917.98425 713.431388 
L 921.5172 713.436591 
L 922.69485 712.5806 
L 926.2278 712.594213 
L 927.40545 712.849024 
L 930.9384 712.846182 
L 932.11605 713.720431 
L 935.649 713.708464 
L 936.82665 715.078579 
L 940.3596 715.074439 
L 941.53725 715.386752 
L 945.0702 715.385259 
L 946.24785 713.177299 
L 949.7808 713.179112 
L 950.95845 713.844109 
L 954.4914 713.845287 
L 955.66905 713.645227 
L 959.202 713.623746 
L 960.37965 712.38575 
L 963.9126 712.396507 
L 965.09025 711.53609 
L 968.6232 711.553235 
L 969.80085 712.938432 
L 973.3338 712.939584 
L 974.51145 712.680435 
L 978.0444 712.70135 
L 979.22205 713.900664 
L 982.755 713.92055 
L 983.93265 713.703731 
L 987.4656 713.719652 
L 988.64325 712.461392 
L 992.1762 712.459768 
L 993.35385 711.348552 
L 996.8868 711.329768 
L 998.06445 713.598144 
L 1001.5974 713.615827 
L 1002.77505 714.304745 
L 1006.308 714.296821 
L 1007.48565 713.75928 
L 1011.0186 713.760888 
L 1012.19625 714.730976 
L 1015.7292 714.717991 
L 1016.90685 714.139521 
L 1020.4398 714.147945 
L 1021.61745 713.461705 
L 1025.1504 713.468515 
L 1026.32805 714.123318 
L 1029.861 714.124215 
L 1031.03865 712.207405 
L 1034.5716 712.198441 
L 1035.74925 712.465806 
L 1039.2822 712.429173 
L 1040.45985 711.914877 
L 1043.9928 711.896909 
L 1045.17045 712.614095 
L 1048.7034 712.618716 
L 1049.88105 713.649774 
L 1053.414 713.6477 
L 1054.59165 714.647628 
L 1058.1246 714.624745 
L 1059.30225 713.226038 
L 1062.8352 713.226116 
L 1064.01285 711.653034 
L 1067.5458 711.655433 
L 1068.72345 711.108526 
L 1076.967 711.191312 
L 1078.14465 713.178837 
L 1081.6776 713.206288 
L 1082.85525 714.15697 
L 1084.0329 714.089303 
L 1086.3882 714.16008 
L 1087.56585 713.194965 
L 1091.0988 713.191727 
L 1092.27645 713.075258 
L 1095.8094 713.076027 
L 1096.98705 713.537935 
L 1100.52 713.572837 
L 1101.69765 713.302825 
L 1105.2306 713.297004 
L 1106.40825 713.498772 
L 1108.76355 713.533991 
L 1109.9412 713.503719 
L 1111.11885 713.083708 
L 1114.6518 713.086028 
L 1115.82945 712.361189 
L 1119.3624 712.346606 
L 1120.54005 712.084504 
L 1124.073 712.082169 
L 1125.25065 713.053728 
L 1128.7836 713.055112 
L 1129.96125 712.86072 
L 1133.4942 712.860804 
L 1134.67185 713.811046 
L 1138.2048 713.814095 
L 1139.38245 714.582008 
L 1142.9154 714.571807 
L 1144.09305 713.393809 
L 1147.626 713.393707 
L 1148.80365 714.942312 
L 1152.3366 714.923555 
L 1153.51425 715.29205 
L 1157.0472 715.290094 
L 1158.22485 712.718745 
L 1161.7578 712.699309 
L 1162.93545 715.068805 
L 1166.4684 715.055481 
L 1167.64605 712.715943 
L 1171.179 712.709546 
L 1172.35665 712.575141 
L 1175.8896 712.567932 
L 1177.06725 712.874304 
L 1180.6002 712.827964 
L 1181.77785 713.768592 
L 1185.3108 713.774953 
L 1186.48845 713.466515 
L 1190.0214 713.490968 
L 1191.19905 713.767689 
L 1194.732 713.786099 
L 1195.90965 713.936787 
L 1199.4426 713.920539 
L 1200.62025 712.928133 
L 1204.1532 712.973866 
L 1205.33085 713.208011 
L 1208.8638 713.226898 
L 1210.04145 713.05928 
L 1213.5744 713.066697 
L 1214.75205 714.319538 
L 1215.9297 714.271113 
L 1218.285 714.340889 
L 1219.46265 711.960709 
L 1222.9956 711.970779 
L 1224.17325 712.824937 
L 1227.7062 712.816567 
L 1228.88385 711.544507 
L 1232.4168 711.550806 
L 1233.59445 712.816302 
L 1237.1274 712.916876 
L 1238.30505 713.865948 
L 1240.66035 713.832761 
L 1241.838 713.868073 
L 1243.01565 712.494623 
L 1246.5486 712.474105 
L 1247.72625 711.833019 
L 1251.2592 711.833137 
L 1252.43685 712.33267 
L 1255.9698 712.351997 
L 1257.14745 713.460982 
L 1265.391 713.298625 
L 1266.56865 712.907679 
L 1274.8122 713.077608 
L 1275.98985 712.933059 
L 1284.2334 712.90823 
L 1285.41105 713.525826 
L 1288.944 713.50331 
L 1290.12165 713.056582 
L 1293.6546 713.038625 
L 1294.83225 712.870645 
L 1298.3652 712.875668 
L 1299.54285 712.693563 
L 1303.0758 712.699688 
L 1304.25345 713.598474 
L 1307.7864 713.591942 
L 1308.96405 713.091108 
L 1312.497 713.066786 
L 1313.67465 713.952564 
L 1317.2076 713.972425 
L 1319.5629 714.053349 
L 1321.9182 714.032204 
L 1323.09585 714.487505 
L 1326.6288 714.496999 
L 1327.80645 713.542827 
L 1331.3394 713.547244 
L 1332.51705 712.975801 
L 1334.87235 712.986487 
L 1336.05 713.15032 
L 1336.05 713.15032 
" style="fill:none;stroke:#008000;stroke-linecap:square;stroke-width:2.0;"/>
   </g>
   <g id="patch_3">
    <path d="M 158.4 51.3 
L 1336.05 51.3 
" style="fill:none;stroke:#000000;stroke-linecap:square;stroke-linejoin:miter;"/>
   </g>
   <g id="patch_4">
    <path d="M 1336.05 747 
L 1336.05 51.3 
" style="fill:none;stroke:#000000;stroke-linecap:square;stroke-linejoin:miter;"/>
   </g>
   <g id="patch_5">
    <path d="M 158.4 747 
L 1336.05 747 
" style="fill:none;stroke:#000000;stroke-linecap:square;stroke-linejoin:miter;"/>
   </g>
   <g id="patch_6">
    <path d="M 158.4 747 
L 158.4 51.3 
" style="fill:none;stroke:#000000;stroke-linecap:square;stroke-linejoin:miter;"/>
   </g>
   <g id="matplotlib.axis_1">
    <g id="xtick_1">
     <g id="line2d_3">
      <defs>
       <path d="M 0 0 
L 0 -4 
" id="mccafc96d94" style="stroke:#000000;stroke-width:0.5;"/>
      </defs>
      <g>
       <use style="stroke:#000000;stroke-width:0.5;" x="158.4" xlink:href="#mccafc96d94" y="747.0"/>
      </g>
     </g>
     <g id="line2d_4">
      <defs>
       <path d="M 0 0 
L 0 4 
" id="m7332deca95" style="stroke:#000000;stroke-width:0.5;"/>
      </defs>
      <g>
       <use style="stroke:#000000;stroke-width:0.5;" x="158.4" xlink:href="#m7332deca95" y="51.3"/>
      </g>
     </g>
     <g id="text_1">
      <!-- 0 -->
      <defs>
       <path d="M 31.78125 66.40625 
Q 24.171875 66.40625 20.328125 58.90625 
Q 16.5 51.421875 16.5 36.375 
Q 16.5 21.390625 20.328125 13.890625 
Q 24.171875 6.390625 31.78125 6.390625 
Q 39.453125 6.390625 43.28125 13.890625 
Q 47.125 21.390625 47.125 36.375 
Q 47.125 51.421875 43.28125 58.90625 
Q 39.453125 66.40625 31.78125 66.40625 
M 31.78125 74.21875 
Q 44.046875 74.21875 50.515625 64.515625 
Q 56.984375 54.828125 56.984375 36.375 
Q 56.984375 17.96875 50.515625 8.265625 
Q 44.046875 -1.421875 31.78125 -1.421875 
Q 19.53125 -1.421875 13.0625 8.265625 
Q 6.59375 17.96875 6.59375 36.375 
Q 6.59375 54.828125 13.0625 64.515625 
Q 19.53125 74.21875 31.78125 74.21875 
" id="BitstreamVeraSans-Roman-30"/>
      </defs>
      <g transform="translate(148.85625 773.7953125)scale(0.3 -0.3)">
       <use xlink:href="#BitstreamVeraSans-Roman-30"/>
      </g>
     </g>
    </g>
    <g id="xtick_2">
     <g id="line2d_5">
      <g>
       <use style="stroke:#000000;stroke-width:0.5;" x="393.93" xlink:href="#mccafc96d94" y="747.0"/>
      </g>
     </g>
     <g id="line2d_6">
      <g>
       <use style="stroke:#000000;stroke-width:0.5;" x="393.93" xlink:href="#m7332deca95" y="51.3"/>
      </g>
     </g>
     <g id="text_2">
      <!-- 20000 -->
      <defs>
       <path d="M 19.1875 8.296875 
L 53.609375 8.296875 
L 53.609375 0 
L 7.328125 0 
L 7.328125 8.296875 
Q 12.9375 14.109375 22.625 23.890625 
Q 32.328125 33.6875 34.8125 36.53125 
Q 39.546875 41.84375 41.421875 45.53125 
Q 43.3125 49.21875 43.3125 52.78125 
Q 43.3125 58.59375 39.234375 62.25 
Q 35.15625 65.921875 28.609375 65.921875 
Q 23.96875 65.921875 18.8125 64.3125 
Q 13.671875 62.703125 7.8125 59.421875 
L 7.8125 69.390625 
Q 13.765625 71.78125 18.9375 73 
Q 24.125 74.21875 28.421875 74.21875 
Q 39.75 74.21875 46.484375 68.546875 
Q 53.21875 62.890625 53.21875 53.421875 
Q 53.21875 48.921875 51.53125 44.890625 
Q 49.859375 40.875 45.40625 35.40625 
Q 44.1875 33.984375 37.640625 27.21875 
Q 31.109375 20.453125 19.1875 8.296875 
" id="BitstreamVeraSans-Roman-32"/>
      </defs>
      <g transform="translate(346.21125 773.7953125)scale(0.3 -0.3)">
       <use xlink:href="#BitstreamVeraSans-Roman-32"/>
       <use x="63.623046875" xlink:href="#BitstreamVeraSans-Roman-30"/>
       <use x="127.24609375" xlink:href="#BitstreamVeraSans-Roman-30"/>
       <use x="190.869140625" xlink:href="#BitstreamVeraSans-Roman-30"/>
       <use x="254.4921875" xlink:href="#BitstreamVeraSans-Roman-30"/>
      </g>
     </g>
    </g>
    <g id="xtick_3">
     <g id="line2d_7">
      <g>
       <use style="stroke:#000000;stroke-width:0.5;" x="629.46" xlink:href="#mccafc96d94" y="747.0"/>
      </g>
     </g>
     <g id="line2d_8">
      <g>
       <use style="stroke:#000000;stroke-width:0.5;" x="629.46" xlink:href="#m7332deca95" y="51.3"/>
      </g>
     </g>
     <g id="text_3">
      <!-- 40000 -->
      <defs>
       <path d="M 37.796875 64.3125 
L 12.890625 25.390625 
L 37.796875 25.390625 
z
M 35.203125 72.90625 
L 47.609375 72.90625 
L 47.609375 25.390625 
L 58.015625 25.390625 
L 58.015625 17.1875 
L 47.609375 17.1875 
L 47.609375 0 
L 37.796875 0 
L 37.796875 17.1875 
L 4.890625 17.1875 
L 4.890625 26.703125 
z
" id="BitstreamVeraSans-Roman-34"/>
      </defs>
      <g transform="translate(581.74125 773.7953125)scale(0.3 -0.3)">
       <use xlink:href="#BitstreamVeraSans-Roman-34"/>
       <use x="63.623046875" xlink:href="#BitstreamVeraSans-Roman-30"/>
       <use x="127.24609375" xlink:href="#BitstreamVeraSans-Roman-30"/>
       <use x="190.869140625" xlink:href="#BitstreamVeraSans-Roman-30"/>
       <use x="254.4921875" xlink:href="#BitstreamVeraSans-Roman-30"/>
      </g>
     </g>
    </g>
    <g id="xtick_4">
     <g id="line2d_9">
      <g>
       <use style="stroke:#000000;stroke-width:0.5;" x="864.99" xlink:href="#mccafc96d94" y="747.0"/>
      </g>
     </g>
     <g id="line2d_10">
      <g>
       <use style="stroke:#000000;stroke-width:0.5;" x="864.99" xlink:href="#m7332deca95" y="51.3"/>
      </g>
     </g>
     <g id="text_4">
      <!-- 60000 -->
      <defs>
       <path d="M 33.015625 40.375 
Q 26.375 40.375 22.484375 35.828125 
Q 18.609375 31.296875 18.609375 23.390625 
Q 18.609375 15.53125 22.484375 10.953125 
Q 26.375 6.390625 33.015625 6.390625 
Q 39.65625 6.390625 43.53125 10.953125 
Q 47.40625 15.53125 47.40625 23.390625 
Q 47.40625 31.296875 43.53125 35.828125 
Q 39.65625 40.375 33.015625 40.375 
M 52.59375 71.296875 
L 52.59375 62.3125 
Q 48.875 64.0625 45.09375 64.984375 
Q 41.3125 65.921875 37.59375 65.921875 
Q 27.828125 65.921875 22.671875 59.328125 
Q 17.53125 52.734375 16.796875 39.40625 
Q 19.671875 43.65625 24.015625 45.921875 
Q 28.375 48.1875 33.59375 48.1875 
Q 44.578125 48.1875 50.953125 41.515625 
Q 57.328125 34.859375 57.328125 23.390625 
Q 57.328125 12.15625 50.6875 5.359375 
Q 44.046875 -1.421875 33.015625 -1.421875 
Q 20.359375 -1.421875 13.671875 8.265625 
Q 6.984375 17.96875 6.984375 36.375 
Q 6.984375 53.65625 15.1875 63.9375 
Q 23.390625 74.21875 37.203125 74.21875 
Q 40.921875 74.21875 44.703125 73.484375 
Q 48.484375 72.75 52.59375 71.296875 
" id="BitstreamVeraSans-Roman-36"/>
      </defs>
      <g transform="translate(817.27125 773.7953125)scale(0.3 -0.3)">
       <use xlink:href="#BitstreamVeraSans-Roman-36"/>
       <use x="63.623046875" xlink:href="#BitstreamVeraSans-Roman-30"/>
       <use x="127.24609375" xlink:href="#BitstreamVeraSans-Roman-30"/>
       <use x="190.869140625" xlink:href="#BitstreamVeraSans-Roman-30"/>
       <use x="254.4921875" xlink:href="#BitstreamVeraSans-Roman-30"/>
      </g>
     </g>
    </g>
    <g id="xtick_5">
     <g id="line2d_11">
      <g>
       <use style="stroke:#000000;stroke-width:0.5;" x="1100.52" xlink:href="#mccafc96d94" y="747.0"/>
      </g>
     </g>
     <g id="line2d_12">
      <g>
       <use style="stroke:#000000;stroke-width:0.5;" x="1100.52" xlink:href="#m7332deca95" y="51.3"/>
      </g>
     </g>
     <g id="text_5">
      <!-- 80000 -->
      <defs>
       <path d="M 31.78125 34.625 
Q 24.75 34.625 20.71875 30.859375 
Q 16.703125 27.09375 16.703125 20.515625 
Q 16.703125 13.921875 20.71875 10.15625 
Q 24.75 6.390625 31.78125 6.390625 
Q 38.8125 6.390625 42.859375 10.171875 
Q 46.921875 13.96875 46.921875 20.515625 
Q 46.921875 27.09375 42.890625 30.859375 
Q 38.875 34.625 31.78125 34.625 
M 21.921875 38.8125 
Q 15.578125 40.375 12.03125 44.71875 
Q 8.5 49.078125 8.5 55.328125 
Q 8.5 64.0625 14.71875 69.140625 
Q 20.953125 74.21875 31.78125 74.21875 
Q 42.671875 74.21875 48.875 69.140625 
Q 55.078125 64.0625 55.078125 55.328125 
Q 55.078125 49.078125 51.53125 44.71875 
Q 48 40.375 41.703125 38.8125 
Q 48.828125 37.15625 52.796875 32.3125 
Q 56.78125 27.484375 56.78125 20.515625 
Q 56.78125 9.90625 50.3125 4.234375 
Q 43.84375 -1.421875 31.78125 -1.421875 
Q 19.734375 -1.421875 13.25 4.234375 
Q 6.78125 9.90625 6.78125 20.515625 
Q 6.78125 27.484375 10.78125 32.3125 
Q 14.796875 37.15625 21.921875 38.8125 
M 18.3125 54.390625 
Q 18.3125 48.734375 21.84375 45.5625 
Q 25.390625 42.390625 31.78125 42.390625 
Q 38.140625 42.390625 41.71875 45.5625 
Q 45.3125 48.734375 45.3125 54.390625 
Q 45.3125 60.0625 41.71875 63.234375 
Q 38.140625 66.40625 31.78125 66.40625 
Q 25.390625 66.40625 21.84375 63.234375 
Q 18.3125 60.0625 18.3125 54.390625 
" id="BitstreamVeraSans-Roman-38"/>
      </defs>
      <g transform="translate(1052.80125 773.7953125)scale(0.3 -0.3)">
       <use xlink:href="#BitstreamVeraSans-Roman-38"/>
       <use x="63.623046875" xlink:href="#BitstreamVeraSans-Roman-30"/>
       <use x="127.24609375" xlink:href="#BitstreamVeraSans-Roman-30"/>
       <use x="190.869140625" xlink:href="#BitstreamVeraSans-Roman-30"/>
       <use x="254.4921875" xlink:href="#BitstreamVeraSans-Roman-30"/>
      </g>
     </g>
    </g>
    <g id="xtick_6">
     <g id="line2d_13">
      <g>
       <use style="stroke:#000000;stroke-width:0.5;" x="1336.05" xlink:href="#mccafc96d94" y="747.0"/>
      </g>
     </g>
     <g id="line2d_14">
      <g>
       <use style="stroke:#000000;stroke-width:0.5;" x="1336.05" xlink:href="#m7332deca95" y="51.3"/>
      </g>
     </g>
     <g id="text_6">
      <!-- 100000 -->
      <defs>
       <path d="M 12.40625 8.296875 
L 28.515625 8.296875 
L 28.515625 63.921875 
L 10.984375 60.40625 
L 10.984375 69.390625 
L 28.421875 72.90625 
L 38.28125 72.90625 
L 38.28125 8.296875 
L 54.390625 8.296875 
L 54.390625 0 
L 12.40625 0 
z
" id="BitstreamVeraSans-Roman-31"/>
      </defs>
      <g transform="translate(1278.7875 773.7953125)scale(0.3 -0.3)">
       <use xlink:href="#BitstreamVeraSans-Roman-31"/>
       <use x="63.623046875" xlink:href="#BitstreamVeraSans-Roman-30"/>
       <use x="127.24609375" xlink:href="#BitstreamVeraSans-Roman-30"/>
       <use x="190.869140625" xlink:href="#BitstreamVeraSans-Roman-30"/>
       <use x="254.4921875" xlink:href="#BitstreamVeraSans-Roman-30"/>
       <use x="318.115234375" xlink:href="#BitstreamVeraSans-Roman-30"/>
      </g>
     </g>
    </g>
    <g id="text_7">
     <!-- iterations -->
     <defs>
      <path d="M 54.890625 33.015625 
L 54.890625 0 
L 45.90625 0 
L 45.90625 32.71875 
Q 45.90625 40.484375 42.875 44.328125 
Q 39.84375 48.1875 33.796875 48.1875 
Q 26.515625 48.1875 22.3125 43.546875 
Q 18.109375 38.921875 18.109375 30.90625 
L 18.109375 0 
L 9.078125 0 
L 9.078125 54.6875 
L 18.109375 54.6875 
L 18.109375 46.1875 
Q 21.34375 51.125 25.703125 53.5625 
Q 30.078125 56 35.796875 56 
Q 45.21875 56 50.046875 50.171875 
Q 54.890625 44.34375 54.890625 33.015625 
" id="BitstreamVeraSans-Roman-6e"/>
      <path d="M 34.28125 27.484375 
Q 23.390625 27.484375 19.1875 25 
Q 14.984375 22.515625 14.984375 16.5 
Q 14.984375 11.71875 18.140625 8.90625 
Q 21.296875 6.109375 26.703125 6.109375 
Q 34.1875 6.109375 38.703125 11.40625 
Q 43.21875 16.703125 43.21875 25.484375 
L 43.21875 27.484375 
z
M 52.203125 31.203125 
L 52.203125 0 
L 43.21875 0 
L 43.21875 8.296875 
Q 40.140625 3.328125 35.546875 0.953125 
Q 30.953125 -1.421875 24.3125 -1.421875 
Q 15.921875 -1.421875 10.953125 3.296875 
Q 6 8.015625 6 15.921875 
Q 6 25.140625 12.171875 29.828125 
Q 18.359375 34.515625 30.609375 34.515625 
L 43.21875 34.515625 
L 43.21875 35.40625 
Q 43.21875 41.609375 39.140625 45 
Q 35.0625 48.390625 27.6875 48.390625 
Q 23 48.390625 18.546875 47.265625 
Q 14.109375 46.140625 10.015625 43.890625 
L 10.015625 52.203125 
Q 14.9375 54.109375 19.578125 55.046875 
Q 24.21875 56 28.609375 56 
Q 40.484375 56 46.34375 49.84375 
Q 52.203125 43.703125 52.203125 31.203125 
" id="BitstreamVeraSans-Roman-61"/>
      <path d="M 30.609375 48.390625 
Q 23.390625 48.390625 19.1875 42.75 
Q 14.984375 37.109375 14.984375 27.296875 
Q 14.984375 17.484375 19.15625 11.84375 
Q 23.34375 6.203125 30.609375 6.203125 
Q 37.796875 6.203125 41.984375 11.859375 
Q 46.1875 17.53125 46.1875 27.296875 
Q 46.1875 37.015625 41.984375 42.703125 
Q 37.796875 48.390625 30.609375 48.390625 
M 30.609375 56 
Q 42.328125 56 49.015625 48.375 
Q 55.71875 40.765625 55.71875 27.296875 
Q 55.71875 13.875 49.015625 6.21875 
Q 42.328125 -1.421875 30.609375 -1.421875 
Q 18.84375 -1.421875 12.171875 6.21875 
Q 5.515625 13.875 5.515625 27.296875 
Q 5.515625 40.765625 12.171875 48.375 
Q 18.84375 56 30.609375 56 
" id="BitstreamVeraSans-Roman-6f"/>
      <path d="M 9.421875 54.6875 
L 18.40625 54.6875 
L 18.40625 0 
L 9.421875 0 
z
M 9.421875 75.984375 
L 18.40625 75.984375 
L 18.40625 64.59375 
L 9.421875 64.59375 
z
" id="BitstreamVeraSans-Roman-69"/>
      <path d="M 56.203125 29.59375 
L 56.203125 25.203125 
L 14.890625 25.203125 
Q 15.484375 15.921875 20.484375 11.0625 
Q 25.484375 6.203125 34.421875 6.203125 
Q 39.59375 6.203125 44.453125 7.46875 
Q 49.3125 8.734375 54.109375 11.28125 
L 54.109375 2.78125 
Q 49.265625 0.734375 44.1875 -0.34375 
Q 39.109375 -1.421875 33.890625 -1.421875 
Q 20.796875 -1.421875 13.15625 6.1875 
Q 5.515625 13.8125 5.515625 26.8125 
Q 5.515625 40.234375 12.765625 48.109375 
Q 20.015625 56 32.328125 56 
Q 43.359375 56 49.78125 48.890625 
Q 56.203125 41.796875 56.203125 29.59375 
M 47.21875 32.234375 
Q 47.125 39.59375 43.09375 43.984375 
Q 39.0625 48.390625 32.421875 48.390625 
Q 24.90625 48.390625 20.390625 44.140625 
Q 15.875 39.890625 15.1875 32.171875 
z
" id="BitstreamVeraSans-Roman-65"/>
      <path d="M 18.3125 70.21875 
L 18.3125 54.6875 
L 36.8125 54.6875 
L 36.8125 47.703125 
L 18.3125 47.703125 
L 18.3125 18.015625 
Q 18.3125 11.328125 20.140625 9.421875 
Q 21.96875 7.515625 27.59375 7.515625 
L 36.8125 7.515625 
L 36.8125 0 
L 27.59375 0 
Q 17.1875 0 13.234375 3.875 
Q 9.28125 7.765625 9.28125 18.015625 
L 9.28125 47.703125 
L 2.6875 47.703125 
L 2.6875 54.6875 
L 9.28125 54.6875 
L 9.28125 70.21875 
z
" id="BitstreamVeraSans-Roman-74"/>
      <path d="M 41.109375 46.296875 
Q 39.59375 47.171875 37.8125 47.578125 
Q 36.03125 48 33.890625 48 
Q 26.265625 48 22.1875 43.046875 
Q 18.109375 38.09375 18.109375 28.8125 
L 18.109375 0 
L 9.078125 0 
L 9.078125 54.6875 
L 18.109375 54.6875 
L 18.109375 46.1875 
Q 20.953125 51.171875 25.484375 53.578125 
Q 30.03125 56 36.53125 56 
Q 37.453125 56 38.578125 55.875 
Q 39.703125 55.765625 41.0625 55.515625 
z
" id="BitstreamVeraSans-Roman-72"/>
      <path d="M 44.28125 53.078125 
L 44.28125 44.578125 
Q 40.484375 46.53125 36.375 47.5 
Q 32.28125 48.484375 27.875 48.484375 
Q 21.1875 48.484375 17.84375 46.4375 
Q 14.5 44.390625 14.5 40.28125 
Q 14.5 37.15625 16.890625 35.375 
Q 19.28125 33.59375 26.515625 31.984375 
L 29.59375 31.296875 
Q 39.15625 29.25 43.1875 25.515625 
Q 47.21875 21.78125 47.21875 15.09375 
Q 47.21875 7.46875 41.1875 3.015625 
Q 35.15625 -1.421875 24.609375 -1.421875 
Q 20.21875 -1.421875 15.453125 -0.5625 
Q 10.6875 0.296875 5.421875 2 
L 5.421875 11.28125 
Q 10.40625 8.6875 15.234375 7.390625 
Q 20.0625 6.109375 24.8125 6.109375 
Q 31.15625 6.109375 34.5625 8.28125 
Q 37.984375 10.453125 37.984375 14.40625 
Q 37.984375 18.0625 35.515625 20.015625 
Q 33.0625 21.96875 24.703125 23.78125 
L 21.578125 24.515625 
Q 13.234375 26.265625 9.515625 29.90625 
Q 5.8125 33.546875 5.8125 39.890625 
Q 5.8125 47.609375 11.28125 51.796875 
Q 16.75 56 26.8125 56 
Q 31.78125 56 36.171875 55.265625 
Q 40.578125 54.546875 44.28125 53.078125 
" id="BitstreamVeraSans-Roman-73"/>
     </defs>
     <g transform="translate(676.04296875 807.8296875)scale(0.3 -0.3)">
      <use xlink:href="#BitstreamVeraSans-Roman-69"/>
      <use x="27.783203125" xlink:href="#BitstreamVeraSans-Roman-74"/>
      <use x="66.9921875" xlink:href="#BitstreamVeraSans-Roman-65"/>
      <use x="128.515625" xlink:href="#BitstreamVeraSans-Roman-72"/>
      <use x="169.62890625" xlink:href="#BitstreamVeraSans-Roman-61"/>
      <use x="230.908203125" xlink:href="#BitstreamVeraSans-Roman-74"/>
      <use x="270.1171875" xlink:href="#BitstreamVeraSans-Roman-69"/>
      <use x="297.900390625" xlink:href="#BitstreamVeraSans-Roman-6f"/>
      <use x="359.08203125" xlink:href="#BitstreamVeraSans-Roman-6e"/>
      <use x="422.4609375" xlink:href="#BitstreamVeraSans-Roman-73"/>
     </g>
    </g>
   </g>
   <g id="matplotlib.axis_2">
    <g id="ytick_1">
     <g id="line2d_15">
      <defs>
       <path d="M 0 0 
L 4 0 
" id="m6584a56db6" style="stroke:#000000;stroke-width:0.5;"/>
      </defs>
      <g>
       <use style="stroke:#000000;stroke-width:0.5;" x="158.4" xlink:href="#m6584a56db6" y="747.0"/>
      </g>
     </g>
     <g id="line2d_16">
      <defs>
       <path d="M 0 0 
L -4 0 
" id="mc8ffddb555" style="stroke:#000000;stroke-width:0.5;"/>
      </defs>
      <g>
       <use style="stroke:#000000;stroke-width:0.5;" x="1336.05" xlink:href="#mc8ffddb555" y="747.0"/>
      </g>
     </g>
     <g id="text_8">
      <!-- −60 -->
      <defs>
       <path d="M 10.59375 35.5 
L 73.1875 35.5 
L 73.1875 27.203125 
L 10.59375 27.203125 
z
" id="BitstreamVeraSans-Roman-2212"/>
      </defs>
      <g transform="translate(91.0859375 755.278125)scale(0.3 -0.3)">
       <use xlink:href="#BitstreamVeraSans-Roman-2212"/>
       <use x="83.7890625" xlink:href="#BitstreamVeraSans-Roman-36"/>
       <use x="147.412109375" xlink:href="#BitstreamVeraSans-Roman-30"/>
      </g>
     </g>
    </g>
    <g id="ytick_2">
     <g id="line2d_17">
      <g>
       <use style="stroke:#000000;stroke-width:0.5;" x="158.4" xlink:href="#m6584a56db6" y="660.0375"/>
      </g>
     </g>
     <g id="line2d_18">
      <g>
       <use style="stroke:#000000;stroke-width:0.5;" x="1336.05" xlink:href="#mc8ffddb555" y="660.0375"/>
      </g>
     </g>
     <g id="text_9">
      <!-- −50 -->
      <defs>
       <path d="M 10.796875 72.90625 
L 49.515625 72.90625 
L 49.515625 64.59375 
L 19.828125 64.59375 
L 19.828125 46.734375 
Q 21.96875 47.46875 24.109375 47.828125 
Q 26.265625 48.1875 28.421875 48.1875 
Q 40.625 48.1875 47.75 41.5 
Q 54.890625 34.8125 54.890625 23.390625 
Q 54.890625 11.625 47.5625 5.09375 
Q 40.234375 -1.421875 26.90625 -1.421875 
Q 22.3125 -1.421875 17.546875 -0.640625 
Q 12.796875 0.140625 7.71875 1.703125 
L 7.71875 11.625 
Q 12.109375 9.234375 16.796875 8.0625 
Q 21.484375 6.890625 26.703125 6.890625 
Q 35.15625 6.890625 40.078125 11.328125 
Q 45.015625 15.765625 45.015625 23.390625 
Q 45.015625 31 40.078125 35.4375 
Q 35.15625 39.890625 26.703125 39.890625 
Q 22.75 39.890625 18.8125 39.015625 
Q 14.890625 38.140625 10.796875 36.28125 
z
" id="BitstreamVeraSans-Roman-35"/>
      </defs>
      <g transform="translate(91.0859375 668.315625)scale(0.3 -0.3)">
       <use xlink:href="#BitstreamVeraSans-Roman-2212"/>
       <use x="83.7890625" xlink:href="#BitstreamVeraSans-Roman-35"/>
       <use x="147.412109375" xlink:href="#BitstreamVeraSans-Roman-30"/>
      </g>
     </g>
    </g>
    <g id="ytick_3">
     <g id="line2d_19">
      <g>
       <use style="stroke:#000000;stroke-width:0.5;" x="158.4" xlink:href="#m6584a56db6" y="573.075"/>
      </g>
     </g>
     <g id="line2d_20">
      <g>
       <use style="stroke:#000000;stroke-width:0.5;" x="1336.05" xlink:href="#mc8ffddb555" y="573.075"/>
      </g>
     </g>
     <g id="text_10">
      <!-- −40 -->
      <g transform="translate(91.0859375 581.353125)scale(0.3 -0.3)">
       <use xlink:href="#BitstreamVeraSans-Roman-2212"/>
       <use x="83.7890625" xlink:href="#BitstreamVeraSans-Roman-34"/>
       <use x="147.412109375" xlink:href="#BitstreamVeraSans-Roman-30"/>
      </g>
     </g>
    </g>
    <g id="ytick_4">
     <g id="line2d_21">
      <g>
       <use style="stroke:#000000;stroke-width:0.5;" x="158.4" xlink:href="#m6584a56db6" y="486.1125"/>
      </g>
     </g>
     <g id="line2d_22">
      <g>
       <use style="stroke:#000000;stroke-width:0.5;" x="1336.05" xlink:href="#mc8ffddb555" y="486.1125"/>
      </g>
     </g>
     <g id="text_11">
      <!-- −30 -->
      <defs>
       <path d="M 40.578125 39.3125 
Q 47.65625 37.796875 51.625 33 
Q 55.609375 28.21875 55.609375 21.1875 
Q 55.609375 10.40625 48.1875 4.484375 
Q 40.765625 -1.421875 27.09375 -1.421875 
Q 22.515625 -1.421875 17.65625 -0.515625 
Q 12.796875 0.390625 7.625 2.203125 
L 7.625 11.71875 
Q 11.71875 9.328125 16.59375 8.109375 
Q 21.484375 6.890625 26.8125 6.890625 
Q 36.078125 6.890625 40.9375 10.546875 
Q 45.796875 14.203125 45.796875 21.1875 
Q 45.796875 27.640625 41.28125 31.265625 
Q 36.765625 34.90625 28.71875 34.90625 
L 20.21875 34.90625 
L 20.21875 43.015625 
L 29.109375 43.015625 
Q 36.375 43.015625 40.234375 45.921875 
Q 44.09375 48.828125 44.09375 54.296875 
Q 44.09375 59.90625 40.109375 62.90625 
Q 36.140625 65.921875 28.71875 65.921875 
Q 24.65625 65.921875 20.015625 65.03125 
Q 15.375 64.15625 9.8125 62.3125 
L 9.8125 71.09375 
Q 15.4375 72.65625 20.34375 73.4375 
Q 25.25 74.21875 29.59375 74.21875 
Q 40.828125 74.21875 47.359375 69.109375 
Q 53.90625 64.015625 53.90625 55.328125 
Q 53.90625 49.265625 50.4375 45.09375 
Q 46.96875 40.921875 40.578125 39.3125 
" id="BitstreamVeraSans-Roman-33"/>
      </defs>
      <g transform="translate(91.0859375 494.390625)scale(0.3 -0.3)">
       <use xlink:href="#BitstreamVeraSans-Roman-2212"/>
       <use x="83.7890625" xlink:href="#BitstreamVeraSans-Roman-33"/>
       <use x="147.412109375" xlink:href="#BitstreamVeraSans-Roman-30"/>
      </g>
     </g>
    </g>
    <g id="ytick_5">
     <g id="line2d_23">
      <g>
       <use style="stroke:#000000;stroke-width:0.5;" x="158.4" xlink:href="#m6584a56db6" y="399.15"/>
      </g>
     </g>
     <g id="line2d_24">
      <g>
       <use style="stroke:#000000;stroke-width:0.5;" x="1336.05" xlink:href="#mc8ffddb555" y="399.15"/>
      </g>
     </g>
     <g id="text_12">
      <!-- −20 -->
      <g transform="translate(91.0859375 407.428125)scale(0.3 -0.3)">
       <use xlink:href="#BitstreamVeraSans-Roman-2212"/>
       <use x="83.7890625" xlink:href="#BitstreamVeraSans-Roman-32"/>
       <use x="147.412109375" xlink:href="#BitstreamVeraSans-Roman-30"/>
      </g>
     </g>
    </g>
    <g id="ytick_6">
     <g id="line2d_25">
      <g>
       <use style="stroke:#000000;stroke-width:0.5;" x="158.4" xlink:href="#m6584a56db6" y="312.1875"/>
      </g>
     </g>
     <g id="line2d_26">
      <g>
       <use style="stroke:#000000;stroke-width:0.5;" x="1336.05" xlink:href="#mc8ffddb555" y="312.1875"/>
      </g>
     </g>
     <g id="text_13">
      <!-- −10 -->
      <g transform="translate(91.0859375 320.465625)scale(0.3 -0.3)">
       <use xlink:href="#BitstreamVeraSans-Roman-2212"/>
       <use x="83.7890625" xlink:href="#BitstreamVeraSans-Roman-31"/>
       <use x="147.412109375" xlink:href="#BitstreamVeraSans-Roman-30"/>
      </g>
     </g>
    </g>
    <g id="ytick_7">
     <g id="line2d_27">
      <g>
       <use style="stroke:#000000;stroke-width:0.5;" x="158.4" xlink:href="#m6584a56db6" y="225.225"/>
      </g>
     </g>
     <g id="line2d_28">
      <g>
       <use style="stroke:#000000;stroke-width:0.5;" x="1336.05" xlink:href="#mc8ffddb555" y="225.225"/>
      </g>
     </g>
     <g id="text_14">
      <!-- 0 -->
      <g transform="translate(135.3125 233.503125)scale(0.3 -0.3)">
       <use xlink:href="#BitstreamVeraSans-Roman-30"/>
      </g>
     </g>
    </g>
    <g id="ytick_8">
     <g id="line2d_29">
      <g>
       <use style="stroke:#000000;stroke-width:0.5;" x="158.4" xlink:href="#m6584a56db6" y="138.2625"/>
      </g>
     </g>
     <g id="line2d_30">
      <g>
       <use style="stroke:#000000;stroke-width:0.5;" x="1336.05" xlink:href="#mc8ffddb555" y="138.2625"/>
      </g>
     </g>
     <g id="text_15">
      <!-- 10 -->
      <g transform="translate(116.225 146.540625)scale(0.3 -0.3)">
       <use xlink:href="#BitstreamVeraSans-Roman-31"/>
       <use x="63.623046875" xlink:href="#BitstreamVeraSans-Roman-30"/>
      </g>
     </g>
    </g>
    <g id="ytick_9">
     <g id="line2d_31">
      <g>
       <use style="stroke:#000000;stroke-width:0.5;" x="158.4" xlink:href="#m6584a56db6" y="51.3"/>
      </g>
     </g>
     <g id="line2d_32">
      <g>
       <use style="stroke:#000000;stroke-width:0.5;" x="1336.05" xlink:href="#mc8ffddb555" y="51.3"/>
      </g>
     </g>
     <g id="text_16">
      <!-- 20 -->
      <g transform="translate(116.225 59.578125)scale(0.3 -0.3)">
       <use xlink:href="#BitstreamVeraSans-Roman-32"/>
       <use x="63.623046875" xlink:href="#BitstreamVeraSans-Roman-30"/>
      </g>
     </g>
    </g>
    <g id="text_17">
     <!-- log(loss) -->
     <defs>
      <path d="M 8.015625 75.875 
L 15.828125 75.875 
Q 23.140625 64.359375 26.78125 53.3125 
Q 30.421875 42.28125 30.421875 31.390625 
Q 30.421875 20.453125 26.78125 9.375 
Q 23.140625 -1.703125 15.828125 -13.1875 
L 8.015625 -13.1875 
Q 14.5 -2 17.703125 9.0625 
Q 20.90625 20.125 20.90625 31.390625 
Q 20.90625 42.671875 17.703125 53.65625 
Q 14.5 64.65625 8.015625 75.875 
" id="BitstreamVeraSans-Roman-29"/>
      <path d="M 31 75.875 
Q 24.46875 64.65625 21.28125 53.65625 
Q 18.109375 42.671875 18.109375 31.390625 
Q 18.109375 20.125 21.3125 9.0625 
Q 24.515625 -2 31 -13.1875 
L 23.1875 -13.1875 
Q 15.875 -1.703125 12.234375 9.375 
Q 8.59375 20.453125 8.59375 31.390625 
Q 8.59375 42.28125 12.203125 53.3125 
Q 15.828125 64.359375 23.1875 75.875 
z
" id="BitstreamVeraSans-Roman-28"/>
      <path d="M 45.40625 27.984375 
Q 45.40625 37.75 41.375 43.109375 
Q 37.359375 48.484375 30.078125 48.484375 
Q 22.859375 48.484375 18.828125 43.109375 
Q 14.796875 37.75 14.796875 27.984375 
Q 14.796875 18.265625 18.828125 12.890625 
Q 22.859375 7.515625 30.078125 7.515625 
Q 37.359375 7.515625 41.375 12.890625 
Q 45.40625 18.265625 45.40625 27.984375 
M 54.390625 6.78125 
Q 54.390625 -7.171875 48.1875 -13.984375 
Q 42 -20.796875 29.203125 -20.796875 
Q 24.46875 -20.796875 20.265625 -20.09375 
Q 16.0625 -19.390625 12.109375 -17.921875 
L 12.109375 -9.1875 
Q 16.0625 -11.328125 19.921875 -12.34375 
Q 23.78125 -13.375 27.78125 -13.375 
Q 36.625 -13.375 41.015625 -8.765625 
Q 45.40625 -4.15625 45.40625 5.171875 
L 45.40625 9.625 
Q 42.625 4.78125 38.28125 2.390625 
Q 33.9375 0 27.875 0 
Q 17.828125 0 11.671875 7.65625 
Q 5.515625 15.328125 5.515625 27.984375 
Q 5.515625 40.671875 11.671875 48.328125 
Q 17.828125 56 27.875 56 
Q 33.9375 56 38.28125 53.609375 
Q 42.625 51.21875 45.40625 46.390625 
L 45.40625 54.6875 
L 54.390625 54.6875 
z
" id="BitstreamVeraSans-Roman-67"/>
      <path d="M 9.421875 75.984375 
L 18.40625 75.984375 
L 18.40625 0 
L 9.421875 0 
z
" id="BitstreamVeraSans-Roman-6c"/>
     </defs>
     <g transform="translate(79.846875 462.69609375)rotate(-90.0)scale(0.3 -0.3)">
      <use xlink:href="#BitstreamVeraSans-Roman-6c"/>
      <use x="27.783203125" xlink:href="#BitstreamVeraSans-Roman-6f"/>
      <use x="88.96484375" xlink:href="#BitstreamVeraSans-Roman-67"/>
      <use x="152.44140625" xlink:href="#BitstreamVeraSans-Roman-28"/>
      <use x="191.455078125" xlink:href="#BitstreamVeraSans-Roman-6c"/>
      <use x="219.23828125" xlink:href="#BitstreamVeraSans-Roman-6f"/>
      <use x="280.419921875" xlink:href="#BitstreamVeraSans-Roman-73"/>
      <use x="332.51953125" xlink:href="#BitstreamVeraSans-Roman-73"/>
      <use x="384.619140625" xlink:href="#BitstreamVeraSans-Roman-29"/>
     </g>
    </g>
   </g>
   <g id="legend_1">
    <g id="patch_7">
     <path d="M 843.876562 163.36875 
L 1321.05 163.36875 
L 1321.05 66.3 
L 843.876562 66.3 
z
" style="fill:#ffffff;stroke:#000000;stroke-linejoin:miter;"/>
    </g>
    <g id="line2d_33">
     <path d="M 864.876562 90.595312 
L 906.876562 90.595312 
" style="fill:none;stroke:#0000ff;stroke-linecap:square;stroke-width:2.0;"/>
    </g>
    <g id="line2d_34"/>
    <g id="text_18">
     <!-- random: step=0.002500 -->
     <defs>
      <path id="BitstreamVeraSans-Roman-20"/>
      <path d="M 52 44.1875 
Q 55.375 50.25 60.0625 53.125 
Q 64.75 56 71.09375 56 
Q 79.640625 56 84.28125 50.015625 
Q 88.921875 44.046875 88.921875 33.015625 
L 88.921875 0 
L 79.890625 0 
L 79.890625 32.71875 
Q 79.890625 40.578125 77.09375 44.375 
Q 74.3125 48.1875 68.609375 48.1875 
Q 61.625 48.1875 57.5625 43.546875 
Q 53.515625 38.921875 53.515625 30.90625 
L 53.515625 0 
L 44.484375 0 
L 44.484375 32.71875 
Q 44.484375 40.625 41.703125 44.40625 
Q 38.921875 48.1875 33.109375 48.1875 
Q 26.21875 48.1875 22.15625 43.53125 
Q 18.109375 38.875 18.109375 30.90625 
L 18.109375 0 
L 9.078125 0 
L 9.078125 54.6875 
L 18.109375 54.6875 
L 18.109375 46.1875 
Q 21.1875 51.21875 25.484375 53.609375 
Q 29.78125 56 35.6875 56 
Q 41.65625 56 45.828125 52.96875 
Q 50 49.953125 52 44.1875 
" id="BitstreamVeraSans-Roman-6d"/>
      <path d="M 11.71875 12.40625 
L 22.015625 12.40625 
L 22.015625 0 
L 11.71875 0 
z
M 11.71875 51.703125 
L 22.015625 51.703125 
L 22.015625 39.3125 
L 11.71875 39.3125 
z
" id="BitstreamVeraSans-Roman-3a"/>
      <path d="M 10.6875 12.40625 
L 21 12.40625 
L 21 0 
L 10.6875 0 
z
" id="BitstreamVeraSans-Roman-2e"/>
      <path d="M 10.59375 45.40625 
L 73.1875 45.40625 
L 73.1875 37.203125 
L 10.59375 37.203125 
z
M 10.59375 25.484375 
L 73.1875 25.484375 
L 73.1875 17.1875 
L 10.59375 17.1875 
z
" id="BitstreamVeraSans-Roman-3d"/>
      <path d="M 45.40625 46.390625 
L 45.40625 75.984375 
L 54.390625 75.984375 
L 54.390625 0 
L 45.40625 0 
L 45.40625 8.203125 
Q 42.578125 3.328125 38.25 0.953125 
Q 33.9375 -1.421875 27.875 -1.421875 
Q 17.96875 -1.421875 11.734375 6.484375 
Q 5.515625 14.40625 5.515625 27.296875 
Q 5.515625 40.1875 11.734375 48.09375 
Q 17.96875 56 27.875 56 
Q 33.9375 56 38.25 53.625 
Q 42.578125 51.265625 45.40625 46.390625 
M 14.796875 27.296875 
Q 14.796875 17.390625 18.875 11.75 
Q 22.953125 6.109375 30.078125 6.109375 
Q 37.203125 6.109375 41.296875 11.75 
Q 45.40625 17.390625 45.40625 27.296875 
Q 45.40625 37.203125 41.296875 42.84375 
Q 37.203125 48.484375 30.078125 48.484375 
Q 22.953125 48.484375 18.875 42.84375 
Q 14.796875 37.203125 14.796875 27.296875 
" id="BitstreamVeraSans-Roman-64"/>
      <path d="M 18.109375 8.203125 
L 18.109375 -20.796875 
L 9.078125 -20.796875 
L 9.078125 54.6875 
L 18.109375 54.6875 
L 18.109375 46.390625 
Q 20.953125 51.265625 25.265625 53.625 
Q 29.59375 56 35.59375 56 
Q 45.5625 56 51.78125 48.09375 
Q 58.015625 40.1875 58.015625 27.296875 
Q 58.015625 14.40625 51.78125 6.484375 
Q 45.5625 -1.421875 35.59375 -1.421875 
Q 29.59375 -1.421875 25.265625 0.953125 
Q 20.953125 3.328125 18.109375 8.203125 
M 48.6875 27.296875 
Q 48.6875 37.203125 44.609375 42.84375 
Q 40.53125 48.484375 33.40625 48.484375 
Q 26.265625 48.484375 22.1875 42.84375 
Q 18.109375 37.203125 18.109375 27.296875 
Q 18.109375 17.390625 22.1875 11.75 
Q 26.265625 6.109375 33.40625 6.109375 
Q 40.53125 6.109375 44.609375 11.75 
Q 48.6875 17.390625 48.6875 27.296875 
" id="BitstreamVeraSans-Roman-70"/>
     </defs>
     <g transform="translate(939.8765625 101.0953125)scale(0.3 -0.3)">
      <use xlink:href="#BitstreamVeraSans-Roman-72"/>
      <use x="41.11328125" xlink:href="#BitstreamVeraSans-Roman-61"/>
      <use x="102.392578125" xlink:href="#BitstreamVeraSans-Roman-6e"/>
      <use x="165.771484375" xlink:href="#BitstreamVeraSans-Roman-64"/>
      <use x="229.248046875" xlink:href="#BitstreamVeraSans-Roman-6f"/>
      <use x="290.4296875" xlink:href="#BitstreamVeraSans-Roman-6d"/>
      <use x="387.841796875" xlink:href="#BitstreamVeraSans-Roman-3a"/>
      <use x="421.533203125" xlink:href="#BitstreamVeraSans-Roman-20"/>
      <use x="453.3203125" xlink:href="#BitstreamVeraSans-Roman-73"/>
      <use x="505.419921875" xlink:href="#BitstreamVeraSans-Roman-74"/>
      <use x="544.62890625" xlink:href="#BitstreamVeraSans-Roman-65"/>
      <use x="606.15234375" xlink:href="#BitstreamVeraSans-Roman-70"/>
      <use x="669.62890625" xlink:href="#BitstreamVeraSans-Roman-3d"/>
      <use x="753.41796875" xlink:href="#BitstreamVeraSans-Roman-30"/>
      <use x="817.041015625" xlink:href="#BitstreamVeraSans-Roman-2e"/>
      <use x="848.828125" xlink:href="#BitstreamVeraSans-Roman-30"/>
      <use x="912.451171875" xlink:href="#BitstreamVeraSans-Roman-30"/>
      <use x="976.07421875" xlink:href="#BitstreamVeraSans-Roman-32"/>
      <use x="1039.69726562" xlink:href="#BitstreamVeraSans-Roman-35"/>
      <use x="1103.3203125" xlink:href="#BitstreamVeraSans-Roman-30"/>
      <use x="1166.94335938" xlink:href="#BitstreamVeraSans-Roman-30"/>
     </g>
    </g>
    <g id="line2d_35">
     <path d="M 864.876562 134.629687 
L 906.876562 134.629687 
" style="fill:none;stroke:#008000;stroke-linecap:square;stroke-width:2.0;"/>
    </g>
    <g id="line2d_36"/>
    <g id="text_19">
     <!-- corr: step=0.002500 -->
     <defs>
      <path d="M 48.78125 52.59375 
L 48.78125 44.1875 
Q 44.96875 46.296875 41.140625 47.34375 
Q 37.3125 48.390625 33.40625 48.390625 
Q 24.65625 48.390625 19.8125 42.84375 
Q 14.984375 37.3125 14.984375 27.296875 
Q 14.984375 17.28125 19.8125 11.734375 
Q 24.65625 6.203125 33.40625 6.203125 
Q 37.3125 6.203125 41.140625 7.25 
Q 44.96875 8.296875 48.78125 10.40625 
L 48.78125 2.09375 
Q 45.015625 0.34375 40.984375 -0.53125 
Q 36.96875 -1.421875 32.421875 -1.421875 
Q 20.0625 -1.421875 12.78125 6.34375 
Q 5.515625 14.109375 5.515625 27.296875 
Q 5.515625 40.671875 12.859375 48.328125 
Q 20.21875 56 33.015625 56 
Q 37.15625 56 41.109375 55.140625 
Q 45.0625 54.296875 48.78125 52.59375 
" id="BitstreamVeraSans-Roman-63"/>
     </defs>
     <g transform="translate(939.8765625 145.1296875)scale(0.3 -0.3)">
      <use xlink:href="#BitstreamVeraSans-Roman-63"/>
      <use x="54.98046875" xlink:href="#BitstreamVeraSans-Roman-6f"/>
      <use x="116.162109375" xlink:href="#BitstreamVeraSans-Roman-72"/>
      <use x="157.259765625" xlink:href="#BitstreamVeraSans-Roman-72"/>
      <use x="198.357421875" xlink:href="#BitstreamVeraSans-Roman-3a"/>
      <use x="232.048828125" xlink:href="#BitstreamVeraSans-Roman-20"/>
      <use x="263.8359375" xlink:href="#BitstreamVeraSans-Roman-73"/>
      <use x="315.935546875" xlink:href="#BitstreamVeraSans-Roman-74"/>
      <use x="355.14453125" xlink:href="#BitstreamVeraSans-Roman-65"/>
      <use x="416.66796875" xlink:href="#BitstreamVeraSans-Roman-70"/>
      <use x="480.14453125" xlink:href="#BitstreamVeraSans-Roman-3d"/>
      <use x="563.93359375" xlink:href="#BitstreamVeraSans-Roman-30"/>
      <use x="627.556640625" xlink:href="#BitstreamVeraSans-Roman-2e"/>
      <use x="659.34375" xlink:href="#BitstreamVeraSans-Roman-30"/>
      <use x="722.966796875" xlink:href="#BitstreamVeraSans-Roman-30"/>
      <use x="786.58984375" xlink:href="#BitstreamVeraSans-Roman-32"/>
      <use x="850.212890625" xlink:href="#BitstreamVeraSans-Roman-35"/>
      <use x="913.8359375" xlink:href="#BitstreamVeraSans-Roman-30"/>
      <use x="977.458984375" xlink:href="#BitstreamVeraSans-Roman-30"/>
     </g>
    </g>
   </g>
  </g>
 </g>
 <defs>
  <clipPath id="p02f1345679">
   <rect height="695.7" width="1177.65" x="158.4" y="51.3"/>
  </clipPath>
 </defs>
</svg>
