<?xml version="1.0" encoding="utf-8" standalone="no"?>
<!DOCTYPE svg PUBLIC "-//W3C//DTD SVG 1.1//EN"
  "http://www.w3.org/Graphics/SVG/1.1/DTD/svg11.dtd">
<!-- Created with matplotlib (http://matplotlib.org/) -->
<svg height="864pt" version="1.1" viewBox="0 0 1440 864" width="1440pt" xmlns="http://www.w3.org/2000/svg" xmlns:xlink="http://www.w3.org/1999/xlink">
 <defs>
  <style type="text/css">
*{stroke-linecap:butt;stroke-linejoin:round;stroke-miterlimit:100000;}
  </style>
 </defs>
 <g id="figure_1">
  <g id="patch_1">
   <path d="M 0 864 
L 1440 864 
L 1440 0 
L 0 0 
z
" style="fill:#ffffff;"/>
  </g>
  <g id="axes_1">
   <g id="patch_2">
    <path d="M 158.4 747 
L 1336.05 747 
L 1336.05 51.3 
L 158.4 51.3 
z
" style="fill:#ffffff;"/>
   </g>
   <g id="line2d_1">
    <path clip-path="url(#p45530462c8)" d="M 159.57765 60.81315 
L 160.7553 61.191753 
L 163.1106 61.247373 
L 164.28825 77.621653 
L 165.4659 77.870687 
L 166.64355 79.2382 
L 167.8212 79.213031 
L 168.99885 92.514849 
L 170.1765 92.470007 
L 171.35415 96.288043 
L 172.5318 96.725932 
L 173.70945 104.929506 
L 174.8871 105.60319 
L 176.06475 109.973433 
L 177.2424 110.179573 
L 178.42005 117.674269 
L 179.5977 118.036906 
L 180.77535 125.997627 
L 181.953 126.032054 
L 183.13065 129.696859 
L 184.3083 129.822518 
L 185.48595 138.933351 
L 186.6636 139.322767 
L 187.84125 140.009694 
L 189.0189 140.149761 
L 190.19655 153.606595 
L 192.55185 153.474534 
L 193.7295 153.689192 
L 194.90715 167.456167 
L 196.0848 167.635659 
L 197.26245 168.901888 
L 198.4401 169.337184 
L 199.61775 178.788774 
L 200.7954 179.539891 
L 201.97305 183.737541 
L 203.1507 183.843205 
L 204.32835 189.807038 
L 205.506 190.30836 
L 206.68365 197.598303 
L 207.8613 197.725007 
L 209.03895 199.967513 
L 210.2166 200.922922 
L 211.39425 211.38084 
L 213.74955 211.814647 
L 214.9272 213.465977 
L 216.10485 221.141288 
L 217.2825 221.788013 
L 218.46015 229.090092 
L 220.81545 230.55807 
L 221.9931 230.881067 
L 223.17075 242.642776 
L 225.52605 242.906571 
L 226.7037 243.383113 
L 227.88135 254.982136 
L 230.23665 255.774311 
L 231.4143 256.85874 
L 232.59195 264.00058 
L 233.7696 264.993044 
L 234.94725 268.452247 
L 236.1249 271.212369 
L 237.30255 275.787144 
L 238.4802 278.330172 
L 239.65785 285.352447 
L 240.8355 287.262633 
L 242.01315 287.960915 
L 243.1908 289.055263 
L 244.36845 301.038568 
L 245.5461 301.649205 
L 246.72375 301.972079 
L 247.9014 302.107145 
L 249.07905 312.812747 
L 250.2567 315.503595 
L 251.43435 315.660942 
L 252.612 316.978071 
L 254.9673 329.245995 
L 257.3226 333.928318 
L 258.50025 334.547216 
L 259.6779 339.888764 
L 260.85555 347.1447 
L 262.0332 347.416828 
L 263.21085 348.391556 
L 264.3885 349.176985 
L 265.56615 357.060557 
L 266.7438 363.141679 
L 267.92145 363.350268 
L 269.0991 364.642053 
L 270.27675 367.10045 
L 271.4544 375.236439 
L 272.63205 377.356979 
L 273.8097 380.022518 
L 274.98735 380.67767 
L 277.34265 393.233733 
L 278.5203 393.77103 
L 279.69795 397.250682 
L 280.8756 399.845042 
L 282.05325 404.592339 
L 283.2309 408.811667 
L 284.40855 411.063109 
L 285.5862 412.662235 
L 286.76385 414.669252 
L 287.9415 422.814076 
L 289.11915 423.063522 
L 290.2968 425.206088 
L 291.47445 425.792775 
L 292.6521 433.769336 
L 293.82975 434.947513 
L 295.0074 434.990178 
L 296.18505 438.028581 
L 297.3627 444.673349 
L 298.54035 446.336101 
L 299.718 448.652279 
L 300.89565 451.663001 
L 303.25095 456.541337 
L 304.4286 461.703184 
L 305.60625 466.123488 
L 307.96155 468.146263 
L 309.1392 476.077632 
L 310.31685 480.31499 
L 311.4945 480.939374 
L 312.67215 481.219852 
L 313.8498 492.392488 
L 315.02745 494.078247 
L 316.2051 494.929677 
L 317.38275 498.292644 
L 318.5604 507.898997 
L 319.73805 507.681443 
L 320.9157 508.242823 
L 322.09335 512.444325 
L 323.271 519.622801 
L 324.44865 519.6111 
L 325.6263 520.74182 
L 327.9816 534.025535 
L 329.15925 534.590363 
L 330.3369 536.996116 
L 331.51455 542.862695 
L 332.6922 545.799633 
L 333.86985 546.284282 
L 335.0475 552.149719 
L 336.22515 555.714269 
L 337.4028 556.555921 
L 338.58045 556.613514 
L 339.7581 564.769477 
L 340.93575 569.324759 
L 343.29105 571.39663 
L 344.4687 578.224645 
L 345.64635 579.798462 
L 346.824 580.458005 
L 348.00165 584.390667 
L 349.1793 593.037285 
L 350.35695 593.23974 
L 351.5346 593.672664 
L 353.8899 606.257286 
L 356.2452 608.147456 
L 357.42285 615.042922 
L 358.6005 617.30059 
L 359.77815 618.592733 
L 360.9558 622.093297 
L 362.13345 628.470011 
L 364.48875 630.396852 
L 366.84405 639.970192 
L 368.0217 640.226871 
L 369.19935 640.627304 
L 370.377 647.692981 
L 371.55465 650.828619 
L 372.7323 652.563855 
L 373.90995 653.432697 
L 375.0876 661.370026 
L 377.4429 663.549411 
L 378.62055 667.435858 
L 379.7982 675.404413 
L 380.97585 675.771325 
L 382.1535 676.749823 
L 383.33115 682.688545 
L 385.68645 688.173122 
L 386.8641 688.310647 
L 388.04175 697.260628 
L 389.2194 697.519561 
L 390.39705 700.485371 
L 393.93 711.552309 
L 395.10765 713.065625 
L 396.2853 716.909536 
L 397.46295 717.415658 
L 398.6406 719.77865 
L 399.81825 721.471209 
L 400.9959 723.481269 
L 402.17355 724.263054 
L 403.3512 725.245553 
L 404.52885 725.971652 
L 405.7065 725.836156 
L 406.88415 728.208953 
L 408.0618 728.446785 
L 409.23945 727.910053 
L 410.4171 728.462332 
L 411.59475 729.623536 
L 412.7724 729.851567 
L 413.95005 730.388805 
L 415.1277 730.380148 
L 416.30535 730.82991 
L 417.483 730.51029 
L 418.66065 730.612795 
L 419.8383 732.704701 
L 422.1936 732.51139 
L 423.37125 732.089851 
L 424.5489 730.289162 
L 425.72655 729.699221 
L 426.9042 729.721128 
L 428.08185 729.949006 
L 429.2595 729.406885 
L 430.43715 729.731241 
L 431.6148 729.292653 
L 432.79245 730.434218 
L 433.9701 730.467576 
L 435.14775 729.801694 
L 436.3254 730.215298 
L 437.50305 729.888103 
L 438.6807 730.778513 
L 439.85835 730.073274 
L 441.036 731.304827 
L 442.21365 731.718814 
L 443.3913 731.482305 
L 444.56895 731.937838 
L 445.7466 732.557479 
L 446.92425 732.048116 
L 448.1019 732.259751 
L 449.27955 731.688958 
L 450.4572 730.354921 
L 452.8125 730.898537 
L 453.99015 729.976351 
L 455.1678 730.333039 
L 456.34545 730.405461 
L 457.5231 728.616834 
L 458.70075 728.418029 
L 459.8784 728.387208 
L 461.05605 729.276909 
L 462.2337 729.214189 
L 463.41135 729.967367 
L 464.589 729.510946 
L 465.76665 729.368561 
L 466.9443 729.501181 
L 468.12195 730.281957 
L 469.2996 729.810998 
L 471.6549 730.74914 
L 474.0102 730.567299 
L 477.54315 731.933029 
L 478.7208 731.18006 
L 479.89845 729.740836 
L 481.0761 729.805639 
L 483.4314 730.602971 
L 484.60905 730.445855 
L 485.7867 730.600031 
L 486.96435 730.224849 
L 488.142 729.331387 
L 489.31965 729.810705 
L 490.4973 729.691305 
L 491.67495 730.537748 
L 492.8526 730.141417 
L 494.03025 729.624639 
L 496.38555 729.82969 
L 497.5632 728.754101 
L 498.74085 728.508792 
L 499.9185 729.241081 
L 501.09615 730.271765 
L 502.2738 731.708639 
L 503.45145 731.77394 
L 504.6291 731.191996 
L 505.80675 731.416938 
L 506.9844 731.432825 
L 508.16205 731.166264 
L 509.3397 731.434835 
L 510.51735 730.288329 
L 511.695 729.972293 
L 512.87265 731.101598 
L 514.0503 730.752021 
L 515.22795 730.556485 
L 516.4056 729.9877 
L 517.58325 728.662852 
L 519.93855 728.981512 
L 521.1162 729.632687 
L 522.29385 731.230616 
L 523.4715 730.618938 
L 525.8268 729.655864 
L 527.00445 729.598361 
L 528.1821 729.833555 
L 529.35975 730.514618 
L 530.5374 731.044173 
L 532.8927 730.176478 
L 534.07035 730.572514 
L 535.248 729.980069 
L 536.42565 729.766612 
L 537.6033 730.622697 
L 538.78095 730.13393 
L 539.9586 729.440305 
L 542.3139 730.17967 
L 543.49155 730.394552 
L 544.6692 730.459349 
L 545.84685 730.965054 
L 547.0245 730.81154 
L 548.20215 729.050875 
L 549.3798 729.320675 
L 550.55745 728.808365 
L 551.7351 729.836784 
L 552.91275 730.213795 
L 554.0904 731.77061 
L 555.26805 731.337389 
L 558.801 732.136767 
L 559.97865 731.51158 
L 561.1563 731.593569 
L 562.33395 731.273926 
L 563.5116 732.029546 
L 564.68925 729.894437 
L 565.8669 730.522242 
L 567.04455 730.214377 
L 568.2222 730.627189 
L 569.39985 730.174744 
L 570.5775 729.989534 
L 571.75515 728.949666 
L 572.9328 729.392898 
L 574.11045 729.66546 
L 575.2881 728.970431 
L 576.46575 729.373126 
L 577.6434 729.235619 
L 578.82105 729.438389 
L 579.9987 730.269576 
L 581.17635 730.134776 
L 582.354 729.691419 
L 583.53165 730.246508 
L 584.7093 729.620238 
L 585.88695 729.614425 
L 587.0646 728.741414 
L 588.24225 729.114605 
L 589.4199 729.367273 
L 590.59755 729.246211 
L 591.7752 729.472234 
L 592.95285 730.025195 
L 594.1305 729.991085 
L 595.30815 729.775494 
L 596.4858 729.17717 
L 597.66345 729.060764 
L 598.8411 729.673378 
L 600.01875 729.498309 
L 601.1964 730.321501 
L 602.37405 730.346995 
L 603.5517 730.084194 
L 604.72935 730.315896 
L 605.907 730.782712 
L 607.08465 730.747008 
L 608.2623 731.248252 
L 609.43995 731.105209 
L 610.6176 731.628952 
L 611.79525 731.133709 
L 612.9729 731.754218 
L 614.15055 731.122468 
L 615.3282 730.326833 
L 616.50585 730.068236 
L 618.86115 730.255767 
L 620.0388 729.477236 
L 621.21645 730.328563 
L 622.3941 729.932304 
L 623.57175 730.50638 
L 624.7494 729.391437 
L 627.1047 729.669666 
L 630.63765 730.061817 
L 631.8153 730.576051 
L 632.99295 730.872216 
L 634.1706 731.588813 
L 637.70355 731.731191 
L 638.8812 732.116177 
L 640.05885 732.116873 
L 641.2365 732.378056 
L 642.41415 732.071554 
L 643.5918 732.051026 
L 644.76945 732.437687 
L 645.9471 730.465864 
L 647.12475 729.88327 
L 650.6577 730.357026 
L 651.83535 730.614864 
L 653.013 730.602117 
L 654.19065 730.174206 
L 656.54595 730.976037 
L 657.7236 731.267501 
L 658.90125 730.997741 
L 660.0789 729.402826 
L 661.25655 729.510376 
L 662.4342 728.916778 
L 663.61185 728.856473 
L 664.7895 729.665831 
L 665.96715 729.160986 
L 667.1448 729.458424 
L 668.32245 729.164388 
L 669.5001 729.729009 
L 670.67775 729.711648 
L 671.8554 731.262453 
L 673.03305 731.950635 
L 674.2107 731.624686 
L 675.38835 731.716797 
L 676.566 729.909331 
L 680.09895 729.890218 
L 681.2766 730.434876 
L 682.45425 730.60735 
L 683.6319 730.43529 
L 684.80955 730.706722 
L 685.9872 730.676178 
L 687.16485 730.466038 
L 688.3425 730.893128 
L 689.52015 730.913081 
L 690.6978 730.749226 
L 691.87545 729.791078 
L 693.0531 729.636255 
L 694.23075 729.644019 
L 695.4084 730.158016 
L 696.58605 729.914643 
L 697.7637 731.668265 
L 698.94135 731.51212 
L 700.119 731.663071 
L 702.4743 731.579397 
L 703.65195 731.857721 
L 704.8296 731.921671 
L 706.00725 731.841121 
L 707.1849 730.347664 
L 708.36255 730.703821 
L 709.5402 730.214778 
L 710.71785 730.218427 
L 711.8955 728.683838 
L 714.2508 729.76231 
L 715.42845 729.693846 
L 716.6061 730.135481 
L 717.78375 730.07517 
L 718.9614 731.499366 
L 721.3167 731.086613 
L 722.49435 731.175116 
L 723.672 732.064142 
L 724.84965 731.732981 
L 726.0273 731.887817 
L 727.20495 731.015446 
L 728.3826 731.122135 
L 729.56025 730.222765 
L 730.7379 730.447565 
L 731.91555 731.438586 
L 733.0932 731.225 
L 734.27085 731.38816 
L 735.4485 731.052452 
L 736.62615 731.333782 
L 738.98145 730.257746 
L 740.1591 732.159782 
L 742.5144 731.966069 
L 743.69205 731.725397 
L 744.8697 730.699531 
L 746.04735 730.700973 
L 749.5803 729.754448 
L 750.75795 729.957229 
L 751.9356 730.798777 
L 753.11325 730.706913 
L 754.2909 731.013887 
L 755.46855 730.587498 
L 756.6462 729.883477 
L 757.82385 730.537471 
L 759.0015 731.013042 
L 760.17915 730.959225 
L 761.3568 731.206079 
L 762.53445 730.22692 
L 763.7121 730.771091 
L 764.88975 730.760049 
L 766.0674 730.067556 
L 767.24505 731.306547 
L 768.4227 731.139799 
L 769.60035 730.548956 
L 770.778 730.596553 
L 771.95565 730.391933 
L 773.1333 731.366506 
L 774.31095 731.399406 
L 775.4886 730.763604 
L 776.66625 731.056018 
L 777.8439 730.265643 
L 779.02155 731.487296 
L 780.1992 730.576531 
L 782.5545 730.072596 
L 783.73215 729.572256 
L 784.9098 729.705401 
L 786.08745 729.624269 
L 787.2651 729.248899 
L 788.44275 730.939233 
L 789.6204 731.556548 
L 790.79805 731.943218 
L 791.9757 731.650059 
L 793.15335 732.658239 
L 794.331 733.483813 
L 795.50865 732.832762 
L 796.6863 732.804731 
L 797.86395 732.928275 
L 799.0416 733.865489 
L 800.21925 733.357478 
L 801.3969 733.672157 
L 803.7522 733.210098 
L 804.92985 730.853483 
L 807.28515 731.436056 
L 808.4628 731.075315 
L 809.64045 730.079837 
L 810.8181 729.924125 
L 811.99575 730.124964 
L 813.1734 729.901015 
L 814.35105 730.542707 
L 815.5287 730.461777 
L 816.70635 732.3774 
L 817.884 732.037681 
L 819.06165 729.399925 
L 820.2393 729.238456 
L 821.41695 730.016948 
L 822.5946 731.070869 
L 823.77225 731.052507 
L 824.9499 731.918968 
L 826.12755 731.483489 
L 827.3052 732.559799 
L 828.48285 731.982264 
L 829.6605 732.034518 
L 830.83815 731.03196 
L 832.0158 729.692097 
L 835.54875 729.691263 
L 836.7264 730.244992 
L 837.90405 730.486868 
L 839.0817 730.517935 
L 840.25935 730.300772 
L 841.437 731.208104 
L 842.61465 731.17242 
L 843.7923 731.401322 
L 844.96995 730.69886 
L 846.1476 730.824492 
L 847.32525 731.316668 
L 848.5029 730.542991 
L 849.68055 730.868532 
L 850.8582 731.516342 
L 852.03585 731.572559 
L 854.39115 731.070289 
L 855.5688 731.310643 
L 856.74645 730.520233 
L 859.10175 730.839725 
L 861.45705 731.978127 
L 862.6347 732.406269 
L 863.81235 731.897061 
L 864.99 732.014971 
L 866.16765 731.473342 
L 867.3453 731.288669 
L 868.52295 731.325969 
L 869.7006 730.51365 
L 872.0559 729.661701 
L 873.23355 730.430498 
L 874.4112 730.758833 
L 875.58885 730.474774 
L 876.7665 731.167847 
L 877.94415 731.462549 
L 879.1218 732.071365 
L 880.29945 732.193625 
L 881.4771 732.189773 
L 882.65475 730.171297 
L 883.8324 729.905611 
L 885.01005 730.035278 
L 886.1877 729.524801 
L 887.36535 731.096678 
L 888.543 730.587857 
L 890.8983 730.365328 
L 892.07595 731.096423 
L 893.2536 730.850117 
L 894.43125 730.239422 
L 895.6089 730.274895 
L 896.78655 730.629484 
L 897.9642 730.381007 
L 899.14185 730.848794 
L 900.3195 730.636587 
L 901.49715 731.082339 
L 902.6748 729.416664 
L 903.85245 728.673991 
L 905.0301 728.356553 
L 906.20775 729.051239 
L 907.3854 728.715763 
L 908.56305 729.636688 
L 909.7407 730.214744 
L 910.91835 731.476745 
L 912.096 730.866828 
L 913.27365 730.931078 
L 914.4513 729.891829 
L 915.62895 730.326239 
L 916.8066 731.121 
L 917.98425 731.255229 
L 919.1619 731.099716 
L 920.33955 730.555474 
L 921.5172 730.880844 
L 922.69485 731.975784 
L 923.8725 732.405219 
L 925.05015 731.665788 
L 926.2278 731.305171 
L 927.40545 730.5952 
L 928.5831 730.77419 
L 929.76075 730.68793 
L 930.9384 729.837742 
L 932.11605 730.88314 
L 933.2937 730.547696 
L 934.47135 729.828885 
L 935.649 730.442735 
L 936.82665 730.820092 
L 938.0043 730.606641 
L 939.18195 730.150332 
L 940.3596 730.522572 
L 941.53725 730.5506 
L 942.7149 729.91108 
L 943.89255 729.843778 
L 945.0702 730.049825 
L 946.24785 730.577051 
L 947.4255 730.742901 
L 948.60315 730.134649 
L 950.95845 730.679497 
L 952.1361 730.863489 
L 953.31375 730.677968 
L 955.66905 729.432779 
L 956.8467 730.301698 
L 958.02435 730.554205 
L 959.202 730.996142 
L 960.37965 730.211059 
L 961.5573 730.949396 
L 962.73495 730.958515 
L 963.9126 729.09487 
L 965.09025 729.595281 
L 966.2679 729.092759 
L 967.44555 730.29467 
L 968.6232 731.261745 
L 969.80085 730.444497 
L 970.9785 730.898018 
L 972.15615 731.814835 
L 973.3338 730.776554 
L 974.51145 731.126799 
L 975.6891 730.584323 
L 976.86675 730.354083 
L 978.0444 730.380683 
L 979.22205 730.686633 
L 980.3997 730.13897 
L 981.57735 729.170001 
L 982.755 730.203488 
L 983.93265 730.096737 
L 985.1103 730.351613 
L 986.28795 730.094964 
L 987.4656 730.143827 
L 988.64325 730.700405 
L 989.8209 728.952882 
L 990.99855 729.929455 
L 992.1762 730.539578 
L 993.35385 730.630358 
L 994.5315 731.079696 
L 995.70915 730.951852 
L 996.8868 730.510779 
L 998.06445 730.820195 
L 999.2421 730.411327 
L 1000.41975 730.364481 
L 1001.5974 729.86259 
L 1003.9527 730.052296 
L 1005.13035 730.161172 
L 1006.308 729.872854 
L 1007.48565 730.702598 
L 1008.6633 730.917234 
L 1009.84095 730.820055 
L 1011.0186 730.57808 
L 1012.19625 729.159965 
L 1013.3739 729.855708 
L 1014.55155 729.359148 
L 1015.7292 729.020345 
L 1016.90685 728.797771 
L 1018.0845 727.674576 
L 1019.26215 728.60026 
L 1020.4398 729.895071 
L 1021.61745 730.581677 
L 1022.7951 732.131492 
L 1023.97275 732.204036 
L 1025.1504 731.570788 
L 1026.32805 731.195325 
L 1027.5057 731.598785 
L 1028.68335 730.99491 
L 1029.861 730.646247 
L 1031.03865 730.971627 
L 1032.2163 730.481795 
L 1033.39395 729.627571 
L 1034.5716 729.580793 
L 1035.74925 730.439842 
L 1039.2822 731.281563 
L 1040.45985 731.233161 
L 1041.6375 732.013885 
L 1042.81515 731.602678 
L 1043.9928 730.082886 
L 1045.17045 730.671574 
L 1046.3481 730.82828 
L 1047.52575 730.574559 
L 1048.7034 730.651955 
L 1049.88105 729.359473 
L 1051.0587 729.015293 
L 1052.23635 730.119026 
L 1053.414 730.71668 
L 1055.7693 730.612968 
L 1056.94695 729.963194 
L 1059.30225 728.21073 
L 1061.65755 728.19378 
L 1062.8352 728.574911 
L 1064.01285 728.586647 
L 1065.1905 729.258297 
L 1066.36815 730.179185 
L 1067.5458 730.601626 
L 1068.72345 731.300663 
L 1069.9011 730.642011 
L 1071.07875 731.394851 
L 1072.2564 731.220115 
L 1073.43405 732.063531 
L 1074.6117 730.933433 
L 1075.78935 731.004056 
L 1076.967 730.514365 
L 1078.14465 729.873981 
L 1079.3223 729.833067 
L 1081.6776 729.459477 
L 1082.85525 729.374226 
L 1084.0329 730.366727 
L 1085.21055 729.829597 
L 1087.56585 730.053061 
L 1088.7435 731.023255 
L 1089.92115 730.081849 
L 1091.0988 730.656725 
L 1092.27645 730.763438 
L 1093.4541 731.00733 
L 1094.63175 729.815414 
L 1095.8094 730.052092 
L 1096.98705 730.170381 
L 1098.1647 730.165575 
L 1099.34235 729.618737 
L 1100.52 730.61586 
L 1101.69765 730.998664 
L 1102.8753 730.991715 
L 1104.05295 730.161339 
L 1105.2306 729.659589 
L 1106.40825 730.810306 
L 1108.76355 730.651672 
L 1111.11885 730.29724 
L 1112.2965 730.884331 
L 1113.47415 731.103232 
L 1115.82945 729.781552 
L 1117.0071 730.490463 
L 1118.18475 730.368632 
L 1121.7177 731.932364 
L 1122.89535 731.543061 
L 1124.073 731.286774 
L 1125.25065 731.712306 
L 1126.4283 731.95313 
L 1127.60595 730.959891 
L 1128.7836 731.481228 
L 1129.96125 732.541719 
L 1131.1389 731.557887 
L 1132.31655 732.106309 
L 1133.4942 730.813637 
L 1134.67185 731.66016 
L 1135.8495 731.339918 
L 1137.02715 731.55943 
L 1138.2048 732.173691 
L 1139.38245 732.30168 
L 1141.73775 731.873545 
L 1142.9154 731.006905 
L 1145.2707 731.222681 
L 1146.44835 730.248334 
L 1147.626 730.135955 
L 1148.80365 730.839553 
L 1149.9813 730.526994 
L 1151.15895 730.969797 
L 1152.3366 730.244064 
L 1154.6919 730.431168 
L 1155.86955 730.25718 
L 1157.0472 729.52393 
L 1158.22485 730.357088 
L 1159.4025 730.198616 
L 1160.58015 731.458437 
L 1161.7578 730.878678 
L 1162.93545 730.658374 
L 1164.1131 730.313682 
L 1165.29075 730.287797 
L 1166.4684 730.790136 
L 1167.64605 730.123261 
L 1168.8237 729.615284 
L 1170.00135 729.945269 
L 1171.179 730.439067 
L 1172.35665 730.569648 
L 1173.5343 731.849797 
L 1174.71195 731.266023 
L 1175.8896 731.294924 
L 1177.06725 731.502645 
L 1178.2449 731.004076 
L 1179.42255 731.050771 
L 1182.9555 732.229116 
L 1184.13315 731.562129 
L 1185.3108 731.319528 
L 1187.6661 729.612032 
L 1188.84375 729.566089 
L 1190.0214 730.207093 
L 1191.19905 730.110522 
L 1192.3767 730.353987 
L 1193.55435 731.184836 
L 1194.732 729.966259 
L 1195.90965 729.226006 
L 1197.0873 729.67105 
L 1198.26495 730.417697 
L 1199.4426 730.668369 
L 1200.62025 730.38723 
L 1201.7979 730.513503 
L 1202.97555 729.02723 
L 1204.1532 729.219367 
L 1205.33085 729.247919 
L 1206.5085 729.947426 
L 1207.68615 731.543915 
L 1208.8638 731.484806 
L 1210.04145 730.524919 
L 1211.2191 730.093294 
L 1213.5744 731.163704 
L 1215.9297 731.28965 
L 1217.10735 731.933714 
L 1219.46265 731.340448 
L 1220.6403 730.510513 
L 1221.81795 732.586103 
L 1224.17325 732.706506 
L 1225.3509 729.921598 
L 1226.52855 729.451562 
L 1227.7062 729.541611 
L 1228.88385 729.24836 
L 1230.0615 728.705476 
L 1231.23915 728.927463 
L 1232.4168 729.367556 
L 1233.59445 730.830633 
L 1234.7721 730.369893 
L 1235.94975 729.051213 
L 1237.1274 729.424519 
L 1238.30505 730.575566 
L 1239.4827 730.6963 
L 1240.66035 731.77764 
L 1241.838 731.982181 
L 1243.01565 731.563149 
L 1244.1933 731.440327 
L 1245.37095 730.731099 
L 1246.5486 730.815826 
L 1247.72625 729.717806 
L 1250.08155 729.505566 
L 1251.2592 729.399227 
L 1252.43685 730.011392 
L 1254.79215 729.191868 
L 1255.9698 729.316232 
L 1258.3251 729.249317 
L 1260.6804 729.642319 
L 1261.85805 730.676947 
L 1263.0357 730.99704 
L 1264.21335 730.869668 
L 1266.56865 730.417036 
L 1268.92395 730.382896 
L 1270.1016 730.712112 
L 1271.27925 730.107991 
L 1272.4569 730.109024 
L 1273.63455 728.152621 
L 1274.8122 728.055286 
L 1275.98985 727.401586 
L 1277.1675 727.655885 
L 1278.34515 729.393647 
L 1281.8781 729.271214 
L 1283.05575 729.524875 
L 1284.2334 729.446229 
L 1285.41105 729.523273 
L 1286.5887 729.446695 
L 1287.76635 728.8292 
L 1288.944 728.790522 
L 1290.12165 730.486567 
L 1291.2993 730.444917 
L 1292.47695 729.56845 
L 1293.6546 729.601622 
L 1294.83225 729.324401 
L 1296.0099 729.339466 
L 1297.18755 729.185289 
L 1298.3652 729.225714 
L 1299.54285 728.473809 
L 1300.7205 728.50908 
L 1301.89815 728.996598 
L 1303.0758 728.992285 
L 1304.25345 729.841593 
L 1305.4311 729.846192 
L 1306.60875 729.397657 
L 1307.7864 729.420755 
L 1308.96405 729.917585 
L 1310.1417 729.865868 
L 1311.31935 728.809029 
L 1312.497 728.798451 
L 1313.67465 728.429441 
L 1314.8523 728.479428 
L 1316.02995 729.469248 
L 1317.2076 729.482047 
L 1318.38525 730.770568 
L 1319.5629 730.766011 
L 1320.74055 729.799154 
L 1321.9182 729.818605 
L 1323.09585 729.725565 
L 1324.2735 729.801664 
L 1325.45115 729.258074 
L 1326.6288 728.932961 
L 1327.80645 728.316034 
L 1328.9841 728.088821 
L 1331.3394 728.105935 
L 1332.51705 728.205873 
L 1333.6947 727.962562 
L 1334.87235 728.513589 
L 1336.05 727.727264 
L 1336.05 727.727264 
" style="fill:none;stroke:#0000ff;stroke-linecap:square;stroke-width:2.0;"/>
   </g>
   <g id="line2d_2">
    <path clip-path="url(#p45530462c8)" d="M 159.57765 58.811816 
L 160.7553 58.820563 
L 161.93295 58.969243 
L 163.1106 58.966461 
L 164.28825 75.419653 
L 165.4659 76.225509 
L 166.64355 77.417867 
L 167.8212 77.56696 
L 168.99885 88.367035 
L 170.1765 90.460214 
L 171.35415 95.103091 
L 172.5318 95.150215 
L 173.70945 100.574221 
L 174.8871 102.09823 
L 176.06475 109.33748 
L 177.2424 109.656532 
L 178.42005 111.63958 
L 179.5977 112.702345 
L 180.77535 125.370772 
L 181.953 124.988379 
L 183.13065 125.303836 
L 184.3083 125.375816 
L 185.48595 137.258503 
L 187.84125 138.09315 
L 189.0189 138.226079 
L 190.19655 148.069332 
L 191.3742 150.793405 
L 192.55185 155.90513 
L 193.7295 156.017733 
L 194.90715 159.296039 
L 196.0848 161.403266 
L 197.26245 168.313279 
L 198.4401 168.234854 
L 199.61775 169.343905 
L 200.7954 170.171138 
L 201.97305 182.58236 
L 203.1507 182.916567 
L 204.32835 182.817134 
L 205.506 183.163843 
L 206.68365 193.229143 
L 207.8613 195.414231 
L 210.2166 197.34332 
L 211.39425 203.555041 
L 212.5719 206.862926 
L 213.74955 212.648834 
L 214.9272 213.058642 
L 216.10485 214.757702 
L 217.2825 216.059592 
L 218.46015 226.458363 
L 219.6378 226.218206 
L 220.81545 226.681259 
L 221.9931 226.46102 
L 223.17075 237.255328 
L 224.3484 238.321839 
L 225.52605 239.566884 
L 226.7037 239.736201 
L 227.88135 247.792453 
L 229.059 249.038879 
L 230.23665 254.286674 
L 231.4143 254.395042 
L 232.59195 258.699428 
L 233.7696 260.623174 
L 234.94725 271.679907 
L 236.1249 271.675603 
L 237.30255 272.379323 
L 238.4802 272.576807 
L 239.65785 287.00875 
L 240.8355 287.461259 
L 243.1908 287.55933 
L 244.36845 299.614453 
L 245.5461 300.762042 
L 246.72375 302.965275 
L 247.9014 303.560788 
L 249.07905 311.395607 
L 250.2567 313.914911 
L 251.43435 320.087268 
L 252.612 320.556513 
L 254.9673 326.394511 
L 256.14495 336.693382 
L 257.3226 336.528301 
L 259.6779 337.235117 
L 260.85555 350.145357 
L 262.0332 351.551733 
L 264.3885 352.280509 
L 265.56615 358.483735 
L 267.92145 366.219534 
L 269.0991 366.947224 
L 271.4544 373.653889 
L 272.63205 381.789327 
L 273.8097 381.989466 
L 276.165 382.984478 
L 277.34265 394.74548 
L 279.69795 395.609429 
L 280.8756 395.841675 
L 282.05325 403.86801 
L 283.2309 407.207375 
L 284.40855 409.669847 
L 285.5862 409.611261 
L 286.76385 415.72941 
L 287.9415 419.485861 
L 289.11915 427.47436 
L 290.2968 427.520496 
L 291.47445 429.217831 
L 292.6521 431.408333 
L 293.82975 443.911368 
L 295.0074 444.348943 
L 296.18505 444.083248 
L 297.3627 444.328456 
L 298.54035 457.593487 
L 299.718 460.780175 
L 300.89565 463.119785 
L 302.0733 463.103217 
L 303.25095 469.212934 
L 304.4286 472.459247 
L 305.60625 480.292091 
L 306.7839 480.614279 
L 307.96155 483.191329 
L 309.1392 485.354034 
L 310.31685 497.521943 
L 311.4945 497.478669 
L 313.8498 497.758244 
L 315.02745 510.82004 
L 316.2051 511.340876 
L 317.38275 512.357589 
L 318.5604 512.323847 
L 319.73805 520.880323 
L 320.9157 523.707659 
L 322.09335 527.850572 
L 323.271 527.844123 
L 324.44865 532.596051 
L 325.6263 535.214731 
L 326.80395 543.533597 
L 327.9816 543.54855 
L 329.15925 544.175653 
L 330.3369 545.095484 
L 331.51455 559.16991 
L 332.6922 559.331163 
L 333.86985 559.186391 
L 335.0475 559.224837 
L 336.22515 571.586621 
L 337.4028 572.981353 
L 338.58045 574.729342 
L 339.7581 574.741151 
L 340.93575 580.821546 
L 342.1134 584.19575 
L 343.29105 588.795402 
L 344.4687 588.928399 
L 345.64635 591.940824 
L 346.824 594.271213 
L 348.00165 605.752 
L 350.35695 606.079762 
L 351.5346 606.302747 
L 352.71225 619.448762 
L 355.06755 619.618288 
L 356.2452 619.830031 
L 357.42285 631.30409 
L 358.6005 631.781409 
L 359.77815 633.563535 
L 360.9558 633.608295 
L 362.13345 643.326013 
L 363.3111 645.023123 
L 364.48875 650.058524 
L 365.6664 650.52713 
L 366.84405 654.826776 
L 368.0217 656.903499 
L 369.19935 664.190752 
L 370.377 664.357598 
L 371.55465 666.576157 
L 372.7323 667.621845 
L 373.90995 678.811113 
L 376.26525 678.788908 
L 377.4429 678.991245 
L 378.62055 690.574809 
L 379.7982 691.16846 
L 380.97585 692.055471 
L 382.1535 692.057829 
L 383.33115 698.567441 
L 385.68645 704.927595 
L 386.8641 704.943521 
L 388.04175 709.665777 
L 389.2194 712.279728 
L 390.39705 716.495812 
L 391.5747 716.918967 
L 393.93 718.18151 
L 395.10765 723.692943 
L 396.2853 723.496163 
L 397.46295 723.706112 
L 398.6406 723.597327 
L 399.81825 728.677783 
L 400.9959 729.363574 
L 402.17355 729.394153 
L 405.7065 728.83399 
L 406.88415 729.560956 
L 408.0618 729.61345 
L 409.23945 729.917272 
L 410.4171 729.15706 
L 411.59475 729.727921 
L 413.95005 729.300456 
L 415.1277 728.894102 
L 416.30535 730.322186 
L 418.66065 730.378553 
L 419.8383 730.359366 
L 421.01595 729.661064 
L 422.1936 729.14548 
L 423.37125 729.62482 
L 424.5489 729.622523 
L 425.72655 730.048114 
L 426.9042 729.413263 
L 428.08185 730.877656 
L 429.2595 731.218981 
L 430.43715 731.026244 
L 431.6148 731.820568 
L 432.79245 730.303253 
L 433.9701 730.474325 
L 435.14775 731.171822 
L 436.3254 731.176959 
L 437.50305 730.017263 
L 438.6807 729.827895 
L 439.85835 730.696023 
L 441.036 730.687838 
L 442.21365 731.026371 
L 444.56895 730.808717 
L 446.92425 731.023492 
L 448.1019 731.452249 
L 449.27955 730.218225 
L 450.4572 729.748957 
L 451.63485 730.357658 
L 452.8125 730.158114 
L 453.99015 729.433174 
L 455.1678 730.959433 
L 456.34545 729.732034 
L 457.5231 730.108611 
L 458.70075 729.824272 
L 459.8784 729.672854 
L 461.05605 730.338451 
L 462.2337 730.370212 
L 463.41135 730.565277 
L 465.76665 730.410882 
L 466.9443 731.049382 
L 468.12195 731.376938 
L 469.2996 731.309435 
L 470.47725 730.647988 
L 471.6549 729.840528 
L 472.83255 730.00795 
L 474.0102 730.000076 
L 475.18785 730.174429 
L 476.3655 731.820282 
L 477.54315 730.665122 
L 478.7208 731.428229 
L 483.4314 731.841185 
L 485.7867 731.604269 
L 486.96435 730.670052 
L 488.142 730.616351 
L 489.31965 729.851979 
L 490.4973 730.033725 
L 491.67495 729.864381 
L 492.8526 730.154493 
L 494.03025 730.922541 
L 496.38555 730.784766 
L 497.5632 730.998297 
L 498.74085 732.692849 
L 499.9185 731.58098 
L 501.09615 731.394445 
L 502.2738 731.431048 
L 503.45145 730.571108 
L 504.6291 730.756149 
L 505.80675 731.068664 
L 506.9844 731.045028 
L 508.16205 730.818121 
L 509.3397 731.373496 
L 510.51735 731.141605 
L 511.695 730.599789 
L 514.0503 730.072017 
L 515.22795 732.152233 
L 516.4056 731.398126 
L 517.58325 731.461738 
L 518.7609 731.075292 
L 519.93855 730.410703 
L 521.1162 732.17733 
L 522.29385 732.226015 
L 523.4715 732.162486 
L 524.64915 731.942232 
L 525.8268 732.347621 
L 527.00445 730.769058 
L 528.1821 730.447477 
L 529.35975 730.45511 
L 530.5374 729.306358 
L 531.71505 729.522504 
L 532.8927 728.869173 
L 534.07035 729.267045 
L 535.248 729.465714 
L 536.42565 729.916197 
L 537.6033 729.166357 
L 538.78095 729.753465 
L 541.13625 729.753183 
L 542.3139 730.46726 
L 543.49155 730.604005 
L 544.6692 730.453828 
L 545.84685 730.41987 
L 547.0245 730.105492 
L 548.20215 728.108745 
L 549.3798 729.340825 
L 550.55745 729.130404 
L 552.91275 729.48846 
L 554.0904 729.062097 
L 555.26805 729.287129 
L 556.4457 728.862614 
L 557.62335 729.161812 
L 558.801 728.900571 
L 561.1563 730.287994 
L 562.33395 730.253077 
L 563.5116 730.096608 
L 564.68925 729.771451 
L 565.8669 730.872395 
L 567.04455 729.93234 
L 568.2222 729.665841 
L 569.39985 729.781381 
L 570.5775 729.254695 
L 571.75515 729.734221 
L 572.9328 729.769125 
L 574.11045 729.438255 
L 575.2881 728.605982 
L 576.46575 730.412217 
L 581.17635 730.175897 
L 582.354 730.435691 
L 583.53165 730.149391 
L 584.7093 730.642046 
L 585.88695 730.68866 
L 587.0646 730.384843 
L 588.24225 730.79033 
L 589.4199 730.792609 
L 590.59755 729.645132 
L 592.95285 730.9505 
L 594.1305 730.434623 
L 595.30815 729.552383 
L 596.4858 729.631637 
L 597.66345 728.674021 
L 598.8411 728.504608 
L 600.01875 729.515027 
L 601.1964 729.14008 
L 602.37405 730.259075 
L 603.5517 730.145185 
L 604.72935 729.721243 
L 605.907 729.456188 
L 608.2623 729.421587 
L 609.43995 729.744746 
L 610.6176 729.741907 
L 611.79525 729.572111 
L 612.9729 728.726235 
L 614.15055 729.204726 
L 615.3282 728.92598 
L 616.50585 730.804945 
L 617.6835 731.280273 
L 618.86115 729.640847 
L 620.0388 729.546745 
L 621.21645 729.982185 
L 622.3941 729.439405 
L 623.57175 730.817165 
L 624.7494 730.608593 
L 627.1047 730.592247 
L 628.28235 730.215795 
L 630.63765 730.618137 
L 631.8153 730.212308 
L 632.99295 730.152826 
L 634.1706 731.46557 
L 635.34825 731.414958 
L 636.5259 731.79571 
L 637.70355 731.254896 
L 638.8812 731.731264 
L 640.05885 730.19457 
L 641.2365 729.920855 
L 643.5918 729.893305 
L 644.76945 731.024445 
L 645.9471 730.730271 
L 647.12475 731.196568 
L 648.3024 730.929144 
L 649.48005 731.439425 
L 650.6577 729.972037 
L 651.83535 730.49236 
L 653.013 729.983432 
L 654.19065 730.225313 
L 655.3683 729.35305 
L 656.54595 729.451699 
L 657.7236 730.030084 
L 658.90125 730.082594 
L 660.0789 730.020918 
L 661.25655 730.3178 
L 662.4342 731.23669 
L 663.61185 730.755319 
L 664.7895 730.891425 
L 665.96715 730.858913 
L 667.1448 730.677654 
L 668.32245 729.688221 
L 669.5001 729.890169 
L 671.8554 731.061685 
L 674.2107 730.49471 
L 675.38835 730.950143 
L 676.566 730.071585 
L 677.74365 729.953898 
L 678.9213 731.321719 
L 680.09895 731.195029 
L 681.2766 731.271923 
L 682.45425 731.02119 
L 683.6319 730.936002 
L 685.9872 731.452211 
L 687.16485 731.256926 
L 688.3425 731.808254 
L 689.52015 732.142619 
L 690.6978 731.91946 
L 691.87545 731.530742 
L 693.0531 729.928726 
L 694.23075 729.977856 
L 695.4084 730.497258 
L 696.58605 730.390377 
L 697.7637 729.681735 
L 698.94135 730.158689 
L 700.119 729.994007 
L 701.29665 729.674451 
L 702.4743 730.321412 
L 703.65195 730.456126 
L 704.8296 730.969055 
L 706.00725 730.682569 
L 707.1849 730.717934 
L 708.36255 730.575342 
L 709.5402 729.83837 
L 710.71785 729.791774 
L 711.8955 730.12938 
L 713.07315 730.128478 
L 714.2508 730.478223 
L 715.42845 730.610341 
L 716.6061 730.864019 
L 717.78375 730.862958 
L 718.9614 731.076218 
L 720.13905 731.600055 
L 722.49435 731.652363 
L 723.672 731.991608 
L 724.84965 731.438735 
L 726.0273 730.201157 
L 727.20495 730.441832 
L 728.3826 730.29157 
L 729.56025 731.284778 
L 730.7379 730.141844 
L 731.91555 730.330099 
L 733.0932 730.126043 
L 734.27085 730.398033 
L 735.4485 729.547933 
L 736.62615 729.97268 
L 737.8038 729.317454 
L 738.98145 730.344983 
L 740.1591 730.669113 
L 741.33675 730.380621 
L 742.5144 730.467559 
L 743.69205 729.894385 
L 746.04735 730.07709 
L 747.225 729.154949 
L 748.40265 729.596087 
L 749.5803 729.173426 
L 750.75795 729.238731 
L 751.9356 730.245528 
L 753.11325 730.119769 
L 754.2909 731.389323 
L 755.46855 731.856307 
L 756.6462 731.847499 
L 759.0015 728.119836 
L 761.3568 728.263898 
L 762.53445 728.05886 
L 763.7121 731.176442 
L 764.88975 731.238184 
L 767.24505 731.146916 
L 769.60035 728.933193 
L 770.778 728.866802 
L 771.95565 728.939728 
L 774.31095 729.563693 
L 775.4886 729.343156 
L 777.8439 729.28348 
L 779.02155 730.743849 
L 780.1992 730.908665 
L 782.5545 731.486424 
L 784.9098 730.634226 
L 787.2651 731.177798 
L 788.44275 730.732768 
L 789.6204 731.142698 
L 790.79805 730.809821 
L 791.9757 732.302378 
L 793.15335 732.051632 
L 795.50865 731.278077 
L 796.6863 731.418826 
L 797.86395 730.781283 
L 799.0416 731.105172 
L 800.21925 730.431018 
L 801.3969 730.585139 
L 802.57455 728.88097 
L 803.7522 729.021596 
L 804.92985 729.021505 
L 806.1075 728.766574 
L 807.28515 731.519019 
L 809.64045 731.747599 
L 810.8181 731.732588 
L 811.99575 732.087663 
L 813.1734 732.031555 
L 814.35105 731.120513 
L 815.5287 731.303664 
L 816.70635 731.682666 
L 817.884 731.328317 
L 819.06165 729.412172 
L 820.2393 729.373253 
L 821.41695 730.233144 
L 822.5946 729.942676 
L 823.77225 730.464993 
L 824.9499 730.780333 
L 826.12755 730.489362 
L 827.3052 730.564152 
L 828.48285 729.841372 
L 830.83815 729.730752 
L 832.0158 729.826249 
L 833.19345 730.908734 
L 834.3711 730.752778 
L 835.54875 730.982323 
L 836.7264 730.403644 
L 837.90405 731.422938 
L 839.0817 730.771903 
L 840.25935 729.968116 
L 841.437 730.090681 
L 842.61465 729.452031 
L 843.7923 729.193671 
L 844.96995 729.461609 
L 846.1476 729.844535 
L 847.32525 729.699951 
L 848.5029 730.11302 
L 849.68055 731.754869 
L 850.8582 731.455057 
L 852.03585 731.860255 
L 853.2135 731.374044 
L 854.39115 730.007022 
L 855.5688 730.453186 
L 856.74645 730.249678 
L 859.10175 730.532242 
L 861.45705 729.979975 
L 862.6347 730.059231 
L 863.81235 730.912233 
L 864.99 730.738858 
L 866.16765 731.452183 
L 868.52295 730.809367 
L 869.7006 731.139483 
L 870.87825 730.310494 
L 872.0559 730.472029 
L 873.23355 730.81093 
L 874.4112 730.835935 
L 875.58885 732.0254 
L 876.7665 732.242741 
L 877.94415 731.43479 
L 879.1218 730.981163 
L 880.29945 731.580747 
L 881.4771 731.560155 
L 882.65475 731.219185 
L 883.8324 731.150037 
L 885.01005 730.604153 
L 886.1877 730.672048 
L 887.36535 730.913011 
L 888.543 730.902884 
L 889.72065 729.937656 
L 890.8983 729.374268 
L 892.07595 729.123855 
L 893.2536 729.075298 
L 894.43125 730.012313 
L 895.6089 730.772828 
L 896.78655 730.095309 
L 897.9642 730.170348 
L 899.14185 730.928705 
L 900.3195 731.083327 
L 901.49715 729.253732 
L 902.6748 729.332486 
L 903.85245 729.290311 
L 905.0301 729.411679 
L 906.20775 730.784258 
L 908.56305 730.623016 
L 909.7407 730.67877 
L 910.91835 730.331397 
L 915.62895 730.188699 
L 916.8066 730.773138 
L 917.98425 730.208876 
L 919.1619 729.836889 
L 920.33955 732.505332 
L 921.5172 731.821694 
L 922.69485 730.363294 
L 925.05015 731.175089 
L 926.2278 730.558629 
L 928.5831 730.249186 
L 929.76075 728.674933 
L 930.9384 727.926282 
L 932.11605 729.980323 
L 933.2937 729.824639 
L 935.649 729.350476 
L 936.82665 728.261784 
L 938.0043 728.151126 
L 939.18195 728.336716 
L 940.3596 728.164434 
L 941.53725 730.126693 
L 942.7149 730.109817 
L 943.89255 729.655829 
L 945.0702 729.668829 
L 946.24785 729.954214 
L 947.4255 730.776064 
L 949.7808 730.750512 
L 952.1361 731.983684 
L 953.31375 731.573461 
L 955.66905 731.580828 
L 956.8467 731.487911 
L 958.02435 731.079472 
L 959.202 731.253672 
L 960.37965 731.019537 
L 961.5573 730.936435 
L 962.73495 729.539724 
L 963.9126 730.144362 
L 965.09025 730.076023 
L 966.2679 730.342814 
L 967.44555 730.933455 
L 968.6232 731.333285 
L 969.80085 730.600231 
L 970.9785 730.247985 
L 972.15615 730.011793 
L 973.3338 728.506691 
L 974.51145 728.397792 
L 975.6891 728.538668 
L 978.0444 729.633545 
L 979.22205 728.336968 
L 980.3997 727.841939 
L 981.57735 728.322127 
L 982.755 728.292946 
L 983.93265 731.718336 
L 985.1103 731.49274 
L 986.28795 731.753354 
L 987.4656 731.745635 
L 988.64325 732.381756 
L 989.8209 731.425806 
L 990.99855 731.322566 
L 992.1762 731.920538 
L 993.35385 731.159197 
L 994.5315 729.661348 
L 995.70915 730.835517 
L 996.8868 730.317495 
L 999.2421 730.750032 
L 1000.41975 730.059264 
L 1001.5974 729.78035 
L 1002.77505 729.769193 
L 1003.9527 730.081514 
L 1005.13035 729.301457 
L 1006.308 729.44375 
L 1007.48565 730.117371 
L 1008.6633 729.978149 
L 1009.84095 730.008669 
L 1012.19625 731.758899 
L 1013.3739 731.514026 
L 1015.7292 731.444248 
L 1016.90685 730.030782 
L 1018.0845 731.957528 
L 1019.26215 731.811114 
L 1020.4398 731.897267 
L 1021.61745 731.264862 
L 1022.7951 733.12175 
L 1023.97275 732.264762 
L 1025.1504 731.208753 
L 1026.32805 730.952934 
L 1027.5057 731.083029 
L 1028.68335 730.518968 
L 1029.861 729.458532 
L 1031.03865 729.77191 
L 1032.2163 729.607348 
L 1033.39395 730.295452 
L 1034.5716 729.773015 
L 1035.74925 730.121422 
L 1036.9269 729.766774 
L 1038.10455 729.841734 
L 1039.2822 731.691886 
L 1040.45985 731.486345 
L 1041.6375 730.985845 
L 1042.81515 730.908276 
L 1043.9928 733.121908 
L 1045.17045 733.438411 
L 1046.3481 732.18083 
L 1047.52575 732.19233 
L 1048.7034 730.454717 
L 1049.88105 729.987923 
L 1051.0587 729.064145 
L 1052.23635 729.261295 
L 1053.414 729.193258 
L 1054.59165 729.308514 
L 1055.7693 731.015194 
L 1059.30225 731.19832 
L 1060.4799 730.758541 
L 1064.01285 731.03016 
L 1065.1905 731.504304 
L 1066.36815 731.608931 
L 1067.5458 729.750786 
L 1068.72345 729.799343 
L 1069.9011 729.452837 
L 1071.07875 729.37738 
L 1072.2564 730.645975 
L 1073.43405 730.696985 
L 1074.6117 730.203655 
L 1075.78935 730.28483 
L 1076.967 729.552932 
L 1078.14465 729.560014 
L 1079.3223 729.837603 
L 1080.49995 730.399812 
L 1081.6776 729.274372 
L 1082.85525 729.130977 
L 1085.21055 729.190067 
L 1086.3882 730.200743 
L 1087.56585 730.146269 
L 1088.7435 730.221086 
L 1089.92115 730.125606 
L 1091.0988 731.0886 
L 1092.27645 730.554983 
L 1094.63175 731.175657 
L 1095.8094 730.926383 
L 1096.98705 731.321909 
L 1098.1647 730.942944 
L 1099.34235 730.94152 
L 1100.52 731.269671 
L 1101.69765 730.578889 
L 1102.8753 730.627991 
L 1104.05295 730.166406 
L 1105.2306 730.688753 
L 1106.40825 730.077752 
L 1109.9412 729.905611 
L 1111.11885 730.030232 
L 1112.2965 731.072803 
L 1113.47415 730.89547 
L 1114.6518 730.438122 
L 1115.82945 730.431211 
L 1117.0071 730.613369 
L 1118.18475 730.386562 
L 1119.3624 731.357021 
L 1120.54005 730.144893 
L 1121.7177 730.401687 
L 1122.89535 730.450865 
L 1124.073 730.254893 
L 1125.25065 729.497776 
L 1126.4283 729.446823 
L 1128.7836 728.965308 
L 1129.96125 731.298465 
L 1131.1389 730.844522 
L 1132.31655 730.170206 
L 1133.4942 729.922409 
L 1134.67185 730.703814 
L 1135.8495 729.439116 
L 1138.2048 729.483504 
L 1140.5601 729.487128 
L 1141.73775 729.920159 
L 1142.9154 729.515004 
L 1144.09305 729.686479 
L 1145.2707 729.485738 
L 1146.44835 730.336436 
L 1147.626 729.711989 
L 1148.80365 730.380417 
L 1149.9813 730.382254 
L 1151.15895 731.083645 
L 1152.3366 730.664319 
L 1153.51425 729.580581 
L 1154.6919 728.980522 
L 1155.86955 730.038857 
L 1157.0472 730.008679 
L 1158.22485 730.39893 
L 1159.4025 730.355454 
L 1160.58015 730.597244 
L 1161.7578 730.56248 
L 1162.93545 731.382412 
L 1164.1131 731.26723 
L 1165.29075 731.563274 
L 1166.4684 731.377098 
L 1167.64605 731.694701 
L 1168.8237 730.731229 
L 1170.00135 731.453482 
L 1172.35665 730.085036 
L 1173.5343 730.793336 
L 1174.71195 730.757194 
L 1175.8896 730.532876 
L 1177.06725 731.5948 
L 1178.2449 730.651466 
L 1179.42255 731.202026 
L 1180.6002 730.972498 
L 1181.77785 730.960529 
L 1182.9555 731.257488 
L 1184.13315 730.649972 
L 1185.3108 730.916206 
L 1186.48845 730.886213 
L 1187.6661 730.582436 
L 1188.84375 730.0255 
L 1190.0214 731.331567 
L 1192.3767 730.261724 
L 1193.55435 730.374451 
L 1194.732 730.350044 
L 1195.90965 732.246409 
L 1197.0873 732.330027 
L 1198.26495 731.959045 
L 1199.4426 730.70736 
L 1200.62025 731.37794 
L 1201.7979 731.525787 
L 1202.97555 731.485914 
L 1204.1532 731.274594 
L 1205.33085 730.46801 
L 1206.5085 731.200537 
L 1207.68615 729.003448 
L 1208.8638 728.635718 
L 1210.04145 728.773008 
L 1211.2191 728.689917 
L 1212.39675 730.070459 
L 1213.5744 730.048998 
L 1214.75205 730.18913 
L 1218.285 730.151568 
L 1219.46265 729.829254 
L 1220.6403 729.823846 
L 1221.81795 730.209724 
L 1222.9956 730.219742 
L 1224.17325 729.845277 
L 1225.3509 729.925261 
L 1226.52855 730.148035 
L 1227.7062 730.164743 
L 1228.88385 729.936076 
L 1230.0615 729.955687 
L 1231.23915 728.469659 
L 1234.7721 728.438988 
L 1235.94975 728.281613 
L 1237.1274 728.289684 
L 1238.30505 728.49708 
L 1239.4827 728.495594 
L 1240.66035 729.09863 
L 1241.838 729.141556 
L 1243.01565 730.453772 
L 1244.1933 730.490204 
L 1245.37095 728.726543 
L 1246.5486 728.723759 
L 1247.72625 729.986001 
L 1248.9039 729.972524 
L 1250.08155 729.174849 
L 1251.2592 729.174849 
L 1252.43685 728.862493 
L 1253.6145 728.862493 
L 1254.79215 729.104118 
L 1258.3251 729.117696 
L 1259.50275 729.729628 
L 1260.6804 729.731439 
L 1261.85805 729.533692 
L 1265.391 729.604881 
L 1266.56865 730.738741 
L 1267.7463 730.736639 
L 1268.92395 730.50069 
L 1272.4569 730.631771 
L 1273.63455 730.281404 
L 1274.8122 730.283903 
L 1275.98985 728.847366 
L 1277.1675 728.849066 
L 1278.34515 728.532935 
L 1279.5228 728.564908 
L 1280.70045 729.28809 
L 1281.8781 729.255498 
L 1283.05575 728.922187 
L 1286.5887 728.885989 
L 1287.76635 728.356522 
L 1288.944 728.353967 
L 1290.12165 729.199674 
L 1293.6546 728.98377 
L 1294.83225 728.794436 
L 1296.0099 728.837525 
L 1297.18755 728.745729 
L 1298.3652 728.773581 
L 1299.54285 730.352282 
L 1300.7205 730.355018 
L 1301.89815 728.342039 
L 1303.0758 728.335765 
L 1304.25345 729.393294 
L 1305.4311 729.336698 
L 1306.60875 728.287834 
L 1307.7864 728.331756 
L 1308.96405 728.585213 
L 1310.1417 728.573146 
L 1311.31935 728.957405 
L 1312.497 728.950805 
L 1313.67465 729.710729 
L 1314.8523 729.705077 
L 1316.02995 730.539667 
L 1317.2076 730.48043 
L 1318.38525 730.129112 
L 1319.5629 730.129193 
L 1320.74055 731.893302 
L 1321.9182 731.896405 
L 1323.09585 732.483984 
L 1324.2735 732.556083 
L 1325.45115 730.740834 
L 1326.6288 730.680255 
L 1327.80645 729.486453 
L 1328.9841 729.483379 
L 1330.16175 730.070992 
L 1331.3394 730.046518 
L 1332.51705 729.40466 
L 1333.6947 729.34187 
L 1334.87235 730.34137 
L 1336.05 730.335197 
L 1336.05 730.335197 
" style="fill:none;stroke:#008000;stroke-linecap:square;stroke-width:2.0;"/>
   </g>
   <g id="patch_3">
    <path d="M 158.4 51.3 
L 1336.05 51.3 
" style="fill:none;stroke:#000000;stroke-linecap:square;stroke-linejoin:miter;"/>
   </g>
   <g id="patch_4">
    <path d="M 1336.05 747 
L 1336.05 51.3 
" style="fill:none;stroke:#000000;stroke-linecap:square;stroke-linejoin:miter;"/>
   </g>
   <g id="patch_5">
    <path d="M 158.4 747 
L 1336.05 747 
" style="fill:none;stroke:#000000;stroke-linecap:square;stroke-linejoin:miter;"/>
   </g>
   <g id="patch_6">
    <path d="M 158.4 747 
L 158.4 51.3 
" style="fill:none;stroke:#000000;stroke-linecap:square;stroke-linejoin:miter;"/>
   </g>
   <g id="matplotlib.axis_1">
    <g id="xtick_1">
     <g id="line2d_3">
      <defs>
       <path d="M 0 0 
L 0 -4 
" id="m76ef4cde33" style="stroke:#000000;stroke-width:0.5;"/>
      </defs>
      <g>
       <use style="stroke:#000000;stroke-width:0.5;" x="158.4" xlink:href="#m76ef4cde33" y="747.0"/>
      </g>
     </g>
     <g id="line2d_4">
      <defs>
       <path d="M 0 0 
L 0 4 
" id="mf1dd56417d" style="stroke:#000000;stroke-width:0.5;"/>
      </defs>
      <g>
       <use style="stroke:#000000;stroke-width:0.5;" x="158.4" xlink:href="#mf1dd56417d" y="51.3"/>
      </g>
     </g>
     <g id="text_1">
      <!-- 0 -->
      <defs>
       <path d="M 31.78125 66.40625 
Q 24.171875 66.40625 20.328125 58.90625 
Q 16.5 51.421875 16.5 36.375 
Q 16.5 21.390625 20.328125 13.890625 
Q 24.171875 6.390625 31.78125 6.390625 
Q 39.453125 6.390625 43.28125 13.890625 
Q 47.125 21.390625 47.125 36.375 
Q 47.125 51.421875 43.28125 58.90625 
Q 39.453125 66.40625 31.78125 66.40625 
M 31.78125 74.21875 
Q 44.046875 74.21875 50.515625 64.515625 
Q 56.984375 54.828125 56.984375 36.375 
Q 56.984375 17.96875 50.515625 8.265625 
Q 44.046875 -1.421875 31.78125 -1.421875 
Q 19.53125 -1.421875 13.0625 8.265625 
Q 6.59375 17.96875 6.59375 36.375 
Q 6.59375 54.828125 13.0625 64.515625 
Q 19.53125 74.21875 31.78125 74.21875 
" id="BitstreamVeraSans-Roman-30"/>
      </defs>
      <g transform="translate(148.85625 773.7953125)scale(0.3 -0.3)">
       <use xlink:href="#BitstreamVeraSans-Roman-30"/>
      </g>
     </g>
    </g>
    <g id="xtick_2">
     <g id="line2d_5">
      <g>
       <use style="stroke:#000000;stroke-width:0.5;" x="393.93" xlink:href="#m76ef4cde33" y="747.0"/>
      </g>
     </g>
     <g id="line2d_6">
      <g>
       <use style="stroke:#000000;stroke-width:0.5;" x="393.93" xlink:href="#mf1dd56417d" y="51.3"/>
      </g>
     </g>
     <g id="text_2">
      <!-- 20000 -->
      <defs>
       <path d="M 19.1875 8.296875 
L 53.609375 8.296875 
L 53.609375 0 
L 7.328125 0 
L 7.328125 8.296875 
Q 12.9375 14.109375 22.625 23.890625 
Q 32.328125 33.6875 34.8125 36.53125 
Q 39.546875 41.84375 41.421875 45.53125 
Q 43.3125 49.21875 43.3125 52.78125 
Q 43.3125 58.59375 39.234375 62.25 
Q 35.15625 65.921875 28.609375 65.921875 
Q 23.96875 65.921875 18.8125 64.3125 
Q 13.671875 62.703125 7.8125 59.421875 
L 7.8125 69.390625 
Q 13.765625 71.78125 18.9375 73 
Q 24.125 74.21875 28.421875 74.21875 
Q 39.75 74.21875 46.484375 68.546875 
Q 53.21875 62.890625 53.21875 53.421875 
Q 53.21875 48.921875 51.53125 44.890625 
Q 49.859375 40.875 45.40625 35.40625 
Q 44.1875 33.984375 37.640625 27.21875 
Q 31.109375 20.453125 19.1875 8.296875 
" id="BitstreamVeraSans-Roman-32"/>
      </defs>
      <g transform="translate(346.21125 773.7953125)scale(0.3 -0.3)">
       <use xlink:href="#BitstreamVeraSans-Roman-32"/>
       <use x="63.623046875" xlink:href="#BitstreamVeraSans-Roman-30"/>
       <use x="127.24609375" xlink:href="#BitstreamVeraSans-Roman-30"/>
       <use x="190.869140625" xlink:href="#BitstreamVeraSans-Roman-30"/>
       <use x="254.4921875" xlink:href="#BitstreamVeraSans-Roman-30"/>
      </g>
     </g>
    </g>
    <g id="xtick_3">
     <g id="line2d_7">
      <g>
       <use style="stroke:#000000;stroke-width:0.5;" x="629.46" xlink:href="#m76ef4cde33" y="747.0"/>
      </g>
     </g>
     <g id="line2d_8">
      <g>
       <use style="stroke:#000000;stroke-width:0.5;" x="629.46" xlink:href="#mf1dd56417d" y="51.3"/>
      </g>
     </g>
     <g id="text_3">
      <!-- 40000 -->
      <defs>
       <path d="M 37.796875 64.3125 
L 12.890625 25.390625 
L 37.796875 25.390625 
z
M 35.203125 72.90625 
L 47.609375 72.90625 
L 47.609375 25.390625 
L 58.015625 25.390625 
L 58.015625 17.1875 
L 47.609375 17.1875 
L 47.609375 0 
L 37.796875 0 
L 37.796875 17.1875 
L 4.890625 17.1875 
L 4.890625 26.703125 
z
" id="BitstreamVeraSans-Roman-34"/>
      </defs>
      <g transform="translate(581.74125 773.7953125)scale(0.3 -0.3)">
       <use xlink:href="#BitstreamVeraSans-Roman-34"/>
       <use x="63.623046875" xlink:href="#BitstreamVeraSans-Roman-30"/>
       <use x="127.24609375" xlink:href="#BitstreamVeraSans-Roman-30"/>
       <use x="190.869140625" xlink:href="#BitstreamVeraSans-Roman-30"/>
       <use x="254.4921875" xlink:href="#BitstreamVeraSans-Roman-30"/>
      </g>
     </g>
    </g>
    <g id="xtick_4">
     <g id="line2d_9">
      <g>
       <use style="stroke:#000000;stroke-width:0.5;" x="864.99" xlink:href="#m76ef4cde33" y="747.0"/>
      </g>
     </g>
     <g id="line2d_10">
      <g>
       <use style="stroke:#000000;stroke-width:0.5;" x="864.99" xlink:href="#mf1dd56417d" y="51.3"/>
      </g>
     </g>
     <g id="text_4">
      <!-- 60000 -->
      <defs>
       <path d="M 33.015625 40.375 
Q 26.375 40.375 22.484375 35.828125 
Q 18.609375 31.296875 18.609375 23.390625 
Q 18.609375 15.53125 22.484375 10.953125 
Q 26.375 6.390625 33.015625 6.390625 
Q 39.65625 6.390625 43.53125 10.953125 
Q 47.40625 15.53125 47.40625 23.390625 
Q 47.40625 31.296875 43.53125 35.828125 
Q 39.65625 40.375 33.015625 40.375 
M 52.59375 71.296875 
L 52.59375 62.3125 
Q 48.875 64.0625 45.09375 64.984375 
Q 41.3125 65.921875 37.59375 65.921875 
Q 27.828125 65.921875 22.671875 59.328125 
Q 17.53125 52.734375 16.796875 39.40625 
Q 19.671875 43.65625 24.015625 45.921875 
Q 28.375 48.1875 33.59375 48.1875 
Q 44.578125 48.1875 50.953125 41.515625 
Q 57.328125 34.859375 57.328125 23.390625 
Q 57.328125 12.15625 50.6875 5.359375 
Q 44.046875 -1.421875 33.015625 -1.421875 
Q 20.359375 -1.421875 13.671875 8.265625 
Q 6.984375 17.96875 6.984375 36.375 
Q 6.984375 53.65625 15.1875 63.9375 
Q 23.390625 74.21875 37.203125 74.21875 
Q 40.921875 74.21875 44.703125 73.484375 
Q 48.484375 72.75 52.59375 71.296875 
" id="BitstreamVeraSans-Roman-36"/>
      </defs>
      <g transform="translate(817.27125 773.7953125)scale(0.3 -0.3)">
       <use xlink:href="#BitstreamVeraSans-Roman-36"/>
       <use x="63.623046875" xlink:href="#BitstreamVeraSans-Roman-30"/>
       <use x="127.24609375" xlink:href="#BitstreamVeraSans-Roman-30"/>
       <use x="190.869140625" xlink:href="#BitstreamVeraSans-Roman-30"/>
       <use x="254.4921875" xlink:href="#BitstreamVeraSans-Roman-30"/>
      </g>
     </g>
    </g>
    <g id="xtick_5">
     <g id="line2d_11">
      <g>
       <use style="stroke:#000000;stroke-width:0.5;" x="1100.52" xlink:href="#m76ef4cde33" y="747.0"/>
      </g>
     </g>
     <g id="line2d_12">
      <g>
       <use style="stroke:#000000;stroke-width:0.5;" x="1100.52" xlink:href="#mf1dd56417d" y="51.3"/>
      </g>
     </g>
     <g id="text_5">
      <!-- 80000 -->
      <defs>
       <path d="M 31.78125 34.625 
Q 24.75 34.625 20.71875 30.859375 
Q 16.703125 27.09375 16.703125 20.515625 
Q 16.703125 13.921875 20.71875 10.15625 
Q 24.75 6.390625 31.78125 6.390625 
Q 38.8125 6.390625 42.859375 10.171875 
Q 46.921875 13.96875 46.921875 20.515625 
Q 46.921875 27.09375 42.890625 30.859375 
Q 38.875 34.625 31.78125 34.625 
M 21.921875 38.8125 
Q 15.578125 40.375 12.03125 44.71875 
Q 8.5 49.078125 8.5 55.328125 
Q 8.5 64.0625 14.71875 69.140625 
Q 20.953125 74.21875 31.78125 74.21875 
Q 42.671875 74.21875 48.875 69.140625 
Q 55.078125 64.0625 55.078125 55.328125 
Q 55.078125 49.078125 51.53125 44.71875 
Q 48 40.375 41.703125 38.8125 
Q 48.828125 37.15625 52.796875 32.3125 
Q 56.78125 27.484375 56.78125 20.515625 
Q 56.78125 9.90625 50.3125 4.234375 
Q 43.84375 -1.421875 31.78125 -1.421875 
Q 19.734375 -1.421875 13.25 4.234375 
Q 6.78125 9.90625 6.78125 20.515625 
Q 6.78125 27.484375 10.78125 32.3125 
Q 14.796875 37.15625 21.921875 38.8125 
M 18.3125 54.390625 
Q 18.3125 48.734375 21.84375 45.5625 
Q 25.390625 42.390625 31.78125 42.390625 
Q 38.140625 42.390625 41.71875 45.5625 
Q 45.3125 48.734375 45.3125 54.390625 
Q 45.3125 60.0625 41.71875 63.234375 
Q 38.140625 66.40625 31.78125 66.40625 
Q 25.390625 66.40625 21.84375 63.234375 
Q 18.3125 60.0625 18.3125 54.390625 
" id="BitstreamVeraSans-Roman-38"/>
      </defs>
      <g transform="translate(1052.80125 773.7953125)scale(0.3 -0.3)">
       <use xlink:href="#BitstreamVeraSans-Roman-38"/>
       <use x="63.623046875" xlink:href="#BitstreamVeraSans-Roman-30"/>
       <use x="127.24609375" xlink:href="#BitstreamVeraSans-Roman-30"/>
       <use x="190.869140625" xlink:href="#BitstreamVeraSans-Roman-30"/>
       <use x="254.4921875" xlink:href="#BitstreamVeraSans-Roman-30"/>
      </g>
     </g>
    </g>
    <g id="xtick_6">
     <g id="line2d_13">
      <g>
       <use style="stroke:#000000;stroke-width:0.5;" x="1336.05" xlink:href="#m76ef4cde33" y="747.0"/>
      </g>
     </g>
     <g id="line2d_14">
      <g>
       <use style="stroke:#000000;stroke-width:0.5;" x="1336.05" xlink:href="#mf1dd56417d" y="51.3"/>
      </g>
     </g>
     <g id="text_6">
      <!-- 100000 -->
      <defs>
       <path d="M 12.40625 8.296875 
L 28.515625 8.296875 
L 28.515625 63.921875 
L 10.984375 60.40625 
L 10.984375 69.390625 
L 28.421875 72.90625 
L 38.28125 72.90625 
L 38.28125 8.296875 
L 54.390625 8.296875 
L 54.390625 0 
L 12.40625 0 
z
" id="BitstreamVeraSans-Roman-31"/>
      </defs>
      <g transform="translate(1278.7875 773.7953125)scale(0.3 -0.3)">
       <use xlink:href="#BitstreamVeraSans-Roman-31"/>
       <use x="63.623046875" xlink:href="#BitstreamVeraSans-Roman-30"/>
       <use x="127.24609375" xlink:href="#BitstreamVeraSans-Roman-30"/>
       <use x="190.869140625" xlink:href="#BitstreamVeraSans-Roman-30"/>
       <use x="254.4921875" xlink:href="#BitstreamVeraSans-Roman-30"/>
       <use x="318.115234375" xlink:href="#BitstreamVeraSans-Roman-30"/>
      </g>
     </g>
    </g>
    <g id="text_7">
     <!-- iterations -->
     <defs>
      <path d="M 54.890625 33.015625 
L 54.890625 0 
L 45.90625 0 
L 45.90625 32.71875 
Q 45.90625 40.484375 42.875 44.328125 
Q 39.84375 48.1875 33.796875 48.1875 
Q 26.515625 48.1875 22.3125 43.546875 
Q 18.109375 38.921875 18.109375 30.90625 
L 18.109375 0 
L 9.078125 0 
L 9.078125 54.6875 
L 18.109375 54.6875 
L 18.109375 46.1875 
Q 21.34375 51.125 25.703125 53.5625 
Q 30.078125 56 35.796875 56 
Q 45.21875 56 50.046875 50.171875 
Q 54.890625 44.34375 54.890625 33.015625 
" id="BitstreamVeraSans-Roman-6e"/>
      <path d="M 34.28125 27.484375 
Q 23.390625 27.484375 19.1875 25 
Q 14.984375 22.515625 14.984375 16.5 
Q 14.984375 11.71875 18.140625 8.90625 
Q 21.296875 6.109375 26.703125 6.109375 
Q 34.1875 6.109375 38.703125 11.40625 
Q 43.21875 16.703125 43.21875 25.484375 
L 43.21875 27.484375 
z
M 52.203125 31.203125 
L 52.203125 0 
L 43.21875 0 
L 43.21875 8.296875 
Q 40.140625 3.328125 35.546875 0.953125 
Q 30.953125 -1.421875 24.3125 -1.421875 
Q 15.921875 -1.421875 10.953125 3.296875 
Q 6 8.015625 6 15.921875 
Q 6 25.140625 12.171875 29.828125 
Q 18.359375 34.515625 30.609375 34.515625 
L 43.21875 34.515625 
L 43.21875 35.40625 
Q 43.21875 41.609375 39.140625 45 
Q 35.0625 48.390625 27.6875 48.390625 
Q 23 48.390625 18.546875 47.265625 
Q 14.109375 46.140625 10.015625 43.890625 
L 10.015625 52.203125 
Q 14.9375 54.109375 19.578125 55.046875 
Q 24.21875 56 28.609375 56 
Q 40.484375 56 46.34375 49.84375 
Q 52.203125 43.703125 52.203125 31.203125 
" id="BitstreamVeraSans-Roman-61"/>
      <path d="M 30.609375 48.390625 
Q 23.390625 48.390625 19.1875 42.75 
Q 14.984375 37.109375 14.984375 27.296875 
Q 14.984375 17.484375 19.15625 11.84375 
Q 23.34375 6.203125 30.609375 6.203125 
Q 37.796875 6.203125 41.984375 11.859375 
Q 46.1875 17.53125 46.1875 27.296875 
Q 46.1875 37.015625 41.984375 42.703125 
Q 37.796875 48.390625 30.609375 48.390625 
M 30.609375 56 
Q 42.328125 56 49.015625 48.375 
Q 55.71875 40.765625 55.71875 27.296875 
Q 55.71875 13.875 49.015625 6.21875 
Q 42.328125 -1.421875 30.609375 -1.421875 
Q 18.84375 -1.421875 12.171875 6.21875 
Q 5.515625 13.875 5.515625 27.296875 
Q 5.515625 40.765625 12.171875 48.375 
Q 18.84375 56 30.609375 56 
" id="BitstreamVeraSans-Roman-6f"/>
      <path d="M 9.421875 54.6875 
L 18.40625 54.6875 
L 18.40625 0 
L 9.421875 0 
z
M 9.421875 75.984375 
L 18.40625 75.984375 
L 18.40625 64.59375 
L 9.421875 64.59375 
z
" id="BitstreamVeraSans-Roman-69"/>
      <path d="M 56.203125 29.59375 
L 56.203125 25.203125 
L 14.890625 25.203125 
Q 15.484375 15.921875 20.484375 11.0625 
Q 25.484375 6.203125 34.421875 6.203125 
Q 39.59375 6.203125 44.453125 7.46875 
Q 49.3125 8.734375 54.109375 11.28125 
L 54.109375 2.78125 
Q 49.265625 0.734375 44.1875 -0.34375 
Q 39.109375 -1.421875 33.890625 -1.421875 
Q 20.796875 -1.421875 13.15625 6.1875 
Q 5.515625 13.8125 5.515625 26.8125 
Q 5.515625 40.234375 12.765625 48.109375 
Q 20.015625 56 32.328125 56 
Q 43.359375 56 49.78125 48.890625 
Q 56.203125 41.796875 56.203125 29.59375 
M 47.21875 32.234375 
Q 47.125 39.59375 43.09375 43.984375 
Q 39.0625 48.390625 32.421875 48.390625 
Q 24.90625 48.390625 20.390625 44.140625 
Q 15.875 39.890625 15.1875 32.171875 
z
" id="BitstreamVeraSans-Roman-65"/>
      <path d="M 18.3125 70.21875 
L 18.3125 54.6875 
L 36.8125 54.6875 
L 36.8125 47.703125 
L 18.3125 47.703125 
L 18.3125 18.015625 
Q 18.3125 11.328125 20.140625 9.421875 
Q 21.96875 7.515625 27.59375 7.515625 
L 36.8125 7.515625 
L 36.8125 0 
L 27.59375 0 
Q 17.1875 0 13.234375 3.875 
Q 9.28125 7.765625 9.28125 18.015625 
L 9.28125 47.703125 
L 2.6875 47.703125 
L 2.6875 54.6875 
L 9.28125 54.6875 
L 9.28125 70.21875 
z
" id="BitstreamVeraSans-Roman-74"/>
      <path d="M 41.109375 46.296875 
Q 39.59375 47.171875 37.8125 47.578125 
Q 36.03125 48 33.890625 48 
Q 26.265625 48 22.1875 43.046875 
Q 18.109375 38.09375 18.109375 28.8125 
L 18.109375 0 
L 9.078125 0 
L 9.078125 54.6875 
L 18.109375 54.6875 
L 18.109375 46.1875 
Q 20.953125 51.171875 25.484375 53.578125 
Q 30.03125 56 36.53125 56 
Q 37.453125 56 38.578125 55.875 
Q 39.703125 55.765625 41.0625 55.515625 
z
" id="BitstreamVeraSans-Roman-72"/>
      <path d="M 44.28125 53.078125 
L 44.28125 44.578125 
Q 40.484375 46.53125 36.375 47.5 
Q 32.28125 48.484375 27.875 48.484375 
Q 21.1875 48.484375 17.84375 46.4375 
Q 14.5 44.390625 14.5 40.28125 
Q 14.5 37.15625 16.890625 35.375 
Q 19.28125 33.59375 26.515625 31.984375 
L 29.59375 31.296875 
Q 39.15625 29.25 43.1875 25.515625 
Q 47.21875 21.78125 47.21875 15.09375 
Q 47.21875 7.46875 41.1875 3.015625 
Q 35.15625 -1.421875 24.609375 -1.421875 
Q 20.21875 -1.421875 15.453125 -0.5625 
Q 10.6875 0.296875 5.421875 2 
L 5.421875 11.28125 
Q 10.40625 8.6875 15.234375 7.390625 
Q 20.0625 6.109375 24.8125 6.109375 
Q 31.15625 6.109375 34.5625 8.28125 
Q 37.984375 10.453125 37.984375 14.40625 
Q 37.984375 18.0625 35.515625 20.015625 
Q 33.0625 21.96875 24.703125 23.78125 
L 21.578125 24.515625 
Q 13.234375 26.265625 9.515625 29.90625 
Q 5.8125 33.546875 5.8125 39.890625 
Q 5.8125 47.609375 11.28125 51.796875 
Q 16.75 56 26.8125 56 
Q 31.78125 56 36.171875 55.265625 
Q 40.578125 54.546875 44.28125 53.078125 
" id="BitstreamVeraSans-Roman-73"/>
     </defs>
     <g transform="translate(676.04296875 807.8296875)scale(0.3 -0.3)">
      <use xlink:href="#BitstreamVeraSans-Roman-69"/>
      <use x="27.783203125" xlink:href="#BitstreamVeraSans-Roman-74"/>
      <use x="66.9921875" xlink:href="#BitstreamVeraSans-Roman-65"/>
      <use x="128.515625" xlink:href="#BitstreamVeraSans-Roman-72"/>
      <use x="169.62890625" xlink:href="#BitstreamVeraSans-Roman-61"/>
      <use x="230.908203125" xlink:href="#BitstreamVeraSans-Roman-74"/>
      <use x="270.1171875" xlink:href="#BitstreamVeraSans-Roman-69"/>
      <use x="297.900390625" xlink:href="#BitstreamVeraSans-Roman-6f"/>
      <use x="359.08203125" xlink:href="#BitstreamVeraSans-Roman-6e"/>
      <use x="422.4609375" xlink:href="#BitstreamVeraSans-Roman-73"/>
     </g>
    </g>
   </g>
   <g id="matplotlib.axis_2">
    <g id="ytick_1">
     <g id="line2d_15">
      <defs>
       <path d="M 0 0 
L 4 0 
" id="med3e0364a1" style="stroke:#000000;stroke-width:0.5;"/>
      </defs>
      <g>
       <use style="stroke:#000000;stroke-width:0.5;" x="158.4" xlink:href="#med3e0364a1" y="747.0"/>
      </g>
     </g>
     <g id="line2d_16">
      <defs>
       <path d="M 0 0 
L -4 0 
" id="mce85c2fe2f" style="stroke:#000000;stroke-width:0.5;"/>
      </defs>
      <g>
       <use style="stroke:#000000;stroke-width:0.5;" x="1336.05" xlink:href="#mce85c2fe2f" y="747.0"/>
      </g>
     </g>
     <g id="text_8">
      <!-- 60 -->
      <defs>
       <path d="M 10.59375 35.5 
L 73.1875 35.5 
L 73.1875 27.203125 
L 10.59375 27.203125 
z
" id="BitstreamVeraSans-Roman-2212"/>
      </defs>
      <g transform="translate(91.0859375 755.278125)scale(0.3 -0.3)">
       <use xlink:href="#BitstreamVeraSans-Roman-2212"/>
       <use x="83.7890625" xlink:href="#BitstreamVeraSans-Roman-36"/>
       <use x="147.412109375" xlink:href="#BitstreamVeraSans-Roman-30"/>
      </g>
     </g>
    </g>
    <g id="ytick_2">
     <g id="line2d_17">
      <g>
       <use style="stroke:#000000;stroke-width:0.5;" x="158.4" xlink:href="#med3e0364a1" y="647.614285714"/>
      </g>
     </g>
     <g id="line2d_18">
      <g>
       <use style="stroke:#000000;stroke-width:0.5;" x="1336.05" xlink:href="#mce85c2fe2f" y="647.614285714"/>
      </g>
     </g>
     <g id="text_9">
      <!-- 50 -->
      <defs>
       <path d="M 10.796875 72.90625 
L 49.515625 72.90625 
L 49.515625 64.59375 
L 19.828125 64.59375 
L 19.828125 46.734375 
Q 21.96875 47.46875 24.109375 47.828125 
Q 26.265625 48.1875 28.421875 48.1875 
Q 40.625 48.1875 47.75 41.5 
Q 54.890625 34.8125 54.890625 23.390625 
Q 54.890625 11.625 47.5625 5.09375 
Q 40.234375 -1.421875 26.90625 -1.421875 
Q 22.3125 -1.421875 17.546875 -0.640625 
Q 12.796875 0.140625 7.71875 1.703125 
L 7.71875 11.625 
Q 12.109375 9.234375 16.796875 8.0625 
Q 21.484375 6.890625 26.703125 6.890625 
Q 35.15625 6.890625 40.078125 11.328125 
Q 45.015625 15.765625 45.015625 23.390625 
Q 45.015625 31 40.078125 35.4375 
Q 35.15625 39.890625 26.703125 39.890625 
Q 22.75 39.890625 18.8125 39.015625 
Q 14.890625 38.140625 10.796875 36.28125 
z
" id="BitstreamVeraSans-Roman-35"/>
      </defs>
      <g transform="translate(91.0859375 655.892410714)scale(0.3 -0.3)">
       <use xlink:href="#BitstreamVeraSans-Roman-2212"/>
       <use x="83.7890625" xlink:href="#BitstreamVeraSans-Roman-35"/>
       <use x="147.412109375" xlink:href="#BitstreamVeraSans-Roman-30"/>
      </g>
     </g>
    </g>
    <g id="ytick_3">
     <g id="line2d_19">
      <g>
       <use style="stroke:#000000;stroke-width:0.5;" x="158.4" xlink:href="#med3e0364a1" y="548.228571429"/>
      </g>
     </g>
     <g id="line2d_20">
      <g>
       <use style="stroke:#000000;stroke-width:0.5;" x="1336.05" xlink:href="#mce85c2fe2f" y="548.228571429"/>
      </g>
     </g>
     <g id="text_10">
      <!-- 40 -->
      <g transform="translate(91.0859375 556.506696429)scale(0.3 -0.3)">
       <use xlink:href="#BitstreamVeraSans-Roman-2212"/>
       <use x="83.7890625" xlink:href="#BitstreamVeraSans-Roman-34"/>
       <use x="147.412109375" xlink:href="#BitstreamVeraSans-Roman-30"/>
      </g>
     </g>
    </g>
    <g id="ytick_4">
     <g id="line2d_21">
      <g>
       <use style="stroke:#000000;stroke-width:0.5;" x="158.4" xlink:href="#med3e0364a1" y="448.842857143"/>
      </g>
     </g>
     <g id="line2d_22">
      <g>
       <use style="stroke:#000000;stroke-width:0.5;" x="1336.05" xlink:href="#mce85c2fe2f" y="448.842857143"/>
      </g>
     </g>
     <g id="text_11">
      <!-- 30 -->
      <defs>
       <path d="M 40.578125 39.3125 
Q 47.65625 37.796875 51.625 33 
Q 55.609375 28.21875 55.609375 21.1875 
Q 55.609375 10.40625 48.1875 4.484375 
Q 40.765625 -1.421875 27.09375 -1.421875 
Q 22.515625 -1.421875 17.65625 -0.515625 
Q 12.796875 0.390625 7.625 2.203125 
L 7.625 11.71875 
Q 11.71875 9.328125 16.59375 8.109375 
Q 21.484375 6.890625 26.8125 6.890625 
Q 36.078125 6.890625 40.9375 10.546875 
Q 45.796875 14.203125 45.796875 21.1875 
Q 45.796875 27.640625 41.28125 31.265625 
Q 36.765625 34.90625 28.71875 34.90625 
L 20.21875 34.90625 
L 20.21875 43.015625 
L 29.109375 43.015625 
Q 36.375 43.015625 40.234375 45.921875 
Q 44.09375 48.828125 44.09375 54.296875 
Q 44.09375 59.90625 40.109375 62.90625 
Q 36.140625 65.921875 28.71875 65.921875 
Q 24.65625 65.921875 20.015625 65.03125 
Q 15.375 64.15625 9.8125 62.3125 
L 9.8125 71.09375 
Q 15.4375 72.65625 20.34375 73.4375 
Q 25.25 74.21875 29.59375 74.21875 
Q 40.828125 74.21875 47.359375 69.109375 
Q 53.90625 64.015625 53.90625 55.328125 
Q 53.90625 49.265625 50.4375 45.09375 
Q 46.96875 40.921875 40.578125 39.3125 
" id="BitstreamVeraSans-Roman-33"/>
      </defs>
      <g transform="translate(91.0859375 457.120982143)scale(0.3 -0.3)">
       <use xlink:href="#BitstreamVeraSans-Roman-2212"/>
       <use x="83.7890625" xlink:href="#BitstreamVeraSans-Roman-33"/>
       <use x="147.412109375" xlink:href="#BitstreamVeraSans-Roman-30"/>
      </g>
     </g>
    </g>
    <g id="ytick_5">
     <g id="line2d_23">
      <g>
       <use style="stroke:#000000;stroke-width:0.5;" x="158.4" xlink:href="#med3e0364a1" y="349.457142857"/>
      </g>
     </g>
     <g id="line2d_24">
      <g>
       <use style="stroke:#000000;stroke-width:0.5;" x="1336.05" xlink:href="#mce85c2fe2f" y="349.457142857"/>
      </g>
     </g>
     <g id="text_12">
      <!-- 20 -->
      <g transform="translate(91.0859375 357.735267857)scale(0.3 -0.3)">
       <use xlink:href="#BitstreamVeraSans-Roman-2212"/>
       <use x="83.7890625" xlink:href="#BitstreamVeraSans-Roman-32"/>
       <use x="147.412109375" xlink:href="#BitstreamVeraSans-Roman-30"/>
      </g>
     </g>
    </g>
    <g id="ytick_6">
     <g id="line2d_25">
      <g>
       <use style="stroke:#000000;stroke-width:0.5;" x="158.4" xlink:href="#med3e0364a1" y="250.071428571"/>
      </g>
     </g>
     <g id="line2d_26">
      <g>
       <use style="stroke:#000000;stroke-width:0.5;" x="1336.05" xlink:href="#mce85c2fe2f" y="250.071428571"/>
      </g>
     </g>
     <g id="text_13">
      <!-- 10 -->
      <g transform="translate(91.0859375 258.349553571)scale(0.3 -0.3)">
       <use xlink:href="#BitstreamVeraSans-Roman-2212"/>
       <use x="83.7890625" xlink:href="#BitstreamVeraSans-Roman-31"/>
       <use x="147.412109375" xlink:href="#BitstreamVeraSans-Roman-30"/>
      </g>
     </g>
    </g>
    <g id="ytick_7">
     <g id="line2d_27">
      <g>
       <use style="stroke:#000000;stroke-width:0.5;" x="158.4" xlink:href="#med3e0364a1" y="150.685714286"/>
      </g>
     </g>
     <g id="line2d_28">
      <g>
       <use style="stroke:#000000;stroke-width:0.5;" x="1336.05" xlink:href="#mce85c2fe2f" y="150.685714286"/>
      </g>
     </g>
     <g id="text_14">
      <!-- 0 -->
      <g transform="translate(135.3125 158.963839286)scale(0.3 -0.3)">
       <use xlink:href="#BitstreamVeraSans-Roman-30"/>
      </g>
     </g>
    </g>
    <g id="ytick_8">
     <g id="line2d_29">
      <g>
       <use style="stroke:#000000;stroke-width:0.5;" x="158.4" xlink:href="#med3e0364a1" y="51.3"/>
      </g>
     </g>
     <g id="line2d_30">
      <g>
       <use style="stroke:#000000;stroke-width:0.5;" x="1336.05" xlink:href="#mce85c2fe2f" y="51.3"/>
      </g>
     </g>
     <g id="text_15">
      <!-- 10 -->
      <g transform="translate(116.225 59.578125)scale(0.3 -0.3)">
       <use xlink:href="#BitstreamVeraSans-Roman-31"/>
       <use x="63.623046875" xlink:href="#BitstreamVeraSans-Roman-30"/>
      </g>
     </g>
    </g>
    <g id="text_16">
     <!-- log(loss) -->
     <defs>
      <path d="M 8.015625 75.875 
L 15.828125 75.875 
Q 23.140625 64.359375 26.78125 53.3125 
Q 30.421875 42.28125 30.421875 31.390625 
Q 30.421875 20.453125 26.78125 9.375 
Q 23.140625 -1.703125 15.828125 -13.1875 
L 8.015625 -13.1875 
Q 14.5 -2 17.703125 9.0625 
Q 20.90625 20.125 20.90625 31.390625 
Q 20.90625 42.671875 17.703125 53.65625 
Q 14.5 64.65625 8.015625 75.875 
" id="BitstreamVeraSans-Roman-29"/>
      <path d="M 31 75.875 
Q 24.46875 64.65625 21.28125 53.65625 
Q 18.109375 42.671875 18.109375 31.390625 
Q 18.109375 20.125 21.3125 9.0625 
Q 24.515625 -2 31 -13.1875 
L 23.1875 -13.1875 
Q 15.875 -1.703125 12.234375 9.375 
Q 8.59375 20.453125 8.59375 31.390625 
Q 8.59375 42.28125 12.203125 53.3125 
Q 15.828125 64.359375 23.1875 75.875 
z
" id="BitstreamVeraSans-Roman-28"/>
      <path d="M 45.40625 27.984375 
Q 45.40625 37.75 41.375 43.109375 
Q 37.359375 48.484375 30.078125 48.484375 
Q 22.859375 48.484375 18.828125 43.109375 
Q 14.796875 37.75 14.796875 27.984375 
Q 14.796875 18.265625 18.828125 12.890625 
Q 22.859375 7.515625 30.078125 7.515625 
Q 37.359375 7.515625 41.375 12.890625 
Q 45.40625 18.265625 45.40625 27.984375 
M 54.390625 6.78125 
Q 54.390625 -7.171875 48.1875 -13.984375 
Q 42 -20.796875 29.203125 -20.796875 
Q 24.46875 -20.796875 20.265625 -20.09375 
Q 16.0625 -19.390625 12.109375 -17.921875 
L 12.109375 -9.1875 
Q 16.0625 -11.328125 19.921875 -12.34375 
Q 23.78125 -13.375 27.78125 -13.375 
Q 36.625 -13.375 41.015625 -8.765625 
Q 45.40625 -4.15625 45.40625 5.171875 
L 45.40625 9.625 
Q 42.625 4.78125 38.28125 2.390625 
Q 33.9375 0 27.875 0 
Q 17.828125 0 11.671875 7.65625 
Q 5.515625 15.328125 5.515625 27.984375 
Q 5.515625 40.671875 11.671875 48.328125 
Q 17.828125 56 27.875 56 
Q 33.9375 56 38.28125 53.609375 
Q 42.625 51.21875 45.40625 46.390625 
L 45.40625 54.6875 
L 54.390625 54.6875 
z
" id="BitstreamVeraSans-Roman-67"/>
      <path d="M 9.421875 75.984375 
L 18.40625 75.984375 
L 18.40625 0 
L 9.421875 0 
z
" id="BitstreamVeraSans-Roman-6c"/>
     </defs>
     <g transform="translate(79.846875 462.69609375)rotate(-90.0)scale(0.3 -0.3)">
      <use xlink:href="#BitstreamVeraSans-Roman-6c"/>
      <use x="27.783203125" xlink:href="#BitstreamVeraSans-Roman-6f"/>
      <use x="88.96484375" xlink:href="#BitstreamVeraSans-Roman-67"/>
      <use x="152.44140625" xlink:href="#BitstreamVeraSans-Roman-28"/>
      <use x="191.455078125" xlink:href="#BitstreamVeraSans-Roman-6c"/>
      <use x="219.23828125" xlink:href="#BitstreamVeraSans-Roman-6f"/>
      <use x="280.419921875" xlink:href="#BitstreamVeraSans-Roman-73"/>
      <use x="332.51953125" xlink:href="#BitstreamVeraSans-Roman-73"/>
      <use x="384.619140625" xlink:href="#BitstreamVeraSans-Roman-29"/>
     </g>
    </g>
   </g>
   <g id="legend_1">
    <g id="patch_7">
     <path d="M 843.876562 163.36875 
L 1321.05 163.36875 
L 1321.05 66.3 
L 843.876562 66.3 
z
" style="fill:#ffffff;stroke:#000000;stroke-linejoin:miter;"/>
    </g>
    <g id="line2d_31">
     <path d="M 864.876562 90.595312 
L 906.876562 90.595312 
" style="fill:none;stroke:#0000ff;stroke-linecap:square;stroke-width:2.0;"/>
    </g>
    <g id="line2d_32"/>
    <g id="text_17">
     <!-- random: step=0.002500 -->
     <defs>
      <path id="BitstreamVeraSans-Roman-20"/>
      <path d="M 52 44.1875 
Q 55.375 50.25 60.0625 53.125 
Q 64.75 56 71.09375 56 
Q 79.640625 56 84.28125 50.015625 
Q 88.921875 44.046875 88.921875 33.015625 
L 88.921875 0 
L 79.890625 0 
L 79.890625 32.71875 
Q 79.890625 40.578125 77.09375 44.375 
Q 74.3125 48.1875 68.609375 48.1875 
Q 61.625 48.1875 57.5625 43.546875 
Q 53.515625 38.921875 53.515625 30.90625 
L 53.515625 0 
L 44.484375 0 
L 44.484375 32.71875 
Q 44.484375 40.625 41.703125 44.40625 
Q 38.921875 48.1875 33.109375 48.1875 
Q 26.21875 48.1875 22.15625 43.53125 
Q 18.109375 38.875 18.109375 30.90625 
L 18.109375 0 
L 9.078125 0 
L 9.078125 54.6875 
L 18.109375 54.6875 
L 18.109375 46.1875 
Q 21.1875 51.21875 25.484375 53.609375 
Q 29.78125 56 35.6875 56 
Q 41.65625 56 45.828125 52.96875 
Q 50 49.953125 52 44.1875 
" id="BitstreamVeraSans-Roman-6d"/>
      <path d="M 11.71875 12.40625 
L 22.015625 12.40625 
L 22.015625 0 
L 11.71875 0 
z
M 11.71875 51.703125 
L 22.015625 51.703125 
L 22.015625 39.3125 
L 11.71875 39.3125 
z
" id="BitstreamVeraSans-Roman-3a"/>
      <path d="M 10.6875 12.40625 
L 21 12.40625 
L 21 0 
L 10.6875 0 
z
" id="BitstreamVeraSans-Roman-2e"/>
      <path d="M 10.59375 45.40625 
L 73.1875 45.40625 
L 73.1875 37.203125 
L 10.59375 37.203125 
z
M 10.59375 25.484375 
L 73.1875 25.484375 
L 73.1875 17.1875 
L 10.59375 17.1875 
z
" id="BitstreamVeraSans-Roman-3d"/>
      <path d="M 45.40625 46.390625 
L 45.40625 75.984375 
L 54.390625 75.984375 
L 54.390625 0 
L 45.40625 0 
L 45.40625 8.203125 
Q 42.578125 3.328125 38.25 0.953125 
Q 33.9375 -1.421875 27.875 -1.421875 
Q 17.96875 -1.421875 11.734375 6.484375 
Q 5.515625 14.40625 5.515625 27.296875 
Q 5.515625 40.1875 11.734375 48.09375 
Q 17.96875 56 27.875 56 
Q 33.9375 56 38.25 53.625 
Q 42.578125 51.265625 45.40625 46.390625 
M 14.796875 27.296875 
Q 14.796875 17.390625 18.875 11.75 
Q 22.953125 6.109375 30.078125 6.109375 
Q 37.203125 6.109375 41.296875 11.75 
Q 45.40625 17.390625 45.40625 27.296875 
Q 45.40625 37.203125 41.296875 42.84375 
Q 37.203125 48.484375 30.078125 48.484375 
Q 22.953125 48.484375 18.875 42.84375 
Q 14.796875 37.203125 14.796875 27.296875 
" id="BitstreamVeraSans-Roman-64"/>
      <path d="M 18.109375 8.203125 
L 18.109375 -20.796875 
L 9.078125 -20.796875 
L 9.078125 54.6875 
L 18.109375 54.6875 
L 18.109375 46.390625 
Q 20.953125 51.265625 25.265625 53.625 
Q 29.59375 56 35.59375 56 
Q 45.5625 56 51.78125 48.09375 
Q 58.015625 40.1875 58.015625 27.296875 
Q 58.015625 14.40625 51.78125 6.484375 
Q 45.5625 -1.421875 35.59375 -1.421875 
Q 29.59375 -1.421875 25.265625 0.953125 
Q 20.953125 3.328125 18.109375 8.203125 
M 48.6875 27.296875 
Q 48.6875 37.203125 44.609375 42.84375 
Q 40.53125 48.484375 33.40625 48.484375 
Q 26.265625 48.484375 22.1875 42.84375 
Q 18.109375 37.203125 18.109375 27.296875 
Q 18.109375 17.390625 22.1875 11.75 
Q 26.265625 6.109375 33.40625 6.109375 
Q 40.53125 6.109375 44.609375 11.75 
Q 48.6875 17.390625 48.6875 27.296875 
" id="BitstreamVeraSans-Roman-70"/>
     </defs>
     <g transform="translate(939.8765625 101.0953125)scale(0.3 -0.3)">
      <use xlink:href="#BitstreamVeraSans-Roman-72"/>
      <use x="41.11328125" xlink:href="#BitstreamVeraSans-Roman-61"/>
      <use x="102.392578125" xlink:href="#BitstreamVeraSans-Roman-6e"/>
      <use x="165.771484375" xlink:href="#BitstreamVeraSans-Roman-64"/>
      <use x="229.248046875" xlink:href="#BitstreamVeraSans-Roman-6f"/>
      <use x="290.4296875" xlink:href="#BitstreamVeraSans-Roman-6d"/>
      <use x="387.841796875" xlink:href="#BitstreamVeraSans-Roman-3a"/>
      <use x="421.533203125" xlink:href="#BitstreamVeraSans-Roman-20"/>
      <use x="453.3203125" xlink:href="#BitstreamVeraSans-Roman-73"/>
      <use x="505.419921875" xlink:href="#BitstreamVeraSans-Roman-74"/>
      <use x="544.62890625" xlink:href="#BitstreamVeraSans-Roman-65"/>
      <use x="606.15234375" xlink:href="#BitstreamVeraSans-Roman-70"/>
      <use x="669.62890625" xlink:href="#BitstreamVeraSans-Roman-3d"/>
      <use x="753.41796875" xlink:href="#BitstreamVeraSans-Roman-30"/>
      <use x="817.041015625" xlink:href="#BitstreamVeraSans-Roman-2e"/>
      <use x="848.828125" xlink:href="#BitstreamVeraSans-Roman-30"/>
      <use x="912.451171875" xlink:href="#BitstreamVeraSans-Roman-30"/>
      <use x="976.07421875" xlink:href="#BitstreamVeraSans-Roman-32"/>
      <use x="1039.69726562" xlink:href="#BitstreamVeraSans-Roman-35"/>
      <use x="1103.3203125" xlink:href="#BitstreamVeraSans-Roman-30"/>
      <use x="1166.94335938" xlink:href="#BitstreamVeraSans-Roman-30"/>
     </g>
    </g>
    <g id="line2d_33">
     <path d="M 864.876562 134.629687 
L 906.876562 134.629687 
" style="fill:none;stroke:#008000;stroke-linecap:square;stroke-width:2.0;"/>
    </g>
    <g id="line2d_34"/>
    <g id="text_18">
     <!-- corr: step=0.002500 -->
     <defs>
      <path d="M 48.78125 52.59375 
L 48.78125 44.1875 
Q 44.96875 46.296875 41.140625 47.34375 
Q 37.3125 48.390625 33.40625 48.390625 
Q 24.65625 48.390625 19.8125 42.84375 
Q 14.984375 37.3125 14.984375 27.296875 
Q 14.984375 17.28125 19.8125 11.734375 
Q 24.65625 6.203125 33.40625 6.203125 
Q 37.3125 6.203125 41.140625 7.25 
Q 44.96875 8.296875 48.78125 10.40625 
L 48.78125 2.09375 
Q 45.015625 0.34375 40.984375 -0.53125 
Q 36.96875 -1.421875 32.421875 -1.421875 
Q 20.0625 -1.421875 12.78125 6.34375 
Q 5.515625 14.109375 5.515625 27.296875 
Q 5.515625 40.671875 12.859375 48.328125 
Q 20.21875 56 33.015625 56 
Q 37.15625 56 41.109375 55.140625 
Q 45.0625 54.296875 48.78125 52.59375 
" id="BitstreamVeraSans-Roman-63"/>
     </defs>
     <g transform="translate(939.8765625 145.1296875)scale(0.3 -0.3)">
      <use xlink:href="#BitstreamVeraSans-Roman-63"/>
      <use x="54.98046875" xlink:href="#BitstreamVeraSans-Roman-6f"/>
      <use x="116.162109375" xlink:href="#BitstreamVeraSans-Roman-72"/>
      <use x="157.259765625" xlink:href="#BitstreamVeraSans-Roman-72"/>
      <use x="198.357421875" xlink:href="#BitstreamVeraSans-Roman-3a"/>
      <use x="232.048828125" xlink:href="#BitstreamVeraSans-Roman-20"/>
      <use x="263.8359375" xlink:href="#BitstreamVeraSans-Roman-73"/>
      <use x="315.935546875" xlink:href="#BitstreamVeraSans-Roman-74"/>
      <use x="355.14453125" xlink:href="#BitstreamVeraSans-Roman-65"/>
      <use x="416.66796875" xlink:href="#BitstreamVeraSans-Roman-70"/>
      <use x="480.14453125" xlink:href="#BitstreamVeraSans-Roman-3d"/>
      <use x="563.93359375" xlink:href="#BitstreamVeraSans-Roman-30"/>
      <use x="627.556640625" xlink:href="#BitstreamVeraSans-Roman-2e"/>
      <use x="659.34375" xlink:href="#BitstreamVeraSans-Roman-30"/>
      <use x="722.966796875" xlink:href="#BitstreamVeraSans-Roman-30"/>
      <use x="786.58984375" xlink:href="#BitstreamVeraSans-Roman-32"/>
      <use x="850.212890625" xlink:href="#BitstreamVeraSans-Roman-35"/>
      <use x="913.8359375" xlink:href="#BitstreamVeraSans-Roman-30"/>
      <use x="977.458984375" xlink:href="#BitstreamVeraSans-Roman-30"/>
     </g>
    </g>
   </g>
  </g>
 </g>
 <defs>
  <clipPath id="p45530462c8">
   <rect height="695.7" width="1177.65" x="158.4" y="51.3"/>
  </clipPath>
 </defs>
</svg>
