<?xml version="1.0" encoding="utf-8" standalone="no"?>
<!DOCTYPE svg PUBLIC "-//W3C//DTD SVG 1.1//EN"
  "http://www.w3.org/Graphics/SVG/1.1/DTD/svg11.dtd">
<!-- Created with matplotlib (http://matplotlib.org/) -->
<svg height="864pt" version="1.1" viewBox="0 0 1440 864" width="1440pt" xmlns="http://www.w3.org/2000/svg" xmlns:xlink="http://www.w3.org/1999/xlink">
 <defs>
  <style type="text/css">
*{stroke-linecap:butt;stroke-linejoin:round;stroke-miterlimit:100000;}
  </style>
 </defs>
 <g id="figure_1">
  <g id="patch_1">
   <path d="M 0 864 
L 1440 864 
L 1440 0 
L 0 0 
z
" style="fill:#ffffff;"/>
  </g>
  <g id="axes_1">
   <g id="patch_2">
    <path d="M 126.9 747 
L 1336.05 747 
L 1336.05 51.3 
L 126.9 51.3 
z
" style="fill:#ffffff;"/>
   </g>
   <g id="line2d_1">
    <path clip-path="url(#pe6d2519dbc)" d="M 128.10915 59.157721 
L 129.3183 61.173467 
L 130.52745 60.980706 
L 131.7366 60.982617 
L 132.94575 61.226156 
L 134.1549 73.854304 
L 135.36405 116.185929 
L 136.5732 126.109252 
L 137.78235 127.126758 
L 138.9915 125.756672 
L 140.20065 130.48699 
L 141.4098 134.1172 
L 142.61895 139.409016 
L 143.8281 165.079039 
L 145.03725 164.243574 
L 146.2464 164.058942 
L 147.45555 164.119888 
L 148.6647 168.332934 
L 149.87385 167.30756 
L 151.083 181.444797 
L 152.29215 203.626398 
L 153.5013 202.674151 
L 154.71045 204.523816 
L 155.9196 208.454166 
L 157.12875 208.469924 
L 158.3379 212.814929 
L 159.54705 220.455612 
L 160.7562 232.563011 
L 161.96535 233.078905 
L 163.1745 232.978451 
L 164.38365 235.935691 
L 165.5928 236.575634 
L 166.80195 237.35716 
L 168.0111 251.710558 
L 169.22025 252.715727 
L 170.4294 261.620152 
L 174.05685 261.610012 
L 175.266 266.270258 
L 176.47515 275.822986 
L 177.6843 278.096601 
L 178.89345 284.674299 
L 181.31175 284.780029 
L 182.5209 284.746911 
L 183.73005 285.301399 
L 184.9392 299.681692 
L 186.14835 299.210493 
L 187.3575 300.187117 
L 188.56665 307.80306 
L 189.7758 307.373163 
L 190.98495 307.41704 
L 192.1941 312.1922 
L 193.40325 323.077667 
L 194.6124 323.151192 
L 195.82155 322.902455 
L 197.0307 328.10494 
L 198.23985 326.569213 
L 199.449 325.832033 
L 200.65815 325.400517 
L 201.8673 341.618246 
L 203.07645 344.833761 
L 204.2856 344.816314 
L 205.49475 344.623393 
L 206.7039 343.331003 
L 207.91305 343.951166 
L 209.1222 349.410473 
L 210.33135 349.313151 
L 211.5405 348.127362 
L 212.74965 350.058394 
L 213.9588 350.203948 
L 215.16795 349.545743 
L 216.3771 354.205613 
L 217.58625 360.891084 
L 218.7954 368.308849 
L 220.00455 367.3438 
L 222.42285 367.043908 
L 223.632 367.106528 
L 224.84115 365.731047 
L 226.0503 374.9155 
L 227.25945 381.217913 
L 228.4686 382.051809 
L 229.67775 382.177167 
L 232.09605 381.921079 
L 233.3052 385.392546 
L 234.51435 387.436627 
L 235.7235 388.219644 
L 236.93265 386.261267 
L 238.1418 387.723732 
L 239.35095 390.267381 
L 240.5601 390.177134 
L 241.76925 389.059818 
L 242.9784 392.836851 
L 244.18755 398.718296 
L 245.3967 398.707179 
L 246.60585 397.739709 
L 247.815 398.707992 
L 249.02415 407.115347 
L 250.2333 407.326003 
L 251.44245 401.348619 
L 252.6516 405.518883 
L 253.86075 408.464023 
L 255.0699 408.453211 
L 256.27905 407.889571 
L 257.4882 408.630594 
L 258.69735 408.745218 
L 259.9065 410.499043 
L 261.11565 416.086295 
L 263.53395 416.120826 
L 264.7431 415.165292 
L 265.95225 421.642224 
L 267.1614 423.706313 
L 268.37055 424.358258 
L 269.5797 430.586966 
L 270.78885 430.900518 
L 271.998 429.969387 
L 274.4163 429.864086 
L 275.62545 434.212053 
L 276.8346 435.124501 
L 278.04375 435.388607 
L 279.2529 435.982573 
L 280.46205 435.953348 
L 281.6712 437.943475 
L 282.88035 441.647202 
L 284.0895 439.764848 
L 285.29865 439.377074 
L 286.5078 440.717657 
L 287.71695 439.071272 
L 288.9261 439.122257 
L 290.13525 441.187881 
L 291.3444 447.530295 
L 292.55355 451.641444 
L 293.7627 451.108371 
L 294.97185 453.354632 
L 296.181 454.035178 
L 298.5993 454.299786 
L 299.80845 455.153782 
L 301.0176 458.79503 
L 302.22675 460.699778 
L 303.4359 459.855248 
L 304.64505 460.078221 
L 305.8542 457.48701 
L 307.06335 458.191954 
L 308.2725 460.065054 
L 309.48165 461.067745 
L 310.6908 465.427962 
L 311.89995 466.336949 
L 313.1091 466.190139 
L 314.31825 471.40736 
L 315.5274 470.967792 
L 316.73655 467.928012 
L 317.9457 471.585261 
L 319.15485 471.744836 
L 320.364 472.27313 
L 321.57315 472.951554 
L 322.7823 471.3692 
L 323.99145 477.699927 
L 325.2006 482.786255 
L 327.6189 483.082896 
L 328.82805 482.636637 
L 330.0372 483.181286 
L 331.24635 479.077466 
L 332.4555 479.593292 
L 333.66465 479.612938 
L 334.8738 480.092807 
L 336.08295 480.093325 
L 337.2921 481.262824 
L 338.50125 483.306734 
L 339.7104 487.96787 
L 343.33785 494.255337 
L 344.547 494.058446 
L 345.75615 495.741949 
L 346.9653 496.705294 
L 348.17445 495.020922 
L 349.3836 496.454283 
L 350.59275 497.397007 
L 351.8019 495.497443 
L 353.01105 494.651108 
L 354.2202 495.830871 
L 355.42935 495.58212 
L 356.6385 500.016733 
L 357.84765 497.765871 
L 360.26595 499.016045 
L 361.4751 504.014677 
L 362.68425 505.500893 
L 363.8934 505.026927 
L 365.10255 504.431244 
L 366.3117 507.894573 
L 367.52085 500.718321 
L 368.73 507.100174 
L 369.93915 507.104747 
L 371.1483 506.755023 
L 372.35745 506.66928 
L 373.5666 507.241733 
L 374.77575 507.329601 
L 375.9849 510.19948 
L 377.19405 511.858801 
L 378.4032 515.732724 
L 379.61235 515.801144 
L 380.8215 521.743896 
L 382.03065 519.679407 
L 383.2398 519.791912 
L 384.44895 519.772419 
L 385.6581 521.193292 
L 386.86725 521.277649 
L 388.0764 526.351072 
L 389.28555 523.704419 
L 392.913 523.487353 
L 394.12215 523.834469 
L 395.3313 519.448781 
L 396.54045 522.38544 
L 397.7496 526.38762 
L 398.95875 523.021448 
L 401.37705 522.590843 
L 402.5862 522.46088 
L 403.79535 527.85264 
L 405.0045 524.879636 
L 406.21365 533.322144 
L 407.4228 527.370962 
L 408.63195 533.85398 
L 409.8411 534.066985 
L 411.05025 533.75427 
L 412.2594 535.611623 
L 413.46855 539.755099 
L 414.6777 541.037849 
L 415.88685 540.24836 
L 417.096 537.453138 
L 418.30515 537.342756 
L 419.5143 537.454154 
L 420.72345 536.840063 
L 421.9326 535.814642 
L 423.14175 539.254217 
L 424.3509 540.287842 
L 425.56005 540.252661 
L 426.7692 540.452319 
L 427.97835 539.609229 
L 429.1875 536.32736 
L 430.39665 540.224245 
L 431.6058 539.180626 
L 432.81495 538.656358 
L 434.0241 537.900272 
L 435.23325 537.629441 
L 436.4424 539.716695 
L 437.65155 541.125552 
L 438.8607 548.682967 
L 440.06985 549.737708 
L 441.279 549.798038 
L 442.48815 549.256113 
L 443.6973 548.421066 
L 444.90645 550.00457 
L 446.1156 548.673735 
L 447.32475 548.536831 
L 448.5339 556.483791 
L 449.74305 552.787237 
L 450.9522 556.440733 
L 452.16135 552.361058 
L 453.3705 551.961812 
L 454.57965 549.049632 
L 455.7888 549.179681 
L 458.2071 554.064208 
L 459.41625 554.411343 
L 460.6254 554.397083 
L 461.83455 556.043602 
L 463.0437 555.741473 
L 464.25285 557.177452 
L 465.462 556.541645 
L 466.67115 558.995706 
L 467.8803 558.925131 
L 469.08945 558.424453 
L 470.2986 559.736827 
L 471.50775 560.277658 
L 472.7169 560.411277 
L 473.92605 559.351835 
L 475.1352 560.367162 
L 476.34435 560.766153 
L 478.76265 560.717256 
L 479.9718 563.434834 
L 481.18095 561.636357 
L 482.3901 562.5115 
L 483.59925 562.617057 
L 486.01755 563.207154 
L 487.2267 563.089771 
L 488.43585 564.115617 
L 489.645 564.179947 
L 490.85415 565.173134 
L 492.0633 564.93949 
L 493.27245 565.841312 
L 494.4816 564.79256 
L 495.69075 566.08195 
L 496.8999 569.858207 
L 498.10905 568.524327 
L 499.3182 570.002616 
L 500.52735 568.640211 
L 501.7365 571.954766 
L 502.94565 572.585145 
L 504.1548 575.856429 
L 505.36395 575.531537 
L 506.5731 577.894125 
L 507.78225 576.233893 
L 508.9914 576.886953 
L 510.20055 575.86629 
L 511.4097 579.429997 
L 512.61885 579.040373 
L 513.828 580.461369 
L 515.03715 580.245133 
L 516.2463 577.771155 
L 517.45545 577.863714 
L 518.6646 576.665598 
L 519.87375 576.483086 
L 521.0829 580.602941 
L 522.29205 581.800216 
L 523.5012 587.135648 
L 524.71035 583.024596 
L 525.9195 584.933159 
L 527.12865 584.648357 
L 528.3378 584.708387 
L 529.54695 583.23306 
L 530.7561 583.702944 
L 531.96525 586.210153 
L 533.1744 584.777286 
L 534.38355 589.625021 
L 535.5927 586.77166 
L 536.80185 590.39951 
L 538.011 590.375626 
L 539.22015 582.271506 
L 540.4293 583.309528 
L 541.63845 587.166567 
L 542.8476 586.684373 
L 544.05675 586.770803 
L 545.2659 588.586673 
L 546.47505 588.819824 
L 547.6842 590.099514 
L 548.89335 589.206958 
L 550.1025 587.337198 
L 552.5208 594.299978 
L 553.72995 596.4028 
L 554.9391 596.468446 
L 556.14825 601.171391 
L 557.3574 601.364022 
L 558.56655 601.706816 
L 559.7757 603.998429 
L 560.98485 604.94139 
L 562.194 600.958478 
L 563.40315 601.597738 
L 564.6123 601.203734 
L 565.82145 606.106751 
L 567.0306 606.027934 
L 568.23975 605.639433 
L 569.4489 605.737447 
L 570.65805 602.766368 
L 571.8672 602.734044 
L 573.07635 602.57427 
L 574.2855 605.270294 
L 575.49465 605.212598 
L 576.7038 604.909647 
L 577.91295 604.421959 
L 579.1221 606.580681 
L 581.5404 606.660381 
L 582.74955 611.410837 
L 583.9587 611.457211 
L 585.16785 605.956959 
L 586.377 610.521844 
L 587.58615 605.801113 
L 588.7953 607.644075 
L 590.00445 605.44777 
L 591.2136 605.451086 
L 592.42275 606.98628 
L 593.6319 606.87661 
L 594.84105 609.739944 
L 596.0502 607.094526 
L 597.25935 607.904134 
L 598.4685 607.598248 
L 599.67765 606.277734 
L 600.8868 606.269145 
L 602.09595 609.878594 
L 603.3051 610.953158 
L 604.51425 610.840636 
L 605.7234 611.013958 
L 606.93255 609.497183 
L 608.1417 610.903822 
L 609.35085 610.92877 
L 610.56 607.18057 
L 611.76915 605.322343 
L 612.9783 605.296486 
L 614.18745 605.439639 
L 615.3966 606.495767 
L 616.60575 606.509697 
L 617.8149 606.936885 
L 619.02405 608.238935 
L 620.2332 609.300858 
L 621.44235 609.468712 
L 622.6515 614.516516 
L 625.0698 616.024088 
L 626.27895 615.735205 
L 627.4881 615.605639 
L 628.69725 616.272515 
L 631.11555 617.284774 
L 632.3247 615.461174 
L 634.743 615.916315 
L 635.95215 617.259512 
L 637.1613 615.099398 
L 638.37045 615.367311 
L 639.5796 615.26574 
L 640.78875 613.150477 
L 641.9979 618.194874 
L 643.20705 618.424494 
L 644.4162 618.439056 
L 645.62535 621.721517 
L 646.8345 622.017589 
L 648.04365 618.425256 
L 649.2528 617.086526 
L 650.46195 628.444512 
L 651.6711 628.645621 
L 652.88025 626.405641 
L 654.0894 628.139251 
L 655.29855 627.871198 
L 656.5077 630.156648 
L 657.71685 626.844605 
L 658.926 626.942507 
L 660.13515 629.447445 
L 661.3443 630.461038 
L 662.55345 625.736806 
L 663.7626 625.691121 
L 664.97175 624.393215 
L 666.1809 623.545758 
L 667.39005 622.986872 
L 668.5992 625.609523 
L 669.80835 627.524184 
L 671.0175 629.1898 
L 672.22665 631.14126 
L 673.4358 631.071772 
L 674.64495 633.340093 
L 675.8541 625.819038 
L 677.06325 627.147113 
L 678.2724 627.180799 
L 679.48155 631.951181 
L 680.6907 629.888196 
L 681.89985 629.613962 
L 683.109 631.3223 
L 685.5273 638.752427 
L 686.73645 638.835222 
L 687.9456 637.775328 
L 689.15475 636.977338 
L 690.3639 635.926703 
L 691.57305 634.320209 
L 692.7822 637.114083 
L 693.99135 638.108279 
L 695.2005 634.232455 
L 696.40965 636.46176 
L 697.6188 635.076794 
L 698.82795 634.453621 
L 700.0371 635.10569 
L 701.24625 639.493958 
L 702.4554 640.218863 
L 703.66455 640.358048 
L 704.8737 641.273443 
L 706.08285 643.435946 
L 707.292 643.422634 
L 708.50115 643.107223 
L 709.7103 647.414702 
L 710.91945 642.805447 
L 712.1286 644.030144 
L 713.33775 643.063153 
L 714.5469 642.448934 
L 715.75605 642.217669 
L 716.9652 642.153151 
L 718.17435 643.194513 
L 719.3835 640.529242 
L 720.59265 641.920624 
L 721.8018 641.725024 
L 723.01095 644.532629 
L 724.2201 644.554792 
L 725.42925 643.943375 
L 726.6384 643.73176 
L 727.84755 642.301203 
L 729.0567 648.318463 
L 731.475 648.321689 
L 732.68415 643.373904 
L 733.8933 645.671131 
L 735.10245 644.277919 
L 736.3116 650.263617 
L 737.52075 649.654593 
L 738.7299 650.358504 
L 739.93905 651.442685 
L 741.1482 652.788449 
L 742.35735 652.86363 
L 743.5665 652.809045 
L 744.77565 652.236938 
L 745.9848 650.693029 
L 747.19395 650.733981 
L 749.61225 650.49134 
L 750.8214 650.733033 
L 752.03055 649.014696 
L 753.2397 645.25943 
L 754.44885 650.310026 
L 755.658 650.713081 
L 756.86715 649.367297 
L 758.0763 649.417742 
L 759.28545 648.692004 
L 760.4946 650.873562 
L 762.9129 651.11024 
L 764.12205 650.835233 
L 765.3312 654.244895 
L 766.54035 659.297301 
L 767.7495 659.417938 
L 768.95865 659.123238 
L 770.1678 660.143539 
L 771.37695 658.02575 
L 772.5861 657.789951 
L 773.79525 657.738519 
L 775.0044 658.448919 
L 776.21355 658.227235 
L 777.4227 657.805997 
L 778.63185 660.279986 
L 779.841 658.260813 
L 782.2593 658.10348 
L 783.46845 656.377077 
L 784.6776 657.087498 
L 785.88675 657.149541 
L 787.0959 656.789457 
L 788.30505 659.596848 
L 789.5142 655.907449 
L 790.72335 655.873371 
L 791.9325 655.963344 
L 793.14165 659.460361 
L 794.3508 662.133391 
L 795.55995 662.163228 
L 796.7691 663.571391 
L 797.97825 661.389996 
L 799.1874 665.491408 
L 801.6057 665.533155 
L 802.81485 667.460583 
L 804.024 666.411418 
L 805.23315 665.16045 
L 806.4423 659.172131 
L 807.65145 663.111807 
L 808.8606 663.093598 
L 810.06975 663.276895 
L 811.2789 657.45303 
L 812.48805 665.023206 
L 813.6972 665.099626 
L 814.90635 662.358713 
L 816.1155 661.682221 
L 817.32465 664.260462 
L 818.5338 664.415915 
L 819.74295 664.188893 
L 820.9521 669.482633 
L 823.3704 667.904663 
L 824.57955 667.67655 
L 825.7887 667.076938 
L 826.99785 667.097526 
L 829.41615 667.428107 
L 830.6253 670.570808 
L 831.83445 668.34522 
L 833.0436 668.12418 
L 834.25275 668.542201 
L 835.4619 669.284099 
L 836.67105 668.586539 
L 837.8802 668.14386 
L 839.08935 668.489492 
L 840.2985 670.943112 
L 841.50765 667.285202 
L 842.7168 668.041202 
L 843.92595 668.026941 
L 845.1351 667.351143 
L 846.34425 667.342221 
L 847.5534 675.387031 
L 848.76255 670.75686 
L 849.9717 670.438563 
L 851.18085 669.531439 
L 852.39 669.679461 
L 854.8083 669.64379 
L 856.01745 669.290225 
L 857.2266 671.722354 
L 858.43575 673.571427 
L 859.6449 673.500735 
L 860.85405 673.880259 
L 862.0632 674.451009 
L 863.27235 673.515854 
L 864.4815 673.377486 
L 865.69065 673.909326 
L 868.10895 678.012014 
L 869.3181 680.74004 
L 871.7364 680.620502 
L 872.94555 680.873219 
L 874.1547 680.069148 
L 875.36385 678.904577 
L 876.573 676.131423 
L 877.78215 676.589656 
L 878.9913 676.504004 
L 880.20045 673.822222 
L 881.4096 676.57782 
L 882.61875 675.642914 
L 883.8279 675.829261 
L 885.03705 680.441688 
L 886.2462 677.375137 
L 887.45535 677.086094 
L 888.6645 676.681777 
L 889.87365 678.555079 
L 891.0828 678.476452 
L 892.29195 678.044009 
L 893.5011 678.202142 
L 894.71025 679.041096 
L 895.9194 678.970916 
L 897.12855 677.07811 
L 898.3377 682.520252 
L 899.54685 682.511678 
L 900.756 682.638557 
L 901.96515 682.096498 
L 903.1743 676.930617 
L 904.38345 676.665672 
L 905.5926 680.847162 
L 906.80175 678.463053 
L 908.0109 675.084235 
L 909.22005 675.307863 
L 910.4292 676.094415 
L 911.63835 680.4205 
L 912.8475 680.443614 
L 914.05665 680.178622 
L 915.2658 681.375399 
L 916.47495 680.495642 
L 917.6841 683.435561 
L 918.89325 684.264012 
L 920.1024 683.617879 
L 921.31155 685.161736 
L 922.5207 685.63887 
L 923.72985 684.728449 
L 924.939 686.134296 
L 926.14815 685.69599 
L 927.3573 685.109343 
L 928.56645 687.184924 
L 929.7756 687.352016 
L 930.98475 687.211829 
L 932.1939 687.908417 
L 933.40305 687.492671 
L 934.6122 687.761124 
L 935.82135 689.706134 
L 937.0305 690.663319 
L 938.23965 689.98342 
L 940.65795 689.935395 
L 941.8671 689.710832 
L 944.2854 689.972507 
L 945.49455 688.958358 
L 946.7037 686.122036 
L 947.91285 689.989373 
L 949.122 690.057865 
L 950.33115 689.717178 
L 951.5403 689.995079 
L 952.74945 689.889131 
L 953.9586 693.111986 
L 955.16775 692.328955 
L 956.3769 694.222225 
L 957.58605 694.960518 
L 960.00435 695.017699 
L 961.2135 696.277017 
L 962.42265 695.364747 
L 963.6318 696.482028 
L 964.84095 697.196622 
L 966.0501 691.363359 
L 967.25925 691.636129 
L 968.4684 691.7406 
L 969.67755 692.505559 
L 970.8867 693.678834 
L 972.09585 693.145591 
L 973.305 696.072691 
L 974.51415 694.525179 
L 975.7233 696.336787 
L 976.93245 695.591548 
L 978.1416 697.191385 
L 979.35075 691.991032 
L 980.5599 697.285458 
L 981.76905 698.84529 
L 982.9782 696.80923 
L 984.18735 695.936834 
L 985.3965 700.170637 
L 986.60565 700.388021 
L 987.8148 700.079038 
L 989.02395 701.664351 
L 990.2331 701.437852 
L 991.44225 702.202004 
L 992.6514 699.798552 
L 993.86055 701.590865 
L 995.0697 697.909999 
L 996.27885 694.862313 
L 997.488 702.071018 
L 998.69715 698.7034 
L 999.9063 699.233741 
L 1001.11545 697.34176 
L 1002.3246 698.758131 
L 1003.53375 702.784605 
L 1004.7429 702.512964 
L 1005.95205 703.921062 
L 1007.1612 698.749808 
L 1008.37035 698.242146 
L 1009.5795 696.009122 
L 1010.78865 701.565517 
L 1011.9978 697.268644 
L 1013.20695 699.261261 
L 1014.4161 699.467805 
L 1015.62525 701.01588 
L 1016.8344 693.346463 
L 1018.04355 696.46014 
L 1020.46185 697.768667 
L 1021.671 701.213974 
L 1022.88015 700.267637 
L 1024.0893 702.899069 
L 1025.29845 702.040572 
L 1026.5076 704.468304 
L 1027.71675 704.437476 
L 1028.9259 701.558131 
L 1030.13505 701.122351 
L 1031.3442 702.036488 
L 1032.55335 700.100445 
L 1033.7625 700.949542 
L 1034.97165 700.803533 
L 1036.1808 702.087779 
L 1037.38995 702.511073 
L 1038.5991 703.345718 
L 1039.80825 705.772755 
L 1041.0174 704.156417 
L 1042.22655 697.598373 
L 1043.4357 699.84893 
L 1044.64485 698.098358 
L 1045.854 697.947332 
L 1047.06315 698.224619 
L 1048.2723 701.835594 
L 1049.48145 701.901701 
L 1050.6906 703.502204 
L 1051.89975 707.292116 
L 1053.1089 710.391551 
L 1054.31805 710.398284 
L 1055.5272 705.617477 
L 1056.73635 708.229012 
L 1057.9455 707.431922 
L 1059.15465 709.39529 
L 1060.3638 710.480831 
L 1061.57295 707.118777 
L 1062.7821 707.07055 
L 1063.99125 707.560222 
L 1065.2004 704.334759 
L 1066.40955 705.863727 
L 1067.6187 705.626691 
L 1068.82785 704.135642 
L 1070.037 704.19805 
L 1071.24615 703.822849 
L 1072.4553 706.993298 
L 1073.66445 705.338799 
L 1074.8736 706.23146 
L 1076.08275 707.355307 
L 1077.2919 707.867001 
L 1078.50105 707.864726 
L 1079.7102 715.242037 
L 1080.91935 714.410565 
L 1082.1285 714.547697 
L 1083.33765 714.363472 
L 1084.5468 714.532772 
L 1086.9651 714.476189 
L 1088.17425 715.285295 
L 1089.3834 716.811535 
L 1091.8017 713.692925 
L 1093.01085 714.726158 
L 1094.22 713.661296 
L 1095.42915 713.65106 
L 1096.6383 714.288988 
L 1097.84745 717.242701 
L 1099.0566 715.448998 
L 1100.26575 714.873542 
L 1101.4749 714.954258 
L 1102.68405 713.670036 
L 1103.8932 713.660135 
L 1105.10235 716.716191 
L 1106.3115 717.383504 
L 1107.52065 714.935849 
L 1108.7298 715.832332 
L 1109.93895 714.513465 
L 1112.35725 717.031579 
L 1113.5664 715.725492 
L 1114.77555 714.916452 
L 1115.9847 714.444592 
L 1117.19385 715.924717 
L 1118.403 716.935983 
L 1119.61215 717.406429 
L 1120.8213 715.852725 
L 1122.03045 717.008426 
L 1123.2396 718.425887 
L 1124.44875 717.220374 
L 1125.6579 714.167439 
L 1126.86705 714.011686 
L 1128.0762 715.739845 
L 1129.28535 715.51784 
L 1130.4945 713.750044 
L 1131.70365 714.009136 
L 1132.9128 713.286281 
L 1134.12195 710.63382 
L 1135.3311 709.727338 
L 1136.54025 716.117106 
L 1137.7494 712.372515 
L 1138.95855 707.36503 
L 1140.1677 708.971328 
L 1141.37685 715.952231 
L 1142.586 717.158817 
L 1143.79515 716.538899 
L 1145.0043 715.356431 
L 1146.21345 714.900516 
L 1147.4226 714.739061 
L 1148.63175 716.764396 
L 1149.8409 720.411519 
L 1151.05005 719.867652 
L 1152.2592 720.227229 
L 1153.46835 718.864012 
L 1154.6775 719.186283 
L 1155.88665 719.164735 
L 1157.0958 716.625748 
L 1158.30495 718.423009 
L 1159.5141 717.025316 
L 1160.72325 719.30388 
L 1161.9324 720.319589 
L 1163.14155 720.070811 
L 1164.3507 722.630953 
L 1165.55985 720.830819 
L 1166.769 722.534989 
L 1167.97815 721.957178 
L 1169.1873 721.82813 
L 1170.39645 726.062147 
L 1171.6056 724.76082 
L 1172.81475 724.935244 
L 1174.0239 726.70483 
L 1175.23305 727.415129 
L 1176.4422 726.874506 
L 1177.65135 728.247399 
L 1178.8605 722.604587 
L 1180.06965 722.575957 
L 1181.2788 723.601002 
L 1182.48795 722.585038 
L 1183.6971 723.150473 
L 1184.90625 724.790574 
L 1186.1154 724.209188 
L 1187.32455 723.326013 
L 1188.5337 717.031399 
L 1189.74285 717.978561 
L 1190.952 720.042418 
L 1192.16115 720.342679 
L 1193.3703 720.978314 
L 1194.57945 718.375091 
L 1195.7886 718.160108 
L 1196.99775 718.661707 
L 1198.2069 718.639736 
L 1199.41605 717.299054 
L 1200.6252 716.638171 
L 1201.83435 719.08666 
L 1203.0435 720.445219 
L 1204.25265 719.186318 
L 1205.4618 720.06124 
L 1206.67095 720.478769 
L 1207.8801 719.932849 
L 1209.08925 716.53045 
L 1210.2984 720.427065 
L 1211.50755 722.692053 
L 1212.7167 720.468202 
L 1213.92585 721.78402 
L 1215.135 722.20815 
L 1216.34415 722.12178 
L 1217.5533 727.711405 
L 1218.76245 723.888523 
L 1219.9716 725.010849 
L 1221.18075 726.88473 
L 1222.3899 726.767271 
L 1223.59905 724.816438 
L 1224.8082 725.015574 
L 1226.01735 727.125854 
L 1227.2265 728.071373 
L 1228.43565 727.378884 
L 1230.85395 727.188751 
L 1232.0631 729.438439 
L 1234.4814 729.425477 
L 1235.69055 729.028478 
L 1236.8997 728.212268 
L 1238.10885 730.54964 
L 1240.52715 731.420969 
L 1241.7363 730.488916 
L 1242.94545 730.441978 
L 1244.1546 733.27657 
L 1245.36375 735.254595 
L 1246.5729 731.605996 
L 1247.78205 730.885018 
L 1250.20035 730.901455 
L 1251.4095 732.713796 
L 1252.61865 732.83615 
L 1253.8278 732.224508 
L 1255.03695 728.441523 
L 1257.45525 728.368508 
L 1258.6644 729.367574 
L 1259.87355 728.286718 
L 1261.0827 730.295693 
L 1262.29185 730.233202 
L 1263.501 733.25047 
L 1264.71015 732.354775 
L 1265.9193 729.509453 
L 1267.12845 730.082572 
L 1268.3376 727.59271 
L 1269.54675 726.150467 
L 1271.96505 726.28901 
L 1273.1742 727.76081 
L 1274.38335 726.533167 
L 1275.5925 725.859878 
L 1276.80165 724.499715 
L 1280.4291 724.456294 
L 1281.63825 728.656846 
L 1282.8474 728.063392 
L 1284.05655 727.3143 
L 1285.2657 728.176471 
L 1286.47485 728.100834 
L 1287.684 728.157424 
L 1288.89315 728.568921 
L 1290.1023 726.04183 
L 1291.31145 726.314708 
L 1292.5206 724.341736 
L 1293.72975 723.800847 
L 1294.9389 723.779649 
L 1296.14805 724.250904 
L 1297.3572 726.372723 
L 1298.56635 726.539021 
L 1300.98465 725.9666 
L 1302.1938 725.334085 
L 1303.40295 727.284419 
L 1304.6121 727.237416 
L 1305.82125 726.020855 
L 1307.0304 726.008367 
L 1308.23955 726.304977 
L 1309.4487 725.427659 
L 1310.65785 725.034551 
L 1311.867 725.35004 
L 1313.07615 725.222197 
L 1314.2853 726.401676 
L 1315.49445 724.86462 
L 1316.7036 724.396509 
L 1317.91275 724.717959 
L 1319.1219 723.87596 
L 1320.33105 723.838267 
L 1321.5402 723.276117 
L 1322.74935 722.856315 
L 1323.9585 722.881175 
L 1325.16765 722.678721 
L 1326.3768 720.519672 
L 1330.00425 720.729931 
L 1332.42255 720.440255 
L 1333.6317 720.063273 
L 1334.84085 719.364193 
L 1336.05 719.751468 
L 1336.05 719.751468 
" style="fill:none;stroke:#0000ff;stroke-linecap:square;stroke-width:2.0;"/>
   </g>
   <g id="line2d_2">
    <path clip-path="url(#pe6d2519dbc)" d="M 128.10915 61.991462 
L 129.3183 62.03153 
L 130.52745 66.094893 
L 131.7366 66.121374 
L 132.94575 66.018917 
L 134.1549 67.417129 
L 135.36405 113.50989 
L 136.5732 119.23102 
L 137.78235 118.425153 
L 138.9915 124.464617 
L 141.4098 124.542233 
L 142.61895 143.683296 
L 143.8281 151.85312 
L 145.03725 162.982383 
L 146.2464 168.784549 
L 147.45555 168.81676 
L 148.6647 169.074547 
L 149.87385 170.241561 
L 151.083 177.058652 
L 152.29215 194.048034 
L 153.5013 192.900422 
L 154.71045 195.424821 
L 155.9196 195.375901 
L 158.3379 195.444974 
L 159.54705 223.303204 
L 160.7562 221.186909 
L 161.96535 223.574067 
L 163.1745 228.167325 
L 164.38365 228.22693 
L 166.80195 228.165773 
L 168.0111 242.791538 
L 169.22025 252.291824 
L 170.4294 251.534384 
L 171.63855 256.158945 
L 172.8477 254.853368 
L 174.05685 255.207728 
L 175.266 255.217705 
L 176.47515 260.628222 
L 177.6843 283.092521 
L 178.89345 286.641064 
L 180.1026 286.162928 
L 181.31175 286.72807 
L 182.5209 286.379849 
L 183.73005 304.003987 
L 186.14835 308.467188 
L 187.3575 305.77513 
L 188.56665 306.099823 
L 189.7758 307.41127 
L 190.98495 308.332827 
L 192.1941 295.334669 
L 193.40325 323.328297 
L 194.6124 322.12146 
L 195.82155 323.158009 
L 197.0307 326.097163 
L 198.23985 323.143267 
L 199.449 325.37225 
L 200.65815 338.226144 
L 201.8673 341.065931 
L 203.07645 342.828502 
L 204.2856 343.99729 
L 206.7039 343.984991 
L 207.91305 354.033013 
L 209.1222 353.2231 
L 210.33135 360.115513 
L 211.5405 361.980041 
L 212.74965 363.604782 
L 213.9588 363.77035 
L 215.16795 363.78958 
L 216.3771 368.10706 
L 217.58625 373.495851 
L 218.7954 370.978613 
L 220.00455 344.234285 
L 221.2137 369.956868 
L 222.42285 374.847506 
L 223.632 375.093206 
L 224.84115 373.158609 
L 226.0503 374.321465 
L 227.25945 377.020757 
L 228.4686 380.288474 
L 229.67775 381.049189 
L 230.8869 380.650417 
L 232.09605 379.399891 
L 233.3052 379.776216 
L 234.51435 379.559922 
L 235.7235 386.754249 
L 236.93265 390.134387 
L 238.1418 390.17845 
L 239.35095 391.465667 
L 241.76925 391.746367 
L 242.9784 392.214607 
L 244.18755 392.105582 
L 245.3967 389.164879 
L 246.60585 402.235486 
L 247.815 401.727207 
L 249.02415 401.465264 
L 250.2333 401.676768 
L 251.44245 402.668982 
L 252.6516 402.213575 
L 253.86075 410.015327 
L 255.0699 409.739392 
L 256.27905 411.243091 
L 257.4882 411.684494 
L 258.69735 410.520319 
L 259.9065 410.700674 
L 261.11565 411.272363 
L 262.3248 417.320816 
L 263.53395 416.427165 
L 264.7431 417.210298 
L 265.95225 422.295037 
L 267.1614 420.911095 
L 268.37055 423.327116 
L 269.5797 422.74579 
L 270.78885 431.35692 
L 271.998 430.583993 
L 273.20715 435.269821 
L 274.4163 436.326164 
L 275.62545 436.372387 
L 276.8346 440.029774 
L 278.04375 441.769699 
L 279.2529 439.440154 
L 280.46205 440.358508 
L 281.6712 440.02884 
L 282.88035 438.475529 
L 284.0895 438.408426 
L 285.29865 442.139183 
L 286.5078 440.852327 
L 287.71695 442.987343 
L 288.9261 442.078465 
L 290.13525 448.214687 
L 291.3444 445.567689 
L 292.55355 445.63871 
L 293.7627 444.806185 
L 294.97185 444.228892 
L 296.181 447.192161 
L 297.39015 449.509532 
L 298.5993 451.034542 
L 299.80845 450.811106 
L 301.0176 449.449167 
L 302.22675 448.94965 
L 303.4359 448.906989 
L 304.64505 453.955153 
L 305.8542 462.751686 
L 307.06335 463.12651 
L 308.2725 461.895795 
L 309.48165 462.836108 
L 311.89995 462.810203 
L 313.1091 461.450771 
L 314.31825 467.039577 
L 315.5274 467.929427 
L 316.73655 466.567699 
L 317.9457 470.589188 
L 320.364 470.643334 
L 321.57315 472.73908 
L 323.99145 472.992802 
L 325.2006 475.451065 
L 326.40975 480.51799 
L 327.6189 480.658716 
L 328.82805 480.651045 
L 330.0372 480.334444 
L 331.24635 479.386726 
L 332.4555 477.782536 
L 333.66465 478.25463 
L 334.8738 480.329695 
L 336.08295 478.973308 
L 337.2921 479.065326 
L 338.50125 479.020657 
L 339.7104 480.190537 
L 340.91955 478.293471 
L 342.1287 478.678688 
L 344.547 485.295297 
L 345.75615 485.420923 
L 346.9653 486.097447 
L 348.17445 484.981475 
L 349.3836 486.467786 
L 350.59275 487.752893 
L 351.8019 489.470627 
L 353.01105 488.172173 
L 354.2202 488.356367 
L 355.42935 489.621424 
L 356.6385 488.811287 
L 357.84765 486.24973 
L 359.0568 486.426072 
L 360.26595 487.130227 
L 361.4751 488.812269 
L 362.68425 488.436312 
L 363.8934 488.505569 
L 365.10255 488.146517 
L 366.3117 494.640856 
L 368.73 495.561246 
L 369.93915 497.10378 
L 371.1483 495.596012 
L 372.35745 493.68797 
L 373.5666 498.133046 
L 374.77575 503.087524 
L 375.9849 504.030998 
L 377.19405 506.198591 
L 378.4032 506.64846 
L 379.61235 505.05314 
L 380.8215 499.782418 
L 382.03065 499.175267 
L 383.2398 501.083696 
L 384.44895 504.040051 
L 386.86725 502.945201 
L 388.0764 503.225012 
L 389.28555 499.542263 
L 390.4947 499.276131 
L 391.70385 499.591473 
L 392.913 505.487812 
L 394.12215 506.700575 
L 395.3313 506.184167 
L 396.54045 508.401778 
L 397.7496 511.722655 
L 398.95875 511.334342 
L 400.1679 511.369991 
L 401.37705 513.612793 
L 402.5862 517.312744 
L 403.79535 517.865518 
L 405.0045 516.728622 
L 406.21365 521.229148 
L 407.4228 524.312648 
L 408.63195 524.204588 
L 409.8411 522.316295 
L 411.05025 521.457727 
L 412.2594 522.749939 
L 413.46855 522.915973 
L 414.6777 523.537983 
L 415.88685 524.70131 
L 417.096 524.238499 
L 418.30515 524.236114 
L 419.5143 530.645734 
L 420.72345 529.310165 
L 421.9326 530.854702 
L 423.14175 531.055251 
L 424.3509 529.928813 
L 425.56005 529.513476 
L 427.97835 529.27965 
L 429.1875 534.400723 
L 430.39665 533.85593 
L 431.6058 534.622816 
L 432.81495 534.615322 
L 434.0241 537.369131 
L 435.23325 535.096062 
L 436.4424 536.132895 
L 437.65155 536.935936 
L 438.8607 539.752807 
L 440.06985 539.898919 
L 442.48815 540.852809 
L 443.6973 537.267452 
L 444.90645 539.945075 
L 446.1156 539.845181 
L 447.32475 539.895327 
L 448.5339 542.586844 
L 449.74305 541.684196 
L 450.9522 542.010914 
L 452.16135 544.402653 
L 453.3705 552.318194 
L 454.57965 552.530942 
L 455.7888 552.413207 
L 456.99795 552.095599 
L 458.2071 549.119943 
L 459.41625 549.178617 
L 460.6254 549.04157 
L 461.83455 548.658789 
L 463.0437 549.651713 
L 465.462 549.615973 
L 466.67115 550.200193 
L 467.8803 553.621365 
L 469.08945 553.964224 
L 470.2986 557.141335 
L 471.50775 553.706168 
L 472.7169 553.596774 
L 473.92605 553.669446 
L 475.1352 553.859759 
L 476.34435 556.916105 
L 477.5535 560.992643 
L 478.76265 559.595857 
L 479.9718 556.384102 
L 481.18095 558.078425 
L 482.3901 556.526621 
L 483.59925 556.394137 
L 484.8084 563.359581 
L 486.01755 563.394846 
L 487.2267 564.78625 
L 488.43585 563.149251 
L 489.645 563.341944 
L 490.85415 560.196127 
L 492.0633 560.312812 
L 493.27245 561.012493 
L 494.4816 560.615343 
L 495.69075 564.647209 
L 496.8999 564.765206 
L 498.10905 567.4951 
L 500.52735 567.408921 
L 502.94565 566.891081 
L 504.1548 566.356452 
L 505.36395 565.485837 
L 506.5731 565.457652 
L 507.78225 564.936467 
L 508.9914 566.298507 
L 510.20055 566.511107 
L 511.4097 566.208007 
L 512.61885 568.552153 
L 513.828 575.637124 
L 515.03715 576.038477 
L 516.2463 576.181379 
L 517.45545 576.089142 
L 518.6646 576.339465 
L 519.87375 575.775898 
L 521.0829 574.624094 
L 522.29205 574.434251 
L 523.5012 573.411467 
L 524.71035 573.954578 
L 525.9195 572.451666 
L 527.12865 573.89339 
L 528.3378 574.433069 
L 529.54695 573.508488 
L 530.7561 577.100631 
L 531.96525 576.884881 
L 533.1744 581.764 
L 534.38355 581.924487 
L 535.5927 582.437422 
L 536.80185 581.419851 
L 538.011 581.740373 
L 539.22015 579.268211 
L 540.4293 578.0857 
L 541.63845 578.185452 
L 542.8476 586.294757 
L 544.05675 586.128587 
L 545.2659 586.466701 
L 546.47505 584.986216 
L 547.6842 582.769146 
L 548.89335 582.461864 
L 550.1025 574.639127 
L 551.31165 574.805381 
L 552.5208 582.282241 
L 553.72995 581.88104 
L 554.9391 581.73442 
L 556.14825 581.890462 
L 557.3574 582.219791 
L 558.56655 584.296426 
L 559.7757 592.555824 
L 560.98485 592.498751 
L 562.194 591.897492 
L 565.82145 592.040775 
L 567.0306 591.812796 
L 568.23975 591.781971 
L 569.4489 594.730794 
L 570.65805 594.594552 
L 571.8672 593.930198 
L 574.2855 593.740592 
L 575.49465 594.025897 
L 576.7038 593.366945 
L 577.91295 594.964484 
L 579.1221 597.208812 
L 580.33125 597.127339 
L 581.5404 594.239109 
L 582.74955 594.062054 
L 583.9587 594.228799 
L 585.16785 594.164052 
L 586.377 594.58282 
L 587.58615 598.968842 
L 588.7953 598.850297 
L 590.00445 597.764773 
L 591.2136 596.094603 
L 592.42275 593.268923 
L 593.6319 594.313598 
L 594.84105 594.775102 
L 596.0502 595.017873 
L 597.25935 598.743177 
L 598.4685 598.445748 
L 600.8868 597.446471 
L 602.09595 598.569638 
L 603.3051 598.849688 
L 604.51425 598.462921 
L 605.7234 598.578713 
L 606.93255 598.86726 
L 609.35085 598.851196 
L 610.56 607.825054 
L 611.76915 608.040368 
L 612.9783 609.099104 
L 614.18745 606.357473 
L 615.3966 604.440105 
L 616.60575 603.524652 
L 617.8149 603.430413 
L 619.02405 603.459053 
L 620.2332 607.110498 
L 621.44235 607.829297 
L 622.6515 611.012624 
L 623.86065 611.123633 
L 625.0698 611.668549 
L 626.27895 611.120461 
L 627.4881 610.713969 
L 628.69725 609.305109 
L 629.9064 609.467238 
L 631.11555 609.103018 
L 632.3247 609.518158 
L 633.53385 607.510126 
L 635.95215 611.283338 
L 637.1613 611.372022 
L 638.37045 612.371311 
L 639.5796 610.256693 
L 641.9979 610.254148 
L 643.20705 610.703469 
L 644.4162 619.891467 
L 646.8345 619.749848 
L 648.04365 612.998055 
L 649.2528 615.528547 
L 651.6711 615.527774 
L 652.88025 617.70582 
L 654.0894 622.699997 
L 655.29855 623.405181 
L 656.5077 623.272623 
L 657.71685 619.697768 
L 658.926 620.129505 
L 661.3443 620.107919 
L 662.55345 620.403962 
L 663.7626 622.86435 
L 664.97175 622.599857 
L 666.1809 622.465174 
L 667.39005 622.806896 
L 668.5992 627.917679 
L 669.80835 628.26204 
L 671.0175 628.230697 
L 672.22665 629.44559 
L 673.4358 629.275158 
L 674.64495 628.884169 
L 675.8541 629.184375 
L 677.06325 629.29898 
L 678.2724 627.94972 
L 679.48155 627.926468 
L 680.6907 627.726407 
L 681.89985 630.249659 
L 684.31815 630.370051 
L 685.5273 629.299514 
L 686.73645 629.729672 
L 687.9456 628.82399 
L 689.15475 628.860215 
L 690.3639 624.657726 
L 691.57305 629.588816 
L 692.7822 630.069217 
L 693.99135 629.157668 
L 695.2005 629.314988 
L 696.40965 628.623734 
L 697.6188 629.104648 
L 698.82795 628.993744 
L 700.0371 630.714996 
L 701.24625 635.729804 
L 702.4554 636.065985 
L 703.66455 635.913959 
L 704.8737 636.207317 
L 706.08285 629.647461 
L 707.292 629.639529 
L 708.50115 628.805126 
L 709.7103 632.490768 
L 710.91945 638.272997 
L 712.1286 637.376569 
L 713.33775 637.770157 
L 714.5469 637.958825 
L 716.9652 638.03145 
L 718.17435 639.842671 
L 719.3835 637.243288 
L 720.59265 641.237325 
L 721.8018 641.106011 
L 723.01095 642.192515 
L 724.2201 641.224487 
L 725.42925 639.261503 
L 726.6384 639.167008 
L 727.84755 641.429134 
L 729.0567 642.875502 
L 730.26585 643.44713 
L 731.475 642.929584 
L 732.68415 643.537234 
L 733.8933 642.343598 
L 735.10245 641.327294 
L 736.3116 641.417166 
L 737.52075 641.134436 
L 738.7299 641.046692 
L 739.93905 647.736342 
L 741.1482 647.56956 
L 742.35735 647.594745 
L 743.5665 646.485633 
L 744.77565 642.744574 
L 745.9848 642.875261 
L 747.19395 642.758647 
L 748.4031 647.28572 
L 749.61225 649.085288 
L 750.8214 648.941015 
L 753.2397 649.008553 
L 754.44885 647.221427 
L 756.86715 647.242819 
L 758.0763 645.600972 
L 759.28545 647.251873 
L 760.4946 647.400918 
L 761.70375 646.763499 
L 762.9129 647.240341 
L 764.12205 643.631264 
L 765.3312 643.523567 
L 766.54035 643.745606 
L 767.7495 653.023538 
L 768.95865 654.660868 
L 772.5861 654.684116 
L 773.79525 657.321625 
L 775.0044 657.655014 
L 776.21355 657.312368 
L 777.4227 659.796926 
L 779.841 659.530121 
L 781.05015 659.947814 
L 782.2593 662.235552 
L 783.46845 659.12521 
L 785.88675 659.166214 
L 787.0959 656.846374 
L 788.30505 656.121834 
L 789.5142 657.127382 
L 790.72335 656.988603 
L 791.9325 659.373385 
L 795.55995 659.186462 
L 796.7691 660.933598 
L 797.97825 661.073367 
L 799.1874 661.390353 
L 801.6057 661.074257 
L 802.81485 660.863886 
L 805.23315 660.795708 
L 806.4423 661.140577 
L 808.8606 660.946623 
L 810.06975 658.479647 
L 811.2789 657.361162 
L 814.90635 657.358719 
L 816.1155 663.334022 
L 817.32465 662.805613 
L 818.5338 662.838404 
L 819.74295 661.553991 
L 820.9521 661.524541 
L 822.16125 661.126039 
L 823.3704 661.465134 
L 824.57955 661.361375 
L 825.7887 668.266346 
L 828.207 668.282966 
L 829.41615 665.580168 
L 830.6253 665.717607 
L 831.83445 665.641329 
L 833.0436 664.716402 
L 834.25275 664.051148 
L 835.4619 666.858904 
L 836.67105 666.837549 
L 837.8802 666.60678 
L 839.08935 664.082939 
L 840.2985 663.91601 
L 841.50765 664.149998 
L 842.7168 661.888717 
L 843.92595 665.016256 
L 845.1351 664.710528 
L 846.34425 664.932966 
L 847.5534 664.664601 
L 848.76255 666.986955 
L 849.9717 667.088375 
L 851.18085 666.778264 
L 852.39 666.89231 
L 853.59915 667.252854 
L 854.8083 669.775093 
L 856.01745 670.143143 
L 857.2266 670.172436 
L 858.43575 673.322241 
L 860.85405 673.253388 
L 862.0632 675.671945 
L 863.27235 676.670638 
L 864.4815 669.800394 
L 865.69065 669.959908 
L 866.8998 669.941389 
L 868.10895 666.945266 
L 869.3181 666.969884 
L 870.52725 666.808408 
L 871.7364 664.972834 
L 872.94555 666.656147 
L 874.1547 672.613736 
L 875.36385 672.686963 
L 876.573 668.999128 
L 877.78215 667.814909 
L 878.9913 667.788514 
L 880.20045 668.006646 
L 881.4096 670.98663 
L 882.61875 672.377606 
L 883.8279 672.82573 
L 885.03705 672.217846 
L 886.2462 671.428159 
L 887.45535 671.265865 
L 888.6645 671.749569 
L 889.87365 673.986405 
L 891.0828 668.73827 
L 892.29195 675.660654 
L 893.5011 672.320766 
L 894.71025 672.441376 
L 895.9194 674.315703 
L 897.12855 674.547745 
L 898.3377 675.43486 
L 899.54685 674.242471 
L 900.756 674.770065 
L 901.96515 674.837837 
L 903.1743 676.021853 
L 904.38345 676.134596 
L 905.5926 678.146921 
L 906.80175 678.549569 
L 908.0109 678.160344 
L 910.4292 678.009204 
L 911.63835 675.717405 
L 912.8475 679.229105 
L 914.05665 679.371185 
L 915.2658 682.173555 
L 916.47495 680.097629 
L 918.89325 680.009338 
L 920.1024 683.286384 
L 921.31155 680.800206 
L 922.5207 681.067549 
L 923.72985 680.979685 
L 924.939 680.717591 
L 926.14815 677.228782 
L 927.3573 676.650137 
L 928.56645 676.418579 
L 929.7756 684.298471 
L 932.1939 684.328526 
L 933.40305 685.800967 
L 934.6122 688.176539 
L 935.82135 683.492173 
L 937.0305 683.566485 
L 939.4488 683.445301 
L 940.65795 683.494169 
L 941.8671 682.566476 
L 943.07625 687.495805 
L 944.2854 685.717086 
L 945.49455 685.912382 
L 946.7037 685.805774 
L 947.91285 685.918378 
L 949.122 683.311956 
L 951.5403 683.28891 
L 953.9586 686.388585 
L 955.16775 686.485427 
L 956.3769 686.444057 
L 957.58605 688.850645 
L 958.7952 680.357784 
L 960.00435 680.266346 
L 961.2135 680.301105 
L 962.42265 684.349138 
L 963.6318 689.465639 
L 966.0501 689.30978 
L 967.25925 683.506754 
L 968.4684 683.913624 
L 969.67755 683.9822 
L 970.8867 683.837783 
L 972.09585 689.99971 
L 973.305 690.306977 
L 974.51415 687.973269 
L 975.7233 692.788943 
L 976.93245 688.914653 
L 978.1416 683.299705 
L 979.35075 683.244442 
L 980.5599 688.526191 
L 981.76905 688.505785 
L 982.9782 692.94501 
L 984.18735 692.118129 
L 985.3965 691.724402 
L 986.60565 689.166649 
L 987.8148 689.76764 
L 989.02395 689.055324 
L 990.2331 693.13736 
L 991.44225 694.474972 
L 992.6514 700.090154 
L 993.86055 700.272439 
L 995.0697 697.795916 
L 996.27885 696.828299 
L 997.488 696.942812 
L 998.69715 696.751511 
L 999.9063 688.56295 
L 1001.11545 693.595105 
L 1002.3246 695.47703 
L 1003.53375 695.366849 
L 1004.7429 699.966444 
L 1005.95205 699.667391 
L 1007.1612 700.109623 
L 1008.37035 700.161574 
L 1009.5795 697.043646 
L 1010.78865 698.671113 
L 1011.9978 700.063541 
L 1013.20695 700.00378 
L 1014.4161 694.434966 
L 1015.62525 694.275284 
L 1016.8344 694.589459 
L 1018.04355 692.710076 
L 1019.2527 693.781471 
L 1020.46185 697.477893 
L 1021.671 696.865493 
L 1022.88015 696.89699 
L 1024.0893 697.929021 
L 1025.29845 694.584071 
L 1027.71675 694.462479 
L 1028.9259 700.423497 
L 1031.3442 697.667485 
L 1032.55335 697.74459 
L 1033.7625 702.15735 
L 1034.97165 703.268427 
L 1036.1808 703.383424 
L 1037.38995 702.813866 
L 1038.5991 704.284649 
L 1039.80825 701.447861 
L 1041.0174 701.046298 
L 1042.22655 700.945378 
L 1043.4357 706.355055 
L 1044.64485 699.252513 
L 1045.854 697.675949 
L 1047.06315 698.445269 
L 1048.2723 700.862844 
L 1049.48145 700.085074 
L 1050.6906 700.833839 
L 1051.89975 701.175767 
L 1053.1089 701.968466 
L 1054.31805 705.782848 
L 1055.5272 704.683203 
L 1056.73635 702.348428 
L 1057.9455 705.721711 
L 1059.15465 705.768234 
L 1060.3638 705.413341 
L 1061.57295 710.618179 
L 1062.7821 712.055582 
L 1063.99125 709.67923 
L 1065.2004 709.282917 
L 1066.40955 709.477635 
L 1067.6187 708.955448 
L 1068.82785 708.765557 
L 1070.037 708.875527 
L 1071.24615 707.843188 
L 1072.4553 709.018634 
L 1073.66445 709.377535 
L 1074.8736 709.279376 
L 1076.08275 709.349658 
L 1077.2919 708.937946 
L 1079.7102 708.880665 
L 1080.91935 707.694449 
L 1082.1285 707.653267 
L 1083.33765 704.871205 
L 1084.5468 704.873295 
L 1085.75595 710.272705 
L 1086.9651 710.210416 
L 1088.17425 708.222822 
L 1089.3834 710.302174 
L 1090.59255 711.384181 
L 1091.8017 713.098569 
L 1093.01085 716.228107 
L 1094.22 714.543606 
L 1095.42915 715.628155 
L 1096.6383 715.29296 
L 1097.84745 715.187189 
L 1099.0566 712.564432 
L 1100.26575 710.555642 
L 1101.4749 711.56193 
L 1102.68405 710.077753 
L 1105.10235 714.334235 
L 1106.3115 714.092053 
L 1107.52065 714.078941 
L 1108.7298 716.867553 
L 1109.93895 721.010912 
L 1111.1481 722.819918 
L 1112.35725 722.112699 
L 1113.5664 723.066368 
L 1114.77555 719.958813 
L 1115.9847 720.552322 
L 1117.19385 719.959199 
L 1118.403 715.600644 
L 1119.61215 718.063092 
L 1120.8213 716.471263 
L 1122.03045 717.926601 
L 1125.6579 716.974091 
L 1126.86705 717.791655 
L 1128.0762 712.847344 
L 1130.4945 713.024147 
L 1131.70365 715.191564 
L 1132.9128 716.749626 
L 1134.12195 716.934754 
L 1135.3311 716.877093 
L 1136.54025 716.948484 
L 1137.7494 719.017961 
L 1138.95855 718.350123 
L 1140.1677 718.937734 
L 1141.37685 718.946616 
L 1142.586 710.661786 
L 1143.79515 715.11352 
L 1145.0043 717.138726 
L 1146.21345 716.992385 
L 1147.4226 719.981598 
L 1151.05005 720.047582 
L 1153.46835 717.922679 
L 1154.6775 718.966507 
L 1155.88665 718.827669 
L 1157.0958 718.574961 
L 1160.72325 718.879111 
L 1161.9324 722.616524 
L 1163.14155 722.891363 
L 1164.3507 722.380056 
L 1165.55985 722.357605 
L 1166.769 720.53317 
L 1169.1873 719.284457 
L 1170.39645 722.584906 
L 1171.6056 721.317374 
L 1174.0239 721.177624 
L 1175.23305 721.274459 
L 1176.4422 718.29739 
L 1177.65135 718.1905 
L 1178.8605 722.893319 
L 1180.06965 720.452707 
L 1181.2788 720.638652 
L 1182.48795 719.833732 
L 1183.6971 720.289545 
L 1184.90625 720.303066 
L 1186.1154 719.770891 
L 1187.32455 719.902227 
L 1188.5337 720.74789 
L 1189.74285 723.995627 
L 1190.952 722.095808 
L 1192.16115 721.798073 
L 1193.3703 722.313394 
L 1194.57945 723.422004 
L 1195.7886 722.037611 
L 1196.99775 722.576498 
L 1198.2069 722.644168 
L 1199.41605 721.505785 
L 1200.6252 722.249288 
L 1201.83435 722.078011 
L 1203.0435 722.10978 
L 1204.25265 719.893947 
L 1205.4618 720.77854 
L 1206.67095 721.259353 
L 1207.8801 721.065446 
L 1209.08925 721.800886 
L 1210.2984 721.873145 
L 1211.50755 722.836227 
L 1212.7167 721.917933 
L 1213.92585 726.140618 
L 1215.135 725.484787 
L 1216.34415 726.049378 
L 1217.5533 725.648908 
L 1218.76245 723.877095 
L 1219.9716 724.191383 
L 1221.18075 723.799847 
L 1222.3899 724.191248 
L 1223.59905 727.118453 
L 1226.01735 727.013866 
L 1227.2265 724.742371 
L 1228.43565 726.102783 
L 1229.6448 726.786508 
L 1230.85395 726.855426 
L 1232.0631 724.115618 
L 1233.27225 727.809617 
L 1235.69055 727.665815 
L 1236.8997 727.836152 
L 1238.10885 729.296312 
L 1239.318 728.339459 
L 1240.52715 728.318693 
L 1241.7363 729.004141 
L 1242.94545 726.247685 
L 1244.1546 726.427571 
L 1245.36375 726.431494 
L 1246.5729 726.122024 
L 1247.78205 734.80076 
L 1250.20035 735.013344 
L 1251.4095 729.052679 
L 1252.61865 730.383356 
L 1253.8278 729.548787 
L 1255.03695 729.64444 
L 1256.2461 729.445832 
L 1257.45525 731.500311 
L 1258.6644 731.542423 
L 1259.87355 731.232216 
L 1261.0827 729.950242 
L 1262.29185 729.771811 
L 1263.501 729.99436 
L 1264.71015 729.682895 
L 1265.9193 733.438686 
L 1267.12845 729.983921 
L 1269.54675 730.343419 
L 1271.96505 728.633528 
L 1273.1742 729.198704 
L 1274.38335 728.244382 
L 1275.5925 732.769968 
L 1276.80165 732.533426 
L 1278.0108 732.701079 
L 1279.21995 732.313344 
L 1280.4291 734.742349 
L 1282.8474 734.721725 
L 1284.05655 737.192732 
L 1285.2657 738.430059 
L 1286.47485 738.576373 
L 1287.684 739.34173 
L 1288.89315 737.960281 
L 1290.1023 737.603555 
L 1291.31145 737.721982 
L 1292.5206 735.823702 
L 1293.72975 741.318783 
L 1296.14805 741.47964 
L 1297.3572 734.347533 
L 1298.56635 732.93068 
L 1299.7755 732.840873 
L 1300.98465 732.547305 
L 1302.1938 730.881193 
L 1304.6121 730.868689 
L 1305.82125 735.860716 
L 1308.23955 735.802737 
L 1309.4487 740.896101 
L 1311.867 740.913743 
L 1313.07615 737.408028 
L 1317.91275 736.853803 
L 1319.1219 733.859153 
L 1320.33105 734.144495 
L 1321.5402 734.838144 
L 1322.74935 735.057997 
L 1323.9585 733.706517 
L 1325.16765 733.291425 
L 1326.3768 732.732894 
L 1327.58595 733.372656 
L 1328.7951 733.390783 
L 1330.00425 733.232128 
L 1331.2134 732.7666 
L 1332.42255 732.792338 
L 1333.6317 732.078764 
L 1334.84085 731.981844 
L 1336.05 732.06276 
L 1336.05 732.06276 
" style="fill:none;stroke:#008000;stroke-linecap:square;stroke-width:2.0;"/>
   </g>
   <g id="patch_3">
    <path d="M 126.9 51.3 
L 1336.05 51.3 
" style="fill:none;stroke:#000000;stroke-linecap:square;stroke-linejoin:miter;"/>
   </g>
   <g id="patch_4">
    <path d="M 1336.05 747 
L 1336.05 51.3 
" style="fill:none;stroke:#000000;stroke-linecap:square;stroke-linejoin:miter;"/>
   </g>
   <g id="patch_5">
    <path d="M 126.9 747 
L 1336.05 747 
" style="fill:none;stroke:#000000;stroke-linecap:square;stroke-linejoin:miter;"/>
   </g>
   <g id="patch_6">
    <path d="M 126.9 747 
L 126.9 51.3 
" style="fill:none;stroke:#000000;stroke-linecap:square;stroke-linejoin:miter;"/>
   </g>
   <g id="matplotlib.axis_1">
    <g id="xtick_1">
     <g id="line2d_3">
      <defs>
       <path d="M 0 0 
L 0 -4 
" id="m9e53cfb805" style="stroke:#000000;stroke-width:0.5;"/>
      </defs>
      <g>
       <use style="stroke:#000000;stroke-width:0.5;" x="126.9" xlink:href="#m9e53cfb805" y="747.0"/>
      </g>
     </g>
     <g id="line2d_4">
      <defs>
       <path d="M 0 0 
L 0 4 
" id="m520474616c" style="stroke:#000000;stroke-width:0.5;"/>
      </defs>
      <g>
       <use style="stroke:#000000;stroke-width:0.5;" x="126.9" xlink:href="#m520474616c" y="51.3"/>
      </g>
     </g>
     <g id="text_1">
      <!-- 0 -->
      <defs>
       <path d="M 31.78125 66.40625 
Q 24.171875 66.40625 20.328125 58.90625 
Q 16.5 51.421875 16.5 36.375 
Q 16.5 21.390625 20.328125 13.890625 
Q 24.171875 6.390625 31.78125 6.390625 
Q 39.453125 6.390625 43.28125 13.890625 
Q 47.125 21.390625 47.125 36.375 
Q 47.125 51.421875 43.28125 58.90625 
Q 39.453125 66.40625 31.78125 66.40625 
M 31.78125 74.21875 
Q 44.046875 74.21875 50.515625 64.515625 
Q 56.984375 54.828125 56.984375 36.375 
Q 56.984375 17.96875 50.515625 8.265625 
Q 44.046875 -1.421875 31.78125 -1.421875 
Q 19.53125 -1.421875 13.0625 8.265625 
Q 6.59375 17.96875 6.59375 36.375 
Q 6.59375 54.828125 13.0625 64.515625 
Q 19.53125 74.21875 31.78125 74.21875 
" id="BitstreamVeraSans-Roman-30"/>
      </defs>
      <g transform="translate(117.35625 773.7953125)scale(0.3 -0.3)">
       <use xlink:href="#BitstreamVeraSans-Roman-30"/>
      </g>
     </g>
    </g>
    <g id="xtick_2">
     <g id="line2d_5">
      <g>
       <use style="stroke:#000000;stroke-width:0.5;" x="368.73" xlink:href="#m9e53cfb805" y="747.0"/>
      </g>
     </g>
     <g id="line2d_6">
      <g>
       <use style="stroke:#000000;stroke-width:0.5;" x="368.73" xlink:href="#m520474616c" y="51.3"/>
      </g>
     </g>
     <g id="text_2">
      <!-- 20000 -->
      <defs>
       <path d="M 19.1875 8.296875 
L 53.609375 8.296875 
L 53.609375 0 
L 7.328125 0 
L 7.328125 8.296875 
Q 12.9375 14.109375 22.625 23.890625 
Q 32.328125 33.6875 34.8125 36.53125 
Q 39.546875 41.84375 41.421875 45.53125 
Q 43.3125 49.21875 43.3125 52.78125 
Q 43.3125 58.59375 39.234375 62.25 
Q 35.15625 65.921875 28.609375 65.921875 
Q 23.96875 65.921875 18.8125 64.3125 
Q 13.671875 62.703125 7.8125 59.421875 
L 7.8125 69.390625 
Q 13.765625 71.78125 18.9375 73 
Q 24.125 74.21875 28.421875 74.21875 
Q 39.75 74.21875 46.484375 68.546875 
Q 53.21875 62.890625 53.21875 53.421875 
Q 53.21875 48.921875 51.53125 44.890625 
Q 49.859375 40.875 45.40625 35.40625 
Q 44.1875 33.984375 37.640625 27.21875 
Q 31.109375 20.453125 19.1875 8.296875 
" id="BitstreamVeraSans-Roman-32"/>
      </defs>
      <g transform="translate(321.01125 773.7953125)scale(0.3 -0.3)">
       <use xlink:href="#BitstreamVeraSans-Roman-32"/>
       <use x="63.623046875" xlink:href="#BitstreamVeraSans-Roman-30"/>
       <use x="127.24609375" xlink:href="#BitstreamVeraSans-Roman-30"/>
       <use x="190.869140625" xlink:href="#BitstreamVeraSans-Roman-30"/>
       <use x="254.4921875" xlink:href="#BitstreamVeraSans-Roman-30"/>
      </g>
     </g>
    </g>
    <g id="xtick_3">
     <g id="line2d_7">
      <g>
       <use style="stroke:#000000;stroke-width:0.5;" x="610.56" xlink:href="#m9e53cfb805" y="747.0"/>
      </g>
     </g>
     <g id="line2d_8">
      <g>
       <use style="stroke:#000000;stroke-width:0.5;" x="610.56" xlink:href="#m520474616c" y="51.3"/>
      </g>
     </g>
     <g id="text_3">
      <!-- 40000 -->
      <defs>
       <path d="M 37.796875 64.3125 
L 12.890625 25.390625 
L 37.796875 25.390625 
z
M 35.203125 72.90625 
L 47.609375 72.90625 
L 47.609375 25.390625 
L 58.015625 25.390625 
L 58.015625 17.1875 
L 47.609375 17.1875 
L 47.609375 0 
L 37.796875 0 
L 37.796875 17.1875 
L 4.890625 17.1875 
L 4.890625 26.703125 
z
" id="BitstreamVeraSans-Roman-34"/>
      </defs>
      <g transform="translate(562.84125 773.7953125)scale(0.3 -0.3)">
       <use xlink:href="#BitstreamVeraSans-Roman-34"/>
       <use x="63.623046875" xlink:href="#BitstreamVeraSans-Roman-30"/>
       <use x="127.24609375" xlink:href="#BitstreamVeraSans-Roman-30"/>
       <use x="190.869140625" xlink:href="#BitstreamVeraSans-Roman-30"/>
       <use x="254.4921875" xlink:href="#BitstreamVeraSans-Roman-30"/>
      </g>
     </g>
    </g>
    <g id="xtick_4">
     <g id="line2d_9">
      <g>
       <use style="stroke:#000000;stroke-width:0.5;" x="852.39" xlink:href="#m9e53cfb805" y="747.0"/>
      </g>
     </g>
     <g id="line2d_10">
      <g>
       <use style="stroke:#000000;stroke-width:0.5;" x="852.39" xlink:href="#m520474616c" y="51.3"/>
      </g>
     </g>
     <g id="text_4">
      <!-- 60000 -->
      <defs>
       <path d="M 33.015625 40.375 
Q 26.375 40.375 22.484375 35.828125 
Q 18.609375 31.296875 18.609375 23.390625 
Q 18.609375 15.53125 22.484375 10.953125 
Q 26.375 6.390625 33.015625 6.390625 
Q 39.65625 6.390625 43.53125 10.953125 
Q 47.40625 15.53125 47.40625 23.390625 
Q 47.40625 31.296875 43.53125 35.828125 
Q 39.65625 40.375 33.015625 40.375 
M 52.59375 71.296875 
L 52.59375 62.3125 
Q 48.875 64.0625 45.09375 64.984375 
Q 41.3125 65.921875 37.59375 65.921875 
Q 27.828125 65.921875 22.671875 59.328125 
Q 17.53125 52.734375 16.796875 39.40625 
Q 19.671875 43.65625 24.015625 45.921875 
Q 28.375 48.1875 33.59375 48.1875 
Q 44.578125 48.1875 50.953125 41.515625 
Q 57.328125 34.859375 57.328125 23.390625 
Q 57.328125 12.15625 50.6875 5.359375 
Q 44.046875 -1.421875 33.015625 -1.421875 
Q 20.359375 -1.421875 13.671875 8.265625 
Q 6.984375 17.96875 6.984375 36.375 
Q 6.984375 53.65625 15.1875 63.9375 
Q 23.390625 74.21875 37.203125 74.21875 
Q 40.921875 74.21875 44.703125 73.484375 
Q 48.484375 72.75 52.59375 71.296875 
" id="BitstreamVeraSans-Roman-36"/>
      </defs>
      <g transform="translate(804.67125 773.7953125)scale(0.3 -0.3)">
       <use xlink:href="#BitstreamVeraSans-Roman-36"/>
       <use x="63.623046875" xlink:href="#BitstreamVeraSans-Roman-30"/>
       <use x="127.24609375" xlink:href="#BitstreamVeraSans-Roman-30"/>
       <use x="190.869140625" xlink:href="#BitstreamVeraSans-Roman-30"/>
       <use x="254.4921875" xlink:href="#BitstreamVeraSans-Roman-30"/>
      </g>
     </g>
    </g>
    <g id="xtick_5">
     <g id="line2d_11">
      <g>
       <use style="stroke:#000000;stroke-width:0.5;" x="1094.22" xlink:href="#m9e53cfb805" y="747.0"/>
      </g>
     </g>
     <g id="line2d_12">
      <g>
       <use style="stroke:#000000;stroke-width:0.5;" x="1094.22" xlink:href="#m520474616c" y="51.3"/>
      </g>
     </g>
     <g id="text_5">
      <!-- 80000 -->
      <defs>
       <path d="M 31.78125 34.625 
Q 24.75 34.625 20.71875 30.859375 
Q 16.703125 27.09375 16.703125 20.515625 
Q 16.703125 13.921875 20.71875 10.15625 
Q 24.75 6.390625 31.78125 6.390625 
Q 38.8125 6.390625 42.859375 10.171875 
Q 46.921875 13.96875 46.921875 20.515625 
Q 46.921875 27.09375 42.890625 30.859375 
Q 38.875 34.625 31.78125 34.625 
M 21.921875 38.8125 
Q 15.578125 40.375 12.03125 44.71875 
Q 8.5 49.078125 8.5 55.328125 
Q 8.5 64.0625 14.71875 69.140625 
Q 20.953125 74.21875 31.78125 74.21875 
Q 42.671875 74.21875 48.875 69.140625 
Q 55.078125 64.0625 55.078125 55.328125 
Q 55.078125 49.078125 51.53125 44.71875 
Q 48 40.375 41.703125 38.8125 
Q 48.828125 37.15625 52.796875 32.3125 
Q 56.78125 27.484375 56.78125 20.515625 
Q 56.78125 9.90625 50.3125 4.234375 
Q 43.84375 -1.421875 31.78125 -1.421875 
Q 19.734375 -1.421875 13.25 4.234375 
Q 6.78125 9.90625 6.78125 20.515625 
Q 6.78125 27.484375 10.78125 32.3125 
Q 14.796875 37.15625 21.921875 38.8125 
M 18.3125 54.390625 
Q 18.3125 48.734375 21.84375 45.5625 
Q 25.390625 42.390625 31.78125 42.390625 
Q 38.140625 42.390625 41.71875 45.5625 
Q 45.3125 48.734375 45.3125 54.390625 
Q 45.3125 60.0625 41.71875 63.234375 
Q 38.140625 66.40625 31.78125 66.40625 
Q 25.390625 66.40625 21.84375 63.234375 
Q 18.3125 60.0625 18.3125 54.390625 
" id="BitstreamVeraSans-Roman-38"/>
      </defs>
      <g transform="translate(1046.50125 773.7953125)scale(0.3 -0.3)">
       <use xlink:href="#BitstreamVeraSans-Roman-38"/>
       <use x="63.623046875" xlink:href="#BitstreamVeraSans-Roman-30"/>
       <use x="127.24609375" xlink:href="#BitstreamVeraSans-Roman-30"/>
       <use x="190.869140625" xlink:href="#BitstreamVeraSans-Roman-30"/>
       <use x="254.4921875" xlink:href="#BitstreamVeraSans-Roman-30"/>
      </g>
     </g>
    </g>
    <g id="xtick_6">
     <g id="line2d_13">
      <g>
       <use style="stroke:#000000;stroke-width:0.5;" x="1336.05" xlink:href="#m9e53cfb805" y="747.0"/>
      </g>
     </g>
     <g id="line2d_14">
      <g>
       <use style="stroke:#000000;stroke-width:0.5;" x="1336.05" xlink:href="#m520474616c" y="51.3"/>
      </g>
     </g>
     <g id="text_6">
      <!-- 100000 -->
      <defs>
       <path d="M 12.40625 8.296875 
L 28.515625 8.296875 
L 28.515625 63.921875 
L 10.984375 60.40625 
L 10.984375 69.390625 
L 28.421875 72.90625 
L 38.28125 72.90625 
L 38.28125 8.296875 
L 54.390625 8.296875 
L 54.390625 0 
L 12.40625 0 
z
" id="BitstreamVeraSans-Roman-31"/>
      </defs>
      <g transform="translate(1278.7875 773.7953125)scale(0.3 -0.3)">
       <use xlink:href="#BitstreamVeraSans-Roman-31"/>
       <use x="63.623046875" xlink:href="#BitstreamVeraSans-Roman-30"/>
       <use x="127.24609375" xlink:href="#BitstreamVeraSans-Roman-30"/>
       <use x="190.869140625" xlink:href="#BitstreamVeraSans-Roman-30"/>
       <use x="254.4921875" xlink:href="#BitstreamVeraSans-Roman-30"/>
       <use x="318.115234375" xlink:href="#BitstreamVeraSans-Roman-30"/>
      </g>
     </g>
    </g>
    <g id="text_7">
     <!-- iterations -->
     <defs>
      <path d="M 54.890625 33.015625 
L 54.890625 0 
L 45.90625 0 
L 45.90625 32.71875 
Q 45.90625 40.484375 42.875 44.328125 
Q 39.84375 48.1875 33.796875 48.1875 
Q 26.515625 48.1875 22.3125 43.546875 
Q 18.109375 38.921875 18.109375 30.90625 
L 18.109375 0 
L 9.078125 0 
L 9.078125 54.6875 
L 18.109375 54.6875 
L 18.109375 46.1875 
Q 21.34375 51.125 25.703125 53.5625 
Q 30.078125 56 35.796875 56 
Q 45.21875 56 50.046875 50.171875 
Q 54.890625 44.34375 54.890625 33.015625 
" id="BitstreamVeraSans-Roman-6e"/>
      <path d="M 34.28125 27.484375 
Q 23.390625 27.484375 19.1875 25 
Q 14.984375 22.515625 14.984375 16.5 
Q 14.984375 11.71875 18.140625 8.90625 
Q 21.296875 6.109375 26.703125 6.109375 
Q 34.1875 6.109375 38.703125 11.40625 
Q 43.21875 16.703125 43.21875 25.484375 
L 43.21875 27.484375 
z
M 52.203125 31.203125 
L 52.203125 0 
L 43.21875 0 
L 43.21875 8.296875 
Q 40.140625 3.328125 35.546875 0.953125 
Q 30.953125 -1.421875 24.3125 -1.421875 
Q 15.921875 -1.421875 10.953125 3.296875 
Q 6 8.015625 6 15.921875 
Q 6 25.140625 12.171875 29.828125 
Q 18.359375 34.515625 30.609375 34.515625 
L 43.21875 34.515625 
L 43.21875 35.40625 
Q 43.21875 41.609375 39.140625 45 
Q 35.0625 48.390625 27.6875 48.390625 
Q 23 48.390625 18.546875 47.265625 
Q 14.109375 46.140625 10.015625 43.890625 
L 10.015625 52.203125 
Q 14.9375 54.109375 19.578125 55.046875 
Q 24.21875 56 28.609375 56 
Q 40.484375 56 46.34375 49.84375 
Q 52.203125 43.703125 52.203125 31.203125 
" id="BitstreamVeraSans-Roman-61"/>
      <path d="M 30.609375 48.390625 
Q 23.390625 48.390625 19.1875 42.75 
Q 14.984375 37.109375 14.984375 27.296875 
Q 14.984375 17.484375 19.15625 11.84375 
Q 23.34375 6.203125 30.609375 6.203125 
Q 37.796875 6.203125 41.984375 11.859375 
Q 46.1875 17.53125 46.1875 27.296875 
Q 46.1875 37.015625 41.984375 42.703125 
Q 37.796875 48.390625 30.609375 48.390625 
M 30.609375 56 
Q 42.328125 56 49.015625 48.375 
Q 55.71875 40.765625 55.71875 27.296875 
Q 55.71875 13.875 49.015625 6.21875 
Q 42.328125 -1.421875 30.609375 -1.421875 
Q 18.84375 -1.421875 12.171875 6.21875 
Q 5.515625 13.875 5.515625 27.296875 
Q 5.515625 40.765625 12.171875 48.375 
Q 18.84375 56 30.609375 56 
" id="BitstreamVeraSans-Roman-6f"/>
      <path d="M 9.421875 54.6875 
L 18.40625 54.6875 
L 18.40625 0 
L 9.421875 0 
z
M 9.421875 75.984375 
L 18.40625 75.984375 
L 18.40625 64.59375 
L 9.421875 64.59375 
z
" id="BitstreamVeraSans-Roman-69"/>
      <path d="M 56.203125 29.59375 
L 56.203125 25.203125 
L 14.890625 25.203125 
Q 15.484375 15.921875 20.484375 11.0625 
Q 25.484375 6.203125 34.421875 6.203125 
Q 39.59375 6.203125 44.453125 7.46875 
Q 49.3125 8.734375 54.109375 11.28125 
L 54.109375 2.78125 
Q 49.265625 0.734375 44.1875 -0.34375 
Q 39.109375 -1.421875 33.890625 -1.421875 
Q 20.796875 -1.421875 13.15625 6.1875 
Q 5.515625 13.8125 5.515625 26.8125 
Q 5.515625 40.234375 12.765625 48.109375 
Q 20.015625 56 32.328125 56 
Q 43.359375 56 49.78125 48.890625 
Q 56.203125 41.796875 56.203125 29.59375 
M 47.21875 32.234375 
Q 47.125 39.59375 43.09375 43.984375 
Q 39.0625 48.390625 32.421875 48.390625 
Q 24.90625 48.390625 20.390625 44.140625 
Q 15.875 39.890625 15.1875 32.171875 
z
" id="BitstreamVeraSans-Roman-65"/>
      <path d="M 18.3125 70.21875 
L 18.3125 54.6875 
L 36.8125 54.6875 
L 36.8125 47.703125 
L 18.3125 47.703125 
L 18.3125 18.015625 
Q 18.3125 11.328125 20.140625 9.421875 
Q 21.96875 7.515625 27.59375 7.515625 
L 36.8125 7.515625 
L 36.8125 0 
L 27.59375 0 
Q 17.1875 0 13.234375 3.875 
Q 9.28125 7.765625 9.28125 18.015625 
L 9.28125 47.703125 
L 2.6875 47.703125 
L 2.6875 54.6875 
L 9.28125 54.6875 
L 9.28125 70.21875 
z
" id="BitstreamVeraSans-Roman-74"/>
      <path d="M 41.109375 46.296875 
Q 39.59375 47.171875 37.8125 47.578125 
Q 36.03125 48 33.890625 48 
Q 26.265625 48 22.1875 43.046875 
Q 18.109375 38.09375 18.109375 28.8125 
L 18.109375 0 
L 9.078125 0 
L 9.078125 54.6875 
L 18.109375 54.6875 
L 18.109375 46.1875 
Q 20.953125 51.171875 25.484375 53.578125 
Q 30.03125 56 36.53125 56 
Q 37.453125 56 38.578125 55.875 
Q 39.703125 55.765625 41.0625 55.515625 
z
" id="BitstreamVeraSans-Roman-72"/>
      <path d="M 44.28125 53.078125 
L 44.28125 44.578125 
Q 40.484375 46.53125 36.375 47.5 
Q 32.28125 48.484375 27.875 48.484375 
Q 21.1875 48.484375 17.84375 46.4375 
Q 14.5 44.390625 14.5 40.28125 
Q 14.5 37.15625 16.890625 35.375 
Q 19.28125 33.59375 26.515625 31.984375 
L 29.59375 31.296875 
Q 39.15625 29.25 43.1875 25.515625 
Q 47.21875 21.78125 47.21875 15.09375 
Q 47.21875 7.46875 41.1875 3.015625 
Q 35.15625 -1.421875 24.609375 -1.421875 
Q 20.21875 -1.421875 15.453125 -0.5625 
Q 10.6875 0.296875 5.421875 2 
L 5.421875 11.28125 
Q 10.40625 8.6875 15.234375 7.390625 
Q 20.0625 6.109375 24.8125 6.109375 
Q 31.15625 6.109375 34.5625 8.28125 
Q 37.984375 10.453125 37.984375 14.40625 
Q 37.984375 18.0625 35.515625 20.015625 
Q 33.0625 21.96875 24.703125 23.78125 
L 21.578125 24.515625 
Q 13.234375 26.265625 9.515625 29.90625 
Q 5.8125 33.546875 5.8125 39.890625 
Q 5.8125 47.609375 11.28125 51.796875 
Q 16.75 56 26.8125 56 
Q 31.78125 56 36.171875 55.265625 
Q 40.578125 54.546875 44.28125 53.078125 
" id="BitstreamVeraSans-Roman-73"/>
     </defs>
     <g transform="translate(660.29296875 807.8296875)scale(0.3 -0.3)">
      <use xlink:href="#BitstreamVeraSans-Roman-69"/>
      <use x="27.783203125" xlink:href="#BitstreamVeraSans-Roman-74"/>
      <use x="66.9921875" xlink:href="#BitstreamVeraSans-Roman-65"/>
      <use x="128.515625" xlink:href="#BitstreamVeraSans-Roman-72"/>
      <use x="169.62890625" xlink:href="#BitstreamVeraSans-Roman-61"/>
      <use x="230.908203125" xlink:href="#BitstreamVeraSans-Roman-74"/>
      <use x="270.1171875" xlink:href="#BitstreamVeraSans-Roman-69"/>
      <use x="297.900390625" xlink:href="#BitstreamVeraSans-Roman-6f"/>
      <use x="359.08203125" xlink:href="#BitstreamVeraSans-Roman-6e"/>
      <use x="422.4609375" xlink:href="#BitstreamVeraSans-Roman-73"/>
     </g>
    </g>
   </g>
   <g id="matplotlib.axis_2">
    <g id="ytick_1">
     <g id="line2d_15">
      <defs>
       <path d="M 0 0 
L 4 0 
" id="m9efa2b2e73" style="stroke:#000000;stroke-width:0.5;"/>
      </defs>
      <g>
       <use style="stroke:#000000;stroke-width:0.5;" x="126.9" xlink:href="#m9efa2b2e73" y="747.0"/>
      </g>
     </g>
     <g id="line2d_16">
      <defs>
       <path d="M 0 0 
L -4 0 
" id="m07138341d2" style="stroke:#000000;stroke-width:0.5;"/>
      </defs>
      <g>
       <use style="stroke:#000000;stroke-width:0.5;" x="1336.05" xlink:href="#m07138341d2" y="747.0"/>
      </g>
     </g>
     <g id="text_8">
      <!-- 4 -->
      <g transform="translate(103.8125 755.278125)scale(0.3 -0.3)">
       <use xlink:href="#BitstreamVeraSans-Roman-34"/>
      </g>
     </g>
    </g>
    <g id="ytick_2">
     <g id="line2d_17">
      <g>
       <use style="stroke:#000000;stroke-width:0.5;" x="126.9" xlink:href="#m9efa2b2e73" y="660.0375"/>
      </g>
     </g>
     <g id="line2d_18">
      <g>
       <use style="stroke:#000000;stroke-width:0.5;" x="1336.05" xlink:href="#m07138341d2" y="660.0375"/>
      </g>
     </g>
     <g id="text_9">
      <!-- 5 -->
      <defs>
       <path d="M 10.796875 72.90625 
L 49.515625 72.90625 
L 49.515625 64.59375 
L 19.828125 64.59375 
L 19.828125 46.734375 
Q 21.96875 47.46875 24.109375 47.828125 
Q 26.265625 48.1875 28.421875 48.1875 
Q 40.625 48.1875 47.75 41.5 
Q 54.890625 34.8125 54.890625 23.390625 
Q 54.890625 11.625 47.5625 5.09375 
Q 40.234375 -1.421875 26.90625 -1.421875 
Q 22.3125 -1.421875 17.546875 -0.640625 
Q 12.796875 0.140625 7.71875 1.703125 
L 7.71875 11.625 
Q 12.109375 9.234375 16.796875 8.0625 
Q 21.484375 6.890625 26.703125 6.890625 
Q 35.15625 6.890625 40.078125 11.328125 
Q 45.015625 15.765625 45.015625 23.390625 
Q 45.015625 31 40.078125 35.4375 
Q 35.15625 39.890625 26.703125 39.890625 
Q 22.75 39.890625 18.8125 39.015625 
Q 14.890625 38.140625 10.796875 36.28125 
z
" id="BitstreamVeraSans-Roman-35"/>
      </defs>
      <g transform="translate(103.8125 668.315625)scale(0.3 -0.3)">
       <use xlink:href="#BitstreamVeraSans-Roman-35"/>
      </g>
     </g>
    </g>
    <g id="ytick_3">
     <g id="line2d_19">
      <g>
       <use style="stroke:#000000;stroke-width:0.5;" x="126.9" xlink:href="#m9efa2b2e73" y="573.075"/>
      </g>
     </g>
     <g id="line2d_20">
      <g>
       <use style="stroke:#000000;stroke-width:0.5;" x="1336.05" xlink:href="#m07138341d2" y="573.075"/>
      </g>
     </g>
     <g id="text_10">
      <!-- 6 -->
      <g transform="translate(103.8125 581.353125)scale(0.3 -0.3)">
       <use xlink:href="#BitstreamVeraSans-Roman-36"/>
      </g>
     </g>
    </g>
    <g id="ytick_4">
     <g id="line2d_21">
      <g>
       <use style="stroke:#000000;stroke-width:0.5;" x="126.9" xlink:href="#m9efa2b2e73" y="486.1125"/>
      </g>
     </g>
     <g id="line2d_22">
      <g>
       <use style="stroke:#000000;stroke-width:0.5;" x="1336.05" xlink:href="#m07138341d2" y="486.1125"/>
      </g>
     </g>
     <g id="text_11">
      <!-- 7 -->
      <defs>
       <path d="M 8.203125 72.90625 
L 55.078125 72.90625 
L 55.078125 68.703125 
L 28.609375 0 
L 18.3125 0 
L 43.21875 64.59375 
L 8.203125 64.59375 
z
" id="BitstreamVeraSans-Roman-37"/>
      </defs>
      <g transform="translate(103.8125 494.390625)scale(0.3 -0.3)">
       <use xlink:href="#BitstreamVeraSans-Roman-37"/>
      </g>
     </g>
    </g>
    <g id="ytick_5">
     <g id="line2d_23">
      <g>
       <use style="stroke:#000000;stroke-width:0.5;" x="126.9" xlink:href="#m9efa2b2e73" y="399.15"/>
      </g>
     </g>
     <g id="line2d_24">
      <g>
       <use style="stroke:#000000;stroke-width:0.5;" x="1336.05" xlink:href="#m07138341d2" y="399.15"/>
      </g>
     </g>
     <g id="text_12">
      <!-- 8 -->
      <g transform="translate(103.8125 407.428125)scale(0.3 -0.3)">
       <use xlink:href="#BitstreamVeraSans-Roman-38"/>
      </g>
     </g>
    </g>
    <g id="ytick_6">
     <g id="line2d_25">
      <g>
       <use style="stroke:#000000;stroke-width:0.5;" x="126.9" xlink:href="#m9efa2b2e73" y="312.1875"/>
      </g>
     </g>
     <g id="line2d_26">
      <g>
       <use style="stroke:#000000;stroke-width:0.5;" x="1336.05" xlink:href="#m07138341d2" y="312.1875"/>
      </g>
     </g>
     <g id="text_13">
      <!-- 9 -->
      <defs>
       <path d="M 10.984375 1.515625 
L 10.984375 10.5 
Q 14.703125 8.734375 18.5 7.8125 
Q 22.3125 6.890625 25.984375 6.890625 
Q 35.75 6.890625 40.890625 13.453125 
Q 46.046875 20.015625 46.78125 33.40625 
Q 43.953125 29.203125 39.59375 26.953125 
Q 35.25 24.703125 29.984375 24.703125 
Q 19.046875 24.703125 12.671875 31.3125 
Q 6.296875 37.9375 6.296875 49.421875 
Q 6.296875 60.640625 12.9375 67.421875 
Q 19.578125 74.21875 30.609375 74.21875 
Q 43.265625 74.21875 49.921875 64.515625 
Q 56.59375 54.828125 56.59375 36.375 
Q 56.59375 19.140625 48.40625 8.859375 
Q 40.234375 -1.421875 26.421875 -1.421875 
Q 22.703125 -1.421875 18.890625 -0.6875 
Q 15.09375 0.046875 10.984375 1.515625 
M 30.609375 32.421875 
Q 37.25 32.421875 41.125 36.953125 
Q 45.015625 41.5 45.015625 49.421875 
Q 45.015625 57.28125 41.125 61.84375 
Q 37.25 66.40625 30.609375 66.40625 
Q 23.96875 66.40625 20.09375 61.84375 
Q 16.21875 57.28125 16.21875 49.421875 
Q 16.21875 41.5 20.09375 36.953125 
Q 23.96875 32.421875 30.609375 32.421875 
" id="BitstreamVeraSans-Roman-39"/>
      </defs>
      <g transform="translate(103.8125 320.465625)scale(0.3 -0.3)">
       <use xlink:href="#BitstreamVeraSans-Roman-39"/>
      </g>
     </g>
    </g>
    <g id="ytick_7">
     <g id="line2d_27">
      <g>
       <use style="stroke:#000000;stroke-width:0.5;" x="126.9" xlink:href="#m9efa2b2e73" y="225.225"/>
      </g>
     </g>
     <g id="line2d_28">
      <g>
       <use style="stroke:#000000;stroke-width:0.5;" x="1336.05" xlink:href="#m07138341d2" y="225.225"/>
      </g>
     </g>
     <g id="text_14">
      <!-- 10 -->
      <g transform="translate(84.725 233.503125)scale(0.3 -0.3)">
       <use xlink:href="#BitstreamVeraSans-Roman-31"/>
       <use x="63.623046875" xlink:href="#BitstreamVeraSans-Roman-30"/>
      </g>
     </g>
    </g>
    <g id="ytick_8">
     <g id="line2d_29">
      <g>
       <use style="stroke:#000000;stroke-width:0.5;" x="126.9" xlink:href="#m9efa2b2e73" y="138.2625"/>
      </g>
     </g>
     <g id="line2d_30">
      <g>
       <use style="stroke:#000000;stroke-width:0.5;" x="1336.05" xlink:href="#m07138341d2" y="138.2625"/>
      </g>
     </g>
     <g id="text_15">
      <!-- 11 -->
      <g transform="translate(84.725 146.540625)scale(0.3 -0.3)">
       <use xlink:href="#BitstreamVeraSans-Roman-31"/>
       <use x="63.623046875" xlink:href="#BitstreamVeraSans-Roman-31"/>
      </g>
     </g>
    </g>
    <g id="ytick_9">
     <g id="line2d_31">
      <g>
       <use style="stroke:#000000;stroke-width:0.5;" x="126.9" xlink:href="#m9efa2b2e73" y="51.3"/>
      </g>
     </g>
     <g id="line2d_32">
      <g>
       <use style="stroke:#000000;stroke-width:0.5;" x="1336.05" xlink:href="#m07138341d2" y="51.3"/>
      </g>
     </g>
     <g id="text_16">
      <!-- 12 -->
      <g transform="translate(84.725 59.578125)scale(0.3 -0.3)">
       <use xlink:href="#BitstreamVeraSans-Roman-31"/>
       <use x="63.623046875" xlink:href="#BitstreamVeraSans-Roman-32"/>
      </g>
     </g>
    </g>
    <g id="text_17">
     <!-- log(loss) -->
     <defs>
      <path d="M 8.015625 75.875 
L 15.828125 75.875 
Q 23.140625 64.359375 26.78125 53.3125 
Q 30.421875 42.28125 30.421875 31.390625 
Q 30.421875 20.453125 26.78125 9.375 
Q 23.140625 -1.703125 15.828125 -13.1875 
L 8.015625 -13.1875 
Q 14.5 -2 17.703125 9.0625 
Q 20.90625 20.125 20.90625 31.390625 
Q 20.90625 42.671875 17.703125 53.65625 
Q 14.5 64.65625 8.015625 75.875 
" id="BitstreamVeraSans-Roman-29"/>
      <path d="M 31 75.875 
Q 24.46875 64.65625 21.28125 53.65625 
Q 18.109375 42.671875 18.109375 31.390625 
Q 18.109375 20.125 21.3125 9.0625 
Q 24.515625 -2 31 -13.1875 
L 23.1875 -13.1875 
Q 15.875 -1.703125 12.234375 9.375 
Q 8.59375 20.453125 8.59375 31.390625 
Q 8.59375 42.28125 12.203125 53.3125 
Q 15.828125 64.359375 23.1875 75.875 
z
" id="BitstreamVeraSans-Roman-28"/>
      <path d="M 45.40625 27.984375 
Q 45.40625 37.75 41.375 43.109375 
Q 37.359375 48.484375 30.078125 48.484375 
Q 22.859375 48.484375 18.828125 43.109375 
Q 14.796875 37.75 14.796875 27.984375 
Q 14.796875 18.265625 18.828125 12.890625 
Q 22.859375 7.515625 30.078125 7.515625 
Q 37.359375 7.515625 41.375 12.890625 
Q 45.40625 18.265625 45.40625 27.984375 
M 54.390625 6.78125 
Q 54.390625 -7.171875 48.1875 -13.984375 
Q 42 -20.796875 29.203125 -20.796875 
Q 24.46875 -20.796875 20.265625 -20.09375 
Q 16.0625 -19.390625 12.109375 -17.921875 
L 12.109375 -9.1875 
Q 16.0625 -11.328125 19.921875 -12.34375 
Q 23.78125 -13.375 27.78125 -13.375 
Q 36.625 -13.375 41.015625 -8.765625 
Q 45.40625 -4.15625 45.40625 5.171875 
L 45.40625 9.625 
Q 42.625 4.78125 38.28125 2.390625 
Q 33.9375 0 27.875 0 
Q 17.828125 0 11.671875 7.65625 
Q 5.515625 15.328125 5.515625 27.984375 
Q 5.515625 40.671875 11.671875 48.328125 
Q 17.828125 56 27.875 56 
Q 33.9375 56 38.28125 53.609375 
Q 42.625 51.21875 45.40625 46.390625 
L 45.40625 54.6875 
L 54.390625 54.6875 
z
" id="BitstreamVeraSans-Roman-67"/>
      <path d="M 9.421875 75.984375 
L 18.40625 75.984375 
L 18.40625 0 
L 9.421875 0 
z
" id="BitstreamVeraSans-Roman-6c"/>
     </defs>
     <g transform="translate(73.4859375 462.69609375)rotate(-90.0)scale(0.3 -0.3)">
      <use xlink:href="#BitstreamVeraSans-Roman-6c"/>
      <use x="27.783203125" xlink:href="#BitstreamVeraSans-Roman-6f"/>
      <use x="88.96484375" xlink:href="#BitstreamVeraSans-Roman-67"/>
      <use x="152.44140625" xlink:href="#BitstreamVeraSans-Roman-28"/>
      <use x="191.455078125" xlink:href="#BitstreamVeraSans-Roman-6c"/>
      <use x="219.23828125" xlink:href="#BitstreamVeraSans-Roman-6f"/>
      <use x="280.419921875" xlink:href="#BitstreamVeraSans-Roman-73"/>
      <use x="332.51953125" xlink:href="#BitstreamVeraSans-Roman-73"/>
      <use x="384.619140625" xlink:href="#BitstreamVeraSans-Roman-29"/>
     </g>
    </g>
   </g>
   <g id="legend_1">
    <g id="patch_7">
     <path d="M 843.876562 163.36875 
L 1321.05 163.36875 
L 1321.05 66.3 
L 843.876562 66.3 
z
" style="fill:#ffffff;stroke:#000000;stroke-linejoin:miter;"/>
    </g>
    <g id="line2d_33">
     <path d="M 864.876562 90.595313 
L 906.876562 90.595313 
" style="fill:none;stroke:#0000ff;stroke-linecap:square;stroke-width:2.0;"/>
    </g>
    <g id="line2d_34"/>
    <g id="text_18">
     <!-- random: step=0.000620 -->
     <defs>
      <path id="BitstreamVeraSans-Roman-20"/>
      <path d="M 52 44.1875 
Q 55.375 50.25 60.0625 53.125 
Q 64.75 56 71.09375 56 
Q 79.640625 56 84.28125 50.015625 
Q 88.921875 44.046875 88.921875 33.015625 
L 88.921875 0 
L 79.890625 0 
L 79.890625 32.71875 
Q 79.890625 40.578125 77.09375 44.375 
Q 74.3125 48.1875 68.609375 48.1875 
Q 61.625 48.1875 57.5625 43.546875 
Q 53.515625 38.921875 53.515625 30.90625 
L 53.515625 0 
L 44.484375 0 
L 44.484375 32.71875 
Q 44.484375 40.625 41.703125 44.40625 
Q 38.921875 48.1875 33.109375 48.1875 
Q 26.21875 48.1875 22.15625 43.53125 
Q 18.109375 38.875 18.109375 30.90625 
L 18.109375 0 
L 9.078125 0 
L 9.078125 54.6875 
L 18.109375 54.6875 
L 18.109375 46.1875 
Q 21.1875 51.21875 25.484375 53.609375 
Q 29.78125 56 35.6875 56 
Q 41.65625 56 45.828125 52.96875 
Q 50 49.953125 52 44.1875 
" id="BitstreamVeraSans-Roman-6d"/>
      <path d="M 11.71875 12.40625 
L 22.015625 12.40625 
L 22.015625 0 
L 11.71875 0 
z
M 11.71875 51.703125 
L 22.015625 51.703125 
L 22.015625 39.3125 
L 11.71875 39.3125 
z
" id="BitstreamVeraSans-Roman-3a"/>
      <path d="M 10.6875 12.40625 
L 21 12.40625 
L 21 0 
L 10.6875 0 
z
" id="BitstreamVeraSans-Roman-2e"/>
      <path d="M 10.59375 45.40625 
L 73.1875 45.40625 
L 73.1875 37.203125 
L 10.59375 37.203125 
z
M 10.59375 25.484375 
L 73.1875 25.484375 
L 73.1875 17.1875 
L 10.59375 17.1875 
z
" id="BitstreamVeraSans-Roman-3d"/>
      <path d="M 45.40625 46.390625 
L 45.40625 75.984375 
L 54.390625 75.984375 
L 54.390625 0 
L 45.40625 0 
L 45.40625 8.203125 
Q 42.578125 3.328125 38.25 0.953125 
Q 33.9375 -1.421875 27.875 -1.421875 
Q 17.96875 -1.421875 11.734375 6.484375 
Q 5.515625 14.40625 5.515625 27.296875 
Q 5.515625 40.1875 11.734375 48.09375 
Q 17.96875 56 27.875 56 
Q 33.9375 56 38.25 53.625 
Q 42.578125 51.265625 45.40625 46.390625 
M 14.796875 27.296875 
Q 14.796875 17.390625 18.875 11.75 
Q 22.953125 6.109375 30.078125 6.109375 
Q 37.203125 6.109375 41.296875 11.75 
Q 45.40625 17.390625 45.40625 27.296875 
Q 45.40625 37.203125 41.296875 42.84375 
Q 37.203125 48.484375 30.078125 48.484375 
Q 22.953125 48.484375 18.875 42.84375 
Q 14.796875 37.203125 14.796875 27.296875 
" id="BitstreamVeraSans-Roman-64"/>
      <path d="M 18.109375 8.203125 
L 18.109375 -20.796875 
L 9.078125 -20.796875 
L 9.078125 54.6875 
L 18.109375 54.6875 
L 18.109375 46.390625 
Q 20.953125 51.265625 25.265625 53.625 
Q 29.59375 56 35.59375 56 
Q 45.5625 56 51.78125 48.09375 
Q 58.015625 40.1875 58.015625 27.296875 
Q 58.015625 14.40625 51.78125 6.484375 
Q 45.5625 -1.421875 35.59375 -1.421875 
Q 29.59375 -1.421875 25.265625 0.953125 
Q 20.953125 3.328125 18.109375 8.203125 
M 48.6875 27.296875 
Q 48.6875 37.203125 44.609375 42.84375 
Q 40.53125 48.484375 33.40625 48.484375 
Q 26.265625 48.484375 22.1875 42.84375 
Q 18.109375 37.203125 18.109375 27.296875 
Q 18.109375 17.390625 22.1875 11.75 
Q 26.265625 6.109375 33.40625 6.109375 
Q 40.53125 6.109375 44.609375 11.75 
Q 48.6875 17.390625 48.6875 27.296875 
" id="BitstreamVeraSans-Roman-70"/>
     </defs>
     <g transform="translate(939.8765625 101.0953125)scale(0.3 -0.3)">
      <use xlink:href="#BitstreamVeraSans-Roman-72"/>
      <use x="41.11328125" xlink:href="#BitstreamVeraSans-Roman-61"/>
      <use x="102.392578125" xlink:href="#BitstreamVeraSans-Roman-6e"/>
      <use x="165.771484375" xlink:href="#BitstreamVeraSans-Roman-64"/>
      <use x="229.248046875" xlink:href="#BitstreamVeraSans-Roman-6f"/>
      <use x="290.4296875" xlink:href="#BitstreamVeraSans-Roman-6d"/>
      <use x="387.841796875" xlink:href="#BitstreamVeraSans-Roman-3a"/>
      <use x="421.533203125" xlink:href="#BitstreamVeraSans-Roman-20"/>
      <use x="453.3203125" xlink:href="#BitstreamVeraSans-Roman-73"/>
      <use x="505.419921875" xlink:href="#BitstreamVeraSans-Roman-74"/>
      <use x="544.62890625" xlink:href="#BitstreamVeraSans-Roman-65"/>
      <use x="606.15234375" xlink:href="#BitstreamVeraSans-Roman-70"/>
      <use x="669.62890625" xlink:href="#BitstreamVeraSans-Roman-3d"/>
      <use x="753.41796875" xlink:href="#BitstreamVeraSans-Roman-30"/>
      <use x="817.041015625" xlink:href="#BitstreamVeraSans-Roman-2e"/>
      <use x="848.828125" xlink:href="#BitstreamVeraSans-Roman-30"/>
      <use x="912.451171875" xlink:href="#BitstreamVeraSans-Roman-30"/>
      <use x="976.07421875" xlink:href="#BitstreamVeraSans-Roman-30"/>
      <use x="1039.69726562" xlink:href="#BitstreamVeraSans-Roman-36"/>
      <use x="1103.3203125" xlink:href="#BitstreamVeraSans-Roman-32"/>
      <use x="1166.94335938" xlink:href="#BitstreamVeraSans-Roman-30"/>
     </g>
    </g>
    <g id="line2d_35">
     <path d="M 864.876562 134.629688 
L 906.876562 134.629688 
" style="fill:none;stroke:#008000;stroke-linecap:square;stroke-width:2.0;"/>
    </g>
    <g id="line2d_36"/>
    <g id="text_19">
     <!-- corr: step=0.000620 -->
     <defs>
      <path d="M 48.78125 52.59375 
L 48.78125 44.1875 
Q 44.96875 46.296875 41.140625 47.34375 
Q 37.3125 48.390625 33.40625 48.390625 
Q 24.65625 48.390625 19.8125 42.84375 
Q 14.984375 37.3125 14.984375 27.296875 
Q 14.984375 17.28125 19.8125 11.734375 
Q 24.65625 6.203125 33.40625 6.203125 
Q 37.3125 6.203125 41.140625 7.25 
Q 44.96875 8.296875 48.78125 10.40625 
L 48.78125 2.09375 
Q 45.015625 0.34375 40.984375 -0.53125 
Q 36.96875 -1.421875 32.421875 -1.421875 
Q 20.0625 -1.421875 12.78125 6.34375 
Q 5.515625 14.109375 5.515625 27.296875 
Q 5.515625 40.671875 12.859375 48.328125 
Q 20.21875 56 33.015625 56 
Q 37.15625 56 41.109375 55.140625 
Q 45.0625 54.296875 48.78125 52.59375 
" id="BitstreamVeraSans-Roman-63"/>
     </defs>
     <g transform="translate(939.8765625 145.1296875)scale(0.3 -0.3)">
      <use xlink:href="#BitstreamVeraSans-Roman-63"/>
      <use x="54.98046875" xlink:href="#BitstreamVeraSans-Roman-6f"/>
      <use x="116.162109375" xlink:href="#BitstreamVeraSans-Roman-72"/>
      <use x="157.259765625" xlink:href="#BitstreamVeraSans-Roman-72"/>
      <use x="198.357421875" xlink:href="#BitstreamVeraSans-Roman-3a"/>
      <use x="232.048828125" xlink:href="#BitstreamVeraSans-Roman-20"/>
      <use x="263.8359375" xlink:href="#BitstreamVeraSans-Roman-73"/>
      <use x="315.935546875" xlink:href="#BitstreamVeraSans-Roman-74"/>
      <use x="355.14453125" xlink:href="#BitstreamVeraSans-Roman-65"/>
      <use x="416.66796875" xlink:href="#BitstreamVeraSans-Roman-70"/>
      <use x="480.14453125" xlink:href="#BitstreamVeraSans-Roman-3d"/>
      <use x="563.93359375" xlink:href="#BitstreamVeraSans-Roman-30"/>
      <use x="627.556640625" xlink:href="#BitstreamVeraSans-Roman-2e"/>
      <use x="659.34375" xlink:href="#BitstreamVeraSans-Roman-30"/>
      <use x="722.966796875" xlink:href="#BitstreamVeraSans-Roman-30"/>
      <use x="786.58984375" xlink:href="#BitstreamVeraSans-Roman-30"/>
      <use x="850.212890625" xlink:href="#BitstreamVeraSans-Roman-36"/>
      <use x="913.8359375" xlink:href="#BitstreamVeraSans-Roman-32"/>
      <use x="977.458984375" xlink:href="#BitstreamVeraSans-Roman-30"/>
     </g>
    </g>
   </g>
  </g>
 </g>
 <defs>
  <clipPath id="pe6d2519dbc">
   <rect height="695.7" width="1209.15" x="126.9" y="51.3"/>
  </clipPath>
 </defs>
</svg>
