<?xml version="1.0" encoding="utf-8" standalone="no"?>
<!DOCTYPE svg PUBLIC "-//W3C//DTD SVG 1.1//EN"
  "http://www.w3.org/Graphics/SVG/1.1/DTD/svg11.dtd">
<!-- Created with matplotlib (http://matplotlib.org/) -->
<svg height="864pt" version="1.1" viewBox="0 0 1440 864" width="1440pt" xmlns="http://www.w3.org/2000/svg" xmlns:xlink="http://www.w3.org/1999/xlink">
 <defs>
  <style type="text/css">
*{stroke-linecap:butt;stroke-linejoin:round;stroke-miterlimit:100000;}
  </style>
 </defs>
 <g id="figure_1">
  <g id="patch_1">
   <path d="M 0 864 
L 1440 864 
L 1440 0 
L 0 0 
z
" style="fill:#ffffff;"/>
  </g>
  <g id="axes_1">
   <g id="patch_2">
    <path d="M 70.76875 770.34375 
L 1356.046875 770.34375 
L 1356.046875 57.917187 
L 70.76875 57.917187 
z
" style="fill:#ffffff;"/>
   </g>
   <g id="line2d_1">
    <path clip-path="url(#p4a97ce3e2a)" d="M 72.054028 124.355513 
L 73.339306 124.328447 
L 74.624584 124.360916 
L 75.909863 130.405775 
L 77.195141 132.121232 
L 78.480419 131.355146 
L 81.050975 132.055072 
L 82.336253 132.055163 
L 83.621531 135.755328 
L 84.906809 135.648317 
L 86.192087 135.89985 
L 88.762644 135.906648 
L 90.047922 135.989276 
L 91.3332 141.929215 
L 92.618478 142.757551 
L 93.903756 144.280477 
L 95.189034 144.503941 
L 96.474312 144.336379 
L 97.759591 146.505741 
L 99.044869 144.56989 
L 100.330147 141.765664 
L 102.900703 141.473735 
L 104.185981 139.480991 
L 105.471259 139.641947 
L 108.041816 139.416676 
L 109.327094 138.491738 
L 110.612372 137.33432 
L 111.89765 137.231943 
L 113.182928 141.429363 
L 115.753484 141.396682 
L 117.038762 143.644418 
L 118.324041 144.614717 
L 119.609319 144.539563 
L 120.894597 144.590382 
L 122.179875 142.784053 
L 123.465153 142.512155 
L 126.035709 142.459626 
L 127.320988 136.792312 
L 128.606266 136.494424 
L 129.891544 140.218463 
L 131.176822 137.326825 
L 132.4621 143.911534 
L 133.747378 143.872661 
L 135.032656 143.45229 
L 136.317934 143.887235 
L 137.603212 146.225076 
L 140.173769 146.275373 
L 141.459047 149.472809 
L 142.744325 159.565624 
L 144.029603 159.39652 
L 145.314881 159.575762 
L 146.600159 161.185466 
L 147.885437 160.969462 
L 150.455994 161.062652 
L 151.741272 165.797391 
L 154.311828 165.82433 
L 155.597106 172.59955 
L 158.167663 172.756655 
L 159.452941 181.145224 
L 163.308775 181.172398 
L 164.594053 181.340293 
L 165.879331 180.63675 
L 167.164609 180.615614 
L 168.449887 182.501806 
L 169.735166 182.253606 
L 173.591 182.162355 
L 174.876278 182.728798 
L 176.161556 182.733223 
L 177.446834 197.479942 
L 178.732112 198.922146 
L 180.017391 199.065062 
L 181.302669 199.785664 
L 183.873225 199.946081 
L 185.158503 198.077964 
L 186.443781 203.072131 
L 187.729059 202.701875 
L 189.014337 202.655406 
L 190.299616 203.068362 
L 192.870172 202.825766 
L 194.15545 203.52843 
L 195.440728 204.08066 
L 196.726006 206.88885 
L 199.296562 207.092392 
L 200.581841 206.576046 
L 201.867119 206.99587 
L 203.152397 206.845568 
L 204.437675 210.261347 
L 205.722953 210.620181 
L 207.008231 210.785479 
L 208.293509 211.912764 
L 209.578787 211.180151 
L 210.864066 211.977979 
L 212.149344 210.677985 
L 213.434622 214.359189 
L 214.7199 214.570699 
L 216.005178 215.674677 
L 217.290456 215.952426 
L 218.575734 215.788293 
L 221.146291 216.081141 
L 222.431569 217.660019 
L 223.716847 216.100358 
L 225.002125 216.007012 
L 226.287403 216.997648 
L 227.572681 222.920126 
L 228.857959 222.866679 
L 230.143237 223.049195 
L 232.713794 222.867458 
L 233.999072 223.021566 
L 235.28435 222.960651 
L 236.569628 229.090411 
L 239.140184 229.150302 
L 241.710741 229.138257 
L 242.996019 229.23575 
L 245.566575 239.113913 
L 246.851853 238.955804 
L 248.137131 239.096837 
L 249.422409 238.805289 
L 250.707687 239.11762 
L 251.992966 238.915134 
L 253.278244 239.651122 
L 254.563522 239.375395 
L 255.8488 239.610148 
L 257.134078 239.314622 
L 258.419356 239.361568 
L 259.704634 235.792547 
L 260.989913 235.523734 
L 263.560469 235.751121 
L 264.845747 235.602511 
L 266.131025 235.602998 
L 267.416303 240.350687 
L 268.701581 240.840904 
L 269.986859 240.855894 
L 272.557416 240.758913 
L 273.842694 240.789373 
L 275.127972 247.664153 
L 276.41325 247.751118 
L 277.698528 247.208843 
L 278.983806 246.939076 
L 280.269084 247.072631 
L 281.554362 246.921297 
L 284.124919 245.938133 
L 285.410197 246.426378 
L 287.980753 246.416821 
L 289.266031 247.38002 
L 290.551309 255.031558 
L 291.836587 253.442784 
L 293.121866 254.809446 
L 295.692422 254.751691 
L 296.9777 254.776154 
L 298.262978 254.520596 
L 299.548256 247.52758 
L 300.833534 247.504063 
L 302.118812 248.087665 
L 303.404091 248.036733 
L 304.689369 247.522802 
L 305.974647 247.303899 
L 307.259925 247.702108 
L 308.545203 250.35942 
L 311.115759 250.306201 
L 312.401037 251.29593 
L 313.686316 253.128492 
L 314.971594 252.944151 
L 316.256872 253.648377 
L 318.827428 252.894231 
L 320.112706 253.663872 
L 321.397984 252.510981 
L 322.683262 254.530311 
L 326.539097 254.728028 
L 327.824375 254.967063 
L 329.109653 254.588321 
L 330.394931 247.469484 
L 332.965487 247.545132 
L 335.536044 247.449782 
L 338.1066 247.523732 
L 339.391878 247.819271 
L 341.962434 247.145617 
L 343.247712 247.255196 
L 344.532991 248.221905 
L 345.818269 248.406287 
L 347.103547 249.953087 
L 349.674103 247.857519 
L 352.244659 247.903086 
L 353.529937 247.907758 
L 354.815216 249.550102 
L 357.385772 253.286133 
L 358.67105 253.978129 
L 359.956328 255.371184 
L 361.241606 255.163854 
L 362.526884 255.196094 
L 363.812162 254.934277 
L 365.097441 253.137161 
L 366.382719 254.200579 
L 367.667997 253.962856 
L 370.238553 252.05932 
L 371.523831 252.283396 
L 372.809109 252.146558 
L 374.094387 252.251311 
L 375.379666 250.434916 
L 376.664944 246.482262 
L 377.950222 245.232806 
L 379.2355 245.109749 
L 380.520778 245.853121 
L 381.806056 245.436519 
L 383.091334 245.646366 
L 384.376612 246.283516 
L 385.661891 250.078824 
L 386.947169 251.425148 
L 388.232447 257.503575 
L 389.517725 257.252247 
L 390.803003 257.482571 
L 392.088281 257.235237 
L 393.373559 257.50148 
L 394.658838 260.315884 
L 395.944116 260.721604 
L 397.229394 260.059548 
L 398.514672 263.829439 
L 399.79995 263.859215 
L 401.085228 263.113924 
L 402.370506 263.098941 
L 403.655784 261.579288 
L 404.941062 261.572064 
L 406.226341 263.412772 
L 407.511619 259.745791 
L 410.082175 259.729824 
L 411.367453 259.712278 
L 412.652731 263.00518 
L 413.938009 263.289234 
L 415.223287 263.295197 
L 416.508566 270.317627 
L 417.793844 269.716627 
L 419.079122 269.76569 
L 420.3644 270.387503 
L 421.649678 274.668703 
L 422.934956 274.824687 
L 424.220234 274.791117 
L 425.505512 273.871986 
L 426.790791 273.83235 
L 428.076069 271.659196 
L 429.361347 271.618483 
L 430.646625 273.682252 
L 431.931903 271.597335 
L 433.217181 272.522768 
L 434.502459 273.080817 
L 437.073016 274.937001 
L 438.358294 274.999263 
L 439.643572 274.941276 
L 440.92885 273.267735 
L 442.214128 273.335688 
L 443.499406 276.158862 
L 444.784684 276.475661 
L 446.069962 275.815378 
L 447.355241 276.188689 
L 448.640519 275.753792 
L 449.925797 275.707744 
L 451.211075 278.83082 
L 452.496353 285.933097 
L 453.781631 286.275839 
L 455.066909 285.759459 
L 456.352187 285.97874 
L 457.637466 285.177718 
L 458.922744 288.110315 
L 460.208022 291.342093 
L 461.4933 291.433222 
L 462.778578 293.015783 
L 464.063856 294.097734 
L 465.349134 294.09247 
L 466.634412 295.834909 
L 467.919691 294.51783 
L 469.204969 298.96967 
L 470.490247 299.000672 
L 471.775525 298.681416 
L 473.060803 304.346548 
L 474.346081 304.26466 
L 475.631359 307.791015 
L 476.916637 310.799985 
L 478.201916 311.57514 
L 479.487194 311.530087 
L 480.772472 311.602378 
L 482.05775 313.521034 
L 483.343028 312.05523 
L 484.628306 313.440835 
L 485.913584 313.950526 
L 488.484141 313.83111 
L 489.769419 313.376574 
L 491.054697 312.064695 
L 492.339975 309.811653 
L 493.625253 309.680869 
L 494.910531 309.672551 
L 496.195809 307.617431 
L 497.481087 308.251702 
L 498.766366 308.250838 
L 500.051644 307.201676 
L 501.336922 314.298478 
L 503.907478 314.314805 
L 505.192756 317.468739 
L 507.763312 317.78094 
L 509.048591 317.591181 
L 510.333869 319.473449 
L 511.619147 318.296196 
L 512.904425 318.312996 
L 514.189703 318.758816 
L 516.760259 318.904294 
L 518.045537 318.782902 
L 519.330816 317.757722 
L 520.616094 320.590802 
L 521.901372 320.56786 
L 523.18665 324.687722 
L 524.471928 324.762462 
L 527.042484 324.67516 
L 528.327762 324.727941 
L 529.613041 328.040137 
L 530.898319 327.75585 
L 532.183597 327.900446 
L 534.754153 327.53771 
L 536.039431 328.003295 
L 537.324709 331.293566 
L 539.895266 330.278284 
L 542.465822 330.049154 
L 543.7511 328.584001 
L 545.036378 329.174495 
L 546.321656 333.630192 
L 547.606934 335.416051 
L 548.892212 335.542895 
L 550.177491 335.201843 
L 551.462769 335.456952 
L 552.748047 335.479651 
L 554.033325 337.312313 
L 555.318603 340.288762 
L 556.603881 340.608621 
L 557.889159 341.080267 
L 559.174437 340.817995 
L 560.459716 341.063429 
L 561.744994 341.192661 
L 563.030272 342.262827 
L 564.31555 351.884303 
L 565.600828 352.015239 
L 568.171384 351.956717 
L 569.456662 352.1083 
L 570.741941 351.806265 
L 572.027219 352.25537 
L 573.312497 359.787492 
L 577.168331 359.975877 
L 578.453609 359.663471 
L 579.738887 360.719493 
L 581.024166 361.38704 
L 587.450556 361.519448 
L 588.735834 368.171401 
L 590.021112 368.292341 
L 591.306391 367.981336 
L 592.591669 368.16401 
L 593.876947 368.088023 
L 595.162225 361.085114 
L 597.732781 361.201222 
L 599.018059 363.05879 
L 600.303337 367.507335 
L 601.588616 366.273923 
L 602.873894 366.186558 
L 604.159172 361.608457 
L 605.44445 367.609534 
L 608.015006 367.604029 
L 609.300284 373.644995 
L 610.585562 373.128436 
L 611.870841 373.751978 
L 613.156119 373.563196 
L 614.441397 374.21518 
L 615.726675 374.565811 
L 617.011953 383.243467 
L 618.297231 384.094909 
L 623.438344 384.21074 
L 624.723622 392.199151 
L 626.0089 392.574958 
L 628.579456 392.658663 
L 629.864734 392.673119 
L 631.150012 397.784907 
L 632.435291 397.715557 
L 633.720569 393.922123 
L 635.005847 397.530338 
L 637.576403 397.512492 
L 638.861681 397.493816 
L 640.146959 393.301986 
L 641.432237 395.810655 
L 642.717516 396.017755 
L 644.002794 396.504815 
L 645.288072 398.39958 
L 646.57335 398.158026 
L 647.858628 398.370872 
L 649.143906 398.345583 
L 650.429184 402.617049 
L 651.714462 405.3298 
L 652.999741 405.895174 
L 654.285019 406.129414 
L 656.855575 405.869998 
L 658.140853 406.490456 
L 659.426131 408.671262 
L 660.711409 407.31999 
L 661.996687 406.973513 
L 663.281966 407.168245 
L 667.1378 407.233768 
L 668.423078 407.165291 
L 669.708356 397.98011 
L 670.993634 398.741366 
L 673.564191 398.708181 
L 674.849469 398.608959 
L 676.134747 398.797364 
L 677.420025 398.706022 
L 678.705303 397.865271 
L 679.990581 392.365434 
L 681.275859 391.362233 
L 682.561137 392.19888 
L 683.846416 392.219873 
L 685.131694 391.688519 
L 686.416972 392.249115 
L 687.70225 392.06847 
L 688.987528 391.262036 
L 690.272806 386.695364 
L 691.558084 384.974574 
L 692.843362 385.075226 
L 695.413919 385.500189 
L 696.699197 386.794546 
L 697.984475 386.755755 
L 699.269753 386.880718 
L 700.555031 385.219334 
L 701.840309 384.927106 
L 704.410866 385.1406 
L 706.981422 384.924544 
L 708.2667 383.988527 
L 709.551978 383.685453 
L 710.837256 390.307017 
L 712.122534 395.88689 
L 713.407812 395.907742 
L 714.693091 396.11185 
L 717.263647 396.091533 
L 718.548925 396.097328 
L 719.834203 392.558009 
L 721.119481 391.376415 
L 722.404759 391.955318 
L 723.690037 391.718473 
L 724.975316 391.761418 
L 726.260594 385.913511 
L 727.545872 385.822521 
L 728.83115 386.246178 
L 730.116428 385.900986 
L 731.401706 385.342395 
L 732.686984 385.965963 
L 733.972262 381.457044 
L 735.257541 381.48909 
L 736.542819 382.021006 
L 737.828097 381.587161 
L 739.113375 387.105615 
L 740.398653 386.910498 
L 742.969209 387.17786 
L 744.254487 384.388203 
L 745.539766 384.517746 
L 746.825044 384.359578 
L 749.3956 384.60534 
L 750.680878 385.100007 
L 751.966156 385.224462 
L 753.251434 385.936677 
L 754.536712 385.269891 
L 755.821991 385.89579 
L 757.107269 386.007787 
L 758.392547 385.808688 
L 759.677825 384.57153 
L 760.963103 384.948651 
L 762.248381 384.645722 
L 763.533659 384.586692 
L 764.818937 384.686137 
L 766.104216 385.88255 
L 767.389494 386.611451 
L 768.674772 396.162484 
L 769.96005 396.737211 
L 771.245328 395.579639 
L 772.530606 396.22087 
L 773.815884 397.120768 
L 775.101162 396.571021 
L 776.386441 396.929886 
L 777.671719 395.494757 
L 778.956997 392.968744 
L 780.242275 394.795486 
L 781.527553 394.145125 
L 782.812831 392.704542 
L 784.098109 395.115426 
L 785.383387 395.110093 
L 786.668666 392.754669 
L 787.953944 398.542406 
L 789.239222 394.951575 
L 790.5245 396.598106 
L 791.809778 394.653384 
L 793.095056 394.987272 
L 794.380334 394.904199 
L 795.665612 398.612585 
L 796.950891 398.078011 
L 798.236169 398.007213 
L 799.521447 399.361837 
L 800.806725 398.993155 
L 804.662559 399.111227 
L 805.947837 401.408307 
L 807.233116 401.388146 
L 808.518394 406.605317 
L 811.08895 407.193666 
L 812.374228 407.189091 
L 813.659506 406.592991 
L 814.944784 406.829911 
L 816.230062 406.865582 
L 817.515341 409.016524 
L 818.800619 409.41348 
L 820.085897 409.58931 
L 821.371175 409.480055 
L 822.656453 409.637632 
L 825.227009 409.329382 
L 826.512287 405.298895 
L 827.797566 404.712529 
L 829.082844 404.450205 
L 830.368122 404.705588 
L 831.6534 404.455231 
L 832.938678 407.731577 
L 834.223956 407.694435 
L 835.509234 407.805492 
L 836.794512 405.68763 
L 838.079791 406.102934 
L 839.365069 405.503015 
L 840.650347 404.440768 
L 841.935625 402.900761 
L 843.220903 405.724673 
L 844.506181 404.363535 
L 845.791459 404.345499 
L 847.076737 406.480354 
L 848.362016 403.954989 
L 849.647294 403.167955 
L 850.932572 404.188958 
L 852.21785 403.656062 
L 853.503128 403.99505 
L 854.788406 403.365678 
L 856.073684 402.917176 
L 857.358962 407.132967 
L 861.214797 407.048635 
L 862.500075 406.867191 
L 863.785353 413.428613 
L 865.070631 411.223303 
L 866.355909 411.619237 
L 867.641187 411.540412 
L 868.926466 411.328421 
L 870.211744 411.596451 
L 871.497022 410.40501 
L 872.7823 398.315919 
L 874.067578 401.080214 
L 875.352856 398.244484 
L 877.923412 398.237455 
L 879.208691 398.512286 
L 880.493969 398.199065 
L 881.779247 403.720881 
L 883.064525 405.232698 
L 884.349803 405.958365 
L 885.635081 407.290936 
L 886.920359 408.361335 
L 888.205637 408.091391 
L 889.490916 408.236081 
L 890.776194 406.228085 
L 892.061472 406.248749 
L 893.34675 407.254357 
L 894.632028 407.019695 
L 895.917306 409.52734 
L 897.202584 409.536836 
L 898.487862 410.763713 
L 899.773141 410.033273 
L 901.058419 410.155568 
L 902.343697 410.590884 
L 903.628975 414.189118 
L 904.914253 414.169331 
L 906.199531 416.061496 
L 907.484809 418.271398 
L 908.770087 420.24093 
L 910.055366 421.084761 
L 911.340644 422.177836 
L 912.625922 432.540025 
L 913.9112 431.194387 
L 915.196478 431.105286 
L 916.481756 438.752333 
L 917.767034 438.65052 
L 920.337591 439.570987 
L 921.622869 437.113412 
L 922.908147 439.381914 
L 924.193425 439.176025 
L 925.478703 441.293741 
L 926.763981 441.380635 
L 928.049259 441.260618 
L 929.334537 440.716911 
L 931.905094 441.737956 
L 933.190372 449.937203 
L 934.47565 449.271058 
L 935.760928 448.324591 
L 937.046206 448.614068 
L 938.331484 453.773555 
L 939.616762 453.958859 
L 940.902041 457.199613 
L 942.187319 457.975167 
L 943.472597 457.618677 
L 944.757875 457.895149 
L 946.043153 457.884974 
L 947.328431 458.886278 
L 948.613709 460.358013 
L 949.898987 463.022516 
L 951.184266 461.225002 
L 952.469544 465.063699 
L 953.754822 464.751719 
L 955.0401 463.932075 
L 956.325378 465.587817 
L 957.610656 465.733467 
L 958.895934 463.315185 
L 960.181212 463.835843 
L 961.466491 467.845662 
L 962.751769 467.81888 
L 964.037047 469.699295 
L 965.322325 469.602914 
L 966.607603 469.313201 
L 967.892881 469.430187 
L 969.178159 469.179862 
L 970.463437 477.039211 
L 973.033994 477.074065 
L 974.319272 477.455458 
L 975.60455 477.157371 
L 976.889828 477.296562 
L 978.175106 482.189699 
L 979.460384 481.882616 
L 980.745662 484.435909 
L 982.030941 484.55554 
L 983.316219 484.556058 
L 984.601497 483.636326 
L 985.886775 478.590357 
L 987.172053 476.743149 
L 988.457331 476.814558 
L 989.742609 477.545425 
L 992.313166 477.504815 
L 993.598444 475.784204 
L 994.883722 478.274061 
L 996.169 476.891865 
L 1000.024834 476.936309 
L 1001.310112 476.735685 
L 1002.595391 478.588151 
L 1003.880669 484.711642 
L 1005.165947 483.47643 
L 1006.451225 483.402336 
L 1010.307059 483.576601 
L 1011.592337 496.002931 
L 1012.877616 495.737323 
L 1014.162894 496.025383 
L 1015.448172 495.913963 
L 1016.73345 496.157046 
L 1018.018728 496.019282 
L 1019.304006 501.696715 
L 1020.589284 500.053669 
L 1021.874562 501.481578 
L 1023.159841 501.79323 
L 1025.730397 501.676205 
L 1027.015675 503.218908 
L 1029.586231 503.273663 
L 1030.871509 502.724823 
L 1032.156787 509.360839 
L 1033.442066 514.154264 
L 1037.2979 514.098904 
L 1038.583178 514.154429 
L 1039.868456 514.092286 
L 1041.153734 519.480334 
L 1042.439012 517.133825 
L 1043.724291 523.120634 
L 1045.009569 523.108189 
L 1046.294847 517.281284 
L 1047.580125 518.621783 
L 1048.865403 518.649639 
L 1050.150681 518.19951 
L 1054.006516 518.058133 
L 1055.291794 518.186958 
L 1056.577072 517.493831 
L 1057.86235 518.03328 
L 1059.147628 518.178065 
L 1060.432906 517.859537 
L 1061.718184 517.880527 
L 1063.003462 518.023735 
L 1064.288741 518.033566 
L 1065.574019 531.307616 
L 1066.859297 530.468522 
L 1068.144575 531.262018 
L 1069.429853 530.340958 
L 1070.715131 530.297218 
L 1072.000409 529.9015 
L 1073.285687 537.109469 
L 1074.570966 536.228519 
L 1075.856244 535.830797 
L 1077.141522 536.733098 
L 1080.997356 536.603393 
L 1082.282634 535.306967 
L 1083.567912 535.578276 
L 1086.138469 535.215883 
L 1087.423747 535.388711 
L 1088.709025 534.514957 
L 1089.994303 539.678524 
L 1091.279581 539.907744 
L 1092.564859 541.812291 
L 1093.850137 542.83276 
L 1095.135416 544.626649 
L 1096.420694 544.455372 
L 1097.705972 545.838688 
L 1098.99125 544.268796 
L 1100.276528 544.527452 
L 1101.561806 545.074663 
L 1102.847084 542.272531 
L 1104.132362 543.819256 
L 1105.417641 543.388973 
L 1106.702919 542.424166 
L 1107.988197 540.80072 
L 1109.273475 540.53465 
L 1110.558753 542.531081 
L 1114.414587 542.574546 
L 1115.699866 549.874519 
L 1116.985144 547.147544 
L 1118.270422 547.173912 
L 1119.5557 547.483964 
L 1122.126256 554.90173 
L 1123.411534 553.290728 
L 1124.696812 555.703247 
L 1125.982091 555.938022 
L 1127.267369 556.058033 
L 1128.552647 560.33303 
L 1129.837925 560.342685 
L 1131.123203 560.07138 
L 1132.408481 560.538172 
L 1133.693759 563.104635 
L 1134.979037 562.901319 
L 1136.264316 562.392643 
L 1137.549594 560.072907 
L 1138.834872 560.21118 
L 1140.12015 562.96692 
L 1142.690706 562.672933 
L 1143.975984 563.050199 
L 1145.261262 560.770252 
L 1146.546541 561.130121 
L 1147.831819 560.386015 
L 1149.117097 561.966286 
L 1150.402375 560.708835 
L 1152.972931 560.648995 
L 1154.258209 562.083012 
L 1155.543487 562.781049 
L 1156.828766 562.698966 
L 1158.114044 562.758073 
L 1159.399322 563.736142 
L 1160.6846 563.729156 
L 1161.969878 562.41235 
L 1164.540434 558.100509 
L 1165.825712 558.14731 
L 1167.110991 559.617613 
L 1168.396269 558.375446 
L 1170.966825 559.560238 
L 1172.252103 563.817859 
L 1173.537381 564.172253 
L 1176.107937 564.019838 
L 1177.393216 564.323119 
L 1178.678494 564.027456 
L 1179.963772 564.140465 
L 1181.24905 569.495187 
L 1182.534328 569.472144 
L 1183.819606 568.910152 
L 1185.104884 568.808349 
L 1186.390162 569.620489 
L 1187.675441 568.73338 
L 1188.960719 570.184198 
L 1190.245997 569.261371 
L 1191.531275 569.986466 
L 1192.816553 569.566346 
L 1194.101831 570.529475 
L 1195.387109 570.596161 
L 1196.672387 574.465859 
L 1197.957666 574.154541 
L 1199.242944 574.561728 
L 1201.8135 574.547626 
L 1204.384056 574.59103 
L 1205.669334 573.842012 
L 1206.954612 573.574564 
L 1208.239891 573.610666 
L 1209.525169 576.70607 
L 1210.810447 576.768372 
L 1212.095725 591.536866 
L 1213.381003 591.403706 
L 1217.236837 591.40289 
L 1218.522116 591.810238 
L 1219.807394 591.623514 
L 1221.092672 591.063997 
L 1222.37795 591.998566 
L 1223.663228 592.04516 
L 1224.948506 591.928686 
L 1226.233784 592.025232 
L 1227.519062 591.680922 
L 1228.804341 591.95987 
L 1230.089619 592.879764 
L 1231.374897 593.028926 
L 1232.660175 593.30672 
L 1233.945453 592.980503 
L 1235.230731 592.94434 
L 1236.516009 598.175063 
L 1237.801287 598.476845 
L 1239.086566 600.249053 
L 1241.657122 600.131751 
L 1242.9424 600.209353 
L 1244.227678 600.508926 
L 1245.512956 601.931062 
L 1246.798234 601.414085 
L 1248.083512 599.245113 
L 1250.654069 599.243597 
L 1251.939347 603.83573 
L 1253.224625 603.171496 
L 1254.509903 605.068698 
L 1255.795181 609.150469 
L 1258.365737 609.107251 
L 1259.651016 612.826157 
L 1260.936294 612.829496 
L 1262.221572 613.235408 
L 1263.50685 614.027569 
L 1264.792128 613.983187 
L 1266.077406 613.752917 
L 1267.362684 614.019128 
L 1268.647962 617.64864 
L 1269.933241 617.759406 
L 1271.218519 617.757453 
L 1272.503797 612.675257 
L 1275.074353 612.610316 
L 1276.359631 612.615958 
L 1277.644909 611.676407 
L 1278.930187 611.915272 
L 1280.215466 611.895324 
L 1281.500744 618.601669 
L 1282.786022 617.990254 
L 1284.0713 617.672471 
L 1285.356578 617.769557 
L 1286.641856 618.052666 
L 1287.927134 618.748413 
L 1289.212412 618.684212 
L 1290.497691 614.085964 
L 1291.782969 613.771191 
L 1293.068247 613.614566 
L 1294.353525 613.311591 
L 1295.638803 612.803777 
L 1298.209359 613.145572 
L 1299.494637 616.793089 
L 1300.779916 616.616377 
L 1302.065194 616.690666 
L 1303.350472 616.528721 
L 1304.63575 616.608562 
L 1305.921028 616.915257 
L 1307.206306 622.850732 
L 1308.491584 623.555813 
L 1309.776862 623.690122 
L 1311.062141 623.566136 
L 1312.347419 623.164338 
L 1313.632697 623.078148 
L 1314.917975 629.30797 
L 1316.203253 629.629314 
L 1317.488531 629.476709 
L 1318.773809 629.692088 
L 1320.059087 629.343865 
L 1321.344366 629.214195 
L 1322.629644 634.068832 
L 1325.2002 633.858136 
L 1326.485478 634.243729 
L 1327.770756 633.998468 
L 1329.056034 633.870985 
L 1330.341312 638.955935 
L 1331.626591 638.320405 
L 1332.911869 638.146399 
L 1334.197147 638.427205 
L 1335.482425 639.023714 
L 1336.767703 645.594622 
L 1338.052981 645.601945 
L 1339.338259 645.930202 
L 1340.623537 645.595981 
L 1341.908816 650.570198 
L 1343.194094 650.586351 
L 1344.479372 653.78541 
L 1345.76465 653.787589 
L 1347.049928 653.314849 
L 1348.335206 653.402112 
L 1349.620484 650.540229 
L 1350.905762 650.171935 
L 1352.191041 653.221011 
L 1353.476319 651.074149 
L 1354.761597 654.875319 
L 1356.046875 655.523885 
L 1356.046875 655.523885 
" style="fill:none;stroke:#0000ff;stroke-linecap:square;stroke-width:2.0;"/>
   </g>
   <g id="line2d_2">
    <path clip-path="url(#p4a97ce3e2a)" d="M 72.054028 125.171295 
L 73.339306 124.989955 
L 74.624584 124.937464 
L 77.195141 125.012251 
L 78.480419 125.956991 
L 82.336253 125.886707 
L 83.621531 125.884358 
L 84.906809 135.417208 
L 86.192087 135.159084 
L 88.762644 135.381594 
L 90.047922 135.122493 
L 91.3332 135.322699 
L 92.618478 135.223396 
L 93.903756 141.510359 
L 95.189034 141.239856 
L 96.474312 140.75148 
L 97.759591 142.324048 
L 99.044869 140.912663 
L 100.330147 141.321204 
L 101.615425 141.479637 
L 102.900703 140.936016 
L 104.185981 144.358465 
L 105.471259 144.535477 
L 106.756537 144.125183 
L 108.041816 144.397179 
L 109.327094 144.23089 
L 110.612372 144.668473 
L 111.89765 144.11892 
L 113.182928 154.743929 
L 114.468206 154.54268 
L 117.038762 154.507427 
L 118.324041 154.466104 
L 119.609319 154.620814 
L 120.894597 161.239683 
L 122.179875 161.248998 
L 123.465153 161.144205 
L 124.750431 161.722931 
L 126.035709 160.951767 
L 127.320988 161.244292 
L 128.606266 160.523243 
L 129.891544 155.806737 
L 131.176822 155.505265 
L 132.4621 155.450062 
L 135.032656 155.562689 
L 136.317934 153.073857 
L 137.603212 153.179415 
L 140.173769 153.93068 
L 141.459047 153.403731 
L 142.744325 153.764385 
L 144.029603 153.67769 
L 145.314881 158.876274 
L 146.600159 159.864696 
L 149.170716 159.781126 
L 150.455994 159.903581 
L 151.741272 162.719377 
L 153.02655 163.523812 
L 154.311828 163.260601 
L 156.882384 163.162062 
L 158.167663 163.171134 
L 159.452941 166.18526 
L 160.738219 168.736058 
L 162.023497 168.61229 
L 165.879331 168.621605 
L 167.164609 168.057445 
L 169.735166 168.584653 
L 172.305722 168.562502 
L 173.591 169.235634 
L 174.876278 168.637258 
L 176.161556 169.411126 
L 177.446834 169.274533 
L 178.732112 171.773073 
L 183.873225 172.008111 
L 185.158503 172.193647 
L 186.443781 172.840874 
L 187.729059 176.360086 
L 189.014337 176.182955 
L 190.299616 176.168474 
L 191.584894 175.503821 
L 192.870172 176.448535 
L 194.15545 176.383431 
L 195.440728 178.284197 
L 196.726006 178.428218 
L 198.011284 177.956798 
L 199.296562 177.947935 
L 200.581841 177.460171 
L 201.867119 177.851705 
L 203.152397 177.42999 
L 204.437675 178.452758 
L 205.722953 180.701768 
L 208.293509 180.720293 
L 209.578787 181.140601 
L 210.864066 180.557819 
L 212.149344 180.75126 
L 214.7199 187.022061 
L 216.005178 187.00787 
L 217.290456 187.279147 
L 218.575734 187.080544 
L 219.861012 187.174388 
L 221.146291 187.087142 
L 222.431569 187.822566 
L 225.002125 188.207426 
L 227.572681 188.223801 
L 228.857959 188.045975 
L 230.143237 188.587412 
L 231.428516 186.1906 
L 232.713794 185.614872 
L 235.28435 185.742309 
L 236.569628 185.585522 
L 237.854906 185.637946 
L 239.140184 185.557046 
L 240.425462 188.917807 
L 241.710741 188.624707 
L 242.996019 188.843234 
L 244.281297 188.407104 
L 245.566575 188.528924 
L 246.851853 188.529073 
L 248.137131 188.166955 
L 250.707687 189.075 
L 251.992966 189.26707 
L 253.278244 188.98401 
L 255.8488 189.294634 
L 257.134078 193.461062 
L 258.419356 193.534169 
L 260.989913 193.464012 
L 262.275191 193.535099 
L 263.560469 188.984199 
L 264.845747 189.558713 
L 266.131025 189.831586 
L 267.416303 189.631504 
L 268.701581 189.274333 
L 269.986859 189.248819 
L 271.272137 191.018088 
L 272.557416 191.004844 
L 273.842694 191.346289 
L 275.127972 191.083101 
L 277.698528 191.06607 
L 278.983806 191.587404 
L 280.269084 192.458036 
L 281.554362 191.786993 
L 282.839641 192.384454 
L 284.124919 192.600027 
L 285.410197 192.511787 
L 286.695475 192.686518 
L 287.980753 194.850762 
L 290.551309 195.042982 
L 291.836587 194.60947 
L 293.121866 194.890266 
L 294.407144 194.040527 
L 295.692422 193.911981 
L 296.9777 198.209187 
L 298.262978 197.903725 
L 299.548256 198.195326 
L 300.833534 197.837948 
L 302.118812 197.741334 
L 303.404091 197.94747 
L 304.689369 197.856087 
L 305.974647 196.706906 
L 307.259925 197.460065 
L 308.545203 197.035262 
L 309.830481 196.841358 
L 311.115759 197.007779 
L 312.401037 198.190961 
L 313.686316 197.966609 
L 314.971594 198.02728 
L 316.256872 199.339298 
L 318.827428 199.756256 
L 320.112706 200.391689 
L 321.397984 200.224488 
L 322.683262 200.60678 
L 323.968541 205.238135 
L 325.253819 205.43162 
L 326.539097 204.781786 
L 327.824375 205.517423 
L 329.109653 204.925756 
L 330.394931 206.649742 
L 331.680209 212.841478 
L 332.965487 216.07884 
L 334.250766 216.206965 
L 335.536044 216.189615 
L 336.821322 216.782453 
L 338.1066 216.19715 
L 339.391878 216.437164 
L 340.677156 216.293803 
L 341.962434 223.111933 
L 343.247712 222.299052 
L 344.532991 222.957248 
L 345.818269 223.212112 
L 347.103547 222.736474 
L 348.388825 214.073663 
L 349.674103 215.155356 
L 350.959381 214.563483 
L 354.815216 213.901142 
L 356.100494 218.188258 
L 357.385772 218.138707 
L 358.67105 218.407868 
L 359.956328 218.1965 
L 362.526884 218.994542 
L 363.812162 218.953156 
L 365.097441 228.15965 
L 367.667997 227.588172 
L 368.953275 228.077342 
L 372.809109 228.065441 
L 374.094387 227.724789 
L 375.379666 231.326858 
L 376.664944 231.810438 
L 377.950222 231.633435 
L 379.2355 232.136631 
L 380.520778 231.51889 
L 381.806056 231.577921 
L 383.091334 243.149885 
L 384.376612 243.083051 
L 385.661891 243.426333 
L 386.947169 243.497806 
L 388.232447 243.10532 
L 389.517725 243.51321 
L 390.803003 251.965561 
L 392.088281 252.210039 
L 393.373559 251.346767 
L 394.658838 251.340803 
L 395.944116 251.170984 
L 397.229394 252.736104 
L 398.514672 247.665051 
L 399.79995 248.010142 
L 401.085228 247.635362 
L 402.370506 249.434233 
L 403.655784 250.52828 
L 404.941062 253.701144 
L 406.226341 253.650853 
L 407.511619 253.218468 
L 408.796897 254.66135 
L 410.082175 257.467256 
L 411.367453 257.486544 
L 412.652731 258.510716 
L 413.938009 262.840954 
L 415.223287 262.740323 
L 416.508566 263.252659 
L 417.793844 265.626014 
L 419.079122 265.946565 
L 420.3644 265.87741 
L 421.649678 265.527308 
L 422.934956 270.123441 
L 424.220234 269.882462 
L 425.505512 269.807859 
L 426.790791 271.755594 
L 428.076069 274.906304 
L 429.361347 276.262235 
L 430.646625 276.0553 
L 431.931903 276.257971 
L 433.217181 275.704137 
L 434.502459 275.836792 
L 435.787737 275.153455 
L 437.073016 283.404621 
L 438.358294 286.90202 
L 439.643572 285.794438 
L 440.92885 287.559684 
L 442.214128 288.02938 
L 444.784684 287.863858 
L 446.069962 293.513406 
L 447.355241 293.611857 
L 448.640519 293.447314 
L 449.925797 294.277558 
L 451.211075 294.638237 
L 453.781631 294.371281 
L 455.066909 292.559442 
L 457.637466 292.417018 
L 458.922744 295.177463 
L 460.208022 295.165724 
L 461.4933 296.129121 
L 462.778578 294.870957 
L 464.063856 297.930938 
L 465.349134 303.241231 
L 466.634412 302.031361 
L 467.919691 301.948465 
L 469.204969 301.265738 
L 470.490247 302.997396 
L 471.775525 305.182353 
L 473.060803 305.230719 
L 474.346081 310.45578 
L 475.631359 310.316779 
L 478.201916 310.244435 
L 479.487194 313.375645 
L 480.772472 312.035892 
L 482.05775 312.130765 
L 483.343028 320.236007 
L 484.628306 320.780935 
L 485.913584 320.874331 
L 487.198862 320.720824 
L 489.769419 321.077492 
L 491.054697 321.148543 
L 492.339975 336.93828 
L 493.625253 335.613745 
L 494.910531 335.737255 
L 496.195809 335.73813 
L 497.481087 336.590124 
L 498.766366 336.474052 
L 500.051644 336.61293 
L 501.336922 340.869594 
L 503.907478 340.766943 
L 507.763312 340.98591 
L 509.048591 340.454009 
L 510.333869 339.742403 
L 511.619147 339.679018 
L 512.904425 340.029543 
L 514.189703 339.648762 
L 515.474981 339.619984 
L 516.760259 339.80816 
L 518.045537 339.382776 
L 519.330816 350.465675 
L 520.616094 350.273579 
L 521.901372 351.641563 
L 523.18665 351.751251 
L 524.471928 352.254889 
L 525.757206 352.356024 
L 527.042484 352.090225 
L 528.327762 354.678853 
L 529.613041 355.163161 
L 530.898319 354.241358 
L 533.468875 356.199045 
L 534.754153 356.688491 
L 536.039431 357.675585 
L 537.324709 363.558124 
L 538.609987 365.387304 
L 539.895266 366.053319 
L 541.180544 365.897689 
L 542.465822 365.556257 
L 543.7511 366.329523 
L 546.321656 366.208702 
L 547.606934 368.126848 
L 548.892212 368.318061 
L 550.177491 367.508096 
L 551.462769 367.423128 
L 552.748047 367.704839 
L 554.033325 368.682651 
L 555.318603 371.479796 
L 556.603881 370.941994 
L 557.889159 371.062226 
L 559.174437 371.650035 
L 560.459716 371.41497 
L 561.744994 371.901509 
L 563.030272 379.483556 
L 564.31555 379.547391 
L 565.600828 379.912928 
L 566.886106 379.320898 
L 568.171384 379.687023 
L 569.456662 372.926832 
L 570.741941 373.045972 
L 572.027219 372.107963 
L 573.312497 373.516444 
L 574.597775 373.462431 
L 575.883053 374.224986 
L 577.168331 379.255194 
L 578.453609 379.11856 
L 579.738887 379.994788 
L 581.024166 380.446896 
L 582.309444 379.979962 
L 583.594722 380.091231 
L 584.88 380.081343 
L 586.165278 383.872867 
L 588.735834 384.029681 
L 590.021112 384.186027 
L 591.306391 384.057427 
L 592.591669 383.109077 
L 593.876947 383.312303 
L 595.162225 388.588318 
L 596.447503 388.400177 
L 600.303337 388.488581 
L 601.588616 388.326792 
L 602.873894 388.428424 
L 604.159172 394.746669 
L 605.44445 394.284429 
L 608.015006 394.405375 
L 609.300284 394.060724 
L 610.585562 394.5369 
L 611.870841 385.932677 
L 613.156119 385.179177 
L 615.726675 385.401675 
L 617.011953 385.44082 
L 618.297231 385.356787 
L 619.582509 385.481185 
L 620.867787 391.177876 
L 622.153066 391.088927 
L 624.723622 389.966838 
L 626.0089 390.841535 
L 627.294178 391.102826 
L 628.579456 390.915406 
L 629.864734 388.396315 
L 631.150012 389.824948 
L 632.435291 388.851026 
L 633.720569 389.468127 
L 635.005847 389.168883 
L 636.291125 389.203019 
L 637.576403 389.595156 
L 638.861681 398.348509 
L 640.146959 398.08231 
L 641.432237 398.679572 
L 642.717516 398.401147 
L 644.002794 398.550332 
L 645.288072 399.330222 
L 646.57335 399.632599 
L 647.858628 401.798291 
L 649.143906 401.727546 
L 650.429184 401.005368 
L 652.999741 401.145427 
L 654.285019 401.013221 
L 655.570297 401.112397 
L 656.855575 403.741307 
L 658.140853 404.757822 
L 659.426131 404.924025 
L 660.711409 405.680005 
L 661.996687 406.732073 
L 663.281966 406.098773 
L 664.567244 406.827941 
L 665.852522 410.787042 
L 667.1378 415.115631 
L 668.423078 414.826252 
L 669.708356 413.908826 
L 670.993634 414.078021 
L 672.278912 413.938681 
L 673.564191 416.092014 
L 674.849469 415.329023 
L 676.134747 423.79333 
L 677.420025 424.353988 
L 678.705303 423.796136 
L 679.990581 423.747321 
L 681.275859 428.349354 
L 682.561137 428.397165 
L 683.846416 435.900416 
L 685.131694 435.457757 
L 687.70225 435.795295 
L 688.987528 435.786069 
L 690.272806 435.08592 
L 691.558084 434.943726 
L 692.843362 434.031299 
L 694.128641 432.273017 
L 695.413919 432.597018 
L 696.699197 432.370968 
L 697.984475 432.481811 
L 699.269753 432.122703 
L 700.555031 436.357386 
L 701.840309 436.477834 
L 703.125587 436.341545 
L 704.410866 444.480134 
L 705.696144 446.199905 
L 706.981422 444.537785 
L 709.551978 444.630885 
L 710.837256 451.843542 
L 713.407812 451.88989 
L 714.693091 453.634943 
L 717.263647 453.684578 
L 718.548925 455.606447 
L 721.119481 455.634541 
L 722.404759 455.990196 
L 723.690037 457.075269 
L 724.975316 457.738202 
L 727.545872 457.721271 
L 728.83115 463.610111 
L 731.401706 463.628224 
L 732.686984 466.023849 
L 735.257541 465.899732 
L 736.542819 466.029986 
L 737.828097 471.308523 
L 739.113375 471.318487 
L 740.398653 470.562449 
L 741.683931 470.815784 
L 742.969209 471.286904 
L 744.254487 471.048796 
L 746.825044 470.953739 
L 748.110322 474.887676 
L 749.3956 475.037279 
L 750.680878 476.069222 
L 751.966156 475.450828 
L 753.251434 474.967936 
L 754.536712 477.645122 
L 757.107269 477.65154 
L 758.392547 483.686162 
L 762.248381 484.055877 
L 763.533659 483.503359 
L 764.818937 483.893947 
L 766.104216 483.838319 
L 767.389494 481.817964 
L 768.674772 481.433457 
L 769.96005 481.807156 
L 771.245328 480.846258 
L 772.530606 481.153644 
L 773.815884 482.569815 
L 775.101162 482.556585 
L 776.386441 497.228761 
L 777.671719 496.068551 
L 778.956997 497.360055 
L 781.527553 502.703075 
L 784.098109 502.74216 
L 785.383387 503.631127 
L 786.668666 505.257623 
L 787.953944 505.249558 
L 789.239222 506.310779 
L 790.5245 506.008441 
L 791.809778 506.361519 
L 793.095056 506.104053 
L 795.665612 506.099613 
L 796.950891 507.804115 
L 798.236169 507.568916 
L 799.521447 508.392033 
L 800.806725 507.783066 
L 802.092003 508.241687 
L 803.377281 507.831171 
L 805.947837 507.81555 
L 807.233116 510.721714 
L 808.518394 510.712332 
L 809.803672 509.438202 
L 811.08895 510.535263 
L 812.374228 509.671271 
L 813.659506 510.679307 
L 814.944784 510.026295 
L 816.230062 510.026295 
L 817.515341 509.378752 
L 818.800619 509.80583 
L 820.085897 509.359603 
L 821.371175 509.519886 
L 823.941731 509.295788 
L 825.227009 509.542121 
L 826.512287 511.008562 
L 827.797566 510.900427 
L 829.082844 511.092746 
L 830.368122 511.052335 
L 831.6534 510.836886 
L 832.938678 513.895071 
L 834.223956 513.949054 
L 836.794512 520.781285 
L 839.365069 520.759478 
L 840.650347 520.899685 
L 841.935625 521.329696 
L 843.220903 521.150504 
L 844.506181 521.194996 
L 845.791459 525.20098 
L 847.076737 526.136143 
L 848.362016 526.220099 
L 849.647294 527.673856 
L 850.932572 527.379162 
L 852.21785 526.407729 
L 853.503128 529.297392 
L 854.788406 529.338762 
L 856.073684 535.180566 
L 857.358962 534.067742 
L 858.644241 534.160326 
L 861.214797 534.163271 
L 862.500075 535.663389 
L 865.070631 535.691606 
L 866.355909 535.886875 
L 867.641187 535.804378 
L 868.926466 535.991176 
L 870.211744 536.05658 
L 871.497022 535.30772 
L 872.7823 535.871847 
L 874.067578 536.283691 
L 875.352856 536.287683 
L 876.638134 549.749513 
L 880.493969 549.832026 
L 881.779247 550.12502 
L 883.064525 549.8747 
L 884.349803 549.966783 
L 885.635081 552.15611 
L 886.920359 551.743025 
L 888.205637 552.469251 
L 889.490916 551.835311 
L 890.776194 552.022325 
L 892.061472 553.601845 
L 893.34675 553.597358 
L 894.632028 556.36346 
L 895.917306 555.855058 
L 897.202584 557.359401 
L 898.487862 563.179614 
L 899.773141 562.917035 
L 901.058419 562.847677 
L 902.343697 563.196641 
L 903.628975 561.702457 
L 904.914253 563.30002 
L 906.199531 563.317671 
L 907.484809 572.673402 
L 908.770087 573.452184 
L 911.340644 573.505935 
L 912.625922 575.234813 
L 913.9112 576.466491 
L 915.196478 576.457362 
L 916.481756 581.630712 
L 917.767034 582.698281 
L 919.052312 582.328091 
L 920.337591 584.021909 
L 921.622869 587.461343 
L 922.908147 587.189667 
L 925.478703 587.139095 
L 926.763981 587.489835 
L 928.049259 587.671742 
L 929.334537 587.521397 
L 931.905094 586.646222 
L 934.47565 586.667966 
L 935.760928 581.503993 
L 939.616762 581.601403 
L 940.902041 584.84965 
L 943.472597 584.742696 
L 944.757875 585.743342 
L 946.043153 588.833076 
L 947.328431 589.773506 
L 949.898987 589.638115 
L 951.184266 591.526833 
L 952.469544 591.737252 
L 953.754822 591.754085 
L 955.0401 589.402059 
L 956.325378 589.257882 
L 957.610656 587.79001 
L 958.895934 589.142751 
L 960.181212 589.43752 
L 961.466491 589.089146 
L 962.751769 587.794756 
L 964.037047 589.204967 
L 965.322325 589.079021 
L 966.607603 589.310896 
L 967.892881 599.420272 
L 969.178159 604.131655 
L 970.463437 604.223289 
L 971.748716 604.784375 
L 973.033994 604.795702 
L 974.319272 604.148974 
L 975.60455 604.062087 
L 976.889828 603.518168 
L 978.175106 606.607067 
L 979.460384 606.906566 
L 980.745662 606.704866 
L 982.030941 606.70164 
L 983.316219 605.554919 
L 984.601497 601.940173 
L 985.886775 600.871525 
L 987.172053 601.143812 
L 988.457331 600.458799 
L 989.742609 600.475184 
L 991.027887 600.61036 
L 992.313166 600.956757 
L 993.598444 601.539937 
L 994.883722 599.895509 
L 996.169 599.394866 
L 1001.310112 599.375325 
L 1002.595391 606.281995 
L 1003.880669 604.618566 
L 1005.165947 606.916345 
L 1006.451225 606.815643 
L 1009.021781 606.962852 
L 1010.307059 606.929122 
L 1011.592337 607.431943 
L 1012.877616 607.201176 
L 1014.162894 606.046395 
L 1016.73345 605.856343 
L 1018.018728 606.101576 
L 1019.304006 605.946492 
L 1020.589284 606.230665 
L 1021.874562 608.435455 
L 1023.159841 612.703485 
L 1024.445119 612.580169 
L 1025.730397 612.986353 
L 1027.015675 613.209645 
L 1028.300953 612.675211 
L 1029.586231 611.087398 
L 1030.871509 608.271631 
L 1032.156787 609.95025 
L 1033.442066 608.220169 
L 1034.727344 607.90314 
L 1037.2979 608.012955 
L 1039.868456 607.624032 
L 1041.153734 607.759548 
L 1042.439012 608.544732 
L 1043.724291 608.293389 
L 1045.009569 608.181896 
L 1046.294847 608.189107 
L 1047.580125 610.869307 
L 1048.865403 611.163416 
L 1051.435959 610.795674 
L 1052.721237 610.960583 
L 1055.291794 610.070947 
L 1056.577072 608.952244 
L 1057.86235 609.829251 
L 1059.147628 608.833124 
L 1063.003462 608.807857 
L 1064.288741 602.341221 
L 1065.574019 602.142047 
L 1066.859297 603.116432 
L 1068.144575 603.455506 
L 1069.429853 603.441792 
L 1070.715131 603.720771 
L 1072.000409 603.714956 
L 1073.285687 611.330865 
L 1074.570966 614.662905 
L 1075.856244 614.662165 
L 1077.141522 616.51094 
L 1078.4268 616.463004 
L 1079.712078 616.556816 
L 1080.997356 616.782459 
L 1082.282634 617.481857 
L 1083.567912 616.225965 
L 1084.853191 616.226383 
L 1086.138469 615.751197 
L 1087.423747 619.333351 
L 1088.709025 619.458815 
L 1091.279581 619.436651 
L 1092.564859 620.518408 
L 1093.850137 618.765363 
L 1095.135416 619.270186 
L 1096.420694 618.441123 
L 1097.705972 618.653007 
L 1098.99125 618.717453 
L 1100.276528 619.3869 
L 1101.561806 624.249925 
L 1102.847084 623.471201 
L 1104.132362 624.474865 
L 1105.417641 623.577884 
L 1106.702919 623.435699 
L 1107.988197 624.524632 
L 1109.273475 624.541822 
L 1110.558753 629.016177 
L 1111.844031 629.713362 
L 1113.129309 629.875629 
L 1114.414587 629.653446 
L 1115.699866 629.555866 
L 1116.985144 627.37591 
L 1118.270422 627.342204 
L 1119.5557 630.875777 
L 1120.840978 632.958697 
L 1122.126256 634.308778 
L 1123.411534 634.085616 
L 1124.696812 632.732987 
L 1125.982091 634.136037 
L 1127.267369 636.689008 
L 1128.552647 642.397832 
L 1129.837925 641.828399 
L 1131.123203 641.410011 
L 1132.408481 641.635019 
L 1133.693759 642.413729 
L 1134.979037 642.229238 
L 1136.264316 646.550675 
L 1137.549594 645.988189 
L 1138.834872 646.560327 
L 1140.12015 646.527625 
L 1141.405428 646.946918 
L 1143.975984 646.878789 
L 1145.261262 654.764824 
L 1146.546541 654.326624 
L 1149.117097 654.501538 
L 1151.687653 654.569621 
L 1152.972931 654.705668 
L 1154.258209 666.713341 
L 1155.543487 666.39325 
L 1156.828766 666.738899 
L 1158.114044 666.465682 
L 1159.399322 668.147481 
L 1160.6846 668.036633 
L 1161.969878 668.361002 
L 1163.255156 671.677083 
L 1164.540434 671.846877 
L 1167.110991 671.339986 
L 1168.396269 672.353905 
L 1169.681547 672.3138 
L 1170.966825 674.692381 
L 1172.252103 673.630773 
L 1173.537381 677.665396 
L 1174.822659 677.491107 
L 1176.107937 678.772961 
L 1177.393216 679.863243 
L 1178.678494 680.067727 
L 1179.963772 680.11994 
L 1181.24905 679.373453 
L 1182.534328 695.742546 
L 1183.819606 695.638337 
L 1185.104884 695.121247 
L 1187.675441 695.448564 
L 1188.960719 695.754635 
L 1190.245997 695.611791 
L 1191.531275 696.915161 
L 1192.816553 696.111381 
L 1194.101831 696.997862 
L 1195.387109 696.912673 
L 1196.672387 697.089682 
L 1197.957666 697.532058 
L 1199.242944 701.872045 
L 1200.528222 702.038099 
L 1203.098778 701.789333 
L 1204.384056 701.427198 
L 1205.669334 701.54582 
L 1206.954612 699.550586 
L 1208.239891 697.094145 
L 1209.525169 697.452762 
L 1210.810447 697.001185 
L 1212.095725 696.961608 
L 1213.381003 697.274487 
L 1214.666281 697.180073 
L 1215.951559 696.957794 
L 1217.236837 697.555036 
L 1218.522116 685.262348 
L 1219.807394 685.516111 
L 1221.092672 685.632171 
L 1222.37795 685.319802 
L 1227.519062 685.220145 
L 1228.804341 691.667641 
L 1231.374897 691.832183 
L 1232.660175 691.4181 
L 1233.945453 691.483088 
L 1235.230731 691.412112 
L 1236.516009 691.511986 
L 1237.801287 691.345922 
L 1239.086566 685.251631 
L 1240.371844 684.956187 
L 1241.657122 685.262042 
L 1244.227678 684.911711 
L 1245.512956 699.584437 
L 1246.798234 696.958985 
L 1248.083512 698.971843 
L 1249.368791 700.223235 
L 1250.654069 700.361496 
L 1253.224625 700.335853 
L 1254.509903 713.653199 
L 1255.795181 713.184988 
L 1257.080459 713.654886 
L 1258.365737 713.33975 
L 1259.651016 715.17736 
L 1262.221572 715.085365 
L 1263.50685 714.309648 
L 1264.792128 713.789929 
L 1266.077406 711.936573 
L 1267.362684 711.565647 
L 1268.647962 708.432824 
L 1269.933241 709.503345 
L 1271.218519 709.711571 
L 1272.503797 709.742311 
L 1273.789075 708.848552 
L 1275.074353 707.15034 
L 1276.359631 704.403415 
L 1277.644909 704.78106 
L 1278.930187 704.897 
L 1280.215466 704.757283 
L 1284.0713 704.650505 
L 1285.356578 707.480673 
L 1286.641856 709.561617 
L 1287.927134 709.587872 
L 1289.212412 711.125755 
L 1290.497691 711.793324 
L 1293.068247 711.822367 
L 1294.353525 714.878975 
L 1295.638803 719.539566 
L 1296.924081 718.270337 
L 1299.494637 718.271233 
L 1300.779916 718.277177 
L 1302.065194 717.879463 
L 1303.350472 716.537738 
L 1304.63575 716.462013 
L 1305.921028 715.597258 
L 1309.776862 715.579144 
L 1311.062141 719.062156 
L 1312.347419 725.264263 
L 1313.632697 724.733192 
L 1314.917975 724.738571 
L 1316.203253 724.870162 
L 1317.488531 724.854943 
L 1318.773809 733.170899 
L 1321.344366 732.885971 
L 1323.914922 732.867231 
L 1325.2002 732.601321 
L 1330.341312 732.637643 
L 1331.626591 732.77621 
L 1332.911869 734.014344 
L 1334.197147 734.441029 
L 1335.482425 734.443115 
L 1336.767703 734.879584 
L 1338.052981 732.818304 
L 1339.338259 732.382242 
L 1340.623537 732.308517 
L 1341.908816 728.155201 
L 1344.479372 728.21894 
L 1345.76465 730.684251 
L 1347.049928 730.693869 
L 1348.335206 738.442279 
L 1349.620484 738.444916 
L 1350.905762 742.670154 
L 1352.191041 742.59771 
L 1353.476319 740.910043 
L 1354.761597 741.124295 
L 1356.046875 737.436756 
L 1356.046875 737.436756 
" style="fill:none;stroke:#008000;stroke-linecap:square;stroke-width:2.0;"/>
   </g>
   <g id="patch_3">
    <path d="M 70.76875 57.917187 
L 1356.046875 57.917187 
" style="fill:none;stroke:#000000;stroke-linecap:square;stroke-linejoin:miter;"/>
   </g>
   <g id="patch_4">
    <path d="M 1356.046875 770.34375 
L 1356.046875 57.917187 
" style="fill:none;stroke:#000000;stroke-linecap:square;stroke-linejoin:miter;"/>
   </g>
   <g id="patch_5">
    <path d="M 70.76875 770.34375 
L 1356.046875 770.34375 
" style="fill:none;stroke:#000000;stroke-linecap:square;stroke-linejoin:miter;"/>
   </g>
   <g id="patch_6">
    <path d="M 70.76875 770.34375 
L 70.76875 57.917187 
" style="fill:none;stroke:#000000;stroke-linecap:square;stroke-linejoin:miter;"/>
   </g>
   <g id="matplotlib.axis_1">
    <g id="xtick_1">
     <g id="line2d_3">
      <defs>
       <path d="M 0 0 
L 0 -4 
" id="m5600ede019" style="stroke:#000000;stroke-width:0.5;"/>
      </defs>
      <g>
       <use style="stroke:#000000;stroke-width:0.5;" x="70.76875" xlink:href="#m5600ede019" y="770.34375"/>
      </g>
     </g>
     <g id="line2d_4">
      <defs>
       <path d="M 0 0 
L 0 4 
" id="m7e9461a1ed" style="stroke:#000000;stroke-width:0.5;"/>
      </defs>
      <g>
       <use style="stroke:#000000;stroke-width:0.5;" x="70.76875" xlink:href="#m7e9461a1ed" y="57.9171875"/>
      </g>
     </g>
     <g id="text_1">
      <!-- 0 -->
      <defs>
       <path d="M 31.78125 66.40625 
Q 24.171875 66.40625 20.328125 58.90625 
Q 16.5 51.421875 16.5 36.375 
Q 16.5 21.390625 20.328125 13.890625 
Q 24.171875 6.390625 31.78125 6.390625 
Q 39.453125 6.390625 43.28125 13.890625 
Q 47.125 21.390625 47.125 36.375 
Q 47.125 51.421875 43.28125 58.90625 
Q 39.453125 66.40625 31.78125 66.40625 
M 31.78125 74.21875 
Q 44.046875 74.21875 50.515625 64.515625 
Q 56.984375 54.828125 56.984375 36.375 
Q 56.984375 17.96875 50.515625 8.265625 
Q 44.046875 -1.421875 31.78125 -1.421875 
Q 19.53125 -1.421875 13.0625 8.265625 
Q 6.59375 17.96875 6.59375 36.375 
Q 6.59375 54.828125 13.0625 64.515625 
Q 19.53125 74.21875 31.78125 74.21875 
" id="BitstreamVeraSans-Roman-30"/>
      </defs>
      <g transform="translate(61.225 797.1390625)scale(0.3 -0.3)">
       <use xlink:href="#BitstreamVeraSans-Roman-30"/>
      </g>
     </g>
    </g>
    <g id="xtick_2">
     <g id="line2d_5">
      <g>
       <use style="stroke:#000000;stroke-width:0.5;" x="327.824375" xlink:href="#m5600ede019" y="770.34375"/>
      </g>
     </g>
     <g id="line2d_6">
      <g>
       <use style="stroke:#000000;stroke-width:0.5;" x="327.824375" xlink:href="#m7e9461a1ed" y="57.9171875"/>
      </g>
     </g>
     <g id="text_2">
      <!-- 20000 -->
      <defs>
       <path d="M 19.1875 8.296875 
L 53.609375 8.296875 
L 53.609375 0 
L 7.328125 0 
L 7.328125 8.296875 
Q 12.9375 14.109375 22.625 23.890625 
Q 32.328125 33.6875 34.8125 36.53125 
Q 39.546875 41.84375 41.421875 45.53125 
Q 43.3125 49.21875 43.3125 52.78125 
Q 43.3125 58.59375 39.234375 62.25 
Q 35.15625 65.921875 28.609375 65.921875 
Q 23.96875 65.921875 18.8125 64.3125 
Q 13.671875 62.703125 7.8125 59.421875 
L 7.8125 69.390625 
Q 13.765625 71.78125 18.9375 73 
Q 24.125 74.21875 28.421875 74.21875 
Q 39.75 74.21875 46.484375 68.546875 
Q 53.21875 62.890625 53.21875 53.421875 
Q 53.21875 48.921875 51.53125 44.890625 
Q 49.859375 40.875 45.40625 35.40625 
Q 44.1875 33.984375 37.640625 27.21875 
Q 31.109375 20.453125 19.1875 8.296875 
" id="BitstreamVeraSans-Roman-32"/>
      </defs>
      <g transform="translate(280.105625 797.1390625)scale(0.3 -0.3)">
       <use xlink:href="#BitstreamVeraSans-Roman-32"/>
       <use x="63.623046875" xlink:href="#BitstreamVeraSans-Roman-30"/>
       <use x="127.24609375" xlink:href="#BitstreamVeraSans-Roman-30"/>
       <use x="190.869140625" xlink:href="#BitstreamVeraSans-Roman-30"/>
       <use x="254.4921875" xlink:href="#BitstreamVeraSans-Roman-30"/>
      </g>
     </g>
    </g>
    <g id="xtick_3">
     <g id="line2d_7">
      <g>
       <use style="stroke:#000000;stroke-width:0.5;" x="584.88" xlink:href="#m5600ede019" y="770.34375"/>
      </g>
     </g>
     <g id="line2d_8">
      <g>
       <use style="stroke:#000000;stroke-width:0.5;" x="584.88" xlink:href="#m7e9461a1ed" y="57.9171875"/>
      </g>
     </g>
     <g id="text_3">
      <!-- 40000 -->
      <defs>
       <path d="M 37.796875 64.3125 
L 12.890625 25.390625 
L 37.796875 25.390625 
z
M 35.203125 72.90625 
L 47.609375 72.90625 
L 47.609375 25.390625 
L 58.015625 25.390625 
L 58.015625 17.1875 
L 47.609375 17.1875 
L 47.609375 0 
L 37.796875 0 
L 37.796875 17.1875 
L 4.890625 17.1875 
L 4.890625 26.703125 
z
" id="BitstreamVeraSans-Roman-34"/>
      </defs>
      <g transform="translate(537.16125 797.1390625)scale(0.3 -0.3)">
       <use xlink:href="#BitstreamVeraSans-Roman-34"/>
       <use x="63.623046875" xlink:href="#BitstreamVeraSans-Roman-30"/>
       <use x="127.24609375" xlink:href="#BitstreamVeraSans-Roman-30"/>
       <use x="190.869140625" xlink:href="#BitstreamVeraSans-Roman-30"/>
       <use x="254.4921875" xlink:href="#BitstreamVeraSans-Roman-30"/>
      </g>
     </g>
    </g>
    <g id="xtick_4">
     <g id="line2d_9">
      <g>
       <use style="stroke:#000000;stroke-width:0.5;" x="841.935625" xlink:href="#m5600ede019" y="770.34375"/>
      </g>
     </g>
     <g id="line2d_10">
      <g>
       <use style="stroke:#000000;stroke-width:0.5;" x="841.935625" xlink:href="#m7e9461a1ed" y="57.9171875"/>
      </g>
     </g>
     <g id="text_4">
      <!-- 60000 -->
      <defs>
       <path d="M 33.015625 40.375 
Q 26.375 40.375 22.484375 35.828125 
Q 18.609375 31.296875 18.609375 23.390625 
Q 18.609375 15.53125 22.484375 10.953125 
Q 26.375 6.390625 33.015625 6.390625 
Q 39.65625 6.390625 43.53125 10.953125 
Q 47.40625 15.53125 47.40625 23.390625 
Q 47.40625 31.296875 43.53125 35.828125 
Q 39.65625 40.375 33.015625 40.375 
M 52.59375 71.296875 
L 52.59375 62.3125 
Q 48.875 64.0625 45.09375 64.984375 
Q 41.3125 65.921875 37.59375 65.921875 
Q 27.828125 65.921875 22.671875 59.328125 
Q 17.53125 52.734375 16.796875 39.40625 
Q 19.671875 43.65625 24.015625 45.921875 
Q 28.375 48.1875 33.59375 48.1875 
Q 44.578125 48.1875 50.953125 41.515625 
Q 57.328125 34.859375 57.328125 23.390625 
Q 57.328125 12.15625 50.6875 5.359375 
Q 44.046875 -1.421875 33.015625 -1.421875 
Q 20.359375 -1.421875 13.671875 8.265625 
Q 6.984375 17.96875 6.984375 36.375 
Q 6.984375 53.65625 15.1875 63.9375 
Q 23.390625 74.21875 37.203125 74.21875 
Q 40.921875 74.21875 44.703125 73.484375 
Q 48.484375 72.75 52.59375 71.296875 
" id="BitstreamVeraSans-Roman-36"/>
      </defs>
      <g transform="translate(794.216875 797.1390625)scale(0.3 -0.3)">
       <use xlink:href="#BitstreamVeraSans-Roman-36"/>
       <use x="63.623046875" xlink:href="#BitstreamVeraSans-Roman-30"/>
       <use x="127.24609375" xlink:href="#BitstreamVeraSans-Roman-30"/>
       <use x="190.869140625" xlink:href="#BitstreamVeraSans-Roman-30"/>
       <use x="254.4921875" xlink:href="#BitstreamVeraSans-Roman-30"/>
      </g>
     </g>
    </g>
    <g id="xtick_5">
     <g id="line2d_11">
      <g>
       <use style="stroke:#000000;stroke-width:0.5;" x="1098.99125" xlink:href="#m5600ede019" y="770.34375"/>
      </g>
     </g>
     <g id="line2d_12">
      <g>
       <use style="stroke:#000000;stroke-width:0.5;" x="1098.99125" xlink:href="#m7e9461a1ed" y="57.9171875"/>
      </g>
     </g>
     <g id="text_5">
      <!-- 80000 -->
      <defs>
       <path d="M 31.78125 34.625 
Q 24.75 34.625 20.71875 30.859375 
Q 16.703125 27.09375 16.703125 20.515625 
Q 16.703125 13.921875 20.71875 10.15625 
Q 24.75 6.390625 31.78125 6.390625 
Q 38.8125 6.390625 42.859375 10.171875 
Q 46.921875 13.96875 46.921875 20.515625 
Q 46.921875 27.09375 42.890625 30.859375 
Q 38.875 34.625 31.78125 34.625 
M 21.921875 38.8125 
Q 15.578125 40.375 12.03125 44.71875 
Q 8.5 49.078125 8.5 55.328125 
Q 8.5 64.0625 14.71875 69.140625 
Q 20.953125 74.21875 31.78125 74.21875 
Q 42.671875 74.21875 48.875 69.140625 
Q 55.078125 64.0625 55.078125 55.328125 
Q 55.078125 49.078125 51.53125 44.71875 
Q 48 40.375 41.703125 38.8125 
Q 48.828125 37.15625 52.796875 32.3125 
Q 56.78125 27.484375 56.78125 20.515625 
Q 56.78125 9.90625 50.3125 4.234375 
Q 43.84375 -1.421875 31.78125 -1.421875 
Q 19.734375 -1.421875 13.25 4.234375 
Q 6.78125 9.90625 6.78125 20.515625 
Q 6.78125 27.484375 10.78125 32.3125 
Q 14.796875 37.15625 21.921875 38.8125 
M 18.3125 54.390625 
Q 18.3125 48.734375 21.84375 45.5625 
Q 25.390625 42.390625 31.78125 42.390625 
Q 38.140625 42.390625 41.71875 45.5625 
Q 45.3125 48.734375 45.3125 54.390625 
Q 45.3125 60.0625 41.71875 63.234375 
Q 38.140625 66.40625 31.78125 66.40625 
Q 25.390625 66.40625 21.84375 63.234375 
Q 18.3125 60.0625 18.3125 54.390625 
" id="BitstreamVeraSans-Roman-38"/>
      </defs>
      <g transform="translate(1051.2725 797.1390625)scale(0.3 -0.3)">
       <use xlink:href="#BitstreamVeraSans-Roman-38"/>
       <use x="63.623046875" xlink:href="#BitstreamVeraSans-Roman-30"/>
       <use x="127.24609375" xlink:href="#BitstreamVeraSans-Roman-30"/>
       <use x="190.869140625" xlink:href="#BitstreamVeraSans-Roman-30"/>
       <use x="254.4921875" xlink:href="#BitstreamVeraSans-Roman-30"/>
      </g>
     </g>
    </g>
    <g id="xtick_6">
     <g id="line2d_13">
      <g>
       <use style="stroke:#000000;stroke-width:0.5;" x="1356.046875" xlink:href="#m5600ede019" y="770.34375"/>
      </g>
     </g>
     <g id="line2d_14">
      <g>
       <use style="stroke:#000000;stroke-width:0.5;" x="1356.046875" xlink:href="#m7e9461a1ed" y="57.9171875"/>
      </g>
     </g>
     <g id="text_6">
      <!-- 100000 -->
      <defs>
       <path d="M 12.40625 8.296875 
L 28.515625 8.296875 
L 28.515625 63.921875 
L 10.984375 60.40625 
L 10.984375 69.390625 
L 28.421875 72.90625 
L 38.28125 72.90625 
L 38.28125 8.296875 
L 54.390625 8.296875 
L 54.390625 0 
L 12.40625 0 
z
" id="BitstreamVeraSans-Roman-31"/>
      </defs>
      <g transform="translate(1298.784375 797.1390625)scale(0.3 -0.3)">
       <use xlink:href="#BitstreamVeraSans-Roman-31"/>
       <use x="63.623046875" xlink:href="#BitstreamVeraSans-Roman-30"/>
       <use x="127.24609375" xlink:href="#BitstreamVeraSans-Roman-30"/>
       <use x="190.869140625" xlink:href="#BitstreamVeraSans-Roman-30"/>
       <use x="254.4921875" xlink:href="#BitstreamVeraSans-Roman-30"/>
       <use x="318.115234375" xlink:href="#BitstreamVeraSans-Roman-30"/>
      </g>
     </g>
    </g>
    <g id="text_7">
     <!-- iterations -->
     <defs>
      <path d="M 54.890625 33.015625 
L 54.890625 0 
L 45.90625 0 
L 45.90625 32.71875 
Q 45.90625 40.484375 42.875 44.328125 
Q 39.84375 48.1875 33.796875 48.1875 
Q 26.515625 48.1875 22.3125 43.546875 
Q 18.109375 38.921875 18.109375 30.90625 
L 18.109375 0 
L 9.078125 0 
L 9.078125 54.6875 
L 18.109375 54.6875 
L 18.109375 46.1875 
Q 21.34375 51.125 25.703125 53.5625 
Q 30.078125 56 35.796875 56 
Q 45.21875 56 50.046875 50.171875 
Q 54.890625 44.34375 54.890625 33.015625 
" id="BitstreamVeraSans-Roman-6e"/>
      <path d="M 34.28125 27.484375 
Q 23.390625 27.484375 19.1875 25 
Q 14.984375 22.515625 14.984375 16.5 
Q 14.984375 11.71875 18.140625 8.90625 
Q 21.296875 6.109375 26.703125 6.109375 
Q 34.1875 6.109375 38.703125 11.40625 
Q 43.21875 16.703125 43.21875 25.484375 
L 43.21875 27.484375 
z
M 52.203125 31.203125 
L 52.203125 0 
L 43.21875 0 
L 43.21875 8.296875 
Q 40.140625 3.328125 35.546875 0.953125 
Q 30.953125 -1.421875 24.3125 -1.421875 
Q 15.921875 -1.421875 10.953125 3.296875 
Q 6 8.015625 6 15.921875 
Q 6 25.140625 12.171875 29.828125 
Q 18.359375 34.515625 30.609375 34.515625 
L 43.21875 34.515625 
L 43.21875 35.40625 
Q 43.21875 41.609375 39.140625 45 
Q 35.0625 48.390625 27.6875 48.390625 
Q 23 48.390625 18.546875 47.265625 
Q 14.109375 46.140625 10.015625 43.890625 
L 10.015625 52.203125 
Q 14.9375 54.109375 19.578125 55.046875 
Q 24.21875 56 28.609375 56 
Q 40.484375 56 46.34375 49.84375 
Q 52.203125 43.703125 52.203125 31.203125 
" id="BitstreamVeraSans-Roman-61"/>
      <path d="M 30.609375 48.390625 
Q 23.390625 48.390625 19.1875 42.75 
Q 14.984375 37.109375 14.984375 27.296875 
Q 14.984375 17.484375 19.15625 11.84375 
Q 23.34375 6.203125 30.609375 6.203125 
Q 37.796875 6.203125 41.984375 11.859375 
Q 46.1875 17.53125 46.1875 27.296875 
Q 46.1875 37.015625 41.984375 42.703125 
Q 37.796875 48.390625 30.609375 48.390625 
M 30.609375 56 
Q 42.328125 56 49.015625 48.375 
Q 55.71875 40.765625 55.71875 27.296875 
Q 55.71875 13.875 49.015625 6.21875 
Q 42.328125 -1.421875 30.609375 -1.421875 
Q 18.84375 -1.421875 12.171875 6.21875 
Q 5.515625 13.875 5.515625 27.296875 
Q 5.515625 40.765625 12.171875 48.375 
Q 18.84375 56 30.609375 56 
" id="BitstreamVeraSans-Roman-6f"/>
      <path d="M 9.421875 54.6875 
L 18.40625 54.6875 
L 18.40625 0 
L 9.421875 0 
z
M 9.421875 75.984375 
L 18.40625 75.984375 
L 18.40625 64.59375 
L 9.421875 64.59375 
z
" id="BitstreamVeraSans-Roman-69"/>
      <path d="M 56.203125 29.59375 
L 56.203125 25.203125 
L 14.890625 25.203125 
Q 15.484375 15.921875 20.484375 11.0625 
Q 25.484375 6.203125 34.421875 6.203125 
Q 39.59375 6.203125 44.453125 7.46875 
Q 49.3125 8.734375 54.109375 11.28125 
L 54.109375 2.78125 
Q 49.265625 0.734375 44.1875 -0.34375 
Q 39.109375 -1.421875 33.890625 -1.421875 
Q 20.796875 -1.421875 13.15625 6.1875 
Q 5.515625 13.8125 5.515625 26.8125 
Q 5.515625 40.234375 12.765625 48.109375 
Q 20.015625 56 32.328125 56 
Q 43.359375 56 49.78125 48.890625 
Q 56.203125 41.796875 56.203125 29.59375 
M 47.21875 32.234375 
Q 47.125 39.59375 43.09375 43.984375 
Q 39.0625 48.390625 32.421875 48.390625 
Q 24.90625 48.390625 20.390625 44.140625 
Q 15.875 39.890625 15.1875 32.171875 
z
" id="BitstreamVeraSans-Roman-65"/>
      <path d="M 18.3125 70.21875 
L 18.3125 54.6875 
L 36.8125 54.6875 
L 36.8125 47.703125 
L 18.3125 47.703125 
L 18.3125 18.015625 
Q 18.3125 11.328125 20.140625 9.421875 
Q 21.96875 7.515625 27.59375 7.515625 
L 36.8125 7.515625 
L 36.8125 0 
L 27.59375 0 
Q 17.1875 0 13.234375 3.875 
Q 9.28125 7.765625 9.28125 18.015625 
L 9.28125 47.703125 
L 2.6875 47.703125 
L 2.6875 54.6875 
L 9.28125 54.6875 
L 9.28125 70.21875 
z
" id="BitstreamVeraSans-Roman-74"/>
      <path d="M 41.109375 46.296875 
Q 39.59375 47.171875 37.8125 47.578125 
Q 36.03125 48 33.890625 48 
Q 26.265625 48 22.1875 43.046875 
Q 18.109375 38.09375 18.109375 28.8125 
L 18.109375 0 
L 9.078125 0 
L 9.078125 54.6875 
L 18.109375 54.6875 
L 18.109375 46.1875 
Q 20.953125 51.171875 25.484375 53.578125 
Q 30.03125 56 36.53125 56 
Q 37.453125 56 38.578125 55.875 
Q 39.703125 55.765625 41.0625 55.515625 
z
" id="BitstreamVeraSans-Roman-72"/>
      <path d="M 44.28125 53.078125 
L 44.28125 44.578125 
Q 40.484375 46.53125 36.375 47.5 
Q 32.28125 48.484375 27.875 48.484375 
Q 21.1875 48.484375 17.84375 46.4375 
Q 14.5 44.390625 14.5 40.28125 
Q 14.5 37.15625 16.890625 35.375 
Q 19.28125 33.59375 26.515625 31.984375 
L 29.59375 31.296875 
Q 39.15625 29.25 43.1875 25.515625 
Q 47.21875 21.78125 47.21875 15.09375 
Q 47.21875 7.46875 41.1875 3.015625 
Q 35.15625 -1.421875 24.609375 -1.421875 
Q 20.21875 -1.421875 15.453125 -0.5625 
Q 10.6875 0.296875 5.421875 2 
L 5.421875 11.28125 
Q 10.40625 8.6875 15.234375 7.390625 
Q 20.0625 6.109375 24.8125 6.109375 
Q 31.15625 6.109375 34.5625 8.28125 
Q 37.984375 10.453125 37.984375 14.40625 
Q 37.984375 18.0625 35.515625 20.015625 
Q 33.0625 21.96875 24.703125 23.78125 
L 21.578125 24.515625 
Q 13.234375 26.265625 9.515625 29.90625 
Q 5.8125 33.546875 5.8125 39.890625 
Q 5.8125 47.609375 11.28125 51.796875 
Q 16.75 56 26.8125 56 
Q 31.78125 56 36.171875 55.265625 
Q 40.578125 54.546875 44.28125 53.078125 
" id="BitstreamVeraSans-Roman-73"/>
     </defs>
     <g transform="translate(642.22578125 831.1734375)scale(0.3 -0.3)">
      <use xlink:href="#BitstreamVeraSans-Roman-69"/>
      <use x="27.783203125" xlink:href="#BitstreamVeraSans-Roman-74"/>
      <use x="66.9921875" xlink:href="#BitstreamVeraSans-Roman-65"/>
      <use x="128.515625" xlink:href="#BitstreamVeraSans-Roman-72"/>
      <use x="169.62890625" xlink:href="#BitstreamVeraSans-Roman-61"/>
      <use x="230.908203125" xlink:href="#BitstreamVeraSans-Roman-74"/>
      <use x="270.1171875" xlink:href="#BitstreamVeraSans-Roman-69"/>
      <use x="297.900390625" xlink:href="#BitstreamVeraSans-Roman-6f"/>
      <use x="359.08203125" xlink:href="#BitstreamVeraSans-Roman-6e"/>
      <use x="422.4609375" xlink:href="#BitstreamVeraSans-Roman-73"/>
     </g>
    </g>
   </g>
   <g id="matplotlib.axis_2">
    <g id="ytick_1">
     <g id="line2d_15">
      <defs>
       <path d="M 0 0 
L 4 0 
" id="m45b5a3c2d1" style="stroke:#000000;stroke-width:0.5;"/>
      </defs>
      <g>
       <use style="stroke:#000000;stroke-width:0.5;" x="70.76875" xlink:href="#m45b5a3c2d1" y="770.34375"/>
      </g>
     </g>
     <g id="line2d_16">
      <defs>
       <path d="M 0 0 
L -4 0 
" id="m9d35f8862c" style="stroke:#000000;stroke-width:0.5;"/>
      </defs>
      <g>
       <use style="stroke:#000000;stroke-width:0.5;" x="1356.046875" xlink:href="#m9d35f8862c" y="770.34375"/>
      </g>
     </g>
     <g id="text_8">
      <!-- 0 -->
      <g transform="translate(47.68125 778.621875)scale(0.3 -0.3)">
       <use xlink:href="#BitstreamVeraSans-Roman-30"/>
      </g>
     </g>
    </g>
    <g id="ytick_2">
     <g id="line2d_17">
      <g>
       <use style="stroke:#000000;stroke-width:0.5;" x="70.76875" xlink:href="#m45b5a3c2d1" y="668.568526786"/>
      </g>
     </g>
     <g id="line2d_18">
      <g>
       <use style="stroke:#000000;stroke-width:0.5;" x="1356.046875" xlink:href="#m9d35f8862c" y="668.568526786"/>
      </g>
     </g>
     <g id="text_9">
      <!-- 2 -->
      <g transform="translate(47.68125 676.846651786)scale(0.3 -0.3)">
       <use xlink:href="#BitstreamVeraSans-Roman-32"/>
      </g>
     </g>
    </g>
    <g id="ytick_3">
     <g id="line2d_19">
      <g>
       <use style="stroke:#000000;stroke-width:0.5;" x="70.76875" xlink:href="#m45b5a3c2d1" y="566.793303571"/>
      </g>
     </g>
     <g id="line2d_20">
      <g>
       <use style="stroke:#000000;stroke-width:0.5;" x="1356.046875" xlink:href="#m9d35f8862c" y="566.793303571"/>
      </g>
     </g>
     <g id="text_10">
      <!-- 4 -->
      <g transform="translate(47.68125 575.071428571)scale(0.3 -0.3)">
       <use xlink:href="#BitstreamVeraSans-Roman-34"/>
      </g>
     </g>
    </g>
    <g id="ytick_4">
     <g id="line2d_21">
      <g>
       <use style="stroke:#000000;stroke-width:0.5;" x="70.76875" xlink:href="#m45b5a3c2d1" y="465.018080357"/>
      </g>
     </g>
     <g id="line2d_22">
      <g>
       <use style="stroke:#000000;stroke-width:0.5;" x="1356.046875" xlink:href="#m9d35f8862c" y="465.018080357"/>
      </g>
     </g>
     <g id="text_11">
      <!-- 6 -->
      <g transform="translate(47.68125 473.296205357)scale(0.3 -0.3)">
       <use xlink:href="#BitstreamVeraSans-Roman-36"/>
      </g>
     </g>
    </g>
    <g id="ytick_5">
     <g id="line2d_23">
      <g>
       <use style="stroke:#000000;stroke-width:0.5;" x="70.76875" xlink:href="#m45b5a3c2d1" y="363.242857143"/>
      </g>
     </g>
     <g id="line2d_24">
      <g>
       <use style="stroke:#000000;stroke-width:0.5;" x="1356.046875" xlink:href="#m9d35f8862c" y="363.242857143"/>
      </g>
     </g>
     <g id="text_12">
      <!-- 8 -->
      <g transform="translate(47.68125 371.520982143)scale(0.3 -0.3)">
       <use xlink:href="#BitstreamVeraSans-Roman-38"/>
      </g>
     </g>
    </g>
    <g id="ytick_6">
     <g id="line2d_25">
      <g>
       <use style="stroke:#000000;stroke-width:0.5;" x="70.76875" xlink:href="#m45b5a3c2d1" y="261.467633929"/>
      </g>
     </g>
     <g id="line2d_26">
      <g>
       <use style="stroke:#000000;stroke-width:0.5;" x="1356.046875" xlink:href="#m9d35f8862c" y="261.467633929"/>
      </g>
     </g>
     <g id="text_13">
      <!-- 10 -->
      <g transform="translate(28.59375 269.745758929)scale(0.3 -0.3)">
       <use xlink:href="#BitstreamVeraSans-Roman-31"/>
       <use x="63.623046875" xlink:href="#BitstreamVeraSans-Roman-30"/>
      </g>
     </g>
    </g>
    <g id="ytick_7">
     <g id="line2d_27">
      <g>
       <use style="stroke:#000000;stroke-width:0.5;" x="70.76875" xlink:href="#m45b5a3c2d1" y="159.692410714"/>
      </g>
     </g>
     <g id="line2d_28">
      <g>
       <use style="stroke:#000000;stroke-width:0.5;" x="1356.046875" xlink:href="#m9d35f8862c" y="159.692410714"/>
      </g>
     </g>
     <g id="text_14">
      <!-- 12 -->
      <g transform="translate(28.59375 167.970535714)scale(0.3 -0.3)">
       <use xlink:href="#BitstreamVeraSans-Roman-31"/>
       <use x="63.623046875" xlink:href="#BitstreamVeraSans-Roman-32"/>
      </g>
     </g>
    </g>
    <g id="ytick_8">
     <g id="line2d_29">
      <g>
       <use style="stroke:#000000;stroke-width:0.5;" x="70.76875" xlink:href="#m45b5a3c2d1" y="57.9171875"/>
      </g>
     </g>
     <g id="line2d_30">
      <g>
       <use style="stroke:#000000;stroke-width:0.5;" x="1356.046875" xlink:href="#m9d35f8862c" y="57.9171875"/>
      </g>
     </g>
     <g id="text_15">
      <!-- 14 -->
      <g transform="translate(28.59375 66.1953125)scale(0.3 -0.3)">
       <use xlink:href="#BitstreamVeraSans-Roman-31"/>
       <use x="63.623046875" xlink:href="#BitstreamVeraSans-Roman-34"/>
      </g>
     </g>
    </g>
   </g>
   <g id="text_16">
    <!-- log(loss) -->
    <defs>
     <path d="M 8.015625 75.875 
L 15.828125 75.875 
Q 23.140625 64.359375 26.78125 53.3125 
Q 30.421875 42.28125 30.421875 31.390625 
Q 30.421875 20.453125 26.78125 9.375 
Q 23.140625 -1.703125 15.828125 -13.1875 
L 8.015625 -13.1875 
Q 14.5 -2 17.703125 9.0625 
Q 20.90625 20.125 20.90625 31.390625 
Q 20.90625 42.671875 17.703125 53.65625 
Q 14.5 64.65625 8.015625 75.875 
" id="BitstreamVeraSans-Roman-29"/>
     <path d="M 31 75.875 
Q 24.46875 64.65625 21.28125 53.65625 
Q 18.109375 42.671875 18.109375 31.390625 
Q 18.109375 20.125 21.3125 9.0625 
Q 24.515625 -2 31 -13.1875 
L 23.1875 -13.1875 
Q 15.875 -1.703125 12.234375 9.375 
Q 8.59375 20.453125 8.59375 31.390625 
Q 8.59375 42.28125 12.203125 53.3125 
Q 15.828125 64.359375 23.1875 75.875 
z
" id="BitstreamVeraSans-Roman-28"/>
     <path d="M 45.40625 27.984375 
Q 45.40625 37.75 41.375 43.109375 
Q 37.359375 48.484375 30.078125 48.484375 
Q 22.859375 48.484375 18.828125 43.109375 
Q 14.796875 37.75 14.796875 27.984375 
Q 14.796875 18.265625 18.828125 12.890625 
Q 22.859375 7.515625 30.078125 7.515625 
Q 37.359375 7.515625 41.375 12.890625 
Q 45.40625 18.265625 45.40625 27.984375 
M 54.390625 6.78125 
Q 54.390625 -7.171875 48.1875 -13.984375 
Q 42 -20.796875 29.203125 -20.796875 
Q 24.46875 -20.796875 20.265625 -20.09375 
Q 16.0625 -19.390625 12.109375 -17.921875 
L 12.109375 -9.1875 
Q 16.0625 -11.328125 19.921875 -12.34375 
Q 23.78125 -13.375 27.78125 -13.375 
Q 36.625 -13.375 41.015625 -8.765625 
Q 45.40625 -4.15625 45.40625 5.171875 
L 45.40625 9.625 
Q 42.625 4.78125 38.28125 2.390625 
Q 33.9375 0 27.875 0 
Q 17.828125 0 11.671875 7.65625 
Q 5.515625 15.328125 5.515625 27.984375 
Q 5.515625 40.671875 11.671875 48.328125 
Q 17.828125 56 27.875 56 
Q 33.9375 56 38.28125 53.609375 
Q 42.625 51.21875 45.40625 46.390625 
L 45.40625 54.6875 
L 54.390625 54.6875 
z
" id="BitstreamVeraSans-Roman-67"/>
     <path d="M 9.421875 75.984375 
L 18.40625 75.984375 
L 18.40625 0 
L 9.421875 0 
z
" id="BitstreamVeraSans-Roman-6c"/>
    </defs>
    <g transform="translate(649.86171875 52.9171875)scale(0.3 -0.3)">
     <use xlink:href="#BitstreamVeraSans-Roman-6c"/>
     <use x="27.783203125" xlink:href="#BitstreamVeraSans-Roman-6f"/>
     <use x="88.96484375" xlink:href="#BitstreamVeraSans-Roman-67"/>
     <use x="152.44140625" xlink:href="#BitstreamVeraSans-Roman-28"/>
     <use x="191.455078125" xlink:href="#BitstreamVeraSans-Roman-6c"/>
     <use x="219.23828125" xlink:href="#BitstreamVeraSans-Roman-6f"/>
     <use x="280.419921875" xlink:href="#BitstreamVeraSans-Roman-73"/>
     <use x="332.51953125" xlink:href="#BitstreamVeraSans-Roman-73"/>
     <use x="384.619140625" xlink:href="#BitstreamVeraSans-Roman-29"/>
    </g>
   </g>
   <g id="legend_1">
    <g id="patch_7">
     <path d="M 863.873437 169.985937 
L 1341.046875 169.985937 
L 1341.046875 72.917187 
L 863.873437 72.917187 
z
" style="fill:#ffffff;stroke:#000000;stroke-linejoin:miter;"/>
    </g>
    <g id="line2d_31">
     <path d="M 884.873437 97.2125 
L 926.873437 97.2125 
" style="fill:none;stroke:#0000ff;stroke-linecap:square;stroke-width:2.0;"/>
    </g>
    <g id="line2d_32"/>
    <g id="text_17">
     <!-- random: step=0.004893 -->
     <defs>
      <path id="BitstreamVeraSans-Roman-20"/>
      <path d="M 40.578125 39.3125 
Q 47.65625 37.796875 51.625 33 
Q 55.609375 28.21875 55.609375 21.1875 
Q 55.609375 10.40625 48.1875 4.484375 
Q 40.765625 -1.421875 27.09375 -1.421875 
Q 22.515625 -1.421875 17.65625 -0.515625 
Q 12.796875 0.390625 7.625 2.203125 
L 7.625 11.71875 
Q 11.71875 9.328125 16.59375 8.109375 
Q 21.484375 6.890625 26.8125 6.890625 
Q 36.078125 6.890625 40.9375 10.546875 
Q 45.796875 14.203125 45.796875 21.1875 
Q 45.796875 27.640625 41.28125 31.265625 
Q 36.765625 34.90625 28.71875 34.90625 
L 20.21875 34.90625 
L 20.21875 43.015625 
L 29.109375 43.015625 
Q 36.375 43.015625 40.234375 45.921875 
Q 44.09375 48.828125 44.09375 54.296875 
Q 44.09375 59.90625 40.109375 62.90625 
Q 36.140625 65.921875 28.71875 65.921875 
Q 24.65625 65.921875 20.015625 65.03125 
Q 15.375 64.15625 9.8125 62.3125 
L 9.8125 71.09375 
Q 15.4375 72.65625 20.34375 73.4375 
Q 25.25 74.21875 29.59375 74.21875 
Q 40.828125 74.21875 47.359375 69.109375 
Q 53.90625 64.015625 53.90625 55.328125 
Q 53.90625 49.265625 50.4375 45.09375 
Q 46.96875 40.921875 40.578125 39.3125 
" id="BitstreamVeraSans-Roman-33"/>
      <path d="M 52 44.1875 
Q 55.375 50.25 60.0625 53.125 
Q 64.75 56 71.09375 56 
Q 79.640625 56 84.28125 50.015625 
Q 88.921875 44.046875 88.921875 33.015625 
L 88.921875 0 
L 79.890625 0 
L 79.890625 32.71875 
Q 79.890625 40.578125 77.09375 44.375 
Q 74.3125 48.1875 68.609375 48.1875 
Q 61.625 48.1875 57.5625 43.546875 
Q 53.515625 38.921875 53.515625 30.90625 
L 53.515625 0 
L 44.484375 0 
L 44.484375 32.71875 
Q 44.484375 40.625 41.703125 44.40625 
Q 38.921875 48.1875 33.109375 48.1875 
Q 26.21875 48.1875 22.15625 43.53125 
Q 18.109375 38.875 18.109375 30.90625 
L 18.109375 0 
L 9.078125 0 
L 9.078125 54.6875 
L 18.109375 54.6875 
L 18.109375 46.1875 
Q 21.1875 51.21875 25.484375 53.609375 
Q 29.78125 56 35.6875 56 
Q 41.65625 56 45.828125 52.96875 
Q 50 49.953125 52 44.1875 
" id="BitstreamVeraSans-Roman-6d"/>
      <path d="M 10.984375 1.515625 
L 10.984375 10.5 
Q 14.703125 8.734375 18.5 7.8125 
Q 22.3125 6.890625 25.984375 6.890625 
Q 35.75 6.890625 40.890625 13.453125 
Q 46.046875 20.015625 46.78125 33.40625 
Q 43.953125 29.203125 39.59375 26.953125 
Q 35.25 24.703125 29.984375 24.703125 
Q 19.046875 24.703125 12.671875 31.3125 
Q 6.296875 37.9375 6.296875 49.421875 
Q 6.296875 60.640625 12.9375 67.421875 
Q 19.578125 74.21875 30.609375 74.21875 
Q 43.265625 74.21875 49.921875 64.515625 
Q 56.59375 54.828125 56.59375 36.375 
Q 56.59375 19.140625 48.40625 8.859375 
Q 40.234375 -1.421875 26.421875 -1.421875 
Q 22.703125 -1.421875 18.890625 -0.6875 
Q 15.09375 0.046875 10.984375 1.515625 
M 30.609375 32.421875 
Q 37.25 32.421875 41.125 36.953125 
Q 45.015625 41.5 45.015625 49.421875 
Q 45.015625 57.28125 41.125 61.84375 
Q 37.25 66.40625 30.609375 66.40625 
Q 23.96875 66.40625 20.09375 61.84375 
Q 16.21875 57.28125 16.21875 49.421875 
Q 16.21875 41.5 20.09375 36.953125 
Q 23.96875 32.421875 30.609375 32.421875 
" id="BitstreamVeraSans-Roman-39"/>
      <path d="M 11.71875 12.40625 
L 22.015625 12.40625 
L 22.015625 0 
L 11.71875 0 
z
M 11.71875 51.703125 
L 22.015625 51.703125 
L 22.015625 39.3125 
L 11.71875 39.3125 
z
" id="BitstreamVeraSans-Roman-3a"/>
      <path d="M 10.6875 12.40625 
L 21 12.40625 
L 21 0 
L 10.6875 0 
z
" id="BitstreamVeraSans-Roman-2e"/>
      <path d="M 10.59375 45.40625 
L 73.1875 45.40625 
L 73.1875 37.203125 
L 10.59375 37.203125 
z
M 10.59375 25.484375 
L 73.1875 25.484375 
L 73.1875 17.1875 
L 10.59375 17.1875 
z
" id="BitstreamVeraSans-Roman-3d"/>
      <path d="M 45.40625 46.390625 
L 45.40625 75.984375 
L 54.390625 75.984375 
L 54.390625 0 
L 45.40625 0 
L 45.40625 8.203125 
Q 42.578125 3.328125 38.25 0.953125 
Q 33.9375 -1.421875 27.875 -1.421875 
Q 17.96875 -1.421875 11.734375 6.484375 
Q 5.515625 14.40625 5.515625 27.296875 
Q 5.515625 40.1875 11.734375 48.09375 
Q 17.96875 56 27.875 56 
Q 33.9375 56 38.25 53.625 
Q 42.578125 51.265625 45.40625 46.390625 
M 14.796875 27.296875 
Q 14.796875 17.390625 18.875 11.75 
Q 22.953125 6.109375 30.078125 6.109375 
Q 37.203125 6.109375 41.296875 11.75 
Q 45.40625 17.390625 45.40625 27.296875 
Q 45.40625 37.203125 41.296875 42.84375 
Q 37.203125 48.484375 30.078125 48.484375 
Q 22.953125 48.484375 18.875 42.84375 
Q 14.796875 37.203125 14.796875 27.296875 
" id="BitstreamVeraSans-Roman-64"/>
      <path d="M 18.109375 8.203125 
L 18.109375 -20.796875 
L 9.078125 -20.796875 
L 9.078125 54.6875 
L 18.109375 54.6875 
L 18.109375 46.390625 
Q 20.953125 51.265625 25.265625 53.625 
Q 29.59375 56 35.59375 56 
Q 45.5625 56 51.78125 48.09375 
Q 58.015625 40.1875 58.015625 27.296875 
Q 58.015625 14.40625 51.78125 6.484375 
Q 45.5625 -1.421875 35.59375 -1.421875 
Q 29.59375 -1.421875 25.265625 0.953125 
Q 20.953125 3.328125 18.109375 8.203125 
M 48.6875 27.296875 
Q 48.6875 37.203125 44.609375 42.84375 
Q 40.53125 48.484375 33.40625 48.484375 
Q 26.265625 48.484375 22.1875 42.84375 
Q 18.109375 37.203125 18.109375 27.296875 
Q 18.109375 17.390625 22.1875 11.75 
Q 26.265625 6.109375 33.40625 6.109375 
Q 40.53125 6.109375 44.609375 11.75 
Q 48.6875 17.390625 48.6875 27.296875 
" id="BitstreamVeraSans-Roman-70"/>
     </defs>
     <g transform="translate(959.8734375 107.7125)scale(0.3 -0.3)">
      <use xlink:href="#BitstreamVeraSans-Roman-72"/>
      <use x="41.11328125" xlink:href="#BitstreamVeraSans-Roman-61"/>
      <use x="102.392578125" xlink:href="#BitstreamVeraSans-Roman-6e"/>
      <use x="165.771484375" xlink:href="#BitstreamVeraSans-Roman-64"/>
      <use x="229.248046875" xlink:href="#BitstreamVeraSans-Roman-6f"/>
      <use x="290.4296875" xlink:href="#BitstreamVeraSans-Roman-6d"/>
      <use x="387.841796875" xlink:href="#BitstreamVeraSans-Roman-3a"/>
      <use x="421.533203125" xlink:href="#BitstreamVeraSans-Roman-20"/>
      <use x="453.3203125" xlink:href="#BitstreamVeraSans-Roman-73"/>
      <use x="505.419921875" xlink:href="#BitstreamVeraSans-Roman-74"/>
      <use x="544.62890625" xlink:href="#BitstreamVeraSans-Roman-65"/>
      <use x="606.15234375" xlink:href="#BitstreamVeraSans-Roman-70"/>
      <use x="669.62890625" xlink:href="#BitstreamVeraSans-Roman-3d"/>
      <use x="753.41796875" xlink:href="#BitstreamVeraSans-Roman-30"/>
      <use x="817.041015625" xlink:href="#BitstreamVeraSans-Roman-2e"/>
      <use x="848.828125" xlink:href="#BitstreamVeraSans-Roman-30"/>
      <use x="912.451171875" xlink:href="#BitstreamVeraSans-Roman-30"/>
      <use x="976.07421875" xlink:href="#BitstreamVeraSans-Roman-34"/>
      <use x="1039.69726562" xlink:href="#BitstreamVeraSans-Roman-38"/>
      <use x="1103.3203125" xlink:href="#BitstreamVeraSans-Roman-39"/>
      <use x="1166.94335938" xlink:href="#BitstreamVeraSans-Roman-33"/>
     </g>
    </g>
    <g id="line2d_33">
     <path d="M 884.873437 141.246875 
L 926.873437 141.246875 
" style="fill:none;stroke:#008000;stroke-linecap:square;stroke-width:2.0;"/>
    </g>
    <g id="line2d_34"/>
    <g id="text_18">
     <!-- corr: step=0.004893 -->
     <defs>
      <path d="M 48.78125 52.59375 
L 48.78125 44.1875 
Q 44.96875 46.296875 41.140625 47.34375 
Q 37.3125 48.390625 33.40625 48.390625 
Q 24.65625 48.390625 19.8125 42.84375 
Q 14.984375 37.3125 14.984375 27.296875 
Q 14.984375 17.28125 19.8125 11.734375 
Q 24.65625 6.203125 33.40625 6.203125 
Q 37.3125 6.203125 41.140625 7.25 
Q 44.96875 8.296875 48.78125 10.40625 
L 48.78125 2.09375 
Q 45.015625 0.34375 40.984375 -0.53125 
Q 36.96875 -1.421875 32.421875 -1.421875 
Q 20.0625 -1.421875 12.78125 6.34375 
Q 5.515625 14.109375 5.515625 27.296875 
Q 5.515625 40.671875 12.859375 48.328125 
Q 20.21875 56 33.015625 56 
Q 37.15625 56 41.109375 55.140625 
Q 45.0625 54.296875 48.78125 52.59375 
" id="BitstreamVeraSans-Roman-63"/>
     </defs>
     <g transform="translate(959.8734375 151.746875)scale(0.3 -0.3)">
      <use xlink:href="#BitstreamVeraSans-Roman-63"/>
      <use x="54.98046875" xlink:href="#BitstreamVeraSans-Roman-6f"/>
      <use x="116.162109375" xlink:href="#BitstreamVeraSans-Roman-72"/>
      <use x="157.259765625" xlink:href="#BitstreamVeraSans-Roman-72"/>
      <use x="198.357421875" xlink:href="#BitstreamVeraSans-Roman-3a"/>
      <use x="232.048828125" xlink:href="#BitstreamVeraSans-Roman-20"/>
      <use x="263.8359375" xlink:href="#BitstreamVeraSans-Roman-73"/>
      <use x="315.935546875" xlink:href="#BitstreamVeraSans-Roman-74"/>
      <use x="355.14453125" xlink:href="#BitstreamVeraSans-Roman-65"/>
      <use x="416.66796875" xlink:href="#BitstreamVeraSans-Roman-70"/>
      <use x="480.14453125" xlink:href="#BitstreamVeraSans-Roman-3d"/>
      <use x="563.93359375" xlink:href="#BitstreamVeraSans-Roman-30"/>
      <use x="627.556640625" xlink:href="#BitstreamVeraSans-Roman-2e"/>
      <use x="659.34375" xlink:href="#BitstreamVeraSans-Roman-30"/>
      <use x="722.966796875" xlink:href="#BitstreamVeraSans-Roman-30"/>
      <use x="786.58984375" xlink:href="#BitstreamVeraSans-Roman-34"/>
      <use x="850.212890625" xlink:href="#BitstreamVeraSans-Roman-38"/>
      <use x="913.8359375" xlink:href="#BitstreamVeraSans-Roman-39"/>
      <use x="977.458984375" xlink:href="#BitstreamVeraSans-Roman-33"/>
     </g>
    </g>
   </g>
  </g>
 </g>
 <defs>
  <clipPath id="p4a97ce3e2a">
   <rect height="712.4265625" width="1285.278125" x="70.76875" y="57.9171875"/>
  </clipPath>
 </defs>
</svg>
