<?xml version="1.0" encoding="utf-8" standalone="no"?>
<!DOCTYPE svg PUBLIC "-//W3C//DTD SVG 1.1//EN"
  "http://www.w3.org/Graphics/SVG/1.1/DTD/svg11.dtd">
<!-- Created with matplotlib (http://matplotlib.org/) -->
<svg height="864pt" version="1.1" viewBox="0 0 1440 864" width="1440pt" xmlns="http://www.w3.org/2000/svg" xmlns:xlink="http://www.w3.org/1999/xlink">
 <defs>
  <style type="text/css">
*{stroke-linecap:butt;stroke-linejoin:round;stroke-miterlimit:100000;}
  </style>
 </defs>
 <g id="figure_1">
  <g id="patch_1">
   <path d="M 0 864 
L 1440 864 
L 1440 0 
L 0 0 
z
" style="fill:#ffffff;"/>
  </g>
  <g id="axes_1">
   <g id="patch_2">
    <path d="M 158.4 747 
L 1336.05 747 
L 1336.05 51.3 
L 158.4 51.3 
z
" style="fill:#ffffff;"/>
   </g>
   <g id="line2d_1">
    <path clip-path="url(#p57bf105e77)" d="M 159.57765 101.193198 
L 160.7553 102.538964 
L 161.93295 103.439837 
L 163.1106 103.961121 
L 164.28825 105.220598 
L 165.4659 105.319462 
L 166.64355 106.740163 
L 167.8212 106.740842 
L 168.99885 108.671802 
L 170.1765 108.673015 
L 171.35415 110.080992 
L 172.5318 110.080579 
L 173.70945 111.544791 
L 174.8871 111.544905 
L 176.06475 113.235208 
L 177.2424 113.237369 
L 178.42005 114.577268 
L 179.5977 114.576866 
L 180.77535 115.88498 
L 181.953 115.884871 
L 183.13065 117.276025 
L 184.3083 117.274958 
L 185.48595 118.846916 
L 186.6636 118.846633 
L 187.84125 120.060132 
L 189.0189 120.058881 
L 190.19655 121.35602 
L 191.3742 121.35598 
L 192.55185 122.849386 
L 193.7295 122.848212 
L 194.90715 124.438648 
L 196.0848 124.438511 
L 197.26245 125.901336 
L 198.4401 125.90192 
L 199.61775 127.861758 
L 200.7954 127.854283 
L 201.97305 129.186275 
L 203.1507 129.305105 
L 204.32835 130.456461 
L 205.506 130.77491 
L 206.68365 131.406047 
L 209.03895 132.456834 
L 210.2166 133.669063 
L 211.39425 134.012129 
L 212.5719 135.367573 
L 213.74955 135.243554 
L 214.9272 136.878591 
L 216.10485 136.95055 
L 217.2825 138.397459 
L 218.46015 138.497176 
L 219.6378 139.599025 
L 220.81545 139.871126 
L 221.9931 140.841187 
L 223.17075 141.13458 
L 224.3484 142.572128 
L 225.52605 142.729062 
L 226.7037 143.79779 
L 227.88135 143.981805 
L 229.059 145.069926 
L 230.23665 145.246574 
L 231.4143 146.285521 
L 232.59195 146.607086 
L 233.7696 147.667301 
L 234.94725 147.839534 
L 236.1249 148.95518 
L 237.30255 149.30248 
L 238.4802 150.233239 
L 239.65785 150.571991 
L 240.8355 151.790717 
L 242.01315 152.207557 
L 243.1908 153.467652 
L 244.36845 153.742624 
L 245.5461 154.458176 
L 246.72375 154.796831 
L 247.9014 155.927744 
L 249.07905 156.334093 
L 250.2567 157.441737 
L 251.43435 157.689209 
L 252.612 158.560901 
L 253.78965 158.877107 
L 254.9673 159.794017 
L 256.14495 160.0324 
L 257.3226 161.114667 
L 258.50025 161.286401 
L 259.6779 162.507829 
L 260.85555 162.801082 
L 262.0332 164.001401 
L 263.21085 164.111286 
L 264.3885 164.931585 
L 265.56615 165.090518 
L 266.7438 166.277391 
L 267.92145 166.530805 
L 269.0991 167.594351 
L 270.27675 167.754507 
L 271.4544 168.929033 
L 272.63205 169.05169 
L 273.8097 170.058563 
L 274.98735 170.231035 
L 276.165 171.307596 
L 277.34265 171.42932 
L 278.5203 172.613063 
L 279.69795 172.754704 
L 280.8756 173.72207 
L 282.05325 173.893671 
L 283.2309 174.848892 
L 284.40855 174.902084 
L 285.5862 175.703606 
L 286.76385 175.731159 
L 287.9415 177.095917 
L 289.11915 177.233466 
L 290.2968 178.38017 
L 291.47445 178.433418 
L 292.6521 179.798816 
L 293.82975 179.841443 
L 295.0074 181.336625 
L 296.18505 181.394212 
L 297.3627 182.751327 
L 298.54035 182.796512 
L 299.718 184.083871 
L 300.89565 184.106677 
L 302.0733 185.15358 
L 303.25095 185.204762 
L 304.4286 186.483746 
L 305.60625 186.516806 
L 306.7839 187.677815 
L 307.96155 187.750876 
L 309.1392 188.797121 
L 310.31685 188.847747 
L 311.4945 190.300413 
L 312.67215 190.313762 
L 313.8498 191.410258 
L 315.02745 191.460711 
L 316.2051 192.876858 
L 317.38275 192.918147 
L 318.5604 194.031079 
L 319.73805 194.079526 
L 320.9157 195.494037 
L 322.09335 195.556643 
L 323.271 197.133291 
L 324.44865 197.192119 
L 325.6263 198.665736 
L 326.80395 198.676858 
L 327.9816 199.949826 
L 329.15925 199.950163 
L 330.3369 200.987501 
L 331.51455 200.987512 
L 332.6922 202.66056 
L 333.86985 202.660632 
L 335.0475 203.791821 
L 336.22515 203.791703 
L 337.4028 205.428996 
L 338.58045 205.428581 
L 339.7581 206.708224 
L 340.93575 206.708215 
L 342.1134 207.970018 
L 343.29105 207.970119 
L 344.4687 209.177203 
L 345.64635 209.177422 
L 346.824 210.839279 
L 348.00165 210.839246 
L 349.1793 212.306202 
L 350.35695 212.306227 
L 351.5346 213.673704 
L 352.71225 213.673829 
L 353.8899 214.731751 
L 355.06755 214.732006 
L 356.2452 216.281222 
L 357.42285 216.28135 
L 358.6005 217.553476 
L 359.77815 217.553462 
L 360.9558 218.839985 
L 362.13345 218.840815 
L 363.3111 220.15441 
L 364.48875 220.154691 
L 365.6664 221.132482 
L 366.84405 221.132732 
L 368.0217 222.51068 
L 369.19935 222.510743 
L 370.377 223.419007 
L 371.55465 223.418491 
L 372.7323 224.589087 
L 373.90995 224.588885 
L 375.0876 226.02464 
L 376.26525 226.024876 
L 377.4429 227.09721 
L 378.62055 227.097289 
L 379.7982 228.525553 
L 380.97585 228.525474 
L 382.1535 229.969767 
L 383.33115 229.970822 
L 384.5088 231.145509 
L 385.68645 231.151937 
L 386.8641 232.381446 
L 388.04175 232.382541 
L 389.2194 233.689565 
L 390.39705 233.688207 
L 391.5747 235.000957 
L 392.75235 234.999271 
L 393.93 236.464573 
L 395.10765 236.464354 
L 396.2853 237.42041 
L 397.46295 237.420389 
L 398.6406 238.677138 
L 399.81825 238.677052 
L 400.9959 240.032131 
L 402.17355 240.032914 
L 403.3512 241.108144 
L 404.52885 241.11077 
L 405.7065 242.063183 
L 406.88415 242.063057 
L 408.0618 243.36044 
L 409.23945 243.357592 
L 410.4171 244.51837 
L 411.59475 244.517147 
L 412.7724 245.70862 
L 413.95005 245.708766 
L 415.1277 246.96536 
L 416.30535 246.96638 
L 417.483 248.515322 
L 418.66065 248.515878 
L 419.8383 249.946691 
L 421.01595 249.946678 
L 422.1936 250.939677 
L 423.37125 250.940636 
L 424.5489 252.127382 
L 425.72655 252.127159 
L 426.9042 253.839377 
L 428.08185 253.838639 
L 429.2595 255.177492 
L 430.43715 255.177786 
L 431.6148 256.698955 
L 432.79245 256.698932 
L 433.9701 257.924719 
L 435.14775 257.925526 
L 436.3254 259.024887 
L 437.50305 259.024871 
L 438.6807 260.063742 
L 439.85835 260.063742 
L 441.036 261.450351 
L 442.21365 261.450508 
L 443.3913 262.574923 
L 444.56895 262.574942 
L 445.7466 264.085657 
L 446.92425 264.085816 
L 448.1019 265.13844 
L 449.27955 265.138594 
L 450.4572 266.665633 
L 451.63485 266.666308 
L 452.8125 267.791574 
L 453.99015 267.790815 
L 455.1678 268.683719 
L 456.34545 268.683741 
L 457.5231 269.906621 
L 458.70075 269.906504 
L 459.8784 271.523588 
L 461.05605 271.523449 
L 462.2337 272.823279 
L 463.41135 272.823273 
L 464.589 274.016416 
L 465.76665 274.016243 
L 466.9443 275.405598 
L 468.12195 275.405403 
L 469.2996 276.571932 
L 470.47725 276.571932 
L 471.6549 277.766438 
L 472.83255 277.766471 
L 474.0102 279.265708 
L 475.18785 279.265677 
L 476.3655 280.709964 
L 477.54315 280.709851 
L 478.7208 281.706328 
L 479.89845 281.70623 
L 481.0761 282.821321 
L 482.25375 282.821269 
L 483.4314 284.194227 
L 484.60905 284.193775 
L 485.7867 285.490122 
L 486.96435 285.490146 
L 488.142 286.560514 
L 489.31965 286.560514 
L 490.4973 288.006731 
L 491.67495 288.006724 
L 492.8526 289.157016 
L 494.03025 289.157874 
L 495.2079 290.303482 
L 496.38555 290.303318 
L 497.5632 291.594317 
L 498.74085 291.594344 
L 499.9185 292.763816 
L 501.09615 292.76374 
L 502.2738 293.940563 
L 503.45145 293.939861 
L 504.6291 295.395053 
L 505.80675 295.394945 
L 506.9844 296.72748 
L 508.16205 296.72748 
L 509.3397 298.281905 
L 510.51735 298.281905 
L 511.695 299.451893 
L 512.87265 299.451383 
L 514.0503 300.625339 
L 515.22795 300.625283 
L 516.4056 301.827406 
L 517.58325 301.827674 
L 518.7609 303.198853 
L 519.93855 303.198649 
L 521.1162 304.513143 
L 522.29385 304.513571 
L 523.4715 305.933356 
L 524.64915 305.933356 
L 525.8268 307.375793 
L 527.00445 307.374605 
L 528.1821 308.87961 
L 529.35975 308.87958 
L 530.5374 310.169584 
L 531.71505 310.169843 
L 532.8927 311.613527 
L 534.07035 311.613511 
L 535.248 313.198083 
L 536.42565 313.198135 
L 537.6033 314.473118 
L 538.78095 314.473011 
L 539.9586 315.727167 
L 541.13625 315.728077 
L 542.3139 317.239545 
L 543.49155 317.239528 
L 544.6692 318.595331 
L 545.84685 318.595279 
L 547.0245 319.707291 
L 548.20215 319.706941 
L 549.3798 321.428073 
L 550.55745 321.427186 
L 551.7351 322.496626 
L 552.91275 322.496 
L 554.0904 324.030648 
L 555.26805 324.030088 
L 556.4457 325.176726 
L 557.62335 325.17676 
L 558.801 326.487397 
L 559.97865 326.487392 
L 561.1563 327.732349 
L 562.33395 327.73244 
L 563.5116 328.981636 
L 564.68925 328.981452 
L 565.8669 330.283102 
L 567.04455 330.283079 
L 568.2222 331.722694 
L 569.39985 331.722404 
L 570.5775 332.734832 
L 571.75515 332.735753 
L 572.9328 334.012454 
L 574.11045 334.012616 
L 575.2881 335.320646 
L 576.46575 335.320654 
L 577.6434 336.649483 
L 578.82105 336.649352 
L 579.9987 337.875554 
L 581.17635 337.876035 
L 582.354 339.280434 
L 583.53165 339.280641 
L 584.7093 340.635368 
L 585.88695 340.635166 
L 587.0646 341.794744 
L 588.24225 341.795315 
L 589.4199 342.873277 
L 590.59755 342.873499 
L 591.7752 344.298683 
L 592.95285 344.298467 
L 594.1305 345.943667 
L 595.30815 345.944898 
L 596.4858 347.250019 
L 597.66345 347.249984 
L 598.8411 348.738108 
L 600.01875 348.737822 
L 601.1964 349.847455 
L 602.37405 349.847445 
L 603.5517 351.593011 
L 604.72935 351.592744 
L 605.907 352.860661 
L 607.08465 352.860565 
L 608.2623 354.349023 
L 609.43995 354.349016 
L 610.6176 355.768941 
L 611.79525 355.768918 
L 612.9729 357.147939 
L 614.15055 357.148114 
L 615.3282 358.579955 
L 616.50585 358.58003 
L 617.6835 359.992767 
L 618.86115 359.992767 
L 620.0388 361.619118 
L 621.21645 361.619152 
L 622.3941 362.853957 
L 623.57175 362.853795 
L 624.7494 364.226789 
L 625.92705 364.227421 
L 627.1047 365.698651 
L 628.28235 365.698231 
L 629.46 366.831908 
L 630.63765 366.831707 
L 631.8153 368.401435 
L 632.99295 368.404004 
L 634.1706 369.603685 
L 635.34825 369.603125 
L 636.5259 371.00682 
L 637.70355 371.006594 
L 638.8812 372.136477 
L 640.05885 372.136322 
L 641.2365 373.160484 
L 642.41415 373.160875 
L 643.5918 374.423734 
L 644.76945 374.424383 
L 645.9471 376.040249 
L 647.12475 376.039468 
L 648.3024 377.685693 
L 649.48005 377.685471 
L 650.6577 378.951809 
L 651.83535 378.951809 
L 653.013 380.229751 
L 654.19065 380.229751 
L 655.3683 381.197998 
L 656.54595 381.198201 
L 657.7236 382.419008 
L 658.90125 382.419008 
L 660.0789 384.102253 
L 661.25655 384.102133 
L 662.4342 385.402359 
L 663.61185 385.402176 
L 664.7895 386.771772 
L 665.96715 386.77203 
L 667.1448 387.917573 
L 668.32245 387.917221 
L 669.5001 389.50088 
L 670.67775 389.500992 
L 671.8554 390.956137 
L 673.03305 390.956137 
L 674.2107 392.062958 
L 675.38835 392.062202 
L 676.566 393.513937 
L 677.74365 393.513434 
L 678.9213 394.897756 
L 680.09895 394.895947 
L 681.2766 396.402885 
L 682.45425 396.410783 
L 683.6319 397.869923 
L 684.80955 397.876182 
L 685.9872 399.264612 
L 687.16485 399.266283 
L 688.3425 400.563338 
L 689.52015 400.561095 
L 690.6978 401.725299 
L 691.87545 401.728153 
L 693.0531 403.06411 
L 694.23075 403.063832 
L 695.4084 404.593484 
L 696.58605 404.593106 
L 697.7637 405.627127 
L 698.94135 405.625206 
L 700.119 407.040824 
L 701.29665 407.042687 
L 702.4743 407.919275 
L 703.65195 407.917602 
L 704.8296 409.906725 
L 706.00725 409.908962 
L 707.1849 410.845772 
L 708.36255 410.846637 
L 709.5402 412.262441 
L 710.71785 412.260648 
L 711.8955 413.359093 
L 713.07315 413.360064 
L 714.2508 414.865188 
L 715.42845 414.86243 
L 716.6061 416.166965 
L 717.78375 416.168285 
L 718.9614 417.362135 
L 720.13905 417.358854 
L 721.3167 418.931602 
L 722.49435 418.933826 
L 723.672 420.264237 
L 724.84965 420.259112 
L 726.0273 421.437758 
L 727.20495 421.438678 
L 728.3826 422.875675 
L 729.56025 422.877529 
L 730.7379 424.172019 
L 731.91555 424.174388 
L 733.0932 425.288577 
L 734.27085 425.287793 
L 735.4485 426.298907 
L 736.62615 426.300259 
L 737.8038 427.47575 
L 738.98145 427.478549 
L 740.1591 428.732473 
L 741.33675 428.731356 
L 742.5144 430.269518 
L 743.69205 430.271953 
L 744.8697 431.579908 
L 746.04735 431.578059 
L 747.225 432.877759 
L 748.40265 432.889175 
L 749.5803 433.975905 
L 750.75795 433.981207 
L 751.9356 435.14389 
L 753.11325 435.141407 
L 754.2909 436.28588 
L 755.46855 436.28668 
L 756.6462 437.318175 
L 757.82385 437.31375 
L 759.0015 438.624416 
L 760.17915 438.624372 
L 761.3568 440.290121 
L 762.53445 440.294227 
L 763.7121 441.872697 
L 764.88975 441.872387 
L 766.0674 443.198672 
L 767.24505 443.198438 
L 768.4227 444.308692 
L 769.60035 444.308631 
L 770.778 445.394564 
L 771.95565 445.393368 
L 773.1333 446.64769 
L 774.31095 446.647611 
L 775.4886 448.066497 
L 776.66625 448.067294 
L 777.8439 449.793574 
L 779.02155 449.793565 
L 780.1992 451.015392 
L 781.37685 451.016473 
L 782.5545 452.219249 
L 783.73215 452.219054 
L 784.9098 453.756021 
L 786.08745 453.75515 
L 787.2651 455.125299 
L 788.44275 455.125615 
L 789.6204 456.235012 
L 790.79805 456.235174 
L 791.9757 457.946028 
L 793.15335 457.945959 
L 794.331 459.468785 
L 795.50865 459.468854 
L 796.6863 460.970494 
L 797.86395 460.970494 
L 799.0416 462.27465 
L 800.21925 462.274746 
L 801.3969 463.520179 
L 802.57455 463.520082 
L 803.7522 464.746851 
L 804.92985 464.746851 
L 806.1075 465.921961 
L 807.28515 465.922087 
L 808.4628 467.327053 
L 809.64045 467.326964 
L 810.8181 468.137993 
L 811.99575 468.137993 
L 813.1734 469.589305 
L 814.35105 469.589244 
L 815.5287 471.035561 
L 816.70635 471.035515 
L 817.884 472.282526 
L 819.06165 472.282551 
L 820.2393 473.554371 
L 821.41695 473.554312 
L 822.5946 475.203508 
L 823.77225 475.203548 
L 824.9499 476.544687 
L 826.12755 476.544683 
L 827.3052 477.898925 
L 828.48285 477.899121 
L 829.6605 479.430193 
L 830.83815 479.430262 
L 832.0158 480.850765 
L 833.19345 480.850765 
L 834.3711 482.055543 
L 835.54875 482.055595 
L 836.7264 483.182466 
L 837.90405 483.182466 
L 839.0817 484.269817 
L 840.25935 484.269832 
L 841.437 485.722722 
L 842.61465 485.722963 
L 843.7923 487.136028 
L 844.96995 487.136028 
L 846.1476 488.787364 
L 847.32525 488.787351 
L 848.5029 490.039515 
L 849.68055 490.039891 
L 850.8582 491.415507 
L 852.03585 491.415522 
L 853.2135 492.345561 
L 854.39115 492.345574 
L 855.5688 493.878827 
L 856.74645 493.878437 
L 857.9241 494.91241 
L 859.10175 494.91196 
L 860.2794 496.337173 
L 861.45705 496.33711 
L 862.6347 497.453609 
L 863.81235 497.453605 
L 864.99 499.097697 
L 866.16765 499.097742 
L 867.3453 500.119806 
L 868.52295 500.119834 
L 869.7006 501.458029 
L 870.87825 501.457991 
L 872.0559 502.625494 
L 873.23355 502.625562 
L 874.4112 503.932868 
L 875.58885 503.932883 
L 876.7665 505.31182 
L 877.94415 505.311905 
L 879.1218 506.626973 
L 880.29945 506.627026 
L 881.4771 507.799879 
L 882.65475 507.799914 
L 883.8324 508.900166 
L 885.01005 508.900083 
L 886.1877 510.120443 
L 887.36535 510.120416 
L 888.543 511.427708 
L 889.72065 511.428381 
L 890.8983 512.790254 
L 892.07595 512.790338 
L 893.2536 514.113736 
L 894.43125 514.113736 
L 895.6089 515.40276 
L 896.78655 515.402765 
L 897.9642 516.695939 
L 899.14185 516.695989 
L 900.3195 518.065504 
L 901.49715 518.065523 
L 902.6748 519.347573 
L 903.85245 519.347632 
L 905.0301 520.823565 
L 906.20775 520.823621 
L 907.3854 522.110368 
L 908.56305 522.110514 
L 909.7407 523.392833 
L 910.91835 523.392698 
L 912.096 524.654565 
L 913.27365 524.654752 
L 914.4513 526.045573 
L 915.62895 526.045429 
L 916.8066 527.428474 
L 917.98425 527.429137 
L 919.1619 529.05136 
L 920.33955 529.051361 
L 921.5172 530.345705 
L 922.69485 530.345695 
L 923.8725 531.663116 
L 925.05015 531.663179 
L 926.2278 532.711831 
L 927.40545 532.711849 
L 928.5831 534.189087 
L 929.76075 534.188874 
L 930.9384 535.345097 
L 932.11605 535.345158 
L 933.2937 536.850445 
L 934.47135 536.850445 
L 935.649 538.354861 
L 936.82665 538.353743 
L 938.0043 539.714911 
L 939.18195 539.714968 
L 940.3596 541.016274 
L 941.53725 541.016423 
L 942.7149 542.203413 
L 943.89255 542.203348 
L 945.0702 543.31181 
L 946.24785 543.311796 
L 947.4255 544.692805 
L 948.60315 544.69207 
L 949.7808 546.580244 
L 950.95845 546.580244 
L 952.1361 547.77707 
L 953.31375 547.776277 
L 954.4914 548.851844 
L 955.66905 548.850871 
L 956.8467 550.276045 
L 958.02435 550.275118 
L 959.202 551.588864 
L 960.37965 551.588864 
L 961.5573 552.990982 
L 962.73495 552.990982 
L 963.9126 554.199981 
L 965.09025 554.199893 
L 966.2679 555.551529 
L 967.44555 555.551608 
L 968.6232 556.937796 
L 969.80085 556.937792 
L 970.9785 558.11496 
L 972.15615 558.114985 
L 973.3338 559.440131 
L 974.51145 559.440118 
L 975.6891 560.745545 
L 976.86675 560.745456 
L 978.0444 562.043823 
L 979.22205 562.043835 
L 980.3997 563.270242 
L 981.57735 563.2705 
L 982.755 564.661036 
L 983.93265 564.661612 
L 985.1103 565.886763 
L 986.28795 565.886763 
L 987.4656 567.35141 
L 988.64325 567.351466 
L 989.8209 568.469602 
L 990.99855 568.469604 
L 992.1762 569.94405 
L 993.35385 569.943995 
L 994.5315 571.156108 
L 995.70915 571.15624 
L 996.8868 572.223314 
L 998.06445 572.223281 
L 999.2421 573.506948 
L 1000.41975 573.506991 
L 1001.5974 574.765621 
L 1002.77505 574.765633 
L 1003.9527 576.341279 
L 1005.13035 576.341371 
L 1006.308 577.527042 
L 1007.48565 577.526899 
L 1008.6633 578.719972 
L 1009.84095 578.721136 
L 1011.0186 579.888718 
L 1012.19625 579.888547 
L 1013.3739 581.195946 
L 1014.55155 581.196019 
L 1015.7292 582.381072 
L 1016.90685 582.380899 
L 1018.0845 583.422856 
L 1019.26215 583.422721 
L 1020.4398 584.840903 
L 1021.61745 584.840863 
L 1022.7951 586.101047 
L 1023.97275 586.1004 
L 1025.1504 587.828372 
L 1026.32805 587.828316 
L 1027.5057 588.948052 
L 1028.68335 588.948357 
L 1029.861 590.303923 
L 1031.03865 590.304061 
L 1032.2163 591.653222 
L 1033.39395 591.653443 
L 1034.5716 592.972591 
L 1035.74925 592.972276 
L 1036.9269 594.397662 
L 1038.10455 594.397795 
L 1039.2822 595.616594 
L 1040.45985 595.616441 
L 1041.6375 596.714688 
L 1042.81515 596.714667 
L 1043.9928 597.946578 
L 1045.17045 597.947193 
L 1046.3481 599.206276 
L 1047.52575 599.206367 
L 1048.7034 600.696016 
L 1049.88105 600.69603 
L 1051.0587 602.245278 
L 1052.23635 602.245284 
L 1053.414 603.442434 
L 1054.59165 603.442393 
L 1055.7693 604.604009 
L 1056.94695 604.603985 
L 1058.1246 605.534237 
L 1059.30225 605.533236 
L 1060.4799 606.902606 
L 1061.65755 606.902421 
L 1062.8352 608.002151 
L 1064.01285 608.002147 
L 1065.1905 609.403294 
L 1066.36815 609.403318 
L 1067.5458 610.867674 
L 1068.72345 610.868244 
L 1069.9011 612.027109 
L 1071.07875 612.027284 
L 1072.2564 613.726601 
L 1073.43405 613.72715 
L 1074.6117 614.942986 
L 1075.78935 614.943201 
L 1076.967 616.166374 
L 1078.14465 616.166831 
L 1079.3223 617.74626 
L 1080.49995 617.746469 
L 1081.6776 619.379698 
L 1082.85525 619.379206 
L 1084.0329 620.754579 
L 1085.21055 620.754412 
L 1086.3882 622.253806 
L 1087.56585 622.254151 
L 1088.7435 623.529312 
L 1089.92115 623.529421 
L 1091.0988 624.912286 
L 1092.27645 624.911953 
L 1093.4541 626.054889 
L 1094.63175 626.054921 
L 1095.8094 627.225738 
L 1096.98705 627.225782 
L 1098.1647 628.732375 
L 1099.34235 628.732375 
L 1100.52 629.973049 
L 1101.69765 629.972999 
L 1102.8753 631.71357 
L 1104.05295 631.713345 
L 1105.2306 632.959513 
L 1106.40825 632.959032 
L 1107.5859 634.056349 
L 1108.76355 634.056546 
L 1109.9412 635.34755 
L 1111.11885 635.347563 
L 1112.2965 636.573469 
L 1113.47415 636.57342 
L 1114.6518 637.843972 
L 1115.82945 637.843975 
L 1117.0071 639.392308 
L 1118.18475 639.392711 
L 1119.3624 640.731829 
L 1120.54005 640.731388 
L 1121.7177 641.744681 
L 1122.89535 641.744868 
L 1124.073 643.098403 
L 1125.25065 643.098468 
L 1126.4283 644.278488 
L 1127.60595 644.278407 
L 1128.7836 645.585567 
L 1129.96125 645.585798 
L 1131.1389 647.04996 
L 1132.31655 647.04996 
L 1133.4942 648.321867 
L 1134.67185 648.321826 
L 1135.8495 649.18088 
L 1137.02715 649.180659 
L 1138.2048 650.671722 
L 1139.38245 650.672766 
L 1140.5601 651.830694 
L 1141.73775 651.830736 
L 1142.9154 653.332073 
L 1144.09305 653.332513 
L 1145.2707 654.736308 
L 1146.44835 654.736931 
L 1147.626 656.166213 
L 1148.80365 656.167851 
L 1149.9813 657.237496 
L 1151.15895 657.23595 
L 1152.3366 658.406342 
L 1153.51425 658.406772 
L 1154.6919 659.738385 
L 1155.86955 659.737122 
L 1157.0472 661.311777 
L 1158.22485 661.3121 
L 1159.4025 662.426136 
L 1160.58015 662.425975 
L 1161.7578 663.296817 
L 1162.93545 663.296817 
L 1164.1131 664.236951 
L 1165.29075 664.236958 
L 1166.4684 665.026505 
L 1167.64605 665.026561 
L 1168.8237 666.06497 
L 1170.00135 666.064937 
L 1171.179 667.149718 
L 1172.35665 667.149997 
L 1173.5343 668.694191 
L 1174.71195 668.694975 
L 1175.8896 669.937876 
L 1177.06725 669.938148 
L 1178.2449 671.100591 
L 1179.42255 671.100557 
L 1180.6002 671.922689 
L 1181.77785 671.921968 
L 1182.9555 673.267825 
L 1184.13315 673.268756 
L 1185.3108 673.967374 
L 1186.48845 673.967752 
L 1187.6661 675.318078 
L 1188.84375 675.319171 
L 1190.0214 676.334745 
L 1191.19905 676.334872 
L 1192.3767 677.123227 
L 1193.55435 677.122596 
L 1194.732 677.855429 
L 1195.90965 677.85757 
L 1197.0873 678.887323 
L 1198.26495 678.888162 
L 1199.4426 679.064311 
L 1200.62025 679.066631 
L 1201.7979 679.899748 
L 1202.97555 679.898567 
L 1204.1532 680.45056 
L 1205.33085 680.451814 
L 1206.5085 681.411774 
L 1207.68615 681.409673 
L 1208.8638 682.062989 
L 1210.04145 682.062989 
L 1211.2191 682.61241 
L 1212.39675 682.61365 
L 1213.5744 683.000469 
L 1214.75205 683.001272 
L 1215.9297 683.384131 
L 1217.10735 683.386457 
L 1218.285 683.663796 
L 1219.46265 683.660188 
L 1220.6403 684.176991 
L 1221.81795 684.173828 
L 1222.9956 684.673186 
L 1224.17325 684.672925 
L 1225.3509 684.546312 
L 1226.52855 684.547475 
L 1227.7062 685.084268 
L 1228.88385 685.081488 
L 1230.0615 685.288989 
L 1231.23915 685.288989 
L 1232.4168 685.419104 
L 1233.59445 685.419229 
L 1234.7721 686.325875 
L 1235.94975 686.324776 
L 1237.1274 686.210491 
L 1238.30505 686.210595 
L 1239.4827 686.556647 
L 1240.66035 686.555877 
L 1241.838 686.880742 
L 1243.01565 686.880775 
L 1244.1933 687.091605 
L 1245.37095 687.091695 
L 1246.5486 687.41089 
L 1247.72625 687.411489 
L 1248.9039 687.292302 
L 1250.08155 687.292302 
L 1251.2592 687.773889 
L 1254.79215 687.857462 
L 1255.9698 687.567486 
L 1257.14745 687.567486 
L 1258.3251 687.348818 
L 1259.50275 687.347022 
L 1260.6804 687.646134 
L 1261.85805 687.647386 
L 1263.0357 688.009328 
L 1264.21335 688.009508 
L 1265.391 687.689649 
L 1266.56865 687.689649 
L 1267.7463 688.581245 
L 1268.92395 688.585734 
L 1270.1016 687.997117 
L 1278.34515 688.013251 
L 1279.5228 688.584809 
L 1280.70045 688.592894 
L 1281.8781 688.211009 
L 1285.41105 688.043241 
L 1286.5887 687.837488 
L 1287.76635 687.84148 
L 1288.944 688.0959 
L 1290.12165 688.123548 
L 1291.2993 687.992133 
L 1294.83225 688.077047 
L 1296.0099 688.368291 
L 1299.54285 688.342316 
L 1300.7205 688.059938 
L 1304.25345 688.187578 
L 1305.4311 688.441485 
L 1307.7864 688.406863 
L 1308.96405 688.517948 
L 1310.1417 688.090763 
L 1311.31935 688.130778 
L 1312.497 688.320514 
L 1318.38525 688.215064 
L 1319.5629 688.705426 
L 1323.09585 688.586672 
L 1324.2735 688.081753 
L 1325.45115 688.012533 
L 1326.6288 688.572769 
L 1327.80645 688.669706 
L 1328.9841 688.448813 
L 1330.16175 688.399035 
L 1331.3394 688.632015 
L 1333.6947 688.413784 
L 1334.87235 688.651768 
L 1336.05 688.416676 
L 1336.05 688.416676 
" style="fill:none;stroke:#0000ff;stroke-linecap:square;stroke-width:2.0;"/>
   </g>
   <g id="line2d_2">
    <path clip-path="url(#p57bf105e77)" d="M 159.57765 101.266362 
L 160.7553 102.963732 
L 161.93295 102.933527 
L 163.1106 104.660151 
L 164.28825 104.65996 
L 165.4659 106.003585 
L 166.64355 106.003267 
L 167.8212 107.746693 
L 168.99885 107.747778 
L 170.1765 109.583641 
L 171.35415 109.579551 
L 172.5318 111.149697 
L 173.70945 111.283401 
L 174.8871 112.471238 
L 176.06475 112.852972 
L 178.42005 114.238479 
L 179.5977 114.890193 
L 180.77535 116.176306 
L 181.953 116.408812 
L 183.13065 118.201142 
L 184.3083 118.201118 
L 185.48595 119.519191 
L 186.6636 119.519026 
L 187.84125 120.675849 
L 189.0189 120.675728 
L 190.19655 122.15391 
L 191.3742 122.155069 
L 192.55185 123.729771 
L 193.7295 123.72859 
L 194.90715 125.136434 
L 196.0848 125.13643 
L 197.26245 126.654773 
L 198.4401 126.65423 
L 199.61775 127.879749 
L 200.7954 127.880225 
L 201.97305 129.375542 
L 203.1507 129.375488 
L 204.32835 130.883973 
L 205.506 130.884599 
L 206.68365 132.123743 
L 207.8613 132.123743 
L 209.03895 133.550333 
L 210.2166 133.549584 
L 211.39425 134.634003 
L 212.5719 134.633881 
L 213.74955 136.01426 
L 214.9272 136.014311 
L 216.10485 137.452304 
L 217.2825 137.452304 
L 218.46015 139.481569 
L 219.6378 139.481646 
L 220.81545 141.018481 
L 221.9931 141.017559 
L 223.17075 142.146207 
L 224.3484 142.146158 
L 225.52605 143.385208 
L 226.7037 143.385215 
L 227.88135 144.559849 
L 229.059 144.560549 
L 230.23665 146.301292 
L 231.4143 146.301774 
L 232.59195 147.701848 
L 233.7696 147.701361 
L 234.94725 149.154097 
L 236.1249 149.153943 
L 237.30255 150.748877 
L 238.4802 150.748879 
L 239.65785 152.011048 
L 240.8355 152.011045 
L 242.01315 153.655553 
L 243.1908 153.655546 
L 244.36845 154.807095 
L 245.5461 154.807108 
L 246.72375 156.442415 
L 247.9014 156.433908 
L 249.07905 157.838486 
L 250.2567 157.856523 
L 251.43435 158.992378 
L 252.612 158.995877 
L 253.78965 160.058451 
L 254.9673 160.081561 
L 256.14495 161.500617 
L 257.3226 161.515445 
L 258.50025 162.891262 
L 259.6779 162.909726 
L 260.85555 164.119196 
L 262.0332 164.131868 
L 263.21085 165.750817 
L 264.3885 165.773753 
L 265.56615 167.109683 
L 266.7438 167.148068 
L 267.92145 168.572212 
L 269.0991 168.595492 
L 270.27675 170.080869 
L 271.4544 170.090563 
L 272.63205 171.328529 
L 273.8097 171.342496 
L 274.98735 172.778463 
L 276.165 172.791367 
L 277.34265 174.116362 
L 278.5203 174.139989 
L 279.69795 175.576273 
L 280.8756 175.57031 
L 282.05325 177.12272 
L 283.2309 177.119727 
L 284.40855 178.547301 
L 285.5862 178.57905 
L 286.76385 179.912787 
L 287.9415 179.918923 
L 289.11915 181.357518 
L 290.2968 181.375697 
L 291.47445 182.78959 
L 292.6521 182.838191 
L 293.82975 184.023071 
L 295.0074 184.099406 
L 296.18505 185.463357 
L 297.3627 185.507223 
L 298.54035 186.449214 
L 299.718 186.475714 
L 300.89565 187.842014 
L 302.0733 187.839532 
L 303.25095 189.017765 
L 304.4286 189.02386 
L 305.60625 190.772042 
L 306.7839 190.78905 
L 307.96155 192.048288 
L 309.1392 192.080891 
L 310.31685 193.516799 
L 311.4945 193.525389 
L 312.67215 194.893538 
L 313.8498 194.869561 
L 315.02745 196.323164 
L 316.2051 196.335583 
L 317.38275 197.749986 
L 318.5604 197.742207 
L 319.73805 199.010841 
L 320.9157 199.010619 
L 322.09335 200.202457 
L 323.271 200.203079 
L 324.44865 201.609852 
L 325.6263 201.609829 
L 326.80395 203.301503 
L 327.9816 203.300469 
L 329.15925 204.413621 
L 330.3369 204.413907 
L 331.51455 205.545978 
L 332.6922 205.54443 
L 333.86985 206.981318 
L 335.0475 206.981325 
L 336.22515 208.265467 
L 337.4028 208.265986 
L 338.58045 209.768163 
L 339.7581 209.76816 
L 340.93575 210.982677 
L 342.1134 210.982663 
L 343.29105 212.295371 
L 344.4687 212.303808 
L 345.64635 213.557586 
L 346.824 213.560239 
L 348.00165 214.814907 
L 349.1793 214.80841 
L 350.35695 216.024787 
L 351.5346 216.049727 
L 352.71225 217.317441 
L 353.8899 217.344746 
L 355.06755 218.84484 
L 356.2452 218.859315 
L 357.42285 220.158148 
L 358.6005 220.157507 
L 359.77815 221.266564 
L 360.9558 221.295839 
L 362.13345 222.579954 
L 363.3111 222.586552 
L 364.48875 223.985084 
L 365.6664 224.018387 
L 366.84405 225.154171 
L 368.0217 225.156328 
L 369.19935 226.229713 
L 370.377 226.234535 
L 371.55465 227.809654 
L 372.7323 227.839123 
L 373.90995 229.135027 
L 375.0876 229.152583 
L 376.26525 230.575242 
L 377.4429 230.594084 
L 378.62055 231.869146 
L 379.7982 231.851318 
L 380.97585 233.083795 
L 382.1535 233.097157 
L 383.33115 234.615332 
L 384.5088 234.632832 
L 385.68645 235.508801 
L 386.8641 235.540082 
L 388.04175 236.616806 
L 389.2194 236.60947 
L 390.39705 237.697688 
L 391.5747 237.752823 
L 392.75235 239.306024 
L 393.93 239.341248 
L 395.10765 240.690266 
L 396.2853 240.723191 
L 397.46295 242.192465 
L 398.6406 242.201452 
L 399.81825 243.331604 
L 400.9959 243.333488 
L 402.17355 244.681033 
L 403.3512 244.682752 
L 404.52885 245.636395 
L 405.7065 245.65942 
L 406.88415 246.914667 
L 408.0618 246.948646 
L 409.23945 248.478451 
L 410.4171 248.499457 
L 411.59475 249.759874 
L 412.7724 249.792567 
L 413.95005 251.223312 
L 415.1277 251.248815 
L 416.30535 252.572474 
L 417.483 252.611549 
L 418.66065 254.04902 
L 419.8383 254.06775 
L 421.01595 255.241074 
L 422.1936 255.26163 
L 423.37125 256.418345 
L 424.5489 256.459663 
L 425.72655 257.853781 
L 426.9042 257.875462 
L 428.08185 259.110723 
L 429.2595 259.137605 
L 430.43715 260.637548 
L 431.6148 260.694451 
L 432.79245 261.739036 
L 433.9701 261.740003 
L 435.14775 263.067303 
L 436.3254 263.085076 
L 437.50305 264.262366 
L 438.6807 264.27781 
L 439.85835 265.678613 
L 441.036 265.719484 
L 442.21365 267.008437 
L 443.3913 267.024715 
L 444.56895 268.331806 
L 445.7466 268.337856 
L 446.92425 269.823924 
L 448.1019 269.817056 
L 449.27955 271.210417 
L 450.4572 271.205406 
L 451.63485 272.447123 
L 452.8125 272.445909 
L 453.99015 273.896774 
L 455.1678 273.896732 
L 456.34545 275.116174 
L 457.5231 275.116185 
L 458.70075 276.333966 
L 459.8784 276.334395 
L 461.05605 277.569815 
L 462.2337 277.569733 
L 463.41135 278.875529 
L 464.589 278.875529 
L 465.76665 280.208088 
L 466.9443 280.20835 
L 468.12195 281.540634 
L 469.2996 281.540623 
L 470.47725 282.920209 
L 471.6549 282.920216 
L 472.83255 284.563235 
L 474.0102 284.563235 
L 475.18785 285.881659 
L 476.3655 285.881655 
L 477.54315 287.041827 
L 478.7208 287.041656 
L 479.89845 288.377266 
L 481.0761 288.377175 
L 482.25375 289.559243 
L 483.4314 289.560995 
L 484.60905 290.720259 
L 485.7867 290.710319 
L 486.96435 291.896155 
L 488.142 291.896098 
L 489.31965 293.16612 
L 490.4973 293.16612 
L 491.67495 294.541418 
L 492.8526 294.541469 
L 494.03025 296.260608 
L 495.2079 296.260608 
L 496.38555 297.745519 
L 497.5632 297.745861 
L 498.74085 299.157351 
L 499.9185 299.157081 
L 501.09615 300.529852 
L 502.2738 300.529882 
L 503.45145 301.810987 
L 504.6291 301.810987 
L 505.80675 303.277352 
L 506.9844 303.277139 
L 508.16205 304.468015 
L 509.3397 304.467573 
L 510.51735 305.507879 
L 511.695 305.50796 
L 512.87265 307.096771 
L 514.0503 307.097022 
L 515.22795 308.657924 
L 516.4056 308.657905 
L 517.58325 309.804647 
L 518.7609 309.804455 
L 519.93855 310.982301 
L 521.1162 310.982301 
L 522.29385 312.507289 
L 523.4715 312.507212 
L 524.64915 313.688349 
L 525.8268 313.68834 
L 527.00445 315.191078 
L 528.1821 315.191243 
L 529.35975 316.464114 
L 530.5374 316.464133 
L 531.71505 317.850218 
L 532.8927 317.853091 
L 534.07035 319.389126 
L 535.248 319.394837 
L 536.42565 320.922393 
L 537.6033 320.922393 
L 538.78095 322.523186 
L 539.9586 322.523042 
L 541.13625 323.63431 
L 542.3139 323.634317 
L 543.49155 324.5508 
L 544.6692 324.550673 
L 545.84685 326.148239 
L 547.0245 326.147529 
L 548.20215 327.366001 
L 549.3798 327.365768 
L 550.55745 328.610258 
L 551.7351 328.610199 
L 552.91275 329.738553 
L 554.0904 329.738553 
L 555.26805 330.866262 
L 556.4457 330.866256 
L 557.62335 332.19769 
L 558.801 332.197975 
L 559.97865 333.934213 
L 561.1563 333.934225 
L 562.33395 335.069155 
L 563.5116 335.069152 
L 564.68925 336.484716 
L 565.8669 336.484707 
L 567.04455 337.859634 
L 568.2222 337.859506 
L 569.39985 339.133004 
L 570.5775 339.133203 
L 571.75515 340.595448 
L 572.9328 340.595448 
L 574.11045 341.990537 
L 575.2881 341.990608 
L 576.46575 343.403424 
L 577.6434 343.403702 
L 578.82105 344.747195 
L 579.9987 344.747049 
L 581.17635 346.052975 
L 582.354 346.052886 
L 583.53165 347.311791 
L 584.7093 347.307647 
L 585.88695 348.662625 
L 587.0646 348.663112 
L 588.24225 349.804533 
L 589.4199 349.80453 
L 590.59755 351.11387 
L 591.7752 351.113894 
L 592.95285 352.254727 
L 594.1305 352.253921 
L 595.30815 353.870767 
L 596.4858 353.870735 
L 597.66345 355.170225 
L 598.8411 355.170153 
L 600.01875 356.619949 
L 601.1964 356.619971 
L 602.37405 357.849633 
L 603.5517 357.849169 
L 604.72935 359.28596 
L 605.907 359.28593 
L 607.08465 360.542895 
L 608.2623 360.543209 
L 609.43995 361.441252 
L 610.6176 361.441319 
L 611.79525 362.360926 
L 612.9729 362.360914 
L 614.15055 363.75975 
L 615.3282 363.759765 
L 616.50585 365.409191 
L 617.6835 365.409153 
L 618.86115 366.589494 
L 620.0388 366.589494 
L 621.21645 367.589587 
L 622.3941 367.589586 
L 623.57175 368.875835 
L 624.7494 368.879575 
L 625.92705 369.828215 
L 627.1047 369.828284 
L 628.28235 370.968673 
L 629.46 370.968698 
L 630.63765 372.347992 
L 631.8153 372.348021 
L 632.99295 373.571531 
L 634.1706 373.571576 
L 635.34825 374.609417 
L 636.5259 374.609435 
L 637.70355 375.713523 
L 638.8812 375.713523 
L 640.05885 377.604022 
L 641.2365 377.604061 
L 642.41415 378.649043 
L 643.5918 378.649043 
L 644.76945 379.808215 
L 645.9471 379.808201 
L 647.12475 381.145472 
L 648.3024 381.145355 
L 649.48005 382.340163 
L 650.6577 382.340005 
L 651.83535 383.472822 
L 653.013 383.472822 
L 654.19065 384.50225 
L 655.3683 384.50225 
L 656.54595 385.815404 
L 657.7236 385.815404 
L 658.90125 387.476921 
L 660.0789 387.476713 
L 661.25655 388.922716 
L 662.4342 388.922792 
L 663.61185 389.939932 
L 664.7895 389.939926 
L 665.96715 391.302614 
L 667.1448 391.302839 
L 668.32245 392.483008 
L 669.5001 392.483012 
L 670.67775 393.978755 
L 671.8554 393.97873 
L 673.03305 395.537161 
L 674.2107 395.536872 
L 675.38835 397.156717 
L 676.566 397.156925 
L 677.74365 398.074903 
L 678.9213 398.074929 
L 680.09895 399.627938 
L 681.2766 399.627979 
L 682.45425 401.077468 
L 683.6319 401.077721 
L 684.80955 402.159057 
L 685.9872 402.158407 
L 687.16485 403.387319 
L 688.3425 403.387243 
L 689.52015 404.792083 
L 690.6978 404.792091 
L 691.87545 406.238452 
L 693.0531 406.238452 
L 694.23075 407.73979 
L 695.4084 407.739792 
L 696.58605 409.118154 
L 697.7637 409.118154 
L 698.94135 410.265916 
L 700.119 410.265828 
L 701.29665 411.369879 
L 702.4743 411.370078 
L 703.65195 412.749707 
L 704.8296 412.749697 
L 706.00725 414.371147 
L 707.1849 414.371354 
L 708.36255 415.594913 
L 709.5402 415.594874 
L 710.71785 416.760932 
L 711.8955 416.759781 
L 713.07315 418.325242 
L 714.2508 418.326359 
L 715.42845 419.711762 
L 716.6061 419.705211 
L 717.78375 421.075359 
L 718.9614 421.073338 
L 720.13905 422.23669 
L 721.3167 422.236036 
L 722.49435 423.684354 
L 723.672 423.684453 
L 724.84965 425.121806 
L 726.0273 425.121806 
L 727.20495 426.947424 
L 728.3826 426.947472 
L 729.56025 428.060409 
L 730.7379 428.060283 
L 731.91555 429.257208 
L 733.0932 429.2571 
L 734.27085 430.440177 
L 735.4485 430.440208 
L 736.62615 431.67393 
L 737.8038 431.674292 
L 738.98145 432.691069 
L 740.1591 432.691001 
L 741.33675 433.701986 
L 742.5144 433.702362 
L 743.69205 435.100846 
L 744.8697 435.100398 
L 746.04735 436.430062 
L 747.225 436.430065 
L 748.40265 437.842596 
L 749.5803 437.842635 
L 750.75795 439.175238 
L 751.9356 439.175238 
L 753.11325 440.425714 
L 754.2909 440.425772 
L 755.46855 441.774276 
L 756.6462 441.774077 
L 757.82385 443.322527 
L 759.0015 443.322107 
L 760.17915 444.606078 
L 761.3568 444.608404 
L 762.53445 445.886525 
L 763.7121 445.886444 
L 764.88975 447.272757 
L 766.0674 447.267756 
L 767.24505 448.834179 
L 768.4227 448.83462 
L 769.60035 450.118362 
L 770.778 450.118323 
L 771.95565 451.304345 
L 773.1333 451.302613 
L 774.31095 452.737885 
L 775.4886 452.738346 
L 776.66625 454.113235 
L 777.8439 454.113191 
L 779.02155 455.59993 
L 780.1992 455.59993 
L 781.37685 456.927543 
L 782.5545 456.927867 
L 783.73215 458.144244 
L 784.9098 458.144282 
L 786.08745 459.305819 
L 787.2651 459.305793 
L 788.44275 460.517917 
L 789.6204 460.517922 
L 790.79805 461.965564 
L 791.9757 461.965564 
L 793.15335 463.138239 
L 794.331 463.138239 
L 795.50865 464.365758 
L 796.6863 464.365568 
L 797.86395 465.675456 
L 799.0416 465.674762 
L 800.21925 466.975941 
L 801.3969 466.976127 
L 802.57455 468.134449 
L 803.7522 468.134505 
L 804.92985 469.563165 
L 806.1075 469.563678 
L 807.28515 470.517883 
L 808.4628 470.517471 
L 809.64045 471.70209 
L 810.8181 471.702567 
L 811.99575 472.759842 
L 813.1734 472.752968 
L 814.35105 474.324343 
L 815.5287 474.324321 
L 816.70635 475.671094 
L 817.884 475.671206 
L 819.06165 476.983699 
L 820.2393 476.983653 
L 821.41695 478.275219 
L 822.5946 478.275207 
L 823.77225 479.532955 
L 824.9499 479.532955 
L 826.12755 481.078178 
L 827.3052 481.078168 
L 828.48285 482.334723 
L 829.6605 482.33456 
L 830.83815 483.734855 
L 832.0158 483.734883 
L 833.19345 484.901295 
L 834.3711 484.900932 
L 835.54875 486.521857 
L 836.7264 486.521903 
L 837.90405 487.884892 
L 839.0817 487.883737 
L 840.25935 489.359582 
L 841.437 489.359549 
L 842.61465 491.036159 
L 843.7923 491.035868 
L 844.96995 492.196887 
L 846.1476 492.193135 
L 847.32525 493.67575 
L 848.5029 493.66809 
L 849.68055 494.777387 
L 850.8582 494.777638 
L 852.03585 496.16004 
L 853.2135 496.159907 
L 854.39115 497.789287 
L 855.5688 497.789319 
L 856.74645 499.066603 
L 857.9241 499.08856 
L 859.10175 500.714392 
L 860.2794 500.733808 
L 861.45705 501.824619 
L 862.6347 501.816924 
L 863.81235 502.984961 
L 864.99 502.999073 
L 866.16765 504.333862 
L 867.3453 504.37084 
L 868.52295 505.478598 
L 869.7006 505.498326 
L 870.87825 506.658362 
L 872.0559 506.65521 
L 873.23355 507.830588 
L 874.4112 507.833838 
L 875.58885 509.029205 
L 876.7665 509.041933 
L 877.94415 510.055644 
L 879.1218 510.086941 
L 880.29945 511.335425 
L 881.4771 511.351695 
L 882.65475 512.81803 
L 883.8324 512.820826 
L 885.01005 514.067285 
L 886.1877 514.084156 
L 887.36535 515.386041 
L 888.543 515.434327 
L 889.72065 516.508042 
L 890.8983 516.542934 
L 892.07595 518.005718 
L 893.2536 518.037574 
L 894.43125 519.207623 
L 895.6089 519.217154 
L 896.78655 520.264493 
L 897.9642 520.261545 
L 899.14185 521.558596 
L 900.3195 521.588292 
L 901.49715 523.164152 
L 902.6748 523.159452 
L 903.85245 524.128561 
L 905.0301 524.173334 
L 906.20775 525.401857 
L 907.3854 525.466684 
L 908.56305 527.043758 
L 909.7407 527.063835 
L 910.91835 528.586366 
L 912.096 528.590941 
L 913.27365 529.950999 
L 914.4513 529.981266 
L 915.62895 531.224986 
L 916.8066 531.24727 
L 917.98425 532.439863 
L 919.1619 532.444837 
L 920.33955 533.632109 
L 921.5172 533.619811 
L 922.69485 535.027638 
L 923.8725 535.074937 
L 925.05015 536.093592 
L 926.2278 536.132981 
L 927.40545 537.284139 
L 928.5831 537.276838 
L 929.76075 538.283486 
L 930.9384 538.402133 
L 932.11605 539.619703 
L 933.2937 539.659012 
L 934.47135 540.38987 
L 935.649 540.437699 
L 936.82665 541.697899 
L 938.0043 541.750233 
L 939.18195 543.022478 
L 940.3596 543.071776 
L 941.53725 544.195525 
L 942.7149 544.245264 
L 943.89255 545.751516 
L 945.0702 545.784045 
L 946.24785 546.932853 
L 947.4255 547.00458 
L 948.60315 548.407542 
L 949.7808 548.485726 
L 950.95845 549.665489 
L 952.1361 549.70633 
L 953.31375 550.681853 
L 954.4914 550.729858 
L 955.66905 551.748577 
L 956.8467 551.78747 
L 958.02435 553.283639 
L 959.202 553.271382 
L 960.37965 554.196434 
L 961.5573 554.200495 
L 962.73495 555.260785 
L 963.9126 555.286152 
L 965.09025 556.707261 
L 966.2679 556.754047 
L 967.44555 557.69497 
L 968.6232 557.708538 
L 969.80085 559.145704 
L 970.9785 559.209266 
L 972.15615 560.731707 
L 973.3338 560.72046 
L 974.51145 562.15114 
L 975.6891 562.150219 
L 976.86675 563.254591 
L 978.0444 563.255432 
L 979.22205 564.616028 
L 980.3997 564.615796 
L 981.57735 566.064426 
L 982.755 566.064258 
L 983.93265 567.34901 
L 985.1103 567.349253 
L 986.28795 568.952455 
L 987.4656 568.952458 
L 988.64325 570.283042 
L 989.8209 570.283116 
L 990.99855 571.692998 
L 992.1762 571.693293 
L 993.35385 572.680438 
L 994.5315 572.680503 
L 995.70915 573.499966 
L 996.8868 573.499991 
L 998.06445 574.568003 
L 999.2421 574.568008 
L 1000.41975 575.703904 
L 1001.5974 575.704045 
L 1002.77505 576.662681 
L 1003.9527 576.66278 
L 1005.13035 578.12345 
L 1006.308 578.12342 
L 1007.48565 579.075338 
L 1008.6633 579.075359 
L 1009.84095 580.626875 
L 1011.0186 580.626841 
L 1012.19625 581.915939 
L 1013.3739 581.915933 
L 1014.55155 583.120728 
L 1015.7292 583.120722 
L 1016.90685 584.350145 
L 1018.0845 584.350123 
L 1019.26215 585.654406 
L 1020.4398 585.654408 
L 1021.61745 586.764895 
L 1022.7951 586.765034 
L 1023.97275 587.900336 
L 1025.1504 587.900293 
L 1026.32805 589.603429 
L 1027.5057 589.602913 
L 1028.68335 590.949762 
L 1029.861 590.949755 
L 1031.03865 591.895414 
L 1032.2163 591.895414 
L 1033.39395 592.827424 
L 1034.5716 592.827424 
L 1035.74925 594.060896 
L 1036.9269 594.060862 
L 1038.10455 595.922061 
L 1039.2822 595.919558 
L 1040.45985 597.152686 
L 1041.6375 597.152741 
L 1042.81515 598.338319 
L 1043.9928 598.338184 
L 1045.17045 599.785382 
L 1046.3481 599.78555 
L 1047.52575 601.372808 
L 1048.7034 601.372808 
L 1049.88105 602.605323 
L 1051.0587 602.605213 
L 1052.23635 603.78181 
L 1053.414 603.781803 
L 1054.59165 605.338204 
L 1055.7693 605.338187 
L 1056.94695 606.848882 
L 1058.1246 606.848977 
L 1059.30225 608.208273 
L 1060.4799 608.208236 
L 1061.65755 609.345327 
L 1062.8352 609.345203 
L 1064.01285 610.743696 
L 1065.1905 610.743722 
L 1066.36815 612.062294 
L 1067.5458 612.062294 
L 1068.72345 613.263454 
L 1069.9011 613.263381 
L 1071.07875 614.798296 
L 1072.2564 614.798299 
L 1073.43405 616.331302 
L 1074.6117 616.331338 
L 1075.78935 617.381478 
L 1076.967 617.380924 
L 1078.14465 618.76833 
L 1079.3223 618.768205 
L 1080.49995 619.910374 
L 1081.6776 619.910647 
L 1082.85525 621.25796 
L 1084.0329 621.253537 
L 1085.21055 622.210982 
L 1086.3882 622.21476 
L 1087.56585 623.337627 
L 1088.7435 623.337408 
L 1089.92115 624.648532 
L 1091.0988 624.648494 
L 1092.27645 626.22197 
L 1093.4541 626.22197 
L 1094.63175 627.909402 
L 1095.8094 627.909418 
L 1096.98705 629.244286 
L 1098.1647 629.244354 
L 1099.34235 630.566002 
L 1100.52 630.565901 
L 1101.69765 631.893038 
L 1102.8753 631.884057 
L 1104.05295 633.197932 
L 1105.2306 633.190954 
L 1106.40825 634.382325 
L 1107.5859 634.382198 
L 1108.76355 635.699424 
L 1109.9412 635.699562 
L 1111.11885 636.702172 
L 1112.2965 636.702289 
L 1113.47415 638.111122 
L 1114.6518 638.110767 
L 1115.82945 639.079151 
L 1117.0071 639.079127 
L 1118.18475 640.603188 
L 1119.3624 640.603188 
L 1120.54005 642.131983 
L 1121.7177 642.131701 
L 1122.89535 643.39262 
L 1124.073 643.392906 
L 1125.25065 644.895846 
L 1126.4283 644.895981 
L 1127.60595 646.115219 
L 1128.7836 646.115582 
L 1129.96125 647.359843 
L 1131.1389 647.359937 
L 1132.31655 648.806714 
L 1133.4942 648.806714 
L 1134.67185 650.535772 
L 1135.8495 650.535855 
L 1137.02715 652.01167 
L 1138.2048 652.01185 
L 1139.38245 653.241063 
L 1140.5601 653.241346 
L 1141.73775 654.493741 
L 1142.9154 654.493564 
L 1144.09305 655.851357 
L 1145.2707 655.851357 
L 1146.44835 657.148396 
L 1147.626 657.148445 
L 1148.80365 658.043242 
L 1149.9813 658.042991 
L 1151.15895 659.234787 
L 1152.3366 659.234421 
L 1153.51425 660.511675 
L 1154.6919 660.511832 
L 1155.86955 661.825966 
L 1157.0472 661.826299 
L 1158.22485 663.088376 
L 1159.4025 663.08835 
L 1160.58015 664.208053 
L 1161.7578 664.208002 
L 1162.93545 665.432086 
L 1164.1131 665.432086 
L 1165.29075 666.730356 
L 1166.4684 666.728815 
L 1167.64605 667.917106 
L 1168.8237 667.917441 
L 1170.00135 669.050304 
L 1171.179 669.050304 
L 1172.35665 669.963119 
L 1173.5343 669.963345 
L 1174.71195 671.085547 
L 1175.8896 671.08682 
L 1177.06725 672.524484 
L 1178.2449 672.525754 
L 1179.42255 673.406563 
L 1180.6002 673.40693 
L 1181.77785 674.600956 
L 1182.9555 674.600925 
L 1184.13315 675.747654 
L 1185.3108 675.748753 
L 1186.48845 676.120731 
L 1187.6661 676.120949 
L 1188.84375 677.155592 
L 1190.0214 677.155592 
L 1191.19905 677.936564 
L 1192.3767 677.936733 
L 1193.55435 679.301645 
L 1194.732 679.301566 
L 1195.90965 679.657491 
L 1197.0873 679.657491 
L 1198.26495 680.636605 
L 1199.4426 680.636253 
L 1200.62025 681.12192 
L 1201.7979 681.121869 
L 1202.97555 681.61185 
L 1204.1532 681.611813 
L 1205.33085 682.098677 
L 1206.5085 682.09384 
L 1207.68615 683.261165 
L 1208.8638 683.256625 
L 1210.04145 683.738849 
L 1211.2191 683.738849 
L 1212.39675 683.993641 
L 1213.5744 683.993641 
L 1214.75205 684.874439 
L 1215.9297 684.87469 
L 1217.10735 685.164416 
L 1218.285 685.164886 
L 1219.46265 685.358901 
L 1220.6403 685.370923 
L 1221.81795 685.83735 
L 1225.3509 685.816305 
L 1226.52855 686.157618 
L 1227.7062 686.153039 
L 1228.88385 686.297318 
L 1230.0615 686.297563 
L 1231.23915 686.627114 
L 1237.1274 686.914056 
L 1238.30505 687.213858 
L 1239.4827 687.216107 
L 1240.66035 687.401393 
L 1241.838 687.402542 
L 1243.01565 688.064146 
L 1244.1933 688.064146 
L 1245.37095 688.216029 
L 1246.5486 688.216029 
L 1247.72625 688.505241 
L 1251.2592 688.442079 
L 1252.43685 688.303136 
L 1253.6145 688.30315 
L 1254.79215 688.504456 
L 1258.3251 688.598376 
L 1259.50275 688.076747 
L 1267.7463 688.007454 
L 1268.92395 687.88228 
L 1272.4569 687.908134 
L 1273.63455 687.320675 
L 1279.5228 687.337421 
L 1280.70045 687.848589 
L 1281.8781 687.848589 
L 1283.05575 687.575711 
L 1286.5887 687.507608 
L 1287.76635 688.008779 
L 1288.944 688.008047 
L 1290.12165 688.342382 
L 1291.2993 688.341494 
L 1292.47695 688.494888 
L 1298.3652 688.447443 
L 1299.54285 687.973769 
L 1300.7205 687.973788 
L 1301.89815 688.23195 
L 1303.0758 688.232203 
L 1304.25345 688.357448 
L 1305.4311 688.357448 
L 1306.60875 688.508242 
L 1307.7864 688.508242 
L 1308.96405 688.812375 
L 1310.1417 688.812079 
L 1311.31935 688.490861 
L 1314.8523 688.530333 
L 1316.02995 688.890003 
L 1321.9182 688.928844 
L 1323.09585 689.117734 
L 1324.2735 689.111029 
L 1325.45115 689.285711 
L 1326.6288 689.285711 
L 1327.80645 689.144494 
L 1328.9841 689.146999 
L 1330.16175 689.383032 
L 1331.3394 689.383006 
L 1332.51705 689.05383 
L 1333.6947 689.057268 
L 1334.87235 689.335622 
L 1336.05 689.464156 
L 1336.05 689.464156 
" style="fill:none;stroke:#008000;stroke-linecap:square;stroke-width:2.0;"/>
   </g>
   <g id="patch_3">
    <path d="M 158.4 51.3 
L 1336.05 51.3 
" style="fill:none;stroke:#000000;stroke-linecap:square;stroke-linejoin:miter;"/>
   </g>
   <g id="patch_4">
    <path d="M 1336.05 747 
L 1336.05 51.3 
" style="fill:none;stroke:#000000;stroke-linecap:square;stroke-linejoin:miter;"/>
   </g>
   <g id="patch_5">
    <path d="M 158.4 747 
L 1336.05 747 
" style="fill:none;stroke:#000000;stroke-linecap:square;stroke-linejoin:miter;"/>
   </g>
   <g id="patch_6">
    <path d="M 158.4 747 
L 158.4 51.3 
" style="fill:none;stroke:#000000;stroke-linecap:square;stroke-linejoin:miter;"/>
   </g>
   <g id="matplotlib.axis_1">
    <g id="xtick_1">
     <g id="line2d_3">
      <defs>
       <path d="M 0 0 
L 0 -4 
" id="m6a0b8ff53f" style="stroke:#000000;stroke-width:0.5;"/>
      </defs>
      <g>
       <use style="stroke:#000000;stroke-width:0.5;" x="158.4" xlink:href="#m6a0b8ff53f" y="747.0"/>
      </g>
     </g>
     <g id="line2d_4">
      <defs>
       <path d="M 0 0 
L 0 4 
" id="m442a203e81" style="stroke:#000000;stroke-width:0.5;"/>
      </defs>
      <g>
       <use style="stroke:#000000;stroke-width:0.5;" x="158.4" xlink:href="#m442a203e81" y="51.3"/>
      </g>
     </g>
     <g id="text_1">
      <!-- 0 -->
      <defs>
       <path d="M 31.78125 66.40625 
Q 24.171875 66.40625 20.328125 58.90625 
Q 16.5 51.421875 16.5 36.375 
Q 16.5 21.390625 20.328125 13.890625 
Q 24.171875 6.390625 31.78125 6.390625 
Q 39.453125 6.390625 43.28125 13.890625 
Q 47.125 21.390625 47.125 36.375 
Q 47.125 51.421875 43.28125 58.90625 
Q 39.453125 66.40625 31.78125 66.40625 
M 31.78125 74.21875 
Q 44.046875 74.21875 50.515625 64.515625 
Q 56.984375 54.828125 56.984375 36.375 
Q 56.984375 17.96875 50.515625 8.265625 
Q 44.046875 -1.421875 31.78125 -1.421875 
Q 19.53125 -1.421875 13.0625 8.265625 
Q 6.59375 17.96875 6.59375 36.375 
Q 6.59375 54.828125 13.0625 64.515625 
Q 19.53125 74.21875 31.78125 74.21875 
" id="BitstreamVeraSans-Roman-30"/>
      </defs>
      <g transform="translate(148.85625 773.7953125)scale(0.3 -0.3)">
       <use xlink:href="#BitstreamVeraSans-Roman-30"/>
      </g>
     </g>
    </g>
    <g id="xtick_2">
     <g id="line2d_5">
      <g>
       <use style="stroke:#000000;stroke-width:0.5;" x="393.93" xlink:href="#m6a0b8ff53f" y="747.0"/>
      </g>
     </g>
     <g id="line2d_6">
      <g>
       <use style="stroke:#000000;stroke-width:0.5;" x="393.93" xlink:href="#m442a203e81" y="51.3"/>
      </g>
     </g>
     <g id="text_2">
      <!-- 20000 -->
      <defs>
       <path d="M 19.1875 8.296875 
L 53.609375 8.296875 
L 53.609375 0 
L 7.328125 0 
L 7.328125 8.296875 
Q 12.9375 14.109375 22.625 23.890625 
Q 32.328125 33.6875 34.8125 36.53125 
Q 39.546875 41.84375 41.421875 45.53125 
Q 43.3125 49.21875 43.3125 52.78125 
Q 43.3125 58.59375 39.234375 62.25 
Q 35.15625 65.921875 28.609375 65.921875 
Q 23.96875 65.921875 18.8125 64.3125 
Q 13.671875 62.703125 7.8125 59.421875 
L 7.8125 69.390625 
Q 13.765625 71.78125 18.9375 73 
Q 24.125 74.21875 28.421875 74.21875 
Q 39.75 74.21875 46.484375 68.546875 
Q 53.21875 62.890625 53.21875 53.421875 
Q 53.21875 48.921875 51.53125 44.890625 
Q 49.859375 40.875 45.40625 35.40625 
Q 44.1875 33.984375 37.640625 27.21875 
Q 31.109375 20.453125 19.1875 8.296875 
" id="BitstreamVeraSans-Roman-32"/>
      </defs>
      <g transform="translate(346.21125 773.7953125)scale(0.3 -0.3)">
       <use xlink:href="#BitstreamVeraSans-Roman-32"/>
       <use x="63.623046875" xlink:href="#BitstreamVeraSans-Roman-30"/>
       <use x="127.24609375" xlink:href="#BitstreamVeraSans-Roman-30"/>
       <use x="190.869140625" xlink:href="#BitstreamVeraSans-Roman-30"/>
       <use x="254.4921875" xlink:href="#BitstreamVeraSans-Roman-30"/>
      </g>
     </g>
    </g>
    <g id="xtick_3">
     <g id="line2d_7">
      <g>
       <use style="stroke:#000000;stroke-width:0.5;" x="629.46" xlink:href="#m6a0b8ff53f" y="747.0"/>
      </g>
     </g>
     <g id="line2d_8">
      <g>
       <use style="stroke:#000000;stroke-width:0.5;" x="629.46" xlink:href="#m442a203e81" y="51.3"/>
      </g>
     </g>
     <g id="text_3">
      <!-- 40000 -->
      <defs>
       <path d="M 37.796875 64.3125 
L 12.890625 25.390625 
L 37.796875 25.390625 
z
M 35.203125 72.90625 
L 47.609375 72.90625 
L 47.609375 25.390625 
L 58.015625 25.390625 
L 58.015625 17.1875 
L 47.609375 17.1875 
L 47.609375 0 
L 37.796875 0 
L 37.796875 17.1875 
L 4.890625 17.1875 
L 4.890625 26.703125 
z
" id="BitstreamVeraSans-Roman-34"/>
      </defs>
      <g transform="translate(581.74125 773.7953125)scale(0.3 -0.3)">
       <use xlink:href="#BitstreamVeraSans-Roman-34"/>
       <use x="63.623046875" xlink:href="#BitstreamVeraSans-Roman-30"/>
       <use x="127.24609375" xlink:href="#BitstreamVeraSans-Roman-30"/>
       <use x="190.869140625" xlink:href="#BitstreamVeraSans-Roman-30"/>
       <use x="254.4921875" xlink:href="#BitstreamVeraSans-Roman-30"/>
      </g>
     </g>
    </g>
    <g id="xtick_4">
     <g id="line2d_9">
      <g>
       <use style="stroke:#000000;stroke-width:0.5;" x="864.99" xlink:href="#m6a0b8ff53f" y="747.0"/>
      </g>
     </g>
     <g id="line2d_10">
      <g>
       <use style="stroke:#000000;stroke-width:0.5;" x="864.99" xlink:href="#m442a203e81" y="51.3"/>
      </g>
     </g>
     <g id="text_4">
      <!-- 60000 -->
      <defs>
       <path d="M 33.015625 40.375 
Q 26.375 40.375 22.484375 35.828125 
Q 18.609375 31.296875 18.609375 23.390625 
Q 18.609375 15.53125 22.484375 10.953125 
Q 26.375 6.390625 33.015625 6.390625 
Q 39.65625 6.390625 43.53125 10.953125 
Q 47.40625 15.53125 47.40625 23.390625 
Q 47.40625 31.296875 43.53125 35.828125 
Q 39.65625 40.375 33.015625 40.375 
M 52.59375 71.296875 
L 52.59375 62.3125 
Q 48.875 64.0625 45.09375 64.984375 
Q 41.3125 65.921875 37.59375 65.921875 
Q 27.828125 65.921875 22.671875 59.328125 
Q 17.53125 52.734375 16.796875 39.40625 
Q 19.671875 43.65625 24.015625 45.921875 
Q 28.375 48.1875 33.59375 48.1875 
Q 44.578125 48.1875 50.953125 41.515625 
Q 57.328125 34.859375 57.328125 23.390625 
Q 57.328125 12.15625 50.6875 5.359375 
Q 44.046875 -1.421875 33.015625 -1.421875 
Q 20.359375 -1.421875 13.671875 8.265625 
Q 6.984375 17.96875 6.984375 36.375 
Q 6.984375 53.65625 15.1875 63.9375 
Q 23.390625 74.21875 37.203125 74.21875 
Q 40.921875 74.21875 44.703125 73.484375 
Q 48.484375 72.75 52.59375 71.296875 
" id="BitstreamVeraSans-Roman-36"/>
      </defs>
      <g transform="translate(817.27125 773.7953125)scale(0.3 -0.3)">
       <use xlink:href="#BitstreamVeraSans-Roman-36"/>
       <use x="63.623046875" xlink:href="#BitstreamVeraSans-Roman-30"/>
       <use x="127.24609375" xlink:href="#BitstreamVeraSans-Roman-30"/>
       <use x="190.869140625" xlink:href="#BitstreamVeraSans-Roman-30"/>
       <use x="254.4921875" xlink:href="#BitstreamVeraSans-Roman-30"/>
      </g>
     </g>
    </g>
    <g id="xtick_5">
     <g id="line2d_11">
      <g>
       <use style="stroke:#000000;stroke-width:0.5;" x="1100.52" xlink:href="#m6a0b8ff53f" y="747.0"/>
      </g>
     </g>
     <g id="line2d_12">
      <g>
       <use style="stroke:#000000;stroke-width:0.5;" x="1100.52" xlink:href="#m442a203e81" y="51.3"/>
      </g>
     </g>
     <g id="text_5">
      <!-- 80000 -->
      <defs>
       <path d="M 31.78125 34.625 
Q 24.75 34.625 20.71875 30.859375 
Q 16.703125 27.09375 16.703125 20.515625 
Q 16.703125 13.921875 20.71875 10.15625 
Q 24.75 6.390625 31.78125 6.390625 
Q 38.8125 6.390625 42.859375 10.171875 
Q 46.921875 13.96875 46.921875 20.515625 
Q 46.921875 27.09375 42.890625 30.859375 
Q 38.875 34.625 31.78125 34.625 
M 21.921875 38.8125 
Q 15.578125 40.375 12.03125 44.71875 
Q 8.5 49.078125 8.5 55.328125 
Q 8.5 64.0625 14.71875 69.140625 
Q 20.953125 74.21875 31.78125 74.21875 
Q 42.671875 74.21875 48.875 69.140625 
Q 55.078125 64.0625 55.078125 55.328125 
Q 55.078125 49.078125 51.53125 44.71875 
Q 48 40.375 41.703125 38.8125 
Q 48.828125 37.15625 52.796875 32.3125 
Q 56.78125 27.484375 56.78125 20.515625 
Q 56.78125 9.90625 50.3125 4.234375 
Q 43.84375 -1.421875 31.78125 -1.421875 
Q 19.734375 -1.421875 13.25 4.234375 
Q 6.78125 9.90625 6.78125 20.515625 
Q 6.78125 27.484375 10.78125 32.3125 
Q 14.796875 37.15625 21.921875 38.8125 
M 18.3125 54.390625 
Q 18.3125 48.734375 21.84375 45.5625 
Q 25.390625 42.390625 31.78125 42.390625 
Q 38.140625 42.390625 41.71875 45.5625 
Q 45.3125 48.734375 45.3125 54.390625 
Q 45.3125 60.0625 41.71875 63.234375 
Q 38.140625 66.40625 31.78125 66.40625 
Q 25.390625 66.40625 21.84375 63.234375 
Q 18.3125 60.0625 18.3125 54.390625 
" id="BitstreamVeraSans-Roman-38"/>
      </defs>
      <g transform="translate(1052.80125 773.7953125)scale(0.3 -0.3)">
       <use xlink:href="#BitstreamVeraSans-Roman-38"/>
       <use x="63.623046875" xlink:href="#BitstreamVeraSans-Roman-30"/>
       <use x="127.24609375" xlink:href="#BitstreamVeraSans-Roman-30"/>
       <use x="190.869140625" xlink:href="#BitstreamVeraSans-Roman-30"/>
       <use x="254.4921875" xlink:href="#BitstreamVeraSans-Roman-30"/>
      </g>
     </g>
    </g>
    <g id="xtick_6">
     <g id="line2d_13">
      <g>
       <use style="stroke:#000000;stroke-width:0.5;" x="1336.05" xlink:href="#m6a0b8ff53f" y="747.0"/>
      </g>
     </g>
     <g id="line2d_14">
      <g>
       <use style="stroke:#000000;stroke-width:0.5;" x="1336.05" xlink:href="#m442a203e81" y="51.3"/>
      </g>
     </g>
     <g id="text_6">
      <!-- 100000 -->
      <defs>
       <path d="M 12.40625 8.296875 
L 28.515625 8.296875 
L 28.515625 63.921875 
L 10.984375 60.40625 
L 10.984375 69.390625 
L 28.421875 72.90625 
L 38.28125 72.90625 
L 38.28125 8.296875 
L 54.390625 8.296875 
L 54.390625 0 
L 12.40625 0 
z
" id="BitstreamVeraSans-Roman-31"/>
      </defs>
      <g transform="translate(1278.7875 773.7953125)scale(0.3 -0.3)">
       <use xlink:href="#BitstreamVeraSans-Roman-31"/>
       <use x="63.623046875" xlink:href="#BitstreamVeraSans-Roman-30"/>
       <use x="127.24609375" xlink:href="#BitstreamVeraSans-Roman-30"/>
       <use x="190.869140625" xlink:href="#BitstreamVeraSans-Roman-30"/>
       <use x="254.4921875" xlink:href="#BitstreamVeraSans-Roman-30"/>
       <use x="318.115234375" xlink:href="#BitstreamVeraSans-Roman-30"/>
      </g>
     </g>
    </g>
    <g id="text_7">
     <!-- iterations -->
     <defs>
      <path d="M 54.890625 33.015625 
L 54.890625 0 
L 45.90625 0 
L 45.90625 32.71875 
Q 45.90625 40.484375 42.875 44.328125 
Q 39.84375 48.1875 33.796875 48.1875 
Q 26.515625 48.1875 22.3125 43.546875 
Q 18.109375 38.921875 18.109375 30.90625 
L 18.109375 0 
L 9.078125 0 
L 9.078125 54.6875 
L 18.109375 54.6875 
L 18.109375 46.1875 
Q 21.34375 51.125 25.703125 53.5625 
Q 30.078125 56 35.796875 56 
Q 45.21875 56 50.046875 50.171875 
Q 54.890625 44.34375 54.890625 33.015625 
" id="BitstreamVeraSans-Roman-6e"/>
      <path d="M 34.28125 27.484375 
Q 23.390625 27.484375 19.1875 25 
Q 14.984375 22.515625 14.984375 16.5 
Q 14.984375 11.71875 18.140625 8.90625 
Q 21.296875 6.109375 26.703125 6.109375 
Q 34.1875 6.109375 38.703125 11.40625 
Q 43.21875 16.703125 43.21875 25.484375 
L 43.21875 27.484375 
z
M 52.203125 31.203125 
L 52.203125 0 
L 43.21875 0 
L 43.21875 8.296875 
Q 40.140625 3.328125 35.546875 0.953125 
Q 30.953125 -1.421875 24.3125 -1.421875 
Q 15.921875 -1.421875 10.953125 3.296875 
Q 6 8.015625 6 15.921875 
Q 6 25.140625 12.171875 29.828125 
Q 18.359375 34.515625 30.609375 34.515625 
L 43.21875 34.515625 
L 43.21875 35.40625 
Q 43.21875 41.609375 39.140625 45 
Q 35.0625 48.390625 27.6875 48.390625 
Q 23 48.390625 18.546875 47.265625 
Q 14.109375 46.140625 10.015625 43.890625 
L 10.015625 52.203125 
Q 14.9375 54.109375 19.578125 55.046875 
Q 24.21875 56 28.609375 56 
Q 40.484375 56 46.34375 49.84375 
Q 52.203125 43.703125 52.203125 31.203125 
" id="BitstreamVeraSans-Roman-61"/>
      <path d="M 30.609375 48.390625 
Q 23.390625 48.390625 19.1875 42.75 
Q 14.984375 37.109375 14.984375 27.296875 
Q 14.984375 17.484375 19.15625 11.84375 
Q 23.34375 6.203125 30.609375 6.203125 
Q 37.796875 6.203125 41.984375 11.859375 
Q 46.1875 17.53125 46.1875 27.296875 
Q 46.1875 37.015625 41.984375 42.703125 
Q 37.796875 48.390625 30.609375 48.390625 
M 30.609375 56 
Q 42.328125 56 49.015625 48.375 
Q 55.71875 40.765625 55.71875 27.296875 
Q 55.71875 13.875 49.015625 6.21875 
Q 42.328125 -1.421875 30.609375 -1.421875 
Q 18.84375 -1.421875 12.171875 6.21875 
Q 5.515625 13.875 5.515625 27.296875 
Q 5.515625 40.765625 12.171875 48.375 
Q 18.84375 56 30.609375 56 
" id="BitstreamVeraSans-Roman-6f"/>
      <path d="M 9.421875 54.6875 
L 18.40625 54.6875 
L 18.40625 0 
L 9.421875 0 
z
M 9.421875 75.984375 
L 18.40625 75.984375 
L 18.40625 64.59375 
L 9.421875 64.59375 
z
" id="BitstreamVeraSans-Roman-69"/>
      <path d="M 56.203125 29.59375 
L 56.203125 25.203125 
L 14.890625 25.203125 
Q 15.484375 15.921875 20.484375 11.0625 
Q 25.484375 6.203125 34.421875 6.203125 
Q 39.59375 6.203125 44.453125 7.46875 
Q 49.3125 8.734375 54.109375 11.28125 
L 54.109375 2.78125 
Q 49.265625 0.734375 44.1875 -0.34375 
Q 39.109375 -1.421875 33.890625 -1.421875 
Q 20.796875 -1.421875 13.15625 6.1875 
Q 5.515625 13.8125 5.515625 26.8125 
Q 5.515625 40.234375 12.765625 48.109375 
Q 20.015625 56 32.328125 56 
Q 43.359375 56 49.78125 48.890625 
Q 56.203125 41.796875 56.203125 29.59375 
M 47.21875 32.234375 
Q 47.125 39.59375 43.09375 43.984375 
Q 39.0625 48.390625 32.421875 48.390625 
Q 24.90625 48.390625 20.390625 44.140625 
Q 15.875 39.890625 15.1875 32.171875 
z
" id="BitstreamVeraSans-Roman-65"/>
      <path d="M 18.3125 70.21875 
L 18.3125 54.6875 
L 36.8125 54.6875 
L 36.8125 47.703125 
L 18.3125 47.703125 
L 18.3125 18.015625 
Q 18.3125 11.328125 20.140625 9.421875 
Q 21.96875 7.515625 27.59375 7.515625 
L 36.8125 7.515625 
L 36.8125 0 
L 27.59375 0 
Q 17.1875 0 13.234375 3.875 
Q 9.28125 7.765625 9.28125 18.015625 
L 9.28125 47.703125 
L 2.6875 47.703125 
L 2.6875 54.6875 
L 9.28125 54.6875 
L 9.28125 70.21875 
z
" id="BitstreamVeraSans-Roman-74"/>
      <path d="M 41.109375 46.296875 
Q 39.59375 47.171875 37.8125 47.578125 
Q 36.03125 48 33.890625 48 
Q 26.265625 48 22.1875 43.046875 
Q 18.109375 38.09375 18.109375 28.8125 
L 18.109375 0 
L 9.078125 0 
L 9.078125 54.6875 
L 18.109375 54.6875 
L 18.109375 46.1875 
Q 20.953125 51.171875 25.484375 53.578125 
Q 30.03125 56 36.53125 56 
Q 37.453125 56 38.578125 55.875 
Q 39.703125 55.765625 41.0625 55.515625 
z
" id="BitstreamVeraSans-Roman-72"/>
      <path d="M 44.28125 53.078125 
L 44.28125 44.578125 
Q 40.484375 46.53125 36.375 47.5 
Q 32.28125 48.484375 27.875 48.484375 
Q 21.1875 48.484375 17.84375 46.4375 
Q 14.5 44.390625 14.5 40.28125 
Q 14.5 37.15625 16.890625 35.375 
Q 19.28125 33.59375 26.515625 31.984375 
L 29.59375 31.296875 
Q 39.15625 29.25 43.1875 25.515625 
Q 47.21875 21.78125 47.21875 15.09375 
Q 47.21875 7.46875 41.1875 3.015625 
Q 35.15625 -1.421875 24.609375 -1.421875 
Q 20.21875 -1.421875 15.453125 -0.5625 
Q 10.6875 0.296875 5.421875 2 
L 5.421875 11.28125 
Q 10.40625 8.6875 15.234375 7.390625 
Q 20.0625 6.109375 24.8125 6.109375 
Q 31.15625 6.109375 34.5625 8.28125 
Q 37.984375 10.453125 37.984375 14.40625 
Q 37.984375 18.0625 35.515625 20.015625 
Q 33.0625 21.96875 24.703125 23.78125 
L 21.578125 24.515625 
Q 13.234375 26.265625 9.515625 29.90625 
Q 5.8125 33.546875 5.8125 39.890625 
Q 5.8125 47.609375 11.28125 51.796875 
Q 16.75 56 26.8125 56 
Q 31.78125 56 36.171875 55.265625 
Q 40.578125 54.546875 44.28125 53.078125 
" id="BitstreamVeraSans-Roman-73"/>
     </defs>
     <g transform="translate(676.04296875 807.8296875)scale(0.3 -0.3)">
      <use xlink:href="#BitstreamVeraSans-Roman-69"/>
      <use x="27.783203125" xlink:href="#BitstreamVeraSans-Roman-74"/>
      <use x="66.9921875" xlink:href="#BitstreamVeraSans-Roman-65"/>
      <use x="128.515625" xlink:href="#BitstreamVeraSans-Roman-72"/>
      <use x="169.62890625" xlink:href="#BitstreamVeraSans-Roman-61"/>
      <use x="230.908203125" xlink:href="#BitstreamVeraSans-Roman-74"/>
      <use x="270.1171875" xlink:href="#BitstreamVeraSans-Roman-69"/>
      <use x="297.900390625" xlink:href="#BitstreamVeraSans-Roman-6f"/>
      <use x="359.08203125" xlink:href="#BitstreamVeraSans-Roman-6e"/>
      <use x="422.4609375" xlink:href="#BitstreamVeraSans-Roman-73"/>
     </g>
    </g>
   </g>
   <g id="matplotlib.axis_2">
    <g id="ytick_1">
     <g id="line2d_15">
      <defs>
       <path d="M 0 0 
L 4 0 
" id="mdd27e999bd" style="stroke:#000000;stroke-width:0.5;"/>
      </defs>
      <g>
       <use style="stroke:#000000;stroke-width:0.5;" x="158.4" xlink:href="#mdd27e999bd" y="747.0"/>
      </g>
     </g>
     <g id="line2d_16">
      <defs>
       <path d="M 0 0 
L -4 0 
" id="m4045f790af" style="stroke:#000000;stroke-width:0.5;"/>
      </defs>
      <g>
       <use style="stroke:#000000;stroke-width:0.5;" x="1336.05" xlink:href="#m4045f790af" y="747.0"/>
      </g>
     </g>
     <g id="text_8">
      <!-- 60 -->
      <defs>
       <path d="M 10.59375 35.5 
L 73.1875 35.5 
L 73.1875 27.203125 
L 10.59375 27.203125 
z
" id="BitstreamVeraSans-Roman-2212"/>
      </defs>
      <g transform="translate(91.0859375 755.278125)scale(0.3 -0.3)">
       <use xlink:href="#BitstreamVeraSans-Roman-2212"/>
       <use x="83.7890625" xlink:href="#BitstreamVeraSans-Roman-36"/>
       <use x="147.412109375" xlink:href="#BitstreamVeraSans-Roman-30"/>
      </g>
     </g>
    </g>
    <g id="ytick_2">
     <g id="line2d_17">
      <g>
       <use style="stroke:#000000;stroke-width:0.5;" x="158.4" xlink:href="#mdd27e999bd" y="660.0375"/>
      </g>
     </g>
     <g id="line2d_18">
      <g>
       <use style="stroke:#000000;stroke-width:0.5;" x="1336.05" xlink:href="#m4045f790af" y="660.0375"/>
      </g>
     </g>
     <g id="text_9">
      <!-- 50 -->
      <defs>
       <path d="M 10.796875 72.90625 
L 49.515625 72.90625 
L 49.515625 64.59375 
L 19.828125 64.59375 
L 19.828125 46.734375 
Q 21.96875 47.46875 24.109375 47.828125 
Q 26.265625 48.1875 28.421875 48.1875 
Q 40.625 48.1875 47.75 41.5 
Q 54.890625 34.8125 54.890625 23.390625 
Q 54.890625 11.625 47.5625 5.09375 
Q 40.234375 -1.421875 26.90625 -1.421875 
Q 22.3125 -1.421875 17.546875 -0.640625 
Q 12.796875 0.140625 7.71875 1.703125 
L 7.71875 11.625 
Q 12.109375 9.234375 16.796875 8.0625 
Q 21.484375 6.890625 26.703125 6.890625 
Q 35.15625 6.890625 40.078125 11.328125 
Q 45.015625 15.765625 45.015625 23.390625 
Q 45.015625 31 40.078125 35.4375 
Q 35.15625 39.890625 26.703125 39.890625 
Q 22.75 39.890625 18.8125 39.015625 
Q 14.890625 38.140625 10.796875 36.28125 
z
" id="BitstreamVeraSans-Roman-35"/>
      </defs>
      <g transform="translate(91.0859375 668.315625)scale(0.3 -0.3)">
       <use xlink:href="#BitstreamVeraSans-Roman-2212"/>
       <use x="83.7890625" xlink:href="#BitstreamVeraSans-Roman-35"/>
       <use x="147.412109375" xlink:href="#BitstreamVeraSans-Roman-30"/>
      </g>
     </g>
    </g>
    <g id="ytick_3">
     <g id="line2d_19">
      <g>
       <use style="stroke:#000000;stroke-width:0.5;" x="158.4" xlink:href="#mdd27e999bd" y="573.075"/>
      </g>
     </g>
     <g id="line2d_20">
      <g>
       <use style="stroke:#000000;stroke-width:0.5;" x="1336.05" xlink:href="#m4045f790af" y="573.075"/>
      </g>
     </g>
     <g id="text_10">
      <!-- 40 -->
      <g transform="translate(91.0859375 581.353125)scale(0.3 -0.3)">
       <use xlink:href="#BitstreamVeraSans-Roman-2212"/>
       <use x="83.7890625" xlink:href="#BitstreamVeraSans-Roman-34"/>
       <use x="147.412109375" xlink:href="#BitstreamVeraSans-Roman-30"/>
      </g>
     </g>
    </g>
    <g id="ytick_4">
     <g id="line2d_21">
      <g>
       <use style="stroke:#000000;stroke-width:0.5;" x="158.4" xlink:href="#mdd27e999bd" y="486.1125"/>
      </g>
     </g>
     <g id="line2d_22">
      <g>
       <use style="stroke:#000000;stroke-width:0.5;" x="1336.05" xlink:href="#m4045f790af" y="486.1125"/>
      </g>
     </g>
     <g id="text_11">
      <!-- 30 -->
      <defs>
       <path d="M 40.578125 39.3125 
Q 47.65625 37.796875 51.625 33 
Q 55.609375 28.21875 55.609375 21.1875 
Q 55.609375 10.40625 48.1875 4.484375 
Q 40.765625 -1.421875 27.09375 -1.421875 
Q 22.515625 -1.421875 17.65625 -0.515625 
Q 12.796875 0.390625 7.625 2.203125 
L 7.625 11.71875 
Q 11.71875 9.328125 16.59375 8.109375 
Q 21.484375 6.890625 26.8125 6.890625 
Q 36.078125 6.890625 40.9375 10.546875 
Q 45.796875 14.203125 45.796875 21.1875 
Q 45.796875 27.640625 41.28125 31.265625 
Q 36.765625 34.90625 28.71875 34.90625 
L 20.21875 34.90625 
L 20.21875 43.015625 
L 29.109375 43.015625 
Q 36.375 43.015625 40.234375 45.921875 
Q 44.09375 48.828125 44.09375 54.296875 
Q 44.09375 59.90625 40.109375 62.90625 
Q 36.140625 65.921875 28.71875 65.921875 
Q 24.65625 65.921875 20.015625 65.03125 
Q 15.375 64.15625 9.8125 62.3125 
L 9.8125 71.09375 
Q 15.4375 72.65625 20.34375 73.4375 
Q 25.25 74.21875 29.59375 74.21875 
Q 40.828125 74.21875 47.359375 69.109375 
Q 53.90625 64.015625 53.90625 55.328125 
Q 53.90625 49.265625 50.4375 45.09375 
Q 46.96875 40.921875 40.578125 39.3125 
" id="BitstreamVeraSans-Roman-33"/>
      </defs>
      <g transform="translate(91.0859375 494.390625)scale(0.3 -0.3)">
       <use xlink:href="#BitstreamVeraSans-Roman-2212"/>
       <use x="83.7890625" xlink:href="#BitstreamVeraSans-Roman-33"/>
       <use x="147.412109375" xlink:href="#BitstreamVeraSans-Roman-30"/>
      </g>
     </g>
    </g>
    <g id="ytick_5">
     <g id="line2d_23">
      <g>
       <use style="stroke:#000000;stroke-width:0.5;" x="158.4" xlink:href="#mdd27e999bd" y="399.15"/>
      </g>
     </g>
     <g id="line2d_24">
      <g>
       <use style="stroke:#000000;stroke-width:0.5;" x="1336.05" xlink:href="#m4045f790af" y="399.15"/>
      </g>
     </g>
     <g id="text_12">
      <!-- 20 -->
      <g transform="translate(91.0859375 407.428125)scale(0.3 -0.3)">
       <use xlink:href="#BitstreamVeraSans-Roman-2212"/>
       <use x="83.7890625" xlink:href="#BitstreamVeraSans-Roman-32"/>
       <use x="147.412109375" xlink:href="#BitstreamVeraSans-Roman-30"/>
      </g>
     </g>
    </g>
    <g id="ytick_6">
     <g id="line2d_25">
      <g>
       <use style="stroke:#000000;stroke-width:0.5;" x="158.4" xlink:href="#mdd27e999bd" y="312.1875"/>
      </g>
     </g>
     <g id="line2d_26">
      <g>
       <use style="stroke:#000000;stroke-width:0.5;" x="1336.05" xlink:href="#m4045f790af" y="312.1875"/>
      </g>
     </g>
     <g id="text_13">
      <!-- 10 -->
      <g transform="translate(91.0859375 320.465625)scale(0.3 -0.3)">
       <use xlink:href="#BitstreamVeraSans-Roman-2212"/>
       <use x="83.7890625" xlink:href="#BitstreamVeraSans-Roman-31"/>
       <use x="147.412109375" xlink:href="#BitstreamVeraSans-Roman-30"/>
      </g>
     </g>
    </g>
    <g id="ytick_7">
     <g id="line2d_27">
      <g>
       <use style="stroke:#000000;stroke-width:0.5;" x="158.4" xlink:href="#mdd27e999bd" y="225.225"/>
      </g>
     </g>
     <g id="line2d_28">
      <g>
       <use style="stroke:#000000;stroke-width:0.5;" x="1336.05" xlink:href="#m4045f790af" y="225.225"/>
      </g>
     </g>
     <g id="text_14">
      <!-- 0 -->
      <g transform="translate(135.3125 233.503125)scale(0.3 -0.3)">
       <use xlink:href="#BitstreamVeraSans-Roman-30"/>
      </g>
     </g>
    </g>
    <g id="ytick_8">
     <g id="line2d_29">
      <g>
       <use style="stroke:#000000;stroke-width:0.5;" x="158.4" xlink:href="#mdd27e999bd" y="138.2625"/>
      </g>
     </g>
     <g id="line2d_30">
      <g>
       <use style="stroke:#000000;stroke-width:0.5;" x="1336.05" xlink:href="#m4045f790af" y="138.2625"/>
      </g>
     </g>
     <g id="text_15">
      <!-- 10 -->
      <g transform="translate(116.225 146.540625)scale(0.3 -0.3)">
       <use xlink:href="#BitstreamVeraSans-Roman-31"/>
       <use x="63.623046875" xlink:href="#BitstreamVeraSans-Roman-30"/>
      </g>
     </g>
    </g>
    <g id="ytick_9">
     <g id="line2d_31">
      <g>
       <use style="stroke:#000000;stroke-width:0.5;" x="158.4" xlink:href="#mdd27e999bd" y="51.3"/>
      </g>
     </g>
     <g id="line2d_32">
      <g>
       <use style="stroke:#000000;stroke-width:0.5;" x="1336.05" xlink:href="#m4045f790af" y="51.3"/>
      </g>
     </g>
     <g id="text_16">
      <!-- 20 -->
      <g transform="translate(116.225 59.578125)scale(0.3 -0.3)">
       <use xlink:href="#BitstreamVeraSans-Roman-32"/>
       <use x="63.623046875" xlink:href="#BitstreamVeraSans-Roman-30"/>
      </g>
     </g>
    </g>
    <g id="text_17">
     <!-- log(loss) -->
     <defs>
      <path d="M 8.015625 75.875 
L 15.828125 75.875 
Q 23.140625 64.359375 26.78125 53.3125 
Q 30.421875 42.28125 30.421875 31.390625 
Q 30.421875 20.453125 26.78125 9.375 
Q 23.140625 -1.703125 15.828125 -13.1875 
L 8.015625 -13.1875 
Q 14.5 -2 17.703125 9.0625 
Q 20.90625 20.125 20.90625 31.390625 
Q 20.90625 42.671875 17.703125 53.65625 
Q 14.5 64.65625 8.015625 75.875 
" id="BitstreamVeraSans-Roman-29"/>
      <path d="M 31 75.875 
Q 24.46875 64.65625 21.28125 53.65625 
Q 18.109375 42.671875 18.109375 31.390625 
Q 18.109375 20.125 21.3125 9.0625 
Q 24.515625 -2 31 -13.1875 
L 23.1875 -13.1875 
Q 15.875 -1.703125 12.234375 9.375 
Q 8.59375 20.453125 8.59375 31.390625 
Q 8.59375 42.28125 12.203125 53.3125 
Q 15.828125 64.359375 23.1875 75.875 
z
" id="BitstreamVeraSans-Roman-28"/>
      <path d="M 45.40625 27.984375 
Q 45.40625 37.75 41.375 43.109375 
Q 37.359375 48.484375 30.078125 48.484375 
Q 22.859375 48.484375 18.828125 43.109375 
Q 14.796875 37.75 14.796875 27.984375 
Q 14.796875 18.265625 18.828125 12.890625 
Q 22.859375 7.515625 30.078125 7.515625 
Q 37.359375 7.515625 41.375 12.890625 
Q 45.40625 18.265625 45.40625 27.984375 
M 54.390625 6.78125 
Q 54.390625 -7.171875 48.1875 -13.984375 
Q 42 -20.796875 29.203125 -20.796875 
Q 24.46875 -20.796875 20.265625 -20.09375 
Q 16.0625 -19.390625 12.109375 -17.921875 
L 12.109375 -9.1875 
Q 16.0625 -11.328125 19.921875 -12.34375 
Q 23.78125 -13.375 27.78125 -13.375 
Q 36.625 -13.375 41.015625 -8.765625 
Q 45.40625 -4.15625 45.40625 5.171875 
L 45.40625 9.625 
Q 42.625 4.78125 38.28125 2.390625 
Q 33.9375 0 27.875 0 
Q 17.828125 0 11.671875 7.65625 
Q 5.515625 15.328125 5.515625 27.984375 
Q 5.515625 40.671875 11.671875 48.328125 
Q 17.828125 56 27.875 56 
Q 33.9375 56 38.28125 53.609375 
Q 42.625 51.21875 45.40625 46.390625 
L 45.40625 54.6875 
L 54.390625 54.6875 
z
" id="BitstreamVeraSans-Roman-67"/>
      <path d="M 9.421875 75.984375 
L 18.40625 75.984375 
L 18.40625 0 
L 9.421875 0 
z
" id="BitstreamVeraSans-Roman-6c"/>
     </defs>
     <g transform="translate(79.846875 462.69609375)rotate(-90.0)scale(0.3 -0.3)">
      <use xlink:href="#BitstreamVeraSans-Roman-6c"/>
      <use x="27.783203125" xlink:href="#BitstreamVeraSans-Roman-6f"/>
      <use x="88.96484375" xlink:href="#BitstreamVeraSans-Roman-67"/>
      <use x="152.44140625" xlink:href="#BitstreamVeraSans-Roman-28"/>
      <use x="191.455078125" xlink:href="#BitstreamVeraSans-Roman-6c"/>
      <use x="219.23828125" xlink:href="#BitstreamVeraSans-Roman-6f"/>
      <use x="280.419921875" xlink:href="#BitstreamVeraSans-Roman-73"/>
      <use x="332.51953125" xlink:href="#BitstreamVeraSans-Roman-73"/>
      <use x="384.619140625" xlink:href="#BitstreamVeraSans-Roman-29"/>
     </g>
    </g>
   </g>
   <g id="legend_1">
    <g id="patch_7">
     <path d="M 843.876562 163.36875 
L 1321.05 163.36875 
L 1321.05 66.3 
L 843.876562 66.3 
z
" style="fill:#ffffff;stroke:#000000;stroke-linejoin:miter;"/>
    </g>
    <g id="line2d_33">
     <path d="M 864.876562 90.595312 
L 906.876562 90.595312 
" style="fill:none;stroke:#0000ff;stroke-linecap:square;stroke-width:2.0;"/>
    </g>
    <g id="line2d_34"/>
    <g id="text_18">
     <!-- random: step=0.000620 -->
     <defs>
      <path id="BitstreamVeraSans-Roman-20"/>
      <path d="M 52 44.1875 
Q 55.375 50.25 60.0625 53.125 
Q 64.75 56 71.09375 56 
Q 79.640625 56 84.28125 50.015625 
Q 88.921875 44.046875 88.921875 33.015625 
L 88.921875 0 
L 79.890625 0 
L 79.890625 32.71875 
Q 79.890625 40.578125 77.09375 44.375 
Q 74.3125 48.1875 68.609375 48.1875 
Q 61.625 48.1875 57.5625 43.546875 
Q 53.515625 38.921875 53.515625 30.90625 
L 53.515625 0 
L 44.484375 0 
L 44.484375 32.71875 
Q 44.484375 40.625 41.703125 44.40625 
Q 38.921875 48.1875 33.109375 48.1875 
Q 26.21875 48.1875 22.15625 43.53125 
Q 18.109375 38.875 18.109375 30.90625 
L 18.109375 0 
L 9.078125 0 
L 9.078125 54.6875 
L 18.109375 54.6875 
L 18.109375 46.1875 
Q 21.1875 51.21875 25.484375 53.609375 
Q 29.78125 56 35.6875 56 
Q 41.65625 56 45.828125 52.96875 
Q 50 49.953125 52 44.1875 
" id="BitstreamVeraSans-Roman-6d"/>
      <path d="M 11.71875 12.40625 
L 22.015625 12.40625 
L 22.015625 0 
L 11.71875 0 
z
M 11.71875 51.703125 
L 22.015625 51.703125 
L 22.015625 39.3125 
L 11.71875 39.3125 
z
" id="BitstreamVeraSans-Roman-3a"/>
      <path d="M 10.6875 12.40625 
L 21 12.40625 
L 21 0 
L 10.6875 0 
z
" id="BitstreamVeraSans-Roman-2e"/>
      <path d="M 10.59375 45.40625 
L 73.1875 45.40625 
L 73.1875 37.203125 
L 10.59375 37.203125 
z
M 10.59375 25.484375 
L 73.1875 25.484375 
L 73.1875 17.1875 
L 10.59375 17.1875 
z
" id="BitstreamVeraSans-Roman-3d"/>
      <path d="M 45.40625 46.390625 
L 45.40625 75.984375 
L 54.390625 75.984375 
L 54.390625 0 
L 45.40625 0 
L 45.40625 8.203125 
Q 42.578125 3.328125 38.25 0.953125 
Q 33.9375 -1.421875 27.875 -1.421875 
Q 17.96875 -1.421875 11.734375 6.484375 
Q 5.515625 14.40625 5.515625 27.296875 
Q 5.515625 40.1875 11.734375 48.09375 
Q 17.96875 56 27.875 56 
Q 33.9375 56 38.25 53.625 
Q 42.578125 51.265625 45.40625 46.390625 
M 14.796875 27.296875 
Q 14.796875 17.390625 18.875 11.75 
Q 22.953125 6.109375 30.078125 6.109375 
Q 37.203125 6.109375 41.296875 11.75 
Q 45.40625 17.390625 45.40625 27.296875 
Q 45.40625 37.203125 41.296875 42.84375 
Q 37.203125 48.484375 30.078125 48.484375 
Q 22.953125 48.484375 18.875 42.84375 
Q 14.796875 37.203125 14.796875 27.296875 
" id="BitstreamVeraSans-Roman-64"/>
      <path d="M 18.109375 8.203125 
L 18.109375 -20.796875 
L 9.078125 -20.796875 
L 9.078125 54.6875 
L 18.109375 54.6875 
L 18.109375 46.390625 
Q 20.953125 51.265625 25.265625 53.625 
Q 29.59375 56 35.59375 56 
Q 45.5625 56 51.78125 48.09375 
Q 58.015625 40.1875 58.015625 27.296875 
Q 58.015625 14.40625 51.78125 6.484375 
Q 45.5625 -1.421875 35.59375 -1.421875 
Q 29.59375 -1.421875 25.265625 0.953125 
Q 20.953125 3.328125 18.109375 8.203125 
M 48.6875 27.296875 
Q 48.6875 37.203125 44.609375 42.84375 
Q 40.53125 48.484375 33.40625 48.484375 
Q 26.265625 48.484375 22.1875 42.84375 
Q 18.109375 37.203125 18.109375 27.296875 
Q 18.109375 17.390625 22.1875 11.75 
Q 26.265625 6.109375 33.40625 6.109375 
Q 40.53125 6.109375 44.609375 11.75 
Q 48.6875 17.390625 48.6875 27.296875 
" id="BitstreamVeraSans-Roman-70"/>
     </defs>
     <g transform="translate(939.8765625 101.0953125)scale(0.3 -0.3)">
      <use xlink:href="#BitstreamVeraSans-Roman-72"/>
      <use x="41.11328125" xlink:href="#BitstreamVeraSans-Roman-61"/>
      <use x="102.392578125" xlink:href="#BitstreamVeraSans-Roman-6e"/>
      <use x="165.771484375" xlink:href="#BitstreamVeraSans-Roman-64"/>
      <use x="229.248046875" xlink:href="#BitstreamVeraSans-Roman-6f"/>
      <use x="290.4296875" xlink:href="#BitstreamVeraSans-Roman-6d"/>
      <use x="387.841796875" xlink:href="#BitstreamVeraSans-Roman-3a"/>
      <use x="421.533203125" xlink:href="#BitstreamVeraSans-Roman-20"/>
      <use x="453.3203125" xlink:href="#BitstreamVeraSans-Roman-73"/>
      <use x="505.419921875" xlink:href="#BitstreamVeraSans-Roman-74"/>
      <use x="544.62890625" xlink:href="#BitstreamVeraSans-Roman-65"/>
      <use x="606.15234375" xlink:href="#BitstreamVeraSans-Roman-70"/>
      <use x="669.62890625" xlink:href="#BitstreamVeraSans-Roman-3d"/>
      <use x="753.41796875" xlink:href="#BitstreamVeraSans-Roman-30"/>
      <use x="817.041015625" xlink:href="#BitstreamVeraSans-Roman-2e"/>
      <use x="848.828125" xlink:href="#BitstreamVeraSans-Roman-30"/>
      <use x="912.451171875" xlink:href="#BitstreamVeraSans-Roman-30"/>
      <use x="976.07421875" xlink:href="#BitstreamVeraSans-Roman-30"/>
      <use x="1039.69726562" xlink:href="#BitstreamVeraSans-Roman-36"/>
      <use x="1103.3203125" xlink:href="#BitstreamVeraSans-Roman-32"/>
      <use x="1166.94335938" xlink:href="#BitstreamVeraSans-Roman-30"/>
     </g>
    </g>
    <g id="line2d_35">
     <path d="M 864.876562 134.629687 
L 906.876562 134.629687 
" style="fill:none;stroke:#008000;stroke-linecap:square;stroke-width:2.0;"/>
    </g>
    <g id="line2d_36"/>
    <g id="text_19">
     <!-- corr: step=0.000620 -->
     <defs>
      <path d="M 48.78125 52.59375 
L 48.78125 44.1875 
Q 44.96875 46.296875 41.140625 47.34375 
Q 37.3125 48.390625 33.40625 48.390625 
Q 24.65625 48.390625 19.8125 42.84375 
Q 14.984375 37.3125 14.984375 27.296875 
Q 14.984375 17.28125 19.8125 11.734375 
Q 24.65625 6.203125 33.40625 6.203125 
Q 37.3125 6.203125 41.140625 7.25 
Q 44.96875 8.296875 48.78125 10.40625 
L 48.78125 2.09375 
Q 45.015625 0.34375 40.984375 -0.53125 
Q 36.96875 -1.421875 32.421875 -1.421875 
Q 20.0625 -1.421875 12.78125 6.34375 
Q 5.515625 14.109375 5.515625 27.296875 
Q 5.515625 40.671875 12.859375 48.328125 
Q 20.21875 56 33.015625 56 
Q 37.15625 56 41.109375 55.140625 
Q 45.0625 54.296875 48.78125 52.59375 
" id="BitstreamVeraSans-Roman-63"/>
     </defs>
     <g transform="translate(939.8765625 145.1296875)scale(0.3 -0.3)">
      <use xlink:href="#BitstreamVeraSans-Roman-63"/>
      <use x="54.98046875" xlink:href="#BitstreamVeraSans-Roman-6f"/>
      <use x="116.162109375" xlink:href="#BitstreamVeraSans-Roman-72"/>
      <use x="157.259765625" xlink:href="#BitstreamVeraSans-Roman-72"/>
      <use x="198.357421875" xlink:href="#BitstreamVeraSans-Roman-3a"/>
      <use x="232.048828125" xlink:href="#BitstreamVeraSans-Roman-20"/>
      <use x="263.8359375" xlink:href="#BitstreamVeraSans-Roman-73"/>
      <use x="315.935546875" xlink:href="#BitstreamVeraSans-Roman-74"/>
      <use x="355.14453125" xlink:href="#BitstreamVeraSans-Roman-65"/>
      <use x="416.66796875" xlink:href="#BitstreamVeraSans-Roman-70"/>
      <use x="480.14453125" xlink:href="#BitstreamVeraSans-Roman-3d"/>
      <use x="563.93359375" xlink:href="#BitstreamVeraSans-Roman-30"/>
      <use x="627.556640625" xlink:href="#BitstreamVeraSans-Roman-2e"/>
      <use x="659.34375" xlink:href="#BitstreamVeraSans-Roman-30"/>
      <use x="722.966796875" xlink:href="#BitstreamVeraSans-Roman-30"/>
      <use x="786.58984375" xlink:href="#BitstreamVeraSans-Roman-30"/>
      <use x="850.212890625" xlink:href="#BitstreamVeraSans-Roman-36"/>
      <use x="913.8359375" xlink:href="#BitstreamVeraSans-Roman-32"/>
      <use x="977.458984375" xlink:href="#BitstreamVeraSans-Roman-30"/>
     </g>
    </g>
   </g>
  </g>
 </g>
 <defs>
  <clipPath id="p57bf105e77">
   <rect height="695.7" width="1177.65" x="158.4" y="51.3"/>
  </clipPath>
 </defs>
</svg>
