<?xml version="1.0" encoding="utf-8" standalone="no"?>
<!DOCTYPE svg PUBLIC "-//W3C//DTD SVG 1.1//EN"
  "http://www.w3.org/Graphics/SVG/1.1/DTD/svg11.dtd">
<!-- Created with matplotlib (http://matplotlib.org/) -->
<svg height="864pt" version="1.1" viewBox="0 0 1440 864" width="1440pt" xmlns="http://www.w3.org/2000/svg" xmlns:xlink="http://www.w3.org/1999/xlink">
 <defs>
  <style type="text/css">
*{stroke-linecap:butt;stroke-linejoin:round;stroke-miterlimit:100000;}
  </style>
 </defs>
 <g id="figure_1">
  <g id="patch_1">
   <path d="M 0 864 
L 1440 864 
L 1440 0 
L 0 0 
z
" style="fill:#ffffff;"/>
  </g>
  <g id="axes_1">
   <g id="patch_2">
    <path d="M 158.4 747 
L 1336.05 747 
L 1336.05 51.3 
L 158.4 51.3 
z
" style="fill:#ffffff;"/>
   </g>
   <g id="line2d_1">
    <path clip-path="url(#p9e4b8fab7c)" d="M 159.57765 101.339665 
L 160.7553 103.258503 
L 161.93295 103.338721 
L 163.1106 105.50391 
L 164.28825 106.180412 
L 165.4659 106.179372 
L 166.64355 108.152664 
L 167.8212 108.77957 
L 168.99885 109.168505 
L 170.1765 109.168408 
L 171.35415 110.534074 
L 172.5318 111.673392 
L 173.70945 111.925587 
L 174.8871 111.967642 
L 176.06475 112.834116 
L 177.2424 114.515251 
L 178.42005 115.33749 
L 179.5977 115.337179 
L 180.77535 116.016353 
L 181.953 117.215414 
L 183.13065 118.700228 
L 184.3083 118.558673 
L 185.48595 118.558865 
L 186.6636 120.10726 
L 187.84125 121.9526 
L 190.19655 121.995861 
L 191.3742 123.254051 
L 192.55185 125.038948 
L 193.7295 125.343183 
L 194.90715 125.342373 
L 196.0848 125.800725 
L 197.26245 127.710808 
L 198.4401 128.719564 
L 200.7954 128.678055 
L 201.97305 131.113407 
L 203.1507 131.987905 
L 204.32835 132.107017 
L 205.506 132.106956 
L 206.68365 134.547721 
L 207.8613 135.237173 
L 209.03895 135.510858 
L 210.2166 135.511016 
L 211.39425 137.166173 
L 213.74955 138.575261 
L 214.9272 138.575302 
L 216.10485 139.695971 
L 217.2825 140.268482 
L 218.46015 141.573272 
L 219.6378 141.573295 
L 220.81545 142.460321 
L 221.9931 142.857269 
L 223.17075 144.7305 
L 224.3484 144.731613 
L 225.52605 145.144326 
L 226.7037 145.356389 
L 227.88135 147.902841 
L 230.23665 147.80581 
L 231.4143 148.180122 
L 232.59195 150.268159 
L 236.1249 150.475573 
L 237.30255 152.741419 
L 238.4802 152.912681 
L 240.8355 152.896748 
L 242.01315 156.162981 
L 243.1908 156.117815 
L 244.36845 156.41723 
L 245.5461 156.417186 
L 246.72375 158.188133 
L 247.9014 158.188789 
L 249.07905 159.424312 
L 250.2567 159.424272 
L 251.43435 160.111154 
L 252.612 160.109591 
L 253.78965 162.422294 
L 254.9673 162.422275 
L 256.14495 162.217038 
L 257.3226 162.215574 
L 258.50025 164.737038 
L 259.6779 164.737461 
L 260.85555 165.140147 
L 262.0332 165.140902 
L 263.21085 166.853133 
L 264.3885 166.852838 
L 265.56615 168.636247 
L 266.7438 168.636255 
L 267.92145 169.228201 
L 269.0991 169.228999 
L 270.27675 171.470333 
L 273.8097 171.372045 
L 274.98735 173.695836 
L 276.165 173.69489 
L 277.34265 174.219396 
L 278.5203 174.219413 
L 279.69795 175.418012 
L 280.8756 175.418488 
L 282.05325 176.991317 
L 283.2309 176.991287 
L 284.40855 177.502911 
L 285.5862 177.505088 
L 286.76385 179.982984 
L 290.2968 179.971396 
L 291.47445 182.751215 
L 292.6521 182.750952 
L 293.82975 183.368986 
L 295.0074 183.367983 
L 296.18505 184.684665 
L 297.3627 184.685578 
L 298.54035 186.312436 
L 299.718 186.312255 
L 300.89565 187.015762 
L 302.0733 187.015034 
L 303.25095 188.795663 
L 304.4286 188.800633 
L 305.60625 189.239098 
L 306.7839 189.239519 
L 307.96155 190.978152 
L 309.1392 190.979247 
L 310.31685 191.36694 
L 311.4945 191.368533 
L 312.67215 193.555517 
L 313.8498 193.552487 
L 315.02745 193.943999 
L 316.2051 193.943701 
L 317.38275 195.934426 
L 318.5604 195.933273 
L 319.73805 196.481976 
L 320.9157 196.487658 
L 322.09335 198.413862 
L 323.271 198.413467 
L 324.44865 198.998129 
L 325.6263 199.000933 
L 326.80395 200.964578 
L 327.9816 200.967009 
L 329.15925 201.668581 
L 330.3369 201.672458 
L 331.51455 203.620828 
L 332.6922 203.622003 
L 333.86985 204.231557 
L 335.0475 204.232786 
L 336.22515 206.396426 
L 337.4028 206.399283 
L 338.58045 207.263297 
L 339.7581 207.26416 
L 340.93575 209.41828 
L 342.1134 209.420266 
L 343.29105 209.98582 
L 344.4687 209.98713 
L 345.64635 212.356705 
L 346.824 212.3566 
L 348.00165 213.217259 
L 349.1793 213.220788 
L 350.35695 215.474822 
L 351.5346 215.4137 
L 352.71225 215.889475 
L 353.8899 215.889567 
L 355.06755 217.599535 
L 356.2452 217.598974 
L 357.42285 217.844851 
L 358.6005 217.84264 
L 359.77815 220.300588 
L 360.9558 220.301225 
L 362.13345 220.84226 
L 363.3111 220.83809 
L 364.48875 222.722666 
L 365.6664 222.722784 
L 366.84405 223.112463 
L 368.0217 223.113146 
L 369.19935 225.511697 
L 370.377 225.510904 
L 371.55465 225.888166 
L 372.7323 225.88499 
L 373.90995 227.985408 
L 375.0876 227.989934 
L 376.26525 228.363739 
L 377.4429 228.363177 
L 378.62055 230.393257 
L 379.7982 230.389583 
L 380.97585 230.745492 
L 382.1535 230.74672 
L 383.33115 233.31225 
L 384.5088 233.310282 
L 385.68645 233.753852 
L 386.8641 233.754318 
L 388.04175 236.028613 
L 389.2194 236.031524 
L 390.39705 236.40888 
L 391.5747 236.40989 
L 392.75235 238.588585 
L 393.93 238.585832 
L 395.10765 238.970912 
L 396.2853 238.970439 
L 397.46295 241.301183 
L 398.6406 241.298097 
L 399.81825 241.640519 
L 400.9959 241.64006 
L 402.17355 244.052255 
L 403.3512 244.056197 
L 404.52885 244.183597 
L 405.7065 244.183104 
L 406.88415 246.925424 
L 408.0618 246.93121 
L 409.23945 247.067505 
L 410.4171 247.067884 
L 411.59475 250.209452 
L 412.7724 250.20471 
L 413.95005 250.340433 
L 415.1277 250.341184 
L 416.30535 253.111993 
L 419.8383 253.176993 
L 421.01595 255.758559 
L 424.5489 255.76109 
L 425.72655 258.60183 
L 429.2595 258.604774 
L 430.43715 261.490828 
L 431.6148 261.489297 
L 432.79245 261.777664 
L 433.9701 261.778252 
L 435.14775 263.378999 
L 436.3254 263.378209 
L 437.50305 264.821676 
L 438.6807 264.821858 
L 439.85835 265.870844 
L 441.036 265.871245 
L 442.21365 268.443514 
L 445.7466 268.392268 
L 446.92425 271.094363 
L 448.1019 271.095336 
L 449.27955 271.530715 
L 450.4572 271.530627 
L 451.63485 273.570093 
L 452.8125 273.57036 
L 453.99015 274.917946 
L 455.1678 274.917308 
L 456.34545 275.527659 
L 457.5231 275.527057 
L 458.70075 277.766899 
L 462.2337 277.763662 
L 463.41135 280.033062 
L 464.589 280.028995 
L 465.76665 280.61497 
L 466.9443 280.614934 
L 468.12195 282.46848 
L 469.2996 282.468229 
L 470.47725 284.181687 
L 471.6549 284.181886 
L 472.83255 284.858811 
L 474.0102 284.859158 
L 475.18785 286.937236 
L 478.7208 286.841174 
L 479.89845 289.098561 
L 481.0761 289.098839 
L 482.25375 289.608014 
L 483.4314 289.607657 
L 484.60905 291.502959 
L 485.7867 291.502981 
L 486.96435 293.041675 
L 488.142 293.040814 
L 489.31965 293.551122 
L 490.4973 293.551271 
L 491.67495 295.931573 
L 495.2079 296.030214 
L 496.38555 298.290363 
L 497.5632 298.291475 
L 498.74085 298.916873 
L 499.9185 299.138355 
L 501.09615 300.223355 
L 502.2738 300.223166 
L 504.6291 302.097067 
L 506.9844 301.997939 
L 508.16205 304.160799 
L 509.3397 304.657739 
L 511.695 304.662608 
L 512.87265 306.416228 
L 514.0503 306.925814 
L 516.4056 306.930668 
L 517.58325 309.644154 
L 518.7609 309.798281 
L 521.1162 309.81015 
L 522.29385 312.420306 
L 525.8268 312.394261 
L 527.00445 315.091526 
L 530.5374 315.136239 
L 531.71505 317.686493 
L 535.248 317.710582 
L 536.42565 320.525706 
L 539.9586 320.529439 
L 541.13625 323.100046 
L 544.6692 323.095916 
L 545.84685 325.425892 
L 549.3798 325.425894 
L 550.55745 328.330335 
L 554.0904 328.330553 
L 555.26805 330.595923 
L 558.801 330.592092 
L 559.97865 333.329093 
L 563.5116 333.328642 
L 564.68925 336.087693 
L 568.2222 336.088213 
L 569.39985 338.813322 
L 572.9328 338.813424 
L 574.11045 341.41441 
L 577.6434 341.41462 
L 578.82105 343.978897 
L 582.354 343.978971 
L 583.53165 346.519601 
L 587.0646 346.510473 
L 588.24225 349.00993 
L 591.7752 349.010035 
L 592.95285 352.00725 
L 596.4858 352.008754 
L 597.66345 354.674851 
L 601.1964 354.675822 
L 602.37405 357.589518 
L 605.907 357.589579 
L 607.08465 360.287395 
L 610.6176 360.28739 
L 611.79525 363.310529 
L 615.3282 363.309906 
L 616.50585 365.98262 
L 620.0388 366.015048 
L 621.21645 368.409651 
L 624.7494 368.435601 
L 625.92705 370.58974 
L 627.1047 370.58017 
L 628.28235 370.958787 
L 629.46 370.959564 
L 630.63765 372.908234 
L 631.8153 372.90731 
L 632.99295 374.305965 
L 634.1706 374.305199 
L 635.34825 375.154289 
L 636.5259 375.153867 
L 637.70355 377.37526 
L 638.8812 377.368381 
L 640.05885 377.230925 
L 641.2365 377.230867 
L 642.41415 379.202497 
L 643.5918 379.202663 
L 644.76945 379.732384 
L 645.9471 379.731968 
L 647.12475 381.799225 
L 648.3024 381.815897 
L 649.48005 383.324225 
L 650.6577 383.324533 
L 651.83535 384.226697 
L 653.013 384.226181 
L 654.19065 386.791448 
L 655.3683 386.791458 
L 656.54595 386.483054 
L 657.7236 386.483309 
L 658.90125 389.84862 
L 660.0789 389.84825 
L 661.25655 390.286093 
L 662.4342 390.286198 
L 663.61185 391.964555 
L 664.7895 391.965223 
L 665.96715 393.223039 
L 667.1448 393.222909 
L 668.32245 394.173966 
L 669.5001 394.173616 
L 670.67775 396.872722 
L 671.8554 396.872527 
L 673.03305 396.706387 
L 674.2107 396.706135 
L 675.38835 399.608548 
L 676.566 399.608574 
L 677.74365 399.962344 
L 678.9213 399.962451 
L 680.09895 401.932676 
L 681.2766 401.933403 
L 682.45425 403.007418 
L 683.6319 403.007721 
L 684.80955 403.777398 
L 685.9872 403.777463 
L 687.16485 406.244028 
L 688.3425 406.243859 
L 689.52015 406.11533 
L 690.6978 406.115736 
L 691.87545 409.001344 
L 693.0531 409.001492 
L 694.23075 409.5064 
L 695.4084 409.506648 
L 696.58605 411.291301 
L 697.7637 411.291957 
L 698.94135 412.184968 
L 700.119 412.184775 
L 701.29665 412.630386 
L 702.4743 412.630201 
L 703.65195 415.18984 
L 707.1849 415.096248 
L 708.36255 417.377866 
L 709.5402 417.379582 
L 710.71785 417.755813 
L 711.8955 417.756379 
L 713.07315 419.481175 
L 714.2508 419.481113 
L 715.42845 421.185821 
L 716.6061 421.185571 
L 717.78375 422.175056 
L 718.9614 422.174961 
L 720.13905 424.564026 
L 721.3167 424.564292 
L 722.49435 424.418216 
L 723.672 424.418285 
L 724.84965 427.125399 
L 726.0273 427.12344 
L 727.20495 427.479095 
L 728.3826 427.478858 
L 729.56025 429.294942 
L 730.7379 429.295262 
L 731.91555 430.781025 
L 733.0932 430.781274 
L 734.27085 431.561459 
L 735.4485 431.561983 
L 736.62615 433.513193 
L 740.1591 433.421498 
L 741.33675 436.178483 
L 742.5144 436.178996 
L 743.69205 436.642148 
L 744.8697 436.642202 
L 746.04735 437.824516 
L 747.225 437.824775 
L 748.40265 439.220865 
L 749.5803 439.220819 
L 750.75795 439.64696 
L 751.9356 439.646698 
L 753.11325 441.798219 
L 756.6462 441.750766 
L 757.82385 444.253017 
L 759.0015 444.251153 
L 760.17915 444.756926 
L 761.3568 444.756886 
L 762.53445 446.161469 
L 763.7121 446.161275 
L 764.88975 447.478622 
L 766.0674 447.478081 
L 767.24505 448.275838 
L 768.4227 448.276353 
L 769.60035 451.183776 
L 773.1333 451.116481 
L 774.31095 453.462941 
L 775.4886 453.463144 
L 776.66625 453.994404 
L 777.8439 453.994374 
L 779.02155 455.53371 
L 780.1992 455.533461 
L 781.37685 456.655428 
L 782.5545 456.654172 
L 783.73215 457.275831 
L 784.9098 457.27656 
L 786.08745 459.703852 
L 789.6204 459.686432 
L 790.79805 462.436398 
L 791.9757 462.435354 
L 793.15335 463.178279 
L 794.331 463.178299 
L 795.50865 464.665556 
L 796.6863 464.66554 
L 797.86395 465.96873 
L 799.0416 465.968785 
L 800.21925 466.459346 
L 801.3969 466.459428 
L 802.57455 469.150603 
L 806.1075 469.100165 
L 807.28515 471.600692 
L 808.4628 471.600637 
L 809.64045 472.158586 
L 810.8181 472.158601 
L 811.99575 473.74502 
L 813.1734 473.746277 
L 814.35105 475.012605 
L 815.5287 475.012701 
L 816.70635 475.779599 
L 817.884 475.779927 
L 819.06165 478.379971 
L 822.5946 478.34391 
L 823.77225 480.86888 
L 824.9499 480.868402 
L 826.12755 481.434239 
L 827.3052 481.434917 
L 828.48285 483.103268 
L 829.6605 483.10361 
L 830.83815 484.603493 
L 832.0158 484.603634 
L 833.19345 485.349667 
L 834.3711 485.350101 
L 835.54875 487.726208 
L 839.0817 487.709885 
L 840.25935 489.76466 
L 841.437 489.958956 
L 843.7923 489.953147 
L 844.96995 492.184918 
L 846.1476 492.615038 
L 848.5029 492.615931 
L 849.68055 494.923717 
L 850.8582 494.769952 
L 852.03585 495.291856 
L 853.2135 495.292187 
L 854.39115 497.162856 
L 855.5688 497.182473 
L 856.74645 498.090814 
L 857.9241 498.100049 
L 859.10175 499.758488 
L 860.2794 499.772429 
L 861.45705 500.471905 
L 862.6347 500.475428 
L 863.81235 502.14567 
L 864.99 502.147779 
L 866.16765 503.06578 
L 867.3453 503.063156 
L 868.52295 504.773609 
L 869.7006 504.774117 
L 870.87825 505.721628 
L 872.0559 505.722679 
L 873.23355 507.369498 
L 874.4112 507.368942 
L 875.58885 508.290442 
L 876.7665 508.288253 
L 877.94415 510.227391 
L 879.1218 510.227864 
L 880.29945 511.23418 
L 881.4771 511.227833 
L 882.65475 512.750604 
L 883.8324 512.748908 
L 885.01005 513.862545 
L 886.1877 513.866034 
L 887.36535 514.989153 
L 888.543 514.990326 
L 889.72065 516.010258 
L 890.8983 516.00904 
L 892.07595 517.448811 
L 893.2536 517.448337 
L 894.43125 518.350257 
L 895.6089 518.356653 
L 896.78655 520.110848 
L 897.9642 520.109184 
L 899.14185 521.283033 
L 900.3195 521.280201 
L 901.49715 522.700265 
L 902.6748 522.697688 
L 903.85245 523.895012 
L 905.0301 523.897992 
L 906.20775 525.641079 
L 907.3854 525.638203 
L 908.56305 526.723201 
L 909.7407 526.725926 
L 910.91835 528.377584 
L 912.096 528.379672 
L 913.27365 529.484795 
L 914.4513 529.483452 
L 915.62895 530.73893 
L 916.8066 530.737538 
L 917.98425 531.824263 
L 919.1619 531.831263 
L 920.33955 533.579491 
L 921.5172 533.578695 
L 922.69485 534.895797 
L 923.8725 534.89968 
L 925.05015 536.454585 
L 926.2278 536.453332 
L 927.40545 537.496439 
L 928.5831 537.501553 
L 929.76075 539.107668 
L 930.9384 539.106009 
L 932.11605 540.022414 
L 933.2937 540.025174 
L 934.47135 541.514759 
L 935.649 541.513156 
L 936.82665 542.691533 
L 938.0043 542.691881 
L 939.18195 544.135879 
L 940.3596 544.139713 
L 941.53725 544.951036 
L 942.7149 544.949738 
L 943.89255 546.400584 
L 945.0702 546.401075 
L 946.24785 547.47614 
L 947.4255 547.478042 
L 948.60315 548.999717 
L 949.7808 549.008058 
L 950.95845 550.035762 
L 952.1361 550.03396 
L 953.31375 551.778433 
L 954.4914 551.774254 
L 955.66905 552.668332 
L 956.8467 552.668228 
L 958.02435 554.133789 
L 959.202 554.131898 
L 960.37965 555.142057 
L 961.5573 555.142432 
L 962.73495 556.683665 
L 963.9126 556.691445 
L 965.09025 557.597519 
L 966.2679 557.597695 
L 967.44555 559.22307 
L 968.6232 559.216879 
L 969.80085 560.356337 
L 970.9785 560.357385 
L 972.15615 562.105088 
L 973.3338 562.114897 
L 974.51145 563.276442 
L 975.6891 563.275335 
L 976.86675 565.228437 
L 978.0444 565.233703 
L 979.22205 566.393446 
L 980.3997 566.394322 
L 981.57735 567.884233 
L 982.755 567.883712 
L 983.93265 568.918685 
L 985.1103 568.918595 
L 986.28795 570.277367 
L 987.4656 570.274642 
L 988.64325 571.307584 
L 989.8209 571.31131 
L 990.99855 572.61931 
L 992.1762 572.61838 
L 993.35385 573.232333 
L 994.5315 573.233433 
L 995.70915 574.741416 
L 996.8868 574.742108 
L 998.06445 575.922096 
L 999.2421 575.923905 
L 1000.41975 577.665907 
L 1001.5974 577.666213 
L 1002.77505 578.783896 
L 1003.9527 578.784792 
L 1005.13035 580.408509 
L 1006.308 580.408566 
L 1007.48565 581.337432 
L 1008.6633 581.33856 
L 1009.84095 582.92156 
L 1011.0186 582.920512 
L 1012.19625 583.882396 
L 1013.3739 583.878346 
L 1014.55155 585.231948 
L 1015.7292 585.233663 
L 1016.90685 586.285905 
L 1018.0845 586.285694 
L 1019.26215 587.934028 
L 1020.4398 587.942437 
L 1021.61745 588.939102 
L 1022.7951 588.939056 
L 1023.97275 590.566337 
L 1025.1504 590.576474 
L 1026.32805 591.410146 
L 1027.5057 591.408427 
L 1028.68335 592.838822 
L 1029.861 592.838782 
L 1031.03865 593.731572 
L 1032.2163 593.730572 
L 1033.39395 595.222554 
L 1034.5716 595.221655 
L 1035.74925 596.164949 
L 1036.9269 596.166537 
L 1038.10455 598.095194 
L 1039.2822 598.097088 
L 1040.45985 599.240856 
L 1041.6375 599.242229 
L 1042.81515 600.695153 
L 1043.9928 600.689207 
L 1045.17045 601.744818 
L 1046.3481 601.742727 
L 1047.52575 603.565318 
L 1048.7034 603.565638 
L 1049.88105 604.486288 
L 1051.0587 604.48484 
L 1052.23635 605.972842 
L 1053.414 605.967683 
L 1054.59165 606.914574 
L 1055.7693 606.914944 
L 1056.94695 608.406937 
L 1058.1246 608.401198 
L 1059.30225 609.530515 
L 1060.4799 609.531686 
L 1061.65755 611.254754 
L 1062.8352 611.246249 
L 1064.01285 612.144075 
L 1065.1905 612.144148 
L 1066.36815 613.816489 
L 1067.5458 613.814346 
L 1068.72345 614.74123 
L 1069.9011 614.745887 
L 1071.07875 616.367518 
L 1072.2564 616.365937 
L 1073.43405 617.43439 
L 1074.6117 617.434004 
L 1075.78935 618.859146 
L 1076.967 618.854642 
L 1078.14465 620.245366 
L 1079.3223 620.249262 
L 1080.49995 622.005202 
L 1081.6776 622.005975 
L 1082.85525 623.065835 
L 1084.0329 623.065495 
L 1085.21055 624.404513 
L 1086.3882 624.404326 
L 1087.56585 625.458437 
L 1088.7435 625.460069 
L 1089.92115 627.198213 
L 1091.0988 627.198505 
L 1092.27645 628.390116 
L 1093.4541 628.391564 
L 1094.63175 629.707027 
L 1095.8094 629.703542 
L 1096.98705 630.523171 
L 1098.1647 630.524376 
L 1099.34235 631.983939 
L 1100.52 631.98939 
L 1101.69765 632.870349 
L 1102.8753 632.869941 
L 1104.05295 634.38735 
L 1105.2306 634.388042 
L 1106.40825 635.600752 
L 1107.5859 635.598439 
L 1108.76355 637.324685 
L 1109.9412 637.328071 
L 1111.11885 638.108134 
L 1112.2965 638.109249 
L 1113.47415 639.381061 
L 1114.6518 639.384676 
L 1115.82945 640.509124 
L 1117.0071 640.506122 
L 1118.18475 641.803041 
L 1119.3624 641.81035 
L 1120.54005 642.841165 
L 1121.7177 642.8383 
L 1122.89535 644.464813 
L 1124.073 644.475072 
L 1125.25065 645.651871 
L 1126.4283 645.650207 
L 1127.60595 646.89954 
L 1128.7836 646.900666 
L 1129.96125 647.892975 
L 1131.1389 647.893178 
L 1132.31655 649.292111 
L 1133.4942 649.292849 
L 1134.67185 650.336226 
L 1135.8495 650.333473 
L 1137.02715 651.519265 
L 1138.2048 651.516674 
L 1139.38245 652.57928 
L 1140.5601 652.58085 
L 1141.73775 654.113653 
L 1142.9154 654.110197 
L 1144.09305 655.047184 
L 1145.2707 655.044137 
L 1146.44835 656.292428 
L 1147.626 656.298597 
L 1148.80365 657.418363 
L 1149.9813 657.42175 
L 1151.15895 659.048946 
L 1152.3366 659.052782 
L 1153.51425 660.093688 
L 1154.6919 660.093243 
L 1155.86955 661.455991 
L 1157.0472 661.456777 
L 1158.22485 662.311397 
L 1159.4025 662.309359 
L 1160.58015 663.384477 
L 1161.7578 663.38887 
L 1162.93545 664.41277 
L 1164.1131 664.415186 
L 1165.29075 665.820946 
L 1166.4684 665.819815 
L 1167.64605 666.821648 
L 1168.8237 666.818358 
L 1170.00135 667.929473 
L 1171.179 667.930153 
L 1172.35665 668.788142 
L 1173.5343 668.797456 
L 1174.71195 670.055744 
L 1175.8896 670.045556 
L 1177.06725 671.184732 
L 1178.2449 671.183044 
L 1179.42255 672.233072 
L 1180.6002 672.233558 
L 1181.77785 673.206087 
L 1182.9555 673.207908 
L 1184.13315 674.462974 
L 1185.3108 674.459718 
L 1186.48845 675.599136 
L 1187.6661 675.597776 
L 1188.84375 676.784226 
L 1190.0214 676.783168 
L 1191.19905 677.881939 
L 1192.3767 677.886036 
L 1193.55435 678.458578 
L 1194.732 678.466029 
L 1195.90965 678.860848 
L 1197.0873 678.855159 
L 1198.26495 679.657826 
L 1199.4426 679.672689 
L 1200.62025 680.334623 
L 1201.7979 680.327554 
L 1202.97555 681.381923 
L 1204.1532 681.372996 
L 1205.33085 681.718488 
L 1206.5085 681.707339 
L 1207.68615 681.950557 
L 1208.8638 681.950787 
L 1210.04145 682.6963 
L 1211.2191 682.702157 
L 1212.39675 683.375447 
L 1215.9297 683.305351 
L 1217.10735 683.666253 
L 1218.285 683.655722 
L 1219.46265 684.120634 
L 1220.6403 684.11898 
L 1221.81795 684.75172 
L 1222.9956 684.757142 
L 1224.17325 685.269387 
L 1227.7062 685.345082 
L 1228.88385 685.655615 
L 1230.0615 685.645566 
L 1231.23915 685.80576 
L 1232.4168 685.8089 
L 1233.59445 686.030421 
L 1234.7721 686.029817 
L 1235.94975 686.29354 
L 1237.1274 686.287798 
L 1238.30505 686.778031 
L 1241.838 686.894942 
L 1244.1933 686.924133 
L 1245.37095 687.62388 
L 1253.6145 687.79192 
L 1254.79215 688.00806 
L 1255.9698 687.990965 
L 1257.14745 688.26818 
L 1258.3251 688.277251 
L 1259.50275 688.16034 
L 1260.6804 688.157241 
L 1261.85805 687.729121 
L 1265.391 687.69669 
L 1266.56865 687.909994 
L 1267.7463 687.892194 
L 1268.92395 688.537278 
L 1272.4569 688.504342 
L 1273.63455 688.867682 
L 1274.8122 688.858898 
L 1275.98985 688.402119 
L 1279.5228 688.448789 
L 1280.70045 688.230074 
L 1281.8781 688.232851 
L 1283.05575 687.886757 
L 1291.2993 688.094084 
L 1293.6546 688.162635 
L 1294.83225 688.519509 
L 1297.18755 688.526834 
L 1298.3652 688.676813 
L 1300.7205 688.652939 
L 1303.0758 688.877569 
L 1304.25345 688.874809 
L 1305.4311 688.312358 
L 1307.7864 688.311599 
L 1308.96405 688.070094 
L 1311.31935 688.069684 
L 1312.497 688.511431 
L 1318.38525 688.478083 
L 1319.5629 688.182692 
L 1321.9182 688.183607 
L 1323.09585 688.364834 
L 1324.2735 688.364429 
L 1325.45115 688.652305 
L 1328.9841 688.666154 
L 1330.16175 688.505897 
L 1331.3394 688.504012 
L 1332.51705 689.012883 
L 1333.6947 689.013424 
L 1336.05 689.297241 
L 1336.05 689.297241 
" style="fill:none;stroke:#0000ff;stroke-linecap:square;stroke-width:2.0;"/>
   </g>
   <g id="line2d_2">
    <path clip-path="url(#p9e4b8fab7c)" d="M 159.57765 101.363302 
L 160.7553 102.732295 
L 161.93295 102.748938 
L 163.1106 104.982636 
L 164.28825 105.279614 
L 165.4659 105.290547 
L 166.64355 108.078857 
L 167.8212 108.651617 
L 168.99885 108.652601 
L 170.1765 108.429073 
L 171.35415 111.419616 
L 172.5318 111.752783 
L 174.8871 111.757236 
L 176.06475 114.117251 
L 177.2424 114.508654 
L 179.5977 114.507448 
L 180.77535 117.27411 
L 181.953 117.913828 
L 184.3083 117.914555 
L 185.48595 119.899763 
L 186.6636 120.551412 
L 189.0189 120.554884 
L 190.19655 122.740209 
L 191.3742 123.396147 
L 193.7295 123.399098 
L 194.90715 124.903053 
L 196.0848 125.867507 
L 198.4401 125.868252 
L 199.61775 127.630087 
L 200.7954 128.738059 
L 203.1507 128.738117 
L 204.32835 130.191854 
L 205.506 131.437892 
L 207.8613 131.439733 
L 210.2166 133.951178 
L 212.5719 133.951 
L 213.74955 134.863488 
L 214.9272 136.701017 
L 217.2825 136.712595 
L 218.46015 137.665563 
L 219.6378 139.471124 
L 221.9931 139.473624 
L 223.17075 140.041767 
L 224.3484 141.668768 
L 226.7037 141.668254 
L 227.88135 142.4488 
L 229.059 144.509351 
L 231.4143 144.503539 
L 232.59195 145.468678 
L 233.7696 147.599259 
L 236.1249 147.598963 
L 237.30255 148.551025 
L 238.4802 150.519848 
L 240.8355 150.519966 
L 242.01315 151.091664 
L 243.1908 153.390487 
L 245.5461 153.391859 
L 246.72375 153.840476 
L 247.9014 155.689527 
L 250.2567 155.656284 
L 251.43435 156.136486 
L 252.612 158.163286 
L 254.9673 158.19419 
L 256.14495 158.724245 
L 257.3226 160.8408 
L 259.6779 160.870674 
L 260.85555 161.239828 
L 262.0332 163.273925 
L 264.3885 163.304961 
L 265.56615 163.749725 
L 266.7438 166.275924 
L 269.0991 166.37726 
L 270.27675 166.831869 
L 271.4544 168.829347 
L 273.8097 168.904487 
L 274.98735 169.301465 
L 276.165 171.085632 
L 277.34265 171.432198 
L 278.5203 171.451343 
L 279.69795 171.930413 
L 280.8756 173.426693 
L 283.2309 173.53323 
L 284.40855 173.879172 
L 285.5862 175.875292 
L 286.76385 176.243741 
L 287.9415 176.328604 
L 289.11915 176.731774 
L 290.2968 178.344253 
L 291.47445 179.091541 
L 292.6521 179.144313 
L 293.82975 179.615422 
L 295.0074 181.244957 
L 296.18505 181.978255 
L 297.3627 182.005464 
L 298.54035 182.293303 
L 299.718 184.078903 
L 300.89565 184.971316 
L 302.0733 185.055545 
L 303.25095 185.366821 
L 304.4286 186.848734 
L 305.60625 187.496414 
L 306.7839 187.695852 
L 307.96155 188.009151 
L 309.1392 189.185334 
L 310.31685 189.83541 
L 312.67215 190.308475 
L 313.8498 191.663514 
L 315.02745 192.339674 
L 316.2051 192.783575 
L 317.38275 192.914378 
L 318.5604 194.235515 
L 319.73805 194.812053 
L 320.9157 195.673006 
L 322.09335 195.787037 
L 323.271 196.87474 
L 324.44865 197.490778 
L 325.6263 198.332735 
L 326.80395 198.364376 
L 327.9816 199.332832 
L 329.15925 199.924793 
L 330.3369 200.817333 
L 331.51455 200.816918 
L 332.6922 201.760159 
L 333.86985 202.378261 
L 335.0475 203.351666 
L 336.22515 203.360846 
L 339.7581 206.370489 
L 340.93575 206.375584 
L 342.1134 207.21452 
L 343.29105 207.724351 
L 344.4687 208.915153 
L 345.64635 208.943207 
L 346.824 209.916235 
L 348.00165 210.611228 
L 349.1793 211.814803 
L 350.35695 211.808095 
L 351.5346 212.455573 
L 352.71225 213.243998 
L 353.8899 214.335576 
L 355.06755 214.356442 
L 356.2452 214.743168 
L 358.6005 216.699347 
L 359.77815 216.70278 
L 360.9558 217.21655 
L 362.13345 218.179428 
L 363.3111 219.673098 
L 364.48875 219.647174 
L 365.6664 220.159571 
L 368.0217 222.105153 
L 369.19935 222.08716 
L 370.377 222.416485 
L 371.55465 223.377062 
L 372.7323 224.667636 
L 373.90995 224.703893 
L 375.0876 225.018483 
L 377.4429 227.60247 
L 378.62055 227.689793 
L 379.7982 227.929072 
L 380.97585 228.86066 
L 382.1535 229.997526 
L 383.33115 230.088004 
L 384.5088 230.308223 
L 385.68645 231.544562 
L 386.8641 233.033067 
L 388.04175 233.143327 
L 389.2194 233.382395 
L 390.39705 234.649767 
L 391.5747 236.328305 
L 393.93 236.568593 
L 395.10765 237.578689 
L 396.2853 238.804141 
L 397.46295 239.050034 
L 398.6406 239.037193 
L 399.81825 240.086759 
L 400.9959 241.422787 
L 402.17355 241.659106 
L 403.3512 241.669172 
L 405.7065 244.394824 
L 406.88415 244.746599 
L 408.0618 244.75132 
L 409.23945 245.57304 
L 410.4171 246.767962 
L 411.59475 247.07914 
L 412.7724 247.1207 
L 413.95005 248.15439 
L 415.1277 249.354268 
L 416.30535 249.632063 
L 417.483 249.674648 
L 418.66065 250.639634 
L 419.8383 252.199815 
L 421.01595 252.368978 
L 422.1936 252.404391 
L 423.37125 253.116279 
L 424.5489 254.55032 
L 426.9042 254.713515 
L 428.08185 255.696575 
L 429.2595 257.315295 
L 431.6148 257.370359 
L 432.79245 258.138454 
L 433.9701 259.811857 
L 436.3254 259.844554 
L 437.50305 260.661387 
L 438.6807 262.067792 
L 441.036 262.169823 
L 442.21365 262.844874 
L 443.3913 264.746536 
L 445.7466 264.810215 
L 446.92425 265.474834 
L 448.1019 267.12682 
L 450.4572 267.247889 
L 451.63485 268.072804 
L 452.8125 269.850281 
L 455.1678 269.975836 
L 456.34545 270.574015 
L 457.5231 272.109216 
L 459.8784 272.164199 
L 461.05605 273.01898 
L 462.2337 274.963648 
L 464.589 275.030795 
L 465.76665 275.74191 
L 466.9443 277.533045 
L 469.2996 277.609961 
L 470.47725 278.090107 
L 471.6549 279.592732 
L 474.0102 279.689735 
L 475.18785 280.188197 
L 476.3655 282.200827 
L 478.7208 282.218334 
L 479.89845 282.745431 
L 481.0761 284.453073 
L 483.4314 284.451692 
L 484.60905 285.334407 
L 485.7867 287.326132 
L 488.142 287.330618 
L 489.31965 288.025749 
L 490.4973 290.310299 
L 492.8526 290.338683 
L 494.03025 290.834148 
L 495.2079 292.815229 
L 497.5632 292.80673 
L 498.74085 293.376915 
L 499.9185 295.20541 
L 502.2738 295.223207 
L 503.45145 295.875185 
L 504.6291 297.888075 
L 506.9844 297.897688 
L 508.16205 298.398119 
L 509.3397 300.779892 
L 511.695 300.78145 
L 512.87265 301.227628 
L 514.0503 303.487798 
L 516.4056 303.48565 
L 517.58325 303.805869 
L 518.7609 305.738114 
L 521.1162 305.741901 
L 522.29385 305.971539 
L 523.4715 308.463888 
L 527.00445 308.585004 
L 528.1821 311.30915 
L 531.71505 311.332582 
L 532.8927 313.82061 
L 536.42565 313.816985 
L 537.6033 315.787993 
L 541.13625 315.787129 
L 542.3139 318.633342 
L 545.84685 318.631059 
L 547.0245 321.063512 
L 550.55745 321.064395 
L 551.7351 323.612634 
L 555.26805 323.614159 
L 556.4457 326.404476 
L 559.97865 326.402989 
L 561.1563 328.520554 
L 564.68925 328.522114 
L 565.8669 330.91001 
L 569.39985 330.909883 
L 570.5775 333.909966 
L 574.11045 333.914205 
L 575.2881 336.539037 
L 578.82105 336.538479 
L 579.9987 338.977228 
L 583.53165 338.976498 
L 584.7093 341.252913 
L 588.24225 341.254186 
L 589.4199 343.41556 
L 592.95285 343.415525 
L 594.1305 345.418462 
L 597.66345 345.422849 
L 598.8411 347.997438 
L 602.37405 347.997291 
L 603.5517 350.872618 
L 607.08465 350.87243 
L 608.2623 353.235893 
L 611.79525 353.245965 
L 612.9729 355.561136 
L 616.50585 355.560993 
L 617.6835 358.223831 
L 621.21645 358.222435 
L 622.3941 360.946178 
L 625.92705 360.946246 
L 627.1047 364.059389 
L 630.63765 364.059396 
L 631.8153 366.484663 
L 635.34825 366.483555 
L 636.5259 369.07115 
L 640.05885 369.073398 
L 641.2365 371.655955 
L 644.76945 371.656607 
L 645.9471 374.55318 
L 649.48005 374.55302 
L 650.6577 376.825965 
L 654.19065 376.824534 
L 655.3683 379.550748 
L 658.90125 379.550912 
L 660.0789 382.158622 
L 663.61185 382.159632 
L 664.7895 385.16845 
L 668.32245 385.168982 
L 669.5001 387.881708 
L 673.03305 387.883494 
L 674.2107 390.489802 
L 677.74365 390.489905 
L 678.9213 392.911417 
L 682.45425 392.911792 
L 683.6319 395.789252 
L 687.16485 395.789541 
L 688.3425 398.186421 
L 691.87545 398.189296 
L 693.0531 400.677233 
L 696.58605 400.678118 
L 697.7637 403.523077 
L 701.29665 403.524347 
L 702.4743 406.563397 
L 706.00725 406.563542 
L 707.1849 409.272797 
L 710.71785 409.271995 
L 711.8955 412.485238 
L 715.42845 412.486204 
L 716.6061 415.244667 
L 720.13905 415.243741 
L 721.3167 417.76429 
L 724.84965 417.773767 
L 726.0273 420.572677 
L 729.56025 420.555677 
L 730.7379 423.206287 
L 734.27085 423.206502 
L 735.4485 425.863726 
L 738.98145 425.862772 
L 740.1591 428.299109 
L 743.69205 428.29358 
L 744.8697 430.764916 
L 748.40265 430.764924 
L 749.5803 433.348975 
L 753.11325 433.349246 
L 754.2909 435.953033 
L 757.82385 435.95272 
L 759.0015 438.717754 
L 762.53445 438.718254 
L 763.7121 441.587896 
L 767.24505 441.589418 
L 768.4227 444.246003 
L 771.95565 444.247722 
L 773.1333 446.599353 
L 776.66625 446.60199 
L 777.8439 449.386393 
L 781.37685 449.386256 
L 782.5545 451.976698 
L 786.08745 451.978093 
L 787.2651 454.337046 
L 790.79805 454.338374 
L 791.9757 456.738647 
L 795.50865 456.738158 
L 796.6863 459.485952 
L 800.21925 459.486731 
L 801.3969 462.145662 
L 804.92985 462.154276 
L 806.1075 464.504755 
L 809.64045 464.502463 
L 810.8181 467.413846 
L 814.35105 467.412149 
L 815.5287 469.864132 
L 819.06165 469.863942 
L 820.2393 471.887674 
L 823.77225 471.88975 
L 824.9499 474.828278 
L 828.48285 474.829335 
L 829.6605 477.580842 
L 830.83815 477.579494 
L 832.0158 478.001856 
L 833.19345 478.001615 
L 834.3711 479.947801 
L 835.54875 479.948308 
L 836.7264 481.13929 
L 837.90405 481.139201 
L 839.0817 481.905833 
L 840.25935 481.905587 
L 841.437 484.253711 
L 842.61465 484.253907 
L 843.7923 483.988845 
L 844.96995 483.98918 
L 846.1476 486.997641 
L 847.32525 486.997521 
L 848.5029 487.28701 
L 849.68055 487.287587 
L 850.8582 488.98137 
L 852.03585 488.981711 
L 853.2135 490.211226 
L 854.39115 490.211503 
L 855.5688 491.050388 
L 856.74645 491.048722 
L 857.9241 493.556372 
L 859.10175 493.556545 
L 860.2794 493.391544 
L 861.45705 493.397502 
L 862.6347 496.157101 
L 863.81235 496.15355 
L 864.99 496.616728 
L 866.16765 496.678696 
L 867.3453 498.193611 
L 868.52295 498.207158 
L 869.7006 499.774436 
L 870.87825 499.844202 
L 872.0559 500.381981 
L 873.23355 500.37792 
L 874.4112 502.90752 
L 875.58885 502.907513 
L 876.7665 503.043872 
L 877.94415 503.061968 
L 879.1218 505.128238 
L 880.29945 505.129562 
L 881.4771 506.248885 
L 882.65475 506.249035 
L 883.8324 507.488841 
L 885.01005 507.484206 
L 886.1877 509.550463 
L 887.36535 509.550524 
L 888.543 510.098982 
L 889.72065 510.099573 
L 890.8983 512.310706 
L 892.07595 512.311618 
L 893.2536 512.444435 
L 894.43125 512.446081 
L 895.6089 514.289225 
L 896.78655 514.313536 
L 897.9642 515.218671 
L 899.14185 515.218317 
L 900.3195 516.452493 
L 901.49715 516.447911 
L 902.6748 518.446108 
L 903.85245 518.446663 
L 905.0301 518.811384 
L 906.20775 518.810426 
L 907.3854 521.635228 
L 908.56305 521.635372 
L 909.7407 521.800022 
L 910.91835 521.800202 
L 912.096 523.530521 
L 913.27365 523.529821 
L 914.4513 524.160269 
L 915.62895 524.194939 
L 916.8066 525.022665 
L 917.98425 525.019314 
L 919.1619 527.375709 
L 920.33955 527.375667 
L 921.5172 527.130151 
L 922.69485 527.171198 
L 923.8725 529.949516 
L 925.05015 529.947919 
L 926.2278 530.197875 
L 927.40545 530.199309 
L 928.5831 531.951984 
L 929.76075 531.952288 
L 930.9384 533.205277 
L 932.11605 533.205551 
L 933.2937 534.108788 
L 934.47135 534.113992 
L 935.649 536.507368 
L 939.18195 536.428132 
L 940.3596 538.830547 
L 941.53725 538.835184 
L 942.7149 539.261322 
L 943.89255 539.261427 
L 945.0702 540.846138 
L 946.24785 540.846727 
L 947.4255 542.313175 
L 948.60315 542.313306 
L 949.7808 543.028398 
L 950.95845 543.027829 
L 952.1361 545.495045 
L 953.31375 545.495174 
L 954.4914 545.27703 
L 955.66905 545.278034 
L 956.8467 547.601606 
L 958.02435 547.594335 
L 959.202 548.053971 
L 960.37965 548.053885 
L 961.5573 549.86169 
L 962.73495 549.858075 
L 963.9126 550.871364 
L 965.09025 550.872885 
L 966.2679 551.397563 
L 967.44555 551.399302 
L 968.6232 554.4307 
L 972.15615 554.477512 
L 973.3338 556.564312 
L 974.51145 556.563221 
L 975.6891 556.966448 
L 976.86675 556.989879 
L 978.0444 558.377576 
L 979.22205 558.375344 
L 980.3997 559.798512 
L 981.57735 559.798557 
L 982.755 560.58257 
L 983.93265 560.583354 
L 985.1103 563.390937 
L 988.64325 563.310021 
L 989.8209 565.688213 
L 990.99855 565.691764 
L 992.1762 566.174731 
L 993.35385 566.175076 
L 994.5315 567.900871 
L 995.70915 567.901142 
L 996.8868 569.399973 
L 998.06445 569.399786 
L 999.2421 570.028997 
L 1000.41975 570.023476 
L 1001.5974 572.558192 
L 1005.13035 572.562799 
L 1006.308 575.116726 
L 1007.48565 575.125524 
L 1008.6633 575.653678 
L 1009.84095 575.653868 
L 1011.0186 577.089578 
L 1012.19625 577.091411 
L 1013.3739 578.723566 
L 1014.55155 578.725996 
L 1015.7292 579.62332 
L 1016.90685 579.698841 
L 1018.0845 582.314179 
L 1021.61745 582.327509 
L 1022.7951 584.315536 
L 1023.97275 584.397015 
L 1025.1504 585.055173 
L 1026.32805 585.057016 
L 1027.5057 586.352247 
L 1028.68335 586.408569 
L 1029.861 588.108551 
L 1031.03865 588.109261 
L 1032.2163 588.589796 
L 1033.39395 588.614956 
L 1034.5716 591.000062 
L 1035.74925 591.006017 
L 1036.9269 591.194108 
L 1038.10455 591.196629 
L 1039.2822 593.3338 
L 1040.45985 593.45308 
L 1041.6375 594.376533 
L 1042.81515 594.376485 
L 1043.9928 595.778982 
L 1045.17045 595.93501 
L 1046.3481 598.268973 
L 1047.52575 598.269782 
L 1048.7034 598.625555 
L 1049.88105 598.626193 
L 1051.0587 601.262194 
L 1052.23635 601.27794 
L 1053.414 601.567642 
L 1054.59165 601.567572 
L 1055.7693 603.297784 
L 1056.94695 603.385454 
L 1058.1246 604.300539 
L 1059.30225 604.300902 
L 1060.4799 605.054452 
L 1061.65755 605.154414 
L 1062.8352 607.0504 
L 1064.01285 607.308049 
L 1065.1905 607.046941 
L 1066.36815 607.350173 
L 1067.5458 610.019848 
L 1071.07875 610.104224 
L 1072.2564 612.526585 
L 1075.78935 612.58485 
L 1076.967 615.232991 
L 1078.14465 615.419224 
L 1080.49995 615.425394 
L 1081.6776 617.47534 
L 1082.85525 617.824231 
L 1085.21055 617.8209 
L 1086.3882 620.821775 
L 1087.56585 621.152625 
L 1089.92115 621.15061 
L 1091.0988 623.475493 
L 1092.27645 623.794402 
L 1094.63175 623.792523 
L 1095.8094 626.149425 
L 1096.98705 626.457126 
L 1099.34235 626.461227 
L 1100.52 628.329397 
L 1101.69765 628.954118 
L 1104.05295 628.953726 
L 1105.2306 631.236112 
L 1106.40825 631.746821 
L 1108.76355 631.742453 
L 1109.9412 633.497958 
L 1111.11885 634.091362 
L 1113.47415 634.096105 
L 1114.6518 636.045485 
L 1115.82945 636.730118 
L 1118.18475 636.734025 
L 1119.3624 638.687435 
L 1120.54005 639.412448 
L 1122.89535 639.410706 
L 1124.073 641.626837 
L 1125.25065 642.449828 
L 1127.60595 642.45172 
L 1128.7836 644.019315 
L 1129.96125 644.868248 
L 1132.31655 644.863112 
L 1133.4942 646.649434 
L 1134.67185 647.360641 
L 1137.02715 647.363213 
L 1138.2048 648.816063 
L 1139.38245 649.594449 
L 1141.73775 649.59089 
L 1142.9154 651.226622 
L 1144.09305 652.06075 
L 1146.44835 652.067414 
L 1147.626 653.404362 
L 1148.80365 654.363751 
L 1151.15895 654.386075 
L 1152.3366 655.990227 
L 1153.51425 657.274068 
L 1155.86955 657.262093 
L 1157.0472 658.879748 
L 1158.22485 660.092 
L 1160.58015 660.110136 
L 1162.93545 662.535603 
L 1165.29075 662.53144 
L 1167.64605 665.183117 
L 1170.00135 665.188276 
L 1171.179 666.140009 
L 1172.35665 667.437219 
L 1174.71195 667.439628 
L 1175.8896 668.838104 
L 1177.06725 670.012056 
L 1179.42255 670.019402 
L 1181.77785 672.054875 
L 1184.13315 672.04851 
L 1185.3108 672.869771 
L 1186.48845 673.918297 
L 1188.84375 673.921579 
L 1190.0214 674.478779 
L 1191.19905 675.439342 
L 1193.55435 675.445542 
L 1194.732 676.111138 
L 1195.90965 677.570585 
L 1198.26495 677.548288 
L 1199.4426 677.965881 
L 1200.62025 678.963564 
L 1202.97555 678.969153 
L 1204.1532 679.340514 
L 1205.33085 680.266358 
L 1207.68615 680.265661 
L 1208.8638 680.629123 
L 1210.04145 681.597539 
L 1212.39675 681.592424 
L 1213.5744 681.920131 
L 1214.75205 682.765494 
L 1217.10735 682.757628 
L 1219.46265 683.502228 
L 1221.81795 683.533405 
L 1222.9956 683.709829 
L 1224.17325 684.446235 
L 1226.52855 684.439146 
L 1227.7062 684.691895 
L 1228.88385 685.27611 
L 1232.4168 685.354358 
L 1233.59445 685.678784 
L 1237.1274 685.766577 
L 1238.30505 686.304878 
L 1241.838 686.309568 
L 1243.01565 686.861379 
L 1246.5486 686.960113 
L 1247.72625 687.674159 
L 1251.2592 687.670716 
L 1252.43685 688.053908 
L 1255.9698 688.159998 
L 1257.14745 687.972637 
L 1261.85805 688.093904 
L 1265.391 688.152486 
L 1266.56865 687.786863 
L 1274.8122 687.84285 
L 1275.98985 687.515473 
L 1279.5228 687.529764 
L 1280.70045 687.900921 
L 1284.2334 687.89752 
L 1285.41105 687.605561 
L 1288.944 687.610345 
L 1290.12165 688.023779 
L 1293.6546 688.026446 
L 1296.0099 688.123638 
L 1298.3652 688.129822 
L 1299.54285 688.385128 
L 1305.4311 688.425147 
L 1306.60875 688.217074 
L 1310.1417 688.192462 
L 1311.31935 687.951877 
L 1314.8523 687.935991 
L 1316.02995 688.255668 
L 1318.38525 688.370518 
L 1321.9182 688.273153 
L 1323.09585 688.578592 
L 1324.2735 688.592272 
L 1326.6288 688.30809 
L 1327.80645 688.172174 
L 1328.9841 688.213277 
L 1330.16175 688.000867 
L 1333.6947 687.821021 
L 1334.87235 687.633445 
L 1336.05 687.758248 
L 1336.05 687.758248 
" style="fill:none;stroke:#008000;stroke-linecap:square;stroke-width:2.0;"/>
   </g>
   <g id="patch_3">
    <path d="M 158.4 51.3 
L 1336.05 51.3 
" style="fill:none;stroke:#000000;stroke-linecap:square;stroke-linejoin:miter;"/>
   </g>
   <g id="patch_4">
    <path d="M 1336.05 747 
L 1336.05 51.3 
" style="fill:none;stroke:#000000;stroke-linecap:square;stroke-linejoin:miter;"/>
   </g>
   <g id="patch_5">
    <path d="M 158.4 747 
L 1336.05 747 
" style="fill:none;stroke:#000000;stroke-linecap:square;stroke-linejoin:miter;"/>
   </g>
   <g id="patch_6">
    <path d="M 158.4 747 
L 158.4 51.3 
" style="fill:none;stroke:#000000;stroke-linecap:square;stroke-linejoin:miter;"/>
   </g>
   <g id="matplotlib.axis_1">
    <g id="xtick_1">
     <g id="line2d_3">
      <defs>
       <path d="M 0 0 
L 0 -4 
" id="mea5767e89c" style="stroke:#000000;stroke-width:0.5;"/>
      </defs>
      <g>
       <use style="stroke:#000000;stroke-width:0.5;" x="158.4" xlink:href="#mea5767e89c" y="747.0"/>
      </g>
     </g>
     <g id="line2d_4">
      <defs>
       <path d="M 0 0 
L 0 4 
" id="m103efdd6d8" style="stroke:#000000;stroke-width:0.5;"/>
      </defs>
      <g>
       <use style="stroke:#000000;stroke-width:0.5;" x="158.4" xlink:href="#m103efdd6d8" y="51.3"/>
      </g>
     </g>
     <g id="text_1">
      <!-- 0 -->
      <defs>
       <path d="M 31.78125 66.40625 
Q 24.171875 66.40625 20.328125 58.90625 
Q 16.5 51.421875 16.5 36.375 
Q 16.5 21.390625 20.328125 13.890625 
Q 24.171875 6.390625 31.78125 6.390625 
Q 39.453125 6.390625 43.28125 13.890625 
Q 47.125 21.390625 47.125 36.375 
Q 47.125 51.421875 43.28125 58.90625 
Q 39.453125 66.40625 31.78125 66.40625 
M 31.78125 74.21875 
Q 44.046875 74.21875 50.515625 64.515625 
Q 56.984375 54.828125 56.984375 36.375 
Q 56.984375 17.96875 50.515625 8.265625 
Q 44.046875 -1.421875 31.78125 -1.421875 
Q 19.53125 -1.421875 13.0625 8.265625 
Q 6.59375 17.96875 6.59375 36.375 
Q 6.59375 54.828125 13.0625 64.515625 
Q 19.53125 74.21875 31.78125 74.21875 
" id="BitstreamVeraSans-Roman-30"/>
      </defs>
      <g transform="translate(148.85625 773.7953125)scale(0.3 -0.3)">
       <use xlink:href="#BitstreamVeraSans-Roman-30"/>
      </g>
     </g>
    </g>
    <g id="xtick_2">
     <g id="line2d_5">
      <g>
       <use style="stroke:#000000;stroke-width:0.5;" x="393.93" xlink:href="#mea5767e89c" y="747.0"/>
      </g>
     </g>
     <g id="line2d_6">
      <g>
       <use style="stroke:#000000;stroke-width:0.5;" x="393.93" xlink:href="#m103efdd6d8" y="51.3"/>
      </g>
     </g>
     <g id="text_2">
      <!-- 20000 -->
      <defs>
       <path d="M 19.1875 8.296875 
L 53.609375 8.296875 
L 53.609375 0 
L 7.328125 0 
L 7.328125 8.296875 
Q 12.9375 14.109375 22.625 23.890625 
Q 32.328125 33.6875 34.8125 36.53125 
Q 39.546875 41.84375 41.421875 45.53125 
Q 43.3125 49.21875 43.3125 52.78125 
Q 43.3125 58.59375 39.234375 62.25 
Q 35.15625 65.921875 28.609375 65.921875 
Q 23.96875 65.921875 18.8125 64.3125 
Q 13.671875 62.703125 7.8125 59.421875 
L 7.8125 69.390625 
Q 13.765625 71.78125 18.9375 73 
Q 24.125 74.21875 28.421875 74.21875 
Q 39.75 74.21875 46.484375 68.546875 
Q 53.21875 62.890625 53.21875 53.421875 
Q 53.21875 48.921875 51.53125 44.890625 
Q 49.859375 40.875 45.40625 35.40625 
Q 44.1875 33.984375 37.640625 27.21875 
Q 31.109375 20.453125 19.1875 8.296875 
" id="BitstreamVeraSans-Roman-32"/>
      </defs>
      <g transform="translate(346.21125 773.7953125)scale(0.3 -0.3)">
       <use xlink:href="#BitstreamVeraSans-Roman-32"/>
       <use x="63.623046875" xlink:href="#BitstreamVeraSans-Roman-30"/>
       <use x="127.24609375" xlink:href="#BitstreamVeraSans-Roman-30"/>
       <use x="190.869140625" xlink:href="#BitstreamVeraSans-Roman-30"/>
       <use x="254.4921875" xlink:href="#BitstreamVeraSans-Roman-30"/>
      </g>
     </g>
    </g>
    <g id="xtick_3">
     <g id="line2d_7">
      <g>
       <use style="stroke:#000000;stroke-width:0.5;" x="629.46" xlink:href="#mea5767e89c" y="747.0"/>
      </g>
     </g>
     <g id="line2d_8">
      <g>
       <use style="stroke:#000000;stroke-width:0.5;" x="629.46" xlink:href="#m103efdd6d8" y="51.3"/>
      </g>
     </g>
     <g id="text_3">
      <!-- 40000 -->
      <defs>
       <path d="M 37.796875 64.3125 
L 12.890625 25.390625 
L 37.796875 25.390625 
z
M 35.203125 72.90625 
L 47.609375 72.90625 
L 47.609375 25.390625 
L 58.015625 25.390625 
L 58.015625 17.1875 
L 47.609375 17.1875 
L 47.609375 0 
L 37.796875 0 
L 37.796875 17.1875 
L 4.890625 17.1875 
L 4.890625 26.703125 
z
" id="BitstreamVeraSans-Roman-34"/>
      </defs>
      <g transform="translate(581.74125 773.7953125)scale(0.3 -0.3)">
       <use xlink:href="#BitstreamVeraSans-Roman-34"/>
       <use x="63.623046875" xlink:href="#BitstreamVeraSans-Roman-30"/>
       <use x="127.24609375" xlink:href="#BitstreamVeraSans-Roman-30"/>
       <use x="190.869140625" xlink:href="#BitstreamVeraSans-Roman-30"/>
       <use x="254.4921875" xlink:href="#BitstreamVeraSans-Roman-30"/>
      </g>
     </g>
    </g>
    <g id="xtick_4">
     <g id="line2d_9">
      <g>
       <use style="stroke:#000000;stroke-width:0.5;" x="864.99" xlink:href="#mea5767e89c" y="747.0"/>
      </g>
     </g>
     <g id="line2d_10">
      <g>
       <use style="stroke:#000000;stroke-width:0.5;" x="864.99" xlink:href="#m103efdd6d8" y="51.3"/>
      </g>
     </g>
     <g id="text_4">
      <!-- 60000 -->
      <defs>
       <path d="M 33.015625 40.375 
Q 26.375 40.375 22.484375 35.828125 
Q 18.609375 31.296875 18.609375 23.390625 
Q 18.609375 15.53125 22.484375 10.953125 
Q 26.375 6.390625 33.015625 6.390625 
Q 39.65625 6.390625 43.53125 10.953125 
Q 47.40625 15.53125 47.40625 23.390625 
Q 47.40625 31.296875 43.53125 35.828125 
Q 39.65625 40.375 33.015625 40.375 
M 52.59375 71.296875 
L 52.59375 62.3125 
Q 48.875 64.0625 45.09375 64.984375 
Q 41.3125 65.921875 37.59375 65.921875 
Q 27.828125 65.921875 22.671875 59.328125 
Q 17.53125 52.734375 16.796875 39.40625 
Q 19.671875 43.65625 24.015625 45.921875 
Q 28.375 48.1875 33.59375 48.1875 
Q 44.578125 48.1875 50.953125 41.515625 
Q 57.328125 34.859375 57.328125 23.390625 
Q 57.328125 12.15625 50.6875 5.359375 
Q 44.046875 -1.421875 33.015625 -1.421875 
Q 20.359375 -1.421875 13.671875 8.265625 
Q 6.984375 17.96875 6.984375 36.375 
Q 6.984375 53.65625 15.1875 63.9375 
Q 23.390625 74.21875 37.203125 74.21875 
Q 40.921875 74.21875 44.703125 73.484375 
Q 48.484375 72.75 52.59375 71.296875 
" id="BitstreamVeraSans-Roman-36"/>
      </defs>
      <g transform="translate(817.27125 773.7953125)scale(0.3 -0.3)">
       <use xlink:href="#BitstreamVeraSans-Roman-36"/>
       <use x="63.623046875" xlink:href="#BitstreamVeraSans-Roman-30"/>
       <use x="127.24609375" xlink:href="#BitstreamVeraSans-Roman-30"/>
       <use x="190.869140625" xlink:href="#BitstreamVeraSans-Roman-30"/>
       <use x="254.4921875" xlink:href="#BitstreamVeraSans-Roman-30"/>
      </g>
     </g>
    </g>
    <g id="xtick_5">
     <g id="line2d_11">
      <g>
       <use style="stroke:#000000;stroke-width:0.5;" x="1100.52" xlink:href="#mea5767e89c" y="747.0"/>
      </g>
     </g>
     <g id="line2d_12">
      <g>
       <use style="stroke:#000000;stroke-width:0.5;" x="1100.52" xlink:href="#m103efdd6d8" y="51.3"/>
      </g>
     </g>
     <g id="text_5">
      <!-- 80000 -->
      <defs>
       <path d="M 31.78125 34.625 
Q 24.75 34.625 20.71875 30.859375 
Q 16.703125 27.09375 16.703125 20.515625 
Q 16.703125 13.921875 20.71875 10.15625 
Q 24.75 6.390625 31.78125 6.390625 
Q 38.8125 6.390625 42.859375 10.171875 
Q 46.921875 13.96875 46.921875 20.515625 
Q 46.921875 27.09375 42.890625 30.859375 
Q 38.875 34.625 31.78125 34.625 
M 21.921875 38.8125 
Q 15.578125 40.375 12.03125 44.71875 
Q 8.5 49.078125 8.5 55.328125 
Q 8.5 64.0625 14.71875 69.140625 
Q 20.953125 74.21875 31.78125 74.21875 
Q 42.671875 74.21875 48.875 69.140625 
Q 55.078125 64.0625 55.078125 55.328125 
Q 55.078125 49.078125 51.53125 44.71875 
Q 48 40.375 41.703125 38.8125 
Q 48.828125 37.15625 52.796875 32.3125 
Q 56.78125 27.484375 56.78125 20.515625 
Q 56.78125 9.90625 50.3125 4.234375 
Q 43.84375 -1.421875 31.78125 -1.421875 
Q 19.734375 -1.421875 13.25 4.234375 
Q 6.78125 9.90625 6.78125 20.515625 
Q 6.78125 27.484375 10.78125 32.3125 
Q 14.796875 37.15625 21.921875 38.8125 
M 18.3125 54.390625 
Q 18.3125 48.734375 21.84375 45.5625 
Q 25.390625 42.390625 31.78125 42.390625 
Q 38.140625 42.390625 41.71875 45.5625 
Q 45.3125 48.734375 45.3125 54.390625 
Q 45.3125 60.0625 41.71875 63.234375 
Q 38.140625 66.40625 31.78125 66.40625 
Q 25.390625 66.40625 21.84375 63.234375 
Q 18.3125 60.0625 18.3125 54.390625 
" id="BitstreamVeraSans-Roman-38"/>
      </defs>
      <g transform="translate(1052.80125 773.7953125)scale(0.3 -0.3)">
       <use xlink:href="#BitstreamVeraSans-Roman-38"/>
       <use x="63.623046875" xlink:href="#BitstreamVeraSans-Roman-30"/>
       <use x="127.24609375" xlink:href="#BitstreamVeraSans-Roman-30"/>
       <use x="190.869140625" xlink:href="#BitstreamVeraSans-Roman-30"/>
       <use x="254.4921875" xlink:href="#BitstreamVeraSans-Roman-30"/>
      </g>
     </g>
    </g>
    <g id="xtick_6">
     <g id="line2d_13">
      <g>
       <use style="stroke:#000000;stroke-width:0.5;" x="1336.05" xlink:href="#mea5767e89c" y="747.0"/>
      </g>
     </g>
     <g id="line2d_14">
      <g>
       <use style="stroke:#000000;stroke-width:0.5;" x="1336.05" xlink:href="#m103efdd6d8" y="51.3"/>
      </g>
     </g>
     <g id="text_6">
      <!-- 100000 -->
      <defs>
       <path d="M 12.40625 8.296875 
L 28.515625 8.296875 
L 28.515625 63.921875 
L 10.984375 60.40625 
L 10.984375 69.390625 
L 28.421875 72.90625 
L 38.28125 72.90625 
L 38.28125 8.296875 
L 54.390625 8.296875 
L 54.390625 0 
L 12.40625 0 
z
" id="BitstreamVeraSans-Roman-31"/>
      </defs>
      <g transform="translate(1278.7875 773.7953125)scale(0.3 -0.3)">
       <use xlink:href="#BitstreamVeraSans-Roman-31"/>
       <use x="63.623046875" xlink:href="#BitstreamVeraSans-Roman-30"/>
       <use x="127.24609375" xlink:href="#BitstreamVeraSans-Roman-30"/>
       <use x="190.869140625" xlink:href="#BitstreamVeraSans-Roman-30"/>
       <use x="254.4921875" xlink:href="#BitstreamVeraSans-Roman-30"/>
       <use x="318.115234375" xlink:href="#BitstreamVeraSans-Roman-30"/>
      </g>
     </g>
    </g>
    <g id="text_7">
     <!-- iterations -->
     <defs>
      <path d="M 54.890625 33.015625 
L 54.890625 0 
L 45.90625 0 
L 45.90625 32.71875 
Q 45.90625 40.484375 42.875 44.328125 
Q 39.84375 48.1875 33.796875 48.1875 
Q 26.515625 48.1875 22.3125 43.546875 
Q 18.109375 38.921875 18.109375 30.90625 
L 18.109375 0 
L 9.078125 0 
L 9.078125 54.6875 
L 18.109375 54.6875 
L 18.109375 46.1875 
Q 21.34375 51.125 25.703125 53.5625 
Q 30.078125 56 35.796875 56 
Q 45.21875 56 50.046875 50.171875 
Q 54.890625 44.34375 54.890625 33.015625 
" id="BitstreamVeraSans-Roman-6e"/>
      <path d="M 34.28125 27.484375 
Q 23.390625 27.484375 19.1875 25 
Q 14.984375 22.515625 14.984375 16.5 
Q 14.984375 11.71875 18.140625 8.90625 
Q 21.296875 6.109375 26.703125 6.109375 
Q 34.1875 6.109375 38.703125 11.40625 
Q 43.21875 16.703125 43.21875 25.484375 
L 43.21875 27.484375 
z
M 52.203125 31.203125 
L 52.203125 0 
L 43.21875 0 
L 43.21875 8.296875 
Q 40.140625 3.328125 35.546875 0.953125 
Q 30.953125 -1.421875 24.3125 -1.421875 
Q 15.921875 -1.421875 10.953125 3.296875 
Q 6 8.015625 6 15.921875 
Q 6 25.140625 12.171875 29.828125 
Q 18.359375 34.515625 30.609375 34.515625 
L 43.21875 34.515625 
L 43.21875 35.40625 
Q 43.21875 41.609375 39.140625 45 
Q 35.0625 48.390625 27.6875 48.390625 
Q 23 48.390625 18.546875 47.265625 
Q 14.109375 46.140625 10.015625 43.890625 
L 10.015625 52.203125 
Q 14.9375 54.109375 19.578125 55.046875 
Q 24.21875 56 28.609375 56 
Q 40.484375 56 46.34375 49.84375 
Q 52.203125 43.703125 52.203125 31.203125 
" id="BitstreamVeraSans-Roman-61"/>
      <path d="M 30.609375 48.390625 
Q 23.390625 48.390625 19.1875 42.75 
Q 14.984375 37.109375 14.984375 27.296875 
Q 14.984375 17.484375 19.15625 11.84375 
Q 23.34375 6.203125 30.609375 6.203125 
Q 37.796875 6.203125 41.984375 11.859375 
Q 46.1875 17.53125 46.1875 27.296875 
Q 46.1875 37.015625 41.984375 42.703125 
Q 37.796875 48.390625 30.609375 48.390625 
M 30.609375 56 
Q 42.328125 56 49.015625 48.375 
Q 55.71875 40.765625 55.71875 27.296875 
Q 55.71875 13.875 49.015625 6.21875 
Q 42.328125 -1.421875 30.609375 -1.421875 
Q 18.84375 -1.421875 12.171875 6.21875 
Q 5.515625 13.875 5.515625 27.296875 
Q 5.515625 40.765625 12.171875 48.375 
Q 18.84375 56 30.609375 56 
" id="BitstreamVeraSans-Roman-6f"/>
      <path d="M 9.421875 54.6875 
L 18.40625 54.6875 
L 18.40625 0 
L 9.421875 0 
z
M 9.421875 75.984375 
L 18.40625 75.984375 
L 18.40625 64.59375 
L 9.421875 64.59375 
z
" id="BitstreamVeraSans-Roman-69"/>
      <path d="M 56.203125 29.59375 
L 56.203125 25.203125 
L 14.890625 25.203125 
Q 15.484375 15.921875 20.484375 11.0625 
Q 25.484375 6.203125 34.421875 6.203125 
Q 39.59375 6.203125 44.453125 7.46875 
Q 49.3125 8.734375 54.109375 11.28125 
L 54.109375 2.78125 
Q 49.265625 0.734375 44.1875 -0.34375 
Q 39.109375 -1.421875 33.890625 -1.421875 
Q 20.796875 -1.421875 13.15625 6.1875 
Q 5.515625 13.8125 5.515625 26.8125 
Q 5.515625 40.234375 12.765625 48.109375 
Q 20.015625 56 32.328125 56 
Q 43.359375 56 49.78125 48.890625 
Q 56.203125 41.796875 56.203125 29.59375 
M 47.21875 32.234375 
Q 47.125 39.59375 43.09375 43.984375 
Q 39.0625 48.390625 32.421875 48.390625 
Q 24.90625 48.390625 20.390625 44.140625 
Q 15.875 39.890625 15.1875 32.171875 
z
" id="BitstreamVeraSans-Roman-65"/>
      <path d="M 18.3125 70.21875 
L 18.3125 54.6875 
L 36.8125 54.6875 
L 36.8125 47.703125 
L 18.3125 47.703125 
L 18.3125 18.015625 
Q 18.3125 11.328125 20.140625 9.421875 
Q 21.96875 7.515625 27.59375 7.515625 
L 36.8125 7.515625 
L 36.8125 0 
L 27.59375 0 
Q 17.1875 0 13.234375 3.875 
Q 9.28125 7.765625 9.28125 18.015625 
L 9.28125 47.703125 
L 2.6875 47.703125 
L 2.6875 54.6875 
L 9.28125 54.6875 
L 9.28125 70.21875 
z
" id="BitstreamVeraSans-Roman-74"/>
      <path d="M 41.109375 46.296875 
Q 39.59375 47.171875 37.8125 47.578125 
Q 36.03125 48 33.890625 48 
Q 26.265625 48 22.1875 43.046875 
Q 18.109375 38.09375 18.109375 28.8125 
L 18.109375 0 
L 9.078125 0 
L 9.078125 54.6875 
L 18.109375 54.6875 
L 18.109375 46.1875 
Q 20.953125 51.171875 25.484375 53.578125 
Q 30.03125 56 36.53125 56 
Q 37.453125 56 38.578125 55.875 
Q 39.703125 55.765625 41.0625 55.515625 
z
" id="BitstreamVeraSans-Roman-72"/>
      <path d="M 44.28125 53.078125 
L 44.28125 44.578125 
Q 40.484375 46.53125 36.375 47.5 
Q 32.28125 48.484375 27.875 48.484375 
Q 21.1875 48.484375 17.84375 46.4375 
Q 14.5 44.390625 14.5 40.28125 
Q 14.5 37.15625 16.890625 35.375 
Q 19.28125 33.59375 26.515625 31.984375 
L 29.59375 31.296875 
Q 39.15625 29.25 43.1875 25.515625 
Q 47.21875 21.78125 47.21875 15.09375 
Q 47.21875 7.46875 41.1875 3.015625 
Q 35.15625 -1.421875 24.609375 -1.421875 
Q 20.21875 -1.421875 15.453125 -0.5625 
Q 10.6875 0.296875 5.421875 2 
L 5.421875 11.28125 
Q 10.40625 8.6875 15.234375 7.390625 
Q 20.0625 6.109375 24.8125 6.109375 
Q 31.15625 6.109375 34.5625 8.28125 
Q 37.984375 10.453125 37.984375 14.40625 
Q 37.984375 18.0625 35.515625 20.015625 
Q 33.0625 21.96875 24.703125 23.78125 
L 21.578125 24.515625 
Q 13.234375 26.265625 9.515625 29.90625 
Q 5.8125 33.546875 5.8125 39.890625 
Q 5.8125 47.609375 11.28125 51.796875 
Q 16.75 56 26.8125 56 
Q 31.78125 56 36.171875 55.265625 
Q 40.578125 54.546875 44.28125 53.078125 
" id="BitstreamVeraSans-Roman-73"/>
     </defs>
     <g transform="translate(676.04296875 807.8296875)scale(0.3 -0.3)">
      <use xlink:href="#BitstreamVeraSans-Roman-69"/>
      <use x="27.783203125" xlink:href="#BitstreamVeraSans-Roman-74"/>
      <use x="66.9921875" xlink:href="#BitstreamVeraSans-Roman-65"/>
      <use x="128.515625" xlink:href="#BitstreamVeraSans-Roman-72"/>
      <use x="169.62890625" xlink:href="#BitstreamVeraSans-Roman-61"/>
      <use x="230.908203125" xlink:href="#BitstreamVeraSans-Roman-74"/>
      <use x="270.1171875" xlink:href="#BitstreamVeraSans-Roman-69"/>
      <use x="297.900390625" xlink:href="#BitstreamVeraSans-Roman-6f"/>
      <use x="359.08203125" xlink:href="#BitstreamVeraSans-Roman-6e"/>
      <use x="422.4609375" xlink:href="#BitstreamVeraSans-Roman-73"/>
     </g>
    </g>
   </g>
   <g id="matplotlib.axis_2">
    <g id="ytick_1">
     <g id="line2d_15">
      <defs>
       <path d="M 0 0 
L 4 0 
" id="m7a9709ea26" style="stroke:#000000;stroke-width:0.5;"/>
      </defs>
      <g>
       <use style="stroke:#000000;stroke-width:0.5;" x="158.4" xlink:href="#m7a9709ea26" y="747.0"/>
      </g>
     </g>
     <g id="line2d_16">
      <defs>
       <path d="M 0 0 
L -4 0 
" id="ma736209ea9" style="stroke:#000000;stroke-width:0.5;"/>
      </defs>
      <g>
       <use style="stroke:#000000;stroke-width:0.5;" x="1336.05" xlink:href="#ma736209ea9" y="747.0"/>
      </g>
     </g>
     <g id="text_8">
      <!-- 60 -->
      <defs>
       <path d="M 10.59375 35.5 
L 73.1875 35.5 
L 73.1875 27.203125 
L 10.59375 27.203125 
z
" id="BitstreamVeraSans-Roman-2212"/>
      </defs>
      <g transform="translate(91.0859375 755.278125)scale(0.3 -0.3)">
       <use xlink:href="#BitstreamVeraSans-Roman-2212"/>
       <use x="83.7890625" xlink:href="#BitstreamVeraSans-Roman-36"/>
       <use x="147.412109375" xlink:href="#BitstreamVeraSans-Roman-30"/>
      </g>
     </g>
    </g>
    <g id="ytick_2">
     <g id="line2d_17">
      <g>
       <use style="stroke:#000000;stroke-width:0.5;" x="158.4" xlink:href="#m7a9709ea26" y="660.0375"/>
      </g>
     </g>
     <g id="line2d_18">
      <g>
       <use style="stroke:#000000;stroke-width:0.5;" x="1336.05" xlink:href="#ma736209ea9" y="660.0375"/>
      </g>
     </g>
     <g id="text_9">
      <!-- 50 -->
      <defs>
       <path d="M 10.796875 72.90625 
L 49.515625 72.90625 
L 49.515625 64.59375 
L 19.828125 64.59375 
L 19.828125 46.734375 
Q 21.96875 47.46875 24.109375 47.828125 
Q 26.265625 48.1875 28.421875 48.1875 
Q 40.625 48.1875 47.75 41.5 
Q 54.890625 34.8125 54.890625 23.390625 
Q 54.890625 11.625 47.5625 5.09375 
Q 40.234375 -1.421875 26.90625 -1.421875 
Q 22.3125 -1.421875 17.546875 -0.640625 
Q 12.796875 0.140625 7.71875 1.703125 
L 7.71875 11.625 
Q 12.109375 9.234375 16.796875 8.0625 
Q 21.484375 6.890625 26.703125 6.890625 
Q 35.15625 6.890625 40.078125 11.328125 
Q 45.015625 15.765625 45.015625 23.390625 
Q 45.015625 31 40.078125 35.4375 
Q 35.15625 39.890625 26.703125 39.890625 
Q 22.75 39.890625 18.8125 39.015625 
Q 14.890625 38.140625 10.796875 36.28125 
z
" id="BitstreamVeraSans-Roman-35"/>
      </defs>
      <g transform="translate(91.0859375 668.315625)scale(0.3 -0.3)">
       <use xlink:href="#BitstreamVeraSans-Roman-2212"/>
       <use x="83.7890625" xlink:href="#BitstreamVeraSans-Roman-35"/>
       <use x="147.412109375" xlink:href="#BitstreamVeraSans-Roman-30"/>
      </g>
     </g>
    </g>
    <g id="ytick_3">
     <g id="line2d_19">
      <g>
       <use style="stroke:#000000;stroke-width:0.5;" x="158.4" xlink:href="#m7a9709ea26" y="573.075"/>
      </g>
     </g>
     <g id="line2d_20">
      <g>
       <use style="stroke:#000000;stroke-width:0.5;" x="1336.05" xlink:href="#ma736209ea9" y="573.075"/>
      </g>
     </g>
     <g id="text_10">
      <!-- 40 -->
      <g transform="translate(91.0859375 581.353125)scale(0.3 -0.3)">
       <use xlink:href="#BitstreamVeraSans-Roman-2212"/>
       <use x="83.7890625" xlink:href="#BitstreamVeraSans-Roman-34"/>
       <use x="147.412109375" xlink:href="#BitstreamVeraSans-Roman-30"/>
      </g>
     </g>
    </g>
    <g id="ytick_4">
     <g id="line2d_21">
      <g>
       <use style="stroke:#000000;stroke-width:0.5;" x="158.4" xlink:href="#m7a9709ea26" y="486.1125"/>
      </g>
     </g>
     <g id="line2d_22">
      <g>
       <use style="stroke:#000000;stroke-width:0.5;" x="1336.05" xlink:href="#ma736209ea9" y="486.1125"/>
      </g>
     </g>
     <g id="text_11">
      <!-- 30 -->
      <defs>
       <path d="M 40.578125 39.3125 
Q 47.65625 37.796875 51.625 33 
Q 55.609375 28.21875 55.609375 21.1875 
Q 55.609375 10.40625 48.1875 4.484375 
Q 40.765625 -1.421875 27.09375 -1.421875 
Q 22.515625 -1.421875 17.65625 -0.515625 
Q 12.796875 0.390625 7.625 2.203125 
L 7.625 11.71875 
Q 11.71875 9.328125 16.59375 8.109375 
Q 21.484375 6.890625 26.8125 6.890625 
Q 36.078125 6.890625 40.9375 10.546875 
Q 45.796875 14.203125 45.796875 21.1875 
Q 45.796875 27.640625 41.28125 31.265625 
Q 36.765625 34.90625 28.71875 34.90625 
L 20.21875 34.90625 
L 20.21875 43.015625 
L 29.109375 43.015625 
Q 36.375 43.015625 40.234375 45.921875 
Q 44.09375 48.828125 44.09375 54.296875 
Q 44.09375 59.90625 40.109375 62.90625 
Q 36.140625 65.921875 28.71875 65.921875 
Q 24.65625 65.921875 20.015625 65.03125 
Q 15.375 64.15625 9.8125 62.3125 
L 9.8125 71.09375 
Q 15.4375 72.65625 20.34375 73.4375 
Q 25.25 74.21875 29.59375 74.21875 
Q 40.828125 74.21875 47.359375 69.109375 
Q 53.90625 64.015625 53.90625 55.328125 
Q 53.90625 49.265625 50.4375 45.09375 
Q 46.96875 40.921875 40.578125 39.3125 
" id="BitstreamVeraSans-Roman-33"/>
      </defs>
      <g transform="translate(91.0859375 494.390625)scale(0.3 -0.3)">
       <use xlink:href="#BitstreamVeraSans-Roman-2212"/>
       <use x="83.7890625" xlink:href="#BitstreamVeraSans-Roman-33"/>
       <use x="147.412109375" xlink:href="#BitstreamVeraSans-Roman-30"/>
      </g>
     </g>
    </g>
    <g id="ytick_5">
     <g id="line2d_23">
      <g>
       <use style="stroke:#000000;stroke-width:0.5;" x="158.4" xlink:href="#m7a9709ea26" y="399.15"/>
      </g>
     </g>
     <g id="line2d_24">
      <g>
       <use style="stroke:#000000;stroke-width:0.5;" x="1336.05" xlink:href="#ma736209ea9" y="399.15"/>
      </g>
     </g>
     <g id="text_12">
      <!-- 20 -->
      <g transform="translate(91.0859375 407.428125)scale(0.3 -0.3)">
       <use xlink:href="#BitstreamVeraSans-Roman-2212"/>
       <use x="83.7890625" xlink:href="#BitstreamVeraSans-Roman-32"/>
       <use x="147.412109375" xlink:href="#BitstreamVeraSans-Roman-30"/>
      </g>
     </g>
    </g>
    <g id="ytick_6">
     <g id="line2d_25">
      <g>
       <use style="stroke:#000000;stroke-width:0.5;" x="158.4" xlink:href="#m7a9709ea26" y="312.1875"/>
      </g>
     </g>
     <g id="line2d_26">
      <g>
       <use style="stroke:#000000;stroke-width:0.5;" x="1336.05" xlink:href="#ma736209ea9" y="312.1875"/>
      </g>
     </g>
     <g id="text_13">
      <!-- 10 -->
      <g transform="translate(91.0859375 320.465625)scale(0.3 -0.3)">
       <use xlink:href="#BitstreamVeraSans-Roman-2212"/>
       <use x="83.7890625" xlink:href="#BitstreamVeraSans-Roman-31"/>
       <use x="147.412109375" xlink:href="#BitstreamVeraSans-Roman-30"/>
      </g>
     </g>
    </g>
    <g id="ytick_7">
     <g id="line2d_27">
      <g>
       <use style="stroke:#000000;stroke-width:0.5;" x="158.4" xlink:href="#m7a9709ea26" y="225.225"/>
      </g>
     </g>
     <g id="line2d_28">
      <g>
       <use style="stroke:#000000;stroke-width:0.5;" x="1336.05" xlink:href="#ma736209ea9" y="225.225"/>
      </g>
     </g>
     <g id="text_14">
      <!-- 0 -->
      <g transform="translate(135.3125 233.503125)scale(0.3 -0.3)">
       <use xlink:href="#BitstreamVeraSans-Roman-30"/>
      </g>
     </g>
    </g>
    <g id="ytick_8">
     <g id="line2d_29">
      <g>
       <use style="stroke:#000000;stroke-width:0.5;" x="158.4" xlink:href="#m7a9709ea26" y="138.2625"/>
      </g>
     </g>
     <g id="line2d_30">
      <g>
       <use style="stroke:#000000;stroke-width:0.5;" x="1336.05" xlink:href="#ma736209ea9" y="138.2625"/>
      </g>
     </g>
     <g id="text_15">
      <!-- 10 -->
      <g transform="translate(116.225 146.540625)scale(0.3 -0.3)">
       <use xlink:href="#BitstreamVeraSans-Roman-31"/>
       <use x="63.623046875" xlink:href="#BitstreamVeraSans-Roman-30"/>
      </g>
     </g>
    </g>
    <g id="ytick_9">
     <g id="line2d_31">
      <g>
       <use style="stroke:#000000;stroke-width:0.5;" x="158.4" xlink:href="#m7a9709ea26" y="51.3"/>
      </g>
     </g>
     <g id="line2d_32">
      <g>
       <use style="stroke:#000000;stroke-width:0.5;" x="1336.05" xlink:href="#ma736209ea9" y="51.3"/>
      </g>
     </g>
     <g id="text_16">
      <!-- 20 -->
      <g transform="translate(116.225 59.578125)scale(0.3 -0.3)">
       <use xlink:href="#BitstreamVeraSans-Roman-32"/>
       <use x="63.623046875" xlink:href="#BitstreamVeraSans-Roman-30"/>
      </g>
     </g>
    </g>
    <g id="text_17">
     <!-- log(loss) -->
     <defs>
      <path d="M 8.015625 75.875 
L 15.828125 75.875 
Q 23.140625 64.359375 26.78125 53.3125 
Q 30.421875 42.28125 30.421875 31.390625 
Q 30.421875 20.453125 26.78125 9.375 
Q 23.140625 -1.703125 15.828125 -13.1875 
L 8.015625 -13.1875 
Q 14.5 -2 17.703125 9.0625 
Q 20.90625 20.125 20.90625 31.390625 
Q 20.90625 42.671875 17.703125 53.65625 
Q 14.5 64.65625 8.015625 75.875 
" id="BitstreamVeraSans-Roman-29"/>
      <path d="M 31 75.875 
Q 24.46875 64.65625 21.28125 53.65625 
Q 18.109375 42.671875 18.109375 31.390625 
Q 18.109375 20.125 21.3125 9.0625 
Q 24.515625 -2 31 -13.1875 
L 23.1875 -13.1875 
Q 15.875 -1.703125 12.234375 9.375 
Q 8.59375 20.453125 8.59375 31.390625 
Q 8.59375 42.28125 12.203125 53.3125 
Q 15.828125 64.359375 23.1875 75.875 
z
" id="BitstreamVeraSans-Roman-28"/>
      <path d="M 45.40625 27.984375 
Q 45.40625 37.75 41.375 43.109375 
Q 37.359375 48.484375 30.078125 48.484375 
Q 22.859375 48.484375 18.828125 43.109375 
Q 14.796875 37.75 14.796875 27.984375 
Q 14.796875 18.265625 18.828125 12.890625 
Q 22.859375 7.515625 30.078125 7.515625 
Q 37.359375 7.515625 41.375 12.890625 
Q 45.40625 18.265625 45.40625 27.984375 
M 54.390625 6.78125 
Q 54.390625 -7.171875 48.1875 -13.984375 
Q 42 -20.796875 29.203125 -20.796875 
Q 24.46875 -20.796875 20.265625 -20.09375 
Q 16.0625 -19.390625 12.109375 -17.921875 
L 12.109375 -9.1875 
Q 16.0625 -11.328125 19.921875 -12.34375 
Q 23.78125 -13.375 27.78125 -13.375 
Q 36.625 -13.375 41.015625 -8.765625 
Q 45.40625 -4.15625 45.40625 5.171875 
L 45.40625 9.625 
Q 42.625 4.78125 38.28125 2.390625 
Q 33.9375 0 27.875 0 
Q 17.828125 0 11.671875 7.65625 
Q 5.515625 15.328125 5.515625 27.984375 
Q 5.515625 40.671875 11.671875 48.328125 
Q 17.828125 56 27.875 56 
Q 33.9375 56 38.28125 53.609375 
Q 42.625 51.21875 45.40625 46.390625 
L 45.40625 54.6875 
L 54.390625 54.6875 
z
" id="BitstreamVeraSans-Roman-67"/>
      <path d="M 9.421875 75.984375 
L 18.40625 75.984375 
L 18.40625 0 
L 9.421875 0 
z
" id="BitstreamVeraSans-Roman-6c"/>
     </defs>
     <g transform="translate(79.846875 462.69609375)rotate(-90.0)scale(0.3 -0.3)">
      <use xlink:href="#BitstreamVeraSans-Roman-6c"/>
      <use x="27.783203125" xlink:href="#BitstreamVeraSans-Roman-6f"/>
      <use x="88.96484375" xlink:href="#BitstreamVeraSans-Roman-67"/>
      <use x="152.44140625" xlink:href="#BitstreamVeraSans-Roman-28"/>
      <use x="191.455078125" xlink:href="#BitstreamVeraSans-Roman-6c"/>
      <use x="219.23828125" xlink:href="#BitstreamVeraSans-Roman-6f"/>
      <use x="280.419921875" xlink:href="#BitstreamVeraSans-Roman-73"/>
      <use x="332.51953125" xlink:href="#BitstreamVeraSans-Roman-73"/>
      <use x="384.619140625" xlink:href="#BitstreamVeraSans-Roman-29"/>
     </g>
    </g>
   </g>
   <g id="legend_1">
    <g id="patch_7">
     <path d="M 843.876562 163.36875 
L 1321.05 163.36875 
L 1321.05 66.3 
L 843.876562 66.3 
z
" style="fill:#ffffff;stroke:#000000;stroke-linejoin:miter;"/>
    </g>
    <g id="line2d_33">
     <path d="M 864.876562 90.595312 
L 906.876562 90.595312 
" style="fill:none;stroke:#0000ff;stroke-linecap:square;stroke-width:2.0;"/>
    </g>
    <g id="line2d_34"/>
    <g id="text_18">
     <!-- random: step=0.000620 -->
     <defs>
      <path id="BitstreamVeraSans-Roman-20"/>
      <path d="M 52 44.1875 
Q 55.375 50.25 60.0625 53.125 
Q 64.75 56 71.09375 56 
Q 79.640625 56 84.28125 50.015625 
Q 88.921875 44.046875 88.921875 33.015625 
L 88.921875 0 
L 79.890625 0 
L 79.890625 32.71875 
Q 79.890625 40.578125 77.09375 44.375 
Q 74.3125 48.1875 68.609375 48.1875 
Q 61.625 48.1875 57.5625 43.546875 
Q 53.515625 38.921875 53.515625 30.90625 
L 53.515625 0 
L 44.484375 0 
L 44.484375 32.71875 
Q 44.484375 40.625 41.703125 44.40625 
Q 38.921875 48.1875 33.109375 48.1875 
Q 26.21875 48.1875 22.15625 43.53125 
Q 18.109375 38.875 18.109375 30.90625 
L 18.109375 0 
L 9.078125 0 
L 9.078125 54.6875 
L 18.109375 54.6875 
L 18.109375 46.1875 
Q 21.1875 51.21875 25.484375 53.609375 
Q 29.78125 56 35.6875 56 
Q 41.65625 56 45.828125 52.96875 
Q 50 49.953125 52 44.1875 
" id="BitstreamVeraSans-Roman-6d"/>
      <path d="M 11.71875 12.40625 
L 22.015625 12.40625 
L 22.015625 0 
L 11.71875 0 
z
M 11.71875 51.703125 
L 22.015625 51.703125 
L 22.015625 39.3125 
L 11.71875 39.3125 
z
" id="BitstreamVeraSans-Roman-3a"/>
      <path d="M 10.6875 12.40625 
L 21 12.40625 
L 21 0 
L 10.6875 0 
z
" id="BitstreamVeraSans-Roman-2e"/>
      <path d="M 10.59375 45.40625 
L 73.1875 45.40625 
L 73.1875 37.203125 
L 10.59375 37.203125 
z
M 10.59375 25.484375 
L 73.1875 25.484375 
L 73.1875 17.1875 
L 10.59375 17.1875 
z
" id="BitstreamVeraSans-Roman-3d"/>
      <path d="M 45.40625 46.390625 
L 45.40625 75.984375 
L 54.390625 75.984375 
L 54.390625 0 
L 45.40625 0 
L 45.40625 8.203125 
Q 42.578125 3.328125 38.25 0.953125 
Q 33.9375 -1.421875 27.875 -1.421875 
Q 17.96875 -1.421875 11.734375 6.484375 
Q 5.515625 14.40625 5.515625 27.296875 
Q 5.515625 40.1875 11.734375 48.09375 
Q 17.96875 56 27.875 56 
Q 33.9375 56 38.25 53.625 
Q 42.578125 51.265625 45.40625 46.390625 
M 14.796875 27.296875 
Q 14.796875 17.390625 18.875 11.75 
Q 22.953125 6.109375 30.078125 6.109375 
Q 37.203125 6.109375 41.296875 11.75 
Q 45.40625 17.390625 45.40625 27.296875 
Q 45.40625 37.203125 41.296875 42.84375 
Q 37.203125 48.484375 30.078125 48.484375 
Q 22.953125 48.484375 18.875 42.84375 
Q 14.796875 37.203125 14.796875 27.296875 
" id="BitstreamVeraSans-Roman-64"/>
      <path d="M 18.109375 8.203125 
L 18.109375 -20.796875 
L 9.078125 -20.796875 
L 9.078125 54.6875 
L 18.109375 54.6875 
L 18.109375 46.390625 
Q 20.953125 51.265625 25.265625 53.625 
Q 29.59375 56 35.59375 56 
Q 45.5625 56 51.78125 48.09375 
Q 58.015625 40.1875 58.015625 27.296875 
Q 58.015625 14.40625 51.78125 6.484375 
Q 45.5625 -1.421875 35.59375 -1.421875 
Q 29.59375 -1.421875 25.265625 0.953125 
Q 20.953125 3.328125 18.109375 8.203125 
M 48.6875 27.296875 
Q 48.6875 37.203125 44.609375 42.84375 
Q 40.53125 48.484375 33.40625 48.484375 
Q 26.265625 48.484375 22.1875 42.84375 
Q 18.109375 37.203125 18.109375 27.296875 
Q 18.109375 17.390625 22.1875 11.75 
Q 26.265625 6.109375 33.40625 6.109375 
Q 40.53125 6.109375 44.609375 11.75 
Q 48.6875 17.390625 48.6875 27.296875 
" id="BitstreamVeraSans-Roman-70"/>
     </defs>
     <g transform="translate(939.8765625 101.0953125)scale(0.3 -0.3)">
      <use xlink:href="#BitstreamVeraSans-Roman-72"/>
      <use x="41.11328125" xlink:href="#BitstreamVeraSans-Roman-61"/>
      <use x="102.392578125" xlink:href="#BitstreamVeraSans-Roman-6e"/>
      <use x="165.771484375" xlink:href="#BitstreamVeraSans-Roman-64"/>
      <use x="229.248046875" xlink:href="#BitstreamVeraSans-Roman-6f"/>
      <use x="290.4296875" xlink:href="#BitstreamVeraSans-Roman-6d"/>
      <use x="387.841796875" xlink:href="#BitstreamVeraSans-Roman-3a"/>
      <use x="421.533203125" xlink:href="#BitstreamVeraSans-Roman-20"/>
      <use x="453.3203125" xlink:href="#BitstreamVeraSans-Roman-73"/>
      <use x="505.419921875" xlink:href="#BitstreamVeraSans-Roman-74"/>
      <use x="544.62890625" xlink:href="#BitstreamVeraSans-Roman-65"/>
      <use x="606.15234375" xlink:href="#BitstreamVeraSans-Roman-70"/>
      <use x="669.62890625" xlink:href="#BitstreamVeraSans-Roman-3d"/>
      <use x="753.41796875" xlink:href="#BitstreamVeraSans-Roman-30"/>
      <use x="817.041015625" xlink:href="#BitstreamVeraSans-Roman-2e"/>
      <use x="848.828125" xlink:href="#BitstreamVeraSans-Roman-30"/>
      <use x="912.451171875" xlink:href="#BitstreamVeraSans-Roman-30"/>
      <use x="976.07421875" xlink:href="#BitstreamVeraSans-Roman-30"/>
      <use x="1039.69726562" xlink:href="#BitstreamVeraSans-Roman-36"/>
      <use x="1103.3203125" xlink:href="#BitstreamVeraSans-Roman-32"/>
      <use x="1166.94335938" xlink:href="#BitstreamVeraSans-Roman-30"/>
     </g>
    </g>
    <g id="line2d_35">
     <path d="M 864.876562 134.629687 
L 906.876562 134.629687 
" style="fill:none;stroke:#008000;stroke-linecap:square;stroke-width:2.0;"/>
    </g>
    <g id="line2d_36"/>
    <g id="text_19">
     <!-- corr: step=0.000620 -->
     <defs>
      <path d="M 48.78125 52.59375 
L 48.78125 44.1875 
Q 44.96875 46.296875 41.140625 47.34375 
Q 37.3125 48.390625 33.40625 48.390625 
Q 24.65625 48.390625 19.8125 42.84375 
Q 14.984375 37.3125 14.984375 27.296875 
Q 14.984375 17.28125 19.8125 11.734375 
Q 24.65625 6.203125 33.40625 6.203125 
Q 37.3125 6.203125 41.140625 7.25 
Q 44.96875 8.296875 48.78125 10.40625 
L 48.78125 2.09375 
Q 45.015625 0.34375 40.984375 -0.53125 
Q 36.96875 -1.421875 32.421875 -1.421875 
Q 20.0625 -1.421875 12.78125 6.34375 
Q 5.515625 14.109375 5.515625 27.296875 
Q 5.515625 40.671875 12.859375 48.328125 
Q 20.21875 56 33.015625 56 
Q 37.15625 56 41.109375 55.140625 
Q 45.0625 54.296875 48.78125 52.59375 
" id="BitstreamVeraSans-Roman-63"/>
     </defs>
     <g transform="translate(939.8765625 145.1296875)scale(0.3 -0.3)">
      <use xlink:href="#BitstreamVeraSans-Roman-63"/>
      <use x="54.98046875" xlink:href="#BitstreamVeraSans-Roman-6f"/>
      <use x="116.162109375" xlink:href="#BitstreamVeraSans-Roman-72"/>
      <use x="157.259765625" xlink:href="#BitstreamVeraSans-Roman-72"/>
      <use x="198.357421875" xlink:href="#BitstreamVeraSans-Roman-3a"/>
      <use x="232.048828125" xlink:href="#BitstreamVeraSans-Roman-20"/>
      <use x="263.8359375" xlink:href="#BitstreamVeraSans-Roman-73"/>
      <use x="315.935546875" xlink:href="#BitstreamVeraSans-Roman-74"/>
      <use x="355.14453125" xlink:href="#BitstreamVeraSans-Roman-65"/>
      <use x="416.66796875" xlink:href="#BitstreamVeraSans-Roman-70"/>
      <use x="480.14453125" xlink:href="#BitstreamVeraSans-Roman-3d"/>
      <use x="563.93359375" xlink:href="#BitstreamVeraSans-Roman-30"/>
      <use x="627.556640625" xlink:href="#BitstreamVeraSans-Roman-2e"/>
      <use x="659.34375" xlink:href="#BitstreamVeraSans-Roman-30"/>
      <use x="722.966796875" xlink:href="#BitstreamVeraSans-Roman-30"/>
      <use x="786.58984375" xlink:href="#BitstreamVeraSans-Roman-30"/>
      <use x="850.212890625" xlink:href="#BitstreamVeraSans-Roman-36"/>
      <use x="913.8359375" xlink:href="#BitstreamVeraSans-Roman-32"/>
      <use x="977.458984375" xlink:href="#BitstreamVeraSans-Roman-30"/>
     </g>
    </g>
   </g>
  </g>
 </g>
 <defs>
  <clipPath id="p9e4b8fab7c">
   <rect height="695.7" width="1177.65" x="158.4" y="51.3"/>
  </clipPath>
 </defs>
</svg>
