<?xml version="1.0" encoding="utf-8" standalone="no"?>
<!DOCTYPE svg PUBLIC "-//W3C//DTD SVG 1.1//EN"
  "http://www.w3.org/Graphics/SVG/1.1/DTD/svg11.dtd">
<!-- Created with matplotlib (http://matplotlib.org/) -->
<svg height="864pt" version="1.1" viewBox="0 0 1440 864" width="1440pt" xmlns="http://www.w3.org/2000/svg" xmlns:xlink="http://www.w3.org/1999/xlink">
 <defs>
  <style type="text/css">
*{stroke-linecap:butt;stroke-linejoin:round;stroke-miterlimit:100000;}
  </style>
 </defs>
 <g id="figure_1">
  <g id="patch_1">
   <path d="M 0 864 
L 1440 864 
L 1440 0 
L 0 0 
z
" style="fill:#ffffff;"/>
  </g>
  <g id="axes_1">
   <g id="patch_2">
    <path d="M 76.210938 770.34375 
L 1356.046875 770.34375 
L 1356.046875 57.917187 
L 76.210938 57.917187 
z
" style="fill:#ffffff;"/>
   </g>
   <g id="line2d_1">
    <path clip-path="url(#p712a8ecf42)" d="M 77.490773 142.687242 
L 78.770609 141.436115 
L 80.050445 140.893921 
L 81.330281 141.540128 
L 82.610117 142.513728 
L 83.889953 144.016696 
L 85.169789 145.028897 
L 86.449625 144.985329 
L 87.729461 143.754951 
L 89.009297 144.044443 
L 90.289133 143.276548 
L 91.568969 143.20164 
L 92.848805 147.960268 
L 94.128641 148.005051 
L 95.408477 146.422039 
L 96.688312 146.754794 
L 97.968148 147.250321 
L 99.247984 147.281361 
L 100.52782 149.725707 
L 101.807656 149.708328 
L 103.087492 152.184901 
L 104.367328 152.246902 
L 105.647164 152.155623 
L 106.927 152.264178 
L 108.206836 155.904434 
L 109.486672 155.894388 
L 110.766508 161.096381 
L 112.046344 161.072607 
L 113.32618 159.934019 
L 114.606016 159.92997 
L 115.885852 162.395948 
L 117.165687 162.323622 
L 118.445523 162.519713 
L 119.725359 162.490722 
L 121.005195 159.275488 
L 122.285031 159.345521 
L 123.564867 158.145393 
L 124.844703 157.903438 
L 126.124539 156.845635 
L 127.404375 156.695143 
L 128.684211 161.716714 
L 129.964047 161.744619 
L 131.243883 162.231491 
L 132.523719 162.199762 
L 133.803555 164.529991 
L 135.083391 164.559429 
L 136.363227 162.22267 
L 137.643062 162.302384 
L 138.922898 161.226994 
L 140.202734 161.33688 
L 141.48257 164.686025 
L 142.762406 164.8445 
L 144.042242 166.709186 
L 145.322078 166.64912 
L 146.601914 167.687591 
L 147.88175 167.63152 
L 149.161586 169.763732 
L 150.441422 169.850884 
L 151.721258 171.734961 
L 153.001094 171.848824 
L 154.28093 168.337095 
L 155.560766 168.313982 
L 156.840602 170.105291 
L 160.680109 170.16191 
L 161.959945 171.644487 
L 163.239781 171.651494 
L 164.519617 170.483175 
L 165.799453 170.496097 
L 167.079289 174.527138 
L 168.359125 174.615093 
L 169.638961 174.945512 
L 170.918797 175.020501 
L 172.198633 176.962949 
L 173.478469 177.004105 
L 174.758305 179.458233 
L 176.038141 179.549325 
L 177.317977 180.874993 
L 178.597812 180.860141 
L 179.877648 179.720724 
L 181.157484 179.793437 
L 182.43732 181.972683 
L 183.717156 182.168076 
L 184.996992 184.391035 
L 186.276828 184.331996 
L 187.556664 185.307661 
L 188.8365 185.189923 
L 190.116336 184.500617 
L 191.396172 184.512349 
L 192.676008 182.449874 
L 193.955844 182.472614 
L 195.23568 184.896456 
L 199.075187 184.661713 
L 200.355023 181.643868 
L 202.914695 181.658488 
L 204.194531 181.780179 
L 205.474367 178.004697 
L 206.754203 177.971338 
L 208.034039 183.00648 
L 209.313875 183.12237 
L 210.593711 184.692383 
L 211.873547 184.675809 
L 213.153383 187.401558 
L 214.433219 187.383501 
L 215.713055 191.33909 
L 216.992891 191.480788 
L 218.272727 187.082992 
L 219.552562 187.00213 
L 220.832398 185.934705 
L 222.112234 185.930278 
L 223.39207 185.219151 
L 224.671906 185.441676 
L 225.951742 187.670513 
L 227.231578 187.668353 
L 228.511414 186.89405 
L 229.79125 186.896546 
L 231.071086 188.700179 
L 232.350922 188.714699 
L 233.630758 184.761777 
L 237.470266 184.833935 
L 238.750102 188.184279 
L 240.029937 188.199874 
L 241.309773 193.7583 
L 242.589609 193.732953 
L 243.869445 196.481549 
L 245.149281 196.496047 
L 246.429117 198.906639 
L 247.708953 198.90693 
L 248.988789 199.207351 
L 250.268625 199.202288 
L 251.548461 198.124536 
L 252.828297 198.122064 
L 254.108133 200.696413 
L 255.387969 200.68864 
L 256.667805 201.838955 
L 257.947641 201.842139 
L 259.227477 202.299822 
L 260.507313 202.281134 
L 261.787148 202.454821 
L 263.066984 202.438956 
L 264.34682 202.899777 
L 265.626656 202.897977 
L 266.906492 206.992536 
L 268.186328 207.007349 
L 269.466164 209.908164 
L 270.746 209.908762 
L 272.025836 212.90558 
L 273.305672 212.912401 
L 274.585508 213.84698 
L 278.425016 213.92664 
L 279.704852 214.287648 
L 280.984687 214.28828 
L 282.264523 215.548668 
L 283.544359 215.52713 
L 284.824195 214.662755 
L 286.104031 214.662755 
L 287.383867 216.736615 
L 288.663703 216.709815 
L 289.943539 218.142956 
L 291.223375 218.187859 
L 292.503211 218.771295 
L 293.783047 218.749202 
L 295.062883 220.341688 
L 296.342719 220.341771 
L 297.622555 224.867123 
L 298.902391 224.866958 
L 300.182227 228.326819 
L 301.462063 228.326819 
L 302.741898 232.888809 
L 304.021734 232.853476 
L 305.30157 230.89232 
L 306.581406 230.887069 
L 307.861242 231.684569 
L 309.141078 231.680503 
L 310.420914 232.720025 
L 311.70075 232.739354 
L 312.980586 233.930601 
L 314.260422 233.931836 
L 315.540258 236.645088 
L 316.820094 236.641254 
L 318.09993 237.13473 
L 321.939437 237.077965 
L 323.219273 238.066177 
L 324.499109 238.002011 
L 325.778945 238.784982 
L 327.058781 238.729104 
L 328.338617 242.584968 
L 329.618453 242.611711 
L 330.898289 245.214262 
L 332.178125 245.214262 
L 333.457961 246.846482 
L 334.737797 246.858492 
L 336.017633 247.929086 
L 337.297469 247.928657 
L 338.577305 247.390679 
L 339.857141 247.390435 
L 341.136977 249.150673 
L 342.416812 249.136836 
L 343.696648 251.600058 
L 344.976484 251.600133 
L 346.25632 251.39717 
L 347.536156 251.421081 
L 348.815992 250.70644 
L 350.095828 250.660972 
L 351.375664 252.439388 
L 352.6555 252.423469 
L 353.935336 249.841176 
L 355.215172 249.830952 
L 356.495008 253.336 
L 357.774844 253.315392 
L 359.05468 252.011791 
L 360.334516 252.010879 
L 361.614352 253.942687 
L 362.894187 253.942286 
L 364.174023 255.059582 
L 365.453859 255.042559 
L 366.733695 254.183153 
L 368.013531 254.183153 
L 369.293367 260.245795 
L 370.573203 260.245795 
L 371.853039 260.103837 
L 378.252219 260.044653 
L 379.532055 261.570762 
L 380.811891 261.570762 
L 382.091727 264.06489 
L 383.371562 264.065387 
L 384.651398 263.797262 
L 385.931234 263.797051 
L 387.21107 262.257821 
L 388.490906 262.252248 
L 389.770742 268.687281 
L 391.050578 268.676675 
L 392.330414 270.296029 
L 396.169922 270.298383 
L 397.449758 274.324743 
L 398.729594 274.321093 
L 400.00943 277.968711 
L 401.289266 277.969194 
L 402.569102 276.925304 
L 403.848937 276.925304 
L 405.128773 277.440712 
L 406.408609 277.444948 
L 407.688445 279.939537 
L 408.968281 279.939731 
L 410.248117 280.666709 
L 411.527953 280.663215 
L 412.807789 282.456543 
L 414.087625 282.458467 
L 415.367461 285.004918 
L 416.647297 285.024311 
L 417.927133 285.535804 
L 419.206969 285.533882 
L 420.486805 288.262032 
L 421.766641 288.264927 
L 423.046477 289.713109 
L 424.326312 289.767231 
L 425.606148 291.073739 
L 426.885984 291.063554 
L 428.16582 292.094231 
L 429.445656 292.094341 
L 430.725492 292.675998 
L 432.005328 292.68348 
L 433.285164 293.218019 
L 434.565 293.236059 
L 435.844836 297.426848 
L 437.124672 297.429785 
L 438.404508 304.043549 
L 439.684344 303.969692 
L 440.96418 301.983371 
L 442.244016 302.008662 
L 443.523852 304.19567 
L 444.803687 304.194563 
L 446.083523 305.097058 
L 447.363359 305.116987 
L 448.643195 302.17336 
L 449.923031 302.208106 
L 451.202867 307.428219 
L 452.482703 307.428219 
L 453.762539 304.576701 
L 455.042375 304.57402 
L 456.322211 301.531649 
L 457.602047 301.531507 
L 458.881883 300.012075 
L 460.161719 300.007796 
L 461.441555 302.228236 
L 462.721391 302.213207 
L 464.001227 302.081731 
L 465.281062 302.081545 
L 466.560898 305.906147 
L 467.840734 305.913796 
L 469.12057 303.33567 
L 470.400406 303.32818 
L 471.680242 305.349559 
L 472.960078 305.349559 
L 474.239914 310.108917 
L 475.51975 310.141585 
L 476.799586 313.666757 
L 478.079422 313.665985 
L 479.359258 316.542498 
L 480.639094 316.561465 
L 481.91893 318.082224 
L 483.198766 318.076316 
L 484.478602 321.351047 
L 485.758437 321.353886 
L 487.038273 318.996606 
L 488.318109 319.00345 
L 489.597945 321.470243 
L 493.437453 321.392967 
L 494.717289 319.699417 
L 495.997125 319.699417 
L 497.276961 326.09849 
L 501.116469 326.086125 
L 502.396305 325.497 
L 503.676141 325.398954 
L 504.955977 326.621793 
L 506.235812 326.621793 
L 507.515648 329.368856 
L 508.795484 329.374212 
L 510.07532 328.949453 
L 511.355156 328.906561 
L 512.634992 330.694974 
L 513.914828 330.694974 
L 515.194664 330.200335 
L 516.4745 330.20054 
L 517.754336 330.857251 
L 519.034172 330.859221 
L 520.314008 328.135093 
L 521.593844 328.115541 
L 522.87368 330.759782 
L 524.153516 330.71214 
L 525.433352 330.375455 
L 526.713188 330.374038 
L 527.993023 331.268987 
L 529.272859 331.268448 
L 530.552695 331.744738 
L 531.832531 331.716051 
L 533.112367 334.614231 
L 534.392203 334.614231 
L 535.672039 332.137004 
L 536.951875 332.137004 
L 538.231711 331.749632 
L 539.511547 331.775921 
L 540.791383 332.945574 
L 542.071219 332.946778 
L 543.351055 331.461188 
L 544.630891 331.471985 
L 545.910727 332.726407 
L 547.190562 332.745632 
L 548.470398 333.224593 
L 549.750234 333.187094 
L 551.03007 332.398314 
L 552.309906 332.419735 
L 553.589742 332.810465 
L 554.869578 332.811518 
L 556.149414 335.259097 
L 557.42925 335.259097 
L 558.709086 337.189865 
L 559.988922 337.168723 
L 561.268758 338.83182 
L 562.548594 338.83182 
L 563.82843 341.884566 
L 565.108266 341.884124 
L 566.388102 338.397104 
L 567.667937 338.397104 
L 568.947773 339.821867 
L 570.227609 339.828663 
L 571.507445 343.790843 
L 572.787281 343.791443 
L 574.067117 347.137292 
L 575.346953 347.10827 
L 576.626789 349.385431 
L 577.906625 349.367051 
L 579.186461 350.692985 
L 580.466297 350.691897 
L 581.746133 354.103114 
L 583.025969 354.100039 
L 584.305805 356.633531 
L 585.585641 356.632036 
L 586.865477 353.589777 
L 588.145312 353.589777 
L 589.425148 358.035345 
L 590.704984 358.013873 
L 591.98482 360.123212 
L 593.264656 360.12415 
L 594.544492 360.290664 
L 595.824328 360.290611 
L 597.104164 359.314763 
L 598.384 359.314537 
L 599.663836 358.6392 
L 600.943672 358.637921 
L 602.223508 361.933737 
L 603.503344 362.015055 
L 604.78318 363.174441 
L 608.622687 363.2287 
L 609.902523 365.548547 
L 611.182359 365.551634 
L 612.462195 364.276051 
L 613.742031 364.276051 
L 615.021867 367.571937 
L 616.301703 367.568664 
L 617.581539 363.931143 
L 618.861375 363.867603 
L 620.141211 368.763013 
L 621.421047 368.766142 
L 622.700883 373.444279 
L 623.980719 373.353127 
L 625.260555 375.417915 
L 626.540391 375.464188 
L 627.820227 377.055891 
L 629.100062 377.023787 
L 630.379898 380.116803 
L 631.659734 380.116904 
L 632.93957 380.741055 
L 634.219406 380.741459 
L 635.499242 378.723239 
L 636.779078 378.722946 
L 638.058914 383.028911 
L 639.33875 383.064344 
L 640.618586 383.699025 
L 641.898422 383.932034 
L 644.458094 383.891681 
L 645.73793 386.072505 
L 647.017766 386.940978 
L 648.297602 389.641072 
L 649.577437 388.958716 
L 650.857273 389.993627 
L 652.137109 392.715165 
L 653.416945 392.88455 
L 654.696781 394.17547 
L 655.976617 394.347416 
L 657.256453 397.102907 
L 658.536289 397.103428 
L 659.816125 401.288919 
L 661.095961 401.288919 
L 662.375797 401.725334 
L 663.655633 401.725334 
L 664.935469 403.757463 
L 666.215305 403.751239 
L 667.495141 409.630016 
L 668.774977 409.652424 
L 670.054812 410.19642 
L 671.334648 410.17064 
L 672.614484 410.436323 
L 673.89432 410.436323 
L 675.174156 412.69748 
L 676.453992 412.695797 
L 677.733828 414.407405 
L 679.013664 414.411276 
L 680.2935 415.131452 
L 681.573336 415.140587 
L 682.853172 414.535983 
L 684.133008 414.525327 
L 685.412844 418.181408 
L 686.69268 418.095055 
L 687.972516 415.363857 
L 689.252352 415.383418 
L 690.532187 412.863795 
L 691.812023 412.830109 
L 693.091859 415.1973 
L 694.371695 415.215358 
L 695.651531 419.040181 
L 696.931367 419.040539 
L 698.211203 416.756395 
L 699.491039 416.733329 
L 700.770875 418.657475 
L 702.050711 418.585597 
L 703.330547 418.977618 
L 704.610383 419.013386 
L 705.890219 418.489551 
L 707.170055 418.457692 
L 708.449891 419.546996 
L 709.729727 419.554765 
L 711.009562 420.362534 
L 712.289398 420.354301 
L 713.569234 419.290093 
L 714.84907 419.302108 
L 716.128906 424.154033 
L 717.408742 424.128188 
L 718.688578 425.1318 
L 719.968414 425.159038 
L 721.24825 428.848803 
L 722.528086 428.874587 
L 723.807922 430.766887 
L 725.087758 430.786438 
L 726.367594 429.51911 
L 727.64743 429.552221 
L 728.927266 432.778109 
L 730.207102 432.760292 
L 731.486937 431.889676 
L 732.766773 431.888506 
L 734.046609 428.527383 
L 735.326445 428.556616 
L 736.606281 428.917335 
L 740.445789 428.899833 
L 741.725625 431.973688 
L 743.005461 431.973526 
L 744.285297 433.553205 
L 745.565133 433.588917 
L 746.844969 434.01662 
L 748.124805 434.022333 
L 749.404641 433.90564 
L 750.684477 433.911173 
L 751.964312 432.395284 
L 753.244148 432.396984 
L 754.523984 434.055176 
L 755.80382 434.046082 
L 757.083656 433.009174 
L 758.363492 433.02546 
L 759.643328 435.205433 
L 760.923164 435.240402 
L 762.203 434.490559 
L 763.482836 434.506226 
L 764.762672 437.436775 
L 766.042508 437.435057 
L 767.322344 438.969246 
L 768.60218 439.04528 
L 769.882016 443.005641 
L 771.161852 442.989648 
L 772.441687 447.805583 
L 773.721523 447.837522 
L 775.001359 452.549682 
L 776.281195 452.571926 
L 777.561031 454.906985 
L 778.840867 454.906985 
L 780.120703 452.12301 
L 781.400539 452.124042 
L 782.680375 453.718889 
L 783.960211 453.673942 
L 785.240047 455.027009 
L 786.519883 455.038738 
L 787.799719 456.507361 
L 789.079555 456.522334 
L 790.359391 458.387133 
L 791.639227 458.386933 
L 792.919062 457.524218 
L 794.198898 457.523877 
L 795.478734 458.05589 
L 796.75857 458.055141 
L 798.038406 461.692847 
L 799.318242 461.692847 
L 800.598078 461.111958 
L 801.877914 461.09377 
L 803.15775 458.496715 
L 804.437586 458.446703 
L 805.717422 458.280225 
L 806.997258 458.307689 
L 808.277094 457.270472 
L 809.55693 457.269546 
L 810.836766 460.326431 
L 812.116602 460.33868 
L 813.396437 461.120494 
L 814.676273 461.127713 
L 815.956109 460.365133 
L 817.235945 460.354333 
L 818.515781 458.283358 
L 819.795617 458.272865 
L 821.075453 458.916927 
L 822.355289 458.987011 
L 823.635125 462.739819 
L 824.914961 462.702372 
L 826.194797 456.301546 
L 827.474633 456.375425 
L 828.754469 459.457093 
L 830.034305 459.478124 
L 832.593977 459.365221 
L 833.873812 461.826963 
L 835.153648 461.839584 
L 836.433484 464.892549 
L 837.71332 464.847588 
L 838.993156 468.178964 
L 840.272992 468.125868 
L 841.552828 469.857125 
L 842.832664 469.839554 
L 844.1125 472.92249 
L 845.392336 472.865058 
L 846.672172 471.602569 
L 847.952008 471.55401 
L 849.231844 471.836573 
L 850.51168 471.831346 
L 851.791516 475.200106 
L 853.071352 475.217598 
L 854.351187 472.483004 
L 855.631023 472.499755 
L 856.910859 476.976663 
L 859.470531 477.071122 
L 860.750367 477.094435 
L 862.030203 475.571125 
L 863.310039 475.603087 
L 864.589875 475.870289 
L 865.869711 475.803446 
L 867.149547 478.5407 
L 868.429383 478.534976 
L 869.709219 480.552294 
L 870.989055 480.551319 
L 872.268891 480.332105 
L 873.548727 480.362183 
L 874.828562 480.078782 
L 876.108398 480.077941 
L 877.388234 482.886351 
L 878.66807 482.873287 
L 879.947906 486.274903 
L 881.227742 486.269956 
L 882.507578 485.610937 
L 883.787414 485.636709 
L 885.06725 489.637874 
L 886.347086 489.65067 
L 887.626922 492.222288 
L 888.906758 492.187784 
L 890.186594 491.211344 
L 891.46643 491.211302 
L 892.746266 492.023374 
L 894.026102 492.022155 
L 895.305937 492.771106 
L 896.585773 492.785319 
L 897.865609 497.219231 
L 899.145445 497.23192 
L 900.425281 495.568599 
L 901.705117 495.566144 
L 902.984953 497.831276 
L 904.264789 497.840385 
L 905.544625 499.233189 
L 906.824461 499.225182 
L 908.104297 498.720762 
L 909.384133 498.702658 
L 910.663969 500.423668 
L 911.943805 500.433898 
L 914.503477 500.573705 
L 917.063148 500.561506 
L 918.342984 502.73174 
L 919.62282 502.73223 
L 920.902656 504.925245 
L 922.182492 504.92199 
L 923.462328 504.643936 
L 924.742164 504.653686 
L 926.022 505.291743 
L 927.301836 505.291588 
L 928.581672 504.963063 
L 929.861508 504.901334 
L 931.141344 507.230424 
L 932.42118 507.207731 
L 933.701016 509.747122 
L 934.980852 509.689233 
L 936.260687 510.733893 
L 937.540523 510.776582 
L 938.820359 510.339923 
L 940.100195 510.355862 
L 941.380031 510.950847 
L 942.659867 511.003628 
L 943.939703 512.264045 
L 945.219539 512.269901 
L 946.499375 516.421818 
L 947.779211 516.421818 
L 949.059047 514.804081 
L 950.338883 514.806934 
L 951.618719 514.37344 
L 952.898555 514.374357 
L 954.178391 517.894738 
L 955.458227 517.89309 
L 956.738062 515.218281 
L 958.017898 515.242507 
L 959.297734 517.909258 
L 960.57757 517.907847 
L 961.857406 522.103853 
L 965.696914 522.148631 
L 966.97675 527.383054 
L 968.256586 527.352515 
L 969.536422 523.854457 
L 970.816258 523.854457 
L 972.096094 525.991371 
L 973.37593 525.991532 
L 974.655766 525.378253 
L 975.935602 525.39596 
L 977.215437 526.349363 
L 978.495273 526.398618 
L 979.775109 527.236485 
L 981.054945 527.234854 
L 982.334781 531.749613 
L 983.614617 531.749659 
L 984.894453 532.613038 
L 986.174289 532.633765 
L 987.454125 536.22722 
L 988.733961 536.18404 
L 990.013797 536.99488 
L 991.293633 537.027349 
L 992.573469 538.681714 
L 993.853305 538.624026 
L 995.133141 535.225853 
L 996.412977 535.208749 
L 997.692812 536.140948 
L 998.972648 536.134083 
L 1000.252484 536.373731 
L 1001.53232 536.431706 
L 1002.812156 536.940855 
L 1004.091992 536.974052 
L 1005.371828 537.421199 
L 1006.651664 537.432034 
L 1007.9315 537.170605 
L 1009.211336 537.167659 
L 1010.491172 540.628744 
L 1011.771008 540.6325 
L 1013.050844 541.745936 
L 1014.33068 541.747093 
L 1015.610516 541.996798 
L 1016.890352 542.013936 
L 1018.170187 546.10306 
L 1019.450023 546.097285 
L 1020.729859 543.419797 
L 1022.009695 543.451831 
L 1023.289531 544.967184 
L 1024.569367 544.968847 
L 1025.849203 547.367571 
L 1029.688711 547.383686 
L 1030.968547 547.139449 
L 1032.248383 547.131657 
L 1033.528219 549.106482 
L 1034.808055 549.062261 
L 1036.087891 549.371745 
L 1037.367727 549.388537 
L 1038.647562 550.270809 
L 1039.927398 550.262673 
L 1041.207234 547.388237 
L 1042.48707 547.373868 
L 1043.766906 549.355784 
L 1045.046742 549.325945 
L 1046.326578 549.52799 
L 1047.606414 549.541364 
L 1048.88625 555.65698 
L 1050.166086 555.648116 
L 1051.445922 554.485006 
L 1052.725758 554.471751 
L 1054.005594 554.103837 
L 1055.28543 554.064914 
L 1056.565266 555.650603 
L 1057.845102 555.650692 
L 1059.124937 553.742609 
L 1060.404773 553.709465 
L 1061.684609 557.038521 
L 1062.964445 557.038521 
L 1064.244281 557.498901 
L 1065.524117 557.490587 
L 1066.803953 561.341982 
L 1068.083789 561.343059 
L 1069.363625 562.970729 
L 1070.643461 562.994232 
L 1071.923297 560.498477 
L 1073.203133 560.535468 
L 1074.482969 563.752004 
L 1075.762805 563.654981 
L 1077.042641 566.382745 
L 1078.322477 566.397608 
L 1079.602312 566.997724 
L 1080.882148 566.993077 
L 1082.161984 566.713632 
L 1083.44182 566.76775 
L 1084.721656 570.716295 
L 1086.001492 570.718223 
L 1087.281328 574.30151 
L 1088.561164 574.293158 
L 1089.841 579.349356 
L 1091.120836 579.349356 
L 1092.400672 582.074265 
L 1093.680508 582.068695 
L 1094.960344 585.652003 
L 1096.24018 585.651855 
L 1097.520016 587.926452 
L 1098.799852 587.96482 
L 1100.079687 587.559461 
L 1101.359523 587.552027 
L 1102.639359 587.96106 
L 1103.919195 587.96065 
L 1105.199031 586.562987 
L 1106.478867 586.563352 
L 1107.758703 587.013291 
L 1109.038539 587.01526 
L 1110.318375 592.492204 
L 1111.598211 592.482522 
L 1112.878047 595.044585 
L 1114.157883 595.074549 
L 1115.437719 592.283319 
L 1116.717555 592.266498 
L 1117.997391 594.544326 
L 1119.277227 594.550632 
L 1120.557062 597.078383 
L 1121.836898 597.079277 
L 1123.116734 599.842848 
L 1124.39657 599.842848 
L 1125.676406 603.123366 
L 1126.956242 603.126263 
L 1128.236078 602.016495 
L 1129.515914 601.98418 
L 1130.79575 604.865638 
L 1132.075586 604.891641 
L 1133.355422 608.274163 
L 1134.635258 608.23876 
L 1135.915094 610.519413 
L 1137.19493 610.519544 
L 1138.474766 607.986788 
L 1139.754602 607.990612 
L 1141.034437 609.798504 
L 1142.314273 609.798504 
L 1143.594109 611.471902 
L 1144.873945 611.48907 
L 1146.153781 615.523558 
L 1147.433617 615.524811 
L 1148.713453 614.550522 
L 1149.993289 614.541373 
L 1151.273125 613.967003 
L 1155.112633 613.877612 
L 1156.392469 616.495215 
L 1157.672305 616.463704 
L 1158.952141 617.943364 
L 1160.231977 617.999947 
L 1161.511812 618.743011 
L 1162.791648 618.742809 
L 1164.071484 618.211648 
L 1165.35132 618.19059 
L 1166.631156 616.710063 
L 1167.910992 616.710056 
L 1169.190828 617.253305 
L 1170.470664 617.258934 
L 1171.7505 617.061463 
L 1173.030336 617.05728 
L 1174.310172 621.053584 
L 1175.590008 621.057127 
L 1176.869844 623.15195 
L 1178.14968 623.181641 
L 1179.429516 624.887228 
L 1180.709352 624.867333 
L 1181.989187 630.644847 
L 1183.269023 630.638471 
L 1184.548859 631.938662 
L 1185.828695 631.97586 
L 1187.108531 632.275436 
L 1188.388367 632.316784 
L 1189.668203 635.182544 
L 1190.948039 635.189835 
L 1192.227875 637.559797 
L 1193.507711 637.542358 
L 1194.787547 637.90718 
L 1196.067383 637.900325 
L 1197.347219 636.480788 
L 1198.627055 636.450717 
L 1199.906891 639.832414 
L 1201.186727 639.830476 
L 1202.466562 640.760155 
L 1203.746398 640.760155 
L 1205.026234 640.223813 
L 1206.30607 640.220073 
L 1207.585906 639.878221 
L 1208.865742 639.874666 
L 1210.145578 640.674494 
L 1211.425414 640.685763 
L 1212.70525 640.534914 
L 1213.985086 640.527879 
L 1215.264922 643.98196 
L 1216.544758 643.980391 
L 1217.824594 643.420358 
L 1219.10443 643.419219 
L 1220.384266 644.65294 
L 1221.664102 644.626031 
L 1222.943937 650.444463 
L 1224.223773 650.506948 
L 1225.503609 655.359143 
L 1226.783445 655.319811 
L 1228.063281 656.895072 
L 1229.343117 656.906429 
L 1230.622953 660.058358 
L 1231.902789 660.051353 
L 1233.182625 659.735174 
L 1234.462461 659.753282 
L 1235.742297 653.220926 
L 1237.022133 653.225465 
L 1238.301969 653.44544 
L 1239.581805 653.444507 
L 1240.861641 655.202116 
L 1242.141477 655.207478 
L 1243.421312 653.200132 
L 1244.701148 653.188222 
L 1245.980984 655.233821 
L 1247.26082 655.229895 
L 1248.540656 656.746259 
L 1249.820492 656.82989 
L 1251.100328 662.472445 
L 1252.380164 662.446177 
L 1253.66 661.737571 
L 1254.939836 661.734388 
L 1256.219672 664.098617 
L 1257.499508 664.110457 
L 1258.779344 667.237777 
L 1260.05918 667.224412 
L 1261.339016 670.300293 
L 1262.618852 670.300293 
L 1263.898687 672.395077 
L 1265.178523 672.401264 
L 1266.458359 671.26304 
L 1267.738195 671.286594 
L 1269.018031 672.185456 
L 1270.297867 672.136019 
L 1271.577703 671.002043 
L 1272.857539 670.999865 
L 1274.137375 674.689988 
L 1275.417211 674.791297 
L 1276.697047 675.355462 
L 1277.976883 675.357901 
L 1279.256719 679.308179 
L 1283.096227 679.291797 
L 1284.376062 678.191518 
L 1288.21557 678.220163 
L 1289.495406 677.085679 
L 1290.775242 677.080766 
L 1292.055078 678.643115 
L 1293.334914 678.661789 
L 1294.61475 680.805988 
L 1295.894586 680.805988 
L 1297.174422 681.594749 
L 1298.454258 681.659264 
L 1299.734094 684.467012 
L 1301.01393 684.406806 
L 1302.293766 683.592709 
L 1303.573602 683.558949 
L 1304.853437 682.859602 
L 1306.133273 682.858886 
L 1307.413109 685.675083 
L 1308.692945 685.674082 
L 1309.972781 686.512585 
L 1311.252617 686.520696 
L 1312.532453 685.682127 
L 1313.812289 685.677547 
L 1315.092125 688.138782 
L 1316.371961 688.171858 
L 1317.651797 689.671553 
L 1318.931633 689.549008 
L 1320.211469 693.019765 
L 1321.491305 693.020706 
L 1322.771141 695.158555 
L 1324.050977 695.156813 
L 1325.330812 698.95009 
L 1326.610648 698.953845 
L 1327.890484 697.571842 
L 1329.17032 697.598864 
L 1330.450156 699.54382 
L 1331.729992 699.542944 
L 1333.009828 701.051417 
L 1334.289664 701.047661 
L 1335.5695 702.303651 
L 1336.849336 702.343336 
L 1338.129172 704.087123 
L 1341.96868 704.127455 
L 1343.248516 703.082051 
L 1344.528352 703.082051 
L 1345.808187 701.3048 
L 1347.088023 701.293081 
L 1348.367859 709.191076 
L 1349.647695 709.200071 
L 1350.927531 711.593345 
L 1352.207367 711.639237 
L 1353.487203 711.796495 
L 1354.767039 711.059529 
L 1356.046875 713.075612 
L 1356.046875 713.075612 
" style="fill:none;stroke:#0000ff;stroke-linecap:square;stroke-width:2.0;"/>
   </g>
   <g id="line2d_2">
    <path clip-path="url(#p712a8ecf42)" d="M 77.490773 143.609422 
L 78.770609 145.459875 
L 80.050445 145.415205 
L 81.330281 147.522736 
L 82.610117 147.507653 
L 83.889953 145.782926 
L 85.169789 145.997917 
L 86.449625 146.727795 
L 87.729461 146.710896 
L 89.009297 145.636356 
L 90.289133 145.62609 
L 91.568969 148.049384 
L 92.848805 148.086594 
L 94.128641 153.901089 
L 95.408477 153.901089 
L 96.688312 154.819379 
L 97.968148 154.753384 
L 99.247984 160.209656 
L 100.52782 160.223519 
L 101.807656 163.002772 
L 103.087492 162.952422 
L 104.367328 162.740794 
L 105.647164 162.722053 
L 106.927 166.484289 
L 108.206836 166.499629 
L 109.486672 166.975619 
L 110.766508 166.997762 
L 112.046344 167.312257 
L 113.32618 167.382233 
L 114.606016 170.731057 
L 115.885852 170.741197 
L 117.165687 172.573814 
L 118.445523 172.563301 
L 119.725359 170.246905 
L 123.564867 170.349295 
L 124.844703 172.766173 
L 126.124539 172.765133 
L 127.404375 172.413658 
L 128.684211 172.413658 
L 129.964047 177.055593 
L 131.243883 177.057848 
L 132.523719 178.854018 
L 133.803555 178.876671 
L 135.083391 175.769726 
L 136.363227 175.769726 
L 137.643062 176.174161 
L 138.922898 176.177988 
L 140.202734 179.021639 
L 141.48257 179.027254 
L 142.762406 182.712488 
L 144.042242 182.724673 
L 145.322078 184.498192 
L 146.601914 184.501154 
L 147.88175 184.623528 
L 149.161586 184.61663 
L 150.441422 186.034595 
L 151.721258 186.037496 
L 153.001094 188.03113 
L 154.28093 188.024418 
L 155.560766 188.259411 
L 156.840602 188.254698 
L 158.120437 193.315868 
L 159.400273 193.314303 
L 160.680109 194.385041 
L 161.959945 194.385097 
L 163.239781 197.041085 
L 164.519617 197.046591 
L 165.799453 198.588464 
L 167.079289 198.588464 
L 168.359125 200.27387 
L 169.638961 200.277931 
L 170.918797 203.318333 
L 172.198633 203.316119 
L 173.478469 208.047284 
L 174.758305 208.047284 
L 176.038141 209.655097 
L 177.317977 209.653778 
L 178.597812 207.650433 
L 179.877648 207.650433 
L 181.157484 207.930995 
L 182.43732 207.930987 
L 183.717156 211.160263 
L 184.996992 211.156184 
L 186.276828 215.058953 
L 187.556664 215.056 
L 188.8365 214.694963 
L 190.116336 214.692039 
L 191.396172 214.007263 
L 192.676008 213.998565 
L 193.955844 215.263051 
L 195.23568 215.2679 
L 196.515516 216.92472 
L 197.795352 216.961995 
L 199.075187 217.681561 
L 200.355023 217.681696 
L 201.634859 218.064784 
L 205.474367 218.012543 
L 206.754203 218.96098 
L 208.034039 218.959318 
L 209.313875 221.483925 
L 210.593711 221.497529 
L 211.873547 221.106988 
L 213.153383 221.113021 
L 214.433219 221.57619 
L 215.713055 221.579284 
L 216.992891 219.59384 
L 218.272727 219.586632 
L 219.552562 222.116137 
L 220.832398 222.079623 
L 222.112234 224.520919 
L 223.39207 224.526633 
L 224.671906 222.949663 
L 225.951742 222.948319 
L 227.231578 223.812252 
L 228.511414 223.81953 
L 229.79125 228.004398 
L 231.071086 227.98119 
L 232.350922 227.772147 
L 233.630758 227.7153 
L 234.910594 225.549093 
L 236.19043 225.549093 
L 237.470266 227.647958 
L 238.750102 227.642717 
L 240.029937 231.960902 
L 241.309773 231.929923 
L 242.589609 232.953987 
L 243.869445 232.953289 
L 245.149281 231.844925 
L 246.429117 231.838252 
L 247.708953 232.970563 
L 248.988789 232.961539 
L 250.268625 234.59348 
L 251.548461 234.609531 
L 252.828297 235.895517 
L 254.108133 235.885061 
L 255.387969 232.969257 
L 256.667805 232.959773 
L 257.947641 238.370577 
L 261.787148 238.345919 
L 263.066984 240.098817 
L 266.906492 240.185975 
L 268.186328 240.381837 
L 269.466164 240.381837 
L 270.746 238.917027 
L 272.025836 238.919553 
L 273.305672 238.638263 
L 274.585508 238.61902 
L 275.865344 239.488777 
L 277.14518 239.488099 
L 278.425016 240.491887 
L 279.704852 240.502998 
L 280.984687 243.675111 
L 282.264523 243.673307 
L 283.544359 246.343213 
L 284.824195 246.343213 
L 286.104031 249.501806 
L 287.383867 249.474995 
L 288.663703 250.975457 
L 289.943539 250.97932 
L 291.223375 249.751619 
L 292.503211 249.737737 
L 293.783047 250.150928 
L 295.062883 250.141864 
L 296.342719 251.376359 
L 297.622555 251.349021 
L 298.902391 251.931727 
L 300.182227 251.896812 
L 301.462063 250.691473 
L 302.741898 250.685127 
L 304.021734 252.976636 
L 305.30157 252.996033 
L 306.581406 254.645762 
L 307.861242 254.654246 
L 309.141078 257.44717 
L 310.420914 257.447318 
L 311.70075 257.964248 
L 312.980586 257.943774 
L 314.260422 260.161367 
L 315.540258 260.165412 
L 316.820094 265.046816 
L 318.09993 265.048682 
L 319.379766 268.44993 
L 320.659602 268.442323 
L 321.939437 268.853653 
L 323.219273 268.874792 
L 324.499109 276.656593 
L 325.778945 276.657104 
L 327.058781 277.017301 
L 328.338617 277.026247 
L 329.618453 278.121065 
L 330.898289 278.11399 
L 332.178125 276.458787 
L 333.457961 276.459245 
L 334.737797 274.477848 
L 336.017633 274.482451 
L 337.297469 273.661278 
L 338.577305 273.662962 
L 339.857141 275.08633 
L 341.136977 275.096616 
L 342.416812 277.209688 
L 343.696648 277.202592 
L 344.976484 276.346713 
L 346.25632 276.343799 
L 347.536156 280.917072 
L 348.815992 280.919262 
L 350.095828 279.920799 
L 351.375664 279.91812 
L 352.6555 282.420553 
L 353.935336 282.415996 
L 355.215172 282.02887 
L 356.495008 282.029912 
L 357.774844 281.857693 
L 359.05468 281.848899 
L 360.334516 281.504281 
L 361.614352 281.50442 
L 362.894187 284.349536 
L 364.174023 284.349536 
L 365.453859 287.986103 
L 369.293367 287.860734 
L 370.573203 291.84745 
L 371.853039 291.84459 
L 373.132875 286.544611 
L 374.412711 286.549934 
L 375.692547 290.661596 
L 376.972383 290.650599 
L 378.252219 293.297596 
L 379.532055 293.297596 
L 380.811891 291.31901 
L 382.091727 291.328007 
L 383.371562 293.083293 
L 384.651398 293.086848 
L 385.931234 293.389604 
L 387.21107 293.407011 
L 388.490906 293.666932 
L 389.770742 293.647319 
L 391.050578 297.694831 
L 392.330414 297.708133 
L 393.61025 299.373625 
L 394.890086 299.353705 
L 396.169922 300.896468 
L 397.449758 300.876787 
L 398.729594 300.241261 
L 400.00943 300.247207 
L 401.289266 303.444431 
L 402.569102 303.480278 
L 403.848937 306.814608 
L 407.688445 306.737502 
L 408.968281 301.950809 
L 410.248117 301.958746 
L 411.527953 307.444272 
L 412.807789 307.437523 
L 414.087625 311.366839 
L 415.367461 311.376346 
L 416.647297 316.173357 
L 417.927133 316.167926 
L 419.206969 312.787702 
L 423.046477 312.765621 
L 424.326312 313.829897 
L 425.606148 313.823821 
L 426.885984 314.886128 
L 428.16582 314.902796 
L 429.445656 315.17263 
L 430.725492 315.172779 
L 432.005328 321.370501 
L 433.285164 321.367252 
L 434.565 322.056387 
L 435.844836 322.056387 
L 437.124672 320.674042 
L 438.404508 320.678343 
L 439.684344 320.957114 
L 443.523852 320.8735 
L 444.803687 324.990929 
L 446.083523 325.001543 
L 447.363359 325.997807 
L 448.643195 326.005045 
L 449.923031 324.869302 
L 451.202867 324.866011 
L 452.482703 322.223823 
L 453.762539 322.219167 
L 455.042375 321.2096 
L 456.322211 321.214443 
L 457.602047 327.918458 
L 458.881883 327.912228 
L 460.161719 328.912594 
L 461.441555 328.906758 
L 462.721391 329.757446 
L 464.001227 329.757895 
L 465.281062 333.680696 
L 466.560898 333.696327 
L 467.840734 334.195153 
L 469.12057 334.19701 
L 470.400406 333.913229 
L 471.680242 333.919062 
L 472.960078 330.630606 
L 474.239914 330.632471 
L 475.51975 332.676916 
L 476.799586 332.644447 
L 478.079422 336.096484 
L 479.359258 336.097155 
L 480.639094 334.066208 
L 484.478602 334.05523 
L 485.758437 336.284081 
L 487.038273 336.300492 
L 488.318109 331.647514 
L 489.597945 331.647964 
L 490.877781 333.690004 
L 492.157617 333.690004 
L 493.437453 335.82809 
L 494.717289 335.83214 
L 495.997125 340.368707 
L 497.276961 340.380543 
L 498.556797 339.259583 
L 499.836633 339.259583 
L 501.116469 340.920784 
L 502.396305 340.941292 
L 503.676141 343.338854 
L 504.955977 343.339117 
L 506.235812 345.297271 
L 507.515648 345.312254 
L 508.795484 343.094779 
L 510.07532 343.105072 
L 511.355156 342.727424 
L 512.634992 342.725872 
L 513.914828 344.601389 
L 515.194664 344.601389 
L 516.4745 347.286228 
L 517.754336 347.286749 
L 519.034172 349.466665 
L 522.87368 349.369089 
L 524.153516 352.532587 
L 525.433352 352.505548 
L 526.713188 351.313801 
L 527.993023 351.295518 
L 529.272859 351.600555 
L 530.552695 351.617547 
L 531.832531 356.628596 
L 533.112367 356.628596 
L 534.392203 354.856901 
L 535.672039 354.860579 
L 536.951875 356.265213 
L 538.231711 356.265596 
L 539.511547 359.71634 
L 540.791383 359.723051 
L 542.071219 360.343706 
L 543.351055 360.335711 
L 544.630891 364.393123 
L 545.910727 364.39203 
L 547.190562 365.197666 
L 548.470398 365.202941 
L 549.750234 365.477911 
L 551.03007 365.477458 
L 552.309906 367.466137 
L 553.589742 367.466137 
L 554.869578 366.751017 
L 556.149414 366.750147 
L 557.42925 367.403925 
L 558.709086 367.40227 
L 559.988922 369.878006 
L 561.268758 369.853885 
L 562.548594 372.600427 
L 563.82843 372.588977 
L 565.108266 373.518338 
L 566.388102 373.51909 
L 567.667937 371.091296 
L 568.947773 371.091661 
L 570.227609 372.603471 
L 571.507445 372.6071 
L 572.787281 376.930952 
L 574.067117 376.931003 
L 575.346953 378.185105 
L 576.626789 378.186907 
L 577.906625 380.139469 
L 579.186461 380.141614 
L 580.466297 380.468655 
L 581.746133 380.468151 
L 583.025969 377.59794 
L 584.305805 377.592596 
L 585.585641 380.419805 
L 586.865477 380.444548 
L 588.145312 377.819535 
L 589.425148 377.794143 
L 590.704984 378.071557 
L 591.98482 378.052941 
L 593.264656 380.440269 
L 594.544492 380.44631 
L 595.824328 387.076687 
L 597.104164 387.084965 
L 598.384 387.640208 
L 599.663836 387.640756 
L 600.943672 388.126479 
L 602.223508 388.196559 
L 603.503344 387.829459 
L 604.78318 387.829459 
L 606.063016 387.684197 
L 607.342852 387.668538 
L 608.622687 386.671869 
L 609.902523 386.670103 
L 611.182359 388.761349 
L 612.462195 388.76182 
L 613.742031 385.512174 
L 615.021867 385.512174 
L 616.301703 384.446759 
L 617.581539 384.392975 
L 618.861375 386.98438 
L 620.141211 387.037189 
L 621.421047 387.521246 
L 622.700883 387.523895 
L 623.980719 393.106026 
L 627.820227 393.179594 
L 629.100062 393.857979 
L 630.379898 393.85787 
L 631.659734 392.170174 
L 632.93957 392.181137 
L 634.219406 389.299252 
L 638.058914 389.375274 
L 639.33875 389.500063 
L 640.618586 389.498031 
L 641.898422 392.200155 
L 643.178258 392.233939 
L 644.458094 390.621489 
L 645.73793 390.600815 
L 647.017766 394.752627 
L 648.297602 394.753351 
L 649.577437 393.916322 
L 650.857273 393.912811 
L 652.137109 394.678007 
L 653.416945 394.654798 
L 654.696781 395.284466 
L 658.536289 395.285527 
L 659.816125 396.482074 
L 661.095961 396.514539 
L 662.375797 397.705758 
L 663.655633 397.706696 
L 664.935469 398.524681 
L 666.215305 398.53224 
L 667.495141 398.872215 
L 671.334648 398.761896 
L 672.614484 396.514539 
L 673.89432 396.516208 
L 675.174156 396.799732 
L 676.453992 396.758279 
L 677.733828 399.283494 
L 679.013664 399.285218 
L 680.2935 401.034559 
L 681.573336 401.038132 
L 682.853172 403.298709 
L 684.133008 403.295274 
L 685.412844 400.225475 
L 686.69268 400.225329 
L 687.972516 403.211726 
L 689.252352 403.21102 
L 690.532187 403.54653 
L 691.812023 403.598155 
L 693.091859 399.35796 
L 694.371695 399.35563 
L 695.651531 400.023334 
L 696.931367 400.023334 
L 698.211203 401.978208 
L 699.491039 401.978208 
L 700.770875 403.296124 
L 702.050711 403.318353 
L 703.330547 400.511535 
L 704.610383 400.535647 
L 705.890219 402.920036 
L 707.170055 402.920036 
L 708.449891 406.900451 
L 709.729727 406.899726 
L 711.009562 406.700328 
L 712.289398 406.692263 
L 713.569234 404.841099 
L 714.84907 404.83607 
L 716.128906 405.360383 
L 717.408742 405.380034 
L 718.688578 406.764504 
L 719.968414 406.707694 
L 721.24825 408.85654 
L 722.528086 408.841475 
L 723.807922 409.117716 
L 725.087758 409.11782 
L 726.367594 411.530707 
L 727.64743 411.499105 
L 728.927266 413.859508 
L 730.207102 413.866035 
L 731.486937 409.348593 
L 735.326445 409.333339 
L 736.606281 406.431626 
L 737.886117 406.441682 
L 739.165953 411.27023 
L 740.445789 411.264272 
L 741.725625 413.813375 
L 743.005461 413.848457 
L 744.285297 413.429455 
L 745.565133 413.427808 
L 746.844969 414.511982 
L 748.124805 414.50861 
L 749.404641 416.776425 
L 750.684477 416.77539 
L 751.964312 420.825085 
L 753.244148 420.827836 
L 754.523984 423.645834 
L 755.80382 423.646241 
L 757.083656 425.706692 
L 758.363492 425.691415 
L 759.643328 427.626562 
L 760.923164 427.638027 
L 762.203 430.928282 
L 763.482836 430.93122 
L 764.762672 432.297596 
L 766.042508 432.297764 
L 767.322344 432.847932 
L 771.161852 432.82567 
L 772.441687 432.688939 
L 773.721523 432.676357 
L 775.001359 434.885258 
L 776.281195 434.884523 
L 777.561031 435.881616 
L 778.840867 435.881616 
L 780.120703 438.638257 
L 781.400539 438.653466 
L 782.680375 443.564067 
L 783.960211 443.55809 
L 785.240047 443.81422 
L 786.519883 443.812889 
L 787.799719 446.392804 
L 791.639227 446.39205 
L 792.919062 448.667529 
L 794.198898 448.666934 
L 795.478734 445.699205 
L 796.75857 445.699409 
L 798.038406 445.544779 
L 799.318242 445.53798 
L 800.598078 444.428415 
L 801.877914 444.428415 
L 804.437586 444.315071 
L 805.717422 443.594307 
L 806.997258 443.585735 
L 808.277094 443.863986 
L 809.55693 443.862692 
L 810.836766 444.107925 
L 814.676273 444.058519 
L 815.956109 448.062778 
L 817.235945 448.056942 
L 818.515781 448.355579 
L 819.795617 448.365637 
L 821.075453 447.532604 
L 824.914961 447.587954 
L 826.194797 447.051367 
L 827.474633 447.049087 
L 828.754469 445.148587 
L 830.034305 445.152073 
L 831.314141 448.110939 
L 832.593977 448.119152 
L 833.873812 448.876073 
L 835.153648 448.890113 
L 836.433484 454.866337 
L 837.71332 454.877809 
L 838.993156 454.543351 
L 842.832664 454.58234 
L 844.1125 456.576674 
L 845.392336 456.581898 
L 846.672172 460.314985 
L 847.952008 460.309184 
L 849.231844 461.060658 
L 850.51168 461.084407 
L 851.791516 461.236552 
L 853.071352 461.248073 
L 854.351187 462.198035 
L 855.631023 462.197702 
L 856.910859 460.356644 
L 858.190695 460.350283 
L 859.470531 463.063494 
L 860.750367 463.048736 
L 862.030203 464.295481 
L 863.310039 464.283274 
L 864.589875 462.203171 
L 865.869711 462.203171 
L 867.149547 466.121106 
L 868.429383 466.123265 
L 869.709219 465.99249 
L 870.989055 466.01163 
L 872.268891 466.191441 
L 873.548727 466.190126 
L 874.828562 468.481713 
L 876.108398 468.484903 
L 877.388234 468.608488 
L 878.66807 468.607945 
L 879.947906 469.098837 
L 881.227742 469.099399 
L 882.507578 472.351558 
L 883.787414 472.315118 
L 885.06725 473.394583 
L 886.347086 473.396851 
L 887.626922 475.129865 
L 888.906758 475.115049 
L 890.186594 477.803064 
L 891.46643 477.796841 
L 892.746266 481.10621 
L 894.026102 481.066963 
L 895.305937 482.576423 
L 896.585773 482.564391 
L 897.865609 485.452251 
L 899.145445 485.453904 
L 900.425281 488.595074 
L 901.705117 488.595501 
L 902.984953 493.674394 
L 904.264789 493.67829 
L 905.544625 495.598764 
L 906.824461 495.582557 
L 908.104297 499.93976 
L 909.384133 499.929671 
L 910.663969 504.144896 
L 911.943805 504.141772 
L 913.223641 505.7351 
L 914.503477 505.750495 
L 915.783312 507.315433 
L 917.063148 507.307455 
L 918.342984 513.341639 
L 919.62282 513.293003 
L 920.902656 511.551231 
L 922.182492 511.572613 
L 923.462328 513.445224 
L 924.742164 513.574546 
L 926.022 516.326634 
L 927.301836 516.281803 
L 928.581672 516.108096 
L 929.861508 516.108096 
L 931.141344 517.795703 
L 932.42118 517.839521 
L 933.701016 518.818022 
L 934.980852 518.846845 
L 936.260687 521.490429 
L 942.659867 521.62909 
L 943.939703 525.659898 
L 945.219539 525.671968 
L 946.499375 525.195985 
L 947.779211 525.197048 
L 949.059047 523.600959 
L 950.338883 523.604912 
L 951.618719 527.461444 
L 952.898555 527.460791 
L 954.178391 529.104363 
L 955.458227 529.106434 
L 956.738062 529.570249 
L 958.017898 529.53086 
L 959.297734 529.159528 
L 960.57757 529.159589 
L 961.857406 529.046371 
L 963.137242 529.046588 
L 964.417078 533.691661 
L 965.696914 533.679559 
L 966.97675 534.930596 
L 968.256586 534.930404 
L 969.536422 538.02923 
L 970.816258 538.016105 
L 972.096094 540.174162 
L 973.37593 540.156862 
L 974.655766 542.571087 
L 975.935602 542.599051 
L 977.215437 542.787536 
L 978.495273 542.806455 
L 979.775109 544.110296 
L 981.054945 544.099163 
L 982.334781 541.826375 
L 983.614617 541.874876 
L 984.894453 544.934278 
L 986.174289 544.934259 
L 987.454125 542.252468 
L 988.733961 542.256339 
L 990.013797 544.309189 
L 991.293633 544.331124 
L 992.573469 543.760149 
L 993.853305 543.779309 
L 995.133141 545.325204 
L 996.412977 545.329642 
L 997.692812 548.114767 
L 998.972648 548.106717 
L 1000.252484 550.817549 
L 1001.53232 550.817549 
L 1002.812156 552.913747 
L 1006.651664 552.951739 
L 1007.9315 554.447267 
L 1009.211336 554.439981 
L 1010.491172 554.114304 
L 1011.771008 554.094643 
L 1013.050844 553.34752 
L 1014.33068 553.311934 
L 1015.610516 555.304121 
L 1019.450023 555.242423 
L 1020.729859 555.625958 
L 1022.009695 555.643742 
L 1023.289531 559.696682 
L 1024.569367 559.696682 
L 1025.849203 558.181717 
L 1027.129039 558.151413 
L 1028.408875 561.422232 
L 1029.688711 561.44361 
L 1030.968547 562.061102 
L 1032.248383 562.060354 
L 1033.528219 562.93713 
L 1034.808055 562.946896 
L 1036.087891 566.694776 
L 1039.927398 566.692185 
L 1041.207234 571.033872 
L 1042.48707 571.09401 
L 1043.766906 575.848083 
L 1047.606414 575.675545 
L 1048.88625 573.768225 
L 1050.166086 573.767186 
L 1051.445922 571.243328 
L 1052.725758 571.241589 
L 1054.005594 567.531595 
L 1055.28543 567.553411 
L 1056.565266 568.680214 
L 1057.845102 568.618561 
L 1059.124937 572.120349 
L 1060.404773 572.097857 
L 1061.684609 573.243349 
L 1062.964445 573.24291 
L 1064.244281 572.936882 
L 1065.524117 572.943845 
L 1066.803953 572.143766 
L 1068.083789 572.143766 
L 1069.363625 569.978069 
L 1070.643461 569.992068 
L 1071.923297 570.22042 
L 1073.203133 570.218327 
L 1074.482969 569.193632 
L 1075.762805 569.200908 
L 1077.042641 572.305803 
L 1078.322477 572.316309 
L 1079.602312 571.027784 
L 1080.882148 571.02584 
L 1082.161984 573.440833 
L 1083.44182 573.444805 
L 1084.721656 576.334755 
L 1086.001492 576.315818 
L 1087.281328 577.435392 
L 1088.561164 577.434828 
L 1089.841 577.234668 
L 1091.120836 577.234668 
L 1092.400672 578.657174 
L 1093.680508 578.656346 
L 1094.960344 579.787108 
L 1096.24018 579.820124 
L 1097.520016 584.701871 
L 1098.799852 584.737811 
L 1100.079687 586.207003 
L 1101.359523 586.189654 
L 1102.639359 589.270601 
L 1103.919195 589.259393 
L 1105.199031 590.017552 
L 1106.478867 590.027829 
L 1107.758703 593.574837 
L 1109.038539 593.574755 
L 1110.318375 594.545409 
L 1111.598211 594.579114 
L 1112.878047 597.27845 
L 1114.157883 597.281552 
L 1115.437719 601.074652 
L 1116.717555 601.088035 
L 1117.997391 600.979408 
L 1119.277227 601.014684 
L 1120.557062 603.336661 
L 1121.836898 603.295643 
L 1123.116734 605.813361 
L 1124.39657 605.820892 
L 1125.676406 607.002216 
L 1126.956242 607.00034 
L 1128.236078 606.548213 
L 1129.515914 606.505337 
L 1130.79575 609.109081 
L 1132.075586 609.123922 
L 1133.355422 612.115654 
L 1134.635258 612.119183 
L 1135.915094 614.949925 
L 1137.19493 614.949925 
L 1138.474766 616.417365 
L 1139.754602 616.403224 
L 1141.034437 617.995924 
L 1142.314273 618.014193 
L 1143.594109 621.954769 
L 1144.873945 621.930436 
L 1146.153781 620.904744 
L 1147.433617 620.882336 
L 1148.713453 623.307998 
L 1149.993289 623.315855 
L 1151.273125 623.833009 
L 1152.552961 623.81257 
L 1153.832797 625.051594 
L 1155.112633 625.051325 
L 1156.392469 626.797554 
L 1157.672305 626.793353 
L 1158.952141 628.945427 
L 1160.231977 628.934977 
L 1161.511812 628.106478 
L 1162.791648 628.097011 
L 1164.071484 625.595159 
L 1165.35132 625.587073 
L 1166.631156 628.640045 
L 1167.910992 628.670167 
L 1169.190828 629.176742 
L 1170.470664 629.175647 
L 1171.7505 634.768083 
L 1173.030336 634.758962 
L 1174.310172 633.689184 
L 1175.590008 633.709593 
L 1176.869844 633.97219 
L 1178.14968 633.972765 
L 1179.429516 633.121287 
L 1180.709352 633.122982 
L 1181.989187 631.55436 
L 1183.269023 631.571368 
L 1184.548859 633.084344 
L 1185.828695 633.082101 
L 1187.108531 633.977294 
L 1188.388367 633.978283 
L 1189.668203 635.289911 
L 1190.948039 635.289911 
L 1192.227875 639.986122 
L 1193.507711 639.983223 
L 1194.787547 642.381727 
L 1196.067383 642.381727 
L 1197.347219 645.179401 
L 1198.627055 645.181669 
L 1199.906891 646.200502 
L 1201.186727 646.229471 
L 1202.466562 648.321666 
L 1203.746398 648.345563 
L 1205.026234 648.90599 
L 1206.30607 648.90599 
L 1207.585906 650.584788 
L 1208.865742 650.586438 
L 1210.145578 652.102158 
L 1211.425414 652.103018 
L 1212.70525 653.628794 
L 1213.985086 653.592004 
L 1215.264922 654.868765 
L 1216.544758 654.863537 
L 1217.824594 654.102445 
L 1219.10443 654.102425 
L 1220.384266 653.450802 
L 1221.664102 653.480111 
L 1222.943937 656.40611 
L 1224.223773 656.4399 
L 1225.503609 658.524974 
L 1226.783445 658.456308 
L 1228.063281 657.138932 
L 1229.343117 657.147701 
L 1230.622953 657.508971 
L 1231.902789 657.510374 
L 1233.182625 659.929095 
L 1234.462461 659.942725 
L 1235.742297 662.968274 
L 1237.022133 662.951932 
L 1238.301969 665.847207 
L 1239.581805 665.847657 
L 1240.861641 664.757514 
L 1242.141477 664.732396 
L 1243.421312 669.079618 
L 1244.701148 669.074506 
L 1245.980984 670.32609 
L 1247.26082 670.324112 
L 1248.540656 669.411351 
L 1249.820492 669.410542 
L 1251.100328 667.606347 
L 1252.380164 667.617254 
L 1253.66 669.22066 
L 1254.939836 669.221928 
L 1256.219672 669.573822 
L 1257.499508 669.568201 
L 1258.779344 675.172684 
L 1262.618852 675.065308 
L 1263.898687 676.754615 
L 1265.178523 676.779906 
L 1266.458359 680.229013 
L 1267.738195 680.228979 
L 1269.018031 678.78705 
L 1270.297867 678.815891 
L 1271.577703 680.004284 
L 1272.857539 680.012405 
L 1274.137375 679.452219 
L 1275.417211 679.432105 
L 1276.697047 684.202561 
L 1277.976883 684.202466 
L 1279.256719 686.194928 
L 1280.536555 686.191821 
L 1281.816391 688.369677 
L 1283.096227 688.378831 
L 1284.376062 689.756007 
L 1285.655898 689.768144 
L 1286.935734 689.28761 
L 1288.21557 689.281782 
L 1289.495406 693.25147 
L 1290.775242 693.245558 
L 1292.055078 692.490603 
L 1293.334914 692.462029 
L 1294.61475 695.848928 
L 1295.894586 695.88474 
L 1297.174422 698.493635 
L 1298.454258 698.502154 
L 1299.734094 699.740193 
L 1301.01393 699.695489 
L 1302.293766 702.893899 
L 1303.573602 702.904542 
L 1304.853437 704.514984 
L 1306.133273 704.50918 
L 1307.413109 708.377348 
L 1308.692945 708.373143 
L 1309.972781 714.382977 
L 1311.252617 714.381802 
L 1312.532453 717.85357 
L 1313.812289 717.874518 
L 1315.092125 723.459085 
L 1316.371961 723.448298 
L 1317.651797 722.997472 
L 1318.931633 723.000522 
L 1320.211469 725.327085 
L 1321.491305 725.325292 
L 1322.771141 726.3059 
L 1324.050977 726.314639 
L 1325.330812 728.335886 
L 1326.610648 728.354212 
L 1327.890484 728.072614 
L 1329.17032 728.074728 
L 1330.450156 729.24822 
L 1331.729992 729.217395 
L 1333.009828 724.758576 
L 1334.289664 724.712893 
L 1335.5695 728.505943 
L 1336.849336 728.446765 
L 1338.129172 725.742852 
L 1339.409008 725.758877 
L 1340.688844 726.974558 
L 1341.96868 726.999226 
L 1343.248516 728.385828 
L 1344.528352 728.379317 
L 1345.808187 731.012198 
L 1347.088023 731.045405 
L 1348.367859 731.272002 
L 1349.647695 731.261676 
L 1350.927531 735.060028 
L 1352.207367 735.060028 
L 1353.487203 734.566802 
L 1354.767039 734.566802 
L 1356.046875 734.409837 
L 1356.046875 734.409837 
" style="fill:none;stroke:#008000;stroke-linecap:square;stroke-width:2.0;"/>
   </g>
   <g id="patch_3">
    <path d="M 76.210938 57.917187 
L 1356.046875 57.917187 
" style="fill:none;stroke:#000000;stroke-linecap:square;stroke-linejoin:miter;"/>
   </g>
   <g id="patch_4">
    <path d="M 1356.046875 770.34375 
L 1356.046875 57.917187 
" style="fill:none;stroke:#000000;stroke-linecap:square;stroke-linejoin:miter;"/>
   </g>
   <g id="patch_5">
    <path d="M 76.210938 770.34375 
L 1356.046875 770.34375 
" style="fill:none;stroke:#000000;stroke-linecap:square;stroke-linejoin:miter;"/>
   </g>
   <g id="patch_6">
    <path d="M 76.210938 770.34375 
L 76.210938 57.917187 
" style="fill:none;stroke:#000000;stroke-linecap:square;stroke-linejoin:miter;"/>
   </g>
   <g id="matplotlib.axis_1">
    <g id="xtick_1">
     <g id="line2d_3">
      <defs>
       <path d="M 0 0 
L 0 -4 
" id="m8b02af57a5" style="stroke:#000000;stroke-width:0.5;"/>
      </defs>
      <g>
       <use style="stroke:#000000;stroke-width:0.5;" x="76.2109375" xlink:href="#m8b02af57a5" y="770.34375"/>
      </g>
     </g>
     <g id="line2d_4">
      <defs>
       <path d="M 0 0 
L 0 4 
" id="mbc25835979" style="stroke:#000000;stroke-width:0.5;"/>
      </defs>
      <g>
       <use style="stroke:#000000;stroke-width:0.5;" x="76.2109375" xlink:href="#mbc25835979" y="57.9171875"/>
      </g>
     </g>
     <g id="text_1">
      <!-- 0 -->
      <defs>
       <path d="M 31.78125 66.40625 
Q 24.171875 66.40625 20.328125 58.90625 
Q 16.5 51.421875 16.5 36.375 
Q 16.5 21.390625 20.328125 13.890625 
Q 24.171875 6.390625 31.78125 6.390625 
Q 39.453125 6.390625 43.28125 13.890625 
Q 47.125 21.390625 47.125 36.375 
Q 47.125 51.421875 43.28125 58.90625 
Q 39.453125 66.40625 31.78125 66.40625 
M 31.78125 74.21875 
Q 44.046875 74.21875 50.515625 64.515625 
Q 56.984375 54.828125 56.984375 36.375 
Q 56.984375 17.96875 50.515625 8.265625 
Q 44.046875 -1.421875 31.78125 -1.421875 
Q 19.53125 -1.421875 13.0625 8.265625 
Q 6.59375 17.96875 6.59375 36.375 
Q 6.59375 54.828125 13.0625 64.515625 
Q 19.53125 74.21875 31.78125 74.21875 
" id="BitstreamVeraSans-Roman-30"/>
      </defs>
      <g transform="translate(66.6671875 797.1390625)scale(0.3 -0.3)">
       <use xlink:href="#BitstreamVeraSans-Roman-30"/>
      </g>
     </g>
    </g>
    <g id="xtick_2">
     <g id="line2d_5">
      <g>
       <use style="stroke:#000000;stroke-width:0.5;" x="332.178125" xlink:href="#m8b02af57a5" y="770.34375"/>
      </g>
     </g>
     <g id="line2d_6">
      <g>
       <use style="stroke:#000000;stroke-width:0.5;" x="332.178125" xlink:href="#mbc25835979" y="57.9171875"/>
      </g>
     </g>
     <g id="text_2">
      <!-- 20000 -->
      <defs>
       <path d="M 19.1875 8.296875 
L 53.609375 8.296875 
L 53.609375 0 
L 7.328125 0 
L 7.328125 8.296875 
Q 12.9375 14.109375 22.625 23.890625 
Q 32.328125 33.6875 34.8125 36.53125 
Q 39.546875 41.84375 41.421875 45.53125 
Q 43.3125 49.21875 43.3125 52.78125 
Q 43.3125 58.59375 39.234375 62.25 
Q 35.15625 65.921875 28.609375 65.921875 
Q 23.96875 65.921875 18.8125 64.3125 
Q 13.671875 62.703125 7.8125 59.421875 
L 7.8125 69.390625 
Q 13.765625 71.78125 18.9375 73 
Q 24.125 74.21875 28.421875 74.21875 
Q 39.75 74.21875 46.484375 68.546875 
Q 53.21875 62.890625 53.21875 53.421875 
Q 53.21875 48.921875 51.53125 44.890625 
Q 49.859375 40.875 45.40625 35.40625 
Q 44.1875 33.984375 37.640625 27.21875 
Q 31.109375 20.453125 19.1875 8.296875 
" id="BitstreamVeraSans-Roman-32"/>
      </defs>
      <g transform="translate(284.459375 797.1390625)scale(0.3 -0.3)">
       <use xlink:href="#BitstreamVeraSans-Roman-32"/>
       <use x="63.623046875" xlink:href="#BitstreamVeraSans-Roman-30"/>
       <use x="127.24609375" xlink:href="#BitstreamVeraSans-Roman-30"/>
       <use x="190.869140625" xlink:href="#BitstreamVeraSans-Roman-30"/>
       <use x="254.4921875" xlink:href="#BitstreamVeraSans-Roman-30"/>
      </g>
     </g>
    </g>
    <g id="xtick_3">
     <g id="line2d_7">
      <g>
       <use style="stroke:#000000;stroke-width:0.5;" x="588.1453125" xlink:href="#m8b02af57a5" y="770.34375"/>
      </g>
     </g>
     <g id="line2d_8">
      <g>
       <use style="stroke:#000000;stroke-width:0.5;" x="588.1453125" xlink:href="#mbc25835979" y="57.9171875"/>
      </g>
     </g>
     <g id="text_3">
      <!-- 40000 -->
      <defs>
       <path d="M 37.796875 64.3125 
L 12.890625 25.390625 
L 37.796875 25.390625 
z
M 35.203125 72.90625 
L 47.609375 72.90625 
L 47.609375 25.390625 
L 58.015625 25.390625 
L 58.015625 17.1875 
L 47.609375 17.1875 
L 47.609375 0 
L 37.796875 0 
L 37.796875 17.1875 
L 4.890625 17.1875 
L 4.890625 26.703125 
z
" id="BitstreamVeraSans-Roman-34"/>
      </defs>
      <g transform="translate(540.4265625 797.1390625)scale(0.3 -0.3)">
       <use xlink:href="#BitstreamVeraSans-Roman-34"/>
       <use x="63.623046875" xlink:href="#BitstreamVeraSans-Roman-30"/>
       <use x="127.24609375" xlink:href="#BitstreamVeraSans-Roman-30"/>
       <use x="190.869140625" xlink:href="#BitstreamVeraSans-Roman-30"/>
       <use x="254.4921875" xlink:href="#BitstreamVeraSans-Roman-30"/>
      </g>
     </g>
    </g>
    <g id="xtick_4">
     <g id="line2d_9">
      <g>
       <use style="stroke:#000000;stroke-width:0.5;" x="844.1125" xlink:href="#m8b02af57a5" y="770.34375"/>
      </g>
     </g>
     <g id="line2d_10">
      <g>
       <use style="stroke:#000000;stroke-width:0.5;" x="844.1125" xlink:href="#mbc25835979" y="57.9171875"/>
      </g>
     </g>
     <g id="text_4">
      <!-- 60000 -->
      <defs>
       <path d="M 33.015625 40.375 
Q 26.375 40.375 22.484375 35.828125 
Q 18.609375 31.296875 18.609375 23.390625 
Q 18.609375 15.53125 22.484375 10.953125 
Q 26.375 6.390625 33.015625 6.390625 
Q 39.65625 6.390625 43.53125 10.953125 
Q 47.40625 15.53125 47.40625 23.390625 
Q 47.40625 31.296875 43.53125 35.828125 
Q 39.65625 40.375 33.015625 40.375 
M 52.59375 71.296875 
L 52.59375 62.3125 
Q 48.875 64.0625 45.09375 64.984375 
Q 41.3125 65.921875 37.59375 65.921875 
Q 27.828125 65.921875 22.671875 59.328125 
Q 17.53125 52.734375 16.796875 39.40625 
Q 19.671875 43.65625 24.015625 45.921875 
Q 28.375 48.1875 33.59375 48.1875 
Q 44.578125 48.1875 50.953125 41.515625 
Q 57.328125 34.859375 57.328125 23.390625 
Q 57.328125 12.15625 50.6875 5.359375 
Q 44.046875 -1.421875 33.015625 -1.421875 
Q 20.359375 -1.421875 13.671875 8.265625 
Q 6.984375 17.96875 6.984375 36.375 
Q 6.984375 53.65625 15.1875 63.9375 
Q 23.390625 74.21875 37.203125 74.21875 
Q 40.921875 74.21875 44.703125 73.484375 
Q 48.484375 72.75 52.59375 71.296875 
" id="BitstreamVeraSans-Roman-36"/>
      </defs>
      <g transform="translate(796.39375 797.1390625)scale(0.3 -0.3)">
       <use xlink:href="#BitstreamVeraSans-Roman-36"/>
       <use x="63.623046875" xlink:href="#BitstreamVeraSans-Roman-30"/>
       <use x="127.24609375" xlink:href="#BitstreamVeraSans-Roman-30"/>
       <use x="190.869140625" xlink:href="#BitstreamVeraSans-Roman-30"/>
       <use x="254.4921875" xlink:href="#BitstreamVeraSans-Roman-30"/>
      </g>
     </g>
    </g>
    <g id="xtick_5">
     <g id="line2d_11">
      <g>
       <use style="stroke:#000000;stroke-width:0.5;" x="1100.0796875" xlink:href="#m8b02af57a5" y="770.34375"/>
      </g>
     </g>
     <g id="line2d_12">
      <g>
       <use style="stroke:#000000;stroke-width:0.5;" x="1100.0796875" xlink:href="#mbc25835979" y="57.9171875"/>
      </g>
     </g>
     <g id="text_5">
      <!-- 80000 -->
      <defs>
       <path d="M 31.78125 34.625 
Q 24.75 34.625 20.71875 30.859375 
Q 16.703125 27.09375 16.703125 20.515625 
Q 16.703125 13.921875 20.71875 10.15625 
Q 24.75 6.390625 31.78125 6.390625 
Q 38.8125 6.390625 42.859375 10.171875 
Q 46.921875 13.96875 46.921875 20.515625 
Q 46.921875 27.09375 42.890625 30.859375 
Q 38.875 34.625 31.78125 34.625 
M 21.921875 38.8125 
Q 15.578125 40.375 12.03125 44.71875 
Q 8.5 49.078125 8.5 55.328125 
Q 8.5 64.0625 14.71875 69.140625 
Q 20.953125 74.21875 31.78125 74.21875 
Q 42.671875 74.21875 48.875 69.140625 
Q 55.078125 64.0625 55.078125 55.328125 
Q 55.078125 49.078125 51.53125 44.71875 
Q 48 40.375 41.703125 38.8125 
Q 48.828125 37.15625 52.796875 32.3125 
Q 56.78125 27.484375 56.78125 20.515625 
Q 56.78125 9.90625 50.3125 4.234375 
Q 43.84375 -1.421875 31.78125 -1.421875 
Q 19.734375 -1.421875 13.25 4.234375 
Q 6.78125 9.90625 6.78125 20.515625 
Q 6.78125 27.484375 10.78125 32.3125 
Q 14.796875 37.15625 21.921875 38.8125 
M 18.3125 54.390625 
Q 18.3125 48.734375 21.84375 45.5625 
Q 25.390625 42.390625 31.78125 42.390625 
Q 38.140625 42.390625 41.71875 45.5625 
Q 45.3125 48.734375 45.3125 54.390625 
Q 45.3125 60.0625 41.71875 63.234375 
Q 38.140625 66.40625 31.78125 66.40625 
Q 25.390625 66.40625 21.84375 63.234375 
Q 18.3125 60.0625 18.3125 54.390625 
" id="BitstreamVeraSans-Roman-38"/>
      </defs>
      <g transform="translate(1052.3609375 797.1390625)scale(0.3 -0.3)">
       <use xlink:href="#BitstreamVeraSans-Roman-38"/>
       <use x="63.623046875" xlink:href="#BitstreamVeraSans-Roman-30"/>
       <use x="127.24609375" xlink:href="#BitstreamVeraSans-Roman-30"/>
       <use x="190.869140625" xlink:href="#BitstreamVeraSans-Roman-30"/>
       <use x="254.4921875" xlink:href="#BitstreamVeraSans-Roman-30"/>
      </g>
     </g>
    </g>
    <g id="xtick_6">
     <g id="line2d_13">
      <g>
       <use style="stroke:#000000;stroke-width:0.5;" x="1356.046875" xlink:href="#m8b02af57a5" y="770.34375"/>
      </g>
     </g>
     <g id="line2d_14">
      <g>
       <use style="stroke:#000000;stroke-width:0.5;" x="1356.046875" xlink:href="#mbc25835979" y="57.9171875"/>
      </g>
     </g>
     <g id="text_6">
      <!-- 100000 -->
      <defs>
       <path d="M 12.40625 8.296875 
L 28.515625 8.296875 
L 28.515625 63.921875 
L 10.984375 60.40625 
L 10.984375 69.390625 
L 28.421875 72.90625 
L 38.28125 72.90625 
L 38.28125 8.296875 
L 54.390625 8.296875 
L 54.390625 0 
L 12.40625 0 
z
" id="BitstreamVeraSans-Roman-31"/>
      </defs>
      <g transform="translate(1298.784375 797.1390625)scale(0.3 -0.3)">
       <use xlink:href="#BitstreamVeraSans-Roman-31"/>
       <use x="63.623046875" xlink:href="#BitstreamVeraSans-Roman-30"/>
       <use x="127.24609375" xlink:href="#BitstreamVeraSans-Roman-30"/>
       <use x="190.869140625" xlink:href="#BitstreamVeraSans-Roman-30"/>
       <use x="254.4921875" xlink:href="#BitstreamVeraSans-Roman-30"/>
       <use x="318.115234375" xlink:href="#BitstreamVeraSans-Roman-30"/>
      </g>
     </g>
    </g>
    <g id="text_7">
     <!-- iterations -->
     <defs>
      <path d="M 54.890625 33.015625 
L 54.890625 0 
L 45.90625 0 
L 45.90625 32.71875 
Q 45.90625 40.484375 42.875 44.328125 
Q 39.84375 48.1875 33.796875 48.1875 
Q 26.515625 48.1875 22.3125 43.546875 
Q 18.109375 38.921875 18.109375 30.90625 
L 18.109375 0 
L 9.078125 0 
L 9.078125 54.6875 
L 18.109375 54.6875 
L 18.109375 46.1875 
Q 21.34375 51.125 25.703125 53.5625 
Q 30.078125 56 35.796875 56 
Q 45.21875 56 50.046875 50.171875 
Q 54.890625 44.34375 54.890625 33.015625 
" id="BitstreamVeraSans-Roman-6e"/>
      <path d="M 34.28125 27.484375 
Q 23.390625 27.484375 19.1875 25 
Q 14.984375 22.515625 14.984375 16.5 
Q 14.984375 11.71875 18.140625 8.90625 
Q 21.296875 6.109375 26.703125 6.109375 
Q 34.1875 6.109375 38.703125 11.40625 
Q 43.21875 16.703125 43.21875 25.484375 
L 43.21875 27.484375 
z
M 52.203125 31.203125 
L 52.203125 0 
L 43.21875 0 
L 43.21875 8.296875 
Q 40.140625 3.328125 35.546875 0.953125 
Q 30.953125 -1.421875 24.3125 -1.421875 
Q 15.921875 -1.421875 10.953125 3.296875 
Q 6 8.015625 6 15.921875 
Q 6 25.140625 12.171875 29.828125 
Q 18.359375 34.515625 30.609375 34.515625 
L 43.21875 34.515625 
L 43.21875 35.40625 
Q 43.21875 41.609375 39.140625 45 
Q 35.0625 48.390625 27.6875 48.390625 
Q 23 48.390625 18.546875 47.265625 
Q 14.109375 46.140625 10.015625 43.890625 
L 10.015625 52.203125 
Q 14.9375 54.109375 19.578125 55.046875 
Q 24.21875 56 28.609375 56 
Q 40.484375 56 46.34375 49.84375 
Q 52.203125 43.703125 52.203125 31.203125 
" id="BitstreamVeraSans-Roman-61"/>
      <path d="M 30.609375 48.390625 
Q 23.390625 48.390625 19.1875 42.75 
Q 14.984375 37.109375 14.984375 27.296875 
Q 14.984375 17.484375 19.15625 11.84375 
Q 23.34375 6.203125 30.609375 6.203125 
Q 37.796875 6.203125 41.984375 11.859375 
Q 46.1875 17.53125 46.1875 27.296875 
Q 46.1875 37.015625 41.984375 42.703125 
Q 37.796875 48.390625 30.609375 48.390625 
M 30.609375 56 
Q 42.328125 56 49.015625 48.375 
Q 55.71875 40.765625 55.71875 27.296875 
Q 55.71875 13.875 49.015625 6.21875 
Q 42.328125 -1.421875 30.609375 -1.421875 
Q 18.84375 -1.421875 12.171875 6.21875 
Q 5.515625 13.875 5.515625 27.296875 
Q 5.515625 40.765625 12.171875 48.375 
Q 18.84375 56 30.609375 56 
" id="BitstreamVeraSans-Roman-6f"/>
      <path d="M 9.421875 54.6875 
L 18.40625 54.6875 
L 18.40625 0 
L 9.421875 0 
z
M 9.421875 75.984375 
L 18.40625 75.984375 
L 18.40625 64.59375 
L 9.421875 64.59375 
z
" id="BitstreamVeraSans-Roman-69"/>
      <path d="M 56.203125 29.59375 
L 56.203125 25.203125 
L 14.890625 25.203125 
Q 15.484375 15.921875 20.484375 11.0625 
Q 25.484375 6.203125 34.421875 6.203125 
Q 39.59375 6.203125 44.453125 7.46875 
Q 49.3125 8.734375 54.109375 11.28125 
L 54.109375 2.78125 
Q 49.265625 0.734375 44.1875 -0.34375 
Q 39.109375 -1.421875 33.890625 -1.421875 
Q 20.796875 -1.421875 13.15625 6.1875 
Q 5.515625 13.8125 5.515625 26.8125 
Q 5.515625 40.234375 12.765625 48.109375 
Q 20.015625 56 32.328125 56 
Q 43.359375 56 49.78125 48.890625 
Q 56.203125 41.796875 56.203125 29.59375 
M 47.21875 32.234375 
Q 47.125 39.59375 43.09375 43.984375 
Q 39.0625 48.390625 32.421875 48.390625 
Q 24.90625 48.390625 20.390625 44.140625 
Q 15.875 39.890625 15.1875 32.171875 
z
" id="BitstreamVeraSans-Roman-65"/>
      <path d="M 18.3125 70.21875 
L 18.3125 54.6875 
L 36.8125 54.6875 
L 36.8125 47.703125 
L 18.3125 47.703125 
L 18.3125 18.015625 
Q 18.3125 11.328125 20.140625 9.421875 
Q 21.96875 7.515625 27.59375 7.515625 
L 36.8125 7.515625 
L 36.8125 0 
L 27.59375 0 
Q 17.1875 0 13.234375 3.875 
Q 9.28125 7.765625 9.28125 18.015625 
L 9.28125 47.703125 
L 2.6875 47.703125 
L 2.6875 54.6875 
L 9.28125 54.6875 
L 9.28125 70.21875 
z
" id="BitstreamVeraSans-Roman-74"/>
      <path d="M 41.109375 46.296875 
Q 39.59375 47.171875 37.8125 47.578125 
Q 36.03125 48 33.890625 48 
Q 26.265625 48 22.1875 43.046875 
Q 18.109375 38.09375 18.109375 28.8125 
L 18.109375 0 
L 9.078125 0 
L 9.078125 54.6875 
L 18.109375 54.6875 
L 18.109375 46.1875 
Q 20.953125 51.171875 25.484375 53.578125 
Q 30.03125 56 36.53125 56 
Q 37.453125 56 38.578125 55.875 
Q 39.703125 55.765625 41.0625 55.515625 
z
" id="BitstreamVeraSans-Roman-72"/>
      <path d="M 44.28125 53.078125 
L 44.28125 44.578125 
Q 40.484375 46.53125 36.375 47.5 
Q 32.28125 48.484375 27.875 48.484375 
Q 21.1875 48.484375 17.84375 46.4375 
Q 14.5 44.390625 14.5 40.28125 
Q 14.5 37.15625 16.890625 35.375 
Q 19.28125 33.59375 26.515625 31.984375 
L 29.59375 31.296875 
Q 39.15625 29.25 43.1875 25.515625 
Q 47.21875 21.78125 47.21875 15.09375 
Q 47.21875 7.46875 41.1875 3.015625 
Q 35.15625 -1.421875 24.609375 -1.421875 
Q 20.21875 -1.421875 15.453125 -0.5625 
Q 10.6875 0.296875 5.421875 2 
L 5.421875 11.28125 
Q 10.40625 8.6875 15.234375 7.390625 
Q 20.0625 6.109375 24.8125 6.109375 
Q 31.15625 6.109375 34.5625 8.28125 
Q 37.984375 10.453125 37.984375 14.40625 
Q 37.984375 18.0625 35.515625 20.015625 
Q 33.0625 21.96875 24.703125 23.78125 
L 21.578125 24.515625 
Q 13.234375 26.265625 9.515625 29.90625 
Q 5.8125 33.546875 5.8125 39.890625 
Q 5.8125 47.609375 11.28125 51.796875 
Q 16.75 56 26.8125 56 
Q 31.78125 56 36.171875 55.265625 
Q 40.578125 54.546875 44.28125 53.078125 
" id="BitstreamVeraSans-Roman-73"/>
     </defs>
     <g transform="translate(644.946875 831.1734375)scale(0.3 -0.3)">
      <use xlink:href="#BitstreamVeraSans-Roman-69"/>
      <use x="27.783203125" xlink:href="#BitstreamVeraSans-Roman-74"/>
      <use x="66.9921875" xlink:href="#BitstreamVeraSans-Roman-65"/>
      <use x="128.515625" xlink:href="#BitstreamVeraSans-Roman-72"/>
      <use x="169.62890625" xlink:href="#BitstreamVeraSans-Roman-61"/>
      <use x="230.908203125" xlink:href="#BitstreamVeraSans-Roman-74"/>
      <use x="270.1171875" xlink:href="#BitstreamVeraSans-Roman-69"/>
      <use x="297.900390625" xlink:href="#BitstreamVeraSans-Roman-6f"/>
      <use x="359.08203125" xlink:href="#BitstreamVeraSans-Roman-6e"/>
      <use x="422.4609375" xlink:href="#BitstreamVeraSans-Roman-73"/>
     </g>
    </g>
   </g>
   <g id="matplotlib.axis_2">
    <g id="ytick_1">
     <g id="line2d_15">
      <defs>
       <path d="M 0 0 
L 4 0 
" id="m969f735d2b" style="stroke:#000000;stroke-width:0.5;"/>
      </defs>
      <g>
       <use style="stroke:#000000;stroke-width:0.5;" x="76.2109375" xlink:href="#m969f735d2b" y="770.34375"/>
      </g>
     </g>
     <g id="line2d_16">
      <defs>
       <path d="M 0 0 
L -4 0 
" id="m4ebf6157ce" style="stroke:#000000;stroke-width:0.5;"/>
      </defs>
      <g>
       <use style="stroke:#000000;stroke-width:0.5;" x="1356.046875" xlink:href="#m4ebf6157ce" y="770.34375"/>
      </g>
     </g>
     <g id="text_8">
      <!-- 5 -->
      <defs>
       <path d="M 10.59375 35.5 
L 73.1875 35.5 
L 73.1875 27.203125 
L 10.59375 27.203125 
z
" id="BitstreamVeraSans-Roman-2212"/>
       <path d="M 10.796875 72.90625 
L 49.515625 72.90625 
L 49.515625 64.59375 
L 19.828125 64.59375 
L 19.828125 46.734375 
Q 21.96875 47.46875 24.109375 47.828125 
Q 26.265625 48.1875 28.421875 48.1875 
Q 40.625 48.1875 47.75 41.5 
Q 54.890625 34.8125 54.890625 23.390625 
Q 54.890625 11.625 47.5625 5.09375 
Q 40.234375 -1.421875 26.90625 -1.421875 
Q 22.3125 -1.421875 17.546875 -0.640625 
Q 12.796875 0.140625 7.71875 1.703125 
L 7.71875 11.625 
Q 12.109375 9.234375 16.796875 8.0625 
Q 21.484375 6.890625 26.703125 6.890625 
Q 35.15625 6.890625 40.078125 11.328125 
Q 45.015625 15.765625 45.015625 23.390625 
Q 45.015625 31 40.078125 35.4375 
Q 35.15625 39.890625 26.703125 39.890625 
Q 22.75 39.890625 18.8125 39.015625 
Q 14.890625 38.140625 10.796875 36.28125 
z
" id="BitstreamVeraSans-Roman-35"/>
      </defs>
      <g transform="translate(27.984375 778.621875)scale(0.3 -0.3)">
       <use xlink:href="#BitstreamVeraSans-Roman-2212"/>
       <use x="83.7890625" xlink:href="#BitstreamVeraSans-Roman-35"/>
      </g>
     </g>
    </g>
    <g id="ytick_2">
     <g id="line2d_17">
      <g>
       <use style="stroke:#000000;stroke-width:0.5;" x="76.2109375" xlink:href="#m969f735d2b" y="592.237109375"/>
      </g>
     </g>
     <g id="line2d_18">
      <g>
       <use style="stroke:#000000;stroke-width:0.5;" x="1356.046875" xlink:href="#m4ebf6157ce" y="592.237109375"/>
      </g>
     </g>
     <g id="text_9">
      <!-- 0 -->
      <g transform="translate(53.1234375 600.515234375)scale(0.3 -0.3)">
       <use xlink:href="#BitstreamVeraSans-Roman-30"/>
      </g>
     </g>
    </g>
    <g id="ytick_3">
     <g id="line2d_19">
      <g>
       <use style="stroke:#000000;stroke-width:0.5;" x="76.2109375" xlink:href="#m969f735d2b" y="414.13046875"/>
      </g>
     </g>
     <g id="line2d_20">
      <g>
       <use style="stroke:#000000;stroke-width:0.5;" x="1356.046875" xlink:href="#m4ebf6157ce" y="414.13046875"/>
      </g>
     </g>
     <g id="text_10">
      <!-- 5 -->
      <g transform="translate(53.1234375 422.40859375)scale(0.3 -0.3)">
       <use xlink:href="#BitstreamVeraSans-Roman-35"/>
      </g>
     </g>
    </g>
    <g id="ytick_4">
     <g id="line2d_21">
      <g>
       <use style="stroke:#000000;stroke-width:0.5;" x="76.2109375" xlink:href="#m969f735d2b" y="236.023828125"/>
      </g>
     </g>
     <g id="line2d_22">
      <g>
       <use style="stroke:#000000;stroke-width:0.5;" x="1356.046875" xlink:href="#m4ebf6157ce" y="236.023828125"/>
      </g>
     </g>
     <g id="text_11">
      <!-- 10 -->
      <g transform="translate(34.0359375 244.301953125)scale(0.3 -0.3)">
       <use xlink:href="#BitstreamVeraSans-Roman-31"/>
       <use x="63.623046875" xlink:href="#BitstreamVeraSans-Roman-30"/>
      </g>
     </g>
    </g>
    <g id="ytick_5">
     <g id="line2d_23">
      <g>
       <use style="stroke:#000000;stroke-width:0.5;" x="76.2109375" xlink:href="#m969f735d2b" y="57.9171875"/>
      </g>
     </g>
     <g id="line2d_24">
      <g>
       <use style="stroke:#000000;stroke-width:0.5;" x="1356.046875" xlink:href="#m4ebf6157ce" y="57.9171875"/>
      </g>
     </g>
     <g id="text_12">
      <!-- 15 -->
      <g transform="translate(34.0359375 66.1953125)scale(0.3 -0.3)">
       <use xlink:href="#BitstreamVeraSans-Roman-31"/>
       <use x="63.623046875" xlink:href="#BitstreamVeraSans-Roman-35"/>
      </g>
     </g>
    </g>
   </g>
   <g id="text_13">
    <!-- log(loss) -->
    <defs>
     <path d="M 8.015625 75.875 
L 15.828125 75.875 
Q 23.140625 64.359375 26.78125 53.3125 
Q 30.421875 42.28125 30.421875 31.390625 
Q 30.421875 20.453125 26.78125 9.375 
Q 23.140625 -1.703125 15.828125 -13.1875 
L 8.015625 -13.1875 
Q 14.5 -2 17.703125 9.0625 
Q 20.90625 20.125 20.90625 31.390625 
Q 20.90625 42.671875 17.703125 53.65625 
Q 14.5 64.65625 8.015625 75.875 
" id="BitstreamVeraSans-Roman-29"/>
     <path d="M 31 75.875 
Q 24.46875 64.65625 21.28125 53.65625 
Q 18.109375 42.671875 18.109375 31.390625 
Q 18.109375 20.125 21.3125 9.0625 
Q 24.515625 -2 31 -13.1875 
L 23.1875 -13.1875 
Q 15.875 -1.703125 12.234375 9.375 
Q 8.59375 20.453125 8.59375 31.390625 
Q 8.59375 42.28125 12.203125 53.3125 
Q 15.828125 64.359375 23.1875 75.875 
z
" id="BitstreamVeraSans-Roman-28"/>
     <path d="M 45.40625 27.984375 
Q 45.40625 37.75 41.375 43.109375 
Q 37.359375 48.484375 30.078125 48.484375 
Q 22.859375 48.484375 18.828125 43.109375 
Q 14.796875 37.75 14.796875 27.984375 
Q 14.796875 18.265625 18.828125 12.890625 
Q 22.859375 7.515625 30.078125 7.515625 
Q 37.359375 7.515625 41.375 12.890625 
Q 45.40625 18.265625 45.40625 27.984375 
M 54.390625 6.78125 
Q 54.390625 -7.171875 48.1875 -13.984375 
Q 42 -20.796875 29.203125 -20.796875 
Q 24.46875 -20.796875 20.265625 -20.09375 
Q 16.0625 -19.390625 12.109375 -17.921875 
L 12.109375 -9.1875 
Q 16.0625 -11.328125 19.921875 -12.34375 
Q 23.78125 -13.375 27.78125 -13.375 
Q 36.625 -13.375 41.015625 -8.765625 
Q 45.40625 -4.15625 45.40625 5.171875 
L 45.40625 9.625 
Q 42.625 4.78125 38.28125 2.390625 
Q 33.9375 0 27.875 0 
Q 17.828125 0 11.671875 7.65625 
Q 5.515625 15.328125 5.515625 27.984375 
Q 5.515625 40.671875 11.671875 48.328125 
Q 17.828125 56 27.875 56 
Q 33.9375 56 38.28125 53.609375 
Q 42.625 51.21875 45.40625 46.390625 
L 45.40625 54.6875 
L 54.390625 54.6875 
z
" id="BitstreamVeraSans-Roman-67"/>
     <path d="M 9.421875 75.984375 
L 18.40625 75.984375 
L 18.40625 0 
L 9.421875 0 
z
" id="BitstreamVeraSans-Roman-6c"/>
    </defs>
    <g transform="translate(652.5828125 52.9171875)scale(0.3 -0.3)">
     <use xlink:href="#BitstreamVeraSans-Roman-6c"/>
     <use x="27.783203125" xlink:href="#BitstreamVeraSans-Roman-6f"/>
     <use x="88.96484375" xlink:href="#BitstreamVeraSans-Roman-67"/>
     <use x="152.44140625" xlink:href="#BitstreamVeraSans-Roman-28"/>
     <use x="191.455078125" xlink:href="#BitstreamVeraSans-Roman-6c"/>
     <use x="219.23828125" xlink:href="#BitstreamVeraSans-Roman-6f"/>
     <use x="280.419921875" xlink:href="#BitstreamVeraSans-Roman-73"/>
     <use x="332.51953125" xlink:href="#BitstreamVeraSans-Roman-73"/>
     <use x="384.619140625" xlink:href="#BitstreamVeraSans-Roman-29"/>
    </g>
   </g>
   <g id="legend_1">
    <g id="patch_7">
     <path d="M 863.873437 169.985937 
L 1341.046875 169.985937 
L 1341.046875 72.917187 
L 863.873437 72.917187 
z
" style="fill:#ffffff;stroke:#000000;stroke-linejoin:miter;"/>
    </g>
    <g id="line2d_25">
     <path d="M 884.873437 97.2125 
L 926.873437 97.2125 
" style="fill:none;stroke:#0000ff;stroke-linecap:square;stroke-width:2.0;"/>
    </g>
    <g id="line2d_26"/>
    <g id="text_14">
     <!-- random: step=0.004893 -->
     <defs>
      <path id="BitstreamVeraSans-Roman-20"/>
      <path d="M 40.578125 39.3125 
Q 47.65625 37.796875 51.625 33 
Q 55.609375 28.21875 55.609375 21.1875 
Q 55.609375 10.40625 48.1875 4.484375 
Q 40.765625 -1.421875 27.09375 -1.421875 
Q 22.515625 -1.421875 17.65625 -0.515625 
Q 12.796875 0.390625 7.625 2.203125 
L 7.625 11.71875 
Q 11.71875 9.328125 16.59375 8.109375 
Q 21.484375 6.890625 26.8125 6.890625 
Q 36.078125 6.890625 40.9375 10.546875 
Q 45.796875 14.203125 45.796875 21.1875 
Q 45.796875 27.640625 41.28125 31.265625 
Q 36.765625 34.90625 28.71875 34.90625 
L 20.21875 34.90625 
L 20.21875 43.015625 
L 29.109375 43.015625 
Q 36.375 43.015625 40.234375 45.921875 
Q 44.09375 48.828125 44.09375 54.296875 
Q 44.09375 59.90625 40.109375 62.90625 
Q 36.140625 65.921875 28.71875 65.921875 
Q 24.65625 65.921875 20.015625 65.03125 
Q 15.375 64.15625 9.8125 62.3125 
L 9.8125 71.09375 
Q 15.4375 72.65625 20.34375 73.4375 
Q 25.25 74.21875 29.59375 74.21875 
Q 40.828125 74.21875 47.359375 69.109375 
Q 53.90625 64.015625 53.90625 55.328125 
Q 53.90625 49.265625 50.4375 45.09375 
Q 46.96875 40.921875 40.578125 39.3125 
" id="BitstreamVeraSans-Roman-33"/>
      <path d="M 52 44.1875 
Q 55.375 50.25 60.0625 53.125 
Q 64.75 56 71.09375 56 
Q 79.640625 56 84.28125 50.015625 
Q 88.921875 44.046875 88.921875 33.015625 
L 88.921875 0 
L 79.890625 0 
L 79.890625 32.71875 
Q 79.890625 40.578125 77.09375 44.375 
Q 74.3125 48.1875 68.609375 48.1875 
Q 61.625 48.1875 57.5625 43.546875 
Q 53.515625 38.921875 53.515625 30.90625 
L 53.515625 0 
L 44.484375 0 
L 44.484375 32.71875 
Q 44.484375 40.625 41.703125 44.40625 
Q 38.921875 48.1875 33.109375 48.1875 
Q 26.21875 48.1875 22.15625 43.53125 
Q 18.109375 38.875 18.109375 30.90625 
L 18.109375 0 
L 9.078125 0 
L 9.078125 54.6875 
L 18.109375 54.6875 
L 18.109375 46.1875 
Q 21.1875 51.21875 25.484375 53.609375 
Q 29.78125 56 35.6875 56 
Q 41.65625 56 45.828125 52.96875 
Q 50 49.953125 52 44.1875 
" id="BitstreamVeraSans-Roman-6d"/>
      <path d="M 10.984375 1.515625 
L 10.984375 10.5 
Q 14.703125 8.734375 18.5 7.8125 
Q 22.3125 6.890625 25.984375 6.890625 
Q 35.75 6.890625 40.890625 13.453125 
Q 46.046875 20.015625 46.78125 33.40625 
Q 43.953125 29.203125 39.59375 26.953125 
Q 35.25 24.703125 29.984375 24.703125 
Q 19.046875 24.703125 12.671875 31.3125 
Q 6.296875 37.9375 6.296875 49.421875 
Q 6.296875 60.640625 12.9375 67.421875 
Q 19.578125 74.21875 30.609375 74.21875 
Q 43.265625 74.21875 49.921875 64.515625 
Q 56.59375 54.828125 56.59375 36.375 
Q 56.59375 19.140625 48.40625 8.859375 
Q 40.234375 -1.421875 26.421875 -1.421875 
Q 22.703125 -1.421875 18.890625 -0.6875 
Q 15.09375 0.046875 10.984375 1.515625 
M 30.609375 32.421875 
Q 37.25 32.421875 41.125 36.953125 
Q 45.015625 41.5 45.015625 49.421875 
Q 45.015625 57.28125 41.125 61.84375 
Q 37.25 66.40625 30.609375 66.40625 
Q 23.96875 66.40625 20.09375 61.84375 
Q 16.21875 57.28125 16.21875 49.421875 
Q 16.21875 41.5 20.09375 36.953125 
Q 23.96875 32.421875 30.609375 32.421875 
" id="BitstreamVeraSans-Roman-39"/>
      <path d="M 11.71875 12.40625 
L 22.015625 12.40625 
L 22.015625 0 
L 11.71875 0 
z
M 11.71875 51.703125 
L 22.015625 51.703125 
L 22.015625 39.3125 
L 11.71875 39.3125 
z
" id="BitstreamVeraSans-Roman-3a"/>
      <path d="M 10.6875 12.40625 
L 21 12.40625 
L 21 0 
L 10.6875 0 
z
" id="BitstreamVeraSans-Roman-2e"/>
      <path d="M 10.59375 45.40625 
L 73.1875 45.40625 
L 73.1875 37.203125 
L 10.59375 37.203125 
z
M 10.59375 25.484375 
L 73.1875 25.484375 
L 73.1875 17.1875 
L 10.59375 17.1875 
z
" id="BitstreamVeraSans-Roman-3d"/>
      <path d="M 45.40625 46.390625 
L 45.40625 75.984375 
L 54.390625 75.984375 
L 54.390625 0 
L 45.40625 0 
L 45.40625 8.203125 
Q 42.578125 3.328125 38.25 0.953125 
Q 33.9375 -1.421875 27.875 -1.421875 
Q 17.96875 -1.421875 11.734375 6.484375 
Q 5.515625 14.40625 5.515625 27.296875 
Q 5.515625 40.1875 11.734375 48.09375 
Q 17.96875 56 27.875 56 
Q 33.9375 56 38.25 53.625 
Q 42.578125 51.265625 45.40625 46.390625 
M 14.796875 27.296875 
Q 14.796875 17.390625 18.875 11.75 
Q 22.953125 6.109375 30.078125 6.109375 
Q 37.203125 6.109375 41.296875 11.75 
Q 45.40625 17.390625 45.40625 27.296875 
Q 45.40625 37.203125 41.296875 42.84375 
Q 37.203125 48.484375 30.078125 48.484375 
Q 22.953125 48.484375 18.875 42.84375 
Q 14.796875 37.203125 14.796875 27.296875 
" id="BitstreamVeraSans-Roman-64"/>
      <path d="M 18.109375 8.203125 
L 18.109375 -20.796875 
L 9.078125 -20.796875 
L 9.078125 54.6875 
L 18.109375 54.6875 
L 18.109375 46.390625 
Q 20.953125 51.265625 25.265625 53.625 
Q 29.59375 56 35.59375 56 
Q 45.5625 56 51.78125 48.09375 
Q 58.015625 40.1875 58.015625 27.296875 
Q 58.015625 14.40625 51.78125 6.484375 
Q 45.5625 -1.421875 35.59375 -1.421875 
Q 29.59375 -1.421875 25.265625 0.953125 
Q 20.953125 3.328125 18.109375 8.203125 
M 48.6875 27.296875 
Q 48.6875 37.203125 44.609375 42.84375 
Q 40.53125 48.484375 33.40625 48.484375 
Q 26.265625 48.484375 22.1875 42.84375 
Q 18.109375 37.203125 18.109375 27.296875 
Q 18.109375 17.390625 22.1875 11.75 
Q 26.265625 6.109375 33.40625 6.109375 
Q 40.53125 6.109375 44.609375 11.75 
Q 48.6875 17.390625 48.6875 27.296875 
" id="BitstreamVeraSans-Roman-70"/>
     </defs>
     <g transform="translate(959.8734375 107.7125)scale(0.3 -0.3)">
      <use xlink:href="#BitstreamVeraSans-Roman-72"/>
      <use x="41.11328125" xlink:href="#BitstreamVeraSans-Roman-61"/>
      <use x="102.392578125" xlink:href="#BitstreamVeraSans-Roman-6e"/>
      <use x="165.771484375" xlink:href="#BitstreamVeraSans-Roman-64"/>
      <use x="229.248046875" xlink:href="#BitstreamVeraSans-Roman-6f"/>
      <use x="290.4296875" xlink:href="#BitstreamVeraSans-Roman-6d"/>
      <use x="387.841796875" xlink:href="#BitstreamVeraSans-Roman-3a"/>
      <use x="421.533203125" xlink:href="#BitstreamVeraSans-Roman-20"/>
      <use x="453.3203125" xlink:href="#BitstreamVeraSans-Roman-73"/>
      <use x="505.419921875" xlink:href="#BitstreamVeraSans-Roman-74"/>
      <use x="544.62890625" xlink:href="#BitstreamVeraSans-Roman-65"/>
      <use x="606.15234375" xlink:href="#BitstreamVeraSans-Roman-70"/>
      <use x="669.62890625" xlink:href="#BitstreamVeraSans-Roman-3d"/>
      <use x="753.41796875" xlink:href="#BitstreamVeraSans-Roman-30"/>
      <use x="817.041015625" xlink:href="#BitstreamVeraSans-Roman-2e"/>
      <use x="848.828125" xlink:href="#BitstreamVeraSans-Roman-30"/>
      <use x="912.451171875" xlink:href="#BitstreamVeraSans-Roman-30"/>
      <use x="976.07421875" xlink:href="#BitstreamVeraSans-Roman-34"/>
      <use x="1039.69726562" xlink:href="#BitstreamVeraSans-Roman-38"/>
      <use x="1103.3203125" xlink:href="#BitstreamVeraSans-Roman-39"/>
      <use x="1166.94335938" xlink:href="#BitstreamVeraSans-Roman-33"/>
     </g>
    </g>
    <g id="line2d_27">
     <path d="M 884.873437 141.246875 
L 926.873437 141.246875 
" style="fill:none;stroke:#008000;stroke-linecap:square;stroke-width:2.0;"/>
    </g>
    <g id="line2d_28"/>
    <g id="text_15">
     <!-- corr: step=0.004893 -->
     <defs>
      <path d="M 48.78125 52.59375 
L 48.78125 44.1875 
Q 44.96875 46.296875 41.140625 47.34375 
Q 37.3125 48.390625 33.40625 48.390625 
Q 24.65625 48.390625 19.8125 42.84375 
Q 14.984375 37.3125 14.984375 27.296875 
Q 14.984375 17.28125 19.8125 11.734375 
Q 24.65625 6.203125 33.40625 6.203125 
Q 37.3125 6.203125 41.140625 7.25 
Q 44.96875 8.296875 48.78125 10.40625 
L 48.78125 2.09375 
Q 45.015625 0.34375 40.984375 -0.53125 
Q 36.96875 -1.421875 32.421875 -1.421875 
Q 20.0625 -1.421875 12.78125 6.34375 
Q 5.515625 14.109375 5.515625 27.296875 
Q 5.515625 40.671875 12.859375 48.328125 
Q 20.21875 56 33.015625 56 
Q 37.15625 56 41.109375 55.140625 
Q 45.0625 54.296875 48.78125 52.59375 
" id="BitstreamVeraSans-Roman-63"/>
     </defs>
     <g transform="translate(959.8734375 151.746875)scale(0.3 -0.3)">
      <use xlink:href="#BitstreamVeraSans-Roman-63"/>
      <use x="54.98046875" xlink:href="#BitstreamVeraSans-Roman-6f"/>
      <use x="116.162109375" xlink:href="#BitstreamVeraSans-Roman-72"/>
      <use x="157.259765625" xlink:href="#BitstreamVeraSans-Roman-72"/>
      <use x="198.357421875" xlink:href="#BitstreamVeraSans-Roman-3a"/>
      <use x="232.048828125" xlink:href="#BitstreamVeraSans-Roman-20"/>
      <use x="263.8359375" xlink:href="#BitstreamVeraSans-Roman-73"/>
      <use x="315.935546875" xlink:href="#BitstreamVeraSans-Roman-74"/>
      <use x="355.14453125" xlink:href="#BitstreamVeraSans-Roman-65"/>
      <use x="416.66796875" xlink:href="#BitstreamVeraSans-Roman-70"/>
      <use x="480.14453125" xlink:href="#BitstreamVeraSans-Roman-3d"/>
      <use x="563.93359375" xlink:href="#BitstreamVeraSans-Roman-30"/>
      <use x="627.556640625" xlink:href="#BitstreamVeraSans-Roman-2e"/>
      <use x="659.34375" xlink:href="#BitstreamVeraSans-Roman-30"/>
      <use x="722.966796875" xlink:href="#BitstreamVeraSans-Roman-30"/>
      <use x="786.58984375" xlink:href="#BitstreamVeraSans-Roman-34"/>
      <use x="850.212890625" xlink:href="#BitstreamVeraSans-Roman-38"/>
      <use x="913.8359375" xlink:href="#BitstreamVeraSans-Roman-39"/>
      <use x="977.458984375" xlink:href="#BitstreamVeraSans-Roman-33"/>
     </g>
    </g>
   </g>
  </g>
 </g>
 <defs>
  <clipPath id="p712a8ecf42">
   <rect height="712.4265625" width="1279.8359375" x="76.2109375" y="57.9171875"/>
  </clipPath>
 </defs>
</svg>
