<?xml version="1.0" encoding="utf-8" standalone="no"?>
<!DOCTYPE svg PUBLIC "-//W3C//DTD SVG 1.1//EN"
  "http://www.w3.org/Graphics/SVG/1.1/DTD/svg11.dtd">
<!-- Created with matplotlib (http://matplotlib.org/) -->
<svg height="864pt" version="1.1" viewBox="0 0 1440 864" width="1440pt" xmlns="http://www.w3.org/2000/svg" xmlns:xlink="http://www.w3.org/1999/xlink">
 <defs>
  <style type="text/css">
*{stroke-linecap:butt;stroke-linejoin:round;stroke-miterlimit:100000;}
  </style>
 </defs>
 <g id="figure_1">
  <g id="patch_1">
   <path d="M 0 864 
L 1440 864 
L 1440 0 
L 0 0 
z
" style="fill:#ffffff;"/>
  </g>
  <g id="axes_1">
   <g id="patch_2">
    <path d="M 158.4 747 
L 1336.05 747 
L 1336.05 51.3 
L 158.4 51.3 
z
" style="fill:#ffffff;"/>
   </g>
   <g id="line2d_1">
    <path clip-path="url(#p426fc56c3d)" d="M 159.57765 133.107113 
L 163.1106 154.526354 
L 164.28825 160.686353 
L 165.4659 170.45479 
L 166.64355 177.714347 
L 168.99885 196.373425 
L 170.1765 218.807616 
L 171.35415 217.353982 
L 172.5318 217.357775 
L 173.70945 243.326729 
L 174.8871 243.353109 
L 176.06475 243.970995 
L 177.2424 268.207003 
L 178.42005 267.893261 
L 179.5977 268.727739 
L 180.77535 305.39473 
L 181.953 303.649684 
L 183.13065 314.981512 
L 184.3083 309.807747 
L 185.48595 328.482981 
L 186.6636 360.739023 
L 187.84125 363.173001 
L 189.0189 366.443895 
L 190.19655 366.714883 
L 191.3742 366.476333 
L 192.55185 375.762043 
L 193.7295 393.192457 
L 194.90715 333.088958 
L 196.0848 421.697246 
L 197.26245 425.192805 
L 198.4401 425.741762 
L 199.61775 425.015907 
L 200.7954 435.561887 
L 201.97305 436.105664 
L 203.1507 473.451092 
L 204.32835 473.436928 
L 205.506 481.095599 
L 206.68365 486.228876 
L 209.03895 493.10657 
L 210.2166 492.9544 
L 211.39425 493.712155 
L 212.5719 527.637405 
L 214.9272 544.202981 
L 217.2825 552.427744 
L 218.46015 552.998637 
L 219.6378 552.872266 
L 220.81545 577.55825 
L 221.9931 588.045853 
L 223.17075 593.088578 
L 224.3484 599.695709 
L 225.52605 600.692344 
L 226.7037 605.379522 
L 227.88135 605.908109 
L 229.059 639.863946 
L 230.23665 643.260921 
L 231.4143 644.894621 
L 232.59195 654.498898 
L 233.7696 653.97734 
L 234.94725 659.049022 
L 236.1249 661.182779 
L 237.30255 695.678578 
L 238.4802 703.840724 
L 239.65785 705.130566 
L 240.8355 709.72649 
L 242.01315 710.803609 
L 243.1908 712.929379 
L 244.36845 713.480522 
L 245.5461 703.505767 
L 246.72375 726.718068 
L 247.9014 729.201858 
L 249.07905 729.759255 
L 250.2567 729.86156 
L 251.43435 729.793453 
L 252.612 729.991 
L 253.78965 729.837849 
L 254.9673 730.285648 
L 256.14495 731.805478 
L 257.3226 732.280087 
L 258.50025 732.465478 
L 259.6779 732.34565 
L 260.85555 732.034871 
L 262.0332 731.957434 
L 263.21085 732.243954 
L 264.3885 732.761682 
L 266.7438 732.12688 
L 267.92145 732.313162 
L 270.27675 731.594639 
L 271.4544 730.682586 
L 272.63205 730.211888 
L 274.98735 731.367734 
L 276.165 731.167984 
L 277.34265 731.291811 
L 278.5203 731.265344 
L 279.69795 729.374818 
L 280.8756 729.335436 
L 283.2309 730.132833 
L 284.40855 730.101352 
L 285.5862 729.878308 
L 286.76385 729.828132 
L 287.9415 730.891136 
L 289.11915 732.708206 
L 290.2968 732.747905 
L 291.47445 731.71915 
L 292.6521 732.76711 
L 293.82975 732.556017 
L 295.0074 731.90008 
L 296.18505 732.305491 
L 297.3627 731.913397 
L 298.54035 732.062876 
L 299.718 732.036618 
L 302.0733 731.774886 
L 304.4286 731.860233 
L 305.60625 731.117832 
L 306.7839 730.752194 
L 307.96155 730.614031 
L 309.1392 730.622567 
L 310.31685 730.44422 
L 311.4945 731.279567 
L 312.67215 730.719455 
L 313.8498 730.687092 
L 315.02745 731.783715 
L 316.2051 732.208323 
L 318.5604 731.342377 
L 319.73805 731.524873 
L 320.9157 730.37823 
L 322.09335 729.937818 
L 323.271 730.263394 
L 324.44865 730.927152 
L 325.6263 731.151578 
L 327.9816 730.735787 
L 329.15925 730.370347 
L 330.3369 730.366947 
L 331.51455 730.603932 
L 332.6922 730.300317 
L 333.86985 730.16562 
L 335.0475 729.82457 
L 336.22515 729.97737 
L 337.4028 729.589963 
L 338.58045 730.716895 
L 342.1134 731.341962 
L 343.29105 731.204473 
L 344.4687 730.479424 
L 345.64635 729.451121 
L 346.824 730.089481 
L 348.00165 729.836533 
L 351.5346 729.875765 
L 352.71225 731.802345 
L 355.06755 732.023885 
L 356.2452 732.014568 
L 357.42285 731.861355 
L 358.6005 731.853935 
L 360.9558 731.264861 
L 362.13345 731.173415 
L 364.48875 731.224381 
L 365.6664 731.104816 
L 366.84405 731.660092 
L 368.0217 729.545603 
L 369.19935 729.865514 
L 371.55465 730.824604 
L 372.7323 732.019462 
L 373.90995 731.629375 
L 375.0876 730.932627 
L 377.4429 730.938424 
L 378.62055 730.942079 
L 382.1535 731.700502 
L 383.33115 731.382738 
L 384.5088 732.106778 
L 385.68645 732.352997 
L 386.8641 733.07942 
L 388.04175 732.352144 
L 389.2194 731.141522 
L 390.39705 731.040331 
L 392.75235 731.325028 
L 395.10765 731.040063 
L 396.2853 730.56134 
L 397.46295 730.546254 
L 398.6406 730.244492 
L 399.81825 730.551583 
L 402.17355 730.318508 
L 403.3512 730.065229 
L 404.52885 730.050936 
L 405.7065 730.999907 
L 406.88415 731.02102 
L 408.0618 731.448025 
L 409.23945 731.285811 
L 410.4171 731.491137 
L 411.59475 731.811806 
L 412.7724 731.101619 
L 413.95005 730.808098 
L 415.1277 730.014081 
L 418.66065 731.338748 
L 419.8383 731.302505 
L 421.01595 731.521139 
L 422.1936 730.463087 
L 423.37125 730.961592 
L 424.5489 731.851106 
L 425.72655 731.7234 
L 426.9042 732.289458 
L 428.08185 731.784229 
L 429.2595 731.478963 
L 430.43715 730.660626 
L 433.9701 730.25439 
L 435.14775 732.002533 
L 436.3254 732.499843 
L 437.50305 731.452145 
L 438.6807 731.053723 
L 441.036 730.757856 
L 442.21365 730.982352 
L 443.3913 730.144024 
L 444.56895 729.58207 
L 445.7466 729.754889 
L 449.27955 729.717848 
L 450.4572 730.441199 
L 451.63485 730.434449 
L 452.8125 731.314217 
L 453.99015 730.852589 
L 455.1678 731.157301 
L 456.34545 731.340398 
L 457.5231 731.373868 
L 459.8784 731.154856 
L 461.05605 731.13182 
L 462.2337 732.112668 
L 463.41135 731.944618 
L 464.589 732.063316 
L 465.76665 731.868493 
L 466.9443 732.241062 
L 468.12195 732.355707 
L 469.2996 731.504497 
L 470.47725 732.518808 
L 471.6549 731.06757 
L 472.83255 731.081042 
L 474.0102 730.823282 
L 475.18785 731.152968 
L 476.3655 731.598599 
L 478.7208 731.640376 
L 479.89845 731.244375 
L 481.0761 731.488053 
L 482.25375 732.048464 
L 483.4314 731.755578 
L 485.7867 731.859498 
L 486.96435 731.722397 
L 489.31965 731.064647 
L 490.4973 731.172847 
L 491.67495 732.270249 
L 492.8526 732.39303 
L 494.03025 732.392775 
L 495.2079 727.942902 
L 496.38555 727.95395 
L 497.5632 728.190033 
L 498.74085 727.892225 
L 499.9185 728.238189 
L 501.09615 728.241726 
L 502.2738 730.687565 
L 503.45145 730.806659 
L 505.80675 730.652403 
L 506.9844 731.34072 
L 508.16205 730.553579 
L 509.3397 730.721439 
L 510.51735 730.378306 
L 511.695 729.755486 
L 512.87265 731.356492 
L 514.0503 731.025267 
L 515.22795 729.581466 
L 516.4056 730.679593 
L 517.58325 729.967494 
L 518.7609 730.409537 
L 519.93855 730.546742 
L 521.1162 731.151327 
L 522.29385 732.03184 
L 523.4715 730.219636 
L 525.8268 730.05116 
L 527.00445 730.29506 
L 528.1821 730.291129 
L 529.35975 730.712958 
L 530.5374 731.29192 
L 531.71505 730.902476 
L 532.8927 731.057006 
L 534.07035 731.013454 
L 536.42565 732.789983 
L 537.6033 730.580034 
L 538.78095 730.29428 
L 541.13625 731.187463 
L 543.49155 731.350902 
L 544.6692 731.181055 
L 545.84685 731.70232 
L 547.0245 730.341785 
L 548.20215 730.486394 
L 549.3798 729.435552 
L 550.55745 729.983639 
L 551.7351 730.375183 
L 552.91275 731.127104 
L 554.0904 731.2558 
L 555.26805 730.817077 
L 556.4457 731.26511 
L 557.62335 731.948822 
L 558.801 731.952477 
L 559.97865 732.257414 
L 561.1563 732.922931 
L 562.33395 733.009325 
L 563.5116 731.27792 
L 564.68925 731.39276 
L 567.04455 730.963969 
L 568.2222 731.707754 
L 569.39985 730.31694 
L 570.5775 730.393708 
L 571.75515 731.569169 
L 572.9328 731.72773 
L 575.2881 731.666772 
L 576.46575 730.978081 
L 577.6434 730.82048 
L 578.82105 730.828378 
L 579.9987 729.749985 
L 581.17635 729.239704 
L 582.354 729.647697 
L 583.53165 729.603036 
L 584.7093 729.766535 
L 585.88695 730.674421 
L 587.0646 730.499972 
L 588.24225 730.710607 
L 589.4199 730.423644 
L 590.59755 730.560335 
L 591.7752 730.567589 
L 592.95285 731.658745 
L 594.1305 731.725528 
L 595.30815 731.066616 
L 596.4858 731.692992 
L 597.66345 731.444647 
L 598.8411 731.74721 
L 600.01875 731.749378 
L 601.1964 732.961987 
L 602.37405 733.138116 
L 603.5517 733.136232 
L 604.72935 732.374443 
L 605.907 730.607141 
L 607.08465 730.49954 
L 608.2623 730.531528 
L 612.9729 731.486593 
L 614.15055 731.677139 
L 615.3282 731.698191 
L 616.50585 732.331431 
L 617.6835 731.823691 
L 618.86115 730.936723 
L 620.0388 731.913449 
L 621.21645 731.695502 
L 624.7494 731.596511 
L 625.92705 731.844783 
L 627.1047 730.589196 
L 628.28235 730.563672 
L 629.46 731.358634 
L 632.99295 731.179996 
L 634.1706 730.897495 
L 635.34825 730.478522 
L 636.5259 730.55196 
L 637.70355 731.218695 
L 638.8812 732.244643 
L 641.2365 732.166636 
L 642.41415 731.627047 
L 643.5918 731.519386 
L 644.76945 731.608864 
L 645.9471 730.972275 
L 647.12475 730.970326 
L 648.3024 730.83549 
L 649.48005 729.81488 
L 650.6577 729.825711 
L 651.83535 729.622617 
L 653.013 731.134825 
L 654.19065 731.029678 
L 655.3683 731.175256 
L 656.54595 731.646163 
L 657.7236 731.776911 
L 658.90125 731.759657 
L 660.0789 731.475487 
L 661.25655 731.305785 
L 665.96715 731.664586 
L 667.1448 731.060765 
L 670.67775 730.982535 
L 671.8554 731.532828 
L 673.03305 731.583098 
L 674.2107 730.939066 
L 675.38835 732.292278 
L 676.566 733.382636 
L 680.09895 733.29006 
L 681.2766 733.068272 
L 682.45425 730.440183 
L 683.6319 730.624507 
L 684.80955 730.585237 
L 685.9872 731.26265 
L 687.16485 730.864842 
L 688.3425 730.730598 
L 689.52015 729.853018 
L 690.6978 729.726478 
L 693.0531 730.500765 
L 694.23075 730.376016 
L 695.4084 730.37195 
L 696.58605 729.58222 
L 700.119 729.97029 
L 701.29665 730.148956 
L 702.4743 729.963338 
L 703.65195 730.216847 
L 704.8296 730.013077 
L 706.00725 730.051825 
L 707.1849 730.411528 
L 708.36255 731.326766 
L 709.5402 731.663222 
L 710.71785 731.559054 
L 713.07315 731.521382 
L 714.2508 732.532311 
L 715.42845 732.332709 
L 716.6061 729.615299 
L 717.78375 729.627059 
L 718.9614 730.147955 
L 721.3167 730.067105 
L 722.49435 731.446176 
L 723.672 731.780574 
L 724.84965 731.363661 
L 726.0273 731.496178 
L 727.20495 731.816346 
L 729.56025 731.891773 
L 730.7379 732.643384 
L 731.91555 731.699656 
L 733.0932 731.45627 
L 734.27085 731.857364 
L 735.4485 732.124679 
L 737.8038 732.3322 
L 738.98145 731.602353 
L 740.1591 730.713202 
L 741.33675 730.725218 
L 742.5144 731.482117 
L 743.69205 730.871514 
L 746.04735 730.849565 
L 747.225 730.416788 
L 748.40265 730.596159 
L 749.5803 731.201028 
L 750.75795 731.181927 
L 751.9356 731.333291 
L 753.11325 731.887804 
L 754.2909 731.076526 
L 755.46855 730.918223 
L 756.6462 731.864792 
L 757.82385 732.509475 
L 759.0015 732.488765 
L 761.3568 732.881651 
L 762.53445 732.914731 
L 763.7121 732.388845 
L 764.88975 731.101024 
L 766.0674 732.343686 
L 767.24505 732.459213 
L 768.4227 732.099564 
L 769.60035 731.956966 
L 770.778 731.696032 
L 773.1333 730.472926 
L 774.31095 731.910324 
L 775.4886 730.517089 
L 776.66625 730.832186 
L 777.8439 730.70636 
L 779.02155 731.085057 
L 780.1992 729.492929 
L 781.37685 729.622547 
L 782.5545 730.718263 
L 783.73215 731.057924 
L 784.9098 730.41225 
L 786.08745 731.649445 
L 787.2651 732.013218 
L 788.44275 731.589419 
L 789.6204 732.154749 
L 790.79805 731.202285 
L 791.9757 731.103886 
L 793.15335 730.620495 
L 794.331 731.733471 
L 795.50865 731.574353 
L 796.6863 731.57959 
L 797.86395 732.199584 
L 799.0416 731.76682 
L 800.21925 732.090222 
L 801.3969 732.994481 
L 802.57455 732.939693 
L 803.7522 732.760436 
L 804.92985 731.800563 
L 807.28515 731.466871 
L 808.4628 731.238486 
L 809.64045 731.249241 
L 810.8181 731.112939 
L 811.99575 730.364905 
L 813.1734 730.755735 
L 814.35105 730.695924 
L 815.5287 730.865443 
L 816.70635 730.55311 
L 819.06165 730.391397 
L 820.2393 730.440234 
L 821.41695 730.248687 
L 822.5946 730.320652 
L 823.77225 730.065968 
L 827.3052 730.297981 
L 828.48285 730.814476 
L 829.6605 731.078236 
L 830.83815 730.804501 
L 834.3711 730.688398 
L 835.54875 731.006906 
L 836.7264 730.974437 
L 837.90405 730.261171 
L 839.0817 729.894488 
L 840.25935 730.192623 
L 841.437 729.27308 
L 842.61465 729.669567 
L 843.7923 730.903526 
L 844.96995 731.273909 
L 848.5029 731.586498 
L 849.68055 731.093279 
L 852.03585 731.734609 
L 853.2135 732.687422 
L 855.5688 731.716375 
L 856.74645 731.815211 
L 857.9241 731.7879 
L 860.2794 733.034997 
L 861.45705 732.872158 
L 862.6347 732.033 
L 864.99 731.782208 
L 866.16765 731.361176 
L 867.3453 731.18899 
L 869.7006 731.20689 
L 870.87825 730.63585 
L 873.23355 730.502154 
L 874.4112 729.447409 
L 875.58885 729.627863 
L 876.7665 730.765862 
L 877.94415 731.660897 
L 879.1218 731.320528 
L 880.29945 730.862542 
L 881.4771 730.747011 
L 882.65475 731.005455 
L 883.8324 730.962315 
L 885.01005 731.357413 
L 886.1877 731.058547 
L 887.36535 731.660289 
L 889.72065 731.857608 
L 890.8983 732.118472 
L 892.07595 731.936196 
L 893.2536 731.243772 
L 894.43125 730.941156 
L 895.6089 731.843458 
L 896.78655 732.382951 
L 897.9642 732.709671 
L 899.14185 732.532633 
L 901.49715 732.644235 
L 902.6748 732.978977 
L 903.85245 731.607715 
L 905.0301 731.883543 
L 906.20775 731.402015 
L 907.3854 731.306702 
L 908.56305 731.363662 
L 909.7407 731.258871 
L 912.096 731.476502 
L 914.4513 730.865147 
L 916.8066 731.183211 
L 917.98425 731.203417 
L 920.33955 731.749383 
L 922.69485 731.272042 
L 923.8725 731.259426 
L 926.2278 731.651945 
L 927.40545 731.65857 
L 928.5831 730.311345 
L 929.76075 730.910388 
L 930.9384 731.040478 
L 932.11605 731.335177 
L 933.2937 731.338391 
L 934.47135 731.782035 
L 935.649 731.165597 
L 936.82665 730.301419 
L 938.0043 730.12591 
L 939.18195 730.249976 
L 941.53725 730.161999 
L 942.7149 730.746317 
L 943.89255 730.588656 
L 945.0702 730.566654 
L 946.24785 731.638021 
L 952.1361 732.018136 
L 953.31375 731.454152 
L 954.4914 730.601382 
L 955.66905 730.814174 
L 956.8467 730.872025 
L 958.02435 731.214468 
L 959.202 731.229969 
L 960.37965 732.270453 
L 961.5573 731.598743 
L 962.73495 731.581437 
L 965.09025 729.768927 
L 966.2679 729.838677 
L 967.44555 731.399327 
L 968.6232 732.756196 
L 969.80085 732.564577 
L 970.9785 732.893987 
L 972.15615 731.908785 
L 973.3338 731.935019 
L 974.51145 730.809266 
L 976.86675 730.443233 
L 979.22205 730.79376 
L 980.3997 730.840488 
L 981.57735 731.158806 
L 982.755 731.770057 
L 983.93265 732.738633 
L 985.1103 731.080608 
L 986.28795 731.439646 
L 987.4656 731.302076 
L 992.1762 731.271702 
L 993.35385 730.897416 
L 996.8868 731.489939 
L 998.06445 733.887244 
L 1000.41975 733.599264 
L 1001.5974 733.58111 
L 1002.77505 730.823629 
L 1003.9527 730.363666 
L 1005.13035 730.899928 
L 1006.308 730.585957 
L 1008.6633 730.508094 
L 1009.84095 731.993653 
L 1011.0186 731.812171 
L 1012.19625 732.211131 
L 1013.3739 732.410186 
L 1014.55155 732.263853 
L 1015.7292 731.348041 
L 1016.90685 730.199053 
L 1018.0845 730.1913 
L 1019.26215 729.732582 
L 1020.4398 728.171765 
L 1021.61745 727.810596 
L 1022.7951 731.189438 
L 1023.97275 731.411852 
L 1026.32805 731.361602 
L 1027.5057 731.176008 
L 1029.861 731.166393 
L 1031.03865 728.578394 
L 1032.2163 732.379702 
L 1033.39395 731.879068 
L 1034.5716 731.624526 
L 1038.10455 732.257658 
L 1039.2822 732.121039 
L 1040.45985 730.968878 
L 1041.6375 730.72761 
L 1042.81515 731.064742 
L 1043.9928 730.945698 
L 1045.17045 731.600355 
L 1048.7034 732.161987 
L 1049.88105 731.863534 
L 1052.23635 732.023908 
L 1053.414 732.064808 
L 1054.59165 731.630303 
L 1055.7693 731.618444 
L 1058.1246 732.154652 
L 1059.30225 731.833374 
L 1060.4799 730.500377 
L 1061.65755 730.37664 
L 1062.8352 730.017454 
L 1064.01285 730.275231 
L 1065.1905 729.933049 
L 1066.36815 731.257262 
L 1068.72345 730.201908 
L 1069.9011 729.530305 
L 1071.07875 729.235495 
L 1072.2564 729.637876 
L 1073.43405 729.252131 
L 1074.6117 731.425463 
L 1075.78935 731.315627 
L 1076.967 731.555335 
L 1078.14465 731.439266 
L 1079.3223 731.839425 
L 1080.49995 731.584753 
L 1081.6776 731.786363 
L 1082.85525 732.28933 
L 1084.0329 731.571504 
L 1085.21055 731.520307 
L 1086.3882 731.10134 
L 1088.7435 730.596321 
L 1091.0988 729.920391 
L 1093.4541 729.49963 
L 1094.63175 728.863949 
L 1095.8094 728.555474 
L 1096.98705 728.9076 
L 1098.1647 728.809904 
L 1099.34235 729.762265 
L 1104.05295 730.630696 
L 1105.2306 729.777357 
L 1106.40825 729.920744 
L 1107.5859 732.182997 
L 1108.76355 732.217605 
L 1111.11885 731.921667 
L 1112.2965 731.109306 
L 1113.47415 730.529907 
L 1114.6518 730.491322 
L 1115.82945 733.108277 
L 1117.0071 733.039134 
L 1118.18475 731.593411 
L 1119.3624 731.762384 
L 1120.54005 730.192756 
L 1121.7177 730.295486 
L 1122.89535 730.691416 
L 1124.073 731.557716 
L 1125.25065 731.43341 
L 1126.4283 731.174936 
L 1127.60595 731.675729 
L 1128.7836 731.28901 
L 1129.96125 731.888124 
L 1133.4942 731.951826 
L 1134.67185 732.26365 
L 1135.8495 732.200111 
L 1137.02715 732.416481 
L 1138.2048 732.025567 
L 1139.38245 732.574322 
L 1140.5601 731.882277 
L 1141.73775 731.601459 
L 1144.09305 730.349481 
L 1146.44835 730.344921 
L 1147.626 729.934038 
L 1148.80365 730.520505 
L 1149.9813 730.570756 
L 1151.15895 730.998784 
L 1152.3366 730.7844 
L 1153.51425 731.255974 
L 1157.0472 731.589825 
L 1158.22485 731.152917 
L 1159.4025 730.318703 
L 1160.58015 730.37718 
L 1161.7578 729.744267 
L 1162.93545 729.934125 
L 1165.29075 729.83958 
L 1166.4684 730.77196 
L 1168.8237 730.573282 
L 1170.00135 730.362724 
L 1171.179 729.997714 
L 1172.35665 729.875281 
L 1173.5343 730.341344 
L 1174.71195 731.466092 
L 1175.8896 731.785959 
L 1177.06725 730.941216 
L 1178.2449 731.303502 
L 1179.42255 730.867865 
L 1180.6002 731.282644 
L 1181.77785 730.930549 
L 1182.9555 731.253401 
L 1184.13315 731.171547 
L 1185.3108 733.227498 
L 1186.48845 732.896245 
L 1187.6661 731.350872 
L 1190.0214 730.914431 
L 1192.3767 731.67809 
L 1193.55435 731.915696 
L 1194.732 730.897098 
L 1198.26495 730.761886 
L 1199.4426 731.19023 
L 1201.7979 731.033329 
L 1206.5085 731.143674 
L 1207.68615 731.472712 
L 1210.04145 731.523985 
L 1211.2191 731.261187 
L 1212.39675 734.311517 
L 1213.5744 733.651619 
L 1214.75205 733.917944 
L 1215.9297 732.529499 
L 1217.10735 732.559647 
L 1218.285 732.462473 
L 1219.46265 732.650794 
L 1220.6403 732.26496 
L 1221.81795 731.698515 
L 1222.9956 732.132614 
L 1224.17325 731.996724 
L 1226.52855 732.528062 
L 1227.7062 732.495109 
L 1228.88385 732.916825 
L 1230.0615 732.625765 
L 1231.23915 732.806793 
L 1232.4168 732.234422 
L 1233.59445 732.350625 
L 1234.7721 732.612769 
L 1235.94975 731.584343 
L 1237.1274 731.465401 
L 1240.66035 729.959867 
L 1241.838 729.900731 
L 1243.01565 729.636453 
L 1244.1933 729.716175 
L 1245.37095 730.034 
L 1246.5486 729.832944 
L 1247.72625 730.323725 
L 1248.9039 730.514901 
L 1250.08155 730.155803 
L 1251.2592 730.296807 
L 1252.43685 731.071095 
L 1257.14745 731.206235 
L 1258.3251 730.823244 
L 1259.50275 732.076494 
L 1260.6804 731.815906 
L 1264.21335 731.867679 
L 1265.391 732.988473 
L 1266.56865 731.297801 
L 1267.7463 730.555534 
L 1268.92395 730.832825 
L 1271.27925 730.781453 
L 1272.4569 731.78674 
L 1274.8122 731.370218 
L 1277.1675 731.172005 
L 1278.34515 730.868886 
L 1279.5228 728.572371 
L 1280.70045 729.18588 
L 1281.8781 729.438805 
L 1284.2334 729.572931 
L 1285.41105 731.136372 
L 1286.5887 729.982728 
L 1288.944 730.082155 
L 1290.12165 730.265504 
L 1291.2993 731.651915 
L 1292.47695 731.711075 
L 1293.6546 731.435624 
L 1294.83225 731.729111 
L 1296.0099 731.175734 
L 1298.3652 730.677585 
L 1300.7205 730.746857 
L 1301.89815 730.442513 
L 1303.0758 730.778696 
L 1304.25345 731.49962 
L 1305.4311 731.720913 
L 1306.60875 731.725746 
L 1307.7864 729.707013 
L 1308.96405 729.344526 
L 1310.1417 731.13505 
L 1311.31935 731.208441 
L 1312.497 731.138441 
L 1313.67465 729.587216 
L 1314.8523 732.057501 
L 1316.02995 731.099982 
L 1317.2076 731.154702 
L 1318.38525 731.689134 
L 1319.5629 731.639291 
L 1320.74055 731.409286 
L 1321.9182 731.441322 
L 1323.09585 732.946519 
L 1324.2735 732.94644 
L 1325.45115 731.493673 
L 1326.6288 731.479783 
L 1327.80645 732.095652 
L 1328.9841 732.074643 
L 1330.16175 730.079816 
L 1331.3394 730.836494 
L 1332.51705 730.189841 
L 1333.6947 729.768923 
L 1334.87235 730.848677 
L 1336.05 731.662124 
L 1336.05 731.662124 
" style="fill:none;stroke:#0000ff;stroke-linecap:square;stroke-width:2.0;"/>
   </g>
   <g id="line2d_2">
    <path clip-path="url(#p426fc56c3d)" d="M 159.57765 158.126746 
L 160.7553 162.443321 
L 161.93295 173.807713 
L 163.1106 173.480585 
L 165.4659 195.097219 
L 166.64355 160.650081 
L 167.8212 208.451206 
L 168.99885 214.007947 
L 170.1765 217.599951 
L 171.35415 220.495843 
L 172.5318 229.241188 
L 173.70945 257.676307 
L 174.8871 256.036147 
L 176.06475 283.586984 
L 177.2424 282.215258 
L 178.42005 283.362019 
L 179.5977 285.724971 
L 180.77535 293.518949 
L 181.953 342.447692 
L 183.13065 341.158112 
L 184.3083 343.554083 
L 185.48595 347.510468 
L 186.6636 347.515903 
L 187.84125 348.276382 
L 189.0189 351.551856 
L 190.19655 389.358915 
L 191.3742 403.657721 
L 192.55185 402.595823 
L 193.7295 408.947604 
L 194.90715 408.879346 
L 196.0848 409.124531 
L 197.26245 412.436221 
L 198.4401 417.533985 
L 199.61775 457.861474 
L 200.7954 471.252519 
L 201.97305 472.591124 
L 203.1507 471.260623 
L 204.32835 471.779871 
L 205.506 471.830327 
L 206.68365 473.26337 
L 207.8613 436.157983 
L 209.03895 504.192944 
L 210.2166 524.189055 
L 211.39425 526.808528 
L 212.5719 528.218548 
L 213.74955 528.737892 
L 214.9272 531.885417 
L 216.10485 548.616932 
L 217.2825 561.855076 
L 218.46015 569.830743 
L 219.6378 582.288902 
L 220.81545 583.378417 
L 221.9931 584.748427 
L 223.17075 605.093506 
L 224.3484 612.001702 
L 225.52605 616.293618 
L 226.7037 638.932894 
L 227.88135 639.328813 
L 229.059 642.188801 
L 230.23665 659.187088 
L 231.4143 669.683161 
L 232.59195 656.285496 
L 233.7696 679.729365 
L 234.94725 690.767105 
L 236.1249 691.965974 
L 237.30255 690.716376 
L 238.4802 725.175258 
L 239.65785 723.845941 
L 240.8355 724.03674 
L 242.01315 727.64063 
L 243.1908 729.017307 
L 244.36845 728.813806 
L 245.5461 728.862054 
L 246.72375 731.706155 
L 247.9014 731.487961 
L 250.2567 732.947015 
L 251.43435 733.145814 
L 252.612 732.994384 
L 253.78965 733.009233 
L 256.14495 730.945453 
L 257.3226 730.928779 
L 259.6779 731.213352 
L 262.0332 731.241986 
L 263.21085 731.650233 
L 264.3885 731.236329 
L 265.56615 731.171661 
L 266.7438 730.742925 
L 267.92145 730.791731 
L 269.0991 731.539691 
L 270.27675 731.282617 
L 271.4544 731.530981 
L 272.63205 731.551837 
L 273.8097 731.306531 
L 274.98735 731.323862 
L 276.165 731.037051 
L 277.34265 730.981126 
L 278.5203 730.286318 
L 279.69795 730.451083 
L 280.8756 732.208833 
L 282.05325 732.078528 
L 283.2309 730.714063 
L 284.40855 732.692355 
L 285.5862 732.5589 
L 286.76385 731.509129 
L 287.9415 732.211784 
L 289.11915 731.822203 
L 290.2968 731.694445 
L 291.47445 731.961382 
L 292.6521 731.838369 
L 293.82975 731.599949 
L 295.0074 731.156449 
L 296.18505 731.471404 
L 297.3627 732.027509 
L 299.718 731.828301 
L 300.89565 731.936345 
L 302.0733 730.635276 
L 303.25095 730.74723 
L 304.4286 730.653003 
L 305.60625 729.796464 
L 307.96155 729.351861 
L 309.1392 729.750084 
L 310.31685 730.777016 
L 311.4945 730.635881 
L 312.67215 730.832254 
L 313.8498 731.17967 
L 315.02745 731.235246 
L 316.2051 731.704184 
L 317.38275 731.240354 
L 320.9157 731.931536 
L 322.09335 731.314521 
L 323.271 731.834651 
L 324.44865 731.812312 
L 325.6263 729.373494 
L 326.80395 732.397477 
L 327.9816 732.585892 
L 329.15925 732.624508 
L 330.3369 731.802496 
L 332.6922 731.47634 
L 333.86985 731.745476 
L 335.0475 731.812568 
L 336.22515 732.024423 
L 337.4028 731.917689 
L 338.58045 731.43304 
L 339.7581 731.597239 
L 340.93575 731.196284 
L 342.1134 731.10905 
L 343.29105 730.576006 
L 344.4687 730.816533 
L 345.64635 730.883604 
L 346.824 731.272244 
L 349.1793 730.919042 
L 350.35695 730.468588 
L 351.5346 729.631226 
L 352.71225 729.919633 
L 353.8899 729.760988 
L 355.06755 730.64592 
L 356.2452 730.46546 
L 358.6005 730.414925 
L 359.77815 730.454522 
L 360.9558 731.42578 
L 362.13345 731.121193 
L 363.3111 731.381838 
L 366.84405 731.24519 
L 368.0217 731.230957 
L 369.19935 731.619565 
L 370.377 731.535907 
L 371.55465 731.921581 
L 372.7323 732.07041 
L 373.90995 731.909753 
L 375.0876 732.088847 
L 376.26525 732.103204 
L 377.4429 731.440589 
L 378.62055 731.473449 
L 379.7982 731.22013 
L 380.97585 732.263477 
L 382.1535 732.312186 
L 383.33115 731.928296 
L 385.68645 731.763447 
L 386.8641 732.047821 
L 388.04175 731.641354 
L 389.2194 731.579705 
L 390.39705 731.730761 
L 392.75235 731.552388 
L 393.93 731.708747 
L 395.10765 731.727982 
L 396.2853 729.537135 
L 398.6406 729.570601 
L 400.9959 729.782106 
L 402.17355 729.544308 
L 404.52885 730.12345 
L 405.7065 729.854232 
L 406.88415 729.337697 
L 408.0618 729.198367 
L 409.23945 729.345213 
L 410.4171 730.557741 
L 411.59475 731.06544 
L 412.7724 731.212785 
L 415.1277 732.557549 
L 416.30535 732.861383 
L 417.483 733.023356 
L 418.66065 732.908617 
L 419.8383 732.64004 
L 421.01595 731.393057 
L 422.1936 730.81868 
L 423.37125 730.94698 
L 424.5489 730.629953 
L 425.72655 731.185479 
L 426.9042 730.409192 
L 428.08185 732.278148 
L 429.2595 732.436962 
L 430.43715 732.33279 
L 431.6148 732.836085 
L 432.79245 733.487032 
L 433.9701 733.666182 
L 435.14775 733.656444 
L 436.3254 733.233264 
L 437.50305 732.636477 
L 438.6807 731.597408 
L 439.85835 730.959171 
L 441.036 730.950576 
L 442.21365 731.475652 
L 443.3913 731.473185 
L 444.56895 731.774188 
L 445.7466 731.817694 
L 446.92425 729.874055 
L 448.1019 730.720394 
L 449.27955 730.944713 
L 450.4572 730.667287 
L 451.63485 730.690879 
L 453.99015 731.147453 
L 455.1678 731.088975 
L 456.34545 730.184996 
L 457.5231 729.997585 
L 458.70075 730.187603 
L 459.8784 730.230025 
L 461.05605 730.098331 
L 462.2337 730.695732 
L 464.589 730.746661 
L 468.12195 731.026774 
L 469.2996 730.994572 
L 470.47725 730.125833 
L 471.6549 730.424074 
L 472.83255 729.644478 
L 474.0102 730.403057 
L 476.3655 730.336896 
L 477.54315 730.784028 
L 478.7208 731.062487 
L 479.89845 730.819286 
L 481.0761 730.285543 
L 484.60905 729.806159 
L 485.7867 729.661758 
L 486.96435 730.367368 
L 488.142 730.5036 
L 489.31965 730.256262 
L 490.4973 729.618811 
L 491.67495 730.153272 
L 494.03025 729.649996 
L 495.2079 731.099358 
L 496.38555 730.924062 
L 497.5632 731.65551 
L 498.74085 731.253609 
L 499.9185 731.430113 
L 501.09615 731.426523 
L 503.45145 730.696309 
L 504.6291 730.525518 
L 505.80675 732.658922 
L 506.9844 732.495615 
L 508.16205 732.582817 
L 509.3397 732.802389 
L 510.51735 732.618169 
L 511.695 731.722139 
L 512.87265 731.615199 
L 514.0503 732.336948 
L 515.22795 731.892685 
L 516.4056 732.333117 
L 518.7609 731.807706 
L 519.93855 730.938118 
L 522.29385 730.752846 
L 523.4715 730.620708 
L 525.8268 730.856745 
L 528.1821 729.579101 
L 530.5374 729.302678 
L 531.71505 730.044645 
L 534.07035 730.067424 
L 535.248 730.414209 
L 536.42565 731.007253 
L 538.78095 731.511797 
L 541.13625 731.637018 
L 543.49155 731.084973 
L 544.6692 731.127671 
L 545.84685 731.345002 
L 547.0245 731.433153 
L 548.20215 731.354603 
L 549.3798 731.080657 
L 550.55745 729.979427 
L 551.7351 729.499808 
L 552.91275 729.951051 
L 555.26805 730.218142 
L 557.62335 729.970374 
L 558.801 730.446576 
L 559.97865 730.663447 
L 561.1563 731.544767 
L 562.33395 731.743259 
L 563.5116 732.371086 
L 564.68925 731.755871 
L 565.8669 730.734817 
L 567.04455 731.083404 
L 568.2222 730.563495 
L 571.75515 731.571226 
L 575.2881 731.56953 
L 576.46575 730.657773 
L 577.6434 731.036486 
L 578.82105 730.704321 
L 579.9987 730.554731 
L 581.17635 730.755779 
L 582.354 731.297651 
L 583.53165 731.296871 
L 584.7093 731.66653 
L 585.88695 732.541117 
L 587.0646 732.233644 
L 588.24225 731.416251 
L 591.7752 731.125251 
L 592.95285 730.70394 
L 594.1305 730.647107 
L 595.30815 731.306462 
L 596.4858 731.565236 
L 597.66345 731.377262 
L 598.8411 730.952598 
L 600.01875 730.122486 
L 601.1964 730.054874 
L 603.5517 729.75067 
L 604.72935 730.663764 
L 605.907 731.330861 
L 609.43995 732.154455 
L 610.6176 731.793434 
L 611.79525 731.083199 
L 612.9729 732.067709 
L 614.15055 732.146438 
L 615.3282 731.894351 
L 616.50585 732.20799 
L 617.6835 732.072317 
L 618.86115 732.371847 
L 620.0388 732.064566 
L 621.21645 731.953413 
L 622.3941 729.289389 
L 624.7494 729.530568 
L 625.92705 730.289358 
L 627.1047 730.219388 
L 628.28235 730.626528 
L 629.46 730.581853 
L 630.63765 730.720003 
L 631.8153 731.561687 
L 632.99295 731.353372 
L 634.1706 730.291436 
L 635.34825 730.505515 
L 636.5259 730.542911 
L 637.70355 731.34196 
L 638.8812 731.641441 
L 640.05885 732.79852 
L 641.2365 733.166367 
L 642.41415 733.378737 
L 643.5918 733.457784 
L 645.9471 733.405075 
L 647.12475 732.209282 
L 648.3024 732.612004 
L 649.48005 731.82027 
L 650.6577 731.331636 
L 653.013 731.279453 
L 654.19065 730.187194 
L 655.3683 729.912702 
L 656.54595 730.145003 
L 657.7236 730.113178 
L 658.90125 731.724907 
L 660.0789 731.522176 
L 661.25655 731.79413 
L 662.4342 731.370945 
L 663.61185 731.37644 
L 664.7895 731.101086 
L 665.96715 731.165094 
L 667.1448 730.020046 
L 668.32245 730.148663 
L 669.5001 730.104126 
L 670.67775 731.480025 
L 671.8554 731.609033 
L 673.03305 732.649525 
L 674.2107 732.520391 
L 675.38835 732.798118 
L 676.566 732.810174 
L 677.74365 732.980152 
L 678.9213 732.843747 
L 680.09895 732.848604 
L 681.2766 732.634175 
L 682.45425 731.213569 
L 683.6319 730.830997 
L 685.9872 730.925483 
L 688.3425 730.946711 
L 689.52015 731.911317 
L 690.6978 731.898006 
L 691.87545 732.071026 
L 694.23075 732.007718 
L 696.58605 732.010412 
L 697.7637 731.473888 
L 698.94135 731.37623 
L 700.119 731.141923 
L 701.29665 731.250833 
L 702.4743 731.125651 
L 703.65195 731.741034 
L 704.8296 731.346253 
L 706.00725 731.390585 
L 707.1849 730.919709 
L 708.36255 729.807676 
L 709.5402 729.789391 
L 710.71785 729.574502 
L 711.8955 729.644981 
L 713.07315 729.551545 
L 714.2508 729.259823 
L 715.42845 729.298208 
L 717.78375 729.550076 
L 718.9614 729.536832 
L 720.13905 730.12593 
L 721.3167 730.0067 
L 722.49435 730.506415 
L 723.672 731.609952 
L 724.84965 731.958577 
L 726.0273 731.884285 
L 727.20495 731.081375 
L 728.3826 730.634361 
L 729.56025 730.985185 
L 730.7379 729.979944 
L 731.91555 730.250726 
L 733.0932 730.24792 
L 734.27085 730.562502 
L 735.4485 730.683398 
L 737.8038 729.989247 
L 738.98145 730.257703 
L 740.1591 730.045653 
L 741.33675 730.336116 
L 742.5144 730.029774 
L 743.69205 730.092683 
L 747.225 731.56023 
L 748.40265 731.954497 
L 749.5803 731.953334 
L 750.75795 730.337572 
L 753.11325 730.069577 
L 757.82385 730.567704 
L 759.0015 730.131316 
L 760.17915 730.252024 
L 761.3568 731.863144 
L 762.53445 731.894029 
L 763.7121 732.82994 
L 766.0674 732.865945 
L 767.24505 732.525359 
L 768.4227 732.648177 
L 769.60035 732.434192 
L 770.778 731.702164 
L 771.95565 731.526001 
L 773.1333 730.430553 
L 775.4886 730.514076 
L 776.66625 730.408296 
L 777.8439 731.124192 
L 779.02155 731.128403 
L 780.1992 731.710744 
L 781.37685 731.727419 
L 782.5545 731.041014 
L 783.73215 730.961319 
L 784.9098 730.993593 
L 786.08745 729.314036 
L 787.2651 730.06122 
L 788.44275 730.143115 
L 789.6204 730.539408 
L 794.331 731.275537 
L 795.50865 732.859453 
L 796.6863 732.910173 
L 797.86395 732.654613 
L 799.0416 732.962226 
L 801.3969 731.533738 
L 802.57455 730.685385 
L 803.7522 730.053135 
L 804.92985 728.913132 
L 806.1075 729.171477 
L 807.28515 729.103246 
L 809.64045 730.007001 
L 811.99575 730.122591 
L 814.35105 730.328747 
L 816.70635 729.632004 
L 819.06165 729.783371 
L 820.2393 730.48206 
L 821.41695 731.784455 
L 822.5946 731.64442 
L 823.77225 730.414675 
L 824.9499 730.740625 
L 826.12755 730.709418 
L 827.3052 730.908851 
L 828.48285 730.418435 
L 829.6605 729.42866 
L 830.83815 729.518463 
L 832.0158 730.612657 
L 833.19345 731.017385 
L 835.54875 730.765036 
L 836.7264 730.534965 
L 837.90405 730.997705 
L 839.0817 730.992407 
L 840.25935 731.101319 
L 841.437 730.962288 
L 843.7923 730.908449 
L 846.1476 729.851711 
L 847.32525 729.928204 
L 848.5029 730.126014 
L 849.68055 730.196348 
L 850.8582 730.060302 
L 852.03585 730.745427 
L 853.2135 730.530989 
L 856.74645 731.015718 
L 857.9241 732.815038 
L 859.10175 732.72323 
L 860.2794 732.470661 
L 862.6347 730.933603 
L 863.81235 730.458405 
L 864.99 730.448798 
L 866.16765 732.547455 
L 867.3453 732.58219 
L 868.52295 732.432867 
L 869.7006 731.499873 
L 870.87825 732.126135 
L 872.0559 732.003139 
L 873.23355 731.623645 
L 874.4112 732.882734 
L 875.58885 732.395536 
L 876.7665 732.532772 
L 877.94415 732.436812 
L 879.1218 731.193203 
L 880.29945 730.777282 
L 881.4771 730.731323 
L 883.8324 732.818819 
L 886.1877 732.772148 
L 887.36535 732.403729 
L 888.543 732.415054 
L 889.72065 731.09096 
L 890.8983 731.07751 
L 892.07595 731.644681 
L 893.2536 730.516674 
L 896.78655 730.3329 
L 897.9642 730.662428 
L 900.3195 730.673626 
L 901.49715 731.242852 
L 902.6748 731.637548 
L 905.0301 731.753292 
L 906.20775 731.532623 
L 907.3854 730.894818 
L 908.56305 730.445213 
L 909.7407 730.425093 
L 910.91835 730.849677 
L 912.096 730.763263 
L 915.62895 731.593666 
L 916.8066 732.169871 
L 919.1619 731.745042 
L 920.33955 732.154792 
L 921.5172 731.707722 
L 923.8725 731.779752 
L 925.05015 732.654798 
L 926.2278 731.879604 
L 927.40545 732.180487 
L 928.5831 731.999563 
L 929.76075 730.500152 
L 933.2937 730.078159 
L 934.47135 729.610867 
L 935.649 730.639602 
L 936.82665 730.922603 
L 938.0043 730.793088 
L 939.18195 731.074577 
L 940.3596 730.822137 
L 941.53725 730.317095 
L 942.7149 730.208474 
L 943.89255 729.270591 
L 945.0702 729.433885 
L 946.24785 729.398549 
L 947.4255 730.104357 
L 948.60315 730.143811 
L 950.95845 730.458301 
L 952.1361 730.975435 
L 953.31375 731.756334 
L 955.66905 731.811707 
L 956.8467 731.480763 
L 958.02435 731.529613 
L 959.202 731.744159 
L 960.37965 732.338519 
L 962.73495 731.652799 
L 963.9126 732.170008 
L 965.09025 731.893012 
L 966.2679 731.984701 
L 967.44555 731.297959 
L 968.6232 730.783693 
L 969.80085 732.210364 
L 970.9785 731.478623 
L 972.15615 732.878908 
L 973.3338 732.784072 
L 975.6891 732.807034 
L 976.86675 731.678576 
L 979.22205 731.768556 
L 982.755 731.534507 
L 983.93265 731.83786 
L 985.1103 731.614308 
L 986.28795 732.248514 
L 987.4656 732.385383 
L 988.64325 732.796601 
L 989.8209 732.657525 
L 990.99855 732.34419 
L 992.1762 731.372239 
L 993.35385 730.864314 
L 994.5315 731.01795 
L 995.70915 731.803762 
L 996.8868 731.712405 
L 998.06445 731.881351 
L 999.2421 732.54472 
L 1000.41975 732.941726 
L 1001.5974 732.907304 
L 1002.77505 731.961516 
L 1005.13035 732.163451 
L 1006.308 732.447238 
L 1007.48565 731.986288 
L 1008.6633 731.863053 
L 1009.84095 731.543741 
L 1011.0186 728.97446 
L 1012.19625 729.046995 
L 1013.3739 728.95825 
L 1014.55155 729.871876 
L 1016.90685 729.808669 
L 1018.0845 730.250658 
L 1019.26215 731.485055 
L 1020.4398 731.440295 
L 1021.61745 731.273677 
L 1022.7951 730.049711 
L 1023.97275 729.887949 
L 1025.1504 730.004045 
L 1026.32805 731.708254 
L 1027.5057 732.143891 
L 1028.68335 732.419558 
L 1029.861 731.788327 
L 1031.03865 731.732003 
L 1032.2163 731.915365 
L 1033.39395 731.946623 
L 1035.74925 730.677825 
L 1038.10455 730.275764 
L 1039.2822 730.058969 
L 1040.45985 730.309974 
L 1041.6375 730.68039 
L 1042.81515 732.027305 
L 1043.9928 731.184417 
L 1045.17045 731.159132 
L 1046.3481 731.005851 
L 1049.88105 731.021518 
L 1051.0587 731.454237 
L 1052.23635 730.768473 
L 1053.414 731.017499 
L 1054.59165 731.602324 
L 1055.7693 731.974764 
L 1056.94695 731.936155 
L 1058.1246 730.724932 
L 1059.30225 731.105356 
L 1060.4799 731.173873 
L 1061.65755 731.843194 
L 1064.01285 731.47004 
L 1065.1905 731.378811 
L 1067.5458 732.245078 
L 1068.72345 731.871461 
L 1071.07875 730.054588 
L 1072.2564 729.849143 
L 1075.78935 730.320061 
L 1076.967 730.960339 
L 1078.14465 731.142217 
L 1079.3223 732.177643 
L 1080.49995 731.40972 
L 1081.6776 731.737309 
L 1082.85525 731.626592 
L 1084.0329 731.689706 
L 1085.21055 732.141114 
L 1086.3882 731.924463 
L 1087.56585 731.305426 
L 1089.92115 731.386918 
L 1091.0988 732.042275 
L 1092.27645 732.311393 
L 1093.4541 731.630333 
L 1094.63175 732.308632 
L 1095.8094 731.669806 
L 1096.98705 730.546935 
L 1098.1647 730.525194 
L 1099.34235 730.32794 
L 1101.69765 730.516253 
L 1102.8753 730.389153 
L 1104.05295 731.370114 
L 1106.40825 731.046595 
L 1107.5859 730.890827 
L 1108.76355 731.412231 
L 1109.9412 731.751407 
L 1111.11885 731.74838 
L 1113.47415 730.596411 
L 1114.6518 731.362639 
L 1115.82945 731.237297 
L 1118.18475 731.560736 
L 1121.7177 731.340823 
L 1122.89535 732.193498 
L 1124.073 732.566307 
L 1125.25065 732.590674 
L 1126.4283 732.483708 
L 1127.60595 732.168628 
L 1128.7836 732.048736 
L 1129.96125 731.042644 
L 1131.1389 731.153429 
L 1132.31655 730.187914 
L 1133.4942 730.354457 
L 1137.02715 730.279833 
L 1138.2048 731.141687 
L 1139.38245 731.534785 
L 1140.5601 731.275663 
L 1141.73775 731.175863 
L 1144.09305 731.334011 
L 1145.2707 730.854081 
L 1146.44835 730.99342 
L 1147.626 731.018977 
L 1148.80365 730.75329 
L 1149.9813 730.642225 
L 1151.15895 730.644463 
L 1152.3366 731.032145 
L 1153.51425 730.875708 
L 1154.6919 730.970398 
L 1155.86955 730.801547 
L 1157.0472 729.196581 
L 1158.22485 729.250223 
L 1159.4025 729.156319 
L 1160.58015 729.300934 
L 1161.7578 729.124819 
L 1162.93545 729.301345 
L 1164.1131 729.166467 
L 1165.29075 730.426287 
L 1166.4684 730.394441 
L 1168.8237 730.667281 
L 1170.00135 730.532447 
L 1171.179 730.836945 
L 1172.35665 730.945947 
L 1173.5343 730.689462 
L 1174.71195 730.938748 
L 1175.8896 731.036041 
L 1177.06725 731.66136 
L 1178.2449 731.461528 
L 1179.42255 731.412486 
L 1180.6002 731.66156 
L 1181.77785 731.770712 
L 1184.13315 732.339988 
L 1186.48845 732.07334 
L 1187.6661 731.70287 
L 1188.84375 731.639423 
L 1191.19905 730.225191 
L 1192.3767 730.589235 
L 1193.55435 731.200137 
L 1197.0873 731.012501 
L 1198.26495 730.885156 
L 1199.4426 731.125001 
L 1200.62025 731.511385 
L 1201.7979 730.317704 
L 1202.97555 730.581548 
L 1204.1532 730.662305 
L 1205.33085 730.570913 
L 1206.5085 731.175517 
L 1207.68615 732.586716 
L 1210.04145 734.058046 
L 1211.2191 733.187607 
L 1212.39675 733.305006 
L 1213.5744 733.254273 
L 1214.75205 730.068487 
L 1215.9297 728.980193 
L 1217.10735 728.548433 
L 1218.285 728.301387 
L 1219.46265 728.324006 
L 1220.6403 727.569477 
L 1221.81795 728.384767 
L 1222.9956 731.126779 
L 1224.17325 731.003254 
L 1225.3509 731.346463 
L 1226.52855 731.531846 
L 1227.7062 731.604389 
L 1228.88385 731.170348 
L 1230.0615 730.907137 
L 1231.23915 730.768626 
L 1232.4168 731.488477 
L 1233.59445 732.367526 
L 1234.7721 732.727037 
L 1235.94975 731.984083 
L 1238.30505 731.528121 
L 1240.66035 731.676743 
L 1243.01565 730.627538 
L 1244.1933 730.651509 
L 1246.5486 730.037973 
L 1247.72625 729.339642 
L 1248.9039 729.197209 
L 1251.2592 729.198882 
L 1252.43685 731.260919 
L 1254.79215 731.305581 
L 1255.9698 731.648897 
L 1257.14745 732.90898 
L 1258.3251 733.109781 
L 1259.50275 731.648586 
L 1260.6804 731.184049 
L 1261.85805 730.84336 
L 1263.0357 730.88399 
L 1264.21335 729.606613 
L 1265.391 729.478339 
L 1266.56865 730.453906 
L 1267.7463 730.505685 
L 1268.92395 732.935528 
L 1270.1016 734.134841 
L 1271.27925 734.139391 
L 1272.4569 733.87448 
L 1273.63455 731.041 
L 1274.8122 731.080503 
L 1277.1675 731.520099 
L 1279.5228 731.799968 
L 1280.70045 731.541867 
L 1281.8781 730.844326 
L 1283.05575 730.830276 
L 1284.2334 730.984983 
L 1285.41105 730.972085 
L 1286.5887 730.204558 
L 1287.76635 729.837568 
L 1288.944 729.188827 
L 1290.12165 729.26467 
L 1291.2993 729.619085 
L 1292.47695 730.709308 
L 1293.6546 730.285183 
L 1294.83225 730.169529 
L 1296.0099 729.611226 
L 1297.18755 730.096684 
L 1298.3652 730.154417 
L 1299.54285 730.951145 
L 1300.7205 731.368564 
L 1303.0758 730.805182 
L 1304.25345 730.929951 
L 1305.4311 730.814482 
L 1306.60875 731.450882 
L 1307.7864 731.51519 
L 1308.96405 731.142593 
L 1310.1417 731.029688 
L 1311.31935 731.98709 
L 1312.497 732.386269 
L 1313.67465 731.676961 
L 1314.8523 730.58457 
L 1316.02995 730.276687 
L 1317.2076 732.474312 
L 1318.38525 733.052021 
L 1319.5629 733.234944 
L 1320.74055 732.68145 
L 1321.9182 732.809394 
L 1323.09585 733.254057 
L 1324.2735 732.50416 
L 1325.45115 731.538231 
L 1326.6288 731.771948 
L 1327.80645 731.322416 
L 1328.9841 731.125184 
L 1330.16175 731.090397 
L 1331.3394 729.632418 
L 1332.51705 729.344043 
L 1333.6947 731.097332 
L 1334.87235 730.853533 
L 1336.05 731.512414 
L 1336.05 731.512414 
" style="fill:none;stroke:#008000;stroke-linecap:square;stroke-width:2.0;"/>
   </g>
   <g id="patch_3">
    <path d="M 158.4 51.3 
L 1336.05 51.3 
" style="fill:none;stroke:#000000;stroke-linecap:square;stroke-linejoin:miter;"/>
   </g>
   <g id="patch_4">
    <path d="M 1336.05 747 
L 1336.05 51.3 
" style="fill:none;stroke:#000000;stroke-linecap:square;stroke-linejoin:miter;"/>
   </g>
   <g id="patch_5">
    <path d="M 158.4 747 
L 1336.05 747 
" style="fill:none;stroke:#000000;stroke-linecap:square;stroke-linejoin:miter;"/>
   </g>
   <g id="patch_6">
    <path d="M 158.4 747 
L 158.4 51.3 
" style="fill:none;stroke:#000000;stroke-linecap:square;stroke-linejoin:miter;"/>
   </g>
   <g id="matplotlib.axis_1">
    <g id="xtick_1">
     <g id="line2d_3">
      <defs>
       <path d="M 0 0 
L 0 -4 
" id="m2285f4415e" style="stroke:#000000;stroke-width:0.5;"/>
      </defs>
      <g>
       <use style="stroke:#000000;stroke-width:0.5;" x="158.4" xlink:href="#m2285f4415e" y="747.0"/>
      </g>
     </g>
     <g id="line2d_4">
      <defs>
       <path d="M 0 0 
L 0 4 
" id="ma3522c1ede" style="stroke:#000000;stroke-width:0.5;"/>
      </defs>
      <g>
       <use style="stroke:#000000;stroke-width:0.5;" x="158.4" xlink:href="#ma3522c1ede" y="51.3"/>
      </g>
     </g>
     <g id="text_1">
      <!-- 0 -->
      <defs>
       <path d="M 31.78125 66.40625 
Q 24.171875 66.40625 20.328125 58.90625 
Q 16.5 51.421875 16.5 36.375 
Q 16.5 21.390625 20.328125 13.890625 
Q 24.171875 6.390625 31.78125 6.390625 
Q 39.453125 6.390625 43.28125 13.890625 
Q 47.125 21.390625 47.125 36.375 
Q 47.125 51.421875 43.28125 58.90625 
Q 39.453125 66.40625 31.78125 66.40625 
M 31.78125 74.21875 
Q 44.046875 74.21875 50.515625 64.515625 
Q 56.984375 54.828125 56.984375 36.375 
Q 56.984375 17.96875 50.515625 8.265625 
Q 44.046875 -1.421875 31.78125 -1.421875 
Q 19.53125 -1.421875 13.0625 8.265625 
Q 6.59375 17.96875 6.59375 36.375 
Q 6.59375 54.828125 13.0625 64.515625 
Q 19.53125 74.21875 31.78125 74.21875 
" id="BitstreamVeraSans-Roman-30"/>
      </defs>
      <g transform="translate(148.85625 773.7953125)scale(0.3 -0.3)">
       <use xlink:href="#BitstreamVeraSans-Roman-30"/>
      </g>
     </g>
    </g>
    <g id="xtick_2">
     <g id="line2d_5">
      <g>
       <use style="stroke:#000000;stroke-width:0.5;" x="393.93" xlink:href="#m2285f4415e" y="747.0"/>
      </g>
     </g>
     <g id="line2d_6">
      <g>
       <use style="stroke:#000000;stroke-width:0.5;" x="393.93" xlink:href="#ma3522c1ede" y="51.3"/>
      </g>
     </g>
     <g id="text_2">
      <!-- 20000 -->
      <defs>
       <path d="M 19.1875 8.296875 
L 53.609375 8.296875 
L 53.609375 0 
L 7.328125 0 
L 7.328125 8.296875 
Q 12.9375 14.109375 22.625 23.890625 
Q 32.328125 33.6875 34.8125 36.53125 
Q 39.546875 41.84375 41.421875 45.53125 
Q 43.3125 49.21875 43.3125 52.78125 
Q 43.3125 58.59375 39.234375 62.25 
Q 35.15625 65.921875 28.609375 65.921875 
Q 23.96875 65.921875 18.8125 64.3125 
Q 13.671875 62.703125 7.8125 59.421875 
L 7.8125 69.390625 
Q 13.765625 71.78125 18.9375 73 
Q 24.125 74.21875 28.421875 74.21875 
Q 39.75 74.21875 46.484375 68.546875 
Q 53.21875 62.890625 53.21875 53.421875 
Q 53.21875 48.921875 51.53125 44.890625 
Q 49.859375 40.875 45.40625 35.40625 
Q 44.1875 33.984375 37.640625 27.21875 
Q 31.109375 20.453125 19.1875 8.296875 
" id="BitstreamVeraSans-Roman-32"/>
      </defs>
      <g transform="translate(346.21125 773.7953125)scale(0.3 -0.3)">
       <use xlink:href="#BitstreamVeraSans-Roman-32"/>
       <use x="63.623046875" xlink:href="#BitstreamVeraSans-Roman-30"/>
       <use x="127.24609375" xlink:href="#BitstreamVeraSans-Roman-30"/>
       <use x="190.869140625" xlink:href="#BitstreamVeraSans-Roman-30"/>
       <use x="254.4921875" xlink:href="#BitstreamVeraSans-Roman-30"/>
      </g>
     </g>
    </g>
    <g id="xtick_3">
     <g id="line2d_7">
      <g>
       <use style="stroke:#000000;stroke-width:0.5;" x="629.46" xlink:href="#m2285f4415e" y="747.0"/>
      </g>
     </g>
     <g id="line2d_8">
      <g>
       <use style="stroke:#000000;stroke-width:0.5;" x="629.46" xlink:href="#ma3522c1ede" y="51.3"/>
      </g>
     </g>
     <g id="text_3">
      <!-- 40000 -->
      <defs>
       <path d="M 37.796875 64.3125 
L 12.890625 25.390625 
L 37.796875 25.390625 
z
M 35.203125 72.90625 
L 47.609375 72.90625 
L 47.609375 25.390625 
L 58.015625 25.390625 
L 58.015625 17.1875 
L 47.609375 17.1875 
L 47.609375 0 
L 37.796875 0 
L 37.796875 17.1875 
L 4.890625 17.1875 
L 4.890625 26.703125 
z
" id="BitstreamVeraSans-Roman-34"/>
      </defs>
      <g transform="translate(581.74125 773.7953125)scale(0.3 -0.3)">
       <use xlink:href="#BitstreamVeraSans-Roman-34"/>
       <use x="63.623046875" xlink:href="#BitstreamVeraSans-Roman-30"/>
       <use x="127.24609375" xlink:href="#BitstreamVeraSans-Roman-30"/>
       <use x="190.869140625" xlink:href="#BitstreamVeraSans-Roman-30"/>
       <use x="254.4921875" xlink:href="#BitstreamVeraSans-Roman-30"/>
      </g>
     </g>
    </g>
    <g id="xtick_4">
     <g id="line2d_9">
      <g>
       <use style="stroke:#000000;stroke-width:0.5;" x="864.99" xlink:href="#m2285f4415e" y="747.0"/>
      </g>
     </g>
     <g id="line2d_10">
      <g>
       <use style="stroke:#000000;stroke-width:0.5;" x="864.99" xlink:href="#ma3522c1ede" y="51.3"/>
      </g>
     </g>
     <g id="text_4">
      <!-- 60000 -->
      <defs>
       <path d="M 33.015625 40.375 
Q 26.375 40.375 22.484375 35.828125 
Q 18.609375 31.296875 18.609375 23.390625 
Q 18.609375 15.53125 22.484375 10.953125 
Q 26.375 6.390625 33.015625 6.390625 
Q 39.65625 6.390625 43.53125 10.953125 
Q 47.40625 15.53125 47.40625 23.390625 
Q 47.40625 31.296875 43.53125 35.828125 
Q 39.65625 40.375 33.015625 40.375 
M 52.59375 71.296875 
L 52.59375 62.3125 
Q 48.875 64.0625 45.09375 64.984375 
Q 41.3125 65.921875 37.59375 65.921875 
Q 27.828125 65.921875 22.671875 59.328125 
Q 17.53125 52.734375 16.796875 39.40625 
Q 19.671875 43.65625 24.015625 45.921875 
Q 28.375 48.1875 33.59375 48.1875 
Q 44.578125 48.1875 50.953125 41.515625 
Q 57.328125 34.859375 57.328125 23.390625 
Q 57.328125 12.15625 50.6875 5.359375 
Q 44.046875 -1.421875 33.015625 -1.421875 
Q 20.359375 -1.421875 13.671875 8.265625 
Q 6.984375 17.96875 6.984375 36.375 
Q 6.984375 53.65625 15.1875 63.9375 
Q 23.390625 74.21875 37.203125 74.21875 
Q 40.921875 74.21875 44.703125 73.484375 
Q 48.484375 72.75 52.59375 71.296875 
" id="BitstreamVeraSans-Roman-36"/>
      </defs>
      <g transform="translate(817.27125 773.7953125)scale(0.3 -0.3)">
       <use xlink:href="#BitstreamVeraSans-Roman-36"/>
       <use x="63.623046875" xlink:href="#BitstreamVeraSans-Roman-30"/>
       <use x="127.24609375" xlink:href="#BitstreamVeraSans-Roman-30"/>
       <use x="190.869140625" xlink:href="#BitstreamVeraSans-Roman-30"/>
       <use x="254.4921875" xlink:href="#BitstreamVeraSans-Roman-30"/>
      </g>
     </g>
    </g>
    <g id="xtick_5">
     <g id="line2d_11">
      <g>
       <use style="stroke:#000000;stroke-width:0.5;" x="1100.52" xlink:href="#m2285f4415e" y="747.0"/>
      </g>
     </g>
     <g id="line2d_12">
      <g>
       <use style="stroke:#000000;stroke-width:0.5;" x="1100.52" xlink:href="#ma3522c1ede" y="51.3"/>
      </g>
     </g>
     <g id="text_5">
      <!-- 80000 -->
      <defs>
       <path d="M 31.78125 34.625 
Q 24.75 34.625 20.71875 30.859375 
Q 16.703125 27.09375 16.703125 20.515625 
Q 16.703125 13.921875 20.71875 10.15625 
Q 24.75 6.390625 31.78125 6.390625 
Q 38.8125 6.390625 42.859375 10.171875 
Q 46.921875 13.96875 46.921875 20.515625 
Q 46.921875 27.09375 42.890625 30.859375 
Q 38.875 34.625 31.78125 34.625 
M 21.921875 38.8125 
Q 15.578125 40.375 12.03125 44.71875 
Q 8.5 49.078125 8.5 55.328125 
Q 8.5 64.0625 14.71875 69.140625 
Q 20.953125 74.21875 31.78125 74.21875 
Q 42.671875 74.21875 48.875 69.140625 
Q 55.078125 64.0625 55.078125 55.328125 
Q 55.078125 49.078125 51.53125 44.71875 
Q 48 40.375 41.703125 38.8125 
Q 48.828125 37.15625 52.796875 32.3125 
Q 56.78125 27.484375 56.78125 20.515625 
Q 56.78125 9.90625 50.3125 4.234375 
Q 43.84375 -1.421875 31.78125 -1.421875 
Q 19.734375 -1.421875 13.25 4.234375 
Q 6.78125 9.90625 6.78125 20.515625 
Q 6.78125 27.484375 10.78125 32.3125 
Q 14.796875 37.15625 21.921875 38.8125 
M 18.3125 54.390625 
Q 18.3125 48.734375 21.84375 45.5625 
Q 25.390625 42.390625 31.78125 42.390625 
Q 38.140625 42.390625 41.71875 45.5625 
Q 45.3125 48.734375 45.3125 54.390625 
Q 45.3125 60.0625 41.71875 63.234375 
Q 38.140625 66.40625 31.78125 66.40625 
Q 25.390625 66.40625 21.84375 63.234375 
Q 18.3125 60.0625 18.3125 54.390625 
" id="BitstreamVeraSans-Roman-38"/>
      </defs>
      <g transform="translate(1052.80125 773.7953125)scale(0.3 -0.3)">
       <use xlink:href="#BitstreamVeraSans-Roman-38"/>
       <use x="63.623046875" xlink:href="#BitstreamVeraSans-Roman-30"/>
       <use x="127.24609375" xlink:href="#BitstreamVeraSans-Roman-30"/>
       <use x="190.869140625" xlink:href="#BitstreamVeraSans-Roman-30"/>
       <use x="254.4921875" xlink:href="#BitstreamVeraSans-Roman-30"/>
      </g>
     </g>
    </g>
    <g id="xtick_6">
     <g id="line2d_13">
      <g>
       <use style="stroke:#000000;stroke-width:0.5;" x="1336.05" xlink:href="#m2285f4415e" y="747.0"/>
      </g>
     </g>
     <g id="line2d_14">
      <g>
       <use style="stroke:#000000;stroke-width:0.5;" x="1336.05" xlink:href="#ma3522c1ede" y="51.3"/>
      </g>
     </g>
     <g id="text_6">
      <!-- 100000 -->
      <defs>
       <path d="M 12.40625 8.296875 
L 28.515625 8.296875 
L 28.515625 63.921875 
L 10.984375 60.40625 
L 10.984375 69.390625 
L 28.421875 72.90625 
L 38.28125 72.90625 
L 38.28125 8.296875 
L 54.390625 8.296875 
L 54.390625 0 
L 12.40625 0 
z
" id="BitstreamVeraSans-Roman-31"/>
      </defs>
      <g transform="translate(1278.7875 773.7953125)scale(0.3 -0.3)">
       <use xlink:href="#BitstreamVeraSans-Roman-31"/>
       <use x="63.623046875" xlink:href="#BitstreamVeraSans-Roman-30"/>
       <use x="127.24609375" xlink:href="#BitstreamVeraSans-Roman-30"/>
       <use x="190.869140625" xlink:href="#BitstreamVeraSans-Roman-30"/>
       <use x="254.4921875" xlink:href="#BitstreamVeraSans-Roman-30"/>
       <use x="318.115234375" xlink:href="#BitstreamVeraSans-Roman-30"/>
      </g>
     </g>
    </g>
    <g id="text_7">
     <!-- iterations -->
     <defs>
      <path d="M 54.890625 33.015625 
L 54.890625 0 
L 45.90625 0 
L 45.90625 32.71875 
Q 45.90625 40.484375 42.875 44.328125 
Q 39.84375 48.1875 33.796875 48.1875 
Q 26.515625 48.1875 22.3125 43.546875 
Q 18.109375 38.921875 18.109375 30.90625 
L 18.109375 0 
L 9.078125 0 
L 9.078125 54.6875 
L 18.109375 54.6875 
L 18.109375 46.1875 
Q 21.34375 51.125 25.703125 53.5625 
Q 30.078125 56 35.796875 56 
Q 45.21875 56 50.046875 50.171875 
Q 54.890625 44.34375 54.890625 33.015625 
" id="BitstreamVeraSans-Roman-6e"/>
      <path d="M 34.28125 27.484375 
Q 23.390625 27.484375 19.1875 25 
Q 14.984375 22.515625 14.984375 16.5 
Q 14.984375 11.71875 18.140625 8.90625 
Q 21.296875 6.109375 26.703125 6.109375 
Q 34.1875 6.109375 38.703125 11.40625 
Q 43.21875 16.703125 43.21875 25.484375 
L 43.21875 27.484375 
z
M 52.203125 31.203125 
L 52.203125 0 
L 43.21875 0 
L 43.21875 8.296875 
Q 40.140625 3.328125 35.546875 0.953125 
Q 30.953125 -1.421875 24.3125 -1.421875 
Q 15.921875 -1.421875 10.953125 3.296875 
Q 6 8.015625 6 15.921875 
Q 6 25.140625 12.171875 29.828125 
Q 18.359375 34.515625 30.609375 34.515625 
L 43.21875 34.515625 
L 43.21875 35.40625 
Q 43.21875 41.609375 39.140625 45 
Q 35.0625 48.390625 27.6875 48.390625 
Q 23 48.390625 18.546875 47.265625 
Q 14.109375 46.140625 10.015625 43.890625 
L 10.015625 52.203125 
Q 14.9375 54.109375 19.578125 55.046875 
Q 24.21875 56 28.609375 56 
Q 40.484375 56 46.34375 49.84375 
Q 52.203125 43.703125 52.203125 31.203125 
" id="BitstreamVeraSans-Roman-61"/>
      <path d="M 30.609375 48.390625 
Q 23.390625 48.390625 19.1875 42.75 
Q 14.984375 37.109375 14.984375 27.296875 
Q 14.984375 17.484375 19.15625 11.84375 
Q 23.34375 6.203125 30.609375 6.203125 
Q 37.796875 6.203125 41.984375 11.859375 
Q 46.1875 17.53125 46.1875 27.296875 
Q 46.1875 37.015625 41.984375 42.703125 
Q 37.796875 48.390625 30.609375 48.390625 
M 30.609375 56 
Q 42.328125 56 49.015625 48.375 
Q 55.71875 40.765625 55.71875 27.296875 
Q 55.71875 13.875 49.015625 6.21875 
Q 42.328125 -1.421875 30.609375 -1.421875 
Q 18.84375 -1.421875 12.171875 6.21875 
Q 5.515625 13.875 5.515625 27.296875 
Q 5.515625 40.765625 12.171875 48.375 
Q 18.84375 56 30.609375 56 
" id="BitstreamVeraSans-Roman-6f"/>
      <path d="M 9.421875 54.6875 
L 18.40625 54.6875 
L 18.40625 0 
L 9.421875 0 
z
M 9.421875 75.984375 
L 18.40625 75.984375 
L 18.40625 64.59375 
L 9.421875 64.59375 
z
" id="BitstreamVeraSans-Roman-69"/>
      <path d="M 56.203125 29.59375 
L 56.203125 25.203125 
L 14.890625 25.203125 
Q 15.484375 15.921875 20.484375 11.0625 
Q 25.484375 6.203125 34.421875 6.203125 
Q 39.59375 6.203125 44.453125 7.46875 
Q 49.3125 8.734375 54.109375 11.28125 
L 54.109375 2.78125 
Q 49.265625 0.734375 44.1875 -0.34375 
Q 39.109375 -1.421875 33.890625 -1.421875 
Q 20.796875 -1.421875 13.15625 6.1875 
Q 5.515625 13.8125 5.515625 26.8125 
Q 5.515625 40.234375 12.765625 48.109375 
Q 20.015625 56 32.328125 56 
Q 43.359375 56 49.78125 48.890625 
Q 56.203125 41.796875 56.203125 29.59375 
M 47.21875 32.234375 
Q 47.125 39.59375 43.09375 43.984375 
Q 39.0625 48.390625 32.421875 48.390625 
Q 24.90625 48.390625 20.390625 44.140625 
Q 15.875 39.890625 15.1875 32.171875 
z
" id="BitstreamVeraSans-Roman-65"/>
      <path d="M 18.3125 70.21875 
L 18.3125 54.6875 
L 36.8125 54.6875 
L 36.8125 47.703125 
L 18.3125 47.703125 
L 18.3125 18.015625 
Q 18.3125 11.328125 20.140625 9.421875 
Q 21.96875 7.515625 27.59375 7.515625 
L 36.8125 7.515625 
L 36.8125 0 
L 27.59375 0 
Q 17.1875 0 13.234375 3.875 
Q 9.28125 7.765625 9.28125 18.015625 
L 9.28125 47.703125 
L 2.6875 47.703125 
L 2.6875 54.6875 
L 9.28125 54.6875 
L 9.28125 70.21875 
z
" id="BitstreamVeraSans-Roman-74"/>
      <path d="M 41.109375 46.296875 
Q 39.59375 47.171875 37.8125 47.578125 
Q 36.03125 48 33.890625 48 
Q 26.265625 48 22.1875 43.046875 
Q 18.109375 38.09375 18.109375 28.8125 
L 18.109375 0 
L 9.078125 0 
L 9.078125 54.6875 
L 18.109375 54.6875 
L 18.109375 46.1875 
Q 20.953125 51.171875 25.484375 53.578125 
Q 30.03125 56 36.53125 56 
Q 37.453125 56 38.578125 55.875 
Q 39.703125 55.765625 41.0625 55.515625 
z
" id="BitstreamVeraSans-Roman-72"/>
      <path d="M 44.28125 53.078125 
L 44.28125 44.578125 
Q 40.484375 46.53125 36.375 47.5 
Q 32.28125 48.484375 27.875 48.484375 
Q 21.1875 48.484375 17.84375 46.4375 
Q 14.5 44.390625 14.5 40.28125 
Q 14.5 37.15625 16.890625 35.375 
Q 19.28125 33.59375 26.515625 31.984375 
L 29.59375 31.296875 
Q 39.15625 29.25 43.1875 25.515625 
Q 47.21875 21.78125 47.21875 15.09375 
Q 47.21875 7.46875 41.1875 3.015625 
Q 35.15625 -1.421875 24.609375 -1.421875 
Q 20.21875 -1.421875 15.453125 -0.5625 
Q 10.6875 0.296875 5.421875 2 
L 5.421875 11.28125 
Q 10.40625 8.6875 15.234375 7.390625 
Q 20.0625 6.109375 24.8125 6.109375 
Q 31.15625 6.109375 34.5625 8.28125 
Q 37.984375 10.453125 37.984375 14.40625 
Q 37.984375 18.0625 35.515625 20.015625 
Q 33.0625 21.96875 24.703125 23.78125 
L 21.578125 24.515625 
Q 13.234375 26.265625 9.515625 29.90625 
Q 5.8125 33.546875 5.8125 39.890625 
Q 5.8125 47.609375 11.28125 51.796875 
Q 16.75 56 26.8125 56 
Q 31.78125 56 36.171875 55.265625 
Q 40.578125 54.546875 44.28125 53.078125 
" id="BitstreamVeraSans-Roman-73"/>
     </defs>
     <g transform="translate(676.04296875 807.8296875)scale(0.3 -0.3)">
      <use xlink:href="#BitstreamVeraSans-Roman-69"/>
      <use x="27.783203125" xlink:href="#BitstreamVeraSans-Roman-74"/>
      <use x="66.9921875" xlink:href="#BitstreamVeraSans-Roman-65"/>
      <use x="128.515625" xlink:href="#BitstreamVeraSans-Roman-72"/>
      <use x="169.62890625" xlink:href="#BitstreamVeraSans-Roman-61"/>
      <use x="230.908203125" xlink:href="#BitstreamVeraSans-Roman-74"/>
      <use x="270.1171875" xlink:href="#BitstreamVeraSans-Roman-69"/>
      <use x="297.900390625" xlink:href="#BitstreamVeraSans-Roman-6f"/>
      <use x="359.08203125" xlink:href="#BitstreamVeraSans-Roman-6e"/>
      <use x="422.4609375" xlink:href="#BitstreamVeraSans-Roman-73"/>
     </g>
    </g>
   </g>
   <g id="matplotlib.axis_2">
    <g id="ytick_1">
     <g id="line2d_15">
      <defs>
       <path d="M 0 0 
L 4 0 
" id="m161b9ede68" style="stroke:#000000;stroke-width:0.5;"/>
      </defs>
      <g>
       <use style="stroke:#000000;stroke-width:0.5;" x="158.4" xlink:href="#m161b9ede68" y="747.0"/>
      </g>
     </g>
     <g id="line2d_16">
      <defs>
       <path d="M 0 0 
L -4 0 
" id="m1244681340" style="stroke:#000000;stroke-width:0.5;"/>
      </defs>
      <g>
       <use style="stroke:#000000;stroke-width:0.5;" x="1336.05" xlink:href="#m1244681340" y="747.0"/>
      </g>
     </g>
     <g id="text_8">
      <!-- 60 -->
      <defs>
       <path d="M 10.59375 35.5 
L 73.1875 35.5 
L 73.1875 27.203125 
L 10.59375 27.203125 
z
" id="BitstreamVeraSans-Roman-2212"/>
      </defs>
      <g transform="translate(91.0859375 755.278125)scale(0.3 -0.3)">
       <use xlink:href="#BitstreamVeraSans-Roman-2212"/>
       <use x="83.7890625" xlink:href="#BitstreamVeraSans-Roman-36"/>
       <use x="147.412109375" xlink:href="#BitstreamVeraSans-Roman-30"/>
      </g>
     </g>
    </g>
    <g id="ytick_2">
     <g id="line2d_17">
      <g>
       <use style="stroke:#000000;stroke-width:0.5;" x="158.4" xlink:href="#m161b9ede68" y="660.0375"/>
      </g>
     </g>
     <g id="line2d_18">
      <g>
       <use style="stroke:#000000;stroke-width:0.5;" x="1336.05" xlink:href="#m1244681340" y="660.0375"/>
      </g>
     </g>
     <g id="text_9">
      <!-- 50 -->
      <defs>
       <path d="M 10.796875 72.90625 
L 49.515625 72.90625 
L 49.515625 64.59375 
L 19.828125 64.59375 
L 19.828125 46.734375 
Q 21.96875 47.46875 24.109375 47.828125 
Q 26.265625 48.1875 28.421875 48.1875 
Q 40.625 48.1875 47.75 41.5 
Q 54.890625 34.8125 54.890625 23.390625 
Q 54.890625 11.625 47.5625 5.09375 
Q 40.234375 -1.421875 26.90625 -1.421875 
Q 22.3125 -1.421875 17.546875 -0.640625 
Q 12.796875 0.140625 7.71875 1.703125 
L 7.71875 11.625 
Q 12.109375 9.234375 16.796875 8.0625 
Q 21.484375 6.890625 26.703125 6.890625 
Q 35.15625 6.890625 40.078125 11.328125 
Q 45.015625 15.765625 45.015625 23.390625 
Q 45.015625 31 40.078125 35.4375 
Q 35.15625 39.890625 26.703125 39.890625 
Q 22.75 39.890625 18.8125 39.015625 
Q 14.890625 38.140625 10.796875 36.28125 
z
" id="BitstreamVeraSans-Roman-35"/>
      </defs>
      <g transform="translate(91.0859375 668.315625)scale(0.3 -0.3)">
       <use xlink:href="#BitstreamVeraSans-Roman-2212"/>
       <use x="83.7890625" xlink:href="#BitstreamVeraSans-Roman-35"/>
       <use x="147.412109375" xlink:href="#BitstreamVeraSans-Roman-30"/>
      </g>
     </g>
    </g>
    <g id="ytick_3">
     <g id="line2d_19">
      <g>
       <use style="stroke:#000000;stroke-width:0.5;" x="158.4" xlink:href="#m161b9ede68" y="573.075"/>
      </g>
     </g>
     <g id="line2d_20">
      <g>
       <use style="stroke:#000000;stroke-width:0.5;" x="1336.05" xlink:href="#m1244681340" y="573.075"/>
      </g>
     </g>
     <g id="text_10">
      <!-- 40 -->
      <g transform="translate(91.0859375 581.353125)scale(0.3 -0.3)">
       <use xlink:href="#BitstreamVeraSans-Roman-2212"/>
       <use x="83.7890625" xlink:href="#BitstreamVeraSans-Roman-34"/>
       <use x="147.412109375" xlink:href="#BitstreamVeraSans-Roman-30"/>
      </g>
     </g>
    </g>
    <g id="ytick_4">
     <g id="line2d_21">
      <g>
       <use style="stroke:#000000;stroke-width:0.5;" x="158.4" xlink:href="#m161b9ede68" y="486.1125"/>
      </g>
     </g>
     <g id="line2d_22">
      <g>
       <use style="stroke:#000000;stroke-width:0.5;" x="1336.05" xlink:href="#m1244681340" y="486.1125"/>
      </g>
     </g>
     <g id="text_11">
      <!-- 30 -->
      <defs>
       <path d="M 40.578125 39.3125 
Q 47.65625 37.796875 51.625 33 
Q 55.609375 28.21875 55.609375 21.1875 
Q 55.609375 10.40625 48.1875 4.484375 
Q 40.765625 -1.421875 27.09375 -1.421875 
Q 22.515625 -1.421875 17.65625 -0.515625 
Q 12.796875 0.390625 7.625 2.203125 
L 7.625 11.71875 
Q 11.71875 9.328125 16.59375 8.109375 
Q 21.484375 6.890625 26.8125 6.890625 
Q 36.078125 6.890625 40.9375 10.546875 
Q 45.796875 14.203125 45.796875 21.1875 
Q 45.796875 27.640625 41.28125 31.265625 
Q 36.765625 34.90625 28.71875 34.90625 
L 20.21875 34.90625 
L 20.21875 43.015625 
L 29.109375 43.015625 
Q 36.375 43.015625 40.234375 45.921875 
Q 44.09375 48.828125 44.09375 54.296875 
Q 44.09375 59.90625 40.109375 62.90625 
Q 36.140625 65.921875 28.71875 65.921875 
Q 24.65625 65.921875 20.015625 65.03125 
Q 15.375 64.15625 9.8125 62.3125 
L 9.8125 71.09375 
Q 15.4375 72.65625 20.34375 73.4375 
Q 25.25 74.21875 29.59375 74.21875 
Q 40.828125 74.21875 47.359375 69.109375 
Q 53.90625 64.015625 53.90625 55.328125 
Q 53.90625 49.265625 50.4375 45.09375 
Q 46.96875 40.921875 40.578125 39.3125 
" id="BitstreamVeraSans-Roman-33"/>
      </defs>
      <g transform="translate(91.0859375 494.390625)scale(0.3 -0.3)">
       <use xlink:href="#BitstreamVeraSans-Roman-2212"/>
       <use x="83.7890625" xlink:href="#BitstreamVeraSans-Roman-33"/>
       <use x="147.412109375" xlink:href="#BitstreamVeraSans-Roman-30"/>
      </g>
     </g>
    </g>
    <g id="ytick_5">
     <g id="line2d_23">
      <g>
       <use style="stroke:#000000;stroke-width:0.5;" x="158.4" xlink:href="#m161b9ede68" y="399.15"/>
      </g>
     </g>
     <g id="line2d_24">
      <g>
       <use style="stroke:#000000;stroke-width:0.5;" x="1336.05" xlink:href="#m1244681340" y="399.15"/>
      </g>
     </g>
     <g id="text_12">
      <!-- 20 -->
      <g transform="translate(91.0859375 407.428125)scale(0.3 -0.3)">
       <use xlink:href="#BitstreamVeraSans-Roman-2212"/>
       <use x="83.7890625" xlink:href="#BitstreamVeraSans-Roman-32"/>
       <use x="147.412109375" xlink:href="#BitstreamVeraSans-Roman-30"/>
      </g>
     </g>
    </g>
    <g id="ytick_6">
     <g id="line2d_25">
      <g>
       <use style="stroke:#000000;stroke-width:0.5;" x="158.4" xlink:href="#m161b9ede68" y="312.1875"/>
      </g>
     </g>
     <g id="line2d_26">
      <g>
       <use style="stroke:#000000;stroke-width:0.5;" x="1336.05" xlink:href="#m1244681340" y="312.1875"/>
      </g>
     </g>
     <g id="text_13">
      <!-- 10 -->
      <g transform="translate(91.0859375 320.465625)scale(0.3 -0.3)">
       <use xlink:href="#BitstreamVeraSans-Roman-2212"/>
       <use x="83.7890625" xlink:href="#BitstreamVeraSans-Roman-31"/>
       <use x="147.412109375" xlink:href="#BitstreamVeraSans-Roman-30"/>
      </g>
     </g>
    </g>
    <g id="ytick_7">
     <g id="line2d_27">
      <g>
       <use style="stroke:#000000;stroke-width:0.5;" x="158.4" xlink:href="#m161b9ede68" y="225.225"/>
      </g>
     </g>
     <g id="line2d_28">
      <g>
       <use style="stroke:#000000;stroke-width:0.5;" x="1336.05" xlink:href="#m1244681340" y="225.225"/>
      </g>
     </g>
     <g id="text_14">
      <!-- 0 -->
      <g transform="translate(135.3125 233.503125)scale(0.3 -0.3)">
       <use xlink:href="#BitstreamVeraSans-Roman-30"/>
      </g>
     </g>
    </g>
    <g id="ytick_8">
     <g id="line2d_29">
      <g>
       <use style="stroke:#000000;stroke-width:0.5;" x="158.4" xlink:href="#m161b9ede68" y="138.2625"/>
      </g>
     </g>
     <g id="line2d_30">
      <g>
       <use style="stroke:#000000;stroke-width:0.5;" x="1336.05" xlink:href="#m1244681340" y="138.2625"/>
      </g>
     </g>
     <g id="text_15">
      <!-- 10 -->
      <g transform="translate(116.225 146.540625)scale(0.3 -0.3)">
       <use xlink:href="#BitstreamVeraSans-Roman-31"/>
       <use x="63.623046875" xlink:href="#BitstreamVeraSans-Roman-30"/>
      </g>
     </g>
    </g>
    <g id="ytick_9">
     <g id="line2d_31">
      <g>
       <use style="stroke:#000000;stroke-width:0.5;" x="158.4" xlink:href="#m161b9ede68" y="51.3"/>
      </g>
     </g>
     <g id="line2d_32">
      <g>
       <use style="stroke:#000000;stroke-width:0.5;" x="1336.05" xlink:href="#m1244681340" y="51.3"/>
      </g>
     </g>
     <g id="text_16">
      <!-- 20 -->
      <g transform="translate(116.225 59.578125)scale(0.3 -0.3)">
       <use xlink:href="#BitstreamVeraSans-Roman-32"/>
       <use x="63.623046875" xlink:href="#BitstreamVeraSans-Roman-30"/>
      </g>
     </g>
    </g>
    <g id="text_17">
     <!-- log(loss) -->
     <defs>
      <path d="M 8.015625 75.875 
L 15.828125 75.875 
Q 23.140625 64.359375 26.78125 53.3125 
Q 30.421875 42.28125 30.421875 31.390625 
Q 30.421875 20.453125 26.78125 9.375 
Q 23.140625 -1.703125 15.828125 -13.1875 
L 8.015625 -13.1875 
Q 14.5 -2 17.703125 9.0625 
Q 20.90625 20.125 20.90625 31.390625 
Q 20.90625 42.671875 17.703125 53.65625 
Q 14.5 64.65625 8.015625 75.875 
" id="BitstreamVeraSans-Roman-29"/>
      <path d="M 31 75.875 
Q 24.46875 64.65625 21.28125 53.65625 
Q 18.109375 42.671875 18.109375 31.390625 
Q 18.109375 20.125 21.3125 9.0625 
Q 24.515625 -2 31 -13.1875 
L 23.1875 -13.1875 
Q 15.875 -1.703125 12.234375 9.375 
Q 8.59375 20.453125 8.59375 31.390625 
Q 8.59375 42.28125 12.203125 53.3125 
Q 15.828125 64.359375 23.1875 75.875 
z
" id="BitstreamVeraSans-Roman-28"/>
      <path d="M 45.40625 27.984375 
Q 45.40625 37.75 41.375 43.109375 
Q 37.359375 48.484375 30.078125 48.484375 
Q 22.859375 48.484375 18.828125 43.109375 
Q 14.796875 37.75 14.796875 27.984375 
Q 14.796875 18.265625 18.828125 12.890625 
Q 22.859375 7.515625 30.078125 7.515625 
Q 37.359375 7.515625 41.375 12.890625 
Q 45.40625 18.265625 45.40625 27.984375 
M 54.390625 6.78125 
Q 54.390625 -7.171875 48.1875 -13.984375 
Q 42 -20.796875 29.203125 -20.796875 
Q 24.46875 -20.796875 20.265625 -20.09375 
Q 16.0625 -19.390625 12.109375 -17.921875 
L 12.109375 -9.1875 
Q 16.0625 -11.328125 19.921875 -12.34375 
Q 23.78125 -13.375 27.78125 -13.375 
Q 36.625 -13.375 41.015625 -8.765625 
Q 45.40625 -4.15625 45.40625 5.171875 
L 45.40625 9.625 
Q 42.625 4.78125 38.28125 2.390625 
Q 33.9375 0 27.875 0 
Q 17.828125 0 11.671875 7.65625 
Q 5.515625 15.328125 5.515625 27.984375 
Q 5.515625 40.671875 11.671875 48.328125 
Q 17.828125 56 27.875 56 
Q 33.9375 56 38.28125 53.609375 
Q 42.625 51.21875 45.40625 46.390625 
L 45.40625 54.6875 
L 54.390625 54.6875 
z
" id="BitstreamVeraSans-Roman-67"/>
      <path d="M 9.421875 75.984375 
L 18.40625 75.984375 
L 18.40625 0 
L 9.421875 0 
z
" id="BitstreamVeraSans-Roman-6c"/>
     </defs>
     <g transform="translate(79.846875 462.69609375)rotate(-90.0)scale(0.3 -0.3)">
      <use xlink:href="#BitstreamVeraSans-Roman-6c"/>
      <use x="27.783203125" xlink:href="#BitstreamVeraSans-Roman-6f"/>
      <use x="88.96484375" xlink:href="#BitstreamVeraSans-Roman-67"/>
      <use x="152.44140625" xlink:href="#BitstreamVeraSans-Roman-28"/>
      <use x="191.455078125" xlink:href="#BitstreamVeraSans-Roman-6c"/>
      <use x="219.23828125" xlink:href="#BitstreamVeraSans-Roman-6f"/>
      <use x="280.419921875" xlink:href="#BitstreamVeraSans-Roman-73"/>
      <use x="332.51953125" xlink:href="#BitstreamVeraSans-Roman-73"/>
      <use x="384.619140625" xlink:href="#BitstreamVeraSans-Roman-29"/>
     </g>
    </g>
   </g>
   <g id="legend_1">
    <g id="patch_7">
     <path d="M 843.876562 163.36875 
L 1321.05 163.36875 
L 1321.05 66.3 
L 843.876562 66.3 
z
" style="fill:#ffffff;stroke:#000000;stroke-linejoin:miter;"/>
    </g>
    <g id="line2d_33">
     <path d="M 864.876562 90.595312 
L 906.876562 90.595312 
" style="fill:none;stroke:#0000ff;stroke-linecap:square;stroke-width:2.0;"/>
    </g>
    <g id="line2d_34"/>
    <g id="text_18">
     <!-- random: step=0.005000 -->
     <defs>
      <path id="BitstreamVeraSans-Roman-20"/>
      <path d="M 52 44.1875 
Q 55.375 50.25 60.0625 53.125 
Q 64.75 56 71.09375 56 
Q 79.640625 56 84.28125 50.015625 
Q 88.921875 44.046875 88.921875 33.015625 
L 88.921875 0 
L 79.890625 0 
L 79.890625 32.71875 
Q 79.890625 40.578125 77.09375 44.375 
Q 74.3125 48.1875 68.609375 48.1875 
Q 61.625 48.1875 57.5625 43.546875 
Q 53.515625 38.921875 53.515625 30.90625 
L 53.515625 0 
L 44.484375 0 
L 44.484375 32.71875 
Q 44.484375 40.625 41.703125 44.40625 
Q 38.921875 48.1875 33.109375 48.1875 
Q 26.21875 48.1875 22.15625 43.53125 
Q 18.109375 38.875 18.109375 30.90625 
L 18.109375 0 
L 9.078125 0 
L 9.078125 54.6875 
L 18.109375 54.6875 
L 18.109375 46.1875 
Q 21.1875 51.21875 25.484375 53.609375 
Q 29.78125 56 35.6875 56 
Q 41.65625 56 45.828125 52.96875 
Q 50 49.953125 52 44.1875 
" id="BitstreamVeraSans-Roman-6d"/>
      <path d="M 11.71875 12.40625 
L 22.015625 12.40625 
L 22.015625 0 
L 11.71875 0 
z
M 11.71875 51.703125 
L 22.015625 51.703125 
L 22.015625 39.3125 
L 11.71875 39.3125 
z
" id="BitstreamVeraSans-Roman-3a"/>
      <path d="M 10.6875 12.40625 
L 21 12.40625 
L 21 0 
L 10.6875 0 
z
" id="BitstreamVeraSans-Roman-2e"/>
      <path d="M 10.59375 45.40625 
L 73.1875 45.40625 
L 73.1875 37.203125 
L 10.59375 37.203125 
z
M 10.59375 25.484375 
L 73.1875 25.484375 
L 73.1875 17.1875 
L 10.59375 17.1875 
z
" id="BitstreamVeraSans-Roman-3d"/>
      <path d="M 45.40625 46.390625 
L 45.40625 75.984375 
L 54.390625 75.984375 
L 54.390625 0 
L 45.40625 0 
L 45.40625 8.203125 
Q 42.578125 3.328125 38.25 0.953125 
Q 33.9375 -1.421875 27.875 -1.421875 
Q 17.96875 -1.421875 11.734375 6.484375 
Q 5.515625 14.40625 5.515625 27.296875 
Q 5.515625 40.1875 11.734375 48.09375 
Q 17.96875 56 27.875 56 
Q 33.9375 56 38.25 53.625 
Q 42.578125 51.265625 45.40625 46.390625 
M 14.796875 27.296875 
Q 14.796875 17.390625 18.875 11.75 
Q 22.953125 6.109375 30.078125 6.109375 
Q 37.203125 6.109375 41.296875 11.75 
Q 45.40625 17.390625 45.40625 27.296875 
Q 45.40625 37.203125 41.296875 42.84375 
Q 37.203125 48.484375 30.078125 48.484375 
Q 22.953125 48.484375 18.875 42.84375 
Q 14.796875 37.203125 14.796875 27.296875 
" id="BitstreamVeraSans-Roman-64"/>
      <path d="M 18.109375 8.203125 
L 18.109375 -20.796875 
L 9.078125 -20.796875 
L 9.078125 54.6875 
L 18.109375 54.6875 
L 18.109375 46.390625 
Q 20.953125 51.265625 25.265625 53.625 
Q 29.59375 56 35.59375 56 
Q 45.5625 56 51.78125 48.09375 
Q 58.015625 40.1875 58.015625 27.296875 
Q 58.015625 14.40625 51.78125 6.484375 
Q 45.5625 -1.421875 35.59375 -1.421875 
Q 29.59375 -1.421875 25.265625 0.953125 
Q 20.953125 3.328125 18.109375 8.203125 
M 48.6875 27.296875 
Q 48.6875 37.203125 44.609375 42.84375 
Q 40.53125 48.484375 33.40625 48.484375 
Q 26.265625 48.484375 22.1875 42.84375 
Q 18.109375 37.203125 18.109375 27.296875 
Q 18.109375 17.390625 22.1875 11.75 
Q 26.265625 6.109375 33.40625 6.109375 
Q 40.53125 6.109375 44.609375 11.75 
Q 48.6875 17.390625 48.6875 27.296875 
" id="BitstreamVeraSans-Roman-70"/>
     </defs>
     <g transform="translate(939.8765625 101.0953125)scale(0.3 -0.3)">
      <use xlink:href="#BitstreamVeraSans-Roman-72"/>
      <use x="41.11328125" xlink:href="#BitstreamVeraSans-Roman-61"/>
      <use x="102.392578125" xlink:href="#BitstreamVeraSans-Roman-6e"/>
      <use x="165.771484375" xlink:href="#BitstreamVeraSans-Roman-64"/>
      <use x="229.248046875" xlink:href="#BitstreamVeraSans-Roman-6f"/>
      <use x="290.4296875" xlink:href="#BitstreamVeraSans-Roman-6d"/>
      <use x="387.841796875" xlink:href="#BitstreamVeraSans-Roman-3a"/>
      <use x="421.533203125" xlink:href="#BitstreamVeraSans-Roman-20"/>
      <use x="453.3203125" xlink:href="#BitstreamVeraSans-Roman-73"/>
      <use x="505.419921875" xlink:href="#BitstreamVeraSans-Roman-74"/>
      <use x="544.62890625" xlink:href="#BitstreamVeraSans-Roman-65"/>
      <use x="606.15234375" xlink:href="#BitstreamVeraSans-Roman-70"/>
      <use x="669.62890625" xlink:href="#BitstreamVeraSans-Roman-3d"/>
      <use x="753.41796875" xlink:href="#BitstreamVeraSans-Roman-30"/>
      <use x="817.041015625" xlink:href="#BitstreamVeraSans-Roman-2e"/>
      <use x="848.828125" xlink:href="#BitstreamVeraSans-Roman-30"/>
      <use x="912.451171875" xlink:href="#BitstreamVeraSans-Roman-30"/>
      <use x="976.07421875" xlink:href="#BitstreamVeraSans-Roman-35"/>
      <use x="1039.69726562" xlink:href="#BitstreamVeraSans-Roman-30"/>
      <use x="1103.3203125" xlink:href="#BitstreamVeraSans-Roman-30"/>
      <use x="1166.94335938" xlink:href="#BitstreamVeraSans-Roman-30"/>
     </g>
    </g>
    <g id="line2d_35">
     <path d="M 864.876562 134.629687 
L 906.876562 134.629687 
" style="fill:none;stroke:#008000;stroke-linecap:square;stroke-width:2.0;"/>
    </g>
    <g id="line2d_36"/>
    <g id="text_19">
     <!-- corr: step=0.005000 -->
     <defs>
      <path d="M 48.78125 52.59375 
L 48.78125 44.1875 
Q 44.96875 46.296875 41.140625 47.34375 
Q 37.3125 48.390625 33.40625 48.390625 
Q 24.65625 48.390625 19.8125 42.84375 
Q 14.984375 37.3125 14.984375 27.296875 
Q 14.984375 17.28125 19.8125 11.734375 
Q 24.65625 6.203125 33.40625 6.203125 
Q 37.3125 6.203125 41.140625 7.25 
Q 44.96875 8.296875 48.78125 10.40625 
L 48.78125 2.09375 
Q 45.015625 0.34375 40.984375 -0.53125 
Q 36.96875 -1.421875 32.421875 -1.421875 
Q 20.0625 -1.421875 12.78125 6.34375 
Q 5.515625 14.109375 5.515625 27.296875 
Q 5.515625 40.671875 12.859375 48.328125 
Q 20.21875 56 33.015625 56 
Q 37.15625 56 41.109375 55.140625 
Q 45.0625 54.296875 48.78125 52.59375 
" id="BitstreamVeraSans-Roman-63"/>
     </defs>
     <g transform="translate(939.8765625 145.1296875)scale(0.3 -0.3)">
      <use xlink:href="#BitstreamVeraSans-Roman-63"/>
      <use x="54.98046875" xlink:href="#BitstreamVeraSans-Roman-6f"/>
      <use x="116.162109375" xlink:href="#BitstreamVeraSans-Roman-72"/>
      <use x="157.259765625" xlink:href="#BitstreamVeraSans-Roman-72"/>
      <use x="198.357421875" xlink:href="#BitstreamVeraSans-Roman-3a"/>
      <use x="232.048828125" xlink:href="#BitstreamVeraSans-Roman-20"/>
      <use x="263.8359375" xlink:href="#BitstreamVeraSans-Roman-73"/>
      <use x="315.935546875" xlink:href="#BitstreamVeraSans-Roman-74"/>
      <use x="355.14453125" xlink:href="#BitstreamVeraSans-Roman-65"/>
      <use x="416.66796875" xlink:href="#BitstreamVeraSans-Roman-70"/>
      <use x="480.14453125" xlink:href="#BitstreamVeraSans-Roman-3d"/>
      <use x="563.93359375" xlink:href="#BitstreamVeraSans-Roman-30"/>
      <use x="627.556640625" xlink:href="#BitstreamVeraSans-Roman-2e"/>
      <use x="659.34375" xlink:href="#BitstreamVeraSans-Roman-30"/>
      <use x="722.966796875" xlink:href="#BitstreamVeraSans-Roman-30"/>
      <use x="786.58984375" xlink:href="#BitstreamVeraSans-Roman-35"/>
      <use x="850.212890625" xlink:href="#BitstreamVeraSans-Roman-30"/>
      <use x="913.8359375" xlink:href="#BitstreamVeraSans-Roman-30"/>
      <use x="977.458984375" xlink:href="#BitstreamVeraSans-Roman-30"/>
     </g>
    </g>
   </g>
  </g>
 </g>
 <defs>
  <clipPath id="p426fc56c3d">
   <rect height="695.7" width="1177.65" x="158.4" y="51.3"/>
  </clipPath>
 </defs>
</svg>
