<?xml version="1.0" encoding="utf-8" standalone="no"?>
<!DOCTYPE svg PUBLIC "-//W3C//DTD SVG 1.1//EN"
  "http://www.w3.org/Graphics/SVG/1.1/DTD/svg11.dtd">
<!-- Created with matplotlib (http://matplotlib.org/) -->
<svg height="864pt" version="1.1" viewBox="0 0 1440 864" width="1440pt" xmlns="http://www.w3.org/2000/svg" xmlns:xlink="http://www.w3.org/1999/xlink">
 <defs>
  <style type="text/css">
*{stroke-linecap:butt;stroke-linejoin:round;stroke-miterlimit:100000;}
  </style>
 </defs>
 <g id="figure_1">
  <g id="patch_1">
   <path d="M 0 864 
L 1440 864 
L 1440 0 
L 0 0 
z
" style="fill:#ffffff;"/>
  </g>
  <g id="axes_1">
   <g id="patch_2">
    <path d="M 93.395313 770.34375 
L 1356.046875 770.34375 
L 1356.046875 57.917187 
L 93.395313 57.917187 
z
" style="fill:#ffffff;"/>
   </g>
   <g id="line2d_1">
    <path clip-path="url(#pdb6b6b968c)" d="M 94.657964 124.097239 
L 95.920616 124.02165 
L 97.183267 124.023872 
L 98.445919 124.163881 
L 99.70857 124.541893 
L 100.971222 124.60979 
L 102.233873 125.108354 
L 103.496525 125.117253 
L 104.759177 125.516854 
L 106.021828 125.528976 
L 107.28448 126.238663 
L 109.809783 126.048464 
L 111.072434 126.487514 
L 117.385692 126.333807 
L 118.648344 126.555129 
L 119.910995 126.624451 
L 122.436298 126.504562 
L 123.69895 127.244168 
L 127.486905 127.212717 
L 128.749556 126.540757 
L 132.537511 126.623147 
L 133.800162 127.107492 
L 140.11342 127.292275 
L 141.376072 127.417326 
L 142.638723 127.417389 
L 143.901375 128.575156 
L 147.68933 128.623421 
L 148.951981 129.435452 
L 150.214633 129.388766 
L 151.477284 129.524688 
L 152.739936 129.524278 
L 154.002588 129.781261 
L 157.790542 129.835621 
L 159.053194 131.788848 
L 161.578497 131.731799 
L 162.841148 131.739727 
L 164.1038 133.478198 
L 165.366452 133.498359 
L 166.629103 133.764531 
L 167.891755 133.763149 
L 169.154406 134.444344 
L 171.679709 134.535939 
L 172.942361 134.544475 
L 174.205013 134.707964 
L 175.467664 134.723933 
L 176.730316 134.93513 
L 180.51827 134.970004 
L 181.780922 134.410294 
L 188.09418 134.321151 
L 190.619483 134.271335 
L 191.882134 133.830866 
L 195.670089 133.672315 
L 196.932741 135.256786 
L 198.195392 135.208452 
L 199.458044 135.329569 
L 200.720695 135.32422 
L 201.983347 135.58593 
L 205.771302 135.519088 
L 208.296605 135.560596 
L 209.559256 136.785843 
L 210.821908 136.78555 
L 212.084559 137.626122 
L 213.347211 137.665585 
L 214.609863 139.277119 
L 218.397817 139.384017 
L 219.660469 138.701674 
L 222.185772 138.679984 
L 223.448423 138.685047 
L 224.711075 138.962264 
L 225.973727 138.963842 
L 227.236378 139.18865 
L 231.024333 139.216946 
L 233.549636 139.303464 
L 234.812288 139.771029 
L 236.074939 139.79729 
L 237.337591 139.598176 
L 238.600242 139.598755 
L 239.862894 139.387038 
L 241.125545 139.334539 
L 242.388197 140.099777 
L 243.650848 140.131944 
L 244.9135 139.810108 
L 246.176152 139.809099 
L 247.438803 141.118357 
L 251.226758 141.056875 
L 252.489409 141.623767 
L 253.752061 141.444752 
L 255.014713 141.6561 
L 256.277364 141.658382 
L 257.540016 141.31134 
L 261.32797 141.114732 
L 262.590622 141.658288 
L 263.853273 141.641762 
L 265.115925 142.688358 
L 272.691834 142.775631 
L 273.954486 142.778466 
L 275.217138 144.342949 
L 276.479789 144.423748 
L 277.742441 144.224336 
L 279.005092 144.219574 
L 280.267744 143.83979 
L 281.530395 143.854648 
L 282.793047 143.695681 
L 284.055698 143.699945 
L 285.31835 142.96836 
L 286.581002 143.006545 
L 287.843653 143.322832 
L 289.106305 143.313362 
L 290.368956 143.563241 
L 291.631608 143.632008 
L 292.894259 143.849065 
L 296.682214 143.834168 
L 297.944866 144.83441 
L 301.73282 144.762384 
L 302.995472 145.078826 
L 304.258123 145.245235 
L 305.520775 145.03212 
L 306.783427 145.03306 
L 308.046078 144.690495 
L 309.30873 144.863785 
L 310.571381 145.186677 
L 311.834033 145.184059 
L 313.096684 144.941592 
L 314.359336 144.907844 
L 315.621988 144.611916 
L 319.409942 144.603326 
L 320.672594 144.159712 
L 326.985852 144.262024 
L 328.248503 144.032327 
L 329.511155 144.031606 
L 330.773806 143.407276 
L 332.036458 143.470909 
L 333.299109 143.77063 
L 334.561761 143.77164 
L 335.824412 144.010251 
L 338.349716 143.751037 
L 342.13767 143.794822 
L 343.400322 144.386475 
L 347.188277 144.397337 
L 348.450928 145.151758 
L 349.71358 144.941286 
L 350.976231 145.13904 
L 352.238883 145.138988 
L 353.501534 146.228495 
L 354.764186 146.14832 
L 362.340095 146.377137 
L 363.602747 146.624809 
L 364.865398 146.581292 
L 366.12805 146.993634 
L 367.390702 146.988961 
L 368.653353 147.163109 
L 369.916005 147.173406 
L 371.178656 146.226926 
L 374.966611 146.219364 
L 376.229263 147.505508 
L 380.017217 147.461169 
L 381.279869 147.661469 
L 385.067823 147.690993 
L 386.330475 147.189436 
L 387.593127 147.059446 
L 388.855778 147.528606 
L 390.11843 147.530332 
L 391.381081 147.874554 
L 392.643733 147.987147 
L 393.906384 148.546104 
L 395.169036 148.547059 
L 396.431688 148.691603 
L 397.694339 148.701914 
L 398.956991 150.079476 
L 402.744945 150.041718 
L 404.007597 150.693927 
L 406.5329 150.841213 
L 407.795552 150.84165 
L 409.058203 151.518117 
L 410.320855 151.400371 
L 411.583506 151.777267 
L 412.846158 151.777573 
L 414.108809 152.084451 
L 415.371461 151.951562 
L 420.422067 152.142783 
L 421.684719 151.542303 
L 424.210022 151.760588 
L 425.472673 151.76432 
L 426.735325 153.056913 
L 429.260628 153.11193 
L 430.52328 153.110213 
L 431.785931 153.405786 
L 435.573886 153.354657 
L 436.836538 153.51812 
L 438.099189 153.432175 
L 439.361841 154.275659 
L 440.624492 154.37645 
L 443.149795 154.343118 
L 444.412447 154.504205 
L 445.675098 154.466135 
L 446.93775 154.633463 
L 448.200402 154.631654 
L 449.463053 154.970495 
L 450.725705 154.884717 
L 451.988356 154.616048 
L 453.251008 154.631237 
L 454.513659 154.081459 
L 455.776311 154.120216 
L 457.038963 155.124566 
L 458.301614 155.16362 
L 459.564266 155.018206 
L 460.826917 155.026249 
L 462.089569 155.292334 
L 465.877523 155.381134 
L 467.140175 155.993682 
L 469.665478 155.573615 
L 470.92813 155.574505 
L 472.190781 155.38693 
L 473.453433 155.645257 
L 474.716084 156.221995 
L 475.978736 156.225664 
L 478.504039 156.811498 
L 479.766691 158.126951 
L 481.029342 158.017397 
L 482.291994 158.030482 
L 483.554645 158.172933 
L 484.817297 159.261919 
L 486.079948 159.471239 
L 488.605252 159.417807 
L 489.867903 160.668103 
L 491.130555 160.53949 
L 492.393206 160.731235 
L 494.918509 160.760239 
L 496.181161 161.532573 
L 497.443813 162.121333 
L 498.706464 161.887339 
L 499.969116 161.879511 
L 501.231767 161.470944 
L 502.494419 161.734036 
L 503.75707 161.855565 
L 505.019722 161.749627 
L 506.282373 161.827928 
L 507.545025 161.735581 
L 508.807677 162.288886 
L 510.070328 162.660278 
L 511.33298 162.546853 
L 512.595631 162.548245 
L 513.858283 162.769223 
L 515.120934 163.589545 
L 516.383586 163.842244 
L 517.646238 163.835415 
L 520.171541 164.436175 
L 521.434192 165.351252 
L 523.959495 165.288669 
L 525.222147 165.51007 
L 526.484798 165.880704 
L 527.74745 166.08443 
L 530.272753 166.009763 
L 531.535405 166.672463 
L 535.323359 166.905703 
L 536.586011 166.557051 
L 537.848663 166.440503 
L 539.111314 166.980631 
L 540.373966 166.97972 
L 542.899269 167.190991 
L 544.16192 168.43372 
L 545.424572 168.456331 
L 546.687223 168.756119 
L 547.949875 168.689572 
L 549.212527 169.860971 
L 550.475178 169.849827 
L 551.73783 169.996516 
L 553.000481 169.99592 
L 554.263133 170.772074 
L 558.051088 170.979882 
L 559.313739 171.830062 
L 560.576391 171.62902 
L 563.101694 171.708361 
L 564.364345 171.611358 
L 565.626997 171.826212 
L 566.889648 171.906553 
L 568.1523 172.115898 
L 569.414952 171.864455 
L 570.677603 171.837105 
L 571.940255 172.522295 
L 573.202906 172.878702 
L 575.728209 172.795846 
L 578.253513 173.416268 
L 579.516164 173.30818 
L 584.56677 173.631084 
L 585.829422 173.791611 
L 588.354725 173.762439 
L 589.617377 174.351938 
L 590.880028 175.38201 
L 594.667983 175.43053 
L 595.930634 176.158677 
L 598.455938 176.193374 
L 599.718589 176.197257 
L 600.981241 177.290749 
L 602.243892 177.24062 
L 603.506544 177.369632 
L 606.031847 177.458565 
L 607.294498 177.911764 
L 608.55715 178.089776 
L 614.870408 178.173691 
L 616.133059 178.306498 
L 617.395711 178.310248 
L 618.658363 177.933779 
L 622.446317 177.977062 
L 623.708969 178.911866 
L 627.496923 179.202762 
L 628.759575 179.465781 
L 630.022227 179.455474 
L 631.284878 180.39089 
L 632.54753 180.389412 
L 633.810181 180.123357 
L 635.072833 180.125795 
L 636.335484 182.576726 
L 640.123439 182.470064 
L 641.386091 182.333095 
L 642.648742 182.362728 
L 643.911394 182.201059 
L 645.174045 182.199785 
L 646.436697 183.107984 
L 647.699348 183.093713 
L 648.962 183.32646 
L 650.224652 183.321624 
L 651.487303 183.616582 
L 652.749955 183.538744 
L 655.275258 183.611952 
L 657.800561 183.610081 
L 659.063213 183.860528 
L 660.325864 183.886527 
L 661.588516 184.583437 
L 662.851167 184.585789 
L 664.113819 184.815453 
L 665.37647 184.807279 
L 666.639122 185.06749 
L 667.901773 185.070919 
L 669.164425 183.948407 
L 671.689728 183.894901 
L 672.95238 183.889744 
L 674.215031 184.580881 
L 675.477683 184.629118 
L 676.740334 184.417651 
L 678.002986 184.41242 
L 679.265638 185.35023 
L 680.528289 185.437528 
L 683.053592 185.327037 
L 684.316244 186.960218 
L 685.578895 186.956992 
L 686.841547 187.255633 
L 688.104198 187.252544 
L 689.36685 187.41178 
L 690.629502 187.422003 
L 691.892153 188.363354 
L 695.680108 188.447912 
L 696.942759 189.125235 
L 700.730714 189.133067 
L 701.993366 189.422003 
L 703.256017 189.402238 
L 704.518669 189.556461 
L 705.78132 189.556611 
L 707.043972 191.217388 
L 708.306623 191.163416 
L 709.569275 190.976472 
L 713.35723 190.96234 
L 714.619881 192.292617 
L 718.407836 192.275385 
L 719.670488 193.412533 
L 723.458442 193.418197 
L 724.721094 193.13164 
L 725.983745 193.326134 
L 728.509048 193.329384 
L 729.7717 193.615933 
L 731.034352 194.575391 
L 733.559655 194.554297 
L 734.822306 194.265292 
L 738.610261 194.661263 
L 741.135564 194.636472 
L 743.660867 195.078861 
L 746.18617 195.148432 
L 747.448822 195.38873 
L 748.711473 196.469362 
L 752.499428 196.475316 
L 753.76208 197.43561 
L 755.024731 197.807832 
L 757.550034 197.883877 
L 760.075338 198.717564 
L 761.337989 199.002854 
L 765.125944 199.145216 
L 766.388595 200.318732 
L 770.17655 200.468547 
L 771.439202 200.103704 
L 772.701853 200.498365 
L 773.964505 200.723079 
L 776.489808 200.700002 
L 777.752459 200.529411 
L 779.015111 201.450637 
L 780.277763 201.312819 
L 781.540414 201.290969 
L 782.803066 201.395265 
L 784.065717 200.12292 
L 785.328369 200.116504 
L 786.59102 200.278784 
L 789.116323 200.252444 
L 790.378975 200.163787 
L 791.641627 200.637329 
L 795.429581 200.645743 
L 796.692233 200.952869 
L 797.954884 200.955383 
L 799.217536 201.127922 
L 800.480188 201.139077 
L 801.742839 202.414492 
L 805.530794 202.338276 
L 806.793445 203.10062 
L 810.5814 202.973413 
L 811.844052 202.320225 
L 813.106703 202.619441 
L 815.632006 202.555402 
L 820.682613 203.277747 
L 821.945264 203.279229 
L 824.470567 204.565655 
L 825.733219 204.683538 
L 828.258522 204.603019 
L 829.521173 205.100609 
L 830.783825 205.35495 
L 834.57178 205.178763 
L 835.834431 205.525378 
L 837.097083 205.665255 
L 838.359734 205.471941 
L 839.622386 205.476317 
L 840.885038 205.221261 
L 842.147689 205.414961 
L 843.410341 205.786512 
L 844.672992 205.792181 
L 845.935644 205.600656 
L 847.198295 205.208085 
L 850.98625 205.148571 
L 852.248902 205.569348 
L 853.511553 206.201984 
L 854.774205 206.13334 
L 857.299508 206.190339 
L 858.562159 206.634817 
L 859.824811 206.475886 
L 862.350114 206.537372 
L 863.612766 206.379189 
L 864.875417 206.442001 
L 866.138069 207.722333 
L 868.663372 207.807557 
L 869.926023 207.796879 
L 871.188675 209.753096 
L 874.97663 209.708531 
L 876.239281 211.387981 
L 877.501933 211.340711 
L 878.764584 211.766162 
L 880.027236 211.766794 
L 881.289888 212.201684 
L 882.552539 212.196906 
L 883.815191 213.378827 
L 885.077842 213.369917 
L 886.340494 213.869454 
L 887.603145 213.863692 
L 888.865797 214.34935 
L 892.653752 214.431597 
L 893.916403 216.081674 
L 897.704358 216.033552 
L 898.967009 216.555791 
L 900.229661 216.781004 
L 901.492313 216.667172 
L 904.017616 216.744389 
L 905.280267 217.1895 
L 906.542919 217.372313 
L 909.068222 217.374175 
L 910.330873 216.728894 
L 914.118828 216.937171 
L 915.38148 218.078196 
L 916.644131 218.361322 
L 919.169434 218.441279 
L 920.432086 218.346851 
L 921.694738 218.893854 
L 922.957389 218.778348 
L 925.482692 218.874599 
L 926.745344 218.543509 
L 928.007995 219.440869 
L 929.270647 219.633531 
L 931.79595 219.532393 
L 933.058602 219.721737 
L 934.321253 219.067701 
L 935.583905 219.384436 
L 938.109208 219.308364 
L 939.371859 219.73456 
L 940.634511 219.172557 
L 941.897163 218.897797 
L 944.422466 219.017825 
L 945.685117 219.451239 
L 950.735723 219.722765 
L 951.998375 219.619089 
L 953.261027 220.697947 
L 954.523678 220.499566 
L 955.78633 220.497946 
L 957.048981 220.918106 
L 959.574284 221.171246 
L 962.099588 221.208817 
L 963.362239 222.043873 
L 964.624891 222.587569 
L 965.887542 221.918828 
L 967.150194 221.906823 
L 968.412845 222.388498 
L 969.675497 222.20202 
L 970.938148 223.213761 
L 972.2008 223.213659 
L 974.726103 223.050477 
L 975.988755 224.699602 
L 979.776709 224.737166 
L 981.039361 223.476408 
L 983.564664 223.554308 
L 984.827316 223.532021 
L 986.089967 222.799108 
L 987.352619 222.794817 
L 988.61527 223.03655 
L 989.877922 223.031695 
L 991.140573 223.600322 
L 992.403225 223.837276 
L 994.928528 223.907507 
L 996.19118 224.52429 
L 997.453831 225.364481 
L 998.716483 225.589739 
L 1001.241786 225.589698 
L 1002.504438 225.399141 
L 1003.767089 225.670369 
L 1005.029741 225.433167 
L 1013.868302 225.485378 
L 1015.130953 226.046037 
L 1018.918908 226.123203 
L 1020.181559 226.770187 
L 1021.444211 227.828046 
L 1022.706863 227.545169 
L 1025.232166 227.65063 
L 1026.494817 227.343724 
L 1027.757469 228.498581 
L 1030.282772 228.590028 
L 1031.545423 228.659516 
L 1032.808075 229.968454 
L 1034.070727 229.941703 
L 1035.333378 229.721329 
L 1037.858681 229.61741 
L 1039.121333 230.110147 
L 1040.383984 230.438678 
L 1041.646636 230.297863 
L 1044.171939 230.397128 
L 1045.434591 230.915882 
L 1047.959894 230.612869 
L 1049.222545 230.616158 
L 1051.747848 231.014298 
L 1053.0105 230.503327 
L 1054.273152 230.491774 
L 1056.798455 230.326237 
L 1059.323758 230.23824 
L 1060.586409 230.398284 
L 1061.849061 230.283296 
L 1063.111713 230.69446 
L 1066.899667 230.763605 
L 1068.162319 231.337183 
L 1069.42497 231.335005 
L 1070.687622 231.446837 
L 1071.950273 231.445186 
L 1073.212925 231.713821 
L 1074.475577 231.66966 
L 1075.738228 231.987557 
L 1077.00088 231.99182 
L 1078.263531 232.217886 
L 1079.526183 232.200345 
L 1080.788834 232.63804 
L 1082.051486 232.637662 
L 1083.314138 233.308043 
L 1085.839441 232.731437 
L 1088.364744 232.655068 
L 1090.890047 233.389361 
L 1093.41535 233.496148 
L 1097.203305 235.001957 
L 1098.465956 234.889675 
L 1099.728608 234.889934 
L 1102.253911 234.546381 
L 1103.516562 234.671375 
L 1104.779214 234.468597 
L 1106.041866 234.469345 
L 1107.304517 235.058853 
L 1108.567169 235.498676 
L 1111.092472 235.563869 
L 1112.355123 236.242874 
L 1113.617775 235.656497 
L 1114.880427 235.374257 
L 1118.668381 235.154584 
L 1119.931033 235.494244 
L 1121.193684 235.555948 
L 1122.456336 235.388582 
L 1123.718988 235.380451 
L 1127.506942 236.013282 
L 1128.769594 236.014545 
L 1130.032245 236.923866 
L 1131.294897 236.929444 
L 1132.557548 238.084639 
L 1135.082852 238.094777 
L 1136.345503 238.235916 
L 1141.396109 238.20439 
L 1142.658761 238.624029 
L 1143.921413 238.730431 
L 1145.184064 239.009054 
L 1146.446716 239.005999 
L 1147.709367 239.32294 
L 1148.972019 239.317819 
L 1150.23467 239.786204 
L 1154.022625 239.80112 
L 1155.285277 240.778199 
L 1157.81058 240.860583 
L 1159.073231 240.860868 
L 1160.335883 239.923701 
L 1161.598534 239.944819 
L 1164.123838 239.812835 
L 1165.386489 241.689438 
L 1166.649141 241.628444 
L 1167.911792 241.801483 
L 1169.174444 241.798281 
L 1170.437095 242.344685 
L 1171.699747 242.353235 
L 1172.962398 242.113952 
L 1174.22505 242.116681 
L 1175.487702 242.620263 
L 1176.750353 242.502376 
L 1178.013005 241.926612 
L 1185.588914 241.976287 
L 1186.851566 242.539577 
L 1188.114217 242.270252 
L 1189.376869 242.229511 
L 1191.902172 242.33233 
L 1193.164823 243.081683 
L 1194.427475 243.327085 
L 1195.690127 243.108531 
L 1196.952778 243.108679 
L 1199.478081 243.250729 
L 1200.740733 243.604721 
L 1202.003384 243.525503 
L 1203.266036 243.574192 
L 1204.528688 243.753266 
L 1205.791339 244.247926 
L 1207.053991 244.09724 
L 1208.316642 244.097421 
L 1210.841945 244.746836 
L 1212.104597 244.747663 
L 1213.367248 244.997388 
L 1214.6299 244.78176 
L 1217.155203 244.709428 
L 1218.417855 245.083059 
L 1223.468461 245.247693 
L 1224.731113 244.760022 
L 1225.993764 244.755952 
L 1227.256416 245.96767 
L 1228.519067 245.966758 
L 1229.781719 246.101644 
L 1231.04437 246.101091 
L 1232.307022 244.834893 
L 1233.569673 244.834072 
L 1234.832325 243.568184 
L 1236.094977 243.568184 
L 1237.357628 244.130436 
L 1238.62028 244.129404 
L 1239.882931 243.939356 
L 1241.145583 243.938424 
L 1242.408234 244.593575 
L 1243.670886 244.595976 
L 1244.933538 244.925347 
L 1246.196189 244.925015 
L 1247.458841 245.249798 
L 1248.721492 245.245157 
L 1249.984144 245.598833 
L 1251.246795 245.59881 
L 1252.509447 245.350181 
L 1253.772098 245.349607 
L 1255.03475 246.284369 
L 1256.297402 246.285415 
L 1257.560053 247.235755 
L 1258.822705 247.236523 
L 1260.085356 247.732884 
L 1261.348008 247.732682 
L 1262.610659 247.342046 
L 1263.873311 247.336274 
L 1265.135963 248.071719 
L 1266.398614 248.076451 
L 1267.661266 248.251453 
L 1281.550433 248.337668 
L 1282.813084 247.967998 
L 1284.075736 247.972341 
L 1285.338388 248.350469 
L 1286.601039 248.355849 
L 1287.863691 248.507391 
L 1289.126342 248.506439 
L 1290.388994 249.770858 
L 1291.651645 249.778717 
L 1292.914297 250.403256 
L 1296.702252 250.30673 
L 1297.964903 250.802595 
L 1299.227555 250.802352 
L 1300.490206 250.086007 
L 1301.752858 250.086094 
L 1303.015509 250.404304 
L 1304.278161 250.40618 
L 1305.540813 251.170424 
L 1306.803464 251.169804 
L 1308.066116 251.677966 
L 1309.328767 251.678229 
L 1310.591419 250.53606 
L 1311.85407 250.530051 
L 1313.116722 250.962489 
L 1314.379373 250.96309 
L 1315.642025 250.015289 
L 1316.904677 250.013057 
L 1318.167328 250.56246 
L 1321.955283 250.651489 
L 1323.217934 249.935631 
L 1324.480586 249.935393 
L 1325.743238 250.252049 
L 1327.005889 250.252208 
L 1328.268541 251.036381 
L 1329.531192 251.038044 
L 1330.793844 251.427773 
L 1332.056495 251.429616 
L 1333.319147 251.264046 
L 1334.581798 251.262893 
L 1335.84445 251.660912 
L 1337.107102 251.661726 
L 1338.369753 251.449796 
L 1344.683011 251.508432 
L 1345.945663 250.98114 
L 1347.208314 250.982257 
L 1348.470966 251.387938 
L 1349.733617 251.387733 
L 1350.996269 252.52552 
L 1352.25892 252.524378 
L 1353.521572 252.754812 
L 1354.784223 253.42398 
L 1356.046875 253.573947 
L 1356.046875 253.573947 
" style="fill:none;stroke:#0000ff;stroke-linecap:square;stroke-width:2.0;"/>
   </g>
   <g id="line2d_2">
    <path clip-path="url(#pdb6b6b968c)" d="M 94.657964 132.075085 
L 95.920616 133.280819 
L 97.183267 150.109196 
L 98.445919 150.543112 
L 100.971222 150.56621 
L 102.233873 169.46832 
L 103.496525 169.697355 
L 106.021828 169.699742 
L 107.28448 185.286262 
L 108.547131 185.338358 
L 109.809783 185.265173 
L 111.072434 185.344815 
L 112.335086 202.066176 
L 116.123041 202.115767 
L 117.385692 220.028147 
L 118.648344 220.158162 
L 119.910995 220.135834 
L 121.173647 219.976274 
L 122.436298 238.18655 
L 126.224253 238.158512 
L 127.486905 254.98277 
L 131.274859 255.035484 
L 132.537511 272.516889 
L 135.062814 272.60805 
L 136.325466 272.607145 
L 137.588117 290.32015 
L 141.376072 290.33951 
L 142.638723 306.265646 
L 146.426678 306.274979 
L 147.68933 321.514727 
L 151.477284 321.522171 
L 152.739936 336.686343 
L 156.527891 336.690866 
L 157.790542 355.209035 
L 161.578497 355.205232 
L 162.841148 372.356877 
L 166.629103 372.357864 
L 167.891755 389.492208 
L 171.679709 389.496612 
L 172.942361 407.558195 
L 176.730316 407.560103 
L 177.992967 422.42908 
L 181.780922 422.471368 
L 183.043573 437.299012 
L 186.831528 437.305062 
L 188.09418 455.291445 
L 191.882134 455.310052 
L 193.144786 471.082829 
L 196.932741 471.079222 
L 198.195392 488.452307 
L 201.983347 488.452831 
L 203.245998 506.554629 
L 207.033953 506.565428 
L 208.296605 523.029127 
L 212.084559 523.041286 
L 213.347211 539.027958 
L 217.135166 539.02841 
L 218.397817 553.42112 
L 222.185772 553.41776 
L 223.448423 572.100489 
L 227.236378 572.100069 
L 228.49903 586.726246 
L 232.286984 586.724262 
L 233.549636 605.004379 
L 237.337591 605.001294 
L 238.600242 624.935883 
L 242.388197 624.95677 
L 243.650848 642.343171 
L 247.438803 642.362028 
L 248.701455 661.06544 
L 252.489409 661.068704 
L 253.752061 678.131626 
L 257.540016 678.13402 
L 258.802667 693.852048 
L 262.590622 693.857405 
L 263.853273 709.207263 
L 267.641228 709.200912 
L 268.90388 722.957446 
L 272.691834 722.936009 
L 273.954486 734.150128 
L 277.742441 734.133895 
L 279.005092 741.53193 
L 282.793047 741.54868 
L 284.055698 742.005975 
L 287.843653 742.04295 
L 289.106305 741.567229 
L 292.894259 741.586357 
L 294.156911 742.309879 
L 297.944866 742.310277 
L 299.207517 744.332613 
L 302.995472 744.331435 
L 304.258123 743.022968 
L 308.046078 743.014688 
L 309.30873 743.634639 
L 313.096684 743.658517 
L 314.359336 743.396336 
L 318.147291 743.355973 
L 319.409942 742.70157 
L 323.197897 742.702711 
L 324.460548 740.291445 
L 326.985852 740.275477 
L 328.248503 740.293262 
L 329.511155 740.428197 
L 333.299109 740.413528 
L 334.561761 741.675894 
L 358.552141 741.681821 
L 359.814792 742.563995 
L 363.602747 742.573252 
L 364.865398 743.493755 
L 368.653353 743.543872 
L 369.916005 742.811946 
L 373.703959 742.823647 
L 374.966611 740.498005 
L 378.754566 740.496694 
L 380.017217 741.029893 
L 383.805172 741.024293 
L 385.067823 740.619752 
L 388.855778 740.641515 
L 390.11843 741.26877 
L 393.906384 741.278558 
L 395.169036 741.022687 
L 398.956991 741.014769 
L 400.219642 741.759938 
L 404.007597 741.742471 
L 405.270248 743.202987 
L 409.058203 743.191496 
L 410.320855 741.675821 
L 414.108809 741.666805 
L 415.371461 743.337237 
L 419.159416 743.336899 
L 421.684719 743.292907 
L 424.210022 743.28317 
L 425.472673 741.118086 
L 429.260628 741.133375 
L 430.52328 741.36143 
L 434.311234 741.362773 
L 435.573886 740.594677 
L 439.361841 740.580073 
L 440.624492 741.482799 
L 444.412447 741.487241 
L 445.675098 742.768227 
L 449.463053 742.749852 
L 450.725705 741.928307 
L 454.513659 741.917958 
L 455.776311 742.188294 
L 459.564266 742.18645 
L 460.826917 741.759635 
L 464.614872 741.735934 
L 465.877523 743.418005 
L 469.665478 743.415632 
L 470.92813 742.578327 
L 474.716084 742.576536 
L 475.978736 743.18775 
L 479.766691 743.195315 
L 481.029342 741.869877 
L 484.817297 741.85716 
L 486.079948 740.925367 
L 489.867903 740.951437 
L 491.130555 740.34117 
L 494.918509 740.365241 
L 496.181161 742.500834 
L 499.969116 742.516932 
L 501.231767 741.707737 
L 505.019722 741.703803 
L 506.282373 742.013098 
L 510.070328 742.001676 
L 511.33298 741.138932 
L 515.120934 741.145183 
L 516.383586 741.390449 
L 520.171541 741.388945 
L 521.434192 741.997092 
L 525.222147 742.004414 
L 527.74745 741.900875 
L 530.272753 741.89227 
L 531.535405 742.268069 
L 540.373966 742.166876 
L 541.636617 742.585738 
L 545.424572 742.587449 
L 546.687223 742.097135 
L 550.475178 742.090077 
L 551.73783 742.659025 
L 555.525784 742.665698 
L 556.788436 742.793042 
L 559.313739 742.771653 
L 560.576391 742.800906 
L 561.839042 741.172601 
L 565.626997 741.183927 
L 566.889648 742.379289 
L 570.677603 742.375729 
L 571.940255 741.899186 
L 575.728209 741.89312 
L 576.990861 740.303055 
L 580.778816 740.30447 
L 582.041467 740.973035 
L 585.829422 741.010153 
L 587.092073 741.952156 
L 595.930634 742.127326 
L 597.193286 742.272295 
L 600.981241 742.281997 
L 602.243892 742.607515 
L 606.031847 742.602455 
L 607.294498 742.796205 
L 611.082453 742.790461 
L 612.345105 743.112083 
L 616.133059 743.109747 
L 617.395711 742.935007 
L 626.234272 742.875095 
L 627.496923 742.462948 
L 636.335484 742.325312 
L 637.598136 742.806066 
L 640.123439 742.85167 
L 641.386091 742.826562 
L 642.648742 741.447023 
L 646.436697 741.43446 
L 647.699348 741.660486 
L 651.487303 741.661453 
L 652.749955 743.197785 
L 656.537909 743.18644 
L 657.800561 742.568431 
L 661.588516 742.577112 
L 662.851167 741.938659 
L 666.639122 741.904391 
L 667.901773 740.936873 
L 671.689728 740.927936 
L 672.95238 742.958192 
L 676.740334 742.948879 
L 678.002986 743.379002 
L 681.790941 743.368112 
L 683.053592 741.811304 
L 686.841547 741.841286 
L 688.104198 742.140406 
L 691.892153 742.157543 
L 693.154805 742.309211 
L 696.942759 742.276183 
L 698.205411 741.553031 
L 701.993366 741.550613 
L 703.256017 740.628114 
L 707.043972 740.651325 
L 708.306623 741.2447 
L 712.094578 741.240377 
L 713.35723 741.800802 
L 715.882533 741.802501 
L 717.145184 741.794222 
L 718.407836 742.329097 
L 722.195791 742.321852 
L 723.458442 742.794089 
L 727.246397 742.795209 
L 728.509048 743.797856 
L 732.297003 743.828545 
L 733.559655 744.600872 
L 737.347609 744.574394 
L 738.610261 741.942324 
L 742.398216 741.931035 
L 743.660867 742.924867 
L 747.448822 742.875397 
L 748.711473 742.05364 
L 752.499428 742.026725 
L 753.76208 741.679803 
L 757.550034 741.770438 
L 758.812686 742.452128 
L 762.600641 742.494898 
L 763.863292 741.946813 
L 767.651247 741.940477 
L 768.913898 743.928186 
L 773.964505 743.901548 
L 777.752459 743.904979 
L 779.015111 742.744288 
L 782.803066 742.742926 
L 784.065717 740.857133 
L 787.853672 740.856792 
L 789.116323 741.363386 
L 792.904278 741.352139 
L 794.16693 741.920152 
L 797.954884 741.941042 
L 799.217536 742.828709 
L 803.005491 742.799826 
L 804.268142 743.380105 
L 808.056097 743.394506 
L 809.318748 741.573639 
L 813.106703 741.605021 
L 814.369355 743.245319 
L 818.157309 743.250874 
L 819.419961 742.479405 
L 821.945264 742.479405 
L 823.207916 742.454604 
L 824.470567 740.837817 
L 828.258522 740.840071 
L 829.521173 741.983581 
L 833.309128 741.980386 
L 834.57178 742.575276 
L 843.410341 742.584877 
L 844.672992 742.024708 
L 848.460947 742.011079 
L 849.723598 742.530351 
L 853.511553 742.550086 
L 854.774205 741.520389 
L 858.562159 741.538178 
L 859.824811 742.840117 
L 863.612766 742.861012 
L 864.875417 740.857478 
L 868.663372 740.856844 
L 869.926023 741.910669 
L 873.713978 741.87774 
L 874.97663 742.408617 
L 878.764584 742.402133 
L 880.027236 741.624905 
L 883.815191 741.569519 
L 888.865797 741.589683 
L 890.128448 742.802009 
L 893.916403 742.829978 
L 895.179055 742.263898 
L 898.967009 742.260931 
L 900.229661 741.052509 
L 904.017616 741.05643 
L 905.280267 742.198056 
L 909.068222 742.19037 
L 910.330873 741.053965 
L 914.118828 741.037195 
L 915.38148 741.293813 
L 919.169434 741.28576 
L 920.432086 742.652964 
L 924.220041 742.65236 
L 925.482692 741.728617 
L 934.321253 741.749628 
L 935.583905 742.667698 
L 939.371859 742.650994 
L 940.634511 741.604593 
L 944.422466 741.602068 
L 945.685117 742.516718 
L 949.473072 742.495072 
L 950.735723 741.564735 
L 954.523678 741.554615 
L 955.78633 742.599265 
L 959.574284 742.579934 
L 960.836936 743.265106 
L 964.624891 743.278456 
L 965.887542 742.575195 
L 969.675497 742.576851 
L 970.938148 742.054442 
L 974.726103 742.057192 
L 975.988755 743.018082 
L 979.776709 743.013445 
L 981.039361 743.153052 
L 984.827316 743.151631 
L 986.089967 742.419557 
L 989.877922 742.440554 
L 991.140573 742.034902 
L 994.928528 742.012565 
L 996.19118 741.16867 
L 999.979134 741.169339 
L 1001.241786 741.495335 
L 1005.029741 741.488543 
L 1006.292392 741.702955 
L 1010.080347 741.711439 
L 1011.342998 740.793667 
L 1015.130953 740.795874 
L 1016.393605 742.913513 
L 1025.232166 742.770379 
L 1026.494817 743.010988 
L 1030.282772 743.004801 
L 1031.545423 743.755554 
L 1035.333378 743.755996 
L 1036.59603 741.478987 
L 1040.383984 741.515611 
L 1041.646636 741.101413 
L 1045.434591 741.098668 
L 1046.697242 741.861029 
L 1050.485197 741.851094 
L 1051.747848 741.390465 
L 1055.535803 741.388515 
L 1056.798455 741.629071 
L 1060.586409 741.608213 
L 1061.849061 740.951576 
L 1065.637016 740.945714 
L 1066.899667 741.505411 
L 1070.687622 741.508256 
L 1071.950273 742.300853 
L 1080.788834 742.40863 
L 1082.051486 741.852799 
L 1085.839441 741.835856 
L 1087.102092 741.471103 
L 1090.890047 741.470296 
L 1092.152698 739.553954 
L 1095.940653 739.505059 
L 1097.203305 739.72897 
L 1100.991259 739.709934 
L 1102.253911 742.58055 
L 1106.041866 742.573756 
L 1107.304517 741.063477 
L 1111.092472 741.062373 
L 1112.355123 741.583547 
L 1116.143078 741.592442 
L 1117.40573 743.029934 
L 1121.193684 743.027899 
L 1122.456336 742.467098 
L 1126.244291 742.479253 
L 1127.506942 741.48262 
L 1131.294897 741.495905 
L 1132.557548 741.247207 
L 1136.345503 741.246533 
L 1137.608155 741.886164 
L 1141.396109 741.883058 
L 1142.658761 739.950625 
L 1146.446716 739.926965 
L 1147.709367 741.799342 
L 1151.497322 741.816537 
L 1152.759973 742.238442 
L 1156.547928 742.265066 
L 1157.81058 741.360245 
L 1161.598534 741.357219 
L 1162.861186 740.853621 
L 1166.649141 740.880006 
L 1167.911792 740.705612 
L 1171.699747 740.72645 
L 1172.962398 739.169237 
L 1176.750353 739.171892 
L 1178.013005 739.560654 
L 1181.800959 739.566101 
L 1183.063611 740.727024 
L 1186.851566 740.707108 
L 1188.114217 742.914598 
L 1191.902172 742.942051 
L 1193.164823 740.455488 
L 1195.690127 740.452843 
L 1196.952778 740.493118 
L 1198.21543 741.492709 
L 1202.003384 741.464091 
L 1203.266036 743.995954 
L 1207.053991 743.999253 
L 1208.316642 741.955189 
L 1212.104597 741.946746 
L 1213.367248 741.599987 
L 1217.155203 741.565197 
L 1218.417855 740.72838 
L 1222.205809 740.718806 
L 1223.468461 741.773932 
L 1227.256416 741.798023 
L 1228.519067 741.113435 
L 1234.832325 741.185647 
L 1237.357628 741.1448 
L 1238.62028 741.739816 
L 1242.408234 741.740021 
L 1243.670886 742.30791 
L 1247.458841 742.30808 
L 1248.721492 741.010285 
L 1252.509447 741.01458 
L 1253.772098 740.739645 
L 1257.560053 740.752566 
L 1258.822705 741.118239 
L 1262.610659 741.147111 
L 1263.873311 741.869985 
L 1267.661266 741.876842 
L 1268.923917 742.108757 
L 1272.711872 742.073145 
L 1273.974523 742.279969 
L 1277.762478 742.292033 
L 1279.02513 741.974825 
L 1282.813084 741.958287 
L 1284.075736 741.056772 
L 1287.863691 741.063804 
L 1289.126342 740.716041 
L 1292.914297 740.702269 
L 1294.176948 742.745416 
L 1297.964903 742.713941 
L 1299.227555 742.392431 
L 1303.015509 742.388646 
L 1304.278161 742.593944 
L 1308.066116 742.597335 
L 1309.328767 741.454434 
L 1313.116722 741.451091 
L 1314.379373 741.586433 
L 1323.217934 741.604682 
L 1324.480586 741.905301 
L 1328.268541 741.904396 
L 1329.531192 742.249946 
L 1333.319147 742.249942 
L 1334.581798 741.296989 
L 1338.369753 741.282853 
L 1339.632405 741.036839 
L 1348.470966 741.209955 
L 1349.733617 740.632833 
L 1353.521572 740.603069 
L 1354.784223 741.608608 
L 1356.046875 741.608382 
L 1356.046875 741.608382 
" style="fill:none;stroke:#008000;stroke-linecap:square;stroke-width:2.0;"/>
   </g>
   <g id="patch_3">
    <path d="M 93.395313 57.917187 
L 1356.046875 57.917187 
" style="fill:none;stroke:#000000;stroke-linecap:square;stroke-linejoin:miter;"/>
   </g>
   <g id="patch_4">
    <path d="M 1356.046875 770.34375 
L 1356.046875 57.917187 
" style="fill:none;stroke:#000000;stroke-linecap:square;stroke-linejoin:miter;"/>
   </g>
   <g id="patch_5">
    <path d="M 93.395313 770.34375 
L 1356.046875 770.34375 
" style="fill:none;stroke:#000000;stroke-linecap:square;stroke-linejoin:miter;"/>
   </g>
   <g id="patch_6">
    <path d="M 93.395313 770.34375 
L 93.395313 57.917187 
" style="fill:none;stroke:#000000;stroke-linecap:square;stroke-linejoin:miter;"/>
   </g>
   <g id="matplotlib.axis_1">
    <g id="xtick_1">
     <g id="line2d_3">
      <defs>
       <path d="M 0 0 
L 0 -4 
" id="ma2cf2f2b71" style="stroke:#000000;stroke-width:0.5;"/>
      </defs>
      <g>
       <use style="stroke:#000000;stroke-width:0.5;" x="93.3953125" xlink:href="#ma2cf2f2b71" y="770.34375"/>
      </g>
     </g>
     <g id="line2d_4">
      <defs>
       <path d="M 0 0 
L 0 4 
" id="m9ba8c7e70e" style="stroke:#000000;stroke-width:0.5;"/>
      </defs>
      <g>
       <use style="stroke:#000000;stroke-width:0.5;" x="93.3953125" xlink:href="#m9ba8c7e70e" y="57.9171875"/>
      </g>
     </g>
     <g id="text_1">
      <!-- 0 -->
      <defs>
       <path d="M 31.78125 66.40625 
Q 24.171875 66.40625 20.328125 58.90625 
Q 16.5 51.421875 16.5 36.375 
Q 16.5 21.390625 20.328125 13.890625 
Q 24.171875 6.390625 31.78125 6.390625 
Q 39.453125 6.390625 43.28125 13.890625 
Q 47.125 21.390625 47.125 36.375 
Q 47.125 51.421875 43.28125 58.90625 
Q 39.453125 66.40625 31.78125 66.40625 
M 31.78125 74.21875 
Q 44.046875 74.21875 50.515625 64.515625 
Q 56.984375 54.828125 56.984375 36.375 
Q 56.984375 17.96875 50.515625 8.265625 
Q 44.046875 -1.421875 31.78125 -1.421875 
Q 19.53125 -1.421875 13.0625 8.265625 
Q 6.59375 17.96875 6.59375 36.375 
Q 6.59375 54.828125 13.0625 64.515625 
Q 19.53125 74.21875 31.78125 74.21875 
" id="BitstreamVeraSans-Roman-30"/>
      </defs>
      <g transform="translate(83.8515625 797.1390625)scale(0.3 -0.3)">
       <use xlink:href="#BitstreamVeraSans-Roman-30"/>
      </g>
     </g>
    </g>
    <g id="xtick_2">
     <g id="line2d_5">
      <g>
       <use style="stroke:#000000;stroke-width:0.5;" x="345.925625" xlink:href="#ma2cf2f2b71" y="770.34375"/>
      </g>
     </g>
     <g id="line2d_6">
      <g>
       <use style="stroke:#000000;stroke-width:0.5;" x="345.925625" xlink:href="#m9ba8c7e70e" y="57.9171875"/>
      </g>
     </g>
     <g id="text_2">
      <!-- 20000 -->
      <defs>
       <path d="M 19.1875 8.296875 
L 53.609375 8.296875 
L 53.609375 0 
L 7.328125 0 
L 7.328125 8.296875 
Q 12.9375 14.109375 22.625 23.890625 
Q 32.328125 33.6875 34.8125 36.53125 
Q 39.546875 41.84375 41.421875 45.53125 
Q 43.3125 49.21875 43.3125 52.78125 
Q 43.3125 58.59375 39.234375 62.25 
Q 35.15625 65.921875 28.609375 65.921875 
Q 23.96875 65.921875 18.8125 64.3125 
Q 13.671875 62.703125 7.8125 59.421875 
L 7.8125 69.390625 
Q 13.765625 71.78125 18.9375 73 
Q 24.125 74.21875 28.421875 74.21875 
Q 39.75 74.21875 46.484375 68.546875 
Q 53.21875 62.890625 53.21875 53.421875 
Q 53.21875 48.921875 51.53125 44.890625 
Q 49.859375 40.875 45.40625 35.40625 
Q 44.1875 33.984375 37.640625 27.21875 
Q 31.109375 20.453125 19.1875 8.296875 
" id="BitstreamVeraSans-Roman-32"/>
      </defs>
      <g transform="translate(298.206875 797.1390625)scale(0.3 -0.3)">
       <use xlink:href="#BitstreamVeraSans-Roman-32"/>
       <use x="63.623046875" xlink:href="#BitstreamVeraSans-Roman-30"/>
       <use x="127.24609375" xlink:href="#BitstreamVeraSans-Roman-30"/>
       <use x="190.869140625" xlink:href="#BitstreamVeraSans-Roman-30"/>
       <use x="254.4921875" xlink:href="#BitstreamVeraSans-Roman-30"/>
      </g>
     </g>
    </g>
    <g id="xtick_3">
     <g id="line2d_7">
      <g>
       <use style="stroke:#000000;stroke-width:0.5;" x="598.4559375" xlink:href="#ma2cf2f2b71" y="770.34375"/>
      </g>
     </g>
     <g id="line2d_8">
      <g>
       <use style="stroke:#000000;stroke-width:0.5;" x="598.4559375" xlink:href="#m9ba8c7e70e" y="57.9171875"/>
      </g>
     </g>
     <g id="text_3">
      <!-- 40000 -->
      <defs>
       <path d="M 37.796875 64.3125 
L 12.890625 25.390625 
L 37.796875 25.390625 
z
M 35.203125 72.90625 
L 47.609375 72.90625 
L 47.609375 25.390625 
L 58.015625 25.390625 
L 58.015625 17.1875 
L 47.609375 17.1875 
L 47.609375 0 
L 37.796875 0 
L 37.796875 17.1875 
L 4.890625 17.1875 
L 4.890625 26.703125 
z
" id="BitstreamVeraSans-Roman-34"/>
      </defs>
      <g transform="translate(550.7371875 797.1390625)scale(0.3 -0.3)">
       <use xlink:href="#BitstreamVeraSans-Roman-34"/>
       <use x="63.623046875" xlink:href="#BitstreamVeraSans-Roman-30"/>
       <use x="127.24609375" xlink:href="#BitstreamVeraSans-Roman-30"/>
       <use x="190.869140625" xlink:href="#BitstreamVeraSans-Roman-30"/>
       <use x="254.4921875" xlink:href="#BitstreamVeraSans-Roman-30"/>
      </g>
     </g>
    </g>
    <g id="xtick_4">
     <g id="line2d_9">
      <g>
       <use style="stroke:#000000;stroke-width:0.5;" x="850.98625" xlink:href="#ma2cf2f2b71" y="770.34375"/>
      </g>
     </g>
     <g id="line2d_10">
      <g>
       <use style="stroke:#000000;stroke-width:0.5;" x="850.98625" xlink:href="#m9ba8c7e70e" y="57.9171875"/>
      </g>
     </g>
     <g id="text_4">
      <!-- 60000 -->
      <defs>
       <path d="M 33.015625 40.375 
Q 26.375 40.375 22.484375 35.828125 
Q 18.609375 31.296875 18.609375 23.390625 
Q 18.609375 15.53125 22.484375 10.953125 
Q 26.375 6.390625 33.015625 6.390625 
Q 39.65625 6.390625 43.53125 10.953125 
Q 47.40625 15.53125 47.40625 23.390625 
Q 47.40625 31.296875 43.53125 35.828125 
Q 39.65625 40.375 33.015625 40.375 
M 52.59375 71.296875 
L 52.59375 62.3125 
Q 48.875 64.0625 45.09375 64.984375 
Q 41.3125 65.921875 37.59375 65.921875 
Q 27.828125 65.921875 22.671875 59.328125 
Q 17.53125 52.734375 16.796875 39.40625 
Q 19.671875 43.65625 24.015625 45.921875 
Q 28.375 48.1875 33.59375 48.1875 
Q 44.578125 48.1875 50.953125 41.515625 
Q 57.328125 34.859375 57.328125 23.390625 
Q 57.328125 12.15625 50.6875 5.359375 
Q 44.046875 -1.421875 33.015625 -1.421875 
Q 20.359375 -1.421875 13.671875 8.265625 
Q 6.984375 17.96875 6.984375 36.375 
Q 6.984375 53.65625 15.1875 63.9375 
Q 23.390625 74.21875 37.203125 74.21875 
Q 40.921875 74.21875 44.703125 73.484375 
Q 48.484375 72.75 52.59375 71.296875 
" id="BitstreamVeraSans-Roman-36"/>
      </defs>
      <g transform="translate(803.2675 797.1390625)scale(0.3 -0.3)">
       <use xlink:href="#BitstreamVeraSans-Roman-36"/>
       <use x="63.623046875" xlink:href="#BitstreamVeraSans-Roman-30"/>
       <use x="127.24609375" xlink:href="#BitstreamVeraSans-Roman-30"/>
       <use x="190.869140625" xlink:href="#BitstreamVeraSans-Roman-30"/>
       <use x="254.4921875" xlink:href="#BitstreamVeraSans-Roman-30"/>
      </g>
     </g>
    </g>
    <g id="xtick_5">
     <g id="line2d_11">
      <g>
       <use style="stroke:#000000;stroke-width:0.5;" x="1103.5165625" xlink:href="#ma2cf2f2b71" y="770.34375"/>
      </g>
     </g>
     <g id="line2d_12">
      <g>
       <use style="stroke:#000000;stroke-width:0.5;" x="1103.5165625" xlink:href="#m9ba8c7e70e" y="57.9171875"/>
      </g>
     </g>
     <g id="text_5">
      <!-- 80000 -->
      <defs>
       <path d="M 31.78125 34.625 
Q 24.75 34.625 20.71875 30.859375 
Q 16.703125 27.09375 16.703125 20.515625 
Q 16.703125 13.921875 20.71875 10.15625 
Q 24.75 6.390625 31.78125 6.390625 
Q 38.8125 6.390625 42.859375 10.171875 
Q 46.921875 13.96875 46.921875 20.515625 
Q 46.921875 27.09375 42.890625 30.859375 
Q 38.875 34.625 31.78125 34.625 
M 21.921875 38.8125 
Q 15.578125 40.375 12.03125 44.71875 
Q 8.5 49.078125 8.5 55.328125 
Q 8.5 64.0625 14.71875 69.140625 
Q 20.953125 74.21875 31.78125 74.21875 
Q 42.671875 74.21875 48.875 69.140625 
Q 55.078125 64.0625 55.078125 55.328125 
Q 55.078125 49.078125 51.53125 44.71875 
Q 48 40.375 41.703125 38.8125 
Q 48.828125 37.15625 52.796875 32.3125 
Q 56.78125 27.484375 56.78125 20.515625 
Q 56.78125 9.90625 50.3125 4.234375 
Q 43.84375 -1.421875 31.78125 -1.421875 
Q 19.734375 -1.421875 13.25 4.234375 
Q 6.78125 9.90625 6.78125 20.515625 
Q 6.78125 27.484375 10.78125 32.3125 
Q 14.796875 37.15625 21.921875 38.8125 
M 18.3125 54.390625 
Q 18.3125 48.734375 21.84375 45.5625 
Q 25.390625 42.390625 31.78125 42.390625 
Q 38.140625 42.390625 41.71875 45.5625 
Q 45.3125 48.734375 45.3125 54.390625 
Q 45.3125 60.0625 41.71875 63.234375 
Q 38.140625 66.40625 31.78125 66.40625 
Q 25.390625 66.40625 21.84375 63.234375 
Q 18.3125 60.0625 18.3125 54.390625 
" id="BitstreamVeraSans-Roman-38"/>
      </defs>
      <g transform="translate(1055.7978125 797.1390625)scale(0.3 -0.3)">
       <use xlink:href="#BitstreamVeraSans-Roman-38"/>
       <use x="63.623046875" xlink:href="#BitstreamVeraSans-Roman-30"/>
       <use x="127.24609375" xlink:href="#BitstreamVeraSans-Roman-30"/>
       <use x="190.869140625" xlink:href="#BitstreamVeraSans-Roman-30"/>
       <use x="254.4921875" xlink:href="#BitstreamVeraSans-Roman-30"/>
      </g>
     </g>
    </g>
    <g id="xtick_6">
     <g id="line2d_13">
      <g>
       <use style="stroke:#000000;stroke-width:0.5;" x="1356.046875" xlink:href="#ma2cf2f2b71" y="770.34375"/>
      </g>
     </g>
     <g id="line2d_14">
      <g>
       <use style="stroke:#000000;stroke-width:0.5;" x="1356.046875" xlink:href="#m9ba8c7e70e" y="57.9171875"/>
      </g>
     </g>
     <g id="text_6">
      <!-- 100000 -->
      <defs>
       <path d="M 12.40625 8.296875 
L 28.515625 8.296875 
L 28.515625 63.921875 
L 10.984375 60.40625 
L 10.984375 69.390625 
L 28.421875 72.90625 
L 38.28125 72.90625 
L 38.28125 8.296875 
L 54.390625 8.296875 
L 54.390625 0 
L 12.40625 0 
z
" id="BitstreamVeraSans-Roman-31"/>
      </defs>
      <g transform="translate(1298.784375 797.1390625)scale(0.3 -0.3)">
       <use xlink:href="#BitstreamVeraSans-Roman-31"/>
       <use x="63.623046875" xlink:href="#BitstreamVeraSans-Roman-30"/>
       <use x="127.24609375" xlink:href="#BitstreamVeraSans-Roman-30"/>
       <use x="190.869140625" xlink:href="#BitstreamVeraSans-Roman-30"/>
       <use x="254.4921875" xlink:href="#BitstreamVeraSans-Roman-30"/>
       <use x="318.115234375" xlink:href="#BitstreamVeraSans-Roman-30"/>
      </g>
     </g>
    </g>
    <g id="text_7">
     <!-- iterations -->
     <defs>
      <path d="M 54.890625 33.015625 
L 54.890625 0 
L 45.90625 0 
L 45.90625 32.71875 
Q 45.90625 40.484375 42.875 44.328125 
Q 39.84375 48.1875 33.796875 48.1875 
Q 26.515625 48.1875 22.3125 43.546875 
Q 18.109375 38.921875 18.109375 30.90625 
L 18.109375 0 
L 9.078125 0 
L 9.078125 54.6875 
L 18.109375 54.6875 
L 18.109375 46.1875 
Q 21.34375 51.125 25.703125 53.5625 
Q 30.078125 56 35.796875 56 
Q 45.21875 56 50.046875 50.171875 
Q 54.890625 44.34375 54.890625 33.015625 
" id="BitstreamVeraSans-Roman-6e"/>
      <path d="M 34.28125 27.484375 
Q 23.390625 27.484375 19.1875 25 
Q 14.984375 22.515625 14.984375 16.5 
Q 14.984375 11.71875 18.140625 8.90625 
Q 21.296875 6.109375 26.703125 6.109375 
Q 34.1875 6.109375 38.703125 11.40625 
Q 43.21875 16.703125 43.21875 25.484375 
L 43.21875 27.484375 
z
M 52.203125 31.203125 
L 52.203125 0 
L 43.21875 0 
L 43.21875 8.296875 
Q 40.140625 3.328125 35.546875 0.953125 
Q 30.953125 -1.421875 24.3125 -1.421875 
Q 15.921875 -1.421875 10.953125 3.296875 
Q 6 8.015625 6 15.921875 
Q 6 25.140625 12.171875 29.828125 
Q 18.359375 34.515625 30.609375 34.515625 
L 43.21875 34.515625 
L 43.21875 35.40625 
Q 43.21875 41.609375 39.140625 45 
Q 35.0625 48.390625 27.6875 48.390625 
Q 23 48.390625 18.546875 47.265625 
Q 14.109375 46.140625 10.015625 43.890625 
L 10.015625 52.203125 
Q 14.9375 54.109375 19.578125 55.046875 
Q 24.21875 56 28.609375 56 
Q 40.484375 56 46.34375 49.84375 
Q 52.203125 43.703125 52.203125 31.203125 
" id="BitstreamVeraSans-Roman-61"/>
      <path d="M 30.609375 48.390625 
Q 23.390625 48.390625 19.1875 42.75 
Q 14.984375 37.109375 14.984375 27.296875 
Q 14.984375 17.484375 19.15625 11.84375 
Q 23.34375 6.203125 30.609375 6.203125 
Q 37.796875 6.203125 41.984375 11.859375 
Q 46.1875 17.53125 46.1875 27.296875 
Q 46.1875 37.015625 41.984375 42.703125 
Q 37.796875 48.390625 30.609375 48.390625 
M 30.609375 56 
Q 42.328125 56 49.015625 48.375 
Q 55.71875 40.765625 55.71875 27.296875 
Q 55.71875 13.875 49.015625 6.21875 
Q 42.328125 -1.421875 30.609375 -1.421875 
Q 18.84375 -1.421875 12.171875 6.21875 
Q 5.515625 13.875 5.515625 27.296875 
Q 5.515625 40.765625 12.171875 48.375 
Q 18.84375 56 30.609375 56 
" id="BitstreamVeraSans-Roman-6f"/>
      <path d="M 9.421875 54.6875 
L 18.40625 54.6875 
L 18.40625 0 
L 9.421875 0 
z
M 9.421875 75.984375 
L 18.40625 75.984375 
L 18.40625 64.59375 
L 9.421875 64.59375 
z
" id="BitstreamVeraSans-Roman-69"/>
      <path d="M 56.203125 29.59375 
L 56.203125 25.203125 
L 14.890625 25.203125 
Q 15.484375 15.921875 20.484375 11.0625 
Q 25.484375 6.203125 34.421875 6.203125 
Q 39.59375 6.203125 44.453125 7.46875 
Q 49.3125 8.734375 54.109375 11.28125 
L 54.109375 2.78125 
Q 49.265625 0.734375 44.1875 -0.34375 
Q 39.109375 -1.421875 33.890625 -1.421875 
Q 20.796875 -1.421875 13.15625 6.1875 
Q 5.515625 13.8125 5.515625 26.8125 
Q 5.515625 40.234375 12.765625 48.109375 
Q 20.015625 56 32.328125 56 
Q 43.359375 56 49.78125 48.890625 
Q 56.203125 41.796875 56.203125 29.59375 
M 47.21875 32.234375 
Q 47.125 39.59375 43.09375 43.984375 
Q 39.0625 48.390625 32.421875 48.390625 
Q 24.90625 48.390625 20.390625 44.140625 
Q 15.875 39.890625 15.1875 32.171875 
z
" id="BitstreamVeraSans-Roman-65"/>
      <path d="M 18.3125 70.21875 
L 18.3125 54.6875 
L 36.8125 54.6875 
L 36.8125 47.703125 
L 18.3125 47.703125 
L 18.3125 18.015625 
Q 18.3125 11.328125 20.140625 9.421875 
Q 21.96875 7.515625 27.59375 7.515625 
L 36.8125 7.515625 
L 36.8125 0 
L 27.59375 0 
Q 17.1875 0 13.234375 3.875 
Q 9.28125 7.765625 9.28125 18.015625 
L 9.28125 47.703125 
L 2.6875 47.703125 
L 2.6875 54.6875 
L 9.28125 54.6875 
L 9.28125 70.21875 
z
" id="BitstreamVeraSans-Roman-74"/>
      <path d="M 41.109375 46.296875 
Q 39.59375 47.171875 37.8125 47.578125 
Q 36.03125 48 33.890625 48 
Q 26.265625 48 22.1875 43.046875 
Q 18.109375 38.09375 18.109375 28.8125 
L 18.109375 0 
L 9.078125 0 
L 9.078125 54.6875 
L 18.109375 54.6875 
L 18.109375 46.1875 
Q 20.953125 51.171875 25.484375 53.578125 
Q 30.03125 56 36.53125 56 
Q 37.453125 56 38.578125 55.875 
Q 39.703125 55.765625 41.0625 55.515625 
z
" id="BitstreamVeraSans-Roman-72"/>
      <path d="M 44.28125 53.078125 
L 44.28125 44.578125 
Q 40.484375 46.53125 36.375 47.5 
Q 32.28125 48.484375 27.875 48.484375 
Q 21.1875 48.484375 17.84375 46.4375 
Q 14.5 44.390625 14.5 40.28125 
Q 14.5 37.15625 16.890625 35.375 
Q 19.28125 33.59375 26.515625 31.984375 
L 29.59375 31.296875 
Q 39.15625 29.25 43.1875 25.515625 
Q 47.21875 21.78125 47.21875 15.09375 
Q 47.21875 7.46875 41.1875 3.015625 
Q 35.15625 -1.421875 24.609375 -1.421875 
Q 20.21875 -1.421875 15.453125 -0.5625 
Q 10.6875 0.296875 5.421875 2 
L 5.421875 11.28125 
Q 10.40625 8.6875 15.234375 7.390625 
Q 20.0625 6.109375 24.8125 6.109375 
Q 31.15625 6.109375 34.5625 8.28125 
Q 37.984375 10.453125 37.984375 14.40625 
Q 37.984375 18.0625 35.515625 20.015625 
Q 33.0625 21.96875 24.703125 23.78125 
L 21.578125 24.515625 
Q 13.234375 26.265625 9.515625 29.90625 
Q 5.8125 33.546875 5.8125 39.890625 
Q 5.8125 47.609375 11.28125 51.796875 
Q 16.75 56 26.8125 56 
Q 31.78125 56 36.171875 55.265625 
Q 40.578125 54.546875 44.28125 53.078125 
" id="BitstreamVeraSans-Roman-73"/>
     </defs>
     <g transform="translate(653.5390625 831.1734375)scale(0.3 -0.3)">
      <use xlink:href="#BitstreamVeraSans-Roman-69"/>
      <use x="27.783203125" xlink:href="#BitstreamVeraSans-Roman-74"/>
      <use x="66.9921875" xlink:href="#BitstreamVeraSans-Roman-65"/>
      <use x="128.515625" xlink:href="#BitstreamVeraSans-Roman-72"/>
      <use x="169.62890625" xlink:href="#BitstreamVeraSans-Roman-61"/>
      <use x="230.908203125" xlink:href="#BitstreamVeraSans-Roman-74"/>
      <use x="270.1171875" xlink:href="#BitstreamVeraSans-Roman-69"/>
      <use x="297.900390625" xlink:href="#BitstreamVeraSans-Roman-6f"/>
      <use x="359.08203125" xlink:href="#BitstreamVeraSans-Roman-6e"/>
      <use x="422.4609375" xlink:href="#BitstreamVeraSans-Roman-73"/>
     </g>
    </g>
   </g>
   <g id="matplotlib.axis_2">
    <g id="ytick_1">
     <g id="line2d_15">
      <defs>
       <path d="M 0 0 
L 4 0 
" id="me49e905895" style="stroke:#000000;stroke-width:0.5;"/>
      </defs>
      <g>
       <use style="stroke:#000000;stroke-width:0.5;" x="93.3953125" xlink:href="#me49e905895" y="770.34375"/>
      </g>
     </g>
     <g id="line2d_16">
      <defs>
       <path d="M 0 0 
L -4 0 
" id="mf58ba2c2e7" style="stroke:#000000;stroke-width:0.5;"/>
      </defs>
      <g>
       <use style="stroke:#000000;stroke-width:0.5;" x="1356.046875" xlink:href="#mf58ba2c2e7" y="770.34375"/>
      </g>
     </g>
     <g id="text_8">
      <!-- −60 -->
      <defs>
       <path d="M 10.59375 35.5 
L 73.1875 35.5 
L 73.1875 27.203125 
L 10.59375 27.203125 
z
" id="BitstreamVeraSans-Roman-2212"/>
      </defs>
      <g transform="translate(26.08125 778.621875)scale(0.3 -0.3)">
       <use xlink:href="#BitstreamVeraSans-Roman-2212"/>
       <use x="83.7890625" xlink:href="#BitstreamVeraSans-Roman-36"/>
       <use x="147.412109375" xlink:href="#BitstreamVeraSans-Roman-30"/>
      </g>
     </g>
    </g>
    <g id="ytick_2">
     <g id="line2d_17">
      <g>
       <use style="stroke:#000000;stroke-width:0.5;" x="93.3953125" xlink:href="#me49e905895" y="681.290429687"/>
      </g>
     </g>
     <g id="line2d_18">
      <g>
       <use style="stroke:#000000;stroke-width:0.5;" x="1356.046875" xlink:href="#mf58ba2c2e7" y="681.290429687"/>
      </g>
     </g>
     <g id="text_9">
      <!-- −50 -->
      <defs>
       <path d="M 10.796875 72.90625 
L 49.515625 72.90625 
L 49.515625 64.59375 
L 19.828125 64.59375 
L 19.828125 46.734375 
Q 21.96875 47.46875 24.109375 47.828125 
Q 26.265625 48.1875 28.421875 48.1875 
Q 40.625 48.1875 47.75 41.5 
Q 54.890625 34.8125 54.890625 23.390625 
Q 54.890625 11.625 47.5625 5.09375 
Q 40.234375 -1.421875 26.90625 -1.421875 
Q 22.3125 -1.421875 17.546875 -0.640625 
Q 12.796875 0.140625 7.71875 1.703125 
L 7.71875 11.625 
Q 12.109375 9.234375 16.796875 8.0625 
Q 21.484375 6.890625 26.703125 6.890625 
Q 35.15625 6.890625 40.078125 11.328125 
Q 45.015625 15.765625 45.015625 23.390625 
Q 45.015625 31 40.078125 35.4375 
Q 35.15625 39.890625 26.703125 39.890625 
Q 22.75 39.890625 18.8125 39.015625 
Q 14.890625 38.140625 10.796875 36.28125 
z
" id="BitstreamVeraSans-Roman-35"/>
      </defs>
      <g transform="translate(26.08125 689.568554687)scale(0.3 -0.3)">
       <use xlink:href="#BitstreamVeraSans-Roman-2212"/>
       <use x="83.7890625" xlink:href="#BitstreamVeraSans-Roman-35"/>
       <use x="147.412109375" xlink:href="#BitstreamVeraSans-Roman-30"/>
      </g>
     </g>
    </g>
    <g id="ytick_3">
     <g id="line2d_19">
      <g>
       <use style="stroke:#000000;stroke-width:0.5;" x="93.3953125" xlink:href="#me49e905895" y="592.237109375"/>
      </g>
     </g>
     <g id="line2d_20">
      <g>
       <use style="stroke:#000000;stroke-width:0.5;" x="1356.046875" xlink:href="#mf58ba2c2e7" y="592.237109375"/>
      </g>
     </g>
     <g id="text_10">
      <!-- −40 -->
      <g transform="translate(26.08125 600.515234375)scale(0.3 -0.3)">
       <use xlink:href="#BitstreamVeraSans-Roman-2212"/>
       <use x="83.7890625" xlink:href="#BitstreamVeraSans-Roman-34"/>
       <use x="147.412109375" xlink:href="#BitstreamVeraSans-Roman-30"/>
      </g>
     </g>
    </g>
    <g id="ytick_4">
     <g id="line2d_21">
      <g>
       <use style="stroke:#000000;stroke-width:0.5;" x="93.3953125" xlink:href="#me49e905895" y="503.183789062"/>
      </g>
     </g>
     <g id="line2d_22">
      <g>
       <use style="stroke:#000000;stroke-width:0.5;" x="1356.046875" xlink:href="#mf58ba2c2e7" y="503.183789062"/>
      </g>
     </g>
     <g id="text_11">
      <!-- −30 -->
      <defs>
       <path d="M 40.578125 39.3125 
Q 47.65625 37.796875 51.625 33 
Q 55.609375 28.21875 55.609375 21.1875 
Q 55.609375 10.40625 48.1875 4.484375 
Q 40.765625 -1.421875 27.09375 -1.421875 
Q 22.515625 -1.421875 17.65625 -0.515625 
Q 12.796875 0.390625 7.625 2.203125 
L 7.625 11.71875 
Q 11.71875 9.328125 16.59375 8.109375 
Q 21.484375 6.890625 26.8125 6.890625 
Q 36.078125 6.890625 40.9375 10.546875 
Q 45.796875 14.203125 45.796875 21.1875 
Q 45.796875 27.640625 41.28125 31.265625 
Q 36.765625 34.90625 28.71875 34.90625 
L 20.21875 34.90625 
L 20.21875 43.015625 
L 29.109375 43.015625 
Q 36.375 43.015625 40.234375 45.921875 
Q 44.09375 48.828125 44.09375 54.296875 
Q 44.09375 59.90625 40.109375 62.90625 
Q 36.140625 65.921875 28.71875 65.921875 
Q 24.65625 65.921875 20.015625 65.03125 
Q 15.375 64.15625 9.8125 62.3125 
L 9.8125 71.09375 
Q 15.4375 72.65625 20.34375 73.4375 
Q 25.25 74.21875 29.59375 74.21875 
Q 40.828125 74.21875 47.359375 69.109375 
Q 53.90625 64.015625 53.90625 55.328125 
Q 53.90625 49.265625 50.4375 45.09375 
Q 46.96875 40.921875 40.578125 39.3125 
" id="BitstreamVeraSans-Roman-33"/>
      </defs>
      <g transform="translate(26.08125 511.461914062)scale(0.3 -0.3)">
       <use xlink:href="#BitstreamVeraSans-Roman-2212"/>
       <use x="83.7890625" xlink:href="#BitstreamVeraSans-Roman-33"/>
       <use x="147.412109375" xlink:href="#BitstreamVeraSans-Roman-30"/>
      </g>
     </g>
    </g>
    <g id="ytick_5">
     <g id="line2d_23">
      <g>
       <use style="stroke:#000000;stroke-width:0.5;" x="93.3953125" xlink:href="#me49e905895" y="414.13046875"/>
      </g>
     </g>
     <g id="line2d_24">
      <g>
       <use style="stroke:#000000;stroke-width:0.5;" x="1356.046875" xlink:href="#mf58ba2c2e7" y="414.13046875"/>
      </g>
     </g>
     <g id="text_12">
      <!-- −20 -->
      <g transform="translate(26.08125 422.40859375)scale(0.3 -0.3)">
       <use xlink:href="#BitstreamVeraSans-Roman-2212"/>
       <use x="83.7890625" xlink:href="#BitstreamVeraSans-Roman-32"/>
       <use x="147.412109375" xlink:href="#BitstreamVeraSans-Roman-30"/>
      </g>
     </g>
    </g>
    <g id="ytick_6">
     <g id="line2d_25">
      <g>
       <use style="stroke:#000000;stroke-width:0.5;" x="93.3953125" xlink:href="#me49e905895" y="325.077148437"/>
      </g>
     </g>
     <g id="line2d_26">
      <g>
       <use style="stroke:#000000;stroke-width:0.5;" x="1356.046875" xlink:href="#mf58ba2c2e7" y="325.077148437"/>
      </g>
     </g>
     <g id="text_13">
      <!-- −10 -->
      <g transform="translate(26.08125 333.355273437)scale(0.3 -0.3)">
       <use xlink:href="#BitstreamVeraSans-Roman-2212"/>
       <use x="83.7890625" xlink:href="#BitstreamVeraSans-Roman-31"/>
       <use x="147.412109375" xlink:href="#BitstreamVeraSans-Roman-30"/>
      </g>
     </g>
    </g>
    <g id="ytick_7">
     <g id="line2d_27">
      <g>
       <use style="stroke:#000000;stroke-width:0.5;" x="93.3953125" xlink:href="#me49e905895" y="236.023828125"/>
      </g>
     </g>
     <g id="line2d_28">
      <g>
       <use style="stroke:#000000;stroke-width:0.5;" x="1356.046875" xlink:href="#mf58ba2c2e7" y="236.023828125"/>
      </g>
     </g>
     <g id="text_14">
      <!-- 0 -->
      <g transform="translate(70.3078125 244.301953125)scale(0.3 -0.3)">
       <use xlink:href="#BitstreamVeraSans-Roman-30"/>
      </g>
     </g>
    </g>
    <g id="ytick_8">
     <g id="line2d_29">
      <g>
       <use style="stroke:#000000;stroke-width:0.5;" x="93.3953125" xlink:href="#me49e905895" y="146.970507812"/>
      </g>
     </g>
     <g id="line2d_30">
      <g>
       <use style="stroke:#000000;stroke-width:0.5;" x="1356.046875" xlink:href="#mf58ba2c2e7" y="146.970507812"/>
      </g>
     </g>
     <g id="text_15">
      <!-- 10 -->
      <g transform="translate(51.2203125 155.248632812)scale(0.3 -0.3)">
       <use xlink:href="#BitstreamVeraSans-Roman-31"/>
       <use x="63.623046875" xlink:href="#BitstreamVeraSans-Roman-30"/>
      </g>
     </g>
    </g>
    <g id="ytick_9">
     <g id="line2d_31">
      <g>
       <use style="stroke:#000000;stroke-width:0.5;" x="93.3953125" xlink:href="#me49e905895" y="57.9171875"/>
      </g>
     </g>
     <g id="line2d_32">
      <g>
       <use style="stroke:#000000;stroke-width:0.5;" x="1356.046875" xlink:href="#mf58ba2c2e7" y="57.9171875"/>
      </g>
     </g>
     <g id="text_16">
      <!-- 20 -->
      <g transform="translate(51.2203125 66.1953125)scale(0.3 -0.3)">
       <use xlink:href="#BitstreamVeraSans-Roman-32"/>
       <use x="63.623046875" xlink:href="#BitstreamVeraSans-Roman-30"/>
      </g>
     </g>
    </g>
   </g>
   <g id="text_17">
    <!-- log(loss) -->
    <defs>
     <path d="M 8.015625 75.875 
L 15.828125 75.875 
Q 23.140625 64.359375 26.78125 53.3125 
Q 30.421875 42.28125 30.421875 31.390625 
Q 30.421875 20.453125 26.78125 9.375 
Q 23.140625 -1.703125 15.828125 -13.1875 
L 8.015625 -13.1875 
Q 14.5 -2 17.703125 9.0625 
Q 20.90625 20.125 20.90625 31.390625 
Q 20.90625 42.671875 17.703125 53.65625 
Q 14.5 64.65625 8.015625 75.875 
" id="BitstreamVeraSans-Roman-29"/>
     <path d="M 31 75.875 
Q 24.46875 64.65625 21.28125 53.65625 
Q 18.109375 42.671875 18.109375 31.390625 
Q 18.109375 20.125 21.3125 9.0625 
Q 24.515625 -2 31 -13.1875 
L 23.1875 -13.1875 
Q 15.875 -1.703125 12.234375 9.375 
Q 8.59375 20.453125 8.59375 31.390625 
Q 8.59375 42.28125 12.203125 53.3125 
Q 15.828125 64.359375 23.1875 75.875 
z
" id="BitstreamVeraSans-Roman-28"/>
     <path d="M 45.40625 27.984375 
Q 45.40625 37.75 41.375 43.109375 
Q 37.359375 48.484375 30.078125 48.484375 
Q 22.859375 48.484375 18.828125 43.109375 
Q 14.796875 37.75 14.796875 27.984375 
Q 14.796875 18.265625 18.828125 12.890625 
Q 22.859375 7.515625 30.078125 7.515625 
Q 37.359375 7.515625 41.375 12.890625 
Q 45.40625 18.265625 45.40625 27.984375 
M 54.390625 6.78125 
Q 54.390625 -7.171875 48.1875 -13.984375 
Q 42 -20.796875 29.203125 -20.796875 
Q 24.46875 -20.796875 20.265625 -20.09375 
Q 16.0625 -19.390625 12.109375 -17.921875 
L 12.109375 -9.1875 
Q 16.0625 -11.328125 19.921875 -12.34375 
Q 23.78125 -13.375 27.78125 -13.375 
Q 36.625 -13.375 41.015625 -8.765625 
Q 45.40625 -4.15625 45.40625 5.171875 
L 45.40625 9.625 
Q 42.625 4.78125 38.28125 2.390625 
Q 33.9375 0 27.875 0 
Q 17.828125 0 11.671875 7.65625 
Q 5.515625 15.328125 5.515625 27.984375 
Q 5.515625 40.671875 11.671875 48.328125 
Q 17.828125 56 27.875 56 
Q 33.9375 56 38.28125 53.609375 
Q 42.625 51.21875 45.40625 46.390625 
L 45.40625 54.6875 
L 54.390625 54.6875 
z
" id="BitstreamVeraSans-Roman-67"/>
     <path d="M 9.421875 75.984375 
L 18.40625 75.984375 
L 18.40625 0 
L 9.421875 0 
z
" id="BitstreamVeraSans-Roman-6c"/>
    </defs>
    <g transform="translate(661.175 52.9171875)scale(0.3 -0.3)">
     <use xlink:href="#BitstreamVeraSans-Roman-6c"/>
     <use x="27.783203125" xlink:href="#BitstreamVeraSans-Roman-6f"/>
     <use x="88.96484375" xlink:href="#BitstreamVeraSans-Roman-67"/>
     <use x="152.44140625" xlink:href="#BitstreamVeraSans-Roman-28"/>
     <use x="191.455078125" xlink:href="#BitstreamVeraSans-Roman-6c"/>
     <use x="219.23828125" xlink:href="#BitstreamVeraSans-Roman-6f"/>
     <use x="280.419921875" xlink:href="#BitstreamVeraSans-Roman-73"/>
     <use x="332.51953125" xlink:href="#BitstreamVeraSans-Roman-73"/>
     <use x="384.619140625" xlink:href="#BitstreamVeraSans-Roman-29"/>
    </g>
   </g>
   <g id="legend_1">
    <g id="patch_7">
     <path d="M 863.873438 169.985937 
L 1341.046875 169.985937 
L 1341.046875 72.917187 
L 863.873438 72.917187 
z
" style="fill:#ffffff;stroke:#000000;stroke-linejoin:miter;"/>
    </g>
    <g id="line2d_33">
     <path d="M 884.873438 97.2125 
L 926.873438 97.2125 
" style="fill:none;stroke:#0000ff;stroke-linecap:square;stroke-width:2.0;"/>
    </g>
    <g id="line2d_34"/>
    <g id="text_18">
     <!-- random: step=0.004893 -->
     <defs>
      <path id="BitstreamVeraSans-Roman-20"/>
      <path d="M 52 44.1875 
Q 55.375 50.25 60.0625 53.125 
Q 64.75 56 71.09375 56 
Q 79.640625 56 84.28125 50.015625 
Q 88.921875 44.046875 88.921875 33.015625 
L 88.921875 0 
L 79.890625 0 
L 79.890625 32.71875 
Q 79.890625 40.578125 77.09375 44.375 
Q 74.3125 48.1875 68.609375 48.1875 
Q 61.625 48.1875 57.5625 43.546875 
Q 53.515625 38.921875 53.515625 30.90625 
L 53.515625 0 
L 44.484375 0 
L 44.484375 32.71875 
Q 44.484375 40.625 41.703125 44.40625 
Q 38.921875 48.1875 33.109375 48.1875 
Q 26.21875 48.1875 22.15625 43.53125 
Q 18.109375 38.875 18.109375 30.90625 
L 18.109375 0 
L 9.078125 0 
L 9.078125 54.6875 
L 18.109375 54.6875 
L 18.109375 46.1875 
Q 21.1875 51.21875 25.484375 53.609375 
Q 29.78125 56 35.6875 56 
Q 41.65625 56 45.828125 52.96875 
Q 50 49.953125 52 44.1875 
" id="BitstreamVeraSans-Roman-6d"/>
      <path d="M 10.984375 1.515625 
L 10.984375 10.5 
Q 14.703125 8.734375 18.5 7.8125 
Q 22.3125 6.890625 25.984375 6.890625 
Q 35.75 6.890625 40.890625 13.453125 
Q 46.046875 20.015625 46.78125 33.40625 
Q 43.953125 29.203125 39.59375 26.953125 
Q 35.25 24.703125 29.984375 24.703125 
Q 19.046875 24.703125 12.671875 31.3125 
Q 6.296875 37.9375 6.296875 49.421875 
Q 6.296875 60.640625 12.9375 67.421875 
Q 19.578125 74.21875 30.609375 74.21875 
Q 43.265625 74.21875 49.921875 64.515625 
Q 56.59375 54.828125 56.59375 36.375 
Q 56.59375 19.140625 48.40625 8.859375 
Q 40.234375 -1.421875 26.421875 -1.421875 
Q 22.703125 -1.421875 18.890625 -0.6875 
Q 15.09375 0.046875 10.984375 1.515625 
M 30.609375 32.421875 
Q 37.25 32.421875 41.125 36.953125 
Q 45.015625 41.5 45.015625 49.421875 
Q 45.015625 57.28125 41.125 61.84375 
Q 37.25 66.40625 30.609375 66.40625 
Q 23.96875 66.40625 20.09375 61.84375 
Q 16.21875 57.28125 16.21875 49.421875 
Q 16.21875 41.5 20.09375 36.953125 
Q 23.96875 32.421875 30.609375 32.421875 
" id="BitstreamVeraSans-Roman-39"/>
      <path d="M 11.71875 12.40625 
L 22.015625 12.40625 
L 22.015625 0 
L 11.71875 0 
z
M 11.71875 51.703125 
L 22.015625 51.703125 
L 22.015625 39.3125 
L 11.71875 39.3125 
z
" id="BitstreamVeraSans-Roman-3a"/>
      <path d="M 10.6875 12.40625 
L 21 12.40625 
L 21 0 
L 10.6875 0 
z
" id="BitstreamVeraSans-Roman-2e"/>
      <path d="M 10.59375 45.40625 
L 73.1875 45.40625 
L 73.1875 37.203125 
L 10.59375 37.203125 
z
M 10.59375 25.484375 
L 73.1875 25.484375 
L 73.1875 17.1875 
L 10.59375 17.1875 
z
" id="BitstreamVeraSans-Roman-3d"/>
      <path d="M 45.40625 46.390625 
L 45.40625 75.984375 
L 54.390625 75.984375 
L 54.390625 0 
L 45.40625 0 
L 45.40625 8.203125 
Q 42.578125 3.328125 38.25 0.953125 
Q 33.9375 -1.421875 27.875 -1.421875 
Q 17.96875 -1.421875 11.734375 6.484375 
Q 5.515625 14.40625 5.515625 27.296875 
Q 5.515625 40.1875 11.734375 48.09375 
Q 17.96875 56 27.875 56 
Q 33.9375 56 38.25 53.625 
Q 42.578125 51.265625 45.40625 46.390625 
M 14.796875 27.296875 
Q 14.796875 17.390625 18.875 11.75 
Q 22.953125 6.109375 30.078125 6.109375 
Q 37.203125 6.109375 41.296875 11.75 
Q 45.40625 17.390625 45.40625 27.296875 
Q 45.40625 37.203125 41.296875 42.84375 
Q 37.203125 48.484375 30.078125 48.484375 
Q 22.953125 48.484375 18.875 42.84375 
Q 14.796875 37.203125 14.796875 27.296875 
" id="BitstreamVeraSans-Roman-64"/>
      <path d="M 18.109375 8.203125 
L 18.109375 -20.796875 
L 9.078125 -20.796875 
L 9.078125 54.6875 
L 18.109375 54.6875 
L 18.109375 46.390625 
Q 20.953125 51.265625 25.265625 53.625 
Q 29.59375 56 35.59375 56 
Q 45.5625 56 51.78125 48.09375 
Q 58.015625 40.1875 58.015625 27.296875 
Q 58.015625 14.40625 51.78125 6.484375 
Q 45.5625 -1.421875 35.59375 -1.421875 
Q 29.59375 -1.421875 25.265625 0.953125 
Q 20.953125 3.328125 18.109375 8.203125 
M 48.6875 27.296875 
Q 48.6875 37.203125 44.609375 42.84375 
Q 40.53125 48.484375 33.40625 48.484375 
Q 26.265625 48.484375 22.1875 42.84375 
Q 18.109375 37.203125 18.109375 27.296875 
Q 18.109375 17.390625 22.1875 11.75 
Q 26.265625 6.109375 33.40625 6.109375 
Q 40.53125 6.109375 44.609375 11.75 
Q 48.6875 17.390625 48.6875 27.296875 
" id="BitstreamVeraSans-Roman-70"/>
     </defs>
     <g transform="translate(959.8734375 107.7125)scale(0.3 -0.3)">
      <use xlink:href="#BitstreamVeraSans-Roman-72"/>
      <use x="41.11328125" xlink:href="#BitstreamVeraSans-Roman-61"/>
      <use x="102.392578125" xlink:href="#BitstreamVeraSans-Roman-6e"/>
      <use x="165.771484375" xlink:href="#BitstreamVeraSans-Roman-64"/>
      <use x="229.248046875" xlink:href="#BitstreamVeraSans-Roman-6f"/>
      <use x="290.4296875" xlink:href="#BitstreamVeraSans-Roman-6d"/>
      <use x="387.841796875" xlink:href="#BitstreamVeraSans-Roman-3a"/>
      <use x="421.533203125" xlink:href="#BitstreamVeraSans-Roman-20"/>
      <use x="453.3203125" xlink:href="#BitstreamVeraSans-Roman-73"/>
      <use x="505.419921875" xlink:href="#BitstreamVeraSans-Roman-74"/>
      <use x="544.62890625" xlink:href="#BitstreamVeraSans-Roman-65"/>
      <use x="606.15234375" xlink:href="#BitstreamVeraSans-Roman-70"/>
      <use x="669.62890625" xlink:href="#BitstreamVeraSans-Roman-3d"/>
      <use x="753.41796875" xlink:href="#BitstreamVeraSans-Roman-30"/>
      <use x="817.041015625" xlink:href="#BitstreamVeraSans-Roman-2e"/>
      <use x="848.828125" xlink:href="#BitstreamVeraSans-Roman-30"/>
      <use x="912.451171875" xlink:href="#BitstreamVeraSans-Roman-30"/>
      <use x="976.07421875" xlink:href="#BitstreamVeraSans-Roman-34"/>
      <use x="1039.69726562" xlink:href="#BitstreamVeraSans-Roman-38"/>
      <use x="1103.3203125" xlink:href="#BitstreamVeraSans-Roman-39"/>
      <use x="1166.94335938" xlink:href="#BitstreamVeraSans-Roman-33"/>
     </g>
    </g>
    <g id="line2d_35">
     <path d="M 884.873438 141.246875 
L 926.873438 141.246875 
" style="fill:none;stroke:#008000;stroke-linecap:square;stroke-width:2.0;"/>
    </g>
    <g id="line2d_36"/>
    <g id="text_19">
     <!-- corr: step=0.002451 -->
     <defs>
      <path d="M 48.78125 52.59375 
L 48.78125 44.1875 
Q 44.96875 46.296875 41.140625 47.34375 
Q 37.3125 48.390625 33.40625 48.390625 
Q 24.65625 48.390625 19.8125 42.84375 
Q 14.984375 37.3125 14.984375 27.296875 
Q 14.984375 17.28125 19.8125 11.734375 
Q 24.65625 6.203125 33.40625 6.203125 
Q 37.3125 6.203125 41.140625 7.25 
Q 44.96875 8.296875 48.78125 10.40625 
L 48.78125 2.09375 
Q 45.015625 0.34375 40.984375 -0.53125 
Q 36.96875 -1.421875 32.421875 -1.421875 
Q 20.0625 -1.421875 12.78125 6.34375 
Q 5.515625 14.109375 5.515625 27.296875 
Q 5.515625 40.671875 12.859375 48.328125 
Q 20.21875 56 33.015625 56 
Q 37.15625 56 41.109375 55.140625 
Q 45.0625 54.296875 48.78125 52.59375 
" id="BitstreamVeraSans-Roman-63"/>
     </defs>
     <g transform="translate(959.8734375 151.746875)scale(0.3 -0.3)">
      <use xlink:href="#BitstreamVeraSans-Roman-63"/>
      <use x="54.98046875" xlink:href="#BitstreamVeraSans-Roman-6f"/>
      <use x="116.162109375" xlink:href="#BitstreamVeraSans-Roman-72"/>
      <use x="157.259765625" xlink:href="#BitstreamVeraSans-Roman-72"/>
      <use x="198.357421875" xlink:href="#BitstreamVeraSans-Roman-3a"/>
      <use x="232.048828125" xlink:href="#BitstreamVeraSans-Roman-20"/>
      <use x="263.8359375" xlink:href="#BitstreamVeraSans-Roman-73"/>
      <use x="315.935546875" xlink:href="#BitstreamVeraSans-Roman-74"/>
      <use x="355.14453125" xlink:href="#BitstreamVeraSans-Roman-65"/>
      <use x="416.66796875" xlink:href="#BitstreamVeraSans-Roman-70"/>
      <use x="480.14453125" xlink:href="#BitstreamVeraSans-Roman-3d"/>
      <use x="563.93359375" xlink:href="#BitstreamVeraSans-Roman-30"/>
      <use x="627.556640625" xlink:href="#BitstreamVeraSans-Roman-2e"/>
      <use x="659.34375" xlink:href="#BitstreamVeraSans-Roman-30"/>
      <use x="722.966796875" xlink:href="#BitstreamVeraSans-Roman-30"/>
      <use x="786.58984375" xlink:href="#BitstreamVeraSans-Roman-32"/>
      <use x="850.212890625" xlink:href="#BitstreamVeraSans-Roman-34"/>
      <use x="913.8359375" xlink:href="#BitstreamVeraSans-Roman-35"/>
      <use x="977.458984375" xlink:href="#BitstreamVeraSans-Roman-31"/>
     </g>
    </g>
   </g>
  </g>
 </g>
 <defs>
  <clipPath id="pdb6b6b968c">
   <rect height="712.4265625" width="1262.6515625" x="93.3953125" y="57.9171875"/>
  </clipPath>
 </defs>
</svg>
