<?xml version="1.0" encoding="utf-8" standalone="no"?>
<!DOCTYPE svg PUBLIC "-//W3C//DTD SVG 1.1//EN"
  "http://www.w3.org/Graphics/SVG/1.1/DTD/svg11.dtd">
<!-- Created with matplotlib (http://matplotlib.org/) -->
<svg height="864pt" version="1.1" viewBox="0 0 1440 864" width="1440pt" xmlns="http://www.w3.org/2000/svg" xmlns:xlink="http://www.w3.org/1999/xlink">
 <defs>
  <style type="text/css">
*{stroke-linecap:butt;stroke-linejoin:round;stroke-miterlimit:100000;}
  </style>
 </defs>
 <g id="figure_1">
  <g id="patch_1">
   <path d="M 0 864 
L 1440 864 
L 1440 0 
L 0 0 
z
" style="fill:#ffffff;"/>
  </g>
  <g id="axes_1">
   <g id="patch_2">
    <path d="M 76.203906 770.338125 
L 1381.831875 770.338125 
L 1381.831875 57.915781 
L 76.203906 57.915781 
z
" style="fill:#ffffff;"/>
   </g>
   <g id="line2d_1">
    <path clip-path="url(#pf7012c0962)" d="M 76.203906 59.044024 
L 78.815162 60.010178 
L 81.426418 61.589537 
L 84.037674 63.637991 
L 86.64893 64.820444 
L 89.260186 67.303058 
L 91.871442 68.051063 
L 94.482698 69.177495 
L 97.093954 70.589855 
L 102.316466 73.858278 
L 104.927722 76.470668 
L 112.761489 82.025416 
L 117.984001 84.943813 
L 120.595257 85.608882 
L 123.206513 87.680974 
L 125.817769 88.899545 
L 128.429025 90.733822 
L 131.040281 90.962343 
L 136.262793 95.037276 
L 138.874049 96.739641 
L 141.485305 97.925976 
L 144.096561 98.327024 
L 146.707817 100.370478 
L 149.319073 101.762297 
L 154.541584 104.964431 
L 157.15284 106.689255 
L 159.764096 108.835789 
L 162.375352 110.642769 
L 164.986608 112.219214 
L 167.597864 114.381149 
L 170.20912 116.702666 
L 172.820376 117.766314 
L 175.431632 117.584439 
L 178.042888 118.76961 
L 180.654144 118.597479 
L 183.2654 121.19423 
L 185.876656 122.741083 
L 188.487912 123.595643 
L 191.099168 124.208256 
L 193.710423 126.206899 
L 196.321679 127.307486 
L 198.932935 127.844588 
L 201.544191 128.984621 
L 204.155447 130.622228 
L 206.766703 130.903796 
L 209.377959 131.595323 
L 211.989215 132.743163 
L 214.600471 135.013014 
L 217.211727 136.5301 
L 219.822983 138.45752 
L 222.434239 139.613192 
L 227.656751 141.510541 
L 230.268007 141.887025 
L 232.879263 143.307106 
L 235.490518 143.086448 
L 238.101774 144.720395 
L 240.71303 146.554532 
L 245.935542 148.501535 
L 248.546798 148.377275 
L 251.158054 150.550206 
L 253.76931 151.035657 
L 256.380566 152.754259 
L 258.991822 151.727755 
L 261.603078 152.38394 
L 264.214334 154.104845 
L 266.82559 156.146713 
L 269.436846 156.5821 
L 272.048102 158.565162 
L 274.659357 159.394638 
L 277.270613 160.839622 
L 279.881869 162.116811 
L 282.493125 163.833969 
L 285.104381 165.874786 
L 287.715637 166.962209 
L 290.326893 168.394311 
L 292.938149 169.194764 
L 295.549405 170.80801 
L 298.160661 171.962096 
L 300.771917 172.878909 
L 303.383173 173.496329 
L 305.994429 174.415381 
L 308.605685 176.005704 
L 311.216941 178.283558 
L 313.828197 178.414034 
L 316.439453 182.032869 
L 319.050708 185.430329 
L 324.27322 187.76334 
L 329.495732 190.794239 
L 332.106988 191.959322 
L 334.718244 194.243856 
L 337.3295 195.875357 
L 339.940756 197.931757 
L 342.552012 198.68627 
L 345.163268 199.819847 
L 347.774524 201.485791 
L 350.38578 202.883042 
L 355.608292 205.42722 
L 358.219548 206.868063 
L 360.830803 209.369701 
L 363.442059 211.061815 
L 366.053315 212.163811 
L 376.498339 219.856507 
L 379.109595 221.492949 
L 381.720851 221.589816 
L 386.943363 223.460221 
L 389.554619 225.38698 
L 392.165875 226.396959 
L 394.777131 225.569046 
L 397.388387 225.274724 
L 399.999642 226.338058 
L 402.610898 229.562168 
L 405.222154 230.70459 
L 407.83341 232.17033 
L 410.444666 233.923791 
L 413.055922 234.48768 
L 415.667178 235.548491 
L 418.278434 236.745856 
L 420.88969 237.45607 
L 423.500946 239.384647 
L 426.112202 239.771155 
L 428.723458 241.859319 
L 431.334714 243.654166 
L 433.94597 245.070797 
L 436.557226 245.310935 
L 439.168482 245.959189 
L 441.779738 247.36653 
L 444.390993 249.407448 
L 447.002249 250.397382 
L 449.613505 252.039699 
L 452.224761 254.452434 
L 454.836017 256.435833 
L 457.447273 257.586982 
L 460.058529 259.089522 
L 462.669785 260.433436 
L 465.281041 262.050974 
L 467.892297 262.914563 
L 470.503553 263.49178 
L 473.114809 265.230227 
L 475.726065 266.457999 
L 478.337321 267.150637 
L 480.948577 268.265979 
L 483.559833 269.567963 
L 486.171088 270.364506 
L 488.782344 272.831551 
L 491.3936 273.544075 
L 496.616112 275.955788 
L 499.227368 277.385237 
L 501.838624 279.049862 
L 504.44988 280.162128 
L 507.061136 281.997877 
L 509.672392 283.412409 
L 517.50616 286.988864 
L 520.117416 287.759441 
L 525.339928 291.098919 
L 527.951183 292.43453 
L 530.562439 294.693355 
L 533.173695 295.20681 
L 535.784951 296.517027 
L 538.396207 297.0338 
L 541.007463 297.905876 
L 543.618719 299.124112 
L 546.229975 301.161486 
L 548.841231 302.795705 
L 551.452487 302.526927 
L 554.063743 304.201478 
L 556.674999 304.261267 
L 559.286255 306.387135 
L 561.897511 308.245523 
L 564.508767 309.417082 
L 567.120023 310.380892 
L 569.731278 313.175159 
L 572.342534 314.663704 
L 574.95379 316.30486 
L 577.565046 317.711365 
L 580.176302 319.288366 
L 585.398814 320.966156 
L 588.01007 321.566531 
L 593.232582 324.110848 
L 595.843838 324.875443 
L 598.455094 326.407628 
L 601.06635 326.653439 
L 606.288862 328.996224 
L 608.900118 331.718412 
L 611.511373 333.150898 
L 614.122629 333.478622 
L 616.733885 334.875275 
L 619.345141 335.492103 
L 621.956397 337.687958 
L 624.567653 338.345991 
L 627.178909 339.599104 
L 629.790165 340.47068 
L 632.401421 341.543849 
L 635.012677 342.445425 
L 637.623933 344.570859 
L 640.235189 344.681921 
L 642.846445 346.439096 
L 645.457701 345.175497 
L 648.068957 346.377571 
L 650.680213 347.962085 
L 653.291468 349.800957 
L 655.902724 350.740977 
L 658.51398 351.824823 
L 663.736492 355.188368 
L 666.347748 356.674603 
L 668.959004 357.495489 
L 671.57026 356.516262 
L 674.181516 358.228236 
L 676.792772 359.064603 
L 679.404028 359.343396 
L 682.015284 360.59451 
L 684.62654 362.064334 
L 687.237796 362.620714 
L 689.849052 363.997424 
L 692.460308 366.075567 
L 695.071563 366.007659 
L 697.682819 367.269353 
L 700.294075 367.621861 
L 702.905331 370.009031 
L 705.516587 370.764441 
L 708.127843 367.523571 
L 713.350355 370.224147 
L 715.961611 374.444822 
L 718.572867 375.137534 
L 721.184123 376.717863 
L 723.795379 379.092232 
L 726.406635 380.667772 
L 729.017891 381.711983 
L 731.629147 383.159452 
L 734.240403 383.803708 
L 736.851658 385.189963 
L 739.462914 386.355378 
L 742.07417 388.046204 
L 744.685426 388.599044 
L 747.296682 390.240353 
L 749.907938 392.388675 
L 752.519194 394.252459 
L 755.13045 395.350815 
L 757.741706 396.173034 
L 762.964218 399.871366 
L 765.575474 401.345967 
L 768.18673 403.182264 
L 770.797986 404.633502 
L 781.243009 408.438161 
L 783.854265 410.656717 
L 786.465521 413.109252 
L 789.076777 414.121639 
L 791.688033 415.701647 
L 794.299289 416.870515 
L 796.910545 418.190295 
L 802.133057 421.55347 
L 804.744313 421.875794 
L 807.355569 422.659496 
L 809.966825 424.558376 
L 812.578081 426.070291 
L 815.189337 427.36751 
L 817.800593 428.189629 
L 820.411848 429.753036 
L 823.023104 430.747386 
L 828.245616 433.587893 
L 830.856872 435.461075 
L 833.468128 436.692104 
L 836.079384 436.853955 
L 838.69064 438.025042 
L 841.301896 438.773106 
L 843.913152 441.192758 
L 849.135664 442.937451 
L 851.74692 445.625002 
L 854.358176 447.398575 
L 856.969432 448.909006 
L 859.580688 449.753636 
L 862.191943 450.984716 
L 867.414455 453.184201 
L 870.025711 453.819397 
L 872.636967 455.42407 
L 875.248223 457.176323 
L 880.470735 458.718024 
L 883.081991 460.754082 
L 885.693247 462.210884 
L 888.304503 462.343889 
L 890.915759 462.865237 
L 893.527015 465.73222 
L 896.138271 466.718949 
L 901.360783 469.793249 
L 903.972038 471.083978 
L 906.583294 471.633732 
L 911.805806 474.222649 
L 914.417062 475.338747 
L 917.028318 475.527939 
L 919.639574 476.901701 
L 922.25083 477.631952 
L 924.862086 479.465539 
L 927.473342 480.868743 
L 930.084598 481.936459 
L 932.695854 483.209509 
L 935.30711 485.122937 
L 937.918366 486.709412 
L 940.529622 487.580664 
L 943.140878 488.762309 
L 945.752133 490.391692 
L 948.363389 491.661293 
L 950.974645 493.309608 
L 953.585901 494.786145 
L 956.197157 495.895016 
L 958.808413 497.175576 
L 961.419669 497.946648 
L 964.030925 499.631654 
L 966.642181 501.165913 
L 969.253437 501.281354 
L 977.087205 505.896647 
L 979.698461 507.719177 
L 982.309717 507.817559 
L 984.920973 509.672799 
L 987.532228 510.839146 
L 990.143484 514.047864 
L 995.365996 516.470593 
L 1000.588508 517.951501 
L 1003.199764 518.984117 
L 1005.81102 520.491692 
L 1008.422276 522.328102 
L 1011.033532 523.896212 
L 1013.644788 525.20021 
L 1016.256044 526.167257 
L 1018.8673 527.772517 
L 1021.478556 529.004707 
L 1024.089812 530.593863 
L 1026.701068 532.475745 
L 1031.923579 535.380679 
L 1034.534835 537.592554 
L 1037.146091 538.145228 
L 1039.757347 539.474423 
L 1042.368603 539.652245 
L 1044.979859 540.319182 
L 1047.591115 541.921347 
L 1052.813627 543.534344 
L 1055.424883 544.760022 
L 1058.036139 547.81594 
L 1060.647395 549.045154 
L 1063.258651 550.723405 
L 1065.869907 551.483473 
L 1068.481162 551.264667 
L 1071.092418 553.043536 
L 1073.703674 553.939241 
L 1076.31493 555.781455 
L 1078.926186 556.454149 
L 1081.537442 557.437317 
L 1084.148698 558.704029 
L 1086.759954 560.298346 
L 1091.982466 562.464882 
L 1094.593722 563.165046 
L 1097.204978 565.604187 
L 1099.816234 568.210654 
L 1102.42749 570.458017 
L 1105.038746 571.836179 
L 1107.650002 572.417349 
L 1110.261258 574.903547 
L 1112.872513 575.647631 
L 1115.483769 577.765608 
L 1118.095025 576.775579 
L 1120.706281 579.054291 
L 1123.317537 581.624025 
L 1125.928793 582.087621 
L 1128.540049 583.226766 
L 1131.151305 583.598003 
L 1133.762561 585.54278 
L 1136.373817 586.097065 
L 1138.985073 587.804222 
L 1141.596329 588.776689 
L 1144.207585 590.793247 
L 1146.818841 591.058784 
L 1149.430097 593.689295 
L 1154.652608 596.775175 
L 1157.263864 598.383624 
L 1159.87512 599.771801 
L 1167.708888 604.550135 
L 1170.320144 605.225697 
L 1172.9314 606.999165 
L 1175.542656 608.254593 
L 1178.153912 609.968927 
L 1180.765168 612.671659 
L 1183.376424 614.777743 
L 1185.98768 616.033477 
L 1188.598936 617.448347 
L 1191.210192 619.533952 
L 1193.821448 620.607285 
L 1196.432703 623.142598 
L 1199.043959 625.36724 
L 1204.266471 627.755264 
L 1206.877727 629.246677 
L 1209.488983 631.347676 
L 1212.100239 632.815664 
L 1214.711495 635.124406 
L 1217.322751 637.011184 
L 1219.934007 638.260182 
L 1222.545263 640.11147 
L 1225.156519 641.481316 
L 1227.767775 642.16703 
L 1230.379031 643.414825 
L 1232.990287 645.177556 
L 1235.601543 646.400487 
L 1238.212798 647.164093 
L 1240.824054 648.528226 
L 1243.43531 649.73407 
L 1246.046566 651.542275 
L 1248.657822 651.954681 
L 1251.269078 653.413668 
L 1253.880334 655.498999 
L 1259.102846 659.0399 
L 1261.714102 658.873222 
L 1264.325358 659.660588 
L 1266.936614 661.566225 
L 1269.54787 662.1697 
L 1272.159126 663.166471 
L 1274.770382 664.522914 
L 1277.381638 667.038377 
L 1279.992893 668.743024 
L 1282.604149 669.11216 
L 1285.215405 670.530638 
L 1287.826661 672.283501 
L 1290.437917 673.332769 
L 1293.049173 675.946681 
L 1295.660429 678.026312 
L 1298.271685 680.3442 
L 1303.494197 682.795798 
L 1311.327965 687.384338 
L 1313.939221 687.571447 
L 1316.550477 688.584409 
L 1319.161733 689.86059 
L 1321.772988 690.937246 
L 1324.384244 691.741396 
L 1326.9955 693.075312 
L 1329.606756 695.068341 
L 1332.218012 696.053983 
L 1334.829268 697.78811 
L 1337.440524 698.791637 
L 1340.05178 699.422694 
L 1345.274292 702.832706 
L 1347.885548 703.528246 
L 1350.496804 703.364753 
L 1353.10806 704.00322 
L 1355.719316 704.110368 
L 1358.330572 704.868509 
L 1360.941828 706.797954 
L 1363.553083 707.270831 
L 1366.164339 708.030412 
L 1368.775595 709.25309 
L 1371.386851 710.679655 
L 1373.998107 711.672832 
L 1376.609363 713.522862 
L 1379.220619 714.540531 
L 1379.220619 714.540531 
" style="fill:none;stroke:#0000ff;stroke-linecap:square;stroke-width:2.0;"/>
   </g>
   <g id="line2d_2">
    <path clip-path="url(#pf7012c0962)" d="M 76.203906 58.428127 
L 78.815162 60.378672 
L 81.426418 61.120214 
L 84.037674 62.116006 
L 89.260186 66.364135 
L 91.871442 67.498597 
L 94.482698 69.523415 
L 97.093954 71.051097 
L 99.70521 71.627012 
L 102.316466 73.260135 
L 104.927722 74.43509 
L 107.538978 75.758247 
L 110.150233 77.824529 
L 112.761489 80.141702 
L 117.984001 82.667743 
L 120.595257 83.945455 
L 123.206513 85.466411 
L 125.817769 86.414329 
L 128.429025 87.198597 
L 133.651537 89.813495 
L 136.262793 91.745817 
L 141.485305 94.516 
L 144.096561 93.913225 
L 146.707817 95.085999 
L 149.319073 96.537577 
L 151.930328 98.342613 
L 154.541584 99.65725 
L 159.764096 101.309979 
L 162.375352 103.416875 
L 164.986608 105.727678 
L 167.597864 107.02062 
L 172.820376 111.461335 
L 175.431632 113.193352 
L 178.042888 114.070104 
L 180.654144 116.121581 
L 183.2654 115.634833 
L 185.876656 117.133892 
L 188.487912 117.707808 
L 191.099168 119.12336 
L 196.321679 122.385524 
L 198.932935 123.021387 
L 204.155447 126.001566 
L 206.766703 125.074087 
L 209.377959 126.967581 
L 211.989215 128.582883 
L 214.600471 129.45737 
L 217.211727 130.050109 
L 219.822983 131.865394 
L 222.434239 132.796101 
L 225.045495 134.535693 
L 227.656751 134.635359 
L 230.268007 137.319685 
L 232.879263 139.041645 
L 235.490518 140.4966 
L 238.101774 142.350994 
L 240.71303 143.128971 
L 243.324286 144.332638 
L 245.935542 144.94847 
L 248.546798 145.894141 
L 251.158054 146.681985 
L 256.380566 147.665473 
L 258.991822 149.79659 
L 261.603078 151.713951 
L 264.214334 152.455875 
L 266.82559 153.795575 
L 269.436846 154.042747 
L 272.048102 154.587921 
L 274.659357 156.354341 
L 277.270613 158.260669 
L 279.881869 161.073608 
L 285.104381 164.811559 
L 287.715637 166.109973 
L 290.326893 168.071176 
L 298.160661 172.645949 
L 300.771917 174.011552 
L 303.383173 176.028027 
L 305.994429 178.358684 
L 308.605685 179.414493 
L 313.828197 182.192695 
L 316.439453 183.21481 
L 319.050708 182.951736 
L 321.661964 184.187655 
L 324.27322 185.081418 
L 326.884476 186.918987 
L 329.495732 188.15972 
L 332.106988 189.174085 
L 334.718244 188.451254 
L 337.3295 189.478121 
L 339.940756 190.130974 
L 342.552012 191.871518 
L 345.163268 192.774578 
L 347.774524 194.427348 
L 350.38578 195.377994 
L 352.997036 195.498822 
L 355.608292 196.073287 
L 358.219548 197.683567 
L 360.830803 200.321141 
L 363.442059 202.212908 
L 366.053315 203.560135 
L 368.664571 204.295808 
L 371.275827 206.91822 
L 373.887083 207.93905 
L 379.109595 211.871852 
L 381.720851 212.923477 
L 384.332107 213.768095 
L 386.943363 215.300771 
L 389.554619 215.691726 
L 392.165875 216.587654 
L 394.777131 217.846246 
L 397.388387 219.621273 
L 402.610898 220.582568 
L 405.222154 222.322415 
L 407.83341 223.412992 
L 410.444666 225.253979 
L 413.055922 225.534331 
L 415.667178 226.570802 
L 418.278434 227.190969 
L 420.88969 228.026836 
L 423.500946 229.886074 
L 426.112202 232.446292 
L 428.723458 233.856067 
L 433.94597 234.813379 
L 436.557226 236.89628 
L 439.168482 237.9778 
L 441.779738 240.681387 
L 444.390993 242.019601 
L 452.224761 246.765505 
L 454.836017 247.813154 
L 457.447273 248.4807 
L 460.058529 249.593 
L 462.669785 251.051292 
L 465.281041 253.320766 
L 467.892297 253.998202 
L 470.503553 254.349185 
L 473.114809 255.672161 
L 475.726065 257.424079 
L 478.337321 258.173577 
L 480.948577 259.167546 
L 486.171088 262.43769 
L 488.782344 261.543079 
L 491.3936 261.752668 
L 499.227368 267.155482 
L 501.838624 268.876525 
L 504.44988 271.666349 
L 507.061136 274.935422 
L 509.672392 276.834197 
L 512.283648 278.595464 
L 514.894904 278.07005 
L 517.50616 278.907349 
L 520.117416 280.478128 
L 522.728672 282.852599 
L 525.339928 283.906497 
L 527.951183 284.013567 
L 530.562439 284.447786 
L 533.173695 286.412779 
L 535.784951 287.016679 
L 538.396207 289.424157 
L 543.618719 290.117804 
L 546.229975 292.751432 
L 554.063743 297.711036 
L 556.674999 298.999198 
L 559.286255 299.910471 
L 561.897511 300.350202 
L 564.508767 302.310006 
L 567.120023 303.441098 
L 569.731278 304.045117 
L 572.342534 304.866572 
L 574.95379 307.294791 
L 577.565046 308.711873 
L 580.176302 310.507354 
L 582.787558 313.314806 
L 585.398814 314.288948 
L 588.01007 315.584772 
L 590.621326 317.266168 
L 595.843838 318.670518 
L 598.455094 318.753573 
L 601.06635 320.581875 
L 603.677606 321.627196 
L 606.288862 322.418157 
L 608.900118 323.528036 
L 611.511373 324.05015 
L 614.122629 325.752084 
L 616.733885 327.265634 
L 619.345141 328.932409 
L 621.956397 329.971274 
L 624.567653 330.787971 
L 627.178909 333.129081 
L 629.790165 334.129282 
L 632.401421 334.453022 
L 635.012677 335.730636 
L 637.623933 336.592204 
L 640.235189 337.650472 
L 642.846445 340.254912 
L 645.457701 341.046354 
L 648.068957 341.99649 
L 650.680213 344.105327 
L 653.291468 345.90318 
L 655.902724 346.901128 
L 658.51398 347.46328 
L 661.125236 349.030987 
L 663.736492 349.634255 
L 666.347748 351.995496 
L 668.959004 352.841372 
L 671.57026 354.400599 
L 674.181516 355.076351 
L 676.792772 356.362335 
L 679.404028 357.373721 
L 682.015284 357.146493 
L 687.237796 358.297543 
L 689.849052 360.012893 
L 697.682819 362.94097 
L 700.294075 364.774397 
L 702.905331 367.14811 
L 708.127843 370.224525 
L 710.739099 371.280977 
L 713.350355 372.110917 
L 715.961611 374.314424 
L 718.572867 375.717933 
L 721.184123 377.276717 
L 723.795379 378.145667 
L 729.017891 380.347523 
L 731.629147 381.660015 
L 734.240403 382.422827 
L 736.851658 383.059337 
L 742.07417 385.219471 
L 744.685426 387.123623 
L 747.296682 389.284936 
L 752.519194 392.067419 
L 755.13045 394.868982 
L 757.741706 395.693988 
L 760.352962 396.690903 
L 762.964218 397.90678 
L 765.575474 399.488668 
L 770.797986 403.589416 
L 773.409242 405.106542 
L 776.020498 405.290147 
L 778.631753 405.672184 
L 781.243009 406.531251 
L 783.854265 406.794423 
L 786.465521 408.729845 
L 789.076777 409.543093 
L 791.688033 410.055903 
L 794.299289 411.149223 
L 799.521801 413.837324 
L 802.133057 414.007521 
L 804.744313 414.806281 
L 807.355569 413.320505 
L 812.578081 416.282179 
L 815.189337 418.188143 
L 817.800593 419.4986 
L 820.411848 420.976562 
L 823.023104 421.27957 
L 828.245616 424.187653 
L 830.856872 426.848373 
L 833.468128 426.849711 
L 838.69064 430.116356 
L 841.301896 431.267062 
L 843.913152 431.88502 
L 846.524408 433.195817 
L 849.135664 434.117942 
L 851.74692 435.430936 
L 854.358176 437.019155 
L 859.580688 439.69877 
L 862.191943 441.668571 
L 864.803199 443.362384 
L 867.414455 444.752982 
L 870.025711 447.100016 
L 872.636967 447.660589 
L 875.248223 449.502311 
L 877.859479 450.229364 
L 880.470735 451.264716 
L 883.081991 453.797644 
L 885.693247 455.343571 
L 888.304503 455.657839 
L 890.915759 456.428286 
L 893.527015 458.129619 
L 896.138271 459.975114 
L 898.749527 461.031439 
L 901.360783 462.3757 
L 903.972038 462.500259 
L 906.583294 464.581642 
L 909.19455 465.699728 
L 911.805806 468.154875 
L 917.028318 468.59374 
L 919.639574 469.890584 
L 922.25083 470.506282 
L 924.862086 472.056083 
L 927.473342 474.025308 
L 930.084598 476.772289 
L 932.695854 479.203563 
L 937.918366 481.768313 
L 943.140878 486.476621 
L 945.752133 488.680863 
L 948.363389 488.313308 
L 950.974645 489.766072 
L 956.197157 491.145206 
L 961.419669 492.702244 
L 964.030925 495.767887 
L 966.642181 497.227467 
L 969.253437 498.883651 
L 971.864693 499.599749 
L 974.475949 500.035874 
L 977.087205 500.763681 
L 979.698461 502.428958 
L 982.309717 502.951312 
L 984.920973 502.885423 
L 987.532228 503.927279 
L 990.143484 504.18795 
L 992.75474 505.380751 
L 995.365996 506.320188 
L 997.977252 508.735904 
L 1000.588508 510.368006 
L 1003.199764 510.786273 
L 1005.81102 513.276502 
L 1008.422276 514.161513 
L 1011.033532 515.359648 
L 1013.644788 515.98928 
L 1016.256044 516.079327 
L 1021.478556 518.31176 
L 1024.089812 519.461024 
L 1026.701068 521.619432 
L 1029.312323 524.145176 
L 1031.923579 525.424268 
L 1034.534835 525.975369 
L 1039.757347 527.685717 
L 1042.368603 527.750812 
L 1044.979859 530.135677 
L 1047.591115 531.534402 
L 1050.202371 532.48017 
L 1052.813627 533.122506 
L 1055.424883 534.180356 
L 1058.036139 534.956184 
L 1060.647395 535.530291 
L 1063.258651 536.499443 
L 1065.869907 537.723621 
L 1068.481162 538.478236 
L 1071.092418 540.410228 
L 1073.703674 540.383221 
L 1076.31493 540.735153 
L 1078.926186 542.388326 
L 1081.537442 544.521566 
L 1084.148698 545.049648 
L 1086.759954 546.700542 
L 1091.982466 548.661534 
L 1094.593722 548.868524 
L 1097.204978 549.629026 
L 1099.816234 549.969318 
L 1102.42749 550.746427 
L 1105.038746 551.864102 
L 1107.650002 553.586754 
L 1110.261258 554.362802 
L 1112.872513 554.998771 
L 1115.483769 554.792693 
L 1118.095025 555.167269 
L 1120.706281 556.691866 
L 1123.317537 558.950302 
L 1125.928793 560.901897 
L 1128.540049 562.330259 
L 1131.151305 563.180312 
L 1133.762561 565.581019 
L 1136.373817 566.741834 
L 1141.596329 569.720307 
L 1144.207585 571.127126 
L 1146.818841 571.948613 
L 1149.430097 575.405985 
L 1152.041353 576.553885 
L 1154.652608 577.445018 
L 1157.263864 579.197835 
L 1159.87512 581.381387 
L 1162.486376 581.855548 
L 1165.097632 583.296574 
L 1167.708888 583.037167 
L 1170.320144 585.218749 
L 1172.9314 585.955219 
L 1175.542656 588.632476 
L 1178.153912 587.919825 
L 1180.765168 588.838002 
L 1183.376424 589.927483 
L 1188.598936 593.321904 
L 1191.210192 595.188505 
L 1193.821448 597.413294 
L 1199.043959 602.261768 
L 1201.655215 605.466177 
L 1204.266471 605.626444 
L 1212.100239 609.667233 
L 1214.711495 611.151148 
L 1217.322751 611.976056 
L 1219.934007 613.089252 
L 1222.545263 613.984785 
L 1225.156519 615.488235 
L 1227.767775 615.816195 
L 1230.379031 617.544455 
L 1232.990287 618.522734 
L 1235.601543 620.624986 
L 1238.212798 622.175508 
L 1240.824054 624.280906 
L 1243.43531 626.151533 
L 1246.046566 626.74134 
L 1251.269078 629.783175 
L 1256.49159 632.340827 
L 1259.102846 632.141642 
L 1261.714102 634.553104 
L 1264.325358 635.370481 
L 1266.936614 636.972289 
L 1269.54787 637.466554 
L 1272.159126 638.581513 
L 1274.770382 640.547559 
L 1279.992893 643.521875 
L 1285.215405 645.671712 
L 1290.437917 648.213431 
L 1293.049173 649.30942 
L 1295.660429 651.18643 
L 1298.271685 650.943877 
L 1300.882941 652.159345 
L 1303.494197 653.084747 
L 1306.105453 655.283106 
L 1308.716709 656.054634 
L 1311.327965 655.790229 
L 1313.939221 656.494141 
L 1316.550477 657.368494 
L 1319.161733 659.554448 
L 1324.384244 662.937479 
L 1326.9955 664.806436 
L 1329.606756 665.30412 
L 1332.218012 666.239457 
L 1334.829268 668.021208 
L 1340.05178 671.950707 
L 1342.663036 674.54491 
L 1345.274292 675.765509 
L 1347.885548 677.405728 
L 1350.496804 678.126228 
L 1353.10806 678.10009 
L 1355.719316 679.740611 
L 1358.330572 680.169676 
L 1360.941828 682.19751 
L 1363.553083 681.895631 
L 1366.164339 682.774244 
L 1368.775595 684.248445 
L 1371.386851 685.939051 
L 1373.998107 686.533443 
L 1376.609363 687.840859 
L 1379.220619 689.941737 
L 1379.220619 689.941737 
" style="fill:none;stroke:#008000;stroke-linecap:square;stroke-width:2.0;"/>
   </g>
   <g id="patch_3">
    <path d="M 76.203906 57.915781 
L 1381.831875 57.915781 
" style="fill:none;stroke:#000000;stroke-linecap:square;stroke-linejoin:miter;"/>
   </g>
   <g id="patch_4">
    <path d="M 1381.831875 770.338125 
L 1381.831875 57.915781 
" style="fill:none;stroke:#000000;stroke-linecap:square;stroke-linejoin:miter;"/>
   </g>
   <g id="patch_5">
    <path d="M 76.203906 770.338125 
L 1381.831875 770.338125 
" style="fill:none;stroke:#000000;stroke-linecap:square;stroke-linejoin:miter;"/>
   </g>
   <g id="patch_6">
    <path d="M 76.203906 770.338125 
L 76.203906 57.915781 
" style="fill:none;stroke:#000000;stroke-linecap:square;stroke-linejoin:miter;"/>
   </g>
   <g id="matplotlib.axis_1">
    <g id="xtick_1">
     <g id="line2d_3">
      <defs>
       <path d="M 0 0 
L 0 -4 
" id="mc0d3954f8e" style="stroke:#000000;stroke-width:0.5;"/>
      </defs>
      <g>
       <use style="stroke:#000000;stroke-width:0.5;" x="76.20390625" xlink:href="#mc0d3954f8e" y="770.338125"/>
      </g>
     </g>
     <g id="line2d_4">
      <defs>
       <path d="M 0 0 
L 0 4 
" id="mb8c2a73158" style="stroke:#000000;stroke-width:0.5;"/>
      </defs>
      <g>
       <use style="stroke:#000000;stroke-width:0.5;" x="76.20390625" xlink:href="#mb8c2a73158" y="57.91578125"/>
      </g>
     </g>
     <g id="text_1">
      <!-- 0 -->
      <defs>
       <path d="M 31.78125 66.40625 
Q 24.171875 66.40625 20.328125 58.90625 
Q 16.5 51.421875 16.5 36.375 
Q 16.5 21.390625 20.328125 13.890625 
Q 24.171875 6.390625 31.78125 6.390625 
Q 39.453125 6.390625 43.28125 13.890625 
Q 47.125 21.390625 47.125 36.375 
Q 47.125 51.421875 43.28125 58.90625 
Q 39.453125 66.40625 31.78125 66.40625 
M 31.78125 74.21875 
Q 44.046875 74.21875 50.515625 64.515625 
Q 56.984375 54.828125 56.984375 36.375 
Q 56.984375 17.96875 50.515625 8.265625 
Q 44.046875 -1.421875 31.78125 -1.421875 
Q 19.53125 -1.421875 13.0625 8.265625 
Q 6.59375 17.96875 6.59375 36.375 
Q 6.59375 54.828125 13.0625 64.515625 
Q 19.53125 74.21875 31.78125 74.21875 
" id="BitstreamVeraSans-Roman-30"/>
      </defs>
      <g transform="translate(66.66015625 797.1334375)scale(0.3 -0.3)">
       <use xlink:href="#BitstreamVeraSans-Roman-30"/>
      </g>
     </g>
    </g>
    <g id="xtick_2">
     <g id="line2d_5">
      <g>
       <use style="stroke:#000000;stroke-width:0.5;" x="337.3295" xlink:href="#mc0d3954f8e" y="770.338125"/>
      </g>
     </g>
     <g id="line2d_6">
      <g>
       <use style="stroke:#000000;stroke-width:0.5;" x="337.3295" xlink:href="#mb8c2a73158" y="57.91578125"/>
      </g>
     </g>
     <g id="text_2">
      <!-- 100 -->
      <defs>
       <path d="M 12.40625 8.296875 
L 28.515625 8.296875 
L 28.515625 63.921875 
L 10.984375 60.40625 
L 10.984375 69.390625 
L 28.421875 72.90625 
L 38.28125 72.90625 
L 38.28125 8.296875 
L 54.390625 8.296875 
L 54.390625 0 
L 12.40625 0 
z
" id="BitstreamVeraSans-Roman-31"/>
      </defs>
      <g transform="translate(308.69825 797.1334375)scale(0.3 -0.3)">
       <use xlink:href="#BitstreamVeraSans-Roman-31"/>
       <use x="63.623046875" xlink:href="#BitstreamVeraSans-Roman-30"/>
       <use x="127.24609375" xlink:href="#BitstreamVeraSans-Roman-30"/>
      </g>
     </g>
    </g>
    <g id="xtick_3">
     <g id="line2d_7">
      <g>
       <use style="stroke:#000000;stroke-width:0.5;" x="598.45509375" xlink:href="#mc0d3954f8e" y="770.338125"/>
      </g>
     </g>
     <g id="line2d_8">
      <g>
       <use style="stroke:#000000;stroke-width:0.5;" x="598.45509375" xlink:href="#mb8c2a73158" y="57.91578125"/>
      </g>
     </g>
     <g id="text_3">
      <!-- 200 -->
      <defs>
       <path d="M 19.1875 8.296875 
L 53.609375 8.296875 
L 53.609375 0 
L 7.328125 0 
L 7.328125 8.296875 
Q 12.9375 14.109375 22.625 23.890625 
Q 32.328125 33.6875 34.8125 36.53125 
Q 39.546875 41.84375 41.421875 45.53125 
Q 43.3125 49.21875 43.3125 52.78125 
Q 43.3125 58.59375 39.234375 62.25 
Q 35.15625 65.921875 28.609375 65.921875 
Q 23.96875 65.921875 18.8125 64.3125 
Q 13.671875 62.703125 7.8125 59.421875 
L 7.8125 69.390625 
Q 13.765625 71.78125 18.9375 73 
Q 24.125 74.21875 28.421875 74.21875 
Q 39.75 74.21875 46.484375 68.546875 
Q 53.21875 62.890625 53.21875 53.421875 
Q 53.21875 48.921875 51.53125 44.890625 
Q 49.859375 40.875 45.40625 35.40625 
Q 44.1875 33.984375 37.640625 27.21875 
Q 31.109375 20.453125 19.1875 8.296875 
" id="BitstreamVeraSans-Roman-32"/>
      </defs>
      <g transform="translate(569.82384375 797.1334375)scale(0.3 -0.3)">
       <use xlink:href="#BitstreamVeraSans-Roman-32"/>
       <use x="63.623046875" xlink:href="#BitstreamVeraSans-Roman-30"/>
       <use x="127.24609375" xlink:href="#BitstreamVeraSans-Roman-30"/>
      </g>
     </g>
    </g>
    <g id="xtick_4">
     <g id="line2d_9">
      <g>
       <use style="stroke:#000000;stroke-width:0.5;" x="859.5806875" xlink:href="#mc0d3954f8e" y="770.338125"/>
      </g>
     </g>
     <g id="line2d_10">
      <g>
       <use style="stroke:#000000;stroke-width:0.5;" x="859.5806875" xlink:href="#mb8c2a73158" y="57.91578125"/>
      </g>
     </g>
     <g id="text_4">
      <!-- 300 -->
      <defs>
       <path d="M 40.578125 39.3125 
Q 47.65625 37.796875 51.625 33 
Q 55.609375 28.21875 55.609375 21.1875 
Q 55.609375 10.40625 48.1875 4.484375 
Q 40.765625 -1.421875 27.09375 -1.421875 
Q 22.515625 -1.421875 17.65625 -0.515625 
Q 12.796875 0.390625 7.625 2.203125 
L 7.625 11.71875 
Q 11.71875 9.328125 16.59375 8.109375 
Q 21.484375 6.890625 26.8125 6.890625 
Q 36.078125 6.890625 40.9375 10.546875 
Q 45.796875 14.203125 45.796875 21.1875 
Q 45.796875 27.640625 41.28125 31.265625 
Q 36.765625 34.90625 28.71875 34.90625 
L 20.21875 34.90625 
L 20.21875 43.015625 
L 29.109375 43.015625 
Q 36.375 43.015625 40.234375 45.921875 
Q 44.09375 48.828125 44.09375 54.296875 
Q 44.09375 59.90625 40.109375 62.90625 
Q 36.140625 65.921875 28.71875 65.921875 
Q 24.65625 65.921875 20.015625 65.03125 
Q 15.375 64.15625 9.8125 62.3125 
L 9.8125 71.09375 
Q 15.4375 72.65625 20.34375 73.4375 
Q 25.25 74.21875 29.59375 74.21875 
Q 40.828125 74.21875 47.359375 69.109375 
Q 53.90625 64.015625 53.90625 55.328125 
Q 53.90625 49.265625 50.4375 45.09375 
Q 46.96875 40.921875 40.578125 39.3125 
" id="BitstreamVeraSans-Roman-33"/>
      </defs>
      <g transform="translate(830.9494375 797.1334375)scale(0.3 -0.3)">
       <use xlink:href="#BitstreamVeraSans-Roman-33"/>
       <use x="63.623046875" xlink:href="#BitstreamVeraSans-Roman-30"/>
       <use x="127.24609375" xlink:href="#BitstreamVeraSans-Roman-30"/>
      </g>
     </g>
    </g>
    <g id="xtick_5">
     <g id="line2d_11">
      <g>
       <use style="stroke:#000000;stroke-width:0.5;" x="1120.70628125" xlink:href="#mc0d3954f8e" y="770.338125"/>
      </g>
     </g>
     <g id="line2d_12">
      <g>
       <use style="stroke:#000000;stroke-width:0.5;" x="1120.70628125" xlink:href="#mb8c2a73158" y="57.91578125"/>
      </g>
     </g>
     <g id="text_5">
      <!-- 400 -->
      <defs>
       <path d="M 37.796875 64.3125 
L 12.890625 25.390625 
L 37.796875 25.390625 
z
M 35.203125 72.90625 
L 47.609375 72.90625 
L 47.609375 25.390625 
L 58.015625 25.390625 
L 58.015625 17.1875 
L 47.609375 17.1875 
L 47.609375 0 
L 37.796875 0 
L 37.796875 17.1875 
L 4.890625 17.1875 
L 4.890625 26.703125 
z
" id="BitstreamVeraSans-Roman-34"/>
      </defs>
      <g transform="translate(1092.07503125 797.1334375)scale(0.3 -0.3)">
       <use xlink:href="#BitstreamVeraSans-Roman-34"/>
       <use x="63.623046875" xlink:href="#BitstreamVeraSans-Roman-30"/>
       <use x="127.24609375" xlink:href="#BitstreamVeraSans-Roman-30"/>
      </g>
     </g>
    </g>
    <g id="xtick_6">
     <g id="line2d_13">
      <g>
       <use style="stroke:#000000;stroke-width:0.5;" x="1381.831875" xlink:href="#mc0d3954f8e" y="770.338125"/>
      </g>
     </g>
     <g id="line2d_14">
      <g>
       <use style="stroke:#000000;stroke-width:0.5;" x="1381.831875" xlink:href="#mb8c2a73158" y="57.91578125"/>
      </g>
     </g>
     <g id="text_6">
      <!-- 500 -->
      <defs>
       <path d="M 10.796875 72.90625 
L 49.515625 72.90625 
L 49.515625 64.59375 
L 19.828125 64.59375 
L 19.828125 46.734375 
Q 21.96875 47.46875 24.109375 47.828125 
Q 26.265625 48.1875 28.421875 48.1875 
Q 40.625 48.1875 47.75 41.5 
Q 54.890625 34.8125 54.890625 23.390625 
Q 54.890625 11.625 47.5625 5.09375 
Q 40.234375 -1.421875 26.90625 -1.421875 
Q 22.3125 -1.421875 17.546875 -0.640625 
Q 12.796875 0.140625 7.71875 1.703125 
L 7.71875 11.625 
Q 12.109375 9.234375 16.796875 8.0625 
Q 21.484375 6.890625 26.703125 6.890625 
Q 35.15625 6.890625 40.078125 11.328125 
Q 45.015625 15.765625 45.015625 23.390625 
Q 45.015625 31 40.078125 35.4375 
Q 35.15625 39.890625 26.703125 39.890625 
Q 22.75 39.890625 18.8125 39.015625 
Q 14.890625 38.140625 10.796875 36.28125 
z
" id="BitstreamVeraSans-Roman-35"/>
      </defs>
      <g transform="translate(1353.200625 797.1334375)scale(0.3 -0.3)">
       <use xlink:href="#BitstreamVeraSans-Roman-35"/>
       <use x="63.623046875" xlink:href="#BitstreamVeraSans-Roman-30"/>
       <use x="127.24609375" xlink:href="#BitstreamVeraSans-Roman-30"/>
      </g>
     </g>
    </g>
    <g id="text_7">
     <!-- iterations -->
     <defs>
      <path d="M 54.890625 33.015625 
L 54.890625 0 
L 45.90625 0 
L 45.90625 32.71875 
Q 45.90625 40.484375 42.875 44.328125 
Q 39.84375 48.1875 33.796875 48.1875 
Q 26.515625 48.1875 22.3125 43.546875 
Q 18.109375 38.921875 18.109375 30.90625 
L 18.109375 0 
L 9.078125 0 
L 9.078125 54.6875 
L 18.109375 54.6875 
L 18.109375 46.1875 
Q 21.34375 51.125 25.703125 53.5625 
Q 30.078125 56 35.796875 56 
Q 45.21875 56 50.046875 50.171875 
Q 54.890625 44.34375 54.890625 33.015625 
" id="BitstreamVeraSans-Roman-6e"/>
      <path d="M 34.28125 27.484375 
Q 23.390625 27.484375 19.1875 25 
Q 14.984375 22.515625 14.984375 16.5 
Q 14.984375 11.71875 18.140625 8.90625 
Q 21.296875 6.109375 26.703125 6.109375 
Q 34.1875 6.109375 38.703125 11.40625 
Q 43.21875 16.703125 43.21875 25.484375 
L 43.21875 27.484375 
z
M 52.203125 31.203125 
L 52.203125 0 
L 43.21875 0 
L 43.21875 8.296875 
Q 40.140625 3.328125 35.546875 0.953125 
Q 30.953125 -1.421875 24.3125 -1.421875 
Q 15.921875 -1.421875 10.953125 3.296875 
Q 6 8.015625 6 15.921875 
Q 6 25.140625 12.171875 29.828125 
Q 18.359375 34.515625 30.609375 34.515625 
L 43.21875 34.515625 
L 43.21875 35.40625 
Q 43.21875 41.609375 39.140625 45 
Q 35.0625 48.390625 27.6875 48.390625 
Q 23 48.390625 18.546875 47.265625 
Q 14.109375 46.140625 10.015625 43.890625 
L 10.015625 52.203125 
Q 14.9375 54.109375 19.578125 55.046875 
Q 24.21875 56 28.609375 56 
Q 40.484375 56 46.34375 49.84375 
Q 52.203125 43.703125 52.203125 31.203125 
" id="BitstreamVeraSans-Roman-61"/>
      <path d="M 30.609375 48.390625 
Q 23.390625 48.390625 19.1875 42.75 
Q 14.984375 37.109375 14.984375 27.296875 
Q 14.984375 17.484375 19.15625 11.84375 
Q 23.34375 6.203125 30.609375 6.203125 
Q 37.796875 6.203125 41.984375 11.859375 
Q 46.1875 17.53125 46.1875 27.296875 
Q 46.1875 37.015625 41.984375 42.703125 
Q 37.796875 48.390625 30.609375 48.390625 
M 30.609375 56 
Q 42.328125 56 49.015625 48.375 
Q 55.71875 40.765625 55.71875 27.296875 
Q 55.71875 13.875 49.015625 6.21875 
Q 42.328125 -1.421875 30.609375 -1.421875 
Q 18.84375 -1.421875 12.171875 6.21875 
Q 5.515625 13.875 5.515625 27.296875 
Q 5.515625 40.765625 12.171875 48.375 
Q 18.84375 56 30.609375 56 
" id="BitstreamVeraSans-Roman-6f"/>
      <path d="M 9.421875 54.6875 
L 18.40625 54.6875 
L 18.40625 0 
L 9.421875 0 
z
M 9.421875 75.984375 
L 18.40625 75.984375 
L 18.40625 64.59375 
L 9.421875 64.59375 
z
" id="BitstreamVeraSans-Roman-69"/>
      <path d="M 56.203125 29.59375 
L 56.203125 25.203125 
L 14.890625 25.203125 
Q 15.484375 15.921875 20.484375 11.0625 
Q 25.484375 6.203125 34.421875 6.203125 
Q 39.59375 6.203125 44.453125 7.46875 
Q 49.3125 8.734375 54.109375 11.28125 
L 54.109375 2.78125 
Q 49.265625 0.734375 44.1875 -0.34375 
Q 39.109375 -1.421875 33.890625 -1.421875 
Q 20.796875 -1.421875 13.15625 6.1875 
Q 5.515625 13.8125 5.515625 26.8125 
Q 5.515625 40.234375 12.765625 48.109375 
Q 20.015625 56 32.328125 56 
Q 43.359375 56 49.78125 48.890625 
Q 56.203125 41.796875 56.203125 29.59375 
M 47.21875 32.234375 
Q 47.125 39.59375 43.09375 43.984375 
Q 39.0625 48.390625 32.421875 48.390625 
Q 24.90625 48.390625 20.390625 44.140625 
Q 15.875 39.890625 15.1875 32.171875 
z
" id="BitstreamVeraSans-Roman-65"/>
      <path d="M 18.3125 70.21875 
L 18.3125 54.6875 
L 36.8125 54.6875 
L 36.8125 47.703125 
L 18.3125 47.703125 
L 18.3125 18.015625 
Q 18.3125 11.328125 20.140625 9.421875 
Q 21.96875 7.515625 27.59375 7.515625 
L 36.8125 7.515625 
L 36.8125 0 
L 27.59375 0 
Q 17.1875 0 13.234375 3.875 
Q 9.28125 7.765625 9.28125 18.015625 
L 9.28125 47.703125 
L 2.6875 47.703125 
L 2.6875 54.6875 
L 9.28125 54.6875 
L 9.28125 70.21875 
z
" id="BitstreamVeraSans-Roman-74"/>
      <path d="M 41.109375 46.296875 
Q 39.59375 47.171875 37.8125 47.578125 
Q 36.03125 48 33.890625 48 
Q 26.265625 48 22.1875 43.046875 
Q 18.109375 38.09375 18.109375 28.8125 
L 18.109375 0 
L 9.078125 0 
L 9.078125 54.6875 
L 18.109375 54.6875 
L 18.109375 46.1875 
Q 20.953125 51.171875 25.484375 53.578125 
Q 30.03125 56 36.53125 56 
Q 37.453125 56 38.578125 55.875 
Q 39.703125 55.765625 41.0625 55.515625 
z
" id="BitstreamVeraSans-Roman-72"/>
      <path d="M 44.28125 53.078125 
L 44.28125 44.578125 
Q 40.484375 46.53125 36.375 47.5 
Q 32.28125 48.484375 27.875 48.484375 
Q 21.1875 48.484375 17.84375 46.4375 
Q 14.5 44.390625 14.5 40.28125 
Q 14.5 37.15625 16.890625 35.375 
Q 19.28125 33.59375 26.515625 31.984375 
L 29.59375 31.296875 
Q 39.15625 29.25 43.1875 25.515625 
Q 47.21875 21.78125 47.21875 15.09375 
Q 47.21875 7.46875 41.1875 3.015625 
Q 35.15625 -1.421875 24.609375 -1.421875 
Q 20.21875 -1.421875 15.453125 -0.5625 
Q 10.6875 0.296875 5.421875 2 
L 5.421875 11.28125 
Q 10.40625 8.6875 15.234375 7.390625 
Q 20.0625 6.109375 24.8125 6.109375 
Q 31.15625 6.109375 34.5625 8.28125 
Q 37.984375 10.453125 37.984375 14.40625 
Q 37.984375 18.0625 35.515625 20.015625 
Q 33.0625 21.96875 24.703125 23.78125 
L 21.578125 24.515625 
Q 13.234375 26.265625 9.515625 29.90625 
Q 5.8125 33.546875 5.8125 39.890625 
Q 5.8125 47.609375 11.28125 51.796875 
Q 16.75 56 26.8125 56 
Q 31.78125 56 36.171875 55.265625 
Q 40.578125 54.546875 44.28125 53.078125 
" id="BitstreamVeraSans-Roman-73"/>
     </defs>
     <g transform="translate(657.835859375 831.1678125)scale(0.3 -0.3)">
      <use xlink:href="#BitstreamVeraSans-Roman-69"/>
      <use x="27.783203125" xlink:href="#BitstreamVeraSans-Roman-74"/>
      <use x="66.9921875" xlink:href="#BitstreamVeraSans-Roman-65"/>
      <use x="128.515625" xlink:href="#BitstreamVeraSans-Roman-72"/>
      <use x="169.62890625" xlink:href="#BitstreamVeraSans-Roman-61"/>
      <use x="230.908203125" xlink:href="#BitstreamVeraSans-Roman-74"/>
      <use x="270.1171875" xlink:href="#BitstreamVeraSans-Roman-69"/>
      <use x="297.900390625" xlink:href="#BitstreamVeraSans-Roman-6f"/>
      <use x="359.08203125" xlink:href="#BitstreamVeraSans-Roman-6e"/>
      <use x="422.4609375" xlink:href="#BitstreamVeraSans-Roman-73"/>
     </g>
    </g>
   </g>
   <g id="matplotlib.axis_2">
    <g id="ytick_1">
     <g id="line2d_15">
      <defs>
       <path d="M 0 0 
L 4 0 
" id="m8955e70dcf" style="stroke:#000000;stroke-width:0.5;"/>
      </defs>
      <g>
       <use style="stroke:#000000;stroke-width:0.5;" x="76.20390625" xlink:href="#m8955e70dcf" y="770.338125"/>
      </g>
     </g>
     <g id="line2d_16">
      <defs>
       <path d="M 0 0 
L -4 0 
" id="m2c79e7e0f1" style="stroke:#000000;stroke-width:0.5;"/>
      </defs>
      <g>
       <use style="stroke:#000000;stroke-width:0.5;" x="1381.831875" xlink:href="#m2c79e7e0f1" y="770.338125"/>
      </g>
     </g>
     <g id="text_8">
      <!-- −5 -->
      <defs>
       <path d="M 10.59375 35.5 
L 73.1875 35.5 
L 73.1875 27.203125 
L 10.59375 27.203125 
z
" id="BitstreamVeraSans-Roman-2212"/>
      </defs>
      <g transform="translate(27.97734375 778.61625)scale(0.3 -0.3)">
       <use xlink:href="#BitstreamVeraSans-Roman-2212"/>
       <use x="83.7890625" xlink:href="#BitstreamVeraSans-Roman-35"/>
      </g>
     </g>
    </g>
    <g id="ytick_2">
     <g id="line2d_17">
      <g>
       <use style="stroke:#000000;stroke-width:0.5;" x="76.20390625" xlink:href="#m8955e70dcf" y="592.232539062"/>
      </g>
     </g>
     <g id="line2d_18">
      <g>
       <use style="stroke:#000000;stroke-width:0.5;" x="1381.831875" xlink:href="#m2c79e7e0f1" y="592.232539062"/>
      </g>
     </g>
     <g id="text_9">
      <!-- 0 -->
      <g transform="translate(53.11640625 600.510664062)scale(0.3 -0.3)">
       <use xlink:href="#BitstreamVeraSans-Roman-30"/>
      </g>
     </g>
    </g>
    <g id="ytick_3">
     <g id="line2d_19">
      <g>
       <use style="stroke:#000000;stroke-width:0.5;" x="76.20390625" xlink:href="#m8955e70dcf" y="414.126953125"/>
      </g>
     </g>
     <g id="line2d_20">
      <g>
       <use style="stroke:#000000;stroke-width:0.5;" x="1381.831875" xlink:href="#m2c79e7e0f1" y="414.126953125"/>
      </g>
     </g>
     <g id="text_10">
      <!-- 5 -->
      <g transform="translate(53.11640625 422.405078125)scale(0.3 -0.3)">
       <use xlink:href="#BitstreamVeraSans-Roman-35"/>
      </g>
     </g>
    </g>
    <g id="ytick_4">
     <g id="line2d_21">
      <g>
       <use style="stroke:#000000;stroke-width:0.5;" x="76.20390625" xlink:href="#m8955e70dcf" y="236.021367188"/>
      </g>
     </g>
     <g id="line2d_22">
      <g>
       <use style="stroke:#000000;stroke-width:0.5;" x="1381.831875" xlink:href="#m2c79e7e0f1" y="236.021367188"/>
      </g>
     </g>
     <g id="text_11">
      <!-- 10 -->
      <g transform="translate(34.02890625 244.299492188)scale(0.3 -0.3)">
       <use xlink:href="#BitstreamVeraSans-Roman-31"/>
       <use x="63.623046875" xlink:href="#BitstreamVeraSans-Roman-30"/>
      </g>
     </g>
    </g>
    <g id="ytick_5">
     <g id="line2d_23">
      <g>
       <use style="stroke:#000000;stroke-width:0.5;" x="76.20390625" xlink:href="#m8955e70dcf" y="57.91578125"/>
      </g>
     </g>
     <g id="line2d_24">
      <g>
       <use style="stroke:#000000;stroke-width:0.5;" x="1381.831875" xlink:href="#m2c79e7e0f1" y="57.91578125"/>
      </g>
     </g>
     <g id="text_12">
      <!-- 15 -->
      <g transform="translate(34.02890625 66.19390625)scale(0.3 -0.3)">
       <use xlink:href="#BitstreamVeraSans-Roman-31"/>
       <use x="63.623046875" xlink:href="#BitstreamVeraSans-Roman-35"/>
      </g>
     </g>
    </g>
   </g>
   <g id="text_13">
    <!-- log(loss) -->
    <defs>
     <path d="M 8.015625 75.875 
L 15.828125 75.875 
Q 23.140625 64.359375 26.78125 53.3125 
Q 30.421875 42.28125 30.421875 31.390625 
Q 30.421875 20.453125 26.78125 9.375 
Q 23.140625 -1.703125 15.828125 -13.1875 
L 8.015625 -13.1875 
Q 14.5 -2 17.703125 9.0625 
Q 20.90625 20.125 20.90625 31.390625 
Q 20.90625 42.671875 17.703125 53.65625 
Q 14.5 64.65625 8.015625 75.875 
" id="BitstreamVeraSans-Roman-29"/>
     <path d="M 31 75.875 
Q 24.46875 64.65625 21.28125 53.65625 
Q 18.109375 42.671875 18.109375 31.390625 
Q 18.109375 20.125 21.3125 9.0625 
Q 24.515625 -2 31 -13.1875 
L 23.1875 -13.1875 
Q 15.875 -1.703125 12.234375 9.375 
Q 8.59375 20.453125 8.59375 31.390625 
Q 8.59375 42.28125 12.203125 53.3125 
Q 15.828125 64.359375 23.1875 75.875 
z
" id="BitstreamVeraSans-Roman-28"/>
     <path d="M 45.40625 27.984375 
Q 45.40625 37.75 41.375 43.109375 
Q 37.359375 48.484375 30.078125 48.484375 
Q 22.859375 48.484375 18.828125 43.109375 
Q 14.796875 37.75 14.796875 27.984375 
Q 14.796875 18.265625 18.828125 12.890625 
Q 22.859375 7.515625 30.078125 7.515625 
Q 37.359375 7.515625 41.375 12.890625 
Q 45.40625 18.265625 45.40625 27.984375 
M 54.390625 6.78125 
Q 54.390625 -7.171875 48.1875 -13.984375 
Q 42 -20.796875 29.203125 -20.796875 
Q 24.46875 -20.796875 20.265625 -20.09375 
Q 16.0625 -19.390625 12.109375 -17.921875 
L 12.109375 -9.1875 
Q 16.0625 -11.328125 19.921875 -12.34375 
Q 23.78125 -13.375 27.78125 -13.375 
Q 36.625 -13.375 41.015625 -8.765625 
Q 45.40625 -4.15625 45.40625 5.171875 
L 45.40625 9.625 
Q 42.625 4.78125 38.28125 2.390625 
Q 33.9375 0 27.875 0 
Q 17.828125 0 11.671875 7.65625 
Q 5.515625 15.328125 5.515625 27.984375 
Q 5.515625 40.671875 11.671875 48.328125 
Q 17.828125 56 27.875 56 
Q 33.9375 56 38.28125 53.609375 
Q 42.625 51.21875 45.40625 46.390625 
L 45.40625 54.6875 
L 54.390625 54.6875 
z
" id="BitstreamVeraSans-Roman-67"/>
     <path d="M 9.421875 75.984375 
L 18.40625 75.984375 
L 18.40625 0 
L 9.421875 0 
z
" id="BitstreamVeraSans-Roman-6c"/>
    </defs>
    <g transform="translate(665.471796875 52.91578125)scale(0.3 -0.3)">
     <use xlink:href="#BitstreamVeraSans-Roman-6c"/>
     <use x="27.783203125" xlink:href="#BitstreamVeraSans-Roman-6f"/>
     <use x="88.96484375" xlink:href="#BitstreamVeraSans-Roman-67"/>
     <use x="152.44140625" xlink:href="#BitstreamVeraSans-Roman-28"/>
     <use x="191.455078125" xlink:href="#BitstreamVeraSans-Roman-6c"/>
     <use x="219.23828125" xlink:href="#BitstreamVeraSans-Roman-6f"/>
     <use x="280.419921875" xlink:href="#BitstreamVeraSans-Roman-73"/>
     <use x="332.51953125" xlink:href="#BitstreamVeraSans-Roman-73"/>
     <use x="384.619140625" xlink:href="#BitstreamVeraSans-Roman-29"/>
    </g>
   </g>
   <g id="legend_1">
    <g id="patch_7">
     <path d="M 1142.47875 169.984531 
L 1366.831875 169.984531 
L 1366.831875 72.915781 
L 1142.47875 72.915781 
z
" style="fill:#ffffff;stroke:#000000;stroke-linejoin:miter;"/>
    </g>
    <g id="line2d_25">
     <path d="M 1163.47875 97.211094 
L 1205.47875 97.211094 
" style="fill:none;stroke:#0000ff;stroke-linecap:square;stroke-width:2.0;"/>
    </g>
    <g id="line2d_26"/>
    <g id="text_14">
     <!-- random -->
     <defs>
      <path d="M 45.40625 46.390625 
L 45.40625 75.984375 
L 54.390625 75.984375 
L 54.390625 0 
L 45.40625 0 
L 45.40625 8.203125 
Q 42.578125 3.328125 38.25 0.953125 
Q 33.9375 -1.421875 27.875 -1.421875 
Q 17.96875 -1.421875 11.734375 6.484375 
Q 5.515625 14.40625 5.515625 27.296875 
Q 5.515625 40.1875 11.734375 48.09375 
Q 17.96875 56 27.875 56 
Q 33.9375 56 38.25 53.625 
Q 42.578125 51.265625 45.40625 46.390625 
M 14.796875 27.296875 
Q 14.796875 17.390625 18.875 11.75 
Q 22.953125 6.109375 30.078125 6.109375 
Q 37.203125 6.109375 41.296875 11.75 
Q 45.40625 17.390625 45.40625 27.296875 
Q 45.40625 37.203125 41.296875 42.84375 
Q 37.203125 48.484375 30.078125 48.484375 
Q 22.953125 48.484375 18.875 42.84375 
Q 14.796875 37.203125 14.796875 27.296875 
" id="BitstreamVeraSans-Roman-64"/>
      <path d="M 52 44.1875 
Q 55.375 50.25 60.0625 53.125 
Q 64.75 56 71.09375 56 
Q 79.640625 56 84.28125 50.015625 
Q 88.921875 44.046875 88.921875 33.015625 
L 88.921875 0 
L 79.890625 0 
L 79.890625 32.71875 
Q 79.890625 40.578125 77.09375 44.375 
Q 74.3125 48.1875 68.609375 48.1875 
Q 61.625 48.1875 57.5625 43.546875 
Q 53.515625 38.921875 53.515625 30.90625 
L 53.515625 0 
L 44.484375 0 
L 44.484375 32.71875 
Q 44.484375 40.625 41.703125 44.40625 
Q 38.921875 48.1875 33.109375 48.1875 
Q 26.21875 48.1875 22.15625 43.53125 
Q 18.109375 38.875 18.109375 30.90625 
L 18.109375 0 
L 9.078125 0 
L 9.078125 54.6875 
L 18.109375 54.6875 
L 18.109375 46.1875 
Q 21.1875 51.21875 25.484375 53.609375 
Q 29.78125 56 35.6875 56 
Q 41.65625 56 45.828125 52.96875 
Q 50 49.953125 52 44.1875 
" id="BitstreamVeraSans-Roman-6d"/>
     </defs>
     <g transform="translate(1238.47875 107.71109375)scale(0.3 -0.3)">
      <use xlink:href="#BitstreamVeraSans-Roman-72"/>
      <use x="41.11328125" xlink:href="#BitstreamVeraSans-Roman-61"/>
      <use x="102.392578125" xlink:href="#BitstreamVeraSans-Roman-6e"/>
      <use x="165.771484375" xlink:href="#BitstreamVeraSans-Roman-64"/>
      <use x="229.248046875" xlink:href="#BitstreamVeraSans-Roman-6f"/>
      <use x="290.4296875" xlink:href="#BitstreamVeraSans-Roman-6d"/>
     </g>
    </g>
    <g id="line2d_27">
     <path d="M 1163.47875 141.245469 
L 1205.47875 141.245469 
" style="fill:none;stroke:#008000;stroke-linecap:square;stroke-width:2.0;"/>
    </g>
    <g id="line2d_28"/>
    <g id="text_15">
     <!-- corr -->
     <defs>
      <path d="M 48.78125 52.59375 
L 48.78125 44.1875 
Q 44.96875 46.296875 41.140625 47.34375 
Q 37.3125 48.390625 33.40625 48.390625 
Q 24.65625 48.390625 19.8125 42.84375 
Q 14.984375 37.3125 14.984375 27.296875 
Q 14.984375 17.28125 19.8125 11.734375 
Q 24.65625 6.203125 33.40625 6.203125 
Q 37.3125 6.203125 41.140625 7.25 
Q 44.96875 8.296875 48.78125 10.40625 
L 48.78125 2.09375 
Q 45.015625 0.34375 40.984375 -0.53125 
Q 36.96875 -1.421875 32.421875 -1.421875 
Q 20.0625 -1.421875 12.78125 6.34375 
Q 5.515625 14.109375 5.515625 27.296875 
Q 5.515625 40.671875 12.859375 48.328125 
Q 20.21875 56 33.015625 56 
Q 37.15625 56 41.109375 55.140625 
Q 45.0625 54.296875 48.78125 52.59375 
" id="BitstreamVeraSans-Roman-63"/>
     </defs>
     <g transform="translate(1238.47875 151.74546875)scale(0.3 -0.3)">
      <use xlink:href="#BitstreamVeraSans-Roman-63"/>
      <use x="54.98046875" xlink:href="#BitstreamVeraSans-Roman-6f"/>
      <use x="116.162109375" xlink:href="#BitstreamVeraSans-Roman-72"/>
      <use x="157.259765625" xlink:href="#BitstreamVeraSans-Roman-72"/>
     </g>
    </g>
   </g>
  </g>
 </g>
 <defs>
  <clipPath id="pf7012c0962">
   <rect height="712.42234375" width="1305.62796875" x="76.20390625" y="57.91578125"/>
  </clipPath>
 </defs>
</svg>
