<?xml version="1.0" encoding="utf-8" standalone="no"?>
<!DOCTYPE svg PUBLIC "-//W3C//DTD SVG 1.1//EN"
  "http://www.w3.org/Graphics/SVG/1.1/DTD/svg11.dtd">
<!-- Created with matplotlib (http://matplotlib.org/) -->
<svg height="864pt" version="1.1" viewBox="0 0 1440 864" width="1440pt" xmlns="http://www.w3.org/2000/svg" xmlns:xlink="http://www.w3.org/1999/xlink">
 <defs>
  <style type="text/css">
*{stroke-linecap:butt;stroke-linejoin:round;stroke-miterlimit:100000;}
  </style>
 </defs>
 <g id="figure_1">
  <g id="patch_1">
   <path d="M 0 864 
L 1440 864 
L 1440 0 
L 0 0 
z
" style="fill:#ffffff;"/>
  </g>
  <g id="axes_1">
   <g id="patch_2">
    <path d="M 93.382656 770.338125 
L 1373.2425 770.338125 
L 1373.2425 57.915781 
L 93.382656 57.915781 
z
" style="fill:#ffffff;"/>
   </g>
   <g id="line2d_1">
    <path clip-path="url(#p850a0840ff)" d="M 93.382656 126.097045 
L 94.662516 129.182139 
L 95.942376 131.706025 
L 97.222236 133.898991 
L 98.502096 135.778227 
L 99.781955 138.136407 
L 101.061815 142.057238 
L 102.341675 143.862583 
L 104.901395 148.747391 
L 106.181255 151.990093 
L 107.461115 154.792096 
L 108.740974 158.721504 
L 112.580554 166.224868 
L 113.860414 168.109522 
L 115.140274 171.590207 
L 116.420133 174.305744 
L 117.699993 176.445623 
L 118.979853 178.268478 
L 120.259713 180.442182 
L 121.539573 183.333372 
L 122.819433 184.699367 
L 124.099293 188.322705 
L 125.379152 190.841431 
L 126.659012 195.221192 
L 127.938872 196.220613 
L 129.218732 199.327184 
L 130.498592 201.73685 
L 131.778452 204.874246 
L 133.058311 208.720947 
L 134.338171 210.126585 
L 135.618031 212.672846 
L 138.177751 218.922108 
L 142.01733 226.852818 
L 143.29719 229.161533 
L 144.57705 232.533493 
L 145.85691 235.322512 
L 147.13677 238.541528 
L 148.41663 241.346251 
L 149.696489 243.418536 
L 150.976349 245.049872 
L 152.256209 247.408227 
L 153.536069 250.982111 
L 154.815929 255.084263 
L 156.095789 257.816855 
L 158.655508 264.45904 
L 159.935368 266.800751 
L 161.215228 268.56087 
L 162.495088 270.566723 
L 166.334667 280.415773 
L 168.894387 287.284683 
L 170.174247 289.120224 
L 171.454107 292.424461 
L 174.013826 296.670276 
L 175.293686 300.327569 
L 176.573546 301.564831 
L 177.853406 304.505603 
L 179.133266 306.566857 
L 180.413126 308.850813 
L 181.692985 312.885875 
L 182.972845 315.643896 
L 184.252705 320.020546 
L 185.532565 323.609029 
L 186.812425 326.353722 
L 188.092285 329.478823 
L 189.372145 333.197601 
L 190.652004 335.023225 
L 191.931864 337.411219 
L 193.211724 340.676993 
L 194.491584 343.589749 
L 195.771444 345.342207 
L 198.331163 350.430751 
L 199.611023 352.226833 
L 200.890883 356.105447 
L 203.450603 360.865943 
L 204.730463 363.842625 
L 206.010323 365.359582 
L 207.290182 368.700289 
L 208.570042 370.774388 
L 209.849902 372.53841 
L 211.129762 376.06747 
L 212.409622 378.391386 
L 213.689482 380.165343 
L 214.969341 381.488173 
L 216.249201 384.049308 
L 217.529061 386.266113 
L 218.808921 388.96366 
L 220.088781 390.062227 
L 221.368641 393.162367 
L 222.6485 395.600599 
L 223.92836 399.085799 
L 226.48808 403.025137 
L 227.76794 406.103677 
L 229.0478 408.641436 
L 230.32766 411.438892 
L 231.607519 415.44213 
L 235.447099 425.692773 
L 236.726959 427.863079 
L 239.286678 433.492569 
L 240.566538 437.620633 
L 241.846398 439.44738 
L 243.126258 441.938038 
L 244.406118 444.941726 
L 246.965838 449.717432 
L 248.245697 452.455259 
L 249.525557 454.361806 
L 250.805417 457.058848 
L 252.085277 460.090314 
L 253.365137 462.28149 
L 254.644997 463.860022 
L 257.204716 468.406387 
L 258.484576 472.447788 
L 259.764436 475.287909 
L 261.044296 477.275675 
L 262.324156 480.145952 
L 263.604015 484.060982 
L 264.883875 486.3987 
L 266.163735 490.028174 
L 267.443595 491.960718 
L 268.723455 494.300235 
L 270.003315 498.122516 
L 273.842894 507.222103 
L 275.122754 511.278348 
L 276.402614 514.346067 
L 280.242193 522.187121 
L 281.522053 525.163572 
L 282.801913 528.687706 
L 284.081773 530.462304 
L 285.361633 533.169963 
L 286.641493 537.900537 
L 289.201212 543.799721 
L 291.760932 550.827446 
L 294.320652 556.233332 
L 295.600512 561.146041 
L 298.160231 567.698097 
L 299.440091 569.387501 
L 300.719951 572.44018 
L 301.999811 574.727188 
L 303.279671 578.508888 
L 305.83939 583.456725 
L 307.11925 587.664949 
L 308.39911 589.826806 
L 309.67897 593.093087 
L 312.23869 597.362708 
L 313.518549 600.641508 
L 314.798409 604.241774 
L 316.078269 607.213232 
L 317.358129 607.864929 
L 318.637989 610.512202 
L 321.197708 614.789113 
L 322.477568 617.720324 
L 323.757428 620.245069 
L 325.037288 623.230024 
L 326.317148 626.726452 
L 327.597008 628.363862 
L 328.876868 631.592225 
L 330.156727 634.124155 
L 331.436587 637.336531 
L 332.716447 639.330798 
L 333.996307 641.95449 
L 336.556027 648.998574 
L 339.115746 652.260624 
L 340.395606 655.454544 
L 342.955326 662.991809 
L 344.235186 665.440649 
L 345.515045 666.800059 
L 346.794905 669.134793 
L 348.074765 671.794754 
L 349.354625 675.873744 
L 351.914345 680.668043 
L 353.194205 681.210114 
L 354.474064 682.783648 
L 355.753924 684.569148 
L 357.033784 687.752677 
L 358.313644 691.65454 
L 359.593504 693.255474 
L 362.153223 700.097251 
L 363.433083 704.131508 
L 364.712943 707.677484 
L 365.992803 709.78359 
L 367.272663 712.302681 
L 369.832382 716.44908 
L 371.112242 719.303742 
L 372.392102 721.111873 
L 373.671962 723.292336 
L 374.951822 726.163684 
L 377.511542 730.680937 
L 378.791401 733.655373 
L 380.071261 735.830259 
L 381.351121 736.138057 
L 382.630981 737.716573 
L 385.190701 741.754704 
L 386.47056 743.198001 
L 387.75042 743.792832 
L 390.31014 747.255844 
L 391.59 748.194927 
L 392.86986 748.083892 
L 394.14972 748.764843 
L 395.429579 751.37411 
L 399.269159 750.812519 
L 400.549019 751.578649 
L 401.828879 750.759518 
L 403.108738 750.329835 
L 404.388598 751.204002 
L 405.668458 751.426128 
L 406.948318 751.31889 
L 408.228178 751.928083 
L 409.508038 751.165781 
L 410.787897 750.732024 
L 412.067757 748.483231 
L 413.347617 747.847367 
L 414.627477 748.413466 
L 415.907337 747.885237 
L 417.187197 748.645047 
L 418.467057 748.987304 
L 419.746916 748.789539 
L 421.026776 749.59723 
L 422.306636 749.227631 
L 423.586496 750.54624 
L 424.866356 751.263782 
L 426.146216 751.624953 
L 427.426075 750.913595 
L 428.705935 751.374224 
L 429.985795 750.537577 
L 431.265655 750.596124 
L 433.825375 749.893425 
L 435.105235 751.507652 
L 436.385094 750.911694 
L 437.664954 749.721179 
L 438.944814 750.064273 
L 440.224674 749.57569 
L 441.504534 750.4398 
L 442.784394 750.359584 
L 444.064253 750.625264 
L 445.344113 750.675989 
L 446.623973 750.224529 
L 447.903833 749.370192 
L 449.183693 750.14998 
L 450.463553 750.576093 
L 451.743413 749.391429 
L 453.023272 750.24198 
L 454.303132 750.581244 
L 455.582992 751.088378 
L 456.862852 751.913458 
L 458.142712 751.918872 
L 459.422572 752.095622 
L 460.702431 751.484089 
L 461.982291 750.729009 
L 463.262151 751.577727 
L 464.542011 748.576427 
L 465.821871 749.466271 
L 467.101731 748.728863 
L 468.38159 747.802416 
L 469.66145 748.71667 
L 470.94131 748.680046 
L 472.22117 749.060087 
L 473.50103 749.236334 
L 474.78089 748.993501 
L 476.06075 749.736377 
L 477.340609 749.498233 
L 478.620469 749.854339 
L 479.900329 750.094104 
L 481.180189 749.579746 
L 482.460049 749.99308 
L 483.739909 749.029772 
L 485.019768 748.441006 
L 486.299628 750.165782 
L 487.579488 750.978375 
L 488.859348 750.095025 
L 490.139208 750.373651 
L 492.698928 748.873681 
L 493.978787 749.503118 
L 495.258647 750.454605 
L 496.538507 752.081225 
L 497.818367 752.140152 
L 499.098227 750.38691 
L 500.378087 750.401661 
L 501.657946 750.037151 
L 502.937806 749.969976 
L 504.217666 750.442331 
L 505.497526 749.773208 
L 506.777386 750.380181 
L 508.057246 749.97812 
L 509.337105 749.729187 
L 510.616965 746.000584 
L 511.896825 747.564804 
L 514.456545 749.056658 
L 515.736405 748.755087 
L 518.296124 749.910001 
L 519.575984 750.261219 
L 520.855844 751.094125 
L 522.135704 751.738694 
L 523.415564 751.120266 
L 524.695424 750.924894 
L 525.975283 749.987626 
L 527.255143 750.711974 
L 528.535003 750.640072 
L 529.814863 751.339856 
L 531.094723 751.644906 
L 532.374583 750.81031 
L 533.654442 750.515064 
L 534.934302 751.932833 
L 536.214162 751.469661 
L 538.773882 752.731195 
L 540.053742 752.154518 
L 541.333602 752.01844 
L 542.613461 750.401241 
L 543.893321 749.504312 
L 545.173181 749.553542 
L 546.453041 750.541491 
L 547.732901 751.107045 
L 549.012761 750.482399 
L 550.29262 750.158636 
L 551.57248 750.467442 
L 552.85234 750.086476 
L 554.1322 748.742927 
L 555.41206 750.080024 
L 556.69192 748.497602 
L 557.97178 749.71216 
L 559.251639 749.941879 
L 560.531499 749.264161 
L 561.811359 749.962273 
L 563.091219 750.973945 
L 564.371079 751.493432 
L 565.650939 750.639416 
L 566.930798 751.313653 
L 568.210658 750.753274 
L 569.490518 750.55957 
L 570.770378 750.179656 
L 572.050238 749.96194 
L 573.330098 751.130804 
L 574.609957 750.816148 
L 575.889817 751.661378 
L 577.169677 751.997813 
L 578.449537 750.64117 
L 579.729397 749.778157 
L 581.009257 750.344647 
L 582.289117 751.208083 
L 583.568976 750.360383 
L 584.848836 750.49935 
L 586.128696 750.852176 
L 587.408556 751.430432 
L 588.688416 750.030056 
L 591.248135 749.526979 
L 592.527995 750.914382 
L 593.807855 751.110293 
L 595.087715 751.441077 
L 597.647435 749.97016 
L 598.927295 750.052883 
L 600.207154 749.540576 
L 601.487014 749.35631 
L 602.766874 749.891539 
L 604.046734 749.427819 
L 605.326594 749.756244 
L 606.606454 747.110438 
L 607.886313 746.707733 
L 609.166173 747.231747 
L 610.446033 746.762913 
L 611.725893 747.74124 
L 613.005753 747.778725 
L 614.285613 748.82396 
L 615.565472 749.587109 
L 616.845332 749.555754 
L 618.125192 749.212902 
L 619.405052 749.849666 
L 620.684912 750.010465 
L 621.964772 749.990742 
L 623.244632 748.780475 
L 624.524491 749.370948 
L 625.804351 749.565572 
L 627.084211 750.100443 
L 628.364071 749.627009 
L 629.643931 748.997218 
L 630.923791 749.247535 
L 632.20365 749.669849 
L 633.48351 750.6677 
L 634.76337 749.668232 
L 638.60295 751.149565 
L 639.88281 750.949589 
L 641.162669 750.506889 
L 643.722389 751.056434 
L 645.002249 750.764286 
L 646.282109 751.39577 
L 647.561969 751.251231 
L 648.841828 749.701154 
L 650.121688 748.95414 
L 651.401548 748.632978 
L 652.681408 748.910855 
L 653.961268 748.841287 
L 655.241128 750.127571 
L 656.520987 750.264951 
L 659.080707 751.212239 
L 660.360567 751.615659 
L 661.640427 751.858707 
L 662.920287 751.618977 
L 664.200147 749.044443 
L 665.480006 749.020666 
L 666.759866 748.504661 
L 668.039726 750.102296 
L 669.319586 749.657952 
L 670.599446 749.52062 
L 671.879306 749.877431 
L 673.159165 749.080516 
L 675.718885 748.539289 
L 678.278605 746.145188 
L 679.558465 746.886376 
L 680.838325 748.469564 
L 682.118184 748.229941 
L 683.398044 749.213718 
L 684.677904 748.944184 
L 685.957764 749.086271 
L 687.237624 750.140052 
L 688.517484 750.731594 
L 689.797343 750.588392 
L 691.077203 749.806619 
L 692.357063 750.901496 
L 693.636923 750.117518 
L 694.916783 749.473333 
L 696.196643 749.553726 
L 698.756362 750.852384 
L 700.036222 749.989264 
L 701.316082 750.719489 
L 702.595942 750.728989 
L 703.875802 751.452817 
L 705.155662 751.785967 
L 706.435521 751.535057 
L 708.995241 750.448621 
L 710.275101 750.215639 
L 711.554961 749.148013 
L 712.834821 748.889113 
L 714.11468 749.290655 
L 715.39454 750.30259 
L 716.6744 750.371969 
L 717.95426 751.062933 
L 719.23412 750.229675 
L 720.51398 751.524157 
L 721.79384 750.919223 
L 723.073699 749.535438 
L 724.353559 748.922545 
L 725.633419 748.984158 
L 726.913279 748.639896 
L 728.193139 749.217656 
L 729.472999 750.381334 
L 730.752858 749.720027 
L 732.032718 750.615742 
L 733.312578 749.148832 
L 734.592438 749.6847 
L 735.872298 749.653144 
L 737.152158 750.367417 
L 738.432017 749.169106 
L 739.711877 749.771015 
L 740.991737 748.807545 
L 742.271597 748.678994 
L 743.551457 749.338972 
L 744.831317 749.484265 
L 746.111177 750.480715 
L 747.391036 750.933647 
L 748.670896 750.745452 
L 749.950756 750.698604 
L 751.230616 750.887188 
L 752.510476 749.299241 
L 753.790336 749.82825 
L 755.070195 749.744124 
L 756.350055 750.404521 
L 757.629915 750.690914 
L 758.909775 751.144459 
L 760.189635 751.295272 
L 761.469495 751.01884 
L 762.749355 750.537011 
L 765.309074 750.951938 
L 766.588934 750.464411 
L 767.868794 751.137064 
L 770.428514 747.930535 
L 771.708373 749.096336 
L 772.988233 749.181436 
L 774.268093 749.392238 
L 775.547953 749.357159 
L 776.827813 748.62129 
L 778.107673 749.466031 
L 779.387532 749.47821 
L 780.667392 750.6014 
L 781.947252 749.936409 
L 783.227112 750.207037 
L 784.506972 750.031644 
L 787.066692 749.258967 
L 788.346551 749.058253 
L 789.626411 748.506553 
L 792.186131 750.188308 
L 793.465991 750.10585 
L 794.745851 749.546843 
L 796.02571 749.836614 
L 797.30557 749.059237 
L 798.58543 749.979189 
L 799.86529 750.61695 
L 801.14515 749.798551 
L 802.42501 749.460185 
L 803.70487 749.683058 
L 804.984729 749.601138 
L 806.264589 749.315228 
L 807.544449 750.196855 
L 808.824309 749.196217 
L 810.104169 749.976342 
L 811.384029 751.673199 
L 815.223608 751.200969 
L 816.503468 752.447487 
L 817.783328 751.628367 
L 819.063188 750.605827 
L 820.343047 750.333703 
L 821.622907 750.471046 
L 822.902767 750.492666 
L 825.462487 748.173698 
L 828.022207 750.323601 
L 829.302066 749.842839 
L 830.581926 750.263624 
L 831.861786 749.330499 
L 833.141646 750.199247 
L 834.421506 749.662735 
L 835.701366 749.827284 
L 836.981225 749.524858 
L 838.261085 748.974918 
L 839.540945 748.805375 
L 840.820805 750.199659 
L 842.100665 749.448906 
L 843.380525 749.48642 
L 844.660385 750.335592 
L 845.940244 751.89073 
L 848.499964 749.574076 
L 849.779824 749.410086 
L 851.059684 747.394966 
L 852.339544 747.807972 
L 853.619403 748.906928 
L 854.899263 749.444734 
L 856.179123 748.614227 
L 857.458983 747.174348 
L 858.738843 747.145039 
L 860.018703 747.899468 
L 861.298562 748.505896 
L 862.578422 749.73528 
L 863.858282 750.094797 
L 865.138142 750.826643 
L 866.418002 750.780958 
L 867.697862 750.342037 
L 868.977722 750.892889 
L 870.257581 752.113992 
L 871.537441 750.701419 
L 872.817301 750.153717 
L 874.097161 750.919276 
L 875.377021 749.963726 
L 876.656881 750.390824 
L 877.93674 749.592846 
L 879.2166 750.13101 
L 880.49646 751.115237 
L 881.77632 750.524872 
L 883.05618 751.16926 
L 884.33604 750.818665 
L 885.6159 750.155546 
L 886.895759 750.164465 
L 888.175619 751.024135 
L 889.455479 750.972722 
L 890.735339 752.35968 
L 892.015199 752.458581 
L 893.295059 751.701356 
L 894.574918 751.223039 
L 895.854778 751.094026 
L 897.134638 750.503025 
L 898.414498 750.500153 
L 899.694358 751.028684 
L 900.974218 751.880108 
L 902.254077 751.378883 
L 903.533937 751.180736 
L 907.373517 748.75207 
L 908.653377 750.271003 
L 909.933237 750.731376 
L 911.213096 748.837755 
L 912.492956 749.693878 
L 913.772816 748.933097 
L 915.052676 749.773656 
L 916.332536 749.908464 
L 918.892255 749.670891 
L 920.172115 750.00713 
L 921.451975 749.160572 
L 922.731835 748.827929 
L 924.011695 749.001244 
L 925.291555 749.967318 
L 926.571415 749.891823 
L 927.851274 750.050093 
L 929.131134 749.73549 
L 930.410994 750.18618 
L 932.970714 750.233398 
L 935.530433 749.8164 
L 936.810293 751.19814 
L 938.090153 751.469759 
L 939.370013 750.127407 
L 941.929733 750.274658 
L 943.209592 749.920902 
L 944.489452 749.33076 
L 945.769312 749.291741 
L 947.049172 749.705954 
L 948.329032 749.585588 
L 949.608892 749.877662 
L 950.888752 750.332834 
L 952.168611 751.259597 
L 953.448471 751.802954 
L 954.728331 751.336435 
L 956.008191 748.92848 
L 957.288051 749.386628 
L 958.567911 750.218083 
L 961.12763 751.027221 
L 962.40749 750.668704 
L 963.68735 749.917996 
L 964.96721 749.739011 
L 966.24707 749.808973 
L 967.52693 749.307403 
L 968.806789 749.842144 
L 970.086649 750.499727 
L 971.366509 750.210127 
L 972.646369 749.291117 
L 973.926229 749.442795 
L 975.206089 748.993655 
L 976.485948 749.531594 
L 977.765808 749.063084 
L 979.045668 748.971904 
L 980.325528 750.178182 
L 982.885248 750.303238 
L 984.165107 749.245846 
L 985.444967 748.9508 
L 986.724827 748.251007 
L 989.284547 748.35522 
L 990.564407 749.246439 
L 991.844267 749.51832 
L 993.124126 749.524729 
L 995.683846 749.84463 
L 996.963706 750.542141 
L 998.243566 750.22704 
L 999.523426 751.364167 
L 1000.803285 751.670019 
L 1002.083145 751.45992 
L 1004.642865 750.415841 
L 1005.922725 750.626001 
L 1007.202585 751.741412 
L 1008.482445 751.044932 
L 1009.762304 751.983618 
L 1011.042164 751.478032 
L 1012.322024 751.997048 
L 1013.601884 749.134584 
L 1014.881744 749.006487 
L 1016.161604 746.974558 
L 1017.441463 747.911328 
L 1021.281043 748.369291 
L 1022.560903 748.417872 
L 1023.840763 748.813453 
L 1025.120623 750.011466 
L 1026.400482 750.583519 
L 1027.680342 750.483524 
L 1028.960202 749.845368 
L 1030.240062 748.857746 
L 1031.519922 749.769179 
L 1032.799782 750.123063 
L 1034.079641 749.764974 
L 1036.639361 751.220545 
L 1037.919221 751.491181 
L 1039.199081 750.509055 
L 1040.478941 750.713124 
L 1041.7588 749.700815 
L 1043.03866 749.410579 
L 1044.31852 749.750763 
L 1045.59838 749.106684 
L 1046.87824 750.14144 
L 1049.43796 748.461087 
L 1050.717819 743.55428 
L 1053.277539 745.438895 
L 1054.557399 746.713893 
L 1055.837259 746.756323 
L 1057.117119 748.040586 
L 1058.396978 748.661609 
L 1059.676838 748.52219 
L 1060.956698 748.586749 
L 1062.236558 747.957575 
L 1063.516418 747.754107 
L 1066.076137 748.164687 
L 1068.635857 749.028244 
L 1069.915717 748.346093 
L 1071.195577 749.129064 
L 1072.475437 748.72884 
L 1073.755297 748.742437 
L 1075.035156 748.07832 
L 1076.315016 748.338609 
L 1077.594876 749.500351 
L 1078.874736 749.858517 
L 1080.154596 748.220771 
L 1081.434456 748.137752 
L 1082.714315 748.203104 
L 1083.994175 747.367783 
L 1085.274035 748.39107 
L 1086.553895 748.76486 
L 1087.833755 749.873061 
L 1089.113615 751.619712 
L 1090.393475 750.707537 
L 1091.673334 750.26452 
L 1092.953194 750.443656 
L 1094.233054 750.327491 
L 1095.512914 750.526876 
L 1096.792774 750.410429 
L 1098.072634 750.139521 
L 1099.352493 750.937976 
L 1100.632353 749.955703 
L 1101.912213 749.618106 
L 1103.192073 749.515784 
L 1104.471933 749.736644 
L 1105.751793 749.726461 
L 1107.031653 749.980041 
L 1108.311512 749.108431 
L 1109.591372 749.359587 
L 1110.871232 749.821112 
L 1112.151092 749.636532 
L 1113.430952 749.730824 
L 1114.710812 751.704096 
L 1115.990671 751.552491 
L 1117.270531 751.853036 
L 1118.550391 751.72087 
L 1119.830251 752.273142 
L 1121.110111 752.004988 
L 1122.389971 752.395326 
L 1123.66983 751.612682 
L 1124.94969 750.614555 
L 1126.22955 751.329791 
L 1127.50941 751.437046 
L 1128.78927 751.231511 
L 1130.06913 752.535296 
L 1131.34899 752.876281 
L 1133.908709 751.993147 
L 1135.188569 752.170488 
L 1136.468429 749.256419 
L 1137.748289 748.31381 
L 1139.028149 748.361727 
L 1140.308008 749.485248 
L 1141.587868 749.514135 
L 1142.867728 747.080905 
L 1144.147588 747.292468 
L 1145.427448 747.682262 
L 1146.707308 747.376122 
L 1147.987167 748.330727 
L 1149.267027 749.011336 
L 1150.546887 748.484158 
L 1151.826747 748.21787 
L 1153.106607 748.148049 
L 1154.386467 748.586103 
L 1155.666327 749.340836 
L 1156.946186 749.479658 
L 1158.226046 750.072297 
L 1159.505906 749.855297 
L 1160.785766 750.145023 
L 1163.345486 750.131101 
L 1164.625345 749.909177 
L 1165.905205 749.897771 
L 1167.185065 749.760921 
L 1168.464925 750.108768 
L 1169.744785 751.253988 
L 1171.024645 751.128711 
L 1172.304505 751.321342 
L 1173.584364 749.455256 
L 1174.864224 749.169329 
L 1176.144084 749.034554 
L 1177.423944 749.417179 
L 1178.703804 749.104449 
L 1179.983664 748.380982 
L 1182.543383 749.660582 
L 1183.823243 751.307779 
L 1185.103103 750.743748 
L 1186.382963 751.525513 
L 1187.662823 752.685601 
L 1188.942683 750.359681 
L 1190.222542 750.236086 
L 1191.502402 749.92453 
L 1192.782262 749.326569 
L 1194.062122 749.8639 
L 1195.341982 750.119883 
L 1196.621842 748.181628 
L 1197.901701 748.784025 
L 1199.181561 747.991442 
L 1200.461421 748.127493 
L 1201.741281 748.129963 
L 1203.021141 748.578264 
L 1204.301001 748.270791 
L 1205.58086 749.259128 
L 1208.14058 749.985415 
L 1209.42044 749.671278 
L 1210.7003 750.82591 
L 1211.98016 751.525832 
L 1213.26002 750.55593 
L 1214.539879 750.97016 
L 1215.819739 751.529819 
L 1218.379459 750.125909 
L 1219.659319 750.27619 
L 1220.939179 750.637325 
L 1222.219038 750.863093 
L 1224.778758 750.224533 
L 1226.058618 749.315036 
L 1227.338478 749.867367 
L 1228.618338 748.831643 
L 1229.898197 748.350759 
L 1231.178057 749.117203 
L 1232.457917 749.46933 
L 1233.737777 750.466209 
L 1236.297497 749.782651 
L 1237.577357 749.727328 
L 1238.857216 749.546053 
L 1240.137076 749.51276 
L 1241.416936 749.622094 
L 1242.696796 748.376041 
L 1243.976656 748.647335 
L 1245.256516 750.022384 
L 1246.536375 750.441757 
L 1247.816235 750.33132 
L 1249.096095 751.024509 
L 1250.375955 749.971391 
L 1251.655815 749.364968 
L 1254.215535 749.24063 
L 1255.495394 748.434424 
L 1256.775254 749.620506 
L 1258.055114 749.833367 
L 1259.334974 750.98232 
L 1260.614834 751.255189 
L 1261.894694 750.314018 
L 1264.454413 749.702187 
L 1265.734273 748.272413 
L 1267.014133 749.109807 
L 1268.293993 750.64506 
L 1269.573853 750.512345 
L 1270.853713 750.25365 
L 1272.133572 749.828812 
L 1273.413432 749.817601 
L 1274.693292 750.188926 
L 1275.973152 750.888346 
L 1277.253012 750.309147 
L 1278.532872 751.360267 
L 1279.812731 751.766676 
L 1282.372451 752.196244 
L 1283.652311 752.055358 
L 1284.932171 751.537611 
L 1286.212031 750.770807 
L 1287.49189 750.600767 
L 1288.77175 751.076925 
L 1290.05161 748.784102 
L 1291.33147 749.431504 
L 1292.61133 749.83092 
L 1293.89119 749.765534 
L 1295.17105 750.906665 
L 1296.450909 751.685157 
L 1297.730769 752.782082 
L 1299.010629 752.266171 
L 1300.290489 751.525687 
L 1302.850209 749.768903 
L 1305.409928 749.469718 
L 1307.969648 748.608783 
L 1309.249508 750.203131 
L 1310.529368 750.787865 
L 1311.809228 750.522734 
L 1313.089087 749.953712 
L 1314.368947 750.558876 
L 1315.648807 751.571603 
L 1316.928667 752.198912 
L 1318.208527 752.426427 
L 1319.488387 752.23687 
L 1320.768246 749.749354 
L 1322.048106 749.276499 
L 1323.327966 748.624219 
L 1324.607826 748.181932 
L 1325.887686 749.417488 
L 1327.167546 749.399712 
L 1328.447405 750.234911 
L 1329.727265 748.929737 
L 1331.007125 748.719142 
L 1332.286985 749.223561 
L 1333.566845 747.236563 
L 1336.126565 749.411042 
L 1338.686284 748.904098 
L 1339.966144 750.734319 
L 1341.246004 751.386723 
L 1342.525864 750.873078 
L 1343.805724 749.539162 
L 1345.085583 749.232188 
L 1346.365443 750.184892 
L 1347.645303 749.912883 
L 1348.925163 750.344721 
L 1350.205023 750.615236 
L 1351.484883 750.190914 
L 1352.764743 750.893266 
L 1354.044602 750.707561 
L 1355.324462 750.100174 
L 1356.604322 750.568246 
L 1357.884182 751.56242 
L 1359.164042 751.350311 
L 1360.443902 750.74664 
L 1361.723761 750.697301 
L 1363.003621 751.570285 
L 1364.283481 749.965538 
L 1365.563341 748.174635 
L 1366.843201 748.982595 
L 1368.123061 749.315281 
L 1369.40292 748.383107 
L 1370.68278 749.284596 
L 1371.96264 749.293733 
L 1371.96264 749.293733 
" style="fill:none;stroke:#0000ff;stroke-linecap:square;stroke-width:2.0;"/>
   </g>
   <g id="line2d_2">
    <path clip-path="url(#p850a0840ff)" d="M 93.382656 125.766515 
L 97.222236 133.600863 
L 98.502096 137.142248 
L 99.781955 139.625195 
L 102.341675 143.704008 
L 103.621535 145.55841 
L 104.901395 149.209368 
L 106.181255 152.163242 
L 107.461115 154.305756 
L 108.740974 156.869388 
L 110.020834 159.837075 
L 111.300694 162.226781 
L 113.860414 165.646456 
L 115.140274 168.265916 
L 116.420133 170.564112 
L 118.979853 176.751856 
L 120.259713 179.303484 
L 121.539573 180.991262 
L 122.819433 183.093111 
L 125.379152 188.691385 
L 127.938872 192.652282 
L 129.218732 195.261307 
L 130.498592 197.281552 
L 131.778452 200.360076 
L 133.058311 203.847765 
L 134.338171 206.551713 
L 135.618031 209.697674 
L 136.897891 212.163944 
L 138.177751 213.649438 
L 139.457611 216.249586 
L 140.73747 219.357052 
L 142.01733 222.055715 
L 143.29719 226.167124 
L 144.57705 228.8601 
L 147.13677 232.753425 
L 149.696489 239.763549 
L 150.976349 242.728649 
L 152.256209 245.39584 
L 153.536069 246.913513 
L 156.095789 252.163976 
L 157.375648 255.094145 
L 158.655508 257.193576 
L 161.215228 263.9753 
L 162.495088 266.111125 
L 163.774948 267.866635 
L 165.054808 271.204282 
L 166.334667 275.251898 
L 167.614527 276.663579 
L 168.894387 279.495231 
L 170.174247 283.142134 
L 172.733967 287.941052 
L 174.013826 290.321945 
L 176.573546 296.82617 
L 177.853406 299.512824 
L 179.133266 301.385263 
L 180.413126 302.809369 
L 182.972845 309.056749 
L 189.372145 323.749569 
L 190.652004 326.621039 
L 193.211724 331.918115 
L 194.491584 333.678769 
L 195.771444 338.018266 
L 197.051304 341.515828 
L 198.331163 343.821177 
L 199.611023 343.768261 
L 200.890883 346.279818 
L 202.170743 348.463669 
L 204.730463 351.949408 
L 206.010323 354.594385 
L 207.290182 356.773925 
L 208.570042 360.024344 
L 209.849902 362.487254 
L 211.129762 364.565627 
L 213.689482 371.060822 
L 214.969341 373.513269 
L 216.249201 375.568649 
L 217.529061 376.433421 
L 218.808921 377.917293 
L 220.088781 378.830444 
L 221.368641 379.462325 
L 222.6485 381.141097 
L 223.92836 383.071487 
L 225.20822 386.176408 
L 226.48808 388.364266 
L 227.76794 391.597465 
L 230.32766 397.240132 
L 231.607519 400.550297 
L 232.887379 403.491114 
L 234.167239 405.311391 
L 235.447099 407.37241 
L 236.726959 410.293283 
L 238.006819 412.690556 
L 239.286678 415.553478 
L 240.566538 419.553058 
L 241.846398 422.358428 
L 243.126258 425.545833 
L 244.406118 427.896482 
L 245.685978 430.772205 
L 246.965838 433.059119 
L 248.245697 436.516199 
L 250.805417 441.566351 
L 252.085277 443.711383 
L 253.365137 445.388893 
L 254.644997 447.382066 
L 255.924856 451.244834 
L 257.204716 453.611359 
L 258.484576 456.572561 
L 259.764436 460.330765 
L 261.044296 461.955437 
L 262.324156 464.244599 
L 263.604015 465.856605 
L 264.883875 468.988471 
L 267.443595 473.80854 
L 268.723455 476.64988 
L 270.003315 478.952782 
L 271.283175 480.11445 
L 272.563034 482.693233 
L 273.842894 485.021031 
L 275.122754 487.053706 
L 276.402614 489.8203 
L 277.682474 491.522333 
L 278.962334 493.872732 
L 280.242193 497.166047 
L 281.522053 499.529177 
L 282.801913 502.293708 
L 284.081773 505.66074 
L 285.361633 508.646236 
L 286.641493 512.387003 
L 287.921353 513.764677 
L 289.201212 517.171151 
L 290.481072 520.187888 
L 294.320652 527.109597 
L 296.880371 531.551791 
L 300.719951 539.09763 
L 301.999811 541.283535 
L 305.83939 550.054606 
L 307.11925 553.826575 
L 309.67897 558.85371 
L 310.95883 562.0288 
L 317.358129 576.079572 
L 318.637989 578.689064 
L 319.917849 580.709764 
L 321.197708 583.687253 
L 322.477568 587.00012 
L 323.757428 588.524072 
L 325.037288 591.695978 
L 326.317148 595.546784 
L 327.597008 598.10486 
L 328.876868 601.584296 
L 331.436587 607.675031 
L 332.716447 611.142921 
L 333.996307 613.761737 
L 335.276167 615.764294 
L 336.556027 618.387757 
L 340.395606 628.170672 
L 342.955326 633.309287 
L 344.235186 636.278629 
L 345.515045 637.930735 
L 349.354625 646.828826 
L 350.634485 649.457016 
L 351.914345 650.423202 
L 354.474064 656.403415 
L 355.753924 658.433734 
L 358.313644 664.276658 
L 360.873364 671.975976 
L 362.153223 674.049573 
L 363.433083 677.908045 
L 364.712943 680.171455 
L 365.992803 682.752421 
L 367.272663 684.976544 
L 368.552523 688.600525 
L 369.832382 691.02292 
L 371.112242 692.327149 
L 372.392102 694.02714 
L 373.671962 696.807476 
L 374.951822 700.781469 
L 377.511542 705.35729 
L 380.071261 709.244298 
L 382.630981 717.070526 
L 383.910841 719.879813 
L 386.47056 723.947894 
L 387.75042 726.445251 
L 389.03028 729.784041 
L 390.31014 732.141793 
L 392.86986 736.216055 
L 394.14972 738.989808 
L 395.429579 740.749617 
L 396.709439 742.006433 
L 397.989299 743.718236 
L 399.269159 745.156524 
L 400.549019 746.021845 
L 401.828879 745.193878 
L 403.108738 745.806854 
L 404.388598 746.69454 
L 405.668458 746.831074 
L 406.948318 747.668693 
L 408.228178 748.306413 
L 409.508038 749.720791 
L 410.787897 750.210944 
L 412.067757 749.949059 
L 413.347617 749.895373 
L 414.627477 748.554904 
L 415.907337 750.304227 
L 417.187197 749.717648 
L 418.467057 750.61047 
L 419.746916 750.272731 
L 421.026776 750.702344 
L 422.306636 750.518078 
L 423.586496 750.693969 
L 424.866356 751.555109 
L 426.146216 750.464333 
L 427.426075 750.437586 
L 428.705935 750.598772 
L 429.985795 750.35471 
L 431.265655 750.256813 
L 433.825375 749.803889 
L 435.105235 749.585302 
L 436.385094 748.676368 
L 437.664954 748.300255 
L 438.944814 748.512557 
L 440.224674 749.107905 
L 441.504534 749.896678 
L 442.784394 750.021549 
L 444.064253 747.031934 
L 445.344113 746.313414 
L 446.623973 747.436915 
L 447.903833 749.240269 
L 449.183693 749.544514 
L 450.463553 748.617935 
L 451.743413 748.750484 
L 453.023272 748.477194 
L 454.303132 749.14215 
L 459.422572 749.136493 
L 460.702431 749.973005 
L 461.982291 749.852512 
L 463.262151 749.988877 
L 464.542011 750.870805 
L 465.821871 750.786568 
L 468.38159 751.210191 
L 469.66145 751.74489 
L 470.94131 751.291704 
L 472.22117 751.774256 
L 473.50103 751.036366 
L 474.78089 750.731616 
L 476.06075 751.012599 
L 477.340609 751.865523 
L 479.900329 749.670647 
L 481.180189 750.543625 
L 482.460049 750.172016 
L 483.739909 751.372434 
L 485.019768 750.391087 
L 486.299628 750.469637 
L 487.579488 750.827845 
L 488.859348 750.669635 
L 490.139208 751.103056 
L 492.698928 750.483864 
L 493.978787 749.816716 
L 495.258647 750.404657 
L 496.538507 751.295585 
L 497.818367 749.661859 
L 499.098227 749.945513 
L 500.378087 748.173132 
L 501.657946 747.547195 
L 502.937806 747.88335 
L 504.217666 749.142965 
L 508.057246 749.651645 
L 509.337105 749.184321 
L 510.616965 749.38998 
L 511.896825 750.09398 
L 513.176685 751.000556 
L 514.456545 748.74123 
L 515.736405 748.791431 
L 517.016265 747.25372 
L 519.575984 746.146512 
L 520.855844 747.054089 
L 522.135704 748.153294 
L 523.415564 748.859796 
L 524.695424 748.376473 
L 525.975283 749.428923 
L 527.255143 749.540473 
L 528.535003 748.09985 
L 529.814863 748.193776 
L 531.094723 749.725373 
L 532.374583 749.892637 
L 533.654442 749.200947 
L 534.934302 748.349622 
L 536.214162 748.039937 
L 537.494022 748.414221 
L 538.773882 748.511575 
L 540.053742 748.009125 
L 541.333602 749.170525 
L 542.613461 747.837746 
L 543.893321 747.82656 
L 545.173181 748.99153 
L 546.453041 748.712194 
L 547.732901 749.809046 
L 549.012761 750.09215 
L 550.29262 748.823437 
L 551.57248 748.650433 
L 552.85234 749.317843 
L 554.1322 750.170391 
L 555.41206 749.61395 
L 556.69192 749.65219 
L 557.97178 750.010074 
L 559.251639 749.408253 
L 560.531499 749.830133 
L 563.091219 749.108976 
L 564.371079 749.795632 
L 565.650939 750.072269 
L 566.930798 750.170233 
L 568.210658 750.422771 
L 569.490518 750.113415 
L 570.770378 749.63869 
L 573.330098 750.339335 
L 574.609957 750.590987 
L 575.889817 750.638295 
L 577.169677 750.536206 
L 578.449537 749.350043 
L 579.729397 749.207643 
L 582.289117 749.779087 
L 583.568976 748.759436 
L 584.848836 749.876326 
L 586.128696 750.351413 
L 587.408556 751.143917 
L 588.688416 750.563125 
L 589.968276 750.382126 
L 591.248135 750.620783 
L 592.527995 750.627498 
L 595.087715 748.849441 
L 596.367575 747.713037 
L 597.647435 748.924746 
L 598.927295 749.042971 
L 600.207154 749.354039 
L 601.487014 750.240844 
L 602.766874 750.893417 
L 604.046734 752.033227 
L 605.326594 751.706624 
L 606.606454 751.934853 
L 607.886313 750.510315 
L 609.166173 751.255409 
L 610.446033 749.638623 
L 611.725893 749.495859 
L 614.285613 750.496919 
L 615.565472 750.210059 
L 616.845332 750.652128 
L 618.125192 751.382958 
L 619.405052 750.380222 
L 620.684912 750.449979 
L 623.244632 751.283248 
L 625.804351 752.8472 
L 627.084211 751.059475 
L 628.364071 750.931705 
L 629.643931 750.304979 
L 632.20365 751.521118 
L 633.48351 749.84869 
L 634.76337 750.16253 
L 636.04323 749.152051 
L 637.32309 749.082114 
L 641.162669 748.180715 
L 642.442529 749.988301 
L 643.722389 749.294177 
L 645.002249 749.784622 
L 646.282109 750.581423 
L 647.561969 749.510322 
L 648.841828 749.718635 
L 650.121688 749.558867 
L 651.401548 750.348433 
L 652.681408 750.35251 
L 653.961268 749.930992 
L 655.241128 750.270403 
L 656.520987 749.310278 
L 657.800847 750.426847 
L 659.080707 750.598923 
L 660.360567 750.379007 
L 661.640427 750.83374 
L 662.920287 749.848194 
L 664.200147 749.37336 
L 665.480006 749.770185 
L 666.759866 748.687059 
L 669.319586 751.42484 
L 671.879306 751.902548 
L 673.159165 752.160756 
L 674.439025 752.128815 
L 675.718885 751.692902 
L 676.998745 750.059846 
L 678.278605 750.721403 
L 679.558465 749.85717 
L 680.838325 749.329588 
L 682.118184 750.138983 
L 684.677904 750.241135 
L 685.957764 749.821983 
L 687.237624 750.477173 
L 688.517484 749.797154 
L 689.797343 750.319902 
L 691.077203 749.821932 
L 692.357063 749.794259 
L 693.636923 749.379846 
L 694.916783 750.314924 
L 697.476502 750.362864 
L 700.036222 749.364034 
L 701.316082 748.426813 
L 702.595942 747.238652 
L 703.875802 748.004568 
L 705.155662 747.287485 
L 706.435521 748.055975 
L 707.715381 748.433989 
L 708.995241 748.563781 
L 710.275101 748.334104 
L 711.554961 748.641399 
L 712.834821 749.260015 
L 714.11468 750.455373 
L 715.39454 750.734988 
L 716.6744 750.344242 
L 717.95426 750.342963 
L 719.23412 749.440141 
L 720.51398 749.861075 
L 721.79384 749.338576 
L 723.073699 748.20923 
L 724.353559 748.303346 
L 725.633419 748.068104 
L 726.913279 748.474365 
L 728.193139 747.859793 
L 729.472999 748.898998 
L 730.752858 747.366766 
L 732.032718 747.240856 
L 733.312578 747.318724 
L 734.592438 748.976456 
L 735.872298 748.809212 
L 737.152158 748.280969 
L 738.432017 749.402629 
L 739.711877 749.213831 
L 740.991737 749.566983 
L 742.271597 751.153164 
L 743.551457 751.133805 
L 744.831317 751.612635 
L 746.111177 749.863689 
L 747.391036 750.52589 
L 748.670896 750.749131 
L 749.950756 751.484876 
L 752.510476 750.336344 
L 755.070195 749.348217 
L 756.350055 750.382122 
L 757.629915 750.298874 
L 758.909775 748.548167 
L 760.189635 748.881534 
L 761.469495 749.69409 
L 762.749355 748.671661 
L 764.029214 749.763298 
L 765.309074 749.220849 
L 766.588934 750.140937 
L 767.868794 750.198927 
L 770.428514 751.072257 
L 771.708373 751.21848 
L 772.988233 750.215214 
L 774.268093 750.026296 
L 775.547953 751.124426 
L 776.827813 751.957213 
L 778.107673 752.439413 
L 780.667392 750.634519 
L 781.947252 750.243698 
L 783.227112 750.670373 
L 784.506972 751.478693 
L 785.786832 751.393391 
L 787.066692 751.449384 
L 788.346551 751.262638 
L 789.626411 751.228276 
L 790.906271 751.369669 
L 792.186131 750.637405 
L 793.465991 749.578189 
L 794.745851 749.697034 
L 796.02571 749.295283 
L 797.30557 749.174165 
L 798.58543 750.153457 
L 799.86529 750.332885 
L 801.14515 751.443472 
L 802.42501 752.272606 
L 803.70487 752.195043 
L 804.984729 752.280976 
L 806.264589 748.024684 
L 807.544449 748.552887 
L 808.824309 749.375854 
L 810.104169 748.417308 
L 811.384029 747.744811 
L 812.663888 747.552318 
L 813.943748 747.62138 
L 815.223608 746.821192 
L 816.503468 747.656061 
L 817.783328 748.913834 
L 819.063188 749.395723 
L 820.343047 749.530552 
L 821.622907 749.219695 
L 822.902767 749.912631 
L 825.462487 750.062542 
L 826.742347 750.36819 
L 828.022207 750.21922 
L 829.302066 750.233204 
L 830.581926 749.234103 
L 831.861786 749.373917 
L 833.141646 746.963395 
L 834.421506 747.350767 
L 836.981225 751.430649 
L 838.261085 751.905376 
L 839.540945 751.895939 
L 840.820805 750.884618 
L 842.100665 750.070638 
L 843.380525 750.020452 
L 844.660385 750.198638 
L 845.940244 750.738689 
L 847.220104 749.754139 
L 848.499964 751.502014 
L 849.779824 750.682874 
L 851.059684 749.318697 
L 852.339544 750.563633 
L 853.619403 749.019126 
L 854.899263 748.964674 
L 856.179123 749.718083 
L 858.738843 750.771422 
L 860.018703 750.250089 
L 861.298562 750.244889 
L 862.578422 749.680332 
L 865.138142 752.182628 
L 866.418002 751.83949 
L 867.697862 752.125774 
L 868.977722 752.575713 
L 870.257581 751.573203 
L 871.537441 751.795086 
L 872.817301 750.957458 
L 874.097161 750.675718 
L 875.377021 749.682529 
L 876.656881 749.447089 
L 877.93674 749.067637 
L 879.2166 749.06615 
L 880.49646 750.818985 
L 881.77632 750.476433 
L 883.05618 750.887825 
L 884.33604 752.690304 
L 886.895759 750.716144 
L 888.175619 751.185182 
L 889.455479 750.202759 
L 890.735339 748.848513 
L 894.574918 751.992998 
L 895.854778 750.694867 
L 897.134638 751.118577 
L 898.414498 751.333383 
L 899.694358 751.078298 
L 900.974218 749.26679 
L 903.533937 749.45737 
L 907.373517 748.086683 
L 908.653377 749.747762 
L 909.933237 749.562475 
L 911.213096 749.849104 
L 912.492956 750.855225 
L 913.772816 751.498603 
L 915.052676 750.723318 
L 917.612396 749.962966 
L 918.892255 750.24673 
L 920.172115 749.252407 
L 921.451975 749.396407 
L 922.731835 748.839901 
L 924.011695 749.067106 
L 925.291555 749.083321 
L 926.571415 749.858435 
L 927.851274 749.069206 
L 929.131134 750.427425 
L 930.410994 749.760707 
L 931.690854 751.444858 
L 934.250574 750.464176 
L 935.530433 748.904265 
L 938.090153 750.457771 
L 939.370013 749.945933 
L 941.929733 749.938371 
L 944.489452 748.900397 
L 945.769312 749.381974 
L 948.329032 750.174121 
L 949.608892 750.638688 
L 950.888752 750.140233 
L 952.168611 750.466542 
L 953.448471 749.489682 
L 954.728331 749.914471 
L 956.008191 749.788447 
L 957.288051 750.349941 
L 958.567911 749.313127 
L 959.84777 749.504417 
L 961.12763 748.64673 
L 962.40749 748.828057 
L 963.68735 748.49811 
L 964.96721 749.20395 
L 966.24707 747.716677 
L 967.52693 747.865418 
L 968.806789 748.812048 
L 970.086649 747.743677 
L 971.366509 748.388614 
L 972.646369 748.811003 
L 973.926229 747.744175 
L 975.206089 748.903399 
L 976.485948 748.269221 
L 977.765808 747.936361 
L 979.045668 748.979318 
L 980.325528 748.778482 
L 981.605388 749.732782 
L 984.165107 748.988785 
L 985.444967 748.826968 
L 988.004687 750.822171 
L 989.284547 749.365788 
L 990.564407 750.233806 
L 991.844267 749.791249 
L 993.124126 750.829026 
L 994.403986 750.584472 
L 995.683846 751.625611 
L 996.963706 750.789969 
L 998.243566 750.620578 
L 999.523426 750.997815 
L 1000.803285 751.105779 
L 1002.083145 750.535625 
L 1003.363005 749.73098 
L 1004.642865 751.02634 
L 1005.922725 750.814057 
L 1007.202585 750.891715 
L 1008.482445 749.707142 
L 1009.762304 750.266516 
L 1011.042164 750.385841 
L 1012.322024 750.951416 
L 1013.601884 752.47391 
L 1014.881744 751.374093 
L 1016.161604 750.771111 
L 1017.441463 751.885998 
L 1020.001183 752.570984 
L 1021.281043 751.474476 
L 1022.560903 751.134496 
L 1023.840763 751.595658 
L 1025.120623 751.083841 
L 1026.400482 751.51687 
L 1027.680342 749.793925 
L 1028.960202 748.64616 
L 1030.240062 749.881193 
L 1031.519922 749.785723 
L 1032.799782 750.347871 
L 1034.079641 751.563543 
L 1035.359501 750.770167 
L 1036.639361 750.656901 
L 1037.919221 751.003005 
L 1039.199081 750.55549 
L 1040.478941 749.946384 
L 1041.7588 748.801082 
L 1043.03866 749.577672 
L 1044.31852 748.965309 
L 1045.59838 749.134447 
L 1046.87824 750.768339 
L 1048.1581 751.655864 
L 1049.43796 751.45978 
L 1050.717819 750.799 
L 1051.997679 750.976747 
L 1053.277539 750.310001 
L 1057.117119 749.958489 
L 1058.396978 748.766857 
L 1059.676838 748.214748 
L 1060.956698 746.620582 
L 1063.516418 747.953415 
L 1064.796278 748.847771 
L 1066.076137 749.205409 
L 1067.355997 748.360408 
L 1068.635857 749.267861 
L 1069.915717 748.952393 
L 1071.195577 748.894501 
L 1072.475437 749.977557 
L 1073.755297 749.984391 
L 1075.035156 749.164097 
L 1076.315016 750.468568 
L 1077.594876 750.335449 
L 1078.874736 749.907942 
L 1080.154596 749.977918 
L 1081.434456 750.504155 
L 1082.714315 749.544173 
L 1083.994175 750.401702 
L 1085.274035 749.696455 
L 1086.553895 749.635022 
L 1087.833755 748.932684 
L 1089.113615 748.585785 
L 1090.393475 747.462884 
L 1091.673334 748.43053 
L 1092.953194 749.54837 
L 1094.233054 749.736099 
L 1095.512914 749.418426 
L 1096.792774 750.121921 
L 1098.072634 750.489022 
L 1099.352493 749.538239 
L 1100.632353 749.173051 
L 1101.912213 750.15295 
L 1103.192073 750.645331 
L 1104.471933 750.71311 
L 1105.751793 751.146031 
L 1107.031653 750.99963 
L 1109.591372 751.556641 
L 1110.871232 751.767712 
L 1112.151092 750.532018 
L 1113.430952 751.309375 
L 1114.710812 750.616744 
L 1115.990671 750.449373 
L 1117.270531 749.799353 
L 1118.550391 750.578895 
L 1119.830251 751.213211 
L 1121.110111 751.218006 
L 1122.389971 750.52286 
L 1123.66983 751.005135 
L 1124.94969 750.779612 
L 1126.22955 750.304533 
L 1127.50941 750.790288 
L 1130.06913 750.601131 
L 1131.34899 749.996775 
L 1132.628849 750.02047 
L 1133.908709 749.560318 
L 1135.188569 749.679325 
L 1136.468429 750.510711 
L 1137.748289 749.787668 
L 1139.028149 750.942047 
L 1140.308008 750.610554 
L 1141.587868 751.111412 
L 1144.147588 750.566317 
L 1146.707308 749.379004 
L 1147.987167 749.25812 
L 1149.267027 748.472864 
L 1151.826747 748.439144 
L 1153.106607 748.59432 
L 1154.386467 749.149992 
L 1155.666327 749.572276 
L 1156.946186 751.743159 
L 1158.226046 750.332228 
L 1159.505906 750.37873 
L 1160.785766 750.749462 
L 1162.065626 751.581579 
L 1163.345486 747.52524 
L 1164.625345 748.622559 
L 1165.905205 748.953546 
L 1167.185065 749.891967 
L 1168.464925 749.83163 
L 1169.744785 749.078043 
L 1171.024645 749.041632 
L 1172.304505 750.502879 
L 1173.584364 750.307719 
L 1174.864224 750.833592 
L 1176.144084 750.566383 
L 1177.423944 750.040457 
L 1178.703804 749.722598 
L 1179.983664 748.609093 
L 1181.263523 749.701803 
L 1182.543383 748.611771 
L 1183.823243 748.928683 
L 1186.382963 747.589133 
L 1187.662823 748.38481 
L 1188.942683 748.952667 
L 1190.222542 748.086533 
L 1191.502402 748.729733 
L 1192.782262 749.241607 
L 1194.062122 748.423253 
L 1195.341982 748.105829 
L 1196.621842 749.410526 
L 1197.901701 750.187501 
L 1199.181561 750.509844 
L 1200.461421 751.353425 
L 1201.741281 751.792153 
L 1203.021141 750.972947 
L 1204.301001 750.96597 
L 1205.58086 749.917186 
L 1206.86072 750.103384 
L 1208.14058 750.63061 
L 1209.42044 750.606383 
L 1210.7003 750.253164 
L 1211.98016 750.786365 
L 1213.26002 751.148436 
L 1214.539879 747.329904 
L 1215.819739 747.539354 
L 1217.099599 748.737147 
L 1218.379459 748.232082 
L 1219.659319 748.724944 
L 1220.939179 747.934339 
L 1222.219038 749.923185 
L 1223.498898 749.345528 
L 1224.778758 749.591416 
L 1226.058618 750.379059 
L 1228.618338 749.763212 
L 1229.898197 750.953361 
L 1231.178057 750.920632 
L 1232.457917 752.457705 
L 1233.737777 750.484171 
L 1235.017637 750.869724 
L 1236.297497 750.496112 
L 1237.577357 748.683041 
L 1238.857216 748.790725 
L 1240.137076 750.493823 
L 1241.416936 750.214334 
L 1242.696796 748.789999 
L 1245.256516 749.670094 
L 1246.536375 748.828046 
L 1247.816235 749.928087 
L 1249.096095 749.799317 
L 1250.375955 749.791621 
L 1251.655815 750.779352 
L 1252.935675 750.516399 
L 1254.215535 749.392142 
L 1255.495394 748.736892 
L 1256.775254 749.49652 
L 1258.055114 750.579554 
L 1260.614834 749.418471 
L 1261.894694 749.678255 
L 1263.174553 749.210721 
L 1264.454413 749.680402 
L 1265.734273 749.842915 
L 1267.014133 751.067248 
L 1268.293993 750.612495 
L 1270.853713 751.342183 
L 1272.133572 751.349114 
L 1273.413432 751.897181 
L 1274.693292 752.010463 
L 1275.973152 750.801098 
L 1277.253012 751.024604 
L 1279.812731 749.92617 
L 1281.092591 750.320826 
L 1282.372451 749.107101 
L 1283.652311 750.839045 
L 1284.932171 750.362409 
L 1286.212031 751.22582 
L 1288.77175 750.990536 
L 1290.05161 751.677324 
L 1291.33147 750.811238 
L 1292.61133 751.680937 
L 1293.89119 752.721987 
L 1295.17105 751.871253 
L 1296.450909 751.616648 
L 1297.730769 751.695404 
L 1299.010629 750.68999 
L 1300.290489 750.669316 
L 1301.570349 748.596223 
L 1302.850209 750.175959 
L 1304.130068 749.761572 
L 1305.409928 748.688418 
L 1306.689788 749.042441 
L 1307.969648 750.058827 
L 1309.249508 749.715532 
L 1310.529368 748.796428 
L 1311.809228 748.580385 
L 1313.089087 749.724809 
L 1314.368947 751.330401 
L 1315.648807 751.834953 
L 1316.928667 750.837797 
L 1318.208527 750.788665 
L 1319.488387 750.899245 
L 1320.768246 751.206949 
L 1322.048106 751.141303 
L 1323.327966 751.711133 
L 1324.607826 750.240377 
L 1325.887686 750.233094 
L 1327.167546 751.24931 
L 1328.447405 750.247592 
L 1329.727265 751.173556 
L 1331.007125 751.088214 
L 1332.286985 750.857269 
L 1333.566845 749.121847 
L 1334.846705 747.806587 
L 1336.126565 749.283777 
L 1337.406424 748.783639 
L 1338.686284 750.351898 
L 1339.966144 750.467131 
L 1341.246004 749.480789 
L 1342.525864 749.945659 
L 1343.805724 749.748062 
L 1345.085583 750.367149 
L 1346.365443 749.799356 
L 1347.645303 750.888003 
L 1348.925163 751.172258 
L 1350.205023 750.330889 
L 1352.764743 749.800039 
L 1354.044602 749.922389 
L 1355.324462 750.176436 
L 1356.604322 750.832652 
L 1357.884182 750.064731 
L 1359.164042 750.285819 
L 1360.443902 749.057592 
L 1361.723761 749.475068 
L 1363.003621 748.863652 
L 1364.283481 749.639135 
L 1365.563341 749.892991 
L 1366.843201 749.668186 
L 1368.123061 749.238941 
L 1369.40292 750.371354 
L 1370.68278 749.565778 
L 1371.96264 750.125476 
L 1371.96264 750.125476 
" style="fill:none;stroke:#008000;stroke-linecap:square;stroke-width:2.0;"/>
   </g>
   <g id="patch_3">
    <path d="M 93.382656 57.915781 
L 1373.2425 57.915781 
" style="fill:none;stroke:#000000;stroke-linecap:square;stroke-linejoin:miter;"/>
   </g>
   <g id="patch_4">
    <path d="M 1373.2425 770.338125 
L 1373.2425 57.915781 
" style="fill:none;stroke:#000000;stroke-linecap:square;stroke-linejoin:miter;"/>
   </g>
   <g id="patch_5">
    <path d="M 93.382656 770.338125 
L 1373.2425 770.338125 
" style="fill:none;stroke:#000000;stroke-linecap:square;stroke-linejoin:miter;"/>
   </g>
   <g id="patch_6">
    <path d="M 93.382656 770.338125 
L 93.382656 57.915781 
" style="fill:none;stroke:#000000;stroke-linecap:square;stroke-linejoin:miter;"/>
   </g>
   <g id="matplotlib.axis_1">
    <g id="xtick_1">
     <g id="line2d_3">
      <defs>
       <path d="M 0 0 
L 0 -4 
" id="ma5f2a091d3" style="stroke:#000000;stroke-width:0.5;"/>
      </defs>
      <g>
       <use style="stroke:#000000;stroke-width:0.5;" x="93.38265625" xlink:href="#ma5f2a091d3" y="770.338125"/>
      </g>
     </g>
     <g id="line2d_4">
      <defs>
       <path d="M 0 0 
L 0 4 
" id="m8295779963" style="stroke:#000000;stroke-width:0.5;"/>
      </defs>
      <g>
       <use style="stroke:#000000;stroke-width:0.5;" x="93.38265625" xlink:href="#m8295779963" y="57.91578125"/>
      </g>
     </g>
     <g id="text_1">
      <!-- 0 -->
      <defs>
       <path d="M 31.78125 66.40625 
Q 24.171875 66.40625 20.328125 58.90625 
Q 16.5 51.421875 16.5 36.375 
Q 16.5 21.390625 20.328125 13.890625 
Q 24.171875 6.390625 31.78125 6.390625 
Q 39.453125 6.390625 43.28125 13.890625 
Q 47.125 21.390625 47.125 36.375 
Q 47.125 51.421875 43.28125 58.90625 
Q 39.453125 66.40625 31.78125 66.40625 
M 31.78125 74.21875 
Q 44.046875 74.21875 50.515625 64.515625 
Q 56.984375 54.828125 56.984375 36.375 
Q 56.984375 17.96875 50.515625 8.265625 
Q 44.046875 -1.421875 31.78125 -1.421875 
Q 19.53125 -1.421875 13.0625 8.265625 
Q 6.59375 17.96875 6.59375 36.375 
Q 6.59375 54.828125 13.0625 64.515625 
Q 19.53125 74.21875 31.78125 74.21875 
" id="BitstreamVeraSans-Roman-30"/>
      </defs>
      <g transform="translate(83.83890625 797.1334375)scale(0.3 -0.3)">
       <use xlink:href="#BitstreamVeraSans-Roman-30"/>
      </g>
     </g>
    </g>
    <g id="xtick_2">
     <g id="line2d_5">
      <g>
       <use style="stroke:#000000;stroke-width:0.5;" x="349.354625" xlink:href="#ma5f2a091d3" y="770.338125"/>
      </g>
     </g>
     <g id="line2d_6">
      <g>
       <use style="stroke:#000000;stroke-width:0.5;" x="349.354625" xlink:href="#m8295779963" y="57.91578125"/>
      </g>
     </g>
     <g id="text_2">
      <!-- 200 -->
      <defs>
       <path d="M 19.1875 8.296875 
L 53.609375 8.296875 
L 53.609375 0 
L 7.328125 0 
L 7.328125 8.296875 
Q 12.9375 14.109375 22.625 23.890625 
Q 32.328125 33.6875 34.8125 36.53125 
Q 39.546875 41.84375 41.421875 45.53125 
Q 43.3125 49.21875 43.3125 52.78125 
Q 43.3125 58.59375 39.234375 62.25 
Q 35.15625 65.921875 28.609375 65.921875 
Q 23.96875 65.921875 18.8125 64.3125 
Q 13.671875 62.703125 7.8125 59.421875 
L 7.8125 69.390625 
Q 13.765625 71.78125 18.9375 73 
Q 24.125 74.21875 28.421875 74.21875 
Q 39.75 74.21875 46.484375 68.546875 
Q 53.21875 62.890625 53.21875 53.421875 
Q 53.21875 48.921875 51.53125 44.890625 
Q 49.859375 40.875 45.40625 35.40625 
Q 44.1875 33.984375 37.640625 27.21875 
Q 31.109375 20.453125 19.1875 8.296875 
" id="BitstreamVeraSans-Roman-32"/>
      </defs>
      <g transform="translate(320.723375 797.1334375)scale(0.3 -0.3)">
       <use xlink:href="#BitstreamVeraSans-Roman-32"/>
       <use x="63.623046875" xlink:href="#BitstreamVeraSans-Roman-30"/>
       <use x="127.24609375" xlink:href="#BitstreamVeraSans-Roman-30"/>
      </g>
     </g>
    </g>
    <g id="xtick_3">
     <g id="line2d_7">
      <g>
       <use style="stroke:#000000;stroke-width:0.5;" x="605.32659375" xlink:href="#ma5f2a091d3" y="770.338125"/>
      </g>
     </g>
     <g id="line2d_8">
      <g>
       <use style="stroke:#000000;stroke-width:0.5;" x="605.32659375" xlink:href="#m8295779963" y="57.91578125"/>
      </g>
     </g>
     <g id="text_3">
      <!-- 400 -->
      <defs>
       <path d="M 37.796875 64.3125 
L 12.890625 25.390625 
L 37.796875 25.390625 
z
M 35.203125 72.90625 
L 47.609375 72.90625 
L 47.609375 25.390625 
L 58.015625 25.390625 
L 58.015625 17.1875 
L 47.609375 17.1875 
L 47.609375 0 
L 37.796875 0 
L 37.796875 17.1875 
L 4.890625 17.1875 
L 4.890625 26.703125 
z
" id="BitstreamVeraSans-Roman-34"/>
      </defs>
      <g transform="translate(576.69534375 797.1334375)scale(0.3 -0.3)">
       <use xlink:href="#BitstreamVeraSans-Roman-34"/>
       <use x="63.623046875" xlink:href="#BitstreamVeraSans-Roman-30"/>
       <use x="127.24609375" xlink:href="#BitstreamVeraSans-Roman-30"/>
      </g>
     </g>
    </g>
    <g id="xtick_4">
     <g id="line2d_9">
      <g>
       <use style="stroke:#000000;stroke-width:0.5;" x="861.2985625" xlink:href="#ma5f2a091d3" y="770.338125"/>
      </g>
     </g>
     <g id="line2d_10">
      <g>
       <use style="stroke:#000000;stroke-width:0.5;" x="861.2985625" xlink:href="#m8295779963" y="57.91578125"/>
      </g>
     </g>
     <g id="text_4">
      <!-- 600 -->
      <defs>
       <path d="M 33.015625 40.375 
Q 26.375 40.375 22.484375 35.828125 
Q 18.609375 31.296875 18.609375 23.390625 
Q 18.609375 15.53125 22.484375 10.953125 
Q 26.375 6.390625 33.015625 6.390625 
Q 39.65625 6.390625 43.53125 10.953125 
Q 47.40625 15.53125 47.40625 23.390625 
Q 47.40625 31.296875 43.53125 35.828125 
Q 39.65625 40.375 33.015625 40.375 
M 52.59375 71.296875 
L 52.59375 62.3125 
Q 48.875 64.0625 45.09375 64.984375 
Q 41.3125 65.921875 37.59375 65.921875 
Q 27.828125 65.921875 22.671875 59.328125 
Q 17.53125 52.734375 16.796875 39.40625 
Q 19.671875 43.65625 24.015625 45.921875 
Q 28.375 48.1875 33.59375 48.1875 
Q 44.578125 48.1875 50.953125 41.515625 
Q 57.328125 34.859375 57.328125 23.390625 
Q 57.328125 12.15625 50.6875 5.359375 
Q 44.046875 -1.421875 33.015625 -1.421875 
Q 20.359375 -1.421875 13.671875 8.265625 
Q 6.984375 17.96875 6.984375 36.375 
Q 6.984375 53.65625 15.1875 63.9375 
Q 23.390625 74.21875 37.203125 74.21875 
Q 40.921875 74.21875 44.703125 73.484375 
Q 48.484375 72.75 52.59375 71.296875 
" id="BitstreamVeraSans-Roman-36"/>
      </defs>
      <g transform="translate(832.6673125 797.1334375)scale(0.3 -0.3)">
       <use xlink:href="#BitstreamVeraSans-Roman-36"/>
       <use x="63.623046875" xlink:href="#BitstreamVeraSans-Roman-30"/>
       <use x="127.24609375" xlink:href="#BitstreamVeraSans-Roman-30"/>
      </g>
     </g>
    </g>
    <g id="xtick_5">
     <g id="line2d_11">
      <g>
       <use style="stroke:#000000;stroke-width:0.5;" x="1117.27053125" xlink:href="#ma5f2a091d3" y="770.338125"/>
      </g>
     </g>
     <g id="line2d_12">
      <g>
       <use style="stroke:#000000;stroke-width:0.5;" x="1117.27053125" xlink:href="#m8295779963" y="57.91578125"/>
      </g>
     </g>
     <g id="text_5">
      <!-- 800 -->
      <defs>
       <path d="M 31.78125 34.625 
Q 24.75 34.625 20.71875 30.859375 
Q 16.703125 27.09375 16.703125 20.515625 
Q 16.703125 13.921875 20.71875 10.15625 
Q 24.75 6.390625 31.78125 6.390625 
Q 38.8125 6.390625 42.859375 10.171875 
Q 46.921875 13.96875 46.921875 20.515625 
Q 46.921875 27.09375 42.890625 30.859375 
Q 38.875 34.625 31.78125 34.625 
M 21.921875 38.8125 
Q 15.578125 40.375 12.03125 44.71875 
Q 8.5 49.078125 8.5 55.328125 
Q 8.5 64.0625 14.71875 69.140625 
Q 20.953125 74.21875 31.78125 74.21875 
Q 42.671875 74.21875 48.875 69.140625 
Q 55.078125 64.0625 55.078125 55.328125 
Q 55.078125 49.078125 51.53125 44.71875 
Q 48 40.375 41.703125 38.8125 
Q 48.828125 37.15625 52.796875 32.3125 
Q 56.78125 27.484375 56.78125 20.515625 
Q 56.78125 9.90625 50.3125 4.234375 
Q 43.84375 -1.421875 31.78125 -1.421875 
Q 19.734375 -1.421875 13.25 4.234375 
Q 6.78125 9.90625 6.78125 20.515625 
Q 6.78125 27.484375 10.78125 32.3125 
Q 14.796875 37.15625 21.921875 38.8125 
M 18.3125 54.390625 
Q 18.3125 48.734375 21.84375 45.5625 
Q 25.390625 42.390625 31.78125 42.390625 
Q 38.140625 42.390625 41.71875 45.5625 
Q 45.3125 48.734375 45.3125 54.390625 
Q 45.3125 60.0625 41.71875 63.234375 
Q 38.140625 66.40625 31.78125 66.40625 
Q 25.390625 66.40625 21.84375 63.234375 
Q 18.3125 60.0625 18.3125 54.390625 
" id="BitstreamVeraSans-Roman-38"/>
      </defs>
      <g transform="translate(1088.63928125 797.1334375)scale(0.3 -0.3)">
       <use xlink:href="#BitstreamVeraSans-Roman-38"/>
       <use x="63.623046875" xlink:href="#BitstreamVeraSans-Roman-30"/>
       <use x="127.24609375" xlink:href="#BitstreamVeraSans-Roman-30"/>
      </g>
     </g>
    </g>
    <g id="xtick_6">
     <g id="line2d_13">
      <g>
       <use style="stroke:#000000;stroke-width:0.5;" x="1373.2425" xlink:href="#ma5f2a091d3" y="770.338125"/>
      </g>
     </g>
     <g id="line2d_14">
      <g>
       <use style="stroke:#000000;stroke-width:0.5;" x="1373.2425" xlink:href="#m8295779963" y="57.91578125"/>
      </g>
     </g>
     <g id="text_6">
      <!-- 1000 -->
      <defs>
       <path d="M 12.40625 8.296875 
L 28.515625 8.296875 
L 28.515625 63.921875 
L 10.984375 60.40625 
L 10.984375 69.390625 
L 28.421875 72.90625 
L 38.28125 72.90625 
L 38.28125 8.296875 
L 54.390625 8.296875 
L 54.390625 0 
L 12.40625 0 
z
" id="BitstreamVeraSans-Roman-31"/>
      </defs>
      <g transform="translate(1335.0675 797.1334375)scale(0.3 -0.3)">
       <use xlink:href="#BitstreamVeraSans-Roman-31"/>
       <use x="63.623046875" xlink:href="#BitstreamVeraSans-Roman-30"/>
       <use x="127.24609375" xlink:href="#BitstreamVeraSans-Roman-30"/>
       <use x="190.869140625" xlink:href="#BitstreamVeraSans-Roman-30"/>
      </g>
     </g>
    </g>
    <g id="text_7">
     <!-- iterations -->
     <defs>
      <path d="M 54.890625 33.015625 
L 54.890625 0 
L 45.90625 0 
L 45.90625 32.71875 
Q 45.90625 40.484375 42.875 44.328125 
Q 39.84375 48.1875 33.796875 48.1875 
Q 26.515625 48.1875 22.3125 43.546875 
Q 18.109375 38.921875 18.109375 30.90625 
L 18.109375 0 
L 9.078125 0 
L 9.078125 54.6875 
L 18.109375 54.6875 
L 18.109375 46.1875 
Q 21.34375 51.125 25.703125 53.5625 
Q 30.078125 56 35.796875 56 
Q 45.21875 56 50.046875 50.171875 
Q 54.890625 44.34375 54.890625 33.015625 
" id="BitstreamVeraSans-Roman-6e"/>
      <path d="M 34.28125 27.484375 
Q 23.390625 27.484375 19.1875 25 
Q 14.984375 22.515625 14.984375 16.5 
Q 14.984375 11.71875 18.140625 8.90625 
Q 21.296875 6.109375 26.703125 6.109375 
Q 34.1875 6.109375 38.703125 11.40625 
Q 43.21875 16.703125 43.21875 25.484375 
L 43.21875 27.484375 
z
M 52.203125 31.203125 
L 52.203125 0 
L 43.21875 0 
L 43.21875 8.296875 
Q 40.140625 3.328125 35.546875 0.953125 
Q 30.953125 -1.421875 24.3125 -1.421875 
Q 15.921875 -1.421875 10.953125 3.296875 
Q 6 8.015625 6 15.921875 
Q 6 25.140625 12.171875 29.828125 
Q 18.359375 34.515625 30.609375 34.515625 
L 43.21875 34.515625 
L 43.21875 35.40625 
Q 43.21875 41.609375 39.140625 45 
Q 35.0625 48.390625 27.6875 48.390625 
Q 23 48.390625 18.546875 47.265625 
Q 14.109375 46.140625 10.015625 43.890625 
L 10.015625 52.203125 
Q 14.9375 54.109375 19.578125 55.046875 
Q 24.21875 56 28.609375 56 
Q 40.484375 56 46.34375 49.84375 
Q 52.203125 43.703125 52.203125 31.203125 
" id="BitstreamVeraSans-Roman-61"/>
      <path d="M 30.609375 48.390625 
Q 23.390625 48.390625 19.1875 42.75 
Q 14.984375 37.109375 14.984375 27.296875 
Q 14.984375 17.484375 19.15625 11.84375 
Q 23.34375 6.203125 30.609375 6.203125 
Q 37.796875 6.203125 41.984375 11.859375 
Q 46.1875 17.53125 46.1875 27.296875 
Q 46.1875 37.015625 41.984375 42.703125 
Q 37.796875 48.390625 30.609375 48.390625 
M 30.609375 56 
Q 42.328125 56 49.015625 48.375 
Q 55.71875 40.765625 55.71875 27.296875 
Q 55.71875 13.875 49.015625 6.21875 
Q 42.328125 -1.421875 30.609375 -1.421875 
Q 18.84375 -1.421875 12.171875 6.21875 
Q 5.515625 13.875 5.515625 27.296875 
Q 5.515625 40.765625 12.171875 48.375 
Q 18.84375 56 30.609375 56 
" id="BitstreamVeraSans-Roman-6f"/>
      <path d="M 9.421875 54.6875 
L 18.40625 54.6875 
L 18.40625 0 
L 9.421875 0 
z
M 9.421875 75.984375 
L 18.40625 75.984375 
L 18.40625 64.59375 
L 9.421875 64.59375 
z
" id="BitstreamVeraSans-Roman-69"/>
      <path d="M 56.203125 29.59375 
L 56.203125 25.203125 
L 14.890625 25.203125 
Q 15.484375 15.921875 20.484375 11.0625 
Q 25.484375 6.203125 34.421875 6.203125 
Q 39.59375 6.203125 44.453125 7.46875 
Q 49.3125 8.734375 54.109375 11.28125 
L 54.109375 2.78125 
Q 49.265625 0.734375 44.1875 -0.34375 
Q 39.109375 -1.421875 33.890625 -1.421875 
Q 20.796875 -1.421875 13.15625 6.1875 
Q 5.515625 13.8125 5.515625 26.8125 
Q 5.515625 40.234375 12.765625 48.109375 
Q 20.015625 56 32.328125 56 
Q 43.359375 56 49.78125 48.890625 
Q 56.203125 41.796875 56.203125 29.59375 
M 47.21875 32.234375 
Q 47.125 39.59375 43.09375 43.984375 
Q 39.0625 48.390625 32.421875 48.390625 
Q 24.90625 48.390625 20.390625 44.140625 
Q 15.875 39.890625 15.1875 32.171875 
z
" id="BitstreamVeraSans-Roman-65"/>
      <path d="M 18.3125 70.21875 
L 18.3125 54.6875 
L 36.8125 54.6875 
L 36.8125 47.703125 
L 18.3125 47.703125 
L 18.3125 18.015625 
Q 18.3125 11.328125 20.140625 9.421875 
Q 21.96875 7.515625 27.59375 7.515625 
L 36.8125 7.515625 
L 36.8125 0 
L 27.59375 0 
Q 17.1875 0 13.234375 3.875 
Q 9.28125 7.765625 9.28125 18.015625 
L 9.28125 47.703125 
L 2.6875 47.703125 
L 2.6875 54.6875 
L 9.28125 54.6875 
L 9.28125 70.21875 
z
" id="BitstreamVeraSans-Roman-74"/>
      <path d="M 41.109375 46.296875 
Q 39.59375 47.171875 37.8125 47.578125 
Q 36.03125 48 33.890625 48 
Q 26.265625 48 22.1875 43.046875 
Q 18.109375 38.09375 18.109375 28.8125 
L 18.109375 0 
L 9.078125 0 
L 9.078125 54.6875 
L 18.109375 54.6875 
L 18.109375 46.1875 
Q 20.953125 51.171875 25.484375 53.578125 
Q 30.03125 56 36.53125 56 
Q 37.453125 56 38.578125 55.875 
Q 39.703125 55.765625 41.0625 55.515625 
z
" id="BitstreamVeraSans-Roman-72"/>
      <path d="M 44.28125 53.078125 
L 44.28125 44.578125 
Q 40.484375 46.53125 36.375 47.5 
Q 32.28125 48.484375 27.875 48.484375 
Q 21.1875 48.484375 17.84375 46.4375 
Q 14.5 44.390625 14.5 40.28125 
Q 14.5 37.15625 16.890625 35.375 
Q 19.28125 33.59375 26.515625 31.984375 
L 29.59375 31.296875 
Q 39.15625 29.25 43.1875 25.515625 
Q 47.21875 21.78125 47.21875 15.09375 
Q 47.21875 7.46875 41.1875 3.015625 
Q 35.15625 -1.421875 24.609375 -1.421875 
Q 20.21875 -1.421875 15.453125 -0.5625 
Q 10.6875 0.296875 5.421875 2 
L 5.421875 11.28125 
Q 10.40625 8.6875 15.234375 7.390625 
Q 20.0625 6.109375 24.8125 6.109375 
Q 31.15625 6.109375 34.5625 8.28125 
Q 37.984375 10.453125 37.984375 14.40625 
Q 37.984375 18.0625 35.515625 20.015625 
Q 33.0625 21.96875 24.703125 23.78125 
L 21.578125 24.515625 
Q 13.234375 26.265625 9.515625 29.90625 
Q 5.8125 33.546875 5.8125 39.890625 
Q 5.8125 47.609375 11.28125 51.796875 
Q 16.75 56 26.8125 56 
Q 31.78125 56 36.171875 55.265625 
Q 40.578125 54.546875 44.28125 53.078125 
" id="BitstreamVeraSans-Roman-73"/>
     </defs>
     <g transform="translate(662.130546875 831.1678125)scale(0.3 -0.3)">
      <use xlink:href="#BitstreamVeraSans-Roman-69"/>
      <use x="27.783203125" xlink:href="#BitstreamVeraSans-Roman-74"/>
      <use x="66.9921875" xlink:href="#BitstreamVeraSans-Roman-65"/>
      <use x="128.515625" xlink:href="#BitstreamVeraSans-Roman-72"/>
      <use x="169.62890625" xlink:href="#BitstreamVeraSans-Roman-61"/>
      <use x="230.908203125" xlink:href="#BitstreamVeraSans-Roman-74"/>
      <use x="270.1171875" xlink:href="#BitstreamVeraSans-Roman-69"/>
      <use x="297.900390625" xlink:href="#BitstreamVeraSans-Roman-6f"/>
      <use x="359.08203125" xlink:href="#BitstreamVeraSans-Roman-6e"/>
      <use x="422.4609375" xlink:href="#BitstreamVeraSans-Roman-73"/>
     </g>
    </g>
   </g>
   <g id="matplotlib.axis_2">
    <g id="ytick_1">
     <g id="line2d_15">
      <defs>
       <path d="M 0 0 
L 4 0 
" id="m6e05df4eed" style="stroke:#000000;stroke-width:0.5;"/>
      </defs>
      <g>
       <use style="stroke:#000000;stroke-width:0.5;" x="93.38265625" xlink:href="#m6e05df4eed" y="770.338125"/>
      </g>
     </g>
     <g id="line2d_16">
      <defs>
       <path d="M 0 0 
L -4 0 
" id="m945d06c416" style="stroke:#000000;stroke-width:0.5;"/>
      </defs>
      <g>
       <use style="stroke:#000000;stroke-width:0.5;" x="1373.2425" xlink:href="#m945d06c416" y="770.338125"/>
      </g>
     </g>
     <g id="text_8">
      <!-- 60 -->
      <defs>
       <path d="M 10.59375 35.5 
L 73.1875 35.5 
L 73.1875 27.203125 
L 10.59375 27.203125 
z
" id="BitstreamVeraSans-Roman-2212"/>
      </defs>
      <g transform="translate(26.06859375 778.61625)scale(0.3 -0.3)">
       <use xlink:href="#BitstreamVeraSans-Roman-2212"/>
       <use x="83.7890625" xlink:href="#BitstreamVeraSans-Roman-36"/>
       <use x="147.412109375" xlink:href="#BitstreamVeraSans-Roman-30"/>
      </g>
     </g>
    </g>
    <g id="ytick_2">
     <g id="line2d_17">
      <g>
       <use style="stroke:#000000;stroke-width:0.5;" x="93.38265625" xlink:href="#m6e05df4eed" y="681.285332031"/>
      </g>
     </g>
     <g id="line2d_18">
      <g>
       <use style="stroke:#000000;stroke-width:0.5;" x="1373.2425" xlink:href="#m945d06c416" y="681.285332031"/>
      </g>
     </g>
     <g id="text_9">
      <!-- 50 -->
      <defs>
       <path d="M 10.796875 72.90625 
L 49.515625 72.90625 
L 49.515625 64.59375 
L 19.828125 64.59375 
L 19.828125 46.734375 
Q 21.96875 47.46875 24.109375 47.828125 
Q 26.265625 48.1875 28.421875 48.1875 
Q 40.625 48.1875 47.75 41.5 
Q 54.890625 34.8125 54.890625 23.390625 
Q 54.890625 11.625 47.5625 5.09375 
Q 40.234375 -1.421875 26.90625 -1.421875 
Q 22.3125 -1.421875 17.546875 -0.640625 
Q 12.796875 0.140625 7.71875 1.703125 
L 7.71875 11.625 
Q 12.109375 9.234375 16.796875 8.0625 
Q 21.484375 6.890625 26.703125 6.890625 
Q 35.15625 6.890625 40.078125 11.328125 
Q 45.015625 15.765625 45.015625 23.390625 
Q 45.015625 31 40.078125 35.4375 
Q 35.15625 39.890625 26.703125 39.890625 
Q 22.75 39.890625 18.8125 39.015625 
Q 14.890625 38.140625 10.796875 36.28125 
z
" id="BitstreamVeraSans-Roman-35"/>
      </defs>
      <g transform="translate(26.06859375 689.563457031)scale(0.3 -0.3)">
       <use xlink:href="#BitstreamVeraSans-Roman-2212"/>
       <use x="83.7890625" xlink:href="#BitstreamVeraSans-Roman-35"/>
       <use x="147.412109375" xlink:href="#BitstreamVeraSans-Roman-30"/>
      </g>
     </g>
    </g>
    <g id="ytick_3">
     <g id="line2d_19">
      <g>
       <use style="stroke:#000000;stroke-width:0.5;" x="93.38265625" xlink:href="#m6e05df4eed" y="592.232539062"/>
      </g>
     </g>
     <g id="line2d_20">
      <g>
       <use style="stroke:#000000;stroke-width:0.5;" x="1373.2425" xlink:href="#m945d06c416" y="592.232539062"/>
      </g>
     </g>
     <g id="text_10">
      <!-- 40 -->
      <g transform="translate(26.06859375 600.510664062)scale(0.3 -0.3)">
       <use xlink:href="#BitstreamVeraSans-Roman-2212"/>
       <use x="83.7890625" xlink:href="#BitstreamVeraSans-Roman-34"/>
       <use x="147.412109375" xlink:href="#BitstreamVeraSans-Roman-30"/>
      </g>
     </g>
    </g>
    <g id="ytick_4">
     <g id="line2d_21">
      <g>
       <use style="stroke:#000000;stroke-width:0.5;" x="93.38265625" xlink:href="#m6e05df4eed" y="503.179746094"/>
      </g>
     </g>
     <g id="line2d_22">
      <g>
       <use style="stroke:#000000;stroke-width:0.5;" x="1373.2425" xlink:href="#m945d06c416" y="503.179746094"/>
      </g>
     </g>
     <g id="text_11">
      <!-- 30 -->
      <defs>
       <path d="M 40.578125 39.3125 
Q 47.65625 37.796875 51.625 33 
Q 55.609375 28.21875 55.609375 21.1875 
Q 55.609375 10.40625 48.1875 4.484375 
Q 40.765625 -1.421875 27.09375 -1.421875 
Q 22.515625 -1.421875 17.65625 -0.515625 
Q 12.796875 0.390625 7.625 2.203125 
L 7.625 11.71875 
Q 11.71875 9.328125 16.59375 8.109375 
Q 21.484375 6.890625 26.8125 6.890625 
Q 36.078125 6.890625 40.9375 10.546875 
Q 45.796875 14.203125 45.796875 21.1875 
Q 45.796875 27.640625 41.28125 31.265625 
Q 36.765625 34.90625 28.71875 34.90625 
L 20.21875 34.90625 
L 20.21875 43.015625 
L 29.109375 43.015625 
Q 36.375 43.015625 40.234375 45.921875 
Q 44.09375 48.828125 44.09375 54.296875 
Q 44.09375 59.90625 40.109375 62.90625 
Q 36.140625 65.921875 28.71875 65.921875 
Q 24.65625 65.921875 20.015625 65.03125 
Q 15.375 64.15625 9.8125 62.3125 
L 9.8125 71.09375 
Q 15.4375 72.65625 20.34375 73.4375 
Q 25.25 74.21875 29.59375 74.21875 
Q 40.828125 74.21875 47.359375 69.109375 
Q 53.90625 64.015625 53.90625 55.328125 
Q 53.90625 49.265625 50.4375 45.09375 
Q 46.96875 40.921875 40.578125 39.3125 
" id="BitstreamVeraSans-Roman-33"/>
      </defs>
      <g transform="translate(26.06859375 511.457871094)scale(0.3 -0.3)">
       <use xlink:href="#BitstreamVeraSans-Roman-2212"/>
       <use x="83.7890625" xlink:href="#BitstreamVeraSans-Roman-33"/>
       <use x="147.412109375" xlink:href="#BitstreamVeraSans-Roman-30"/>
      </g>
     </g>
    </g>
    <g id="ytick_5">
     <g id="line2d_23">
      <g>
       <use style="stroke:#000000;stroke-width:0.5;" x="93.38265625" xlink:href="#m6e05df4eed" y="414.126953125"/>
      </g>
     </g>
     <g id="line2d_24">
      <g>
       <use style="stroke:#000000;stroke-width:0.5;" x="1373.2425" xlink:href="#m945d06c416" y="414.126953125"/>
      </g>
     </g>
     <g id="text_12">
      <!-- 20 -->
      <g transform="translate(26.06859375 422.405078125)scale(0.3 -0.3)">
       <use xlink:href="#BitstreamVeraSans-Roman-2212"/>
       <use x="83.7890625" xlink:href="#BitstreamVeraSans-Roman-32"/>
       <use x="147.412109375" xlink:href="#BitstreamVeraSans-Roman-30"/>
      </g>
     </g>
    </g>
    <g id="ytick_6">
     <g id="line2d_25">
      <g>
       <use style="stroke:#000000;stroke-width:0.5;" x="93.38265625" xlink:href="#m6e05df4eed" y="325.074160156"/>
      </g>
     </g>
     <g id="line2d_26">
      <g>
       <use style="stroke:#000000;stroke-width:0.5;" x="1373.2425" xlink:href="#m945d06c416" y="325.074160156"/>
      </g>
     </g>
     <g id="text_13">
      <!-- 10 -->
      <g transform="translate(26.06859375 333.352285156)scale(0.3 -0.3)">
       <use xlink:href="#BitstreamVeraSans-Roman-2212"/>
       <use x="83.7890625" xlink:href="#BitstreamVeraSans-Roman-31"/>
       <use x="147.412109375" xlink:href="#BitstreamVeraSans-Roman-30"/>
      </g>
     </g>
    </g>
    <g id="ytick_7">
     <g id="line2d_27">
      <g>
       <use style="stroke:#000000;stroke-width:0.5;" x="93.38265625" xlink:href="#m6e05df4eed" y="236.021367188"/>
      </g>
     </g>
     <g id="line2d_28">
      <g>
       <use style="stroke:#000000;stroke-width:0.5;" x="1373.2425" xlink:href="#m945d06c416" y="236.021367188"/>
      </g>
     </g>
     <g id="text_14">
      <!-- 0 -->
      <g transform="translate(70.29515625 244.299492188)scale(0.3 -0.3)">
       <use xlink:href="#BitstreamVeraSans-Roman-30"/>
      </g>
     </g>
    </g>
    <g id="ytick_8">
     <g id="line2d_29">
      <g>
       <use style="stroke:#000000;stroke-width:0.5;" x="93.38265625" xlink:href="#m6e05df4eed" y="146.968574219"/>
      </g>
     </g>
     <g id="line2d_30">
      <g>
       <use style="stroke:#000000;stroke-width:0.5;" x="1373.2425" xlink:href="#m945d06c416" y="146.968574219"/>
      </g>
     </g>
     <g id="text_15">
      <!-- 10 -->
      <g transform="translate(51.20765625 155.246699219)scale(0.3 -0.3)">
       <use xlink:href="#BitstreamVeraSans-Roman-31"/>
       <use x="63.623046875" xlink:href="#BitstreamVeraSans-Roman-30"/>
      </g>
     </g>
    </g>
    <g id="ytick_9">
     <g id="line2d_31">
      <g>
       <use style="stroke:#000000;stroke-width:0.5;" x="93.38265625" xlink:href="#m6e05df4eed" y="57.91578125"/>
      </g>
     </g>
     <g id="line2d_32">
      <g>
       <use style="stroke:#000000;stroke-width:0.5;" x="1373.2425" xlink:href="#m945d06c416" y="57.91578125"/>
      </g>
     </g>
     <g id="text_16">
      <!-- 20 -->
      <g transform="translate(51.20765625 66.19390625)scale(0.3 -0.3)">
       <use xlink:href="#BitstreamVeraSans-Roman-32"/>
       <use x="63.623046875" xlink:href="#BitstreamVeraSans-Roman-30"/>
      </g>
     </g>
    </g>
   </g>
   <g id="text_17">
    <!-- log(loss) -->
    <defs>
     <path d="M 8.015625 75.875 
L 15.828125 75.875 
Q 23.140625 64.359375 26.78125 53.3125 
Q 30.421875 42.28125 30.421875 31.390625 
Q 30.421875 20.453125 26.78125 9.375 
Q 23.140625 -1.703125 15.828125 -13.1875 
L 8.015625 -13.1875 
Q 14.5 -2 17.703125 9.0625 
Q 20.90625 20.125 20.90625 31.390625 
Q 20.90625 42.671875 17.703125 53.65625 
Q 14.5 64.65625 8.015625 75.875 
" id="BitstreamVeraSans-Roman-29"/>
     <path d="M 31 75.875 
Q 24.46875 64.65625 21.28125 53.65625 
Q 18.109375 42.671875 18.109375 31.390625 
Q 18.109375 20.125 21.3125 9.0625 
Q 24.515625 -2 31 -13.1875 
L 23.1875 -13.1875 
Q 15.875 -1.703125 12.234375 9.375 
Q 8.59375 20.453125 8.59375 31.390625 
Q 8.59375 42.28125 12.203125 53.3125 
Q 15.828125 64.359375 23.1875 75.875 
z
" id="BitstreamVeraSans-Roman-28"/>
     <path d="M 45.40625 27.984375 
Q 45.40625 37.75 41.375 43.109375 
Q 37.359375 48.484375 30.078125 48.484375 
Q 22.859375 48.484375 18.828125 43.109375 
Q 14.796875 37.75 14.796875 27.984375 
Q 14.796875 18.265625 18.828125 12.890625 
Q 22.859375 7.515625 30.078125 7.515625 
Q 37.359375 7.515625 41.375 12.890625 
Q 45.40625 18.265625 45.40625 27.984375 
M 54.390625 6.78125 
Q 54.390625 -7.171875 48.1875 -13.984375 
Q 42 -20.796875 29.203125 -20.796875 
Q 24.46875 -20.796875 20.265625 -20.09375 
Q 16.0625 -19.390625 12.109375 -17.921875 
L 12.109375 -9.1875 
Q 16.0625 -11.328125 19.921875 -12.34375 
Q 23.78125 -13.375 27.78125 -13.375 
Q 36.625 -13.375 41.015625 -8.765625 
Q 45.40625 -4.15625 45.40625 5.171875 
L 45.40625 9.625 
Q 42.625 4.78125 38.28125 2.390625 
Q 33.9375 0 27.875 0 
Q 17.828125 0 11.671875 7.65625 
Q 5.515625 15.328125 5.515625 27.984375 
Q 5.515625 40.671875 11.671875 48.328125 
Q 17.828125 56 27.875 56 
Q 33.9375 56 38.28125 53.609375 
Q 42.625 51.21875 45.40625 46.390625 
L 45.40625 54.6875 
L 54.390625 54.6875 
z
" id="BitstreamVeraSans-Roman-67"/>
     <path d="M 9.421875 75.984375 
L 18.40625 75.984375 
L 18.40625 0 
L 9.421875 0 
z
" id="BitstreamVeraSans-Roman-6c"/>
    </defs>
    <g transform="translate(669.766484375 52.91578125)scale(0.3 -0.3)">
     <use xlink:href="#BitstreamVeraSans-Roman-6c"/>
     <use x="27.783203125" xlink:href="#BitstreamVeraSans-Roman-6f"/>
     <use x="88.96484375" xlink:href="#BitstreamVeraSans-Roman-67"/>
     <use x="152.44140625" xlink:href="#BitstreamVeraSans-Roman-28"/>
     <use x="191.455078125" xlink:href="#BitstreamVeraSans-Roman-6c"/>
     <use x="219.23828125" xlink:href="#BitstreamVeraSans-Roman-6f"/>
     <use x="280.419921875" xlink:href="#BitstreamVeraSans-Roman-73"/>
     <use x="332.51953125" xlink:href="#BitstreamVeraSans-Roman-73"/>
     <use x="384.619140625" xlink:href="#BitstreamVeraSans-Roman-29"/>
    </g>
   </g>
   <g id="legend_1">
    <g id="patch_7">
     <path d="M 1133.889375 169.984531 
L 1358.2425 169.984531 
L 1358.2425 72.915781 
L 1133.889375 72.915781 
z
" style="fill:#ffffff;stroke:#000000;stroke-linejoin:miter;"/>
    </g>
    <g id="line2d_33">
     <path d="M 1154.889375 97.211094 
L 1196.889375 97.211094 
" style="fill:none;stroke:#0000ff;stroke-linecap:square;stroke-width:2.0;"/>
    </g>
    <g id="line2d_34"/>
    <g id="text_18">
     <!-- random -->
     <defs>
      <path d="M 45.40625 46.390625 
L 45.40625 75.984375 
L 54.390625 75.984375 
L 54.390625 0 
L 45.40625 0 
L 45.40625 8.203125 
Q 42.578125 3.328125 38.25 0.953125 
Q 33.9375 -1.421875 27.875 -1.421875 
Q 17.96875 -1.421875 11.734375 6.484375 
Q 5.515625 14.40625 5.515625 27.296875 
Q 5.515625 40.1875 11.734375 48.09375 
Q 17.96875 56 27.875 56 
Q 33.9375 56 38.25 53.625 
Q 42.578125 51.265625 45.40625 46.390625 
M 14.796875 27.296875 
Q 14.796875 17.390625 18.875 11.75 
Q 22.953125 6.109375 30.078125 6.109375 
Q 37.203125 6.109375 41.296875 11.75 
Q 45.40625 17.390625 45.40625 27.296875 
Q 45.40625 37.203125 41.296875 42.84375 
Q 37.203125 48.484375 30.078125 48.484375 
Q 22.953125 48.484375 18.875 42.84375 
Q 14.796875 37.203125 14.796875 27.296875 
" id="BitstreamVeraSans-Roman-64"/>
      <path d="M 52 44.1875 
Q 55.375 50.25 60.0625 53.125 
Q 64.75 56 71.09375 56 
Q 79.640625 56 84.28125 50.015625 
Q 88.921875 44.046875 88.921875 33.015625 
L 88.921875 0 
L 79.890625 0 
L 79.890625 32.71875 
Q 79.890625 40.578125 77.09375 44.375 
Q 74.3125 48.1875 68.609375 48.1875 
Q 61.625 48.1875 57.5625 43.546875 
Q 53.515625 38.921875 53.515625 30.90625 
L 53.515625 0 
L 44.484375 0 
L 44.484375 32.71875 
Q 44.484375 40.625 41.703125 44.40625 
Q 38.921875 48.1875 33.109375 48.1875 
Q 26.21875 48.1875 22.15625 43.53125 
Q 18.109375 38.875 18.109375 30.90625 
L 18.109375 0 
L 9.078125 0 
L 9.078125 54.6875 
L 18.109375 54.6875 
L 18.109375 46.1875 
Q 21.1875 51.21875 25.484375 53.609375 
Q 29.78125 56 35.6875 56 
Q 41.65625 56 45.828125 52.96875 
Q 50 49.953125 52 44.1875 
" id="BitstreamVeraSans-Roman-6d"/>
     </defs>
     <g transform="translate(1229.889375 107.71109375)scale(0.3 -0.3)">
      <use xlink:href="#BitstreamVeraSans-Roman-72"/>
      <use x="41.11328125" xlink:href="#BitstreamVeraSans-Roman-61"/>
      <use x="102.392578125" xlink:href="#BitstreamVeraSans-Roman-6e"/>
      <use x="165.771484375" xlink:href="#BitstreamVeraSans-Roman-64"/>
      <use x="229.248046875" xlink:href="#BitstreamVeraSans-Roman-6f"/>
      <use x="290.4296875" xlink:href="#BitstreamVeraSans-Roman-6d"/>
     </g>
    </g>
    <g id="line2d_35">
     <path d="M 1154.889375 141.245469 
L 1196.889375 141.245469 
" style="fill:none;stroke:#008000;stroke-linecap:square;stroke-width:2.0;"/>
    </g>
    <g id="line2d_36"/>
    <g id="text_19">
     <!-- corr -->
     <defs>
      <path d="M 48.78125 52.59375 
L 48.78125 44.1875 
Q 44.96875 46.296875 41.140625 47.34375 
Q 37.3125 48.390625 33.40625 48.390625 
Q 24.65625 48.390625 19.8125 42.84375 
Q 14.984375 37.3125 14.984375 27.296875 
Q 14.984375 17.28125 19.8125 11.734375 
Q 24.65625 6.203125 33.40625 6.203125 
Q 37.3125 6.203125 41.140625 7.25 
Q 44.96875 8.296875 48.78125 10.40625 
L 48.78125 2.09375 
Q 45.015625 0.34375 40.984375 -0.53125 
Q 36.96875 -1.421875 32.421875 -1.421875 
Q 20.0625 -1.421875 12.78125 6.34375 
Q 5.515625 14.109375 5.515625 27.296875 
Q 5.515625 40.671875 12.859375 48.328125 
Q 20.21875 56 33.015625 56 
Q 37.15625 56 41.109375 55.140625 
Q 45.0625 54.296875 48.78125 52.59375 
" id="BitstreamVeraSans-Roman-63"/>
     </defs>
     <g transform="translate(1229.889375 151.74546875)scale(0.3 -0.3)">
      <use xlink:href="#BitstreamVeraSans-Roman-63"/>
      <use x="54.98046875" xlink:href="#BitstreamVeraSans-Roman-6f"/>
      <use x="116.162109375" xlink:href="#BitstreamVeraSans-Roman-72"/>
      <use x="157.259765625" xlink:href="#BitstreamVeraSans-Roman-72"/>
     </g>
    </g>
   </g>
  </g>
 </g>
 <defs>
  <clipPath id="p850a0840ff">
   <rect height="712.42234375" width="1279.85984375" x="93.38265625" y="57.91578125"/>
  </clipPath>
 </defs>
</svg>
