<?xml version="1.0" encoding="utf-8" standalone="no"?>
<!DOCTYPE svg PUBLIC "-//W3C//DTD SVG 1.1//EN"
  "http://www.w3.org/Graphics/SVG/1.1/DTD/svg11.dtd">
<!-- Created with matplotlib (http://matplotlib.org/) -->
<svg height="864pt" version="1.1" viewBox="0 0 1440 864" width="1440pt" xmlns="http://www.w3.org/2000/svg" xmlns:xlink="http://www.w3.org/1999/xlink">
 <defs>
  <style type="text/css">
*{stroke-linecap:butt;stroke-linejoin:round;stroke-miterlimit:100000;}
  </style>
 </defs>
 <g id="figure_1">
  <g id="patch_1">
   <path d="M 0 864 
L 1440 864 
L 1440 0 
L 0 0 
z
" style="fill:#ffffff;"/>
  </g>
  <g id="axes_1">
   <g id="patch_2">
    <path d="M 93.382656 770.338125 
L 1381.831875 770.338125 
L 1381.831875 57.915781 
L 93.382656 57.915781 
z
" style="fill:#ffffff;"/>
   </g>
   <g id="line2d_1">
    <path clip-path="url(#p4763e8d5fa)" d="M 93.382656 125.004574 
L 95.959555 126.780442 
L 98.536453 128.755968 
L 101.113352 130.184708 
L 106.267148 133.495581 
L 108.844047 135.340658 
L 111.420945 136.929359 
L 113.997844 138.856137 
L 119.151641 141.836249 
L 121.728539 143.47382 
L 124.305438 145.650374 
L 126.882336 147.452486 
L 129.459234 148.444166 
L 134.613031 152.577629 
L 137.18993 154.358419 
L 139.766828 155.989435 
L 142.343727 158.508596 
L 144.920625 160.129818 
L 147.497523 161.597281 
L 152.65132 165.572827 
L 155.228219 167.054377 
L 157.805117 168.983234 
L 160.382016 170.746865 
L 162.958914 172.749256 
L 168.112711 175.901351 
L 173.266508 178.428836 
L 183.574102 185.267156 
L 186.151 187.144661 
L 188.727898 188.614029 
L 191.304797 190.389929 
L 193.881695 191.596282 
L 196.458594 193.429809 
L 199.035492 195.094137 
L 201.612391 196.95781 
L 204.189289 198.215342 
L 206.766188 200.476847 
L 209.343086 202.470935 
L 214.496883 205.50004 
L 217.073781 207.353024 
L 222.227578 209.799828 
L 227.381375 212.823467 
L 229.958273 214.6161 
L 232.535172 216.158588 
L 237.688969 219.67763 
L 240.265867 221.109733 
L 242.842766 221.259767 
L 245.419664 222.919633 
L 247.996563 224.244759 
L 250.573461 226.25923 
L 253.150359 227.775175 
L 255.727258 229.556035 
L 260.881055 233.385266 
L 263.457953 234.836622 
L 266.034852 236.975118 
L 268.61175 238.52354 
L 271.188648 240.591282 
L 273.765547 242.183643 
L 276.342445 244.804025 
L 278.919344 246.071527 
L 281.496242 248.096808 
L 284.073141 249.958168 
L 286.650039 252.22583 
L 304.688328 263.207595 
L 307.265227 264.753222 
L 309.842125 266.926903 
L 312.419023 268.60401 
L 314.995922 269.981555 
L 317.57282 271.826418 
L 320.149719 273.238526 
L 322.726617 274.50238 
L 325.303516 276.396618 
L 327.880414 277.552871 
L 330.457313 280.101591 
L 333.034211 281.642427 
L 335.611109 283.50006 
L 338.188008 284.90986 
L 340.764906 286.635331 
L 343.341805 288.53971 
L 345.918703 290.205648 
L 348.495602 291.612605 
L 353.649398 295.418294 
L 356.226297 296.908949 
L 358.803195 298.233331 
L 361.380094 299.35935 
L 363.956992 300.986126 
L 374.264586 308.631854 
L 379.418383 311.637176 
L 381.995281 313.500479 
L 384.57218 314.892604 
L 392.302875 319.861162 
L 394.879773 322.600731 
L 397.456672 324.115924 
L 402.610469 326.879153 
L 405.187367 328.837909 
L 407.764266 330.376886 
L 410.341164 332.843185 
L 415.494961 336.438025 
L 420.648758 339.581547 
L 423.225656 340.956815 
L 425.802555 342.473799 
L 428.379453 343.854573 
L 433.53325 347.748964 
L 436.110148 349.205484 
L 438.687047 350.912361 
L 441.263945 352.844412 
L 443.840844 354.473839 
L 448.994641 357.524815 
L 451.571539 359.284171 
L 454.148438 361.359645 
L 456.725336 363.273369 
L 459.302234 364.813171 
L 467.03293 370.534032 
L 469.609828 372.314532 
L 472.186727 373.905878 
L 477.340523 376.830648 
L 485.071219 382.332675 
L 487.648117 383.787039 
L 495.378813 389.111228 
L 500.532609 392.550172 
L 503.109508 394.4061 
L 505.686406 395.733668 
L 508.263305 397.68582 
L 513.417102 400.749638 
L 515.994 402.063739 
L 518.570898 403.865659 
L 521.147797 405.151148 
L 528.878492 409.674379 
L 531.455391 411.923812 
L 534.032289 413.547858 
L 536.609188 415.522607 
L 539.186086 416.919326 
L 541.762984 418.528798 
L 544.339883 420.649574 
L 549.49368 424.194512 
L 552.070578 426.784579 
L 554.647477 428.867777 
L 557.224375 430.345692 
L 564.95507 434.287482 
L 570.108867 437.595161 
L 572.685766 439.145525 
L 575.262664 440.559167 
L 577.839563 442.651372 
L 580.416461 444.291045 
L 582.993359 445.755448 
L 585.570258 447.536713 
L 588.147156 448.525327 
L 593.300953 452.374842 
L 595.877852 453.705896 
L 598.45475 455.199891 
L 601.031648 457.061138 
L 606.185445 460.211042 
L 608.762344 461.804273 
L 611.339242 463.847967 
L 613.916141 465.343121 
L 616.493039 467.407363 
L 619.069938 468.924619 
L 621.646836 470.870701 
L 624.223734 472.988697 
L 626.800633 474.43908 
L 631.95443 477.810614 
L 634.531328 479.186658 
L 637.108227 480.8699 
L 639.685125 482.236289 
L 642.262023 483.346373 
L 644.838922 485.037094 
L 647.41582 486.308368 
L 655.146516 491.418982 
L 657.723414 493.01903 
L 660.300313 494.194923 
L 665.454109 497.360832 
L 673.184805 503.007022 
L 675.761703 504.509935 
L 678.338602 506.462755 
L 680.9155 508.825984 
L 683.492398 509.869218 
L 686.069297 511.785397 
L 688.646195 513.439575 
L 691.223094 514.707675 
L 693.799992 516.459908 
L 696.376891 517.649705 
L 698.953789 519.05275 
L 706.684484 524.028058 
L 709.261383 525.921938 
L 714.41518 529.224577 
L 716.992078 530.349186 
L 719.568977 531.749761 
L 722.145875 533.016861 
L 724.722773 534.824926 
L 727.299672 537.303946 
L 729.87657 538.726393 
L 732.453469 540.28644 
L 735.030367 541.986941 
L 737.607266 543.540731 
L 745.337961 549.034504 
L 750.491758 552.339861 
L 755.645555 555.851438 
L 758.222453 557.712381 
L 760.799352 559.313197 
L 763.37625 560.71013 
L 768.530047 563.795975 
L 773.683844 566.131022 
L 776.260742 567.550525 
L 783.991437 572.375138 
L 789.145234 576.048284 
L 791.722133 578.057399 
L 796.87593 581.002479 
L 802.029727 584.493287 
L 804.606625 585.962179 
L 807.183523 587.790504 
L 809.760422 589.839447 
L 812.33732 591.35261 
L 814.914219 593.099388 
L 820.068016 597.394901 
L 822.644914 598.383766 
L 825.221813 599.767723 
L 827.798711 601.461156 
L 830.375609 602.745313 
L 832.952508 604.493256 
L 835.529406 605.96334 
L 838.106305 607.783739 
L 840.683203 608.803433 
L 843.260102 610.314228 
L 845.837 612.099573 
L 848.413898 613.371762 
L 850.990797 615.085396 
L 853.567695 616.387033 
L 863.875289 622.643706 
L 866.452188 624.589384 
L 869.029086 626.176853 
L 871.605984 628.053801 
L 876.759781 630.544464 
L 879.33668 632.555326 
L 881.913578 634.09786 
L 887.067375 637.488794 
L 894.79807 642.503382 
L 897.374969 644.528704 
L 899.951867 646.033379 
L 905.105664 649.681485 
L 907.682563 651.009047 
L 910.259461 652.478694 
L 912.836359 654.449682 
L 917.990156 656.87599 
L 920.567055 658.460399 
L 923.143953 660.600109 
L 925.720852 662.087363 
L 928.29775 663.276578 
L 930.874648 665.200028 
L 936.028445 669.474103 
L 943.759141 674.069723 
L 946.336039 676.347577 
L 951.489836 679.772165 
L 954.066734 681.488372 
L 956.643633 682.950043 
L 959.220531 684.913507 
L 961.79743 686.596842 
L 966.951227 689.370236 
L 969.528125 691.155387 
L 972.105023 692.652067 
L 974.681922 694.516845 
L 979.835719 698.480673 
L 982.412617 700.088929 
L 984.989516 702.089338 
L 990.143312 705.453602 
L 992.720211 707.369143 
L 995.297109 708.68815 
L 997.874008 710.616573 
L 1000.450906 711.926015 
L 1003.027805 713.000895 
L 1005.604703 714.777705 
L 1008.181602 716.266846 
L 1010.7585 717.943222 
L 1013.335398 719.792208 
L 1015.912297 720.787807 
L 1018.489195 721.973037 
L 1021.066094 723.944098 
L 1023.642992 725.588037 
L 1031.373688 729.649026 
L 1033.950586 731.075854 
L 1039.104383 734.474041 
L 1041.681281 735.399637 
L 1044.25818 735.813212 
L 1049.411977 737.71699 
L 1051.988875 738.50648 
L 1054.565773 738.223485 
L 1057.142672 738.534632 
L 1059.71957 739.250701 
L 1062.296469 739.014715 
L 1072.604063 740.326908 
L 1075.180961 740.531596 
L 1077.757859 740.517572 
L 1080.334758 740.808461 
L 1082.911656 741.408425 
L 1085.488555 740.781557 
L 1088.065453 740.94017 
L 1093.21925 740.618378 
L 1098.373047 740.562051 
L 1100.949945 740.840698 
L 1103.526844 741.464623 
L 1106.103742 741.818012 
L 1111.257539 741.560288 
L 1113.834438 742.10868 
L 1116.411336 741.825913 
L 1118.988234 741.67985 
L 1121.565133 741.897854 
L 1124.142031 741.900345 
L 1131.872727 742.320233 
L 1134.449625 742.621061 
L 1139.603422 742.499694 
L 1144.757219 742.554263 
L 1147.334117 742.736589 
L 1149.911016 742.370961 
L 1152.487914 743.01303 
L 1160.218609 742.325301 
L 1162.795508 742.800932 
L 1165.372406 742.898663 
L 1167.949305 743.247618 
L 1170.526203 743.251852 
L 1173.103102 742.973098 
L 1175.68 742.422253 
L 1178.256898 742.618238 
L 1180.833797 743.218088 
L 1183.410695 742.799995 
L 1193.718289 742.95855 
L 1198.872086 743.421139 
L 1201.448984 743.346536 
L 1204.025883 743.013395 
L 1209.17968 743.231806 
L 1211.756578 743.606085 
L 1214.333477 743.549945 
L 1216.910375 742.944313 
L 1222.064172 742.436623 
L 1227.217969 743.078185 
L 1229.794867 742.83675 
L 1232.371766 742.228063 
L 1234.948664 742.287245 
L 1237.525563 742.178038 
L 1240.102461 742.629096 
L 1242.679359 742.815419 
L 1245.256258 742.358088 
L 1247.833156 742.663719 
L 1250.410055 742.838763 
L 1252.986953 743.132743 
L 1255.563852 743.040948 
L 1258.14075 742.509787 
L 1263.294547 742.549221 
L 1265.871445 743.099736 
L 1268.448344 743.189055 
L 1273.602141 742.654476 
L 1276.179039 742.999999 
L 1278.755938 742.407499 
L 1281.332836 742.623718 
L 1283.909734 743.412194 
L 1289.063531 742.509412 
L 1291.64043 742.40548 
L 1294.217328 742.788793 
L 1296.794227 742.45572 
L 1299.371125 743.122177 
L 1301.948023 742.989641 
L 1304.524922 742.455316 
L 1307.10182 742.468921 
L 1312.255617 741.72391 
L 1314.832516 741.588708 
L 1317.409414 742.341453 
L 1319.986313 742.500176 
L 1322.563211 742.340818 
L 1325.140109 742.301556 
L 1327.717008 742.398019 
L 1330.293906 742.968595 
L 1332.870805 743.011848 
L 1335.447703 743.321927 
L 1343.178398 742.837209 
L 1345.755297 742.588965 
L 1350.909094 742.882801 
L 1356.062891 743.808009 
L 1358.639789 743.487336 
L 1361.216688 743.042125 
L 1363.793586 743.037425 
L 1366.370484 743.44253 
L 1368.947383 742.71289 
L 1371.524281 743.148035 
L 1374.10118 742.917322 
L 1376.678078 742.971084 
L 1379.254977 742.856126 
L 1379.254977 742.856126 
" style="fill:none;stroke:#0000ff;stroke-linecap:square;stroke-width:2.0;"/>
   </g>
   <g id="line2d_2">
    <path clip-path="url(#p4763e8d5fa)" d="M 93.382656 125.256862 
L 95.959555 126.595609 
L 98.536453 128.648978 
L 101.113352 130.456003 
L 106.267148 133.710064 
L 108.844047 135.472118 
L 111.420945 137.402711 
L 116.574742 140.853042 
L 119.151641 142.889698 
L 124.305438 146.037554 
L 126.882336 147.187261 
L 129.459234 149.399149 
L 132.036133 151.108799 
L 134.613031 152.963348 
L 139.766828 157.157948 
L 144.920625 161.15082 
L 147.497523 163.464703 
L 150.074422 165.038372 
L 152.65132 166.774715 
L 155.228219 167.872545 
L 160.382016 170.82243 
L 162.958914 172.140609 
L 165.535813 173.699083 
L 168.112711 175.113598 
L 170.689609 176.814041 
L 173.266508 178.329498 
L 178.420305 181.659828 
L 186.151 187.617759 
L 191.304797 190.804891 
L 193.881695 192.809671 
L 196.458594 194.103566 
L 204.189289 199.101892 
L 206.766188 200.130398 
L 209.343086 201.668533 
L 211.919984 203.631922 
L 217.073781 206.591655 
L 219.65068 208.150973 
L 224.804477 211.767007 
L 227.381375 213.072054 
L 232.535172 216.510421 
L 235.11207 218.550876 
L 240.265867 222.13015 
L 242.842766 224.119268 
L 247.996563 227.660375 
L 250.573461 229.756927 
L 253.150359 231.70597 
L 255.727258 233.287833 
L 258.304156 235.085789 
L 260.881055 237.322989 
L 263.457953 238.680309 
L 266.034852 240.198101 
L 268.61175 242.228288 
L 271.188648 243.682473 
L 273.765547 245.548487 
L 276.342445 246.85139 
L 278.919344 248.601193 
L 281.496242 249.535646 
L 284.073141 251.526833 
L 289.226938 254.797537 
L 291.803836 255.862999 
L 294.380734 257.181834 
L 296.957633 259.020839 
L 299.534531 260.497075 
L 302.11143 262.538609 
L 304.688328 264.186163 
L 307.265227 266.028391 
L 309.842125 268.065 
L 314.995922 271.072744 
L 322.726617 275.07223 
L 325.303516 276.958836 
L 327.880414 278.435367 
L 330.457313 280.985898 
L 333.034211 282.566166 
L 335.611109 283.964352 
L 340.764906 286.287693 
L 343.341805 287.656346 
L 345.918703 289.429876 
L 348.495602 291.445336 
L 351.0725 292.771017 
L 353.649398 294.436401 
L 356.226297 296.383906 
L 358.803195 297.624979 
L 363.956992 300.606222 
L 369.110789 304.708333 
L 371.687688 306.088737 
L 379.418383 310.850087 
L 384.57218 314.171609 
L 387.149078 316.072536 
L 392.302875 319.213681 
L 397.456672 322.741148 
L 400.03357 324.20271 
L 402.610469 325.871145 
L 405.187367 327.358111 
L 407.764266 328.615051 
L 410.341164 330.287287 
L 412.918063 331.736868 
L 415.494961 333.360367 
L 423.225656 338.594511 
L 425.802555 339.807229 
L 428.379453 341.145839 
L 436.110148 345.646748 
L 438.687047 346.815424 
L 441.263945 348.567444 
L 443.840844 349.696801 
L 446.417742 351.19004 
L 451.571539 354.897191 
L 454.148438 357.000568 
L 456.725336 358.747955 
L 459.302234 360.065101 
L 461.879133 362.109097 
L 467.03293 364.984142 
L 469.609828 366.788687 
L 472.186727 368.90625 
L 477.340523 372.196339 
L 479.917422 373.670593 
L 485.071219 376.138887 
L 487.648117 377.937999 
L 490.225016 379.568577 
L 492.801914 380.977477 
L 495.378813 382.17706 
L 497.955711 383.581198 
L 500.532609 385.235275 
L 503.109508 387.173524 
L 505.686406 388.760194 
L 508.263305 390.155208 
L 510.840203 391.931213 
L 513.417102 393.529921 
L 515.994 395.268677 
L 518.570898 397.507749 
L 521.147797 397.714 
L 523.724695 399.647151 
L 526.301594 401.210854 
L 531.455391 403.80343 
L 534.032289 405.303545 
L 536.609188 407.00685 
L 539.186086 408.454199 
L 541.762984 410.180071 
L 549.49368 414.663111 
L 552.070578 415.987663 
L 557.224375 419.017792 
L 562.378172 421.804237 
L 564.95507 423.620797 
L 567.531969 425.240941 
L 570.108867 427.009849 
L 572.685766 429.325085 
L 577.839563 432.626081 
L 580.416461 434.438874 
L 582.993359 435.798381 
L 585.570258 437.293041 
L 588.147156 438.507261 
L 593.300953 441.769845 
L 595.877852 443.070266 
L 598.45475 444.513363 
L 601.031648 445.813115 
L 603.608547 447.259421 
L 606.185445 448.244347 
L 608.762344 449.402776 
L 611.339242 451.330939 
L 613.916141 452.787229 
L 616.493039 455.287651 
L 619.069938 456.56317 
L 621.646836 458.643271 
L 624.223734 460.361342 
L 629.377531 463.310445 
L 631.95443 465.389636 
L 634.531328 466.905487 
L 637.108227 468.561135 
L 639.685125 469.857366 
L 642.262023 471.866793 
L 647.41582 474.697336 
L 652.569617 477.394421 
L 655.146516 479.560196 
L 657.723414 481.3677 
L 660.300313 482.818755 
L 662.877211 484.583415 
L 665.454109 485.875186 
L 668.031008 487.331258 
L 670.607906 489.123238 
L 673.184805 490.609316 
L 680.9155 496.327308 
L 683.492398 497.937843 
L 686.069297 499.298513 
L 688.646195 500.464306 
L 691.223094 502.159371 
L 693.799992 503.591347 
L 698.953789 506.797951 
L 704.107586 511.079372 
L 706.684484 513.062953 
L 709.261383 514.798702 
L 716.992078 520.562208 
L 719.568977 522.068892 
L 722.145875 523.963254 
L 724.722773 525.333928 
L 727.299672 527.00421 
L 729.87657 528.35937 
L 732.453469 529.861113 
L 735.030367 531.845077 
L 737.607266 533.277233 
L 740.184164 535.397044 
L 742.761062 536.681195 
L 745.337961 538.241687 
L 747.914859 539.595129 
L 750.491758 541.655455 
L 753.068656 542.742026 
L 755.645555 544.198787 
L 760.799352 547.55713 
L 763.37625 548.869633 
L 768.530047 552.066025 
L 771.106945 553.42996 
L 773.683844 554.930945 
L 776.260742 556.725993 
L 778.837641 557.978246 
L 781.414539 560.153828 
L 791.722133 566.967668 
L 794.299031 568.137333 
L 796.87593 569.985748 
L 799.452828 571.265769 
L 802.029727 572.724633 
L 804.606625 574.039085 
L 809.760422 577.028846 
L 812.33732 578.799264 
L 814.914219 580.228521 
L 817.491117 582.058579 
L 820.068016 583.589685 
L 822.644914 585.531191 
L 825.221813 586.805978 
L 827.798711 588.23322 
L 832.952508 591.782919 
L 835.529406 593.073829 
L 838.106305 594.181828 
L 845.837 599.202986 
L 850.990797 602.290527 
L 856.144594 606.126985 
L 858.721492 607.435432 
L 863.875289 610.599489 
L 866.452188 612.719709 
L 869.029086 613.960828 
L 874.182883 617.003636 
L 876.759781 618.264634 
L 879.33668 619.950986 
L 881.913578 622.176512 
L 892.221172 628.32774 
L 894.79807 630.334702 
L 897.374969 631.527887 
L 899.951867 633.096507 
L 902.528766 634.457966 
L 905.105664 636.106088 
L 907.682563 638.433871 
L 912.836359 641.656837 
L 915.413258 642.844589 
L 917.990156 644.253747 
L 920.567055 646.122355 
L 923.143953 647.575794 
L 925.720852 649.681701 
L 928.29775 651.293648 
L 930.874648 652.486013 
L 933.451547 654.433462 
L 936.028445 656.176193 
L 938.605344 658.804664 
L 941.182242 660.720461 
L 948.912937 665.898448 
L 951.489836 667.409736 
L 954.066734 669.306043 
L 956.643633 670.796114 
L 959.220531 671.996026 
L 961.79743 673.483462 
L 964.374328 675.395775 
L 966.951227 677.509066 
L 972.105023 681.080241 
L 974.681922 682.466466 
L 977.25882 684.290451 
L 979.835719 686.419358 
L 982.412617 688.133943 
L 984.989516 689.366493 
L 987.566414 690.912063 
L 990.143312 692.689068 
L 992.720211 694.175329 
L 995.297109 695.121964 
L 997.874008 697.012627 
L 1000.450906 698.501712 
L 1003.027805 699.782721 
L 1008.181602 703.680444 
L 1010.7585 705.359185 
L 1013.335398 706.831167 
L 1015.912297 709.145931 
L 1018.489195 710.726493 
L 1021.066094 711.948362 
L 1023.642992 712.836416 
L 1026.219891 714.49622 
L 1028.796789 715.690449 
L 1031.373688 717.764553 
L 1039.104383 721.887015 
L 1041.681281 723.345325 
L 1044.25818 724.610083 
L 1046.835078 726.095008 
L 1049.411977 727.100958 
L 1051.988875 728.481479 
L 1057.142672 730.713178 
L 1059.71957 731.766344 
L 1062.296469 732.992539 
L 1064.873367 734.889953 
L 1067.450266 736.494215 
L 1075.180961 738.596536 
L 1077.757859 738.406611 
L 1082.911656 739.541791 
L 1085.488555 739.224379 
L 1088.065453 740.323076 
L 1090.642352 740.123747 
L 1093.21925 740.392565 
L 1095.796148 740.50047 
L 1098.373047 741.118801 
L 1103.526844 740.881088 
L 1106.103742 741.903964 
L 1108.680641 741.899427 
L 1111.257539 741.439453 
L 1113.834438 741.547548 
L 1116.411336 741.949665 
L 1118.988234 741.652908 
L 1121.565133 741.484857 
L 1124.142031 741.840911 
L 1126.71893 741.609141 
L 1129.295828 741.762233 
L 1131.872727 741.553515 
L 1134.449625 741.722237 
L 1137.026523 741.485921 
L 1139.603422 741.551059 
L 1142.18032 741.490507 
L 1144.757219 741.132293 
L 1149.911016 741.593762 
L 1152.487914 742.076677 
L 1155.064813 742.210723 
L 1157.641711 741.945281 
L 1160.218609 742.328663 
L 1162.795508 741.950459 
L 1165.372406 742.159738 
L 1167.949305 741.746735 
L 1170.526203 742.140189 
L 1173.103102 742.788009 
L 1175.68 742.743775 
L 1178.256898 742.273857 
L 1180.833797 741.987866 
L 1188.564492 742.413116 
L 1193.718289 742.298628 
L 1196.295188 742.399935 
L 1198.872086 741.468646 
L 1201.448984 741.636502 
L 1206.602781 741.43144 
L 1209.17968 741.669418 
L 1214.333477 741.824705 
L 1216.910375 741.701032 
L 1219.487273 741.313908 
L 1229.794867 742.35695 
L 1232.371766 742.091613 
L 1234.948664 742.286443 
L 1237.525563 742.369298 
L 1240.102461 742.282456 
L 1242.679359 743.296264 
L 1245.256258 743.565412 
L 1250.410055 741.988878 
L 1252.986953 742.202556 
L 1255.563852 742.279416 
L 1258.14075 742.197256 
L 1260.717648 742.589249 
L 1263.294547 742.601142 
L 1265.871445 742.247446 
L 1268.448344 742.585765 
L 1271.025242 742.730705 
L 1273.602141 742.605464 
L 1276.179039 742.671238 
L 1278.755938 742.362882 
L 1281.332836 742.389568 
L 1286.486633 741.638673 
L 1289.063531 742.115128 
L 1296.794227 742.51897 
L 1299.371125 743.332797 
L 1301.948023 742.736255 
L 1304.524922 741.921758 
L 1307.10182 741.894517 
L 1309.678719 742.134511 
L 1312.255617 741.821275 
L 1314.832516 742.462291 
L 1317.409414 742.45755 
L 1319.986313 742.195185 
L 1322.563211 742.697437 
L 1325.140109 742.722972 
L 1327.717008 742.551048 
L 1330.293906 742.577805 
L 1332.870805 742.459132 
L 1338.024602 741.8724 
L 1340.6015 741.991647 
L 1343.178398 742.28514 
L 1345.755297 742.743973 
L 1348.332195 743.065139 
L 1350.909094 742.881808 
L 1353.485992 743.634159 
L 1356.062891 742.719498 
L 1358.639789 742.294614 
L 1368.947383 742.29419 
L 1371.524281 741.877315 
L 1376.678078 742.632077 
L 1379.254977 742.331058 
L 1379.254977 742.331058 
" style="fill:none;stroke:#008000;stroke-linecap:square;stroke-width:2.0;"/>
   </g>
   <g id="patch_3">
    <path d="M 93.382656 57.915781 
L 1381.831875 57.915781 
" style="fill:none;stroke:#000000;stroke-linecap:square;stroke-linejoin:miter;"/>
   </g>
   <g id="patch_4">
    <path d="M 1381.831875 770.338125 
L 1381.831875 57.915781 
" style="fill:none;stroke:#000000;stroke-linecap:square;stroke-linejoin:miter;"/>
   </g>
   <g id="patch_5">
    <path d="M 93.382656 770.338125 
L 1381.831875 770.338125 
" style="fill:none;stroke:#000000;stroke-linecap:square;stroke-linejoin:miter;"/>
   </g>
   <g id="patch_6">
    <path d="M 93.382656 770.338125 
L 93.382656 57.915781 
" style="fill:none;stroke:#000000;stroke-linecap:square;stroke-linejoin:miter;"/>
   </g>
   <g id="matplotlib.axis_1">
    <g id="xtick_1">
     <g id="line2d_3">
      <defs>
       <path d="M 0 0 
L 0 -4 
" id="m2c2a86cb8d" style="stroke:#000000;stroke-width:0.5;"/>
      </defs>
      <g>
       <use style="stroke:#000000;stroke-width:0.5;" x="93.38265625" xlink:href="#m2c2a86cb8d" y="770.338125"/>
      </g>
     </g>
     <g id="line2d_4">
      <defs>
       <path d="M 0 0 
L 0 4 
" id="m8b782381da" style="stroke:#000000;stroke-width:0.5;"/>
      </defs>
      <g>
       <use style="stroke:#000000;stroke-width:0.5;" x="93.38265625" xlink:href="#m8b782381da" y="57.91578125"/>
      </g>
     </g>
     <g id="text_1">
      <!-- 0 -->
      <defs>
       <path d="M 31.78125 66.40625 
Q 24.171875 66.40625 20.328125 58.90625 
Q 16.5 51.421875 16.5 36.375 
Q 16.5 21.390625 20.328125 13.890625 
Q 24.171875 6.390625 31.78125 6.390625 
Q 39.453125 6.390625 43.28125 13.890625 
Q 47.125 21.390625 47.125 36.375 
Q 47.125 51.421875 43.28125 58.90625 
Q 39.453125 66.40625 31.78125 66.40625 
M 31.78125 74.21875 
Q 44.046875 74.21875 50.515625 64.515625 
Q 56.984375 54.828125 56.984375 36.375 
Q 56.984375 17.96875 50.515625 8.265625 
Q 44.046875 -1.421875 31.78125 -1.421875 
Q 19.53125 -1.421875 13.0625 8.265625 
Q 6.59375 17.96875 6.59375 36.375 
Q 6.59375 54.828125 13.0625 64.515625 
Q 19.53125 74.21875 31.78125 74.21875 
" id="BitstreamVeraSans-Roman-30"/>
      </defs>
      <g transform="translate(83.83890625 797.1334375)scale(0.3 -0.3)">
       <use xlink:href="#BitstreamVeraSans-Roman-30"/>
      </g>
     </g>
    </g>
    <g id="xtick_2">
     <g id="line2d_5">
      <g>
       <use style="stroke:#000000;stroke-width:0.5;" x="351.0725" xlink:href="#m2c2a86cb8d" y="770.338125"/>
      </g>
     </g>
     <g id="line2d_6">
      <g>
       <use style="stroke:#000000;stroke-width:0.5;" x="351.0725" xlink:href="#m8b782381da" y="57.91578125"/>
      </g>
     </g>
     <g id="text_2">
      <!-- 100 -->
      <defs>
       <path d="M 12.40625 8.296875 
L 28.515625 8.296875 
L 28.515625 63.921875 
L 10.984375 60.40625 
L 10.984375 69.390625 
L 28.421875 72.90625 
L 38.28125 72.90625 
L 38.28125 8.296875 
L 54.390625 8.296875 
L 54.390625 0 
L 12.40625 0 
z
" id="BitstreamVeraSans-Roman-31"/>
      </defs>
      <g transform="translate(322.44125 797.1334375)scale(0.3 -0.3)">
       <use xlink:href="#BitstreamVeraSans-Roman-31"/>
       <use x="63.623046875" xlink:href="#BitstreamVeraSans-Roman-30"/>
       <use x="127.24609375" xlink:href="#BitstreamVeraSans-Roman-30"/>
      </g>
     </g>
    </g>
    <g id="xtick_3">
     <g id="line2d_7">
      <g>
       <use style="stroke:#000000;stroke-width:0.5;" x="608.76234375" xlink:href="#m2c2a86cb8d" y="770.338125"/>
      </g>
     </g>
     <g id="line2d_8">
      <g>
       <use style="stroke:#000000;stroke-width:0.5;" x="608.76234375" xlink:href="#m8b782381da" y="57.91578125"/>
      </g>
     </g>
     <g id="text_3">
      <!-- 200 -->
      <defs>
       <path d="M 19.1875 8.296875 
L 53.609375 8.296875 
L 53.609375 0 
L 7.328125 0 
L 7.328125 8.296875 
Q 12.9375 14.109375 22.625 23.890625 
Q 32.328125 33.6875 34.8125 36.53125 
Q 39.546875 41.84375 41.421875 45.53125 
Q 43.3125 49.21875 43.3125 52.78125 
Q 43.3125 58.59375 39.234375 62.25 
Q 35.15625 65.921875 28.609375 65.921875 
Q 23.96875 65.921875 18.8125 64.3125 
Q 13.671875 62.703125 7.8125 59.421875 
L 7.8125 69.390625 
Q 13.765625 71.78125 18.9375 73 
Q 24.125 74.21875 28.421875 74.21875 
Q 39.75 74.21875 46.484375 68.546875 
Q 53.21875 62.890625 53.21875 53.421875 
Q 53.21875 48.921875 51.53125 44.890625 
Q 49.859375 40.875 45.40625 35.40625 
Q 44.1875 33.984375 37.640625 27.21875 
Q 31.109375 20.453125 19.1875 8.296875 
" id="BitstreamVeraSans-Roman-32"/>
      </defs>
      <g transform="translate(580.13109375 797.1334375)scale(0.3 -0.3)">
       <use xlink:href="#BitstreamVeraSans-Roman-32"/>
       <use x="63.623046875" xlink:href="#BitstreamVeraSans-Roman-30"/>
       <use x="127.24609375" xlink:href="#BitstreamVeraSans-Roman-30"/>
      </g>
     </g>
    </g>
    <g id="xtick_4">
     <g id="line2d_9">
      <g>
       <use style="stroke:#000000;stroke-width:0.5;" x="866.4521875" xlink:href="#m2c2a86cb8d" y="770.338125"/>
      </g>
     </g>
     <g id="line2d_10">
      <g>
       <use style="stroke:#000000;stroke-width:0.5;" x="866.4521875" xlink:href="#m8b782381da" y="57.91578125"/>
      </g>
     </g>
     <g id="text_4">
      <!-- 300 -->
      <defs>
       <path d="M 40.578125 39.3125 
Q 47.65625 37.796875 51.625 33 
Q 55.609375 28.21875 55.609375 21.1875 
Q 55.609375 10.40625 48.1875 4.484375 
Q 40.765625 -1.421875 27.09375 -1.421875 
Q 22.515625 -1.421875 17.65625 -0.515625 
Q 12.796875 0.390625 7.625 2.203125 
L 7.625 11.71875 
Q 11.71875 9.328125 16.59375 8.109375 
Q 21.484375 6.890625 26.8125 6.890625 
Q 36.078125 6.890625 40.9375 10.546875 
Q 45.796875 14.203125 45.796875 21.1875 
Q 45.796875 27.640625 41.28125 31.265625 
Q 36.765625 34.90625 28.71875 34.90625 
L 20.21875 34.90625 
L 20.21875 43.015625 
L 29.109375 43.015625 
Q 36.375 43.015625 40.234375 45.921875 
Q 44.09375 48.828125 44.09375 54.296875 
Q 44.09375 59.90625 40.109375 62.90625 
Q 36.140625 65.921875 28.71875 65.921875 
Q 24.65625 65.921875 20.015625 65.03125 
Q 15.375 64.15625 9.8125 62.3125 
L 9.8125 71.09375 
Q 15.4375 72.65625 20.34375 73.4375 
Q 25.25 74.21875 29.59375 74.21875 
Q 40.828125 74.21875 47.359375 69.109375 
Q 53.90625 64.015625 53.90625 55.328125 
Q 53.90625 49.265625 50.4375 45.09375 
Q 46.96875 40.921875 40.578125 39.3125 
" id="BitstreamVeraSans-Roman-33"/>
      </defs>
      <g transform="translate(837.8209375 797.1334375)scale(0.3 -0.3)">
       <use xlink:href="#BitstreamVeraSans-Roman-33"/>
       <use x="63.623046875" xlink:href="#BitstreamVeraSans-Roman-30"/>
       <use x="127.24609375" xlink:href="#BitstreamVeraSans-Roman-30"/>
      </g>
     </g>
    </g>
    <g id="xtick_5">
     <g id="line2d_11">
      <g>
       <use style="stroke:#000000;stroke-width:0.5;" x="1124.14203125" xlink:href="#m2c2a86cb8d" y="770.338125"/>
      </g>
     </g>
     <g id="line2d_12">
      <g>
       <use style="stroke:#000000;stroke-width:0.5;" x="1124.14203125" xlink:href="#m8b782381da" y="57.91578125"/>
      </g>
     </g>
     <g id="text_5">
      <!-- 400 -->
      <defs>
       <path d="M 37.796875 64.3125 
L 12.890625 25.390625 
L 37.796875 25.390625 
z
M 35.203125 72.90625 
L 47.609375 72.90625 
L 47.609375 25.390625 
L 58.015625 25.390625 
L 58.015625 17.1875 
L 47.609375 17.1875 
L 47.609375 0 
L 37.796875 0 
L 37.796875 17.1875 
L 4.890625 17.1875 
L 4.890625 26.703125 
z
" id="BitstreamVeraSans-Roman-34"/>
      </defs>
      <g transform="translate(1095.51078125 797.1334375)scale(0.3 -0.3)">
       <use xlink:href="#BitstreamVeraSans-Roman-34"/>
       <use x="63.623046875" xlink:href="#BitstreamVeraSans-Roman-30"/>
       <use x="127.24609375" xlink:href="#BitstreamVeraSans-Roman-30"/>
      </g>
     </g>
    </g>
    <g id="xtick_6">
     <g id="line2d_13">
      <g>
       <use style="stroke:#000000;stroke-width:0.5;" x="1381.831875" xlink:href="#m2c2a86cb8d" y="770.338125"/>
      </g>
     </g>
     <g id="line2d_14">
      <g>
       <use style="stroke:#000000;stroke-width:0.5;" x="1381.831875" xlink:href="#m8b782381da" y="57.91578125"/>
      </g>
     </g>
     <g id="text_6">
      <!-- 500 -->
      <defs>
       <path d="M 10.796875 72.90625 
L 49.515625 72.90625 
L 49.515625 64.59375 
L 19.828125 64.59375 
L 19.828125 46.734375 
Q 21.96875 47.46875 24.109375 47.828125 
Q 26.265625 48.1875 28.421875 48.1875 
Q 40.625 48.1875 47.75 41.5 
Q 54.890625 34.8125 54.890625 23.390625 
Q 54.890625 11.625 47.5625 5.09375 
Q 40.234375 -1.421875 26.90625 -1.421875 
Q 22.3125 -1.421875 17.546875 -0.640625 
Q 12.796875 0.140625 7.71875 1.703125 
L 7.71875 11.625 
Q 12.109375 9.234375 16.796875 8.0625 
Q 21.484375 6.890625 26.703125 6.890625 
Q 35.15625 6.890625 40.078125 11.328125 
Q 45.015625 15.765625 45.015625 23.390625 
Q 45.015625 31 40.078125 35.4375 
Q 35.15625 39.890625 26.703125 39.890625 
Q 22.75 39.890625 18.8125 39.015625 
Q 14.890625 38.140625 10.796875 36.28125 
z
" id="BitstreamVeraSans-Roman-35"/>
      </defs>
      <g transform="translate(1353.200625 797.1334375)scale(0.3 -0.3)">
       <use xlink:href="#BitstreamVeraSans-Roman-35"/>
       <use x="63.623046875" xlink:href="#BitstreamVeraSans-Roman-30"/>
       <use x="127.24609375" xlink:href="#BitstreamVeraSans-Roman-30"/>
      </g>
     </g>
    </g>
    <g id="text_7">
     <!-- iterations -->
     <defs>
      <path d="M 54.890625 33.015625 
L 54.890625 0 
L 45.90625 0 
L 45.90625 32.71875 
Q 45.90625 40.484375 42.875 44.328125 
Q 39.84375 48.1875 33.796875 48.1875 
Q 26.515625 48.1875 22.3125 43.546875 
Q 18.109375 38.921875 18.109375 30.90625 
L 18.109375 0 
L 9.078125 0 
L 9.078125 54.6875 
L 18.109375 54.6875 
L 18.109375 46.1875 
Q 21.34375 51.125 25.703125 53.5625 
Q 30.078125 56 35.796875 56 
Q 45.21875 56 50.046875 50.171875 
Q 54.890625 44.34375 54.890625 33.015625 
" id="BitstreamVeraSans-Roman-6e"/>
      <path d="M 34.28125 27.484375 
Q 23.390625 27.484375 19.1875 25 
Q 14.984375 22.515625 14.984375 16.5 
Q 14.984375 11.71875 18.140625 8.90625 
Q 21.296875 6.109375 26.703125 6.109375 
Q 34.1875 6.109375 38.703125 11.40625 
Q 43.21875 16.703125 43.21875 25.484375 
L 43.21875 27.484375 
z
M 52.203125 31.203125 
L 52.203125 0 
L 43.21875 0 
L 43.21875 8.296875 
Q 40.140625 3.328125 35.546875 0.953125 
Q 30.953125 -1.421875 24.3125 -1.421875 
Q 15.921875 -1.421875 10.953125 3.296875 
Q 6 8.015625 6 15.921875 
Q 6 25.140625 12.171875 29.828125 
Q 18.359375 34.515625 30.609375 34.515625 
L 43.21875 34.515625 
L 43.21875 35.40625 
Q 43.21875 41.609375 39.140625 45 
Q 35.0625 48.390625 27.6875 48.390625 
Q 23 48.390625 18.546875 47.265625 
Q 14.109375 46.140625 10.015625 43.890625 
L 10.015625 52.203125 
Q 14.9375 54.109375 19.578125 55.046875 
Q 24.21875 56 28.609375 56 
Q 40.484375 56 46.34375 49.84375 
Q 52.203125 43.703125 52.203125 31.203125 
" id="BitstreamVeraSans-Roman-61"/>
      <path d="M 30.609375 48.390625 
Q 23.390625 48.390625 19.1875 42.75 
Q 14.984375 37.109375 14.984375 27.296875 
Q 14.984375 17.484375 19.15625 11.84375 
Q 23.34375 6.203125 30.609375 6.203125 
Q 37.796875 6.203125 41.984375 11.859375 
Q 46.1875 17.53125 46.1875 27.296875 
Q 46.1875 37.015625 41.984375 42.703125 
Q 37.796875 48.390625 30.609375 48.390625 
M 30.609375 56 
Q 42.328125 56 49.015625 48.375 
Q 55.71875 40.765625 55.71875 27.296875 
Q 55.71875 13.875 49.015625 6.21875 
Q 42.328125 -1.421875 30.609375 -1.421875 
Q 18.84375 -1.421875 12.171875 6.21875 
Q 5.515625 13.875 5.515625 27.296875 
Q 5.515625 40.765625 12.171875 48.375 
Q 18.84375 56 30.609375 56 
" id="BitstreamVeraSans-Roman-6f"/>
      <path d="M 9.421875 54.6875 
L 18.40625 54.6875 
L 18.40625 0 
L 9.421875 0 
z
M 9.421875 75.984375 
L 18.40625 75.984375 
L 18.40625 64.59375 
L 9.421875 64.59375 
z
" id="BitstreamVeraSans-Roman-69"/>
      <path d="M 56.203125 29.59375 
L 56.203125 25.203125 
L 14.890625 25.203125 
Q 15.484375 15.921875 20.484375 11.0625 
Q 25.484375 6.203125 34.421875 6.203125 
Q 39.59375 6.203125 44.453125 7.46875 
Q 49.3125 8.734375 54.109375 11.28125 
L 54.109375 2.78125 
Q 49.265625 0.734375 44.1875 -0.34375 
Q 39.109375 -1.421875 33.890625 -1.421875 
Q 20.796875 -1.421875 13.15625 6.1875 
Q 5.515625 13.8125 5.515625 26.8125 
Q 5.515625 40.234375 12.765625 48.109375 
Q 20.015625 56 32.328125 56 
Q 43.359375 56 49.78125 48.890625 
Q 56.203125 41.796875 56.203125 29.59375 
M 47.21875 32.234375 
Q 47.125 39.59375 43.09375 43.984375 
Q 39.0625 48.390625 32.421875 48.390625 
Q 24.90625 48.390625 20.390625 44.140625 
Q 15.875 39.890625 15.1875 32.171875 
z
" id="BitstreamVeraSans-Roman-65"/>
      <path d="M 18.3125 70.21875 
L 18.3125 54.6875 
L 36.8125 54.6875 
L 36.8125 47.703125 
L 18.3125 47.703125 
L 18.3125 18.015625 
Q 18.3125 11.328125 20.140625 9.421875 
Q 21.96875 7.515625 27.59375 7.515625 
L 36.8125 7.515625 
L 36.8125 0 
L 27.59375 0 
Q 17.1875 0 13.234375 3.875 
Q 9.28125 7.765625 9.28125 18.015625 
L 9.28125 47.703125 
L 2.6875 47.703125 
L 2.6875 54.6875 
L 9.28125 54.6875 
L 9.28125 70.21875 
z
" id="BitstreamVeraSans-Roman-74"/>
      <path d="M 41.109375 46.296875 
Q 39.59375 47.171875 37.8125 47.578125 
Q 36.03125 48 33.890625 48 
Q 26.265625 48 22.1875 43.046875 
Q 18.109375 38.09375 18.109375 28.8125 
L 18.109375 0 
L 9.078125 0 
L 9.078125 54.6875 
L 18.109375 54.6875 
L 18.109375 46.1875 
Q 20.953125 51.171875 25.484375 53.578125 
Q 30.03125 56 36.53125 56 
Q 37.453125 56 38.578125 55.875 
Q 39.703125 55.765625 41.0625 55.515625 
z
" id="BitstreamVeraSans-Roman-72"/>
      <path d="M 44.28125 53.078125 
L 44.28125 44.578125 
Q 40.484375 46.53125 36.375 47.5 
Q 32.28125 48.484375 27.875 48.484375 
Q 21.1875 48.484375 17.84375 46.4375 
Q 14.5 44.390625 14.5 40.28125 
Q 14.5 37.15625 16.890625 35.375 
Q 19.28125 33.59375 26.515625 31.984375 
L 29.59375 31.296875 
Q 39.15625 29.25 43.1875 25.515625 
Q 47.21875 21.78125 47.21875 15.09375 
Q 47.21875 7.46875 41.1875 3.015625 
Q 35.15625 -1.421875 24.609375 -1.421875 
Q 20.21875 -1.421875 15.453125 -0.5625 
Q 10.6875 0.296875 5.421875 2 
L 5.421875 11.28125 
Q 10.40625 8.6875 15.234375 7.390625 
Q 20.0625 6.109375 24.8125 6.109375 
Q 31.15625 6.109375 34.5625 8.28125 
Q 37.984375 10.453125 37.984375 14.40625 
Q 37.984375 18.0625 35.515625 20.015625 
Q 33.0625 21.96875 24.703125 23.78125 
L 21.578125 24.515625 
Q 13.234375 26.265625 9.515625 29.90625 
Q 5.8125 33.546875 5.8125 39.890625 
Q 5.8125 47.609375 11.28125 51.796875 
Q 16.75 56 26.8125 56 
Q 31.78125 56 36.171875 55.265625 
Q 40.578125 54.546875 44.28125 53.078125 
" id="BitstreamVeraSans-Roman-73"/>
     </defs>
     <g transform="translate(666.425234375 831.1678125)scale(0.3 -0.3)">
      <use xlink:href="#BitstreamVeraSans-Roman-69"/>
      <use x="27.783203125" xlink:href="#BitstreamVeraSans-Roman-74"/>
      <use x="66.9921875" xlink:href="#BitstreamVeraSans-Roman-65"/>
      <use x="128.515625" xlink:href="#BitstreamVeraSans-Roman-72"/>
      <use x="169.62890625" xlink:href="#BitstreamVeraSans-Roman-61"/>
      <use x="230.908203125" xlink:href="#BitstreamVeraSans-Roman-74"/>
      <use x="270.1171875" xlink:href="#BitstreamVeraSans-Roman-69"/>
      <use x="297.900390625" xlink:href="#BitstreamVeraSans-Roman-6f"/>
      <use x="359.08203125" xlink:href="#BitstreamVeraSans-Roman-6e"/>
      <use x="422.4609375" xlink:href="#BitstreamVeraSans-Roman-73"/>
     </g>
    </g>
   </g>
   <g id="matplotlib.axis_2">
    <g id="ytick_1">
     <g id="line2d_15">
      <defs>
       <path d="M 0 0 
L 4 0 
" id="m7468238b53" style="stroke:#000000;stroke-width:0.5;"/>
      </defs>
      <g>
       <use style="stroke:#000000;stroke-width:0.5;" x="93.38265625" xlink:href="#m7468238b53" y="770.338125"/>
      </g>
     </g>
     <g id="line2d_16">
      <defs>
       <path d="M 0 0 
L -4 0 
" id="ma6a721f591" style="stroke:#000000;stroke-width:0.5;"/>
      </defs>
      <g>
       <use style="stroke:#000000;stroke-width:0.5;" x="1381.831875" xlink:href="#ma6a721f591" y="770.338125"/>
      </g>
     </g>
     <g id="text_8">
      <!-- −60 -->
      <defs>
       <path d="M 10.59375 35.5 
L 73.1875 35.5 
L 73.1875 27.203125 
L 10.59375 27.203125 
z
" id="BitstreamVeraSans-Roman-2212"/>
       <path d="M 33.015625 40.375 
Q 26.375 40.375 22.484375 35.828125 
Q 18.609375 31.296875 18.609375 23.390625 
Q 18.609375 15.53125 22.484375 10.953125 
Q 26.375 6.390625 33.015625 6.390625 
Q 39.65625 6.390625 43.53125 10.953125 
Q 47.40625 15.53125 47.40625 23.390625 
Q 47.40625 31.296875 43.53125 35.828125 
Q 39.65625 40.375 33.015625 40.375 
M 52.59375 71.296875 
L 52.59375 62.3125 
Q 48.875 64.0625 45.09375 64.984375 
Q 41.3125 65.921875 37.59375 65.921875 
Q 27.828125 65.921875 22.671875 59.328125 
Q 17.53125 52.734375 16.796875 39.40625 
Q 19.671875 43.65625 24.015625 45.921875 
Q 28.375 48.1875 33.59375 48.1875 
Q 44.578125 48.1875 50.953125 41.515625 
Q 57.328125 34.859375 57.328125 23.390625 
Q 57.328125 12.15625 50.6875 5.359375 
Q 44.046875 -1.421875 33.015625 -1.421875 
Q 20.359375 -1.421875 13.671875 8.265625 
Q 6.984375 17.96875 6.984375 36.375 
Q 6.984375 53.65625 15.1875 63.9375 
Q 23.390625 74.21875 37.203125 74.21875 
Q 40.921875 74.21875 44.703125 73.484375 
Q 48.484375 72.75 52.59375 71.296875 
" id="BitstreamVeraSans-Roman-36"/>
      </defs>
      <g transform="translate(26.06859375 778.61625)scale(0.3 -0.3)">
       <use xlink:href="#BitstreamVeraSans-Roman-2212"/>
       <use x="83.7890625" xlink:href="#BitstreamVeraSans-Roman-36"/>
       <use x="147.412109375" xlink:href="#BitstreamVeraSans-Roman-30"/>
      </g>
     </g>
    </g>
    <g id="ytick_2">
     <g id="line2d_17">
      <g>
       <use style="stroke:#000000;stroke-width:0.5;" x="93.38265625" xlink:href="#m7468238b53" y="681.285332031"/>
      </g>
     </g>
     <g id="line2d_18">
      <g>
       <use style="stroke:#000000;stroke-width:0.5;" x="1381.831875" xlink:href="#ma6a721f591" y="681.285332031"/>
      </g>
     </g>
     <g id="text_9">
      <!-- −50 -->
      <g transform="translate(26.06859375 689.563457031)scale(0.3 -0.3)">
       <use xlink:href="#BitstreamVeraSans-Roman-2212"/>
       <use x="83.7890625" xlink:href="#BitstreamVeraSans-Roman-35"/>
       <use x="147.412109375" xlink:href="#BitstreamVeraSans-Roman-30"/>
      </g>
     </g>
    </g>
    <g id="ytick_3">
     <g id="line2d_19">
      <g>
       <use style="stroke:#000000;stroke-width:0.5;" x="93.38265625" xlink:href="#m7468238b53" y="592.232539062"/>
      </g>
     </g>
     <g id="line2d_20">
      <g>
       <use style="stroke:#000000;stroke-width:0.5;" x="1381.831875" xlink:href="#ma6a721f591" y="592.232539062"/>
      </g>
     </g>
     <g id="text_10">
      <!-- −40 -->
      <g transform="translate(26.06859375 600.510664062)scale(0.3 -0.3)">
       <use xlink:href="#BitstreamVeraSans-Roman-2212"/>
       <use x="83.7890625" xlink:href="#BitstreamVeraSans-Roman-34"/>
       <use x="147.412109375" xlink:href="#BitstreamVeraSans-Roman-30"/>
      </g>
     </g>
    </g>
    <g id="ytick_4">
     <g id="line2d_21">
      <g>
       <use style="stroke:#000000;stroke-width:0.5;" x="93.38265625" xlink:href="#m7468238b53" y="503.179746094"/>
      </g>
     </g>
     <g id="line2d_22">
      <g>
       <use style="stroke:#000000;stroke-width:0.5;" x="1381.831875" xlink:href="#ma6a721f591" y="503.179746094"/>
      </g>
     </g>
     <g id="text_11">
      <!-- −30 -->
      <g transform="translate(26.06859375 511.457871094)scale(0.3 -0.3)">
       <use xlink:href="#BitstreamVeraSans-Roman-2212"/>
       <use x="83.7890625" xlink:href="#BitstreamVeraSans-Roman-33"/>
       <use x="147.412109375" xlink:href="#BitstreamVeraSans-Roman-30"/>
      </g>
     </g>
    </g>
    <g id="ytick_5">
     <g id="line2d_23">
      <g>
       <use style="stroke:#000000;stroke-width:0.5;" x="93.38265625" xlink:href="#m7468238b53" y="414.126953125"/>
      </g>
     </g>
     <g id="line2d_24">
      <g>
       <use style="stroke:#000000;stroke-width:0.5;" x="1381.831875" xlink:href="#ma6a721f591" y="414.126953125"/>
      </g>
     </g>
     <g id="text_12">
      <!-- −20 -->
      <g transform="translate(26.06859375 422.405078125)scale(0.3 -0.3)">
       <use xlink:href="#BitstreamVeraSans-Roman-2212"/>
       <use x="83.7890625" xlink:href="#BitstreamVeraSans-Roman-32"/>
       <use x="147.412109375" xlink:href="#BitstreamVeraSans-Roman-30"/>
      </g>
     </g>
    </g>
    <g id="ytick_6">
     <g id="line2d_25">
      <g>
       <use style="stroke:#000000;stroke-width:0.5;" x="93.38265625" xlink:href="#m7468238b53" y="325.074160156"/>
      </g>
     </g>
     <g id="line2d_26">
      <g>
       <use style="stroke:#000000;stroke-width:0.5;" x="1381.831875" xlink:href="#ma6a721f591" y="325.074160156"/>
      </g>
     </g>
     <g id="text_13">
      <!-- −10 -->
      <g transform="translate(26.06859375 333.352285156)scale(0.3 -0.3)">
       <use xlink:href="#BitstreamVeraSans-Roman-2212"/>
       <use x="83.7890625" xlink:href="#BitstreamVeraSans-Roman-31"/>
       <use x="147.412109375" xlink:href="#BitstreamVeraSans-Roman-30"/>
      </g>
     </g>
    </g>
    <g id="ytick_7">
     <g id="line2d_27">
      <g>
       <use style="stroke:#000000;stroke-width:0.5;" x="93.38265625" xlink:href="#m7468238b53" y="236.021367188"/>
      </g>
     </g>
     <g id="line2d_28">
      <g>
       <use style="stroke:#000000;stroke-width:0.5;" x="1381.831875" xlink:href="#ma6a721f591" y="236.021367188"/>
      </g>
     </g>
     <g id="text_14">
      <!-- 0 -->
      <g transform="translate(70.29515625 244.299492188)scale(0.3 -0.3)">
       <use xlink:href="#BitstreamVeraSans-Roman-30"/>
      </g>
     </g>
    </g>
    <g id="ytick_8">
     <g id="line2d_29">
      <g>
       <use style="stroke:#000000;stroke-width:0.5;" x="93.38265625" xlink:href="#m7468238b53" y="146.968574219"/>
      </g>
     </g>
     <g id="line2d_30">
      <g>
       <use style="stroke:#000000;stroke-width:0.5;" x="1381.831875" xlink:href="#ma6a721f591" y="146.968574219"/>
      </g>
     </g>
     <g id="text_15">
      <!-- 10 -->
      <g transform="translate(51.20765625 155.246699219)scale(0.3 -0.3)">
       <use xlink:href="#BitstreamVeraSans-Roman-31"/>
       <use x="63.623046875" xlink:href="#BitstreamVeraSans-Roman-30"/>
      </g>
     </g>
    </g>
    <g id="ytick_9">
     <g id="line2d_31">
      <g>
       <use style="stroke:#000000;stroke-width:0.5;" x="93.38265625" xlink:href="#m7468238b53" y="57.91578125"/>
      </g>
     </g>
     <g id="line2d_32">
      <g>
       <use style="stroke:#000000;stroke-width:0.5;" x="1381.831875" xlink:href="#ma6a721f591" y="57.91578125"/>
      </g>
     </g>
     <g id="text_16">
      <!-- 20 -->
      <g transform="translate(51.20765625 66.19390625)scale(0.3 -0.3)">
       <use xlink:href="#BitstreamVeraSans-Roman-32"/>
       <use x="63.623046875" xlink:href="#BitstreamVeraSans-Roman-30"/>
      </g>
     </g>
    </g>
   </g>
   <g id="text_17">
    <!-- log(loss) -->
    <defs>
     <path d="M 8.015625 75.875 
L 15.828125 75.875 
Q 23.140625 64.359375 26.78125 53.3125 
Q 30.421875 42.28125 30.421875 31.390625 
Q 30.421875 20.453125 26.78125 9.375 
Q 23.140625 -1.703125 15.828125 -13.1875 
L 8.015625 -13.1875 
Q 14.5 -2 17.703125 9.0625 
Q 20.90625 20.125 20.90625 31.390625 
Q 20.90625 42.671875 17.703125 53.65625 
Q 14.5 64.65625 8.015625 75.875 
" id="BitstreamVeraSans-Roman-29"/>
     <path d="M 31 75.875 
Q 24.46875 64.65625 21.28125 53.65625 
Q 18.109375 42.671875 18.109375 31.390625 
Q 18.109375 20.125 21.3125 9.0625 
Q 24.515625 -2 31 -13.1875 
L 23.1875 -13.1875 
Q 15.875 -1.703125 12.234375 9.375 
Q 8.59375 20.453125 8.59375 31.390625 
Q 8.59375 42.28125 12.203125 53.3125 
Q 15.828125 64.359375 23.1875 75.875 
z
" id="BitstreamVeraSans-Roman-28"/>
     <path d="M 45.40625 27.984375 
Q 45.40625 37.75 41.375 43.109375 
Q 37.359375 48.484375 30.078125 48.484375 
Q 22.859375 48.484375 18.828125 43.109375 
Q 14.796875 37.75 14.796875 27.984375 
Q 14.796875 18.265625 18.828125 12.890625 
Q 22.859375 7.515625 30.078125 7.515625 
Q 37.359375 7.515625 41.375 12.890625 
Q 45.40625 18.265625 45.40625 27.984375 
M 54.390625 6.78125 
Q 54.390625 -7.171875 48.1875 -13.984375 
Q 42 -20.796875 29.203125 -20.796875 
Q 24.46875 -20.796875 20.265625 -20.09375 
Q 16.0625 -19.390625 12.109375 -17.921875 
L 12.109375 -9.1875 
Q 16.0625 -11.328125 19.921875 -12.34375 
Q 23.78125 -13.375 27.78125 -13.375 
Q 36.625 -13.375 41.015625 -8.765625 
Q 45.40625 -4.15625 45.40625 5.171875 
L 45.40625 9.625 
Q 42.625 4.78125 38.28125 2.390625 
Q 33.9375 0 27.875 0 
Q 17.828125 0 11.671875 7.65625 
Q 5.515625 15.328125 5.515625 27.984375 
Q 5.515625 40.671875 11.671875 48.328125 
Q 17.828125 56 27.875 56 
Q 33.9375 56 38.28125 53.609375 
Q 42.625 51.21875 45.40625 46.390625 
L 45.40625 54.6875 
L 54.390625 54.6875 
z
" id="BitstreamVeraSans-Roman-67"/>
     <path d="M 9.421875 75.984375 
L 18.40625 75.984375 
L 18.40625 0 
L 9.421875 0 
z
" id="BitstreamVeraSans-Roman-6c"/>
    </defs>
    <g transform="translate(674.061171875 52.91578125)scale(0.3 -0.3)">
     <use xlink:href="#BitstreamVeraSans-Roman-6c"/>
     <use x="27.783203125" xlink:href="#BitstreamVeraSans-Roman-6f"/>
     <use x="88.96484375" xlink:href="#BitstreamVeraSans-Roman-67"/>
     <use x="152.44140625" xlink:href="#BitstreamVeraSans-Roman-28"/>
     <use x="191.455078125" xlink:href="#BitstreamVeraSans-Roman-6c"/>
     <use x="219.23828125" xlink:href="#BitstreamVeraSans-Roman-6f"/>
     <use x="280.419921875" xlink:href="#BitstreamVeraSans-Roman-73"/>
     <use x="332.51953125" xlink:href="#BitstreamVeraSans-Roman-73"/>
     <use x="384.619140625" xlink:href="#BitstreamVeraSans-Roman-29"/>
    </g>
   </g>
   <g id="legend_1">
    <g id="patch_7">
     <path d="M 1142.47875 169.984531 
L 1366.831875 169.984531 
L 1366.831875 72.915781 
L 1142.47875 72.915781 
z
" style="fill:#ffffff;stroke:#000000;stroke-linejoin:miter;"/>
    </g>
    <g id="line2d_33">
     <path d="M 1163.47875 97.211094 
L 1205.47875 97.211094 
" style="fill:none;stroke:#0000ff;stroke-linecap:square;stroke-width:2.0;"/>
    </g>
    <g id="line2d_34"/>
    <g id="text_18">
     <!-- random -->
     <defs>
      <path d="M 45.40625 46.390625 
L 45.40625 75.984375 
L 54.390625 75.984375 
L 54.390625 0 
L 45.40625 0 
L 45.40625 8.203125 
Q 42.578125 3.328125 38.25 0.953125 
Q 33.9375 -1.421875 27.875 -1.421875 
Q 17.96875 -1.421875 11.734375 6.484375 
Q 5.515625 14.40625 5.515625 27.296875 
Q 5.515625 40.1875 11.734375 48.09375 
Q 17.96875 56 27.875 56 
Q 33.9375 56 38.25 53.625 
Q 42.578125 51.265625 45.40625 46.390625 
M 14.796875 27.296875 
Q 14.796875 17.390625 18.875 11.75 
Q 22.953125 6.109375 30.078125 6.109375 
Q 37.203125 6.109375 41.296875 11.75 
Q 45.40625 17.390625 45.40625 27.296875 
Q 45.40625 37.203125 41.296875 42.84375 
Q 37.203125 48.484375 30.078125 48.484375 
Q 22.953125 48.484375 18.875 42.84375 
Q 14.796875 37.203125 14.796875 27.296875 
" id="BitstreamVeraSans-Roman-64"/>
      <path d="M 52 44.1875 
Q 55.375 50.25 60.0625 53.125 
Q 64.75 56 71.09375 56 
Q 79.640625 56 84.28125 50.015625 
Q 88.921875 44.046875 88.921875 33.015625 
L 88.921875 0 
L 79.890625 0 
L 79.890625 32.71875 
Q 79.890625 40.578125 77.09375 44.375 
Q 74.3125 48.1875 68.609375 48.1875 
Q 61.625 48.1875 57.5625 43.546875 
Q 53.515625 38.921875 53.515625 30.90625 
L 53.515625 0 
L 44.484375 0 
L 44.484375 32.71875 
Q 44.484375 40.625 41.703125 44.40625 
Q 38.921875 48.1875 33.109375 48.1875 
Q 26.21875 48.1875 22.15625 43.53125 
Q 18.109375 38.875 18.109375 30.90625 
L 18.109375 0 
L 9.078125 0 
L 9.078125 54.6875 
L 18.109375 54.6875 
L 18.109375 46.1875 
Q 21.1875 51.21875 25.484375 53.609375 
Q 29.78125 56 35.6875 56 
Q 41.65625 56 45.828125 52.96875 
Q 50 49.953125 52 44.1875 
" id="BitstreamVeraSans-Roman-6d"/>
     </defs>
     <g transform="translate(1238.47875 107.71109375)scale(0.3 -0.3)">
      <use xlink:href="#BitstreamVeraSans-Roman-72"/>
      <use x="41.11328125" xlink:href="#BitstreamVeraSans-Roman-61"/>
      <use x="102.392578125" xlink:href="#BitstreamVeraSans-Roman-6e"/>
      <use x="165.771484375" xlink:href="#BitstreamVeraSans-Roman-64"/>
      <use x="229.248046875" xlink:href="#BitstreamVeraSans-Roman-6f"/>
      <use x="290.4296875" xlink:href="#BitstreamVeraSans-Roman-6d"/>
     </g>
    </g>
    <g id="line2d_35">
     <path d="M 1163.47875 141.245469 
L 1205.47875 141.245469 
" style="fill:none;stroke:#008000;stroke-linecap:square;stroke-width:2.0;"/>
    </g>
    <g id="line2d_36"/>
    <g id="text_19">
     <!-- corr -->
     <defs>
      <path d="M 48.78125 52.59375 
L 48.78125 44.1875 
Q 44.96875 46.296875 41.140625 47.34375 
Q 37.3125 48.390625 33.40625 48.390625 
Q 24.65625 48.390625 19.8125 42.84375 
Q 14.984375 37.3125 14.984375 27.296875 
Q 14.984375 17.28125 19.8125 11.734375 
Q 24.65625 6.203125 33.40625 6.203125 
Q 37.3125 6.203125 41.140625 7.25 
Q 44.96875 8.296875 48.78125 10.40625 
L 48.78125 2.09375 
Q 45.015625 0.34375 40.984375 -0.53125 
Q 36.96875 -1.421875 32.421875 -1.421875 
Q 20.0625 -1.421875 12.78125 6.34375 
Q 5.515625 14.109375 5.515625 27.296875 
Q 5.515625 40.671875 12.859375 48.328125 
Q 20.21875 56 33.015625 56 
Q 37.15625 56 41.109375 55.140625 
Q 45.0625 54.296875 48.78125 52.59375 
" id="BitstreamVeraSans-Roman-63"/>
     </defs>
     <g transform="translate(1238.47875 151.74546875)scale(0.3 -0.3)">
      <use xlink:href="#BitstreamVeraSans-Roman-63"/>
      <use x="54.98046875" xlink:href="#BitstreamVeraSans-Roman-6f"/>
      <use x="116.162109375" xlink:href="#BitstreamVeraSans-Roman-72"/>
      <use x="157.259765625" xlink:href="#BitstreamVeraSans-Roman-72"/>
     </g>
    </g>
   </g>
  </g>
 </g>
 <defs>
  <clipPath id="p4763e8d5fa">
   <rect height="712.42234375" width="1288.44921875" x="93.38265625" y="57.91578125"/>
  </clipPath>
 </defs>
</svg>
