<?xml version="1.0" encoding="utf-8" standalone="no"?>
<!DOCTYPE svg PUBLIC "-//W3C//DTD SVG 1.1//EN"
  "http://www.w3.org/Graphics/SVG/1.1/DTD/svg11.dtd">
<!-- Created with matplotlib (http://matplotlib.org/) -->
<svg height="864pt" version="1.1" viewBox="0 0 1440 864" width="1440pt" xmlns="http://www.w3.org/2000/svg" xmlns:xlink="http://www.w3.org/1999/xlink">
 <defs>
  <style type="text/css">
*{stroke-linecap:butt;stroke-linejoin:round;stroke-miterlimit:100000;}
  </style>
 </defs>
 <g id="figure_1">
  <g id="patch_1">
   <path d="M 0 864 
L 1440 864 
L 1440 0 
L 0 0 
z
" style="fill:#ffffff;"/>
  </g>
  <g id="axes_1">
   <g id="patch_2">
    <path d="M 76.203906 770.338125 
L 1373.2425 770.338125 
L 1373.2425 57.915781 
L 76.203906 57.915781 
z
" style="fill:#ffffff;"/>
   </g>
   <g id="line2d_1">
    <path clip-path="url(#p2790f86daa)" d="M 76.203906 58.314205 
L 77.500945 59.210421 
L 78.797983 60.288561 
L 80.095022 60.583355 
L 81.392061 61.433883 
L 82.689099 62.473055 
L 83.986138 63.031949 
L 85.283176 64.139906 
L 86.580215 65.395194 
L 87.877254 65.567837 
L 89.174292 66.847868 
L 90.471331 67.71874 
L 91.768369 68.221748 
L 94.362447 69.898101 
L 95.659485 71.364385 
L 96.956524 72.6013 
L 98.253562 72.695358 
L 99.550601 73.277841 
L 100.84764 73.60749 
L 102.144678 75.0406 
L 103.441717 76.053538 
L 104.738755 76.681577 
L 106.035794 77.809535 
L 107.332832 78.429095 
L 109.92691 79.883658 
L 112.520987 80.991793 
L 113.818025 81.507444 
L 115.115064 81.534967 
L 116.412103 82.733558 
L 117.709141 83.159629 
L 119.00618 84.003724 
L 120.303218 84.704392 
L 121.600257 85.780145 
L 122.897296 86.546991 
L 124.194334 87.55785 
L 125.491373 88.12333 
L 126.788411 89.212762 
L 128.08545 89.372886 
L 129.382489 90.291137 
L 130.679527 91.368491 
L 131.976566 93.294759 
L 133.273604 93.611687 
L 134.570643 94.09437 
L 135.867682 94.942773 
L 137.16472 95.61446 
L 138.461759 96.121374 
L 139.758797 96.215452 
L 142.352875 96.767943 
L 143.649913 97.58384 
L 144.946952 98.123459 
L 146.24399 98.97014 
L 147.541029 100.79361 
L 148.838068 101.593792 
L 150.135106 101.833851 
L 151.432145 101.834337 
L 152.729183 102.131412 
L 154.026222 103.032727 
L 155.32326 104.60388 
L 156.620299 105.706526 
L 157.917338 105.832852 
L 159.214376 106.489332 
L 160.511415 106.818537 
L 161.808453 107.700921 
L 163.105492 107.071921 
L 164.402531 107.75715 
L 165.699569 107.770539 
L 166.996608 108.202282 
L 168.293646 109.507795 
L 172.184762 112.367244 
L 173.481801 113.926443 
L 174.778839 114.112259 
L 176.075878 114.963955 
L 177.372917 115.528267 
L 178.669955 115.359639 
L 179.966994 115.800472 
L 181.264032 116.373472 
L 182.561071 117.369989 
L 183.85811 117.531134 
L 185.155148 118.306383 
L 186.452187 118.753433 
L 187.749225 119.584818 
L 189.046264 120.075947 
L 190.343302 119.938314 
L 191.640341 120.003985 
L 192.93738 120.638883 
L 194.234418 122.062759 
L 195.531457 122.576746 
L 196.828495 123.348483 
L 199.422573 125.920197 
L 200.719611 126.693195 
L 202.01665 127.913689 
L 203.313688 127.770007 
L 204.610727 128.515937 
L 205.907766 128.877655 
L 207.204804 130.11075 
L 208.501843 131.084875 
L 209.798881 130.71358 
L 211.09592 132.048892 
L 213.689997 133.478385 
L 214.987036 133.528232 
L 216.284074 135.134683 
L 217.581113 135.151209 
L 218.878152 136.113408 
L 220.17519 136.551506 
L 221.472229 135.770392 
L 222.769267 136.015597 
L 224.066306 135.189508 
L 225.363345 136.194003 
L 226.660383 136.74885 
L 229.25446 138.765795 
L 231.848538 140.585665 
L 233.145576 140.607976 
L 234.442615 141.290743 
L 237.036692 143.598849 
L 238.33373 143.760024 
L 240.927808 144.934676 
L 242.224846 145.37674 
L 243.521885 145.681824 
L 244.818923 145.428025 
L 246.115962 147.543524 
L 247.413001 148.55507 
L 248.710039 149.897694 
L 250.007078 150.225379 
L 251.304116 150.42147 
L 252.601155 150.895256 
L 253.898194 151.544733 
L 255.195232 152.809269 
L 256.492271 151.772086 
L 257.789309 152.358635 
L 259.086348 153.470035 
L 260.383387 154.258953 
L 261.680425 154.865667 
L 262.977464 155.825289 
L 264.274502 155.746259 
L 265.571541 156.367802 
L 266.86858 156.53706 
L 269.462657 158.253233 
L 270.759695 159.728031 
L 272.056734 160.786755 
L 274.650811 161.026124 
L 275.94785 162.148245 
L 277.244888 162.70751 
L 281.136004 165.073799 
L 282.433043 166.160674 
L 283.730081 166.170822 
L 285.02712 167.045262 
L 286.324158 168.139152 
L 287.621197 169.003719 
L 288.918236 169.636852 
L 290.215274 169.880346 
L 291.512313 171.036549 
L 292.809351 171.531153 
L 294.10639 171.671371 
L 296.700467 173.958498 
L 297.997506 173.929935 
L 299.294544 174.598144 
L 300.591583 175.475253 
L 303.18566 177.905666 
L 304.482699 177.795135 
L 305.779737 179.151279 
L 307.076776 179.252598 
L 308.373815 178.761947 
L 309.670853 180.410179 
L 310.967892 181.271316 
L 312.26493 182.750551 
L 314.859008 184.020343 
L 316.156046 184.227822 
L 317.453085 185.367759 
L 318.750123 185.440191 
L 320.047162 185.811638 
L 321.3442 186.997819 
L 322.641239 187.543751 
L 325.235316 189.13152 
L 326.532355 189.942826 
L 327.829393 190.595557 
L 330.423471 192.364102 
L 331.720509 193.760271 
L 333.017548 193.840771 
L 334.314586 193.663114 
L 336.908664 195.184305 
L 338.205702 195.293588 
L 339.502741 195.788255 
L 340.799779 197.816046 
L 342.096818 198.620623 
L 343.393857 198.988687 
L 345.987934 200.114759 
L 347.284972 200.929042 
L 349.87905 202.872385 
L 351.176088 203.284397 
L 353.770165 205.694148 
L 355.067204 205.939731 
L 356.364242 206.536842 
L 357.661281 207.004917 
L 358.95832 206.933147 
L 360.255358 207.500713 
L 361.552397 207.644545 
L 364.146474 209.110593 
L 365.443513 210.020416 
L 366.740551 211.137565 
L 368.03759 211.955049 
L 369.334628 213.618874 
L 370.631667 213.54713 
L 371.928706 213.265115 
L 373.225744 214.347499 
L 374.522783 213.701884 
L 375.819821 214.908025 
L 377.11686 216.941951 
L 378.413899 217.326006 
L 379.710937 217.556 
L 381.007976 219.308895 
L 382.305014 219.861099 
L 383.602053 220.808419 
L 384.899092 220.434965 
L 386.19613 221.386167 
L 387.493169 222.024617 
L 391.384285 224.601299 
L 392.681323 225.994623 
L 393.978362 226.229673 
L 395.2754 227.477764 
L 397.869477 227.280263 
L 399.166516 228.709315 
L 400.463555 229.139347 
L 404.35467 230.833491 
L 405.651709 231.706108 
L 406.948748 232.403736 
L 408.245786 232.691298 
L 409.542825 233.472977 
L 412.136902 234.11126 
L 414.730979 235.440026 
L 416.028018 236.36358 
L 417.325056 236.96038 
L 418.622095 237.093576 
L 419.919134 237.498287 
L 421.216172 236.66045 
L 423.810249 238.042662 
L 425.107288 239.090596 
L 426.404327 239.768208 
L 428.998404 241.788839 
L 430.295442 242.150188 
L 431.592481 243.162354 
L 432.88952 243.119991 
L 434.186558 243.490185 
L 435.483597 244.276169 
L 436.780635 244.873711 
L 438.077674 246.111562 
L 439.374712 245.756248 
L 440.671751 247.013686 
L 441.96879 247.471355 
L 443.265828 247.350412 
L 445.859905 249.202248 
L 447.156944 250.595504 
L 448.453983 251.37229 
L 449.751021 251.544205 
L 451.04806 252.659326 
L 452.345098 253.223598 
L 453.642137 254.287585 
L 454.939176 254.800683 
L 456.236214 255.577528 
L 457.533253 255.551831 
L 458.830291 256.170966 
L 461.424369 257.79638 
L 462.721407 257.927571 
L 464.018446 258.79432 
L 467.909562 261.987593 
L 469.2066 262.254732 
L 470.503639 263.42568 
L 471.800677 264.79987 
L 473.097716 265.221838 
L 474.394755 265.777602 
L 475.691793 266.035993 
L 476.988832 266.122772 
L 478.28587 266.428188 
L 479.582909 266.416225 
L 480.879947 267.307026 
L 482.176986 267.898528 
L 483.474025 268.775934 
L 486.068102 269.982864 
L 487.36514 270.305126 
L 488.662179 270.456895 
L 492.553295 272.242275 
L 493.850333 272.236897 
L 495.147372 272.78419 
L 496.444411 273.605722 
L 497.741449 273.858403 
L 501.632565 276.994683 
L 504.226642 279.229755 
L 505.523681 278.688761 
L 506.820719 279.443544 
L 508.117758 278.903489 
L 509.414797 279.04141 
L 510.711835 278.728601 
L 512.008874 279.372775 
L 513.305912 279.649788 
L 514.602951 280.098586 
L 515.89999 281.411434 
L 518.494067 282.842213 
L 519.791105 283.150303 
L 521.088144 283.603159 
L 522.385183 285.383258 
L 523.682221 285.329495 
L 526.276298 287.853122 
L 527.573337 288.29699 
L 528.870375 289.316401 
L 530.167414 289.744132 
L 531.464453 291.69871 
L 534.05853 292.79027 
L 535.355568 293.630733 
L 536.652607 293.470335 
L 537.949646 295.245735 
L 539.246684 295.919092 
L 540.543723 294.186004 
L 543.1378 296.805187 
L 544.434839 297.226565 
L 545.731877 298.330599 
L 547.028916 299.614867 
L 548.325954 300.084489 
L 549.622993 300.801598 
L 550.920032 301.10928 
L 552.21707 300.431704 
L 553.514109 301.100755 
L 554.811147 301.947495 
L 556.108186 302.600758 
L 557.405225 302.995552 
L 558.702263 303.586276 
L 559.999302 301.179271 
L 561.29634 301.511837 
L 562.593379 302.474187 
L 563.890418 302.75821 
L 565.187456 304.196259 
L 566.484495 305.069932 
L 570.37561 305.495017 
L 571.672649 306.585249 
L 575.563765 307.362334 
L 576.860803 308.167804 
L 578.157842 309.113476 
L 579.454881 309.859792 
L 580.751919 310.167325 
L 582.048958 311.286307 
L 583.345996 311.634309 
L 584.643035 312.500031 
L 585.940074 313.732192 
L 587.237112 313.454207 
L 589.831189 313.805173 
L 591.128228 314.307743 
L 592.425267 315.487488 
L 593.722305 316.315998 
L 596.316382 318.165555 
L 598.91046 319.104081 
L 600.207498 320.265551 
L 601.504537 320.868138 
L 602.801575 322.288126 
L 604.098614 322.990212 
L 605.395652 324.718174 
L 606.692691 325.363732 
L 607.98973 326.286364 
L 609.286768 325.729621 
L 610.583807 326.31579 
L 611.880845 326.466765 
L 617.069 329.099948 
L 618.366038 328.834514 
L 619.663077 328.294104 
L 620.960116 329.035793 
L 622.257154 330.827591 
L 623.554193 331.474829 
L 624.851231 331.45385 
L 626.14827 332.303453 
L 627.445309 332.363116 
L 630.039386 333.596028 
L 631.336424 332.944013 
L 632.633463 333.612874 
L 633.930502 334.126869 
L 635.22754 334.292392 
L 636.524579 335.897954 
L 637.821617 336.633388 
L 641.712733 338.06012 
L 643.009772 338.636423 
L 644.30681 338.82304 
L 645.603849 339.604969 
L 646.900888 339.437125 
L 648.197926 339.687185 
L 649.494965 340.690451 
L 650.792003 341.06064 
L 652.089042 341.183771 
L 653.38608 341.467634 
L 654.683119 341.332664 
L 655.980158 342.310926 
L 657.277196 342.866928 
L 659.871273 344.467816 
L 661.168312 344.841993 
L 663.762389 344.747711 
L 665.059428 345.95958 
L 666.356466 346.328978 
L 667.653505 347.192276 
L 668.950544 347.704893 
L 670.247582 348.352265 
L 672.841659 350.240408 
L 674.138698 350.234031 
L 675.435737 350.421543 
L 676.732775 350.745874 
L 678.029814 350.827212 
L 679.326852 351.545718 
L 680.623891 352.450078 
L 681.92093 353.574458 
L 683.217968 354.444563 
L 684.515007 355.005115 
L 685.812045 354.873565 
L 688.406123 356.603768 
L 689.703161 357.426669 
L 691.0002 358.113474 
L 692.297238 358.550748 
L 693.594277 358.854947 
L 694.891315 360.069343 
L 696.188354 360.533597 
L 697.485393 360.398246 
L 698.782431 360.732058 
L 700.07947 360.663327 
L 702.673547 362.491638 
L 703.970586 362.950497 
L 705.267624 363.724236 
L 706.564663 363.532479 
L 707.861701 365.105428 
L 709.15874 366.252017 
L 710.455779 367.12848 
L 711.752817 367.712134 
L 713.049856 368.055612 
L 714.346894 368.574007 
L 715.643933 369.568611 
L 716.940972 370.012829 
L 718.23801 371.148319 
L 719.535049 372.460416 
L 722.129126 373.374186 
L 724.723203 374.938369 
L 726.020242 375.739193 
L 727.31728 377.254059 
L 728.614319 377.474421 
L 729.911358 378.19534 
L 731.208396 378.569518 
L 733.802473 379.788239 
L 735.099512 379.390824 
L 736.39655 379.72236 
L 738.990628 381.514017 
L 740.287666 381.8947 
L 741.584705 382.039608 
L 742.881743 379.744001 
L 744.178782 380.089748 
L 745.475821 380.735143 
L 746.772859 381.743609 
L 748.069898 381.914914 
L 749.366936 380.51746 
L 750.663975 380.748333 
L 751.961014 381.508425 
L 753.258052 381.481778 
L 754.555091 382.972131 
L 755.852129 382.832997 
L 757.149168 383.449475 
L 758.446207 376.528653 
L 761.040284 377.433169 
L 762.337322 377.647465 
L 763.634361 378.395839 
L 766.228438 380.35499 
L 767.525477 381.531257 
L 768.822515 382.458178 
L 770.119554 383.634079 
L 771.416592 384.569734 
L 772.713631 384.294015 
L 774.01067 384.681133 
L 775.307708 386.028181 
L 776.604747 386.732863 
L 777.901785 387.245799 
L 779.198824 387.976239 
L 780.495863 388.841337 
L 781.792901 390.077058 
L 783.08994 391.149879 
L 784.386978 390.74048 
L 785.684017 391.524925 
L 786.981056 392.084414 
L 788.278094 392.888154 
L 789.575133 393.383365 
L 790.872171 393.576087 
L 792.16921 394.446307 
L 793.466249 394.623623 
L 794.763287 394.412826 
L 796.060326 395.337655 
L 797.357364 395.755826 
L 798.654403 395.992429 
L 799.951442 396.996679 
L 801.24848 398.411562 
L 803.842557 400.011827 
L 805.139596 400.052416 
L 806.436635 401.160641 
L 807.733673 401.886807 
L 810.32775 403.702457 
L 811.624789 404.447717 
L 814.218866 406.94358 
L 819.40702 410.091524 
L 820.704059 409.764605 
L 822.001098 410.043381 
L 823.298136 410.845797 
L 824.595175 411.926952 
L 827.189252 412.383717 
L 829.783329 413.34299 
L 831.080368 413.711228 
L 832.377406 414.577428 
L 833.674445 415.051883 
L 834.971484 414.991092 
L 836.268522 415.646725 
L 840.159638 416.793141 
L 841.456677 417.555727 
L 842.753715 417.527884 
L 844.050754 418.510485 
L 845.347792 417.374664 
L 846.644831 417.861681 
L 847.94187 418.937435 
L 849.238908 420.175733 
L 850.535947 421.061344 
L 851.832985 421.288666 
L 853.130024 422.196787 
L 854.427063 422.583699 
L 857.02114 424.873364 
L 858.318178 425.385042 
L 859.615217 425.684975 
L 860.912255 426.651639 
L 862.209294 427.258141 
L 863.506333 427.62819 
L 864.803371 428.319063 
L 866.10041 429.270223 
L 867.397448 429.908472 
L 868.694487 430.323777 
L 869.991526 430.328565 
L 872.585603 431.864826 
L 873.882641 433.130229 
L 875.17968 433.879756 
L 876.476719 434.498997 
L 879.070796 436.311252 
L 880.367834 437.443904 
L 881.664873 438.257314 
L 882.961912 439.584365 
L 885.555989 441.236852 
L 886.853027 441.488624 
L 888.150066 442.608536 
L 889.447105 442.976563 
L 890.744143 443.920619 
L 892.041182 445.04346 
L 893.33822 445.164461 
L 894.635259 446.671809 
L 895.932298 447.178271 
L 897.229336 448.47463 
L 898.526375 450.322577 
L 901.120452 451.577593 
L 902.41749 452.621122 
L 903.714529 453.315792 
L 905.011568 453.831994 
L 906.308606 454.678293 
L 907.605645 455.796762 
L 908.902683 455.543814 
L 910.199722 455.674933 
L 911.496761 456.700191 
L 914.090838 458.128059 
L 915.387876 457.990152 
L 916.684915 458.387147 
L 917.981954 459.144965 
L 920.576031 459.398604 
L 921.873069 459.923197 
L 924.467147 462.215282 
L 925.764185 463.567774 
L 927.061224 464.144038 
L 928.358262 465.431754 
L 929.655301 464.871821 
L 930.95234 465.635628 
L 932.249378 465.664023 
L 933.546417 466.251381 
L 934.843455 467.257964 
L 936.140494 467.234293 
L 937.437532 468.376515 
L 940.03161 470.161726 
L 942.625687 470.105507 
L 943.922725 470.410224 
L 945.219764 471.547965 
L 947.813841 473.360422 
L 949.11088 474.683284 
L 950.407918 475.240629 
L 951.704957 475.553012 
L 953.001996 475.635434 
L 954.299034 476.277935 
L 955.596073 476.459005 
L 956.893111 477.430329 
L 958.19015 478.215269 
L 959.487189 478.81498 
L 960.784227 479.68637 
L 962.081266 479.992705 
L 963.378304 481.620331 
L 964.675343 481.993373 
L 965.972382 481.394532 
L 967.26942 482.864124 
L 968.566459 483.77565 
L 969.863497 484.992263 
L 971.160536 484.97821 
L 972.457575 486.485952 
L 973.754613 486.689603 
L 976.34869 488.379672 
L 977.645729 489.442559 
L 978.942768 489.098122 
L 980.239806 490.347979 
L 981.536845 490.980507 
L 982.833883 490.879422 
L 985.42796 493.570112 
L 986.724999 493.802388 
L 993.210192 497.332842 
L 994.507231 496.68065 
L 995.804269 497.030414 
L 997.101308 498.003266 
L 998.398346 498.336583 
L 1000.992424 499.909266 
L 1002.289462 500.28363 
L 1003.586501 500.277107 
L 1004.883539 501.289173 
L 1006.180578 501.350671 
L 1007.477617 501.675293 
L 1010.071694 503.983879 
L 1011.368732 504.725375 
L 1012.665771 504.810428 
L 1013.96281 505.593134 
L 1015.259848 508.131006 
L 1016.556887 508.291538 
L 1017.853925 509.03272 
L 1020.448003 511.59257 
L 1023.04208 512.985205 
L 1024.339118 514.252592 
L 1026.933195 514.890086 
L 1028.230234 516.139941 
L 1029.527273 516.427981 
L 1030.824311 516.835822 
L 1032.12135 518.023759 
L 1033.418388 518.622248 
L 1034.715427 519.934527 
L 1036.012466 520.427763 
L 1037.309504 520.712786 
L 1038.606543 520.836699 
L 1039.903581 520.654018 
L 1041.20062 522.585026 
L 1043.794697 524.307391 
L 1045.091736 525.841522 
L 1046.388774 527.117986 
L 1047.685813 528.583688 
L 1048.982852 529.735577 
L 1050.27989 529.963923 
L 1051.576929 530.951593 
L 1052.873967 531.558832 
L 1054.171006 532.618508 
L 1056.765083 533.708499 
L 1058.062122 535.152357 
L 1059.35916 535.892942 
L 1060.656199 537.651908 
L 1061.953237 538.406192 
L 1063.250276 539.837783 
L 1064.547315 540.639733 
L 1065.844353 540.399802 
L 1067.141392 541.457336 
L 1068.43843 542.172685 
L 1069.735469 542.704417 
L 1071.032508 543.652824 
L 1072.329546 544.208319 
L 1073.626585 544.289516 
L 1074.923623 545.107219 
L 1076.220662 546.72174 
L 1077.517701 546.432648 
L 1078.814739 546.562938 
L 1080.111778 547.045021 
L 1081.408816 547.950628 
L 1082.705855 548.686136 
L 1084.002894 549.966012 
L 1085.299932 550.129891 
L 1086.596971 550.722649 
L 1087.894009 551.094171 
L 1089.191048 551.94088 
L 1090.488087 553.060173 
L 1091.785125 552.82597 
L 1094.379202 554.101447 
L 1095.676241 553.99298 
L 1096.97328 554.585522 
L 1098.270318 555.897738 
L 1100.864395 556.689331 
L 1103.458472 558.564843 
L 1107.349588 560.086746 
L 1108.646627 561.682689 
L 1109.943665 561.920104 
L 1111.240704 562.814624 
L 1112.537743 562.523976 
L 1113.834781 563.442209 
L 1115.13182 563.944488 
L 1117.725897 565.99879 
L 1119.022936 566.879993 
L 1120.319974 567.394943 
L 1121.617013 567.46998 
L 1122.914051 568.510302 
L 1124.21109 569.800373 
L 1125.508129 570.592227 
L 1126.805167 570.606549 
L 1129.399244 572.284988 
L 1130.696283 573.014823 
L 1131.993322 573.233792 
L 1133.29036 573.972207 
L 1134.587399 574.575628 
L 1135.884437 575.630059 
L 1137.181476 576.039451 
L 1138.478515 577.058869 
L 1139.775553 576.632602 
L 1142.36963 578.157259 
L 1143.666669 578.711392 
L 1144.963708 580.11785 
L 1146.260746 580.928935 
L 1147.557785 581.52396 
L 1148.854823 581.940644 
L 1151.4489 583.312128 
L 1152.745939 584.636049 
L 1154.042978 585.183719 
L 1155.340016 584.986582 
L 1156.637055 585.130626 
L 1157.934093 585.546205 
L 1159.231132 586.384881 
L 1160.528171 587.804379 
L 1161.825209 588.338958 
L 1163.122248 589.413314 
L 1164.419286 590.013363 
L 1165.716325 591.041968 
L 1167.013364 591.865791 
L 1168.310402 591.641633 
L 1169.607441 593.040399 
L 1172.201518 594.013753 
L 1174.795595 594.25623 
L 1176.092634 594.67464 
L 1177.389672 595.899953 
L 1178.686711 594.984036 
L 1179.98375 595.45066 
L 1181.280788 596.222214 
L 1182.577827 597.481537 
L 1183.874865 597.622834 
L 1185.171904 599.092494 
L 1186.468942 599.26135 
L 1187.765981 599.719902 
L 1190.360058 601.24553 
L 1191.657097 602.102779 
L 1192.954135 602.26004 
L 1194.251174 603.927948 
L 1195.548213 604.930143 
L 1196.845251 605.653173 
L 1198.14229 605.432333 
L 1200.736367 606.411548 
L 1202.033406 607.417823 
L 1203.330444 608.64517 
L 1204.627483 610.170501 
L 1207.22156 610.871901 
L 1208.518599 611.815734 
L 1209.815637 612.991393 
L 1211.112676 613.677694 
L 1212.409714 614.539309 
L 1213.706753 614.724154 
L 1216.30083 616.799761 
L 1217.597869 616.382277 
L 1218.894907 617.916035 
L 1221.488985 618.692419 
L 1222.786023 619.435015 
L 1225.3801 620.421571 
L 1226.677139 621.288079 
L 1227.974177 621.460588 
L 1229.271216 622.373393 
L 1230.568255 623.141436 
L 1233.162332 626.305256 
L 1234.45937 626.840209 
L 1235.756409 626.887692 
L 1237.053448 627.10055 
L 1238.350486 627.523682 
L 1239.647525 628.329432 
L 1240.944563 628.557657 
L 1242.241602 629.815593 
L 1243.538641 630.512651 
L 1244.835679 631.415595 
L 1246.132718 631.613634 
L 1252.617911 635.189258 
L 1253.914949 634.874737 
L 1255.211988 635.613836 
L 1256.509027 637.390616 
L 1257.806065 638.274333 
L 1260.400142 640.427126 
L 1261.697181 639.407203 
L 1262.99422 639.932877 
L 1264.291258 640.98932 
L 1265.588297 641.807742 
L 1266.885335 643.414046 
L 1268.182374 644.442086 
L 1272.07349 645.772995 
L 1273.370528 647.24132 
L 1274.667567 647.967019 
L 1275.964605 647.423858 
L 1277.261644 648.141856 
L 1278.558683 648.694981 
L 1281.15276 650.720954 
L 1282.449798 652.266058 
L 1283.746837 652.9042 
L 1285.043876 653.007718 
L 1286.340914 653.575885 
L 1287.637953 655.131286 
L 1288.934991 655.682587 
L 1290.23203 656.749609 
L 1291.529069 657.639941 
L 1292.826107 658.881272 
L 1294.123146 660.51048 
L 1295.420184 661.409774 
L 1296.717223 662.125323 
L 1298.014262 663.236497 
L 1299.3113 663.714407 
L 1300.608339 664.860194 
L 1301.905377 664.748422 
L 1303.202416 665.565333 
L 1304.499455 666.5854 
L 1305.796493 666.878364 
L 1307.093532 667.684176 
L 1308.39057 668.923065 
L 1309.687609 669.793118 
L 1310.984647 670.466811 
L 1312.281686 671.547789 
L 1313.578725 672.041079 
L 1314.875763 672.998774 
L 1316.172802 674.426987 
L 1317.46984 675.261984 
L 1318.766879 674.177649 
L 1321.360956 675.007048 
L 1322.657995 676.519378 
L 1325.252072 678.00643 
L 1326.549111 678.829111 
L 1327.846149 679.184551 
L 1329.143188 679.991648 
L 1330.440226 681.320543 
L 1333.034304 682.50257 
L 1334.331342 683.008081 
L 1335.628381 684.22501 
L 1338.222458 685.366462 
L 1340.816535 686.607014 
L 1342.113574 687.894534 
L 1346.00469 689.021232 
L 1347.301728 689.917161 
L 1348.598767 689.750402 
L 1349.895805 691.561031 
L 1351.192844 692.202485 
L 1352.489883 692.237022 
L 1355.08396 693.232153 
L 1356.380998 694.075716 
L 1357.678037 694.410195 
L 1358.975075 695.468376 
L 1360.272114 695.165682 
L 1361.569153 696.20131 
L 1362.866191 696.997887 
L 1364.16323 697.546928 
L 1365.460268 697.522905 
L 1368.054346 698.062929 
L 1369.351384 699.812692 
L 1370.648423 700.586028 
L 1371.945461 701.156331 
L 1371.945461 701.156331 
" style="fill:none;stroke:#0000ff;stroke-linecap:square;stroke-width:2.0;"/>
   </g>
   <g id="line2d_2">
    <path clip-path="url(#p2790f86daa)" d="M 76.203906 57.947018 
L 77.500945 59.384003 
L 78.797983 61.033859 
L 80.095022 62.315523 
L 82.689099 63.489948 
L 83.986138 64.462308 
L 85.283176 65.73391 
L 86.580215 65.903774 
L 87.877254 67.164979 
L 89.174292 68.138314 
L 90.471331 69.283052 
L 91.768369 69.834092 
L 94.362447 71.529055 
L 95.659485 72.063145 
L 96.956524 72.219506 
L 98.253562 73.917755 
L 99.550601 74.428749 
L 100.84764 75.278047 
L 102.144678 75.592717 
L 103.441717 75.200675 
L 104.738755 76.7072 
L 106.035794 76.703544 
L 107.332832 76.962775 
L 108.629871 76.95024 
L 109.92691 77.202683 
L 111.223948 78.261181 
L 112.520987 77.999793 
L 113.818025 79.071184 
L 115.115064 79.896622 
L 116.412103 80.958402 
L 117.709141 81.42789 
L 119.00618 81.335368 
L 120.303218 82.790336 
L 122.897296 84.225054 
L 124.194334 85.213286 
L 125.491373 85.72387 
L 126.788411 85.634877 
L 128.08545 85.670771 
L 129.382489 86.412607 
L 130.679527 86.778777 
L 131.976566 86.627338 
L 133.273604 87.401699 
L 134.570643 87.90536 
L 135.867682 87.895954 
L 137.16472 88.241356 
L 138.461759 88.933861 
L 139.758797 89.351495 
L 141.055836 89.526905 
L 142.352875 90.476004 
L 143.649913 92.052525 
L 144.946952 92.677363 
L 146.24399 93.530895 
L 147.541029 94.15122 
L 148.838068 95.267595 
L 150.135106 96.161175 
L 151.432145 96.258428 
L 152.729183 96.950159 
L 154.026222 97.803329 
L 155.32326 98.515234 
L 156.620299 98.923595 
L 157.917338 100.50466 
L 159.214376 102.585238 
L 160.511415 103.687627 
L 163.105492 104.828914 
L 164.402531 104.861089 
L 165.699569 105.52846 
L 166.996608 106.42753 
L 168.293646 106.931871 
L 169.590685 107.876731 
L 170.887724 107.45844 
L 172.184762 107.980609 
L 173.481801 109.944424 
L 174.778839 110.929631 
L 176.075878 111.323974 
L 177.372917 112.423356 
L 178.669955 113.067196 
L 179.966994 114.574463 
L 181.264032 115.200863 
L 182.561071 115.534028 
L 185.155148 118.580214 
L 186.452187 119.573816 
L 187.749225 120.334324 
L 189.046264 121.387599 
L 190.343302 121.277364 
L 192.93738 123.410349 
L 194.234418 123.833157 
L 195.531457 125.499694 
L 196.828495 126.58549 
L 198.125534 126.904779 
L 199.422573 127.095137 
L 200.719611 127.990037 
L 202.01665 128.527935 
L 204.610727 128.79009 
L 205.907766 129.071453 
L 209.798881 131.851775 
L 211.09592 132.348942 
L 212.392959 133.018515 
L 213.689997 133.545303 
L 214.987036 132.687298 
L 216.284074 133.26132 
L 217.581113 134.02032 
L 220.17519 135.809742 
L 221.472229 137.086607 
L 222.769267 136.943246 
L 224.066306 137.76082 
L 225.363345 138.818239 
L 226.660383 139.155496 
L 227.957422 139.234897 
L 229.25446 140.122493 
L 230.551499 140.751618 
L 231.848538 141.586175 
L 234.442615 142.235727 
L 235.739653 142.813761 
L 237.036692 143.991671 
L 238.33373 144.775161 
L 239.630769 146.029706 
L 240.927808 146.454308 
L 242.224846 147.004844 
L 243.521885 148.470727 
L 244.818923 149.610518 
L 246.115962 150.399319 
L 247.413001 149.878559 
L 248.710039 151.078732 
L 250.007078 151.615899 
L 251.304116 151.475019 
L 252.601155 151.862131 
L 253.898194 152.04349 
L 255.195232 152.417584 
L 256.492271 153.030384 
L 257.789309 154.019488 
L 259.086348 154.39878 
L 260.383387 154.622809 
L 261.680425 155.273949 
L 262.977464 156.052197 
L 264.274502 156.456003 
L 268.165618 158.896227 
L 270.759695 160.131187 
L 272.056734 159.882131 
L 273.353772 160.182589 
L 274.650811 160.764712 
L 275.94785 160.086477 
L 279.838965 161.812567 
L 281.136004 163.181863 
L 282.433043 163.776065 
L 283.730081 164.972122 
L 285.02712 165.314202 
L 286.324158 166.001879 
L 287.621197 167.136319 
L 288.918236 167.683563 
L 290.215274 168.066447 
L 291.512313 168.644674 
L 292.809351 169.038876 
L 294.10639 169.779187 
L 295.403429 169.498981 
L 296.700467 171.099219 
L 297.997506 172.233054 
L 299.294544 172.963796 
L 301.888622 173.114482 
L 304.482699 174.869453 
L 305.779737 175.150195 
L 307.076776 175.791972 
L 308.373815 177.66948 
L 310.967892 179.736244 
L 313.561969 180.471635 
L 314.859008 181.544883 
L 316.156046 182.242552 
L 317.453085 183.354235 
L 318.750123 183.955856 
L 321.3442 186.822537 
L 322.641239 187.420269 
L 323.938278 188.832035 
L 325.235316 189.570461 
L 326.532355 190.637629 
L 327.829393 191.197794 
L 329.126432 190.843197 
L 331.720509 192.372725 
L 333.017548 192.95486 
L 335.611625 194.896981 
L 338.205702 195.580608 
L 339.502741 196.041546 
L 340.799779 196.994388 
L 342.096818 198.165633 
L 343.393857 198.539187 
L 344.690895 199.582148 
L 347.284972 200.359141 
L 348.582011 201.016506 
L 349.87905 202.429066 
L 351.176088 203.06622 
L 352.473127 203.41149 
L 353.770165 203.509643 
L 355.067204 203.895762 
L 356.364242 204.665455 
L 357.661281 205.197418 
L 358.95832 205.101962 
L 361.552397 207.503589 
L 362.849435 207.954021 
L 366.740551 210.897094 
L 368.03759 211.611204 
L 369.334628 212.455369 
L 370.631667 212.78519 
L 371.928706 213.403439 
L 373.225744 214.195441 
L 374.522783 215.90297 
L 375.819821 216.433763 
L 377.11686 217.604781 
L 378.413899 218.250765 
L 379.710937 218.374533 
L 382.305014 220.890927 
L 383.602053 221.578235 
L 384.899092 222.049921 
L 386.19613 222.943471 
L 387.493169 223.470475 
L 388.790207 225.536801 
L 390.087246 226.668364 
L 391.384285 226.779217 
L 393.978362 228.939308 
L 395.2754 229.690337 
L 396.572439 230.192885 
L 397.869477 230.330171 
L 399.166516 231.138484 
L 401.760593 233.241366 
L 403.057632 234.240737 
L 404.35467 235.403419 
L 405.651709 235.768072 
L 406.948748 236.264216 
L 408.245786 236.501935 
L 409.542825 237.038653 
L 412.136902 239.228213 
L 413.433941 238.677894 
L 416.028018 240.841999 
L 418.622095 241.923811 
L 419.919134 242.516521 
L 421.216172 243.320959 
L 423.810249 244.271398 
L 425.107288 245.559635 
L 426.404327 245.49649 
L 427.701365 246.257798 
L 428.998404 246.54965 
L 430.295442 246.386914 
L 431.592481 247.679648 
L 432.88952 249.469459 
L 435.483597 250.848296 
L 436.780635 251.798607 
L 438.077674 252.221244 
L 439.374712 253.063987 
L 440.671751 253.182522 
L 441.96879 254.371701 
L 443.265828 254.916518 
L 445.859905 256.445301 
L 448.453983 257.338831 
L 449.751021 257.674193 
L 451.04806 258.368832 
L 452.345098 257.226354 
L 453.642137 257.816621 
L 454.939176 258.984172 
L 456.236214 259.57416 
L 457.533253 259.613027 
L 458.830291 260.458508 
L 460.12733 260.359412 
L 462.721407 261.94712 
L 464.018446 262.495314 
L 465.315484 262.665743 
L 466.612523 263.652124 
L 467.909562 265.007825 
L 469.2066 265.731259 
L 470.503639 266.18878 
L 473.097716 266.833598 
L 474.394755 266.7137 
L 475.691793 267.44073 
L 476.988832 268.305765 
L 479.582909 268.987417 
L 480.879947 269.691384 
L 483.474025 270.678646 
L 484.771063 271.215347 
L 486.068102 271.545916 
L 487.36514 272.343908 
L 488.662179 272.812812 
L 489.959218 274.439359 
L 491.256256 274.980747 
L 492.553295 276.135797 
L 493.850333 277.068294 
L 495.147372 277.824608 
L 496.444411 278.732409 
L 499.038488 280.098318 
L 500.335526 281.151883 
L 501.632565 281.454973 
L 502.929604 281.123097 
L 504.226642 281.7359 
L 505.523681 281.783945 
L 508.117758 282.784166 
L 509.414797 283.013215 
L 510.711835 283.997321 
L 512.008874 283.907688 
L 513.305912 284.646192 
L 514.602951 285.206723 
L 515.89999 285.9004 
L 517.197028 287.242688 
L 518.494067 288.270008 
L 521.088144 289.291898 
L 523.682221 289.627808 
L 524.97926 290.091858 
L 526.276298 291.375105 
L 528.870375 292.015141 
L 530.167414 293.188655 
L 531.464453 294.028472 
L 532.761491 295.524663 
L 534.05853 295.997435 
L 535.355568 295.975946 
L 536.652607 296.508173 
L 537.949646 297.662104 
L 539.246684 297.028958 
L 541.840761 297.699176 
L 543.1378 298.465234 
L 544.434839 298.907227 
L 547.028916 299.494007 
L 548.325954 300.403681 
L 549.622993 300.973395 
L 550.920032 302.123939 
L 552.21707 302.234793 
L 553.514109 303.598047 
L 554.811147 304.579475 
L 557.405225 305.622871 
L 558.702263 306.345082 
L 559.999302 306.757305 
L 561.29634 307.388394 
L 562.593379 308.151286 
L 565.187456 309.887745 
L 566.484495 311.043959 
L 567.781533 311.397238 
L 571.672649 313.454748 
L 572.969688 313.514555 
L 574.266726 313.798095 
L 575.563765 314.94519 
L 576.860803 315.009056 
L 578.157842 315.513208 
L 579.454881 315.675421 
L 580.751919 316.802844 
L 582.048958 317.730469 
L 585.940074 319.832755 
L 587.237112 320.057941 
L 589.831189 320.107366 
L 591.128228 321.254901 
L 592.425267 322.021992 
L 593.722305 322.642757 
L 595.019344 324.367769 
L 596.316382 325.708296 
L 597.613421 326.27595 
L 598.91046 326.680305 
L 600.207498 327.664155 
L 601.504537 328.120689 
L 602.801575 329.150962 
L 604.098614 329.452042 
L 605.395652 330.201685 
L 606.692691 330.543319 
L 607.98973 331.051065 
L 609.286768 331.318627 
L 610.583807 331.997371 
L 611.880845 332.200018 
L 613.177884 332.91223 
L 614.474923 332.6487 
L 615.771961 334.172393 
L 617.069 335.017615 
L 618.366038 335.387813 
L 619.663077 335.942993 
L 620.960116 336.20078 
L 622.257154 338.272403 
L 623.554193 339.334809 
L 626.14827 340.405691 
L 627.445309 341.299344 
L 628.742347 341.379839 
L 630.039386 340.733418 
L 631.336424 341.816609 
L 632.633463 341.97663 
L 633.930502 343.159902 
L 635.22754 344.782708 
L 636.524579 345.052531 
L 637.821617 344.394372 
L 639.118656 345.263244 
L 641.712733 346.663034 
L 643.009772 348.344786 
L 644.30681 349.386782 
L 645.603849 349.340406 
L 646.900888 350.065121 
L 648.197926 351.246405 
L 649.494965 351.798765 
L 650.792003 352.214096 
L 652.089042 352.101676 
L 653.38608 352.930887 
L 654.683119 354.133889 
L 655.980158 355.762868 
L 657.277196 355.460575 
L 659.871273 357.060572 
L 661.168312 358.344492 
L 662.465351 358.605663 
L 665.059428 361.713371 
L 666.356466 362.656095 
L 667.653505 363.155345 
L 668.950544 363.939679 
L 671.544621 364.763373 
L 672.841659 365.895946 
L 674.138698 365.078139 
L 675.435737 365.558497 
L 676.732775 366.510148 
L 678.029814 367.217657 
L 679.326852 367.774233 
L 680.623891 369.456067 
L 681.92093 365.651154 
L 683.217968 366.042559 
L 685.812045 367.248259 
L 687.109084 367.324949 
L 688.406123 368.364349 
L 691.0002 369.717478 
L 692.297238 370.740797 
L 693.594277 370.638106 
L 694.891315 371.373823 
L 700.07947 375.369532 
L 701.376508 376.057294 
L 702.673547 375.547101 
L 706.564663 378.547005 
L 707.861701 379.416196 
L 709.15874 380.016952 
L 710.455779 381.04993 
L 711.752817 381.275949 
L 714.346894 383.725508 
L 715.643933 384.230075 
L 716.940972 385.437877 
L 718.23801 385.985729 
L 719.535049 386.845299 
L 722.129126 387.607129 
L 723.426165 388.763012 
L 724.723203 388.757419 
L 726.020242 389.692101 
L 727.31728 389.755918 
L 728.614319 390.335141 
L 729.911358 391.127648 
L 731.208396 391.03373 
L 732.505435 391.981794 
L 733.802473 392.785423 
L 735.099512 393.345618 
L 736.39655 394.192091 
L 737.693589 394.649661 
L 738.990628 395.718988 
L 740.287666 396.369107 
L 741.584705 396.404669 
L 742.881743 397.314548 
L 745.475821 399.671425 
L 748.069898 401.399673 
L 749.366936 401.527914 
L 750.663975 402.973909 
L 751.961014 403.458458 
L 754.555091 403.936814 
L 755.852129 404.162016 
L 757.149168 405.038656 
L 758.446207 406.287627 
L 759.743245 406.154193 
L 761.040284 405.521856 
L 762.337322 405.926451 
L 763.634361 407.145668 
L 764.9314 407.550105 
L 766.228438 407.569706 
L 767.525477 408.763359 
L 768.822515 409.663712 
L 770.119554 410.21262 
L 771.416592 410.984385 
L 772.713631 411.505504 
L 774.01067 412.816096 
L 775.307708 413.420767 
L 776.604747 413.628886 
L 777.901785 414.921249 
L 779.198824 414.931656 
L 780.495863 415.259772 
L 781.792901 415.844573 
L 783.08994 416.598895 
L 784.386978 416.52637 
L 785.684017 416.2288 
L 786.981056 416.657084 
L 788.278094 417.919087 
L 789.575133 418.279666 
L 790.872171 419.658116 
L 792.16921 419.087306 
L 793.466249 419.501754 
L 794.763287 420.146818 
L 796.060326 421.20021 
L 797.357364 421.928669 
L 798.654403 421.81838 
L 799.951442 423.122485 
L 802.545519 423.814321 
L 803.842557 423.927563 
L 805.139596 422.99585 
L 806.436635 423.651072 
L 807.733673 424.603535 
L 809.030712 425.729958 
L 810.32775 426.421905 
L 811.624789 426.914949 
L 812.921828 427.685142 
L 814.218866 428.701003 
L 815.515905 429.301725 
L 816.812943 429.738026 
L 818.109982 429.79296 
L 819.40702 430.753154 
L 820.704059 431.321895 
L 822.001098 432.379615 
L 823.298136 433.007639 
L 824.595175 433.291787 
L 825.892213 433.904082 
L 827.189252 435.596922 
L 828.486291 436.766949 
L 829.783329 437.409608 
L 831.080368 438.289016 
L 832.377406 438.064532 
L 833.674445 438.771994 
L 834.971484 439.615008 
L 836.268522 440.726863 
L 837.565561 440.784357 
L 838.862599 441.774261 
L 840.159638 442.908729 
L 841.456677 444.269346 
L 842.753715 444.825106 
L 844.050754 445.22328 
L 845.347792 446.221224 
L 846.644831 446.526528 
L 847.94187 447.468376 
L 849.238908 448.090292 
L 851.832985 449.686098 
L 853.130024 449.692599 
L 854.427063 450.989431 
L 857.02114 452.473554 
L 859.615217 454.309951 
L 862.209294 455.520584 
L 863.506333 456.252707 
L 864.803371 456.7972 
L 867.397448 457.452717 
L 868.694487 458.192917 
L 871.288564 460.561153 
L 872.585603 461.302129 
L 873.882641 462.323193 
L 875.17968 462.838554 
L 877.773757 464.429921 
L 879.070796 464.790934 
L 880.367834 466.368786 
L 881.664873 467.16564 
L 882.961912 467.288803 
L 884.25895 468.550523 
L 885.555989 468.931392 
L 886.853027 469.744092 
L 888.150066 471.18073 
L 889.447105 472.400498 
L 890.744143 472.831522 
L 892.041182 473.745839 
L 895.932298 475.273567 
L 897.229336 475.32946 
L 898.526375 476.722698 
L 901.120452 478.360527 
L 902.41749 479.538882 
L 903.714529 480.265197 
L 905.011568 480.808978 
L 906.308606 481.559293 
L 907.605645 481.612574 
L 908.902683 482.569863 
L 911.496761 483.981309 
L 912.793799 483.831387 
L 914.090838 483.133277 
L 915.387876 483.949835 
L 916.684915 485.433564 
L 917.981954 486.103847 
L 920.576031 488.055505 
L 923.170108 489.32338 
L 924.467147 490.098606 
L 925.764185 490.664814 
L 927.061224 491.610373 
L 928.358262 492.891632 
L 930.95234 494.380289 
L 932.249378 494.20288 
L 933.546417 494.824884 
L 934.843455 495.621291 
L 936.140494 496.866 
L 937.437532 497.565007 
L 938.734571 497.963869 
L 940.03161 499.713718 
L 941.328648 500.683009 
L 942.625687 500.850261 
L 943.922725 501.285818 
L 945.219764 502.088749 
L 946.516803 503.128158 
L 950.407918 505.583999 
L 951.704957 506.019742 
L 953.001996 506.710708 
L 954.299034 507.163355 
L 956.893111 508.46341 
L 958.19015 508.689593 
L 959.487189 507.475395 
L 960.784227 508.580949 
L 962.081266 508.277298 
L 963.378304 509.960683 
L 964.675343 510.407057 
L 965.972382 511.527979 
L 968.566459 513.334211 
L 969.863497 514.917832 
L 971.160536 515.767818 
L 972.457575 516.104834 
L 973.754613 516.586323 
L 975.051652 517.611011 
L 976.34869 518.240456 
L 978.942768 519.958384 
L 980.239806 520.433415 
L 981.536845 520.747013 
L 982.833883 522.341904 
L 984.130922 522.884198 
L 985.42796 522.912028 
L 986.724999 523.121486 
L 988.022038 523.936877 
L 989.319076 524.487394 
L 990.616115 524.764654 
L 991.913153 525.831309 
L 994.507231 528.466633 
L 995.804269 528.862094 
L 997.101308 529.578686 
L 998.398346 529.969382 
L 999.695385 531.008113 
L 1000.992424 531.413236 
L 1002.289462 532.071202 
L 1004.883539 534.143298 
L 1006.180578 533.556712 
L 1007.477617 533.757661 
L 1008.774655 534.415322 
L 1010.071694 535.861729 
L 1011.368732 536.626057 
L 1012.665771 537.647122 
L 1013.96281 538.935298 
L 1016.556887 539.447299 
L 1017.853925 541.202491 
L 1019.150964 541.265091 
L 1020.448003 542.630326 
L 1021.745041 543.653771 
L 1023.04208 543.462711 
L 1024.339118 544.040953 
L 1025.636157 544.167979 
L 1026.933195 544.519298 
L 1028.230234 545.456473 
L 1029.527273 545.370253 
L 1032.12135 546.584263 
L 1033.418388 548.323295 
L 1034.715427 549.013294 
L 1036.012466 549.557584 
L 1038.606543 551.153303 
L 1039.903581 552.583592 
L 1041.20062 553.80879 
L 1043.794697 555.612352 
L 1045.091736 555.738542 
L 1046.388774 557.027649 
L 1047.685813 557.901841 
L 1050.27989 559.209325 
L 1055.468045 563.620622 
L 1056.765083 563.78318 
L 1058.062122 564.620941 
L 1059.35916 565.224938 
L 1060.656199 566.156698 
L 1061.953237 566.596073 
L 1063.250276 566.744394 
L 1064.547315 567.639884 
L 1065.844353 568.828554 
L 1067.141392 569.052358 
L 1068.43843 569.665365 
L 1069.735469 570.489346 
L 1071.032508 570.690385 
L 1072.329546 571.741288 
L 1074.923623 572.145476 
L 1076.220662 572.962359 
L 1077.517701 573.133734 
L 1078.814739 573.168863 
L 1080.111778 573.849746 
L 1081.408816 574.005333 
L 1082.705855 573.912415 
L 1084.002894 575.287113 
L 1086.596971 575.384381 
L 1087.894009 576.686436 
L 1089.191048 576.592694 
L 1090.488087 577.658858 
L 1091.785125 577.688138 
L 1093.082164 576.309815 
L 1094.379202 577.389111 
L 1095.676241 577.613151 
L 1096.97328 578.911911 
L 1098.270318 579.118176 
L 1099.567357 577.952318 
L 1100.864395 578.351563 
L 1102.161434 578.988236 
L 1103.458472 578.585038 
L 1104.755511 577.192756 
L 1106.05255 578.609257 
L 1107.349588 581.395548 
L 1108.646627 582.08947 
L 1109.943665 582.616318 
L 1111.240704 582.783543 
L 1112.537743 582.802591 
L 1113.834781 584.478826 
L 1115.13182 586.363667 
L 1116.428858 587.154525 
L 1117.725897 588.483844 
L 1121.617013 590.144705 
L 1122.914051 588.025389 
L 1124.21109 588.898124 
L 1125.508129 589.135059 
L 1126.805167 589.71098 
L 1130.696283 592.541215 
L 1131.993322 593.189758 
L 1133.29036 592.516607 
L 1134.587399 592.741815 
L 1135.884437 593.620422 
L 1137.181476 593.350317 
L 1138.478515 593.859608 
L 1139.775553 594.738899 
L 1141.072592 595.265461 
L 1143.666669 596.697775 
L 1147.557785 596.174785 
L 1148.854823 596.845935 
L 1150.151862 597.65051 
L 1151.4489 598.26219 
L 1152.745939 599.100817 
L 1154.042978 598.938996 
L 1155.340016 599.229601 
L 1156.637055 599.863104 
L 1157.934093 600.171016 
L 1161.825209 602.835797 
L 1163.122248 602.784955 
L 1164.419286 603.832051 
L 1165.716325 604.366543 
L 1167.013364 604.656732 
L 1168.310402 605.256819 
L 1169.607441 606.664743 
L 1170.904479 607.188368 
L 1172.201518 607.573436 
L 1173.498557 608.262212 
L 1176.092634 608.680509 
L 1177.389672 609.553009 
L 1178.686711 609.995245 
L 1181.280788 611.51393 
L 1182.577827 612.961058 
L 1185.171904 614.277232 
L 1186.468942 614.263563 
L 1189.06302 616.050102 
L 1190.360058 616.358919 
L 1191.657097 617.289288 
L 1192.954135 617.60202 
L 1194.251174 618.158205 
L 1198.14229 620.400742 
L 1199.439328 620.581317 
L 1200.736367 621.311771 
L 1202.033406 622.394296 
L 1203.330444 622.990741 
L 1204.627483 622.963905 
L 1205.924521 623.516212 
L 1207.22156 623.738104 
L 1208.518599 624.530581 
L 1209.815637 626.438859 
L 1211.112676 627.529804 
L 1212.409714 628.247186 
L 1213.706753 628.488434 
L 1215.003792 627.29842 
L 1216.30083 628.046784 
L 1218.894907 628.389067 
L 1220.191946 628.782146 
L 1221.488985 629.591217 
L 1222.786023 631.205479 
L 1224.083062 632.183518 
L 1225.3801 632.709607 
L 1226.677139 632.667563 
L 1227.974177 633.555294 
L 1229.271216 634.687553 
L 1230.568255 634.75186 
L 1231.865293 635.332344 
L 1233.162332 635.683072 
L 1235.756409 636.742465 
L 1237.053448 637.540671 
L 1238.350486 638.540775 
L 1239.647525 639.324333 
L 1240.944563 640.553395 
L 1242.241602 642.331879 
L 1243.538641 644.380851 
L 1244.835679 645.456323 
L 1246.132718 645.407457 
L 1247.429756 645.75028 
L 1248.726795 646.626075 
L 1250.023834 647.885044 
L 1251.320872 648.259625 
L 1252.617911 648.996107 
L 1253.914949 649.902696 
L 1255.211988 649.896385 
L 1256.509027 650.741015 
L 1257.806065 651.876974 
L 1259.103104 652.533165 
L 1261.697181 655.005541 
L 1264.291258 655.912436 
L 1265.588297 656.583655 
L 1266.885335 657.543189 
L 1268.182374 657.866849 
L 1269.479413 659.289855 
L 1272.07349 660.986547 
L 1273.370528 661.261625 
L 1274.667567 662.273579 
L 1275.964605 662.829864 
L 1277.261644 663.70063 
L 1279.855721 666.276198 
L 1281.15276 667.160327 
L 1282.449798 667.415394 
L 1283.746837 668.672572 
L 1285.043876 669.243785 
L 1287.637953 670.532146 
L 1290.23203 670.645597 
L 1291.529069 671.690605 
L 1292.826107 671.781814 
L 1294.123146 672.661749 
L 1295.420184 673.010193 
L 1296.717223 674.706075 
L 1298.014262 675.637357 
L 1300.608339 676.720072 
L 1301.905377 677.076696 
L 1303.202416 677.58094 
L 1304.499455 678.300487 
L 1307.093532 679.356793 
L 1308.39057 679.757149 
L 1309.687609 679.122205 
L 1310.984647 679.996963 
L 1312.281686 681.068154 
L 1313.578725 681.3012 
L 1314.875763 681.861607 
L 1316.172802 682.647739 
L 1320.063918 683.875938 
L 1321.360956 684.631514 
L 1322.657995 684.767551 
L 1323.955033 686.366505 
L 1325.252072 687.13914 
L 1326.549111 688.235401 
L 1327.846149 688.83772 
L 1329.143188 689.741674 
L 1330.440226 689.946131 
L 1333.034304 691.517073 
L 1335.628381 692.783121 
L 1336.925419 693.052407 
L 1338.222458 693.065471 
L 1339.519497 694.241005 
L 1340.816535 694.890288 
L 1342.113574 695.324545 
L 1343.410612 696.380897 
L 1344.707651 696.504915 
L 1346.00469 697.596297 
L 1347.301728 697.776553 
L 1348.598767 697.721694 
L 1349.895805 698.23757 
L 1351.192844 698.42377 
L 1353.786921 699.712383 
L 1355.08396 700.43318 
L 1356.380998 700.9982 
L 1357.678037 700.349116 
L 1358.975075 701.152465 
L 1360.272114 701.651505 
L 1362.866191 703.20085 
L 1364.16323 703.498854 
L 1365.460268 704.324584 
L 1366.757307 704.30848 
L 1368.054346 704.788453 
L 1370.648423 705.974229 
L 1371.945461 707.06818 
L 1371.945461 707.06818 
" style="fill:none;stroke:#008000;stroke-linecap:square;stroke-width:2.0;"/>
   </g>
   <g id="patch_3">
    <path d="M 76.203906 57.915781 
L 1373.2425 57.915781 
" style="fill:none;stroke:#000000;stroke-linecap:square;stroke-linejoin:miter;"/>
   </g>
   <g id="patch_4">
    <path d="M 1373.2425 770.338125 
L 1373.2425 57.915781 
" style="fill:none;stroke:#000000;stroke-linecap:square;stroke-linejoin:miter;"/>
   </g>
   <g id="patch_5">
    <path d="M 76.203906 770.338125 
L 1373.2425 770.338125 
" style="fill:none;stroke:#000000;stroke-linecap:square;stroke-linejoin:miter;"/>
   </g>
   <g id="patch_6">
    <path d="M 76.203906 770.338125 
L 76.203906 57.915781 
" style="fill:none;stroke:#000000;stroke-linecap:square;stroke-linejoin:miter;"/>
   </g>
   <g id="matplotlib.axis_1">
    <g id="xtick_1">
     <g id="line2d_3">
      <defs>
       <path d="M 0 0 
L 0 -4 
" id="m12bffa5d15" style="stroke:#000000;stroke-width:0.5;"/>
      </defs>
      <g>
       <use style="stroke:#000000;stroke-width:0.5;" x="76.20390625" xlink:href="#m12bffa5d15" y="770.338125"/>
      </g>
     </g>
     <g id="line2d_4">
      <defs>
       <path d="M 0 0 
L 0 4 
" id="m006cf82fcc" style="stroke:#000000;stroke-width:0.5;"/>
      </defs>
      <g>
       <use style="stroke:#000000;stroke-width:0.5;" x="76.20390625" xlink:href="#m006cf82fcc" y="57.91578125"/>
      </g>
     </g>
     <g id="text_1">
      <!-- 0 -->
      <defs>
       <path d="M 31.78125 66.40625 
Q 24.171875 66.40625 20.328125 58.90625 
Q 16.5 51.421875 16.5 36.375 
Q 16.5 21.390625 20.328125 13.890625 
Q 24.171875 6.390625 31.78125 6.390625 
Q 39.453125 6.390625 43.28125 13.890625 
Q 47.125 21.390625 47.125 36.375 
Q 47.125 51.421875 43.28125 58.90625 
Q 39.453125 66.40625 31.78125 66.40625 
M 31.78125 74.21875 
Q 44.046875 74.21875 50.515625 64.515625 
Q 56.984375 54.828125 56.984375 36.375 
Q 56.984375 17.96875 50.515625 8.265625 
Q 44.046875 -1.421875 31.78125 -1.421875 
Q 19.53125 -1.421875 13.0625 8.265625 
Q 6.59375 17.96875 6.59375 36.375 
Q 6.59375 54.828125 13.0625 64.515625 
Q 19.53125 74.21875 31.78125 74.21875 
" id="BitstreamVeraSans-Roman-30"/>
      </defs>
      <g transform="translate(66.66015625 797.1334375)scale(0.3 -0.3)">
       <use xlink:href="#BitstreamVeraSans-Roman-30"/>
      </g>
     </g>
    </g>
    <g id="xtick_2">
     <g id="line2d_5">
      <g>
       <use style="stroke:#000000;stroke-width:0.5;" x="335.611625" xlink:href="#m12bffa5d15" y="770.338125"/>
      </g>
     </g>
     <g id="line2d_6">
      <g>
       <use style="stroke:#000000;stroke-width:0.5;" x="335.611625" xlink:href="#m006cf82fcc" y="57.91578125"/>
      </g>
     </g>
     <g id="text_2">
      <!-- 200 -->
      <defs>
       <path d="M 19.1875 8.296875 
L 53.609375 8.296875 
L 53.609375 0 
L 7.328125 0 
L 7.328125 8.296875 
Q 12.9375 14.109375 22.625 23.890625 
Q 32.328125 33.6875 34.8125 36.53125 
Q 39.546875 41.84375 41.421875 45.53125 
Q 43.3125 49.21875 43.3125 52.78125 
Q 43.3125 58.59375 39.234375 62.25 
Q 35.15625 65.921875 28.609375 65.921875 
Q 23.96875 65.921875 18.8125 64.3125 
Q 13.671875 62.703125 7.8125 59.421875 
L 7.8125 69.390625 
Q 13.765625 71.78125 18.9375 73 
Q 24.125 74.21875 28.421875 74.21875 
Q 39.75 74.21875 46.484375 68.546875 
Q 53.21875 62.890625 53.21875 53.421875 
Q 53.21875 48.921875 51.53125 44.890625 
Q 49.859375 40.875 45.40625 35.40625 
Q 44.1875 33.984375 37.640625 27.21875 
Q 31.109375 20.453125 19.1875 8.296875 
" id="BitstreamVeraSans-Roman-32"/>
      </defs>
      <g transform="translate(306.980375 797.1334375)scale(0.3 -0.3)">
       <use xlink:href="#BitstreamVeraSans-Roman-32"/>
       <use x="63.623046875" xlink:href="#BitstreamVeraSans-Roman-30"/>
       <use x="127.24609375" xlink:href="#BitstreamVeraSans-Roman-30"/>
      </g>
     </g>
    </g>
    <g id="xtick_3">
     <g id="line2d_7">
      <g>
       <use style="stroke:#000000;stroke-width:0.5;" x="595.01934375" xlink:href="#m12bffa5d15" y="770.338125"/>
      </g>
     </g>
     <g id="line2d_8">
      <g>
       <use style="stroke:#000000;stroke-width:0.5;" x="595.01934375" xlink:href="#m006cf82fcc" y="57.91578125"/>
      </g>
     </g>
     <g id="text_3">
      <!-- 400 -->
      <defs>
       <path d="M 37.796875 64.3125 
L 12.890625 25.390625 
L 37.796875 25.390625 
z
M 35.203125 72.90625 
L 47.609375 72.90625 
L 47.609375 25.390625 
L 58.015625 25.390625 
L 58.015625 17.1875 
L 47.609375 17.1875 
L 47.609375 0 
L 37.796875 0 
L 37.796875 17.1875 
L 4.890625 17.1875 
L 4.890625 26.703125 
z
" id="BitstreamVeraSans-Roman-34"/>
      </defs>
      <g transform="translate(566.38809375 797.1334375)scale(0.3 -0.3)">
       <use xlink:href="#BitstreamVeraSans-Roman-34"/>
       <use x="63.623046875" xlink:href="#BitstreamVeraSans-Roman-30"/>
       <use x="127.24609375" xlink:href="#BitstreamVeraSans-Roman-30"/>
      </g>
     </g>
    </g>
    <g id="xtick_4">
     <g id="line2d_9">
      <g>
       <use style="stroke:#000000;stroke-width:0.5;" x="854.4270625" xlink:href="#m12bffa5d15" y="770.338125"/>
      </g>
     </g>
     <g id="line2d_10">
      <g>
       <use style="stroke:#000000;stroke-width:0.5;" x="854.4270625" xlink:href="#m006cf82fcc" y="57.91578125"/>
      </g>
     </g>
     <g id="text_4">
      <!-- 600 -->
      <defs>
       <path d="M 33.015625 40.375 
Q 26.375 40.375 22.484375 35.828125 
Q 18.609375 31.296875 18.609375 23.390625 
Q 18.609375 15.53125 22.484375 10.953125 
Q 26.375 6.390625 33.015625 6.390625 
Q 39.65625 6.390625 43.53125 10.953125 
Q 47.40625 15.53125 47.40625 23.390625 
Q 47.40625 31.296875 43.53125 35.828125 
Q 39.65625 40.375 33.015625 40.375 
M 52.59375 71.296875 
L 52.59375 62.3125 
Q 48.875 64.0625 45.09375 64.984375 
Q 41.3125 65.921875 37.59375 65.921875 
Q 27.828125 65.921875 22.671875 59.328125 
Q 17.53125 52.734375 16.796875 39.40625 
Q 19.671875 43.65625 24.015625 45.921875 
Q 28.375 48.1875 33.59375 48.1875 
Q 44.578125 48.1875 50.953125 41.515625 
Q 57.328125 34.859375 57.328125 23.390625 
Q 57.328125 12.15625 50.6875 5.359375 
Q 44.046875 -1.421875 33.015625 -1.421875 
Q 20.359375 -1.421875 13.671875 8.265625 
Q 6.984375 17.96875 6.984375 36.375 
Q 6.984375 53.65625 15.1875 63.9375 
Q 23.390625 74.21875 37.203125 74.21875 
Q 40.921875 74.21875 44.703125 73.484375 
Q 48.484375 72.75 52.59375 71.296875 
" id="BitstreamVeraSans-Roman-36"/>
      </defs>
      <g transform="translate(825.7958125 797.1334375)scale(0.3 -0.3)">
       <use xlink:href="#BitstreamVeraSans-Roman-36"/>
       <use x="63.623046875" xlink:href="#BitstreamVeraSans-Roman-30"/>
       <use x="127.24609375" xlink:href="#BitstreamVeraSans-Roman-30"/>
      </g>
     </g>
    </g>
    <g id="xtick_5">
     <g id="line2d_11">
      <g>
       <use style="stroke:#000000;stroke-width:0.5;" x="1113.83478125" xlink:href="#m12bffa5d15" y="770.338125"/>
      </g>
     </g>
     <g id="line2d_12">
      <g>
       <use style="stroke:#000000;stroke-width:0.5;" x="1113.83478125" xlink:href="#m006cf82fcc" y="57.91578125"/>
      </g>
     </g>
     <g id="text_5">
      <!-- 800 -->
      <defs>
       <path d="M 31.78125 34.625 
Q 24.75 34.625 20.71875 30.859375 
Q 16.703125 27.09375 16.703125 20.515625 
Q 16.703125 13.921875 20.71875 10.15625 
Q 24.75 6.390625 31.78125 6.390625 
Q 38.8125 6.390625 42.859375 10.171875 
Q 46.921875 13.96875 46.921875 20.515625 
Q 46.921875 27.09375 42.890625 30.859375 
Q 38.875 34.625 31.78125 34.625 
M 21.921875 38.8125 
Q 15.578125 40.375 12.03125 44.71875 
Q 8.5 49.078125 8.5 55.328125 
Q 8.5 64.0625 14.71875 69.140625 
Q 20.953125 74.21875 31.78125 74.21875 
Q 42.671875 74.21875 48.875 69.140625 
Q 55.078125 64.0625 55.078125 55.328125 
Q 55.078125 49.078125 51.53125 44.71875 
Q 48 40.375 41.703125 38.8125 
Q 48.828125 37.15625 52.796875 32.3125 
Q 56.78125 27.484375 56.78125 20.515625 
Q 56.78125 9.90625 50.3125 4.234375 
Q 43.84375 -1.421875 31.78125 -1.421875 
Q 19.734375 -1.421875 13.25 4.234375 
Q 6.78125 9.90625 6.78125 20.515625 
Q 6.78125 27.484375 10.78125 32.3125 
Q 14.796875 37.15625 21.921875 38.8125 
M 18.3125 54.390625 
Q 18.3125 48.734375 21.84375 45.5625 
Q 25.390625 42.390625 31.78125 42.390625 
Q 38.140625 42.390625 41.71875 45.5625 
Q 45.3125 48.734375 45.3125 54.390625 
Q 45.3125 60.0625 41.71875 63.234375 
Q 38.140625 66.40625 31.78125 66.40625 
Q 25.390625 66.40625 21.84375 63.234375 
Q 18.3125 60.0625 18.3125 54.390625 
" id="BitstreamVeraSans-Roman-38"/>
      </defs>
      <g transform="translate(1085.20353125 797.1334375)scale(0.3 -0.3)">
       <use xlink:href="#BitstreamVeraSans-Roman-38"/>
       <use x="63.623046875" xlink:href="#BitstreamVeraSans-Roman-30"/>
       <use x="127.24609375" xlink:href="#BitstreamVeraSans-Roman-30"/>
      </g>
     </g>
    </g>
    <g id="xtick_6">
     <g id="line2d_13">
      <g>
       <use style="stroke:#000000;stroke-width:0.5;" x="1373.2425" xlink:href="#m12bffa5d15" y="770.338125"/>
      </g>
     </g>
     <g id="line2d_14">
      <g>
       <use style="stroke:#000000;stroke-width:0.5;" x="1373.2425" xlink:href="#m006cf82fcc" y="57.91578125"/>
      </g>
     </g>
     <g id="text_6">
      <!-- 1000 -->
      <defs>
       <path d="M 12.40625 8.296875 
L 28.515625 8.296875 
L 28.515625 63.921875 
L 10.984375 60.40625 
L 10.984375 69.390625 
L 28.421875 72.90625 
L 38.28125 72.90625 
L 38.28125 8.296875 
L 54.390625 8.296875 
L 54.390625 0 
L 12.40625 0 
z
" id="BitstreamVeraSans-Roman-31"/>
      </defs>
      <g transform="translate(1335.0675 797.1334375)scale(0.3 -0.3)">
       <use xlink:href="#BitstreamVeraSans-Roman-31"/>
       <use x="63.623046875" xlink:href="#BitstreamVeraSans-Roman-30"/>
       <use x="127.24609375" xlink:href="#BitstreamVeraSans-Roman-30"/>
       <use x="190.869140625" xlink:href="#BitstreamVeraSans-Roman-30"/>
      </g>
     </g>
    </g>
    <g id="text_7">
     <!-- iterations -->
     <defs>
      <path d="M 54.890625 33.015625 
L 54.890625 0 
L 45.90625 0 
L 45.90625 32.71875 
Q 45.90625 40.484375 42.875 44.328125 
Q 39.84375 48.1875 33.796875 48.1875 
Q 26.515625 48.1875 22.3125 43.546875 
Q 18.109375 38.921875 18.109375 30.90625 
L 18.109375 0 
L 9.078125 0 
L 9.078125 54.6875 
L 18.109375 54.6875 
L 18.109375 46.1875 
Q 21.34375 51.125 25.703125 53.5625 
Q 30.078125 56 35.796875 56 
Q 45.21875 56 50.046875 50.171875 
Q 54.890625 44.34375 54.890625 33.015625 
" id="BitstreamVeraSans-Roman-6e"/>
      <path d="M 34.28125 27.484375 
Q 23.390625 27.484375 19.1875 25 
Q 14.984375 22.515625 14.984375 16.5 
Q 14.984375 11.71875 18.140625 8.90625 
Q 21.296875 6.109375 26.703125 6.109375 
Q 34.1875 6.109375 38.703125 11.40625 
Q 43.21875 16.703125 43.21875 25.484375 
L 43.21875 27.484375 
z
M 52.203125 31.203125 
L 52.203125 0 
L 43.21875 0 
L 43.21875 8.296875 
Q 40.140625 3.328125 35.546875 0.953125 
Q 30.953125 -1.421875 24.3125 -1.421875 
Q 15.921875 -1.421875 10.953125 3.296875 
Q 6 8.015625 6 15.921875 
Q 6 25.140625 12.171875 29.828125 
Q 18.359375 34.515625 30.609375 34.515625 
L 43.21875 34.515625 
L 43.21875 35.40625 
Q 43.21875 41.609375 39.140625 45 
Q 35.0625 48.390625 27.6875 48.390625 
Q 23 48.390625 18.546875 47.265625 
Q 14.109375 46.140625 10.015625 43.890625 
L 10.015625 52.203125 
Q 14.9375 54.109375 19.578125 55.046875 
Q 24.21875 56 28.609375 56 
Q 40.484375 56 46.34375 49.84375 
Q 52.203125 43.703125 52.203125 31.203125 
" id="BitstreamVeraSans-Roman-61"/>
      <path d="M 30.609375 48.390625 
Q 23.390625 48.390625 19.1875 42.75 
Q 14.984375 37.109375 14.984375 27.296875 
Q 14.984375 17.484375 19.15625 11.84375 
Q 23.34375 6.203125 30.609375 6.203125 
Q 37.796875 6.203125 41.984375 11.859375 
Q 46.1875 17.53125 46.1875 27.296875 
Q 46.1875 37.015625 41.984375 42.703125 
Q 37.796875 48.390625 30.609375 48.390625 
M 30.609375 56 
Q 42.328125 56 49.015625 48.375 
Q 55.71875 40.765625 55.71875 27.296875 
Q 55.71875 13.875 49.015625 6.21875 
Q 42.328125 -1.421875 30.609375 -1.421875 
Q 18.84375 -1.421875 12.171875 6.21875 
Q 5.515625 13.875 5.515625 27.296875 
Q 5.515625 40.765625 12.171875 48.375 
Q 18.84375 56 30.609375 56 
" id="BitstreamVeraSans-Roman-6f"/>
      <path d="M 9.421875 54.6875 
L 18.40625 54.6875 
L 18.40625 0 
L 9.421875 0 
z
M 9.421875 75.984375 
L 18.40625 75.984375 
L 18.40625 64.59375 
L 9.421875 64.59375 
z
" id="BitstreamVeraSans-Roman-69"/>
      <path d="M 56.203125 29.59375 
L 56.203125 25.203125 
L 14.890625 25.203125 
Q 15.484375 15.921875 20.484375 11.0625 
Q 25.484375 6.203125 34.421875 6.203125 
Q 39.59375 6.203125 44.453125 7.46875 
Q 49.3125 8.734375 54.109375 11.28125 
L 54.109375 2.78125 
Q 49.265625 0.734375 44.1875 -0.34375 
Q 39.109375 -1.421875 33.890625 -1.421875 
Q 20.796875 -1.421875 13.15625 6.1875 
Q 5.515625 13.8125 5.515625 26.8125 
Q 5.515625 40.234375 12.765625 48.109375 
Q 20.015625 56 32.328125 56 
Q 43.359375 56 49.78125 48.890625 
Q 56.203125 41.796875 56.203125 29.59375 
M 47.21875 32.234375 
Q 47.125 39.59375 43.09375 43.984375 
Q 39.0625 48.390625 32.421875 48.390625 
Q 24.90625 48.390625 20.390625 44.140625 
Q 15.875 39.890625 15.1875 32.171875 
z
" id="BitstreamVeraSans-Roman-65"/>
      <path d="M 18.3125 70.21875 
L 18.3125 54.6875 
L 36.8125 54.6875 
L 36.8125 47.703125 
L 18.3125 47.703125 
L 18.3125 18.015625 
Q 18.3125 11.328125 20.140625 9.421875 
Q 21.96875 7.515625 27.59375 7.515625 
L 36.8125 7.515625 
L 36.8125 0 
L 27.59375 0 
Q 17.1875 0 13.234375 3.875 
Q 9.28125 7.765625 9.28125 18.015625 
L 9.28125 47.703125 
L 2.6875 47.703125 
L 2.6875 54.6875 
L 9.28125 54.6875 
L 9.28125 70.21875 
z
" id="BitstreamVeraSans-Roman-74"/>
      <path d="M 41.109375 46.296875 
Q 39.59375 47.171875 37.8125 47.578125 
Q 36.03125 48 33.890625 48 
Q 26.265625 48 22.1875 43.046875 
Q 18.109375 38.09375 18.109375 28.8125 
L 18.109375 0 
L 9.078125 0 
L 9.078125 54.6875 
L 18.109375 54.6875 
L 18.109375 46.1875 
Q 20.953125 51.171875 25.484375 53.578125 
Q 30.03125 56 36.53125 56 
Q 37.453125 56 38.578125 55.875 
Q 39.703125 55.765625 41.0625 55.515625 
z
" id="BitstreamVeraSans-Roman-72"/>
      <path d="M 44.28125 53.078125 
L 44.28125 44.578125 
Q 40.484375 46.53125 36.375 47.5 
Q 32.28125 48.484375 27.875 48.484375 
Q 21.1875 48.484375 17.84375 46.4375 
Q 14.5 44.390625 14.5 40.28125 
Q 14.5 37.15625 16.890625 35.375 
Q 19.28125 33.59375 26.515625 31.984375 
L 29.59375 31.296875 
Q 39.15625 29.25 43.1875 25.515625 
Q 47.21875 21.78125 47.21875 15.09375 
Q 47.21875 7.46875 41.1875 3.015625 
Q 35.15625 -1.421875 24.609375 -1.421875 
Q 20.21875 -1.421875 15.453125 -0.5625 
Q 10.6875 0.296875 5.421875 2 
L 5.421875 11.28125 
Q 10.40625 8.6875 15.234375 7.390625 
Q 20.0625 6.109375 24.8125 6.109375 
Q 31.15625 6.109375 34.5625 8.28125 
Q 37.984375 10.453125 37.984375 14.40625 
Q 37.984375 18.0625 35.515625 20.015625 
Q 33.0625 21.96875 24.703125 23.78125 
L 21.578125 24.515625 
Q 13.234375 26.265625 9.515625 29.90625 
Q 5.8125 33.546875 5.8125 39.890625 
Q 5.8125 47.609375 11.28125 51.796875 
Q 16.75 56 26.8125 56 
Q 31.78125 56 36.171875 55.265625 
Q 40.578125 54.546875 44.28125 53.078125 
" id="BitstreamVeraSans-Roman-73"/>
     </defs>
     <g transform="translate(653.541171875 831.1678125)scale(0.3 -0.3)">
      <use xlink:href="#BitstreamVeraSans-Roman-69"/>
      <use x="27.783203125" xlink:href="#BitstreamVeraSans-Roman-74"/>
      <use x="66.9921875" xlink:href="#BitstreamVeraSans-Roman-65"/>
      <use x="128.515625" xlink:href="#BitstreamVeraSans-Roman-72"/>
      <use x="169.62890625" xlink:href="#BitstreamVeraSans-Roman-61"/>
      <use x="230.908203125" xlink:href="#BitstreamVeraSans-Roman-74"/>
      <use x="270.1171875" xlink:href="#BitstreamVeraSans-Roman-69"/>
      <use x="297.900390625" xlink:href="#BitstreamVeraSans-Roman-6f"/>
      <use x="359.08203125" xlink:href="#BitstreamVeraSans-Roman-6e"/>
      <use x="422.4609375" xlink:href="#BitstreamVeraSans-Roman-73"/>
     </g>
    </g>
   </g>
   <g id="matplotlib.axis_2">
    <g id="ytick_1">
     <g id="line2d_15">
      <defs>
       <path d="M 0 0 
L 4 0 
" id="m44a06f69bb" style="stroke:#000000;stroke-width:0.5;"/>
      </defs>
      <g>
       <use style="stroke:#000000;stroke-width:0.5;" x="76.20390625" xlink:href="#m44a06f69bb" y="770.338125"/>
      </g>
     </g>
     <g id="line2d_16">
      <defs>
       <path d="M 0 0 
L -4 0 
" id="m74f7d9fda6" style="stroke:#000000;stroke-width:0.5;"/>
      </defs>
      <g>
       <use style="stroke:#000000;stroke-width:0.5;" x="1373.2425" xlink:href="#m74f7d9fda6" y="770.338125"/>
      </g>
     </g>
     <g id="text_8">
      <!-- 5 -->
      <defs>
       <path d="M 10.59375 35.5 
L 73.1875 35.5 
L 73.1875 27.203125 
L 10.59375 27.203125 
z
" id="BitstreamVeraSans-Roman-2212"/>
       <path d="M 10.796875 72.90625 
L 49.515625 72.90625 
L 49.515625 64.59375 
L 19.828125 64.59375 
L 19.828125 46.734375 
Q 21.96875 47.46875 24.109375 47.828125 
Q 26.265625 48.1875 28.421875 48.1875 
Q 40.625 48.1875 47.75 41.5 
Q 54.890625 34.8125 54.890625 23.390625 
Q 54.890625 11.625 47.5625 5.09375 
Q 40.234375 -1.421875 26.90625 -1.421875 
Q 22.3125 -1.421875 17.546875 -0.640625 
Q 12.796875 0.140625 7.71875 1.703125 
L 7.71875 11.625 
Q 12.109375 9.234375 16.796875 8.0625 
Q 21.484375 6.890625 26.703125 6.890625 
Q 35.15625 6.890625 40.078125 11.328125 
Q 45.015625 15.765625 45.015625 23.390625 
Q 45.015625 31 40.078125 35.4375 
Q 35.15625 39.890625 26.703125 39.890625 
Q 22.75 39.890625 18.8125 39.015625 
Q 14.890625 38.140625 10.796875 36.28125 
z
" id="BitstreamVeraSans-Roman-35"/>
      </defs>
      <g transform="translate(27.97734375 778.61625)scale(0.3 -0.3)">
       <use xlink:href="#BitstreamVeraSans-Roman-2212"/>
       <use x="83.7890625" xlink:href="#BitstreamVeraSans-Roman-35"/>
      </g>
     </g>
    </g>
    <g id="ytick_2">
     <g id="line2d_17">
      <g>
       <use style="stroke:#000000;stroke-width:0.5;" x="76.20390625" xlink:href="#m44a06f69bb" y="592.232539062"/>
      </g>
     </g>
     <g id="line2d_18">
      <g>
       <use style="stroke:#000000;stroke-width:0.5;" x="1373.2425" xlink:href="#m74f7d9fda6" y="592.232539062"/>
      </g>
     </g>
     <g id="text_9">
      <!-- 0 -->
      <g transform="translate(53.11640625 600.510664062)scale(0.3 -0.3)">
       <use xlink:href="#BitstreamVeraSans-Roman-30"/>
      </g>
     </g>
    </g>
    <g id="ytick_3">
     <g id="line2d_19">
      <g>
       <use style="stroke:#000000;stroke-width:0.5;" x="76.20390625" xlink:href="#m44a06f69bb" y="414.126953125"/>
      </g>
     </g>
     <g id="line2d_20">
      <g>
       <use style="stroke:#000000;stroke-width:0.5;" x="1373.2425" xlink:href="#m74f7d9fda6" y="414.126953125"/>
      </g>
     </g>
     <g id="text_10">
      <!-- 5 -->
      <g transform="translate(53.11640625 422.405078125)scale(0.3 -0.3)">
       <use xlink:href="#BitstreamVeraSans-Roman-35"/>
      </g>
     </g>
    </g>
    <g id="ytick_4">
     <g id="line2d_21">
      <g>
       <use style="stroke:#000000;stroke-width:0.5;" x="76.20390625" xlink:href="#m44a06f69bb" y="236.021367188"/>
      </g>
     </g>
     <g id="line2d_22">
      <g>
       <use style="stroke:#000000;stroke-width:0.5;" x="1373.2425" xlink:href="#m74f7d9fda6" y="236.021367188"/>
      </g>
     </g>
     <g id="text_11">
      <!-- 10 -->
      <g transform="translate(34.02890625 244.299492188)scale(0.3 -0.3)">
       <use xlink:href="#BitstreamVeraSans-Roman-31"/>
       <use x="63.623046875" xlink:href="#BitstreamVeraSans-Roman-30"/>
      </g>
     </g>
    </g>
    <g id="ytick_5">
     <g id="line2d_23">
      <g>
       <use style="stroke:#000000;stroke-width:0.5;" x="76.20390625" xlink:href="#m44a06f69bb" y="57.91578125"/>
      </g>
     </g>
     <g id="line2d_24">
      <g>
       <use style="stroke:#000000;stroke-width:0.5;" x="1373.2425" xlink:href="#m74f7d9fda6" y="57.91578125"/>
      </g>
     </g>
     <g id="text_12">
      <!-- 15 -->
      <g transform="translate(34.02890625 66.19390625)scale(0.3 -0.3)">
       <use xlink:href="#BitstreamVeraSans-Roman-31"/>
       <use x="63.623046875" xlink:href="#BitstreamVeraSans-Roman-35"/>
      </g>
     </g>
    </g>
   </g>
   <g id="text_13">
    <!-- log(loss) -->
    <defs>
     <path d="M 8.015625 75.875 
L 15.828125 75.875 
Q 23.140625 64.359375 26.78125 53.3125 
Q 30.421875 42.28125 30.421875 31.390625 
Q 30.421875 20.453125 26.78125 9.375 
Q 23.140625 -1.703125 15.828125 -13.1875 
L 8.015625 -13.1875 
Q 14.5 -2 17.703125 9.0625 
Q 20.90625 20.125 20.90625 31.390625 
Q 20.90625 42.671875 17.703125 53.65625 
Q 14.5 64.65625 8.015625 75.875 
" id="BitstreamVeraSans-Roman-29"/>
     <path d="M 31 75.875 
Q 24.46875 64.65625 21.28125 53.65625 
Q 18.109375 42.671875 18.109375 31.390625 
Q 18.109375 20.125 21.3125 9.0625 
Q 24.515625 -2 31 -13.1875 
L 23.1875 -13.1875 
Q 15.875 -1.703125 12.234375 9.375 
Q 8.59375 20.453125 8.59375 31.390625 
Q 8.59375 42.28125 12.203125 53.3125 
Q 15.828125 64.359375 23.1875 75.875 
z
" id="BitstreamVeraSans-Roman-28"/>
     <path d="M 45.40625 27.984375 
Q 45.40625 37.75 41.375 43.109375 
Q 37.359375 48.484375 30.078125 48.484375 
Q 22.859375 48.484375 18.828125 43.109375 
Q 14.796875 37.75 14.796875 27.984375 
Q 14.796875 18.265625 18.828125 12.890625 
Q 22.859375 7.515625 30.078125 7.515625 
Q 37.359375 7.515625 41.375 12.890625 
Q 45.40625 18.265625 45.40625 27.984375 
M 54.390625 6.78125 
Q 54.390625 -7.171875 48.1875 -13.984375 
Q 42 -20.796875 29.203125 -20.796875 
Q 24.46875 -20.796875 20.265625 -20.09375 
Q 16.0625 -19.390625 12.109375 -17.921875 
L 12.109375 -9.1875 
Q 16.0625 -11.328125 19.921875 -12.34375 
Q 23.78125 -13.375 27.78125 -13.375 
Q 36.625 -13.375 41.015625 -8.765625 
Q 45.40625 -4.15625 45.40625 5.171875 
L 45.40625 9.625 
Q 42.625 4.78125 38.28125 2.390625 
Q 33.9375 0 27.875 0 
Q 17.828125 0 11.671875 7.65625 
Q 5.515625 15.328125 5.515625 27.984375 
Q 5.515625 40.671875 11.671875 48.328125 
Q 17.828125 56 27.875 56 
Q 33.9375 56 38.28125 53.609375 
Q 42.625 51.21875 45.40625 46.390625 
L 45.40625 54.6875 
L 54.390625 54.6875 
z
" id="BitstreamVeraSans-Roman-67"/>
     <path d="M 9.421875 75.984375 
L 18.40625 75.984375 
L 18.40625 0 
L 9.421875 0 
z
" id="BitstreamVeraSans-Roman-6c"/>
    </defs>
    <g transform="translate(661.177109375 52.91578125)scale(0.3 -0.3)">
     <use xlink:href="#BitstreamVeraSans-Roman-6c"/>
     <use x="27.783203125" xlink:href="#BitstreamVeraSans-Roman-6f"/>
     <use x="88.96484375" xlink:href="#BitstreamVeraSans-Roman-67"/>
     <use x="152.44140625" xlink:href="#BitstreamVeraSans-Roman-28"/>
     <use x="191.455078125" xlink:href="#BitstreamVeraSans-Roman-6c"/>
     <use x="219.23828125" xlink:href="#BitstreamVeraSans-Roman-6f"/>
     <use x="280.419921875" xlink:href="#BitstreamVeraSans-Roman-73"/>
     <use x="332.51953125" xlink:href="#BitstreamVeraSans-Roman-73"/>
     <use x="384.619140625" xlink:href="#BitstreamVeraSans-Roman-29"/>
    </g>
   </g>
   <g id="legend_1">
    <g id="patch_7">
     <path d="M 1133.889375 169.984531 
L 1358.2425 169.984531 
L 1358.2425 72.915781 
L 1133.889375 72.915781 
z
" style="fill:#ffffff;stroke:#000000;stroke-linejoin:miter;"/>
    </g>
    <g id="line2d_25">
     <path d="M 1154.889375 97.211094 
L 1196.889375 97.211094 
" style="fill:none;stroke:#0000ff;stroke-linecap:square;stroke-width:2.0;"/>
    </g>
    <g id="line2d_26"/>
    <g id="text_14">
     <!-- random -->
     <defs>
      <path d="M 45.40625 46.390625 
L 45.40625 75.984375 
L 54.390625 75.984375 
L 54.390625 0 
L 45.40625 0 
L 45.40625 8.203125 
Q 42.578125 3.328125 38.25 0.953125 
Q 33.9375 -1.421875 27.875 -1.421875 
Q 17.96875 -1.421875 11.734375 6.484375 
Q 5.515625 14.40625 5.515625 27.296875 
Q 5.515625 40.1875 11.734375 48.09375 
Q 17.96875 56 27.875 56 
Q 33.9375 56 38.25 53.625 
Q 42.578125 51.265625 45.40625 46.390625 
M 14.796875 27.296875 
Q 14.796875 17.390625 18.875 11.75 
Q 22.953125 6.109375 30.078125 6.109375 
Q 37.203125 6.109375 41.296875 11.75 
Q 45.40625 17.390625 45.40625 27.296875 
Q 45.40625 37.203125 41.296875 42.84375 
Q 37.203125 48.484375 30.078125 48.484375 
Q 22.953125 48.484375 18.875 42.84375 
Q 14.796875 37.203125 14.796875 27.296875 
" id="BitstreamVeraSans-Roman-64"/>
      <path d="M 52 44.1875 
Q 55.375 50.25 60.0625 53.125 
Q 64.75 56 71.09375 56 
Q 79.640625 56 84.28125 50.015625 
Q 88.921875 44.046875 88.921875 33.015625 
L 88.921875 0 
L 79.890625 0 
L 79.890625 32.71875 
Q 79.890625 40.578125 77.09375 44.375 
Q 74.3125 48.1875 68.609375 48.1875 
Q 61.625 48.1875 57.5625 43.546875 
Q 53.515625 38.921875 53.515625 30.90625 
L 53.515625 0 
L 44.484375 0 
L 44.484375 32.71875 
Q 44.484375 40.625 41.703125 44.40625 
Q 38.921875 48.1875 33.109375 48.1875 
Q 26.21875 48.1875 22.15625 43.53125 
Q 18.109375 38.875 18.109375 30.90625 
L 18.109375 0 
L 9.078125 0 
L 9.078125 54.6875 
L 18.109375 54.6875 
L 18.109375 46.1875 
Q 21.1875 51.21875 25.484375 53.609375 
Q 29.78125 56 35.6875 56 
Q 41.65625 56 45.828125 52.96875 
Q 50 49.953125 52 44.1875 
" id="BitstreamVeraSans-Roman-6d"/>
     </defs>
     <g transform="translate(1229.889375 107.71109375)scale(0.3 -0.3)">
      <use xlink:href="#BitstreamVeraSans-Roman-72"/>
      <use x="41.11328125" xlink:href="#BitstreamVeraSans-Roman-61"/>
      <use x="102.392578125" xlink:href="#BitstreamVeraSans-Roman-6e"/>
      <use x="165.771484375" xlink:href="#BitstreamVeraSans-Roman-64"/>
      <use x="229.248046875" xlink:href="#BitstreamVeraSans-Roman-6f"/>
      <use x="290.4296875" xlink:href="#BitstreamVeraSans-Roman-6d"/>
     </g>
    </g>
    <g id="line2d_27">
     <path d="M 1154.889375 141.245469 
L 1196.889375 141.245469 
" style="fill:none;stroke:#008000;stroke-linecap:square;stroke-width:2.0;"/>
    </g>
    <g id="line2d_28"/>
    <g id="text_15">
     <!-- corr -->
     <defs>
      <path d="M 48.78125 52.59375 
L 48.78125 44.1875 
Q 44.96875 46.296875 41.140625 47.34375 
Q 37.3125 48.390625 33.40625 48.390625 
Q 24.65625 48.390625 19.8125 42.84375 
Q 14.984375 37.3125 14.984375 27.296875 
Q 14.984375 17.28125 19.8125 11.734375 
Q 24.65625 6.203125 33.40625 6.203125 
Q 37.3125 6.203125 41.140625 7.25 
Q 44.96875 8.296875 48.78125 10.40625 
L 48.78125 2.09375 
Q 45.015625 0.34375 40.984375 -0.53125 
Q 36.96875 -1.421875 32.421875 -1.421875 
Q 20.0625 -1.421875 12.78125 6.34375 
Q 5.515625 14.109375 5.515625 27.296875 
Q 5.515625 40.671875 12.859375 48.328125 
Q 20.21875 56 33.015625 56 
Q 37.15625 56 41.109375 55.140625 
Q 45.0625 54.296875 48.78125 52.59375 
" id="BitstreamVeraSans-Roman-63"/>
     </defs>
     <g transform="translate(1229.889375 151.74546875)scale(0.3 -0.3)">
      <use xlink:href="#BitstreamVeraSans-Roman-63"/>
      <use x="54.98046875" xlink:href="#BitstreamVeraSans-Roman-6f"/>
      <use x="116.162109375" xlink:href="#BitstreamVeraSans-Roman-72"/>
      <use x="157.259765625" xlink:href="#BitstreamVeraSans-Roman-72"/>
     </g>
    </g>
   </g>
  </g>
 </g>
 <defs>
  <clipPath id="p2790f86daa">
   <rect height="712.42234375" width="1297.03859375" x="76.20390625" y="57.91578125"/>
  </clipPath>
 </defs>
</svg>
