<?xml version="1.0" encoding="utf-8" standalone="no"?>
<!DOCTYPE svg PUBLIC "-//W3C//DTD SVG 1.1//EN"
  "http://www.w3.org/Graphics/SVG/1.1/DTD/svg11.dtd">
<!-- Created with matplotlib (http://matplotlib.org/) -->
<svg height="864pt" version="1.1" viewBox="0 0 1440 864" width="1440pt" xmlns="http://www.w3.org/2000/svg" xmlns:xlink="http://www.w3.org/1999/xlink">
 <defs>
  <style type="text/css">
*{stroke-linecap:butt;stroke-linejoin:round;stroke-miterlimit:100000;}
  </style>
 </defs>
 <g id="figure_1">
  <g id="patch_1">
   <path d="M 0 864 
L 1440 864 
L 1440 0 
L 0 0 
z
" style="fill:#ffffff;"/>
  </g>
  <g id="axes_1">
   <g id="patch_2">
    <path d="M 93.382656 770.338125 
L 1381.831875 770.338125 
L 1381.831875 57.915781 
L 93.382656 57.915781 
z
" style="fill:#ffffff;"/>
   </g>
   <g id="line2d_1">
    <path clip-path="url(#p9063717b0e)" d="M 93.382656 140.852452 
L 95.959555 142.882238 
L 103.69025 152.246191 
L 106.267148 154.789517 
L 108.844047 157.543496 
L 111.420945 158.992646 
L 113.997844 161.436734 
L 116.574742 163.44438 
L 119.151641 164.958589 
L 124.305437 168.845996 
L 126.882336 170.70414 
L 129.459234 173.25683 
L 132.036133 175.341439 
L 139.766828 182.654402 
L 142.343727 184.034526 
L 144.920625 185.9913 
L 147.497523 188.271261 
L 150.074422 190.22831 
L 152.65132 191.517757 
L 155.228219 194.176099 
L 160.382016 197.519143 
L 162.958914 198.563566 
L 165.535813 200.665721 
L 168.112711 203.232231 
L 170.689609 205.062607 
L 173.266508 205.806758 
L 178.420305 209.438272 
L 180.997203 211.140052 
L 183.574102 213.238236 
L 186.151 214.549621 
L 188.727898 216.409601 
L 191.304797 217.853855 
L 193.881695 219.617539 
L 196.458594 221.200418 
L 199.035492 222.235413 
L 201.612391 223.926758 
L 204.189289 225.257673 
L 206.766188 227.037596 
L 209.343086 228.35893 
L 211.919984 230.23925 
L 214.496883 231.883591 
L 217.073781 233.395128 
L 219.65068 235.210613 
L 224.804477 238.32625 
L 227.381375 240.159511 
L 229.958273 241.747552 
L 232.535172 242.271675 
L 235.11207 243.901309 
L 237.688969 246.104979 
L 240.265867 247.647304 
L 242.842766 249.564797 
L 245.419664 251.19143 
L 247.996563 252.461448 
L 250.573461 254.041381 
L 253.150359 255.390189 
L 255.727258 257.093571 
L 258.304156 259.019182 
L 260.881055 260.32121 
L 266.034852 263.551862 
L 268.61175 264.463985 
L 271.188648 265.956752 
L 273.765547 267.266317 
L 276.342445 268.711708 
L 278.919344 270.341342 
L 281.496242 271.150254 
L 284.073141 271.785829 
L 286.650039 273.463524 
L 289.226938 274.964177 
L 291.803836 276.9536 
L 294.380734 278.573621 
L 296.957633 280.805377 
L 302.11143 283.518933 
L 304.688328 285.160241 
L 307.265227 286.454911 
L 309.842125 288.181152 
L 312.419023 290.601496 
L 317.57282 293.225438 
L 320.149719 294.240518 
L 322.726617 296.248562 
L 325.303516 297.815428 
L 327.880414 299.889336 
L 330.457313 301.639805 
L 333.034211 303.588848 
L 335.611109 305.238464 
L 340.764906 307.840731 
L 343.341805 309.499128 
L 345.918703 310.417179 
L 348.495602 311.523086 
L 351.0725 312.38631 
L 353.649398 314.29055 
L 356.226297 315.92807 
L 361.380094 318.997139 
L 363.956992 319.932005 
L 369.110789 322.800605 
L 374.264586 325.677819 
L 376.841484 327.514891 
L 379.418383 329.124842 
L 381.995281 330.142367 
L 384.57218 332.342252 
L 387.149078 334.770277 
L 389.725977 335.70782 
L 392.302875 337.166553 
L 394.879773 338.857641 
L 397.456672 339.864823 
L 400.03357 341.156977 
L 405.187367 344.717339 
L 410.341164 347.411335 
L 412.918063 348.289392 
L 415.494961 350.154327 
L 418.071859 352.22179 
L 423.225656 354.383552 
L 428.379453 357.692522 
L 430.956352 360.061763 
L 433.53325 361.778119 
L 436.110148 363.153458 
L 438.687047 365.030635 
L 441.263945 366.402782 
L 443.840844 368.225255 
L 446.417742 369.865542 
L 454.148438 374.22126 
L 456.725336 376.356404 
L 459.302234 377.557541 
L 461.879133 378.372602 
L 467.03293 382.319295 
L 472.186727 385.030888 
L 474.763625 386.472339 
L 477.340523 387.475752 
L 479.917422 388.976334 
L 482.49432 391.089801 
L 485.071219 392.003983 
L 487.648117 393.894098 
L 490.225016 395.52132 
L 492.801914 397.443758 
L 497.955711 400.161544 
L 500.532609 401.832199 
L 505.686406 404.652338 
L 508.263305 405.83905 
L 515.994 410.873997 
L 518.570898 412.020759 
L 521.147797 413.606148 
L 523.724695 414.31774 
L 531.455391 418.774081 
L 534.032289 420.261956 
L 539.186086 422.810203 
L 541.762984 424.461301 
L 544.339883 426.272224 
L 549.49368 428.076294 
L 552.070578 429.76738 
L 554.647477 431.142473 
L 557.224375 432.67825 
L 559.801273 434.076724 
L 564.95507 437.031412 
L 567.531969 438.389753 
L 570.108867 439.887172 
L 572.685766 440.592365 
L 575.262664 441.669063 
L 577.839563 443.24797 
L 580.416461 444.549238 
L 582.993359 446.813813 
L 585.570258 448.084386 
L 588.147156 448.923867 
L 590.724055 450.567973 
L 593.300953 451.428161 
L 595.877852 452.784247 
L 598.45475 454.645169 
L 601.031648 456.15387 
L 603.608547 457.0697 
L 606.185445 458.466649 
L 608.762344 458.894732 
L 611.339242 460.523386 
L 616.493039 463.095005 
L 619.069938 464.257278 
L 621.646836 465.951693 
L 624.223734 467.474781 
L 626.800633 468.29715 
L 634.531328 473.78614 
L 637.108227 474.754954 
L 642.262023 477.086765 
L 644.838922 478.401494 
L 647.41582 479.410885 
L 649.992719 480.551626 
L 652.569617 482.508625 
L 655.146516 483.62769 
L 657.723414 485.404136 
L 660.300313 486.673883 
L 662.877211 487.583893 
L 670.607906 492.127524 
L 673.184805 494.027324 
L 675.761703 495.28244 
L 678.338602 497.090564 
L 680.9155 498.125159 
L 683.492398 499.810439 
L 686.069297 501.94941 
L 688.646195 503.108715 
L 691.223094 504.035217 
L 704.107586 511.467318 
L 706.684484 513.37251 
L 709.261383 514.906251 
L 714.41518 517.698801 
L 716.992078 519.164454 
L 719.568977 520.461456 
L 722.145875 522.150254 
L 724.722773 524.208457 
L 727.299672 526.432299 
L 729.87657 527.696398 
L 732.453469 529.242928 
L 737.607266 531.945311 
L 740.184164 533.023347 
L 745.337961 536.141218 
L 747.914859 537.219204 
L 750.491758 539.663621 
L 755.645555 543.471241 
L 771.106945 550.745357 
L 773.683844 552.896741 
L 776.260742 553.910558 
L 778.837641 555.695477 
L 783.991437 558.52168 
L 786.568336 559.991287 
L 789.145234 560.802864 
L 791.722133 562.452445 
L 799.452828 565.847964 
L 802.029727 567.851491 
L 804.606625 569.435897 
L 807.183523 570.372924 
L 809.760422 571.668595 
L 812.33732 573.385127 
L 814.914219 574.638932 
L 817.491117 576.100623 
L 820.068016 577.004317 
L 822.644914 578.532725 
L 825.221813 580.248396 
L 827.798711 581.82859 
L 830.375609 583.595493 
L 832.952508 584.849335 
L 835.529406 585.713491 
L 838.106305 587.736471 
L 840.683203 589.424323 
L 843.260102 590.6217 
L 845.837 591.997044 
L 848.413898 593.058903 
L 856.144594 597.44399 
L 858.721492 599.067216 
L 861.298391 600.413669 
L 863.875289 602.305008 
L 866.452188 603.278908 
L 869.029086 605.302132 
L 874.182883 607.667086 
L 876.759781 608.54464 
L 879.33668 609.301511 
L 884.490477 613.3175 
L 887.067375 614.500308 
L 889.644273 615.999443 
L 892.221172 617.356179 
L 894.79807 619.424815 
L 897.374969 621.071632 
L 899.951867 622.177202 
L 902.528766 623.445092 
L 905.105664 625.220231 
L 910.259461 627.882283 
L 915.413258 630.808823 
L 917.990156 632.599259 
L 920.567055 633.514294 
L 925.720852 636.01879 
L 928.29775 637.543546 
L 930.874648 638.814809 
L 933.451547 639.886035 
L 936.028445 641.587484 
L 941.182242 643.876297 
L 943.759141 645.416357 
L 946.336039 646.46778 
L 954.066734 651.11239 
L 956.643633 653.148504 
L 961.79743 655.801715 
L 964.374328 657.527243 
L 966.951227 658.949013 
L 969.528125 659.878674 
L 974.681922 662.680382 
L 977.25882 663.806089 
L 979.835719 665.890978 
L 982.412617 666.918351 
L 984.989516 668.199846 
L 987.566414 669.638218 
L 990.143312 670.772647 
L 992.720211 671.370577 
L 995.297109 673.106171 
L 997.874008 674.232854 
L 1003.027805 677.490528 
L 1005.604703 678.828266 
L 1008.181602 680.527174 
L 1010.7585 681.565211 
L 1018.489195 685.756618 
L 1021.066094 686.621178 
L 1023.642992 688.518751 
L 1026.219891 690.181687 
L 1028.796789 692.106393 
L 1031.373688 693.609189 
L 1033.950586 694.662799 
L 1036.527484 696.228624 
L 1039.104383 697.297085 
L 1041.681281 698.799588 
L 1044.25818 700.095847 
L 1049.411977 703.086532 
L 1051.988875 704.976512 
L 1054.565773 706.091927 
L 1057.142672 707.399238 
L 1059.71957 709.341852 
L 1067.450266 712.384557 
L 1070.027164 713.985874 
L 1075.180961 715.747363 
L 1077.757859 717.922374 
L 1080.334758 719.298824 
L 1082.911656 720.211685 
L 1085.488555 721.647377 
L 1088.065453 722.757488 
L 1090.642352 724.082654 
L 1093.21925 724.87908 
L 1095.796148 726.708619 
L 1100.949945 729.255199 
L 1106.103742 731.861309 
L 1108.680641 733.791858 
L 1113.834438 736.264129 
L 1116.411336 738.124991 
L 1118.988234 739.619504 
L 1124.142031 741.933432 
L 1129.295828 743.549538 
L 1131.872727 744.753433 
L 1134.449625 746.454967 
L 1137.026523 747.624554 
L 1139.603422 748.266994 
L 1144.757219 749.788803 
L 1147.334117 750.332464 
L 1149.911016 750.575269 
L 1152.487914 751.815928 
L 1157.641711 752.645469 
L 1160.218609 753.620059 
L 1162.795508 754.458015 
L 1165.372406 755.72442 
L 1170.526203 755.020036 
L 1173.103102 756.220698 
L 1175.68 756.281167 
L 1178.256898 757.243683 
L 1183.410695 757.292972 
L 1185.987594 756.795488 
L 1191.141391 756.813578 
L 1193.718289 757.189812 
L 1196.295188 757.876487 
L 1198.872086 759.671919 
L 1204.025883 758.820655 
L 1206.602781 759.391454 
L 1209.17968 759.068725 
L 1211.756578 759.638472 
L 1214.333477 759.013964 
L 1216.910375 759.478876 
L 1219.487273 760.132304 
L 1222.064172 759.316583 
L 1224.64107 758.886823 
L 1227.217969 759.655537 
L 1229.794867 759.080301 
L 1232.371766 759.532506 
L 1234.948664 759.757733 
L 1237.525563 759.150869 
L 1242.679359 759.891002 
L 1245.256258 759.849988 
L 1247.833156 759.036348 
L 1250.410055 758.951895 
L 1252.986953 759.3685 
L 1255.563852 759.105642 
L 1258.14075 758.616403 
L 1260.717648 758.487153 
L 1263.294547 759.175211 
L 1265.871445 759.333727 
L 1268.448344 759.322529 
L 1271.025242 759.844937 
L 1273.602141 758.514859 
L 1276.179039 759.735916 
L 1278.755938 760.47786 
L 1281.332836 760.97602 
L 1283.909734 760.560781 
L 1286.486633 760.64457 
L 1289.063531 759.786717 
L 1291.64043 759.936586 
L 1294.217328 760.557952 
L 1296.794227 760.205282 
L 1299.371125 760.093892 
L 1301.948023 759.677508 
L 1307.10182 758.50782 
L 1309.678719 757.250013 
L 1312.255617 758.389222 
L 1314.832516 758.357195 
L 1317.409414 757.868114 
L 1319.986313 758.206653 
L 1322.563211 759.360006 
L 1325.140109 759.645555 
L 1327.717008 759.108339 
L 1330.293906 758.311027 
L 1332.870805 758.720666 
L 1335.447703 758.458452 
L 1338.024602 758.702315 
L 1340.6015 758.362597 
L 1343.178398 759.378918 
L 1348.332195 759.062149 
L 1350.909094 758.068816 
L 1353.485992 759.423357 
L 1356.062891 758.652723 
L 1358.639789 759.555924 
L 1361.216688 759.84865 
L 1363.793586 759.106754 
L 1366.370484 757.842193 
L 1368.947383 757.76926 
L 1376.678078 759.638053 
L 1379.254977 759.603423 
L 1379.254977 759.603423 
" style="fill:none;stroke:#0000ff;stroke-linecap:square;stroke-width:2.0;"/>
   </g>
   <g id="line2d_2">
    <path clip-path="url(#p9063717b0e)" d="M 93.382656 140.191706 
L 95.959555 142.813857 
L 98.536453 145.401027 
L 101.113352 148.316002 
L 103.69025 150.486784 
L 106.267148 152.130952 
L 108.844047 155.606196 
L 113.997844 160.047543 
L 116.574742 162.863012 
L 119.151641 165.196762 
L 121.728539 167.873535 
L 124.305437 169.536322 
L 126.882336 171.693564 
L 129.459234 173.490923 
L 132.036133 175.940168 
L 134.613031 178.21799 
L 137.18993 180.139581 
L 139.766828 181.846921 
L 142.343727 183.842098 
L 144.920625 185.531251 
L 147.497523 186.571008 
L 150.074422 188.477342 
L 152.65132 189.754608 
L 155.228219 192.532866 
L 157.805117 193.215471 
L 160.382016 194.36539 
L 162.958914 196.367338 
L 165.535813 198.629349 
L 168.112711 200.021219 
L 170.689609 201.608004 
L 173.266508 202.745907 
L 183.574102 210.148613 
L 186.151 211.634278 
L 188.727898 212.788574 
L 191.304797 214.663539 
L 193.881695 216.685929 
L 199.035492 219.873417 
L 201.612391 221.778993 
L 204.189289 223.214706 
L 206.766188 224.4933 
L 209.343086 225.516776 
L 211.919984 227.81431 
L 214.496883 229.315078 
L 217.073781 230.62891 
L 219.65068 232.64815 
L 222.227578 234.992581 
L 224.804477 236.329172 
L 227.381375 238.874933 
L 229.958273 240.569064 
L 235.11207 243.469868 
L 237.688969 245.029904 
L 240.265867 246.286911 
L 242.842766 247.79768 
L 247.996563 250.129902 
L 255.727258 254.995001 
L 258.304156 256.894102 
L 263.457953 260.17424 
L 266.034852 262.889057 
L 268.61175 265.233582 
L 271.188648 266.958319 
L 273.765547 268.376236 
L 276.342445 269.498538 
L 278.919344 270.839286 
L 281.496242 271.017203 
L 286.650039 273.728751 
L 289.226938 275.205525 
L 291.803836 276.280531 
L 296.957633 279.821496 
L 299.534531 280.679105 
L 302.11143 282.462485 
L 304.688328 283.988196 
L 309.842125 288.090245 
L 312.419023 289.881056 
L 314.995922 291.291206 
L 317.57282 293.098463 
L 320.149719 293.795947 
L 325.303516 296.553712 
L 330.457313 299.499588 
L 333.034211 301.354771 
L 335.611109 302.499857 
L 338.188008 304.463235 
L 340.764906 305.549628 
L 345.918703 308.338162 
L 348.495602 310.093906 
L 351.0725 311.18812 
L 353.649398 311.372106 
L 358.803195 315.098165 
L 361.380094 316.604981 
L 363.956992 318.263375 
L 366.533891 320.34911 
L 369.110789 321.554504 
L 374.264586 324.473488 
L 376.841484 325.563741 
L 379.418383 326.809149 
L 389.725977 333.981221 
L 392.302875 335.273623 
L 397.456672 338.2609 
L 400.03357 339.726427 
L 402.610469 341.648749 
L 405.187367 343.269838 
L 412.918063 346.958201 
L 415.494961 348.711926 
L 418.071859 350.6253 
L 420.648758 352.318753 
L 423.225656 354.260383 
L 425.802555 355.183527 
L 428.379453 356.467215 
L 433.53325 359.440108 
L 436.110148 361.367623 
L 438.687047 363.065803 
L 441.263945 364.490866 
L 443.840844 366.245545 
L 448.994641 369.485481 
L 451.571539 370.807793 
L 454.148438 372.38735 
L 456.725336 373.772022 
L 461.879133 376.233323 
L 464.456031 378.566108 
L 467.03293 380.19885 
L 469.609828 381.339843 
L 472.186727 382.242582 
L 474.763625 383.270642 
L 477.340523 385.490393 
L 479.917422 386.968475 
L 482.49432 387.902914 
L 485.071219 390.262039 
L 487.648117 391.756908 
L 490.225016 392.803562 
L 492.801914 394.026233 
L 495.378812 395.459229 
L 500.532609 398.652426 
L 503.109508 399.936608 
L 508.263305 402.00881 
L 510.840203 403.227794 
L 518.570898 408.115863 
L 523.724695 410.730659 
L 526.301594 411.303118 
L 528.878492 413.005302 
L 531.455391 414.32941 
L 539.186086 417.698226 
L 541.762984 419.356586 
L 544.339883 421.210368 
L 546.916781 422.570892 
L 549.49368 423.691189 
L 554.647477 427.32498 
L 557.224375 429.267771 
L 559.801273 430.81499 
L 562.378172 431.824705 
L 564.95507 433.215947 
L 567.531969 434.749111 
L 570.108867 436.065743 
L 575.262664 439.492277 
L 577.839563 440.765218 
L 580.416461 441.908286 
L 582.993359 442.90883 
L 585.570258 444.108324 
L 588.147156 445.645701 
L 590.724055 446.987766 
L 595.877852 450.108283 
L 598.45475 451.588857 
L 601.031648 452.857932 
L 603.608547 454.742364 
L 611.339242 458.382138 
L 613.916141 460.024034 
L 616.493039 461.455462 
L 619.069938 463.119763 
L 624.223734 465.87415 
L 626.800633 467.857043 
L 629.377531 469.066689 
L 634.531328 471.767557 
L 637.108227 473.426873 
L 639.685125 474.620376 
L 647.41582 478.82488 
L 649.992719 479.938464 
L 652.569617 481.294943 
L 655.146516 482.524753 
L 657.723414 484.058705 
L 660.300313 484.904096 
L 662.877211 486.034657 
L 665.454109 487.716134 
L 668.031008 489.636591 
L 670.607906 491.138649 
L 683.492398 497.490737 
L 686.069297 499.538485 
L 688.646195 500.992173 
L 691.223094 502.212996 
L 704.107586 511.851347 
L 706.684484 513.135679 
L 709.261383 514.737542 
L 711.838281 516.142403 
L 714.41518 517.750002 
L 716.992078 518.969346 
L 719.568977 520.661986 
L 722.145875 521.352487 
L 729.87657 524.831334 
L 735.030367 528.471025 
L 740.184164 531.161131 
L 742.761062 532.793315 
L 745.337961 534.704158 
L 747.914859 536.441687 
L 750.491758 537.616738 
L 755.645555 540.725142 
L 758.222453 541.742204 
L 760.799352 543.137584 
L 763.37625 545.061256 
L 765.953148 546.592002 
L 768.530047 547.719795 
L 771.106945 549.602313 
L 773.683844 550.946963 
L 776.260742 552.986548 
L 778.837641 554.71187 
L 781.414539 555.980371 
L 789.145234 560.489355 
L 791.722133 561.871792 
L 794.299031 563.12476 
L 796.87593 563.335376 
L 799.452828 564.81358 
L 802.029727 566.426303 
L 804.606625 567.408262 
L 807.183523 568.555357 
L 809.760422 570.095018 
L 812.33732 572.058706 
L 814.914219 572.932258 
L 817.491117 574.744529 
L 820.068016 576.08243 
L 822.644914 577.184665 
L 827.798711 580.016577 
L 830.375609 580.916375 
L 832.952508 582.975403 
L 835.529406 584.316619 
L 838.106305 585.848618 
L 843.260102 589.144563 
L 845.837 590.391612 
L 848.413898 592.302266 
L 850.990797 594.049962 
L 853.567695 596.194687 
L 856.144594 597.286722 
L 858.721492 598.682045 
L 861.298391 600.234441 
L 866.452188 602.652518 
L 869.029086 604.178681 
L 871.605984 605.87341 
L 874.182883 607.395993 
L 879.33668 609.598773 
L 881.913578 611.740648 
L 887.067375 614.158705 
L 889.644273 615.026197 
L 892.221172 616.119019 
L 894.79807 617.437706 
L 897.374969 619.217872 
L 899.951867 620.295462 
L 905.105664 623.985004 
L 907.682563 625.373351 
L 910.259461 627.219601 
L 912.836359 628.182253 
L 915.413258 629.45428 
L 917.990156 631.10669 
L 920.567055 631.974643 
L 923.143953 633.575473 
L 925.720852 635.489308 
L 928.29775 636.768085 
L 930.874648 638.353002 
L 933.451547 640.102831 
L 938.605344 644.500424 
L 943.759141 646.709974 
L 946.336039 648.949448 
L 948.912937 649.882762 
L 951.489836 650.982434 
L 954.066734 651.721116 
L 956.643633 652.910885 
L 959.220531 654.281456 
L 961.79743 656.616078 
L 964.374328 657.761279 
L 966.951227 659.305202 
L 969.528125 660.053628 
L 974.681922 662.69593 
L 977.25882 664.329084 
L 979.835719 665.801012 
L 982.412617 667.713188 
L 987.566414 670.109157 
L 990.143312 671.565426 
L 995.297109 675.125324 
L 1000.450906 677.859846 
L 1003.027805 679.52357 
L 1005.604703 680.843472 
L 1008.181602 682.011883 
L 1010.7585 683.470384 
L 1015.912297 686.723587 
L 1018.489195 688.211134 
L 1021.066094 689.473693 
L 1023.642992 691.200798 
L 1026.219891 692.530101 
L 1028.796789 694.115269 
L 1033.950586 697.082136 
L 1036.527484 699.324307 
L 1039.104383 700.595003 
L 1041.681281 702.700292 
L 1044.25818 704.140508 
L 1046.835078 705.035335 
L 1049.411977 706.433842 
L 1051.988875 708.600753 
L 1054.565773 710.23031 
L 1057.142672 711.5269 
L 1059.71957 712.531722 
L 1064.873367 715.39737 
L 1067.450266 716.421059 
L 1072.604063 718.772961 
L 1075.180961 720.320868 
L 1077.757859 721.608456 
L 1080.334758 722.645997 
L 1082.911656 724.28421 
L 1085.488555 725.346004 
L 1088.065453 726.573748 
L 1090.642352 728.169115 
L 1095.796148 729.917258 
L 1098.373047 731.027711 
L 1100.949945 731.886441 
L 1103.526844 734.213676 
L 1108.680641 736.153864 
L 1111.257539 737.485056 
L 1113.834438 739.342407 
L 1124.142031 743.822155 
L 1129.295828 745.43756 
L 1134.449625 747.667082 
L 1137.026523 748.78079 
L 1139.603422 749.356155 
L 1142.18032 750.226742 
L 1144.757219 751.239997 
L 1147.334117 751.949475 
L 1152.487914 752.51908 
L 1155.064813 752.513742 
L 1157.641711 753.599434 
L 1160.218609 753.821205 
L 1162.795508 753.633545 
L 1165.372406 753.58135 
L 1167.949305 754.091765 
L 1170.526203 754.829779 
L 1173.103102 756.0374 
L 1175.68 755.643735 
L 1178.256898 757.883918 
L 1180.833797 757.7701 
L 1183.410695 757.398504 
L 1185.987594 757.446356 
L 1188.564492 757.79387 
L 1191.141391 757.019876 
L 1193.718289 756.002746 
L 1198.872086 757.436548 
L 1201.448984 756.617227 
L 1204.025883 756.731663 
L 1206.602781 757.126819 
L 1209.17968 757.333827 
L 1211.756578 757.242996 
L 1214.333477 756.817755 
L 1216.910375 757.725138 
L 1219.487273 757.8191 
L 1222.064172 757.723056 
L 1224.64107 756.435795 
L 1227.217969 757.043999 
L 1229.794867 757.801118 
L 1232.371766 757.779066 
L 1234.948664 758.2396 
L 1237.525563 757.772342 
L 1240.102461 757.495596 
L 1242.679359 757.104767 
L 1245.256258 757.977627 
L 1247.833156 758.256311 
L 1250.410055 758.870127 
L 1252.986953 758.291699 
L 1255.563852 758.027741 
L 1258.14075 758.099609 
L 1260.717648 758.344165 
L 1263.294547 757.451599 
L 1265.871445 759.099134 
L 1268.448344 758.965047 
L 1271.025242 759.50221 
L 1273.602141 758.80323 
L 1276.179039 759.087948 
L 1278.755938 758.124021 
L 1283.909734 757.903608 
L 1286.486633 758.583702 
L 1289.063531 758.406307 
L 1291.64043 758.39939 
L 1294.217328 758.54941 
L 1296.794227 758.511978 
L 1299.371125 758.738853 
L 1301.948023 757.796862 
L 1307.10182 757.325819 
L 1309.678719 757.499269 
L 1312.255617 758.984689 
L 1314.832516 759.196655 
L 1319.986313 759.176837 
L 1322.563211 758.687993 
L 1325.140109 759.458893 
L 1327.717008 759.766507 
L 1330.293906 759.155457 
L 1335.447703 760.2147 
L 1338.024602 759.309857 
L 1340.6015 759.671704 
L 1343.178398 759.562462 
L 1348.332195 758.506788 
L 1350.909094 758.907088 
L 1353.485992 758.892846 
L 1356.062891 758.578794 
L 1358.639789 759.093039 
L 1363.793586 757.700882 
L 1366.370484 757.952775 
L 1368.947383 757.29072 
L 1371.524281 758.253282 
L 1374.10118 758.793851 
L 1376.678078 758.657908 
L 1379.254977 759.011119 
L 1379.254977 759.011119 
" style="fill:none;stroke:#008000;stroke-linecap:square;stroke-width:2.0;"/>
   </g>
   <g id="patch_3">
    <path d="M 93.382656 57.915781 
L 1381.831875 57.915781 
" style="fill:none;stroke:#000000;stroke-linecap:square;stroke-linejoin:miter;"/>
   </g>
   <g id="patch_4">
    <path d="M 1381.831875 770.338125 
L 1381.831875 57.915781 
" style="fill:none;stroke:#000000;stroke-linecap:square;stroke-linejoin:miter;"/>
   </g>
   <g id="patch_5">
    <path d="M 93.382656 770.338125 
L 1381.831875 770.338125 
" style="fill:none;stroke:#000000;stroke-linecap:square;stroke-linejoin:miter;"/>
   </g>
   <g id="patch_6">
    <path d="M 93.382656 770.338125 
L 93.382656 57.915781 
" style="fill:none;stroke:#000000;stroke-linecap:square;stroke-linejoin:miter;"/>
   </g>
   <g id="matplotlib.axis_1">
    <g id="xtick_1">
     <g id="line2d_3">
      <defs>
       <path d="M 0 0 
L 0 -4 
" id="m3e61ababa1" style="stroke:#000000;stroke-width:0.5;"/>
      </defs>
      <g>
       <use style="stroke:#000000;stroke-width:0.5;" x="93.38265625" xlink:href="#m3e61ababa1" y="770.338125"/>
      </g>
     </g>
     <g id="line2d_4">
      <defs>
       <path d="M 0 0 
L 0 4 
" id="mbcc2fba30f" style="stroke:#000000;stroke-width:0.5;"/>
      </defs>
      <g>
       <use style="stroke:#000000;stroke-width:0.5;" x="93.38265625" xlink:href="#mbcc2fba30f" y="57.91578125"/>
      </g>
     </g>
     <g id="text_1">
      <!-- 0 -->
      <defs>
       <path d="M 31.78125 66.40625 
Q 24.171875 66.40625 20.328125 58.90625 
Q 16.5 51.421875 16.5 36.375 
Q 16.5 21.390625 20.328125 13.890625 
Q 24.171875 6.390625 31.78125 6.390625 
Q 39.453125 6.390625 43.28125 13.890625 
Q 47.125 21.390625 47.125 36.375 
Q 47.125 51.421875 43.28125 58.90625 
Q 39.453125 66.40625 31.78125 66.40625 
M 31.78125 74.21875 
Q 44.046875 74.21875 50.515625 64.515625 
Q 56.984375 54.828125 56.984375 36.375 
Q 56.984375 17.96875 50.515625 8.265625 
Q 44.046875 -1.421875 31.78125 -1.421875 
Q 19.53125 -1.421875 13.0625 8.265625 
Q 6.59375 17.96875 6.59375 36.375 
Q 6.59375 54.828125 13.0625 64.515625 
Q 19.53125 74.21875 31.78125 74.21875 
" id="BitstreamVeraSans-Roman-30"/>
      </defs>
      <g transform="translate(83.83890625 797.1334375)scale(0.3 -0.3)">
       <use xlink:href="#BitstreamVeraSans-Roman-30"/>
      </g>
     </g>
    </g>
    <g id="xtick_2">
     <g id="line2d_5">
      <g>
       <use style="stroke:#000000;stroke-width:0.5;" x="351.0725" xlink:href="#m3e61ababa1" y="770.338125"/>
      </g>
     </g>
     <g id="line2d_6">
      <g>
       <use style="stroke:#000000;stroke-width:0.5;" x="351.0725" xlink:href="#mbcc2fba30f" y="57.91578125"/>
      </g>
     </g>
     <g id="text_2">
      <!-- 100 -->
      <defs>
       <path d="M 12.40625 8.296875 
L 28.515625 8.296875 
L 28.515625 63.921875 
L 10.984375 60.40625 
L 10.984375 69.390625 
L 28.421875 72.90625 
L 38.28125 72.90625 
L 38.28125 8.296875 
L 54.390625 8.296875 
L 54.390625 0 
L 12.40625 0 
z
" id="BitstreamVeraSans-Roman-31"/>
      </defs>
      <g transform="translate(322.44125 797.1334375)scale(0.3 -0.3)">
       <use xlink:href="#BitstreamVeraSans-Roman-31"/>
       <use x="63.623046875" xlink:href="#BitstreamVeraSans-Roman-30"/>
       <use x="127.24609375" xlink:href="#BitstreamVeraSans-Roman-30"/>
      </g>
     </g>
    </g>
    <g id="xtick_3">
     <g id="line2d_7">
      <g>
       <use style="stroke:#000000;stroke-width:0.5;" x="608.76234375" xlink:href="#m3e61ababa1" y="770.338125"/>
      </g>
     </g>
     <g id="line2d_8">
      <g>
       <use style="stroke:#000000;stroke-width:0.5;" x="608.76234375" xlink:href="#mbcc2fba30f" y="57.91578125"/>
      </g>
     </g>
     <g id="text_3">
      <!-- 200 -->
      <defs>
       <path d="M 19.1875 8.296875 
L 53.609375 8.296875 
L 53.609375 0 
L 7.328125 0 
L 7.328125 8.296875 
Q 12.9375 14.109375 22.625 23.890625 
Q 32.328125 33.6875 34.8125 36.53125 
Q 39.546875 41.84375 41.421875 45.53125 
Q 43.3125 49.21875 43.3125 52.78125 
Q 43.3125 58.59375 39.234375 62.25 
Q 35.15625 65.921875 28.609375 65.921875 
Q 23.96875 65.921875 18.8125 64.3125 
Q 13.671875 62.703125 7.8125 59.421875 
L 7.8125 69.390625 
Q 13.765625 71.78125 18.9375 73 
Q 24.125 74.21875 28.421875 74.21875 
Q 39.75 74.21875 46.484375 68.546875 
Q 53.21875 62.890625 53.21875 53.421875 
Q 53.21875 48.921875 51.53125 44.890625 
Q 49.859375 40.875 45.40625 35.40625 
Q 44.1875 33.984375 37.640625 27.21875 
Q 31.109375 20.453125 19.1875 8.296875 
" id="BitstreamVeraSans-Roman-32"/>
      </defs>
      <g transform="translate(580.13109375 797.1334375)scale(0.3 -0.3)">
       <use xlink:href="#BitstreamVeraSans-Roman-32"/>
       <use x="63.623046875" xlink:href="#BitstreamVeraSans-Roman-30"/>
       <use x="127.24609375" xlink:href="#BitstreamVeraSans-Roman-30"/>
      </g>
     </g>
    </g>
    <g id="xtick_4">
     <g id="line2d_9">
      <g>
       <use style="stroke:#000000;stroke-width:0.5;" x="866.4521875" xlink:href="#m3e61ababa1" y="770.338125"/>
      </g>
     </g>
     <g id="line2d_10">
      <g>
       <use style="stroke:#000000;stroke-width:0.5;" x="866.4521875" xlink:href="#mbcc2fba30f" y="57.91578125"/>
      </g>
     </g>
     <g id="text_4">
      <!-- 300 -->
      <defs>
       <path d="M 40.578125 39.3125 
Q 47.65625 37.796875 51.625 33 
Q 55.609375 28.21875 55.609375 21.1875 
Q 55.609375 10.40625 48.1875 4.484375 
Q 40.765625 -1.421875 27.09375 -1.421875 
Q 22.515625 -1.421875 17.65625 -0.515625 
Q 12.796875 0.390625 7.625 2.203125 
L 7.625 11.71875 
Q 11.71875 9.328125 16.59375 8.109375 
Q 21.484375 6.890625 26.8125 6.890625 
Q 36.078125 6.890625 40.9375 10.546875 
Q 45.796875 14.203125 45.796875 21.1875 
Q 45.796875 27.640625 41.28125 31.265625 
Q 36.765625 34.90625 28.71875 34.90625 
L 20.21875 34.90625 
L 20.21875 43.015625 
L 29.109375 43.015625 
Q 36.375 43.015625 40.234375 45.921875 
Q 44.09375 48.828125 44.09375 54.296875 
Q 44.09375 59.90625 40.109375 62.90625 
Q 36.140625 65.921875 28.71875 65.921875 
Q 24.65625 65.921875 20.015625 65.03125 
Q 15.375 64.15625 9.8125 62.3125 
L 9.8125 71.09375 
Q 15.4375 72.65625 20.34375 73.4375 
Q 25.25 74.21875 29.59375 74.21875 
Q 40.828125 74.21875 47.359375 69.109375 
Q 53.90625 64.015625 53.90625 55.328125 
Q 53.90625 49.265625 50.4375 45.09375 
Q 46.96875 40.921875 40.578125 39.3125 
" id="BitstreamVeraSans-Roman-33"/>
      </defs>
      <g transform="translate(837.8209375 797.1334375)scale(0.3 -0.3)">
       <use xlink:href="#BitstreamVeraSans-Roman-33"/>
       <use x="63.623046875" xlink:href="#BitstreamVeraSans-Roman-30"/>
       <use x="127.24609375" xlink:href="#BitstreamVeraSans-Roman-30"/>
      </g>
     </g>
    </g>
    <g id="xtick_5">
     <g id="line2d_11">
      <g>
       <use style="stroke:#000000;stroke-width:0.5;" x="1124.14203125" xlink:href="#m3e61ababa1" y="770.338125"/>
      </g>
     </g>
     <g id="line2d_12">
      <g>
       <use style="stroke:#000000;stroke-width:0.5;" x="1124.14203125" xlink:href="#mbcc2fba30f" y="57.91578125"/>
      </g>
     </g>
     <g id="text_5">
      <!-- 400 -->
      <defs>
       <path d="M 37.796875 64.3125 
L 12.890625 25.390625 
L 37.796875 25.390625 
z
M 35.203125 72.90625 
L 47.609375 72.90625 
L 47.609375 25.390625 
L 58.015625 25.390625 
L 58.015625 17.1875 
L 47.609375 17.1875 
L 47.609375 0 
L 37.796875 0 
L 37.796875 17.1875 
L 4.890625 17.1875 
L 4.890625 26.703125 
z
" id="BitstreamVeraSans-Roman-34"/>
      </defs>
      <g transform="translate(1095.51078125 797.1334375)scale(0.3 -0.3)">
       <use xlink:href="#BitstreamVeraSans-Roman-34"/>
       <use x="63.623046875" xlink:href="#BitstreamVeraSans-Roman-30"/>
       <use x="127.24609375" xlink:href="#BitstreamVeraSans-Roman-30"/>
      </g>
     </g>
    </g>
    <g id="xtick_6">
     <g id="line2d_13">
      <g>
       <use style="stroke:#000000;stroke-width:0.5;" x="1381.831875" xlink:href="#m3e61ababa1" y="770.338125"/>
      </g>
     </g>
     <g id="line2d_14">
      <g>
       <use style="stroke:#000000;stroke-width:0.5;" x="1381.831875" xlink:href="#mbcc2fba30f" y="57.91578125"/>
      </g>
     </g>
     <g id="text_6">
      <!-- 500 -->
      <defs>
       <path d="M 10.796875 72.90625 
L 49.515625 72.90625 
L 49.515625 64.59375 
L 19.828125 64.59375 
L 19.828125 46.734375 
Q 21.96875 47.46875 24.109375 47.828125 
Q 26.265625 48.1875 28.421875 48.1875 
Q 40.625 48.1875 47.75 41.5 
Q 54.890625 34.8125 54.890625 23.390625 
Q 54.890625 11.625 47.5625 5.09375 
Q 40.234375 -1.421875 26.90625 -1.421875 
Q 22.3125 -1.421875 17.546875 -0.640625 
Q 12.796875 0.140625 7.71875 1.703125 
L 7.71875 11.625 
Q 12.109375 9.234375 16.796875 8.0625 
Q 21.484375 6.890625 26.703125 6.890625 
Q 35.15625 6.890625 40.078125 11.328125 
Q 45.015625 15.765625 45.015625 23.390625 
Q 45.015625 31 40.078125 35.4375 
Q 35.15625 39.890625 26.703125 39.890625 
Q 22.75 39.890625 18.8125 39.015625 
Q 14.890625 38.140625 10.796875 36.28125 
z
" id="BitstreamVeraSans-Roman-35"/>
      </defs>
      <g transform="translate(1353.200625 797.1334375)scale(0.3 -0.3)">
       <use xlink:href="#BitstreamVeraSans-Roman-35"/>
       <use x="63.623046875" xlink:href="#BitstreamVeraSans-Roman-30"/>
       <use x="127.24609375" xlink:href="#BitstreamVeraSans-Roman-30"/>
      </g>
     </g>
    </g>
    <g id="text_7">
     <!-- iterations -->
     <defs>
      <path d="M 54.890625 33.015625 
L 54.890625 0 
L 45.90625 0 
L 45.90625 32.71875 
Q 45.90625 40.484375 42.875 44.328125 
Q 39.84375 48.1875 33.796875 48.1875 
Q 26.515625 48.1875 22.3125 43.546875 
Q 18.109375 38.921875 18.109375 30.90625 
L 18.109375 0 
L 9.078125 0 
L 9.078125 54.6875 
L 18.109375 54.6875 
L 18.109375 46.1875 
Q 21.34375 51.125 25.703125 53.5625 
Q 30.078125 56 35.796875 56 
Q 45.21875 56 50.046875 50.171875 
Q 54.890625 44.34375 54.890625 33.015625 
" id="BitstreamVeraSans-Roman-6e"/>
      <path d="M 34.28125 27.484375 
Q 23.390625 27.484375 19.1875 25 
Q 14.984375 22.515625 14.984375 16.5 
Q 14.984375 11.71875 18.140625 8.90625 
Q 21.296875 6.109375 26.703125 6.109375 
Q 34.1875 6.109375 38.703125 11.40625 
Q 43.21875 16.703125 43.21875 25.484375 
L 43.21875 27.484375 
z
M 52.203125 31.203125 
L 52.203125 0 
L 43.21875 0 
L 43.21875 8.296875 
Q 40.140625 3.328125 35.546875 0.953125 
Q 30.953125 -1.421875 24.3125 -1.421875 
Q 15.921875 -1.421875 10.953125 3.296875 
Q 6 8.015625 6 15.921875 
Q 6 25.140625 12.171875 29.828125 
Q 18.359375 34.515625 30.609375 34.515625 
L 43.21875 34.515625 
L 43.21875 35.40625 
Q 43.21875 41.609375 39.140625 45 
Q 35.0625 48.390625 27.6875 48.390625 
Q 23 48.390625 18.546875 47.265625 
Q 14.109375 46.140625 10.015625 43.890625 
L 10.015625 52.203125 
Q 14.9375 54.109375 19.578125 55.046875 
Q 24.21875 56 28.609375 56 
Q 40.484375 56 46.34375 49.84375 
Q 52.203125 43.703125 52.203125 31.203125 
" id="BitstreamVeraSans-Roman-61"/>
      <path d="M 30.609375 48.390625 
Q 23.390625 48.390625 19.1875 42.75 
Q 14.984375 37.109375 14.984375 27.296875 
Q 14.984375 17.484375 19.15625 11.84375 
Q 23.34375 6.203125 30.609375 6.203125 
Q 37.796875 6.203125 41.984375 11.859375 
Q 46.1875 17.53125 46.1875 27.296875 
Q 46.1875 37.015625 41.984375 42.703125 
Q 37.796875 48.390625 30.609375 48.390625 
M 30.609375 56 
Q 42.328125 56 49.015625 48.375 
Q 55.71875 40.765625 55.71875 27.296875 
Q 55.71875 13.875 49.015625 6.21875 
Q 42.328125 -1.421875 30.609375 -1.421875 
Q 18.84375 -1.421875 12.171875 6.21875 
Q 5.515625 13.875 5.515625 27.296875 
Q 5.515625 40.765625 12.171875 48.375 
Q 18.84375 56 30.609375 56 
" id="BitstreamVeraSans-Roman-6f"/>
      <path d="M 9.421875 54.6875 
L 18.40625 54.6875 
L 18.40625 0 
L 9.421875 0 
z
M 9.421875 75.984375 
L 18.40625 75.984375 
L 18.40625 64.59375 
L 9.421875 64.59375 
z
" id="BitstreamVeraSans-Roman-69"/>
      <path d="M 56.203125 29.59375 
L 56.203125 25.203125 
L 14.890625 25.203125 
Q 15.484375 15.921875 20.484375 11.0625 
Q 25.484375 6.203125 34.421875 6.203125 
Q 39.59375 6.203125 44.453125 7.46875 
Q 49.3125 8.734375 54.109375 11.28125 
L 54.109375 2.78125 
Q 49.265625 0.734375 44.1875 -0.34375 
Q 39.109375 -1.421875 33.890625 -1.421875 
Q 20.796875 -1.421875 13.15625 6.1875 
Q 5.515625 13.8125 5.515625 26.8125 
Q 5.515625 40.234375 12.765625 48.109375 
Q 20.015625 56 32.328125 56 
Q 43.359375 56 49.78125 48.890625 
Q 56.203125 41.796875 56.203125 29.59375 
M 47.21875 32.234375 
Q 47.125 39.59375 43.09375 43.984375 
Q 39.0625 48.390625 32.421875 48.390625 
Q 24.90625 48.390625 20.390625 44.140625 
Q 15.875 39.890625 15.1875 32.171875 
z
" id="BitstreamVeraSans-Roman-65"/>
      <path d="M 18.3125 70.21875 
L 18.3125 54.6875 
L 36.8125 54.6875 
L 36.8125 47.703125 
L 18.3125 47.703125 
L 18.3125 18.015625 
Q 18.3125 11.328125 20.140625 9.421875 
Q 21.96875 7.515625 27.59375 7.515625 
L 36.8125 7.515625 
L 36.8125 0 
L 27.59375 0 
Q 17.1875 0 13.234375 3.875 
Q 9.28125 7.765625 9.28125 18.015625 
L 9.28125 47.703125 
L 2.6875 47.703125 
L 2.6875 54.6875 
L 9.28125 54.6875 
L 9.28125 70.21875 
z
" id="BitstreamVeraSans-Roman-74"/>
      <path d="M 41.109375 46.296875 
Q 39.59375 47.171875 37.8125 47.578125 
Q 36.03125 48 33.890625 48 
Q 26.265625 48 22.1875 43.046875 
Q 18.109375 38.09375 18.109375 28.8125 
L 18.109375 0 
L 9.078125 0 
L 9.078125 54.6875 
L 18.109375 54.6875 
L 18.109375 46.1875 
Q 20.953125 51.171875 25.484375 53.578125 
Q 30.03125 56 36.53125 56 
Q 37.453125 56 38.578125 55.875 
Q 39.703125 55.765625 41.0625 55.515625 
z
" id="BitstreamVeraSans-Roman-72"/>
      <path d="M 44.28125 53.078125 
L 44.28125 44.578125 
Q 40.484375 46.53125 36.375 47.5 
Q 32.28125 48.484375 27.875 48.484375 
Q 21.1875 48.484375 17.84375 46.4375 
Q 14.5 44.390625 14.5 40.28125 
Q 14.5 37.15625 16.890625 35.375 
Q 19.28125 33.59375 26.515625 31.984375 
L 29.59375 31.296875 
Q 39.15625 29.25 43.1875 25.515625 
Q 47.21875 21.78125 47.21875 15.09375 
Q 47.21875 7.46875 41.1875 3.015625 
Q 35.15625 -1.421875 24.609375 -1.421875 
Q 20.21875 -1.421875 15.453125 -0.5625 
Q 10.6875 0.296875 5.421875 2 
L 5.421875 11.28125 
Q 10.40625 8.6875 15.234375 7.390625 
Q 20.0625 6.109375 24.8125 6.109375 
Q 31.15625 6.109375 34.5625 8.28125 
Q 37.984375 10.453125 37.984375 14.40625 
Q 37.984375 18.0625 35.515625 20.015625 
Q 33.0625 21.96875 24.703125 23.78125 
L 21.578125 24.515625 
Q 13.234375 26.265625 9.515625 29.90625 
Q 5.8125 33.546875 5.8125 39.890625 
Q 5.8125 47.609375 11.28125 51.796875 
Q 16.75 56 26.8125 56 
Q 31.78125 56 36.171875 55.265625 
Q 40.578125 54.546875 44.28125 53.078125 
" id="BitstreamVeraSans-Roman-73"/>
     </defs>
     <g transform="translate(666.425234375 831.1678125)scale(0.3 -0.3)">
      <use xlink:href="#BitstreamVeraSans-Roman-69"/>
      <use x="27.783203125" xlink:href="#BitstreamVeraSans-Roman-74"/>
      <use x="66.9921875" xlink:href="#BitstreamVeraSans-Roman-65"/>
      <use x="128.515625" xlink:href="#BitstreamVeraSans-Roman-72"/>
      <use x="169.62890625" xlink:href="#BitstreamVeraSans-Roman-61"/>
      <use x="230.908203125" xlink:href="#BitstreamVeraSans-Roman-74"/>
      <use x="270.1171875" xlink:href="#BitstreamVeraSans-Roman-69"/>
      <use x="297.900390625" xlink:href="#BitstreamVeraSans-Roman-6f"/>
      <use x="359.08203125" xlink:href="#BitstreamVeraSans-Roman-6e"/>
      <use x="422.4609375" xlink:href="#BitstreamVeraSans-Roman-73"/>
     </g>
    </g>
   </g>
   <g id="matplotlib.axis_2">
    <g id="ytick_1">
     <g id="line2d_15">
      <defs>
       <path d="M 0 0 
L 4 0 
" id="m0d45cfa39a" style="stroke:#000000;stroke-width:0.5;"/>
      </defs>
      <g>
       <use style="stroke:#000000;stroke-width:0.5;" x="93.38265625" xlink:href="#m0d45cfa39a" y="770.338125"/>
      </g>
     </g>
     <g id="line2d_16">
      <defs>
       <path d="M 0 0 
L -4 0 
" id="m9fa9e5bb86" style="stroke:#000000;stroke-width:0.5;"/>
      </defs>
      <g>
       <use style="stroke:#000000;stroke-width:0.5;" x="1381.831875" xlink:href="#m9fa9e5bb86" y="770.338125"/>
      </g>
     </g>
     <g id="text_8">
      <!-- −60 -->
      <defs>
       <path d="M 10.59375 35.5 
L 73.1875 35.5 
L 73.1875 27.203125 
L 10.59375 27.203125 
z
" id="BitstreamVeraSans-Roman-2212"/>
       <path d="M 33.015625 40.375 
Q 26.375 40.375 22.484375 35.828125 
Q 18.609375 31.296875 18.609375 23.390625 
Q 18.609375 15.53125 22.484375 10.953125 
Q 26.375 6.390625 33.015625 6.390625 
Q 39.65625 6.390625 43.53125 10.953125 
Q 47.40625 15.53125 47.40625 23.390625 
Q 47.40625 31.296875 43.53125 35.828125 
Q 39.65625 40.375 33.015625 40.375 
M 52.59375 71.296875 
L 52.59375 62.3125 
Q 48.875 64.0625 45.09375 64.984375 
Q 41.3125 65.921875 37.59375 65.921875 
Q 27.828125 65.921875 22.671875 59.328125 
Q 17.53125 52.734375 16.796875 39.40625 
Q 19.671875 43.65625 24.015625 45.921875 
Q 28.375 48.1875 33.59375 48.1875 
Q 44.578125 48.1875 50.953125 41.515625 
Q 57.328125 34.859375 57.328125 23.390625 
Q 57.328125 12.15625 50.6875 5.359375 
Q 44.046875 -1.421875 33.015625 -1.421875 
Q 20.359375 -1.421875 13.671875 8.265625 
Q 6.984375 17.96875 6.984375 36.375 
Q 6.984375 53.65625 15.1875 63.9375 
Q 23.390625 74.21875 37.203125 74.21875 
Q 40.921875 74.21875 44.703125 73.484375 
Q 48.484375 72.75 52.59375 71.296875 
" id="BitstreamVeraSans-Roman-36"/>
      </defs>
      <g transform="translate(26.06859375 778.61625)scale(0.3 -0.3)">
       <use xlink:href="#BitstreamVeraSans-Roman-2212"/>
       <use x="83.7890625" xlink:href="#BitstreamVeraSans-Roman-36"/>
       <use x="147.412109375" xlink:href="#BitstreamVeraSans-Roman-30"/>
      </g>
     </g>
    </g>
    <g id="ytick_2">
     <g id="line2d_17">
      <g>
       <use style="stroke:#000000;stroke-width:0.5;" x="93.38265625" xlink:href="#m0d45cfa39a" y="681.285332031"/>
      </g>
     </g>
     <g id="line2d_18">
      <g>
       <use style="stroke:#000000;stroke-width:0.5;" x="1381.831875" xlink:href="#m9fa9e5bb86" y="681.285332031"/>
      </g>
     </g>
     <g id="text_9">
      <!-- −50 -->
      <g transform="translate(26.06859375 689.563457031)scale(0.3 -0.3)">
       <use xlink:href="#BitstreamVeraSans-Roman-2212"/>
       <use x="83.7890625" xlink:href="#BitstreamVeraSans-Roman-35"/>
       <use x="147.412109375" xlink:href="#BitstreamVeraSans-Roman-30"/>
      </g>
     </g>
    </g>
    <g id="ytick_3">
     <g id="line2d_19">
      <g>
       <use style="stroke:#000000;stroke-width:0.5;" x="93.38265625" xlink:href="#m0d45cfa39a" y="592.232539062"/>
      </g>
     </g>
     <g id="line2d_20">
      <g>
       <use style="stroke:#000000;stroke-width:0.5;" x="1381.831875" xlink:href="#m9fa9e5bb86" y="592.232539062"/>
      </g>
     </g>
     <g id="text_10">
      <!-- −40 -->
      <g transform="translate(26.06859375 600.510664062)scale(0.3 -0.3)">
       <use xlink:href="#BitstreamVeraSans-Roman-2212"/>
       <use x="83.7890625" xlink:href="#BitstreamVeraSans-Roman-34"/>
       <use x="147.412109375" xlink:href="#BitstreamVeraSans-Roman-30"/>
      </g>
     </g>
    </g>
    <g id="ytick_4">
     <g id="line2d_21">
      <g>
       <use style="stroke:#000000;stroke-width:0.5;" x="93.38265625" xlink:href="#m0d45cfa39a" y="503.179746094"/>
      </g>
     </g>
     <g id="line2d_22">
      <g>
       <use style="stroke:#000000;stroke-width:0.5;" x="1381.831875" xlink:href="#m9fa9e5bb86" y="503.179746094"/>
      </g>
     </g>
     <g id="text_11">
      <!-- −30 -->
      <g transform="translate(26.06859375 511.457871094)scale(0.3 -0.3)">
       <use xlink:href="#BitstreamVeraSans-Roman-2212"/>
       <use x="83.7890625" xlink:href="#BitstreamVeraSans-Roman-33"/>
       <use x="147.412109375" xlink:href="#BitstreamVeraSans-Roman-30"/>
      </g>
     </g>
    </g>
    <g id="ytick_5">
     <g id="line2d_23">
      <g>
       <use style="stroke:#000000;stroke-width:0.5;" x="93.38265625" xlink:href="#m0d45cfa39a" y="414.126953125"/>
      </g>
     </g>
     <g id="line2d_24">
      <g>
       <use style="stroke:#000000;stroke-width:0.5;" x="1381.831875" xlink:href="#m9fa9e5bb86" y="414.126953125"/>
      </g>
     </g>
     <g id="text_12">
      <!-- −20 -->
      <g transform="translate(26.06859375 422.405078125)scale(0.3 -0.3)">
       <use xlink:href="#BitstreamVeraSans-Roman-2212"/>
       <use x="83.7890625" xlink:href="#BitstreamVeraSans-Roman-32"/>
       <use x="147.412109375" xlink:href="#BitstreamVeraSans-Roman-30"/>
      </g>
     </g>
    </g>
    <g id="ytick_6">
     <g id="line2d_25">
      <g>
       <use style="stroke:#000000;stroke-width:0.5;" x="93.38265625" xlink:href="#m0d45cfa39a" y="325.074160156"/>
      </g>
     </g>
     <g id="line2d_26">
      <g>
       <use style="stroke:#000000;stroke-width:0.5;" x="1381.831875" xlink:href="#m9fa9e5bb86" y="325.074160156"/>
      </g>
     </g>
     <g id="text_13">
      <!-- −10 -->
      <g transform="translate(26.06859375 333.352285156)scale(0.3 -0.3)">
       <use xlink:href="#BitstreamVeraSans-Roman-2212"/>
       <use x="83.7890625" xlink:href="#BitstreamVeraSans-Roman-31"/>
       <use x="147.412109375" xlink:href="#BitstreamVeraSans-Roman-30"/>
      </g>
     </g>
    </g>
    <g id="ytick_7">
     <g id="line2d_27">
      <g>
       <use style="stroke:#000000;stroke-width:0.5;" x="93.38265625" xlink:href="#m0d45cfa39a" y="236.021367188"/>
      </g>
     </g>
     <g id="line2d_28">
      <g>
       <use style="stroke:#000000;stroke-width:0.5;" x="1381.831875" xlink:href="#m9fa9e5bb86" y="236.021367188"/>
      </g>
     </g>
     <g id="text_14">
      <!-- 0 -->
      <g transform="translate(70.29515625 244.299492188)scale(0.3 -0.3)">
       <use xlink:href="#BitstreamVeraSans-Roman-30"/>
      </g>
     </g>
    </g>
    <g id="ytick_8">
     <g id="line2d_29">
      <g>
       <use style="stroke:#000000;stroke-width:0.5;" x="93.38265625" xlink:href="#m0d45cfa39a" y="146.968574219"/>
      </g>
     </g>
     <g id="line2d_30">
      <g>
       <use style="stroke:#000000;stroke-width:0.5;" x="1381.831875" xlink:href="#m9fa9e5bb86" y="146.968574219"/>
      </g>
     </g>
     <g id="text_15">
      <!-- 10 -->
      <g transform="translate(51.20765625 155.246699219)scale(0.3 -0.3)">
       <use xlink:href="#BitstreamVeraSans-Roman-31"/>
       <use x="63.623046875" xlink:href="#BitstreamVeraSans-Roman-30"/>
      </g>
     </g>
    </g>
    <g id="ytick_9">
     <g id="line2d_31">
      <g>
       <use style="stroke:#000000;stroke-width:0.5;" x="93.38265625" xlink:href="#m0d45cfa39a" y="57.91578125"/>
      </g>
     </g>
     <g id="line2d_32">
      <g>
       <use style="stroke:#000000;stroke-width:0.5;" x="1381.831875" xlink:href="#m9fa9e5bb86" y="57.91578125"/>
      </g>
     </g>
     <g id="text_16">
      <!-- 20 -->
      <g transform="translate(51.20765625 66.19390625)scale(0.3 -0.3)">
       <use xlink:href="#BitstreamVeraSans-Roman-32"/>
       <use x="63.623046875" xlink:href="#BitstreamVeraSans-Roman-30"/>
      </g>
     </g>
    </g>
   </g>
   <g id="text_17">
    <!-- log(loss) -->
    <defs>
     <path d="M 8.015625 75.875 
L 15.828125 75.875 
Q 23.140625 64.359375 26.78125 53.3125 
Q 30.421875 42.28125 30.421875 31.390625 
Q 30.421875 20.453125 26.78125 9.375 
Q 23.140625 -1.703125 15.828125 -13.1875 
L 8.015625 -13.1875 
Q 14.5 -2 17.703125 9.0625 
Q 20.90625 20.125 20.90625 31.390625 
Q 20.90625 42.671875 17.703125 53.65625 
Q 14.5 64.65625 8.015625 75.875 
" id="BitstreamVeraSans-Roman-29"/>
     <path d="M 31 75.875 
Q 24.46875 64.65625 21.28125 53.65625 
Q 18.109375 42.671875 18.109375 31.390625 
Q 18.109375 20.125 21.3125 9.0625 
Q 24.515625 -2 31 -13.1875 
L 23.1875 -13.1875 
Q 15.875 -1.703125 12.234375 9.375 
Q 8.59375 20.453125 8.59375 31.390625 
Q 8.59375 42.28125 12.203125 53.3125 
Q 15.828125 64.359375 23.1875 75.875 
z
" id="BitstreamVeraSans-Roman-28"/>
     <path d="M 45.40625 27.984375 
Q 45.40625 37.75 41.375 43.109375 
Q 37.359375 48.484375 30.078125 48.484375 
Q 22.859375 48.484375 18.828125 43.109375 
Q 14.796875 37.75 14.796875 27.984375 
Q 14.796875 18.265625 18.828125 12.890625 
Q 22.859375 7.515625 30.078125 7.515625 
Q 37.359375 7.515625 41.375 12.890625 
Q 45.40625 18.265625 45.40625 27.984375 
M 54.390625 6.78125 
Q 54.390625 -7.171875 48.1875 -13.984375 
Q 42 -20.796875 29.203125 -20.796875 
Q 24.46875 -20.796875 20.265625 -20.09375 
Q 16.0625 -19.390625 12.109375 -17.921875 
L 12.109375 -9.1875 
Q 16.0625 -11.328125 19.921875 -12.34375 
Q 23.78125 -13.375 27.78125 -13.375 
Q 36.625 -13.375 41.015625 -8.765625 
Q 45.40625 -4.15625 45.40625 5.171875 
L 45.40625 9.625 
Q 42.625 4.78125 38.28125 2.390625 
Q 33.9375 0 27.875 0 
Q 17.828125 0 11.671875 7.65625 
Q 5.515625 15.328125 5.515625 27.984375 
Q 5.515625 40.671875 11.671875 48.328125 
Q 17.828125 56 27.875 56 
Q 33.9375 56 38.28125 53.609375 
Q 42.625 51.21875 45.40625 46.390625 
L 45.40625 54.6875 
L 54.390625 54.6875 
z
" id="BitstreamVeraSans-Roman-67"/>
     <path d="M 9.421875 75.984375 
L 18.40625 75.984375 
L 18.40625 0 
L 9.421875 0 
z
" id="BitstreamVeraSans-Roman-6c"/>
    </defs>
    <g transform="translate(674.061171875 52.91578125)scale(0.3 -0.3)">
     <use xlink:href="#BitstreamVeraSans-Roman-6c"/>
     <use x="27.783203125" xlink:href="#BitstreamVeraSans-Roman-6f"/>
     <use x="88.96484375" xlink:href="#BitstreamVeraSans-Roman-67"/>
     <use x="152.44140625" xlink:href="#BitstreamVeraSans-Roman-28"/>
     <use x="191.455078125" xlink:href="#BitstreamVeraSans-Roman-6c"/>
     <use x="219.23828125" xlink:href="#BitstreamVeraSans-Roman-6f"/>
     <use x="280.419921875" xlink:href="#BitstreamVeraSans-Roman-73"/>
     <use x="332.51953125" xlink:href="#BitstreamVeraSans-Roman-73"/>
     <use x="384.619140625" xlink:href="#BitstreamVeraSans-Roman-29"/>
    </g>
   </g>
   <g id="legend_1">
    <g id="patch_7">
     <path d="M 1142.47875 169.984531 
L 1366.831875 169.984531 
L 1366.831875 72.915781 
L 1142.47875 72.915781 
z
" style="fill:#ffffff;stroke:#000000;stroke-linejoin:miter;"/>
    </g>
    <g id="line2d_33">
     <path d="M 1163.47875 97.211094 
L 1205.47875 97.211094 
" style="fill:none;stroke:#0000ff;stroke-linecap:square;stroke-width:2.0;"/>
    </g>
    <g id="line2d_34"/>
    <g id="text_18">
     <!-- random -->
     <defs>
      <path d="M 45.40625 46.390625 
L 45.40625 75.984375 
L 54.390625 75.984375 
L 54.390625 0 
L 45.40625 0 
L 45.40625 8.203125 
Q 42.578125 3.328125 38.25 0.953125 
Q 33.9375 -1.421875 27.875 -1.421875 
Q 17.96875 -1.421875 11.734375 6.484375 
Q 5.515625 14.40625 5.515625 27.296875 
Q 5.515625 40.1875 11.734375 48.09375 
Q 17.96875 56 27.875 56 
Q 33.9375 56 38.25 53.625 
Q 42.578125 51.265625 45.40625 46.390625 
M 14.796875 27.296875 
Q 14.796875 17.390625 18.875 11.75 
Q 22.953125 6.109375 30.078125 6.109375 
Q 37.203125 6.109375 41.296875 11.75 
Q 45.40625 17.390625 45.40625 27.296875 
Q 45.40625 37.203125 41.296875 42.84375 
Q 37.203125 48.484375 30.078125 48.484375 
Q 22.953125 48.484375 18.875 42.84375 
Q 14.796875 37.203125 14.796875 27.296875 
" id="BitstreamVeraSans-Roman-64"/>
      <path d="M 52 44.1875 
Q 55.375 50.25 60.0625 53.125 
Q 64.75 56 71.09375 56 
Q 79.640625 56 84.28125 50.015625 
Q 88.921875 44.046875 88.921875 33.015625 
L 88.921875 0 
L 79.890625 0 
L 79.890625 32.71875 
Q 79.890625 40.578125 77.09375 44.375 
Q 74.3125 48.1875 68.609375 48.1875 
Q 61.625 48.1875 57.5625 43.546875 
Q 53.515625 38.921875 53.515625 30.90625 
L 53.515625 0 
L 44.484375 0 
L 44.484375 32.71875 
Q 44.484375 40.625 41.703125 44.40625 
Q 38.921875 48.1875 33.109375 48.1875 
Q 26.21875 48.1875 22.15625 43.53125 
Q 18.109375 38.875 18.109375 30.90625 
L 18.109375 0 
L 9.078125 0 
L 9.078125 54.6875 
L 18.109375 54.6875 
L 18.109375 46.1875 
Q 21.1875 51.21875 25.484375 53.609375 
Q 29.78125 56 35.6875 56 
Q 41.65625 56 45.828125 52.96875 
Q 50 49.953125 52 44.1875 
" id="BitstreamVeraSans-Roman-6d"/>
     </defs>
     <g transform="translate(1238.47875 107.71109375)scale(0.3 -0.3)">
      <use xlink:href="#BitstreamVeraSans-Roman-72"/>
      <use x="41.11328125" xlink:href="#BitstreamVeraSans-Roman-61"/>
      <use x="102.392578125" xlink:href="#BitstreamVeraSans-Roman-6e"/>
      <use x="165.771484375" xlink:href="#BitstreamVeraSans-Roman-64"/>
      <use x="229.248046875" xlink:href="#BitstreamVeraSans-Roman-6f"/>
      <use x="290.4296875" xlink:href="#BitstreamVeraSans-Roman-6d"/>
     </g>
    </g>
    <g id="line2d_35">
     <path d="M 1163.47875 141.245469 
L 1205.47875 141.245469 
" style="fill:none;stroke:#008000;stroke-linecap:square;stroke-width:2.0;"/>
    </g>
    <g id="line2d_36"/>
    <g id="text_19">
     <!-- corr -->
     <defs>
      <path d="M 48.78125 52.59375 
L 48.78125 44.1875 
Q 44.96875 46.296875 41.140625 47.34375 
Q 37.3125 48.390625 33.40625 48.390625 
Q 24.65625 48.390625 19.8125 42.84375 
Q 14.984375 37.3125 14.984375 27.296875 
Q 14.984375 17.28125 19.8125 11.734375 
Q 24.65625 6.203125 33.40625 6.203125 
Q 37.3125 6.203125 41.140625 7.25 
Q 44.96875 8.296875 48.78125 10.40625 
L 48.78125 2.09375 
Q 45.015625 0.34375 40.984375 -0.53125 
Q 36.96875 -1.421875 32.421875 -1.421875 
Q 20.0625 -1.421875 12.78125 6.34375 
Q 5.515625 14.109375 5.515625 27.296875 
Q 5.515625 40.671875 12.859375 48.328125 
Q 20.21875 56 33.015625 56 
Q 37.15625 56 41.109375 55.140625 
Q 45.0625 54.296875 48.78125 52.59375 
" id="BitstreamVeraSans-Roman-63"/>
     </defs>
     <g transform="translate(1238.47875 151.74546875)scale(0.3 -0.3)">
      <use xlink:href="#BitstreamVeraSans-Roman-63"/>
      <use x="54.98046875" xlink:href="#BitstreamVeraSans-Roman-6f"/>
      <use x="116.162109375" xlink:href="#BitstreamVeraSans-Roman-72"/>
      <use x="157.259765625" xlink:href="#BitstreamVeraSans-Roman-72"/>
     </g>
    </g>
   </g>
  </g>
 </g>
 <defs>
  <clipPath id="p9063717b0e">
   <rect height="712.42234375" width="1288.44921875" x="93.38265625" y="57.91578125"/>
  </clipPath>
 </defs>
</svg>
