<?xml version="1.0" encoding="utf-8" standalone="no"?>
<!DOCTYPE svg PUBLIC "-//W3C//DTD SVG 1.1//EN"
  "http://www.w3.org/Graphics/SVG/1.1/DTD/svg11.dtd">
<!-- Created with matplotlib (http://matplotlib.org/) -->
<svg height="864pt" version="1.1" viewBox="0 0 1440 864" width="1440pt" xmlns="http://www.w3.org/2000/svg" xmlns:xlink="http://www.w3.org/1999/xlink">
 <defs>
  <style type="text/css">
*{stroke-linecap:butt;stroke-linejoin:round;stroke-miterlimit:100000;}
  </style>
 </defs>
 <g id="figure_1">
  <g id="patch_1">
   <path d="M 0 864 
L 1440 864 
L 1440 0 
L 0 0 
z
" style="fill:#ffffff;"/>
  </g>
  <g id="axes_1">
   <g id="patch_2">
    <path d="M 93.382656 770.338125 
L 1373.2425 770.338125 
L 1373.2425 57.915781 
L 93.382656 57.915781 
z
" style="fill:#ffffff;"/>
   </g>
   <g id="line2d_1">
    <path clip-path="url(#p3e77846957)" d="M 93.382656 133.847959 
L 94.662516 135.398719 
L 95.942376 137.255353 
L 101.061815 141.849131 
L 102.341675 142.779256 
L 103.621535 144.911693 
L 104.901395 145.568109 
L 106.181255 146.521342 
L 107.461115 147.884111 
L 110.020834 150.975885 
L 111.300694 152.012615 
L 112.580554 153.488541 
L 113.860414 154.513946 
L 118.979853 160.475259 
L 120.259713 161.343374 
L 121.539573 162.515057 
L 122.819433 163.481259 
L 124.099293 165.230342 
L 125.379152 166.112355 
L 126.659012 168.032186 
L 127.938872 169.075605 
L 129.218732 170.557233 
L 130.498592 171.343816 
L 131.778452 173.011735 
L 133.058311 174.035873 
L 134.338171 174.234812 
L 135.618031 175.513249 
L 136.897891 176.281305 
L 138.177751 177.837526 
L 139.457611 178.471489 
L 142.01733 181.130542 
L 144.57705 183.846897 
L 148.41663 186.169138 
L 149.696489 187.543251 
L 150.976349 188.650363 
L 152.256209 191.056414 
L 153.536069 192.023357 
L 154.815929 192.761244 
L 157.375648 194.701707 
L 158.655508 195.710704 
L 161.215228 198.292382 
L 162.495088 199.903253 
L 163.774948 200.894456 
L 165.054808 201.353606 
L 166.334667 202.362025 
L 168.894387 203.713101 
L 170.174247 204.691679 
L 171.454107 206.146418 
L 175.293686 209.037893 
L 176.573546 209.642534 
L 177.853406 211.366355 
L 179.133266 212.785251 
L 180.413126 213.854735 
L 181.692985 214.669695 
L 182.972845 215.660088 
L 184.252705 216.991572 
L 185.532565 218.123313 
L 186.812425 218.694778 
L 191.931864 222.640333 
L 193.211724 223.546516 
L 194.491584 224.735744 
L 195.771444 225.592365 
L 197.051304 226.148816 
L 199.611023 228.00575 
L 202.170743 229.364335 
L 209.849902 235.596516 
L 211.129762 236.702547 
L 212.409622 237.424008 
L 213.689482 238.610792 
L 214.969341 239.278959 
L 217.529061 241.032452 
L 220.088781 243.541697 
L 221.368641 244.357252 
L 223.92836 245.451159 
L 225.20822 246.019046 
L 227.76794 247.801249 
L 229.0478 248.720406 
L 230.32766 249.325139 
L 232.887379 251.248344 
L 234.167239 252.788171 
L 235.447099 253.374008 
L 236.726959 253.694947 
L 238.006819 254.550049 
L 239.286678 255.707838 
L 240.566538 256.332925 
L 241.846398 257.325258 
L 243.126258 259.16825 
L 244.406118 260.192282 
L 245.685978 261.483313 
L 248.245697 262.878373 
L 252.085277 265.921179 
L 254.644997 267.203665 
L 257.204716 269.094093 
L 258.484576 269.75552 
L 259.764436 271.18979 
L 261.044296 272.262401 
L 262.324156 272.866365 
L 263.604015 273.671155 
L 264.883875 274.678042 
L 266.163735 275.831375 
L 267.443595 276.423824 
L 268.723455 277.286619 
L 270.003315 278.584708 
L 271.283175 279.368789 
L 272.563034 280.009299 
L 273.842894 280.325773 
L 275.122754 281.852189 
L 277.682474 283.674896 
L 278.962334 284.604902 
L 280.242193 285.291338 
L 281.522053 286.213854 
L 282.801913 286.982166 
L 284.081773 287.915518 
L 285.361633 289.175164 
L 286.641493 289.88209 
L 287.921353 291.035897 
L 289.201212 292.34871 
L 290.481072 293.185271 
L 291.760932 294.187097 
L 293.040792 294.815283 
L 295.600512 296.476722 
L 296.880371 297.064764 
L 301.999811 300.735144 
L 303.279671 301.845541 
L 305.83939 303.595742 
L 307.11925 304.386744 
L 309.67897 306.504176 
L 312.23869 307.833091 
L 313.518549 309.000049 
L 314.798409 309.908564 
L 316.078269 310.58011 
L 317.358129 311.414403 
L 318.637989 312.547453 
L 319.917849 313.473497 
L 321.197708 314.700063 
L 322.477568 315.434756 
L 326.317148 318.469442 
L 327.597008 319.265298 
L 330.156727 321.767989 
L 331.436587 322.577114 
L 332.716447 323.828819 
L 333.996307 324.693903 
L 335.276167 325.424327 
L 339.115746 328.082756 
L 340.395606 328.823733 
L 341.675466 330.121611 
L 344.235186 331.501169 
L 345.515045 332.544237 
L 348.074765 334.023217 
L 349.354625 335.33248 
L 351.914345 337.513718 
L 353.194205 338.852807 
L 354.474064 339.919233 
L 358.313644 342.594293 
L 359.593504 343.870003 
L 362.153223 344.680606 
L 363.433083 345.67872 
L 367.272663 347.574172 
L 368.552523 348.3936 
L 369.832382 349.839759 
L 372.392102 351.578992 
L 374.951822 353.723958 
L 376.231682 354.711085 
L 378.791401 356.17045 
L 380.071261 357.731943 
L 381.351121 358.602159 
L 382.630981 359.310266 
L 383.910841 359.83669 
L 385.190701 360.653278 
L 386.47056 361.282532 
L 387.75042 362.254779 
L 389.03028 362.852796 
L 392.86986 366.179125 
L 394.14972 366.588166 
L 395.429579 367.649128 
L 399.269159 370.352315 
L 400.549019 371.502858 
L 401.828879 371.848296 
L 403.108738 372.798856 
L 404.388598 374.440831 
L 405.668458 375.130458 
L 406.948318 376.375391 
L 408.228178 377.239814 
L 409.508038 378.265153 
L 412.067757 379.847313 
L 413.347617 380.741359 
L 417.187197 383.862739 
L 418.467057 384.661335 
L 424.866356 389.526675 
L 426.146216 390.107686 
L 427.426075 391.352156 
L 428.705935 392.054866 
L 431.265655 393.804008 
L 432.545515 394.922703 
L 435.105235 396.167322 
L 436.385094 396.762367 
L 437.664954 397.876474 
L 440.224674 399.743976 
L 442.784394 400.771761 
L 444.064253 401.745695 
L 445.344113 402.397585 
L 446.623973 403.915233 
L 447.903833 404.806913 
L 449.183693 405.417152 
L 450.463553 406.457244 
L 451.743413 408.020371 
L 453.023272 408.736109 
L 454.303132 409.221236 
L 455.582992 409.935868 
L 456.862852 410.877711 
L 459.422572 411.935498 
L 460.702431 412.951512 
L 461.982291 413.680137 
L 463.262151 414.273267 
L 464.542011 415.387548 
L 465.821871 416.300832 
L 467.101731 417.543008 
L 468.38159 419.279088 
L 469.66145 420.694703 
L 472.22117 422.714737 
L 473.50103 423.65679 
L 474.78089 424.36 
L 476.06075 425.405862 
L 477.340609 426.247729 
L 481.180189 429.802118 
L 483.739909 431.403703 
L 485.019768 431.74491 
L 491.419068 436.362276 
L 492.698928 437.718246 
L 493.978787 438.487248 
L 495.258647 439.020653 
L 496.538507 439.871233 
L 497.818367 441.23295 
L 499.098227 442.056804 
L 500.378087 443.11104 
L 501.657946 444.357425 
L 502.937806 445.240155 
L 505.497526 447.531403 
L 508.057246 448.962388 
L 511.896825 451.550505 
L 513.176685 452.181654 
L 515.736405 454.323281 
L 517.016265 455.538599 
L 518.296124 456.535202 
L 519.575984 457.269456 
L 520.855844 458.497403 
L 522.135704 459.012509 
L 524.695424 461.111093 
L 525.975283 462.172922 
L 527.255143 463.020872 
L 529.814863 465.293781 
L 531.094723 466.14904 
L 532.374583 467.35051 
L 533.654442 468.241702 
L 534.934302 469.484991 
L 537.494022 471.371588 
L 540.053742 472.547568 
L 542.613461 474.627397 
L 543.893321 475.110781 
L 545.173181 475.727896 
L 547.732901 477.790297 
L 549.012761 478.549549 
L 551.57248 479.79002 
L 552.85234 480.140564 
L 554.1322 481.193833 
L 555.41206 482.518845 
L 556.69192 483.496499 
L 557.97178 484.203207 
L 559.251639 485.528742 
L 561.811359 487.688095 
L 563.091219 488.653405 
L 564.371079 490.040914 
L 565.650939 490.960625 
L 566.930798 491.588032 
L 568.210658 492.743566 
L 569.490518 493.608766 
L 570.770378 494.249701 
L 572.050238 495.554168 
L 574.609957 496.72449 
L 575.889817 498.14069 
L 577.169677 499.014281 
L 578.449537 500.287367 
L 579.729397 501.107251 
L 583.568976 504.448748 
L 587.408556 507.434336 
L 588.688416 508.20315 
L 591.248135 509.878199 
L 592.527995 511.098424 
L 593.807855 511.684138 
L 595.087715 512.468602 
L 596.367575 513.014056 
L 597.647435 513.936139 
L 600.207154 515.486042 
L 601.487014 516.650433 
L 602.766874 517.120985 
L 606.606454 520.060437 
L 610.446033 523.938572 
L 611.725893 524.884581 
L 613.005753 526.1897 
L 614.285613 527.038019 
L 615.565472 527.717223 
L 618.125192 529.80822 
L 619.405052 530.950762 
L 623.244632 533.408501 
L 624.524491 534.308458 
L 625.804351 534.845921 
L 627.084211 535.56123 
L 628.364071 536.629757 
L 629.643931 537.27777 
L 630.923791 538.427442 
L 636.04323 541.951073 
L 638.60295 543.698281 
L 639.88281 544.764286 
L 641.162669 545.37001 
L 642.442529 546.228031 
L 643.722389 546.915495 
L 645.002249 547.874387 
L 646.282109 548.405196 
L 650.121688 551.417898 
L 651.401548 551.804601 
L 652.681408 552.803259 
L 653.961268 553.44043 
L 655.241128 554.572127 
L 657.800847 556.655714 
L 659.080707 557.143203 
L 660.360567 558.088723 
L 662.920287 559.183587 
L 665.480006 561.069313 
L 666.759866 562.346532 
L 668.039726 563.278118 
L 670.599446 564.711886 
L 673.159165 567.000435 
L 675.718885 568.440045 
L 678.278605 570.957891 
L 680.838325 572.171638 
L 682.118184 572.985941 
L 683.398044 574.145472 
L 684.677904 574.916444 
L 687.237624 576.851197 
L 688.517484 577.452302 
L 689.797343 577.876843 
L 692.357063 579.450902 
L 693.636923 580.700569 
L 694.916783 581.501036 
L 698.756362 584.67601 
L 700.036222 585.149858 
L 701.316082 585.880289 
L 706.435521 589.979167 
L 708.995241 591.368418 
L 710.275101 592.525886 
L 711.554961 593.274408 
L 712.834821 594.332847 
L 714.11468 595.082088 
L 715.39454 595.551748 
L 720.51398 599.254465 
L 721.79384 599.796277 
L 723.073699 601.066909 
L 725.633419 602.910481 
L 726.913279 604.238203 
L 728.193139 604.876153 
L 729.472999 605.74918 
L 730.752858 606.2855 
L 733.312578 608.007169 
L 734.592438 609.114104 
L 738.432017 610.74405 
L 739.711877 611.511452 
L 740.991737 612.717585 
L 742.271597 613.205827 
L 744.831317 614.746293 
L 746.111177 615.34573 
L 749.950756 618.319768 
L 751.230616 618.982046 
L 753.790336 621.470213 
L 756.350055 622.715887 
L 757.629915 623.408667 
L 758.909775 624.640861 
L 760.189635 625.669069 
L 761.469495 626.553517 
L 762.749355 627.211468 
L 764.029214 628.323584 
L 765.309074 629.272565 
L 767.868794 630.784762 
L 770.428514 633.054454 
L 776.827813 636.970341 
L 781.947252 640.620864 
L 783.227112 642.076712 
L 784.506972 643.09222 
L 785.786832 643.672998 
L 787.066692 644.612418 
L 788.346551 645.061133 
L 789.626411 645.657628 
L 790.906271 646.873504 
L 792.186131 647.448312 
L 793.465991 648.399299 
L 794.745851 649.707495 
L 796.02571 651.331541 
L 797.30557 652.444184 
L 799.86529 654.17998 
L 801.14515 654.790809 
L 806.264589 657.848616 
L 807.544449 658.91193 
L 808.824309 659.461773 
L 810.104169 660.175857 
L 811.384029 661.089578 
L 812.663888 661.857693 
L 813.943748 662.495935 
L 815.223608 663.721086 
L 816.503468 664.349926 
L 819.063188 665.99451 
L 820.343047 666.404042 
L 821.622907 666.98955 
L 822.902767 667.714635 
L 824.182627 668.718616 
L 826.742347 671.05646 
L 833.141646 674.50383 
L 834.421506 675.400248 
L 835.701366 676.009992 
L 836.981225 676.855543 
L 838.261085 676.98763 
L 839.540945 677.789868 
L 840.820805 678.359591 
L 842.100665 678.789458 
L 843.380525 680.077555 
L 844.660385 680.625375 
L 845.940244 681.591615 
L 847.220104 681.995563 
L 848.499964 682.583086 
L 849.779824 682.685419 
L 851.059684 683.429802 
L 852.339544 683.265438 
L 854.899263 684.218121 
L 857.458983 684.707622 
L 858.738843 685.345199 
L 861.298562 685.640132 
L 863.858282 686.429152 
L 865.138142 687.080915 
L 867.697862 687.770479 
L 868.977722 688.262108 
L 870.257581 688.198753 
L 871.537441 688.287083 
L 872.817301 688.676759 
L 874.097161 688.858795 
L 875.377021 688.731472 
L 876.656881 688.888422 
L 877.93674 689.288139 
L 880.49646 688.656004 
L 883.05618 689.501009 
L 885.6159 690.149833 
L 886.895759 689.297925 
L 888.175619 689.615537 
L 889.455479 689.816631 
L 890.735339 689.504959 
L 892.015199 689.966573 
L 893.295059 691.201684 
L 894.574918 690.523212 
L 895.854778 690.657239 
L 897.134638 690.211887 
L 898.414498 689.953942 
L 899.694358 689.845104 
L 900.974218 690.818349 
L 903.533937 690.093149 
L 906.093657 690.295957 
L 907.373517 690.072287 
L 908.653377 687.102321 
L 909.933237 687.105238 
L 911.213096 688.403277 
L 912.492956 689.378397 
L 915.052676 690.439877 
L 916.332536 690.232605 
L 918.892255 691.126417 
L 920.172115 691.410219 
L 921.451975 691.512413 
L 922.731835 690.958332 
L 924.011695 690.820728 
L 925.291555 690.924435 
L 926.571415 690.405029 
L 927.851274 690.341781 
L 929.131134 689.984756 
L 930.410994 690.47464 
L 931.690854 690.111081 
L 932.970714 690.254211 
L 934.250574 690.681614 
L 935.530433 690.781401 
L 936.810293 691.081052 
L 938.090153 691.241465 
L 939.370013 690.531018 
L 940.649873 690.953309 
L 944.489452 690.439499 
L 945.769312 689.969691 
L 947.049172 690.741646 
L 948.329032 691.260389 
L 949.608892 691.556774 
L 950.888752 691.483946 
L 952.168611 691.611953 
L 953.448471 690.854416 
L 954.728331 690.294487 
L 957.288051 691.264879 
L 961.12763 691.227207 
L 962.40749 691.860715 
L 963.68735 690.952683 
L 964.96721 691.014306 
L 966.24707 691.556403 
L 967.52693 690.809558 
L 970.086649 691.189518 
L 971.366509 690.624775 
L 972.646369 690.856722 
L 973.926229 691.432556 
L 975.206089 692.323609 
L 976.485948 691.614476 
L 977.765808 692.427818 
L 979.045668 691.754451 
L 981.605388 691.243174 
L 982.885248 691.811068 
L 984.165107 691.630528 
L 986.724827 691.671737 
L 988.004687 691.20507 
L 989.284547 691.007199 
L 990.564407 691.970662 
L 991.844267 691.647182 
L 994.403986 691.71956 
L 995.683846 692.06891 
L 996.963706 692.149318 
L 998.243566 691.674671 
L 999.523426 692.317457 
L 1000.803285 692.587207 
L 1003.363005 692.0201 
L 1004.642865 692.021915 
L 1005.922725 692.182461 
L 1007.202585 691.828613 
L 1011.042164 692.792815 
L 1012.322024 691.947191 
L 1013.601884 691.884849 
L 1014.881744 692.101739 
L 1016.161604 692.460169 
L 1017.441463 692.280704 
L 1018.721323 692.342105 
L 1020.001183 692.185593 
L 1021.281043 692.315221 
L 1022.560903 691.735173 
L 1023.840763 691.620017 
L 1025.120623 691.109136 
L 1026.400482 691.448104 
L 1028.960202 691.467759 
L 1031.519922 691.899888 
L 1032.799782 691.53036 
L 1034.079641 692.319408 
L 1035.359501 692.235962 
L 1036.639361 691.669293 
L 1037.919221 691.561364 
L 1039.199081 691.797429 
L 1040.478941 691.120033 
L 1041.7588 691.784266 
L 1043.03866 691.174614 
L 1044.31852 690.823609 
L 1046.87824 690.367229 
L 1048.1581 691.053958 
L 1049.43796 690.599114 
L 1050.717819 690.812533 
L 1051.997679 690.346395 
L 1053.277539 690.913124 
L 1054.557399 691.00517 
L 1055.837259 690.774703 
L 1057.117119 691.295196 
L 1059.676838 691.608848 
L 1060.956698 690.767546 
L 1062.236558 691.034957 
L 1063.516418 690.774464 
L 1064.796278 690.638246 
L 1066.076137 690.680936 
L 1067.355997 690.569115 
L 1068.635857 690.732514 
L 1072.475437 690.382812 
L 1075.035156 691.123886 
L 1076.315016 690.985666 
L 1077.594876 691.151251 
L 1078.874736 691.885229 
L 1080.154596 691.849726 
L 1081.434456 692.074989 
L 1083.994175 691.761514 
L 1085.274035 691.192947 
L 1086.553895 691.360504 
L 1087.833755 691.33256 
L 1089.113615 691.928381 
L 1090.393475 691.697086 
L 1091.673334 691.803979 
L 1092.953194 692.614698 
L 1094.233054 692.483547 
L 1095.512914 692.054469 
L 1096.792774 692.593921 
L 1098.072634 692.481814 
L 1099.352493 692.219106 
L 1100.632353 692.172073 
L 1101.912213 691.911239 
L 1103.192073 692.187076 
L 1104.471933 692.261418 
L 1105.751793 692.738389 
L 1107.031653 691.716735 
L 1108.311512 691.667795 
L 1109.591372 691.910975 
L 1112.151092 691.993733 
L 1114.710812 691.256162 
L 1115.990671 691.786243 
L 1117.270531 692.071129 
L 1118.550391 692.024412 
L 1119.830251 692.790732 
L 1121.110111 692.348519 
L 1122.389971 692.146504 
L 1123.66983 692.859613 
L 1124.94969 692.540354 
L 1126.22955 691.880964 
L 1127.50941 691.893852 
L 1130.06913 690.539869 
L 1131.34899 690.549347 
L 1132.628849 691.298974 
L 1133.908709 690.596129 
L 1135.188569 690.503757 
L 1136.468429 690.560328 
L 1137.748289 690.349231 
L 1139.028149 690.661866 
L 1141.587868 691.932513 
L 1142.867728 691.640677 
L 1144.147588 692.080197 
L 1146.707308 692.479196 
L 1149.267027 691.731272 
L 1150.546887 692.147424 
L 1153.106607 692.338264 
L 1154.386467 691.968595 
L 1155.666327 692.438525 
L 1156.946186 692.656073 
L 1158.226046 692.127677 
L 1159.505906 692.434655 
L 1160.785766 691.977833 
L 1162.065626 692.482199 
L 1163.345486 692.591308 
L 1164.625345 692.473529 
L 1167.185065 690.798721 
L 1168.464925 691.040618 
L 1169.744785 691.978961 
L 1171.024645 691.737429 
L 1172.304505 691.894959 
L 1173.584364 692.194524 
L 1174.864224 691.940859 
L 1176.144084 692.140503 
L 1177.423944 691.592712 
L 1178.703804 691.761546 
L 1179.983664 691.447543 
L 1181.263523 691.430198 
L 1182.543383 691.922703 
L 1183.823243 691.904816 
L 1185.103103 692.322469 
L 1186.382963 691.729513 
L 1187.662823 691.861243 
L 1188.942683 691.2338 
L 1190.222542 691.487233 
L 1191.502402 691.348782 
L 1192.782262 692.167983 
L 1194.062122 692.208805 
L 1195.341982 692.422548 
L 1196.621842 692.921263 
L 1197.901701 692.727602 
L 1199.181561 692.285518 
L 1200.461421 692.856496 
L 1201.741281 692.34083 
L 1203.021141 692.436209 
L 1204.301001 692.820838 
L 1205.58086 692.572321 
L 1206.86072 692.640163 
L 1208.14058 692.244654 
L 1209.42044 692.533799 
L 1211.98016 691.01306 
L 1213.26002 691.217803 
L 1214.539879 691.827644 
L 1215.819739 692.145562 
L 1217.099599 691.661829 
L 1218.379459 691.541002 
L 1219.659319 691.817705 
L 1220.939179 692.262558 
L 1222.219038 691.958072 
L 1223.498898 692.205418 
L 1224.778758 691.665661 
L 1226.058618 692.684536 
L 1227.338478 692.753193 
L 1228.618338 692.64876 
L 1229.898197 692.163061 
L 1232.457917 692.401812 
L 1235.017637 692.45039 
L 1236.297497 692.606412 
L 1237.577357 691.986336 
L 1240.137076 692.26004 
L 1241.416936 692.237817 
L 1242.696796 692.463758 
L 1243.976656 691.76737 
L 1245.256516 691.754561 
L 1249.096095 692.633327 
L 1252.935675 692.401378 
L 1254.215535 691.921989 
L 1258.055114 692.753797 
L 1259.334974 692.578242 
L 1260.614834 692.564844 
L 1261.894694 693.243619 
L 1263.174553 692.495172 
L 1264.454413 692.319883 
L 1265.734273 691.863029 
L 1267.014133 692.087673 
L 1268.293993 691.961954 
L 1269.573853 691.658014 
L 1270.853713 692.127003 
L 1272.133572 692.050707 
L 1273.413432 691.796249 
L 1274.693292 691.998551 
L 1277.253012 691.584501 
L 1278.532872 692.351995 
L 1282.372451 692.001661 
L 1283.652311 692.425534 
L 1284.932171 693.110173 
L 1286.212031 691.192004 
L 1287.49189 691.432175 
L 1288.77175 691.834051 
L 1291.33147 691.680047 
L 1292.61133 691.983565 
L 1293.89119 691.570858 
L 1295.17105 691.481309 
L 1296.450909 690.975992 
L 1297.730769 691.191807 
L 1299.010629 691.102696 
L 1300.290489 691.654966 
L 1301.570349 691.044062 
L 1302.850209 691.740269 
L 1304.130068 692.033512 
L 1305.409928 691.945092 
L 1306.689788 691.516317 
L 1307.969648 691.889393 
L 1309.249508 691.297363 
L 1310.529368 691.816766 
L 1311.809228 691.076206 
L 1314.368947 690.891891 
L 1315.648807 690.583694 
L 1316.928667 690.672081 
L 1318.208527 691.612757 
L 1319.488387 692.216236 
L 1322.048106 693.117447 
L 1323.327966 693.088153 
L 1324.607826 692.128088 
L 1325.887686 692.822503 
L 1327.167546 692.009366 
L 1328.447405 691.790509 
L 1329.727265 691.319772 
L 1331.007125 691.670852 
L 1332.286985 691.90127 
L 1333.566845 691.241434 
L 1334.846705 691.453374 
L 1336.126565 691.136572 
L 1337.406424 690.550539 
L 1338.686284 690.653298 
L 1339.966144 691.383757 
L 1341.246004 690.880564 
L 1342.525864 691.383478 
L 1345.085583 692.881266 
L 1348.925163 691.696496 
L 1350.205023 691.797243 
L 1351.484883 692.073717 
L 1352.764743 691.898036 
L 1354.044602 691.321134 
L 1355.324462 690.959707 
L 1357.884182 692.176593 
L 1359.164042 692.214369 
L 1360.443902 693.676778 
L 1361.723761 693.018395 
L 1363.003621 692.836073 
L 1364.283481 692.181085 
L 1365.563341 692.570748 
L 1366.843201 693.110741 
L 1368.123061 692.355789 
L 1369.40292 692.201068 
L 1370.68278 691.711082 
L 1371.96264 691.862706 
L 1371.96264 691.862706 
" style="fill:none;stroke:#0000ff;stroke-linecap:square;stroke-width:2.0;"/>
   </g>
   <g id="line2d_2">
    <path clip-path="url(#p3e77846957)" d="M 93.382656 134.463109 
L 94.662516 135.935856 
L 97.222236 138.654182 
L 98.502096 140.260514 
L 99.781955 141.410062 
L 101.061815 142.736281 
L 103.621535 146.498549 
L 107.461115 150.676539 
L 108.740974 151.711007 
L 110.020834 152.597053 
L 112.580554 155.911022 
L 113.860414 157.416161 
L 116.420133 159.882408 
L 117.699993 160.722469 
L 121.539573 164.45232 
L 122.819433 166.608095 
L 124.099293 167.91633 
L 127.938872 171.399811 
L 130.498592 174.144852 
L 133.058311 175.78869 
L 136.897891 180.464912 
L 145.85691 188.784203 
L 147.13677 189.519822 
L 148.41663 190.511691 
L 149.696489 191.213813 
L 150.976349 192.334236 
L 152.256209 193.248988 
L 154.815929 195.453959 
L 156.095789 196.201587 
L 157.375648 197.360537 
L 158.655508 199.354924 
L 159.935368 200.034783 
L 161.215228 201.301833 
L 162.495088 202.271684 
L 163.774948 203.082138 
L 166.334667 205.426175 
L 168.894387 206.775877 
L 171.454107 209.034837 
L 174.013826 211.855691 
L 175.293686 213.390326 
L 177.853406 215.3989 
L 179.133266 216.37031 
L 180.413126 216.983001 
L 182.972845 218.942293 
L 184.252705 220.758494 
L 185.532565 221.518973 
L 189.372145 224.405635 
L 190.652004 226.00724 
L 191.931864 226.716354 
L 194.491584 228.80583 
L 195.771444 229.700923 
L 198.331163 231.853748 
L 199.611023 232.654568 
L 200.890883 233.679884 
L 202.170743 235.23225 
L 204.730463 237.78821 
L 207.290182 239.333904 
L 211.129762 242.778154 
L 214.969341 245.657086 
L 216.249201 246.077455 
L 218.808921 248.428227 
L 220.088781 250.099123 
L 221.368641 250.774862 
L 222.6485 251.64524 
L 225.20822 254.038908 
L 226.48808 255.217595 
L 229.0478 256.62507 
L 230.32766 257.86307 
L 232.887379 259.638249 
L 234.167239 260.744397 
L 236.726959 262.269212 
L 240.566538 265.386224 
L 241.846398 266.096883 
L 243.126258 266.968223 
L 244.406118 268.092568 
L 249.525557 271.204777 
L 250.805417 272.530924 
L 255.924856 275.957817 
L 257.204716 276.656432 
L 259.764436 278.704269 
L 261.044296 280.108857 
L 262.324156 281.020652 
L 263.604015 280.931935 
L 264.883875 282.568604 
L 268.723455 285.274331 
L 270.003315 286.574604 
L 271.283175 287.157771 
L 272.563034 287.963204 
L 273.842894 288.578552 
L 275.122754 289.597671 
L 276.402614 290.143598 
L 280.242193 293.087567 
L 281.522053 293.704353 
L 282.801913 294.620516 
L 284.081773 295.340709 
L 285.361633 296.324892 
L 286.641493 297.464844 
L 287.921353 298.806784 
L 289.201212 299.589347 
L 291.760932 302.203377 
L 293.040792 303.342702 
L 294.320652 304.198384 
L 295.600512 305.700301 
L 296.880371 306.75871 
L 298.160231 308.536471 
L 299.440091 309.6952 
L 300.719951 310.565408 
L 301.999811 311.915622 
L 303.279671 312.792025 
L 304.55953 313.473057 
L 305.83939 314.305949 
L 307.11925 314.998011 
L 308.39911 316.230744 
L 310.95883 318.141362 
L 312.23869 319.645096 
L 319.917849 324.031379 
L 321.197708 324.458394 
L 323.757428 326.644029 
L 325.037288 327.239867 
L 326.317148 328.098734 
L 327.597008 329.160528 
L 328.876868 330.073044 
L 331.436587 332.0954 
L 332.716447 332.676908 
L 333.996307 333.607532 
L 335.276167 334.709376 
L 336.556027 335.440192 
L 339.115746 337.390391 
L 340.395606 337.939276 
L 342.955326 339.473223 
L 344.235186 340.653372 
L 346.794905 342.292109 
L 349.354625 344.245417 
L 353.194205 346.145338 
L 354.474064 347.431105 
L 357.033784 349.052867 
L 358.313644 349.616516 
L 360.873364 351.850608 
L 364.712943 354.442162 
L 367.272663 356.544838 
L 368.552523 357.319501 
L 372.392102 360.156405 
L 373.671962 361.387467 
L 376.231682 363.320103 
L 377.511542 364.624475 
L 378.791401 365.624598 
L 380.071261 366.154096 
L 383.910841 369.19216 
L 385.190701 370.365803 
L 387.75042 372.357069 
L 389.03028 373.588483 
L 390.31014 374.190673 
L 392.86986 375.899699 
L 394.14972 376.781575 
L 395.429579 377.812755 
L 396.709439 378.65267 
L 399.269159 380.816871 
L 400.549019 381.643604 
L 401.828879 382.621865 
L 403.108738 383.17295 
L 405.668458 384.941532 
L 406.948318 385.411397 
L 408.228178 386.265096 
L 409.508038 386.892353 
L 410.787897 387.706334 
L 412.067757 388.655719 
L 413.347617 389.995684 
L 414.627477 391.128791 
L 417.187197 392.649069 
L 418.467057 393.418033 
L 419.746916 394.740606 
L 421.026776 395.51705 
L 422.306636 396.81888 
L 423.586496 397.70841 
L 424.866356 398.18224 
L 426.146216 399.349779 
L 428.705935 400.594361 
L 429.985795 401.736908 
L 431.265655 402.538238 
L 433.825375 404.686321 
L 435.105235 405.508418 
L 436.385094 406.49036 
L 437.664954 407.771761 
L 440.224674 409.267937 
L 446.623973 414.377573 
L 447.903833 414.920431 
L 449.183693 416.261101 
L 450.463553 416.80508 
L 451.743413 417.906276 
L 453.023272 418.417462 
L 454.303132 419.055392 
L 455.582992 419.38882 
L 456.862852 420.263733 
L 459.422572 422.341968 
L 461.982291 424.049534 
L 463.262151 424.409653 
L 464.542011 425.100505 
L 465.821871 426.073716 
L 467.101731 426.64425 
L 468.38159 427.651398 
L 469.66145 428.228598 
L 470.94131 429.352309 
L 472.22117 430.049507 
L 473.50103 431.436564 
L 474.78089 432.006995 
L 476.06075 433.282201 
L 477.340609 434.014634 
L 481.180189 436.528379 
L 482.460049 437.302097 
L 483.739909 438.552797 
L 485.019768 439.319742 
L 487.579488 441.515297 
L 491.419068 444.283396 
L 493.978787 445.729181 
L 496.538507 447.839611 
L 497.818367 448.76167 
L 499.098227 449.289245 
L 500.378087 450.224031 
L 501.657946 451.341245 
L 502.937806 452.643611 
L 504.217666 453.276074 
L 505.497526 454.417529 
L 508.057246 455.961576 
L 509.337105 457.114067 
L 511.896825 458.63095 
L 513.176685 459.206787 
L 514.456545 460.301549 
L 518.296124 463.212293 
L 519.575984 463.876086 
L 520.855844 464.398361 
L 522.135704 465.216477 
L 523.415564 466.759474 
L 525.975283 468.677875 
L 528.535003 469.833821 
L 531.094723 471.49175 
L 532.374583 472.665911 
L 533.654442 474.06459 
L 534.934302 474.906636 
L 538.773882 478.220592 
L 540.053742 479.177461 
L 541.333602 479.948779 
L 542.613461 480.877973 
L 545.173181 482.318629 
L 547.732901 484.260762 
L 549.012761 485.560039 
L 550.29262 486.574408 
L 551.57248 487.243845 
L 554.1322 489.98149 
L 555.41206 491.032917 
L 556.69192 491.921523 
L 557.97178 492.512924 
L 560.531499 494.514873 
L 561.811359 495.377944 
L 563.091219 496.740401 
L 564.371079 497.409412 
L 565.650939 498.721775 
L 566.930798 499.619804 
L 568.210658 501.010139 
L 570.770378 502.422453 
L 572.050238 503.058528 
L 573.330098 504.198289 
L 575.889817 506.058971 
L 577.169677 507.201977 
L 578.449537 507.885262 
L 581.009257 510.617628 
L 583.568976 512.187464 
L 584.848836 513.199668 
L 586.128696 513.824465 
L 587.408556 514.725215 
L 589.968276 516.254829 
L 591.248135 517.539362 
L 592.527995 518.392281 
L 593.807855 519.658938 
L 595.087715 520.483705 
L 596.367575 521.122308 
L 597.647435 521.62 
L 598.927295 522.738498 
L 601.487014 524.605916 
L 604.046734 526.783624 
L 605.326594 527.607277 
L 606.606454 528.241266 
L 609.166173 530.076557 
L 610.446033 530.434466 
L 613.005753 532.713805 
L 615.565472 535.046465 
L 616.845332 536.401906 
L 618.125192 537.144001 
L 619.405052 538.516658 
L 620.684912 539.274981 
L 621.964772 540.232965 
L 623.244632 541.425478 
L 625.804351 542.947688 
L 627.084211 543.98902 
L 628.364071 544.820555 
L 629.643931 545.803687 
L 630.923791 546.64662 
L 632.20365 547.162751 
L 633.48351 548.199704 
L 634.76337 548.743083 
L 636.04323 549.789545 
L 637.32309 550.536015 
L 641.162669 554.721051 
L 643.722389 556.379704 
L 645.002249 556.844657 
L 646.282109 557.563318 
L 647.561969 558.607656 
L 648.841828 559.315748 
L 650.121688 560.536325 
L 652.681408 561.841816 
L 653.961268 562.388853 
L 656.520987 564.770164 
L 657.800847 565.391957 
L 659.080707 566.756748 
L 660.360567 568.33797 
L 664.200147 570.971834 
L 665.480006 571.329249 
L 668.039726 573.035454 
L 669.319586 573.763976 
L 670.599446 575.029111 
L 673.159165 577.125161 
L 675.718885 579.167758 
L 676.998745 580.071143 
L 678.278605 581.215197 
L 679.558465 581.763256 
L 680.838325 582.801626 
L 682.118184 583.678827 
L 683.398044 584.241398 
L 685.957764 586.087958 
L 691.077203 589.910839 
L 693.636923 590.693095 
L 694.916783 591.958606 
L 696.196643 592.922062 
L 697.476502 594.223238 
L 698.756362 595.175369 
L 701.316082 596.529649 
L 702.595942 597.935268 
L 705.155662 599.702832 
L 706.435521 600.598126 
L 707.715381 601.276183 
L 710.275101 603.762347 
L 711.554961 604.55329 
L 712.834821 605.108664 
L 715.39454 606.405419 
L 716.6744 607.467287 
L 717.95426 608.182457 
L 719.23412 608.601497 
L 721.79384 609.913122 
L 724.353559 611.638655 
L 726.913279 612.849051 
L 728.193139 613.982813 
L 729.472999 614.696418 
L 732.032718 616.518419 
L 733.312578 617.650052 
L 734.592438 618.592624 
L 735.872298 619.738744 
L 737.152158 620.501865 
L 738.432017 621.495191 
L 743.551457 623.870914 
L 744.831317 625.168222 
L 746.111177 625.815378 
L 748.670896 627.808669 
L 749.950756 628.156226 
L 755.070195 632.25762 
L 756.350055 633.505971 
L 757.629915 634.083973 
L 758.909775 634.800403 
L 761.469495 636.92492 
L 762.749355 637.330218 
L 765.309074 639.167882 
L 766.588934 639.675401 
L 769.148654 641.052344 
L 770.428514 642.064629 
L 772.988233 643.420442 
L 774.268093 643.935142 
L 775.547953 644.982496 
L 776.827813 645.543103 
L 779.387532 647.366466 
L 780.667392 648.420696 
L 783.227112 650.091019 
L 784.506972 651.177795 
L 787.066692 652.643115 
L 788.346551 653.767899 
L 792.186131 656.217745 
L 797.30557 659.871471 
L 798.58543 660.244913 
L 799.86529 661.102437 
L 802.42501 662.554796 
L 803.70487 663.772126 
L 804.984729 665.536856 
L 806.264589 666.017779 
L 808.824309 667.900287 
L 811.384029 670.094386 
L 812.663888 670.952762 
L 813.943748 671.58473 
L 815.223608 672.598135 
L 816.503468 673.04555 
L 817.783328 674.074361 
L 819.063188 674.931828 
L 821.622907 675.773756 
L 824.182627 677.560529 
L 826.742347 679.836223 
L 828.022207 680.443134 
L 829.302066 681.269778 
L 830.581926 681.790052 
L 831.861786 681.721172 
L 833.141646 681.932312 
L 834.421506 682.687283 
L 835.701366 682.964696 
L 836.981225 683.524331 
L 838.261085 683.835438 
L 839.540945 684.621113 
L 840.820805 684.737902 
L 842.100665 685.282061 
L 843.380525 685.690441 
L 845.940244 686.935422 
L 847.220104 686.655425 
L 848.499964 686.979832 
L 849.779824 686.892143 
L 852.339544 687.922202 
L 853.619403 688.14725 
L 854.899263 689.156431 
L 856.179123 689.53656 
L 857.458983 689.1444 
L 858.738843 689.252281 
L 860.018703 689.532191 
L 861.298562 690.196862 
L 863.858282 690.372652 
L 865.138142 690.741758 
L 866.418002 689.921088 
L 867.697862 689.554973 
L 868.977722 689.79769 
L 871.537441 689.299358 
L 872.817301 689.863346 
L 874.097161 689.70214 
L 876.656881 689.683082 
L 877.93674 689.408267 
L 879.2166 689.429804 
L 880.49646 688.984548 
L 881.77632 688.871663 
L 883.05618 688.945857 
L 884.33604 689.272466 
L 885.6159 689.776039 
L 886.895759 689.354752 
L 888.175619 689.664966 
L 889.455479 690.124464 
L 892.015199 689.891604 
L 893.295059 690.121505 
L 894.574918 690.624567 
L 895.854778 690.390089 
L 897.134638 689.823048 
L 898.414498 689.7742 
L 899.694358 689.843958 
L 900.974218 690.458241 
L 902.254077 690.203125 
L 903.533937 690.222508 
L 904.813797 689.744306 
L 906.093657 690.412584 
L 907.373517 690.196657 
L 908.653377 690.836179 
L 909.933237 691.774055 
L 911.213096 691.433497 
L 912.492956 691.552846 
L 913.772816 691.251803 
L 916.332536 691.339206 
L 917.612396 691.120686 
L 918.892255 691.943333 
L 920.172115 692.015168 
L 921.451975 691.223019 
L 922.731835 691.722182 
L 925.291555 691.986678 
L 926.571415 691.20683 
L 927.851274 691.827622 
L 929.131134 690.311636 
L 930.410994 690.566937 
L 931.690854 690.076941 
L 932.970714 690.108238 
L 934.250574 691.054256 
L 935.530433 691.209007 
L 936.810293 690.876322 
L 938.090153 690.991042 
L 939.370013 691.555811 
L 940.649873 691.076602 
L 941.929733 691.763168 
L 943.209592 691.417196 
L 944.489452 691.422372 
L 945.769312 691.54579 
L 947.049172 691.264989 
L 949.608892 691.825708 
L 950.888752 691.52985 
L 952.168611 690.961851 
L 953.448471 691.520549 
L 954.728331 691.218037 
L 956.008191 691.589729 
L 957.288051 691.264881 
L 958.567911 691.739423 
L 959.84777 691.777646 
L 961.12763 691.660597 
L 962.40749 691.367779 
L 963.68735 690.825702 
L 964.96721 690.766622 
L 966.24707 691.247762 
L 967.52693 690.803061 
L 968.806789 691.786342 
L 970.086649 691.785461 
L 971.366509 691.564927 
L 972.646369 691.965282 
L 973.926229 692.552822 
L 975.206089 691.978643 
L 976.485948 691.976124 
L 977.765808 691.8129 
L 980.325528 692.217011 
L 981.605388 691.85498 
L 982.885248 691.022951 
L 984.165107 691.43514 
L 985.444967 691.996427 
L 986.724827 692.315266 
L 988.004687 692.286184 
L 989.284547 692.014181 
L 990.564407 691.282047 
L 991.844267 691.843011 
L 993.124126 692.55046 
L 994.403986 692.529961 
L 995.683846 693.030346 
L 996.963706 692.998798 
L 999.523426 692.485795 
L 1000.803285 692.795206 
L 1002.083145 691.574304 
L 1003.363005 691.698931 
L 1004.642865 691.599191 
L 1005.922725 691.338999 
L 1007.202585 691.840246 
L 1008.482445 691.543137 
L 1009.762304 692.099177 
L 1011.042164 691.642069 
L 1012.322024 692.201383 
L 1013.601884 691.855366 
L 1016.161604 691.678206 
L 1017.441463 691.486143 
L 1018.721323 691.770237 
L 1020.001183 691.625459 
L 1021.281043 690.920166 
L 1022.560903 690.560313 
L 1025.120623 691.395554 
L 1026.400482 691.51837 
L 1027.680342 692.109319 
L 1028.960202 691.722278 
L 1030.240062 692.21435 
L 1031.519922 692.252073 
L 1032.799782 691.248822 
L 1034.079641 691.89497 
L 1035.359501 691.268151 
L 1036.639361 691.506101 
L 1037.919221 691.442395 
L 1039.199081 691.192026 
L 1040.478941 691.286522 
L 1041.7588 692.03275 
L 1043.03866 691.540664 
L 1044.31852 691.215626 
L 1045.59838 691.553678 
L 1046.87824 691.168288 
L 1048.1581 691.351054 
L 1049.43796 692.185175 
L 1050.717819 691.302971 
L 1051.997679 691.384242 
L 1053.277539 691.979309 
L 1054.557399 691.716024 
L 1055.837259 691.810627 
L 1057.117119 691.72739 
L 1058.396978 691.862357 
L 1059.676838 692.390004 
L 1060.956698 692.753976 
L 1062.236558 692.130535 
L 1063.516418 691.345282 
L 1064.796278 691.405917 
L 1066.076137 691.185779 
L 1067.355997 690.846423 
L 1068.635857 691.386238 
L 1071.195577 691.980749 
L 1072.475437 691.368415 
L 1073.755297 690.438348 
L 1075.035156 691.380844 
L 1076.315016 691.404226 
L 1077.594876 691.683906 
L 1080.154596 691.357055 
L 1081.434456 692.132796 
L 1082.714315 691.968137 
L 1083.994175 691.994711 
L 1085.274035 691.660474 
L 1086.553895 691.79779 
L 1087.833755 692.40893 
L 1089.113615 691.448503 
L 1090.393475 690.202162 
L 1091.673334 689.979643 
L 1092.953194 689.966922 
L 1094.233054 690.421362 
L 1095.512914 691.17954 
L 1096.792774 691.323497 
L 1098.072634 690.837864 
L 1099.352493 692.105717 
L 1100.632353 691.984017 
L 1103.192073 692.179812 
L 1104.471933 691.725308 
L 1105.751793 691.855253 
L 1108.311512 691.37958 
L 1109.591372 691.538801 
L 1110.871232 691.819504 
L 1112.151092 690.858324 
L 1113.430952 691.934926 
L 1114.710812 691.035418 
L 1115.990671 691.619973 
L 1117.270531 691.372535 
L 1118.550391 691.245144 
L 1119.830251 691.433495 
L 1121.110111 692.036867 
L 1123.66983 691.427379 
L 1124.94969 692.057024 
L 1127.50941 691.268889 
L 1128.78927 690.87111 
L 1130.06913 690.955395 
L 1131.34899 690.747164 
L 1133.908709 690.80636 
L 1135.188569 691.360321 
L 1136.468429 691.239988 
L 1137.748289 690.592664 
L 1139.028149 690.801087 
L 1140.308008 690.682071 
L 1141.587868 690.768353 
L 1142.867728 691.372807 
L 1144.147588 691.211107 
L 1145.427448 691.636085 
L 1146.707308 691.069476 
L 1149.267027 691.995618 
L 1150.546887 691.813959 
L 1151.826747 691.417163 
L 1153.106607 691.519605 
L 1154.386467 690.727059 
L 1155.666327 690.500189 
L 1156.946186 691.030109 
L 1158.226046 691.044413 
L 1159.505906 690.445549 
L 1160.785766 690.344715 
L 1163.345486 690.492513 
L 1164.625345 691.107395 
L 1165.905205 691.370423 
L 1167.185065 691.244432 
L 1168.464925 691.246743 
L 1169.744785 690.857658 
L 1171.024645 691.35142 
L 1172.304505 691.026509 
L 1173.584364 691.447565 
L 1174.864224 691.699723 
L 1176.144084 691.555628 
L 1178.703804 692.622134 
L 1179.983664 692.487237 
L 1181.263523 692.049087 
L 1182.543383 692.156494 
L 1183.823243 692.417368 
L 1185.103103 691.63088 
L 1186.382963 691.518684 
L 1187.662823 692.819876 
L 1188.942683 692.366217 
L 1190.222542 692.10184 
L 1191.502402 692.359137 
L 1192.782262 691.873172 
L 1194.062122 692.133902 
L 1195.341982 691.417585 
L 1196.621842 691.795511 
L 1197.901701 690.947214 
L 1199.181561 690.680778 
L 1200.461421 691.00905 
L 1201.741281 691.504446 
L 1203.021141 691.421506 
L 1204.301001 691.928275 
L 1205.58086 691.999225 
L 1206.86072 691.603845 
L 1208.14058 691.711009 
L 1209.42044 691.346291 
L 1210.7003 691.243538 
L 1211.98016 690.86214 
L 1213.26002 691.383639 
L 1214.539879 691.468922 
L 1215.819739 691.2329 
L 1217.099599 691.658981 
L 1218.379459 691.897813 
L 1219.659319 691.280837 
L 1220.939179 691.139459 
L 1222.219038 691.731972 
L 1223.498898 691.572532 
L 1224.778758 691.562701 
L 1226.058618 691.890399 
L 1227.338478 691.559227 
L 1228.618338 692.863545 
L 1229.898197 692.219683 
L 1232.457917 691.978839 
L 1233.737777 691.738427 
L 1236.297497 691.989359 
L 1237.577357 692.100253 
L 1238.857216 691.383155 
L 1240.137076 691.369612 
L 1241.416936 692.059544 
L 1242.696796 691.473026 
L 1243.976656 691.706152 
L 1245.256516 691.66351 
L 1246.536375 691.804775 
L 1247.816235 691.00565 
L 1249.096095 690.995203 
L 1250.375955 691.451311 
L 1251.655815 691.553406 
L 1252.935675 692.772998 
L 1254.215535 692.174009 
L 1255.495394 691.839296 
L 1256.775254 691.976783 
L 1258.055114 691.451455 
L 1259.334974 691.875266 
L 1260.614834 691.897891 
L 1263.174553 691.014449 
L 1264.454413 690.721922 
L 1265.734273 690.678326 
L 1267.014133 690.880669 
L 1268.293993 691.240928 
L 1269.573853 691.717503 
L 1270.853713 692.415881 
L 1272.133572 692.66686 
L 1273.413432 692.462934 
L 1274.693292 693.080089 
L 1275.973152 692.371127 
L 1277.253012 692.343118 
L 1278.532872 692.620289 
L 1279.812731 691.434786 
L 1281.092591 691.895672 
L 1283.652311 691.896912 
L 1284.932171 692.04502 
L 1286.212031 691.705361 
L 1287.49189 691.171969 
L 1288.77175 690.817187 
L 1291.33147 691.854793 
L 1292.61133 692.126689 
L 1293.89119 691.49752 
L 1295.17105 691.5753 
L 1296.450909 692.016171 
L 1297.730769 692.151002 
L 1300.290489 691.147836 
L 1301.570349 691.932668 
L 1302.850209 691.630339 
L 1304.130068 692.092961 
L 1305.409928 691.562328 
L 1306.689788 691.885726 
L 1307.969648 691.991592 
L 1309.249508 691.007201 
L 1310.529368 691.714723 
L 1313.089087 691.21549 
L 1314.368947 691.7539 
L 1315.648807 691.264435 
L 1316.928667 691.154436 
L 1318.208527 690.853291 
L 1319.488387 691.428445 
L 1320.768246 691.211234 
L 1322.048106 691.566409 
L 1323.327966 691.557224 
L 1324.607826 691.336055 
L 1325.887686 691.586009 
L 1327.167546 691.702122 
L 1328.447405 692.110034 
L 1329.727265 690.457124 
L 1331.007125 691.390639 
L 1333.566845 691.120614 
L 1336.126565 691.796688 
L 1337.406424 691.540069 
L 1338.686284 692.146406 
L 1339.966144 691.118063 
L 1341.246004 691.461011 
L 1342.525864 691.243189 
L 1343.805724 691.141521 
L 1345.085583 690.610349 
L 1346.365443 690.851031 
L 1347.645303 690.958784 
L 1348.925163 690.748963 
L 1350.205023 690.850951 
L 1351.484883 691.878051 
L 1352.764743 691.873419 
L 1354.044602 692.108374 
L 1355.324462 690.969044 
L 1356.604322 691.633608 
L 1357.884182 690.922868 
L 1359.164042 690.837482 
L 1361.723761 691.279302 
L 1363.003621 691.252559 
L 1364.283481 692.136676 
L 1366.843201 691.560559 
L 1368.123061 691.464976 
L 1369.40292 690.749168 
L 1370.68278 691.166637 
L 1371.96264 690.964496 
L 1371.96264 690.964496 
" style="fill:none;stroke:#008000;stroke-linecap:square;stroke-width:2.0;"/>
   </g>
   <g id="patch_3">
    <path d="M 93.382656 57.915781 
L 1373.2425 57.915781 
" style="fill:none;stroke:#000000;stroke-linecap:square;stroke-linejoin:miter;"/>
   </g>
   <g id="patch_4">
    <path d="M 1373.2425 770.338125 
L 1373.2425 57.915781 
" style="fill:none;stroke:#000000;stroke-linecap:square;stroke-linejoin:miter;"/>
   </g>
   <g id="patch_5">
    <path d="M 93.382656 770.338125 
L 1373.2425 770.338125 
" style="fill:none;stroke:#000000;stroke-linecap:square;stroke-linejoin:miter;"/>
   </g>
   <g id="patch_6">
    <path d="M 93.382656 770.338125 
L 93.382656 57.915781 
" style="fill:none;stroke:#000000;stroke-linecap:square;stroke-linejoin:miter;"/>
   </g>
   <g id="matplotlib.axis_1">
    <g id="xtick_1">
     <g id="line2d_3">
      <defs>
       <path d="M 0 0 
L 0 -4 
" id="m4462f40d6a" style="stroke:#000000;stroke-width:0.5;"/>
      </defs>
      <g>
       <use style="stroke:#000000;stroke-width:0.5;" x="93.38265625" xlink:href="#m4462f40d6a" y="770.338125"/>
      </g>
     </g>
     <g id="line2d_4">
      <defs>
       <path d="M 0 0 
L 0 4 
" id="m7ee12486d1" style="stroke:#000000;stroke-width:0.5;"/>
      </defs>
      <g>
       <use style="stroke:#000000;stroke-width:0.5;" x="93.38265625" xlink:href="#m7ee12486d1" y="57.91578125"/>
      </g>
     </g>
     <g id="text_1">
      <!-- 0 -->
      <defs>
       <path d="M 31.78125 66.40625 
Q 24.171875 66.40625 20.328125 58.90625 
Q 16.5 51.421875 16.5 36.375 
Q 16.5 21.390625 20.328125 13.890625 
Q 24.171875 6.390625 31.78125 6.390625 
Q 39.453125 6.390625 43.28125 13.890625 
Q 47.125 21.390625 47.125 36.375 
Q 47.125 51.421875 43.28125 58.90625 
Q 39.453125 66.40625 31.78125 66.40625 
M 31.78125 74.21875 
Q 44.046875 74.21875 50.515625 64.515625 
Q 56.984375 54.828125 56.984375 36.375 
Q 56.984375 17.96875 50.515625 8.265625 
Q 44.046875 -1.421875 31.78125 -1.421875 
Q 19.53125 -1.421875 13.0625 8.265625 
Q 6.59375 17.96875 6.59375 36.375 
Q 6.59375 54.828125 13.0625 64.515625 
Q 19.53125 74.21875 31.78125 74.21875 
" id="BitstreamVeraSans-Roman-30"/>
      </defs>
      <g transform="translate(83.83890625 797.1334375)scale(0.3 -0.3)">
       <use xlink:href="#BitstreamVeraSans-Roman-30"/>
      </g>
     </g>
    </g>
    <g id="xtick_2">
     <g id="line2d_5">
      <g>
       <use style="stroke:#000000;stroke-width:0.5;" x="349.354625" xlink:href="#m4462f40d6a" y="770.338125"/>
      </g>
     </g>
     <g id="line2d_6">
      <g>
       <use style="stroke:#000000;stroke-width:0.5;" x="349.354625" xlink:href="#m7ee12486d1" y="57.91578125"/>
      </g>
     </g>
     <g id="text_2">
      <!-- 200 -->
      <defs>
       <path d="M 19.1875 8.296875 
L 53.609375 8.296875 
L 53.609375 0 
L 7.328125 0 
L 7.328125 8.296875 
Q 12.9375 14.109375 22.625 23.890625 
Q 32.328125 33.6875 34.8125 36.53125 
Q 39.546875 41.84375 41.421875 45.53125 
Q 43.3125 49.21875 43.3125 52.78125 
Q 43.3125 58.59375 39.234375 62.25 
Q 35.15625 65.921875 28.609375 65.921875 
Q 23.96875 65.921875 18.8125 64.3125 
Q 13.671875 62.703125 7.8125 59.421875 
L 7.8125 69.390625 
Q 13.765625 71.78125 18.9375 73 
Q 24.125 74.21875 28.421875 74.21875 
Q 39.75 74.21875 46.484375 68.546875 
Q 53.21875 62.890625 53.21875 53.421875 
Q 53.21875 48.921875 51.53125 44.890625 
Q 49.859375 40.875 45.40625 35.40625 
Q 44.1875 33.984375 37.640625 27.21875 
Q 31.109375 20.453125 19.1875 8.296875 
" id="BitstreamVeraSans-Roman-32"/>
      </defs>
      <g transform="translate(320.723375 797.1334375)scale(0.3 -0.3)">
       <use xlink:href="#BitstreamVeraSans-Roman-32"/>
       <use x="63.623046875" xlink:href="#BitstreamVeraSans-Roman-30"/>
       <use x="127.24609375" xlink:href="#BitstreamVeraSans-Roman-30"/>
      </g>
     </g>
    </g>
    <g id="xtick_3">
     <g id="line2d_7">
      <g>
       <use style="stroke:#000000;stroke-width:0.5;" x="605.32659375" xlink:href="#m4462f40d6a" y="770.338125"/>
      </g>
     </g>
     <g id="line2d_8">
      <g>
       <use style="stroke:#000000;stroke-width:0.5;" x="605.32659375" xlink:href="#m7ee12486d1" y="57.91578125"/>
      </g>
     </g>
     <g id="text_3">
      <!-- 400 -->
      <defs>
       <path d="M 37.796875 64.3125 
L 12.890625 25.390625 
L 37.796875 25.390625 
z
M 35.203125 72.90625 
L 47.609375 72.90625 
L 47.609375 25.390625 
L 58.015625 25.390625 
L 58.015625 17.1875 
L 47.609375 17.1875 
L 47.609375 0 
L 37.796875 0 
L 37.796875 17.1875 
L 4.890625 17.1875 
L 4.890625 26.703125 
z
" id="BitstreamVeraSans-Roman-34"/>
      </defs>
      <g transform="translate(576.69534375 797.1334375)scale(0.3 -0.3)">
       <use xlink:href="#BitstreamVeraSans-Roman-34"/>
       <use x="63.623046875" xlink:href="#BitstreamVeraSans-Roman-30"/>
       <use x="127.24609375" xlink:href="#BitstreamVeraSans-Roman-30"/>
      </g>
     </g>
    </g>
    <g id="xtick_4">
     <g id="line2d_9">
      <g>
       <use style="stroke:#000000;stroke-width:0.5;" x="861.2985625" xlink:href="#m4462f40d6a" y="770.338125"/>
      </g>
     </g>
     <g id="line2d_10">
      <g>
       <use style="stroke:#000000;stroke-width:0.5;" x="861.2985625" xlink:href="#m7ee12486d1" y="57.91578125"/>
      </g>
     </g>
     <g id="text_4">
      <!-- 600 -->
      <defs>
       <path d="M 33.015625 40.375 
Q 26.375 40.375 22.484375 35.828125 
Q 18.609375 31.296875 18.609375 23.390625 
Q 18.609375 15.53125 22.484375 10.953125 
Q 26.375 6.390625 33.015625 6.390625 
Q 39.65625 6.390625 43.53125 10.953125 
Q 47.40625 15.53125 47.40625 23.390625 
Q 47.40625 31.296875 43.53125 35.828125 
Q 39.65625 40.375 33.015625 40.375 
M 52.59375 71.296875 
L 52.59375 62.3125 
Q 48.875 64.0625 45.09375 64.984375 
Q 41.3125 65.921875 37.59375 65.921875 
Q 27.828125 65.921875 22.671875 59.328125 
Q 17.53125 52.734375 16.796875 39.40625 
Q 19.671875 43.65625 24.015625 45.921875 
Q 28.375 48.1875 33.59375 48.1875 
Q 44.578125 48.1875 50.953125 41.515625 
Q 57.328125 34.859375 57.328125 23.390625 
Q 57.328125 12.15625 50.6875 5.359375 
Q 44.046875 -1.421875 33.015625 -1.421875 
Q 20.359375 -1.421875 13.671875 8.265625 
Q 6.984375 17.96875 6.984375 36.375 
Q 6.984375 53.65625 15.1875 63.9375 
Q 23.390625 74.21875 37.203125 74.21875 
Q 40.921875 74.21875 44.703125 73.484375 
Q 48.484375 72.75 52.59375 71.296875 
" id="BitstreamVeraSans-Roman-36"/>
      </defs>
      <g transform="translate(832.6673125 797.1334375)scale(0.3 -0.3)">
       <use xlink:href="#BitstreamVeraSans-Roman-36"/>
       <use x="63.623046875" xlink:href="#BitstreamVeraSans-Roman-30"/>
       <use x="127.24609375" xlink:href="#BitstreamVeraSans-Roman-30"/>
      </g>
     </g>
    </g>
    <g id="xtick_5">
     <g id="line2d_11">
      <g>
       <use style="stroke:#000000;stroke-width:0.5;" x="1117.27053125" xlink:href="#m4462f40d6a" y="770.338125"/>
      </g>
     </g>
     <g id="line2d_12">
      <g>
       <use style="stroke:#000000;stroke-width:0.5;" x="1117.27053125" xlink:href="#m7ee12486d1" y="57.91578125"/>
      </g>
     </g>
     <g id="text_5">
      <!-- 800 -->
      <defs>
       <path d="M 31.78125 34.625 
Q 24.75 34.625 20.71875 30.859375 
Q 16.703125 27.09375 16.703125 20.515625 
Q 16.703125 13.921875 20.71875 10.15625 
Q 24.75 6.390625 31.78125 6.390625 
Q 38.8125 6.390625 42.859375 10.171875 
Q 46.921875 13.96875 46.921875 20.515625 
Q 46.921875 27.09375 42.890625 30.859375 
Q 38.875 34.625 31.78125 34.625 
M 21.921875 38.8125 
Q 15.578125 40.375 12.03125 44.71875 
Q 8.5 49.078125 8.5 55.328125 
Q 8.5 64.0625 14.71875 69.140625 
Q 20.953125 74.21875 31.78125 74.21875 
Q 42.671875 74.21875 48.875 69.140625 
Q 55.078125 64.0625 55.078125 55.328125 
Q 55.078125 49.078125 51.53125 44.71875 
Q 48 40.375 41.703125 38.8125 
Q 48.828125 37.15625 52.796875 32.3125 
Q 56.78125 27.484375 56.78125 20.515625 
Q 56.78125 9.90625 50.3125 4.234375 
Q 43.84375 -1.421875 31.78125 -1.421875 
Q 19.734375 -1.421875 13.25 4.234375 
Q 6.78125 9.90625 6.78125 20.515625 
Q 6.78125 27.484375 10.78125 32.3125 
Q 14.796875 37.15625 21.921875 38.8125 
M 18.3125 54.390625 
Q 18.3125 48.734375 21.84375 45.5625 
Q 25.390625 42.390625 31.78125 42.390625 
Q 38.140625 42.390625 41.71875 45.5625 
Q 45.3125 48.734375 45.3125 54.390625 
Q 45.3125 60.0625 41.71875 63.234375 
Q 38.140625 66.40625 31.78125 66.40625 
Q 25.390625 66.40625 21.84375 63.234375 
Q 18.3125 60.0625 18.3125 54.390625 
" id="BitstreamVeraSans-Roman-38"/>
      </defs>
      <g transform="translate(1088.63928125 797.1334375)scale(0.3 -0.3)">
       <use xlink:href="#BitstreamVeraSans-Roman-38"/>
       <use x="63.623046875" xlink:href="#BitstreamVeraSans-Roman-30"/>
       <use x="127.24609375" xlink:href="#BitstreamVeraSans-Roman-30"/>
      </g>
     </g>
    </g>
    <g id="xtick_6">
     <g id="line2d_13">
      <g>
       <use style="stroke:#000000;stroke-width:0.5;" x="1373.2425" xlink:href="#m4462f40d6a" y="770.338125"/>
      </g>
     </g>
     <g id="line2d_14">
      <g>
       <use style="stroke:#000000;stroke-width:0.5;" x="1373.2425" xlink:href="#m7ee12486d1" y="57.91578125"/>
      </g>
     </g>
     <g id="text_6">
      <!-- 1000 -->
      <defs>
       <path d="M 12.40625 8.296875 
L 28.515625 8.296875 
L 28.515625 63.921875 
L 10.984375 60.40625 
L 10.984375 69.390625 
L 28.421875 72.90625 
L 38.28125 72.90625 
L 38.28125 8.296875 
L 54.390625 8.296875 
L 54.390625 0 
L 12.40625 0 
z
" id="BitstreamVeraSans-Roman-31"/>
      </defs>
      <g transform="translate(1335.0675 797.1334375)scale(0.3 -0.3)">
       <use xlink:href="#BitstreamVeraSans-Roman-31"/>
       <use x="63.623046875" xlink:href="#BitstreamVeraSans-Roman-30"/>
       <use x="127.24609375" xlink:href="#BitstreamVeraSans-Roman-30"/>
       <use x="190.869140625" xlink:href="#BitstreamVeraSans-Roman-30"/>
      </g>
     </g>
    </g>
    <g id="text_7">
     <!-- iterations -->
     <defs>
      <path d="M 54.890625 33.015625 
L 54.890625 0 
L 45.90625 0 
L 45.90625 32.71875 
Q 45.90625 40.484375 42.875 44.328125 
Q 39.84375 48.1875 33.796875 48.1875 
Q 26.515625 48.1875 22.3125 43.546875 
Q 18.109375 38.921875 18.109375 30.90625 
L 18.109375 0 
L 9.078125 0 
L 9.078125 54.6875 
L 18.109375 54.6875 
L 18.109375 46.1875 
Q 21.34375 51.125 25.703125 53.5625 
Q 30.078125 56 35.796875 56 
Q 45.21875 56 50.046875 50.171875 
Q 54.890625 44.34375 54.890625 33.015625 
" id="BitstreamVeraSans-Roman-6e"/>
      <path d="M 34.28125 27.484375 
Q 23.390625 27.484375 19.1875 25 
Q 14.984375 22.515625 14.984375 16.5 
Q 14.984375 11.71875 18.140625 8.90625 
Q 21.296875 6.109375 26.703125 6.109375 
Q 34.1875 6.109375 38.703125 11.40625 
Q 43.21875 16.703125 43.21875 25.484375 
L 43.21875 27.484375 
z
M 52.203125 31.203125 
L 52.203125 0 
L 43.21875 0 
L 43.21875 8.296875 
Q 40.140625 3.328125 35.546875 0.953125 
Q 30.953125 -1.421875 24.3125 -1.421875 
Q 15.921875 -1.421875 10.953125 3.296875 
Q 6 8.015625 6 15.921875 
Q 6 25.140625 12.171875 29.828125 
Q 18.359375 34.515625 30.609375 34.515625 
L 43.21875 34.515625 
L 43.21875 35.40625 
Q 43.21875 41.609375 39.140625 45 
Q 35.0625 48.390625 27.6875 48.390625 
Q 23 48.390625 18.546875 47.265625 
Q 14.109375 46.140625 10.015625 43.890625 
L 10.015625 52.203125 
Q 14.9375 54.109375 19.578125 55.046875 
Q 24.21875 56 28.609375 56 
Q 40.484375 56 46.34375 49.84375 
Q 52.203125 43.703125 52.203125 31.203125 
" id="BitstreamVeraSans-Roman-61"/>
      <path d="M 30.609375 48.390625 
Q 23.390625 48.390625 19.1875 42.75 
Q 14.984375 37.109375 14.984375 27.296875 
Q 14.984375 17.484375 19.15625 11.84375 
Q 23.34375 6.203125 30.609375 6.203125 
Q 37.796875 6.203125 41.984375 11.859375 
Q 46.1875 17.53125 46.1875 27.296875 
Q 46.1875 37.015625 41.984375 42.703125 
Q 37.796875 48.390625 30.609375 48.390625 
M 30.609375 56 
Q 42.328125 56 49.015625 48.375 
Q 55.71875 40.765625 55.71875 27.296875 
Q 55.71875 13.875 49.015625 6.21875 
Q 42.328125 -1.421875 30.609375 -1.421875 
Q 18.84375 -1.421875 12.171875 6.21875 
Q 5.515625 13.875 5.515625 27.296875 
Q 5.515625 40.765625 12.171875 48.375 
Q 18.84375 56 30.609375 56 
" id="BitstreamVeraSans-Roman-6f"/>
      <path d="M 9.421875 54.6875 
L 18.40625 54.6875 
L 18.40625 0 
L 9.421875 0 
z
M 9.421875 75.984375 
L 18.40625 75.984375 
L 18.40625 64.59375 
L 9.421875 64.59375 
z
" id="BitstreamVeraSans-Roman-69"/>
      <path d="M 56.203125 29.59375 
L 56.203125 25.203125 
L 14.890625 25.203125 
Q 15.484375 15.921875 20.484375 11.0625 
Q 25.484375 6.203125 34.421875 6.203125 
Q 39.59375 6.203125 44.453125 7.46875 
Q 49.3125 8.734375 54.109375 11.28125 
L 54.109375 2.78125 
Q 49.265625 0.734375 44.1875 -0.34375 
Q 39.109375 -1.421875 33.890625 -1.421875 
Q 20.796875 -1.421875 13.15625 6.1875 
Q 5.515625 13.8125 5.515625 26.8125 
Q 5.515625 40.234375 12.765625 48.109375 
Q 20.015625 56 32.328125 56 
Q 43.359375 56 49.78125 48.890625 
Q 56.203125 41.796875 56.203125 29.59375 
M 47.21875 32.234375 
Q 47.125 39.59375 43.09375 43.984375 
Q 39.0625 48.390625 32.421875 48.390625 
Q 24.90625 48.390625 20.390625 44.140625 
Q 15.875 39.890625 15.1875 32.171875 
z
" id="BitstreamVeraSans-Roman-65"/>
      <path d="M 18.3125 70.21875 
L 18.3125 54.6875 
L 36.8125 54.6875 
L 36.8125 47.703125 
L 18.3125 47.703125 
L 18.3125 18.015625 
Q 18.3125 11.328125 20.140625 9.421875 
Q 21.96875 7.515625 27.59375 7.515625 
L 36.8125 7.515625 
L 36.8125 0 
L 27.59375 0 
Q 17.1875 0 13.234375 3.875 
Q 9.28125 7.765625 9.28125 18.015625 
L 9.28125 47.703125 
L 2.6875 47.703125 
L 2.6875 54.6875 
L 9.28125 54.6875 
L 9.28125 70.21875 
z
" id="BitstreamVeraSans-Roman-74"/>
      <path d="M 41.109375 46.296875 
Q 39.59375 47.171875 37.8125 47.578125 
Q 36.03125 48 33.890625 48 
Q 26.265625 48 22.1875 43.046875 
Q 18.109375 38.09375 18.109375 28.8125 
L 18.109375 0 
L 9.078125 0 
L 9.078125 54.6875 
L 18.109375 54.6875 
L 18.109375 46.1875 
Q 20.953125 51.171875 25.484375 53.578125 
Q 30.03125 56 36.53125 56 
Q 37.453125 56 38.578125 55.875 
Q 39.703125 55.765625 41.0625 55.515625 
z
" id="BitstreamVeraSans-Roman-72"/>
      <path d="M 44.28125 53.078125 
L 44.28125 44.578125 
Q 40.484375 46.53125 36.375 47.5 
Q 32.28125 48.484375 27.875 48.484375 
Q 21.1875 48.484375 17.84375 46.4375 
Q 14.5 44.390625 14.5 40.28125 
Q 14.5 37.15625 16.890625 35.375 
Q 19.28125 33.59375 26.515625 31.984375 
L 29.59375 31.296875 
Q 39.15625 29.25 43.1875 25.515625 
Q 47.21875 21.78125 47.21875 15.09375 
Q 47.21875 7.46875 41.1875 3.015625 
Q 35.15625 -1.421875 24.609375 -1.421875 
Q 20.21875 -1.421875 15.453125 -0.5625 
Q 10.6875 0.296875 5.421875 2 
L 5.421875 11.28125 
Q 10.40625 8.6875 15.234375 7.390625 
Q 20.0625 6.109375 24.8125 6.109375 
Q 31.15625 6.109375 34.5625 8.28125 
Q 37.984375 10.453125 37.984375 14.40625 
Q 37.984375 18.0625 35.515625 20.015625 
Q 33.0625 21.96875 24.703125 23.78125 
L 21.578125 24.515625 
Q 13.234375 26.265625 9.515625 29.90625 
Q 5.8125 33.546875 5.8125 39.890625 
Q 5.8125 47.609375 11.28125 51.796875 
Q 16.75 56 26.8125 56 
Q 31.78125 56 36.171875 55.265625 
Q 40.578125 54.546875 44.28125 53.078125 
" id="BitstreamVeraSans-Roman-73"/>
     </defs>
     <g transform="translate(662.130546875 831.1678125)scale(0.3 -0.3)">
      <use xlink:href="#BitstreamVeraSans-Roman-69"/>
      <use x="27.783203125" xlink:href="#BitstreamVeraSans-Roman-74"/>
      <use x="66.9921875" xlink:href="#BitstreamVeraSans-Roman-65"/>
      <use x="128.515625" xlink:href="#BitstreamVeraSans-Roman-72"/>
      <use x="169.62890625" xlink:href="#BitstreamVeraSans-Roman-61"/>
      <use x="230.908203125" xlink:href="#BitstreamVeraSans-Roman-74"/>
      <use x="270.1171875" xlink:href="#BitstreamVeraSans-Roman-69"/>
      <use x="297.900390625" xlink:href="#BitstreamVeraSans-Roman-6f"/>
      <use x="359.08203125" xlink:href="#BitstreamVeraSans-Roman-6e"/>
      <use x="422.4609375" xlink:href="#BitstreamVeraSans-Roman-73"/>
     </g>
    </g>
   </g>
   <g id="matplotlib.axis_2">
    <g id="ytick_1">
     <g id="line2d_15">
      <defs>
       <path d="M 0 0 
L 4 0 
" id="mac57814679" style="stroke:#000000;stroke-width:0.5;"/>
      </defs>
      <g>
       <use style="stroke:#000000;stroke-width:0.5;" x="93.38265625" xlink:href="#mac57814679" y="770.338125"/>
      </g>
     </g>
     <g id="line2d_16">
      <defs>
       <path d="M 0 0 
L -4 0 
" id="mc0f55023de" style="stroke:#000000;stroke-width:0.5;"/>
      </defs>
      <g>
       <use style="stroke:#000000;stroke-width:0.5;" x="1373.2425" xlink:href="#mc0f55023de" y="770.338125"/>
      </g>
     </g>
     <g id="text_8">
      <!-- 70 -->
      <defs>
       <path d="M 10.59375 35.5 
L 73.1875 35.5 
L 73.1875 27.203125 
L 10.59375 27.203125 
z
" id="BitstreamVeraSans-Roman-2212"/>
       <path d="M 8.203125 72.90625 
L 55.078125 72.90625 
L 55.078125 68.703125 
L 28.609375 0 
L 18.3125 0 
L 43.21875 64.59375 
L 8.203125 64.59375 
z
" id="BitstreamVeraSans-Roman-37"/>
      </defs>
      <g transform="translate(26.06859375 778.61625)scale(0.3 -0.3)">
       <use xlink:href="#BitstreamVeraSans-Roman-2212"/>
       <use x="83.7890625" xlink:href="#BitstreamVeraSans-Roman-37"/>
       <use x="147.412109375" xlink:href="#BitstreamVeraSans-Roman-30"/>
      </g>
     </g>
    </g>
    <g id="ytick_2">
     <g id="line2d_17">
      <g>
       <use style="stroke:#000000;stroke-width:0.5;" x="93.38265625" xlink:href="#mac57814679" y="691.180086806"/>
      </g>
     </g>
     <g id="line2d_18">
      <g>
       <use style="stroke:#000000;stroke-width:0.5;" x="1373.2425" xlink:href="#mc0f55023de" y="691.180086806"/>
      </g>
     </g>
     <g id="text_9">
      <!-- 60 -->
      <g transform="translate(26.06859375 699.458211806)scale(0.3 -0.3)">
       <use xlink:href="#BitstreamVeraSans-Roman-2212"/>
       <use x="83.7890625" xlink:href="#BitstreamVeraSans-Roman-36"/>
       <use x="147.412109375" xlink:href="#BitstreamVeraSans-Roman-30"/>
      </g>
     </g>
    </g>
    <g id="ytick_3">
     <g id="line2d_19">
      <g>
       <use style="stroke:#000000;stroke-width:0.5;" x="93.38265625" xlink:href="#mac57814679" y="612.022048611"/>
      </g>
     </g>
     <g id="line2d_20">
      <g>
       <use style="stroke:#000000;stroke-width:0.5;" x="1373.2425" xlink:href="#mc0f55023de" y="612.022048611"/>
      </g>
     </g>
     <g id="text_10">
      <!-- 50 -->
      <defs>
       <path d="M 10.796875 72.90625 
L 49.515625 72.90625 
L 49.515625 64.59375 
L 19.828125 64.59375 
L 19.828125 46.734375 
Q 21.96875 47.46875 24.109375 47.828125 
Q 26.265625 48.1875 28.421875 48.1875 
Q 40.625 48.1875 47.75 41.5 
Q 54.890625 34.8125 54.890625 23.390625 
Q 54.890625 11.625 47.5625 5.09375 
Q 40.234375 -1.421875 26.90625 -1.421875 
Q 22.3125 -1.421875 17.546875 -0.640625 
Q 12.796875 0.140625 7.71875 1.703125 
L 7.71875 11.625 
Q 12.109375 9.234375 16.796875 8.0625 
Q 21.484375 6.890625 26.703125 6.890625 
Q 35.15625 6.890625 40.078125 11.328125 
Q 45.015625 15.765625 45.015625 23.390625 
Q 45.015625 31 40.078125 35.4375 
Q 35.15625 39.890625 26.703125 39.890625 
Q 22.75 39.890625 18.8125 39.015625 
Q 14.890625 38.140625 10.796875 36.28125 
z
" id="BitstreamVeraSans-Roman-35"/>
      </defs>
      <g transform="translate(26.06859375 620.300173611)scale(0.3 -0.3)">
       <use xlink:href="#BitstreamVeraSans-Roman-2212"/>
       <use x="83.7890625" xlink:href="#BitstreamVeraSans-Roman-35"/>
       <use x="147.412109375" xlink:href="#BitstreamVeraSans-Roman-30"/>
      </g>
     </g>
    </g>
    <g id="ytick_4">
     <g id="line2d_21">
      <g>
       <use style="stroke:#000000;stroke-width:0.5;" x="93.38265625" xlink:href="#mac57814679" y="532.864010417"/>
      </g>
     </g>
     <g id="line2d_22">
      <g>
       <use style="stroke:#000000;stroke-width:0.5;" x="1373.2425" xlink:href="#mc0f55023de" y="532.864010417"/>
      </g>
     </g>
     <g id="text_11">
      <!-- 40 -->
      <g transform="translate(26.06859375 541.142135417)scale(0.3 -0.3)">
       <use xlink:href="#BitstreamVeraSans-Roman-2212"/>
       <use x="83.7890625" xlink:href="#BitstreamVeraSans-Roman-34"/>
       <use x="147.412109375" xlink:href="#BitstreamVeraSans-Roman-30"/>
      </g>
     </g>
    </g>
    <g id="ytick_5">
     <g id="line2d_23">
      <g>
       <use style="stroke:#000000;stroke-width:0.5;" x="93.38265625" xlink:href="#mac57814679" y="453.705972222"/>
      </g>
     </g>
     <g id="line2d_24">
      <g>
       <use style="stroke:#000000;stroke-width:0.5;" x="1373.2425" xlink:href="#mc0f55023de" y="453.705972222"/>
      </g>
     </g>
     <g id="text_12">
      <!-- 30 -->
      <defs>
       <path d="M 40.578125 39.3125 
Q 47.65625 37.796875 51.625 33 
Q 55.609375 28.21875 55.609375 21.1875 
Q 55.609375 10.40625 48.1875 4.484375 
Q 40.765625 -1.421875 27.09375 -1.421875 
Q 22.515625 -1.421875 17.65625 -0.515625 
Q 12.796875 0.390625 7.625 2.203125 
L 7.625 11.71875 
Q 11.71875 9.328125 16.59375 8.109375 
Q 21.484375 6.890625 26.8125 6.890625 
Q 36.078125 6.890625 40.9375 10.546875 
Q 45.796875 14.203125 45.796875 21.1875 
Q 45.796875 27.640625 41.28125 31.265625 
Q 36.765625 34.90625 28.71875 34.90625 
L 20.21875 34.90625 
L 20.21875 43.015625 
L 29.109375 43.015625 
Q 36.375 43.015625 40.234375 45.921875 
Q 44.09375 48.828125 44.09375 54.296875 
Q 44.09375 59.90625 40.109375 62.90625 
Q 36.140625 65.921875 28.71875 65.921875 
Q 24.65625 65.921875 20.015625 65.03125 
Q 15.375 64.15625 9.8125 62.3125 
L 9.8125 71.09375 
Q 15.4375 72.65625 20.34375 73.4375 
Q 25.25 74.21875 29.59375 74.21875 
Q 40.828125 74.21875 47.359375 69.109375 
Q 53.90625 64.015625 53.90625 55.328125 
Q 53.90625 49.265625 50.4375 45.09375 
Q 46.96875 40.921875 40.578125 39.3125 
" id="BitstreamVeraSans-Roman-33"/>
      </defs>
      <g transform="translate(26.06859375 461.984097222)scale(0.3 -0.3)">
       <use xlink:href="#BitstreamVeraSans-Roman-2212"/>
       <use x="83.7890625" xlink:href="#BitstreamVeraSans-Roman-33"/>
       <use x="147.412109375" xlink:href="#BitstreamVeraSans-Roman-30"/>
      </g>
     </g>
    </g>
    <g id="ytick_6">
     <g id="line2d_25">
      <g>
       <use style="stroke:#000000;stroke-width:0.5;" x="93.38265625" xlink:href="#mac57814679" y="374.547934028"/>
      </g>
     </g>
     <g id="line2d_26">
      <g>
       <use style="stroke:#000000;stroke-width:0.5;" x="1373.2425" xlink:href="#mc0f55023de" y="374.547934028"/>
      </g>
     </g>
     <g id="text_13">
      <!-- 20 -->
      <g transform="translate(26.06859375 382.826059028)scale(0.3 -0.3)">
       <use xlink:href="#BitstreamVeraSans-Roman-2212"/>
       <use x="83.7890625" xlink:href="#BitstreamVeraSans-Roman-32"/>
       <use x="147.412109375" xlink:href="#BitstreamVeraSans-Roman-30"/>
      </g>
     </g>
    </g>
    <g id="ytick_7">
     <g id="line2d_27">
      <g>
       <use style="stroke:#000000;stroke-width:0.5;" x="93.38265625" xlink:href="#mac57814679" y="295.389895833"/>
      </g>
     </g>
     <g id="line2d_28">
      <g>
       <use style="stroke:#000000;stroke-width:0.5;" x="1373.2425" xlink:href="#mc0f55023de" y="295.389895833"/>
      </g>
     </g>
     <g id="text_14">
      <!-- 10 -->
      <g transform="translate(26.06859375 303.668020833)scale(0.3 -0.3)">
       <use xlink:href="#BitstreamVeraSans-Roman-2212"/>
       <use x="83.7890625" xlink:href="#BitstreamVeraSans-Roman-31"/>
       <use x="147.412109375" xlink:href="#BitstreamVeraSans-Roman-30"/>
      </g>
     </g>
    </g>
    <g id="ytick_8">
     <g id="line2d_29">
      <g>
       <use style="stroke:#000000;stroke-width:0.5;" x="93.38265625" xlink:href="#mac57814679" y="216.231857639"/>
      </g>
     </g>
     <g id="line2d_30">
      <g>
       <use style="stroke:#000000;stroke-width:0.5;" x="1373.2425" xlink:href="#mc0f55023de" y="216.231857639"/>
      </g>
     </g>
     <g id="text_15">
      <!-- 0 -->
      <g transform="translate(70.29515625 224.509982639)scale(0.3 -0.3)">
       <use xlink:href="#BitstreamVeraSans-Roman-30"/>
      </g>
     </g>
    </g>
    <g id="ytick_9">
     <g id="line2d_31">
      <g>
       <use style="stroke:#000000;stroke-width:0.5;" x="93.38265625" xlink:href="#mac57814679" y="137.073819444"/>
      </g>
     </g>
     <g id="line2d_32">
      <g>
       <use style="stroke:#000000;stroke-width:0.5;" x="1373.2425" xlink:href="#mc0f55023de" y="137.073819444"/>
      </g>
     </g>
     <g id="text_16">
      <!-- 10 -->
      <g transform="translate(51.20765625 145.351944444)scale(0.3 -0.3)">
       <use xlink:href="#BitstreamVeraSans-Roman-31"/>
       <use x="63.623046875" xlink:href="#BitstreamVeraSans-Roman-30"/>
      </g>
     </g>
    </g>
    <g id="ytick_10">
     <g id="line2d_33">
      <g>
       <use style="stroke:#000000;stroke-width:0.5;" x="93.38265625" xlink:href="#mac57814679" y="57.91578125"/>
      </g>
     </g>
     <g id="line2d_34">
      <g>
       <use style="stroke:#000000;stroke-width:0.5;" x="1373.2425" xlink:href="#mc0f55023de" y="57.91578125"/>
      </g>
     </g>
     <g id="text_17">
      <!-- 20 -->
      <g transform="translate(51.20765625 66.19390625)scale(0.3 -0.3)">
       <use xlink:href="#BitstreamVeraSans-Roman-32"/>
       <use x="63.623046875" xlink:href="#BitstreamVeraSans-Roman-30"/>
      </g>
     </g>
    </g>
   </g>
   <g id="text_18">
    <!-- log(loss) -->
    <defs>
     <path d="M 8.015625 75.875 
L 15.828125 75.875 
Q 23.140625 64.359375 26.78125 53.3125 
Q 30.421875 42.28125 30.421875 31.390625 
Q 30.421875 20.453125 26.78125 9.375 
Q 23.140625 -1.703125 15.828125 -13.1875 
L 8.015625 -13.1875 
Q 14.5 -2 17.703125 9.0625 
Q 20.90625 20.125 20.90625 31.390625 
Q 20.90625 42.671875 17.703125 53.65625 
Q 14.5 64.65625 8.015625 75.875 
" id="BitstreamVeraSans-Roman-29"/>
     <path d="M 31 75.875 
Q 24.46875 64.65625 21.28125 53.65625 
Q 18.109375 42.671875 18.109375 31.390625 
Q 18.109375 20.125 21.3125 9.0625 
Q 24.515625 -2 31 -13.1875 
L 23.1875 -13.1875 
Q 15.875 -1.703125 12.234375 9.375 
Q 8.59375 20.453125 8.59375 31.390625 
Q 8.59375 42.28125 12.203125 53.3125 
Q 15.828125 64.359375 23.1875 75.875 
z
" id="BitstreamVeraSans-Roman-28"/>
     <path d="M 45.40625 27.984375 
Q 45.40625 37.75 41.375 43.109375 
Q 37.359375 48.484375 30.078125 48.484375 
Q 22.859375 48.484375 18.828125 43.109375 
Q 14.796875 37.75 14.796875 27.984375 
Q 14.796875 18.265625 18.828125 12.890625 
Q 22.859375 7.515625 30.078125 7.515625 
Q 37.359375 7.515625 41.375 12.890625 
Q 45.40625 18.265625 45.40625 27.984375 
M 54.390625 6.78125 
Q 54.390625 -7.171875 48.1875 -13.984375 
Q 42 -20.796875 29.203125 -20.796875 
Q 24.46875 -20.796875 20.265625 -20.09375 
Q 16.0625 -19.390625 12.109375 -17.921875 
L 12.109375 -9.1875 
Q 16.0625 -11.328125 19.921875 -12.34375 
Q 23.78125 -13.375 27.78125 -13.375 
Q 36.625 -13.375 41.015625 -8.765625 
Q 45.40625 -4.15625 45.40625 5.171875 
L 45.40625 9.625 
Q 42.625 4.78125 38.28125 2.390625 
Q 33.9375 0 27.875 0 
Q 17.828125 0 11.671875 7.65625 
Q 5.515625 15.328125 5.515625 27.984375 
Q 5.515625 40.671875 11.671875 48.328125 
Q 17.828125 56 27.875 56 
Q 33.9375 56 38.28125 53.609375 
Q 42.625 51.21875 45.40625 46.390625 
L 45.40625 54.6875 
L 54.390625 54.6875 
z
" id="BitstreamVeraSans-Roman-67"/>
     <path d="M 9.421875 75.984375 
L 18.40625 75.984375 
L 18.40625 0 
L 9.421875 0 
z
" id="BitstreamVeraSans-Roman-6c"/>
    </defs>
    <g transform="translate(669.766484375 52.91578125)scale(0.3 -0.3)">
     <use xlink:href="#BitstreamVeraSans-Roman-6c"/>
     <use x="27.783203125" xlink:href="#BitstreamVeraSans-Roman-6f"/>
     <use x="88.96484375" xlink:href="#BitstreamVeraSans-Roman-67"/>
     <use x="152.44140625" xlink:href="#BitstreamVeraSans-Roman-28"/>
     <use x="191.455078125" xlink:href="#BitstreamVeraSans-Roman-6c"/>
     <use x="219.23828125" xlink:href="#BitstreamVeraSans-Roman-6f"/>
     <use x="280.419921875" xlink:href="#BitstreamVeraSans-Roman-73"/>
     <use x="332.51953125" xlink:href="#BitstreamVeraSans-Roman-73"/>
     <use x="384.619140625" xlink:href="#BitstreamVeraSans-Roman-29"/>
    </g>
   </g>
   <g id="legend_1">
    <g id="patch_7">
     <path d="M 1133.889375 169.984531 
L 1358.2425 169.984531 
L 1358.2425 72.915781 
L 1133.889375 72.915781 
z
" style="fill:#ffffff;stroke:#000000;stroke-linejoin:miter;"/>
    </g>
    <g id="line2d_35">
     <path d="M 1154.889375 97.211094 
L 1196.889375 97.211094 
" style="fill:none;stroke:#0000ff;stroke-linecap:square;stroke-width:2.0;"/>
    </g>
    <g id="line2d_36"/>
    <g id="text_19">
     <!-- random -->
     <defs>
      <path d="M 45.40625 46.390625 
L 45.40625 75.984375 
L 54.390625 75.984375 
L 54.390625 0 
L 45.40625 0 
L 45.40625 8.203125 
Q 42.578125 3.328125 38.25 0.953125 
Q 33.9375 -1.421875 27.875 -1.421875 
Q 17.96875 -1.421875 11.734375 6.484375 
Q 5.515625 14.40625 5.515625 27.296875 
Q 5.515625 40.1875 11.734375 48.09375 
Q 17.96875 56 27.875 56 
Q 33.9375 56 38.25 53.625 
Q 42.578125 51.265625 45.40625 46.390625 
M 14.796875 27.296875 
Q 14.796875 17.390625 18.875 11.75 
Q 22.953125 6.109375 30.078125 6.109375 
Q 37.203125 6.109375 41.296875 11.75 
Q 45.40625 17.390625 45.40625 27.296875 
Q 45.40625 37.203125 41.296875 42.84375 
Q 37.203125 48.484375 30.078125 48.484375 
Q 22.953125 48.484375 18.875 42.84375 
Q 14.796875 37.203125 14.796875 27.296875 
" id="BitstreamVeraSans-Roman-64"/>
      <path d="M 52 44.1875 
Q 55.375 50.25 60.0625 53.125 
Q 64.75 56 71.09375 56 
Q 79.640625 56 84.28125 50.015625 
Q 88.921875 44.046875 88.921875 33.015625 
L 88.921875 0 
L 79.890625 0 
L 79.890625 32.71875 
Q 79.890625 40.578125 77.09375 44.375 
Q 74.3125 48.1875 68.609375 48.1875 
Q 61.625 48.1875 57.5625 43.546875 
Q 53.515625 38.921875 53.515625 30.90625 
L 53.515625 0 
L 44.484375 0 
L 44.484375 32.71875 
Q 44.484375 40.625 41.703125 44.40625 
Q 38.921875 48.1875 33.109375 48.1875 
Q 26.21875 48.1875 22.15625 43.53125 
Q 18.109375 38.875 18.109375 30.90625 
L 18.109375 0 
L 9.078125 0 
L 9.078125 54.6875 
L 18.109375 54.6875 
L 18.109375 46.1875 
Q 21.1875 51.21875 25.484375 53.609375 
Q 29.78125 56 35.6875 56 
Q 41.65625 56 45.828125 52.96875 
Q 50 49.953125 52 44.1875 
" id="BitstreamVeraSans-Roman-6d"/>
     </defs>
     <g transform="translate(1229.889375 107.71109375)scale(0.3 -0.3)">
      <use xlink:href="#BitstreamVeraSans-Roman-72"/>
      <use x="41.11328125" xlink:href="#BitstreamVeraSans-Roman-61"/>
      <use x="102.392578125" xlink:href="#BitstreamVeraSans-Roman-6e"/>
      <use x="165.771484375" xlink:href="#BitstreamVeraSans-Roman-64"/>
      <use x="229.248046875" xlink:href="#BitstreamVeraSans-Roman-6f"/>
      <use x="290.4296875" xlink:href="#BitstreamVeraSans-Roman-6d"/>
     </g>
    </g>
    <g id="line2d_37">
     <path d="M 1154.889375 141.245469 
L 1196.889375 141.245469 
" style="fill:none;stroke:#008000;stroke-linecap:square;stroke-width:2.0;"/>
    </g>
    <g id="line2d_38"/>
    <g id="text_20">
     <!-- corr -->
     <defs>
      <path d="M 48.78125 52.59375 
L 48.78125 44.1875 
Q 44.96875 46.296875 41.140625 47.34375 
Q 37.3125 48.390625 33.40625 48.390625 
Q 24.65625 48.390625 19.8125 42.84375 
Q 14.984375 37.3125 14.984375 27.296875 
Q 14.984375 17.28125 19.8125 11.734375 
Q 24.65625 6.203125 33.40625 6.203125 
Q 37.3125 6.203125 41.140625 7.25 
Q 44.96875 8.296875 48.78125 10.40625 
L 48.78125 2.09375 
Q 45.015625 0.34375 40.984375 -0.53125 
Q 36.96875 -1.421875 32.421875 -1.421875 
Q 20.0625 -1.421875 12.78125 6.34375 
Q 5.515625 14.109375 5.515625 27.296875 
Q 5.515625 40.671875 12.859375 48.328125 
Q 20.21875 56 33.015625 56 
Q 37.15625 56 41.109375 55.140625 
Q 45.0625 54.296875 48.78125 52.59375 
" id="BitstreamVeraSans-Roman-63"/>
     </defs>
     <g transform="translate(1229.889375 151.74546875)scale(0.3 -0.3)">
      <use xlink:href="#BitstreamVeraSans-Roman-63"/>
      <use x="54.98046875" xlink:href="#BitstreamVeraSans-Roman-6f"/>
      <use x="116.162109375" xlink:href="#BitstreamVeraSans-Roman-72"/>
      <use x="157.259765625" xlink:href="#BitstreamVeraSans-Roman-72"/>
     </g>
    </g>
   </g>
  </g>
 </g>
 <defs>
  <clipPath id="p3e77846957">
   <rect height="712.42234375" width="1279.85984375" x="93.38265625" y="57.91578125"/>
  </clipPath>
 </defs>
</svg>
