<?xml version="1.0" encoding="utf-8" standalone="no"?>
<!DOCTYPE svg PUBLIC "-//W3C//DTD SVG 1.1//EN"
  "http://www.w3.org/Graphics/SVG/1.1/DTD/svg11.dtd">
<!-- Created with matplotlib (http://matplotlib.org/) -->
<svg height="864pt" version="1.1" viewBox="0 0 1440 864" width="1440pt" xmlns="http://www.w3.org/2000/svg" xmlns:xlink="http://www.w3.org/1999/xlink">
 <defs>
  <style type="text/css">
*{stroke-linecap:butt;stroke-linejoin:round;stroke-miterlimit:100000;}
  </style>
 </defs>
 <g id="figure_1">
  <g id="patch_1">
   <path d="M 0 864 
L 1440 864 
L 1440 0 
L 0 0 
z
" style="fill:#ffffff;"/>
  </g>
  <g id="axes_1">
   <g id="patch_2">
    <path d="M 158.2875 747 
L 1371.825 747 
L 1371.825 51.3 
L 158.2875 51.3 
z
" style="fill:#ffffff;"/>
   </g>
   <g id="line2d_1">
    <path clip-path="url(#p6635e1435a)" d="M 158.2875 52.846624 
L 160.714575 54.38164 
L 165.568725 58.115116 
L 167.9958 59.714375 
L 170.422875 61.725777 
L 182.55825 69.736573 
L 184.985325 71.713145 
L 187.4124 72.993403 
L 189.839475 74.982346 
L 194.693625 78.143401 
L 197.1207 79.598644 
L 199.547775 81.245934 
L 201.97485 82.418413 
L 206.829 85.517606 
L 209.256075 87.357582 
L 211.68315 88.523049 
L 214.110225 89.913205 
L 216.5373 91.600662 
L 221.39145 94.562644 
L 223.818525 96.118902 
L 235.9539 103.179167 
L 238.380975 104.655246 
L 240.80805 106.577476 
L 243.235125 108.04581 
L 248.089275 110.567984 
L 252.943425 113.640465 
L 255.3705 115.075782 
L 257.797575 116.693931 
L 262.651725 119.430002 
L 265.0788 120.717864 
L 267.505875 122.250867 
L 269.93295 123.396761 
L 277.214175 127.814986 
L 279.64125 128.98461 
L 284.4954 131.969701 
L 286.922475 133.373444 
L 289.34955 135.008765 
L 291.776625 136.226059 
L 294.2037 137.8413 
L 296.630775 139.304754 
L 301.484925 141.968767 
L 303.912 143.107609 
L 316.047375 150.204089 
L 318.47445 151.438082 
L 320.901525 153.006239 
L 325.755675 155.667713 
L 335.463975 161.421471 
L 342.7452 164.993265 
L 345.172275 166.510355 
L 347.59935 167.765537 
L 354.880575 171.993053 
L 359.734725 174.900008 
L 362.1618 176.184077 
L 364.588875 177.859409 
L 371.8701 182.182081 
L 374.297175 183.28186 
L 376.72425 184.691376 
L 379.151325 185.962919 
L 381.5784 187.630824 
L 384.005475 189.073206 
L 386.43255 191.199925 
L 396.14085 196.742955 
L 398.567925 198.510777 
L 405.84915 203.061204 
L 410.7033 205.709933 
L 415.55745 208.903017 
L 417.984525 210.448393 
L 425.26575 214.185583 
L 434.97405 219.973062 
L 442.255275 223.677373 
L 444.68235 225.032769 
L 447.109425 226.18594 
L 449.5365 227.475741 
L 451.963575 228.950047 
L 459.2448 232.507086 
L 461.671875 233.882294 
L 464.09895 235.604122 
L 466.526025 236.651996 
L 471.380175 239.068157 
L 476.234325 242.063534 
L 481.088475 244.794638 
L 485.942625 247.387514 
L 490.796775 250.306066 
L 495.650925 252.709079 
L 498.078 254.051982 
L 500.505075 255.598323 
L 502.93215 256.97186 
L 507.7863 259.290043 
L 510.213375 260.917247 
L 512.64045 262.05788 
L 515.067525 263.344379 
L 517.4946 264.445427 
L 519.921675 265.923412 
L 522.34875 266.943812 
L 524.775825 268.427944 
L 527.2029 269.477691 
L 529.629975 271.191131 
L 532.05705 272.221371 
L 534.484125 274.005418 
L 539.338275 276.944168 
L 541.76535 278.237236 
L 544.192425 279.389651 
L 546.6195 281.111134 
L 551.47365 283.34534 
L 553.900725 284.596284 
L 556.3278 286.345727 
L 558.754875 287.890064 
L 561.18195 289.170759 
L 563.609025 290.654981 
L 566.0361 291.997726 
L 570.89025 294.26516 
L 573.317325 295.335882 
L 575.7444 296.950094 
L 578.171475 298.253528 
L 583.025625 300.088034 
L 585.4527 301.254517 
L 587.879775 302.814634 
L 592.733925 305.530608 
L 602.442225 310.356663 
L 604.8693 311.971373 
L 609.72345 314.66504 
L 614.5776 317.777419 
L 617.004675 319.041452 
L 619.43175 320.147785 
L 624.2859 322.680947 
L 626.712975 324.23272 
L 636.421275 328.705547 
L 638.84835 330.164718 
L 641.275425 331.461257 
L 646.129575 334.436125 
L 648.55665 335.574466 
L 650.983725 337.025819 
L 655.837875 339.245136 
L 658.26495 340.50959 
L 660.692025 341.597113 
L 670.400325 347.339393 
L 672.8274 349.051825 
L 675.254475 350.147692 
L 682.5357 354.047795 
L 684.962775 355.601796 
L 687.38985 356.808665 
L 689.816925 357.822948 
L 692.244 358.9696 
L 694.671075 360.510628 
L 701.9523 363.868531 
L 704.379375 365.504556 
L 709.233525 368.115147 
L 711.6606 369.23917 
L 721.3689 374.492776 
L 723.795975 375.956043 
L 726.22305 377.208638 
L 728.650125 378.682804 
L 731.0772 379.794755 
L 733.504275 380.642343 
L 735.93135 382.076635 
L 738.358425 383.342779 
L 752.920875 391.683235 
L 755.34795 393.374532 
L 760.2021 396.082376 
L 762.629175 397.887076 
L 765.05625 398.998155 
L 769.9104 401.819428 
L 774.76455 404.186259 
L 777.191625 405.446766 
L 784.47285 409.818878 
L 789.327 412.317703 
L 794.18115 415.189339 
L 801.462375 419.355193 
L 803.88945 420.611067 
L 806.316525 421.660798 
L 808.7436 422.941591 
L 811.170675 424.417426 
L 813.59775 425.54917 
L 816.024825 427.413329 
L 818.4519 428.87279 
L 823.30605 431.368937 
L 825.733125 432.157245 
L 830.587275 435.173003 
L 833.01435 436.500343 
L 835.441425 437.526688 
L 837.8685 438.985662 
L 840.295575 440.199432 
L 842.72265 441.641439 
L 845.149725 442.876181 
L 847.5768 444.403486 
L 850.003875 445.544086 
L 852.43095 447.037246 
L 857.2851 449.447629 
L 859.712175 451.159088 
L 862.13925 452.574281 
L 864.566325 453.316661 
L 866.9934 454.536888 
L 869.420475 456.187634 
L 871.84755 457.318864 
L 874.274625 458.892645 
L 876.7017 459.982706 
L 879.128775 461.500251 
L 881.55585 462.425783 
L 883.982925 464.07289 
L 886.41 465.123707 
L 888.837075 466.352625 
L 896.1183 470.712458 
L 898.545375 472.039044 
L 900.97245 473.208454 
L 903.399525 474.645242 
L 905.8266 475.595746 
L 908.253675 476.875701 
L 913.107825 479.019601 
L 917.961975 481.485346 
L 920.38905 482.481508 
L 922.816125 483.705762 
L 925.2432 485.482266 
L 927.670275 486.479958 
L 930.09735 488.028432 
L 932.524425 489.293582 
L 934.9515 490.157403 
L 937.378575 491.549593 
L 939.80565 492.699648 
L 942.232725 494.333799 
L 947.086875 496.627865 
L 949.51395 497.869462 
L 954.3681 500.592828 
L 959.22225 503.255344 
L 964.0764 505.610473 
L 971.357625 510.257542 
L 976.211775 512.933706 
L 983.493 516.94187 
L 985.920075 518.055909 
L 988.34715 519.416841 
L 998.05545 524.131872 
L 1002.9096 526.119547 
L 1005.336675 527.250773 
L 1007.76375 528.53069 
L 1015.044975 532.703947 
L 1019.899125 535.168618 
L 1024.753275 537.701816 
L 1027.18035 538.836901 
L 1034.461575 543.297307 
L 1036.88865 544.46099 
L 1041.7428 547.216478 
L 1049.024025 551.35382 
L 1051.4511 552.550147 
L 1053.878175 553.604309 
L 1056.30525 554.855519 
L 1058.732325 555.961004 
L 1061.1594 556.911391 
L 1063.586475 558.2635 
L 1066.01355 559.34668 
L 1068.440625 560.75774 
L 1073.294775 562.897544 
L 1075.72185 564.568343 
L 1078.148925 566.03925 
L 1080.576 567.252861 
L 1083.003075 568.829043 
L 1085.43015 570.022637 
L 1087.857225 571.438613 
L 1092.711375 573.804476 
L 1095.13845 574.798376 
L 1097.565525 575.924761 
L 1102.419675 578.528718 
L 1104.84675 579.604344 
L 1109.7009 581.935784 
L 1114.55505 584.731024 
L 1119.4092 587.357073 
L 1121.836275 588.723762 
L 1124.26335 589.846432 
L 1126.690425 591.115203 
L 1131.544575 593.866493 
L 1136.398725 596.574247 
L 1138.8258 597.644762 
L 1150.961175 603.584216 
L 1155.815325 605.646841 
L 1158.2424 607.184485 
L 1163.09655 609.755408 
L 1165.523625 611.41609 
L 1182.51315 620.804899 
L 1187.3673 623.237629 
L 1192.22145 625.299659 
L 1194.648525 626.531838 
L 1199.502675 628.609078 
L 1201.92975 630.046203 
L 1206.7839 632.537703 
L 1214.065125 635.548979 
L 1218.919275 637.970731 
L 1221.34635 638.977585 
L 1223.773425 640.403502 
L 1226.2005 641.578478 
L 1228.627575 642.986554 
L 1231.05465 643.976685 
L 1235.9088 647.403564 
L 1240.76295 649.327839 
L 1243.190025 650.727167 
L 1248.044175 652.961699 
L 1250.47125 653.960268 
L 1252.898325 655.106165 
L 1255.3254 655.900237 
L 1257.752475 657.291261 
L 1260.17955 658.46264 
L 1262.606625 660.156392 
L 1267.460775 662.527931 
L 1272.314925 665.113621 
L 1274.742 666.280113 
L 1277.169075 667.176324 
L 1282.023225 669.68352 
L 1284.4503 670.718286 
L 1289.30445 673.371599 
L 1291.731525 674.190386 
L 1299.01275 677.91861 
L 1303.8669 680.88835 
L 1308.72105 683.075825 
L 1313.5752 685.815974 
L 1318.42935 687.920763 
L 1320.856425 689.228521 
L 1323.2835 690.706188 
L 1328.13765 692.942647 
L 1330.564725 694.156619 
L 1332.9918 695.616877 
L 1337.84595 698.00309 
L 1340.273025 699.114346 
L 1345.127175 701.928088 
L 1347.55425 703.106566 
L 1349.981325 704.516705 
L 1354.835475 706.777422 
L 1357.26255 708.277242 
L 1359.689625 709.433799 
L 1362.1167 710.852602 
L 1364.543775 712.524249 
L 1366.97085 713.72702 
L 1369.397925 715.107874 
L 1369.397925 715.107874 
" style="fill:none;stroke:#0000ff;stroke-linecap:square;stroke-width:2.0;"/>
   </g>
   <g id="line2d_2">
    <path clip-path="url(#p6635e1435a)" d="M 158.2875 53.146508 
L 165.568725 58.89749 
L 167.9958 60.802077 
L 170.422875 62.87689 
L 172.84995 64.229156 
L 177.7041 67.545557 
L 180.131175 69.047258 
L 182.55825 70.797584 
L 187.4124 74.634205 
L 189.839475 76.014823 
L 194.693625 79.396188 
L 197.1207 80.872831 
L 204.401925 85.809542 
L 209.256075 88.757655 
L 214.110225 91.611121 
L 221.39145 97.087593 
L 223.818525 98.399946 
L 226.2456 100.11665 
L 231.09975 102.545209 
L 235.9539 105.411611 
L 238.380975 106.597257 
L 240.80805 108.565021 
L 245.6622 111.922388 
L 252.943425 116.085737 
L 257.797575 118.998451 
L 260.22465 121.007046 
L 262.651725 122.414905 
L 265.0788 124.135571 
L 267.505875 125.218602 
L 277.214175 130.94828 
L 282.068325 133.968132 
L 284.4954 135.809428 
L 286.922475 136.834217 
L 289.34955 138.485247 
L 294.2037 141.387319 
L 296.630775 142.483814 
L 299.05785 144.333722 
L 301.484925 145.620332 
L 303.912 147.060445 
L 306.339075 147.962377 
L 313.6203 152.455516 
L 320.901525 156.596707 
L 325.755675 160.240648 
L 328.18275 161.849664 
L 335.463975 166.168188 
L 342.7452 171.091951 
L 347.59935 173.634892 
L 350.026425 174.914078 
L 357.30765 179.509472 
L 359.734725 180.709556 
L 362.1618 182.374922 
L 364.588875 183.618226 
L 367.01595 185.282569 
L 369.443025 186.7494 
L 371.8701 188.469669 
L 376.72425 191.105923 
L 386.43255 196.116502 
L 388.859625 197.459625 
L 391.2867 199.205336 
L 393.713775 200.654678 
L 396.14085 202.580432 
L 398.567925 203.785941 
L 400.995 205.554012 
L 403.422075 206.757668 
L 413.130375 212.325355 
L 415.55745 213.894551 
L 417.984525 215.214138 
L 422.838675 217.690378 
L 427.692825 220.986253 
L 430.1199 222.010295 
L 432.546975 223.45743 
L 434.97405 224.430007 
L 437.401125 225.860124 
L 439.8282 226.960518 
L 442.255275 228.346644 
L 444.68235 229.484673 
L 447.109425 231.126317 
L 449.5365 232.253433 
L 456.817725 236.315034 
L 461.671875 239.23916 
L 464.09895 240.445141 
L 466.526025 241.473431 
L 468.9531 243.317864 
L 471.380175 244.315587 
L 473.80725 245.794151 
L 476.234325 246.910066 
L 481.088475 249.5689 
L 483.51555 251.004723 
L 485.942625 252.262567 
L 488.3697 253.847156 
L 493.22385 256.556637 
L 498.078 259.164026 
L 500.505075 260.262233 
L 502.93215 262.08703 
L 505.359225 263.622507 
L 507.7863 264.778037 
L 510.213375 266.063209 
L 512.64045 267.518091 
L 519.921675 270.858362 
L 522.34875 272.700287 
L 527.2029 275.356581 
L 529.629975 277.229212 
L 532.05705 278.797566 
L 534.484125 279.950773 
L 536.9112 281.238794 
L 539.338275 282.316745 
L 546.6195 286.392573 
L 551.47365 288.686917 
L 556.3278 291.468128 
L 561.18195 293.918846 
L 566.0361 296.696434 
L 570.89025 299.22177 
L 583.025625 304.755418 
L 590.30685 309.35803 
L 592.733925 310.410897 
L 595.161 311.712483 
L 597.588075 312.582673 
L 600.01515 313.665641 
L 602.442225 315.297744 
L 612.150525 320.869669 
L 614.5776 322.357023 
L 617.004675 323.324606 
L 619.43175 324.572395 
L 621.858825 325.535743 
L 626.712975 328.821455 
L 629.14005 330.396359 
L 631.567125 331.818849 
L 636.421275 334.308037 
L 638.84835 335.723174 
L 641.275425 336.654509 
L 646.129575 340.276534 
L 650.983725 342.323533 
L 655.837875 345.607702 
L 658.26495 346.597353 
L 660.692025 347.824652 
L 663.1191 349.381842 
L 665.546175 350.495692 
L 667.97325 352.089121 
L 670.400325 353.218531 
L 677.68155 357.712425 
L 680.108625 358.836924 
L 687.38985 362.877364 
L 689.816925 364.00734 
L 692.244 365.517351 
L 694.671075 366.545866 
L 697.09815 367.789499 
L 699.525225 369.345079 
L 701.9523 370.695481 
L 704.379375 372.232652 
L 709.233525 374.845825 
L 711.6606 376.246249 
L 714.087675 377.132075 
L 718.941825 379.869912 
L 726.22305 383.177723 
L 728.650125 384.413788 
L 731.0772 385.83225 
L 738.358425 389.607861 
L 740.7855 391.294094 
L 743.212575 392.557759 
L 745.63965 393.570645 
L 750.4938 396.26988 
L 752.920875 397.562243 
L 755.34795 398.454639 
L 757.775025 399.923434 
L 760.2021 401.010384 
L 762.629175 402.415999 
L 765.05625 403.642741 
L 767.483325 404.615077 
L 772.337475 407.892591 
L 774.76455 409.049647 
L 777.191625 410.636972 
L 779.6187 411.98767 
L 782.045775 413.034209 
L 784.47285 414.246572 
L 786.899925 415.215376 
L 796.608225 420.704132 
L 799.0353 421.717234 
L 801.462375 422.918545 
L 803.88945 423.950368 
L 806.316525 424.754734 
L 808.7436 425.904801 
L 813.59775 428.573537 
L 820.878975 431.614872 
L 830.587275 436.479857 
L 833.01435 437.835883 
L 835.441425 438.958889 
L 837.8685 440.565407 
L 850.003875 445.91076 
L 852.43095 447.14755 
L 854.858025 448.149878 
L 857.2851 449.451944 
L 859.712175 451.04092 
L 862.13925 452.198909 
L 864.566325 453.628035 
L 866.9934 454.741545 
L 869.420475 456.452455 
L 874.274625 459.336772 
L 883.982925 463.522894 
L 886.41 464.915502 
L 888.837075 466.156008 
L 898.545375 471.951899 
L 900.97245 473.067887 
L 903.399525 474.400755 
L 905.8266 475.307225 
L 908.253675 476.507577 
L 910.68075 477.465137 
L 913.107825 478.573857 
L 917.961975 481.694294 
L 920.38905 482.901413 
L 922.816125 484.452402 
L 927.670275 487.242696 
L 930.09735 488.923712 
L 932.524425 490.195823 
L 934.9515 491.977745 
L 937.378575 493.386795 
L 942.232725 495.660828 
L 949.51395 499.995241 
L 951.941025 500.985535 
L 956.795175 503.486006 
L 964.0764 506.760977 
L 971.357625 510.669817 
L 973.7847 512.35058 
L 978.63885 514.639515 
L 983.493 516.873479 
L 985.920075 518.132021 
L 990.774225 521.403421 
L 995.628375 523.611108 
L 998.05545 525.221523 
L 1000.482525 526.290572 
L 1002.9096 527.105234 
L 1005.336675 528.430685 
L 1007.76375 529.590577 
L 1010.190825 530.897037 
L 1012.6179 532.381504 
L 1015.044975 533.553478 
L 1017.47205 534.523608 
L 1019.899125 535.716057 
L 1022.3262 537.067502 
L 1024.753275 538.051465 
L 1029.607425 541.035706 
L 1034.461575 542.979577 
L 1036.88865 544.152869 
L 1041.7428 546.162018 
L 1044.169875 547.787268 
L 1046.59695 548.750728 
L 1049.024025 550.368626 
L 1056.30525 554.227761 
L 1061.1594 557.0312 
L 1063.586475 558.259494 
L 1066.01355 559.642591 
L 1070.8677 562.031288 
L 1073.294775 563.333426 
L 1075.72185 564.22998 
L 1078.148925 565.351124 
L 1080.576 566.815652 
L 1083.003075 567.85059 
L 1085.43015 569.022733 
L 1087.857225 569.924001 
L 1090.2843 571.214813 
L 1095.13845 573.545664 
L 1097.565525 574.779239 
L 1099.9926 576.327422 
L 1102.419675 577.247869 
L 1104.84675 578.651555 
L 1107.273825 579.850105 
L 1109.7009 580.635219 
L 1116.982125 584.374214 
L 1126.690425 588.938556 
L 1129.1175 590.383561 
L 1131.544575 591.536446 
L 1133.97165 593.042057 
L 1136.398725 594.251691 
L 1138.8258 595.793129 
L 1146.107025 599.245877 
L 1150.961175 602.021793 
L 1158.2424 605.39839 
L 1160.669475 606.5962 
L 1163.09655 608.131292 
L 1165.523625 609.332407 
L 1167.9507 611.048869 
L 1177.659 615.603036 
L 1182.51315 618.413095 
L 1184.940225 619.666105 
L 1187.3673 621.24332 
L 1194.648525 625.27787 
L 1197.0756 626.673273 
L 1199.502675 627.645227 
L 1204.356825 630.151952 
L 1206.7839 631.645023 
L 1209.210975 632.940788 
L 1211.63805 634.082749 
L 1216.4922 636.806506 
L 1221.34635 639.78764 
L 1223.773425 641.241442 
L 1231.05465 645.080197 
L 1235.9088 647.675324 
L 1243.190025 651.627604 
L 1245.6171 653.088714 
L 1248.044175 654.215316 
L 1250.47125 655.648656 
L 1252.898325 656.781345 
L 1255.3254 658.057897 
L 1262.606625 661.448423 
L 1265.0337 662.922926 
L 1267.460775 664.092735 
L 1269.88785 665.021425 
L 1272.314925 666.198318 
L 1274.742 667.72661 
L 1277.169075 668.569843 
L 1282.023225 670.858901 
L 1284.4503 672.156885 
L 1286.877375 673.260316 
L 1289.30445 674.638416 
L 1301.439825 680.406873 
L 1303.8669 681.644011 
L 1306.293975 683.131954 
L 1308.72105 683.890264 
L 1311.148125 685.082426 
L 1313.5752 686.657282 
L 1318.42935 689.010117 
L 1323.2835 691.140683 
L 1328.13765 693.971972 
L 1330.564725 694.928281 
L 1335.418875 697.797638 
L 1337.84595 698.735543 
L 1340.273025 700.127281 
L 1342.7001 701.060373 
L 1345.127175 702.335281 
L 1347.55425 703.247897 
L 1359.689625 710.010576 
L 1362.1167 711.227644 
L 1369.397925 714.262706 
L 1369.397925 714.262706 
" style="fill:none;stroke:#008000;stroke-linecap:square;stroke-width:2.0;"/>
   </g>
   <g id="patch_3">
    <path d="M 158.2875 51.3 
L 1371.825 51.3 
" style="fill:none;stroke:#000000;stroke-linecap:square;stroke-linejoin:miter;"/>
   </g>
   <g id="patch_4">
    <path d="M 1371.825 747 
L 1371.825 51.3 
" style="fill:none;stroke:#000000;stroke-linecap:square;stroke-linejoin:miter;"/>
   </g>
   <g id="patch_5">
    <path d="M 158.2875 747 
L 1371.825 747 
" style="fill:none;stroke:#000000;stroke-linecap:square;stroke-linejoin:miter;"/>
   </g>
   <g id="patch_6">
    <path d="M 158.2875 747 
L 158.2875 51.3 
" style="fill:none;stroke:#000000;stroke-linecap:square;stroke-linejoin:miter;"/>
   </g>
   <g id="matplotlib.axis_1">
    <g id="xtick_1">
     <g id="line2d_3">
      <defs>
       <path d="M 0 0 
L 0 -4 
" id="m47f3ee65f3" style="stroke:#000000;stroke-width:0.5;"/>
      </defs>
      <g>
       <use style="stroke:#000000;stroke-width:0.5;" x="158.2875" xlink:href="#m47f3ee65f3" y="747.0"/>
      </g>
     </g>
     <g id="line2d_4">
      <defs>
       <path d="M 0 0 
L 0 4 
" id="m9e0b7d77d8" style="stroke:#000000;stroke-width:0.5;"/>
      </defs>
      <g>
       <use style="stroke:#000000;stroke-width:0.5;" x="158.2875" xlink:href="#m9e0b7d77d8" y="51.3"/>
      </g>
     </g>
     <g id="text_1">
      <!-- 0 -->
      <defs>
       <path d="M 31.78125 66.40625 
Q 24.171875 66.40625 20.328125 58.90625 
Q 16.5 51.421875 16.5 36.375 
Q 16.5 21.390625 20.328125 13.890625 
Q 24.171875 6.390625 31.78125 6.390625 
Q 39.453125 6.390625 43.28125 13.890625 
Q 47.125 21.390625 47.125 36.375 
Q 47.125 51.421875 43.28125 58.90625 
Q 39.453125 66.40625 31.78125 66.40625 
M 31.78125 74.21875 
Q 44.046875 74.21875 50.515625 64.515625 
Q 56.984375 54.828125 56.984375 36.375 
Q 56.984375 17.96875 50.515625 8.265625 
Q 44.046875 -1.421875 31.78125 -1.421875 
Q 19.53125 -1.421875 13.0625 8.265625 
Q 6.59375 17.96875 6.59375 36.375 
Q 6.59375 54.828125 13.0625 64.515625 
Q 19.53125 74.21875 31.78125 74.21875 
" id="BitstreamVeraSans-Roman-30"/>
      </defs>
      <g transform="translate(148.74375 773.7953125)scale(0.3 -0.3)">
       <use xlink:href="#BitstreamVeraSans-Roman-30"/>
      </g>
     </g>
    </g>
    <g id="xtick_2">
     <g id="line2d_5">
      <g>
       <use style="stroke:#000000;stroke-width:0.5;" x="400.995" xlink:href="#m47f3ee65f3" y="747.0"/>
      </g>
     </g>
     <g id="line2d_6">
      <g>
       <use style="stroke:#000000;stroke-width:0.5;" x="400.995" xlink:href="#m9e0b7d77d8" y="51.3"/>
      </g>
     </g>
     <g id="text_2">
      <!-- 100 -->
      <defs>
       <path d="M 12.40625 8.296875 
L 28.515625 8.296875 
L 28.515625 63.921875 
L 10.984375 60.40625 
L 10.984375 69.390625 
L 28.421875 72.90625 
L 38.28125 72.90625 
L 38.28125 8.296875 
L 54.390625 8.296875 
L 54.390625 0 
L 12.40625 0 
z
" id="BitstreamVeraSans-Roman-31"/>
      </defs>
      <g transform="translate(372.36375 773.7953125)scale(0.3 -0.3)">
       <use xlink:href="#BitstreamVeraSans-Roman-31"/>
       <use x="63.623046875" xlink:href="#BitstreamVeraSans-Roman-30"/>
       <use x="127.24609375" xlink:href="#BitstreamVeraSans-Roman-30"/>
      </g>
     </g>
    </g>
    <g id="xtick_3">
     <g id="line2d_7">
      <g>
       <use style="stroke:#000000;stroke-width:0.5;" x="643.7025" xlink:href="#m47f3ee65f3" y="747.0"/>
      </g>
     </g>
     <g id="line2d_8">
      <g>
       <use style="stroke:#000000;stroke-width:0.5;" x="643.7025" xlink:href="#m9e0b7d77d8" y="51.3"/>
      </g>
     </g>
     <g id="text_3">
      <!-- 200 -->
      <defs>
       <path d="M 19.1875 8.296875 
L 53.609375 8.296875 
L 53.609375 0 
L 7.328125 0 
L 7.328125 8.296875 
Q 12.9375 14.109375 22.625 23.890625 
Q 32.328125 33.6875 34.8125 36.53125 
Q 39.546875 41.84375 41.421875 45.53125 
Q 43.3125 49.21875 43.3125 52.78125 
Q 43.3125 58.59375 39.234375 62.25 
Q 35.15625 65.921875 28.609375 65.921875 
Q 23.96875 65.921875 18.8125 64.3125 
Q 13.671875 62.703125 7.8125 59.421875 
L 7.8125 69.390625 
Q 13.765625 71.78125 18.9375 73 
Q 24.125 74.21875 28.421875 74.21875 
Q 39.75 74.21875 46.484375 68.546875 
Q 53.21875 62.890625 53.21875 53.421875 
Q 53.21875 48.921875 51.53125 44.890625 
Q 49.859375 40.875 45.40625 35.40625 
Q 44.1875 33.984375 37.640625 27.21875 
Q 31.109375 20.453125 19.1875 8.296875 
" id="BitstreamVeraSans-Roman-32"/>
      </defs>
      <g transform="translate(615.07125 773.7953125)scale(0.3 -0.3)">
       <use xlink:href="#BitstreamVeraSans-Roman-32"/>
       <use x="63.623046875" xlink:href="#BitstreamVeraSans-Roman-30"/>
       <use x="127.24609375" xlink:href="#BitstreamVeraSans-Roman-30"/>
      </g>
     </g>
    </g>
    <g id="xtick_4">
     <g id="line2d_9">
      <g>
       <use style="stroke:#000000;stroke-width:0.5;" x="886.41" xlink:href="#m47f3ee65f3" y="747.0"/>
      </g>
     </g>
     <g id="line2d_10">
      <g>
       <use style="stroke:#000000;stroke-width:0.5;" x="886.41" xlink:href="#m9e0b7d77d8" y="51.3"/>
      </g>
     </g>
     <g id="text_4">
      <!-- 300 -->
      <defs>
       <path d="M 40.578125 39.3125 
Q 47.65625 37.796875 51.625 33 
Q 55.609375 28.21875 55.609375 21.1875 
Q 55.609375 10.40625 48.1875 4.484375 
Q 40.765625 -1.421875 27.09375 -1.421875 
Q 22.515625 -1.421875 17.65625 -0.515625 
Q 12.796875 0.390625 7.625 2.203125 
L 7.625 11.71875 
Q 11.71875 9.328125 16.59375 8.109375 
Q 21.484375 6.890625 26.8125 6.890625 
Q 36.078125 6.890625 40.9375 10.546875 
Q 45.796875 14.203125 45.796875 21.1875 
Q 45.796875 27.640625 41.28125 31.265625 
Q 36.765625 34.90625 28.71875 34.90625 
L 20.21875 34.90625 
L 20.21875 43.015625 
L 29.109375 43.015625 
Q 36.375 43.015625 40.234375 45.921875 
Q 44.09375 48.828125 44.09375 54.296875 
Q 44.09375 59.90625 40.109375 62.90625 
Q 36.140625 65.921875 28.71875 65.921875 
Q 24.65625 65.921875 20.015625 65.03125 
Q 15.375 64.15625 9.8125 62.3125 
L 9.8125 71.09375 
Q 15.4375 72.65625 20.34375 73.4375 
Q 25.25 74.21875 29.59375 74.21875 
Q 40.828125 74.21875 47.359375 69.109375 
Q 53.90625 64.015625 53.90625 55.328125 
Q 53.90625 49.265625 50.4375 45.09375 
Q 46.96875 40.921875 40.578125 39.3125 
" id="BitstreamVeraSans-Roman-33"/>
      </defs>
      <g transform="translate(857.77875 773.7953125)scale(0.3 -0.3)">
       <use xlink:href="#BitstreamVeraSans-Roman-33"/>
       <use x="63.623046875" xlink:href="#BitstreamVeraSans-Roman-30"/>
       <use x="127.24609375" xlink:href="#BitstreamVeraSans-Roman-30"/>
      </g>
     </g>
    </g>
    <g id="xtick_5">
     <g id="line2d_11">
      <g>
       <use style="stroke:#000000;stroke-width:0.5;" x="1129.1175" xlink:href="#m47f3ee65f3" y="747.0"/>
      </g>
     </g>
     <g id="line2d_12">
      <g>
       <use style="stroke:#000000;stroke-width:0.5;" x="1129.1175" xlink:href="#m9e0b7d77d8" y="51.3"/>
      </g>
     </g>
     <g id="text_5">
      <!-- 400 -->
      <defs>
       <path d="M 37.796875 64.3125 
L 12.890625 25.390625 
L 37.796875 25.390625 
z
M 35.203125 72.90625 
L 47.609375 72.90625 
L 47.609375 25.390625 
L 58.015625 25.390625 
L 58.015625 17.1875 
L 47.609375 17.1875 
L 47.609375 0 
L 37.796875 0 
L 37.796875 17.1875 
L 4.890625 17.1875 
L 4.890625 26.703125 
z
" id="BitstreamVeraSans-Roman-34"/>
      </defs>
      <g transform="translate(1100.48625 773.7953125)scale(0.3 -0.3)">
       <use xlink:href="#BitstreamVeraSans-Roman-34"/>
       <use x="63.623046875" xlink:href="#BitstreamVeraSans-Roman-30"/>
       <use x="127.24609375" xlink:href="#BitstreamVeraSans-Roman-30"/>
      </g>
     </g>
    </g>
    <g id="xtick_6">
     <g id="line2d_13">
      <g>
       <use style="stroke:#000000;stroke-width:0.5;" x="1371.825" xlink:href="#m47f3ee65f3" y="747.0"/>
      </g>
     </g>
     <g id="line2d_14">
      <g>
       <use style="stroke:#000000;stroke-width:0.5;" x="1371.825" xlink:href="#m9e0b7d77d8" y="51.3"/>
      </g>
     </g>
     <g id="text_6">
      <!-- 500 -->
      <defs>
       <path d="M 10.796875 72.90625 
L 49.515625 72.90625 
L 49.515625 64.59375 
L 19.828125 64.59375 
L 19.828125 46.734375 
Q 21.96875 47.46875 24.109375 47.828125 
Q 26.265625 48.1875 28.421875 48.1875 
Q 40.625 48.1875 47.75 41.5 
Q 54.890625 34.8125 54.890625 23.390625 
Q 54.890625 11.625 47.5625 5.09375 
Q 40.234375 -1.421875 26.90625 -1.421875 
Q 22.3125 -1.421875 17.546875 -0.640625 
Q 12.796875 0.140625 7.71875 1.703125 
L 7.71875 11.625 
Q 12.109375 9.234375 16.796875 8.0625 
Q 21.484375 6.890625 26.703125 6.890625 
Q 35.15625 6.890625 40.078125 11.328125 
Q 45.015625 15.765625 45.015625 23.390625 
Q 45.015625 31 40.078125 35.4375 
Q 35.15625 39.890625 26.703125 39.890625 
Q 22.75 39.890625 18.8125 39.015625 
Q 14.890625 38.140625 10.796875 36.28125 
z
" id="BitstreamVeraSans-Roman-35"/>
      </defs>
      <g transform="translate(1343.19375 773.7953125)scale(0.3 -0.3)">
       <use xlink:href="#BitstreamVeraSans-Roman-35"/>
       <use x="63.623046875" xlink:href="#BitstreamVeraSans-Roman-30"/>
       <use x="127.24609375" xlink:href="#BitstreamVeraSans-Roman-30"/>
      </g>
     </g>
    </g>
    <g id="text_7">
     <!-- iterations -->
     <defs>
      <path d="M 54.890625 33.015625 
L 54.890625 0 
L 45.90625 0 
L 45.90625 32.71875 
Q 45.90625 40.484375 42.875 44.328125 
Q 39.84375 48.1875 33.796875 48.1875 
Q 26.515625 48.1875 22.3125 43.546875 
Q 18.109375 38.921875 18.109375 30.90625 
L 18.109375 0 
L 9.078125 0 
L 9.078125 54.6875 
L 18.109375 54.6875 
L 18.109375 46.1875 
Q 21.34375 51.125 25.703125 53.5625 
Q 30.078125 56 35.796875 56 
Q 45.21875 56 50.046875 50.171875 
Q 54.890625 44.34375 54.890625 33.015625 
" id="BitstreamVeraSans-Roman-6e"/>
      <path d="M 34.28125 27.484375 
Q 23.390625 27.484375 19.1875 25 
Q 14.984375 22.515625 14.984375 16.5 
Q 14.984375 11.71875 18.140625 8.90625 
Q 21.296875 6.109375 26.703125 6.109375 
Q 34.1875 6.109375 38.703125 11.40625 
Q 43.21875 16.703125 43.21875 25.484375 
L 43.21875 27.484375 
z
M 52.203125 31.203125 
L 52.203125 0 
L 43.21875 0 
L 43.21875 8.296875 
Q 40.140625 3.328125 35.546875 0.953125 
Q 30.953125 -1.421875 24.3125 -1.421875 
Q 15.921875 -1.421875 10.953125 3.296875 
Q 6 8.015625 6 15.921875 
Q 6 25.140625 12.171875 29.828125 
Q 18.359375 34.515625 30.609375 34.515625 
L 43.21875 34.515625 
L 43.21875 35.40625 
Q 43.21875 41.609375 39.140625 45 
Q 35.0625 48.390625 27.6875 48.390625 
Q 23 48.390625 18.546875 47.265625 
Q 14.109375 46.140625 10.015625 43.890625 
L 10.015625 52.203125 
Q 14.9375 54.109375 19.578125 55.046875 
Q 24.21875 56 28.609375 56 
Q 40.484375 56 46.34375 49.84375 
Q 52.203125 43.703125 52.203125 31.203125 
" id="BitstreamVeraSans-Roman-61"/>
      <path d="M 30.609375 48.390625 
Q 23.390625 48.390625 19.1875 42.75 
Q 14.984375 37.109375 14.984375 27.296875 
Q 14.984375 17.484375 19.15625 11.84375 
Q 23.34375 6.203125 30.609375 6.203125 
Q 37.796875 6.203125 41.984375 11.859375 
Q 46.1875 17.53125 46.1875 27.296875 
Q 46.1875 37.015625 41.984375 42.703125 
Q 37.796875 48.390625 30.609375 48.390625 
M 30.609375 56 
Q 42.328125 56 49.015625 48.375 
Q 55.71875 40.765625 55.71875 27.296875 
Q 55.71875 13.875 49.015625 6.21875 
Q 42.328125 -1.421875 30.609375 -1.421875 
Q 18.84375 -1.421875 12.171875 6.21875 
Q 5.515625 13.875 5.515625 27.296875 
Q 5.515625 40.765625 12.171875 48.375 
Q 18.84375 56 30.609375 56 
" id="BitstreamVeraSans-Roman-6f"/>
      <path d="M 9.421875 54.6875 
L 18.40625 54.6875 
L 18.40625 0 
L 9.421875 0 
z
M 9.421875 75.984375 
L 18.40625 75.984375 
L 18.40625 64.59375 
L 9.421875 64.59375 
z
" id="BitstreamVeraSans-Roman-69"/>
      <path d="M 56.203125 29.59375 
L 56.203125 25.203125 
L 14.890625 25.203125 
Q 15.484375 15.921875 20.484375 11.0625 
Q 25.484375 6.203125 34.421875 6.203125 
Q 39.59375 6.203125 44.453125 7.46875 
Q 49.3125 8.734375 54.109375 11.28125 
L 54.109375 2.78125 
Q 49.265625 0.734375 44.1875 -0.34375 
Q 39.109375 -1.421875 33.890625 -1.421875 
Q 20.796875 -1.421875 13.15625 6.1875 
Q 5.515625 13.8125 5.515625 26.8125 
Q 5.515625 40.234375 12.765625 48.109375 
Q 20.015625 56 32.328125 56 
Q 43.359375 56 49.78125 48.890625 
Q 56.203125 41.796875 56.203125 29.59375 
M 47.21875 32.234375 
Q 47.125 39.59375 43.09375 43.984375 
Q 39.0625 48.390625 32.421875 48.390625 
Q 24.90625 48.390625 20.390625 44.140625 
Q 15.875 39.890625 15.1875 32.171875 
z
" id="BitstreamVeraSans-Roman-65"/>
      <path d="M 18.3125 70.21875 
L 18.3125 54.6875 
L 36.8125 54.6875 
L 36.8125 47.703125 
L 18.3125 47.703125 
L 18.3125 18.015625 
Q 18.3125 11.328125 20.140625 9.421875 
Q 21.96875 7.515625 27.59375 7.515625 
L 36.8125 7.515625 
L 36.8125 0 
L 27.59375 0 
Q 17.1875 0 13.234375 3.875 
Q 9.28125 7.765625 9.28125 18.015625 
L 9.28125 47.703125 
L 2.6875 47.703125 
L 2.6875 54.6875 
L 9.28125 54.6875 
L 9.28125 70.21875 
z
" id="BitstreamVeraSans-Roman-74"/>
      <path d="M 41.109375 46.296875 
Q 39.59375 47.171875 37.8125 47.578125 
Q 36.03125 48 33.890625 48 
Q 26.265625 48 22.1875 43.046875 
Q 18.109375 38.09375 18.109375 28.8125 
L 18.109375 0 
L 9.078125 0 
L 9.078125 54.6875 
L 18.109375 54.6875 
L 18.109375 46.1875 
Q 20.953125 51.171875 25.484375 53.578125 
Q 30.03125 56 36.53125 56 
Q 37.453125 56 38.578125 55.875 
Q 39.703125 55.765625 41.0625 55.515625 
z
" id="BitstreamVeraSans-Roman-72"/>
      <path d="M 44.28125 53.078125 
L 44.28125 44.578125 
Q 40.484375 46.53125 36.375 47.5 
Q 32.28125 48.484375 27.875 48.484375 
Q 21.1875 48.484375 17.84375 46.4375 
Q 14.5 44.390625 14.5 40.28125 
Q 14.5 37.15625 16.890625 35.375 
Q 19.28125 33.59375 26.515625 31.984375 
L 29.59375 31.296875 
Q 39.15625 29.25 43.1875 25.515625 
Q 47.21875 21.78125 47.21875 15.09375 
Q 47.21875 7.46875 41.1875 3.015625 
Q 35.15625 -1.421875 24.609375 -1.421875 
Q 20.21875 -1.421875 15.453125 -0.5625 
Q 10.6875 0.296875 5.421875 2 
L 5.421875 11.28125 
Q 10.40625 8.6875 15.234375 7.390625 
Q 20.0625 6.109375 24.8125 6.109375 
Q 31.15625 6.109375 34.5625 8.28125 
Q 37.984375 10.453125 37.984375 14.40625 
Q 37.984375 18.0625 35.515625 20.015625 
Q 33.0625 21.96875 24.703125 23.78125 
L 21.578125 24.515625 
Q 13.234375 26.265625 9.515625 29.90625 
Q 5.8125 33.546875 5.8125 39.890625 
Q 5.8125 47.609375 11.28125 51.796875 
Q 16.75 56 26.8125 56 
Q 31.78125 56 36.171875 55.265625 
Q 40.578125 54.546875 44.28125 53.078125 
" id="BitstreamVeraSans-Roman-73"/>
     </defs>
     <g transform="translate(693.87421875 807.8296875)scale(0.3 -0.3)">
      <use xlink:href="#BitstreamVeraSans-Roman-69"/>
      <use x="27.783203125" xlink:href="#BitstreamVeraSans-Roman-74"/>
      <use x="66.9921875" xlink:href="#BitstreamVeraSans-Roman-65"/>
      <use x="128.515625" xlink:href="#BitstreamVeraSans-Roman-72"/>
      <use x="169.62890625" xlink:href="#BitstreamVeraSans-Roman-61"/>
      <use x="230.908203125" xlink:href="#BitstreamVeraSans-Roman-74"/>
      <use x="270.1171875" xlink:href="#BitstreamVeraSans-Roman-69"/>
      <use x="297.900390625" xlink:href="#BitstreamVeraSans-Roman-6f"/>
      <use x="359.08203125" xlink:href="#BitstreamVeraSans-Roman-6e"/>
      <use x="422.4609375" xlink:href="#BitstreamVeraSans-Roman-73"/>
     </g>
    </g>
   </g>
   <g id="matplotlib.axis_2">
    <g id="ytick_1">
     <g id="line2d_15">
      <defs>
       <path d="M 0 0 
L 4 0 
" id="m6bae62e59f" style="stroke:#000000;stroke-width:0.5;"/>
      </defs>
      <g>
       <use style="stroke:#000000;stroke-width:0.5;" x="158.2875" xlink:href="#m6bae62e59f" y="747.0"/>
      </g>
     </g>
     <g id="line2d_16">
      <defs>
       <path d="M 0 0 
L -4 0 
" id="mce6296d1f4" style="stroke:#000000;stroke-width:0.5;"/>
      </defs>
      <g>
       <use style="stroke:#000000;stroke-width:0.5;" x="1371.825" xlink:href="#mce6296d1f4" y="747.0"/>
      </g>
     </g>
     <g id="text_8">
      <!-- −25 -->
      <defs>
       <path d="M 10.59375 35.5 
L 73.1875 35.5 
L 73.1875 27.203125 
L 10.59375 27.203125 
z
" id="BitstreamVeraSans-Roman-2212"/>
      </defs>
      <g transform="translate(90.9734375 755.278125)scale(0.3 -0.3)">
       <use xlink:href="#BitstreamVeraSans-Roman-2212"/>
       <use x="83.7890625" xlink:href="#BitstreamVeraSans-Roman-32"/>
       <use x="147.412109375" xlink:href="#BitstreamVeraSans-Roman-35"/>
      </g>
     </g>
    </g>
    <g id="ytick_2">
     <g id="line2d_17">
      <g>
       <use style="stroke:#000000;stroke-width:0.5;" x="158.2875" xlink:href="#m6bae62e59f" y="660.0375"/>
      </g>
     </g>
     <g id="line2d_18">
      <g>
       <use style="stroke:#000000;stroke-width:0.5;" x="1371.825" xlink:href="#mce6296d1f4" y="660.0375"/>
      </g>
     </g>
     <g id="text_9">
      <!-- −20 -->
      <g transform="translate(90.9734375 668.315625)scale(0.3 -0.3)">
       <use xlink:href="#BitstreamVeraSans-Roman-2212"/>
       <use x="83.7890625" xlink:href="#BitstreamVeraSans-Roman-32"/>
       <use x="147.412109375" xlink:href="#BitstreamVeraSans-Roman-30"/>
      </g>
     </g>
    </g>
    <g id="ytick_3">
     <g id="line2d_19">
      <g>
       <use style="stroke:#000000;stroke-width:0.5;" x="158.2875" xlink:href="#m6bae62e59f" y="573.075"/>
      </g>
     </g>
     <g id="line2d_20">
      <g>
       <use style="stroke:#000000;stroke-width:0.5;" x="1371.825" xlink:href="#mce6296d1f4" y="573.075"/>
      </g>
     </g>
     <g id="text_10">
      <!-- −15 -->
      <g transform="translate(90.9734375 581.353125)scale(0.3 -0.3)">
       <use xlink:href="#BitstreamVeraSans-Roman-2212"/>
       <use x="83.7890625" xlink:href="#BitstreamVeraSans-Roman-31"/>
       <use x="147.412109375" xlink:href="#BitstreamVeraSans-Roman-35"/>
      </g>
     </g>
    </g>
    <g id="ytick_4">
     <g id="line2d_21">
      <g>
       <use style="stroke:#000000;stroke-width:0.5;" x="158.2875" xlink:href="#m6bae62e59f" y="486.1125"/>
      </g>
     </g>
     <g id="line2d_22">
      <g>
       <use style="stroke:#000000;stroke-width:0.5;" x="1371.825" xlink:href="#mce6296d1f4" y="486.1125"/>
      </g>
     </g>
     <g id="text_11">
      <!-- −10 -->
      <g transform="translate(90.9734375 494.390625)scale(0.3 -0.3)">
       <use xlink:href="#BitstreamVeraSans-Roman-2212"/>
       <use x="83.7890625" xlink:href="#BitstreamVeraSans-Roman-31"/>
       <use x="147.412109375" xlink:href="#BitstreamVeraSans-Roman-30"/>
      </g>
     </g>
    </g>
    <g id="ytick_5">
     <g id="line2d_23">
      <g>
       <use style="stroke:#000000;stroke-width:0.5;" x="158.2875" xlink:href="#m6bae62e59f" y="399.15"/>
      </g>
     </g>
     <g id="line2d_24">
      <g>
       <use style="stroke:#000000;stroke-width:0.5;" x="1371.825" xlink:href="#mce6296d1f4" y="399.15"/>
      </g>
     </g>
     <g id="text_12">
      <!-- −5 -->
      <g transform="translate(110.0609375 407.428125)scale(0.3 -0.3)">
       <use xlink:href="#BitstreamVeraSans-Roman-2212"/>
       <use x="83.7890625" xlink:href="#BitstreamVeraSans-Roman-35"/>
      </g>
     </g>
    </g>
    <g id="ytick_6">
     <g id="line2d_25">
      <g>
       <use style="stroke:#000000;stroke-width:0.5;" x="158.2875" xlink:href="#m6bae62e59f" y="312.1875"/>
      </g>
     </g>
     <g id="line2d_26">
      <g>
       <use style="stroke:#000000;stroke-width:0.5;" x="1371.825" xlink:href="#mce6296d1f4" y="312.1875"/>
      </g>
     </g>
     <g id="text_13">
      <!-- 0 -->
      <g transform="translate(135.2 320.465625)scale(0.3 -0.3)">
       <use xlink:href="#BitstreamVeraSans-Roman-30"/>
      </g>
     </g>
    </g>
    <g id="ytick_7">
     <g id="line2d_27">
      <g>
       <use style="stroke:#000000;stroke-width:0.5;" x="158.2875" xlink:href="#m6bae62e59f" y="225.225"/>
      </g>
     </g>
     <g id="line2d_28">
      <g>
       <use style="stroke:#000000;stroke-width:0.5;" x="1371.825" xlink:href="#mce6296d1f4" y="225.225"/>
      </g>
     </g>
     <g id="text_14">
      <!-- 5 -->
      <g transform="translate(135.2 233.503125)scale(0.3 -0.3)">
       <use xlink:href="#BitstreamVeraSans-Roman-35"/>
      </g>
     </g>
    </g>
    <g id="ytick_8">
     <g id="line2d_29">
      <g>
       <use style="stroke:#000000;stroke-width:0.5;" x="158.2875" xlink:href="#m6bae62e59f" y="138.2625"/>
      </g>
     </g>
     <g id="line2d_30">
      <g>
       <use style="stroke:#000000;stroke-width:0.5;" x="1371.825" xlink:href="#mce6296d1f4" y="138.2625"/>
      </g>
     </g>
     <g id="text_15">
      <!-- 10 -->
      <g transform="translate(116.1125 146.540625)scale(0.3 -0.3)">
       <use xlink:href="#BitstreamVeraSans-Roman-31"/>
       <use x="63.623046875" xlink:href="#BitstreamVeraSans-Roman-30"/>
      </g>
     </g>
    </g>
    <g id="ytick_9">
     <g id="line2d_31">
      <g>
       <use style="stroke:#000000;stroke-width:0.5;" x="158.2875" xlink:href="#m6bae62e59f" y="51.3"/>
      </g>
     </g>
     <g id="line2d_32">
      <g>
       <use style="stroke:#000000;stroke-width:0.5;" x="1371.825" xlink:href="#mce6296d1f4" y="51.3"/>
      </g>
     </g>
     <g id="text_16">
      <!-- 15 -->
      <g transform="translate(116.1125 59.578125)scale(0.3 -0.3)">
       <use xlink:href="#BitstreamVeraSans-Roman-31"/>
       <use x="63.623046875" xlink:href="#BitstreamVeraSans-Roman-35"/>
      </g>
     </g>
    </g>
    <g id="text_17">
     <!-- log(loss) -->
     <defs>
      <path d="M 8.015625 75.875 
L 15.828125 75.875 
Q 23.140625 64.359375 26.78125 53.3125 
Q 30.421875 42.28125 30.421875 31.390625 
Q 30.421875 20.453125 26.78125 9.375 
Q 23.140625 -1.703125 15.828125 -13.1875 
L 8.015625 -13.1875 
Q 14.5 -2 17.703125 9.0625 
Q 20.90625 20.125 20.90625 31.390625 
Q 20.90625 42.671875 17.703125 53.65625 
Q 14.5 64.65625 8.015625 75.875 
" id="BitstreamVeraSans-Roman-29"/>
      <path d="M 31 75.875 
Q 24.46875 64.65625 21.28125 53.65625 
Q 18.109375 42.671875 18.109375 31.390625 
Q 18.109375 20.125 21.3125 9.0625 
Q 24.515625 -2 31 -13.1875 
L 23.1875 -13.1875 
Q 15.875 -1.703125 12.234375 9.375 
Q 8.59375 20.453125 8.59375 31.390625 
Q 8.59375 42.28125 12.203125 53.3125 
Q 15.828125 64.359375 23.1875 75.875 
z
" id="BitstreamVeraSans-Roman-28"/>
      <path d="M 45.40625 27.984375 
Q 45.40625 37.75 41.375 43.109375 
Q 37.359375 48.484375 30.078125 48.484375 
Q 22.859375 48.484375 18.828125 43.109375 
Q 14.796875 37.75 14.796875 27.984375 
Q 14.796875 18.265625 18.828125 12.890625 
Q 22.859375 7.515625 30.078125 7.515625 
Q 37.359375 7.515625 41.375 12.890625 
Q 45.40625 18.265625 45.40625 27.984375 
M 54.390625 6.78125 
Q 54.390625 -7.171875 48.1875 -13.984375 
Q 42 -20.796875 29.203125 -20.796875 
Q 24.46875 -20.796875 20.265625 -20.09375 
Q 16.0625 -19.390625 12.109375 -17.921875 
L 12.109375 -9.1875 
Q 16.0625 -11.328125 19.921875 -12.34375 
Q 23.78125 -13.375 27.78125 -13.375 
Q 36.625 -13.375 41.015625 -8.765625 
Q 45.40625 -4.15625 45.40625 5.171875 
L 45.40625 9.625 
Q 42.625 4.78125 38.28125 2.390625 
Q 33.9375 0 27.875 0 
Q 17.828125 0 11.671875 7.65625 
Q 5.515625 15.328125 5.515625 27.984375 
Q 5.515625 40.671875 11.671875 48.328125 
Q 17.828125 56 27.875 56 
Q 33.9375 56 38.28125 53.609375 
Q 42.625 51.21875 45.40625 46.390625 
L 45.40625 54.6875 
L 54.390625 54.6875 
z
" id="BitstreamVeraSans-Roman-67"/>
      <path d="M 9.421875 75.984375 
L 18.40625 75.984375 
L 18.40625 0 
L 9.421875 0 
z
" id="BitstreamVeraSans-Roman-6c"/>
     </defs>
     <g transform="translate(79.734375 462.69609375)rotate(-90.0)scale(0.3 -0.3)">
      <use xlink:href="#BitstreamVeraSans-Roman-6c"/>
      <use x="27.783203125" xlink:href="#BitstreamVeraSans-Roman-6f"/>
      <use x="88.96484375" xlink:href="#BitstreamVeraSans-Roman-67"/>
      <use x="152.44140625" xlink:href="#BitstreamVeraSans-Roman-28"/>
      <use x="191.455078125" xlink:href="#BitstreamVeraSans-Roman-6c"/>
      <use x="219.23828125" xlink:href="#BitstreamVeraSans-Roman-6f"/>
      <use x="280.419921875" xlink:href="#BitstreamVeraSans-Roman-73"/>
      <use x="332.51953125" xlink:href="#BitstreamVeraSans-Roman-73"/>
      <use x="384.619140625" xlink:href="#BitstreamVeraSans-Roman-29"/>
     </g>
    </g>
   </g>
   <g id="legend_1">
    <g id="patch_7">
     <path d="M 879.651562 163.36875 
L 1356.825 163.36875 
L 1356.825 66.3 
L 879.651562 66.3 
z
" style="fill:#ffffff;stroke:#000000;stroke-linejoin:miter;"/>
    </g>
    <g id="line2d_33">
     <path d="M 900.651562 90.595312 
L 942.651562 90.595312 
" style="fill:none;stroke:#0000ff;stroke-linecap:square;stroke-width:2.0;"/>
    </g>
    <g id="line2d_34"/>
    <g id="text_18">
     <!-- random: step=0.000620 -->
     <defs>
      <path id="BitstreamVeraSans-Roman-20"/>
      <path d="M 33.015625 40.375 
Q 26.375 40.375 22.484375 35.828125 
Q 18.609375 31.296875 18.609375 23.390625 
Q 18.609375 15.53125 22.484375 10.953125 
Q 26.375 6.390625 33.015625 6.390625 
Q 39.65625 6.390625 43.53125 10.953125 
Q 47.40625 15.53125 47.40625 23.390625 
Q 47.40625 31.296875 43.53125 35.828125 
Q 39.65625 40.375 33.015625 40.375 
M 52.59375 71.296875 
L 52.59375 62.3125 
Q 48.875 64.0625 45.09375 64.984375 
Q 41.3125 65.921875 37.59375 65.921875 
Q 27.828125 65.921875 22.671875 59.328125 
Q 17.53125 52.734375 16.796875 39.40625 
Q 19.671875 43.65625 24.015625 45.921875 
Q 28.375 48.1875 33.59375 48.1875 
Q 44.578125 48.1875 50.953125 41.515625 
Q 57.328125 34.859375 57.328125 23.390625 
Q 57.328125 12.15625 50.6875 5.359375 
Q 44.046875 -1.421875 33.015625 -1.421875 
Q 20.359375 -1.421875 13.671875 8.265625 
Q 6.984375 17.96875 6.984375 36.375 
Q 6.984375 53.65625 15.1875 63.9375 
Q 23.390625 74.21875 37.203125 74.21875 
Q 40.921875 74.21875 44.703125 73.484375 
Q 48.484375 72.75 52.59375 71.296875 
" id="BitstreamVeraSans-Roman-36"/>
      <path d="M 52 44.1875 
Q 55.375 50.25 60.0625 53.125 
Q 64.75 56 71.09375 56 
Q 79.640625 56 84.28125 50.015625 
Q 88.921875 44.046875 88.921875 33.015625 
L 88.921875 0 
L 79.890625 0 
L 79.890625 32.71875 
Q 79.890625 40.578125 77.09375 44.375 
Q 74.3125 48.1875 68.609375 48.1875 
Q 61.625 48.1875 57.5625 43.546875 
Q 53.515625 38.921875 53.515625 30.90625 
L 53.515625 0 
L 44.484375 0 
L 44.484375 32.71875 
Q 44.484375 40.625 41.703125 44.40625 
Q 38.921875 48.1875 33.109375 48.1875 
Q 26.21875 48.1875 22.15625 43.53125 
Q 18.109375 38.875 18.109375 30.90625 
L 18.109375 0 
L 9.078125 0 
L 9.078125 54.6875 
L 18.109375 54.6875 
L 18.109375 46.1875 
Q 21.1875 51.21875 25.484375 53.609375 
Q 29.78125 56 35.6875 56 
Q 41.65625 56 45.828125 52.96875 
Q 50 49.953125 52 44.1875 
" id="BitstreamVeraSans-Roman-6d"/>
      <path d="M 11.71875 12.40625 
L 22.015625 12.40625 
L 22.015625 0 
L 11.71875 0 
z
M 11.71875 51.703125 
L 22.015625 51.703125 
L 22.015625 39.3125 
L 11.71875 39.3125 
z
" id="BitstreamVeraSans-Roman-3a"/>
      <path d="M 10.6875 12.40625 
L 21 12.40625 
L 21 0 
L 10.6875 0 
z
" id="BitstreamVeraSans-Roman-2e"/>
      <path d="M 10.59375 45.40625 
L 73.1875 45.40625 
L 73.1875 37.203125 
L 10.59375 37.203125 
z
M 10.59375 25.484375 
L 73.1875 25.484375 
L 73.1875 17.1875 
L 10.59375 17.1875 
z
" id="BitstreamVeraSans-Roman-3d"/>
      <path d="M 45.40625 46.390625 
L 45.40625 75.984375 
L 54.390625 75.984375 
L 54.390625 0 
L 45.40625 0 
L 45.40625 8.203125 
Q 42.578125 3.328125 38.25 0.953125 
Q 33.9375 -1.421875 27.875 -1.421875 
Q 17.96875 -1.421875 11.734375 6.484375 
Q 5.515625 14.40625 5.515625 27.296875 
Q 5.515625 40.1875 11.734375 48.09375 
Q 17.96875 56 27.875 56 
Q 33.9375 56 38.25 53.625 
Q 42.578125 51.265625 45.40625 46.390625 
M 14.796875 27.296875 
Q 14.796875 17.390625 18.875 11.75 
Q 22.953125 6.109375 30.078125 6.109375 
Q 37.203125 6.109375 41.296875 11.75 
Q 45.40625 17.390625 45.40625 27.296875 
Q 45.40625 37.203125 41.296875 42.84375 
Q 37.203125 48.484375 30.078125 48.484375 
Q 22.953125 48.484375 18.875 42.84375 
Q 14.796875 37.203125 14.796875 27.296875 
" id="BitstreamVeraSans-Roman-64"/>
      <path d="M 18.109375 8.203125 
L 18.109375 -20.796875 
L 9.078125 -20.796875 
L 9.078125 54.6875 
L 18.109375 54.6875 
L 18.109375 46.390625 
Q 20.953125 51.265625 25.265625 53.625 
Q 29.59375 56 35.59375 56 
Q 45.5625 56 51.78125 48.09375 
Q 58.015625 40.1875 58.015625 27.296875 
Q 58.015625 14.40625 51.78125 6.484375 
Q 45.5625 -1.421875 35.59375 -1.421875 
Q 29.59375 -1.421875 25.265625 0.953125 
Q 20.953125 3.328125 18.109375 8.203125 
M 48.6875 27.296875 
Q 48.6875 37.203125 44.609375 42.84375 
Q 40.53125 48.484375 33.40625 48.484375 
Q 26.265625 48.484375 22.1875 42.84375 
Q 18.109375 37.203125 18.109375 27.296875 
Q 18.109375 17.390625 22.1875 11.75 
Q 26.265625 6.109375 33.40625 6.109375 
Q 40.53125 6.109375 44.609375 11.75 
Q 48.6875 17.390625 48.6875 27.296875 
" id="BitstreamVeraSans-Roman-70"/>
     </defs>
     <g transform="translate(975.6515625 101.0953125)scale(0.3 -0.3)">
      <use xlink:href="#BitstreamVeraSans-Roman-72"/>
      <use x="41.11328125" xlink:href="#BitstreamVeraSans-Roman-61"/>
      <use x="102.392578125" xlink:href="#BitstreamVeraSans-Roman-6e"/>
      <use x="165.771484375" xlink:href="#BitstreamVeraSans-Roman-64"/>
      <use x="229.248046875" xlink:href="#BitstreamVeraSans-Roman-6f"/>
      <use x="290.4296875" xlink:href="#BitstreamVeraSans-Roman-6d"/>
      <use x="387.841796875" xlink:href="#BitstreamVeraSans-Roman-3a"/>
      <use x="421.533203125" xlink:href="#BitstreamVeraSans-Roman-20"/>
      <use x="453.3203125" xlink:href="#BitstreamVeraSans-Roman-73"/>
      <use x="505.419921875" xlink:href="#BitstreamVeraSans-Roman-74"/>
      <use x="544.62890625" xlink:href="#BitstreamVeraSans-Roman-65"/>
      <use x="606.15234375" xlink:href="#BitstreamVeraSans-Roman-70"/>
      <use x="669.62890625" xlink:href="#BitstreamVeraSans-Roman-3d"/>
      <use x="753.41796875" xlink:href="#BitstreamVeraSans-Roman-30"/>
      <use x="817.041015625" xlink:href="#BitstreamVeraSans-Roman-2e"/>
      <use x="848.828125" xlink:href="#BitstreamVeraSans-Roman-30"/>
      <use x="912.451171875" xlink:href="#BitstreamVeraSans-Roman-30"/>
      <use x="976.07421875" xlink:href="#BitstreamVeraSans-Roman-30"/>
      <use x="1039.69726562" xlink:href="#BitstreamVeraSans-Roman-36"/>
      <use x="1103.3203125" xlink:href="#BitstreamVeraSans-Roman-32"/>
      <use x="1166.94335938" xlink:href="#BitstreamVeraSans-Roman-30"/>
     </g>
    </g>
    <g id="line2d_35">
     <path d="M 900.651562 134.629687 
L 942.651562 134.629687 
" style="fill:none;stroke:#008000;stroke-linecap:square;stroke-width:2.0;"/>
    </g>
    <g id="line2d_36"/>
    <g id="text_19">
     <!-- corr: step=0.000620 -->
     <defs>
      <path d="M 48.78125 52.59375 
L 48.78125 44.1875 
Q 44.96875 46.296875 41.140625 47.34375 
Q 37.3125 48.390625 33.40625 48.390625 
Q 24.65625 48.390625 19.8125 42.84375 
Q 14.984375 37.3125 14.984375 27.296875 
Q 14.984375 17.28125 19.8125 11.734375 
Q 24.65625 6.203125 33.40625 6.203125 
Q 37.3125 6.203125 41.140625 7.25 
Q 44.96875 8.296875 48.78125 10.40625 
L 48.78125 2.09375 
Q 45.015625 0.34375 40.984375 -0.53125 
Q 36.96875 -1.421875 32.421875 -1.421875 
Q 20.0625 -1.421875 12.78125 6.34375 
Q 5.515625 14.109375 5.515625 27.296875 
Q 5.515625 40.671875 12.859375 48.328125 
Q 20.21875 56 33.015625 56 
Q 37.15625 56 41.109375 55.140625 
Q 45.0625 54.296875 48.78125 52.59375 
" id="BitstreamVeraSans-Roman-63"/>
     </defs>
     <g transform="translate(975.6515625 145.1296875)scale(0.3 -0.3)">
      <use xlink:href="#BitstreamVeraSans-Roman-63"/>
      <use x="54.98046875" xlink:href="#BitstreamVeraSans-Roman-6f"/>
      <use x="116.162109375" xlink:href="#BitstreamVeraSans-Roman-72"/>
      <use x="157.259765625" xlink:href="#BitstreamVeraSans-Roman-72"/>
      <use x="198.357421875" xlink:href="#BitstreamVeraSans-Roman-3a"/>
      <use x="232.048828125" xlink:href="#BitstreamVeraSans-Roman-20"/>
      <use x="263.8359375" xlink:href="#BitstreamVeraSans-Roman-73"/>
      <use x="315.935546875" xlink:href="#BitstreamVeraSans-Roman-74"/>
      <use x="355.14453125" xlink:href="#BitstreamVeraSans-Roman-65"/>
      <use x="416.66796875" xlink:href="#BitstreamVeraSans-Roman-70"/>
      <use x="480.14453125" xlink:href="#BitstreamVeraSans-Roman-3d"/>
      <use x="563.93359375" xlink:href="#BitstreamVeraSans-Roman-30"/>
      <use x="627.556640625" xlink:href="#BitstreamVeraSans-Roman-2e"/>
      <use x="659.34375" xlink:href="#BitstreamVeraSans-Roman-30"/>
      <use x="722.966796875" xlink:href="#BitstreamVeraSans-Roman-30"/>
      <use x="786.58984375" xlink:href="#BitstreamVeraSans-Roman-30"/>
      <use x="850.212890625" xlink:href="#BitstreamVeraSans-Roman-36"/>
      <use x="913.8359375" xlink:href="#BitstreamVeraSans-Roman-32"/>
      <use x="977.458984375" xlink:href="#BitstreamVeraSans-Roman-30"/>
     </g>
    </g>
   </g>
  </g>
 </g>
 <defs>
  <clipPath id="p6635e1435a">
   <rect height="695.7" width="1213.5375" x="158.2875" y="51.3"/>
  </clipPath>
 </defs>
</svg>
