<?xml version="1.0" encoding="utf-8" standalone="no"?>
<!DOCTYPE svg PUBLIC "-//W3C//DTD SVG 1.1//EN"
  "http://www.w3.org/Graphics/SVG/1.1/DTD/svg11.dtd">
<!-- Created with matplotlib (http://matplotlib.org/) -->
<svg height="864pt" version="1.1" viewBox="0 0 1440 864" width="1440pt" xmlns="http://www.w3.org/2000/svg" xmlns:xlink="http://www.w3.org/1999/xlink">
 <defs>
  <style type="text/css">
*{stroke-linecap:butt;stroke-linejoin:round;stroke-miterlimit:100000;}
  </style>
 </defs>
 <g id="figure_1">
  <g id="patch_1">
   <path d="M 0 864 
L 1440 864 
L 1440 0 
L 0 0 
z
" style="fill:#ffffff;"/>
  </g>
  <g id="axes_1">
   <g id="patch_2">
    <path d="M 127.0125 747 
L 1371.825 747 
L 1371.825 51.3 
L 127.0125 51.3 
z
" style="fill:#ffffff;"/>
   </g>
   <g id="line2d_1">
    <path clip-path="url(#p26a35da55d)" d="M 127.0125 86.557109 
L 129.502125 98.998158 
L 131.99175 107.506594 
L 134.481375 116.693949 
L 136.971 119.139422 
L 139.460625 124.484989 
L 144.439875 139.270443 
L 146.9295 145.371244 
L 149.419125 152.629039 
L 151.90875 159.007712 
L 154.398375 160.443063 
L 156.888 163.132873 
L 159.377625 162.302896 
L 161.86725 167.132523 
L 164.356875 170.964375 
L 166.8465 177.454901 
L 169.336125 180.524524 
L 171.82575 185.988405 
L 174.315375 189.418413 
L 176.805 200.55058 
L 179.294625 207.455451 
L 181.78425 209.860035 
L 184.273875 217.48954 
L 186.7635 221.810283 
L 189.253125 223.513116 
L 194.232375 237.850397 
L 196.722 243.498264 
L 199.211625 243.014354 
L 201.70125 249.575858 
L 204.190875 250.491545 
L 206.6805 253.854157 
L 211.65975 262.190295 
L 214.149375 269.467316 
L 216.639 275.958983 
L 219.128625 274.941003 
L 224.107875 293.549597 
L 226.5975 294.683405 
L 229.087125 303.224014 
L 231.57675 301.657249 
L 234.066375 310.997523 
L 236.556 312.411649 
L 239.045625 312.948721 
L 241.53525 316.452149 
L 244.024875 316.184447 
L 246.5145 321.923719 
L 249.004125 321.150464 
L 251.49375 322.294932 
L 253.983375 324.561958 
L 256.473 312.546914 
L 258.962625 325.60083 
L 261.45225 322.380006 
L 263.941875 317.844842 
L 266.4315 323.539221 
L 268.921125 308.275691 
L 271.41075 337.16281 
L 273.900375 331.638659 
L 276.39 334.109286 
L 278.879625 334.269603 
L 281.36925 341.271461 
L 283.858875 349.139888 
L 286.3485 350.0576 
L 288.838125 353.46543 
L 291.32775 359.523007 
L 293.817375 353.942697 
L 296.307 347.326632 
L 301.28625 352.524932 
L 303.775875 358.102995 
L 306.2655 358.502001 
L 308.755125 360.243763 
L 311.24475 357.515497 
L 313.734375 357.70377 
L 316.224 361.829588 
L 318.713625 371.500182 
L 321.20325 365.883896 
L 323.692875 367.759494 
L 326.1825 375.642536 
L 328.672125 376.242666 
L 331.16175 383.243181 
L 333.651375 386.455649 
L 336.141 386.270929 
L 338.630625 389.155922 
L 341.12025 396.636266 
L 343.609875 405.038736 
L 346.0995 405.060208 
L 348.589125 404.859877 
L 351.07875 405.066524 
L 353.568375 410.304726 
L 356.058 412.73713 
L 358.547625 414.816443 
L 361.03725 419.561661 
L 363.526875 418.976811 
L 366.0165 425.709628 
L 370.99575 439.981196 
L 373.485375 442.942463 
L 375.975 450.609378 
L 378.464625 449.610016 
L 380.95425 451.04944 
L 383.443875 457.052427 
L 385.9335 459.320246 
L 388.423125 462.212862 
L 390.91275 456.937437 
L 393.402375 457.334854 
L 395.892 461.913814 
L 398.381625 463.285002 
L 400.87125 461.95099 
L 403.360875 446.524828 
L 405.8505 449.299259 
L 408.340125 459.538409 
L 410.82975 464.650996 
L 413.319375 466.446104 
L 415.809 465.592006 
L 418.298625 469.461398 
L 420.78825 471.579501 
L 423.277875 471.293785 
L 425.7675 469.529867 
L 428.257125 476.750036 
L 430.74675 472.002901 
L 433.236375 467.748842 
L 435.726 470.370604 
L 438.215625 471.933914 
L 440.70525 470.914701 
L 443.194875 467.171422 
L 445.6845 462.337046 
L 448.174125 465.431567 
L 450.66375 463.66179 
L 453.153375 467.492645 
L 455.643 460.944216 
L 458.132625 464.062739 
L 460.62225 465.121796 
L 463.111875 465.973434 
L 465.6015 467.309791 
L 468.091125 465.522641 
L 470.58075 468.674394 
L 473.070375 468.799055 
L 475.56 473.843951 
L 478.049625 473.57939 
L 480.53925 476.81972 
L 483.028875 477.282765 
L 485.5185 473.504034 
L 488.008125 478.235686 
L 490.49775 483.696104 
L 492.987375 481.175333 
L 495.477 479.101779 
L 497.966625 479.797524 
L 500.45625 477.854783 
L 502.945875 480.678545 
L 505.4355 481.132415 
L 507.925125 478.065169 
L 510.41475 474.126426 
L 512.904375 475.905866 
L 515.394 476.183515 
L 517.883625 480.421043 
L 520.37325 484.371739 
L 522.862875 482.056853 
L 525.3525 482.135469 
L 527.842125 487.667012 
L 530.33175 491.545418 
L 532.821375 496.85958 
L 535.311 501.847872 
L 537.800625 503.320195 
L 540.29025 509.062781 
L 542.779875 513.583503 
L 545.2695 512.399781 
L 547.759125 517.687688 
L 550.24875 525.312464 
L 552.738375 523.995982 
L 555.228 526.331917 
L 557.717625 529.158509 
L 560.20725 530.828765 
L 562.696875 530.076817 
L 565.1865 527.187526 
L 567.676125 528.325645 
L 570.16575 525.128979 
L 572.655375 526.472226 
L 575.145 531.258263 
L 577.634625 531.668343 
L 580.12425 532.897632 
L 582.613875 535.803031 
L 585.1035 540.615178 
L 587.593125 539.057279 
L 590.08275 540.948547 
L 592.572375 545.894867 
L 595.062 537.96608 
L 597.551625 536.480124 
L 600.04125 537.751617 
L 602.530875 541.904909 
L 605.0205 542.013339 
L 607.510125 546.2128 
L 609.99975 548.329643 
L 612.489375 547.509199 
L 614.979 547.290584 
L 617.468625 549.191215 
L 619.95825 548.564875 
L 622.447875 550.86709 
L 624.9375 547.692542 
L 627.427125 551.214381 
L 629.91675 552.215936 
L 632.406375 549.735783 
L 634.896 548.99931 
L 637.385625 550.563084 
L 639.87525 543.123957 
L 642.364875 540.94644 
L 644.8545 525.233706 
L 647.344125 550.116032 
L 649.83375 559.001502 
L 652.323375 561.973911 
L 654.813 561.371026 
L 657.302625 561.794782 
L 659.79225 549.792802 
L 662.281875 549.037722 
L 664.7715 548.05725 
L 667.261125 559.4575 
L 669.75075 559.027106 
L 672.240375 564.082323 
L 674.73 564.530787 
L 677.219625 564.650987 
L 679.70925 568.430348 
L 682.198875 570.893622 
L 684.6885 569.945882 
L 687.178125 568.627055 
L 689.66775 569.851222 
L 692.157375 566.094748 
L 694.647 568.014782 
L 697.136625 570.639358 
L 699.62625 570.375659 
L 702.115875 565.402043 
L 704.6055 576.478864 
L 707.095125 578.447172 
L 709.58475 578.595542 
L 712.074375 575.355204 
L 714.564 570.424333 
L 717.053625 570.117686 
L 719.54325 567.691379 
L 722.032875 565.488115 
L 724.5225 566.572734 
L 727.012125 567.32546 
L 729.50175 562.210796 
L 734.481 574.199544 
L 736.970625 573.403525 
L 739.46025 556.80699 
L 741.949875 558.974195 
L 744.4395 559.796981 
L 746.929125 563.450308 
L 749.41875 561.602053 
L 751.908375 554.511713 
L 754.398 564.749323 
L 756.887625 565.857789 
L 759.37725 577.845339 
L 761.866875 579.029805 
L 764.3565 557.332666 
L 766.846125 568.10946 
L 769.33575 571.396029 
L 771.825375 571.297456 
L 774.315 554.308344 
L 776.804625 549.6699 
L 779.29425 551.537794 
L 781.783875 554.188263 
L 784.2735 555.375977 
L 786.763125 558.894138 
L 789.25275 564.322844 
L 791.742375 559.570743 
L 794.232 563.187198 
L 799.21125 573.027553 
L 801.700875 572.346123 
L 804.1905 575.528246 
L 809.16975 584.447416 
L 811.659375 589.104878 
L 814.149 577.413661 
L 816.638625 578.137173 
L 819.12825 579.035077 
L 821.617875 578.449476 
L 824.1075 579.609336 
L 829.08675 581.449442 
L 831.576375 577.405254 
L 834.066 585.788992 
L 836.555625 590.818992 
L 839.04525 591.399966 
L 841.534875 595.037872 
L 844.0245 595.772759 
L 846.514125 595.200384 
L 849.00375 591.007043 
L 851.493375 597.031819 
L 853.983 601.347089 
L 858.96225 603.500451 
L 861.451875 603.430181 
L 863.9415 605.559176 
L 866.431125 606.849806 
L 868.92075 594.796332 
L 871.410375 603.375 
L 873.9 604.837203 
L 876.389625 603.644283 
L 878.87925 600.596621 
L 883.8585 603.5354 
L 886.348125 598.315753 
L 888.83775 595.879918 
L 891.327375 594.974777 
L 893.817 598.573646 
L 896.306625 601.88416 
L 898.79625 602.587515 
L 901.285875 607.231918 
L 903.7755 605.819869 
L 906.265125 606.635894 
L 911.244375 616.098727 
L 913.734 614.194432 
L 916.223625 615.096174 
L 918.71325 615.530048 
L 921.202875 614.82109 
L 923.6925 612.592091 
L 926.182125 606.016345 
L 928.67175 606.742462 
L 931.161375 609.428875 
L 933.651 618.053753 
L 936.140625 619.252979 
L 938.63025 617.10043 
L 941.119875 616.959658 
L 943.6095 614.464408 
L 946.099125 618.125601 
L 948.58875 623.019787 
L 951.078375 626.187216 
L 953.568 630.68841 
L 956.057625 627.500931 
L 958.54725 628.442519 
L 961.036875 629.633853 
L 966.016125 633.044602 
L 968.50575 637.393946 
L 970.995375 636.959952 
L 973.485 638.535713 
L 975.974625 637.176671 
L 978.46425 639.484684 
L 980.953875 640.119209 
L 983.4435 643.318991 
L 985.933125 641.9048 
L 988.42275 644.049005 
L 990.912375 642.651702 
L 993.402 640.114082 
L 995.891625 638.594955 
L 998.38125 639.798675 
L 1000.870875 646.340384 
L 1005.850125 643.628462 
L 1008.33975 645.63018 
L 1010.829375 644.467999 
L 1013.319 643.00728 
L 1015.808625 641.687437 
L 1018.29825 636.118032 
L 1020.787875 635.405019 
L 1023.2775 635.140871 
L 1025.767125 635.849166 
L 1028.25675 635.061364 
L 1030.746375 631.867297 
L 1033.236 633.205813 
L 1035.725625 632.964877 
L 1038.21525 631.949475 
L 1040.704875 629.01013 
L 1045.684125 638.546466 
L 1048.17375 638.222464 
L 1050.663375 634.911871 
L 1053.153 642.474949 
L 1055.642625 647.415209 
L 1058.13225 650.56166 
L 1060.621875 650.087239 
L 1063.1115 650.898592 
L 1065.601125 646.857364 
L 1068.09075 650.257598 
L 1070.580375 634.537729 
L 1073.07 633.732625 
L 1075.559625 632.455568 
L 1078.04925 637.007999 
L 1080.538875 635.075982 
L 1083.0285 635.962428 
L 1085.518125 637.480907 
L 1088.00775 637.343914 
L 1090.497375 632.557393 
L 1092.987 633.088365 
L 1095.476625 636.391026 
L 1097.96625 642.24818 
L 1100.455875 645.615523 
L 1102.9455 652.412294 
L 1105.435125 655.363987 
L 1107.92475 658.123087 
L 1110.414375 662.46749 
L 1112.904 664.625189 
L 1115.393625 667.535593 
L 1117.88325 634.625645 
L 1120.372875 634.250676 
L 1125.352125 634.029961 
L 1127.84175 639.45955 
L 1130.331375 643.205095 
L 1132.821 651.531867 
L 1135.310625 654.155074 
L 1137.80025 656.943766 
L 1140.289875 654.373292 
L 1142.7795 657.983474 
L 1145.269125 655.791303 
L 1147.75875 654.120332 
L 1150.248375 655.318633 
L 1152.738 658.895927 
L 1155.227625 658.505651 
L 1157.71725 657.719845 
L 1160.206875 655.620234 
L 1162.6965 657.317183 
L 1165.186125 654.699572 
L 1167.67575 656.620028 
L 1170.165375 650.080271 
L 1172.655 650.164571 
L 1175.144625 647.266264 
L 1177.63425 643.036096 
L 1180.123875 643.465435 
L 1182.6135 642.158577 
L 1185.103125 643.662249 
L 1187.59275 636.64018 
L 1190.082375 641.249373 
L 1192.572 645.498345 
L 1195.061625 646.637523 
L 1197.55125 646.203852 
L 1200.040875 646.059119 
L 1202.5305 649.843274 
L 1205.020125 654.545043 
L 1207.50975 654.775223 
L 1209.999375 654.562147 
L 1212.489 654.520947 
L 1214.978625 657.153824 
L 1217.46825 662.187638 
L 1219.957875 663.229137 
L 1222.4475 660.948984 
L 1224.937125 651.111645 
L 1227.42675 655.450833 
L 1229.916375 655.423281 
L 1234.895625 660.801167 
L 1237.38525 661.40164 
L 1239.874875 657.609164 
L 1242.3645 657.604715 
L 1244.854125 657.122774 
L 1247.34375 663.857334 
L 1249.833375 664.311948 
L 1252.323 657.635254 
L 1254.812625 661.905716 
L 1257.30225 664.184945 
L 1259.791875 665.784708 
L 1262.2815 671.213796 
L 1264.771125 674.505141 
L 1267.26075 671.948532 
L 1269.750375 673.319827 
L 1272.24 677.036899 
L 1274.729625 673.919573 
L 1277.21925 679.87546 
L 1279.708875 681.158915 
L 1282.1985 685.167034 
L 1284.688125 687.056233 
L 1287.17775 683.116658 
L 1289.667375 674.669488 
L 1292.157 676.898012 
L 1294.646625 669.822264 
L 1297.13625 668.531871 
L 1299.625875 668.732736 
L 1302.1155 676.366299 
L 1304.605125 679.742505 
L 1307.09475 675.431627 
L 1309.584375 688.314135 
L 1312.074 686.653514 
L 1314.563625 687.206987 
L 1317.05325 684.94297 
L 1319.542875 683.29936 
L 1322.0325 680.045109 
L 1324.522125 679.37569 
L 1327.01175 679.006059 
L 1329.501375 682.300915 
L 1331.991 681.857864 
L 1334.480625 686.312774 
L 1336.97025 691.982772 
L 1339.459875 686.764559 
L 1341.9495 674.461105 
L 1344.439125 672.161024 
L 1346.92875 681.7084 
L 1349.418375 682.532822 
L 1351.908 682.541953 
L 1354.397625 683.130883 
L 1356.88725 680.262969 
L 1359.376875 684.94611 
L 1361.8665 683.784599 
L 1364.356125 685.947858 
L 1366.84575 689.664577 
L 1369.335375 692.956962 
L 1369.335375 692.956962 
" style="fill:none;stroke:#0000ff;stroke-linecap:square;stroke-width:2.0;"/>
   </g>
   <g id="line2d_2">
    <path clip-path="url(#p26a35da55d)" d="M 127.0125 90.456794 
L 129.502125 97.909717 
L 131.99175 104.053624 
L 134.481375 108.546949 
L 139.460625 122.708994 
L 141.95025 124.724678 
L 144.439875 129.372797 
L 146.9295 141.732075 
L 149.419125 146.268858 
L 151.90875 160.677632 
L 154.398375 161.554427 
L 156.888 164.501157 
L 159.377625 173.028873 
L 161.86725 173.698068 
L 164.356875 182.02572 
L 166.8465 184.38187 
L 169.336125 185.076578 
L 171.82575 190.227968 
L 174.315375 196.96542 
L 176.805 206.826414 
L 179.294625 206.666133 
L 181.78425 211.270131 
L 184.273875 212.629329 
L 186.7635 216.795277 
L 189.253125 224.371883 
L 191.74275 227.770749 
L 194.232375 230.606476 
L 196.722 241.601523 
L 199.211625 247.719242 
L 201.70125 251.630095 
L 204.190875 256.019367 
L 206.6805 259.889041 
L 209.170125 266.672953 
L 211.65975 264.658762 
L 214.149375 270.803697 
L 216.639 273.129979 
L 219.128625 271.725028 
L 221.61825 272.708933 
L 226.5975 283.052929 
L 229.087125 289.763127 
L 231.57675 288.787343 
L 234.066375 289.269186 
L 236.556 289.931502 
L 239.045625 299.275976 
L 241.53525 300.595317 
L 244.024875 302.899098 
L 246.5145 309.879575 
L 249.004125 314.798145 
L 251.49375 316.199395 
L 253.983375 314.956499 
L 256.473 321.199007 
L 258.962625 322.186231 
L 261.45225 328.21913 
L 263.941875 330.026062 
L 266.4315 325.859763 
L 268.921125 319.467225 
L 271.41075 323.619314 
L 273.900375 327.385039 
L 276.39 329.293323 
L 278.879625 332.94938 
L 281.36925 334.386317 
L 283.858875 338.029704 
L 286.3485 337.47265 
L 288.838125 343.755493 
L 291.32775 341.190298 
L 293.817375 340.223331 
L 296.307 340.041551 
L 298.796625 340.176591 
L 301.28625 337.863854 
L 303.775875 342.118643 
L 306.2655 341.538053 
L 308.755125 343.868163 
L 313.734375 354.197453 
L 316.224 364.094994 
L 318.713625 365.486846 
L 321.20325 363.946887 
L 323.692875 366.903845 
L 326.1825 367.590178 
L 328.672125 371.728448 
L 331.16175 379.604056 
L 333.651375 381.867621 
L 336.141 386.34526 
L 338.630625 390.430582 
L 341.12025 397.45301 
L 343.609875 400.791225 
L 346.0995 397.584662 
L 348.589125 407.848473 
L 351.07875 406.50126 
L 353.568375 405.707253 
L 356.058 405.410811 
L 358.547625 409.722258 
L 361.03725 409.768025 
L 363.526875 414.700415 
L 366.0165 410.618909 
L 368.506125 409.828141 
L 370.99575 410.252057 
L 373.485375 403.696273 
L 375.975 409.674114 
L 378.464625 412.201928 
L 380.95425 415.761004 
L 383.443875 422.907038 
L 385.9335 426.238733 
L 390.91275 433.63957 
L 393.402375 433.941813 
L 395.892 446.732364 
L 398.381625 421.934043 
L 400.87125 427.564842 
L 403.360875 426.165289 
L 405.8505 418.879503 
L 408.340125 433.362937 
L 410.82975 439.217884 
L 413.319375 457.848278 
L 415.809 462.382265 
L 418.298625 460.589443 
L 420.78825 459.730103 
L 423.277875 452.012754 
L 425.7675 451.930139 
L 428.257125 452.360115 
L 430.74675 451.904876 
L 433.236375 455.155138 
L 435.726 455.64149 
L 438.215625 461.466234 
L 440.70525 456.771797 
L 443.194875 464.206821 
L 445.6845 463.946646 
L 448.174125 473.207881 
L 450.66375 472.17796 
L 453.153375 476.849841 
L 455.643 472.324555 
L 458.132625 472.890249 
L 460.62225 477.897229 
L 463.111875 480.621841 
L 465.6015 477.594067 
L 468.091125 479.734826 
L 470.58075 483.884474 
L 475.56 484.454437 
L 478.049625 487.624459 
L 480.53925 486.391153 
L 483.028875 485.829561 
L 485.5185 484.778614 
L 488.008125 482.279786 
L 490.49775 483.738175 
L 492.987375 486.058794 
L 495.477 476.203833 
L 497.966625 477.507423 
L 500.45625 465.198892 
L 502.945875 470.34412 
L 505.4355 471.866103 
L 507.925125 476.684767 
L 510.41475 479.328158 
L 512.904375 490.367949 
L 515.394 494.040647 
L 517.883625 497.002866 
L 520.37325 500.217146 
L 522.862875 497.299824 
L 525.3525 495.805411 
L 527.842125 501.617137 
L 530.33175 499.791195 
L 532.821375 495.065093 
L 535.311 493.855912 
L 537.800625 495.835694 
L 540.29025 504.36511 
L 542.779875 507.468338 
L 545.2695 507.884244 
L 547.759125 505.928038 
L 550.24875 504.748356 
L 552.738375 509.150925 
L 555.228 512.721159 
L 557.717625 505.206326 
L 560.20725 504.451972 
L 562.696875 505.545346 
L 565.1865 516.780696 
L 567.676125 522.69145 
L 570.16575 520.936092 
L 572.655375 521.082403 
L 575.145 524.314684 
L 577.634625 520.859486 
L 580.12425 527.018782 
L 582.613875 526.674286 
L 585.1035 527.999171 
L 587.593125 528.55268 
L 590.08275 528.0273 
L 592.572375 528.406455 
L 595.062 524.651635 
L 597.551625 530.789285 
L 600.04125 529.536129 
L 602.530875 535.92992 
L 605.0205 538.626425 
L 607.510125 537.434705 
L 609.99975 538.588656 
L 612.489375 541.910822 
L 614.979 544.480201 
L 617.468625 545.572299 
L 619.95825 543.519904 
L 622.447875 538.97286 
L 624.9375 536.675858 
L 627.427125 537.213655 
L 629.91675 536.520745 
L 632.406375 537.214371 
L 634.896 540.277383 
L 637.385625 539.529192 
L 639.87525 542.97376 
L 642.364875 536.436765 
L 644.8545 542.981413 
L 647.344125 540.115598 
L 649.83375 544.272691 
L 652.323375 544.612374 
L 654.813 543.781879 
L 657.302625 544.77869 
L 659.79225 546.950723 
L 662.281875 551.328787 
L 664.7715 540.086566 
L 667.261125 532.629026 
L 669.75075 531.467063 
L 672.240375 532.691682 
L 674.73 546.053983 
L 677.219625 541.613418 
L 679.70925 545.149455 
L 682.198875 541.975325 
L 684.6885 542.352948 
L 687.178125 536.915379 
L 689.66775 540.174396 
L 692.157375 543.954635 
L 694.647 545.286146 
L 699.62625 545.250549 
L 702.115875 544.173675 
L 704.6055 548.378548 
L 707.095125 555.39916 
L 709.58475 556.793797 
L 712.074375 549.006601 
L 714.564 553.895683 
L 717.053625 552.971343 
L 719.54325 549.781999 
L 722.032875 549.686849 
L 724.5225 551.118606 
L 727.012125 550.286823 
L 729.50175 550.618906 
L 731.991375 545.558602 
L 734.481 546.581224 
L 739.46025 558.571114 
L 741.949875 559.987214 
L 744.4395 562.311586 
L 746.929125 565.437517 
L 749.41875 563.958746 
L 751.908375 564.218741 
L 754.398 560.699142 
L 756.887625 553.90359 
L 759.37725 559.866598 
L 761.866875 554.284139 
L 764.3565 558.094299 
L 766.846125 548.571834 
L 769.33575 549.591452 
L 771.825375 553.590238 
L 774.315 558.58558 
L 776.804625 559.603934 
L 779.29425 554.985131 
L 781.783875 559.922987 
L 784.2735 557.449621 
L 786.763125 559.413761 
L 789.25275 560.505996 
L 791.742375 565.545326 
L 794.232 559.453282 
L 796.721625 565.32745 
L 799.21125 565.810306 
L 801.700875 562.325493 
L 804.1905 566.233839 
L 806.680125 565.201802 
L 809.16975 562.541462 
L 811.659375 567.138286 
L 814.149 566.076792 
L 816.638625 559.240897 
L 819.12825 562.515475 
L 821.617875 573.762732 
L 824.1075 580.961252 
L 826.597125 581.607638 
L 829.08675 580.884997 
L 834.066 582.333174 
L 836.555625 582.310105 
L 839.04525 582.828876 
L 841.534875 585.297077 
L 844.0245 587.518641 
L 846.514125 587.132158 
L 849.00375 592.085483 
L 851.493375 593.74546 
L 853.983 591.814192 
L 856.472625 598.772094 
L 858.96225 601.343846 
L 861.451875 603.62769 
L 863.9415 607.126151 
L 868.92075 610.427634 
L 871.410375 610.017786 
L 873.9 609.46974 
L 876.389625 610.108221 
L 878.87925 603.697575 
L 881.368875 605.263235 
L 883.8585 606.68337 
L 886.348125 612.79669 
L 888.83775 610.831417 
L 891.327375 615.354201 
L 893.817 615.67354 
L 896.306625 615.297291 
L 898.79625 613.505513 
L 901.285875 616.022262 
L 903.7755 618.348881 
L 906.265125 613.742163 
L 908.75475 619.138997 
L 911.244375 620.046499 
L 913.734 624.575537 
L 916.223625 627.662508 
L 918.71325 624.687009 
L 921.202875 625.249288 
L 923.6925 631.182652 
L 926.182125 632.264268 
L 928.67175 629.943433 
L 931.161375 627.889872 
L 933.651 626.445864 
L 936.140625 624.140344 
L 938.63025 625.677238 
L 941.119875 617.647954 
L 943.6095 620.265606 
L 946.099125 620.327914 
L 948.58875 623.506393 
L 951.078375 623.007971 
L 953.568 627.096032 
L 956.057625 625.160463 
L 958.54725 620.566695 
L 961.036875 619.41826 
L 963.5265 620.659868 
L 966.016125 619.298227 
L 968.50575 619.603778 
L 970.995375 622.410291 
L 973.485 622.395383 
L 975.974625 628.305785 
L 978.46425 631.135804 
L 980.953875 632.928048 
L 983.4435 617.840067 
L 985.933125 620.4643 
L 988.42275 620.887467 
L 990.912375 624.012043 
L 993.402 627.808606 
L 995.891625 628.525801 
L 998.38125 632.853416 
L 1000.870875 625.78013 
L 1003.3605 616.843221 
L 1005.850125 618.886714 
L 1008.33975 617.953442 
L 1010.829375 614.770997 
L 1013.319 616.513546 
L 1015.808625 622.383148 
L 1018.29825 625.354201 
L 1020.787875 628.072034 
L 1023.2775 633.565837 
L 1025.767125 635.785423 
L 1028.25675 636.644156 
L 1030.746375 640.797913 
L 1033.236 640.042506 
L 1035.725625 635.397725 
L 1038.21525 642.443455 
L 1040.704875 646.526306 
L 1043.1945 648.929825 
L 1045.684125 648.411664 
L 1048.17375 647.431762 
L 1050.663375 654.542614 
L 1053.153 655.30179 
L 1055.642625 654.675633 
L 1058.13225 653.193935 
L 1063.1115 647.76286 
L 1065.601125 649.962908 
L 1068.09075 653.747348 
L 1070.580375 655.386426 
L 1073.07 648.735782 
L 1075.559625 647.92246 
L 1078.04925 645.763257 
L 1080.538875 641.145465 
L 1083.0285 647.344324 
L 1085.518125 646.679352 
L 1088.00775 643.813299 
L 1090.497375 646.128825 
L 1092.987 649.180116 
L 1095.476625 652.524302 
L 1097.96625 659.134852 
L 1100.455875 661.354873 
L 1102.9455 656.279975 
L 1105.435125 659.878395 
L 1107.92475 661.738918 
L 1110.414375 661.356142 
L 1112.904 656.828129 
L 1115.393625 649.50814 
L 1117.88325 655.068827 
L 1120.372875 656.387521 
L 1122.8625 660.672512 
L 1125.352125 661.577833 
L 1127.84175 660.214371 
L 1130.331375 662.138307 
L 1132.821 662.603222 
L 1135.310625 661.141311 
L 1137.80025 670.562626 
L 1140.289875 670.969379 
L 1142.7795 671.743424 
L 1145.269125 672.3573 
L 1147.75875 666.458149 
L 1150.248375 667.727673 
L 1152.738 663.825099 
L 1155.227625 665.664373 
L 1157.71725 665.207438 
L 1160.206875 670.410135 
L 1162.6965 673.036573 
L 1165.186125 671.460589 
L 1167.67575 672.283011 
L 1170.165375 675.291216 
L 1172.655 676.591312 
L 1175.144625 680.678637 
L 1177.63425 670.946982 
L 1180.123875 678.034755 
L 1182.6135 671.912441 
L 1185.103125 673.474924 
L 1187.59275 673.307738 
L 1190.082375 674.000096 
L 1192.572 667.097929 
L 1195.061625 670.458058 
L 1197.55125 664.804987 
L 1200.040875 666.212571 
L 1202.5305 667.454186 
L 1205.020125 664.073161 
L 1207.50975 665.831844 
L 1209.999375 664.458095 
L 1212.489 663.429449 
L 1214.978625 657.703964 
L 1217.46825 663.372456 
L 1219.957875 661.394738 
L 1222.4475 658.46806 
L 1224.937125 662.659237 
L 1227.42675 666.356912 
L 1229.916375 664.627383 
L 1232.406 667.86791 
L 1234.895625 669.108548 
L 1237.38525 673.149375 
L 1239.874875 673.128765 
L 1242.3645 675.525685 
L 1244.854125 680.793993 
L 1247.34375 680.403782 
L 1249.833375 680.659237 
L 1252.323 679.819229 
L 1254.812625 682.123821 
L 1257.30225 680.667401 
L 1259.791875 679.837978 
L 1262.2815 686.237155 
L 1264.771125 687.88663 
L 1267.26075 692.951513 
L 1269.750375 691.969559 
L 1274.729625 691.120466 
L 1277.21925 690.730729 
L 1279.708875 693.655308 
L 1282.1985 692.455652 
L 1284.688125 689.893732 
L 1287.17775 687.170589 
L 1289.667375 685.70578 
L 1292.157 688.656162 
L 1294.646625 685.548827 
L 1297.13625 689.156434 
L 1299.625875 684.760425 
L 1302.1155 679.663326 
L 1304.605125 681.459014 
L 1307.09475 685.584383 
L 1309.584375 688.145613 
L 1312.074 691.126854 
L 1314.563625 695.643238 
L 1317.05325 698.195526 
L 1319.542875 698.332406 
L 1322.0325 701.012455 
L 1324.522125 700.645771 
L 1327.01175 692.149861 
L 1329.501375 690.09901 
L 1331.991 690.493932 
L 1334.480625 678.096956 
L 1336.97025 671.699948 
L 1339.459875 683.856208 
L 1341.9495 689.79716 
L 1344.439125 692.219513 
L 1346.92875 688.622926 
L 1349.418375 688.161012 
L 1351.908 682.723199 
L 1354.397625 688.993693 
L 1356.88725 688.953531 
L 1359.376875 689.394325 
L 1361.8665 690.102165 
L 1364.356125 686.411735 
L 1366.84575 682.516545 
L 1369.335375 684.975406 
L 1369.335375 684.975406 
" style="fill:none;stroke:#008000;stroke-linecap:square;stroke-width:2.0;"/>
   </g>
   <g id="patch_3">
    <path d="M 127.0125 51.3 
L 1371.825 51.3 
" style="fill:none;stroke:#000000;stroke-linecap:square;stroke-linejoin:miter;"/>
   </g>
   <g id="patch_4">
    <path d="M 1371.825 747 
L 1371.825 51.3 
" style="fill:none;stroke:#000000;stroke-linecap:square;stroke-linejoin:miter;"/>
   </g>
   <g id="patch_5">
    <path d="M 127.0125 747 
L 1371.825 747 
" style="fill:none;stroke:#000000;stroke-linecap:square;stroke-linejoin:miter;"/>
   </g>
   <g id="patch_6">
    <path d="M 127.0125 747 
L 127.0125 51.3 
" style="fill:none;stroke:#000000;stroke-linecap:square;stroke-linejoin:miter;"/>
   </g>
   <g id="matplotlib.axis_1">
    <g id="xtick_1">
     <g id="line2d_3">
      <defs>
       <path d="M 0 0 
L 0 -4 
" id="mdd0f076f5c" style="stroke:#000000;stroke-width:0.5;"/>
      </defs>
      <g>
       <use style="stroke:#000000;stroke-width:0.5;" x="127.0125" xlink:href="#mdd0f076f5c" y="747.0"/>
      </g>
     </g>
     <g id="line2d_4">
      <defs>
       <path d="M 0 0 
L 0 4 
" id="m5a20111f1b" style="stroke:#000000;stroke-width:0.5;"/>
      </defs>
      <g>
       <use style="stroke:#000000;stroke-width:0.5;" x="127.0125" xlink:href="#m5a20111f1b" y="51.3"/>
      </g>
     </g>
     <g id="text_1">
      <!-- 0 -->
      <defs>
       <path d="M 31.78125 66.40625 
Q 24.171875 66.40625 20.328125 58.90625 
Q 16.5 51.421875 16.5 36.375 
Q 16.5 21.390625 20.328125 13.890625 
Q 24.171875 6.390625 31.78125 6.390625 
Q 39.453125 6.390625 43.28125 13.890625 
Q 47.125 21.390625 47.125 36.375 
Q 47.125 51.421875 43.28125 58.90625 
Q 39.453125 66.40625 31.78125 66.40625 
M 31.78125 74.21875 
Q 44.046875 74.21875 50.515625 64.515625 
Q 56.984375 54.828125 56.984375 36.375 
Q 56.984375 17.96875 50.515625 8.265625 
Q 44.046875 -1.421875 31.78125 -1.421875 
Q 19.53125 -1.421875 13.0625 8.265625 
Q 6.59375 17.96875 6.59375 36.375 
Q 6.59375 54.828125 13.0625 64.515625 
Q 19.53125 74.21875 31.78125 74.21875 
" id="BitstreamVeraSans-Roman-30"/>
      </defs>
      <g transform="translate(117.46875 773.7953125)scale(0.3 -0.3)">
       <use xlink:href="#BitstreamVeraSans-Roman-30"/>
      </g>
     </g>
    </g>
    <g id="xtick_2">
     <g id="line2d_5">
      <g>
       <use style="stroke:#000000;stroke-width:0.5;" x="375.975" xlink:href="#mdd0f076f5c" y="747.0"/>
      </g>
     </g>
     <g id="line2d_6">
      <g>
       <use style="stroke:#000000;stroke-width:0.5;" x="375.975" xlink:href="#m5a20111f1b" y="51.3"/>
      </g>
     </g>
     <g id="text_2">
      <!-- 100 -->
      <defs>
       <path d="M 12.40625 8.296875 
L 28.515625 8.296875 
L 28.515625 63.921875 
L 10.984375 60.40625 
L 10.984375 69.390625 
L 28.421875 72.90625 
L 38.28125 72.90625 
L 38.28125 8.296875 
L 54.390625 8.296875 
L 54.390625 0 
L 12.40625 0 
z
" id="BitstreamVeraSans-Roman-31"/>
      </defs>
      <g transform="translate(347.34375 773.7953125)scale(0.3 -0.3)">
       <use xlink:href="#BitstreamVeraSans-Roman-31"/>
       <use x="63.623046875" xlink:href="#BitstreamVeraSans-Roman-30"/>
       <use x="127.24609375" xlink:href="#BitstreamVeraSans-Roman-30"/>
      </g>
     </g>
    </g>
    <g id="xtick_3">
     <g id="line2d_7">
      <g>
       <use style="stroke:#000000;stroke-width:0.5;" x="624.9375" xlink:href="#mdd0f076f5c" y="747.0"/>
      </g>
     </g>
     <g id="line2d_8">
      <g>
       <use style="stroke:#000000;stroke-width:0.5;" x="624.9375" xlink:href="#m5a20111f1b" y="51.3"/>
      </g>
     </g>
     <g id="text_3">
      <!-- 200 -->
      <defs>
       <path d="M 19.1875 8.296875 
L 53.609375 8.296875 
L 53.609375 0 
L 7.328125 0 
L 7.328125 8.296875 
Q 12.9375 14.109375 22.625 23.890625 
Q 32.328125 33.6875 34.8125 36.53125 
Q 39.546875 41.84375 41.421875 45.53125 
Q 43.3125 49.21875 43.3125 52.78125 
Q 43.3125 58.59375 39.234375 62.25 
Q 35.15625 65.921875 28.609375 65.921875 
Q 23.96875 65.921875 18.8125 64.3125 
Q 13.671875 62.703125 7.8125 59.421875 
L 7.8125 69.390625 
Q 13.765625 71.78125 18.9375 73 
Q 24.125 74.21875 28.421875 74.21875 
Q 39.75 74.21875 46.484375 68.546875 
Q 53.21875 62.890625 53.21875 53.421875 
Q 53.21875 48.921875 51.53125 44.890625 
Q 49.859375 40.875 45.40625 35.40625 
Q 44.1875 33.984375 37.640625 27.21875 
Q 31.109375 20.453125 19.1875 8.296875 
" id="BitstreamVeraSans-Roman-32"/>
      </defs>
      <g transform="translate(596.30625 773.7953125)scale(0.3 -0.3)">
       <use xlink:href="#BitstreamVeraSans-Roman-32"/>
       <use x="63.623046875" xlink:href="#BitstreamVeraSans-Roman-30"/>
       <use x="127.24609375" xlink:href="#BitstreamVeraSans-Roman-30"/>
      </g>
     </g>
    </g>
    <g id="xtick_4">
     <g id="line2d_9">
      <g>
       <use style="stroke:#000000;stroke-width:0.5;" x="873.9" xlink:href="#mdd0f076f5c" y="747.0"/>
      </g>
     </g>
     <g id="line2d_10">
      <g>
       <use style="stroke:#000000;stroke-width:0.5;" x="873.9" xlink:href="#m5a20111f1b" y="51.3"/>
      </g>
     </g>
     <g id="text_4">
      <!-- 300 -->
      <defs>
       <path d="M 40.578125 39.3125 
Q 47.65625 37.796875 51.625 33 
Q 55.609375 28.21875 55.609375 21.1875 
Q 55.609375 10.40625 48.1875 4.484375 
Q 40.765625 -1.421875 27.09375 -1.421875 
Q 22.515625 -1.421875 17.65625 -0.515625 
Q 12.796875 0.390625 7.625 2.203125 
L 7.625 11.71875 
Q 11.71875 9.328125 16.59375 8.109375 
Q 21.484375 6.890625 26.8125 6.890625 
Q 36.078125 6.890625 40.9375 10.546875 
Q 45.796875 14.203125 45.796875 21.1875 
Q 45.796875 27.640625 41.28125 31.265625 
Q 36.765625 34.90625 28.71875 34.90625 
L 20.21875 34.90625 
L 20.21875 43.015625 
L 29.109375 43.015625 
Q 36.375 43.015625 40.234375 45.921875 
Q 44.09375 48.828125 44.09375 54.296875 
Q 44.09375 59.90625 40.109375 62.90625 
Q 36.140625 65.921875 28.71875 65.921875 
Q 24.65625 65.921875 20.015625 65.03125 
Q 15.375 64.15625 9.8125 62.3125 
L 9.8125 71.09375 
Q 15.4375 72.65625 20.34375 73.4375 
Q 25.25 74.21875 29.59375 74.21875 
Q 40.828125 74.21875 47.359375 69.109375 
Q 53.90625 64.015625 53.90625 55.328125 
Q 53.90625 49.265625 50.4375 45.09375 
Q 46.96875 40.921875 40.578125 39.3125 
" id="BitstreamVeraSans-Roman-33"/>
      </defs>
      <g transform="translate(845.26875 773.7953125)scale(0.3 -0.3)">
       <use xlink:href="#BitstreamVeraSans-Roman-33"/>
       <use x="63.623046875" xlink:href="#BitstreamVeraSans-Roman-30"/>
       <use x="127.24609375" xlink:href="#BitstreamVeraSans-Roman-30"/>
      </g>
     </g>
    </g>
    <g id="xtick_5">
     <g id="line2d_11">
      <g>
       <use style="stroke:#000000;stroke-width:0.5;" x="1122.8625" xlink:href="#mdd0f076f5c" y="747.0"/>
      </g>
     </g>
     <g id="line2d_12">
      <g>
       <use style="stroke:#000000;stroke-width:0.5;" x="1122.8625" xlink:href="#m5a20111f1b" y="51.3"/>
      </g>
     </g>
     <g id="text_5">
      <!-- 400 -->
      <defs>
       <path d="M 37.796875 64.3125 
L 12.890625 25.390625 
L 37.796875 25.390625 
z
M 35.203125 72.90625 
L 47.609375 72.90625 
L 47.609375 25.390625 
L 58.015625 25.390625 
L 58.015625 17.1875 
L 47.609375 17.1875 
L 47.609375 0 
L 37.796875 0 
L 37.796875 17.1875 
L 4.890625 17.1875 
L 4.890625 26.703125 
z
" id="BitstreamVeraSans-Roman-34"/>
      </defs>
      <g transform="translate(1094.23125 773.7953125)scale(0.3 -0.3)">
       <use xlink:href="#BitstreamVeraSans-Roman-34"/>
       <use x="63.623046875" xlink:href="#BitstreamVeraSans-Roman-30"/>
       <use x="127.24609375" xlink:href="#BitstreamVeraSans-Roman-30"/>
      </g>
     </g>
    </g>
    <g id="xtick_6">
     <g id="line2d_13">
      <g>
       <use style="stroke:#000000;stroke-width:0.5;" x="1371.825" xlink:href="#mdd0f076f5c" y="747.0"/>
      </g>
     </g>
     <g id="line2d_14">
      <g>
       <use style="stroke:#000000;stroke-width:0.5;" x="1371.825" xlink:href="#m5a20111f1b" y="51.3"/>
      </g>
     </g>
     <g id="text_6">
      <!-- 500 -->
      <defs>
       <path d="M 10.796875 72.90625 
L 49.515625 72.90625 
L 49.515625 64.59375 
L 19.828125 64.59375 
L 19.828125 46.734375 
Q 21.96875 47.46875 24.109375 47.828125 
Q 26.265625 48.1875 28.421875 48.1875 
Q 40.625 48.1875 47.75 41.5 
Q 54.890625 34.8125 54.890625 23.390625 
Q 54.890625 11.625 47.5625 5.09375 
Q 40.234375 -1.421875 26.90625 -1.421875 
Q 22.3125 -1.421875 17.546875 -0.640625 
Q 12.796875 0.140625 7.71875 1.703125 
L 7.71875 11.625 
Q 12.109375 9.234375 16.796875 8.0625 
Q 21.484375 6.890625 26.703125 6.890625 
Q 35.15625 6.890625 40.078125 11.328125 
Q 45.015625 15.765625 45.015625 23.390625 
Q 45.015625 31 40.078125 35.4375 
Q 35.15625 39.890625 26.703125 39.890625 
Q 22.75 39.890625 18.8125 39.015625 
Q 14.890625 38.140625 10.796875 36.28125 
z
" id="BitstreamVeraSans-Roman-35"/>
      </defs>
      <g transform="translate(1343.19375 773.7953125)scale(0.3 -0.3)">
       <use xlink:href="#BitstreamVeraSans-Roman-35"/>
       <use x="63.623046875" xlink:href="#BitstreamVeraSans-Roman-30"/>
       <use x="127.24609375" xlink:href="#BitstreamVeraSans-Roman-30"/>
      </g>
     </g>
    </g>
    <g id="text_7">
     <!-- iterations -->
     <defs>
      <path d="M 54.890625 33.015625 
L 54.890625 0 
L 45.90625 0 
L 45.90625 32.71875 
Q 45.90625 40.484375 42.875 44.328125 
Q 39.84375 48.1875 33.796875 48.1875 
Q 26.515625 48.1875 22.3125 43.546875 
Q 18.109375 38.921875 18.109375 30.90625 
L 18.109375 0 
L 9.078125 0 
L 9.078125 54.6875 
L 18.109375 54.6875 
L 18.109375 46.1875 
Q 21.34375 51.125 25.703125 53.5625 
Q 30.078125 56 35.796875 56 
Q 45.21875 56 50.046875 50.171875 
Q 54.890625 44.34375 54.890625 33.015625 
" id="BitstreamVeraSans-Roman-6e"/>
      <path d="M 34.28125 27.484375 
Q 23.390625 27.484375 19.1875 25 
Q 14.984375 22.515625 14.984375 16.5 
Q 14.984375 11.71875 18.140625 8.90625 
Q 21.296875 6.109375 26.703125 6.109375 
Q 34.1875 6.109375 38.703125 11.40625 
Q 43.21875 16.703125 43.21875 25.484375 
L 43.21875 27.484375 
z
M 52.203125 31.203125 
L 52.203125 0 
L 43.21875 0 
L 43.21875 8.296875 
Q 40.140625 3.328125 35.546875 0.953125 
Q 30.953125 -1.421875 24.3125 -1.421875 
Q 15.921875 -1.421875 10.953125 3.296875 
Q 6 8.015625 6 15.921875 
Q 6 25.140625 12.171875 29.828125 
Q 18.359375 34.515625 30.609375 34.515625 
L 43.21875 34.515625 
L 43.21875 35.40625 
Q 43.21875 41.609375 39.140625 45 
Q 35.0625 48.390625 27.6875 48.390625 
Q 23 48.390625 18.546875 47.265625 
Q 14.109375 46.140625 10.015625 43.890625 
L 10.015625 52.203125 
Q 14.9375 54.109375 19.578125 55.046875 
Q 24.21875 56 28.609375 56 
Q 40.484375 56 46.34375 49.84375 
Q 52.203125 43.703125 52.203125 31.203125 
" id="BitstreamVeraSans-Roman-61"/>
      <path d="M 30.609375 48.390625 
Q 23.390625 48.390625 19.1875 42.75 
Q 14.984375 37.109375 14.984375 27.296875 
Q 14.984375 17.484375 19.15625 11.84375 
Q 23.34375 6.203125 30.609375 6.203125 
Q 37.796875 6.203125 41.984375 11.859375 
Q 46.1875 17.53125 46.1875 27.296875 
Q 46.1875 37.015625 41.984375 42.703125 
Q 37.796875 48.390625 30.609375 48.390625 
M 30.609375 56 
Q 42.328125 56 49.015625 48.375 
Q 55.71875 40.765625 55.71875 27.296875 
Q 55.71875 13.875 49.015625 6.21875 
Q 42.328125 -1.421875 30.609375 -1.421875 
Q 18.84375 -1.421875 12.171875 6.21875 
Q 5.515625 13.875 5.515625 27.296875 
Q 5.515625 40.765625 12.171875 48.375 
Q 18.84375 56 30.609375 56 
" id="BitstreamVeraSans-Roman-6f"/>
      <path d="M 9.421875 54.6875 
L 18.40625 54.6875 
L 18.40625 0 
L 9.421875 0 
z
M 9.421875 75.984375 
L 18.40625 75.984375 
L 18.40625 64.59375 
L 9.421875 64.59375 
z
" id="BitstreamVeraSans-Roman-69"/>
      <path d="M 56.203125 29.59375 
L 56.203125 25.203125 
L 14.890625 25.203125 
Q 15.484375 15.921875 20.484375 11.0625 
Q 25.484375 6.203125 34.421875 6.203125 
Q 39.59375 6.203125 44.453125 7.46875 
Q 49.3125 8.734375 54.109375 11.28125 
L 54.109375 2.78125 
Q 49.265625 0.734375 44.1875 -0.34375 
Q 39.109375 -1.421875 33.890625 -1.421875 
Q 20.796875 -1.421875 13.15625 6.1875 
Q 5.515625 13.8125 5.515625 26.8125 
Q 5.515625 40.234375 12.765625 48.109375 
Q 20.015625 56 32.328125 56 
Q 43.359375 56 49.78125 48.890625 
Q 56.203125 41.796875 56.203125 29.59375 
M 47.21875 32.234375 
Q 47.125 39.59375 43.09375 43.984375 
Q 39.0625 48.390625 32.421875 48.390625 
Q 24.90625 48.390625 20.390625 44.140625 
Q 15.875 39.890625 15.1875 32.171875 
z
" id="BitstreamVeraSans-Roman-65"/>
      <path d="M 18.3125 70.21875 
L 18.3125 54.6875 
L 36.8125 54.6875 
L 36.8125 47.703125 
L 18.3125 47.703125 
L 18.3125 18.015625 
Q 18.3125 11.328125 20.140625 9.421875 
Q 21.96875 7.515625 27.59375 7.515625 
L 36.8125 7.515625 
L 36.8125 0 
L 27.59375 0 
Q 17.1875 0 13.234375 3.875 
Q 9.28125 7.765625 9.28125 18.015625 
L 9.28125 47.703125 
L 2.6875 47.703125 
L 2.6875 54.6875 
L 9.28125 54.6875 
L 9.28125 70.21875 
z
" id="BitstreamVeraSans-Roman-74"/>
      <path d="M 41.109375 46.296875 
Q 39.59375 47.171875 37.8125 47.578125 
Q 36.03125 48 33.890625 48 
Q 26.265625 48 22.1875 43.046875 
Q 18.109375 38.09375 18.109375 28.8125 
L 18.109375 0 
L 9.078125 0 
L 9.078125 54.6875 
L 18.109375 54.6875 
L 18.109375 46.1875 
Q 20.953125 51.171875 25.484375 53.578125 
Q 30.03125 56 36.53125 56 
Q 37.453125 56 38.578125 55.875 
Q 39.703125 55.765625 41.0625 55.515625 
z
" id="BitstreamVeraSans-Roman-72"/>
      <path d="M 44.28125 53.078125 
L 44.28125 44.578125 
Q 40.484375 46.53125 36.375 47.5 
Q 32.28125 48.484375 27.875 48.484375 
Q 21.1875 48.484375 17.84375 46.4375 
Q 14.5 44.390625 14.5 40.28125 
Q 14.5 37.15625 16.890625 35.375 
Q 19.28125 33.59375 26.515625 31.984375 
L 29.59375 31.296875 
Q 39.15625 29.25 43.1875 25.515625 
Q 47.21875 21.78125 47.21875 15.09375 
Q 47.21875 7.46875 41.1875 3.015625 
Q 35.15625 -1.421875 24.609375 -1.421875 
Q 20.21875 -1.421875 15.453125 -0.5625 
Q 10.6875 0.296875 5.421875 2 
L 5.421875 11.28125 
Q 10.40625 8.6875 15.234375 7.390625 
Q 20.0625 6.109375 24.8125 6.109375 
Q 31.15625 6.109375 34.5625 8.28125 
Q 37.984375 10.453125 37.984375 14.40625 
Q 37.984375 18.0625 35.515625 20.015625 
Q 33.0625 21.96875 24.703125 23.78125 
L 21.578125 24.515625 
Q 13.234375 26.265625 9.515625 29.90625 
Q 5.8125 33.546875 5.8125 39.890625 
Q 5.8125 47.609375 11.28125 51.796875 
Q 16.75 56 26.8125 56 
Q 31.78125 56 36.171875 55.265625 
Q 40.578125 54.546875 44.28125 53.078125 
" id="BitstreamVeraSans-Roman-73"/>
     </defs>
     <g transform="translate(678.23671875 807.8296875)scale(0.3 -0.3)">
      <use xlink:href="#BitstreamVeraSans-Roman-69"/>
      <use x="27.783203125" xlink:href="#BitstreamVeraSans-Roman-74"/>
      <use x="66.9921875" xlink:href="#BitstreamVeraSans-Roman-65"/>
      <use x="128.515625" xlink:href="#BitstreamVeraSans-Roman-72"/>
      <use x="169.62890625" xlink:href="#BitstreamVeraSans-Roman-61"/>
      <use x="230.908203125" xlink:href="#BitstreamVeraSans-Roman-74"/>
      <use x="270.1171875" xlink:href="#BitstreamVeraSans-Roman-69"/>
      <use x="297.900390625" xlink:href="#BitstreamVeraSans-Roman-6f"/>
      <use x="359.08203125" xlink:href="#BitstreamVeraSans-Roman-6e"/>
      <use x="422.4609375" xlink:href="#BitstreamVeraSans-Roman-73"/>
     </g>
    </g>
   </g>
   <g id="matplotlib.axis_2">
    <g id="ytick_1">
     <g id="line2d_15">
      <defs>
       <path d="M 0 0 
L 4 0 
" id="m1865cb2be0" style="stroke:#000000;stroke-width:0.5;"/>
      </defs>
      <g>
       <use style="stroke:#000000;stroke-width:0.5;" x="127.0125" xlink:href="#m1865cb2be0" y="747.0"/>
      </g>
     </g>
     <g id="line2d_16">
      <defs>
       <path d="M 0 0 
L -4 0 
" id="md561e22259" style="stroke:#000000;stroke-width:0.5;"/>
      </defs>
      <g>
       <use style="stroke:#000000;stroke-width:0.5;" x="1371.825" xlink:href="#md561e22259" y="747.0"/>
      </g>
     </g>
     <g id="text_8">
      <!-- 6 -->
      <defs>
       <path d="M 33.015625 40.375 
Q 26.375 40.375 22.484375 35.828125 
Q 18.609375 31.296875 18.609375 23.390625 
Q 18.609375 15.53125 22.484375 10.953125 
Q 26.375 6.390625 33.015625 6.390625 
Q 39.65625 6.390625 43.53125 10.953125 
Q 47.40625 15.53125 47.40625 23.390625 
Q 47.40625 31.296875 43.53125 35.828125 
Q 39.65625 40.375 33.015625 40.375 
M 52.59375 71.296875 
L 52.59375 62.3125 
Q 48.875 64.0625 45.09375 64.984375 
Q 41.3125 65.921875 37.59375 65.921875 
Q 27.828125 65.921875 22.671875 59.328125 
Q 17.53125 52.734375 16.796875 39.40625 
Q 19.671875 43.65625 24.015625 45.921875 
Q 28.375 48.1875 33.59375 48.1875 
Q 44.578125 48.1875 50.953125 41.515625 
Q 57.328125 34.859375 57.328125 23.390625 
Q 57.328125 12.15625 50.6875 5.359375 
Q 44.046875 -1.421875 33.015625 -1.421875 
Q 20.359375 -1.421875 13.671875 8.265625 
Q 6.984375 17.96875 6.984375 36.375 
Q 6.984375 53.65625 15.1875 63.9375 
Q 23.390625 74.21875 37.203125 74.21875 
Q 40.921875 74.21875 44.703125 73.484375 
Q 48.484375 72.75 52.59375 71.296875 
" id="BitstreamVeraSans-Roman-36"/>
      </defs>
      <g transform="translate(103.925 755.278125)scale(0.3 -0.3)">
       <use xlink:href="#BitstreamVeraSans-Roman-36"/>
      </g>
     </g>
    </g>
    <g id="ytick_2">
     <g id="line2d_17">
      <g>
       <use style="stroke:#000000;stroke-width:0.5;" x="127.0125" xlink:href="#m1865cb2be0" y="647.614285714"/>
      </g>
     </g>
     <g id="line2d_18">
      <g>
       <use style="stroke:#000000;stroke-width:0.5;" x="1371.825" xlink:href="#md561e22259" y="647.614285714"/>
      </g>
     </g>
     <g id="text_9">
      <!-- 7 -->
      <defs>
       <path d="M 8.203125 72.90625 
L 55.078125 72.90625 
L 55.078125 68.703125 
L 28.609375 0 
L 18.3125 0 
L 43.21875 64.59375 
L 8.203125 64.59375 
z
" id="BitstreamVeraSans-Roman-37"/>
      </defs>
      <g transform="translate(103.925 655.892410714)scale(0.3 -0.3)">
       <use xlink:href="#BitstreamVeraSans-Roman-37"/>
      </g>
     </g>
    </g>
    <g id="ytick_3">
     <g id="line2d_19">
      <g>
       <use style="stroke:#000000;stroke-width:0.5;" x="127.0125" xlink:href="#m1865cb2be0" y="548.228571429"/>
      </g>
     </g>
     <g id="line2d_20">
      <g>
       <use style="stroke:#000000;stroke-width:0.5;" x="1371.825" xlink:href="#md561e22259" y="548.228571429"/>
      </g>
     </g>
     <g id="text_10">
      <!-- 8 -->
      <defs>
       <path d="M 31.78125 34.625 
Q 24.75 34.625 20.71875 30.859375 
Q 16.703125 27.09375 16.703125 20.515625 
Q 16.703125 13.921875 20.71875 10.15625 
Q 24.75 6.390625 31.78125 6.390625 
Q 38.8125 6.390625 42.859375 10.171875 
Q 46.921875 13.96875 46.921875 20.515625 
Q 46.921875 27.09375 42.890625 30.859375 
Q 38.875 34.625 31.78125 34.625 
M 21.921875 38.8125 
Q 15.578125 40.375 12.03125 44.71875 
Q 8.5 49.078125 8.5 55.328125 
Q 8.5 64.0625 14.71875 69.140625 
Q 20.953125 74.21875 31.78125 74.21875 
Q 42.671875 74.21875 48.875 69.140625 
Q 55.078125 64.0625 55.078125 55.328125 
Q 55.078125 49.078125 51.53125 44.71875 
Q 48 40.375 41.703125 38.8125 
Q 48.828125 37.15625 52.796875 32.3125 
Q 56.78125 27.484375 56.78125 20.515625 
Q 56.78125 9.90625 50.3125 4.234375 
Q 43.84375 -1.421875 31.78125 -1.421875 
Q 19.734375 -1.421875 13.25 4.234375 
Q 6.78125 9.90625 6.78125 20.515625 
Q 6.78125 27.484375 10.78125 32.3125 
Q 14.796875 37.15625 21.921875 38.8125 
M 18.3125 54.390625 
Q 18.3125 48.734375 21.84375 45.5625 
Q 25.390625 42.390625 31.78125 42.390625 
Q 38.140625 42.390625 41.71875 45.5625 
Q 45.3125 48.734375 45.3125 54.390625 
Q 45.3125 60.0625 41.71875 63.234375 
Q 38.140625 66.40625 31.78125 66.40625 
Q 25.390625 66.40625 21.84375 63.234375 
Q 18.3125 60.0625 18.3125 54.390625 
" id="BitstreamVeraSans-Roman-38"/>
      </defs>
      <g transform="translate(103.925 556.506696429)scale(0.3 -0.3)">
       <use xlink:href="#BitstreamVeraSans-Roman-38"/>
      </g>
     </g>
    </g>
    <g id="ytick_4">
     <g id="line2d_21">
      <g>
       <use style="stroke:#000000;stroke-width:0.5;" x="127.0125" xlink:href="#m1865cb2be0" y="448.842857143"/>
      </g>
     </g>
     <g id="line2d_22">
      <g>
       <use style="stroke:#000000;stroke-width:0.5;" x="1371.825" xlink:href="#md561e22259" y="448.842857143"/>
      </g>
     </g>
     <g id="text_11">
      <!-- 9 -->
      <defs>
       <path d="M 10.984375 1.515625 
L 10.984375 10.5 
Q 14.703125 8.734375 18.5 7.8125 
Q 22.3125 6.890625 25.984375 6.890625 
Q 35.75 6.890625 40.890625 13.453125 
Q 46.046875 20.015625 46.78125 33.40625 
Q 43.953125 29.203125 39.59375 26.953125 
Q 35.25 24.703125 29.984375 24.703125 
Q 19.046875 24.703125 12.671875 31.3125 
Q 6.296875 37.9375 6.296875 49.421875 
Q 6.296875 60.640625 12.9375 67.421875 
Q 19.578125 74.21875 30.609375 74.21875 
Q 43.265625 74.21875 49.921875 64.515625 
Q 56.59375 54.828125 56.59375 36.375 
Q 56.59375 19.140625 48.40625 8.859375 
Q 40.234375 -1.421875 26.421875 -1.421875 
Q 22.703125 -1.421875 18.890625 -0.6875 
Q 15.09375 0.046875 10.984375 1.515625 
M 30.609375 32.421875 
Q 37.25 32.421875 41.125 36.953125 
Q 45.015625 41.5 45.015625 49.421875 
Q 45.015625 57.28125 41.125 61.84375 
Q 37.25 66.40625 30.609375 66.40625 
Q 23.96875 66.40625 20.09375 61.84375 
Q 16.21875 57.28125 16.21875 49.421875 
Q 16.21875 41.5 20.09375 36.953125 
Q 23.96875 32.421875 30.609375 32.421875 
" id="BitstreamVeraSans-Roman-39"/>
      </defs>
      <g transform="translate(103.925 457.120982143)scale(0.3 -0.3)">
       <use xlink:href="#BitstreamVeraSans-Roman-39"/>
      </g>
     </g>
    </g>
    <g id="ytick_5">
     <g id="line2d_23">
      <g>
       <use style="stroke:#000000;stroke-width:0.5;" x="127.0125" xlink:href="#m1865cb2be0" y="349.457142857"/>
      </g>
     </g>
     <g id="line2d_24">
      <g>
       <use style="stroke:#000000;stroke-width:0.5;" x="1371.825" xlink:href="#md561e22259" y="349.457142857"/>
      </g>
     </g>
     <g id="text_12">
      <!-- 10 -->
      <g transform="translate(84.8375 357.735267857)scale(0.3 -0.3)">
       <use xlink:href="#BitstreamVeraSans-Roman-31"/>
       <use x="63.623046875" xlink:href="#BitstreamVeraSans-Roman-30"/>
      </g>
     </g>
    </g>
    <g id="ytick_6">
     <g id="line2d_25">
      <g>
       <use style="stroke:#000000;stroke-width:0.5;" x="127.0125" xlink:href="#m1865cb2be0" y="250.071428571"/>
      </g>
     </g>
     <g id="line2d_26">
      <g>
       <use style="stroke:#000000;stroke-width:0.5;" x="1371.825" xlink:href="#md561e22259" y="250.071428571"/>
      </g>
     </g>
     <g id="text_13">
      <!-- 11 -->
      <g transform="translate(84.8375 258.349553571)scale(0.3 -0.3)">
       <use xlink:href="#BitstreamVeraSans-Roman-31"/>
       <use x="63.623046875" xlink:href="#BitstreamVeraSans-Roman-31"/>
      </g>
     </g>
    </g>
    <g id="ytick_7">
     <g id="line2d_27">
      <g>
       <use style="stroke:#000000;stroke-width:0.5;" x="127.0125" xlink:href="#m1865cb2be0" y="150.685714286"/>
      </g>
     </g>
     <g id="line2d_28">
      <g>
       <use style="stroke:#000000;stroke-width:0.5;" x="1371.825" xlink:href="#md561e22259" y="150.685714286"/>
      </g>
     </g>
     <g id="text_14">
      <!-- 12 -->
      <g transform="translate(84.8375 158.963839286)scale(0.3 -0.3)">
       <use xlink:href="#BitstreamVeraSans-Roman-31"/>
       <use x="63.623046875" xlink:href="#BitstreamVeraSans-Roman-32"/>
      </g>
     </g>
    </g>
    <g id="ytick_8">
     <g id="line2d_29">
      <g>
       <use style="stroke:#000000;stroke-width:0.5;" x="127.0125" xlink:href="#m1865cb2be0" y="51.3"/>
      </g>
     </g>
     <g id="line2d_30">
      <g>
       <use style="stroke:#000000;stroke-width:0.5;" x="1371.825" xlink:href="#md561e22259" y="51.3"/>
      </g>
     </g>
     <g id="text_15">
      <!-- 13 -->
      <g transform="translate(84.8375 59.578125)scale(0.3 -0.3)">
       <use xlink:href="#BitstreamVeraSans-Roman-31"/>
       <use x="63.623046875" xlink:href="#BitstreamVeraSans-Roman-33"/>
      </g>
     </g>
    </g>
    <g id="text_16">
     <!-- log(loss) -->
     <defs>
      <path d="M 8.015625 75.875 
L 15.828125 75.875 
Q 23.140625 64.359375 26.78125 53.3125 
Q 30.421875 42.28125 30.421875 31.390625 
Q 30.421875 20.453125 26.78125 9.375 
Q 23.140625 -1.703125 15.828125 -13.1875 
L 8.015625 -13.1875 
Q 14.5 -2 17.703125 9.0625 
Q 20.90625 20.125 20.90625 31.390625 
Q 20.90625 42.671875 17.703125 53.65625 
Q 14.5 64.65625 8.015625 75.875 
" id="BitstreamVeraSans-Roman-29"/>
      <path d="M 31 75.875 
Q 24.46875 64.65625 21.28125 53.65625 
Q 18.109375 42.671875 18.109375 31.390625 
Q 18.109375 20.125 21.3125 9.0625 
Q 24.515625 -2 31 -13.1875 
L 23.1875 -13.1875 
Q 15.875 -1.703125 12.234375 9.375 
Q 8.59375 20.453125 8.59375 31.390625 
Q 8.59375 42.28125 12.203125 53.3125 
Q 15.828125 64.359375 23.1875 75.875 
z
" id="BitstreamVeraSans-Roman-28"/>
      <path d="M 45.40625 27.984375 
Q 45.40625 37.75 41.375 43.109375 
Q 37.359375 48.484375 30.078125 48.484375 
Q 22.859375 48.484375 18.828125 43.109375 
Q 14.796875 37.75 14.796875 27.984375 
Q 14.796875 18.265625 18.828125 12.890625 
Q 22.859375 7.515625 30.078125 7.515625 
Q 37.359375 7.515625 41.375 12.890625 
Q 45.40625 18.265625 45.40625 27.984375 
M 54.390625 6.78125 
Q 54.390625 -7.171875 48.1875 -13.984375 
Q 42 -20.796875 29.203125 -20.796875 
Q 24.46875 -20.796875 20.265625 -20.09375 
Q 16.0625 -19.390625 12.109375 -17.921875 
L 12.109375 -9.1875 
Q 16.0625 -11.328125 19.921875 -12.34375 
Q 23.78125 -13.375 27.78125 -13.375 
Q 36.625 -13.375 41.015625 -8.765625 
Q 45.40625 -4.15625 45.40625 5.171875 
L 45.40625 9.625 
Q 42.625 4.78125 38.28125 2.390625 
Q 33.9375 0 27.875 0 
Q 17.828125 0 11.671875 7.65625 
Q 5.515625 15.328125 5.515625 27.984375 
Q 5.515625 40.671875 11.671875 48.328125 
Q 17.828125 56 27.875 56 
Q 33.9375 56 38.28125 53.609375 
Q 42.625 51.21875 45.40625 46.390625 
L 45.40625 54.6875 
L 54.390625 54.6875 
z
" id="BitstreamVeraSans-Roman-67"/>
      <path d="M 9.421875 75.984375 
L 18.40625 75.984375 
L 18.40625 0 
L 9.421875 0 
z
" id="BitstreamVeraSans-Roman-6c"/>
     </defs>
     <g transform="translate(73.5984375 462.69609375)rotate(-90.0)scale(0.3 -0.3)">
      <use xlink:href="#BitstreamVeraSans-Roman-6c"/>
      <use x="27.783203125" xlink:href="#BitstreamVeraSans-Roman-6f"/>
      <use x="88.96484375" xlink:href="#BitstreamVeraSans-Roman-67"/>
      <use x="152.44140625" xlink:href="#BitstreamVeraSans-Roman-28"/>
      <use x="191.455078125" xlink:href="#BitstreamVeraSans-Roman-6c"/>
      <use x="219.23828125" xlink:href="#BitstreamVeraSans-Roman-6f"/>
      <use x="280.419921875" xlink:href="#BitstreamVeraSans-Roman-73"/>
      <use x="332.51953125" xlink:href="#BitstreamVeraSans-Roman-73"/>
      <use x="384.619140625" xlink:href="#BitstreamVeraSans-Roman-29"/>
     </g>
    </g>
   </g>
   <g id="legend_1">
    <g id="patch_7">
     <path d="M 879.651563 163.36875 
L 1356.825 163.36875 
L 1356.825 66.3 
L 879.651563 66.3 
z
" style="fill:#ffffff;stroke:#000000;stroke-linejoin:miter;"/>
    </g>
    <g id="line2d_31">
     <path d="M 900.651563 90.595312 
L 942.651563 90.595312 
" style="fill:none;stroke:#0000ff;stroke-linecap:square;stroke-width:2.0;"/>
    </g>
    <g id="line2d_32"/>
    <g id="text_17">
     <!-- random: step=0.001231 -->
     <defs>
      <path id="BitstreamVeraSans-Roman-20"/>
      <path d="M 52 44.1875 
Q 55.375 50.25 60.0625 53.125 
Q 64.75 56 71.09375 56 
Q 79.640625 56 84.28125 50.015625 
Q 88.921875 44.046875 88.921875 33.015625 
L 88.921875 0 
L 79.890625 0 
L 79.890625 32.71875 
Q 79.890625 40.578125 77.09375 44.375 
Q 74.3125 48.1875 68.609375 48.1875 
Q 61.625 48.1875 57.5625 43.546875 
Q 53.515625 38.921875 53.515625 30.90625 
L 53.515625 0 
L 44.484375 0 
L 44.484375 32.71875 
Q 44.484375 40.625 41.703125 44.40625 
Q 38.921875 48.1875 33.109375 48.1875 
Q 26.21875 48.1875 22.15625 43.53125 
Q 18.109375 38.875 18.109375 30.90625 
L 18.109375 0 
L 9.078125 0 
L 9.078125 54.6875 
L 18.109375 54.6875 
L 18.109375 46.1875 
Q 21.1875 51.21875 25.484375 53.609375 
Q 29.78125 56 35.6875 56 
Q 41.65625 56 45.828125 52.96875 
Q 50 49.953125 52 44.1875 
" id="BitstreamVeraSans-Roman-6d"/>
      <path d="M 11.71875 12.40625 
L 22.015625 12.40625 
L 22.015625 0 
L 11.71875 0 
z
M 11.71875 51.703125 
L 22.015625 51.703125 
L 22.015625 39.3125 
L 11.71875 39.3125 
z
" id="BitstreamVeraSans-Roman-3a"/>
      <path d="M 10.6875 12.40625 
L 21 12.40625 
L 21 0 
L 10.6875 0 
z
" id="BitstreamVeraSans-Roman-2e"/>
      <path d="M 10.59375 45.40625 
L 73.1875 45.40625 
L 73.1875 37.203125 
L 10.59375 37.203125 
z
M 10.59375 25.484375 
L 73.1875 25.484375 
L 73.1875 17.1875 
L 10.59375 17.1875 
z
" id="BitstreamVeraSans-Roman-3d"/>
      <path d="M 45.40625 46.390625 
L 45.40625 75.984375 
L 54.390625 75.984375 
L 54.390625 0 
L 45.40625 0 
L 45.40625 8.203125 
Q 42.578125 3.328125 38.25 0.953125 
Q 33.9375 -1.421875 27.875 -1.421875 
Q 17.96875 -1.421875 11.734375 6.484375 
Q 5.515625 14.40625 5.515625 27.296875 
Q 5.515625 40.1875 11.734375 48.09375 
Q 17.96875 56 27.875 56 
Q 33.9375 56 38.25 53.625 
Q 42.578125 51.265625 45.40625 46.390625 
M 14.796875 27.296875 
Q 14.796875 17.390625 18.875 11.75 
Q 22.953125 6.109375 30.078125 6.109375 
Q 37.203125 6.109375 41.296875 11.75 
Q 45.40625 17.390625 45.40625 27.296875 
Q 45.40625 37.203125 41.296875 42.84375 
Q 37.203125 48.484375 30.078125 48.484375 
Q 22.953125 48.484375 18.875 42.84375 
Q 14.796875 37.203125 14.796875 27.296875 
" id="BitstreamVeraSans-Roman-64"/>
      <path d="M 18.109375 8.203125 
L 18.109375 -20.796875 
L 9.078125 -20.796875 
L 9.078125 54.6875 
L 18.109375 54.6875 
L 18.109375 46.390625 
Q 20.953125 51.265625 25.265625 53.625 
Q 29.59375 56 35.59375 56 
Q 45.5625 56 51.78125 48.09375 
Q 58.015625 40.1875 58.015625 27.296875 
Q 58.015625 14.40625 51.78125 6.484375 
Q 45.5625 -1.421875 35.59375 -1.421875 
Q 29.59375 -1.421875 25.265625 0.953125 
Q 20.953125 3.328125 18.109375 8.203125 
M 48.6875 27.296875 
Q 48.6875 37.203125 44.609375 42.84375 
Q 40.53125 48.484375 33.40625 48.484375 
Q 26.265625 48.484375 22.1875 42.84375 
Q 18.109375 37.203125 18.109375 27.296875 
Q 18.109375 17.390625 22.1875 11.75 
Q 26.265625 6.109375 33.40625 6.109375 
Q 40.53125 6.109375 44.609375 11.75 
Q 48.6875 17.390625 48.6875 27.296875 
" id="BitstreamVeraSans-Roman-70"/>
     </defs>
     <g transform="translate(975.6515625 101.0953125)scale(0.3 -0.3)">
      <use xlink:href="#BitstreamVeraSans-Roman-72"/>
      <use x="41.11328125" xlink:href="#BitstreamVeraSans-Roman-61"/>
      <use x="102.392578125" xlink:href="#BitstreamVeraSans-Roman-6e"/>
      <use x="165.771484375" xlink:href="#BitstreamVeraSans-Roman-64"/>
      <use x="229.248046875" xlink:href="#BitstreamVeraSans-Roman-6f"/>
      <use x="290.4296875" xlink:href="#BitstreamVeraSans-Roman-6d"/>
      <use x="387.841796875" xlink:href="#BitstreamVeraSans-Roman-3a"/>
      <use x="421.533203125" xlink:href="#BitstreamVeraSans-Roman-20"/>
      <use x="453.3203125" xlink:href="#BitstreamVeraSans-Roman-73"/>
      <use x="505.419921875" xlink:href="#BitstreamVeraSans-Roman-74"/>
      <use x="544.62890625" xlink:href="#BitstreamVeraSans-Roman-65"/>
      <use x="606.15234375" xlink:href="#BitstreamVeraSans-Roman-70"/>
      <use x="669.62890625" xlink:href="#BitstreamVeraSans-Roman-3d"/>
      <use x="753.41796875" xlink:href="#BitstreamVeraSans-Roman-30"/>
      <use x="817.041015625" xlink:href="#BitstreamVeraSans-Roman-2e"/>
      <use x="848.828125" xlink:href="#BitstreamVeraSans-Roman-30"/>
      <use x="912.451171875" xlink:href="#BitstreamVeraSans-Roman-30"/>
      <use x="976.07421875" xlink:href="#BitstreamVeraSans-Roman-31"/>
      <use x="1039.69726562" xlink:href="#BitstreamVeraSans-Roman-32"/>
      <use x="1103.3203125" xlink:href="#BitstreamVeraSans-Roman-33"/>
      <use x="1166.94335938" xlink:href="#BitstreamVeraSans-Roman-31"/>
     </g>
    </g>
    <g id="line2d_33">
     <path d="M 900.651563 134.629687 
L 942.651563 134.629687 
" style="fill:none;stroke:#008000;stroke-linecap:square;stroke-width:2.0;"/>
    </g>
    <g id="line2d_34"/>
    <g id="text_18">
     <!-- corr: step=0.001231 -->
     <defs>
      <path d="M 48.78125 52.59375 
L 48.78125 44.1875 
Q 44.96875 46.296875 41.140625 47.34375 
Q 37.3125 48.390625 33.40625 48.390625 
Q 24.65625 48.390625 19.8125 42.84375 
Q 14.984375 37.3125 14.984375 27.296875 
Q 14.984375 17.28125 19.8125 11.734375 
Q 24.65625 6.203125 33.40625 6.203125 
Q 37.3125 6.203125 41.140625 7.25 
Q 44.96875 8.296875 48.78125 10.40625 
L 48.78125 2.09375 
Q 45.015625 0.34375 40.984375 -0.53125 
Q 36.96875 -1.421875 32.421875 -1.421875 
Q 20.0625 -1.421875 12.78125 6.34375 
Q 5.515625 14.109375 5.515625 27.296875 
Q 5.515625 40.671875 12.859375 48.328125 
Q 20.21875 56 33.015625 56 
Q 37.15625 56 41.109375 55.140625 
Q 45.0625 54.296875 48.78125 52.59375 
" id="BitstreamVeraSans-Roman-63"/>
     </defs>
     <g transform="translate(975.6515625 145.1296875)scale(0.3 -0.3)">
      <use xlink:href="#BitstreamVeraSans-Roman-63"/>
      <use x="54.98046875" xlink:href="#BitstreamVeraSans-Roman-6f"/>
      <use x="116.162109375" xlink:href="#BitstreamVeraSans-Roman-72"/>
      <use x="157.259765625" xlink:href="#BitstreamVeraSans-Roman-72"/>
      <use x="198.357421875" xlink:href="#BitstreamVeraSans-Roman-3a"/>
      <use x="232.048828125" xlink:href="#BitstreamVeraSans-Roman-20"/>
      <use x="263.8359375" xlink:href="#BitstreamVeraSans-Roman-73"/>
      <use x="315.935546875" xlink:href="#BitstreamVeraSans-Roman-74"/>
      <use x="355.14453125" xlink:href="#BitstreamVeraSans-Roman-65"/>
      <use x="416.66796875" xlink:href="#BitstreamVeraSans-Roman-70"/>
      <use x="480.14453125" xlink:href="#BitstreamVeraSans-Roman-3d"/>
      <use x="563.93359375" xlink:href="#BitstreamVeraSans-Roman-30"/>
      <use x="627.556640625" xlink:href="#BitstreamVeraSans-Roman-2e"/>
      <use x="659.34375" xlink:href="#BitstreamVeraSans-Roman-30"/>
      <use x="722.966796875" xlink:href="#BitstreamVeraSans-Roman-30"/>
      <use x="786.58984375" xlink:href="#BitstreamVeraSans-Roman-31"/>
      <use x="850.212890625" xlink:href="#BitstreamVeraSans-Roman-32"/>
      <use x="913.8359375" xlink:href="#BitstreamVeraSans-Roman-33"/>
      <use x="977.458984375" xlink:href="#BitstreamVeraSans-Roman-31"/>
     </g>
    </g>
   </g>
  </g>
 </g>
 <defs>
  <clipPath id="p26a35da55d">
   <rect height="695.7" width="1244.8125" x="127.0125" y="51.3"/>
  </clipPath>
 </defs>
</svg>
