<?xml version="1.0" encoding="utf-8" standalone="no"?>
<!DOCTYPE svg PUBLIC "-//W3C//DTD SVG 1.1//EN"
  "http://www.w3.org/Graphics/SVG/1.1/DTD/svg11.dtd">
<!-- Created with matplotlib (http://matplotlib.org/) -->
<svg height="864pt" version="1.1" viewBox="0 0 1440 864" width="1440pt" xmlns="http://www.w3.org/2000/svg" xmlns:xlink="http://www.w3.org/1999/xlink">
 <defs>
  <style type="text/css">
*{stroke-linecap:butt;stroke-linejoin:round;stroke-miterlimit:100000;}
  </style>
 </defs>
 <g id="figure_1">
  <g id="patch_1">
   <path d="M 0 864 
L 1440 864 
L 1440 0 
L 0 0 
z
" style="fill:#ffffff;"/>
  </g>
  <g id="axes_1">
   <g id="patch_2">
    <path d="M 158.4 747 
L 1371.825 747 
L 1371.825 51.3 
L 158.4 51.3 
z
" style="fill:#ffffff;"/>
   </g>
   <g id="line2d_1">
    <path clip-path="url(#p5b0cc0e870)" d="M 158.4 137.6834 
L 160.82685 143.368829 
L 163.2537 146.016647 
L 165.68055 150.111915 
L 168.1074 153.194928 
L 170.53425 154.529445 
L 172.9611 158.179097 
L 175.38795 164.151725 
L 180.24165 173.801382 
L 182.6685 177.033173 
L 185.09535 182.881046 
L 187.5222 185.918103 
L 189.94905 190.629565 
L 192.3759 196.096647 
L 194.80275 202.488855 
L 197.2296 207.819823 
L 199.65645 208.617191 
L 202.0833 212.042449 
L 204.51015 218.016358 
L 206.937 222.706618 
L 209.36385 228.15399 
L 211.7907 230.670579 
L 214.21755 233.612639 
L 216.6444 241.163641 
L 219.07125 244.479486 
L 226.3518 258.485763 
L 228.77865 262.611686 
L 231.2055 267.549162 
L 233.63235 269.174877 
L 236.0592 271.479395 
L 238.48605 275.21585 
L 240.9129 279.963698 
L 243.33975 284.039776 
L 245.7666 289.413588 
L 248.19345 291.705084 
L 250.6203 295.289205 
L 253.04715 299.243603 
L 257.90085 311.225724 
L 260.3277 316.36506 
L 262.75455 321.823286 
L 265.1814 326.772608 
L 267.60825 331.060156 
L 270.0351 334.874318 
L 277.31565 349.377965 
L 279.7425 353.590373 
L 282.16935 359.490953 
L 284.5962 361.712532 
L 287.02305 366.905729 
L 289.4499 370.49736 
L 291.87675 374.598631 
L 294.3036 379.855111 
L 296.73045 386.052713 
L 299.1573 388.863766 
L 301.58415 393.692132 
L 304.011 398.79627 
L 306.43785 401.931421 
L 308.8647 408.095934 
L 311.29155 412.313824 
L 313.7184 415.020045 
L 316.14525 419.200704 
L 318.5721 422.076293 
L 320.99895 429.578835 
L 325.85265 438.130936 
L 328.2795 441.49604 
L 330.70635 446.131217 
L 333.1332 448.461702 
L 337.9869 455.421497 
L 340.41375 459.445965 
L 342.8406 465.127753 
L 345.26745 469.76175 
L 350.12115 478.534997 
L 352.548 484.257262 
L 354.97485 487.189257 
L 357.4017 491.909153 
L 359.82855 495.005703 
L 362.2554 499.398887 
L 364.68225 503.507181 
L 367.1091 506.631068 
L 371.9628 518.546399 
L 376.8165 524.575036 
L 379.24335 530.116308 
L 381.6702 533.695841 
L 384.09705 537.616839 
L 386.5239 539.708015 
L 388.95075 544.848201 
L 391.3776 548.45875 
L 393.80445 555.069046 
L 396.2313 558.364549 
L 398.65815 561.254622 
L 401.085 561.039473 
L 403.51185 565.230746 
L 405.9387 569.755464 
L 408.36555 573.604898 
L 410.7924 577.920106 
L 413.21925 579.774396 
L 415.6461 585.874519 
L 418.07295 590.893023 
L 420.4998 594.660791 
L 422.92665 600.296632 
L 427.78035 610.53255 
L 430.2072 612.987228 
L 432.63405 618.581327 
L 435.0609 622.20635 
L 437.48775 625.614213 
L 442.34145 634.939049 
L 444.7683 638.293365 
L 447.19515 642.92723 
L 449.622 646.463793 
L 452.04885 651.63217 
L 454.4757 655.431374 
L 456.90255 658.861439 
L 459.3294 663.310956 
L 461.75625 668.689572 
L 464.1831 672.235545 
L 466.60995 676.676841 
L 469.0368 681.784369 
L 473.8905 688.863674 
L 476.31735 690.271469 
L 478.7442 692.795224 
L 481.17105 698.444236 
L 483.5979 703.47725 
L 486.02475 706.443236 
L 488.4516 711.365385 
L 490.87845 716.035371 
L 493.3053 718.479568 
L 498.159 724.315258 
L 500.58585 725.424672 
L 503.0127 727.572751 
L 505.43955 730.39864 
L 507.8664 730.945284 
L 510.29325 732.071631 
L 512.7201 731.724299 
L 515.14695 733.770219 
L 517.5738 735.223967 
L 520.00065 734.672964 
L 522.4275 733.147244 
L 524.85435 732.60292 
L 529.70805 734.02633 
L 532.1349 732.495072 
L 534.56175 733.281601 
L 536.9886 734.339891 
L 539.41545 732.50604 
L 541.8423 734.764882 
L 546.696 735.109826 
L 549.12285 734.982628 
L 551.5497 733.360693 
L 553.97655 733.580957 
L 556.4034 734.503035 
L 558.83025 734.918485 
L 561.2571 734.959937 
L 563.68395 734.298032 
L 566.1108 734.041805 
L 568.53765 735.503929 
L 570.9645 734.757042 
L 573.39135 734.434313 
L 575.8182 733.211393 
L 578.24505 733.687052 
L 580.6719 734.866745 
L 583.09875 733.503311 
L 585.5256 735.172113 
L 587.95245 732.616815 
L 590.3793 730.994174 
L 592.80615 733.506289 
L 595.233 732.505742 
L 597.65985 732.830571 
L 600.0867 732.790514 
L 602.51355 730.913985 
L 607.36725 732.512318 
L 609.7941 732.010055 
L 612.22095 734.63386 
L 614.6478 732.400615 
L 617.07465 733.55683 
L 619.5015 732.40522 
L 621.92835 732.321138 
L 624.3552 732.402467 
L 626.78205 733.169992 
L 629.2089 733.408589 
L 634.0626 734.640381 
L 636.48945 734.43266 
L 638.9163 735.045454 
L 641.34315 735.868315 
L 643.77 732.685201 
L 646.19685 736.32758 
L 648.6237 735.750833 
L 651.05055 734.944925 
L 653.4774 737.175945 
L 655.90425 736.15671 
L 658.3311 735.582589 
L 663.1848 736.873002 
L 665.61165 734.545774 
L 668.0385 735.8278 
L 670.46535 736.229724 
L 672.8922 735.843008 
L 675.31905 735.211152 
L 677.7459 734.231874 
L 680.17275 733.118644 
L 682.5996 733.870474 
L 685.02645 730.834555 
L 689.88015 734.298011 
L 692.307 734.083921 
L 694.73385 732.912248 
L 697.1607 733.530088 
L 699.58755 734.350846 
L 702.0144 734.243523 
L 704.44125 733.314214 
L 706.8681 734.660471 
L 709.29495 733.723993 
L 711.7218 733.547617 
L 714.14865 732.636972 
L 716.5755 731.546651 
L 719.00235 732.782997 
L 721.4292 730.956669 
L 723.85605 733.900437 
L 728.70975 735.584954 
L 731.1366 733.432408 
L 733.56345 735.911845 
L 735.9903 734.603616 
L 738.41715 734.147219 
L 740.844 734.862049 
L 743.27085 733.501622 
L 745.6977 734.454003 
L 748.12455 733.320017 
L 750.5514 733.945853 
L 752.97825 733.016325 
L 755.4051 731.789073 
L 757.83195 731.010432 
L 760.2588 733.348552 
L 762.68565 733.7675 
L 765.1125 734.404227 
L 767.53935 734.264373 
L 769.9662 735.267787 
L 772.39305 734.744882 
L 774.8199 733.231502 
L 777.24675 729.821056 
L 779.6736 732.144397 
L 782.10045 732.27231 
L 784.5273 733.924961 
L 786.95415 737.071839 
L 789.381 737.460165 
L 791.80785 735.124064 
L 794.2347 735.109014 
L 796.66155 732.925534 
L 799.0884 733.362426 
L 801.51525 734.304003 
L 803.9421 732.764572 
L 806.36895 733.010648 
L 808.7958 731.9317 
L 811.22265 733.503835 
L 813.6495 734.759482 
L 816.07635 736.622013 
L 818.5032 733.73097 
L 820.93005 731.594789 
L 823.3569 730.780808 
L 825.78375 733.446899 
L 828.2106 732.011088 
L 830.63745 732.939121 
L 833.0643 729.426668 
L 835.49115 730.607256 
L 837.918 734.471183 
L 840.34485 732.605145 
L 842.7717 733.652452 
L 845.19855 734.956187 
L 847.6254 734.508061 
L 850.05225 730.338754 
L 852.4791 731.912626 
L 854.90595 733.277882 
L 857.3328 729.479143 
L 859.75965 732.173335 
L 862.1865 734.584631 
L 864.61335 733.970546 
L 867.0402 734.195677 
L 869.46705 733.77097 
L 871.8939 732.711686 
L 874.32075 732.286076 
L 876.7476 733.408808 
L 879.17445 734.828185 
L 881.6013 736.900899 
L 884.02815 738.063416 
L 888.88185 734.191389 
L 891.3087 736.682107 
L 893.73555 737.118098 
L 896.1624 734.06322 
L 898.58925 733.799716 
L 901.0161 733.817988 
L 903.44295 734.073533 
L 905.8698 733.24471 
L 908.29665 735.128001 
L 910.7235 735.190143 
L 913.15035 733.587794 
L 918.00405 733.515546 
L 920.4309 732.895254 
L 922.85775 733.067647 
L 925.2846 732.348179 
L 927.71145 734.873182 
L 930.1383 733.288716 
L 932.56515 732.134197 
L 934.992 729.434915 
L 937.41885 731.182787 
L 939.8457 729.466057 
L 942.27255 729.650143 
L 944.6994 730.903252 
L 947.12625 732.586438 
L 949.5531 733.375938 
L 951.97995 733.129283 
L 954.4068 733.524894 
L 956.83365 735.845665 
L 959.2605 734.401136 
L 961.68735 735.295294 
L 964.1142 735.692059 
L 966.54105 734.9438 
L 968.9679 736.776036 
L 971.39475 734.903979 
L 973.8216 734.491951 
L 976.24845 735.449597 
L 978.6753 735.887836 
L 981.10215 735.57308 
L 983.529 737.223238 
L 985.95585 736.188384 
L 988.3827 733.959956 
L 990.80955 733.662792 
L 993.2364 734.438894 
L 995.66325 734.977049 
L 998.0901 735.87857 
L 1000.51695 735.283243 
L 1002.9438 733.338686 
L 1005.37065 733.807427 
L 1007.7975 733.040604 
L 1010.22435 733.354276 
L 1012.6512 732.80097 
L 1015.07805 732.883024 
L 1017.5049 734.662482 
L 1019.93175 732.942749 
L 1022.3586 730.415887 
L 1024.78545 730.449694 
L 1027.2123 732.055456 
L 1029.63915 731.837691 
L 1032.066 731.044452 
L 1034.49285 732.968855 
L 1036.9197 734.377836 
L 1039.34655 733.47028 
L 1041.7734 734.260641 
L 1044.20025 737.083601 
L 1046.6271 733.866321 
L 1049.05395 736.242928 
L 1051.4808 734.249939 
L 1053.90765 735.089267 
L 1056.3345 733.888698 
L 1058.76135 735.47632 
L 1061.1882 732.392556 
L 1063.61505 734.062487 
L 1066.0419 734.745365 
L 1070.8956 733.95274 
L 1073.32245 731.441555 
L 1075.7493 733.210681 
L 1078.17615 735.822637 
L 1080.603 733.011791 
L 1083.02985 733.138319 
L 1085.4567 733.054574 
L 1087.88355 733.318268 
L 1090.3104 734.604626 
L 1092.73725 733.884501 
L 1095.1641 734.367974 
L 1097.59095 735.968686 
L 1100.0178 735.021299 
L 1102.44465 734.908124 
L 1104.8715 734.934213 
L 1107.29835 732.150742 
L 1109.7252 733.941397 
L 1112.15205 734.303286 
L 1114.5789 734.181297 
L 1117.00575 735.554793 
L 1119.4326 735.123157 
L 1121.85945 734.066503 
L 1124.2863 730.591173 
L 1126.71315 731.313846 
L 1129.14 734.487387 
L 1131.56685 733.017811 
L 1133.9937 730.699978 
L 1136.42055 731.515095 
L 1138.8474 732.581855 
L 1141.27425 731.622399 
L 1143.7011 730.388188 
L 1146.12795 731.71172 
L 1148.5548 733.806677 
L 1150.98165 733.517148 
L 1153.4085 729.743224 
L 1155.83535 729.676664 
L 1158.2622 731.301589 
L 1160.68905 732.255072 
L 1163.1159 733.037624 
L 1165.54275 728.717348 
L 1167.9696 728.933917 
L 1170.39645 729.275147 
L 1172.8233 731.662849 
L 1175.25015 732.143764 
L 1177.677 733.38169 
L 1180.10385 735.95727 
L 1182.5307 732.230681 
L 1184.95755 733.587259 
L 1187.3844 734.721987 
L 1189.81125 736.791435 
L 1192.2381 736.857476 
L 1194.66495 734.455383 
L 1199.51865 734.146342 
L 1201.9455 731.884851 
L 1204.37235 731.18948 
L 1206.7992 732.935224 
L 1209.22605 732.220374 
L 1211.6529 730.77406 
L 1214.07975 732.823469 
L 1216.5066 732.836878 
L 1218.93345 731.928254 
L 1223.78715 735.459447 
L 1226.214 732.931199 
L 1228.64085 734.954 
L 1231.0677 731.957262 
L 1233.49455 732.935488 
L 1235.9214 730.317865 
L 1238.34825 732.17576 
L 1240.7751 731.911002 
L 1243.20195 731.944801 
L 1245.6288 734.126943 
L 1248.05565 735.954191 
L 1250.4825 732.600847 
L 1252.90935 733.230205 
L 1255.3362 734.539952 
L 1257.76305 735.233774 
L 1262.61675 737.381731 
L 1265.0436 736.541083 
L 1267.47045 734.325027 
L 1269.8973 734.593328 
L 1272.32415 736.389404 
L 1274.751 734.151696 
L 1277.17785 736.033637 
L 1279.6047 733.843099 
L 1282.03155 733.412829 
L 1284.4584 733.293651 
L 1286.88525 732.432395 
L 1289.3121 733.219711 
L 1291.73895 734.887908 
L 1294.1658 735.308213 
L 1296.59265 736.243916 
L 1299.0195 739.270094 
L 1301.44635 737.434132 
L 1303.8732 731.15784 
L 1306.30005 733.787966 
L 1308.7269 734.122017 
L 1311.15375 733.888728 
L 1313.5806 734.146229 
L 1316.00745 733.912984 
L 1318.4343 734.054002 
L 1320.86115 733.88571 
L 1323.288 731.367287 
L 1325.71485 731.47578 
L 1328.1417 733.813568 
L 1330.56855 734.268636 
L 1332.9954 734.439283 
L 1335.42225 733.686016 
L 1337.8491 734.389524 
L 1340.27595 735.566741 
L 1342.7028 731.562686 
L 1345.12965 734.072008 
L 1347.5565 734.57231 
L 1349.98335 734.485029 
L 1352.4102 734.094358 
L 1354.83705 734.123813 
L 1357.2639 733.179598 
L 1359.69075 732.373718 
L 1362.1176 734.397128 
L 1364.54445 734.905904 
L 1366.9713 734.7523 
L 1369.39815 733.067125 
L 1369.39815 733.067125 
" style="fill:none;stroke:#0000ff;stroke-linecap:square;stroke-width:2.0;"/>
   </g>
   <g id="line2d_2">
    <path clip-path="url(#p5b0cc0e870)" d="M 158.4 139.033582 
L 160.82685 141.3543 
L 163.2537 147.011501 
L 165.68055 149.747836 
L 168.1074 156.496525 
L 170.53425 159.883365 
L 172.9611 162.142806 
L 175.38795 167.842657 
L 177.8148 170.609114 
L 180.24165 176.748794 
L 182.6685 181.429265 
L 185.09535 181.751527 
L 187.5222 187.817226 
L 189.94905 189.838894 
L 192.3759 193.949219 
L 194.80275 200.160297 
L 197.2296 205.083364 
L 199.65645 208.902317 
L 204.51015 217.646076 
L 206.937 222.561299 
L 209.36385 228.960846 
L 211.7907 232.789385 
L 214.21755 236.264768 
L 216.6444 239.494082 
L 219.07125 244.868229 
L 221.4981 248.657602 
L 223.92495 252.716729 
L 226.3518 257.639973 
L 228.77865 259.953412 
L 233.63235 269.819855 
L 236.0592 273.517162 
L 238.48605 278.19393 
L 240.9129 281.081622 
L 243.33975 285.032925 
L 245.7666 288.235986 
L 248.19345 290.257418 
L 250.6203 296.162506 
L 253.04715 300.714514 
L 255.474 304.178611 
L 257.90085 307.295985 
L 260.3277 311.872521 
L 267.60825 323.438327 
L 270.0351 326.766075 
L 272.46195 332.06012 
L 277.31565 339.132872 
L 279.7425 343.500866 
L 282.16935 350.509412 
L 284.5962 353.324376 
L 287.02305 351.924727 
L 291.87675 361.573362 
L 301.58415 380.42225 
L 304.011 386.445351 
L 306.43785 390.3618 
L 308.8647 395.43594 
L 311.29155 398.929697 
L 313.7184 400.931184 
L 316.14525 404.313254 
L 318.5721 408.845744 
L 320.99895 413.128036 
L 323.4258 418.153122 
L 328.2795 425.127468 
L 330.70635 428.341661 
L 333.1332 431.318327 
L 335.56005 436.530292 
L 337.9869 440.21964 
L 342.8406 447.19149 
L 345.26745 451.621774 
L 347.6943 457.138068 
L 350.12115 461.982256 
L 352.548 465.025056 
L 354.97485 468.910507 
L 357.4017 471.025331 
L 359.82855 475.713248 
L 362.2554 479.333224 
L 364.68225 481.432947 
L 367.1091 484.798339 
L 371.9628 495.316957 
L 374.38965 501.045555 
L 376.8165 505.642525 
L 379.24335 511.206202 
L 381.6702 514.938339 
L 384.09705 519.602669 
L 386.5239 523.476923 
L 388.95075 529.465883 
L 391.3776 532.057391 
L 393.80445 538.744294 
L 396.2313 542.829239 
L 401.085 552.043302 
L 403.51185 555.726842 
L 405.9387 561.046539 
L 408.36555 565.182442 
L 410.7924 570.527955 
L 413.21925 576.408305 
L 415.6461 580.802803 
L 418.07295 583.639931 
L 420.4998 586.949001 
L 422.92665 591.651331 
L 425.3535 595.891308 
L 427.78035 601.21749 
L 430.2072 605.543925 
L 432.63405 608.873051 
L 435.0609 614.438651 
L 437.48775 618.772174 
L 439.9146 624.125473 
L 442.34145 630.796836 
L 447.19515 638.88716 
L 449.622 645.905954 
L 452.04885 650.608961 
L 454.4757 654.708804 
L 456.90255 656.745737 
L 461.75625 665.253692 
L 464.1831 671.144699 
L 466.60995 676.381087 
L 469.0368 676.671447 
L 471.46365 679.506718 
L 473.8905 683.217934 
L 476.31735 687.519619 
L 481.17105 694.938371 
L 483.5979 700.424518 
L 486.02475 706.95481 
L 488.4516 712.19002 
L 490.87845 715.843405 
L 493.3053 721.288963 
L 495.73215 724.027997 
L 498.159 725.166624 
L 500.58585 725.522118 
L 503.0127 728.092088 
L 505.43955 729.069385 
L 507.8664 728.608358 
L 510.29325 732.334796 
L 512.7201 731.1471 
L 515.14695 732.176614 
L 517.5738 733.346517 
L 520.00065 734.868273 
L 522.4275 730.933257 
L 524.85435 731.811167 
L 527.2812 736.454765 
L 529.70805 734.94672 
L 532.1349 731.384184 
L 534.56175 731.065558 
L 536.9886 731.448337 
L 539.41545 732.148967 
L 541.8423 731.667423 
L 544.26915 734.458535 
L 546.696 733.393302 
L 549.12285 736.013688 
L 551.5497 736.806201 
L 556.4034 734.954935 
L 558.83025 734.895635 
L 561.2571 735.289387 
L 563.68395 736.397619 
L 566.1108 735.45175 
L 568.53765 735.093295 
L 570.9645 735.413869 
L 573.39135 733.146131 
L 575.8182 734.360201 
L 578.24505 733.03596 
L 580.6719 734.443315 
L 583.09875 734.752405 
L 585.5256 730.317225 
L 587.95245 729.568665 
L 590.3793 732.516268 
L 592.80615 732.639627 
L 595.233 733.323087 
L 597.65985 731.493696 
L 600.0867 734.575572 
L 602.51355 732.95902 
L 604.9404 730.930868 
L 607.36725 731.707159 
L 609.7941 731.325283 
L 612.22095 731.650305 
L 614.6478 732.727543 
L 617.07465 733.171962 
L 619.5015 734.22642 
L 621.92835 733.884371 
L 624.3552 735.853672 
L 626.78205 735.872209 
L 629.2089 732.90908 
L 631.63575 733.566786 
L 634.0626 735.179293 
L 636.48945 734.910943 
L 641.34315 735.871568 
L 643.77 731.529905 
L 646.19685 731.808539 
L 648.6237 734.236233 
L 651.05055 734.947865 
L 653.4774 736.013127 
L 658.3311 735.467894 
L 660.75795 734.549831 
L 663.1848 734.200916 
L 665.61165 733.259887 
L 668.0385 734.697593 
L 670.46535 735.330999 
L 672.8922 734.067502 
L 675.31905 733.792852 
L 677.7459 732.126198 
L 680.17275 730.846614 
L 682.5996 732.820487 
L 685.02645 732.730653 
L 687.4533 732.994366 
L 689.88015 732.855097 
L 692.307 731.973275 
L 694.73385 731.230011 
L 697.1607 731.371072 
L 699.58755 732.750115 
L 702.0144 733.953732 
L 704.44125 734.061235 
L 709.29495 732.936222 
L 711.7218 735.669496 
L 714.14865 736.168438 
L 716.5755 734.778902 
L 719.00235 734.259943 
L 721.4292 733.416365 
L 723.85605 731.564305 
L 726.2829 731.21526 
L 728.70975 731.665979 
L 731.1366 732.498838 
L 733.56345 732.917684 
L 735.9903 735.105839 
L 738.41715 734.989029 
L 740.844 735.121781 
L 743.27085 734.323058 
L 745.6977 731.384194 
L 748.12455 732.100885 
L 750.5514 731.824683 
L 752.97825 732.236795 
L 757.83195 730.836369 
L 760.2588 732.074407 
L 762.68565 734.678912 
L 765.1125 732.908092 
L 767.53935 733.051701 
L 769.9662 733.442555 
L 772.39305 734.906564 
L 774.8199 733.598926 
L 777.24675 732.624539 
L 779.6736 730.681978 
L 782.10045 729.772515 
L 784.5273 730.161749 
L 786.95415 730.126163 
L 789.381 731.227439 
L 791.80785 733.660928 
L 794.2347 731.863245 
L 796.66155 731.203781 
L 799.0884 730.951442 
L 801.51525 730.952642 
L 803.9421 733.360019 
L 806.36895 730.736581 
L 808.7958 732.496593 
L 811.22265 732.033301 
L 813.6495 732.831667 
L 816.07635 731.230844 
L 818.5032 731.648872 
L 820.93005 730.233462 
L 823.3569 731.544612 
L 825.78375 730.860127 
L 828.2106 733.592231 
L 830.63745 735.377012 
L 833.0643 733.964477 
L 837.918 735.741046 
L 840.34485 732.319982 
L 845.19855 732.143341 
L 847.6254 733.21101 
L 850.05225 732.26882 
L 852.4791 731.931672 
L 854.90595 731.251432 
L 857.3328 732.986873 
L 859.75965 733.717587 
L 862.1865 733.029838 
L 864.61335 734.219163 
L 867.0402 733.846702 
L 869.46705 734.540774 
L 871.8939 735.611791 
L 874.32075 733.572499 
L 876.7476 733.11079 
L 879.17445 731.75366 
L 881.6013 728.953662 
L 884.02815 728.913274 
L 886.455 728.333207 
L 888.88185 728.926799 
L 891.3087 730.327049 
L 893.73555 729.711793 
L 896.1624 732.432032 
L 898.58925 733.236672 
L 901.0161 731.909447 
L 903.44295 731.737053 
L 905.8698 732.44812 
L 908.29665 733.587429 
L 910.7235 733.34073 
L 913.15035 732.396667 
L 915.5772 733.240876 
L 918.00405 731.169845 
L 920.4309 731.544842 
L 925.2846 734.317997 
L 927.71145 733.908226 
L 930.1383 735.297843 
L 932.56515 735.408117 
L 934.992 735.63052 
L 937.41885 733.772736 
L 939.8457 733.301811 
L 942.27255 735.172659 
L 944.6994 733.394295 
L 947.12625 736.528054 
L 949.5531 736.688477 
L 951.97995 736.437524 
L 954.4068 734.284593 
L 956.83365 734.522063 
L 959.2605 732.085079 
L 964.1142 734.815428 
L 966.54105 734.845036 
L 968.9679 735.407878 
L 971.39475 735.747396 
L 973.8216 735.140321 
L 976.24845 736.056596 
L 978.6753 733.526286 
L 981.10215 732.701443 
L 983.529 734.332353 
L 985.95585 733.993282 
L 988.3827 736.719106 
L 990.80955 735.415303 
L 993.2364 733.341504 
L 995.66325 732.652247 
L 998.0901 734.781275 
L 1000.51695 734.402627 
L 1002.9438 735.060191 
L 1005.37065 733.892826 
L 1007.7975 734.659132 
L 1010.22435 735.873568 
L 1012.6512 735.645309 
L 1015.07805 734.787335 
L 1017.5049 734.253364 
L 1019.93175 734.881352 
L 1022.3586 735.384167 
L 1024.78545 733.235895 
L 1027.2123 732.948593 
L 1029.63915 734.377329 
L 1032.066 730.985909 
L 1034.49285 732.081144 
L 1036.9197 733.36054 
L 1039.34655 732.821987 
L 1044.20025 732.036886 
L 1046.6271 734.924036 
L 1049.05395 732.653052 
L 1051.4808 735.611129 
L 1053.90765 734.960624 
L 1056.3345 733.051741 
L 1058.76135 735.811979 
L 1061.1882 737.035131 
L 1063.61505 735.40571 
L 1068.46875 732.555315 
L 1070.8956 734.751089 
L 1073.32245 735.048338 
L 1075.7493 734.595152 
L 1078.17615 733.774377 
L 1080.603 734.400772 
L 1083.02985 735.274499 
L 1087.88355 733.950268 
L 1090.3104 732.887682 
L 1092.73725 734.720726 
L 1095.1641 734.554551 
L 1097.59095 732.624172 
L 1100.0178 733.478599 
L 1102.44465 733.424549 
L 1104.8715 733.106784 
L 1107.29835 733.130924 
L 1109.7252 731.443329 
L 1112.15205 735.209836 
L 1114.5789 733.566358 
L 1117.00575 735.2026 
L 1119.4326 734.217397 
L 1121.85945 735.469344 
L 1124.2863 735.948365 
L 1126.71315 734.67798 
L 1129.14 732.280028 
L 1131.56685 733.828785 
L 1133.9937 736.363118 
L 1136.42055 732.50132 
L 1138.8474 733.050555 
L 1141.27425 733.150481 
L 1143.7011 734.969822 
L 1146.12795 734.961067 
L 1148.5548 734.535753 
L 1150.98165 732.356837 
L 1153.4085 734.83886 
L 1155.83535 733.335722 
L 1158.2622 733.972613 
L 1163.1159 736.60888 
L 1165.54275 735.070518 
L 1167.9696 734.019356 
L 1170.39645 734.668679 
L 1172.8233 734.471258 
L 1175.25015 731.98261 
L 1177.677 732.820604 
L 1180.10385 734.408974 
L 1182.5307 731.656353 
L 1184.95755 732.005685 
L 1187.3844 732.549219 
L 1192.2381 731.481457 
L 1194.66495 732.047362 
L 1197.0918 733.060481 
L 1199.51865 734.638422 
L 1201.9455 735.384099 
L 1204.37235 734.686805 
L 1206.7992 734.265154 
L 1209.22605 734.577578 
L 1211.6529 736.198634 
L 1214.07975 736.174364 
L 1216.5066 734.965167 
L 1218.93345 733.441773 
L 1221.3603 733.354101 
L 1223.78715 734.257268 
L 1226.214 733.347715 
L 1228.64085 730.786946 
L 1231.0677 732.130487 
L 1233.49455 732.726943 
L 1235.9214 733.739616 
L 1238.34825 732.999127 
L 1240.7751 731.58258 
L 1243.20195 733.42428 
L 1245.6288 732.500227 
L 1248.05565 733.337879 
L 1250.4825 732.561369 
L 1252.90935 734.504371 
L 1255.3362 733.822596 
L 1257.76305 734.527765 
L 1260.1899 733.957174 
L 1262.61675 735.085212 
L 1265.0436 733.18809 
L 1267.47045 731.903394 
L 1269.8973 732.235284 
L 1272.32415 731.791336 
L 1274.751 732.089415 
L 1277.17785 732.579305 
L 1279.6047 732.493955 
L 1282.03155 733.156584 
L 1284.4584 731.79413 
L 1286.88525 732.178368 
L 1289.3121 733.4364 
L 1291.73895 735.158463 
L 1294.1658 732.264659 
L 1296.59265 731.891554 
L 1299.0195 730.895779 
L 1301.44635 732.146857 
L 1303.8732 735.630386 
L 1306.30005 733.868368 
L 1308.7269 734.25463 
L 1311.15375 733.918203 
L 1313.5806 735.151222 
L 1316.00745 732.990097 
L 1318.4343 734.246703 
L 1320.86115 732.76015 
L 1323.288 734.883772 
L 1325.71485 733.942658 
L 1328.1417 733.284037 
L 1330.56855 733.901181 
L 1332.9954 733.843576 
L 1335.42225 733.068282 
L 1337.8491 736.057383 
L 1340.27595 732.104918 
L 1342.7028 734.308295 
L 1345.12965 730.602815 
L 1347.5565 730.545989 
L 1349.98335 732.381387 
L 1352.4102 734.541042 
L 1354.83705 733.362388 
L 1357.2639 732.834743 
L 1359.69075 731.609345 
L 1362.1176 731.656168 
L 1364.54445 729.733974 
L 1366.9713 729.746368 
L 1369.39815 733.09463 
L 1369.39815 733.09463 
" style="fill:none;stroke:#008000;stroke-linecap:square;stroke-width:2.0;"/>
   </g>
   <g id="patch_3">
    <path d="M 158.4 51.3 
L 1371.825 51.3 
" style="fill:none;stroke:#000000;stroke-linecap:square;stroke-linejoin:miter;"/>
   </g>
   <g id="patch_4">
    <path d="M 1371.825 747 
L 1371.825 51.3 
" style="fill:none;stroke:#000000;stroke-linecap:square;stroke-linejoin:miter;"/>
   </g>
   <g id="patch_5">
    <path d="M 158.4 747 
L 1371.825 747 
" style="fill:none;stroke:#000000;stroke-linecap:square;stroke-linejoin:miter;"/>
   </g>
   <g id="patch_6">
    <path d="M 158.4 747 
L 158.4 51.3 
" style="fill:none;stroke:#000000;stroke-linecap:square;stroke-linejoin:miter;"/>
   </g>
   <g id="matplotlib.axis_1">
    <g id="xtick_1">
     <g id="line2d_3">
      <defs>
       <path d="M 0 0 
L 0 -4 
" id="m115a850a62" style="stroke:#000000;stroke-width:0.5;"/>
      </defs>
      <g>
       <use style="stroke:#000000;stroke-width:0.5;" x="158.4" xlink:href="#m115a850a62" y="747.0"/>
      </g>
     </g>
     <g id="line2d_4">
      <defs>
       <path d="M 0 0 
L 0 4 
" id="m3b5b4ff21e" style="stroke:#000000;stroke-width:0.5;"/>
      </defs>
      <g>
       <use style="stroke:#000000;stroke-width:0.5;" x="158.4" xlink:href="#m3b5b4ff21e" y="51.3"/>
      </g>
     </g>
     <g id="text_1">
      <!-- 0 -->
      <defs>
       <path d="M 31.78125 66.40625 
Q 24.171875 66.40625 20.328125 58.90625 
Q 16.5 51.421875 16.5 36.375 
Q 16.5 21.390625 20.328125 13.890625 
Q 24.171875 6.390625 31.78125 6.390625 
Q 39.453125 6.390625 43.28125 13.890625 
Q 47.125 21.390625 47.125 36.375 
Q 47.125 51.421875 43.28125 58.90625 
Q 39.453125 66.40625 31.78125 66.40625 
M 31.78125 74.21875 
Q 44.046875 74.21875 50.515625 64.515625 
Q 56.984375 54.828125 56.984375 36.375 
Q 56.984375 17.96875 50.515625 8.265625 
Q 44.046875 -1.421875 31.78125 -1.421875 
Q 19.53125 -1.421875 13.0625 8.265625 
Q 6.59375 17.96875 6.59375 36.375 
Q 6.59375 54.828125 13.0625 64.515625 
Q 19.53125 74.21875 31.78125 74.21875 
" id="BitstreamVeraSans-Roman-30"/>
      </defs>
      <g transform="translate(148.85625 773.7953125)scale(0.3 -0.3)">
       <use xlink:href="#BitstreamVeraSans-Roman-30"/>
      </g>
     </g>
    </g>
    <g id="xtick_2">
     <g id="line2d_5">
      <g>
       <use style="stroke:#000000;stroke-width:0.5;" x="401.085" xlink:href="#m115a850a62" y="747.0"/>
      </g>
     </g>
     <g id="line2d_6">
      <g>
       <use style="stroke:#000000;stroke-width:0.5;" x="401.085" xlink:href="#m3b5b4ff21e" y="51.3"/>
      </g>
     </g>
     <g id="text_2">
      <!-- 100 -->
      <defs>
       <path d="M 12.40625 8.296875 
L 28.515625 8.296875 
L 28.515625 63.921875 
L 10.984375 60.40625 
L 10.984375 69.390625 
L 28.421875 72.90625 
L 38.28125 72.90625 
L 38.28125 8.296875 
L 54.390625 8.296875 
L 54.390625 0 
L 12.40625 0 
z
" id="BitstreamVeraSans-Roman-31"/>
      </defs>
      <g transform="translate(372.45375 773.7953125)scale(0.3 -0.3)">
       <use xlink:href="#BitstreamVeraSans-Roman-31"/>
       <use x="63.623046875" xlink:href="#BitstreamVeraSans-Roman-30"/>
       <use x="127.24609375" xlink:href="#BitstreamVeraSans-Roman-30"/>
      </g>
     </g>
    </g>
    <g id="xtick_3">
     <g id="line2d_7">
      <g>
       <use style="stroke:#000000;stroke-width:0.5;" x="643.77" xlink:href="#m115a850a62" y="747.0"/>
      </g>
     </g>
     <g id="line2d_8">
      <g>
       <use style="stroke:#000000;stroke-width:0.5;" x="643.77" xlink:href="#m3b5b4ff21e" y="51.3"/>
      </g>
     </g>
     <g id="text_3">
      <!-- 200 -->
      <defs>
       <path d="M 19.1875 8.296875 
L 53.609375 8.296875 
L 53.609375 0 
L 7.328125 0 
L 7.328125 8.296875 
Q 12.9375 14.109375 22.625 23.890625 
Q 32.328125 33.6875 34.8125 36.53125 
Q 39.546875 41.84375 41.421875 45.53125 
Q 43.3125 49.21875 43.3125 52.78125 
Q 43.3125 58.59375 39.234375 62.25 
Q 35.15625 65.921875 28.609375 65.921875 
Q 23.96875 65.921875 18.8125 64.3125 
Q 13.671875 62.703125 7.8125 59.421875 
L 7.8125 69.390625 
Q 13.765625 71.78125 18.9375 73 
Q 24.125 74.21875 28.421875 74.21875 
Q 39.75 74.21875 46.484375 68.546875 
Q 53.21875 62.890625 53.21875 53.421875 
Q 53.21875 48.921875 51.53125 44.890625 
Q 49.859375 40.875 45.40625 35.40625 
Q 44.1875 33.984375 37.640625 27.21875 
Q 31.109375 20.453125 19.1875 8.296875 
" id="BitstreamVeraSans-Roman-32"/>
      </defs>
      <g transform="translate(615.13875 773.7953125)scale(0.3 -0.3)">
       <use xlink:href="#BitstreamVeraSans-Roman-32"/>
       <use x="63.623046875" xlink:href="#BitstreamVeraSans-Roman-30"/>
       <use x="127.24609375" xlink:href="#BitstreamVeraSans-Roman-30"/>
      </g>
     </g>
    </g>
    <g id="xtick_4">
     <g id="line2d_9">
      <g>
       <use style="stroke:#000000;stroke-width:0.5;" x="886.455" xlink:href="#m115a850a62" y="747.0"/>
      </g>
     </g>
     <g id="line2d_10">
      <g>
       <use style="stroke:#000000;stroke-width:0.5;" x="886.455" xlink:href="#m3b5b4ff21e" y="51.3"/>
      </g>
     </g>
     <g id="text_4">
      <!-- 300 -->
      <defs>
       <path d="M 40.578125 39.3125 
Q 47.65625 37.796875 51.625 33 
Q 55.609375 28.21875 55.609375 21.1875 
Q 55.609375 10.40625 48.1875 4.484375 
Q 40.765625 -1.421875 27.09375 -1.421875 
Q 22.515625 -1.421875 17.65625 -0.515625 
Q 12.796875 0.390625 7.625 2.203125 
L 7.625 11.71875 
Q 11.71875 9.328125 16.59375 8.109375 
Q 21.484375 6.890625 26.8125 6.890625 
Q 36.078125 6.890625 40.9375 10.546875 
Q 45.796875 14.203125 45.796875 21.1875 
Q 45.796875 27.640625 41.28125 31.265625 
Q 36.765625 34.90625 28.71875 34.90625 
L 20.21875 34.90625 
L 20.21875 43.015625 
L 29.109375 43.015625 
Q 36.375 43.015625 40.234375 45.921875 
Q 44.09375 48.828125 44.09375 54.296875 
Q 44.09375 59.90625 40.109375 62.90625 
Q 36.140625 65.921875 28.71875 65.921875 
Q 24.65625 65.921875 20.015625 65.03125 
Q 15.375 64.15625 9.8125 62.3125 
L 9.8125 71.09375 
Q 15.4375 72.65625 20.34375 73.4375 
Q 25.25 74.21875 29.59375 74.21875 
Q 40.828125 74.21875 47.359375 69.109375 
Q 53.90625 64.015625 53.90625 55.328125 
Q 53.90625 49.265625 50.4375 45.09375 
Q 46.96875 40.921875 40.578125 39.3125 
" id="BitstreamVeraSans-Roman-33"/>
      </defs>
      <g transform="translate(857.82375 773.7953125)scale(0.3 -0.3)">
       <use xlink:href="#BitstreamVeraSans-Roman-33"/>
       <use x="63.623046875" xlink:href="#BitstreamVeraSans-Roman-30"/>
       <use x="127.24609375" xlink:href="#BitstreamVeraSans-Roman-30"/>
      </g>
     </g>
    </g>
    <g id="xtick_5">
     <g id="line2d_11">
      <g>
       <use style="stroke:#000000;stroke-width:0.5;" x="1129.14" xlink:href="#m115a850a62" y="747.0"/>
      </g>
     </g>
     <g id="line2d_12">
      <g>
       <use style="stroke:#000000;stroke-width:0.5;" x="1129.14" xlink:href="#m3b5b4ff21e" y="51.3"/>
      </g>
     </g>
     <g id="text_5">
      <!-- 400 -->
      <defs>
       <path d="M 37.796875 64.3125 
L 12.890625 25.390625 
L 37.796875 25.390625 
z
M 35.203125 72.90625 
L 47.609375 72.90625 
L 47.609375 25.390625 
L 58.015625 25.390625 
L 58.015625 17.1875 
L 47.609375 17.1875 
L 47.609375 0 
L 37.796875 0 
L 37.796875 17.1875 
L 4.890625 17.1875 
L 4.890625 26.703125 
z
" id="BitstreamVeraSans-Roman-34"/>
      </defs>
      <g transform="translate(1100.50875 773.7953125)scale(0.3 -0.3)">
       <use xlink:href="#BitstreamVeraSans-Roman-34"/>
       <use x="63.623046875" xlink:href="#BitstreamVeraSans-Roman-30"/>
       <use x="127.24609375" xlink:href="#BitstreamVeraSans-Roman-30"/>
      </g>
     </g>
    </g>
    <g id="xtick_6">
     <g id="line2d_13">
      <g>
       <use style="stroke:#000000;stroke-width:0.5;" x="1371.825" xlink:href="#m115a850a62" y="747.0"/>
      </g>
     </g>
     <g id="line2d_14">
      <g>
       <use style="stroke:#000000;stroke-width:0.5;" x="1371.825" xlink:href="#m3b5b4ff21e" y="51.3"/>
      </g>
     </g>
     <g id="text_6">
      <!-- 500 -->
      <defs>
       <path d="M 10.796875 72.90625 
L 49.515625 72.90625 
L 49.515625 64.59375 
L 19.828125 64.59375 
L 19.828125 46.734375 
Q 21.96875 47.46875 24.109375 47.828125 
Q 26.265625 48.1875 28.421875 48.1875 
Q 40.625 48.1875 47.75 41.5 
Q 54.890625 34.8125 54.890625 23.390625 
Q 54.890625 11.625 47.5625 5.09375 
Q 40.234375 -1.421875 26.90625 -1.421875 
Q 22.3125 -1.421875 17.546875 -0.640625 
Q 12.796875 0.140625 7.71875 1.703125 
L 7.71875 11.625 
Q 12.109375 9.234375 16.796875 8.0625 
Q 21.484375 6.890625 26.703125 6.890625 
Q 35.15625 6.890625 40.078125 11.328125 
Q 45.015625 15.765625 45.015625 23.390625 
Q 45.015625 31 40.078125 35.4375 
Q 35.15625 39.890625 26.703125 39.890625 
Q 22.75 39.890625 18.8125 39.015625 
Q 14.890625 38.140625 10.796875 36.28125 
z
" id="BitstreamVeraSans-Roman-35"/>
      </defs>
      <g transform="translate(1343.19375 773.7953125)scale(0.3 -0.3)">
       <use xlink:href="#BitstreamVeraSans-Roman-35"/>
       <use x="63.623046875" xlink:href="#BitstreamVeraSans-Roman-30"/>
       <use x="127.24609375" xlink:href="#BitstreamVeraSans-Roman-30"/>
      </g>
     </g>
    </g>
    <g id="text_7">
     <!-- iterations -->
     <defs>
      <path d="M 54.890625 33.015625 
L 54.890625 0 
L 45.90625 0 
L 45.90625 32.71875 
Q 45.90625 40.484375 42.875 44.328125 
Q 39.84375 48.1875 33.796875 48.1875 
Q 26.515625 48.1875 22.3125 43.546875 
Q 18.109375 38.921875 18.109375 30.90625 
L 18.109375 0 
L 9.078125 0 
L 9.078125 54.6875 
L 18.109375 54.6875 
L 18.109375 46.1875 
Q 21.34375 51.125 25.703125 53.5625 
Q 30.078125 56 35.796875 56 
Q 45.21875 56 50.046875 50.171875 
Q 54.890625 44.34375 54.890625 33.015625 
" id="BitstreamVeraSans-Roman-6e"/>
      <path d="M 34.28125 27.484375 
Q 23.390625 27.484375 19.1875 25 
Q 14.984375 22.515625 14.984375 16.5 
Q 14.984375 11.71875 18.140625 8.90625 
Q 21.296875 6.109375 26.703125 6.109375 
Q 34.1875 6.109375 38.703125 11.40625 
Q 43.21875 16.703125 43.21875 25.484375 
L 43.21875 27.484375 
z
M 52.203125 31.203125 
L 52.203125 0 
L 43.21875 0 
L 43.21875 8.296875 
Q 40.140625 3.328125 35.546875 0.953125 
Q 30.953125 -1.421875 24.3125 -1.421875 
Q 15.921875 -1.421875 10.953125 3.296875 
Q 6 8.015625 6 15.921875 
Q 6 25.140625 12.171875 29.828125 
Q 18.359375 34.515625 30.609375 34.515625 
L 43.21875 34.515625 
L 43.21875 35.40625 
Q 43.21875 41.609375 39.140625 45 
Q 35.0625 48.390625 27.6875 48.390625 
Q 23 48.390625 18.546875 47.265625 
Q 14.109375 46.140625 10.015625 43.890625 
L 10.015625 52.203125 
Q 14.9375 54.109375 19.578125 55.046875 
Q 24.21875 56 28.609375 56 
Q 40.484375 56 46.34375 49.84375 
Q 52.203125 43.703125 52.203125 31.203125 
" id="BitstreamVeraSans-Roman-61"/>
      <path d="M 30.609375 48.390625 
Q 23.390625 48.390625 19.1875 42.75 
Q 14.984375 37.109375 14.984375 27.296875 
Q 14.984375 17.484375 19.15625 11.84375 
Q 23.34375 6.203125 30.609375 6.203125 
Q 37.796875 6.203125 41.984375 11.859375 
Q 46.1875 17.53125 46.1875 27.296875 
Q 46.1875 37.015625 41.984375 42.703125 
Q 37.796875 48.390625 30.609375 48.390625 
M 30.609375 56 
Q 42.328125 56 49.015625 48.375 
Q 55.71875 40.765625 55.71875 27.296875 
Q 55.71875 13.875 49.015625 6.21875 
Q 42.328125 -1.421875 30.609375 -1.421875 
Q 18.84375 -1.421875 12.171875 6.21875 
Q 5.515625 13.875 5.515625 27.296875 
Q 5.515625 40.765625 12.171875 48.375 
Q 18.84375 56 30.609375 56 
" id="BitstreamVeraSans-Roman-6f"/>
      <path d="M 9.421875 54.6875 
L 18.40625 54.6875 
L 18.40625 0 
L 9.421875 0 
z
M 9.421875 75.984375 
L 18.40625 75.984375 
L 18.40625 64.59375 
L 9.421875 64.59375 
z
" id="BitstreamVeraSans-Roman-69"/>
      <path d="M 56.203125 29.59375 
L 56.203125 25.203125 
L 14.890625 25.203125 
Q 15.484375 15.921875 20.484375 11.0625 
Q 25.484375 6.203125 34.421875 6.203125 
Q 39.59375 6.203125 44.453125 7.46875 
Q 49.3125 8.734375 54.109375 11.28125 
L 54.109375 2.78125 
Q 49.265625 0.734375 44.1875 -0.34375 
Q 39.109375 -1.421875 33.890625 -1.421875 
Q 20.796875 -1.421875 13.15625 6.1875 
Q 5.515625 13.8125 5.515625 26.8125 
Q 5.515625 40.234375 12.765625 48.109375 
Q 20.015625 56 32.328125 56 
Q 43.359375 56 49.78125 48.890625 
Q 56.203125 41.796875 56.203125 29.59375 
M 47.21875 32.234375 
Q 47.125 39.59375 43.09375 43.984375 
Q 39.0625 48.390625 32.421875 48.390625 
Q 24.90625 48.390625 20.390625 44.140625 
Q 15.875 39.890625 15.1875 32.171875 
z
" id="BitstreamVeraSans-Roman-65"/>
      <path d="M 18.3125 70.21875 
L 18.3125 54.6875 
L 36.8125 54.6875 
L 36.8125 47.703125 
L 18.3125 47.703125 
L 18.3125 18.015625 
Q 18.3125 11.328125 20.140625 9.421875 
Q 21.96875 7.515625 27.59375 7.515625 
L 36.8125 7.515625 
L 36.8125 0 
L 27.59375 0 
Q 17.1875 0 13.234375 3.875 
Q 9.28125 7.765625 9.28125 18.015625 
L 9.28125 47.703125 
L 2.6875 47.703125 
L 2.6875 54.6875 
L 9.28125 54.6875 
L 9.28125 70.21875 
z
" id="BitstreamVeraSans-Roman-74"/>
      <path d="M 41.109375 46.296875 
Q 39.59375 47.171875 37.8125 47.578125 
Q 36.03125 48 33.890625 48 
Q 26.265625 48 22.1875 43.046875 
Q 18.109375 38.09375 18.109375 28.8125 
L 18.109375 0 
L 9.078125 0 
L 9.078125 54.6875 
L 18.109375 54.6875 
L 18.109375 46.1875 
Q 20.953125 51.171875 25.484375 53.578125 
Q 30.03125 56 36.53125 56 
Q 37.453125 56 38.578125 55.875 
Q 39.703125 55.765625 41.0625 55.515625 
z
" id="BitstreamVeraSans-Roman-72"/>
      <path d="M 44.28125 53.078125 
L 44.28125 44.578125 
Q 40.484375 46.53125 36.375 47.5 
Q 32.28125 48.484375 27.875 48.484375 
Q 21.1875 48.484375 17.84375 46.4375 
Q 14.5 44.390625 14.5 40.28125 
Q 14.5 37.15625 16.890625 35.375 
Q 19.28125 33.59375 26.515625 31.984375 
L 29.59375 31.296875 
Q 39.15625 29.25 43.1875 25.515625 
Q 47.21875 21.78125 47.21875 15.09375 
Q 47.21875 7.46875 41.1875 3.015625 
Q 35.15625 -1.421875 24.609375 -1.421875 
Q 20.21875 -1.421875 15.453125 -0.5625 
Q 10.6875 0.296875 5.421875 2 
L 5.421875 11.28125 
Q 10.40625 8.6875 15.234375 7.390625 
Q 20.0625 6.109375 24.8125 6.109375 
Q 31.15625 6.109375 34.5625 8.28125 
Q 37.984375 10.453125 37.984375 14.40625 
Q 37.984375 18.0625 35.515625 20.015625 
Q 33.0625 21.96875 24.703125 23.78125 
L 21.578125 24.515625 
Q 13.234375 26.265625 9.515625 29.90625 
Q 5.8125 33.546875 5.8125 39.890625 
Q 5.8125 47.609375 11.28125 51.796875 
Q 16.75 56 26.8125 56 
Q 31.78125 56 36.171875 55.265625 
Q 40.578125 54.546875 44.28125 53.078125 
" id="BitstreamVeraSans-Roman-73"/>
     </defs>
     <g transform="translate(693.93046875 807.8296875)scale(0.3 -0.3)">
      <use xlink:href="#BitstreamVeraSans-Roman-69"/>
      <use x="27.783203125" xlink:href="#BitstreamVeraSans-Roman-74"/>
      <use x="66.9921875" xlink:href="#BitstreamVeraSans-Roman-65"/>
      <use x="128.515625" xlink:href="#BitstreamVeraSans-Roman-72"/>
      <use x="169.62890625" xlink:href="#BitstreamVeraSans-Roman-61"/>
      <use x="230.908203125" xlink:href="#BitstreamVeraSans-Roman-74"/>
      <use x="270.1171875" xlink:href="#BitstreamVeraSans-Roman-69"/>
      <use x="297.900390625" xlink:href="#BitstreamVeraSans-Roman-6f"/>
      <use x="359.08203125" xlink:href="#BitstreamVeraSans-Roman-6e"/>
      <use x="422.4609375" xlink:href="#BitstreamVeraSans-Roman-73"/>
     </g>
    </g>
   </g>
   <g id="matplotlib.axis_2">
    <g id="ytick_1">
     <g id="line2d_15">
      <defs>
       <path d="M 0 0 
L 4 0 
" id="m17539c7c8c" style="stroke:#000000;stroke-width:0.5;"/>
      </defs>
      <g>
       <use style="stroke:#000000;stroke-width:0.5;" x="158.4" xlink:href="#m17539c7c8c" y="747.0"/>
      </g>
     </g>
     <g id="line2d_16">
      <defs>
       <path d="M 0 0 
L -4 0 
" id="m379b7550d1" style="stroke:#000000;stroke-width:0.5;"/>
      </defs>
      <g>
       <use style="stroke:#000000;stroke-width:0.5;" x="1371.825" xlink:href="#m379b7550d1" y="747.0"/>
      </g>
     </g>
     <g id="text_8">
      <!-- −60 -->
      <defs>
       <path d="M 10.59375 35.5 
L 73.1875 35.5 
L 73.1875 27.203125 
L 10.59375 27.203125 
z
" id="BitstreamVeraSans-Roman-2212"/>
       <path d="M 33.015625 40.375 
Q 26.375 40.375 22.484375 35.828125 
Q 18.609375 31.296875 18.609375 23.390625 
Q 18.609375 15.53125 22.484375 10.953125 
Q 26.375 6.390625 33.015625 6.390625 
Q 39.65625 6.390625 43.53125 10.953125 
Q 47.40625 15.53125 47.40625 23.390625 
Q 47.40625 31.296875 43.53125 35.828125 
Q 39.65625 40.375 33.015625 40.375 
M 52.59375 71.296875 
L 52.59375 62.3125 
Q 48.875 64.0625 45.09375 64.984375 
Q 41.3125 65.921875 37.59375 65.921875 
Q 27.828125 65.921875 22.671875 59.328125 
Q 17.53125 52.734375 16.796875 39.40625 
Q 19.671875 43.65625 24.015625 45.921875 
Q 28.375 48.1875 33.59375 48.1875 
Q 44.578125 48.1875 50.953125 41.515625 
Q 57.328125 34.859375 57.328125 23.390625 
Q 57.328125 12.15625 50.6875 5.359375 
Q 44.046875 -1.421875 33.015625 -1.421875 
Q 20.359375 -1.421875 13.671875 8.265625 
Q 6.984375 17.96875 6.984375 36.375 
Q 6.984375 53.65625 15.1875 63.9375 
Q 23.390625 74.21875 37.203125 74.21875 
Q 40.921875 74.21875 44.703125 73.484375 
Q 48.484375 72.75 52.59375 71.296875 
" id="BitstreamVeraSans-Roman-36"/>
      </defs>
      <g transform="translate(91.0859375 755.278125)scale(0.3 -0.3)">
       <use xlink:href="#BitstreamVeraSans-Roman-2212"/>
       <use x="83.7890625" xlink:href="#BitstreamVeraSans-Roman-36"/>
       <use x="147.412109375" xlink:href="#BitstreamVeraSans-Roman-30"/>
      </g>
     </g>
    </g>
    <g id="ytick_2">
     <g id="line2d_17">
      <g>
       <use style="stroke:#000000;stroke-width:0.5;" x="158.4" xlink:href="#m17539c7c8c" y="660.0375"/>
      </g>
     </g>
     <g id="line2d_18">
      <g>
       <use style="stroke:#000000;stroke-width:0.5;" x="1371.825" xlink:href="#m379b7550d1" y="660.0375"/>
      </g>
     </g>
     <g id="text_9">
      <!-- −50 -->
      <g transform="translate(91.0859375 668.315625)scale(0.3 -0.3)">
       <use xlink:href="#BitstreamVeraSans-Roman-2212"/>
       <use x="83.7890625" xlink:href="#BitstreamVeraSans-Roman-35"/>
       <use x="147.412109375" xlink:href="#BitstreamVeraSans-Roman-30"/>
      </g>
     </g>
    </g>
    <g id="ytick_3">
     <g id="line2d_19">
      <g>
       <use style="stroke:#000000;stroke-width:0.5;" x="158.4" xlink:href="#m17539c7c8c" y="573.075"/>
      </g>
     </g>
     <g id="line2d_20">
      <g>
       <use style="stroke:#000000;stroke-width:0.5;" x="1371.825" xlink:href="#m379b7550d1" y="573.075"/>
      </g>
     </g>
     <g id="text_10">
      <!-- −40 -->
      <g transform="translate(91.0859375 581.353125)scale(0.3 -0.3)">
       <use xlink:href="#BitstreamVeraSans-Roman-2212"/>
       <use x="83.7890625" xlink:href="#BitstreamVeraSans-Roman-34"/>
       <use x="147.412109375" xlink:href="#BitstreamVeraSans-Roman-30"/>
      </g>
     </g>
    </g>
    <g id="ytick_4">
     <g id="line2d_21">
      <g>
       <use style="stroke:#000000;stroke-width:0.5;" x="158.4" xlink:href="#m17539c7c8c" y="486.1125"/>
      </g>
     </g>
     <g id="line2d_22">
      <g>
       <use style="stroke:#000000;stroke-width:0.5;" x="1371.825" xlink:href="#m379b7550d1" y="486.1125"/>
      </g>
     </g>
     <g id="text_11">
      <!-- −30 -->
      <g transform="translate(91.0859375 494.390625)scale(0.3 -0.3)">
       <use xlink:href="#BitstreamVeraSans-Roman-2212"/>
       <use x="83.7890625" xlink:href="#BitstreamVeraSans-Roman-33"/>
       <use x="147.412109375" xlink:href="#BitstreamVeraSans-Roman-30"/>
      </g>
     </g>
    </g>
    <g id="ytick_5">
     <g id="line2d_23">
      <g>
       <use style="stroke:#000000;stroke-width:0.5;" x="158.4" xlink:href="#m17539c7c8c" y="399.15"/>
      </g>
     </g>
     <g id="line2d_24">
      <g>
       <use style="stroke:#000000;stroke-width:0.5;" x="1371.825" xlink:href="#m379b7550d1" y="399.15"/>
      </g>
     </g>
     <g id="text_12">
      <!-- −20 -->
      <g transform="translate(91.0859375 407.428125)scale(0.3 -0.3)">
       <use xlink:href="#BitstreamVeraSans-Roman-2212"/>
       <use x="83.7890625" xlink:href="#BitstreamVeraSans-Roman-32"/>
       <use x="147.412109375" xlink:href="#BitstreamVeraSans-Roman-30"/>
      </g>
     </g>
    </g>
    <g id="ytick_6">
     <g id="line2d_25">
      <g>
       <use style="stroke:#000000;stroke-width:0.5;" x="158.4" xlink:href="#m17539c7c8c" y="312.1875"/>
      </g>
     </g>
     <g id="line2d_26">
      <g>
       <use style="stroke:#000000;stroke-width:0.5;" x="1371.825" xlink:href="#m379b7550d1" y="312.1875"/>
      </g>
     </g>
     <g id="text_13">
      <!-- −10 -->
      <g transform="translate(91.0859375 320.465625)scale(0.3 -0.3)">
       <use xlink:href="#BitstreamVeraSans-Roman-2212"/>
       <use x="83.7890625" xlink:href="#BitstreamVeraSans-Roman-31"/>
       <use x="147.412109375" xlink:href="#BitstreamVeraSans-Roman-30"/>
      </g>
     </g>
    </g>
    <g id="ytick_7">
     <g id="line2d_27">
      <g>
       <use style="stroke:#000000;stroke-width:0.5;" x="158.4" xlink:href="#m17539c7c8c" y="225.225"/>
      </g>
     </g>
     <g id="line2d_28">
      <g>
       <use style="stroke:#000000;stroke-width:0.5;" x="1371.825" xlink:href="#m379b7550d1" y="225.225"/>
      </g>
     </g>
     <g id="text_14">
      <!-- 0 -->
      <g transform="translate(135.3125 233.503125)scale(0.3 -0.3)">
       <use xlink:href="#BitstreamVeraSans-Roman-30"/>
      </g>
     </g>
    </g>
    <g id="ytick_8">
     <g id="line2d_29">
      <g>
       <use style="stroke:#000000;stroke-width:0.5;" x="158.4" xlink:href="#m17539c7c8c" y="138.2625"/>
      </g>
     </g>
     <g id="line2d_30">
      <g>
       <use style="stroke:#000000;stroke-width:0.5;" x="1371.825" xlink:href="#m379b7550d1" y="138.2625"/>
      </g>
     </g>
     <g id="text_15">
      <!-- 10 -->
      <g transform="translate(116.225 146.540625)scale(0.3 -0.3)">
       <use xlink:href="#BitstreamVeraSans-Roman-31"/>
       <use x="63.623046875" xlink:href="#BitstreamVeraSans-Roman-30"/>
      </g>
     </g>
    </g>
    <g id="ytick_9">
     <g id="line2d_31">
      <g>
       <use style="stroke:#000000;stroke-width:0.5;" x="158.4" xlink:href="#m17539c7c8c" y="51.3"/>
      </g>
     </g>
     <g id="line2d_32">
      <g>
       <use style="stroke:#000000;stroke-width:0.5;" x="1371.825" xlink:href="#m379b7550d1" y="51.3"/>
      </g>
     </g>
     <g id="text_16">
      <!-- 20 -->
      <g transform="translate(116.225 59.578125)scale(0.3 -0.3)">
       <use xlink:href="#BitstreamVeraSans-Roman-32"/>
       <use x="63.623046875" xlink:href="#BitstreamVeraSans-Roman-30"/>
      </g>
     </g>
    </g>
    <g id="text_17">
     <!-- log(loss) -->
     <defs>
      <path d="M 8.015625 75.875 
L 15.828125 75.875 
Q 23.140625 64.359375 26.78125 53.3125 
Q 30.421875 42.28125 30.421875 31.390625 
Q 30.421875 20.453125 26.78125 9.375 
Q 23.140625 -1.703125 15.828125 -13.1875 
L 8.015625 -13.1875 
Q 14.5 -2 17.703125 9.0625 
Q 20.90625 20.125 20.90625 31.390625 
Q 20.90625 42.671875 17.703125 53.65625 
Q 14.5 64.65625 8.015625 75.875 
" id="BitstreamVeraSans-Roman-29"/>
      <path d="M 31 75.875 
Q 24.46875 64.65625 21.28125 53.65625 
Q 18.109375 42.671875 18.109375 31.390625 
Q 18.109375 20.125 21.3125 9.0625 
Q 24.515625 -2 31 -13.1875 
L 23.1875 -13.1875 
Q 15.875 -1.703125 12.234375 9.375 
Q 8.59375 20.453125 8.59375 31.390625 
Q 8.59375 42.28125 12.203125 53.3125 
Q 15.828125 64.359375 23.1875 75.875 
z
" id="BitstreamVeraSans-Roman-28"/>
      <path d="M 45.40625 27.984375 
Q 45.40625 37.75 41.375 43.109375 
Q 37.359375 48.484375 30.078125 48.484375 
Q 22.859375 48.484375 18.828125 43.109375 
Q 14.796875 37.75 14.796875 27.984375 
Q 14.796875 18.265625 18.828125 12.890625 
Q 22.859375 7.515625 30.078125 7.515625 
Q 37.359375 7.515625 41.375 12.890625 
Q 45.40625 18.265625 45.40625 27.984375 
M 54.390625 6.78125 
Q 54.390625 -7.171875 48.1875 -13.984375 
Q 42 -20.796875 29.203125 -20.796875 
Q 24.46875 -20.796875 20.265625 -20.09375 
Q 16.0625 -19.390625 12.109375 -17.921875 
L 12.109375 -9.1875 
Q 16.0625 -11.328125 19.921875 -12.34375 
Q 23.78125 -13.375 27.78125 -13.375 
Q 36.625 -13.375 41.015625 -8.765625 
Q 45.40625 -4.15625 45.40625 5.171875 
L 45.40625 9.625 
Q 42.625 4.78125 38.28125 2.390625 
Q 33.9375 0 27.875 0 
Q 17.828125 0 11.671875 7.65625 
Q 5.515625 15.328125 5.515625 27.984375 
Q 5.515625 40.671875 11.671875 48.328125 
Q 17.828125 56 27.875 56 
Q 33.9375 56 38.28125 53.609375 
Q 42.625 51.21875 45.40625 46.390625 
L 45.40625 54.6875 
L 54.390625 54.6875 
z
" id="BitstreamVeraSans-Roman-67"/>
      <path d="M 9.421875 75.984375 
L 18.40625 75.984375 
L 18.40625 0 
L 9.421875 0 
z
" id="BitstreamVeraSans-Roman-6c"/>
     </defs>
     <g transform="translate(79.846875 462.69609375)rotate(-90.0)scale(0.3 -0.3)">
      <use xlink:href="#BitstreamVeraSans-Roman-6c"/>
      <use x="27.783203125" xlink:href="#BitstreamVeraSans-Roman-6f"/>
      <use x="88.96484375" xlink:href="#BitstreamVeraSans-Roman-67"/>
      <use x="152.44140625" xlink:href="#BitstreamVeraSans-Roman-28"/>
      <use x="191.455078125" xlink:href="#BitstreamVeraSans-Roman-6c"/>
      <use x="219.23828125" xlink:href="#BitstreamVeraSans-Roman-6f"/>
      <use x="280.419921875" xlink:href="#BitstreamVeraSans-Roman-73"/>
      <use x="332.51953125" xlink:href="#BitstreamVeraSans-Roman-73"/>
      <use x="384.619140625" xlink:href="#BitstreamVeraSans-Roman-29"/>
     </g>
    </g>
   </g>
   <g id="legend_1">
    <g id="patch_7">
     <path d="M 879.651562 163.36875 
L 1356.825 163.36875 
L 1356.825 66.3 
L 879.651562 66.3 
z
" style="fill:#ffffff;stroke:#000000;stroke-linejoin:miter;"/>
    </g>
    <g id="line2d_33">
     <path d="M 900.651562 90.595312 
L 942.651562 90.595312 
" style="fill:none;stroke:#0000ff;stroke-linecap:square;stroke-width:2.0;"/>
    </g>
    <g id="line2d_34"/>
    <g id="text_18">
     <!-- random: step=0.009776 -->
     <defs>
      <path id="BitstreamVeraSans-Roman-20"/>
      <path d="M 8.203125 72.90625 
L 55.078125 72.90625 
L 55.078125 68.703125 
L 28.609375 0 
L 18.3125 0 
L 43.21875 64.59375 
L 8.203125 64.59375 
z
" id="BitstreamVeraSans-Roman-37"/>
      <path d="M 52 44.1875 
Q 55.375 50.25 60.0625 53.125 
Q 64.75 56 71.09375 56 
Q 79.640625 56 84.28125 50.015625 
Q 88.921875 44.046875 88.921875 33.015625 
L 88.921875 0 
L 79.890625 0 
L 79.890625 32.71875 
Q 79.890625 40.578125 77.09375 44.375 
Q 74.3125 48.1875 68.609375 48.1875 
Q 61.625 48.1875 57.5625 43.546875 
Q 53.515625 38.921875 53.515625 30.90625 
L 53.515625 0 
L 44.484375 0 
L 44.484375 32.71875 
Q 44.484375 40.625 41.703125 44.40625 
Q 38.921875 48.1875 33.109375 48.1875 
Q 26.21875 48.1875 22.15625 43.53125 
Q 18.109375 38.875 18.109375 30.90625 
L 18.109375 0 
L 9.078125 0 
L 9.078125 54.6875 
L 18.109375 54.6875 
L 18.109375 46.1875 
Q 21.1875 51.21875 25.484375 53.609375 
Q 29.78125 56 35.6875 56 
Q 41.65625 56 45.828125 52.96875 
Q 50 49.953125 52 44.1875 
" id="BitstreamVeraSans-Roman-6d"/>
      <path d="M 10.984375 1.515625 
L 10.984375 10.5 
Q 14.703125 8.734375 18.5 7.8125 
Q 22.3125 6.890625 25.984375 6.890625 
Q 35.75 6.890625 40.890625 13.453125 
Q 46.046875 20.015625 46.78125 33.40625 
Q 43.953125 29.203125 39.59375 26.953125 
Q 35.25 24.703125 29.984375 24.703125 
Q 19.046875 24.703125 12.671875 31.3125 
Q 6.296875 37.9375 6.296875 49.421875 
Q 6.296875 60.640625 12.9375 67.421875 
Q 19.578125 74.21875 30.609375 74.21875 
Q 43.265625 74.21875 49.921875 64.515625 
Q 56.59375 54.828125 56.59375 36.375 
Q 56.59375 19.140625 48.40625 8.859375 
Q 40.234375 -1.421875 26.421875 -1.421875 
Q 22.703125 -1.421875 18.890625 -0.6875 
Q 15.09375 0.046875 10.984375 1.515625 
M 30.609375 32.421875 
Q 37.25 32.421875 41.125 36.953125 
Q 45.015625 41.5 45.015625 49.421875 
Q 45.015625 57.28125 41.125 61.84375 
Q 37.25 66.40625 30.609375 66.40625 
Q 23.96875 66.40625 20.09375 61.84375 
Q 16.21875 57.28125 16.21875 49.421875 
Q 16.21875 41.5 20.09375 36.953125 
Q 23.96875 32.421875 30.609375 32.421875 
" id="BitstreamVeraSans-Roman-39"/>
      <path d="M 11.71875 12.40625 
L 22.015625 12.40625 
L 22.015625 0 
L 11.71875 0 
z
M 11.71875 51.703125 
L 22.015625 51.703125 
L 22.015625 39.3125 
L 11.71875 39.3125 
z
" id="BitstreamVeraSans-Roman-3a"/>
      <path d="M 10.6875 12.40625 
L 21 12.40625 
L 21 0 
L 10.6875 0 
z
" id="BitstreamVeraSans-Roman-2e"/>
      <path d="M 10.59375 45.40625 
L 73.1875 45.40625 
L 73.1875 37.203125 
L 10.59375 37.203125 
z
M 10.59375 25.484375 
L 73.1875 25.484375 
L 73.1875 17.1875 
L 10.59375 17.1875 
z
" id="BitstreamVeraSans-Roman-3d"/>
      <path d="M 45.40625 46.390625 
L 45.40625 75.984375 
L 54.390625 75.984375 
L 54.390625 0 
L 45.40625 0 
L 45.40625 8.203125 
Q 42.578125 3.328125 38.25 0.953125 
Q 33.9375 -1.421875 27.875 -1.421875 
Q 17.96875 -1.421875 11.734375 6.484375 
Q 5.515625 14.40625 5.515625 27.296875 
Q 5.515625 40.1875 11.734375 48.09375 
Q 17.96875 56 27.875 56 
Q 33.9375 56 38.25 53.625 
Q 42.578125 51.265625 45.40625 46.390625 
M 14.796875 27.296875 
Q 14.796875 17.390625 18.875 11.75 
Q 22.953125 6.109375 30.078125 6.109375 
Q 37.203125 6.109375 41.296875 11.75 
Q 45.40625 17.390625 45.40625 27.296875 
Q 45.40625 37.203125 41.296875 42.84375 
Q 37.203125 48.484375 30.078125 48.484375 
Q 22.953125 48.484375 18.875 42.84375 
Q 14.796875 37.203125 14.796875 27.296875 
" id="BitstreamVeraSans-Roman-64"/>
      <path d="M 18.109375 8.203125 
L 18.109375 -20.796875 
L 9.078125 -20.796875 
L 9.078125 54.6875 
L 18.109375 54.6875 
L 18.109375 46.390625 
Q 20.953125 51.265625 25.265625 53.625 
Q 29.59375 56 35.59375 56 
Q 45.5625 56 51.78125 48.09375 
Q 58.015625 40.1875 58.015625 27.296875 
Q 58.015625 14.40625 51.78125 6.484375 
Q 45.5625 -1.421875 35.59375 -1.421875 
Q 29.59375 -1.421875 25.265625 0.953125 
Q 20.953125 3.328125 18.109375 8.203125 
M 48.6875 27.296875 
Q 48.6875 37.203125 44.609375 42.84375 
Q 40.53125 48.484375 33.40625 48.484375 
Q 26.265625 48.484375 22.1875 42.84375 
Q 18.109375 37.203125 18.109375 27.296875 
Q 18.109375 17.390625 22.1875 11.75 
Q 26.265625 6.109375 33.40625 6.109375 
Q 40.53125 6.109375 44.609375 11.75 
Q 48.6875 17.390625 48.6875 27.296875 
" id="BitstreamVeraSans-Roman-70"/>
     </defs>
     <g transform="translate(975.6515625 101.0953125)scale(0.3 -0.3)">
      <use xlink:href="#BitstreamVeraSans-Roman-72"/>
      <use x="41.11328125" xlink:href="#BitstreamVeraSans-Roman-61"/>
      <use x="102.392578125" xlink:href="#BitstreamVeraSans-Roman-6e"/>
      <use x="165.771484375" xlink:href="#BitstreamVeraSans-Roman-64"/>
      <use x="229.248046875" xlink:href="#BitstreamVeraSans-Roman-6f"/>
      <use x="290.4296875" xlink:href="#BitstreamVeraSans-Roman-6d"/>
      <use x="387.841796875" xlink:href="#BitstreamVeraSans-Roman-3a"/>
      <use x="421.533203125" xlink:href="#BitstreamVeraSans-Roman-20"/>
      <use x="453.3203125" xlink:href="#BitstreamVeraSans-Roman-73"/>
      <use x="505.419921875" xlink:href="#BitstreamVeraSans-Roman-74"/>
      <use x="544.62890625" xlink:href="#BitstreamVeraSans-Roman-65"/>
      <use x="606.15234375" xlink:href="#BitstreamVeraSans-Roman-70"/>
      <use x="669.62890625" xlink:href="#BitstreamVeraSans-Roman-3d"/>
      <use x="753.41796875" xlink:href="#BitstreamVeraSans-Roman-30"/>
      <use x="817.041015625" xlink:href="#BitstreamVeraSans-Roman-2e"/>
      <use x="848.828125" xlink:href="#BitstreamVeraSans-Roman-30"/>
      <use x="912.451171875" xlink:href="#BitstreamVeraSans-Roman-30"/>
      <use x="976.07421875" xlink:href="#BitstreamVeraSans-Roman-39"/>
      <use x="1039.69726562" xlink:href="#BitstreamVeraSans-Roman-37"/>
      <use x="1103.3203125" xlink:href="#BitstreamVeraSans-Roman-37"/>
      <use x="1166.94335938" xlink:href="#BitstreamVeraSans-Roman-36"/>
     </g>
    </g>
    <g id="line2d_35">
     <path d="M 900.651562 134.629687 
L 942.651562 134.629687 
" style="fill:none;stroke:#008000;stroke-linecap:square;stroke-width:2.0;"/>
    </g>
    <g id="line2d_36"/>
    <g id="text_19">
     <!-- corr: step=0.009776 -->
     <defs>
      <path d="M 48.78125 52.59375 
L 48.78125 44.1875 
Q 44.96875 46.296875 41.140625 47.34375 
Q 37.3125 48.390625 33.40625 48.390625 
Q 24.65625 48.390625 19.8125 42.84375 
Q 14.984375 37.3125 14.984375 27.296875 
Q 14.984375 17.28125 19.8125 11.734375 
Q 24.65625 6.203125 33.40625 6.203125 
Q 37.3125 6.203125 41.140625 7.25 
Q 44.96875 8.296875 48.78125 10.40625 
L 48.78125 2.09375 
Q 45.015625 0.34375 40.984375 -0.53125 
Q 36.96875 -1.421875 32.421875 -1.421875 
Q 20.0625 -1.421875 12.78125 6.34375 
Q 5.515625 14.109375 5.515625 27.296875 
Q 5.515625 40.671875 12.859375 48.328125 
Q 20.21875 56 33.015625 56 
Q 37.15625 56 41.109375 55.140625 
Q 45.0625 54.296875 48.78125 52.59375 
" id="BitstreamVeraSans-Roman-63"/>
     </defs>
     <g transform="translate(975.6515625 145.1296875)scale(0.3 -0.3)">
      <use xlink:href="#BitstreamVeraSans-Roman-63"/>
      <use x="54.98046875" xlink:href="#BitstreamVeraSans-Roman-6f"/>
      <use x="116.162109375" xlink:href="#BitstreamVeraSans-Roman-72"/>
      <use x="157.259765625" xlink:href="#BitstreamVeraSans-Roman-72"/>
      <use x="198.357421875" xlink:href="#BitstreamVeraSans-Roman-3a"/>
      <use x="232.048828125" xlink:href="#BitstreamVeraSans-Roman-20"/>
      <use x="263.8359375" xlink:href="#BitstreamVeraSans-Roman-73"/>
      <use x="315.935546875" xlink:href="#BitstreamVeraSans-Roman-74"/>
      <use x="355.14453125" xlink:href="#BitstreamVeraSans-Roman-65"/>
      <use x="416.66796875" xlink:href="#BitstreamVeraSans-Roman-70"/>
      <use x="480.14453125" xlink:href="#BitstreamVeraSans-Roman-3d"/>
      <use x="563.93359375" xlink:href="#BitstreamVeraSans-Roman-30"/>
      <use x="627.556640625" xlink:href="#BitstreamVeraSans-Roman-2e"/>
      <use x="659.34375" xlink:href="#BitstreamVeraSans-Roman-30"/>
      <use x="722.966796875" xlink:href="#BitstreamVeraSans-Roman-30"/>
      <use x="786.58984375" xlink:href="#BitstreamVeraSans-Roman-39"/>
      <use x="850.212890625" xlink:href="#BitstreamVeraSans-Roman-37"/>
      <use x="913.8359375" xlink:href="#BitstreamVeraSans-Roman-37"/>
      <use x="977.458984375" xlink:href="#BitstreamVeraSans-Roman-36"/>
     </g>
    </g>
   </g>
  </g>
 </g>
 <defs>
  <clipPath id="p5b0cc0e870">
   <rect height="695.7" width="1213.425" x="158.4" y="51.3"/>
  </clipPath>
 </defs>
</svg>
