<?xml version="1.0" encoding="utf-8" standalone="no"?>
<!DOCTYPE svg PUBLIC "-//W3C//DTD SVG 1.1//EN"
  "http://www.w3.org/Graphics/SVG/1.1/DTD/svg11.dtd">
<!-- Created with matplotlib (http://matplotlib.org/) -->
<svg height="864pt" version="1.1" viewBox="0 0 1440 864" width="1440pt" xmlns="http://www.w3.org/2000/svg" xmlns:xlink="http://www.w3.org/1999/xlink">
 <defs>
  <style type="text/css">
*{stroke-linecap:butt;stroke-linejoin:round;stroke-miterlimit:100000;}
  </style>
 </defs>
 <g id="figure_1">
  <g id="patch_1">
   <path d="M 0 864 
L 1440 864 
L 1440 0 
L 0 0 
z
" style="fill:#ffffff;"/>
  </g>
  <g id="axes_1">
   <g id="patch_2">
    <path d="M 158.4 747 
L 1359.9 747 
L 1359.9 51.3 
L 158.4 51.3 
z
" style="fill:#ffffff;"/>
   </g>
   <g id="line2d_1">
    <path clip-path="url(#pc31f538248)" d="M 158.4 117.003599 
L 159.6015 117.662145 
L 160.803 120.234002 
L 162.0045 121.125409 
L 163.206 123.379937 
L 164.4075 125.364631 
L 165.609 127.665476 
L 166.8105 129.078133 
L 168.012 131.011314 
L 169.2135 132.336181 
L 170.415 133.024213 
L 171.6165 134.428157 
L 172.818 136.674499 
L 174.0195 138.609058 
L 175.221 139.280209 
L 178.8255 143.651053 
L 180.027 144.681392 
L 182.43 147.867631 
L 183.6315 149.200042 
L 184.833 150.167724 
L 186.0345 152.224282 
L 189.639 159.165267 
L 190.8405 160.61492 
L 192.042 162.847706 
L 193.2435 164.291869 
L 194.445 165.541988 
L 196.848 168.526228 
L 198.0495 170.607566 
L 199.251 172.436994 
L 200.4525 173.549129 
L 201.654 174.430039 
L 204.057 177.72829 
L 205.2585 178.692163 
L 206.46 180.319769 
L 207.6615 180.823739 
L 208.863 183.093987 
L 210.0645 184.937259 
L 211.266 186.560528 
L 212.4675 187.72622 
L 213.669 189.337905 
L 214.8705 190.72949 
L 216.072 191.888281 
L 222.0795 200.653512 
L 224.4825 204.802541 
L 225.684 206.155148 
L 226.8855 207.264712 
L 228.087 209.331036 
L 229.2885 210.950828 
L 230.49 212.309976 
L 231.6915 213.368121 
L 232.893 215.372438 
L 234.0945 216.51402 
L 236.4975 220.429188 
L 237.699 221.817144 
L 238.9005 222.526332 
L 240.102 223.703764 
L 241.3035 225.379533 
L 242.505 226.555588 
L 243.7065 227.901471 
L 246.1095 230.032904 
L 247.311 231.706 
L 248.5125 232.703565 
L 249.714 233.965431 
L 250.9155 235.456178 
L 253.3185 239.199487 
L 254.52 240.655107 
L 255.7215 242.654674 
L 256.923 244.231684 
L 258.1245 245.167855 
L 260.5275 249.504582 
L 261.729 250.825855 
L 262.9305 250.894532 
L 264.132 251.919186 
L 265.3335 253.624901 
L 266.535 254.968729 
L 267.7365 257.280911 
L 268.938 258.17127 
L 271.341 261.906197 
L 272.5425 263.305976 
L 273.744 264.385077 
L 274.9455 265.646862 
L 276.147 267.40822 
L 277.3485 268.967261 
L 278.55 270.849757 
L 280.953 272.899423 
L 282.1545 274.174733 
L 283.356 275.898693 
L 285.759 277.989322 
L 289.3635 283.201946 
L 291.7665 286.016448 
L 294.1695 288.238303 
L 295.371 290.469908 
L 297.774 293.140596 
L 298.9755 295.1723 
L 300.177 296.661625 
L 301.3785 298.411527 
L 302.58 299.646842 
L 303.7815 301.58938 
L 304.983 302.916048 
L 307.386 304.786818 
L 308.5875 306.78764 
L 309.789 308.269577 
L 310.9905 310.109501 
L 312.192 311.651993 
L 313.3935 312.693478 
L 314.595 314.19634 
L 315.7965 315.288811 
L 316.998 316.983848 
L 318.1995 318.089673 
L 320.6025 320.643606 
L 321.804 322.725197 
L 324.207 326.128736 
L 325.4085 327.710169 
L 326.61 328.881131 
L 327.8115 330.384947 
L 329.013 331.683342 
L 330.2145 333.861178 
L 332.6175 337.005848 
L 333.819 338.339756 
L 335.0205 339.317026 
L 336.222 340.662778 
L 337.4235 342.455166 
L 339.8265 344.92922 
L 341.028 345.925267 
L 342.2295 347.071366 
L 344.6325 349.642522 
L 345.834 350.451703 
L 348.237 355.084237 
L 349.4385 356.844014 
L 351.8415 359.935679 
L 353.043 362.00591 
L 354.2445 363.825941 
L 355.446 365.365246 
L 357.849 367.273009 
L 359.0505 369.038433 
L 360.252 370.071936 
L 361.4535 372.773887 
L 362.655 374.128586 
L 363.8565 376.570289 
L 365.058 377.713842 
L 366.2595 379.495977 
L 368.6625 381.467692 
L 369.864 383.315369 
L 371.0655 384.319283 
L 372.267 385.566365 
L 373.4685 387.414956 
L 374.67 388.882537 
L 375.8715 391.133641 
L 377.073 392.862319 
L 378.2745 394.105272 
L 379.476 394.916586 
L 381.879 397.904503 
L 384.282 401.107854 
L 385.4835 402.21119 
L 386.685 404.018575 
L 387.8865 406.391575 
L 389.088 408.474522 
L 390.2895 410.273158 
L 391.491 411.668911 
L 393.894 415.119655 
L 395.0955 416.967817 
L 398.7 421.711504 
L 399.9015 423.047304 
L 401.103 424.615983 
L 402.3045 425.831804 
L 404.7075 429.392289 
L 405.909 430.103169 
L 407.1105 432.156494 
L 408.312 434.450786 
L 409.5135 436.238509 
L 410.715 437.528432 
L 411.9165 439.753297 
L 413.118 441.365903 
L 414.3195 443.913834 
L 416.7225 447.130595 
L 417.924 448.28216 
L 420.327 451.621489 
L 422.73 453.867363 
L 423.9315 455.341921 
L 425.133 456.296934 
L 427.536 459.937495 
L 428.7375 461.124756 
L 429.939 462.077222 
L 431.1405 463.994931 
L 432.342 465.413637 
L 433.5435 467.211356 
L 434.745 468.228609 
L 435.9465 469.947247 
L 437.148 472.298542 
L 438.3495 474.240994 
L 439.551 475.465712 
L 440.7525 477.807499 
L 441.954 478.976011 
L 443.1555 479.797699 
L 444.357 481.388385 
L 445.5585 482.758335 
L 446.76 484.720357 
L 449.163 486.766342 
L 451.566 490.064313 
L 452.7675 491.820177 
L 453.969 494.505409 
L 456.372 497.551093 
L 458.775 501.882717 
L 461.178 504.87385 
L 465.984 510.99172 
L 467.1855 511.740849 
L 468.387 513.271568 
L 469.5885 514.125575 
L 470.79 515.683977 
L 471.9915 517.629003 
L 473.193 519.325193 
L 475.596 521.847575 
L 476.7975 523.471328 
L 477.999 524.371695 
L 479.2005 525.88681 
L 480.402 527.991354 
L 481.6035 529.504457 
L 482.805 530.69729 
L 487.611 536.203122 
L 491.2155 541.789952 
L 492.417 542.750875 
L 493.6185 544.397049 
L 494.82 545.851184 
L 496.0215 548.53988 
L 497.223 550.133055 
L 498.4245 551.055985 
L 499.626 552.216248 
L 500.8275 553.963761 
L 503.2305 556.701245 
L 504.432 558.569948 
L 505.6335 560.21219 
L 506.835 561.403312 
L 508.0365 562.341414 
L 511.641 567.831243 
L 512.8425 568.988219 
L 514.044 571.668457 
L 515.2455 573.06452 
L 516.447 574.633747 
L 518.85 577.392256 
L 520.0515 578.813771 
L 521.253 579.843731 
L 522.4545 581.322094 
L 523.656 583.745831 
L 527.2605 587.558675 
L 528.462 589.007857 
L 529.6635 591.388894 
L 530.865 592.691983 
L 532.0665 594.465469 
L 533.268 595.958987 
L 534.4695 597.660698 
L 535.671 599.801516 
L 536.8725 601.062118 
L 539.2755 603.012315 
L 541.6785 606.32476 
L 542.88 607.710676 
L 544.0815 609.770547 
L 545.283 611.487137 
L 546.4845 612.927675 
L 547.686 614.752615 
L 548.8875 616.808656 
L 551.2905 619.279325 
L 552.492 621.320612 
L 553.6935 622.592659 
L 554.895 625.421327 
L 558.4995 629.597073 
L 559.701 631.120895 
L 560.9025 633.209454 
L 562.104 634.719524 
L 563.3055 635.831882 
L 565.7085 639.967063 
L 568.1115 642.527981 
L 570.5145 645.328976 
L 571.716 647.295727 
L 574.119 650.058058 
L 575.3205 651.656144 
L 577.7235 655.44591 
L 578.925 656.673926 
L 580.1265 658.250038 
L 581.328 659.497575 
L 582.5295 660.364101 
L 583.731 661.906778 
L 584.9325 663.792131 
L 586.134 664.601319 
L 588.537 667.075525 
L 599.3505 679.801098 
L 600.552 680.836038 
L 601.7535 682.275805 
L 604.1565 685.487734 
L 605.358 686.704314 
L 606.5595 688.356778 
L 607.761 689.760711 
L 608.9625 690.838038 
L 610.164 692.608001 
L 611.3655 693.97993 
L 613.7685 697.52483 
L 614.97 698.646792 
L 616.1715 699.610083 
L 617.373 701.66943 
L 619.776 704.305184 
L 620.9775 705.485198 
L 622.179 706.35722 
L 624.582 709.294645 
L 626.985 710.941244 
L 628.1865 711.591113 
L 629.388 712.626696 
L 630.5895 714.17716 
L 631.791 715.268477 
L 632.9925 717.402822 
L 636.597 720.606823 
L 637.7985 721.100386 
L 639 721.05399 
L 640.2015 721.46234 
L 641.403 722.784523 
L 642.6045 723.415241 
L 643.806 724.279001 
L 647.4105 725.069224 
L 648.612 724.666045 
L 649.8135 724.76768 
L 651.015 725.075239 
L 652.2165 726.147282 
L 653.418 725.634028 
L 654.6195 725.975378 
L 655.821 726.066566 
L 657.0225 725.509616 
L 659.4255 725.680853 
L 660.627 725.533451 
L 661.8285 725.936399 
L 663.03 726.746359 
L 664.2315 725.715998 
L 665.433 725.970858 
L 666.6345 725.502219 
L 667.836 725.354328 
L 669.0375 726.905298 
L 671.4405 727.331677 
L 672.642 727.328736 
L 673.8435 727.025255 
L 676.2465 727.173377 
L 677.448 727.542796 
L 678.6495 728.149714 
L 679.851 727.600306 
L 681.0525 728.157144 
L 682.254 728.074376 
L 683.4555 728.676336 
L 684.657 728.437107 
L 685.8585 728.593547 
L 687.06 727.976089 
L 688.2615 727.549684 
L 689.463 727.617664 
L 690.6645 728.323957 
L 691.866 728.670352 
L 694.269 727.528182 
L 695.4705 727.485531 
L 696.672 727.245722 
L 697.8735 727.858554 
L 699.075 727.787707 
L 701.478 728.127314 
L 702.6795 728.896948 
L 703.881 728.80605 
L 705.0825 729.786993 
L 706.284 729.595211 
L 707.4855 729.527301 
L 708.687 728.602039 
L 709.8885 728.62638 
L 711.09 727.917081 
L 712.2915 728.012343 
L 714.6945 728.673035 
L 715.896 728.223244 
L 717.0975 728.706983 
L 719.5005 728.94137 
L 720.702 729.392692 
L 721.9035 729.096904 
L 723.105 728.591487 
L 724.3065 729.299947 
L 726.7095 728.780863 
L 727.911 729.011289 
L 729.1125 728.829745 
L 730.314 729.095027 
L 731.5155 728.988686 
L 732.717 728.59679 
L 733.9185 728.770566 
L 735.12 728.71929 
L 736.3215 729.452116 
L 737.523 729.270908 
L 738.7245 728.579477 
L 741.1275 727.70322 
L 742.329 728.641567 
L 743.5305 729.024125 
L 744.732 729.967752 
L 745.9335 730.247593 
L 747.135 729.709898 
L 748.3365 729.443067 
L 749.538 729.385756 
L 750.7395 728.988112 
L 751.941 729.315063 
L 753.1425 729.239799 
L 754.344 728.883483 
L 755.5455 729.099968 
L 756.747 728.832258 
L 757.9485 728.744212 
L 759.15 728.793686 
L 760.3515 729.222773 
L 761.553 728.778632 
L 762.7545 728.555596 
L 765.1575 728.402785 
L 766.359 728.556434 
L 767.5605 729.004585 
L 768.762 728.777573 
L 769.9635 728.975123 
L 771.165 729.476626 
L 772.3665 729.013609 
L 773.568 729.488315 
L 774.7695 729.047992 
L 775.971 729.529066 
L 777.1725 729.457197 
L 778.374 730.090177 
L 779.5755 729.98098 
L 780.777 729.048213 
L 781.9785 728.640574 
L 783.18 728.971656 
L 785.583 729.26042 
L 786.7845 728.786798 
L 787.986 729.579061 
L 789.1875 728.902385 
L 791.5905 728.788419 
L 792.792 728.131605 
L 793.9935 728.376886 
L 795.195 728.92394 
L 796.3965 729.108012 
L 797.598 729.00341 
L 798.7995 728.472844 
L 800.001 728.294244 
L 801.2025 728.387416 
L 802.404 728.261828 
L 803.6055 727.951294 
L 804.807 727.785138 
L 806.0085 728.436585 
L 807.21 728.003226 
L 810.8145 728.378499 
L 812.016 728.858493 
L 813.2175 728.323998 
L 814.419 728.910806 
L 816.822 729.259268 
L 818.0235 728.763175 
L 819.225 729.587196 
L 820.4265 729.092027 
L 821.628 728.89231 
L 822.8295 729.23482 
L 824.031 729.058878 
L 825.2325 729.511024 
L 826.434 728.357262 
L 827.6355 729.003417 
L 830.0385 728.750908 
L 831.24 728.367032 
L 834.8445 729.719758 
L 837.2475 729.104065 
L 838.449 728.51456 
L 839.6505 728.509813 
L 840.852 728.619743 
L 842.0535 729.061985 
L 843.255 728.963901 
L 844.4565 729.158415 
L 845.658 729.999911 
L 846.8595 729.090902 
L 849.2625 729.928359 
L 850.464 729.458685 
L 851.6655 729.235091 
L 852.867 729.31496 
L 854.0685 728.980014 
L 855.27 729.220905 
L 856.4715 728.853087 
L 857.673 728.878413 
L 858.8745 727.642514 
L 860.076 728.359356 
L 861.2775 728.298364 
L 862.479 728.469065 
L 863.6805 727.835152 
L 864.882 728.12829 
L 866.0835 728.893168 
L 868.4865 729.434492 
L 869.688 729.273 
L 870.8895 729.415651 
L 872.091 728.764635 
L 873.2925 728.967604 
L 874.494 729.005567 
L 875.6955 728.826072 
L 876.897 728.802415 
L 878.0985 729.230847 
L 880.5015 729.594511 
L 881.703 729.582853 
L 882.9045 728.928681 
L 884.106 729.721103 
L 885.3075 729.561591 
L 886.509 729.618099 
L 887.7105 729.139764 
L 888.912 729.624955 
L 890.1135 729.115092 
L 891.315 729.358772 
L 892.5165 729.802178 
L 893.718 729.19958 
L 894.9195 729.686542 
L 896.121 729.88338 
L 897.3225 729.644587 
L 898.524 729.119171 
L 899.7255 728.984213 
L 900.927 728.974241 
L 902.1285 729.343994 
L 903.33 729.199691 
L 904.5315 729.174497 
L 905.733 729.440925 
L 906.9345 729.0075 
L 909.3375 728.930863 
L 910.539 729.369444 
L 912.942 728.979697 
L 914.1435 728.872987 
L 915.345 728.434178 
L 916.5465 729.202502 
L 921.3525 729.610389 
L 922.554 729.105614 
L 923.7555 728.479011 
L 924.957 728.475995 
L 926.1585 728.048552 
L 927.36 728.65374 
L 928.5615 727.948703 
L 929.763 727.554544 
L 930.9645 727.684472 
L 932.166 728.186685 
L 933.3675 728.931072 
L 934.569 728.54145 
L 935.7705 729.33316 
L 936.972 729.158347 
L 938.1735 729.830036 
L 939.375 729.476944 
L 940.5765 729.30073 
L 941.778 729.587985 
L 942.9795 729.513783 
L 945.3825 728.989722 
L 946.584 729.5558 
L 947.7855 729.443855 
L 948.987 728.74977 
L 950.1885 728.570012 
L 951.39 729.009402 
L 952.5915 728.549759 
L 953.793 728.336432 
L 954.9945 729.429773 
L 957.3975 729.842072 
L 958.599 729.057329 
L 959.8005 728.906025 
L 962.2035 729.158432 
L 963.405 729.545825 
L 964.6065 729.548482 
L 965.808 729.26682 
L 967.0095 728.00018 
L 968.211 727.519293 
L 969.4125 727.490721 
L 970.614 726.281116 
L 973.017 727.23286 
L 974.2185 727.961758 
L 975.42 727.833884 
L 976.6215 727.40694 
L 977.823 727.968807 
L 979.0245 728.160468 
L 980.226 729.141212 
L 981.4275 728.704047 
L 982.629 729.077052 
L 985.032 729.313729 
L 986.2335 729.053716 
L 987.435 728.585175 
L 988.6365 728.800888 
L 989.838 728.529877 
L 991.0395 728.677213 
L 993.4425 728.597731 
L 995.8455 728.600896 
L 997.047 729.005087 
L 998.2485 728.963008 
L 999.45 728.767274 
L 1000.6515 728.336782 
L 1001.853 728.515736 
L 1003.0545 728.116304 
L 1004.256 728.586746 
L 1005.4575 728.79644 
L 1006.659 728.87546 
L 1007.8605 729.393665 
L 1009.062 728.939497 
L 1010.2635 728.742211 
L 1011.465 728.158351 
L 1012.6665 728.40226 
L 1013.868 728.805082 
L 1015.0695 728.970602 
L 1016.271 728.490214 
L 1017.4725 729.171244 
L 1018.674 728.924381 
L 1019.8755 728.074731 
L 1021.077 728.384411 
L 1022.2785 728.387481 
L 1023.48 727.948722 
L 1024.6815 727.928554 
L 1027.0845 728.204572 
L 1028.286 728.455869 
L 1029.4875 728.398272 
L 1033.092 729.510822 
L 1034.2935 729.554269 
L 1035.495 730.445333 
L 1036.6965 729.815999 
L 1039.0995 729.491883 
L 1040.301 729.18292 
L 1041.5025 729.443161 
L 1042.704 729.075143 
L 1043.9055 728.979537 
L 1045.107 729.113294 
L 1046.3085 728.684198 
L 1047.51 729.157536 
L 1048.7115 728.441171 
L 1049.913 728.797242 
L 1051.1145 729.328436 
L 1052.316 730.362098 
L 1053.5175 729.208583 
L 1054.719 728.389148 
L 1055.9205 728.397559 
L 1057.122 728.87314 
L 1058.3235 728.822183 
L 1059.525 729.424448 
L 1060.7265 728.89927 
L 1061.928 729.226837 
L 1065.5325 728.507173 
L 1067.9355 728.718791 
L 1069.137 728.086378 
L 1070.3385 726.9371 
L 1071.54 727.902228 
L 1072.7415 728.145608 
L 1075.1445 728.031188 
L 1076.346 727.812321 
L 1077.5475 728.154257 
L 1078.749 728.024699 
L 1079.9505 728.444993 
L 1081.152 728.191635 
L 1082.3535 728.723258 
L 1083.555 729.010002 
L 1084.7565 728.912764 
L 1085.958 729.102178 
L 1087.1595 728.583184 
L 1088.361 728.31407 
L 1089.5625 728.225674 
L 1090.764 728.803808 
L 1093.167 728.44644 
L 1094.3685 728.975752 
L 1095.57 729.965321 
L 1100.376 730.054483 
L 1102.779 729.168645 
L 1103.9805 729.700978 
L 1105.182 728.520971 
L 1106.3835 728.000507 
L 1107.585 727.877358 
L 1108.7865 728.25371 
L 1109.988 727.307982 
L 1111.1895 727.424283 
L 1113.5925 728.271132 
L 1115.9955 728.30068 
L 1117.197 728.194308 
L 1119.6 729.207298 
L 1120.8015 729.173254 
L 1123.2045 728.480536 
L 1124.406 728.536673 
L 1125.6075 728.194844 
L 1126.809 727.59814 
L 1128.0105 726.805137 
L 1129.212 727.339865 
L 1130.4135 727.422548 
L 1131.615 728.091858 
L 1134.018 727.404993 
L 1135.2195 727.605777 
L 1136.421 727.987998 
L 1137.6225 728.082766 
L 1138.824 727.579812 
L 1140.0255 728.41916 
L 1141.227 727.927253 
L 1142.4285 728.259872 
L 1143.63 728.473138 
L 1144.8315 728.296008 
L 1146.033 727.931597 
L 1147.2345 728.682332 
L 1148.436 728.479812 
L 1149.6375 728.623655 
L 1152.0405 727.91042 
L 1153.242 727.850734 
L 1154.4435 727.940963 
L 1156.8465 727.837308 
L 1158.048 727.29279 
L 1159.2495 727.898405 
L 1161.6525 727.13428 
L 1162.854 726.992604 
L 1164.0555 727.433769 
L 1165.257 727.253344 
L 1166.4585 728.023489 
L 1167.66 728.251063 
L 1170.063 727.501763 
L 1171.2645 727.937342 
L 1172.466 727.510737 
L 1173.6675 728.428384 
L 1174.869 728.667097 
L 1176.0705 728.370726 
L 1177.272 728.921652 
L 1179.675 728.28698 
L 1180.8765 728.512171 
L 1182.078 728.467002 
L 1183.2795 728.121751 
L 1184.481 728.65665 
L 1185.6825 729.069394 
L 1186.884 729.299222 
L 1188.0855 728.565132 
L 1189.287 728.886649 
L 1190.4885 728.037474 
L 1191.69 727.825399 
L 1192.8915 727.787552 
L 1194.093 728.679442 
L 1195.2945 728.992053 
L 1197.6975 728.624119 
L 1198.899 728.08219 
L 1200.1005 728.240151 
L 1201.302 728.193167 
L 1202.5035 728.598027 
L 1203.705 729.434448 
L 1204.9065 729.337087 
L 1206.108 728.944823 
L 1209.7125 729.469194 
L 1210.914 728.529788 
L 1212.1155 729.056989 
L 1213.317 728.878983 
L 1214.5185 728.968348 
L 1215.72 729.295486 
L 1220.526 728.578536 
L 1221.7275 728.810503 
L 1224.1305 728.030787 
L 1225.332 727.948432 
L 1226.5335 728.626467 
L 1227.735 728.575533 
L 1228.9365 728.884815 
L 1230.138 728.504484 
L 1231.3395 728.286238 
L 1232.541 728.332319 
L 1233.7425 728.266938 
L 1234.944 728.313505 
L 1236.1455 727.787609 
L 1237.347 728.346654 
L 1238.5485 728.220778 
L 1239.75 728.436616 
L 1240.9515 728.936544 
L 1242.153 728.494861 
L 1243.3545 728.997024 
L 1245.7575 729.671335 
L 1249.362 729.069244 
L 1250.5635 729.310769 
L 1251.765 728.75941 
L 1252.9665 728.644495 
L 1254.168 728.344455 
L 1255.3695 728.239734 
L 1257.7725 728.227241 
L 1258.974 728.577914 
L 1260.1755 729.138495 
L 1261.377 728.672342 
L 1263.78 729.04454 
L 1264.9815 728.839447 
L 1267.3845 729.102086 
L 1268.586 728.96159 
L 1269.7875 729.143054 
L 1270.989 729.137847 
L 1272.1905 728.512481 
L 1273.392 728.706001 
L 1274.5935 728.532207 
L 1276.9965 729.187125 
L 1278.198 728.757425 
L 1279.3995 729.430188 
L 1280.601 729.383356 
L 1281.8025 729.046724 
L 1283.004 728.92178 
L 1284.2055 729.002213 
L 1285.407 728.155113 
L 1286.6085 728.558475 
L 1287.81 728.687005 
L 1289.0115 728.661605 
L 1290.213 728.969718 
L 1291.4145 728.92228 
L 1292.616 728.748707 
L 1293.8175 728.123946 
L 1295.019 728.50897 
L 1296.2205 728.245893 
L 1297.422 728.615106 
L 1298.6235 728.479248 
L 1299.825 728.566804 
L 1301.0265 728.485919 
L 1302.228 728.843081 
L 1305.8325 729.31557 
L 1307.034 729.089167 
L 1308.2355 729.622441 
L 1309.437 729.601393 
L 1310.6385 729.805619 
L 1311.84 727.847738 
L 1313.0415 727.519187 
L 1314.243 727.588723 
L 1315.4445 727.493513 
L 1321.452 727.846964 
L 1322.6535 728.88624 
L 1326.258 727.996211 
L 1327.4595 728.403771 
L 1328.661 728.619102 
L 1329.8625 728.521122 
L 1331.064 728.749292 
L 1332.2655 728.844104 
L 1333.467 728.498785 
L 1335.87 728.954897 
L 1337.0715 728.523091 
L 1338.273 728.850299 
L 1341.8775 727.76276 
L 1343.079 727.673506 
L 1344.2805 728.122996 
L 1345.482 728.159466 
L 1346.6835 728.529038 
L 1349.0865 728.665466 
L 1350.288 729.318039 
L 1351.4895 728.885482 
L 1352.691 729.146301 
L 1355.094 728.260964 
L 1356.2955 728.102829 
L 1357.497 728.49943 
L 1358.6985 728.743889 
L 1358.6985 728.743889 
" style="fill:none;stroke:#0000ff;stroke-linecap:square;stroke-width:2.0;"/>
   </g>
   <g id="line2d_2">
    <path clip-path="url(#pc31f538248)" d="M 158.4 116.682732 
L 159.6015 118.325196 
L 163.206 122.160924 
L 164.4075 124.440936 
L 166.8105 127.541409 
L 168.012 128.798516 
L 170.415 132.071396 
L 171.6165 133.894814 
L 174.0195 136.093968 
L 175.221 137.655097 
L 176.4225 139.531097 
L 177.624 140.58995 
L 178.8255 142.308008 
L 180.027 145.052635 
L 181.2285 145.607885 
L 182.43 147.280386 
L 184.833 149.799687 
L 187.236 152.838975 
L 188.4375 153.750286 
L 189.639 154.490761 
L 190.8405 155.911669 
L 193.2435 158.310934 
L 194.445 159.863435 
L 196.848 164.074536 
L 198.0495 165.680153 
L 199.251 167.578125 
L 201.654 170.79499 
L 202.8555 172.944153 
L 205.2585 176.498062 
L 206.46 178.435448 
L 207.6615 179.466295 
L 208.863 180.767477 
L 210.0645 182.436284 
L 211.266 183.748708 
L 214.8705 188.513035 
L 217.2735 191.004923 
L 219.6765 193.543005 
L 220.878 195.203982 
L 223.281 199.311534 
L 224.4825 200.310736 
L 225.684 202.01748 
L 226.8855 203.202389 
L 229.2885 206.239131 
L 230.49 207.547809 
L 231.6915 209.041652 
L 232.893 210.714103 
L 235.296 213.26509 
L 238.9005 218.315837 
L 240.102 219.569455 
L 241.3035 221.076945 
L 243.7065 223.463484 
L 247.311 228.321302 
L 249.714 231.213526 
L 250.9155 232.8659 
L 253.3185 236.965164 
L 254.52 238.305378 
L 255.7215 239.916749 
L 256.923 241.159674 
L 260.5275 246.074889 
L 261.729 247.315428 
L 262.9305 249.53551 
L 270.1395 258.439129 
L 271.341 259.418657 
L 272.5425 260.57172 
L 273.744 262.409097 
L 277.3485 266.858842 
L 279.7515 269.186083 
L 282.1545 272.117926 
L 283.356 274.070873 
L 284.5575 275.09989 
L 286.9605 278.297312 
L 288.162 279.267247 
L 294.1695 286.108844 
L 295.371 287.800849 
L 296.5725 289.074518 
L 297.774 291.087334 
L 298.9755 292.003041 
L 301.3785 294.521774 
L 302.58 296.164527 
L 303.7815 297.047627 
L 304.983 298.51693 
L 306.1845 300.517539 
L 307.386 301.9365 
L 308.5875 303.074914 
L 312.192 307.477734 
L 313.3935 308.983951 
L 315.7965 311.362874 
L 316.998 313.433863 
L 318.1995 314.750412 
L 319.401 316.440432 
L 320.6025 317.521243 
L 321.804 318.879754 
L 323.0055 321.047463 
L 325.4085 324.574837 
L 327.8115 329.100373 
L 329.013 330.492731 
L 336.222 340.350326 
L 337.4235 341.402337 
L 343.431 348.325373 
L 348.237 354.924914 
L 349.4385 356.949754 
L 351.8415 359.680301 
L 355.446 364.654694 
L 356.6475 365.999449 
L 357.849 367.556027 
L 359.0505 369.525436 
L 360.252 370.721153 
L 361.4535 371.695874 
L 362.655 372.907489 
L 363.8565 374.394175 
L 365.058 376.147458 
L 366.2595 377.40077 
L 367.461 378.875352 
L 368.6625 380.159374 
L 369.864 381.741738 
L 371.0655 383.12363 
L 372.267 384.232759 
L 373.4685 385.680892 
L 374.67 386.596828 
L 375.8715 388.214258 
L 377.073 390.146371 
L 378.2745 391.234211 
L 380.6775 394.010185 
L 381.879 396.021399 
L 383.0805 397.282688 
L 385.4835 400.029515 
L 386.685 401.408348 
L 387.8865 402.292045 
L 389.088 404.332505 
L 390.2895 405.950993 
L 392.6925 407.717476 
L 393.894 409.471422 
L 395.0955 410.69203 
L 396.297 412.590014 
L 397.4985 413.598802 
L 402.3045 420.994358 
L 403.506 422.352552 
L 405.909 426.072847 
L 407.1105 427.525364 
L 408.312 429.496715 
L 409.5135 431.010776 
L 410.715 432.916361 
L 414.3195 437.125336 
L 416.7225 440.372491 
L 417.924 441.597037 
L 420.327 444.593678 
L 421.5285 446.879513 
L 422.73 448.149634 
L 425.133 451.622234 
L 426.3345 452.981372 
L 428.7375 456.277337 
L 429.939 458.123243 
L 431.1405 459.225216 
L 432.342 460.557278 
L 433.5435 462.138071 
L 435.9465 464.367077 
L 437.148 454.622706 
L 438.3495 456.118593 
L 439.551 457.863538 
L 440.7525 460.155172 
L 443.1555 463.189145 
L 444.357 465.30312 
L 446.76 468.369329 
L 447.9615 470.563996 
L 449.163 472.005611 
L 451.566 475.508228 
L 452.7675 476.974027 
L 453.969 478.806751 
L 455.1705 479.56667 
L 456.372 481.434201 
L 457.5735 482.858864 
L 458.775 484.50926 
L 459.9765 485.464148 
L 462.3795 489.497778 
L 464.7825 491.845269 
L 467.1855 496.393788 
L 468.387 497.47895 
L 469.5885 499.249819 
L 470.79 500.295013 
L 471.9915 502.109362 
L 473.193 503.114214 
L 474.3945 504.304137 
L 475.596 505.840974 
L 476.7975 506.9069 
L 477.999 508.470074 
L 481.6035 512.433018 
L 482.805 514.969117 
L 484.0065 516.977262 
L 485.208 518.706604 
L 486.4095 519.899912 
L 488.8125 523.127611 
L 490.014 524.461623 
L 492.417 526.447608 
L 493.6185 528.002592 
L 494.82 528.497628 
L 496.0215 530.000549 
L 497.223 531.218571 
L 498.4245 533.011193 
L 499.626 534.425268 
L 500.8275 536.099116 
L 502.029 537.339273 
L 504.432 540.64179 
L 505.6335 542.858112 
L 506.835 544.795346 
L 508.0365 546.46647 
L 509.238 546.988798 
L 510.4395 548.978525 
L 511.641 550.273155 
L 512.8425 551.823385 
L 514.044 552.915344 
L 515.2455 554.759373 
L 516.447 555.462869 
L 517.6485 556.898538 
L 518.85 557.56939 
L 521.253 559.948473 
L 522.4545 561.120916 
L 523.656 563.085411 
L 526.059 566.376284 
L 527.2605 567.722712 
L 528.462 569.65008 
L 529.6635 570.858166 
L 530.865 572.749684 
L 532.0665 574.973114 
L 534.4695 578.271722 
L 535.671 579.383811 
L 536.8725 581.78631 
L 539.2755 584.84232 
L 540.477 586.057248 
L 541.6785 587.007053 
L 542.88 588.712478 
L 544.0815 590.086307 
L 546.4845 592.287833 
L 551.2905 599.102182 
L 552.492 600.073424 
L 553.6935 601.564429 
L 556.0965 604.125241 
L 557.298 605.638614 
L 560.9025 608.880671 
L 563.3055 613.085365 
L 564.507 614.057267 
L 565.7085 615.748132 
L 566.91 617.727195 
L 568.1115 619.27023 
L 569.313 621.201838 
L 570.5145 622.601665 
L 571.716 623.773519 
L 576.522 630.143017 
L 577.7235 631.568477 
L 578.925 632.530095 
L 580.1265 633.953579 
L 581.328 635.127867 
L 584.9325 639.793101 
L 586.134 641.340019 
L 587.3355 642.256786 
L 588.537 643.819612 
L 589.7385 644.965128 
L 592.1415 647.739558 
L 593.343 648.949029 
L 596.9475 653.865378 
L 598.149 655.142421 
L 599.3505 656.995685 
L 600.552 658.197813 
L 602.955 661.986469 
L 604.1565 664.022534 
L 605.358 665.777337 
L 607.761 668.576516 
L 608.9625 669.40431 
L 610.164 670.669616 
L 611.3655 672.208929 
L 613.7685 677.133521 
L 614.97 678.472779 
L 616.1715 680.271668 
L 617.373 682.283172 
L 618.5745 683.805002 
L 620.9775 688.158466 
L 623.3805 691.491138 
L 624.582 692.476222 
L 625.7835 693.709999 
L 629.388 698.365142 
L 631.791 701.580769 
L 632.9925 702.554938 
L 634.194 703.781148 
L 636.597 705.854156 
L 637.7985 707.318306 
L 639 709.161566 
L 642.6045 711.810106 
L 643.806 712.99025 
L 645.0075 714.584919 
L 646.209 716.38332 
L 647.4105 717.236218 
L 649.8135 719.719792 
L 652.2165 721.727314 
L 653.418 723.34205 
L 654.6195 723.06063 
L 655.821 723.080557 
L 657.0225 723.330791 
L 658.224 722.776064 
L 659.4255 723.213725 
L 660.627 723.242465 
L 661.8285 722.888178 
L 663.03 723.817585 
L 664.2315 724.088449 
L 665.433 724.599379 
L 666.6345 725.381658 
L 667.836 725.745612 
L 669.0375 725.704433 
L 672.642 725.989568 
L 673.8435 726.288966 
L 676.2465 726.190701 
L 677.448 726.466487 
L 678.6495 727.090539 
L 679.851 726.99813 
L 681.0525 727.37099 
L 682.254 727.037863 
L 683.4555 727.367917 
L 685.8585 728.444352 
L 687.06 728.515303 
L 688.2615 728.356144 
L 689.463 728.467336 
L 690.6645 727.298649 
L 691.866 727.667296 
L 693.0675 727.539106 
L 694.269 727.990251 
L 695.4705 728.039949 
L 696.672 727.890815 
L 697.8735 728.160509 
L 701.478 727.718598 
L 702.6795 728.006167 
L 703.881 728.458017 
L 705.0825 728.324065 
L 706.284 728.326912 
L 708.687 727.983093 
L 709.8885 728.697592 
L 711.09 728.165052 
L 712.2915 727.889608 
L 713.493 728.239541 
L 714.6945 728.056484 
L 715.896 728.367768 
L 717.0975 728.239189 
L 718.299 727.431501 
L 720.702 726.876821 
L 721.9035 727.429134 
L 723.105 727.705443 
L 725.508 728.550159 
L 726.7095 728.290515 
L 727.911 728.329509 
L 730.314 729.207341 
L 731.5155 730.216624 
L 732.717 729.651945 
L 733.9185 730.083995 
L 735.12 730.122038 
L 736.3215 729.902912 
L 737.523 730.037937 
L 738.7245 729.650277 
L 739.926 730.016585 
L 741.1275 729.460294 
L 742.329 729.103026 
L 743.5305 729.395302 
L 744.732 729.501423 
L 745.9335 729.098922 
L 747.135 729.474394 
L 748.3365 728.706484 
L 749.538 728.645217 
L 750.7395 728.968478 
L 751.941 728.994138 
L 754.344 728.527029 
L 755.5455 727.957438 
L 756.747 728.462508 
L 757.9485 728.533505 
L 759.15 728.485828 
L 760.3515 729.30089 
L 761.553 729.248082 
L 762.7545 728.984384 
L 763.956 728.48686 
L 766.359 727.848949 
L 767.5605 728.578945 
L 768.762 727.909327 
L 769.9635 727.86841 
L 771.165 728.079714 
L 773.568 727.801559 
L 775.971 728.17167 
L 778.374 728.302797 
L 779.5755 728.555597 
L 780.777 729.297662 
L 781.9785 729.726283 
L 783.18 729.134737 
L 784.3815 729.431713 
L 785.583 729.22254 
L 786.7845 729.430501 
L 789.1875 728.883563 
L 790.389 729.037743 
L 791.5905 728.982429 
L 792.792 728.773585 
L 793.9935 728.276756 
L 797.598 729.039022 
L 798.7995 728.806348 
L 800.001 728.924115 
L 801.2025 728.798324 
L 802.404 728.147679 
L 803.6055 728.595947 
L 804.807 728.883939 
L 807.21 727.855565 
L 808.4115 728.623768 
L 810.8145 728.688389 
L 812.016 728.265533 
L 813.2175 728.258194 
L 814.419 727.693361 
L 815.6205 728.2748 
L 816.822 728.274558 
L 818.0235 728.160872 
L 819.225 727.49713 
L 820.4265 728.240144 
L 821.628 728.599974 
L 822.8295 729.384411 
L 824.031 728.731395 
L 826.434 728.919397 
L 827.6355 729.058907 
L 828.837 728.973764 
L 832.4415 729.096811 
L 833.643 728.800049 
L 834.8445 728.787492 
L 836.046 727.80175 
L 837.2475 727.653011 
L 840.852 728.367139 
L 842.0535 728.204863 
L 843.255 728.260115 
L 845.658 729.286874 
L 846.8595 728.386569 
L 849.2625 728.634939 
L 850.464 728.095132 
L 851.6655 727.921901 
L 856.4715 727.995443 
L 857.673 728.586066 
L 858.8745 728.359081 
L 860.076 727.765833 
L 861.2775 728.929305 
L 862.479 728.983786 
L 863.6805 728.842996 
L 864.882 728.906318 
L 866.0835 729.13005 
L 867.285 728.864281 
L 868.4865 729.113492 
L 869.688 729.021037 
L 870.8895 728.445997 
L 872.091 729.051575 
L 874.494 729.14256 
L 875.6955 728.850786 
L 879.3 729.331907 
L 880.5015 729.619675 
L 881.703 728.801891 
L 882.9045 728.195849 
L 884.106 728.729752 
L 885.3075 728.979401 
L 886.509 729.51905 
L 887.7105 728.710551 
L 888.912 728.808417 
L 890.1135 728.733563 
L 893.718 727.440294 
L 894.9195 728.097887 
L 896.121 728.001391 
L 897.3225 727.778115 
L 899.7255 727.689084 
L 900.927 727.259201 
L 902.1285 728.011858 
L 903.33 727.826284 
L 905.733 728.281126 
L 906.9345 727.736182 
L 908.136 727.619856 
L 909.3375 727.987716 
L 910.539 728.130509 
L 911.7405 727.749755 
L 912.942 728.330028 
L 915.345 728.588774 
L 916.5465 728.535375 
L 918.9495 729.450729 
L 920.151 730.113072 
L 921.3525 729.972616 
L 922.554 730.005 
L 923.7555 729.473805 
L 924.957 729.817256 
L 926.1585 729.400377 
L 928.5615 729.846409 
L 929.763 729.098927 
L 930.9645 729.16712 
L 932.166 729.109327 
L 933.3675 728.892652 
L 934.569 728.890176 
L 935.7705 729.042705 
L 936.972 729.621197 
L 938.1735 729.189771 
L 940.5765 729.257645 
L 941.778 729.605739 
L 944.181 728.474389 
L 946.584 728.641204 
L 947.7855 729.324705 
L 950.1885 729.097142 
L 951.39 729.420285 
L 952.5915 728.928097 
L 953.793 729.193111 
L 954.9945 727.983633 
L 956.196 728.590366 
L 957.3975 728.479809 
L 959.8005 728.765093 
L 961.002 728.514367 
L 962.2035 728.685453 
L 963.405 728.733653 
L 964.6065 729.179538 
L 965.808 728.703033 
L 967.0095 728.354933 
L 968.211 729.215395 
L 969.4125 729.049949 
L 970.614 729.761726 
L 971.8155 730.027423 
L 973.017 729.185779 
L 974.2185 729.496779 
L 976.6215 729.007772 
L 977.823 728.408783 
L 979.0245 729.221417 
L 980.226 729.271612 
L 982.629 728.778799 
L 983.8305 728.292078 
L 985.032 728.588301 
L 986.2335 727.867571 
L 987.435 727.524391 
L 988.6365 727.973075 
L 989.838 728.150629 
L 991.0395 728.718991 
L 992.241 729.159284 
L 994.644 729.412211 
L 995.8455 729.715881 
L 997.047 729.600084 
L 998.2485 729.304381 
L 999.45 728.703232 
L 1000.6515 727.880137 
L 1001.853 727.817186 
L 1003.0545 728.038796 
L 1004.256 727.837351 
L 1005.4575 728.490865 
L 1006.659 728.325811 
L 1007.8605 728.297274 
L 1009.062 729.208531 
L 1010.2635 729.230631 
L 1011.465 728.884912 
L 1012.6665 729.487357 
L 1013.868 729.408189 
L 1015.0695 728.855112 
L 1019.8755 728.895594 
L 1021.077 728.089213 
L 1022.2785 728.033938 
L 1023.48 728.592964 
L 1024.6815 728.632413 
L 1025.883 728.434309 
L 1027.0845 729.48759 
L 1028.286 729.454614 
L 1029.4875 729.680193 
L 1031.8905 728.844348 
L 1033.092 728.72598 
L 1034.2935 728.215167 
L 1036.6965 729.35835 
L 1037.898 729.053561 
L 1039.0995 728.964225 
L 1040.301 729.077083 
L 1041.5025 728.977023 
L 1042.704 729.740556 
L 1043.9055 730.085742 
L 1045.107 729.834604 
L 1046.3085 728.993997 
L 1047.51 729.061868 
L 1048.7115 728.935822 
L 1049.913 729.022772 
L 1051.1145 729.327443 
L 1052.316 728.983048 
L 1053.5175 728.297704 
L 1054.719 728.362602 
L 1055.9205 728.772312 
L 1057.122 728.129163 
L 1058.3235 728.534342 
L 1059.525 728.635813 
L 1060.7265 728.902834 
L 1061.928 729.026513 
L 1063.1295 728.596459 
L 1065.5325 729.152943 
L 1066.734 728.928376 
L 1070.3385 728.710589 
L 1071.54 728.30669 
L 1075.1445 729.193389 
L 1076.346 728.779066 
L 1077.5475 728.828842 
L 1078.749 728.244331 
L 1079.9505 728.683124 
L 1082.3535 728.988847 
L 1083.555 728.296761 
L 1084.7565 727.986873 
L 1085.958 728.101542 
L 1088.361 727.936071 
L 1089.5625 728.210161 
L 1090.764 727.33309 
L 1091.9655 727.621526 
L 1093.167 728.145547 
L 1094.3685 728.134559 
L 1095.57 727.874072 
L 1096.7715 728.191094 
L 1097.973 727.629482 
L 1099.1745 727.542453 
L 1100.376 727.716569 
L 1101.5775 727.197603 
L 1103.9805 728.169427 
L 1105.182 728.331135 
L 1106.3835 727.926694 
L 1107.585 727.287062 
L 1108.7865 727.585469 
L 1109.988 727.691028 
L 1111.1895 727.643236 
L 1112.391 727.396347 
L 1113.5925 727.960168 
L 1115.9955 728.61668 
L 1117.197 728.011358 
L 1119.6 728.510827 
L 1120.8015 728.19194 
L 1122.003 728.136702 
L 1123.2045 727.462981 
L 1124.406 728.142873 
L 1125.6075 727.77428 
L 1126.809 728.562246 
L 1128.0105 728.213072 
L 1129.212 728.081432 
L 1130.4135 728.195688 
L 1131.615 728.094325 
L 1132.8165 728.467196 
L 1134.018 728.259387 
L 1135.2195 728.185559 
L 1136.421 728.729101 
L 1137.6225 729.044674 
L 1138.824 729.511632 
L 1140.0255 729.279315 
L 1141.227 729.376997 
L 1142.4285 729.824351 
L 1143.63 729.826643 
L 1144.8315 730.290196 
L 1146.033 728.997245 
L 1147.2345 728.694181 
L 1148.436 729.093234 
L 1149.6375 728.003318 
L 1150.839 728.402602 
L 1152.0405 728.633873 
L 1153.242 728.491515 
L 1154.4435 728.653627 
L 1155.645 728.67476 
L 1156.8465 729.229766 
L 1160.451 729.085262 
L 1161.6525 729.763163 
L 1162.854 729.203671 
L 1164.0555 729.120597 
L 1166.4585 729.494337 
L 1167.66 729.764444 
L 1168.8615 729.19137 
L 1170.063 729.448892 
L 1171.2645 729.859456 
L 1172.466 731.336462 
L 1173.6675 730.896657 
L 1174.869 730.789545 
L 1176.0705 729.639829 
L 1177.272 729.818783 
L 1178.4735 728.967975 
L 1179.675 728.972702 
L 1180.8765 728.670394 
L 1182.078 729.047047 
L 1183.2795 729.57398 
L 1184.481 729.879794 
L 1185.6825 729.450649 
L 1186.884 729.466531 
L 1188.0855 729.147743 
L 1190.4885 729.189157 
L 1191.69 729.454585 
L 1192.8915 729.393153 
L 1194.093 729.584571 
L 1196.496 730.134661 
L 1197.6975 729.710809 
L 1198.899 729.785734 
L 1201.302 728.254844 
L 1203.705 727.378587 
L 1204.9065 728.091723 
L 1206.108 728.051218 
L 1207.3095 729.647017 
L 1208.511 729.784716 
L 1210.914 729.677312 
L 1212.1155 729.256526 
L 1213.317 729.294134 
L 1214.5185 728.824771 
L 1215.72 728.782585 
L 1216.9215 728.211483 
L 1218.123 728.933889 
L 1219.3245 728.251001 
L 1220.526 728.615007 
L 1222.929 728.7885 
L 1224.1305 728.45046 
L 1225.332 729.079731 
L 1226.5335 729.401274 
L 1227.735 729.580813 
L 1230.138 728.482137 
L 1231.3395 728.298482 
L 1233.7425 729.08512 
L 1234.944 728.973677 
L 1236.1455 729.040683 
L 1237.347 728.37879 
L 1238.5485 728.974212 
L 1240.9515 729.139617 
L 1242.153 728.695911 
L 1243.3545 729.205743 
L 1244.556 729.152979 
L 1245.7575 728.978267 
L 1246.959 728.4916 
L 1250.5635 729.046045 
L 1251.765 729.012155 
L 1252.9665 729.435236 
L 1254.168 728.900172 
L 1255.3695 728.826025 
L 1256.571 729.568099 
L 1257.7725 729.713264 
L 1261.377 728.455482 
L 1262.5785 728.394001 
L 1263.78 729.030358 
L 1264.9815 729.106827 
L 1266.183 729.703998 
L 1267.3845 730.097052 
L 1268.586 729.729249 
L 1269.7875 730.273803 
L 1270.989 730.513447 
L 1272.1905 729.985191 
L 1273.392 729.808955 
L 1274.5935 730.082155 
L 1276.9965 729.582897 
L 1280.601 729.534682 
L 1281.8025 729.703609 
L 1283.004 729.712962 
L 1284.2055 729.444493 
L 1285.407 729.456989 
L 1286.6085 729.790622 
L 1289.0115 728.840583 
L 1290.213 728.226611 
L 1291.4145 728.074528 
L 1292.616 728.876857 
L 1293.8175 728.837292 
L 1295.019 729.608974 
L 1296.2205 729.997804 
L 1297.422 729.518548 
L 1298.6235 729.491415 
L 1299.825 728.93569 
L 1301.0265 729.448347 
L 1302.228 728.765869 
L 1304.631 728.025771 
L 1305.8325 728.339723 
L 1307.034 728.970272 
L 1308.2355 728.662847 
L 1309.437 728.529042 
L 1310.6385 728.740981 
L 1311.84 728.263259 
L 1313.0415 727.957428 
L 1314.243 728.824776 
L 1315.4445 729.102239 
L 1316.646 728.883636 
L 1317.8475 728.452085 
L 1319.049 728.542465 
L 1320.2505 728.036315 
L 1321.452 728.969251 
L 1322.6535 729.220299 
L 1323.855 729.005661 
L 1325.0565 729.33763 
L 1327.4595 728.577311 
L 1328.661 727.6144 
L 1329.8625 727.723302 
L 1331.064 728.33129 
L 1332.2655 728.716424 
L 1333.467 728.576132 
L 1334.6685 728.239786 
L 1335.87 728.576187 
L 1337.0715 728.403568 
L 1338.273 728.990624 
L 1339.4745 728.877722 
L 1340.676 728.269565 
L 1344.2805 728.392834 
L 1345.482 729.559662 
L 1347.885 729.787282 
L 1349.0865 729.558348 
L 1351.4895 729.665526 
L 1352.691 728.80666 
L 1353.8925 728.365089 
L 1355.094 728.814242 
L 1356.2955 728.645504 
L 1357.497 728.690203 
L 1358.6985 729.098853 
L 1358.6985 729.098853 
" style="fill:none;stroke:#008000;stroke-linecap:square;stroke-width:2.0;"/>
   </g>
   <g id="patch_3">
    <path d="M 158.4 51.3 
L 1359.9 51.3 
" style="fill:none;stroke:#000000;stroke-linecap:square;stroke-linejoin:miter;"/>
   </g>
   <g id="patch_4">
    <path d="M 1359.9 747 
L 1359.9 51.3 
" style="fill:none;stroke:#000000;stroke-linecap:square;stroke-linejoin:miter;"/>
   </g>
   <g id="patch_5">
    <path d="M 158.4 747 
L 1359.9 747 
" style="fill:none;stroke:#000000;stroke-linecap:square;stroke-linejoin:miter;"/>
   </g>
   <g id="patch_6">
    <path d="M 158.4 747 
L 158.4 51.3 
" style="fill:none;stroke:#000000;stroke-linecap:square;stroke-linejoin:miter;"/>
   </g>
   <g id="matplotlib.axis_1">
    <g id="xtick_1">
     <g id="line2d_3">
      <defs>
       <path d="M 0 0 
L 0 -4 
" id="m676f219e1d" style="stroke:#000000;stroke-width:0.5;"/>
      </defs>
      <g>
       <use style="stroke:#000000;stroke-width:0.5;" x="158.4" xlink:href="#m676f219e1d" y="747.0"/>
      </g>
     </g>
     <g id="line2d_4">
      <defs>
       <path d="M 0 0 
L 0 4 
" id="mbc49046f38" style="stroke:#000000;stroke-width:0.5;"/>
      </defs>
      <g>
       <use style="stroke:#000000;stroke-width:0.5;" x="158.4" xlink:href="#mbc49046f38" y="51.3"/>
      </g>
     </g>
     <g id="text_1">
      <!-- 0 -->
      <defs>
       <path d="M 31.78125 66.40625 
Q 24.171875 66.40625 20.328125 58.90625 
Q 16.5 51.421875 16.5 36.375 
Q 16.5 21.390625 20.328125 13.890625 
Q 24.171875 6.390625 31.78125 6.390625 
Q 39.453125 6.390625 43.28125 13.890625 
Q 47.125 21.390625 47.125 36.375 
Q 47.125 51.421875 43.28125 58.90625 
Q 39.453125 66.40625 31.78125 66.40625 
M 31.78125 74.21875 
Q 44.046875 74.21875 50.515625 64.515625 
Q 56.984375 54.828125 56.984375 36.375 
Q 56.984375 17.96875 50.515625 8.265625 
Q 44.046875 -1.421875 31.78125 -1.421875 
Q 19.53125 -1.421875 13.0625 8.265625 
Q 6.59375 17.96875 6.59375 36.375 
Q 6.59375 54.828125 13.0625 64.515625 
Q 19.53125 74.21875 31.78125 74.21875 
" id="BitstreamVeraSans-Roman-30"/>
      </defs>
      <g transform="translate(148.85625 773.7953125)scale(0.3 -0.3)">
       <use xlink:href="#BitstreamVeraSans-Roman-30"/>
      </g>
     </g>
    </g>
    <g id="xtick_2">
     <g id="line2d_5">
      <g>
       <use style="stroke:#000000;stroke-width:0.5;" x="398.7" xlink:href="#m676f219e1d" y="747.0"/>
      </g>
     </g>
     <g id="line2d_6">
      <g>
       <use style="stroke:#000000;stroke-width:0.5;" x="398.7" xlink:href="#mbc49046f38" y="51.3"/>
      </g>
     </g>
     <g id="text_2">
      <!-- 200 -->
      <defs>
       <path d="M 19.1875 8.296875 
L 53.609375 8.296875 
L 53.609375 0 
L 7.328125 0 
L 7.328125 8.296875 
Q 12.9375 14.109375 22.625 23.890625 
Q 32.328125 33.6875 34.8125 36.53125 
Q 39.546875 41.84375 41.421875 45.53125 
Q 43.3125 49.21875 43.3125 52.78125 
Q 43.3125 58.59375 39.234375 62.25 
Q 35.15625 65.921875 28.609375 65.921875 
Q 23.96875 65.921875 18.8125 64.3125 
Q 13.671875 62.703125 7.8125 59.421875 
L 7.8125 69.390625 
Q 13.765625 71.78125 18.9375 73 
Q 24.125 74.21875 28.421875 74.21875 
Q 39.75 74.21875 46.484375 68.546875 
Q 53.21875 62.890625 53.21875 53.421875 
Q 53.21875 48.921875 51.53125 44.890625 
Q 49.859375 40.875 45.40625 35.40625 
Q 44.1875 33.984375 37.640625 27.21875 
Q 31.109375 20.453125 19.1875 8.296875 
" id="BitstreamVeraSans-Roman-32"/>
      </defs>
      <g transform="translate(370.06875 773.7953125)scale(0.3 -0.3)">
       <use xlink:href="#BitstreamVeraSans-Roman-32"/>
       <use x="63.623046875" xlink:href="#BitstreamVeraSans-Roman-30"/>
       <use x="127.24609375" xlink:href="#BitstreamVeraSans-Roman-30"/>
      </g>
     </g>
    </g>
    <g id="xtick_3">
     <g id="line2d_7">
      <g>
       <use style="stroke:#000000;stroke-width:0.5;" x="639.0" xlink:href="#m676f219e1d" y="747.0"/>
      </g>
     </g>
     <g id="line2d_8">
      <g>
       <use style="stroke:#000000;stroke-width:0.5;" x="639.0" xlink:href="#mbc49046f38" y="51.3"/>
      </g>
     </g>
     <g id="text_3">
      <!-- 400 -->
      <defs>
       <path d="M 37.796875 64.3125 
L 12.890625 25.390625 
L 37.796875 25.390625 
z
M 35.203125 72.90625 
L 47.609375 72.90625 
L 47.609375 25.390625 
L 58.015625 25.390625 
L 58.015625 17.1875 
L 47.609375 17.1875 
L 47.609375 0 
L 37.796875 0 
L 37.796875 17.1875 
L 4.890625 17.1875 
L 4.890625 26.703125 
z
" id="BitstreamVeraSans-Roman-34"/>
      </defs>
      <g transform="translate(610.36875 773.7953125)scale(0.3 -0.3)">
       <use xlink:href="#BitstreamVeraSans-Roman-34"/>
       <use x="63.623046875" xlink:href="#BitstreamVeraSans-Roman-30"/>
       <use x="127.24609375" xlink:href="#BitstreamVeraSans-Roman-30"/>
      </g>
     </g>
    </g>
    <g id="xtick_4">
     <g id="line2d_9">
      <g>
       <use style="stroke:#000000;stroke-width:0.5;" x="879.3" xlink:href="#m676f219e1d" y="747.0"/>
      </g>
     </g>
     <g id="line2d_10">
      <g>
       <use style="stroke:#000000;stroke-width:0.5;" x="879.3" xlink:href="#mbc49046f38" y="51.3"/>
      </g>
     </g>
     <g id="text_4">
      <!-- 600 -->
      <defs>
       <path d="M 33.015625 40.375 
Q 26.375 40.375 22.484375 35.828125 
Q 18.609375 31.296875 18.609375 23.390625 
Q 18.609375 15.53125 22.484375 10.953125 
Q 26.375 6.390625 33.015625 6.390625 
Q 39.65625 6.390625 43.53125 10.953125 
Q 47.40625 15.53125 47.40625 23.390625 
Q 47.40625 31.296875 43.53125 35.828125 
Q 39.65625 40.375 33.015625 40.375 
M 52.59375 71.296875 
L 52.59375 62.3125 
Q 48.875 64.0625 45.09375 64.984375 
Q 41.3125 65.921875 37.59375 65.921875 
Q 27.828125 65.921875 22.671875 59.328125 
Q 17.53125 52.734375 16.796875 39.40625 
Q 19.671875 43.65625 24.015625 45.921875 
Q 28.375 48.1875 33.59375 48.1875 
Q 44.578125 48.1875 50.953125 41.515625 
Q 57.328125 34.859375 57.328125 23.390625 
Q 57.328125 12.15625 50.6875 5.359375 
Q 44.046875 -1.421875 33.015625 -1.421875 
Q 20.359375 -1.421875 13.671875 8.265625 
Q 6.984375 17.96875 6.984375 36.375 
Q 6.984375 53.65625 15.1875 63.9375 
Q 23.390625 74.21875 37.203125 74.21875 
Q 40.921875 74.21875 44.703125 73.484375 
Q 48.484375 72.75 52.59375 71.296875 
" id="BitstreamVeraSans-Roman-36"/>
      </defs>
      <g transform="translate(850.66875 773.7953125)scale(0.3 -0.3)">
       <use xlink:href="#BitstreamVeraSans-Roman-36"/>
       <use x="63.623046875" xlink:href="#BitstreamVeraSans-Roman-30"/>
       <use x="127.24609375" xlink:href="#BitstreamVeraSans-Roman-30"/>
      </g>
     </g>
    </g>
    <g id="xtick_5">
     <g id="line2d_11">
      <g>
       <use style="stroke:#000000;stroke-width:0.5;" x="1119.6" xlink:href="#m676f219e1d" y="747.0"/>
      </g>
     </g>
     <g id="line2d_12">
      <g>
       <use style="stroke:#000000;stroke-width:0.5;" x="1119.6" xlink:href="#mbc49046f38" y="51.3"/>
      </g>
     </g>
     <g id="text_5">
      <!-- 800 -->
      <defs>
       <path d="M 31.78125 34.625 
Q 24.75 34.625 20.71875 30.859375 
Q 16.703125 27.09375 16.703125 20.515625 
Q 16.703125 13.921875 20.71875 10.15625 
Q 24.75 6.390625 31.78125 6.390625 
Q 38.8125 6.390625 42.859375 10.171875 
Q 46.921875 13.96875 46.921875 20.515625 
Q 46.921875 27.09375 42.890625 30.859375 
Q 38.875 34.625 31.78125 34.625 
M 21.921875 38.8125 
Q 15.578125 40.375 12.03125 44.71875 
Q 8.5 49.078125 8.5 55.328125 
Q 8.5 64.0625 14.71875 69.140625 
Q 20.953125 74.21875 31.78125 74.21875 
Q 42.671875 74.21875 48.875 69.140625 
Q 55.078125 64.0625 55.078125 55.328125 
Q 55.078125 49.078125 51.53125 44.71875 
Q 48 40.375 41.703125 38.8125 
Q 48.828125 37.15625 52.796875 32.3125 
Q 56.78125 27.484375 56.78125 20.515625 
Q 56.78125 9.90625 50.3125 4.234375 
Q 43.84375 -1.421875 31.78125 -1.421875 
Q 19.734375 -1.421875 13.25 4.234375 
Q 6.78125 9.90625 6.78125 20.515625 
Q 6.78125 27.484375 10.78125 32.3125 
Q 14.796875 37.15625 21.921875 38.8125 
M 18.3125 54.390625 
Q 18.3125 48.734375 21.84375 45.5625 
Q 25.390625 42.390625 31.78125 42.390625 
Q 38.140625 42.390625 41.71875 45.5625 
Q 45.3125 48.734375 45.3125 54.390625 
Q 45.3125 60.0625 41.71875 63.234375 
Q 38.140625 66.40625 31.78125 66.40625 
Q 25.390625 66.40625 21.84375 63.234375 
Q 18.3125 60.0625 18.3125 54.390625 
" id="BitstreamVeraSans-Roman-38"/>
      </defs>
      <g transform="translate(1090.96875 773.7953125)scale(0.3 -0.3)">
       <use xlink:href="#BitstreamVeraSans-Roman-38"/>
       <use x="63.623046875" xlink:href="#BitstreamVeraSans-Roman-30"/>
       <use x="127.24609375" xlink:href="#BitstreamVeraSans-Roman-30"/>
      </g>
     </g>
    </g>
    <g id="xtick_6">
     <g id="line2d_13">
      <g>
       <use style="stroke:#000000;stroke-width:0.5;" x="1359.9" xlink:href="#m676f219e1d" y="747.0"/>
      </g>
     </g>
     <g id="line2d_14">
      <g>
       <use style="stroke:#000000;stroke-width:0.5;" x="1359.9" xlink:href="#mbc49046f38" y="51.3"/>
      </g>
     </g>
     <g id="text_6">
      <!-- 1000 -->
      <defs>
       <path d="M 12.40625 8.296875 
L 28.515625 8.296875 
L 28.515625 63.921875 
L 10.984375 60.40625 
L 10.984375 69.390625 
L 28.421875 72.90625 
L 38.28125 72.90625 
L 38.28125 8.296875 
L 54.390625 8.296875 
L 54.390625 0 
L 12.40625 0 
z
" id="BitstreamVeraSans-Roman-31"/>
      </defs>
      <g transform="translate(1321.725 773.7953125)scale(0.3 -0.3)">
       <use xlink:href="#BitstreamVeraSans-Roman-31"/>
       <use x="63.623046875" xlink:href="#BitstreamVeraSans-Roman-30"/>
       <use x="127.24609375" xlink:href="#BitstreamVeraSans-Roman-30"/>
       <use x="190.869140625" xlink:href="#BitstreamVeraSans-Roman-30"/>
      </g>
     </g>
    </g>
    <g id="text_7">
     <!-- iterations -->
     <defs>
      <path d="M 54.890625 33.015625 
L 54.890625 0 
L 45.90625 0 
L 45.90625 32.71875 
Q 45.90625 40.484375 42.875 44.328125 
Q 39.84375 48.1875 33.796875 48.1875 
Q 26.515625 48.1875 22.3125 43.546875 
Q 18.109375 38.921875 18.109375 30.90625 
L 18.109375 0 
L 9.078125 0 
L 9.078125 54.6875 
L 18.109375 54.6875 
L 18.109375 46.1875 
Q 21.34375 51.125 25.703125 53.5625 
Q 30.078125 56 35.796875 56 
Q 45.21875 56 50.046875 50.171875 
Q 54.890625 44.34375 54.890625 33.015625 
" id="BitstreamVeraSans-Roman-6e"/>
      <path d="M 34.28125 27.484375 
Q 23.390625 27.484375 19.1875 25 
Q 14.984375 22.515625 14.984375 16.5 
Q 14.984375 11.71875 18.140625 8.90625 
Q 21.296875 6.109375 26.703125 6.109375 
Q 34.1875 6.109375 38.703125 11.40625 
Q 43.21875 16.703125 43.21875 25.484375 
L 43.21875 27.484375 
z
M 52.203125 31.203125 
L 52.203125 0 
L 43.21875 0 
L 43.21875 8.296875 
Q 40.140625 3.328125 35.546875 0.953125 
Q 30.953125 -1.421875 24.3125 -1.421875 
Q 15.921875 -1.421875 10.953125 3.296875 
Q 6 8.015625 6 15.921875 
Q 6 25.140625 12.171875 29.828125 
Q 18.359375 34.515625 30.609375 34.515625 
L 43.21875 34.515625 
L 43.21875 35.40625 
Q 43.21875 41.609375 39.140625 45 
Q 35.0625 48.390625 27.6875 48.390625 
Q 23 48.390625 18.546875 47.265625 
Q 14.109375 46.140625 10.015625 43.890625 
L 10.015625 52.203125 
Q 14.9375 54.109375 19.578125 55.046875 
Q 24.21875 56 28.609375 56 
Q 40.484375 56 46.34375 49.84375 
Q 52.203125 43.703125 52.203125 31.203125 
" id="BitstreamVeraSans-Roman-61"/>
      <path d="M 30.609375 48.390625 
Q 23.390625 48.390625 19.1875 42.75 
Q 14.984375 37.109375 14.984375 27.296875 
Q 14.984375 17.484375 19.15625 11.84375 
Q 23.34375 6.203125 30.609375 6.203125 
Q 37.796875 6.203125 41.984375 11.859375 
Q 46.1875 17.53125 46.1875 27.296875 
Q 46.1875 37.015625 41.984375 42.703125 
Q 37.796875 48.390625 30.609375 48.390625 
M 30.609375 56 
Q 42.328125 56 49.015625 48.375 
Q 55.71875 40.765625 55.71875 27.296875 
Q 55.71875 13.875 49.015625 6.21875 
Q 42.328125 -1.421875 30.609375 -1.421875 
Q 18.84375 -1.421875 12.171875 6.21875 
Q 5.515625 13.875 5.515625 27.296875 
Q 5.515625 40.765625 12.171875 48.375 
Q 18.84375 56 30.609375 56 
" id="BitstreamVeraSans-Roman-6f"/>
      <path d="M 9.421875 54.6875 
L 18.40625 54.6875 
L 18.40625 0 
L 9.421875 0 
z
M 9.421875 75.984375 
L 18.40625 75.984375 
L 18.40625 64.59375 
L 9.421875 64.59375 
z
" id="BitstreamVeraSans-Roman-69"/>
      <path d="M 56.203125 29.59375 
L 56.203125 25.203125 
L 14.890625 25.203125 
Q 15.484375 15.921875 20.484375 11.0625 
Q 25.484375 6.203125 34.421875 6.203125 
Q 39.59375 6.203125 44.453125 7.46875 
Q 49.3125 8.734375 54.109375 11.28125 
L 54.109375 2.78125 
Q 49.265625 0.734375 44.1875 -0.34375 
Q 39.109375 -1.421875 33.890625 -1.421875 
Q 20.796875 -1.421875 13.15625 6.1875 
Q 5.515625 13.8125 5.515625 26.8125 
Q 5.515625 40.234375 12.765625 48.109375 
Q 20.015625 56 32.328125 56 
Q 43.359375 56 49.78125 48.890625 
Q 56.203125 41.796875 56.203125 29.59375 
M 47.21875 32.234375 
Q 47.125 39.59375 43.09375 43.984375 
Q 39.0625 48.390625 32.421875 48.390625 
Q 24.90625 48.390625 20.390625 44.140625 
Q 15.875 39.890625 15.1875 32.171875 
z
" id="BitstreamVeraSans-Roman-65"/>
      <path d="M 18.3125 70.21875 
L 18.3125 54.6875 
L 36.8125 54.6875 
L 36.8125 47.703125 
L 18.3125 47.703125 
L 18.3125 18.015625 
Q 18.3125 11.328125 20.140625 9.421875 
Q 21.96875 7.515625 27.59375 7.515625 
L 36.8125 7.515625 
L 36.8125 0 
L 27.59375 0 
Q 17.1875 0 13.234375 3.875 
Q 9.28125 7.765625 9.28125 18.015625 
L 9.28125 47.703125 
L 2.6875 47.703125 
L 2.6875 54.6875 
L 9.28125 54.6875 
L 9.28125 70.21875 
z
" id="BitstreamVeraSans-Roman-74"/>
      <path d="M 41.109375 46.296875 
Q 39.59375 47.171875 37.8125 47.578125 
Q 36.03125 48 33.890625 48 
Q 26.265625 48 22.1875 43.046875 
Q 18.109375 38.09375 18.109375 28.8125 
L 18.109375 0 
L 9.078125 0 
L 9.078125 54.6875 
L 18.109375 54.6875 
L 18.109375 46.1875 
Q 20.953125 51.171875 25.484375 53.578125 
Q 30.03125 56 36.53125 56 
Q 37.453125 56 38.578125 55.875 
Q 39.703125 55.765625 41.0625 55.515625 
z
" id="BitstreamVeraSans-Roman-72"/>
      <path d="M 44.28125 53.078125 
L 44.28125 44.578125 
Q 40.484375 46.53125 36.375 47.5 
Q 32.28125 48.484375 27.875 48.484375 
Q 21.1875 48.484375 17.84375 46.4375 
Q 14.5 44.390625 14.5 40.28125 
Q 14.5 37.15625 16.890625 35.375 
Q 19.28125 33.59375 26.515625 31.984375 
L 29.59375 31.296875 
Q 39.15625 29.25 43.1875 25.515625 
Q 47.21875 21.78125 47.21875 15.09375 
Q 47.21875 7.46875 41.1875 3.015625 
Q 35.15625 -1.421875 24.609375 -1.421875 
Q 20.21875 -1.421875 15.453125 -0.5625 
Q 10.6875 0.296875 5.421875 2 
L 5.421875 11.28125 
Q 10.40625 8.6875 15.234375 7.390625 
Q 20.0625 6.109375 24.8125 6.109375 
Q 31.15625 6.109375 34.5625 8.28125 
Q 37.984375 10.453125 37.984375 14.40625 
Q 37.984375 18.0625 35.515625 20.015625 
Q 33.0625 21.96875 24.703125 23.78125 
L 21.578125 24.515625 
Q 13.234375 26.265625 9.515625 29.90625 
Q 5.8125 33.546875 5.8125 39.890625 
Q 5.8125 47.609375 11.28125 51.796875 
Q 16.75 56 26.8125 56 
Q 31.78125 56 36.171875 55.265625 
Q 40.578125 54.546875 44.28125 53.078125 
" id="BitstreamVeraSans-Roman-73"/>
     </defs>
     <g transform="translate(687.96796875 807.8296875)scale(0.3 -0.3)">
      <use xlink:href="#BitstreamVeraSans-Roman-69"/>
      <use x="27.783203125" xlink:href="#BitstreamVeraSans-Roman-74"/>
      <use x="66.9921875" xlink:href="#BitstreamVeraSans-Roman-65"/>
      <use x="128.515625" xlink:href="#BitstreamVeraSans-Roman-72"/>
      <use x="169.62890625" xlink:href="#BitstreamVeraSans-Roman-61"/>
      <use x="230.908203125" xlink:href="#BitstreamVeraSans-Roman-74"/>
      <use x="270.1171875" xlink:href="#BitstreamVeraSans-Roman-69"/>
      <use x="297.900390625" xlink:href="#BitstreamVeraSans-Roman-6f"/>
      <use x="359.08203125" xlink:href="#BitstreamVeraSans-Roman-6e"/>
      <use x="422.4609375" xlink:href="#BitstreamVeraSans-Roman-73"/>
     </g>
    </g>
   </g>
   <g id="matplotlib.axis_2">
    <g id="ytick_1">
     <g id="line2d_15">
      <defs>
       <path d="M 0 0 
L 4 0 
" id="m2f55d32088" style="stroke:#000000;stroke-width:0.5;"/>
      </defs>
      <g>
       <use style="stroke:#000000;stroke-width:0.5;" x="158.4" xlink:href="#m2f55d32088" y="747.0"/>
      </g>
     </g>
     <g id="line2d_16">
      <defs>
       <path d="M 0 0 
L -4 0 
" id="m7e05524402" style="stroke:#000000;stroke-width:0.5;"/>
      </defs>
      <g>
       <use style="stroke:#000000;stroke-width:0.5;" x="1359.9" xlink:href="#m7e05524402" y="747.0"/>
      </g>
     </g>
     <g id="text_8">
      <!-- 60 -->
      <defs>
       <path d="M 10.59375 35.5 
L 73.1875 35.5 
L 73.1875 27.203125 
L 10.59375 27.203125 
z
" id="BitstreamVeraSans-Roman-2212"/>
      </defs>
      <g transform="translate(91.0859375 755.278125)scale(0.3 -0.3)">
       <use xlink:href="#BitstreamVeraSans-Roman-2212"/>
       <use x="83.7890625" xlink:href="#BitstreamVeraSans-Roman-36"/>
       <use x="147.412109375" xlink:href="#BitstreamVeraSans-Roman-30"/>
      </g>
     </g>
    </g>
    <g id="ytick_2">
     <g id="line2d_17">
      <g>
       <use style="stroke:#000000;stroke-width:0.5;" x="158.4" xlink:href="#m2f55d32088" y="660.0375"/>
      </g>
     </g>
     <g id="line2d_18">
      <g>
       <use style="stroke:#000000;stroke-width:0.5;" x="1359.9" xlink:href="#m7e05524402" y="660.0375"/>
      </g>
     </g>
     <g id="text_9">
      <!-- 50 -->
      <defs>
       <path d="M 10.796875 72.90625 
L 49.515625 72.90625 
L 49.515625 64.59375 
L 19.828125 64.59375 
L 19.828125 46.734375 
Q 21.96875 47.46875 24.109375 47.828125 
Q 26.265625 48.1875 28.421875 48.1875 
Q 40.625 48.1875 47.75 41.5 
Q 54.890625 34.8125 54.890625 23.390625 
Q 54.890625 11.625 47.5625 5.09375 
Q 40.234375 -1.421875 26.90625 -1.421875 
Q 22.3125 -1.421875 17.546875 -0.640625 
Q 12.796875 0.140625 7.71875 1.703125 
L 7.71875 11.625 
Q 12.109375 9.234375 16.796875 8.0625 
Q 21.484375 6.890625 26.703125 6.890625 
Q 35.15625 6.890625 40.078125 11.328125 
Q 45.015625 15.765625 45.015625 23.390625 
Q 45.015625 31 40.078125 35.4375 
Q 35.15625 39.890625 26.703125 39.890625 
Q 22.75 39.890625 18.8125 39.015625 
Q 14.890625 38.140625 10.796875 36.28125 
z
" id="BitstreamVeraSans-Roman-35"/>
      </defs>
      <g transform="translate(91.0859375 668.315625)scale(0.3 -0.3)">
       <use xlink:href="#BitstreamVeraSans-Roman-2212"/>
       <use x="83.7890625" xlink:href="#BitstreamVeraSans-Roman-35"/>
       <use x="147.412109375" xlink:href="#BitstreamVeraSans-Roman-30"/>
      </g>
     </g>
    </g>
    <g id="ytick_3">
     <g id="line2d_19">
      <g>
       <use style="stroke:#000000;stroke-width:0.5;" x="158.4" xlink:href="#m2f55d32088" y="573.075"/>
      </g>
     </g>
     <g id="line2d_20">
      <g>
       <use style="stroke:#000000;stroke-width:0.5;" x="1359.9" xlink:href="#m7e05524402" y="573.075"/>
      </g>
     </g>
     <g id="text_10">
      <!-- 40 -->
      <g transform="translate(91.0859375 581.353125)scale(0.3 -0.3)">
       <use xlink:href="#BitstreamVeraSans-Roman-2212"/>
       <use x="83.7890625" xlink:href="#BitstreamVeraSans-Roman-34"/>
       <use x="147.412109375" xlink:href="#BitstreamVeraSans-Roman-30"/>
      </g>
     </g>
    </g>
    <g id="ytick_4">
     <g id="line2d_21">
      <g>
       <use style="stroke:#000000;stroke-width:0.5;" x="158.4" xlink:href="#m2f55d32088" y="486.1125"/>
      </g>
     </g>
     <g id="line2d_22">
      <g>
       <use style="stroke:#000000;stroke-width:0.5;" x="1359.9" xlink:href="#m7e05524402" y="486.1125"/>
      </g>
     </g>
     <g id="text_11">
      <!-- 30 -->
      <defs>
       <path d="M 40.578125 39.3125 
Q 47.65625 37.796875 51.625 33 
Q 55.609375 28.21875 55.609375 21.1875 
Q 55.609375 10.40625 48.1875 4.484375 
Q 40.765625 -1.421875 27.09375 -1.421875 
Q 22.515625 -1.421875 17.65625 -0.515625 
Q 12.796875 0.390625 7.625 2.203125 
L 7.625 11.71875 
Q 11.71875 9.328125 16.59375 8.109375 
Q 21.484375 6.890625 26.8125 6.890625 
Q 36.078125 6.890625 40.9375 10.546875 
Q 45.796875 14.203125 45.796875 21.1875 
Q 45.796875 27.640625 41.28125 31.265625 
Q 36.765625 34.90625 28.71875 34.90625 
L 20.21875 34.90625 
L 20.21875 43.015625 
L 29.109375 43.015625 
Q 36.375 43.015625 40.234375 45.921875 
Q 44.09375 48.828125 44.09375 54.296875 
Q 44.09375 59.90625 40.109375 62.90625 
Q 36.140625 65.921875 28.71875 65.921875 
Q 24.65625 65.921875 20.015625 65.03125 
Q 15.375 64.15625 9.8125 62.3125 
L 9.8125 71.09375 
Q 15.4375 72.65625 20.34375 73.4375 
Q 25.25 74.21875 29.59375 74.21875 
Q 40.828125 74.21875 47.359375 69.109375 
Q 53.90625 64.015625 53.90625 55.328125 
Q 53.90625 49.265625 50.4375 45.09375 
Q 46.96875 40.921875 40.578125 39.3125 
" id="BitstreamVeraSans-Roman-33"/>
      </defs>
      <g transform="translate(91.0859375 494.390625)scale(0.3 -0.3)">
       <use xlink:href="#BitstreamVeraSans-Roman-2212"/>
       <use x="83.7890625" xlink:href="#BitstreamVeraSans-Roman-33"/>
       <use x="147.412109375" xlink:href="#BitstreamVeraSans-Roman-30"/>
      </g>
     </g>
    </g>
    <g id="ytick_5">
     <g id="line2d_23">
      <g>
       <use style="stroke:#000000;stroke-width:0.5;" x="158.4" xlink:href="#m2f55d32088" y="399.15"/>
      </g>
     </g>
     <g id="line2d_24">
      <g>
       <use style="stroke:#000000;stroke-width:0.5;" x="1359.9" xlink:href="#m7e05524402" y="399.15"/>
      </g>
     </g>
     <g id="text_12">
      <!-- 20 -->
      <g transform="translate(91.0859375 407.428125)scale(0.3 -0.3)">
       <use xlink:href="#BitstreamVeraSans-Roman-2212"/>
       <use x="83.7890625" xlink:href="#BitstreamVeraSans-Roman-32"/>
       <use x="147.412109375" xlink:href="#BitstreamVeraSans-Roman-30"/>
      </g>
     </g>
    </g>
    <g id="ytick_6">
     <g id="line2d_25">
      <g>
       <use style="stroke:#000000;stroke-width:0.5;" x="158.4" xlink:href="#m2f55d32088" y="312.1875"/>
      </g>
     </g>
     <g id="line2d_26">
      <g>
       <use style="stroke:#000000;stroke-width:0.5;" x="1359.9" xlink:href="#m7e05524402" y="312.1875"/>
      </g>
     </g>
     <g id="text_13">
      <!-- 10 -->
      <g transform="translate(91.0859375 320.465625)scale(0.3 -0.3)">
       <use xlink:href="#BitstreamVeraSans-Roman-2212"/>
       <use x="83.7890625" xlink:href="#BitstreamVeraSans-Roman-31"/>
       <use x="147.412109375" xlink:href="#BitstreamVeraSans-Roman-30"/>
      </g>
     </g>
    </g>
    <g id="ytick_7">
     <g id="line2d_27">
      <g>
       <use style="stroke:#000000;stroke-width:0.5;" x="158.4" xlink:href="#m2f55d32088" y="225.225"/>
      </g>
     </g>
     <g id="line2d_28">
      <g>
       <use style="stroke:#000000;stroke-width:0.5;" x="1359.9" xlink:href="#m7e05524402" y="225.225"/>
      </g>
     </g>
     <g id="text_14">
      <!-- 0 -->
      <g transform="translate(135.3125 233.503125)scale(0.3 -0.3)">
       <use xlink:href="#BitstreamVeraSans-Roman-30"/>
      </g>
     </g>
    </g>
    <g id="ytick_8">
     <g id="line2d_29">
      <g>
       <use style="stroke:#000000;stroke-width:0.5;" x="158.4" xlink:href="#m2f55d32088" y="138.2625"/>
      </g>
     </g>
     <g id="line2d_30">
      <g>
       <use style="stroke:#000000;stroke-width:0.5;" x="1359.9" xlink:href="#m7e05524402" y="138.2625"/>
      </g>
     </g>
     <g id="text_15">
      <!-- 10 -->
      <g transform="translate(116.225 146.540625)scale(0.3 -0.3)">
       <use xlink:href="#BitstreamVeraSans-Roman-31"/>
       <use x="63.623046875" xlink:href="#BitstreamVeraSans-Roman-30"/>
      </g>
     </g>
    </g>
    <g id="ytick_9">
     <g id="line2d_31">
      <g>
       <use style="stroke:#000000;stroke-width:0.5;" x="158.4" xlink:href="#m2f55d32088" y="51.3"/>
      </g>
     </g>
     <g id="line2d_32">
      <g>
       <use style="stroke:#000000;stroke-width:0.5;" x="1359.9" xlink:href="#m7e05524402" y="51.3"/>
      </g>
     </g>
     <g id="text_16">
      <!-- 20 -->
      <g transform="translate(116.225 59.578125)scale(0.3 -0.3)">
       <use xlink:href="#BitstreamVeraSans-Roman-32"/>
       <use x="63.623046875" xlink:href="#BitstreamVeraSans-Roman-30"/>
      </g>
     </g>
    </g>
    <g id="text_17">
     <!-- log(loss) -->
     <defs>
      <path d="M 8.015625 75.875 
L 15.828125 75.875 
Q 23.140625 64.359375 26.78125 53.3125 
Q 30.421875 42.28125 30.421875 31.390625 
Q 30.421875 20.453125 26.78125 9.375 
Q 23.140625 -1.703125 15.828125 -13.1875 
L 8.015625 -13.1875 
Q 14.5 -2 17.703125 9.0625 
Q 20.90625 20.125 20.90625 31.390625 
Q 20.90625 42.671875 17.703125 53.65625 
Q 14.5 64.65625 8.015625 75.875 
" id="BitstreamVeraSans-Roman-29"/>
      <path d="M 31 75.875 
Q 24.46875 64.65625 21.28125 53.65625 
Q 18.109375 42.671875 18.109375 31.390625 
Q 18.109375 20.125 21.3125 9.0625 
Q 24.515625 -2 31 -13.1875 
L 23.1875 -13.1875 
Q 15.875 -1.703125 12.234375 9.375 
Q 8.59375 20.453125 8.59375 31.390625 
Q 8.59375 42.28125 12.203125 53.3125 
Q 15.828125 64.359375 23.1875 75.875 
z
" id="BitstreamVeraSans-Roman-28"/>
      <path d="M 45.40625 27.984375 
Q 45.40625 37.75 41.375 43.109375 
Q 37.359375 48.484375 30.078125 48.484375 
Q 22.859375 48.484375 18.828125 43.109375 
Q 14.796875 37.75 14.796875 27.984375 
Q 14.796875 18.265625 18.828125 12.890625 
Q 22.859375 7.515625 30.078125 7.515625 
Q 37.359375 7.515625 41.375 12.890625 
Q 45.40625 18.265625 45.40625 27.984375 
M 54.390625 6.78125 
Q 54.390625 -7.171875 48.1875 -13.984375 
Q 42 -20.796875 29.203125 -20.796875 
Q 24.46875 -20.796875 20.265625 -20.09375 
Q 16.0625 -19.390625 12.109375 -17.921875 
L 12.109375 -9.1875 
Q 16.0625 -11.328125 19.921875 -12.34375 
Q 23.78125 -13.375 27.78125 -13.375 
Q 36.625 -13.375 41.015625 -8.765625 
Q 45.40625 -4.15625 45.40625 5.171875 
L 45.40625 9.625 
Q 42.625 4.78125 38.28125 2.390625 
Q 33.9375 0 27.875 0 
Q 17.828125 0 11.671875 7.65625 
Q 5.515625 15.328125 5.515625 27.984375 
Q 5.515625 40.671875 11.671875 48.328125 
Q 17.828125 56 27.875 56 
Q 33.9375 56 38.28125 53.609375 
Q 42.625 51.21875 45.40625 46.390625 
L 45.40625 54.6875 
L 54.390625 54.6875 
z
" id="BitstreamVeraSans-Roman-67"/>
      <path d="M 9.421875 75.984375 
L 18.40625 75.984375 
L 18.40625 0 
L 9.421875 0 
z
" id="BitstreamVeraSans-Roman-6c"/>
     </defs>
     <g transform="translate(79.846875 462.69609375)rotate(-90.0)scale(0.3 -0.3)">
      <use xlink:href="#BitstreamVeraSans-Roman-6c"/>
      <use x="27.783203125" xlink:href="#BitstreamVeraSans-Roman-6f"/>
      <use x="88.96484375" xlink:href="#BitstreamVeraSans-Roman-67"/>
      <use x="152.44140625" xlink:href="#BitstreamVeraSans-Roman-28"/>
      <use x="191.455078125" xlink:href="#BitstreamVeraSans-Roman-6c"/>
      <use x="219.23828125" xlink:href="#BitstreamVeraSans-Roman-6f"/>
      <use x="280.419921875" xlink:href="#BitstreamVeraSans-Roman-73"/>
      <use x="332.51953125" xlink:href="#BitstreamVeraSans-Roman-73"/>
      <use x="384.619140625" xlink:href="#BitstreamVeraSans-Roman-29"/>
     </g>
    </g>
   </g>
   <g id="legend_1">
    <g id="patch_7">
     <path d="M 867.726562 163.36875 
L 1344.9 163.36875 
L 1344.9 66.3 
L 867.726562 66.3 
z
" style="fill:#ffffff;stroke:#000000;stroke-linejoin:miter;"/>
    </g>
    <g id="line2d_33">
     <path d="M 888.726562 90.595312 
L 930.726562 90.595312 
" style="fill:none;stroke:#0000ff;stroke-linecap:square;stroke-width:2.0;"/>
    </g>
    <g id="line2d_34"/>
    <g id="text_18">
     <!-- random: step=0.009776 -->
     <defs>
      <path id="BitstreamVeraSans-Roman-20"/>
      <path d="M 8.203125 72.90625 
L 55.078125 72.90625 
L 55.078125 68.703125 
L 28.609375 0 
L 18.3125 0 
L 43.21875 64.59375 
L 8.203125 64.59375 
z
" id="BitstreamVeraSans-Roman-37"/>
      <path d="M 52 44.1875 
Q 55.375 50.25 60.0625 53.125 
Q 64.75 56 71.09375 56 
Q 79.640625 56 84.28125 50.015625 
Q 88.921875 44.046875 88.921875 33.015625 
L 88.921875 0 
L 79.890625 0 
L 79.890625 32.71875 
Q 79.890625 40.578125 77.09375 44.375 
Q 74.3125 48.1875 68.609375 48.1875 
Q 61.625 48.1875 57.5625 43.546875 
Q 53.515625 38.921875 53.515625 30.90625 
L 53.515625 0 
L 44.484375 0 
L 44.484375 32.71875 
Q 44.484375 40.625 41.703125 44.40625 
Q 38.921875 48.1875 33.109375 48.1875 
Q 26.21875 48.1875 22.15625 43.53125 
Q 18.109375 38.875 18.109375 30.90625 
L 18.109375 0 
L 9.078125 0 
L 9.078125 54.6875 
L 18.109375 54.6875 
L 18.109375 46.1875 
Q 21.1875 51.21875 25.484375 53.609375 
Q 29.78125 56 35.6875 56 
Q 41.65625 56 45.828125 52.96875 
Q 50 49.953125 52 44.1875 
" id="BitstreamVeraSans-Roman-6d"/>
      <path d="M 10.984375 1.515625 
L 10.984375 10.5 
Q 14.703125 8.734375 18.5 7.8125 
Q 22.3125 6.890625 25.984375 6.890625 
Q 35.75 6.890625 40.890625 13.453125 
Q 46.046875 20.015625 46.78125 33.40625 
Q 43.953125 29.203125 39.59375 26.953125 
Q 35.25 24.703125 29.984375 24.703125 
Q 19.046875 24.703125 12.671875 31.3125 
Q 6.296875 37.9375 6.296875 49.421875 
Q 6.296875 60.640625 12.9375 67.421875 
Q 19.578125 74.21875 30.609375 74.21875 
Q 43.265625 74.21875 49.921875 64.515625 
Q 56.59375 54.828125 56.59375 36.375 
Q 56.59375 19.140625 48.40625 8.859375 
Q 40.234375 -1.421875 26.421875 -1.421875 
Q 22.703125 -1.421875 18.890625 -0.6875 
Q 15.09375 0.046875 10.984375 1.515625 
M 30.609375 32.421875 
Q 37.25 32.421875 41.125 36.953125 
Q 45.015625 41.5 45.015625 49.421875 
Q 45.015625 57.28125 41.125 61.84375 
Q 37.25 66.40625 30.609375 66.40625 
Q 23.96875 66.40625 20.09375 61.84375 
Q 16.21875 57.28125 16.21875 49.421875 
Q 16.21875 41.5 20.09375 36.953125 
Q 23.96875 32.421875 30.609375 32.421875 
" id="BitstreamVeraSans-Roman-39"/>
      <path d="M 11.71875 12.40625 
L 22.015625 12.40625 
L 22.015625 0 
L 11.71875 0 
z
M 11.71875 51.703125 
L 22.015625 51.703125 
L 22.015625 39.3125 
L 11.71875 39.3125 
z
" id="BitstreamVeraSans-Roman-3a"/>
      <path d="M 10.6875 12.40625 
L 21 12.40625 
L 21 0 
L 10.6875 0 
z
" id="BitstreamVeraSans-Roman-2e"/>
      <path d="M 10.59375 45.40625 
L 73.1875 45.40625 
L 73.1875 37.203125 
L 10.59375 37.203125 
z
M 10.59375 25.484375 
L 73.1875 25.484375 
L 73.1875 17.1875 
L 10.59375 17.1875 
z
" id="BitstreamVeraSans-Roman-3d"/>
      <path d="M 45.40625 46.390625 
L 45.40625 75.984375 
L 54.390625 75.984375 
L 54.390625 0 
L 45.40625 0 
L 45.40625 8.203125 
Q 42.578125 3.328125 38.25 0.953125 
Q 33.9375 -1.421875 27.875 -1.421875 
Q 17.96875 -1.421875 11.734375 6.484375 
Q 5.515625 14.40625 5.515625 27.296875 
Q 5.515625 40.1875 11.734375 48.09375 
Q 17.96875 56 27.875 56 
Q 33.9375 56 38.25 53.625 
Q 42.578125 51.265625 45.40625 46.390625 
M 14.796875 27.296875 
Q 14.796875 17.390625 18.875 11.75 
Q 22.953125 6.109375 30.078125 6.109375 
Q 37.203125 6.109375 41.296875 11.75 
Q 45.40625 17.390625 45.40625 27.296875 
Q 45.40625 37.203125 41.296875 42.84375 
Q 37.203125 48.484375 30.078125 48.484375 
Q 22.953125 48.484375 18.875 42.84375 
Q 14.796875 37.203125 14.796875 27.296875 
" id="BitstreamVeraSans-Roman-64"/>
      <path d="M 18.109375 8.203125 
L 18.109375 -20.796875 
L 9.078125 -20.796875 
L 9.078125 54.6875 
L 18.109375 54.6875 
L 18.109375 46.390625 
Q 20.953125 51.265625 25.265625 53.625 
Q 29.59375 56 35.59375 56 
Q 45.5625 56 51.78125 48.09375 
Q 58.015625 40.1875 58.015625 27.296875 
Q 58.015625 14.40625 51.78125 6.484375 
Q 45.5625 -1.421875 35.59375 -1.421875 
Q 29.59375 -1.421875 25.265625 0.953125 
Q 20.953125 3.328125 18.109375 8.203125 
M 48.6875 27.296875 
Q 48.6875 37.203125 44.609375 42.84375 
Q 40.53125 48.484375 33.40625 48.484375 
Q 26.265625 48.484375 22.1875 42.84375 
Q 18.109375 37.203125 18.109375 27.296875 
Q 18.109375 17.390625 22.1875 11.75 
Q 26.265625 6.109375 33.40625 6.109375 
Q 40.53125 6.109375 44.609375 11.75 
Q 48.6875 17.390625 48.6875 27.296875 
" id="BitstreamVeraSans-Roman-70"/>
     </defs>
     <g transform="translate(963.7265625 101.0953125)scale(0.3 -0.3)">
      <use xlink:href="#BitstreamVeraSans-Roman-72"/>
      <use x="41.11328125" xlink:href="#BitstreamVeraSans-Roman-61"/>
      <use x="102.392578125" xlink:href="#BitstreamVeraSans-Roman-6e"/>
      <use x="165.771484375" xlink:href="#BitstreamVeraSans-Roman-64"/>
      <use x="229.248046875" xlink:href="#BitstreamVeraSans-Roman-6f"/>
      <use x="290.4296875" xlink:href="#BitstreamVeraSans-Roman-6d"/>
      <use x="387.841796875" xlink:href="#BitstreamVeraSans-Roman-3a"/>
      <use x="421.533203125" xlink:href="#BitstreamVeraSans-Roman-20"/>
      <use x="453.3203125" xlink:href="#BitstreamVeraSans-Roman-73"/>
      <use x="505.419921875" xlink:href="#BitstreamVeraSans-Roman-74"/>
      <use x="544.62890625" xlink:href="#BitstreamVeraSans-Roman-65"/>
      <use x="606.15234375" xlink:href="#BitstreamVeraSans-Roman-70"/>
      <use x="669.62890625" xlink:href="#BitstreamVeraSans-Roman-3d"/>
      <use x="753.41796875" xlink:href="#BitstreamVeraSans-Roman-30"/>
      <use x="817.041015625" xlink:href="#BitstreamVeraSans-Roman-2e"/>
      <use x="848.828125" xlink:href="#BitstreamVeraSans-Roman-30"/>
      <use x="912.451171875" xlink:href="#BitstreamVeraSans-Roman-30"/>
      <use x="976.07421875" xlink:href="#BitstreamVeraSans-Roman-39"/>
      <use x="1039.69726562" xlink:href="#BitstreamVeraSans-Roman-37"/>
      <use x="1103.3203125" xlink:href="#BitstreamVeraSans-Roman-37"/>
      <use x="1166.94335938" xlink:href="#BitstreamVeraSans-Roman-36"/>
     </g>
    </g>
    <g id="line2d_35">
     <path d="M 888.726562 134.629687 
L 930.726562 134.629687 
" style="fill:none;stroke:#008000;stroke-linecap:square;stroke-width:2.0;"/>
    </g>
    <g id="line2d_36"/>
    <g id="text_19">
     <!-- corr: step=0.009776 -->
     <defs>
      <path d="M 48.78125 52.59375 
L 48.78125 44.1875 
Q 44.96875 46.296875 41.140625 47.34375 
Q 37.3125 48.390625 33.40625 48.390625 
Q 24.65625 48.390625 19.8125 42.84375 
Q 14.984375 37.3125 14.984375 27.296875 
Q 14.984375 17.28125 19.8125 11.734375 
Q 24.65625 6.203125 33.40625 6.203125 
Q 37.3125 6.203125 41.140625 7.25 
Q 44.96875 8.296875 48.78125 10.40625 
L 48.78125 2.09375 
Q 45.015625 0.34375 40.984375 -0.53125 
Q 36.96875 -1.421875 32.421875 -1.421875 
Q 20.0625 -1.421875 12.78125 6.34375 
Q 5.515625 14.109375 5.515625 27.296875 
Q 5.515625 40.671875 12.859375 48.328125 
Q 20.21875 56 33.015625 56 
Q 37.15625 56 41.109375 55.140625 
Q 45.0625 54.296875 48.78125 52.59375 
" id="BitstreamVeraSans-Roman-63"/>
     </defs>
     <g transform="translate(963.7265625 145.1296875)scale(0.3 -0.3)">
      <use xlink:href="#BitstreamVeraSans-Roman-63"/>
      <use x="54.98046875" xlink:href="#BitstreamVeraSans-Roman-6f"/>
      <use x="116.162109375" xlink:href="#BitstreamVeraSans-Roman-72"/>
      <use x="157.259765625" xlink:href="#BitstreamVeraSans-Roman-72"/>
      <use x="198.357421875" xlink:href="#BitstreamVeraSans-Roman-3a"/>
      <use x="232.048828125" xlink:href="#BitstreamVeraSans-Roman-20"/>
      <use x="263.8359375" xlink:href="#BitstreamVeraSans-Roman-73"/>
      <use x="315.935546875" xlink:href="#BitstreamVeraSans-Roman-74"/>
      <use x="355.14453125" xlink:href="#BitstreamVeraSans-Roman-65"/>
      <use x="416.66796875" xlink:href="#BitstreamVeraSans-Roman-70"/>
      <use x="480.14453125" xlink:href="#BitstreamVeraSans-Roman-3d"/>
      <use x="563.93359375" xlink:href="#BitstreamVeraSans-Roman-30"/>
      <use x="627.556640625" xlink:href="#BitstreamVeraSans-Roman-2e"/>
      <use x="659.34375" xlink:href="#BitstreamVeraSans-Roman-30"/>
      <use x="722.966796875" xlink:href="#BitstreamVeraSans-Roman-30"/>
      <use x="786.58984375" xlink:href="#BitstreamVeraSans-Roman-39"/>
      <use x="850.212890625" xlink:href="#BitstreamVeraSans-Roman-37"/>
      <use x="913.8359375" xlink:href="#BitstreamVeraSans-Roman-37"/>
      <use x="977.458984375" xlink:href="#BitstreamVeraSans-Roman-36"/>
     </g>
    </g>
   </g>
  </g>
 </g>
 <defs>
  <clipPath id="pc31f538248">
   <rect height="695.7" width="1201.5" x="158.4" y="51.3"/>
  </clipPath>
 </defs>
</svg>
