<?xml version="1.0" encoding="utf-8" standalone="no"?>
<!DOCTYPE svg PUBLIC "-//W3C//DTD SVG 1.1//EN"
  "http://www.w3.org/Graphics/SVG/1.1/DTD/svg11.dtd">
<!-- Created with matplotlib (http://matplotlib.org/) -->
<svg height="864pt" version="1.1" viewBox="0 0 1440 864" width="1440pt" xmlns="http://www.w3.org/2000/svg" xmlns:xlink="http://www.w3.org/1999/xlink">
 <defs>
  <style type="text/css">
*{stroke-linecap:butt;stroke-linejoin:round;stroke-miterlimit:100000;}
  </style>
 </defs>
 <g id="figure_1">
  <g id="patch_1">
   <path d="M 0 864 
L 1440 864 
L 1440 0 
L 0 0 
z
" style="fill:#ffffff;"/>
  </g>
  <g id="axes_1">
   <g id="patch_2">
    <path d="M 93.382656 770.338125 
L 1381.831875 770.338125 
L 1381.831875 57.915781 
L 93.382656 57.915781 
z
" style="fill:#ffffff;"/>
   </g>
   <g id="line2d_1">
    <path clip-path="url(#p39cdd91d46)" d="M 93.382656 126.304681 
L 101.113352 136.08439 
L 103.69025 138.546501 
L 108.844047 146.443384 
L 111.420945 149.122103 
L 113.997844 152.20216 
L 116.574742 154.430731 
L 119.151641 157.353644 
L 121.728539 161.381808 
L 124.305437 164.394643 
L 126.882336 168.222569 
L 129.459234 171.823993 
L 132.036133 174.890335 
L 134.613031 178.706163 
L 139.766828 184.716123 
L 142.343727 187.54607 
L 144.920625 189.936492 
L 147.497523 193.343429 
L 150.074422 195.640267 
L 155.228219 203.05543 
L 157.805117 205.73752 
L 162.958914 212.959969 
L 165.535813 215.474553 
L 168.112711 218.876962 
L 170.689609 221.576634 
L 173.266508 223.763207 
L 175.843406 226.349268 
L 180.997203 231.912029 
L 183.574102 235.679806 
L 186.151 238.755006 
L 188.727898 242.162495 
L 191.304797 244.17023 
L 193.881695 246.988599 
L 196.458594 249.526691 
L 199.035492 253.701362 
L 201.612391 256.205776 
L 206.766188 262.238276 
L 209.343086 264.830843 
L 211.919984 267.657573 
L 217.073781 272.96471 
L 219.65068 277.470957 
L 222.227578 280.365264 
L 224.804477 282.985188 
L 227.381375 286.617456 
L 229.958273 288.648065 
L 232.535172 292.089168 
L 235.11207 294.893857 
L 237.688969 298.174362 
L 242.842766 305.748152 
L 245.419664 308.726217 
L 247.996563 312.414483 
L 250.573461 315.234027 
L 258.304156 325.601821 
L 260.881055 328.429318 
L 263.457953 330.350298 
L 266.034852 333.530963 
L 268.61175 336.952221 
L 273.765547 344.614043 
L 276.342445 347.62954 
L 278.919344 351.634339 
L 281.496242 354.645446 
L 284.073141 357.385858 
L 286.650039 360.64757 
L 291.803836 366.654969 
L 294.380734 369.68767 
L 296.957633 372.532197 
L 302.11143 377.619398 
L 307.265227 383.350581 
L 309.842125 386.017575 
L 314.995922 392.810067 
L 317.57282 395.979224 
L 320.149719 398.940791 
L 322.726617 401.656478 
L 325.303516 404.070102 
L 327.880414 407.54031 
L 330.457313 411.78781 
L 333.034211 414.096049 
L 338.188008 421.473678 
L 340.764906 424.016754 
L 343.341805 426.879205 
L 348.495602 431.909539 
L 351.0725 435.343849 
L 353.649398 439.462232 
L 356.226297 442.681209 
L 358.803195 445.538746 
L 366.533891 456.197924 
L 374.264586 464.17356 
L 376.841484 466.508854 
L 379.418383 469.925748 
L 381.995281 471.714292 
L 384.57218 473.836426 
L 389.725977 480.117263 
L 392.302875 482.736581 
L 394.879773 486.35027 
L 397.456672 489.678365 
L 400.03357 492.163514 
L 402.610469 496.205054 
L 405.187367 499.606047 
L 407.764266 502.204428 
L 410.341164 506.844835 
L 412.918063 511.155341 
L 415.494961 515.027959 
L 418.071859 518.231876 
L 420.648758 520.685799 
L 423.225656 522.785794 
L 425.802555 526.785163 
L 428.379453 529.152722 
L 430.956352 533.562641 
L 433.53325 537.091193 
L 436.110148 541.126187 
L 441.263945 546.656265 
L 443.840844 549.212164 
L 446.417742 552.036794 
L 448.994641 554.341829 
L 451.571539 557.075892 
L 454.148438 561.09656 
L 456.725336 563.906512 
L 461.879133 570.184457 
L 464.456031 573.492087 
L 467.03293 576.329344 
L 469.609828 579.914318 
L 472.186727 582.615437 
L 474.763625 585.734775 
L 477.340523 589.037341 
L 482.49432 595.184098 
L 485.071219 598.766242 
L 490.225016 605.118373 
L 495.378812 612.340143 
L 497.955711 614.66764 
L 503.109508 622.785119 
L 505.686406 626.376303 
L 510.840203 632.659517 
L 513.417102 636.869293 
L 515.994 638.69865 
L 518.570898 641.354258 
L 521.147797 646.550188 
L 526.301594 655.318769 
L 528.878492 657.30488 
L 531.455391 660.12457 
L 534.032289 664.230965 
L 536.609188 669.447386 
L 541.762984 675.975557 
L 544.339883 679.506206 
L 546.916781 682.60327 
L 549.49368 686.907251 
L 552.070578 690.003662 
L 559.801273 700.925175 
L 562.378172 704.361897 
L 564.95507 706.919149 
L 567.531969 710.651504 
L 570.108867 713.235064 
L 577.839563 722.846391 
L 580.416461 725.927901 
L 582.993359 728.49115 
L 585.570258 732.093052 
L 588.147156 734.656298 
L 590.724055 737.569596 
L 593.300953 740.242298 
L 595.877852 742.467569 
L 598.45475 743.921434 
L 603.608547 747.112498 
L 606.185445 748.248367 
L 608.762344 749.668039 
L 611.339242 749.663749 
L 613.916141 749.967473 
L 616.493039 750.479042 
L 619.069938 750.852005 
L 621.646836 751.670135 
L 624.223734 753.246802 
L 626.800633 753.520324 
L 629.377531 752.146549 
L 631.95443 752.797231 
L 634.531328 752.344073 
L 637.108227 753.003346 
L 639.685125 752.590873 
L 642.262023 753.624898 
L 644.838922 752.536466 
L 647.41582 752.853892 
L 649.992719 752.893036 
L 652.569617 754.200119 
L 655.146516 753.570533 
L 657.723414 754.536598 
L 660.300313 754.896314 
L 662.877211 754.20382 
L 668.031008 753.440682 
L 670.607906 753.692787 
L 673.184805 752.69642 
L 675.761703 752.83966 
L 678.338602 753.559651 
L 680.9155 752.986355 
L 683.492398 751.992835 
L 686.069297 751.993164 
L 688.646195 752.598053 
L 691.223094 752.55744 
L 693.799992 752.705201 
L 696.376891 751.689668 
L 698.953789 752.901253 
L 701.530687 753.321249 
L 704.107586 752.860829 
L 706.684484 752.580886 
L 709.261383 752.722997 
L 711.838281 753.542492 
L 714.41518 753.213905 
L 716.992078 753.755737 
L 719.568977 753.675441 
L 722.145875 753.9396 
L 724.722773 753.980709 
L 727.299672 753.02008 
L 729.87657 753.271544 
L 732.453469 752.361129 
L 737.607266 752.289465 
L 740.184164 751.811611 
L 742.761062 751.084952 
L 745.337961 751.074312 
L 747.914859 751.934413 
L 750.491758 752.463831 
L 753.068656 752.587361 
L 755.645555 752.197628 
L 760.799352 753.252836 
L 763.37625 751.694087 
L 765.953148 751.67832 
L 768.530047 752.972063 
L 771.106945 753.176526 
L 773.683844 752.721229 
L 776.260742 753.292413 
L 778.837641 753.701256 
L 781.414539 751.440379 
L 783.991437 752.442673 
L 791.722133 752.985927 
L 794.299031 754.365004 
L 796.87593 753.237627 
L 799.452828 752.924392 
L 802.029727 753.272693 
L 804.606625 753.23353 
L 807.183523 752.799152 
L 809.760422 752.982541 
L 812.33732 752.439617 
L 814.914219 753.422062 
L 817.491117 753.919816 
L 820.068016 752.943741 
L 822.644914 752.664421 
L 825.221813 753.362293 
L 827.798711 753.905888 
L 830.375609 753.846502 
L 832.952508 753.635352 
L 835.529406 753.911565 
L 838.106305 753.339354 
L 840.683203 754.111601 
L 843.260102 753.995766 
L 845.837 752.747917 
L 848.413898 752.189713 
L 850.990797 752.472432 
L 853.567695 752.943568 
L 858.721492 753.204138 
L 861.298391 752.569701 
L 863.875289 752.373518 
L 866.452188 752.716639 
L 869.029086 753.443821 
L 871.605984 753.288054 
L 874.182883 752.971631 
L 876.759781 753.259001 
L 879.33668 752.937026 
L 881.913578 753.132142 
L 884.490477 753.570306 
L 887.067375 752.8869 
L 889.644273 751.658666 
L 894.79807 751.897745 
L 899.951867 753.317804 
L 905.105664 752.871205 
L 907.682563 752.874284 
L 910.259461 753.552496 
L 915.413258 753.571525 
L 917.990156 754.572629 
L 920.567055 752.260268 
L 923.143953 752.120478 
L 925.720852 751.868177 
L 928.29775 752.895468 
L 930.874648 752.665462 
L 933.451547 753.162389 
L 936.028445 753.987681 
L 938.605344 753.491165 
L 941.182242 753.777317 
L 943.759141 753.20683 
L 946.336039 753.551134 
L 948.912937 752.461737 
L 951.489836 751.568514 
L 954.066734 752.243037 
L 959.220531 752.696764 
L 961.79743 752.385319 
L 964.374328 752.285624 
L 966.951227 752.582661 
L 969.528125 752.433405 
L 972.105023 751.575724 
L 974.681922 751.752766 
L 977.25882 752.639261 
L 982.412617 752.674701 
L 984.989516 753.268158 
L 987.566414 753.015906 
L 990.143312 753.561902 
L 992.720211 754.581882 
L 995.297109 754.475488 
L 997.874008 754.010038 
L 1000.450906 752.567226 
L 1003.027805 753.541793 
L 1005.604703 752.768396 
L 1008.181602 753.121381 
L 1010.7585 752.14853 
L 1013.335398 752.003421 
L 1015.912297 752.455953 
L 1018.489195 752.413295 
L 1021.066094 752.123063 
L 1023.642992 752.488042 
L 1028.796789 752.005917 
L 1031.373688 752.255915 
L 1033.950586 753.768548 
L 1036.527484 753.003325 
L 1039.104383 754.158524 
L 1041.681281 752.791225 
L 1044.25818 753.049706 
L 1046.835078 753.533443 
L 1049.411977 752.797466 
L 1054.565773 753.248025 
L 1057.142672 752.848526 
L 1059.71957 752.634064 
L 1062.296469 753.313919 
L 1064.873367 753.00529 
L 1067.450266 753.372154 
L 1070.027164 753.293809 
L 1072.604063 752.600968 
L 1075.180961 752.115058 
L 1077.757859 752.701443 
L 1080.334758 753.784672 
L 1082.911656 753.303158 
L 1090.642352 753.544134 
L 1093.21925 754.203838 
L 1095.796148 753.020775 
L 1098.373047 753.369978 
L 1100.949945 753.338046 
L 1103.526844 752.892625 
L 1106.103742 753.217272 
L 1111.257539 752.881515 
L 1113.834438 752.463948 
L 1116.411336 752.866444 
L 1118.988234 753.088958 
L 1126.71893 752.711706 
L 1129.295828 752.32982 
L 1131.872727 752.515281 
L 1134.449625 752.252251 
L 1137.026523 752.639854 
L 1139.603422 752.18043 
L 1142.18032 753.104466 
L 1144.757219 752.574148 
L 1149.911016 754.199091 
L 1152.487914 754.050385 
L 1155.064813 752.787118 
L 1160.218609 753.055658 
L 1162.795508 753.11852 
L 1165.372406 753.985361 
L 1167.949305 754.272667 
L 1170.526203 754.823031 
L 1173.103102 754.020653 
L 1175.68 753.798379 
L 1178.256898 753.7275 
L 1180.833797 752.902683 
L 1183.410695 752.404868 
L 1185.987594 752.558317 
L 1188.564492 753.215602 
L 1191.141391 753.351867 
L 1193.718289 754.069382 
L 1196.295188 754.302444 
L 1198.872086 754.177244 
L 1201.448984 754.706948 
L 1204.025883 754.766013 
L 1206.602781 754.970017 
L 1209.17968 754.543924 
L 1211.756578 753.494868 
L 1214.333477 753.075166 
L 1216.910375 752.849564 
L 1222.064172 753.55195 
L 1224.64107 753.037517 
L 1227.217969 752.344565 
L 1229.794867 752.939445 
L 1232.371766 752.199702 
L 1234.948664 752.662271 
L 1237.525563 752.054279 
L 1240.102461 751.736483 
L 1242.679359 752.148746 
L 1245.256258 752.815016 
L 1247.833156 753.138763 
L 1250.410055 752.735567 
L 1252.986953 752.763666 
L 1255.563852 753.697193 
L 1258.14075 753.082831 
L 1260.717648 753.518326 
L 1263.294547 752.5683 
L 1268.448344 752.525872 
L 1271.025242 752.236512 
L 1273.602141 752.212861 
L 1276.179039 752.868206 
L 1278.755938 753.145129 
L 1281.332836 753.211532 
L 1283.909734 752.804784 
L 1286.486633 753.607572 
L 1291.64043 752.831264 
L 1294.217328 754.008713 
L 1296.794227 752.911683 
L 1299.371125 753.05489 
L 1301.948023 753.652908 
L 1304.524922 754.121443 
L 1307.10182 753.730208 
L 1309.678719 753.620505 
L 1314.832516 754.717859 
L 1319.986313 754.877066 
L 1322.563211 754.185386 
L 1325.140109 752.986201 
L 1327.717008 753.775995 
L 1330.293906 754.07466 
L 1335.447703 753.363788 
L 1338.024602 754.597947 
L 1340.6015 753.794765 
L 1343.178398 752.617456 
L 1345.755297 753.558018 
L 1348.332195 753.81221 
L 1350.909094 753.404702 
L 1353.485992 753.432615 
L 1356.062891 753.309363 
L 1358.639789 753.834922 
L 1361.216688 753.236244 
L 1363.793586 753.265993 
L 1366.370484 753.554374 
L 1368.947383 752.935411 
L 1374.10118 752.080963 
L 1376.678078 751.837671 
L 1379.254977 752.445347 
L 1379.254977 752.445347 
" style="fill:none;stroke:#0000ff;stroke-linecap:square;stroke-width:2.0;"/>
   </g>
   <g id="line2d_2">
    <path clip-path="url(#p39cdd91d46)" d="M 93.382656 126.547315 
L 101.113352 135.32259 
L 108.844047 145.129054 
L 111.420945 147.859777 
L 113.997844 151.371266 
L 116.574742 154.522945 
L 121.728539 160.271 
L 124.305437 164.132457 
L 126.882336 167.258648 
L 129.459234 169.78953 
L 132.036133 172.708124 
L 137.18993 179.44853 
L 139.766828 184.608838 
L 144.920625 190.801004 
L 147.497523 194.589273 
L 150.074422 197.776538 
L 152.65132 201.557573 
L 155.228219 204.712756 
L 157.805117 208.319661 
L 162.958914 214.007709 
L 165.535813 217.953634 
L 168.112711 220.571455 
L 170.689609 223.443222 
L 175.843406 229.915735 
L 178.420305 233.065095 
L 180.997203 235.999638 
L 183.574102 240.036631 
L 186.151 243.433078 
L 191.304797 248.841417 
L 193.881695 250.932291 
L 199.035492 257.544471 
L 201.612391 261.717659 
L 204.189289 265.217614 
L 209.343086 271.902431 
L 211.919984 274.640456 
L 214.496883 277.871474 
L 217.073781 280.637512 
L 219.65068 282.662749 
L 222.227578 285.207389 
L 224.804477 289.233576 
L 227.381375 292.144205 
L 235.11207 303.18321 
L 237.688969 305.967675 
L 240.265867 309.079138 
L 242.842766 311.895638 
L 245.419664 315.359386 
L 247.996563 318.341429 
L 253.150359 325.057262 
L 255.727258 328.833752 
L 258.304156 331.611769 
L 260.881055 334.912611 
L 263.457953 338.731334 
L 271.188648 347.871023 
L 273.765547 352.012976 
L 276.342445 355.339629 
L 278.919344 358.020698 
L 281.496242 360.992288 
L 284.073141 364.511023 
L 286.650039 367.12555 
L 291.803836 374.336544 
L 294.380734 376.799645 
L 296.957633 378.401775 
L 299.534531 380.590978 
L 302.11143 384.256022 
L 304.688328 387.513861 
L 307.265227 391.245003 
L 309.842125 394.341126 
L 314.995922 399.956772 
L 317.57282 403.41382 
L 322.726617 411.630154 
L 325.303516 413.800555 
L 327.880414 416.557601 
L 330.457313 419.892023 
L 333.034211 422.166851 
L 335.611109 425.086395 
L 338.188008 428.425011 
L 340.764906 432.299042 
L 343.341805 434.332669 
L 345.918703 437.409202 
L 348.495602 439.775564 
L 351.0725 443.197616 
L 353.649398 445.651348 
L 356.226297 449.333884 
L 358.803195 452.689703 
L 363.956992 460.233595 
L 366.533891 463.52216 
L 376.841484 477.978768 
L 381.995281 483.010855 
L 387.149078 488.172075 
L 389.725977 491.428491 
L 392.302875 494.26711 
L 394.879773 497.537845 
L 397.456672 500.117972 
L 400.03357 502.241215 
L 402.610469 505.090887 
L 405.187367 509.007475 
L 412.918063 519.241263 
L 420.648758 526.991752 
L 428.379453 535.4565 
L 430.956352 538.298496 
L 433.53325 541.729475 
L 436.110148 545.797177 
L 438.687047 548.383842 
L 441.263945 552.274742 
L 446.417742 558.459603 
L 448.994641 562.133733 
L 456.725336 570.991633 
L 459.302234 573.702325 
L 461.879133 577.96684 
L 467.03293 584.764504 
L 469.609828 588.372465 
L 472.186727 591.683612 
L 474.763625 593.894877 
L 477.340523 596.711279 
L 482.49432 605.016796 
L 485.071219 608.37586 
L 487.648117 611.442591 
L 490.225016 615.333642 
L 492.801914 618.281802 
L 495.378812 621.787325 
L 500.532609 628.321393 
L 503.109508 631.180948 
L 505.686406 634.375897 
L 508.263305 636.725424 
L 510.840203 639.719221 
L 513.417102 643.284293 
L 515.994 646.328892 
L 518.570898 649.954051 
L 521.147797 652.678156 
L 523.724695 655.897215 
L 526.301594 658.439501 
L 528.878492 661.736962 
L 534.032289 667.355764 
L 536.609188 670.735988 
L 539.186086 672.96243 
L 541.762984 675.679166 
L 544.339883 678.217938 
L 552.070578 688.261836 
L 554.647477 690.77001 
L 557.224375 692.874374 
L 559.801273 696.682937 
L 562.378172 698.698959 
L 564.95507 702.218422 
L 570.108867 708.191109 
L 572.685766 711.659092 
L 575.262664 713.906561 
L 580.416461 718.88015 
L 582.993359 722.660868 
L 588.147156 728.864872 
L 590.724055 730.495437 
L 593.300953 733.220674 
L 595.877852 735.047296 
L 598.45475 738.740362 
L 601.031648 740.960616 
L 603.608547 742.7469 
L 606.185445 744.120479 
L 608.762344 744.942859 
L 611.339242 746.309655 
L 613.916141 747.317505 
L 616.493039 749.497745 
L 619.069938 749.739705 
L 621.646836 750.325759 
L 624.223734 750.757721 
L 626.800633 750.995671 
L 629.377531 751.650796 
L 631.95443 750.909828 
L 634.531328 750.93009 
L 637.108227 751.183948 
L 639.685125 752.38665 
L 642.262023 752.941643 
L 644.838922 752.075977 
L 647.41582 753.30544 
L 649.992719 753.935145 
L 655.146516 753.491386 
L 657.723414 753.619194 
L 660.300313 753.956664 
L 662.877211 753.611064 
L 665.454109 752.471544 
L 668.031008 752.655582 
L 670.607906 753.658729 
L 680.9155 754.090815 
L 683.492398 753.988401 
L 686.069297 752.955564 
L 688.646195 752.515493 
L 691.223094 753.683368 
L 693.799992 752.612552 
L 696.376891 752.844226 
L 698.953789 753.656458 
L 701.530687 754.112512 
L 704.107586 754.058346 
L 709.261383 752.591681 
L 711.838281 752.783211 
L 714.41518 752.757821 
L 716.992078 752.320196 
L 719.568977 753.111641 
L 722.145875 753.783949 
L 724.722773 753.109307 
L 729.87657 753.18258 
L 732.453469 753.430268 
L 735.030367 752.956131 
L 737.607266 753.94277 
L 740.184164 754.069451 
L 742.761062 753.727508 
L 745.337961 753.952215 
L 747.914859 753.47916 
L 750.491758 754.785428 
L 753.068656 754.481274 
L 758.222453 754.110301 
L 760.799352 753.582261 
L 763.37625 753.297219 
L 765.953148 752.735284 
L 768.530047 753.00775 
L 771.106945 753.996284 
L 773.683844 754.377935 
L 776.260742 754.509306 
L 778.837641 753.589763 
L 781.414539 753.267307 
L 786.568336 754.881246 
L 789.145234 754.046765 
L 791.722133 753.516935 
L 794.299031 753.644769 
L 796.87593 754.07855 
L 799.452828 754.977542 
L 802.029727 753.579853 
L 804.606625 752.939034 
L 807.183523 752.172236 
L 809.760422 752.541901 
L 812.33732 752.504273 
L 814.914219 752.969079 
L 817.491117 753.692175 
L 820.068016 752.693779 
L 822.644914 752.702354 
L 825.221813 752.860164 
L 827.798711 752.614716 
L 830.375609 753.420102 
L 832.952508 753.521555 
L 835.529406 754.339431 
L 838.106305 753.640995 
L 840.683203 754.456704 
L 843.260102 753.739347 
L 845.837 754.456366 
L 848.413898 753.805439 
L 850.990797 753.580397 
L 853.567695 753.581578 
L 856.144594 754.485281 
L 858.721492 755.266773 
L 861.298391 755.280569 
L 866.452188 753.937088 
L 869.029086 754.452558 
L 871.605984 754.321393 
L 874.182883 753.57275 
L 876.759781 753.86339 
L 879.33668 753.610379 
L 881.913578 753.964285 
L 884.490477 754.722432 
L 887.067375 755.236645 
L 889.644273 754.610709 
L 892.221172 754.681078 
L 894.79807 754.401054 
L 897.374969 754.564303 
L 899.951867 754.033123 
L 902.528766 753.031536 
L 905.105664 752.913978 
L 907.682563 752.942939 
L 910.259461 753.163335 
L 912.836359 753.057526 
L 915.413258 753.359856 
L 917.990156 754.005339 
L 920.567055 754.155707 
L 923.143953 754.45331 
L 925.720852 754.287451 
L 928.29775 753.960123 
L 930.874648 752.763454 
L 933.451547 752.464697 
L 938.605344 753.102889 
L 941.182242 753.100846 
L 946.336039 752.787311 
L 948.912937 752.905046 
L 951.489836 753.856055 
L 954.066734 752.826687 
L 956.643633 753.172616 
L 961.79743 754.034386 
L 964.374328 754.198849 
L 966.951227 752.607011 
L 969.528125 752.932083 
L 972.105023 753.444664 
L 974.681922 754.456928 
L 977.25882 753.936235 
L 982.412617 752.522629 
L 984.989516 752.21865 
L 987.566414 752.595183 
L 990.143312 752.833502 
L 992.720211 752.168469 
L 995.297109 751.986125 
L 997.874008 752.53563 
L 1000.450906 753.307326 
L 1003.027805 752.83973 
L 1005.604703 753.693725 
L 1008.181602 753.333317 
L 1010.7585 753.958904 
L 1013.335398 753.272847 
L 1015.912297 753.528774 
L 1018.489195 753.34083 
L 1021.066094 752.307438 
L 1023.642992 752.337492 
L 1026.219891 750.753662 
L 1028.796789 751.864148 
L 1033.950586 751.965249 
L 1036.527484 752.204459 
L 1039.104383 752.561112 
L 1041.681281 754.505969 
L 1044.25818 753.993029 
L 1046.835078 752.954997 
L 1049.411977 753.215006 
L 1051.988875 753.835407 
L 1054.565773 753.113494 
L 1062.296469 754.040192 
L 1064.873367 753.07369 
L 1067.450266 753.342276 
L 1070.027164 754.186754 
L 1072.604063 753.733909 
L 1075.180961 753.646994 
L 1077.757859 754.447006 
L 1080.334758 752.960319 
L 1082.911656 753.98155 
L 1085.488555 753.689509 
L 1088.065453 752.88497 
L 1093.21925 754.634105 
L 1095.796148 753.511773 
L 1100.949945 752.880788 
L 1106.103742 753.237797 
L 1108.680641 752.901433 
L 1111.257539 752.680613 
L 1116.411336 753.688684 
L 1118.988234 753.410966 
L 1121.565133 753.491331 
L 1124.142031 753.441818 
L 1126.71893 753.838106 
L 1129.295828 754.416635 
L 1131.872727 753.73257 
L 1137.026523 754.588208 
L 1139.603422 753.860411 
L 1142.18032 753.856149 
L 1144.757219 752.985456 
L 1147.334117 753.300343 
L 1149.911016 753.875716 
L 1152.487914 753.926971 
L 1155.064813 753.697811 
L 1157.641711 753.840739 
L 1162.795508 752.995596 
L 1167.949305 753.375011 
L 1170.526203 752.931475 
L 1173.103102 753.146637 
L 1175.68 752.031221 
L 1178.256898 752.615194 
L 1180.833797 754.154307 
L 1183.410695 753.77306 
L 1188.564492 752.235869 
L 1191.141391 752.842891 
L 1193.718289 752.942664 
L 1196.295188 752.514228 
L 1198.872086 753.100351 
L 1201.448984 752.57999 
L 1206.602781 751.963254 
L 1209.17968 752.717185 
L 1211.756578 753.250061 
L 1214.333477 753.644597 
L 1219.487273 753.563414 
L 1222.064172 753.26711 
L 1224.64107 752.656956 
L 1227.217969 753.814291 
L 1229.794867 753.530539 
L 1232.371766 753.39419 
L 1234.948664 753.59754 
L 1237.525563 753.504505 
L 1240.102461 753.892256 
L 1242.679359 754.679748 
L 1245.256258 755.117429 
L 1247.833156 754.989983 
L 1250.410055 753.431186 
L 1252.986953 753.093102 
L 1258.14075 754.035548 
L 1260.717648 753.594415 
L 1263.294547 752.883334 
L 1265.871445 752.390316 
L 1268.448344 753.160724 
L 1271.025242 752.245821 
L 1273.602141 753.110712 
L 1276.179039 753.43125 
L 1278.755938 754.015389 
L 1281.332836 753.614063 
L 1283.909734 754.342848 
L 1286.486633 753.228676 
L 1289.063531 752.93874 
L 1291.64043 751.772092 
L 1294.217328 752.224883 
L 1296.794227 752.400289 
L 1301.948023 751.566326 
L 1304.524922 751.731398 
L 1307.10182 752.373295 
L 1309.678719 751.822043 
L 1312.255617 752.437186 
L 1314.832516 752.770092 
L 1317.409414 752.741517 
L 1319.986313 751.219649 
L 1322.563211 752.639485 
L 1325.140109 752.044178 
L 1327.717008 752.255494 
L 1330.293906 751.674404 
L 1332.870805 751.436 
L 1335.447703 751.94313 
L 1338.024602 752.079714 
L 1340.6015 753.175382 
L 1343.178398 753.131207 
L 1348.332195 754.2128 
L 1350.909094 753.366051 
L 1353.485992 753.570793 
L 1356.062891 752.450424 
L 1358.639789 753.4249 
L 1361.216688 753.704633 
L 1363.793586 753.371857 
L 1366.370484 753.910258 
L 1368.947383 753.073799 
L 1371.524281 754.170055 
L 1376.678078 753.940663 
L 1379.254977 752.781547 
L 1379.254977 752.781547 
" style="fill:none;stroke:#008000;stroke-linecap:square;stroke-width:2.0;"/>
   </g>
   <g id="patch_3">
    <path d="M 93.382656 57.915781 
L 1381.831875 57.915781 
" style="fill:none;stroke:#000000;stroke-linecap:square;stroke-linejoin:miter;"/>
   </g>
   <g id="patch_4">
    <path d="M 1381.831875 770.338125 
L 1381.831875 57.915781 
" style="fill:none;stroke:#000000;stroke-linecap:square;stroke-linejoin:miter;"/>
   </g>
   <g id="patch_5">
    <path d="M 93.382656 770.338125 
L 1381.831875 770.338125 
" style="fill:none;stroke:#000000;stroke-linecap:square;stroke-linejoin:miter;"/>
   </g>
   <g id="patch_6">
    <path d="M 93.382656 770.338125 
L 93.382656 57.915781 
" style="fill:none;stroke:#000000;stroke-linecap:square;stroke-linejoin:miter;"/>
   </g>
   <g id="matplotlib.axis_1">
    <g id="xtick_1">
     <g id="line2d_3">
      <defs>
       <path d="M 0 0 
L 0 -4 
" id="m7c65ff01fa" style="stroke:#000000;stroke-width:0.5;"/>
      </defs>
      <g>
       <use style="stroke:#000000;stroke-width:0.5;" x="93.38265625" xlink:href="#m7c65ff01fa" y="770.338125"/>
      </g>
     </g>
     <g id="line2d_4">
      <defs>
       <path d="M 0 0 
L 0 4 
" id="m0cbfad0edb" style="stroke:#000000;stroke-width:0.5;"/>
      </defs>
      <g>
       <use style="stroke:#000000;stroke-width:0.5;" x="93.38265625" xlink:href="#m0cbfad0edb" y="57.91578125"/>
      </g>
     </g>
     <g id="text_1">
      <!-- 0 -->
      <defs>
       <path d="M 31.78125 66.40625 
Q 24.171875 66.40625 20.328125 58.90625 
Q 16.5 51.421875 16.5 36.375 
Q 16.5 21.390625 20.328125 13.890625 
Q 24.171875 6.390625 31.78125 6.390625 
Q 39.453125 6.390625 43.28125 13.890625 
Q 47.125 21.390625 47.125 36.375 
Q 47.125 51.421875 43.28125 58.90625 
Q 39.453125 66.40625 31.78125 66.40625 
M 31.78125 74.21875 
Q 44.046875 74.21875 50.515625 64.515625 
Q 56.984375 54.828125 56.984375 36.375 
Q 56.984375 17.96875 50.515625 8.265625 
Q 44.046875 -1.421875 31.78125 -1.421875 
Q 19.53125 -1.421875 13.0625 8.265625 
Q 6.59375 17.96875 6.59375 36.375 
Q 6.59375 54.828125 13.0625 64.515625 
Q 19.53125 74.21875 31.78125 74.21875 
" id="BitstreamVeraSans-Roman-30"/>
      </defs>
      <g transform="translate(83.83890625 797.1334375)scale(0.3 -0.3)">
       <use xlink:href="#BitstreamVeraSans-Roman-30"/>
      </g>
     </g>
    </g>
    <g id="xtick_2">
     <g id="line2d_5">
      <g>
       <use style="stroke:#000000;stroke-width:0.5;" x="351.0725" xlink:href="#m7c65ff01fa" y="770.338125"/>
      </g>
     </g>
     <g id="line2d_6">
      <g>
       <use style="stroke:#000000;stroke-width:0.5;" x="351.0725" xlink:href="#m0cbfad0edb" y="57.91578125"/>
      </g>
     </g>
     <g id="text_2">
      <!-- 100 -->
      <defs>
       <path d="M 12.40625 8.296875 
L 28.515625 8.296875 
L 28.515625 63.921875 
L 10.984375 60.40625 
L 10.984375 69.390625 
L 28.421875 72.90625 
L 38.28125 72.90625 
L 38.28125 8.296875 
L 54.390625 8.296875 
L 54.390625 0 
L 12.40625 0 
z
" id="BitstreamVeraSans-Roman-31"/>
      </defs>
      <g transform="translate(322.44125 797.1334375)scale(0.3 -0.3)">
       <use xlink:href="#BitstreamVeraSans-Roman-31"/>
       <use x="63.623046875" xlink:href="#BitstreamVeraSans-Roman-30"/>
       <use x="127.24609375" xlink:href="#BitstreamVeraSans-Roman-30"/>
      </g>
     </g>
    </g>
    <g id="xtick_3">
     <g id="line2d_7">
      <g>
       <use style="stroke:#000000;stroke-width:0.5;" x="608.76234375" xlink:href="#m7c65ff01fa" y="770.338125"/>
      </g>
     </g>
     <g id="line2d_8">
      <g>
       <use style="stroke:#000000;stroke-width:0.5;" x="608.76234375" xlink:href="#m0cbfad0edb" y="57.91578125"/>
      </g>
     </g>
     <g id="text_3">
      <!-- 200 -->
      <defs>
       <path d="M 19.1875 8.296875 
L 53.609375 8.296875 
L 53.609375 0 
L 7.328125 0 
L 7.328125 8.296875 
Q 12.9375 14.109375 22.625 23.890625 
Q 32.328125 33.6875 34.8125 36.53125 
Q 39.546875 41.84375 41.421875 45.53125 
Q 43.3125 49.21875 43.3125 52.78125 
Q 43.3125 58.59375 39.234375 62.25 
Q 35.15625 65.921875 28.609375 65.921875 
Q 23.96875 65.921875 18.8125 64.3125 
Q 13.671875 62.703125 7.8125 59.421875 
L 7.8125 69.390625 
Q 13.765625 71.78125 18.9375 73 
Q 24.125 74.21875 28.421875 74.21875 
Q 39.75 74.21875 46.484375 68.546875 
Q 53.21875 62.890625 53.21875 53.421875 
Q 53.21875 48.921875 51.53125 44.890625 
Q 49.859375 40.875 45.40625 35.40625 
Q 44.1875 33.984375 37.640625 27.21875 
Q 31.109375 20.453125 19.1875 8.296875 
" id="BitstreamVeraSans-Roman-32"/>
      </defs>
      <g transform="translate(580.13109375 797.1334375)scale(0.3 -0.3)">
       <use xlink:href="#BitstreamVeraSans-Roman-32"/>
       <use x="63.623046875" xlink:href="#BitstreamVeraSans-Roman-30"/>
       <use x="127.24609375" xlink:href="#BitstreamVeraSans-Roman-30"/>
      </g>
     </g>
    </g>
    <g id="xtick_4">
     <g id="line2d_9">
      <g>
       <use style="stroke:#000000;stroke-width:0.5;" x="866.4521875" xlink:href="#m7c65ff01fa" y="770.338125"/>
      </g>
     </g>
     <g id="line2d_10">
      <g>
       <use style="stroke:#000000;stroke-width:0.5;" x="866.4521875" xlink:href="#m0cbfad0edb" y="57.91578125"/>
      </g>
     </g>
     <g id="text_4">
      <!-- 300 -->
      <defs>
       <path d="M 40.578125 39.3125 
Q 47.65625 37.796875 51.625 33 
Q 55.609375 28.21875 55.609375 21.1875 
Q 55.609375 10.40625 48.1875 4.484375 
Q 40.765625 -1.421875 27.09375 -1.421875 
Q 22.515625 -1.421875 17.65625 -0.515625 
Q 12.796875 0.390625 7.625 2.203125 
L 7.625 11.71875 
Q 11.71875 9.328125 16.59375 8.109375 
Q 21.484375 6.890625 26.8125 6.890625 
Q 36.078125 6.890625 40.9375 10.546875 
Q 45.796875 14.203125 45.796875 21.1875 
Q 45.796875 27.640625 41.28125 31.265625 
Q 36.765625 34.90625 28.71875 34.90625 
L 20.21875 34.90625 
L 20.21875 43.015625 
L 29.109375 43.015625 
Q 36.375 43.015625 40.234375 45.921875 
Q 44.09375 48.828125 44.09375 54.296875 
Q 44.09375 59.90625 40.109375 62.90625 
Q 36.140625 65.921875 28.71875 65.921875 
Q 24.65625 65.921875 20.015625 65.03125 
Q 15.375 64.15625 9.8125 62.3125 
L 9.8125 71.09375 
Q 15.4375 72.65625 20.34375 73.4375 
Q 25.25 74.21875 29.59375 74.21875 
Q 40.828125 74.21875 47.359375 69.109375 
Q 53.90625 64.015625 53.90625 55.328125 
Q 53.90625 49.265625 50.4375 45.09375 
Q 46.96875 40.921875 40.578125 39.3125 
" id="BitstreamVeraSans-Roman-33"/>
      </defs>
      <g transform="translate(837.8209375 797.1334375)scale(0.3 -0.3)">
       <use xlink:href="#BitstreamVeraSans-Roman-33"/>
       <use x="63.623046875" xlink:href="#BitstreamVeraSans-Roman-30"/>
       <use x="127.24609375" xlink:href="#BitstreamVeraSans-Roman-30"/>
      </g>
     </g>
    </g>
    <g id="xtick_5">
     <g id="line2d_11">
      <g>
       <use style="stroke:#000000;stroke-width:0.5;" x="1124.14203125" xlink:href="#m7c65ff01fa" y="770.338125"/>
      </g>
     </g>
     <g id="line2d_12">
      <g>
       <use style="stroke:#000000;stroke-width:0.5;" x="1124.14203125" xlink:href="#m0cbfad0edb" y="57.91578125"/>
      </g>
     </g>
     <g id="text_5">
      <!-- 400 -->
      <defs>
       <path d="M 37.796875 64.3125 
L 12.890625 25.390625 
L 37.796875 25.390625 
z
M 35.203125 72.90625 
L 47.609375 72.90625 
L 47.609375 25.390625 
L 58.015625 25.390625 
L 58.015625 17.1875 
L 47.609375 17.1875 
L 47.609375 0 
L 37.796875 0 
L 37.796875 17.1875 
L 4.890625 17.1875 
L 4.890625 26.703125 
z
" id="BitstreamVeraSans-Roman-34"/>
      </defs>
      <g transform="translate(1095.51078125 797.1334375)scale(0.3 -0.3)">
       <use xlink:href="#BitstreamVeraSans-Roman-34"/>
       <use x="63.623046875" xlink:href="#BitstreamVeraSans-Roman-30"/>
       <use x="127.24609375" xlink:href="#BitstreamVeraSans-Roman-30"/>
      </g>
     </g>
    </g>
    <g id="xtick_6">
     <g id="line2d_13">
      <g>
       <use style="stroke:#000000;stroke-width:0.5;" x="1381.831875" xlink:href="#m7c65ff01fa" y="770.338125"/>
      </g>
     </g>
     <g id="line2d_14">
      <g>
       <use style="stroke:#000000;stroke-width:0.5;" x="1381.831875" xlink:href="#m0cbfad0edb" y="57.91578125"/>
      </g>
     </g>
     <g id="text_6">
      <!-- 500 -->
      <defs>
       <path d="M 10.796875 72.90625 
L 49.515625 72.90625 
L 49.515625 64.59375 
L 19.828125 64.59375 
L 19.828125 46.734375 
Q 21.96875 47.46875 24.109375 47.828125 
Q 26.265625 48.1875 28.421875 48.1875 
Q 40.625 48.1875 47.75 41.5 
Q 54.890625 34.8125 54.890625 23.390625 
Q 54.890625 11.625 47.5625 5.09375 
Q 40.234375 -1.421875 26.90625 -1.421875 
Q 22.3125 -1.421875 17.546875 -0.640625 
Q 12.796875 0.140625 7.71875 1.703125 
L 7.71875 11.625 
Q 12.109375 9.234375 16.796875 8.0625 
Q 21.484375 6.890625 26.703125 6.890625 
Q 35.15625 6.890625 40.078125 11.328125 
Q 45.015625 15.765625 45.015625 23.390625 
Q 45.015625 31 40.078125 35.4375 
Q 35.15625 39.890625 26.703125 39.890625 
Q 22.75 39.890625 18.8125 39.015625 
Q 14.890625 38.140625 10.796875 36.28125 
z
" id="BitstreamVeraSans-Roman-35"/>
      </defs>
      <g transform="translate(1353.200625 797.1334375)scale(0.3 -0.3)">
       <use xlink:href="#BitstreamVeraSans-Roman-35"/>
       <use x="63.623046875" xlink:href="#BitstreamVeraSans-Roman-30"/>
       <use x="127.24609375" xlink:href="#BitstreamVeraSans-Roman-30"/>
      </g>
     </g>
    </g>
    <g id="text_7">
     <!-- iterations -->
     <defs>
      <path d="M 54.890625 33.015625 
L 54.890625 0 
L 45.90625 0 
L 45.90625 32.71875 
Q 45.90625 40.484375 42.875 44.328125 
Q 39.84375 48.1875 33.796875 48.1875 
Q 26.515625 48.1875 22.3125 43.546875 
Q 18.109375 38.921875 18.109375 30.90625 
L 18.109375 0 
L 9.078125 0 
L 9.078125 54.6875 
L 18.109375 54.6875 
L 18.109375 46.1875 
Q 21.34375 51.125 25.703125 53.5625 
Q 30.078125 56 35.796875 56 
Q 45.21875 56 50.046875 50.171875 
Q 54.890625 44.34375 54.890625 33.015625 
" id="BitstreamVeraSans-Roman-6e"/>
      <path d="M 34.28125 27.484375 
Q 23.390625 27.484375 19.1875 25 
Q 14.984375 22.515625 14.984375 16.5 
Q 14.984375 11.71875 18.140625 8.90625 
Q 21.296875 6.109375 26.703125 6.109375 
Q 34.1875 6.109375 38.703125 11.40625 
Q 43.21875 16.703125 43.21875 25.484375 
L 43.21875 27.484375 
z
M 52.203125 31.203125 
L 52.203125 0 
L 43.21875 0 
L 43.21875 8.296875 
Q 40.140625 3.328125 35.546875 0.953125 
Q 30.953125 -1.421875 24.3125 -1.421875 
Q 15.921875 -1.421875 10.953125 3.296875 
Q 6 8.015625 6 15.921875 
Q 6 25.140625 12.171875 29.828125 
Q 18.359375 34.515625 30.609375 34.515625 
L 43.21875 34.515625 
L 43.21875 35.40625 
Q 43.21875 41.609375 39.140625 45 
Q 35.0625 48.390625 27.6875 48.390625 
Q 23 48.390625 18.546875 47.265625 
Q 14.109375 46.140625 10.015625 43.890625 
L 10.015625 52.203125 
Q 14.9375 54.109375 19.578125 55.046875 
Q 24.21875 56 28.609375 56 
Q 40.484375 56 46.34375 49.84375 
Q 52.203125 43.703125 52.203125 31.203125 
" id="BitstreamVeraSans-Roman-61"/>
      <path d="M 30.609375 48.390625 
Q 23.390625 48.390625 19.1875 42.75 
Q 14.984375 37.109375 14.984375 27.296875 
Q 14.984375 17.484375 19.15625 11.84375 
Q 23.34375 6.203125 30.609375 6.203125 
Q 37.796875 6.203125 41.984375 11.859375 
Q 46.1875 17.53125 46.1875 27.296875 
Q 46.1875 37.015625 41.984375 42.703125 
Q 37.796875 48.390625 30.609375 48.390625 
M 30.609375 56 
Q 42.328125 56 49.015625 48.375 
Q 55.71875 40.765625 55.71875 27.296875 
Q 55.71875 13.875 49.015625 6.21875 
Q 42.328125 -1.421875 30.609375 -1.421875 
Q 18.84375 -1.421875 12.171875 6.21875 
Q 5.515625 13.875 5.515625 27.296875 
Q 5.515625 40.765625 12.171875 48.375 
Q 18.84375 56 30.609375 56 
" id="BitstreamVeraSans-Roman-6f"/>
      <path d="M 9.421875 54.6875 
L 18.40625 54.6875 
L 18.40625 0 
L 9.421875 0 
z
M 9.421875 75.984375 
L 18.40625 75.984375 
L 18.40625 64.59375 
L 9.421875 64.59375 
z
" id="BitstreamVeraSans-Roman-69"/>
      <path d="M 56.203125 29.59375 
L 56.203125 25.203125 
L 14.890625 25.203125 
Q 15.484375 15.921875 20.484375 11.0625 
Q 25.484375 6.203125 34.421875 6.203125 
Q 39.59375 6.203125 44.453125 7.46875 
Q 49.3125 8.734375 54.109375 11.28125 
L 54.109375 2.78125 
Q 49.265625 0.734375 44.1875 -0.34375 
Q 39.109375 -1.421875 33.890625 -1.421875 
Q 20.796875 -1.421875 13.15625 6.1875 
Q 5.515625 13.8125 5.515625 26.8125 
Q 5.515625 40.234375 12.765625 48.109375 
Q 20.015625 56 32.328125 56 
Q 43.359375 56 49.78125 48.890625 
Q 56.203125 41.796875 56.203125 29.59375 
M 47.21875 32.234375 
Q 47.125 39.59375 43.09375 43.984375 
Q 39.0625 48.390625 32.421875 48.390625 
Q 24.90625 48.390625 20.390625 44.140625 
Q 15.875 39.890625 15.1875 32.171875 
z
" id="BitstreamVeraSans-Roman-65"/>
      <path d="M 18.3125 70.21875 
L 18.3125 54.6875 
L 36.8125 54.6875 
L 36.8125 47.703125 
L 18.3125 47.703125 
L 18.3125 18.015625 
Q 18.3125 11.328125 20.140625 9.421875 
Q 21.96875 7.515625 27.59375 7.515625 
L 36.8125 7.515625 
L 36.8125 0 
L 27.59375 0 
Q 17.1875 0 13.234375 3.875 
Q 9.28125 7.765625 9.28125 18.015625 
L 9.28125 47.703125 
L 2.6875 47.703125 
L 2.6875 54.6875 
L 9.28125 54.6875 
L 9.28125 70.21875 
z
" id="BitstreamVeraSans-Roman-74"/>
      <path d="M 41.109375 46.296875 
Q 39.59375 47.171875 37.8125 47.578125 
Q 36.03125 48 33.890625 48 
Q 26.265625 48 22.1875 43.046875 
Q 18.109375 38.09375 18.109375 28.8125 
L 18.109375 0 
L 9.078125 0 
L 9.078125 54.6875 
L 18.109375 54.6875 
L 18.109375 46.1875 
Q 20.953125 51.171875 25.484375 53.578125 
Q 30.03125 56 36.53125 56 
Q 37.453125 56 38.578125 55.875 
Q 39.703125 55.765625 41.0625 55.515625 
z
" id="BitstreamVeraSans-Roman-72"/>
      <path d="M 44.28125 53.078125 
L 44.28125 44.578125 
Q 40.484375 46.53125 36.375 47.5 
Q 32.28125 48.484375 27.875 48.484375 
Q 21.1875 48.484375 17.84375 46.4375 
Q 14.5 44.390625 14.5 40.28125 
Q 14.5 37.15625 16.890625 35.375 
Q 19.28125 33.59375 26.515625 31.984375 
L 29.59375 31.296875 
Q 39.15625 29.25 43.1875 25.515625 
Q 47.21875 21.78125 47.21875 15.09375 
Q 47.21875 7.46875 41.1875 3.015625 
Q 35.15625 -1.421875 24.609375 -1.421875 
Q 20.21875 -1.421875 15.453125 -0.5625 
Q 10.6875 0.296875 5.421875 2 
L 5.421875 11.28125 
Q 10.40625 8.6875 15.234375 7.390625 
Q 20.0625 6.109375 24.8125 6.109375 
Q 31.15625 6.109375 34.5625 8.28125 
Q 37.984375 10.453125 37.984375 14.40625 
Q 37.984375 18.0625 35.515625 20.015625 
Q 33.0625 21.96875 24.703125 23.78125 
L 21.578125 24.515625 
Q 13.234375 26.265625 9.515625 29.90625 
Q 5.8125 33.546875 5.8125 39.890625 
Q 5.8125 47.609375 11.28125 51.796875 
Q 16.75 56 26.8125 56 
Q 31.78125 56 36.171875 55.265625 
Q 40.578125 54.546875 44.28125 53.078125 
" id="BitstreamVeraSans-Roman-73"/>
     </defs>
     <g transform="translate(666.425234375 831.1678125)scale(0.3 -0.3)">
      <use xlink:href="#BitstreamVeraSans-Roman-69"/>
      <use x="27.783203125" xlink:href="#BitstreamVeraSans-Roman-74"/>
      <use x="66.9921875" xlink:href="#BitstreamVeraSans-Roman-65"/>
      <use x="128.515625" xlink:href="#BitstreamVeraSans-Roman-72"/>
      <use x="169.62890625" xlink:href="#BitstreamVeraSans-Roman-61"/>
      <use x="230.908203125" xlink:href="#BitstreamVeraSans-Roman-74"/>
      <use x="270.1171875" xlink:href="#BitstreamVeraSans-Roman-69"/>
      <use x="297.900390625" xlink:href="#BitstreamVeraSans-Roman-6f"/>
      <use x="359.08203125" xlink:href="#BitstreamVeraSans-Roman-6e"/>
      <use x="422.4609375" xlink:href="#BitstreamVeraSans-Roman-73"/>
     </g>
    </g>
   </g>
   <g id="matplotlib.axis_2">
    <g id="ytick_1">
     <g id="line2d_15">
      <defs>
       <path d="M 0 0 
L 4 0 
" id="m8f44c67e9f" style="stroke:#000000;stroke-width:0.5;"/>
      </defs>
      <g>
       <use style="stroke:#000000;stroke-width:0.5;" x="93.38265625" xlink:href="#m8f44c67e9f" y="770.338125"/>
      </g>
     </g>
     <g id="line2d_16">
      <defs>
       <path d="M 0 0 
L -4 0 
" id="m503d56f7ee" style="stroke:#000000;stroke-width:0.5;"/>
      </defs>
      <g>
       <use style="stroke:#000000;stroke-width:0.5;" x="1381.831875" xlink:href="#m503d56f7ee" y="770.338125"/>
      </g>
     </g>
     <g id="text_8">
      <!-- −60 -->
      <defs>
       <path d="M 10.59375 35.5 
L 73.1875 35.5 
L 73.1875 27.203125 
L 10.59375 27.203125 
z
" id="BitstreamVeraSans-Roman-2212"/>
       <path d="M 33.015625 40.375 
Q 26.375 40.375 22.484375 35.828125 
Q 18.609375 31.296875 18.609375 23.390625 
Q 18.609375 15.53125 22.484375 10.953125 
Q 26.375 6.390625 33.015625 6.390625 
Q 39.65625 6.390625 43.53125 10.953125 
Q 47.40625 15.53125 47.40625 23.390625 
Q 47.40625 31.296875 43.53125 35.828125 
Q 39.65625 40.375 33.015625 40.375 
M 52.59375 71.296875 
L 52.59375 62.3125 
Q 48.875 64.0625 45.09375 64.984375 
Q 41.3125 65.921875 37.59375 65.921875 
Q 27.828125 65.921875 22.671875 59.328125 
Q 17.53125 52.734375 16.796875 39.40625 
Q 19.671875 43.65625 24.015625 45.921875 
Q 28.375 48.1875 33.59375 48.1875 
Q 44.578125 48.1875 50.953125 41.515625 
Q 57.328125 34.859375 57.328125 23.390625 
Q 57.328125 12.15625 50.6875 5.359375 
Q 44.046875 -1.421875 33.015625 -1.421875 
Q 20.359375 -1.421875 13.671875 8.265625 
Q 6.984375 17.96875 6.984375 36.375 
Q 6.984375 53.65625 15.1875 63.9375 
Q 23.390625 74.21875 37.203125 74.21875 
Q 40.921875 74.21875 44.703125 73.484375 
Q 48.484375 72.75 52.59375 71.296875 
" id="BitstreamVeraSans-Roman-36"/>
      </defs>
      <g transform="translate(26.06859375 778.61625)scale(0.3 -0.3)">
       <use xlink:href="#BitstreamVeraSans-Roman-2212"/>
       <use x="83.7890625" xlink:href="#BitstreamVeraSans-Roman-36"/>
       <use x="147.412109375" xlink:href="#BitstreamVeraSans-Roman-30"/>
      </g>
     </g>
    </g>
    <g id="ytick_2">
     <g id="line2d_17">
      <g>
       <use style="stroke:#000000;stroke-width:0.5;" x="93.38265625" xlink:href="#m8f44c67e9f" y="681.285332031"/>
      </g>
     </g>
     <g id="line2d_18">
      <g>
       <use style="stroke:#000000;stroke-width:0.5;" x="1381.831875" xlink:href="#m503d56f7ee" y="681.285332031"/>
      </g>
     </g>
     <g id="text_9">
      <!-- −50 -->
      <g transform="translate(26.06859375 689.563457031)scale(0.3 -0.3)">
       <use xlink:href="#BitstreamVeraSans-Roman-2212"/>
       <use x="83.7890625" xlink:href="#BitstreamVeraSans-Roman-35"/>
       <use x="147.412109375" xlink:href="#BitstreamVeraSans-Roman-30"/>
      </g>
     </g>
    </g>
    <g id="ytick_3">
     <g id="line2d_19">
      <g>
       <use style="stroke:#000000;stroke-width:0.5;" x="93.38265625" xlink:href="#m8f44c67e9f" y="592.232539062"/>
      </g>
     </g>
     <g id="line2d_20">
      <g>
       <use style="stroke:#000000;stroke-width:0.5;" x="1381.831875" xlink:href="#m503d56f7ee" y="592.232539062"/>
      </g>
     </g>
     <g id="text_10">
      <!-- −40 -->
      <g transform="translate(26.06859375 600.510664062)scale(0.3 -0.3)">
       <use xlink:href="#BitstreamVeraSans-Roman-2212"/>
       <use x="83.7890625" xlink:href="#BitstreamVeraSans-Roman-34"/>
       <use x="147.412109375" xlink:href="#BitstreamVeraSans-Roman-30"/>
      </g>
     </g>
    </g>
    <g id="ytick_4">
     <g id="line2d_21">
      <g>
       <use style="stroke:#000000;stroke-width:0.5;" x="93.38265625" xlink:href="#m8f44c67e9f" y="503.179746094"/>
      </g>
     </g>
     <g id="line2d_22">
      <g>
       <use style="stroke:#000000;stroke-width:0.5;" x="1381.831875" xlink:href="#m503d56f7ee" y="503.179746094"/>
      </g>
     </g>
     <g id="text_11">
      <!-- −30 -->
      <g transform="translate(26.06859375 511.457871094)scale(0.3 -0.3)">
       <use xlink:href="#BitstreamVeraSans-Roman-2212"/>
       <use x="83.7890625" xlink:href="#BitstreamVeraSans-Roman-33"/>
       <use x="147.412109375" xlink:href="#BitstreamVeraSans-Roman-30"/>
      </g>
     </g>
    </g>
    <g id="ytick_5">
     <g id="line2d_23">
      <g>
       <use style="stroke:#000000;stroke-width:0.5;" x="93.38265625" xlink:href="#m8f44c67e9f" y="414.126953125"/>
      </g>
     </g>
     <g id="line2d_24">
      <g>
       <use style="stroke:#000000;stroke-width:0.5;" x="1381.831875" xlink:href="#m503d56f7ee" y="414.126953125"/>
      </g>
     </g>
     <g id="text_12">
      <!-- −20 -->
      <g transform="translate(26.06859375 422.405078125)scale(0.3 -0.3)">
       <use xlink:href="#BitstreamVeraSans-Roman-2212"/>
       <use x="83.7890625" xlink:href="#BitstreamVeraSans-Roman-32"/>
       <use x="147.412109375" xlink:href="#BitstreamVeraSans-Roman-30"/>
      </g>
     </g>
    </g>
    <g id="ytick_6">
     <g id="line2d_25">
      <g>
       <use style="stroke:#000000;stroke-width:0.5;" x="93.38265625" xlink:href="#m8f44c67e9f" y="325.074160156"/>
      </g>
     </g>
     <g id="line2d_26">
      <g>
       <use style="stroke:#000000;stroke-width:0.5;" x="1381.831875" xlink:href="#m503d56f7ee" y="325.074160156"/>
      </g>
     </g>
     <g id="text_13">
      <!-- −10 -->
      <g transform="translate(26.06859375 333.352285156)scale(0.3 -0.3)">
       <use xlink:href="#BitstreamVeraSans-Roman-2212"/>
       <use x="83.7890625" xlink:href="#BitstreamVeraSans-Roman-31"/>
       <use x="147.412109375" xlink:href="#BitstreamVeraSans-Roman-30"/>
      </g>
     </g>
    </g>
    <g id="ytick_7">
     <g id="line2d_27">
      <g>
       <use style="stroke:#000000;stroke-width:0.5;" x="93.38265625" xlink:href="#m8f44c67e9f" y="236.021367188"/>
      </g>
     </g>
     <g id="line2d_28">
      <g>
       <use style="stroke:#000000;stroke-width:0.5;" x="1381.831875" xlink:href="#m503d56f7ee" y="236.021367188"/>
      </g>
     </g>
     <g id="text_14">
      <!-- 0 -->
      <g transform="translate(70.29515625 244.299492188)scale(0.3 -0.3)">
       <use xlink:href="#BitstreamVeraSans-Roman-30"/>
      </g>
     </g>
    </g>
    <g id="ytick_8">
     <g id="line2d_29">
      <g>
       <use style="stroke:#000000;stroke-width:0.5;" x="93.38265625" xlink:href="#m8f44c67e9f" y="146.968574219"/>
      </g>
     </g>
     <g id="line2d_30">
      <g>
       <use style="stroke:#000000;stroke-width:0.5;" x="1381.831875" xlink:href="#m503d56f7ee" y="146.968574219"/>
      </g>
     </g>
     <g id="text_15">
      <!-- 10 -->
      <g transform="translate(51.20765625 155.246699219)scale(0.3 -0.3)">
       <use xlink:href="#BitstreamVeraSans-Roman-31"/>
       <use x="63.623046875" xlink:href="#BitstreamVeraSans-Roman-30"/>
      </g>
     </g>
    </g>
    <g id="ytick_9">
     <g id="line2d_31">
      <g>
       <use style="stroke:#000000;stroke-width:0.5;" x="93.38265625" xlink:href="#m8f44c67e9f" y="57.91578125"/>
      </g>
     </g>
     <g id="line2d_32">
      <g>
       <use style="stroke:#000000;stroke-width:0.5;" x="1381.831875" xlink:href="#m503d56f7ee" y="57.91578125"/>
      </g>
     </g>
     <g id="text_16">
      <!-- 20 -->
      <g transform="translate(51.20765625 66.19390625)scale(0.3 -0.3)">
       <use xlink:href="#BitstreamVeraSans-Roman-32"/>
       <use x="63.623046875" xlink:href="#BitstreamVeraSans-Roman-30"/>
      </g>
     </g>
    </g>
   </g>
   <g id="text_17">
    <!-- log(loss) -->
    <defs>
     <path d="M 8.015625 75.875 
L 15.828125 75.875 
Q 23.140625 64.359375 26.78125 53.3125 
Q 30.421875 42.28125 30.421875 31.390625 
Q 30.421875 20.453125 26.78125 9.375 
Q 23.140625 -1.703125 15.828125 -13.1875 
L 8.015625 -13.1875 
Q 14.5 -2 17.703125 9.0625 
Q 20.90625 20.125 20.90625 31.390625 
Q 20.90625 42.671875 17.703125 53.65625 
Q 14.5 64.65625 8.015625 75.875 
" id="BitstreamVeraSans-Roman-29"/>
     <path d="M 31 75.875 
Q 24.46875 64.65625 21.28125 53.65625 
Q 18.109375 42.671875 18.109375 31.390625 
Q 18.109375 20.125 21.3125 9.0625 
Q 24.515625 -2 31 -13.1875 
L 23.1875 -13.1875 
Q 15.875 -1.703125 12.234375 9.375 
Q 8.59375 20.453125 8.59375 31.390625 
Q 8.59375 42.28125 12.203125 53.3125 
Q 15.828125 64.359375 23.1875 75.875 
z
" id="BitstreamVeraSans-Roman-28"/>
     <path d="M 45.40625 27.984375 
Q 45.40625 37.75 41.375 43.109375 
Q 37.359375 48.484375 30.078125 48.484375 
Q 22.859375 48.484375 18.828125 43.109375 
Q 14.796875 37.75 14.796875 27.984375 
Q 14.796875 18.265625 18.828125 12.890625 
Q 22.859375 7.515625 30.078125 7.515625 
Q 37.359375 7.515625 41.375 12.890625 
Q 45.40625 18.265625 45.40625 27.984375 
M 54.390625 6.78125 
Q 54.390625 -7.171875 48.1875 -13.984375 
Q 42 -20.796875 29.203125 -20.796875 
Q 24.46875 -20.796875 20.265625 -20.09375 
Q 16.0625 -19.390625 12.109375 -17.921875 
L 12.109375 -9.1875 
Q 16.0625 -11.328125 19.921875 -12.34375 
Q 23.78125 -13.375 27.78125 -13.375 
Q 36.625 -13.375 41.015625 -8.765625 
Q 45.40625 -4.15625 45.40625 5.171875 
L 45.40625 9.625 
Q 42.625 4.78125 38.28125 2.390625 
Q 33.9375 0 27.875 0 
Q 17.828125 0 11.671875 7.65625 
Q 5.515625 15.328125 5.515625 27.984375 
Q 5.515625 40.671875 11.671875 48.328125 
Q 17.828125 56 27.875 56 
Q 33.9375 56 38.28125 53.609375 
Q 42.625 51.21875 45.40625 46.390625 
L 45.40625 54.6875 
L 54.390625 54.6875 
z
" id="BitstreamVeraSans-Roman-67"/>
     <path d="M 9.421875 75.984375 
L 18.40625 75.984375 
L 18.40625 0 
L 9.421875 0 
z
" id="BitstreamVeraSans-Roman-6c"/>
    </defs>
    <g transform="translate(674.061171875 52.91578125)scale(0.3 -0.3)">
     <use xlink:href="#BitstreamVeraSans-Roman-6c"/>
     <use x="27.783203125" xlink:href="#BitstreamVeraSans-Roman-6f"/>
     <use x="88.96484375" xlink:href="#BitstreamVeraSans-Roman-67"/>
     <use x="152.44140625" xlink:href="#BitstreamVeraSans-Roman-28"/>
     <use x="191.455078125" xlink:href="#BitstreamVeraSans-Roman-6c"/>
     <use x="219.23828125" xlink:href="#BitstreamVeraSans-Roman-6f"/>
     <use x="280.419921875" xlink:href="#BitstreamVeraSans-Roman-73"/>
     <use x="332.51953125" xlink:href="#BitstreamVeraSans-Roman-73"/>
     <use x="384.619140625" xlink:href="#BitstreamVeraSans-Roman-29"/>
    </g>
   </g>
   <g id="legend_1">
    <g id="patch_7">
     <path d="M 1142.47875 169.984531 
L 1366.831875 169.984531 
L 1366.831875 72.915781 
L 1142.47875 72.915781 
z
" style="fill:#ffffff;stroke:#000000;stroke-linejoin:miter;"/>
    </g>
    <g id="line2d_33">
     <path d="M 1163.47875 97.211094 
L 1205.47875 97.211094 
" style="fill:none;stroke:#0000ff;stroke-linecap:square;stroke-width:2.0;"/>
    </g>
    <g id="line2d_34"/>
    <g id="text_18">
     <!-- random -->
     <defs>
      <path d="M 45.40625 46.390625 
L 45.40625 75.984375 
L 54.390625 75.984375 
L 54.390625 0 
L 45.40625 0 
L 45.40625 8.203125 
Q 42.578125 3.328125 38.25 0.953125 
Q 33.9375 -1.421875 27.875 -1.421875 
Q 17.96875 -1.421875 11.734375 6.484375 
Q 5.515625 14.40625 5.515625 27.296875 
Q 5.515625 40.1875 11.734375 48.09375 
Q 17.96875 56 27.875 56 
Q 33.9375 56 38.25 53.625 
Q 42.578125 51.265625 45.40625 46.390625 
M 14.796875 27.296875 
Q 14.796875 17.390625 18.875 11.75 
Q 22.953125 6.109375 30.078125 6.109375 
Q 37.203125 6.109375 41.296875 11.75 
Q 45.40625 17.390625 45.40625 27.296875 
Q 45.40625 37.203125 41.296875 42.84375 
Q 37.203125 48.484375 30.078125 48.484375 
Q 22.953125 48.484375 18.875 42.84375 
Q 14.796875 37.203125 14.796875 27.296875 
" id="BitstreamVeraSans-Roman-64"/>
      <path d="M 52 44.1875 
Q 55.375 50.25 60.0625 53.125 
Q 64.75 56 71.09375 56 
Q 79.640625 56 84.28125 50.015625 
Q 88.921875 44.046875 88.921875 33.015625 
L 88.921875 0 
L 79.890625 0 
L 79.890625 32.71875 
Q 79.890625 40.578125 77.09375 44.375 
Q 74.3125 48.1875 68.609375 48.1875 
Q 61.625 48.1875 57.5625 43.546875 
Q 53.515625 38.921875 53.515625 30.90625 
L 53.515625 0 
L 44.484375 0 
L 44.484375 32.71875 
Q 44.484375 40.625 41.703125 44.40625 
Q 38.921875 48.1875 33.109375 48.1875 
Q 26.21875 48.1875 22.15625 43.53125 
Q 18.109375 38.875 18.109375 30.90625 
L 18.109375 0 
L 9.078125 0 
L 9.078125 54.6875 
L 18.109375 54.6875 
L 18.109375 46.1875 
Q 21.1875 51.21875 25.484375 53.609375 
Q 29.78125 56 35.6875 56 
Q 41.65625 56 45.828125 52.96875 
Q 50 49.953125 52 44.1875 
" id="BitstreamVeraSans-Roman-6d"/>
     </defs>
     <g transform="translate(1238.47875 107.71109375)scale(0.3 -0.3)">
      <use xlink:href="#BitstreamVeraSans-Roman-72"/>
      <use x="41.11328125" xlink:href="#BitstreamVeraSans-Roman-61"/>
      <use x="102.392578125" xlink:href="#BitstreamVeraSans-Roman-6e"/>
      <use x="165.771484375" xlink:href="#BitstreamVeraSans-Roman-64"/>
      <use x="229.248046875" xlink:href="#BitstreamVeraSans-Roman-6f"/>
      <use x="290.4296875" xlink:href="#BitstreamVeraSans-Roman-6d"/>
     </g>
    </g>
    <g id="line2d_35">
     <path d="M 1163.47875 141.245469 
L 1205.47875 141.245469 
" style="fill:none;stroke:#008000;stroke-linecap:square;stroke-width:2.0;"/>
    </g>
    <g id="line2d_36"/>
    <g id="text_19">
     <!-- corr -->
     <defs>
      <path d="M 48.78125 52.59375 
L 48.78125 44.1875 
Q 44.96875 46.296875 41.140625 47.34375 
Q 37.3125 48.390625 33.40625 48.390625 
Q 24.65625 48.390625 19.8125 42.84375 
Q 14.984375 37.3125 14.984375 27.296875 
Q 14.984375 17.28125 19.8125 11.734375 
Q 24.65625 6.203125 33.40625 6.203125 
Q 37.3125 6.203125 41.140625 7.25 
Q 44.96875 8.296875 48.78125 10.40625 
L 48.78125 2.09375 
Q 45.015625 0.34375 40.984375 -0.53125 
Q 36.96875 -1.421875 32.421875 -1.421875 
Q 20.0625 -1.421875 12.78125 6.34375 
Q 5.515625 14.109375 5.515625 27.296875 
Q 5.515625 40.671875 12.859375 48.328125 
Q 20.21875 56 33.015625 56 
Q 37.15625 56 41.109375 55.140625 
Q 45.0625 54.296875 48.78125 52.59375 
" id="BitstreamVeraSans-Roman-63"/>
     </defs>
     <g transform="translate(1238.47875 151.74546875)scale(0.3 -0.3)">
      <use xlink:href="#BitstreamVeraSans-Roman-63"/>
      <use x="54.98046875" xlink:href="#BitstreamVeraSans-Roman-6f"/>
      <use x="116.162109375" xlink:href="#BitstreamVeraSans-Roman-72"/>
      <use x="157.259765625" xlink:href="#BitstreamVeraSans-Roman-72"/>
     </g>
    </g>
   </g>
  </g>
 </g>
 <defs>
  <clipPath id="p39cdd91d46">
   <rect height="712.42234375" width="1288.44921875" x="93.38265625" y="57.91578125"/>
  </clipPath>
 </defs>
</svg>
