<?xml version="1.0" encoding="utf-8" standalone="no"?>
<!DOCTYPE svg PUBLIC "-//W3C//DTD SVG 1.1//EN"
  "http://www.w3.org/Graphics/SVG/1.1/DTD/svg11.dtd">
<!-- Created with matplotlib (http://matplotlib.org/) -->
<svg height="864pt" version="1.1" viewBox="0 0 1440 864" width="1440pt" xmlns="http://www.w3.org/2000/svg" xmlns:xlink="http://www.w3.org/1999/xlink">
 <defs>
  <style type="text/css">
*{stroke-linecap:butt;stroke-linejoin:round;stroke-miterlimit:100000;}
  </style>
 </defs>
 <g id="figure_1">
  <g id="patch_1">
   <path d="M 0 864 
L 1440 864 
L 1440 0 
L 0 0 
z
" style="fill:#ffffff;"/>
  </g>
  <g id="axes_1">
   <g id="patch_2">
    <path d="M 158.4 747 
L 1371.825 747 
L 1371.825 51.3 
L 158.4 51.3 
z
" style="fill:#ffffff;"/>
   </g>
   <g id="line2d_1">
    <path clip-path="url(#p8f9f82c946)" d="M 158.4 112.441393 
L 160.82685 115.023281 
L 165.68055 121.105408 
L 168.1074 124.665345 
L 172.9611 130.253733 
L 175.38795 134.392399 
L 177.8148 137.794603 
L 180.24165 141.446521 
L 182.6685 144.291768 
L 185.09535 147.530543 
L 187.5222 150.362947 
L 189.94905 154.270421 
L 192.3759 157.169463 
L 194.80275 160.694848 
L 197.2296 163.922351 
L 202.0833 169.873121 
L 206.937 177.413966 
L 209.36385 179.913176 
L 211.7907 183.176108 
L 214.21755 185.930511 
L 216.6444 189.825823 
L 219.07125 192.074315 
L 221.4981 194.786306 
L 223.92495 198.118994 
L 226.3518 200.51004 
L 231.2055 206.385366 
L 233.63235 209.734564 
L 236.0592 212.382902 
L 238.48605 214.51766 
L 240.9129 217.328306 
L 245.7666 223.35814 
L 248.19345 226.978972 
L 250.6203 229.767434 
L 253.04715 231.704476 
L 255.474 234.414543 
L 257.90085 237.472565 
L 260.3277 241.773356 
L 265.1814 247.087679 
L 270.0351 253.946525 
L 272.46195 256.90755 
L 277.31565 262.218199 
L 279.7425 265.078849 
L 282.16935 268.844608 
L 284.5962 272.057128 
L 287.02305 275.562282 
L 291.87675 281.709194 
L 294.3036 284.163851 
L 296.73045 287.382139 
L 299.1573 289.957698 
L 304.011 296.423352 
L 306.43785 299.929346 
L 308.8647 302.679747 
L 311.29155 305.641015 
L 316.14525 312.499606 
L 318.5721 315.382428 
L 323.4258 320.176132 
L 328.2795 326.158898 
L 333.1332 331.230283 
L 337.9869 338.198606 
L 340.41375 341.358498 
L 342.8406 343.838243 
L 345.26745 345.961758 
L 347.6943 350.054692 
L 350.12115 353.176585 
L 354.97485 358.322258 
L 357.4017 360.912441 
L 359.82855 363.82602 
L 362.2554 367.309338 
L 364.68225 369.703628 
L 367.1091 373.529661 
L 369.53595 376.82206 
L 371.9628 379.534234 
L 376.8165 385.490667 
L 381.6702 390.191469 
L 384.09705 393.406784 
L 386.5239 396.189933 
L 388.95075 399.479442 
L 391.3776 403.097533 
L 393.80445 406.385161 
L 396.2313 408.914248 
L 398.65815 412.246765 
L 401.085 414.237188 
L 403.51185 417.564755 
L 405.9387 419.655731 
L 410.7924 426.022219 
L 413.21925 429.948374 
L 415.6461 432.500923 
L 418.07295 435.942819 
L 422.92665 440.755292 
L 425.3535 443.893315 
L 427.78035 447.213363 
L 430.2072 450.729001 
L 432.63405 453.398917 
L 435.0609 455.621263 
L 437.48775 459.060967 
L 442.34145 463.887264 
L 444.7683 466.837207 
L 447.19515 469.542473 
L 449.622 472.492632 
L 452.04885 474.113742 
L 456.90255 480.563377 
L 459.3294 483.374755 
L 461.75625 486.596233 
L 464.1831 490.369983 
L 466.60995 492.876836 
L 469.0368 496.042856 
L 471.46365 499.463104 
L 476.31735 505.539 
L 478.7442 507.95387 
L 486.02475 516.906618 
L 488.4516 519.338827 
L 490.87845 522.386449 
L 498.159 530.811576 
L 503.0127 536.010188 
L 505.43955 539.183271 
L 507.8664 542.85673 
L 510.29325 545.431643 
L 512.7201 547.723798 
L 515.14695 550.497237 
L 517.5738 553.655758 
L 520.00065 555.812778 
L 522.4275 558.864802 
L 524.85435 562.163803 
L 527.2812 564.368864 
L 529.70805 566.732321 
L 532.1349 570.204947 
L 534.56175 573.306932 
L 536.9886 577.148643 
L 539.41545 579.80359 
L 541.8423 582.941812 
L 544.26915 585.544508 
L 546.696 587.79815 
L 549.12285 590.569561 
L 551.5497 594.095088 
L 553.97655 597.358357 
L 558.83025 603.020863 
L 561.2571 606.552567 
L 563.68395 608.846813 
L 568.53765 614.351997 
L 575.8182 623.206623 
L 578.24505 625.621309 
L 583.09875 631.704402 
L 585.5256 636.126723 
L 587.95245 638.981821 
L 590.3793 642.373045 
L 592.80615 646.2859 
L 595.233 649.222601 
L 597.65985 652.710425 
L 600.0867 655.974855 
L 602.51355 660.275085 
L 604.9404 662.68314 
L 607.36725 666.226764 
L 609.7941 668.547433 
L 612.22095 671.643237 
L 614.6478 674.357459 
L 617.07465 677.446831 
L 619.5015 679.242119 
L 621.92835 681.927504 
L 624.3552 684.156128 
L 626.78205 686.578092 
L 629.2089 689.567955 
L 631.63575 691.816309 
L 634.0626 694.473006 
L 636.48945 696.957021 
L 638.9163 698.841543 
L 641.34315 700.275864 
L 643.77 702.244136 
L 646.19685 704.492156 
L 648.6237 704.550239 
L 651.05055 703.754519 
L 653.4774 704.708757 
L 655.90425 705.273766 
L 658.3311 705.273267 
L 660.75795 705.573186 
L 663.1848 706.079817 
L 672.8922 706.663226 
L 675.31905 706.289769 
L 677.7459 705.211361 
L 680.17275 705.946368 
L 682.5996 707.38815 
L 685.02645 706.193263 
L 687.4533 706.297146 
L 689.88015 706.640537 
L 692.307 705.951207 
L 694.73385 707.523341 
L 697.1607 708.048777 
L 699.58755 707.128853 
L 702.0144 706.873181 
L 704.44125 705.457749 
L 706.8681 706.965921 
L 709.29495 707.866137 
L 711.7218 707.149247 
L 716.5755 707.329077 
L 719.00235 706.770389 
L 721.4292 707.755165 
L 723.85605 707.313458 
L 726.2829 707.049314 
L 728.70975 708.732657 
L 731.1366 708.246137 
L 733.56345 707.535653 
L 735.9903 708.154139 
L 738.41715 708.448114 
L 740.844 708.611828 
L 743.27085 709.449142 
L 745.6977 708.341131 
L 748.12455 706.745385 
L 750.5514 707.212376 
L 752.97825 707.307582 
L 755.4051 707.880476 
L 757.83195 706.817681 
L 760.2588 707.240108 
L 762.68565 708.255592 
L 765.1125 707.562813 
L 767.53935 706.182668 
L 769.9662 705.838276 
L 772.39305 706.661145 
L 774.8199 705.402745 
L 777.24675 706.035447 
L 782.10045 708.022975 
L 784.5273 708.494189 
L 786.95415 707.774138 
L 789.381 707.95221 
L 791.80785 705.866457 
L 794.2347 706.624081 
L 796.66155 706.598302 
L 799.0884 707.077161 
L 801.51525 707.932402 
L 803.9421 706.856208 
L 806.36895 706.500963 
L 808.7958 706.480628 
L 811.22265 707.776615 
L 813.6495 708.866501 
L 816.07635 709.529115 
L 818.5032 708.024514 
L 820.93005 707.325815 
L 823.3569 708.538599 
L 825.78375 707.493918 
L 828.2106 706.761954 
L 833.0643 708.129489 
L 835.49115 709.216858 
L 840.34485 710.254646 
L 842.7717 708.936993 
L 845.19855 708.052665 
L 847.6254 709.498068 
L 850.05225 708.987362 
L 852.4791 708.775125 
L 854.90595 709.449477 
L 857.3328 709.048244 
L 859.75965 709.599945 
L 862.1865 709.280061 
L 864.61335 709.511231 
L 867.0402 709.034679 
L 869.46705 708.238046 
L 871.8939 707.755377 
L 874.32075 707.650774 
L 876.7476 707.434875 
L 879.17445 707.633689 
L 881.6013 707.472792 
L 884.02815 708.519393 
L 886.455 708.780901 
L 888.88185 708.466542 
L 891.3087 707.413357 
L 893.73555 707.743918 
L 896.1624 706.60998 
L 898.58925 705.813617 
L 901.0161 706.329172 
L 903.44295 705.961736 
L 905.8698 706.240186 
L 908.29665 706.115243 
L 910.7235 706.365178 
L 913.15035 706.297774 
L 915.5772 705.551864 
L 918.00405 706.357215 
L 922.85775 707.24297 
L 925.2846 706.244126 
L 927.71145 706.991159 
L 932.56515 707.92806 
L 934.992 707.448149 
L 937.41885 706.609749 
L 939.8457 706.212594 
L 942.27255 707.200835 
L 944.6994 706.715 
L 947.12625 707.240476 
L 949.5531 706.891487 
L 951.97995 707.010217 
L 954.4068 706.512313 
L 956.83365 707.433478 
L 959.2605 707.75349 
L 961.68735 707.345309 
L 964.1142 707.207349 
L 966.54105 706.450821 
L 968.9679 706.169805 
L 971.39475 706.743261 
L 973.8216 706.535443 
L 976.24845 707.011259 
L 978.6753 706.891439 
L 981.10215 705.791032 
L 983.529 707.058937 
L 985.95585 707.359008 
L 988.3827 707.964906 
L 993.2364 707.954309 
L 995.66325 707.148772 
L 998.0901 707.402182 
L 1000.51695 706.171843 
L 1002.9438 706.092084 
L 1005.37065 706.529338 
L 1007.7975 706.64074 
L 1010.22435 706.534773 
L 1012.6512 706.642262 
L 1015.07805 705.684645 
L 1017.5049 706.442021 
L 1019.93175 706.186716 
L 1022.3586 706.484287 
L 1024.78545 706.340137 
L 1027.2123 705.680106 
L 1029.63915 705.648539 
L 1032.066 705.077954 
L 1034.49285 704.867937 
L 1036.9197 705.571008 
L 1039.34655 707.23818 
L 1041.7734 707.50376 
L 1044.20025 707.15122 
L 1046.6271 706.913424 
L 1049.05395 707.112259 
L 1053.90765 707.849977 
L 1056.3345 707.128702 
L 1058.76135 706.807805 
L 1061.1882 707.323399 
L 1066.0419 706.991969 
L 1068.46875 708.572641 
L 1070.8956 706.865304 
L 1073.32245 706.414346 
L 1075.7493 707.657441 
L 1078.17615 707.761205 
L 1080.603 707.586383 
L 1083.02985 707.670315 
L 1090.3104 708.935646 
L 1092.73725 707.612136 
L 1095.1641 708.163849 
L 1097.59095 707.700721 
L 1100.0178 708.104878 
L 1102.44465 708.013869 
L 1104.8715 707.73324 
L 1107.29835 707.929403 
L 1109.7252 707.688123 
L 1112.15205 708.553024 
L 1114.5789 708.318614 
L 1117.00575 708.607068 
L 1121.85945 710.277106 
L 1124.2863 710.46341 
L 1126.71315 709.063471 
L 1129.14 708.457551 
L 1131.56685 709.645212 
L 1133.9937 708.631746 
L 1138.8474 707.800725 
L 1141.27425 707.561632 
L 1143.7011 707.182586 
L 1146.12795 707.182781 
L 1148.5548 707.62128 
L 1150.98165 707.749388 
L 1153.4085 708.088584 
L 1155.83535 706.875298 
L 1158.2622 707.373967 
L 1160.68905 707.141983 
L 1163.1159 708.428054 
L 1165.54275 709.174505 
L 1167.9696 707.477941 
L 1172.8233 705.738695 
L 1175.25015 706.657144 
L 1177.677 706.560068 
L 1180.10385 706.143296 
L 1182.5307 706.769731 
L 1184.95755 706.308695 
L 1187.3844 707.731749 
L 1189.81125 707.441784 
L 1192.2381 707.551966 
L 1194.66495 707.001618 
L 1197.0918 706.825189 
L 1199.51865 705.730114 
L 1201.9455 706.890181 
L 1204.37235 706.803106 
L 1206.7992 708.08983 
L 1209.22605 708.566244 
L 1211.6529 707.223842 
L 1214.07975 705.724421 
L 1216.5066 706.437307 
L 1221.3603 706.847217 
L 1223.78715 707.516523 
L 1226.214 708.049942 
L 1228.64085 707.917365 
L 1231.0677 708.131048 
L 1233.49455 707.73525 
L 1235.9214 707.702101 
L 1238.34825 707.089897 
L 1240.7751 706.304339 
L 1243.20195 707.510657 
L 1245.6288 706.538277 
L 1248.05565 707.396371 
L 1250.4825 709.019682 
L 1257.76305 706.591184 
L 1260.1899 706.153081 
L 1265.0436 708.010555 
L 1267.47045 707.328481 
L 1269.8973 708.403206 
L 1272.32415 707.9441 
L 1274.751 708.189054 
L 1277.17785 706.228988 
L 1279.6047 707.712164 
L 1282.03155 706.924228 
L 1284.4584 707.180301 
L 1286.88525 706.570196 
L 1291.73895 706.821592 
L 1296.59265 705.407242 
L 1299.0195 706.174262 
L 1301.44635 706.283942 
L 1303.8732 707.472665 
L 1306.30005 705.654063 
L 1308.7269 706.359867 
L 1311.15375 706.916659 
L 1313.5806 706.493959 
L 1316.00745 707.62313 
L 1318.4343 707.138372 
L 1320.86115 707.73081 
L 1323.288 707.599563 
L 1325.71485 707.984494 
L 1328.1417 708.111885 
L 1330.56855 707.830541 
L 1332.9954 709.839396 
L 1335.42225 709.900899 
L 1337.8491 708.94467 
L 1340.27595 709.130553 
L 1342.7028 709.086281 
L 1345.12965 708.425748 
L 1347.5565 708.982868 
L 1349.98335 707.559948 
L 1352.4102 707.055172 
L 1354.83705 707.664981 
L 1357.2639 707.178371 
L 1359.69075 707.243254 
L 1362.1176 707.959236 
L 1364.54445 706.681781 
L 1366.9713 707.172386 
L 1369.39815 707.015519 
L 1369.39815 707.015519 
" style="fill:none;stroke:#0000ff;stroke-linecap:square;stroke-width:2.0;"/>
   </g>
   <g id="line2d_2">
    <path clip-path="url(#p8f9f82c946)" d="M 158.4 111.93293 
L 160.82685 115.393737 
L 163.2537 118.696678 
L 168.1074 124.200743 
L 172.9611 130.596268 
L 175.38795 133.562462 
L 177.8148 135.6214 
L 180.24165 137.888706 
L 182.6685 141.782813 
L 185.09535 144.617985 
L 187.5222 147.642286 
L 189.94905 151.193792 
L 192.3759 153.896516 
L 194.80275 156.309925 
L 199.65645 163.172664 
L 202.0833 165.815254 
L 204.51015 169.683663 
L 206.937 171.717354 
L 209.36385 175.02502 
L 211.7907 178.796473 
L 214.21755 181.385835 
L 216.6444 184.426606 
L 219.07125 187.726609 
L 223.92495 193.767383 
L 226.3518 196.539369 
L 231.2055 203.941043 
L 233.63235 205.94284 
L 236.0592 208.969406 
L 238.48605 212.402516 
L 240.9129 216.351993 
L 243.33975 219.163612 
L 248.19345 224.159003 
L 250.6203 225.73411 
L 253.04715 228.378097 
L 255.474 230.639684 
L 257.90085 233.189033 
L 260.3277 236.105599 
L 262.75455 239.836967 
L 265.1814 243.300013 
L 267.60825 246.007325 
L 272.46195 252.421198 
L 274.8888 256.410404 
L 277.31565 259.112581 
L 279.7425 262.353177 
L 282.16935 266.154516 
L 284.5962 269.610042 
L 291.87675 277.811368 
L 294.3036 280.63965 
L 296.73045 282.596075 
L 304.011 292.800868 
L 306.43785 295.101778 
L 308.8647 297.720022 
L 311.29155 300.85965 
L 316.14525 306.16632 
L 318.5721 308.762453 
L 320.99895 312.392809 
L 323.4258 314.936471 
L 325.85265 318.481977 
L 328.2795 321.474604 
L 330.70635 325.437505 
L 333.1332 327.904836 
L 335.56005 330.873336 
L 337.9869 333.021301 
L 340.41375 336.607473 
L 342.8406 339.003173 
L 345.26745 342.357881 
L 347.6943 345.384108 
L 350.12115 347.758689 
L 352.548 350.797489 
L 354.97485 354.469687 
L 357.4017 357.270374 
L 364.68225 367.530374 
L 369.53595 372.634829 
L 371.9628 374.934339 
L 374.38965 377.63699 
L 376.8165 379.817273 
L 379.24335 382.623633 
L 381.6702 384.614734 
L 386.5239 391.155231 
L 388.95075 394.924122 
L 391.3776 397.967912 
L 393.80445 401.902632 
L 396.2313 404.212077 
L 398.65815 407.369618 
L 401.085 410.118261 
L 403.51185 413.198663 
L 410.7924 421.832101 
L 413.21925 425.278024 
L 415.6461 428.333575 
L 418.07295 432.435426 
L 420.4998 435.365595 
L 422.92665 438.662942 
L 425.3535 441.62508 
L 427.78035 445.997533 
L 430.2072 449.041256 
L 432.63405 452.712206 
L 435.0609 455.212679 
L 437.48775 458.206943 
L 442.34145 465.056312 
L 444.7683 468.042423 
L 447.19515 471.396446 
L 449.622 473.990979 
L 452.04885 477.062406 
L 454.4757 480.423458 
L 456.90255 482.794804 
L 466.60995 495.38032 
L 469.0368 499.588083 
L 471.46365 502.549059 
L 473.8905 506.122906 
L 476.31735 509.273331 
L 478.7442 511.857326 
L 481.17105 514.788885 
L 483.5979 518.204837 
L 486.02475 521.181034 
L 488.4516 522.451683 
L 490.87845 525.704818 
L 498.159 533.190351 
L 500.58585 535.913432 
L 503.0127 539.387649 
L 505.43955 544.002651 
L 507.8664 545.139792 
L 510.29325 548.831239 
L 512.7201 551.691067 
L 517.5738 556.557239 
L 520.00065 559.963317 
L 522.4275 562.360744 
L 524.85435 564.975222 
L 529.70805 571.509178 
L 532.1349 573.908252 
L 536.9886 580.514143 
L 539.41545 584.605291 
L 541.8423 586.925467 
L 544.26915 590.286484 
L 553.97655 602.121622 
L 556.4034 605.988824 
L 561.2571 612.560514 
L 563.68395 615.129594 
L 566.1108 618.433269 
L 568.53765 620.869116 
L 573.39135 626.769287 
L 575.8182 630.341054 
L 578.24505 633.046079 
L 583.09875 638.959781 
L 585.5256 642.729106 
L 587.95245 644.740666 
L 590.3793 648.294053 
L 595.233 654.822904 
L 597.65985 656.318568 
L 604.9404 664.46415 
L 607.36725 668.068952 
L 609.7941 669.973193 
L 612.22095 672.916121 
L 614.6478 675.619703 
L 617.07465 679.247102 
L 619.5015 681.819266 
L 624.3552 687.399207 
L 626.78205 689.74452 
L 629.2089 691.50504 
L 631.63575 693.556165 
L 634.0626 696.100509 
L 636.48945 698.070565 
L 638.9163 699.802011 
L 641.34315 701.869425 
L 643.77 703.16801 
L 646.19685 704.057258 
L 648.6237 705.297823 
L 651.05055 706.234781 
L 653.4774 706.120051 
L 655.90425 706.5006 
L 658.3311 707.494773 
L 660.75795 706.487443 
L 663.1848 707.147909 
L 665.61165 705.798785 
L 668.0385 706.296585 
L 670.46535 705.72599 
L 672.8922 706.313158 
L 675.31905 705.529726 
L 680.17275 706.683057 
L 682.5996 705.103834 
L 685.02645 705.37042 
L 687.4533 705.888748 
L 689.88015 706.89952 
L 692.307 707.649517 
L 694.73385 706.97789 
L 697.1607 706.118769 
L 699.58755 705.947022 
L 702.0144 707.235438 
L 704.44125 707.885349 
L 706.8681 708.034801 
L 709.29495 707.46425 
L 711.7218 707.230233 
L 714.14865 706.499736 
L 716.5755 706.101692 
L 719.00235 707.216545 
L 721.4292 707.438524 
L 723.85605 708.12927 
L 726.2829 707.80708 
L 728.70975 708.19648 
L 731.1366 708.327937 
L 733.56345 708.765346 
L 735.9903 708.554078 
L 738.41715 708.530162 
L 740.844 708.707489 
L 743.27085 707.84142 
L 745.6977 707.685185 
L 748.12455 707.970517 
L 750.5514 707.602109 
L 752.97825 706.652358 
L 755.4051 706.408793 
L 757.83195 707.231132 
L 760.2588 707.905329 
L 762.68565 707.879954 
L 769.9662 708.300022 
L 772.39305 708.661168 
L 774.8199 708.18063 
L 777.24675 708.323726 
L 779.6736 709.942146 
L 782.10045 709.115057 
L 784.5273 708.685743 
L 789.381 708.177187 
L 791.80785 708.186515 
L 794.2347 707.626173 
L 796.66155 707.574899 
L 799.0884 707.403573 
L 801.51525 707.84053 
L 803.9421 707.271093 
L 806.36895 708.440783 
L 808.7958 708.87336 
L 811.22265 709.744472 
L 813.6495 709.252381 
L 816.07635 708.192585 
L 818.5032 708.207471 
L 820.93005 707.258284 
L 825.78375 707.199084 
L 830.63745 708.135476 
L 835.49115 707.628094 
L 837.918 706.645071 
L 840.34485 707.301584 
L 842.7717 707.259253 
L 845.19855 707.812255 
L 847.6254 707.865881 
L 850.05225 706.796305 
L 852.4791 705.88872 
L 854.90595 706.555776 
L 857.3328 706.869461 
L 859.75965 707.51741 
L 862.1865 707.728516 
L 864.61335 709.456448 
L 867.0402 709.357791 
L 869.46705 708.90724 
L 871.8939 709.01633 
L 874.32075 709.498941 
L 876.7476 709.390291 
L 879.17445 707.180451 
L 881.6013 706.959369 
L 884.02815 706.003635 
L 886.455 706.715712 
L 888.88185 705.722696 
L 893.73555 706.618874 
L 896.1624 706.511406 
L 898.58925 707.535664 
L 905.8698 707.432239 
L 908.29665 707.682682 
L 910.7235 707.630931 
L 913.15035 706.913355 
L 918.00405 707.650225 
L 920.4309 707.533424 
L 922.85775 707.15092 
L 925.2846 707.782801 
L 927.71145 708.547689 
L 930.1383 708.630387 
L 932.56515 707.742518 
L 934.992 708.497659 
L 937.41885 708.251457 
L 939.8457 707.336917 
L 942.27255 707.691318 
L 944.6994 708.67991 
L 947.12625 707.956473 
L 949.5531 707.75019 
L 951.97995 707.030623 
L 954.4068 707.437476 
L 956.83365 708.158752 
L 959.2605 708.16734 
L 961.68735 708.459722 
L 964.1142 707.947098 
L 966.54105 708.12133 
L 968.9679 706.152187 
L 971.39475 706.188559 
L 973.8216 707.212591 
L 976.24845 707.885866 
L 978.6753 708.203444 
L 981.10215 708.358614 
L 983.529 708.857929 
L 985.95585 708.706441 
L 988.3827 709.082523 
L 990.80955 708.522558 
L 993.2364 708.481098 
L 995.66325 708.084793 
L 998.0901 707.967496 
L 1000.51695 707.164878 
L 1002.9438 706.087016 
L 1005.37065 705.842576 
L 1007.7975 706.02882 
L 1010.22435 707.107577 
L 1015.07805 707.474895 
L 1017.5049 707.243888 
L 1022.3586 708.811784 
L 1024.78545 708.936397 
L 1027.2123 708.103604 
L 1029.63915 709.114748 
L 1032.066 708.061073 
L 1034.49285 708.306644 
L 1036.9197 706.09949 
L 1039.34655 706.384509 
L 1041.7734 707.055094 
L 1044.20025 706.28994 
L 1049.05395 706.765264 
L 1051.4808 707.798235 
L 1056.3345 708.106967 
L 1058.76135 709.12519 
L 1061.1882 709.286072 
L 1066.0419 708.48784 
L 1068.46875 708.922776 
L 1070.8956 708.0454 
L 1073.32245 708.435796 
L 1075.7493 708.977044 
L 1078.17615 708.178935 
L 1083.02985 705.960679 
L 1085.4567 705.045511 
L 1087.88355 704.886579 
L 1090.3104 706.240088 
L 1092.73725 707.37737 
L 1095.1641 706.689197 
L 1097.59095 706.568399 
L 1102.44465 708.257172 
L 1104.8715 707.898321 
L 1109.7252 707.336744 
L 1112.15205 707.39261 
L 1114.5789 707.601642 
L 1117.00575 708.118303 
L 1119.4326 707.710932 
L 1121.85945 706.250933 
L 1124.2863 707.031776 
L 1126.71315 707.000297 
L 1131.56685 707.466404 
L 1136.42055 707.248734 
L 1138.8474 706.550298 
L 1141.27425 706.681156 
L 1143.7011 706.434321 
L 1146.12795 706.887564 
L 1148.5548 706.859755 
L 1150.98165 706.435958 
L 1153.4085 705.24638 
L 1155.83535 705.4364 
L 1158.2622 706.898979 
L 1163.1159 707.935211 
L 1165.54275 707.600162 
L 1167.9696 708.813558 
L 1170.39645 708.712465 
L 1172.8233 708.770526 
L 1175.25015 710.200656 
L 1177.677 710.134502 
L 1180.10385 710.233485 
L 1182.5307 709.19306 
L 1187.3844 707.442008 
L 1189.81125 706.735738 
L 1192.2381 707.996474 
L 1197.0918 706.836686 
L 1199.51865 708.7306 
L 1201.9455 708.388198 
L 1204.37235 707.44853 
L 1206.7992 708.229686 
L 1209.22605 709.583494 
L 1211.6529 709.937959 
L 1214.07975 710.727771 
L 1216.5066 711.048215 
L 1218.93345 709.341472 
L 1221.3603 708.074339 
L 1223.78715 707.441272 
L 1226.214 708.750859 
L 1228.64085 706.594858 
L 1231.0677 706.432831 
L 1233.49455 706.465341 
L 1235.9214 705.929804 
L 1238.34825 706.79679 
L 1240.7751 707.352034 
L 1243.20195 706.444271 
L 1245.6288 707.518325 
L 1250.4825 708.009571 
L 1252.90935 706.621734 
L 1255.3362 706.603074 
L 1257.76305 706.335908 
L 1262.61675 706.393877 
L 1265.0436 706.612305 
L 1267.47045 705.947093 
L 1272.32415 706.73401 
L 1274.751 706.5941 
L 1277.17785 705.904214 
L 1279.6047 706.873739 
L 1282.03155 707.133989 
L 1284.4584 707.996808 
L 1286.88525 707.304251 
L 1289.3121 708.381368 
L 1291.73895 707.798882 
L 1294.1658 708.538972 
L 1296.59265 708.818148 
L 1299.0195 708.456179 
L 1301.44635 707.716445 
L 1303.8732 707.520829 
L 1306.30005 709.000495 
L 1308.7269 708.862193 
L 1311.15375 708.169984 
L 1316.00745 707.778117 
L 1318.4343 707.139317 
L 1320.86115 708.53137 
L 1323.288 708.07114 
L 1325.71485 708.501991 
L 1328.1417 708.368649 
L 1330.56855 707.277936 
L 1332.9954 707.00729 
L 1335.42225 707.50553 
L 1337.8491 707.405728 
L 1340.27595 707.438633 
L 1342.7028 707.199174 
L 1347.5565 707.84623 
L 1349.98335 707.36393 
L 1352.4102 708.592097 
L 1354.83705 707.511011 
L 1357.2639 706.622927 
L 1359.69075 706.668079 
L 1364.54445 708.172981 
L 1366.9713 708.34383 
L 1369.39815 708.984125 
L 1369.39815 708.984125 
" style="fill:none;stroke:#008000;stroke-linecap:square;stroke-width:2.0;"/>
   </g>
   <g id="patch_3">
    <path d="M 158.4 51.3 
L 1371.825 51.3 
" style="fill:none;stroke:#000000;stroke-linecap:square;stroke-linejoin:miter;"/>
   </g>
   <g id="patch_4">
    <path d="M 1371.825 747 
L 1371.825 51.3 
" style="fill:none;stroke:#000000;stroke-linecap:square;stroke-linejoin:miter;"/>
   </g>
   <g id="patch_5">
    <path d="M 158.4 747 
L 1371.825 747 
" style="fill:none;stroke:#000000;stroke-linecap:square;stroke-linejoin:miter;"/>
   </g>
   <g id="patch_6">
    <path d="M 158.4 747 
L 158.4 51.3 
" style="fill:none;stroke:#000000;stroke-linecap:square;stroke-linejoin:miter;"/>
   </g>
   <g id="matplotlib.axis_1">
    <g id="xtick_1">
     <g id="line2d_3">
      <defs>
       <path d="M 0 0 
L 0 -4 
" id="mac28775f7b" style="stroke:#000000;stroke-width:0.5;"/>
      </defs>
      <g>
       <use style="stroke:#000000;stroke-width:0.5;" x="158.4" xlink:href="#mac28775f7b" y="747.0"/>
      </g>
     </g>
     <g id="line2d_4">
      <defs>
       <path d="M 0 0 
L 0 4 
" id="me635c08aa1" style="stroke:#000000;stroke-width:0.5;"/>
      </defs>
      <g>
       <use style="stroke:#000000;stroke-width:0.5;" x="158.4" xlink:href="#me635c08aa1" y="51.3"/>
      </g>
     </g>
     <g id="text_1">
      <!-- 0 -->
      <defs>
       <path d="M 31.78125 66.40625 
Q 24.171875 66.40625 20.328125 58.90625 
Q 16.5 51.421875 16.5 36.375 
Q 16.5 21.390625 20.328125 13.890625 
Q 24.171875 6.390625 31.78125 6.390625 
Q 39.453125 6.390625 43.28125 13.890625 
Q 47.125 21.390625 47.125 36.375 
Q 47.125 51.421875 43.28125 58.90625 
Q 39.453125 66.40625 31.78125 66.40625 
M 31.78125 74.21875 
Q 44.046875 74.21875 50.515625 64.515625 
Q 56.984375 54.828125 56.984375 36.375 
Q 56.984375 17.96875 50.515625 8.265625 
Q 44.046875 -1.421875 31.78125 -1.421875 
Q 19.53125 -1.421875 13.0625 8.265625 
Q 6.59375 17.96875 6.59375 36.375 
Q 6.59375 54.828125 13.0625 64.515625 
Q 19.53125 74.21875 31.78125 74.21875 
" id="BitstreamVeraSans-Roman-30"/>
      </defs>
      <g transform="translate(148.85625 773.7953125)scale(0.3 -0.3)">
       <use xlink:href="#BitstreamVeraSans-Roman-30"/>
      </g>
     </g>
    </g>
    <g id="xtick_2">
     <g id="line2d_5">
      <g>
       <use style="stroke:#000000;stroke-width:0.5;" x="401.085" xlink:href="#mac28775f7b" y="747.0"/>
      </g>
     </g>
     <g id="line2d_6">
      <g>
       <use style="stroke:#000000;stroke-width:0.5;" x="401.085" xlink:href="#me635c08aa1" y="51.3"/>
      </g>
     </g>
     <g id="text_2">
      <!-- 100 -->
      <defs>
       <path d="M 12.40625 8.296875 
L 28.515625 8.296875 
L 28.515625 63.921875 
L 10.984375 60.40625 
L 10.984375 69.390625 
L 28.421875 72.90625 
L 38.28125 72.90625 
L 38.28125 8.296875 
L 54.390625 8.296875 
L 54.390625 0 
L 12.40625 0 
z
" id="BitstreamVeraSans-Roman-31"/>
      </defs>
      <g transform="translate(372.45375 773.7953125)scale(0.3 -0.3)">
       <use xlink:href="#BitstreamVeraSans-Roman-31"/>
       <use x="63.623046875" xlink:href="#BitstreamVeraSans-Roman-30"/>
       <use x="127.24609375" xlink:href="#BitstreamVeraSans-Roman-30"/>
      </g>
     </g>
    </g>
    <g id="xtick_3">
     <g id="line2d_7">
      <g>
       <use style="stroke:#000000;stroke-width:0.5;" x="643.77" xlink:href="#mac28775f7b" y="747.0"/>
      </g>
     </g>
     <g id="line2d_8">
      <g>
       <use style="stroke:#000000;stroke-width:0.5;" x="643.77" xlink:href="#me635c08aa1" y="51.3"/>
      </g>
     </g>
     <g id="text_3">
      <!-- 200 -->
      <defs>
       <path d="M 19.1875 8.296875 
L 53.609375 8.296875 
L 53.609375 0 
L 7.328125 0 
L 7.328125 8.296875 
Q 12.9375 14.109375 22.625 23.890625 
Q 32.328125 33.6875 34.8125 36.53125 
Q 39.546875 41.84375 41.421875 45.53125 
Q 43.3125 49.21875 43.3125 52.78125 
Q 43.3125 58.59375 39.234375 62.25 
Q 35.15625 65.921875 28.609375 65.921875 
Q 23.96875 65.921875 18.8125 64.3125 
Q 13.671875 62.703125 7.8125 59.421875 
L 7.8125 69.390625 
Q 13.765625 71.78125 18.9375 73 
Q 24.125 74.21875 28.421875 74.21875 
Q 39.75 74.21875 46.484375 68.546875 
Q 53.21875 62.890625 53.21875 53.421875 
Q 53.21875 48.921875 51.53125 44.890625 
Q 49.859375 40.875 45.40625 35.40625 
Q 44.1875 33.984375 37.640625 27.21875 
Q 31.109375 20.453125 19.1875 8.296875 
" id="BitstreamVeraSans-Roman-32"/>
      </defs>
      <g transform="translate(615.13875 773.7953125)scale(0.3 -0.3)">
       <use xlink:href="#BitstreamVeraSans-Roman-32"/>
       <use x="63.623046875" xlink:href="#BitstreamVeraSans-Roman-30"/>
       <use x="127.24609375" xlink:href="#BitstreamVeraSans-Roman-30"/>
      </g>
     </g>
    </g>
    <g id="xtick_4">
     <g id="line2d_9">
      <g>
       <use style="stroke:#000000;stroke-width:0.5;" x="886.455" xlink:href="#mac28775f7b" y="747.0"/>
      </g>
     </g>
     <g id="line2d_10">
      <g>
       <use style="stroke:#000000;stroke-width:0.5;" x="886.455" xlink:href="#me635c08aa1" y="51.3"/>
      </g>
     </g>
     <g id="text_4">
      <!-- 300 -->
      <defs>
       <path d="M 40.578125 39.3125 
Q 47.65625 37.796875 51.625 33 
Q 55.609375 28.21875 55.609375 21.1875 
Q 55.609375 10.40625 48.1875 4.484375 
Q 40.765625 -1.421875 27.09375 -1.421875 
Q 22.515625 -1.421875 17.65625 -0.515625 
Q 12.796875 0.390625 7.625 2.203125 
L 7.625 11.71875 
Q 11.71875 9.328125 16.59375 8.109375 
Q 21.484375 6.890625 26.8125 6.890625 
Q 36.078125 6.890625 40.9375 10.546875 
Q 45.796875 14.203125 45.796875 21.1875 
Q 45.796875 27.640625 41.28125 31.265625 
Q 36.765625 34.90625 28.71875 34.90625 
L 20.21875 34.90625 
L 20.21875 43.015625 
L 29.109375 43.015625 
Q 36.375 43.015625 40.234375 45.921875 
Q 44.09375 48.828125 44.09375 54.296875 
Q 44.09375 59.90625 40.109375 62.90625 
Q 36.140625 65.921875 28.71875 65.921875 
Q 24.65625 65.921875 20.015625 65.03125 
Q 15.375 64.15625 9.8125 62.3125 
L 9.8125 71.09375 
Q 15.4375 72.65625 20.34375 73.4375 
Q 25.25 74.21875 29.59375 74.21875 
Q 40.828125 74.21875 47.359375 69.109375 
Q 53.90625 64.015625 53.90625 55.328125 
Q 53.90625 49.265625 50.4375 45.09375 
Q 46.96875 40.921875 40.578125 39.3125 
" id="BitstreamVeraSans-Roman-33"/>
      </defs>
      <g transform="translate(857.82375 773.7953125)scale(0.3 -0.3)">
       <use xlink:href="#BitstreamVeraSans-Roman-33"/>
       <use x="63.623046875" xlink:href="#BitstreamVeraSans-Roman-30"/>
       <use x="127.24609375" xlink:href="#BitstreamVeraSans-Roman-30"/>
      </g>
     </g>
    </g>
    <g id="xtick_5">
     <g id="line2d_11">
      <g>
       <use style="stroke:#000000;stroke-width:0.5;" x="1129.14" xlink:href="#mac28775f7b" y="747.0"/>
      </g>
     </g>
     <g id="line2d_12">
      <g>
       <use style="stroke:#000000;stroke-width:0.5;" x="1129.14" xlink:href="#me635c08aa1" y="51.3"/>
      </g>
     </g>
     <g id="text_5">
      <!-- 400 -->
      <defs>
       <path d="M 37.796875 64.3125 
L 12.890625 25.390625 
L 37.796875 25.390625 
z
M 35.203125 72.90625 
L 47.609375 72.90625 
L 47.609375 25.390625 
L 58.015625 25.390625 
L 58.015625 17.1875 
L 47.609375 17.1875 
L 47.609375 0 
L 37.796875 0 
L 37.796875 17.1875 
L 4.890625 17.1875 
L 4.890625 26.703125 
z
" id="BitstreamVeraSans-Roman-34"/>
      </defs>
      <g transform="translate(1100.50875 773.7953125)scale(0.3 -0.3)">
       <use xlink:href="#BitstreamVeraSans-Roman-34"/>
       <use x="63.623046875" xlink:href="#BitstreamVeraSans-Roman-30"/>
       <use x="127.24609375" xlink:href="#BitstreamVeraSans-Roman-30"/>
      </g>
     </g>
    </g>
    <g id="xtick_6">
     <g id="line2d_13">
      <g>
       <use style="stroke:#000000;stroke-width:0.5;" x="1371.825" xlink:href="#mac28775f7b" y="747.0"/>
      </g>
     </g>
     <g id="line2d_14">
      <g>
       <use style="stroke:#000000;stroke-width:0.5;" x="1371.825" xlink:href="#me635c08aa1" y="51.3"/>
      </g>
     </g>
     <g id="text_6">
      <!-- 500 -->
      <defs>
       <path d="M 10.796875 72.90625 
L 49.515625 72.90625 
L 49.515625 64.59375 
L 19.828125 64.59375 
L 19.828125 46.734375 
Q 21.96875 47.46875 24.109375 47.828125 
Q 26.265625 48.1875 28.421875 48.1875 
Q 40.625 48.1875 47.75 41.5 
Q 54.890625 34.8125 54.890625 23.390625 
Q 54.890625 11.625 47.5625 5.09375 
Q 40.234375 -1.421875 26.90625 -1.421875 
Q 22.3125 -1.421875 17.546875 -0.640625 
Q 12.796875 0.140625 7.71875 1.703125 
L 7.71875 11.625 
Q 12.109375 9.234375 16.796875 8.0625 
Q 21.484375 6.890625 26.703125 6.890625 
Q 35.15625 6.890625 40.078125 11.328125 
Q 45.015625 15.765625 45.015625 23.390625 
Q 45.015625 31 40.078125 35.4375 
Q 35.15625 39.890625 26.703125 39.890625 
Q 22.75 39.890625 18.8125 39.015625 
Q 14.890625 38.140625 10.796875 36.28125 
z
" id="BitstreamVeraSans-Roman-35"/>
      </defs>
      <g transform="translate(1343.19375 773.7953125)scale(0.3 -0.3)">
       <use xlink:href="#BitstreamVeraSans-Roman-35"/>
       <use x="63.623046875" xlink:href="#BitstreamVeraSans-Roman-30"/>
       <use x="127.24609375" xlink:href="#BitstreamVeraSans-Roman-30"/>
      </g>
     </g>
    </g>
    <g id="text_7">
     <!-- iterations -->
     <defs>
      <path d="M 54.890625 33.015625 
L 54.890625 0 
L 45.90625 0 
L 45.90625 32.71875 
Q 45.90625 40.484375 42.875 44.328125 
Q 39.84375 48.1875 33.796875 48.1875 
Q 26.515625 48.1875 22.3125 43.546875 
Q 18.109375 38.921875 18.109375 30.90625 
L 18.109375 0 
L 9.078125 0 
L 9.078125 54.6875 
L 18.109375 54.6875 
L 18.109375 46.1875 
Q 21.34375 51.125 25.703125 53.5625 
Q 30.078125 56 35.796875 56 
Q 45.21875 56 50.046875 50.171875 
Q 54.890625 44.34375 54.890625 33.015625 
" id="BitstreamVeraSans-Roman-6e"/>
      <path d="M 34.28125 27.484375 
Q 23.390625 27.484375 19.1875 25 
Q 14.984375 22.515625 14.984375 16.5 
Q 14.984375 11.71875 18.140625 8.90625 
Q 21.296875 6.109375 26.703125 6.109375 
Q 34.1875 6.109375 38.703125 11.40625 
Q 43.21875 16.703125 43.21875 25.484375 
L 43.21875 27.484375 
z
M 52.203125 31.203125 
L 52.203125 0 
L 43.21875 0 
L 43.21875 8.296875 
Q 40.140625 3.328125 35.546875 0.953125 
Q 30.953125 -1.421875 24.3125 -1.421875 
Q 15.921875 -1.421875 10.953125 3.296875 
Q 6 8.015625 6 15.921875 
Q 6 25.140625 12.171875 29.828125 
Q 18.359375 34.515625 30.609375 34.515625 
L 43.21875 34.515625 
L 43.21875 35.40625 
Q 43.21875 41.609375 39.140625 45 
Q 35.0625 48.390625 27.6875 48.390625 
Q 23 48.390625 18.546875 47.265625 
Q 14.109375 46.140625 10.015625 43.890625 
L 10.015625 52.203125 
Q 14.9375 54.109375 19.578125 55.046875 
Q 24.21875 56 28.609375 56 
Q 40.484375 56 46.34375 49.84375 
Q 52.203125 43.703125 52.203125 31.203125 
" id="BitstreamVeraSans-Roman-61"/>
      <path d="M 30.609375 48.390625 
Q 23.390625 48.390625 19.1875 42.75 
Q 14.984375 37.109375 14.984375 27.296875 
Q 14.984375 17.484375 19.15625 11.84375 
Q 23.34375 6.203125 30.609375 6.203125 
Q 37.796875 6.203125 41.984375 11.859375 
Q 46.1875 17.53125 46.1875 27.296875 
Q 46.1875 37.015625 41.984375 42.703125 
Q 37.796875 48.390625 30.609375 48.390625 
M 30.609375 56 
Q 42.328125 56 49.015625 48.375 
Q 55.71875 40.765625 55.71875 27.296875 
Q 55.71875 13.875 49.015625 6.21875 
Q 42.328125 -1.421875 30.609375 -1.421875 
Q 18.84375 -1.421875 12.171875 6.21875 
Q 5.515625 13.875 5.515625 27.296875 
Q 5.515625 40.765625 12.171875 48.375 
Q 18.84375 56 30.609375 56 
" id="BitstreamVeraSans-Roman-6f"/>
      <path d="M 9.421875 54.6875 
L 18.40625 54.6875 
L 18.40625 0 
L 9.421875 0 
z
M 9.421875 75.984375 
L 18.40625 75.984375 
L 18.40625 64.59375 
L 9.421875 64.59375 
z
" id="BitstreamVeraSans-Roman-69"/>
      <path d="M 56.203125 29.59375 
L 56.203125 25.203125 
L 14.890625 25.203125 
Q 15.484375 15.921875 20.484375 11.0625 
Q 25.484375 6.203125 34.421875 6.203125 
Q 39.59375 6.203125 44.453125 7.46875 
Q 49.3125 8.734375 54.109375 11.28125 
L 54.109375 2.78125 
Q 49.265625 0.734375 44.1875 -0.34375 
Q 39.109375 -1.421875 33.890625 -1.421875 
Q 20.796875 -1.421875 13.15625 6.1875 
Q 5.515625 13.8125 5.515625 26.8125 
Q 5.515625 40.234375 12.765625 48.109375 
Q 20.015625 56 32.328125 56 
Q 43.359375 56 49.78125 48.890625 
Q 56.203125 41.796875 56.203125 29.59375 
M 47.21875 32.234375 
Q 47.125 39.59375 43.09375 43.984375 
Q 39.0625 48.390625 32.421875 48.390625 
Q 24.90625 48.390625 20.390625 44.140625 
Q 15.875 39.890625 15.1875 32.171875 
z
" id="BitstreamVeraSans-Roman-65"/>
      <path d="M 18.3125 70.21875 
L 18.3125 54.6875 
L 36.8125 54.6875 
L 36.8125 47.703125 
L 18.3125 47.703125 
L 18.3125 18.015625 
Q 18.3125 11.328125 20.140625 9.421875 
Q 21.96875 7.515625 27.59375 7.515625 
L 36.8125 7.515625 
L 36.8125 0 
L 27.59375 0 
Q 17.1875 0 13.234375 3.875 
Q 9.28125 7.765625 9.28125 18.015625 
L 9.28125 47.703125 
L 2.6875 47.703125 
L 2.6875 54.6875 
L 9.28125 54.6875 
L 9.28125 70.21875 
z
" id="BitstreamVeraSans-Roman-74"/>
      <path d="M 41.109375 46.296875 
Q 39.59375 47.171875 37.8125 47.578125 
Q 36.03125 48 33.890625 48 
Q 26.265625 48 22.1875 43.046875 
Q 18.109375 38.09375 18.109375 28.8125 
L 18.109375 0 
L 9.078125 0 
L 9.078125 54.6875 
L 18.109375 54.6875 
L 18.109375 46.1875 
Q 20.953125 51.171875 25.484375 53.578125 
Q 30.03125 56 36.53125 56 
Q 37.453125 56 38.578125 55.875 
Q 39.703125 55.765625 41.0625 55.515625 
z
" id="BitstreamVeraSans-Roman-72"/>
      <path d="M 44.28125 53.078125 
L 44.28125 44.578125 
Q 40.484375 46.53125 36.375 47.5 
Q 32.28125 48.484375 27.875 48.484375 
Q 21.1875 48.484375 17.84375 46.4375 
Q 14.5 44.390625 14.5 40.28125 
Q 14.5 37.15625 16.890625 35.375 
Q 19.28125 33.59375 26.515625 31.984375 
L 29.59375 31.296875 
Q 39.15625 29.25 43.1875 25.515625 
Q 47.21875 21.78125 47.21875 15.09375 
Q 47.21875 7.46875 41.1875 3.015625 
Q 35.15625 -1.421875 24.609375 -1.421875 
Q 20.21875 -1.421875 15.453125 -0.5625 
Q 10.6875 0.296875 5.421875 2 
L 5.421875 11.28125 
Q 10.40625 8.6875 15.234375 7.390625 
Q 20.0625 6.109375 24.8125 6.109375 
Q 31.15625 6.109375 34.5625 8.28125 
Q 37.984375 10.453125 37.984375 14.40625 
Q 37.984375 18.0625 35.515625 20.015625 
Q 33.0625 21.96875 24.703125 23.78125 
L 21.578125 24.515625 
Q 13.234375 26.265625 9.515625 29.90625 
Q 5.8125 33.546875 5.8125 39.890625 
Q 5.8125 47.609375 11.28125 51.796875 
Q 16.75 56 26.8125 56 
Q 31.78125 56 36.171875 55.265625 
Q 40.578125 54.546875 44.28125 53.078125 
" id="BitstreamVeraSans-Roman-73"/>
     </defs>
     <g transform="translate(693.93046875 807.8296875)scale(0.3 -0.3)">
      <use xlink:href="#BitstreamVeraSans-Roman-69"/>
      <use x="27.783203125" xlink:href="#BitstreamVeraSans-Roman-74"/>
      <use x="66.9921875" xlink:href="#BitstreamVeraSans-Roman-65"/>
      <use x="128.515625" xlink:href="#BitstreamVeraSans-Roman-72"/>
      <use x="169.62890625" xlink:href="#BitstreamVeraSans-Roman-61"/>
      <use x="230.908203125" xlink:href="#BitstreamVeraSans-Roman-74"/>
      <use x="270.1171875" xlink:href="#BitstreamVeraSans-Roman-69"/>
      <use x="297.900390625" xlink:href="#BitstreamVeraSans-Roman-6f"/>
      <use x="359.08203125" xlink:href="#BitstreamVeraSans-Roman-6e"/>
      <use x="422.4609375" xlink:href="#BitstreamVeraSans-Roman-73"/>
     </g>
    </g>
   </g>
   <g id="matplotlib.axis_2">
    <g id="ytick_1">
     <g id="line2d_15">
      <defs>
       <path d="M 0 0 
L 4 0 
" id="mc024c0445a" style="stroke:#000000;stroke-width:0.5;"/>
      </defs>
      <g>
       <use style="stroke:#000000;stroke-width:0.5;" x="158.4" xlink:href="#mc024c0445a" y="747.0"/>
      </g>
     </g>
     <g id="line2d_16">
      <defs>
       <path d="M 0 0 
L -4 0 
" id="mdad013d361" style="stroke:#000000;stroke-width:0.5;"/>
      </defs>
      <g>
       <use style="stroke:#000000;stroke-width:0.5;" x="1371.825" xlink:href="#mdad013d361" y="747.0"/>
      </g>
     </g>
     <g id="text_8">
      <!-- −60 -->
      <defs>
       <path d="M 10.59375 35.5 
L 73.1875 35.5 
L 73.1875 27.203125 
L 10.59375 27.203125 
z
" id="BitstreamVeraSans-Roman-2212"/>
       <path d="M 33.015625 40.375 
Q 26.375 40.375 22.484375 35.828125 
Q 18.609375 31.296875 18.609375 23.390625 
Q 18.609375 15.53125 22.484375 10.953125 
Q 26.375 6.390625 33.015625 6.390625 
Q 39.65625 6.390625 43.53125 10.953125 
Q 47.40625 15.53125 47.40625 23.390625 
Q 47.40625 31.296875 43.53125 35.828125 
Q 39.65625 40.375 33.015625 40.375 
M 52.59375 71.296875 
L 52.59375 62.3125 
Q 48.875 64.0625 45.09375 64.984375 
Q 41.3125 65.921875 37.59375 65.921875 
Q 27.828125 65.921875 22.671875 59.328125 
Q 17.53125 52.734375 16.796875 39.40625 
Q 19.671875 43.65625 24.015625 45.921875 
Q 28.375 48.1875 33.59375 48.1875 
Q 44.578125 48.1875 50.953125 41.515625 
Q 57.328125 34.859375 57.328125 23.390625 
Q 57.328125 12.15625 50.6875 5.359375 
Q 44.046875 -1.421875 33.015625 -1.421875 
Q 20.359375 -1.421875 13.671875 8.265625 
Q 6.984375 17.96875 6.984375 36.375 
Q 6.984375 53.65625 15.1875 63.9375 
Q 23.390625 74.21875 37.203125 74.21875 
Q 40.921875 74.21875 44.703125 73.484375 
Q 48.484375 72.75 52.59375 71.296875 
" id="BitstreamVeraSans-Roman-36"/>
      </defs>
      <g transform="translate(91.0859375 755.278125)scale(0.3 -0.3)">
       <use xlink:href="#BitstreamVeraSans-Roman-2212"/>
       <use x="83.7890625" xlink:href="#BitstreamVeraSans-Roman-36"/>
       <use x="147.412109375" xlink:href="#BitstreamVeraSans-Roman-30"/>
      </g>
     </g>
    </g>
    <g id="ytick_2">
     <g id="line2d_17">
      <g>
       <use style="stroke:#000000;stroke-width:0.5;" x="158.4" xlink:href="#mc024c0445a" y="660.0375"/>
      </g>
     </g>
     <g id="line2d_18">
      <g>
       <use style="stroke:#000000;stroke-width:0.5;" x="1371.825" xlink:href="#mdad013d361" y="660.0375"/>
      </g>
     </g>
     <g id="text_9">
      <!-- −50 -->
      <g transform="translate(91.0859375 668.315625)scale(0.3 -0.3)">
       <use xlink:href="#BitstreamVeraSans-Roman-2212"/>
       <use x="83.7890625" xlink:href="#BitstreamVeraSans-Roman-35"/>
       <use x="147.412109375" xlink:href="#BitstreamVeraSans-Roman-30"/>
      </g>
     </g>
    </g>
    <g id="ytick_3">
     <g id="line2d_19">
      <g>
       <use style="stroke:#000000;stroke-width:0.5;" x="158.4" xlink:href="#mc024c0445a" y="573.075"/>
      </g>
     </g>
     <g id="line2d_20">
      <g>
       <use style="stroke:#000000;stroke-width:0.5;" x="1371.825" xlink:href="#mdad013d361" y="573.075"/>
      </g>
     </g>
     <g id="text_10">
      <!-- −40 -->
      <g transform="translate(91.0859375 581.353125)scale(0.3 -0.3)">
       <use xlink:href="#BitstreamVeraSans-Roman-2212"/>
       <use x="83.7890625" xlink:href="#BitstreamVeraSans-Roman-34"/>
       <use x="147.412109375" xlink:href="#BitstreamVeraSans-Roman-30"/>
      </g>
     </g>
    </g>
    <g id="ytick_4">
     <g id="line2d_21">
      <g>
       <use style="stroke:#000000;stroke-width:0.5;" x="158.4" xlink:href="#mc024c0445a" y="486.1125"/>
      </g>
     </g>
     <g id="line2d_22">
      <g>
       <use style="stroke:#000000;stroke-width:0.5;" x="1371.825" xlink:href="#mdad013d361" y="486.1125"/>
      </g>
     </g>
     <g id="text_11">
      <!-- −30 -->
      <g transform="translate(91.0859375 494.390625)scale(0.3 -0.3)">
       <use xlink:href="#BitstreamVeraSans-Roman-2212"/>
       <use x="83.7890625" xlink:href="#BitstreamVeraSans-Roman-33"/>
       <use x="147.412109375" xlink:href="#BitstreamVeraSans-Roman-30"/>
      </g>
     </g>
    </g>
    <g id="ytick_5">
     <g id="line2d_23">
      <g>
       <use style="stroke:#000000;stroke-width:0.5;" x="158.4" xlink:href="#mc024c0445a" y="399.15"/>
      </g>
     </g>
     <g id="line2d_24">
      <g>
       <use style="stroke:#000000;stroke-width:0.5;" x="1371.825" xlink:href="#mdad013d361" y="399.15"/>
      </g>
     </g>
     <g id="text_12">
      <!-- −20 -->
      <g transform="translate(91.0859375 407.428125)scale(0.3 -0.3)">
       <use xlink:href="#BitstreamVeraSans-Roman-2212"/>
       <use x="83.7890625" xlink:href="#BitstreamVeraSans-Roman-32"/>
       <use x="147.412109375" xlink:href="#BitstreamVeraSans-Roman-30"/>
      </g>
     </g>
    </g>
    <g id="ytick_6">
     <g id="line2d_25">
      <g>
       <use style="stroke:#000000;stroke-width:0.5;" x="158.4" xlink:href="#mc024c0445a" y="312.1875"/>
      </g>
     </g>
     <g id="line2d_26">
      <g>
       <use style="stroke:#000000;stroke-width:0.5;" x="1371.825" xlink:href="#mdad013d361" y="312.1875"/>
      </g>
     </g>
     <g id="text_13">
      <!-- −10 -->
      <g transform="translate(91.0859375 320.465625)scale(0.3 -0.3)">
       <use xlink:href="#BitstreamVeraSans-Roman-2212"/>
       <use x="83.7890625" xlink:href="#BitstreamVeraSans-Roman-31"/>
       <use x="147.412109375" xlink:href="#BitstreamVeraSans-Roman-30"/>
      </g>
     </g>
    </g>
    <g id="ytick_7">
     <g id="line2d_27">
      <g>
       <use style="stroke:#000000;stroke-width:0.5;" x="158.4" xlink:href="#mc024c0445a" y="225.225"/>
      </g>
     </g>
     <g id="line2d_28">
      <g>
       <use style="stroke:#000000;stroke-width:0.5;" x="1371.825" xlink:href="#mdad013d361" y="225.225"/>
      </g>
     </g>
     <g id="text_14">
      <!-- 0 -->
      <g transform="translate(135.3125 233.503125)scale(0.3 -0.3)">
       <use xlink:href="#BitstreamVeraSans-Roman-30"/>
      </g>
     </g>
    </g>
    <g id="ytick_8">
     <g id="line2d_29">
      <g>
       <use style="stroke:#000000;stroke-width:0.5;" x="158.4" xlink:href="#mc024c0445a" y="138.2625"/>
      </g>
     </g>
     <g id="line2d_30">
      <g>
       <use style="stroke:#000000;stroke-width:0.5;" x="1371.825" xlink:href="#mdad013d361" y="138.2625"/>
      </g>
     </g>
     <g id="text_15">
      <!-- 10 -->
      <g transform="translate(116.225 146.540625)scale(0.3 -0.3)">
       <use xlink:href="#BitstreamVeraSans-Roman-31"/>
       <use x="63.623046875" xlink:href="#BitstreamVeraSans-Roman-30"/>
      </g>
     </g>
    </g>
    <g id="ytick_9">
     <g id="line2d_31">
      <g>
       <use style="stroke:#000000;stroke-width:0.5;" x="158.4" xlink:href="#mc024c0445a" y="51.3"/>
      </g>
     </g>
     <g id="line2d_32">
      <g>
       <use style="stroke:#000000;stroke-width:0.5;" x="1371.825" xlink:href="#mdad013d361" y="51.3"/>
      </g>
     </g>
     <g id="text_16">
      <!-- 20 -->
      <g transform="translate(116.225 59.578125)scale(0.3 -0.3)">
       <use xlink:href="#BitstreamVeraSans-Roman-32"/>
       <use x="63.623046875" xlink:href="#BitstreamVeraSans-Roman-30"/>
      </g>
     </g>
    </g>
    <g id="text_17">
     <!-- log(loss) -->
     <defs>
      <path d="M 8.015625 75.875 
L 15.828125 75.875 
Q 23.140625 64.359375 26.78125 53.3125 
Q 30.421875 42.28125 30.421875 31.390625 
Q 30.421875 20.453125 26.78125 9.375 
Q 23.140625 -1.703125 15.828125 -13.1875 
L 8.015625 -13.1875 
Q 14.5 -2 17.703125 9.0625 
Q 20.90625 20.125 20.90625 31.390625 
Q 20.90625 42.671875 17.703125 53.65625 
Q 14.5 64.65625 8.015625 75.875 
" id="BitstreamVeraSans-Roman-29"/>
      <path d="M 31 75.875 
Q 24.46875 64.65625 21.28125 53.65625 
Q 18.109375 42.671875 18.109375 31.390625 
Q 18.109375 20.125 21.3125 9.0625 
Q 24.515625 -2 31 -13.1875 
L 23.1875 -13.1875 
Q 15.875 -1.703125 12.234375 9.375 
Q 8.59375 20.453125 8.59375 31.390625 
Q 8.59375 42.28125 12.203125 53.3125 
Q 15.828125 64.359375 23.1875 75.875 
z
" id="BitstreamVeraSans-Roman-28"/>
      <path d="M 45.40625 27.984375 
Q 45.40625 37.75 41.375 43.109375 
Q 37.359375 48.484375 30.078125 48.484375 
Q 22.859375 48.484375 18.828125 43.109375 
Q 14.796875 37.75 14.796875 27.984375 
Q 14.796875 18.265625 18.828125 12.890625 
Q 22.859375 7.515625 30.078125 7.515625 
Q 37.359375 7.515625 41.375 12.890625 
Q 45.40625 18.265625 45.40625 27.984375 
M 54.390625 6.78125 
Q 54.390625 -7.171875 48.1875 -13.984375 
Q 42 -20.796875 29.203125 -20.796875 
Q 24.46875 -20.796875 20.265625 -20.09375 
Q 16.0625 -19.390625 12.109375 -17.921875 
L 12.109375 -9.1875 
Q 16.0625 -11.328125 19.921875 -12.34375 
Q 23.78125 -13.375 27.78125 -13.375 
Q 36.625 -13.375 41.015625 -8.765625 
Q 45.40625 -4.15625 45.40625 5.171875 
L 45.40625 9.625 
Q 42.625 4.78125 38.28125 2.390625 
Q 33.9375 0 27.875 0 
Q 17.828125 0 11.671875 7.65625 
Q 5.515625 15.328125 5.515625 27.984375 
Q 5.515625 40.671875 11.671875 48.328125 
Q 17.828125 56 27.875 56 
Q 33.9375 56 38.28125 53.609375 
Q 42.625 51.21875 45.40625 46.390625 
L 45.40625 54.6875 
L 54.390625 54.6875 
z
" id="BitstreamVeraSans-Roman-67"/>
      <path d="M 9.421875 75.984375 
L 18.40625 75.984375 
L 18.40625 0 
L 9.421875 0 
z
" id="BitstreamVeraSans-Roman-6c"/>
     </defs>
     <g transform="translate(79.846875 462.69609375)rotate(-90.0)scale(0.3 -0.3)">
      <use xlink:href="#BitstreamVeraSans-Roman-6c"/>
      <use x="27.783203125" xlink:href="#BitstreamVeraSans-Roman-6f"/>
      <use x="88.96484375" xlink:href="#BitstreamVeraSans-Roman-67"/>
      <use x="152.44140625" xlink:href="#BitstreamVeraSans-Roman-28"/>
      <use x="191.455078125" xlink:href="#BitstreamVeraSans-Roman-6c"/>
      <use x="219.23828125" xlink:href="#BitstreamVeraSans-Roman-6f"/>
      <use x="280.419921875" xlink:href="#BitstreamVeraSans-Roman-73"/>
      <use x="332.51953125" xlink:href="#BitstreamVeraSans-Roman-73"/>
      <use x="384.619140625" xlink:href="#BitstreamVeraSans-Roman-29"/>
     </g>
    </g>
   </g>
   <g id="legend_1">
    <g id="patch_7">
     <path d="M 879.651562 163.36875 
L 1356.825 163.36875 
L 1356.825 66.3 
L 879.651562 66.3 
z
" style="fill:#ffffff;stroke:#000000;stroke-linejoin:miter;"/>
    </g>
    <g id="line2d_33">
     <path d="M 900.651562 90.595312 
L 942.651562 90.595312 
" style="fill:none;stroke:#0000ff;stroke-linecap:square;stroke-width:2.0;"/>
    </g>
    <g id="line2d_34"/>
    <g id="text_18">
     <!-- random: step=0.004893 -->
     <defs>
      <path id="BitstreamVeraSans-Roman-20"/>
      <path d="M 52 44.1875 
Q 55.375 50.25 60.0625 53.125 
Q 64.75 56 71.09375 56 
Q 79.640625 56 84.28125 50.015625 
Q 88.921875 44.046875 88.921875 33.015625 
L 88.921875 0 
L 79.890625 0 
L 79.890625 32.71875 
Q 79.890625 40.578125 77.09375 44.375 
Q 74.3125 48.1875 68.609375 48.1875 
Q 61.625 48.1875 57.5625 43.546875 
Q 53.515625 38.921875 53.515625 30.90625 
L 53.515625 0 
L 44.484375 0 
L 44.484375 32.71875 
Q 44.484375 40.625 41.703125 44.40625 
Q 38.921875 48.1875 33.109375 48.1875 
Q 26.21875 48.1875 22.15625 43.53125 
Q 18.109375 38.875 18.109375 30.90625 
L 18.109375 0 
L 9.078125 0 
L 9.078125 54.6875 
L 18.109375 54.6875 
L 18.109375 46.1875 
Q 21.1875 51.21875 25.484375 53.609375 
Q 29.78125 56 35.6875 56 
Q 41.65625 56 45.828125 52.96875 
Q 50 49.953125 52 44.1875 
" id="BitstreamVeraSans-Roman-6d"/>
      <path d="M 31.78125 34.625 
Q 24.75 34.625 20.71875 30.859375 
Q 16.703125 27.09375 16.703125 20.515625 
Q 16.703125 13.921875 20.71875 10.15625 
Q 24.75 6.390625 31.78125 6.390625 
Q 38.8125 6.390625 42.859375 10.171875 
Q 46.921875 13.96875 46.921875 20.515625 
Q 46.921875 27.09375 42.890625 30.859375 
Q 38.875 34.625 31.78125 34.625 
M 21.921875 38.8125 
Q 15.578125 40.375 12.03125 44.71875 
Q 8.5 49.078125 8.5 55.328125 
Q 8.5 64.0625 14.71875 69.140625 
Q 20.953125 74.21875 31.78125 74.21875 
Q 42.671875 74.21875 48.875 69.140625 
Q 55.078125 64.0625 55.078125 55.328125 
Q 55.078125 49.078125 51.53125 44.71875 
Q 48 40.375 41.703125 38.8125 
Q 48.828125 37.15625 52.796875 32.3125 
Q 56.78125 27.484375 56.78125 20.515625 
Q 56.78125 9.90625 50.3125 4.234375 
Q 43.84375 -1.421875 31.78125 -1.421875 
Q 19.734375 -1.421875 13.25 4.234375 
Q 6.78125 9.90625 6.78125 20.515625 
Q 6.78125 27.484375 10.78125 32.3125 
Q 14.796875 37.15625 21.921875 38.8125 
M 18.3125 54.390625 
Q 18.3125 48.734375 21.84375 45.5625 
Q 25.390625 42.390625 31.78125 42.390625 
Q 38.140625 42.390625 41.71875 45.5625 
Q 45.3125 48.734375 45.3125 54.390625 
Q 45.3125 60.0625 41.71875 63.234375 
Q 38.140625 66.40625 31.78125 66.40625 
Q 25.390625 66.40625 21.84375 63.234375 
Q 18.3125 60.0625 18.3125 54.390625 
" id="BitstreamVeraSans-Roman-38"/>
      <path d="M 10.984375 1.515625 
L 10.984375 10.5 
Q 14.703125 8.734375 18.5 7.8125 
Q 22.3125 6.890625 25.984375 6.890625 
Q 35.75 6.890625 40.890625 13.453125 
Q 46.046875 20.015625 46.78125 33.40625 
Q 43.953125 29.203125 39.59375 26.953125 
Q 35.25 24.703125 29.984375 24.703125 
Q 19.046875 24.703125 12.671875 31.3125 
Q 6.296875 37.9375 6.296875 49.421875 
Q 6.296875 60.640625 12.9375 67.421875 
Q 19.578125 74.21875 30.609375 74.21875 
Q 43.265625 74.21875 49.921875 64.515625 
Q 56.59375 54.828125 56.59375 36.375 
Q 56.59375 19.140625 48.40625 8.859375 
Q 40.234375 -1.421875 26.421875 -1.421875 
Q 22.703125 -1.421875 18.890625 -0.6875 
Q 15.09375 0.046875 10.984375 1.515625 
M 30.609375 32.421875 
Q 37.25 32.421875 41.125 36.953125 
Q 45.015625 41.5 45.015625 49.421875 
Q 45.015625 57.28125 41.125 61.84375 
Q 37.25 66.40625 30.609375 66.40625 
Q 23.96875 66.40625 20.09375 61.84375 
Q 16.21875 57.28125 16.21875 49.421875 
Q 16.21875 41.5 20.09375 36.953125 
Q 23.96875 32.421875 30.609375 32.421875 
" id="BitstreamVeraSans-Roman-39"/>
      <path d="M 11.71875 12.40625 
L 22.015625 12.40625 
L 22.015625 0 
L 11.71875 0 
z
M 11.71875 51.703125 
L 22.015625 51.703125 
L 22.015625 39.3125 
L 11.71875 39.3125 
z
" id="BitstreamVeraSans-Roman-3a"/>
      <path d="M 10.6875 12.40625 
L 21 12.40625 
L 21 0 
L 10.6875 0 
z
" id="BitstreamVeraSans-Roman-2e"/>
      <path d="M 10.59375 45.40625 
L 73.1875 45.40625 
L 73.1875 37.203125 
L 10.59375 37.203125 
z
M 10.59375 25.484375 
L 73.1875 25.484375 
L 73.1875 17.1875 
L 10.59375 17.1875 
z
" id="BitstreamVeraSans-Roman-3d"/>
      <path d="M 45.40625 46.390625 
L 45.40625 75.984375 
L 54.390625 75.984375 
L 54.390625 0 
L 45.40625 0 
L 45.40625 8.203125 
Q 42.578125 3.328125 38.25 0.953125 
Q 33.9375 -1.421875 27.875 -1.421875 
Q 17.96875 -1.421875 11.734375 6.484375 
Q 5.515625 14.40625 5.515625 27.296875 
Q 5.515625 40.1875 11.734375 48.09375 
Q 17.96875 56 27.875 56 
Q 33.9375 56 38.25 53.625 
Q 42.578125 51.265625 45.40625 46.390625 
M 14.796875 27.296875 
Q 14.796875 17.390625 18.875 11.75 
Q 22.953125 6.109375 30.078125 6.109375 
Q 37.203125 6.109375 41.296875 11.75 
Q 45.40625 17.390625 45.40625 27.296875 
Q 45.40625 37.203125 41.296875 42.84375 
Q 37.203125 48.484375 30.078125 48.484375 
Q 22.953125 48.484375 18.875 42.84375 
Q 14.796875 37.203125 14.796875 27.296875 
" id="BitstreamVeraSans-Roman-64"/>
      <path d="M 18.109375 8.203125 
L 18.109375 -20.796875 
L 9.078125 -20.796875 
L 9.078125 54.6875 
L 18.109375 54.6875 
L 18.109375 46.390625 
Q 20.953125 51.265625 25.265625 53.625 
Q 29.59375 56 35.59375 56 
Q 45.5625 56 51.78125 48.09375 
Q 58.015625 40.1875 58.015625 27.296875 
Q 58.015625 14.40625 51.78125 6.484375 
Q 45.5625 -1.421875 35.59375 -1.421875 
Q 29.59375 -1.421875 25.265625 0.953125 
Q 20.953125 3.328125 18.109375 8.203125 
M 48.6875 27.296875 
Q 48.6875 37.203125 44.609375 42.84375 
Q 40.53125 48.484375 33.40625 48.484375 
Q 26.265625 48.484375 22.1875 42.84375 
Q 18.109375 37.203125 18.109375 27.296875 
Q 18.109375 17.390625 22.1875 11.75 
Q 26.265625 6.109375 33.40625 6.109375 
Q 40.53125 6.109375 44.609375 11.75 
Q 48.6875 17.390625 48.6875 27.296875 
" id="BitstreamVeraSans-Roman-70"/>
     </defs>
     <g transform="translate(975.6515625 101.0953125)scale(0.3 -0.3)">
      <use xlink:href="#BitstreamVeraSans-Roman-72"/>
      <use x="41.11328125" xlink:href="#BitstreamVeraSans-Roman-61"/>
      <use x="102.392578125" xlink:href="#BitstreamVeraSans-Roman-6e"/>
      <use x="165.771484375" xlink:href="#BitstreamVeraSans-Roman-64"/>
      <use x="229.248046875" xlink:href="#BitstreamVeraSans-Roman-6f"/>
      <use x="290.4296875" xlink:href="#BitstreamVeraSans-Roman-6d"/>
      <use x="387.841796875" xlink:href="#BitstreamVeraSans-Roman-3a"/>
      <use x="421.533203125" xlink:href="#BitstreamVeraSans-Roman-20"/>
      <use x="453.3203125" xlink:href="#BitstreamVeraSans-Roman-73"/>
      <use x="505.419921875" xlink:href="#BitstreamVeraSans-Roman-74"/>
      <use x="544.62890625" xlink:href="#BitstreamVeraSans-Roman-65"/>
      <use x="606.15234375" xlink:href="#BitstreamVeraSans-Roman-70"/>
      <use x="669.62890625" xlink:href="#BitstreamVeraSans-Roman-3d"/>
      <use x="753.41796875" xlink:href="#BitstreamVeraSans-Roman-30"/>
      <use x="817.041015625" xlink:href="#BitstreamVeraSans-Roman-2e"/>
      <use x="848.828125" xlink:href="#BitstreamVeraSans-Roman-30"/>
      <use x="912.451171875" xlink:href="#BitstreamVeraSans-Roman-30"/>
      <use x="976.07421875" xlink:href="#BitstreamVeraSans-Roman-34"/>
      <use x="1039.69726562" xlink:href="#BitstreamVeraSans-Roman-38"/>
      <use x="1103.3203125" xlink:href="#BitstreamVeraSans-Roman-39"/>
      <use x="1166.94335938" xlink:href="#BitstreamVeraSans-Roman-33"/>
     </g>
    </g>
    <g id="line2d_35">
     <path d="M 900.651562 134.629687 
L 942.651562 134.629687 
" style="fill:none;stroke:#008000;stroke-linecap:square;stroke-width:2.0;"/>
    </g>
    <g id="line2d_36"/>
    <g id="text_19">
     <!-- corr: step=0.004893 -->
     <defs>
      <path d="M 48.78125 52.59375 
L 48.78125 44.1875 
Q 44.96875 46.296875 41.140625 47.34375 
Q 37.3125 48.390625 33.40625 48.390625 
Q 24.65625 48.390625 19.8125 42.84375 
Q 14.984375 37.3125 14.984375 27.296875 
Q 14.984375 17.28125 19.8125 11.734375 
Q 24.65625 6.203125 33.40625 6.203125 
Q 37.3125 6.203125 41.140625 7.25 
Q 44.96875 8.296875 48.78125 10.40625 
L 48.78125 2.09375 
Q 45.015625 0.34375 40.984375 -0.53125 
Q 36.96875 -1.421875 32.421875 -1.421875 
Q 20.0625 -1.421875 12.78125 6.34375 
Q 5.515625 14.109375 5.515625 27.296875 
Q 5.515625 40.671875 12.859375 48.328125 
Q 20.21875 56 33.015625 56 
Q 37.15625 56 41.109375 55.140625 
Q 45.0625 54.296875 48.78125 52.59375 
" id="BitstreamVeraSans-Roman-63"/>
     </defs>
     <g transform="translate(975.6515625 145.1296875)scale(0.3 -0.3)">
      <use xlink:href="#BitstreamVeraSans-Roman-63"/>
      <use x="54.98046875" xlink:href="#BitstreamVeraSans-Roman-6f"/>
      <use x="116.162109375" xlink:href="#BitstreamVeraSans-Roman-72"/>
      <use x="157.259765625" xlink:href="#BitstreamVeraSans-Roman-72"/>
      <use x="198.357421875" xlink:href="#BitstreamVeraSans-Roman-3a"/>
      <use x="232.048828125" xlink:href="#BitstreamVeraSans-Roman-20"/>
      <use x="263.8359375" xlink:href="#BitstreamVeraSans-Roman-73"/>
      <use x="315.935546875" xlink:href="#BitstreamVeraSans-Roman-74"/>
      <use x="355.14453125" xlink:href="#BitstreamVeraSans-Roman-65"/>
      <use x="416.66796875" xlink:href="#BitstreamVeraSans-Roman-70"/>
      <use x="480.14453125" xlink:href="#BitstreamVeraSans-Roman-3d"/>
      <use x="563.93359375" xlink:href="#BitstreamVeraSans-Roman-30"/>
      <use x="627.556640625" xlink:href="#BitstreamVeraSans-Roman-2e"/>
      <use x="659.34375" xlink:href="#BitstreamVeraSans-Roman-30"/>
      <use x="722.966796875" xlink:href="#BitstreamVeraSans-Roman-30"/>
      <use x="786.58984375" xlink:href="#BitstreamVeraSans-Roman-34"/>
      <use x="850.212890625" xlink:href="#BitstreamVeraSans-Roman-38"/>
      <use x="913.8359375" xlink:href="#BitstreamVeraSans-Roman-39"/>
      <use x="977.458984375" xlink:href="#BitstreamVeraSans-Roman-33"/>
     </g>
    </g>
   </g>
  </g>
 </g>
 <defs>
  <clipPath id="p8f9f82c946">
   <rect height="695.7" width="1213.425" x="158.4" y="51.3"/>
  </clipPath>
 </defs>
</svg>
