<?xml version="1.0" encoding="utf-8" standalone="no"?>
<!DOCTYPE svg PUBLIC "-//W3C//DTD SVG 1.1//EN"
  "http://www.w3.org/Graphics/SVG/1.1/DTD/svg11.dtd">
<!-- Created with matplotlib (http://matplotlib.org/) -->
<svg height="864pt" version="1.1" viewBox="0 0 1440 864" width="1440pt" xmlns="http://www.w3.org/2000/svg" xmlns:xlink="http://www.w3.org/1999/xlink">
 <defs>
  <style type="text/css">
*{stroke-linecap:butt;stroke-linejoin:round;stroke-miterlimit:100000;}
  </style>
 </defs>
 <g id="figure_1">
  <g id="patch_1">
   <path d="M 0 864 
L 1440 864 
L 1440 0 
L 0 0 
z
" style="fill:#ffffff;"/>
  </g>
  <g id="axes_1">
   <g id="patch_2">
    <path d="M 93.382656 770.338125 
L 1381.831875 770.338125 
L 1381.831875 57.915781 
L 93.382656 57.915781 
z
" style="fill:#ffffff;"/>
   </g>
   <g id="line2d_1">
    <path clip-path="url(#p434451869d)" d="M 93.382656 139.426044 
L 106.267148 145.494604 
L 112.709395 148.668793 
L 132.036133 156.780233 
L 138.478379 159.920363 
L 144.920625 162.678103 
L 157.805117 168.670377 
L 164.247363 171.482424 
L 183.574102 179.307814 
L 190.016348 182.110438 
L 196.458594 185.251783 
L 202.90084 187.923405 
L 215.785332 193.839829 
L 222.227578 196.542511 
L 228.669824 199.400226 
L 235.11207 202.097604 
L 241.554316 204.426707 
L 247.996563 207.893599 
L 254.438809 210.395661 
L 267.323301 215.636687 
L 273.765547 218.975164 
L 280.207793 221.585226 
L 293.092285 227.267572 
L 299.534531 230.351436 
L 305.976777 232.825271 
L 325.303516 241.033455 
L 331.745762 243.279151 
L 338.188008 246.030741 
L 344.630254 248.362573 
L 363.956992 257.230007 
L 370.399238 259.975051 
L 383.28373 265.142305 
L 389.725977 268.166931 
L 396.168223 270.720926 
L 402.610469 273.940729 
L 409.052715 276.879955 
L 415.494961 279.193719 
L 421.937207 282.349453 
L 428.379453 284.914095 
L 441.263945 290.401844 
L 454.148438 295.903248 
L 460.590684 298.248347 
L 467.03293 301.52367 
L 473.475176 304.271752 
L 479.917422 307.365411 
L 486.359668 309.569625 
L 505.686406 317.37093 
L 512.128652 319.60939 
L 531.455391 326.911072 
L 537.897637 328.964523 
L 544.339883 331.873656 
L 563.666621 339.212856 
L 570.108867 341.974058 
L 576.551113 344.550626 
L 582.993359 347.481368 
L 589.435605 349.826892 
L 595.877852 352.046185 
L 602.320098 354.555345 
L 608.762344 357.356854 
L 615.20459 359.74825 
L 621.646836 361.979754 
L 634.531328 367.00739 
L 647.41582 372.909659 
L 653.858066 375.634709 
L 673.184805 383.310426 
L 679.627051 385.397496 
L 686.069297 387.678478 
L 692.511543 390.752386 
L 698.953789 393.681085 
L 705.396035 395.721356 
L 711.838281 397.940426 
L 718.280527 400.360807 
L 731.16502 404.803504 
L 737.607266 407.679457 
L 744.049512 410.987718 
L 750.491758 413.251543 
L 756.934004 416.145385 
L 763.37625 419.19525 
L 782.702988 427.152588 
L 802.029727 434.53603 
L 808.471973 436.601432 
L 814.914219 439.432271 
L 821.356465 442.015229 
L 834.240957 446.886556 
L 840.683203 449.724095 
L 847.125449 452.188361 
L 853.567695 454.326039 
L 860.009941 456.840081 
L 866.452188 459.807313 
L 872.894434 462.47743 
L 879.33668 464.832797 
L 892.221172 469.790042 
L 898.663418 472.118368 
L 911.54791 477.540795 
L 924.432402 481.848865 
L 930.874648 484.511976 
L 943.759141 489.409372 
L 950.201387 492.265237 
L 975.970371 502.112023 
L 995.297109 509.864925 
L 1001.739355 512.609724 
L 1008.181602 514.651194 
L 1014.623848 517.293934 
L 1027.50834 522.330684 
L 1040.392832 527.459868 
L 1046.835078 529.526218 
L 1053.277324 532.386145 
L 1059.71957 535.01399 
L 1066.161816 537.172513 
L 1072.604063 539.55357 
L 1079.046309 541.60476 
L 1091.930801 547.085284 
L 1098.373047 548.962594 
L 1104.815293 551.234443 
L 1117.699785 556.173434 
L 1124.142031 558.504772 
L 1130.584277 560.518653 
L 1143.46877 565.945954 
L 1149.911016 567.847024 
L 1175.68 578.090055 
L 1182.122246 580.411183 
L 1188.564492 583.507303 
L 1201.448984 588.7116 
L 1207.89123 590.910907 
L 1214.333477 593.744568 
L 1220.775723 596.228704 
L 1227.217969 598.979833 
L 1233.660215 601.461026 
L 1246.544707 607.089232 
L 1259.429199 611.833115 
L 1265.871445 614.150101 
L 1272.313691 616.871191 
L 1278.755938 619.446277 
L 1285.198184 621.438401 
L 1291.64043 623.810993 
L 1298.082676 626.604423 
L 1304.524922 628.706533 
L 1310.967168 631.717629 
L 1317.409414 634.442074 
L 1323.85166 636.372929 
L 1330.293906 638.590014 
L 1336.736152 640.597576 
L 1343.178398 642.849566 
L 1349.620645 644.595436 
L 1368.947383 652.685415 
L 1375.389629 655.295826 
L 1375.389629 655.295826 
" style="fill:none;stroke:#0000ff;stroke-linecap:square;stroke-width:2.0;"/>
   </g>
   <g id="line2d_2">
    <path clip-path="url(#p434451869d)" d="M 93.382656 139.127975 
L 99.824902 142.179125 
L 106.267148 144.945934 
L 112.709395 148.062654 
L 119.151641 150.791165 
L 125.593887 153.841707 
L 138.478379 159.048808 
L 144.920625 162.482444 
L 151.362871 165.019291 
L 157.805117 168.270194 
L 164.247363 171.184443 
L 170.689609 173.826888 
L 177.131855 177.007725 
L 183.574102 180.371934 
L 196.458594 186.568218 
L 202.90084 189.558087 
L 209.343086 192.219293 
L 215.785332 195.203814 
L 228.669824 200.797599 
L 235.11207 203.491632 
L 241.554316 206.606678 
L 247.996563 209.413607 
L 254.438809 212.077483 
L 267.323301 218.045571 
L 273.765547 220.4067 
L 280.207793 222.482914 
L 293.092285 228.084648 
L 299.534531 230.554298 
L 305.976777 233.228422 
L 312.419023 236.312742 
L 318.86127 238.257315 
L 325.303516 241.05371 
L 331.745762 244.181292 
L 338.188008 247.006625 
L 344.630254 249.577344 
L 351.0725 252.337893 
L 357.514746 254.838333 
L 363.956992 257.635005 
L 370.399238 260.576933 
L 376.841484 263.339713 
L 383.28373 266.319105 
L 389.725977 269.024261 
L 396.168223 271.520032 
L 402.610469 274.315785 
L 409.052715 276.671856 
L 421.937207 282.365341 
L 428.379453 285.655946 
L 434.821699 288.128758 
L 441.263945 290.403584 
L 447.706191 293.073097 
L 454.148438 295.204085 
L 460.590684 297.8896 
L 467.03293 300.874535 
L 473.475176 303.612696 
L 479.917422 305.903025 
L 486.359668 308.43222 
L 492.801914 311.353502 
L 512.128652 317.966987 
L 518.570898 320.922926 
L 531.455391 325.339425 
L 537.897637 328.023518 
L 544.339883 330.469934 
L 550.782129 333.041701 
L 557.224375 335.323102 
L 563.666621 338.49703 
L 570.108867 341.20932 
L 576.551113 343.521264 
L 582.993359 346.955598 
L 589.435605 349.195171 
L 595.877852 351.75734 
L 602.320098 355.05635 
L 615.20459 359.5068 
L 621.646836 361.46436 
L 628.089082 364.092111 
L 634.531328 367.173659 
L 640.973574 369.48315 
L 647.41582 372.564018 
L 653.858066 375.454792 
L 666.742559 380.170933 
L 673.184805 382.781409 
L 679.627051 385.056813 
L 686.069297 387.977686 
L 705.396035 395.890471 
L 711.838281 398.20527 
L 718.280527 401.057751 
L 724.722773 403.516442 
L 737.607266 407.824442 
L 750.491758 413.654127 
L 769.818496 420.855995 
L 776.260742 423.830082 
L 782.702988 426.023132 
L 789.145234 428.677612 
L 802.029727 432.956646 
L 808.471973 435.46437 
L 814.914219 437.709523 
L 821.356465 440.311338 
L 827.798711 442.55913 
L 834.240957 445.056411 
L 840.683203 447.334022 
L 847.125449 449.844701 
L 860.009941 454.395528 
L 866.452188 456.378606 
L 872.894434 458.842851 
L 879.33668 461.025762 
L 885.778926 463.540453 
L 898.663418 469.358586 
L 905.105664 471.719702 
L 911.54791 474.346988 
L 917.990156 476.740515 
L 930.874648 481.810289 
L 937.316895 484.047046 
L 943.759141 486.729166 
L 956.643633 491.93846 
L 963.085879 494.085536 
L 988.854863 503.724013 
L 995.297109 505.961557 
L 1008.181602 510.792349 
L 1014.623848 513.532375 
L 1021.066094 515.51765 
L 1033.950586 521.000461 
L 1040.392832 523.408655 
L 1046.835078 526.194161 
L 1053.277324 528.19051 
L 1059.71957 531.118996 
L 1066.161816 533.909122 
L 1072.604063 536.527638 
L 1085.488555 540.998921 
L 1091.930801 542.961418 
L 1104.815293 547.689558 
L 1111.257539 550.292488 
L 1117.699785 552.508667 
L 1130.584277 557.513958 
L 1143.46877 561.976288 
L 1149.911016 564.469494 
L 1156.353262 567.2459 
L 1162.795508 569.640235 
L 1169.237754 572.520845 
L 1175.68 574.922722 
L 1201.448984 584.102254 
L 1207.89123 586.72089 
L 1214.333477 588.901379 
L 1220.775723 591.370373 
L 1227.217969 593.595831 
L 1233.660215 596.182118 
L 1240.102461 598.388368 
L 1246.544707 601.054964 
L 1252.986953 603.450675 
L 1259.429199 606.407725 
L 1265.871445 608.537766 
L 1272.313691 611.315808 
L 1278.755938 613.289533 
L 1285.198184 615.444447 
L 1298.082676 621.104923 
L 1304.524922 623.363006 
L 1310.967168 626.498319 
L 1317.409414 629.025016 
L 1330.293906 633.363462 
L 1336.736152 636.307583 
L 1343.178398 638.515524 
L 1356.062891 643.967944 
L 1362.505137 646.782469 
L 1375.389629 651.666067 
L 1375.389629 651.666067 
" style="fill:none;stroke:#008000;stroke-linecap:square;stroke-width:2.0;"/>
   </g>
   <g id="patch_3">
    <path d="M 93.382656 57.915781 
L 1381.831875 57.915781 
" style="fill:none;stroke:#000000;stroke-linecap:square;stroke-linejoin:miter;"/>
   </g>
   <g id="patch_4">
    <path d="M 1381.831875 770.338125 
L 1381.831875 57.915781 
" style="fill:none;stroke:#000000;stroke-linecap:square;stroke-linejoin:miter;"/>
   </g>
   <g id="patch_5">
    <path d="M 93.382656 770.338125 
L 1381.831875 770.338125 
" style="fill:none;stroke:#000000;stroke-linecap:square;stroke-linejoin:miter;"/>
   </g>
   <g id="patch_6">
    <path d="M 93.382656 770.338125 
L 93.382656 57.915781 
" style="fill:none;stroke:#000000;stroke-linecap:square;stroke-linejoin:miter;"/>
   </g>
   <g id="matplotlib.axis_1">
    <g id="xtick_1">
     <g id="line2d_3">
      <defs>
       <path d="M 0 0 
L 0 -4 
" id="mbb12b9674e" style="stroke:#000000;stroke-width:0.5;"/>
      </defs>
      <g>
       <use style="stroke:#000000;stroke-width:0.5;" x="93.38265625" xlink:href="#mbb12b9674e" y="770.338125"/>
      </g>
     </g>
     <g id="line2d_4">
      <defs>
       <path d="M 0 0 
L 0 4 
" id="m6e2c78d069" style="stroke:#000000;stroke-width:0.5;"/>
      </defs>
      <g>
       <use style="stroke:#000000;stroke-width:0.5;" x="93.38265625" xlink:href="#m6e2c78d069" y="57.91578125"/>
      </g>
     </g>
     <g id="text_1">
      <!-- 0 -->
      <defs>
       <path d="M 31.78125 66.40625 
Q 24.171875 66.40625 20.328125 58.90625 
Q 16.5 51.421875 16.5 36.375 
Q 16.5 21.390625 20.328125 13.890625 
Q 24.171875 6.390625 31.78125 6.390625 
Q 39.453125 6.390625 43.28125 13.890625 
Q 47.125 21.390625 47.125 36.375 
Q 47.125 51.421875 43.28125 58.90625 
Q 39.453125 66.40625 31.78125 66.40625 
M 31.78125 74.21875 
Q 44.046875 74.21875 50.515625 64.515625 
Q 56.984375 54.828125 56.984375 36.375 
Q 56.984375 17.96875 50.515625 8.265625 
Q 44.046875 -1.421875 31.78125 -1.421875 
Q 19.53125 -1.421875 13.0625 8.265625 
Q 6.59375 17.96875 6.59375 36.375 
Q 6.59375 54.828125 13.0625 64.515625 
Q 19.53125 74.21875 31.78125 74.21875 
" id="BitstreamVeraSans-Roman-30"/>
      </defs>
      <g transform="translate(83.83890625 797.1334375)scale(0.3 -0.3)">
       <use xlink:href="#BitstreamVeraSans-Roman-30"/>
      </g>
     </g>
    </g>
    <g id="xtick_2">
     <g id="line2d_5">
      <g>
       <use style="stroke:#000000;stroke-width:0.5;" x="415.494960938" xlink:href="#mbb12b9674e" y="770.338125"/>
      </g>
     </g>
     <g id="line2d_6">
      <g>
       <use style="stroke:#000000;stroke-width:0.5;" x="415.494960938" xlink:href="#m6e2c78d069" y="57.91578125"/>
      </g>
     </g>
     <g id="text_2">
      <!-- 50 -->
      <defs>
       <path d="M 10.796875 72.90625 
L 49.515625 72.90625 
L 49.515625 64.59375 
L 19.828125 64.59375 
L 19.828125 46.734375 
Q 21.96875 47.46875 24.109375 47.828125 
Q 26.265625 48.1875 28.421875 48.1875 
Q 40.625 48.1875 47.75 41.5 
Q 54.890625 34.8125 54.890625 23.390625 
Q 54.890625 11.625 47.5625 5.09375 
Q 40.234375 -1.421875 26.90625 -1.421875 
Q 22.3125 -1.421875 17.546875 -0.640625 
Q 12.796875 0.140625 7.71875 1.703125 
L 7.71875 11.625 
Q 12.109375 9.234375 16.796875 8.0625 
Q 21.484375 6.890625 26.703125 6.890625 
Q 35.15625 6.890625 40.078125 11.328125 
Q 45.015625 15.765625 45.015625 23.390625 
Q 45.015625 31 40.078125 35.4375 
Q 35.15625 39.890625 26.703125 39.890625 
Q 22.75 39.890625 18.8125 39.015625 
Q 14.890625 38.140625 10.796875 36.28125 
z
" id="BitstreamVeraSans-Roman-35"/>
      </defs>
      <g transform="translate(396.407460938 797.1334375)scale(0.3 -0.3)">
       <use xlink:href="#BitstreamVeraSans-Roman-35"/>
       <use x="63.623046875" xlink:href="#BitstreamVeraSans-Roman-30"/>
      </g>
     </g>
    </g>
    <g id="xtick_3">
     <g id="line2d_7">
      <g>
       <use style="stroke:#000000;stroke-width:0.5;" x="737.607265625" xlink:href="#mbb12b9674e" y="770.338125"/>
      </g>
     </g>
     <g id="line2d_8">
      <g>
       <use style="stroke:#000000;stroke-width:0.5;" x="737.607265625" xlink:href="#m6e2c78d069" y="57.91578125"/>
      </g>
     </g>
     <g id="text_3">
      <!-- 100 -->
      <defs>
       <path d="M 12.40625 8.296875 
L 28.515625 8.296875 
L 28.515625 63.921875 
L 10.984375 60.40625 
L 10.984375 69.390625 
L 28.421875 72.90625 
L 38.28125 72.90625 
L 38.28125 8.296875 
L 54.390625 8.296875 
L 54.390625 0 
L 12.40625 0 
z
" id="BitstreamVeraSans-Roman-31"/>
      </defs>
      <g transform="translate(708.976015625 797.1334375)scale(0.3 -0.3)">
       <use xlink:href="#BitstreamVeraSans-Roman-31"/>
       <use x="63.623046875" xlink:href="#BitstreamVeraSans-Roman-30"/>
       <use x="127.24609375" xlink:href="#BitstreamVeraSans-Roman-30"/>
      </g>
     </g>
    </g>
    <g id="xtick_4">
     <g id="line2d_9">
      <g>
       <use style="stroke:#000000;stroke-width:0.5;" x="1059.71957031" xlink:href="#mbb12b9674e" y="770.338125"/>
      </g>
     </g>
     <g id="line2d_10">
      <g>
       <use style="stroke:#000000;stroke-width:0.5;" x="1059.71957031" xlink:href="#m6e2c78d069" y="57.91578125"/>
      </g>
     </g>
     <g id="text_4">
      <!-- 150 -->
      <g transform="translate(1031.08832031 797.1334375)scale(0.3 -0.3)">
       <use xlink:href="#BitstreamVeraSans-Roman-31"/>
       <use x="63.623046875" xlink:href="#BitstreamVeraSans-Roman-35"/>
       <use x="127.24609375" xlink:href="#BitstreamVeraSans-Roman-30"/>
      </g>
     </g>
    </g>
    <g id="xtick_5">
     <g id="line2d_11">
      <g>
       <use style="stroke:#000000;stroke-width:0.5;" x="1381.831875" xlink:href="#mbb12b9674e" y="770.338125"/>
      </g>
     </g>
     <g id="line2d_12">
      <g>
       <use style="stroke:#000000;stroke-width:0.5;" x="1381.831875" xlink:href="#m6e2c78d069" y="57.91578125"/>
      </g>
     </g>
     <g id="text_5">
      <!-- 200 -->
      <defs>
       <path d="M 19.1875 8.296875 
L 53.609375 8.296875 
L 53.609375 0 
L 7.328125 0 
L 7.328125 8.296875 
Q 12.9375 14.109375 22.625 23.890625 
Q 32.328125 33.6875 34.8125 36.53125 
Q 39.546875 41.84375 41.421875 45.53125 
Q 43.3125 49.21875 43.3125 52.78125 
Q 43.3125 58.59375 39.234375 62.25 
Q 35.15625 65.921875 28.609375 65.921875 
Q 23.96875 65.921875 18.8125 64.3125 
Q 13.671875 62.703125 7.8125 59.421875 
L 7.8125 69.390625 
Q 13.765625 71.78125 18.9375 73 
Q 24.125 74.21875 28.421875 74.21875 
Q 39.75 74.21875 46.484375 68.546875 
Q 53.21875 62.890625 53.21875 53.421875 
Q 53.21875 48.921875 51.53125 44.890625 
Q 49.859375 40.875 45.40625 35.40625 
Q 44.1875 33.984375 37.640625 27.21875 
Q 31.109375 20.453125 19.1875 8.296875 
" id="BitstreamVeraSans-Roman-32"/>
      </defs>
      <g transform="translate(1353.200625 797.1334375)scale(0.3 -0.3)">
       <use xlink:href="#BitstreamVeraSans-Roman-32"/>
       <use x="63.623046875" xlink:href="#BitstreamVeraSans-Roman-30"/>
       <use x="127.24609375" xlink:href="#BitstreamVeraSans-Roman-30"/>
      </g>
     </g>
    </g>
    <g id="text_6">
     <!-- iterations -->
     <defs>
      <path d="M 54.890625 33.015625 
L 54.890625 0 
L 45.90625 0 
L 45.90625 32.71875 
Q 45.90625 40.484375 42.875 44.328125 
Q 39.84375 48.1875 33.796875 48.1875 
Q 26.515625 48.1875 22.3125 43.546875 
Q 18.109375 38.921875 18.109375 30.90625 
L 18.109375 0 
L 9.078125 0 
L 9.078125 54.6875 
L 18.109375 54.6875 
L 18.109375 46.1875 
Q 21.34375 51.125 25.703125 53.5625 
Q 30.078125 56 35.796875 56 
Q 45.21875 56 50.046875 50.171875 
Q 54.890625 44.34375 54.890625 33.015625 
" id="BitstreamVeraSans-Roman-6e"/>
      <path d="M 34.28125 27.484375 
Q 23.390625 27.484375 19.1875 25 
Q 14.984375 22.515625 14.984375 16.5 
Q 14.984375 11.71875 18.140625 8.90625 
Q 21.296875 6.109375 26.703125 6.109375 
Q 34.1875 6.109375 38.703125 11.40625 
Q 43.21875 16.703125 43.21875 25.484375 
L 43.21875 27.484375 
z
M 52.203125 31.203125 
L 52.203125 0 
L 43.21875 0 
L 43.21875 8.296875 
Q 40.140625 3.328125 35.546875 0.953125 
Q 30.953125 -1.421875 24.3125 -1.421875 
Q 15.921875 -1.421875 10.953125 3.296875 
Q 6 8.015625 6 15.921875 
Q 6 25.140625 12.171875 29.828125 
Q 18.359375 34.515625 30.609375 34.515625 
L 43.21875 34.515625 
L 43.21875 35.40625 
Q 43.21875 41.609375 39.140625 45 
Q 35.0625 48.390625 27.6875 48.390625 
Q 23 48.390625 18.546875 47.265625 
Q 14.109375 46.140625 10.015625 43.890625 
L 10.015625 52.203125 
Q 14.9375 54.109375 19.578125 55.046875 
Q 24.21875 56 28.609375 56 
Q 40.484375 56 46.34375 49.84375 
Q 52.203125 43.703125 52.203125 31.203125 
" id="BitstreamVeraSans-Roman-61"/>
      <path d="M 30.609375 48.390625 
Q 23.390625 48.390625 19.1875 42.75 
Q 14.984375 37.109375 14.984375 27.296875 
Q 14.984375 17.484375 19.15625 11.84375 
Q 23.34375 6.203125 30.609375 6.203125 
Q 37.796875 6.203125 41.984375 11.859375 
Q 46.1875 17.53125 46.1875 27.296875 
Q 46.1875 37.015625 41.984375 42.703125 
Q 37.796875 48.390625 30.609375 48.390625 
M 30.609375 56 
Q 42.328125 56 49.015625 48.375 
Q 55.71875 40.765625 55.71875 27.296875 
Q 55.71875 13.875 49.015625 6.21875 
Q 42.328125 -1.421875 30.609375 -1.421875 
Q 18.84375 -1.421875 12.171875 6.21875 
Q 5.515625 13.875 5.515625 27.296875 
Q 5.515625 40.765625 12.171875 48.375 
Q 18.84375 56 30.609375 56 
" id="BitstreamVeraSans-Roman-6f"/>
      <path d="M 9.421875 54.6875 
L 18.40625 54.6875 
L 18.40625 0 
L 9.421875 0 
z
M 9.421875 75.984375 
L 18.40625 75.984375 
L 18.40625 64.59375 
L 9.421875 64.59375 
z
" id="BitstreamVeraSans-Roman-69"/>
      <path d="M 56.203125 29.59375 
L 56.203125 25.203125 
L 14.890625 25.203125 
Q 15.484375 15.921875 20.484375 11.0625 
Q 25.484375 6.203125 34.421875 6.203125 
Q 39.59375 6.203125 44.453125 7.46875 
Q 49.3125 8.734375 54.109375 11.28125 
L 54.109375 2.78125 
Q 49.265625 0.734375 44.1875 -0.34375 
Q 39.109375 -1.421875 33.890625 -1.421875 
Q 20.796875 -1.421875 13.15625 6.1875 
Q 5.515625 13.8125 5.515625 26.8125 
Q 5.515625 40.234375 12.765625 48.109375 
Q 20.015625 56 32.328125 56 
Q 43.359375 56 49.78125 48.890625 
Q 56.203125 41.796875 56.203125 29.59375 
M 47.21875 32.234375 
Q 47.125 39.59375 43.09375 43.984375 
Q 39.0625 48.390625 32.421875 48.390625 
Q 24.90625 48.390625 20.390625 44.140625 
Q 15.875 39.890625 15.1875 32.171875 
z
" id="BitstreamVeraSans-Roman-65"/>
      <path d="M 18.3125 70.21875 
L 18.3125 54.6875 
L 36.8125 54.6875 
L 36.8125 47.703125 
L 18.3125 47.703125 
L 18.3125 18.015625 
Q 18.3125 11.328125 20.140625 9.421875 
Q 21.96875 7.515625 27.59375 7.515625 
L 36.8125 7.515625 
L 36.8125 0 
L 27.59375 0 
Q 17.1875 0 13.234375 3.875 
Q 9.28125 7.765625 9.28125 18.015625 
L 9.28125 47.703125 
L 2.6875 47.703125 
L 2.6875 54.6875 
L 9.28125 54.6875 
L 9.28125 70.21875 
z
" id="BitstreamVeraSans-Roman-74"/>
      <path d="M 41.109375 46.296875 
Q 39.59375 47.171875 37.8125 47.578125 
Q 36.03125 48 33.890625 48 
Q 26.265625 48 22.1875 43.046875 
Q 18.109375 38.09375 18.109375 28.8125 
L 18.109375 0 
L 9.078125 0 
L 9.078125 54.6875 
L 18.109375 54.6875 
L 18.109375 46.1875 
Q 20.953125 51.171875 25.484375 53.578125 
Q 30.03125 56 36.53125 56 
Q 37.453125 56 38.578125 55.875 
Q 39.703125 55.765625 41.0625 55.515625 
z
" id="BitstreamVeraSans-Roman-72"/>
      <path d="M 44.28125 53.078125 
L 44.28125 44.578125 
Q 40.484375 46.53125 36.375 47.5 
Q 32.28125 48.484375 27.875 48.484375 
Q 21.1875 48.484375 17.84375 46.4375 
Q 14.5 44.390625 14.5 40.28125 
Q 14.5 37.15625 16.890625 35.375 
Q 19.28125 33.59375 26.515625 31.984375 
L 29.59375 31.296875 
Q 39.15625 29.25 43.1875 25.515625 
Q 47.21875 21.78125 47.21875 15.09375 
Q 47.21875 7.46875 41.1875 3.015625 
Q 35.15625 -1.421875 24.609375 -1.421875 
Q 20.21875 -1.421875 15.453125 -0.5625 
Q 10.6875 0.296875 5.421875 2 
L 5.421875 11.28125 
Q 10.40625 8.6875 15.234375 7.390625 
Q 20.0625 6.109375 24.8125 6.109375 
Q 31.15625 6.109375 34.5625 8.28125 
Q 37.984375 10.453125 37.984375 14.40625 
Q 37.984375 18.0625 35.515625 20.015625 
Q 33.0625 21.96875 24.703125 23.78125 
L 21.578125 24.515625 
Q 13.234375 26.265625 9.515625 29.90625 
Q 5.8125 33.546875 5.8125 39.890625 
Q 5.8125 47.609375 11.28125 51.796875 
Q 16.75 56 26.8125 56 
Q 31.78125 56 36.171875 55.265625 
Q 40.578125 54.546875 44.28125 53.078125 
" id="BitstreamVeraSans-Roman-73"/>
     </defs>
     <g transform="translate(666.425234375 831.1678125)scale(0.3 -0.3)">
      <use xlink:href="#BitstreamVeraSans-Roman-69"/>
      <use x="27.783203125" xlink:href="#BitstreamVeraSans-Roman-74"/>
      <use x="66.9921875" xlink:href="#BitstreamVeraSans-Roman-65"/>
      <use x="128.515625" xlink:href="#BitstreamVeraSans-Roman-72"/>
      <use x="169.62890625" xlink:href="#BitstreamVeraSans-Roman-61"/>
      <use x="230.908203125" xlink:href="#BitstreamVeraSans-Roman-74"/>
      <use x="270.1171875" xlink:href="#BitstreamVeraSans-Roman-69"/>
      <use x="297.900390625" xlink:href="#BitstreamVeraSans-Roman-6f"/>
      <use x="359.08203125" xlink:href="#BitstreamVeraSans-Roman-6e"/>
      <use x="422.4609375" xlink:href="#BitstreamVeraSans-Roman-73"/>
     </g>
    </g>
   </g>
   <g id="matplotlib.axis_2">
    <g id="ytick_1">
     <g id="line2d_13">
      <defs>
       <path d="M 0 0 
L 4 0 
" id="m0d24ac342b" style="stroke:#000000;stroke-width:0.5;"/>
      </defs>
      <g>
       <use style="stroke:#000000;stroke-width:0.5;" x="93.38265625" xlink:href="#m0d24ac342b" y="770.338125"/>
      </g>
     </g>
     <g id="line2d_14">
      <defs>
       <path d="M 0 0 
L -4 0 
" id="m12108b6aea" style="stroke:#000000;stroke-width:0.5;"/>
      </defs>
      <g>
       <use style="stroke:#000000;stroke-width:0.5;" x="1381.831875" xlink:href="#m12108b6aea" y="770.338125"/>
      </g>
     </g>
     <g id="text_7">
      <!-- −40 -->
      <defs>
       <path d="M 10.59375 35.5 
L 73.1875 35.5 
L 73.1875 27.203125 
L 10.59375 27.203125 
z
" id="BitstreamVeraSans-Roman-2212"/>
       <path d="M 37.796875 64.3125 
L 12.890625 25.390625 
L 37.796875 25.390625 
z
M 35.203125 72.90625 
L 47.609375 72.90625 
L 47.609375 25.390625 
L 58.015625 25.390625 
L 58.015625 17.1875 
L 47.609375 17.1875 
L 47.609375 0 
L 37.796875 0 
L 37.796875 17.1875 
L 4.890625 17.1875 
L 4.890625 26.703125 
z
" id="BitstreamVeraSans-Roman-34"/>
      </defs>
      <g transform="translate(26.06859375 778.61625)scale(0.3 -0.3)">
       <use xlink:href="#BitstreamVeraSans-Roman-2212"/>
       <use x="83.7890625" xlink:href="#BitstreamVeraSans-Roman-34"/>
       <use x="147.412109375" xlink:href="#BitstreamVeraSans-Roman-30"/>
      </g>
     </g>
    </g>
    <g id="ytick_2">
     <g id="line2d_15">
      <g>
       <use style="stroke:#000000;stroke-width:0.5;" x="93.38265625" xlink:href="#m0d24ac342b" y="651.601067708"/>
      </g>
     </g>
     <g id="line2d_16">
      <g>
       <use style="stroke:#000000;stroke-width:0.5;" x="1381.831875" xlink:href="#m12108b6aea" y="651.601067708"/>
      </g>
     </g>
     <g id="text_8">
      <!-- −30 -->
      <defs>
       <path d="M 40.578125 39.3125 
Q 47.65625 37.796875 51.625 33 
Q 55.609375 28.21875 55.609375 21.1875 
Q 55.609375 10.40625 48.1875 4.484375 
Q 40.765625 -1.421875 27.09375 -1.421875 
Q 22.515625 -1.421875 17.65625 -0.515625 
Q 12.796875 0.390625 7.625 2.203125 
L 7.625 11.71875 
Q 11.71875 9.328125 16.59375 8.109375 
Q 21.484375 6.890625 26.8125 6.890625 
Q 36.078125 6.890625 40.9375 10.546875 
Q 45.796875 14.203125 45.796875 21.1875 
Q 45.796875 27.640625 41.28125 31.265625 
Q 36.765625 34.90625 28.71875 34.90625 
L 20.21875 34.90625 
L 20.21875 43.015625 
L 29.109375 43.015625 
Q 36.375 43.015625 40.234375 45.921875 
Q 44.09375 48.828125 44.09375 54.296875 
Q 44.09375 59.90625 40.109375 62.90625 
Q 36.140625 65.921875 28.71875 65.921875 
Q 24.65625 65.921875 20.015625 65.03125 
Q 15.375 64.15625 9.8125 62.3125 
L 9.8125 71.09375 
Q 15.4375 72.65625 20.34375 73.4375 
Q 25.25 74.21875 29.59375 74.21875 
Q 40.828125 74.21875 47.359375 69.109375 
Q 53.90625 64.015625 53.90625 55.328125 
Q 53.90625 49.265625 50.4375 45.09375 
Q 46.96875 40.921875 40.578125 39.3125 
" id="BitstreamVeraSans-Roman-33"/>
      </defs>
      <g transform="translate(26.06859375 659.879192708)scale(0.3 -0.3)">
       <use xlink:href="#BitstreamVeraSans-Roman-2212"/>
       <use x="83.7890625" xlink:href="#BitstreamVeraSans-Roman-33"/>
       <use x="147.412109375" xlink:href="#BitstreamVeraSans-Roman-30"/>
      </g>
     </g>
    </g>
    <g id="ytick_3">
     <g id="line2d_17">
      <g>
       <use style="stroke:#000000;stroke-width:0.5;" x="93.38265625" xlink:href="#m0d24ac342b" y="532.864010417"/>
      </g>
     </g>
     <g id="line2d_18">
      <g>
       <use style="stroke:#000000;stroke-width:0.5;" x="1381.831875" xlink:href="#m12108b6aea" y="532.864010417"/>
      </g>
     </g>
     <g id="text_9">
      <!-- −20 -->
      <g transform="translate(26.06859375 541.142135417)scale(0.3 -0.3)">
       <use xlink:href="#BitstreamVeraSans-Roman-2212"/>
       <use x="83.7890625" xlink:href="#BitstreamVeraSans-Roman-32"/>
       <use x="147.412109375" xlink:href="#BitstreamVeraSans-Roman-30"/>
      </g>
     </g>
    </g>
    <g id="ytick_4">
     <g id="line2d_19">
      <g>
       <use style="stroke:#000000;stroke-width:0.5;" x="93.38265625" xlink:href="#m0d24ac342b" y="414.126953125"/>
      </g>
     </g>
     <g id="line2d_20">
      <g>
       <use style="stroke:#000000;stroke-width:0.5;" x="1381.831875" xlink:href="#m12108b6aea" y="414.126953125"/>
      </g>
     </g>
     <g id="text_10">
      <!-- −10 -->
      <g transform="translate(26.06859375 422.405078125)scale(0.3 -0.3)">
       <use xlink:href="#BitstreamVeraSans-Roman-2212"/>
       <use x="83.7890625" xlink:href="#BitstreamVeraSans-Roman-31"/>
       <use x="147.412109375" xlink:href="#BitstreamVeraSans-Roman-30"/>
      </g>
     </g>
    </g>
    <g id="ytick_5">
     <g id="line2d_21">
      <g>
       <use style="stroke:#000000;stroke-width:0.5;" x="93.38265625" xlink:href="#m0d24ac342b" y="295.389895833"/>
      </g>
     </g>
     <g id="line2d_22">
      <g>
       <use style="stroke:#000000;stroke-width:0.5;" x="1381.831875" xlink:href="#m12108b6aea" y="295.389895833"/>
      </g>
     </g>
     <g id="text_11">
      <!-- 0 -->
      <g transform="translate(70.29515625 303.668020833)scale(0.3 -0.3)">
       <use xlink:href="#BitstreamVeraSans-Roman-30"/>
      </g>
     </g>
    </g>
    <g id="ytick_6">
     <g id="line2d_23">
      <g>
       <use style="stroke:#000000;stroke-width:0.5;" x="93.38265625" xlink:href="#m0d24ac342b" y="176.652838542"/>
      </g>
     </g>
     <g id="line2d_24">
      <g>
       <use style="stroke:#000000;stroke-width:0.5;" x="1381.831875" xlink:href="#m12108b6aea" y="176.652838542"/>
      </g>
     </g>
     <g id="text_12">
      <!-- 10 -->
      <g transform="translate(51.20765625 184.930963542)scale(0.3 -0.3)">
       <use xlink:href="#BitstreamVeraSans-Roman-31"/>
       <use x="63.623046875" xlink:href="#BitstreamVeraSans-Roman-30"/>
      </g>
     </g>
    </g>
    <g id="ytick_7">
     <g id="line2d_25">
      <g>
       <use style="stroke:#000000;stroke-width:0.5;" x="93.38265625" xlink:href="#m0d24ac342b" y="57.91578125"/>
      </g>
     </g>
     <g id="line2d_26">
      <g>
       <use style="stroke:#000000;stroke-width:0.5;" x="1381.831875" xlink:href="#m12108b6aea" y="57.91578125"/>
      </g>
     </g>
     <g id="text_13">
      <!-- 20 -->
      <g transform="translate(51.20765625 66.19390625)scale(0.3 -0.3)">
       <use xlink:href="#BitstreamVeraSans-Roman-32"/>
       <use x="63.623046875" xlink:href="#BitstreamVeraSans-Roman-30"/>
      </g>
     </g>
    </g>
   </g>
   <g id="text_14">
    <!-- log(loss) -->
    <defs>
     <path d="M 8.015625 75.875 
L 15.828125 75.875 
Q 23.140625 64.359375 26.78125 53.3125 
Q 30.421875 42.28125 30.421875 31.390625 
Q 30.421875 20.453125 26.78125 9.375 
Q 23.140625 -1.703125 15.828125 -13.1875 
L 8.015625 -13.1875 
Q 14.5 -2 17.703125 9.0625 
Q 20.90625 20.125 20.90625 31.390625 
Q 20.90625 42.671875 17.703125 53.65625 
Q 14.5 64.65625 8.015625 75.875 
" id="BitstreamVeraSans-Roman-29"/>
     <path d="M 31 75.875 
Q 24.46875 64.65625 21.28125 53.65625 
Q 18.109375 42.671875 18.109375 31.390625 
Q 18.109375 20.125 21.3125 9.0625 
Q 24.515625 -2 31 -13.1875 
L 23.1875 -13.1875 
Q 15.875 -1.703125 12.234375 9.375 
Q 8.59375 20.453125 8.59375 31.390625 
Q 8.59375 42.28125 12.203125 53.3125 
Q 15.828125 64.359375 23.1875 75.875 
z
" id="BitstreamVeraSans-Roman-28"/>
     <path d="M 45.40625 27.984375 
Q 45.40625 37.75 41.375 43.109375 
Q 37.359375 48.484375 30.078125 48.484375 
Q 22.859375 48.484375 18.828125 43.109375 
Q 14.796875 37.75 14.796875 27.984375 
Q 14.796875 18.265625 18.828125 12.890625 
Q 22.859375 7.515625 30.078125 7.515625 
Q 37.359375 7.515625 41.375 12.890625 
Q 45.40625 18.265625 45.40625 27.984375 
M 54.390625 6.78125 
Q 54.390625 -7.171875 48.1875 -13.984375 
Q 42 -20.796875 29.203125 -20.796875 
Q 24.46875 -20.796875 20.265625 -20.09375 
Q 16.0625 -19.390625 12.109375 -17.921875 
L 12.109375 -9.1875 
Q 16.0625 -11.328125 19.921875 -12.34375 
Q 23.78125 -13.375 27.78125 -13.375 
Q 36.625 -13.375 41.015625 -8.765625 
Q 45.40625 -4.15625 45.40625 5.171875 
L 45.40625 9.625 
Q 42.625 4.78125 38.28125 2.390625 
Q 33.9375 0 27.875 0 
Q 17.828125 0 11.671875 7.65625 
Q 5.515625 15.328125 5.515625 27.984375 
Q 5.515625 40.671875 11.671875 48.328125 
Q 17.828125 56 27.875 56 
Q 33.9375 56 38.28125 53.609375 
Q 42.625 51.21875 45.40625 46.390625 
L 45.40625 54.6875 
L 54.390625 54.6875 
z
" id="BitstreamVeraSans-Roman-67"/>
     <path d="M 9.421875 75.984375 
L 18.40625 75.984375 
L 18.40625 0 
L 9.421875 0 
z
" id="BitstreamVeraSans-Roman-6c"/>
    </defs>
    <g transform="translate(674.061171875 52.91578125)scale(0.3 -0.3)">
     <use xlink:href="#BitstreamVeraSans-Roman-6c"/>
     <use x="27.783203125" xlink:href="#BitstreamVeraSans-Roman-6f"/>
     <use x="88.96484375" xlink:href="#BitstreamVeraSans-Roman-67"/>
     <use x="152.44140625" xlink:href="#BitstreamVeraSans-Roman-28"/>
     <use x="191.455078125" xlink:href="#BitstreamVeraSans-Roman-6c"/>
     <use x="219.23828125" xlink:href="#BitstreamVeraSans-Roman-6f"/>
     <use x="280.419921875" xlink:href="#BitstreamVeraSans-Roman-73"/>
     <use x="332.51953125" xlink:href="#BitstreamVeraSans-Roman-73"/>
     <use x="384.619140625" xlink:href="#BitstreamVeraSans-Roman-29"/>
    </g>
   </g>
   <g id="legend_1">
    <g id="patch_7">
     <path d="M 1142.47875 169.984531 
L 1366.831875 169.984531 
L 1366.831875 72.915781 
L 1142.47875 72.915781 
z
" style="fill:#ffffff;stroke:#000000;stroke-linejoin:miter;"/>
    </g>
    <g id="line2d_27">
     <path d="M 1163.47875 97.211094 
L 1205.47875 97.211094 
" style="fill:none;stroke:#0000ff;stroke-linecap:square;stroke-width:2.0;"/>
    </g>
    <g id="line2d_28"/>
    <g id="text_15">
     <!-- random -->
     <defs>
      <path d="M 45.40625 46.390625 
L 45.40625 75.984375 
L 54.390625 75.984375 
L 54.390625 0 
L 45.40625 0 
L 45.40625 8.203125 
Q 42.578125 3.328125 38.25 0.953125 
Q 33.9375 -1.421875 27.875 -1.421875 
Q 17.96875 -1.421875 11.734375 6.484375 
Q 5.515625 14.40625 5.515625 27.296875 
Q 5.515625 40.1875 11.734375 48.09375 
Q 17.96875 56 27.875 56 
Q 33.9375 56 38.25 53.625 
Q 42.578125 51.265625 45.40625 46.390625 
M 14.796875 27.296875 
Q 14.796875 17.390625 18.875 11.75 
Q 22.953125 6.109375 30.078125 6.109375 
Q 37.203125 6.109375 41.296875 11.75 
Q 45.40625 17.390625 45.40625 27.296875 
Q 45.40625 37.203125 41.296875 42.84375 
Q 37.203125 48.484375 30.078125 48.484375 
Q 22.953125 48.484375 18.875 42.84375 
Q 14.796875 37.203125 14.796875 27.296875 
" id="BitstreamVeraSans-Roman-64"/>
      <path d="M 52 44.1875 
Q 55.375 50.25 60.0625 53.125 
Q 64.75 56 71.09375 56 
Q 79.640625 56 84.28125 50.015625 
Q 88.921875 44.046875 88.921875 33.015625 
L 88.921875 0 
L 79.890625 0 
L 79.890625 32.71875 
Q 79.890625 40.578125 77.09375 44.375 
Q 74.3125 48.1875 68.609375 48.1875 
Q 61.625 48.1875 57.5625 43.546875 
Q 53.515625 38.921875 53.515625 30.90625 
L 53.515625 0 
L 44.484375 0 
L 44.484375 32.71875 
Q 44.484375 40.625 41.703125 44.40625 
Q 38.921875 48.1875 33.109375 48.1875 
Q 26.21875 48.1875 22.15625 43.53125 
Q 18.109375 38.875 18.109375 30.90625 
L 18.109375 0 
L 9.078125 0 
L 9.078125 54.6875 
L 18.109375 54.6875 
L 18.109375 46.1875 
Q 21.1875 51.21875 25.484375 53.609375 
Q 29.78125 56 35.6875 56 
Q 41.65625 56 45.828125 52.96875 
Q 50 49.953125 52 44.1875 
" id="BitstreamVeraSans-Roman-6d"/>
     </defs>
     <g transform="translate(1238.47875 107.71109375)scale(0.3 -0.3)">
      <use xlink:href="#BitstreamVeraSans-Roman-72"/>
      <use x="41.11328125" xlink:href="#BitstreamVeraSans-Roman-61"/>
      <use x="102.392578125" xlink:href="#BitstreamVeraSans-Roman-6e"/>
      <use x="165.771484375" xlink:href="#BitstreamVeraSans-Roman-64"/>
      <use x="229.248046875" xlink:href="#BitstreamVeraSans-Roman-6f"/>
      <use x="290.4296875" xlink:href="#BitstreamVeraSans-Roman-6d"/>
     </g>
    </g>
    <g id="line2d_29">
     <path d="M 1163.47875 141.245469 
L 1205.47875 141.245469 
" style="fill:none;stroke:#008000;stroke-linecap:square;stroke-width:2.0;"/>
    </g>
    <g id="line2d_30"/>
    <g id="text_16">
     <!-- corr -->
     <defs>
      <path d="M 48.78125 52.59375 
L 48.78125 44.1875 
Q 44.96875 46.296875 41.140625 47.34375 
Q 37.3125 48.390625 33.40625 48.390625 
Q 24.65625 48.390625 19.8125 42.84375 
Q 14.984375 37.3125 14.984375 27.296875 
Q 14.984375 17.28125 19.8125 11.734375 
Q 24.65625 6.203125 33.40625 6.203125 
Q 37.3125 6.203125 41.140625 7.25 
Q 44.96875 8.296875 48.78125 10.40625 
L 48.78125 2.09375 
Q 45.015625 0.34375 40.984375 -0.53125 
Q 36.96875 -1.421875 32.421875 -1.421875 
Q 20.0625 -1.421875 12.78125 6.34375 
Q 5.515625 14.109375 5.515625 27.296875 
Q 5.515625 40.671875 12.859375 48.328125 
Q 20.21875 56 33.015625 56 
Q 37.15625 56 41.109375 55.140625 
Q 45.0625 54.296875 48.78125 52.59375 
" id="BitstreamVeraSans-Roman-63"/>
     </defs>
     <g transform="translate(1238.47875 151.74546875)scale(0.3 -0.3)">
      <use xlink:href="#BitstreamVeraSans-Roman-63"/>
      <use x="54.98046875" xlink:href="#BitstreamVeraSans-Roman-6f"/>
      <use x="116.162109375" xlink:href="#BitstreamVeraSans-Roman-72"/>
      <use x="157.259765625" xlink:href="#BitstreamVeraSans-Roman-72"/>
     </g>
    </g>
   </g>
  </g>
 </g>
 <defs>
  <clipPath id="p434451869d">
   <rect height="712.42234375" width="1288.44921875" x="93.38265625" y="57.91578125"/>
  </clipPath>
 </defs>
</svg>
