<?xml version="1.0" encoding="utf-8" standalone="no"?>
<!DOCTYPE svg PUBLIC "-//W3C//DTD SVG 1.1//EN"
  "http://www.w3.org/Graphics/SVG/1.1/DTD/svg11.dtd">
<!-- Created with matplotlib (http://matplotlib.org/) -->
<svg height="864pt" version="1.1" viewBox="0 0 1440 864" width="1440pt" xmlns="http://www.w3.org/2000/svg" xmlns:xlink="http://www.w3.org/1999/xlink">
 <defs>
  <style type="text/css">
*{stroke-linecap:butt;stroke-linejoin:round;stroke-miterlimit:100000;}
  </style>
 </defs>
 <g id="figure_1">
  <g id="patch_1">
   <path d="M 0 864 
L 1440 864 
L 1440 0 
L 0 0 
z
" style="fill:#ffffff;"/>
  </g>
  <g id="axes_1">
   <g id="patch_2">
    <path d="M 99.9625 763.2 
L 1369.35 763.2 
L 1369.35 60.8 
L 99.9625 60.8 
z
" style="fill:#ffffff;"/>
   </g>
   <g id="line2d_1">
    <path clip-path="url(#pbb6df2de3a)" d="M 99.9625 147.713287 
L 101.231888 149.273103 
L 102.501275 152.066225 
L 103.770663 155.157631 
L 106.309438 163.592479 
L 107.578825 165.756381 
L 108.848213 170.045099 
L 111.386988 176.871623 
L 112.656375 179.324747 
L 113.925763 181.300626 
L 115.19515 186.058928 
L 116.464538 187.572226 
L 117.733925 189.866443 
L 119.003313 191.589733 
L 120.2727 194.330197 
L 121.542088 197.692467 
L 122.811475 201.809423 
L 124.080863 204.099025 
L 126.619638 209.52601 
L 127.889025 213.100437 
L 129.158413 214.549926 
L 130.4278 217.554445 
L 131.697188 219.380672 
L 132.966575 222.362022 
L 134.235963 226.573818 
L 135.50535 229.631124 
L 136.774738 231.025864 
L 138.044125 233.508081 
L 139.313513 235.339144 
L 140.5829 236.953977 
L 141.852288 240.706559 
L 143.121675 244.887118 
L 144.391063 247.601823 
L 145.66045 248.795731 
L 146.929838 252.800313 
L 148.199225 255.49305 
L 149.468613 256.24981 
L 150.738 260.279183 
L 152.007388 261.58676 
L 153.276775 263.985634 
L 154.546163 265.864819 
L 155.81555 268.254375 
L 157.084938 269.900604 
L 159.623713 276.513536 
L 160.8931 279.124503 
L 162.162487 282.22333 
L 163.431875 284.307822 
L 164.701263 286.629163 
L 165.97065 289.236135 
L 167.240038 292.86851 
L 169.778813 298.17287 
L 171.0482 301.492386 
L 172.317588 304.018367 
L 173.586975 306.994803 
L 176.12575 311.640188 
L 177.395138 313.349894 
L 178.664525 317.277386 
L 179.933913 320.364648 
L 181.2033 323.7923 
L 182.472688 325.816728 
L 183.742075 330.044949 
L 185.011462 332.092194 
L 186.28085 333.640338 
L 187.550238 336.911437 
L 188.819625 339.215101 
L 190.089013 342.861158 
L 191.3584 346.048616 
L 192.627788 347.238835 
L 193.897175 349.71625 
L 195.166562 352.455525 
L 196.43595 354.495861 
L 197.705338 358.801776 
L 198.974725 361.13489 
L 200.244113 364.369342 
L 201.5135 368.840884 
L 202.782888 371.921915 
L 204.052275 373.581936 
L 205.321663 377.238861 
L 206.59105 380.545827 
L 207.860438 383.386118 
L 209.129825 387.415335 
L 210.399213 390.197677 
L 211.6686 393.621422 
L 212.937988 397.781262 
L 214.207375 399.673353 
L 215.476763 399.340829 
L 216.74615 398.333405 
L 218.015537 400.441929 
L 219.284925 403.406249 
L 220.554313 407.529293 
L 221.8237 412.176374 
L 223.093088 413.627317 
L 224.362475 416.299295 
L 225.631863 419.656035 
L 226.90125 422.583569 
L 228.170637 424.711835 
L 229.440025 427.52665 
L 230.709412 431.700327 
L 231.9788 433.834796 
L 233.248188 436.65909 
L 234.517575 439.963742 
L 235.786963 442.565087 
L 237.05635 446.446551 
L 238.325738 448.364755 
L 239.595125 451.154504 
L 240.864512 455.565393 
L 242.1339 458.353777 
L 243.403288 462.611326 
L 245.942063 467.921038 
L 247.21145 470.697951 
L 248.480838 474.222535 
L 249.750225 476.257412 
L 251.019612 478.89486 
L 253.558387 483.509565 
L 254.827775 485.865854 
L 257.36655 491.346181 
L 258.635938 493.657364 
L 259.905325 496.504457 
L 261.174712 500.668814 
L 262.4441 499.355833 
L 264.982875 506.702077 
L 266.252263 508.70184 
L 268.791038 514.251849 
L 270.060425 517.828617 
L 271.329813 519.422116 
L 272.5992 522.157928 
L 273.868587 525.932775 
L 275.137975 530.377743 
L 276.407362 531.791994 
L 277.67675 533.986942 
L 278.946138 537.328871 
L 280.215525 539.642769 
L 281.484913 545.441708 
L 284.023687 550.812983 
L 285.293075 554.232684 
L 286.562462 557.215725 
L 290.370625 569.44019 
L 291.640013 572.328734 
L 292.9094 569.890094 
L 294.178787 571.348606 
L 295.448175 574.251676 
L 296.717562 578.258218 
L 299.256338 584.715468 
L 300.525725 587.371931 
L 301.795113 588.803326 
L 303.0645 591.984625 
L 304.333888 595.785332 
L 305.603275 596.961498 
L 308.14205 601.779509 
L 309.411437 605.937068 
L 311.950213 611.905366 
L 313.2196 615.9837 
L 314.488988 618.42358 
L 315.758375 619.44158 
L 317.027762 621.791858 
L 318.29715 623.460348 
L 319.566537 626.049465 
L 322.105313 630.65026 
L 323.3747 635.040203 
L 324.644088 638.825214 
L 325.913475 641.905779 
L 327.182862 644.128624 
L 328.45225 646.624004 
L 329.721637 649.954926 
L 330.991025 651.868684 
L 334.799188 660.482766 
L 336.068575 662.869329 
L 337.337963 666.977659 
L 338.60735 666.155364 
L 339.876737 668.012735 
L 341.146125 670.82819 
L 342.415512 674.555875 
L 343.6849 676.239963 
L 344.954288 680.570061 
L 346.223675 684.315312 
L 347.493063 685.251753 
L 348.76245 687.760157 
L 350.031837 691.454454 
L 352.570612 695.629447 
L 353.84 698.089014 
L 355.109388 701.546564 
L 356.378775 703.894146 
L 357.648163 705.226335 
L 358.91755 708.805516 
L 360.186937 710.936507 
L 361.456325 714.714328 
L 362.725712 715.582846 
L 363.9951 717.902174 
L 365.264488 721.163001 
L 366.533875 725.116083 
L 367.803263 727.113637 
L 369.07265 730.155591 
L 370.342038 732.806558 
L 371.611425 733.501777 
L 372.880812 735.093913 
L 374.1502 737.845767 
L 375.419588 740.03846 
L 376.688975 741.485024 
L 377.958363 742.718567 
L 379.22775 744.91123 
L 380.497138 745.821935 
L 381.766525 746.966625 
L 383.035912 749.979635 
L 384.3053 750.95149 
L 385.574687 749.061062 
L 386.844075 749.908606 
L 388.113463 750.553688 
L 389.38285 751.835951 
L 390.652238 752.417463 
L 391.921625 752.468824 
L 393.191012 751.745135 
L 394.4604 751.890137 
L 395.729787 751.796698 
L 398.268563 751.094428 
L 399.53795 750.461234 
L 400.807338 751.102405 
L 402.076725 752.115245 
L 404.6155 752.110265 
L 405.884887 753.903721 
L 407.154275 754.821518 
L 408.423663 755.300263 
L 409.69305 756.962955 
L 410.962438 755.48096 
L 412.231825 754.544102 
L 413.501213 752.665138 
L 414.7706 751.58927 
L 416.039987 751.882387 
L 417.309375 752.62211 
L 418.578762 753.140945 
L 419.84815 753.395489 
L 421.117538 754.823116 
L 422.386925 753.881265 
L 423.656313 753.719377 
L 426.195087 754.583119 
L 427.464475 752.658243 
L 428.733862 752.813396 
L 430.00325 752.408764 
L 431.272638 752.289406 
L 432.542025 752.962456 
L 433.811413 752.713444 
L 435.0808 752.348098 
L 436.350188 751.044992 
L 437.619575 750.922712 
L 438.888962 752.64793 
L 440.15835 753.96338 
L 441.427737 755.062026 
L 442.697125 755.41472 
L 443.966513 755.150467 
L 445.2359 755.328718 
L 446.505288 756.638663 
L 447.774675 755.20689 
L 449.044062 752.568987 
L 450.31345 752.144336 
L 451.582837 752.276748 
L 452.852225 753.872797 
L 454.121613 752.126822 
L 455.391 752.28434 
L 456.660388 753.909204 
L 457.929775 754.617548 
L 459.199162 752.214531 
L 460.46855 753.887716 
L 461.737937 755.064399 
L 463.007325 753.353705 
L 464.276713 752.634086 
L 465.5461 751.611946 
L 466.815488 753.430385 
L 468.084875 751.190597 
L 469.354263 749.789437 
L 470.62365 751.062594 
L 471.893037 752.52603 
L 473.162425 751.536692 
L 474.431812 751.355764 
L 475.7012 749.345345 
L 476.970588 749.913257 
L 478.239975 751.759685 
L 479.509363 752.669072 
L 480.77875 752.552466 
L 482.048137 753.992876 
L 483.317525 752.934185 
L 484.586912 751.729819 
L 485.8563 752.139604 
L 487.125688 751.807523 
L 488.395075 750.502544 
L 489.664463 750.787072 
L 490.93385 749.838832 
L 492.203238 751.928322 
L 493.472625 753.291121 
L 494.742012 754.386532 
L 496.0114 756.269497 
L 497.280787 756.427804 
L 498.550175 752.850866 
L 499.819563 752.916758 
L 502.358338 755.132507 
L 503.627725 754.654491 
L 504.897112 752.262906 
L 506.1665 752.918207 
L 507.435887 754.28342 
L 508.705275 753.661578 
L 509.974663 752.664827 
L 511.24405 752.749355 
L 512.513438 751.760737 
L 513.782825 750.420111 
L 515.052212 751.621016 
L 516.3216 751.227118 
L 517.590987 751.666237 
L 518.860375 752.269842 
L 520.129762 751.964693 
L 521.39915 749.037148 
L 522.668537 750.62224 
L 523.937925 751.895777 
L 525.207312 752.775534 
L 526.4767 753.095231 
L 527.746087 753.136345 
L 529.015475 752.141166 
L 530.284862 753.724054 
L 531.55425 752.351636 
L 532.823638 752.147468 
L 534.093025 753.268283 
L 535.362413 751.025995 
L 536.6318 751.756078 
L 537.901187 751.64016 
L 539.170575 752.172822 
L 540.439962 752.977078 
L 541.70935 752.900877 
L 542.978737 753.904344 
L 544.248125 753.83174 
L 545.517512 754.048739 
L 546.7869 755.470211 
L 548.056287 755.49201 
L 549.325675 754.895272 
L 550.595062 754.592082 
L 551.86445 753.943261 
L 553.133837 754.300349 
L 554.403225 752.553197 
L 556.942 754.86283 
L 558.211388 755.388884 
L 559.480775 753.095162 
L 560.750162 752.650297 
L 562.01955 752.757827 
L 563.288937 752.374547 
L 564.558325 751.077354 
L 565.827712 750.376114 
L 567.0971 752.731113 
L 568.366487 751.680198 
L 569.635875 753.695399 
L 570.905262 754.555977 
L 572.17465 754.337323 
L 573.444037 752.862955 
L 574.713425 753.979198 
L 578.521588 753.481965 
L 579.790975 753.660001 
L 581.060362 752.637202 
L 582.32975 753.857059 
L 583.599137 751.060091 
L 584.868525 748.637697 
L 586.137912 749.9723 
L 587.4073 750.900067 
L 588.676687 751.524639 
L 589.946075 751.505813 
L 591.215462 751.683508 
L 592.48485 751.723158 
L 593.754237 750.798989 
L 595.023625 749.424986 
L 596.293012 750.669575 
L 597.5624 750.148781 
L 598.831788 751.343322 
L 600.101175 751.478076 
L 601.370563 750.110546 
L 602.63995 751.544465 
L 603.909337 752.017365 
L 605.178725 747.028385 
L 606.448112 746.510991 
L 607.7175 748.788525 
L 608.986887 750.306942 
L 610.256275 752.814308 
L 611.525662 753.131799 
L 612.79505 753.210342 
L 614.064437 750.929467 
L 615.333825 752.70127 
L 616.603212 752.077421 
L 617.8726 750.378057 
L 619.141987 750.178837 
L 620.411375 750.435306 
L 621.680762 752.038058 
L 622.95015 752.979754 
L 624.219537 751.941279 
L 625.488925 750.38032 
L 626.758312 752.227291 
L 628.0277 753.614142 
L 629.297087 750.983428 
L 630.566475 751.211757 
L 631.835862 750.209731 
L 633.10525 749.542065 
L 634.374637 749.623113 
L 635.644025 752.178709 
L 636.913412 751.657542 
L 638.1828 750.912846 
L 639.452187 752.723706 
L 640.721575 751.641375 
L 641.990962 751.066738 
L 643.26035 752.652272 
L 644.529737 752.986694 
L 645.799125 753.157612 
L 647.068512 751.55663 
L 648.3379 752.414087 
L 649.607287 751.525204 
L 650.876675 751.762393 
L 652.146062 752.268721 
L 653.41545 752.131474 
L 654.684837 754.141229 
L 655.954225 753.973594 
L 657.223612 752.915807 
L 658.493 752.48477 
L 659.762387 752.910811 
L 661.031775 752.59368 
L 662.301162 752.714567 
L 663.57055 750.799145 
L 664.839937 752.683147 
L 666.109325 751.289237 
L 667.378712 751.117619 
L 668.6481 750.604346 
L 669.917487 750.752872 
L 671.186875 752.557331 
L 672.456262 751.8597 
L 673.72565 751.813741 
L 674.995037 752.585409 
L 677.533812 755.428152 
L 678.8032 754.980236 
L 680.072587 753.295138 
L 681.341975 753.558223 
L 682.611362 752.693576 
L 683.88075 753.745897 
L 685.150137 754.016 
L 686.419525 753.7356 
L 687.688912 751.369859 
L 688.9583 752.693092 
L 690.227687 752.234104 
L 691.497075 752.507258 
L 692.766462 752.245214 
L 694.03585 751.78578 
L 695.305237 752.610651 
L 696.574625 751.281889 
L 697.844012 752.785192 
L 699.1134 751.409303 
L 700.382787 752.657162 
L 701.652175 753.228207 
L 702.921562 753.459185 
L 704.19095 752.472233 
L 705.460337 753.386854 
L 706.729725 753.859865 
L 707.999112 753.189364 
L 709.2685 753.652681 
L 710.537887 752.998357 
L 711.807275 754.795335 
L 713.076662 754.217955 
L 714.34605 754.964029 
L 715.615437 754.576654 
L 716.884825 753.829874 
L 718.154212 753.608124 
L 719.4236 753.620242 
L 720.692987 751.119956 
L 721.962375 752.220886 
L 723.231762 751.074148 
L 724.50115 752.183017 
L 725.770537 749.553416 
L 727.039925 746.504411 
L 728.309312 747.476313 
L 729.5787 749.080847 
L 730.848087 749.855299 
L 733.386862 750.080673 
L 734.65625 750.788004 
L 737.195025 751.503606 
L 739.7338 750.002261 
L 741.003187 748.902912 
L 742.272575 749.962757 
L 743.541962 750.036837 
L 746.080737 752.731293 
L 747.350125 752.373922 
L 748.619512 751.762208 
L 749.8889 753.124549 
L 751.158287 754.240286 
L 752.427675 753.026245 
L 753.697062 753.183614 
L 754.96645 754.582273 
L 756.235837 755.088775 
L 757.505225 751.937686 
L 758.774612 752.972932 
L 760.044 753.027875 
L 761.313387 753.579194 
L 762.582775 753.480232 
L 765.12155 751.672984 
L 766.390937 752.556105 
L 767.660325 751.547041 
L 768.929712 752.551229 
L 770.1991 752.316871 
L 771.468487 754.585618 
L 772.737875 753.235846 
L 774.007262 751.107703 
L 775.27665 751.510436 
L 776.546037 753.321371 
L 777.815425 751.563376 
L 779.084812 751.731537 
L 780.3542 753.103606 
L 781.623587 753.246015 
L 782.892975 753.063457 
L 784.162362 753.48298 
L 785.43175 750.916825 
L 786.701137 751.446608 
L 787.970525 751.472574 
L 789.239912 751.113247 
L 790.5093 751.845349 
L 791.778687 752.333948 
L 793.048075 750.388895 
L 794.317462 748.925959 
L 795.58685 749.249389 
L 796.856237 751.565065 
L 798.125625 752.87088 
L 799.395012 751.074165 
L 800.6644 752.406711 
L 801.933787 749.36825 
L 803.203175 751.097601 
L 804.472562 751.856353 
L 805.74195 751.87108 
L 807.011337 751.599032 
L 808.280725 752.276141 
L 809.550112 751.322988 
L 810.8195 751.765405 
L 812.088887 750.784392 
L 813.358275 750.77207 
L 814.627662 751.45742 
L 815.89705 750.655552 
L 817.166437 751.552768 
L 818.435825 749.9709 
L 819.705212 750.184354 
L 820.9746 751.397816 
L 823.513375 751.709939 
L 824.782762 751.749801 
L 826.05215 753.878986 
L 827.321537 751.461196 
L 829.860312 753.765188 
L 831.1297 753.618774 
L 832.399087 752.929079 
L 833.668475 753.912758 
L 836.20725 752.459162 
L 837.476637 753.077435 
L 840.015412 750.506464 
L 841.2848 752.081111 
L 842.554187 751.87009 
L 843.823575 751.182917 
L 845.092962 752.35507 
L 846.36235 752.549902 
L 847.631737 753.635871 
L 850.170512 752.161623 
L 851.4399 752.694916 
L 852.709287 753.391505 
L 853.978675 753.120304 
L 855.248062 754.373632 
L 856.51745 752.657962 
L 857.786837 752.812422 
L 859.056225 752.242862 
L 860.325612 752.734333 
L 861.595 752.380718 
L 862.864387 753.370755 
L 864.133775 752.650001 
L 865.403162 752.51566 
L 866.67255 754.455062 
L 867.941937 753.364447 
L 869.211325 754.749852 
L 870.480712 754.294121 
L 871.7501 755.00048 
L 873.019487 753.317034 
L 874.288875 755.058645 
L 875.558262 754.108369 
L 876.82765 752.762273 
L 878.097037 753.615596 
L 879.366425 753.578423 
L 880.635812 750.978295 
L 881.9052 753.279452 
L 883.174587 754.037399 
L 884.443975 753.378834 
L 885.713362 753.099102 
L 886.98275 751.998657 
L 888.252137 752.82099 
L 889.521525 751.342894 
L 890.790912 751.673464 
L 892.0603 751.150614 
L 893.329687 751.338675 
L 894.599075 752.816275 
L 895.868462 751.980613 
L 897.13785 753.302825 
L 898.407237 750.48297 
L 899.676625 750.877717 
L 900.946012 749.870379 
L 902.2154 752.301826 
L 903.484787 754.147181 
L 904.754175 754.121134 
L 906.023562 755.208072 
L 907.29295 754.086605 
L 908.562337 753.417927 
L 909.831725 753.840659 
L 911.101112 754.798427 
L 912.3705 753.751788 
L 913.639887 755.028817 
L 914.909275 755.801772 
L 916.178662 752.597312 
L 917.44805 754.732593 
L 918.717437 753.499857 
L 919.986825 753.962039 
L 921.256212 752.92433 
L 922.5256 753.212521 
L 923.794987 751.29198 
L 925.064375 752.144695 
L 926.333762 752.214528 
L 927.60315 753.19979 
L 928.872537 751.018182 
L 930.141925 750.399984 
L 931.411312 750.512686 
L 932.6807 749.14072 
L 933.950087 747.57726 
L 935.219475 748.482461 
L 936.488862 750.816523 
L 937.75825 749.190583 
L 939.027637 750.764956 
L 941.566412 754.761649 
L 942.8358 755.064308 
L 944.105187 754.539871 
L 945.374575 753.598028 
L 946.643962 753.306925 
L 947.91335 752.846305 
L 949.182737 752.228263 
L 950.452125 752.226136 
L 951.721512 752.955788 
L 952.9909 751.477543 
L 954.260287 749.569001 
L 956.799062 750.37923 
L 958.06845 749.801749 
L 959.337837 750.857613 
L 960.607225 749.902631 
L 961.876612 752.383168 
L 963.146 753.217447 
L 964.415387 754.559544 
L 965.684775 754.4776 
L 966.954162 753.743352 
L 968.22355 752.656284 
L 969.492937 752.567063 
L 970.762325 752.802031 
L 972.031712 754.446833 
L 973.3011 752.621319 
L 974.570487 754.276279 
L 975.839875 752.702111 
L 977.109262 751.991624 
L 978.37865 751.685013 
L 979.648037 752.941316 
L 980.917425 752.675734 
L 982.186812 751.20355 
L 983.4562 750.542 
L 984.725587 751.767843 
L 985.994975 751.444206 
L 987.264362 750.449176 
L 988.53375 751.840555 
L 989.803137 754.071667 
L 991.072525 754.185867 
L 992.341912 754.988796 
L 993.6113 754.506933 
L 994.880687 754.243735 
L 996.150075 753.250701 
L 997.419462 753.278564 
L 998.68885 752.1391 
L 999.958237 752.985723 
L 1001.227625 751.888945 
L 1002.497012 751.525023 
L 1003.7664 753.098867 
L 1005.035787 753.220185 
L 1006.305175 753.830637 
L 1007.574562 756.999353 
L 1008.84395 753.723022 
L 1010.113337 754.009338 
L 1011.382725 754.180829 
L 1012.652112 755.480232 
L 1013.9215 755.378041 
L 1015.190887 753.913301 
L 1016.460275 756.394624 
L 1017.729662 755.218836 
L 1018.99905 754.627056 
L 1020.268437 755.172611 
L 1021.537825 754.701168 
L 1022.807212 754.883827 
L 1024.0766 753.560223 
L 1025.345987 753.794945 
L 1026.615375 753.800931 
L 1027.884762 752.229611 
L 1029.15415 753.475759 
L 1030.423538 754.955556 
L 1031.692925 755.698609 
L 1032.962313 755.698191 
L 1034.2317 754.978699 
L 1035.501088 752.492319 
L 1036.770475 753.515746 
L 1038.039863 753.651099 
L 1039.30925 754.7302 
L 1040.578638 750.222119 
L 1041.848025 751.116512 
L 1043.117413 752.459965 
L 1044.3868 752.231948 
L 1045.656187 753.826778 
L 1048.194962 753.359937 
L 1049.46435 755.53663 
L 1050.733737 754.736623 
L 1052.003125 755.809348 
L 1053.272512 756.226022 
L 1054.5419 754.919833 
L 1055.811287 754.726449 
L 1057.080675 755.3071 
L 1058.350062 750.561913 
L 1059.61945 750.846155 
L 1060.888837 747.595268 
L 1062.158225 748.394488 
L 1063.427612 749.049009 
L 1064.697 748.975997 
L 1065.966387 750.271094 
L 1067.235775 753.457 
L 1068.505162 753.032655 
L 1071.043937 753.745384 
L 1072.313325 755.134359 
L 1073.582712 754.388634 
L 1076.121488 751.91697 
L 1077.390875 751.464132 
L 1078.660263 749.041979 
L 1079.92965 749.580064 
L 1081.199038 750.260323 
L 1082.468425 749.962592 
L 1083.737813 750.049696 
L 1085.0072 749.95725 
L 1086.276588 748.88678 
L 1087.545975 749.092115 
L 1088.815362 750.201101 
L 1090.08475 750.964858 
L 1091.354137 751.280942 
L 1092.623525 752.259511 
L 1093.892912 752.191146 
L 1095.1623 752.966819 
L 1096.431687 752.884421 
L 1097.701075 754.565362 
L 1098.970462 756.842526 
L 1100.23985 754.733067 
L 1101.509237 752.376894 
L 1102.778625 753.191916 
L 1104.048012 751.843058 
L 1105.3174 752.593066 
L 1106.586787 750.9838 
L 1107.856175 749.819454 
L 1109.125562 750.370325 
L 1110.39495 751.742157 
L 1111.664337 754.03048 
L 1112.933725 753.076568 
L 1114.203112 755.218355 
L 1115.4725 753.728993 
L 1116.741887 754.411404 
L 1118.011275 751.723315 
L 1119.280662 751.369179 
L 1120.55005 751.515588 
L 1121.819438 750.960479 
L 1123.088825 751.408507 
L 1124.358213 750.970953 
L 1125.6276 750.329819 
L 1126.896988 752.297431 
L 1128.166375 753.348007 
L 1129.435763 753.344067 
L 1130.70515 752.753658 
L 1131.974537 753.4041 
L 1133.243925 752.892073 
L 1134.513312 752.752054 
L 1135.7827 749.147868 
L 1137.052087 751.382315 
L 1138.321475 752.243401 
L 1139.590862 752.224993 
L 1140.86025 753.020578 
L 1142.129637 752.520621 
L 1143.399025 752.604802 
L 1144.668412 752.84517 
L 1145.9378 754.118439 
L 1147.207187 753.701077 
L 1148.476575 754.545261 
L 1149.745962 752.913445 
L 1152.284737 752.411695 
L 1153.554125 751.098814 
L 1154.823513 752.296374 
L 1156.0929 751.791726 
L 1158.631675 754.557438 
L 1159.901063 754.743796 
L 1161.17045 755.750486 
L 1162.439838 753.939541 
L 1163.709225 753.848255 
L 1164.978613 754.533117 
L 1166.248 754.855753 
L 1167.517388 753.189114 
L 1168.786775 754.203408 
L 1170.056163 755.900008 
L 1171.32555 756.091609 
L 1173.864325 757.122164 
L 1175.133713 757.897566 
L 1176.4031 754.884963 
L 1177.672487 753.790528 
L 1178.941875 753.580515 
L 1180.211262 750.429184 
L 1181.48065 750.729015 
L 1182.750037 749.396891 
L 1184.019425 749.251661 
L 1185.288812 750.090865 
L 1186.5582 748.909414 
L 1187.827587 749.434729 
L 1189.096975 750.300057 
L 1190.366362 749.872847 
L 1191.63575 751.073339 
L 1192.905137 751.578543 
L 1194.174525 751.821035 
L 1195.443912 753.875993 
L 1196.7133 753.516931 
L 1197.982687 752.367843 
L 1199.252075 752.269325 
L 1200.521463 751.135619 
L 1201.79085 751.666417 
L 1203.060238 753.282128 
L 1204.329625 748.171822 
L 1206.8684 750.773185 
L 1208.137788 752.343878 
L 1209.407175 752.797075 
L 1210.676563 752.588331 
L 1211.94595 753.070341 
L 1213.215338 754.724829 
L 1214.484725 752.702305 
L 1215.754113 751.894407 
L 1217.0235 751.639115 
L 1218.292888 751.724118 
L 1222.10105 753.518169 
L 1223.370437 753.094204 
L 1224.639825 752.156684 
L 1225.909212 752.728691 
L 1227.1786 752.985764 
L 1228.447987 752.881318 
L 1229.717375 753.870156 
L 1230.986762 753.385097 
L 1232.25615 754.817738 
L 1233.525537 752.646613 
L 1234.794925 754.619593 
L 1236.064312 754.077863 
L 1238.603087 753.961934 
L 1239.872475 755.568439 
L 1241.141862 754.538297 
L 1242.41125 752.956262 
L 1243.680638 753.061154 
L 1244.950025 754.432002 
L 1246.219413 753.147143 
L 1247.4888 753.057063 
L 1248.758188 752.777284 
L 1250.027575 751.790935 
L 1251.296963 752.796891 
L 1252.56635 753.187658 
L 1253.835738 752.699051 
L 1255.105125 752.032758 
L 1256.374513 753.804321 
L 1257.6439 751.931808 
L 1258.913288 751.390895 
L 1260.182675 754.410295 
L 1261.452063 753.404895 
L 1262.72145 753.651048 
L 1263.990837 754.400635 
L 1265.260225 753.35827 
L 1266.529612 752.075885 
L 1267.799 753.708785 
L 1269.068387 754.293998 
L 1270.337775 753.321329 
L 1271.607162 753.316575 
L 1272.87655 752.247236 
L 1274.145937 754.802934 
L 1275.415325 752.913725 
L 1276.684712 753.622542 
L 1279.223487 754.23248 
L 1280.492875 753.004584 
L 1281.762262 752.656857 
L 1284.301037 755.080733 
L 1285.570425 753.944337 
L 1286.839812 751.070074 
L 1288.1092 750.410557 
L 1289.378588 752.056249 
L 1291.917363 753.222457 
L 1293.18675 752.01934 
L 1294.456138 752.174115 
L 1295.725525 753.576248 
L 1296.994913 753.957947 
L 1298.2643 751.755839 
L 1299.533688 751.611217 
L 1300.803075 750.672983 
L 1302.072463 750.652386 
L 1303.34185 750.920288 
L 1304.611238 751.34663 
L 1305.880625 749.20252 
L 1307.150013 750.273778 
L 1308.4194 751.877349 
L 1309.688787 752.103216 
L 1310.958175 750.947748 
L 1312.227562 753.227379 
L 1313.49695 753.433051 
L 1314.766337 752.335996 
L 1316.035725 751.473436 
L 1317.305112 752.649356 
L 1318.5745 751.922281 
L 1319.843887 746.555253 
L 1321.113275 748.822616 
L 1322.382662 751.347902 
L 1323.65205 752.266464 
L 1324.921437 753.613382 
L 1326.190825 753.71604 
L 1328.7296 754.780584 
L 1329.998987 754.292122 
L 1331.268375 754.202577 
L 1332.537762 753.334462 
L 1333.80715 751.993062 
L 1335.076538 753.175085 
L 1336.345925 750.404421 
L 1337.615313 749.942848 
L 1338.8847 749.959722 
L 1340.154088 752.024923 
L 1341.423475 750.353777 
L 1342.692863 751.88811 
L 1343.96225 752.205457 
L 1345.231638 751.845526 
L 1346.501025 750.421971 
L 1347.770413 751.089742 
L 1349.0398 750.917052 
L 1350.309188 751.294295 
L 1351.578575 752.412889 
L 1352.847962 754.43096 
L 1354.11735 753.179523 
L 1355.386737 751.33673 
L 1356.656125 750.037498 
L 1357.925512 749.887141 
L 1359.1949 751.189333 
L 1360.464287 752.281908 
L 1361.733675 749.802141 
L 1363.003062 749.189653 
L 1364.27245 751.080755 
L 1365.541837 750.135504 
L 1366.811225 753.023658 
L 1368.080612 755.255069 
L 1368.080612 755.255069 
" style="fill:none;stroke:#0000ff;stroke-linecap:square;stroke-width:2.0;"/>
   </g>
   <g id="line2d_2">
    <path clip-path="url(#pbb6df2de3a)" d="M 99.9625 145.910142 
L 101.231888 148.434948 
L 103.770663 152.555949 
L 105.04005 155.964563 
L 106.309438 158.69699 
L 107.578825 160.971165 
L 108.848213 164.373078 
L 110.1176 166.990206 
L 112.656375 172.906321 
L 113.925763 176.514733 
L 115.19515 178.628852 
L 116.464538 181.69197 
L 117.733925 182.347283 
L 119.003313 182.549998 
L 121.542088 189.438134 
L 122.811475 191.010971 
L 124.080863 194.331742 
L 125.35025 196.29068 
L 126.619638 200.499765 
L 127.889025 203.636798 
L 129.158413 205.507312 
L 131.697188 213.447026 
L 132.966575 216.88558 
L 135.50535 221.129999 
L 138.044125 228.579967 
L 139.313513 231.20241 
L 140.5829 233.510968 
L 141.852288 236.962747 
L 143.121675 238.302528 
L 144.391063 241.702524 
L 145.66045 240.182787 
L 146.929838 243.345917 
L 148.199225 246.008095 
L 149.468613 247.904174 
L 150.738 249.51647 
L 153.276775 256.739837 
L 154.546163 257.827733 
L 155.81555 260.22994 
L 157.084938 263.574609 
L 158.354325 265.838092 
L 159.623713 269.173797 
L 160.8931 271.972978 
L 162.162487 275.418835 
L 163.431875 276.800006 
L 164.701263 280.021629 
L 165.97065 281.86641 
L 167.240038 285.477295 
L 168.509425 287.392466 
L 169.778813 290.962407 
L 171.0482 293.479093 
L 172.317588 296.708267 
L 173.586975 297.578679 
L 174.856363 300.626988 
L 176.12575 300.353757 
L 177.395138 304.155514 
L 178.664525 305.399421 
L 179.933913 307.42136 
L 181.2033 311.552915 
L 182.472688 314.527362 
L 183.742075 316.328222 
L 185.011462 317.853194 
L 186.28085 318.855122 
L 187.550238 323.176356 
L 188.819625 326.547767 
L 191.3584 330.19481 
L 192.627788 334.476194 
L 193.897175 336.558769 
L 195.166562 338.30085 
L 197.705338 345.268259 
L 198.974725 347.504048 
L 201.5135 354.557695 
L 202.782888 356.620409 
L 204.052275 359.211042 
L 205.321663 362.499603 
L 206.59105 364.758085 
L 207.860438 368.572935 
L 209.129825 371.575964 
L 210.399213 374.20419 
L 212.937988 378.183125 
L 215.476763 383.728284 
L 216.74615 386.882545 
L 218.015537 388.693983 
L 219.284925 390.12874 
L 221.8237 396.347758 
L 223.093088 398.907738 
L 224.362475 402.810096 
L 225.631863 405.210294 
L 226.90125 406.039205 
L 228.170637 407.127019 
L 229.440025 410.463437 
L 230.709412 414.445679 
L 231.9788 417.576928 
L 234.517575 421.590288 
L 235.786963 425.029325 
L 237.05635 427.624852 
L 238.325738 429.956478 
L 242.1339 438.075006 
L 243.403288 440.041241 
L 244.672675 442.632614 
L 247.21145 446.257709 
L 248.480838 449.390043 
L 249.750225 451.148265 
L 251.019612 454.968649 
L 252.289 458.110804 
L 253.558387 459.625848 
L 254.827775 462.346223 
L 256.097163 463.810585 
L 257.36655 466.421134 
L 258.635938 469.456291 
L 262.4441 480.401346 
L 263.713487 483.795612 
L 264.982875 487.776592 
L 266.252263 493.692289 
L 267.52165 497.529727 
L 268.791038 498.89944 
L 270.060425 499.526042 
L 271.329813 503.405625 
L 272.5992 505.640991 
L 273.868587 510.734504 
L 275.137975 512.369654 
L 277.67675 520.68325 
L 278.946138 524.742021 
L 280.215525 526.909592 
L 281.484913 530.586061 
L 284.023687 536.125258 
L 285.293075 539.772471 
L 286.562462 542.977575 
L 289.101238 548.354519 
L 290.370625 548.511666 
L 292.9094 554.420296 
L 294.178787 559.150283 
L 295.448175 562.21183 
L 297.98695 566.807181 
L 299.256338 569.877969 
L 300.525725 572.338417 
L 301.795113 576.229506 
L 304.333888 582.065491 
L 305.603275 584.347149 
L 306.872662 588.658845 
L 308.14205 589.305048 
L 309.411437 591.813792 
L 310.680825 595.446999 
L 313.2196 599.093403 
L 314.488988 601.487302 
L 315.758375 605.005206 
L 317.027762 609.730891 
L 319.566537 616.152103 
L 320.835925 615.610594 
L 322.105313 618.645975 
L 323.3747 620.670476 
L 324.644088 623.778259 
L 325.913475 625.035265 
L 327.182862 627.665477 
L 328.45225 630.605193 
L 329.721637 632.985067 
L 330.991025 636.489368 
L 332.260412 631.859516 
L 333.5298 634.877103 
L 337.337963 642.508517 
L 338.60735 646.389481 
L 339.876737 648.731319 
L 341.146125 654.536758 
L 342.415512 656.846293 
L 343.6849 659.401819 
L 344.954288 661.281314 
L 346.223675 665.612804 
L 347.493063 668.87502 
L 348.76245 673.280432 
L 352.570612 682.00963 
L 355.109388 689.429836 
L 356.378775 692.050315 
L 357.648163 695.356182 
L 358.91755 697.974641 
L 360.186937 699.836626 
L 361.456325 702.746442 
L 362.725712 706.207892 
L 363.9951 708.581869 
L 367.803263 717.636759 
L 369.07265 721.111713 
L 370.342038 724.261078 
L 371.611425 728.03064 
L 372.880812 729.297557 
L 374.1502 730.269072 
L 375.419588 732.670976 
L 376.688975 736.137434 
L 377.958363 738.994505 
L 379.22775 738.886336 
L 380.497138 742.861972 
L 381.766525 741.484627 
L 383.035912 743.232823 
L 384.3053 744.427265 
L 386.844075 747.140943 
L 388.113463 747.177813 
L 390.652238 749.788792 
L 391.921625 750.600391 
L 393.191012 752.266057 
L 394.4604 751.045125 
L 396.999175 752.132549 
L 398.268563 752.123221 
L 399.53795 749.393702 
L 400.807338 750.38509 
L 402.076725 750.934584 
L 403.346113 751.223516 
L 404.6155 752.53406 
L 405.884887 751.417488 
L 407.154275 751.557173 
L 408.423663 753.006213 
L 409.69305 753.063796 
L 410.962438 751.885296 
L 412.231825 751.588653 
L 413.501213 752.23711 
L 414.7706 754.73974 
L 416.039987 754.130173 
L 417.309375 753.317808 
L 418.578762 752.349095 
L 419.84815 752.17098 
L 421.117538 750.879383 
L 422.386925 750.298525 
L 423.656313 750.857463 
L 424.9257 749.769876 
L 426.195087 749.961969 
L 427.464475 749.993786 
L 428.733862 748.740231 
L 430.00325 750.114886 
L 431.272638 751.175373 
L 433.811413 752.557534 
L 435.0808 753.668181 
L 436.350188 753.824258 
L 437.619575 752.814557 
L 438.888962 749.936763 
L 440.15835 751.424282 
L 441.427737 753.149294 
L 442.697125 752.99492 
L 443.966513 753.957044 
L 445.2359 754.003644 
L 446.505288 752.498997 
L 447.774675 751.697608 
L 449.044062 752.978934 
L 450.31345 751.110407 
L 451.582837 752.177203 
L 452.852225 751.565633 
L 455.391 753.370595 
L 456.660388 752.937945 
L 457.929775 752.025903 
L 459.199162 751.340431 
L 460.46855 751.225674 
L 461.737937 750.816969 
L 463.007325 751.018716 
L 464.276713 750.385789 
L 465.5461 751.740933 
L 466.815488 753.274892 
L 468.084875 751.768808 
L 469.354263 754.021343 
L 470.62365 752.33049 
L 471.893037 751.046222 
L 473.162425 752.303725 
L 474.431812 751.147612 
L 475.7012 752.899031 
L 476.970588 753.341819 
L 478.239975 753.140655 
L 479.509363 755.735853 
L 480.77875 755.017217 
L 482.048137 756.167324 
L 483.317525 754.593455 
L 485.8563 753.248945 
L 487.125688 755.03598 
L 488.395075 753.355202 
L 489.664463 752.58438 
L 490.93385 753.722146 
L 492.203238 756.025956 
L 493.472625 756.46679 
L 494.742012 753.03819 
L 496.0114 751.149262 
L 497.280787 752.478204 
L 498.550175 749.417997 
L 499.819563 751.225654 
L 501.08895 751.106377 
L 502.358338 752.219634 
L 503.627725 751.133721 
L 504.897112 750.393198 
L 507.435887 753.87601 
L 508.705275 752.02553 
L 511.24405 753.556244 
L 512.513438 753.99968 
L 513.782825 754.569545 
L 515.052212 754.842455 
L 516.3216 754.334667 
L 517.590987 753.373895 
L 518.860375 753.608924 
L 520.129762 754.308438 
L 521.39915 752.829858 
L 522.668537 752.707229 
L 523.937925 753.068614 
L 525.207312 752.62997 
L 526.4767 754.32885 
L 527.746087 753.173997 
L 530.284862 753.596332 
L 532.823638 750.899588 
L 534.093025 753.77211 
L 535.362413 755.957868 
L 537.901187 755.73013 
L 539.170575 753.281775 
L 540.439962 751.345794 
L 541.70935 750.692409 
L 542.978737 751.992134 
L 544.248125 751.820563 
L 545.517512 752.129195 
L 546.7869 753.957601 
L 548.056287 755.12365 
L 549.325675 753.162786 
L 550.595062 754.740543 
L 551.86445 754.583807 
L 553.133837 752.799175 
L 554.403225 754.908767 
L 555.672613 752.81018 
L 556.942 754.10217 
L 558.211388 753.950804 
L 559.480775 754.446611 
L 560.750162 753.982205 
L 562.01955 754.056712 
L 563.288937 753.492423 
L 564.558325 754.359719 
L 565.827712 754.339271 
L 567.0971 753.640498 
L 568.366487 750.977161 
L 569.635875 751.65141 
L 572.17465 751.714865 
L 573.444037 750.985865 
L 574.713425 752.253845 
L 575.982812 752.998624 
L 577.2522 752.606944 
L 579.790975 754.453703 
L 581.060362 755.040955 
L 582.32975 756.042803 
L 584.868525 754.654859 
L 586.137912 753.209692 
L 587.4073 753.397121 
L 588.676687 752.711907 
L 589.946075 752.942061 
L 592.48485 752.465224 
L 593.754237 752.038044 
L 595.023625 748.532204 
L 596.293012 746.848665 
L 597.5624 749.006006 
L 598.831788 749.39329 
L 600.101175 748.910178 
L 601.370563 749.810178 
L 602.63995 750.027566 
L 603.909337 753.502243 
L 605.178725 753.033502 
L 606.448112 753.128213 
L 608.986887 752.754949 
L 611.525662 752.814757 
L 612.79505 754.317967 
L 614.064437 754.89813 
L 616.603212 755.813325 
L 617.8726 753.201803 
L 619.141987 751.386562 
L 620.411375 750.40441 
L 621.680762 752.532808 
L 622.95015 753.954602 
L 624.219537 753.873345 
L 625.488925 754.349493 
L 626.758312 753.127309 
L 628.0277 754.810771 
L 629.297087 754.802753 
L 630.566475 755.618599 
L 631.835862 755.569654 
L 634.374637 753.239918 
L 635.644025 753.725435 
L 636.913412 753.476438 
L 638.1828 753.841512 
L 640.721575 753.656545 
L 641.990962 754.666308 
L 643.26035 753.508784 
L 644.529737 754.169479 
L 645.799125 756.280236 
L 647.068512 755.916737 
L 648.3379 753.336105 
L 649.607287 752.702074 
L 650.876675 753.944425 
L 652.146062 754.147481 
L 653.41545 751.123524 
L 654.684837 748.90097 
L 657.223612 748.852842 
L 658.493 751.15737 
L 659.762387 752.346595 
L 661.031775 752.187976 
L 662.301162 752.639487 
L 663.57055 752.192019 
L 664.839937 751.558305 
L 666.109325 751.509231 
L 667.378712 750.83705 
L 668.6481 750.864765 
L 669.917487 751.528374 
L 671.186875 748.777603 
L 672.456262 751.968275 
L 673.72565 752.379057 
L 674.995037 752.597875 
L 676.264425 750.312527 
L 677.533812 751.706724 
L 678.8032 752.085063 
L 680.072587 751.343156 
L 681.341975 751.75841 
L 682.611362 752.019542 
L 683.88075 754.310033 
L 686.419525 751.173724 
L 687.688912 749.022708 
L 688.9583 751.305293 
L 690.227687 751.091042 
L 691.497075 753.168893 
L 692.766462 754.119655 
L 694.03585 755.712611 
L 695.305237 757.499521 
L 696.574625 754.116105 
L 697.844012 753.094419 
L 699.1134 751.511214 
L 700.382787 752.564175 
L 701.652175 755.044158 
L 702.921562 755.670165 
L 705.460337 753.105216 
L 706.729725 754.928842 
L 707.999112 754.57478 
L 709.2685 755.415802 
L 710.537887 757.286843 
L 711.807275 755.987089 
L 713.076662 755.117402 
L 714.34605 754.849193 
L 715.615437 754.866136 
L 716.884825 753.769523 
L 718.154212 753.598834 
L 719.4236 753.093601 
L 720.692987 751.126116 
L 721.962375 752.698281 
L 723.231762 751.36337 
L 724.50115 749.452951 
L 725.770537 748.91679 
L 727.039925 750.20988 
L 728.309312 750.868051 
L 729.5787 749.590521 
L 730.848087 750.88639 
L 732.117475 751.792962 
L 734.65625 753.291909 
L 735.925637 754.600444 
L 737.195025 753.550639 
L 738.464412 754.049251 
L 739.7338 751.537768 
L 742.272575 752.441592 
L 743.541962 753.327877 
L 744.81135 753.2039 
L 746.080737 753.458521 
L 747.350125 754.098457 
L 748.619512 752.85426 
L 749.8889 754.143731 
L 751.158287 754.47603 
L 752.427675 752.343453 
L 753.697062 752.267235 
L 754.96645 753.898033 
L 756.235837 755.154012 
L 757.505225 754.330569 
L 760.044 754.748141 
L 761.313387 754.195692 
L 762.582775 754.364541 
L 763.852162 752.553051 
L 765.12155 753.123951 
L 766.390937 751.597186 
L 767.660325 752.193244 
L 768.929712 753.017405 
L 770.1991 754.323325 
L 771.468487 754.102764 
L 772.737875 752.409829 
L 774.007262 754.050921 
L 775.27665 754.508196 
L 776.546037 753.418335 
L 777.815425 753.527731 
L 779.084812 753.872908 
L 780.3542 753.164189 
L 781.623587 753.290249 
L 782.892975 751.427831 
L 784.162362 751.012303 
L 785.43175 752.213713 
L 786.701137 750.09372 
L 789.239912 750.793196 
L 791.778687 752.806438 
L 794.317462 752.276864 
L 795.58685 752.140879 
L 796.856237 752.98996 
L 798.125625 754.045182 
L 799.395012 753.793025 
L 800.6644 754.383016 
L 801.933787 752.333044 
L 803.203175 754.415086 
L 804.472562 750.771941 
L 805.74195 748.249103 
L 807.011337 749.005361 
L 808.280725 749.245333 
L 809.550112 750.824514 
L 810.8195 749.323554 
L 812.088887 751.213856 
L 813.358275 751.503492 
L 814.627662 752.031331 
L 815.89705 752.419531 
L 817.166437 751.034425 
L 818.435825 751.655622 
L 819.705212 750.866379 
L 820.9746 752.298781 
L 823.513375 754.134978 
L 824.782762 754.093924 
L 826.05215 753.096459 
L 827.321537 752.770079 
L 828.590925 753.135396 
L 829.860312 754.853431 
L 831.1297 755.045667 
L 834.937862 757.499265 
L 836.20725 756.889743 
L 837.476637 754.133186 
L 838.746025 754.667522 
L 840.015412 752.437392 
L 841.2848 754.03961 
L 842.554187 754.863489 
L 843.823575 752.913607 
L 845.092962 753.259123 
L 846.36235 753.894957 
L 847.631737 752.95911 
L 848.901125 751.517851 
L 850.170512 753.019062 
L 851.4399 751.884536 
L 852.709287 754.425887 
L 853.978675 753.525192 
L 855.248062 753.06806 
L 856.51745 751.688882 
L 857.786837 751.623467 
L 859.056225 752.513968 
L 860.325612 752.814978 
L 861.595 753.954543 
L 862.864387 754.298086 
L 864.133775 753.854178 
L 865.403162 754.254591 
L 866.67255 754.532116 
L 867.941937 754.098666 
L 869.211325 754.622325 
L 870.480712 753.913858 
L 871.7501 751.248642 
L 874.288875 753.015164 
L 876.82765 751.551805 
L 878.097037 751.866636 
L 880.635812 751.48782 
L 881.9052 749.477024 
L 883.174587 750.634265 
L 884.443975 752.155998 
L 885.713362 750.471855 
L 886.98275 750.054517 
L 888.252137 751.900571 
L 889.521525 751.130437 
L 890.790912 752.091347 
L 892.0603 752.297086 
L 893.329687 751.490908 
L 894.599075 749.554473 
L 895.868462 750.538979 
L 897.13785 753.179718 
L 898.407237 750.455481 
L 899.676625 750.79508 
L 900.946012 750.255118 
L 902.2154 751.859086 
L 903.484787 751.69652 
L 904.754175 753.214183 
L 906.023562 754.02703 
L 907.29295 752.052584 
L 908.562337 752.572169 
L 909.831725 752.468664 
L 911.101112 750.420595 
L 912.3705 751.823796 
L 913.639887 752.217326 
L 914.909275 752.896482 
L 916.178662 754.72161 
L 917.44805 752.980321 
L 918.717437 754.185666 
L 919.986825 754.173818 
L 921.256212 752.865894 
L 922.5256 751.021989 
L 923.794987 752.037003 
L 925.064375 752.175741 
L 926.333762 753.107379 
L 927.60315 754.784562 
L 928.872537 754.239249 
L 930.141925 754.810389 
L 931.411312 756.227445 
L 932.6807 754.415532 
L 933.950087 754.745021 
L 935.219475 754.120147 
L 936.488862 753.776719 
L 937.75825 755.234869 
L 939.027637 753.812272 
L 940.297025 754.261812 
L 941.566412 754.532571 
L 942.8358 754.52037 
L 944.105187 754.247825 
L 945.374575 753.167544 
L 946.643962 751.675563 
L 947.91335 751.97125 
L 949.182737 751.384844 
L 950.452125 750.943936 
L 951.721512 752.047208 
L 952.9909 751.386972 
L 954.260287 752.806653 
L 955.529675 750.254415 
L 956.799062 752.614956 
L 958.06845 752.434122 
L 959.337837 750.501477 
L 961.876612 750.873113 
L 963.146 751.276459 
L 964.415387 753.074808 
L 965.684775 753.504556 
L 966.954162 753.498771 
L 968.22355 752.997586 
L 969.492937 753.526761 
L 970.762325 754.345421 
L 972.031712 755.526214 
L 973.3011 754.775301 
L 974.570487 756.050132 
L 975.839875 756.804269 
L 977.109262 755.138481 
L 978.37865 755.145161 
L 979.648037 754.019425 
L 982.186812 752.01265 
L 983.4562 750.072555 
L 984.725587 750.916817 
L 985.994975 750.803676 
L 987.264362 749.649988 
L 988.53375 750.32934 
L 989.803137 751.237694 
L 991.072525 751.379896 
L 992.341912 752.11543 
L 993.6113 749.154076 
L 994.880687 750.845555 
L 996.150075 750.040559 
L 997.419462 749.940924 
L 998.68885 751.17969 
L 999.958237 751.565358 
L 1001.227625 751.427637 
L 1003.7664 754.564098 
L 1005.035787 754.409996 
L 1006.305175 751.231606 
L 1007.574562 753.098677 
L 1008.84395 752.173875 
L 1010.113337 752.949536 
L 1011.382725 753.449734 
L 1012.652112 753.083024 
L 1013.9215 753.476401 
L 1015.190887 751.28994 
L 1016.460275 750.785831 
L 1017.729662 752.254773 
L 1018.99905 751.082397 
L 1020.268437 753.183232 
L 1021.537825 751.663003 
L 1022.807212 751.199464 
L 1024.0766 753.630276 
L 1025.345987 751.608442 
L 1026.615375 751.993888 
L 1027.884762 753.576741 
L 1029.15415 753.597719 
L 1030.423538 750.846611 
L 1031.692925 752.068369 
L 1032.962313 751.475831 
L 1034.2317 752.04995 
L 1035.501088 751.128068 
L 1036.770475 752.239898 
L 1039.30925 755.109339 
L 1040.578638 756.088771 
L 1041.848025 756.225225 
L 1043.117413 753.752335 
L 1044.3868 753.005394 
L 1045.656187 754.478239 
L 1046.925575 753.927686 
L 1048.194962 753.739426 
L 1049.46435 751.254908 
L 1050.733737 752.952607 
L 1052.003125 753.049666 
L 1053.272512 750.404293 
L 1054.5419 753.16231 
L 1055.811287 751.109099 
L 1057.080675 750.797863 
L 1058.350062 750.706307 
L 1059.61945 751.353659 
L 1060.888837 752.908805 
L 1062.158225 753.647102 
L 1063.427612 752.34753 
L 1064.697 754.502069 
L 1065.966387 751.88651 
L 1067.235775 753.577012 
L 1068.505162 752.708124 
L 1069.77455 752.721693 
L 1071.043937 755.019606 
L 1072.313325 753.426194 
L 1073.582712 753.43345 
L 1074.8521 752.190104 
L 1076.121488 752.710753 
L 1077.390875 751.77117 
L 1078.660263 753.018581 
L 1081.199038 752.760376 
L 1082.468425 751.303529 
L 1083.737813 754.208786 
L 1085.0072 754.64417 
L 1086.276588 752.972888 
L 1087.545975 753.858983 
L 1088.815362 754.346983 
L 1090.08475 754.030096 
L 1092.623525 752.004701 
L 1093.892912 751.771544 
L 1095.1623 752.402477 
L 1096.431687 751.280237 
L 1097.701075 752.915195 
L 1098.970462 753.167179 
L 1100.23985 752.959819 
L 1101.509237 751.726897 
L 1102.778625 749.090443 
L 1104.048012 748.221287 
L 1105.3174 747.713899 
L 1106.586787 748.955451 
L 1107.856175 750.40054 
L 1109.125562 751.14653 
L 1110.39495 753.36567 
L 1111.664337 752.377543 
L 1112.933725 753.209108 
L 1114.203112 754.918529 
L 1115.4725 755.620645 
L 1116.741887 755.302661 
L 1118.011275 754.642853 
L 1120.55005 756.376361 
L 1121.819438 756.373886 
L 1123.088825 756.043393 
L 1124.358213 753.481405 
L 1125.6276 753.855108 
L 1126.896988 754.406099 
L 1128.166375 753.126013 
L 1129.435763 753.609933 
L 1130.70515 753.615058 
L 1131.974537 753.345917 
L 1133.243925 750.757785 
L 1134.513312 750.613221 
L 1135.7827 749.686171 
L 1138.321475 749.060655 
L 1139.590862 749.266299 
L 1140.86025 750.411237 
L 1142.129637 751.355896 
L 1143.399025 752.878152 
L 1144.668412 753.369799 
L 1145.9378 752.018462 
L 1147.207187 751.150349 
L 1148.476575 751.719675 
L 1149.745962 752.761112 
L 1151.01535 751.370329 
L 1152.284737 753.096342 
L 1154.823513 751.81883 
L 1156.0929 753.135985 
L 1157.362288 751.201049 
L 1158.631675 751.2782 
L 1159.901063 749.397255 
L 1161.17045 751.917128 
L 1162.439838 751.274564 
L 1163.709225 749.913012 
L 1164.978613 750.257609 
L 1166.248 751.860979 
L 1167.517388 753.06678 
L 1168.786775 752.234372 
L 1170.056163 751.70716 
L 1171.32555 751.532016 
L 1172.594938 753.083313 
L 1173.864325 755.630344 
L 1175.133713 756.671203 
L 1176.4031 756.37644 
L 1177.672487 757.067897 
L 1178.941875 754.86413 
L 1180.211262 756.360294 
L 1181.48065 755.898843 
L 1182.750037 753.445339 
L 1184.019425 753.026147 
L 1185.288812 752.04129 
L 1186.5582 752.118724 
L 1187.827587 750.871751 
L 1189.096975 751.707368 
L 1190.366362 751.143659 
L 1191.63575 753.854565 
L 1194.174525 750.976015 
L 1195.443912 750.937441 
L 1196.7133 753.014161 
L 1197.982687 753.712466 
L 1199.252075 754.816372 
L 1200.521463 752.254511 
L 1201.79085 752.909028 
L 1203.060238 750.888126 
L 1204.329625 751.451108 
L 1206.8684 753.649774 
L 1208.137788 752.280066 
L 1209.407175 752.615377 
L 1210.676563 755.629705 
L 1211.94595 754.168042 
L 1213.215338 752.953921 
L 1214.484725 754.769764 
L 1215.754113 754.296147 
L 1218.292888 755.022335 
L 1219.562275 754.464192 
L 1220.831662 750.027807 
L 1222.10105 750.699368 
L 1223.370437 750.190564 
L 1224.639825 750.078985 
L 1225.909212 751.878177 
L 1227.1786 751.793167 
L 1228.447987 752.117444 
L 1229.717375 753.016695 
L 1230.986762 753.331542 
L 1232.25615 754.376682 
L 1233.525537 753.952276 
L 1236.064312 752.331261 
L 1237.3337 751.89324 
L 1238.603087 752.775008 
L 1239.872475 753.251819 
L 1241.141862 752.036449 
L 1242.41125 753.71651 
L 1243.680638 753.961843 
L 1244.950025 753.460683 
L 1246.219413 753.232301 
L 1247.4888 750.52589 
L 1248.758188 751.871513 
L 1250.027575 751.931986 
L 1251.296963 752.550471 
L 1252.56635 752.316032 
L 1253.835738 753.929207 
L 1255.105125 754.720286 
L 1256.374513 750.948983 
L 1257.6439 752.451651 
L 1258.913288 752.212523 
L 1260.182675 753.410907 
L 1261.452063 754.851288 
L 1262.72145 754.513108 
L 1263.990837 753.898895 
L 1265.260225 752.81869 
L 1266.529612 750.784946 
L 1267.799 751.566259 
L 1269.068387 753.255471 
L 1270.337775 752.762053 
L 1271.607162 754.322788 
L 1272.87655 754.335222 
L 1274.145937 752.123227 
L 1275.415325 750.153823 
L 1276.684712 749.481745 
L 1277.9541 749.94757 
L 1279.223487 746.299998 
L 1280.492875 748.175268 
L 1281.762262 749.457624 
L 1283.03165 748.560764 
L 1284.301037 749.965312 
L 1285.570425 751.186795 
L 1286.839812 753.333093 
L 1288.1092 754.173036 
L 1289.378588 754.794369 
L 1290.647975 754.116183 
L 1291.917363 752.95585 
L 1293.18675 755.342184 
L 1294.456138 754.809294 
L 1295.725525 752.607985 
L 1296.994913 754.273249 
L 1298.2643 754.115332 
L 1299.533688 754.761384 
L 1300.803075 754.629232 
L 1302.072463 753.960719 
L 1303.34185 754.712751 
L 1304.611238 753.437394 
L 1305.880625 751.946087 
L 1307.150013 752.02519 
L 1308.4194 753.862717 
L 1309.688787 753.866644 
L 1310.958175 751.428411 
L 1312.227562 752.037453 
L 1313.49695 751.00268 
L 1314.766337 752.908056 
L 1316.035725 753.554168 
L 1317.305112 752.550966 
L 1318.5745 752.763785 
L 1319.843887 753.941832 
L 1321.113275 754.643201 
L 1323.65205 750.855325 
L 1324.921437 752.479026 
L 1326.190825 752.36008 
L 1327.460212 751.721397 
L 1328.7296 752.78933 
L 1329.998987 752.273657 
L 1332.537762 752.266294 
L 1333.80715 752.407987 
L 1335.076538 753.831551 
L 1336.345925 753.650812 
L 1337.615313 755.038805 
L 1338.8847 754.575986 
L 1340.154088 751.055302 
L 1341.423475 751.138051 
L 1342.692863 751.996978 
L 1345.231638 752.897862 
L 1346.501025 755.064828 
L 1347.770413 753.835481 
L 1349.0398 754.3059 
L 1350.309188 753.001953 
L 1351.578575 752.56259 
L 1352.847962 751.627068 
L 1354.11735 752.083873 
L 1356.656125 749.933023 
L 1357.925512 750.519754 
L 1359.1949 750.353631 
L 1360.464287 749.94937 
L 1361.733675 750.948508 
L 1363.003062 750.202564 
L 1364.27245 748.916435 
L 1365.541837 750.778507 
L 1366.811225 752.348687 
L 1368.080612 750.199845 
L 1368.080612 750.199845 
" style="fill:none;stroke:#008000;stroke-linecap:square;stroke-width:2.0;"/>
   </g>
   <g id="patch_3">
    <path d="M 99.9625 60.8 
L 1369.35 60.8 
" style="fill:none;stroke:#000000;stroke-linecap:square;stroke-linejoin:miter;"/>
   </g>
   <g id="patch_4">
    <path d="M 1369.35 763.2 
L 1369.35 60.8 
" style="fill:none;stroke:#000000;stroke-linecap:square;stroke-linejoin:miter;"/>
   </g>
   <g id="patch_5">
    <path d="M 99.9625 763.2 
L 1369.35 763.2 
" style="fill:none;stroke:#000000;stroke-linecap:square;stroke-linejoin:miter;"/>
   </g>
   <g id="patch_6">
    <path d="M 99.9625 763.2 
L 99.9625 60.8 
" style="fill:none;stroke:#000000;stroke-linecap:square;stroke-linejoin:miter;"/>
   </g>
   <g id="matplotlib.axis_1">
    <g id="xtick_1">
     <g id="line2d_3">
      <defs>
       <path d="M 0 0 
L 0 -4 
" id="m94a4b19ee6" style="stroke:#000000;stroke-width:0.5;"/>
      </defs>
      <g>
       <use style="stroke:#000000;stroke-width:0.5;" x="99.9625" xlink:href="#m94a4b19ee6" y="763.2"/>
      </g>
     </g>
     <g id="line2d_4">
      <defs>
       <path d="M 0 0 
L 0 4 
" id="mf6cf0db674" style="stroke:#000000;stroke-width:0.5;"/>
      </defs>
      <g>
       <use style="stroke:#000000;stroke-width:0.5;" x="99.9625" xlink:href="#mf6cf0db674" y="60.8"/>
      </g>
     </g>
     <g id="text_1">
      <!-- 0 -->
      <defs>
       <path d="M 31.78125 66.40625 
Q 24.171875 66.40625 20.328125 58.90625 
Q 16.5 51.421875 16.5 36.375 
Q 16.5 21.390625 20.328125 13.890625 
Q 24.171875 6.390625 31.78125 6.390625 
Q 39.453125 6.390625 43.28125 13.890625 
Q 47.125 21.390625 47.125 36.375 
Q 47.125 51.421875 43.28125 58.90625 
Q 39.453125 66.40625 31.78125 66.40625 
M 31.78125 74.21875 
Q 44.046875 74.21875 50.515625 64.515625 
Q 56.984375 54.828125 56.984375 36.375 
Q 56.984375 17.96875 50.515625 8.265625 
Q 44.046875 -1.421875 31.78125 -1.421875 
Q 19.53125 -1.421875 13.0625 8.265625 
Q 6.59375 17.96875 6.59375 36.375 
Q 6.59375 54.828125 13.0625 64.515625 
Q 19.53125 74.21875 31.78125 74.21875 
" id="BitstreamVeraSans-Roman-30"/>
      </defs>
      <g transform="translate(90.41875 789.9953125)scale(0.3 -0.3)">
       <use xlink:href="#BitstreamVeraSans-Roman-30"/>
      </g>
     </g>
    </g>
    <g id="xtick_2">
     <g id="line2d_5">
      <g>
       <use style="stroke:#000000;stroke-width:0.5;" x="353.84" xlink:href="#m94a4b19ee6" y="763.2"/>
      </g>
     </g>
     <g id="line2d_6">
      <g>
       <use style="stroke:#000000;stroke-width:0.5;" x="353.84" xlink:href="#mf6cf0db674" y="60.8"/>
      </g>
     </g>
     <g id="text_2">
      <!-- 200 -->
      <defs>
       <path d="M 19.1875 8.296875 
L 53.609375 8.296875 
L 53.609375 0 
L 7.328125 0 
L 7.328125 8.296875 
Q 12.9375 14.109375 22.625 23.890625 
Q 32.328125 33.6875 34.8125 36.53125 
Q 39.546875 41.84375 41.421875 45.53125 
Q 43.3125 49.21875 43.3125 52.78125 
Q 43.3125 58.59375 39.234375 62.25 
Q 35.15625 65.921875 28.609375 65.921875 
Q 23.96875 65.921875 18.8125 64.3125 
Q 13.671875 62.703125 7.8125 59.421875 
L 7.8125 69.390625 
Q 13.765625 71.78125 18.9375 73 
Q 24.125 74.21875 28.421875 74.21875 
Q 39.75 74.21875 46.484375 68.546875 
Q 53.21875 62.890625 53.21875 53.421875 
Q 53.21875 48.921875 51.53125 44.890625 
Q 49.859375 40.875 45.40625 35.40625 
Q 44.1875 33.984375 37.640625 27.21875 
Q 31.109375 20.453125 19.1875 8.296875 
" id="BitstreamVeraSans-Roman-32"/>
      </defs>
      <g transform="translate(325.20875 789.9953125)scale(0.3 -0.3)">
       <use xlink:href="#BitstreamVeraSans-Roman-32"/>
       <use x="63.623046875" xlink:href="#BitstreamVeraSans-Roman-30"/>
       <use x="127.24609375" xlink:href="#BitstreamVeraSans-Roman-30"/>
      </g>
     </g>
    </g>
    <g id="xtick_3">
     <g id="line2d_7">
      <g>
       <use style="stroke:#000000;stroke-width:0.5;" x="607.7175" xlink:href="#m94a4b19ee6" y="763.2"/>
      </g>
     </g>
     <g id="line2d_8">
      <g>
       <use style="stroke:#000000;stroke-width:0.5;" x="607.7175" xlink:href="#mf6cf0db674" y="60.8"/>
      </g>
     </g>
     <g id="text_3">
      <!-- 400 -->
      <defs>
       <path d="M 37.796875 64.3125 
L 12.890625 25.390625 
L 37.796875 25.390625 
z
M 35.203125 72.90625 
L 47.609375 72.90625 
L 47.609375 25.390625 
L 58.015625 25.390625 
L 58.015625 17.1875 
L 47.609375 17.1875 
L 47.609375 0 
L 37.796875 0 
L 37.796875 17.1875 
L 4.890625 17.1875 
L 4.890625 26.703125 
z
" id="BitstreamVeraSans-Roman-34"/>
      </defs>
      <g transform="translate(579.08625 789.9953125)scale(0.3 -0.3)">
       <use xlink:href="#BitstreamVeraSans-Roman-34"/>
       <use x="63.623046875" xlink:href="#BitstreamVeraSans-Roman-30"/>
       <use x="127.24609375" xlink:href="#BitstreamVeraSans-Roman-30"/>
      </g>
     </g>
    </g>
    <g id="xtick_4">
     <g id="line2d_9">
      <g>
       <use style="stroke:#000000;stroke-width:0.5;" x="861.595" xlink:href="#m94a4b19ee6" y="763.2"/>
      </g>
     </g>
     <g id="line2d_10">
      <g>
       <use style="stroke:#000000;stroke-width:0.5;" x="861.595" xlink:href="#mf6cf0db674" y="60.8"/>
      </g>
     </g>
     <g id="text_4">
      <!-- 600 -->
      <defs>
       <path d="M 33.015625 40.375 
Q 26.375 40.375 22.484375 35.828125 
Q 18.609375 31.296875 18.609375 23.390625 
Q 18.609375 15.53125 22.484375 10.953125 
Q 26.375 6.390625 33.015625 6.390625 
Q 39.65625 6.390625 43.53125 10.953125 
Q 47.40625 15.53125 47.40625 23.390625 
Q 47.40625 31.296875 43.53125 35.828125 
Q 39.65625 40.375 33.015625 40.375 
M 52.59375 71.296875 
L 52.59375 62.3125 
Q 48.875 64.0625 45.09375 64.984375 
Q 41.3125 65.921875 37.59375 65.921875 
Q 27.828125 65.921875 22.671875 59.328125 
Q 17.53125 52.734375 16.796875 39.40625 
Q 19.671875 43.65625 24.015625 45.921875 
Q 28.375 48.1875 33.59375 48.1875 
Q 44.578125 48.1875 50.953125 41.515625 
Q 57.328125 34.859375 57.328125 23.390625 
Q 57.328125 12.15625 50.6875 5.359375 
Q 44.046875 -1.421875 33.015625 -1.421875 
Q 20.359375 -1.421875 13.671875 8.265625 
Q 6.984375 17.96875 6.984375 36.375 
Q 6.984375 53.65625 15.1875 63.9375 
Q 23.390625 74.21875 37.203125 74.21875 
Q 40.921875 74.21875 44.703125 73.484375 
Q 48.484375 72.75 52.59375 71.296875 
" id="BitstreamVeraSans-Roman-36"/>
      </defs>
      <g transform="translate(832.96375 789.9953125)scale(0.3 -0.3)">
       <use xlink:href="#BitstreamVeraSans-Roman-36"/>
       <use x="63.623046875" xlink:href="#BitstreamVeraSans-Roman-30"/>
       <use x="127.24609375" xlink:href="#BitstreamVeraSans-Roman-30"/>
      </g>
     </g>
    </g>
    <g id="xtick_5">
     <g id="line2d_11">
      <g>
       <use style="stroke:#000000;stroke-width:0.5;" x="1115.4725" xlink:href="#m94a4b19ee6" y="763.2"/>
      </g>
     </g>
     <g id="line2d_12">
      <g>
       <use style="stroke:#000000;stroke-width:0.5;" x="1115.4725" xlink:href="#mf6cf0db674" y="60.8"/>
      </g>
     </g>
     <g id="text_5">
      <!-- 800 -->
      <defs>
       <path d="M 31.78125 34.625 
Q 24.75 34.625 20.71875 30.859375 
Q 16.703125 27.09375 16.703125 20.515625 
Q 16.703125 13.921875 20.71875 10.15625 
Q 24.75 6.390625 31.78125 6.390625 
Q 38.8125 6.390625 42.859375 10.171875 
Q 46.921875 13.96875 46.921875 20.515625 
Q 46.921875 27.09375 42.890625 30.859375 
Q 38.875 34.625 31.78125 34.625 
M 21.921875 38.8125 
Q 15.578125 40.375 12.03125 44.71875 
Q 8.5 49.078125 8.5 55.328125 
Q 8.5 64.0625 14.71875 69.140625 
Q 20.953125 74.21875 31.78125 74.21875 
Q 42.671875 74.21875 48.875 69.140625 
Q 55.078125 64.0625 55.078125 55.328125 
Q 55.078125 49.078125 51.53125 44.71875 
Q 48 40.375 41.703125 38.8125 
Q 48.828125 37.15625 52.796875 32.3125 
Q 56.78125 27.484375 56.78125 20.515625 
Q 56.78125 9.90625 50.3125 4.234375 
Q 43.84375 -1.421875 31.78125 -1.421875 
Q 19.734375 -1.421875 13.25 4.234375 
Q 6.78125 9.90625 6.78125 20.515625 
Q 6.78125 27.484375 10.78125 32.3125 
Q 14.796875 37.15625 21.921875 38.8125 
M 18.3125 54.390625 
Q 18.3125 48.734375 21.84375 45.5625 
Q 25.390625 42.390625 31.78125 42.390625 
Q 38.140625 42.390625 41.71875 45.5625 
Q 45.3125 48.734375 45.3125 54.390625 
Q 45.3125 60.0625 41.71875 63.234375 
Q 38.140625 66.40625 31.78125 66.40625 
Q 25.390625 66.40625 21.84375 63.234375 
Q 18.3125 60.0625 18.3125 54.390625 
" id="BitstreamVeraSans-Roman-38"/>
      </defs>
      <g transform="translate(1086.84125 789.9953125)scale(0.3 -0.3)">
       <use xlink:href="#BitstreamVeraSans-Roman-38"/>
       <use x="63.623046875" xlink:href="#BitstreamVeraSans-Roman-30"/>
       <use x="127.24609375" xlink:href="#BitstreamVeraSans-Roman-30"/>
      </g>
     </g>
    </g>
    <g id="xtick_6">
     <g id="line2d_13">
      <g>
       <use style="stroke:#000000;stroke-width:0.5;" x="1369.35" xlink:href="#m94a4b19ee6" y="763.2"/>
      </g>
     </g>
     <g id="line2d_14">
      <g>
       <use style="stroke:#000000;stroke-width:0.5;" x="1369.35" xlink:href="#mf6cf0db674" y="60.8"/>
      </g>
     </g>
     <g id="text_6">
      <!-- 1000 -->
      <defs>
       <path d="M 12.40625 8.296875 
L 28.515625 8.296875 
L 28.515625 63.921875 
L 10.984375 60.40625 
L 10.984375 69.390625 
L 28.421875 72.90625 
L 38.28125 72.90625 
L 38.28125 8.296875 
L 54.390625 8.296875 
L 54.390625 0 
L 12.40625 0 
z
" id="BitstreamVeraSans-Roman-31"/>
      </defs>
      <g transform="translate(1331.175 789.9953125)scale(0.3 -0.3)">
       <use xlink:href="#BitstreamVeraSans-Roman-31"/>
       <use x="63.623046875" xlink:href="#BitstreamVeraSans-Roman-30"/>
       <use x="127.24609375" xlink:href="#BitstreamVeraSans-Roman-30"/>
       <use x="190.869140625" xlink:href="#BitstreamVeraSans-Roman-30"/>
      </g>
     </g>
    </g>
    <g id="text_7">
     <!-- iterations -->
     <defs>
      <path d="M 54.890625 33.015625 
L 54.890625 0 
L 45.90625 0 
L 45.90625 32.71875 
Q 45.90625 40.484375 42.875 44.328125 
Q 39.84375 48.1875 33.796875 48.1875 
Q 26.515625 48.1875 22.3125 43.546875 
Q 18.109375 38.921875 18.109375 30.90625 
L 18.109375 0 
L 9.078125 0 
L 9.078125 54.6875 
L 18.109375 54.6875 
L 18.109375 46.1875 
Q 21.34375 51.125 25.703125 53.5625 
Q 30.078125 56 35.796875 56 
Q 45.21875 56 50.046875 50.171875 
Q 54.890625 44.34375 54.890625 33.015625 
" id="BitstreamVeraSans-Roman-6e"/>
      <path d="M 34.28125 27.484375 
Q 23.390625 27.484375 19.1875 25 
Q 14.984375 22.515625 14.984375 16.5 
Q 14.984375 11.71875 18.140625 8.90625 
Q 21.296875 6.109375 26.703125 6.109375 
Q 34.1875 6.109375 38.703125 11.40625 
Q 43.21875 16.703125 43.21875 25.484375 
L 43.21875 27.484375 
z
M 52.203125 31.203125 
L 52.203125 0 
L 43.21875 0 
L 43.21875 8.296875 
Q 40.140625 3.328125 35.546875 0.953125 
Q 30.953125 -1.421875 24.3125 -1.421875 
Q 15.921875 -1.421875 10.953125 3.296875 
Q 6 8.015625 6 15.921875 
Q 6 25.140625 12.171875 29.828125 
Q 18.359375 34.515625 30.609375 34.515625 
L 43.21875 34.515625 
L 43.21875 35.40625 
Q 43.21875 41.609375 39.140625 45 
Q 35.0625 48.390625 27.6875 48.390625 
Q 23 48.390625 18.546875 47.265625 
Q 14.109375 46.140625 10.015625 43.890625 
L 10.015625 52.203125 
Q 14.9375 54.109375 19.578125 55.046875 
Q 24.21875 56 28.609375 56 
Q 40.484375 56 46.34375 49.84375 
Q 52.203125 43.703125 52.203125 31.203125 
" id="BitstreamVeraSans-Roman-61"/>
      <path d="M 30.609375 48.390625 
Q 23.390625 48.390625 19.1875 42.75 
Q 14.984375 37.109375 14.984375 27.296875 
Q 14.984375 17.484375 19.15625 11.84375 
Q 23.34375 6.203125 30.609375 6.203125 
Q 37.796875 6.203125 41.984375 11.859375 
Q 46.1875 17.53125 46.1875 27.296875 
Q 46.1875 37.015625 41.984375 42.703125 
Q 37.796875 48.390625 30.609375 48.390625 
M 30.609375 56 
Q 42.328125 56 49.015625 48.375 
Q 55.71875 40.765625 55.71875 27.296875 
Q 55.71875 13.875 49.015625 6.21875 
Q 42.328125 -1.421875 30.609375 -1.421875 
Q 18.84375 -1.421875 12.171875 6.21875 
Q 5.515625 13.875 5.515625 27.296875 
Q 5.515625 40.765625 12.171875 48.375 
Q 18.84375 56 30.609375 56 
" id="BitstreamVeraSans-Roman-6f"/>
      <path d="M 9.421875 54.6875 
L 18.40625 54.6875 
L 18.40625 0 
L 9.421875 0 
z
M 9.421875 75.984375 
L 18.40625 75.984375 
L 18.40625 64.59375 
L 9.421875 64.59375 
z
" id="BitstreamVeraSans-Roman-69"/>
      <path d="M 56.203125 29.59375 
L 56.203125 25.203125 
L 14.890625 25.203125 
Q 15.484375 15.921875 20.484375 11.0625 
Q 25.484375 6.203125 34.421875 6.203125 
Q 39.59375 6.203125 44.453125 7.46875 
Q 49.3125 8.734375 54.109375 11.28125 
L 54.109375 2.78125 
Q 49.265625 0.734375 44.1875 -0.34375 
Q 39.109375 -1.421875 33.890625 -1.421875 
Q 20.796875 -1.421875 13.15625 6.1875 
Q 5.515625 13.8125 5.515625 26.8125 
Q 5.515625 40.234375 12.765625 48.109375 
Q 20.015625 56 32.328125 56 
Q 43.359375 56 49.78125 48.890625 
Q 56.203125 41.796875 56.203125 29.59375 
M 47.21875 32.234375 
Q 47.125 39.59375 43.09375 43.984375 
Q 39.0625 48.390625 32.421875 48.390625 
Q 24.90625 48.390625 20.390625 44.140625 
Q 15.875 39.890625 15.1875 32.171875 
z
" id="BitstreamVeraSans-Roman-65"/>
      <path d="M 18.3125 70.21875 
L 18.3125 54.6875 
L 36.8125 54.6875 
L 36.8125 47.703125 
L 18.3125 47.703125 
L 18.3125 18.015625 
Q 18.3125 11.328125 20.140625 9.421875 
Q 21.96875 7.515625 27.59375 7.515625 
L 36.8125 7.515625 
L 36.8125 0 
L 27.59375 0 
Q 17.1875 0 13.234375 3.875 
Q 9.28125 7.765625 9.28125 18.015625 
L 9.28125 47.703125 
L 2.6875 47.703125 
L 2.6875 54.6875 
L 9.28125 54.6875 
L 9.28125 70.21875 
z
" id="BitstreamVeraSans-Roman-74"/>
      <path d="M 41.109375 46.296875 
Q 39.59375 47.171875 37.8125 47.578125 
Q 36.03125 48 33.890625 48 
Q 26.265625 48 22.1875 43.046875 
Q 18.109375 38.09375 18.109375 28.8125 
L 18.109375 0 
L 9.078125 0 
L 9.078125 54.6875 
L 18.109375 54.6875 
L 18.109375 46.1875 
Q 20.953125 51.171875 25.484375 53.578125 
Q 30.03125 56 36.53125 56 
Q 37.453125 56 38.578125 55.875 
Q 39.703125 55.765625 41.0625 55.515625 
z
" id="BitstreamVeraSans-Roman-72"/>
      <path d="M 44.28125 53.078125 
L 44.28125 44.578125 
Q 40.484375 46.53125 36.375 47.5 
Q 32.28125 48.484375 27.875 48.484375 
Q 21.1875 48.484375 17.84375 46.4375 
Q 14.5 44.390625 14.5 40.28125 
Q 14.5 37.15625 16.890625 35.375 
Q 19.28125 33.59375 26.515625 31.984375 
L 29.59375 31.296875 
Q 39.15625 29.25 43.1875 25.515625 
Q 47.21875 21.78125 47.21875 15.09375 
Q 47.21875 7.46875 41.1875 3.015625 
Q 35.15625 -1.421875 24.609375 -1.421875 
Q 20.21875 -1.421875 15.453125 -0.5625 
Q 10.6875 0.296875 5.421875 2 
L 5.421875 11.28125 
Q 10.40625 8.6875 15.234375 7.390625 
Q 20.0625 6.109375 24.8125 6.109375 
Q 31.15625 6.109375 34.5625 8.28125 
Q 37.984375 10.453125 37.984375 14.40625 
Q 37.984375 18.0625 35.515625 20.015625 
Q 33.0625 21.96875 24.703125 23.78125 
L 21.578125 24.515625 
Q 13.234375 26.265625 9.515625 29.90625 
Q 5.8125 33.546875 5.8125 39.890625 
Q 5.8125 47.609375 11.28125 51.796875 
Q 16.75 56 26.8125 56 
Q 31.78125 56 36.171875 55.265625 
Q 40.578125 54.546875 44.28125 53.078125 
" id="BitstreamVeraSans-Roman-73"/>
     </defs>
     <g transform="translate(663.47421875 824.0296875)scale(0.3 -0.3)">
      <use xlink:href="#BitstreamVeraSans-Roman-69"/>
      <use x="27.783203125" xlink:href="#BitstreamVeraSans-Roman-74"/>
      <use x="66.9921875" xlink:href="#BitstreamVeraSans-Roman-65"/>
      <use x="128.515625" xlink:href="#BitstreamVeraSans-Roman-72"/>
      <use x="169.62890625" xlink:href="#BitstreamVeraSans-Roman-61"/>
      <use x="230.908203125" xlink:href="#BitstreamVeraSans-Roman-74"/>
      <use x="270.1171875" xlink:href="#BitstreamVeraSans-Roman-69"/>
      <use x="297.900390625" xlink:href="#BitstreamVeraSans-Roman-6f"/>
      <use x="359.08203125" xlink:href="#BitstreamVeraSans-Roman-6e"/>
      <use x="422.4609375" xlink:href="#BitstreamVeraSans-Roman-73"/>
     </g>
    </g>
   </g>
   <g id="matplotlib.axis_2">
    <g id="ytick_1">
     <g id="line2d_15">
      <defs>
       <path d="M 0 0 
L 4 0 
" id="m19acd7fc0e" style="stroke:#000000;stroke-width:0.5;"/>
      </defs>
      <g>
       <use style="stroke:#000000;stroke-width:0.5;" x="99.9625" xlink:href="#m19acd7fc0e" y="763.2"/>
      </g>
     </g>
     <g id="line2d_16">
      <defs>
       <path d="M 0 0 
L -4 0 
" id="mbb8d7e05cc" style="stroke:#000000;stroke-width:0.5;"/>
      </defs>
      <g>
       <use style="stroke:#000000;stroke-width:0.5;" x="1369.35" xlink:href="#mbb8d7e05cc" y="763.2"/>
      </g>
     </g>
     <g id="text_8">
      <!-- 60 -->
      <defs>
       <path d="M 10.59375 35.5 
L 73.1875 35.5 
L 73.1875 27.203125 
L 10.59375 27.203125 
z
" id="BitstreamVeraSans-Roman-2212"/>
      </defs>
      <g transform="translate(32.6484375 771.478125)scale(0.3 -0.3)">
       <use xlink:href="#BitstreamVeraSans-Roman-2212"/>
       <use x="83.7890625" xlink:href="#BitstreamVeraSans-Roman-36"/>
       <use x="147.412109375" xlink:href="#BitstreamVeraSans-Roman-30"/>
      </g>
     </g>
    </g>
    <g id="ytick_2">
     <g id="line2d_17">
      <g>
       <use style="stroke:#000000;stroke-width:0.5;" x="99.9625" xlink:href="#m19acd7fc0e" y="675.4"/>
      </g>
     </g>
     <g id="line2d_18">
      <g>
       <use style="stroke:#000000;stroke-width:0.5;" x="1369.35" xlink:href="#mbb8d7e05cc" y="675.4"/>
      </g>
     </g>
     <g id="text_9">
      <!-- 50 -->
      <defs>
       <path d="M 10.796875 72.90625 
L 49.515625 72.90625 
L 49.515625 64.59375 
L 19.828125 64.59375 
L 19.828125 46.734375 
Q 21.96875 47.46875 24.109375 47.828125 
Q 26.265625 48.1875 28.421875 48.1875 
Q 40.625 48.1875 47.75 41.5 
Q 54.890625 34.8125 54.890625 23.390625 
Q 54.890625 11.625 47.5625 5.09375 
Q 40.234375 -1.421875 26.90625 -1.421875 
Q 22.3125 -1.421875 17.546875 -0.640625 
Q 12.796875 0.140625 7.71875 1.703125 
L 7.71875 11.625 
Q 12.109375 9.234375 16.796875 8.0625 
Q 21.484375 6.890625 26.703125 6.890625 
Q 35.15625 6.890625 40.078125 11.328125 
Q 45.015625 15.765625 45.015625 23.390625 
Q 45.015625 31 40.078125 35.4375 
Q 35.15625 39.890625 26.703125 39.890625 
Q 22.75 39.890625 18.8125 39.015625 
Q 14.890625 38.140625 10.796875 36.28125 
z
" id="BitstreamVeraSans-Roman-35"/>
      </defs>
      <g transform="translate(32.6484375 683.678125)scale(0.3 -0.3)">
       <use xlink:href="#BitstreamVeraSans-Roman-2212"/>
       <use x="83.7890625" xlink:href="#BitstreamVeraSans-Roman-35"/>
       <use x="147.412109375" xlink:href="#BitstreamVeraSans-Roman-30"/>
      </g>
     </g>
    </g>
    <g id="ytick_3">
     <g id="line2d_19">
      <g>
       <use style="stroke:#000000;stroke-width:0.5;" x="99.9625" xlink:href="#m19acd7fc0e" y="587.6"/>
      </g>
     </g>
     <g id="line2d_20">
      <g>
       <use style="stroke:#000000;stroke-width:0.5;" x="1369.35" xlink:href="#mbb8d7e05cc" y="587.6"/>
      </g>
     </g>
     <g id="text_10">
      <!-- 40 -->
      <g transform="translate(32.6484375 595.878125)scale(0.3 -0.3)">
       <use xlink:href="#BitstreamVeraSans-Roman-2212"/>
       <use x="83.7890625" xlink:href="#BitstreamVeraSans-Roman-34"/>
       <use x="147.412109375" xlink:href="#BitstreamVeraSans-Roman-30"/>
      </g>
     </g>
    </g>
    <g id="ytick_4">
     <g id="line2d_21">
      <g>
       <use style="stroke:#000000;stroke-width:0.5;" x="99.9625" xlink:href="#m19acd7fc0e" y="499.8"/>
      </g>
     </g>
     <g id="line2d_22">
      <g>
       <use style="stroke:#000000;stroke-width:0.5;" x="1369.35" xlink:href="#mbb8d7e05cc" y="499.8"/>
      </g>
     </g>
     <g id="text_11">
      <!-- 30 -->
      <defs>
       <path d="M 40.578125 39.3125 
Q 47.65625 37.796875 51.625 33 
Q 55.609375 28.21875 55.609375 21.1875 
Q 55.609375 10.40625 48.1875 4.484375 
Q 40.765625 -1.421875 27.09375 -1.421875 
Q 22.515625 -1.421875 17.65625 -0.515625 
Q 12.796875 0.390625 7.625 2.203125 
L 7.625 11.71875 
Q 11.71875 9.328125 16.59375 8.109375 
Q 21.484375 6.890625 26.8125 6.890625 
Q 36.078125 6.890625 40.9375 10.546875 
Q 45.796875 14.203125 45.796875 21.1875 
Q 45.796875 27.640625 41.28125 31.265625 
Q 36.765625 34.90625 28.71875 34.90625 
L 20.21875 34.90625 
L 20.21875 43.015625 
L 29.109375 43.015625 
Q 36.375 43.015625 40.234375 45.921875 
Q 44.09375 48.828125 44.09375 54.296875 
Q 44.09375 59.90625 40.109375 62.90625 
Q 36.140625 65.921875 28.71875 65.921875 
Q 24.65625 65.921875 20.015625 65.03125 
Q 15.375 64.15625 9.8125 62.3125 
L 9.8125 71.09375 
Q 15.4375 72.65625 20.34375 73.4375 
Q 25.25 74.21875 29.59375 74.21875 
Q 40.828125 74.21875 47.359375 69.109375 
Q 53.90625 64.015625 53.90625 55.328125 
Q 53.90625 49.265625 50.4375 45.09375 
Q 46.96875 40.921875 40.578125 39.3125 
" id="BitstreamVeraSans-Roman-33"/>
      </defs>
      <g transform="translate(32.6484375 508.078125)scale(0.3 -0.3)">
       <use xlink:href="#BitstreamVeraSans-Roman-2212"/>
       <use x="83.7890625" xlink:href="#BitstreamVeraSans-Roman-33"/>
       <use x="147.412109375" xlink:href="#BitstreamVeraSans-Roman-30"/>
      </g>
     </g>
    </g>
    <g id="ytick_5">
     <g id="line2d_23">
      <g>
       <use style="stroke:#000000;stroke-width:0.5;" x="99.9625" xlink:href="#m19acd7fc0e" y="412.0"/>
      </g>
     </g>
     <g id="line2d_24">
      <g>
       <use style="stroke:#000000;stroke-width:0.5;" x="1369.35" xlink:href="#mbb8d7e05cc" y="412.0"/>
      </g>
     </g>
     <g id="text_12">
      <!-- 20 -->
      <g transform="translate(32.6484375 420.278125)scale(0.3 -0.3)">
       <use xlink:href="#BitstreamVeraSans-Roman-2212"/>
       <use x="83.7890625" xlink:href="#BitstreamVeraSans-Roman-32"/>
       <use x="147.412109375" xlink:href="#BitstreamVeraSans-Roman-30"/>
      </g>
     </g>
    </g>
    <g id="ytick_6">
     <g id="line2d_25">
      <g>
       <use style="stroke:#000000;stroke-width:0.5;" x="99.9625" xlink:href="#m19acd7fc0e" y="324.2"/>
      </g>
     </g>
     <g id="line2d_26">
      <g>
       <use style="stroke:#000000;stroke-width:0.5;" x="1369.35" xlink:href="#mbb8d7e05cc" y="324.2"/>
      </g>
     </g>
     <g id="text_13">
      <!-- 10 -->
      <g transform="translate(32.6484375 332.478125)scale(0.3 -0.3)">
       <use xlink:href="#BitstreamVeraSans-Roman-2212"/>
       <use x="83.7890625" xlink:href="#BitstreamVeraSans-Roman-31"/>
       <use x="147.412109375" xlink:href="#BitstreamVeraSans-Roman-30"/>
      </g>
     </g>
    </g>
    <g id="ytick_7">
     <g id="line2d_27">
      <g>
       <use style="stroke:#000000;stroke-width:0.5;" x="99.9625" xlink:href="#m19acd7fc0e" y="236.4"/>
      </g>
     </g>
     <g id="line2d_28">
      <g>
       <use style="stroke:#000000;stroke-width:0.5;" x="1369.35" xlink:href="#mbb8d7e05cc" y="236.4"/>
      </g>
     </g>
     <g id="text_14">
      <!-- 0 -->
      <g transform="translate(76.875 244.678125)scale(0.3 -0.3)">
       <use xlink:href="#BitstreamVeraSans-Roman-30"/>
      </g>
     </g>
    </g>
    <g id="ytick_8">
     <g id="line2d_29">
      <g>
       <use style="stroke:#000000;stroke-width:0.5;" x="99.9625" xlink:href="#m19acd7fc0e" y="148.6"/>
      </g>
     </g>
     <g id="line2d_30">
      <g>
       <use style="stroke:#000000;stroke-width:0.5;" x="1369.35" xlink:href="#mbb8d7e05cc" y="148.6"/>
      </g>
     </g>
     <g id="text_15">
      <!-- 10 -->
      <g transform="translate(57.7875 156.878125)scale(0.3 -0.3)">
       <use xlink:href="#BitstreamVeraSans-Roman-31"/>
       <use x="63.623046875" xlink:href="#BitstreamVeraSans-Roman-30"/>
      </g>
     </g>
    </g>
    <g id="ytick_9">
     <g id="line2d_31">
      <g>
       <use style="stroke:#000000;stroke-width:0.5;" x="99.9625" xlink:href="#m19acd7fc0e" y="60.8"/>
      </g>
     </g>
     <g id="line2d_32">
      <g>
       <use style="stroke:#000000;stroke-width:0.5;" x="1369.35" xlink:href="#mbb8d7e05cc" y="60.8"/>
      </g>
     </g>
     <g id="text_16">
      <!-- 20 -->
      <g transform="translate(57.7875 69.078125)scale(0.3 -0.3)">
       <use xlink:href="#BitstreamVeraSans-Roman-32"/>
       <use x="63.623046875" xlink:href="#BitstreamVeraSans-Roman-30"/>
      </g>
     </g>
    </g>
   </g>
   <g id="text_17">
    <!-- log(loss) -->
    <defs>
     <path d="M 8.015625 75.875 
L 15.828125 75.875 
Q 23.140625 64.359375 26.78125 53.3125 
Q 30.421875 42.28125 30.421875 31.390625 
Q 30.421875 20.453125 26.78125 9.375 
Q 23.140625 -1.703125 15.828125 -13.1875 
L 8.015625 -13.1875 
Q 14.5 -2 17.703125 9.0625 
Q 20.90625 20.125 20.90625 31.390625 
Q 20.90625 42.671875 17.703125 53.65625 
Q 14.5 64.65625 8.015625 75.875 
" id="BitstreamVeraSans-Roman-29"/>
     <path d="M 31 75.875 
Q 24.46875 64.65625 21.28125 53.65625 
Q 18.109375 42.671875 18.109375 31.390625 
Q 18.109375 20.125 21.3125 9.0625 
Q 24.515625 -2 31 -13.1875 
L 23.1875 -13.1875 
Q 15.875 -1.703125 12.234375 9.375 
Q 8.59375 20.453125 8.59375 31.390625 
Q 8.59375 42.28125 12.203125 53.3125 
Q 15.828125 64.359375 23.1875 75.875 
z
" id="BitstreamVeraSans-Roman-28"/>
     <path d="M 45.40625 27.984375 
Q 45.40625 37.75 41.375 43.109375 
Q 37.359375 48.484375 30.078125 48.484375 
Q 22.859375 48.484375 18.828125 43.109375 
Q 14.796875 37.75 14.796875 27.984375 
Q 14.796875 18.265625 18.828125 12.890625 
Q 22.859375 7.515625 30.078125 7.515625 
Q 37.359375 7.515625 41.375 12.890625 
Q 45.40625 18.265625 45.40625 27.984375 
M 54.390625 6.78125 
Q 54.390625 -7.171875 48.1875 -13.984375 
Q 42 -20.796875 29.203125 -20.796875 
Q 24.46875 -20.796875 20.265625 -20.09375 
Q 16.0625 -19.390625 12.109375 -17.921875 
L 12.109375 -9.1875 
Q 16.0625 -11.328125 19.921875 -12.34375 
Q 23.78125 -13.375 27.78125 -13.375 
Q 36.625 -13.375 41.015625 -8.765625 
Q 45.40625 -4.15625 45.40625 5.171875 
L 45.40625 9.625 
Q 42.625 4.78125 38.28125 2.390625 
Q 33.9375 0 27.875 0 
Q 17.828125 0 11.671875 7.65625 
Q 5.515625 15.328125 5.515625 27.984375 
Q 5.515625 40.671875 11.671875 48.328125 
Q 17.828125 56 27.875 56 
Q 33.9375 56 38.28125 53.609375 
Q 42.625 51.21875 45.40625 46.390625 
L 45.40625 54.6875 
L 54.390625 54.6875 
z
" id="BitstreamVeraSans-Roman-67"/>
     <path d="M 9.421875 75.984375 
L 18.40625 75.984375 
L 18.40625 0 
L 9.421875 0 
z
" id="BitstreamVeraSans-Roman-6c"/>
    </defs>
    <g transform="translate(671.11015625 55.8)scale(0.3 -0.3)">
     <use xlink:href="#BitstreamVeraSans-Roman-6c"/>
     <use x="27.783203125" xlink:href="#BitstreamVeraSans-Roman-6f"/>
     <use x="88.96484375" xlink:href="#BitstreamVeraSans-Roman-67"/>
     <use x="152.44140625" xlink:href="#BitstreamVeraSans-Roman-28"/>
     <use x="191.455078125" xlink:href="#BitstreamVeraSans-Roman-6c"/>
     <use x="219.23828125" xlink:href="#BitstreamVeraSans-Roman-6f"/>
     <use x="280.419921875" xlink:href="#BitstreamVeraSans-Roman-73"/>
     <use x="332.51953125" xlink:href="#BitstreamVeraSans-Roman-73"/>
     <use x="384.619140625" xlink:href="#BitstreamVeraSans-Roman-29"/>
    </g>
   </g>
   <g id="legend_1">
    <g id="patch_7">
     <path d="M 1129.996875 172.86875 
L 1354.35 172.86875 
L 1354.35 75.8 
L 1129.996875 75.8 
z
" style="fill:#ffffff;stroke:#000000;stroke-linejoin:miter;"/>
    </g>
    <g id="line2d_33">
     <path d="M 1150.996875 100.095312 
L 1192.996875 100.095312 
" style="fill:none;stroke:#0000ff;stroke-linecap:square;stroke-width:2.0;"/>
    </g>
    <g id="line2d_34"/>
    <g id="text_18">
     <!-- random -->
     <defs>
      <path d="M 45.40625 46.390625 
L 45.40625 75.984375 
L 54.390625 75.984375 
L 54.390625 0 
L 45.40625 0 
L 45.40625 8.203125 
Q 42.578125 3.328125 38.25 0.953125 
Q 33.9375 -1.421875 27.875 -1.421875 
Q 17.96875 -1.421875 11.734375 6.484375 
Q 5.515625 14.40625 5.515625 27.296875 
Q 5.515625 40.1875 11.734375 48.09375 
Q 17.96875 56 27.875 56 
Q 33.9375 56 38.25 53.625 
Q 42.578125 51.265625 45.40625 46.390625 
M 14.796875 27.296875 
Q 14.796875 17.390625 18.875 11.75 
Q 22.953125 6.109375 30.078125 6.109375 
Q 37.203125 6.109375 41.296875 11.75 
Q 45.40625 17.390625 45.40625 27.296875 
Q 45.40625 37.203125 41.296875 42.84375 
Q 37.203125 48.484375 30.078125 48.484375 
Q 22.953125 48.484375 18.875 42.84375 
Q 14.796875 37.203125 14.796875 27.296875 
" id="BitstreamVeraSans-Roman-64"/>
      <path d="M 52 44.1875 
Q 55.375 50.25 60.0625 53.125 
Q 64.75 56 71.09375 56 
Q 79.640625 56 84.28125 50.015625 
Q 88.921875 44.046875 88.921875 33.015625 
L 88.921875 0 
L 79.890625 0 
L 79.890625 32.71875 
Q 79.890625 40.578125 77.09375 44.375 
Q 74.3125 48.1875 68.609375 48.1875 
Q 61.625 48.1875 57.5625 43.546875 
Q 53.515625 38.921875 53.515625 30.90625 
L 53.515625 0 
L 44.484375 0 
L 44.484375 32.71875 
Q 44.484375 40.625 41.703125 44.40625 
Q 38.921875 48.1875 33.109375 48.1875 
Q 26.21875 48.1875 22.15625 43.53125 
Q 18.109375 38.875 18.109375 30.90625 
L 18.109375 0 
L 9.078125 0 
L 9.078125 54.6875 
L 18.109375 54.6875 
L 18.109375 46.1875 
Q 21.1875 51.21875 25.484375 53.609375 
Q 29.78125 56 35.6875 56 
Q 41.65625 56 45.828125 52.96875 
Q 50 49.953125 52 44.1875 
" id="BitstreamVeraSans-Roman-6d"/>
     </defs>
     <g transform="translate(1225.996875 110.5953125)scale(0.3 -0.3)">
      <use xlink:href="#BitstreamVeraSans-Roman-72"/>
      <use x="41.11328125" xlink:href="#BitstreamVeraSans-Roman-61"/>
      <use x="102.392578125" xlink:href="#BitstreamVeraSans-Roman-6e"/>
      <use x="165.771484375" xlink:href="#BitstreamVeraSans-Roman-64"/>
      <use x="229.248046875" xlink:href="#BitstreamVeraSans-Roman-6f"/>
      <use x="290.4296875" xlink:href="#BitstreamVeraSans-Roman-6d"/>
     </g>
    </g>
    <g id="line2d_35">
     <path d="M 1150.996875 144.129687 
L 1192.996875 144.129687 
" style="fill:none;stroke:#008000;stroke-linecap:square;stroke-width:2.0;"/>
    </g>
    <g id="line2d_36"/>
    <g id="text_19">
     <!-- corr -->
     <defs>
      <path d="M 48.78125 52.59375 
L 48.78125 44.1875 
Q 44.96875 46.296875 41.140625 47.34375 
Q 37.3125 48.390625 33.40625 48.390625 
Q 24.65625 48.390625 19.8125 42.84375 
Q 14.984375 37.3125 14.984375 27.296875 
Q 14.984375 17.28125 19.8125 11.734375 
Q 24.65625 6.203125 33.40625 6.203125 
Q 37.3125 6.203125 41.140625 7.25 
Q 44.96875 8.296875 48.78125 10.40625 
L 48.78125 2.09375 
Q 45.015625 0.34375 40.984375 -0.53125 
Q 36.96875 -1.421875 32.421875 -1.421875 
Q 20.0625 -1.421875 12.78125 6.34375 
Q 5.515625 14.109375 5.515625 27.296875 
Q 5.515625 40.671875 12.859375 48.328125 
Q 20.21875 56 33.015625 56 
Q 37.15625 56 41.109375 55.140625 
Q 45.0625 54.296875 48.78125 52.59375 
" id="BitstreamVeraSans-Roman-63"/>
     </defs>
     <g transform="translate(1225.996875 154.6296875)scale(0.3 -0.3)">
      <use xlink:href="#BitstreamVeraSans-Roman-63"/>
      <use x="54.98046875" xlink:href="#BitstreamVeraSans-Roman-6f"/>
      <use x="116.162109375" xlink:href="#BitstreamVeraSans-Roman-72"/>
      <use x="157.259765625" xlink:href="#BitstreamVeraSans-Roman-72"/>
     </g>
    </g>
   </g>
  </g>
 </g>
 <defs>
  <clipPath id="pbb6df2de3a">
   <rect height="702.4" width="1269.3875" x="99.9625" y="60.8"/>
  </clipPath>
 </defs>
</svg>
