<?xml version="1.0" encoding="utf-8" standalone="no"?>
<!DOCTYPE svg PUBLIC "-//W3C//DTD SVG 1.1//EN"
  "http://www.w3.org/Graphics/SVG/1.1/DTD/svg11.dtd">
<!-- Created with matplotlib (http://matplotlib.org/) -->
<svg height="864pt" version="1.1" viewBox="0 0 1440 864" width="1440pt" xmlns="http://www.w3.org/2000/svg" xmlns:xlink="http://www.w3.org/1999/xlink">
 <defs>
  <style type="text/css">
*{stroke-linecap:butt;stroke-linejoin:round;stroke-miterlimit:100000;}
  </style>
 </defs>
 <g id="figure_1">
  <g id="patch_1">
   <path d="M 0 864 
L 1440 864 
L 1440 0 
L 0 0 
z
" style="fill:#ffffff;"/>
  </g>
  <g id="axes_1">
   <g id="patch_2">
    <path d="M 93.382656 770.338125 
L 1381.831875 770.338125 
L 1381.831875 57.915781 
L 93.382656 57.915781 
z
" style="fill:#ffffff;"/>
   </g>
   <g id="line2d_1">
    <path clip-path="url(#pb7e2d2a8f1)" d="M 93.382656 137.868574 
L 95.959555 139.040435 
L 101.113352 141.852604 
L 103.69025 143.527174 
L 111.420945 146.709189 
L 113.997844 148.013972 
L 116.574742 148.941793 
L 119.151641 150.148013 
L 121.728539 151.22205 
L 124.305438 152.901896 
L 132.036133 156.904729 
L 134.613031 158.079535 
L 137.18993 159.071875 
L 142.343727 161.389464 
L 144.920625 162.457721 
L 147.497523 163.845273 
L 150.074422 164.681971 
L 152.65132 165.862973 
L 157.805117 167.867565 
L 160.382016 169.178887 
L 162.958914 170.687611 
L 165.535813 171.86556 
L 170.689609 173.974719 
L 173.266508 175.114618 
L 178.420305 177.875776 
L 180.997203 178.557963 
L 183.574102 179.959135 
L 186.151 181.004668 
L 188.727898 181.826968 
L 191.304797 182.92171 
L 193.881695 183.878409 
L 196.458594 185.038785 
L 199.035492 186.444098 
L 204.189289 188.487389 
L 206.766188 189.815932 
L 209.343086 190.791806 
L 211.919984 191.577138 
L 219.65068 194.871732 
L 222.227578 196.152925 
L 224.804477 197.023968 
L 229.958273 199.554793 
L 232.535172 200.259222 
L 235.11207 201.247367 
L 240.265867 203.500523 
L 242.842766 204.560635 
L 247.996563 206.503369 
L 255.727258 209.864787 
L 258.304156 210.682959 
L 268.61175 215.382835 
L 271.188648 216.251473 
L 273.765547 217.278748 
L 278.919344 220.016064 
L 281.496242 221.280401 
L 284.073141 222.039048 
L 286.650039 222.928115 
L 294.380734 226.754644 
L 299.534531 228.59399 
L 302.11143 229.923002 
L 309.842125 233.433207 
L 312.419023 234.166139 
L 314.995922 235.130631 
L 322.726617 238.774951 
L 325.303516 239.784845 
L 327.880414 240.655274 
L 333.034211 242.846837 
L 335.611109 244.088331 
L 343.341805 247.134308 
L 345.918703 247.985069 
L 348.495602 248.979656 
L 351.0725 250.16438 
L 353.649398 251.14468 
L 356.226297 252.002076 
L 361.380094 254.703174 
L 363.956992 255.653548 
L 366.533891 257.089137 
L 369.110789 258.161494 
L 371.687688 259.089024 
L 381.995281 263.595124 
L 384.57218 264.741454 
L 387.149078 265.620968 
L 394.879773 268.984003 
L 397.456672 270.174266 
L 402.610469 272.084123 
L 405.187367 273.015391 
L 410.341164 275.509431 
L 412.918063 276.395154 
L 415.494961 277.704564 
L 420.648758 279.563942 
L 423.225656 280.457124 
L 425.802555 281.577694 
L 428.379453 282.926728 
L 430.956352 283.715092 
L 436.110148 285.797332 
L 438.687047 287.291245 
L 443.840844 289.527441 
L 446.417742 290.264511 
L 448.994641 291.511257 
L 456.725336 293.93686 
L 461.879133 296.405185 
L 464.456031 297.526526 
L 472.186727 300.201804 
L 474.763625 301.716269 
L 477.340523 302.509584 
L 479.917422 303.430307 
L 482.49432 304.614835 
L 485.071219 305.623813 
L 490.225016 308.197175 
L 492.801914 309.179039 
L 495.378813 310.524765 
L 500.532609 312.793083 
L 503.109508 314.064115 
L 505.686406 315.108048 
L 508.263305 315.992519 
L 510.840203 317.011944 
L 515.994 318.734229 
L 518.570898 319.666228 
L 521.147797 320.832444 
L 523.724695 321.87531 
L 528.878492 323.780583 
L 531.455391 324.857944 
L 534.032289 325.683434 
L 536.609188 327.242186 
L 539.186086 328.164263 
L 541.762984 328.916941 
L 544.339883 329.969617 
L 549.49368 331.488821 
L 552.070578 332.446505 
L 554.647477 333.169346 
L 559.801273 335.05081 
L 562.378172 336.366439 
L 564.95507 337.31758 
L 567.531969 338.049389 
L 575.262664 341.556381 
L 585.570258 345.313837 
L 588.147156 346.104285 
L 590.724055 347.066001 
L 593.300953 347.705479 
L 595.877852 349.182791 
L 598.45475 349.975437 
L 601.031648 351.167864 
L 603.608547 352.011628 
L 606.185445 352.975261 
L 616.493039 357.655085 
L 619.069938 358.530158 
L 634.531328 364.717536 
L 637.108227 365.90787 
L 642.262023 367.876408 
L 644.838922 369.013055 
L 647.41582 369.875329 
L 649.992719 370.514645 
L 660.300313 375.006115 
L 668.031008 378.4776 
L 670.607906 379.637636 
L 675.761703 381.306152 
L 680.9155 383.501102 
L 686.069297 385.71308 
L 693.799992 388.4516 
L 698.953789 390.716067 
L 701.530687 391.461263 
L 704.107586 392.635669 
L 709.261383 394.596998 
L 711.838281 395.318009 
L 714.41518 396.275596 
L 716.992078 397.523749 
L 719.568977 398.484468 
L 722.145875 399.195452 
L 724.722773 400.414516 
L 729.87657 402.188347 
L 732.453469 403.135548 
L 735.030367 404.375081 
L 737.607266 405.110464 
L 740.184164 406.165762 
L 742.761062 407.395461 
L 747.914859 409.584817 
L 750.491758 411.023371 
L 753.068656 412.117636 
L 755.645555 412.983482 
L 758.222453 414.163024 
L 760.799352 415.206721 
L 763.37625 415.978431 
L 765.953148 417.032376 
L 768.530047 417.96016 
L 771.106945 419.069376 
L 773.683844 419.818613 
L 776.260742 420.736795 
L 778.837641 421.315451 
L 781.414539 422.341651 
L 783.991437 423.116472 
L 786.568336 424.025312 
L 789.145234 425.347797 
L 791.722133 426.153832 
L 802.029727 430.198812 
L 804.606625 431.064305 
L 807.183523 432.20033 
L 814.914219 434.736599 
L 822.644914 437.737975 
L 825.221813 439.038057 
L 827.798711 439.767201 
L 830.375609 440.944647 
L 832.952508 441.839463 
L 835.529406 443.139723 
L 840.683203 444.602182 
L 845.837 446.693128 
L 848.413898 447.856943 
L 856.144594 451.014711 
L 858.721492 451.844502 
L 861.298391 452.883585 
L 863.875289 453.619637 
L 866.452188 454.589946 
L 869.029086 455.967353 
L 871.605984 456.924047 
L 874.182883 458.108726 
L 876.759781 459.501779 
L 879.33668 460.444516 
L 884.490477 462.562006 
L 889.644273 464.491126 
L 892.221172 465.612739 
L 894.79807 466.290918 
L 897.374969 467.64559 
L 899.951867 468.546875 
L 902.528766 469.692502 
L 907.682563 471.631578 
L 910.259461 472.525828 
L 917.990156 475.824865 
L 920.567055 476.594097 
L 923.143953 477.768242 
L 925.720852 479.074338 
L 930.874648 481.332933 
L 936.028445 483.038903 
L 938.605344 483.937481 
L 941.182242 485.109141 
L 943.759141 485.992923 
L 951.489836 489.302898 
L 954.066734 490.408348 
L 961.79743 493.363304 
L 964.374328 494.120981 
L 966.951227 495.247116 
L 974.681922 498.225284 
L 977.25882 499.636164 
L 979.835719 500.757867 
L 984.989516 502.580165 
L 990.143312 504.783616 
L 992.720211 505.654812 
L 995.297109 506.679906 
L 997.874008 508.14376 
L 1003.027805 510.280604 
L 1008.181602 512.138221 
L 1013.335398 514.125837 
L 1015.912297 514.979311 
L 1018.489195 516.05406 
L 1023.642992 517.399588 
L 1026.219891 518.193676 
L 1028.796789 519.365933 
L 1031.373688 520.410174 
L 1033.950586 521.225316 
L 1039.104383 523.476599 
L 1046.835078 525.898566 
L 1049.411977 527.120191 
L 1051.988875 527.981997 
L 1057.142672 530.140095 
L 1059.71957 530.960066 
L 1064.873367 533.131472 
L 1067.450266 534.023324 
L 1075.180961 537.222493 
L 1077.757859 538.036684 
L 1085.488555 540.951606 
L 1088.065453 541.63603 
L 1090.642352 542.842015 
L 1093.21925 543.847304 
L 1098.373047 545.55011 
L 1108.680641 549.45696 
L 1111.257539 550.580684 
L 1113.834438 551.83363 
L 1121.565133 554.851949 
L 1124.142031 555.670852 
L 1129.295828 557.756787 
L 1131.872727 558.703784 
L 1134.449625 559.387263 
L 1137.026523 560.484642 
L 1142.18032 562.152797 
L 1147.334117 564.170045 
L 1149.911016 565.461872 
L 1157.641711 567.873348 
L 1160.218609 568.662822 
L 1165.372406 570.569506 
L 1167.949305 571.368045 
L 1170.526203 572.388339 
L 1173.103102 573.549373 
L 1175.68 574.16741 
L 1178.256898 575.40265 
L 1180.833797 576.261128 
L 1183.410695 577.581578 
L 1193.718289 582.024044 
L 1196.295188 582.826747 
L 1201.448984 584.714153 
L 1204.025883 585.918502 
L 1211.756578 588.605465 
L 1219.487273 591.620548 
L 1222.064172 592.471343 
L 1224.64107 593.589897 
L 1227.217969 594.982982 
L 1234.948664 598.09219 
L 1242.679359 601.072799 
L 1245.256258 602.272059 
L 1247.833156 603.849172 
L 1250.410055 605.165051 
L 1252.986953 606.163996 
L 1255.563852 607.296951 
L 1258.14075 608.072093 
L 1260.717648 608.994835 
L 1263.294547 609.651952 
L 1265.871445 610.866771 
L 1268.448344 611.7931 
L 1271.025242 612.959392 
L 1278.755938 615.838115 
L 1281.332836 616.928621 
L 1283.909734 617.684665 
L 1291.64043 621.172466 
L 1294.217328 622.244714 
L 1296.794227 623.137895 
L 1299.371125 623.751815 
L 1301.948023 624.781677 
L 1304.524922 625.956805 
L 1312.255617 628.470969 
L 1314.832516 629.36104 
L 1317.409414 630.539157 
L 1322.563211 632.377091 
L 1332.870805 635.855151 
L 1338.024602 637.708293 
L 1340.6015 638.375291 
L 1343.178398 639.697719 
L 1348.332195 642.068451 
L 1350.909094 643.4299 
L 1353.485992 644.190759 
L 1356.062891 645.077822 
L 1363.793586 648.145029 
L 1368.947383 649.730681 
L 1371.524281 650.802532 
L 1379.254977 653.441469 
L 1379.254977 653.441469 
" style="fill:none;stroke:#0000ff;stroke-linecap:square;stroke-width:2.0;"/>
   </g>
   <g id="line2d_2">
    <path clip-path="url(#pb7e2d2a8f1)" d="M 93.382656 138.221182 
L 95.959555 139.573969 
L 98.536453 140.725052 
L 101.113352 141.489007 
L 103.69025 142.560522 
L 106.267148 143.77596 
L 108.844047 144.746575 
L 111.420945 146.27644 
L 129.459234 154.748218 
L 132.036133 155.635273 
L 134.613031 156.982964 
L 139.766828 159.407708 
L 144.920625 161.977856 
L 147.497523 162.957299 
L 150.074422 164.329433 
L 152.65132 165.571302 
L 155.228219 166.960975 
L 157.805117 168.158828 
L 160.382016 169.646037 
L 162.958914 170.73622 
L 168.112711 173.25489 
L 170.689609 174.086033 
L 173.266508 175.304171 
L 175.843406 176.273575 
L 178.420305 177.649679 
L 183.574102 179.375311 
L 186.151 180.857209 
L 188.727898 181.805301 
L 193.881695 184.003433 
L 196.458594 185.156379 
L 199.035492 186.905838 
L 206.766188 190.374852 
L 209.343086 191.272287 
L 211.919984 192.852044 
L 217.073781 194.97027 
L 219.65068 196.704645 
L 224.804477 198.656447 
L 229.958273 201.232139 
L 232.535172 202.06779 
L 237.688969 204.045172 
L 240.265867 205.501103 
L 242.842766 206.774708 
L 245.419664 207.847904 
L 247.996563 208.45886 
L 250.573461 209.657241 
L 253.150359 210.329029 
L 255.727258 211.12988 
L 258.304156 212.542858 
L 260.881055 213.409671 
L 266.034852 215.587278 
L 268.61175 216.981882 
L 271.188648 218.070805 
L 273.765547 219.311671 
L 278.919344 221.211712 
L 281.496242 222.74552 
L 284.073141 223.638733 
L 286.650039 224.973412 
L 289.226938 225.833636 
L 291.803836 227.510685 
L 294.380734 228.619029 
L 296.957633 229.443029 
L 299.534531 230.412108 
L 302.11143 231.554976 
L 304.688328 232.826897 
L 307.265227 233.762046 
L 309.842125 234.890597 
L 312.419023 235.77082 
L 330.457313 243.402257 
L 333.034211 244.656732 
L 338.188008 246.699051 
L 343.341805 248.536441 
L 345.918703 249.567395 
L 351.0725 251.408847 
L 353.649398 252.436539 
L 356.226297 253.270323 
L 358.803195 254.417394 
L 361.380094 255.687979 
L 363.956992 256.829139 
L 366.533891 257.697149 
L 374.264586 261.221559 
L 381.995281 264.471549 
L 387.149078 266.367441 
L 389.725977 267.58356 
L 392.302875 268.449551 
L 394.879773 270.095385 
L 397.456672 270.964449 
L 400.03357 271.709874 
L 405.187367 273.669169 
L 415.494961 277.613163 
L 418.071859 278.617393 
L 425.802555 282.100392 
L 428.379453 283.045393 
L 436.110148 286.234682 
L 438.687047 287.204697 
L 441.263945 288.529585 
L 443.840844 289.444089 
L 446.417742 290.551269 
L 448.994641 291.484556 
L 454.148438 293.822123 
L 467.03293 297.974698 
L 469.609828 298.971067 
L 472.186727 300.143888 
L 477.340523 302.90851 
L 485.071219 305.77784 
L 487.648117 307.028962 
L 490.225016 307.90252 
L 492.801914 308.948694 
L 495.378813 310.269647 
L 500.532609 312.421957 
L 503.109508 313.31156 
L 505.686406 313.933585 
L 508.263305 315.130159 
L 510.840203 316.138217 
L 513.417102 316.864674 
L 515.994 317.838654 
L 518.570898 319.079733 
L 523.724695 320.935935 
L 526.301594 321.859675 
L 531.455391 324.267846 
L 534.032289 324.881351 
L 549.49368 330.567383 
L 552.070578 331.641046 
L 554.647477 332.520874 
L 557.224375 333.257498 
L 559.801273 334.14003 
L 562.378172 335.164656 
L 564.95507 335.934559 
L 567.531969 337.088337 
L 570.108867 338.104727 
L 575.262664 339.774401 
L 577.839563 340.838713 
L 580.416461 342.056009 
L 588.147156 344.538459 
L 595.877852 347.351895 
L 598.45475 348.325593 
L 601.031648 349.658728 
L 603.608547 350.802069 
L 606.185445 351.649937 
L 608.762344 352.723058 
L 611.339242 353.432421 
L 613.916141 354.704419 
L 621.646836 357.669886 
L 626.800633 359.857555 
L 629.377531 360.922414 
L 637.108227 363.812611 
L 639.685125 364.875417 
L 642.262023 366.280278 
L 644.838922 367.059451 
L 647.41582 368.059416 
L 649.992719 368.929418 
L 652.569617 369.993386 
L 660.300313 373.70416 
L 662.877211 374.858324 
L 668.031008 377.359022 
L 670.607906 378.211702 
L 673.184805 379.220435 
L 675.761703 380.364369 
L 678.338602 381.129356 
L 680.9155 382.016655 
L 683.492398 383.380928 
L 686.069297 384.093202 
L 688.646195 384.928097 
L 693.799992 387.004519 
L 696.376891 387.886924 
L 701.530687 389.853994 
L 706.684484 392.236128 
L 709.261383 393.182574 
L 711.838281 394.329813 
L 716.992078 396.224273 
L 719.568977 397.40945 
L 722.145875 398.839662 
L 724.722773 399.860644 
L 727.299672 400.70713 
L 729.87657 401.777389 
L 735.030367 404.401985 
L 745.337961 409.030362 
L 747.914859 409.62398 
L 750.491758 410.465044 
L 753.068656 411.536638 
L 755.645555 412.423903 
L 758.222453 413.714882 
L 763.37625 415.818746 
L 771.106945 418.892346 
L 776.260742 420.829902 
L 783.991437 423.655811 
L 789.145234 425.665753 
L 791.722133 426.966256 
L 796.87593 428.917028 
L 802.029727 430.865416 
L 804.606625 431.775467 
L 809.760422 434.118805 
L 812.33732 434.956804 
L 817.491117 437.116056 
L 825.221813 439.838612 
L 827.798711 440.770805 
L 830.375609 441.945678 
L 838.106305 444.943542 
L 840.683203 445.814131 
L 843.260102 446.933631 
L 845.837 447.917393 
L 848.413898 448.65518 
L 850.990797 449.764936 
L 853.567695 451.139813 
L 856.144594 452.084129 
L 858.721492 452.643921 
L 861.298391 453.463561 
L 869.029086 456.792125 
L 871.605984 457.498964 
L 876.759781 459.446356 
L 879.33668 460.264646 
L 881.913578 461.399941 
L 884.490477 462.253719 
L 887.067375 462.955027 
L 889.644273 464.296648 
L 894.79807 465.812886 
L 907.682563 470.907959 
L 912.836359 472.985683 
L 917.990156 474.705862 
L 920.567055 476.027801 
L 923.143953 477.022823 
L 928.29775 479.258523 
L 933.451547 481.102325 
L 936.028445 481.901442 
L 938.605344 483.008559 
L 941.182242 483.846206 
L 951.489836 487.97943 
L 954.066734 488.779064 
L 961.79743 491.853376 
L 966.951227 494.251862 
L 972.105023 496.582095 
L 977.25882 498.409088 
L 979.835719 499.095888 
L 982.412617 499.977769 
L 984.989516 501.161908 
L 987.566414 501.754086 
L 990.143312 502.575625 
L 992.720211 503.56925 
L 1003.027805 507.061062 
L 1005.604703 508.253315 
L 1008.181602 509.167469 
L 1013.335398 511.410412 
L 1021.066094 513.83087 
L 1031.373688 517.483453 
L 1039.104383 520.372162 
L 1041.681281 521.304865 
L 1044.25818 522.114542 
L 1046.835078 523.088123 
L 1049.411977 523.928028 
L 1051.988875 525.272151 
L 1054.565773 526.038779 
L 1062.296469 529.075108 
L 1064.873367 530.042204 
L 1067.450266 531.181976 
L 1070.027164 532.507263 
L 1075.180961 534.37688 
L 1077.757859 535.309137 
L 1080.334758 536.021325 
L 1088.065453 538.691751 
L 1090.642352 539.836275 
L 1095.796148 541.877879 
L 1100.949945 543.600345 
L 1103.526844 544.771489 
L 1108.680641 546.717854 
L 1111.257539 547.45007 
L 1118.988234 550.683217 
L 1121.565133 551.622598 
L 1124.142031 552.39458 
L 1126.71893 553.663573 
L 1129.295828 554.587101 
L 1131.872727 555.709776 
L 1134.449625 556.682131 
L 1137.026523 557.492002 
L 1139.603422 558.47497 
L 1142.18032 559.590697 
L 1144.757219 560.451686 
L 1147.334117 561.652877 
L 1160.218609 566.867476 
L 1167.949305 569.957911 
L 1170.526203 570.646482 
L 1173.103102 571.706143 
L 1178.256898 574.004732 
L 1183.410695 575.828168 
L 1188.564492 577.82419 
L 1193.718289 580.447607 
L 1196.295188 581.554932 
L 1198.872086 582.366502 
L 1201.448984 583.58341 
L 1204.025883 584.406294 
L 1206.602781 585.562737 
L 1209.17968 586.537245 
L 1211.756578 587.346863 
L 1214.333477 588.767982 
L 1216.910375 589.934507 
L 1219.487273 590.957996 
L 1222.064172 591.820021 
L 1224.64107 592.993924 
L 1227.217969 593.818238 
L 1229.794867 595.116213 
L 1232.371766 595.83574 
L 1234.948664 596.954516 
L 1240.102461 598.669169 
L 1242.679359 599.786369 
L 1245.256258 600.743194 
L 1250.410055 603.11311 
L 1255.563852 605.107171 
L 1258.14075 605.883013 
L 1263.294547 607.807431 
L 1265.871445 608.626609 
L 1271.025242 610.813942 
L 1276.179039 612.324385 
L 1278.755938 613.32709 
L 1281.332836 614.177821 
L 1283.909734 615.314971 
L 1286.486633 616.303419 
L 1289.063531 617.469365 
L 1291.64043 619.018666 
L 1294.217328 619.997313 
L 1296.794227 620.806955 
L 1301.948023 622.742506 
L 1307.10182 624.677019 
L 1309.678719 626.106884 
L 1312.255617 627.129941 
L 1317.409414 628.754794 
L 1319.986313 629.688969 
L 1322.563211 631.027065 
L 1327.717008 632.939483 
L 1330.293906 634.04594 
L 1332.870805 635.302627 
L 1338.024602 637.076555 
L 1340.6015 638.288425 
L 1343.178398 639.182849 
L 1345.755297 639.91662 
L 1348.332195 640.819147 
L 1350.909094 641.963528 
L 1353.485992 642.908408 
L 1358.639789 645.130064 
L 1361.216688 646.224342 
L 1363.793586 647.439575 
L 1366.370484 648.39954 
L 1368.947383 649.855479 
L 1371.524281 650.890083 
L 1374.10118 651.766223 
L 1379.254977 653.822708 
L 1379.254977 653.822708 
" style="fill:none;stroke:#008000;stroke-linecap:square;stroke-width:2.0;"/>
   </g>
   <g id="patch_3">
    <path d="M 93.382656 57.915781 
L 1381.831875 57.915781 
" style="fill:none;stroke:#000000;stroke-linecap:square;stroke-linejoin:miter;"/>
   </g>
   <g id="patch_4">
    <path d="M 1381.831875 770.338125 
L 1381.831875 57.915781 
" style="fill:none;stroke:#000000;stroke-linecap:square;stroke-linejoin:miter;"/>
   </g>
   <g id="patch_5">
    <path d="M 93.382656 770.338125 
L 1381.831875 770.338125 
" style="fill:none;stroke:#000000;stroke-linecap:square;stroke-linejoin:miter;"/>
   </g>
   <g id="patch_6">
    <path d="M 93.382656 770.338125 
L 93.382656 57.915781 
" style="fill:none;stroke:#000000;stroke-linecap:square;stroke-linejoin:miter;"/>
   </g>
   <g id="matplotlib.axis_1">
    <g id="xtick_1">
     <g id="line2d_3">
      <defs>
       <path d="M 0 0 
L 0 -4 
" id="m6d941c214e" style="stroke:#000000;stroke-width:0.5;"/>
      </defs>
      <g>
       <use style="stroke:#000000;stroke-width:0.5;" x="93.38265625" xlink:href="#m6d941c214e" y="770.338125"/>
      </g>
     </g>
     <g id="line2d_4">
      <defs>
       <path d="M 0 0 
L 0 4 
" id="m0145a22983" style="stroke:#000000;stroke-width:0.5;"/>
      </defs>
      <g>
       <use style="stroke:#000000;stroke-width:0.5;" x="93.38265625" xlink:href="#m0145a22983" y="57.91578125"/>
      </g>
     </g>
     <g id="text_1">
      <!-- 0 -->
      <defs>
       <path d="M 31.78125 66.40625 
Q 24.171875 66.40625 20.328125 58.90625 
Q 16.5 51.421875 16.5 36.375 
Q 16.5 21.390625 20.328125 13.890625 
Q 24.171875 6.390625 31.78125 6.390625 
Q 39.453125 6.390625 43.28125 13.890625 
Q 47.125 21.390625 47.125 36.375 
Q 47.125 51.421875 43.28125 58.90625 
Q 39.453125 66.40625 31.78125 66.40625 
M 31.78125 74.21875 
Q 44.046875 74.21875 50.515625 64.515625 
Q 56.984375 54.828125 56.984375 36.375 
Q 56.984375 17.96875 50.515625 8.265625 
Q 44.046875 -1.421875 31.78125 -1.421875 
Q 19.53125 -1.421875 13.0625 8.265625 
Q 6.59375 17.96875 6.59375 36.375 
Q 6.59375 54.828125 13.0625 64.515625 
Q 19.53125 74.21875 31.78125 74.21875 
" id="BitstreamVeraSans-Roman-30"/>
      </defs>
      <g transform="translate(83.83890625 797.1334375)scale(0.3 -0.3)">
       <use xlink:href="#BitstreamVeraSans-Roman-30"/>
      </g>
     </g>
    </g>
    <g id="xtick_2">
     <g id="line2d_5">
      <g>
       <use style="stroke:#000000;stroke-width:0.5;" x="351.0725" xlink:href="#m6d941c214e" y="770.338125"/>
      </g>
     </g>
     <g id="line2d_6">
      <g>
       <use style="stroke:#000000;stroke-width:0.5;" x="351.0725" xlink:href="#m0145a22983" y="57.91578125"/>
      </g>
     </g>
     <g id="text_2">
      <!-- 100 -->
      <defs>
       <path d="M 12.40625 8.296875 
L 28.515625 8.296875 
L 28.515625 63.921875 
L 10.984375 60.40625 
L 10.984375 69.390625 
L 28.421875 72.90625 
L 38.28125 72.90625 
L 38.28125 8.296875 
L 54.390625 8.296875 
L 54.390625 0 
L 12.40625 0 
z
" id="BitstreamVeraSans-Roman-31"/>
      </defs>
      <g transform="translate(322.44125 797.1334375)scale(0.3 -0.3)">
       <use xlink:href="#BitstreamVeraSans-Roman-31"/>
       <use x="63.623046875" xlink:href="#BitstreamVeraSans-Roman-30"/>
       <use x="127.24609375" xlink:href="#BitstreamVeraSans-Roman-30"/>
      </g>
     </g>
    </g>
    <g id="xtick_3">
     <g id="line2d_7">
      <g>
       <use style="stroke:#000000;stroke-width:0.5;" x="608.76234375" xlink:href="#m6d941c214e" y="770.338125"/>
      </g>
     </g>
     <g id="line2d_8">
      <g>
       <use style="stroke:#000000;stroke-width:0.5;" x="608.76234375" xlink:href="#m0145a22983" y="57.91578125"/>
      </g>
     </g>
     <g id="text_3">
      <!-- 200 -->
      <defs>
       <path d="M 19.1875 8.296875 
L 53.609375 8.296875 
L 53.609375 0 
L 7.328125 0 
L 7.328125 8.296875 
Q 12.9375 14.109375 22.625 23.890625 
Q 32.328125 33.6875 34.8125 36.53125 
Q 39.546875 41.84375 41.421875 45.53125 
Q 43.3125 49.21875 43.3125 52.78125 
Q 43.3125 58.59375 39.234375 62.25 
Q 35.15625 65.921875 28.609375 65.921875 
Q 23.96875 65.921875 18.8125 64.3125 
Q 13.671875 62.703125 7.8125 59.421875 
L 7.8125 69.390625 
Q 13.765625 71.78125 18.9375 73 
Q 24.125 74.21875 28.421875 74.21875 
Q 39.75 74.21875 46.484375 68.546875 
Q 53.21875 62.890625 53.21875 53.421875 
Q 53.21875 48.921875 51.53125 44.890625 
Q 49.859375 40.875 45.40625 35.40625 
Q 44.1875 33.984375 37.640625 27.21875 
Q 31.109375 20.453125 19.1875 8.296875 
" id="BitstreamVeraSans-Roman-32"/>
      </defs>
      <g transform="translate(580.13109375 797.1334375)scale(0.3 -0.3)">
       <use xlink:href="#BitstreamVeraSans-Roman-32"/>
       <use x="63.623046875" xlink:href="#BitstreamVeraSans-Roman-30"/>
       <use x="127.24609375" xlink:href="#BitstreamVeraSans-Roman-30"/>
      </g>
     </g>
    </g>
    <g id="xtick_4">
     <g id="line2d_9">
      <g>
       <use style="stroke:#000000;stroke-width:0.5;" x="866.4521875" xlink:href="#m6d941c214e" y="770.338125"/>
      </g>
     </g>
     <g id="line2d_10">
      <g>
       <use style="stroke:#000000;stroke-width:0.5;" x="866.4521875" xlink:href="#m0145a22983" y="57.91578125"/>
      </g>
     </g>
     <g id="text_4">
      <!-- 300 -->
      <defs>
       <path d="M 40.578125 39.3125 
Q 47.65625 37.796875 51.625 33 
Q 55.609375 28.21875 55.609375 21.1875 
Q 55.609375 10.40625 48.1875 4.484375 
Q 40.765625 -1.421875 27.09375 -1.421875 
Q 22.515625 -1.421875 17.65625 -0.515625 
Q 12.796875 0.390625 7.625 2.203125 
L 7.625 11.71875 
Q 11.71875 9.328125 16.59375 8.109375 
Q 21.484375 6.890625 26.8125 6.890625 
Q 36.078125 6.890625 40.9375 10.546875 
Q 45.796875 14.203125 45.796875 21.1875 
Q 45.796875 27.640625 41.28125 31.265625 
Q 36.765625 34.90625 28.71875 34.90625 
L 20.21875 34.90625 
L 20.21875 43.015625 
L 29.109375 43.015625 
Q 36.375 43.015625 40.234375 45.921875 
Q 44.09375 48.828125 44.09375 54.296875 
Q 44.09375 59.90625 40.109375 62.90625 
Q 36.140625 65.921875 28.71875 65.921875 
Q 24.65625 65.921875 20.015625 65.03125 
Q 15.375 64.15625 9.8125 62.3125 
L 9.8125 71.09375 
Q 15.4375 72.65625 20.34375 73.4375 
Q 25.25 74.21875 29.59375 74.21875 
Q 40.828125 74.21875 47.359375 69.109375 
Q 53.90625 64.015625 53.90625 55.328125 
Q 53.90625 49.265625 50.4375 45.09375 
Q 46.96875 40.921875 40.578125 39.3125 
" id="BitstreamVeraSans-Roman-33"/>
      </defs>
      <g transform="translate(837.8209375 797.1334375)scale(0.3 -0.3)">
       <use xlink:href="#BitstreamVeraSans-Roman-33"/>
       <use x="63.623046875" xlink:href="#BitstreamVeraSans-Roman-30"/>
       <use x="127.24609375" xlink:href="#BitstreamVeraSans-Roman-30"/>
      </g>
     </g>
    </g>
    <g id="xtick_5">
     <g id="line2d_11">
      <g>
       <use style="stroke:#000000;stroke-width:0.5;" x="1124.14203125" xlink:href="#m6d941c214e" y="770.338125"/>
      </g>
     </g>
     <g id="line2d_12">
      <g>
       <use style="stroke:#000000;stroke-width:0.5;" x="1124.14203125" xlink:href="#m0145a22983" y="57.91578125"/>
      </g>
     </g>
     <g id="text_5">
      <!-- 400 -->
      <defs>
       <path d="M 37.796875 64.3125 
L 12.890625 25.390625 
L 37.796875 25.390625 
z
M 35.203125 72.90625 
L 47.609375 72.90625 
L 47.609375 25.390625 
L 58.015625 25.390625 
L 58.015625 17.1875 
L 47.609375 17.1875 
L 47.609375 0 
L 37.796875 0 
L 37.796875 17.1875 
L 4.890625 17.1875 
L 4.890625 26.703125 
z
" id="BitstreamVeraSans-Roman-34"/>
      </defs>
      <g transform="translate(1095.51078125 797.1334375)scale(0.3 -0.3)">
       <use xlink:href="#BitstreamVeraSans-Roman-34"/>
       <use x="63.623046875" xlink:href="#BitstreamVeraSans-Roman-30"/>
       <use x="127.24609375" xlink:href="#BitstreamVeraSans-Roman-30"/>
      </g>
     </g>
    </g>
    <g id="xtick_6">
     <g id="line2d_13">
      <g>
       <use style="stroke:#000000;stroke-width:0.5;" x="1381.831875" xlink:href="#m6d941c214e" y="770.338125"/>
      </g>
     </g>
     <g id="line2d_14">
      <g>
       <use style="stroke:#000000;stroke-width:0.5;" x="1381.831875" xlink:href="#m0145a22983" y="57.91578125"/>
      </g>
     </g>
     <g id="text_6">
      <!-- 500 -->
      <defs>
       <path d="M 10.796875 72.90625 
L 49.515625 72.90625 
L 49.515625 64.59375 
L 19.828125 64.59375 
L 19.828125 46.734375 
Q 21.96875 47.46875 24.109375 47.828125 
Q 26.265625 48.1875 28.421875 48.1875 
Q 40.625 48.1875 47.75 41.5 
Q 54.890625 34.8125 54.890625 23.390625 
Q 54.890625 11.625 47.5625 5.09375 
Q 40.234375 -1.421875 26.90625 -1.421875 
Q 22.3125 -1.421875 17.546875 -0.640625 
Q 12.796875 0.140625 7.71875 1.703125 
L 7.71875 11.625 
Q 12.109375 9.234375 16.796875 8.0625 
Q 21.484375 6.890625 26.703125 6.890625 
Q 35.15625 6.890625 40.078125 11.328125 
Q 45.015625 15.765625 45.015625 23.390625 
Q 45.015625 31 40.078125 35.4375 
Q 35.15625 39.890625 26.703125 39.890625 
Q 22.75 39.890625 18.8125 39.015625 
Q 14.890625 38.140625 10.796875 36.28125 
z
" id="BitstreamVeraSans-Roman-35"/>
      </defs>
      <g transform="translate(1353.200625 797.1334375)scale(0.3 -0.3)">
       <use xlink:href="#BitstreamVeraSans-Roman-35"/>
       <use x="63.623046875" xlink:href="#BitstreamVeraSans-Roman-30"/>
       <use x="127.24609375" xlink:href="#BitstreamVeraSans-Roman-30"/>
      </g>
     </g>
    </g>
    <g id="text_7">
     <!-- iterations -->
     <defs>
      <path d="M 54.890625 33.015625 
L 54.890625 0 
L 45.90625 0 
L 45.90625 32.71875 
Q 45.90625 40.484375 42.875 44.328125 
Q 39.84375 48.1875 33.796875 48.1875 
Q 26.515625 48.1875 22.3125 43.546875 
Q 18.109375 38.921875 18.109375 30.90625 
L 18.109375 0 
L 9.078125 0 
L 9.078125 54.6875 
L 18.109375 54.6875 
L 18.109375 46.1875 
Q 21.34375 51.125 25.703125 53.5625 
Q 30.078125 56 35.796875 56 
Q 45.21875 56 50.046875 50.171875 
Q 54.890625 44.34375 54.890625 33.015625 
" id="BitstreamVeraSans-Roman-6e"/>
      <path d="M 34.28125 27.484375 
Q 23.390625 27.484375 19.1875 25 
Q 14.984375 22.515625 14.984375 16.5 
Q 14.984375 11.71875 18.140625 8.90625 
Q 21.296875 6.109375 26.703125 6.109375 
Q 34.1875 6.109375 38.703125 11.40625 
Q 43.21875 16.703125 43.21875 25.484375 
L 43.21875 27.484375 
z
M 52.203125 31.203125 
L 52.203125 0 
L 43.21875 0 
L 43.21875 8.296875 
Q 40.140625 3.328125 35.546875 0.953125 
Q 30.953125 -1.421875 24.3125 -1.421875 
Q 15.921875 -1.421875 10.953125 3.296875 
Q 6 8.015625 6 15.921875 
Q 6 25.140625 12.171875 29.828125 
Q 18.359375 34.515625 30.609375 34.515625 
L 43.21875 34.515625 
L 43.21875 35.40625 
Q 43.21875 41.609375 39.140625 45 
Q 35.0625 48.390625 27.6875 48.390625 
Q 23 48.390625 18.546875 47.265625 
Q 14.109375 46.140625 10.015625 43.890625 
L 10.015625 52.203125 
Q 14.9375 54.109375 19.578125 55.046875 
Q 24.21875 56 28.609375 56 
Q 40.484375 56 46.34375 49.84375 
Q 52.203125 43.703125 52.203125 31.203125 
" id="BitstreamVeraSans-Roman-61"/>
      <path d="M 30.609375 48.390625 
Q 23.390625 48.390625 19.1875 42.75 
Q 14.984375 37.109375 14.984375 27.296875 
Q 14.984375 17.484375 19.15625 11.84375 
Q 23.34375 6.203125 30.609375 6.203125 
Q 37.796875 6.203125 41.984375 11.859375 
Q 46.1875 17.53125 46.1875 27.296875 
Q 46.1875 37.015625 41.984375 42.703125 
Q 37.796875 48.390625 30.609375 48.390625 
M 30.609375 56 
Q 42.328125 56 49.015625 48.375 
Q 55.71875 40.765625 55.71875 27.296875 
Q 55.71875 13.875 49.015625 6.21875 
Q 42.328125 -1.421875 30.609375 -1.421875 
Q 18.84375 -1.421875 12.171875 6.21875 
Q 5.515625 13.875 5.515625 27.296875 
Q 5.515625 40.765625 12.171875 48.375 
Q 18.84375 56 30.609375 56 
" id="BitstreamVeraSans-Roman-6f"/>
      <path d="M 9.421875 54.6875 
L 18.40625 54.6875 
L 18.40625 0 
L 9.421875 0 
z
M 9.421875 75.984375 
L 18.40625 75.984375 
L 18.40625 64.59375 
L 9.421875 64.59375 
z
" id="BitstreamVeraSans-Roman-69"/>
      <path d="M 56.203125 29.59375 
L 56.203125 25.203125 
L 14.890625 25.203125 
Q 15.484375 15.921875 20.484375 11.0625 
Q 25.484375 6.203125 34.421875 6.203125 
Q 39.59375 6.203125 44.453125 7.46875 
Q 49.3125 8.734375 54.109375 11.28125 
L 54.109375 2.78125 
Q 49.265625 0.734375 44.1875 -0.34375 
Q 39.109375 -1.421875 33.890625 -1.421875 
Q 20.796875 -1.421875 13.15625 6.1875 
Q 5.515625 13.8125 5.515625 26.8125 
Q 5.515625 40.234375 12.765625 48.109375 
Q 20.015625 56 32.328125 56 
Q 43.359375 56 49.78125 48.890625 
Q 56.203125 41.796875 56.203125 29.59375 
M 47.21875 32.234375 
Q 47.125 39.59375 43.09375 43.984375 
Q 39.0625 48.390625 32.421875 48.390625 
Q 24.90625 48.390625 20.390625 44.140625 
Q 15.875 39.890625 15.1875 32.171875 
z
" id="BitstreamVeraSans-Roman-65"/>
      <path d="M 18.3125 70.21875 
L 18.3125 54.6875 
L 36.8125 54.6875 
L 36.8125 47.703125 
L 18.3125 47.703125 
L 18.3125 18.015625 
Q 18.3125 11.328125 20.140625 9.421875 
Q 21.96875 7.515625 27.59375 7.515625 
L 36.8125 7.515625 
L 36.8125 0 
L 27.59375 0 
Q 17.1875 0 13.234375 3.875 
Q 9.28125 7.765625 9.28125 18.015625 
L 9.28125 47.703125 
L 2.6875 47.703125 
L 2.6875 54.6875 
L 9.28125 54.6875 
L 9.28125 70.21875 
z
" id="BitstreamVeraSans-Roman-74"/>
      <path d="M 41.109375 46.296875 
Q 39.59375 47.171875 37.8125 47.578125 
Q 36.03125 48 33.890625 48 
Q 26.265625 48 22.1875 43.046875 
Q 18.109375 38.09375 18.109375 28.8125 
L 18.109375 0 
L 9.078125 0 
L 9.078125 54.6875 
L 18.109375 54.6875 
L 18.109375 46.1875 
Q 20.953125 51.171875 25.484375 53.578125 
Q 30.03125 56 36.53125 56 
Q 37.453125 56 38.578125 55.875 
Q 39.703125 55.765625 41.0625 55.515625 
z
" id="BitstreamVeraSans-Roman-72"/>
      <path d="M 44.28125 53.078125 
L 44.28125 44.578125 
Q 40.484375 46.53125 36.375 47.5 
Q 32.28125 48.484375 27.875 48.484375 
Q 21.1875 48.484375 17.84375 46.4375 
Q 14.5 44.390625 14.5 40.28125 
Q 14.5 37.15625 16.890625 35.375 
Q 19.28125 33.59375 26.515625 31.984375 
L 29.59375 31.296875 
Q 39.15625 29.25 43.1875 25.515625 
Q 47.21875 21.78125 47.21875 15.09375 
Q 47.21875 7.46875 41.1875 3.015625 
Q 35.15625 -1.421875 24.609375 -1.421875 
Q 20.21875 -1.421875 15.453125 -0.5625 
Q 10.6875 0.296875 5.421875 2 
L 5.421875 11.28125 
Q 10.40625 8.6875 15.234375 7.390625 
Q 20.0625 6.109375 24.8125 6.109375 
Q 31.15625 6.109375 34.5625 8.28125 
Q 37.984375 10.453125 37.984375 14.40625 
Q 37.984375 18.0625 35.515625 20.015625 
Q 33.0625 21.96875 24.703125 23.78125 
L 21.578125 24.515625 
Q 13.234375 26.265625 9.515625 29.90625 
Q 5.8125 33.546875 5.8125 39.890625 
Q 5.8125 47.609375 11.28125 51.796875 
Q 16.75 56 26.8125 56 
Q 31.78125 56 36.171875 55.265625 
Q 40.578125 54.546875 44.28125 53.078125 
" id="BitstreamVeraSans-Roman-73"/>
     </defs>
     <g transform="translate(666.425234375 831.1678125)scale(0.3 -0.3)">
      <use xlink:href="#BitstreamVeraSans-Roman-69"/>
      <use x="27.783203125" xlink:href="#BitstreamVeraSans-Roman-74"/>
      <use x="66.9921875" xlink:href="#BitstreamVeraSans-Roman-65"/>
      <use x="128.515625" xlink:href="#BitstreamVeraSans-Roman-72"/>
      <use x="169.62890625" xlink:href="#BitstreamVeraSans-Roman-61"/>
      <use x="230.908203125" xlink:href="#BitstreamVeraSans-Roman-74"/>
      <use x="270.1171875" xlink:href="#BitstreamVeraSans-Roman-69"/>
      <use x="297.900390625" xlink:href="#BitstreamVeraSans-Roman-6f"/>
      <use x="359.08203125" xlink:href="#BitstreamVeraSans-Roman-6e"/>
      <use x="422.4609375" xlink:href="#BitstreamVeraSans-Roman-73"/>
     </g>
    </g>
   </g>
   <g id="matplotlib.axis_2">
    <g id="ytick_1">
     <g id="line2d_15">
      <defs>
       <path d="M 0 0 
L 4 0 
" id="mfe3444faee" style="stroke:#000000;stroke-width:0.5;"/>
      </defs>
      <g>
       <use style="stroke:#000000;stroke-width:0.5;" x="93.38265625" xlink:href="#mfe3444faee" y="770.338125"/>
      </g>
     </g>
     <g id="line2d_16">
      <defs>
       <path d="M 0 0 
L -4 0 
" id="m120bcd9084" style="stroke:#000000;stroke-width:0.5;"/>
      </defs>
      <g>
       <use style="stroke:#000000;stroke-width:0.5;" x="1381.831875" xlink:href="#m120bcd9084" y="770.338125"/>
      </g>
     </g>
     <g id="text_8">
      <!-- −40 -->
      <defs>
       <path d="M 10.59375 35.5 
L 73.1875 35.5 
L 73.1875 27.203125 
L 10.59375 27.203125 
z
" id="BitstreamVeraSans-Roman-2212"/>
      </defs>
      <g transform="translate(26.06859375 778.61625)scale(0.3 -0.3)">
       <use xlink:href="#BitstreamVeraSans-Roman-2212"/>
       <use x="83.7890625" xlink:href="#BitstreamVeraSans-Roman-34"/>
       <use x="147.412109375" xlink:href="#BitstreamVeraSans-Roman-30"/>
      </g>
     </g>
    </g>
    <g id="ytick_2">
     <g id="line2d_17">
      <g>
       <use style="stroke:#000000;stroke-width:0.5;" x="93.38265625" xlink:href="#mfe3444faee" y="651.601067708"/>
      </g>
     </g>
     <g id="line2d_18">
      <g>
       <use style="stroke:#000000;stroke-width:0.5;" x="1381.831875" xlink:href="#m120bcd9084" y="651.601067708"/>
      </g>
     </g>
     <g id="text_9">
      <!-- −30 -->
      <g transform="translate(26.06859375 659.879192708)scale(0.3 -0.3)">
       <use xlink:href="#BitstreamVeraSans-Roman-2212"/>
       <use x="83.7890625" xlink:href="#BitstreamVeraSans-Roman-33"/>
       <use x="147.412109375" xlink:href="#BitstreamVeraSans-Roman-30"/>
      </g>
     </g>
    </g>
    <g id="ytick_3">
     <g id="line2d_19">
      <g>
       <use style="stroke:#000000;stroke-width:0.5;" x="93.38265625" xlink:href="#mfe3444faee" y="532.864010417"/>
      </g>
     </g>
     <g id="line2d_20">
      <g>
       <use style="stroke:#000000;stroke-width:0.5;" x="1381.831875" xlink:href="#m120bcd9084" y="532.864010417"/>
      </g>
     </g>
     <g id="text_10">
      <!-- −20 -->
      <g transform="translate(26.06859375 541.142135417)scale(0.3 -0.3)">
       <use xlink:href="#BitstreamVeraSans-Roman-2212"/>
       <use x="83.7890625" xlink:href="#BitstreamVeraSans-Roman-32"/>
       <use x="147.412109375" xlink:href="#BitstreamVeraSans-Roman-30"/>
      </g>
     </g>
    </g>
    <g id="ytick_4">
     <g id="line2d_21">
      <g>
       <use style="stroke:#000000;stroke-width:0.5;" x="93.38265625" xlink:href="#mfe3444faee" y="414.126953125"/>
      </g>
     </g>
     <g id="line2d_22">
      <g>
       <use style="stroke:#000000;stroke-width:0.5;" x="1381.831875" xlink:href="#m120bcd9084" y="414.126953125"/>
      </g>
     </g>
     <g id="text_11">
      <!-- −10 -->
      <g transform="translate(26.06859375 422.405078125)scale(0.3 -0.3)">
       <use xlink:href="#BitstreamVeraSans-Roman-2212"/>
       <use x="83.7890625" xlink:href="#BitstreamVeraSans-Roman-31"/>
       <use x="147.412109375" xlink:href="#BitstreamVeraSans-Roman-30"/>
      </g>
     </g>
    </g>
    <g id="ytick_5">
     <g id="line2d_23">
      <g>
       <use style="stroke:#000000;stroke-width:0.5;" x="93.38265625" xlink:href="#mfe3444faee" y="295.389895833"/>
      </g>
     </g>
     <g id="line2d_24">
      <g>
       <use style="stroke:#000000;stroke-width:0.5;" x="1381.831875" xlink:href="#m120bcd9084" y="295.389895833"/>
      </g>
     </g>
     <g id="text_12">
      <!-- 0 -->
      <g transform="translate(70.29515625 303.668020833)scale(0.3 -0.3)">
       <use xlink:href="#BitstreamVeraSans-Roman-30"/>
      </g>
     </g>
    </g>
    <g id="ytick_6">
     <g id="line2d_25">
      <g>
       <use style="stroke:#000000;stroke-width:0.5;" x="93.38265625" xlink:href="#mfe3444faee" y="176.652838542"/>
      </g>
     </g>
     <g id="line2d_26">
      <g>
       <use style="stroke:#000000;stroke-width:0.5;" x="1381.831875" xlink:href="#m120bcd9084" y="176.652838542"/>
      </g>
     </g>
     <g id="text_13">
      <!-- 10 -->
      <g transform="translate(51.20765625 184.930963542)scale(0.3 -0.3)">
       <use xlink:href="#BitstreamVeraSans-Roman-31"/>
       <use x="63.623046875" xlink:href="#BitstreamVeraSans-Roman-30"/>
      </g>
     </g>
    </g>
    <g id="ytick_7">
     <g id="line2d_27">
      <g>
       <use style="stroke:#000000;stroke-width:0.5;" x="93.38265625" xlink:href="#mfe3444faee" y="57.91578125"/>
      </g>
     </g>
     <g id="line2d_28">
      <g>
       <use style="stroke:#000000;stroke-width:0.5;" x="1381.831875" xlink:href="#m120bcd9084" y="57.91578125"/>
      </g>
     </g>
     <g id="text_14">
      <!-- 20 -->
      <g transform="translate(51.20765625 66.19390625)scale(0.3 -0.3)">
       <use xlink:href="#BitstreamVeraSans-Roman-32"/>
       <use x="63.623046875" xlink:href="#BitstreamVeraSans-Roman-30"/>
      </g>
     </g>
    </g>
   </g>
   <g id="text_15">
    <!-- log(loss) -->
    <defs>
     <path d="M 8.015625 75.875 
L 15.828125 75.875 
Q 23.140625 64.359375 26.78125 53.3125 
Q 30.421875 42.28125 30.421875 31.390625 
Q 30.421875 20.453125 26.78125 9.375 
Q 23.140625 -1.703125 15.828125 -13.1875 
L 8.015625 -13.1875 
Q 14.5 -2 17.703125 9.0625 
Q 20.90625 20.125 20.90625 31.390625 
Q 20.90625 42.671875 17.703125 53.65625 
Q 14.5 64.65625 8.015625 75.875 
" id="BitstreamVeraSans-Roman-29"/>
     <path d="M 31 75.875 
Q 24.46875 64.65625 21.28125 53.65625 
Q 18.109375 42.671875 18.109375 31.390625 
Q 18.109375 20.125 21.3125 9.0625 
Q 24.515625 -2 31 -13.1875 
L 23.1875 -13.1875 
Q 15.875 -1.703125 12.234375 9.375 
Q 8.59375 20.453125 8.59375 31.390625 
Q 8.59375 42.28125 12.203125 53.3125 
Q 15.828125 64.359375 23.1875 75.875 
z
" id="BitstreamVeraSans-Roman-28"/>
     <path d="M 45.40625 27.984375 
Q 45.40625 37.75 41.375 43.109375 
Q 37.359375 48.484375 30.078125 48.484375 
Q 22.859375 48.484375 18.828125 43.109375 
Q 14.796875 37.75 14.796875 27.984375 
Q 14.796875 18.265625 18.828125 12.890625 
Q 22.859375 7.515625 30.078125 7.515625 
Q 37.359375 7.515625 41.375 12.890625 
Q 45.40625 18.265625 45.40625 27.984375 
M 54.390625 6.78125 
Q 54.390625 -7.171875 48.1875 -13.984375 
Q 42 -20.796875 29.203125 -20.796875 
Q 24.46875 -20.796875 20.265625 -20.09375 
Q 16.0625 -19.390625 12.109375 -17.921875 
L 12.109375 -9.1875 
Q 16.0625 -11.328125 19.921875 -12.34375 
Q 23.78125 -13.375 27.78125 -13.375 
Q 36.625 -13.375 41.015625 -8.765625 
Q 45.40625 -4.15625 45.40625 5.171875 
L 45.40625 9.625 
Q 42.625 4.78125 38.28125 2.390625 
Q 33.9375 0 27.875 0 
Q 17.828125 0 11.671875 7.65625 
Q 5.515625 15.328125 5.515625 27.984375 
Q 5.515625 40.671875 11.671875 48.328125 
Q 17.828125 56 27.875 56 
Q 33.9375 56 38.28125 53.609375 
Q 42.625 51.21875 45.40625 46.390625 
L 45.40625 54.6875 
L 54.390625 54.6875 
z
" id="BitstreamVeraSans-Roman-67"/>
     <path d="M 9.421875 75.984375 
L 18.40625 75.984375 
L 18.40625 0 
L 9.421875 0 
z
" id="BitstreamVeraSans-Roman-6c"/>
    </defs>
    <g transform="translate(674.061171875 52.91578125)scale(0.3 -0.3)">
     <use xlink:href="#BitstreamVeraSans-Roman-6c"/>
     <use x="27.783203125" xlink:href="#BitstreamVeraSans-Roman-6f"/>
     <use x="88.96484375" xlink:href="#BitstreamVeraSans-Roman-67"/>
     <use x="152.44140625" xlink:href="#BitstreamVeraSans-Roman-28"/>
     <use x="191.455078125" xlink:href="#BitstreamVeraSans-Roman-6c"/>
     <use x="219.23828125" xlink:href="#BitstreamVeraSans-Roman-6f"/>
     <use x="280.419921875" xlink:href="#BitstreamVeraSans-Roman-73"/>
     <use x="332.51953125" xlink:href="#BitstreamVeraSans-Roman-73"/>
     <use x="384.619140625" xlink:href="#BitstreamVeraSans-Roman-29"/>
    </g>
   </g>
   <g id="legend_1">
    <g id="patch_7">
     <path d="M 1142.47875 169.984531 
L 1366.831875 169.984531 
L 1366.831875 72.915781 
L 1142.47875 72.915781 
z
" style="fill:#ffffff;stroke:#000000;stroke-linejoin:miter;"/>
    </g>
    <g id="line2d_29">
     <path d="M 1163.47875 97.211094 
L 1205.47875 97.211094 
" style="fill:none;stroke:#0000ff;stroke-linecap:square;stroke-width:2.0;"/>
    </g>
    <g id="line2d_30"/>
    <g id="text_16">
     <!-- random -->
     <defs>
      <path d="M 45.40625 46.390625 
L 45.40625 75.984375 
L 54.390625 75.984375 
L 54.390625 0 
L 45.40625 0 
L 45.40625 8.203125 
Q 42.578125 3.328125 38.25 0.953125 
Q 33.9375 -1.421875 27.875 -1.421875 
Q 17.96875 -1.421875 11.734375 6.484375 
Q 5.515625 14.40625 5.515625 27.296875 
Q 5.515625 40.1875 11.734375 48.09375 
Q 17.96875 56 27.875 56 
Q 33.9375 56 38.25 53.625 
Q 42.578125 51.265625 45.40625 46.390625 
M 14.796875 27.296875 
Q 14.796875 17.390625 18.875 11.75 
Q 22.953125 6.109375 30.078125 6.109375 
Q 37.203125 6.109375 41.296875 11.75 
Q 45.40625 17.390625 45.40625 27.296875 
Q 45.40625 37.203125 41.296875 42.84375 
Q 37.203125 48.484375 30.078125 48.484375 
Q 22.953125 48.484375 18.875 42.84375 
Q 14.796875 37.203125 14.796875 27.296875 
" id="BitstreamVeraSans-Roman-64"/>
      <path d="M 52 44.1875 
Q 55.375 50.25 60.0625 53.125 
Q 64.75 56 71.09375 56 
Q 79.640625 56 84.28125 50.015625 
Q 88.921875 44.046875 88.921875 33.015625 
L 88.921875 0 
L 79.890625 0 
L 79.890625 32.71875 
Q 79.890625 40.578125 77.09375 44.375 
Q 74.3125 48.1875 68.609375 48.1875 
Q 61.625 48.1875 57.5625 43.546875 
Q 53.515625 38.921875 53.515625 30.90625 
L 53.515625 0 
L 44.484375 0 
L 44.484375 32.71875 
Q 44.484375 40.625 41.703125 44.40625 
Q 38.921875 48.1875 33.109375 48.1875 
Q 26.21875 48.1875 22.15625 43.53125 
Q 18.109375 38.875 18.109375 30.90625 
L 18.109375 0 
L 9.078125 0 
L 9.078125 54.6875 
L 18.109375 54.6875 
L 18.109375 46.1875 
Q 21.1875 51.21875 25.484375 53.609375 
Q 29.78125 56 35.6875 56 
Q 41.65625 56 45.828125 52.96875 
Q 50 49.953125 52 44.1875 
" id="BitstreamVeraSans-Roman-6d"/>
     </defs>
     <g transform="translate(1238.47875 107.71109375)scale(0.3 -0.3)">
      <use xlink:href="#BitstreamVeraSans-Roman-72"/>
      <use x="41.11328125" xlink:href="#BitstreamVeraSans-Roman-61"/>
      <use x="102.392578125" xlink:href="#BitstreamVeraSans-Roman-6e"/>
      <use x="165.771484375" xlink:href="#BitstreamVeraSans-Roman-64"/>
      <use x="229.248046875" xlink:href="#BitstreamVeraSans-Roman-6f"/>
      <use x="290.4296875" xlink:href="#BitstreamVeraSans-Roman-6d"/>
     </g>
    </g>
    <g id="line2d_31">
     <path d="M 1163.47875 141.245469 
L 1205.47875 141.245469 
" style="fill:none;stroke:#008000;stroke-linecap:square;stroke-width:2.0;"/>
    </g>
    <g id="line2d_32"/>
    <g id="text_17">
     <!-- corr -->
     <defs>
      <path d="M 48.78125 52.59375 
L 48.78125 44.1875 
Q 44.96875 46.296875 41.140625 47.34375 
Q 37.3125 48.390625 33.40625 48.390625 
Q 24.65625 48.390625 19.8125 42.84375 
Q 14.984375 37.3125 14.984375 27.296875 
Q 14.984375 17.28125 19.8125 11.734375 
Q 24.65625 6.203125 33.40625 6.203125 
Q 37.3125 6.203125 41.140625 7.25 
Q 44.96875 8.296875 48.78125 10.40625 
L 48.78125 2.09375 
Q 45.015625 0.34375 40.984375 -0.53125 
Q 36.96875 -1.421875 32.421875 -1.421875 
Q 20.0625 -1.421875 12.78125 6.34375 
Q 5.515625 14.109375 5.515625 27.296875 
Q 5.515625 40.671875 12.859375 48.328125 
Q 20.21875 56 33.015625 56 
Q 37.15625 56 41.109375 55.140625 
Q 45.0625 54.296875 48.78125 52.59375 
" id="BitstreamVeraSans-Roman-63"/>
     </defs>
     <g transform="translate(1238.47875 151.74546875)scale(0.3 -0.3)">
      <use xlink:href="#BitstreamVeraSans-Roman-63"/>
      <use x="54.98046875" xlink:href="#BitstreamVeraSans-Roman-6f"/>
      <use x="116.162109375" xlink:href="#BitstreamVeraSans-Roman-72"/>
      <use x="157.259765625" xlink:href="#BitstreamVeraSans-Roman-72"/>
     </g>
    </g>
   </g>
  </g>
 </g>
 <defs>
  <clipPath id="pb7e2d2a8f1">
   <rect height="712.42234375" width="1288.44921875" x="93.38265625" y="57.91578125"/>
  </clipPath>
 </defs>
</svg>
