<?xml version="1.0" encoding="utf-8" standalone="no"?>
<!DOCTYPE svg PUBLIC "-//W3C//DTD SVG 1.1//EN"
  "http://www.w3.org/Graphics/SVG/1.1/DTD/svg11.dtd">
<!-- Created with matplotlib (http://matplotlib.org/) -->
<svg height="864pt" version="1.1" viewBox="0 0 1440 864" width="1440pt" xmlns="http://www.w3.org/2000/svg" xmlns:xlink="http://www.w3.org/1999/xlink">
 <defs>
  <style type="text/css">
*{stroke-linecap:butt;stroke-linejoin:round;stroke-miterlimit:100000;}
  </style>
 </defs>
 <g id="figure_1">
  <g id="patch_1">
   <path d="M 0 864 
L 1440 864 
L 1440 0 
L 0 0 
z
" style="fill:#ffffff;"/>
  </g>
  <g id="axes_1">
   <g id="patch_2">
    <path d="M 158.4 747 
L 1371.825 747 
L 1371.825 51.3 
L 158.4 51.3 
z
" style="fill:#ffffff;"/>
   </g>
   <g id="line2d_1">
    <path clip-path="url(#pc179c72b0c)" d="M 158.4 135.222456 
L 160.82685 137.315198 
L 163.2537 139.718982 
L 165.68055 141.29326 
L 168.1074 143.739948 
L 170.53425 145.655362 
L 172.9611 147.103323 
L 175.38795 149.382782 
L 177.8148 150.656573 
L 185.09535 155.004257 
L 187.5222 156.133816 
L 189.94905 157.765658 
L 197.2296 161.882736 
L 199.65645 163.238979 
L 202.0833 165.392895 
L 206.937 168.465613 
L 211.7907 171.157216 
L 214.21755 172.145289 
L 216.6444 173.898253 
L 219.07125 175.198045 
L 221.4981 176.211918 
L 223.92495 177.590787 
L 228.77865 179.83892 
L 233.63235 182.886858 
L 236.0592 183.91481 
L 238.48605 185.677803 
L 240.9129 186.483493 
L 245.7666 188.980487 
L 250.6203 192.099902 
L 257.90085 196.898999 
L 267.60825 201.837222 
L 270.0351 202.742663 
L 274.8888 204.921816 
L 279.7425 206.530711 
L 282.16935 207.659196 
L 287.02305 209.468059 
L 289.4499 210.832886 
L 291.87675 211.69603 
L 294.3036 212.88848 
L 299.1573 215.659064 
L 301.58415 216.370703 
L 304.011 218.053528 
L 308.8647 220.268212 
L 311.29155 221.500699 
L 313.7184 222.525216 
L 318.5721 224.262533 
L 325.85265 227.534154 
L 328.2795 228.794577 
L 333.1332 230.926756 
L 335.56005 232.182052 
L 337.9869 232.814765 
L 342.8406 234.323827 
L 350.12115 237.891649 
L 354.97485 239.6428 
L 357.4017 241.015025 
L 359.82855 242.127611 
L 362.2554 243.379484 
L 364.68225 244.301841 
L 367.1091 245.682833 
L 371.9628 248.066803 
L 374.38965 248.943073 
L 376.8165 250.21208 
L 379.24335 251.129043 
L 381.6702 252.295617 
L 384.09705 253.601538 
L 386.5239 254.511289 
L 388.95075 256.068994 
L 391.3776 257.056558 
L 393.80445 258.246667 
L 396.2313 259.280265 
L 401.085 261.798495 
L 403.51185 263.047553 
L 405.9387 263.827286 
L 408.36555 265.024006 
L 410.7924 266.432791 
L 415.6461 268.599969 
L 418.07295 269.902667 
L 420.4998 270.977443 
L 425.3535 272.762158 
L 427.78035 273.884789 
L 430.2072 275.238848 
L 432.63405 276.127921 
L 437.48775 278.22655 
L 439.9146 279.128145 
L 442.34145 280.474607 
L 444.7683 281.23264 
L 447.19515 282.273455 
L 452.04885 283.949028 
L 454.4757 284.910083 
L 456.90255 285.728445 
L 473.8905 292.829244 
L 478.7442 294.800304 
L 481.17105 295.893669 
L 483.5979 296.649139 
L 486.02475 297.551777 
L 490.87845 299.157162 
L 493.3053 299.993009 
L 495.73215 301.079471 
L 498.159 301.989824 
L 503.0127 304.12411 
L 505.43955 305.356923 
L 507.8664 306.815427 
L 510.29325 307.978775 
L 512.7201 308.96721 
L 515.14695 310.148168 
L 520.00065 311.910723 
L 522.4275 312.807438 
L 532.1349 317.060281 
L 534.56175 317.842731 
L 541.8423 321.068766 
L 544.26915 321.91922 
L 549.12285 324.1573 
L 551.5497 325.035458 
L 553.97655 326.224033 
L 556.4034 327.283393 
L 558.83025 328.184899 
L 561.2571 329.35895 
L 563.68395 330.330551 
L 566.1108 331.040197 
L 570.9645 332.726723 
L 575.8182 334.83099 
L 578.24505 335.675549 
L 583.09875 337.771236 
L 585.5256 338.386154 
L 590.3793 340.232596 
L 592.80615 341.371208 
L 595.233 342.36826 
L 597.65985 343.572915 
L 600.0867 344.603454 
L 602.51355 345.760536 
L 609.7941 348.669791 
L 612.22095 349.90808 
L 614.6478 350.961464 
L 617.07465 351.858478 
L 624.3552 355.194779 
L 626.78205 355.887592 
L 629.2089 357.084821 
L 631.63575 358.054643 
L 634.0626 359.42827 
L 636.48945 360.471828 
L 641.34315 362.231639 
L 646.19685 364.268072 
L 648.6237 365.214275 
L 651.05055 366.343598 
L 655.90425 368.132272 
L 658.3311 369.557065 
L 663.1848 371.391085 
L 675.31905 376.294005 
L 680.17275 378.354669 
L 682.5996 379.167008 
L 689.88015 382.233375 
L 702.0144 387.987003 
L 704.44125 388.851795 
L 706.8681 389.535823 
L 711.7218 391.708892 
L 714.14865 392.486782 
L 716.5755 393.622257 
L 719.00235 394.518867 
L 721.4292 395.746377 
L 723.85605 396.31766 
L 728.70975 398.095542 
L 731.1366 399.511235 
L 733.56345 400.779577 
L 735.9903 401.555911 
L 740.844 403.583511 
L 743.27085 404.924452 
L 748.12455 406.977302 
L 750.5514 408.288978 
L 755.4051 410.148238 
L 757.83195 411.203109 
L 760.2588 411.814499 
L 762.68565 412.797845 
L 765.1125 413.601805 
L 767.53935 414.666098 
L 769.9662 415.519885 
L 772.39305 416.493469 
L 774.8199 416.97944 
L 779.6736 418.94422 
L 782.10045 419.6723 
L 784.5273 420.641941 
L 786.95415 421.964298 
L 789.381 422.828647 
L 791.80785 424.240638 
L 796.66155 426.277741 
L 799.0884 427.383967 
L 806.36895 430.365864 
L 808.7958 431.355101 
L 811.22265 431.949871 
L 816.07635 434.33093 
L 820.93005 435.837809 
L 823.3569 436.821446 
L 828.2106 438.530826 
L 830.63745 439.571657 
L 833.0643 440.253378 
L 837.918 442.609445 
L 840.34485 443.485146 
L 845.19855 445.625378 
L 847.6254 446.594579 
L 850.05225 447.365681 
L 852.4791 448.25617 
L 854.90595 449.299944 
L 857.3328 450.113 
L 864.61335 452.926649 
L 869.46705 455.226273 
L 871.8939 456.789168 
L 876.7476 458.941249 
L 879.17445 460.099831 
L 881.6013 460.944758 
L 884.02815 462.309218 
L 888.88185 463.889746 
L 891.3087 464.773381 
L 893.73555 465.391857 
L 896.1624 466.350679 
L 898.58925 467.181996 
L 901.0161 468.458035 
L 908.29665 471.736631 
L 910.7235 472.444617 
L 915.5772 474.490748 
L 918.00405 475.185951 
L 920.4309 476.24912 
L 922.85775 477.048945 
L 925.2846 478.357428 
L 930.1383 479.743269 
L 932.56515 480.710337 
L 934.992 481.874215 
L 937.41885 482.726312 
L 939.8457 484.151017 
L 951.97995 488.535982 
L 956.83365 490.592124 
L 961.68735 492.489402 
L 968.9679 495.012559 
L 971.39475 496.011276 
L 973.8216 497.161668 
L 976.24845 498.135955 
L 978.6753 498.839685 
L 985.95585 501.541444 
L 993.2364 504.168904 
L 995.66325 505.147385 
L 998.0901 505.853788 
L 1005.37065 508.629082 
L 1007.7975 509.882344 
L 1010.22435 510.856152 
L 1012.6512 511.664791 
L 1015.07805 512.610272 
L 1017.5049 513.247558 
L 1019.93175 514.028332 
L 1022.3586 515.212319 
L 1024.78545 516.698916 
L 1027.2123 517.800702 
L 1029.63915 518.642574 
L 1036.9197 520.785329 
L 1039.34655 521.980708 
L 1041.7734 522.729393 
L 1044.20025 523.748576 
L 1046.6271 524.609397 
L 1049.05395 525.74422 
L 1053.90765 527.653929 
L 1058.76135 529.365631 
L 1061.1882 530.193701 
L 1063.61505 531.413639 
L 1066.0419 532.389084 
L 1070.8956 533.499383 
L 1073.32245 534.636377 
L 1080.603 537.096447 
L 1083.02985 538.290824 
L 1085.4567 539.818875 
L 1090.3104 541.354595 
L 1095.1641 543.282777 
L 1097.59095 544.288575 
L 1100.0178 544.936258 
L 1102.44465 546.002247 
L 1107.29835 547.698628 
L 1109.7252 548.904116 
L 1112.15205 549.8275 
L 1114.5789 550.94434 
L 1126.71315 555.317585 
L 1129.14 556.45151 
L 1131.56685 557.062739 
L 1136.42055 558.877793 
L 1138.8474 559.885199 
L 1141.27425 560.722592 
L 1143.7011 561.895433 
L 1148.5548 563.413067 
L 1153.4085 565.03584 
L 1155.83535 565.815719 
L 1158.2622 567.001197 
L 1165.54275 569.782166 
L 1172.8233 572.6279 
L 1177.677 574.101832 
L 1187.3844 578.270338 
L 1192.2381 580.041215 
L 1194.66495 581.096342 
L 1197.0918 581.755324 
L 1199.51865 582.615057 
L 1201.9455 583.722645 
L 1206.7992 585.562181 
L 1209.22605 586.665746 
L 1211.6529 587.444589 
L 1214.07975 588.077239 
L 1216.5066 589.040313 
L 1218.93345 589.877315 
L 1221.3603 591.067464 
L 1223.78715 591.89489 
L 1228.64085 593.910986 
L 1235.9214 596.308139 
L 1238.34825 597.315908 
L 1240.7751 598.520852 
L 1248.05565 601.112339 
L 1252.90935 603.561833 
L 1255.3362 604.709167 
L 1260.1899 606.618292 
L 1262.61675 607.605393 
L 1265.0436 608.761178 
L 1267.47045 609.607841 
L 1269.8973 610.296419 
L 1277.17785 613.252078 
L 1282.03155 615.447724 
L 1286.88525 617.461803 
L 1289.3121 618.193532 
L 1291.73895 619.140685 
L 1294.1658 620.312782 
L 1308.7269 625.874891 
L 1313.5806 627.531256 
L 1320.86115 630.276848 
L 1323.288 631.483536 
L 1325.71485 632.194419 
L 1330.56855 633.948439 
L 1332.9954 635.151171 
L 1337.8491 636.948142 
L 1340.27595 637.722613 
L 1342.7028 638.618683 
L 1345.12965 639.341896 
L 1349.98335 641.71891 
L 1354.83705 643.472624 
L 1357.2639 644.429575 
L 1359.69075 645.203575 
L 1362.1176 646.355935 
L 1366.9713 648.214932 
L 1369.39815 648.940161 
L 1369.39815 648.940161 
" style="fill:none;stroke:#0000ff;stroke-linecap:square;stroke-width:2.0;"/>
   </g>
   <g id="line2d_2">
    <path clip-path="url(#pc179c72b0c)" d="M 158.4 135.366981 
L 160.82685 137.500839 
L 165.68055 140.746097 
L 168.1074 142.62744 
L 172.9611 145.809317 
L 175.38795 147.169374 
L 177.8148 149.047102 
L 187.5222 155.454894 
L 189.94905 157.289429 
L 194.80275 160.215964 
L 197.2296 161.571952 
L 199.65645 162.556638 
L 202.0833 163.68523 
L 204.51015 165.271789 
L 209.36385 168.09781 
L 216.6444 171.671083 
L 219.07125 172.463658 
L 221.4981 173.555807 
L 223.92495 175.054766 
L 226.3518 176.021026 
L 228.77865 177.4493 
L 233.63235 180.064599 
L 236.0592 181.624219 
L 238.48605 183.425629 
L 243.33975 186.158201 
L 248.19345 189.085365 
L 250.6203 190.680856 
L 257.90085 194.18833 
L 260.3277 195.780497 
L 262.75455 196.83732 
L 265.1814 198.288898 
L 267.60825 199.090536 
L 272.46195 201.393163 
L 274.8888 202.88146 
L 279.7425 205.586317 
L 282.16935 206.615928 
L 284.5962 207.436889 
L 289.4499 210.22749 
L 294.3036 212.200823 
L 296.73045 213.528574 
L 299.1573 214.528222 
L 308.8647 219.414 
L 311.29155 221.374054 
L 313.7184 222.505316 
L 316.14525 223.957874 
L 318.5721 225.132152 
L 320.99895 226.040284 
L 323.4258 227.304673 
L 325.85265 228.245662 
L 330.70635 230.641452 
L 333.1332 231.836375 
L 335.56005 232.801807 
L 337.9869 234.042427 
L 340.41375 235.05691 
L 347.6943 238.598691 
L 350.12115 239.344 
L 352.548 240.431882 
L 354.97485 241.112742 
L 357.4017 242.131566 
L 359.82855 243.507888 
L 362.2554 244.701464 
L 364.68225 245.62566 
L 367.1091 246.98982 
L 371.9628 249.397709 
L 374.38965 250.797049 
L 376.8165 251.946196 
L 379.24335 252.814424 
L 386.5239 256.075506 
L 393.80445 260.405 
L 396.2313 261.342698 
L 401.085 263.929888 
L 403.51185 265.072252 
L 405.9387 265.882585 
L 408.36555 266.840741 
L 410.7924 268.006757 
L 415.6461 269.984333 
L 418.07295 271.305503 
L 422.92665 273.71408 
L 425.3535 275.052513 
L 435.0609 279.196491 
L 437.48775 279.975537 
L 439.9146 281.236102 
L 442.34145 282.344743 
L 444.7683 283.197491 
L 447.19515 284.186952 
L 449.622 285.419335 
L 452.04885 286.3629 
L 456.90255 288.568167 
L 459.3294 289.45604 
L 461.75625 290.539954 
L 464.1831 291.379873 
L 466.60995 292.366843 
L 473.8905 295.714395 
L 476.31735 296.604398 
L 478.7442 297.679261 
L 481.17105 298.421898 
L 483.5979 299.37224 
L 486.02475 300.097185 
L 488.4516 301.27059 
L 493.3053 303.141251 
L 500.58585 306.736991 
L 503.0127 308.157806 
L 505.43955 309.225502 
L 510.29325 310.975717 
L 512.7201 312.160789 
L 515.14695 313.525145 
L 520.00065 315.891169 
L 522.4275 317.073391 
L 524.85435 318.104556 
L 527.2812 318.905019 
L 536.9886 322.80233 
L 539.41545 323.933055 
L 541.8423 324.646171 
L 551.5497 328.70579 
L 553.97655 329.711478 
L 556.4034 331.014968 
L 558.83025 332.12443 
L 561.2571 333.006263 
L 563.68395 333.704828 
L 566.1108 334.608407 
L 570.9645 337.181233 
L 578.24505 340.288262 
L 583.09875 342.858466 
L 597.65985 348.496401 
L 600.0867 349.748686 
L 602.51355 351.185849 
L 609.7941 354.407651 
L 612.22095 355.83824 
L 614.6478 356.570653 
L 621.92835 359.797484 
L 629.2089 363.016929 
L 631.63575 363.897361 
L 636.48945 366.261499 
L 638.9163 367.300433 
L 641.34315 368.495452 
L 643.77 369.362765 
L 648.6237 371.338714 
L 653.4774 372.988053 
L 660.75795 375.883347 
L 665.61165 378.401151 
L 675.31905 382.763002 
L 680.17275 384.815473 
L 687.4533 387.641008 
L 689.88015 388.462075 
L 694.73385 390.77103 
L 697.1607 391.648572 
L 699.58755 392.860601 
L 702.0144 393.91773 
L 704.44125 394.571788 
L 706.8681 395.839772 
L 709.29495 396.772329 
L 711.7218 398.007097 
L 714.14865 398.540567 
L 719.00235 400.465029 
L 728.70975 403.902877 
L 733.56345 405.952165 
L 735.9903 406.618857 
L 738.41715 407.913657 
L 740.844 408.782728 
L 743.27085 409.842237 
L 745.6977 411.046628 
L 752.97825 414.153727 
L 757.83195 416.529401 
L 760.2588 417.30733 
L 762.68565 418.757658 
L 765.1125 419.490013 
L 767.53935 420.557893 
L 777.24675 423.924954 
L 779.6736 425.064271 
L 784.5273 427.064408 
L 786.95415 427.779631 
L 789.381 429.077117 
L 791.80785 429.836861 
L 794.2347 430.888655 
L 796.66155 432.272957 
L 803.9421 434.820895 
L 806.36895 435.924464 
L 808.7958 436.862378 
L 811.22265 437.956749 
L 816.07635 439.973067 
L 818.5032 441.383012 
L 820.93005 442.186534 
L 823.3569 442.703865 
L 825.78375 443.523694 
L 830.63745 445.688257 
L 835.49115 447.314694 
L 837.918 448.115683 
L 840.34485 449.262343 
L 842.7717 450.016287 
L 845.19855 451.238182 
L 850.05225 453.2234 
L 857.3328 455.813486 
L 859.75965 457.119769 
L 862.1865 458.192763 
L 864.61335 459.004049 
L 869.46705 461.003196 
L 871.8939 462.233487 
L 874.32075 462.972963 
L 879.17445 464.987622 
L 884.02815 466.878223 
L 888.88185 468.347871 
L 893.73555 470.189606 
L 901.0161 473.14473 
L 903.44295 474.101263 
L 905.8698 475.290884 
L 910.7235 477.010485 
L 913.15035 478.172518 
L 915.5772 479.04398 
L 918.00405 480.185954 
L 920.4309 480.913688 
L 922.85775 481.990223 
L 925.2846 482.872875 
L 927.71145 483.994693 
L 937.41885 487.454438 
L 942.27255 488.960371 
L 956.83365 494.133918 
L 961.68735 495.851404 
L 968.9679 498.848275 
L 971.39475 500.069036 
L 973.8216 500.968235 
L 983.529 505.190847 
L 985.95585 505.910233 
L 988.3827 506.792976 
L 990.80955 507.919427 
L 993.2364 508.811423 
L 1012.6512 517.056829 
L 1017.5049 518.83027 
L 1019.93175 519.364129 
L 1024.78545 520.908672 
L 1027.2123 522.320667 
L 1029.63915 523.105155 
L 1032.066 524.109667 
L 1034.49285 525.475707 
L 1039.34655 527.847842 
L 1041.7734 528.647631 
L 1044.20025 529.748256 
L 1046.6271 530.442836 
L 1049.05395 531.307254 
L 1051.4808 532.040783 
L 1053.90765 533.593368 
L 1056.3345 534.585962 
L 1061.1882 537.074831 
L 1063.61505 538.074904 
L 1068.46875 539.75001 
L 1070.8956 540.861524 
L 1073.32245 541.797227 
L 1075.7493 542.58794 
L 1090.3104 548.432583 
L 1092.73725 549.56224 
L 1100.0178 552.20725 
L 1109.7252 556.748656 
L 1112.15205 557.576996 
L 1114.5789 558.594765 
L 1119.4326 560.165019 
L 1121.85945 561.189769 
L 1124.2863 562.431572 
L 1126.71315 563.475395 
L 1129.14 564.697681 
L 1131.56685 565.348775 
L 1133.9937 566.115514 
L 1136.42055 567.129266 
L 1138.8474 568.427713 
L 1143.7011 570.117437 
L 1146.12795 571.25298 
L 1148.5548 571.990343 
L 1150.98165 573.179062 
L 1155.83535 574.831517 
L 1158.2622 575.815109 
L 1160.68905 576.351787 
L 1163.1159 577.30833 
L 1165.54275 578.426587 
L 1167.9696 579.325041 
L 1170.39645 580.578691 
L 1172.8233 581.683508 
L 1175.25015 583.081153 
L 1177.677 584.102265 
L 1182.5307 585.649567 
L 1184.95755 586.434172 
L 1187.3844 586.984725 
L 1192.2381 589.065317 
L 1194.66495 590.377467 
L 1199.51865 592.414597 
L 1201.9455 593.29009 
L 1209.22605 596.613142 
L 1211.6529 597.380839 
L 1216.5066 599.618051 
L 1218.93345 600.477455 
L 1221.3603 601.693807 
L 1223.78715 602.423114 
L 1226.214 603.492603 
L 1228.64085 604.243583 
L 1231.0677 605.113922 
L 1233.49455 605.810546 
L 1235.9214 607.02075 
L 1238.34825 607.936643 
L 1240.7751 608.972798 
L 1243.20195 609.738506 
L 1252.90935 613.521058 
L 1255.3362 614.666411 
L 1260.1899 616.630298 
L 1262.61675 617.384101 
L 1265.0436 618.597908 
L 1267.47045 619.380084 
L 1269.8973 620.833183 
L 1272.32415 622.066465 
L 1274.751 622.898377 
L 1279.6047 625.224606 
L 1282.03155 626.056654 
L 1284.4584 627.045683 
L 1289.3121 629.501149 
L 1291.73895 630.235275 
L 1296.59265 632.631321 
L 1299.0195 633.626191 
L 1303.8732 635.430515 
L 1311.15375 638.546589 
L 1313.5806 639.802033 
L 1318.4343 641.790272 
L 1320.86115 642.696279 
L 1323.288 643.761557 
L 1325.71485 644.967415 
L 1335.42225 648.979789 
L 1337.8491 649.619797 
L 1340.27595 650.394599 
L 1342.7028 651.348916 
L 1347.5565 652.871007 
L 1352.4102 654.67214 
L 1354.83705 655.808437 
L 1364.54445 659.88813 
L 1366.9713 661.033985 
L 1369.39815 661.82379 
L 1369.39815 661.82379 
" style="fill:none;stroke:#008000;stroke-linecap:square;stroke-width:2.0;"/>
   </g>
   <g id="patch_3">
    <path d="M 158.4 51.3 
L 1371.825 51.3 
" style="fill:none;stroke:#000000;stroke-linecap:square;stroke-linejoin:miter;"/>
   </g>
   <g id="patch_4">
    <path d="M 1371.825 747 
L 1371.825 51.3 
" style="fill:none;stroke:#000000;stroke-linecap:square;stroke-linejoin:miter;"/>
   </g>
   <g id="patch_5">
    <path d="M 158.4 747 
L 1371.825 747 
" style="fill:none;stroke:#000000;stroke-linecap:square;stroke-linejoin:miter;"/>
   </g>
   <g id="patch_6">
    <path d="M 158.4 747 
L 158.4 51.3 
" style="fill:none;stroke:#000000;stroke-linecap:square;stroke-linejoin:miter;"/>
   </g>
   <g id="matplotlib.axis_1">
    <g id="xtick_1">
     <g id="line2d_3">
      <defs>
       <path d="M 0 0 
L 0 -4 
" id="m9865cc0c3a" style="stroke:#000000;stroke-width:0.5;"/>
      </defs>
      <g>
       <use style="stroke:#000000;stroke-width:0.5;" x="158.4" xlink:href="#m9865cc0c3a" y="747.0"/>
      </g>
     </g>
     <g id="line2d_4">
      <defs>
       <path d="M 0 0 
L 0 4 
" id="m20b473317b" style="stroke:#000000;stroke-width:0.5;"/>
      </defs>
      <g>
       <use style="stroke:#000000;stroke-width:0.5;" x="158.4" xlink:href="#m20b473317b" y="51.3"/>
      </g>
     </g>
     <g id="text_1">
      <!-- 0 -->
      <defs>
       <path d="M 31.78125 66.40625 
Q 24.171875 66.40625 20.328125 58.90625 
Q 16.5 51.421875 16.5 36.375 
Q 16.5 21.390625 20.328125 13.890625 
Q 24.171875 6.390625 31.78125 6.390625 
Q 39.453125 6.390625 43.28125 13.890625 
Q 47.125 21.390625 47.125 36.375 
Q 47.125 51.421875 43.28125 58.90625 
Q 39.453125 66.40625 31.78125 66.40625 
M 31.78125 74.21875 
Q 44.046875 74.21875 50.515625 64.515625 
Q 56.984375 54.828125 56.984375 36.375 
Q 56.984375 17.96875 50.515625 8.265625 
Q 44.046875 -1.421875 31.78125 -1.421875 
Q 19.53125 -1.421875 13.0625 8.265625 
Q 6.59375 17.96875 6.59375 36.375 
Q 6.59375 54.828125 13.0625 64.515625 
Q 19.53125 74.21875 31.78125 74.21875 
" id="BitstreamVeraSans-Roman-30"/>
      </defs>
      <g transform="translate(148.85625 773.7953125)scale(0.3 -0.3)">
       <use xlink:href="#BitstreamVeraSans-Roman-30"/>
      </g>
     </g>
    </g>
    <g id="xtick_2">
     <g id="line2d_5">
      <g>
       <use style="stroke:#000000;stroke-width:0.5;" x="401.085" xlink:href="#m9865cc0c3a" y="747.0"/>
      </g>
     </g>
     <g id="line2d_6">
      <g>
       <use style="stroke:#000000;stroke-width:0.5;" x="401.085" xlink:href="#m20b473317b" y="51.3"/>
      </g>
     </g>
     <g id="text_2">
      <!-- 100 -->
      <defs>
       <path d="M 12.40625 8.296875 
L 28.515625 8.296875 
L 28.515625 63.921875 
L 10.984375 60.40625 
L 10.984375 69.390625 
L 28.421875 72.90625 
L 38.28125 72.90625 
L 38.28125 8.296875 
L 54.390625 8.296875 
L 54.390625 0 
L 12.40625 0 
z
" id="BitstreamVeraSans-Roman-31"/>
      </defs>
      <g transform="translate(372.45375 773.7953125)scale(0.3 -0.3)">
       <use xlink:href="#BitstreamVeraSans-Roman-31"/>
       <use x="63.623046875" xlink:href="#BitstreamVeraSans-Roman-30"/>
       <use x="127.24609375" xlink:href="#BitstreamVeraSans-Roman-30"/>
      </g>
     </g>
    </g>
    <g id="xtick_3">
     <g id="line2d_7">
      <g>
       <use style="stroke:#000000;stroke-width:0.5;" x="643.77" xlink:href="#m9865cc0c3a" y="747.0"/>
      </g>
     </g>
     <g id="line2d_8">
      <g>
       <use style="stroke:#000000;stroke-width:0.5;" x="643.77" xlink:href="#m20b473317b" y="51.3"/>
      </g>
     </g>
     <g id="text_3">
      <!-- 200 -->
      <defs>
       <path d="M 19.1875 8.296875 
L 53.609375 8.296875 
L 53.609375 0 
L 7.328125 0 
L 7.328125 8.296875 
Q 12.9375 14.109375 22.625 23.890625 
Q 32.328125 33.6875 34.8125 36.53125 
Q 39.546875 41.84375 41.421875 45.53125 
Q 43.3125 49.21875 43.3125 52.78125 
Q 43.3125 58.59375 39.234375 62.25 
Q 35.15625 65.921875 28.609375 65.921875 
Q 23.96875 65.921875 18.8125 64.3125 
Q 13.671875 62.703125 7.8125 59.421875 
L 7.8125 69.390625 
Q 13.765625 71.78125 18.9375 73 
Q 24.125 74.21875 28.421875 74.21875 
Q 39.75 74.21875 46.484375 68.546875 
Q 53.21875 62.890625 53.21875 53.421875 
Q 53.21875 48.921875 51.53125 44.890625 
Q 49.859375 40.875 45.40625 35.40625 
Q 44.1875 33.984375 37.640625 27.21875 
Q 31.109375 20.453125 19.1875 8.296875 
" id="BitstreamVeraSans-Roman-32"/>
      </defs>
      <g transform="translate(615.13875 773.7953125)scale(0.3 -0.3)">
       <use xlink:href="#BitstreamVeraSans-Roman-32"/>
       <use x="63.623046875" xlink:href="#BitstreamVeraSans-Roman-30"/>
       <use x="127.24609375" xlink:href="#BitstreamVeraSans-Roman-30"/>
      </g>
     </g>
    </g>
    <g id="xtick_4">
     <g id="line2d_9">
      <g>
       <use style="stroke:#000000;stroke-width:0.5;" x="886.455" xlink:href="#m9865cc0c3a" y="747.0"/>
      </g>
     </g>
     <g id="line2d_10">
      <g>
       <use style="stroke:#000000;stroke-width:0.5;" x="886.455" xlink:href="#m20b473317b" y="51.3"/>
      </g>
     </g>
     <g id="text_4">
      <!-- 300 -->
      <defs>
       <path d="M 40.578125 39.3125 
Q 47.65625 37.796875 51.625 33 
Q 55.609375 28.21875 55.609375 21.1875 
Q 55.609375 10.40625 48.1875 4.484375 
Q 40.765625 -1.421875 27.09375 -1.421875 
Q 22.515625 -1.421875 17.65625 -0.515625 
Q 12.796875 0.390625 7.625 2.203125 
L 7.625 11.71875 
Q 11.71875 9.328125 16.59375 8.109375 
Q 21.484375 6.890625 26.8125 6.890625 
Q 36.078125 6.890625 40.9375 10.546875 
Q 45.796875 14.203125 45.796875 21.1875 
Q 45.796875 27.640625 41.28125 31.265625 
Q 36.765625 34.90625 28.71875 34.90625 
L 20.21875 34.90625 
L 20.21875 43.015625 
L 29.109375 43.015625 
Q 36.375 43.015625 40.234375 45.921875 
Q 44.09375 48.828125 44.09375 54.296875 
Q 44.09375 59.90625 40.109375 62.90625 
Q 36.140625 65.921875 28.71875 65.921875 
Q 24.65625 65.921875 20.015625 65.03125 
Q 15.375 64.15625 9.8125 62.3125 
L 9.8125 71.09375 
Q 15.4375 72.65625 20.34375 73.4375 
Q 25.25 74.21875 29.59375 74.21875 
Q 40.828125 74.21875 47.359375 69.109375 
Q 53.90625 64.015625 53.90625 55.328125 
Q 53.90625 49.265625 50.4375 45.09375 
Q 46.96875 40.921875 40.578125 39.3125 
" id="BitstreamVeraSans-Roman-33"/>
      </defs>
      <g transform="translate(857.82375 773.7953125)scale(0.3 -0.3)">
       <use xlink:href="#BitstreamVeraSans-Roman-33"/>
       <use x="63.623046875" xlink:href="#BitstreamVeraSans-Roman-30"/>
       <use x="127.24609375" xlink:href="#BitstreamVeraSans-Roman-30"/>
      </g>
     </g>
    </g>
    <g id="xtick_5">
     <g id="line2d_11">
      <g>
       <use style="stroke:#000000;stroke-width:0.5;" x="1129.14" xlink:href="#m9865cc0c3a" y="747.0"/>
      </g>
     </g>
     <g id="line2d_12">
      <g>
       <use style="stroke:#000000;stroke-width:0.5;" x="1129.14" xlink:href="#m20b473317b" y="51.3"/>
      </g>
     </g>
     <g id="text_5">
      <!-- 400 -->
      <defs>
       <path d="M 37.796875 64.3125 
L 12.890625 25.390625 
L 37.796875 25.390625 
z
M 35.203125 72.90625 
L 47.609375 72.90625 
L 47.609375 25.390625 
L 58.015625 25.390625 
L 58.015625 17.1875 
L 47.609375 17.1875 
L 47.609375 0 
L 37.796875 0 
L 37.796875 17.1875 
L 4.890625 17.1875 
L 4.890625 26.703125 
z
" id="BitstreamVeraSans-Roman-34"/>
      </defs>
      <g transform="translate(1100.50875 773.7953125)scale(0.3 -0.3)">
       <use xlink:href="#BitstreamVeraSans-Roman-34"/>
       <use x="63.623046875" xlink:href="#BitstreamVeraSans-Roman-30"/>
       <use x="127.24609375" xlink:href="#BitstreamVeraSans-Roman-30"/>
      </g>
     </g>
    </g>
    <g id="xtick_6">
     <g id="line2d_13">
      <g>
       <use style="stroke:#000000;stroke-width:0.5;" x="1371.825" xlink:href="#m9865cc0c3a" y="747.0"/>
      </g>
     </g>
     <g id="line2d_14">
      <g>
       <use style="stroke:#000000;stroke-width:0.5;" x="1371.825" xlink:href="#m20b473317b" y="51.3"/>
      </g>
     </g>
     <g id="text_6">
      <!-- 500 -->
      <defs>
       <path d="M 10.796875 72.90625 
L 49.515625 72.90625 
L 49.515625 64.59375 
L 19.828125 64.59375 
L 19.828125 46.734375 
Q 21.96875 47.46875 24.109375 47.828125 
Q 26.265625 48.1875 28.421875 48.1875 
Q 40.625 48.1875 47.75 41.5 
Q 54.890625 34.8125 54.890625 23.390625 
Q 54.890625 11.625 47.5625 5.09375 
Q 40.234375 -1.421875 26.90625 -1.421875 
Q 22.3125 -1.421875 17.546875 -0.640625 
Q 12.796875 0.140625 7.71875 1.703125 
L 7.71875 11.625 
Q 12.109375 9.234375 16.796875 8.0625 
Q 21.484375 6.890625 26.703125 6.890625 
Q 35.15625 6.890625 40.078125 11.328125 
Q 45.015625 15.765625 45.015625 23.390625 
Q 45.015625 31 40.078125 35.4375 
Q 35.15625 39.890625 26.703125 39.890625 
Q 22.75 39.890625 18.8125 39.015625 
Q 14.890625 38.140625 10.796875 36.28125 
z
" id="BitstreamVeraSans-Roman-35"/>
      </defs>
      <g transform="translate(1343.19375 773.7953125)scale(0.3 -0.3)">
       <use xlink:href="#BitstreamVeraSans-Roman-35"/>
       <use x="63.623046875" xlink:href="#BitstreamVeraSans-Roman-30"/>
       <use x="127.24609375" xlink:href="#BitstreamVeraSans-Roman-30"/>
      </g>
     </g>
    </g>
    <g id="text_7">
     <!-- iterations -->
     <defs>
      <path d="M 54.890625 33.015625 
L 54.890625 0 
L 45.90625 0 
L 45.90625 32.71875 
Q 45.90625 40.484375 42.875 44.328125 
Q 39.84375 48.1875 33.796875 48.1875 
Q 26.515625 48.1875 22.3125 43.546875 
Q 18.109375 38.921875 18.109375 30.90625 
L 18.109375 0 
L 9.078125 0 
L 9.078125 54.6875 
L 18.109375 54.6875 
L 18.109375 46.1875 
Q 21.34375 51.125 25.703125 53.5625 
Q 30.078125 56 35.796875 56 
Q 45.21875 56 50.046875 50.171875 
Q 54.890625 44.34375 54.890625 33.015625 
" id="BitstreamVeraSans-Roman-6e"/>
      <path d="M 34.28125 27.484375 
Q 23.390625 27.484375 19.1875 25 
Q 14.984375 22.515625 14.984375 16.5 
Q 14.984375 11.71875 18.140625 8.90625 
Q 21.296875 6.109375 26.703125 6.109375 
Q 34.1875 6.109375 38.703125 11.40625 
Q 43.21875 16.703125 43.21875 25.484375 
L 43.21875 27.484375 
z
M 52.203125 31.203125 
L 52.203125 0 
L 43.21875 0 
L 43.21875 8.296875 
Q 40.140625 3.328125 35.546875 0.953125 
Q 30.953125 -1.421875 24.3125 -1.421875 
Q 15.921875 -1.421875 10.953125 3.296875 
Q 6 8.015625 6 15.921875 
Q 6 25.140625 12.171875 29.828125 
Q 18.359375 34.515625 30.609375 34.515625 
L 43.21875 34.515625 
L 43.21875 35.40625 
Q 43.21875 41.609375 39.140625 45 
Q 35.0625 48.390625 27.6875 48.390625 
Q 23 48.390625 18.546875 47.265625 
Q 14.109375 46.140625 10.015625 43.890625 
L 10.015625 52.203125 
Q 14.9375 54.109375 19.578125 55.046875 
Q 24.21875 56 28.609375 56 
Q 40.484375 56 46.34375 49.84375 
Q 52.203125 43.703125 52.203125 31.203125 
" id="BitstreamVeraSans-Roman-61"/>
      <path d="M 30.609375 48.390625 
Q 23.390625 48.390625 19.1875 42.75 
Q 14.984375 37.109375 14.984375 27.296875 
Q 14.984375 17.484375 19.15625 11.84375 
Q 23.34375 6.203125 30.609375 6.203125 
Q 37.796875 6.203125 41.984375 11.859375 
Q 46.1875 17.53125 46.1875 27.296875 
Q 46.1875 37.015625 41.984375 42.703125 
Q 37.796875 48.390625 30.609375 48.390625 
M 30.609375 56 
Q 42.328125 56 49.015625 48.375 
Q 55.71875 40.765625 55.71875 27.296875 
Q 55.71875 13.875 49.015625 6.21875 
Q 42.328125 -1.421875 30.609375 -1.421875 
Q 18.84375 -1.421875 12.171875 6.21875 
Q 5.515625 13.875 5.515625 27.296875 
Q 5.515625 40.765625 12.171875 48.375 
Q 18.84375 56 30.609375 56 
" id="BitstreamVeraSans-Roman-6f"/>
      <path d="M 9.421875 54.6875 
L 18.40625 54.6875 
L 18.40625 0 
L 9.421875 0 
z
M 9.421875 75.984375 
L 18.40625 75.984375 
L 18.40625 64.59375 
L 9.421875 64.59375 
z
" id="BitstreamVeraSans-Roman-69"/>
      <path d="M 56.203125 29.59375 
L 56.203125 25.203125 
L 14.890625 25.203125 
Q 15.484375 15.921875 20.484375 11.0625 
Q 25.484375 6.203125 34.421875 6.203125 
Q 39.59375 6.203125 44.453125 7.46875 
Q 49.3125 8.734375 54.109375 11.28125 
L 54.109375 2.78125 
Q 49.265625 0.734375 44.1875 -0.34375 
Q 39.109375 -1.421875 33.890625 -1.421875 
Q 20.796875 -1.421875 13.15625 6.1875 
Q 5.515625 13.8125 5.515625 26.8125 
Q 5.515625 40.234375 12.765625 48.109375 
Q 20.015625 56 32.328125 56 
Q 43.359375 56 49.78125 48.890625 
Q 56.203125 41.796875 56.203125 29.59375 
M 47.21875 32.234375 
Q 47.125 39.59375 43.09375 43.984375 
Q 39.0625 48.390625 32.421875 48.390625 
Q 24.90625 48.390625 20.390625 44.140625 
Q 15.875 39.890625 15.1875 32.171875 
z
" id="BitstreamVeraSans-Roman-65"/>
      <path d="M 18.3125 70.21875 
L 18.3125 54.6875 
L 36.8125 54.6875 
L 36.8125 47.703125 
L 18.3125 47.703125 
L 18.3125 18.015625 
Q 18.3125 11.328125 20.140625 9.421875 
Q 21.96875 7.515625 27.59375 7.515625 
L 36.8125 7.515625 
L 36.8125 0 
L 27.59375 0 
Q 17.1875 0 13.234375 3.875 
Q 9.28125 7.765625 9.28125 18.015625 
L 9.28125 47.703125 
L 2.6875 47.703125 
L 2.6875 54.6875 
L 9.28125 54.6875 
L 9.28125 70.21875 
z
" id="BitstreamVeraSans-Roman-74"/>
      <path d="M 41.109375 46.296875 
Q 39.59375 47.171875 37.8125 47.578125 
Q 36.03125 48 33.890625 48 
Q 26.265625 48 22.1875 43.046875 
Q 18.109375 38.09375 18.109375 28.8125 
L 18.109375 0 
L 9.078125 0 
L 9.078125 54.6875 
L 18.109375 54.6875 
L 18.109375 46.1875 
Q 20.953125 51.171875 25.484375 53.578125 
Q 30.03125 56 36.53125 56 
Q 37.453125 56 38.578125 55.875 
Q 39.703125 55.765625 41.0625 55.515625 
z
" id="BitstreamVeraSans-Roman-72"/>
      <path d="M 44.28125 53.078125 
L 44.28125 44.578125 
Q 40.484375 46.53125 36.375 47.5 
Q 32.28125 48.484375 27.875 48.484375 
Q 21.1875 48.484375 17.84375 46.4375 
Q 14.5 44.390625 14.5 40.28125 
Q 14.5 37.15625 16.890625 35.375 
Q 19.28125 33.59375 26.515625 31.984375 
L 29.59375 31.296875 
Q 39.15625 29.25 43.1875 25.515625 
Q 47.21875 21.78125 47.21875 15.09375 
Q 47.21875 7.46875 41.1875 3.015625 
Q 35.15625 -1.421875 24.609375 -1.421875 
Q 20.21875 -1.421875 15.453125 -0.5625 
Q 10.6875 0.296875 5.421875 2 
L 5.421875 11.28125 
Q 10.40625 8.6875 15.234375 7.390625 
Q 20.0625 6.109375 24.8125 6.109375 
Q 31.15625 6.109375 34.5625 8.28125 
Q 37.984375 10.453125 37.984375 14.40625 
Q 37.984375 18.0625 35.515625 20.015625 
Q 33.0625 21.96875 24.703125 23.78125 
L 21.578125 24.515625 
Q 13.234375 26.265625 9.515625 29.90625 
Q 5.8125 33.546875 5.8125 39.890625 
Q 5.8125 47.609375 11.28125 51.796875 
Q 16.75 56 26.8125 56 
Q 31.78125 56 36.171875 55.265625 
Q 40.578125 54.546875 44.28125 53.078125 
" id="BitstreamVeraSans-Roman-73"/>
     </defs>
     <g transform="translate(693.93046875 807.8296875)scale(0.3 -0.3)">
      <use xlink:href="#BitstreamVeraSans-Roman-69"/>
      <use x="27.783203125" xlink:href="#BitstreamVeraSans-Roman-74"/>
      <use x="66.9921875" xlink:href="#BitstreamVeraSans-Roman-65"/>
      <use x="128.515625" xlink:href="#BitstreamVeraSans-Roman-72"/>
      <use x="169.62890625" xlink:href="#BitstreamVeraSans-Roman-61"/>
      <use x="230.908203125" xlink:href="#BitstreamVeraSans-Roman-74"/>
      <use x="270.1171875" xlink:href="#BitstreamVeraSans-Roman-69"/>
      <use x="297.900390625" xlink:href="#BitstreamVeraSans-Roman-6f"/>
      <use x="359.08203125" xlink:href="#BitstreamVeraSans-Roman-6e"/>
      <use x="422.4609375" xlink:href="#BitstreamVeraSans-Roman-73"/>
     </g>
    </g>
   </g>
   <g id="matplotlib.axis_2">
    <g id="ytick_1">
     <g id="line2d_15">
      <defs>
       <path d="M 0 0 
L 4 0 
" id="m378853c178" style="stroke:#000000;stroke-width:0.5;"/>
      </defs>
      <g>
       <use style="stroke:#000000;stroke-width:0.5;" x="158.4" xlink:href="#m378853c178" y="747.0"/>
      </g>
     </g>
     <g id="line2d_16">
      <defs>
       <path d="M 0 0 
L -4 0 
" id="med1afde04f" style="stroke:#000000;stroke-width:0.5;"/>
      </defs>
      <g>
       <use style="stroke:#000000;stroke-width:0.5;" x="1371.825" xlink:href="#med1afde04f" y="747.0"/>
      </g>
     </g>
     <g id="text_8">
      <!-- −60 -->
      <defs>
       <path d="M 10.59375 35.5 
L 73.1875 35.5 
L 73.1875 27.203125 
L 10.59375 27.203125 
z
" id="BitstreamVeraSans-Roman-2212"/>
       <path d="M 33.015625 40.375 
Q 26.375 40.375 22.484375 35.828125 
Q 18.609375 31.296875 18.609375 23.390625 
Q 18.609375 15.53125 22.484375 10.953125 
Q 26.375 6.390625 33.015625 6.390625 
Q 39.65625 6.390625 43.53125 10.953125 
Q 47.40625 15.53125 47.40625 23.390625 
Q 47.40625 31.296875 43.53125 35.828125 
Q 39.65625 40.375 33.015625 40.375 
M 52.59375 71.296875 
L 52.59375 62.3125 
Q 48.875 64.0625 45.09375 64.984375 
Q 41.3125 65.921875 37.59375 65.921875 
Q 27.828125 65.921875 22.671875 59.328125 
Q 17.53125 52.734375 16.796875 39.40625 
Q 19.671875 43.65625 24.015625 45.921875 
Q 28.375 48.1875 33.59375 48.1875 
Q 44.578125 48.1875 50.953125 41.515625 
Q 57.328125 34.859375 57.328125 23.390625 
Q 57.328125 12.15625 50.6875 5.359375 
Q 44.046875 -1.421875 33.015625 -1.421875 
Q 20.359375 -1.421875 13.671875 8.265625 
Q 6.984375 17.96875 6.984375 36.375 
Q 6.984375 53.65625 15.1875 63.9375 
Q 23.390625 74.21875 37.203125 74.21875 
Q 40.921875 74.21875 44.703125 73.484375 
Q 48.484375 72.75 52.59375 71.296875 
" id="BitstreamVeraSans-Roman-36"/>
      </defs>
      <g transform="translate(91.0859375 755.278125)scale(0.3 -0.3)">
       <use xlink:href="#BitstreamVeraSans-Roman-2212"/>
       <use x="83.7890625" xlink:href="#BitstreamVeraSans-Roman-36"/>
       <use x="147.412109375" xlink:href="#BitstreamVeraSans-Roman-30"/>
      </g>
     </g>
    </g>
    <g id="ytick_2">
     <g id="line2d_17">
      <g>
       <use style="stroke:#000000;stroke-width:0.5;" x="158.4" xlink:href="#m378853c178" y="660.0375"/>
      </g>
     </g>
     <g id="line2d_18">
      <g>
       <use style="stroke:#000000;stroke-width:0.5;" x="1371.825" xlink:href="#med1afde04f" y="660.0375"/>
      </g>
     </g>
     <g id="text_9">
      <!-- −50 -->
      <g transform="translate(91.0859375 668.315625)scale(0.3 -0.3)">
       <use xlink:href="#BitstreamVeraSans-Roman-2212"/>
       <use x="83.7890625" xlink:href="#BitstreamVeraSans-Roman-35"/>
       <use x="147.412109375" xlink:href="#BitstreamVeraSans-Roman-30"/>
      </g>
     </g>
    </g>
    <g id="ytick_3">
     <g id="line2d_19">
      <g>
       <use style="stroke:#000000;stroke-width:0.5;" x="158.4" xlink:href="#m378853c178" y="573.075"/>
      </g>
     </g>
     <g id="line2d_20">
      <g>
       <use style="stroke:#000000;stroke-width:0.5;" x="1371.825" xlink:href="#med1afde04f" y="573.075"/>
      </g>
     </g>
     <g id="text_10">
      <!-- −40 -->
      <g transform="translate(91.0859375 581.353125)scale(0.3 -0.3)">
       <use xlink:href="#BitstreamVeraSans-Roman-2212"/>
       <use x="83.7890625" xlink:href="#BitstreamVeraSans-Roman-34"/>
       <use x="147.412109375" xlink:href="#BitstreamVeraSans-Roman-30"/>
      </g>
     </g>
    </g>
    <g id="ytick_4">
     <g id="line2d_21">
      <g>
       <use style="stroke:#000000;stroke-width:0.5;" x="158.4" xlink:href="#m378853c178" y="486.1125"/>
      </g>
     </g>
     <g id="line2d_22">
      <g>
       <use style="stroke:#000000;stroke-width:0.5;" x="1371.825" xlink:href="#med1afde04f" y="486.1125"/>
      </g>
     </g>
     <g id="text_11">
      <!-- −30 -->
      <g transform="translate(91.0859375 494.390625)scale(0.3 -0.3)">
       <use xlink:href="#BitstreamVeraSans-Roman-2212"/>
       <use x="83.7890625" xlink:href="#BitstreamVeraSans-Roman-33"/>
       <use x="147.412109375" xlink:href="#BitstreamVeraSans-Roman-30"/>
      </g>
     </g>
    </g>
    <g id="ytick_5">
     <g id="line2d_23">
      <g>
       <use style="stroke:#000000;stroke-width:0.5;" x="158.4" xlink:href="#m378853c178" y="399.15"/>
      </g>
     </g>
     <g id="line2d_24">
      <g>
       <use style="stroke:#000000;stroke-width:0.5;" x="1371.825" xlink:href="#med1afde04f" y="399.15"/>
      </g>
     </g>
     <g id="text_12">
      <!-- −20 -->
      <g transform="translate(91.0859375 407.428125)scale(0.3 -0.3)">
       <use xlink:href="#BitstreamVeraSans-Roman-2212"/>
       <use x="83.7890625" xlink:href="#BitstreamVeraSans-Roman-32"/>
       <use x="147.412109375" xlink:href="#BitstreamVeraSans-Roman-30"/>
      </g>
     </g>
    </g>
    <g id="ytick_6">
     <g id="line2d_25">
      <g>
       <use style="stroke:#000000;stroke-width:0.5;" x="158.4" xlink:href="#m378853c178" y="312.1875"/>
      </g>
     </g>
     <g id="line2d_26">
      <g>
       <use style="stroke:#000000;stroke-width:0.5;" x="1371.825" xlink:href="#med1afde04f" y="312.1875"/>
      </g>
     </g>
     <g id="text_13">
      <!-- −10 -->
      <g transform="translate(91.0859375 320.465625)scale(0.3 -0.3)">
       <use xlink:href="#BitstreamVeraSans-Roman-2212"/>
       <use x="83.7890625" xlink:href="#BitstreamVeraSans-Roman-31"/>
       <use x="147.412109375" xlink:href="#BitstreamVeraSans-Roman-30"/>
      </g>
     </g>
    </g>
    <g id="ytick_7">
     <g id="line2d_27">
      <g>
       <use style="stroke:#000000;stroke-width:0.5;" x="158.4" xlink:href="#m378853c178" y="225.225"/>
      </g>
     </g>
     <g id="line2d_28">
      <g>
       <use style="stroke:#000000;stroke-width:0.5;" x="1371.825" xlink:href="#med1afde04f" y="225.225"/>
      </g>
     </g>
     <g id="text_14">
      <!-- 0 -->
      <g transform="translate(135.3125 233.503125)scale(0.3 -0.3)">
       <use xlink:href="#BitstreamVeraSans-Roman-30"/>
      </g>
     </g>
    </g>
    <g id="ytick_8">
     <g id="line2d_29">
      <g>
       <use style="stroke:#000000;stroke-width:0.5;" x="158.4" xlink:href="#m378853c178" y="138.2625"/>
      </g>
     </g>
     <g id="line2d_30">
      <g>
       <use style="stroke:#000000;stroke-width:0.5;" x="1371.825" xlink:href="#med1afde04f" y="138.2625"/>
      </g>
     </g>
     <g id="text_15">
      <!-- 10 -->
      <g transform="translate(116.225 146.540625)scale(0.3 -0.3)">
       <use xlink:href="#BitstreamVeraSans-Roman-31"/>
       <use x="63.623046875" xlink:href="#BitstreamVeraSans-Roman-30"/>
      </g>
     </g>
    </g>
    <g id="ytick_9">
     <g id="line2d_31">
      <g>
       <use style="stroke:#000000;stroke-width:0.5;" x="158.4" xlink:href="#m378853c178" y="51.3"/>
      </g>
     </g>
     <g id="line2d_32">
      <g>
       <use style="stroke:#000000;stroke-width:0.5;" x="1371.825" xlink:href="#med1afde04f" y="51.3"/>
      </g>
     </g>
     <g id="text_16">
      <!-- 20 -->
      <g transform="translate(116.225 59.578125)scale(0.3 -0.3)">
       <use xlink:href="#BitstreamVeraSans-Roman-32"/>
       <use x="63.623046875" xlink:href="#BitstreamVeraSans-Roman-30"/>
      </g>
     </g>
    </g>
    <g id="text_17">
     <!-- log(loss) -->
     <defs>
      <path d="M 8.015625 75.875 
L 15.828125 75.875 
Q 23.140625 64.359375 26.78125 53.3125 
Q 30.421875 42.28125 30.421875 31.390625 
Q 30.421875 20.453125 26.78125 9.375 
Q 23.140625 -1.703125 15.828125 -13.1875 
L 8.015625 -13.1875 
Q 14.5 -2 17.703125 9.0625 
Q 20.90625 20.125 20.90625 31.390625 
Q 20.90625 42.671875 17.703125 53.65625 
Q 14.5 64.65625 8.015625 75.875 
" id="BitstreamVeraSans-Roman-29"/>
      <path d="M 31 75.875 
Q 24.46875 64.65625 21.28125 53.65625 
Q 18.109375 42.671875 18.109375 31.390625 
Q 18.109375 20.125 21.3125 9.0625 
Q 24.515625 -2 31 -13.1875 
L 23.1875 -13.1875 
Q 15.875 -1.703125 12.234375 9.375 
Q 8.59375 20.453125 8.59375 31.390625 
Q 8.59375 42.28125 12.203125 53.3125 
Q 15.828125 64.359375 23.1875 75.875 
z
" id="BitstreamVeraSans-Roman-28"/>
      <path d="M 45.40625 27.984375 
Q 45.40625 37.75 41.375 43.109375 
Q 37.359375 48.484375 30.078125 48.484375 
Q 22.859375 48.484375 18.828125 43.109375 
Q 14.796875 37.75 14.796875 27.984375 
Q 14.796875 18.265625 18.828125 12.890625 
Q 22.859375 7.515625 30.078125 7.515625 
Q 37.359375 7.515625 41.375 12.890625 
Q 45.40625 18.265625 45.40625 27.984375 
M 54.390625 6.78125 
Q 54.390625 -7.171875 48.1875 -13.984375 
Q 42 -20.796875 29.203125 -20.796875 
Q 24.46875 -20.796875 20.265625 -20.09375 
Q 16.0625 -19.390625 12.109375 -17.921875 
L 12.109375 -9.1875 
Q 16.0625 -11.328125 19.921875 -12.34375 
Q 23.78125 -13.375 27.78125 -13.375 
Q 36.625 -13.375 41.015625 -8.765625 
Q 45.40625 -4.15625 45.40625 5.171875 
L 45.40625 9.625 
Q 42.625 4.78125 38.28125 2.390625 
Q 33.9375 0 27.875 0 
Q 17.828125 0 11.671875 7.65625 
Q 5.515625 15.328125 5.515625 27.984375 
Q 5.515625 40.671875 11.671875 48.328125 
Q 17.828125 56 27.875 56 
Q 33.9375 56 38.28125 53.609375 
Q 42.625 51.21875 45.40625 46.390625 
L 45.40625 54.6875 
L 54.390625 54.6875 
z
" id="BitstreamVeraSans-Roman-67"/>
      <path d="M 9.421875 75.984375 
L 18.40625 75.984375 
L 18.40625 0 
L 9.421875 0 
z
" id="BitstreamVeraSans-Roman-6c"/>
     </defs>
     <g transform="translate(79.846875 462.69609375)rotate(-90.0)scale(0.3 -0.3)">
      <use xlink:href="#BitstreamVeraSans-Roman-6c"/>
      <use x="27.783203125" xlink:href="#BitstreamVeraSans-Roman-6f"/>
      <use x="88.96484375" xlink:href="#BitstreamVeraSans-Roman-67"/>
      <use x="152.44140625" xlink:href="#BitstreamVeraSans-Roman-28"/>
      <use x="191.455078125" xlink:href="#BitstreamVeraSans-Roman-6c"/>
      <use x="219.23828125" xlink:href="#BitstreamVeraSans-Roman-6f"/>
      <use x="280.419921875" xlink:href="#BitstreamVeraSans-Roman-73"/>
      <use x="332.51953125" xlink:href="#BitstreamVeraSans-Roman-73"/>
      <use x="384.619140625" xlink:href="#BitstreamVeraSans-Roman-29"/>
     </g>
    </g>
   </g>
   <g id="legend_1">
    <g id="patch_7">
     <path d="M 879.651562 163.36875 
L 1356.825 163.36875 
L 1356.825 66.3 
L 879.651562 66.3 
z
" style="fill:#ffffff;stroke:#000000;stroke-linejoin:miter;"/>
    </g>
    <g id="line2d_33">
     <path d="M 900.651562 90.595312 
L 942.651562 90.595312 
" style="fill:none;stroke:#0000ff;stroke-linecap:square;stroke-width:2.0;"/>
    </g>
    <g id="line2d_34"/>
    <g id="text_18">
     <!-- random: step=0.009776 -->
     <defs>
      <path id="BitstreamVeraSans-Roman-20"/>
      <path d="M 8.203125 72.90625 
L 55.078125 72.90625 
L 55.078125 68.703125 
L 28.609375 0 
L 18.3125 0 
L 43.21875 64.59375 
L 8.203125 64.59375 
z
" id="BitstreamVeraSans-Roman-37"/>
      <path d="M 52 44.1875 
Q 55.375 50.25 60.0625 53.125 
Q 64.75 56 71.09375 56 
Q 79.640625 56 84.28125 50.015625 
Q 88.921875 44.046875 88.921875 33.015625 
L 88.921875 0 
L 79.890625 0 
L 79.890625 32.71875 
Q 79.890625 40.578125 77.09375 44.375 
Q 74.3125 48.1875 68.609375 48.1875 
Q 61.625 48.1875 57.5625 43.546875 
Q 53.515625 38.921875 53.515625 30.90625 
L 53.515625 0 
L 44.484375 0 
L 44.484375 32.71875 
Q 44.484375 40.625 41.703125 44.40625 
Q 38.921875 48.1875 33.109375 48.1875 
Q 26.21875 48.1875 22.15625 43.53125 
Q 18.109375 38.875 18.109375 30.90625 
L 18.109375 0 
L 9.078125 0 
L 9.078125 54.6875 
L 18.109375 54.6875 
L 18.109375 46.1875 
Q 21.1875 51.21875 25.484375 53.609375 
Q 29.78125 56 35.6875 56 
Q 41.65625 56 45.828125 52.96875 
Q 50 49.953125 52 44.1875 
" id="BitstreamVeraSans-Roman-6d"/>
      <path d="M 10.984375 1.515625 
L 10.984375 10.5 
Q 14.703125 8.734375 18.5 7.8125 
Q 22.3125 6.890625 25.984375 6.890625 
Q 35.75 6.890625 40.890625 13.453125 
Q 46.046875 20.015625 46.78125 33.40625 
Q 43.953125 29.203125 39.59375 26.953125 
Q 35.25 24.703125 29.984375 24.703125 
Q 19.046875 24.703125 12.671875 31.3125 
Q 6.296875 37.9375 6.296875 49.421875 
Q 6.296875 60.640625 12.9375 67.421875 
Q 19.578125 74.21875 30.609375 74.21875 
Q 43.265625 74.21875 49.921875 64.515625 
Q 56.59375 54.828125 56.59375 36.375 
Q 56.59375 19.140625 48.40625 8.859375 
Q 40.234375 -1.421875 26.421875 -1.421875 
Q 22.703125 -1.421875 18.890625 -0.6875 
Q 15.09375 0.046875 10.984375 1.515625 
M 30.609375 32.421875 
Q 37.25 32.421875 41.125 36.953125 
Q 45.015625 41.5 45.015625 49.421875 
Q 45.015625 57.28125 41.125 61.84375 
Q 37.25 66.40625 30.609375 66.40625 
Q 23.96875 66.40625 20.09375 61.84375 
Q 16.21875 57.28125 16.21875 49.421875 
Q 16.21875 41.5 20.09375 36.953125 
Q 23.96875 32.421875 30.609375 32.421875 
" id="BitstreamVeraSans-Roman-39"/>
      <path d="M 11.71875 12.40625 
L 22.015625 12.40625 
L 22.015625 0 
L 11.71875 0 
z
M 11.71875 51.703125 
L 22.015625 51.703125 
L 22.015625 39.3125 
L 11.71875 39.3125 
z
" id="BitstreamVeraSans-Roman-3a"/>
      <path d="M 10.6875 12.40625 
L 21 12.40625 
L 21 0 
L 10.6875 0 
z
" id="BitstreamVeraSans-Roman-2e"/>
      <path d="M 10.59375 45.40625 
L 73.1875 45.40625 
L 73.1875 37.203125 
L 10.59375 37.203125 
z
M 10.59375 25.484375 
L 73.1875 25.484375 
L 73.1875 17.1875 
L 10.59375 17.1875 
z
" id="BitstreamVeraSans-Roman-3d"/>
      <path d="M 45.40625 46.390625 
L 45.40625 75.984375 
L 54.390625 75.984375 
L 54.390625 0 
L 45.40625 0 
L 45.40625 8.203125 
Q 42.578125 3.328125 38.25 0.953125 
Q 33.9375 -1.421875 27.875 -1.421875 
Q 17.96875 -1.421875 11.734375 6.484375 
Q 5.515625 14.40625 5.515625 27.296875 
Q 5.515625 40.1875 11.734375 48.09375 
Q 17.96875 56 27.875 56 
Q 33.9375 56 38.25 53.625 
Q 42.578125 51.265625 45.40625 46.390625 
M 14.796875 27.296875 
Q 14.796875 17.390625 18.875 11.75 
Q 22.953125 6.109375 30.078125 6.109375 
Q 37.203125 6.109375 41.296875 11.75 
Q 45.40625 17.390625 45.40625 27.296875 
Q 45.40625 37.203125 41.296875 42.84375 
Q 37.203125 48.484375 30.078125 48.484375 
Q 22.953125 48.484375 18.875 42.84375 
Q 14.796875 37.203125 14.796875 27.296875 
" id="BitstreamVeraSans-Roman-64"/>
      <path d="M 18.109375 8.203125 
L 18.109375 -20.796875 
L 9.078125 -20.796875 
L 9.078125 54.6875 
L 18.109375 54.6875 
L 18.109375 46.390625 
Q 20.953125 51.265625 25.265625 53.625 
Q 29.59375 56 35.59375 56 
Q 45.5625 56 51.78125 48.09375 
Q 58.015625 40.1875 58.015625 27.296875 
Q 58.015625 14.40625 51.78125 6.484375 
Q 45.5625 -1.421875 35.59375 -1.421875 
Q 29.59375 -1.421875 25.265625 0.953125 
Q 20.953125 3.328125 18.109375 8.203125 
M 48.6875 27.296875 
Q 48.6875 37.203125 44.609375 42.84375 
Q 40.53125 48.484375 33.40625 48.484375 
Q 26.265625 48.484375 22.1875 42.84375 
Q 18.109375 37.203125 18.109375 27.296875 
Q 18.109375 17.390625 22.1875 11.75 
Q 26.265625 6.109375 33.40625 6.109375 
Q 40.53125 6.109375 44.609375 11.75 
Q 48.6875 17.390625 48.6875 27.296875 
" id="BitstreamVeraSans-Roman-70"/>
     </defs>
     <g transform="translate(975.6515625 101.0953125)scale(0.3 -0.3)">
      <use xlink:href="#BitstreamVeraSans-Roman-72"/>
      <use x="41.11328125" xlink:href="#BitstreamVeraSans-Roman-61"/>
      <use x="102.392578125" xlink:href="#BitstreamVeraSans-Roman-6e"/>
      <use x="165.771484375" xlink:href="#BitstreamVeraSans-Roman-64"/>
      <use x="229.248046875" xlink:href="#BitstreamVeraSans-Roman-6f"/>
      <use x="290.4296875" xlink:href="#BitstreamVeraSans-Roman-6d"/>
      <use x="387.841796875" xlink:href="#BitstreamVeraSans-Roman-3a"/>
      <use x="421.533203125" xlink:href="#BitstreamVeraSans-Roman-20"/>
      <use x="453.3203125" xlink:href="#BitstreamVeraSans-Roman-73"/>
      <use x="505.419921875" xlink:href="#BitstreamVeraSans-Roman-74"/>
      <use x="544.62890625" xlink:href="#BitstreamVeraSans-Roman-65"/>
      <use x="606.15234375" xlink:href="#BitstreamVeraSans-Roman-70"/>
      <use x="669.62890625" xlink:href="#BitstreamVeraSans-Roman-3d"/>
      <use x="753.41796875" xlink:href="#BitstreamVeraSans-Roman-30"/>
      <use x="817.041015625" xlink:href="#BitstreamVeraSans-Roman-2e"/>
      <use x="848.828125" xlink:href="#BitstreamVeraSans-Roman-30"/>
      <use x="912.451171875" xlink:href="#BitstreamVeraSans-Roman-30"/>
      <use x="976.07421875" xlink:href="#BitstreamVeraSans-Roman-39"/>
      <use x="1039.69726562" xlink:href="#BitstreamVeraSans-Roman-37"/>
      <use x="1103.3203125" xlink:href="#BitstreamVeraSans-Roman-37"/>
      <use x="1166.94335938" xlink:href="#BitstreamVeraSans-Roman-36"/>
     </g>
    </g>
    <g id="line2d_35">
     <path d="M 900.651562 134.629687 
L 942.651562 134.629687 
" style="fill:none;stroke:#008000;stroke-linecap:square;stroke-width:2.0;"/>
    </g>
    <g id="line2d_36"/>
    <g id="text_19">
     <!-- corr: step=0.009776 -->
     <defs>
      <path d="M 48.78125 52.59375 
L 48.78125 44.1875 
Q 44.96875 46.296875 41.140625 47.34375 
Q 37.3125 48.390625 33.40625 48.390625 
Q 24.65625 48.390625 19.8125 42.84375 
Q 14.984375 37.3125 14.984375 27.296875 
Q 14.984375 17.28125 19.8125 11.734375 
Q 24.65625 6.203125 33.40625 6.203125 
Q 37.3125 6.203125 41.140625 7.25 
Q 44.96875 8.296875 48.78125 10.40625 
L 48.78125 2.09375 
Q 45.015625 0.34375 40.984375 -0.53125 
Q 36.96875 -1.421875 32.421875 -1.421875 
Q 20.0625 -1.421875 12.78125 6.34375 
Q 5.515625 14.109375 5.515625 27.296875 
Q 5.515625 40.671875 12.859375 48.328125 
Q 20.21875 56 33.015625 56 
Q 37.15625 56 41.109375 55.140625 
Q 45.0625 54.296875 48.78125 52.59375 
" id="BitstreamVeraSans-Roman-63"/>
     </defs>
     <g transform="translate(975.6515625 145.1296875)scale(0.3 -0.3)">
      <use xlink:href="#BitstreamVeraSans-Roman-63"/>
      <use x="54.98046875" xlink:href="#BitstreamVeraSans-Roman-6f"/>
      <use x="116.162109375" xlink:href="#BitstreamVeraSans-Roman-72"/>
      <use x="157.259765625" xlink:href="#BitstreamVeraSans-Roman-72"/>
      <use x="198.357421875" xlink:href="#BitstreamVeraSans-Roman-3a"/>
      <use x="232.048828125" xlink:href="#BitstreamVeraSans-Roman-20"/>
      <use x="263.8359375" xlink:href="#BitstreamVeraSans-Roman-73"/>
      <use x="315.935546875" xlink:href="#BitstreamVeraSans-Roman-74"/>
      <use x="355.14453125" xlink:href="#BitstreamVeraSans-Roman-65"/>
      <use x="416.66796875" xlink:href="#BitstreamVeraSans-Roman-70"/>
      <use x="480.14453125" xlink:href="#BitstreamVeraSans-Roman-3d"/>
      <use x="563.93359375" xlink:href="#BitstreamVeraSans-Roman-30"/>
      <use x="627.556640625" xlink:href="#BitstreamVeraSans-Roman-2e"/>
      <use x="659.34375" xlink:href="#BitstreamVeraSans-Roman-30"/>
      <use x="722.966796875" xlink:href="#BitstreamVeraSans-Roman-30"/>
      <use x="786.58984375" xlink:href="#BitstreamVeraSans-Roman-39"/>
      <use x="850.212890625" xlink:href="#BitstreamVeraSans-Roman-37"/>
      <use x="913.8359375" xlink:href="#BitstreamVeraSans-Roman-37"/>
      <use x="977.458984375" xlink:href="#BitstreamVeraSans-Roman-36"/>
     </g>
    </g>
   </g>
  </g>
 </g>
 <defs>
  <clipPath id="pc179c72b0c">
   <rect height="695.7" width="1213.425" x="158.4" y="51.3"/>
  </clipPath>
 </defs>
</svg>
