<?xml version="1.0" encoding="utf-8" standalone="no"?>
<!DOCTYPE svg PUBLIC "-//W3C//DTD SVG 1.1//EN"
  "http://www.w3.org/Graphics/SVG/1.1/DTD/svg11.dtd">
<!-- Created with matplotlib (http://matplotlib.org/) -->
<svg height="864pt" version="1.1" viewBox="0 0 1440 864" width="1440pt" xmlns="http://www.w3.org/2000/svg" xmlns:xlink="http://www.w3.org/1999/xlink">
 <defs>
  <style type="text/css">
*{stroke-linecap:butt;stroke-linejoin:round;stroke-miterlimit:100000;}
  </style>
 </defs>
 <g id="figure_1">
  <g id="patch_1">
   <path d="M 0 864 
L 1440 864 
L 1440 0 
L 0 0 
z
" style="fill:#ffffff;"/>
  </g>
  <g id="axes_1">
   <g id="patch_2">
    <path d="M 93.382656 770.338125 
L 1381.831875 770.338125 
L 1381.831875 57.915781 
L 93.382656 57.915781 
z
" style="fill:#ffffff;"/>
   </g>
   <g id="line2d_1">
    <path clip-path="url(#p644808bbed)" d="M 93.382656 127.568474 
L 95.959555 132.760977 
L 98.536453 139.469797 
L 103.69025 150.945538 
L 106.267148 157.136449 
L 108.844047 162.571652 
L 111.420945 167.490672 
L 113.997844 173.506415 
L 116.574742 178.8189 
L 121.728539 187.901823 
L 126.882336 196.87256 
L 129.459234 200.4062 
L 134.613031 205.387663 
L 137.18993 209.996354 
L 139.766828 215.831635 
L 142.343727 222.671072 
L 144.920625 225.293901 
L 147.497523 232.563218 
L 150.074422 237.743459 
L 152.65132 242.329143 
L 155.228219 245.241816 
L 160.382016 254.555005 
L 168.112711 272.022239 
L 170.689609 276.072256 
L 173.266508 278.910678 
L 175.843406 282.5463 
L 178.420305 285.960969 
L 183.574102 296.55289 
L 186.151 302.358122 
L 188.727898 308.712431 
L 191.304797 313.521847 
L 193.881695 317.965427 
L 196.458594 321.155972 
L 199.035492 326.337291 
L 201.612391 330.994051 
L 204.189289 334.348484 
L 206.766188 338.762691 
L 209.343086 343.692764 
L 211.919984 349.671472 
L 214.496883 353.647563 
L 217.073781 356.794848 
L 219.65068 361.538327 
L 224.804477 370.706088 
L 227.381375 374.4014 
L 229.958273 377.716541 
L 232.535172 383.655279 
L 235.11207 391.320133 
L 237.688969 396.01091 
L 240.265867 400.435333 
L 242.842766 402.358851 
L 245.419664 407.737568 
L 250.573461 415.71488 
L 253.150359 419.700239 
L 255.727258 423.352743 
L 258.304156 429.217198 
L 260.881055 432.963075 
L 263.457953 439.738391 
L 266.034852 440.357982 
L 268.61175 445.299731 
L 271.188648 447.638328 
L 273.765547 452.890289 
L 276.342445 457.83967 
L 278.919344 461.136205 
L 281.496242 464.858183 
L 284.073141 468.01057 
L 286.650039 472.757934 
L 289.226938 478.285915 
L 291.803836 481.963093 
L 294.380734 483.291797 
L 296.957633 487.240071 
L 299.534531 491.977752 
L 302.11143 497.415322 
L 304.688328 502.158752 
L 307.265227 508.19647 
L 309.842125 513.798846 
L 312.419023 516.638582 
L 314.995922 519.832903 
L 317.57282 524.200548 
L 320.149719 528.070417 
L 322.726617 532.260789 
L 325.303516 537.103792 
L 330.457313 544.595383 
L 333.034211 549.439066 
L 335.611109 555.38312 
L 338.188008 560.285687 
L 340.764906 564.343739 
L 345.918703 573.295613 
L 348.495602 578.277693 
L 351.0725 584.348405 
L 353.649398 589.614698 
L 356.226297 594.085013 
L 358.803195 599.165868 
L 361.380094 603.621169 
L 363.956992 608.698634 
L 366.533891 612.890808 
L 369.110789 615.177537 
L 371.687688 619.545546 
L 376.841484 627.629934 
L 381.995281 637.439257 
L 384.57218 644.093921 
L 387.149078 649.430719 
L 389.725977 653.771239 
L 392.302875 657.56394 
L 394.879773 663.046994 
L 397.456672 667.603803 
L 400.03357 670.612246 
L 402.610469 676.668703 
L 405.187367 680.430945 
L 407.764266 680.659173 
L 410.341164 685.452032 
L 415.494961 694.592391 
L 418.071859 698.843049 
L 420.648758 701.959679 
L 423.225656 706.308237 
L 425.802555 710.302248 
L 428.379453 713.669169 
L 430.956352 715.47249 
L 433.53325 718.277523 
L 438.687047 726.948374 
L 441.263945 729.775736 
L 443.840844 733.160862 
L 446.417742 734.178145 
L 448.994641 734.962781 
L 451.571539 732.667417 
L 454.148438 735.191332 
L 456.725336 734.979442 
L 459.302234 735.580015 
L 461.879133 736.307212 
L 464.456031 738.087218 
L 467.03293 737.642221 
L 469.609828 736.790354 
L 472.186727 737.676653 
L 474.763625 737.832905 
L 477.340523 738.63298 
L 479.917422 739.751926 
L 482.49432 738.973151 
L 485.071219 737.005343 
L 487.648117 733.059042 
L 492.801914 736.846163 
L 495.378812 738.280577 
L 497.955711 738.024385 
L 500.532609 735.616983 
L 503.109508 736.141376 
L 505.686406 736.195689 
L 508.263305 736.718987 
L 510.840203 737.366592 
L 513.417102 738.244528 
L 515.994 734.576066 
L 518.570898 735.568938 
L 521.147797 735.118113 
L 523.724695 733.405964 
L 526.301594 734.888662 
L 528.878492 735.861785 
L 531.455391 736.612037 
L 534.032289 738.631081 
L 536.609188 736.938591 
L 539.186086 738.004136 
L 541.762984 739.634291 
L 544.339883 736.857343 
L 546.916781 737.078838 
L 549.49368 738.467046 
L 552.070578 738.273581 
L 554.647477 736.823018 
L 557.224375 737.263521 
L 559.801273 736.475419 
L 562.378172 735.016009 
L 564.95507 734.524844 
L 567.531969 735.044618 
L 570.108867 736.238924 
L 572.685766 738.469328 
L 575.262664 734.245189 
L 577.839563 735.765908 
L 580.416461 735.152109 
L 582.993359 735.109261 
L 585.570258 736.840264 
L 588.147156 736.551298 
L 590.724055 736.698666 
L 593.300953 737.191062 
L 595.877852 736.884407 
L 598.45475 737.783131 
L 601.031648 737.210011 
L 603.608547 738.411207 
L 606.185445 737.648662 
L 608.762344 736.127863 
L 611.339242 736.20098 
L 613.916141 735.962823 
L 616.493039 737.373826 
L 619.069938 736.341109 
L 621.646836 734.963518 
L 624.223734 734.901535 
L 626.800633 735.953121 
L 629.377531 738.467307 
L 631.95443 736.47158 
L 634.531328 737.904598 
L 637.108227 739.887431 
L 639.685125 738.815055 
L 642.262023 739.739476 
L 644.838922 737.723875 
L 647.41582 738.512945 
L 649.992719 737.090597 
L 652.569617 738.260195 
L 655.146516 736.989916 
L 657.723414 737.217266 
L 660.300313 739.773216 
L 662.877211 738.789764 
L 665.454109 738.181233 
L 668.031008 735.970706 
L 670.607906 734.400522 
L 673.184805 735.805276 
L 675.761703 738.370313 
L 678.338602 738.126453 
L 680.9155 740.467492 
L 683.492398 739.426076 
L 686.069297 740.117059 
L 688.646195 739.619475 
L 691.223094 739.716117 
L 693.799992 738.661422 
L 696.376891 739.976539 
L 698.953789 738.757842 
L 701.530687 739.945663 
L 704.107586 739.027303 
L 706.684484 740.425963 
L 711.838281 739.368625 
L 714.41518 739.642656 
L 716.992078 738.492361 
L 719.568977 738.077805 
L 722.145875 736.082896 
L 724.722773 737.373487 
L 727.299672 737.710012 
L 732.453469 737.014223 
L 735.030367 737.683767 
L 737.607266 735.618992 
L 740.184164 735.478593 
L 742.761062 738.107715 
L 745.337961 738.272645 
L 747.914859 739.089819 
L 750.491758 739.708013 
L 753.068656 739.507074 
L 755.645555 740.785621 
L 758.222453 739.784331 
L 760.799352 739.655892 
L 763.37625 737.436856 
L 765.953148 738.632251 
L 768.530047 737.219487 
L 771.106945 738.657078 
L 773.683844 741.73534 
L 776.260742 736.0786 
L 778.837641 735.773329 
L 781.414539 736.742183 
L 783.991437 736.278847 
L 786.568336 733.753094 
L 789.145234 735.488833 
L 791.722133 738.660074 
L 794.299031 738.868652 
L 796.87593 735.606823 
L 799.452828 735.497558 
L 802.029727 736.990029 
L 804.606625 736.286624 
L 807.183523 733.573598 
L 809.760422 736.876736 
L 812.33732 736.980979 
L 814.914219 737.824713 
L 817.491117 739.479956 
L 820.068016 739.592045 
L 822.644914 737.004067 
L 825.221813 739.523522 
L 827.798711 739.285734 
L 830.375609 738.715311 
L 832.952508 739.848658 
L 835.529406 738.990052 
L 838.106305 740.497247 
L 840.683203 739.211614 
L 843.260102 739.229092 
L 845.837 740.108074 
L 848.413898 739.318866 
L 850.990797 735.640965 
L 853.567695 735.947259 
L 856.144594 736.123838 
L 858.721492 736.936089 
L 861.298391 736.983487 
L 863.875289 736.639106 
L 869.029086 737.088992 
L 871.605984 735.416714 
L 874.182883 737.266648 
L 876.759781 738.808167 
L 879.33668 738.926351 
L 881.913578 737.868758 
L 884.490477 735.718671 
L 887.067375 739.772378 
L 889.644273 740.200838 
L 892.221172 738.731929 
L 897.374969 736.302114 
L 899.951867 737.542765 
L 902.528766 738.222367 
L 905.105664 739.087153 
L 907.682563 737.099277 
L 910.259461 738.663212 
L 912.836359 737.476888 
L 915.413258 738.914424 
L 917.990156 739.606093 
L 920.567055 739.889003 
L 923.143953 740.77964 
L 925.720852 738.710273 
L 928.29775 739.287869 
L 930.874648 740.080568 
L 933.451547 738.799466 
L 936.028445 733.885476 
L 938.605344 737.133839 
L 941.182242 737.918637 
L 943.759141 735.764234 
L 946.336039 735.658607 
L 948.912937 735.687494 
L 951.489836 737.48097 
L 954.066734 734.765864 
L 956.643633 736.105182 
L 959.220531 739.086684 
L 961.79743 736.749948 
L 964.374328 738.3612 
L 966.951227 739.343346 
L 974.681922 736.959149 
L 977.25882 737.424343 
L 979.835719 738.031152 
L 982.412617 737.104551 
L 984.989516 737.011236 
L 987.566414 737.704493 
L 990.143312 738.252379 
L 992.720211 736.00397 
L 997.874008 738.369011 
L 1000.450906 737.375134 
L 1003.027805 738.250595 
L 1005.604703 734.321103 
L 1008.181602 733.995546 
L 1013.335398 735.716447 
L 1015.912297 737.130626 
L 1018.489195 737.244478 
L 1021.066094 738.593973 
L 1023.642992 737.497258 
L 1026.219891 738.499086 
L 1028.796789 738.62282 
L 1031.373688 738.052283 
L 1033.950586 740.797968 
L 1036.527484 740.864951 
L 1039.104383 742.316188 
L 1041.681281 743.012737 
L 1044.25818 738.802683 
L 1046.835078 739.187718 
L 1049.411977 738.81684 
L 1054.565773 739.545141 
L 1057.142672 738.549945 
L 1059.71957 738.820761 
L 1062.296469 738.719383 
L 1064.873367 737.155367 
L 1067.450266 734.734069 
L 1070.027164 734.636757 
L 1072.604063 735.182215 
L 1075.180961 736.147558 
L 1077.757859 738.399189 
L 1080.334758 738.529712 
L 1082.911656 737.751488 
L 1085.488555 738.556885 
L 1088.065453 734.841045 
L 1090.642352 736.970336 
L 1093.21925 738.016754 
L 1095.796148 737.433461 
L 1100.949945 736.789461 
L 1103.526844 739.102398 
L 1106.103742 741.587692 
L 1108.680641 737.061221 
L 1111.257539 734.736458 
L 1113.834438 735.824674 
L 1116.411336 736.174813 
L 1118.988234 738.585962 
L 1121.565133 738.559059 
L 1124.142031 739.027675 
L 1126.71893 739.076956 
L 1129.295828 738.701932 
L 1131.872727 740.972193 
L 1134.449625 739.698922 
L 1137.026523 737.903365 
L 1139.603422 736.798509 
L 1142.18032 736.941094 
L 1144.757219 736.850389 
L 1147.334117 738.192632 
L 1149.911016 736.849544 
L 1152.487914 734.658975 
L 1155.064813 733.699732 
L 1157.641711 735.690573 
L 1160.218609 737.043444 
L 1162.795508 736.464914 
L 1165.372406 737.771472 
L 1167.949305 736.645974 
L 1170.526203 737.003294 
L 1173.103102 736.579583 
L 1175.68 738.318106 
L 1178.256898 734.403631 
L 1183.410695 733.078253 
L 1185.987594 734.975353 
L 1188.564492 736.321259 
L 1191.141391 738.724661 
L 1193.718289 738.594981 
L 1196.295188 739.07067 
L 1198.872086 738.977877 
L 1201.448984 737.674981 
L 1204.025883 729.743021 
L 1206.602781 732.615139 
L 1209.17968 732.145089 
L 1211.756578 734.327835 
L 1214.333477 733.434193 
L 1216.910375 736.508269 
L 1219.487273 737.607906 
L 1222.064172 737.050602 
L 1224.64107 736.121543 
L 1227.217969 736.595003 
L 1229.794867 737.7202 
L 1232.371766 739.126858 
L 1234.948664 737.444901 
L 1237.525563 736.602792 
L 1240.102461 737.547842 
L 1242.679359 736.811698 
L 1245.256258 732.696332 
L 1247.833156 734.38162 
L 1250.410055 737.579095 
L 1252.986953 739.147797 
L 1255.563852 738.952486 
L 1258.14075 736.651367 
L 1260.717648 737.4984 
L 1263.294547 738.591731 
L 1265.871445 740.286206 
L 1268.448344 739.862294 
L 1271.025242 738.448887 
L 1273.602141 737.258257 
L 1276.179039 738.131119 
L 1278.755938 739.736674 
L 1281.332836 740.289162 
L 1283.909734 739.110405 
L 1289.063531 737.729874 
L 1291.64043 739.306056 
L 1294.217328 739.640875 
L 1296.794227 736.372986 
L 1299.371125 736.081924 
L 1301.948023 735.203627 
L 1304.524922 736.374804 
L 1307.10182 736.112427 
L 1309.678719 738.699817 
L 1312.255617 740.825192 
L 1314.832516 736.100044 
L 1317.409414 736.068817 
L 1319.986313 737.206197 
L 1322.563211 736.259466 
L 1325.140109 734.060581 
L 1327.717008 736.55511 
L 1330.293906 738.079892 
L 1332.870805 739.287159 
L 1335.447703 739.54181 
L 1338.024602 735.842558 
L 1340.6015 736.541078 
L 1343.178398 736.799386 
L 1345.755297 738.206709 
L 1348.332195 736.846868 
L 1350.909094 736.190057 
L 1353.485992 738.994372 
L 1356.062891 739.399704 
L 1358.639789 740.302297 
L 1361.216688 737.165967 
L 1363.793586 737.438466 
L 1366.370484 735.952355 
L 1368.947383 736.748761 
L 1371.524281 738.256685 
L 1374.10118 737.093832 
L 1376.678078 736.780767 
L 1379.254977 735.926242 
L 1379.254977 735.926242 
" style="fill:none;stroke:#0000ff;stroke-linecap:square;stroke-width:2.0;"/>
   </g>
   <g id="line2d_2">
    <path clip-path="url(#p644808bbed)" d="M 93.382656 127.906429 
L 95.959555 131.648 
L 98.536453 133.899137 
L 101.113352 138.817945 
L 103.69025 143.16817 
L 106.267148 149.16619 
L 108.844047 154.599366 
L 113.997844 162.59253 
L 116.574742 166.847664 
L 119.151641 171.648016 
L 121.728539 176.144369 
L 124.305437 180.159911 
L 126.882336 183.58238 
L 129.459234 188.678483 
L 132.036133 195.209802 
L 134.613031 197.824985 
L 137.18993 203.29754 
L 142.343727 212.515475 
L 144.920625 216.640251 
L 147.497523 222.110732 
L 150.074422 225.621015 
L 155.228219 234.406816 
L 157.805117 237.875399 
L 160.382016 245.503469 
L 162.958914 252.501463 
L 165.535813 256.058053 
L 168.112711 261.376924 
L 170.689609 264.554812 
L 173.266508 268.570813 
L 175.843406 274.610754 
L 178.420305 280.195382 
L 180.997203 281.643891 
L 183.574102 284.557334 
L 186.151 289.904431 
L 188.727898 294.955676 
L 193.881695 305.720605 
L 196.458594 309.642795 
L 204.189289 325.53819 
L 206.766188 331.781509 
L 209.343086 335.909779 
L 211.919984 339.316397 
L 214.496883 343.768063 
L 217.073781 348.63451 
L 222.227578 355.003748 
L 227.381375 363.311641 
L 229.958273 366.157704 
L 232.535172 369.206541 
L 235.11207 372.656703 
L 237.688969 376.434657 
L 240.265867 379.899916 
L 242.842766 384.011877 
L 245.419664 388.571591 
L 250.573461 399.535678 
L 253.150359 403.613674 
L 255.727258 408.665766 
L 258.304156 412.195447 
L 260.881055 417.069339 
L 263.457953 421.633317 
L 266.034852 427.472972 
L 268.61175 432.751357 
L 273.765547 440.288391 
L 276.342445 445.586048 
L 278.919344 450.415456 
L 284.073141 462.176146 
L 286.650039 466.19048 
L 291.803836 477.075963 
L 294.380734 480.085115 
L 296.957633 483.302817 
L 299.534531 488.963913 
L 302.11143 493.06512 
L 304.688328 498.816031 
L 307.265227 503.23822 
L 309.842125 510.189977 
L 312.419023 515.867761 
L 314.995922 519.242326 
L 317.57282 525.295082 
L 322.726617 534.13565 
L 325.303516 539.085385 
L 327.880414 544.317502 
L 330.457313 547.213823 
L 333.034211 551.242668 
L 335.611109 556.370703 
L 338.188008 562.001479 
L 340.764906 566.760663 
L 343.341805 569.981325 
L 348.495602 579.257984 
L 353.649398 587.629118 
L 356.226297 592.56618 
L 358.803195 595.219241 
L 361.380094 600.31633 
L 363.956992 604.719922 
L 366.533891 611.177257 
L 369.110789 615.878956 
L 371.687688 618.965783 
L 374.264586 624.333773 
L 376.841484 628.973989 
L 379.418383 630.850554 
L 381.995281 636.643014 
L 384.57218 640.015243 
L 387.149078 645.423054 
L 389.725977 649.584347 
L 392.302875 654.189128 
L 394.879773 657.947497 
L 397.456672 662.800878 
L 400.03357 665.408091 
L 402.610469 668.686806 
L 405.187367 673.050051 
L 407.764266 678.1541 
L 410.341164 681.469455 
L 412.918063 685.248792 
L 415.494961 690.504148 
L 418.071859 692.558752 
L 420.648758 698.004763 
L 423.225656 703.96152 
L 425.802555 709.437304 
L 428.379453 713.564822 
L 430.956352 713.518171 
L 433.53325 717.981052 
L 436.110148 721.465399 
L 438.687047 725.419271 
L 441.263945 728.862013 
L 443.840844 730.922402 
L 446.417742 733.769869 
L 448.994641 732.286292 
L 451.571539 729.601156 
L 454.148438 731.135909 
L 456.725336 733.038348 
L 459.302234 736.057185 
L 461.879133 738.060517 
L 464.456031 739.818747 
L 467.03293 740.027847 
L 469.609828 742.831222 
L 472.186727 742.007269 
L 474.763625 742.204365 
L 477.340523 740.167025 
L 479.917422 737.549839 
L 482.49432 738.791474 
L 485.071219 739.618894 
L 487.648117 742.026125 
L 490.225016 740.44227 
L 492.801914 739.085026 
L 497.955711 736.887375 
L 500.532609 739.22814 
L 503.109508 739.211059 
L 508.263305 740.130466 
L 510.840203 738.205182 
L 513.417102 738.741703 
L 515.994 738.886026 
L 518.570898 737.903858 
L 521.147797 739.098531 
L 523.724695 738.304508 
L 526.301594 738.688873 
L 528.878492 739.680449 
L 531.455391 739.161384 
L 534.032289 736.748581 
L 536.609188 735.802453 
L 539.186086 735.820761 
L 544.339883 736.288244 
L 546.916781 737.337555 
L 549.49368 737.916348 
L 552.070578 739.456138 
L 554.647477 740.812068 
L 557.224375 738.705724 
L 559.801273 738.088197 
L 562.378172 738.998393 
L 564.95507 739.655192 
L 567.531969 737.841895 
L 570.108867 737.169109 
L 572.685766 736.129771 
L 575.262664 735.917264 
L 577.839563 736.005218 
L 580.416461 735.16799 
L 582.993359 735.92433 
L 585.570258 737.619234 
L 588.147156 738.031076 
L 590.724055 736.893007 
L 593.300953 737.250777 
L 595.877852 734.877524 
L 598.45475 735.99978 
L 601.031648 733.707937 
L 603.608547 735.210556 
L 606.185445 735.502323 
L 608.762344 736.020254 
L 611.339242 734.137739 
L 613.916141 733.205003 
L 616.493039 734.734025 
L 619.069938 736.501721 
L 621.646836 734.658638 
L 624.223734 737.22981 
L 626.800633 737.672097 
L 629.377531 739.258772 
L 631.95443 737.718444 
L 634.531328 737.088737 
L 637.108227 737.720343 
L 639.685125 737.005249 
L 642.262023 739.033976 
L 644.838922 738.209289 
L 647.41582 738.753116 
L 649.992719 734.952422 
L 652.569617 736.291053 
L 655.146516 739.118237 
L 657.723414 738.359038 
L 660.300313 737.761121 
L 662.877211 735.635613 
L 665.454109 736.240044 
L 668.031008 735.430133 
L 670.607906 736.341056 
L 673.184805 738.133626 
L 675.761703 737.325129 
L 678.338602 738.74499 
L 680.9155 737.910283 
L 683.492398 739.325774 
L 686.069297 737.345055 
L 688.646195 737.020327 
L 691.223094 735.869257 
L 693.799992 732.02286 
L 696.376891 733.847165 
L 698.953789 735.231786 
L 701.530687 733.703839 
L 704.107586 735.285704 
L 706.684484 734.886129 
L 709.261383 735.111335 
L 711.838281 738.749963 
L 714.41518 738.993821 
L 716.992078 738.84487 
L 719.568977 739.649197 
L 722.145875 737.50195 
L 724.722773 738.085549 
L 727.299672 737.308029 
L 729.87657 736.404273 
L 732.453469 735.088242 
L 735.030367 735.774112 
L 737.607266 733.750161 
L 740.184164 733.012375 
L 742.761062 735.968768 
L 745.337961 736.897853 
L 747.914859 739.227967 
L 750.491758 738.241943 
L 753.068656 735.911151 
L 755.645555 735.772235 
L 758.222453 737.247698 
L 760.799352 735.347572 
L 763.37625 738.046012 
L 765.953148 738.818851 
L 768.530047 737.496871 
L 771.106945 737.550786 
L 773.683844 737.097172 
L 776.260742 735.444468 
L 778.837641 738.354555 
L 781.414539 740.712458 
L 783.991437 741.457489 
L 786.568336 739.476512 
L 789.145234 739.709129 
L 791.722133 741.021061 
L 794.299031 740.803346 
L 796.87593 739.500123 
L 799.452828 741.238988 
L 802.029727 740.741835 
L 804.606625 738.976729 
L 809.760422 741.888197 
L 812.33732 740.562503 
L 814.914219 739.739005 
L 817.491117 738.447414 
L 820.068016 737.894982 
L 822.644914 737.695366 
L 825.221813 739.232024 
L 827.798711 736.579418 
L 830.375609 737.635004 
L 832.952508 736.628642 
L 835.529406 736.484342 
L 838.106305 734.726253 
L 843.260102 734.581333 
L 845.837 737.052209 
L 848.413898 736.64315 
L 850.990797 736.987003 
L 853.567695 738.711306 
L 856.144594 739.564901 
L 858.721492 738.782754 
L 861.298391 739.795829 
L 863.875289 736.050501 
L 866.452188 738.020192 
L 869.029086 736.445562 
L 871.605984 737.68855 
L 874.182883 737.27685 
L 876.759781 739.211812 
L 879.33668 739.766127 
L 881.913578 736.556142 
L 884.490477 739.633075 
L 887.067375 741.104479 
L 889.644273 740.698062 
L 892.221172 737.632993 
L 894.79807 737.977357 
L 897.374969 737.010239 
L 899.951867 735.29639 
L 902.528766 735.719523 
L 905.105664 737.412771 
L 907.682563 739.506688 
L 910.259461 738.288832 
L 912.836359 738.429239 
L 915.413258 737.75721 
L 917.990156 735.064068 
L 920.567055 737.87736 
L 923.143953 738.96725 
L 925.720852 739.213314 
L 928.29775 736.117156 
L 930.874648 737.324135 
L 933.451547 739.175125 
L 938.605344 738.631896 
L 941.182242 737.436861 
L 943.759141 737.821494 
L 946.336039 738.984853 
L 948.912937 737.647624 
L 951.489836 739.617841 
L 954.066734 735.880904 
L 956.643633 736.464918 
L 959.220531 737.271436 
L 961.79743 737.377318 
L 964.374328 734.923766 
L 966.951227 736.482541 
L 969.528125 739.495723 
L 972.105023 738.756584 
L 974.681922 739.860794 
L 977.25882 738.833258 
L 979.835719 740.199476 
L 982.412617 738.202393 
L 984.989516 737.936101 
L 987.566414 738.48877 
L 990.143312 737.804024 
L 992.720211 737.539251 
L 995.297109 738.127922 
L 997.874008 739.30997 
L 1000.450906 739.886609 
L 1005.604703 739.260258 
L 1008.181602 738.963969 
L 1010.7585 737.886712 
L 1013.335398 739.47126 
L 1015.912297 739.787227 
L 1018.489195 737.972158 
L 1021.066094 738.666268 
L 1023.642992 739.140432 
L 1026.219891 735.980045 
L 1028.796789 734.414133 
L 1033.950586 739.074802 
L 1036.527484 739.484062 
L 1039.104383 736.923172 
L 1041.681281 738.163858 
L 1044.25818 737.739347 
L 1046.835078 737.723191 
L 1049.411977 738.088322 
L 1051.988875 738.176276 
L 1054.565773 739.313203 
L 1057.142672 739.110375 
L 1059.71957 739.380117 
L 1062.296469 738.865636 
L 1064.873367 740.533639 
L 1067.450266 738.344556 
L 1070.027164 738.236571 
L 1072.604063 738.618012 
L 1075.180961 737.865497 
L 1077.757859 738.239843 
L 1080.334758 738.130187 
L 1082.911656 739.840251 
L 1085.488555 739.41994 
L 1088.065453 740.099203 
L 1090.642352 740.343322 
L 1093.21925 739.776743 
L 1095.796148 729.108456 
L 1098.373047 732.874823 
L 1100.949945 731.618182 
L 1103.526844 733.959644 
L 1106.103742 734.926072 
L 1108.680641 736.029703 
L 1111.257539 736.136825 
L 1116.411336 735.531308 
L 1118.988234 736.370108 
L 1121.565133 733.371389 
L 1124.142031 734.515713 
L 1126.71893 736.927931 
L 1129.295828 738.476388 
L 1131.872727 738.023418 
L 1134.449625 739.102632 
L 1137.026523 736.945323 
L 1139.603422 735.540222 
L 1142.18032 733.470829 
L 1144.757219 736.343258 
L 1147.334117 738.278045 
L 1149.911016 738.858329 
L 1152.487914 737.927055 
L 1155.064813 738.082178 
L 1157.641711 737.951483 
L 1160.218609 738.905786 
L 1162.795508 739.036665 
L 1165.372406 738.673216 
L 1167.949305 736.16458 
L 1170.526203 735.971731 
L 1173.103102 736.483474 
L 1175.68 736.804721 
L 1178.256898 731.309696 
L 1183.410695 733.959708 
L 1185.987594 734.521358 
L 1188.564492 736.09443 
L 1191.141391 736.728772 
L 1193.718289 736.059153 
L 1196.295188 736.909137 
L 1201.448984 737.513228 
L 1204.025883 737.418239 
L 1206.602781 737.77105 
L 1209.17968 738.524755 
L 1211.756578 740.399297 
L 1214.333477 740.18464 
L 1216.910375 738.198672 
L 1219.487273 738.532682 
L 1222.064172 739.210355 
L 1224.64107 738.300707 
L 1227.217969 738.467024 
L 1229.794867 737.236125 
L 1232.371766 738.814544 
L 1234.948664 736.563042 
L 1237.525563 733.998075 
L 1240.102461 737.554654 
L 1242.679359 737.646315 
L 1245.256258 738.079897 
L 1247.833156 739.069283 
L 1250.410055 738.865586 
L 1252.986953 737.416241 
L 1255.563852 737.348531 
L 1258.14075 736.908808 
L 1260.717648 738.138072 
L 1263.294547 741.030427 
L 1265.871445 740.411847 
L 1268.448344 739.215435 
L 1271.025242 738.405453 
L 1273.602141 739.616659 
L 1281.332836 739.282564 
L 1283.909734 737.174097 
L 1286.486633 737.531396 
L 1289.063531 736.56594 
L 1291.64043 736.17656 
L 1294.217328 729.766662 
L 1296.794227 732.959381 
L 1299.371125 735.29778 
L 1301.948023 735.856187 
L 1304.524922 737.053367 
L 1307.10182 735.874775 
L 1309.678719 736.540033 
L 1312.255617 736.721964 
L 1314.832516 739.796547 
L 1317.409414 737.031861 
L 1319.986313 736.287169 
L 1322.563211 737.606545 
L 1325.140109 736.961193 
L 1327.717008 737.551829 
L 1330.293906 738.74295 
L 1332.870805 736.703733 
L 1335.447703 736.783405 
L 1338.024602 736.422728 
L 1340.6015 737.327798 
L 1343.178398 734.905698 
L 1345.755297 735.015643 
L 1348.332195 738.41332 
L 1350.909094 737.165552 
L 1353.485992 734.768934 
L 1356.062891 734.087178 
L 1358.639789 735.719298 
L 1361.216688 738.311215 
L 1363.793586 738.70394 
L 1366.370484 737.76341 
L 1368.947383 737.586491 
L 1371.524281 738.092447 
L 1376.678078 735.474496 
L 1379.254977 736.05684 
L 1379.254977 736.05684 
" style="fill:none;stroke:#008000;stroke-linecap:square;stroke-width:2.0;"/>
   </g>
   <g id="patch_3">
    <path d="M 93.382656 57.915781 
L 1381.831875 57.915781 
" style="fill:none;stroke:#000000;stroke-linecap:square;stroke-linejoin:miter;"/>
   </g>
   <g id="patch_4">
    <path d="M 1381.831875 770.338125 
L 1381.831875 57.915781 
" style="fill:none;stroke:#000000;stroke-linecap:square;stroke-linejoin:miter;"/>
   </g>
   <g id="patch_5">
    <path d="M 93.382656 770.338125 
L 1381.831875 770.338125 
" style="fill:none;stroke:#000000;stroke-linecap:square;stroke-linejoin:miter;"/>
   </g>
   <g id="patch_6">
    <path d="M 93.382656 770.338125 
L 93.382656 57.915781 
" style="fill:none;stroke:#000000;stroke-linecap:square;stroke-linejoin:miter;"/>
   </g>
   <g id="matplotlib.axis_1">
    <g id="xtick_1">
     <g id="line2d_3">
      <defs>
       <path d="M 0 0 
L 0 -4 
" id="m3eade37757" style="stroke:#000000;stroke-width:0.5;"/>
      </defs>
      <g>
       <use style="stroke:#000000;stroke-width:0.5;" x="93.38265625" xlink:href="#m3eade37757" y="770.338125"/>
      </g>
     </g>
     <g id="line2d_4">
      <defs>
       <path d="M 0 0 
L 0 4 
" id="m6ef20c9818" style="stroke:#000000;stroke-width:0.5;"/>
      </defs>
      <g>
       <use style="stroke:#000000;stroke-width:0.5;" x="93.38265625" xlink:href="#m6ef20c9818" y="57.91578125"/>
      </g>
     </g>
     <g id="text_1">
      <!-- 0 -->
      <defs>
       <path d="M 31.78125 66.40625 
Q 24.171875 66.40625 20.328125 58.90625 
Q 16.5 51.421875 16.5 36.375 
Q 16.5 21.390625 20.328125 13.890625 
Q 24.171875 6.390625 31.78125 6.390625 
Q 39.453125 6.390625 43.28125 13.890625 
Q 47.125 21.390625 47.125 36.375 
Q 47.125 51.421875 43.28125 58.90625 
Q 39.453125 66.40625 31.78125 66.40625 
M 31.78125 74.21875 
Q 44.046875 74.21875 50.515625 64.515625 
Q 56.984375 54.828125 56.984375 36.375 
Q 56.984375 17.96875 50.515625 8.265625 
Q 44.046875 -1.421875 31.78125 -1.421875 
Q 19.53125 -1.421875 13.0625 8.265625 
Q 6.59375 17.96875 6.59375 36.375 
Q 6.59375 54.828125 13.0625 64.515625 
Q 19.53125 74.21875 31.78125 74.21875 
" id="BitstreamVeraSans-Roman-30"/>
      </defs>
      <g transform="translate(83.83890625 797.1334375)scale(0.3 -0.3)">
       <use xlink:href="#BitstreamVeraSans-Roman-30"/>
      </g>
     </g>
    </g>
    <g id="xtick_2">
     <g id="line2d_5">
      <g>
       <use style="stroke:#000000;stroke-width:0.5;" x="351.0725" xlink:href="#m3eade37757" y="770.338125"/>
      </g>
     </g>
     <g id="line2d_6">
      <g>
       <use style="stroke:#000000;stroke-width:0.5;" x="351.0725" xlink:href="#m6ef20c9818" y="57.91578125"/>
      </g>
     </g>
     <g id="text_2">
      <!-- 100 -->
      <defs>
       <path d="M 12.40625 8.296875 
L 28.515625 8.296875 
L 28.515625 63.921875 
L 10.984375 60.40625 
L 10.984375 69.390625 
L 28.421875 72.90625 
L 38.28125 72.90625 
L 38.28125 8.296875 
L 54.390625 8.296875 
L 54.390625 0 
L 12.40625 0 
z
" id="BitstreamVeraSans-Roman-31"/>
      </defs>
      <g transform="translate(322.44125 797.1334375)scale(0.3 -0.3)">
       <use xlink:href="#BitstreamVeraSans-Roman-31"/>
       <use x="63.623046875" xlink:href="#BitstreamVeraSans-Roman-30"/>
       <use x="127.24609375" xlink:href="#BitstreamVeraSans-Roman-30"/>
      </g>
     </g>
    </g>
    <g id="xtick_3">
     <g id="line2d_7">
      <g>
       <use style="stroke:#000000;stroke-width:0.5;" x="608.76234375" xlink:href="#m3eade37757" y="770.338125"/>
      </g>
     </g>
     <g id="line2d_8">
      <g>
       <use style="stroke:#000000;stroke-width:0.5;" x="608.76234375" xlink:href="#m6ef20c9818" y="57.91578125"/>
      </g>
     </g>
     <g id="text_3">
      <!-- 200 -->
      <defs>
       <path d="M 19.1875 8.296875 
L 53.609375 8.296875 
L 53.609375 0 
L 7.328125 0 
L 7.328125 8.296875 
Q 12.9375 14.109375 22.625 23.890625 
Q 32.328125 33.6875 34.8125 36.53125 
Q 39.546875 41.84375 41.421875 45.53125 
Q 43.3125 49.21875 43.3125 52.78125 
Q 43.3125 58.59375 39.234375 62.25 
Q 35.15625 65.921875 28.609375 65.921875 
Q 23.96875 65.921875 18.8125 64.3125 
Q 13.671875 62.703125 7.8125 59.421875 
L 7.8125 69.390625 
Q 13.765625 71.78125 18.9375 73 
Q 24.125 74.21875 28.421875 74.21875 
Q 39.75 74.21875 46.484375 68.546875 
Q 53.21875 62.890625 53.21875 53.421875 
Q 53.21875 48.921875 51.53125 44.890625 
Q 49.859375 40.875 45.40625 35.40625 
Q 44.1875 33.984375 37.640625 27.21875 
Q 31.109375 20.453125 19.1875 8.296875 
" id="BitstreamVeraSans-Roman-32"/>
      </defs>
      <g transform="translate(580.13109375 797.1334375)scale(0.3 -0.3)">
       <use xlink:href="#BitstreamVeraSans-Roman-32"/>
       <use x="63.623046875" xlink:href="#BitstreamVeraSans-Roman-30"/>
       <use x="127.24609375" xlink:href="#BitstreamVeraSans-Roman-30"/>
      </g>
     </g>
    </g>
    <g id="xtick_4">
     <g id="line2d_9">
      <g>
       <use style="stroke:#000000;stroke-width:0.5;" x="866.4521875" xlink:href="#m3eade37757" y="770.338125"/>
      </g>
     </g>
     <g id="line2d_10">
      <g>
       <use style="stroke:#000000;stroke-width:0.5;" x="866.4521875" xlink:href="#m6ef20c9818" y="57.91578125"/>
      </g>
     </g>
     <g id="text_4">
      <!-- 300 -->
      <defs>
       <path d="M 40.578125 39.3125 
Q 47.65625 37.796875 51.625 33 
Q 55.609375 28.21875 55.609375 21.1875 
Q 55.609375 10.40625 48.1875 4.484375 
Q 40.765625 -1.421875 27.09375 -1.421875 
Q 22.515625 -1.421875 17.65625 -0.515625 
Q 12.796875 0.390625 7.625 2.203125 
L 7.625 11.71875 
Q 11.71875 9.328125 16.59375 8.109375 
Q 21.484375 6.890625 26.8125 6.890625 
Q 36.078125 6.890625 40.9375 10.546875 
Q 45.796875 14.203125 45.796875 21.1875 
Q 45.796875 27.640625 41.28125 31.265625 
Q 36.765625 34.90625 28.71875 34.90625 
L 20.21875 34.90625 
L 20.21875 43.015625 
L 29.109375 43.015625 
Q 36.375 43.015625 40.234375 45.921875 
Q 44.09375 48.828125 44.09375 54.296875 
Q 44.09375 59.90625 40.109375 62.90625 
Q 36.140625 65.921875 28.71875 65.921875 
Q 24.65625 65.921875 20.015625 65.03125 
Q 15.375 64.15625 9.8125 62.3125 
L 9.8125 71.09375 
Q 15.4375 72.65625 20.34375 73.4375 
Q 25.25 74.21875 29.59375 74.21875 
Q 40.828125 74.21875 47.359375 69.109375 
Q 53.90625 64.015625 53.90625 55.328125 
Q 53.90625 49.265625 50.4375 45.09375 
Q 46.96875 40.921875 40.578125 39.3125 
" id="BitstreamVeraSans-Roman-33"/>
      </defs>
      <g transform="translate(837.8209375 797.1334375)scale(0.3 -0.3)">
       <use xlink:href="#BitstreamVeraSans-Roman-33"/>
       <use x="63.623046875" xlink:href="#BitstreamVeraSans-Roman-30"/>
       <use x="127.24609375" xlink:href="#BitstreamVeraSans-Roman-30"/>
      </g>
     </g>
    </g>
    <g id="xtick_5">
     <g id="line2d_11">
      <g>
       <use style="stroke:#000000;stroke-width:0.5;" x="1124.14203125" xlink:href="#m3eade37757" y="770.338125"/>
      </g>
     </g>
     <g id="line2d_12">
      <g>
       <use style="stroke:#000000;stroke-width:0.5;" x="1124.14203125" xlink:href="#m6ef20c9818" y="57.91578125"/>
      </g>
     </g>
     <g id="text_5">
      <!-- 400 -->
      <defs>
       <path d="M 37.796875 64.3125 
L 12.890625 25.390625 
L 37.796875 25.390625 
z
M 35.203125 72.90625 
L 47.609375 72.90625 
L 47.609375 25.390625 
L 58.015625 25.390625 
L 58.015625 17.1875 
L 47.609375 17.1875 
L 47.609375 0 
L 37.796875 0 
L 37.796875 17.1875 
L 4.890625 17.1875 
L 4.890625 26.703125 
z
" id="BitstreamVeraSans-Roman-34"/>
      </defs>
      <g transform="translate(1095.51078125 797.1334375)scale(0.3 -0.3)">
       <use xlink:href="#BitstreamVeraSans-Roman-34"/>
       <use x="63.623046875" xlink:href="#BitstreamVeraSans-Roman-30"/>
       <use x="127.24609375" xlink:href="#BitstreamVeraSans-Roman-30"/>
      </g>
     </g>
    </g>
    <g id="xtick_6">
     <g id="line2d_13">
      <g>
       <use style="stroke:#000000;stroke-width:0.5;" x="1381.831875" xlink:href="#m3eade37757" y="770.338125"/>
      </g>
     </g>
     <g id="line2d_14">
      <g>
       <use style="stroke:#000000;stroke-width:0.5;" x="1381.831875" xlink:href="#m6ef20c9818" y="57.91578125"/>
      </g>
     </g>
     <g id="text_6">
      <!-- 500 -->
      <defs>
       <path d="M 10.796875 72.90625 
L 49.515625 72.90625 
L 49.515625 64.59375 
L 19.828125 64.59375 
L 19.828125 46.734375 
Q 21.96875 47.46875 24.109375 47.828125 
Q 26.265625 48.1875 28.421875 48.1875 
Q 40.625 48.1875 47.75 41.5 
Q 54.890625 34.8125 54.890625 23.390625 
Q 54.890625 11.625 47.5625 5.09375 
Q 40.234375 -1.421875 26.90625 -1.421875 
Q 22.3125 -1.421875 17.546875 -0.640625 
Q 12.796875 0.140625 7.71875 1.703125 
L 7.71875 11.625 
Q 12.109375 9.234375 16.796875 8.0625 
Q 21.484375 6.890625 26.703125 6.890625 
Q 35.15625 6.890625 40.078125 11.328125 
Q 45.015625 15.765625 45.015625 23.390625 
Q 45.015625 31 40.078125 35.4375 
Q 35.15625 39.890625 26.703125 39.890625 
Q 22.75 39.890625 18.8125 39.015625 
Q 14.890625 38.140625 10.796875 36.28125 
z
" id="BitstreamVeraSans-Roman-35"/>
      </defs>
      <g transform="translate(1353.200625 797.1334375)scale(0.3 -0.3)">
       <use xlink:href="#BitstreamVeraSans-Roman-35"/>
       <use x="63.623046875" xlink:href="#BitstreamVeraSans-Roman-30"/>
       <use x="127.24609375" xlink:href="#BitstreamVeraSans-Roman-30"/>
      </g>
     </g>
    </g>
    <g id="text_7">
     <!-- iterations -->
     <defs>
      <path d="M 54.890625 33.015625 
L 54.890625 0 
L 45.90625 0 
L 45.90625 32.71875 
Q 45.90625 40.484375 42.875 44.328125 
Q 39.84375 48.1875 33.796875 48.1875 
Q 26.515625 48.1875 22.3125 43.546875 
Q 18.109375 38.921875 18.109375 30.90625 
L 18.109375 0 
L 9.078125 0 
L 9.078125 54.6875 
L 18.109375 54.6875 
L 18.109375 46.1875 
Q 21.34375 51.125 25.703125 53.5625 
Q 30.078125 56 35.796875 56 
Q 45.21875 56 50.046875 50.171875 
Q 54.890625 44.34375 54.890625 33.015625 
" id="BitstreamVeraSans-Roman-6e"/>
      <path d="M 34.28125 27.484375 
Q 23.390625 27.484375 19.1875 25 
Q 14.984375 22.515625 14.984375 16.5 
Q 14.984375 11.71875 18.140625 8.90625 
Q 21.296875 6.109375 26.703125 6.109375 
Q 34.1875 6.109375 38.703125 11.40625 
Q 43.21875 16.703125 43.21875 25.484375 
L 43.21875 27.484375 
z
M 52.203125 31.203125 
L 52.203125 0 
L 43.21875 0 
L 43.21875 8.296875 
Q 40.140625 3.328125 35.546875 0.953125 
Q 30.953125 -1.421875 24.3125 -1.421875 
Q 15.921875 -1.421875 10.953125 3.296875 
Q 6 8.015625 6 15.921875 
Q 6 25.140625 12.171875 29.828125 
Q 18.359375 34.515625 30.609375 34.515625 
L 43.21875 34.515625 
L 43.21875 35.40625 
Q 43.21875 41.609375 39.140625 45 
Q 35.0625 48.390625 27.6875 48.390625 
Q 23 48.390625 18.546875 47.265625 
Q 14.109375 46.140625 10.015625 43.890625 
L 10.015625 52.203125 
Q 14.9375 54.109375 19.578125 55.046875 
Q 24.21875 56 28.609375 56 
Q 40.484375 56 46.34375 49.84375 
Q 52.203125 43.703125 52.203125 31.203125 
" id="BitstreamVeraSans-Roman-61"/>
      <path d="M 30.609375 48.390625 
Q 23.390625 48.390625 19.1875 42.75 
Q 14.984375 37.109375 14.984375 27.296875 
Q 14.984375 17.484375 19.15625 11.84375 
Q 23.34375 6.203125 30.609375 6.203125 
Q 37.796875 6.203125 41.984375 11.859375 
Q 46.1875 17.53125 46.1875 27.296875 
Q 46.1875 37.015625 41.984375 42.703125 
Q 37.796875 48.390625 30.609375 48.390625 
M 30.609375 56 
Q 42.328125 56 49.015625 48.375 
Q 55.71875 40.765625 55.71875 27.296875 
Q 55.71875 13.875 49.015625 6.21875 
Q 42.328125 -1.421875 30.609375 -1.421875 
Q 18.84375 -1.421875 12.171875 6.21875 
Q 5.515625 13.875 5.515625 27.296875 
Q 5.515625 40.765625 12.171875 48.375 
Q 18.84375 56 30.609375 56 
" id="BitstreamVeraSans-Roman-6f"/>
      <path d="M 9.421875 54.6875 
L 18.40625 54.6875 
L 18.40625 0 
L 9.421875 0 
z
M 9.421875 75.984375 
L 18.40625 75.984375 
L 18.40625 64.59375 
L 9.421875 64.59375 
z
" id="BitstreamVeraSans-Roman-69"/>
      <path d="M 56.203125 29.59375 
L 56.203125 25.203125 
L 14.890625 25.203125 
Q 15.484375 15.921875 20.484375 11.0625 
Q 25.484375 6.203125 34.421875 6.203125 
Q 39.59375 6.203125 44.453125 7.46875 
Q 49.3125 8.734375 54.109375 11.28125 
L 54.109375 2.78125 
Q 49.265625 0.734375 44.1875 -0.34375 
Q 39.109375 -1.421875 33.890625 -1.421875 
Q 20.796875 -1.421875 13.15625 6.1875 
Q 5.515625 13.8125 5.515625 26.8125 
Q 5.515625 40.234375 12.765625 48.109375 
Q 20.015625 56 32.328125 56 
Q 43.359375 56 49.78125 48.890625 
Q 56.203125 41.796875 56.203125 29.59375 
M 47.21875 32.234375 
Q 47.125 39.59375 43.09375 43.984375 
Q 39.0625 48.390625 32.421875 48.390625 
Q 24.90625 48.390625 20.390625 44.140625 
Q 15.875 39.890625 15.1875 32.171875 
z
" id="BitstreamVeraSans-Roman-65"/>
      <path d="M 18.3125 70.21875 
L 18.3125 54.6875 
L 36.8125 54.6875 
L 36.8125 47.703125 
L 18.3125 47.703125 
L 18.3125 18.015625 
Q 18.3125 11.328125 20.140625 9.421875 
Q 21.96875 7.515625 27.59375 7.515625 
L 36.8125 7.515625 
L 36.8125 0 
L 27.59375 0 
Q 17.1875 0 13.234375 3.875 
Q 9.28125 7.765625 9.28125 18.015625 
L 9.28125 47.703125 
L 2.6875 47.703125 
L 2.6875 54.6875 
L 9.28125 54.6875 
L 9.28125 70.21875 
z
" id="BitstreamVeraSans-Roman-74"/>
      <path d="M 41.109375 46.296875 
Q 39.59375 47.171875 37.8125 47.578125 
Q 36.03125 48 33.890625 48 
Q 26.265625 48 22.1875 43.046875 
Q 18.109375 38.09375 18.109375 28.8125 
L 18.109375 0 
L 9.078125 0 
L 9.078125 54.6875 
L 18.109375 54.6875 
L 18.109375 46.1875 
Q 20.953125 51.171875 25.484375 53.578125 
Q 30.03125 56 36.53125 56 
Q 37.453125 56 38.578125 55.875 
Q 39.703125 55.765625 41.0625 55.515625 
z
" id="BitstreamVeraSans-Roman-72"/>
      <path d="M 44.28125 53.078125 
L 44.28125 44.578125 
Q 40.484375 46.53125 36.375 47.5 
Q 32.28125 48.484375 27.875 48.484375 
Q 21.1875 48.484375 17.84375 46.4375 
Q 14.5 44.390625 14.5 40.28125 
Q 14.5 37.15625 16.890625 35.375 
Q 19.28125 33.59375 26.515625 31.984375 
L 29.59375 31.296875 
Q 39.15625 29.25 43.1875 25.515625 
Q 47.21875 21.78125 47.21875 15.09375 
Q 47.21875 7.46875 41.1875 3.015625 
Q 35.15625 -1.421875 24.609375 -1.421875 
Q 20.21875 -1.421875 15.453125 -0.5625 
Q 10.6875 0.296875 5.421875 2 
L 5.421875 11.28125 
Q 10.40625 8.6875 15.234375 7.390625 
Q 20.0625 6.109375 24.8125 6.109375 
Q 31.15625 6.109375 34.5625 8.28125 
Q 37.984375 10.453125 37.984375 14.40625 
Q 37.984375 18.0625 35.515625 20.015625 
Q 33.0625 21.96875 24.703125 23.78125 
L 21.578125 24.515625 
Q 13.234375 26.265625 9.515625 29.90625 
Q 5.8125 33.546875 5.8125 39.890625 
Q 5.8125 47.609375 11.28125 51.796875 
Q 16.75 56 26.8125 56 
Q 31.78125 56 36.171875 55.265625 
Q 40.578125 54.546875 44.28125 53.078125 
" id="BitstreamVeraSans-Roman-73"/>
     </defs>
     <g transform="translate(666.425234375 831.1678125)scale(0.3 -0.3)">
      <use xlink:href="#BitstreamVeraSans-Roman-69"/>
      <use x="27.783203125" xlink:href="#BitstreamVeraSans-Roman-74"/>
      <use x="66.9921875" xlink:href="#BitstreamVeraSans-Roman-65"/>
      <use x="128.515625" xlink:href="#BitstreamVeraSans-Roman-72"/>
      <use x="169.62890625" xlink:href="#BitstreamVeraSans-Roman-61"/>
      <use x="230.908203125" xlink:href="#BitstreamVeraSans-Roman-74"/>
      <use x="270.1171875" xlink:href="#BitstreamVeraSans-Roman-69"/>
      <use x="297.900390625" xlink:href="#BitstreamVeraSans-Roman-6f"/>
      <use x="359.08203125" xlink:href="#BitstreamVeraSans-Roman-6e"/>
      <use x="422.4609375" xlink:href="#BitstreamVeraSans-Roman-73"/>
     </g>
    </g>
   </g>
   <g id="matplotlib.axis_2">
    <g id="ytick_1">
     <g id="line2d_15">
      <defs>
       <path d="M 0 0 
L 4 0 
" id="m3f3532f7f5" style="stroke:#000000;stroke-width:0.5;"/>
      </defs>
      <g>
       <use style="stroke:#000000;stroke-width:0.5;" x="93.38265625" xlink:href="#m3f3532f7f5" y="770.338125"/>
      </g>
     </g>
     <g id="line2d_16">
      <defs>
       <path d="M 0 0 
L -4 0 
" id="m08cb349c95" style="stroke:#000000;stroke-width:0.5;"/>
      </defs>
      <g>
       <use style="stroke:#000000;stroke-width:0.5;" x="1381.831875" xlink:href="#m08cb349c95" y="770.338125"/>
      </g>
     </g>
     <g id="text_8">
      <!-- −60 -->
      <defs>
       <path d="M 10.59375 35.5 
L 73.1875 35.5 
L 73.1875 27.203125 
L 10.59375 27.203125 
z
" id="BitstreamVeraSans-Roman-2212"/>
       <path d="M 33.015625 40.375 
Q 26.375 40.375 22.484375 35.828125 
Q 18.609375 31.296875 18.609375 23.390625 
Q 18.609375 15.53125 22.484375 10.953125 
Q 26.375 6.390625 33.015625 6.390625 
Q 39.65625 6.390625 43.53125 10.953125 
Q 47.40625 15.53125 47.40625 23.390625 
Q 47.40625 31.296875 43.53125 35.828125 
Q 39.65625 40.375 33.015625 40.375 
M 52.59375 71.296875 
L 52.59375 62.3125 
Q 48.875 64.0625 45.09375 64.984375 
Q 41.3125 65.921875 37.59375 65.921875 
Q 27.828125 65.921875 22.671875 59.328125 
Q 17.53125 52.734375 16.796875 39.40625 
Q 19.671875 43.65625 24.015625 45.921875 
Q 28.375 48.1875 33.59375 48.1875 
Q 44.578125 48.1875 50.953125 41.515625 
Q 57.328125 34.859375 57.328125 23.390625 
Q 57.328125 12.15625 50.6875 5.359375 
Q 44.046875 -1.421875 33.015625 -1.421875 
Q 20.359375 -1.421875 13.671875 8.265625 
Q 6.984375 17.96875 6.984375 36.375 
Q 6.984375 53.65625 15.1875 63.9375 
Q 23.390625 74.21875 37.203125 74.21875 
Q 40.921875 74.21875 44.703125 73.484375 
Q 48.484375 72.75 52.59375 71.296875 
" id="BitstreamVeraSans-Roman-36"/>
      </defs>
      <g transform="translate(26.06859375 778.61625)scale(0.3 -0.3)">
       <use xlink:href="#BitstreamVeraSans-Roman-2212"/>
       <use x="83.7890625" xlink:href="#BitstreamVeraSans-Roman-36"/>
       <use x="147.412109375" xlink:href="#BitstreamVeraSans-Roman-30"/>
      </g>
     </g>
    </g>
    <g id="ytick_2">
     <g id="line2d_17">
      <g>
       <use style="stroke:#000000;stroke-width:0.5;" x="93.38265625" xlink:href="#m3f3532f7f5" y="681.285332031"/>
      </g>
     </g>
     <g id="line2d_18">
      <g>
       <use style="stroke:#000000;stroke-width:0.5;" x="1381.831875" xlink:href="#m08cb349c95" y="681.285332031"/>
      </g>
     </g>
     <g id="text_9">
      <!-- −50 -->
      <g transform="translate(26.06859375 689.563457031)scale(0.3 -0.3)">
       <use xlink:href="#BitstreamVeraSans-Roman-2212"/>
       <use x="83.7890625" xlink:href="#BitstreamVeraSans-Roman-35"/>
       <use x="147.412109375" xlink:href="#BitstreamVeraSans-Roman-30"/>
      </g>
     </g>
    </g>
    <g id="ytick_3">
     <g id="line2d_19">
      <g>
       <use style="stroke:#000000;stroke-width:0.5;" x="93.38265625" xlink:href="#m3f3532f7f5" y="592.232539062"/>
      </g>
     </g>
     <g id="line2d_20">
      <g>
       <use style="stroke:#000000;stroke-width:0.5;" x="1381.831875" xlink:href="#m08cb349c95" y="592.232539062"/>
      </g>
     </g>
     <g id="text_10">
      <!-- −40 -->
      <g transform="translate(26.06859375 600.510664062)scale(0.3 -0.3)">
       <use xlink:href="#BitstreamVeraSans-Roman-2212"/>
       <use x="83.7890625" xlink:href="#BitstreamVeraSans-Roman-34"/>
       <use x="147.412109375" xlink:href="#BitstreamVeraSans-Roman-30"/>
      </g>
     </g>
    </g>
    <g id="ytick_4">
     <g id="line2d_21">
      <g>
       <use style="stroke:#000000;stroke-width:0.5;" x="93.38265625" xlink:href="#m3f3532f7f5" y="503.179746094"/>
      </g>
     </g>
     <g id="line2d_22">
      <g>
       <use style="stroke:#000000;stroke-width:0.5;" x="1381.831875" xlink:href="#m08cb349c95" y="503.179746094"/>
      </g>
     </g>
     <g id="text_11">
      <!-- −30 -->
      <g transform="translate(26.06859375 511.457871094)scale(0.3 -0.3)">
       <use xlink:href="#BitstreamVeraSans-Roman-2212"/>
       <use x="83.7890625" xlink:href="#BitstreamVeraSans-Roman-33"/>
       <use x="147.412109375" xlink:href="#BitstreamVeraSans-Roman-30"/>
      </g>
     </g>
    </g>
    <g id="ytick_5">
     <g id="line2d_23">
      <g>
       <use style="stroke:#000000;stroke-width:0.5;" x="93.38265625" xlink:href="#m3f3532f7f5" y="414.126953125"/>
      </g>
     </g>
     <g id="line2d_24">
      <g>
       <use style="stroke:#000000;stroke-width:0.5;" x="1381.831875" xlink:href="#m08cb349c95" y="414.126953125"/>
      </g>
     </g>
     <g id="text_12">
      <!-- −20 -->
      <g transform="translate(26.06859375 422.405078125)scale(0.3 -0.3)">
       <use xlink:href="#BitstreamVeraSans-Roman-2212"/>
       <use x="83.7890625" xlink:href="#BitstreamVeraSans-Roman-32"/>
       <use x="147.412109375" xlink:href="#BitstreamVeraSans-Roman-30"/>
      </g>
     </g>
    </g>
    <g id="ytick_6">
     <g id="line2d_25">
      <g>
       <use style="stroke:#000000;stroke-width:0.5;" x="93.38265625" xlink:href="#m3f3532f7f5" y="325.074160156"/>
      </g>
     </g>
     <g id="line2d_26">
      <g>
       <use style="stroke:#000000;stroke-width:0.5;" x="1381.831875" xlink:href="#m08cb349c95" y="325.074160156"/>
      </g>
     </g>
     <g id="text_13">
      <!-- −10 -->
      <g transform="translate(26.06859375 333.352285156)scale(0.3 -0.3)">
       <use xlink:href="#BitstreamVeraSans-Roman-2212"/>
       <use x="83.7890625" xlink:href="#BitstreamVeraSans-Roman-31"/>
       <use x="147.412109375" xlink:href="#BitstreamVeraSans-Roman-30"/>
      </g>
     </g>
    </g>
    <g id="ytick_7">
     <g id="line2d_27">
      <g>
       <use style="stroke:#000000;stroke-width:0.5;" x="93.38265625" xlink:href="#m3f3532f7f5" y="236.021367188"/>
      </g>
     </g>
     <g id="line2d_28">
      <g>
       <use style="stroke:#000000;stroke-width:0.5;" x="1381.831875" xlink:href="#m08cb349c95" y="236.021367188"/>
      </g>
     </g>
     <g id="text_14">
      <!-- 0 -->
      <g transform="translate(70.29515625 244.299492188)scale(0.3 -0.3)">
       <use xlink:href="#BitstreamVeraSans-Roman-30"/>
      </g>
     </g>
    </g>
    <g id="ytick_8">
     <g id="line2d_29">
      <g>
       <use style="stroke:#000000;stroke-width:0.5;" x="93.38265625" xlink:href="#m3f3532f7f5" y="146.968574219"/>
      </g>
     </g>
     <g id="line2d_30">
      <g>
       <use style="stroke:#000000;stroke-width:0.5;" x="1381.831875" xlink:href="#m08cb349c95" y="146.968574219"/>
      </g>
     </g>
     <g id="text_15">
      <!-- 10 -->
      <g transform="translate(51.20765625 155.246699219)scale(0.3 -0.3)">
       <use xlink:href="#BitstreamVeraSans-Roman-31"/>
       <use x="63.623046875" xlink:href="#BitstreamVeraSans-Roman-30"/>
      </g>
     </g>
    </g>
    <g id="ytick_9">
     <g id="line2d_31">
      <g>
       <use style="stroke:#000000;stroke-width:0.5;" x="93.38265625" xlink:href="#m3f3532f7f5" y="57.91578125"/>
      </g>
     </g>
     <g id="line2d_32">
      <g>
       <use style="stroke:#000000;stroke-width:0.5;" x="1381.831875" xlink:href="#m08cb349c95" y="57.91578125"/>
      </g>
     </g>
     <g id="text_16">
      <!-- 20 -->
      <g transform="translate(51.20765625 66.19390625)scale(0.3 -0.3)">
       <use xlink:href="#BitstreamVeraSans-Roman-32"/>
       <use x="63.623046875" xlink:href="#BitstreamVeraSans-Roman-30"/>
      </g>
     </g>
    </g>
   </g>
   <g id="text_17">
    <!-- log(loss) -->
    <defs>
     <path d="M 8.015625 75.875 
L 15.828125 75.875 
Q 23.140625 64.359375 26.78125 53.3125 
Q 30.421875 42.28125 30.421875 31.390625 
Q 30.421875 20.453125 26.78125 9.375 
Q 23.140625 -1.703125 15.828125 -13.1875 
L 8.015625 -13.1875 
Q 14.5 -2 17.703125 9.0625 
Q 20.90625 20.125 20.90625 31.390625 
Q 20.90625 42.671875 17.703125 53.65625 
Q 14.5 64.65625 8.015625 75.875 
" id="BitstreamVeraSans-Roman-29"/>
     <path d="M 31 75.875 
Q 24.46875 64.65625 21.28125 53.65625 
Q 18.109375 42.671875 18.109375 31.390625 
Q 18.109375 20.125 21.3125 9.0625 
Q 24.515625 -2 31 -13.1875 
L 23.1875 -13.1875 
Q 15.875 -1.703125 12.234375 9.375 
Q 8.59375 20.453125 8.59375 31.390625 
Q 8.59375 42.28125 12.203125 53.3125 
Q 15.828125 64.359375 23.1875 75.875 
z
" id="BitstreamVeraSans-Roman-28"/>
     <path d="M 45.40625 27.984375 
Q 45.40625 37.75 41.375 43.109375 
Q 37.359375 48.484375 30.078125 48.484375 
Q 22.859375 48.484375 18.828125 43.109375 
Q 14.796875 37.75 14.796875 27.984375 
Q 14.796875 18.265625 18.828125 12.890625 
Q 22.859375 7.515625 30.078125 7.515625 
Q 37.359375 7.515625 41.375 12.890625 
Q 45.40625 18.265625 45.40625 27.984375 
M 54.390625 6.78125 
Q 54.390625 -7.171875 48.1875 -13.984375 
Q 42 -20.796875 29.203125 -20.796875 
Q 24.46875 -20.796875 20.265625 -20.09375 
Q 16.0625 -19.390625 12.109375 -17.921875 
L 12.109375 -9.1875 
Q 16.0625 -11.328125 19.921875 -12.34375 
Q 23.78125 -13.375 27.78125 -13.375 
Q 36.625 -13.375 41.015625 -8.765625 
Q 45.40625 -4.15625 45.40625 5.171875 
L 45.40625 9.625 
Q 42.625 4.78125 38.28125 2.390625 
Q 33.9375 0 27.875 0 
Q 17.828125 0 11.671875 7.65625 
Q 5.515625 15.328125 5.515625 27.984375 
Q 5.515625 40.671875 11.671875 48.328125 
Q 17.828125 56 27.875 56 
Q 33.9375 56 38.28125 53.609375 
Q 42.625 51.21875 45.40625 46.390625 
L 45.40625 54.6875 
L 54.390625 54.6875 
z
" id="BitstreamVeraSans-Roman-67"/>
     <path d="M 9.421875 75.984375 
L 18.40625 75.984375 
L 18.40625 0 
L 9.421875 0 
z
" id="BitstreamVeraSans-Roman-6c"/>
    </defs>
    <g transform="translate(674.061171875 52.91578125)scale(0.3 -0.3)">
     <use xlink:href="#BitstreamVeraSans-Roman-6c"/>
     <use x="27.783203125" xlink:href="#BitstreamVeraSans-Roman-6f"/>
     <use x="88.96484375" xlink:href="#BitstreamVeraSans-Roman-67"/>
     <use x="152.44140625" xlink:href="#BitstreamVeraSans-Roman-28"/>
     <use x="191.455078125" xlink:href="#BitstreamVeraSans-Roman-6c"/>
     <use x="219.23828125" xlink:href="#BitstreamVeraSans-Roman-6f"/>
     <use x="280.419921875" xlink:href="#BitstreamVeraSans-Roman-73"/>
     <use x="332.51953125" xlink:href="#BitstreamVeraSans-Roman-73"/>
     <use x="384.619140625" xlink:href="#BitstreamVeraSans-Roman-29"/>
    </g>
   </g>
   <g id="legend_1">
    <g id="patch_7">
     <path d="M 1142.47875 169.984531 
L 1366.831875 169.984531 
L 1366.831875 72.915781 
L 1142.47875 72.915781 
z
" style="fill:#ffffff;stroke:#000000;stroke-linejoin:miter;"/>
    </g>
    <g id="line2d_33">
     <path d="M 1163.47875 97.211094 
L 1205.47875 97.211094 
" style="fill:none;stroke:#0000ff;stroke-linecap:square;stroke-width:2.0;"/>
    </g>
    <g id="line2d_34"/>
    <g id="text_18">
     <!-- random -->
     <defs>
      <path d="M 45.40625 46.390625 
L 45.40625 75.984375 
L 54.390625 75.984375 
L 54.390625 0 
L 45.40625 0 
L 45.40625 8.203125 
Q 42.578125 3.328125 38.25 0.953125 
Q 33.9375 -1.421875 27.875 -1.421875 
Q 17.96875 -1.421875 11.734375 6.484375 
Q 5.515625 14.40625 5.515625 27.296875 
Q 5.515625 40.1875 11.734375 48.09375 
Q 17.96875 56 27.875 56 
Q 33.9375 56 38.25 53.625 
Q 42.578125 51.265625 45.40625 46.390625 
M 14.796875 27.296875 
Q 14.796875 17.390625 18.875 11.75 
Q 22.953125 6.109375 30.078125 6.109375 
Q 37.203125 6.109375 41.296875 11.75 
Q 45.40625 17.390625 45.40625 27.296875 
Q 45.40625 37.203125 41.296875 42.84375 
Q 37.203125 48.484375 30.078125 48.484375 
Q 22.953125 48.484375 18.875 42.84375 
Q 14.796875 37.203125 14.796875 27.296875 
" id="BitstreamVeraSans-Roman-64"/>
      <path d="M 52 44.1875 
Q 55.375 50.25 60.0625 53.125 
Q 64.75 56 71.09375 56 
Q 79.640625 56 84.28125 50.015625 
Q 88.921875 44.046875 88.921875 33.015625 
L 88.921875 0 
L 79.890625 0 
L 79.890625 32.71875 
Q 79.890625 40.578125 77.09375 44.375 
Q 74.3125 48.1875 68.609375 48.1875 
Q 61.625 48.1875 57.5625 43.546875 
Q 53.515625 38.921875 53.515625 30.90625 
L 53.515625 0 
L 44.484375 0 
L 44.484375 32.71875 
Q 44.484375 40.625 41.703125 44.40625 
Q 38.921875 48.1875 33.109375 48.1875 
Q 26.21875 48.1875 22.15625 43.53125 
Q 18.109375 38.875 18.109375 30.90625 
L 18.109375 0 
L 9.078125 0 
L 9.078125 54.6875 
L 18.109375 54.6875 
L 18.109375 46.1875 
Q 21.1875 51.21875 25.484375 53.609375 
Q 29.78125 56 35.6875 56 
Q 41.65625 56 45.828125 52.96875 
Q 50 49.953125 52 44.1875 
" id="BitstreamVeraSans-Roman-6d"/>
     </defs>
     <g transform="translate(1238.47875 107.71109375)scale(0.3 -0.3)">
      <use xlink:href="#BitstreamVeraSans-Roman-72"/>
      <use x="41.11328125" xlink:href="#BitstreamVeraSans-Roman-61"/>
      <use x="102.392578125" xlink:href="#BitstreamVeraSans-Roman-6e"/>
      <use x="165.771484375" xlink:href="#BitstreamVeraSans-Roman-64"/>
      <use x="229.248046875" xlink:href="#BitstreamVeraSans-Roman-6f"/>
      <use x="290.4296875" xlink:href="#BitstreamVeraSans-Roman-6d"/>
     </g>
    </g>
    <g id="line2d_35">
     <path d="M 1163.47875 141.245469 
L 1205.47875 141.245469 
" style="fill:none;stroke:#008000;stroke-linecap:square;stroke-width:2.0;"/>
    </g>
    <g id="line2d_36"/>
    <g id="text_19">
     <!-- corr -->
     <defs>
      <path d="M 48.78125 52.59375 
L 48.78125 44.1875 
Q 44.96875 46.296875 41.140625 47.34375 
Q 37.3125 48.390625 33.40625 48.390625 
Q 24.65625 48.390625 19.8125 42.84375 
Q 14.984375 37.3125 14.984375 27.296875 
Q 14.984375 17.28125 19.8125 11.734375 
Q 24.65625 6.203125 33.40625 6.203125 
Q 37.3125 6.203125 41.140625 7.25 
Q 44.96875 8.296875 48.78125 10.40625 
L 48.78125 2.09375 
Q 45.015625 0.34375 40.984375 -0.53125 
Q 36.96875 -1.421875 32.421875 -1.421875 
Q 20.0625 -1.421875 12.78125 6.34375 
Q 5.515625 14.109375 5.515625 27.296875 
Q 5.515625 40.671875 12.859375 48.328125 
Q 20.21875 56 33.015625 56 
Q 37.15625 56 41.109375 55.140625 
Q 45.0625 54.296875 48.78125 52.59375 
" id="BitstreamVeraSans-Roman-63"/>
     </defs>
     <g transform="translate(1238.47875 151.74546875)scale(0.3 -0.3)">
      <use xlink:href="#BitstreamVeraSans-Roman-63"/>
      <use x="54.98046875" xlink:href="#BitstreamVeraSans-Roman-6f"/>
      <use x="116.162109375" xlink:href="#BitstreamVeraSans-Roman-72"/>
      <use x="157.259765625" xlink:href="#BitstreamVeraSans-Roman-72"/>
     </g>
    </g>
   </g>
  </g>
 </g>
 <defs>
  <clipPath id="p644808bbed">
   <rect height="712.42234375" width="1288.44921875" x="93.38265625" y="57.91578125"/>
  </clipPath>
 </defs>
</svg>
