<?xml version="1.0" encoding="utf-8" standalone="no"?>
<!DOCTYPE svg PUBLIC "-//W3C//DTD SVG 1.1//EN"
  "http://www.w3.org/Graphics/SVG/1.1/DTD/svg11.dtd">
<!-- Created with matplotlib (http://matplotlib.org/) -->
<svg height="864pt" version="1.1" viewBox="0 0 1440 864" width="1440pt" xmlns="http://www.w3.org/2000/svg" xmlns:xlink="http://www.w3.org/1999/xlink">
 <defs>
  <style type="text/css">
*{stroke-linecap:butt;stroke-linejoin:round;stroke-miterlimit:100000;}
  </style>
 </defs>
 <g id="figure_1">
  <g id="patch_1">
   <path d="M 0 864 
L 1440 864 
L 1440 0 
L 0 0 
z
" style="fill:#ffffff;"/>
  </g>
  <g id="axes_1">
   <g id="patch_2">
    <path d="M 158.4 747 
L 1359.9 747 
L 1359.9 51.3 
L 158.4 51.3 
z
" style="fill:#ffffff;"/>
   </g>
   <g id="line2d_1">
    <path clip-path="url(#p1ebc4b2702)" d="M 158.4 130.892062 
L 159.6015 132.264767 
L 160.803 132.047377 
L 162.0045 133.722221 
L 163.206 135.744743 
L 164.4075 137.49535 
L 165.609 138.375793 
L 166.8105 140.640999 
L 169.2135 143.056548 
L 170.415 146.139573 
L 171.6165 147.979421 
L 172.818 149.090617 
L 174.0195 150.873927 
L 175.221 151.66955 
L 176.4225 153.071396 
L 177.624 153.907095 
L 178.8255 155.523925 
L 180.027 156.806037 
L 181.2285 157.846744 
L 182.43 159.099416 
L 183.6315 160.174149 
L 184.833 162.202365 
L 187.236 164.988713 
L 188.4375 166.194847 
L 189.639 168.841812 
L 190.8405 170.571479 
L 192.042 172.647101 
L 194.445 175.983397 
L 195.6465 176.918814 
L 198.0495 180.032439 
L 199.251 180.636077 
L 200.4525 181.553529 
L 201.654 183.017789 
L 202.8555 184.192189 
L 204.057 185.667608 
L 205.2585 187.744244 
L 207.6615 191.055181 
L 212.4675 196.214655 
L 213.669 197.784964 
L 214.8705 198.425321 
L 216.072 199.631904 
L 217.2735 201.318111 
L 218.475 202.62518 
L 220.878 204.553115 
L 222.0795 205.860958 
L 224.4825 208.670714 
L 225.684 209.431841 
L 226.8855 211.491673 
L 229.2885 214.754412 
L 231.6915 217.006781 
L 232.893 219.045834 
L 234.0945 221.43326 
L 235.296 222.423004 
L 236.4975 223.259597 
L 237.699 225.217768 
L 238.9005 226.710778 
L 240.102 228.967457 
L 241.3035 230.489938 
L 242.505 231.510735 
L 243.7065 233.033155 
L 244.908 234.152008 
L 246.1095 235.465325 
L 247.311 237.325146 
L 248.5125 238.106057 
L 252.117 242.373744 
L 253.3185 243.062722 
L 254.52 244.820432 
L 255.7215 247.428849 
L 256.923 248.339152 
L 259.326 250.694091 
L 260.5275 252.622332 
L 261.729 253.936223 
L 262.9305 255.502686 
L 264.132 255.700589 
L 265.3335 257.529295 
L 266.535 258.285714 
L 267.7365 258.550692 
L 270.1395 260.612862 
L 272.5425 263.730773 
L 273.744 265.653343 
L 277.3485 268.305952 
L 278.55 268.829896 
L 279.7515 269.947579 
L 282.1545 272.695963 
L 283.356 273.449318 
L 284.5575 274.916488 
L 285.759 276.733362 
L 286.9605 278.175667 
L 288.162 279.823788 
L 289.3635 281.136048 
L 290.565 282.099574 
L 291.7665 283.2503 
L 292.968 283.856578 
L 294.1695 285.714217 
L 295.371 286.706893 
L 296.5725 288.246231 
L 297.774 289.444904 
L 298.9755 291.129414 
L 300.177 292.127403 
L 301.3785 293.961826 
L 302.58 295.427151 
L 303.7815 297.759779 
L 304.983 298.703899 
L 306.1845 300.482818 
L 307.386 301.639962 
L 309.789 304.873707 
L 310.9905 305.916473 
L 313.3935 309.263643 
L 314.595 310.069155 
L 315.7965 311.550021 
L 318.1995 315.288518 
L 319.401 316.469654 
L 320.6025 315.941501 
L 321.804 317.885474 
L 323.0055 318.593278 
L 324.207 320.097715 
L 326.61 323.851986 
L 327.8115 325.315056 
L 329.013 327.0749 
L 331.416 331.274055 
L 332.6175 332.971791 
L 333.819 333.480288 
L 335.0205 334.676624 
L 336.222 336.232061 
L 337.4235 338.371987 
L 338.625 339.637096 
L 339.8265 341.267211 
L 342.2295 343.577316 
L 343.431 345.380074 
L 344.6325 346.289291 
L 345.834 347.519557 
L 347.0355 349.07037 
L 348.237 351.210059 
L 349.4385 351.957674 
L 350.64 353.162345 
L 351.8415 355.725221 
L 353.043 356.733308 
L 354.2445 357.992712 
L 355.446 359.006803 
L 357.849 363.197872 
L 359.0505 364.529228 
L 360.252 365.012853 
L 362.655 366.908377 
L 363.8565 369.192197 
L 365.058 370.485775 
L 367.461 373.546152 
L 368.6625 374.918967 
L 369.864 375.955053 
L 371.0655 377.898196 
L 372.267 379.384017 
L 373.4685 380.187014 
L 374.67 381.521724 
L 375.8715 383.46564 
L 377.073 384.002226 
L 378.2745 384.938132 
L 380.6775 388.22909 
L 381.879 389.26227 
L 384.282 392.08061 
L 385.4835 394.221879 
L 386.685 395.935519 
L 387.8865 397.198512 
L 389.088 398.132527 
L 390.2895 400.043994 
L 391.491 401.717768 
L 392.6925 403.626956 
L 395.0955 406.223395 
L 397.4985 408.939519 
L 399.9015 411.958059 
L 401.103 413.325237 
L 403.506 416.62765 
L 404.7075 417.63081 
L 405.909 418.377778 
L 407.1105 420.209257 
L 408.312 421.42026 
L 410.715 425.868271 
L 411.9165 427.329894 
L 413.118 428.200493 
L 414.3195 429.29642 
L 416.7225 432.699337 
L 420.327 437.105843 
L 421.5285 438.072077 
L 422.73 439.761743 
L 423.9315 441.645574 
L 425.133 444.300464 
L 426.3345 445.861772 
L 428.7375 447.54136 
L 432.342 451.363231 
L 433.5435 453.190584 
L 434.745 454.65679 
L 435.9465 455.698665 
L 437.148 456.364711 
L 438.3495 457.738348 
L 439.551 459.335871 
L 440.7525 460.481596 
L 441.954 462.296236 
L 443.1555 464.552897 
L 444.357 466.138735 
L 445.5585 468.107884 
L 446.76 468.864211 
L 447.9615 470.327931 
L 449.163 471.144225 
L 450.3645 472.880209 
L 451.566 474.199523 
L 453.969 478.164347 
L 455.1705 478.686082 
L 456.372 481.32418 
L 458.775 484.809492 
L 459.9765 486.152283 
L 461.178 488.595062 
L 462.3795 490.100798 
L 463.581 491.398461 
L 464.7825 492.453325 
L 465.984 494.299536 
L 470.79 499.561134 
L 471.9915 500.566108 
L 473.193 502.147867 
L 474.3945 503.069764 
L 475.596 504.544887 
L 477.999 506.961953 
L 479.2005 508.847897 
L 480.402 510.175405 
L 481.6035 512.109705 
L 482.805 513.246874 
L 484.0065 514.612373 
L 485.208 515.756244 
L 486.4095 517.598003 
L 488.8125 520.393455 
L 490.014 522.127646 
L 492.417 523.817584 
L 493.6185 525.010076 
L 494.82 526.740964 
L 497.223 528.953864 
L 498.4245 530.311571 
L 499.626 532.995511 
L 500.8275 535.038368 
L 502.029 536.310403 
L 504.432 538.352554 
L 506.835 540.923144 
L 508.0365 541.756755 
L 510.4395 543.872723 
L 511.641 545.882588 
L 512.8425 547.20543 
L 516.447 551.869833 
L 517.6485 553.400298 
L 518.85 554.691656 
L 520.0515 556.772096 
L 521.253 558.529815 
L 522.4545 559.717174 
L 523.656 560.664683 
L 524.8575 562.024593 
L 526.059 564.058354 
L 529.6635 567.85598 
L 530.865 568.552096 
L 532.0665 568.786587 
L 533.268 570.763562 
L 534.4695 572.191914 
L 535.671 573.240553 
L 536.8725 573.788818 
L 538.074 574.496909 
L 539.2755 576.270356 
L 540.477 577.310815 
L 542.88 580.89951 
L 544.0815 581.961795 
L 545.283 584.429927 
L 547.686 586.725814 
L 548.8875 588.303645 
L 550.089 589.277011 
L 554.895 594.995488 
L 556.0965 596.10134 
L 557.298 597.854305 
L 558.4995 599.034866 
L 559.701 601.318711 
L 560.9025 603.04496 
L 564.507 607.570156 
L 565.7085 609.604899 
L 566.91 610.856284 
L 568.1115 611.271196 
L 569.313 612.96686 
L 570.5145 614.455251 
L 571.716 615.342764 
L 572.9175 616.969563 
L 574.119 617.476978 
L 575.3205 619.497844 
L 576.522 620.573665 
L 577.7235 623.082079 
L 582.5295 628.221326 
L 583.731 629.065978 
L 584.9325 630.521892 
L 586.134 631.482962 
L 587.3355 632.972942 
L 589.7385 635.315757 
L 590.94 636.240982 
L 592.1415 637.427227 
L 593.343 639.28931 
L 594.5445 639.698322 
L 598.149 643.501874 
L 599.3505 644.572793 
L 601.7535 647.860943 
L 602.955 648.614235 
L 605.358 652.168664 
L 606.5595 653.5124 
L 607.761 654.302834 
L 608.9625 656.063358 
L 610.164 657.23594 
L 611.3655 657.955727 
L 618.5745 665.991166 
L 619.776 667.694844 
L 620.9775 668.789023 
L 622.179 669.49462 
L 623.3805 670.430301 
L 624.582 671.704463 
L 625.7835 672.738328 
L 626.985 675.3324 
L 628.1865 676.01147 
L 629.388 677.521804 
L 630.5895 679.226368 
L 631.791 680.218531 
L 632.9925 681.019523 
L 634.194 682.605514 
L 635.3955 683.118464 
L 636.597 684.337044 
L 637.7985 685.95223 
L 639 687.762506 
L 640.2015 689.070381 
L 641.403 690.00542 
L 642.6045 691.355006 
L 643.806 693.62334 
L 646.209 696.378433 
L 647.4105 697.552039 
L 648.612 698.049604 
L 649.8135 698.909705 
L 651.015 700.463262 
L 652.2165 701.202483 
L 653.418 701.753823 
L 654.6195 701.840087 
L 657.0225 704.000562 
L 658.224 705.748072 
L 659.4255 706.367776 
L 660.627 706.847733 
L 663.03 709.778615 
L 664.2315 711.616473 
L 665.433 712.861612 
L 666.6345 712.968415 
L 667.836 714.275716 
L 669.0375 714.411919 
L 670.239 715.756414 
L 671.4405 715.676246 
L 672.642 716.649491 
L 673.8435 716.935005 
L 675.045 718.39646 
L 676.2465 719.543223 
L 677.448 719.912959 
L 678.6495 721.397617 
L 679.851 722.157914 
L 681.0525 722.770821 
L 682.254 722.853541 
L 684.657 723.310895 
L 685.8585 724.417171 
L 687.06 724.463058 
L 688.2615 724.777693 
L 689.463 724.69085 
L 690.6645 723.686599 
L 691.866 724.057177 
L 693.0675 724.20137 
L 694.269 724.676224 
L 695.4705 724.664728 
L 696.672 724.901973 
L 697.8735 726.260941 
L 699.075 725.877634 
L 700.2765 726.602329 
L 701.478 729.195564 
L 702.6795 728.480847 
L 703.881 728.386726 
L 705.0825 727.374942 
L 706.284 728.763705 
L 707.4855 727.750266 
L 708.687 726.98787 
L 709.8885 727.021568 
L 711.09 727.624388 
L 712.2915 728.077527 
L 714.6945 727.841989 
L 715.896 728.026262 
L 717.0975 727.522302 
L 719.5005 729.129221 
L 720.702 728.435342 
L 721.9035 728.168246 
L 723.105 729.162361 
L 724.3065 730.69059 
L 725.508 729.136039 
L 727.911 728.001654 
L 729.1125 726.912391 
L 730.314 726.633988 
L 732.717 729.024272 
L 733.9185 728.264664 
L 735.12 728.188031 
L 736.3215 727.959182 
L 737.523 728.054185 
L 738.7245 728.607506 
L 739.926 729.538817 
L 741.1275 729.085813 
L 742.329 728.940276 
L 743.5305 728.046014 
L 744.732 728.482279 
L 745.9335 727.784062 
L 747.135 728.085737 
L 748.3365 728.900271 
L 751.941 728.51633 
L 753.1425 729.399022 
L 754.344 728.192379 
L 755.5455 728.979365 
L 756.747 729.120578 
L 757.9485 728.955563 
L 760.3515 728.963348 
L 761.553 728.996068 
L 762.7545 729.309456 
L 763.956 728.695974 
L 765.1575 728.701433 
L 766.359 728.295479 
L 767.5605 728.040095 
L 768.762 728.409793 
L 769.9635 729.717032 
L 771.165 730.675813 
L 772.3665 729.872821 
L 773.568 728.742593 
L 774.7695 728.621573 
L 775.971 727.518416 
L 777.1725 729.214757 
L 778.374 728.986276 
L 780.777 729.966847 
L 781.9785 730.836493 
L 783.18 730.815271 
L 784.3815 731.233809 
L 785.583 730.04933 
L 786.7845 729.742136 
L 787.986 728.915401 
L 790.389 729.345029 
L 791.5905 730.19524 
L 792.792 729.526527 
L 793.9935 730.073736 
L 795.195 729.925028 
L 796.3965 730.6413 
L 797.598 729.809287 
L 800.001 729.356946 
L 801.2025 728.777882 
L 802.404 728.32844 
L 803.6055 729.038937 
L 804.807 729.932105 
L 806.0085 730.042721 
L 808.4115 729.84254 
L 809.613 728.953571 
L 810.8145 729.452608 
L 812.016 729.536409 
L 814.419 730.61976 
L 815.6205 729.911501 
L 816.822 730.503468 
L 818.0235 729.877182 
L 819.225 729.819348 
L 820.4265 730.226724 
L 821.628 729.897021 
L 824.031 729.890768 
L 825.2325 729.59442 
L 826.434 730.054611 
L 827.6355 728.375852 
L 828.837 729.571059 
L 830.0385 728.458377 
L 831.24 728.696756 
L 834.8445 729.837936 
L 836.046 729.775276 
L 837.2475 730.216728 
L 838.449 729.568538 
L 839.6505 729.611509 
L 840.852 728.134959 
L 842.0535 729.533045 
L 844.4565 730.205488 
L 845.658 728.732984 
L 846.8595 728.349568 
L 848.061 728.74667 
L 849.2625 728.291142 
L 850.464 728.544713 
L 851.6655 728.554502 
L 852.867 729.404148 
L 854.0685 729.221975 
L 855.27 730.91855 
L 856.4715 729.707195 
L 857.673 730.211162 
L 858.8745 730.202007 
L 860.076 729.788965 
L 861.2775 729.701171 
L 862.479 729.196241 
L 863.6805 729.974598 
L 864.882 730.584888 
L 866.0835 731.009391 
L 867.285 730.7863 
L 868.4865 729.235679 
L 870.8895 728.833195 
L 872.091 729.345621 
L 873.2925 730.372821 
L 874.494 730.611091 
L 875.6955 729.800578 
L 876.897 729.863149 
L 878.0985 730.362565 
L 879.3 730.300703 
L 881.703 729.353618 
L 882.9045 729.932359 
L 884.106 730.298822 
L 885.3075 730.016892 
L 886.509 729.263245 
L 887.7105 728.239458 
L 890.1135 730.495435 
L 891.315 730.563551 
L 892.5165 730.379973 
L 893.718 730.384634 
L 894.9195 729.996688 
L 896.121 729.455482 
L 897.3225 729.343949 
L 898.524 729.040379 
L 899.7255 729.037012 
L 900.927 730.230032 
L 902.1285 730.524835 
L 904.5315 729.11337 
L 905.733 729.452946 
L 906.9345 728.533726 
L 908.136 728.077296 
L 909.3375 729.129159 
L 910.539 729.111257 
L 911.7405 729.519189 
L 912.942 729.40852 
L 914.1435 729.570969 
L 915.345 729.892916 
L 917.748 728.581503 
L 918.9495 729.158462 
L 920.151 728.976401 
L 922.554 726.963918 
L 923.7555 726.373806 
L 924.957 726.255803 
L 926.1585 726.518652 
L 927.36 727.100467 
L 928.5615 727.509422 
L 929.763 727.539032 
L 930.9645 727.092756 
L 932.166 727.975683 
L 933.3675 728.47843 
L 934.569 728.859403 
L 935.7705 729.440037 
L 936.972 729.670246 
L 938.1735 728.784683 
L 939.375 728.163109 
L 940.5765 728.787341 
L 941.778 728.726732 
L 942.9795 730.126633 
L 944.181 730.640318 
L 946.584 729.342472 
L 947.7855 730.408528 
L 948.987 729.828511 
L 951.39 729.11415 
L 952.5915 728.975106 
L 953.793 728.984912 
L 954.9945 729.432001 
L 956.196 728.929171 
L 957.3975 727.660571 
L 958.599 728.456677 
L 959.8005 728.022347 
L 961.002 729.050343 
L 962.2035 728.95855 
L 963.405 729.064794 
L 964.6065 728.486124 
L 965.808 729.356552 
L 967.0095 729.370251 
L 968.211 729.163403 
L 969.4125 729.583786 
L 970.614 729.782837 
L 971.8155 729.413877 
L 974.2185 729.978553 
L 976.6215 729.724325 
L 977.823 728.772535 
L 979.0245 729.620344 
L 980.226 729.666595 
L 982.629 728.304252 
L 983.8305 728.993686 
L 985.032 728.943759 
L 986.2335 729.503749 
L 988.6365 726.97052 
L 989.838 728.683126 
L 991.0395 728.000806 
L 992.241 727.759493 
L 993.4425 727.038677 
L 994.644 726.820666 
L 995.8455 727.043086 
L 997.047 727.4906 
L 998.2485 728.535138 
L 999.45 728.409672 
L 1000.6515 727.320824 
L 1001.853 728.719258 
L 1003.0545 729.499658 
L 1004.256 729.234184 
L 1005.4575 728.696113 
L 1006.659 727.750484 
L 1007.8605 728.629755 
L 1009.062 728.123773 
L 1010.2635 728.242302 
L 1011.465 727.849668 
L 1012.6665 730.04626 
L 1013.868 730.530846 
L 1015.0695 730.179195 
L 1016.271 728.857153 
L 1017.4725 729.846119 
L 1018.674 729.540622 
L 1019.8755 731.214681 
L 1021.077 730.399626 
L 1022.2785 729.95834 
L 1023.48 729.263629 
L 1024.6815 730.136926 
L 1025.883 729.982795 
L 1027.0845 729.656097 
L 1029.4875 729.701575 
L 1030.689 729.866289 
L 1031.8905 730.538834 
L 1033.092 730.023412 
L 1034.2935 728.648452 
L 1035.495 728.224322 
L 1036.6965 728.899124 
L 1037.898 728.122939 
L 1039.0995 727.927329 
L 1040.301 729.227775 
L 1041.5025 729.98518 
L 1042.704 729.700806 
L 1043.9055 729.256846 
L 1045.107 729.718334 
L 1046.3085 727.994566 
L 1047.51 728.718445 
L 1048.7115 728.591699 
L 1049.913 728.24245 
L 1051.1145 728.398264 
L 1052.316 729.399188 
L 1053.5175 728.942989 
L 1055.9205 729.17468 
L 1057.122 730.51983 
L 1058.3235 729.230355 
L 1060.7265 730.784594 
L 1061.928 730.12825 
L 1063.1295 730.617412 
L 1064.331 729.690562 
L 1065.5325 728.529389 
L 1066.734 728.467134 
L 1067.9355 729.191545 
L 1069.137 728.806117 
L 1070.3385 729.530734 
L 1072.7415 727.675502 
L 1073.943 727.257134 
L 1075.1445 728.23427 
L 1076.346 727.893076 
L 1077.5475 726.926948 
L 1078.749 727.188444 
L 1079.9505 727.641236 
L 1081.152 728.397833 
L 1082.3535 728.182478 
L 1083.555 727.580984 
L 1084.7565 727.350534 
L 1085.958 727.841731 
L 1087.1595 727.821259 
L 1088.361 727.626521 
L 1089.5625 727.680429 
L 1090.764 727.532283 
L 1091.9655 727.136254 
L 1093.167 727.368783 
L 1094.3685 727.228295 
L 1095.57 728.359104 
L 1096.7715 728.816113 
L 1097.973 728.222211 
L 1099.1745 728.56541 
L 1100.376 727.51381 
L 1101.5775 727.904226 
L 1102.779 729.123883 
L 1103.9805 728.682458 
L 1105.182 728.791858 
L 1106.3835 728.357425 
L 1107.585 729.134957 
L 1108.7865 728.28353 
L 1109.988 727.948156 
L 1111.1895 729.266404 
L 1112.391 727.87312 
L 1113.5925 728.595302 
L 1114.794 728.237453 
L 1115.9955 729.592778 
L 1117.197 727.547873 
L 1118.3985 728.55932 
L 1119.6 728.893527 
L 1120.8015 728.505196 
L 1122.003 729.041829 
L 1123.2045 729.338803 
L 1124.406 729.935746 
L 1125.6075 727.395868 
L 1126.809 726.390432 
L 1129.212 728.20435 
L 1130.4135 729.622826 
L 1131.615 729.243087 
L 1132.8165 729.770246 
L 1134.018 728.875803 
L 1135.2195 728.182562 
L 1136.421 728.961026 
L 1137.6225 727.892177 
L 1138.824 727.563453 
L 1140.0255 728.467054 
L 1141.227 728.490554 
L 1142.4285 729.410284 
L 1143.63 729.683683 
L 1144.8315 728.96777 
L 1146.033 729.181351 
L 1147.2345 729.790258 
L 1148.436 729.942677 
L 1149.6375 728.877129 
L 1150.839 729.177459 
L 1152.0405 728.440603 
L 1153.242 728.769619 
L 1154.4435 729.379866 
L 1155.645 729.815378 
L 1156.8465 731.190802 
L 1158.048 731.282411 
L 1159.2495 729.594034 
L 1160.451 728.814534 
L 1161.6525 729.424894 
L 1162.854 729.870323 
L 1164.0555 731.170237 
L 1165.257 730.859892 
L 1166.4585 731.245248 
L 1167.66 730.530294 
L 1168.8615 730.853848 
L 1170.063 730.875455 
L 1171.2645 730.489428 
L 1172.466 731.163384 
L 1173.6675 731.46139 
L 1176.0705 730.948761 
L 1177.272 729.484604 
L 1178.4735 728.29326 
L 1179.675 729.237263 
L 1180.8765 727.527138 
L 1182.078 728.198261 
L 1183.2795 728.343749 
L 1184.481 727.751385 
L 1185.6825 729.059163 
L 1186.884 728.469115 
L 1188.0855 727.6174 
L 1190.4885 728.240426 
L 1191.69 728.788483 
L 1192.8915 728.764962 
L 1194.093 727.56094 
L 1195.2945 728.265535 
L 1196.496 728.129743 
L 1197.6975 729.357241 
L 1198.899 728.564931 
L 1201.302 729.564698 
L 1202.5035 729.995041 
L 1203.705 731.075661 
L 1204.9065 730.159527 
L 1206.108 728.971741 
L 1207.3095 728.996293 
L 1208.511 728.465335 
L 1209.7125 728.270291 
L 1210.914 727.90976 
L 1212.1155 728.224919 
L 1213.317 729.210182 
L 1214.5185 728.866506 
L 1215.72 727.599052 
L 1216.9215 727.526406 
L 1219.3245 728.117698 
L 1220.526 726.722047 
L 1221.7275 726.514705 
L 1224.1305 727.281154 
L 1225.332 727.65553 
L 1226.5335 727.898515 
L 1227.735 727.275581 
L 1228.9365 727.544866 
L 1230.138 726.818113 
L 1232.541 725.061012 
L 1233.7425 726.305983 
L 1236.1455 727.071475 
L 1237.347 727.168402 
L 1238.5485 728.209694 
L 1239.75 728.259416 
L 1240.9515 727.977967 
L 1242.153 728.997346 
L 1243.3545 729.490918 
L 1245.7575 727.729211 
L 1246.959 727.029947 
L 1248.1605 728.231333 
L 1249.362 727.880972 
L 1251.765 727.578062 
L 1252.9665 728.103167 
L 1254.168 728.204672 
L 1255.3695 728.194482 
L 1256.571 729.846166 
L 1257.7725 728.716404 
L 1258.974 729.584672 
L 1260.1755 728.305495 
L 1261.377 727.745966 
L 1262.5785 728.194775 
L 1264.9815 727.383371 
L 1266.183 727.432528 
L 1268.586 727.962469 
L 1269.7875 727.679031 
L 1270.989 727.581284 
L 1272.1905 726.360589 
L 1273.392 726.71945 
L 1274.5935 727.513163 
L 1275.795 728.536354 
L 1276.9965 728.014646 
L 1278.198 728.218997 
L 1279.3995 726.455722 
L 1280.601 727.365549 
L 1281.8025 727.502193 
L 1283.004 727.975262 
L 1284.2055 727.926299 
L 1285.407 728.331808 
L 1286.6085 728.3872 
L 1287.81 727.826859 
L 1289.0115 727.733223 
L 1290.213 728.408382 
L 1291.4145 728.094078 
L 1292.616 727.389117 
L 1293.8175 728.694635 
L 1295.019 729.101579 
L 1296.2205 729.325628 
L 1297.422 730.589369 
L 1299.825 728.99661 
L 1301.0265 726.93524 
L 1302.228 725.316483 
L 1304.631 725.766076 
L 1305.8325 726.886724 
L 1307.034 726.905325 
L 1308.2355 727.696953 
L 1309.437 728.885872 
L 1310.6385 727.477464 
L 1311.84 726.896825 
L 1313.0415 727.229372 
L 1314.243 727.855341 
L 1315.4445 728.309419 
L 1316.646 728.359258 
L 1317.8475 728.922315 
L 1319.049 728.652783 
L 1320.2505 729.073852 
L 1321.452 730.0786 
L 1322.6535 729.46259 
L 1323.855 729.302169 
L 1325.0565 729.613638 
L 1326.258 730.276957 
L 1327.4595 730.78865 
L 1328.661 729.750437 
L 1329.8625 729.031066 
L 1331.064 729.306559 
L 1332.2655 729.40326 
L 1333.467 729.98284 
L 1334.6685 730.228213 
L 1335.87 729.164543 
L 1337.0715 730.060227 
L 1338.273 731.09458 
L 1339.4745 730.361941 
L 1340.676 729.799564 
L 1343.079 729.244667 
L 1344.2805 729.387633 
L 1345.482 727.840315 
L 1346.6835 727.375978 
L 1347.885 728.955965 
L 1349.0865 728.632075 
L 1350.288 729.244984 
L 1351.4895 727.938655 
L 1352.691 728.422152 
L 1353.8925 728.152252 
L 1355.094 728.746037 
L 1356.2955 729.066129 
L 1357.497 730.355056 
L 1358.6985 729.797963 
L 1358.6985 729.797963 
" style="fill:none;stroke:#0000ff;stroke-linecap:square;stroke-width:2.0;"/>
   </g>
   <g id="line2d_2">
    <path clip-path="url(#p1ebc4b2702)" d="M 158.4 131.441212 
L 159.6015 133.406539 
L 160.803 135.353032 
L 162.0045 136.668843 
L 163.206 137.482058 
L 164.4075 138.983762 
L 165.609 141.135124 
L 169.2135 145.871961 
L 171.6165 149.39645 
L 172.818 150.615744 
L 175.221 154.266697 
L 177.624 157.024029 
L 178.8255 158.080312 
L 180.027 160.099576 
L 181.2285 161.432964 
L 182.43 162.339757 
L 183.6315 162.820325 
L 184.833 163.974303 
L 186.0345 164.520075 
L 187.236 167.250482 
L 188.4375 169.189403 
L 189.639 170.10166 
L 190.8405 171.673319 
L 193.2435 174.016196 
L 194.445 175.608204 
L 195.6465 176.637957 
L 196.848 177.864281 
L 198.0495 179.38518 
L 199.251 180.37435 
L 200.4525 181.58503 
L 201.654 181.489678 
L 204.057 184.886574 
L 205.2585 186.458866 
L 207.6615 188.875213 
L 208.863 190.225844 
L 210.0645 192.055481 
L 211.266 192.192042 
L 212.4675 192.971174 
L 216.072 197.638278 
L 217.2735 198.720813 
L 218.475 199.958207 
L 219.6765 201.40625 
L 220.878 203.355759 
L 222.0795 203.966938 
L 223.281 205.243873 
L 224.4825 206.122442 
L 225.684 207.465403 
L 226.8855 207.772885 
L 228.087 207.6272 
L 230.49 210.900563 
L 231.6915 210.288984 
L 232.893 211.542714 
L 234.0945 212.537634 
L 235.296 213.883419 
L 236.4975 215.707826 
L 237.699 216.327504 
L 238.9005 218.824491 
L 240.102 219.053413 
L 241.3035 220.493249 
L 242.505 222.109297 
L 243.7065 223.326736 
L 244.908 224.818575 
L 246.1095 226.068402 
L 247.311 228.006381 
L 248.5125 229.565563 
L 250.9155 232.338737 
L 253.3185 235.172243 
L 254.52 237.395849 
L 255.7215 238.495019 
L 256.923 240.116084 
L 258.1245 241.373215 
L 259.326 243.041815 
L 260.5275 244.399019 
L 261.729 246.113284 
L 262.9305 247.39462 
L 264.132 248.510842 
L 265.3335 249.418776 
L 266.535 250.892331 
L 267.7365 252.184014 
L 268.938 252.901474 
L 270.1395 254.794942 
L 271.341 255.576302 
L 272.5425 257.715488 
L 273.744 258.539422 
L 274.9455 259.785003 
L 276.147 261.203691 
L 277.3485 263.120901 
L 278.55 263.774759 
L 279.7515 265.937071 
L 280.953 266.528833 
L 283.356 268.412817 
L 284.5575 269.972192 
L 285.759 270.780906 
L 288.162 273.159392 
L 289.3635 274.092006 
L 290.565 275.456226 
L 291.7665 276.402407 
L 292.968 276.396249 
L 295.371 280.466974 
L 296.5725 282.154357 
L 297.774 283.12811 
L 298.9755 283.886874 
L 300.177 285.162158 
L 301.3785 286.643676 
L 302.58 287.689981 
L 303.7815 288.452367 
L 306.1845 291.149458 
L 308.5875 294.481775 
L 309.789 294.964618 
L 310.9905 297.133891 
L 312.192 297.789914 
L 313.3935 299.18758 
L 314.595 301.108944 
L 315.7965 302.482554 
L 318.1995 305.96297 
L 319.401 306.999584 
L 321.804 310.27272 
L 323.0055 311.358135 
L 324.207 312.891119 
L 325.4085 314.628207 
L 326.61 316.106529 
L 327.8115 317.40481 
L 329.013 319.109611 
L 330.2145 318.137128 
L 331.416 319.503564 
L 332.6175 321.63688 
L 335.0205 324.484919 
L 339.8265 329.297425 
L 341.028 330.396906 
L 343.431 333.480598 
L 344.6325 334.850897 
L 345.834 335.92235 
L 347.0355 337.447326 
L 348.237 339.163298 
L 351.8415 343.652524 
L 353.043 344.116003 
L 354.2445 345.306453 
L 355.446 346.712209 
L 356.6475 347.652226 
L 357.849 349.671686 
L 359.0505 350.382204 
L 360.252 352.022003 
L 361.4535 352.771285 
L 362.655 353.930504 
L 365.058 357.221117 
L 366.2595 359.204512 
L 367.461 360.522638 
L 369.864 362.772284 
L 372.267 365.073371 
L 373.4685 366.73497 
L 374.67 367.582021 
L 375.8715 368.665773 
L 377.073 369.494857 
L 378.2745 371.143376 
L 379.476 371.820375 
L 380.6775 374.11649 
L 381.879 374.907617 
L 383.0805 376.331759 
L 384.282 378.017422 
L 385.4835 378.847763 
L 386.685 379.964017 
L 387.8865 380.642034 
L 391.491 384.664468 
L 392.6925 385.946815 
L 395.0955 387.858716 
L 396.297 389.070006 
L 397.4985 390.626686 
L 398.7 392.443692 
L 399.9015 393.822352 
L 401.103 394.699702 
L 402.3045 396.238238 
L 403.506 397.087387 
L 404.7075 397.753051 
L 405.909 398.810784 
L 407.1105 401.017093 
L 408.312 402.896682 
L 409.5135 404.35255 
L 410.715 405.397098 
L 411.9165 406.246953 
L 413.118 407.943526 
L 414.3195 409.045355 
L 415.521 410.390625 
L 416.7225 412.599966 
L 420.327 416.705719 
L 421.5285 418.726668 
L 422.73 419.7054 
L 423.9315 420.279517 
L 425.133 421.172484 
L 426.3345 422.993618 
L 428.7375 425.903389 
L 431.1405 427.499869 
L 433.5435 430.404854 
L 434.745 432.334488 
L 435.9465 433.174927 
L 437.148 434.173533 
L 438.3495 434.735734 
L 439.551 435.877498 
L 440.7525 437.232665 
L 441.954 438.803017 
L 443.1555 440.562017 
L 444.357 442.100031 
L 445.5585 443.861778 
L 446.76 444.59911 
L 447.9615 445.588377 
L 449.163 447.270936 
L 450.3645 449.758614 
L 451.566 451.105991 
L 452.7675 452.669624 
L 453.969 454.87394 
L 455.1705 455.755607 
L 456.372 457.069727 
L 457.5735 458.054599 
L 458.775 459.469136 
L 459.9765 460.534353 
L 462.3795 461.505954 
L 463.581 463.126471 
L 465.984 465.828495 
L 467.1855 467.983196 
L 468.387 469.415893 
L 469.5885 471.136708 
L 470.79 471.905209 
L 473.193 474.534427 
L 474.3945 474.979091 
L 475.596 475.992765 
L 479.2005 479.943886 
L 480.402 481.104461 
L 481.6035 482.46338 
L 482.805 484.458208 
L 484.0065 485.643879 
L 485.208 487.112436 
L 486.4095 487.706053 
L 487.611 488.90673 
L 488.8125 491.611123 
L 491.2155 494.830224 
L 492.417 495.324971 
L 493.6185 496.822365 
L 494.82 497.526273 
L 496.0215 498.947512 
L 497.223 500.565648 
L 499.626 502.715446 
L 502.029 505.495001 
L 503.2305 507.199384 
L 504.432 508.644604 
L 506.835 511.170355 
L 508.0365 512.616122 
L 509.238 514.328422 
L 510.4395 515.755612 
L 511.641 516.689053 
L 512.8425 517.782611 
L 514.044 519.39899 
L 515.2455 520.329666 
L 517.6485 524.309186 
L 518.85 525.260218 
L 520.0515 526.42485 
L 521.253 528.333017 
L 522.4545 529.005278 
L 523.656 530.032776 
L 524.8575 532.023024 
L 526.059 533.53436 
L 528.462 535.753417 
L 529.6635 537.657114 
L 530.865 539.853262 
L 532.0665 541.146876 
L 534.4695 542.952238 
L 536.8725 545.347022 
L 538.074 546.400333 
L 539.2755 548.882378 
L 540.477 550.215356 
L 542.88 553.069528 
L 545.283 556.127688 
L 550.089 562.100885 
L 551.2905 564.419936 
L 552.492 565.196329 
L 554.895 568.534717 
L 556.0965 569.149143 
L 557.298 571.0643 
L 558.4995 572.314398 
L 559.701 573.320395 
L 562.104 574.938305 
L 565.7085 578.642095 
L 568.1115 582.347552 
L 569.313 583.471751 
L 570.5145 584.014438 
L 571.716 585.69482 
L 572.9175 586.979217 
L 575.3205 590.036143 
L 576.522 590.909095 
L 577.7235 592.810865 
L 580.1265 595.529062 
L 581.328 596.389008 
L 582.5295 597.621408 
L 583.731 600.718179 
L 586.134 603.966796 
L 587.3355 604.341278 
L 588.537 605.918221 
L 589.7385 606.994544 
L 590.94 606.828991 
L 592.1415 608.340566 
L 593.343 610.359027 
L 594.5445 612.053001 
L 596.9475 613.130104 
L 598.149 614.118873 
L 600.552 617.178652 
L 601.7535 617.754087 
L 602.955 619.563279 
L 604.1565 621.640977 
L 605.358 623.004184 
L 607.761 624.69804 
L 611.3655 628.613195 
L 612.567 630.30221 
L 613.7685 631.174681 
L 614.97 633.437861 
L 616.1715 633.822884 
L 617.373 634.438963 
L 618.5745 635.856274 
L 619.776 637.069529 
L 620.9775 637.30596 
L 622.179 638.499328 
L 623.3805 639.402082 
L 624.582 639.593435 
L 626.985 642.050658 
L 628.1865 643.695778 
L 629.388 645.75736 
L 639 655.77569 
L 640.2015 656.804239 
L 643.806 663.414521 
L 645.0075 664.164302 
L 646.209 666.184954 
L 647.4105 666.996855 
L 648.612 668.932597 
L 649.8135 669.937122 
L 651.015 671.779332 
L 652.2165 673.110208 
L 653.418 673.744378 
L 655.821 676.880614 
L 657.0225 677.633054 
L 658.224 678.672599 
L 659.4255 679.294764 
L 661.8285 682.358503 
L 664.2315 686.798783 
L 666.6345 689.891123 
L 667.836 690.728285 
L 669.0375 691.888622 
L 670.239 693.836915 
L 671.4405 695.467799 
L 672.642 696.597636 
L 673.8435 697.505592 
L 675.045 698.894 
L 676.2465 699.911256 
L 677.448 701.376612 
L 678.6495 702.528665 
L 682.254 706.771956 
L 683.4555 708.00466 
L 684.657 708.851155 
L 685.8585 710.272946 
L 687.06 711.415794 
L 688.2615 712.90324 
L 689.463 714.63781 
L 690.6645 715.313562 
L 691.866 716.760601 
L 693.0675 718.477707 
L 694.269 719.401682 
L 695.4705 720.006197 
L 696.672 719.864559 
L 699.075 721.230452 
L 700.2765 722.535012 
L 702.6795 723.936622 
L 703.881 725.043341 
L 705.0825 725.271362 
L 706.284 726.564871 
L 707.4855 726.650741 
L 708.687 726.617156 
L 709.8885 727.380885 
L 711.09 728.436357 
L 712.2915 728.227625 
L 713.493 727.607066 
L 714.6945 726.615506 
L 715.896 726.686029 
L 718.299 727.665391 
L 719.5005 727.098684 
L 720.702 727.571906 
L 721.9035 728.835771 
L 723.105 729.0972 
L 724.3065 729.935672 
L 725.508 730.397316 
L 727.911 729.494856 
L 729.1125 729.713726 
L 730.314 730.490377 
L 731.5155 730.147969 
L 732.717 730.451376 
L 733.9185 729.542286 
L 735.12 729.980246 
L 736.3215 729.609472 
L 737.523 728.767288 
L 738.7245 729.138242 
L 739.926 728.888669 
L 741.1275 730.333418 
L 742.329 729.732933 
L 743.5305 730.043492 
L 745.9335 728.932669 
L 747.135 729.283206 
L 748.3365 728.680484 
L 749.538 729.807941 
L 750.7395 730.019066 
L 751.941 729.993971 
L 754.344 730.121828 
L 755.5455 730.628106 
L 756.747 730.752551 
L 757.9485 730.685834 
L 759.15 729.819926 
L 760.3515 729.771633 
L 761.553 729.390006 
L 762.7545 728.839659 
L 763.956 729.398782 
L 765.1575 728.725985 
L 766.359 729.173976 
L 767.5605 728.458501 
L 768.762 730.215739 
L 769.9635 729.065285 
L 771.165 729.454755 
L 772.3665 728.594532 
L 773.568 728.073671 
L 774.7695 728.24098 
L 775.971 728.257458 
L 777.1725 727.842501 
L 778.374 728.859201 
L 779.5755 728.516917 
L 780.777 728.891703 
L 781.9785 729.022902 
L 783.18 729.038452 
L 784.3815 728.513419 
L 785.583 728.94299 
L 786.7845 728.929025 
L 789.1875 730.019419 
L 790.389 731.14458 
L 791.5905 729.774697 
L 792.792 728.967632 
L 793.9935 728.73791 
L 796.3965 727.80463 
L 797.598 728.608598 
L 798.7995 727.913651 
L 800.001 728.593521 
L 801.2025 728.834456 
L 802.404 727.505032 
L 803.6055 727.846105 
L 804.807 727.761412 
L 806.0085 728.1873 
L 807.21 728.20089 
L 808.4115 728.349827 
L 809.613 729.152112 
L 810.8145 728.578908 
L 812.016 728.638573 
L 813.2175 729.143417 
L 814.419 729.124601 
L 815.6205 729.223033 
L 816.822 729.182457 
L 818.0235 729.286028 
L 820.4265 728.372727 
L 821.628 729.99449 
L 822.8295 729.624977 
L 824.031 728.510202 
L 825.2325 728.718156 
L 826.434 726.585997 
L 827.6355 726.810515 
L 828.837 725.725772 
L 830.0385 726.590653 
L 831.24 727.752282 
L 832.4415 727.018883 
L 833.643 726.932271 
L 834.8445 727.637669 
L 836.046 726.706172 
L 837.2475 726.773351 
L 838.449 728.888258 
L 839.6505 728.418543 
L 840.852 728.535484 
L 843.255 728.147325 
L 844.4565 729.098803 
L 845.658 729.313781 
L 846.8595 728.543326 
L 848.061 727.94844 
L 849.2625 728.336638 
L 851.6655 729.554167 
L 855.27 727.823842 
L 856.4715 728.47966 
L 857.673 728.847334 
L 858.8745 728.198522 
L 861.2775 729.728207 
L 863.6805 730.176054 
L 864.882 730.493573 
L 866.0835 728.903035 
L 867.285 729.578875 
L 868.4865 728.515154 
L 869.688 729.842566 
L 870.8895 730.075253 
L 872.091 730.158861 
L 873.2925 730.788056 
L 874.494 730.218394 
L 875.6955 729.835131 
L 876.897 729.902524 
L 878.0985 729.502864 
L 879.3 729.744676 
L 880.5015 726.61782 
L 881.703 728.19772 
L 882.9045 728.787851 
L 884.106 727.50516 
L 885.3075 727.86812 
L 886.509 729.708157 
L 887.7105 730.07715 
L 888.912 730.054882 
L 890.1135 729.705504 
L 891.315 729.854062 
L 892.5165 729.66407 
L 893.718 729.960599 
L 894.9195 729.326496 
L 896.121 730.091576 
L 897.3225 730.000037 
L 899.7255 730.630271 
L 900.927 730.364303 
L 902.1285 730.500141 
L 903.33 730.219209 
L 904.5315 729.236978 
L 905.733 728.567735 
L 906.9345 728.947278 
L 908.136 729.87415 
L 909.3375 730.646198 
L 910.539 730.687437 
L 911.7405 729.548637 
L 912.942 729.862589 
L 914.1435 729.65568 
L 915.345 729.62917 
L 916.5465 728.871214 
L 918.9495 728.012591 
L 920.151 729.101388 
L 921.3525 728.417538 
L 922.554 728.422944 
L 923.7555 728.736504 
L 924.957 728.306767 
L 926.1585 728.14759 
L 927.36 727.829065 
L 928.5615 727.978182 
L 929.763 727.108458 
L 930.9645 727.397248 
L 932.166 727.848108 
L 933.3675 727.596986 
L 934.569 728.14446 
L 935.7705 727.481691 
L 936.972 727.99483 
L 938.1735 727.12163 
L 939.375 726.512728 
L 940.5765 727.05228 
L 941.778 728.060012 
L 942.9795 728.749415 
L 944.181 729.131447 
L 945.3825 728.347765 
L 946.584 729.144564 
L 947.7855 728.944275 
L 948.987 728.098545 
L 950.1885 728.496139 
L 951.39 729.614396 
L 952.5915 728.814651 
L 953.793 728.574124 
L 954.9945 729.08731 
L 956.196 729.349216 
L 957.3975 728.768809 
L 958.599 729.259352 
L 961.002 729.502658 
L 963.405 732.04159 
L 964.6065 731.260338 
L 965.808 729.991051 
L 967.0095 729.384244 
L 968.211 728.986282 
L 969.4125 728.357211 
L 970.614 728.259712 
L 971.8155 728.695153 
L 973.017 728.34373 
L 974.2185 727.738052 
L 975.42 727.418748 
L 976.6215 727.862881 
L 977.823 727.405118 
L 979.0245 727.207453 
L 980.226 726.886968 
L 981.4275 727.655987 
L 982.629 728.13712 
L 983.8305 730.370331 
L 987.435 727.223268 
L 988.6365 727.177991 
L 989.838 727.925792 
L 991.0395 728.825693 
L 992.241 729.559862 
L 993.4425 730.115461 
L 994.644 729.229358 
L 995.8455 728.944527 
L 997.047 729.127532 
L 998.2485 728.8992 
L 999.45 728.476198 
L 1000.6515 728.773804 
L 1003.0545 728.638137 
L 1004.256 728.950639 
L 1006.659 729.231185 
L 1007.8605 728.803022 
L 1009.062 728.538512 
L 1010.2635 728.857949 
L 1011.465 726.592121 
L 1012.6665 727.375654 
L 1013.868 727.476438 
L 1015.0695 727.385172 
L 1016.271 727.472931 
L 1017.4725 727.269675 
L 1018.674 726.787315 
L 1019.8755 727.635417 
L 1021.077 727.820707 
L 1022.2785 728.756846 
L 1023.48 729.310073 
L 1024.6815 729.466213 
L 1025.883 729.03333 
L 1027.0845 729.529765 
L 1028.286 728.419239 
L 1029.4875 729.587444 
L 1030.689 728.333562 
L 1031.8905 729.040663 
L 1033.092 728.194162 
L 1035.495 728.317012 
L 1036.6965 728.563935 
L 1039.0995 728.279092 
L 1040.301 728.706197 
L 1041.5025 728.983566 
L 1042.704 728.679685 
L 1043.9055 728.631369 
L 1045.107 728.984295 
L 1047.51 730.070361 
L 1048.7115 729.364705 
L 1049.913 730.322327 
L 1051.1145 730.397842 
L 1052.316 730.733039 
L 1053.5175 729.614872 
L 1054.719 729.022935 
L 1055.9205 728.70149 
L 1057.122 729.676548 
L 1058.3235 729.215994 
L 1059.525 729.578608 
L 1060.7265 728.839052 
L 1061.928 727.451895 
L 1063.1295 728.268999 
L 1064.331 728.367767 
L 1065.5325 728.750496 
L 1066.734 727.827306 
L 1067.9355 727.76265 
L 1069.137 726.862483 
L 1070.3385 727.934997 
L 1071.54 728.023496 
L 1073.943 727.878292 
L 1075.1445 729.232298 
L 1076.346 728.065037 
L 1077.5475 727.994613 
L 1078.749 728.956671 
L 1079.9505 728.586011 
L 1082.3535 728.862225 
L 1083.555 728.668692 
L 1084.7565 728.206193 
L 1085.958 727.042461 
L 1087.1595 727.356898 
L 1088.361 727.856228 
L 1089.5625 727.791016 
L 1090.764 728.521652 
L 1091.9655 728.852064 
L 1093.167 728.032669 
L 1094.3685 728.579769 
L 1095.57 728.13241 
L 1097.973 727.958026 
L 1099.1745 727.673917 
L 1100.376 727.710704 
L 1101.5775 728.27421 
L 1102.779 728.435637 
L 1103.9805 728.901429 
L 1105.182 728.623217 
L 1106.3835 727.907006 
L 1107.585 728.849172 
L 1109.988 727.620906 
L 1112.391 728.169106 
L 1113.5925 727.880702 
L 1114.794 727.929044 
L 1117.197 729.085089 
L 1119.6 728.535405 
L 1120.8015 728.461284 
L 1122.003 728.810718 
L 1123.2045 727.637324 
L 1124.406 728.593661 
L 1125.6075 728.57901 
L 1126.809 729.387704 
L 1128.0105 729.413174 
L 1129.212 729.111127 
L 1130.4135 729.067374 
L 1131.615 729.758467 
L 1134.018 730.178387 
L 1135.2195 729.602966 
L 1136.421 729.711481 
L 1137.6225 729.633376 
L 1138.824 730.585733 
L 1140.0255 730.087263 
L 1141.227 729.741161 
L 1142.4285 729.526514 
L 1143.63 727.98295 
L 1144.8315 727.166953 
L 1147.2345 727.03741 
L 1148.436 727.7416 
L 1149.6375 728.757401 
L 1150.839 729.393236 
L 1152.0405 727.615742 
L 1153.242 727.725181 
L 1154.4435 727.381085 
L 1155.645 728.198288 
L 1156.8465 727.580049 
L 1158.048 728.858793 
L 1159.2495 728.834515 
L 1160.451 729.009911 
L 1161.6525 729.751133 
L 1162.854 730.882829 
L 1164.0555 729.107696 
L 1165.257 729.305034 
L 1166.4585 729.031196 
L 1167.66 728.621654 
L 1168.8615 729.96829 
L 1171.2645 729.355874 
L 1172.466 729.28436 
L 1173.6675 729.414411 
L 1174.869 729.718302 
L 1176.0705 730.307223 
L 1177.272 729.634256 
L 1179.675 730.66503 
L 1180.8765 730.544242 
L 1182.078 729.993409 
L 1184.481 729.33379 
L 1185.6825 729.274914 
L 1188.0855 728.772739 
L 1189.287 728.756728 
L 1190.4885 728.905672 
L 1191.69 729.349319 
L 1192.8915 729.413889 
L 1194.093 728.233589 
L 1195.2945 728.136627 
L 1196.496 728.788563 
L 1197.6975 729.00152 
L 1198.899 728.99181 
L 1200.1005 727.722766 
L 1201.302 729.521641 
L 1202.5035 729.463042 
L 1203.705 729.908566 
L 1204.9065 729.21074 
L 1206.108 728.282413 
L 1207.3095 728.067046 
L 1208.511 726.469921 
L 1210.914 727.705456 
L 1212.1155 727.634236 
L 1213.317 727.784957 
L 1214.5185 728.145564 
L 1215.72 728.115247 
L 1216.9215 728.737806 
L 1218.123 728.493056 
L 1219.3245 728.564436 
L 1220.526 729.341653 
L 1221.7275 727.783158 
L 1222.929 728.125825 
L 1224.1305 728.249247 
L 1225.332 727.45963 
L 1226.5335 727.642391 
L 1227.735 728.159288 
L 1228.9365 728.232969 
L 1230.138 727.862524 
L 1231.3395 729.180233 
L 1232.541 727.872781 
L 1233.7425 728.592345 
L 1234.944 729.153916 
L 1236.1455 728.595653 
L 1237.347 728.568076 
L 1238.5485 728.950181 
L 1239.75 728.786178 
L 1240.9515 729.323718 
L 1242.153 728.936058 
L 1243.3545 729.423366 
L 1244.556 728.036348 
L 1245.7575 728.880024 
L 1248.1605 728.491146 
L 1249.362 728.873958 
L 1250.5635 728.82268 
L 1251.765 729.191609 
L 1254.168 729.13918 
L 1255.3695 727.815168 
L 1256.571 726.929899 
L 1257.7725 727.418846 
L 1258.974 728.170228 
L 1261.377 728.864149 
L 1263.78 728.416576 
L 1264.9815 728.6623 
L 1266.183 728.0118 
L 1267.3845 729.397924 
L 1268.586 729.88273 
L 1269.7875 729.758154 
L 1272.1905 729.998681 
L 1273.392 729.820214 
L 1274.5935 729.800342 
L 1275.795 729.579674 
L 1276.9965 729.100373 
L 1278.198 728.201843 
L 1279.3995 728.131231 
L 1280.601 729.335294 
L 1281.8025 729.492998 
L 1283.004 728.788757 
L 1284.2055 728.934206 
L 1285.407 728.92543 
L 1286.6085 728.177584 
L 1287.81 728.086147 
L 1289.0115 728.106879 
L 1290.213 728.336347 
L 1291.4145 729.086682 
L 1293.8175 728.172126 
L 1296.2205 727.886987 
L 1297.422 727.187497 
L 1298.6235 728.23632 
L 1299.825 729.095213 
L 1301.0265 729.521762 
L 1302.228 729.455014 
L 1303.4295 728.432135 
L 1304.631 727.725536 
L 1305.8325 727.172715 
L 1307.034 728.33013 
L 1308.2355 728.461281 
L 1309.437 727.89395 
L 1310.6385 728.669861 
L 1311.84 728.576276 
L 1313.0415 728.100937 
L 1314.243 728.130618 
L 1315.4445 727.678048 
L 1316.646 729.640323 
L 1317.8475 728.932731 
L 1319.049 728.907817 
L 1320.2505 730.097813 
L 1321.452 730.024768 
L 1322.6535 729.757657 
L 1323.855 728.734014 
L 1325.0565 728.978488 
L 1326.258 729.466021 
L 1327.4595 727.96342 
L 1329.8625 727.075675 
L 1331.064 727.732827 
L 1332.2655 728.705794 
L 1333.467 729.379331 
L 1334.6685 729.580433 
L 1335.87 729.420714 
L 1337.0715 729.652421 
L 1338.273 728.936581 
L 1340.676 730.264942 
L 1341.8775 729.402507 
L 1343.079 729.752293 
L 1345.482 729.793129 
L 1346.6835 729.175556 
L 1347.885 728.366665 
L 1349.0865 727.364634 
L 1350.288 729.058904 
L 1351.4895 728.812698 
L 1352.691 727.121767 
L 1353.8925 728.435525 
L 1355.094 724.936748 
L 1356.2955 725.106486 
L 1357.497 724.970686 
L 1358.6985 725.027999 
L 1358.6985 725.027999 
" style="fill:none;stroke:#008000;stroke-linecap:square;stroke-width:2.0;"/>
   </g>
   <g id="patch_3">
    <path d="M 158.4 51.3 
L 1359.9 51.3 
" style="fill:none;stroke:#000000;stroke-linecap:square;stroke-linejoin:miter;"/>
   </g>
   <g id="patch_4">
    <path d="M 1359.9 747 
L 1359.9 51.3 
" style="fill:none;stroke:#000000;stroke-linecap:square;stroke-linejoin:miter;"/>
   </g>
   <g id="patch_5">
    <path d="M 158.4 747 
L 1359.9 747 
" style="fill:none;stroke:#000000;stroke-linecap:square;stroke-linejoin:miter;"/>
   </g>
   <g id="patch_6">
    <path d="M 158.4 747 
L 158.4 51.3 
" style="fill:none;stroke:#000000;stroke-linecap:square;stroke-linejoin:miter;"/>
   </g>
   <g id="matplotlib.axis_1">
    <g id="xtick_1">
     <g id="line2d_3">
      <defs>
       <path d="M 0 0 
L 0 -4 
" id="mdfa05fc0de" style="stroke:#000000;stroke-width:0.5;"/>
      </defs>
      <g>
       <use style="stroke:#000000;stroke-width:0.5;" x="158.4" xlink:href="#mdfa05fc0de" y="747.0"/>
      </g>
     </g>
     <g id="line2d_4">
      <defs>
       <path d="M 0 0 
L 0 4 
" id="mda476a3e58" style="stroke:#000000;stroke-width:0.5;"/>
      </defs>
      <g>
       <use style="stroke:#000000;stroke-width:0.5;" x="158.4" xlink:href="#mda476a3e58" y="51.3"/>
      </g>
     </g>
     <g id="text_1">
      <!-- 0 -->
      <defs>
       <path d="M 31.78125 66.40625 
Q 24.171875 66.40625 20.328125 58.90625 
Q 16.5 51.421875 16.5 36.375 
Q 16.5 21.390625 20.328125 13.890625 
Q 24.171875 6.390625 31.78125 6.390625 
Q 39.453125 6.390625 43.28125 13.890625 
Q 47.125 21.390625 47.125 36.375 
Q 47.125 51.421875 43.28125 58.90625 
Q 39.453125 66.40625 31.78125 66.40625 
M 31.78125 74.21875 
Q 44.046875 74.21875 50.515625 64.515625 
Q 56.984375 54.828125 56.984375 36.375 
Q 56.984375 17.96875 50.515625 8.265625 
Q 44.046875 -1.421875 31.78125 -1.421875 
Q 19.53125 -1.421875 13.0625 8.265625 
Q 6.59375 17.96875 6.59375 36.375 
Q 6.59375 54.828125 13.0625 64.515625 
Q 19.53125 74.21875 31.78125 74.21875 
" id="BitstreamVeraSans-Roman-30"/>
      </defs>
      <g transform="translate(148.85625 773.7953125)scale(0.3 -0.3)">
       <use xlink:href="#BitstreamVeraSans-Roman-30"/>
      </g>
     </g>
    </g>
    <g id="xtick_2">
     <g id="line2d_5">
      <g>
       <use style="stroke:#000000;stroke-width:0.5;" x="398.7" xlink:href="#mdfa05fc0de" y="747.0"/>
      </g>
     </g>
     <g id="line2d_6">
      <g>
       <use style="stroke:#000000;stroke-width:0.5;" x="398.7" xlink:href="#mda476a3e58" y="51.3"/>
      </g>
     </g>
     <g id="text_2">
      <!-- 200 -->
      <defs>
       <path d="M 19.1875 8.296875 
L 53.609375 8.296875 
L 53.609375 0 
L 7.328125 0 
L 7.328125 8.296875 
Q 12.9375 14.109375 22.625 23.890625 
Q 32.328125 33.6875 34.8125 36.53125 
Q 39.546875 41.84375 41.421875 45.53125 
Q 43.3125 49.21875 43.3125 52.78125 
Q 43.3125 58.59375 39.234375 62.25 
Q 35.15625 65.921875 28.609375 65.921875 
Q 23.96875 65.921875 18.8125 64.3125 
Q 13.671875 62.703125 7.8125 59.421875 
L 7.8125 69.390625 
Q 13.765625 71.78125 18.9375 73 
Q 24.125 74.21875 28.421875 74.21875 
Q 39.75 74.21875 46.484375 68.546875 
Q 53.21875 62.890625 53.21875 53.421875 
Q 53.21875 48.921875 51.53125 44.890625 
Q 49.859375 40.875 45.40625 35.40625 
Q 44.1875 33.984375 37.640625 27.21875 
Q 31.109375 20.453125 19.1875 8.296875 
" id="BitstreamVeraSans-Roman-32"/>
      </defs>
      <g transform="translate(370.06875 773.7953125)scale(0.3 -0.3)">
       <use xlink:href="#BitstreamVeraSans-Roman-32"/>
       <use x="63.623046875" xlink:href="#BitstreamVeraSans-Roman-30"/>
       <use x="127.24609375" xlink:href="#BitstreamVeraSans-Roman-30"/>
      </g>
     </g>
    </g>
    <g id="xtick_3">
     <g id="line2d_7">
      <g>
       <use style="stroke:#000000;stroke-width:0.5;" x="639.0" xlink:href="#mdfa05fc0de" y="747.0"/>
      </g>
     </g>
     <g id="line2d_8">
      <g>
       <use style="stroke:#000000;stroke-width:0.5;" x="639.0" xlink:href="#mda476a3e58" y="51.3"/>
      </g>
     </g>
     <g id="text_3">
      <!-- 400 -->
      <defs>
       <path d="M 37.796875 64.3125 
L 12.890625 25.390625 
L 37.796875 25.390625 
z
M 35.203125 72.90625 
L 47.609375 72.90625 
L 47.609375 25.390625 
L 58.015625 25.390625 
L 58.015625 17.1875 
L 47.609375 17.1875 
L 47.609375 0 
L 37.796875 0 
L 37.796875 17.1875 
L 4.890625 17.1875 
L 4.890625 26.703125 
z
" id="BitstreamVeraSans-Roman-34"/>
      </defs>
      <g transform="translate(610.36875 773.7953125)scale(0.3 -0.3)">
       <use xlink:href="#BitstreamVeraSans-Roman-34"/>
       <use x="63.623046875" xlink:href="#BitstreamVeraSans-Roman-30"/>
       <use x="127.24609375" xlink:href="#BitstreamVeraSans-Roman-30"/>
      </g>
     </g>
    </g>
    <g id="xtick_4">
     <g id="line2d_9">
      <g>
       <use style="stroke:#000000;stroke-width:0.5;" x="879.3" xlink:href="#mdfa05fc0de" y="747.0"/>
      </g>
     </g>
     <g id="line2d_10">
      <g>
       <use style="stroke:#000000;stroke-width:0.5;" x="879.3" xlink:href="#mda476a3e58" y="51.3"/>
      </g>
     </g>
     <g id="text_4">
      <!-- 600 -->
      <defs>
       <path d="M 33.015625 40.375 
Q 26.375 40.375 22.484375 35.828125 
Q 18.609375 31.296875 18.609375 23.390625 
Q 18.609375 15.53125 22.484375 10.953125 
Q 26.375 6.390625 33.015625 6.390625 
Q 39.65625 6.390625 43.53125 10.953125 
Q 47.40625 15.53125 47.40625 23.390625 
Q 47.40625 31.296875 43.53125 35.828125 
Q 39.65625 40.375 33.015625 40.375 
M 52.59375 71.296875 
L 52.59375 62.3125 
Q 48.875 64.0625 45.09375 64.984375 
Q 41.3125 65.921875 37.59375 65.921875 
Q 27.828125 65.921875 22.671875 59.328125 
Q 17.53125 52.734375 16.796875 39.40625 
Q 19.671875 43.65625 24.015625 45.921875 
Q 28.375 48.1875 33.59375 48.1875 
Q 44.578125 48.1875 50.953125 41.515625 
Q 57.328125 34.859375 57.328125 23.390625 
Q 57.328125 12.15625 50.6875 5.359375 
Q 44.046875 -1.421875 33.015625 -1.421875 
Q 20.359375 -1.421875 13.671875 8.265625 
Q 6.984375 17.96875 6.984375 36.375 
Q 6.984375 53.65625 15.1875 63.9375 
Q 23.390625 74.21875 37.203125 74.21875 
Q 40.921875 74.21875 44.703125 73.484375 
Q 48.484375 72.75 52.59375 71.296875 
" id="BitstreamVeraSans-Roman-36"/>
      </defs>
      <g transform="translate(850.66875 773.7953125)scale(0.3 -0.3)">
       <use xlink:href="#BitstreamVeraSans-Roman-36"/>
       <use x="63.623046875" xlink:href="#BitstreamVeraSans-Roman-30"/>
       <use x="127.24609375" xlink:href="#BitstreamVeraSans-Roman-30"/>
      </g>
     </g>
    </g>
    <g id="xtick_5">
     <g id="line2d_11">
      <g>
       <use style="stroke:#000000;stroke-width:0.5;" x="1119.6" xlink:href="#mdfa05fc0de" y="747.0"/>
      </g>
     </g>
     <g id="line2d_12">
      <g>
       <use style="stroke:#000000;stroke-width:0.5;" x="1119.6" xlink:href="#mda476a3e58" y="51.3"/>
      </g>
     </g>
     <g id="text_5">
      <!-- 800 -->
      <defs>
       <path d="M 31.78125 34.625 
Q 24.75 34.625 20.71875 30.859375 
Q 16.703125 27.09375 16.703125 20.515625 
Q 16.703125 13.921875 20.71875 10.15625 
Q 24.75 6.390625 31.78125 6.390625 
Q 38.8125 6.390625 42.859375 10.171875 
Q 46.921875 13.96875 46.921875 20.515625 
Q 46.921875 27.09375 42.890625 30.859375 
Q 38.875 34.625 31.78125 34.625 
M 21.921875 38.8125 
Q 15.578125 40.375 12.03125 44.71875 
Q 8.5 49.078125 8.5 55.328125 
Q 8.5 64.0625 14.71875 69.140625 
Q 20.953125 74.21875 31.78125 74.21875 
Q 42.671875 74.21875 48.875 69.140625 
Q 55.078125 64.0625 55.078125 55.328125 
Q 55.078125 49.078125 51.53125 44.71875 
Q 48 40.375 41.703125 38.8125 
Q 48.828125 37.15625 52.796875 32.3125 
Q 56.78125 27.484375 56.78125 20.515625 
Q 56.78125 9.90625 50.3125 4.234375 
Q 43.84375 -1.421875 31.78125 -1.421875 
Q 19.734375 -1.421875 13.25 4.234375 
Q 6.78125 9.90625 6.78125 20.515625 
Q 6.78125 27.484375 10.78125 32.3125 
Q 14.796875 37.15625 21.921875 38.8125 
M 18.3125 54.390625 
Q 18.3125 48.734375 21.84375 45.5625 
Q 25.390625 42.390625 31.78125 42.390625 
Q 38.140625 42.390625 41.71875 45.5625 
Q 45.3125 48.734375 45.3125 54.390625 
Q 45.3125 60.0625 41.71875 63.234375 
Q 38.140625 66.40625 31.78125 66.40625 
Q 25.390625 66.40625 21.84375 63.234375 
Q 18.3125 60.0625 18.3125 54.390625 
" id="BitstreamVeraSans-Roman-38"/>
      </defs>
      <g transform="translate(1090.96875 773.7953125)scale(0.3 -0.3)">
       <use xlink:href="#BitstreamVeraSans-Roman-38"/>
       <use x="63.623046875" xlink:href="#BitstreamVeraSans-Roman-30"/>
       <use x="127.24609375" xlink:href="#BitstreamVeraSans-Roman-30"/>
      </g>
     </g>
    </g>
    <g id="xtick_6">
     <g id="line2d_13">
      <g>
       <use style="stroke:#000000;stroke-width:0.5;" x="1359.9" xlink:href="#mdfa05fc0de" y="747.0"/>
      </g>
     </g>
     <g id="line2d_14">
      <g>
       <use style="stroke:#000000;stroke-width:0.5;" x="1359.9" xlink:href="#mda476a3e58" y="51.3"/>
      </g>
     </g>
     <g id="text_6">
      <!-- 1000 -->
      <defs>
       <path d="M 12.40625 8.296875 
L 28.515625 8.296875 
L 28.515625 63.921875 
L 10.984375 60.40625 
L 10.984375 69.390625 
L 28.421875 72.90625 
L 38.28125 72.90625 
L 38.28125 8.296875 
L 54.390625 8.296875 
L 54.390625 0 
L 12.40625 0 
z
" id="BitstreamVeraSans-Roman-31"/>
      </defs>
      <g transform="translate(1321.725 773.7953125)scale(0.3 -0.3)">
       <use xlink:href="#BitstreamVeraSans-Roman-31"/>
       <use x="63.623046875" xlink:href="#BitstreamVeraSans-Roman-30"/>
       <use x="127.24609375" xlink:href="#BitstreamVeraSans-Roman-30"/>
       <use x="190.869140625" xlink:href="#BitstreamVeraSans-Roman-30"/>
      </g>
     </g>
    </g>
    <g id="text_7">
     <!-- iterations -->
     <defs>
      <path d="M 54.890625 33.015625 
L 54.890625 0 
L 45.90625 0 
L 45.90625 32.71875 
Q 45.90625 40.484375 42.875 44.328125 
Q 39.84375 48.1875 33.796875 48.1875 
Q 26.515625 48.1875 22.3125 43.546875 
Q 18.109375 38.921875 18.109375 30.90625 
L 18.109375 0 
L 9.078125 0 
L 9.078125 54.6875 
L 18.109375 54.6875 
L 18.109375 46.1875 
Q 21.34375 51.125 25.703125 53.5625 
Q 30.078125 56 35.796875 56 
Q 45.21875 56 50.046875 50.171875 
Q 54.890625 44.34375 54.890625 33.015625 
" id="BitstreamVeraSans-Roman-6e"/>
      <path d="M 34.28125 27.484375 
Q 23.390625 27.484375 19.1875 25 
Q 14.984375 22.515625 14.984375 16.5 
Q 14.984375 11.71875 18.140625 8.90625 
Q 21.296875 6.109375 26.703125 6.109375 
Q 34.1875 6.109375 38.703125 11.40625 
Q 43.21875 16.703125 43.21875 25.484375 
L 43.21875 27.484375 
z
M 52.203125 31.203125 
L 52.203125 0 
L 43.21875 0 
L 43.21875 8.296875 
Q 40.140625 3.328125 35.546875 0.953125 
Q 30.953125 -1.421875 24.3125 -1.421875 
Q 15.921875 -1.421875 10.953125 3.296875 
Q 6 8.015625 6 15.921875 
Q 6 25.140625 12.171875 29.828125 
Q 18.359375 34.515625 30.609375 34.515625 
L 43.21875 34.515625 
L 43.21875 35.40625 
Q 43.21875 41.609375 39.140625 45 
Q 35.0625 48.390625 27.6875 48.390625 
Q 23 48.390625 18.546875 47.265625 
Q 14.109375 46.140625 10.015625 43.890625 
L 10.015625 52.203125 
Q 14.9375 54.109375 19.578125 55.046875 
Q 24.21875 56 28.609375 56 
Q 40.484375 56 46.34375 49.84375 
Q 52.203125 43.703125 52.203125 31.203125 
" id="BitstreamVeraSans-Roman-61"/>
      <path d="M 30.609375 48.390625 
Q 23.390625 48.390625 19.1875 42.75 
Q 14.984375 37.109375 14.984375 27.296875 
Q 14.984375 17.484375 19.15625 11.84375 
Q 23.34375 6.203125 30.609375 6.203125 
Q 37.796875 6.203125 41.984375 11.859375 
Q 46.1875 17.53125 46.1875 27.296875 
Q 46.1875 37.015625 41.984375 42.703125 
Q 37.796875 48.390625 30.609375 48.390625 
M 30.609375 56 
Q 42.328125 56 49.015625 48.375 
Q 55.71875 40.765625 55.71875 27.296875 
Q 55.71875 13.875 49.015625 6.21875 
Q 42.328125 -1.421875 30.609375 -1.421875 
Q 18.84375 -1.421875 12.171875 6.21875 
Q 5.515625 13.875 5.515625 27.296875 
Q 5.515625 40.765625 12.171875 48.375 
Q 18.84375 56 30.609375 56 
" id="BitstreamVeraSans-Roman-6f"/>
      <path d="M 9.421875 54.6875 
L 18.40625 54.6875 
L 18.40625 0 
L 9.421875 0 
z
M 9.421875 75.984375 
L 18.40625 75.984375 
L 18.40625 64.59375 
L 9.421875 64.59375 
z
" id="BitstreamVeraSans-Roman-69"/>
      <path d="M 56.203125 29.59375 
L 56.203125 25.203125 
L 14.890625 25.203125 
Q 15.484375 15.921875 20.484375 11.0625 
Q 25.484375 6.203125 34.421875 6.203125 
Q 39.59375 6.203125 44.453125 7.46875 
Q 49.3125 8.734375 54.109375 11.28125 
L 54.109375 2.78125 
Q 49.265625 0.734375 44.1875 -0.34375 
Q 39.109375 -1.421875 33.890625 -1.421875 
Q 20.796875 -1.421875 13.15625 6.1875 
Q 5.515625 13.8125 5.515625 26.8125 
Q 5.515625 40.234375 12.765625 48.109375 
Q 20.015625 56 32.328125 56 
Q 43.359375 56 49.78125 48.890625 
Q 56.203125 41.796875 56.203125 29.59375 
M 47.21875 32.234375 
Q 47.125 39.59375 43.09375 43.984375 
Q 39.0625 48.390625 32.421875 48.390625 
Q 24.90625 48.390625 20.390625 44.140625 
Q 15.875 39.890625 15.1875 32.171875 
z
" id="BitstreamVeraSans-Roman-65"/>
      <path d="M 18.3125 70.21875 
L 18.3125 54.6875 
L 36.8125 54.6875 
L 36.8125 47.703125 
L 18.3125 47.703125 
L 18.3125 18.015625 
Q 18.3125 11.328125 20.140625 9.421875 
Q 21.96875 7.515625 27.59375 7.515625 
L 36.8125 7.515625 
L 36.8125 0 
L 27.59375 0 
Q 17.1875 0 13.234375 3.875 
Q 9.28125 7.765625 9.28125 18.015625 
L 9.28125 47.703125 
L 2.6875 47.703125 
L 2.6875 54.6875 
L 9.28125 54.6875 
L 9.28125 70.21875 
z
" id="BitstreamVeraSans-Roman-74"/>
      <path d="M 41.109375 46.296875 
Q 39.59375 47.171875 37.8125 47.578125 
Q 36.03125 48 33.890625 48 
Q 26.265625 48 22.1875 43.046875 
Q 18.109375 38.09375 18.109375 28.8125 
L 18.109375 0 
L 9.078125 0 
L 9.078125 54.6875 
L 18.109375 54.6875 
L 18.109375 46.1875 
Q 20.953125 51.171875 25.484375 53.578125 
Q 30.03125 56 36.53125 56 
Q 37.453125 56 38.578125 55.875 
Q 39.703125 55.765625 41.0625 55.515625 
z
" id="BitstreamVeraSans-Roman-72"/>
      <path d="M 44.28125 53.078125 
L 44.28125 44.578125 
Q 40.484375 46.53125 36.375 47.5 
Q 32.28125 48.484375 27.875 48.484375 
Q 21.1875 48.484375 17.84375 46.4375 
Q 14.5 44.390625 14.5 40.28125 
Q 14.5 37.15625 16.890625 35.375 
Q 19.28125 33.59375 26.515625 31.984375 
L 29.59375 31.296875 
Q 39.15625 29.25 43.1875 25.515625 
Q 47.21875 21.78125 47.21875 15.09375 
Q 47.21875 7.46875 41.1875 3.015625 
Q 35.15625 -1.421875 24.609375 -1.421875 
Q 20.21875 -1.421875 15.453125 -0.5625 
Q 10.6875 0.296875 5.421875 2 
L 5.421875 11.28125 
Q 10.40625 8.6875 15.234375 7.390625 
Q 20.0625 6.109375 24.8125 6.109375 
Q 31.15625 6.109375 34.5625 8.28125 
Q 37.984375 10.453125 37.984375 14.40625 
Q 37.984375 18.0625 35.515625 20.015625 
Q 33.0625 21.96875 24.703125 23.78125 
L 21.578125 24.515625 
Q 13.234375 26.265625 9.515625 29.90625 
Q 5.8125 33.546875 5.8125 39.890625 
Q 5.8125 47.609375 11.28125 51.796875 
Q 16.75 56 26.8125 56 
Q 31.78125 56 36.171875 55.265625 
Q 40.578125 54.546875 44.28125 53.078125 
" id="BitstreamVeraSans-Roman-73"/>
     </defs>
     <g transform="translate(687.96796875 807.8296875)scale(0.3 -0.3)">
      <use xlink:href="#BitstreamVeraSans-Roman-69"/>
      <use x="27.783203125" xlink:href="#BitstreamVeraSans-Roman-74"/>
      <use x="66.9921875" xlink:href="#BitstreamVeraSans-Roman-65"/>
      <use x="128.515625" xlink:href="#BitstreamVeraSans-Roman-72"/>
      <use x="169.62890625" xlink:href="#BitstreamVeraSans-Roman-61"/>
      <use x="230.908203125" xlink:href="#BitstreamVeraSans-Roman-74"/>
      <use x="270.1171875" xlink:href="#BitstreamVeraSans-Roman-69"/>
      <use x="297.900390625" xlink:href="#BitstreamVeraSans-Roman-6f"/>
      <use x="359.08203125" xlink:href="#BitstreamVeraSans-Roman-6e"/>
      <use x="422.4609375" xlink:href="#BitstreamVeraSans-Roman-73"/>
     </g>
    </g>
   </g>
   <g id="matplotlib.axis_2">
    <g id="ytick_1">
     <g id="line2d_15">
      <defs>
       <path d="M 0 0 
L 4 0 
" id="m3dc859b217" style="stroke:#000000;stroke-width:0.5;"/>
      </defs>
      <g>
       <use style="stroke:#000000;stroke-width:0.5;" x="158.4" xlink:href="#m3dc859b217" y="747.0"/>
      </g>
     </g>
     <g id="line2d_16">
      <defs>
       <path d="M 0 0 
L -4 0 
" id="mdb78ba6ce8" style="stroke:#000000;stroke-width:0.5;"/>
      </defs>
      <g>
       <use style="stroke:#000000;stroke-width:0.5;" x="1359.9" xlink:href="#mdb78ba6ce8" y="747.0"/>
      </g>
     </g>
     <g id="text_8">
      <!-- 60 -->
      <defs>
       <path d="M 10.59375 35.5 
L 73.1875 35.5 
L 73.1875 27.203125 
L 10.59375 27.203125 
z
" id="BitstreamVeraSans-Roman-2212"/>
      </defs>
      <g transform="translate(91.0859375 755.278125)scale(0.3 -0.3)">
       <use xlink:href="#BitstreamVeraSans-Roman-2212"/>
       <use x="83.7890625" xlink:href="#BitstreamVeraSans-Roman-36"/>
       <use x="147.412109375" xlink:href="#BitstreamVeraSans-Roman-30"/>
      </g>
     </g>
    </g>
    <g id="ytick_2">
     <g id="line2d_17">
      <g>
       <use style="stroke:#000000;stroke-width:0.5;" x="158.4" xlink:href="#m3dc859b217" y="660.0375"/>
      </g>
     </g>
     <g id="line2d_18">
      <g>
       <use style="stroke:#000000;stroke-width:0.5;" x="1359.9" xlink:href="#mdb78ba6ce8" y="660.0375"/>
      </g>
     </g>
     <g id="text_9">
      <!-- 50 -->
      <defs>
       <path d="M 10.796875 72.90625 
L 49.515625 72.90625 
L 49.515625 64.59375 
L 19.828125 64.59375 
L 19.828125 46.734375 
Q 21.96875 47.46875 24.109375 47.828125 
Q 26.265625 48.1875 28.421875 48.1875 
Q 40.625 48.1875 47.75 41.5 
Q 54.890625 34.8125 54.890625 23.390625 
Q 54.890625 11.625 47.5625 5.09375 
Q 40.234375 -1.421875 26.90625 -1.421875 
Q 22.3125 -1.421875 17.546875 -0.640625 
Q 12.796875 0.140625 7.71875 1.703125 
L 7.71875 11.625 
Q 12.109375 9.234375 16.796875 8.0625 
Q 21.484375 6.890625 26.703125 6.890625 
Q 35.15625 6.890625 40.078125 11.328125 
Q 45.015625 15.765625 45.015625 23.390625 
Q 45.015625 31 40.078125 35.4375 
Q 35.15625 39.890625 26.703125 39.890625 
Q 22.75 39.890625 18.8125 39.015625 
Q 14.890625 38.140625 10.796875 36.28125 
z
" id="BitstreamVeraSans-Roman-35"/>
      </defs>
      <g transform="translate(91.0859375 668.315625)scale(0.3 -0.3)">
       <use xlink:href="#BitstreamVeraSans-Roman-2212"/>
       <use x="83.7890625" xlink:href="#BitstreamVeraSans-Roman-35"/>
       <use x="147.412109375" xlink:href="#BitstreamVeraSans-Roman-30"/>
      </g>
     </g>
    </g>
    <g id="ytick_3">
     <g id="line2d_19">
      <g>
       <use style="stroke:#000000;stroke-width:0.5;" x="158.4" xlink:href="#m3dc859b217" y="573.075"/>
      </g>
     </g>
     <g id="line2d_20">
      <g>
       <use style="stroke:#000000;stroke-width:0.5;" x="1359.9" xlink:href="#mdb78ba6ce8" y="573.075"/>
      </g>
     </g>
     <g id="text_10">
      <!-- 40 -->
      <g transform="translate(91.0859375 581.353125)scale(0.3 -0.3)">
       <use xlink:href="#BitstreamVeraSans-Roman-2212"/>
       <use x="83.7890625" xlink:href="#BitstreamVeraSans-Roman-34"/>
       <use x="147.412109375" xlink:href="#BitstreamVeraSans-Roman-30"/>
      </g>
     </g>
    </g>
    <g id="ytick_4">
     <g id="line2d_21">
      <g>
       <use style="stroke:#000000;stroke-width:0.5;" x="158.4" xlink:href="#m3dc859b217" y="486.1125"/>
      </g>
     </g>
     <g id="line2d_22">
      <g>
       <use style="stroke:#000000;stroke-width:0.5;" x="1359.9" xlink:href="#mdb78ba6ce8" y="486.1125"/>
      </g>
     </g>
     <g id="text_11">
      <!-- 30 -->
      <defs>
       <path d="M 40.578125 39.3125 
Q 47.65625 37.796875 51.625 33 
Q 55.609375 28.21875 55.609375 21.1875 
Q 55.609375 10.40625 48.1875 4.484375 
Q 40.765625 -1.421875 27.09375 -1.421875 
Q 22.515625 -1.421875 17.65625 -0.515625 
Q 12.796875 0.390625 7.625 2.203125 
L 7.625 11.71875 
Q 11.71875 9.328125 16.59375 8.109375 
Q 21.484375 6.890625 26.8125 6.890625 
Q 36.078125 6.890625 40.9375 10.546875 
Q 45.796875 14.203125 45.796875 21.1875 
Q 45.796875 27.640625 41.28125 31.265625 
Q 36.765625 34.90625 28.71875 34.90625 
L 20.21875 34.90625 
L 20.21875 43.015625 
L 29.109375 43.015625 
Q 36.375 43.015625 40.234375 45.921875 
Q 44.09375 48.828125 44.09375 54.296875 
Q 44.09375 59.90625 40.109375 62.90625 
Q 36.140625 65.921875 28.71875 65.921875 
Q 24.65625 65.921875 20.015625 65.03125 
Q 15.375 64.15625 9.8125 62.3125 
L 9.8125 71.09375 
Q 15.4375 72.65625 20.34375 73.4375 
Q 25.25 74.21875 29.59375 74.21875 
Q 40.828125 74.21875 47.359375 69.109375 
Q 53.90625 64.015625 53.90625 55.328125 
Q 53.90625 49.265625 50.4375 45.09375 
Q 46.96875 40.921875 40.578125 39.3125 
" id="BitstreamVeraSans-Roman-33"/>
      </defs>
      <g transform="translate(91.0859375 494.390625)scale(0.3 -0.3)">
       <use xlink:href="#BitstreamVeraSans-Roman-2212"/>
       <use x="83.7890625" xlink:href="#BitstreamVeraSans-Roman-33"/>
       <use x="147.412109375" xlink:href="#BitstreamVeraSans-Roman-30"/>
      </g>
     </g>
    </g>
    <g id="ytick_5">
     <g id="line2d_23">
      <g>
       <use style="stroke:#000000;stroke-width:0.5;" x="158.4" xlink:href="#m3dc859b217" y="399.15"/>
      </g>
     </g>
     <g id="line2d_24">
      <g>
       <use style="stroke:#000000;stroke-width:0.5;" x="1359.9" xlink:href="#mdb78ba6ce8" y="399.15"/>
      </g>
     </g>
     <g id="text_12">
      <!-- 20 -->
      <g transform="translate(91.0859375 407.428125)scale(0.3 -0.3)">
       <use xlink:href="#BitstreamVeraSans-Roman-2212"/>
       <use x="83.7890625" xlink:href="#BitstreamVeraSans-Roman-32"/>
       <use x="147.412109375" xlink:href="#BitstreamVeraSans-Roman-30"/>
      </g>
     </g>
    </g>
    <g id="ytick_6">
     <g id="line2d_25">
      <g>
       <use style="stroke:#000000;stroke-width:0.5;" x="158.4" xlink:href="#m3dc859b217" y="312.1875"/>
      </g>
     </g>
     <g id="line2d_26">
      <g>
       <use style="stroke:#000000;stroke-width:0.5;" x="1359.9" xlink:href="#mdb78ba6ce8" y="312.1875"/>
      </g>
     </g>
     <g id="text_13">
      <!-- 10 -->
      <g transform="translate(91.0859375 320.465625)scale(0.3 -0.3)">
       <use xlink:href="#BitstreamVeraSans-Roman-2212"/>
       <use x="83.7890625" xlink:href="#BitstreamVeraSans-Roman-31"/>
       <use x="147.412109375" xlink:href="#BitstreamVeraSans-Roman-30"/>
      </g>
     </g>
    </g>
    <g id="ytick_7">
     <g id="line2d_27">
      <g>
       <use style="stroke:#000000;stroke-width:0.5;" x="158.4" xlink:href="#m3dc859b217" y="225.225"/>
      </g>
     </g>
     <g id="line2d_28">
      <g>
       <use style="stroke:#000000;stroke-width:0.5;" x="1359.9" xlink:href="#mdb78ba6ce8" y="225.225"/>
      </g>
     </g>
     <g id="text_14">
      <!-- 0 -->
      <g transform="translate(135.3125 233.503125)scale(0.3 -0.3)">
       <use xlink:href="#BitstreamVeraSans-Roman-30"/>
      </g>
     </g>
    </g>
    <g id="ytick_8">
     <g id="line2d_29">
      <g>
       <use style="stroke:#000000;stroke-width:0.5;" x="158.4" xlink:href="#m3dc859b217" y="138.2625"/>
      </g>
     </g>
     <g id="line2d_30">
      <g>
       <use style="stroke:#000000;stroke-width:0.5;" x="1359.9" xlink:href="#mdb78ba6ce8" y="138.2625"/>
      </g>
     </g>
     <g id="text_15">
      <!-- 10 -->
      <g transform="translate(116.225 146.540625)scale(0.3 -0.3)">
       <use xlink:href="#BitstreamVeraSans-Roman-31"/>
       <use x="63.623046875" xlink:href="#BitstreamVeraSans-Roman-30"/>
      </g>
     </g>
    </g>
    <g id="ytick_9">
     <g id="line2d_31">
      <g>
       <use style="stroke:#000000;stroke-width:0.5;" x="158.4" xlink:href="#m3dc859b217" y="51.3"/>
      </g>
     </g>
     <g id="line2d_32">
      <g>
       <use style="stroke:#000000;stroke-width:0.5;" x="1359.9" xlink:href="#mdb78ba6ce8" y="51.3"/>
      </g>
     </g>
     <g id="text_16">
      <!-- 20 -->
      <g transform="translate(116.225 59.578125)scale(0.3 -0.3)">
       <use xlink:href="#BitstreamVeraSans-Roman-32"/>
       <use x="63.623046875" xlink:href="#BitstreamVeraSans-Roman-30"/>
      </g>
     </g>
    </g>
    <g id="text_17">
     <!-- log(loss) -->
     <defs>
      <path d="M 8.015625 75.875 
L 15.828125 75.875 
Q 23.140625 64.359375 26.78125 53.3125 
Q 30.421875 42.28125 30.421875 31.390625 
Q 30.421875 20.453125 26.78125 9.375 
Q 23.140625 -1.703125 15.828125 -13.1875 
L 8.015625 -13.1875 
Q 14.5 -2 17.703125 9.0625 
Q 20.90625 20.125 20.90625 31.390625 
Q 20.90625 42.671875 17.703125 53.65625 
Q 14.5 64.65625 8.015625 75.875 
" id="BitstreamVeraSans-Roman-29"/>
      <path d="M 31 75.875 
Q 24.46875 64.65625 21.28125 53.65625 
Q 18.109375 42.671875 18.109375 31.390625 
Q 18.109375 20.125 21.3125 9.0625 
Q 24.515625 -2 31 -13.1875 
L 23.1875 -13.1875 
Q 15.875 -1.703125 12.234375 9.375 
Q 8.59375 20.453125 8.59375 31.390625 
Q 8.59375 42.28125 12.203125 53.3125 
Q 15.828125 64.359375 23.1875 75.875 
z
" id="BitstreamVeraSans-Roman-28"/>
      <path d="M 45.40625 27.984375 
Q 45.40625 37.75 41.375 43.109375 
Q 37.359375 48.484375 30.078125 48.484375 
Q 22.859375 48.484375 18.828125 43.109375 
Q 14.796875 37.75 14.796875 27.984375 
Q 14.796875 18.265625 18.828125 12.890625 
Q 22.859375 7.515625 30.078125 7.515625 
Q 37.359375 7.515625 41.375 12.890625 
Q 45.40625 18.265625 45.40625 27.984375 
M 54.390625 6.78125 
Q 54.390625 -7.171875 48.1875 -13.984375 
Q 42 -20.796875 29.203125 -20.796875 
Q 24.46875 -20.796875 20.265625 -20.09375 
Q 16.0625 -19.390625 12.109375 -17.921875 
L 12.109375 -9.1875 
Q 16.0625 -11.328125 19.921875 -12.34375 
Q 23.78125 -13.375 27.78125 -13.375 
Q 36.625 -13.375 41.015625 -8.765625 
Q 45.40625 -4.15625 45.40625 5.171875 
L 45.40625 9.625 
Q 42.625 4.78125 38.28125 2.390625 
Q 33.9375 0 27.875 0 
Q 17.828125 0 11.671875 7.65625 
Q 5.515625 15.328125 5.515625 27.984375 
Q 5.515625 40.671875 11.671875 48.328125 
Q 17.828125 56 27.875 56 
Q 33.9375 56 38.28125 53.609375 
Q 42.625 51.21875 45.40625 46.390625 
L 45.40625 54.6875 
L 54.390625 54.6875 
z
" id="BitstreamVeraSans-Roman-67"/>
      <path d="M 9.421875 75.984375 
L 18.40625 75.984375 
L 18.40625 0 
L 9.421875 0 
z
" id="BitstreamVeraSans-Roman-6c"/>
     </defs>
     <g transform="translate(79.846875 462.69609375)rotate(-90.0)scale(0.3 -0.3)">
      <use xlink:href="#BitstreamVeraSans-Roman-6c"/>
      <use x="27.783203125" xlink:href="#BitstreamVeraSans-Roman-6f"/>
      <use x="88.96484375" xlink:href="#BitstreamVeraSans-Roman-67"/>
      <use x="152.44140625" xlink:href="#BitstreamVeraSans-Roman-28"/>
      <use x="191.455078125" xlink:href="#BitstreamVeraSans-Roman-6c"/>
      <use x="219.23828125" xlink:href="#BitstreamVeraSans-Roman-6f"/>
      <use x="280.419921875" xlink:href="#BitstreamVeraSans-Roman-73"/>
      <use x="332.51953125" xlink:href="#BitstreamVeraSans-Roman-73"/>
      <use x="384.619140625" xlink:href="#BitstreamVeraSans-Roman-29"/>
     </g>
    </g>
   </g>
   <g id="legend_1">
    <g id="patch_7">
     <path d="M 867.726562 163.36875 
L 1344.9 163.36875 
L 1344.9 66.3 
L 867.726562 66.3 
z
" style="fill:#ffffff;stroke:#000000;stroke-linejoin:miter;"/>
    </g>
    <g id="line2d_33">
     <path d="M 888.726562 90.595312 
L 930.726562 90.595312 
" style="fill:none;stroke:#0000ff;stroke-linecap:square;stroke-width:2.0;"/>
    </g>
    <g id="line2d_34"/>
    <g id="text_18">
     <!-- random: step=0.004893 -->
     <defs>
      <path id="BitstreamVeraSans-Roman-20"/>
      <path d="M 52 44.1875 
Q 55.375 50.25 60.0625 53.125 
Q 64.75 56 71.09375 56 
Q 79.640625 56 84.28125 50.015625 
Q 88.921875 44.046875 88.921875 33.015625 
L 88.921875 0 
L 79.890625 0 
L 79.890625 32.71875 
Q 79.890625 40.578125 77.09375 44.375 
Q 74.3125 48.1875 68.609375 48.1875 
Q 61.625 48.1875 57.5625 43.546875 
Q 53.515625 38.921875 53.515625 30.90625 
L 53.515625 0 
L 44.484375 0 
L 44.484375 32.71875 
Q 44.484375 40.625 41.703125 44.40625 
Q 38.921875 48.1875 33.109375 48.1875 
Q 26.21875 48.1875 22.15625 43.53125 
Q 18.109375 38.875 18.109375 30.90625 
L 18.109375 0 
L 9.078125 0 
L 9.078125 54.6875 
L 18.109375 54.6875 
L 18.109375 46.1875 
Q 21.1875 51.21875 25.484375 53.609375 
Q 29.78125 56 35.6875 56 
Q 41.65625 56 45.828125 52.96875 
Q 50 49.953125 52 44.1875 
" id="BitstreamVeraSans-Roman-6d"/>
      <path d="M 10.984375 1.515625 
L 10.984375 10.5 
Q 14.703125 8.734375 18.5 7.8125 
Q 22.3125 6.890625 25.984375 6.890625 
Q 35.75 6.890625 40.890625 13.453125 
Q 46.046875 20.015625 46.78125 33.40625 
Q 43.953125 29.203125 39.59375 26.953125 
Q 35.25 24.703125 29.984375 24.703125 
Q 19.046875 24.703125 12.671875 31.3125 
Q 6.296875 37.9375 6.296875 49.421875 
Q 6.296875 60.640625 12.9375 67.421875 
Q 19.578125 74.21875 30.609375 74.21875 
Q 43.265625 74.21875 49.921875 64.515625 
Q 56.59375 54.828125 56.59375 36.375 
Q 56.59375 19.140625 48.40625 8.859375 
Q 40.234375 -1.421875 26.421875 -1.421875 
Q 22.703125 -1.421875 18.890625 -0.6875 
Q 15.09375 0.046875 10.984375 1.515625 
M 30.609375 32.421875 
Q 37.25 32.421875 41.125 36.953125 
Q 45.015625 41.5 45.015625 49.421875 
Q 45.015625 57.28125 41.125 61.84375 
Q 37.25 66.40625 30.609375 66.40625 
Q 23.96875 66.40625 20.09375 61.84375 
Q 16.21875 57.28125 16.21875 49.421875 
Q 16.21875 41.5 20.09375 36.953125 
Q 23.96875 32.421875 30.609375 32.421875 
" id="BitstreamVeraSans-Roman-39"/>
      <path d="M 11.71875 12.40625 
L 22.015625 12.40625 
L 22.015625 0 
L 11.71875 0 
z
M 11.71875 51.703125 
L 22.015625 51.703125 
L 22.015625 39.3125 
L 11.71875 39.3125 
z
" id="BitstreamVeraSans-Roman-3a"/>
      <path d="M 10.6875 12.40625 
L 21 12.40625 
L 21 0 
L 10.6875 0 
z
" id="BitstreamVeraSans-Roman-2e"/>
      <path d="M 10.59375 45.40625 
L 73.1875 45.40625 
L 73.1875 37.203125 
L 10.59375 37.203125 
z
M 10.59375 25.484375 
L 73.1875 25.484375 
L 73.1875 17.1875 
L 10.59375 17.1875 
z
" id="BitstreamVeraSans-Roman-3d"/>
      <path d="M 45.40625 46.390625 
L 45.40625 75.984375 
L 54.390625 75.984375 
L 54.390625 0 
L 45.40625 0 
L 45.40625 8.203125 
Q 42.578125 3.328125 38.25 0.953125 
Q 33.9375 -1.421875 27.875 -1.421875 
Q 17.96875 -1.421875 11.734375 6.484375 
Q 5.515625 14.40625 5.515625 27.296875 
Q 5.515625 40.1875 11.734375 48.09375 
Q 17.96875 56 27.875 56 
Q 33.9375 56 38.25 53.625 
Q 42.578125 51.265625 45.40625 46.390625 
M 14.796875 27.296875 
Q 14.796875 17.390625 18.875 11.75 
Q 22.953125 6.109375 30.078125 6.109375 
Q 37.203125 6.109375 41.296875 11.75 
Q 45.40625 17.390625 45.40625 27.296875 
Q 45.40625 37.203125 41.296875 42.84375 
Q 37.203125 48.484375 30.078125 48.484375 
Q 22.953125 48.484375 18.875 42.84375 
Q 14.796875 37.203125 14.796875 27.296875 
" id="BitstreamVeraSans-Roman-64"/>
      <path d="M 18.109375 8.203125 
L 18.109375 -20.796875 
L 9.078125 -20.796875 
L 9.078125 54.6875 
L 18.109375 54.6875 
L 18.109375 46.390625 
Q 20.953125 51.265625 25.265625 53.625 
Q 29.59375 56 35.59375 56 
Q 45.5625 56 51.78125 48.09375 
Q 58.015625 40.1875 58.015625 27.296875 
Q 58.015625 14.40625 51.78125 6.484375 
Q 45.5625 -1.421875 35.59375 -1.421875 
Q 29.59375 -1.421875 25.265625 0.953125 
Q 20.953125 3.328125 18.109375 8.203125 
M 48.6875 27.296875 
Q 48.6875 37.203125 44.609375 42.84375 
Q 40.53125 48.484375 33.40625 48.484375 
Q 26.265625 48.484375 22.1875 42.84375 
Q 18.109375 37.203125 18.109375 27.296875 
Q 18.109375 17.390625 22.1875 11.75 
Q 26.265625 6.109375 33.40625 6.109375 
Q 40.53125 6.109375 44.609375 11.75 
Q 48.6875 17.390625 48.6875 27.296875 
" id="BitstreamVeraSans-Roman-70"/>
     </defs>
     <g transform="translate(963.7265625 101.0953125)scale(0.3 -0.3)">
      <use xlink:href="#BitstreamVeraSans-Roman-72"/>
      <use x="41.11328125" xlink:href="#BitstreamVeraSans-Roman-61"/>
      <use x="102.392578125" xlink:href="#BitstreamVeraSans-Roman-6e"/>
      <use x="165.771484375" xlink:href="#BitstreamVeraSans-Roman-64"/>
      <use x="229.248046875" xlink:href="#BitstreamVeraSans-Roman-6f"/>
      <use x="290.4296875" xlink:href="#BitstreamVeraSans-Roman-6d"/>
      <use x="387.841796875" xlink:href="#BitstreamVeraSans-Roman-3a"/>
      <use x="421.533203125" xlink:href="#BitstreamVeraSans-Roman-20"/>
      <use x="453.3203125" xlink:href="#BitstreamVeraSans-Roman-73"/>
      <use x="505.419921875" xlink:href="#BitstreamVeraSans-Roman-74"/>
      <use x="544.62890625" xlink:href="#BitstreamVeraSans-Roman-65"/>
      <use x="606.15234375" xlink:href="#BitstreamVeraSans-Roman-70"/>
      <use x="669.62890625" xlink:href="#BitstreamVeraSans-Roman-3d"/>
      <use x="753.41796875" xlink:href="#BitstreamVeraSans-Roman-30"/>
      <use x="817.041015625" xlink:href="#BitstreamVeraSans-Roman-2e"/>
      <use x="848.828125" xlink:href="#BitstreamVeraSans-Roman-30"/>
      <use x="912.451171875" xlink:href="#BitstreamVeraSans-Roman-30"/>
      <use x="976.07421875" xlink:href="#BitstreamVeraSans-Roman-34"/>
      <use x="1039.69726562" xlink:href="#BitstreamVeraSans-Roman-38"/>
      <use x="1103.3203125" xlink:href="#BitstreamVeraSans-Roman-39"/>
      <use x="1166.94335938" xlink:href="#BitstreamVeraSans-Roman-33"/>
     </g>
    </g>
    <g id="line2d_35">
     <path d="M 888.726562 134.629687 
L 930.726562 134.629687 
" style="fill:none;stroke:#008000;stroke-linecap:square;stroke-width:2.0;"/>
    </g>
    <g id="line2d_36"/>
    <g id="text_19">
     <!-- corr: step=0.004893 -->
     <defs>
      <path d="M 48.78125 52.59375 
L 48.78125 44.1875 
Q 44.96875 46.296875 41.140625 47.34375 
Q 37.3125 48.390625 33.40625 48.390625 
Q 24.65625 48.390625 19.8125 42.84375 
Q 14.984375 37.3125 14.984375 27.296875 
Q 14.984375 17.28125 19.8125 11.734375 
Q 24.65625 6.203125 33.40625 6.203125 
Q 37.3125 6.203125 41.140625 7.25 
Q 44.96875 8.296875 48.78125 10.40625 
L 48.78125 2.09375 
Q 45.015625 0.34375 40.984375 -0.53125 
Q 36.96875 -1.421875 32.421875 -1.421875 
Q 20.0625 -1.421875 12.78125 6.34375 
Q 5.515625 14.109375 5.515625 27.296875 
Q 5.515625 40.671875 12.859375 48.328125 
Q 20.21875 56 33.015625 56 
Q 37.15625 56 41.109375 55.140625 
Q 45.0625 54.296875 48.78125 52.59375 
" id="BitstreamVeraSans-Roman-63"/>
     </defs>
     <g transform="translate(963.7265625 145.1296875)scale(0.3 -0.3)">
      <use xlink:href="#BitstreamVeraSans-Roman-63"/>
      <use x="54.98046875" xlink:href="#BitstreamVeraSans-Roman-6f"/>
      <use x="116.162109375" xlink:href="#BitstreamVeraSans-Roman-72"/>
      <use x="157.259765625" xlink:href="#BitstreamVeraSans-Roman-72"/>
      <use x="198.357421875" xlink:href="#BitstreamVeraSans-Roman-3a"/>
      <use x="232.048828125" xlink:href="#BitstreamVeraSans-Roman-20"/>
      <use x="263.8359375" xlink:href="#BitstreamVeraSans-Roman-73"/>
      <use x="315.935546875" xlink:href="#BitstreamVeraSans-Roman-74"/>
      <use x="355.14453125" xlink:href="#BitstreamVeraSans-Roman-65"/>
      <use x="416.66796875" xlink:href="#BitstreamVeraSans-Roman-70"/>
      <use x="480.14453125" xlink:href="#BitstreamVeraSans-Roman-3d"/>
      <use x="563.93359375" xlink:href="#BitstreamVeraSans-Roman-30"/>
      <use x="627.556640625" xlink:href="#BitstreamVeraSans-Roman-2e"/>
      <use x="659.34375" xlink:href="#BitstreamVeraSans-Roman-30"/>
      <use x="722.966796875" xlink:href="#BitstreamVeraSans-Roman-30"/>
      <use x="786.58984375" xlink:href="#BitstreamVeraSans-Roman-34"/>
      <use x="850.212890625" xlink:href="#BitstreamVeraSans-Roman-38"/>
      <use x="913.8359375" xlink:href="#BitstreamVeraSans-Roman-39"/>
      <use x="977.458984375" xlink:href="#BitstreamVeraSans-Roman-33"/>
     </g>
    </g>
   </g>
  </g>
 </g>
 <defs>
  <clipPath id="p1ebc4b2702">
   <rect height="695.7" width="1201.5" x="158.4" y="51.3"/>
  </clipPath>
 </defs>
</svg>
