<?xml version="1.0" encoding="utf-8" standalone="no"?>
<!DOCTYPE svg PUBLIC "-//W3C//DTD SVG 1.1//EN"
  "http://www.w3.org/Graphics/SVG/1.1/DTD/svg11.dtd">
<!-- Created with matplotlib (http://matplotlib.org/) -->
<svg height="864pt" version="1.1" viewBox="0 0 1440 864" width="1440pt" xmlns="http://www.w3.org/2000/svg" xmlns:xlink="http://www.w3.org/1999/xlink">
 <defs>
  <style type="text/css">
*{stroke-linecap:butt;stroke-linejoin:round;stroke-miterlimit:100000;}
  </style>
 </defs>
 <g id="figure_1">
  <g id="patch_1">
   <path d="M 0 864 
L 1440 864 
L 1440 0 
L 0 0 
z
" style="fill:#ffffff;"/>
  </g>
  <g id="axes_1">
   <g id="patch_2">
    <path d="M 158.4 747 
L 1359.9 747 
L 1359.9 51.3 
L 158.4 51.3 
z
" style="fill:#ffffff;"/>
   </g>
   <g id="line2d_1">
    <path clip-path="url(#p496b9c5e1d)" d="M 158.4 109.601986 
L 159.6015 110.760208 
L 163.206 112.877904 
L 164.4075 113.338597 
L 166.8105 114.961233 
L 168.012 115.884374 
L 174.0195 119.597491 
L 175.221 120.257325 
L 176.4225 121.09567 
L 177.624 121.527703 
L 178.8255 122.336925 
L 181.2285 124.202146 
L 182.43 124.967153 
L 186.0345 127.606588 
L 187.236 128.323816 
L 188.4375 129.19756 
L 189.639 129.811516 
L 190.8405 130.673468 
L 192.042 131.117213 
L 194.445 132.880482 
L 195.6465 133.877271 
L 198.0495 135.065315 
L 199.251 136.067165 
L 200.4525 136.7098 
L 201.654 137.52086 
L 202.8555 137.895247 
L 205.2585 139.393017 
L 206.46 140.309132 
L 207.6615 141.494766 
L 208.863 142.378376 
L 211.266 143.678189 
L 212.4675 144.306415 
L 214.8705 146.306234 
L 217.2735 147.983001 
L 218.475 148.392544 
L 219.6765 149.227794 
L 220.878 149.663233 
L 222.0795 150.385657 
L 223.281 151.357818 
L 224.4825 151.8651 
L 226.8855 153.280603 
L 230.49 156.052187 
L 231.6915 156.541543 
L 232.893 157.391571 
L 234.0945 158.590943 
L 235.296 159.353487 
L 237.699 160.478763 
L 238.9005 161.238896 
L 240.102 162.261038 
L 242.505 163.760484 
L 243.7065 164.285405 
L 244.908 164.977039 
L 247.311 166.648201 
L 248.5125 167.40026 
L 249.714 168.399312 
L 250.9155 169.138128 
L 252.117 170.114132 
L 253.3185 170.741105 
L 254.52 171.648054 
L 255.7215 172.371574 
L 256.923 173.459485 
L 258.1245 173.996701 
L 259.326 174.825943 
L 260.5275 175.482476 
L 261.729 176.380654 
L 265.3335 178.495011 
L 266.535 179.071346 
L 267.7365 180.077299 
L 268.938 180.86186 
L 271.341 182.6276 
L 272.5425 183.389437 
L 273.744 184.296379 
L 277.3485 185.97861 
L 278.55 186.81045 
L 279.7515 187.338769 
L 280.953 188.218765 
L 282.1545 188.741156 
L 286.9605 191.499714 
L 288.162 192.591134 
L 289.3635 193.376946 
L 290.565 194.37429 
L 291.7665 195.105653 
L 294.1695 196.858875 
L 295.371 197.377306 
L 296.5725 198.10582 
L 298.9755 199.942341 
L 301.3785 201.284956 
L 303.7815 202.907567 
L 306.1845 204.339304 
L 308.5875 205.885479 
L 309.789 206.443362 
L 312.192 208.082289 
L 314.595 209.627705 
L 315.7965 210.717062 
L 318.1995 212.450385 
L 319.401 213.472628 
L 320.6025 214.195899 
L 323.0055 215.947279 
L 324.207 216.465299 
L 325.4085 217.45555 
L 327.8115 218.712895 
L 329.013 219.539847 
L 333.819 221.991794 
L 335.0205 222.734414 
L 336.222 223.727128 
L 337.4235 224.121342 
L 338.625 224.642998 
L 341.028 226.222786 
L 345.834 228.643222 
L 351.8415 232.748714 
L 353.043 233.926032 
L 354.2445 234.802832 
L 355.446 235.3338 
L 356.6475 236.189493 
L 357.849 236.824783 
L 359.0505 237.700557 
L 360.252 238.236177 
L 363.8565 240.702714 
L 365.058 241.992176 
L 367.461 243.248248 
L 368.6625 244.051762 
L 369.864 244.661975 
L 371.0655 245.626926 
L 372.267 246.207963 
L 373.4685 247.262056 
L 374.67 248.090707 
L 375.8715 248.636056 
L 377.073 249.579041 
L 378.2745 250.276063 
L 379.476 251.12737 
L 381.879 252.072482 
L 383.0805 252.912335 
L 385.4835 254.380377 
L 386.685 255.203655 
L 387.8865 255.84524 
L 389.088 256.684263 
L 393.894 259.027648 
L 396.297 260.779183 
L 397.4985 261.637202 
L 398.7 262.285238 
L 401.103 264.11477 
L 402.3045 264.791164 
L 405.909 266.482112 
L 407.1105 267.520501 
L 409.5135 269.351765 
L 410.715 269.803516 
L 414.3195 272.203815 
L 417.924 275.091403 
L 419.1255 275.634579 
L 426.3345 280.474103 
L 427.536 281.647351 
L 431.1405 283.942684 
L 432.342 284.380937 
L 433.5435 285.407395 
L 434.745 285.955425 
L 438.3495 288.201536 
L 439.551 289.195144 
L 440.7525 289.811155 
L 443.1555 291.594552 
L 444.357 292.386585 
L 445.5585 292.858126 
L 446.76 293.935449 
L 447.9615 294.43441 
L 449.163 295.238249 
L 450.3645 295.874134 
L 451.566 296.810163 
L 452.7675 297.279858 
L 458.775 300.567203 
L 459.9765 301.518842 
L 461.178 302.254595 
L 462.3795 302.786093 
L 463.581 303.757025 
L 468.387 306.388358 
L 471.9915 308.178685 
L 473.193 308.917272 
L 475.596 310.023029 
L 476.7975 310.647354 
L 477.999 311.650869 
L 479.2005 312.472117 
L 488.8125 317.481478 
L 492.417 319.970436 
L 494.82 321.744072 
L 496.0215 322.472691 
L 497.223 322.917112 
L 498.4245 323.762048 
L 500.8275 325.828135 
L 502.029 326.428516 
L 503.2305 326.889074 
L 504.432 327.207151 
L 505.6335 327.845414 
L 506.835 328.824859 
L 508.0365 329.629906 
L 509.238 330.730273 
L 510.4395 331.631821 
L 512.8425 332.869812 
L 515.2455 334.61161 
L 517.6485 335.589856 
L 518.85 336.382873 
L 520.0515 337.492112 
L 522.4545 338.672888 
L 523.656 339.822866 
L 524.8575 340.570854 
L 526.059 341.716986 
L 527.2605 342.61787 
L 528.462 343.292864 
L 529.6635 344.100955 
L 530.865 344.55169 
L 532.0665 345.312975 
L 533.268 346.268108 
L 534.4695 346.818933 
L 535.671 347.830118 
L 536.8725 348.649804 
L 539.2755 349.60426 
L 540.477 350.511267 
L 541.6785 351.095046 
L 545.283 353.936631 
L 546.4845 354.587439 
L 547.686 355.084303 
L 550.089 356.628214 
L 551.2905 357.147184 
L 552.492 358.364135 
L 553.6935 359.212832 
L 554.895 359.741951 
L 558.4995 361.675325 
L 559.701 362.616257 
L 562.104 363.811441 
L 564.507 366.07956 
L 574.119 372.573608 
L 575.3205 373.478129 
L 576.522 373.943861 
L 578.925 375.26376 
L 581.328 377.073279 
L 582.5295 377.878911 
L 583.731 378.834032 
L 586.134 380.002967 
L 587.3355 380.818466 
L 588.537 381.328 
L 590.94 383.1662 
L 592.1415 383.841702 
L 593.343 384.695704 
L 596.9475 386.575839 
L 598.149 387.239854 
L 599.3505 388.466951 
L 601.7535 389.884528 
L 602.955 390.360854 
L 606.5595 392.509354 
L 607.761 392.9886 
L 608.9625 393.702012 
L 612.567 396.36644 
L 613.7685 397.36422 
L 614.97 397.949201 
L 616.1715 398.693131 
L 617.373 399.568209 
L 618.5745 400.300377 
L 619.776 401.170424 
L 622.179 402.279496 
L 625.7835 404.665453 
L 626.985 405.554068 
L 630.5895 407.889235 
L 632.9925 409.627932 
L 634.194 410.477664 
L 636.597 412.016352 
L 639 413.592855 
L 640.2015 414.121976 
L 642.6045 415.533588 
L 645.0075 417.20675 
L 646.209 418.174868 
L 647.4105 418.895282 
L 648.612 419.76522 
L 652.2165 421.637874 
L 653.418 422.557658 
L 657.0225 424.564065 
L 658.224 425.542731 
L 660.627 427.046196 
L 661.8285 427.951345 
L 663.03 428.678859 
L 664.2315 429.197893 
L 667.836 431.200849 
L 669.0375 432.086223 
L 672.642 433.718354 
L 673.8435 434.474806 
L 675.045 435.418539 
L 676.2465 436.105939 
L 677.448 436.532081 
L 678.6495 437.341861 
L 682.254 439.216374 
L 684.657 440.530795 
L 685.8585 441.3281 
L 688.2615 442.413739 
L 689.463 443.265863 
L 691.866 444.411919 
L 693.0675 445.302986 
L 695.4705 446.366123 
L 697.8735 447.937567 
L 701.478 450.419776 
L 702.6795 450.981366 
L 703.881 451.783427 
L 705.0825 452.200559 
L 706.284 453.215195 
L 709.8885 455.457778 
L 711.09 456.492171 
L 713.493 457.98314 
L 715.896 459.513444 
L 717.0975 459.944369 
L 718.299 460.534152 
L 719.5005 461.349358 
L 723.105 462.957616 
L 724.3065 463.585064 
L 725.508 463.988892 
L 726.7095 464.590723 
L 727.911 465.348015 
L 730.314 466.496573 
L 732.717 468.276146 
L 737.523 470.884593 
L 738.7245 471.952127 
L 741.1275 473.082099 
L 742.329 473.995643 
L 743.5305 474.651628 
L 744.732 475.158301 
L 747.135 476.698902 
L 748.3365 477.232904 
L 749.538 478.047898 
L 753.1425 480.07977 
L 755.5455 481.044038 
L 756.747 481.804874 
L 757.9485 482.876756 
L 759.15 483.482941 
L 760.3515 484.420894 
L 761.553 484.845446 
L 762.7545 485.57043 
L 765.1575 486.720862 
L 766.359 487.651314 
L 768.762 488.937606 
L 771.165 489.884253 
L 774.7695 491.396283 
L 777.1725 492.960578 
L 778.374 494.001617 
L 779.5755 494.534233 
L 780.777 494.938551 
L 783.18 496.38717 
L 784.3815 497.34761 
L 785.583 497.970747 
L 786.7845 498.749042 
L 787.986 499.388307 
L 789.1875 500.687705 
L 790.389 501.353916 
L 791.5905 502.223958 
L 792.792 502.603551 
L 793.9935 503.372013 
L 795.195 503.935004 
L 796.3965 505.02373 
L 797.598 505.609478 
L 798.7995 506.503245 
L 800.001 506.966742 
L 801.2025 507.570876 
L 804.807 510.042369 
L 806.0085 510.70602 
L 809.613 512.079836 
L 810.8145 512.819207 
L 812.016 513.163028 
L 814.419 514.272354 
L 815.6205 515.205273 
L 816.822 515.706353 
L 818.0235 516.352571 
L 819.225 517.255679 
L 820.4265 517.736348 
L 821.628 518.438043 
L 822.8295 519.298555 
L 824.031 520.47984 
L 825.2325 520.924044 
L 826.434 521.718344 
L 827.6355 522.266205 
L 828.837 523.10632 
L 830.0385 524.522531 
L 831.24 525.387858 
L 833.643 526.624389 
L 837.2475 528.220841 
L 838.449 529.101712 
L 839.6505 529.687305 
L 843.255 531.932085 
L 844.4565 532.445082 
L 845.658 533.159722 
L 846.8595 533.662678 
L 850.464 535.739699 
L 852.867 537.900094 
L 854.0685 538.342997 
L 855.27 539.208156 
L 856.4715 539.683538 
L 857.673 540.652341 
L 860.076 541.874068 
L 862.479 543.422403 
L 863.6805 543.968859 
L 864.882 545.206408 
L 866.0835 546.03885 
L 868.4865 547.349896 
L 875.6955 551.082433 
L 876.897 551.895666 
L 878.0985 552.508418 
L 879.3 553.509375 
L 880.5015 554.007156 
L 881.703 554.841986 
L 884.106 555.982772 
L 885.3075 556.727384 
L 886.509 557.078614 
L 887.7105 557.770548 
L 888.912 558.669935 
L 890.1135 559.254716 
L 891.315 560.060787 
L 892.5165 560.704006 
L 893.718 561.58122 
L 896.121 562.723714 
L 897.3225 563.532898 
L 898.524 564.476457 
L 899.7255 565.054198 
L 902.1285 566.669983 
L 906.9345 569.3804 
L 909.3375 570.86696 
L 911.7405 572.088237 
L 912.942 573.277763 
L 915.345 574.215709 
L 917.748 575.897407 
L 918.9495 576.336211 
L 922.554 578.414055 
L 923.7555 578.906366 
L 927.36 581.119764 
L 928.5615 581.668153 
L 932.166 583.950486 
L 933.3675 585.006089 
L 934.569 585.804479 
L 935.7705 586.271977 
L 936.972 586.94099 
L 941.778 588.650493 
L 945.3825 591.359751 
L 946.584 592.103373 
L 947.7855 592.54854 
L 951.39 594.3458 
L 952.5915 595.287906 
L 953.793 595.720916 
L 959.8005 598.59804 
L 962.2035 599.960461 
L 963.405 601.073854 
L 964.6065 601.906907 
L 967.0095 603.004075 
L 968.211 604.037811 
L 969.4125 604.600505 
L 970.614 605.443863 
L 971.8155 606.050704 
L 973.017 606.467982 
L 974.2185 607.402024 
L 975.42 607.963622 
L 976.6215 608.703303 
L 979.0245 609.764129 
L 981.4275 611.533487 
L 983.8305 613.23116 
L 985.032 613.869775 
L 986.2335 614.281473 
L 987.435 615.08348 
L 989.838 616.157438 
L 993.4425 618.707039 
L 995.8455 620.044892 
L 997.047 620.825804 
L 998.2485 621.274021 
L 999.45 621.852825 
L 1000.6515 622.577061 
L 1001.853 623.667992 
L 1003.0545 624.224526 
L 1004.256 624.976273 
L 1006.659 626.79269 
L 1007.8605 627.330678 
L 1011.465 629.755273 
L 1012.6665 630.860268 
L 1013.868 631.497597 
L 1016.271 633.073455 
L 1018.674 634.413839 
L 1022.2785 636.42071 
L 1023.48 636.827672 
L 1025.883 638.311389 
L 1027.0845 639.203164 
L 1028.286 639.78484 
L 1029.4875 640.712234 
L 1030.689 641.418808 
L 1031.8905 642.486384 
L 1033.092 643.2198 
L 1035.495 644.370359 
L 1036.6965 645.209711 
L 1039.0995 647.20037 
L 1041.5025 648.338852 
L 1045.107 650.235273 
L 1046.3085 651.199304 
L 1047.51 651.977937 
L 1048.7115 652.44066 
L 1054.719 656.272543 
L 1055.9205 657.157972 
L 1058.3235 658.365098 
L 1060.7265 659.947655 
L 1061.928 660.706775 
L 1063.1295 661.601682 
L 1064.331 662.210283 
L 1065.5325 662.652396 
L 1066.734 663.219804 
L 1067.9355 664.184995 
L 1069.137 664.838413 
L 1070.3385 665.628552 
L 1073.943 667.475165 
L 1076.346 668.748321 
L 1077.5475 669.676397 
L 1078.749 670.402243 
L 1079.9505 671.342965 
L 1084.7565 674.048529 
L 1085.958 674.609267 
L 1089.5625 676.977813 
L 1090.764 677.409964 
L 1091.9655 677.67711 
L 1093.167 678.662727 
L 1099.1745 681.766671 
L 1100.376 682.710645 
L 1101.5775 683.237992 
L 1102.779 684.102546 
L 1105.182 685.408449 
L 1106.3835 686.210851 
L 1107.585 686.742147 
L 1109.988 688.183247 
L 1111.1895 688.683527 
L 1112.391 689.904723 
L 1113.5925 690.37567 
L 1114.794 691.070903 
L 1115.9955 691.933044 
L 1117.197 692.447175 
L 1122.003 695.354309 
L 1128.0105 698.377274 
L 1131.615 699.867934 
L 1134.018 701.393785 
L 1135.2195 701.831429 
L 1136.421 702.453979 
L 1137.6225 702.83026 
L 1138.824 703.587411 
L 1142.4285 705.073528 
L 1144.8315 706.663682 
L 1146.033 707.507889 
L 1147.2345 707.714801 
L 1148.436 708.413159 
L 1149.6375 708.883117 
L 1152.0405 709.468322 
L 1155.645 709.616845 
L 1158.048 710.135746 
L 1161.6525 711.457725 
L 1165.257 711.664741 
L 1166.4585 711.413427 
L 1168.8615 712.143042 
L 1170.063 712.379403 
L 1171.2645 712.259576 
L 1173.6675 712.247969 
L 1176.0705 712.804356 
L 1178.4735 712.935645 
L 1179.675 713.405198 
L 1180.8765 713.084261 
L 1182.078 713.087476 
L 1183.2795 713.357015 
L 1184.481 713.26169 
L 1185.6825 713.811842 
L 1186.884 713.188552 
L 1189.287 713.632899 
L 1190.4885 713.50626 
L 1191.69 713.69153 
L 1194.093 713.717029 
L 1195.2945 713.460065 
L 1196.496 714.131477 
L 1201.302 714.932889 
L 1202.5035 715.435301 
L 1204.9065 715.315487 
L 1206.108 714.964128 
L 1208.511 715.045015 
L 1209.7125 715.153726 
L 1210.914 714.997777 
L 1212.1155 715.413034 
L 1213.317 715.212316 
L 1214.5185 715.587887 
L 1218.123 715.923668 
L 1219.3245 715.721248 
L 1221.7275 716.045291 
L 1222.929 715.566432 
L 1227.735 715.752963 
L 1228.9365 715.534443 
L 1231.3395 716.082051 
L 1232.541 715.530051 
L 1236.1455 715.747754 
L 1237.347 715.467905 
L 1238.5485 715.948138 
L 1240.9515 715.616476 
L 1242.153 715.602255 
L 1243.3545 715.762618 
L 1244.556 715.618034 
L 1245.7575 716.227075 
L 1246.959 715.759424 
L 1249.362 715.837287 
L 1250.5635 715.910267 
L 1252.9665 715.760455 
L 1254.168 715.785855 
L 1255.3695 715.966437 
L 1256.571 715.761054 
L 1258.974 715.896063 
L 1260.1755 715.792851 
L 1262.5785 716.147426 
L 1263.78 715.903799 
L 1264.9815 716.29785 
L 1266.183 716.183352 
L 1267.3845 716.302255 
L 1268.586 716.619252 
L 1269.7875 716.368568 
L 1275.795 716.758165 
L 1276.9965 717.298678 
L 1278.198 716.863492 
L 1279.3995 717.382987 
L 1280.601 716.997112 
L 1281.8025 717.182504 
L 1283.004 716.779018 
L 1285.407 716.538285 
L 1286.6085 716.665356 
L 1289.0115 716.74975 
L 1290.213 717.004445 
L 1291.4145 716.86605 
L 1292.616 716.549724 
L 1293.8175 716.49366 
L 1295.019 716.616641 
L 1296.2205 716.213922 
L 1297.422 716.395761 
L 1298.6235 716.380345 
L 1299.825 716.532345 
L 1301.0265 716.554352 
L 1302.228 716.718361 
L 1303.4295 716.715745 
L 1304.631 716.596451 
L 1305.8325 716.859035 
L 1307.034 716.740618 
L 1308.2355 716.806682 
L 1309.437 717.292897 
L 1310.6385 716.767435 
L 1313.0415 716.279084 
L 1314.243 716.09509 
L 1316.646 716.638418 
L 1317.8475 716.615778 
L 1319.049 716.243071 
L 1320.2505 716.197194 
L 1321.452 716.340084 
L 1322.6535 716.059561 
L 1323.855 716.301312 
L 1325.0565 716.307722 
L 1326.258 716.508253 
L 1327.4595 716.526059 
L 1328.661 716.373318 
L 1329.8625 716.356928 
L 1331.064 716.619556 
L 1332.2655 716.397782 
L 1334.6685 716.102352 
L 1335.87 716.664324 
L 1339.4745 716.483482 
L 1344.2805 717.388789 
L 1345.482 717.267361 
L 1346.6835 716.99219 
L 1349.0865 717.123105 
L 1350.288 717.511546 
L 1351.4895 717.498959 
L 1352.691 717.30852 
L 1353.8925 717.378131 
L 1355.094 717.158032 
L 1356.2955 717.594429 
L 1357.497 717.126016 
L 1358.6985 717.006228 
L 1358.6985 717.006228 
" style="fill:none;stroke:#0000ff;stroke-linecap:square;stroke-width:2.0;"/>
   </g>
   <g id="line2d_2">
    <path clip-path="url(#p496b9c5e1d)" d="M 158.4 109.908336 
L 159.6015 110.828761 
L 160.803 111.455722 
L 162.0045 112.454254 
L 165.609 114.914889 
L 168.012 116.085408 
L 170.415 117.672242 
L 171.6165 118.839015 
L 176.4225 121.522242 
L 178.8255 122.586123 
L 180.027 123.391454 
L 182.43 124.554542 
L 183.6315 125.777714 
L 186.0345 127.269848 
L 187.236 127.85816 
L 188.4375 128.260527 
L 189.639 129.308802 
L 190.8405 130.048988 
L 192.042 130.972293 
L 193.2435 131.735502 
L 194.445 132.161881 
L 195.6465 132.963036 
L 198.0495 134.145175 
L 199.251 134.831248 
L 200.4525 135.862791 
L 205.2585 138.274861 
L 206.46 138.994184 
L 208.863 140.68325 
L 211.266 142.016099 
L 213.669 143.698562 
L 214.8705 144.352888 
L 216.072 145.444074 
L 217.2735 146.213454 
L 218.475 146.70024 
L 220.878 148.300583 
L 223.281 150.122086 
L 224.4825 150.925958 
L 225.684 152.006535 
L 228.087 153.78914 
L 234.0945 156.965236 
L 235.296 157.536671 
L 236.4975 157.961171 
L 238.9005 159.307358 
L 240.102 160.002944 
L 241.3035 161.005502 
L 243.7065 162.441373 
L 246.1095 163.861499 
L 247.311 164.91441 
L 249.714 166.541272 
L 250.9155 167.509391 
L 252.117 168.052739 
L 255.7215 170.845384 
L 256.923 171.437728 
L 259.326 173.512826 
L 260.5275 174.471874 
L 261.729 175.089719 
L 262.9305 176.097046 
L 264.132 176.93698 
L 265.3335 178.033718 
L 266.535 178.758948 
L 267.7365 179.638154 
L 268.938 180.284264 
L 270.1395 181.11841 
L 271.341 181.710535 
L 272.5425 182.671838 
L 274.9455 184.365826 
L 276.147 184.959205 
L 277.3485 185.936775 
L 278.55 187.087517 
L 279.7515 187.840685 
L 282.1545 189.089945 
L 283.356 190.365184 
L 286.9605 193.000759 
L 289.3635 194.023168 
L 291.7665 196.022091 
L 292.968 196.77262 
L 294.1695 197.80906 
L 297.774 199.473598 
L 300.177 201.082668 
L 301.3785 201.717433 
L 302.58 203.027532 
L 303.7815 204.065512 
L 304.983 204.785222 
L 306.1845 205.300258 
L 307.386 206.243939 
L 308.5875 207.027864 
L 309.789 208.031367 
L 314.595 210.384153 
L 315.7965 210.832199 
L 321.804 214.698272 
L 323.0055 214.97185 
L 324.207 215.482783 
L 326.61 217.239464 
L 330.2145 219.126269 
L 333.819 221.078964 
L 337.4235 223.487393 
L 339.8265 225.557749 
L 341.028 226.021403 
L 342.2295 226.946209 
L 344.6325 228.336884 
L 345.834 228.805393 
L 350.64 231.525223 
L 351.8415 232.358284 
L 353.043 233.366905 
L 357.849 235.867409 
L 359.0505 236.831995 
L 360.252 237.490057 
L 361.4535 238.616978 
L 362.655 239.294896 
L 363.8565 240.12832 
L 367.461 241.966543 
L 368.6625 242.383046 
L 369.864 243.06237 
L 373.4685 245.528244 
L 374.67 246.013362 
L 377.073 247.642616 
L 380.6775 249.76264 
L 381.879 250.088411 
L 383.0805 251.03725 
L 384.282 251.514281 
L 385.4835 252.642618 
L 386.685 253.396072 
L 387.8865 254.343898 
L 389.088 254.882843 
L 390.2895 255.668225 
L 393.894 258.300434 
L 396.297 259.400268 
L 397.4985 260.302753 
L 398.7 261.058324 
L 399.9015 262.027509 
L 401.103 262.659475 
L 402.3045 263.519203 
L 403.506 263.888049 
L 404.7075 264.588628 
L 405.909 264.887491 
L 408.312 266.483156 
L 409.5135 267.279766 
L 411.9165 269.357283 
L 413.118 270.039234 
L 414.3195 270.438251 
L 416.7225 272.561824 
L 419.1255 273.769463 
L 421.5285 275.38274 
L 425.133 276.953404 
L 427.536 278.72097 
L 428.7375 279.422702 
L 429.939 280.357629 
L 431.1405 280.978343 
L 432.342 281.730468 
L 433.5435 282.345214 
L 434.745 283.091517 
L 435.9465 283.597886 
L 440.7525 286.367774 
L 441.954 286.882069 
L 444.357 288.794495 
L 446.76 290.255046 
L 449.163 291.205871 
L 450.3645 291.843068 
L 455.1705 295.087321 
L 456.372 295.700437 
L 457.5735 296.067959 
L 458.775 296.736714 
L 461.178 298.353226 
L 462.3795 298.956294 
L 463.581 299.839074 
L 470.79 304.219837 
L 471.9915 305.227471 
L 476.7975 308.349181 
L 477.999 308.85957 
L 480.402 310.030572 
L 484.0065 312.001473 
L 485.208 313.052244 
L 486.4095 313.820557 
L 487.611 314.166655 
L 488.8125 315.242339 
L 490.014 315.908802 
L 491.2155 316.416625 
L 492.417 317.365246 
L 496.0215 319.605343 
L 497.223 320.533924 
L 498.4245 320.91846 
L 499.626 321.801213 
L 504.432 323.599958 
L 505.6335 324.332678 
L 506.835 324.920484 
L 508.0365 325.936244 
L 509.238 326.498814 
L 510.4395 327.328847 
L 511.641 327.946953 
L 512.8425 328.354873 
L 514.044 329.021343 
L 516.447 330.903785 
L 520.0515 332.901216 
L 523.656 334.962287 
L 524.8575 336.033081 
L 526.059 336.758967 
L 527.2605 337.271058 
L 532.0665 340.208285 
L 533.268 340.850183 
L 534.4695 341.651747 
L 538.074 343.51983 
L 539.2755 344.528334 
L 540.477 345.331062 
L 542.88 346.338656 
L 544.0815 347.201064 
L 545.283 347.785411 
L 546.4845 348.193211 
L 547.686 348.850835 
L 548.8875 349.370721 
L 551.2905 350.618683 
L 552.492 351.184725 
L 553.6935 352.002965 
L 559.701 354.933023 
L 560.9025 355.6648 
L 563.3055 357.437032 
L 564.507 358.005999 
L 565.7085 358.954103 
L 566.91 359.493217 
L 569.313 360.914021 
L 571.716 362.103317 
L 574.119 363.74172 
L 575.3205 364.365995 
L 576.522 365.204414 
L 577.7235 365.64454 
L 578.925 366.557959 
L 581.328 367.972996 
L 582.5295 368.401483 
L 583.731 369.142082 
L 584.9325 370.020043 
L 586.134 371.058225 
L 587.3355 371.509172 
L 589.7385 373.307131 
L 593.343 375.423739 
L 596.9475 377.348814 
L 598.149 378.312855 
L 599.3505 378.768016 
L 601.7535 380.086386 
L 605.358 382.443274 
L 606.5595 382.961926 
L 608.9625 384.595871 
L 610.164 385.423357 
L 611.3655 386.063431 
L 613.7685 387.917278 
L 614.97 388.411802 
L 616.1715 389.234437 
L 618.5745 390.631238 
L 619.776 391.548892 
L 623.3805 393.414596 
L 624.582 393.767359 
L 626.985 395.654996 
L 628.1865 396.111259 
L 631.791 398.024035 
L 634.194 399.658436 
L 640.2015 402.980668 
L 641.403 403.851839 
L 642.6045 404.536337 
L 643.806 405.492251 
L 645.0075 406.191991 
L 646.209 407.249237 
L 647.4105 408.11313 
L 649.8135 409.497846 
L 651.015 409.877645 
L 653.418 411.828642 
L 654.6195 412.493673 
L 655.821 413.681968 
L 658.224 415.150418 
L 663.03 417.550891 
L 664.2315 417.994651 
L 665.433 418.768568 
L 666.6345 419.310533 
L 670.239 421.85042 
L 671.4405 422.421539 
L 672.642 422.823683 
L 673.8435 423.435184 
L 676.2465 425.575566 
L 678.6495 426.714164 
L 679.851 427.511775 
L 681.0525 428.10826 
L 682.254 428.483134 
L 684.657 429.963485 
L 685.8585 431.169321 
L 688.2615 432.634066 
L 690.6645 433.932802 
L 691.866 434.291235 
L 693.0675 434.869772 
L 696.672 437.139773 
L 697.8735 437.643314 
L 705.0825 442.230583 
L 706.284 443.091794 
L 708.687 444.372111 
L 709.8885 444.841183 
L 712.2915 446.323064 
L 717.0975 449.626684 
L 718.299 450.188909 
L 719.5005 451.017217 
L 720.702 451.468908 
L 721.9035 452.423499 
L 725.508 454.44843 
L 726.7095 455.093699 
L 727.911 455.605131 
L 729.1125 456.716742 
L 732.717 459.367593 
L 733.9185 460.120603 
L 735.12 460.632939 
L 736.3215 461.667305 
L 738.7245 463.369614 
L 741.1275 464.611486 
L 743.5305 466.574293 
L 744.732 467.048981 
L 745.9335 467.649018 
L 747.135 468.4584 
L 748.3365 469.116885 
L 749.538 470.050141 
L 750.7395 470.768453 
L 751.941 471.703456 
L 753.1425 472.337988 
L 754.344 473.248672 
L 757.9485 474.935569 
L 759.15 475.688428 
L 763.956 478.193727 
L 768.762 481.011877 
L 769.9635 481.989616 
L 773.568 483.804868 
L 774.7695 484.516567 
L 775.971 484.934491 
L 778.374 486.036884 
L 783.18 488.157176 
L 784.3815 489.147732 
L 785.583 489.451042 
L 787.986 490.77575 
L 790.389 492.113188 
L 791.5905 492.737614 
L 792.792 493.710552 
L 796.3965 495.658333 
L 800.001 498.117516 
L 801.2025 498.879452 
L 804.807 500.569405 
L 807.21 502.008955 
L 808.4115 502.363937 
L 809.613 503.265868 
L 812.016 504.756757 
L 814.419 505.854432 
L 816.822 508.081841 
L 819.225 509.737266 
L 820.4265 510.246211 
L 821.628 511.174103 
L 822.8295 511.835425 
L 824.031 512.297215 
L 825.2325 513.194048 
L 826.434 513.767992 
L 836.046 519.760728 
L 838.449 521.044739 
L 839.6505 522.1643 
L 840.852 523.073076 
L 843.255 524.455303 
L 844.4565 525.05968 
L 846.8595 526.618496 
L 850.464 528.488001 
L 851.6655 529.36039 
L 854.0685 530.465144 
L 856.4715 531.525626 
L 860.076 533.713304 
L 862.479 535.015453 
L 863.6805 535.515459 
L 864.882 536.339612 
L 867.285 537.428613 
L 869.688 538.813441 
L 870.8895 540.004697 
L 873.2925 541.151412 
L 874.494 541.460443 
L 875.6955 542.199527 
L 876.897 543.185223 
L 878.0985 543.972224 
L 879.3 544.384527 
L 882.9045 546.413076 
L 884.106 547.169185 
L 885.3075 548.183762 
L 888.912 550.053962 
L 890.1135 550.516212 
L 891.315 551.577306 
L 892.5165 552.074258 
L 894.9195 553.46928 
L 896.121 554.013956 
L 897.3225 555.104709 
L 902.1285 557.308569 
L 903.33 557.957773 
L 904.5315 558.860413 
L 905.733 559.169123 
L 911.7405 563.112079 
L 912.942 563.533178 
L 917.748 566.406962 
L 918.9495 566.928045 
L 923.7555 570.197142 
L 926.1585 571.170117 
L 927.36 571.855046 
L 928.5615 572.822283 
L 936.972 577.827971 
L 938.1735 578.652926 
L 939.375 579.194965 
L 941.778 580.801608 
L 946.584 582.745067 
L 948.987 584.400869 
L 951.39 585.920528 
L 953.793 587.429348 
L 957.3975 589.537 
L 961.002 591.266512 
L 962.2035 592.182015 
L 964.6065 593.518037 
L 965.808 594.14613 
L 969.4125 596.500429 
L 970.614 597.460068 
L 971.8155 597.986478 
L 973.017 599.019786 
L 974.2185 599.758939 
L 975.42 600.947364 
L 976.6215 601.544197 
L 977.823 602.392051 
L 980.226 603.212659 
L 981.4275 604.198345 
L 982.629 604.927342 
L 985.032 606.905085 
L 986.2335 607.323921 
L 987.435 608.211092 
L 989.838 609.292961 
L 991.0395 610.277604 
L 992.241 610.891218 
L 993.4425 611.640151 
L 994.644 612.652343 
L 997.047 613.954861 
L 998.2485 615.05874 
L 999.45 615.640578 
L 1001.853 617.327449 
L 1003.0545 617.824937 
L 1004.256 618.599095 
L 1006.659 619.632256 
L 1007.8605 620.619376 
L 1009.062 621.127706 
L 1010.2635 621.940761 
L 1011.465 622.600916 
L 1012.6665 623.390157 
L 1016.271 625.098348 
L 1017.4725 626.195419 
L 1018.674 627.058114 
L 1019.8755 627.75464 
L 1021.077 629.011842 
L 1023.48 630.285895 
L 1025.883 631.943542 
L 1028.286 633.426773 
L 1029.4875 634.277141 
L 1030.689 634.889799 
L 1031.8905 635.752451 
L 1033.092 636.341598 
L 1034.2935 637.271754 
L 1036.6965 638.49166 
L 1037.898 639.004205 
L 1040.301 640.28219 
L 1041.5025 641.147169 
L 1042.704 642.207517 
L 1043.9055 642.933914 
L 1045.107 643.43229 
L 1046.3085 644.23131 
L 1048.7115 646.143424 
L 1049.913 646.914431 
L 1051.1145 647.461699 
L 1052.316 648.569642 
L 1054.719 650.154282 
L 1058.3235 651.901176 
L 1059.525 652.782475 
L 1060.7265 653.327745 
L 1069.137 658.229692 
L 1070.3385 659.173479 
L 1071.54 660.364378 
L 1073.943 661.674906 
L 1075.1445 662.654924 
L 1076.346 663.430105 
L 1077.5475 664.38555 
L 1078.749 664.811251 
L 1081.152 666.333106 
L 1082.3535 666.964189 
L 1083.555 667.421966 
L 1084.7565 668.224092 
L 1088.361 669.755147 
L 1089.5625 670.745322 
L 1090.764 671.423507 
L 1091.9655 671.916136 
L 1100.376 677.028205 
L 1102.779 678.678101 
L 1103.9805 679.033978 
L 1107.585 681.4604 
L 1108.7865 682.014461 
L 1111.1895 683.522933 
L 1112.391 684.408268 
L 1117.197 687.039207 
L 1118.3985 687.496832 
L 1120.8015 688.777985 
L 1122.003 689.50046 
L 1123.2045 689.810667 
L 1128.0105 692.73784 
L 1129.212 693.311265 
L 1130.4135 694.111774 
L 1131.615 694.642244 
L 1132.8165 695.369539 
L 1134.018 696.538964 
L 1136.421 697.546791 
L 1137.6225 698.149838 
L 1140.0255 699.521399 
L 1141.227 700.095293 
L 1142.4285 700.974441 
L 1143.63 701.483668 
L 1144.8315 702.333157 
L 1148.436 704.12138 
L 1149.6375 704.975036 
L 1154.4435 707.161922 
L 1156.8465 708.181158 
L 1158.048 709.184127 
L 1161.6525 710.424424 
L 1162.854 711.061288 
L 1166.4585 711.930499 
L 1167.66 712.052167 
L 1168.8615 712.443156 
L 1170.063 712.638282 
L 1171.2645 713.024876 
L 1172.466 713.6029 
L 1173.6675 713.523639 
L 1174.869 713.624005 
L 1176.0705 714.191882 
L 1177.272 714.235571 
L 1178.4735 714.615115 
L 1179.675 714.360832 
L 1182.078 714.837342 
L 1183.2795 714.751732 
L 1184.481 715.129499 
L 1185.6825 714.839757 
L 1188.0855 715.253323 
L 1192.8915 715.424695 
L 1195.2945 715.173107 
L 1196.496 715.288156 
L 1197.6975 715.280059 
L 1198.899 715.035767 
L 1200.1005 715.600976 
L 1201.302 716.018199 
L 1202.5035 715.558798 
L 1203.705 715.312843 
L 1207.3095 715.61119 
L 1208.511 715.14116 
L 1214.5185 715.412151 
L 1215.72 715.666334 
L 1219.3245 715.69931 
L 1220.526 715.516182 
L 1221.7275 715.510848 
L 1222.929 715.777902 
L 1224.1305 715.882341 
L 1225.332 715.724777 
L 1226.5335 715.712867 
L 1227.735 715.563159 
L 1228.9365 715.92946 
L 1232.541 715.395686 
L 1234.944 715.757538 
L 1237.347 715.624113 
L 1238.5485 716.174927 
L 1239.75 715.863745 
L 1240.9515 716.015279 
L 1243.3545 716.07435 
L 1244.556 716.135632 
L 1245.7575 716.431911 
L 1246.959 716.529037 
L 1248.1605 716.105179 
L 1250.5635 715.566582 
L 1251.765 715.572818 
L 1252.9665 715.279774 
L 1254.168 715.309392 
L 1256.571 715.656712 
L 1258.974 715.413596 
L 1260.1755 715.889843 
L 1261.377 715.820237 
L 1263.78 716.336685 
L 1264.9815 716.120608 
L 1268.586 716.597598 
L 1269.7875 716.55659 
L 1272.1905 716.896816 
L 1273.392 716.741527 
L 1274.5935 717.070615 
L 1275.795 717.652282 
L 1276.9965 717.247634 
L 1278.198 717.072968 
L 1279.3995 717.061295 
L 1280.601 717.166777 
L 1281.8025 717.101951 
L 1283.004 717.462556 
L 1284.2055 717.193331 
L 1285.407 717.270672 
L 1286.6085 717.047378 
L 1287.81 717.049258 
L 1289.0115 717.649975 
L 1290.213 717.805139 
L 1291.4145 717.800668 
L 1293.8175 717.554135 
L 1295.019 717.662751 
L 1297.422 717.51277 
L 1298.6235 717.910728 
L 1301.0265 717.249662 
L 1302.228 717.506641 
L 1303.4295 717.19793 
L 1305.8325 717.370701 
L 1307.034 717.575996 
L 1308.2355 717.357794 
L 1309.437 717.408307 
L 1310.6385 717.243917 
L 1311.84 716.936833 
L 1314.243 717.252876 
L 1315.4445 717.216338 
L 1316.646 717.293177 
L 1317.8475 717.109056 
L 1319.049 717.079076 
L 1320.2505 717.285333 
L 1322.6535 717.147008 
L 1323.855 717.103033 
L 1325.0565 717.187816 
L 1326.258 717.075318 
L 1327.4595 716.836944 
L 1329.8625 717.309602 
L 1331.064 717.335416 
L 1332.2655 716.965262 
L 1333.467 716.847968 
L 1334.6685 716.843963 
L 1335.87 716.545381 
L 1337.0715 716.699761 
L 1338.273 716.9806 
L 1341.8775 716.843839 
L 1343.079 716.690267 
L 1345.482 716.715931 
L 1346.6835 716.74338 
L 1347.885 717.310137 
L 1349.0865 717.275911 
L 1352.691 716.835341 
L 1353.8925 717.201109 
L 1355.094 717.067961 
L 1356.2955 717.047631 
L 1357.497 716.808603 
L 1358.6985 716.840349 
L 1358.6985 716.840349 
" style="fill:none;stroke:#008000;stroke-linecap:square;stroke-width:2.0;"/>
   </g>
   <g id="patch_3">
    <path d="M 158.4 51.3 
L 1359.9 51.3 
" style="fill:none;stroke:#000000;stroke-linecap:square;stroke-linejoin:miter;"/>
   </g>
   <g id="patch_4">
    <path d="M 1359.9 747 
L 1359.9 51.3 
" style="fill:none;stroke:#000000;stroke-linecap:square;stroke-linejoin:miter;"/>
   </g>
   <g id="patch_5">
    <path d="M 158.4 747 
L 1359.9 747 
" style="fill:none;stroke:#000000;stroke-linecap:square;stroke-linejoin:miter;"/>
   </g>
   <g id="patch_6">
    <path d="M 158.4 747 
L 158.4 51.3 
" style="fill:none;stroke:#000000;stroke-linecap:square;stroke-linejoin:miter;"/>
   </g>
   <g id="matplotlib.axis_1">
    <g id="xtick_1">
     <g id="line2d_3">
      <defs>
       <path d="M 0 0 
L 0 -4 
" id="maaf1f336b8" style="stroke:#000000;stroke-width:0.5;"/>
      </defs>
      <g>
       <use style="stroke:#000000;stroke-width:0.5;" x="158.4" xlink:href="#maaf1f336b8" y="747.0"/>
      </g>
     </g>
     <g id="line2d_4">
      <defs>
       <path d="M 0 0 
L 0 4 
" id="mbb15c79880" style="stroke:#000000;stroke-width:0.5;"/>
      </defs>
      <g>
       <use style="stroke:#000000;stroke-width:0.5;" x="158.4" xlink:href="#mbb15c79880" y="51.3"/>
      </g>
     </g>
     <g id="text_1">
      <!-- 0 -->
      <defs>
       <path d="M 31.78125 66.40625 
Q 24.171875 66.40625 20.328125 58.90625 
Q 16.5 51.421875 16.5 36.375 
Q 16.5 21.390625 20.328125 13.890625 
Q 24.171875 6.390625 31.78125 6.390625 
Q 39.453125 6.390625 43.28125 13.890625 
Q 47.125 21.390625 47.125 36.375 
Q 47.125 51.421875 43.28125 58.90625 
Q 39.453125 66.40625 31.78125 66.40625 
M 31.78125 74.21875 
Q 44.046875 74.21875 50.515625 64.515625 
Q 56.984375 54.828125 56.984375 36.375 
Q 56.984375 17.96875 50.515625 8.265625 
Q 44.046875 -1.421875 31.78125 -1.421875 
Q 19.53125 -1.421875 13.0625 8.265625 
Q 6.59375 17.96875 6.59375 36.375 
Q 6.59375 54.828125 13.0625 64.515625 
Q 19.53125 74.21875 31.78125 74.21875 
" id="BitstreamVeraSans-Roman-30"/>
      </defs>
      <g transform="translate(148.85625 773.7953125)scale(0.3 -0.3)">
       <use xlink:href="#BitstreamVeraSans-Roman-30"/>
      </g>
     </g>
    </g>
    <g id="xtick_2">
     <g id="line2d_5">
      <g>
       <use style="stroke:#000000;stroke-width:0.5;" x="398.7" xlink:href="#maaf1f336b8" y="747.0"/>
      </g>
     </g>
     <g id="line2d_6">
      <g>
       <use style="stroke:#000000;stroke-width:0.5;" x="398.7" xlink:href="#mbb15c79880" y="51.3"/>
      </g>
     </g>
     <g id="text_2">
      <!-- 200 -->
      <defs>
       <path d="M 19.1875 8.296875 
L 53.609375 8.296875 
L 53.609375 0 
L 7.328125 0 
L 7.328125 8.296875 
Q 12.9375 14.109375 22.625 23.890625 
Q 32.328125 33.6875 34.8125 36.53125 
Q 39.546875 41.84375 41.421875 45.53125 
Q 43.3125 49.21875 43.3125 52.78125 
Q 43.3125 58.59375 39.234375 62.25 
Q 35.15625 65.921875 28.609375 65.921875 
Q 23.96875 65.921875 18.8125 64.3125 
Q 13.671875 62.703125 7.8125 59.421875 
L 7.8125 69.390625 
Q 13.765625 71.78125 18.9375 73 
Q 24.125 74.21875 28.421875 74.21875 
Q 39.75 74.21875 46.484375 68.546875 
Q 53.21875 62.890625 53.21875 53.421875 
Q 53.21875 48.921875 51.53125 44.890625 
Q 49.859375 40.875 45.40625 35.40625 
Q 44.1875 33.984375 37.640625 27.21875 
Q 31.109375 20.453125 19.1875 8.296875 
" id="BitstreamVeraSans-Roman-32"/>
      </defs>
      <g transform="translate(370.06875 773.7953125)scale(0.3 -0.3)">
       <use xlink:href="#BitstreamVeraSans-Roman-32"/>
       <use x="63.623046875" xlink:href="#BitstreamVeraSans-Roman-30"/>
       <use x="127.24609375" xlink:href="#BitstreamVeraSans-Roman-30"/>
      </g>
     </g>
    </g>
    <g id="xtick_3">
     <g id="line2d_7">
      <g>
       <use style="stroke:#000000;stroke-width:0.5;" x="639.0" xlink:href="#maaf1f336b8" y="747.0"/>
      </g>
     </g>
     <g id="line2d_8">
      <g>
       <use style="stroke:#000000;stroke-width:0.5;" x="639.0" xlink:href="#mbb15c79880" y="51.3"/>
      </g>
     </g>
     <g id="text_3">
      <!-- 400 -->
      <defs>
       <path d="M 37.796875 64.3125 
L 12.890625 25.390625 
L 37.796875 25.390625 
z
M 35.203125 72.90625 
L 47.609375 72.90625 
L 47.609375 25.390625 
L 58.015625 25.390625 
L 58.015625 17.1875 
L 47.609375 17.1875 
L 47.609375 0 
L 37.796875 0 
L 37.796875 17.1875 
L 4.890625 17.1875 
L 4.890625 26.703125 
z
" id="BitstreamVeraSans-Roman-34"/>
      </defs>
      <g transform="translate(610.36875 773.7953125)scale(0.3 -0.3)">
       <use xlink:href="#BitstreamVeraSans-Roman-34"/>
       <use x="63.623046875" xlink:href="#BitstreamVeraSans-Roman-30"/>
       <use x="127.24609375" xlink:href="#BitstreamVeraSans-Roman-30"/>
      </g>
     </g>
    </g>
    <g id="xtick_4">
     <g id="line2d_9">
      <g>
       <use style="stroke:#000000;stroke-width:0.5;" x="879.3" xlink:href="#maaf1f336b8" y="747.0"/>
      </g>
     </g>
     <g id="line2d_10">
      <g>
       <use style="stroke:#000000;stroke-width:0.5;" x="879.3" xlink:href="#mbb15c79880" y="51.3"/>
      </g>
     </g>
     <g id="text_4">
      <!-- 600 -->
      <defs>
       <path d="M 33.015625 40.375 
Q 26.375 40.375 22.484375 35.828125 
Q 18.609375 31.296875 18.609375 23.390625 
Q 18.609375 15.53125 22.484375 10.953125 
Q 26.375 6.390625 33.015625 6.390625 
Q 39.65625 6.390625 43.53125 10.953125 
Q 47.40625 15.53125 47.40625 23.390625 
Q 47.40625 31.296875 43.53125 35.828125 
Q 39.65625 40.375 33.015625 40.375 
M 52.59375 71.296875 
L 52.59375 62.3125 
Q 48.875 64.0625 45.09375 64.984375 
Q 41.3125 65.921875 37.59375 65.921875 
Q 27.828125 65.921875 22.671875 59.328125 
Q 17.53125 52.734375 16.796875 39.40625 
Q 19.671875 43.65625 24.015625 45.921875 
Q 28.375 48.1875 33.59375 48.1875 
Q 44.578125 48.1875 50.953125 41.515625 
Q 57.328125 34.859375 57.328125 23.390625 
Q 57.328125 12.15625 50.6875 5.359375 
Q 44.046875 -1.421875 33.015625 -1.421875 
Q 20.359375 -1.421875 13.671875 8.265625 
Q 6.984375 17.96875 6.984375 36.375 
Q 6.984375 53.65625 15.1875 63.9375 
Q 23.390625 74.21875 37.203125 74.21875 
Q 40.921875 74.21875 44.703125 73.484375 
Q 48.484375 72.75 52.59375 71.296875 
" id="BitstreamVeraSans-Roman-36"/>
      </defs>
      <g transform="translate(850.66875 773.7953125)scale(0.3 -0.3)">
       <use xlink:href="#BitstreamVeraSans-Roman-36"/>
       <use x="63.623046875" xlink:href="#BitstreamVeraSans-Roman-30"/>
       <use x="127.24609375" xlink:href="#BitstreamVeraSans-Roman-30"/>
      </g>
     </g>
    </g>
    <g id="xtick_5">
     <g id="line2d_11">
      <g>
       <use style="stroke:#000000;stroke-width:0.5;" x="1119.6" xlink:href="#maaf1f336b8" y="747.0"/>
      </g>
     </g>
     <g id="line2d_12">
      <g>
       <use style="stroke:#000000;stroke-width:0.5;" x="1119.6" xlink:href="#mbb15c79880" y="51.3"/>
      </g>
     </g>
     <g id="text_5">
      <!-- 800 -->
      <defs>
       <path d="M 31.78125 34.625 
Q 24.75 34.625 20.71875 30.859375 
Q 16.703125 27.09375 16.703125 20.515625 
Q 16.703125 13.921875 20.71875 10.15625 
Q 24.75 6.390625 31.78125 6.390625 
Q 38.8125 6.390625 42.859375 10.171875 
Q 46.921875 13.96875 46.921875 20.515625 
Q 46.921875 27.09375 42.890625 30.859375 
Q 38.875 34.625 31.78125 34.625 
M 21.921875 38.8125 
Q 15.578125 40.375 12.03125 44.71875 
Q 8.5 49.078125 8.5 55.328125 
Q 8.5 64.0625 14.71875 69.140625 
Q 20.953125 74.21875 31.78125 74.21875 
Q 42.671875 74.21875 48.875 69.140625 
Q 55.078125 64.0625 55.078125 55.328125 
Q 55.078125 49.078125 51.53125 44.71875 
Q 48 40.375 41.703125 38.8125 
Q 48.828125 37.15625 52.796875 32.3125 
Q 56.78125 27.484375 56.78125 20.515625 
Q 56.78125 9.90625 50.3125 4.234375 
Q 43.84375 -1.421875 31.78125 -1.421875 
Q 19.734375 -1.421875 13.25 4.234375 
Q 6.78125 9.90625 6.78125 20.515625 
Q 6.78125 27.484375 10.78125 32.3125 
Q 14.796875 37.15625 21.921875 38.8125 
M 18.3125 54.390625 
Q 18.3125 48.734375 21.84375 45.5625 
Q 25.390625 42.390625 31.78125 42.390625 
Q 38.140625 42.390625 41.71875 45.5625 
Q 45.3125 48.734375 45.3125 54.390625 
Q 45.3125 60.0625 41.71875 63.234375 
Q 38.140625 66.40625 31.78125 66.40625 
Q 25.390625 66.40625 21.84375 63.234375 
Q 18.3125 60.0625 18.3125 54.390625 
" id="BitstreamVeraSans-Roman-38"/>
      </defs>
      <g transform="translate(1090.96875 773.7953125)scale(0.3 -0.3)">
       <use xlink:href="#BitstreamVeraSans-Roman-38"/>
       <use x="63.623046875" xlink:href="#BitstreamVeraSans-Roman-30"/>
       <use x="127.24609375" xlink:href="#BitstreamVeraSans-Roman-30"/>
      </g>
     </g>
    </g>
    <g id="xtick_6">
     <g id="line2d_13">
      <g>
       <use style="stroke:#000000;stroke-width:0.5;" x="1359.9" xlink:href="#maaf1f336b8" y="747.0"/>
      </g>
     </g>
     <g id="line2d_14">
      <g>
       <use style="stroke:#000000;stroke-width:0.5;" x="1359.9" xlink:href="#mbb15c79880" y="51.3"/>
      </g>
     </g>
     <g id="text_6">
      <!-- 1000 -->
      <defs>
       <path d="M 12.40625 8.296875 
L 28.515625 8.296875 
L 28.515625 63.921875 
L 10.984375 60.40625 
L 10.984375 69.390625 
L 28.421875 72.90625 
L 38.28125 72.90625 
L 38.28125 8.296875 
L 54.390625 8.296875 
L 54.390625 0 
L 12.40625 0 
z
" id="BitstreamVeraSans-Roman-31"/>
      </defs>
      <g transform="translate(1321.725 773.7953125)scale(0.3 -0.3)">
       <use xlink:href="#BitstreamVeraSans-Roman-31"/>
       <use x="63.623046875" xlink:href="#BitstreamVeraSans-Roman-30"/>
       <use x="127.24609375" xlink:href="#BitstreamVeraSans-Roman-30"/>
       <use x="190.869140625" xlink:href="#BitstreamVeraSans-Roman-30"/>
      </g>
     </g>
    </g>
    <g id="text_7">
     <!-- iterations -->
     <defs>
      <path d="M 54.890625 33.015625 
L 54.890625 0 
L 45.90625 0 
L 45.90625 32.71875 
Q 45.90625 40.484375 42.875 44.328125 
Q 39.84375 48.1875 33.796875 48.1875 
Q 26.515625 48.1875 22.3125 43.546875 
Q 18.109375 38.921875 18.109375 30.90625 
L 18.109375 0 
L 9.078125 0 
L 9.078125 54.6875 
L 18.109375 54.6875 
L 18.109375 46.1875 
Q 21.34375 51.125 25.703125 53.5625 
Q 30.078125 56 35.796875 56 
Q 45.21875 56 50.046875 50.171875 
Q 54.890625 44.34375 54.890625 33.015625 
" id="BitstreamVeraSans-Roman-6e"/>
      <path d="M 34.28125 27.484375 
Q 23.390625 27.484375 19.1875 25 
Q 14.984375 22.515625 14.984375 16.5 
Q 14.984375 11.71875 18.140625 8.90625 
Q 21.296875 6.109375 26.703125 6.109375 
Q 34.1875 6.109375 38.703125 11.40625 
Q 43.21875 16.703125 43.21875 25.484375 
L 43.21875 27.484375 
z
M 52.203125 31.203125 
L 52.203125 0 
L 43.21875 0 
L 43.21875 8.296875 
Q 40.140625 3.328125 35.546875 0.953125 
Q 30.953125 -1.421875 24.3125 -1.421875 
Q 15.921875 -1.421875 10.953125 3.296875 
Q 6 8.015625 6 15.921875 
Q 6 25.140625 12.171875 29.828125 
Q 18.359375 34.515625 30.609375 34.515625 
L 43.21875 34.515625 
L 43.21875 35.40625 
Q 43.21875 41.609375 39.140625 45 
Q 35.0625 48.390625 27.6875 48.390625 
Q 23 48.390625 18.546875 47.265625 
Q 14.109375 46.140625 10.015625 43.890625 
L 10.015625 52.203125 
Q 14.9375 54.109375 19.578125 55.046875 
Q 24.21875 56 28.609375 56 
Q 40.484375 56 46.34375 49.84375 
Q 52.203125 43.703125 52.203125 31.203125 
" id="BitstreamVeraSans-Roman-61"/>
      <path d="M 30.609375 48.390625 
Q 23.390625 48.390625 19.1875 42.75 
Q 14.984375 37.109375 14.984375 27.296875 
Q 14.984375 17.484375 19.15625 11.84375 
Q 23.34375 6.203125 30.609375 6.203125 
Q 37.796875 6.203125 41.984375 11.859375 
Q 46.1875 17.53125 46.1875 27.296875 
Q 46.1875 37.015625 41.984375 42.703125 
Q 37.796875 48.390625 30.609375 48.390625 
M 30.609375 56 
Q 42.328125 56 49.015625 48.375 
Q 55.71875 40.765625 55.71875 27.296875 
Q 55.71875 13.875 49.015625 6.21875 
Q 42.328125 -1.421875 30.609375 -1.421875 
Q 18.84375 -1.421875 12.171875 6.21875 
Q 5.515625 13.875 5.515625 27.296875 
Q 5.515625 40.765625 12.171875 48.375 
Q 18.84375 56 30.609375 56 
" id="BitstreamVeraSans-Roman-6f"/>
      <path d="M 9.421875 54.6875 
L 18.40625 54.6875 
L 18.40625 0 
L 9.421875 0 
z
M 9.421875 75.984375 
L 18.40625 75.984375 
L 18.40625 64.59375 
L 9.421875 64.59375 
z
" id="BitstreamVeraSans-Roman-69"/>
      <path d="M 56.203125 29.59375 
L 56.203125 25.203125 
L 14.890625 25.203125 
Q 15.484375 15.921875 20.484375 11.0625 
Q 25.484375 6.203125 34.421875 6.203125 
Q 39.59375 6.203125 44.453125 7.46875 
Q 49.3125 8.734375 54.109375 11.28125 
L 54.109375 2.78125 
Q 49.265625 0.734375 44.1875 -0.34375 
Q 39.109375 -1.421875 33.890625 -1.421875 
Q 20.796875 -1.421875 13.15625 6.1875 
Q 5.515625 13.8125 5.515625 26.8125 
Q 5.515625 40.234375 12.765625 48.109375 
Q 20.015625 56 32.328125 56 
Q 43.359375 56 49.78125 48.890625 
Q 56.203125 41.796875 56.203125 29.59375 
M 47.21875 32.234375 
Q 47.125 39.59375 43.09375 43.984375 
Q 39.0625 48.390625 32.421875 48.390625 
Q 24.90625 48.390625 20.390625 44.140625 
Q 15.875 39.890625 15.1875 32.171875 
z
" id="BitstreamVeraSans-Roman-65"/>
      <path d="M 18.3125 70.21875 
L 18.3125 54.6875 
L 36.8125 54.6875 
L 36.8125 47.703125 
L 18.3125 47.703125 
L 18.3125 18.015625 
Q 18.3125 11.328125 20.140625 9.421875 
Q 21.96875 7.515625 27.59375 7.515625 
L 36.8125 7.515625 
L 36.8125 0 
L 27.59375 0 
Q 17.1875 0 13.234375 3.875 
Q 9.28125 7.765625 9.28125 18.015625 
L 9.28125 47.703125 
L 2.6875 47.703125 
L 2.6875 54.6875 
L 9.28125 54.6875 
L 9.28125 70.21875 
z
" id="BitstreamVeraSans-Roman-74"/>
      <path d="M 41.109375 46.296875 
Q 39.59375 47.171875 37.8125 47.578125 
Q 36.03125 48 33.890625 48 
Q 26.265625 48 22.1875 43.046875 
Q 18.109375 38.09375 18.109375 28.8125 
L 18.109375 0 
L 9.078125 0 
L 9.078125 54.6875 
L 18.109375 54.6875 
L 18.109375 46.1875 
Q 20.953125 51.171875 25.484375 53.578125 
Q 30.03125 56 36.53125 56 
Q 37.453125 56 38.578125 55.875 
Q 39.703125 55.765625 41.0625 55.515625 
z
" id="BitstreamVeraSans-Roman-72"/>
      <path d="M 44.28125 53.078125 
L 44.28125 44.578125 
Q 40.484375 46.53125 36.375 47.5 
Q 32.28125 48.484375 27.875 48.484375 
Q 21.1875 48.484375 17.84375 46.4375 
Q 14.5 44.390625 14.5 40.28125 
Q 14.5 37.15625 16.890625 35.375 
Q 19.28125 33.59375 26.515625 31.984375 
L 29.59375 31.296875 
Q 39.15625 29.25 43.1875 25.515625 
Q 47.21875 21.78125 47.21875 15.09375 
Q 47.21875 7.46875 41.1875 3.015625 
Q 35.15625 -1.421875 24.609375 -1.421875 
Q 20.21875 -1.421875 15.453125 -0.5625 
Q 10.6875 0.296875 5.421875 2 
L 5.421875 11.28125 
Q 10.40625 8.6875 15.234375 7.390625 
Q 20.0625 6.109375 24.8125 6.109375 
Q 31.15625 6.109375 34.5625 8.28125 
Q 37.984375 10.453125 37.984375 14.40625 
Q 37.984375 18.0625 35.515625 20.015625 
Q 33.0625 21.96875 24.703125 23.78125 
L 21.578125 24.515625 
Q 13.234375 26.265625 9.515625 29.90625 
Q 5.8125 33.546875 5.8125 39.890625 
Q 5.8125 47.609375 11.28125 51.796875 
Q 16.75 56 26.8125 56 
Q 31.78125 56 36.171875 55.265625 
Q 40.578125 54.546875 44.28125 53.078125 
" id="BitstreamVeraSans-Roman-73"/>
     </defs>
     <g transform="translate(687.96796875 807.8296875)scale(0.3 -0.3)">
      <use xlink:href="#BitstreamVeraSans-Roman-69"/>
      <use x="27.783203125" xlink:href="#BitstreamVeraSans-Roman-74"/>
      <use x="66.9921875" xlink:href="#BitstreamVeraSans-Roman-65"/>
      <use x="128.515625" xlink:href="#BitstreamVeraSans-Roman-72"/>
      <use x="169.62890625" xlink:href="#BitstreamVeraSans-Roman-61"/>
      <use x="230.908203125" xlink:href="#BitstreamVeraSans-Roman-74"/>
      <use x="270.1171875" xlink:href="#BitstreamVeraSans-Roman-69"/>
      <use x="297.900390625" xlink:href="#BitstreamVeraSans-Roman-6f"/>
      <use x="359.08203125" xlink:href="#BitstreamVeraSans-Roman-6e"/>
      <use x="422.4609375" xlink:href="#BitstreamVeraSans-Roman-73"/>
     </g>
    </g>
   </g>
   <g id="matplotlib.axis_2">
    <g id="ytick_1">
     <g id="line2d_15">
      <defs>
       <path d="M 0 0 
L 4 0 
" id="m0abc3e410a" style="stroke:#000000;stroke-width:0.5;"/>
      </defs>
      <g>
       <use style="stroke:#000000;stroke-width:0.5;" x="158.4" xlink:href="#m0abc3e410a" y="747.0"/>
      </g>
     </g>
     <g id="line2d_16">
      <defs>
       <path d="M 0 0 
L -4 0 
" id="m5e9b622fe9" style="stroke:#000000;stroke-width:0.5;"/>
      </defs>
      <g>
       <use style="stroke:#000000;stroke-width:0.5;" x="1359.9" xlink:href="#m5e9b622fe9" y="747.0"/>
      </g>
     </g>
     <g id="text_8">
      <!-- −60 -->
      <defs>
       <path d="M 10.59375 35.5 
L 73.1875 35.5 
L 73.1875 27.203125 
L 10.59375 27.203125 
z
" id="BitstreamVeraSans-Roman-2212"/>
      </defs>
      <g transform="translate(91.0859375 755.278125)scale(0.3 -0.3)">
       <use xlink:href="#BitstreamVeraSans-Roman-2212"/>
       <use x="83.7890625" xlink:href="#BitstreamVeraSans-Roman-36"/>
       <use x="147.412109375" xlink:href="#BitstreamVeraSans-Roman-30"/>
      </g>
     </g>
    </g>
    <g id="ytick_2">
     <g id="line2d_17">
      <g>
       <use style="stroke:#000000;stroke-width:0.5;" x="158.4" xlink:href="#m0abc3e410a" y="660.0375"/>
      </g>
     </g>
     <g id="line2d_18">
      <g>
       <use style="stroke:#000000;stroke-width:0.5;" x="1359.9" xlink:href="#m5e9b622fe9" y="660.0375"/>
      </g>
     </g>
     <g id="text_9">
      <!-- −50 -->
      <defs>
       <path d="M 10.796875 72.90625 
L 49.515625 72.90625 
L 49.515625 64.59375 
L 19.828125 64.59375 
L 19.828125 46.734375 
Q 21.96875 47.46875 24.109375 47.828125 
Q 26.265625 48.1875 28.421875 48.1875 
Q 40.625 48.1875 47.75 41.5 
Q 54.890625 34.8125 54.890625 23.390625 
Q 54.890625 11.625 47.5625 5.09375 
Q 40.234375 -1.421875 26.90625 -1.421875 
Q 22.3125 -1.421875 17.546875 -0.640625 
Q 12.796875 0.140625 7.71875 1.703125 
L 7.71875 11.625 
Q 12.109375 9.234375 16.796875 8.0625 
Q 21.484375 6.890625 26.703125 6.890625 
Q 35.15625 6.890625 40.078125 11.328125 
Q 45.015625 15.765625 45.015625 23.390625 
Q 45.015625 31 40.078125 35.4375 
Q 35.15625 39.890625 26.703125 39.890625 
Q 22.75 39.890625 18.8125 39.015625 
Q 14.890625 38.140625 10.796875 36.28125 
z
" id="BitstreamVeraSans-Roman-35"/>
      </defs>
      <g transform="translate(91.0859375 668.315625)scale(0.3 -0.3)">
       <use xlink:href="#BitstreamVeraSans-Roman-2212"/>
       <use x="83.7890625" xlink:href="#BitstreamVeraSans-Roman-35"/>
       <use x="147.412109375" xlink:href="#BitstreamVeraSans-Roman-30"/>
      </g>
     </g>
    </g>
    <g id="ytick_3">
     <g id="line2d_19">
      <g>
       <use style="stroke:#000000;stroke-width:0.5;" x="158.4" xlink:href="#m0abc3e410a" y="573.075"/>
      </g>
     </g>
     <g id="line2d_20">
      <g>
       <use style="stroke:#000000;stroke-width:0.5;" x="1359.9" xlink:href="#m5e9b622fe9" y="573.075"/>
      </g>
     </g>
     <g id="text_10">
      <!-- −40 -->
      <g transform="translate(91.0859375 581.353125)scale(0.3 -0.3)">
       <use xlink:href="#BitstreamVeraSans-Roman-2212"/>
       <use x="83.7890625" xlink:href="#BitstreamVeraSans-Roman-34"/>
       <use x="147.412109375" xlink:href="#BitstreamVeraSans-Roman-30"/>
      </g>
     </g>
    </g>
    <g id="ytick_4">
     <g id="line2d_21">
      <g>
       <use style="stroke:#000000;stroke-width:0.5;" x="158.4" xlink:href="#m0abc3e410a" y="486.1125"/>
      </g>
     </g>
     <g id="line2d_22">
      <g>
       <use style="stroke:#000000;stroke-width:0.5;" x="1359.9" xlink:href="#m5e9b622fe9" y="486.1125"/>
      </g>
     </g>
     <g id="text_11">
      <!-- −30 -->
      <defs>
       <path d="M 40.578125 39.3125 
Q 47.65625 37.796875 51.625 33 
Q 55.609375 28.21875 55.609375 21.1875 
Q 55.609375 10.40625 48.1875 4.484375 
Q 40.765625 -1.421875 27.09375 -1.421875 
Q 22.515625 -1.421875 17.65625 -0.515625 
Q 12.796875 0.390625 7.625 2.203125 
L 7.625 11.71875 
Q 11.71875 9.328125 16.59375 8.109375 
Q 21.484375 6.890625 26.8125 6.890625 
Q 36.078125 6.890625 40.9375 10.546875 
Q 45.796875 14.203125 45.796875 21.1875 
Q 45.796875 27.640625 41.28125 31.265625 
Q 36.765625 34.90625 28.71875 34.90625 
L 20.21875 34.90625 
L 20.21875 43.015625 
L 29.109375 43.015625 
Q 36.375 43.015625 40.234375 45.921875 
Q 44.09375 48.828125 44.09375 54.296875 
Q 44.09375 59.90625 40.109375 62.90625 
Q 36.140625 65.921875 28.71875 65.921875 
Q 24.65625 65.921875 20.015625 65.03125 
Q 15.375 64.15625 9.8125 62.3125 
L 9.8125 71.09375 
Q 15.4375 72.65625 20.34375 73.4375 
Q 25.25 74.21875 29.59375 74.21875 
Q 40.828125 74.21875 47.359375 69.109375 
Q 53.90625 64.015625 53.90625 55.328125 
Q 53.90625 49.265625 50.4375 45.09375 
Q 46.96875 40.921875 40.578125 39.3125 
" id="BitstreamVeraSans-Roman-33"/>
      </defs>
      <g transform="translate(91.0859375 494.390625)scale(0.3 -0.3)">
       <use xlink:href="#BitstreamVeraSans-Roman-2212"/>
       <use x="83.7890625" xlink:href="#BitstreamVeraSans-Roman-33"/>
       <use x="147.412109375" xlink:href="#BitstreamVeraSans-Roman-30"/>
      </g>
     </g>
    </g>
    <g id="ytick_5">
     <g id="line2d_23">
      <g>
       <use style="stroke:#000000;stroke-width:0.5;" x="158.4" xlink:href="#m0abc3e410a" y="399.15"/>
      </g>
     </g>
     <g id="line2d_24">
      <g>
       <use style="stroke:#000000;stroke-width:0.5;" x="1359.9" xlink:href="#m5e9b622fe9" y="399.15"/>
      </g>
     </g>
     <g id="text_12">
      <!-- −20 -->
      <g transform="translate(91.0859375 407.428125)scale(0.3 -0.3)">
       <use xlink:href="#BitstreamVeraSans-Roman-2212"/>
       <use x="83.7890625" xlink:href="#BitstreamVeraSans-Roman-32"/>
       <use x="147.412109375" xlink:href="#BitstreamVeraSans-Roman-30"/>
      </g>
     </g>
    </g>
    <g id="ytick_6">
     <g id="line2d_25">
      <g>
       <use style="stroke:#000000;stroke-width:0.5;" x="158.4" xlink:href="#m0abc3e410a" y="312.1875"/>
      </g>
     </g>
     <g id="line2d_26">
      <g>
       <use style="stroke:#000000;stroke-width:0.5;" x="1359.9" xlink:href="#m5e9b622fe9" y="312.1875"/>
      </g>
     </g>
     <g id="text_13">
      <!-- −10 -->
      <g transform="translate(91.0859375 320.465625)scale(0.3 -0.3)">
       <use xlink:href="#BitstreamVeraSans-Roman-2212"/>
       <use x="83.7890625" xlink:href="#BitstreamVeraSans-Roman-31"/>
       <use x="147.412109375" xlink:href="#BitstreamVeraSans-Roman-30"/>
      </g>
     </g>
    </g>
    <g id="ytick_7">
     <g id="line2d_27">
      <g>
       <use style="stroke:#000000;stroke-width:0.5;" x="158.4" xlink:href="#m0abc3e410a" y="225.225"/>
      </g>
     </g>
     <g id="line2d_28">
      <g>
       <use style="stroke:#000000;stroke-width:0.5;" x="1359.9" xlink:href="#m5e9b622fe9" y="225.225"/>
      </g>
     </g>
     <g id="text_14">
      <!-- 0 -->
      <g transform="translate(135.3125 233.503125)scale(0.3 -0.3)">
       <use xlink:href="#BitstreamVeraSans-Roman-30"/>
      </g>
     </g>
    </g>
    <g id="ytick_8">
     <g id="line2d_29">
      <g>
       <use style="stroke:#000000;stroke-width:0.5;" x="158.4" xlink:href="#m0abc3e410a" y="138.2625"/>
      </g>
     </g>
     <g id="line2d_30">
      <g>
       <use style="stroke:#000000;stroke-width:0.5;" x="1359.9" xlink:href="#m5e9b622fe9" y="138.2625"/>
      </g>
     </g>
     <g id="text_15">
      <!-- 10 -->
      <g transform="translate(116.225 146.540625)scale(0.3 -0.3)">
       <use xlink:href="#BitstreamVeraSans-Roman-31"/>
       <use x="63.623046875" xlink:href="#BitstreamVeraSans-Roman-30"/>
      </g>
     </g>
    </g>
    <g id="ytick_9">
     <g id="line2d_31">
      <g>
       <use style="stroke:#000000;stroke-width:0.5;" x="158.4" xlink:href="#m0abc3e410a" y="51.3"/>
      </g>
     </g>
     <g id="line2d_32">
      <g>
       <use style="stroke:#000000;stroke-width:0.5;" x="1359.9" xlink:href="#m5e9b622fe9" y="51.3"/>
      </g>
     </g>
     <g id="text_16">
      <!-- 20 -->
      <g transform="translate(116.225 59.578125)scale(0.3 -0.3)">
       <use xlink:href="#BitstreamVeraSans-Roman-32"/>
       <use x="63.623046875" xlink:href="#BitstreamVeraSans-Roman-30"/>
      </g>
     </g>
    </g>
    <g id="text_17">
     <!-- log(loss) -->
     <defs>
      <path d="M 8.015625 75.875 
L 15.828125 75.875 
Q 23.140625 64.359375 26.78125 53.3125 
Q 30.421875 42.28125 30.421875 31.390625 
Q 30.421875 20.453125 26.78125 9.375 
Q 23.140625 -1.703125 15.828125 -13.1875 
L 8.015625 -13.1875 
Q 14.5 -2 17.703125 9.0625 
Q 20.90625 20.125 20.90625 31.390625 
Q 20.90625 42.671875 17.703125 53.65625 
Q 14.5 64.65625 8.015625 75.875 
" id="BitstreamVeraSans-Roman-29"/>
      <path d="M 31 75.875 
Q 24.46875 64.65625 21.28125 53.65625 
Q 18.109375 42.671875 18.109375 31.390625 
Q 18.109375 20.125 21.3125 9.0625 
Q 24.515625 -2 31 -13.1875 
L 23.1875 -13.1875 
Q 15.875 -1.703125 12.234375 9.375 
Q 8.59375 20.453125 8.59375 31.390625 
Q 8.59375 42.28125 12.203125 53.3125 
Q 15.828125 64.359375 23.1875 75.875 
z
" id="BitstreamVeraSans-Roman-28"/>
      <path d="M 45.40625 27.984375 
Q 45.40625 37.75 41.375 43.109375 
Q 37.359375 48.484375 30.078125 48.484375 
Q 22.859375 48.484375 18.828125 43.109375 
Q 14.796875 37.75 14.796875 27.984375 
Q 14.796875 18.265625 18.828125 12.890625 
Q 22.859375 7.515625 30.078125 7.515625 
Q 37.359375 7.515625 41.375 12.890625 
Q 45.40625 18.265625 45.40625 27.984375 
M 54.390625 6.78125 
Q 54.390625 -7.171875 48.1875 -13.984375 
Q 42 -20.796875 29.203125 -20.796875 
Q 24.46875 -20.796875 20.265625 -20.09375 
Q 16.0625 -19.390625 12.109375 -17.921875 
L 12.109375 -9.1875 
Q 16.0625 -11.328125 19.921875 -12.34375 
Q 23.78125 -13.375 27.78125 -13.375 
Q 36.625 -13.375 41.015625 -8.765625 
Q 45.40625 -4.15625 45.40625 5.171875 
L 45.40625 9.625 
Q 42.625 4.78125 38.28125 2.390625 
Q 33.9375 0 27.875 0 
Q 17.828125 0 11.671875 7.65625 
Q 5.515625 15.328125 5.515625 27.984375 
Q 5.515625 40.671875 11.671875 48.328125 
Q 17.828125 56 27.875 56 
Q 33.9375 56 38.28125 53.609375 
Q 42.625 51.21875 45.40625 46.390625 
L 45.40625 54.6875 
L 54.390625 54.6875 
z
" id="BitstreamVeraSans-Roman-67"/>
      <path d="M 9.421875 75.984375 
L 18.40625 75.984375 
L 18.40625 0 
L 9.421875 0 
z
" id="BitstreamVeraSans-Roman-6c"/>
     </defs>
     <g transform="translate(79.846875 462.69609375)rotate(-90.0)scale(0.3 -0.3)">
      <use xlink:href="#BitstreamVeraSans-Roman-6c"/>
      <use x="27.783203125" xlink:href="#BitstreamVeraSans-Roman-6f"/>
      <use x="88.96484375" xlink:href="#BitstreamVeraSans-Roman-67"/>
      <use x="152.44140625" xlink:href="#BitstreamVeraSans-Roman-28"/>
      <use x="191.455078125" xlink:href="#BitstreamVeraSans-Roman-6c"/>
      <use x="219.23828125" xlink:href="#BitstreamVeraSans-Roman-6f"/>
      <use x="280.419921875" xlink:href="#BitstreamVeraSans-Roman-73"/>
      <use x="332.51953125" xlink:href="#BitstreamVeraSans-Roman-73"/>
      <use x="384.619140625" xlink:href="#BitstreamVeraSans-Roman-29"/>
     </g>
    </g>
   </g>
   <g id="legend_1">
    <g id="patch_7">
     <path d="M 867.726562 163.36875 
L 1344.9 163.36875 
L 1344.9 66.3 
L 867.726562 66.3 
z
" style="fill:#ffffff;stroke:#000000;stroke-linejoin:miter;"/>
    </g>
    <g id="line2d_33">
     <path d="M 888.726562 90.595312 
L 930.726562 90.595312 
" style="fill:none;stroke:#0000ff;stroke-linecap:square;stroke-width:2.0;"/>
    </g>
    <g id="line2d_34"/>
    <g id="text_18">
     <!-- random: step=0.004893 -->
     <defs>
      <path id="BitstreamVeraSans-Roman-20"/>
      <path d="M 52 44.1875 
Q 55.375 50.25 60.0625 53.125 
Q 64.75 56 71.09375 56 
Q 79.640625 56 84.28125 50.015625 
Q 88.921875 44.046875 88.921875 33.015625 
L 88.921875 0 
L 79.890625 0 
L 79.890625 32.71875 
Q 79.890625 40.578125 77.09375 44.375 
Q 74.3125 48.1875 68.609375 48.1875 
Q 61.625 48.1875 57.5625 43.546875 
Q 53.515625 38.921875 53.515625 30.90625 
L 53.515625 0 
L 44.484375 0 
L 44.484375 32.71875 
Q 44.484375 40.625 41.703125 44.40625 
Q 38.921875 48.1875 33.109375 48.1875 
Q 26.21875 48.1875 22.15625 43.53125 
Q 18.109375 38.875 18.109375 30.90625 
L 18.109375 0 
L 9.078125 0 
L 9.078125 54.6875 
L 18.109375 54.6875 
L 18.109375 46.1875 
Q 21.1875 51.21875 25.484375 53.609375 
Q 29.78125 56 35.6875 56 
Q 41.65625 56 45.828125 52.96875 
Q 50 49.953125 52 44.1875 
" id="BitstreamVeraSans-Roman-6d"/>
      <path d="M 10.984375 1.515625 
L 10.984375 10.5 
Q 14.703125 8.734375 18.5 7.8125 
Q 22.3125 6.890625 25.984375 6.890625 
Q 35.75 6.890625 40.890625 13.453125 
Q 46.046875 20.015625 46.78125 33.40625 
Q 43.953125 29.203125 39.59375 26.953125 
Q 35.25 24.703125 29.984375 24.703125 
Q 19.046875 24.703125 12.671875 31.3125 
Q 6.296875 37.9375 6.296875 49.421875 
Q 6.296875 60.640625 12.9375 67.421875 
Q 19.578125 74.21875 30.609375 74.21875 
Q 43.265625 74.21875 49.921875 64.515625 
Q 56.59375 54.828125 56.59375 36.375 
Q 56.59375 19.140625 48.40625 8.859375 
Q 40.234375 -1.421875 26.421875 -1.421875 
Q 22.703125 -1.421875 18.890625 -0.6875 
Q 15.09375 0.046875 10.984375 1.515625 
M 30.609375 32.421875 
Q 37.25 32.421875 41.125 36.953125 
Q 45.015625 41.5 45.015625 49.421875 
Q 45.015625 57.28125 41.125 61.84375 
Q 37.25 66.40625 30.609375 66.40625 
Q 23.96875 66.40625 20.09375 61.84375 
Q 16.21875 57.28125 16.21875 49.421875 
Q 16.21875 41.5 20.09375 36.953125 
Q 23.96875 32.421875 30.609375 32.421875 
" id="BitstreamVeraSans-Roman-39"/>
      <path d="M 11.71875 12.40625 
L 22.015625 12.40625 
L 22.015625 0 
L 11.71875 0 
z
M 11.71875 51.703125 
L 22.015625 51.703125 
L 22.015625 39.3125 
L 11.71875 39.3125 
z
" id="BitstreamVeraSans-Roman-3a"/>
      <path d="M 10.6875 12.40625 
L 21 12.40625 
L 21 0 
L 10.6875 0 
z
" id="BitstreamVeraSans-Roman-2e"/>
      <path d="M 10.59375 45.40625 
L 73.1875 45.40625 
L 73.1875 37.203125 
L 10.59375 37.203125 
z
M 10.59375 25.484375 
L 73.1875 25.484375 
L 73.1875 17.1875 
L 10.59375 17.1875 
z
" id="BitstreamVeraSans-Roman-3d"/>
      <path d="M 45.40625 46.390625 
L 45.40625 75.984375 
L 54.390625 75.984375 
L 54.390625 0 
L 45.40625 0 
L 45.40625 8.203125 
Q 42.578125 3.328125 38.25 0.953125 
Q 33.9375 -1.421875 27.875 -1.421875 
Q 17.96875 -1.421875 11.734375 6.484375 
Q 5.515625 14.40625 5.515625 27.296875 
Q 5.515625 40.1875 11.734375 48.09375 
Q 17.96875 56 27.875 56 
Q 33.9375 56 38.25 53.625 
Q 42.578125 51.265625 45.40625 46.390625 
M 14.796875 27.296875 
Q 14.796875 17.390625 18.875 11.75 
Q 22.953125 6.109375 30.078125 6.109375 
Q 37.203125 6.109375 41.296875 11.75 
Q 45.40625 17.390625 45.40625 27.296875 
Q 45.40625 37.203125 41.296875 42.84375 
Q 37.203125 48.484375 30.078125 48.484375 
Q 22.953125 48.484375 18.875 42.84375 
Q 14.796875 37.203125 14.796875 27.296875 
" id="BitstreamVeraSans-Roman-64"/>
      <path d="M 18.109375 8.203125 
L 18.109375 -20.796875 
L 9.078125 -20.796875 
L 9.078125 54.6875 
L 18.109375 54.6875 
L 18.109375 46.390625 
Q 20.953125 51.265625 25.265625 53.625 
Q 29.59375 56 35.59375 56 
Q 45.5625 56 51.78125 48.09375 
Q 58.015625 40.1875 58.015625 27.296875 
Q 58.015625 14.40625 51.78125 6.484375 
Q 45.5625 -1.421875 35.59375 -1.421875 
Q 29.59375 -1.421875 25.265625 0.953125 
Q 20.953125 3.328125 18.109375 8.203125 
M 48.6875 27.296875 
Q 48.6875 37.203125 44.609375 42.84375 
Q 40.53125 48.484375 33.40625 48.484375 
Q 26.265625 48.484375 22.1875 42.84375 
Q 18.109375 37.203125 18.109375 27.296875 
Q 18.109375 17.390625 22.1875 11.75 
Q 26.265625 6.109375 33.40625 6.109375 
Q 40.53125 6.109375 44.609375 11.75 
Q 48.6875 17.390625 48.6875 27.296875 
" id="BitstreamVeraSans-Roman-70"/>
     </defs>
     <g transform="translate(963.7265625 101.0953125)scale(0.3 -0.3)">
      <use xlink:href="#BitstreamVeraSans-Roman-72"/>
      <use x="41.11328125" xlink:href="#BitstreamVeraSans-Roman-61"/>
      <use x="102.392578125" xlink:href="#BitstreamVeraSans-Roman-6e"/>
      <use x="165.771484375" xlink:href="#BitstreamVeraSans-Roman-64"/>
      <use x="229.248046875" xlink:href="#BitstreamVeraSans-Roman-6f"/>
      <use x="290.4296875" xlink:href="#BitstreamVeraSans-Roman-6d"/>
      <use x="387.841796875" xlink:href="#BitstreamVeraSans-Roman-3a"/>
      <use x="421.533203125" xlink:href="#BitstreamVeraSans-Roman-20"/>
      <use x="453.3203125" xlink:href="#BitstreamVeraSans-Roman-73"/>
      <use x="505.419921875" xlink:href="#BitstreamVeraSans-Roman-74"/>
      <use x="544.62890625" xlink:href="#BitstreamVeraSans-Roman-65"/>
      <use x="606.15234375" xlink:href="#BitstreamVeraSans-Roman-70"/>
      <use x="669.62890625" xlink:href="#BitstreamVeraSans-Roman-3d"/>
      <use x="753.41796875" xlink:href="#BitstreamVeraSans-Roman-30"/>
      <use x="817.041015625" xlink:href="#BitstreamVeraSans-Roman-2e"/>
      <use x="848.828125" xlink:href="#BitstreamVeraSans-Roman-30"/>
      <use x="912.451171875" xlink:href="#BitstreamVeraSans-Roman-30"/>
      <use x="976.07421875" xlink:href="#BitstreamVeraSans-Roman-34"/>
      <use x="1039.69726562" xlink:href="#BitstreamVeraSans-Roman-38"/>
      <use x="1103.3203125" xlink:href="#BitstreamVeraSans-Roman-39"/>
      <use x="1166.94335938" xlink:href="#BitstreamVeraSans-Roman-33"/>
     </g>
    </g>
    <g id="line2d_35">
     <path d="M 888.726562 134.629687 
L 930.726562 134.629687 
" style="fill:none;stroke:#008000;stroke-linecap:square;stroke-width:2.0;"/>
    </g>
    <g id="line2d_36"/>
    <g id="text_19">
     <!-- corr: step=0.004893 -->
     <defs>
      <path d="M 48.78125 52.59375 
L 48.78125 44.1875 
Q 44.96875 46.296875 41.140625 47.34375 
Q 37.3125 48.390625 33.40625 48.390625 
Q 24.65625 48.390625 19.8125 42.84375 
Q 14.984375 37.3125 14.984375 27.296875 
Q 14.984375 17.28125 19.8125 11.734375 
Q 24.65625 6.203125 33.40625 6.203125 
Q 37.3125 6.203125 41.140625 7.25 
Q 44.96875 8.296875 48.78125 10.40625 
L 48.78125 2.09375 
Q 45.015625 0.34375 40.984375 -0.53125 
Q 36.96875 -1.421875 32.421875 -1.421875 
Q 20.0625 -1.421875 12.78125 6.34375 
Q 5.515625 14.109375 5.515625 27.296875 
Q 5.515625 40.671875 12.859375 48.328125 
Q 20.21875 56 33.015625 56 
Q 37.15625 56 41.109375 55.140625 
Q 45.0625 54.296875 48.78125 52.59375 
" id="BitstreamVeraSans-Roman-63"/>
     </defs>
     <g transform="translate(963.7265625 145.1296875)scale(0.3 -0.3)">
      <use xlink:href="#BitstreamVeraSans-Roman-63"/>
      <use x="54.98046875" xlink:href="#BitstreamVeraSans-Roman-6f"/>
      <use x="116.162109375" xlink:href="#BitstreamVeraSans-Roman-72"/>
      <use x="157.259765625" xlink:href="#BitstreamVeraSans-Roman-72"/>
      <use x="198.357421875" xlink:href="#BitstreamVeraSans-Roman-3a"/>
      <use x="232.048828125" xlink:href="#BitstreamVeraSans-Roman-20"/>
      <use x="263.8359375" xlink:href="#BitstreamVeraSans-Roman-73"/>
      <use x="315.935546875" xlink:href="#BitstreamVeraSans-Roman-74"/>
      <use x="355.14453125" xlink:href="#BitstreamVeraSans-Roman-65"/>
      <use x="416.66796875" xlink:href="#BitstreamVeraSans-Roman-70"/>
      <use x="480.14453125" xlink:href="#BitstreamVeraSans-Roman-3d"/>
      <use x="563.93359375" xlink:href="#BitstreamVeraSans-Roman-30"/>
      <use x="627.556640625" xlink:href="#BitstreamVeraSans-Roman-2e"/>
      <use x="659.34375" xlink:href="#BitstreamVeraSans-Roman-30"/>
      <use x="722.966796875" xlink:href="#BitstreamVeraSans-Roman-30"/>
      <use x="786.58984375" xlink:href="#BitstreamVeraSans-Roman-34"/>
      <use x="850.212890625" xlink:href="#BitstreamVeraSans-Roman-38"/>
      <use x="913.8359375" xlink:href="#BitstreamVeraSans-Roman-39"/>
      <use x="977.458984375" xlink:href="#BitstreamVeraSans-Roman-33"/>
     </g>
    </g>
   </g>
  </g>
 </g>
 <defs>
  <clipPath id="p496b9c5e1d">
   <rect height="695.7" width="1201.5" x="158.4" y="51.3"/>
  </clipPath>
 </defs>
</svg>
