<?xml version="1.0" encoding="utf-8" standalone="no"?>
<!DOCTYPE svg PUBLIC "-//W3C//DTD SVG 1.1//EN"
  "http://www.w3.org/Graphics/SVG/1.1/DTD/svg11.dtd">
<!-- Created with matplotlib (http://matplotlib.org/) -->
<svg height="864pt" version="1.1" viewBox="0 0 1440 864" width="1440pt" xmlns="http://www.w3.org/2000/svg" xmlns:xlink="http://www.w3.org/1999/xlink">
 <defs>
  <style type="text/css">
*{stroke-linecap:butt;stroke-linejoin:round;stroke-miterlimit:100000;}
  </style>
 </defs>
 <g id="figure_1">
  <g id="patch_1">
   <path d="M 0 864 
L 1440 864 
L 1440 0 
L 0 0 
z
" style="fill:#ffffff;"/>
  </g>
  <g id="axes_1">
   <g id="patch_2">
    <path d="M 93.382656 770.338125 
L 1381.831875 770.338125 
L 1381.831875 57.915781 
L 93.382656 57.915781 
z
" style="fill:#ffffff;"/>
   </g>
   <g id="line2d_1">
    <path clip-path="url(#p055a325ae8)" d="M 93.382656 141.146372 
L 95.959555 145.217727 
L 98.536453 149.01345 
L 103.69025 155.74906 
L 106.267148 158.388503 
L 111.420945 164.290986 
L 113.997844 168.308486 
L 116.574742 170.408825 
L 119.151641 173.205269 
L 121.728539 176.847479 
L 129.459234 186.67199 
L 132.036133 188.746882 
L 134.613031 192.284171 
L 137.18993 195.441767 
L 139.766828 197.442262 
L 142.343727 200.255837 
L 144.920625 203.327637 
L 147.497523 205.075758 
L 150.074422 208.045805 
L 152.65132 211.52889 
L 155.228219 213.928883 
L 157.805117 216.578329 
L 160.382016 219.687093 
L 162.958914 222.395246 
L 168.112711 228.422141 
L 170.689609 232.066878 
L 173.266508 234.328927 
L 175.843406 237.203742 
L 178.420305 239.553578 
L 180.997203 241.218275 
L 183.574102 244.310525 
L 186.151 247.102795 
L 188.727898 250.658742 
L 191.304797 253.605913 
L 196.458594 257.886886 
L 199.035492 261.166897 
L 201.612391 263.039197 
L 204.189289 264.256406 
L 206.766188 267.575949 
L 209.343086 269.995268 
L 211.919984 272.161269 
L 214.496883 273.30479 
L 217.073781 277.267985 
L 219.65068 280.513763 
L 222.227578 283.237683 
L 224.804477 286.395407 
L 227.381375 288.856075 
L 229.958273 292.678562 
L 232.535172 295.220263 
L 235.11207 298.270213 
L 237.688969 301.057559 
L 240.265867 303.677658 
L 242.842766 306.797254 
L 247.996563 310.44572 
L 250.573461 312.69106 
L 253.150359 315.906723 
L 255.727258 319.491343 
L 258.304156 322.242844 
L 260.881055 325.383395 
L 263.457953 328.195142 
L 266.034852 331.739725 
L 268.61175 334.912084 
L 271.188648 338.557978 
L 273.765547 340.907204 
L 276.342445 343.713593 
L 278.919344 345.39442 
L 281.496242 349.242299 
L 284.073141 351.163249 
L 286.650039 354.204737 
L 291.803836 358.422937 
L 296.957633 363.762484 
L 299.534531 366.634153 
L 302.11143 369.70898 
L 304.688328 372.602157 
L 307.265227 374.266496 
L 309.842125 376.496005 
L 312.419023 380.473813 
L 314.995922 382.275766 
L 317.57282 385.016517 
L 320.149719 388.580603 
L 322.726617 391.254106 
L 325.303516 394.640608 
L 327.880414 398.585704 
L 330.457313 401.020931 
L 333.034211 402.466011 
L 335.611109 407.239515 
L 338.188008 409.345285 
L 340.764906 412.143224 
L 343.341805 414.020634 
L 345.918703 416.293223 
L 348.495602 419.778011 
L 351.0725 423.015982 
L 353.649398 426.702723 
L 356.226297 428.638086 
L 361.380094 434.404572 
L 363.956992 437.547147 
L 366.533891 439.856699 
L 369.110789 441.646959 
L 371.687688 443.95432 
L 374.264586 447.207553 
L 379.418383 452.295029 
L 381.995281 453.807544 
L 384.57218 454.508828 
L 387.149078 457.125974 
L 389.725977 462.017579 
L 392.302875 465.446651 
L 397.456672 471.302666 
L 400.03357 473.551955 
L 402.610469 476.945518 
L 405.187367 479.913568 
L 407.764266 480.714891 
L 410.341164 483.82328 
L 412.918063 487.913767 
L 418.071859 495.757834 
L 420.648758 497.847025 
L 423.225656 500.548375 
L 425.802555 502.887823 
L 428.379453 506.395899 
L 430.956352 508.353096 
L 433.53325 511.341287 
L 436.110148 513.0145 
L 438.687047 515.680672 
L 441.263945 519.137839 
L 446.417742 525.288382 
L 448.994641 528.697077 
L 451.571539 530.70842 
L 454.148438 534.710675 
L 456.725336 537.540953 
L 459.302234 538.762954 
L 461.879133 540.638457 
L 464.456031 542.987423 
L 467.03293 548.341473 
L 469.609828 549.660908 
L 472.186727 551.650422 
L 474.763625 554.60989 
L 477.340523 557.833928 
L 479.917422 560.735948 
L 482.49432 562.593832 
L 485.071219 565.080887 
L 487.648117 566.789041 
L 492.801914 572.062991 
L 495.378813 574.015122 
L 497.955711 576.797713 
L 500.532609 579.934831 
L 505.686406 585.763235 
L 508.263305 589.954313 
L 510.840203 591.439035 
L 515.994 596.445595 
L 518.570898 598.70948 
L 521.147797 602.94452 
L 523.724695 605.939488 
L 526.301594 607.74081 
L 528.878492 610.569166 
L 531.455391 613.202562 
L 534.032289 616.350074 
L 539.186086 621.797552 
L 541.762984 625.212256 
L 546.916781 630.872029 
L 549.49368 633.28591 
L 552.070578 636.368906 
L 554.647477 640.097113 
L 557.224375 641.505993 
L 559.801273 644.978665 
L 564.95507 649.316461 
L 567.531969 650.570058 
L 572.685766 654.167907 
L 575.262664 656.102172 
L 577.839563 659.640282 
L 580.416461 662.201071 
L 582.993359 666.127673 
L 585.570258 668.935158 
L 588.147156 670.544394 
L 590.724055 673.499188 
L 593.300953 676.20144 
L 595.877852 678.72555 
L 598.45475 681.613252 
L 601.031648 683.803891 
L 603.608547 687.103953 
L 606.185445 689.98698 
L 608.762344 694.358021 
L 611.339242 695.721291 
L 613.916141 698.30824 
L 616.493039 701.095423 
L 619.069938 705.039357 
L 621.646836 708.181732 
L 626.800633 714.033665 
L 629.377531 717.50646 
L 631.95443 718.81652 
L 637.108227 722.911106 
L 639.685125 725.576431 
L 642.262023 728.448476 
L 644.838922 730.363353 
L 647.41582 732.079351 
L 649.992719 734.848458 
L 652.569617 736.792677 
L 655.146516 737.935556 
L 657.723414 740.786534 
L 660.300313 742.28667 
L 662.877211 744.650495 
L 665.454109 745.702674 
L 668.031008 746.45906 
L 670.607906 747.430157 
L 673.184805 747.215261 
L 675.761703 748.029741 
L 678.338602 747.276434 
L 680.9155 747.358643 
L 683.492398 747.020847 
L 686.069297 747.687864 
L 688.646195 749.939055 
L 691.223094 750.253409 
L 693.799992 749.665182 
L 696.376891 749.593055 
L 698.953789 750.325174 
L 701.530687 750.733039 
L 704.107586 750.721098 
L 706.684484 750.204029 
L 709.261383 751.49742 
L 711.838281 749.580737 
L 714.41518 750.381168 
L 716.992078 751.434536 
L 719.568977 750.06023 
L 722.145875 749.745176 
L 724.722773 747.657614 
L 727.299672 748.451998 
L 729.87657 749.497388 
L 732.453469 750.137562 
L 735.030367 748.78286 
L 740.184164 751.182862 
L 742.761062 750.528523 
L 745.337961 750.878315 
L 747.914859 750.711011 
L 750.491758 751.569189 
L 753.068656 750.228284 
L 755.645555 749.673655 
L 758.222453 748.586386 
L 760.799352 748.428836 
L 763.37625 749.492693 
L 765.953148 749.16666 
L 768.530047 749.744831 
L 771.106945 747.846033 
L 773.683844 747.642913 
L 776.260742 749.38281 
L 778.837641 749.41942 
L 781.414539 749.71492 
L 783.991437 750.197508 
L 786.568336 749.582875 
L 789.145234 749.149494 
L 791.722133 749.890535 
L 794.299031 749.564942 
L 796.87593 747.669076 
L 799.452828 746.599032 
L 802.029727 747.23695 
L 804.606625 747.15178 
L 807.183523 746.867505 
L 809.760422 748.574979 
L 812.33732 748.827877 
L 814.914219 748.836526 
L 820.068016 751.295147 
L 825.221813 747.711522 
L 827.798711 748.715688 
L 830.375609 748.596533 
L 832.952508 746.474573 
L 835.529406 748.024817 
L 838.106305 749.942169 
L 840.683203 749.69719 
L 843.260102 750.588657 
L 845.837 748.890112 
L 848.413898 749.377112 
L 850.990797 746.791734 
L 853.567695 747.724707 
L 856.144594 748.344923 
L 858.721492 750.467143 
L 861.298391 750.793273 
L 863.875289 752.344787 
L 866.452188 750.428615 
L 869.029086 749.888168 
L 871.605984 749.596685 
L 874.182883 750.15877 
L 879.33668 750.707924 
L 881.913578 750.7347 
L 884.490477 749.95971 
L 887.067375 750.331161 
L 889.644273 750.33196 
L 892.221172 750.887581 
L 894.79807 749.75863 
L 897.374969 751.82589 
L 899.951867 751.213117 
L 902.528766 750.477163 
L 905.105664 750.381036 
L 907.682563 751.195374 
L 910.259461 749.59461 
L 912.836359 750.351788 
L 915.413258 749.540393 
L 917.990156 749.280785 
L 920.567055 746.692631 
L 923.143953 748.517206 
L 925.720852 748.703657 
L 928.29775 747.946665 
L 930.874648 748.085012 
L 933.451547 748.66296 
L 938.605344 748.799578 
L 941.182242 749.22555 
L 943.759141 747.560966 
L 946.336039 748.858679 
L 948.912937 749.581436 
L 951.489836 748.745589 
L 954.066734 749.222121 
L 956.643633 750.041316 
L 959.220531 749.39914 
L 961.79743 750.191235 
L 964.374328 749.839086 
L 969.528125 748.264282 
L 972.105023 748.131542 
L 974.681922 749.007261 
L 977.25882 749.603931 
L 979.835719 749.305336 
L 982.412617 748.72093 
L 984.989516 748.672504 
L 987.566414 749.294876 
L 990.143312 748.793725 
L 992.720211 751.117612 
L 995.297109 749.906358 
L 997.874008 750.030358 
L 1000.450906 749.811084 
L 1003.027805 750.557467 
L 1005.604703 749.365449 
L 1008.181602 748.87938 
L 1010.7585 750.641117 
L 1013.335398 750.912011 
L 1015.912297 751.046843 
L 1018.489195 751.322575 
L 1021.066094 750.671455 
L 1023.642992 750.485774 
L 1026.219891 751.163089 
L 1028.796789 750.244329 
L 1031.373688 750.094646 
L 1033.950586 749.802978 
L 1039.104383 750.080989 
L 1041.681281 750.590063 
L 1044.25818 750.570083 
L 1049.411977 749.82841 
L 1051.988875 749.348844 
L 1054.565773 749.691614 
L 1057.142672 750.368096 
L 1062.296469 750.131479 
L 1064.873367 750.796413 
L 1067.450266 750.019437 
L 1070.027164 749.476168 
L 1072.604063 750.141728 
L 1075.180961 749.228531 
L 1077.757859 750.095511 
L 1080.334758 749.334669 
L 1082.911656 751.006142 
L 1085.488555 750.676477 
L 1088.065453 751.79222 
L 1093.21925 750.449444 
L 1095.796148 750.279382 
L 1098.373047 750.294121 
L 1100.949945 751.171732 
L 1103.526844 750.696926 
L 1108.680641 750.361852 
L 1111.257539 748.56043 
L 1113.834438 749.360547 
L 1116.411336 749.002305 
L 1118.988234 748.284635 
L 1121.565133 748.472183 
L 1124.142031 749.696631 
L 1126.71893 750.324293 
L 1129.295828 750.623211 
L 1131.872727 749.437308 
L 1134.449625 748.656029 
L 1137.026523 749.401335 
L 1139.603422 748.218073 
L 1142.18032 750.112866 
L 1144.757219 749.800556 
L 1147.334117 749.650328 
L 1152.487914 751.742828 
L 1155.064813 749.988528 
L 1157.641711 750.754241 
L 1160.218609 751.02767 
L 1162.795508 751.155474 
L 1165.372406 750.021221 
L 1167.949305 749.556495 
L 1170.526203 750.487645 
L 1175.68 749.788528 
L 1178.256898 750.394831 
L 1180.833797 749.967547 
L 1183.410695 750.024478 
L 1185.987594 750.906749 
L 1188.564492 750.314467 
L 1191.141391 749.153657 
L 1193.718289 749.331957 
L 1196.295188 749.185103 
L 1198.872086 750.024712 
L 1201.448984 748.360839 
L 1204.025883 748.2812 
L 1206.602781 748.760692 
L 1209.17968 748.467732 
L 1211.756578 748.443007 
L 1214.333477 749.575146 
L 1216.910375 748.592772 
L 1219.487273 749.473331 
L 1222.064172 747.959593 
L 1224.64107 749.670777 
L 1227.217969 749.341093 
L 1229.794867 748.65557 
L 1232.371766 749.285402 
L 1237.525563 750.798286 
L 1245.256258 749.75867 
L 1247.833156 750.603555 
L 1252.986953 750.644626 
L 1255.563852 749.269083 
L 1258.14075 749.486599 
L 1260.717648 751.07685 
L 1263.294547 750.225246 
L 1265.871445 750.12841 
L 1268.448344 749.020641 
L 1271.025242 748.71496 
L 1273.602141 749.190414 
L 1276.179039 748.744414 
L 1278.755938 749.673783 
L 1281.332836 749.161757 
L 1283.909734 750.130673 
L 1286.486633 750.01302 
L 1291.64043 749.259628 
L 1294.217328 749.682515 
L 1296.794227 749.854232 
L 1299.371125 749.808872 
L 1301.948023 749.067317 
L 1304.524922 750.632182 
L 1307.10182 750.096025 
L 1309.678719 748.542895 
L 1312.255617 748.565448 
L 1314.832516 749.231358 
L 1317.409414 748.212874 
L 1319.986313 747.974224 
L 1322.563211 748.006863 
L 1325.140109 748.933793 
L 1327.717008 749.072873 
L 1330.293906 748.822271 
L 1332.870805 748.192939 
L 1335.447703 747.817439 
L 1338.024602 747.691141 
L 1340.6015 747.409372 
L 1343.178398 749.543984 
L 1345.755297 749.299755 
L 1348.332195 749.843249 
L 1350.909094 749.445261 
L 1353.485992 750.212163 
L 1358.639789 752.344699 
L 1363.793586 751.611383 
L 1366.370484 751.081558 
L 1368.947383 750.377109 
L 1371.524281 750.068149 
L 1374.10118 749.312726 
L 1376.678078 749.391294 
L 1379.254977 749.605034 
L 1379.254977 749.605034 
" style="fill:none;stroke:#0000ff;stroke-linecap:square;stroke-width:2.0;"/>
   </g>
   <g id="line2d_2">
    <path clip-path="url(#p055a325ae8)" d="M 93.382656 140.191891 
L 95.959555 143.524108 
L 98.536453 147.113638 
L 101.113352 149.619665 
L 103.69025 153.104885 
L 106.267148 157.311073 
L 108.844047 158.771322 
L 111.420945 162.126146 
L 113.997844 165.737855 
L 116.574742 169.125847 
L 119.151641 171.992941 
L 121.728539 175.164157 
L 124.305438 177.761648 
L 126.882336 179.4374 
L 129.459234 182.21209 
L 132.036133 185.30903 
L 134.613031 187.567833 
L 137.18993 189.0479 
L 139.766828 191.235911 
L 142.343727 194.487612 
L 144.920625 197.357553 
L 147.497523 201.202739 
L 150.074422 202.651534 
L 152.65132 206.540805 
L 155.228219 208.944622 
L 160.382016 215.317028 
L 162.958914 216.936748 
L 165.535813 219.127138 
L 168.112711 220.456994 
L 170.689609 223.9756 
L 173.266508 227.246681 
L 175.843406 228.478464 
L 178.420305 230.968484 
L 180.997203 234.527257 
L 186.151 240.890426 
L 188.727898 243.636784 
L 191.304797 247.494954 
L 193.881695 249.767974 
L 199.035492 255.912085 
L 201.612391 259.500358 
L 204.189289 261.883159 
L 206.766188 264.873934 
L 209.343086 266.627891 
L 211.919984 269.835477 
L 214.496883 272.196327 
L 217.073781 276.18791 
L 219.65068 278.115717 
L 222.227578 280.4792 
L 224.804477 283.911683 
L 227.381375 285.34006 
L 229.958273 287.668102 
L 232.535172 288.796973 
L 237.688969 293.28761 
L 240.265867 294.905195 
L 242.842766 299.209785 
L 245.419664 302.137815 
L 247.996563 304.650364 
L 250.573461 307.696743 
L 253.150359 309.973384 
L 258.304156 316.471586 
L 260.881055 318.528868 
L 263.457953 322.534948 
L 266.034852 325.628577 
L 268.61175 327.576906 
L 273.765547 333.672529 
L 276.342445 336.558098 
L 278.919344 340.687901 
L 281.496242 343.144951 
L 284.073141 346.051139 
L 286.650039 348.303636 
L 291.803836 353.968878 
L 294.380734 355.987117 
L 296.957633 359.135002 
L 299.534531 361.49411 
L 302.11143 364.676328 
L 307.265227 369.769005 
L 309.842125 372.524844 
L 312.419023 375.768945 
L 317.57282 381.28674 
L 320.149719 384.474259 
L 322.726617 386.605673 
L 325.303516 389.764069 
L 327.880414 392.344353 
L 335.611109 400.703925 
L 338.188008 403.694393 
L 340.764906 405.009069 
L 343.341805 408.01926 
L 345.918703 411.605521 
L 351.0725 415.635786 
L 353.649398 418.625055 
L 358.803195 424.980036 
L 361.380094 427.879803 
L 366.533891 433.100243 
L 371.687688 439.098257 
L 374.264586 442.639021 
L 376.841484 445.839299 
L 381.995281 450.0168 
L 389.725977 457.953432 
L 392.302875 461.004538 
L 394.879773 464.413033 
L 397.456672 466.246627 
L 400.03357 469.194525 
L 405.187367 474.021492 
L 407.764266 477.328825 
L 410.341164 478.74688 
L 412.918063 481.716836 
L 415.494961 485.663017 
L 418.071859 488.282178 
L 420.648758 491.19426 
L 423.225656 494.356612 
L 425.802555 496.955847 
L 428.379453 500.426964 
L 430.956352 503.103937 
L 433.53325 506.140912 
L 436.110148 509.766506 
L 443.840844 519.537088 
L 446.417742 521.499898 
L 448.994641 523.242463 
L 451.571539 525.966607 
L 454.148438 529.8984 
L 456.725336 531.996253 
L 461.879133 537.952389 
L 464.456031 541.177986 
L 469.609828 546.278452 
L 472.186727 548.414305 
L 474.763625 550.136026 
L 477.340523 555.29632 
L 479.917422 558.649841 
L 485.071219 563.814852 
L 487.648117 567.024724 
L 490.225016 569.833164 
L 492.801914 573.387529 
L 495.378813 575.416017 
L 497.955711 579.067994 
L 500.532609 582.435191 
L 503.109508 586.631819 
L 505.686406 588.625145 
L 508.263305 592.369769 
L 510.840203 594.41512 
L 518.570898 601.926271 
L 521.147797 605.354912 
L 523.724695 607.293462 
L 526.301594 609.502869 
L 528.878492 611.88137 
L 531.455391 614.531205 
L 534.032289 616.592957 
L 536.609188 618.85743 
L 539.186086 621.947473 
L 541.762984 624.562494 
L 544.339883 627.825324 
L 546.916781 630.696786 
L 549.49368 632.784923 
L 552.070578 636.351491 
L 554.647477 639.302257 
L 557.224375 641.225981 
L 559.801273 643.666425 
L 562.378172 644.91937 
L 564.95507 649.006441 
L 567.531969 652.068484 
L 570.108867 653.495309 
L 572.685766 656.873739 
L 575.262664 660.596997 
L 580.416461 665.336588 
L 582.993359 668.01579 
L 585.570258 671.594239 
L 588.147156 674.811639 
L 590.724055 677.474448 
L 593.300953 680.372245 
L 595.877852 682.413634 
L 598.45475 686.490395 
L 601.031648 688.809304 
L 603.608547 691.35952 
L 606.185445 694.833504 
L 608.762344 697.26095 
L 611.339242 698.788547 
L 613.916141 700.721446 
L 616.493039 702.807764 
L 619.069938 705.716831 
L 621.646836 709.247604 
L 624.223734 711.409845 
L 626.800633 712.442939 
L 629.377531 713.10662 
L 631.95443 716.027311 
L 634.531328 719.261975 
L 639.685125 724.426233 
L 642.262023 726.900498 
L 647.41582 731.040333 
L 657.723414 740.651939 
L 660.300313 742.326058 
L 662.877211 743.78097 
L 665.454109 743.431783 
L 668.031008 745.44876 
L 670.607906 745.638793 
L 673.184805 745.49429 
L 675.761703 747.364746 
L 678.338602 748.046767 
L 680.9155 747.718625 
L 683.492398 748.478583 
L 686.069297 750.350654 
L 688.646195 749.681257 
L 691.223094 750.306133 
L 693.799992 748.892093 
L 696.376891 748.890729 
L 698.953789 750.242065 
L 701.530687 750.971465 
L 704.107586 750.376455 
L 706.684484 749.114245 
L 709.261383 750.65875 
L 711.838281 749.974966 
L 714.41518 749.925776 
L 716.992078 750.011393 
L 719.568977 749.877185 
L 722.145875 750.121403 
L 724.722773 750.534368 
L 727.299672 748.094703 
L 732.453469 749.18914 
L 735.030367 749.464367 
L 737.607266 750.427027 
L 740.184164 749.755232 
L 742.761062 749.770051 
L 745.337961 749.47135 
L 747.914859 749.316849 
L 750.491758 749.422556 
L 755.645555 750.792085 
L 758.222453 750.730969 
L 760.799352 750.08029 
L 763.37625 749.109995 
L 765.953148 748.493979 
L 768.530047 748.342084 
L 773.683844 750.53617 
L 776.260742 750.972148 
L 781.414539 750.411862 
L 783.991437 750.244705 
L 786.568336 749.438701 
L 789.145234 750.161481 
L 791.722133 752.019151 
L 794.299031 751.462701 
L 796.87593 749.388942 
L 799.452828 749.756826 
L 802.029727 749.89887 
L 804.606625 749.611266 
L 807.183523 748.660293 
L 809.760422 748.156318 
L 812.33732 749.632282 
L 814.914219 749.586109 
L 817.491117 750.33207 
L 820.068016 750.879136 
L 822.644914 749.205097 
L 825.221813 748.52709 
L 827.798711 746.738409 
L 830.375609 748.045277 
L 832.952508 748.416051 
L 835.529406 748.306233 
L 838.106305 749.439559 
L 840.683203 748.006656 
L 845.837 749.795476 
L 848.413898 750.047163 
L 850.990797 749.049699 
L 853.567695 750.005604 
L 858.721492 748.54118 
L 863.875289 747.539653 
L 866.452188 748.686483 
L 869.029086 748.112986 
L 871.605984 750.027902 
L 874.182883 749.824 
L 876.759781 750.840496 
L 879.33668 748.633929 
L 881.913578 748.028163 
L 884.490477 748.508402 
L 887.067375 749.308215 
L 889.644273 749.255287 
L 892.221172 750.070851 
L 894.79807 749.860729 
L 897.374969 748.799688 
L 899.951867 748.755637 
L 902.528766 749.446404 
L 905.105664 748.169672 
L 910.259461 747.979005 
L 912.836359 748.570177 
L 915.413258 748.920771 
L 917.990156 749.515498 
L 920.567055 749.806386 
L 923.143953 748.927179 
L 925.720852 749.008697 
L 928.29775 748.182819 
L 930.874648 748.614759 
L 936.028445 749.265108 
L 938.605344 748.699797 
L 941.182242 750.261095 
L 943.759141 750.107416 
L 946.336039 750.912978 
L 948.912937 750.800642 
L 951.489836 750.382904 
L 954.066734 750.811388 
L 956.643633 750.730924 
L 959.220531 751.278776 
L 961.79743 751.115188 
L 964.374328 750.413197 
L 966.951227 750.714781 
L 969.528125 749.846316 
L 972.105023 749.716152 
L 974.681922 748.910966 
L 977.25882 749.245312 
L 979.835719 750.675558 
L 982.412617 749.919076 
L 984.989516 751.116751 
L 987.566414 750.476445 
L 992.720211 750.194438 
L 995.297109 749.279059 
L 997.874008 750.178403 
L 1000.450906 750.537987 
L 1003.027805 750.434276 
L 1005.604703 749.784175 
L 1008.181602 749.849212 
L 1010.7585 750.906872 
L 1013.335398 748.554393 
L 1015.912297 748.31936 
L 1018.489195 749.115672 
L 1021.066094 750.068066 
L 1023.642992 749.917373 
L 1026.219891 749.386679 
L 1028.796789 749.480887 
L 1031.373688 748.941562 
L 1033.950586 750.480692 
L 1036.527484 749.780845 
L 1039.104383 750.597618 
L 1041.681281 750.87551 
L 1044.25818 750.215509 
L 1049.411977 750.173261 
L 1051.988875 750.426248 
L 1054.565773 749.986857 
L 1057.142672 748.650362 
L 1059.71957 749.618759 
L 1062.296469 748.571448 
L 1064.873367 748.95999 
L 1067.450266 749.002198 
L 1070.027164 746.686501 
L 1072.604063 748.280277 
L 1075.180961 749.424408 
L 1077.757859 749.504494 
L 1080.334758 750.006934 
L 1082.911656 748.978026 
L 1085.488555 750.180628 
L 1088.065453 750.656259 
L 1090.642352 751.357004 
L 1093.21925 751.637712 
L 1095.796148 750.357257 
L 1098.373047 752.114706 
L 1100.949945 750.936908 
L 1103.526844 749.016742 
L 1106.103742 749.414268 
L 1108.680641 748.041576 
L 1111.257539 749.201038 
L 1113.834438 749.732749 
L 1116.411336 749.234616 
L 1118.988234 750.844946 
L 1121.565133 750.221987 
L 1124.142031 750.10966 
L 1126.71893 750.487257 
L 1129.295828 751.078175 
L 1131.872727 750.533472 
L 1134.449625 750.368359 
L 1137.026523 749.631353 
L 1139.603422 751.416533 
L 1142.18032 751.675543 
L 1144.757219 751.168531 
L 1147.334117 750.528067 
L 1149.911016 752.271791 
L 1155.064813 751.239145 
L 1157.641711 749.315238 
L 1160.218609 750.235138 
L 1165.372406 745.377168 
L 1167.949305 746.586981 
L 1170.526203 746.452692 
L 1173.103102 747.648283 
L 1175.68 748.404193 
L 1178.256898 749.033292 
L 1180.833797 748.332583 
L 1183.410695 751.198273 
L 1185.987594 750.546694 
L 1188.564492 749.205644 
L 1191.141391 749.729975 
L 1193.718289 750.39648 
L 1196.295188 749.81344 
L 1198.872086 750.99594 
L 1201.448984 751.913946 
L 1204.025883 750.781502 
L 1206.602781 749.772074 
L 1209.17968 749.50783 
L 1211.756578 748.905692 
L 1214.333477 749.204623 
L 1216.910375 750.746597 
L 1219.487273 749.717581 
L 1222.064172 750.472623 
L 1224.64107 750.507967 
L 1227.217969 750.837459 
L 1229.794867 749.655033 
L 1232.371766 751.570776 
L 1234.948664 749.0745 
L 1237.525563 749.580098 
L 1240.102461 749.431859 
L 1242.679359 750.194803 
L 1245.256258 749.800299 
L 1247.833156 749.9536 
L 1250.410055 748.873534 
L 1252.986953 748.528038 
L 1255.563852 749.653116 
L 1258.14075 750.185162 
L 1260.717648 749.469418 
L 1263.294547 749.412337 
L 1265.871445 749.855145 
L 1268.448344 750.571589 
L 1271.025242 748.477011 
L 1273.602141 749.257041 
L 1276.179039 750.711101 
L 1278.755938 750.838657 
L 1281.332836 750.311788 
L 1283.909734 749.432581 
L 1286.486633 750.694211 
L 1289.063531 749.456787 
L 1294.217328 752.56782 
L 1296.794227 751.98173 
L 1299.371125 749.21891 
L 1301.948023 746.627667 
L 1304.524922 747.502822 
L 1307.10182 748.219193 
L 1309.678719 747.23123 
L 1314.832516 749.964371 
L 1317.409414 749.637362 
L 1319.986313 748.146963 
L 1322.563211 750.210223 
L 1325.140109 749.7819 
L 1327.717008 751.057135 
L 1330.293906 749.555085 
L 1332.870805 748.637174 
L 1335.447703 748.800104 
L 1338.024602 748.748782 
L 1340.6015 749.762712 
L 1343.178398 750.270813 
L 1348.332195 750.72679 
L 1350.909094 749.981931 
L 1353.485992 748.652346 
L 1358.639789 749.406615 
L 1361.216688 749.273954 
L 1363.793586 750.384141 
L 1366.370484 749.356265 
L 1368.947383 747.990467 
L 1371.524281 748.415764 
L 1376.678078 750.546127 
L 1379.254977 750.21707 
L 1379.254977 750.21707 
" style="fill:none;stroke:#008000;stroke-linecap:square;stroke-width:2.0;"/>
   </g>
   <g id="patch_3">
    <path d="M 93.382656 57.915781 
L 1381.831875 57.915781 
" style="fill:none;stroke:#000000;stroke-linecap:square;stroke-linejoin:miter;"/>
   </g>
   <g id="patch_4">
    <path d="M 1381.831875 770.338125 
L 1381.831875 57.915781 
" style="fill:none;stroke:#000000;stroke-linecap:square;stroke-linejoin:miter;"/>
   </g>
   <g id="patch_5">
    <path d="M 93.382656 770.338125 
L 1381.831875 770.338125 
" style="fill:none;stroke:#000000;stroke-linecap:square;stroke-linejoin:miter;"/>
   </g>
   <g id="patch_6">
    <path d="M 93.382656 770.338125 
L 93.382656 57.915781 
" style="fill:none;stroke:#000000;stroke-linecap:square;stroke-linejoin:miter;"/>
   </g>
   <g id="matplotlib.axis_1">
    <g id="xtick_1">
     <g id="line2d_3">
      <defs>
       <path d="M 0 0 
L 0 -4 
" id="mc858a8bb46" style="stroke:#000000;stroke-width:0.5;"/>
      </defs>
      <g>
       <use style="stroke:#000000;stroke-width:0.5;" x="93.38265625" xlink:href="#mc858a8bb46" y="770.338125"/>
      </g>
     </g>
     <g id="line2d_4">
      <defs>
       <path d="M 0 0 
L 0 4 
" id="m5e619fb3b0" style="stroke:#000000;stroke-width:0.5;"/>
      </defs>
      <g>
       <use style="stroke:#000000;stroke-width:0.5;" x="93.38265625" xlink:href="#m5e619fb3b0" y="57.91578125"/>
      </g>
     </g>
     <g id="text_1">
      <!-- 0 -->
      <defs>
       <path d="M 31.78125 66.40625 
Q 24.171875 66.40625 20.328125 58.90625 
Q 16.5 51.421875 16.5 36.375 
Q 16.5 21.390625 20.328125 13.890625 
Q 24.171875 6.390625 31.78125 6.390625 
Q 39.453125 6.390625 43.28125 13.890625 
Q 47.125 21.390625 47.125 36.375 
Q 47.125 51.421875 43.28125 58.90625 
Q 39.453125 66.40625 31.78125 66.40625 
M 31.78125 74.21875 
Q 44.046875 74.21875 50.515625 64.515625 
Q 56.984375 54.828125 56.984375 36.375 
Q 56.984375 17.96875 50.515625 8.265625 
Q 44.046875 -1.421875 31.78125 -1.421875 
Q 19.53125 -1.421875 13.0625 8.265625 
Q 6.59375 17.96875 6.59375 36.375 
Q 6.59375 54.828125 13.0625 64.515625 
Q 19.53125 74.21875 31.78125 74.21875 
" id="BitstreamVeraSans-Roman-30"/>
      </defs>
      <g transform="translate(83.83890625 797.1334375)scale(0.3 -0.3)">
       <use xlink:href="#BitstreamVeraSans-Roman-30"/>
      </g>
     </g>
    </g>
    <g id="xtick_2">
     <g id="line2d_5">
      <g>
       <use style="stroke:#000000;stroke-width:0.5;" x="351.0725" xlink:href="#mc858a8bb46" y="770.338125"/>
      </g>
     </g>
     <g id="line2d_6">
      <g>
       <use style="stroke:#000000;stroke-width:0.5;" x="351.0725" xlink:href="#m5e619fb3b0" y="57.91578125"/>
      </g>
     </g>
     <g id="text_2">
      <!-- 100 -->
      <defs>
       <path d="M 12.40625 8.296875 
L 28.515625 8.296875 
L 28.515625 63.921875 
L 10.984375 60.40625 
L 10.984375 69.390625 
L 28.421875 72.90625 
L 38.28125 72.90625 
L 38.28125 8.296875 
L 54.390625 8.296875 
L 54.390625 0 
L 12.40625 0 
z
" id="BitstreamVeraSans-Roman-31"/>
      </defs>
      <g transform="translate(322.44125 797.1334375)scale(0.3 -0.3)">
       <use xlink:href="#BitstreamVeraSans-Roman-31"/>
       <use x="63.623046875" xlink:href="#BitstreamVeraSans-Roman-30"/>
       <use x="127.24609375" xlink:href="#BitstreamVeraSans-Roman-30"/>
      </g>
     </g>
    </g>
    <g id="xtick_3">
     <g id="line2d_7">
      <g>
       <use style="stroke:#000000;stroke-width:0.5;" x="608.76234375" xlink:href="#mc858a8bb46" y="770.338125"/>
      </g>
     </g>
     <g id="line2d_8">
      <g>
       <use style="stroke:#000000;stroke-width:0.5;" x="608.76234375" xlink:href="#m5e619fb3b0" y="57.91578125"/>
      </g>
     </g>
     <g id="text_3">
      <!-- 200 -->
      <defs>
       <path d="M 19.1875 8.296875 
L 53.609375 8.296875 
L 53.609375 0 
L 7.328125 0 
L 7.328125 8.296875 
Q 12.9375 14.109375 22.625 23.890625 
Q 32.328125 33.6875 34.8125 36.53125 
Q 39.546875 41.84375 41.421875 45.53125 
Q 43.3125 49.21875 43.3125 52.78125 
Q 43.3125 58.59375 39.234375 62.25 
Q 35.15625 65.921875 28.609375 65.921875 
Q 23.96875 65.921875 18.8125 64.3125 
Q 13.671875 62.703125 7.8125 59.421875 
L 7.8125 69.390625 
Q 13.765625 71.78125 18.9375 73 
Q 24.125 74.21875 28.421875 74.21875 
Q 39.75 74.21875 46.484375 68.546875 
Q 53.21875 62.890625 53.21875 53.421875 
Q 53.21875 48.921875 51.53125 44.890625 
Q 49.859375 40.875 45.40625 35.40625 
Q 44.1875 33.984375 37.640625 27.21875 
Q 31.109375 20.453125 19.1875 8.296875 
" id="BitstreamVeraSans-Roman-32"/>
      </defs>
      <g transform="translate(580.13109375 797.1334375)scale(0.3 -0.3)">
       <use xlink:href="#BitstreamVeraSans-Roman-32"/>
       <use x="63.623046875" xlink:href="#BitstreamVeraSans-Roman-30"/>
       <use x="127.24609375" xlink:href="#BitstreamVeraSans-Roman-30"/>
      </g>
     </g>
    </g>
    <g id="xtick_4">
     <g id="line2d_9">
      <g>
       <use style="stroke:#000000;stroke-width:0.5;" x="866.4521875" xlink:href="#mc858a8bb46" y="770.338125"/>
      </g>
     </g>
     <g id="line2d_10">
      <g>
       <use style="stroke:#000000;stroke-width:0.5;" x="866.4521875" xlink:href="#m5e619fb3b0" y="57.91578125"/>
      </g>
     </g>
     <g id="text_4">
      <!-- 300 -->
      <defs>
       <path d="M 40.578125 39.3125 
Q 47.65625 37.796875 51.625 33 
Q 55.609375 28.21875 55.609375 21.1875 
Q 55.609375 10.40625 48.1875 4.484375 
Q 40.765625 -1.421875 27.09375 -1.421875 
Q 22.515625 -1.421875 17.65625 -0.515625 
Q 12.796875 0.390625 7.625 2.203125 
L 7.625 11.71875 
Q 11.71875 9.328125 16.59375 8.109375 
Q 21.484375 6.890625 26.8125 6.890625 
Q 36.078125 6.890625 40.9375 10.546875 
Q 45.796875 14.203125 45.796875 21.1875 
Q 45.796875 27.640625 41.28125 31.265625 
Q 36.765625 34.90625 28.71875 34.90625 
L 20.21875 34.90625 
L 20.21875 43.015625 
L 29.109375 43.015625 
Q 36.375 43.015625 40.234375 45.921875 
Q 44.09375 48.828125 44.09375 54.296875 
Q 44.09375 59.90625 40.109375 62.90625 
Q 36.140625 65.921875 28.71875 65.921875 
Q 24.65625 65.921875 20.015625 65.03125 
Q 15.375 64.15625 9.8125 62.3125 
L 9.8125 71.09375 
Q 15.4375 72.65625 20.34375 73.4375 
Q 25.25 74.21875 29.59375 74.21875 
Q 40.828125 74.21875 47.359375 69.109375 
Q 53.90625 64.015625 53.90625 55.328125 
Q 53.90625 49.265625 50.4375 45.09375 
Q 46.96875 40.921875 40.578125 39.3125 
" id="BitstreamVeraSans-Roman-33"/>
      </defs>
      <g transform="translate(837.8209375 797.1334375)scale(0.3 -0.3)">
       <use xlink:href="#BitstreamVeraSans-Roman-33"/>
       <use x="63.623046875" xlink:href="#BitstreamVeraSans-Roman-30"/>
       <use x="127.24609375" xlink:href="#BitstreamVeraSans-Roman-30"/>
      </g>
     </g>
    </g>
    <g id="xtick_5">
     <g id="line2d_11">
      <g>
       <use style="stroke:#000000;stroke-width:0.5;" x="1124.14203125" xlink:href="#mc858a8bb46" y="770.338125"/>
      </g>
     </g>
     <g id="line2d_12">
      <g>
       <use style="stroke:#000000;stroke-width:0.5;" x="1124.14203125" xlink:href="#m5e619fb3b0" y="57.91578125"/>
      </g>
     </g>
     <g id="text_5">
      <!-- 400 -->
      <defs>
       <path d="M 37.796875 64.3125 
L 12.890625 25.390625 
L 37.796875 25.390625 
z
M 35.203125 72.90625 
L 47.609375 72.90625 
L 47.609375 25.390625 
L 58.015625 25.390625 
L 58.015625 17.1875 
L 47.609375 17.1875 
L 47.609375 0 
L 37.796875 0 
L 37.796875 17.1875 
L 4.890625 17.1875 
L 4.890625 26.703125 
z
" id="BitstreamVeraSans-Roman-34"/>
      </defs>
      <g transform="translate(1095.51078125 797.1334375)scale(0.3 -0.3)">
       <use xlink:href="#BitstreamVeraSans-Roman-34"/>
       <use x="63.623046875" xlink:href="#BitstreamVeraSans-Roman-30"/>
       <use x="127.24609375" xlink:href="#BitstreamVeraSans-Roman-30"/>
      </g>
     </g>
    </g>
    <g id="xtick_6">
     <g id="line2d_13">
      <g>
       <use style="stroke:#000000;stroke-width:0.5;" x="1381.831875" xlink:href="#mc858a8bb46" y="770.338125"/>
      </g>
     </g>
     <g id="line2d_14">
      <g>
       <use style="stroke:#000000;stroke-width:0.5;" x="1381.831875" xlink:href="#m5e619fb3b0" y="57.91578125"/>
      </g>
     </g>
     <g id="text_6">
      <!-- 500 -->
      <defs>
       <path d="M 10.796875 72.90625 
L 49.515625 72.90625 
L 49.515625 64.59375 
L 19.828125 64.59375 
L 19.828125 46.734375 
Q 21.96875 47.46875 24.109375 47.828125 
Q 26.265625 48.1875 28.421875 48.1875 
Q 40.625 48.1875 47.75 41.5 
Q 54.890625 34.8125 54.890625 23.390625 
Q 54.890625 11.625 47.5625 5.09375 
Q 40.234375 -1.421875 26.90625 -1.421875 
Q 22.3125 -1.421875 17.546875 -0.640625 
Q 12.796875 0.140625 7.71875 1.703125 
L 7.71875 11.625 
Q 12.109375 9.234375 16.796875 8.0625 
Q 21.484375 6.890625 26.703125 6.890625 
Q 35.15625 6.890625 40.078125 11.328125 
Q 45.015625 15.765625 45.015625 23.390625 
Q 45.015625 31 40.078125 35.4375 
Q 35.15625 39.890625 26.703125 39.890625 
Q 22.75 39.890625 18.8125 39.015625 
Q 14.890625 38.140625 10.796875 36.28125 
z
" id="BitstreamVeraSans-Roman-35"/>
      </defs>
      <g transform="translate(1353.200625 797.1334375)scale(0.3 -0.3)">
       <use xlink:href="#BitstreamVeraSans-Roman-35"/>
       <use x="63.623046875" xlink:href="#BitstreamVeraSans-Roman-30"/>
       <use x="127.24609375" xlink:href="#BitstreamVeraSans-Roman-30"/>
      </g>
     </g>
    </g>
    <g id="text_7">
     <!-- iterations -->
     <defs>
      <path d="M 54.890625 33.015625 
L 54.890625 0 
L 45.90625 0 
L 45.90625 32.71875 
Q 45.90625 40.484375 42.875 44.328125 
Q 39.84375 48.1875 33.796875 48.1875 
Q 26.515625 48.1875 22.3125 43.546875 
Q 18.109375 38.921875 18.109375 30.90625 
L 18.109375 0 
L 9.078125 0 
L 9.078125 54.6875 
L 18.109375 54.6875 
L 18.109375 46.1875 
Q 21.34375 51.125 25.703125 53.5625 
Q 30.078125 56 35.796875 56 
Q 45.21875 56 50.046875 50.171875 
Q 54.890625 44.34375 54.890625 33.015625 
" id="BitstreamVeraSans-Roman-6e"/>
      <path d="M 34.28125 27.484375 
Q 23.390625 27.484375 19.1875 25 
Q 14.984375 22.515625 14.984375 16.5 
Q 14.984375 11.71875 18.140625 8.90625 
Q 21.296875 6.109375 26.703125 6.109375 
Q 34.1875 6.109375 38.703125 11.40625 
Q 43.21875 16.703125 43.21875 25.484375 
L 43.21875 27.484375 
z
M 52.203125 31.203125 
L 52.203125 0 
L 43.21875 0 
L 43.21875 8.296875 
Q 40.140625 3.328125 35.546875 0.953125 
Q 30.953125 -1.421875 24.3125 -1.421875 
Q 15.921875 -1.421875 10.953125 3.296875 
Q 6 8.015625 6 15.921875 
Q 6 25.140625 12.171875 29.828125 
Q 18.359375 34.515625 30.609375 34.515625 
L 43.21875 34.515625 
L 43.21875 35.40625 
Q 43.21875 41.609375 39.140625 45 
Q 35.0625 48.390625 27.6875 48.390625 
Q 23 48.390625 18.546875 47.265625 
Q 14.109375 46.140625 10.015625 43.890625 
L 10.015625 52.203125 
Q 14.9375 54.109375 19.578125 55.046875 
Q 24.21875 56 28.609375 56 
Q 40.484375 56 46.34375 49.84375 
Q 52.203125 43.703125 52.203125 31.203125 
" id="BitstreamVeraSans-Roman-61"/>
      <path d="M 30.609375 48.390625 
Q 23.390625 48.390625 19.1875 42.75 
Q 14.984375 37.109375 14.984375 27.296875 
Q 14.984375 17.484375 19.15625 11.84375 
Q 23.34375 6.203125 30.609375 6.203125 
Q 37.796875 6.203125 41.984375 11.859375 
Q 46.1875 17.53125 46.1875 27.296875 
Q 46.1875 37.015625 41.984375 42.703125 
Q 37.796875 48.390625 30.609375 48.390625 
M 30.609375 56 
Q 42.328125 56 49.015625 48.375 
Q 55.71875 40.765625 55.71875 27.296875 
Q 55.71875 13.875 49.015625 6.21875 
Q 42.328125 -1.421875 30.609375 -1.421875 
Q 18.84375 -1.421875 12.171875 6.21875 
Q 5.515625 13.875 5.515625 27.296875 
Q 5.515625 40.765625 12.171875 48.375 
Q 18.84375 56 30.609375 56 
" id="BitstreamVeraSans-Roman-6f"/>
      <path d="M 9.421875 54.6875 
L 18.40625 54.6875 
L 18.40625 0 
L 9.421875 0 
z
M 9.421875 75.984375 
L 18.40625 75.984375 
L 18.40625 64.59375 
L 9.421875 64.59375 
z
" id="BitstreamVeraSans-Roman-69"/>
      <path d="M 56.203125 29.59375 
L 56.203125 25.203125 
L 14.890625 25.203125 
Q 15.484375 15.921875 20.484375 11.0625 
Q 25.484375 6.203125 34.421875 6.203125 
Q 39.59375 6.203125 44.453125 7.46875 
Q 49.3125 8.734375 54.109375 11.28125 
L 54.109375 2.78125 
Q 49.265625 0.734375 44.1875 -0.34375 
Q 39.109375 -1.421875 33.890625 -1.421875 
Q 20.796875 -1.421875 13.15625 6.1875 
Q 5.515625 13.8125 5.515625 26.8125 
Q 5.515625 40.234375 12.765625 48.109375 
Q 20.015625 56 32.328125 56 
Q 43.359375 56 49.78125 48.890625 
Q 56.203125 41.796875 56.203125 29.59375 
M 47.21875 32.234375 
Q 47.125 39.59375 43.09375 43.984375 
Q 39.0625 48.390625 32.421875 48.390625 
Q 24.90625 48.390625 20.390625 44.140625 
Q 15.875 39.890625 15.1875 32.171875 
z
" id="BitstreamVeraSans-Roman-65"/>
      <path d="M 18.3125 70.21875 
L 18.3125 54.6875 
L 36.8125 54.6875 
L 36.8125 47.703125 
L 18.3125 47.703125 
L 18.3125 18.015625 
Q 18.3125 11.328125 20.140625 9.421875 
Q 21.96875 7.515625 27.59375 7.515625 
L 36.8125 7.515625 
L 36.8125 0 
L 27.59375 0 
Q 17.1875 0 13.234375 3.875 
Q 9.28125 7.765625 9.28125 18.015625 
L 9.28125 47.703125 
L 2.6875 47.703125 
L 2.6875 54.6875 
L 9.28125 54.6875 
L 9.28125 70.21875 
z
" id="BitstreamVeraSans-Roman-74"/>
      <path d="M 41.109375 46.296875 
Q 39.59375 47.171875 37.8125 47.578125 
Q 36.03125 48 33.890625 48 
Q 26.265625 48 22.1875 43.046875 
Q 18.109375 38.09375 18.109375 28.8125 
L 18.109375 0 
L 9.078125 0 
L 9.078125 54.6875 
L 18.109375 54.6875 
L 18.109375 46.1875 
Q 20.953125 51.171875 25.484375 53.578125 
Q 30.03125 56 36.53125 56 
Q 37.453125 56 38.578125 55.875 
Q 39.703125 55.765625 41.0625 55.515625 
z
" id="BitstreamVeraSans-Roman-72"/>
      <path d="M 44.28125 53.078125 
L 44.28125 44.578125 
Q 40.484375 46.53125 36.375 47.5 
Q 32.28125 48.484375 27.875 48.484375 
Q 21.1875 48.484375 17.84375 46.4375 
Q 14.5 44.390625 14.5 40.28125 
Q 14.5 37.15625 16.890625 35.375 
Q 19.28125 33.59375 26.515625 31.984375 
L 29.59375 31.296875 
Q 39.15625 29.25 43.1875 25.515625 
Q 47.21875 21.78125 47.21875 15.09375 
Q 47.21875 7.46875 41.1875 3.015625 
Q 35.15625 -1.421875 24.609375 -1.421875 
Q 20.21875 -1.421875 15.453125 -0.5625 
Q 10.6875 0.296875 5.421875 2 
L 5.421875 11.28125 
Q 10.40625 8.6875 15.234375 7.390625 
Q 20.0625 6.109375 24.8125 6.109375 
Q 31.15625 6.109375 34.5625 8.28125 
Q 37.984375 10.453125 37.984375 14.40625 
Q 37.984375 18.0625 35.515625 20.015625 
Q 33.0625 21.96875 24.703125 23.78125 
L 21.578125 24.515625 
Q 13.234375 26.265625 9.515625 29.90625 
Q 5.8125 33.546875 5.8125 39.890625 
Q 5.8125 47.609375 11.28125 51.796875 
Q 16.75 56 26.8125 56 
Q 31.78125 56 36.171875 55.265625 
Q 40.578125 54.546875 44.28125 53.078125 
" id="BitstreamVeraSans-Roman-73"/>
     </defs>
     <g transform="translate(666.425234375 831.1678125)scale(0.3 -0.3)">
      <use xlink:href="#BitstreamVeraSans-Roman-69"/>
      <use x="27.783203125" xlink:href="#BitstreamVeraSans-Roman-74"/>
      <use x="66.9921875" xlink:href="#BitstreamVeraSans-Roman-65"/>
      <use x="128.515625" xlink:href="#BitstreamVeraSans-Roman-72"/>
      <use x="169.62890625" xlink:href="#BitstreamVeraSans-Roman-61"/>
      <use x="230.908203125" xlink:href="#BitstreamVeraSans-Roman-74"/>
      <use x="270.1171875" xlink:href="#BitstreamVeraSans-Roman-69"/>
      <use x="297.900390625" xlink:href="#BitstreamVeraSans-Roman-6f"/>
      <use x="359.08203125" xlink:href="#BitstreamVeraSans-Roman-6e"/>
      <use x="422.4609375" xlink:href="#BitstreamVeraSans-Roman-73"/>
     </g>
    </g>
   </g>
   <g id="matplotlib.axis_2">
    <g id="ytick_1">
     <g id="line2d_15">
      <defs>
       <path d="M 0 0 
L 4 0 
" id="m44fabe33db" style="stroke:#000000;stroke-width:0.5;"/>
      </defs>
      <g>
       <use style="stroke:#000000;stroke-width:0.5;" x="93.38265625" xlink:href="#m44fabe33db" y="770.338125"/>
      </g>
     </g>
     <g id="line2d_16">
      <defs>
       <path d="M 0 0 
L -4 0 
" id="m17c627bf07" style="stroke:#000000;stroke-width:0.5;"/>
      </defs>
      <g>
       <use style="stroke:#000000;stroke-width:0.5;" x="1381.831875" xlink:href="#m17c627bf07" y="770.338125"/>
      </g>
     </g>
     <g id="text_8">
      <!-- −60 -->
      <defs>
       <path d="M 10.59375 35.5 
L 73.1875 35.5 
L 73.1875 27.203125 
L 10.59375 27.203125 
z
" id="BitstreamVeraSans-Roman-2212"/>
       <path d="M 33.015625 40.375 
Q 26.375 40.375 22.484375 35.828125 
Q 18.609375 31.296875 18.609375 23.390625 
Q 18.609375 15.53125 22.484375 10.953125 
Q 26.375 6.390625 33.015625 6.390625 
Q 39.65625 6.390625 43.53125 10.953125 
Q 47.40625 15.53125 47.40625 23.390625 
Q 47.40625 31.296875 43.53125 35.828125 
Q 39.65625 40.375 33.015625 40.375 
M 52.59375 71.296875 
L 52.59375 62.3125 
Q 48.875 64.0625 45.09375 64.984375 
Q 41.3125 65.921875 37.59375 65.921875 
Q 27.828125 65.921875 22.671875 59.328125 
Q 17.53125 52.734375 16.796875 39.40625 
Q 19.671875 43.65625 24.015625 45.921875 
Q 28.375 48.1875 33.59375 48.1875 
Q 44.578125 48.1875 50.953125 41.515625 
Q 57.328125 34.859375 57.328125 23.390625 
Q 57.328125 12.15625 50.6875 5.359375 
Q 44.046875 -1.421875 33.015625 -1.421875 
Q 20.359375 -1.421875 13.671875 8.265625 
Q 6.984375 17.96875 6.984375 36.375 
Q 6.984375 53.65625 15.1875 63.9375 
Q 23.390625 74.21875 37.203125 74.21875 
Q 40.921875 74.21875 44.703125 73.484375 
Q 48.484375 72.75 52.59375 71.296875 
" id="BitstreamVeraSans-Roman-36"/>
      </defs>
      <g transform="translate(26.06859375 778.61625)scale(0.3 -0.3)">
       <use xlink:href="#BitstreamVeraSans-Roman-2212"/>
       <use x="83.7890625" xlink:href="#BitstreamVeraSans-Roman-36"/>
       <use x="147.412109375" xlink:href="#BitstreamVeraSans-Roman-30"/>
      </g>
     </g>
    </g>
    <g id="ytick_2">
     <g id="line2d_17">
      <g>
       <use style="stroke:#000000;stroke-width:0.5;" x="93.38265625" xlink:href="#m44fabe33db" y="681.285332031"/>
      </g>
     </g>
     <g id="line2d_18">
      <g>
       <use style="stroke:#000000;stroke-width:0.5;" x="1381.831875" xlink:href="#m17c627bf07" y="681.285332031"/>
      </g>
     </g>
     <g id="text_9">
      <!-- −50 -->
      <g transform="translate(26.06859375 689.563457031)scale(0.3 -0.3)">
       <use xlink:href="#BitstreamVeraSans-Roman-2212"/>
       <use x="83.7890625" xlink:href="#BitstreamVeraSans-Roman-35"/>
       <use x="147.412109375" xlink:href="#BitstreamVeraSans-Roman-30"/>
      </g>
     </g>
    </g>
    <g id="ytick_3">
     <g id="line2d_19">
      <g>
       <use style="stroke:#000000;stroke-width:0.5;" x="93.38265625" xlink:href="#m44fabe33db" y="592.232539062"/>
      </g>
     </g>
     <g id="line2d_20">
      <g>
       <use style="stroke:#000000;stroke-width:0.5;" x="1381.831875" xlink:href="#m17c627bf07" y="592.232539062"/>
      </g>
     </g>
     <g id="text_10">
      <!-- −40 -->
      <g transform="translate(26.06859375 600.510664062)scale(0.3 -0.3)">
       <use xlink:href="#BitstreamVeraSans-Roman-2212"/>
       <use x="83.7890625" xlink:href="#BitstreamVeraSans-Roman-34"/>
       <use x="147.412109375" xlink:href="#BitstreamVeraSans-Roman-30"/>
      </g>
     </g>
    </g>
    <g id="ytick_4">
     <g id="line2d_21">
      <g>
       <use style="stroke:#000000;stroke-width:0.5;" x="93.38265625" xlink:href="#m44fabe33db" y="503.179746094"/>
      </g>
     </g>
     <g id="line2d_22">
      <g>
       <use style="stroke:#000000;stroke-width:0.5;" x="1381.831875" xlink:href="#m17c627bf07" y="503.179746094"/>
      </g>
     </g>
     <g id="text_11">
      <!-- −30 -->
      <g transform="translate(26.06859375 511.457871094)scale(0.3 -0.3)">
       <use xlink:href="#BitstreamVeraSans-Roman-2212"/>
       <use x="83.7890625" xlink:href="#BitstreamVeraSans-Roman-33"/>
       <use x="147.412109375" xlink:href="#BitstreamVeraSans-Roman-30"/>
      </g>
     </g>
    </g>
    <g id="ytick_5">
     <g id="line2d_23">
      <g>
       <use style="stroke:#000000;stroke-width:0.5;" x="93.38265625" xlink:href="#m44fabe33db" y="414.126953125"/>
      </g>
     </g>
     <g id="line2d_24">
      <g>
       <use style="stroke:#000000;stroke-width:0.5;" x="1381.831875" xlink:href="#m17c627bf07" y="414.126953125"/>
      </g>
     </g>
     <g id="text_12">
      <!-- −20 -->
      <g transform="translate(26.06859375 422.405078125)scale(0.3 -0.3)">
       <use xlink:href="#BitstreamVeraSans-Roman-2212"/>
       <use x="83.7890625" xlink:href="#BitstreamVeraSans-Roman-32"/>
       <use x="147.412109375" xlink:href="#BitstreamVeraSans-Roman-30"/>
      </g>
     </g>
    </g>
    <g id="ytick_6">
     <g id="line2d_25">
      <g>
       <use style="stroke:#000000;stroke-width:0.5;" x="93.38265625" xlink:href="#m44fabe33db" y="325.074160156"/>
      </g>
     </g>
     <g id="line2d_26">
      <g>
       <use style="stroke:#000000;stroke-width:0.5;" x="1381.831875" xlink:href="#m17c627bf07" y="325.074160156"/>
      </g>
     </g>
     <g id="text_13">
      <!-- −10 -->
      <g transform="translate(26.06859375 333.352285156)scale(0.3 -0.3)">
       <use xlink:href="#BitstreamVeraSans-Roman-2212"/>
       <use x="83.7890625" xlink:href="#BitstreamVeraSans-Roman-31"/>
       <use x="147.412109375" xlink:href="#BitstreamVeraSans-Roman-30"/>
      </g>
     </g>
    </g>
    <g id="ytick_7">
     <g id="line2d_27">
      <g>
       <use style="stroke:#000000;stroke-width:0.5;" x="93.38265625" xlink:href="#m44fabe33db" y="236.021367188"/>
      </g>
     </g>
     <g id="line2d_28">
      <g>
       <use style="stroke:#000000;stroke-width:0.5;" x="1381.831875" xlink:href="#m17c627bf07" y="236.021367188"/>
      </g>
     </g>
     <g id="text_14">
      <!-- 0 -->
      <g transform="translate(70.29515625 244.299492188)scale(0.3 -0.3)">
       <use xlink:href="#BitstreamVeraSans-Roman-30"/>
      </g>
     </g>
    </g>
    <g id="ytick_8">
     <g id="line2d_29">
      <g>
       <use style="stroke:#000000;stroke-width:0.5;" x="93.38265625" xlink:href="#m44fabe33db" y="146.968574219"/>
      </g>
     </g>
     <g id="line2d_30">
      <g>
       <use style="stroke:#000000;stroke-width:0.5;" x="1381.831875" xlink:href="#m17c627bf07" y="146.968574219"/>
      </g>
     </g>
     <g id="text_15">
      <!-- 10 -->
      <g transform="translate(51.20765625 155.246699219)scale(0.3 -0.3)">
       <use xlink:href="#BitstreamVeraSans-Roman-31"/>
       <use x="63.623046875" xlink:href="#BitstreamVeraSans-Roman-30"/>
      </g>
     </g>
    </g>
    <g id="ytick_9">
     <g id="line2d_31">
      <g>
       <use style="stroke:#000000;stroke-width:0.5;" x="93.38265625" xlink:href="#m44fabe33db" y="57.91578125"/>
      </g>
     </g>
     <g id="line2d_32">
      <g>
       <use style="stroke:#000000;stroke-width:0.5;" x="1381.831875" xlink:href="#m17c627bf07" y="57.91578125"/>
      </g>
     </g>
     <g id="text_16">
      <!-- 20 -->
      <g transform="translate(51.20765625 66.19390625)scale(0.3 -0.3)">
       <use xlink:href="#BitstreamVeraSans-Roman-32"/>
       <use x="63.623046875" xlink:href="#BitstreamVeraSans-Roman-30"/>
      </g>
     </g>
    </g>
   </g>
   <g id="text_17">
    <!-- log(loss) -->
    <defs>
     <path d="M 8.015625 75.875 
L 15.828125 75.875 
Q 23.140625 64.359375 26.78125 53.3125 
Q 30.421875 42.28125 30.421875 31.390625 
Q 30.421875 20.453125 26.78125 9.375 
Q 23.140625 -1.703125 15.828125 -13.1875 
L 8.015625 -13.1875 
Q 14.5 -2 17.703125 9.0625 
Q 20.90625 20.125 20.90625 31.390625 
Q 20.90625 42.671875 17.703125 53.65625 
Q 14.5 64.65625 8.015625 75.875 
" id="BitstreamVeraSans-Roman-29"/>
     <path d="M 31 75.875 
Q 24.46875 64.65625 21.28125 53.65625 
Q 18.109375 42.671875 18.109375 31.390625 
Q 18.109375 20.125 21.3125 9.0625 
Q 24.515625 -2 31 -13.1875 
L 23.1875 -13.1875 
Q 15.875 -1.703125 12.234375 9.375 
Q 8.59375 20.453125 8.59375 31.390625 
Q 8.59375 42.28125 12.203125 53.3125 
Q 15.828125 64.359375 23.1875 75.875 
z
" id="BitstreamVeraSans-Roman-28"/>
     <path d="M 45.40625 27.984375 
Q 45.40625 37.75 41.375 43.109375 
Q 37.359375 48.484375 30.078125 48.484375 
Q 22.859375 48.484375 18.828125 43.109375 
Q 14.796875 37.75 14.796875 27.984375 
Q 14.796875 18.265625 18.828125 12.890625 
Q 22.859375 7.515625 30.078125 7.515625 
Q 37.359375 7.515625 41.375 12.890625 
Q 45.40625 18.265625 45.40625 27.984375 
M 54.390625 6.78125 
Q 54.390625 -7.171875 48.1875 -13.984375 
Q 42 -20.796875 29.203125 -20.796875 
Q 24.46875 -20.796875 20.265625 -20.09375 
Q 16.0625 -19.390625 12.109375 -17.921875 
L 12.109375 -9.1875 
Q 16.0625 -11.328125 19.921875 -12.34375 
Q 23.78125 -13.375 27.78125 -13.375 
Q 36.625 -13.375 41.015625 -8.765625 
Q 45.40625 -4.15625 45.40625 5.171875 
L 45.40625 9.625 
Q 42.625 4.78125 38.28125 2.390625 
Q 33.9375 0 27.875 0 
Q 17.828125 0 11.671875 7.65625 
Q 5.515625 15.328125 5.515625 27.984375 
Q 5.515625 40.671875 11.671875 48.328125 
Q 17.828125 56 27.875 56 
Q 33.9375 56 38.28125 53.609375 
Q 42.625 51.21875 45.40625 46.390625 
L 45.40625 54.6875 
L 54.390625 54.6875 
z
" id="BitstreamVeraSans-Roman-67"/>
     <path d="M 9.421875 75.984375 
L 18.40625 75.984375 
L 18.40625 0 
L 9.421875 0 
z
" id="BitstreamVeraSans-Roman-6c"/>
    </defs>
    <g transform="translate(674.061171875 52.91578125)scale(0.3 -0.3)">
     <use xlink:href="#BitstreamVeraSans-Roman-6c"/>
     <use x="27.783203125" xlink:href="#BitstreamVeraSans-Roman-6f"/>
     <use x="88.96484375" xlink:href="#BitstreamVeraSans-Roman-67"/>
     <use x="152.44140625" xlink:href="#BitstreamVeraSans-Roman-28"/>
     <use x="191.455078125" xlink:href="#BitstreamVeraSans-Roman-6c"/>
     <use x="219.23828125" xlink:href="#BitstreamVeraSans-Roman-6f"/>
     <use x="280.419921875" xlink:href="#BitstreamVeraSans-Roman-73"/>
     <use x="332.51953125" xlink:href="#BitstreamVeraSans-Roman-73"/>
     <use x="384.619140625" xlink:href="#BitstreamVeraSans-Roman-29"/>
    </g>
   </g>
   <g id="legend_1">
    <g id="patch_7">
     <path d="M 1142.47875 169.984531 
L 1366.831875 169.984531 
L 1366.831875 72.915781 
L 1142.47875 72.915781 
z
" style="fill:#ffffff;stroke:#000000;stroke-linejoin:miter;"/>
    </g>
    <g id="line2d_33">
     <path d="M 1163.47875 97.211094 
L 1205.47875 97.211094 
" style="fill:none;stroke:#0000ff;stroke-linecap:square;stroke-width:2.0;"/>
    </g>
    <g id="line2d_34"/>
    <g id="text_18">
     <!-- random -->
     <defs>
      <path d="M 45.40625 46.390625 
L 45.40625 75.984375 
L 54.390625 75.984375 
L 54.390625 0 
L 45.40625 0 
L 45.40625 8.203125 
Q 42.578125 3.328125 38.25 0.953125 
Q 33.9375 -1.421875 27.875 -1.421875 
Q 17.96875 -1.421875 11.734375 6.484375 
Q 5.515625 14.40625 5.515625 27.296875 
Q 5.515625 40.1875 11.734375 48.09375 
Q 17.96875 56 27.875 56 
Q 33.9375 56 38.25 53.625 
Q 42.578125 51.265625 45.40625 46.390625 
M 14.796875 27.296875 
Q 14.796875 17.390625 18.875 11.75 
Q 22.953125 6.109375 30.078125 6.109375 
Q 37.203125 6.109375 41.296875 11.75 
Q 45.40625 17.390625 45.40625 27.296875 
Q 45.40625 37.203125 41.296875 42.84375 
Q 37.203125 48.484375 30.078125 48.484375 
Q 22.953125 48.484375 18.875 42.84375 
Q 14.796875 37.203125 14.796875 27.296875 
" id="BitstreamVeraSans-Roman-64"/>
      <path d="M 52 44.1875 
Q 55.375 50.25 60.0625 53.125 
Q 64.75 56 71.09375 56 
Q 79.640625 56 84.28125 50.015625 
Q 88.921875 44.046875 88.921875 33.015625 
L 88.921875 0 
L 79.890625 0 
L 79.890625 32.71875 
Q 79.890625 40.578125 77.09375 44.375 
Q 74.3125 48.1875 68.609375 48.1875 
Q 61.625 48.1875 57.5625 43.546875 
Q 53.515625 38.921875 53.515625 30.90625 
L 53.515625 0 
L 44.484375 0 
L 44.484375 32.71875 
Q 44.484375 40.625 41.703125 44.40625 
Q 38.921875 48.1875 33.109375 48.1875 
Q 26.21875 48.1875 22.15625 43.53125 
Q 18.109375 38.875 18.109375 30.90625 
L 18.109375 0 
L 9.078125 0 
L 9.078125 54.6875 
L 18.109375 54.6875 
L 18.109375 46.1875 
Q 21.1875 51.21875 25.484375 53.609375 
Q 29.78125 56 35.6875 56 
Q 41.65625 56 45.828125 52.96875 
Q 50 49.953125 52 44.1875 
" id="BitstreamVeraSans-Roman-6d"/>
     </defs>
     <g transform="translate(1238.47875 107.71109375)scale(0.3 -0.3)">
      <use xlink:href="#BitstreamVeraSans-Roman-72"/>
      <use x="41.11328125" xlink:href="#BitstreamVeraSans-Roman-61"/>
      <use x="102.392578125" xlink:href="#BitstreamVeraSans-Roman-6e"/>
      <use x="165.771484375" xlink:href="#BitstreamVeraSans-Roman-64"/>
      <use x="229.248046875" xlink:href="#BitstreamVeraSans-Roman-6f"/>
      <use x="290.4296875" xlink:href="#BitstreamVeraSans-Roman-6d"/>
     </g>
    </g>
    <g id="line2d_35">
     <path d="M 1163.47875 141.245469 
L 1205.47875 141.245469 
" style="fill:none;stroke:#008000;stroke-linecap:square;stroke-width:2.0;"/>
    </g>
    <g id="line2d_36"/>
    <g id="text_19">
     <!-- corr -->
     <defs>
      <path d="M 48.78125 52.59375 
L 48.78125 44.1875 
Q 44.96875 46.296875 41.140625 47.34375 
Q 37.3125 48.390625 33.40625 48.390625 
Q 24.65625 48.390625 19.8125 42.84375 
Q 14.984375 37.3125 14.984375 27.296875 
Q 14.984375 17.28125 19.8125 11.734375 
Q 24.65625 6.203125 33.40625 6.203125 
Q 37.3125 6.203125 41.140625 7.25 
Q 44.96875 8.296875 48.78125 10.40625 
L 48.78125 2.09375 
Q 45.015625 0.34375 40.984375 -0.53125 
Q 36.96875 -1.421875 32.421875 -1.421875 
Q 20.0625 -1.421875 12.78125 6.34375 
Q 5.515625 14.109375 5.515625 27.296875 
Q 5.515625 40.671875 12.859375 48.328125 
Q 20.21875 56 33.015625 56 
Q 37.15625 56 41.109375 55.140625 
Q 45.0625 54.296875 48.78125 52.59375 
" id="BitstreamVeraSans-Roman-63"/>
     </defs>
     <g transform="translate(1238.47875 151.74546875)scale(0.3 -0.3)">
      <use xlink:href="#BitstreamVeraSans-Roman-63"/>
      <use x="54.98046875" xlink:href="#BitstreamVeraSans-Roman-6f"/>
      <use x="116.162109375" xlink:href="#BitstreamVeraSans-Roman-72"/>
      <use x="157.259765625" xlink:href="#BitstreamVeraSans-Roman-72"/>
     </g>
    </g>
   </g>
  </g>
 </g>
 <defs>
  <clipPath id="p055a325ae8">
   <rect height="712.42234375" width="1288.44921875" x="93.38265625" y="57.91578125"/>
  </clipPath>
 </defs>
</svg>
