<?xml version="1.0" encoding="utf-8" standalone="no"?>
<!DOCTYPE svg PUBLIC "-//W3C//DTD SVG 1.1//EN"
  "http://www.w3.org/Graphics/SVG/1.1/DTD/svg11.dtd">
<!-- Created with matplotlib (http://matplotlib.org/) -->
<svg height="864pt" version="1.1" viewBox="0 0 1440 864" width="1440pt" xmlns="http://www.w3.org/2000/svg" xmlns:xlink="http://www.w3.org/1999/xlink">
 <defs>
  <style type="text/css">
*{stroke-linecap:butt;stroke-linejoin:round;stroke-miterlimit:100000;}
  </style>
 </defs>
 <g id="figure_1">
  <g id="patch_1">
   <path d="M 0 864 
L 1440 864 
L 1440 0 
L 0 0 
z
" style="fill:#ffffff;"/>
  </g>
  <g id="axes_1">
   <g id="patch_2">
    <path d="M 158.4 747 
L 1359.9 747 
L 1359.9 51.3 
L 158.4 51.3 
z
" style="fill:#ffffff;"/>
   </g>
   <g id="line2d_1">
    <path clip-path="url(#p77bbaaf9a7)" d="M 158.4 125.449859 
L 159.6015 126.964218 
L 160.803 128.777272 
L 165.609 133.263223 
L 166.8105 134.171516 
L 168.012 136.253899 
L 169.2135 136.894907 
L 170.415 137.825765 
L 171.6165 139.156547 
L 174.0195 142.175749 
L 175.221 143.188145 
L 176.4225 144.629427 
L 177.624 145.630763 
L 182.43 151.452149 
L 183.6315 152.299887 
L 184.833 153.444067 
L 186.0345 154.387591 
L 187.236 156.095618 
L 188.4375 156.956928 
L 189.639 158.831695 
L 190.8405 159.850623 
L 192.042 161.297474 
L 193.2435 162.065594 
L 194.445 163.694362 
L 195.6465 164.694461 
L 196.848 164.888731 
L 198.0495 166.13716 
L 199.251 166.887187 
L 200.4525 168.40688 
L 201.654 169.025963 
L 204.057 171.6226 
L 206.46 174.275196 
L 210.0645 176.542928 
L 211.266 177.884787 
L 212.4675 178.965913 
L 213.669 181.315487 
L 214.8705 182.259734 
L 216.072 182.9803 
L 218.475 184.875216 
L 219.6765 185.860529 
L 222.0795 188.381609 
L 223.281 189.954668 
L 224.4825 190.922606 
L 225.684 191.370979 
L 226.8855 192.355727 
L 229.2885 193.67509 
L 230.49 194.630698 
L 231.6915 196.051291 
L 235.296 198.874895 
L 236.4975 199.465344 
L 237.699 201.148703 
L 238.9005 202.534294 
L 240.102 203.578674 
L 241.3035 204.374506 
L 242.505 205.341652 
L 243.7065 206.641882 
L 244.908 207.747059 
L 246.1095 208.305109 
L 250.9155 212.158052 
L 252.117 213.042965 
L 253.3185 214.204279 
L 254.52 215.040793 
L 255.7215 215.584182 
L 258.1245 217.39753 
L 260.5275 218.724225 
L 267.7365 224.810121 
L 268.938 225.890191 
L 270.1395 226.594718 
L 271.341 227.753645 
L 272.5425 228.406128 
L 274.9455 230.118463 
L 277.3485 232.568808 
L 278.55 233.36522 
L 280.953 234.433451 
L 282.1545 234.988008 
L 284.5575 236.728379 
L 285.759 237.625961 
L 286.9605 238.216499 
L 289.3635 240.094561 
L 290.565 241.598245 
L 291.7665 242.17033 
L 292.968 242.483736 
L 294.1695 243.318767 
L 295.371 244.44938 
L 296.5725 245.059794 
L 297.774 246.028835 
L 298.9755 247.828567 
L 300.177 248.828563 
L 301.3785 250.08929 
L 303.7815 251.451605 
L 307.386 254.422988 
L 309.789 255.675371 
L 312.192 257.521426 
L 313.3935 258.167328 
L 314.595 259.567932 
L 315.7965 260.615365 
L 316.998 261.205153 
L 318.1995 261.991053 
L 320.6025 264.100567 
L 321.804 264.67911 
L 323.0055 265.521653 
L 324.207 266.789272 
L 325.4085 267.554948 
L 326.61 268.180425 
L 327.8115 268.48947 
L 329.013 269.980058 
L 331.416 271.759981 
L 332.6175 272.668157 
L 333.819 273.338481 
L 335.0205 274.239343 
L 336.222 274.989621 
L 337.4235 275.901065 
L 338.625 277.131144 
L 339.8265 277.821477 
L 341.028 278.948201 
L 342.2295 280.230198 
L 343.431 281.047123 
L 344.6325 282.025434 
L 345.834 282.638875 
L 348.237 284.261316 
L 349.4385 284.835555 
L 354.2445 288.419782 
L 355.446 289.504115 
L 357.849 291.213235 
L 359.0505 291.98567 
L 361.4535 294.0534 
L 363.8565 295.351122 
L 365.058 296.490689 
L 366.2595 297.377878 
L 367.461 298.033661 
L 368.6625 298.848372 
L 369.864 299.954826 
L 371.0655 300.859133 
L 372.267 302.056909 
L 373.4685 302.774357 
L 377.073 305.737812 
L 378.2745 306.514986 
L 380.6775 308.958933 
L 381.879 309.749066 
L 383.0805 310.971391 
L 386.685 313.431099 
L 387.8865 314.204263 
L 389.088 315.125477 
L 390.2895 315.849061 
L 391.491 317.116475 
L 393.894 318.463651 
L 395.0955 319.482236 
L 397.4985 320.9265 
L 398.7 322.205031 
L 403.506 326.684121 
L 407.1105 329.296391 
L 408.312 330.542157 
L 410.715 331.333733 
L 411.9165 332.308419 
L 415.521 334.15938 
L 416.7225 334.959574 
L 417.924 336.371788 
L 420.327 338.070197 
L 422.73 340.164815 
L 423.9315 341.128771 
L 426.3345 342.553882 
L 427.536 344.078723 
L 428.7375 344.928512 
L 429.939 345.619999 
L 431.1405 346.134066 
L 432.342 346.931486 
L 433.5435 347.54597 
L 434.745 348.495396 
L 435.9465 349.079376 
L 439.551 352.327628 
L 440.7525 352.727068 
L 443.1555 354.653635 
L 444.357 355.652627 
L 445.5585 356.402863 
L 446.76 357.5264 
L 447.9615 357.863729 
L 449.163 358.791977 
L 450.3645 360.395411 
L 451.566 361.068851 
L 452.7675 362.284562 
L 453.969 363.128695 
L 455.1705 364.129967 
L 457.5735 365.674989 
L 458.775 366.54805 
L 462.3795 369.596163 
L 463.581 370.376014 
L 469.5885 375.127152 
L 470.79 375.694525 
L 471.9915 376.909785 
L 473.193 377.596 
L 475.596 379.304086 
L 476.7975 380.396522 
L 479.2005 381.611926 
L 480.402 382.193005 
L 481.6035 383.28096 
L 484.0065 385.104628 
L 486.4095 386.108288 
L 487.611 387.059361 
L 488.8125 387.69595 
L 490.014 389.177975 
L 491.2155 390.048725 
L 492.417 390.64464 
L 493.6185 391.660318 
L 494.82 393.186755 
L 496.0215 393.885693 
L 497.223 394.359433 
L 498.4245 395.05729 
L 499.626 395.977026 
L 502.029 397.009984 
L 503.2305 398.00215 
L 504.432 398.713672 
L 505.6335 399.29288 
L 506.835 400.381005 
L 508.0365 401.272852 
L 509.238 402.485872 
L 510.4395 404.181201 
L 511.641 405.563589 
L 514.044 407.536207 
L 515.2455 408.456148 
L 516.447 409.142851 
L 517.6485 410.164165 
L 518.85 410.98627 
L 522.4545 414.45723 
L 524.8575 416.021221 
L 526.059 416.354419 
L 532.0665 420.863404 
L 533.268 422.187546 
L 534.4695 422.938497 
L 535.671 423.459382 
L 536.8725 424.289997 
L 538.074 425.619751 
L 539.2755 426.424267 
L 540.477 427.453758 
L 541.6785 428.670887 
L 542.88 429.532897 
L 545.283 431.770363 
L 547.686 433.16776 
L 551.2905 435.695127 
L 552.492 436.311462 
L 554.895 438.402819 
L 556.0965 439.58961 
L 557.298 440.562821 
L 558.4995 441.279839 
L 559.701 442.478964 
L 560.9025 442.981979 
L 563.3055 445.031304 
L 564.507 446.068209 
L 565.7085 446.896256 
L 568.1115 449.115813 
L 569.313 449.950998 
L 570.5145 451.124266 
L 571.716 451.99454 
L 572.9175 453.208646 
L 575.3205 455.050959 
L 577.7235 456.199336 
L 580.1265 458.230346 
L 581.328 458.702385 
L 582.5295 459.305014 
L 584.9325 461.319005 
L 586.134 462.060435 
L 588.537 463.27179 
L 589.7385 463.614105 
L 590.94 464.642651 
L 592.1415 465.936562 
L 593.343 466.891268 
L 594.5445 467.581388 
L 595.746 468.875809 
L 598.149 470.984477 
L 599.3505 471.927129 
L 600.552 473.28207 
L 601.7535 474.180192 
L 602.955 474.792873 
L 604.1565 475.921283 
L 605.358 476.766175 
L 606.5595 477.392065 
L 607.761 478.665913 
L 610.164 479.808765 
L 611.3655 481.191723 
L 612.567 482.044809 
L 613.7685 483.288012 
L 614.97 484.088652 
L 618.5745 487.351715 
L 622.179 490.267224 
L 623.3805 491.017992 
L 625.7835 492.653723 
L 626.985 493.845306 
L 628.1865 494.417272 
L 629.388 495.183323 
L 630.5895 495.715973 
L 631.791 496.616414 
L 634.194 498.129937 
L 635.3955 499.266996 
L 636.597 499.726503 
L 640.2015 502.596958 
L 643.806 506.384064 
L 645.0075 507.307868 
L 646.209 508.582352 
L 647.4105 509.410759 
L 648.612 510.07402 
L 651.015 512.115937 
L 652.2165 513.23166 
L 655.821 515.63171 
L 657.0225 516.510543 
L 658.224 517.03539 
L 659.4255 517.733909 
L 660.627 518.777355 
L 661.8285 519.410158 
L 663.03 520.532844 
L 667.836 523.973766 
L 670.239 525.679963 
L 671.4405 526.720946 
L 672.642 527.312452 
L 673.8435 528.150333 
L 675.045 528.821661 
L 676.2465 529.758045 
L 677.448 530.276395 
L 681.0525 533.218382 
L 682.254 533.596008 
L 683.4555 534.571224 
L 684.657 535.193439 
L 687.06 537.256497 
L 688.2615 538.333253 
L 689.463 538.809299 
L 690.6645 539.732625 
L 693.0675 540.80179 
L 695.4705 542.643254 
L 696.672 543.890493 
L 697.8735 544.800212 
L 700.2765 546.200326 
L 702.6795 548.435156 
L 705.0825 549.840975 
L 707.4855 552.299722 
L 709.8885 553.484979 
L 711.09 554.280168 
L 712.2915 555.412482 
L 713.493 556.165357 
L 715.896 558.054697 
L 717.0975 558.641692 
L 718.299 559.056268 
L 720.702 560.59338 
L 721.9035 561.813715 
L 723.105 562.595393 
L 726.7095 565.695842 
L 727.911 566.158567 
L 729.1125 566.871853 
L 733.9185 570.87452 
L 736.3215 572.231162 
L 737.523 573.361461 
L 738.7245 574.092414 
L 739.926 575.126008 
L 741.1275 575.857663 
L 742.329 576.316299 
L 747.135 579.932104 
L 748.3365 580.461198 
L 749.538 581.702005 
L 751.941 583.502304 
L 753.1425 584.798861 
L 754.344 585.421837 
L 755.5455 586.274371 
L 756.747 586.798103 
L 759.15 588.479359 
L 760.3515 589.560313 
L 763.956 591.151999 
L 765.1575 591.901388 
L 766.359 593.07921 
L 767.5605 593.555992 
L 769.9635 595.060299 
L 771.165 595.645667 
L 774.7695 598.549896 
L 775.971 599.196629 
L 778.374 601.626393 
L 780.777 602.842827 
L 781.9785 603.519346 
L 783.18 604.722617 
L 785.583 606.590378 
L 786.7845 607.232886 
L 787.986 608.318897 
L 789.1875 609.245603 
L 791.5905 610.722306 
L 793.9935 612.938722 
L 800.001 616.762693 
L 804.807 620.327529 
L 806.0085 621.749204 
L 807.21 622.740876 
L 808.4115 623.308022 
L 809.613 624.225392 
L 810.8145 624.663574 
L 812.016 625.246068 
L 813.2175 626.433404 
L 814.419 626.99472 
L 815.6205 627.923384 
L 816.822 629.200875 
L 818.0235 630.7868 
L 819.225 631.873326 
L 821.628 633.568378 
L 822.8295 634.16487 
L 827.6355 637.150902 
L 828.837 638.189258 
L 830.0385 638.726194 
L 831.24 639.423518 
L 832.4415 640.315791 
L 834.8445 641.689137 
L 836.046 642.885531 
L 837.2475 643.499611 
L 839.6505 645.105592 
L 840.852 645.505511 
L 842.0535 646.077276 
L 843.255 646.785341 
L 844.4565 647.765756 
L 846.8595 650.048725 
L 852.867 653.415177 
L 854.0685 654.290554 
L 855.27 654.885985 
L 856.4715 655.711689 
L 857.673 655.840676 
L 858.8745 656.624083 
L 860.076 657.180433 
L 861.2775 657.600211 
L 862.479 658.858073 
L 863.6805 659.393034 
L 864.882 660.336594 
L 866.0835 660.73106 
L 867.285 661.304792 
L 868.4865 661.404724 
L 869.688 662.131634 
L 870.8895 661.971128 
L 873.2925 662.901449 
L 875.6955 663.37946 
L 876.897 664.002071 
L 879.3 664.290082 
L 881.703 665.060582 
L 882.9045 665.697046 
L 885.3075 666.370424 
L 886.509 666.850513 
L 887.7105 666.788645 
L 888.912 666.874902 
L 890.1135 667.255431 
L 891.315 667.433195 
L 892.5165 667.30886 
L 893.718 667.462127 
L 894.9195 667.852461 
L 897.3225 667.235164 
L 899.7255 668.060335 
L 902.1285 668.693929 
L 903.33 667.862018 
L 905.733 668.368548 
L 906.9345 668.064192 
L 908.136 668.51497 
L 909.3375 669.721091 
L 910.539 669.058544 
L 911.7405 669.189425 
L 912.942 668.754526 
L 914.1435 668.502636 
L 915.345 668.396352 
L 916.5465 669.346753 
L 918.9495 668.638576 
L 921.3525 668.836623 
L 922.554 668.618203 
L 923.7555 665.71795 
L 924.957 665.720798 
L 926.1585 666.988369 
L 927.36 667.9406 
L 929.763 668.977164 
L 930.9645 668.774758 
L 933.3675 669.64759 
L 934.569 669.92473 
L 935.7705 670.024526 
L 936.972 669.48345 
L 938.1735 669.349076 
L 939.375 669.450349 
L 940.5765 668.943134 
L 941.778 668.881371 
L 942.9795 668.532727 
L 944.181 669.011111 
L 945.3825 668.656086 
L 946.584 668.795857 
L 947.7855 669.213227 
L 948.987 669.310672 
L 950.1885 669.60329 
L 951.39 669.759938 
L 952.5915 669.066166 
L 953.793 669.478545 
L 957.3975 668.976796 
L 958.599 668.518015 
L 959.8005 669.27185 
L 961.002 669.778417 
L 962.2035 670.067846 
L 963.405 669.996727 
L 964.6065 670.121729 
L 965.808 669.381974 
L 967.0095 668.835187 
L 969.4125 669.782802 
L 973.017 669.746014 
L 974.2185 670.364652 
L 975.42 669.477934 
L 976.6215 669.538111 
L 977.823 670.067483 
L 979.0245 669.338169 
L 981.4275 669.70921 
L 982.629 669.157723 
L 983.8305 669.384225 
L 985.032 669.946543 
L 986.2335 670.816681 
L 987.435 670.124193 
L 988.6365 670.918443 
L 989.838 670.260882 
L 992.241 669.761606 
L 993.4425 670.31617 
L 994.644 670.139868 
L 997.047 670.18011 
L 998.2485 669.724397 
L 999.45 669.53117 
L 1000.6515 670.472018 
L 1001.853 670.156131 
L 1004.256 670.226811 
L 1005.4575 670.56796 
L 1006.659 670.646481 
L 1007.8605 670.182975 
L 1009.062 670.810673 
L 1010.2635 671.074092 
L 1012.6665 670.520296 
L 1013.868 670.522068 
L 1015.0695 670.678846 
L 1016.271 670.333304 
L 1019.8755 671.274873 
L 1021.077 670.449098 
L 1022.2785 670.38822 
L 1023.48 670.600018 
L 1024.6815 670.950035 
L 1025.883 670.774783 
L 1027.0845 670.834743 
L 1028.286 670.681904 
L 1029.4875 670.80849 
L 1030.689 670.242057 
L 1031.8905 670.129604 
L 1033.092 669.630714 
L 1034.2935 669.961726 
L 1036.6965 669.98092 
L 1039.0995 670.402905 
L 1040.301 670.042052 
L 1041.5025 670.812578 
L 1042.704 670.731091 
L 1043.9055 670.177723 
L 1045.107 670.072328 
L 1046.3085 670.302851 
L 1047.51 669.641356 
L 1048.7115 670.289998 
L 1049.913 669.694656 
L 1051.1145 669.351889 
L 1053.5175 668.906222 
L 1054.719 669.576832 
L 1055.9205 669.132664 
L 1057.122 669.341073 
L 1058.3235 668.885877 
L 1059.525 669.439303 
L 1060.7265 669.529189 
L 1061.928 669.304132 
L 1063.1295 669.812407 
L 1065.5325 670.118697 
L 1066.734 669.297143 
L 1067.9355 669.558277 
L 1069.137 669.303898 
L 1070.3385 669.170877 
L 1071.54 669.212566 
L 1072.7415 669.103369 
L 1073.943 669.262933 
L 1077.5475 668.921439 
L 1079.9505 669.645118 
L 1081.152 669.510143 
L 1082.3535 669.671841 
L 1083.555 670.388591 
L 1084.7565 670.353921 
L 1085.958 670.573897 
L 1088.361 670.267779 
L 1089.5625 669.712559 
L 1090.764 669.876183 
L 1091.9655 669.848894 
L 1093.167 670.43073 
L 1094.3685 670.204864 
L 1095.57 670.309248 
L 1096.7715 671.100937 
L 1097.973 670.972865 
L 1099.1745 670.553858 
L 1100.376 671.080648 
L 1101.5775 670.971172 
L 1102.779 670.714631 
L 1103.9805 670.668702 
L 1105.182 670.41399 
L 1106.3835 670.683353 
L 1107.585 670.75595 
L 1108.7865 671.221725 
L 1109.988 670.224052 
L 1111.1895 670.17626 
L 1112.391 670.413733 
L 1114.794 670.494548 
L 1117.197 669.77429 
L 1118.3985 670.291928 
L 1119.6 670.570128 
L 1120.8015 670.524507 
L 1122.003 671.272839 
L 1123.2045 670.841006 
L 1124.406 670.643733 
L 1125.6075 671.340104 
L 1126.809 671.028338 
L 1128.0105 670.384426 
L 1129.212 670.397011 
L 1131.615 669.07481 
L 1132.8165 669.084065 
L 1134.018 669.816096 
L 1135.2195 669.129749 
L 1136.421 669.039545 
L 1137.6225 669.094789 
L 1138.824 668.888646 
L 1140.0255 669.193943 
L 1142.4285 670.434764 
L 1143.63 670.149779 
L 1144.8315 670.578983 
L 1147.2345 670.968616 
L 1149.6375 670.238247 
L 1150.839 670.644631 
L 1153.242 670.830991 
L 1154.4435 670.47 
L 1155.645 670.928899 
L 1156.8465 671.141341 
L 1158.048 670.625348 
L 1159.2495 670.925121 
L 1160.451 670.479021 
L 1161.6525 670.971548 
L 1162.854 671.078097 
L 1164.0555 670.963082 
L 1166.4585 669.327586 
L 1167.66 669.563805 
L 1168.8615 670.480123 
L 1170.063 670.24426 
L 1171.2645 670.398092 
L 1172.466 670.690626 
L 1173.6675 670.442915 
L 1174.869 670.637873 
L 1176.0705 670.10294 
L 1177.272 670.267811 
L 1178.4735 669.961179 
L 1179.675 669.94424 
L 1180.8765 670.425185 
L 1182.078 670.407718 
L 1183.2795 670.815568 
L 1184.481 670.23653 
L 1185.6825 670.365167 
L 1186.884 669.752452 
L 1188.0855 669.999937 
L 1189.287 669.864735 
L 1190.4885 670.664707 
L 1191.69 670.704571 
L 1192.8915 670.913297 
L 1194.093 671.400307 
L 1195.2945 671.211191 
L 1196.496 670.779484 
L 1197.6975 671.33706 
L 1198.899 670.833497 
L 1200.1005 670.926638 
L 1201.302 671.302239 
L 1202.5035 671.059555 
L 1203.705 671.125804 
L 1204.9065 670.739579 
L 1206.108 671.021937 
L 1208.511 669.536894 
L 1209.7125 669.736831 
L 1210.914 670.332358 
L 1212.1155 670.642813 
L 1213.317 670.170435 
L 1214.5185 670.052444 
L 1215.72 670.322652 
L 1216.9215 670.757063 
L 1218.123 670.459724 
L 1219.3245 670.701264 
L 1220.526 670.174176 
L 1221.7275 671.169136 
L 1222.929 671.236181 
L 1224.1305 671.1342 
L 1225.332 670.659901 
L 1227.735 670.893048 
L 1230.138 670.940486 
L 1231.3395 671.092846 
L 1232.541 670.487324 
L 1234.944 670.754604 
L 1236.1455 670.732903 
L 1237.347 670.953541 
L 1238.5485 670.273498 
L 1239.75 670.260989 
L 1243.3545 671.119129 
L 1246.959 670.892625 
L 1248.1605 670.424488 
L 1251.765 671.236771 
L 1252.9665 671.065337 
L 1254.168 671.052253 
L 1255.3695 671.715096 
L 1256.571 670.984216 
L 1257.7725 670.813042 
L 1258.974 670.366912 
L 1260.1755 670.586283 
L 1261.377 670.463515 
L 1262.5785 670.166709 
L 1263.78 670.62469 
L 1264.9815 670.550185 
L 1266.183 670.301699 
L 1267.3845 670.499253 
L 1269.7875 670.094922 
L 1270.989 670.844401 
L 1274.5935 670.50229 
L 1275.795 670.916213 
L 1276.9965 671.584783 
L 1278.198 669.711637 
L 1279.3995 669.946171 
L 1280.601 670.338614 
L 1283.004 670.188225 
L 1284.2055 670.484618 
L 1285.407 670.081598 
L 1286.6085 669.994152 
L 1287.81 669.500696 
L 1289.0115 669.711445 
L 1290.213 669.624426 
L 1291.4145 670.163733 
L 1292.616 669.567168 
L 1293.8175 670.247033 
L 1295.019 670.533393 
L 1296.2205 670.447049 
L 1297.422 670.028338 
L 1298.6235 670.392657 
L 1299.825 669.814524 
L 1301.0265 670.321735 
L 1302.228 669.598557 
L 1304.631 669.418569 
L 1305.8325 669.117606 
L 1307.034 669.203918 
L 1308.2355 670.122514 
L 1309.437 670.711828 
L 1311.84 671.591885 
L 1313.0415 671.563279 
L 1314.243 670.625749 
L 1315.4445 671.303865 
L 1316.646 670.509814 
L 1317.8475 670.296094 
L 1319.049 669.836406 
L 1320.2505 670.179246 
L 1321.452 670.404255 
L 1322.6535 669.759908 
L 1323.855 669.966872 
L 1325.0565 669.657506 
L 1326.258 669.085229 
L 1327.4595 669.185577 
L 1328.661 669.89889 
L 1329.8625 669.407508 
L 1331.064 669.898617 
L 1333.467 671.361248 
L 1337.0715 670.204288 
L 1338.273 670.30267 
L 1339.4745 670.572654 
L 1340.676 670.401097 
L 1341.8775 669.837737 
L 1343.079 669.484793 
L 1345.482 670.673116 
L 1346.6835 670.710005 
L 1347.885 672.138087 
L 1349.0865 671.495158 
L 1350.288 671.317116 
L 1351.4895 670.677502 
L 1352.691 671.058019 
L 1353.8925 671.585337 
L 1355.094 670.848105 
L 1356.2955 670.697016 
L 1357.497 670.218531 
L 1358.6985 670.366596 
L 1358.6985 670.366596 
" style="fill:none;stroke:#0000ff;stroke-linecap:square;stroke-width:2.0;"/>
   </g>
   <g id="line2d_2">
    <path clip-path="url(#p77bbaaf9a7)" d="M 158.4 126.050569 
L 159.6015 127.488748 
L 162.0045 130.143268 
L 163.206 131.711895 
L 164.4075 132.83446 
L 165.609 134.12955 
L 168.012 137.803508 
L 171.6165 141.88343 
L 174.0195 143.758865 
L 176.4225 146.995046 
L 177.624 148.464856 
L 180.027 150.873213 
L 181.2285 151.693557 
L 184.833 155.335858 
L 186.0345 157.441032 
L 188.4375 159.839019 
L 190.8405 162.120274 
L 193.2435 164.800882 
L 195.6465 166.406135 
L 199.251 170.972594 
L 207.6615 179.096611 
L 208.863 179.814963 
L 210.0645 180.783551 
L 211.266 181.469192 
L 212.4675 182.563315 
L 213.669 183.456596 
L 216.072 185.609811 
L 217.2735 186.33989 
L 218.475 187.471637 
L 219.6765 189.41921 
L 220.878 190.083112 
L 222.0795 191.320421 
L 223.281 192.267507 
L 224.4825 193.058937 
L 226.8855 195.347954 
L 229.2885 196.665975 
L 231.6915 198.871912 
L 234.0945 201.626553 
L 235.296 203.125166 
L 237.699 205.086594 
L 238.9005 206.035203 
L 240.102 206.633512 
L 242.505 208.546814 
L 243.7065 210.320385 
L 244.908 211.063013 
L 248.5125 213.881919 
L 249.714 215.44593 
L 250.9155 216.138399 
L 253.3185 218.17883 
L 254.52 219.052913 
L 256.923 221.155206 
L 258.1245 221.937228 
L 259.326 222.938477 
L 260.5275 224.454405 
L 262.9305 226.95037 
L 265.3335 228.459783 
L 268.938 231.823188 
L 272.5425 234.634544 
L 273.744 235.045046 
L 276.147 237.34064 
L 277.3485 238.972315 
L 278.55 239.632193 
L 279.7515 240.482141 
L 282.1545 242.819624 
L 283.356 243.970644 
L 285.759 245.345082 
L 286.9605 246.554023 
L 289.3635 248.287534 
L 290.565 249.367719 
L 292.968 250.856742 
L 296.5725 253.90059 
L 297.774 254.594568 
L 298.9755 255.445455 
L 300.177 256.543409 
L 304.983 259.582567 
L 306.1845 260.877586 
L 310.9905 264.224041 
L 312.192 264.906257 
L 314.595 266.906026 
L 315.7965 268.277645 
L 316.998 269.168038 
L 318.1995 269.081404 
L 319.401 270.679656 
L 323.0055 273.321873 
L 324.207 274.591625 
L 325.4085 275.161104 
L 326.61 275.947632 
L 327.8115 276.548536 
L 329.013 277.543733 
L 330.2145 278.076846 
L 333.819 280.951713 
L 335.0205 281.554021 
L 336.222 282.448679 
L 337.4235 283.151968 
L 338.625 284.11305 
L 339.8265 285.226244 
L 341.028 286.536685 
L 342.2295 287.30088 
L 344.6325 289.853551 
L 345.834 290.966134 
L 347.0355 291.801731 
L 348.237 293.268394 
L 349.4385 294.301959 
L 350.64 296.037992 
L 351.8415 297.169522 
L 353.043 298.019305 
L 354.2445 299.337826 
L 355.446 300.193658 
L 356.6475 300.858704 
L 357.849 301.672046 
L 359.0505 302.347864 
L 360.252 303.551661 
L 362.655 305.417432 
L 363.8565 306.88587 
L 371.0655 311.169195 
L 372.267 311.586187 
L 374.67 313.72052 
L 375.8715 314.302373 
L 377.073 315.141079 
L 380.6775 318.105951 
L 381.879 319.043933 
L 383.0805 319.611793 
L 384.282 320.520572 
L 385.4835 321.596553 
L 386.685 322.310215 
L 389.088 324.214638 
L 390.2895 324.75064 
L 392.6925 326.248581 
L 393.894 327.401028 
L 396.297 329.0013 
L 398.7 330.908759 
L 402.3045 332.764085 
L 403.506 334.019671 
L 405.909 335.603367 
L 407.1105 336.153785 
L 409.5135 338.335437 
L 413.118 340.866161 
L 415.521 342.919482 
L 416.7225 343.675961 
L 420.327 346.446276 
L 421.5285 347.648443 
L 423.9315 349.535715 
L 425.133 350.809469 
L 426.3345 351.786117 
L 427.536 352.303186 
L 434.745 358.36056 
L 435.9465 359.56307 
L 437.148 360.151125 
L 439.551 361.820036 
L 440.7525 362.681212 
L 441.954 363.688187 
L 443.1555 364.508387 
L 445.5585 366.621789 
L 446.76 367.429117 
L 447.9615 368.384416 
L 449.163 368.922566 
L 451.566 370.649635 
L 452.7675 371.10847 
L 453.969 371.942131 
L 455.1705 372.554665 
L 457.5735 374.276639 
L 458.775 375.585152 
L 459.9765 376.691662 
L 462.3795 378.176256 
L 463.581 378.92717 
L 464.7825 380.218699 
L 465.984 380.976918 
L 467.1855 382.248191 
L 468.387 383.116841 
L 469.5885 383.579549 
L 470.79 384.719683 
L 473.193 385.935052 
L 474.3945 387.05078 
L 475.596 387.833301 
L 477.999 389.930963 
L 479.2005 390.733764 
L 480.402 391.692657 
L 481.6035 392.94398 
L 484.0065 394.405037 
L 490.014 399.394737 
L 491.2155 399.924853 
L 492.417 401.234054 
L 493.6185 401.765264 
L 494.82 402.840613 
L 496.0215 403.3398 
L 497.223 403.962756 
L 498.4245 404.288358 
L 499.626 405.142734 
L 502.029 407.172188 
L 504.432 408.839673 
L 505.6335 409.191339 
L 506.835 409.865975 
L 508.0365 410.816342 
L 509.238 411.373485 
L 510.4395 412.356993 
L 511.641 412.920644 
L 512.8425 414.017979 
L 514.044 414.698812 
L 515.2455 416.053311 
L 516.447 416.610352 
L 517.6485 417.855626 
L 518.85 418.570867 
L 522.4545 421.025609 
L 523.656 421.781165 
L 524.8575 423.002508 
L 526.059 423.751451 
L 528.462 425.89547 
L 532.0665 428.598596 
L 534.4695 430.010444 
L 536.8725 432.071337 
L 538.074 432.971753 
L 539.2755 433.486944 
L 540.477 434.399789 
L 541.6785 435.490779 
L 542.88 436.762576 
L 544.0815 437.380192 
L 545.283 438.494854 
L 547.686 440.002659 
L 548.8875 441.128098 
L 551.2905 442.609376 
L 552.492 443.171697 
L 553.6935 444.240762 
L 557.298 447.083183 
L 558.4995 447.731396 
L 559.701 448.241412 
L 560.9025 449.040324 
L 562.104 450.547104 
L 564.507 452.420474 
L 566.91 453.549288 
L 569.313 455.168301 
L 570.5145 456.314902 
L 571.716 457.68075 
L 572.9175 458.503031 
L 576.522 461.7392 
L 577.7235 462.673609 
L 578.925 463.426822 
L 580.1265 464.334206 
L 582.5295 465.741045 
L 584.9325 467.637592 
L 586.134 468.906372 
L 587.3355 469.896931 
L 588.537 470.550654 
L 590.94 473.22404 
L 592.1415 474.250788 
L 593.343 475.118536 
L 594.5445 475.696055 
L 596.9475 477.651013 
L 598.149 478.493825 
L 599.3505 479.824303 
L 600.552 480.47761 
L 601.7535 481.759168 
L 602.955 482.636119 
L 604.1565 483.993819 
L 606.5595 485.372982 
L 607.761 485.994127 
L 608.9625 487.107135 
L 611.3655 488.924142 
L 612.567 490.040319 
L 613.7685 490.707566 
L 616.1715 493.375796 
L 618.5745 494.908784 
L 619.776 495.897229 
L 620.9775 496.507361 
L 622.179 497.386968 
L 624.582 498.880678 
L 625.7835 500.135059 
L 626.985 500.967959 
L 628.1865 502.204884 
L 629.388 503.010291 
L 630.5895 503.633905 
L 631.791 504.119915 
L 632.9925 505.212159 
L 635.3955 507.035744 
L 637.7985 509.162336 
L 639 509.966655 
L 640.2015 510.585763 
L 642.6045 512.377976 
L 643.806 512.727483 
L 646.209 514.95332 
L 648.612 517.231227 
L 649.8135 518.554852 
L 651.015 519.279529 
L 652.2165 520.619966 
L 653.418 521.360489 
L 654.6195 522.295986 
L 655.821 523.460508 
L 658.224 524.946989 
L 659.4255 525.963878 
L 660.627 526.775894 
L 663.03 528.559097 
L 664.2315 529.063113 
L 665.433 530.075727 
L 666.6345 530.606351 
L 667.836 531.62825 
L 669.0375 532.357199 
L 672.642 536.444001 
L 675.045 538.063721 
L 676.2465 538.51776 
L 677.448 539.219553 
L 678.6495 540.239378 
L 679.851 540.930849 
L 681.0525 542.122776 
L 683.4555 543.397624 
L 684.657 543.931821 
L 687.06 546.257236 
L 688.2615 546.864434 
L 689.463 548.19719 
L 690.6645 549.741297 
L 694.269 552.313337 
L 695.4705 552.662363 
L 697.8735 554.328519 
L 699.075 555.03994 
L 700.2765 556.27538 
L 702.6795 558.32223 
L 705.0825 560.316882 
L 706.284 561.199062 
L 707.4855 562.316263 
L 708.687 562.851457 
L 709.8885 563.865454 
L 711.09 564.722065 
L 712.2915 565.271431 
L 714.6945 567.074648 
L 719.5005 570.807796 
L 721.9035 571.57169 
L 723.105 572.807497 
L 724.3065 573.748338 
L 725.508 575.018972 
L 726.7095 575.948754 
L 729.1125 577.271246 
L 730.314 578.643872 
L 732.717 580.369946 
L 733.9185 581.244225 
L 735.12 581.906367 
L 737.523 584.334175 
L 738.7245 585.106552 
L 739.926 585.64889 
L 742.329 586.915207 
L 743.5305 587.95215 
L 744.732 588.650534 
L 745.9335 589.059738 
L 748.3365 590.340576 
L 750.7395 592.025606 
L 753.1425 593.20759 
L 754.344 594.31474 
L 755.5455 595.011595 
L 757.9485 596.79083 
L 759.15 597.8959 
L 760.3515 598.816348 
L 761.553 599.935565 
L 762.7545 600.680774 
L 763.956 601.650784 
L 768.762 603.970743 
L 769.9635 605.237599 
L 771.165 605.869565 
L 773.568 607.816069 
L 774.7695 608.155467 
L 779.5755 612.160592 
L 780.777 613.37964 
L 781.9785 613.944075 
L 783.18 614.64369 
L 785.583 616.718339 
L 786.7845 617.114123 
L 789.1875 618.908652 
L 790.389 619.404258 
L 792.792 620.748881 
L 793.9935 621.737406 
L 796.3965 623.061395 
L 797.598 623.564012 
L 798.7995 624.586782 
L 800.001 625.134231 
L 802.404 626.914795 
L 803.6055 627.944279 
L 806.0085 629.575396 
L 807.21 630.636662 
L 809.613 632.067588 
L 810.8145 633.16597 
L 814.419 635.558312 
L 819.225 639.126277 
L 820.4265 639.490953 
L 821.628 640.328348 
L 824.031 641.746617 
L 825.2325 642.935373 
L 826.434 644.65868 
L 827.6355 645.128314 
L 830.0385 646.966636 
L 832.4415 649.109233 
L 833.643 649.947462 
L 834.8445 650.564595 
L 836.046 651.554213 
L 837.2475 651.991127 
L 838.449 652.995789 
L 839.6505 653.833129 
L 842.0535 654.655295 
L 844.4565 656.400127 
L 846.8595 658.622405 
L 848.061 659.215071 
L 849.2625 660.022311 
L 850.464 660.530373 
L 851.6655 660.463109 
L 852.867 660.669294 
L 854.0685 661.406544 
L 855.27 661.677445 
L 856.4715 662.223944 
L 857.673 662.527748 
L 858.8745 663.294982 
L 860.076 663.409029 
L 861.2775 663.940415 
L 862.479 664.33921 
L 864.882 665.554968 
L 866.0835 665.281544 
L 867.285 665.598336 
L 868.4865 665.512705 
L 870.8895 666.518586 
L 872.091 666.738352 
L 873.2925 667.723845 
L 874.494 668.095051 
L 875.6955 667.712095 
L 876.897 667.817445 
L 878.0985 668.090784 
L 879.3 668.739854 
L 881.703 668.911518 
L 882.9045 669.27196 
L 884.106 668.470553 
L 885.3075 668.113032 
L 886.509 668.350052 
L 888.912 667.863417 
L 890.1135 668.414167 
L 891.315 668.256744 
L 893.718 668.238134 
L 894.9195 667.969769 
L 896.121 667.9908 
L 897.3225 667.555996 
L 898.524 667.445761 
L 899.7255 667.518213 
L 900.927 667.837156 
L 902.1285 668.328909 
L 903.33 667.91751 
L 904.5315 668.220443 
L 905.733 668.669155 
L 908.136 668.441761 
L 909.3375 668.666266 
L 910.539 669.157519 
L 911.7405 668.928545 
L 912.942 668.374814 
L 914.1435 668.327113 
L 915.345 668.395234 
L 916.5465 668.995097 
L 917.748 668.74597 
L 918.9495 668.764898 
L 920.151 668.297921 
L 921.3525 668.950512 
L 922.554 668.739654 
L 923.7555 669.364164 
L 924.957 670.280027 
L 926.1585 669.947462 
L 927.36 670.06401 
L 928.5615 669.770033 
L 930.9645 669.855385 
L 932.166 669.641994 
L 933.3675 670.445331 
L 934.569 670.51548 
L 935.7705 669.741924 
L 936.972 670.229371 
L 939.375 670.487658 
L 940.5765 669.726116 
L 941.778 670.332335 
L 942.9795 668.851934 
L 944.181 669.101243 
L 945.3825 668.622748 
L 946.584 668.65331 
L 947.7855 669.577123 
L 948.987 669.728242 
L 950.1885 669.403365 
L 951.39 669.515393 
L 952.5915 670.066905 
L 953.793 669.598944 
L 954.9945 670.269395 
L 956.196 669.931544 
L 957.3975 669.936598 
L 958.599 670.057119 
L 959.8005 669.78291 
L 962.2035 670.330467 
L 963.405 670.041553 
L 964.6065 669.486887 
L 965.808 670.032471 
L 967.0095 669.737059 
L 968.211 670.100026 
L 969.4125 669.782804 
L 970.614 670.246207 
L 971.8155 670.283533 
L 973.017 670.169231 
L 974.2185 669.883286 
L 975.42 669.353934 
L 976.6215 669.29624 
L 977.823 669.766087 
L 979.0245 669.331824 
L 980.226 670.292025 
L 981.4275 670.291164 
L 982.629 670.075807 
L 983.8305 670.466765 
L 985.032 671.040513 
L 986.2335 670.479812 
L 987.435 670.477352 
L 988.6365 670.317959 
L 991.0395 670.712585 
L 992.241 670.359052 
L 993.4425 669.546553 
L 994.644 669.949067 
L 995.8455 670.497179 
L 997.047 670.808534 
L 998.2485 670.780135 
L 999.45 670.514516 
L 1000.6515 669.799567 
L 1001.853 670.347363 
L 1003.0545 671.038207 
L 1004.256 671.018189 
L 1005.4575 671.506829 
L 1006.659 671.476021 
L 1009.062 670.97506 
L 1010.2635 671.277208 
L 1011.465 670.084964 
L 1012.6665 670.206665 
L 1013.868 670.109266 
L 1015.0695 669.855182 
L 1016.271 670.344664 
L 1017.4725 670.054528 
L 1018.674 670.597517 
L 1019.8755 670.151138 
L 1021.077 670.697324 
L 1022.2785 670.359429 
L 1024.6815 670.186427 
L 1025.883 669.998872 
L 1027.0845 670.276298 
L 1028.286 670.134918 
L 1029.4875 669.446181 
L 1030.689 669.094774 
L 1033.092 669.91041 
L 1034.2935 670.030343 
L 1035.495 670.607421 
L 1036.6965 670.229465 
L 1037.898 670.709987 
L 1039.0995 670.746824 
L 1040.301 669.767121 
L 1041.5025 670.398103 
L 1042.704 669.785998 
L 1043.9055 670.018362 
L 1045.107 669.956151 
L 1046.3085 669.711659 
L 1047.51 669.803937 
L 1048.7115 670.532649 
L 1049.913 670.052114 
L 1051.1145 669.734705 
L 1052.316 670.064823 
L 1053.5175 669.688478 
L 1054.719 669.866954 
L 1055.9205 670.681496 
L 1057.122 669.82 
L 1058.3235 669.899364 
L 1059.525 670.480463 
L 1060.7265 670.223357 
L 1061.928 670.31574 
L 1063.1295 670.234457 
L 1064.331 670.366256 
L 1065.5325 670.881518 
L 1066.734 671.236946 
L 1067.9355 670.628139 
L 1069.137 669.861318 
L 1070.3385 669.920529 
L 1071.54 669.705559 
L 1072.7415 669.374168 
L 1073.943 669.901312 
L 1076.346 670.481869 
L 1077.5475 669.883907 
L 1078.749 668.975672 
L 1079.9505 669.896045 
L 1081.152 669.918878 
L 1082.3535 670.191993 
L 1084.7565 669.872814 
L 1085.958 670.630347 
L 1087.1595 670.469553 
L 1088.361 670.495503 
L 1089.5625 670.169111 
L 1090.764 670.303204 
L 1091.9655 670.899999 
L 1093.167 669.962116 
L 1094.3685 668.74503 
L 1095.57 668.527734 
L 1096.7715 668.515311 
L 1097.973 668.959084 
L 1099.1745 669.699466 
L 1100.376 669.840044 
L 1101.5775 669.36581 
L 1102.779 670.603903 
L 1103.9805 670.48506 
L 1106.3835 670.676259 
L 1107.585 670.232423 
L 1108.7865 670.359318 
L 1111.1895 669.89481 
L 1112.391 670.050294 
L 1113.5925 670.324408 
L 1114.794 669.38579 
L 1115.9955 670.437121 
L 1117.197 669.558727 
L 1118.3985 670.129561 
L 1119.6 669.887931 
L 1120.8015 669.76353 
L 1122.003 669.94746 
L 1123.2045 670.536669 
L 1125.6075 669.941488 
L 1126.809 670.556353 
L 1129.212 669.786718 
L 1130.4135 669.398276 
L 1131.615 669.480582 
L 1132.8165 669.277239 
L 1135.2195 669.335046 
L 1136.421 669.876004 
L 1137.6225 669.758495 
L 1138.824 669.126365 
L 1140.0255 669.329897 
L 1141.227 669.213674 
L 1142.4285 669.29793 
L 1143.63 669.888196 
L 1144.8315 669.730292 
L 1146.033 670.145295 
L 1147.2345 669.591986 
L 1149.6375 670.496388 
L 1150.839 670.318994 
L 1152.0405 669.931511 
L 1153.242 670.031549 
L 1154.4435 669.257606 
L 1155.645 669.036061 
L 1156.8465 669.553542 
L 1158.048 669.56751 
L 1159.2495 668.982704 
L 1160.451 668.884237 
L 1162.854 669.028565 
L 1164.0555 669.629015 
L 1165.257 669.885868 
L 1166.4585 669.762835 
L 1167.66 669.765091 
L 1168.8615 669.38514 
L 1170.063 669.867312 
L 1171.2645 669.550027 
L 1172.466 669.9612 
L 1173.6675 670.207439 
L 1174.869 670.066726 
L 1177.272 671.108199 
L 1178.4735 670.976468 
L 1179.675 670.548603 
L 1180.8765 670.653488 
L 1182.078 670.908239 
L 1183.2795 670.140212 
L 1184.481 670.03065 
L 1185.6825 671.301299 
L 1186.884 670.858288 
L 1188.0855 670.600118 
L 1189.287 670.851375 
L 1190.4885 670.376817 
L 1191.69 670.631426 
L 1192.8915 669.931923 
L 1194.093 670.300979 
L 1195.2945 669.472593 
L 1196.496 669.212412 
L 1197.6975 669.532977 
L 1198.899 670.016745 
L 1200.1005 669.935752 
L 1201.302 670.430626 
L 1202.5035 670.499911 
L 1203.705 670.113812 
L 1204.9065 670.21846 
L 1206.108 669.862303 
L 1207.3095 669.761962 
L 1208.511 669.389517 
L 1209.7125 669.898774 
L 1210.914 669.982055 
L 1212.1155 669.751573 
L 1213.317 670.167654 
L 1214.5185 670.400879 
L 1215.72 669.798385 
L 1216.9215 669.660326 
L 1218.123 670.238931 
L 1219.3245 670.083234 
L 1220.526 670.073633 
L 1221.7275 670.393639 
L 1222.929 670.070241 
L 1224.1305 671.343943 
L 1225.332 670.715194 
L 1227.735 670.480004 
L 1228.9365 670.245234 
L 1231.3395 670.490277 
L 1232.541 670.598568 
L 1233.7425 669.898302 
L 1234.944 669.885076 
L 1236.1455 670.558814 
L 1237.347 669.986064 
L 1238.5485 670.213717 
L 1239.75 670.172076 
L 1240.9515 670.310025 
L 1242.153 669.529657 
L 1243.3545 669.519455 
L 1244.556 669.964858 
L 1245.7575 670.064556 
L 1246.959 671.255522 
L 1248.1605 670.670592 
L 1249.362 670.343736 
L 1250.5635 670.477995 
L 1251.765 669.964998 
L 1252.9665 670.378862 
L 1254.168 670.400956 
L 1256.571 669.53825 
L 1257.7725 669.25259 
L 1258.974 669.210017 
L 1260.1755 669.40761 
L 1262.5785 670.224802 
L 1263.78 670.906787 
L 1264.9815 671.151875 
L 1266.183 670.952736 
L 1267.3845 671.555405 
L 1268.586 670.863083 
L 1269.7875 670.835732 
L 1270.989 671.106397 
L 1272.1905 669.94872 
L 1273.392 670.398789 
L 1275.795 670.4 
L 1276.9965 670.544631 
L 1278.198 670.212944 
L 1279.3995 669.692073 
L 1280.601 669.345618 
L 1283.004 670.358869 
L 1284.2055 670.624383 
L 1285.407 670.009982 
L 1286.6085 670.085936 
L 1287.81 670.516459 
L 1289.0115 670.648125 
L 1291.4145 669.668506 
L 1292.616 670.434916 
L 1293.8175 670.139684 
L 1295.019 670.591446 
L 1296.2205 670.073269 
L 1297.422 670.389076 
L 1298.6235 670.492457 
L 1299.825 669.531172 
L 1301.0265 670.222087 
L 1303.4295 669.734572 
L 1304.631 670.260344 
L 1305.8325 669.782368 
L 1307.034 669.674951 
L 1308.2355 669.380875 
L 1309.437 669.942528 
L 1310.6385 669.730416 
L 1311.84 670.077255 
L 1313.0415 670.068284 
L 1314.243 669.852308 
L 1315.4445 670.096394 
L 1316.646 670.209782 
L 1317.8475 670.608119 
L 1319.049 668.994007 
L 1320.2505 669.90561 
L 1322.6535 669.641923 
L 1325.0565 670.302128 
L 1326.258 670.051533 
L 1327.4595 670.643638 
L 1328.661 669.639432 
L 1329.8625 669.97433 
L 1331.064 669.761621 
L 1332.2655 669.662339 
L 1333.467 669.143636 
L 1334.6685 669.378668 
L 1335.87 669.483891 
L 1337.0715 669.278996 
L 1338.273 669.37859 
L 1339.4745 670.381581 
L 1340.676 670.377058 
L 1341.8775 670.606497 
L 1343.079 669.493911 
L 1344.2805 670.142876 
L 1345.482 669.448819 
L 1346.6835 669.365437 
L 1349.0865 669.796887 
L 1350.288 669.770771 
L 1351.4895 670.634135 
L 1353.8925 670.071541 
L 1355.094 669.978202 
L 1356.2955 669.279196 
L 1357.497 669.686866 
L 1358.6985 669.48947 
L 1358.6985 669.48947 
" style="fill:none;stroke:#008000;stroke-linecap:square;stroke-width:2.0;"/>
   </g>
   <g id="patch_3">
    <path d="M 158.4 51.3 
L 1359.9 51.3 
" style="fill:none;stroke:#000000;stroke-linecap:square;stroke-linejoin:miter;"/>
   </g>
   <g id="patch_4">
    <path d="M 1359.9 747 
L 1359.9 51.3 
" style="fill:none;stroke:#000000;stroke-linecap:square;stroke-linejoin:miter;"/>
   </g>
   <g id="patch_5">
    <path d="M 158.4 747 
L 1359.9 747 
" style="fill:none;stroke:#000000;stroke-linecap:square;stroke-linejoin:miter;"/>
   </g>
   <g id="patch_6">
    <path d="M 158.4 747 
L 158.4 51.3 
" style="fill:none;stroke:#000000;stroke-linecap:square;stroke-linejoin:miter;"/>
   </g>
   <g id="matplotlib.axis_1">
    <g id="xtick_1">
     <g id="line2d_3">
      <defs>
       <path d="M 0 0 
L 0 -4 
" id="m5d9c56f7ba" style="stroke:#000000;stroke-width:0.5;"/>
      </defs>
      <g>
       <use style="stroke:#000000;stroke-width:0.5;" x="158.4" xlink:href="#m5d9c56f7ba" y="747.0"/>
      </g>
     </g>
     <g id="line2d_4">
      <defs>
       <path d="M 0 0 
L 0 4 
" id="m2bd3811d06" style="stroke:#000000;stroke-width:0.5;"/>
      </defs>
      <g>
       <use style="stroke:#000000;stroke-width:0.5;" x="158.4" xlink:href="#m2bd3811d06" y="51.3"/>
      </g>
     </g>
     <g id="text_1">
      <!-- 0 -->
      <defs>
       <path d="M 31.78125 66.40625 
Q 24.171875 66.40625 20.328125 58.90625 
Q 16.5 51.421875 16.5 36.375 
Q 16.5 21.390625 20.328125 13.890625 
Q 24.171875 6.390625 31.78125 6.390625 
Q 39.453125 6.390625 43.28125 13.890625 
Q 47.125 21.390625 47.125 36.375 
Q 47.125 51.421875 43.28125 58.90625 
Q 39.453125 66.40625 31.78125 66.40625 
M 31.78125 74.21875 
Q 44.046875 74.21875 50.515625 64.515625 
Q 56.984375 54.828125 56.984375 36.375 
Q 56.984375 17.96875 50.515625 8.265625 
Q 44.046875 -1.421875 31.78125 -1.421875 
Q 19.53125 -1.421875 13.0625 8.265625 
Q 6.59375 17.96875 6.59375 36.375 
Q 6.59375 54.828125 13.0625 64.515625 
Q 19.53125 74.21875 31.78125 74.21875 
" id="BitstreamVeraSans-Roman-30"/>
      </defs>
      <g transform="translate(148.85625 773.7953125)scale(0.3 -0.3)">
       <use xlink:href="#BitstreamVeraSans-Roman-30"/>
      </g>
     </g>
    </g>
    <g id="xtick_2">
     <g id="line2d_5">
      <g>
       <use style="stroke:#000000;stroke-width:0.5;" x="398.7" xlink:href="#m5d9c56f7ba" y="747.0"/>
      </g>
     </g>
     <g id="line2d_6">
      <g>
       <use style="stroke:#000000;stroke-width:0.5;" x="398.7" xlink:href="#m2bd3811d06" y="51.3"/>
      </g>
     </g>
     <g id="text_2">
      <!-- 200 -->
      <defs>
       <path d="M 19.1875 8.296875 
L 53.609375 8.296875 
L 53.609375 0 
L 7.328125 0 
L 7.328125 8.296875 
Q 12.9375 14.109375 22.625 23.890625 
Q 32.328125 33.6875 34.8125 36.53125 
Q 39.546875 41.84375 41.421875 45.53125 
Q 43.3125 49.21875 43.3125 52.78125 
Q 43.3125 58.59375 39.234375 62.25 
Q 35.15625 65.921875 28.609375 65.921875 
Q 23.96875 65.921875 18.8125 64.3125 
Q 13.671875 62.703125 7.8125 59.421875 
L 7.8125 69.390625 
Q 13.765625 71.78125 18.9375 73 
Q 24.125 74.21875 28.421875 74.21875 
Q 39.75 74.21875 46.484375 68.546875 
Q 53.21875 62.890625 53.21875 53.421875 
Q 53.21875 48.921875 51.53125 44.890625 
Q 49.859375 40.875 45.40625 35.40625 
Q 44.1875 33.984375 37.640625 27.21875 
Q 31.109375 20.453125 19.1875 8.296875 
" id="BitstreamVeraSans-Roman-32"/>
      </defs>
      <g transform="translate(370.06875 773.7953125)scale(0.3 -0.3)">
       <use xlink:href="#BitstreamVeraSans-Roman-32"/>
       <use x="63.623046875" xlink:href="#BitstreamVeraSans-Roman-30"/>
       <use x="127.24609375" xlink:href="#BitstreamVeraSans-Roman-30"/>
      </g>
     </g>
    </g>
    <g id="xtick_3">
     <g id="line2d_7">
      <g>
       <use style="stroke:#000000;stroke-width:0.5;" x="639.0" xlink:href="#m5d9c56f7ba" y="747.0"/>
      </g>
     </g>
     <g id="line2d_8">
      <g>
       <use style="stroke:#000000;stroke-width:0.5;" x="639.0" xlink:href="#m2bd3811d06" y="51.3"/>
      </g>
     </g>
     <g id="text_3">
      <!-- 400 -->
      <defs>
       <path d="M 37.796875 64.3125 
L 12.890625 25.390625 
L 37.796875 25.390625 
z
M 35.203125 72.90625 
L 47.609375 72.90625 
L 47.609375 25.390625 
L 58.015625 25.390625 
L 58.015625 17.1875 
L 47.609375 17.1875 
L 47.609375 0 
L 37.796875 0 
L 37.796875 17.1875 
L 4.890625 17.1875 
L 4.890625 26.703125 
z
" id="BitstreamVeraSans-Roman-34"/>
      </defs>
      <g transform="translate(610.36875 773.7953125)scale(0.3 -0.3)">
       <use xlink:href="#BitstreamVeraSans-Roman-34"/>
       <use x="63.623046875" xlink:href="#BitstreamVeraSans-Roman-30"/>
       <use x="127.24609375" xlink:href="#BitstreamVeraSans-Roman-30"/>
      </g>
     </g>
    </g>
    <g id="xtick_4">
     <g id="line2d_9">
      <g>
       <use style="stroke:#000000;stroke-width:0.5;" x="879.3" xlink:href="#m5d9c56f7ba" y="747.0"/>
      </g>
     </g>
     <g id="line2d_10">
      <g>
       <use style="stroke:#000000;stroke-width:0.5;" x="879.3" xlink:href="#m2bd3811d06" y="51.3"/>
      </g>
     </g>
     <g id="text_4">
      <!-- 600 -->
      <defs>
       <path d="M 33.015625 40.375 
Q 26.375 40.375 22.484375 35.828125 
Q 18.609375 31.296875 18.609375 23.390625 
Q 18.609375 15.53125 22.484375 10.953125 
Q 26.375 6.390625 33.015625 6.390625 
Q 39.65625 6.390625 43.53125 10.953125 
Q 47.40625 15.53125 47.40625 23.390625 
Q 47.40625 31.296875 43.53125 35.828125 
Q 39.65625 40.375 33.015625 40.375 
M 52.59375 71.296875 
L 52.59375 62.3125 
Q 48.875 64.0625 45.09375 64.984375 
Q 41.3125 65.921875 37.59375 65.921875 
Q 27.828125 65.921875 22.671875 59.328125 
Q 17.53125 52.734375 16.796875 39.40625 
Q 19.671875 43.65625 24.015625 45.921875 
Q 28.375 48.1875 33.59375 48.1875 
Q 44.578125 48.1875 50.953125 41.515625 
Q 57.328125 34.859375 57.328125 23.390625 
Q 57.328125 12.15625 50.6875 5.359375 
Q 44.046875 -1.421875 33.015625 -1.421875 
Q 20.359375 -1.421875 13.671875 8.265625 
Q 6.984375 17.96875 6.984375 36.375 
Q 6.984375 53.65625 15.1875 63.9375 
Q 23.390625 74.21875 37.203125 74.21875 
Q 40.921875 74.21875 44.703125 73.484375 
Q 48.484375 72.75 52.59375 71.296875 
" id="BitstreamVeraSans-Roman-36"/>
      </defs>
      <g transform="translate(850.66875 773.7953125)scale(0.3 -0.3)">
       <use xlink:href="#BitstreamVeraSans-Roman-36"/>
       <use x="63.623046875" xlink:href="#BitstreamVeraSans-Roman-30"/>
       <use x="127.24609375" xlink:href="#BitstreamVeraSans-Roman-30"/>
      </g>
     </g>
    </g>
    <g id="xtick_5">
     <g id="line2d_11">
      <g>
       <use style="stroke:#000000;stroke-width:0.5;" x="1119.6" xlink:href="#m5d9c56f7ba" y="747.0"/>
      </g>
     </g>
     <g id="line2d_12">
      <g>
       <use style="stroke:#000000;stroke-width:0.5;" x="1119.6" xlink:href="#m2bd3811d06" y="51.3"/>
      </g>
     </g>
     <g id="text_5">
      <!-- 800 -->
      <defs>
       <path d="M 31.78125 34.625 
Q 24.75 34.625 20.71875 30.859375 
Q 16.703125 27.09375 16.703125 20.515625 
Q 16.703125 13.921875 20.71875 10.15625 
Q 24.75 6.390625 31.78125 6.390625 
Q 38.8125 6.390625 42.859375 10.171875 
Q 46.921875 13.96875 46.921875 20.515625 
Q 46.921875 27.09375 42.890625 30.859375 
Q 38.875 34.625 31.78125 34.625 
M 21.921875 38.8125 
Q 15.578125 40.375 12.03125 44.71875 
Q 8.5 49.078125 8.5 55.328125 
Q 8.5 64.0625 14.71875 69.140625 
Q 20.953125 74.21875 31.78125 74.21875 
Q 42.671875 74.21875 48.875 69.140625 
Q 55.078125 64.0625 55.078125 55.328125 
Q 55.078125 49.078125 51.53125 44.71875 
Q 48 40.375 41.703125 38.8125 
Q 48.828125 37.15625 52.796875 32.3125 
Q 56.78125 27.484375 56.78125 20.515625 
Q 56.78125 9.90625 50.3125 4.234375 
Q 43.84375 -1.421875 31.78125 -1.421875 
Q 19.734375 -1.421875 13.25 4.234375 
Q 6.78125 9.90625 6.78125 20.515625 
Q 6.78125 27.484375 10.78125 32.3125 
Q 14.796875 37.15625 21.921875 38.8125 
M 18.3125 54.390625 
Q 18.3125 48.734375 21.84375 45.5625 
Q 25.390625 42.390625 31.78125 42.390625 
Q 38.140625 42.390625 41.71875 45.5625 
Q 45.3125 48.734375 45.3125 54.390625 
Q 45.3125 60.0625 41.71875 63.234375 
Q 38.140625 66.40625 31.78125 66.40625 
Q 25.390625 66.40625 21.84375 63.234375 
Q 18.3125 60.0625 18.3125 54.390625 
" id="BitstreamVeraSans-Roman-38"/>
      </defs>
      <g transform="translate(1090.96875 773.7953125)scale(0.3 -0.3)">
       <use xlink:href="#BitstreamVeraSans-Roman-38"/>
       <use x="63.623046875" xlink:href="#BitstreamVeraSans-Roman-30"/>
       <use x="127.24609375" xlink:href="#BitstreamVeraSans-Roman-30"/>
      </g>
     </g>
    </g>
    <g id="xtick_6">
     <g id="line2d_13">
      <g>
       <use style="stroke:#000000;stroke-width:0.5;" x="1359.9" xlink:href="#m5d9c56f7ba" y="747.0"/>
      </g>
     </g>
     <g id="line2d_14">
      <g>
       <use style="stroke:#000000;stroke-width:0.5;" x="1359.9" xlink:href="#m2bd3811d06" y="51.3"/>
      </g>
     </g>
     <g id="text_6">
      <!-- 1000 -->
      <defs>
       <path d="M 12.40625 8.296875 
L 28.515625 8.296875 
L 28.515625 63.921875 
L 10.984375 60.40625 
L 10.984375 69.390625 
L 28.421875 72.90625 
L 38.28125 72.90625 
L 38.28125 8.296875 
L 54.390625 8.296875 
L 54.390625 0 
L 12.40625 0 
z
" id="BitstreamVeraSans-Roman-31"/>
      </defs>
      <g transform="translate(1321.725 773.7953125)scale(0.3 -0.3)">
       <use xlink:href="#BitstreamVeraSans-Roman-31"/>
       <use x="63.623046875" xlink:href="#BitstreamVeraSans-Roman-30"/>
       <use x="127.24609375" xlink:href="#BitstreamVeraSans-Roman-30"/>
       <use x="190.869140625" xlink:href="#BitstreamVeraSans-Roman-30"/>
      </g>
     </g>
    </g>
    <g id="text_7">
     <!-- iterations -->
     <defs>
      <path d="M 54.890625 33.015625 
L 54.890625 0 
L 45.90625 0 
L 45.90625 32.71875 
Q 45.90625 40.484375 42.875 44.328125 
Q 39.84375 48.1875 33.796875 48.1875 
Q 26.515625 48.1875 22.3125 43.546875 
Q 18.109375 38.921875 18.109375 30.90625 
L 18.109375 0 
L 9.078125 0 
L 9.078125 54.6875 
L 18.109375 54.6875 
L 18.109375 46.1875 
Q 21.34375 51.125 25.703125 53.5625 
Q 30.078125 56 35.796875 56 
Q 45.21875 56 50.046875 50.171875 
Q 54.890625 44.34375 54.890625 33.015625 
" id="BitstreamVeraSans-Roman-6e"/>
      <path d="M 34.28125 27.484375 
Q 23.390625 27.484375 19.1875 25 
Q 14.984375 22.515625 14.984375 16.5 
Q 14.984375 11.71875 18.140625 8.90625 
Q 21.296875 6.109375 26.703125 6.109375 
Q 34.1875 6.109375 38.703125 11.40625 
Q 43.21875 16.703125 43.21875 25.484375 
L 43.21875 27.484375 
z
M 52.203125 31.203125 
L 52.203125 0 
L 43.21875 0 
L 43.21875 8.296875 
Q 40.140625 3.328125 35.546875 0.953125 
Q 30.953125 -1.421875 24.3125 -1.421875 
Q 15.921875 -1.421875 10.953125 3.296875 
Q 6 8.015625 6 15.921875 
Q 6 25.140625 12.171875 29.828125 
Q 18.359375 34.515625 30.609375 34.515625 
L 43.21875 34.515625 
L 43.21875 35.40625 
Q 43.21875 41.609375 39.140625 45 
Q 35.0625 48.390625 27.6875 48.390625 
Q 23 48.390625 18.546875 47.265625 
Q 14.109375 46.140625 10.015625 43.890625 
L 10.015625 52.203125 
Q 14.9375 54.109375 19.578125 55.046875 
Q 24.21875 56 28.609375 56 
Q 40.484375 56 46.34375 49.84375 
Q 52.203125 43.703125 52.203125 31.203125 
" id="BitstreamVeraSans-Roman-61"/>
      <path d="M 30.609375 48.390625 
Q 23.390625 48.390625 19.1875 42.75 
Q 14.984375 37.109375 14.984375 27.296875 
Q 14.984375 17.484375 19.15625 11.84375 
Q 23.34375 6.203125 30.609375 6.203125 
Q 37.796875 6.203125 41.984375 11.859375 
Q 46.1875 17.53125 46.1875 27.296875 
Q 46.1875 37.015625 41.984375 42.703125 
Q 37.796875 48.390625 30.609375 48.390625 
M 30.609375 56 
Q 42.328125 56 49.015625 48.375 
Q 55.71875 40.765625 55.71875 27.296875 
Q 55.71875 13.875 49.015625 6.21875 
Q 42.328125 -1.421875 30.609375 -1.421875 
Q 18.84375 -1.421875 12.171875 6.21875 
Q 5.515625 13.875 5.515625 27.296875 
Q 5.515625 40.765625 12.171875 48.375 
Q 18.84375 56 30.609375 56 
" id="BitstreamVeraSans-Roman-6f"/>
      <path d="M 9.421875 54.6875 
L 18.40625 54.6875 
L 18.40625 0 
L 9.421875 0 
z
M 9.421875 75.984375 
L 18.40625 75.984375 
L 18.40625 64.59375 
L 9.421875 64.59375 
z
" id="BitstreamVeraSans-Roman-69"/>
      <path d="M 56.203125 29.59375 
L 56.203125 25.203125 
L 14.890625 25.203125 
Q 15.484375 15.921875 20.484375 11.0625 
Q 25.484375 6.203125 34.421875 6.203125 
Q 39.59375 6.203125 44.453125 7.46875 
Q 49.3125 8.734375 54.109375 11.28125 
L 54.109375 2.78125 
Q 49.265625 0.734375 44.1875 -0.34375 
Q 39.109375 -1.421875 33.890625 -1.421875 
Q 20.796875 -1.421875 13.15625 6.1875 
Q 5.515625 13.8125 5.515625 26.8125 
Q 5.515625 40.234375 12.765625 48.109375 
Q 20.015625 56 32.328125 56 
Q 43.359375 56 49.78125 48.890625 
Q 56.203125 41.796875 56.203125 29.59375 
M 47.21875 32.234375 
Q 47.125 39.59375 43.09375 43.984375 
Q 39.0625 48.390625 32.421875 48.390625 
Q 24.90625 48.390625 20.390625 44.140625 
Q 15.875 39.890625 15.1875 32.171875 
z
" id="BitstreamVeraSans-Roman-65"/>
      <path d="M 18.3125 70.21875 
L 18.3125 54.6875 
L 36.8125 54.6875 
L 36.8125 47.703125 
L 18.3125 47.703125 
L 18.3125 18.015625 
Q 18.3125 11.328125 20.140625 9.421875 
Q 21.96875 7.515625 27.59375 7.515625 
L 36.8125 7.515625 
L 36.8125 0 
L 27.59375 0 
Q 17.1875 0 13.234375 3.875 
Q 9.28125 7.765625 9.28125 18.015625 
L 9.28125 47.703125 
L 2.6875 47.703125 
L 2.6875 54.6875 
L 9.28125 54.6875 
L 9.28125 70.21875 
z
" id="BitstreamVeraSans-Roman-74"/>
      <path d="M 41.109375 46.296875 
Q 39.59375 47.171875 37.8125 47.578125 
Q 36.03125 48 33.890625 48 
Q 26.265625 48 22.1875 43.046875 
Q 18.109375 38.09375 18.109375 28.8125 
L 18.109375 0 
L 9.078125 0 
L 9.078125 54.6875 
L 18.109375 54.6875 
L 18.109375 46.1875 
Q 20.953125 51.171875 25.484375 53.578125 
Q 30.03125 56 36.53125 56 
Q 37.453125 56 38.578125 55.875 
Q 39.703125 55.765625 41.0625 55.515625 
z
" id="BitstreamVeraSans-Roman-72"/>
      <path d="M 44.28125 53.078125 
L 44.28125 44.578125 
Q 40.484375 46.53125 36.375 47.5 
Q 32.28125 48.484375 27.875 48.484375 
Q 21.1875 48.484375 17.84375 46.4375 
Q 14.5 44.390625 14.5 40.28125 
Q 14.5 37.15625 16.890625 35.375 
Q 19.28125 33.59375 26.515625 31.984375 
L 29.59375 31.296875 
Q 39.15625 29.25 43.1875 25.515625 
Q 47.21875 21.78125 47.21875 15.09375 
Q 47.21875 7.46875 41.1875 3.015625 
Q 35.15625 -1.421875 24.609375 -1.421875 
Q 20.21875 -1.421875 15.453125 -0.5625 
Q 10.6875 0.296875 5.421875 2 
L 5.421875 11.28125 
Q 10.40625 8.6875 15.234375 7.390625 
Q 20.0625 6.109375 24.8125 6.109375 
Q 31.15625 6.109375 34.5625 8.28125 
Q 37.984375 10.453125 37.984375 14.40625 
Q 37.984375 18.0625 35.515625 20.015625 
Q 33.0625 21.96875 24.703125 23.78125 
L 21.578125 24.515625 
Q 13.234375 26.265625 9.515625 29.90625 
Q 5.8125 33.546875 5.8125 39.890625 
Q 5.8125 47.609375 11.28125 51.796875 
Q 16.75 56 26.8125 56 
Q 31.78125 56 36.171875 55.265625 
Q 40.578125 54.546875 44.28125 53.078125 
" id="BitstreamVeraSans-Roman-73"/>
     </defs>
     <g transform="translate(687.96796875 807.8296875)scale(0.3 -0.3)">
      <use xlink:href="#BitstreamVeraSans-Roman-69"/>
      <use x="27.783203125" xlink:href="#BitstreamVeraSans-Roman-74"/>
      <use x="66.9921875" xlink:href="#BitstreamVeraSans-Roman-65"/>
      <use x="128.515625" xlink:href="#BitstreamVeraSans-Roman-72"/>
      <use x="169.62890625" xlink:href="#BitstreamVeraSans-Roman-61"/>
      <use x="230.908203125" xlink:href="#BitstreamVeraSans-Roman-74"/>
      <use x="270.1171875" xlink:href="#BitstreamVeraSans-Roman-69"/>
      <use x="297.900390625" xlink:href="#BitstreamVeraSans-Roman-6f"/>
      <use x="359.08203125" xlink:href="#BitstreamVeraSans-Roman-6e"/>
      <use x="422.4609375" xlink:href="#BitstreamVeraSans-Roman-73"/>
     </g>
    </g>
   </g>
   <g id="matplotlib.axis_2">
    <g id="ytick_1">
     <g id="line2d_15">
      <defs>
       <path d="M 0 0 
L 4 0 
" id="m942d4e0378" style="stroke:#000000;stroke-width:0.5;"/>
      </defs>
      <g>
       <use style="stroke:#000000;stroke-width:0.5;" x="158.4" xlink:href="#m942d4e0378" y="747.0"/>
      </g>
     </g>
     <g id="line2d_16">
      <defs>
       <path d="M 0 0 
L -4 0 
" id="m56ac30800f" style="stroke:#000000;stroke-width:0.5;"/>
      </defs>
      <g>
       <use style="stroke:#000000;stroke-width:0.5;" x="1359.9" xlink:href="#m56ac30800f" y="747.0"/>
      </g>
     </g>
     <g id="text_8">
      <!-- 70 -->
      <defs>
       <path d="M 10.59375 35.5 
L 73.1875 35.5 
L 73.1875 27.203125 
L 10.59375 27.203125 
z
" id="BitstreamVeraSans-Roman-2212"/>
       <path d="M 8.203125 72.90625 
L 55.078125 72.90625 
L 55.078125 68.703125 
L 28.609375 0 
L 18.3125 0 
L 43.21875 64.59375 
L 8.203125 64.59375 
z
" id="BitstreamVeraSans-Roman-37"/>
      </defs>
      <g transform="translate(91.0859375 755.278125)scale(0.3 -0.3)">
       <use xlink:href="#BitstreamVeraSans-Roman-2212"/>
       <use x="83.7890625" xlink:href="#BitstreamVeraSans-Roman-37"/>
       <use x="147.412109375" xlink:href="#BitstreamVeraSans-Roman-30"/>
      </g>
     </g>
    </g>
    <g id="ytick_2">
     <g id="line2d_17">
      <g>
       <use style="stroke:#000000;stroke-width:0.5;" x="158.4" xlink:href="#m942d4e0378" y="669.7"/>
      </g>
     </g>
     <g id="line2d_18">
      <g>
       <use style="stroke:#000000;stroke-width:0.5;" x="1359.9" xlink:href="#m56ac30800f" y="669.7"/>
      </g>
     </g>
     <g id="text_9">
      <!-- 60 -->
      <g transform="translate(91.0859375 677.978125)scale(0.3 -0.3)">
       <use xlink:href="#BitstreamVeraSans-Roman-2212"/>
       <use x="83.7890625" xlink:href="#BitstreamVeraSans-Roman-36"/>
       <use x="147.412109375" xlink:href="#BitstreamVeraSans-Roman-30"/>
      </g>
     </g>
    </g>
    <g id="ytick_3">
     <g id="line2d_19">
      <g>
       <use style="stroke:#000000;stroke-width:0.5;" x="158.4" xlink:href="#m942d4e0378" y="592.4"/>
      </g>
     </g>
     <g id="line2d_20">
      <g>
       <use style="stroke:#000000;stroke-width:0.5;" x="1359.9" xlink:href="#m56ac30800f" y="592.4"/>
      </g>
     </g>
     <g id="text_10">
      <!-- 50 -->
      <defs>
       <path d="M 10.796875 72.90625 
L 49.515625 72.90625 
L 49.515625 64.59375 
L 19.828125 64.59375 
L 19.828125 46.734375 
Q 21.96875 47.46875 24.109375 47.828125 
Q 26.265625 48.1875 28.421875 48.1875 
Q 40.625 48.1875 47.75 41.5 
Q 54.890625 34.8125 54.890625 23.390625 
Q 54.890625 11.625 47.5625 5.09375 
Q 40.234375 -1.421875 26.90625 -1.421875 
Q 22.3125 -1.421875 17.546875 -0.640625 
Q 12.796875 0.140625 7.71875 1.703125 
L 7.71875 11.625 
Q 12.109375 9.234375 16.796875 8.0625 
Q 21.484375 6.890625 26.703125 6.890625 
Q 35.15625 6.890625 40.078125 11.328125 
Q 45.015625 15.765625 45.015625 23.390625 
Q 45.015625 31 40.078125 35.4375 
Q 35.15625 39.890625 26.703125 39.890625 
Q 22.75 39.890625 18.8125 39.015625 
Q 14.890625 38.140625 10.796875 36.28125 
z
" id="BitstreamVeraSans-Roman-35"/>
      </defs>
      <g transform="translate(91.0859375 600.678125)scale(0.3 -0.3)">
       <use xlink:href="#BitstreamVeraSans-Roman-2212"/>
       <use x="83.7890625" xlink:href="#BitstreamVeraSans-Roman-35"/>
       <use x="147.412109375" xlink:href="#BitstreamVeraSans-Roman-30"/>
      </g>
     </g>
    </g>
    <g id="ytick_4">
     <g id="line2d_21">
      <g>
       <use style="stroke:#000000;stroke-width:0.5;" x="158.4" xlink:href="#m942d4e0378" y="515.1"/>
      </g>
     </g>
     <g id="line2d_22">
      <g>
       <use style="stroke:#000000;stroke-width:0.5;" x="1359.9" xlink:href="#m56ac30800f" y="515.1"/>
      </g>
     </g>
     <g id="text_11">
      <!-- 40 -->
      <g transform="translate(91.0859375 523.378125)scale(0.3 -0.3)">
       <use xlink:href="#BitstreamVeraSans-Roman-2212"/>
       <use x="83.7890625" xlink:href="#BitstreamVeraSans-Roman-34"/>
       <use x="147.412109375" xlink:href="#BitstreamVeraSans-Roman-30"/>
      </g>
     </g>
    </g>
    <g id="ytick_5">
     <g id="line2d_23">
      <g>
       <use style="stroke:#000000;stroke-width:0.5;" x="158.4" xlink:href="#m942d4e0378" y="437.8"/>
      </g>
     </g>
     <g id="line2d_24">
      <g>
       <use style="stroke:#000000;stroke-width:0.5;" x="1359.9" xlink:href="#m56ac30800f" y="437.8"/>
      </g>
     </g>
     <g id="text_12">
      <!-- 30 -->
      <defs>
       <path d="M 40.578125 39.3125 
Q 47.65625 37.796875 51.625 33 
Q 55.609375 28.21875 55.609375 21.1875 
Q 55.609375 10.40625 48.1875 4.484375 
Q 40.765625 -1.421875 27.09375 -1.421875 
Q 22.515625 -1.421875 17.65625 -0.515625 
Q 12.796875 0.390625 7.625 2.203125 
L 7.625 11.71875 
Q 11.71875 9.328125 16.59375 8.109375 
Q 21.484375 6.890625 26.8125 6.890625 
Q 36.078125 6.890625 40.9375 10.546875 
Q 45.796875 14.203125 45.796875 21.1875 
Q 45.796875 27.640625 41.28125 31.265625 
Q 36.765625 34.90625 28.71875 34.90625 
L 20.21875 34.90625 
L 20.21875 43.015625 
L 29.109375 43.015625 
Q 36.375 43.015625 40.234375 45.921875 
Q 44.09375 48.828125 44.09375 54.296875 
Q 44.09375 59.90625 40.109375 62.90625 
Q 36.140625 65.921875 28.71875 65.921875 
Q 24.65625 65.921875 20.015625 65.03125 
Q 15.375 64.15625 9.8125 62.3125 
L 9.8125 71.09375 
Q 15.4375 72.65625 20.34375 73.4375 
Q 25.25 74.21875 29.59375 74.21875 
Q 40.828125 74.21875 47.359375 69.109375 
Q 53.90625 64.015625 53.90625 55.328125 
Q 53.90625 49.265625 50.4375 45.09375 
Q 46.96875 40.921875 40.578125 39.3125 
" id="BitstreamVeraSans-Roman-33"/>
      </defs>
      <g transform="translate(91.0859375 446.078125)scale(0.3 -0.3)">
       <use xlink:href="#BitstreamVeraSans-Roman-2212"/>
       <use x="83.7890625" xlink:href="#BitstreamVeraSans-Roman-33"/>
       <use x="147.412109375" xlink:href="#BitstreamVeraSans-Roman-30"/>
      </g>
     </g>
    </g>
    <g id="ytick_6">
     <g id="line2d_25">
      <g>
       <use style="stroke:#000000;stroke-width:0.5;" x="158.4" xlink:href="#m942d4e0378" y="360.5"/>
      </g>
     </g>
     <g id="line2d_26">
      <g>
       <use style="stroke:#000000;stroke-width:0.5;" x="1359.9" xlink:href="#m56ac30800f" y="360.5"/>
      </g>
     </g>
     <g id="text_13">
      <!-- 20 -->
      <g transform="translate(91.0859375 368.778125)scale(0.3 -0.3)">
       <use xlink:href="#BitstreamVeraSans-Roman-2212"/>
       <use x="83.7890625" xlink:href="#BitstreamVeraSans-Roman-32"/>
       <use x="147.412109375" xlink:href="#BitstreamVeraSans-Roman-30"/>
      </g>
     </g>
    </g>
    <g id="ytick_7">
     <g id="line2d_27">
      <g>
       <use style="stroke:#000000;stroke-width:0.5;" x="158.4" xlink:href="#m942d4e0378" y="283.2"/>
      </g>
     </g>
     <g id="line2d_28">
      <g>
       <use style="stroke:#000000;stroke-width:0.5;" x="1359.9" xlink:href="#m56ac30800f" y="283.2"/>
      </g>
     </g>
     <g id="text_14">
      <!-- 10 -->
      <g transform="translate(91.0859375 291.478125)scale(0.3 -0.3)">
       <use xlink:href="#BitstreamVeraSans-Roman-2212"/>
       <use x="83.7890625" xlink:href="#BitstreamVeraSans-Roman-31"/>
       <use x="147.412109375" xlink:href="#BitstreamVeraSans-Roman-30"/>
      </g>
     </g>
    </g>
    <g id="ytick_8">
     <g id="line2d_29">
      <g>
       <use style="stroke:#000000;stroke-width:0.5;" x="158.4" xlink:href="#m942d4e0378" y="205.9"/>
      </g>
     </g>
     <g id="line2d_30">
      <g>
       <use style="stroke:#000000;stroke-width:0.5;" x="1359.9" xlink:href="#m56ac30800f" y="205.9"/>
      </g>
     </g>
     <g id="text_15">
      <!-- 0 -->
      <g transform="translate(135.3125 214.178125)scale(0.3 -0.3)">
       <use xlink:href="#BitstreamVeraSans-Roman-30"/>
      </g>
     </g>
    </g>
    <g id="ytick_9">
     <g id="line2d_31">
      <g>
       <use style="stroke:#000000;stroke-width:0.5;" x="158.4" xlink:href="#m942d4e0378" y="128.6"/>
      </g>
     </g>
     <g id="line2d_32">
      <g>
       <use style="stroke:#000000;stroke-width:0.5;" x="1359.9" xlink:href="#m56ac30800f" y="128.6"/>
      </g>
     </g>
     <g id="text_16">
      <!-- 10 -->
      <g transform="translate(116.225 136.878125)scale(0.3 -0.3)">
       <use xlink:href="#BitstreamVeraSans-Roman-31"/>
       <use x="63.623046875" xlink:href="#BitstreamVeraSans-Roman-30"/>
      </g>
     </g>
    </g>
    <g id="ytick_10">
     <g id="line2d_33">
      <g>
       <use style="stroke:#000000;stroke-width:0.5;" x="158.4" xlink:href="#m942d4e0378" y="51.3"/>
      </g>
     </g>
     <g id="line2d_34">
      <g>
       <use style="stroke:#000000;stroke-width:0.5;" x="1359.9" xlink:href="#m56ac30800f" y="51.3"/>
      </g>
     </g>
     <g id="text_17">
      <!-- 20 -->
      <g transform="translate(116.225 59.578125)scale(0.3 -0.3)">
       <use xlink:href="#BitstreamVeraSans-Roman-32"/>
       <use x="63.623046875" xlink:href="#BitstreamVeraSans-Roman-30"/>
      </g>
     </g>
    </g>
    <g id="text_18">
     <!-- log(loss) -->
     <defs>
      <path d="M 8.015625 75.875 
L 15.828125 75.875 
Q 23.140625 64.359375 26.78125 53.3125 
Q 30.421875 42.28125 30.421875 31.390625 
Q 30.421875 20.453125 26.78125 9.375 
Q 23.140625 -1.703125 15.828125 -13.1875 
L 8.015625 -13.1875 
Q 14.5 -2 17.703125 9.0625 
Q 20.90625 20.125 20.90625 31.390625 
Q 20.90625 42.671875 17.703125 53.65625 
Q 14.5 64.65625 8.015625 75.875 
" id="BitstreamVeraSans-Roman-29"/>
      <path d="M 31 75.875 
Q 24.46875 64.65625 21.28125 53.65625 
Q 18.109375 42.671875 18.109375 31.390625 
Q 18.109375 20.125 21.3125 9.0625 
Q 24.515625 -2 31 -13.1875 
L 23.1875 -13.1875 
Q 15.875 -1.703125 12.234375 9.375 
Q 8.59375 20.453125 8.59375 31.390625 
Q 8.59375 42.28125 12.203125 53.3125 
Q 15.828125 64.359375 23.1875 75.875 
z
" id="BitstreamVeraSans-Roman-28"/>
      <path d="M 45.40625 27.984375 
Q 45.40625 37.75 41.375 43.109375 
Q 37.359375 48.484375 30.078125 48.484375 
Q 22.859375 48.484375 18.828125 43.109375 
Q 14.796875 37.75 14.796875 27.984375 
Q 14.796875 18.265625 18.828125 12.890625 
Q 22.859375 7.515625 30.078125 7.515625 
Q 37.359375 7.515625 41.375 12.890625 
Q 45.40625 18.265625 45.40625 27.984375 
M 54.390625 6.78125 
Q 54.390625 -7.171875 48.1875 -13.984375 
Q 42 -20.796875 29.203125 -20.796875 
Q 24.46875 -20.796875 20.265625 -20.09375 
Q 16.0625 -19.390625 12.109375 -17.921875 
L 12.109375 -9.1875 
Q 16.0625 -11.328125 19.921875 -12.34375 
Q 23.78125 -13.375 27.78125 -13.375 
Q 36.625 -13.375 41.015625 -8.765625 
Q 45.40625 -4.15625 45.40625 5.171875 
L 45.40625 9.625 
Q 42.625 4.78125 38.28125 2.390625 
Q 33.9375 0 27.875 0 
Q 17.828125 0 11.671875 7.65625 
Q 5.515625 15.328125 5.515625 27.984375 
Q 5.515625 40.671875 11.671875 48.328125 
Q 17.828125 56 27.875 56 
Q 33.9375 56 38.28125 53.609375 
Q 42.625 51.21875 45.40625 46.390625 
L 45.40625 54.6875 
L 54.390625 54.6875 
z
" id="BitstreamVeraSans-Roman-67"/>
      <path d="M 9.421875 75.984375 
L 18.40625 75.984375 
L 18.40625 0 
L 9.421875 0 
z
" id="BitstreamVeraSans-Roman-6c"/>
     </defs>
     <g transform="translate(79.846875 462.69609375)rotate(-90.0)scale(0.3 -0.3)">
      <use xlink:href="#BitstreamVeraSans-Roman-6c"/>
      <use x="27.783203125" xlink:href="#BitstreamVeraSans-Roman-6f"/>
      <use x="88.96484375" xlink:href="#BitstreamVeraSans-Roman-67"/>
      <use x="152.44140625" xlink:href="#BitstreamVeraSans-Roman-28"/>
      <use x="191.455078125" xlink:href="#BitstreamVeraSans-Roman-6c"/>
      <use x="219.23828125" xlink:href="#BitstreamVeraSans-Roman-6f"/>
      <use x="280.419921875" xlink:href="#BitstreamVeraSans-Roman-73"/>
      <use x="332.51953125" xlink:href="#BitstreamVeraSans-Roman-73"/>
      <use x="384.619140625" xlink:href="#BitstreamVeraSans-Roman-29"/>
     </g>
    </g>
   </g>
   <g id="legend_1">
    <g id="patch_7">
     <path d="M 867.726562 163.36875 
L 1344.9 163.36875 
L 1344.9 66.3 
L 867.726562 66.3 
z
" style="fill:#ffffff;stroke:#000000;stroke-linejoin:miter;"/>
    </g>
    <g id="line2d_35">
     <path d="M 888.726562 90.595313 
L 930.726562 90.595313 
" style="fill:none;stroke:#0000ff;stroke-linecap:square;stroke-width:2.0;"/>
    </g>
    <g id="line2d_36"/>
    <g id="text_19">
     <!-- random: step=0.009776 -->
     <defs>
      <path id="BitstreamVeraSans-Roman-20"/>
      <path d="M 52 44.1875 
Q 55.375 50.25 60.0625 53.125 
Q 64.75 56 71.09375 56 
Q 79.640625 56 84.28125 50.015625 
Q 88.921875 44.046875 88.921875 33.015625 
L 88.921875 0 
L 79.890625 0 
L 79.890625 32.71875 
Q 79.890625 40.578125 77.09375 44.375 
Q 74.3125 48.1875 68.609375 48.1875 
Q 61.625 48.1875 57.5625 43.546875 
Q 53.515625 38.921875 53.515625 30.90625 
L 53.515625 0 
L 44.484375 0 
L 44.484375 32.71875 
Q 44.484375 40.625 41.703125 44.40625 
Q 38.921875 48.1875 33.109375 48.1875 
Q 26.21875 48.1875 22.15625 43.53125 
Q 18.109375 38.875 18.109375 30.90625 
L 18.109375 0 
L 9.078125 0 
L 9.078125 54.6875 
L 18.109375 54.6875 
L 18.109375 46.1875 
Q 21.1875 51.21875 25.484375 53.609375 
Q 29.78125 56 35.6875 56 
Q 41.65625 56 45.828125 52.96875 
Q 50 49.953125 52 44.1875 
" id="BitstreamVeraSans-Roman-6d"/>
      <path d="M 10.984375 1.515625 
L 10.984375 10.5 
Q 14.703125 8.734375 18.5 7.8125 
Q 22.3125 6.890625 25.984375 6.890625 
Q 35.75 6.890625 40.890625 13.453125 
Q 46.046875 20.015625 46.78125 33.40625 
Q 43.953125 29.203125 39.59375 26.953125 
Q 35.25 24.703125 29.984375 24.703125 
Q 19.046875 24.703125 12.671875 31.3125 
Q 6.296875 37.9375 6.296875 49.421875 
Q 6.296875 60.640625 12.9375 67.421875 
Q 19.578125 74.21875 30.609375 74.21875 
Q 43.265625 74.21875 49.921875 64.515625 
Q 56.59375 54.828125 56.59375 36.375 
Q 56.59375 19.140625 48.40625 8.859375 
Q 40.234375 -1.421875 26.421875 -1.421875 
Q 22.703125 -1.421875 18.890625 -0.6875 
Q 15.09375 0.046875 10.984375 1.515625 
M 30.609375 32.421875 
Q 37.25 32.421875 41.125 36.953125 
Q 45.015625 41.5 45.015625 49.421875 
Q 45.015625 57.28125 41.125 61.84375 
Q 37.25 66.40625 30.609375 66.40625 
Q 23.96875 66.40625 20.09375 61.84375 
Q 16.21875 57.28125 16.21875 49.421875 
Q 16.21875 41.5 20.09375 36.953125 
Q 23.96875 32.421875 30.609375 32.421875 
" id="BitstreamVeraSans-Roman-39"/>
      <path d="M 11.71875 12.40625 
L 22.015625 12.40625 
L 22.015625 0 
L 11.71875 0 
z
M 11.71875 51.703125 
L 22.015625 51.703125 
L 22.015625 39.3125 
L 11.71875 39.3125 
z
" id="BitstreamVeraSans-Roman-3a"/>
      <path d="M 10.6875 12.40625 
L 21 12.40625 
L 21 0 
L 10.6875 0 
z
" id="BitstreamVeraSans-Roman-2e"/>
      <path d="M 10.59375 45.40625 
L 73.1875 45.40625 
L 73.1875 37.203125 
L 10.59375 37.203125 
z
M 10.59375 25.484375 
L 73.1875 25.484375 
L 73.1875 17.1875 
L 10.59375 17.1875 
z
" id="BitstreamVeraSans-Roman-3d"/>
      <path d="M 45.40625 46.390625 
L 45.40625 75.984375 
L 54.390625 75.984375 
L 54.390625 0 
L 45.40625 0 
L 45.40625 8.203125 
Q 42.578125 3.328125 38.25 0.953125 
Q 33.9375 -1.421875 27.875 -1.421875 
Q 17.96875 -1.421875 11.734375 6.484375 
Q 5.515625 14.40625 5.515625 27.296875 
Q 5.515625 40.1875 11.734375 48.09375 
Q 17.96875 56 27.875 56 
Q 33.9375 56 38.25 53.625 
Q 42.578125 51.265625 45.40625 46.390625 
M 14.796875 27.296875 
Q 14.796875 17.390625 18.875 11.75 
Q 22.953125 6.109375 30.078125 6.109375 
Q 37.203125 6.109375 41.296875 11.75 
Q 45.40625 17.390625 45.40625 27.296875 
Q 45.40625 37.203125 41.296875 42.84375 
Q 37.203125 48.484375 30.078125 48.484375 
Q 22.953125 48.484375 18.875 42.84375 
Q 14.796875 37.203125 14.796875 27.296875 
" id="BitstreamVeraSans-Roman-64"/>
      <path d="M 18.109375 8.203125 
L 18.109375 -20.796875 
L 9.078125 -20.796875 
L 9.078125 54.6875 
L 18.109375 54.6875 
L 18.109375 46.390625 
Q 20.953125 51.265625 25.265625 53.625 
Q 29.59375 56 35.59375 56 
Q 45.5625 56 51.78125 48.09375 
Q 58.015625 40.1875 58.015625 27.296875 
Q 58.015625 14.40625 51.78125 6.484375 
Q 45.5625 -1.421875 35.59375 -1.421875 
Q 29.59375 -1.421875 25.265625 0.953125 
Q 20.953125 3.328125 18.109375 8.203125 
M 48.6875 27.296875 
Q 48.6875 37.203125 44.609375 42.84375 
Q 40.53125 48.484375 33.40625 48.484375 
Q 26.265625 48.484375 22.1875 42.84375 
Q 18.109375 37.203125 18.109375 27.296875 
Q 18.109375 17.390625 22.1875 11.75 
Q 26.265625 6.109375 33.40625 6.109375 
Q 40.53125 6.109375 44.609375 11.75 
Q 48.6875 17.390625 48.6875 27.296875 
" id="BitstreamVeraSans-Roman-70"/>
     </defs>
     <g transform="translate(963.7265625 101.0953125)scale(0.3 -0.3)">
      <use xlink:href="#BitstreamVeraSans-Roman-72"/>
      <use x="41.11328125" xlink:href="#BitstreamVeraSans-Roman-61"/>
      <use x="102.392578125" xlink:href="#BitstreamVeraSans-Roman-6e"/>
      <use x="165.771484375" xlink:href="#BitstreamVeraSans-Roman-64"/>
      <use x="229.248046875" xlink:href="#BitstreamVeraSans-Roman-6f"/>
      <use x="290.4296875" xlink:href="#BitstreamVeraSans-Roman-6d"/>
      <use x="387.841796875" xlink:href="#BitstreamVeraSans-Roman-3a"/>
      <use x="421.533203125" xlink:href="#BitstreamVeraSans-Roman-20"/>
      <use x="453.3203125" xlink:href="#BitstreamVeraSans-Roman-73"/>
      <use x="505.419921875" xlink:href="#BitstreamVeraSans-Roman-74"/>
      <use x="544.62890625" xlink:href="#BitstreamVeraSans-Roman-65"/>
      <use x="606.15234375" xlink:href="#BitstreamVeraSans-Roman-70"/>
      <use x="669.62890625" xlink:href="#BitstreamVeraSans-Roman-3d"/>
      <use x="753.41796875" xlink:href="#BitstreamVeraSans-Roman-30"/>
      <use x="817.041015625" xlink:href="#BitstreamVeraSans-Roman-2e"/>
      <use x="848.828125" xlink:href="#BitstreamVeraSans-Roman-30"/>
      <use x="912.451171875" xlink:href="#BitstreamVeraSans-Roman-30"/>
      <use x="976.07421875" xlink:href="#BitstreamVeraSans-Roman-39"/>
      <use x="1039.69726562" xlink:href="#BitstreamVeraSans-Roman-37"/>
      <use x="1103.3203125" xlink:href="#BitstreamVeraSans-Roman-37"/>
      <use x="1166.94335938" xlink:href="#BitstreamVeraSans-Roman-36"/>
     </g>
    </g>
    <g id="line2d_37">
     <path d="M 888.726562 134.629688 
L 930.726562 134.629688 
" style="fill:none;stroke:#008000;stroke-linecap:square;stroke-width:2.0;"/>
    </g>
    <g id="line2d_38"/>
    <g id="text_20">
     <!-- corr: step=0.009776 -->
     <defs>
      <path d="M 48.78125 52.59375 
L 48.78125 44.1875 
Q 44.96875 46.296875 41.140625 47.34375 
Q 37.3125 48.390625 33.40625 48.390625 
Q 24.65625 48.390625 19.8125 42.84375 
Q 14.984375 37.3125 14.984375 27.296875 
Q 14.984375 17.28125 19.8125 11.734375 
Q 24.65625 6.203125 33.40625 6.203125 
Q 37.3125 6.203125 41.140625 7.25 
Q 44.96875 8.296875 48.78125 10.40625 
L 48.78125 2.09375 
Q 45.015625 0.34375 40.984375 -0.53125 
Q 36.96875 -1.421875 32.421875 -1.421875 
Q 20.0625 -1.421875 12.78125 6.34375 
Q 5.515625 14.109375 5.515625 27.296875 
Q 5.515625 40.671875 12.859375 48.328125 
Q 20.21875 56 33.015625 56 
Q 37.15625 56 41.109375 55.140625 
Q 45.0625 54.296875 48.78125 52.59375 
" id="BitstreamVeraSans-Roman-63"/>
     </defs>
     <g transform="translate(963.7265625 145.1296875)scale(0.3 -0.3)">
      <use xlink:href="#BitstreamVeraSans-Roman-63"/>
      <use x="54.98046875" xlink:href="#BitstreamVeraSans-Roman-6f"/>
      <use x="116.162109375" xlink:href="#BitstreamVeraSans-Roman-72"/>
      <use x="157.259765625" xlink:href="#BitstreamVeraSans-Roman-72"/>
      <use x="198.357421875" xlink:href="#BitstreamVeraSans-Roman-3a"/>
      <use x="232.048828125" xlink:href="#BitstreamVeraSans-Roman-20"/>
      <use x="263.8359375" xlink:href="#BitstreamVeraSans-Roman-73"/>
      <use x="315.935546875" xlink:href="#BitstreamVeraSans-Roman-74"/>
      <use x="355.14453125" xlink:href="#BitstreamVeraSans-Roman-65"/>
      <use x="416.66796875" xlink:href="#BitstreamVeraSans-Roman-70"/>
      <use x="480.14453125" xlink:href="#BitstreamVeraSans-Roman-3d"/>
      <use x="563.93359375" xlink:href="#BitstreamVeraSans-Roman-30"/>
      <use x="627.556640625" xlink:href="#BitstreamVeraSans-Roman-2e"/>
      <use x="659.34375" xlink:href="#BitstreamVeraSans-Roman-30"/>
      <use x="722.966796875" xlink:href="#BitstreamVeraSans-Roman-30"/>
      <use x="786.58984375" xlink:href="#BitstreamVeraSans-Roman-39"/>
      <use x="850.212890625" xlink:href="#BitstreamVeraSans-Roman-37"/>
      <use x="913.8359375" xlink:href="#BitstreamVeraSans-Roman-37"/>
      <use x="977.458984375" xlink:href="#BitstreamVeraSans-Roman-36"/>
     </g>
    </g>
   </g>
  </g>
 </g>
 <defs>
  <clipPath id="p77bbaaf9a7">
   <rect height="695.7" width="1201.5" x="158.4" y="51.3"/>
  </clipPath>
 </defs>
</svg>
