<?xml version="1.0" encoding="utf-8" standalone="no"?>
<!DOCTYPE svg PUBLIC "-//W3C//DTD SVG 1.1//EN"
  "http://www.w3.org/Graphics/SVG/1.1/DTD/svg11.dtd">
<!-- Created with matplotlib (http://matplotlib.org/) -->
<svg height="864pt" version="1.1" viewBox="0 0 1440 864" width="1440pt" xmlns="http://www.w3.org/2000/svg" xmlns:xlink="http://www.w3.org/1999/xlink">
 <defs>
  <style type="text/css">
*{stroke-linecap:butt;stroke-linejoin:round;stroke-miterlimit:100000;}
  </style>
 </defs>
 <g id="figure_1">
  <g id="patch_1">
   <path d="M 0 864 
L 1440 864 
L 1440 0 
L 0 0 
z
" style="fill:#ffffff;"/>
  </g>
  <g id="axes_1">
   <g id="patch_2">
    <path d="M 158.4 747 
L 1359.9 747 
L 1359.9 51.3 
L 158.4 51.3 
z
" style="fill:#ffffff;"/>
   </g>
   <g id="line2d_1">
    <path clip-path="url(#pc4818ffc14)" d="M 158.4 117.880878 
L 159.6015 120.893557 
L 160.803 123.358201 
L 162.0045 125.499692 
L 163.206 127.334819 
L 164.4075 129.637646 
L 165.609 133.466445 
L 166.8105 135.229414 
L 169.2135 139.999563 
L 170.415 143.166151 
L 171.6165 145.902384 
L 172.818 149.739559 
L 176.4225 157.0668 
L 177.624 158.907216 
L 178.8255 162.306201 
L 180.027 164.957997 
L 181.2285 167.047648 
L 182.43 168.827716 
L 183.6315 170.950398 
L 184.833 173.773725 
L 186.0345 175.107656 
L 187.236 178.645946 
L 188.4375 181.105551 
L 189.639 185.382508 
L 190.8405 186.35847 
L 192.042 189.392122 
L 193.2435 191.745226 
L 194.445 194.80898 
L 195.6465 198.565389 
L 196.848 199.938034 
L 198.0495 202.424527 
L 200.4525 208.527103 
L 204.057 216.27166 
L 205.2585 218.526183 
L 206.46 221.818995 
L 207.6615 224.542548 
L 208.863 227.686006 
L 210.0645 230.424895 
L 211.266 232.448539 
L 212.4675 234.041584 
L 213.669 236.344582 
L 214.8705 239.834578 
L 216.072 243.840442 
L 217.2735 246.508893 
L 219.6765 252.995169 
L 220.878 255.281914 
L 222.0795 257.000719 
L 223.281 258.95949 
L 226.8855 268.577358 
L 229.2885 275.285037 
L 230.49 277.077493 
L 231.6915 280.304171 
L 234.0945 284.450327 
L 235.296 288.021774 
L 236.4975 289.229994 
L 237.699 292.101739 
L 238.9005 294.11461 
L 240.102 296.344955 
L 241.3035 300.285305 
L 242.505 302.978587 
L 243.7065 307.252507 
L 244.908 310.756759 
L 246.1095 313.437027 
L 247.311 316.488775 
L 248.5125 320.120263 
L 249.714 321.903035 
L 250.9155 324.234977 
L 252.117 327.424095 
L 253.3185 330.268481 
L 254.52 331.979805 
L 256.923 336.948908 
L 258.1245 338.702831 
L 259.326 342.490404 
L 261.729 347.139159 
L 262.9305 350.045972 
L 264.132 351.527322 
L 265.3335 354.789614 
L 266.535 356.815028 
L 267.7365 358.537644 
L 268.938 361.983869 
L 270.1395 364.253237 
L 271.341 365.985554 
L 272.5425 367.277334 
L 273.744 369.778353 
L 274.9455 371.943124 
L 276.147 374.577352 
L 277.3485 375.650133 
L 278.55 378.677506 
L 279.7515 381.058506 
L 280.953 384.461899 
L 283.356 388.308771 
L 284.5575 391.315051 
L 286.9605 396.525035 
L 288.162 400.434306 
L 291.7665 410.444341 
L 292.968 412.563705 
L 295.371 418.061056 
L 296.5725 422.092224 
L 297.774 423.876093 
L 298.9755 426.308288 
L 300.177 429.241472 
L 302.58 433.905081 
L 303.7815 436.578645 
L 304.983 438.44044 
L 306.1845 441.074176 
L 307.386 444.034485 
L 308.5875 446.174228 
L 309.789 447.715708 
L 312.192 452.155359 
L 313.3935 456.101898 
L 314.595 458.875354 
L 315.7965 460.816462 
L 316.998 463.619367 
L 318.1995 467.442501 
L 319.401 469.725348 
L 320.6025 473.269629 
L 321.804 475.156811 
L 323.0055 477.441413 
L 324.207 481.173976 
L 327.8115 490.059972 
L 329.013 494.021007 
L 330.2145 497.016719 
L 333.819 504.673724 
L 335.0205 507.58031 
L 336.222 511.021724 
L 337.4235 512.754667 
L 338.625 515.398771 
L 339.8265 520.018307 
L 342.2295 525.779022 
L 344.6325 532.641789 
L 347.0355 537.920784 
L 348.237 542.71818 
L 350.64 549.116443 
L 351.8415 550.766193 
L 353.043 553.747217 
L 354.2445 555.980544 
L 355.446 559.673478 
L 357.849 564.505177 
L 359.0505 568.614623 
L 360.252 570.725736 
L 361.4535 573.915349 
L 363.8565 578.084751 
L 367.461 587.704058 
L 368.6625 588.340458 
L 369.864 590.925593 
L 372.267 595.102114 
L 373.4685 597.964523 
L 374.67 600.430005 
L 375.8715 603.344896 
L 377.073 606.759254 
L 378.2745 608.35823 
L 379.476 611.510815 
L 380.6775 613.983314 
L 381.879 617.120287 
L 383.0805 619.067744 
L 384.282 621.629852 
L 386.685 628.508594 
L 389.088 631.694074 
L 390.2895 634.813025 
L 392.6925 642.173372 
L 393.894 644.564731 
L 395.0955 645.892232 
L 396.297 648.172165 
L 397.4985 650.76969 
L 398.7 654.752936 
L 401.103 659.4347 
L 402.3045 659.964047 
L 403.506 661.500647 
L 404.7075 663.244236 
L 405.909 666.353041 
L 407.1105 670.163316 
L 408.312 671.726672 
L 410.715 678.407856 
L 411.9165 682.347419 
L 413.118 685.810162 
L 414.3195 687.866832 
L 415.521 690.326794 
L 417.924 694.375866 
L 419.1255 697.163522 
L 420.327 698.929212 
L 421.5285 701.058494 
L 422.73 703.862444 
L 425.133 708.273666 
L 426.3345 711.178284 
L 427.536 713.30212 
L 428.7375 713.602693 
L 429.939 715.144158 
L 432.342 719.087504 
L 433.5435 720.496923 
L 434.745 721.077792 
L 437.148 724.459518 
L 438.3495 725.376559 
L 439.551 725.26813 
L 440.7525 725.933098 
L 441.954 728.481118 
L 445.5585 727.932709 
L 446.76 728.680856 
L 447.9615 727.880952 
L 449.163 727.461355 
L 450.3645 728.315003 
L 451.566 728.531915 
L 452.7675 728.427194 
L 453.969 729.022088 
L 455.1705 728.277679 
L 456.372 727.854103 
L 457.5735 725.658096 
L 458.775 725.037157 
L 459.9765 725.589968 
L 461.178 725.074138 
L 462.3795 725.816113 
L 463.581 726.150336 
L 464.7825 725.957213 
L 465.984 726.745945 
L 467.1855 726.385022 
L 468.387 727.672681 
L 469.5885 728.37338 
L 470.79 728.726074 
L 471.9915 728.031413 
L 473.193 728.481229 
L 474.3945 727.66422 
L 475.596 727.721393 
L 477.999 727.035188 
L 479.2005 728.611526 
L 480.402 728.029556 
L 481.6035 726.866985 
L 482.805 727.202026 
L 484.0065 726.724912 
L 485.208 727.568738 
L 486.4095 727.490405 
L 487.611 727.749849 
L 488.8125 727.799384 
L 490.014 727.358521 
L 491.2155 726.524237 
L 492.417 727.285721 
L 493.6185 727.701832 
L 494.82 726.544976 
L 496.0215 727.375562 
L 497.223 727.706862 
L 498.4245 728.202093 
L 499.626 729.007806 
L 500.8275 729.013093 
L 502.029 729.185694 
L 503.2305 728.588515 
L 504.432 727.85116 
L 505.6335 728.679956 
L 506.835 725.749104 
L 508.0365 726.618061 
L 509.238 725.897962 
L 510.4395 724.993261 
L 511.641 725.886055 
L 512.8425 725.850291 
L 514.044 726.221411 
L 515.2455 726.393521 
L 516.447 726.156388 
L 517.6485 726.881827 
L 518.85 726.649272 
L 521.253 727.231157 
L 522.4545 726.728872 
L 523.656 727.132505 
L 524.8575 726.191807 
L 526.059 725.616861 
L 527.2605 727.301153 
L 528.462 728.094672 
L 529.6635 727.232056 
L 530.865 727.504143 
L 533.268 726.039381 
L 534.4695 726.654043 
L 535.671 727.583197 
L 536.8725 729.171635 
L 538.074 729.229179 
L 539.2755 727.51709 
L 540.477 727.531495 
L 541.6785 727.175541 
L 542.88 727.109943 
L 544.0815 727.571211 
L 545.283 726.917793 
L 546.4845 727.510519 
L 547.686 727.117896 
L 548.8875 726.874805 
L 550.089 723.233722 
L 551.2905 724.761226 
L 553.6935 726.218063 
L 554.895 725.92357 
L 557.298 727.051376 
L 558.4995 727.394349 
L 559.701 728.207705 
L 560.9025 728.837144 
L 562.104 728.233232 
L 563.3055 728.042446 
L 564.507 727.127179 
L 565.7085 727.834524 
L 566.91 727.76431 
L 568.1115 728.447668 
L 569.313 728.745558 
L 570.5145 727.930552 
L 571.716 727.642237 
L 572.9175 729.026727 
L 574.119 728.574427 
L 576.522 729.806349 
L 577.7235 729.243208 
L 578.925 729.110324 
L 580.1265 727.531085 
L 581.328 726.655209 
L 582.5295 726.703284 
L 583.731 727.668042 
L 584.9325 728.220322 
L 586.134 727.610338 
L 587.3355 727.294174 
L 588.537 727.595732 
L 589.7385 727.223708 
L 590.94 725.911696 
L 592.1415 727.217407 
L 593.343 725.672129 
L 594.5445 726.858178 
L 595.746 727.082505 
L 596.9475 726.420695 
L 598.149 727.102421 
L 599.3505 728.090346 
L 600.552 728.597639 
L 601.7535 727.763669 
L 602.955 728.422081 
L 604.1565 727.874855 
L 605.358 727.685697 
L 606.5595 727.314701 
L 607.761 727.102095 
L 608.9625 728.243523 
L 610.164 727.936253 
L 611.3655 728.761643 
L 612.567 729.090182 
L 613.7685 727.765382 
L 614.97 726.922626 
L 616.1715 727.47582 
L 617.373 728.318989 
L 618.5745 727.491186 
L 619.776 727.626891 
L 620.9775 727.971435 
L 622.179 728.536118 
L 623.3805 727.168612 
L 625.7835 726.677344 
L 626.985 728.032181 
L 628.1865 728.223494 
L 629.388 728.546513 
L 631.791 727.110123 
L 632.9925 727.190903 
L 634.194 726.690622 
L 635.3955 726.510681 
L 636.597 727.033347 
L 637.7985 726.580512 
L 639 726.901227 
L 640.2015 724.317525 
L 641.403 723.924273 
L 642.6045 724.435987 
L 643.806 723.978157 
L 645.0075 724.933521 
L 646.209 724.970126 
L 647.4105 725.990826 
L 648.612 726.736063 
L 649.8135 726.705444 
L 651.015 726.370639 
L 652.2165 726.992457 
L 653.418 727.149481 
L 654.6195 727.130221 
L 655.821 725.948362 
L 657.0225 726.524976 
L 658.224 726.715031 
L 659.4255 727.237347 
L 660.627 726.775026 
L 661.8285 726.160018 
L 663.03 726.404459 
L 664.2315 726.816861 
L 665.433 727.791289 
L 666.6345 726.815281 
L 670.239 728.261844 
L 671.4405 728.066562 
L 672.642 727.634253 
L 675.045 728.170899 
L 676.2465 727.885608 
L 677.448 728.50227 
L 678.6495 728.361123 
L 679.851 726.847431 
L 681.0525 726.117951 
L 682.254 725.804328 
L 683.4555 726.075682 
L 684.657 726.007746 
L 685.8585 727.263839 
L 687.06 727.397994 
L 689.463 728.323047 
L 690.6645 728.716998 
L 691.866 728.954341 
L 693.0675 728.720238 
L 694.269 726.206134 
L 695.4705 726.182915 
L 696.672 725.679022 
L 697.8735 727.239156 
L 699.075 726.805242 
L 700.2765 726.671134 
L 701.478 727.01957 
L 702.6795 726.241361 
L 705.0825 725.712837 
L 707.4855 723.374932 
L 708.687 724.098722 
L 709.8885 725.64475 
L 711.09 725.41075 
L 712.2915 726.371436 
L 713.493 726.108229 
L 714.6945 726.246981 
L 715.896 727.276026 
L 717.0975 727.853684 
L 718.299 727.713843 
L 719.5005 726.95042 
L 720.702 728.019597 
L 721.9035 727.254022 
L 723.105 726.624957 
L 724.3065 726.703463 
L 726.7095 727.971639 
L 727.911 727.128778 
L 729.1125 727.841862 
L 730.314 727.85114 
L 731.5155 728.557978 
L 732.717 728.883308 
L 733.9185 728.638287 
L 736.3215 727.577353 
L 737.523 727.349839 
L 738.7245 726.307273 
L 739.926 726.05445 
L 741.1275 726.446567 
L 742.329 727.434749 
L 743.5305 727.5025 
L 744.732 728.177245 
L 745.9335 727.363546 
L 747.135 728.627644 
L 748.3365 728.036909 
L 749.538 726.685604 
L 750.7395 726.087098 
L 751.941 726.147264 
L 753.1425 725.811083 
L 754.344 726.375282 
L 755.5455 727.511645 
L 756.747 726.86586 
L 757.9485 727.740551 
L 759.15 726.308073 
L 760.3515 726.831363 
L 761.553 726.800547 
L 762.7545 727.498055 
L 763.956 726.327871 
L 765.1575 726.915652 
L 766.359 725.974796 
L 767.5605 725.849263 
L 768.762 726.49375 
L 769.9635 726.635633 
L 771.165 727.608693 
L 772.3665 728.050994 
L 773.568 727.867217 
L 774.7695 727.821468 
L 775.971 728.005625 
L 777.1725 726.454951 
L 778.374 726.971543 
L 779.5755 726.889392 
L 780.777 727.534288 
L 781.9785 727.813958 
L 783.18 728.256857 
L 784.3815 728.404131 
L 785.583 728.134187 
L 786.7845 727.663668 
L 789.1875 728.068856 
L 790.389 727.592772 
L 791.5905 728.249636 
L 793.9935 725.118373 
L 795.195 726.256809 
L 796.3965 726.339911 
L 797.598 726.545765 
L 798.7995 726.51151 
L 800.001 725.792913 
L 801.2025 726.617826 
L 802.404 726.62972 
L 803.6055 727.726546 
L 804.807 727.077164 
L 806.0085 727.341439 
L 807.21 727.170163 
L 809.613 726.415623 
L 810.8145 726.21962 
L 812.016 725.68087 
L 814.419 727.32315 
L 815.6205 727.242627 
L 816.822 726.696742 
L 818.0235 726.979711 
L 819.225 726.220581 
L 820.4265 727.11894 
L 821.628 727.741731 
L 822.8295 726.942541 
L 824.031 726.612118 
L 825.2325 726.829759 
L 826.434 726.749762 
L 827.6355 726.470563 
L 828.837 727.331496 
L 830.0385 726.354346 
L 831.24 727.116159 
L 832.4415 728.773187 
L 836.046 728.312041 
L 837.2475 729.5293 
L 838.449 728.729407 
L 839.6505 727.730869 
L 840.852 727.465132 
L 842.0535 727.599251 
L 843.255 727.620364 
L 845.658 725.355828 
L 848.061 727.455268 
L 849.2625 726.98579 
L 850.464 727.396698 
L 851.6655 726.485476 
L 852.867 727.333832 
L 854.0685 726.809913 
L 855.27 726.9706 
L 856.4715 726.675273 
L 857.673 726.138242 
L 858.8745 725.972678 
L 860.076 727.334235 
L 861.2775 726.601104 
L 862.479 726.637737 
L 863.6805 727.466977 
L 864.882 728.985611 
L 867.285 726.723335 
L 868.4865 726.563194 
L 869.688 724.595375 
L 870.8895 724.998686 
L 872.091 726.071847 
L 873.2925 726.59703 
L 874.494 725.786017 
L 875.6955 724.379935 
L 876.897 724.351314 
L 878.0985 725.088035 
L 879.3 725.680228 
L 880.5015 726.880756 
L 881.703 727.231833 
L 882.9045 727.946502 
L 884.106 727.901889 
L 885.3075 727.47327 
L 886.509 728.011192 
L 887.7105 729.203633 
L 888.912 727.824216 
L 890.1135 727.289371 
L 891.315 728.03696 
L 892.5165 727.10384 
L 893.718 727.520912 
L 894.9195 726.741665 
L 896.121 727.267196 
L 897.3225 728.228321 
L 898.524 727.651814 
L 899.7255 728.281077 
L 900.927 727.938711 
L 902.1285 727.291157 
L 903.33 727.299866 
L 904.5315 728.139358 
L 905.733 728.089152 
L 906.9345 729.443554 
L 908.136 729.540133 
L 909.3375 728.800683 
L 910.539 728.333593 
L 911.7405 728.207608 
L 912.942 727.63048 
L 914.1435 727.627675 
L 915.345 728.1438 
L 916.5465 728.97524 
L 917.748 728.485779 
L 918.9495 728.292284 
L 922.554 725.920624 
L 923.7555 727.403904 
L 924.957 727.853471 
L 926.1585 726.004297 
L 927.36 726.840326 
L 928.5615 726.097402 
L 929.763 726.918231 
L 930.9645 727.049874 
L 933.3675 726.817878 
L 934.569 727.146224 
L 935.7705 726.319538 
L 936.972 725.994702 
L 938.1735 726.163949 
L 939.375 727.107347 
L 940.5765 727.033624 
L 941.778 727.188179 
L 942.9795 726.88096 
L 944.181 727.321072 
L 946.584 727.367182 
L 948.987 726.959971 
L 950.1885 728.309279 
L 951.39 728.574522 
L 952.5915 727.263679 
L 954.9945 727.407473 
L 956.196 727.062021 
L 957.3975 726.485731 
L 958.599 726.447628 
L 959.8005 726.852118 
L 961.002 726.734577 
L 962.2035 727.019796 
L 963.405 727.464283 
L 964.6065 728.369293 
L 965.808 728.899896 
L 967.0095 728.444327 
L 968.211 726.092894 
L 969.4125 726.540288 
L 970.614 727.352226 
L 973.017 728.142371 
L 974.2185 727.792269 
L 975.42 727.059183 
L 976.6215 726.884399 
L 977.823 726.952719 
L 979.0245 726.462922 
L 981.4275 727.627259 
L 982.629 727.344457 
L 983.8305 726.447018 
L 985.032 726.595136 
L 986.2335 726.156539 
L 987.435 726.681851 
L 988.6365 726.224338 
L 989.838 726.135298 
L 991.0395 727.313261 
L 993.4425 727.435383 
L 994.644 726.40281 
L 995.8455 726.114689 
L 997.047 725.431322 
L 999.45 725.533089 
L 1000.6515 726.403389 
L 1001.853 726.668888 
L 1003.0545 726.675147 
L 1005.4575 726.987539 
L 1006.659 727.668678 
L 1007.8605 727.360973 
L 1009.062 728.471408 
L 1010.2635 728.770081 
L 1011.465 728.564914 
L 1013.868 727.545342 
L 1015.0695 727.750569 
L 1016.271 728.839799 
L 1017.4725 728.159667 
L 1018.674 729.076319 
L 1019.8755 728.582601 
L 1021.077 729.089434 
L 1022.2785 726.29416 
L 1023.48 726.16907 
L 1024.6815 724.184835 
L 1025.883 725.099616 
L 1029.4875 725.54683 
L 1030.689 725.594271 
L 1031.8905 725.980567 
L 1033.092 727.150459 
L 1034.2935 727.709085 
L 1035.495 727.611436 
L 1036.6965 726.98826 
L 1037.898 726.023819 
L 1039.0995 726.913859 
L 1040.301 727.259436 
L 1041.5025 726.909753 
L 1043.9055 728.331158 
L 1045.107 728.595441 
L 1046.3085 727.636368 
L 1047.51 727.835648 
L 1048.7115 726.847099 
L 1049.913 726.563677 
L 1051.1145 726.895876 
L 1052.316 726.266914 
L 1053.5175 727.277382 
L 1055.9205 725.636471 
L 1057.122 720.844839 
L 1059.525 722.685217 
L 1060.7265 723.930288 
L 1061.928 723.971723 
L 1063.1295 725.22584 
L 1064.331 725.832287 
L 1065.5325 725.69614 
L 1066.734 725.759183 
L 1067.9355 725.144778 
L 1069.137 724.946085 
L 1071.54 725.347029 
L 1073.943 726.190316 
L 1075.1445 725.524176 
L 1076.346 726.288769 
L 1077.5475 725.897939 
L 1078.749 725.911217 
L 1079.9505 725.262689 
L 1081.152 725.516868 
L 1082.3535 726.651341 
L 1083.555 727.0011 
L 1084.7565 725.401796 
L 1085.958 725.320726 
L 1087.1595 725.384544 
L 1088.361 724.56883 
L 1089.5625 725.568098 
L 1090.764 725.933113 
L 1091.9655 727.015302 
L 1093.167 728.720955 
L 1094.3685 727.830191 
L 1095.57 727.397573 
L 1096.7715 727.572504 
L 1097.973 727.459066 
L 1099.1745 727.653771 
L 1100.376 727.540057 
L 1101.5775 727.275508 
L 1102.779 728.055222 
L 1103.9805 727.096005 
L 1105.182 726.766332 
L 1106.3835 726.666412 
L 1107.585 726.882088 
L 1108.7865 726.872144 
L 1109.988 727.119772 
L 1111.1895 726.268621 
L 1112.391 726.513881 
L 1113.5925 726.964573 
L 1114.794 726.784325 
L 1115.9955 726.876404 
L 1117.197 728.803359 
L 1118.3985 728.655312 
L 1119.6 728.948803 
L 1120.8015 728.819738 
L 1122.003 729.359048 
L 1123.2045 729.097188 
L 1124.406 729.478363 
L 1125.6075 728.71409 
L 1126.809 727.739392 
L 1128.0105 728.437839 
L 1129.212 728.542577 
L 1130.4135 728.341866 
L 1131.615 729.615049 
L 1132.8165 729.948029 
L 1135.2195 729.085625 
L 1136.421 729.258803 
L 1137.6225 726.413134 
L 1138.824 725.492651 
L 1140.0255 725.539443 
L 1141.227 726.636593 
L 1142.4285 726.664801 
L 1143.63 724.288685 
L 1144.8315 724.495283 
L 1146.033 724.875927 
L 1147.2345 724.576973 
L 1148.436 725.509171 
L 1149.6375 726.173805 
L 1150.839 725.659 
L 1152.0405 725.398963 
L 1153.242 725.330781 
L 1154.4435 725.758553 
L 1155.645 726.49557 
L 1156.8465 726.631133 
L 1158.048 727.209862 
L 1159.2495 726.997956 
L 1160.451 727.280881 
L 1162.854 727.267286 
L 1164.0555 727.050571 
L 1165.257 727.039433 
L 1166.4585 726.905795 
L 1167.66 727.245476 
L 1168.8615 728.363816 
L 1170.063 728.241479 
L 1171.2645 728.429588 
L 1172.466 726.607305 
L 1173.6675 726.328089 
L 1174.869 726.196478 
L 1176.0705 726.570121 
L 1177.272 726.264731 
L 1178.4735 725.558246 
L 1180.8765 726.807811 
L 1182.078 728.416344 
L 1183.2795 727.865552 
L 1184.481 728.628967 
L 1185.6825 729.761825 
L 1186.884 727.4905 
L 1188.0855 727.369806 
L 1189.287 727.065564 
L 1190.4885 726.481638 
L 1191.69 727.006357 
L 1192.8915 727.256331 
L 1194.093 725.363571 
L 1195.2945 725.951829 
L 1196.496 725.17785 
L 1197.6975 725.310708 
L 1198.899 725.313119 
L 1200.1005 725.750898 
L 1201.302 725.450642 
L 1202.5035 726.41578 
L 1204.9065 727.125019 
L 1206.108 726.818256 
L 1207.3095 727.945786 
L 1208.511 728.629279 
L 1209.7125 727.682143 
L 1210.914 728.08665 
L 1212.1155 728.633173 
L 1214.5185 727.262215 
L 1215.72 727.408969 
L 1216.9215 727.761627 
L 1218.123 727.982096 
L 1220.526 727.358525 
L 1221.7275 726.470376 
L 1222.929 727.009743 
L 1224.1305 725.998329 
L 1225.332 725.528733 
L 1226.5335 726.277187 
L 1227.735 726.621048 
L 1228.9365 727.594528 
L 1231.3395 726.927015 
L 1232.541 726.87299 
L 1233.7425 726.69597 
L 1234.944 726.663459 
L 1236.1455 726.770226 
L 1237.347 725.553421 
L 1238.5485 725.818347 
L 1239.75 727.16112 
L 1240.9515 727.57065 
L 1242.153 727.462805 
L 1243.3545 728.139723 
L 1244.556 727.111325 
L 1245.7575 726.519135 
L 1248.1605 726.397716 
L 1249.362 725.610434 
L 1250.5635 726.768676 
L 1251.765 726.97654 
L 1252.9665 728.098524 
L 1254.168 728.364988 
L 1255.3695 727.445909 
L 1257.7725 726.848439 
L 1258.974 725.452225 
L 1260.1755 726.269964 
L 1261.377 727.769181 
L 1262.5785 727.639581 
L 1263.78 727.386958 
L 1264.9815 726.972092 
L 1266.183 726.961144 
L 1267.3845 727.323754 
L 1268.586 728.006756 
L 1269.7875 727.441152 
L 1270.989 728.4676 
L 1272.1905 728.864469 
L 1274.5935 729.283955 
L 1275.795 729.146375 
L 1276.9965 728.640781 
L 1278.198 727.891976 
L 1279.3995 727.725928 
L 1280.601 728.190909 
L 1281.8025 725.951904 
L 1283.004 726.58411 
L 1284.2055 726.97415 
L 1285.407 726.910299 
L 1286.6085 728.024645 
L 1287.81 728.784864 
L 1289.0115 729.856042 
L 1290.213 729.35224 
L 1291.4145 728.629138 
L 1293.8175 726.91359 
L 1296.2205 726.621427 
L 1298.6235 725.7807 
L 1299.825 727.337624 
L 1301.0265 727.908634 
L 1302.228 727.649726 
L 1303.4295 727.09406 
L 1304.631 727.68502 
L 1305.8325 728.673975 
L 1307.034 729.286559 
L 1308.2355 729.508734 
L 1309.437 729.323627 
L 1310.6385 726.894499 
L 1311.84 726.432744 
L 1313.0415 725.795774 
L 1314.243 725.363868 
L 1315.4445 726.570423 
L 1316.646 726.553064 
L 1317.8475 727.368659 
L 1319.049 726.09412 
L 1320.2505 725.888469 
L 1321.452 726.381048 
L 1322.6535 724.440689 
L 1325.0565 726.564128 
L 1327.4595 726.069083 
L 1328.661 727.856345 
L 1329.8625 728.493435 
L 1331.064 727.991847 
L 1332.2655 726.689241 
L 1333.467 726.389473 
L 1334.6685 727.319814 
L 1335.87 727.05419 
L 1337.0715 727.475891 
L 1338.273 727.740057 
L 1339.4745 727.325695 
L 1340.676 728.01156 
L 1341.8775 727.830215 
L 1343.079 727.237085 
L 1344.2805 727.69417 
L 1345.482 728.665008 
L 1346.6835 728.457878 
L 1347.885 727.868376 
L 1349.0865 727.820196 
L 1350.288 728.672689 
L 1352.691 725.356743 
L 1353.8925 726.145738 
L 1355.094 726.470615 
L 1356.2955 725.560322 
L 1357.497 726.44065 
L 1358.6985 726.449573 
L 1358.6985 726.449573 
" style="fill:none;stroke:#0000ff;stroke-linecap:square;stroke-width:2.0;"/>
   </g>
   <g id="line2d_2">
    <path clip-path="url(#pc4818ffc14)" d="M 158.4 117.558106 
L 162.0045 125.208562 
L 163.206 128.666823 
L 164.4075 131.091489 
L 168.012 136.885436 
L 169.2135 140.450697 
L 170.415 143.335236 
L 171.6165 145.42746 
L 172.818 147.930917 
L 174.0195 150.828944 
L 175.221 153.162559 
L 177.624 156.501965 
L 178.8255 159.05994 
L 180.027 161.304191 
L 182.43 167.346693 
L 183.6315 169.838428 
L 184.833 171.48659 
L 186.0345 173.539103 
L 188.4375 179.005971 
L 190.8405 182.873897 
L 192.042 185.421681 
L 193.2435 187.394506 
L 194.445 190.400769 
L 195.6465 193.806593 
L 196.848 196.447073 
L 198.0495 199.51919 
L 199.251 201.92757 
L 200.4525 203.378197 
L 201.654 205.917312 
L 202.8555 208.951838 
L 204.057 211.587157 
L 205.2585 215.602061 
L 206.46 218.231825 
L 208.863 222.033765 
L 211.266 228.879343 
L 212.4675 231.774846 
L 213.669 234.37943 
L 214.8705 235.86148 
L 217.2735 240.988701 
L 218.475 243.850092 
L 219.6765 245.900244 
L 222.0795 252.522784 
L 223.281 254.608475 
L 224.4825 256.322779 
L 225.684 259.582083 
L 226.8855 263.534691 
L 228.087 264.913237 
L 229.2885 267.678423 
L 230.49 271.239724 
L 232.893 275.925999 
L 234.0945 278.251007 
L 236.4975 284.602561 
L 237.699 287.226152 
L 238.9005 289.054641 
L 240.102 290.44532 
L 243.7065 299.453097 
L 246.1095 305.122037 
L 247.311 308.434253 
L 248.5125 310.894001 
L 249.714 313.69807 
L 252.117 318.87081 
L 253.3185 320.590137 
L 254.52 324.827775 
L 255.7215 328.243241 
L 256.923 330.494477 
L 258.1245 330.442803 
L 259.326 332.895408 
L 260.5275 335.027998 
L 262.9305 338.431919 
L 264.132 341.014811 
L 265.3335 343.143191 
L 266.535 346.317315 
L 267.7365 348.722414 
L 268.938 350.752003 
L 271.341 357.094739 
L 272.5425 359.489621 
L 273.744 361.496757 
L 274.9455 362.34123 
L 276.147 363.790272 
L 277.3485 364.681988 
L 278.55 365.299038 
L 279.7515 366.938405 
L 280.953 368.823484 
L 282.1545 371.855525 
L 283.356 373.992028 
L 284.5575 377.149336 
L 286.9605 382.659555 
L 288.162 385.892022 
L 289.3635 388.763811 
L 290.565 390.541361 
L 291.7665 392.554003 
L 292.968 395.406315 
L 294.1695 397.747319 
L 295.371 400.54304 
L 296.5725 404.44874 
L 297.774 407.188262 
L 298.9755 410.30085 
L 300.177 412.596323 
L 301.3785 415.404546 
L 302.58 417.63778 
L 303.7815 421.013714 
L 306.1845 425.945326 
L 307.386 428.040009 
L 308.5875 429.678143 
L 309.789 431.624532 
L 310.9905 435.396631 
L 312.192 437.707608 
L 313.3935 440.599303 
L 314.595 444.269293 
L 315.7965 445.855829 
L 316.998 448.091258 
L 318.1995 449.665427 
L 319.401 452.72378 
L 321.804 457.43071 
L 323.0055 460.205357 
L 324.207 462.454204 
L 325.4085 463.588604 
L 327.8115 468.380015 
L 329.013 470.364979 
L 330.2145 473.066634 
L 331.416 474.728715 
L 332.6175 477.023945 
L 333.819 480.239958 
L 335.0205 482.547619 
L 336.222 485.247259 
L 337.4235 488.535259 
L 338.625 491.450678 
L 339.8265 495.103639 
L 341.028 496.448976 
L 342.2295 499.775492 
L 343.431 502.721418 
L 347.0355 509.480658 
L 349.4385 513.818582 
L 353.043 521.187301 
L 354.2445 523.321897 
L 357.849 531.887089 
L 359.0505 535.570521 
L 361.4535 540.479656 
L 362.655 543.580219 
L 368.6625 557.301184 
L 369.864 559.849425 
L 371.0655 561.822693 
L 372.267 564.730294 
L 373.4685 567.965399 
L 374.67 569.45358 
L 375.8715 572.551033 
L 377.073 576.311451 
L 378.2745 578.809483 
L 379.476 582.207247 
L 381.879 588.155018 
L 383.0805 591.541508 
L 384.282 594.098854 
L 385.4835 596.054406 
L 386.685 598.616289 
L 390.2895 608.169575 
L 392.6925 613.187574 
L 393.894 616.087217 
L 395.0955 617.700545 
L 398.7 626.389775 
L 399.9015 628.956275 
L 401.103 629.899781 
L 403.506 635.739624 
L 404.7075 637.722287 
L 407.1105 643.428062 
L 409.5135 650.946658 
L 410.715 652.971583 
L 411.9165 656.739486 
L 413.118 658.949768 
L 414.3195 661.470153 
L 415.521 663.64207 
L 416.7225 667.180987 
L 417.924 669.546522 
L 419.1255 670.820137 
L 420.327 672.480225 
L 421.5285 675.1953 
L 422.73 679.076014 
L 425.133 683.544429 
L 427.536 687.340199 
L 429.939 694.982726 
L 431.1405 697.726071 
L 433.5435 701.698664 
L 434.745 704.137402 
L 435.9465 707.397823 
L 437.148 709.700231 
L 439.551 713.678861 
L 440.7525 716.387507 
L 441.954 718.106009 
L 443.1555 719.333324 
L 444.357 721.004947 
L 445.5585 722.409474 
L 446.76 723.254484 
L 447.9615 722.445952 
L 449.163 723.044539 
L 450.3645 723.911389 
L 451.566 724.044719 
L 452.7675 724.862677 
L 453.969 725.485428 
L 455.1705 726.866607 
L 456.372 727.345255 
L 457.5735 727.089516 
L 458.775 727.03709 
L 459.9765 725.728086 
L 461.178 727.436348 
L 462.3795 726.863538 
L 463.581 727.735403 
L 464.7825 727.405591 
L 465.984 727.82512 
L 467.1855 727.645179 
L 468.387 727.816942 
L 469.5885 728.657869 
L 470.79 727.592695 
L 471.9915 727.566576 
L 473.193 727.723979 
L 474.3945 727.485646 
L 475.596 727.390047 
L 477.999 726.947755 
L 479.2005 726.734298 
L 480.402 725.846698 
L 481.6035 725.479414 
L 482.805 725.686733 
L 484.0065 726.268107 
L 485.208 727.038366 
L 486.4095 727.160305 
L 487.611 724.240864 
L 488.8125 723.53921 
L 490.014 724.636339 
L 491.2155 726.397364 
L 492.417 726.694467 
L 493.6185 725.789638 
L 494.82 725.919075 
L 496.0215 725.6522 
L 497.223 726.301548 
L 502.029 726.296024 
L 503.2305 727.112901 
L 504.432 726.995236 
L 505.6335 727.1284 
L 506.835 727.989627 
L 508.0365 727.907367 
L 510.4395 728.321047 
L 511.641 728.843195 
L 512.8425 728.400647 
L 514.044 728.871871 
L 515.2455 728.151302 
L 516.447 727.853705 
L 517.6485 728.128093 
L 518.85 728.960996 
L 521.253 726.81764 
L 522.4545 727.670127 
L 523.656 727.307241 
L 524.8575 728.479482 
L 526.059 727.521169 
L 527.2605 727.597875 
L 528.462 727.947676 
L 529.6635 727.793179 
L 530.865 728.216426 
L 533.268 727.611768 
L 534.4695 726.96028 
L 535.671 727.534421 
L 536.8725 728.404437 
L 538.074 726.809058 
L 539.2755 727.086054 
L 540.477 725.355275 
L 541.6785 724.74403 
L 542.88 725.072295 
L 544.0815 726.302344 
L 547.686 726.799083 
L 548.8875 726.342729 
L 550.089 726.54356 
L 551.2905 727.231036 
L 552.492 728.116332 
L 553.6935 725.910038 
L 554.895 725.959061 
L 556.0965 724.457444 
L 558.4995 723.376225 
L 559.701 724.262499 
L 560.9025 725.335903 
L 562.104 726.025821 
L 563.3055 725.553843 
L 564.507 726.58159 
L 565.7085 726.690522 
L 566.91 725.283713 
L 568.1115 725.375435 
L 569.313 726.871081 
L 570.5145 727.03442 
L 571.716 726.358965 
L 572.9175 725.527623 
L 574.119 725.225207 
L 575.3205 725.590705 
L 576.522 725.685774 
L 577.7235 725.195118 
L 578.925 726.329257 
L 580.1265 725.027761 
L 581.328 725.016838 
L 582.5295 726.154464 
L 583.731 725.881684 
L 584.9325 726.952791 
L 586.134 727.229249 
L 587.3355 725.990315 
L 588.537 725.821373 
L 589.7385 726.473117 
L 590.94 727.305653 
L 592.1415 726.762273 
L 593.343 726.799616 
L 594.5445 727.149099 
L 595.746 726.561405 
L 596.9475 726.973382 
L 599.3505 726.269152 
L 600.552 726.939691 
L 601.7535 727.209834 
L 602.955 727.305499 
L 604.1565 727.55211 
L 605.358 727.250014 
L 606.5595 726.786433 
L 608.9625 727.470632 
L 610.164 727.716377 
L 611.3655 727.762574 
L 612.567 727.662882 
L 613.7685 726.504561 
L 614.97 726.365504 
L 617.373 726.923534 
L 618.5745 725.927818 
L 619.776 727.018491 
L 620.9775 727.482427 
L 622.179 728.256328 
L 623.3805 727.689169 
L 624.582 727.512419 
L 625.7835 727.745473 
L 626.985 727.752031 
L 629.388 726.01571 
L 630.5895 724.90598 
L 631.791 726.089247 
L 632.9925 726.204697 
L 634.194 726.508463 
L 635.3955 727.374452 
L 636.597 728.011708 
L 637.7985 729.124764 
L 639 728.805827 
L 640.2015 729.0287 
L 641.403 727.637598 
L 642.6045 728.365204 
L 643.806 726.786368 
L 645.0075 726.646954 
L 647.4105 727.624517 
L 648.612 727.344391 
L 649.8135 727.776082 
L 651.015 728.489759 
L 652.2165 727.510559 
L 653.418 727.578679 
L 655.821 728.392389 
L 658.224 729.919631 
L 659.4255 728.173868 
L 660.627 728.049097 
L 661.8285 727.437082 
L 664.2315 728.624676 
L 665.433 726.991503 
L 666.6345 727.297977 
L 667.836 726.311217 
L 669.0375 726.242921 
L 672.642 725.36268 
L 673.8435 727.127837 
L 675.045 726.450007 
L 676.2465 726.928939 
L 677.448 727.707037 
L 678.6495 726.661077 
L 679.851 726.864501 
L 681.0525 726.708483 
L 682.254 727.479517 
L 683.4555 727.483497 
L 684.657 727.071873 
L 685.8585 727.403318 
L 687.06 726.465729 
L 688.2615 727.55609 
L 689.463 727.724127 
L 690.6645 727.509373 
L 691.866 727.953432 
L 693.0675 726.991019 
L 694.269 726.52733 
L 695.4705 726.914841 
L 696.672 725.857139 
L 699.075 728.530657 
L 701.478 728.997152 
L 702.6795 729.2493 
L 703.881 729.218108 
L 705.0825 728.792427 
L 706.284 727.197703 
L 707.4855 727.843732 
L 708.687 726.999785 
L 709.8885 726.484586 
L 711.09 727.274983 
L 713.493 727.374737 
L 714.6945 726.965423 
L 715.896 727.605234 
L 717.0975 726.941177 
L 718.299 727.451655 
L 719.5005 726.965374 
L 720.702 726.93835 
L 721.9035 726.533664 
L 723.105 727.446794 
L 725.508 727.493609 
L 727.911 726.518223 
L 729.1125 725.603001 
L 730.314 724.44273 
L 731.5155 725.190668 
L 732.717 724.490416 
L 733.9185 725.240868 
L 735.12 725.610009 
L 736.3215 725.736754 
L 737.523 725.512469 
L 738.7245 725.812551 
L 739.926 726.416646 
L 741.1275 727.583946 
L 742.329 727.856998 
L 743.5305 727.475424 
L 744.732 727.474175 
L 745.9335 726.592544 
L 747.135 727.003597 
L 748.3365 726.493364 
L 749.538 725.390525 
L 750.7395 725.482433 
L 751.941 725.252712 
L 753.1425 725.649438 
L 754.344 725.049291 
L 755.5455 726.064103 
L 756.747 724.567836 
L 757.9485 724.444882 
L 759.15 724.520923 
L 760.3515 726.139743 
L 761.553 725.976425 
L 762.7545 725.460581 
L 763.956 726.555913 
L 765.1575 726.371546 
L 766.359 726.716409 
L 767.5605 728.265358 
L 768.762 728.246453 
L 769.9635 728.714044 
L 771.165 727.00615 
L 772.3665 727.652808 
L 773.568 727.870809 
L 774.7695 728.589284 
L 777.1725 727.467711 
L 779.5755 726.502778 
L 780.777 727.512415 
L 781.9785 727.43112 
L 783.18 725.721507 
L 784.3815 726.047049 
L 785.583 726.840532 
L 786.7845 725.842103 
L 787.986 726.908116 
L 789.1875 726.3784 
L 790.389 727.276891 
L 791.5905 727.33352 
L 793.9935 728.18635 
L 795.195 728.329141 
L 796.3965 727.349424 
L 797.598 727.164941 
L 798.7995 728.237295 
L 800.001 729.050534 
L 801.2025 729.521416 
L 803.6055 727.758888 
L 804.807 727.37724 
L 806.0085 727.793899 
L 807.21 728.583246 
L 808.4115 728.499947 
L 809.613 728.554625 
L 810.8145 728.372262 
L 812.016 728.338707 
L 813.2175 728.476781 
L 814.419 727.761706 
L 815.6205 726.727352 
L 816.822 726.843407 
L 818.0235 726.451086 
L 819.225 726.332811 
L 820.4265 727.289117 
L 821.628 727.464334 
L 822.8295 728.548852 
L 824.031 729.358524 
L 825.2325 729.282782 
L 826.434 729.366697 
L 827.6355 725.210311 
L 828.837 725.726116 
L 830.0385 726.529766 
L 831.24 725.59372 
L 832.4415 724.937008 
L 833.643 724.749033 
L 834.8445 724.816474 
L 836.046 724.035069 
L 837.2475 724.850341 
L 838.449 726.078591 
L 839.6505 726.549168 
L 840.852 726.680833 
L 842.0535 726.377273 
L 843.255 727.053943 
L 845.658 727.200336 
L 846.8595 727.49881 
L 848.061 727.353336 
L 849.2625 727.366992 
L 850.464 726.391342 
L 851.6655 726.527875 
L 852.867 724.173934 
L 854.0685 724.552213 
L 856.4715 728.53633 
L 857.673 728.999914 
L 858.8745 728.990698 
L 860.076 728.003116 
L 861.2775 727.208242 
L 862.479 727.159234 
L 863.6805 727.333237 
L 864.882 727.860612 
L 866.0835 726.899172 
L 867.285 728.60602 
L 868.4865 727.806107 
L 869.688 726.473951 
L 870.8895 727.689665 
L 872.091 726.181411 
L 873.2925 726.128238 
L 874.494 726.863962 
L 876.897 727.892576 
L 878.0985 727.38348 
L 879.3 727.378403 
L 880.5015 726.827097 
L 882.9045 729.270658 
L 884.106 728.935574 
L 885.3075 729.215138 
L 886.509 729.654516 
L 887.7105 728.675538 
L 888.912 728.892213 
L 890.1135 728.074246 
L 891.315 727.799119 
L 892.5165 726.829243 
L 893.718 726.599329 
L 894.9195 726.228783 
L 896.121 726.227332 
L 897.3225 727.939023 
L 898.524 727.604511 
L 899.7255 728.006247 
L 900.927 729.766418 
L 903.33 727.838596 
L 904.5315 728.296624 
L 905.733 727.337262 
L 906.9345 726.014803 
L 910.539 729.085479 
L 911.7405 727.817818 
L 912.942 728.231584 
L 914.1435 728.441347 
L 915.345 728.19225 
L 916.5465 726.423263 
L 918.9495 726.609369 
L 922.554 725.270856 
L 923.7555 726.892945 
L 924.957 726.712007 
L 926.1585 726.991908 
L 927.36 727.974413 
L 928.5615 728.602689 
L 929.763 727.845602 
L 932.166 727.103097 
L 933.3675 727.3802 
L 934.569 726.409216 
L 935.7705 726.549837 
L 936.972 726.006393 
L 938.1735 726.228265 
L 939.375 726.2441 
L 940.5765 727.00102 
L 941.778 726.230316 
L 942.9795 727.556654 
L 944.181 726.905586 
L 945.3825 728.550205 
L 947.7855 727.592543 
L 948.987 726.069247 
L 951.39 727.586287 
L 952.5915 727.086464 
L 954.9945 727.07908 
L 957.3975 726.065469 
L 959.8005 726.889662 
L 962.2035 727.762958 
L 963.405 727.276203 
L 964.6065 727.594853 
L 965.808 726.640922 
L 967.0095 727.05574 
L 968.211 726.932675 
L 969.4125 727.480989 
L 970.614 726.468511 
L 971.8155 726.655312 
L 973.017 725.817756 
L 974.2185 725.994827 
L 975.42 725.672625 
L 976.6215 726.361898 
L 977.823 724.909534 
L 979.0245 725.054784 
L 980.226 725.979194 
L 981.4275 724.9359 
L 982.629 725.565699 
L 983.8305 725.978174 
L 985.032 724.936387 
L 986.2335 726.068401 
L 987.435 725.449109 
L 988.6365 725.124061 
L 989.838 726.142538 
L 991.0395 725.946416 
L 992.241 726.878316 
L 994.644 726.151782 
L 995.8455 725.993764 
L 998.2485 727.942135 
L 999.45 726.519936 
L 1000.6515 727.36758 
L 1001.853 726.935411 
L 1003.0545 727.948828 
L 1004.256 727.710015 
L 1005.4575 728.726716 
L 1006.659 727.910688 
L 1007.8605 727.745274 
L 1009.062 728.113656 
L 1010.2635 728.219085 
L 1011.465 727.662315 
L 1012.6665 726.876557 
L 1013.868 728.141512 
L 1015.0695 727.934211 
L 1016.271 728.010046 
L 1017.4725 726.853278 
L 1018.674 727.399522 
L 1019.8755 727.516046 
L 1021.077 728.068345 
L 1022.2785 729.555103 
L 1023.48 728.481102 
L 1024.6815 727.892273 
L 1025.883 728.98099 
L 1028.286 729.649899 
L 1029.4875 728.579128 
L 1030.689 728.247128 
L 1031.8905 728.697466 
L 1033.092 728.197663 
L 1034.2935 728.620527 
L 1035.495 726.938024 
L 1036.6965 725.8172 
L 1037.898 727.023244 
L 1039.0995 726.930014 
L 1040.301 727.478967 
L 1041.5025 728.666104 
L 1042.704 727.891352 
L 1043.9055 727.780744 
L 1045.107 728.118724 
L 1046.3085 727.681713 
L 1047.51 727.086905 
L 1048.7115 725.968485 
L 1049.913 726.726847 
L 1051.1145 726.128858 
L 1052.316 726.294026 
L 1053.5175 727.889567 
L 1054.719 728.756259 
L 1055.9205 728.564777 
L 1057.122 727.919508 
L 1058.3235 728.093082 
L 1059.525 727.441986 
L 1063.1295 727.098726 
L 1064.331 725.935064 
L 1065.5325 725.395915 
L 1066.734 723.839167 
L 1069.137 725.140716 
L 1070.3385 726.014079 
L 1071.54 726.363322 
L 1072.7415 725.538155 
L 1073.943 726.424308 
L 1075.1445 726.116245 
L 1076.346 726.059712 
L 1077.5475 727.117346 
L 1078.749 727.124019 
L 1079.9505 726.32298 
L 1081.152 727.596832 
L 1082.3535 727.466837 
L 1083.555 727.049364 
L 1084.7565 727.117698 
L 1085.958 727.631584 
L 1087.1595 726.694135 
L 1088.361 727.531535 
L 1089.5625 726.842842 
L 1090.764 726.782851 
L 1091.9655 726.096998 
L 1093.167 725.758242 
L 1094.3685 724.661699 
L 1095.57 725.606632 
L 1096.7715 726.698232 
L 1097.973 726.881555 
L 1099.1745 726.571339 
L 1100.376 727.258321 
L 1101.5775 727.616805 
L 1102.779 726.688339 
L 1103.9805 726.331723 
L 1105.182 727.288622 
L 1106.3835 727.769445 
L 1107.585 727.835633 
L 1108.7865 728.258393 
L 1109.988 728.115428 
L 1112.391 728.659365 
L 1113.5925 728.865481 
L 1114.794 727.658792 
L 1115.9955 728.417903 
L 1117.197 727.741529 
L 1118.3985 727.578087 
L 1119.6 726.943325 
L 1120.8015 727.704568 
L 1122.003 728.323996 
L 1123.2045 728.328678 
L 1124.406 727.649849 
L 1125.6075 728.120804 
L 1126.809 727.900575 
L 1128.0105 727.436646 
L 1129.212 727.911 
L 1131.615 727.726283 
L 1132.8165 727.136113 
L 1134.018 727.159252 
L 1135.2195 726.7099 
L 1136.421 726.826114 
L 1137.6225 727.637985 
L 1138.824 726.931914 
L 1140.0255 728.059197 
L 1141.227 727.735484 
L 1142.4285 728.224586 
L 1144.8315 727.692286 
L 1147.2345 726.532842 
L 1148.436 726.414795 
L 1149.6375 725.647971 
L 1152.0405 725.615044 
L 1153.242 725.766577 
L 1154.4435 726.309206 
L 1155.645 726.721578 
L 1156.8465 728.841505 
L 1158.048 727.463692 
L 1159.2495 727.509102 
L 1160.451 727.871132 
L 1161.6525 728.683717 
L 1162.854 724.72259 
L 1164.0555 725.794153 
L 1165.257 726.117371 
L 1166.4585 727.033765 
L 1167.66 726.974844 
L 1168.8615 726.238945 
L 1170.063 726.203389 
L 1171.2645 727.630337 
L 1172.466 727.439758 
L 1173.6675 727.953288 
L 1174.869 727.69235 
L 1176.0705 727.17877 
L 1177.272 726.868371 
L 1178.4735 725.781003 
L 1179.675 726.848064 
L 1180.8765 725.783618 
L 1182.078 726.093091 
L 1184.481 724.784984 
L 1185.6825 725.561984 
L 1186.884 726.116512 
L 1188.0855 725.270709 
L 1189.287 725.898811 
L 1190.4885 726.398671 
L 1191.69 725.599525 
L 1192.8915 725.289552 
L 1194.093 726.563624 
L 1195.2945 727.322361 
L 1196.496 727.637139 
L 1197.6975 728.460919 
L 1198.899 728.889348 
L 1200.1005 728.089371 
L 1201.302 728.082558 
L 1202.5035 727.058392 
L 1203.705 727.240219 
L 1204.9065 727.75507 
L 1206.108 727.731412 
L 1207.3095 727.386483 
L 1208.511 727.907169 
L 1209.7125 728.260741 
L 1210.914 724.53184 
L 1212.1155 724.736374 
L 1213.317 725.906051 
L 1214.5185 725.412841 
L 1215.72 725.894134 
L 1216.9215 725.122087 
L 1218.123 727.06425 
L 1219.3245 726.500152 
L 1220.526 726.740268 
L 1221.7275 727.509424 
L 1224.1305 726.908032 
L 1225.332 728.070245 
L 1226.5335 728.038284 
L 1227.735 729.539279 
L 1228.9365 727.612069 
L 1230.138 727.988571 
L 1231.3395 727.623729 
L 1232.541 725.853215 
L 1233.7425 725.958372 
L 1234.944 727.621493 
L 1236.1455 727.348565 
L 1237.347 725.957663 
L 1239.75 726.8171 
L 1240.9515 725.994817 
L 1242.153 727.069037 
L 1243.3545 726.943289 
L 1244.556 726.935774 
L 1245.7575 727.900321 
L 1246.959 727.643539 
L 1248.1605 726.545672 
L 1249.362 725.905802 
L 1250.5635 726.647599 
L 1251.765 727.705212 
L 1254.168 726.571383 
L 1255.3695 726.825069 
L 1256.571 726.368509 
L 1257.7725 726.827166 
L 1258.974 726.985864 
L 1260.1755 728.181459 
L 1261.377 727.73738 
L 1263.78 728.449941 
L 1264.9815 728.456708 
L 1266.183 728.991911 
L 1267.3845 729.102534 
L 1268.586 727.921556 
L 1269.7875 728.139816 
L 1272.1905 727.067165 
L 1273.392 727.452557 
L 1274.5935 726.267322 
L 1275.795 727.958612 
L 1276.9965 727.493164 
L 1278.198 728.336309 
L 1280.601 728.106547 
L 1281.8025 728.777215 
L 1283.004 727.931458 
L 1284.2055 728.780743 
L 1285.407 729.797357 
L 1286.6085 728.966592 
L 1287.81 728.717963 
L 1289.0115 728.79487 
L 1290.213 727.813056 
L 1291.4145 727.792867 
L 1292.616 725.768435 
L 1293.8175 727.311091 
L 1295.019 726.90643 
L 1296.2205 725.858466 
L 1297.422 726.204179 
L 1298.6235 727.196709 
L 1299.825 726.861471 
L 1301.0265 725.963941 
L 1302.228 725.752969 
L 1303.4295 726.87053 
L 1304.631 728.438435 
L 1305.8325 728.931144 
L 1307.034 727.957393 
L 1308.2355 727.909415 
L 1309.437 728.0174 
L 1310.6385 728.317881 
L 1311.84 728.253775 
L 1313.0415 728.810231 
L 1314.243 727.373997 
L 1315.4445 727.366885 
L 1316.646 728.359247 
L 1317.8475 727.381042 
L 1319.049 728.285272 
L 1320.2505 728.201933 
L 1321.452 727.976408 
L 1322.6535 726.281721 
L 1323.855 724.997333 
L 1325.0565 726.43985 
L 1326.258 725.951452 
L 1327.4595 727.4829 
L 1328.661 727.595428 
L 1329.8625 726.632238 
L 1331.064 727.086197 
L 1332.2655 726.893238 
L 1333.467 727.497793 
L 1334.6685 726.943328 
L 1335.87 728.006421 
L 1337.0715 728.284004 
L 1338.273 727.462384 
L 1340.676 726.943995 
L 1341.8775 727.063473 
L 1343.079 727.311556 
L 1344.2805 727.95237 
L 1345.482 727.202474 
L 1346.6835 727.418372 
L 1347.885 726.218975 
L 1349.0865 726.626651 
L 1350.288 726.029587 
L 1351.4895 726.786867 
L 1352.691 727.034764 
L 1353.8925 726.815236 
L 1355.094 726.396067 
L 1356.2955 727.501899 
L 1357.497 726.715232 
L 1358.6985 727.261792 
L 1358.6985 727.261792 
" style="fill:none;stroke:#008000;stroke-linecap:square;stroke-width:2.0;"/>
   </g>
   <g id="patch_3">
    <path d="M 158.4 51.3 
L 1359.9 51.3 
" style="fill:none;stroke:#000000;stroke-linecap:square;stroke-linejoin:miter;"/>
   </g>
   <g id="patch_4">
    <path d="M 1359.9 747 
L 1359.9 51.3 
" style="fill:none;stroke:#000000;stroke-linecap:square;stroke-linejoin:miter;"/>
   </g>
   <g id="patch_5">
    <path d="M 158.4 747 
L 1359.9 747 
" style="fill:none;stroke:#000000;stroke-linecap:square;stroke-linejoin:miter;"/>
   </g>
   <g id="patch_6">
    <path d="M 158.4 747 
L 158.4 51.3 
" style="fill:none;stroke:#000000;stroke-linecap:square;stroke-linejoin:miter;"/>
   </g>
   <g id="matplotlib.axis_1">
    <g id="xtick_1">
     <g id="line2d_3">
      <defs>
       <path d="M 0 0 
L 0 -4 
" id="m66953af794" style="stroke:#000000;stroke-width:0.5;"/>
      </defs>
      <g>
       <use style="stroke:#000000;stroke-width:0.5;" x="158.4" xlink:href="#m66953af794" y="747.0"/>
      </g>
     </g>
     <g id="line2d_4">
      <defs>
       <path d="M 0 0 
L 0 4 
" id="m5e1ae0c843" style="stroke:#000000;stroke-width:0.5;"/>
      </defs>
      <g>
       <use style="stroke:#000000;stroke-width:0.5;" x="158.4" xlink:href="#m5e1ae0c843" y="51.3"/>
      </g>
     </g>
     <g id="text_1">
      <!-- 0 -->
      <defs>
       <path d="M 31.78125 66.40625 
Q 24.171875 66.40625 20.328125 58.90625 
Q 16.5 51.421875 16.5 36.375 
Q 16.5 21.390625 20.328125 13.890625 
Q 24.171875 6.390625 31.78125 6.390625 
Q 39.453125 6.390625 43.28125 13.890625 
Q 47.125 21.390625 47.125 36.375 
Q 47.125 51.421875 43.28125 58.90625 
Q 39.453125 66.40625 31.78125 66.40625 
M 31.78125 74.21875 
Q 44.046875 74.21875 50.515625 64.515625 
Q 56.984375 54.828125 56.984375 36.375 
Q 56.984375 17.96875 50.515625 8.265625 
Q 44.046875 -1.421875 31.78125 -1.421875 
Q 19.53125 -1.421875 13.0625 8.265625 
Q 6.59375 17.96875 6.59375 36.375 
Q 6.59375 54.828125 13.0625 64.515625 
Q 19.53125 74.21875 31.78125 74.21875 
" id="BitstreamVeraSans-Roman-30"/>
      </defs>
      <g transform="translate(148.85625 773.7953125)scale(0.3 -0.3)">
       <use xlink:href="#BitstreamVeraSans-Roman-30"/>
      </g>
     </g>
    </g>
    <g id="xtick_2">
     <g id="line2d_5">
      <g>
       <use style="stroke:#000000;stroke-width:0.5;" x="398.7" xlink:href="#m66953af794" y="747.0"/>
      </g>
     </g>
     <g id="line2d_6">
      <g>
       <use style="stroke:#000000;stroke-width:0.5;" x="398.7" xlink:href="#m5e1ae0c843" y="51.3"/>
      </g>
     </g>
     <g id="text_2">
      <!-- 200 -->
      <defs>
       <path d="M 19.1875 8.296875 
L 53.609375 8.296875 
L 53.609375 0 
L 7.328125 0 
L 7.328125 8.296875 
Q 12.9375 14.109375 22.625 23.890625 
Q 32.328125 33.6875 34.8125 36.53125 
Q 39.546875 41.84375 41.421875 45.53125 
Q 43.3125 49.21875 43.3125 52.78125 
Q 43.3125 58.59375 39.234375 62.25 
Q 35.15625 65.921875 28.609375 65.921875 
Q 23.96875 65.921875 18.8125 64.3125 
Q 13.671875 62.703125 7.8125 59.421875 
L 7.8125 69.390625 
Q 13.765625 71.78125 18.9375 73 
Q 24.125 74.21875 28.421875 74.21875 
Q 39.75 74.21875 46.484375 68.546875 
Q 53.21875 62.890625 53.21875 53.421875 
Q 53.21875 48.921875 51.53125 44.890625 
Q 49.859375 40.875 45.40625 35.40625 
Q 44.1875 33.984375 37.640625 27.21875 
Q 31.109375 20.453125 19.1875 8.296875 
" id="BitstreamVeraSans-Roman-32"/>
      </defs>
      <g transform="translate(370.06875 773.7953125)scale(0.3 -0.3)">
       <use xlink:href="#BitstreamVeraSans-Roman-32"/>
       <use x="63.623046875" xlink:href="#BitstreamVeraSans-Roman-30"/>
       <use x="127.24609375" xlink:href="#BitstreamVeraSans-Roman-30"/>
      </g>
     </g>
    </g>
    <g id="xtick_3">
     <g id="line2d_7">
      <g>
       <use style="stroke:#000000;stroke-width:0.5;" x="639.0" xlink:href="#m66953af794" y="747.0"/>
      </g>
     </g>
     <g id="line2d_8">
      <g>
       <use style="stroke:#000000;stroke-width:0.5;" x="639.0" xlink:href="#m5e1ae0c843" y="51.3"/>
      </g>
     </g>
     <g id="text_3">
      <!-- 400 -->
      <defs>
       <path d="M 37.796875 64.3125 
L 12.890625 25.390625 
L 37.796875 25.390625 
z
M 35.203125 72.90625 
L 47.609375 72.90625 
L 47.609375 25.390625 
L 58.015625 25.390625 
L 58.015625 17.1875 
L 47.609375 17.1875 
L 47.609375 0 
L 37.796875 0 
L 37.796875 17.1875 
L 4.890625 17.1875 
L 4.890625 26.703125 
z
" id="BitstreamVeraSans-Roman-34"/>
      </defs>
      <g transform="translate(610.36875 773.7953125)scale(0.3 -0.3)">
       <use xlink:href="#BitstreamVeraSans-Roman-34"/>
       <use x="63.623046875" xlink:href="#BitstreamVeraSans-Roman-30"/>
       <use x="127.24609375" xlink:href="#BitstreamVeraSans-Roman-30"/>
      </g>
     </g>
    </g>
    <g id="xtick_4">
     <g id="line2d_9">
      <g>
       <use style="stroke:#000000;stroke-width:0.5;" x="879.3" xlink:href="#m66953af794" y="747.0"/>
      </g>
     </g>
     <g id="line2d_10">
      <g>
       <use style="stroke:#000000;stroke-width:0.5;" x="879.3" xlink:href="#m5e1ae0c843" y="51.3"/>
      </g>
     </g>
     <g id="text_4">
      <!-- 600 -->
      <defs>
       <path d="M 33.015625 40.375 
Q 26.375 40.375 22.484375 35.828125 
Q 18.609375 31.296875 18.609375 23.390625 
Q 18.609375 15.53125 22.484375 10.953125 
Q 26.375 6.390625 33.015625 6.390625 
Q 39.65625 6.390625 43.53125 10.953125 
Q 47.40625 15.53125 47.40625 23.390625 
Q 47.40625 31.296875 43.53125 35.828125 
Q 39.65625 40.375 33.015625 40.375 
M 52.59375 71.296875 
L 52.59375 62.3125 
Q 48.875 64.0625 45.09375 64.984375 
Q 41.3125 65.921875 37.59375 65.921875 
Q 27.828125 65.921875 22.671875 59.328125 
Q 17.53125 52.734375 16.796875 39.40625 
Q 19.671875 43.65625 24.015625 45.921875 
Q 28.375 48.1875 33.59375 48.1875 
Q 44.578125 48.1875 50.953125 41.515625 
Q 57.328125 34.859375 57.328125 23.390625 
Q 57.328125 12.15625 50.6875 5.359375 
Q 44.046875 -1.421875 33.015625 -1.421875 
Q 20.359375 -1.421875 13.671875 8.265625 
Q 6.984375 17.96875 6.984375 36.375 
Q 6.984375 53.65625 15.1875 63.9375 
Q 23.390625 74.21875 37.203125 74.21875 
Q 40.921875 74.21875 44.703125 73.484375 
Q 48.484375 72.75 52.59375 71.296875 
" id="BitstreamVeraSans-Roman-36"/>
      </defs>
      <g transform="translate(850.66875 773.7953125)scale(0.3 -0.3)">
       <use xlink:href="#BitstreamVeraSans-Roman-36"/>
       <use x="63.623046875" xlink:href="#BitstreamVeraSans-Roman-30"/>
       <use x="127.24609375" xlink:href="#BitstreamVeraSans-Roman-30"/>
      </g>
     </g>
    </g>
    <g id="xtick_5">
     <g id="line2d_11">
      <g>
       <use style="stroke:#000000;stroke-width:0.5;" x="1119.6" xlink:href="#m66953af794" y="747.0"/>
      </g>
     </g>
     <g id="line2d_12">
      <g>
       <use style="stroke:#000000;stroke-width:0.5;" x="1119.6" xlink:href="#m5e1ae0c843" y="51.3"/>
      </g>
     </g>
     <g id="text_5">
      <!-- 800 -->
      <defs>
       <path d="M 31.78125 34.625 
Q 24.75 34.625 20.71875 30.859375 
Q 16.703125 27.09375 16.703125 20.515625 
Q 16.703125 13.921875 20.71875 10.15625 
Q 24.75 6.390625 31.78125 6.390625 
Q 38.8125 6.390625 42.859375 10.171875 
Q 46.921875 13.96875 46.921875 20.515625 
Q 46.921875 27.09375 42.890625 30.859375 
Q 38.875 34.625 31.78125 34.625 
M 21.921875 38.8125 
Q 15.578125 40.375 12.03125 44.71875 
Q 8.5 49.078125 8.5 55.328125 
Q 8.5 64.0625 14.71875 69.140625 
Q 20.953125 74.21875 31.78125 74.21875 
Q 42.671875 74.21875 48.875 69.140625 
Q 55.078125 64.0625 55.078125 55.328125 
Q 55.078125 49.078125 51.53125 44.71875 
Q 48 40.375 41.703125 38.8125 
Q 48.828125 37.15625 52.796875 32.3125 
Q 56.78125 27.484375 56.78125 20.515625 
Q 56.78125 9.90625 50.3125 4.234375 
Q 43.84375 -1.421875 31.78125 -1.421875 
Q 19.734375 -1.421875 13.25 4.234375 
Q 6.78125 9.90625 6.78125 20.515625 
Q 6.78125 27.484375 10.78125 32.3125 
Q 14.796875 37.15625 21.921875 38.8125 
M 18.3125 54.390625 
Q 18.3125 48.734375 21.84375 45.5625 
Q 25.390625 42.390625 31.78125 42.390625 
Q 38.140625 42.390625 41.71875 45.5625 
Q 45.3125 48.734375 45.3125 54.390625 
Q 45.3125 60.0625 41.71875 63.234375 
Q 38.140625 66.40625 31.78125 66.40625 
Q 25.390625 66.40625 21.84375 63.234375 
Q 18.3125 60.0625 18.3125 54.390625 
" id="BitstreamVeraSans-Roman-38"/>
      </defs>
      <g transform="translate(1090.96875 773.7953125)scale(0.3 -0.3)">
       <use xlink:href="#BitstreamVeraSans-Roman-38"/>
       <use x="63.623046875" xlink:href="#BitstreamVeraSans-Roman-30"/>
       <use x="127.24609375" xlink:href="#BitstreamVeraSans-Roman-30"/>
      </g>
     </g>
    </g>
    <g id="xtick_6">
     <g id="line2d_13">
      <g>
       <use style="stroke:#000000;stroke-width:0.5;" x="1359.9" xlink:href="#m66953af794" y="747.0"/>
      </g>
     </g>
     <g id="line2d_14">
      <g>
       <use style="stroke:#000000;stroke-width:0.5;" x="1359.9" xlink:href="#m5e1ae0c843" y="51.3"/>
      </g>
     </g>
     <g id="text_6">
      <!-- 1000 -->
      <defs>
       <path d="M 12.40625 8.296875 
L 28.515625 8.296875 
L 28.515625 63.921875 
L 10.984375 60.40625 
L 10.984375 69.390625 
L 28.421875 72.90625 
L 38.28125 72.90625 
L 38.28125 8.296875 
L 54.390625 8.296875 
L 54.390625 0 
L 12.40625 0 
z
" id="BitstreamVeraSans-Roman-31"/>
      </defs>
      <g transform="translate(1321.725 773.7953125)scale(0.3 -0.3)">
       <use xlink:href="#BitstreamVeraSans-Roman-31"/>
       <use x="63.623046875" xlink:href="#BitstreamVeraSans-Roman-30"/>
       <use x="127.24609375" xlink:href="#BitstreamVeraSans-Roman-30"/>
       <use x="190.869140625" xlink:href="#BitstreamVeraSans-Roman-30"/>
      </g>
     </g>
    </g>
    <g id="text_7">
     <!-- iterations -->
     <defs>
      <path d="M 54.890625 33.015625 
L 54.890625 0 
L 45.90625 0 
L 45.90625 32.71875 
Q 45.90625 40.484375 42.875 44.328125 
Q 39.84375 48.1875 33.796875 48.1875 
Q 26.515625 48.1875 22.3125 43.546875 
Q 18.109375 38.921875 18.109375 30.90625 
L 18.109375 0 
L 9.078125 0 
L 9.078125 54.6875 
L 18.109375 54.6875 
L 18.109375 46.1875 
Q 21.34375 51.125 25.703125 53.5625 
Q 30.078125 56 35.796875 56 
Q 45.21875 56 50.046875 50.171875 
Q 54.890625 44.34375 54.890625 33.015625 
" id="BitstreamVeraSans-Roman-6e"/>
      <path d="M 34.28125 27.484375 
Q 23.390625 27.484375 19.1875 25 
Q 14.984375 22.515625 14.984375 16.5 
Q 14.984375 11.71875 18.140625 8.90625 
Q 21.296875 6.109375 26.703125 6.109375 
Q 34.1875 6.109375 38.703125 11.40625 
Q 43.21875 16.703125 43.21875 25.484375 
L 43.21875 27.484375 
z
M 52.203125 31.203125 
L 52.203125 0 
L 43.21875 0 
L 43.21875 8.296875 
Q 40.140625 3.328125 35.546875 0.953125 
Q 30.953125 -1.421875 24.3125 -1.421875 
Q 15.921875 -1.421875 10.953125 3.296875 
Q 6 8.015625 6 15.921875 
Q 6 25.140625 12.171875 29.828125 
Q 18.359375 34.515625 30.609375 34.515625 
L 43.21875 34.515625 
L 43.21875 35.40625 
Q 43.21875 41.609375 39.140625 45 
Q 35.0625 48.390625 27.6875 48.390625 
Q 23 48.390625 18.546875 47.265625 
Q 14.109375 46.140625 10.015625 43.890625 
L 10.015625 52.203125 
Q 14.9375 54.109375 19.578125 55.046875 
Q 24.21875 56 28.609375 56 
Q 40.484375 56 46.34375 49.84375 
Q 52.203125 43.703125 52.203125 31.203125 
" id="BitstreamVeraSans-Roman-61"/>
      <path d="M 30.609375 48.390625 
Q 23.390625 48.390625 19.1875 42.75 
Q 14.984375 37.109375 14.984375 27.296875 
Q 14.984375 17.484375 19.15625 11.84375 
Q 23.34375 6.203125 30.609375 6.203125 
Q 37.796875 6.203125 41.984375 11.859375 
Q 46.1875 17.53125 46.1875 27.296875 
Q 46.1875 37.015625 41.984375 42.703125 
Q 37.796875 48.390625 30.609375 48.390625 
M 30.609375 56 
Q 42.328125 56 49.015625 48.375 
Q 55.71875 40.765625 55.71875 27.296875 
Q 55.71875 13.875 49.015625 6.21875 
Q 42.328125 -1.421875 30.609375 -1.421875 
Q 18.84375 -1.421875 12.171875 6.21875 
Q 5.515625 13.875 5.515625 27.296875 
Q 5.515625 40.765625 12.171875 48.375 
Q 18.84375 56 30.609375 56 
" id="BitstreamVeraSans-Roman-6f"/>
      <path d="M 9.421875 54.6875 
L 18.40625 54.6875 
L 18.40625 0 
L 9.421875 0 
z
M 9.421875 75.984375 
L 18.40625 75.984375 
L 18.40625 64.59375 
L 9.421875 64.59375 
z
" id="BitstreamVeraSans-Roman-69"/>
      <path d="M 56.203125 29.59375 
L 56.203125 25.203125 
L 14.890625 25.203125 
Q 15.484375 15.921875 20.484375 11.0625 
Q 25.484375 6.203125 34.421875 6.203125 
Q 39.59375 6.203125 44.453125 7.46875 
Q 49.3125 8.734375 54.109375 11.28125 
L 54.109375 2.78125 
Q 49.265625 0.734375 44.1875 -0.34375 
Q 39.109375 -1.421875 33.890625 -1.421875 
Q 20.796875 -1.421875 13.15625 6.1875 
Q 5.515625 13.8125 5.515625 26.8125 
Q 5.515625 40.234375 12.765625 48.109375 
Q 20.015625 56 32.328125 56 
Q 43.359375 56 49.78125 48.890625 
Q 56.203125 41.796875 56.203125 29.59375 
M 47.21875 32.234375 
Q 47.125 39.59375 43.09375 43.984375 
Q 39.0625 48.390625 32.421875 48.390625 
Q 24.90625 48.390625 20.390625 44.140625 
Q 15.875 39.890625 15.1875 32.171875 
z
" id="BitstreamVeraSans-Roman-65"/>
      <path d="M 18.3125 70.21875 
L 18.3125 54.6875 
L 36.8125 54.6875 
L 36.8125 47.703125 
L 18.3125 47.703125 
L 18.3125 18.015625 
Q 18.3125 11.328125 20.140625 9.421875 
Q 21.96875 7.515625 27.59375 7.515625 
L 36.8125 7.515625 
L 36.8125 0 
L 27.59375 0 
Q 17.1875 0 13.234375 3.875 
Q 9.28125 7.765625 9.28125 18.015625 
L 9.28125 47.703125 
L 2.6875 47.703125 
L 2.6875 54.6875 
L 9.28125 54.6875 
L 9.28125 70.21875 
z
" id="BitstreamVeraSans-Roman-74"/>
      <path d="M 41.109375 46.296875 
Q 39.59375 47.171875 37.8125 47.578125 
Q 36.03125 48 33.890625 48 
Q 26.265625 48 22.1875 43.046875 
Q 18.109375 38.09375 18.109375 28.8125 
L 18.109375 0 
L 9.078125 0 
L 9.078125 54.6875 
L 18.109375 54.6875 
L 18.109375 46.1875 
Q 20.953125 51.171875 25.484375 53.578125 
Q 30.03125 56 36.53125 56 
Q 37.453125 56 38.578125 55.875 
Q 39.703125 55.765625 41.0625 55.515625 
z
" id="BitstreamVeraSans-Roman-72"/>
      <path d="M 44.28125 53.078125 
L 44.28125 44.578125 
Q 40.484375 46.53125 36.375 47.5 
Q 32.28125 48.484375 27.875 48.484375 
Q 21.1875 48.484375 17.84375 46.4375 
Q 14.5 44.390625 14.5 40.28125 
Q 14.5 37.15625 16.890625 35.375 
Q 19.28125 33.59375 26.515625 31.984375 
L 29.59375 31.296875 
Q 39.15625 29.25 43.1875 25.515625 
Q 47.21875 21.78125 47.21875 15.09375 
Q 47.21875 7.46875 41.1875 3.015625 
Q 35.15625 -1.421875 24.609375 -1.421875 
Q 20.21875 -1.421875 15.453125 -0.5625 
Q 10.6875 0.296875 5.421875 2 
L 5.421875 11.28125 
Q 10.40625 8.6875 15.234375 7.390625 
Q 20.0625 6.109375 24.8125 6.109375 
Q 31.15625 6.109375 34.5625 8.28125 
Q 37.984375 10.453125 37.984375 14.40625 
Q 37.984375 18.0625 35.515625 20.015625 
Q 33.0625 21.96875 24.703125 23.78125 
L 21.578125 24.515625 
Q 13.234375 26.265625 9.515625 29.90625 
Q 5.8125 33.546875 5.8125 39.890625 
Q 5.8125 47.609375 11.28125 51.796875 
Q 16.75 56 26.8125 56 
Q 31.78125 56 36.171875 55.265625 
Q 40.578125 54.546875 44.28125 53.078125 
" id="BitstreamVeraSans-Roman-73"/>
     </defs>
     <g transform="translate(687.96796875 807.8296875)scale(0.3 -0.3)">
      <use xlink:href="#BitstreamVeraSans-Roman-69"/>
      <use x="27.783203125" xlink:href="#BitstreamVeraSans-Roman-74"/>
      <use x="66.9921875" xlink:href="#BitstreamVeraSans-Roman-65"/>
      <use x="128.515625" xlink:href="#BitstreamVeraSans-Roman-72"/>
      <use x="169.62890625" xlink:href="#BitstreamVeraSans-Roman-61"/>
      <use x="230.908203125" xlink:href="#BitstreamVeraSans-Roman-74"/>
      <use x="270.1171875" xlink:href="#BitstreamVeraSans-Roman-69"/>
      <use x="297.900390625" xlink:href="#BitstreamVeraSans-Roman-6f"/>
      <use x="359.08203125" xlink:href="#BitstreamVeraSans-Roman-6e"/>
      <use x="422.4609375" xlink:href="#BitstreamVeraSans-Roman-73"/>
     </g>
    </g>
   </g>
   <g id="matplotlib.axis_2">
    <g id="ytick_1">
     <g id="line2d_15">
      <defs>
       <path d="M 0 0 
L 4 0 
" id="ma63fbc7afe" style="stroke:#000000;stroke-width:0.5;"/>
      </defs>
      <g>
       <use style="stroke:#000000;stroke-width:0.5;" x="158.4" xlink:href="#ma63fbc7afe" y="747.0"/>
      </g>
     </g>
     <g id="line2d_16">
      <defs>
       <path d="M 0 0 
L -4 0 
" id="mb3a326e11d" style="stroke:#000000;stroke-width:0.5;"/>
      </defs>
      <g>
       <use style="stroke:#000000;stroke-width:0.5;" x="1359.9" xlink:href="#mb3a326e11d" y="747.0"/>
      </g>
     </g>
     <g id="text_8">
      <!-- 60 -->
      <defs>
       <path d="M 10.59375 35.5 
L 73.1875 35.5 
L 73.1875 27.203125 
L 10.59375 27.203125 
z
" id="BitstreamVeraSans-Roman-2212"/>
      </defs>
      <g transform="translate(91.0859375 755.278125)scale(0.3 -0.3)">
       <use xlink:href="#BitstreamVeraSans-Roman-2212"/>
       <use x="83.7890625" xlink:href="#BitstreamVeraSans-Roman-36"/>
       <use x="147.412109375" xlink:href="#BitstreamVeraSans-Roman-30"/>
      </g>
     </g>
    </g>
    <g id="ytick_2">
     <g id="line2d_17">
      <g>
       <use style="stroke:#000000;stroke-width:0.5;" x="158.4" xlink:href="#ma63fbc7afe" y="660.0375"/>
      </g>
     </g>
     <g id="line2d_18">
      <g>
       <use style="stroke:#000000;stroke-width:0.5;" x="1359.9" xlink:href="#mb3a326e11d" y="660.0375"/>
      </g>
     </g>
     <g id="text_9">
      <!-- 50 -->
      <defs>
       <path d="M 10.796875 72.90625 
L 49.515625 72.90625 
L 49.515625 64.59375 
L 19.828125 64.59375 
L 19.828125 46.734375 
Q 21.96875 47.46875 24.109375 47.828125 
Q 26.265625 48.1875 28.421875 48.1875 
Q 40.625 48.1875 47.75 41.5 
Q 54.890625 34.8125 54.890625 23.390625 
Q 54.890625 11.625 47.5625 5.09375 
Q 40.234375 -1.421875 26.90625 -1.421875 
Q 22.3125 -1.421875 17.546875 -0.640625 
Q 12.796875 0.140625 7.71875 1.703125 
L 7.71875 11.625 
Q 12.109375 9.234375 16.796875 8.0625 
Q 21.484375 6.890625 26.703125 6.890625 
Q 35.15625 6.890625 40.078125 11.328125 
Q 45.015625 15.765625 45.015625 23.390625 
Q 45.015625 31 40.078125 35.4375 
Q 35.15625 39.890625 26.703125 39.890625 
Q 22.75 39.890625 18.8125 39.015625 
Q 14.890625 38.140625 10.796875 36.28125 
z
" id="BitstreamVeraSans-Roman-35"/>
      </defs>
      <g transform="translate(91.0859375 668.315625)scale(0.3 -0.3)">
       <use xlink:href="#BitstreamVeraSans-Roman-2212"/>
       <use x="83.7890625" xlink:href="#BitstreamVeraSans-Roman-35"/>
       <use x="147.412109375" xlink:href="#BitstreamVeraSans-Roman-30"/>
      </g>
     </g>
    </g>
    <g id="ytick_3">
     <g id="line2d_19">
      <g>
       <use style="stroke:#000000;stroke-width:0.5;" x="158.4" xlink:href="#ma63fbc7afe" y="573.075"/>
      </g>
     </g>
     <g id="line2d_20">
      <g>
       <use style="stroke:#000000;stroke-width:0.5;" x="1359.9" xlink:href="#mb3a326e11d" y="573.075"/>
      </g>
     </g>
     <g id="text_10">
      <!-- 40 -->
      <g transform="translate(91.0859375 581.353125)scale(0.3 -0.3)">
       <use xlink:href="#BitstreamVeraSans-Roman-2212"/>
       <use x="83.7890625" xlink:href="#BitstreamVeraSans-Roman-34"/>
       <use x="147.412109375" xlink:href="#BitstreamVeraSans-Roman-30"/>
      </g>
     </g>
    </g>
    <g id="ytick_4">
     <g id="line2d_21">
      <g>
       <use style="stroke:#000000;stroke-width:0.5;" x="158.4" xlink:href="#ma63fbc7afe" y="486.1125"/>
      </g>
     </g>
     <g id="line2d_22">
      <g>
       <use style="stroke:#000000;stroke-width:0.5;" x="1359.9" xlink:href="#mb3a326e11d" y="486.1125"/>
      </g>
     </g>
     <g id="text_11">
      <!-- 30 -->
      <defs>
       <path d="M 40.578125 39.3125 
Q 47.65625 37.796875 51.625 33 
Q 55.609375 28.21875 55.609375 21.1875 
Q 55.609375 10.40625 48.1875 4.484375 
Q 40.765625 -1.421875 27.09375 -1.421875 
Q 22.515625 -1.421875 17.65625 -0.515625 
Q 12.796875 0.390625 7.625 2.203125 
L 7.625 11.71875 
Q 11.71875 9.328125 16.59375 8.109375 
Q 21.484375 6.890625 26.8125 6.890625 
Q 36.078125 6.890625 40.9375 10.546875 
Q 45.796875 14.203125 45.796875 21.1875 
Q 45.796875 27.640625 41.28125 31.265625 
Q 36.765625 34.90625 28.71875 34.90625 
L 20.21875 34.90625 
L 20.21875 43.015625 
L 29.109375 43.015625 
Q 36.375 43.015625 40.234375 45.921875 
Q 44.09375 48.828125 44.09375 54.296875 
Q 44.09375 59.90625 40.109375 62.90625 
Q 36.140625 65.921875 28.71875 65.921875 
Q 24.65625 65.921875 20.015625 65.03125 
Q 15.375 64.15625 9.8125 62.3125 
L 9.8125 71.09375 
Q 15.4375 72.65625 20.34375 73.4375 
Q 25.25 74.21875 29.59375 74.21875 
Q 40.828125 74.21875 47.359375 69.109375 
Q 53.90625 64.015625 53.90625 55.328125 
Q 53.90625 49.265625 50.4375 45.09375 
Q 46.96875 40.921875 40.578125 39.3125 
" id="BitstreamVeraSans-Roman-33"/>
      </defs>
      <g transform="translate(91.0859375 494.390625)scale(0.3 -0.3)">
       <use xlink:href="#BitstreamVeraSans-Roman-2212"/>
       <use x="83.7890625" xlink:href="#BitstreamVeraSans-Roman-33"/>
       <use x="147.412109375" xlink:href="#BitstreamVeraSans-Roman-30"/>
      </g>
     </g>
    </g>
    <g id="ytick_5">
     <g id="line2d_23">
      <g>
       <use style="stroke:#000000;stroke-width:0.5;" x="158.4" xlink:href="#ma63fbc7afe" y="399.15"/>
      </g>
     </g>
     <g id="line2d_24">
      <g>
       <use style="stroke:#000000;stroke-width:0.5;" x="1359.9" xlink:href="#mb3a326e11d" y="399.15"/>
      </g>
     </g>
     <g id="text_12">
      <!-- 20 -->
      <g transform="translate(91.0859375 407.428125)scale(0.3 -0.3)">
       <use xlink:href="#BitstreamVeraSans-Roman-2212"/>
       <use x="83.7890625" xlink:href="#BitstreamVeraSans-Roman-32"/>
       <use x="147.412109375" xlink:href="#BitstreamVeraSans-Roman-30"/>
      </g>
     </g>
    </g>
    <g id="ytick_6">
     <g id="line2d_25">
      <g>
       <use style="stroke:#000000;stroke-width:0.5;" x="158.4" xlink:href="#ma63fbc7afe" y="312.1875"/>
      </g>
     </g>
     <g id="line2d_26">
      <g>
       <use style="stroke:#000000;stroke-width:0.5;" x="1359.9" xlink:href="#mb3a326e11d" y="312.1875"/>
      </g>
     </g>
     <g id="text_13">
      <!-- 10 -->
      <g transform="translate(91.0859375 320.465625)scale(0.3 -0.3)">
       <use xlink:href="#BitstreamVeraSans-Roman-2212"/>
       <use x="83.7890625" xlink:href="#BitstreamVeraSans-Roman-31"/>
       <use x="147.412109375" xlink:href="#BitstreamVeraSans-Roman-30"/>
      </g>
     </g>
    </g>
    <g id="ytick_7">
     <g id="line2d_27">
      <g>
       <use style="stroke:#000000;stroke-width:0.5;" x="158.4" xlink:href="#ma63fbc7afe" y="225.225"/>
      </g>
     </g>
     <g id="line2d_28">
      <g>
       <use style="stroke:#000000;stroke-width:0.5;" x="1359.9" xlink:href="#mb3a326e11d" y="225.225"/>
      </g>
     </g>
     <g id="text_14">
      <!-- 0 -->
      <g transform="translate(135.3125 233.503125)scale(0.3 -0.3)">
       <use xlink:href="#BitstreamVeraSans-Roman-30"/>
      </g>
     </g>
    </g>
    <g id="ytick_8">
     <g id="line2d_29">
      <g>
       <use style="stroke:#000000;stroke-width:0.5;" x="158.4" xlink:href="#ma63fbc7afe" y="138.2625"/>
      </g>
     </g>
     <g id="line2d_30">
      <g>
       <use style="stroke:#000000;stroke-width:0.5;" x="1359.9" xlink:href="#mb3a326e11d" y="138.2625"/>
      </g>
     </g>
     <g id="text_15">
      <!-- 10 -->
      <g transform="translate(116.225 146.540625)scale(0.3 -0.3)">
       <use xlink:href="#BitstreamVeraSans-Roman-31"/>
       <use x="63.623046875" xlink:href="#BitstreamVeraSans-Roman-30"/>
      </g>
     </g>
    </g>
    <g id="ytick_9">
     <g id="line2d_31">
      <g>
       <use style="stroke:#000000;stroke-width:0.5;" x="158.4" xlink:href="#ma63fbc7afe" y="51.3"/>
      </g>
     </g>
     <g id="line2d_32">
      <g>
       <use style="stroke:#000000;stroke-width:0.5;" x="1359.9" xlink:href="#mb3a326e11d" y="51.3"/>
      </g>
     </g>
     <g id="text_16">
      <!-- 20 -->
      <g transform="translate(116.225 59.578125)scale(0.3 -0.3)">
       <use xlink:href="#BitstreamVeraSans-Roman-32"/>
       <use x="63.623046875" xlink:href="#BitstreamVeraSans-Roman-30"/>
      </g>
     </g>
    </g>
    <g id="text_17">
     <!-- log(loss) -->
     <defs>
      <path d="M 8.015625 75.875 
L 15.828125 75.875 
Q 23.140625 64.359375 26.78125 53.3125 
Q 30.421875 42.28125 30.421875 31.390625 
Q 30.421875 20.453125 26.78125 9.375 
Q 23.140625 -1.703125 15.828125 -13.1875 
L 8.015625 -13.1875 
Q 14.5 -2 17.703125 9.0625 
Q 20.90625 20.125 20.90625 31.390625 
Q 20.90625 42.671875 17.703125 53.65625 
Q 14.5 64.65625 8.015625 75.875 
" id="BitstreamVeraSans-Roman-29"/>
      <path d="M 31 75.875 
Q 24.46875 64.65625 21.28125 53.65625 
Q 18.109375 42.671875 18.109375 31.390625 
Q 18.109375 20.125 21.3125 9.0625 
Q 24.515625 -2 31 -13.1875 
L 23.1875 -13.1875 
Q 15.875 -1.703125 12.234375 9.375 
Q 8.59375 20.453125 8.59375 31.390625 
Q 8.59375 42.28125 12.203125 53.3125 
Q 15.828125 64.359375 23.1875 75.875 
z
" id="BitstreamVeraSans-Roman-28"/>
      <path d="M 45.40625 27.984375 
Q 45.40625 37.75 41.375 43.109375 
Q 37.359375 48.484375 30.078125 48.484375 
Q 22.859375 48.484375 18.828125 43.109375 
Q 14.796875 37.75 14.796875 27.984375 
Q 14.796875 18.265625 18.828125 12.890625 
Q 22.859375 7.515625 30.078125 7.515625 
Q 37.359375 7.515625 41.375 12.890625 
Q 45.40625 18.265625 45.40625 27.984375 
M 54.390625 6.78125 
Q 54.390625 -7.171875 48.1875 -13.984375 
Q 42 -20.796875 29.203125 -20.796875 
Q 24.46875 -20.796875 20.265625 -20.09375 
Q 16.0625 -19.390625 12.109375 -17.921875 
L 12.109375 -9.1875 
Q 16.0625 -11.328125 19.921875 -12.34375 
Q 23.78125 -13.375 27.78125 -13.375 
Q 36.625 -13.375 41.015625 -8.765625 
Q 45.40625 -4.15625 45.40625 5.171875 
L 45.40625 9.625 
Q 42.625 4.78125 38.28125 2.390625 
Q 33.9375 0 27.875 0 
Q 17.828125 0 11.671875 7.65625 
Q 5.515625 15.328125 5.515625 27.984375 
Q 5.515625 40.671875 11.671875 48.328125 
Q 17.828125 56 27.875 56 
Q 33.9375 56 38.28125 53.609375 
Q 42.625 51.21875 45.40625 46.390625 
L 45.40625 54.6875 
L 54.390625 54.6875 
z
" id="BitstreamVeraSans-Roman-67"/>
      <path d="M 9.421875 75.984375 
L 18.40625 75.984375 
L 18.40625 0 
L 9.421875 0 
z
" id="BitstreamVeraSans-Roman-6c"/>
     </defs>
     <g transform="translate(79.846875 462.69609375)rotate(-90.0)scale(0.3 -0.3)">
      <use xlink:href="#BitstreamVeraSans-Roman-6c"/>
      <use x="27.783203125" xlink:href="#BitstreamVeraSans-Roman-6f"/>
      <use x="88.96484375" xlink:href="#BitstreamVeraSans-Roman-67"/>
      <use x="152.44140625" xlink:href="#BitstreamVeraSans-Roman-28"/>
      <use x="191.455078125" xlink:href="#BitstreamVeraSans-Roman-6c"/>
      <use x="219.23828125" xlink:href="#BitstreamVeraSans-Roman-6f"/>
      <use x="280.419921875" xlink:href="#BitstreamVeraSans-Roman-73"/>
      <use x="332.51953125" xlink:href="#BitstreamVeraSans-Roman-73"/>
      <use x="384.619140625" xlink:href="#BitstreamVeraSans-Roman-29"/>
     </g>
    </g>
   </g>
   <g id="legend_1">
    <g id="patch_7">
     <path d="M 867.726562 163.36875 
L 1344.9 163.36875 
L 1344.9 66.3 
L 867.726562 66.3 
z
" style="fill:#ffffff;stroke:#000000;stroke-linejoin:miter;"/>
    </g>
    <g id="line2d_33">
     <path d="M 888.726562 90.595312 
L 930.726562 90.595312 
" style="fill:none;stroke:#0000ff;stroke-linecap:square;stroke-width:2.0;"/>
    </g>
    <g id="line2d_34"/>
    <g id="text_18">
     <!-- random: step=0.009776 -->
     <defs>
      <path id="BitstreamVeraSans-Roman-20"/>
      <path d="M 8.203125 72.90625 
L 55.078125 72.90625 
L 55.078125 68.703125 
L 28.609375 0 
L 18.3125 0 
L 43.21875 64.59375 
L 8.203125 64.59375 
z
" id="BitstreamVeraSans-Roman-37"/>
      <path d="M 52 44.1875 
Q 55.375 50.25 60.0625 53.125 
Q 64.75 56 71.09375 56 
Q 79.640625 56 84.28125 50.015625 
Q 88.921875 44.046875 88.921875 33.015625 
L 88.921875 0 
L 79.890625 0 
L 79.890625 32.71875 
Q 79.890625 40.578125 77.09375 44.375 
Q 74.3125 48.1875 68.609375 48.1875 
Q 61.625 48.1875 57.5625 43.546875 
Q 53.515625 38.921875 53.515625 30.90625 
L 53.515625 0 
L 44.484375 0 
L 44.484375 32.71875 
Q 44.484375 40.625 41.703125 44.40625 
Q 38.921875 48.1875 33.109375 48.1875 
Q 26.21875 48.1875 22.15625 43.53125 
Q 18.109375 38.875 18.109375 30.90625 
L 18.109375 0 
L 9.078125 0 
L 9.078125 54.6875 
L 18.109375 54.6875 
L 18.109375 46.1875 
Q 21.1875 51.21875 25.484375 53.609375 
Q 29.78125 56 35.6875 56 
Q 41.65625 56 45.828125 52.96875 
Q 50 49.953125 52 44.1875 
" id="BitstreamVeraSans-Roman-6d"/>
      <path d="M 10.984375 1.515625 
L 10.984375 10.5 
Q 14.703125 8.734375 18.5 7.8125 
Q 22.3125 6.890625 25.984375 6.890625 
Q 35.75 6.890625 40.890625 13.453125 
Q 46.046875 20.015625 46.78125 33.40625 
Q 43.953125 29.203125 39.59375 26.953125 
Q 35.25 24.703125 29.984375 24.703125 
Q 19.046875 24.703125 12.671875 31.3125 
Q 6.296875 37.9375 6.296875 49.421875 
Q 6.296875 60.640625 12.9375 67.421875 
Q 19.578125 74.21875 30.609375 74.21875 
Q 43.265625 74.21875 49.921875 64.515625 
Q 56.59375 54.828125 56.59375 36.375 
Q 56.59375 19.140625 48.40625 8.859375 
Q 40.234375 -1.421875 26.421875 -1.421875 
Q 22.703125 -1.421875 18.890625 -0.6875 
Q 15.09375 0.046875 10.984375 1.515625 
M 30.609375 32.421875 
Q 37.25 32.421875 41.125 36.953125 
Q 45.015625 41.5 45.015625 49.421875 
Q 45.015625 57.28125 41.125 61.84375 
Q 37.25 66.40625 30.609375 66.40625 
Q 23.96875 66.40625 20.09375 61.84375 
Q 16.21875 57.28125 16.21875 49.421875 
Q 16.21875 41.5 20.09375 36.953125 
Q 23.96875 32.421875 30.609375 32.421875 
" id="BitstreamVeraSans-Roman-39"/>
      <path d="M 11.71875 12.40625 
L 22.015625 12.40625 
L 22.015625 0 
L 11.71875 0 
z
M 11.71875 51.703125 
L 22.015625 51.703125 
L 22.015625 39.3125 
L 11.71875 39.3125 
z
" id="BitstreamVeraSans-Roman-3a"/>
      <path d="M 10.6875 12.40625 
L 21 12.40625 
L 21 0 
L 10.6875 0 
z
" id="BitstreamVeraSans-Roman-2e"/>
      <path d="M 10.59375 45.40625 
L 73.1875 45.40625 
L 73.1875 37.203125 
L 10.59375 37.203125 
z
M 10.59375 25.484375 
L 73.1875 25.484375 
L 73.1875 17.1875 
L 10.59375 17.1875 
z
" id="BitstreamVeraSans-Roman-3d"/>
      <path d="M 45.40625 46.390625 
L 45.40625 75.984375 
L 54.390625 75.984375 
L 54.390625 0 
L 45.40625 0 
L 45.40625 8.203125 
Q 42.578125 3.328125 38.25 0.953125 
Q 33.9375 -1.421875 27.875 -1.421875 
Q 17.96875 -1.421875 11.734375 6.484375 
Q 5.515625 14.40625 5.515625 27.296875 
Q 5.515625 40.1875 11.734375 48.09375 
Q 17.96875 56 27.875 56 
Q 33.9375 56 38.25 53.625 
Q 42.578125 51.265625 45.40625 46.390625 
M 14.796875 27.296875 
Q 14.796875 17.390625 18.875 11.75 
Q 22.953125 6.109375 30.078125 6.109375 
Q 37.203125 6.109375 41.296875 11.75 
Q 45.40625 17.390625 45.40625 27.296875 
Q 45.40625 37.203125 41.296875 42.84375 
Q 37.203125 48.484375 30.078125 48.484375 
Q 22.953125 48.484375 18.875 42.84375 
Q 14.796875 37.203125 14.796875 27.296875 
" id="BitstreamVeraSans-Roman-64"/>
      <path d="M 18.109375 8.203125 
L 18.109375 -20.796875 
L 9.078125 -20.796875 
L 9.078125 54.6875 
L 18.109375 54.6875 
L 18.109375 46.390625 
Q 20.953125 51.265625 25.265625 53.625 
Q 29.59375 56 35.59375 56 
Q 45.5625 56 51.78125 48.09375 
Q 58.015625 40.1875 58.015625 27.296875 
Q 58.015625 14.40625 51.78125 6.484375 
Q 45.5625 -1.421875 35.59375 -1.421875 
Q 29.59375 -1.421875 25.265625 0.953125 
Q 20.953125 3.328125 18.109375 8.203125 
M 48.6875 27.296875 
Q 48.6875 37.203125 44.609375 42.84375 
Q 40.53125 48.484375 33.40625 48.484375 
Q 26.265625 48.484375 22.1875 42.84375 
Q 18.109375 37.203125 18.109375 27.296875 
Q 18.109375 17.390625 22.1875 11.75 
Q 26.265625 6.109375 33.40625 6.109375 
Q 40.53125 6.109375 44.609375 11.75 
Q 48.6875 17.390625 48.6875 27.296875 
" id="BitstreamVeraSans-Roman-70"/>
     </defs>
     <g transform="translate(963.7265625 101.0953125)scale(0.3 -0.3)">
      <use xlink:href="#BitstreamVeraSans-Roman-72"/>
      <use x="41.11328125" xlink:href="#BitstreamVeraSans-Roman-61"/>
      <use x="102.392578125" xlink:href="#BitstreamVeraSans-Roman-6e"/>
      <use x="165.771484375" xlink:href="#BitstreamVeraSans-Roman-64"/>
      <use x="229.248046875" xlink:href="#BitstreamVeraSans-Roman-6f"/>
      <use x="290.4296875" xlink:href="#BitstreamVeraSans-Roman-6d"/>
      <use x="387.841796875" xlink:href="#BitstreamVeraSans-Roman-3a"/>
      <use x="421.533203125" xlink:href="#BitstreamVeraSans-Roman-20"/>
      <use x="453.3203125" xlink:href="#BitstreamVeraSans-Roman-73"/>
      <use x="505.419921875" xlink:href="#BitstreamVeraSans-Roman-74"/>
      <use x="544.62890625" xlink:href="#BitstreamVeraSans-Roman-65"/>
      <use x="606.15234375" xlink:href="#BitstreamVeraSans-Roman-70"/>
      <use x="669.62890625" xlink:href="#BitstreamVeraSans-Roman-3d"/>
      <use x="753.41796875" xlink:href="#BitstreamVeraSans-Roman-30"/>
      <use x="817.041015625" xlink:href="#BitstreamVeraSans-Roman-2e"/>
      <use x="848.828125" xlink:href="#BitstreamVeraSans-Roman-30"/>
      <use x="912.451171875" xlink:href="#BitstreamVeraSans-Roman-30"/>
      <use x="976.07421875" xlink:href="#BitstreamVeraSans-Roman-39"/>
      <use x="1039.69726562" xlink:href="#BitstreamVeraSans-Roman-37"/>
      <use x="1103.3203125" xlink:href="#BitstreamVeraSans-Roman-37"/>
      <use x="1166.94335938" xlink:href="#BitstreamVeraSans-Roman-36"/>
     </g>
    </g>
    <g id="line2d_35">
     <path d="M 888.726562 134.629687 
L 930.726562 134.629687 
" style="fill:none;stroke:#008000;stroke-linecap:square;stroke-width:2.0;"/>
    </g>
    <g id="line2d_36"/>
    <g id="text_19">
     <!-- corr: step=0.009776 -->
     <defs>
      <path d="M 48.78125 52.59375 
L 48.78125 44.1875 
Q 44.96875 46.296875 41.140625 47.34375 
Q 37.3125 48.390625 33.40625 48.390625 
Q 24.65625 48.390625 19.8125 42.84375 
Q 14.984375 37.3125 14.984375 27.296875 
Q 14.984375 17.28125 19.8125 11.734375 
Q 24.65625 6.203125 33.40625 6.203125 
Q 37.3125 6.203125 41.140625 7.25 
Q 44.96875 8.296875 48.78125 10.40625 
L 48.78125 2.09375 
Q 45.015625 0.34375 40.984375 -0.53125 
Q 36.96875 -1.421875 32.421875 -1.421875 
Q 20.0625 -1.421875 12.78125 6.34375 
Q 5.515625 14.109375 5.515625 27.296875 
Q 5.515625 40.671875 12.859375 48.328125 
Q 20.21875 56 33.015625 56 
Q 37.15625 56 41.109375 55.140625 
Q 45.0625 54.296875 48.78125 52.59375 
" id="BitstreamVeraSans-Roman-63"/>
     </defs>
     <g transform="translate(963.7265625 145.1296875)scale(0.3 -0.3)">
      <use xlink:href="#BitstreamVeraSans-Roman-63"/>
      <use x="54.98046875" xlink:href="#BitstreamVeraSans-Roman-6f"/>
      <use x="116.162109375" xlink:href="#BitstreamVeraSans-Roman-72"/>
      <use x="157.259765625" xlink:href="#BitstreamVeraSans-Roman-72"/>
      <use x="198.357421875" xlink:href="#BitstreamVeraSans-Roman-3a"/>
      <use x="232.048828125" xlink:href="#BitstreamVeraSans-Roman-20"/>
      <use x="263.8359375" xlink:href="#BitstreamVeraSans-Roman-73"/>
      <use x="315.935546875" xlink:href="#BitstreamVeraSans-Roman-74"/>
      <use x="355.14453125" xlink:href="#BitstreamVeraSans-Roman-65"/>
      <use x="416.66796875" xlink:href="#BitstreamVeraSans-Roman-70"/>
      <use x="480.14453125" xlink:href="#BitstreamVeraSans-Roman-3d"/>
      <use x="563.93359375" xlink:href="#BitstreamVeraSans-Roman-30"/>
      <use x="627.556640625" xlink:href="#BitstreamVeraSans-Roman-2e"/>
      <use x="659.34375" xlink:href="#BitstreamVeraSans-Roman-30"/>
      <use x="722.966796875" xlink:href="#BitstreamVeraSans-Roman-30"/>
      <use x="786.58984375" xlink:href="#BitstreamVeraSans-Roman-39"/>
      <use x="850.212890625" xlink:href="#BitstreamVeraSans-Roman-37"/>
      <use x="913.8359375" xlink:href="#BitstreamVeraSans-Roman-37"/>
      <use x="977.458984375" xlink:href="#BitstreamVeraSans-Roman-36"/>
     </g>
    </g>
   </g>
  </g>
 </g>
 <defs>
  <clipPath id="pc4818ffc14">
   <rect height="695.7" width="1201.5" x="158.4" y="51.3"/>
  </clipPath>
 </defs>
</svg>
