<?xml version="1.0" encoding="utf-8" standalone="no"?>
<!DOCTYPE svg PUBLIC "-//W3C//DTD SVG 1.1//EN"
  "http://www.w3.org/Graphics/SVG/1.1/DTD/svg11.dtd">
<!-- Created with matplotlib (http://matplotlib.org/) -->
<svg height="864pt" version="1.1" viewBox="0 0 1440 864" width="1440pt" xmlns="http://www.w3.org/2000/svg" xmlns:xlink="http://www.w3.org/1999/xlink">
 <defs>
  <style type="text/css">
*{stroke-linecap:butt;stroke-linejoin:round;stroke-miterlimit:100000;}
  </style>
 </defs>
 <g id="figure_1">
  <g id="patch_1">
   <path d="M 0 864 
L 1440 864 
L 1440 0 
L 0 0 
z
" style="fill:#ffffff;"/>
  </g>
  <g id="axes_1">
   <g id="patch_2">
    <path d="M 158.4 747 
L 1371.825 747 
L 1371.825 51.3 
L 158.4 51.3 
z
" style="fill:#ffffff;"/>
   </g>
   <g id="line2d_1">
    <path clip-path="url(#p8eb57fb9bf)" d="M 158.4 118.083641 
L 165.68055 127.633795 
L 168.1074 130.038114 
L 172.9611 137.749637 
L 175.38795 140.36548 
L 177.8148 143.373241 
L 180.24165 145.549501 
L 182.6685 148.403806 
L 185.09535 152.337419 
L 187.5222 155.279536 
L 189.94905 159.01761 
L 192.3759 162.5345 
L 194.80275 165.528867 
L 197.2296 169.255128 
L 202.0833 175.124019 
L 204.51015 177.88754 
L 206.937 180.221853 
L 209.36385 183.54882 
L 211.7907 185.791746 
L 216.6444 193.032856 
L 219.07125 195.651991 
L 223.92495 202.704911 
L 226.3518 205.160472 
L 228.77865 208.483017 
L 231.2055 211.119321 
L 233.63235 213.25457 
L 236.0592 215.779929 
L 240.9129 221.212118 
L 243.33975 224.891456 
L 245.7666 227.894473 
L 248.19345 231.22198 
L 250.6203 233.182588 
L 253.04715 235.934803 
L 255.474 238.41332 
L 257.90085 242.490001 
L 260.3277 244.93563 
L 265.1814 250.826532 
L 267.60825 253.358245 
L 270.0351 256.118625 
L 274.8888 261.30119 
L 277.31565 265.701664 
L 279.7425 268.528034 
L 282.16935 271.086462 
L 284.5962 274.633471 
L 287.02305 276.616417 
L 289.4499 279.976749 
L 291.87675 282.715605 
L 294.3036 285.919108 
L 299.1573 293.315122 
L 301.58415 296.223284 
L 304.011 299.824977 
L 306.43785 302.578339 
L 313.7184 312.702776 
L 316.14525 315.463904 
L 318.5721 317.339793 
L 320.99895 320.445801 
L 323.4258 323.786753 
L 328.2795 331.268733 
L 330.70635 334.213448 
L 333.1332 338.124244 
L 335.56005 341.064673 
L 337.9869 343.740761 
L 340.41375 346.925913 
L 345.26745 352.792302 
L 347.6943 355.753819 
L 350.12115 358.531577 
L 354.97485 363.499369 
L 359.82855 369.096026 
L 362.2554 371.700419 
L 367.1091 378.333475 
L 369.53595 381.428244 
L 371.9628 384.320295 
L 374.38965 386.972239 
L 376.8165 389.329209 
L 379.24335 392.717962 
L 381.6702 396.865763 
L 384.09705 399.119821 
L 388.95075 406.324279 
L 391.3776 408.807662 
L 393.80445 411.602925 
L 398.65815 416.515184 
L 401.085 419.868882 
L 403.51185 423.890596 
L 405.9387 427.034016 
L 408.36555 429.824479 
L 415.6461 440.23346 
L 422.92665 448.021887 
L 425.3535 450.302366 
L 427.78035 453.639056 
L 430.2072 455.38562 
L 432.63405 457.457942 
L 437.48775 463.591351 
L 439.9146 466.149187 
L 442.34145 469.678054 
L 444.7683 472.92803 
L 447.19515 475.354846 
L 449.622 479.301522 
L 452.04885 482.622684 
L 454.4757 485.160076 
L 456.90255 489.69156 
L 459.3294 493.900887 
L 461.75625 497.682605 
L 464.1831 500.811319 
L 466.60995 503.207642 
L 469.0368 505.258345 
L 471.46365 509.163838 
L 473.8905 511.475824 
L 476.31735 515.782232 
L 478.7442 519.22796 
L 481.17105 523.168242 
L 486.02475 528.568516 
L 488.4516 531.064421 
L 490.87845 533.822751 
L 493.3053 536.07368 
L 495.73215 538.743568 
L 498.159 542.66986 
L 500.58585 545.413856 
L 505.43955 551.544442 
L 507.8664 554.774434 
L 510.29325 557.545092 
L 512.7201 561.045918 
L 515.14695 563.683635 
L 517.5738 566.729755 
L 520.00065 569.954802 
L 524.85435 575.957279 
L 527.2812 579.455341 
L 532.1349 585.658371 
L 536.9886 592.710628 
L 539.41545 594.983492 
L 544.26915 602.910434 
L 546.696 606.417324 
L 551.5497 612.553055 
L 553.97655 616.664017 
L 556.4034 618.450435 
L 558.83025 621.043709 
L 561.2571 626.117678 
L 566.1108 634.680438 
L 568.53765 636.619929 
L 570.9645 639.373434 
L 573.39135 643.383442 
L 575.8182 648.477421 
L 580.6719 654.852358 
L 583.09875 658.300134 
L 585.5256 661.324503 
L 587.95245 665.527458 
L 590.3793 668.551188 
L 597.65985 679.216347 
L 600.0867 682.5724 
L 602.51355 685.069627 
L 604.9404 688.714374 
L 607.36725 691.237291 
L 614.6478 700.623016 
L 617.07465 703.632196 
L 619.5015 706.135279 
L 621.92835 709.652635 
L 624.3552 712.155715 
L 626.78205 715.00063 
L 629.2089 717.610597 
L 631.63575 719.783636 
L 634.0626 721.203375 
L 638.9163 724.319537 
L 641.34315 725.428745 
L 643.77 726.815093 
L 646.19685 726.810904 
L 648.6237 727.107499 
L 651.05055 727.60706 
L 653.4774 727.971268 
L 655.90425 728.770195 
L 658.3311 730.309853 
L 660.75795 730.576955 
L 663.1848 729.235426 
L 665.61165 729.870835 
L 668.0385 729.428314 
L 670.46535 730.072112 
L 672.8922 729.66932 
L 675.31905 730.679075 
L 677.7459 729.616191 
L 680.17275 729.926166 
L 682.5996 729.964391 
L 685.02645 731.240794 
L 687.4533 730.625986 
L 689.88015 731.569375 
L 692.307 731.920647 
L 694.73385 731.244408 
L 699.58755 730.499182 
L 702.0144 730.74537 
L 704.44125 729.77239 
L 706.8681 729.912268 
L 709.29495 730.615359 
L 711.7218 730.055519 
L 714.14865 729.08532 
L 716.5755 729.085641 
L 719.00235 729.676332 
L 721.4292 729.636673 
L 723.85605 729.780965 
L 726.2829 728.789269 
L 728.70975 729.972416 
L 731.1366 730.382553 
L 733.56345 729.93294 
L 735.9903 729.659568 
L 738.41715 729.798344 
L 740.844 730.598602 
L 743.27085 730.277728 
L 745.6977 730.806842 
L 748.12455 730.728431 
L 750.5514 730.98639 
L 752.97825 731.026534 
L 755.4051 730.088453 
L 757.83195 730.334014 
L 760.2588 729.444969 
L 765.1125 729.374987 
L 767.53935 728.90835 
L 769.9662 728.198748 
L 772.39305 728.188357 
L 774.8199 729.028269 
L 777.24675 729.54526 
L 779.6736 729.665891 
L 782.10045 729.285306 
L 786.95415 730.315746 
L 789.381 728.793585 
L 791.80785 728.778188 
L 794.2347 730.041563 
L 796.66155 730.241227 
L 799.0884 729.796617 
L 801.51525 730.354394 
L 803.9421 730.75364 
L 806.36895 728.545831 
L 808.7958 729.524599 
L 816.07635 730.055102 
L 818.5032 731.401809 
L 820.93005 730.300893 
L 823.3569 729.995011 
L 825.78375 730.335137 
L 828.2106 730.296893 
L 830.63745 729.87271 
L 833.0643 730.051796 
L 835.49115 729.521615 
L 837.918 730.480999 
L 840.34485 730.96707 
L 842.7717 730.013906 
L 845.19855 729.741142 
L 847.6254 730.422633 
L 850.05225 730.953469 
L 852.4791 730.895477 
L 854.90595 730.689283 
L 857.3328 730.959012 
L 859.75965 730.400232 
L 862.1865 731.154354 
L 864.61335 731.041238 
L 867.0402 729.822679 
L 869.46705 729.277577 
L 871.8939 729.553659 
L 874.32075 730.013737 
L 879.17445 730.268191 
L 881.6013 729.648645 
L 884.02815 729.457068 
L 886.455 729.792135 
L 888.88185 730.502248 
L 891.3087 730.350137 
L 893.73555 730.041141 
L 896.1624 730.321766 
L 898.58925 730.007349 
L 901.0161 730.197885 
L 903.44295 730.625764 
L 905.8698 729.958399 
L 908.29665 728.758995 
L 913.15035 728.992462 
L 918.00405 730.379189 
L 922.85775 729.943073 
L 925.2846 729.946079 
L 927.71145 730.608371 
L 932.56515 730.626955 
L 934.992 731.604559 
L 937.41885 729.346475 
L 942.27255 728.963588 
L 944.6994 729.966766 
L 947.12625 729.742159 
L 949.5531 730.227422 
L 951.97995 731.033342 
L 954.4068 730.548481 
L 956.83365 730.827916 
L 959.2605 730.270819 
L 961.68735 730.607042 
L 964.1142 729.543216 
L 966.54105 728.670959 
L 968.9679 729.329649 
L 973.8216 729.772726 
L 976.24845 729.468592 
L 978.6753 729.371236 
L 981.10215 729.661301 
L 983.529 729.515549 
L 985.95585 728.678 
L 988.3827 728.850887 
L 990.80955 729.716572 
L 995.66325 729.751181 
L 998.0901 730.330709 
L 1000.51695 730.084377 
L 1002.9438 730.617557 
L 1005.37065 731.613596 
L 1007.7975 731.509699 
L 1010.22435 731.055174 
L 1012.6512 729.646228 
L 1015.07805 730.59792 
L 1017.5049 729.842677 
L 1019.93175 730.187376 
L 1022.3586 729.237361 
L 1024.78545 729.095658 
L 1027.2123 729.537568 
L 1029.63915 729.495911 
L 1032.066 729.212491 
L 1034.49285 729.568903 
L 1039.34655 729.098095 
L 1041.7734 729.342224 
L 1044.20025 730.819352 
L 1046.6271 730.072092 
L 1049.05395 731.200175 
L 1051.4808 729.864969 
L 1053.90765 730.117383 
L 1056.3345 730.589766 
L 1058.76135 729.871064 
L 1063.61505 730.311048 
L 1066.0419 729.920926 
L 1068.46875 729.711497 
L 1070.8956 730.375395 
L 1073.32245 730.07401 
L 1075.7493 730.432263 
L 1078.17615 730.355757 
L 1080.603 729.679179 
L 1083.02985 729.204674 
L 1085.4567 729.777296 
L 1087.88355 730.835098 
L 1090.3104 730.364886 
L 1097.59095 730.600207 
L 1100.0178 731.244426 
L 1102.44465 730.089132 
L 1104.8715 730.430138 
L 1107.29835 730.398956 
L 1109.7252 729.96399 
L 1112.15205 730.281017 
L 1117.00575 729.953141 
L 1119.4326 729.545375 
L 1121.85945 729.938424 
L 1124.2863 730.155714 
L 1131.56685 729.787317 
L 1133.9937 729.414395 
L 1136.42055 729.595503 
L 1138.8474 729.338647 
L 1141.27425 729.717152 
L 1143.7011 729.268512 
L 1146.12795 730.170858 
L 1148.5548 729.652988 
L 1153.4085 731.23979 
L 1155.83535 731.094574 
L 1158.2622 729.86096 
L 1163.1159 730.123196 
L 1165.54275 730.184582 
L 1167.9696 731.031076 
L 1170.39645 731.311638 
L 1172.8233 731.849085 
L 1175.25015 731.06554 
L 1177.677 730.848483 
L 1180.10385 730.779268 
L 1182.5307 729.973812 
L 1184.95755 729.487681 
L 1187.3844 729.637529 
L 1189.81125 730.279386 
L 1192.2381 730.412452 
L 1194.66495 731.113126 
L 1197.0918 731.340716 
L 1199.51865 731.218456 
L 1201.9455 731.735726 
L 1204.37235 731.793404 
L 1206.7992 731.992621 
L 1209.22605 731.576529 
L 1211.6529 730.552097 
L 1214.07975 730.142246 
L 1216.5066 729.921939 
L 1221.3603 730.607839 
L 1223.78715 730.105481 
L 1226.214 729.428795 
L 1228.64085 730.00971 
L 1231.0677 729.287332 
L 1233.49455 729.739043 
L 1235.9214 729.145322 
L 1238.34825 728.834986 
L 1240.7751 729.237572 
L 1243.20195 729.888202 
L 1245.6288 730.204351 
L 1248.05565 729.810618 
L 1250.4825 729.838058 
L 1252.90935 730.749673 
L 1255.3362 730.149731 
L 1257.76305 730.575004 
L 1260.1899 729.647278 
L 1265.0436 729.605846 
L 1267.47045 729.323277 
L 1269.8973 729.300182 
L 1272.32415 729.940144 
L 1274.751 730.210567 
L 1277.17785 730.275411 
L 1279.6047 729.878211 
L 1282.03155 730.662155 
L 1286.88525 729.904069 
L 1289.3121 731.05388 
L 1291.73895 729.9826 
L 1294.1658 730.122446 
L 1296.59265 730.706427 
L 1299.0195 731.163964 
L 1301.44635 730.781912 
L 1303.8732 730.674784 
L 1308.7269 731.746381 
L 1313.5806 731.901851 
L 1316.00745 731.226406 
L 1318.4343 730.055369 
L 1320.86115 730.826625 
L 1323.288 731.11828 
L 1328.1417 730.424093 
L 1330.56855 731.629283 
L 1332.9954 730.844954 
L 1335.42225 729.69528 
L 1337.8491 730.613764 
L 1340.27595 730.861989 
L 1342.7028 730.464047 
L 1345.12965 730.491305 
L 1347.5565 730.370946 
L 1349.98335 730.884169 
L 1352.4102 730.299543 
L 1354.83705 730.328594 
L 1357.2639 730.610205 
L 1359.69075 730.005771 
L 1364.54445 729.17138 
L 1366.9713 728.933798 
L 1369.39815 729.527211 
L 1369.39815 729.527211 
" style="fill:none;stroke:#0000ff;stroke-linecap:square;stroke-width:2.0;"/>
   </g>
   <g id="line2d_2">
    <path clip-path="url(#p8eb57fb9bf)" d="M 158.4 118.320579 
L 165.68055 126.889876 
L 172.9611 136.466158 
L 175.38795 139.132784 
L 177.8148 142.561849 
L 180.24165 145.639551 
L 185.09535 151.252684 
L 187.5222 155.023503 
L 189.94905 158.076314 
L 192.3759 160.547791 
L 194.80275 163.397878 
L 199.65645 169.980069 
L 202.0833 175.019252 
L 206.937 181.066073 
L 209.36385 184.765421 
L 211.7907 187.877873 
L 214.21755 191.570158 
L 216.6444 194.65128 
L 219.07125 198.173523 
L 223.92495 203.728057 
L 226.3518 207.581362 
L 228.77865 210.137736 
L 231.2055 212.942096 
L 236.0592 219.262682 
L 238.48605 222.338119 
L 240.9129 225.203781 
L 243.33975 229.146016 
L 245.7666 232.462739 
L 250.6203 237.744131 
L 253.04715 239.785927 
L 257.90085 246.242902 
L 260.3277 250.318135 
L 262.75455 253.735938 
L 267.60825 260.263845 
L 270.0351 262.937602 
L 272.46195 266.092779 
L 274.8888 268.793892 
L 277.31565 270.771591 
L 279.7425 273.256502 
L 282.16935 277.188184 
L 284.5962 280.030494 
L 291.87675 290.810386 
L 294.3036 293.529492 
L 296.73045 296.567921 
L 299.1573 299.318311 
L 301.58415 302.700756 
L 304.011 305.612803 
L 308.8647 312.170998 
L 311.29155 315.858845 
L 313.7184 318.571655 
L 316.14525 321.795018 
L 318.5721 325.524106 
L 325.85265 334.449263 
L 328.2795 338.493994 
L 330.70635 341.742563 
L 333.1332 344.3607 
L 335.56005 347.262539 
L 337.9869 350.698681 
L 340.41375 353.251838 
L 345.26745 360.293571 
L 347.6943 362.698857 
L 350.12115 364.263381 
L 352.548 366.401199 
L 354.97485 369.980215 
L 357.4017 373.161584 
L 359.82855 376.805147 
L 362.2554 379.828596 
L 367.1091 385.312429 
L 369.53595 388.688331 
L 374.38965 396.711807 
L 376.8165 398.831263 
L 379.24335 401.523595 
L 381.6702 404.779749 
L 384.09705 407.001182 
L 386.5239 409.852197 
L 388.95075 413.112446 
L 391.3776 416.895545 
L 393.80445 418.881437 
L 396.2313 421.885756 
L 398.65815 424.196573 
L 401.085 427.538302 
L 403.51185 429.934438 
L 405.9387 433.530536 
L 408.36555 436.807585 
L 413.21925 444.174403 
L 415.6461 447.385778 
L 425.3535 461.503052 
L 430.2072 466.417024 
L 435.0609 471.457096 
L 437.48775 474.637077 
L 439.9146 477.409065 
L 442.34145 480.603028 
L 444.7683 483.122593 
L 447.19515 485.195998 
L 449.622 487.978781 
L 452.04885 491.803437 
L 459.3294 501.797012 
L 466.60995 509.365578 
L 473.8905 517.631637 
L 476.31735 520.406925 
L 478.7442 523.757369 
L 481.17105 527.729592 
L 483.5979 530.255542 
L 486.02475 534.055113 
L 490.87845 540.094799 
L 493.3053 543.682688 
L 500.58585 552.332671 
L 503.0127 554.979737 
L 505.43955 559.144153 
L 510.29325 565.782258 
L 512.7201 569.305532 
L 515.14695 572.538957 
L 517.5738 574.698319 
L 520.00065 577.448613 
L 524.85435 585.559179 
L 527.2812 588.839397 
L 529.70805 591.834144 
L 532.1349 595.633862 
L 534.56175 598.512821 
L 536.9886 601.936061 
L 541.8423 608.316758 
L 544.26915 611.109192 
L 546.696 614.229147 
L 549.12285 616.523525 
L 551.5497 619.447051 
L 553.97655 622.92844 
L 556.4034 625.901576 
L 558.83025 629.441643 
L 561.2571 632.101806 
L 563.68395 635.245306 
L 566.1108 637.727918 
L 568.53765 640.947979 
L 573.39135 646.434894 
L 575.8182 649.735776 
L 578.24505 651.909958 
L 580.6719 654.562924 
L 583.09875 657.042105 
L 590.3793 666.850248 
L 592.80615 669.299549 
L 595.233 671.354518 
L 597.65985 675.073684 
L 600.0867 677.042385 
L 602.51355 680.479238 
L 607.36725 686.311731 
L 609.7941 689.698311 
L 612.22095 691.893027 
L 617.07465 696.749873 
L 619.5015 700.441848 
L 624.3552 706.500228 
L 626.78205 708.09252 
L 629.2089 710.753789 
L 631.63575 712.537536 
L 634.0626 716.143916 
L 636.48945 718.312055 
L 638.9163 720.05641 
L 641.34315 721.397748 
L 643.77 722.200824 
L 646.19685 723.535538 
L 648.6237 724.519732 
L 651.05055 726.648796 
L 653.4774 726.885077 
L 655.90425 727.457375 
L 658.3311 727.879197 
L 660.75795 728.111562 
L 663.1848 728.75131 
L 665.61165 728.027734 
L 668.0385 728.04752 
L 670.46535 728.29542 
L 672.8922 729.469891 
L 675.31905 730.011857 
L 677.7459 729.166511 
L 680.17275 730.367115 
L 682.5996 730.982039 
L 687.4533 730.548696 
L 689.88015 730.673505 
L 692.307 731.003053 
L 694.73385 730.665565 
L 697.1607 729.552793 
L 699.58755 729.732511 
L 702.0144 730.712111 
L 711.7218 731.134056 
L 714.14865 731.034045 
L 716.5755 730.025451 
L 719.00235 729.59571 
L 721.4292 730.736172 
L 723.85605 729.690491 
L 726.2829 729.916726 
L 728.70975 730.709894 
L 731.1366 731.155243 
L 733.56345 731.102348 
L 738.41715 729.67011 
L 740.844 729.857144 
L 743.27085 729.83235 
L 745.6977 729.404997 
L 750.5514 730.834392 
L 752.97825 730.175586 
L 757.83195 730.247139 
L 760.2588 730.489013 
L 762.68565 730.026005 
L 765.1125 730.989485 
L 767.53935 731.113193 
L 769.9662 730.779276 
L 772.39305 730.998708 
L 774.8199 730.536758 
L 777.24675 731.812364 
L 779.6736 731.515349 
L 784.5273 731.153084 
L 786.95415 730.637438 
L 789.381 730.359087 
L 791.80785 729.810342 
L 794.2347 730.076413 
L 796.66155 731.041743 
L 799.0884 731.414436 
L 801.51525 731.542723 
L 803.9421 730.644764 
L 806.36895 730.329877 
L 811.22265 731.905932 
L 813.6495 731.091039 
L 816.07635 730.573646 
L 818.5032 730.698479 
L 820.93005 731.122078 
L 823.3569 731.999969 
L 825.78375 730.635087 
L 828.2106 730.009309 
L 830.63745 729.26051 
L 833.0643 729.621499 
L 835.49115 729.584754 
L 837.918 730.038649 
L 840.34485 730.744772 
L 842.7717 729.769811 
L 845.19855 729.778185 
L 847.6254 729.932291 
L 850.05225 729.692604 
L 852.4791 730.479085 
L 854.90595 730.578157 
L 857.3328 731.376836 
L 859.75965 730.694794 
L 862.1865 731.491356 
L 864.61335 730.790837 
L 867.0402 731.491025 
L 869.46705 730.855378 
L 871.8939 730.635618 
L 874.32075 730.636771 
L 876.7476 731.519262 
L 879.17445 732.28241 
L 881.6013 732.295883 
L 886.455 730.983936 
L 888.88185 731.487307 
L 891.3087 731.359221 
L 893.73555 730.62815 
L 896.1624 730.911968 
L 898.58925 730.664896 
L 901.0161 731.010495 
L 903.44295 731.750846 
L 905.8698 732.252989 
L 908.29665 731.641746 
L 910.7235 731.710464 
L 913.15035 731.437012 
L 915.5772 731.596429 
L 918.00405 731.077717 
L 920.4309 730.099641 
L 922.85775 729.984842 
L 925.2846 730.013123 
L 927.71145 730.228346 
L 930.1383 730.12502 
L 932.56515 730.420254 
L 934.992 731.050586 
L 937.41885 731.197424 
L 939.8457 731.488042 
L 942.27255 731.326076 
L 944.6994 731.006431 
L 947.12625 729.837851 
L 949.5531 729.546106 
L 954.4068 730.169318 
L 956.83365 730.167323 
L 961.68735 729.861148 
L 964.1142 729.976119 
L 966.54105 730.904805 
L 968.9679 729.899599 
L 971.39475 730.237409 
L 976.24845 731.078951 
L 978.6753 731.239553 
L 981.10215 729.68508 
L 983.529 730.002522 
L 985.95585 730.503071 
L 988.3827 731.491575 
L 990.80955 730.983103 
L 995.66325 729.602679 
L 998.0901 729.305835 
L 1000.51695 729.67353 
L 1002.9438 729.906254 
L 1005.37065 729.256832 
L 1007.7975 729.078767 
L 1010.22435 729.615374 
L 1012.6512 730.368956 
L 1015.07805 729.912336 
L 1017.5049 730.746286 
L 1019.93175 730.394338 
L 1022.3586 731.00524 
L 1024.78545 730.335287 
L 1027.2123 730.585207 
L 1029.63915 730.401674 
L 1032.066 729.392538 
L 1034.49285 729.421887 
L 1036.9197 727.875234 
L 1039.34655 728.959654 
L 1044.20025 729.058382 
L 1046.6271 729.291977 
L 1049.05395 729.640258 
L 1051.4808 731.539465 
L 1053.90765 731.038564 
L 1056.3345 730.024898 
L 1058.76135 730.278804 
L 1061.1882 730.884642 
L 1063.61505 730.179675 
L 1070.8956 731.084621 
L 1073.32245 730.140805 
L 1075.7493 730.403086 
L 1078.17615 731.227742 
L 1080.603 730.785527 
L 1083.02985 730.700652 
L 1085.4567 731.481885 
L 1087.88355 730.030095 
L 1090.3104 731.027355 
L 1092.73725 730.742169 
L 1095.1641 729.956514 
L 1100.0178 731.664592 
L 1102.44465 730.568605 
L 1107.29835 729.95243 
L 1112.15205 730.301059 
L 1114.5789 729.972591 
L 1117.00575 729.756954 
L 1121.85945 730.741363 
L 1124.2863 730.470164 
L 1126.71315 730.548642 
L 1129.14 730.500292 
L 1131.56685 730.887278 
L 1133.9937 731.452228 
L 1136.42055 730.784219 
L 1141.27425 731.619773 
L 1143.7011 730.90906 
L 1146.12795 730.904897 
L 1148.5548 730.054642 
L 1150.98165 730.362137 
L 1153.4085 730.924005 
L 1155.83535 730.974057 
L 1158.2622 730.750276 
L 1160.68905 730.889849 
L 1165.54275 730.064544 
L 1170.39645 730.435053 
L 1172.8233 730.001928 
L 1175.25015 730.21204 
L 1177.677 729.122805 
L 1180.10385 729.693071 
L 1182.5307 731.196057 
L 1184.95755 730.823758 
L 1189.81125 729.32265 
L 1192.2381 729.915423 
L 1194.66495 730.012854 
L 1197.0918 729.594475 
L 1199.51865 730.16684 
L 1201.9455 729.658693 
L 1206.7992 729.056434 
L 1209.22605 729.792667 
L 1211.6529 730.313036 
L 1214.07975 730.698311 
L 1218.93345 730.619033 
L 1221.3603 730.329685 
L 1223.78715 729.733853 
L 1226.214 730.864022 
L 1228.64085 730.58693 
L 1231.0677 730.453782 
L 1233.49455 730.652359 
L 1235.9214 730.561508 
L 1238.34825 730.940156 
L 1240.7751 731.709165 
L 1243.20195 732.136572 
L 1245.6288 732.012117 
L 1248.05565 730.48991 
L 1250.4825 730.159761 
L 1255.3362 731.080086 
L 1257.76305 730.649307 
L 1260.1899 729.954917 
L 1262.61675 729.473472 
L 1265.0436 730.225796 
L 1267.47045 729.332368 
L 1269.8973 730.176958 
L 1272.32415 730.489972 
L 1274.751 731.0604 
L 1277.17785 730.668494 
L 1279.6047 731.380172 
L 1282.03155 730.292153 
L 1284.4584 730.009022 
L 1286.88525 728.869759 
L 1289.3121 729.311922 
L 1291.73895 729.48321 
L 1296.59265 728.668822 
L 1299.0195 728.83002 
L 1301.44635 729.45685 
L 1303.8732 728.918537 
L 1306.30005 729.519241 
L 1308.7269 729.844333 
L 1311.15375 729.816429 
L 1313.5806 728.330283 
L 1316.00745 729.716792 
L 1318.4343 729.135458 
L 1320.86115 729.341814 
L 1323.288 728.774363 
L 1325.71485 728.541556 
L 1328.1417 729.036781 
L 1330.56855 729.17016 
L 1332.9954 730.24011 
L 1335.42225 730.196972 
L 1340.27595 731.253177 
L 1342.7028 730.426304 
L 1345.12965 730.62624 
L 1347.5565 729.532168 
L 1349.98335 730.483771 
L 1352.4102 730.756937 
L 1354.83705 730.431973 
L 1357.2639 730.957736 
L 1359.69075 730.140911 
L 1362.1176 731.211435 
L 1366.9713 730.987428 
L 1369.39815 729.855519 
L 1369.39815 729.855519 
" style="fill:none;stroke:#008000;stroke-linecap:square;stroke-width:2.0;"/>
   </g>
   <g id="patch_3">
    <path d="M 158.4 51.3 
L 1371.825 51.3 
" style="fill:none;stroke:#000000;stroke-linecap:square;stroke-linejoin:miter;"/>
   </g>
   <g id="patch_4">
    <path d="M 1371.825 747 
L 1371.825 51.3 
" style="fill:none;stroke:#000000;stroke-linecap:square;stroke-linejoin:miter;"/>
   </g>
   <g id="patch_5">
    <path d="M 158.4 747 
L 1371.825 747 
" style="fill:none;stroke:#000000;stroke-linecap:square;stroke-linejoin:miter;"/>
   </g>
   <g id="patch_6">
    <path d="M 158.4 747 
L 158.4 51.3 
" style="fill:none;stroke:#000000;stroke-linecap:square;stroke-linejoin:miter;"/>
   </g>
   <g id="matplotlib.axis_1">
    <g id="xtick_1">
     <g id="line2d_3">
      <defs>
       <path d="M 0 0 
L 0 -4 
" id="md7836dafed" style="stroke:#000000;stroke-width:0.5;"/>
      </defs>
      <g>
       <use style="stroke:#000000;stroke-width:0.5;" x="158.4" xlink:href="#md7836dafed" y="747.0"/>
      </g>
     </g>
     <g id="line2d_4">
      <defs>
       <path d="M 0 0 
L 0 4 
" id="md4f265df79" style="stroke:#000000;stroke-width:0.5;"/>
      </defs>
      <g>
       <use style="stroke:#000000;stroke-width:0.5;" x="158.4" xlink:href="#md4f265df79" y="51.3"/>
      </g>
     </g>
     <g id="text_1">
      <!-- 0 -->
      <defs>
       <path d="M 31.78125 66.40625 
Q 24.171875 66.40625 20.328125 58.90625 
Q 16.5 51.421875 16.5 36.375 
Q 16.5 21.390625 20.328125 13.890625 
Q 24.171875 6.390625 31.78125 6.390625 
Q 39.453125 6.390625 43.28125 13.890625 
Q 47.125 21.390625 47.125 36.375 
Q 47.125 51.421875 43.28125 58.90625 
Q 39.453125 66.40625 31.78125 66.40625 
M 31.78125 74.21875 
Q 44.046875 74.21875 50.515625 64.515625 
Q 56.984375 54.828125 56.984375 36.375 
Q 56.984375 17.96875 50.515625 8.265625 
Q 44.046875 -1.421875 31.78125 -1.421875 
Q 19.53125 -1.421875 13.0625 8.265625 
Q 6.59375 17.96875 6.59375 36.375 
Q 6.59375 54.828125 13.0625 64.515625 
Q 19.53125 74.21875 31.78125 74.21875 
" id="BitstreamVeraSans-Roman-30"/>
      </defs>
      <g transform="translate(148.85625 773.7953125)scale(0.3 -0.3)">
       <use xlink:href="#BitstreamVeraSans-Roman-30"/>
      </g>
     </g>
    </g>
    <g id="xtick_2">
     <g id="line2d_5">
      <g>
       <use style="stroke:#000000;stroke-width:0.5;" x="401.085" xlink:href="#md7836dafed" y="747.0"/>
      </g>
     </g>
     <g id="line2d_6">
      <g>
       <use style="stroke:#000000;stroke-width:0.5;" x="401.085" xlink:href="#md4f265df79" y="51.3"/>
      </g>
     </g>
     <g id="text_2">
      <!-- 100 -->
      <defs>
       <path d="M 12.40625 8.296875 
L 28.515625 8.296875 
L 28.515625 63.921875 
L 10.984375 60.40625 
L 10.984375 69.390625 
L 28.421875 72.90625 
L 38.28125 72.90625 
L 38.28125 8.296875 
L 54.390625 8.296875 
L 54.390625 0 
L 12.40625 0 
z
" id="BitstreamVeraSans-Roman-31"/>
      </defs>
      <g transform="translate(372.45375 773.7953125)scale(0.3 -0.3)">
       <use xlink:href="#BitstreamVeraSans-Roman-31"/>
       <use x="63.623046875" xlink:href="#BitstreamVeraSans-Roman-30"/>
       <use x="127.24609375" xlink:href="#BitstreamVeraSans-Roman-30"/>
      </g>
     </g>
    </g>
    <g id="xtick_3">
     <g id="line2d_7">
      <g>
       <use style="stroke:#000000;stroke-width:0.5;" x="643.77" xlink:href="#md7836dafed" y="747.0"/>
      </g>
     </g>
     <g id="line2d_8">
      <g>
       <use style="stroke:#000000;stroke-width:0.5;" x="643.77" xlink:href="#md4f265df79" y="51.3"/>
      </g>
     </g>
     <g id="text_3">
      <!-- 200 -->
      <defs>
       <path d="M 19.1875 8.296875 
L 53.609375 8.296875 
L 53.609375 0 
L 7.328125 0 
L 7.328125 8.296875 
Q 12.9375 14.109375 22.625 23.890625 
Q 32.328125 33.6875 34.8125 36.53125 
Q 39.546875 41.84375 41.421875 45.53125 
Q 43.3125 49.21875 43.3125 52.78125 
Q 43.3125 58.59375 39.234375 62.25 
Q 35.15625 65.921875 28.609375 65.921875 
Q 23.96875 65.921875 18.8125 64.3125 
Q 13.671875 62.703125 7.8125 59.421875 
L 7.8125 69.390625 
Q 13.765625 71.78125 18.9375 73 
Q 24.125 74.21875 28.421875 74.21875 
Q 39.75 74.21875 46.484375 68.546875 
Q 53.21875 62.890625 53.21875 53.421875 
Q 53.21875 48.921875 51.53125 44.890625 
Q 49.859375 40.875 45.40625 35.40625 
Q 44.1875 33.984375 37.640625 27.21875 
Q 31.109375 20.453125 19.1875 8.296875 
" id="BitstreamVeraSans-Roman-32"/>
      </defs>
      <g transform="translate(615.13875 773.7953125)scale(0.3 -0.3)">
       <use xlink:href="#BitstreamVeraSans-Roman-32"/>
       <use x="63.623046875" xlink:href="#BitstreamVeraSans-Roman-30"/>
       <use x="127.24609375" xlink:href="#BitstreamVeraSans-Roman-30"/>
      </g>
     </g>
    </g>
    <g id="xtick_4">
     <g id="line2d_9">
      <g>
       <use style="stroke:#000000;stroke-width:0.5;" x="886.455" xlink:href="#md7836dafed" y="747.0"/>
      </g>
     </g>
     <g id="line2d_10">
      <g>
       <use style="stroke:#000000;stroke-width:0.5;" x="886.455" xlink:href="#md4f265df79" y="51.3"/>
      </g>
     </g>
     <g id="text_4">
      <!-- 300 -->
      <defs>
       <path d="M 40.578125 39.3125 
Q 47.65625 37.796875 51.625 33 
Q 55.609375 28.21875 55.609375 21.1875 
Q 55.609375 10.40625 48.1875 4.484375 
Q 40.765625 -1.421875 27.09375 -1.421875 
Q 22.515625 -1.421875 17.65625 -0.515625 
Q 12.796875 0.390625 7.625 2.203125 
L 7.625 11.71875 
Q 11.71875 9.328125 16.59375 8.109375 
Q 21.484375 6.890625 26.8125 6.890625 
Q 36.078125 6.890625 40.9375 10.546875 
Q 45.796875 14.203125 45.796875 21.1875 
Q 45.796875 27.640625 41.28125 31.265625 
Q 36.765625 34.90625 28.71875 34.90625 
L 20.21875 34.90625 
L 20.21875 43.015625 
L 29.109375 43.015625 
Q 36.375 43.015625 40.234375 45.921875 
Q 44.09375 48.828125 44.09375 54.296875 
Q 44.09375 59.90625 40.109375 62.90625 
Q 36.140625 65.921875 28.71875 65.921875 
Q 24.65625 65.921875 20.015625 65.03125 
Q 15.375 64.15625 9.8125 62.3125 
L 9.8125 71.09375 
Q 15.4375 72.65625 20.34375 73.4375 
Q 25.25 74.21875 29.59375 74.21875 
Q 40.828125 74.21875 47.359375 69.109375 
Q 53.90625 64.015625 53.90625 55.328125 
Q 53.90625 49.265625 50.4375 45.09375 
Q 46.96875 40.921875 40.578125 39.3125 
" id="BitstreamVeraSans-Roman-33"/>
      </defs>
      <g transform="translate(857.82375 773.7953125)scale(0.3 -0.3)">
       <use xlink:href="#BitstreamVeraSans-Roman-33"/>
       <use x="63.623046875" xlink:href="#BitstreamVeraSans-Roman-30"/>
       <use x="127.24609375" xlink:href="#BitstreamVeraSans-Roman-30"/>
      </g>
     </g>
    </g>
    <g id="xtick_5">
     <g id="line2d_11">
      <g>
       <use style="stroke:#000000;stroke-width:0.5;" x="1129.14" xlink:href="#md7836dafed" y="747.0"/>
      </g>
     </g>
     <g id="line2d_12">
      <g>
       <use style="stroke:#000000;stroke-width:0.5;" x="1129.14" xlink:href="#md4f265df79" y="51.3"/>
      </g>
     </g>
     <g id="text_5">
      <!-- 400 -->
      <defs>
       <path d="M 37.796875 64.3125 
L 12.890625 25.390625 
L 37.796875 25.390625 
z
M 35.203125 72.90625 
L 47.609375 72.90625 
L 47.609375 25.390625 
L 58.015625 25.390625 
L 58.015625 17.1875 
L 47.609375 17.1875 
L 47.609375 0 
L 37.796875 0 
L 37.796875 17.1875 
L 4.890625 17.1875 
L 4.890625 26.703125 
z
" id="BitstreamVeraSans-Roman-34"/>
      </defs>
      <g transform="translate(1100.50875 773.7953125)scale(0.3 -0.3)">
       <use xlink:href="#BitstreamVeraSans-Roman-34"/>
       <use x="63.623046875" xlink:href="#BitstreamVeraSans-Roman-30"/>
       <use x="127.24609375" xlink:href="#BitstreamVeraSans-Roman-30"/>
      </g>
     </g>
    </g>
    <g id="xtick_6">
     <g id="line2d_13">
      <g>
       <use style="stroke:#000000;stroke-width:0.5;" x="1371.825" xlink:href="#md7836dafed" y="747.0"/>
      </g>
     </g>
     <g id="line2d_14">
      <g>
       <use style="stroke:#000000;stroke-width:0.5;" x="1371.825" xlink:href="#md4f265df79" y="51.3"/>
      </g>
     </g>
     <g id="text_6">
      <!-- 500 -->
      <defs>
       <path d="M 10.796875 72.90625 
L 49.515625 72.90625 
L 49.515625 64.59375 
L 19.828125 64.59375 
L 19.828125 46.734375 
Q 21.96875 47.46875 24.109375 47.828125 
Q 26.265625 48.1875 28.421875 48.1875 
Q 40.625 48.1875 47.75 41.5 
Q 54.890625 34.8125 54.890625 23.390625 
Q 54.890625 11.625 47.5625 5.09375 
Q 40.234375 -1.421875 26.90625 -1.421875 
Q 22.3125 -1.421875 17.546875 -0.640625 
Q 12.796875 0.140625 7.71875 1.703125 
L 7.71875 11.625 
Q 12.109375 9.234375 16.796875 8.0625 
Q 21.484375 6.890625 26.703125 6.890625 
Q 35.15625 6.890625 40.078125 11.328125 
Q 45.015625 15.765625 45.015625 23.390625 
Q 45.015625 31 40.078125 35.4375 
Q 35.15625 39.890625 26.703125 39.890625 
Q 22.75 39.890625 18.8125 39.015625 
Q 14.890625 38.140625 10.796875 36.28125 
z
" id="BitstreamVeraSans-Roman-35"/>
      </defs>
      <g transform="translate(1343.19375 773.7953125)scale(0.3 -0.3)">
       <use xlink:href="#BitstreamVeraSans-Roman-35"/>
       <use x="63.623046875" xlink:href="#BitstreamVeraSans-Roman-30"/>
       <use x="127.24609375" xlink:href="#BitstreamVeraSans-Roman-30"/>
      </g>
     </g>
    </g>
    <g id="text_7">
     <!-- iterations -->
     <defs>
      <path d="M 54.890625 33.015625 
L 54.890625 0 
L 45.90625 0 
L 45.90625 32.71875 
Q 45.90625 40.484375 42.875 44.328125 
Q 39.84375 48.1875 33.796875 48.1875 
Q 26.515625 48.1875 22.3125 43.546875 
Q 18.109375 38.921875 18.109375 30.90625 
L 18.109375 0 
L 9.078125 0 
L 9.078125 54.6875 
L 18.109375 54.6875 
L 18.109375 46.1875 
Q 21.34375 51.125 25.703125 53.5625 
Q 30.078125 56 35.796875 56 
Q 45.21875 56 50.046875 50.171875 
Q 54.890625 44.34375 54.890625 33.015625 
" id="BitstreamVeraSans-Roman-6e"/>
      <path d="M 34.28125 27.484375 
Q 23.390625 27.484375 19.1875 25 
Q 14.984375 22.515625 14.984375 16.5 
Q 14.984375 11.71875 18.140625 8.90625 
Q 21.296875 6.109375 26.703125 6.109375 
Q 34.1875 6.109375 38.703125 11.40625 
Q 43.21875 16.703125 43.21875 25.484375 
L 43.21875 27.484375 
z
M 52.203125 31.203125 
L 52.203125 0 
L 43.21875 0 
L 43.21875 8.296875 
Q 40.140625 3.328125 35.546875 0.953125 
Q 30.953125 -1.421875 24.3125 -1.421875 
Q 15.921875 -1.421875 10.953125 3.296875 
Q 6 8.015625 6 15.921875 
Q 6 25.140625 12.171875 29.828125 
Q 18.359375 34.515625 30.609375 34.515625 
L 43.21875 34.515625 
L 43.21875 35.40625 
Q 43.21875 41.609375 39.140625 45 
Q 35.0625 48.390625 27.6875 48.390625 
Q 23 48.390625 18.546875 47.265625 
Q 14.109375 46.140625 10.015625 43.890625 
L 10.015625 52.203125 
Q 14.9375 54.109375 19.578125 55.046875 
Q 24.21875 56 28.609375 56 
Q 40.484375 56 46.34375 49.84375 
Q 52.203125 43.703125 52.203125 31.203125 
" id="BitstreamVeraSans-Roman-61"/>
      <path d="M 30.609375 48.390625 
Q 23.390625 48.390625 19.1875 42.75 
Q 14.984375 37.109375 14.984375 27.296875 
Q 14.984375 17.484375 19.15625 11.84375 
Q 23.34375 6.203125 30.609375 6.203125 
Q 37.796875 6.203125 41.984375 11.859375 
Q 46.1875 17.53125 46.1875 27.296875 
Q 46.1875 37.015625 41.984375 42.703125 
Q 37.796875 48.390625 30.609375 48.390625 
M 30.609375 56 
Q 42.328125 56 49.015625 48.375 
Q 55.71875 40.765625 55.71875 27.296875 
Q 55.71875 13.875 49.015625 6.21875 
Q 42.328125 -1.421875 30.609375 -1.421875 
Q 18.84375 -1.421875 12.171875 6.21875 
Q 5.515625 13.875 5.515625 27.296875 
Q 5.515625 40.765625 12.171875 48.375 
Q 18.84375 56 30.609375 56 
" id="BitstreamVeraSans-Roman-6f"/>
      <path d="M 9.421875 54.6875 
L 18.40625 54.6875 
L 18.40625 0 
L 9.421875 0 
z
M 9.421875 75.984375 
L 18.40625 75.984375 
L 18.40625 64.59375 
L 9.421875 64.59375 
z
" id="BitstreamVeraSans-Roman-69"/>
      <path d="M 56.203125 29.59375 
L 56.203125 25.203125 
L 14.890625 25.203125 
Q 15.484375 15.921875 20.484375 11.0625 
Q 25.484375 6.203125 34.421875 6.203125 
Q 39.59375 6.203125 44.453125 7.46875 
Q 49.3125 8.734375 54.109375 11.28125 
L 54.109375 2.78125 
Q 49.265625 0.734375 44.1875 -0.34375 
Q 39.109375 -1.421875 33.890625 -1.421875 
Q 20.796875 -1.421875 13.15625 6.1875 
Q 5.515625 13.8125 5.515625 26.8125 
Q 5.515625 40.234375 12.765625 48.109375 
Q 20.015625 56 32.328125 56 
Q 43.359375 56 49.78125 48.890625 
Q 56.203125 41.796875 56.203125 29.59375 
M 47.21875 32.234375 
Q 47.125 39.59375 43.09375 43.984375 
Q 39.0625 48.390625 32.421875 48.390625 
Q 24.90625 48.390625 20.390625 44.140625 
Q 15.875 39.890625 15.1875 32.171875 
z
" id="BitstreamVeraSans-Roman-65"/>
      <path d="M 18.3125 70.21875 
L 18.3125 54.6875 
L 36.8125 54.6875 
L 36.8125 47.703125 
L 18.3125 47.703125 
L 18.3125 18.015625 
Q 18.3125 11.328125 20.140625 9.421875 
Q 21.96875 7.515625 27.59375 7.515625 
L 36.8125 7.515625 
L 36.8125 0 
L 27.59375 0 
Q 17.1875 0 13.234375 3.875 
Q 9.28125 7.765625 9.28125 18.015625 
L 9.28125 47.703125 
L 2.6875 47.703125 
L 2.6875 54.6875 
L 9.28125 54.6875 
L 9.28125 70.21875 
z
" id="BitstreamVeraSans-Roman-74"/>
      <path d="M 41.109375 46.296875 
Q 39.59375 47.171875 37.8125 47.578125 
Q 36.03125 48 33.890625 48 
Q 26.265625 48 22.1875 43.046875 
Q 18.109375 38.09375 18.109375 28.8125 
L 18.109375 0 
L 9.078125 0 
L 9.078125 54.6875 
L 18.109375 54.6875 
L 18.109375 46.1875 
Q 20.953125 51.171875 25.484375 53.578125 
Q 30.03125 56 36.53125 56 
Q 37.453125 56 38.578125 55.875 
Q 39.703125 55.765625 41.0625 55.515625 
z
" id="BitstreamVeraSans-Roman-72"/>
      <path d="M 44.28125 53.078125 
L 44.28125 44.578125 
Q 40.484375 46.53125 36.375 47.5 
Q 32.28125 48.484375 27.875 48.484375 
Q 21.1875 48.484375 17.84375 46.4375 
Q 14.5 44.390625 14.5 40.28125 
Q 14.5 37.15625 16.890625 35.375 
Q 19.28125 33.59375 26.515625 31.984375 
L 29.59375 31.296875 
Q 39.15625 29.25 43.1875 25.515625 
Q 47.21875 21.78125 47.21875 15.09375 
Q 47.21875 7.46875 41.1875 3.015625 
Q 35.15625 -1.421875 24.609375 -1.421875 
Q 20.21875 -1.421875 15.453125 -0.5625 
Q 10.6875 0.296875 5.421875 2 
L 5.421875 11.28125 
Q 10.40625 8.6875 15.234375 7.390625 
Q 20.0625 6.109375 24.8125 6.109375 
Q 31.15625 6.109375 34.5625 8.28125 
Q 37.984375 10.453125 37.984375 14.40625 
Q 37.984375 18.0625 35.515625 20.015625 
Q 33.0625 21.96875 24.703125 23.78125 
L 21.578125 24.515625 
Q 13.234375 26.265625 9.515625 29.90625 
Q 5.8125 33.546875 5.8125 39.890625 
Q 5.8125 47.609375 11.28125 51.796875 
Q 16.75 56 26.8125 56 
Q 31.78125 56 36.171875 55.265625 
Q 40.578125 54.546875 44.28125 53.078125 
" id="BitstreamVeraSans-Roman-73"/>
     </defs>
     <g transform="translate(693.93046875 807.8296875)scale(0.3 -0.3)">
      <use xlink:href="#BitstreamVeraSans-Roman-69"/>
      <use x="27.783203125" xlink:href="#BitstreamVeraSans-Roman-74"/>
      <use x="66.9921875" xlink:href="#BitstreamVeraSans-Roman-65"/>
      <use x="128.515625" xlink:href="#BitstreamVeraSans-Roman-72"/>
      <use x="169.62890625" xlink:href="#BitstreamVeraSans-Roman-61"/>
      <use x="230.908203125" xlink:href="#BitstreamVeraSans-Roman-74"/>
      <use x="270.1171875" xlink:href="#BitstreamVeraSans-Roman-69"/>
      <use x="297.900390625" xlink:href="#BitstreamVeraSans-Roman-6f"/>
      <use x="359.08203125" xlink:href="#BitstreamVeraSans-Roman-6e"/>
      <use x="422.4609375" xlink:href="#BitstreamVeraSans-Roman-73"/>
     </g>
    </g>
   </g>
   <g id="matplotlib.axis_2">
    <g id="ytick_1">
     <g id="line2d_15">
      <defs>
       <path d="M 0 0 
L 4 0 
" id="mb0600f74a5" style="stroke:#000000;stroke-width:0.5;"/>
      </defs>
      <g>
       <use style="stroke:#000000;stroke-width:0.5;" x="158.4" xlink:href="#mb0600f74a5" y="747.0"/>
      </g>
     </g>
     <g id="line2d_16">
      <defs>
       <path d="M 0 0 
L -4 0 
" id="m2a42f30479" style="stroke:#000000;stroke-width:0.5;"/>
      </defs>
      <g>
       <use style="stroke:#000000;stroke-width:0.5;" x="1371.825" xlink:href="#m2a42f30479" y="747.0"/>
      </g>
     </g>
     <g id="text_8">
      <!-- −60 -->
      <defs>
       <path d="M 10.59375 35.5 
L 73.1875 35.5 
L 73.1875 27.203125 
L 10.59375 27.203125 
z
" id="BitstreamVeraSans-Roman-2212"/>
       <path d="M 33.015625 40.375 
Q 26.375 40.375 22.484375 35.828125 
Q 18.609375 31.296875 18.609375 23.390625 
Q 18.609375 15.53125 22.484375 10.953125 
Q 26.375 6.390625 33.015625 6.390625 
Q 39.65625 6.390625 43.53125 10.953125 
Q 47.40625 15.53125 47.40625 23.390625 
Q 47.40625 31.296875 43.53125 35.828125 
Q 39.65625 40.375 33.015625 40.375 
M 52.59375 71.296875 
L 52.59375 62.3125 
Q 48.875 64.0625 45.09375 64.984375 
Q 41.3125 65.921875 37.59375 65.921875 
Q 27.828125 65.921875 22.671875 59.328125 
Q 17.53125 52.734375 16.796875 39.40625 
Q 19.671875 43.65625 24.015625 45.921875 
Q 28.375 48.1875 33.59375 48.1875 
Q 44.578125 48.1875 50.953125 41.515625 
Q 57.328125 34.859375 57.328125 23.390625 
Q 57.328125 12.15625 50.6875 5.359375 
Q 44.046875 -1.421875 33.015625 -1.421875 
Q 20.359375 -1.421875 13.671875 8.265625 
Q 6.984375 17.96875 6.984375 36.375 
Q 6.984375 53.65625 15.1875 63.9375 
Q 23.390625 74.21875 37.203125 74.21875 
Q 40.921875 74.21875 44.703125 73.484375 
Q 48.484375 72.75 52.59375 71.296875 
" id="BitstreamVeraSans-Roman-36"/>
      </defs>
      <g transform="translate(91.0859375 755.278125)scale(0.3 -0.3)">
       <use xlink:href="#BitstreamVeraSans-Roman-2212"/>
       <use x="83.7890625" xlink:href="#BitstreamVeraSans-Roman-36"/>
       <use x="147.412109375" xlink:href="#BitstreamVeraSans-Roman-30"/>
      </g>
     </g>
    </g>
    <g id="ytick_2">
     <g id="line2d_17">
      <g>
       <use style="stroke:#000000;stroke-width:0.5;" x="158.4" xlink:href="#mb0600f74a5" y="660.0375"/>
      </g>
     </g>
     <g id="line2d_18">
      <g>
       <use style="stroke:#000000;stroke-width:0.5;" x="1371.825" xlink:href="#m2a42f30479" y="660.0375"/>
      </g>
     </g>
     <g id="text_9">
      <!-- −50 -->
      <g transform="translate(91.0859375 668.315625)scale(0.3 -0.3)">
       <use xlink:href="#BitstreamVeraSans-Roman-2212"/>
       <use x="83.7890625" xlink:href="#BitstreamVeraSans-Roman-35"/>
       <use x="147.412109375" xlink:href="#BitstreamVeraSans-Roman-30"/>
      </g>
     </g>
    </g>
    <g id="ytick_3">
     <g id="line2d_19">
      <g>
       <use style="stroke:#000000;stroke-width:0.5;" x="158.4" xlink:href="#mb0600f74a5" y="573.075"/>
      </g>
     </g>
     <g id="line2d_20">
      <g>
       <use style="stroke:#000000;stroke-width:0.5;" x="1371.825" xlink:href="#m2a42f30479" y="573.075"/>
      </g>
     </g>
     <g id="text_10">
      <!-- −40 -->
      <g transform="translate(91.0859375 581.353125)scale(0.3 -0.3)">
       <use xlink:href="#BitstreamVeraSans-Roman-2212"/>
       <use x="83.7890625" xlink:href="#BitstreamVeraSans-Roman-34"/>
       <use x="147.412109375" xlink:href="#BitstreamVeraSans-Roman-30"/>
      </g>
     </g>
    </g>
    <g id="ytick_4">
     <g id="line2d_21">
      <g>
       <use style="stroke:#000000;stroke-width:0.5;" x="158.4" xlink:href="#mb0600f74a5" y="486.1125"/>
      </g>
     </g>
     <g id="line2d_22">
      <g>
       <use style="stroke:#000000;stroke-width:0.5;" x="1371.825" xlink:href="#m2a42f30479" y="486.1125"/>
      </g>
     </g>
     <g id="text_11">
      <!-- −30 -->
      <g transform="translate(91.0859375 494.390625)scale(0.3 -0.3)">
       <use xlink:href="#BitstreamVeraSans-Roman-2212"/>
       <use x="83.7890625" xlink:href="#BitstreamVeraSans-Roman-33"/>
       <use x="147.412109375" xlink:href="#BitstreamVeraSans-Roman-30"/>
      </g>
     </g>
    </g>
    <g id="ytick_5">
     <g id="line2d_23">
      <g>
       <use style="stroke:#000000;stroke-width:0.5;" x="158.4" xlink:href="#mb0600f74a5" y="399.15"/>
      </g>
     </g>
     <g id="line2d_24">
      <g>
       <use style="stroke:#000000;stroke-width:0.5;" x="1371.825" xlink:href="#m2a42f30479" y="399.15"/>
      </g>
     </g>
     <g id="text_12">
      <!-- −20 -->
      <g transform="translate(91.0859375 407.428125)scale(0.3 -0.3)">
       <use xlink:href="#BitstreamVeraSans-Roman-2212"/>
       <use x="83.7890625" xlink:href="#BitstreamVeraSans-Roman-32"/>
       <use x="147.412109375" xlink:href="#BitstreamVeraSans-Roman-30"/>
      </g>
     </g>
    </g>
    <g id="ytick_6">
     <g id="line2d_25">
      <g>
       <use style="stroke:#000000;stroke-width:0.5;" x="158.4" xlink:href="#mb0600f74a5" y="312.1875"/>
      </g>
     </g>
     <g id="line2d_26">
      <g>
       <use style="stroke:#000000;stroke-width:0.5;" x="1371.825" xlink:href="#m2a42f30479" y="312.1875"/>
      </g>
     </g>
     <g id="text_13">
      <!-- −10 -->
      <g transform="translate(91.0859375 320.465625)scale(0.3 -0.3)">
       <use xlink:href="#BitstreamVeraSans-Roman-2212"/>
       <use x="83.7890625" xlink:href="#BitstreamVeraSans-Roman-31"/>
       <use x="147.412109375" xlink:href="#BitstreamVeraSans-Roman-30"/>
      </g>
     </g>
    </g>
    <g id="ytick_7">
     <g id="line2d_27">
      <g>
       <use style="stroke:#000000;stroke-width:0.5;" x="158.4" xlink:href="#mb0600f74a5" y="225.225"/>
      </g>
     </g>
     <g id="line2d_28">
      <g>
       <use style="stroke:#000000;stroke-width:0.5;" x="1371.825" xlink:href="#m2a42f30479" y="225.225"/>
      </g>
     </g>
     <g id="text_14">
      <!-- 0 -->
      <g transform="translate(135.3125 233.503125)scale(0.3 -0.3)">
       <use xlink:href="#BitstreamVeraSans-Roman-30"/>
      </g>
     </g>
    </g>
    <g id="ytick_8">
     <g id="line2d_29">
      <g>
       <use style="stroke:#000000;stroke-width:0.5;" x="158.4" xlink:href="#mb0600f74a5" y="138.2625"/>
      </g>
     </g>
     <g id="line2d_30">
      <g>
       <use style="stroke:#000000;stroke-width:0.5;" x="1371.825" xlink:href="#m2a42f30479" y="138.2625"/>
      </g>
     </g>
     <g id="text_15">
      <!-- 10 -->
      <g transform="translate(116.225 146.540625)scale(0.3 -0.3)">
       <use xlink:href="#BitstreamVeraSans-Roman-31"/>
       <use x="63.623046875" xlink:href="#BitstreamVeraSans-Roman-30"/>
      </g>
     </g>
    </g>
    <g id="ytick_9">
     <g id="line2d_31">
      <g>
       <use style="stroke:#000000;stroke-width:0.5;" x="158.4" xlink:href="#mb0600f74a5" y="51.3"/>
      </g>
     </g>
     <g id="line2d_32">
      <g>
       <use style="stroke:#000000;stroke-width:0.5;" x="1371.825" xlink:href="#m2a42f30479" y="51.3"/>
      </g>
     </g>
     <g id="text_16">
      <!-- 20 -->
      <g transform="translate(116.225 59.578125)scale(0.3 -0.3)">
       <use xlink:href="#BitstreamVeraSans-Roman-32"/>
       <use x="63.623046875" xlink:href="#BitstreamVeraSans-Roman-30"/>
      </g>
     </g>
    </g>
    <g id="text_17">
     <!-- log(loss) -->
     <defs>
      <path d="M 8.015625 75.875 
L 15.828125 75.875 
Q 23.140625 64.359375 26.78125 53.3125 
Q 30.421875 42.28125 30.421875 31.390625 
Q 30.421875 20.453125 26.78125 9.375 
Q 23.140625 -1.703125 15.828125 -13.1875 
L 8.015625 -13.1875 
Q 14.5 -2 17.703125 9.0625 
Q 20.90625 20.125 20.90625 31.390625 
Q 20.90625 42.671875 17.703125 53.65625 
Q 14.5 64.65625 8.015625 75.875 
" id="BitstreamVeraSans-Roman-29"/>
      <path d="M 31 75.875 
Q 24.46875 64.65625 21.28125 53.65625 
Q 18.109375 42.671875 18.109375 31.390625 
Q 18.109375 20.125 21.3125 9.0625 
Q 24.515625 -2 31 -13.1875 
L 23.1875 -13.1875 
Q 15.875 -1.703125 12.234375 9.375 
Q 8.59375 20.453125 8.59375 31.390625 
Q 8.59375 42.28125 12.203125 53.3125 
Q 15.828125 64.359375 23.1875 75.875 
z
" id="BitstreamVeraSans-Roman-28"/>
      <path d="M 45.40625 27.984375 
Q 45.40625 37.75 41.375 43.109375 
Q 37.359375 48.484375 30.078125 48.484375 
Q 22.859375 48.484375 18.828125 43.109375 
Q 14.796875 37.75 14.796875 27.984375 
Q 14.796875 18.265625 18.828125 12.890625 
Q 22.859375 7.515625 30.078125 7.515625 
Q 37.359375 7.515625 41.375 12.890625 
Q 45.40625 18.265625 45.40625 27.984375 
M 54.390625 6.78125 
Q 54.390625 -7.171875 48.1875 -13.984375 
Q 42 -20.796875 29.203125 -20.796875 
Q 24.46875 -20.796875 20.265625 -20.09375 
Q 16.0625 -19.390625 12.109375 -17.921875 
L 12.109375 -9.1875 
Q 16.0625 -11.328125 19.921875 -12.34375 
Q 23.78125 -13.375 27.78125 -13.375 
Q 36.625 -13.375 41.015625 -8.765625 
Q 45.40625 -4.15625 45.40625 5.171875 
L 45.40625 9.625 
Q 42.625 4.78125 38.28125 2.390625 
Q 33.9375 0 27.875 0 
Q 17.828125 0 11.671875 7.65625 
Q 5.515625 15.328125 5.515625 27.984375 
Q 5.515625 40.671875 11.671875 48.328125 
Q 17.828125 56 27.875 56 
Q 33.9375 56 38.28125 53.609375 
Q 42.625 51.21875 45.40625 46.390625 
L 45.40625 54.6875 
L 54.390625 54.6875 
z
" id="BitstreamVeraSans-Roman-67"/>
      <path d="M 9.421875 75.984375 
L 18.40625 75.984375 
L 18.40625 0 
L 9.421875 0 
z
" id="BitstreamVeraSans-Roman-6c"/>
     </defs>
     <g transform="translate(79.846875 462.69609375)rotate(-90.0)scale(0.3 -0.3)">
      <use xlink:href="#BitstreamVeraSans-Roman-6c"/>
      <use x="27.783203125" xlink:href="#BitstreamVeraSans-Roman-6f"/>
      <use x="88.96484375" xlink:href="#BitstreamVeraSans-Roman-67"/>
      <use x="152.44140625" xlink:href="#BitstreamVeraSans-Roman-28"/>
      <use x="191.455078125" xlink:href="#BitstreamVeraSans-Roman-6c"/>
      <use x="219.23828125" xlink:href="#BitstreamVeraSans-Roman-6f"/>
      <use x="280.419921875" xlink:href="#BitstreamVeraSans-Roman-73"/>
      <use x="332.51953125" xlink:href="#BitstreamVeraSans-Roman-73"/>
      <use x="384.619140625" xlink:href="#BitstreamVeraSans-Roman-29"/>
     </g>
    </g>
   </g>
   <g id="legend_1">
    <g id="patch_7">
     <path d="M 879.651562 163.36875 
L 1356.825 163.36875 
L 1356.825 66.3 
L 879.651562 66.3 
z
" style="fill:#ffffff;stroke:#000000;stroke-linejoin:miter;"/>
    </g>
    <g id="line2d_33">
     <path d="M 900.651562 90.595312 
L 942.651562 90.595312 
" style="fill:none;stroke:#0000ff;stroke-linecap:square;stroke-width:2.0;"/>
    </g>
    <g id="line2d_34"/>
    <g id="text_18">
     <!-- random: step=0.009776 -->
     <defs>
      <path id="BitstreamVeraSans-Roman-20"/>
      <path d="M 8.203125 72.90625 
L 55.078125 72.90625 
L 55.078125 68.703125 
L 28.609375 0 
L 18.3125 0 
L 43.21875 64.59375 
L 8.203125 64.59375 
z
" id="BitstreamVeraSans-Roman-37"/>
      <path d="M 52 44.1875 
Q 55.375 50.25 60.0625 53.125 
Q 64.75 56 71.09375 56 
Q 79.640625 56 84.28125 50.015625 
Q 88.921875 44.046875 88.921875 33.015625 
L 88.921875 0 
L 79.890625 0 
L 79.890625 32.71875 
Q 79.890625 40.578125 77.09375 44.375 
Q 74.3125 48.1875 68.609375 48.1875 
Q 61.625 48.1875 57.5625 43.546875 
Q 53.515625 38.921875 53.515625 30.90625 
L 53.515625 0 
L 44.484375 0 
L 44.484375 32.71875 
Q 44.484375 40.625 41.703125 44.40625 
Q 38.921875 48.1875 33.109375 48.1875 
Q 26.21875 48.1875 22.15625 43.53125 
Q 18.109375 38.875 18.109375 30.90625 
L 18.109375 0 
L 9.078125 0 
L 9.078125 54.6875 
L 18.109375 54.6875 
L 18.109375 46.1875 
Q 21.1875 51.21875 25.484375 53.609375 
Q 29.78125 56 35.6875 56 
Q 41.65625 56 45.828125 52.96875 
Q 50 49.953125 52 44.1875 
" id="BitstreamVeraSans-Roman-6d"/>
      <path d="M 10.984375 1.515625 
L 10.984375 10.5 
Q 14.703125 8.734375 18.5 7.8125 
Q 22.3125 6.890625 25.984375 6.890625 
Q 35.75 6.890625 40.890625 13.453125 
Q 46.046875 20.015625 46.78125 33.40625 
Q 43.953125 29.203125 39.59375 26.953125 
Q 35.25 24.703125 29.984375 24.703125 
Q 19.046875 24.703125 12.671875 31.3125 
Q 6.296875 37.9375 6.296875 49.421875 
Q 6.296875 60.640625 12.9375 67.421875 
Q 19.578125 74.21875 30.609375 74.21875 
Q 43.265625 74.21875 49.921875 64.515625 
Q 56.59375 54.828125 56.59375 36.375 
Q 56.59375 19.140625 48.40625 8.859375 
Q 40.234375 -1.421875 26.421875 -1.421875 
Q 22.703125 -1.421875 18.890625 -0.6875 
Q 15.09375 0.046875 10.984375 1.515625 
M 30.609375 32.421875 
Q 37.25 32.421875 41.125 36.953125 
Q 45.015625 41.5 45.015625 49.421875 
Q 45.015625 57.28125 41.125 61.84375 
Q 37.25 66.40625 30.609375 66.40625 
Q 23.96875 66.40625 20.09375 61.84375 
Q 16.21875 57.28125 16.21875 49.421875 
Q 16.21875 41.5 20.09375 36.953125 
Q 23.96875 32.421875 30.609375 32.421875 
" id="BitstreamVeraSans-Roman-39"/>
      <path d="M 11.71875 12.40625 
L 22.015625 12.40625 
L 22.015625 0 
L 11.71875 0 
z
M 11.71875 51.703125 
L 22.015625 51.703125 
L 22.015625 39.3125 
L 11.71875 39.3125 
z
" id="BitstreamVeraSans-Roman-3a"/>
      <path d="M 10.6875 12.40625 
L 21 12.40625 
L 21 0 
L 10.6875 0 
z
" id="BitstreamVeraSans-Roman-2e"/>
      <path d="M 10.59375 45.40625 
L 73.1875 45.40625 
L 73.1875 37.203125 
L 10.59375 37.203125 
z
M 10.59375 25.484375 
L 73.1875 25.484375 
L 73.1875 17.1875 
L 10.59375 17.1875 
z
" id="BitstreamVeraSans-Roman-3d"/>
      <path d="M 45.40625 46.390625 
L 45.40625 75.984375 
L 54.390625 75.984375 
L 54.390625 0 
L 45.40625 0 
L 45.40625 8.203125 
Q 42.578125 3.328125 38.25 0.953125 
Q 33.9375 -1.421875 27.875 -1.421875 
Q 17.96875 -1.421875 11.734375 6.484375 
Q 5.515625 14.40625 5.515625 27.296875 
Q 5.515625 40.1875 11.734375 48.09375 
Q 17.96875 56 27.875 56 
Q 33.9375 56 38.25 53.625 
Q 42.578125 51.265625 45.40625 46.390625 
M 14.796875 27.296875 
Q 14.796875 17.390625 18.875 11.75 
Q 22.953125 6.109375 30.078125 6.109375 
Q 37.203125 6.109375 41.296875 11.75 
Q 45.40625 17.390625 45.40625 27.296875 
Q 45.40625 37.203125 41.296875 42.84375 
Q 37.203125 48.484375 30.078125 48.484375 
Q 22.953125 48.484375 18.875 42.84375 
Q 14.796875 37.203125 14.796875 27.296875 
" id="BitstreamVeraSans-Roman-64"/>
      <path d="M 18.109375 8.203125 
L 18.109375 -20.796875 
L 9.078125 -20.796875 
L 9.078125 54.6875 
L 18.109375 54.6875 
L 18.109375 46.390625 
Q 20.953125 51.265625 25.265625 53.625 
Q 29.59375 56 35.59375 56 
Q 45.5625 56 51.78125 48.09375 
Q 58.015625 40.1875 58.015625 27.296875 
Q 58.015625 14.40625 51.78125 6.484375 
Q 45.5625 -1.421875 35.59375 -1.421875 
Q 29.59375 -1.421875 25.265625 0.953125 
Q 20.953125 3.328125 18.109375 8.203125 
M 48.6875 27.296875 
Q 48.6875 37.203125 44.609375 42.84375 
Q 40.53125 48.484375 33.40625 48.484375 
Q 26.265625 48.484375 22.1875 42.84375 
Q 18.109375 37.203125 18.109375 27.296875 
Q 18.109375 17.390625 22.1875 11.75 
Q 26.265625 6.109375 33.40625 6.109375 
Q 40.53125 6.109375 44.609375 11.75 
Q 48.6875 17.390625 48.6875 27.296875 
" id="BitstreamVeraSans-Roman-70"/>
     </defs>
     <g transform="translate(975.6515625 101.0953125)scale(0.3 -0.3)">
      <use xlink:href="#BitstreamVeraSans-Roman-72"/>
      <use x="41.11328125" xlink:href="#BitstreamVeraSans-Roman-61"/>
      <use x="102.392578125" xlink:href="#BitstreamVeraSans-Roman-6e"/>
      <use x="165.771484375" xlink:href="#BitstreamVeraSans-Roman-64"/>
      <use x="229.248046875" xlink:href="#BitstreamVeraSans-Roman-6f"/>
      <use x="290.4296875" xlink:href="#BitstreamVeraSans-Roman-6d"/>
      <use x="387.841796875" xlink:href="#BitstreamVeraSans-Roman-3a"/>
      <use x="421.533203125" xlink:href="#BitstreamVeraSans-Roman-20"/>
      <use x="453.3203125" xlink:href="#BitstreamVeraSans-Roman-73"/>
      <use x="505.419921875" xlink:href="#BitstreamVeraSans-Roman-74"/>
      <use x="544.62890625" xlink:href="#BitstreamVeraSans-Roman-65"/>
      <use x="606.15234375" xlink:href="#BitstreamVeraSans-Roman-70"/>
      <use x="669.62890625" xlink:href="#BitstreamVeraSans-Roman-3d"/>
      <use x="753.41796875" xlink:href="#BitstreamVeraSans-Roman-30"/>
      <use x="817.041015625" xlink:href="#BitstreamVeraSans-Roman-2e"/>
      <use x="848.828125" xlink:href="#BitstreamVeraSans-Roman-30"/>
      <use x="912.451171875" xlink:href="#BitstreamVeraSans-Roman-30"/>
      <use x="976.07421875" xlink:href="#BitstreamVeraSans-Roman-39"/>
      <use x="1039.69726562" xlink:href="#BitstreamVeraSans-Roman-37"/>
      <use x="1103.3203125" xlink:href="#BitstreamVeraSans-Roman-37"/>
      <use x="1166.94335938" xlink:href="#BitstreamVeraSans-Roman-36"/>
     </g>
    </g>
    <g id="line2d_35">
     <path d="M 900.651562 134.629687 
L 942.651562 134.629687 
" style="fill:none;stroke:#008000;stroke-linecap:square;stroke-width:2.0;"/>
    </g>
    <g id="line2d_36"/>
    <g id="text_19">
     <!-- corr: step=0.009776 -->
     <defs>
      <path d="M 48.78125 52.59375 
L 48.78125 44.1875 
Q 44.96875 46.296875 41.140625 47.34375 
Q 37.3125 48.390625 33.40625 48.390625 
Q 24.65625 48.390625 19.8125 42.84375 
Q 14.984375 37.3125 14.984375 27.296875 
Q 14.984375 17.28125 19.8125 11.734375 
Q 24.65625 6.203125 33.40625 6.203125 
Q 37.3125 6.203125 41.140625 7.25 
Q 44.96875 8.296875 48.78125 10.40625 
L 48.78125 2.09375 
Q 45.015625 0.34375 40.984375 -0.53125 
Q 36.96875 -1.421875 32.421875 -1.421875 
Q 20.0625 -1.421875 12.78125 6.34375 
Q 5.515625 14.109375 5.515625 27.296875 
Q 5.515625 40.671875 12.859375 48.328125 
Q 20.21875 56 33.015625 56 
Q 37.15625 56 41.109375 55.140625 
Q 45.0625 54.296875 48.78125 52.59375 
" id="BitstreamVeraSans-Roman-63"/>
     </defs>
     <g transform="translate(975.6515625 145.1296875)scale(0.3 -0.3)">
      <use xlink:href="#BitstreamVeraSans-Roman-63"/>
      <use x="54.98046875" xlink:href="#BitstreamVeraSans-Roman-6f"/>
      <use x="116.162109375" xlink:href="#BitstreamVeraSans-Roman-72"/>
      <use x="157.259765625" xlink:href="#BitstreamVeraSans-Roman-72"/>
      <use x="198.357421875" xlink:href="#BitstreamVeraSans-Roman-3a"/>
      <use x="232.048828125" xlink:href="#BitstreamVeraSans-Roman-20"/>
      <use x="263.8359375" xlink:href="#BitstreamVeraSans-Roman-73"/>
      <use x="315.935546875" xlink:href="#BitstreamVeraSans-Roman-74"/>
      <use x="355.14453125" xlink:href="#BitstreamVeraSans-Roman-65"/>
      <use x="416.66796875" xlink:href="#BitstreamVeraSans-Roman-70"/>
      <use x="480.14453125" xlink:href="#BitstreamVeraSans-Roman-3d"/>
      <use x="563.93359375" xlink:href="#BitstreamVeraSans-Roman-30"/>
      <use x="627.556640625" xlink:href="#BitstreamVeraSans-Roman-2e"/>
      <use x="659.34375" xlink:href="#BitstreamVeraSans-Roman-30"/>
      <use x="722.966796875" xlink:href="#BitstreamVeraSans-Roman-30"/>
      <use x="786.58984375" xlink:href="#BitstreamVeraSans-Roman-39"/>
      <use x="850.212890625" xlink:href="#BitstreamVeraSans-Roman-37"/>
      <use x="913.8359375" xlink:href="#BitstreamVeraSans-Roman-37"/>
      <use x="977.458984375" xlink:href="#BitstreamVeraSans-Roman-36"/>
     </g>
    </g>
   </g>
  </g>
 </g>
 <defs>
  <clipPath id="p8eb57fb9bf">
   <rect height="695.7" width="1213.425" x="158.4" y="51.3"/>
  </clipPath>
 </defs>
</svg>
