<?xml version="1.0" encoding="utf-8" standalone="no"?>
<!DOCTYPE svg PUBLIC "-//W3C//DTD SVG 1.1//EN"
  "http://www.w3.org/Graphics/SVG/1.1/DTD/svg11.dtd">
<!-- Created with matplotlib (http://matplotlib.org/) -->
<svg height="864pt" version="1.1" viewBox="0 0 1440 864" width="1440pt" xmlns="http://www.w3.org/2000/svg" xmlns:xlink="http://www.w3.org/1999/xlink">
 <defs>
  <style type="text/css">
*{stroke-linecap:butt;stroke-linejoin:round;stroke-miterlimit:100000;}
  </style>
 </defs>
 <g id="figure_1">
  <g id="patch_1">
   <path d="M 0 864 
L 1440 864 
L 1440 0 
L 0 0 
z
" style="fill:#ffffff;"/>
  </g>
  <g id="axes_1">
   <g id="patch_2">
    <path d="M 158.4 747 
L 1371.825 747 
L 1371.825 51.3 
L 158.4 51.3 
z
" style="fill:#ffffff;"/>
   </g>
   <g id="line2d_1">
    <path clip-path="url(#p0fb909dd30)" d="M 158.4 157.423604 
L 160.82685 160.029008 
L 163.2537 162.583916 
L 165.68055 165.414337 
L 168.1074 167.779065 
L 172.9611 172.991211 
L 175.38795 175.237803 
L 177.8148 177.086229 
L 180.24165 179.460007 
L 182.6685 181.53643 
L 192.3759 187.9731 
L 194.80275 189.343728 
L 197.2296 191.121433 
L 199.65645 192.343731 
L 204.51015 195.503672 
L 206.937 196.725689 
L 209.36385 198.559892 
L 211.7907 200.01233 
L 214.21755 201.200147 
L 216.6444 202.564238 
L 219.07125 203.742339 
L 223.92495 206.597287 
L 226.3518 208.118858 
L 228.77865 209.101693 
L 231.2055 210.595601 
L 233.63235 212.381232 
L 236.0592 213.452014 
L 238.48605 214.690792 
L 240.9129 215.779385 
L 243.33975 216.61345 
L 248.19345 218.925243 
L 250.6203 219.653088 
L 255.474 221.429683 
L 260.3277 223.515624 
L 267.60825 227.364155 
L 272.46195 229.779329 
L 277.31565 231.993011 
L 279.7425 232.663426 
L 282.16935 233.711617 
L 284.5962 234.429496 
L 289.4499 236.487166 
L 291.87675 237.938815 
L 294.3036 239.002028 
L 296.73045 240.202726 
L 299.1573 241.220194 
L 301.58415 242.677266 
L 304.011 243.411665 
L 306.43785 244.817013 
L 308.8647 245.872883 
L 311.29155 246.731161 
L 316.14525 249.099161 
L 325.85265 253.061682 
L 328.2795 253.914334 
L 330.70635 255.226118 
L 333.1332 255.982343 
L 335.56005 256.616493 
L 337.9869 257.466114 
L 340.41375 258.501253 
L 342.8406 259.33954 
L 345.26745 260.372915 
L 347.6943 261.256097 
L 350.12115 262.276598 
L 352.548 262.947045 
L 354.97485 263.755249 
L 359.82855 266.291108 
L 362.2554 267.144606 
L 364.68225 268.212809 
L 367.1091 269.123286 
L 369.53595 270.198833 
L 376.8165 273.853329 
L 379.24335 274.79102 
L 384.09705 276.080148 
L 386.5239 276.937686 
L 401.085 282.931882 
L 403.51185 284.26939 
L 405.9387 285.133289 
L 410.7924 287.244885 
L 413.21925 288.24937 
L 415.6461 289.050784 
L 418.07295 290.224872 
L 420.4998 291.108191 
L 422.92665 292.345287 
L 425.3535 293.012078 
L 435.0609 296.425547 
L 437.48775 297.747006 
L 439.9146 298.62533 
L 444.7683 300.705452 
L 454.4757 304.73226 
L 456.90255 305.178044 
L 461.75625 307.058855 
L 466.60995 308.665826 
L 471.46365 310.735434 
L 478.7442 314.318931 
L 481.17105 314.926833 
L 483.5979 315.991032 
L 486.02475 316.82628 
L 488.4516 317.996429 
L 490.87845 318.950153 
L 493.3053 320.306638 
L 498.159 322.138882 
L 500.58585 323.710401 
L 503.0127 324.448314 
L 512.7201 328.60148 
L 517.5738 329.912048 
L 520.00065 331.092144 
L 529.70805 334.137832 
L 546.696 340.55556 
L 549.12285 341.218588 
L 551.5497 342.145307 
L 553.97655 342.865649 
L 556.4034 343.908179 
L 558.83025 344.504818 
L 561.2571 345.353856 
L 563.68395 346.784168 
L 566.1108 347.514168 
L 568.53765 348.521072 
L 570.9645 349.358577 
L 573.39135 350.446282 
L 575.8182 351.353636 
L 578.24505 352.402413 
L 580.6719 353.268443 
L 583.09875 354.411477 
L 585.5256 355.066754 
L 590.3793 357.107164 
L 592.80615 357.78054 
L 597.65985 359.388413 
L 600.0867 360.375466 
L 604.9404 361.840303 
L 609.7941 363.674531 
L 612.22095 364.38419 
L 614.6478 365.515207 
L 617.07465 366.40091 
L 619.5015 367.477861 
L 621.92835 368.331056 
L 624.3552 369.064051 
L 626.78205 369.658539 
L 629.2089 370.819226 
L 631.63575 371.428396 
L 636.48945 373.721246 
L 638.9163 374.887789 
L 641.34315 375.851248 
L 643.77 376.41653 
L 648.6237 378.907327 
L 653.4774 381.02145 
L 655.90425 381.419864 
L 658.3311 382.30019 
L 660.75795 383.570433 
L 663.1848 384.97082 
L 665.61165 385.713567 
L 670.46535 387.582741 
L 672.8922 388.238214 
L 682.5996 391.656182 
L 685.02645 392.628239 
L 687.4533 393.451549 
L 689.88015 394.140535 
L 692.307 395.197988 
L 694.73385 395.715806 
L 697.1607 396.652547 
L 702.0144 398.913167 
L 706.8681 400.739856 
L 709.29495 401.82475 
L 711.7218 402.708639 
L 714.14865 403.906542 
L 719.00235 405.542435 
L 723.85605 407.84931 
L 726.2829 408.516508 
L 728.70975 409.550196 
L 740.844 413.044917 
L 743.27085 414.138156 
L 745.6977 414.965545 
L 750.5514 416.212782 
L 752.97825 417.010494 
L 755.4051 418.118816 
L 765.1125 421.910278 
L 767.53935 422.757046 
L 769.9662 423.821252 
L 772.39305 424.336695 
L 774.8199 425.139242 
L 777.24675 425.813385 
L 779.6736 427.033605 
L 782.10045 427.930728 
L 784.5273 429.398029 
L 786.95415 430.327945 
L 789.381 430.978193 
L 791.80785 431.833793 
L 794.2347 432.988883 
L 796.66155 433.973092 
L 799.0884 435.198021 
L 801.51525 436.002573 
L 806.36895 438.215493 
L 808.7958 438.985471 
L 811.22265 439.521014 
L 813.6495 440.714915 
L 818.5032 442.354156 
L 820.93005 443.482205 
L 823.3569 444.418671 
L 825.78375 445.033682 
L 828.2106 446.577561 
L 830.63745 447.18087 
L 835.49115 448.763651 
L 840.34485 450.347903 
L 842.7717 451.386356 
L 845.19855 452.149667 
L 847.6254 452.723864 
L 850.05225 454.043731 
L 854.90595 455.958199 
L 857.3328 456.698316 
L 859.75965 457.780937 
L 862.1865 458.493406 
L 867.0402 460.22631 
L 871.8939 461.500085 
L 874.32075 462.440487 
L 876.7476 463.069971 
L 879.17445 463.815835 
L 886.455 466.644013 
L 896.1624 470.508055 
L 898.58925 471.221035 
L 901.0161 472.3471 
L 903.44295 473.255645 
L 905.8698 474.431502 
L 908.29665 475.027025 
L 915.5772 478.033717 
L 920.4309 479.705872 
L 922.85775 480.443661 
L 925.2846 481.303261 
L 927.71145 481.930068 
L 930.1383 483.013879 
L 932.56515 483.486872 
L 934.992 484.513801 
L 937.41885 485.921829 
L 939.8457 486.971007 
L 947.12625 489.708535 
L 949.5531 490.284931 
L 951.97995 491.083104 
L 956.83365 493.329848 
L 966.54105 496.684296 
L 968.9679 497.340584 
L 978.6753 500.763836 
L 985.95585 503.5067 
L 988.3827 504.254531 
L 990.80955 505.47473 
L 993.2364 506.523971 
L 998.0901 508.000942 
L 1000.51695 508.684342 
L 1007.7975 511.411913 
L 1012.6512 513.864221 
L 1017.5049 515.380509 
L 1019.93175 516.372504 
L 1022.3586 517.161497 
L 1024.78545 518.310856 
L 1032.066 520.419741 
L 1034.49285 521.301235 
L 1036.9197 522.036672 
L 1039.34655 522.990758 
L 1041.7734 523.798199 
L 1044.20025 524.829943 
L 1046.6271 525.662182 
L 1049.05395 526.360526 
L 1053.90765 528.579116 
L 1056.3345 529.271651 
L 1058.76135 530.304239 
L 1066.0419 532.679965 
L 1070.8956 534.973343 
L 1075.7493 536.122048 
L 1083.02985 538.944923 
L 1087.88355 540.640603 
L 1090.3104 541.717339 
L 1100.0178 545.049953 
L 1102.44465 545.729722 
L 1104.8715 546.80289 
L 1109.7252 548.239219 
L 1112.15205 549.254713 
L 1114.5789 550.39337 
L 1117.00575 551.383443 
L 1119.4326 552.684575 
L 1121.85945 553.75096 
L 1124.2863 554.366957 
L 1131.56685 557.222097 
L 1133.9937 558.492535 
L 1143.7011 562.239864 
L 1146.12795 563.015767 
L 1148.5548 563.655583 
L 1150.98165 564.473351 
L 1153.4085 565.164468 
L 1155.83535 566.158155 
L 1163.1159 568.431823 
L 1165.54275 569.770362 
L 1170.39645 571.77146 
L 1177.677 573.941232 
L 1180.10385 575.052366 
L 1182.5307 575.788418 
L 1184.95755 576.665683 
L 1189.81125 578.182837 
L 1192.2381 579.207757 
L 1197.0918 580.616326 
L 1199.51865 581.609793 
L 1201.9455 582.794819 
L 1204.37235 583.654393 
L 1211.6529 586.76518 
L 1214.07975 587.304791 
L 1216.5066 588.284663 
L 1218.93345 588.917699 
L 1221.3603 589.687823 
L 1226.214 590.977767 
L 1228.64085 591.952938 
L 1231.0677 593.065201 
L 1233.49455 593.994441 
L 1235.9214 595.20206 
L 1240.7751 597.237534 
L 1243.20195 597.814832 
L 1245.6288 598.604982 
L 1248.05565 599.530065 
L 1250.4825 600.236883 
L 1252.90935 601.502247 
L 1255.3362 602.291915 
L 1257.76305 602.928069 
L 1260.1899 603.804657 
L 1262.61675 604.848747 
L 1265.0436 605.630671 
L 1272.32415 608.53854 
L 1274.751 609.030946 
L 1277.17785 610.406738 
L 1282.03155 612.394349 
L 1286.88525 614.152428 
L 1289.3121 614.980339 
L 1291.73895 615.39714 
L 1294.1658 616.076102 
L 1296.59265 617.061024 
L 1301.44635 618.562404 
L 1306.30005 620.193237 
L 1308.7269 621.076741 
L 1311.15375 621.750286 
L 1316.00745 623.420935 
L 1318.4343 624.083029 
L 1320.86115 624.861 
L 1323.288 625.779918 
L 1325.71485 626.41398 
L 1332.9954 628.928309 
L 1335.42225 629.49005 
L 1340.27595 631.130307 
L 1342.7028 632.166469 
L 1345.12965 632.763416 
L 1347.5565 633.600002 
L 1349.98335 634.675067 
L 1352.4102 635.375285 
L 1354.83705 636.786957 
L 1357.2639 637.465423 
L 1362.1176 639.356011 
L 1364.54445 640.649672 
L 1366.9713 641.566278 
L 1369.39815 642.174869 
L 1369.39815 642.174869 
" style="fill:none;stroke:#0000ff;stroke-linecap:square;stroke-width:2.0;"/>
   </g>
   <g id="line2d_2">
    <path clip-path="url(#p0fb909dd30)" d="M 158.4 156.750556 
L 160.82685 159.305308 
L 163.2537 161.672474 
L 165.68055 164.90291 
L 168.1074 167.097685 
L 170.53425 168.858595 
L 175.38795 172.637022 
L 177.8148 174.293148 
L 180.24165 176.492034 
L 182.6685 178.167257 
L 185.09535 180.276333 
L 189.94905 183.95494 
L 192.3759 184.869373 
L 194.80275 186.643331 
L 197.2296 188.615831 
L 199.65645 190.019412 
L 202.0833 192.042707 
L 204.51015 193.292441 
L 206.937 194.804931 
L 209.36385 197.014918 
L 211.7907 198.565644 
L 214.21755 199.495612 
L 226.3518 206.580655 
L 231.2055 209.917455 
L 233.63235 210.952287 
L 238.48605 213.593977 
L 240.9129 214.67748 
L 243.33975 216.063295 
L 248.19345 218.106359 
L 250.6203 219.98816 
L 255.474 222.112086 
L 257.90085 223.711287 
L 262.75455 226.403172 
L 265.1814 227.708181 
L 274.8888 231.173286 
L 277.31565 232.265296 
L 279.7425 233.626875 
L 284.5962 235.853537 
L 287.02305 237.19543 
L 289.4499 238.152084 
L 294.3036 240.55969 
L 299.1573 242.581786 
L 304.011 244.136582 
L 306.43785 245.550108 
L 308.8647 246.45328 
L 311.29155 247.581041 
L 320.99895 251.19996 
L 323.4258 252.572625 
L 325.85265 253.656017 
L 328.2795 254.588116 
L 330.70635 255.668265 
L 337.9869 258.452784 
L 340.41375 259.152559 
L 342.8406 260.311294 
L 345.26745 261.139686 
L 347.6943 262.141116 
L 350.12115 263.368947 
L 354.97485 265.010036 
L 357.4017 265.777481 
L 362.2554 267.729124 
L 364.68225 268.64744 
L 367.1091 269.753673 
L 371.9628 271.634247 
L 374.38965 272.383143 
L 376.8165 273.823555 
L 381.6702 275.732692 
L 384.09705 276.680513 
L 386.5239 278.344131 
L 388.95075 279.018194 
L 391.3776 280.072435 
L 398.65815 282.626462 
L 403.51185 285.387013 
L 405.9387 286.598637 
L 408.36555 287.542334 
L 418.07295 291.954035 
L 420.4998 292.722733 
L 422.92665 293.868388 
L 425.3535 294.804088 
L 430.2072 296.421709 
L 432.63405 297.382923 
L 437.48775 299.672276 
L 439.9146 301.045093 
L 442.34145 301.799178 
L 444.7683 302.937026 
L 449.622 304.823882 
L 452.04885 306.276818 
L 456.90255 308.290322 
L 459.3294 309.113322 
L 464.1831 311.291268 
L 466.60995 312.103826 
L 469.0368 312.773454 
L 471.46365 313.69541 
L 473.8905 314.93445 
L 476.31735 315.834688 
L 481.17105 317.981078 
L 483.5979 319.335642 
L 488.4516 321.658314 
L 490.87845 323.100425 
L 493.3053 324.008786 
L 495.73215 324.735121 
L 500.58585 326.662621 
L 510.29325 330.155894 
L 512.7201 331.306141 
L 515.14695 332.042473 
L 520.00065 334.007966 
L 522.4275 334.757784 
L 524.85435 335.31829 
L 532.1349 337.920634 
L 534.56175 338.664626 
L 536.9886 339.829383 
L 539.41545 340.843598 
L 544.26915 343.404516 
L 549.12285 345.127494 
L 553.97655 347.381459 
L 556.4034 348.556158 
L 578.24505 356.673035 
L 580.6719 357.881142 
L 583.09875 358.936619 
L 585.5256 359.852296 
L 590.3793 362.105996 
L 595.233 363.886549 
L 597.65985 365.038454 
L 600.0867 365.819284 
L 602.51355 367.037964 
L 604.9404 367.80411 
L 607.36725 368.765352 
L 609.7941 369.90907 
L 612.22095 370.812678 
L 614.6478 371.998588 
L 617.07465 372.781123 
L 619.5015 374.118597 
L 621.92835 374.871899 
L 624.3552 375.817846 
L 626.78205 376.627244 
L 629.2089 377.986402 
L 638.9163 381.310832 
L 643.77 383.524973 
L 646.19685 384.699372 
L 648.6237 385.606641 
L 655.90425 388.065808 
L 665.61165 391.779152 
L 675.31905 395.431781 
L 677.7459 396.5886 
L 680.17275 397.492332 
L 682.5996 398.215776 
L 685.02645 399.602804 
L 687.4533 400.243279 
L 689.88015 401.154969 
L 692.307 401.946971 
L 694.73385 403.020608 
L 697.1607 403.733717 
L 702.0144 405.561399 
L 704.44125 406.449888 
L 706.8681 407.763744 
L 709.29495 408.774311 
L 714.14865 411.360757 
L 719.00235 413.075653 
L 728.70975 417.442752 
L 731.1366 418.383236 
L 733.56345 419.456384 
L 735.9903 420.147558 
L 748.12455 424.231757 
L 752.97825 426.639356 
L 755.4051 427.366259 
L 757.83195 428.631183 
L 762.68565 430.387335 
L 769.9662 434.128351 
L 772.39305 434.924062 
L 774.8199 435.905222 
L 777.24675 436.561791 
L 779.6736 437.451149 
L 782.10045 437.807762 
L 786.95415 440.058766 
L 789.381 440.674684 
L 791.80785 441.707449 
L 794.2347 442.520996 
L 796.66155 443.755943 
L 799.0884 444.334666 
L 801.51525 445.122721 
L 803.9421 446.02913 
L 806.36895 446.665107 
L 808.7958 447.517892 
L 813.6495 449.57804 
L 816.07635 450.318282 
L 823.3569 453.23301 
L 825.78375 453.907631 
L 830.63745 455.626242 
L 833.0643 456.924815 
L 835.49115 457.413572 
L 837.918 458.380075 
L 840.34485 459.768453 
L 842.7717 460.31874 
L 845.19855 461.355475 
L 847.6254 462.568256 
L 850.05225 463.948087 
L 857.3328 466.775497 
L 862.1865 468.804297 
L 864.61335 470.001277 
L 867.0402 470.849988 
L 874.32075 474.263624 
L 876.7476 474.759146 
L 879.17445 475.737681 
L 881.6013 476.566876 
L 884.02815 477.618075 
L 891.3087 480.083457 
L 893.73555 480.828633 
L 901.0161 483.774761 
L 903.44295 484.615426 
L 908.29665 486.773424 
L 910.7235 487.554541 
L 913.15035 488.624413 
L 915.5772 489.296092 
L 918.00405 489.704455 
L 920.4309 490.898147 
L 922.85775 491.780885 
L 925.2846 492.535304 
L 930.1383 494.509322 
L 932.56515 493.634651 
L 934.992 493.488486 
L 937.41885 494.513257 
L 939.8457 495.75906 
L 942.27255 497.480527 
L 944.6994 497.452016 
L 947.12625 499.978457 
L 949.5531 501.786248 
L 951.97995 502.670312 
L 961.68735 505.699336 
L 966.54105 507.690069 
L 968.9679 508.360498 
L 971.39475 509.54893 
L 973.8216 510.477731 
L 976.24845 511.14271 
L 978.6753 512.398851 
L 981.10215 513.353944 
L 988.3827 515.603346 
L 993.2364 517.575319 
L 995.66325 518.122478 
L 1005.37065 521.450459 
L 1012.6512 524.156749 
L 1015.07805 524.975776 
L 1017.5049 526.104207 
L 1019.93175 527.017631 
L 1022.3586 528.180442 
L 1027.2123 529.77771 
L 1029.63915 530.762643 
L 1034.49285 532.250799 
L 1039.34655 533.884421 
L 1041.7734 535.017437 
L 1046.6271 536.920809 
L 1049.05395 538.265576 
L 1053.90765 539.875918 
L 1056.3345 540.552839 
L 1061.1882 542.553218 
L 1063.61505 543.03742 
L 1070.8956 546.516084 
L 1073.32245 547.495196 
L 1075.7493 548.257026 
L 1078.17615 549.241814 
L 1083.02985 550.823368 
L 1085.4567 551.233899 
L 1097.59095 555.770244 
L 1100.0178 556.993131 
L 1104.8715 558.731337 
L 1107.29835 559.835903 
L 1117.00575 563.386536 
L 1119.4326 564.385582 
L 1121.85945 565.031814 
L 1124.2863 565.80036 
L 1129.14 567.803867 
L 1131.56685 568.581875 
L 1133.9937 569.692295 
L 1141.27425 572.567518 
L 1143.7011 573.974513 
L 1148.5548 576.329504 
L 1150.98165 577.205386 
L 1153.4085 577.855224 
L 1155.83535 579.130289 
L 1158.2622 579.77133 
L 1160.68905 580.909095 
L 1163.1159 581.840516 
L 1167.9696 583.409961 
L 1170.39645 584.302945 
L 1172.8233 585.040153 
L 1180.10385 587.77557 
L 1182.5307 588.375901 
L 1189.81125 591.182275 
L 1192.2381 592.296614 
L 1194.66495 593.218054 
L 1197.0918 594.505415 
L 1199.51865 595.652331 
L 1204.37235 597.442097 
L 1214.07975 601.06677 
L 1218.93345 603.214766 
L 1221.3603 604.474983 
L 1228.64085 606.936136 
L 1238.34825 611.188079 
L 1240.7751 612.166837 
L 1243.20195 612.881257 
L 1245.6288 613.836914 
L 1252.90935 616.202975 
L 1255.3362 617.117337 
L 1262.61675 620.397158 
L 1265.0436 621.3633 
L 1269.8973 622.893916 
L 1274.751 624.983796 
L 1277.17785 625.953323 
L 1279.6047 626.647619 
L 1282.03155 627.519879 
L 1289.3121 631.033945 
L 1296.59265 633.388856 
L 1303.8732 636.391146 
L 1306.30005 637.245887 
L 1308.7269 638.583313 
L 1318.4343 642.232725 
L 1320.86115 643.235748 
L 1323.288 644.646431 
L 1325.71485 645.255157 
L 1328.1417 646.027834 
L 1330.56855 647.20185 
L 1335.42225 648.77682 
L 1337.8491 649.783122 
L 1347.5565 652.42075 
L 1349.98335 653.230132 
L 1352.4102 654.405202 
L 1354.83705 655.41398 
L 1359.69075 657.679852 
L 1364.54445 659.721466 
L 1369.39815 661.520052 
L 1369.39815 661.520052 
" style="fill:none;stroke:#008000;stroke-linecap:square;stroke-width:2.0;"/>
   </g>
   <g id="patch_3">
    <path d="M 158.4 51.3 
L 1371.825 51.3 
" style="fill:none;stroke:#000000;stroke-linecap:square;stroke-linejoin:miter;"/>
   </g>
   <g id="patch_4">
    <path d="M 1371.825 747 
L 1371.825 51.3 
" style="fill:none;stroke:#000000;stroke-linecap:square;stroke-linejoin:miter;"/>
   </g>
   <g id="patch_5">
    <path d="M 158.4 747 
L 1371.825 747 
" style="fill:none;stroke:#000000;stroke-linecap:square;stroke-linejoin:miter;"/>
   </g>
   <g id="patch_6">
    <path d="M 158.4 747 
L 158.4 51.3 
" style="fill:none;stroke:#000000;stroke-linecap:square;stroke-linejoin:miter;"/>
   </g>
   <g id="matplotlib.axis_1">
    <g id="xtick_1">
     <g id="line2d_3">
      <defs>
       <path d="M 0 0 
L 0 -4 
" id="m5d269860c0" style="stroke:#000000;stroke-width:0.5;"/>
      </defs>
      <g>
       <use style="stroke:#000000;stroke-width:0.5;" x="158.4" xlink:href="#m5d269860c0" y="747.0"/>
      </g>
     </g>
     <g id="line2d_4">
      <defs>
       <path d="M 0 0 
L 0 4 
" id="mf2def7f8e6" style="stroke:#000000;stroke-width:0.5;"/>
      </defs>
      <g>
       <use style="stroke:#000000;stroke-width:0.5;" x="158.4" xlink:href="#mf2def7f8e6" y="51.3"/>
      </g>
     </g>
     <g id="text_1">
      <!-- 0 -->
      <defs>
       <path d="M 31.78125 66.40625 
Q 24.171875 66.40625 20.328125 58.90625 
Q 16.5 51.421875 16.5 36.375 
Q 16.5 21.390625 20.328125 13.890625 
Q 24.171875 6.390625 31.78125 6.390625 
Q 39.453125 6.390625 43.28125 13.890625 
Q 47.125 21.390625 47.125 36.375 
Q 47.125 51.421875 43.28125 58.90625 
Q 39.453125 66.40625 31.78125 66.40625 
M 31.78125 74.21875 
Q 44.046875 74.21875 50.515625 64.515625 
Q 56.984375 54.828125 56.984375 36.375 
Q 56.984375 17.96875 50.515625 8.265625 
Q 44.046875 -1.421875 31.78125 -1.421875 
Q 19.53125 -1.421875 13.0625 8.265625 
Q 6.59375 17.96875 6.59375 36.375 
Q 6.59375 54.828125 13.0625 64.515625 
Q 19.53125 74.21875 31.78125 74.21875 
" id="BitstreamVeraSans-Roman-30"/>
      </defs>
      <g transform="translate(148.85625 773.7953125)scale(0.3 -0.3)">
       <use xlink:href="#BitstreamVeraSans-Roman-30"/>
      </g>
     </g>
    </g>
    <g id="xtick_2">
     <g id="line2d_5">
      <g>
       <use style="stroke:#000000;stroke-width:0.5;" x="401.085" xlink:href="#m5d269860c0" y="747.0"/>
      </g>
     </g>
     <g id="line2d_6">
      <g>
       <use style="stroke:#000000;stroke-width:0.5;" x="401.085" xlink:href="#mf2def7f8e6" y="51.3"/>
      </g>
     </g>
     <g id="text_2">
      <!-- 100 -->
      <defs>
       <path d="M 12.40625 8.296875 
L 28.515625 8.296875 
L 28.515625 63.921875 
L 10.984375 60.40625 
L 10.984375 69.390625 
L 28.421875 72.90625 
L 38.28125 72.90625 
L 38.28125 8.296875 
L 54.390625 8.296875 
L 54.390625 0 
L 12.40625 0 
z
" id="BitstreamVeraSans-Roman-31"/>
      </defs>
      <g transform="translate(372.45375 773.7953125)scale(0.3 -0.3)">
       <use xlink:href="#BitstreamVeraSans-Roman-31"/>
       <use x="63.623046875" xlink:href="#BitstreamVeraSans-Roman-30"/>
       <use x="127.24609375" xlink:href="#BitstreamVeraSans-Roman-30"/>
      </g>
     </g>
    </g>
    <g id="xtick_3">
     <g id="line2d_7">
      <g>
       <use style="stroke:#000000;stroke-width:0.5;" x="643.77" xlink:href="#m5d269860c0" y="747.0"/>
      </g>
     </g>
     <g id="line2d_8">
      <g>
       <use style="stroke:#000000;stroke-width:0.5;" x="643.77" xlink:href="#mf2def7f8e6" y="51.3"/>
      </g>
     </g>
     <g id="text_3">
      <!-- 200 -->
      <defs>
       <path d="M 19.1875 8.296875 
L 53.609375 8.296875 
L 53.609375 0 
L 7.328125 0 
L 7.328125 8.296875 
Q 12.9375 14.109375 22.625 23.890625 
Q 32.328125 33.6875 34.8125 36.53125 
Q 39.546875 41.84375 41.421875 45.53125 
Q 43.3125 49.21875 43.3125 52.78125 
Q 43.3125 58.59375 39.234375 62.25 
Q 35.15625 65.921875 28.609375 65.921875 
Q 23.96875 65.921875 18.8125 64.3125 
Q 13.671875 62.703125 7.8125 59.421875 
L 7.8125 69.390625 
Q 13.765625 71.78125 18.9375 73 
Q 24.125 74.21875 28.421875 74.21875 
Q 39.75 74.21875 46.484375 68.546875 
Q 53.21875 62.890625 53.21875 53.421875 
Q 53.21875 48.921875 51.53125 44.890625 
Q 49.859375 40.875 45.40625 35.40625 
Q 44.1875 33.984375 37.640625 27.21875 
Q 31.109375 20.453125 19.1875 8.296875 
" id="BitstreamVeraSans-Roman-32"/>
      </defs>
      <g transform="translate(615.13875 773.7953125)scale(0.3 -0.3)">
       <use xlink:href="#BitstreamVeraSans-Roman-32"/>
       <use x="63.623046875" xlink:href="#BitstreamVeraSans-Roman-30"/>
       <use x="127.24609375" xlink:href="#BitstreamVeraSans-Roman-30"/>
      </g>
     </g>
    </g>
    <g id="xtick_4">
     <g id="line2d_9">
      <g>
       <use style="stroke:#000000;stroke-width:0.5;" x="886.455" xlink:href="#m5d269860c0" y="747.0"/>
      </g>
     </g>
     <g id="line2d_10">
      <g>
       <use style="stroke:#000000;stroke-width:0.5;" x="886.455" xlink:href="#mf2def7f8e6" y="51.3"/>
      </g>
     </g>
     <g id="text_4">
      <!-- 300 -->
      <defs>
       <path d="M 40.578125 39.3125 
Q 47.65625 37.796875 51.625 33 
Q 55.609375 28.21875 55.609375 21.1875 
Q 55.609375 10.40625 48.1875 4.484375 
Q 40.765625 -1.421875 27.09375 -1.421875 
Q 22.515625 -1.421875 17.65625 -0.515625 
Q 12.796875 0.390625 7.625 2.203125 
L 7.625 11.71875 
Q 11.71875 9.328125 16.59375 8.109375 
Q 21.484375 6.890625 26.8125 6.890625 
Q 36.078125 6.890625 40.9375 10.546875 
Q 45.796875 14.203125 45.796875 21.1875 
Q 45.796875 27.640625 41.28125 31.265625 
Q 36.765625 34.90625 28.71875 34.90625 
L 20.21875 34.90625 
L 20.21875 43.015625 
L 29.109375 43.015625 
Q 36.375 43.015625 40.234375 45.921875 
Q 44.09375 48.828125 44.09375 54.296875 
Q 44.09375 59.90625 40.109375 62.90625 
Q 36.140625 65.921875 28.71875 65.921875 
Q 24.65625 65.921875 20.015625 65.03125 
Q 15.375 64.15625 9.8125 62.3125 
L 9.8125 71.09375 
Q 15.4375 72.65625 20.34375 73.4375 
Q 25.25 74.21875 29.59375 74.21875 
Q 40.828125 74.21875 47.359375 69.109375 
Q 53.90625 64.015625 53.90625 55.328125 
Q 53.90625 49.265625 50.4375 45.09375 
Q 46.96875 40.921875 40.578125 39.3125 
" id="BitstreamVeraSans-Roman-33"/>
      </defs>
      <g transform="translate(857.82375 773.7953125)scale(0.3 -0.3)">
       <use xlink:href="#BitstreamVeraSans-Roman-33"/>
       <use x="63.623046875" xlink:href="#BitstreamVeraSans-Roman-30"/>
       <use x="127.24609375" xlink:href="#BitstreamVeraSans-Roman-30"/>
      </g>
     </g>
    </g>
    <g id="xtick_5">
     <g id="line2d_11">
      <g>
       <use style="stroke:#000000;stroke-width:0.5;" x="1129.14" xlink:href="#m5d269860c0" y="747.0"/>
      </g>
     </g>
     <g id="line2d_12">
      <g>
       <use style="stroke:#000000;stroke-width:0.5;" x="1129.14" xlink:href="#mf2def7f8e6" y="51.3"/>
      </g>
     </g>
     <g id="text_5">
      <!-- 400 -->
      <defs>
       <path d="M 37.796875 64.3125 
L 12.890625 25.390625 
L 37.796875 25.390625 
z
M 35.203125 72.90625 
L 47.609375 72.90625 
L 47.609375 25.390625 
L 58.015625 25.390625 
L 58.015625 17.1875 
L 47.609375 17.1875 
L 47.609375 0 
L 37.796875 0 
L 37.796875 17.1875 
L 4.890625 17.1875 
L 4.890625 26.703125 
z
" id="BitstreamVeraSans-Roman-34"/>
      </defs>
      <g transform="translate(1100.50875 773.7953125)scale(0.3 -0.3)">
       <use xlink:href="#BitstreamVeraSans-Roman-34"/>
       <use x="63.623046875" xlink:href="#BitstreamVeraSans-Roman-30"/>
       <use x="127.24609375" xlink:href="#BitstreamVeraSans-Roman-30"/>
      </g>
     </g>
    </g>
    <g id="xtick_6">
     <g id="line2d_13">
      <g>
       <use style="stroke:#000000;stroke-width:0.5;" x="1371.825" xlink:href="#m5d269860c0" y="747.0"/>
      </g>
     </g>
     <g id="line2d_14">
      <g>
       <use style="stroke:#000000;stroke-width:0.5;" x="1371.825" xlink:href="#mf2def7f8e6" y="51.3"/>
      </g>
     </g>
     <g id="text_6">
      <!-- 500 -->
      <defs>
       <path d="M 10.796875 72.90625 
L 49.515625 72.90625 
L 49.515625 64.59375 
L 19.828125 64.59375 
L 19.828125 46.734375 
Q 21.96875 47.46875 24.109375 47.828125 
Q 26.265625 48.1875 28.421875 48.1875 
Q 40.625 48.1875 47.75 41.5 
Q 54.890625 34.8125 54.890625 23.390625 
Q 54.890625 11.625 47.5625 5.09375 
Q 40.234375 -1.421875 26.90625 -1.421875 
Q 22.3125 -1.421875 17.546875 -0.640625 
Q 12.796875 0.140625 7.71875 1.703125 
L 7.71875 11.625 
Q 12.109375 9.234375 16.796875 8.0625 
Q 21.484375 6.890625 26.703125 6.890625 
Q 35.15625 6.890625 40.078125 11.328125 
Q 45.015625 15.765625 45.015625 23.390625 
Q 45.015625 31 40.078125 35.4375 
Q 35.15625 39.890625 26.703125 39.890625 
Q 22.75 39.890625 18.8125 39.015625 
Q 14.890625 38.140625 10.796875 36.28125 
z
" id="BitstreamVeraSans-Roman-35"/>
      </defs>
      <g transform="translate(1343.19375 773.7953125)scale(0.3 -0.3)">
       <use xlink:href="#BitstreamVeraSans-Roman-35"/>
       <use x="63.623046875" xlink:href="#BitstreamVeraSans-Roman-30"/>
       <use x="127.24609375" xlink:href="#BitstreamVeraSans-Roman-30"/>
      </g>
     </g>
    </g>
    <g id="text_7">
     <!-- iterations -->
     <defs>
      <path d="M 54.890625 33.015625 
L 54.890625 0 
L 45.90625 0 
L 45.90625 32.71875 
Q 45.90625 40.484375 42.875 44.328125 
Q 39.84375 48.1875 33.796875 48.1875 
Q 26.515625 48.1875 22.3125 43.546875 
Q 18.109375 38.921875 18.109375 30.90625 
L 18.109375 0 
L 9.078125 0 
L 9.078125 54.6875 
L 18.109375 54.6875 
L 18.109375 46.1875 
Q 21.34375 51.125 25.703125 53.5625 
Q 30.078125 56 35.796875 56 
Q 45.21875 56 50.046875 50.171875 
Q 54.890625 44.34375 54.890625 33.015625 
" id="BitstreamVeraSans-Roman-6e"/>
      <path d="M 34.28125 27.484375 
Q 23.390625 27.484375 19.1875 25 
Q 14.984375 22.515625 14.984375 16.5 
Q 14.984375 11.71875 18.140625 8.90625 
Q 21.296875 6.109375 26.703125 6.109375 
Q 34.1875 6.109375 38.703125 11.40625 
Q 43.21875 16.703125 43.21875 25.484375 
L 43.21875 27.484375 
z
M 52.203125 31.203125 
L 52.203125 0 
L 43.21875 0 
L 43.21875 8.296875 
Q 40.140625 3.328125 35.546875 0.953125 
Q 30.953125 -1.421875 24.3125 -1.421875 
Q 15.921875 -1.421875 10.953125 3.296875 
Q 6 8.015625 6 15.921875 
Q 6 25.140625 12.171875 29.828125 
Q 18.359375 34.515625 30.609375 34.515625 
L 43.21875 34.515625 
L 43.21875 35.40625 
Q 43.21875 41.609375 39.140625 45 
Q 35.0625 48.390625 27.6875 48.390625 
Q 23 48.390625 18.546875 47.265625 
Q 14.109375 46.140625 10.015625 43.890625 
L 10.015625 52.203125 
Q 14.9375 54.109375 19.578125 55.046875 
Q 24.21875 56 28.609375 56 
Q 40.484375 56 46.34375 49.84375 
Q 52.203125 43.703125 52.203125 31.203125 
" id="BitstreamVeraSans-Roman-61"/>
      <path d="M 30.609375 48.390625 
Q 23.390625 48.390625 19.1875 42.75 
Q 14.984375 37.109375 14.984375 27.296875 
Q 14.984375 17.484375 19.15625 11.84375 
Q 23.34375 6.203125 30.609375 6.203125 
Q 37.796875 6.203125 41.984375 11.859375 
Q 46.1875 17.53125 46.1875 27.296875 
Q 46.1875 37.015625 41.984375 42.703125 
Q 37.796875 48.390625 30.609375 48.390625 
M 30.609375 56 
Q 42.328125 56 49.015625 48.375 
Q 55.71875 40.765625 55.71875 27.296875 
Q 55.71875 13.875 49.015625 6.21875 
Q 42.328125 -1.421875 30.609375 -1.421875 
Q 18.84375 -1.421875 12.171875 6.21875 
Q 5.515625 13.875 5.515625 27.296875 
Q 5.515625 40.765625 12.171875 48.375 
Q 18.84375 56 30.609375 56 
" id="BitstreamVeraSans-Roman-6f"/>
      <path d="M 9.421875 54.6875 
L 18.40625 54.6875 
L 18.40625 0 
L 9.421875 0 
z
M 9.421875 75.984375 
L 18.40625 75.984375 
L 18.40625 64.59375 
L 9.421875 64.59375 
z
" id="BitstreamVeraSans-Roman-69"/>
      <path d="M 56.203125 29.59375 
L 56.203125 25.203125 
L 14.890625 25.203125 
Q 15.484375 15.921875 20.484375 11.0625 
Q 25.484375 6.203125 34.421875 6.203125 
Q 39.59375 6.203125 44.453125 7.46875 
Q 49.3125 8.734375 54.109375 11.28125 
L 54.109375 2.78125 
Q 49.265625 0.734375 44.1875 -0.34375 
Q 39.109375 -1.421875 33.890625 -1.421875 
Q 20.796875 -1.421875 13.15625 6.1875 
Q 5.515625 13.8125 5.515625 26.8125 
Q 5.515625 40.234375 12.765625 48.109375 
Q 20.015625 56 32.328125 56 
Q 43.359375 56 49.78125 48.890625 
Q 56.203125 41.796875 56.203125 29.59375 
M 47.21875 32.234375 
Q 47.125 39.59375 43.09375 43.984375 
Q 39.0625 48.390625 32.421875 48.390625 
Q 24.90625 48.390625 20.390625 44.140625 
Q 15.875 39.890625 15.1875 32.171875 
z
" id="BitstreamVeraSans-Roman-65"/>
      <path d="M 18.3125 70.21875 
L 18.3125 54.6875 
L 36.8125 54.6875 
L 36.8125 47.703125 
L 18.3125 47.703125 
L 18.3125 18.015625 
Q 18.3125 11.328125 20.140625 9.421875 
Q 21.96875 7.515625 27.59375 7.515625 
L 36.8125 7.515625 
L 36.8125 0 
L 27.59375 0 
Q 17.1875 0 13.234375 3.875 
Q 9.28125 7.765625 9.28125 18.015625 
L 9.28125 47.703125 
L 2.6875 47.703125 
L 2.6875 54.6875 
L 9.28125 54.6875 
L 9.28125 70.21875 
z
" id="BitstreamVeraSans-Roman-74"/>
      <path d="M 41.109375 46.296875 
Q 39.59375 47.171875 37.8125 47.578125 
Q 36.03125 48 33.890625 48 
Q 26.265625 48 22.1875 43.046875 
Q 18.109375 38.09375 18.109375 28.8125 
L 18.109375 0 
L 9.078125 0 
L 9.078125 54.6875 
L 18.109375 54.6875 
L 18.109375 46.1875 
Q 20.953125 51.171875 25.484375 53.578125 
Q 30.03125 56 36.53125 56 
Q 37.453125 56 38.578125 55.875 
Q 39.703125 55.765625 41.0625 55.515625 
z
" id="BitstreamVeraSans-Roman-72"/>
      <path d="M 44.28125 53.078125 
L 44.28125 44.578125 
Q 40.484375 46.53125 36.375 47.5 
Q 32.28125 48.484375 27.875 48.484375 
Q 21.1875 48.484375 17.84375 46.4375 
Q 14.5 44.390625 14.5 40.28125 
Q 14.5 37.15625 16.890625 35.375 
Q 19.28125 33.59375 26.515625 31.984375 
L 29.59375 31.296875 
Q 39.15625 29.25 43.1875 25.515625 
Q 47.21875 21.78125 47.21875 15.09375 
Q 47.21875 7.46875 41.1875 3.015625 
Q 35.15625 -1.421875 24.609375 -1.421875 
Q 20.21875 -1.421875 15.453125 -0.5625 
Q 10.6875 0.296875 5.421875 2 
L 5.421875 11.28125 
Q 10.40625 8.6875 15.234375 7.390625 
Q 20.0625 6.109375 24.8125 6.109375 
Q 31.15625 6.109375 34.5625 8.28125 
Q 37.984375 10.453125 37.984375 14.40625 
Q 37.984375 18.0625 35.515625 20.015625 
Q 33.0625 21.96875 24.703125 23.78125 
L 21.578125 24.515625 
Q 13.234375 26.265625 9.515625 29.90625 
Q 5.8125 33.546875 5.8125 39.890625 
Q 5.8125 47.609375 11.28125 51.796875 
Q 16.75 56 26.8125 56 
Q 31.78125 56 36.171875 55.265625 
Q 40.578125 54.546875 44.28125 53.078125 
" id="BitstreamVeraSans-Roman-73"/>
     </defs>
     <g transform="translate(693.93046875 807.8296875)scale(0.3 -0.3)">
      <use xlink:href="#BitstreamVeraSans-Roman-69"/>
      <use x="27.783203125" xlink:href="#BitstreamVeraSans-Roman-74"/>
      <use x="66.9921875" xlink:href="#BitstreamVeraSans-Roman-65"/>
      <use x="128.515625" xlink:href="#BitstreamVeraSans-Roman-72"/>
      <use x="169.62890625" xlink:href="#BitstreamVeraSans-Roman-61"/>
      <use x="230.908203125" xlink:href="#BitstreamVeraSans-Roman-74"/>
      <use x="270.1171875" xlink:href="#BitstreamVeraSans-Roman-69"/>
      <use x="297.900390625" xlink:href="#BitstreamVeraSans-Roman-6f"/>
      <use x="359.08203125" xlink:href="#BitstreamVeraSans-Roman-6e"/>
      <use x="422.4609375" xlink:href="#BitstreamVeraSans-Roman-73"/>
     </g>
    </g>
   </g>
   <g id="matplotlib.axis_2">
    <g id="ytick_1">
     <g id="line2d_15">
      <defs>
       <path d="M 0 0 
L 4 0 
" id="m9c3b64a3d7" style="stroke:#000000;stroke-width:0.5;"/>
      </defs>
      <g>
       <use style="stroke:#000000;stroke-width:0.5;" x="158.4" xlink:href="#m9c3b64a3d7" y="747.0"/>
      </g>
     </g>
     <g id="line2d_16">
      <defs>
       <path d="M 0 0 
L -4 0 
" id="m69ad76f125" style="stroke:#000000;stroke-width:0.5;"/>
      </defs>
      <g>
       <use style="stroke:#000000;stroke-width:0.5;" x="1371.825" xlink:href="#m69ad76f125" y="747.0"/>
      </g>
     </g>
     <g id="text_8">
      <!-- −40 -->
      <defs>
       <path d="M 10.59375 35.5 
L 73.1875 35.5 
L 73.1875 27.203125 
L 10.59375 27.203125 
z
" id="BitstreamVeraSans-Roman-2212"/>
      </defs>
      <g transform="translate(91.0859375 755.278125)scale(0.3 -0.3)">
       <use xlink:href="#BitstreamVeraSans-Roman-2212"/>
       <use x="83.7890625" xlink:href="#BitstreamVeraSans-Roman-34"/>
       <use x="147.412109375" xlink:href="#BitstreamVeraSans-Roman-30"/>
      </g>
     </g>
    </g>
    <g id="ytick_2">
     <g id="line2d_17">
      <g>
       <use style="stroke:#000000;stroke-width:0.5;" x="158.4" xlink:href="#m9c3b64a3d7" y="631.05"/>
      </g>
     </g>
     <g id="line2d_18">
      <g>
       <use style="stroke:#000000;stroke-width:0.5;" x="1371.825" xlink:href="#m69ad76f125" y="631.05"/>
      </g>
     </g>
     <g id="text_9">
      <!-- −30 -->
      <g transform="translate(91.0859375 639.328125)scale(0.3 -0.3)">
       <use xlink:href="#BitstreamVeraSans-Roman-2212"/>
       <use x="83.7890625" xlink:href="#BitstreamVeraSans-Roman-33"/>
       <use x="147.412109375" xlink:href="#BitstreamVeraSans-Roman-30"/>
      </g>
     </g>
    </g>
    <g id="ytick_3">
     <g id="line2d_19">
      <g>
       <use style="stroke:#000000;stroke-width:0.5;" x="158.4" xlink:href="#m9c3b64a3d7" y="515.1"/>
      </g>
     </g>
     <g id="line2d_20">
      <g>
       <use style="stroke:#000000;stroke-width:0.5;" x="1371.825" xlink:href="#m69ad76f125" y="515.1"/>
      </g>
     </g>
     <g id="text_10">
      <!-- −20 -->
      <g transform="translate(91.0859375 523.378125)scale(0.3 -0.3)">
       <use xlink:href="#BitstreamVeraSans-Roman-2212"/>
       <use x="83.7890625" xlink:href="#BitstreamVeraSans-Roman-32"/>
       <use x="147.412109375" xlink:href="#BitstreamVeraSans-Roman-30"/>
      </g>
     </g>
    </g>
    <g id="ytick_4">
     <g id="line2d_21">
      <g>
       <use style="stroke:#000000;stroke-width:0.5;" x="158.4" xlink:href="#m9c3b64a3d7" y="399.15"/>
      </g>
     </g>
     <g id="line2d_22">
      <g>
       <use style="stroke:#000000;stroke-width:0.5;" x="1371.825" xlink:href="#m69ad76f125" y="399.15"/>
      </g>
     </g>
     <g id="text_11">
      <!-- −10 -->
      <g transform="translate(91.0859375 407.428125)scale(0.3 -0.3)">
       <use xlink:href="#BitstreamVeraSans-Roman-2212"/>
       <use x="83.7890625" xlink:href="#BitstreamVeraSans-Roman-31"/>
       <use x="147.412109375" xlink:href="#BitstreamVeraSans-Roman-30"/>
      </g>
     </g>
    </g>
    <g id="ytick_5">
     <g id="line2d_23">
      <g>
       <use style="stroke:#000000;stroke-width:0.5;" x="158.4" xlink:href="#m9c3b64a3d7" y="283.2"/>
      </g>
     </g>
     <g id="line2d_24">
      <g>
       <use style="stroke:#000000;stroke-width:0.5;" x="1371.825" xlink:href="#m69ad76f125" y="283.2"/>
      </g>
     </g>
     <g id="text_12">
      <!-- 0 -->
      <g transform="translate(135.3125 291.478125)scale(0.3 -0.3)">
       <use xlink:href="#BitstreamVeraSans-Roman-30"/>
      </g>
     </g>
    </g>
    <g id="ytick_6">
     <g id="line2d_25">
      <g>
       <use style="stroke:#000000;stroke-width:0.5;" x="158.4" xlink:href="#m9c3b64a3d7" y="167.25"/>
      </g>
     </g>
     <g id="line2d_26">
      <g>
       <use style="stroke:#000000;stroke-width:0.5;" x="1371.825" xlink:href="#m69ad76f125" y="167.25"/>
      </g>
     </g>
     <g id="text_13">
      <!-- 10 -->
      <g transform="translate(116.225 175.528125)scale(0.3 -0.3)">
       <use xlink:href="#BitstreamVeraSans-Roman-31"/>
       <use x="63.623046875" xlink:href="#BitstreamVeraSans-Roman-30"/>
      </g>
     </g>
    </g>
    <g id="ytick_7">
     <g id="line2d_27">
      <g>
       <use style="stroke:#000000;stroke-width:0.5;" x="158.4" xlink:href="#m9c3b64a3d7" y="51.3"/>
      </g>
     </g>
     <g id="line2d_28">
      <g>
       <use style="stroke:#000000;stroke-width:0.5;" x="1371.825" xlink:href="#m69ad76f125" y="51.3"/>
      </g>
     </g>
     <g id="text_14">
      <!-- 20 -->
      <g transform="translate(116.225 59.578125)scale(0.3 -0.3)">
       <use xlink:href="#BitstreamVeraSans-Roman-32"/>
       <use x="63.623046875" xlink:href="#BitstreamVeraSans-Roman-30"/>
      </g>
     </g>
    </g>
    <g id="text_15">
     <!-- log(loss) -->
     <defs>
      <path d="M 8.015625 75.875 
L 15.828125 75.875 
Q 23.140625 64.359375 26.78125 53.3125 
Q 30.421875 42.28125 30.421875 31.390625 
Q 30.421875 20.453125 26.78125 9.375 
Q 23.140625 -1.703125 15.828125 -13.1875 
L 8.015625 -13.1875 
Q 14.5 -2 17.703125 9.0625 
Q 20.90625 20.125 20.90625 31.390625 
Q 20.90625 42.671875 17.703125 53.65625 
Q 14.5 64.65625 8.015625 75.875 
" id="BitstreamVeraSans-Roman-29"/>
      <path d="M 31 75.875 
Q 24.46875 64.65625 21.28125 53.65625 
Q 18.109375 42.671875 18.109375 31.390625 
Q 18.109375 20.125 21.3125 9.0625 
Q 24.515625 -2 31 -13.1875 
L 23.1875 -13.1875 
Q 15.875 -1.703125 12.234375 9.375 
Q 8.59375 20.453125 8.59375 31.390625 
Q 8.59375 42.28125 12.203125 53.3125 
Q 15.828125 64.359375 23.1875 75.875 
z
" id="BitstreamVeraSans-Roman-28"/>
      <path d="M 45.40625 27.984375 
Q 45.40625 37.75 41.375 43.109375 
Q 37.359375 48.484375 30.078125 48.484375 
Q 22.859375 48.484375 18.828125 43.109375 
Q 14.796875 37.75 14.796875 27.984375 
Q 14.796875 18.265625 18.828125 12.890625 
Q 22.859375 7.515625 30.078125 7.515625 
Q 37.359375 7.515625 41.375 12.890625 
Q 45.40625 18.265625 45.40625 27.984375 
M 54.390625 6.78125 
Q 54.390625 -7.171875 48.1875 -13.984375 
Q 42 -20.796875 29.203125 -20.796875 
Q 24.46875 -20.796875 20.265625 -20.09375 
Q 16.0625 -19.390625 12.109375 -17.921875 
L 12.109375 -9.1875 
Q 16.0625 -11.328125 19.921875 -12.34375 
Q 23.78125 -13.375 27.78125 -13.375 
Q 36.625 -13.375 41.015625 -8.765625 
Q 45.40625 -4.15625 45.40625 5.171875 
L 45.40625 9.625 
Q 42.625 4.78125 38.28125 2.390625 
Q 33.9375 0 27.875 0 
Q 17.828125 0 11.671875 7.65625 
Q 5.515625 15.328125 5.515625 27.984375 
Q 5.515625 40.671875 11.671875 48.328125 
Q 17.828125 56 27.875 56 
Q 33.9375 56 38.28125 53.609375 
Q 42.625 51.21875 45.40625 46.390625 
L 45.40625 54.6875 
L 54.390625 54.6875 
z
" id="BitstreamVeraSans-Roman-67"/>
      <path d="M 9.421875 75.984375 
L 18.40625 75.984375 
L 18.40625 0 
L 9.421875 0 
z
" id="BitstreamVeraSans-Roman-6c"/>
     </defs>
     <g transform="translate(79.846875 462.69609375)rotate(-90.0)scale(0.3 -0.3)">
      <use xlink:href="#BitstreamVeraSans-Roman-6c"/>
      <use x="27.783203125" xlink:href="#BitstreamVeraSans-Roman-6f"/>
      <use x="88.96484375" xlink:href="#BitstreamVeraSans-Roman-67"/>
      <use x="152.44140625" xlink:href="#BitstreamVeraSans-Roman-28"/>
      <use x="191.455078125" xlink:href="#BitstreamVeraSans-Roman-6c"/>
      <use x="219.23828125" xlink:href="#BitstreamVeraSans-Roman-6f"/>
      <use x="280.419921875" xlink:href="#BitstreamVeraSans-Roman-73"/>
      <use x="332.51953125" xlink:href="#BitstreamVeraSans-Roman-73"/>
      <use x="384.619140625" xlink:href="#BitstreamVeraSans-Roman-29"/>
     </g>
    </g>
   </g>
   <g id="legend_1">
    <g id="patch_7">
     <path d="M 879.651562 163.36875 
L 1356.825 163.36875 
L 1356.825 66.3 
L 879.651562 66.3 
z
" style="fill:#ffffff;stroke:#000000;stroke-linejoin:miter;"/>
    </g>
    <g id="line2d_29">
     <path d="M 900.651562 90.595312 
L 942.651562 90.595312 
" style="fill:none;stroke:#0000ff;stroke-linecap:square;stroke-width:2.0;"/>
    </g>
    <g id="line2d_30"/>
    <g id="text_16">
     <!-- random: step=0.004893 -->
     <defs>
      <path id="BitstreamVeraSans-Roman-20"/>
      <path d="M 52 44.1875 
Q 55.375 50.25 60.0625 53.125 
Q 64.75 56 71.09375 56 
Q 79.640625 56 84.28125 50.015625 
Q 88.921875 44.046875 88.921875 33.015625 
L 88.921875 0 
L 79.890625 0 
L 79.890625 32.71875 
Q 79.890625 40.578125 77.09375 44.375 
Q 74.3125 48.1875 68.609375 48.1875 
Q 61.625 48.1875 57.5625 43.546875 
Q 53.515625 38.921875 53.515625 30.90625 
L 53.515625 0 
L 44.484375 0 
L 44.484375 32.71875 
Q 44.484375 40.625 41.703125 44.40625 
Q 38.921875 48.1875 33.109375 48.1875 
Q 26.21875 48.1875 22.15625 43.53125 
Q 18.109375 38.875 18.109375 30.90625 
L 18.109375 0 
L 9.078125 0 
L 9.078125 54.6875 
L 18.109375 54.6875 
L 18.109375 46.1875 
Q 21.1875 51.21875 25.484375 53.609375 
Q 29.78125 56 35.6875 56 
Q 41.65625 56 45.828125 52.96875 
Q 50 49.953125 52 44.1875 
" id="BitstreamVeraSans-Roman-6d"/>
      <path d="M 31.78125 34.625 
Q 24.75 34.625 20.71875 30.859375 
Q 16.703125 27.09375 16.703125 20.515625 
Q 16.703125 13.921875 20.71875 10.15625 
Q 24.75 6.390625 31.78125 6.390625 
Q 38.8125 6.390625 42.859375 10.171875 
Q 46.921875 13.96875 46.921875 20.515625 
Q 46.921875 27.09375 42.890625 30.859375 
Q 38.875 34.625 31.78125 34.625 
M 21.921875 38.8125 
Q 15.578125 40.375 12.03125 44.71875 
Q 8.5 49.078125 8.5 55.328125 
Q 8.5 64.0625 14.71875 69.140625 
Q 20.953125 74.21875 31.78125 74.21875 
Q 42.671875 74.21875 48.875 69.140625 
Q 55.078125 64.0625 55.078125 55.328125 
Q 55.078125 49.078125 51.53125 44.71875 
Q 48 40.375 41.703125 38.8125 
Q 48.828125 37.15625 52.796875 32.3125 
Q 56.78125 27.484375 56.78125 20.515625 
Q 56.78125 9.90625 50.3125 4.234375 
Q 43.84375 -1.421875 31.78125 -1.421875 
Q 19.734375 -1.421875 13.25 4.234375 
Q 6.78125 9.90625 6.78125 20.515625 
Q 6.78125 27.484375 10.78125 32.3125 
Q 14.796875 37.15625 21.921875 38.8125 
M 18.3125 54.390625 
Q 18.3125 48.734375 21.84375 45.5625 
Q 25.390625 42.390625 31.78125 42.390625 
Q 38.140625 42.390625 41.71875 45.5625 
Q 45.3125 48.734375 45.3125 54.390625 
Q 45.3125 60.0625 41.71875 63.234375 
Q 38.140625 66.40625 31.78125 66.40625 
Q 25.390625 66.40625 21.84375 63.234375 
Q 18.3125 60.0625 18.3125 54.390625 
" id="BitstreamVeraSans-Roman-38"/>
      <path d="M 10.984375 1.515625 
L 10.984375 10.5 
Q 14.703125 8.734375 18.5 7.8125 
Q 22.3125 6.890625 25.984375 6.890625 
Q 35.75 6.890625 40.890625 13.453125 
Q 46.046875 20.015625 46.78125 33.40625 
Q 43.953125 29.203125 39.59375 26.953125 
Q 35.25 24.703125 29.984375 24.703125 
Q 19.046875 24.703125 12.671875 31.3125 
Q 6.296875 37.9375 6.296875 49.421875 
Q 6.296875 60.640625 12.9375 67.421875 
Q 19.578125 74.21875 30.609375 74.21875 
Q 43.265625 74.21875 49.921875 64.515625 
Q 56.59375 54.828125 56.59375 36.375 
Q 56.59375 19.140625 48.40625 8.859375 
Q 40.234375 -1.421875 26.421875 -1.421875 
Q 22.703125 -1.421875 18.890625 -0.6875 
Q 15.09375 0.046875 10.984375 1.515625 
M 30.609375 32.421875 
Q 37.25 32.421875 41.125 36.953125 
Q 45.015625 41.5 45.015625 49.421875 
Q 45.015625 57.28125 41.125 61.84375 
Q 37.25 66.40625 30.609375 66.40625 
Q 23.96875 66.40625 20.09375 61.84375 
Q 16.21875 57.28125 16.21875 49.421875 
Q 16.21875 41.5 20.09375 36.953125 
Q 23.96875 32.421875 30.609375 32.421875 
" id="BitstreamVeraSans-Roman-39"/>
      <path d="M 11.71875 12.40625 
L 22.015625 12.40625 
L 22.015625 0 
L 11.71875 0 
z
M 11.71875 51.703125 
L 22.015625 51.703125 
L 22.015625 39.3125 
L 11.71875 39.3125 
z
" id="BitstreamVeraSans-Roman-3a"/>
      <path d="M 10.6875 12.40625 
L 21 12.40625 
L 21 0 
L 10.6875 0 
z
" id="BitstreamVeraSans-Roman-2e"/>
      <path d="M 10.59375 45.40625 
L 73.1875 45.40625 
L 73.1875 37.203125 
L 10.59375 37.203125 
z
M 10.59375 25.484375 
L 73.1875 25.484375 
L 73.1875 17.1875 
L 10.59375 17.1875 
z
" id="BitstreamVeraSans-Roman-3d"/>
      <path d="M 45.40625 46.390625 
L 45.40625 75.984375 
L 54.390625 75.984375 
L 54.390625 0 
L 45.40625 0 
L 45.40625 8.203125 
Q 42.578125 3.328125 38.25 0.953125 
Q 33.9375 -1.421875 27.875 -1.421875 
Q 17.96875 -1.421875 11.734375 6.484375 
Q 5.515625 14.40625 5.515625 27.296875 
Q 5.515625 40.1875 11.734375 48.09375 
Q 17.96875 56 27.875 56 
Q 33.9375 56 38.25 53.625 
Q 42.578125 51.265625 45.40625 46.390625 
M 14.796875 27.296875 
Q 14.796875 17.390625 18.875 11.75 
Q 22.953125 6.109375 30.078125 6.109375 
Q 37.203125 6.109375 41.296875 11.75 
Q 45.40625 17.390625 45.40625 27.296875 
Q 45.40625 37.203125 41.296875 42.84375 
Q 37.203125 48.484375 30.078125 48.484375 
Q 22.953125 48.484375 18.875 42.84375 
Q 14.796875 37.203125 14.796875 27.296875 
" id="BitstreamVeraSans-Roman-64"/>
      <path d="M 18.109375 8.203125 
L 18.109375 -20.796875 
L 9.078125 -20.796875 
L 9.078125 54.6875 
L 18.109375 54.6875 
L 18.109375 46.390625 
Q 20.953125 51.265625 25.265625 53.625 
Q 29.59375 56 35.59375 56 
Q 45.5625 56 51.78125 48.09375 
Q 58.015625 40.1875 58.015625 27.296875 
Q 58.015625 14.40625 51.78125 6.484375 
Q 45.5625 -1.421875 35.59375 -1.421875 
Q 29.59375 -1.421875 25.265625 0.953125 
Q 20.953125 3.328125 18.109375 8.203125 
M 48.6875 27.296875 
Q 48.6875 37.203125 44.609375 42.84375 
Q 40.53125 48.484375 33.40625 48.484375 
Q 26.265625 48.484375 22.1875 42.84375 
Q 18.109375 37.203125 18.109375 27.296875 
Q 18.109375 17.390625 22.1875 11.75 
Q 26.265625 6.109375 33.40625 6.109375 
Q 40.53125 6.109375 44.609375 11.75 
Q 48.6875 17.390625 48.6875 27.296875 
" id="BitstreamVeraSans-Roman-70"/>
     </defs>
     <g transform="translate(975.6515625 101.0953125)scale(0.3 -0.3)">
      <use xlink:href="#BitstreamVeraSans-Roman-72"/>
      <use x="41.11328125" xlink:href="#BitstreamVeraSans-Roman-61"/>
      <use x="102.392578125" xlink:href="#BitstreamVeraSans-Roman-6e"/>
      <use x="165.771484375" xlink:href="#BitstreamVeraSans-Roman-64"/>
      <use x="229.248046875" xlink:href="#BitstreamVeraSans-Roman-6f"/>
      <use x="290.4296875" xlink:href="#BitstreamVeraSans-Roman-6d"/>
      <use x="387.841796875" xlink:href="#BitstreamVeraSans-Roman-3a"/>
      <use x="421.533203125" xlink:href="#BitstreamVeraSans-Roman-20"/>
      <use x="453.3203125" xlink:href="#BitstreamVeraSans-Roman-73"/>
      <use x="505.419921875" xlink:href="#BitstreamVeraSans-Roman-74"/>
      <use x="544.62890625" xlink:href="#BitstreamVeraSans-Roman-65"/>
      <use x="606.15234375" xlink:href="#BitstreamVeraSans-Roman-70"/>
      <use x="669.62890625" xlink:href="#BitstreamVeraSans-Roman-3d"/>
      <use x="753.41796875" xlink:href="#BitstreamVeraSans-Roman-30"/>
      <use x="817.041015625" xlink:href="#BitstreamVeraSans-Roman-2e"/>
      <use x="848.828125" xlink:href="#BitstreamVeraSans-Roman-30"/>
      <use x="912.451171875" xlink:href="#BitstreamVeraSans-Roman-30"/>
      <use x="976.07421875" xlink:href="#BitstreamVeraSans-Roman-34"/>
      <use x="1039.69726562" xlink:href="#BitstreamVeraSans-Roman-38"/>
      <use x="1103.3203125" xlink:href="#BitstreamVeraSans-Roman-39"/>
      <use x="1166.94335938" xlink:href="#BitstreamVeraSans-Roman-33"/>
     </g>
    </g>
    <g id="line2d_31">
     <path d="M 900.651562 134.629687 
L 942.651562 134.629687 
" style="fill:none;stroke:#008000;stroke-linecap:square;stroke-width:2.0;"/>
    </g>
    <g id="line2d_32"/>
    <g id="text_17">
     <!-- corr: step=0.004893 -->
     <defs>
      <path d="M 48.78125 52.59375 
L 48.78125 44.1875 
Q 44.96875 46.296875 41.140625 47.34375 
Q 37.3125 48.390625 33.40625 48.390625 
Q 24.65625 48.390625 19.8125 42.84375 
Q 14.984375 37.3125 14.984375 27.296875 
Q 14.984375 17.28125 19.8125 11.734375 
Q 24.65625 6.203125 33.40625 6.203125 
Q 37.3125 6.203125 41.140625 7.25 
Q 44.96875 8.296875 48.78125 10.40625 
L 48.78125 2.09375 
Q 45.015625 0.34375 40.984375 -0.53125 
Q 36.96875 -1.421875 32.421875 -1.421875 
Q 20.0625 -1.421875 12.78125 6.34375 
Q 5.515625 14.109375 5.515625 27.296875 
Q 5.515625 40.671875 12.859375 48.328125 
Q 20.21875 56 33.015625 56 
Q 37.15625 56 41.109375 55.140625 
Q 45.0625 54.296875 48.78125 52.59375 
" id="BitstreamVeraSans-Roman-63"/>
     </defs>
     <g transform="translate(975.6515625 145.1296875)scale(0.3 -0.3)">
      <use xlink:href="#BitstreamVeraSans-Roman-63"/>
      <use x="54.98046875" xlink:href="#BitstreamVeraSans-Roman-6f"/>
      <use x="116.162109375" xlink:href="#BitstreamVeraSans-Roman-72"/>
      <use x="157.259765625" xlink:href="#BitstreamVeraSans-Roman-72"/>
      <use x="198.357421875" xlink:href="#BitstreamVeraSans-Roman-3a"/>
      <use x="232.048828125" xlink:href="#BitstreamVeraSans-Roman-20"/>
      <use x="263.8359375" xlink:href="#BitstreamVeraSans-Roman-73"/>
      <use x="315.935546875" xlink:href="#BitstreamVeraSans-Roman-74"/>
      <use x="355.14453125" xlink:href="#BitstreamVeraSans-Roman-65"/>
      <use x="416.66796875" xlink:href="#BitstreamVeraSans-Roman-70"/>
      <use x="480.14453125" xlink:href="#BitstreamVeraSans-Roman-3d"/>
      <use x="563.93359375" xlink:href="#BitstreamVeraSans-Roman-30"/>
      <use x="627.556640625" xlink:href="#BitstreamVeraSans-Roman-2e"/>
      <use x="659.34375" xlink:href="#BitstreamVeraSans-Roman-30"/>
      <use x="722.966796875" xlink:href="#BitstreamVeraSans-Roman-30"/>
      <use x="786.58984375" xlink:href="#BitstreamVeraSans-Roman-34"/>
      <use x="850.212890625" xlink:href="#BitstreamVeraSans-Roman-38"/>
      <use x="913.8359375" xlink:href="#BitstreamVeraSans-Roman-39"/>
      <use x="977.458984375" xlink:href="#BitstreamVeraSans-Roman-33"/>
     </g>
    </g>
   </g>
  </g>
 </g>
 <defs>
  <clipPath id="p0fb909dd30">
   <rect height="695.7" width="1213.425" x="158.4" y="51.3"/>
  </clipPath>
 </defs>
</svg>
