<?xml version="1.0" encoding="utf-8" standalone="no"?>
<!DOCTYPE svg PUBLIC "-//W3C//DTD SVG 1.1//EN"
  "http://www.w3.org/Graphics/SVG/1.1/DTD/svg11.dtd">
<!-- Created with matplotlib (http://matplotlib.org/) -->
<svg height="864pt" version="1.1" viewBox="0 0 1440 864" width="1440pt" xmlns="http://www.w3.org/2000/svg" xmlns:xlink="http://www.w3.org/1999/xlink">
 <defs>
  <style type="text/css">
*{stroke-linecap:butt;stroke-linejoin:round;stroke-miterlimit:100000;}
  </style>
 </defs>
 <g id="figure_1">
  <g id="patch_1">
   <path d="M 0 864 
L 1440 864 
L 1440 0 
L 0 0 
z
" style="fill:#ffffff;"/>
  </g>
  <g id="axes_1">
   <g id="patch_2">
    <path d="M 158.4 747 
L 1371.825 747 
L 1371.825 51.3 
L 158.4 51.3 
z
" style="fill:#ffffff;"/>
   </g>
   <g id="line2d_1">
    <path clip-path="url(#p1d71b1fdcb)" d="M 158.4 119.317769 
L 160.82685 124.388391 
L 163.2537 130.939737 
L 168.1074 142.146114 
L 170.53425 148.191709 
L 172.9611 153.499335 
L 175.38795 158.302892 
L 177.8148 164.177431 
L 180.24165 169.365218 
L 185.09535 178.234942 
L 189.94905 186.995114 
L 192.3759 190.445811 
L 197.2296 195.310346 
L 199.65645 199.810859 
L 202.0833 205.509171 
L 204.51015 212.18807 
L 206.937 214.749335 
L 209.36385 221.848022 
L 211.7907 226.90667 
L 214.21755 231.384716 
L 216.6444 234.229022 
L 221.4981 243.323607 
L 228.77865 260.380841 
L 231.2055 264.335794 
L 233.63235 267.107591 
L 236.0592 270.657876 
L 238.48605 273.992394 
L 245.7666 290.004664 
L 248.19345 296.209822 
L 250.6203 300.906349 
L 253.04715 305.245627 
L 255.474 308.361282 
L 257.90085 313.420982 
L 260.3277 317.968436 
L 262.75455 321.244132 
L 265.1814 325.554726 
L 267.60825 330.369078 
L 270.0351 336.207451 
L 272.46195 340.090213 
L 274.8888 343.163623 
L 277.31565 347.795761 
L 282.16935 356.748332 
L 284.5962 360.356906 
L 287.02305 363.594231 
L 289.4499 369.393572 
L 291.87675 376.878514 
L 294.3036 381.459186 
L 296.73045 385.779757 
L 299.1573 387.658125 
L 301.58415 392.91059 
L 306.43785 400.700655 
L 308.8647 404.592467 
L 311.29155 408.159237 
L 313.7184 413.886039 
L 316.14525 417.54399 
L 318.5721 424.160273 
L 320.99895 424.76532 
L 323.4258 429.591074 
L 325.85265 431.874779 
L 328.2795 437.003463 
L 330.70635 441.83667 
L 333.1332 445.055827 
L 335.56005 448.69044 
L 337.9869 451.768833 
L 340.41375 456.404765 
L 342.8406 461.80299 
L 345.26745 465.393855 
L 347.6943 466.691371 
L 350.12115 470.546969 
L 352.548 475.173445 
L 354.97485 480.483382 
L 357.4017 485.115471 
L 359.82855 491.011468 
L 362.2554 496.482343 
L 364.68225 499.255424 
L 367.1091 502.374766 
L 369.53595 506.639891 
L 371.9628 510.418924 
L 374.38965 514.510938 
L 376.8165 519.240263 
L 381.6702 526.556007 
L 384.09705 531.285997 
L 386.5239 537.09053 
L 388.95075 541.878021 
L 391.3776 545.84082 
L 396.2313 554.582571 
L 398.65815 559.447709 
L 401.085 565.375927 
L 403.51185 570.518607 
L 405.9387 574.883992 
L 408.36555 579.845586 
L 410.7924 584.19631 
L 413.21925 589.154594 
L 415.6461 593.248367 
L 418.07295 595.481421 
L 420.4998 599.746902 
L 425.3535 607.641529 
L 430.2072 617.220603 
L 432.63405 623.719065 
L 435.0609 628.930595 
L 437.48775 633.169232 
L 439.9146 636.872909 
L 442.34145 642.227262 
L 444.7683 646.677111 
L 447.19515 649.614938 
L 449.622 655.529235 
L 452.04885 659.203167 
L 454.4757 659.426039 
L 459.3294 668.550315 
L 461.75625 673.032209 
L 464.1831 677.183094 
L 466.60995 680.226568 
L 469.0368 684.473054 
L 471.46365 688.373316 
L 473.8905 691.661207 
L 476.31735 693.4222 
L 478.7442 696.161391 
L 483.5979 704.628715 
L 486.02475 707.389712 
L 488.4516 710.695381 
L 490.87845 711.688786 
L 493.3053 712.455004 
L 495.73215 710.213518 
L 498.159 712.67819 
L 500.58585 712.471274 
L 503.0127 713.057751 
L 505.43955 713.767878 
L 507.8664 715.506103 
L 510.29325 715.071551 
L 512.7201 714.23968 
L 515.14695 715.105175 
L 517.5738 715.257759 
L 520.00065 716.039055 
L 522.4275 717.131736 
L 524.85435 716.37124 
L 527.2812 714.449622 
L 529.70805 710.595951 
L 534.56175 714.294178 
L 536.9886 715.694923 
L 539.41545 715.444745 
L 541.8423 713.093851 
L 544.26915 713.605935 
L 546.696 713.658973 
L 549.12285 714.169988 
L 551.5497 714.802392 
L 553.97655 715.65972 
L 556.4034 712.077366 
L 558.83025 713.046934 
L 561.2571 712.60669 
L 563.68395 710.93473 
L 566.1108 712.382625 
L 568.53765 713.332907 
L 570.9645 714.065548 
L 573.39135 716.0372 
L 575.8182 714.384437 
L 578.24505 715.424971 
L 580.6719 717.016863 
L 583.09875 714.305096 
L 585.5256 714.521392 
L 587.95245 715.877016 
L 590.3793 715.688092 
L 592.80615 714.271576 
L 595.233 714.70174 
L 597.65985 713.932137 
L 600.0867 712.506983 
L 602.51355 712.027347 
L 604.9404 712.53492 
L 607.36725 713.701193 
L 609.7941 715.879244 
L 612.22095 711.754256 
L 614.6478 713.23928 
L 617.07465 712.639888 
L 619.5015 712.598046 
L 621.92835 714.288418 
L 624.3552 714.006235 
L 626.78205 714.150144 
L 629.2089 714.630982 
L 631.63575 714.331525 
L 634.0626 715.209154 
L 636.48945 714.649486 
L 638.9163 715.822487 
L 641.34315 715.077841 
L 643.77 713.592739 
L 646.19685 713.66414 
L 648.6237 713.431572 
L 651.05055 714.809456 
L 653.4774 713.80098 
L 655.90425 712.455724 
L 658.3311 712.395196 
L 660.75795 713.422098 
L 663.1848 715.877271 
L 665.61165 713.928388 
L 668.0385 715.32777 
L 670.46535 717.264061 
L 672.8922 716.216856 
L 675.31905 717.119578 
L 677.7459 715.151289 
L 680.17275 715.921837 
L 682.5996 714.532875 
L 685.02645 715.675019 
L 687.4533 714.434557 
L 689.88015 714.656571 
L 692.307 717.152526 
L 694.73385 716.192158 
L 697.1607 715.597911 
L 699.58755 713.439271 
L 702.0144 711.905943 
L 704.44125 713.277723 
L 706.8681 715.782553 
L 709.29495 715.544416 
L 711.7218 717.830506 
L 714.14865 716.813534 
L 716.5755 717.488299 
L 719.00235 717.002394 
L 721.4292 717.096768 
L 723.85605 716.066829 
L 726.2829 717.351077 
L 728.70975 716.160986 
L 731.1366 717.320925 
L 733.56345 716.424122 
L 735.9903 717.789952 
L 740.844 716.757432 
L 743.27085 717.025031 
L 745.6977 715.901736 
L 748.12455 715.496911 
L 750.5514 713.548828 
L 752.97825 714.809125 
L 755.4051 715.137751 
L 760.2588 714.458294 
L 762.68565 715.112122 
L 765.1125 713.095813 
L 767.53935 712.958709 
L 769.9662 715.526118 
L 772.39305 715.687178 
L 774.8199 716.48517 
L 777.24675 717.088854 
L 779.6736 716.892631 
L 782.10045 718.141168 
L 784.5273 717.16338 
L 786.95415 717.037956 
L 789.381 714.871006 
L 791.80785 716.038343 
L 794.2347 714.658739 
L 796.66155 716.062587 
L 799.0884 719.068594 
L 801.51525 713.544632 
L 803.9421 713.246527 
L 806.36895 714.19264 
L 808.7958 713.740179 
L 811.22265 711.273712 
L 813.6495 712.968709 
L 816.07635 716.065512 
L 818.5032 716.269195 
L 820.93005 713.083929 
L 823.3569 712.977229 
L 825.78375 714.434668 
L 828.2106 713.747774 
L 830.63745 711.098429 
L 833.0643 714.324034 
L 835.49115 714.42583 
L 837.918 715.249759 
L 840.34485 716.866149 
L 842.7717 716.975608 
L 845.19855 714.448376 
L 847.6254 716.908694 
L 850.05225 716.676487 
L 852.4791 716.119453 
L 854.90595 717.226198 
L 857.3328 716.387745 
L 859.75965 717.859563 
L 862.1865 716.604107 
L 864.61335 716.621175 
L 867.0402 717.479524 
L 869.46705 716.708841 
L 871.8939 713.11727 
L 874.32075 713.416374 
L 876.7476 713.588808 
L 879.17445 714.381993 
L 881.6013 714.428279 
L 884.02815 714.091982 
L 888.88185 714.531308 
L 891.3087 712.898282 
L 893.73555 714.704794 
L 896.1624 716.210129 
L 898.58925 716.325539 
L 901.0161 715.29277 
L 903.44295 713.193151 
L 905.8698 717.151708 
L 908.29665 717.570111 
L 910.7235 716.135681 
L 915.5772 713.7629 
L 918.00405 714.97443 
L 920.4309 715.63808 
L 922.85775 716.482567 
L 925.2846 714.541352 
L 927.71145 716.068577 
L 930.1383 714.910099 
L 932.56515 716.313892 
L 934.992 716.989326 
L 937.41885 717.265595 
L 939.8457 718.135327 
L 942.27255 716.114533 
L 944.6994 716.678571 
L 947.12625 717.452664 
L 949.5531 716.201632 
L 951.97995 711.402986 
L 954.4068 714.575102 
L 956.83365 715.341479 
L 959.2605 713.237645 
L 961.68735 713.134497 
L 964.1142 713.162707 
L 966.54105 714.914085 
L 968.9679 712.262709 
L 971.39475 713.57059 
L 973.8216 716.482109 
L 976.24845 714.200222 
L 978.6753 715.773654 
L 981.10215 716.732746 
L 988.3827 714.404512 
L 990.80955 714.858788 
L 993.2364 715.451353 
L 995.66325 714.546501 
L 998.0901 714.455377 
L 1000.51695 715.132361 
L 1002.9438 715.667387 
L 1005.37065 713.471754 
L 1010.22435 715.781281 
L 1012.6512 714.810733 
L 1015.07805 715.665645 
L 1017.5049 711.828388 
L 1019.93175 711.510473 
L 1024.78545 713.19098 
L 1027.2123 714.571965 
L 1029.63915 714.683144 
L 1032.066 716.000963 
L 1034.49285 714.92999 
L 1036.9197 715.908303 
L 1039.34655 716.029133 
L 1041.7734 715.471988 
L 1044.20025 718.153225 
L 1046.6271 718.218635 
L 1049.05395 719.635808 
L 1051.4808 720.316008 
L 1053.90765 716.204774 
L 1056.3345 716.580771 
L 1058.76135 716.218599 
L 1063.61505 716.929805 
L 1066.0419 715.957968 
L 1068.46875 716.222428 
L 1070.8956 716.12343 
L 1073.32245 714.596125 
L 1075.7493 712.231661 
L 1078.17615 712.136633 
L 1080.603 712.669287 
L 1083.02985 713.611971 
L 1085.4567 715.810751 
L 1087.88355 715.938211 
L 1090.3104 715.178253 
L 1092.73725 715.964746 
L 1095.1641 712.336125 
L 1097.59095 714.415437 
L 1100.0178 715.437293 
L 1102.44465 714.867692 
L 1107.29835 714.238807 
L 1109.7252 716.497454 
L 1112.15205 718.924412 
L 1114.5789 714.504188 
L 1117.00575 712.233994 
L 1119.4326 713.296666 
L 1121.85945 713.638587 
L 1124.2863 715.993141 
L 1126.71315 715.966868 
L 1129.14 716.424485 
L 1131.56685 716.47261 
L 1133.9937 716.106388 
L 1136.42055 718.32336 
L 1138.8474 717.079976 
L 1141.27425 715.326565 
L 1143.7011 714.247643 
L 1146.12795 714.386882 
L 1148.5548 714.298305 
L 1150.98165 715.609043 
L 1153.4085 714.29748 
L 1155.83535 712.15833 
L 1158.2622 711.221602 
L 1160.68905 713.165713 
L 1163.1159 714.486829 
L 1165.54275 713.921878 
L 1167.9696 715.197768 
L 1170.39645 714.098688 
L 1172.8233 714.447621 
L 1175.25015 714.033856 
L 1177.677 715.731571 
L 1180.10385 711.908978 
L 1184.95755 710.614711 
L 1187.3844 712.467281 
L 1189.81125 713.781596 
L 1192.2381 716.128583 
L 1194.66495 716.001947 
L 1197.0918 716.466471 
L 1199.51865 716.375856 
L 1201.9455 715.103542 
L 1204.37235 707.357765 
L 1206.7992 710.162468 
L 1209.22605 709.703451 
L 1211.6529 711.834962 
L 1214.07975 710.962296 
L 1216.5066 713.964216 
L 1218.93345 715.038042 
L 1221.3603 714.493819 
L 1223.78715 713.586567 
L 1226.214 714.048914 
L 1228.64085 715.147699 
L 1231.0677 716.521339 
L 1233.49455 714.878863 
L 1235.9214 714.05652 
L 1238.34825 714.979388 
L 1240.7751 714.260523 
L 1243.20195 710.241755 
L 1245.6288 711.887484 
L 1248.05565 715.009907 
L 1250.4825 716.541787 
L 1252.90935 716.351061 
L 1255.3362 714.103955 
L 1257.76305 714.931106 
L 1260.1899 715.998774 
L 1262.61675 717.653475 
L 1265.0436 717.239514 
L 1267.47045 715.859283 
L 1269.8973 714.696599 
L 1272.32415 715.548974 
L 1274.751 717.116842 
L 1277.17785 717.656362 
L 1279.6047 716.505273 
L 1284.4584 715.157147 
L 1286.88525 716.696331 
L 1289.3121 717.023292 
L 1291.73895 713.832108 
L 1294.1658 713.547878 
L 1296.59265 712.690197 
L 1299.0195 713.833883 
L 1301.44635 713.577665 
L 1303.8732 716.104323 
L 1306.30005 718.17981 
L 1308.7269 713.565572 
L 1311.15375 713.535079 
L 1313.5806 714.645761 
L 1316.00745 713.721252 
L 1318.4343 711.573981 
L 1320.86115 714.009957 
L 1323.288 715.498949 
L 1325.71485 716.677879 
L 1328.1417 716.926552 
L 1330.56855 713.314131 
L 1332.9954 713.996254 
L 1335.42225 714.2485 
L 1337.8491 715.622789 
L 1340.27595 714.294867 
L 1342.7028 713.653473 
L 1345.12965 716.391964 
L 1347.5565 716.787781 
L 1349.98335 717.669189 
L 1352.4102 714.606476 
L 1354.83705 714.872579 
L 1357.2639 713.42135 
L 1359.69075 714.199063 
L 1362.1176 715.671592 
L 1364.54445 714.536034 
L 1366.9713 714.230318 
L 1369.39815 713.39585 
L 1369.39815 713.39585 
" style="fill:none;stroke:#0000ff;stroke-linecap:square;stroke-width:2.0;"/>
   </g>
   <g id="line2d_2">
    <path clip-path="url(#p1d71b1fdcb)" d="M 158.4 119.647792 
L 160.82685 123.301538 
L 163.2537 125.499835 
L 165.68055 130.303187 
L 168.1074 134.551301 
L 170.53425 140.408533 
L 172.9611 145.714178 
L 177.8148 153.519722 
L 180.24165 157.674977 
L 182.6685 162.362653 
L 185.09535 166.753466 
L 187.5222 170.674753 
L 189.94905 174.016888 
L 192.3759 178.993372 
L 194.80275 185.371385 
L 197.2296 187.925183 
L 199.65645 193.269284 
L 204.51015 202.27085 
L 206.937 206.298807 
L 209.36385 211.640882 
L 211.7907 215.06877 
L 216.6444 223.648346 
L 219.07125 227.035513 
L 221.4981 234.484533 
L 223.92495 241.318267 
L 226.3518 244.791375 
L 228.77865 249.985398 
L 231.2055 253.088693 
L 233.63235 257.010428 
L 236.0592 262.908597 
L 238.48605 268.362139 
L 240.9129 269.776649 
L 243.33975 272.621706 
L 245.7666 277.843293 
L 248.19345 282.775972 
L 253.04715 293.288221 
L 255.474 297.118348 
L 262.75455 312.640638 
L 265.1814 318.737411 
L 267.60825 322.768779 
L 270.0351 326.095436 
L 272.46195 330.44261 
L 274.8888 335.194829 
L 279.7425 341.414565 
L 284.5962 349.527451 
L 287.02305 352.30671 
L 289.4499 355.283983 
L 291.87675 358.653161 
L 294.3036 362.342436 
L 296.73045 365.726358 
L 299.1573 369.7418 
L 301.58415 374.194486 
L 306.43785 384.901219 
L 308.8647 388.883494 
L 311.29155 393.817001 
L 313.7184 397.263831 
L 316.14525 402.023321 
L 318.5721 406.480171 
L 320.99895 412.182755 
L 323.4258 417.337242 
L 328.2795 424.697363 
L 330.70635 429.87067 
L 333.1332 434.586721 
L 337.9869 446.071358 
L 340.41375 449.991465 
L 345.26745 460.621439 
L 347.6943 463.559958 
L 350.12115 466.702132 
L 352.548 472.230348 
L 354.97485 476.23529 
L 357.4017 481.851212 
L 359.82855 486.169602 
L 362.2554 492.958183 
L 364.68225 498.502696 
L 367.1091 501.798051 
L 369.53595 507.708734 
L 374.38965 516.341791 
L 376.8165 521.175343 
L 379.24335 526.284649 
L 381.6702 529.112987 
L 384.09705 533.047264 
L 386.5239 538.054931 
L 388.95075 543.553539 
L 391.3776 548.201013 
L 393.80445 551.346077 
L 398.65815 560.40499 
L 403.51185 568.579633 
L 405.9387 573.40081 
L 408.36555 575.991597 
L 410.7924 580.969044 
L 413.21925 585.269273 
L 415.6461 591.575038 
L 418.07295 596.166377 
L 420.4998 599.180747 
L 422.92665 604.422738 
L 425.3535 608.954036 
L 427.78035 610.786553 
L 430.2072 616.44305 
L 432.63405 619.736124 
L 435.0609 625.017 
L 437.48775 629.080617 
L 439.9146 633.577312 
L 442.34145 637.247463 
L 444.7683 641.986923 
L 447.19515 644.532937 
L 449.622 647.734693 
L 452.04885 651.995521 
L 454.4757 656.979765 
L 456.90255 660.217301 
L 459.3294 663.907927 
L 461.75625 669.039927 
L 464.1831 671.046305 
L 466.60995 676.364483 
L 469.0368 682.18142 
L 471.46365 687.528675 
L 473.8905 691.559309 
L 476.31735 691.513753 
L 478.7442 695.871879 
L 481.17105 699.27444 
L 483.5979 703.135504 
L 486.02475 706.497437 
L 488.4516 708.509463 
L 490.87845 711.290093 
L 493.3053 709.84134 
L 495.73215 707.21923 
L 498.159 708.717959 
L 500.58585 710.575742 
L 503.0127 713.523719 
L 505.43955 715.480029 
L 507.8664 717.196988 
L 510.29325 717.401181 
L 512.7201 720.138753 
L 515.14695 719.33414 
L 517.5738 719.52661 
L 520.00065 717.537092 
L 522.4275 714.981338 
L 524.85435 716.193828 
L 527.2812 717.001826 
L 529.70805 719.352554 
L 532.1349 717.805876 
L 534.56175 716.48049 
L 539.41545 714.334423 
L 541.8423 716.620245 
L 544.26915 716.603564 
L 549.12285 717.501391 
L 551.5497 715.621298 
L 553.97655 716.145225 
L 556.4034 716.286161 
L 558.83025 715.327046 
L 561.2571 716.493678 
L 563.68395 715.718292 
L 566.1108 716.093636 
L 568.53765 717.061937 
L 570.9645 716.555056 
L 573.39135 714.198887 
L 575.8182 713.274968 
L 578.24505 713.292846 
L 583.09875 713.749356 
L 585.5256 714.774036 
L 587.95245 715.339243 
L 590.3793 716.842891 
L 592.80615 718.166994 
L 595.233 716.110091 
L 597.65985 715.507059 
L 600.0867 716.39589 
L 602.51355 717.037272 
L 604.9404 715.266539 
L 607.36725 714.609544 
L 609.7941 713.594602 
L 612.22095 713.387083 
L 614.6478 713.472973 
L 617.07465 712.655396 
L 619.5015 713.393984 
L 621.92835 715.049104 
L 624.3552 715.451279 
L 626.78205 714.339923 
L 629.2089 714.689295 
L 631.63575 712.371749 
L 634.0626 713.467662 
L 636.48945 711.229615 
L 638.9163 712.696963 
L 641.34315 712.981882 
L 643.77 713.487655 
L 646.19685 711.649328 
L 648.6237 710.738486 
L 651.05055 712.231617 
L 653.4774 713.957821 
L 655.90425 712.158001 
L 658.3311 714.66882 
L 660.75795 715.100725 
L 663.1848 716.650157 
L 665.61165 715.145985 
L 668.0385 714.531059 
L 670.46535 715.14784 
L 672.8922 714.449531 
L 675.31905 716.430638 
L 677.7459 715.625308 
L 680.17275 716.156371 
L 682.5996 712.444889 
L 685.02645 713.752099 
L 687.4533 716.512921 
L 689.88015 715.771542 
L 692.307 715.18766 
L 694.73385 713.112043 
L 697.1607 713.702287 
L 699.58755 712.911386 
L 702.0144 713.800927 
L 704.44125 715.551421 
L 706.8681 714.761902 
L 709.29495 716.148436 
L 711.7218 715.333321 
L 714.14865 716.715586 
L 716.5755 714.781361 
L 719.00235 714.464254 
L 721.4292 713.340203 
L 723.85605 709.584091 
L 726.2829 711.365575 
L 728.70975 712.717695 
L 731.1366 711.225612 
L 733.56345 712.770347 
L 735.9903 712.380152 
L 738.41715 712.600071 
L 740.844 716.153292 
L 743.27085 716.391426 
L 745.6977 716.245971 
L 748.12455 717.031418 
L 750.5514 714.934572 
L 752.97825 715.504473 
L 755.4051 714.745203 
L 757.83195 713.862661 
L 760.2588 712.57752 
L 762.68565 713.247291 
L 765.1125 711.270848 
L 767.53935 710.550379 
L 769.9662 713.437378 
L 772.39305 714.344655 
L 774.8199 716.620076 
L 777.24675 715.657196 
L 779.6736 713.381114 
L 782.10045 713.245458 
L 784.5273 714.686288 
L 786.95415 712.830763 
L 789.381 715.465864 
L 791.80785 716.220562 
L 794.2347 714.929612 
L 796.66155 714.982263 
L 799.0884 714.539296 
L 801.51525 712.925385 
L 803.9421 715.767165 
L 806.36895 718.069722 
L 808.7958 718.797265 
L 811.22265 716.862787 
L 813.6495 717.089943 
L 816.07635 718.371081 
L 818.5032 718.158477 
L 820.93005 716.885844 
L 823.3569 718.583893 
L 825.78375 718.098409 
L 828.2106 716.374735 
L 833.0643 719.217864 
L 835.49115 717.923287 
L 837.918 717.119118 
L 840.34485 715.857845 
L 842.7717 715.31838 
L 845.19855 715.123449 
L 847.6254 716.624037 
L 850.05225 714.033695 
L 852.4791 715.064503 
L 854.90595 714.081763 
L 857.3328 713.94085 
L 859.75965 712.224028 
L 864.61335 712.08251 
L 867.0402 714.495389 
L 869.46705 714.09593 
L 871.8939 714.431712 
L 874.32075 716.115541 
L 876.7476 716.949101 
L 879.17445 716.185313 
L 881.6013 717.174608 
L 884.02815 713.517193 
L 886.455 715.44065 
L 888.88185 713.902981 
L 891.3087 715.116793 
L 893.73555 714.714756 
L 896.1624 716.604299 
L 898.58925 717.145603 
L 901.0161 714.010965 
L 903.44295 717.015675 
L 905.8698 718.452541 
L 908.29665 718.055664 
L 910.7235 715.062539 
L 913.15035 715.398821 
L 915.5772 714.454403 
L 918.00405 712.780783 
L 920.4309 713.193984 
L 922.85775 714.847487 
L 925.2846 716.892255 
L 927.71145 715.702985 
L 930.1383 715.840095 
L 932.56515 715.183841 
L 934.992 712.553914 
L 937.41885 715.30117 
L 939.8457 716.365478 
L 942.27255 716.605767 
L 944.6994 713.582283 
L 947.12625 714.760931 
L 949.5531 716.568474 
L 954.4068 716.037996 
L 956.83365 714.871011 
L 959.2605 715.246616 
L 961.68735 716.382668 
L 964.1142 715.076828 
L 966.54105 717.000798 
L 968.9679 713.351576 
L 971.39475 713.921883 
L 973.8216 714.709469 
L 976.24845 714.812866 
L 978.6753 712.416905 
L 981.10215 713.939091 
L 983.529 716.881547 
L 985.95585 716.159757 
L 988.3827 717.238049 
L 990.80955 716.234632 
L 993.2364 717.568781 
L 995.66325 715.618575 
L 998.0901 715.358533 
L 1000.51695 715.898229 
L 1002.9438 715.229556 
L 1005.37065 714.970998 
L 1007.7975 715.545852 
L 1010.22435 716.700154 
L 1012.6512 717.263258 
L 1017.5049 716.651608 
L 1019.93175 716.362274 
L 1022.3586 715.310303 
L 1024.78545 716.857658 
L 1027.2123 717.166208 
L 1029.63915 715.393744 
L 1032.066 716.071561 
L 1034.49285 716.534595 
L 1036.9197 713.44839 
L 1039.34655 711.919235 
L 1044.20025 716.470506 
L 1046.6271 716.870159 
L 1049.05395 714.36938 
L 1051.4808 715.580944 
L 1053.90765 715.166397 
L 1056.3345 715.150621 
L 1058.76135 715.507181 
L 1061.1882 715.59307 
L 1063.61505 716.703311 
L 1066.0419 716.505244 
L 1068.46875 716.768654 
L 1070.8956 716.26625 
L 1073.32245 717.8951 
L 1075.7493 715.757401 
L 1078.17615 715.65195 
L 1080.603 716.024438 
L 1083.02985 715.289586 
L 1085.4567 715.655145 
L 1087.88355 715.548064 
L 1090.3104 717.217987 
L 1092.73725 716.807542 
L 1095.1641 717.470861 
L 1097.59095 717.70925 
L 1100.0178 717.15597 
L 1102.44465 706.738095 
L 1104.8715 710.416056 
L 1107.29835 709.188911 
L 1109.7252 711.475414 
L 1112.15205 712.419157 
L 1114.5789 713.496883 
L 1117.00575 713.60149 
L 1121.85945 713.010186 
L 1124.2863 713.829298 
L 1126.71315 710.900966 
L 1129.14 712.01843 
L 1131.56685 714.374028 
L 1133.9937 715.886139 
L 1136.42055 715.443801 
L 1138.8474 716.497683 
L 1141.27425 714.391011 
L 1143.7011 713.018891 
L 1146.12795 710.998072 
L 1148.5548 713.803078 
L 1150.98165 715.692451 
L 1153.4085 716.259114 
L 1155.83535 715.349699 
L 1158.2622 715.501181 
L 1160.68905 715.373554 
L 1163.1159 716.305457 
L 1165.54275 716.433264 
L 1167.9696 716.078346 
L 1170.39645 713.628594 
L 1172.8233 713.440271 
L 1175.25015 713.940003 
L 1177.677 714.253709 
L 1180.10385 708.887666 
L 1184.95755 711.475476 
L 1187.3844 712.023942 
L 1189.81125 713.560091 
L 1192.2381 714.179543 
L 1194.66495 713.525642 
L 1197.0918 714.355674 
L 1201.9455 714.945586 
L 1204.37235 714.852826 
L 1206.7992 715.197356 
L 1209.22605 715.933369 
L 1211.6529 717.763912 
L 1214.07975 717.554293 
L 1216.5066 715.614941 
L 1218.93345 715.941111 
L 1221.3603 716.602877 
L 1223.78715 715.714581 
L 1226.214 715.876994 
L 1228.64085 714.674987 
L 1231.0677 716.216357 
L 1233.49455 714.017703 
L 1235.9214 711.512943 
L 1238.34825 714.986039 
L 1240.7751 715.075549 
L 1243.20195 715.498954 
L 1245.6288 716.465116 
L 1248.05565 716.266201 
L 1250.4825 714.850875 
L 1252.90935 714.784755 
L 1255.3362 714.355353 
L 1257.76305 715.555763 
L 1260.1899 718.380227 
L 1262.61675 717.776167 
L 1265.0436 716.607838 
L 1267.47045 715.816868 
L 1269.8973 716.999644 
L 1277.17785 716.673391 
L 1279.6047 714.614416 
L 1282.03155 714.963327 
L 1284.4584 714.020533 
L 1286.88525 713.640293 
L 1289.3121 707.380852 
L 1291.73895 710.498629 
L 1294.1658 712.78214 
L 1296.59265 713.327439 
L 1299.0195 714.496519 
L 1301.44635 713.345592 
L 1303.8732 713.995234 
L 1306.30005 714.172894 
L 1308.7269 717.17531 
L 1311.15375 714.475518 
L 1313.5806 713.748305 
L 1316.00745 715.036713 
L 1318.4343 714.406508 
L 1320.86115 714.98328 
L 1323.288 716.146443 
L 1325.71485 714.155092 
L 1328.1417 714.232894 
L 1330.56855 713.880682 
L 1332.9954 714.764508 
L 1335.42225 712.399262 
L 1337.8491 712.506625 
L 1340.27595 715.82455 
L 1342.7028 714.606071 
L 1345.12965 712.265707 
L 1347.5565 711.599954 
L 1349.98335 713.193764 
L 1352.4102 715.724842 
L 1354.83705 716.108349 
L 1357.2639 715.189895 
L 1359.69075 715.017129 
L 1362.1176 715.511209 
L 1366.9713 712.954708 
L 1369.39815 713.523383 
L 1369.39815 713.523383 
" style="fill:none;stroke:#008000;stroke-linecap:square;stroke-width:2.0;"/>
   </g>
   <g id="patch_3">
    <path d="M 158.4 51.3 
L 1371.825 51.3 
" style="fill:none;stroke:#000000;stroke-linecap:square;stroke-linejoin:miter;"/>
   </g>
   <g id="patch_4">
    <path d="M 1371.825 747 
L 1371.825 51.3 
" style="fill:none;stroke:#000000;stroke-linecap:square;stroke-linejoin:miter;"/>
   </g>
   <g id="patch_5">
    <path d="M 158.4 747 
L 1371.825 747 
" style="fill:none;stroke:#000000;stroke-linecap:square;stroke-linejoin:miter;"/>
   </g>
   <g id="patch_6">
    <path d="M 158.4 747 
L 158.4 51.3 
" style="fill:none;stroke:#000000;stroke-linecap:square;stroke-linejoin:miter;"/>
   </g>
   <g id="matplotlib.axis_1">
    <g id="xtick_1">
     <g id="line2d_3">
      <defs>
       <path d="M 0 0 
L 0 -4 
" id="m072d300fdb" style="stroke:#000000;stroke-width:0.5;"/>
      </defs>
      <g>
       <use style="stroke:#000000;stroke-width:0.5;" x="158.4" xlink:href="#m072d300fdb" y="747.0"/>
      </g>
     </g>
     <g id="line2d_4">
      <defs>
       <path d="M 0 0 
L 0 4 
" id="m65e400ffb2" style="stroke:#000000;stroke-width:0.5;"/>
      </defs>
      <g>
       <use style="stroke:#000000;stroke-width:0.5;" x="158.4" xlink:href="#m65e400ffb2" y="51.3"/>
      </g>
     </g>
     <g id="text_1">
      <!-- 0 -->
      <defs>
       <path d="M 31.78125 66.40625 
Q 24.171875 66.40625 20.328125 58.90625 
Q 16.5 51.421875 16.5 36.375 
Q 16.5 21.390625 20.328125 13.890625 
Q 24.171875 6.390625 31.78125 6.390625 
Q 39.453125 6.390625 43.28125 13.890625 
Q 47.125 21.390625 47.125 36.375 
Q 47.125 51.421875 43.28125 58.90625 
Q 39.453125 66.40625 31.78125 66.40625 
M 31.78125 74.21875 
Q 44.046875 74.21875 50.515625 64.515625 
Q 56.984375 54.828125 56.984375 36.375 
Q 56.984375 17.96875 50.515625 8.265625 
Q 44.046875 -1.421875 31.78125 -1.421875 
Q 19.53125 -1.421875 13.0625 8.265625 
Q 6.59375 17.96875 6.59375 36.375 
Q 6.59375 54.828125 13.0625 64.515625 
Q 19.53125 74.21875 31.78125 74.21875 
" id="BitstreamVeraSans-Roman-30"/>
      </defs>
      <g transform="translate(148.85625 773.7953125)scale(0.3 -0.3)">
       <use xlink:href="#BitstreamVeraSans-Roman-30"/>
      </g>
     </g>
    </g>
    <g id="xtick_2">
     <g id="line2d_5">
      <g>
       <use style="stroke:#000000;stroke-width:0.5;" x="401.085" xlink:href="#m072d300fdb" y="747.0"/>
      </g>
     </g>
     <g id="line2d_6">
      <g>
       <use style="stroke:#000000;stroke-width:0.5;" x="401.085" xlink:href="#m65e400ffb2" y="51.3"/>
      </g>
     </g>
     <g id="text_2">
      <!-- 100 -->
      <defs>
       <path d="M 12.40625 8.296875 
L 28.515625 8.296875 
L 28.515625 63.921875 
L 10.984375 60.40625 
L 10.984375 69.390625 
L 28.421875 72.90625 
L 38.28125 72.90625 
L 38.28125 8.296875 
L 54.390625 8.296875 
L 54.390625 0 
L 12.40625 0 
z
" id="BitstreamVeraSans-Roman-31"/>
      </defs>
      <g transform="translate(372.45375 773.7953125)scale(0.3 -0.3)">
       <use xlink:href="#BitstreamVeraSans-Roman-31"/>
       <use x="63.623046875" xlink:href="#BitstreamVeraSans-Roman-30"/>
       <use x="127.24609375" xlink:href="#BitstreamVeraSans-Roman-30"/>
      </g>
     </g>
    </g>
    <g id="xtick_3">
     <g id="line2d_7">
      <g>
       <use style="stroke:#000000;stroke-width:0.5;" x="643.77" xlink:href="#m072d300fdb" y="747.0"/>
      </g>
     </g>
     <g id="line2d_8">
      <g>
       <use style="stroke:#000000;stroke-width:0.5;" x="643.77" xlink:href="#m65e400ffb2" y="51.3"/>
      </g>
     </g>
     <g id="text_3">
      <!-- 200 -->
      <defs>
       <path d="M 19.1875 8.296875 
L 53.609375 8.296875 
L 53.609375 0 
L 7.328125 0 
L 7.328125 8.296875 
Q 12.9375 14.109375 22.625 23.890625 
Q 32.328125 33.6875 34.8125 36.53125 
Q 39.546875 41.84375 41.421875 45.53125 
Q 43.3125 49.21875 43.3125 52.78125 
Q 43.3125 58.59375 39.234375 62.25 
Q 35.15625 65.921875 28.609375 65.921875 
Q 23.96875 65.921875 18.8125 64.3125 
Q 13.671875 62.703125 7.8125 59.421875 
L 7.8125 69.390625 
Q 13.765625 71.78125 18.9375 73 
Q 24.125 74.21875 28.421875 74.21875 
Q 39.75 74.21875 46.484375 68.546875 
Q 53.21875 62.890625 53.21875 53.421875 
Q 53.21875 48.921875 51.53125 44.890625 
Q 49.859375 40.875 45.40625 35.40625 
Q 44.1875 33.984375 37.640625 27.21875 
Q 31.109375 20.453125 19.1875 8.296875 
" id="BitstreamVeraSans-Roman-32"/>
      </defs>
      <g transform="translate(615.13875 773.7953125)scale(0.3 -0.3)">
       <use xlink:href="#BitstreamVeraSans-Roman-32"/>
       <use x="63.623046875" xlink:href="#BitstreamVeraSans-Roman-30"/>
       <use x="127.24609375" xlink:href="#BitstreamVeraSans-Roman-30"/>
      </g>
     </g>
    </g>
    <g id="xtick_4">
     <g id="line2d_9">
      <g>
       <use style="stroke:#000000;stroke-width:0.5;" x="886.455" xlink:href="#m072d300fdb" y="747.0"/>
      </g>
     </g>
     <g id="line2d_10">
      <g>
       <use style="stroke:#000000;stroke-width:0.5;" x="886.455" xlink:href="#m65e400ffb2" y="51.3"/>
      </g>
     </g>
     <g id="text_4">
      <!-- 300 -->
      <defs>
       <path d="M 40.578125 39.3125 
Q 47.65625 37.796875 51.625 33 
Q 55.609375 28.21875 55.609375 21.1875 
Q 55.609375 10.40625 48.1875 4.484375 
Q 40.765625 -1.421875 27.09375 -1.421875 
Q 22.515625 -1.421875 17.65625 -0.515625 
Q 12.796875 0.390625 7.625 2.203125 
L 7.625 11.71875 
Q 11.71875 9.328125 16.59375 8.109375 
Q 21.484375 6.890625 26.8125 6.890625 
Q 36.078125 6.890625 40.9375 10.546875 
Q 45.796875 14.203125 45.796875 21.1875 
Q 45.796875 27.640625 41.28125 31.265625 
Q 36.765625 34.90625 28.71875 34.90625 
L 20.21875 34.90625 
L 20.21875 43.015625 
L 29.109375 43.015625 
Q 36.375 43.015625 40.234375 45.921875 
Q 44.09375 48.828125 44.09375 54.296875 
Q 44.09375 59.90625 40.109375 62.90625 
Q 36.140625 65.921875 28.71875 65.921875 
Q 24.65625 65.921875 20.015625 65.03125 
Q 15.375 64.15625 9.8125 62.3125 
L 9.8125 71.09375 
Q 15.4375 72.65625 20.34375 73.4375 
Q 25.25 74.21875 29.59375 74.21875 
Q 40.828125 74.21875 47.359375 69.109375 
Q 53.90625 64.015625 53.90625 55.328125 
Q 53.90625 49.265625 50.4375 45.09375 
Q 46.96875 40.921875 40.578125 39.3125 
" id="BitstreamVeraSans-Roman-33"/>
      </defs>
      <g transform="translate(857.82375 773.7953125)scale(0.3 -0.3)">
       <use xlink:href="#BitstreamVeraSans-Roman-33"/>
       <use x="63.623046875" xlink:href="#BitstreamVeraSans-Roman-30"/>
       <use x="127.24609375" xlink:href="#BitstreamVeraSans-Roman-30"/>
      </g>
     </g>
    </g>
    <g id="xtick_5">
     <g id="line2d_11">
      <g>
       <use style="stroke:#000000;stroke-width:0.5;" x="1129.14" xlink:href="#m072d300fdb" y="747.0"/>
      </g>
     </g>
     <g id="line2d_12">
      <g>
       <use style="stroke:#000000;stroke-width:0.5;" x="1129.14" xlink:href="#m65e400ffb2" y="51.3"/>
      </g>
     </g>
     <g id="text_5">
      <!-- 400 -->
      <defs>
       <path d="M 37.796875 64.3125 
L 12.890625 25.390625 
L 37.796875 25.390625 
z
M 35.203125 72.90625 
L 47.609375 72.90625 
L 47.609375 25.390625 
L 58.015625 25.390625 
L 58.015625 17.1875 
L 47.609375 17.1875 
L 47.609375 0 
L 37.796875 0 
L 37.796875 17.1875 
L 4.890625 17.1875 
L 4.890625 26.703125 
z
" id="BitstreamVeraSans-Roman-34"/>
      </defs>
      <g transform="translate(1100.50875 773.7953125)scale(0.3 -0.3)">
       <use xlink:href="#BitstreamVeraSans-Roman-34"/>
       <use x="63.623046875" xlink:href="#BitstreamVeraSans-Roman-30"/>
       <use x="127.24609375" xlink:href="#BitstreamVeraSans-Roman-30"/>
      </g>
     </g>
    </g>
    <g id="xtick_6">
     <g id="line2d_13">
      <g>
       <use style="stroke:#000000;stroke-width:0.5;" x="1371.825" xlink:href="#m072d300fdb" y="747.0"/>
      </g>
     </g>
     <g id="line2d_14">
      <g>
       <use style="stroke:#000000;stroke-width:0.5;" x="1371.825" xlink:href="#m65e400ffb2" y="51.3"/>
      </g>
     </g>
     <g id="text_6">
      <!-- 500 -->
      <defs>
       <path d="M 10.796875 72.90625 
L 49.515625 72.90625 
L 49.515625 64.59375 
L 19.828125 64.59375 
L 19.828125 46.734375 
Q 21.96875 47.46875 24.109375 47.828125 
Q 26.265625 48.1875 28.421875 48.1875 
Q 40.625 48.1875 47.75 41.5 
Q 54.890625 34.8125 54.890625 23.390625 
Q 54.890625 11.625 47.5625 5.09375 
Q 40.234375 -1.421875 26.90625 -1.421875 
Q 22.3125 -1.421875 17.546875 -0.640625 
Q 12.796875 0.140625 7.71875 1.703125 
L 7.71875 11.625 
Q 12.109375 9.234375 16.796875 8.0625 
Q 21.484375 6.890625 26.703125 6.890625 
Q 35.15625 6.890625 40.078125 11.328125 
Q 45.015625 15.765625 45.015625 23.390625 
Q 45.015625 31 40.078125 35.4375 
Q 35.15625 39.890625 26.703125 39.890625 
Q 22.75 39.890625 18.8125 39.015625 
Q 14.890625 38.140625 10.796875 36.28125 
z
" id="BitstreamVeraSans-Roman-35"/>
      </defs>
      <g transform="translate(1343.19375 773.7953125)scale(0.3 -0.3)">
       <use xlink:href="#BitstreamVeraSans-Roman-35"/>
       <use x="63.623046875" xlink:href="#BitstreamVeraSans-Roman-30"/>
       <use x="127.24609375" xlink:href="#BitstreamVeraSans-Roman-30"/>
      </g>
     </g>
    </g>
    <g id="text_7">
     <!-- iterations -->
     <defs>
      <path d="M 54.890625 33.015625 
L 54.890625 0 
L 45.90625 0 
L 45.90625 32.71875 
Q 45.90625 40.484375 42.875 44.328125 
Q 39.84375 48.1875 33.796875 48.1875 
Q 26.515625 48.1875 22.3125 43.546875 
Q 18.109375 38.921875 18.109375 30.90625 
L 18.109375 0 
L 9.078125 0 
L 9.078125 54.6875 
L 18.109375 54.6875 
L 18.109375 46.1875 
Q 21.34375 51.125 25.703125 53.5625 
Q 30.078125 56 35.796875 56 
Q 45.21875 56 50.046875 50.171875 
Q 54.890625 44.34375 54.890625 33.015625 
" id="BitstreamVeraSans-Roman-6e"/>
      <path d="M 34.28125 27.484375 
Q 23.390625 27.484375 19.1875 25 
Q 14.984375 22.515625 14.984375 16.5 
Q 14.984375 11.71875 18.140625 8.90625 
Q 21.296875 6.109375 26.703125 6.109375 
Q 34.1875 6.109375 38.703125 11.40625 
Q 43.21875 16.703125 43.21875 25.484375 
L 43.21875 27.484375 
z
M 52.203125 31.203125 
L 52.203125 0 
L 43.21875 0 
L 43.21875 8.296875 
Q 40.140625 3.328125 35.546875 0.953125 
Q 30.953125 -1.421875 24.3125 -1.421875 
Q 15.921875 -1.421875 10.953125 3.296875 
Q 6 8.015625 6 15.921875 
Q 6 25.140625 12.171875 29.828125 
Q 18.359375 34.515625 30.609375 34.515625 
L 43.21875 34.515625 
L 43.21875 35.40625 
Q 43.21875 41.609375 39.140625 45 
Q 35.0625 48.390625 27.6875 48.390625 
Q 23 48.390625 18.546875 47.265625 
Q 14.109375 46.140625 10.015625 43.890625 
L 10.015625 52.203125 
Q 14.9375 54.109375 19.578125 55.046875 
Q 24.21875 56 28.609375 56 
Q 40.484375 56 46.34375 49.84375 
Q 52.203125 43.703125 52.203125 31.203125 
" id="BitstreamVeraSans-Roman-61"/>
      <path d="M 30.609375 48.390625 
Q 23.390625 48.390625 19.1875 42.75 
Q 14.984375 37.109375 14.984375 27.296875 
Q 14.984375 17.484375 19.15625 11.84375 
Q 23.34375 6.203125 30.609375 6.203125 
Q 37.796875 6.203125 41.984375 11.859375 
Q 46.1875 17.53125 46.1875 27.296875 
Q 46.1875 37.015625 41.984375 42.703125 
Q 37.796875 48.390625 30.609375 48.390625 
M 30.609375 56 
Q 42.328125 56 49.015625 48.375 
Q 55.71875 40.765625 55.71875 27.296875 
Q 55.71875 13.875 49.015625 6.21875 
Q 42.328125 -1.421875 30.609375 -1.421875 
Q 18.84375 -1.421875 12.171875 6.21875 
Q 5.515625 13.875 5.515625 27.296875 
Q 5.515625 40.765625 12.171875 48.375 
Q 18.84375 56 30.609375 56 
" id="BitstreamVeraSans-Roman-6f"/>
      <path d="M 9.421875 54.6875 
L 18.40625 54.6875 
L 18.40625 0 
L 9.421875 0 
z
M 9.421875 75.984375 
L 18.40625 75.984375 
L 18.40625 64.59375 
L 9.421875 64.59375 
z
" id="BitstreamVeraSans-Roman-69"/>
      <path d="M 56.203125 29.59375 
L 56.203125 25.203125 
L 14.890625 25.203125 
Q 15.484375 15.921875 20.484375 11.0625 
Q 25.484375 6.203125 34.421875 6.203125 
Q 39.59375 6.203125 44.453125 7.46875 
Q 49.3125 8.734375 54.109375 11.28125 
L 54.109375 2.78125 
Q 49.265625 0.734375 44.1875 -0.34375 
Q 39.109375 -1.421875 33.890625 -1.421875 
Q 20.796875 -1.421875 13.15625 6.1875 
Q 5.515625 13.8125 5.515625 26.8125 
Q 5.515625 40.234375 12.765625 48.109375 
Q 20.015625 56 32.328125 56 
Q 43.359375 56 49.78125 48.890625 
Q 56.203125 41.796875 56.203125 29.59375 
M 47.21875 32.234375 
Q 47.125 39.59375 43.09375 43.984375 
Q 39.0625 48.390625 32.421875 48.390625 
Q 24.90625 48.390625 20.390625 44.140625 
Q 15.875 39.890625 15.1875 32.171875 
z
" id="BitstreamVeraSans-Roman-65"/>
      <path d="M 18.3125 70.21875 
L 18.3125 54.6875 
L 36.8125 54.6875 
L 36.8125 47.703125 
L 18.3125 47.703125 
L 18.3125 18.015625 
Q 18.3125 11.328125 20.140625 9.421875 
Q 21.96875 7.515625 27.59375 7.515625 
L 36.8125 7.515625 
L 36.8125 0 
L 27.59375 0 
Q 17.1875 0 13.234375 3.875 
Q 9.28125 7.765625 9.28125 18.015625 
L 9.28125 47.703125 
L 2.6875 47.703125 
L 2.6875 54.6875 
L 9.28125 54.6875 
L 9.28125 70.21875 
z
" id="BitstreamVeraSans-Roman-74"/>
      <path d="M 41.109375 46.296875 
Q 39.59375 47.171875 37.8125 47.578125 
Q 36.03125 48 33.890625 48 
Q 26.265625 48 22.1875 43.046875 
Q 18.109375 38.09375 18.109375 28.8125 
L 18.109375 0 
L 9.078125 0 
L 9.078125 54.6875 
L 18.109375 54.6875 
L 18.109375 46.1875 
Q 20.953125 51.171875 25.484375 53.578125 
Q 30.03125 56 36.53125 56 
Q 37.453125 56 38.578125 55.875 
Q 39.703125 55.765625 41.0625 55.515625 
z
" id="BitstreamVeraSans-Roman-72"/>
      <path d="M 44.28125 53.078125 
L 44.28125 44.578125 
Q 40.484375 46.53125 36.375 47.5 
Q 32.28125 48.484375 27.875 48.484375 
Q 21.1875 48.484375 17.84375 46.4375 
Q 14.5 44.390625 14.5 40.28125 
Q 14.5 37.15625 16.890625 35.375 
Q 19.28125 33.59375 26.515625 31.984375 
L 29.59375 31.296875 
Q 39.15625 29.25 43.1875 25.515625 
Q 47.21875 21.78125 47.21875 15.09375 
Q 47.21875 7.46875 41.1875 3.015625 
Q 35.15625 -1.421875 24.609375 -1.421875 
Q 20.21875 -1.421875 15.453125 -0.5625 
Q 10.6875 0.296875 5.421875 2 
L 5.421875 11.28125 
Q 10.40625 8.6875 15.234375 7.390625 
Q 20.0625 6.109375 24.8125 6.109375 
Q 31.15625 6.109375 34.5625 8.28125 
Q 37.984375 10.453125 37.984375 14.40625 
Q 37.984375 18.0625 35.515625 20.015625 
Q 33.0625 21.96875 24.703125 23.78125 
L 21.578125 24.515625 
Q 13.234375 26.265625 9.515625 29.90625 
Q 5.8125 33.546875 5.8125 39.890625 
Q 5.8125 47.609375 11.28125 51.796875 
Q 16.75 56 26.8125 56 
Q 31.78125 56 36.171875 55.265625 
Q 40.578125 54.546875 44.28125 53.078125 
" id="BitstreamVeraSans-Roman-73"/>
     </defs>
     <g transform="translate(693.93046875 807.8296875)scale(0.3 -0.3)">
      <use xlink:href="#BitstreamVeraSans-Roman-69"/>
      <use x="27.783203125" xlink:href="#BitstreamVeraSans-Roman-74"/>
      <use x="66.9921875" xlink:href="#BitstreamVeraSans-Roman-65"/>
      <use x="128.515625" xlink:href="#BitstreamVeraSans-Roman-72"/>
      <use x="169.62890625" xlink:href="#BitstreamVeraSans-Roman-61"/>
      <use x="230.908203125" xlink:href="#BitstreamVeraSans-Roman-74"/>
      <use x="270.1171875" xlink:href="#BitstreamVeraSans-Roman-69"/>
      <use x="297.900390625" xlink:href="#BitstreamVeraSans-Roman-6f"/>
      <use x="359.08203125" xlink:href="#BitstreamVeraSans-Roman-6e"/>
      <use x="422.4609375" xlink:href="#BitstreamVeraSans-Roman-73"/>
     </g>
    </g>
   </g>
   <g id="matplotlib.axis_2">
    <g id="ytick_1">
     <g id="line2d_15">
      <defs>
       <path d="M 0 0 
L 4 0 
" id="mb0f2d5db7b" style="stroke:#000000;stroke-width:0.5;"/>
      </defs>
      <g>
       <use style="stroke:#000000;stroke-width:0.5;" x="158.4" xlink:href="#mb0f2d5db7b" y="747.0"/>
      </g>
     </g>
     <g id="line2d_16">
      <defs>
       <path d="M 0 0 
L -4 0 
" id="m1666ad4858" style="stroke:#000000;stroke-width:0.5;"/>
      </defs>
      <g>
       <use style="stroke:#000000;stroke-width:0.5;" x="1371.825" xlink:href="#m1666ad4858" y="747.0"/>
      </g>
     </g>
     <g id="text_8">
      <!-- −60 -->
      <defs>
       <path d="M 10.59375 35.5 
L 73.1875 35.5 
L 73.1875 27.203125 
L 10.59375 27.203125 
z
" id="BitstreamVeraSans-Roman-2212"/>
       <path d="M 33.015625 40.375 
Q 26.375 40.375 22.484375 35.828125 
Q 18.609375 31.296875 18.609375 23.390625 
Q 18.609375 15.53125 22.484375 10.953125 
Q 26.375 6.390625 33.015625 6.390625 
Q 39.65625 6.390625 43.53125 10.953125 
Q 47.40625 15.53125 47.40625 23.390625 
Q 47.40625 31.296875 43.53125 35.828125 
Q 39.65625 40.375 33.015625 40.375 
M 52.59375 71.296875 
L 52.59375 62.3125 
Q 48.875 64.0625 45.09375 64.984375 
Q 41.3125 65.921875 37.59375 65.921875 
Q 27.828125 65.921875 22.671875 59.328125 
Q 17.53125 52.734375 16.796875 39.40625 
Q 19.671875 43.65625 24.015625 45.921875 
Q 28.375 48.1875 33.59375 48.1875 
Q 44.578125 48.1875 50.953125 41.515625 
Q 57.328125 34.859375 57.328125 23.390625 
Q 57.328125 12.15625 50.6875 5.359375 
Q 44.046875 -1.421875 33.015625 -1.421875 
Q 20.359375 -1.421875 13.671875 8.265625 
Q 6.984375 17.96875 6.984375 36.375 
Q 6.984375 53.65625 15.1875 63.9375 
Q 23.390625 74.21875 37.203125 74.21875 
Q 40.921875 74.21875 44.703125 73.484375 
Q 48.484375 72.75 52.59375 71.296875 
" id="BitstreamVeraSans-Roman-36"/>
      </defs>
      <g transform="translate(91.0859375 755.278125)scale(0.3 -0.3)">
       <use xlink:href="#BitstreamVeraSans-Roman-2212"/>
       <use x="83.7890625" xlink:href="#BitstreamVeraSans-Roman-36"/>
       <use x="147.412109375" xlink:href="#BitstreamVeraSans-Roman-30"/>
      </g>
     </g>
    </g>
    <g id="ytick_2">
     <g id="line2d_17">
      <g>
       <use style="stroke:#000000;stroke-width:0.5;" x="158.4" xlink:href="#mb0f2d5db7b" y="660.0375"/>
      </g>
     </g>
     <g id="line2d_18">
      <g>
       <use style="stroke:#000000;stroke-width:0.5;" x="1371.825" xlink:href="#m1666ad4858" y="660.0375"/>
      </g>
     </g>
     <g id="text_9">
      <!-- −50 -->
      <g transform="translate(91.0859375 668.315625)scale(0.3 -0.3)">
       <use xlink:href="#BitstreamVeraSans-Roman-2212"/>
       <use x="83.7890625" xlink:href="#BitstreamVeraSans-Roman-35"/>
       <use x="147.412109375" xlink:href="#BitstreamVeraSans-Roman-30"/>
      </g>
     </g>
    </g>
    <g id="ytick_3">
     <g id="line2d_19">
      <g>
       <use style="stroke:#000000;stroke-width:0.5;" x="158.4" xlink:href="#mb0f2d5db7b" y="573.075"/>
      </g>
     </g>
     <g id="line2d_20">
      <g>
       <use style="stroke:#000000;stroke-width:0.5;" x="1371.825" xlink:href="#m1666ad4858" y="573.075"/>
      </g>
     </g>
     <g id="text_10">
      <!-- −40 -->
      <g transform="translate(91.0859375 581.353125)scale(0.3 -0.3)">
       <use xlink:href="#BitstreamVeraSans-Roman-2212"/>
       <use x="83.7890625" xlink:href="#BitstreamVeraSans-Roman-34"/>
       <use x="147.412109375" xlink:href="#BitstreamVeraSans-Roman-30"/>
      </g>
     </g>
    </g>
    <g id="ytick_4">
     <g id="line2d_21">
      <g>
       <use style="stroke:#000000;stroke-width:0.5;" x="158.4" xlink:href="#mb0f2d5db7b" y="486.1125"/>
      </g>
     </g>
     <g id="line2d_22">
      <g>
       <use style="stroke:#000000;stroke-width:0.5;" x="1371.825" xlink:href="#m1666ad4858" y="486.1125"/>
      </g>
     </g>
     <g id="text_11">
      <!-- −30 -->
      <g transform="translate(91.0859375 494.390625)scale(0.3 -0.3)">
       <use xlink:href="#BitstreamVeraSans-Roman-2212"/>
       <use x="83.7890625" xlink:href="#BitstreamVeraSans-Roman-33"/>
       <use x="147.412109375" xlink:href="#BitstreamVeraSans-Roman-30"/>
      </g>
     </g>
    </g>
    <g id="ytick_5">
     <g id="line2d_23">
      <g>
       <use style="stroke:#000000;stroke-width:0.5;" x="158.4" xlink:href="#mb0f2d5db7b" y="399.15"/>
      </g>
     </g>
     <g id="line2d_24">
      <g>
       <use style="stroke:#000000;stroke-width:0.5;" x="1371.825" xlink:href="#m1666ad4858" y="399.15"/>
      </g>
     </g>
     <g id="text_12">
      <!-- −20 -->
      <g transform="translate(91.0859375 407.428125)scale(0.3 -0.3)">
       <use xlink:href="#BitstreamVeraSans-Roman-2212"/>
       <use x="83.7890625" xlink:href="#BitstreamVeraSans-Roman-32"/>
       <use x="147.412109375" xlink:href="#BitstreamVeraSans-Roman-30"/>
      </g>
     </g>
    </g>
    <g id="ytick_6">
     <g id="line2d_25">
      <g>
       <use style="stroke:#000000;stroke-width:0.5;" x="158.4" xlink:href="#mb0f2d5db7b" y="312.1875"/>
      </g>
     </g>
     <g id="line2d_26">
      <g>
       <use style="stroke:#000000;stroke-width:0.5;" x="1371.825" xlink:href="#m1666ad4858" y="312.1875"/>
      </g>
     </g>
     <g id="text_13">
      <!-- −10 -->
      <g transform="translate(91.0859375 320.465625)scale(0.3 -0.3)">
       <use xlink:href="#BitstreamVeraSans-Roman-2212"/>
       <use x="83.7890625" xlink:href="#BitstreamVeraSans-Roman-31"/>
       <use x="147.412109375" xlink:href="#BitstreamVeraSans-Roman-30"/>
      </g>
     </g>
    </g>
    <g id="ytick_7">
     <g id="line2d_27">
      <g>
       <use style="stroke:#000000;stroke-width:0.5;" x="158.4" xlink:href="#mb0f2d5db7b" y="225.225"/>
      </g>
     </g>
     <g id="line2d_28">
      <g>
       <use style="stroke:#000000;stroke-width:0.5;" x="1371.825" xlink:href="#m1666ad4858" y="225.225"/>
      </g>
     </g>
     <g id="text_14">
      <!-- 0 -->
      <g transform="translate(135.3125 233.503125)scale(0.3 -0.3)">
       <use xlink:href="#BitstreamVeraSans-Roman-30"/>
      </g>
     </g>
    </g>
    <g id="ytick_8">
     <g id="line2d_29">
      <g>
       <use style="stroke:#000000;stroke-width:0.5;" x="158.4" xlink:href="#mb0f2d5db7b" y="138.2625"/>
      </g>
     </g>
     <g id="line2d_30">
      <g>
       <use style="stroke:#000000;stroke-width:0.5;" x="1371.825" xlink:href="#m1666ad4858" y="138.2625"/>
      </g>
     </g>
     <g id="text_15">
      <!-- 10 -->
      <g transform="translate(116.225 146.540625)scale(0.3 -0.3)">
       <use xlink:href="#BitstreamVeraSans-Roman-31"/>
       <use x="63.623046875" xlink:href="#BitstreamVeraSans-Roman-30"/>
      </g>
     </g>
    </g>
    <g id="ytick_9">
     <g id="line2d_31">
      <g>
       <use style="stroke:#000000;stroke-width:0.5;" x="158.4" xlink:href="#mb0f2d5db7b" y="51.3"/>
      </g>
     </g>
     <g id="line2d_32">
      <g>
       <use style="stroke:#000000;stroke-width:0.5;" x="1371.825" xlink:href="#m1666ad4858" y="51.3"/>
      </g>
     </g>
     <g id="text_16">
      <!-- 20 -->
      <g transform="translate(116.225 59.578125)scale(0.3 -0.3)">
       <use xlink:href="#BitstreamVeraSans-Roman-32"/>
       <use x="63.623046875" xlink:href="#BitstreamVeraSans-Roman-30"/>
      </g>
     </g>
    </g>
    <g id="text_17">
     <!-- log(loss) -->
     <defs>
      <path d="M 8.015625 75.875 
L 15.828125 75.875 
Q 23.140625 64.359375 26.78125 53.3125 
Q 30.421875 42.28125 30.421875 31.390625 
Q 30.421875 20.453125 26.78125 9.375 
Q 23.140625 -1.703125 15.828125 -13.1875 
L 8.015625 -13.1875 
Q 14.5 -2 17.703125 9.0625 
Q 20.90625 20.125 20.90625 31.390625 
Q 20.90625 42.671875 17.703125 53.65625 
Q 14.5 64.65625 8.015625 75.875 
" id="BitstreamVeraSans-Roman-29"/>
      <path d="M 31 75.875 
Q 24.46875 64.65625 21.28125 53.65625 
Q 18.109375 42.671875 18.109375 31.390625 
Q 18.109375 20.125 21.3125 9.0625 
Q 24.515625 -2 31 -13.1875 
L 23.1875 -13.1875 
Q 15.875 -1.703125 12.234375 9.375 
Q 8.59375 20.453125 8.59375 31.390625 
Q 8.59375 42.28125 12.203125 53.3125 
Q 15.828125 64.359375 23.1875 75.875 
z
" id="BitstreamVeraSans-Roman-28"/>
      <path d="M 45.40625 27.984375 
Q 45.40625 37.75 41.375 43.109375 
Q 37.359375 48.484375 30.078125 48.484375 
Q 22.859375 48.484375 18.828125 43.109375 
Q 14.796875 37.75 14.796875 27.984375 
Q 14.796875 18.265625 18.828125 12.890625 
Q 22.859375 7.515625 30.078125 7.515625 
Q 37.359375 7.515625 41.375 12.890625 
Q 45.40625 18.265625 45.40625 27.984375 
M 54.390625 6.78125 
Q 54.390625 -7.171875 48.1875 -13.984375 
Q 42 -20.796875 29.203125 -20.796875 
Q 24.46875 -20.796875 20.265625 -20.09375 
Q 16.0625 -19.390625 12.109375 -17.921875 
L 12.109375 -9.1875 
Q 16.0625 -11.328125 19.921875 -12.34375 
Q 23.78125 -13.375 27.78125 -13.375 
Q 36.625 -13.375 41.015625 -8.765625 
Q 45.40625 -4.15625 45.40625 5.171875 
L 45.40625 9.625 
Q 42.625 4.78125 38.28125 2.390625 
Q 33.9375 0 27.875 0 
Q 17.828125 0 11.671875 7.65625 
Q 5.515625 15.328125 5.515625 27.984375 
Q 5.515625 40.671875 11.671875 48.328125 
Q 17.828125 56 27.875 56 
Q 33.9375 56 38.28125 53.609375 
Q 42.625 51.21875 45.40625 46.390625 
L 45.40625 54.6875 
L 54.390625 54.6875 
z
" id="BitstreamVeraSans-Roman-67"/>
      <path d="M 9.421875 75.984375 
L 18.40625 75.984375 
L 18.40625 0 
L 9.421875 0 
z
" id="BitstreamVeraSans-Roman-6c"/>
     </defs>
     <g transform="translate(79.846875 462.69609375)rotate(-90.0)scale(0.3 -0.3)">
      <use xlink:href="#BitstreamVeraSans-Roman-6c"/>
      <use x="27.783203125" xlink:href="#BitstreamVeraSans-Roman-6f"/>
      <use x="88.96484375" xlink:href="#BitstreamVeraSans-Roman-67"/>
      <use x="152.44140625" xlink:href="#BitstreamVeraSans-Roman-28"/>
      <use x="191.455078125" xlink:href="#BitstreamVeraSans-Roman-6c"/>
      <use x="219.23828125" xlink:href="#BitstreamVeraSans-Roman-6f"/>
      <use x="280.419921875" xlink:href="#BitstreamVeraSans-Roman-73"/>
      <use x="332.51953125" xlink:href="#BitstreamVeraSans-Roman-73"/>
      <use x="384.619140625" xlink:href="#BitstreamVeraSans-Roman-29"/>
     </g>
    </g>
   </g>
   <g id="legend_1">
    <g id="patch_7">
     <path d="M 879.651562 163.36875 
L 1356.825 163.36875 
L 1356.825 66.3 
L 879.651562 66.3 
z
" style="fill:#ffffff;stroke:#000000;stroke-linejoin:miter;"/>
    </g>
    <g id="line2d_33">
     <path d="M 900.651562 90.595312 
L 942.651562 90.595312 
" style="fill:none;stroke:#0000ff;stroke-linecap:square;stroke-width:2.0;"/>
    </g>
    <g id="line2d_34"/>
    <g id="text_18">
     <!-- random: step=0.009776 -->
     <defs>
      <path id="BitstreamVeraSans-Roman-20"/>
      <path d="M 8.203125 72.90625 
L 55.078125 72.90625 
L 55.078125 68.703125 
L 28.609375 0 
L 18.3125 0 
L 43.21875 64.59375 
L 8.203125 64.59375 
z
" id="BitstreamVeraSans-Roman-37"/>
      <path d="M 52 44.1875 
Q 55.375 50.25 60.0625 53.125 
Q 64.75 56 71.09375 56 
Q 79.640625 56 84.28125 50.015625 
Q 88.921875 44.046875 88.921875 33.015625 
L 88.921875 0 
L 79.890625 0 
L 79.890625 32.71875 
Q 79.890625 40.578125 77.09375 44.375 
Q 74.3125 48.1875 68.609375 48.1875 
Q 61.625 48.1875 57.5625 43.546875 
Q 53.515625 38.921875 53.515625 30.90625 
L 53.515625 0 
L 44.484375 0 
L 44.484375 32.71875 
Q 44.484375 40.625 41.703125 44.40625 
Q 38.921875 48.1875 33.109375 48.1875 
Q 26.21875 48.1875 22.15625 43.53125 
Q 18.109375 38.875 18.109375 30.90625 
L 18.109375 0 
L 9.078125 0 
L 9.078125 54.6875 
L 18.109375 54.6875 
L 18.109375 46.1875 
Q 21.1875 51.21875 25.484375 53.609375 
Q 29.78125 56 35.6875 56 
Q 41.65625 56 45.828125 52.96875 
Q 50 49.953125 52 44.1875 
" id="BitstreamVeraSans-Roman-6d"/>
      <path d="M 10.984375 1.515625 
L 10.984375 10.5 
Q 14.703125 8.734375 18.5 7.8125 
Q 22.3125 6.890625 25.984375 6.890625 
Q 35.75 6.890625 40.890625 13.453125 
Q 46.046875 20.015625 46.78125 33.40625 
Q 43.953125 29.203125 39.59375 26.953125 
Q 35.25 24.703125 29.984375 24.703125 
Q 19.046875 24.703125 12.671875 31.3125 
Q 6.296875 37.9375 6.296875 49.421875 
Q 6.296875 60.640625 12.9375 67.421875 
Q 19.578125 74.21875 30.609375 74.21875 
Q 43.265625 74.21875 49.921875 64.515625 
Q 56.59375 54.828125 56.59375 36.375 
Q 56.59375 19.140625 48.40625 8.859375 
Q 40.234375 -1.421875 26.421875 -1.421875 
Q 22.703125 -1.421875 18.890625 -0.6875 
Q 15.09375 0.046875 10.984375 1.515625 
M 30.609375 32.421875 
Q 37.25 32.421875 41.125 36.953125 
Q 45.015625 41.5 45.015625 49.421875 
Q 45.015625 57.28125 41.125 61.84375 
Q 37.25 66.40625 30.609375 66.40625 
Q 23.96875 66.40625 20.09375 61.84375 
Q 16.21875 57.28125 16.21875 49.421875 
Q 16.21875 41.5 20.09375 36.953125 
Q 23.96875 32.421875 30.609375 32.421875 
" id="BitstreamVeraSans-Roman-39"/>
      <path d="M 11.71875 12.40625 
L 22.015625 12.40625 
L 22.015625 0 
L 11.71875 0 
z
M 11.71875 51.703125 
L 22.015625 51.703125 
L 22.015625 39.3125 
L 11.71875 39.3125 
z
" id="BitstreamVeraSans-Roman-3a"/>
      <path d="M 10.6875 12.40625 
L 21 12.40625 
L 21 0 
L 10.6875 0 
z
" id="BitstreamVeraSans-Roman-2e"/>
      <path d="M 10.59375 45.40625 
L 73.1875 45.40625 
L 73.1875 37.203125 
L 10.59375 37.203125 
z
M 10.59375 25.484375 
L 73.1875 25.484375 
L 73.1875 17.1875 
L 10.59375 17.1875 
z
" id="BitstreamVeraSans-Roman-3d"/>
      <path d="M 45.40625 46.390625 
L 45.40625 75.984375 
L 54.390625 75.984375 
L 54.390625 0 
L 45.40625 0 
L 45.40625 8.203125 
Q 42.578125 3.328125 38.25 0.953125 
Q 33.9375 -1.421875 27.875 -1.421875 
Q 17.96875 -1.421875 11.734375 6.484375 
Q 5.515625 14.40625 5.515625 27.296875 
Q 5.515625 40.1875 11.734375 48.09375 
Q 17.96875 56 27.875 56 
Q 33.9375 56 38.25 53.625 
Q 42.578125 51.265625 45.40625 46.390625 
M 14.796875 27.296875 
Q 14.796875 17.390625 18.875 11.75 
Q 22.953125 6.109375 30.078125 6.109375 
Q 37.203125 6.109375 41.296875 11.75 
Q 45.40625 17.390625 45.40625 27.296875 
Q 45.40625 37.203125 41.296875 42.84375 
Q 37.203125 48.484375 30.078125 48.484375 
Q 22.953125 48.484375 18.875 42.84375 
Q 14.796875 37.203125 14.796875 27.296875 
" id="BitstreamVeraSans-Roman-64"/>
      <path d="M 18.109375 8.203125 
L 18.109375 -20.796875 
L 9.078125 -20.796875 
L 9.078125 54.6875 
L 18.109375 54.6875 
L 18.109375 46.390625 
Q 20.953125 51.265625 25.265625 53.625 
Q 29.59375 56 35.59375 56 
Q 45.5625 56 51.78125 48.09375 
Q 58.015625 40.1875 58.015625 27.296875 
Q 58.015625 14.40625 51.78125 6.484375 
Q 45.5625 -1.421875 35.59375 -1.421875 
Q 29.59375 -1.421875 25.265625 0.953125 
Q 20.953125 3.328125 18.109375 8.203125 
M 48.6875 27.296875 
Q 48.6875 37.203125 44.609375 42.84375 
Q 40.53125 48.484375 33.40625 48.484375 
Q 26.265625 48.484375 22.1875 42.84375 
Q 18.109375 37.203125 18.109375 27.296875 
Q 18.109375 17.390625 22.1875 11.75 
Q 26.265625 6.109375 33.40625 6.109375 
Q 40.53125 6.109375 44.609375 11.75 
Q 48.6875 17.390625 48.6875 27.296875 
" id="BitstreamVeraSans-Roman-70"/>
     </defs>
     <g transform="translate(975.6515625 101.0953125)scale(0.3 -0.3)">
      <use xlink:href="#BitstreamVeraSans-Roman-72"/>
      <use x="41.11328125" xlink:href="#BitstreamVeraSans-Roman-61"/>
      <use x="102.392578125" xlink:href="#BitstreamVeraSans-Roman-6e"/>
      <use x="165.771484375" xlink:href="#BitstreamVeraSans-Roman-64"/>
      <use x="229.248046875" xlink:href="#BitstreamVeraSans-Roman-6f"/>
      <use x="290.4296875" xlink:href="#BitstreamVeraSans-Roman-6d"/>
      <use x="387.841796875" xlink:href="#BitstreamVeraSans-Roman-3a"/>
      <use x="421.533203125" xlink:href="#BitstreamVeraSans-Roman-20"/>
      <use x="453.3203125" xlink:href="#BitstreamVeraSans-Roman-73"/>
      <use x="505.419921875" xlink:href="#BitstreamVeraSans-Roman-74"/>
      <use x="544.62890625" xlink:href="#BitstreamVeraSans-Roman-65"/>
      <use x="606.15234375" xlink:href="#BitstreamVeraSans-Roman-70"/>
      <use x="669.62890625" xlink:href="#BitstreamVeraSans-Roman-3d"/>
      <use x="753.41796875" xlink:href="#BitstreamVeraSans-Roman-30"/>
      <use x="817.041015625" xlink:href="#BitstreamVeraSans-Roman-2e"/>
      <use x="848.828125" xlink:href="#BitstreamVeraSans-Roman-30"/>
      <use x="912.451171875" xlink:href="#BitstreamVeraSans-Roman-30"/>
      <use x="976.07421875" xlink:href="#BitstreamVeraSans-Roman-39"/>
      <use x="1039.69726562" xlink:href="#BitstreamVeraSans-Roman-37"/>
      <use x="1103.3203125" xlink:href="#BitstreamVeraSans-Roman-37"/>
      <use x="1166.94335938" xlink:href="#BitstreamVeraSans-Roman-36"/>
     </g>
    </g>
    <g id="line2d_35">
     <path d="M 900.651562 134.629687 
L 942.651562 134.629687 
" style="fill:none;stroke:#008000;stroke-linecap:square;stroke-width:2.0;"/>
    </g>
    <g id="line2d_36"/>
    <g id="text_19">
     <!-- corr: step=0.009776 -->
     <defs>
      <path d="M 48.78125 52.59375 
L 48.78125 44.1875 
Q 44.96875 46.296875 41.140625 47.34375 
Q 37.3125 48.390625 33.40625 48.390625 
Q 24.65625 48.390625 19.8125 42.84375 
Q 14.984375 37.3125 14.984375 27.296875 
Q 14.984375 17.28125 19.8125 11.734375 
Q 24.65625 6.203125 33.40625 6.203125 
Q 37.3125 6.203125 41.140625 7.25 
Q 44.96875 8.296875 48.78125 10.40625 
L 48.78125 2.09375 
Q 45.015625 0.34375 40.984375 -0.53125 
Q 36.96875 -1.421875 32.421875 -1.421875 
Q 20.0625 -1.421875 12.78125 6.34375 
Q 5.515625 14.109375 5.515625 27.296875 
Q 5.515625 40.671875 12.859375 48.328125 
Q 20.21875 56 33.015625 56 
Q 37.15625 56 41.109375 55.140625 
Q 45.0625 54.296875 48.78125 52.59375 
" id="BitstreamVeraSans-Roman-63"/>
     </defs>
     <g transform="translate(975.6515625 145.1296875)scale(0.3 -0.3)">
      <use xlink:href="#BitstreamVeraSans-Roman-63"/>
      <use x="54.98046875" xlink:href="#BitstreamVeraSans-Roman-6f"/>
      <use x="116.162109375" xlink:href="#BitstreamVeraSans-Roman-72"/>
      <use x="157.259765625" xlink:href="#BitstreamVeraSans-Roman-72"/>
      <use x="198.357421875" xlink:href="#BitstreamVeraSans-Roman-3a"/>
      <use x="232.048828125" xlink:href="#BitstreamVeraSans-Roman-20"/>
      <use x="263.8359375" xlink:href="#BitstreamVeraSans-Roman-73"/>
      <use x="315.935546875" xlink:href="#BitstreamVeraSans-Roman-74"/>
      <use x="355.14453125" xlink:href="#BitstreamVeraSans-Roman-65"/>
      <use x="416.66796875" xlink:href="#BitstreamVeraSans-Roman-70"/>
      <use x="480.14453125" xlink:href="#BitstreamVeraSans-Roman-3d"/>
      <use x="563.93359375" xlink:href="#BitstreamVeraSans-Roman-30"/>
      <use x="627.556640625" xlink:href="#BitstreamVeraSans-Roman-2e"/>
      <use x="659.34375" xlink:href="#BitstreamVeraSans-Roman-30"/>
      <use x="722.966796875" xlink:href="#BitstreamVeraSans-Roman-30"/>
      <use x="786.58984375" xlink:href="#BitstreamVeraSans-Roman-39"/>
      <use x="850.212890625" xlink:href="#BitstreamVeraSans-Roman-37"/>
      <use x="913.8359375" xlink:href="#BitstreamVeraSans-Roman-37"/>
      <use x="977.458984375" xlink:href="#BitstreamVeraSans-Roman-36"/>
     </g>
    </g>
   </g>
  </g>
 </g>
 <defs>
  <clipPath id="p1d71b1fdcb">
   <rect height="695.7" width="1213.425" x="158.4" y="51.3"/>
  </clipPath>
 </defs>
</svg>
