<?xml version="1.0" encoding="utf-8" standalone="no"?>
<!DOCTYPE svg PUBLIC "-//W3C//DTD SVG 1.1//EN"
  "http://www.w3.org/Graphics/SVG/1.1/DTD/svg11.dtd">
<!-- Created with matplotlib (http://matplotlib.org/) -->
<svg height="864pt" version="1.1" viewBox="0 0 1440 864" width="1440pt" xmlns="http://www.w3.org/2000/svg" xmlns:xlink="http://www.w3.org/1999/xlink">
 <defs>
  <style type="text/css">
*{stroke-linecap:butt;stroke-linejoin:round;stroke-miterlimit:100000;}
  </style>
 </defs>
 <g id="figure_1">
  <g id="patch_1">
   <path d="M 0 864 
L 1440 864 
L 1440 0 
L 0 0 
z
" style="fill:#ffffff;"/>
  </g>
  <g id="axes_1">
   <g id="patch_2">
    <path d="M 70.7575 770.338125 
L 1373.2425 770.338125 
L 1373.2425 57.915781 
L 70.7575 57.915781 
z
" style="fill:#ffffff;"/>
   </g>
   <g id="line2d_1">
    <path clip-path="url(#p649972dc4c)" d="M 70.7575 92.841253 
L 72.059985 100.875484 
L 73.36247 102.876525 
L 74.664955 102.564053 
L 75.96744 108.330995 
L 77.269925 116.676681 
L 78.57241 121.127002 
L 79.874895 124.90331 
L 81.17738 126.083033 
L 83.78235 137.18165 
L 85.084835 142.173089 
L 86.38732 145.660333 
L 87.689805 144.841264 
L 88.99229 147.772716 
L 90.294775 154.709813 
L 92.899745 164.200733 
L 94.20223 163.765412 
L 95.504715 171.142391 
L 98.109685 179.461231 
L 99.41217 181.314079 
L 100.714655 188.689037 
L 102.01714 187.784104 
L 103.319625 189.855605 
L 104.62211 194.611275 
L 105.924595 192.809647 
L 107.22708 194.816735 
L 108.529565 193.713943 
L 109.83205 195.371402 
L 111.134535 199.238111 
L 112.43702 201.673061 
L 113.739505 206.24411 
L 115.04199 208.719387 
L 116.344475 209.648043 
L 117.64696 211.788648 
L 118.949445 210.749548 
L 120.25193 214.624449 
L 121.554415 226.365834 
L 122.8569 226.845575 
L 124.159385 232.462272 
L 125.46187 235.531545 
L 126.764355 232.152891 
L 128.06684 233.608374 
L 129.369325 237.796166 
L 130.67181 241.027051 
L 131.974295 243.072642 
L 133.27678 240.249899 
L 134.579265 239.698756 
L 135.88175 237.05202 
L 137.184235 246.05384 
L 138.48672 249.817122 
L 139.789205 247.095054 
L 141.09169 256.157846 
L 142.394175 258.725125 
L 143.69666 270.29619 
L 144.999145 267.405606 
L 146.30163 267.777492 
L 147.604115 270.961274 
L 148.9066 273.419573 
L 151.51157 283.306355 
L 152.814055 282.649986 
L 154.11654 284.400279 
L 155.419025 282.424322 
L 156.72151 289.091621 
L 158.023995 285.180688 
L 159.32648 285.409607 
L 160.628965 284.668391 
L 161.93145 292.841641 
L 163.233935 295.978322 
L 164.53642 300.278331 
L 165.838905 299.846461 
L 167.14139 310.396355 
L 168.443875 310.759728 
L 169.74636 312.384069 
L 171.048845 312.514903 
L 172.35133 309.422763 
L 173.653815 313.520973 
L 174.9563 313.190878 
L 177.56127 314.803841 
L 178.863755 314.436091 
L 180.16624 316.903551 
L 181.468725 316.617772 
L 182.77121 319.920114 
L 184.073695 320.135979 
L 185.37618 319.513504 
L 186.678665 320.422571 
L 187.98115 329.084234 
L 189.283635 326.988489 
L 190.58612 333.592237 
L 191.888605 336.508782 
L 193.19109 335.677735 
L 194.493575 333.414775 
L 195.79606 335.325344 
L 197.098545 336.885807 
L 198.40103 339.90449 
L 199.703515 343.382247 
L 201.006 346.173903 
L 202.308485 342.322066 
L 203.61097 346.214078 
L 204.913455 355.460425 
L 206.21594 358.265106 
L 207.518425 359.060319 
L 208.82091 361.155338 
L 210.123395 364.69178 
L 211.42588 367.279737 
L 212.728365 365.502139 
L 214.03085 373.282334 
L 215.333335 368.716361 
L 216.63582 369.129661 
L 217.938305 372.775103 
L 219.24079 373.981663 
L 220.543275 376.235187 
L 221.84576 378.12585 
L 223.148245 370.113425 
L 224.45073 371.249809 
L 225.753215 379.885925 
L 227.0557 381.376747 
L 228.358185 382.144587 
L 229.66067 386.19143 
L 230.963155 388.083936 
L 232.26564 386.178289 
L 233.568125 386.553332 
L 234.87061 392.734598 
L 236.173095 392.472485 
L 237.47558 395.524991 
L 238.778065 396.312264 
L 240.08055 390.179963 
L 241.383035 392.85166 
L 242.68552 393.017754 
L 243.988005 395.651916 
L 245.29049 396.652713 
L 246.592975 395.569101 
L 247.89546 397.664291 
L 249.197945 396.304271 
L 250.50043 396.638213 
L 251.802915 398.626347 
L 253.1054 394.399461 
L 254.407885 396.562349 
L 255.71037 393.799147 
L 257.012855 395.140864 
L 258.31534 393.573055 
L 259.617825 395.418189 
L 260.92031 396.9907 
L 262.222795 401.040551 
L 263.52528 398.069009 
L 264.827765 401.571813 
L 266.13025 404.595914 
L 267.432735 402.014518 
L 268.73522 391.92461 
L 270.037705 401.219366 
L 271.34019 373.766737 
L 272.642675 376.007859 
L 273.94516 346.915735 
L 275.247645 351.05817 
L 276.55013 353.213177 
L 277.852615 354.30425 
L 279.1551 373.830911 
L 280.457585 403.79721 
L 281.76007 405.908496 
L 283.062555 409.378685 
L 284.36504 410.324778 
L 285.667525 410.470408 
L 286.97001 412.232548 
L 288.272495 408.593642 
L 289.57498 409.64733 
L 290.877465 409.445525 
L 292.17995 408.020879 
L 293.482435 409.206659 
L 294.78492 411.208436 
L 296.087405 404.129225 
L 297.38989 404.677665 
L 298.692375 407.408239 
L 299.99486 407.551609 
L 301.297345 404.957487 
L 302.59983 406.743916 
L 303.902315 412.290141 
L 305.2048 411.452498 
L 306.507285 416.804143 
L 307.80977 415.337287 
L 309.112255 416.60412 
L 310.41474 419.111108 
L 311.717225 435.223542 
L 313.01971 435.937052 
L 314.322195 438.242306 
L 315.62468 437.147366 
L 316.927165 442.093574 
L 318.22965 442.418172 
L 319.532135 443.894311 
L 320.83462 447.93923 
L 322.137105 448.746466 
L 323.43959 447.80419 
L 324.742075 448.082095 
L 326.04456 448.145648 
L 327.347045 448.929948 
L 328.64953 449.014005 
L 329.952015 447.828958 
L 331.2545 450.21954 
L 332.556985 453.78454 
L 333.85947 454.691013 
L 335.161955 454.946436 
L 336.46444 456.684095 
L 337.766925 448.007518 
L 339.06941 445.650634 
L 340.371895 441.93757 
L 341.67438 441.768409 
L 342.976865 444.091134 
L 345.581835 446.070625 
L 346.88432 448.789144 
L 348.186805 449.695452 
L 349.48929 453.920865 
L 350.791775 452.851468 
L 352.09426 457.637327 
L 353.396745 448.691021 
L 354.69923 448.941327 
L 356.001715 450.131715 
L 357.3042 446.520378 
L 358.606685 450.728798 
L 359.90917 449.739567 
L 361.211655 452.932258 
L 362.51414 456.642754 
L 365.11911 451.518102 
L 366.421595 452.513372 
L 369.026565 455.1891 
L 370.32905 453.40488 
L 371.631535 456.17048 
L 372.93402 458.310693 
L 374.236505 458.117776 
L 375.53899 460.302069 
L 376.841475 465.146354 
L 378.14396 463.577925 
L 379.446445 468.133279 
L 380.74893 469.784366 
L 382.051415 471.656884 
L 383.3539 472.073786 
L 384.656385 475.008711 
L 385.95887 457.392327 
L 387.261355 457.745149 
L 388.56384 452.78718 
L 391.16881 455.481032 
L 393.77378 456.606933 
L 395.076265 454.060238 
L 396.37875 453.830959 
L 397.681235 458.280582 
L 398.98372 460.201473 
L 400.286205 463.211845 
L 401.58869 464.627961 
L 402.891175 462.729307 
L 404.19366 462.866051 
L 405.496145 470.842799 
L 406.79863 471.843105 
L 408.101115 473.742014 
L 409.4036 477.172439 
L 410.706085 482.668674 
L 412.00857 484.406046 
L 413.311055 485.324494 
L 414.61354 485.899163 
L 415.916025 488.222832 
L 417.21851 488.516186 
L 418.520995 473.790606 
L 419.82348 474.423182 
L 421.125965 474.531688 
L 422.42845 478.778513 
L 423.730935 478.49517 
L 425.03342 477.337789 
L 426.335905 480.869628 
L 427.63839 482.163494 
L 428.940875 478.365085 
L 430.24336 479.114353 
L 431.545845 501.449915 
L 432.84833 500.104642 
L 434.150815 499.814538 
L 435.4533 500.72901 
L 436.755785 498.225665 
L 438.05827 501.87256 
L 439.360755 500.832784 
L 440.66324 497.479289 
L 441.965725 498.229251 
L 443.26821 501.862673 
L 444.570695 504.435618 
L 445.87318 491.076279 
L 447.175665 495.936941 
L 448.47815 508.562078 
L 449.780635 506.360195 
L 451.08312 507.116415 
L 452.385605 508.423026 
L 453.68809 511.477598 
L 454.990575 510.231024 
L 456.29306 509.871264 
L 457.595545 508.231414 
L 458.89803 508.365743 
L 460.200515 506.555605 
L 461.503 501.106344 
L 462.805485 502.934443 
L 464.10797 505.530881 
L 465.410455 509.436797 
L 466.71294 510.53981 
L 468.015425 507.947256 
L 469.31791 507.685032 
L 470.620395 509.407846 
L 471.92288 508.43919 
L 473.225365 511.18972 
L 474.52785 510.50253 
L 475.830335 514.642419 
L 477.13282 514.725268 
L 478.435305 509.299301 
L 479.73779 513.044677 
L 481.040275 515.324877 
L 482.34276 517.322754 
L 483.645245 522.427993 
L 484.94773 524.304128 
L 486.250215 525.634097 
L 487.5527 526.511758 
L 488.855185 527.162283 
L 490.15767 528.141007 
L 491.460155 530.906837 
L 492.76264 531.698322 
L 494.065125 535.198743 
L 495.36761 535.530798 
L 496.670095 532.513588 
L 497.97258 528.685116 
L 499.275065 532.96512 
L 500.57755 532.686365 
L 501.880035 523.195821 
L 503.18252 526.742933 
L 504.485005 533.121104 
L 505.78749 527.317516 
L 507.089975 528.584182 
L 508.39246 533.294941 
L 509.694945 530.82782 
L 510.99743 529.740212 
L 512.299915 532.989512 
L 513.6024 531.010679 
L 514.904885 531.099504 
L 516.20737 530.670783 
L 517.509855 531.783344 
L 518.81234 536.283246 
L 520.114825 534.520311 
L 521.41731 535.147192 
L 522.719795 533.39616 
L 524.02228 538.920501 
L 525.324765 542.210766 
L 526.62725 540.546613 
L 527.929735 542.923493 
L 529.23222 534.514195 
L 530.534705 528.920252 
L 531.83719 528.496986 
L 533.139675 529.679094 
L 534.44216 527.938354 
L 535.744645 531.011856 
L 537.04713 522.151957 
L 538.349615 523.040103 
L 539.6521 523.541473 
L 540.954585 524.922253 
L 542.25707 522.473685 
L 544.86204 531.920098 
L 546.164525 533.4441 
L 547.46701 534.050432 
L 548.769495 537.149478 
L 550.07198 538.97891 
L 551.374465 539.619836 
L 552.67695 515.295209 
L 553.979435 520.320847 
L 555.28192 523.218604 
L 556.584405 526.479632 
L 557.88689 527.632086 
L 559.189375 529.938929 
L 560.49186 532.77774 
L 561.794345 527.440648 
L 563.09683 529.402965 
L 564.399315 530.882698 
L 565.7018 532.767181 
L 567.004285 480.762818 
L 568.30677 483.507003 
L 569.609255 484.336349 
L 570.91174 538.73783 
L 572.214225 539.897168 
L 573.51671 540.428992 
L 574.819195 541.583639 
L 576.12168 543.921017 
L 577.424165 543.825776 
L 578.72665 547.00058 
L 580.029135 548.99274 
L 581.33162 559.095192 
L 582.634105 559.045093 
L 583.93659 560.896391 
L 585.239075 560.892686 
L 586.54156 564.775057 
L 587.844045 565.004973 
L 589.14653 563.25077 
L 590.449015 562.119898 
L 591.7515 558.792002 
L 593.053985 562.364871 
L 594.35647 562.663992 
L 595.658955 566.200519 
L 596.96144 560.957114 
L 598.263925 560.94957 
L 599.56641 564.140124 
L 600.868895 562.854391 
L 602.17138 563.902162 
L 603.473865 562.117224 
L 604.77635 560.743939 
L 606.078835 564.849595 
L 607.38132 564.852542 
L 608.683805 563.497326 
L 609.98629 570.94636 
L 611.288775 570.856776 
L 613.893745 575.64763 
L 615.19623 578.386541 
L 616.498715 573.235273 
L 617.8012 573.30397 
L 619.103685 574.567386 
L 620.40617 578.659527 
L 621.708655 583.378776 
L 623.01114 583.66619 
L 624.313625 582.258625 
L 625.61611 583.74654 
L 626.918595 579.873518 
L 628.22108 580.460192 
L 629.523565 581.259357 
L 630.82605 585.141037 
L 632.128535 587.249531 
L 633.43102 585.855441 
L 634.733505 578.667738 
L 636.03599 578.849228 
L 637.338475 578.106806 
L 638.64096 579.494394 
L 639.943445 576.245102 
L 641.24593 576.145379 
L 642.548415 580.508118 
L 643.8509 579.598848 
L 645.153385 579.69186 
L 646.45587 582.38649 
L 647.758355 581.51598 
L 649.06084 584.589158 
L 650.363325 586.287552 
L 651.66581 586.281308 
L 654.27078 586.469454 
L 655.573265 588.078847 
L 656.87575 588.657227 
L 658.178235 588.625446 
L 659.48072 590.439185 
L 660.783205 590.100249 
L 662.08569 595.456795 
L 663.388175 596.13417 
L 664.69066 593.817058 
L 665.993145 594.994444 
L 667.29563 595.749891 
L 668.598115 596.702693 
L 669.9006 597.998127 
L 671.203085 600.280781 
L 672.50557 599.24557 
L 673.808055 600.04908 
L 675.11054 600.340295 
L 676.413025 601.092348 
L 677.71551 600.31509 
L 679.017995 600.108034 
L 680.32048 597.838101 
L 681.622965 600.947013 
L 682.92545 599.481094 
L 684.227935 596.991366 
L 685.53042 596.799209 
L 686.832905 599.54085 
L 688.13539 595.182995 
L 689.437875 588.854612 
L 690.74036 589.172741 
L 692.042845 591.347326 
L 693.34533 592.568125 
L 694.647815 596.79224 
L 695.9503 596.061131 
L 697.252785 593.261328 
L 698.55527 594.960801 
L 699.857755 591.240343 
L 701.16024 589.994311 
L 702.462725 587.501936 
L 703.76521 593.786161 
L 705.067695 594.479582 
L 706.37018 599.747887 
L 707.672665 598.923096 
L 708.97515 599.494512 
L 710.277635 604.007469 
L 711.58012 605.924446 
L 712.882605 604.582948 
L 714.18509 607.080204 
L 715.487575 607.259266 
L 716.79006 609.573826 
L 719.39503 611.290543 
L 720.697515 611.250795 
L 722 614.331314 
L 723.302485 613.60467 
L 725.907455 613.911564 
L 727.20994 615.003949 
L 728.512425 612.123739 
L 729.81491 613.55644 
L 731.117395 616.746346 
L 732.41988 616.058978 
L 733.722365 618.283877 
L 736.327335 620.85902 
L 737.62982 621.349859 
L 738.932305 620.537196 
L 740.23479 620.365105 
L 741.537275 619.2406 
L 742.83976 618.886812 
L 744.142245 618.021014 
L 745.44473 620.975301 
L 746.747215 619.196824 
L 748.0497 623.232431 
L 749.352185 619.052597 
L 750.65467 618.535782 
L 751.957155 620.595281 
L 753.25964 618.358879 
L 754.562125 619.002229 
L 755.86461 622.040541 
L 757.167095 623.750414 
L 758.46958 624.257834 
L 759.772065 623.41665 
L 761.07455 625.688577 
L 762.377035 626.402577 
L 763.67952 628.781532 
L 764.982005 628.223259 
L 766.28449 630.781121 
L 767.586975 632.570911 
L 768.88946 631.912376 
L 770.191945 629.814651 
L 771.49443 629.025095 
L 772.796915 621.998362 
L 775.401885 626.286363 
L 776.70437 629.148387 
L 778.006855 630.764476 
L 779.30934 633.772185 
L 780.611825 632.959623 
L 781.91431 630.313913 
L 783.216795 638.789524 
L 784.51928 636.629929 
L 785.821765 636.773386 
L 787.12425 641.627172 
L 788.426735 639.78965 
L 789.72922 639.269079 
L 791.031705 639.602982 
L 792.33419 637.137209 
L 793.636675 637.90915 
L 794.93916 637.143615 
L 796.241645 635.440086 
L 797.54413 635.975947 
L 798.846615 636.79607 
L 800.1491 640.243242 
L 801.451585 637.194472 
L 802.75407 634.940108 
L 804.056555 632.026384 
L 805.35904 631.663363 
L 806.661525 633.603333 
L 807.96401 636.57183 
L 809.266495 632.361958 
L 810.56898 630.70528 
L 811.871465 629.532885 
L 813.17395 626.4357 
L 814.476435 628.425879 
L 815.77892 623.569407 
L 817.081405 621.773609 
L 818.38389 623.390985 
L 819.686375 627.704426 
L 820.98886 629.966085 
L 822.291345 631.319717 
L 823.59383 632.046284 
L 824.896315 621.297991 
L 826.1988 617.510073 
L 827.501285 620.460804 
L 828.80377 621.466293 
L 830.106255 614.509915 
L 831.40874 611.297574 
L 832.711225 604.5209 
L 834.01371 606.164101 
L 835.316195 615.350524 
L 836.61868 620.589431 
L 837.921165 619.259465 
L 839.22365 616.933877 
L 840.526135 618.543446 
L 841.82862 619.067205 
L 843.131105 619.895779 
L 844.43359 621.680473 
L 845.736075 627.831352 
L 847.03856 630.562454 
L 848.341045 631.90765 
L 849.64353 631.122758 
L 850.946015 629.701509 
L 852.2485 628.113929 
L 853.550985 630.631348 
L 856.155955 633.044169 
L 857.45844 631.367037 
L 858.760925 634.81 
L 861.365895 635.533159 
L 862.66838 637.823898 
L 863.970865 638.474916 
L 865.27335 635.462877 
L 866.575835 631.520606 
L 867.87832 634.856372 
L 869.180805 630.859647 
L 870.48329 636.211167 
L 871.785775 636.984392 
L 873.08826 637.196382 
L 874.390745 637.186835 
L 875.69323 634.30846 
L 878.2982 634.811599 
L 879.600685 638.549313 
L 880.90317 639.177604 
L 882.205655 636.853957 
L 883.50814 639.48505 
L 884.810625 639.842966 
L 886.11311 639.030026 
L 887.415595 641.766371 
L 888.71808 645.533619 
L 890.020565 646.44396 
L 891.32305 633.667336 
L 892.625535 635.480242 
L 893.92802 638.467251 
L 895.230505 633.229079 
L 896.53299 633.779042 
L 897.835475 633.980356 
L 899.13796 635.701952 
L 900.440445 629.895671 
L 901.74293 628.262414 
L 903.045415 634.061986 
L 904.3479 632.518861 
L 906.95287 640.064859 
L 908.255355 642.804834 
L 909.55784 641.920831 
L 910.860325 646.043879 
L 912.16281 644.981138 
L 913.465295 645.588847 
L 914.76778 644.428053 
L 916.070265 641.278765 
L 917.37275 640.144921 
L 918.675235 638.345937 
L 919.97772 638.143104 
L 921.280205 638.614706 
L 922.58269 640.767561 
L 923.885175 643.74646 
L 925.18766 637.893907 
L 926.490145 638.220703 
L 927.79263 642.020311 
L 929.095115 644.406091 
L 930.3976 646.24894 
L 931.700085 645.672783 
L 933.00257 647.301875 
L 934.305055 647.593968 
L 935.60754 646.473611 
L 936.910025 644.462615 
L 938.21251 644.2115 
L 939.514995 645.709624 
L 940.81748 627.79429 
L 942.119965 628.92345 
L 943.42245 629.681302 
L 944.724935 628.532851 
L 946.02742 633.478736 
L 947.329905 634.313166 
L 948.63239 624.419137 
L 949.934875 636.53429 
L 951.23736 638.993304 
L 952.539845 638.602675 
L 953.84233 638.019426 
L 955.144815 641.593773 
L 956.4473 639.458761 
L 957.749785 636.714934 
L 959.05227 640.079379 
L 960.354755 641.142358 
L 961.65724 641.62005 
L 962.959725 643.370372 
L 964.26221 646.321786 
L 965.564695 646.023202 
L 966.86718 647.491531 
L 968.169665 648.202484 
L 969.47215 644.920353 
L 970.774635 647.576221 
L 972.07712 648.01423 
L 973.379605 649.346369 
L 974.68209 659.189914 
L 975.984575 661.433919 
L 977.28706 661.889901 
L 979.89203 661.617263 
L 981.194515 664.302557 
L 982.497 663.171783 
L 983.799485 661.839676 
L 985.10197 659.325853 
L 986.404455 658.199041 
L 987.70694 661.495113 
L 989.009425 662.252291 
L 991.614395 662.264677 
L 992.91688 662.717483 
L 994.219365 665.839495 
L 995.52185 667.207045 
L 996.824335 665.951688 
L 998.12682 667.007327 
L 999.429305 662.810233 
L 1000.73179 662.319913 
L 1002.034275 663.365695 
L 1003.33676 661.56258 
L 1004.639245 662.914832 
L 1005.94173 663.786858 
L 1007.244215 662.542732 
L 1008.5467 664.775091 
L 1009.849185 665.911443 
L 1011.15167 668.169947 
L 1012.454155 667.147628 
L 1013.75664 667.131338 
L 1015.059125 662.644604 
L 1016.36161 665.257915 
L 1017.664095 665.967609 
L 1018.96658 667.120175 
L 1020.269065 669.769041 
L 1021.57155 665.657772 
L 1022.874035 662.685504 
L 1024.17652 668.798405 
L 1025.479005 670.190357 
L 1026.78149 670.466753 
L 1028.083975 671.436229 
L 1029.38646 671.020858 
L 1030.688945 672.647584 
L 1031.99143 671.052047 
L 1033.293915 672.291056 
L 1034.5964 671.8211 
L 1035.898885 671.868065 
L 1037.20137 673.596612 
L 1038.503855 672.785535 
L 1039.80634 673.61914 
L 1041.108825 670.961168 
L 1042.41131 672.554209 
L 1043.713795 673.049486 
L 1045.01628 671.44253 
L 1046.318765 673.155065 
L 1047.62125 678.021446 
L 1048.923735 675.520345 
L 1050.22622 675.599078 
L 1051.528705 673.72785 
L 1052.83119 675.376754 
L 1054.133675 678.175582 
L 1055.43616 680.180828 
L 1058.04113 677.004908 
L 1059.343615 677.612315 
L 1060.6461 677.63301 
L 1061.948585 677.521368 
L 1063.25107 678.479523 
L 1064.553555 681.761379 
L 1065.85604 678.072412 
L 1067.158525 679.20259 
L 1068.46101 677.504242 
L 1069.763495 679.584384 
L 1071.06598 679.813781 
L 1072.368465 678.034799 
L 1073.67095 677.068553 
L 1074.973435 679.444356 
L 1076.27592 678.811087 
L 1077.578405 680.827741 
L 1078.88089 679.058909 
L 1080.183375 681.351792 
L 1081.48586 683.331332 
L 1082.788345 683.886193 
L 1085.393315 681.397831 
L 1086.6958 679.895275 
L 1089.30077 674.838655 
L 1090.603255 673.978108 
L 1091.90574 677.886358 
L 1093.208225 678.930247 
L 1094.51071 679.52877 
L 1095.813195 679.837935 
L 1097.11568 677.66609 
L 1098.418165 679.022113 
L 1099.72065 678.420101 
L 1101.023135 678.463759 
L 1102.32562 680.12473 
L 1103.628105 679.606695 
L 1104.93059 678.616774 
L 1106.233075 678.785369 
L 1107.53556 681.570183 
L 1108.838045 680.226923 
L 1110.14053 682.338088 
L 1111.443015 684.09775 
L 1112.7455 684.511484 
L 1114.047985 684.530395 
L 1115.35047 683.327158 
L 1116.652955 687.377385 
L 1117.95544 686.140331 
L 1119.257925 685.104591 
L 1120.56041 688.80405 
L 1121.862895 685.853147 
L 1123.16538 687.822817 
L 1124.467865 688.961375 
L 1125.77035 688.843981 
L 1127.072835 690.459224 
L 1128.37532 689.767639 
L 1129.677805 690.810742 
L 1130.98029 689.686424 
L 1132.282775 689.087579 
L 1133.58526 688.801717 
L 1134.887745 688.161741 
L 1136.19023 683.489065 
L 1137.492715 683.531501 
L 1138.7952 687.042449 
L 1140.097685 687.543276 
L 1141.40017 690.111806 
L 1142.702655 690.646141 
L 1145.307625 690.654754 
L 1146.61011 689.368564 
L 1147.912595 687.846268 
L 1149.21508 688.143257 
L 1150.517565 683.643966 
L 1151.82005 686.240015 
L 1153.122535 686.383804 
L 1154.42502 687.28826 
L 1155.727505 685.256679 
L 1157.02999 686.964902 
L 1158.332475 685.890737 
L 1159.63496 685.694542 
L 1160.937445 684.507229 
L 1162.23993 686.15135 
L 1164.8449 688.40909 
L 1166.147385 690.112024 
L 1167.44987 683.624745 
L 1168.752355 683.743173 
L 1171.357325 681.33261 
L 1172.65981 680.702063 
L 1173.962295 683.705537 
L 1175.26478 684.953035 
L 1176.567265 684.488625 
L 1177.86975 686.640175 
L 1179.172235 689.5711 
L 1180.47472 691.08428 
L 1181.777205 690.23639 
L 1183.07969 692.204353 
L 1184.382175 690.928867 
L 1185.68466 691.022975 
L 1186.987145 692.974548 
L 1188.28963 697.196904 
L 1190.8946 700.307971 
L 1192.197085 704.099202 
L 1193.49957 703.743247 
L 1194.802055 703.095427 
L 1196.10454 704.466032 
L 1197.407025 704.189537 
L 1198.70951 700.400395 
L 1200.011995 697.082112 
L 1201.31448 700.827952 
L 1202.616965 698.069976 
L 1203.91945 698.208972 
L 1205.221935 703.515914 
L 1206.52442 702.81097 
L 1207.826905 703.295237 
L 1209.12939 705.833957 
L 1210.431875 705.640099 
L 1211.73436 705.967774 
L 1213.036845 707.935963 
L 1214.33933 707.016772 
L 1215.641815 707.106619 
L 1216.9443 705.825391 
L 1218.246785 700.36321 
L 1219.54927 697.443713 
L 1220.851755 700.32652 
L 1222.15424 686.68541 
L 1223.456725 688.07349 
L 1226.061695 688.657255 
L 1227.36418 687.559572 
L 1228.666665 686.621344 
L 1229.96915 688.065362 
L 1231.271635 678.567839 
L 1232.57412 685.016244 
L 1233.876605 688.30433 
L 1235.17909 691.015083 
L 1236.481575 694.453814 
L 1237.78406 688.329526 
L 1239.086545 681.400126 
L 1240.38903 691.536351 
L 1241.691515 691.619382 
L 1242.994 690.814333 
L 1244.296485 689.571465 
L 1245.59897 689.706493 
L 1246.901455 692.800714 
L 1248.20394 696.244915 
L 1249.506425 696.537423 
L 1250.80891 696.311436 
L 1252.111395 695.175874 
L 1253.41388 694.316658 
L 1254.716365 687.647804 
L 1256.01885 688.193115 
L 1257.321335 692.1162 
L 1258.62382 694.226131 
L 1259.926305 693.617372 
L 1261.22879 697.217158 
L 1262.531275 699.361461 
L 1263.83376 699.911882 
L 1265.136245 701.871241 
L 1266.43873 702.977706 
L 1267.741215 703.150635 
L 1270.346185 704.023041 
L 1271.64867 712.835478 
L 1272.951155 716.434157 
L 1274.25364 715.115401 
L 1275.556125 712.017337 
L 1276.85861 713.260749 
L 1278.161095 712.263829 
L 1279.46358 705.772163 
L 1280.766065 704.28901 
L 1282.06855 701.089524 
L 1283.371035 685.115347 
L 1284.67352 691.778664 
L 1287.27849 697.441248 
L 1288.580975 698.06106 
L 1289.88346 699.254127 
L 1291.185945 700.846316 
L 1293.790915 702.577903 
L 1295.0934 698.657174 
L 1296.395885 698.20583 
L 1297.69837 697.95873 
L 1299.000855 698.59096 
L 1300.30334 688.860667 
L 1301.605825 692.31227 
L 1304.210795 695.767329 
L 1305.51328 696.885261 
L 1306.815765 694.724553 
L 1308.11825 694.858355 
L 1309.420735 694.52757 
L 1310.72322 696.176466 
L 1312.025705 693.932894 
L 1313.32819 695.244485 
L 1314.630675 694.537643 
L 1315.93316 694.986437 
L 1317.235645 696.335708 
L 1318.53813 696.830517 
L 1319.840615 695.788149 
L 1321.1431 693.329681 
L 1322.445585 694.069605 
L 1323.74807 693.345332 
L 1325.050555 693.698044 
L 1326.35304 701.866633 
L 1327.655525 700.260454 
L 1328.95801 701.034783 
L 1330.260495 703.787028 
L 1331.56298 702.123018 
L 1332.865465 700.790572 
L 1334.16795 702.094591 
L 1335.470435 700.252813 
L 1336.77292 704.407796 
L 1338.075405 705.275236 
L 1339.37789 716.234503 
L 1340.680375 717.213704 
L 1341.98286 715.32768 
L 1343.285345 719.647615 
L 1345.890315 723.648305 
L 1347.1928 724.272166 
L 1348.495285 723.070031 
L 1349.79777 721.692219 
L 1351.100255 721.300674 
L 1352.40274 722.55309 
L 1353.705225 717.868931 
L 1355.00771 719.890223 
L 1356.310195 717.040456 
L 1357.61268 716.171545 
L 1360.21765 720.248868 
L 1361.520135 727.405274 
L 1362.82262 726.311079 
L 1364.125105 725.886655 
L 1365.42759 729.377253 
L 1366.730075 729.592338 
L 1368.03256 727.959602 
L 1369.335045 729.146009 
L 1370.63753 729.960574 
L 1371.940015 731.804282 
L 1371.940015 731.804282 
" style="fill:none;stroke:#0000ff;stroke-linecap:square;stroke-width:2.0;"/>
   </g>
   <g id="line2d_2">
    <path clip-path="url(#p649972dc4c)" d="M 70.7575 89.472675 
L 72.059985 92.400001 
L 73.36247 99.301323 
L 74.664955 108.056001 
L 75.96744 107.951725 
L 77.269925 110.291781 
L 78.57241 118.68627 
L 81.17738 125.508668 
L 82.479865 130.091609 
L 85.084835 132.110815 
L 86.38732 133.699024 
L 87.689805 134.244647 
L 88.99229 135.99987 
L 90.294775 138.772053 
L 91.59726 138.324025 
L 92.899745 141.28945 
L 94.20223 147.567398 
L 95.504715 155.344104 
L 96.8072 157.487564 
L 98.109685 158.643626 
L 99.41217 159.500849 
L 100.714655 159.796382 
L 102.01714 171.5337 
L 103.319625 180.44737 
L 104.62211 173.906786 
L 105.924595 170.15502 
L 107.22708 173.23024 
L 108.529565 178.6299 
L 109.83205 187.387982 
L 111.134535 188.291703 
L 112.43702 193.55098 
L 113.739505 194.41476 
L 115.04199 196.579069 
L 116.344475 200.283054 
L 117.64696 200.616533 
L 118.949445 204.551285 
L 120.25193 209.736195 
L 121.554415 211.485939 
L 122.8569 216.177736 
L 124.159385 218.922897 
L 125.46187 219.011635 
L 126.764355 219.287959 
L 128.06684 224.078039 
L 129.369325 226.304449 
L 130.67181 227.383549 
L 131.974295 225.579099 
L 133.27678 227.293002 
L 134.579265 226.999769 
L 135.88175 231.789879 
L 137.184235 235.008373 
L 138.48672 236.528337 
L 139.789205 236.921437 
L 141.09169 241.435747 
L 142.394175 240.161136 
L 143.69666 248.367462 
L 144.999145 249.067986 
L 146.30163 254.749963 
L 147.604115 258.16177 
L 148.9066 252.599681 
L 150.209085 258.649568 
L 151.51157 258.926365 
L 152.814055 260.666519 
L 154.11654 262.733441 
L 155.419025 265.56781 
L 156.72151 268.766565 
L 158.023995 268.62068 
L 159.32648 275.590106 
L 160.628965 277.935897 
L 161.93145 278.143964 
L 163.233935 281.500743 
L 164.53642 282.740387 
L 167.14139 291.700486 
L 168.443875 290.673989 
L 169.74636 298.228489 
L 172.35133 300.258272 
L 173.653815 299.250923 
L 174.9563 301.502562 
L 176.258785 302.636057 
L 177.56127 305.262721 
L 178.863755 308.660303 
L 180.16624 310.221713 
L 181.468725 311.59184 
L 182.77121 311.968811 
L 184.073695 316.748051 
L 185.37618 323.347262 
L 186.678665 324.57455 
L 187.98115 323.196102 
L 189.283635 317.969433 
L 190.58612 324.877645 
L 191.888605 324.891592 
L 193.19109 323.06752 
L 194.493575 322.401079 
L 195.79606 323.763493 
L 197.098545 328.056209 
L 198.40103 330.431237 
L 199.703515 333.929902 
L 202.308485 343.317261 
L 203.61097 342.458611 
L 204.913455 344.349222 
L 206.21594 345.741742 
L 207.518425 347.963517 
L 208.82091 341.33975 
L 210.123395 349.427833 
L 211.42588 352.342237 
L 212.728365 352.230211 
L 214.03085 351.394954 
L 215.333335 353.314681 
L 216.63582 352.041871 
L 217.938305 355.940979 
L 219.24079 353.081705 
L 220.543275 353.650113 
L 221.84576 354.36517 
L 223.148245 350.992724 
L 224.45073 352.164423 
L 225.753215 354.18066 
L 227.0557 350.773092 
L 228.358185 348.023819 
L 229.66067 351.459712 
L 230.963155 355.683343 
L 232.26564 357.7945 
L 233.568125 369.726253 
L 234.87061 374.259532 
L 236.173095 374.622149 
L 237.47558 376.576581 
L 238.778065 379.129258 
L 240.08055 378.475374 
L 241.383035 378.047153 
L 242.68552 378.413622 
L 243.988005 378.904758 
L 246.592975 390.179782 
L 247.89546 389.526998 
L 249.197945 390.262542 
L 250.50043 393.467287 
L 251.802915 392.496627 
L 253.1054 394.215937 
L 254.407885 395.521755 
L 255.71037 395.982 
L 257.012855 398.892488 
L 258.31534 402.304669 
L 259.617825 402.02676 
L 260.92031 405.407229 
L 262.222795 405.142418 
L 263.52528 403.853182 
L 264.827765 403.860964 
L 266.13025 402.22426 
L 267.432735 402.196206 
L 268.73522 402.921373 
L 270.037705 401.261047 
L 271.34019 402.129017 
L 272.642675 403.542591 
L 273.94516 407.274756 
L 275.247645 408.236123 
L 276.55013 408.684518 
L 277.852615 408.178839 
L 279.1551 410.992138 
L 280.457585 414.393604 
L 281.76007 416.122168 
L 283.062555 418.218828 
L 284.36504 422.289162 
L 285.667525 423.955035 
L 286.97001 423.004747 
L 288.272495 424.351917 
L 289.57498 425.014019 
L 290.877465 426.952832 
L 292.17995 427.508853 
L 293.482435 424.922496 
L 294.78492 427.563344 
L 296.087405 432.273716 
L 297.38989 435.668876 
L 298.692375 438.538369 
L 299.99486 437.940941 
L 301.297345 434.620697 
L 302.59983 439.649731 
L 303.902315 442.519016 
L 305.2048 446.4414 
L 306.507285 445.552004 
L 307.80977 451.064742 
L 309.112255 451.361042 
L 310.41474 453.633436 
L 311.717225 452.960504 
L 313.01971 453.937693 
L 314.322195 455.267945 
L 315.62468 457.934795 
L 316.927165 456.564467 
L 318.22965 458.536229 
L 319.532135 456.851797 
L 322.137105 460.364265 
L 323.43959 461.198295 
L 324.742075 460.701276 
L 326.04456 461.941361 
L 327.347045 440.466987 
L 328.64953 444.289559 
L 329.952015 443.734627 
L 331.2545 442.597385 
L 332.556985 437.050464 
L 333.85947 435.576004 
L 335.161955 436.648376 
L 336.46444 438.714462 
L 337.766925 442.912375 
L 339.06941 443.413357 
L 340.371895 440.440543 
L 341.67438 441.699765 
L 342.976865 441.693273 
L 344.27935 440.700639 
L 346.88432 441.442287 
L 348.186805 441.996456 
L 349.48929 440.970922 
L 350.791775 442.242588 
L 352.09426 446.203508 
L 353.396745 444.667927 
L 354.69923 444.90686 
L 356.001715 446.387039 
L 357.3042 441.207326 
L 358.606685 443.803638 
L 359.90917 445.129908 
L 361.211655 447.473303 
L 362.51414 447.037843 
L 363.816625 432.988868 
L 365.11911 433.839645 
L 366.421595 435.044681 
L 367.72408 435.192617 
L 369.026565 441.824198 
L 370.32905 441.978727 
L 371.631535 440.746049 
L 372.93402 441.743324 
L 374.236505 441.113234 
L 375.53899 432.211548 
L 376.841475 431.03275 
L 378.14396 433.118695 
L 379.446445 436.315016 
L 380.74893 438.806943 
L 382.051415 439.863853 
L 383.3539 439.644249 
L 384.656385 442.0646 
L 385.95887 442.834874 
L 388.56384 442.322553 
L 389.866325 440.336415 
L 391.16881 440.312075 
L 392.471295 420.763486 
L 393.77378 421.047177 
L 395.076265 422.046449 
L 396.37875 415.552909 
L 397.681235 422.313845 
L 398.98372 424.486776 
L 400.286205 427.556303 
L 401.58869 426.340206 
L 402.891175 427.55526 
L 404.19366 431.856564 
L 405.496145 434.243392 
L 406.79863 435.659933 
L 408.101115 436.57094 
L 409.4036 438.600456 
L 412.00857 441.48464 
L 413.311055 441.59474 
L 414.61354 444.036195 
L 415.916025 443.349178 
L 417.21851 420.657103 
L 418.520995 423.852389 
L 419.82348 417.504814 
L 421.125965 419.596687 
L 422.42845 421.943077 
L 423.730935 423.595975 
L 425.03342 424.648337 
L 426.335905 425.419146 
L 427.63839 428.790978 
L 428.940875 458.355424 
L 430.24336 455.998217 
L 431.545845 458.221937 
L 432.84833 454.212677 
L 434.150815 449.472478 
L 435.4533 457.714561 
L 436.755785 462.374681 
L 438.05827 462.321066 
L 439.360755 463.990365 
L 440.66324 470.740611 
L 441.965725 474.452323 
L 443.26821 476.281986 
L 444.570695 476.666035 
L 445.87318 477.921971 
L 447.175665 478.638086 
L 449.780635 481.061951 
L 451.08312 481.793239 
L 452.385605 483.738101 
L 453.68809 483.681352 
L 456.29306 485.407685 
L 457.595545 488.685534 
L 458.89803 490.318273 
L 460.200515 490.59503 
L 461.503 491.733653 
L 462.805485 494.055521 
L 464.10797 493.575393 
L 465.410455 491.223113 
L 466.71294 492.362431 
L 468.015425 495.098288 
L 469.31791 493.315116 
L 470.620395 503.842192 
L 471.92288 503.850525 
L 473.225365 503.528085 
L 474.52785 500.676432 
L 475.830335 501.252796 
L 477.13282 500.112888 
L 479.73779 504.881853 
L 481.040275 506.514582 
L 482.34276 507.826293 
L 483.645245 507.425788 
L 484.94773 510.095581 
L 486.250215 514.629187 
L 487.5527 516.78421 
L 488.855185 521.308524 
L 490.15767 526.277162 
L 491.460155 527.776564 
L 492.76264 526.687202 
L 494.065125 527.590499 
L 495.36761 524.669618 
L 496.670095 524.794083 
L 497.97258 520.951622 
L 499.275065 520.274144 
L 500.57755 523.664476 
L 501.880035 522.580764 
L 503.18252 521.775503 
L 504.485005 521.450743 
L 505.78749 521.678385 
L 507.089975 521.083298 
L 508.39246 517.709261 
L 509.694945 517.109689 
L 510.99743 519.702943 
L 512.299915 519.803658 
L 513.6024 523.651716 
L 514.904885 521.038443 
L 516.20737 524.16155 
L 517.509855 513.81646 
L 518.81234 515.996685 
L 520.114825 514.304357 
L 521.41731 514.399214 
L 522.719795 515.530375 
L 524.02228 524.597258 
L 525.324765 526.080289 
L 526.62725 523.507728 
L 527.929735 519.769882 
L 529.23222 519.787393 
L 530.534705 520.887772 
L 531.83719 521.017645 
L 533.139675 520.880835 
L 534.44216 523.488606 
L 535.744645 524.37189 
L 537.04713 524.553939 
L 538.349615 525.037943 
L 539.6521 523.503354 
L 540.954585 525.908262 
L 542.25707 525.981355 
L 543.559555 525.840634 
L 544.86204 526.893282 
L 546.164525 529.816514 
L 547.46701 527.139271 
L 548.769495 523.051165 
L 550.07198 502.213989 
L 551.374465 507.083768 
L 552.67695 511.220627 
L 553.979435 518.761103 
L 555.28192 521.286208 
L 556.584405 522.044756 
L 557.88689 507.595045 
L 559.189375 507.120272 
L 560.49186 507.602412 
L 561.794345 505.233174 
L 563.09683 507.572986 
L 564.399315 508.330462 
L 565.7018 508.359378 
L 567.004285 505.406348 
L 568.30677 505.111853 
L 569.609255 505.979645 
L 572.214225 512.450288 
L 573.51671 517.051743 
L 574.819195 517.548724 
L 576.12168 524.019172 
L 577.424165 523.26354 
L 578.72665 522.987806 
L 580.029135 537.023942 
L 581.33162 539.051025 
L 582.634105 540.293453 
L 585.239075 539.852955 
L 586.54156 539.401024 
L 587.844045 539.665831 
L 589.14653 541.659918 
L 590.449015 541.808054 
L 591.7515 539.801113 
L 593.053985 539.203923 
L 594.35647 541.34315 
L 595.658955 543.913245 
L 596.96144 545.876471 
L 598.263925 533.081209 
L 599.56641 531.581649 
L 600.868895 538.191802 
L 602.17138 540.608549 
L 603.473865 539.717028 
L 604.77635 542.793978 
L 606.078835 544.767172 
L 607.38132 543.969653 
L 608.683805 541.335626 
L 609.98629 546.589309 
L 611.288775 549.438271 
L 612.59126 551.260087 
L 613.893745 553.971347 
L 615.19623 553.822363 
L 616.498715 553.201888 
L 617.8012 550.953992 
L 619.103685 542.741075 
L 620.40617 540.690389 
L 621.708655 542.771865 
L 623.01114 539.391372 
L 624.313625 540.12354 
L 625.61611 542.16559 
L 626.918595 542.361184 
L 628.22108 542.400885 
L 629.523565 544.611511 
L 630.82605 546.043352 
L 632.128535 548.281174 
L 633.43102 550.802996 
L 634.733505 552.497731 
L 636.03599 553.088427 
L 637.338475 552.079224 
L 639.943445 553.864001 
L 641.24593 553.379409 
L 642.548415 550.14829 
L 643.8509 547.591849 
L 645.153385 550.077053 
L 646.45587 555.65358 
L 647.758355 559.310235 
L 649.06084 567.778321 
L 650.363325 569.416348 
L 651.66581 561.798408 
L 652.968295 563.421295 
L 654.27078 562.994941 
L 655.573265 565.987873 
L 656.87575 567.308751 
L 658.178235 564.788748 
L 659.48072 567.336105 
L 662.08569 573.608572 
L 663.388175 573.930641 
L 664.69066 573.197851 
L 665.993145 573.010003 
L 667.29563 575.825452 
L 668.598115 576.42292 
L 669.9006 577.218836 
L 671.203085 576.945608 
L 672.50557 579.240806 
L 673.808055 578.220502 
L 676.413025 574.572325 
L 677.71551 577.178295 
L 679.017995 579.063316 
L 680.32048 578.905477 
L 681.622965 578.969645 
L 682.92545 580.466557 
L 684.227935 582.213404 
L 685.53042 582.025582 
L 686.832905 580.851091 
L 688.13539 581.538118 
L 689.437875 575.374124 
L 690.74036 575.689541 
L 692.042845 574.12372 
L 693.34533 547.877746 
L 694.647815 519.052215 
L 695.9503 521.804926 
L 697.252785 520.090889 
L 698.55527 521.269813 
L 699.857755 521.314027 
L 701.16024 526.4116 
L 702.462725 529.163551 
L 703.76521 556.990409 
L 705.067695 564.951779 
L 706.37018 563.204648 
L 707.672665 565.064203 
L 708.97515 569.860255 
L 710.277635 568.442266 
L 711.58012 572.252261 
L 712.882605 576.408284 
L 714.18509 581.252391 
L 715.487575 576.41669 
L 716.79006 579.177392 
L 718.092545 580.822009 
L 719.39503 575.853029 
L 720.697515 575.092312 
L 722 574.626922 
L 723.302485 577.010326 
L 724.60497 577.879641 
L 725.907455 566.660626 
L 727.20994 567.407356 
L 728.512425 576.494405 
L 729.81491 578.077849 
L 731.117395 577.376352 
L 732.41988 581.140369 
L 733.722365 579.278434 
L 735.02485 579.318121 
L 736.327335 580.997963 
L 737.62982 581.827775 
L 738.932305 583.088443 
L 740.23479 586.689411 
L 741.537275 587.361634 
L 742.83976 586.401373 
L 744.142245 579.815296 
L 745.44473 581.637225 
L 746.747215 581.04037 
L 748.0497 582.507542 
L 749.352185 590.968375 
L 750.65467 590.447413 
L 751.957155 589.689854 
L 753.25964 591.135901 
L 754.562125 593.459781 
L 755.86461 595.020708 
L 757.167095 593.594002 
L 758.46958 594.457624 
L 759.772065 593.459471 
L 761.07455 598.277709 
L 762.377035 599.67004 
L 763.67952 599.41046 
L 764.982005 600.584128 
L 766.28449 602.217674 
L 767.586975 601.569332 
L 768.88946 599.299407 
L 770.191945 601.62249 
L 771.49443 606.764985 
L 772.796915 608.146516 
L 774.0994 608.951166 
L 775.401885 610.76193 
L 776.70437 611.283882 
L 778.006855 611.157723 
L 779.30934 613.020904 
L 780.611825 610.850166 
L 781.91431 611.538154 
L 783.216795 608.101213 
L 784.51928 611.586709 
L 785.821765 608.24344 
L 787.12425 608.695898 
L 788.426735 611.852106 
L 789.72922 614.669371 
L 791.031705 616.403888 
L 792.33419 616.169954 
L 793.636675 616.597472 
L 794.93916 616.511625 
L 796.241645 613.505693 
L 797.54413 614.169123 
L 798.846615 615.093748 
L 800.1491 613.486784 
L 801.451585 616.21894 
L 802.75407 616.101758 
L 804.056555 618.464224 
L 805.35904 618.297921 
L 806.661525 622.032256 
L 807.96401 623.274113 
L 809.266495 621.519884 
L 810.56898 620.547444 
L 811.871465 623.025701 
L 813.17395 622.092965 
L 814.476435 621.937652 
L 815.77892 621.043586 
L 817.081405 612.357948 
L 818.38389 611.545521 
L 819.686375 610.303879 
L 820.98886 613.650272 
L 822.291345 616.115948 
L 823.59383 614.881913 
L 824.896315 617.347341 
L 826.1988 616.312594 
L 827.501285 614.248935 
L 828.80377 618.240623 
L 830.106255 617.885663 
L 831.40874 615.853807 
L 832.711225 617.071773 
L 834.01371 620.460688 
L 835.316195 620.794226 
L 836.61868 620.032161 
L 837.921165 616.397996 
L 839.22365 618.721638 
L 840.526135 618.089888 
L 843.131105 620.737071 
L 844.43359 620.7275 
L 845.736075 624.754339 
L 847.03856 626.88195 
L 848.341045 625.684862 
L 849.64353 624.06897 
L 850.946015 625.78643 
L 852.2485 625.383375 
L 853.550985 623.663989 
L 856.155955 627.737914 
L 857.45844 629.946334 
L 858.760925 629.898464 
L 860.06341 635.69577 
L 861.365895 634.81826 
L 862.66838 632.093553 
L 863.970865 630.595297 
L 865.27335 630.907201 
L 866.575835 630.223772 
L 867.87832 632.345183 
L 869.180805 630.830497 
L 870.48329 630.432588 
L 871.785775 632.95668 
L 873.08826 621.634933 
L 874.390745 623.38259 
L 875.69323 628.29846 
L 876.995715 629.571155 
L 878.2982 628.166645 
L 879.600685 630.868169 
L 880.90317 632.080518 
L 882.205655 634.528759 
L 883.50814 635.974667 
L 884.810625 636.26602 
L 886.11311 635.596105 
L 887.415595 634.019147 
L 888.71808 641.942619 
L 890.020565 642.857664 
L 891.32305 642.126689 
L 892.625535 633.061191 
L 893.92802 622.987205 
L 895.230505 624.388888 
L 896.53299 627.728469 
L 897.835475 625.847408 
L 899.13796 626.739772 
L 900.440445 628.201908 
L 901.74293 628.970486 
L 903.045415 632.795183 
L 904.3479 633.349432 
L 905.650385 633.09924 
L 906.95287 637.595057 
L 908.255355 641.578608 
L 909.55784 639.317737 
L 910.860325 639.572753 
L 912.16281 638.161345 
L 913.465295 635.735355 
L 914.76778 640.657796 
L 916.070265 640.918177 
L 917.37275 639.206742 
L 918.675235 640.836657 
L 919.97772 641.602887 
L 921.280205 638.793265 
L 922.58269 639.550489 
L 923.885175 640.917965 
L 925.18766 640.092638 
L 926.490145 639.662069 
L 927.79263 641.562449 
L 929.095115 641.359148 
L 930.3976 642.187618 
L 931.700085 641.911474 
L 933.00257 644.397162 
L 934.305055 644.071619 
L 935.60754 642.819823 
L 936.910025 641.194473 
L 938.21251 643.122368 
L 939.514995 642.475574 
L 940.81748 643.76377 
L 942.119965 635.601206 
L 943.42245 635.03713 
L 944.724935 638.7054 
L 946.02742 638.345385 
L 947.329905 641.243564 
L 948.63239 645.382967 
L 949.934875 645.984761 
L 951.23736 644.775087 
L 952.539845 644.41612 
L 953.84233 646.124618 
L 955.144815 646.987117 
L 956.4473 648.367568 
L 957.749785 649.146173 
L 959.05227 647.642392 
L 960.354755 646.826803 
L 961.65724 644.225674 
L 962.959725 644.030115 
L 964.26221 648.800215 
L 965.564695 638.43791 
L 966.86718 635.846461 
L 968.169665 635.067844 
L 969.47215 637.658949 
L 970.774635 639.025305 
L 972.07712 639.89456 
L 973.379605 639.904434 
L 974.68209 640.074328 
L 975.984575 639.218775 
L 977.28706 635.971635 
L 978.589545 636.835745 
L 979.89203 640.47608 
L 981.194515 640.153064 
L 982.497 642.396171 
L 983.799485 647.553796 
L 985.10197 648.651979 
L 986.404455 650.214098 
L 989.009425 649.44 
L 990.31191 651.098121 
L 991.614395 651.516338 
L 992.91688 650.39459 
L 994.219365 651.341918 
L 995.52185 652.479365 
L 996.824335 656.065938 
L 998.12682 656.893065 
L 999.429305 659.741486 
L 1000.73179 659.048831 
L 1002.034275 657.419651 
L 1003.33676 654.222186 
L 1004.639245 654.17923 
L 1005.94173 653.893432 
L 1007.244215 648.953029 
L 1008.5467 651.677849 
L 1009.849185 651.450346 
L 1011.15167 653.59946 
L 1012.454155 656.772815 
L 1013.75664 655.540494 
L 1015.059125 653.541952 
L 1016.36161 652.069018 
L 1017.664095 650.910526 
L 1018.96658 651.364409 
L 1020.269065 652.491965 
L 1021.57155 650.431472 
L 1022.874035 652.137702 
L 1025.479005 658.315115 
L 1026.78149 659.482259 
L 1028.083975 649.298664 
L 1029.38646 651.186102 
L 1030.688945 651.572162 
L 1031.99143 650.063325 
L 1033.293915 649.610264 
L 1034.5964 651.150901 
L 1035.898885 650.906312 
L 1037.20137 650.461765 
L 1038.503855 651.912716 
L 1039.80634 657.857877 
L 1041.108825 660.870801 
L 1042.41131 662.477933 
L 1043.713795 663.372926 
L 1045.01628 666.121432 
L 1046.318765 662.378236 
L 1047.62125 662.422436 
L 1048.923735 644.413192 
L 1050.22622 645.435304 
L 1051.528705 646.658211 
L 1052.83119 646.778466 
L 1054.133675 646.225167 
L 1055.43616 646.455834 
L 1056.738645 647.351818 
L 1058.04113 648.454895 
L 1059.343615 647.442575 
L 1060.6461 647.882963 
L 1061.948585 647.45072 
L 1063.25107 651.072562 
L 1064.553555 652.35456 
L 1065.85604 656.345565 
L 1067.158525 661.373541 
L 1068.46101 662.953645 
L 1069.763495 666.077951 
L 1071.06598 659.405807 
L 1072.368465 663.105263 
L 1073.67095 662.949429 
L 1074.973435 660.89223 
L 1076.27592 657.933174 
L 1077.578405 655.737156 
L 1078.88089 659.308989 
L 1080.183375 658.149934 
L 1081.48586 654.346479 
L 1082.788345 663.554499 
L 1084.09083 665.40806 
L 1085.393315 664.985972 
L 1086.6958 665.643071 
L 1087.998285 673.336686 
L 1089.30077 675.309497 
L 1091.90574 675.318621 
L 1093.208225 675.891979 
L 1094.51071 676.257968 
L 1095.813195 676.953799 
L 1097.11568 674.166109 
L 1098.418165 676.613022 
L 1099.72065 676.523064 
L 1101.023135 674.244194 
L 1102.32562 673.557615 
L 1103.628105 657.395282 
L 1104.93059 661.134456 
L 1106.233075 661.883817 
L 1107.53556 664.173498 
L 1108.838045 665.458277 
L 1110.14053 667.13143 
L 1111.443015 667.88081 
L 1114.047985 667.283358 
L 1116.652955 667.52155 
L 1117.95544 669.506144 
L 1119.257925 670.368177 
L 1120.56041 660.434002 
L 1121.862895 660.797169 
L 1123.16538 661.915458 
L 1124.467865 660.198308 
L 1125.77035 659.852688 
L 1127.072835 662.589279 
L 1128.37532 664.18861 
L 1129.677805 665.576449 
L 1130.98029 666.66188 
L 1132.282775 666.603145 
L 1133.58526 667.343312 
L 1134.887745 667.489955 
L 1136.19023 671.178709 
L 1137.492715 670.542144 
L 1138.7952 669.105838 
L 1140.097685 671.110933 
L 1141.40017 667.246706 
L 1142.702655 670.439997 
L 1144.00514 671.203565 
L 1145.307625 672.521977 
L 1146.61011 672.845917 
L 1147.912595 670.385749 
L 1149.21508 672.485801 
L 1150.517565 671.411602 
L 1151.82005 668.115324 
L 1153.122535 668.307047 
L 1154.42502 672.677826 
L 1155.727505 676.261571 
L 1157.02999 676.224441 
L 1158.332475 675.904048 
L 1159.63496 672.922317 
L 1160.937445 675.707834 
L 1162.23993 675.690413 
L 1163.542415 675.233762 
L 1164.8449 675.868045 
L 1166.147385 677.858595 
L 1167.44987 677.129512 
L 1168.752355 637.081613 
L 1170.05484 638.845299 
L 1171.357325 639.180038 
L 1172.65981 640.575286 
L 1173.962295 639.997827 
L 1175.26478 642.726613 
L 1176.567265 638.374562 
L 1177.86975 643.331688 
L 1179.172235 645.91847 
L 1180.47472 647.201913 
L 1181.777205 621.523216 
L 1183.07969 622.551946 
L 1184.382175 621.998245 
L 1185.68466 621.998832 
L 1186.987145 625.339849 
L 1188.28963 624.411378 
L 1189.592115 625.467565 
L 1190.8946 627.390279 
L 1193.49957 632.66257 
L 1194.802055 631.051154 
L 1196.10454 632.009469 
L 1197.407025 634.010687 
L 1198.70951 639.705883 
L 1200.011995 642.009301 
L 1201.31448 643.023827 
L 1202.616965 644.87909 
L 1203.91945 638.296432 
L 1206.52442 643.919982 
L 1209.12939 645.316993 
L 1210.431875 644.785739 
L 1211.73436 645.10466 
L 1213.036845 644.952949 
L 1214.33933 643.081105 
L 1215.641815 645.612176 
L 1216.9443 646.287034 
L 1218.246785 648.869481 
L 1219.54927 648.934202 
L 1220.851755 650.211773 
L 1222.15424 650.670484 
L 1223.456725 650.836114 
L 1226.061695 655.348449 
L 1227.36418 655.236359 
L 1228.666665 656.874944 
L 1229.96915 654.602561 
L 1231.271635 656.011778 
L 1232.57412 655.36255 
L 1233.876605 674.159441 
L 1235.17909 677.675834 
L 1236.481575 672.783213 
L 1237.78406 674.266473 
L 1240.38903 672.359526 
L 1241.691515 670.271205 
L 1244.296485 674.839741 
L 1245.59897 675.895869 
L 1246.901455 676.045887 
L 1248.20394 675.028946 
L 1249.506425 679.231732 
L 1250.80891 682.004309 
L 1252.111395 683.409712 
L 1253.41388 683.848764 
L 1254.716365 685.509083 
L 1256.01885 685.22951 
L 1257.321335 684.473639 
L 1258.62382 688.057415 
L 1259.926305 688.009724 
L 1261.22879 688.848784 
L 1262.531275 690.460386 
L 1263.83376 692.57673 
L 1265.136245 690.653428 
L 1266.43873 697.702576 
L 1267.741215 697.128352 
L 1269.0437 696.81698 
L 1270.346185 696.665252 
L 1271.64867 701.483576 
L 1272.951155 700.244856 
L 1274.25364 699.824127 
L 1275.556125 704.211666 
L 1276.85861 705.041351 
L 1278.161095 705.606024 
L 1279.46358 704.855399 
L 1280.766065 705.761048 
L 1282.06855 704.876201 
L 1283.371035 706.129888 
L 1284.67352 697.658532 
L 1285.976005 701.585919 
L 1287.27849 697.521593 
L 1288.580975 695.878171 
L 1289.88346 696.191501 
L 1291.185945 700.189719 
L 1292.48843 705.84753 
L 1293.790915 702.192242 
L 1295.0934 703.537125 
L 1296.395885 703.689171 
L 1297.69837 703.07479 
L 1299.000855 697.971689 
L 1300.30334 697.905201 
L 1301.605825 700.037372 
L 1302.90831 698.400701 
L 1304.210795 698.952767 
L 1305.51328 700.214998 
L 1306.815765 700.670245 
L 1308.11825 698.522858 
L 1309.420735 600.568616 
L 1310.72322 601.735675 
L 1312.025705 605.412036 
L 1313.32819 611.579181 
L 1314.630675 613.816244 
L 1315.93316 680.112421 
L 1317.235645 682.135965 
L 1318.53813 680.529211 
L 1319.840615 682.190084 
L 1321.1431 691.836413 
L 1322.445585 691.820118 
L 1323.74807 695.262568 
L 1325.050555 697.935455 
L 1326.35304 699.40655 
L 1327.655525 698.189154 
L 1328.95801 700.307717 
L 1330.260495 701.165348 
L 1331.56298 700.708446 
L 1332.865465 694.888281 
L 1334.16795 691.246797 
L 1336.77292 689.345636 
L 1338.075405 691.099149 
L 1339.37789 692.43938 
L 1340.680375 695.937031 
L 1341.98286 697.044094 
L 1343.285345 699.757932 
L 1344.58783 652.305345 
L 1345.890315 652.900523 
L 1347.1928 695.395147 
L 1348.495285 692.752196 
L 1349.79777 694.015795 
L 1351.100255 694.064562 
L 1352.40274 695.582199 
L 1353.705225 695.273222 
L 1355.00771 697.359796 
L 1356.310195 701.638735 
L 1357.61268 703.947344 
L 1358.915165 704.800927 
L 1360.21765 704.491801 
L 1361.520135 703.155433 
L 1362.82262 703.486245 
L 1364.125105 704.711398 
L 1365.42759 708.002503 
L 1366.730075 705.420997 
L 1368.03256 705.661703 
L 1369.335045 705.186858 
L 1370.63753 708.737147 
L 1371.940015 708.414656 
L 1371.940015 708.414656 
" style="fill:none;stroke:#008000;stroke-linecap:square;stroke-width:2.0;"/>
   </g>
   <g id="patch_3">
    <path d="M 70.7575 57.915781 
L 1373.2425 57.915781 
" style="fill:none;stroke:#000000;stroke-linecap:square;stroke-linejoin:miter;"/>
   </g>
   <g id="patch_4">
    <path d="M 1373.2425 770.338125 
L 1373.2425 57.915781 
" style="fill:none;stroke:#000000;stroke-linecap:square;stroke-linejoin:miter;"/>
   </g>
   <g id="patch_5">
    <path d="M 70.7575 770.338125 
L 1373.2425 770.338125 
" style="fill:none;stroke:#000000;stroke-linecap:square;stroke-linejoin:miter;"/>
   </g>
   <g id="patch_6">
    <path d="M 70.7575 770.338125 
L 70.7575 57.915781 
" style="fill:none;stroke:#000000;stroke-linecap:square;stroke-linejoin:miter;"/>
   </g>
   <g id="matplotlib.axis_1">
    <g id="xtick_1">
     <g id="line2d_3">
      <defs>
       <path d="M 0 0 
L 0 -4 
" id="mc3590fc822" style="stroke:#000000;stroke-width:0.5;"/>
      </defs>
      <g>
       <use style="stroke:#000000;stroke-width:0.5;" x="70.7575" xlink:href="#mc3590fc822" y="770.338125"/>
      </g>
     </g>
     <g id="line2d_4">
      <defs>
       <path d="M 0 0 
L 0 4 
" id="m6893170723" style="stroke:#000000;stroke-width:0.5;"/>
      </defs>
      <g>
       <use style="stroke:#000000;stroke-width:0.5;" x="70.7575" xlink:href="#m6893170723" y="57.91578125"/>
      </g>
     </g>
     <g id="text_1">
      <!-- 0 -->
      <defs>
       <path d="M 31.78125 66.40625 
Q 24.171875 66.40625 20.328125 58.90625 
Q 16.5 51.421875 16.5 36.375 
Q 16.5 21.390625 20.328125 13.890625 
Q 24.171875 6.390625 31.78125 6.390625 
Q 39.453125 6.390625 43.28125 13.890625 
Q 47.125 21.390625 47.125 36.375 
Q 47.125 51.421875 43.28125 58.90625 
Q 39.453125 66.40625 31.78125 66.40625 
M 31.78125 74.21875 
Q 44.046875 74.21875 50.515625 64.515625 
Q 56.984375 54.828125 56.984375 36.375 
Q 56.984375 17.96875 50.515625 8.265625 
Q 44.046875 -1.421875 31.78125 -1.421875 
Q 19.53125 -1.421875 13.0625 8.265625 
Q 6.59375 17.96875 6.59375 36.375 
Q 6.59375 54.828125 13.0625 64.515625 
Q 19.53125 74.21875 31.78125 74.21875 
" id="BitstreamVeraSans-Roman-30"/>
      </defs>
      <g transform="translate(61.21375 797.1334375)scale(0.3 -0.3)">
       <use xlink:href="#BitstreamVeraSans-Roman-30"/>
      </g>
     </g>
    </g>
    <g id="xtick_2">
     <g id="line2d_5">
      <g>
       <use style="stroke:#000000;stroke-width:0.5;" x="331.2545" xlink:href="#mc3590fc822" y="770.338125"/>
      </g>
     </g>
     <g id="line2d_6">
      <g>
       <use style="stroke:#000000;stroke-width:0.5;" x="331.2545" xlink:href="#m6893170723" y="57.91578125"/>
      </g>
     </g>
     <g id="text_2">
      <!-- 200 -->
      <defs>
       <path d="M 19.1875 8.296875 
L 53.609375 8.296875 
L 53.609375 0 
L 7.328125 0 
L 7.328125 8.296875 
Q 12.9375 14.109375 22.625 23.890625 
Q 32.328125 33.6875 34.8125 36.53125 
Q 39.546875 41.84375 41.421875 45.53125 
Q 43.3125 49.21875 43.3125 52.78125 
Q 43.3125 58.59375 39.234375 62.25 
Q 35.15625 65.921875 28.609375 65.921875 
Q 23.96875 65.921875 18.8125 64.3125 
Q 13.671875 62.703125 7.8125 59.421875 
L 7.8125 69.390625 
Q 13.765625 71.78125 18.9375 73 
Q 24.125 74.21875 28.421875 74.21875 
Q 39.75 74.21875 46.484375 68.546875 
Q 53.21875 62.890625 53.21875 53.421875 
Q 53.21875 48.921875 51.53125 44.890625 
Q 49.859375 40.875 45.40625 35.40625 
Q 44.1875 33.984375 37.640625 27.21875 
Q 31.109375 20.453125 19.1875 8.296875 
" id="BitstreamVeraSans-Roman-32"/>
      </defs>
      <g transform="translate(302.62325 797.1334375)scale(0.3 -0.3)">
       <use xlink:href="#BitstreamVeraSans-Roman-32"/>
       <use x="63.623046875" xlink:href="#BitstreamVeraSans-Roman-30"/>
       <use x="127.24609375" xlink:href="#BitstreamVeraSans-Roman-30"/>
      </g>
     </g>
    </g>
    <g id="xtick_3">
     <g id="line2d_7">
      <g>
       <use style="stroke:#000000;stroke-width:0.5;" x="591.7515" xlink:href="#mc3590fc822" y="770.338125"/>
      </g>
     </g>
     <g id="line2d_8">
      <g>
       <use style="stroke:#000000;stroke-width:0.5;" x="591.7515" xlink:href="#m6893170723" y="57.91578125"/>
      </g>
     </g>
     <g id="text_3">
      <!-- 400 -->
      <defs>
       <path d="M 37.796875 64.3125 
L 12.890625 25.390625 
L 37.796875 25.390625 
z
M 35.203125 72.90625 
L 47.609375 72.90625 
L 47.609375 25.390625 
L 58.015625 25.390625 
L 58.015625 17.1875 
L 47.609375 17.1875 
L 47.609375 0 
L 37.796875 0 
L 37.796875 17.1875 
L 4.890625 17.1875 
L 4.890625 26.703125 
z
" id="BitstreamVeraSans-Roman-34"/>
      </defs>
      <g transform="translate(563.12025 797.1334375)scale(0.3 -0.3)">
       <use xlink:href="#BitstreamVeraSans-Roman-34"/>
       <use x="63.623046875" xlink:href="#BitstreamVeraSans-Roman-30"/>
       <use x="127.24609375" xlink:href="#BitstreamVeraSans-Roman-30"/>
      </g>
     </g>
    </g>
    <g id="xtick_4">
     <g id="line2d_9">
      <g>
       <use style="stroke:#000000;stroke-width:0.5;" x="852.2485" xlink:href="#mc3590fc822" y="770.338125"/>
      </g>
     </g>
     <g id="line2d_10">
      <g>
       <use style="stroke:#000000;stroke-width:0.5;" x="852.2485" xlink:href="#m6893170723" y="57.91578125"/>
      </g>
     </g>
     <g id="text_4">
      <!-- 600 -->
      <defs>
       <path d="M 33.015625 40.375 
Q 26.375 40.375 22.484375 35.828125 
Q 18.609375 31.296875 18.609375 23.390625 
Q 18.609375 15.53125 22.484375 10.953125 
Q 26.375 6.390625 33.015625 6.390625 
Q 39.65625 6.390625 43.53125 10.953125 
Q 47.40625 15.53125 47.40625 23.390625 
Q 47.40625 31.296875 43.53125 35.828125 
Q 39.65625 40.375 33.015625 40.375 
M 52.59375 71.296875 
L 52.59375 62.3125 
Q 48.875 64.0625 45.09375 64.984375 
Q 41.3125 65.921875 37.59375 65.921875 
Q 27.828125 65.921875 22.671875 59.328125 
Q 17.53125 52.734375 16.796875 39.40625 
Q 19.671875 43.65625 24.015625 45.921875 
Q 28.375 48.1875 33.59375 48.1875 
Q 44.578125 48.1875 50.953125 41.515625 
Q 57.328125 34.859375 57.328125 23.390625 
Q 57.328125 12.15625 50.6875 5.359375 
Q 44.046875 -1.421875 33.015625 -1.421875 
Q 20.359375 -1.421875 13.671875 8.265625 
Q 6.984375 17.96875 6.984375 36.375 
Q 6.984375 53.65625 15.1875 63.9375 
Q 23.390625 74.21875 37.203125 74.21875 
Q 40.921875 74.21875 44.703125 73.484375 
Q 48.484375 72.75 52.59375 71.296875 
" id="BitstreamVeraSans-Roman-36"/>
      </defs>
      <g transform="translate(823.61725 797.1334375)scale(0.3 -0.3)">
       <use xlink:href="#BitstreamVeraSans-Roman-36"/>
       <use x="63.623046875" xlink:href="#BitstreamVeraSans-Roman-30"/>
       <use x="127.24609375" xlink:href="#BitstreamVeraSans-Roman-30"/>
      </g>
     </g>
    </g>
    <g id="xtick_5">
     <g id="line2d_11">
      <g>
       <use style="stroke:#000000;stroke-width:0.5;" x="1112.7455" xlink:href="#mc3590fc822" y="770.338125"/>
      </g>
     </g>
     <g id="line2d_12">
      <g>
       <use style="stroke:#000000;stroke-width:0.5;" x="1112.7455" xlink:href="#m6893170723" y="57.91578125"/>
      </g>
     </g>
     <g id="text_5">
      <!-- 800 -->
      <defs>
       <path d="M 31.78125 34.625 
Q 24.75 34.625 20.71875 30.859375 
Q 16.703125 27.09375 16.703125 20.515625 
Q 16.703125 13.921875 20.71875 10.15625 
Q 24.75 6.390625 31.78125 6.390625 
Q 38.8125 6.390625 42.859375 10.171875 
Q 46.921875 13.96875 46.921875 20.515625 
Q 46.921875 27.09375 42.890625 30.859375 
Q 38.875 34.625 31.78125 34.625 
M 21.921875 38.8125 
Q 15.578125 40.375 12.03125 44.71875 
Q 8.5 49.078125 8.5 55.328125 
Q 8.5 64.0625 14.71875 69.140625 
Q 20.953125 74.21875 31.78125 74.21875 
Q 42.671875 74.21875 48.875 69.140625 
Q 55.078125 64.0625 55.078125 55.328125 
Q 55.078125 49.078125 51.53125 44.71875 
Q 48 40.375 41.703125 38.8125 
Q 48.828125 37.15625 52.796875 32.3125 
Q 56.78125 27.484375 56.78125 20.515625 
Q 56.78125 9.90625 50.3125 4.234375 
Q 43.84375 -1.421875 31.78125 -1.421875 
Q 19.734375 -1.421875 13.25 4.234375 
Q 6.78125 9.90625 6.78125 20.515625 
Q 6.78125 27.484375 10.78125 32.3125 
Q 14.796875 37.15625 21.921875 38.8125 
M 18.3125 54.390625 
Q 18.3125 48.734375 21.84375 45.5625 
Q 25.390625 42.390625 31.78125 42.390625 
Q 38.140625 42.390625 41.71875 45.5625 
Q 45.3125 48.734375 45.3125 54.390625 
Q 45.3125 60.0625 41.71875 63.234375 
Q 38.140625 66.40625 31.78125 66.40625 
Q 25.390625 66.40625 21.84375 63.234375 
Q 18.3125 60.0625 18.3125 54.390625 
" id="BitstreamVeraSans-Roman-38"/>
      </defs>
      <g transform="translate(1084.11425 797.1334375)scale(0.3 -0.3)">
       <use xlink:href="#BitstreamVeraSans-Roman-38"/>
       <use x="63.623046875" xlink:href="#BitstreamVeraSans-Roman-30"/>
       <use x="127.24609375" xlink:href="#BitstreamVeraSans-Roman-30"/>
      </g>
     </g>
    </g>
    <g id="xtick_6">
     <g id="line2d_13">
      <g>
       <use style="stroke:#000000;stroke-width:0.5;" x="1373.2425" xlink:href="#mc3590fc822" y="770.338125"/>
      </g>
     </g>
     <g id="line2d_14">
      <g>
       <use style="stroke:#000000;stroke-width:0.5;" x="1373.2425" xlink:href="#m6893170723" y="57.91578125"/>
      </g>
     </g>
     <g id="text_6">
      <!-- 1000 -->
      <defs>
       <path d="M 12.40625 8.296875 
L 28.515625 8.296875 
L 28.515625 63.921875 
L 10.984375 60.40625 
L 10.984375 69.390625 
L 28.421875 72.90625 
L 38.28125 72.90625 
L 38.28125 8.296875 
L 54.390625 8.296875 
L 54.390625 0 
L 12.40625 0 
z
" id="BitstreamVeraSans-Roman-31"/>
      </defs>
      <g transform="translate(1335.0675 797.1334375)scale(0.3 -0.3)">
       <use xlink:href="#BitstreamVeraSans-Roman-31"/>
       <use x="63.623046875" xlink:href="#BitstreamVeraSans-Roman-30"/>
       <use x="127.24609375" xlink:href="#BitstreamVeraSans-Roman-30"/>
       <use x="190.869140625" xlink:href="#BitstreamVeraSans-Roman-30"/>
      </g>
     </g>
    </g>
    <g id="text_7">
     <!-- iterations -->
     <defs>
      <path d="M 54.890625 33.015625 
L 54.890625 0 
L 45.90625 0 
L 45.90625 32.71875 
Q 45.90625 40.484375 42.875 44.328125 
Q 39.84375 48.1875 33.796875 48.1875 
Q 26.515625 48.1875 22.3125 43.546875 
Q 18.109375 38.921875 18.109375 30.90625 
L 18.109375 0 
L 9.078125 0 
L 9.078125 54.6875 
L 18.109375 54.6875 
L 18.109375 46.1875 
Q 21.34375 51.125 25.703125 53.5625 
Q 30.078125 56 35.796875 56 
Q 45.21875 56 50.046875 50.171875 
Q 54.890625 44.34375 54.890625 33.015625 
" id="BitstreamVeraSans-Roman-6e"/>
      <path d="M 34.28125 27.484375 
Q 23.390625 27.484375 19.1875 25 
Q 14.984375 22.515625 14.984375 16.5 
Q 14.984375 11.71875 18.140625 8.90625 
Q 21.296875 6.109375 26.703125 6.109375 
Q 34.1875 6.109375 38.703125 11.40625 
Q 43.21875 16.703125 43.21875 25.484375 
L 43.21875 27.484375 
z
M 52.203125 31.203125 
L 52.203125 0 
L 43.21875 0 
L 43.21875 8.296875 
Q 40.140625 3.328125 35.546875 0.953125 
Q 30.953125 -1.421875 24.3125 -1.421875 
Q 15.921875 -1.421875 10.953125 3.296875 
Q 6 8.015625 6 15.921875 
Q 6 25.140625 12.171875 29.828125 
Q 18.359375 34.515625 30.609375 34.515625 
L 43.21875 34.515625 
L 43.21875 35.40625 
Q 43.21875 41.609375 39.140625 45 
Q 35.0625 48.390625 27.6875 48.390625 
Q 23 48.390625 18.546875 47.265625 
Q 14.109375 46.140625 10.015625 43.890625 
L 10.015625 52.203125 
Q 14.9375 54.109375 19.578125 55.046875 
Q 24.21875 56 28.609375 56 
Q 40.484375 56 46.34375 49.84375 
Q 52.203125 43.703125 52.203125 31.203125 
" id="BitstreamVeraSans-Roman-61"/>
      <path d="M 30.609375 48.390625 
Q 23.390625 48.390625 19.1875 42.75 
Q 14.984375 37.109375 14.984375 27.296875 
Q 14.984375 17.484375 19.15625 11.84375 
Q 23.34375 6.203125 30.609375 6.203125 
Q 37.796875 6.203125 41.984375 11.859375 
Q 46.1875 17.53125 46.1875 27.296875 
Q 46.1875 37.015625 41.984375 42.703125 
Q 37.796875 48.390625 30.609375 48.390625 
M 30.609375 56 
Q 42.328125 56 49.015625 48.375 
Q 55.71875 40.765625 55.71875 27.296875 
Q 55.71875 13.875 49.015625 6.21875 
Q 42.328125 -1.421875 30.609375 -1.421875 
Q 18.84375 -1.421875 12.171875 6.21875 
Q 5.515625 13.875 5.515625 27.296875 
Q 5.515625 40.765625 12.171875 48.375 
Q 18.84375 56 30.609375 56 
" id="BitstreamVeraSans-Roman-6f"/>
      <path d="M 9.421875 54.6875 
L 18.40625 54.6875 
L 18.40625 0 
L 9.421875 0 
z
M 9.421875 75.984375 
L 18.40625 75.984375 
L 18.40625 64.59375 
L 9.421875 64.59375 
z
" id="BitstreamVeraSans-Roman-69"/>
      <path d="M 56.203125 29.59375 
L 56.203125 25.203125 
L 14.890625 25.203125 
Q 15.484375 15.921875 20.484375 11.0625 
Q 25.484375 6.203125 34.421875 6.203125 
Q 39.59375 6.203125 44.453125 7.46875 
Q 49.3125 8.734375 54.109375 11.28125 
L 54.109375 2.78125 
Q 49.265625 0.734375 44.1875 -0.34375 
Q 39.109375 -1.421875 33.890625 -1.421875 
Q 20.796875 -1.421875 13.15625 6.1875 
Q 5.515625 13.8125 5.515625 26.8125 
Q 5.515625 40.234375 12.765625 48.109375 
Q 20.015625 56 32.328125 56 
Q 43.359375 56 49.78125 48.890625 
Q 56.203125 41.796875 56.203125 29.59375 
M 47.21875 32.234375 
Q 47.125 39.59375 43.09375 43.984375 
Q 39.0625 48.390625 32.421875 48.390625 
Q 24.90625 48.390625 20.390625 44.140625 
Q 15.875 39.890625 15.1875 32.171875 
z
" id="BitstreamVeraSans-Roman-65"/>
      <path d="M 18.3125 70.21875 
L 18.3125 54.6875 
L 36.8125 54.6875 
L 36.8125 47.703125 
L 18.3125 47.703125 
L 18.3125 18.015625 
Q 18.3125 11.328125 20.140625 9.421875 
Q 21.96875 7.515625 27.59375 7.515625 
L 36.8125 7.515625 
L 36.8125 0 
L 27.59375 0 
Q 17.1875 0 13.234375 3.875 
Q 9.28125 7.765625 9.28125 18.015625 
L 9.28125 47.703125 
L 2.6875 47.703125 
L 2.6875 54.6875 
L 9.28125 54.6875 
L 9.28125 70.21875 
z
" id="BitstreamVeraSans-Roman-74"/>
      <path d="M 41.109375 46.296875 
Q 39.59375 47.171875 37.8125 47.578125 
Q 36.03125 48 33.890625 48 
Q 26.265625 48 22.1875 43.046875 
Q 18.109375 38.09375 18.109375 28.8125 
L 18.109375 0 
L 9.078125 0 
L 9.078125 54.6875 
L 18.109375 54.6875 
L 18.109375 46.1875 
Q 20.953125 51.171875 25.484375 53.578125 
Q 30.03125 56 36.53125 56 
Q 37.453125 56 38.578125 55.875 
Q 39.703125 55.765625 41.0625 55.515625 
z
" id="BitstreamVeraSans-Roman-72"/>
      <path d="M 44.28125 53.078125 
L 44.28125 44.578125 
Q 40.484375 46.53125 36.375 47.5 
Q 32.28125 48.484375 27.875 48.484375 
Q 21.1875 48.484375 17.84375 46.4375 
Q 14.5 44.390625 14.5 40.28125 
Q 14.5 37.15625 16.890625 35.375 
Q 19.28125 33.59375 26.515625 31.984375 
L 29.59375 31.296875 
Q 39.15625 29.25 43.1875 25.515625 
Q 47.21875 21.78125 47.21875 15.09375 
Q 47.21875 7.46875 41.1875 3.015625 
Q 35.15625 -1.421875 24.609375 -1.421875 
Q 20.21875 -1.421875 15.453125 -0.5625 
Q 10.6875 0.296875 5.421875 2 
L 5.421875 11.28125 
Q 10.40625 8.6875 15.234375 7.390625 
Q 20.0625 6.109375 24.8125 6.109375 
Q 31.15625 6.109375 34.5625 8.28125 
Q 37.984375 10.453125 37.984375 14.40625 
Q 37.984375 18.0625 35.515625 20.015625 
Q 33.0625 21.96875 24.703125 23.78125 
L 21.578125 24.515625 
Q 13.234375 26.265625 9.515625 29.90625 
Q 5.8125 33.546875 5.8125 39.890625 
Q 5.8125 47.609375 11.28125 51.796875 
Q 16.75 56 26.8125 56 
Q 31.78125 56 36.171875 55.265625 
Q 40.578125 54.546875 44.28125 53.078125 
" id="BitstreamVeraSans-Roman-73"/>
     </defs>
     <g transform="translate(650.81796875 831.1678125)scale(0.3 -0.3)">
      <use xlink:href="#BitstreamVeraSans-Roman-69"/>
      <use x="27.783203125" xlink:href="#BitstreamVeraSans-Roman-74"/>
      <use x="66.9921875" xlink:href="#BitstreamVeraSans-Roman-65"/>
      <use x="128.515625" xlink:href="#BitstreamVeraSans-Roman-72"/>
      <use x="169.62890625" xlink:href="#BitstreamVeraSans-Roman-61"/>
      <use x="230.908203125" xlink:href="#BitstreamVeraSans-Roman-74"/>
      <use x="270.1171875" xlink:href="#BitstreamVeraSans-Roman-69"/>
      <use x="297.900390625" xlink:href="#BitstreamVeraSans-Roman-6f"/>
      <use x="359.08203125" xlink:href="#BitstreamVeraSans-Roman-6e"/>
      <use x="422.4609375" xlink:href="#BitstreamVeraSans-Roman-73"/>
     </g>
    </g>
   </g>
   <g id="matplotlib.axis_2">
    <g id="ytick_1">
     <g id="line2d_15">
      <defs>
       <path d="M 0 0 
L 4 0 
" id="m7ed87a8e5e" style="stroke:#000000;stroke-width:0.5;"/>
      </defs>
      <g>
       <use style="stroke:#000000;stroke-width:0.5;" x="70.7575" xlink:href="#m7ed87a8e5e" y="770.338125"/>
      </g>
     </g>
     <g id="line2d_16">
      <defs>
       <path d="M 0 0 
L -4 0 
" id="m9919d4a3fb" style="stroke:#000000;stroke-width:0.5;"/>
      </defs>
      <g>
       <use style="stroke:#000000;stroke-width:0.5;" x="1373.2425" xlink:href="#m9919d4a3fb" y="770.338125"/>
      </g>
     </g>
     <g id="text_8">
      <!-- 6 -->
      <g transform="translate(47.67 778.61625)scale(0.3 -0.3)">
       <use xlink:href="#BitstreamVeraSans-Roman-36"/>
      </g>
     </g>
    </g>
    <g id="ytick_2">
     <g id="line2d_17">
      <g>
       <use style="stroke:#000000;stroke-width:0.5;" x="70.7575" xlink:href="#m7ed87a8e5e" y="668.563504464"/>
      </g>
     </g>
     <g id="line2d_18">
      <g>
       <use style="stroke:#000000;stroke-width:0.5;" x="1373.2425" xlink:href="#m9919d4a3fb" y="668.563504464"/>
      </g>
     </g>
     <g id="text_9">
      <!-- 7 -->
      <defs>
       <path d="M 8.203125 72.90625 
L 55.078125 72.90625 
L 55.078125 68.703125 
L 28.609375 0 
L 18.3125 0 
L 43.21875 64.59375 
L 8.203125 64.59375 
z
" id="BitstreamVeraSans-Roman-37"/>
      </defs>
      <g transform="translate(47.67 676.841629464)scale(0.3 -0.3)">
       <use xlink:href="#BitstreamVeraSans-Roman-37"/>
      </g>
     </g>
    </g>
    <g id="ytick_3">
     <g id="line2d_19">
      <g>
       <use style="stroke:#000000;stroke-width:0.5;" x="70.7575" xlink:href="#m7ed87a8e5e" y="566.788883929"/>
      </g>
     </g>
     <g id="line2d_20">
      <g>
       <use style="stroke:#000000;stroke-width:0.5;" x="1373.2425" xlink:href="#m9919d4a3fb" y="566.788883929"/>
      </g>
     </g>
     <g id="text_10">
      <!-- 8 -->
      <g transform="translate(47.67 575.067008929)scale(0.3 -0.3)">
       <use xlink:href="#BitstreamVeraSans-Roman-38"/>
      </g>
     </g>
    </g>
    <g id="ytick_4">
     <g id="line2d_21">
      <g>
       <use style="stroke:#000000;stroke-width:0.5;" x="70.7575" xlink:href="#m7ed87a8e5e" y="465.014263393"/>
      </g>
     </g>
     <g id="line2d_22">
      <g>
       <use style="stroke:#000000;stroke-width:0.5;" x="1373.2425" xlink:href="#m9919d4a3fb" y="465.014263393"/>
      </g>
     </g>
     <g id="text_11">
      <!-- 9 -->
      <defs>
       <path d="M 10.984375 1.515625 
L 10.984375 10.5 
Q 14.703125 8.734375 18.5 7.8125 
Q 22.3125 6.890625 25.984375 6.890625 
Q 35.75 6.890625 40.890625 13.453125 
Q 46.046875 20.015625 46.78125 33.40625 
Q 43.953125 29.203125 39.59375 26.953125 
Q 35.25 24.703125 29.984375 24.703125 
Q 19.046875 24.703125 12.671875 31.3125 
Q 6.296875 37.9375 6.296875 49.421875 
Q 6.296875 60.640625 12.9375 67.421875 
Q 19.578125 74.21875 30.609375 74.21875 
Q 43.265625 74.21875 49.921875 64.515625 
Q 56.59375 54.828125 56.59375 36.375 
Q 56.59375 19.140625 48.40625 8.859375 
Q 40.234375 -1.421875 26.421875 -1.421875 
Q 22.703125 -1.421875 18.890625 -0.6875 
Q 15.09375 0.046875 10.984375 1.515625 
M 30.609375 32.421875 
Q 37.25 32.421875 41.125 36.953125 
Q 45.015625 41.5 45.015625 49.421875 
Q 45.015625 57.28125 41.125 61.84375 
Q 37.25 66.40625 30.609375 66.40625 
Q 23.96875 66.40625 20.09375 61.84375 
Q 16.21875 57.28125 16.21875 49.421875 
Q 16.21875 41.5 20.09375 36.953125 
Q 23.96875 32.421875 30.609375 32.421875 
" id="BitstreamVeraSans-Roman-39"/>
      </defs>
      <g transform="translate(47.67 473.292388393)scale(0.3 -0.3)">
       <use xlink:href="#BitstreamVeraSans-Roman-39"/>
      </g>
     </g>
    </g>
    <g id="ytick_5">
     <g id="line2d_23">
      <g>
       <use style="stroke:#000000;stroke-width:0.5;" x="70.7575" xlink:href="#m7ed87a8e5e" y="363.239642857"/>
      </g>
     </g>
     <g id="line2d_24">
      <g>
       <use style="stroke:#000000;stroke-width:0.5;" x="1373.2425" xlink:href="#m9919d4a3fb" y="363.239642857"/>
      </g>
     </g>
     <g id="text_12">
      <!-- 10 -->
      <g transform="translate(28.5825 371.517767857)scale(0.3 -0.3)">
       <use xlink:href="#BitstreamVeraSans-Roman-31"/>
       <use x="63.623046875" xlink:href="#BitstreamVeraSans-Roman-30"/>
      </g>
     </g>
    </g>
    <g id="ytick_6">
     <g id="line2d_25">
      <g>
       <use style="stroke:#000000;stroke-width:0.5;" x="70.7575" xlink:href="#m7ed87a8e5e" y="261.465022321"/>
      </g>
     </g>
     <g id="line2d_26">
      <g>
       <use style="stroke:#000000;stroke-width:0.5;" x="1373.2425" xlink:href="#m9919d4a3fb" y="261.465022321"/>
      </g>
     </g>
     <g id="text_13">
      <!-- 11 -->
      <g transform="translate(28.5825 269.743147321)scale(0.3 -0.3)">
       <use xlink:href="#BitstreamVeraSans-Roman-31"/>
       <use x="63.623046875" xlink:href="#BitstreamVeraSans-Roman-31"/>
      </g>
     </g>
    </g>
    <g id="ytick_7">
     <g id="line2d_27">
      <g>
       <use style="stroke:#000000;stroke-width:0.5;" x="70.7575" xlink:href="#m7ed87a8e5e" y="159.690401786"/>
      </g>
     </g>
     <g id="line2d_28">
      <g>
       <use style="stroke:#000000;stroke-width:0.5;" x="1373.2425" xlink:href="#m9919d4a3fb" y="159.690401786"/>
      </g>
     </g>
     <g id="text_14">
      <!-- 12 -->
      <g transform="translate(28.5825 167.968526786)scale(0.3 -0.3)">
       <use xlink:href="#BitstreamVeraSans-Roman-31"/>
       <use x="63.623046875" xlink:href="#BitstreamVeraSans-Roman-32"/>
      </g>
     </g>
    </g>
    <g id="ytick_8">
     <g id="line2d_29">
      <g>
       <use style="stroke:#000000;stroke-width:0.5;" x="70.7575" xlink:href="#m7ed87a8e5e" y="57.91578125"/>
      </g>
     </g>
     <g id="line2d_30">
      <g>
       <use style="stroke:#000000;stroke-width:0.5;" x="1373.2425" xlink:href="#m9919d4a3fb" y="57.91578125"/>
      </g>
     </g>
     <g id="text_15">
      <!-- 13 -->
      <defs>
       <path d="M 40.578125 39.3125 
Q 47.65625 37.796875 51.625 33 
Q 55.609375 28.21875 55.609375 21.1875 
Q 55.609375 10.40625 48.1875 4.484375 
Q 40.765625 -1.421875 27.09375 -1.421875 
Q 22.515625 -1.421875 17.65625 -0.515625 
Q 12.796875 0.390625 7.625 2.203125 
L 7.625 11.71875 
Q 11.71875 9.328125 16.59375 8.109375 
Q 21.484375 6.890625 26.8125 6.890625 
Q 36.078125 6.890625 40.9375 10.546875 
Q 45.796875 14.203125 45.796875 21.1875 
Q 45.796875 27.640625 41.28125 31.265625 
Q 36.765625 34.90625 28.71875 34.90625 
L 20.21875 34.90625 
L 20.21875 43.015625 
L 29.109375 43.015625 
Q 36.375 43.015625 40.234375 45.921875 
Q 44.09375 48.828125 44.09375 54.296875 
Q 44.09375 59.90625 40.109375 62.90625 
Q 36.140625 65.921875 28.71875 65.921875 
Q 24.65625 65.921875 20.015625 65.03125 
Q 15.375 64.15625 9.8125 62.3125 
L 9.8125 71.09375 
Q 15.4375 72.65625 20.34375 73.4375 
Q 25.25 74.21875 29.59375 74.21875 
Q 40.828125 74.21875 47.359375 69.109375 
Q 53.90625 64.015625 53.90625 55.328125 
Q 53.90625 49.265625 50.4375 45.09375 
Q 46.96875 40.921875 40.578125 39.3125 
" id="BitstreamVeraSans-Roman-33"/>
      </defs>
      <g transform="translate(28.5825 66.19390625)scale(0.3 -0.3)">
       <use xlink:href="#BitstreamVeraSans-Roman-31"/>
       <use x="63.623046875" xlink:href="#BitstreamVeraSans-Roman-33"/>
      </g>
     </g>
    </g>
   </g>
   <g id="text_16">
    <!-- log(loss) -->
    <defs>
     <path d="M 8.015625 75.875 
L 15.828125 75.875 
Q 23.140625 64.359375 26.78125 53.3125 
Q 30.421875 42.28125 30.421875 31.390625 
Q 30.421875 20.453125 26.78125 9.375 
Q 23.140625 -1.703125 15.828125 -13.1875 
L 8.015625 -13.1875 
Q 14.5 -2 17.703125 9.0625 
Q 20.90625 20.125 20.90625 31.390625 
Q 20.90625 42.671875 17.703125 53.65625 
Q 14.5 64.65625 8.015625 75.875 
" id="BitstreamVeraSans-Roman-29"/>
     <path d="M 31 75.875 
Q 24.46875 64.65625 21.28125 53.65625 
Q 18.109375 42.671875 18.109375 31.390625 
Q 18.109375 20.125 21.3125 9.0625 
Q 24.515625 -2 31 -13.1875 
L 23.1875 -13.1875 
Q 15.875 -1.703125 12.234375 9.375 
Q 8.59375 20.453125 8.59375 31.390625 
Q 8.59375 42.28125 12.203125 53.3125 
Q 15.828125 64.359375 23.1875 75.875 
z
" id="BitstreamVeraSans-Roman-28"/>
     <path d="M 45.40625 27.984375 
Q 45.40625 37.75 41.375 43.109375 
Q 37.359375 48.484375 30.078125 48.484375 
Q 22.859375 48.484375 18.828125 43.109375 
Q 14.796875 37.75 14.796875 27.984375 
Q 14.796875 18.265625 18.828125 12.890625 
Q 22.859375 7.515625 30.078125 7.515625 
Q 37.359375 7.515625 41.375 12.890625 
Q 45.40625 18.265625 45.40625 27.984375 
M 54.390625 6.78125 
Q 54.390625 -7.171875 48.1875 -13.984375 
Q 42 -20.796875 29.203125 -20.796875 
Q 24.46875 -20.796875 20.265625 -20.09375 
Q 16.0625 -19.390625 12.109375 -17.921875 
L 12.109375 -9.1875 
Q 16.0625 -11.328125 19.921875 -12.34375 
Q 23.78125 -13.375 27.78125 -13.375 
Q 36.625 -13.375 41.015625 -8.765625 
Q 45.40625 -4.15625 45.40625 5.171875 
L 45.40625 9.625 
Q 42.625 4.78125 38.28125 2.390625 
Q 33.9375 0 27.875 0 
Q 17.828125 0 11.671875 7.65625 
Q 5.515625 15.328125 5.515625 27.984375 
Q 5.515625 40.671875 11.671875 48.328125 
Q 17.828125 56 27.875 56 
Q 33.9375 56 38.28125 53.609375 
Q 42.625 51.21875 45.40625 46.390625 
L 45.40625 54.6875 
L 54.390625 54.6875 
z
" id="BitstreamVeraSans-Roman-67"/>
     <path d="M 9.421875 75.984375 
L 18.40625 75.984375 
L 18.40625 0 
L 9.421875 0 
z
" id="BitstreamVeraSans-Roman-6c"/>
    </defs>
    <g transform="translate(658.45390625 52.91578125)scale(0.3 -0.3)">
     <use xlink:href="#BitstreamVeraSans-Roman-6c"/>
     <use x="27.783203125" xlink:href="#BitstreamVeraSans-Roman-6f"/>
     <use x="88.96484375" xlink:href="#BitstreamVeraSans-Roman-67"/>
     <use x="152.44140625" xlink:href="#BitstreamVeraSans-Roman-28"/>
     <use x="191.455078125" xlink:href="#BitstreamVeraSans-Roman-6c"/>
     <use x="219.23828125" xlink:href="#BitstreamVeraSans-Roman-6f"/>
     <use x="280.419921875" xlink:href="#BitstreamVeraSans-Roman-73"/>
     <use x="332.51953125" xlink:href="#BitstreamVeraSans-Roman-73"/>
     <use x="384.619140625" xlink:href="#BitstreamVeraSans-Roman-29"/>
    </g>
   </g>
   <g id="legend_1">
    <g id="patch_7">
     <path d="M 1133.889375 169.984531 
L 1358.2425 169.984531 
L 1358.2425 72.915781 
L 1133.889375 72.915781 
z
" style="fill:#ffffff;stroke:#000000;stroke-linejoin:miter;"/>
    </g>
    <g id="line2d_31">
     <path d="M 1154.889375 97.211094 
L 1196.889375 97.211094 
" style="fill:none;stroke:#0000ff;stroke-linecap:square;stroke-width:2.0;"/>
    </g>
    <g id="line2d_32"/>
    <g id="text_17">
     <!-- random -->
     <defs>
      <path d="M 45.40625 46.390625 
L 45.40625 75.984375 
L 54.390625 75.984375 
L 54.390625 0 
L 45.40625 0 
L 45.40625 8.203125 
Q 42.578125 3.328125 38.25 0.953125 
Q 33.9375 -1.421875 27.875 -1.421875 
Q 17.96875 -1.421875 11.734375 6.484375 
Q 5.515625 14.40625 5.515625 27.296875 
Q 5.515625 40.1875 11.734375 48.09375 
Q 17.96875 56 27.875 56 
Q 33.9375 56 38.25 53.625 
Q 42.578125 51.265625 45.40625 46.390625 
M 14.796875 27.296875 
Q 14.796875 17.390625 18.875 11.75 
Q 22.953125 6.109375 30.078125 6.109375 
Q 37.203125 6.109375 41.296875 11.75 
Q 45.40625 17.390625 45.40625 27.296875 
Q 45.40625 37.203125 41.296875 42.84375 
Q 37.203125 48.484375 30.078125 48.484375 
Q 22.953125 48.484375 18.875 42.84375 
Q 14.796875 37.203125 14.796875 27.296875 
" id="BitstreamVeraSans-Roman-64"/>
      <path d="M 52 44.1875 
Q 55.375 50.25 60.0625 53.125 
Q 64.75 56 71.09375 56 
Q 79.640625 56 84.28125 50.015625 
Q 88.921875 44.046875 88.921875 33.015625 
L 88.921875 0 
L 79.890625 0 
L 79.890625 32.71875 
Q 79.890625 40.578125 77.09375 44.375 
Q 74.3125 48.1875 68.609375 48.1875 
Q 61.625 48.1875 57.5625 43.546875 
Q 53.515625 38.921875 53.515625 30.90625 
L 53.515625 0 
L 44.484375 0 
L 44.484375 32.71875 
Q 44.484375 40.625 41.703125 44.40625 
Q 38.921875 48.1875 33.109375 48.1875 
Q 26.21875 48.1875 22.15625 43.53125 
Q 18.109375 38.875 18.109375 30.90625 
L 18.109375 0 
L 9.078125 0 
L 9.078125 54.6875 
L 18.109375 54.6875 
L 18.109375 46.1875 
Q 21.1875 51.21875 25.484375 53.609375 
Q 29.78125 56 35.6875 56 
Q 41.65625 56 45.828125 52.96875 
Q 50 49.953125 52 44.1875 
" id="BitstreamVeraSans-Roman-6d"/>
     </defs>
     <g transform="translate(1229.889375 107.71109375)scale(0.3 -0.3)">
      <use xlink:href="#BitstreamVeraSans-Roman-72"/>
      <use x="41.11328125" xlink:href="#BitstreamVeraSans-Roman-61"/>
      <use x="102.392578125" xlink:href="#BitstreamVeraSans-Roman-6e"/>
      <use x="165.771484375" xlink:href="#BitstreamVeraSans-Roman-64"/>
      <use x="229.248046875" xlink:href="#BitstreamVeraSans-Roman-6f"/>
      <use x="290.4296875" xlink:href="#BitstreamVeraSans-Roman-6d"/>
     </g>
    </g>
    <g id="line2d_33">
     <path d="M 1154.889375 141.245469 
L 1196.889375 141.245469 
" style="fill:none;stroke:#008000;stroke-linecap:square;stroke-width:2.0;"/>
    </g>
    <g id="line2d_34"/>
    <g id="text_18">
     <!-- corr -->
     <defs>
      <path d="M 48.78125 52.59375 
L 48.78125 44.1875 
Q 44.96875 46.296875 41.140625 47.34375 
Q 37.3125 48.390625 33.40625 48.390625 
Q 24.65625 48.390625 19.8125 42.84375 
Q 14.984375 37.3125 14.984375 27.296875 
Q 14.984375 17.28125 19.8125 11.734375 
Q 24.65625 6.203125 33.40625 6.203125 
Q 37.3125 6.203125 41.140625 7.25 
Q 44.96875 8.296875 48.78125 10.40625 
L 48.78125 2.09375 
Q 45.015625 0.34375 40.984375 -0.53125 
Q 36.96875 -1.421875 32.421875 -1.421875 
Q 20.0625 -1.421875 12.78125 6.34375 
Q 5.515625 14.109375 5.515625 27.296875 
Q 5.515625 40.671875 12.859375 48.328125 
Q 20.21875 56 33.015625 56 
Q 37.15625 56 41.109375 55.140625 
Q 45.0625 54.296875 48.78125 52.59375 
" id="BitstreamVeraSans-Roman-63"/>
     </defs>
     <g transform="translate(1229.889375 151.74546875)scale(0.3 -0.3)">
      <use xlink:href="#BitstreamVeraSans-Roman-63"/>
      <use x="54.98046875" xlink:href="#BitstreamVeraSans-Roman-6f"/>
      <use x="116.162109375" xlink:href="#BitstreamVeraSans-Roman-72"/>
      <use x="157.259765625" xlink:href="#BitstreamVeraSans-Roman-72"/>
     </g>
    </g>
   </g>
  </g>
 </g>
 <defs>
  <clipPath id="p649972dc4c">
   <rect height="712.42234375" width="1302.485" x="70.7575" y="57.91578125"/>
  </clipPath>
 </defs>
</svg>
