<?xml version="1.0" encoding="utf-8" standalone="no"?>
<!DOCTYPE svg PUBLIC "-//W3C//DTD SVG 1.1//EN"
  "http://www.w3.org/Graphics/SVG/1.1/DTD/svg11.dtd">
<!-- Created with matplotlib (http://matplotlib.org/) -->
<svg height="864pt" version="1.1" viewBox="0 0 1440 864" width="1440pt" xmlns="http://www.w3.org/2000/svg" xmlns:xlink="http://www.w3.org/1999/xlink">
 <defs>
  <style type="text/css">
*{stroke-linecap:butt;stroke-linejoin:round;stroke-miterlimit:100000;}
  </style>
 </defs>
 <g id="figure_1">
  <g id="patch_1">
   <path d="M 0 864 
L 1440 864 
L 1440 0 
L 0 0 
z
" style="fill:#ffffff;"/>
  </g>
  <g id="axes_1">
   <g id="patch_2">
    <path d="M 158.4 747 
L 1371.825 747 
L 1371.825 51.3 
L 158.4 51.3 
z
" style="fill:#ffffff;"/>
   </g>
   <g id="line2d_1">
    <path clip-path="url(#pa717df3490)" d="M 158.4 110.910809 
L 160.82685 112.339497 
L 163.2537 113.94823 
L 165.68055 115.07631 
L 172.9611 120.016662 
L 175.38795 121.821901 
L 180.24165 125.18534 
L 185.09535 127.550091 
L 189.94905 130.76522 
L 192.3759 132.672797 
L 194.80275 134.366823 
L 202.0833 138.532711 
L 206.937 141.560756 
L 209.36385 142.785199 
L 214.21755 146.228432 
L 216.6444 148.445173 
L 219.07125 149.865516 
L 221.4981 150.966021 
L 223.92495 152.604526 
L 228.77865 155.528018 
L 231.2055 157.790623 
L 233.63235 159.52242 
L 236.0592 161.105839 
L 240.9129 164.573489 
L 243.33975 166.111667 
L 248.19345 169.76996 
L 250.6203 171.176151 
L 253.04715 172.85719 
L 255.474 174.251661 
L 260.3277 176.540854 
L 262.75455 177.910692 
L 267.60825 181.631996 
L 270.0351 182.785012 
L 272.46195 184.354157 
L 274.8888 185.438986 
L 279.7425 188.874938 
L 282.16935 190.029932 
L 284.5962 191.643169 
L 287.02305 193.47047 
L 289.4499 195.058506 
L 291.87675 197.036364 
L 294.3036 198.512243 
L 301.58415 202.005048 
L 308.8647 206.462775 
L 311.29155 207.89287 
L 313.7184 209.555601 
L 318.5721 212.337397 
L 320.99895 213.797492 
L 323.4258 215.497007 
L 325.85265 216.487419 
L 328.2795 218.008784 
L 333.1332 221.452281 
L 337.9869 224.596793 
L 340.41375 225.903689 
L 342.8406 227.752956 
L 345.26745 229.064711 
L 347.6943 230.824017 
L 350.12115 231.926124 
L 352.548 233.55551 
L 354.97485 235.439692 
L 357.4017 236.631201 
L 359.82855 238.432241 
L 369.53595 244.101814 
L 371.9628 246.017819 
L 379.24335 250.573842 
L 384.09705 252.79223 
L 386.5239 254.234187 
L 388.95075 256.301446 
L 391.3776 257.737869 
L 393.80445 259.613559 
L 396.2313 261.094081 
L 398.65815 262.386073 
L 403.51185 265.410643 
L 405.9387 266.652903 
L 408.36555 268.287074 
L 410.7924 269.787269 
L 413.21925 271.716199 
L 415.6461 273.148739 
L 418.07295 274.79484 
L 425.3535 278.657593 
L 427.78035 279.932128 
L 435.0609 283.179271 
L 437.48775 284.990978 
L 439.9146 286.031889 
L 442.34145 287.229955 
L 444.7683 288.671002 
L 447.19515 289.934111 
L 452.04885 293.003178 
L 456.90255 295.797559 
L 459.3294 297.030946 
L 461.75625 298.466916 
L 464.1831 300.342772 
L 466.60995 301.962344 
L 469.0368 302.870486 
L 473.8905 305.108804 
L 478.7442 307.814706 
L 481.17105 309.202777 
L 483.5979 310.777854 
L 488.4516 314.206571 
L 500.58585 320.82507 
L 503.0127 322.248496 
L 505.43955 323.824758 
L 507.8664 325.07308 
L 512.7201 328.599277 
L 515.14695 329.90053 
L 520.00065 333.555352 
L 524.85435 336.737238 
L 529.70805 339.552633 
L 534.56175 343.20957 
L 539.41545 345.826274 
L 541.8423 347.560718 
L 544.26915 348.940171 
L 546.696 350.079195 
L 549.12285 351.503907 
L 551.5497 352.644965 
L 553.97655 353.917339 
L 556.4034 355.027982 
L 558.83025 356.970937 
L 568.53765 362.693812 
L 570.9645 363.756212 
L 573.39135 365.401419 
L 575.8182 366.839568 
L 578.24505 368.588522 
L 580.6719 370.173382 
L 585.5256 372.989186 
L 587.95245 374.764191 
L 590.3793 376.287038 
L 592.80615 377.630253 
L 595.233 379.182851 
L 597.65985 380.542948 
L 602.51355 383.582333 
L 604.9404 384.653873 
L 607.36725 386.138404 
L 609.7941 387.179148 
L 614.6478 389.629298 
L 617.07465 391.179589 
L 621.92835 393.872038 
L 631.63575 400.375121 
L 634.0626 401.59561 
L 636.48945 403.621246 
L 648.6237 411.00196 
L 651.05055 412.362278 
L 653.4774 414.41014 
L 655.90425 416.269374 
L 658.3311 417.721811 
L 660.75795 418.843539 
L 663.1848 420.842417 
L 665.61165 421.99403 
L 668.0385 423.769813 
L 670.46535 425.141368 
L 682.5996 432.671005 
L 685.02645 433.843318 
L 687.4533 435.240889 
L 692.307 438.673351 
L 694.73385 441.112614 
L 697.1607 442.232826 
L 699.58755 443.691493 
L 704.44125 445.909693 
L 709.29495 449.495639 
L 711.7218 450.828246 
L 714.14865 451.731639 
L 716.5755 452.979487 
L 719.00235 454.475143 
L 721.4292 456.3417 
L 726.2829 458.818623 
L 733.56345 463.419532 
L 735.9903 464.305706 
L 738.41715 466.499745 
L 740.844 467.684295 
L 745.6977 470.661534 
L 757.83195 478.509629 
L 760.2588 480.211598 
L 762.68565 481.062228 
L 765.1125 482.565611 
L 767.53935 483.508721 
L 769.9662 484.925341 
L 772.39305 486.66448 
L 774.8199 487.786265 
L 777.24675 489.260963 
L 779.6736 490.899473 
L 782.10045 492.315097 
L 786.95415 495.565643 
L 789.381 496.910794 
L 791.80785 497.90793 
L 796.66155 500.510964 
L 799.0884 502.477785 
L 806.36895 507.105846 
L 808.7958 508.161156 
L 811.22265 509.887518 
L 816.07635 512.70833 
L 818.5032 513.529892 
L 820.93005 515.118854 
L 823.3569 516.553507 
L 825.78375 517.676704 
L 828.2106 518.63812 
L 830.63745 520.051279 
L 833.0643 521.025691 
L 835.49115 522.126716 
L 837.918 523.478159 
L 840.34485 525.035982 
L 847.6254 529.103417 
L 850.05225 530.962089 
L 854.90595 533.246899 
L 857.3328 534.880683 
L 859.75965 536.192597 
L 864.61335 539.721127 
L 869.46705 542.453816 
L 871.8939 544.017032 
L 874.32075 545.185505 
L 876.7476 546.674295 
L 881.6013 550.080602 
L 884.02815 551.327927 
L 886.455 552.437901 
L 888.88185 553.770784 
L 891.3087 555.58669 
L 896.1624 558.616651 
L 901.0161 560.786591 
L 903.44295 562.373125 
L 905.8698 563.764092 
L 908.29665 564.897701 
L 910.7235 566.156921 
L 913.15035 567.847002 
L 915.5772 569.215118 
L 922.85775 572.87395 
L 927.71145 575.707674 
L 930.1383 577.067492 
L 932.56515 578.556861 
L 934.992 580.228 
L 937.41885 582.623546 
L 942.27255 585.417933 
L 944.6994 586.834785 
L 949.5531 590.517939 
L 954.4068 593.289868 
L 956.83365 594.849777 
L 961.68735 598.523136 
L 964.1142 599.858684 
L 966.54105 600.730035 
L 968.9679 602.459945 
L 971.39475 604.416891 
L 973.8216 606.001045 
L 976.24845 607.829879 
L 978.6753 609.075098 
L 981.10215 610.817195 
L 985.95585 613.802445 
L 990.80955 616.448545 
L 993.2364 617.623955 
L 995.66325 619.432178 
L 998.0901 620.632061 
L 1002.9438 623.50409 
L 1005.37065 625.419189 
L 1007.7975 627.001622 
L 1010.22435 628.263315 
L 1015.07805 630.373625 
L 1017.5049 631.667237 
L 1022.3586 634.541844 
L 1024.78545 635.601316 
L 1027.2123 637.010601 
L 1029.63915 638.594858 
L 1032.066 639.920226 
L 1034.49285 642.018343 
L 1036.9197 643.838812 
L 1039.34655 645.232227 
L 1044.20025 648.597512 
L 1046.6271 649.632778 
L 1049.05395 650.80937 
L 1058.76135 656.68123 
L 1061.1882 658.299599 
L 1063.61505 659.637294 
L 1066.0419 661.572473 
L 1068.46875 663.056168 
L 1070.8956 664.716166 
L 1073.32245 666.216347 
L 1080.603 669.93773 
L 1085.4567 673.142609 
L 1087.88355 674.599888 
L 1092.73725 677.906141 
L 1095.1641 679.127599 
L 1100.0178 681.992359 
L 1102.44465 683.060791 
L 1104.8715 684.536086 
L 1107.29835 685.64178 
L 1109.7252 687.353215 
L 1112.15205 688.304946 
L 1114.5789 689.711933 
L 1117.00575 690.528279 
L 1119.4326 691.988558 
L 1121.85945 693.765711 
L 1124.2863 695.000469 
L 1126.71315 695.97692 
L 1129.14 697.349896 
L 1133.9937 699.478319 
L 1136.42055 700.876248 
L 1141.27425 703.158419 
L 1143.7011 704.550277 
L 1146.12795 705.606973 
L 1148.5548 706.43479 
L 1153.4085 708.275579 
L 1155.83535 708.939228 
L 1158.2622 710.108801 
L 1160.68905 710.839106 
L 1167.9696 712.569913 
L 1170.39645 713.446143 
L 1172.8233 713.684978 
L 1175.25015 714.145775 
L 1177.677 714.360201 
L 1180.10385 714.791957 
L 1182.5307 715.524016 
L 1184.95755 715.678706 
L 1187.3844 716.268644 
L 1189.81125 717.102305 
L 1192.2381 717.006581 
L 1194.66495 717.66718 
L 1197.0918 717.81453 
L 1199.51865 717.469889 
L 1201.9455 717.736723 
L 1204.37235 717.454611 
L 1206.7992 717.698452 
L 1209.22605 718.158491 
L 1211.6529 718.056939 
L 1214.07975 718.488339 
L 1216.5066 718.516142 
L 1218.93345 718.659027 
L 1221.3603 718.531796 
L 1223.78715 718.711391 
L 1226.214 718.171864 
L 1228.64085 718.376473 
L 1231.0677 719.071771 
L 1233.49455 718.471381 
L 1235.9214 719.182798 
L 1238.34825 719.636901 
L 1240.7751 719.697127 
L 1243.20195 719.381261 
L 1250.4825 720.049171 
L 1252.90935 719.723186 
L 1255.3362 720.101414 
L 1257.76305 719.355861 
L 1260.1899 719.154981 
L 1262.61675 719.181233 
L 1267.47045 720.026503 
L 1269.8973 720.284598 
L 1272.32415 720.184485 
L 1274.751 720.49417 
L 1277.17785 720.184536 
L 1279.6047 720.418752 
L 1282.03155 720.386155 
L 1284.4584 720.464783 
L 1286.88525 720.355826 
L 1289.3121 720.078658 
L 1296.59265 719.918793 
L 1299.0195 719.989655 
L 1301.44635 720.781064 
L 1303.8732 720.37831 
L 1306.30005 720.246083 
L 1308.7269 720.426077 
L 1311.15375 720.265085 
L 1313.5806 720.334404 
L 1316.00745 719.592053 
L 1320.86115 719.625234 
L 1323.288 719.900919 
L 1325.71485 719.702904 
L 1328.1417 720.488794 
L 1330.56855 719.99786 
L 1332.9954 720.280421 
L 1335.42225 719.963367 
L 1337.8491 720.107497 
L 1340.27595 720.686942 
L 1342.7028 720.104604 
L 1345.12965 720.265186 
L 1349.98335 720.058876 
L 1352.4102 720.038378 
L 1354.83705 719.445674 
L 1357.2639 719.609324 
L 1364.54445 719.832411 
L 1366.9713 719.308734 
L 1369.39815 719.236306 
L 1369.39815 719.236306 
" style="fill:none;stroke:#0000ff;stroke-linecap:square;stroke-width:2.0;"/>
   </g>
   <g id="line2d_2">
    <path clip-path="url(#pa717df3490)" d="M 158.4 110.711692 
L 160.82685 112.415277 
L 165.68055 114.903025 
L 168.1074 116.699942 
L 172.9611 120.782652 
L 175.38795 122.250327 
L 177.8148 124.202233 
L 180.24165 125.434897 
L 185.09535 128.318687 
L 189.94905 130.663462 
L 192.3759 132.827165 
L 194.80275 134.073788 
L 197.2296 135.929959 
L 204.51015 140.735188 
L 206.937 142.644374 
L 209.36385 143.693694 
L 211.7907 145.327978 
L 216.6444 149.040942 
L 219.07125 150.51295 
L 221.4981 152.598787 
L 223.92495 153.815363 
L 226.3518 155.395581 
L 231.2055 159.190668 
L 233.63235 160.666402 
L 236.0592 161.83517 
L 240.9129 164.530576 
L 243.33975 166.414324 
L 245.7666 167.77871 
L 248.19345 169.299019 
L 250.6203 170.997219 
L 253.04715 172.238522 
L 260.3277 176.777108 
L 262.75455 178.298267 
L 265.1814 180.221946 
L 270.0351 183.608306 
L 272.46195 185.543235 
L 274.8888 186.947139 
L 277.31565 188.2033 
L 282.16935 191.436705 
L 284.5962 193.106617 
L 287.02305 194.472468 
L 289.4499 196.015232 
L 301.58415 202.967756 
L 304.011 204.675124 
L 306.43785 206.143213 
L 308.8647 207.399351 
L 311.29155 208.956455 
L 313.7184 210.154178 
L 316.14525 211.825184 
L 318.5721 213.091002 
L 323.4258 215.998152 
L 325.85265 216.969011 
L 328.2795 218.6617 
L 330.70635 220.104812 
L 335.56005 222.598213 
L 337.9869 224.28336 
L 340.41375 225.650856 
L 342.8406 227.337651 
L 345.26745 228.680221 
L 347.6943 230.465586 
L 350.12115 232.00582 
L 352.548 233.898344 
L 354.97485 234.772669 
L 357.4017 236.044604 
L 359.82855 237.179156 
L 362.2554 239.147111 
L 371.9628 244.767448 
L 374.38965 246.581368 
L 376.8165 248.105066 
L 379.24335 249.322734 
L 381.6702 250.729789 
L 384.09705 251.883345 
L 388.95075 254.571977 
L 391.3776 255.920984 
L 393.80445 257.723343 
L 401.085 261.533621 
L 403.51185 263.337495 
L 408.36555 265.92257 
L 410.7924 267.375362 
L 413.21925 269.081016 
L 415.6461 270.57847 
L 418.07295 271.741606 
L 420.4998 273.116856 
L 422.92665 274.718064 
L 425.3535 276.08795 
L 427.78035 277.936405 
L 430.2072 279.152455 
L 435.0609 282.206476 
L 437.48775 283.520803 
L 439.9146 285.261254 
L 442.34145 286.650159 
L 444.7683 288.181421 
L 447.19515 289.552259 
L 449.622 290.491003 
L 452.04885 292.041547 
L 454.4757 293.259227 
L 459.3294 296.609187 
L 461.75625 298.25771 
L 464.1831 299.595812 
L 466.60995 301.204898 
L 469.0368 303.114778 
L 471.46365 304.696488 
L 476.31735 307.429056 
L 478.7442 308.685834 
L 481.17105 310.183763 
L 483.5979 311.497129 
L 486.02475 313.037818 
L 488.4516 314.927308 
L 490.87845 316.567631 
L 493.3053 318.524563 
L 495.73215 319.872922 
L 498.159 321.039731 
L 500.58585 322.533994 
L 503.0127 323.737101 
L 505.43955 325.172683 
L 515.14695 330.395912 
L 517.5738 331.7673 
L 520.00065 332.83017 
L 522.4275 334.249956 
L 529.70805 340.413165 
L 532.1349 341.724579 
L 534.56175 343.408983 
L 536.9886 344.452973 
L 539.41545 345.951097 
L 541.8423 347.121665 
L 546.696 350.088183 
L 551.5497 352.575212 
L 553.97655 354.39326 
L 556.4034 355.457833 
L 566.1108 361.257573 
L 568.53765 362.315392 
L 570.9645 363.541155 
L 573.39135 365.000233 
L 578.24505 368.450699 
L 587.95245 373.43469 
L 590.3793 374.48388 
L 600.0867 380.498855 
L 604.9404 383.730401 
L 609.7941 386.195571 
L 612.22095 387.983033 
L 614.6478 389.314022 
L 617.07465 391.247709 
L 621.92835 393.771656 
L 629.2089 398.289707 
L 631.63575 399.483746 
L 634.0626 400.813161 
L 636.48945 402.010555 
L 638.9163 403.547598 
L 641.34315 405.316362 
L 643.77 407.26565 
L 646.19685 408.428205 
L 651.05055 411.643782 
L 653.4774 412.986158 
L 658.3311 415.926877 
L 663.1848 418.684322 
L 665.61165 420.612261 
L 668.0385 422.398267 
L 670.46535 424.515215 
L 675.31905 427.162851 
L 677.7459 428.473385 
L 680.17275 429.98737 
L 682.5996 431.189675 
L 685.02645 432.634552 
L 687.4533 433.855773 
L 689.88015 435.578662 
L 692.307 437.684714 
L 697.1607 439.7129 
L 699.58755 441.27327 
L 704.44125 444.087049 
L 709.29495 448.664741 
L 714.14865 451.081256 
L 716.5755 452.546288 
L 719.00235 454.921844 
L 721.4292 456.305085 
L 726.2829 458.417366 
L 728.70975 459.972897 
L 731.1366 461.175601 
L 738.41715 465.315321 
L 740.844 467.119684 
L 745.6977 470.262664 
L 752.97825 475.837924 
L 755.4051 477.365308 
L 757.83195 478.46972 
L 760.2588 479.786844 
L 762.68565 481.506961 
L 765.1125 482.970975 
L 767.53935 484.239434 
L 769.9662 486.506862 
L 772.39305 487.662685 
L 774.8199 489.088794 
L 777.24675 490.315919 
L 782.10045 493.261485 
L 784.5273 494.575206 
L 786.95415 496.248071 
L 789.381 497.608099 
L 791.80785 499.12359 
L 794.2347 501.070468 
L 796.66155 502.517942 
L 799.0884 503.496047 
L 801.51525 504.711532 
L 803.9421 506.105135 
L 806.36895 507.949333 
L 808.7958 509.453834 
L 811.22265 510.793975 
L 816.07635 513.05066 
L 818.5032 514.807106 
L 825.78375 519.282414 
L 830.63745 523.179633 
L 833.0643 525.21612 
L 835.49115 526.392025 
L 842.7717 530.440677 
L 845.19855 532.418289 
L 854.90595 537.799529 
L 857.3328 539.372859 
L 859.75965 540.766234 
L 862.1865 542.460427 
L 864.61335 544.324806 
L 869.46705 546.706337 
L 871.8939 548.443443 
L 879.17445 552.416591 
L 881.6013 554.145493 
L 884.02815 555.333557 
L 886.455 556.879363 
L 888.88185 558.225959 
L 891.3087 559.894875 
L 893.73555 561.254049 
L 898.58925 563.590735 
L 901.0161 565.391556 
L 903.44295 566.555681 
L 905.8698 568.317871 
L 908.29665 569.53702 
L 910.7235 570.984104 
L 913.15035 571.94541 
L 915.5772 573.325026 
L 920.4309 576.483216 
L 925.2846 579.480693 
L 927.71145 581.274504 
L 930.1383 582.474627 
L 932.56515 583.913405 
L 934.992 585.521774 
L 942.27255 589.918149 
L 944.6994 591.694494 
L 947.12625 593.029585 
L 949.5531 594.097102 
L 951.97995 595.596078 
L 954.4068 597.373243 
L 956.83365 598.389618 
L 959.2605 599.934527 
L 961.68735 601.676884 
L 964.1142 603.099602 
L 968.9679 606.187375 
L 976.24845 610.179089 
L 981.10215 613.378678 
L 988.3827 617.610745 
L 993.2364 620.755121 
L 995.66325 621.889866 
L 998.0901 623.227357 
L 1000.51695 624.402289 
L 1002.9438 626.295309 
L 1007.7975 629.236441 
L 1012.6512 631.99253 
L 1015.07805 633.551415 
L 1017.5049 634.801858 
L 1024.78545 639.989456 
L 1027.2123 641.057915 
L 1032.066 643.577356 
L 1034.49285 645.659462 
L 1036.9197 647.376718 
L 1039.34655 648.691487 
L 1041.7734 650.209992 
L 1044.20025 651.44784 
L 1046.6271 653.069216 
L 1049.05395 654.478308 
L 1051.4808 656.787968 
L 1056.3345 659.651365 
L 1061.1882 663.02888 
L 1063.61505 664.406926 
L 1066.0419 666.079706 
L 1068.46875 667.603536 
L 1070.8956 668.866033 
L 1073.32245 670.277316 
L 1075.7493 671.241188 
L 1080.603 674.141164 
L 1085.4567 676.648337 
L 1090.3104 679.741673 
L 1095.1641 682.808791 
L 1100.0178 685.721182 
L 1102.44465 687.378034 
L 1104.8715 688.754651 
L 1107.29835 689.806949 
L 1109.7252 691.515025 
L 1112.15205 692.471239 
L 1117.00575 694.872021 
L 1121.85945 697.991739 
L 1126.71315 700.351935 
L 1129.14 701.917841 
L 1131.56685 703.001697 
L 1133.9937 704.817204 
L 1141.27425 707.668178 
L 1143.7011 708.361888 
L 1146.12795 709.237957 
L 1148.5548 709.835828 
L 1150.98165 710.568674 
L 1155.83535 712.233974 
L 1160.68905 713.568917 
L 1163.1159 714.608447 
L 1167.9696 715.687948 
L 1170.39645 715.629402 
L 1172.8233 716.147486 
L 1175.25015 716.18212 
L 1177.677 716.417201 
L 1180.10385 717.105494 
L 1182.5307 717.280704 
L 1187.3844 718.009579 
L 1189.81125 718.188536 
L 1192.2381 718.595122 
L 1194.66495 718.215639 
L 1197.0918 719.043468 
L 1199.51865 718.946726 
L 1201.9455 719.006376 
L 1204.37235 718.83036 
L 1206.7992 719.193249 
L 1211.6529 719.430606 
L 1216.5066 719.706807 
L 1218.93345 719.414311 
L 1221.3603 719.611806 
L 1223.78715 719.355593 
L 1226.214 719.746309 
L 1228.64085 719.1469 
L 1231.0677 719.114064 
L 1233.49455 718.825045 
L 1235.9214 719.207716 
L 1238.34825 718.926766 
L 1243.20195 719.190161 
L 1245.6288 719.642241 
L 1248.05565 719.553613 
L 1250.4825 720.21523 
L 1252.90935 719.770395 
L 1255.3362 719.56134 
L 1260.1899 718.907538 
L 1262.61675 718.709057 
L 1265.0436 719.240071 
L 1267.47045 719.32171 
L 1269.8973 718.84902 
L 1272.32415 719.082723 
L 1274.751 719.621213 
L 1277.17785 719.88473 
L 1279.6047 719.791431 
L 1284.4584 719.046213 
L 1289.3121 718.988878 
L 1291.73895 718.660595 
L 1294.1658 719.442946 
L 1296.59265 719.898815 
L 1299.0195 719.428888 
L 1301.44635 719.14629 
L 1303.8732 719.834224 
L 1308.7269 719.239247 
L 1316.00745 719.770968 
L 1318.4343 720.133054 
L 1320.86115 720.819968 
L 1323.288 719.993307 
L 1325.71485 719.774316 
L 1328.1417 719.786294 
L 1332.9954 720.543987 
L 1335.42225 720.210425 
L 1337.8491 720.648383 
L 1342.7028 720.312472 
L 1345.12965 720.551721 
L 1347.5565 720.49106 
L 1349.98335 720.870776 
L 1352.4102 720.294513 
L 1354.83705 720.021899 
L 1359.69075 720.407948 
L 1362.1176 720.136667 
L 1364.54445 720.1553 
L 1366.9713 719.914497 
L 1369.39815 720.172301 
L 1369.39815 720.172301 
" style="fill:none;stroke:#008000;stroke-linecap:square;stroke-width:2.0;"/>
   </g>
   <g id="patch_3">
    <path d="M 158.4 51.3 
L 1371.825 51.3 
" style="fill:none;stroke:#000000;stroke-linecap:square;stroke-linejoin:miter;"/>
   </g>
   <g id="patch_4">
    <path d="M 1371.825 747 
L 1371.825 51.3 
" style="fill:none;stroke:#000000;stroke-linecap:square;stroke-linejoin:miter;"/>
   </g>
   <g id="patch_5">
    <path d="M 158.4 747 
L 1371.825 747 
" style="fill:none;stroke:#000000;stroke-linecap:square;stroke-linejoin:miter;"/>
   </g>
   <g id="patch_6">
    <path d="M 158.4 747 
L 158.4 51.3 
" style="fill:none;stroke:#000000;stroke-linecap:square;stroke-linejoin:miter;"/>
   </g>
   <g id="matplotlib.axis_1">
    <g id="xtick_1">
     <g id="line2d_3">
      <defs>
       <path d="M 0 0 
L 0 -4 
" id="mb5f4d00de8" style="stroke:#000000;stroke-width:0.5;"/>
      </defs>
      <g>
       <use style="stroke:#000000;stroke-width:0.5;" x="158.4" xlink:href="#mb5f4d00de8" y="747.0"/>
      </g>
     </g>
     <g id="line2d_4">
      <defs>
       <path d="M 0 0 
L 0 4 
" id="m6bc906fb38" style="stroke:#000000;stroke-width:0.5;"/>
      </defs>
      <g>
       <use style="stroke:#000000;stroke-width:0.5;" x="158.4" xlink:href="#m6bc906fb38" y="51.3"/>
      </g>
     </g>
     <g id="text_1">
      <!-- 0 -->
      <defs>
       <path d="M 31.78125 66.40625 
Q 24.171875 66.40625 20.328125 58.90625 
Q 16.5 51.421875 16.5 36.375 
Q 16.5 21.390625 20.328125 13.890625 
Q 24.171875 6.390625 31.78125 6.390625 
Q 39.453125 6.390625 43.28125 13.890625 
Q 47.125 21.390625 47.125 36.375 
Q 47.125 51.421875 43.28125 58.90625 
Q 39.453125 66.40625 31.78125 66.40625 
M 31.78125 74.21875 
Q 44.046875 74.21875 50.515625 64.515625 
Q 56.984375 54.828125 56.984375 36.375 
Q 56.984375 17.96875 50.515625 8.265625 
Q 44.046875 -1.421875 31.78125 -1.421875 
Q 19.53125 -1.421875 13.0625 8.265625 
Q 6.59375 17.96875 6.59375 36.375 
Q 6.59375 54.828125 13.0625 64.515625 
Q 19.53125 74.21875 31.78125 74.21875 
" id="BitstreamVeraSans-Roman-30"/>
      </defs>
      <g transform="translate(148.85625 773.7953125)scale(0.3 -0.3)">
       <use xlink:href="#BitstreamVeraSans-Roman-30"/>
      </g>
     </g>
    </g>
    <g id="xtick_2">
     <g id="line2d_5">
      <g>
       <use style="stroke:#000000;stroke-width:0.5;" x="401.085" xlink:href="#mb5f4d00de8" y="747.0"/>
      </g>
     </g>
     <g id="line2d_6">
      <g>
       <use style="stroke:#000000;stroke-width:0.5;" x="401.085" xlink:href="#m6bc906fb38" y="51.3"/>
      </g>
     </g>
     <g id="text_2">
      <!-- 100 -->
      <defs>
       <path d="M 12.40625 8.296875 
L 28.515625 8.296875 
L 28.515625 63.921875 
L 10.984375 60.40625 
L 10.984375 69.390625 
L 28.421875 72.90625 
L 38.28125 72.90625 
L 38.28125 8.296875 
L 54.390625 8.296875 
L 54.390625 0 
L 12.40625 0 
z
" id="BitstreamVeraSans-Roman-31"/>
      </defs>
      <g transform="translate(372.45375 773.7953125)scale(0.3 -0.3)">
       <use xlink:href="#BitstreamVeraSans-Roman-31"/>
       <use x="63.623046875" xlink:href="#BitstreamVeraSans-Roman-30"/>
       <use x="127.24609375" xlink:href="#BitstreamVeraSans-Roman-30"/>
      </g>
     </g>
    </g>
    <g id="xtick_3">
     <g id="line2d_7">
      <g>
       <use style="stroke:#000000;stroke-width:0.5;" x="643.77" xlink:href="#mb5f4d00de8" y="747.0"/>
      </g>
     </g>
     <g id="line2d_8">
      <g>
       <use style="stroke:#000000;stroke-width:0.5;" x="643.77" xlink:href="#m6bc906fb38" y="51.3"/>
      </g>
     </g>
     <g id="text_3">
      <!-- 200 -->
      <defs>
       <path d="M 19.1875 8.296875 
L 53.609375 8.296875 
L 53.609375 0 
L 7.328125 0 
L 7.328125 8.296875 
Q 12.9375 14.109375 22.625 23.890625 
Q 32.328125 33.6875 34.8125 36.53125 
Q 39.546875 41.84375 41.421875 45.53125 
Q 43.3125 49.21875 43.3125 52.78125 
Q 43.3125 58.59375 39.234375 62.25 
Q 35.15625 65.921875 28.609375 65.921875 
Q 23.96875 65.921875 18.8125 64.3125 
Q 13.671875 62.703125 7.8125 59.421875 
L 7.8125 69.390625 
Q 13.765625 71.78125 18.9375 73 
Q 24.125 74.21875 28.421875 74.21875 
Q 39.75 74.21875 46.484375 68.546875 
Q 53.21875 62.890625 53.21875 53.421875 
Q 53.21875 48.921875 51.53125 44.890625 
Q 49.859375 40.875 45.40625 35.40625 
Q 44.1875 33.984375 37.640625 27.21875 
Q 31.109375 20.453125 19.1875 8.296875 
" id="BitstreamVeraSans-Roman-32"/>
      </defs>
      <g transform="translate(615.13875 773.7953125)scale(0.3 -0.3)">
       <use xlink:href="#BitstreamVeraSans-Roman-32"/>
       <use x="63.623046875" xlink:href="#BitstreamVeraSans-Roman-30"/>
       <use x="127.24609375" xlink:href="#BitstreamVeraSans-Roman-30"/>
      </g>
     </g>
    </g>
    <g id="xtick_4">
     <g id="line2d_9">
      <g>
       <use style="stroke:#000000;stroke-width:0.5;" x="886.455" xlink:href="#mb5f4d00de8" y="747.0"/>
      </g>
     </g>
     <g id="line2d_10">
      <g>
       <use style="stroke:#000000;stroke-width:0.5;" x="886.455" xlink:href="#m6bc906fb38" y="51.3"/>
      </g>
     </g>
     <g id="text_4">
      <!-- 300 -->
      <defs>
       <path d="M 40.578125 39.3125 
Q 47.65625 37.796875 51.625 33 
Q 55.609375 28.21875 55.609375 21.1875 
Q 55.609375 10.40625 48.1875 4.484375 
Q 40.765625 -1.421875 27.09375 -1.421875 
Q 22.515625 -1.421875 17.65625 -0.515625 
Q 12.796875 0.390625 7.625 2.203125 
L 7.625 11.71875 
Q 11.71875 9.328125 16.59375 8.109375 
Q 21.484375 6.890625 26.8125 6.890625 
Q 36.078125 6.890625 40.9375 10.546875 
Q 45.796875 14.203125 45.796875 21.1875 
Q 45.796875 27.640625 41.28125 31.265625 
Q 36.765625 34.90625 28.71875 34.90625 
L 20.21875 34.90625 
L 20.21875 43.015625 
L 29.109375 43.015625 
Q 36.375 43.015625 40.234375 45.921875 
Q 44.09375 48.828125 44.09375 54.296875 
Q 44.09375 59.90625 40.109375 62.90625 
Q 36.140625 65.921875 28.71875 65.921875 
Q 24.65625 65.921875 20.015625 65.03125 
Q 15.375 64.15625 9.8125 62.3125 
L 9.8125 71.09375 
Q 15.4375 72.65625 20.34375 73.4375 
Q 25.25 74.21875 29.59375 74.21875 
Q 40.828125 74.21875 47.359375 69.109375 
Q 53.90625 64.015625 53.90625 55.328125 
Q 53.90625 49.265625 50.4375 45.09375 
Q 46.96875 40.921875 40.578125 39.3125 
" id="BitstreamVeraSans-Roman-33"/>
      </defs>
      <g transform="translate(857.82375 773.7953125)scale(0.3 -0.3)">
       <use xlink:href="#BitstreamVeraSans-Roman-33"/>
       <use x="63.623046875" xlink:href="#BitstreamVeraSans-Roman-30"/>
       <use x="127.24609375" xlink:href="#BitstreamVeraSans-Roman-30"/>
      </g>
     </g>
    </g>
    <g id="xtick_5">
     <g id="line2d_11">
      <g>
       <use style="stroke:#000000;stroke-width:0.5;" x="1129.14" xlink:href="#mb5f4d00de8" y="747.0"/>
      </g>
     </g>
     <g id="line2d_12">
      <g>
       <use style="stroke:#000000;stroke-width:0.5;" x="1129.14" xlink:href="#m6bc906fb38" y="51.3"/>
      </g>
     </g>
     <g id="text_5">
      <!-- 400 -->
      <defs>
       <path d="M 37.796875 64.3125 
L 12.890625 25.390625 
L 37.796875 25.390625 
z
M 35.203125 72.90625 
L 47.609375 72.90625 
L 47.609375 25.390625 
L 58.015625 25.390625 
L 58.015625 17.1875 
L 47.609375 17.1875 
L 47.609375 0 
L 37.796875 0 
L 37.796875 17.1875 
L 4.890625 17.1875 
L 4.890625 26.703125 
z
" id="BitstreamVeraSans-Roman-34"/>
      </defs>
      <g transform="translate(1100.50875 773.7953125)scale(0.3 -0.3)">
       <use xlink:href="#BitstreamVeraSans-Roman-34"/>
       <use x="63.623046875" xlink:href="#BitstreamVeraSans-Roman-30"/>
       <use x="127.24609375" xlink:href="#BitstreamVeraSans-Roman-30"/>
      </g>
     </g>
    </g>
    <g id="xtick_6">
     <g id="line2d_13">
      <g>
       <use style="stroke:#000000;stroke-width:0.5;" x="1371.825" xlink:href="#mb5f4d00de8" y="747.0"/>
      </g>
     </g>
     <g id="line2d_14">
      <g>
       <use style="stroke:#000000;stroke-width:0.5;" x="1371.825" xlink:href="#m6bc906fb38" y="51.3"/>
      </g>
     </g>
     <g id="text_6">
      <!-- 500 -->
      <defs>
       <path d="M 10.796875 72.90625 
L 49.515625 72.90625 
L 49.515625 64.59375 
L 19.828125 64.59375 
L 19.828125 46.734375 
Q 21.96875 47.46875 24.109375 47.828125 
Q 26.265625 48.1875 28.421875 48.1875 
Q 40.625 48.1875 47.75 41.5 
Q 54.890625 34.8125 54.890625 23.390625 
Q 54.890625 11.625 47.5625 5.09375 
Q 40.234375 -1.421875 26.90625 -1.421875 
Q 22.3125 -1.421875 17.546875 -0.640625 
Q 12.796875 0.140625 7.71875 1.703125 
L 7.71875 11.625 
Q 12.109375 9.234375 16.796875 8.0625 
Q 21.484375 6.890625 26.703125 6.890625 
Q 35.15625 6.890625 40.078125 11.328125 
Q 45.015625 15.765625 45.015625 23.390625 
Q 45.015625 31 40.078125 35.4375 
Q 35.15625 39.890625 26.703125 39.890625 
Q 22.75 39.890625 18.8125 39.015625 
Q 14.890625 38.140625 10.796875 36.28125 
z
" id="BitstreamVeraSans-Roman-35"/>
      </defs>
      <g transform="translate(1343.19375 773.7953125)scale(0.3 -0.3)">
       <use xlink:href="#BitstreamVeraSans-Roman-35"/>
       <use x="63.623046875" xlink:href="#BitstreamVeraSans-Roman-30"/>
       <use x="127.24609375" xlink:href="#BitstreamVeraSans-Roman-30"/>
      </g>
     </g>
    </g>
    <g id="text_7">
     <!-- iterations -->
     <defs>
      <path d="M 54.890625 33.015625 
L 54.890625 0 
L 45.90625 0 
L 45.90625 32.71875 
Q 45.90625 40.484375 42.875 44.328125 
Q 39.84375 48.1875 33.796875 48.1875 
Q 26.515625 48.1875 22.3125 43.546875 
Q 18.109375 38.921875 18.109375 30.90625 
L 18.109375 0 
L 9.078125 0 
L 9.078125 54.6875 
L 18.109375 54.6875 
L 18.109375 46.1875 
Q 21.34375 51.125 25.703125 53.5625 
Q 30.078125 56 35.796875 56 
Q 45.21875 56 50.046875 50.171875 
Q 54.890625 44.34375 54.890625 33.015625 
" id="BitstreamVeraSans-Roman-6e"/>
      <path d="M 34.28125 27.484375 
Q 23.390625 27.484375 19.1875 25 
Q 14.984375 22.515625 14.984375 16.5 
Q 14.984375 11.71875 18.140625 8.90625 
Q 21.296875 6.109375 26.703125 6.109375 
Q 34.1875 6.109375 38.703125 11.40625 
Q 43.21875 16.703125 43.21875 25.484375 
L 43.21875 27.484375 
z
M 52.203125 31.203125 
L 52.203125 0 
L 43.21875 0 
L 43.21875 8.296875 
Q 40.140625 3.328125 35.546875 0.953125 
Q 30.953125 -1.421875 24.3125 -1.421875 
Q 15.921875 -1.421875 10.953125 3.296875 
Q 6 8.015625 6 15.921875 
Q 6 25.140625 12.171875 29.828125 
Q 18.359375 34.515625 30.609375 34.515625 
L 43.21875 34.515625 
L 43.21875 35.40625 
Q 43.21875 41.609375 39.140625 45 
Q 35.0625 48.390625 27.6875 48.390625 
Q 23 48.390625 18.546875 47.265625 
Q 14.109375 46.140625 10.015625 43.890625 
L 10.015625 52.203125 
Q 14.9375 54.109375 19.578125 55.046875 
Q 24.21875 56 28.609375 56 
Q 40.484375 56 46.34375 49.84375 
Q 52.203125 43.703125 52.203125 31.203125 
" id="BitstreamVeraSans-Roman-61"/>
      <path d="M 30.609375 48.390625 
Q 23.390625 48.390625 19.1875 42.75 
Q 14.984375 37.109375 14.984375 27.296875 
Q 14.984375 17.484375 19.15625 11.84375 
Q 23.34375 6.203125 30.609375 6.203125 
Q 37.796875 6.203125 41.984375 11.859375 
Q 46.1875 17.53125 46.1875 27.296875 
Q 46.1875 37.015625 41.984375 42.703125 
Q 37.796875 48.390625 30.609375 48.390625 
M 30.609375 56 
Q 42.328125 56 49.015625 48.375 
Q 55.71875 40.765625 55.71875 27.296875 
Q 55.71875 13.875 49.015625 6.21875 
Q 42.328125 -1.421875 30.609375 -1.421875 
Q 18.84375 -1.421875 12.171875 6.21875 
Q 5.515625 13.875 5.515625 27.296875 
Q 5.515625 40.765625 12.171875 48.375 
Q 18.84375 56 30.609375 56 
" id="BitstreamVeraSans-Roman-6f"/>
      <path d="M 9.421875 54.6875 
L 18.40625 54.6875 
L 18.40625 0 
L 9.421875 0 
z
M 9.421875 75.984375 
L 18.40625 75.984375 
L 18.40625 64.59375 
L 9.421875 64.59375 
z
" id="BitstreamVeraSans-Roman-69"/>
      <path d="M 56.203125 29.59375 
L 56.203125 25.203125 
L 14.890625 25.203125 
Q 15.484375 15.921875 20.484375 11.0625 
Q 25.484375 6.203125 34.421875 6.203125 
Q 39.59375 6.203125 44.453125 7.46875 
Q 49.3125 8.734375 54.109375 11.28125 
L 54.109375 2.78125 
Q 49.265625 0.734375 44.1875 -0.34375 
Q 39.109375 -1.421875 33.890625 -1.421875 
Q 20.796875 -1.421875 13.15625 6.1875 
Q 5.515625 13.8125 5.515625 26.8125 
Q 5.515625 40.234375 12.765625 48.109375 
Q 20.015625 56 32.328125 56 
Q 43.359375 56 49.78125 48.890625 
Q 56.203125 41.796875 56.203125 29.59375 
M 47.21875 32.234375 
Q 47.125 39.59375 43.09375 43.984375 
Q 39.0625 48.390625 32.421875 48.390625 
Q 24.90625 48.390625 20.390625 44.140625 
Q 15.875 39.890625 15.1875 32.171875 
z
" id="BitstreamVeraSans-Roman-65"/>
      <path d="M 18.3125 70.21875 
L 18.3125 54.6875 
L 36.8125 54.6875 
L 36.8125 47.703125 
L 18.3125 47.703125 
L 18.3125 18.015625 
Q 18.3125 11.328125 20.140625 9.421875 
Q 21.96875 7.515625 27.59375 7.515625 
L 36.8125 7.515625 
L 36.8125 0 
L 27.59375 0 
Q 17.1875 0 13.234375 3.875 
Q 9.28125 7.765625 9.28125 18.015625 
L 9.28125 47.703125 
L 2.6875 47.703125 
L 2.6875 54.6875 
L 9.28125 54.6875 
L 9.28125 70.21875 
z
" id="BitstreamVeraSans-Roman-74"/>
      <path d="M 41.109375 46.296875 
Q 39.59375 47.171875 37.8125 47.578125 
Q 36.03125 48 33.890625 48 
Q 26.265625 48 22.1875 43.046875 
Q 18.109375 38.09375 18.109375 28.8125 
L 18.109375 0 
L 9.078125 0 
L 9.078125 54.6875 
L 18.109375 54.6875 
L 18.109375 46.1875 
Q 20.953125 51.171875 25.484375 53.578125 
Q 30.03125 56 36.53125 56 
Q 37.453125 56 38.578125 55.875 
Q 39.703125 55.765625 41.0625 55.515625 
z
" id="BitstreamVeraSans-Roman-72"/>
      <path d="M 44.28125 53.078125 
L 44.28125 44.578125 
Q 40.484375 46.53125 36.375 47.5 
Q 32.28125 48.484375 27.875 48.484375 
Q 21.1875 48.484375 17.84375 46.4375 
Q 14.5 44.390625 14.5 40.28125 
Q 14.5 37.15625 16.890625 35.375 
Q 19.28125 33.59375 26.515625 31.984375 
L 29.59375 31.296875 
Q 39.15625 29.25 43.1875 25.515625 
Q 47.21875 21.78125 47.21875 15.09375 
Q 47.21875 7.46875 41.1875 3.015625 
Q 35.15625 -1.421875 24.609375 -1.421875 
Q 20.21875 -1.421875 15.453125 -0.5625 
Q 10.6875 0.296875 5.421875 2 
L 5.421875 11.28125 
Q 10.40625 8.6875 15.234375 7.390625 
Q 20.0625 6.109375 24.8125 6.109375 
Q 31.15625 6.109375 34.5625 8.28125 
Q 37.984375 10.453125 37.984375 14.40625 
Q 37.984375 18.0625 35.515625 20.015625 
Q 33.0625 21.96875 24.703125 23.78125 
L 21.578125 24.515625 
Q 13.234375 26.265625 9.515625 29.90625 
Q 5.8125 33.546875 5.8125 39.890625 
Q 5.8125 47.609375 11.28125 51.796875 
Q 16.75 56 26.8125 56 
Q 31.78125 56 36.171875 55.265625 
Q 40.578125 54.546875 44.28125 53.078125 
" id="BitstreamVeraSans-Roman-73"/>
     </defs>
     <g transform="translate(693.93046875 807.8296875)scale(0.3 -0.3)">
      <use xlink:href="#BitstreamVeraSans-Roman-69"/>
      <use x="27.783203125" xlink:href="#BitstreamVeraSans-Roman-74"/>
      <use x="66.9921875" xlink:href="#BitstreamVeraSans-Roman-65"/>
      <use x="128.515625" xlink:href="#BitstreamVeraSans-Roman-72"/>
      <use x="169.62890625" xlink:href="#BitstreamVeraSans-Roman-61"/>
      <use x="230.908203125" xlink:href="#BitstreamVeraSans-Roman-74"/>
      <use x="270.1171875" xlink:href="#BitstreamVeraSans-Roman-69"/>
      <use x="297.900390625" xlink:href="#BitstreamVeraSans-Roman-6f"/>
      <use x="359.08203125" xlink:href="#BitstreamVeraSans-Roman-6e"/>
      <use x="422.4609375" xlink:href="#BitstreamVeraSans-Roman-73"/>
     </g>
    </g>
   </g>
   <g id="matplotlib.axis_2">
    <g id="ytick_1">
     <g id="line2d_15">
      <defs>
       <path d="M 0 0 
L 4 0 
" id="m011ddb2138" style="stroke:#000000;stroke-width:0.5;"/>
      </defs>
      <g>
       <use style="stroke:#000000;stroke-width:0.5;" x="158.4" xlink:href="#m011ddb2138" y="747.0"/>
      </g>
     </g>
     <g id="line2d_16">
      <defs>
       <path d="M 0 0 
L -4 0 
" id="m5189dc602c" style="stroke:#000000;stroke-width:0.5;"/>
      </defs>
      <g>
       <use style="stroke:#000000;stroke-width:0.5;" x="1371.825" xlink:href="#m5189dc602c" y="747.0"/>
      </g>
     </g>
     <g id="text_8">
      <!-- −60 -->
      <defs>
       <path d="M 10.59375 35.5 
L 73.1875 35.5 
L 73.1875 27.203125 
L 10.59375 27.203125 
z
" id="BitstreamVeraSans-Roman-2212"/>
       <path d="M 33.015625 40.375 
Q 26.375 40.375 22.484375 35.828125 
Q 18.609375 31.296875 18.609375 23.390625 
Q 18.609375 15.53125 22.484375 10.953125 
Q 26.375 6.390625 33.015625 6.390625 
Q 39.65625 6.390625 43.53125 10.953125 
Q 47.40625 15.53125 47.40625 23.390625 
Q 47.40625 31.296875 43.53125 35.828125 
Q 39.65625 40.375 33.015625 40.375 
M 52.59375 71.296875 
L 52.59375 62.3125 
Q 48.875 64.0625 45.09375 64.984375 
Q 41.3125 65.921875 37.59375 65.921875 
Q 27.828125 65.921875 22.671875 59.328125 
Q 17.53125 52.734375 16.796875 39.40625 
Q 19.671875 43.65625 24.015625 45.921875 
Q 28.375 48.1875 33.59375 48.1875 
Q 44.578125 48.1875 50.953125 41.515625 
Q 57.328125 34.859375 57.328125 23.390625 
Q 57.328125 12.15625 50.6875 5.359375 
Q 44.046875 -1.421875 33.015625 -1.421875 
Q 20.359375 -1.421875 13.671875 8.265625 
Q 6.984375 17.96875 6.984375 36.375 
Q 6.984375 53.65625 15.1875 63.9375 
Q 23.390625 74.21875 37.203125 74.21875 
Q 40.921875 74.21875 44.703125 73.484375 
Q 48.484375 72.75 52.59375 71.296875 
" id="BitstreamVeraSans-Roman-36"/>
      </defs>
      <g transform="translate(91.0859375 755.278125)scale(0.3 -0.3)">
       <use xlink:href="#BitstreamVeraSans-Roman-2212"/>
       <use x="83.7890625" xlink:href="#BitstreamVeraSans-Roman-36"/>
       <use x="147.412109375" xlink:href="#BitstreamVeraSans-Roman-30"/>
      </g>
     </g>
    </g>
    <g id="ytick_2">
     <g id="line2d_17">
      <g>
       <use style="stroke:#000000;stroke-width:0.5;" x="158.4" xlink:href="#m011ddb2138" y="660.0375"/>
      </g>
     </g>
     <g id="line2d_18">
      <g>
       <use style="stroke:#000000;stroke-width:0.5;" x="1371.825" xlink:href="#m5189dc602c" y="660.0375"/>
      </g>
     </g>
     <g id="text_9">
      <!-- −50 -->
      <g transform="translate(91.0859375 668.315625)scale(0.3 -0.3)">
       <use xlink:href="#BitstreamVeraSans-Roman-2212"/>
       <use x="83.7890625" xlink:href="#BitstreamVeraSans-Roman-35"/>
       <use x="147.412109375" xlink:href="#BitstreamVeraSans-Roman-30"/>
      </g>
     </g>
    </g>
    <g id="ytick_3">
     <g id="line2d_19">
      <g>
       <use style="stroke:#000000;stroke-width:0.5;" x="158.4" xlink:href="#m011ddb2138" y="573.075"/>
      </g>
     </g>
     <g id="line2d_20">
      <g>
       <use style="stroke:#000000;stroke-width:0.5;" x="1371.825" xlink:href="#m5189dc602c" y="573.075"/>
      </g>
     </g>
     <g id="text_10">
      <!-- −40 -->
      <g transform="translate(91.0859375 581.353125)scale(0.3 -0.3)">
       <use xlink:href="#BitstreamVeraSans-Roman-2212"/>
       <use x="83.7890625" xlink:href="#BitstreamVeraSans-Roman-34"/>
       <use x="147.412109375" xlink:href="#BitstreamVeraSans-Roman-30"/>
      </g>
     </g>
    </g>
    <g id="ytick_4">
     <g id="line2d_21">
      <g>
       <use style="stroke:#000000;stroke-width:0.5;" x="158.4" xlink:href="#m011ddb2138" y="486.1125"/>
      </g>
     </g>
     <g id="line2d_22">
      <g>
       <use style="stroke:#000000;stroke-width:0.5;" x="1371.825" xlink:href="#m5189dc602c" y="486.1125"/>
      </g>
     </g>
     <g id="text_11">
      <!-- −30 -->
      <g transform="translate(91.0859375 494.390625)scale(0.3 -0.3)">
       <use xlink:href="#BitstreamVeraSans-Roman-2212"/>
       <use x="83.7890625" xlink:href="#BitstreamVeraSans-Roman-33"/>
       <use x="147.412109375" xlink:href="#BitstreamVeraSans-Roman-30"/>
      </g>
     </g>
    </g>
    <g id="ytick_5">
     <g id="line2d_23">
      <g>
       <use style="stroke:#000000;stroke-width:0.5;" x="158.4" xlink:href="#m011ddb2138" y="399.15"/>
      </g>
     </g>
     <g id="line2d_24">
      <g>
       <use style="stroke:#000000;stroke-width:0.5;" x="1371.825" xlink:href="#m5189dc602c" y="399.15"/>
      </g>
     </g>
     <g id="text_12">
      <!-- −20 -->
      <g transform="translate(91.0859375 407.428125)scale(0.3 -0.3)">
       <use xlink:href="#BitstreamVeraSans-Roman-2212"/>
       <use x="83.7890625" xlink:href="#BitstreamVeraSans-Roman-32"/>
       <use x="147.412109375" xlink:href="#BitstreamVeraSans-Roman-30"/>
      </g>
     </g>
    </g>
    <g id="ytick_6">
     <g id="line2d_25">
      <g>
       <use style="stroke:#000000;stroke-width:0.5;" x="158.4" xlink:href="#m011ddb2138" y="312.1875"/>
      </g>
     </g>
     <g id="line2d_26">
      <g>
       <use style="stroke:#000000;stroke-width:0.5;" x="1371.825" xlink:href="#m5189dc602c" y="312.1875"/>
      </g>
     </g>
     <g id="text_13">
      <!-- −10 -->
      <g transform="translate(91.0859375 320.465625)scale(0.3 -0.3)">
       <use xlink:href="#BitstreamVeraSans-Roman-2212"/>
       <use x="83.7890625" xlink:href="#BitstreamVeraSans-Roman-31"/>
       <use x="147.412109375" xlink:href="#BitstreamVeraSans-Roman-30"/>
      </g>
     </g>
    </g>
    <g id="ytick_7">
     <g id="line2d_27">
      <g>
       <use style="stroke:#000000;stroke-width:0.5;" x="158.4" xlink:href="#m011ddb2138" y="225.225"/>
      </g>
     </g>
     <g id="line2d_28">
      <g>
       <use style="stroke:#000000;stroke-width:0.5;" x="1371.825" xlink:href="#m5189dc602c" y="225.225"/>
      </g>
     </g>
     <g id="text_14">
      <!-- 0 -->
      <g transform="translate(135.3125 233.503125)scale(0.3 -0.3)">
       <use xlink:href="#BitstreamVeraSans-Roman-30"/>
      </g>
     </g>
    </g>
    <g id="ytick_8">
     <g id="line2d_29">
      <g>
       <use style="stroke:#000000;stroke-width:0.5;" x="158.4" xlink:href="#m011ddb2138" y="138.2625"/>
      </g>
     </g>
     <g id="line2d_30">
      <g>
       <use style="stroke:#000000;stroke-width:0.5;" x="1371.825" xlink:href="#m5189dc602c" y="138.2625"/>
      </g>
     </g>
     <g id="text_15">
      <!-- 10 -->
      <g transform="translate(116.225 146.540625)scale(0.3 -0.3)">
       <use xlink:href="#BitstreamVeraSans-Roman-31"/>
       <use x="63.623046875" xlink:href="#BitstreamVeraSans-Roman-30"/>
      </g>
     </g>
    </g>
    <g id="ytick_9">
     <g id="line2d_31">
      <g>
       <use style="stroke:#000000;stroke-width:0.5;" x="158.4" xlink:href="#m011ddb2138" y="51.3"/>
      </g>
     </g>
     <g id="line2d_32">
      <g>
       <use style="stroke:#000000;stroke-width:0.5;" x="1371.825" xlink:href="#m5189dc602c" y="51.3"/>
      </g>
     </g>
     <g id="text_16">
      <!-- 20 -->
      <g transform="translate(116.225 59.578125)scale(0.3 -0.3)">
       <use xlink:href="#BitstreamVeraSans-Roman-32"/>
       <use x="63.623046875" xlink:href="#BitstreamVeraSans-Roman-30"/>
      </g>
     </g>
    </g>
    <g id="text_17">
     <!-- log(loss) -->
     <defs>
      <path d="M 8.015625 75.875 
L 15.828125 75.875 
Q 23.140625 64.359375 26.78125 53.3125 
Q 30.421875 42.28125 30.421875 31.390625 
Q 30.421875 20.453125 26.78125 9.375 
Q 23.140625 -1.703125 15.828125 -13.1875 
L 8.015625 -13.1875 
Q 14.5 -2 17.703125 9.0625 
Q 20.90625 20.125 20.90625 31.390625 
Q 20.90625 42.671875 17.703125 53.65625 
Q 14.5 64.65625 8.015625 75.875 
" id="BitstreamVeraSans-Roman-29"/>
      <path d="M 31 75.875 
Q 24.46875 64.65625 21.28125 53.65625 
Q 18.109375 42.671875 18.109375 31.390625 
Q 18.109375 20.125 21.3125 9.0625 
Q 24.515625 -2 31 -13.1875 
L 23.1875 -13.1875 
Q 15.875 -1.703125 12.234375 9.375 
Q 8.59375 20.453125 8.59375 31.390625 
Q 8.59375 42.28125 12.203125 53.3125 
Q 15.828125 64.359375 23.1875 75.875 
z
" id="BitstreamVeraSans-Roman-28"/>
      <path d="M 45.40625 27.984375 
Q 45.40625 37.75 41.375 43.109375 
Q 37.359375 48.484375 30.078125 48.484375 
Q 22.859375 48.484375 18.828125 43.109375 
Q 14.796875 37.75 14.796875 27.984375 
Q 14.796875 18.265625 18.828125 12.890625 
Q 22.859375 7.515625 30.078125 7.515625 
Q 37.359375 7.515625 41.375 12.890625 
Q 45.40625 18.265625 45.40625 27.984375 
M 54.390625 6.78125 
Q 54.390625 -7.171875 48.1875 -13.984375 
Q 42 -20.796875 29.203125 -20.796875 
Q 24.46875 -20.796875 20.265625 -20.09375 
Q 16.0625 -19.390625 12.109375 -17.921875 
L 12.109375 -9.1875 
Q 16.0625 -11.328125 19.921875 -12.34375 
Q 23.78125 -13.375 27.78125 -13.375 
Q 36.625 -13.375 41.015625 -8.765625 
Q 45.40625 -4.15625 45.40625 5.171875 
L 45.40625 9.625 
Q 42.625 4.78125 38.28125 2.390625 
Q 33.9375 0 27.875 0 
Q 17.828125 0 11.671875 7.65625 
Q 5.515625 15.328125 5.515625 27.984375 
Q 5.515625 40.671875 11.671875 48.328125 
Q 17.828125 56 27.875 56 
Q 33.9375 56 38.28125 53.609375 
Q 42.625 51.21875 45.40625 46.390625 
L 45.40625 54.6875 
L 54.390625 54.6875 
z
" id="BitstreamVeraSans-Roman-67"/>
      <path d="M 9.421875 75.984375 
L 18.40625 75.984375 
L 18.40625 0 
L 9.421875 0 
z
" id="BitstreamVeraSans-Roman-6c"/>
     </defs>
     <g transform="translate(79.846875 462.69609375)rotate(-90.0)scale(0.3 -0.3)">
      <use xlink:href="#BitstreamVeraSans-Roman-6c"/>
      <use x="27.783203125" xlink:href="#BitstreamVeraSans-Roman-6f"/>
      <use x="88.96484375" xlink:href="#BitstreamVeraSans-Roman-67"/>
      <use x="152.44140625" xlink:href="#BitstreamVeraSans-Roman-28"/>
      <use x="191.455078125" xlink:href="#BitstreamVeraSans-Roman-6c"/>
      <use x="219.23828125" xlink:href="#BitstreamVeraSans-Roman-6f"/>
      <use x="280.419921875" xlink:href="#BitstreamVeraSans-Roman-73"/>
      <use x="332.51953125" xlink:href="#BitstreamVeraSans-Roman-73"/>
      <use x="384.619140625" xlink:href="#BitstreamVeraSans-Roman-29"/>
     </g>
    </g>
   </g>
   <g id="legend_1">
    <g id="patch_7">
     <path d="M 879.651562 163.36875 
L 1356.825 163.36875 
L 1356.825 66.3 
L 879.651562 66.3 
z
" style="fill:#ffffff;stroke:#000000;stroke-linejoin:miter;"/>
    </g>
    <g id="line2d_33">
     <path d="M 900.651562 90.595312 
L 942.651562 90.595312 
" style="fill:none;stroke:#0000ff;stroke-linecap:square;stroke-width:2.0;"/>
    </g>
    <g id="line2d_34"/>
    <g id="text_18">
     <!-- random: step=0.004893 -->
     <defs>
      <path id="BitstreamVeraSans-Roman-20"/>
      <path d="M 52 44.1875 
Q 55.375 50.25 60.0625 53.125 
Q 64.75 56 71.09375 56 
Q 79.640625 56 84.28125 50.015625 
Q 88.921875 44.046875 88.921875 33.015625 
L 88.921875 0 
L 79.890625 0 
L 79.890625 32.71875 
Q 79.890625 40.578125 77.09375 44.375 
Q 74.3125 48.1875 68.609375 48.1875 
Q 61.625 48.1875 57.5625 43.546875 
Q 53.515625 38.921875 53.515625 30.90625 
L 53.515625 0 
L 44.484375 0 
L 44.484375 32.71875 
Q 44.484375 40.625 41.703125 44.40625 
Q 38.921875 48.1875 33.109375 48.1875 
Q 26.21875 48.1875 22.15625 43.53125 
Q 18.109375 38.875 18.109375 30.90625 
L 18.109375 0 
L 9.078125 0 
L 9.078125 54.6875 
L 18.109375 54.6875 
L 18.109375 46.1875 
Q 21.1875 51.21875 25.484375 53.609375 
Q 29.78125 56 35.6875 56 
Q 41.65625 56 45.828125 52.96875 
Q 50 49.953125 52 44.1875 
" id="BitstreamVeraSans-Roman-6d"/>
      <path d="M 31.78125 34.625 
Q 24.75 34.625 20.71875 30.859375 
Q 16.703125 27.09375 16.703125 20.515625 
Q 16.703125 13.921875 20.71875 10.15625 
Q 24.75 6.390625 31.78125 6.390625 
Q 38.8125 6.390625 42.859375 10.171875 
Q 46.921875 13.96875 46.921875 20.515625 
Q 46.921875 27.09375 42.890625 30.859375 
Q 38.875 34.625 31.78125 34.625 
M 21.921875 38.8125 
Q 15.578125 40.375 12.03125 44.71875 
Q 8.5 49.078125 8.5 55.328125 
Q 8.5 64.0625 14.71875 69.140625 
Q 20.953125 74.21875 31.78125 74.21875 
Q 42.671875 74.21875 48.875 69.140625 
Q 55.078125 64.0625 55.078125 55.328125 
Q 55.078125 49.078125 51.53125 44.71875 
Q 48 40.375 41.703125 38.8125 
Q 48.828125 37.15625 52.796875 32.3125 
Q 56.78125 27.484375 56.78125 20.515625 
Q 56.78125 9.90625 50.3125 4.234375 
Q 43.84375 -1.421875 31.78125 -1.421875 
Q 19.734375 -1.421875 13.25 4.234375 
Q 6.78125 9.90625 6.78125 20.515625 
Q 6.78125 27.484375 10.78125 32.3125 
Q 14.796875 37.15625 21.921875 38.8125 
M 18.3125 54.390625 
Q 18.3125 48.734375 21.84375 45.5625 
Q 25.390625 42.390625 31.78125 42.390625 
Q 38.140625 42.390625 41.71875 45.5625 
Q 45.3125 48.734375 45.3125 54.390625 
Q 45.3125 60.0625 41.71875 63.234375 
Q 38.140625 66.40625 31.78125 66.40625 
Q 25.390625 66.40625 21.84375 63.234375 
Q 18.3125 60.0625 18.3125 54.390625 
" id="BitstreamVeraSans-Roman-38"/>
      <path d="M 10.984375 1.515625 
L 10.984375 10.5 
Q 14.703125 8.734375 18.5 7.8125 
Q 22.3125 6.890625 25.984375 6.890625 
Q 35.75 6.890625 40.890625 13.453125 
Q 46.046875 20.015625 46.78125 33.40625 
Q 43.953125 29.203125 39.59375 26.953125 
Q 35.25 24.703125 29.984375 24.703125 
Q 19.046875 24.703125 12.671875 31.3125 
Q 6.296875 37.9375 6.296875 49.421875 
Q 6.296875 60.640625 12.9375 67.421875 
Q 19.578125 74.21875 30.609375 74.21875 
Q 43.265625 74.21875 49.921875 64.515625 
Q 56.59375 54.828125 56.59375 36.375 
Q 56.59375 19.140625 48.40625 8.859375 
Q 40.234375 -1.421875 26.421875 -1.421875 
Q 22.703125 -1.421875 18.890625 -0.6875 
Q 15.09375 0.046875 10.984375 1.515625 
M 30.609375 32.421875 
Q 37.25 32.421875 41.125 36.953125 
Q 45.015625 41.5 45.015625 49.421875 
Q 45.015625 57.28125 41.125 61.84375 
Q 37.25 66.40625 30.609375 66.40625 
Q 23.96875 66.40625 20.09375 61.84375 
Q 16.21875 57.28125 16.21875 49.421875 
Q 16.21875 41.5 20.09375 36.953125 
Q 23.96875 32.421875 30.609375 32.421875 
" id="BitstreamVeraSans-Roman-39"/>
      <path d="M 11.71875 12.40625 
L 22.015625 12.40625 
L 22.015625 0 
L 11.71875 0 
z
M 11.71875 51.703125 
L 22.015625 51.703125 
L 22.015625 39.3125 
L 11.71875 39.3125 
z
" id="BitstreamVeraSans-Roman-3a"/>
      <path d="M 10.6875 12.40625 
L 21 12.40625 
L 21 0 
L 10.6875 0 
z
" id="BitstreamVeraSans-Roman-2e"/>
      <path d="M 10.59375 45.40625 
L 73.1875 45.40625 
L 73.1875 37.203125 
L 10.59375 37.203125 
z
M 10.59375 25.484375 
L 73.1875 25.484375 
L 73.1875 17.1875 
L 10.59375 17.1875 
z
" id="BitstreamVeraSans-Roman-3d"/>
      <path d="M 45.40625 46.390625 
L 45.40625 75.984375 
L 54.390625 75.984375 
L 54.390625 0 
L 45.40625 0 
L 45.40625 8.203125 
Q 42.578125 3.328125 38.25 0.953125 
Q 33.9375 -1.421875 27.875 -1.421875 
Q 17.96875 -1.421875 11.734375 6.484375 
Q 5.515625 14.40625 5.515625 27.296875 
Q 5.515625 40.1875 11.734375 48.09375 
Q 17.96875 56 27.875 56 
Q 33.9375 56 38.25 53.625 
Q 42.578125 51.265625 45.40625 46.390625 
M 14.796875 27.296875 
Q 14.796875 17.390625 18.875 11.75 
Q 22.953125 6.109375 30.078125 6.109375 
Q 37.203125 6.109375 41.296875 11.75 
Q 45.40625 17.390625 45.40625 27.296875 
Q 45.40625 37.203125 41.296875 42.84375 
Q 37.203125 48.484375 30.078125 48.484375 
Q 22.953125 48.484375 18.875 42.84375 
Q 14.796875 37.203125 14.796875 27.296875 
" id="BitstreamVeraSans-Roman-64"/>
      <path d="M 18.109375 8.203125 
L 18.109375 -20.796875 
L 9.078125 -20.796875 
L 9.078125 54.6875 
L 18.109375 54.6875 
L 18.109375 46.390625 
Q 20.953125 51.265625 25.265625 53.625 
Q 29.59375 56 35.59375 56 
Q 45.5625 56 51.78125 48.09375 
Q 58.015625 40.1875 58.015625 27.296875 
Q 58.015625 14.40625 51.78125 6.484375 
Q 45.5625 -1.421875 35.59375 -1.421875 
Q 29.59375 -1.421875 25.265625 0.953125 
Q 20.953125 3.328125 18.109375 8.203125 
M 48.6875 27.296875 
Q 48.6875 37.203125 44.609375 42.84375 
Q 40.53125 48.484375 33.40625 48.484375 
Q 26.265625 48.484375 22.1875 42.84375 
Q 18.109375 37.203125 18.109375 27.296875 
Q 18.109375 17.390625 22.1875 11.75 
Q 26.265625 6.109375 33.40625 6.109375 
Q 40.53125 6.109375 44.609375 11.75 
Q 48.6875 17.390625 48.6875 27.296875 
" id="BitstreamVeraSans-Roman-70"/>
     </defs>
     <g transform="translate(975.6515625 101.0953125)scale(0.3 -0.3)">
      <use xlink:href="#BitstreamVeraSans-Roman-72"/>
      <use x="41.11328125" xlink:href="#BitstreamVeraSans-Roman-61"/>
      <use x="102.392578125" xlink:href="#BitstreamVeraSans-Roman-6e"/>
      <use x="165.771484375" xlink:href="#BitstreamVeraSans-Roman-64"/>
      <use x="229.248046875" xlink:href="#BitstreamVeraSans-Roman-6f"/>
      <use x="290.4296875" xlink:href="#BitstreamVeraSans-Roman-6d"/>
      <use x="387.841796875" xlink:href="#BitstreamVeraSans-Roman-3a"/>
      <use x="421.533203125" xlink:href="#BitstreamVeraSans-Roman-20"/>
      <use x="453.3203125" xlink:href="#BitstreamVeraSans-Roman-73"/>
      <use x="505.419921875" xlink:href="#BitstreamVeraSans-Roman-74"/>
      <use x="544.62890625" xlink:href="#BitstreamVeraSans-Roman-65"/>
      <use x="606.15234375" xlink:href="#BitstreamVeraSans-Roman-70"/>
      <use x="669.62890625" xlink:href="#BitstreamVeraSans-Roman-3d"/>
      <use x="753.41796875" xlink:href="#BitstreamVeraSans-Roman-30"/>
      <use x="817.041015625" xlink:href="#BitstreamVeraSans-Roman-2e"/>
      <use x="848.828125" xlink:href="#BitstreamVeraSans-Roman-30"/>
      <use x="912.451171875" xlink:href="#BitstreamVeraSans-Roman-30"/>
      <use x="976.07421875" xlink:href="#BitstreamVeraSans-Roman-34"/>
      <use x="1039.69726562" xlink:href="#BitstreamVeraSans-Roman-38"/>
      <use x="1103.3203125" xlink:href="#BitstreamVeraSans-Roman-39"/>
      <use x="1166.94335938" xlink:href="#BitstreamVeraSans-Roman-33"/>
     </g>
    </g>
    <g id="line2d_35">
     <path d="M 900.651562 134.629687 
L 942.651562 134.629687 
" style="fill:none;stroke:#008000;stroke-linecap:square;stroke-width:2.0;"/>
    </g>
    <g id="line2d_36"/>
    <g id="text_19">
     <!-- corr: step=0.004893 -->
     <defs>
      <path d="M 48.78125 52.59375 
L 48.78125 44.1875 
Q 44.96875 46.296875 41.140625 47.34375 
Q 37.3125 48.390625 33.40625 48.390625 
Q 24.65625 48.390625 19.8125 42.84375 
Q 14.984375 37.3125 14.984375 27.296875 
Q 14.984375 17.28125 19.8125 11.734375 
Q 24.65625 6.203125 33.40625 6.203125 
Q 37.3125 6.203125 41.140625 7.25 
Q 44.96875 8.296875 48.78125 10.40625 
L 48.78125 2.09375 
Q 45.015625 0.34375 40.984375 -0.53125 
Q 36.96875 -1.421875 32.421875 -1.421875 
Q 20.0625 -1.421875 12.78125 6.34375 
Q 5.515625 14.109375 5.515625 27.296875 
Q 5.515625 40.671875 12.859375 48.328125 
Q 20.21875 56 33.015625 56 
Q 37.15625 56 41.109375 55.140625 
Q 45.0625 54.296875 48.78125 52.59375 
" id="BitstreamVeraSans-Roman-63"/>
     </defs>
     <g transform="translate(975.6515625 145.1296875)scale(0.3 -0.3)">
      <use xlink:href="#BitstreamVeraSans-Roman-63"/>
      <use x="54.98046875" xlink:href="#BitstreamVeraSans-Roman-6f"/>
      <use x="116.162109375" xlink:href="#BitstreamVeraSans-Roman-72"/>
      <use x="157.259765625" xlink:href="#BitstreamVeraSans-Roman-72"/>
      <use x="198.357421875" xlink:href="#BitstreamVeraSans-Roman-3a"/>
      <use x="232.048828125" xlink:href="#BitstreamVeraSans-Roman-20"/>
      <use x="263.8359375" xlink:href="#BitstreamVeraSans-Roman-73"/>
      <use x="315.935546875" xlink:href="#BitstreamVeraSans-Roman-74"/>
      <use x="355.14453125" xlink:href="#BitstreamVeraSans-Roman-65"/>
      <use x="416.66796875" xlink:href="#BitstreamVeraSans-Roman-70"/>
      <use x="480.14453125" xlink:href="#BitstreamVeraSans-Roman-3d"/>
      <use x="563.93359375" xlink:href="#BitstreamVeraSans-Roman-30"/>
      <use x="627.556640625" xlink:href="#BitstreamVeraSans-Roman-2e"/>
      <use x="659.34375" xlink:href="#BitstreamVeraSans-Roman-30"/>
      <use x="722.966796875" xlink:href="#BitstreamVeraSans-Roman-30"/>
      <use x="786.58984375" xlink:href="#BitstreamVeraSans-Roman-34"/>
      <use x="850.212890625" xlink:href="#BitstreamVeraSans-Roman-38"/>
      <use x="913.8359375" xlink:href="#BitstreamVeraSans-Roman-39"/>
      <use x="977.458984375" xlink:href="#BitstreamVeraSans-Roman-33"/>
     </g>
    </g>
   </g>
  </g>
 </g>
 <defs>
  <clipPath id="pa717df3490">
   <rect height="695.7" width="1213.425" x="158.4" y="51.3"/>
  </clipPath>
 </defs>
</svg>
