<?xml version="1.0" encoding="utf-8" standalone="no"?>
<!DOCTYPE svg PUBLIC "-//W3C//DTD SVG 1.1//EN"
  "http://www.w3.org/Graphics/SVG/1.1/DTD/svg11.dtd">
<!-- Created with matplotlib (http://matplotlib.org/) -->
<svg height="864pt" version="1.1" viewBox="0 0 1440 864" width="1440pt" xmlns="http://www.w3.org/2000/svg" xmlns:xlink="http://www.w3.org/1999/xlink">
 <defs>
  <style type="text/css">
*{stroke-linecap:butt;stroke-linejoin:round;stroke-miterlimit:100000;}
  </style>
 </defs>
 <g id="figure_1">
  <g id="patch_1">
   <path d="M 0 864 
L 1440 864 
L 1440 0 
L 0 0 
z
" style="fill:#ffffff;"/>
  </g>
  <g id="axes_1">
   <g id="patch_2">
    <path d="M 158.4 747 
L 1371.825 747 
L 1371.825 51.3 
L 158.4 51.3 
z
" style="fill:#ffffff;"/>
   </g>
   <g id="line2d_1">
    <path clip-path="url(#p14a1621caa)" d="M 158.4 129.3761 
L 160.82685 130.520455 
L 165.68055 133.266614 
L 168.1074 134.901878 
L 175.38795 138.009203 
L 177.8148 139.28336 
L 180.24165 140.189402 
L 182.6685 141.36731 
L 185.09535 142.416136 
L 187.5222 144.056552 
L 194.80275 147.965428 
L 197.2296 149.112659 
L 199.65645 150.081706 
L 204.51015 152.344895 
L 206.937 153.388078 
L 209.36385 154.74306 
L 211.7907 155.560118 
L 214.21755 156.7134 
L 219.07125 158.670939 
L 221.4981 159.951481 
L 223.92495 161.424791 
L 226.3518 162.575091 
L 231.2055 164.634743 
L 233.63235 165.747886 
L 238.48605 168.444232 
L 240.9129 169.110406 
L 243.33975 170.478689 
L 245.7666 171.499681 
L 248.19345 172.302679 
L 250.6203 173.371725 
L 253.04715 174.305969 
L 255.474 175.439107 
L 257.90085 176.811434 
L 262.75455 178.806764 
L 265.1814 180.104123 
L 267.60825 181.05709 
L 270.0351 181.823989 
L 277.31565 185.04125 
L 279.7425 186.29237 
L 282.16935 187.142968 
L 287.02305 189.614388 
L 289.4499 190.302282 
L 291.87675 191.267233 
L 299.1573 194.502731 
L 304.011 196.399864 
L 311.29155 199.682381 
L 313.7184 200.481348 
L 323.4258 205.070906 
L 325.85265 205.919155 
L 328.2795 206.922317 
L 333.1332 209.595382 
L 335.56005 210.830042 
L 337.9869 211.570881 
L 340.41375 212.43908 
L 347.6943 216.17579 
L 352.548 217.971962 
L 354.97485 219.269779 
L 362.2554 222.697591 
L 364.68225 223.413319 
L 367.1091 224.355171 
L 374.38965 227.91395 
L 376.8165 228.90014 
L 379.24335 229.750137 
L 384.09705 231.890259 
L 386.5239 233.102611 
L 393.80445 236.077092 
L 396.2313 236.907884 
L 398.65815 237.879125 
L 401.085 239.036041 
L 403.51185 239.993331 
L 405.9387 240.830601 
L 410.7924 243.468298 
L 413.21925 244.396364 
L 415.6461 245.798256 
L 418.07295 246.845442 
L 420.4998 247.751201 
L 432.63405 253.270955 
L 435.0609 254.129823 
L 442.34145 257.41392 
L 444.7683 258.576245 
L 449.622 260.441272 
L 452.04885 261.350681 
L 456.90255 263.786179 
L 459.3294 264.651113 
L 461.75625 265.929787 
L 466.60995 267.745521 
L 469.0368 268.617738 
L 471.46365 269.712005 
L 473.8905 271.029374 
L 476.31735 271.799233 
L 481.17105 273.832598 
L 483.5979 275.291445 
L 488.4516 277.475152 
L 490.87845 278.194921 
L 493.3053 279.412403 
L 500.58585 281.78107 
L 505.43955 284.191458 
L 507.8664 285.286478 
L 515.14695 287.89896 
L 517.5738 289.377877 
L 520.00065 290.152571 
L 522.4275 291.051682 
L 524.85435 292.208407 
L 527.2812 293.193701 
L 532.1349 295.70666 
L 534.56175 296.665478 
L 536.9886 297.979616 
L 541.8423 300.194691 
L 544.26915 301.435888 
L 546.696 302.455318 
L 549.12285 303.319028 
L 551.5497 304.314524 
L 556.4034 305.996383 
L 558.83025 306.906506 
L 563.68395 309.063735 
L 568.53765 310.924286 
L 570.9645 311.976359 
L 573.39135 312.782473 
L 575.8182 314.304637 
L 578.24505 315.205071 
L 580.6719 315.940081 
L 583.09875 316.968048 
L 587.95245 318.451593 
L 590.3793 319.386797 
L 592.80615 320.092672 
L 597.65985 321.929973 
L 600.0867 323.21472 
L 602.51355 324.143536 
L 604.9404 324.858168 
L 614.6478 329.212988 
L 626.78205 333.663137 
L 629.2089 334.287605 
L 631.63575 335.73024 
L 634.0626 336.504281 
L 636.48945 337.668719 
L 641.34315 339.433692 
L 651.05055 344.003669 
L 653.4774 344.858202 
L 668.0385 350.900346 
L 670.46535 352.06274 
L 675.31905 353.985072 
L 677.7459 355.095039 
L 680.17275 355.937072 
L 682.5996 356.561383 
L 692.307 360.947426 
L 699.58755 364.337427 
L 702.0144 365.470234 
L 706.8681 367.099586 
L 719.00235 372.301729 
L 721.4292 373.092916 
L 723.85605 374.077312 
L 728.70975 376.288626 
L 731.1366 377.016331 
L 733.56345 378.163171 
L 738.41715 380.078463 
L 740.844 380.78255 
L 743.27085 381.717659 
L 745.6977 382.936515 
L 748.12455 383.874683 
L 750.5514 384.568979 
L 752.97825 385.759428 
L 757.83195 387.491623 
L 760.2588 388.416591 
L 762.68565 389.627029 
L 765.1125 390.34515 
L 767.53935 391.375678 
L 769.9662 392.576513 
L 774.8199 394.714479 
L 777.24675 396.119267 
L 779.6736 397.187847 
L 782.10045 398.033369 
L 784.5273 399.185224 
L 786.95415 400.204423 
L 789.381 400.958019 
L 791.80785 401.987226 
L 794.2347 402.893232 
L 796.66155 403.976412 
L 799.0884 404.708063 
L 801.51525 405.604692 
L 803.9421 406.169765 
L 806.36895 407.171878 
L 808.7958 407.928512 
L 811.22265 408.81602 
L 813.6495 410.107462 
L 816.07635 410.894577 
L 825.78375 414.844612 
L 828.2106 415.68979 
L 830.63745 416.799149 
L 837.918 419.275886 
L 845.19855 422.206812 
L 847.6254 423.476377 
L 850.05225 424.188406 
L 852.4791 425.338215 
L 854.90595 426.212028 
L 857.3328 427.481768 
L 862.1865 428.909898 
L 867.0402 430.951765 
L 869.46705 432.088262 
L 876.7476 435.171909 
L 879.17445 435.982223 
L 881.6013 436.996916 
L 884.02815 437.715691 
L 886.455 438.663225 
L 888.88185 440.008301 
L 891.3087 440.942538 
L 893.73555 442.09941 
L 896.1624 443.459765 
L 898.58925 444.380373 
L 903.44295 446.448161 
L 908.29665 448.331999 
L 910.7235 449.427285 
L 913.15035 450.089545 
L 915.5772 451.41242 
L 918.00405 452.292549 
L 920.4309 453.411286 
L 932.56515 458.260729 
L 934.992 459.399707 
L 937.41885 460.150883 
L 939.8457 461.297467 
L 942.27255 462.572906 
L 947.12625 464.778486 
L 951.97995 466.444413 
L 954.4068 467.321899 
L 956.83365 468.466057 
L 959.2605 469.329094 
L 966.54105 472.561376 
L 968.9679 473.640879 
L 976.24845 476.526474 
L 978.6753 477.266367 
L 981.10215 478.366069 
L 988.3827 481.274331 
L 990.80955 482.652094 
L 993.2364 483.747469 
L 998.0901 485.526992 
L 1002.9438 487.678723 
L 1005.37065 488.52947 
L 1007.7975 489.530502 
L 1010.22435 490.959996 
L 1015.07805 493.046683 
L 1019.93175 494.860697 
L 1024.78545 496.801659 
L 1027.2123 497.635099 
L 1029.63915 498.684622 
L 1034.49285 499.998567 
L 1036.9197 500.774016 
L 1039.34655 501.918757 
L 1041.7734 502.938486 
L 1044.20025 503.734495 
L 1049.05395 505.932935 
L 1056.3345 508.298052 
L 1058.76135 509.491003 
L 1061.1882 510.33258 
L 1066.0419 512.440022 
L 1068.46875 513.240746 
L 1073.32245 515.361184 
L 1075.7493 516.232102 
L 1083.02985 519.356178 
L 1085.4567 520.151258 
L 1092.73725 522.99776 
L 1095.1641 523.666118 
L 1097.59095 524.843796 
L 1100.0178 525.825488 
L 1104.8715 527.488325 
L 1114.5789 531.303471 
L 1117.00575 532.400819 
L 1119.4326 533.624355 
L 1126.71315 536.571826 
L 1129.14 537.371508 
L 1133.9937 539.408481 
L 1136.42055 540.333249 
L 1138.8474 541.000686 
L 1141.27425 542.072306 
L 1146.12795 543.701305 
L 1150.98165 545.671203 
L 1153.4085 546.932708 
L 1160.68905 549.28758 
L 1163.1159 550.058524 
L 1167.9696 551.920453 
L 1170.39645 552.700248 
L 1172.8233 553.696593 
L 1175.25015 554.830375 
L 1177.677 555.433905 
L 1180.10385 556.640151 
L 1182.5307 557.478478 
L 1184.95755 558.767934 
L 1194.66495 563.106124 
L 1197.0918 563.889986 
L 1209.22605 568.644504 
L 1214.07975 570.538644 
L 1218.93345 572.477374 
L 1221.3603 573.308198 
L 1223.78715 574.400497 
L 1226.214 575.760883 
L 1233.49455 578.79711 
L 1240.7751 581.707756 
L 1243.20195 582.878867 
L 1245.6288 584.418961 
L 1248.05565 585.703953 
L 1250.4825 586.679451 
L 1252.90935 587.785812 
L 1255.3362 588.54276 
L 1257.76305 589.443843 
L 1260.1899 590.085535 
L 1262.61675 591.27184 
L 1265.0436 592.176425 
L 1267.47045 593.315342 
L 1274.751 596.126494 
L 1277.17785 597.191402 
L 1279.6047 597.929701 
L 1286.88525 601.335634 
L 1289.3121 602.382713 
L 1291.73895 603.254929 
L 1294.1658 603.854439 
L 1296.59265 604.860128 
L 1299.0195 606.007672 
L 1306.30005 608.462823 
L 1308.7269 609.332001 
L 1311.15375 610.482465 
L 1316.00745 612.277259 
L 1325.71485 615.673679 
L 1330.56855 617.483324 
L 1332.9954 618.134666 
L 1335.42225 619.426052 
L 1340.27595 621.741138 
L 1342.7028 623.07063 
L 1345.12965 623.81363 
L 1347.5565 624.679871 
L 1354.83705 627.675083 
L 1359.69075 629.223516 
L 1362.1176 630.270208 
L 1369.39815 632.847202 
L 1369.39815 632.847202 
" style="fill:none;stroke:#0000ff;stroke-linecap:square;stroke-width:2.0;"/>
   </g>
   <g id="line2d_2">
    <path clip-path="url(#p14a1621caa)" d="M 158.4 129.720431 
L 160.82685 131.041465 
L 163.2537 132.165529 
L 165.68055 132.911552 
L 168.1074 133.957915 
L 170.53425 135.144824 
L 172.9611 136.092656 
L 175.38795 137.586612 
L 192.3759 145.859536 
L 194.80275 146.72577 
L 197.2296 148.041826 
L 202.0833 150.409656 
L 206.937 152.919476 
L 209.36385 153.87593 
L 211.7907 155.215856 
L 214.21755 156.428575 
L 216.6444 157.785629 
L 219.07125 158.955365 
L 221.4981 160.407666 
L 223.92495 161.472259 
L 228.77865 163.93181 
L 231.2055 164.743444 
L 233.63235 165.932989 
L 236.0592 166.879639 
L 238.48605 168.223442 
L 243.33975 169.908569 
L 245.7666 171.355684 
L 248.19345 172.281521 
L 253.04715 174.428057 
L 255.474 175.553941 
L 257.90085 177.262336 
L 265.1814 180.649924 
L 267.60825 181.526293 
L 270.0351 183.068969 
L 274.8888 185.137475 
L 277.31565 186.83114 
L 282.16935 188.737128 
L 287.02305 191.252363 
L 289.4499 192.068399 
L 294.3036 193.999366 
L 296.73045 195.421123 
L 299.1573 196.664834 
L 301.58415 197.712838 
L 304.011 198.309454 
L 306.43785 199.479706 
L 308.8647 200.135726 
L 311.29155 200.917778 
L 313.7184 202.29759 
L 316.14525 203.144057 
L 320.99895 205.270551 
L 323.4258 206.63242 
L 325.85265 207.695782 
L 328.2795 208.907523 
L 333.1332 210.762964 
L 335.56005 212.26077 
L 337.9869 213.133018 
L 340.41375 214.436368 
L 342.8406 215.2764 
L 345.26745 216.914085 
L 347.6943 217.996413 
L 350.12115 218.801072 
L 352.548 219.747404 
L 354.97485 220.863447 
L 357.4017 222.105512 
L 359.82855 223.018711 
L 362.2554 224.120772 
L 364.68225 224.980334 
L 381.6702 232.432642 
L 384.09705 233.657671 
L 388.95075 235.652051 
L 393.80445 237.446314 
L 396.2313 238.453068 
L 401.085 240.251297 
L 403.51185 241.254867 
L 405.9387 242.069079 
L 413.21925 245.544361 
L 415.6461 246.391997 
L 422.92665 249.83368 
L 430.2072 253.007384 
L 435.0609 254.858775 
L 437.48775 256.046349 
L 439.9146 256.892013 
L 442.34145 258.499215 
L 444.7683 259.34788 
L 447.19515 260.075808 
L 456.90255 263.958221 
L 459.3294 264.810955 
L 466.60995 267.962198 
L 469.0368 269.204468 
L 483.5979 275.206929 
L 486.02475 276.500718 
L 488.4516 277.393756 
L 490.87845 278.474948 
L 493.3053 279.386329 
L 498.159 281.669026 
L 510.29325 285.724131 
L 512.7201 286.697113 
L 515.14695 287.842404 
L 520.00065 290.542134 
L 527.2812 293.344113 
L 529.70805 294.565868 
L 532.1349 295.418921 
L 534.56175 296.440539 
L 536.9886 297.730486 
L 541.8423 299.832276 
L 544.26915 300.700998 
L 546.696 301.308422 
L 549.12285 302.476909 
L 551.5497 303.461306 
L 553.97655 304.170711 
L 556.4034 305.121829 
L 558.83025 306.333777 
L 563.68395 308.146409 
L 566.1108 309.048467 
L 570.9645 311.400112 
L 573.39135 311.999217 
L 587.95245 317.551783 
L 590.3793 318.600245 
L 592.80615 319.459421 
L 595.233 320.178755 
L 597.65985 321.040572 
L 600.0867 322.041146 
L 602.51355 322.792978 
L 604.9404 323.919674 
L 607.36725 324.912207 
L 612.22095 326.542689 
L 614.6478 327.582019 
L 617.07465 328.770742 
L 624.3552 331.194923 
L 631.63575 333.942321 
L 634.0626 334.893164 
L 636.48945 336.195006 
L 638.9163 337.31151 
L 641.34315 338.139477 
L 643.77 339.187409 
L 646.19685 339.880121 
L 648.6237 341.122262 
L 655.90425 344.018123 
L 660.75795 346.154441 
L 665.61165 348.115909 
L 668.0385 348.973448 
L 672.8922 351.054521 
L 675.31905 352.426406 
L 677.7459 353.18729 
L 680.17275 354.163784 
L 682.5996 355.013365 
L 685.02645 356.052359 
L 692.307 359.676032 
L 694.73385 360.803104 
L 699.58755 363.245105 
L 702.0144 364.07777 
L 704.44125 365.062825 
L 706.8681 366.179909 
L 709.29495 366.92694 
L 711.7218 367.793412 
L 714.14865 369.125662 
L 716.5755 369.821217 
L 719.00235 370.636514 
L 723.85605 372.664197 
L 726.2829 373.52589 
L 731.1366 375.446788 
L 735.9903 377.773008 
L 738.41715 378.697238 
L 740.844 379.817548 
L 745.6977 381.667541 
L 748.12455 382.824899 
L 750.5514 384.22154 
L 752.97825 385.218557 
L 755.4051 386.045174 
L 757.83195 387.090311 
L 762.68565 389.653301 
L 772.39305 394.173039 
L 774.8199 394.752723 
L 777.24675 395.574045 
L 779.6736 396.620486 
L 782.10045 397.486925 
L 784.5273 398.747601 
L 789.381 400.802083 
L 796.66155 403.803538 
L 801.51525 405.695614 
L 808.7958 408.455192 
L 813.6495 410.417955 
L 816.07635 411.687932 
L 820.93005 413.592915 
L 825.78375 415.495569 
L 828.2106 416.384259 
L 833.0643 418.672593 
L 835.49115 419.490922 
L 840.34485 421.59949 
L 847.6254 424.258141 
L 850.05225 425.168454 
L 852.4791 426.31575 
L 859.75965 429.243246 
L 862.1865 430.0934 
L 864.61335 431.186622 
L 867.0402 432.147293 
L 869.46705 432.867762 
L 871.8939 433.95147 
L 874.32075 435.294075 
L 876.7476 436.216225 
L 879.17445 436.762878 
L 881.6013 437.563279 
L 888.88185 440.813713 
L 891.3087 441.50396 
L 896.1624 443.405643 
L 898.58925 444.204725 
L 901.0161 445.313372 
L 903.44295 446.14711 
L 905.8698 446.831956 
L 908.29665 448.142086 
L 913.15035 449.622734 
L 925.2846 454.598213 
L 930.1383 456.627168 
L 934.992 458.30697 
L 937.41885 459.59788 
L 939.8457 460.569546 
L 944.6994 462.752768 
L 949.5531 464.553291 
L 951.97995 465.333652 
L 954.4068 466.414781 
L 956.83365 467.232766 
L 966.54105 471.268973 
L 968.9679 472.049838 
L 976.24845 475.051988 
L 981.10215 477.394176 
L 985.95585 479.669713 
L 990.80955 481.453822 
L 993.2364 482.1245 
L 995.66325 482.985681 
L 998.0901 484.142026 
L 1000.51695 484.720304 
L 1002.9438 485.522559 
L 1007.7975 487.344202 
L 1010.22435 488.275347 
L 1012.6512 488.994069 
L 1015.07805 489.902712 
L 1017.5049 491.06698 
L 1019.93175 491.959676 
L 1024.78545 494.149972 
L 1032.066 496.513615 
L 1041.7734 500.080463 
L 1049.05395 502.901366 
L 1051.4808 503.812177 
L 1053.90765 504.602849 
L 1056.3345 505.553577 
L 1058.76135 506.373767 
L 1061.1882 507.68634 
L 1063.61505 508.434974 
L 1070.8956 511.400033 
L 1073.32245 512.344428 
L 1075.7493 513.457447 
L 1078.17615 514.751626 
L 1083.02985 516.577359 
L 1085.4567 517.487734 
L 1087.88355 518.183204 
L 1095.1641 520.790949 
L 1097.59095 521.908608 
L 1102.44465 523.902291 
L 1107.29835 525.584325 
L 1109.7252 526.72798 
L 1114.5789 528.62866 
L 1117.00575 529.343688 
L 1126.71315 533.418276 
L 1129.14 534.172138 
L 1131.56685 535.411345 
L 1133.9937 536.313195 
L 1136.42055 537.409518 
L 1138.8474 538.359049 
L 1141.27425 539.14991 
L 1143.7011 540.109806 
L 1146.12795 541.199344 
L 1148.5548 542.040124 
L 1150.98165 543.21312 
L 1163.1159 548.305319 
L 1170.39645 551.323213 
L 1172.8233 551.995622 
L 1175.25015 553.03041 
L 1180.10385 555.275045 
L 1184.95755 557.055681 
L 1189.81125 559.004851 
L 1194.66495 561.56669 
L 1197.0918 562.648023 
L 1199.51865 563.440543 
L 1201.9455 564.628888 
L 1204.37235 565.432457 
L 1206.7992 566.561755 
L 1209.22605 567.513389 
L 1211.6529 568.304003 
L 1214.07975 569.691765 
L 1216.5066 570.830908 
L 1218.93345 571.830374 
L 1221.3603 572.672165 
L 1223.78715 573.818514 
L 1226.214 574.623479 
L 1228.64085 575.890987 
L 1231.0677 576.593625 
L 1233.49455 577.686141 
L 1238.34825 579.360546 
L 1240.7751 580.451523 
L 1243.20195 581.385888 
L 1248.05565 583.700177 
L 1252.90935 585.647432 
L 1255.3362 586.405063 
L 1260.1899 588.28431 
L 1262.61675 589.084259 
L 1267.47045 591.220251 
L 1272.32415 592.69524 
L 1274.751 593.674409 
L 1277.17785 594.505171 
L 1279.6047 595.615629 
L 1282.03155 596.580876 
L 1284.4584 597.719454 
L 1286.88525 599.232389 
L 1289.3121 600.188065 
L 1291.73895 600.978702 
L 1301.44635 604.757926 
L 1303.8732 606.154229 
L 1306.30005 607.153272 
L 1311.15375 608.739986 
L 1313.5806 609.652233 
L 1316.00745 610.958921 
L 1320.86115 612.82645 
L 1323.288 613.906935 
L 1325.71485 615.134125 
L 1330.56855 616.866415 
L 1332.9954 618.049838 
L 1335.42225 618.923268 
L 1337.8491 619.639815 
L 1340.27595 620.521158 
L 1342.7028 621.638677 
L 1345.12965 622.561379 
L 1349.98335 624.730887 
L 1357.2639 627.92362 
L 1359.69075 629.345385 
L 1362.1176 630.355704 
L 1364.54445 631.211278 
L 1369.39815 633.219493 
L 1369.39815 633.219493 
" style="fill:none;stroke:#008000;stroke-linecap:square;stroke-width:2.0;"/>
   </g>
   <g id="patch_3">
    <path d="M 158.4 51.3 
L 1371.825 51.3 
" style="fill:none;stroke:#000000;stroke-linecap:square;stroke-linejoin:miter;"/>
   </g>
   <g id="patch_4">
    <path d="M 1371.825 747 
L 1371.825 51.3 
" style="fill:none;stroke:#000000;stroke-linecap:square;stroke-linejoin:miter;"/>
   </g>
   <g id="patch_5">
    <path d="M 158.4 747 
L 1371.825 747 
" style="fill:none;stroke:#000000;stroke-linecap:square;stroke-linejoin:miter;"/>
   </g>
   <g id="patch_6">
    <path d="M 158.4 747 
L 158.4 51.3 
" style="fill:none;stroke:#000000;stroke-linecap:square;stroke-linejoin:miter;"/>
   </g>
   <g id="matplotlib.axis_1">
    <g id="xtick_1">
     <g id="line2d_3">
      <defs>
       <path d="M 0 0 
L 0 -4 
" id="mb6599a9bf4" style="stroke:#000000;stroke-width:0.5;"/>
      </defs>
      <g>
       <use style="stroke:#000000;stroke-width:0.5;" x="158.4" xlink:href="#mb6599a9bf4" y="747.0"/>
      </g>
     </g>
     <g id="line2d_4">
      <defs>
       <path d="M 0 0 
L 0 4 
" id="me3148b1005" style="stroke:#000000;stroke-width:0.5;"/>
      </defs>
      <g>
       <use style="stroke:#000000;stroke-width:0.5;" x="158.4" xlink:href="#me3148b1005" y="51.3"/>
      </g>
     </g>
     <g id="text_1">
      <!-- 0 -->
      <defs>
       <path d="M 31.78125 66.40625 
Q 24.171875 66.40625 20.328125 58.90625 
Q 16.5 51.421875 16.5 36.375 
Q 16.5 21.390625 20.328125 13.890625 
Q 24.171875 6.390625 31.78125 6.390625 
Q 39.453125 6.390625 43.28125 13.890625 
Q 47.125 21.390625 47.125 36.375 
Q 47.125 51.421875 43.28125 58.90625 
Q 39.453125 66.40625 31.78125 66.40625 
M 31.78125 74.21875 
Q 44.046875 74.21875 50.515625 64.515625 
Q 56.984375 54.828125 56.984375 36.375 
Q 56.984375 17.96875 50.515625 8.265625 
Q 44.046875 -1.421875 31.78125 -1.421875 
Q 19.53125 -1.421875 13.0625 8.265625 
Q 6.59375 17.96875 6.59375 36.375 
Q 6.59375 54.828125 13.0625 64.515625 
Q 19.53125 74.21875 31.78125 74.21875 
" id="BitstreamVeraSans-Roman-30"/>
      </defs>
      <g transform="translate(148.85625 773.7953125)scale(0.3 -0.3)">
       <use xlink:href="#BitstreamVeraSans-Roman-30"/>
      </g>
     </g>
    </g>
    <g id="xtick_2">
     <g id="line2d_5">
      <g>
       <use style="stroke:#000000;stroke-width:0.5;" x="401.085" xlink:href="#mb6599a9bf4" y="747.0"/>
      </g>
     </g>
     <g id="line2d_6">
      <g>
       <use style="stroke:#000000;stroke-width:0.5;" x="401.085" xlink:href="#me3148b1005" y="51.3"/>
      </g>
     </g>
     <g id="text_2">
      <!-- 100 -->
      <defs>
       <path d="M 12.40625 8.296875 
L 28.515625 8.296875 
L 28.515625 63.921875 
L 10.984375 60.40625 
L 10.984375 69.390625 
L 28.421875 72.90625 
L 38.28125 72.90625 
L 38.28125 8.296875 
L 54.390625 8.296875 
L 54.390625 0 
L 12.40625 0 
z
" id="BitstreamVeraSans-Roman-31"/>
      </defs>
      <g transform="translate(372.45375 773.7953125)scale(0.3 -0.3)">
       <use xlink:href="#BitstreamVeraSans-Roman-31"/>
       <use x="63.623046875" xlink:href="#BitstreamVeraSans-Roman-30"/>
       <use x="127.24609375" xlink:href="#BitstreamVeraSans-Roman-30"/>
      </g>
     </g>
    </g>
    <g id="xtick_3">
     <g id="line2d_7">
      <g>
       <use style="stroke:#000000;stroke-width:0.5;" x="643.77" xlink:href="#mb6599a9bf4" y="747.0"/>
      </g>
     </g>
     <g id="line2d_8">
      <g>
       <use style="stroke:#000000;stroke-width:0.5;" x="643.77" xlink:href="#me3148b1005" y="51.3"/>
      </g>
     </g>
     <g id="text_3">
      <!-- 200 -->
      <defs>
       <path d="M 19.1875 8.296875 
L 53.609375 8.296875 
L 53.609375 0 
L 7.328125 0 
L 7.328125 8.296875 
Q 12.9375 14.109375 22.625 23.890625 
Q 32.328125 33.6875 34.8125 36.53125 
Q 39.546875 41.84375 41.421875 45.53125 
Q 43.3125 49.21875 43.3125 52.78125 
Q 43.3125 58.59375 39.234375 62.25 
Q 35.15625 65.921875 28.609375 65.921875 
Q 23.96875 65.921875 18.8125 64.3125 
Q 13.671875 62.703125 7.8125 59.421875 
L 7.8125 69.390625 
Q 13.765625 71.78125 18.9375 73 
Q 24.125 74.21875 28.421875 74.21875 
Q 39.75 74.21875 46.484375 68.546875 
Q 53.21875 62.890625 53.21875 53.421875 
Q 53.21875 48.921875 51.53125 44.890625 
Q 49.859375 40.875 45.40625 35.40625 
Q 44.1875 33.984375 37.640625 27.21875 
Q 31.109375 20.453125 19.1875 8.296875 
" id="BitstreamVeraSans-Roman-32"/>
      </defs>
      <g transform="translate(615.13875 773.7953125)scale(0.3 -0.3)">
       <use xlink:href="#BitstreamVeraSans-Roman-32"/>
       <use x="63.623046875" xlink:href="#BitstreamVeraSans-Roman-30"/>
       <use x="127.24609375" xlink:href="#BitstreamVeraSans-Roman-30"/>
      </g>
     </g>
    </g>
    <g id="xtick_4">
     <g id="line2d_9">
      <g>
       <use style="stroke:#000000;stroke-width:0.5;" x="886.455" xlink:href="#mb6599a9bf4" y="747.0"/>
      </g>
     </g>
     <g id="line2d_10">
      <g>
       <use style="stroke:#000000;stroke-width:0.5;" x="886.455" xlink:href="#me3148b1005" y="51.3"/>
      </g>
     </g>
     <g id="text_4">
      <!-- 300 -->
      <defs>
       <path d="M 40.578125 39.3125 
Q 47.65625 37.796875 51.625 33 
Q 55.609375 28.21875 55.609375 21.1875 
Q 55.609375 10.40625 48.1875 4.484375 
Q 40.765625 -1.421875 27.09375 -1.421875 
Q 22.515625 -1.421875 17.65625 -0.515625 
Q 12.796875 0.390625 7.625 2.203125 
L 7.625 11.71875 
Q 11.71875 9.328125 16.59375 8.109375 
Q 21.484375 6.890625 26.8125 6.890625 
Q 36.078125 6.890625 40.9375 10.546875 
Q 45.796875 14.203125 45.796875 21.1875 
Q 45.796875 27.640625 41.28125 31.265625 
Q 36.765625 34.90625 28.71875 34.90625 
L 20.21875 34.90625 
L 20.21875 43.015625 
L 29.109375 43.015625 
Q 36.375 43.015625 40.234375 45.921875 
Q 44.09375 48.828125 44.09375 54.296875 
Q 44.09375 59.90625 40.109375 62.90625 
Q 36.140625 65.921875 28.71875 65.921875 
Q 24.65625 65.921875 20.015625 65.03125 
Q 15.375 64.15625 9.8125 62.3125 
L 9.8125 71.09375 
Q 15.4375 72.65625 20.34375 73.4375 
Q 25.25 74.21875 29.59375 74.21875 
Q 40.828125 74.21875 47.359375 69.109375 
Q 53.90625 64.015625 53.90625 55.328125 
Q 53.90625 49.265625 50.4375 45.09375 
Q 46.96875 40.921875 40.578125 39.3125 
" id="BitstreamVeraSans-Roman-33"/>
      </defs>
      <g transform="translate(857.82375 773.7953125)scale(0.3 -0.3)">
       <use xlink:href="#BitstreamVeraSans-Roman-33"/>
       <use x="63.623046875" xlink:href="#BitstreamVeraSans-Roman-30"/>
       <use x="127.24609375" xlink:href="#BitstreamVeraSans-Roman-30"/>
      </g>
     </g>
    </g>
    <g id="xtick_5">
     <g id="line2d_11">
      <g>
       <use style="stroke:#000000;stroke-width:0.5;" x="1129.14" xlink:href="#mb6599a9bf4" y="747.0"/>
      </g>
     </g>
     <g id="line2d_12">
      <g>
       <use style="stroke:#000000;stroke-width:0.5;" x="1129.14" xlink:href="#me3148b1005" y="51.3"/>
      </g>
     </g>
     <g id="text_5">
      <!-- 400 -->
      <defs>
       <path d="M 37.796875 64.3125 
L 12.890625 25.390625 
L 37.796875 25.390625 
z
M 35.203125 72.90625 
L 47.609375 72.90625 
L 47.609375 25.390625 
L 58.015625 25.390625 
L 58.015625 17.1875 
L 47.609375 17.1875 
L 47.609375 0 
L 37.796875 0 
L 37.796875 17.1875 
L 4.890625 17.1875 
L 4.890625 26.703125 
z
" id="BitstreamVeraSans-Roman-34"/>
      </defs>
      <g transform="translate(1100.50875 773.7953125)scale(0.3 -0.3)">
       <use xlink:href="#BitstreamVeraSans-Roman-34"/>
       <use x="63.623046875" xlink:href="#BitstreamVeraSans-Roman-30"/>
       <use x="127.24609375" xlink:href="#BitstreamVeraSans-Roman-30"/>
      </g>
     </g>
    </g>
    <g id="xtick_6">
     <g id="line2d_13">
      <g>
       <use style="stroke:#000000;stroke-width:0.5;" x="1371.825" xlink:href="#mb6599a9bf4" y="747.0"/>
      </g>
     </g>
     <g id="line2d_14">
      <g>
       <use style="stroke:#000000;stroke-width:0.5;" x="1371.825" xlink:href="#me3148b1005" y="51.3"/>
      </g>
     </g>
     <g id="text_6">
      <!-- 500 -->
      <defs>
       <path d="M 10.796875 72.90625 
L 49.515625 72.90625 
L 49.515625 64.59375 
L 19.828125 64.59375 
L 19.828125 46.734375 
Q 21.96875 47.46875 24.109375 47.828125 
Q 26.265625 48.1875 28.421875 48.1875 
Q 40.625 48.1875 47.75 41.5 
Q 54.890625 34.8125 54.890625 23.390625 
Q 54.890625 11.625 47.5625 5.09375 
Q 40.234375 -1.421875 26.90625 -1.421875 
Q 22.3125 -1.421875 17.546875 -0.640625 
Q 12.796875 0.140625 7.71875 1.703125 
L 7.71875 11.625 
Q 12.109375 9.234375 16.796875 8.0625 
Q 21.484375 6.890625 26.703125 6.890625 
Q 35.15625 6.890625 40.078125 11.328125 
Q 45.015625 15.765625 45.015625 23.390625 
Q 45.015625 31 40.078125 35.4375 
Q 35.15625 39.890625 26.703125 39.890625 
Q 22.75 39.890625 18.8125 39.015625 
Q 14.890625 38.140625 10.796875 36.28125 
z
" id="BitstreamVeraSans-Roman-35"/>
      </defs>
      <g transform="translate(1343.19375 773.7953125)scale(0.3 -0.3)">
       <use xlink:href="#BitstreamVeraSans-Roman-35"/>
       <use x="63.623046875" xlink:href="#BitstreamVeraSans-Roman-30"/>
       <use x="127.24609375" xlink:href="#BitstreamVeraSans-Roman-30"/>
      </g>
     </g>
    </g>
    <g id="text_7">
     <!-- iterations -->
     <defs>
      <path d="M 54.890625 33.015625 
L 54.890625 0 
L 45.90625 0 
L 45.90625 32.71875 
Q 45.90625 40.484375 42.875 44.328125 
Q 39.84375 48.1875 33.796875 48.1875 
Q 26.515625 48.1875 22.3125 43.546875 
Q 18.109375 38.921875 18.109375 30.90625 
L 18.109375 0 
L 9.078125 0 
L 9.078125 54.6875 
L 18.109375 54.6875 
L 18.109375 46.1875 
Q 21.34375 51.125 25.703125 53.5625 
Q 30.078125 56 35.796875 56 
Q 45.21875 56 50.046875 50.171875 
Q 54.890625 44.34375 54.890625 33.015625 
" id="BitstreamVeraSans-Roman-6e"/>
      <path d="M 34.28125 27.484375 
Q 23.390625 27.484375 19.1875 25 
Q 14.984375 22.515625 14.984375 16.5 
Q 14.984375 11.71875 18.140625 8.90625 
Q 21.296875 6.109375 26.703125 6.109375 
Q 34.1875 6.109375 38.703125 11.40625 
Q 43.21875 16.703125 43.21875 25.484375 
L 43.21875 27.484375 
z
M 52.203125 31.203125 
L 52.203125 0 
L 43.21875 0 
L 43.21875 8.296875 
Q 40.140625 3.328125 35.546875 0.953125 
Q 30.953125 -1.421875 24.3125 -1.421875 
Q 15.921875 -1.421875 10.953125 3.296875 
Q 6 8.015625 6 15.921875 
Q 6 25.140625 12.171875 29.828125 
Q 18.359375 34.515625 30.609375 34.515625 
L 43.21875 34.515625 
L 43.21875 35.40625 
Q 43.21875 41.609375 39.140625 45 
Q 35.0625 48.390625 27.6875 48.390625 
Q 23 48.390625 18.546875 47.265625 
Q 14.109375 46.140625 10.015625 43.890625 
L 10.015625 52.203125 
Q 14.9375 54.109375 19.578125 55.046875 
Q 24.21875 56 28.609375 56 
Q 40.484375 56 46.34375 49.84375 
Q 52.203125 43.703125 52.203125 31.203125 
" id="BitstreamVeraSans-Roman-61"/>
      <path d="M 30.609375 48.390625 
Q 23.390625 48.390625 19.1875 42.75 
Q 14.984375 37.109375 14.984375 27.296875 
Q 14.984375 17.484375 19.15625 11.84375 
Q 23.34375 6.203125 30.609375 6.203125 
Q 37.796875 6.203125 41.984375 11.859375 
Q 46.1875 17.53125 46.1875 27.296875 
Q 46.1875 37.015625 41.984375 42.703125 
Q 37.796875 48.390625 30.609375 48.390625 
M 30.609375 56 
Q 42.328125 56 49.015625 48.375 
Q 55.71875 40.765625 55.71875 27.296875 
Q 55.71875 13.875 49.015625 6.21875 
Q 42.328125 -1.421875 30.609375 -1.421875 
Q 18.84375 -1.421875 12.171875 6.21875 
Q 5.515625 13.875 5.515625 27.296875 
Q 5.515625 40.765625 12.171875 48.375 
Q 18.84375 56 30.609375 56 
" id="BitstreamVeraSans-Roman-6f"/>
      <path d="M 9.421875 54.6875 
L 18.40625 54.6875 
L 18.40625 0 
L 9.421875 0 
z
M 9.421875 75.984375 
L 18.40625 75.984375 
L 18.40625 64.59375 
L 9.421875 64.59375 
z
" id="BitstreamVeraSans-Roman-69"/>
      <path d="M 56.203125 29.59375 
L 56.203125 25.203125 
L 14.890625 25.203125 
Q 15.484375 15.921875 20.484375 11.0625 
Q 25.484375 6.203125 34.421875 6.203125 
Q 39.59375 6.203125 44.453125 7.46875 
Q 49.3125 8.734375 54.109375 11.28125 
L 54.109375 2.78125 
Q 49.265625 0.734375 44.1875 -0.34375 
Q 39.109375 -1.421875 33.890625 -1.421875 
Q 20.796875 -1.421875 13.15625 6.1875 
Q 5.515625 13.8125 5.515625 26.8125 
Q 5.515625 40.234375 12.765625 48.109375 
Q 20.015625 56 32.328125 56 
Q 43.359375 56 49.78125 48.890625 
Q 56.203125 41.796875 56.203125 29.59375 
M 47.21875 32.234375 
Q 47.125 39.59375 43.09375 43.984375 
Q 39.0625 48.390625 32.421875 48.390625 
Q 24.90625 48.390625 20.390625 44.140625 
Q 15.875 39.890625 15.1875 32.171875 
z
" id="BitstreamVeraSans-Roman-65"/>
      <path d="M 18.3125 70.21875 
L 18.3125 54.6875 
L 36.8125 54.6875 
L 36.8125 47.703125 
L 18.3125 47.703125 
L 18.3125 18.015625 
Q 18.3125 11.328125 20.140625 9.421875 
Q 21.96875 7.515625 27.59375 7.515625 
L 36.8125 7.515625 
L 36.8125 0 
L 27.59375 0 
Q 17.1875 0 13.234375 3.875 
Q 9.28125 7.765625 9.28125 18.015625 
L 9.28125 47.703125 
L 2.6875 47.703125 
L 2.6875 54.6875 
L 9.28125 54.6875 
L 9.28125 70.21875 
z
" id="BitstreamVeraSans-Roman-74"/>
      <path d="M 41.109375 46.296875 
Q 39.59375 47.171875 37.8125 47.578125 
Q 36.03125 48 33.890625 48 
Q 26.265625 48 22.1875 43.046875 
Q 18.109375 38.09375 18.109375 28.8125 
L 18.109375 0 
L 9.078125 0 
L 9.078125 54.6875 
L 18.109375 54.6875 
L 18.109375 46.1875 
Q 20.953125 51.171875 25.484375 53.578125 
Q 30.03125 56 36.53125 56 
Q 37.453125 56 38.578125 55.875 
Q 39.703125 55.765625 41.0625 55.515625 
z
" id="BitstreamVeraSans-Roman-72"/>
      <path d="M 44.28125 53.078125 
L 44.28125 44.578125 
Q 40.484375 46.53125 36.375 47.5 
Q 32.28125 48.484375 27.875 48.484375 
Q 21.1875 48.484375 17.84375 46.4375 
Q 14.5 44.390625 14.5 40.28125 
Q 14.5 37.15625 16.890625 35.375 
Q 19.28125 33.59375 26.515625 31.984375 
L 29.59375 31.296875 
Q 39.15625 29.25 43.1875 25.515625 
Q 47.21875 21.78125 47.21875 15.09375 
Q 47.21875 7.46875 41.1875 3.015625 
Q 35.15625 -1.421875 24.609375 -1.421875 
Q 20.21875 -1.421875 15.453125 -0.5625 
Q 10.6875 0.296875 5.421875 2 
L 5.421875 11.28125 
Q 10.40625 8.6875 15.234375 7.390625 
Q 20.0625 6.109375 24.8125 6.109375 
Q 31.15625 6.109375 34.5625 8.28125 
Q 37.984375 10.453125 37.984375 14.40625 
Q 37.984375 18.0625 35.515625 20.015625 
Q 33.0625 21.96875 24.703125 23.78125 
L 21.578125 24.515625 
Q 13.234375 26.265625 9.515625 29.90625 
Q 5.8125 33.546875 5.8125 39.890625 
Q 5.8125 47.609375 11.28125 51.796875 
Q 16.75 56 26.8125 56 
Q 31.78125 56 36.171875 55.265625 
Q 40.578125 54.546875 44.28125 53.078125 
" id="BitstreamVeraSans-Roman-73"/>
     </defs>
     <g transform="translate(693.93046875 807.8296875)scale(0.3 -0.3)">
      <use xlink:href="#BitstreamVeraSans-Roman-69"/>
      <use x="27.783203125" xlink:href="#BitstreamVeraSans-Roman-74"/>
      <use x="66.9921875" xlink:href="#BitstreamVeraSans-Roman-65"/>
      <use x="128.515625" xlink:href="#BitstreamVeraSans-Roman-72"/>
      <use x="169.62890625" xlink:href="#BitstreamVeraSans-Roman-61"/>
      <use x="230.908203125" xlink:href="#BitstreamVeraSans-Roman-74"/>
      <use x="270.1171875" xlink:href="#BitstreamVeraSans-Roman-69"/>
      <use x="297.900390625" xlink:href="#BitstreamVeraSans-Roman-6f"/>
      <use x="359.08203125" xlink:href="#BitstreamVeraSans-Roman-6e"/>
      <use x="422.4609375" xlink:href="#BitstreamVeraSans-Roman-73"/>
     </g>
    </g>
   </g>
   <g id="matplotlib.axis_2">
    <g id="ytick_1">
     <g id="line2d_15">
      <defs>
       <path d="M 0 0 
L 4 0 
" id="mf04e1c0698" style="stroke:#000000;stroke-width:0.5;"/>
      </defs>
      <g>
       <use style="stroke:#000000;stroke-width:0.5;" x="158.4" xlink:href="#mf04e1c0698" y="747.0"/>
      </g>
     </g>
     <g id="line2d_16">
      <defs>
       <path d="M 0 0 
L -4 0 
" id="m9327e8b4b0" style="stroke:#000000;stroke-width:0.5;"/>
      </defs>
      <g>
       <use style="stroke:#000000;stroke-width:0.5;" x="1371.825" xlink:href="#m9327e8b4b0" y="747.0"/>
      </g>
     </g>
     <g id="text_8">
      <!-- −40 -->
      <defs>
       <path d="M 10.59375 35.5 
L 73.1875 35.5 
L 73.1875 27.203125 
L 10.59375 27.203125 
z
" id="BitstreamVeraSans-Roman-2212"/>
      </defs>
      <g transform="translate(91.0859375 755.278125)scale(0.3 -0.3)">
       <use xlink:href="#BitstreamVeraSans-Roman-2212"/>
       <use x="83.7890625" xlink:href="#BitstreamVeraSans-Roman-34"/>
       <use x="147.412109375" xlink:href="#BitstreamVeraSans-Roman-30"/>
      </g>
     </g>
    </g>
    <g id="ytick_2">
     <g id="line2d_17">
      <g>
       <use style="stroke:#000000;stroke-width:0.5;" x="158.4" xlink:href="#mf04e1c0698" y="631.05"/>
      </g>
     </g>
     <g id="line2d_18">
      <g>
       <use style="stroke:#000000;stroke-width:0.5;" x="1371.825" xlink:href="#m9327e8b4b0" y="631.05"/>
      </g>
     </g>
     <g id="text_9">
      <!-- −30 -->
      <g transform="translate(91.0859375 639.328125)scale(0.3 -0.3)">
       <use xlink:href="#BitstreamVeraSans-Roman-2212"/>
       <use x="83.7890625" xlink:href="#BitstreamVeraSans-Roman-33"/>
       <use x="147.412109375" xlink:href="#BitstreamVeraSans-Roman-30"/>
      </g>
     </g>
    </g>
    <g id="ytick_3">
     <g id="line2d_19">
      <g>
       <use style="stroke:#000000;stroke-width:0.5;" x="158.4" xlink:href="#mf04e1c0698" y="515.1"/>
      </g>
     </g>
     <g id="line2d_20">
      <g>
       <use style="stroke:#000000;stroke-width:0.5;" x="1371.825" xlink:href="#m9327e8b4b0" y="515.1"/>
      </g>
     </g>
     <g id="text_10">
      <!-- −20 -->
      <g transform="translate(91.0859375 523.378125)scale(0.3 -0.3)">
       <use xlink:href="#BitstreamVeraSans-Roman-2212"/>
       <use x="83.7890625" xlink:href="#BitstreamVeraSans-Roman-32"/>
       <use x="147.412109375" xlink:href="#BitstreamVeraSans-Roman-30"/>
      </g>
     </g>
    </g>
    <g id="ytick_4">
     <g id="line2d_21">
      <g>
       <use style="stroke:#000000;stroke-width:0.5;" x="158.4" xlink:href="#mf04e1c0698" y="399.15"/>
      </g>
     </g>
     <g id="line2d_22">
      <g>
       <use style="stroke:#000000;stroke-width:0.5;" x="1371.825" xlink:href="#m9327e8b4b0" y="399.15"/>
      </g>
     </g>
     <g id="text_11">
      <!-- −10 -->
      <g transform="translate(91.0859375 407.428125)scale(0.3 -0.3)">
       <use xlink:href="#BitstreamVeraSans-Roman-2212"/>
       <use x="83.7890625" xlink:href="#BitstreamVeraSans-Roman-31"/>
       <use x="147.412109375" xlink:href="#BitstreamVeraSans-Roman-30"/>
      </g>
     </g>
    </g>
    <g id="ytick_5">
     <g id="line2d_23">
      <g>
       <use style="stroke:#000000;stroke-width:0.5;" x="158.4" xlink:href="#mf04e1c0698" y="283.2"/>
      </g>
     </g>
     <g id="line2d_24">
      <g>
       <use style="stroke:#000000;stroke-width:0.5;" x="1371.825" xlink:href="#m9327e8b4b0" y="283.2"/>
      </g>
     </g>
     <g id="text_12">
      <!-- 0 -->
      <g transform="translate(135.3125 291.478125)scale(0.3 -0.3)">
       <use xlink:href="#BitstreamVeraSans-Roman-30"/>
      </g>
     </g>
    </g>
    <g id="ytick_6">
     <g id="line2d_25">
      <g>
       <use style="stroke:#000000;stroke-width:0.5;" x="158.4" xlink:href="#mf04e1c0698" y="167.25"/>
      </g>
     </g>
     <g id="line2d_26">
      <g>
       <use style="stroke:#000000;stroke-width:0.5;" x="1371.825" xlink:href="#m9327e8b4b0" y="167.25"/>
      </g>
     </g>
     <g id="text_13">
      <!-- 10 -->
      <g transform="translate(116.225 175.528125)scale(0.3 -0.3)">
       <use xlink:href="#BitstreamVeraSans-Roman-31"/>
       <use x="63.623046875" xlink:href="#BitstreamVeraSans-Roman-30"/>
      </g>
     </g>
    </g>
    <g id="ytick_7">
     <g id="line2d_27">
      <g>
       <use style="stroke:#000000;stroke-width:0.5;" x="158.4" xlink:href="#mf04e1c0698" y="51.3"/>
      </g>
     </g>
     <g id="line2d_28">
      <g>
       <use style="stroke:#000000;stroke-width:0.5;" x="1371.825" xlink:href="#m9327e8b4b0" y="51.3"/>
      </g>
     </g>
     <g id="text_14">
      <!-- 20 -->
      <g transform="translate(116.225 59.578125)scale(0.3 -0.3)">
       <use xlink:href="#BitstreamVeraSans-Roman-32"/>
       <use x="63.623046875" xlink:href="#BitstreamVeraSans-Roman-30"/>
      </g>
     </g>
    </g>
    <g id="text_15">
     <!-- log(loss) -->
     <defs>
      <path d="M 8.015625 75.875 
L 15.828125 75.875 
Q 23.140625 64.359375 26.78125 53.3125 
Q 30.421875 42.28125 30.421875 31.390625 
Q 30.421875 20.453125 26.78125 9.375 
Q 23.140625 -1.703125 15.828125 -13.1875 
L 8.015625 -13.1875 
Q 14.5 -2 17.703125 9.0625 
Q 20.90625 20.125 20.90625 31.390625 
Q 20.90625 42.671875 17.703125 53.65625 
Q 14.5 64.65625 8.015625 75.875 
" id="BitstreamVeraSans-Roman-29"/>
      <path d="M 31 75.875 
Q 24.46875 64.65625 21.28125 53.65625 
Q 18.109375 42.671875 18.109375 31.390625 
Q 18.109375 20.125 21.3125 9.0625 
Q 24.515625 -2 31 -13.1875 
L 23.1875 -13.1875 
Q 15.875 -1.703125 12.234375 9.375 
Q 8.59375 20.453125 8.59375 31.390625 
Q 8.59375 42.28125 12.203125 53.3125 
Q 15.828125 64.359375 23.1875 75.875 
z
" id="BitstreamVeraSans-Roman-28"/>
      <path d="M 45.40625 27.984375 
Q 45.40625 37.75 41.375 43.109375 
Q 37.359375 48.484375 30.078125 48.484375 
Q 22.859375 48.484375 18.828125 43.109375 
Q 14.796875 37.75 14.796875 27.984375 
Q 14.796875 18.265625 18.828125 12.890625 
Q 22.859375 7.515625 30.078125 7.515625 
Q 37.359375 7.515625 41.375 12.890625 
Q 45.40625 18.265625 45.40625 27.984375 
M 54.390625 6.78125 
Q 54.390625 -7.171875 48.1875 -13.984375 
Q 42 -20.796875 29.203125 -20.796875 
Q 24.46875 -20.796875 20.265625 -20.09375 
Q 16.0625 -19.390625 12.109375 -17.921875 
L 12.109375 -9.1875 
Q 16.0625 -11.328125 19.921875 -12.34375 
Q 23.78125 -13.375 27.78125 -13.375 
Q 36.625 -13.375 41.015625 -8.765625 
Q 45.40625 -4.15625 45.40625 5.171875 
L 45.40625 9.625 
Q 42.625 4.78125 38.28125 2.390625 
Q 33.9375 0 27.875 0 
Q 17.828125 0 11.671875 7.65625 
Q 5.515625 15.328125 5.515625 27.984375 
Q 5.515625 40.671875 11.671875 48.328125 
Q 17.828125 56 27.875 56 
Q 33.9375 56 38.28125 53.609375 
Q 42.625 51.21875 45.40625 46.390625 
L 45.40625 54.6875 
L 54.390625 54.6875 
z
" id="BitstreamVeraSans-Roman-67"/>
      <path d="M 9.421875 75.984375 
L 18.40625 75.984375 
L 18.40625 0 
L 9.421875 0 
z
" id="BitstreamVeraSans-Roman-6c"/>
     </defs>
     <g transform="translate(79.846875 462.69609375)rotate(-90.0)scale(0.3 -0.3)">
      <use xlink:href="#BitstreamVeraSans-Roman-6c"/>
      <use x="27.783203125" xlink:href="#BitstreamVeraSans-Roman-6f"/>
      <use x="88.96484375" xlink:href="#BitstreamVeraSans-Roman-67"/>
      <use x="152.44140625" xlink:href="#BitstreamVeraSans-Roman-28"/>
      <use x="191.455078125" xlink:href="#BitstreamVeraSans-Roman-6c"/>
      <use x="219.23828125" xlink:href="#BitstreamVeraSans-Roman-6f"/>
      <use x="280.419921875" xlink:href="#BitstreamVeraSans-Roman-73"/>
      <use x="332.51953125" xlink:href="#BitstreamVeraSans-Roman-73"/>
      <use x="384.619140625" xlink:href="#BitstreamVeraSans-Roman-29"/>
     </g>
    </g>
   </g>
   <g id="legend_1">
    <g id="patch_7">
     <path d="M 879.651562 163.36875 
L 1356.825 163.36875 
L 1356.825 66.3 
L 879.651562 66.3 
z
" style="fill:#ffffff;stroke:#000000;stroke-linejoin:miter;"/>
    </g>
    <g id="line2d_29">
     <path d="M 900.651562 90.595312 
L 942.651562 90.595312 
" style="fill:none;stroke:#0000ff;stroke-linecap:square;stroke-width:2.0;"/>
    </g>
    <g id="line2d_30"/>
    <g id="text_16">
     <!-- random: step=0.004893 -->
     <defs>
      <path id="BitstreamVeraSans-Roman-20"/>
      <path d="M 52 44.1875 
Q 55.375 50.25 60.0625 53.125 
Q 64.75 56 71.09375 56 
Q 79.640625 56 84.28125 50.015625 
Q 88.921875 44.046875 88.921875 33.015625 
L 88.921875 0 
L 79.890625 0 
L 79.890625 32.71875 
Q 79.890625 40.578125 77.09375 44.375 
Q 74.3125 48.1875 68.609375 48.1875 
Q 61.625 48.1875 57.5625 43.546875 
Q 53.515625 38.921875 53.515625 30.90625 
L 53.515625 0 
L 44.484375 0 
L 44.484375 32.71875 
Q 44.484375 40.625 41.703125 44.40625 
Q 38.921875 48.1875 33.109375 48.1875 
Q 26.21875 48.1875 22.15625 43.53125 
Q 18.109375 38.875 18.109375 30.90625 
L 18.109375 0 
L 9.078125 0 
L 9.078125 54.6875 
L 18.109375 54.6875 
L 18.109375 46.1875 
Q 21.1875 51.21875 25.484375 53.609375 
Q 29.78125 56 35.6875 56 
Q 41.65625 56 45.828125 52.96875 
Q 50 49.953125 52 44.1875 
" id="BitstreamVeraSans-Roman-6d"/>
      <path d="M 31.78125 34.625 
Q 24.75 34.625 20.71875 30.859375 
Q 16.703125 27.09375 16.703125 20.515625 
Q 16.703125 13.921875 20.71875 10.15625 
Q 24.75 6.390625 31.78125 6.390625 
Q 38.8125 6.390625 42.859375 10.171875 
Q 46.921875 13.96875 46.921875 20.515625 
Q 46.921875 27.09375 42.890625 30.859375 
Q 38.875 34.625 31.78125 34.625 
M 21.921875 38.8125 
Q 15.578125 40.375 12.03125 44.71875 
Q 8.5 49.078125 8.5 55.328125 
Q 8.5 64.0625 14.71875 69.140625 
Q 20.953125 74.21875 31.78125 74.21875 
Q 42.671875 74.21875 48.875 69.140625 
Q 55.078125 64.0625 55.078125 55.328125 
Q 55.078125 49.078125 51.53125 44.71875 
Q 48 40.375 41.703125 38.8125 
Q 48.828125 37.15625 52.796875 32.3125 
Q 56.78125 27.484375 56.78125 20.515625 
Q 56.78125 9.90625 50.3125 4.234375 
Q 43.84375 -1.421875 31.78125 -1.421875 
Q 19.734375 -1.421875 13.25 4.234375 
Q 6.78125 9.90625 6.78125 20.515625 
Q 6.78125 27.484375 10.78125 32.3125 
Q 14.796875 37.15625 21.921875 38.8125 
M 18.3125 54.390625 
Q 18.3125 48.734375 21.84375 45.5625 
Q 25.390625 42.390625 31.78125 42.390625 
Q 38.140625 42.390625 41.71875 45.5625 
Q 45.3125 48.734375 45.3125 54.390625 
Q 45.3125 60.0625 41.71875 63.234375 
Q 38.140625 66.40625 31.78125 66.40625 
Q 25.390625 66.40625 21.84375 63.234375 
Q 18.3125 60.0625 18.3125 54.390625 
" id="BitstreamVeraSans-Roman-38"/>
      <path d="M 10.984375 1.515625 
L 10.984375 10.5 
Q 14.703125 8.734375 18.5 7.8125 
Q 22.3125 6.890625 25.984375 6.890625 
Q 35.75 6.890625 40.890625 13.453125 
Q 46.046875 20.015625 46.78125 33.40625 
Q 43.953125 29.203125 39.59375 26.953125 
Q 35.25 24.703125 29.984375 24.703125 
Q 19.046875 24.703125 12.671875 31.3125 
Q 6.296875 37.9375 6.296875 49.421875 
Q 6.296875 60.640625 12.9375 67.421875 
Q 19.578125 74.21875 30.609375 74.21875 
Q 43.265625 74.21875 49.921875 64.515625 
Q 56.59375 54.828125 56.59375 36.375 
Q 56.59375 19.140625 48.40625 8.859375 
Q 40.234375 -1.421875 26.421875 -1.421875 
Q 22.703125 -1.421875 18.890625 -0.6875 
Q 15.09375 0.046875 10.984375 1.515625 
M 30.609375 32.421875 
Q 37.25 32.421875 41.125 36.953125 
Q 45.015625 41.5 45.015625 49.421875 
Q 45.015625 57.28125 41.125 61.84375 
Q 37.25 66.40625 30.609375 66.40625 
Q 23.96875 66.40625 20.09375 61.84375 
Q 16.21875 57.28125 16.21875 49.421875 
Q 16.21875 41.5 20.09375 36.953125 
Q 23.96875 32.421875 30.609375 32.421875 
" id="BitstreamVeraSans-Roman-39"/>
      <path d="M 11.71875 12.40625 
L 22.015625 12.40625 
L 22.015625 0 
L 11.71875 0 
z
M 11.71875 51.703125 
L 22.015625 51.703125 
L 22.015625 39.3125 
L 11.71875 39.3125 
z
" id="BitstreamVeraSans-Roman-3a"/>
      <path d="M 10.6875 12.40625 
L 21 12.40625 
L 21 0 
L 10.6875 0 
z
" id="BitstreamVeraSans-Roman-2e"/>
      <path d="M 10.59375 45.40625 
L 73.1875 45.40625 
L 73.1875 37.203125 
L 10.59375 37.203125 
z
M 10.59375 25.484375 
L 73.1875 25.484375 
L 73.1875 17.1875 
L 10.59375 17.1875 
z
" id="BitstreamVeraSans-Roman-3d"/>
      <path d="M 45.40625 46.390625 
L 45.40625 75.984375 
L 54.390625 75.984375 
L 54.390625 0 
L 45.40625 0 
L 45.40625 8.203125 
Q 42.578125 3.328125 38.25 0.953125 
Q 33.9375 -1.421875 27.875 -1.421875 
Q 17.96875 -1.421875 11.734375 6.484375 
Q 5.515625 14.40625 5.515625 27.296875 
Q 5.515625 40.1875 11.734375 48.09375 
Q 17.96875 56 27.875 56 
Q 33.9375 56 38.25 53.625 
Q 42.578125 51.265625 45.40625 46.390625 
M 14.796875 27.296875 
Q 14.796875 17.390625 18.875 11.75 
Q 22.953125 6.109375 30.078125 6.109375 
Q 37.203125 6.109375 41.296875 11.75 
Q 45.40625 17.390625 45.40625 27.296875 
Q 45.40625 37.203125 41.296875 42.84375 
Q 37.203125 48.484375 30.078125 48.484375 
Q 22.953125 48.484375 18.875 42.84375 
Q 14.796875 37.203125 14.796875 27.296875 
" id="BitstreamVeraSans-Roman-64"/>
      <path d="M 18.109375 8.203125 
L 18.109375 -20.796875 
L 9.078125 -20.796875 
L 9.078125 54.6875 
L 18.109375 54.6875 
L 18.109375 46.390625 
Q 20.953125 51.265625 25.265625 53.625 
Q 29.59375 56 35.59375 56 
Q 45.5625 56 51.78125 48.09375 
Q 58.015625 40.1875 58.015625 27.296875 
Q 58.015625 14.40625 51.78125 6.484375 
Q 45.5625 -1.421875 35.59375 -1.421875 
Q 29.59375 -1.421875 25.265625 0.953125 
Q 20.953125 3.328125 18.109375 8.203125 
M 48.6875 27.296875 
Q 48.6875 37.203125 44.609375 42.84375 
Q 40.53125 48.484375 33.40625 48.484375 
Q 26.265625 48.484375 22.1875 42.84375 
Q 18.109375 37.203125 18.109375 27.296875 
Q 18.109375 17.390625 22.1875 11.75 
Q 26.265625 6.109375 33.40625 6.109375 
Q 40.53125 6.109375 44.609375 11.75 
Q 48.6875 17.390625 48.6875 27.296875 
" id="BitstreamVeraSans-Roman-70"/>
     </defs>
     <g transform="translate(975.6515625 101.0953125)scale(0.3 -0.3)">
      <use xlink:href="#BitstreamVeraSans-Roman-72"/>
      <use x="41.11328125" xlink:href="#BitstreamVeraSans-Roman-61"/>
      <use x="102.392578125" xlink:href="#BitstreamVeraSans-Roman-6e"/>
      <use x="165.771484375" xlink:href="#BitstreamVeraSans-Roman-64"/>
      <use x="229.248046875" xlink:href="#BitstreamVeraSans-Roman-6f"/>
      <use x="290.4296875" xlink:href="#BitstreamVeraSans-Roman-6d"/>
      <use x="387.841796875" xlink:href="#BitstreamVeraSans-Roman-3a"/>
      <use x="421.533203125" xlink:href="#BitstreamVeraSans-Roman-20"/>
      <use x="453.3203125" xlink:href="#BitstreamVeraSans-Roman-73"/>
      <use x="505.419921875" xlink:href="#BitstreamVeraSans-Roman-74"/>
      <use x="544.62890625" xlink:href="#BitstreamVeraSans-Roman-65"/>
      <use x="606.15234375" xlink:href="#BitstreamVeraSans-Roman-70"/>
      <use x="669.62890625" xlink:href="#BitstreamVeraSans-Roman-3d"/>
      <use x="753.41796875" xlink:href="#BitstreamVeraSans-Roman-30"/>
      <use x="817.041015625" xlink:href="#BitstreamVeraSans-Roman-2e"/>
      <use x="848.828125" xlink:href="#BitstreamVeraSans-Roman-30"/>
      <use x="912.451171875" xlink:href="#BitstreamVeraSans-Roman-30"/>
      <use x="976.07421875" xlink:href="#BitstreamVeraSans-Roman-34"/>
      <use x="1039.69726562" xlink:href="#BitstreamVeraSans-Roman-38"/>
      <use x="1103.3203125" xlink:href="#BitstreamVeraSans-Roman-39"/>
      <use x="1166.94335938" xlink:href="#BitstreamVeraSans-Roman-33"/>
     </g>
    </g>
    <g id="line2d_31">
     <path d="M 900.651562 134.629687 
L 942.651562 134.629687 
" style="fill:none;stroke:#008000;stroke-linecap:square;stroke-width:2.0;"/>
    </g>
    <g id="line2d_32"/>
    <g id="text_17">
     <!-- corr: step=0.004893 -->
     <defs>
      <path d="M 48.78125 52.59375 
L 48.78125 44.1875 
Q 44.96875 46.296875 41.140625 47.34375 
Q 37.3125 48.390625 33.40625 48.390625 
Q 24.65625 48.390625 19.8125 42.84375 
Q 14.984375 37.3125 14.984375 27.296875 
Q 14.984375 17.28125 19.8125 11.734375 
Q 24.65625 6.203125 33.40625 6.203125 
Q 37.3125 6.203125 41.140625 7.25 
Q 44.96875 8.296875 48.78125 10.40625 
L 48.78125 2.09375 
Q 45.015625 0.34375 40.984375 -0.53125 
Q 36.96875 -1.421875 32.421875 -1.421875 
Q 20.0625 -1.421875 12.78125 6.34375 
Q 5.515625 14.109375 5.515625 27.296875 
Q 5.515625 40.671875 12.859375 48.328125 
Q 20.21875 56 33.015625 56 
Q 37.15625 56 41.109375 55.140625 
Q 45.0625 54.296875 48.78125 52.59375 
" id="BitstreamVeraSans-Roman-63"/>
     </defs>
     <g transform="translate(975.6515625 145.1296875)scale(0.3 -0.3)">
      <use xlink:href="#BitstreamVeraSans-Roman-63"/>
      <use x="54.98046875" xlink:href="#BitstreamVeraSans-Roman-6f"/>
      <use x="116.162109375" xlink:href="#BitstreamVeraSans-Roman-72"/>
      <use x="157.259765625" xlink:href="#BitstreamVeraSans-Roman-72"/>
      <use x="198.357421875" xlink:href="#BitstreamVeraSans-Roman-3a"/>
      <use x="232.048828125" xlink:href="#BitstreamVeraSans-Roman-20"/>
      <use x="263.8359375" xlink:href="#BitstreamVeraSans-Roman-73"/>
      <use x="315.935546875" xlink:href="#BitstreamVeraSans-Roman-74"/>
      <use x="355.14453125" xlink:href="#BitstreamVeraSans-Roman-65"/>
      <use x="416.66796875" xlink:href="#BitstreamVeraSans-Roman-70"/>
      <use x="480.14453125" xlink:href="#BitstreamVeraSans-Roman-3d"/>
      <use x="563.93359375" xlink:href="#BitstreamVeraSans-Roman-30"/>
      <use x="627.556640625" xlink:href="#BitstreamVeraSans-Roman-2e"/>
      <use x="659.34375" xlink:href="#BitstreamVeraSans-Roman-30"/>
      <use x="722.966796875" xlink:href="#BitstreamVeraSans-Roman-30"/>
      <use x="786.58984375" xlink:href="#BitstreamVeraSans-Roman-34"/>
      <use x="850.212890625" xlink:href="#BitstreamVeraSans-Roman-38"/>
      <use x="913.8359375" xlink:href="#BitstreamVeraSans-Roman-39"/>
      <use x="977.458984375" xlink:href="#BitstreamVeraSans-Roman-33"/>
     </g>
    </g>
   </g>
  </g>
 </g>
 <defs>
  <clipPath id="p14a1621caa">
   <rect height="695.7" width="1213.425" x="158.4" y="51.3"/>
  </clipPath>
 </defs>
</svg>
