<?xml version="1.0" encoding="utf-8" standalone="no"?>
<!DOCTYPE svg PUBLIC "-//W3C//DTD SVG 1.1//EN"
  "http://www.w3.org/Graphics/SVG/1.1/DTD/svg11.dtd">
<!-- Created with matplotlib (http://matplotlib.org/) -->
<svg height="864pt" version="1.1" viewBox="0 0 1440 864" width="1440pt" xmlns="http://www.w3.org/2000/svg" xmlns:xlink="http://www.w3.org/1999/xlink">
 <defs>
  <style type="text/css">
*{stroke-linecap:butt;stroke-linejoin:round;stroke-miterlimit:100000;}
  </style>
 </defs>
 <g id="figure_1">
  <g id="patch_1">
   <path d="M 0 864 
L 1440 864 
L 1440 0 
L 0 0 
z
" style="fill:#ffffff;"/>
  </g>
  <g id="axes_1">
   <g id="patch_2">
    <path d="M 70.7575 770.338125 
L 1381.831875 770.338125 
L 1381.831875 57.915781 
L 70.7575 57.915781 
z
" style="fill:#ffffff;"/>
   </g>
   <g id="line2d_1">
    <path clip-path="url(#p6cc9f2c183)" d="M 70.7575 100.316732 
L 73.379649 122.658894 
L 76.001797 141.975043 
L 78.623946 152.764491 
L 81.246095 166.191131 
L 86.490392 185.58061 
L 89.112541 203.850869 
L 91.73469 211.544384 
L 94.356839 221.070173 
L 96.978987 231.158555 
L 99.601136 240.380171 
L 102.223285 253.115612 
L 107.467582 271.493519 
L 110.089731 277.6378 
L 112.71188 283.344231 
L 115.334029 290.206172 
L 117.956177 298.041669 
L 120.578326 301.385349 
L 125.822624 318.143306 
L 128.444772 323.530999 
L 131.066921 326.167216 
L 133.68907 329.673949 
L 136.311219 331.770902 
L 138.933367 341.577487 
L 141.555516 346.26067 
L 144.177665 351.542177 
L 146.799814 356.383531 
L 149.421963 359.634846 
L 152.044111 365.757273 
L 154.66626 372.946156 
L 157.288409 376.399942 
L 159.910557 378.777797 
L 162.532706 382.688088 
L 165.154855 387.855689 
L 167.777004 390.794721 
L 170.399153 391.721325 
L 173.021301 396.911589 
L 175.64345 401.171507 
L 178.265599 408.402045 
L 180.887747 411.150139 
L 183.509896 415.942595 
L 186.132045 420.189813 
L 188.754194 423.030454 
L 191.376342 427.455585 
L 193.998491 428.772847 
L 196.62064 430.442755 
L 199.242789 433.432789 
L 201.864937 437.262632 
L 204.487086 441.874599 
L 207.109235 443.274869 
L 209.731384 445.470581 
L 212.353533 447.89788 
L 214.975681 449.954356 
L 217.59783 452.536265 
L 220.219979 456.243038 
L 222.842128 458.640918 
L 225.464276 459.670487 
L 228.086425 461.143102 
L 233.330723 463.384679 
L 235.952871 466.339511 
L 238.57502 466.886622 
L 241.197169 471.197364 
L 243.819317 471.573936 
L 246.441466 473.421963 
L 249.063615 476.601058 
L 251.685764 475.913626 
L 254.307912 478.002677 
L 256.930061 478.573028 
L 259.55221 479.893742 
L 262.174359 482.492851 
L 264.796507 485.695557 
L 267.418656 488.565032 
L 270.040805 489.438047 
L 272.662954 490.61932 
L 275.285102 494.830445 
L 277.907251 496.428905 
L 280.5294 494.996358 
L 285.773698 502.260271 
L 288.395846 503.69185 
L 291.017995 504.709142 
L 293.640144 504.683162 
L 296.262293 505.473596 
L 298.884441 505.309446 
L 304.128739 510.448876 
L 306.750887 510.844761 
L 309.373036 512.300129 
L 311.995185 514.410626 
L 314.617334 514.811046 
L 317.239483 513.619917 
L 319.861631 514.526501 
L 322.48378 517.106382 
L 325.105929 518.156882 
L 327.728077 519.571302 
L 330.350226 522.118035 
L 332.972375 521.665147 
L 335.594524 522.429243 
L 338.216673 523.469749 
L 340.838821 527.583275 
L 343.46097 528.945639 
L 346.083119 527.770619 
L 348.705267 529.853131 
L 351.327416 529.912119 
L 353.949565 530.993533 
L 356.571714 531.930209 
L 359.193863 531.827207 
L 361.816011 536.283122 
L 364.43816 535.870549 
L 367.060309 537.413885 
L 369.682457 537.533268 
L 372.304606 541.193314 
L 374.926755 542.453403 
L 377.548904 544.117015 
L 380.171052 545.422687 
L 382.793201 548.205516 
L 385.41535 548.976719 
L 388.037499 551.683486 
L 390.659648 553.014968 
L 393.281796 552.181265 
L 395.903945 553.491721 
L 398.526094 555.873774 
L 401.148242 559.254504 
L 403.770391 559.083028 
L 406.39254 559.043692 
L 409.014689 561.502422 
L 411.636838 563.106741 
L 414.258986 563.095851 
L 416.881135 564.76125 
L 419.503284 564.849517 
L 422.125432 566.39275 
L 424.747581 566.957478 
L 427.36973 566.541599 
L 429.991879 568.437492 
L 432.614028 569.53295 
L 435.236176 569.7846 
L 437.858325 571.91582 
L 440.480474 573.318718 
L 443.102622 576.095204 
L 445.724771 575.247742 
L 448.34692 577.829493 
L 450.969069 578.07707 
L 453.591217 580.167851 
L 456.213366 579.603444 
L 458.835515 578.105476 
L 461.457664 578.64761 
L 464.079813 580.256612 
L 466.701961 578.66518 
L 471.946259 578.593457 
L 474.568407 580.229783 
L 477.190556 579.877707 
L 479.812705 582.226563 
L 482.434854 584.925559 
L 485.057003 584.418085 
L 487.679151 584.973075 
L 490.3013 586.939567 
L 492.923449 589.272648 
L 495.545597 588.037633 
L 498.167746 588.163532 
L 500.789895 588.808055 
L 503.412044 588.839083 
L 506.034193 592.304692 
L 508.656341 591.910343 
L 511.27849 593.167081 
L 513.900639 595.100042 
L 516.522788 595.530543 
L 519.144936 599.404102 
L 521.767085 599.882695 
L 524.389234 600.712025 
L 527.011383 600.761655 
L 529.633531 600.144479 
L 532.25568 600.602321 
L 534.877829 600.727157 
L 537.499977 603.10827 
L 540.122126 602.839963 
L 545.366424 607.738911 
L 547.988572 606.371362 
L 550.610721 606.817944 
L 553.23287 608.241979 
L 555.855019 609.456155 
L 558.477167 609.189314 
L 561.099316 609.759256 
L 563.721465 610.45512 
L 566.343614 612.637958 
L 568.965762 612.514971 
L 571.587911 613.17818 
L 574.21006 614.132624 
L 576.832209 616.266589 
L 579.454358 617.808377 
L 582.076506 619.967857 
L 584.698655 616.644728 
L 587.320804 617.522708 
L 589.942953 617.884512 
L 592.565101 618.707321 
L 595.18725 618.444663 
L 597.809399 619.189862 
L 600.431548 619.169454 
L 605.675845 621.931877 
L 608.297994 622.826431 
L 610.920143 622.689463 
L 613.542291 623.925839 
L 616.16444 625.421905 
L 618.786589 624.785715 
L 621.408737 625.025728 
L 624.030886 626.733025 
L 626.653035 626.911895 
L 629.275184 630.681675 
L 631.897332 631.276095 
L 634.519481 631.364829 
L 637.14163 629.514937 
L 639.763779 628.557236 
L 642.385927 629.656557 
L 645.008076 632.023135 
L 647.630225 631.982367 
L 650.252374 630.999828 
L 652.874523 632.565622 
L 655.496671 634.834567 
L 658.11882 634.698878 
L 660.740969 636.057672 
L 663.363118 634.939225 
L 665.985266 635.769342 
L 668.607415 635.809523 
L 671.229564 636.717191 
L 673.851713 638.912835 
L 676.473861 638.265125 
L 679.09601 638.457767 
L 681.718159 641.582928 
L 684.340308 640.943231 
L 686.962456 641.307829 
L 692.206754 643.218927 
L 694.828902 643.213312 
L 697.451051 643.935839 
L 700.0732 643.737157 
L 702.695349 643.205036 
L 705.317497 644.413846 
L 707.939646 644.117398 
L 710.561795 645.726047 
L 713.183944 646.844163 
L 715.806092 647.332956 
L 718.428241 648.683172 
L 721.05039 648.847566 
L 726.294688 647.787768 
L 728.916836 648.744527 
L 731.538985 648.35003 
L 734.161134 648.526262 
L 736.783283 650.606479 
L 739.405431 650.07681 
L 742.02758 651.165725 
L 744.649729 653.056026 
L 747.271878 654.112986 
L 749.894026 656.557856 
L 752.516175 658.062367 
L 755.138324 660.203725 
L 757.760473 660.613727 
L 760.382621 661.592612 
L 765.626919 659.731758 
L 768.249067 660.423656 
L 770.871216 660.711245 
L 773.493365 660.648824 
L 776.115514 660.465021 
L 778.737662 662.505847 
L 781.359811 661.394016 
L 786.604109 661.985272 
L 789.226257 661.816394 
L 794.470555 663.711177 
L 797.092704 662.807748 
L 799.714853 666.09354 
L 802.337001 667.446473 
L 804.95915 671.670848 
L 807.581299 670.408062 
L 810.203448 670.122475 
L 812.825596 671.39788 
L 815.447745 670.71162 
L 818.069894 670.36191 
L 823.314191 671.580082 
L 828.558489 672.207823 
L 831.180638 672.727361 
L 833.802786 675.436393 
L 836.424935 675.033296 
L 839.047084 674.325333 
L 841.669232 674.331519 
L 844.291381 675.614297 
L 846.91353 675.696915 
L 849.535679 677.70304 
L 852.157827 678.149412 
L 854.779976 680.385412 
L 857.402125 680.629637 
L 860.024274 680.618419 
L 862.646422 679.843929 
L 865.268571 678.57803 
L 867.89072 677.886364 
L 870.512869 678.210465 
L 873.135018 677.597508 
L 875.757166 677.914224 
L 878.379315 678.630144 
L 881.001464 677.933567 
L 883.623613 678.222706 
L 886.245761 679.27278 
L 888.86791 680.594103 
L 891.490059 680.95732 
L 894.112208 682.282344 
L 896.734356 685.851134 
L 899.356505 685.228151 
L 901.978654 685.992144 
L 904.600803 685.606617 
L 907.222951 687.747309 
L 909.8451 687.895826 
L 912.467249 688.948451 
L 915.089397 688.215863 
L 917.711546 689.760745 
L 920.333695 689.117665 
L 922.955844 688.742564 
L 925.577992 689.629037 
L 928.200141 688.551305 
L 930.82229 688.408387 
L 933.444439 686.771716 
L 936.066587 689.205058 
L 938.688736 689.704316 
L 941.310885 693.363047 
L 943.933034 692.777765 
L 946.555183 693.792023 
L 949.177331 693.653561 
L 951.79948 693.719656 
L 954.421629 692.114377 
L 957.043778 693.38206 
L 959.665926 694.033087 
L 964.910224 694.098546 
L 967.532373 695.691036 
L 970.154521 696.668226 
L 972.77667 697.266658 
L 975.398819 697.708348 
L 978.020968 697.209545 
L 980.643116 697.772131 
L 983.265265 699.022818 
L 985.887414 697.76966 
L 988.509562 699.384481 
L 991.131711 701.158416 
L 993.75386 701.615255 
L 996.376009 701.010199 
L 998.998157 699.960967 
L 1001.620306 700.035811 
L 1004.242455 701.875622 
L 1006.864604 702.084181 
L 1009.486752 703.398651 
L 1012.108901 703.176212 
L 1014.73105 703.385636 
L 1017.353199 704.622357 
L 1019.975347 703.767856 
L 1022.597496 705.194756 
L 1025.219645 705.449341 
L 1027.841794 706.130618 
L 1030.463943 704.903046 
L 1033.086091 704.853648 
L 1035.70824 705.632642 
L 1038.330389 704.857301 
L 1043.574686 706.637645 
L 1046.196835 707.946599 
L 1048.818984 707.327724 
L 1051.441133 708.95279 
L 1054.063281 707.28382 
L 1056.68543 708.214502 
L 1059.307579 706.246907 
L 1061.929727 708.971645 
L 1067.174025 706.748458 
L 1069.796174 708.126524 
L 1072.418322 708.676776 
L 1075.040471 705.508777 
L 1077.66262 709.309152 
L 1080.284769 711.286966 
L 1082.906917 710.410538 
L 1085.529066 712.620884 
L 1088.151215 712.511455 
L 1090.773364 714.037275 
L 1093.395512 714.847099 
L 1096.017661 716.422472 
L 1098.63981 717.682073 
L 1101.261959 716.402463 
L 1103.884108 716.81209 
L 1106.506256 718.233511 
L 1109.128405 717.299619 
L 1111.750554 718.443131 
L 1114.372703 717.274717 
L 1116.994851 720.978561 
L 1119.617 721.511458 
L 1122.239149 720.925456 
L 1124.861297 721.192159 
L 1127.483446 722.428722 
L 1132.727744 719.56083 
L 1135.349892 720.37002 
L 1137.972041 722.226087 
L 1140.59419 721.519295 
L 1143.216339 721.991168 
L 1145.838487 721.53525 
L 1148.460636 722.335432 
L 1151.082785 724.053805 
L 1153.704934 722.458614 
L 1156.327082 722.301732 
L 1158.949231 721.463649 
L 1161.57138 723.858907 
L 1164.193529 723.664754 
L 1166.815677 725.532274 
L 1169.437826 724.92276 
L 1172.059975 725.882627 
L 1174.682124 725.055818 
L 1177.304273 726.974033 
L 1179.926421 727.315827 
L 1182.54857 727.228628 
L 1185.170719 728.460249 
L 1190.415016 727.670978 
L 1193.037165 728.28447 
L 1195.659314 728.233072 
L 1198.281462 729.23566 
L 1200.903611 730.668452 
L 1203.52576 729.903342 
L 1206.147909 730.138302 
L 1208.770057 729.708305 
L 1211.392206 730.660535 
L 1214.014355 729.946678 
L 1216.636504 729.884139 
L 1219.258652 732.226386 
L 1221.880801 731.707359 
L 1224.50295 735.68398 
L 1227.125099 734.770847 
L 1229.747247 735.749304 
L 1232.369396 735.788416 
L 1234.991545 736.17983 
L 1237.613694 735.457261 
L 1240.235842 733.989812 
L 1242.857991 733.825519 
L 1245.48014 737.599583 
L 1248.102289 736.639528 
L 1250.724438 736.692932 
L 1253.346586 736.019613 
L 1255.968735 735.128867 
L 1258.590884 735.045343 
L 1261.213033 735.124584 
L 1263.835181 737.576778 
L 1266.45733 738.299068 
L 1269.079479 737.947241 
L 1271.701627 739.496591 
L 1274.323776 740.210898 
L 1279.568074 739.885715 
L 1282.190222 740.607632 
L 1284.812371 742.546685 
L 1287.43452 743.455355 
L 1290.056669 744.505643 
L 1292.678817 744.912013 
L 1295.300966 744.763082 
L 1297.923115 745.699548 
L 1300.545264 744.318539 
L 1303.167412 744.357031 
L 1305.789561 745.928437 
L 1308.41171 747.901197 
L 1311.033859 747.230904 
L 1313.656007 747.106102 
L 1316.278156 747.582009 
L 1321.522454 749.127547 
L 1324.144603 748.000735 
L 1326.766751 748.808653 
L 1329.3889 747.553944 
L 1332.011049 746.655717 
L 1334.633198 748.31487 
L 1337.255346 748.541382 
L 1339.877495 748.989154 
L 1342.499644 748.614882 
L 1345.121792 747.171164 
L 1347.743941 747.811741 
L 1350.36609 747.461401 
L 1352.988239 747.900964 
L 1355.610387 747.601483 
L 1358.232536 748.020487 
L 1360.854685 745.713154 
L 1363.476834 747.270907 
L 1366.098982 747.342486 
L 1368.721131 746.364743 
L 1371.34328 745.632505 
L 1373.965429 749.504174 
L 1376.587577 750.234801 
L 1379.209726 753.818512 
L 1379.209726 753.818512 
" style="fill:none;stroke:#0000ff;stroke-linecap:square;stroke-width:2.0;"/>
   </g>
   <g id="line2d_2">
    <path clip-path="url(#p6cc9f2c183)" d="M 70.7575 98.525198 
L 73.379649 116.203064 
L 78.623946 145.706558 
L 81.246095 154.514758 
L 83.868244 167.189378 
L 86.490392 181.504896 
L 89.112541 194.036284 
L 91.73469 207.505773 
L 94.356839 218.339715 
L 96.978987 227.926854 
L 99.601136 236.779078 
L 102.223285 247.627149 
L 104.845434 254.230479 
L 107.467582 264.680774 
L 110.089731 270.852206 
L 112.71188 279.919824 
L 117.956177 288.724671 
L 120.578326 293.337498 
L 123.200475 303.224467 
L 125.822624 309.633512 
L 128.444772 314.519453 
L 131.066921 320.357731 
L 136.311219 336.617828 
L 138.933367 342.851269 
L 141.555516 346.259593 
L 144.177665 349.107305 
L 146.799814 353.040625 
L 149.421963 360.481548 
L 152.044111 363.833259 
L 154.66626 369.06151 
L 157.288409 372.152068 
L 159.910557 375.860255 
L 162.532706 382.585071 
L 165.154855 385.409849 
L 170.399153 394.024335 
L 173.021301 395.323719 
L 175.64345 399.022214 
L 178.265599 400.590335 
L 180.887747 404.207457 
L 183.509896 408.618129 
L 186.132045 412.074901 
L 188.754194 414.068889 
L 191.376342 417.205155 
L 193.998491 420.783744 
L 196.62064 422.378503 
L 199.242789 426.539986 
L 201.864937 430.133626 
L 204.487086 433.081587 
L 207.109235 434.515688 
L 209.731384 438.574344 
L 212.353533 441.840373 
L 214.975681 444.173962 
L 217.59783 447.349968 
L 220.219979 449.179919 
L 222.842128 450.433255 
L 225.464276 451.92677 
L 228.086425 454.201045 
L 233.330723 455.70628 
L 235.952871 457.911897 
L 238.57502 458.687037 
L 241.197169 461.352711 
L 243.819317 461.382543 
L 246.441466 465.521171 
L 249.063615 468.851835 
L 251.685764 468.999242 
L 254.307912 469.620829 
L 256.930061 470.075422 
L 259.55221 471.958376 
L 264.796507 478.102776 
L 267.418656 479.179904 
L 270.040805 480.641247 
L 272.662954 482.345131 
L 275.285102 485.794494 
L 277.907251 487.202926 
L 280.5294 490.176469 
L 283.151549 491.675328 
L 285.773698 497.330874 
L 288.395846 496.57688 
L 291.017995 500.142834 
L 296.262293 502.373466 
L 298.884441 505.622819 
L 301.50659 507.538908 
L 304.128739 508.263132 
L 306.750887 509.662156 
L 309.373036 509.506175 
L 311.995185 510.929063 
L 317.239483 511.495088 
L 319.861631 512.963013 
L 322.48378 514.759759 
L 325.105929 515.975165 
L 327.728077 516.546423 
L 330.350226 518.504474 
L 332.972375 520.964073 
L 335.594524 522.63737 
L 338.216673 521.969829 
L 340.838821 523.597477 
L 343.46097 524.139258 
L 346.083119 524.244333 
L 351.327416 530.987205 
L 353.949565 531.409497 
L 356.571714 533.836638 
L 359.193863 535.895306 
L 361.816011 536.357497 
L 364.43816 535.489202 
L 367.060309 535.419581 
L 369.682457 535.216994 
L 372.304606 536.560916 
L 374.926755 535.86904 
L 377.548904 536.427422 
L 380.171052 538.051248 
L 382.793201 539.020977 
L 388.037499 543.881307 
L 390.659648 545.333823 
L 395.903945 548.637877 
L 398.526094 550.03573 
L 401.148242 551.793927 
L 403.770391 552.236181 
L 406.39254 552.856859 
L 409.014689 552.367496 
L 411.636838 552.061188 
L 414.258986 553.170582 
L 416.881135 556.631044 
L 419.503284 557.991529 
L 422.125432 558.340723 
L 424.747581 559.886503 
L 427.36973 562.349143 
L 429.991879 563.272541 
L 432.614028 564.648046 
L 435.236176 566.863861 
L 437.858325 567.82486 
L 443.102622 568.073766 
L 445.724771 567.859255 
L 448.34692 569.036154 
L 450.969069 572.058467 
L 453.591217 573.280508 
L 456.213366 572.800344 
L 458.835515 572.804066 
L 461.457664 572.08657 
L 466.701961 574.753947 
L 469.32411 574.928159 
L 471.946259 577.095387 
L 474.568407 576.717184 
L 479.812705 581.444884 
L 482.434854 581.635805 
L 485.057003 579.669145 
L 487.679151 582.187309 
L 490.3013 583.093545 
L 492.923449 582.985661 
L 495.545597 584.411465 
L 498.167746 584.611767 
L 500.789895 585.761567 
L 503.412044 587.77509 
L 506.034193 588.49214 
L 508.656341 591.659464 
L 513.900639 592.35729 
L 516.522788 592.104826 
L 519.144936 595.286581 
L 521.767085 596.580725 
L 524.389234 596.701462 
L 527.011383 598.009727 
L 529.633531 598.781197 
L 532.25568 599.148431 
L 534.877829 598.35865 
L 537.499977 599.521064 
L 540.122126 601.375218 
L 542.744275 601.09948 
L 545.366424 604.548165 
L 547.988572 603.967179 
L 550.610721 606.519507 
L 553.23287 606.961957 
L 555.855019 607.882583 
L 558.477167 609.379303 
L 561.099316 609.467842 
L 563.721465 610.716243 
L 566.343614 608.933398 
L 568.965762 613.115686 
L 571.587911 614.644808 
L 574.21006 614.526822 
L 576.832209 616.050506 
L 582.076506 611.770502 
L 584.698655 612.473394 
L 587.320804 613.681004 
L 589.942953 613.476859 
L 592.565101 616.731249 
L 595.18725 617.829602 
L 597.809399 617.29465 
L 600.431548 619.766276 
L 603.053696 620.245252 
L 605.675845 620.199495 
L 608.297994 622.045311 
L 610.920143 620.712661 
L 613.542291 620.067149 
L 616.16444 621.725885 
L 618.786589 622.166732 
L 621.408737 622.837354 
L 624.030886 621.793085 
L 626.653035 623.114611 
L 629.275184 623.694317 
L 631.897332 623.944087 
L 634.519481 625.160287 
L 637.14163 625.902375 
L 639.763779 629.148476 
L 642.385927 628.41261 
L 645.008076 629.100317 
L 647.630225 628.812289 
L 650.252374 629.639672 
L 652.874523 628.948355 
L 655.496671 629.586034 
L 658.11882 630.61286 
L 660.740969 630.358075 
L 663.363118 631.970262 
L 665.985266 632.263639 
L 668.607415 633.050528 
L 671.229564 634.877789 
L 673.851713 635.357639 
L 676.473861 637.438437 
L 679.09601 638.427328 
L 681.718159 636.842899 
L 684.340308 636.958344 
L 686.962456 639.048552 
L 689.584605 638.719521 
L 692.206754 639.172053 
L 694.828902 638.759167 
L 697.451051 638.649296 
L 700.0732 641.003929 
L 702.695349 642.04061 
L 705.317497 644.291969 
L 707.939646 644.110433 
L 710.561795 644.961277 
L 713.183944 644.606896 
L 715.806092 647.793406 
L 718.428241 649.043319 
L 721.05039 648.531854 
L 723.672539 648.380519 
L 726.294688 650.351957 
L 728.916836 650.524839 
L 731.538985 651.26516 
L 734.161134 649.81454 
L 736.783283 650.875457 
L 739.405431 652.718706 
L 742.02758 655.127843 
L 744.649729 658.027408 
L 747.271878 658.436813 
L 749.894026 658.536198 
L 752.516175 657.235834 
L 755.138324 655.759805 
L 757.760473 656.250935 
L 760.382621 655.727494 
L 763.00477 656.409221 
L 765.626919 656.639933 
L 768.249067 659.352133 
L 770.871216 659.74564 
L 773.493365 662.510084 
L 776.115514 663.335225 
L 778.737662 662.964375 
L 781.359811 662.418721 
L 783.98196 663.317489 
L 786.604109 662.53526 
L 789.226257 662.763488 
L 791.848406 661.749152 
L 794.470555 663.507516 
L 797.092704 663.154802 
L 799.714853 664.149798 
L 802.337001 663.692461 
L 804.95915 662.760476 
L 807.581299 664.823236 
L 810.203448 664.751578 
L 812.825596 667.117406 
L 815.447745 667.379319 
L 818.069894 666.46443 
L 820.692043 669.355151 
L 823.314191 671.846423 
L 825.93634 671.168512 
L 828.558489 671.670293 
L 831.180638 673.096268 
L 833.802786 673.522753 
L 836.424935 672.175714 
L 839.047084 671.750361 
L 841.669232 672.778667 
L 844.291381 672.436749 
L 846.91353 674.278474 
L 852.157827 674.681419 
L 854.779976 674.910246 
L 857.402125 676.869137 
L 860.024274 675.688167 
L 862.646422 677.753794 
L 865.268571 677.707726 
L 870.512869 679.861306 
L 873.135018 680.6706 
L 875.757166 680.615921 
L 878.379315 680.188001 
L 881.001464 681.533368 
L 883.623613 680.244207 
L 886.245761 682.862764 
L 888.86791 683.015815 
L 891.490059 684.034143 
L 894.112208 684.231652 
L 896.734356 685.12611 
L 899.356505 685.630603 
L 901.978654 686.495917 
L 904.600803 685.999312 
L 907.222951 686.993989 
L 909.8451 686.478296 
L 912.467249 687.123599 
L 917.711546 687.183556 
L 922.955844 688.510646 
L 925.577992 688.439789 
L 928.200141 688.806624 
L 930.82229 690.272903 
L 933.444439 691.430807 
L 936.066587 691.354055 
L 938.688736 692.954068 
L 941.310885 692.977197 
L 943.933034 691.559536 
L 946.555183 693.477235 
L 949.177331 694.32217 
L 951.79948 693.646941 
L 954.421629 694.119374 
L 957.043778 694.065569 
L 959.665926 695.596162 
L 962.288075 696.530592 
L 964.910224 697.274847 
L 967.532373 695.761934 
L 970.154521 696.018971 
L 972.77667 695.576852 
L 975.398819 694.908156 
L 978.020968 695.7784 
L 980.643116 696.419513 
L 983.265265 696.751144 
L 985.887414 696.244002 
L 988.509562 698.443763 
L 991.131711 698.295718 
L 993.75386 697.124459 
L 996.376009 698.623909 
L 998.998157 697.416705 
L 1001.620306 699.06744 
L 1004.242455 700.557733 
L 1006.864604 700.214077 
L 1009.486752 700.482942 
L 1012.108901 699.384509 
L 1014.73105 700.137038 
L 1017.353199 698.146691 
L 1019.975347 698.988046 
L 1022.597496 699.403688 
L 1025.219645 700.39024 
L 1027.841794 704.763554 
L 1030.463943 702.048389 
L 1033.086091 702.692645 
L 1038.330389 703.366485 
L 1040.952538 704.868289 
L 1043.574686 705.496 
L 1046.196835 705.677335 
L 1048.818984 708.727981 
L 1051.441133 707.165343 
L 1054.063281 707.550089 
L 1056.68543 709.720486 
L 1059.307579 710.189107 
L 1061.929727 709.144872 
L 1064.551876 708.519231 
L 1067.174025 709.224437 
L 1069.796174 710.89531 
L 1072.418322 713.469058 
L 1075.040471 714.525773 
L 1077.66262 713.767224 
L 1080.284769 714.483622 
L 1082.906917 712.084311 
L 1085.529066 712.31833 
L 1088.151215 712.171044 
L 1090.773364 712.185002 
L 1093.395512 712.987346 
L 1096.017661 711.728684 
L 1098.63981 711.744066 
L 1101.261959 712.288622 
L 1103.884108 711.961489 
L 1106.506256 711.385026 
L 1109.128405 714.015914 
L 1111.750554 714.129283 
L 1114.372703 715.123806 
L 1116.994851 716.408194 
L 1119.617 716.368022 
L 1122.239149 716.516651 
L 1124.861297 716.064851 
L 1127.483446 718.560237 
L 1130.105595 717.80653 
L 1132.727744 718.001977 
L 1135.349892 719.377746 
L 1137.972041 719.742354 
L 1140.59419 718.733646 
L 1143.216339 717.156548 
L 1145.838487 716.86408 
L 1148.460636 718.015913 
L 1151.082785 718.436732 
L 1153.704934 722.27749 
L 1156.327082 724.012922 
L 1158.949231 723.882302 
L 1161.57138 724.270411 
L 1164.193529 723.463508 
L 1166.815677 722.931697 
L 1169.437826 724.930615 
L 1172.059975 724.283897 
L 1174.682124 724.786697 
L 1177.304273 725.547041 
L 1179.926421 725.84177 
L 1182.54857 725.723892 
L 1185.170719 726.789128 
L 1187.792868 728.450126 
L 1190.415016 728.481434 
L 1193.037165 726.950106 
L 1195.659314 725.706697 
L 1198.281462 725.185751 
L 1200.903611 726.852954 
L 1203.52576 725.54334 
L 1206.147909 725.57916 
L 1208.770057 726.456786 
L 1211.392206 728.482785 
L 1214.014355 727.167193 
L 1216.636504 725.589179 
L 1219.258652 728.286004 
L 1221.880801 729.800632 
L 1224.50295 730.365418 
L 1229.747247 730.873502 
L 1234.991545 734.04165 
L 1237.613694 736.828291 
L 1240.235842 738.040213 
L 1242.857991 737.400889 
L 1245.48014 735.306273 
L 1248.102289 736.227681 
L 1250.724438 734.947822 
L 1255.968735 736.285997 
L 1258.590884 736.476185 
L 1261.213033 736.345538 
L 1263.835181 735.367634 
L 1266.45733 737.149092 
L 1269.079479 736.998429 
L 1274.323776 736.473519 
L 1276.945925 736.643268 
L 1279.568074 739.567747 
L 1282.190222 739.109032 
L 1284.812371 740.139055 
L 1287.43452 739.253831 
L 1290.056669 739.431216 
L 1295.300966 741.745592 
L 1297.923115 743.04355 
L 1300.545264 741.128295 
L 1303.167412 741.823535 
L 1305.789561 742.669784 
L 1308.41171 744.043888 
L 1311.033859 744.095176 
L 1313.656007 743.051942 
L 1316.278156 744.714468 
L 1318.900305 745.488857 
L 1321.522454 745.846591 
L 1324.144603 743.20507 
L 1326.766751 743.480293 
L 1329.3889 742.972034 
L 1332.011049 744.751826 
L 1334.633198 744.816542 
L 1337.255346 745.007495 
L 1339.877495 746.127827 
L 1342.499644 744.134018 
L 1345.121792 744.198242 
L 1347.743941 744.642722 
L 1352.988239 747.723026 
L 1355.610387 745.789002 
L 1360.854685 747.093206 
L 1363.476834 748.999966 
L 1368.721131 748.820575 
L 1371.34328 749.439853 
L 1373.965429 748.416654 
L 1376.587577 749.189892 
L 1379.209726 749.466382 
L 1379.209726 749.466382 
" style="fill:none;stroke:#008000;stroke-linecap:square;stroke-width:2.0;"/>
   </g>
   <g id="patch_3">
    <path d="M 70.7575 57.915781 
L 1381.831875 57.915781 
" style="fill:none;stroke:#000000;stroke-linecap:square;stroke-linejoin:miter;"/>
   </g>
   <g id="patch_4">
    <path d="M 1381.831875 770.338125 
L 1381.831875 57.915781 
" style="fill:none;stroke:#000000;stroke-linecap:square;stroke-linejoin:miter;"/>
   </g>
   <g id="patch_5">
    <path d="M 70.7575 770.338125 
L 1381.831875 770.338125 
" style="fill:none;stroke:#000000;stroke-linecap:square;stroke-linejoin:miter;"/>
   </g>
   <g id="patch_6">
    <path d="M 70.7575 770.338125 
L 70.7575 57.915781 
" style="fill:none;stroke:#000000;stroke-linecap:square;stroke-linejoin:miter;"/>
   </g>
   <g id="matplotlib.axis_1">
    <g id="xtick_1">
     <g id="line2d_3">
      <defs>
       <path d="M 0 0 
L 0 -4 
" id="m2596cc12f6" style="stroke:#000000;stroke-width:0.5;"/>
      </defs>
      <g>
       <use style="stroke:#000000;stroke-width:0.5;" x="70.7575" xlink:href="#m2596cc12f6" y="770.338125"/>
      </g>
     </g>
     <g id="line2d_4">
      <defs>
       <path d="M 0 0 
L 0 4 
" id="mcc0d508161" style="stroke:#000000;stroke-width:0.5;"/>
      </defs>
      <g>
       <use style="stroke:#000000;stroke-width:0.5;" x="70.7575" xlink:href="#mcc0d508161" y="57.91578125"/>
      </g>
     </g>
     <g id="text_1">
      <!-- 0 -->
      <defs>
       <path d="M 31.78125 66.40625 
Q 24.171875 66.40625 20.328125 58.90625 
Q 16.5 51.421875 16.5 36.375 
Q 16.5 21.390625 20.328125 13.890625 
Q 24.171875 6.390625 31.78125 6.390625 
Q 39.453125 6.390625 43.28125 13.890625 
Q 47.125 21.390625 47.125 36.375 
Q 47.125 51.421875 43.28125 58.90625 
Q 39.453125 66.40625 31.78125 66.40625 
M 31.78125 74.21875 
Q 44.046875 74.21875 50.515625 64.515625 
Q 56.984375 54.828125 56.984375 36.375 
Q 56.984375 17.96875 50.515625 8.265625 
Q 44.046875 -1.421875 31.78125 -1.421875 
Q 19.53125 -1.421875 13.0625 8.265625 
Q 6.59375 17.96875 6.59375 36.375 
Q 6.59375 54.828125 13.0625 64.515625 
Q 19.53125 74.21875 31.78125 74.21875 
" id="BitstreamVeraSans-Roman-30"/>
      </defs>
      <g transform="translate(61.21375 797.1334375)scale(0.3 -0.3)">
       <use xlink:href="#BitstreamVeraSans-Roman-30"/>
      </g>
     </g>
    </g>
    <g id="xtick_2">
     <g id="line2d_5">
      <g>
       <use style="stroke:#000000;stroke-width:0.5;" x="332.972375" xlink:href="#m2596cc12f6" y="770.338125"/>
      </g>
     </g>
     <g id="line2d_6">
      <g>
       <use style="stroke:#000000;stroke-width:0.5;" x="332.972375" xlink:href="#mcc0d508161" y="57.91578125"/>
      </g>
     </g>
     <g id="text_2">
      <!-- 100 -->
      <defs>
       <path d="M 12.40625 8.296875 
L 28.515625 8.296875 
L 28.515625 63.921875 
L 10.984375 60.40625 
L 10.984375 69.390625 
L 28.421875 72.90625 
L 38.28125 72.90625 
L 38.28125 8.296875 
L 54.390625 8.296875 
L 54.390625 0 
L 12.40625 0 
z
" id="BitstreamVeraSans-Roman-31"/>
      </defs>
      <g transform="translate(304.341125 797.1334375)scale(0.3 -0.3)">
       <use xlink:href="#BitstreamVeraSans-Roman-31"/>
       <use x="63.623046875" xlink:href="#BitstreamVeraSans-Roman-30"/>
       <use x="127.24609375" xlink:href="#BitstreamVeraSans-Roman-30"/>
      </g>
     </g>
    </g>
    <g id="xtick_3">
     <g id="line2d_7">
      <g>
       <use style="stroke:#000000;stroke-width:0.5;" x="595.18725" xlink:href="#m2596cc12f6" y="770.338125"/>
      </g>
     </g>
     <g id="line2d_8">
      <g>
       <use style="stroke:#000000;stroke-width:0.5;" x="595.18725" xlink:href="#mcc0d508161" y="57.91578125"/>
      </g>
     </g>
     <g id="text_3">
      <!-- 200 -->
      <defs>
       <path d="M 19.1875 8.296875 
L 53.609375 8.296875 
L 53.609375 0 
L 7.328125 0 
L 7.328125 8.296875 
Q 12.9375 14.109375 22.625 23.890625 
Q 32.328125 33.6875 34.8125 36.53125 
Q 39.546875 41.84375 41.421875 45.53125 
Q 43.3125 49.21875 43.3125 52.78125 
Q 43.3125 58.59375 39.234375 62.25 
Q 35.15625 65.921875 28.609375 65.921875 
Q 23.96875 65.921875 18.8125 64.3125 
Q 13.671875 62.703125 7.8125 59.421875 
L 7.8125 69.390625 
Q 13.765625 71.78125 18.9375 73 
Q 24.125 74.21875 28.421875 74.21875 
Q 39.75 74.21875 46.484375 68.546875 
Q 53.21875 62.890625 53.21875 53.421875 
Q 53.21875 48.921875 51.53125 44.890625 
Q 49.859375 40.875 45.40625 35.40625 
Q 44.1875 33.984375 37.640625 27.21875 
Q 31.109375 20.453125 19.1875 8.296875 
" id="BitstreamVeraSans-Roman-32"/>
      </defs>
      <g transform="translate(566.556 797.1334375)scale(0.3 -0.3)">
       <use xlink:href="#BitstreamVeraSans-Roman-32"/>
       <use x="63.623046875" xlink:href="#BitstreamVeraSans-Roman-30"/>
       <use x="127.24609375" xlink:href="#BitstreamVeraSans-Roman-30"/>
      </g>
     </g>
    </g>
    <g id="xtick_4">
     <g id="line2d_9">
      <g>
       <use style="stroke:#000000;stroke-width:0.5;" x="857.402125" xlink:href="#m2596cc12f6" y="770.338125"/>
      </g>
     </g>
     <g id="line2d_10">
      <g>
       <use style="stroke:#000000;stroke-width:0.5;" x="857.402125" xlink:href="#mcc0d508161" y="57.91578125"/>
      </g>
     </g>
     <g id="text_4">
      <!-- 300 -->
      <defs>
       <path d="M 40.578125 39.3125 
Q 47.65625 37.796875 51.625 33 
Q 55.609375 28.21875 55.609375 21.1875 
Q 55.609375 10.40625 48.1875 4.484375 
Q 40.765625 -1.421875 27.09375 -1.421875 
Q 22.515625 -1.421875 17.65625 -0.515625 
Q 12.796875 0.390625 7.625 2.203125 
L 7.625 11.71875 
Q 11.71875 9.328125 16.59375 8.109375 
Q 21.484375 6.890625 26.8125 6.890625 
Q 36.078125 6.890625 40.9375 10.546875 
Q 45.796875 14.203125 45.796875 21.1875 
Q 45.796875 27.640625 41.28125 31.265625 
Q 36.765625 34.90625 28.71875 34.90625 
L 20.21875 34.90625 
L 20.21875 43.015625 
L 29.109375 43.015625 
Q 36.375 43.015625 40.234375 45.921875 
Q 44.09375 48.828125 44.09375 54.296875 
Q 44.09375 59.90625 40.109375 62.90625 
Q 36.140625 65.921875 28.71875 65.921875 
Q 24.65625 65.921875 20.015625 65.03125 
Q 15.375 64.15625 9.8125 62.3125 
L 9.8125 71.09375 
Q 15.4375 72.65625 20.34375 73.4375 
Q 25.25 74.21875 29.59375 74.21875 
Q 40.828125 74.21875 47.359375 69.109375 
Q 53.90625 64.015625 53.90625 55.328125 
Q 53.90625 49.265625 50.4375 45.09375 
Q 46.96875 40.921875 40.578125 39.3125 
" id="BitstreamVeraSans-Roman-33"/>
      </defs>
      <g transform="translate(828.770875 797.1334375)scale(0.3 -0.3)">
       <use xlink:href="#BitstreamVeraSans-Roman-33"/>
       <use x="63.623046875" xlink:href="#BitstreamVeraSans-Roman-30"/>
       <use x="127.24609375" xlink:href="#BitstreamVeraSans-Roman-30"/>
      </g>
     </g>
    </g>
    <g id="xtick_5">
     <g id="line2d_11">
      <g>
       <use style="stroke:#000000;stroke-width:0.5;" x="1119.617" xlink:href="#m2596cc12f6" y="770.338125"/>
      </g>
     </g>
     <g id="line2d_12">
      <g>
       <use style="stroke:#000000;stroke-width:0.5;" x="1119.617" xlink:href="#mcc0d508161" y="57.91578125"/>
      </g>
     </g>
     <g id="text_5">
      <!-- 400 -->
      <defs>
       <path d="M 37.796875 64.3125 
L 12.890625 25.390625 
L 37.796875 25.390625 
z
M 35.203125 72.90625 
L 47.609375 72.90625 
L 47.609375 25.390625 
L 58.015625 25.390625 
L 58.015625 17.1875 
L 47.609375 17.1875 
L 47.609375 0 
L 37.796875 0 
L 37.796875 17.1875 
L 4.890625 17.1875 
L 4.890625 26.703125 
z
" id="BitstreamVeraSans-Roman-34"/>
      </defs>
      <g transform="translate(1090.98575 797.1334375)scale(0.3 -0.3)">
       <use xlink:href="#BitstreamVeraSans-Roman-34"/>
       <use x="63.623046875" xlink:href="#BitstreamVeraSans-Roman-30"/>
       <use x="127.24609375" xlink:href="#BitstreamVeraSans-Roman-30"/>
      </g>
     </g>
    </g>
    <g id="xtick_6">
     <g id="line2d_13">
      <g>
       <use style="stroke:#000000;stroke-width:0.5;" x="1381.831875" xlink:href="#m2596cc12f6" y="770.338125"/>
      </g>
     </g>
     <g id="line2d_14">
      <g>
       <use style="stroke:#000000;stroke-width:0.5;" x="1381.831875" xlink:href="#mcc0d508161" y="57.91578125"/>
      </g>
     </g>
     <g id="text_6">
      <!-- 500 -->
      <defs>
       <path d="M 10.796875 72.90625 
L 49.515625 72.90625 
L 49.515625 64.59375 
L 19.828125 64.59375 
L 19.828125 46.734375 
Q 21.96875 47.46875 24.109375 47.828125 
Q 26.265625 48.1875 28.421875 48.1875 
Q 40.625 48.1875 47.75 41.5 
Q 54.890625 34.8125 54.890625 23.390625 
Q 54.890625 11.625 47.5625 5.09375 
Q 40.234375 -1.421875 26.90625 -1.421875 
Q 22.3125 -1.421875 17.546875 -0.640625 
Q 12.796875 0.140625 7.71875 1.703125 
L 7.71875 11.625 
Q 12.109375 9.234375 16.796875 8.0625 
Q 21.484375 6.890625 26.703125 6.890625 
Q 35.15625 6.890625 40.078125 11.328125 
Q 45.015625 15.765625 45.015625 23.390625 
Q 45.015625 31 40.078125 35.4375 
Q 35.15625 39.890625 26.703125 39.890625 
Q 22.75 39.890625 18.8125 39.015625 
Q 14.890625 38.140625 10.796875 36.28125 
z
" id="BitstreamVeraSans-Roman-35"/>
      </defs>
      <g transform="translate(1353.200625 797.1334375)scale(0.3 -0.3)">
       <use xlink:href="#BitstreamVeraSans-Roman-35"/>
       <use x="63.623046875" xlink:href="#BitstreamVeraSans-Roman-30"/>
       <use x="127.24609375" xlink:href="#BitstreamVeraSans-Roman-30"/>
      </g>
     </g>
    </g>
    <g id="text_7">
     <!-- iterations -->
     <defs>
      <path d="M 54.890625 33.015625 
L 54.890625 0 
L 45.90625 0 
L 45.90625 32.71875 
Q 45.90625 40.484375 42.875 44.328125 
Q 39.84375 48.1875 33.796875 48.1875 
Q 26.515625 48.1875 22.3125 43.546875 
Q 18.109375 38.921875 18.109375 30.90625 
L 18.109375 0 
L 9.078125 0 
L 9.078125 54.6875 
L 18.109375 54.6875 
L 18.109375 46.1875 
Q 21.34375 51.125 25.703125 53.5625 
Q 30.078125 56 35.796875 56 
Q 45.21875 56 50.046875 50.171875 
Q 54.890625 44.34375 54.890625 33.015625 
" id="BitstreamVeraSans-Roman-6e"/>
      <path d="M 34.28125 27.484375 
Q 23.390625 27.484375 19.1875 25 
Q 14.984375 22.515625 14.984375 16.5 
Q 14.984375 11.71875 18.140625 8.90625 
Q 21.296875 6.109375 26.703125 6.109375 
Q 34.1875 6.109375 38.703125 11.40625 
Q 43.21875 16.703125 43.21875 25.484375 
L 43.21875 27.484375 
z
M 52.203125 31.203125 
L 52.203125 0 
L 43.21875 0 
L 43.21875 8.296875 
Q 40.140625 3.328125 35.546875 0.953125 
Q 30.953125 -1.421875 24.3125 -1.421875 
Q 15.921875 -1.421875 10.953125 3.296875 
Q 6 8.015625 6 15.921875 
Q 6 25.140625 12.171875 29.828125 
Q 18.359375 34.515625 30.609375 34.515625 
L 43.21875 34.515625 
L 43.21875 35.40625 
Q 43.21875 41.609375 39.140625 45 
Q 35.0625 48.390625 27.6875 48.390625 
Q 23 48.390625 18.546875 47.265625 
Q 14.109375 46.140625 10.015625 43.890625 
L 10.015625 52.203125 
Q 14.9375 54.109375 19.578125 55.046875 
Q 24.21875 56 28.609375 56 
Q 40.484375 56 46.34375 49.84375 
Q 52.203125 43.703125 52.203125 31.203125 
" id="BitstreamVeraSans-Roman-61"/>
      <path d="M 30.609375 48.390625 
Q 23.390625 48.390625 19.1875 42.75 
Q 14.984375 37.109375 14.984375 27.296875 
Q 14.984375 17.484375 19.15625 11.84375 
Q 23.34375 6.203125 30.609375 6.203125 
Q 37.796875 6.203125 41.984375 11.859375 
Q 46.1875 17.53125 46.1875 27.296875 
Q 46.1875 37.015625 41.984375 42.703125 
Q 37.796875 48.390625 30.609375 48.390625 
M 30.609375 56 
Q 42.328125 56 49.015625 48.375 
Q 55.71875 40.765625 55.71875 27.296875 
Q 55.71875 13.875 49.015625 6.21875 
Q 42.328125 -1.421875 30.609375 -1.421875 
Q 18.84375 -1.421875 12.171875 6.21875 
Q 5.515625 13.875 5.515625 27.296875 
Q 5.515625 40.765625 12.171875 48.375 
Q 18.84375 56 30.609375 56 
" id="BitstreamVeraSans-Roman-6f"/>
      <path d="M 9.421875 54.6875 
L 18.40625 54.6875 
L 18.40625 0 
L 9.421875 0 
z
M 9.421875 75.984375 
L 18.40625 75.984375 
L 18.40625 64.59375 
L 9.421875 64.59375 
z
" id="BitstreamVeraSans-Roman-69"/>
      <path d="M 56.203125 29.59375 
L 56.203125 25.203125 
L 14.890625 25.203125 
Q 15.484375 15.921875 20.484375 11.0625 
Q 25.484375 6.203125 34.421875 6.203125 
Q 39.59375 6.203125 44.453125 7.46875 
Q 49.3125 8.734375 54.109375 11.28125 
L 54.109375 2.78125 
Q 49.265625 0.734375 44.1875 -0.34375 
Q 39.109375 -1.421875 33.890625 -1.421875 
Q 20.796875 -1.421875 13.15625 6.1875 
Q 5.515625 13.8125 5.515625 26.8125 
Q 5.515625 40.234375 12.765625 48.109375 
Q 20.015625 56 32.328125 56 
Q 43.359375 56 49.78125 48.890625 
Q 56.203125 41.796875 56.203125 29.59375 
M 47.21875 32.234375 
Q 47.125 39.59375 43.09375 43.984375 
Q 39.0625 48.390625 32.421875 48.390625 
Q 24.90625 48.390625 20.390625 44.140625 
Q 15.875 39.890625 15.1875 32.171875 
z
" id="BitstreamVeraSans-Roman-65"/>
      <path d="M 18.3125 70.21875 
L 18.3125 54.6875 
L 36.8125 54.6875 
L 36.8125 47.703125 
L 18.3125 47.703125 
L 18.3125 18.015625 
Q 18.3125 11.328125 20.140625 9.421875 
Q 21.96875 7.515625 27.59375 7.515625 
L 36.8125 7.515625 
L 36.8125 0 
L 27.59375 0 
Q 17.1875 0 13.234375 3.875 
Q 9.28125 7.765625 9.28125 18.015625 
L 9.28125 47.703125 
L 2.6875 47.703125 
L 2.6875 54.6875 
L 9.28125 54.6875 
L 9.28125 70.21875 
z
" id="BitstreamVeraSans-Roman-74"/>
      <path d="M 41.109375 46.296875 
Q 39.59375 47.171875 37.8125 47.578125 
Q 36.03125 48 33.890625 48 
Q 26.265625 48 22.1875 43.046875 
Q 18.109375 38.09375 18.109375 28.8125 
L 18.109375 0 
L 9.078125 0 
L 9.078125 54.6875 
L 18.109375 54.6875 
L 18.109375 46.1875 
Q 20.953125 51.171875 25.484375 53.578125 
Q 30.03125 56 36.53125 56 
Q 37.453125 56 38.578125 55.875 
Q 39.703125 55.765625 41.0625 55.515625 
z
" id="BitstreamVeraSans-Roman-72"/>
      <path d="M 44.28125 53.078125 
L 44.28125 44.578125 
Q 40.484375 46.53125 36.375 47.5 
Q 32.28125 48.484375 27.875 48.484375 
Q 21.1875 48.484375 17.84375 46.4375 
Q 14.5 44.390625 14.5 40.28125 
Q 14.5 37.15625 16.890625 35.375 
Q 19.28125 33.59375 26.515625 31.984375 
L 29.59375 31.296875 
Q 39.15625 29.25 43.1875 25.515625 
Q 47.21875 21.78125 47.21875 15.09375 
Q 47.21875 7.46875 41.1875 3.015625 
Q 35.15625 -1.421875 24.609375 -1.421875 
Q 20.21875 -1.421875 15.453125 -0.5625 
Q 10.6875 0.296875 5.421875 2 
L 5.421875 11.28125 
Q 10.40625 8.6875 15.234375 7.390625 
Q 20.0625 6.109375 24.8125 6.109375 
Q 31.15625 6.109375 34.5625 8.28125 
Q 37.984375 10.453125 37.984375 14.40625 
Q 37.984375 18.0625 35.515625 20.015625 
Q 33.0625 21.96875 24.703125 23.78125 
L 21.578125 24.515625 
Q 13.234375 26.265625 9.515625 29.90625 
Q 5.8125 33.546875 5.8125 39.890625 
Q 5.8125 47.609375 11.28125 51.796875 
Q 16.75 56 26.8125 56 
Q 31.78125 56 36.171875 55.265625 
Q 40.578125 54.546875 44.28125 53.078125 
" id="BitstreamVeraSans-Roman-73"/>
     </defs>
     <g transform="translate(655.11265625 831.1678125)scale(0.3 -0.3)">
      <use xlink:href="#BitstreamVeraSans-Roman-69"/>
      <use x="27.783203125" xlink:href="#BitstreamVeraSans-Roman-74"/>
      <use x="66.9921875" xlink:href="#BitstreamVeraSans-Roman-65"/>
      <use x="128.515625" xlink:href="#BitstreamVeraSans-Roman-72"/>
      <use x="169.62890625" xlink:href="#BitstreamVeraSans-Roman-61"/>
      <use x="230.908203125" xlink:href="#BitstreamVeraSans-Roman-74"/>
      <use x="270.1171875" xlink:href="#BitstreamVeraSans-Roman-69"/>
      <use x="297.900390625" xlink:href="#BitstreamVeraSans-Roman-6f"/>
      <use x="359.08203125" xlink:href="#BitstreamVeraSans-Roman-6e"/>
      <use x="422.4609375" xlink:href="#BitstreamVeraSans-Roman-73"/>
     </g>
    </g>
   </g>
   <g id="matplotlib.axis_2">
    <g id="ytick_1">
     <g id="line2d_15">
      <defs>
       <path d="M 0 0 
L 4 0 
" id="m4b70c3e60c" style="stroke:#000000;stroke-width:0.5;"/>
      </defs>
      <g>
       <use style="stroke:#000000;stroke-width:0.5;" x="70.7575" xlink:href="#m4b70c3e60c" y="770.338125"/>
      </g>
     </g>
     <g id="line2d_16">
      <defs>
       <path d="M 0 0 
L -4 0 
" id="m42a01448ae" style="stroke:#000000;stroke-width:0.5;"/>
      </defs>
      <g>
       <use style="stroke:#000000;stroke-width:0.5;" x="1381.831875" xlink:href="#m42a01448ae" y="770.338125"/>
      </g>
     </g>
     <g id="text_8">
      <!-- 5 -->
      <g transform="translate(47.67 778.61625)scale(0.3 -0.3)">
       <use xlink:href="#BitstreamVeraSans-Roman-35"/>
      </g>
     </g>
    </g>
    <g id="ytick_2">
     <g id="line2d_17">
      <g>
       <use style="stroke:#000000;stroke-width:0.5;" x="70.7575" xlink:href="#m4b70c3e60c" y="681.285332031"/>
      </g>
     </g>
     <g id="line2d_18">
      <g>
       <use style="stroke:#000000;stroke-width:0.5;" x="1381.831875" xlink:href="#m42a01448ae" y="681.285332031"/>
      </g>
     </g>
     <g id="text_9">
      <!-- 6 -->
      <defs>
       <path d="M 33.015625 40.375 
Q 26.375 40.375 22.484375 35.828125 
Q 18.609375 31.296875 18.609375 23.390625 
Q 18.609375 15.53125 22.484375 10.953125 
Q 26.375 6.390625 33.015625 6.390625 
Q 39.65625 6.390625 43.53125 10.953125 
Q 47.40625 15.53125 47.40625 23.390625 
Q 47.40625 31.296875 43.53125 35.828125 
Q 39.65625 40.375 33.015625 40.375 
M 52.59375 71.296875 
L 52.59375 62.3125 
Q 48.875 64.0625 45.09375 64.984375 
Q 41.3125 65.921875 37.59375 65.921875 
Q 27.828125 65.921875 22.671875 59.328125 
Q 17.53125 52.734375 16.796875 39.40625 
Q 19.671875 43.65625 24.015625 45.921875 
Q 28.375 48.1875 33.59375 48.1875 
Q 44.578125 48.1875 50.953125 41.515625 
Q 57.328125 34.859375 57.328125 23.390625 
Q 57.328125 12.15625 50.6875 5.359375 
Q 44.046875 -1.421875 33.015625 -1.421875 
Q 20.359375 -1.421875 13.671875 8.265625 
Q 6.984375 17.96875 6.984375 36.375 
Q 6.984375 53.65625 15.1875 63.9375 
Q 23.390625 74.21875 37.203125 74.21875 
Q 40.921875 74.21875 44.703125 73.484375 
Q 48.484375 72.75 52.59375 71.296875 
" id="BitstreamVeraSans-Roman-36"/>
      </defs>
      <g transform="translate(47.67 689.563457031)scale(0.3 -0.3)">
       <use xlink:href="#BitstreamVeraSans-Roman-36"/>
      </g>
     </g>
    </g>
    <g id="ytick_3">
     <g id="line2d_19">
      <g>
       <use style="stroke:#000000;stroke-width:0.5;" x="70.7575" xlink:href="#m4b70c3e60c" y="592.232539063"/>
      </g>
     </g>
     <g id="line2d_20">
      <g>
       <use style="stroke:#000000;stroke-width:0.5;" x="1381.831875" xlink:href="#m42a01448ae" y="592.232539063"/>
      </g>
     </g>
     <g id="text_10">
      <!-- 7 -->
      <defs>
       <path d="M 8.203125 72.90625 
L 55.078125 72.90625 
L 55.078125 68.703125 
L 28.609375 0 
L 18.3125 0 
L 43.21875 64.59375 
L 8.203125 64.59375 
z
" id="BitstreamVeraSans-Roman-37"/>
      </defs>
      <g transform="translate(47.67 600.510664063)scale(0.3 -0.3)">
       <use xlink:href="#BitstreamVeraSans-Roman-37"/>
      </g>
     </g>
    </g>
    <g id="ytick_4">
     <g id="line2d_21">
      <g>
       <use style="stroke:#000000;stroke-width:0.5;" x="70.7575" xlink:href="#m4b70c3e60c" y="503.179746094"/>
      </g>
     </g>
     <g id="line2d_22">
      <g>
       <use style="stroke:#000000;stroke-width:0.5;" x="1381.831875" xlink:href="#m42a01448ae" y="503.179746094"/>
      </g>
     </g>
     <g id="text_11">
      <!-- 8 -->
      <defs>
       <path d="M 31.78125 34.625 
Q 24.75 34.625 20.71875 30.859375 
Q 16.703125 27.09375 16.703125 20.515625 
Q 16.703125 13.921875 20.71875 10.15625 
Q 24.75 6.390625 31.78125 6.390625 
Q 38.8125 6.390625 42.859375 10.171875 
Q 46.921875 13.96875 46.921875 20.515625 
Q 46.921875 27.09375 42.890625 30.859375 
Q 38.875 34.625 31.78125 34.625 
M 21.921875 38.8125 
Q 15.578125 40.375 12.03125 44.71875 
Q 8.5 49.078125 8.5 55.328125 
Q 8.5 64.0625 14.71875 69.140625 
Q 20.953125 74.21875 31.78125 74.21875 
Q 42.671875 74.21875 48.875 69.140625 
Q 55.078125 64.0625 55.078125 55.328125 
Q 55.078125 49.078125 51.53125 44.71875 
Q 48 40.375 41.703125 38.8125 
Q 48.828125 37.15625 52.796875 32.3125 
Q 56.78125 27.484375 56.78125 20.515625 
Q 56.78125 9.90625 50.3125 4.234375 
Q 43.84375 -1.421875 31.78125 -1.421875 
Q 19.734375 -1.421875 13.25 4.234375 
Q 6.78125 9.90625 6.78125 20.515625 
Q 6.78125 27.484375 10.78125 32.3125 
Q 14.796875 37.15625 21.921875 38.8125 
M 18.3125 54.390625 
Q 18.3125 48.734375 21.84375 45.5625 
Q 25.390625 42.390625 31.78125 42.390625 
Q 38.140625 42.390625 41.71875 45.5625 
Q 45.3125 48.734375 45.3125 54.390625 
Q 45.3125 60.0625 41.71875 63.234375 
Q 38.140625 66.40625 31.78125 66.40625 
Q 25.390625 66.40625 21.84375 63.234375 
Q 18.3125 60.0625 18.3125 54.390625 
" id="BitstreamVeraSans-Roman-38"/>
      </defs>
      <g transform="translate(47.67 511.457871094)scale(0.3 -0.3)">
       <use xlink:href="#BitstreamVeraSans-Roman-38"/>
      </g>
     </g>
    </g>
    <g id="ytick_5">
     <g id="line2d_23">
      <g>
       <use style="stroke:#000000;stroke-width:0.5;" x="70.7575" xlink:href="#m4b70c3e60c" y="414.126953125"/>
      </g>
     </g>
     <g id="line2d_24">
      <g>
       <use style="stroke:#000000;stroke-width:0.5;" x="1381.831875" xlink:href="#m42a01448ae" y="414.126953125"/>
      </g>
     </g>
     <g id="text_12">
      <!-- 9 -->
      <defs>
       <path d="M 10.984375 1.515625 
L 10.984375 10.5 
Q 14.703125 8.734375 18.5 7.8125 
Q 22.3125 6.890625 25.984375 6.890625 
Q 35.75 6.890625 40.890625 13.453125 
Q 46.046875 20.015625 46.78125 33.40625 
Q 43.953125 29.203125 39.59375 26.953125 
Q 35.25 24.703125 29.984375 24.703125 
Q 19.046875 24.703125 12.671875 31.3125 
Q 6.296875 37.9375 6.296875 49.421875 
Q 6.296875 60.640625 12.9375 67.421875 
Q 19.578125 74.21875 30.609375 74.21875 
Q 43.265625 74.21875 49.921875 64.515625 
Q 56.59375 54.828125 56.59375 36.375 
Q 56.59375 19.140625 48.40625 8.859375 
Q 40.234375 -1.421875 26.421875 -1.421875 
Q 22.703125 -1.421875 18.890625 -0.6875 
Q 15.09375 0.046875 10.984375 1.515625 
M 30.609375 32.421875 
Q 37.25 32.421875 41.125 36.953125 
Q 45.015625 41.5 45.015625 49.421875 
Q 45.015625 57.28125 41.125 61.84375 
Q 37.25 66.40625 30.609375 66.40625 
Q 23.96875 66.40625 20.09375 61.84375 
Q 16.21875 57.28125 16.21875 49.421875 
Q 16.21875 41.5 20.09375 36.953125 
Q 23.96875 32.421875 30.609375 32.421875 
" id="BitstreamVeraSans-Roman-39"/>
      </defs>
      <g transform="translate(47.67 422.405078125)scale(0.3 -0.3)">
       <use xlink:href="#BitstreamVeraSans-Roman-39"/>
      </g>
     </g>
    </g>
    <g id="ytick_6">
     <g id="line2d_25">
      <g>
       <use style="stroke:#000000;stroke-width:0.5;" x="70.7575" xlink:href="#m4b70c3e60c" y="325.074160156"/>
      </g>
     </g>
     <g id="line2d_26">
      <g>
       <use style="stroke:#000000;stroke-width:0.5;" x="1381.831875" xlink:href="#m42a01448ae" y="325.074160156"/>
      </g>
     </g>
     <g id="text_13">
      <!-- 10 -->
      <g transform="translate(28.5825 333.352285156)scale(0.3 -0.3)">
       <use xlink:href="#BitstreamVeraSans-Roman-31"/>
       <use x="63.623046875" xlink:href="#BitstreamVeraSans-Roman-30"/>
      </g>
     </g>
    </g>
    <g id="ytick_7">
     <g id="line2d_27">
      <g>
       <use style="stroke:#000000;stroke-width:0.5;" x="70.7575" xlink:href="#m4b70c3e60c" y="236.021367188"/>
      </g>
     </g>
     <g id="line2d_28">
      <g>
       <use style="stroke:#000000;stroke-width:0.5;" x="1381.831875" xlink:href="#m42a01448ae" y="236.021367188"/>
      </g>
     </g>
     <g id="text_14">
      <!-- 11 -->
      <g transform="translate(28.5825 244.299492188)scale(0.3 -0.3)">
       <use xlink:href="#BitstreamVeraSans-Roman-31"/>
       <use x="63.623046875" xlink:href="#BitstreamVeraSans-Roman-31"/>
      </g>
     </g>
    </g>
    <g id="ytick_8">
     <g id="line2d_29">
      <g>
       <use style="stroke:#000000;stroke-width:0.5;" x="70.7575" xlink:href="#m4b70c3e60c" y="146.968574219"/>
      </g>
     </g>
     <g id="line2d_30">
      <g>
       <use style="stroke:#000000;stroke-width:0.5;" x="1381.831875" xlink:href="#m42a01448ae" y="146.968574219"/>
      </g>
     </g>
     <g id="text_15">
      <!-- 12 -->
      <g transform="translate(28.5825 155.246699219)scale(0.3 -0.3)">
       <use xlink:href="#BitstreamVeraSans-Roman-31"/>
       <use x="63.623046875" xlink:href="#BitstreamVeraSans-Roman-32"/>
      </g>
     </g>
    </g>
    <g id="ytick_9">
     <g id="line2d_31">
      <g>
       <use style="stroke:#000000;stroke-width:0.5;" x="70.7575" xlink:href="#m4b70c3e60c" y="57.91578125"/>
      </g>
     </g>
     <g id="line2d_32">
      <g>
       <use style="stroke:#000000;stroke-width:0.5;" x="1381.831875" xlink:href="#m42a01448ae" y="57.91578125"/>
      </g>
     </g>
     <g id="text_16">
      <!-- 13 -->
      <g transform="translate(28.5825 66.19390625)scale(0.3 -0.3)">
       <use xlink:href="#BitstreamVeraSans-Roman-31"/>
       <use x="63.623046875" xlink:href="#BitstreamVeraSans-Roman-33"/>
      </g>
     </g>
    </g>
   </g>
   <g id="text_17">
    <!-- log(loss) -->
    <defs>
     <path d="M 8.015625 75.875 
L 15.828125 75.875 
Q 23.140625 64.359375 26.78125 53.3125 
Q 30.421875 42.28125 30.421875 31.390625 
Q 30.421875 20.453125 26.78125 9.375 
Q 23.140625 -1.703125 15.828125 -13.1875 
L 8.015625 -13.1875 
Q 14.5 -2 17.703125 9.0625 
Q 20.90625 20.125 20.90625 31.390625 
Q 20.90625 42.671875 17.703125 53.65625 
Q 14.5 64.65625 8.015625 75.875 
" id="BitstreamVeraSans-Roman-29"/>
     <path d="M 31 75.875 
Q 24.46875 64.65625 21.28125 53.65625 
Q 18.109375 42.671875 18.109375 31.390625 
Q 18.109375 20.125 21.3125 9.0625 
Q 24.515625 -2 31 -13.1875 
L 23.1875 -13.1875 
Q 15.875 -1.703125 12.234375 9.375 
Q 8.59375 20.453125 8.59375 31.390625 
Q 8.59375 42.28125 12.203125 53.3125 
Q 15.828125 64.359375 23.1875 75.875 
z
" id="BitstreamVeraSans-Roman-28"/>
     <path d="M 45.40625 27.984375 
Q 45.40625 37.75 41.375 43.109375 
Q 37.359375 48.484375 30.078125 48.484375 
Q 22.859375 48.484375 18.828125 43.109375 
Q 14.796875 37.75 14.796875 27.984375 
Q 14.796875 18.265625 18.828125 12.890625 
Q 22.859375 7.515625 30.078125 7.515625 
Q 37.359375 7.515625 41.375 12.890625 
Q 45.40625 18.265625 45.40625 27.984375 
M 54.390625 6.78125 
Q 54.390625 -7.171875 48.1875 -13.984375 
Q 42 -20.796875 29.203125 -20.796875 
Q 24.46875 -20.796875 20.265625 -20.09375 
Q 16.0625 -19.390625 12.109375 -17.921875 
L 12.109375 -9.1875 
Q 16.0625 -11.328125 19.921875 -12.34375 
Q 23.78125 -13.375 27.78125 -13.375 
Q 36.625 -13.375 41.015625 -8.765625 
Q 45.40625 -4.15625 45.40625 5.171875 
L 45.40625 9.625 
Q 42.625 4.78125 38.28125 2.390625 
Q 33.9375 0 27.875 0 
Q 17.828125 0 11.671875 7.65625 
Q 5.515625 15.328125 5.515625 27.984375 
Q 5.515625 40.671875 11.671875 48.328125 
Q 17.828125 56 27.875 56 
Q 33.9375 56 38.28125 53.609375 
Q 42.625 51.21875 45.40625 46.390625 
L 45.40625 54.6875 
L 54.390625 54.6875 
z
" id="BitstreamVeraSans-Roman-67"/>
     <path d="M 9.421875 75.984375 
L 18.40625 75.984375 
L 18.40625 0 
L 9.421875 0 
z
" id="BitstreamVeraSans-Roman-6c"/>
    </defs>
    <g transform="translate(662.74859375 52.91578125)scale(0.3 -0.3)">
     <use xlink:href="#BitstreamVeraSans-Roman-6c"/>
     <use x="27.783203125" xlink:href="#BitstreamVeraSans-Roman-6f"/>
     <use x="88.96484375" xlink:href="#BitstreamVeraSans-Roman-67"/>
     <use x="152.44140625" xlink:href="#BitstreamVeraSans-Roman-28"/>
     <use x="191.455078125" xlink:href="#BitstreamVeraSans-Roman-6c"/>
     <use x="219.23828125" xlink:href="#BitstreamVeraSans-Roman-6f"/>
     <use x="280.419921875" xlink:href="#BitstreamVeraSans-Roman-73"/>
     <use x="332.51953125" xlink:href="#BitstreamVeraSans-Roman-73"/>
     <use x="384.619140625" xlink:href="#BitstreamVeraSans-Roman-29"/>
    </g>
   </g>
   <g id="legend_1">
    <g id="patch_7">
     <path d="M 1142.47875 169.984531 
L 1366.831875 169.984531 
L 1366.831875 72.915781 
L 1142.47875 72.915781 
z
" style="fill:#ffffff;stroke:#000000;stroke-linejoin:miter;"/>
    </g>
    <g id="line2d_33">
     <path d="M 1163.47875 97.211094 
L 1205.47875 97.211094 
" style="fill:none;stroke:#0000ff;stroke-linecap:square;stroke-width:2.0;"/>
    </g>
    <g id="line2d_34"/>
    <g id="text_18">
     <!-- random -->
     <defs>
      <path d="M 45.40625 46.390625 
L 45.40625 75.984375 
L 54.390625 75.984375 
L 54.390625 0 
L 45.40625 0 
L 45.40625 8.203125 
Q 42.578125 3.328125 38.25 0.953125 
Q 33.9375 -1.421875 27.875 -1.421875 
Q 17.96875 -1.421875 11.734375 6.484375 
Q 5.515625 14.40625 5.515625 27.296875 
Q 5.515625 40.1875 11.734375 48.09375 
Q 17.96875 56 27.875 56 
Q 33.9375 56 38.25 53.625 
Q 42.578125 51.265625 45.40625 46.390625 
M 14.796875 27.296875 
Q 14.796875 17.390625 18.875 11.75 
Q 22.953125 6.109375 30.078125 6.109375 
Q 37.203125 6.109375 41.296875 11.75 
Q 45.40625 17.390625 45.40625 27.296875 
Q 45.40625 37.203125 41.296875 42.84375 
Q 37.203125 48.484375 30.078125 48.484375 
Q 22.953125 48.484375 18.875 42.84375 
Q 14.796875 37.203125 14.796875 27.296875 
" id="BitstreamVeraSans-Roman-64"/>
      <path d="M 52 44.1875 
Q 55.375 50.25 60.0625 53.125 
Q 64.75 56 71.09375 56 
Q 79.640625 56 84.28125 50.015625 
Q 88.921875 44.046875 88.921875 33.015625 
L 88.921875 0 
L 79.890625 0 
L 79.890625 32.71875 
Q 79.890625 40.578125 77.09375 44.375 
Q 74.3125 48.1875 68.609375 48.1875 
Q 61.625 48.1875 57.5625 43.546875 
Q 53.515625 38.921875 53.515625 30.90625 
L 53.515625 0 
L 44.484375 0 
L 44.484375 32.71875 
Q 44.484375 40.625 41.703125 44.40625 
Q 38.921875 48.1875 33.109375 48.1875 
Q 26.21875 48.1875 22.15625 43.53125 
Q 18.109375 38.875 18.109375 30.90625 
L 18.109375 0 
L 9.078125 0 
L 9.078125 54.6875 
L 18.109375 54.6875 
L 18.109375 46.1875 
Q 21.1875 51.21875 25.484375 53.609375 
Q 29.78125 56 35.6875 56 
Q 41.65625 56 45.828125 52.96875 
Q 50 49.953125 52 44.1875 
" id="BitstreamVeraSans-Roman-6d"/>
     </defs>
     <g transform="translate(1238.47875 107.71109375)scale(0.3 -0.3)">
      <use xlink:href="#BitstreamVeraSans-Roman-72"/>
      <use x="41.11328125" xlink:href="#BitstreamVeraSans-Roman-61"/>
      <use x="102.392578125" xlink:href="#BitstreamVeraSans-Roman-6e"/>
      <use x="165.771484375" xlink:href="#BitstreamVeraSans-Roman-64"/>
      <use x="229.248046875" xlink:href="#BitstreamVeraSans-Roman-6f"/>
      <use x="290.4296875" xlink:href="#BitstreamVeraSans-Roman-6d"/>
     </g>
    </g>
    <g id="line2d_35">
     <path d="M 1163.47875 141.245469 
L 1205.47875 141.245469 
" style="fill:none;stroke:#008000;stroke-linecap:square;stroke-width:2.0;"/>
    </g>
    <g id="line2d_36"/>
    <g id="text_19">
     <!-- corr -->
     <defs>
      <path d="M 48.78125 52.59375 
L 48.78125 44.1875 
Q 44.96875 46.296875 41.140625 47.34375 
Q 37.3125 48.390625 33.40625 48.390625 
Q 24.65625 48.390625 19.8125 42.84375 
Q 14.984375 37.3125 14.984375 27.296875 
Q 14.984375 17.28125 19.8125 11.734375 
Q 24.65625 6.203125 33.40625 6.203125 
Q 37.3125 6.203125 41.140625 7.25 
Q 44.96875 8.296875 48.78125 10.40625 
L 48.78125 2.09375 
Q 45.015625 0.34375 40.984375 -0.53125 
Q 36.96875 -1.421875 32.421875 -1.421875 
Q 20.0625 -1.421875 12.78125 6.34375 
Q 5.515625 14.109375 5.515625 27.296875 
Q 5.515625 40.671875 12.859375 48.328125 
Q 20.21875 56 33.015625 56 
Q 37.15625 56 41.109375 55.140625 
Q 45.0625 54.296875 48.78125 52.59375 
" id="BitstreamVeraSans-Roman-63"/>
     </defs>
     <g transform="translate(1238.47875 151.74546875)scale(0.3 -0.3)">
      <use xlink:href="#BitstreamVeraSans-Roman-63"/>
      <use x="54.98046875" xlink:href="#BitstreamVeraSans-Roman-6f"/>
      <use x="116.162109375" xlink:href="#BitstreamVeraSans-Roman-72"/>
      <use x="157.259765625" xlink:href="#BitstreamVeraSans-Roman-72"/>
     </g>
    </g>
   </g>
  </g>
 </g>
 <defs>
  <clipPath id="p6cc9f2c183">
   <rect height="712.42234375" width="1311.074375" x="70.7575" y="57.91578125"/>
  </clipPath>
 </defs>
</svg>
