<?xml version="1.0" encoding="utf-8" standalone="no"?>
<!DOCTYPE svg PUBLIC "-//W3C//DTD SVG 1.1//EN"
  "http://www.w3.org/Graphics/SVG/1.1/DTD/svg11.dtd">
<!-- Created with matplotlib (http://matplotlib.org/) -->
<svg height="864pt" version="1.1" viewBox="0 0 1440 864" width="1440pt" xmlns="http://www.w3.org/2000/svg" xmlns:xlink="http://www.w3.org/1999/xlink">
 <defs>
  <style type="text/css">
*{stroke-linecap:butt;stroke-linejoin:round;stroke-miterlimit:100000;}
  </style>
 </defs>
 <g id="figure_1">
  <g id="patch_1">
   <path d="M 0 864 
L 1440 864 
L 1440 0 
L 0 0 
z
" style="fill:#ffffff;"/>
  </g>
  <g id="axes_1">
   <g id="patch_2">
    <path d="M 134.325 747 
L 1359.9 747 
L 1359.9 51.3 
L 134.325 51.3 
z
" style="fill:#ffffff;"/>
   </g>
   <g id="line2d_1">
    <path clip-path="url(#pf46429869e)" d="M 134.325 115.251302 
L 135.550575 116.706852 
L 136.77615 117.846548 
L 138.001725 119.214906 
L 139.2273 119.333752 
L 140.452875 121.041841 
L 141.67845 121.762528 
L 142.904025 122.265862 
L 144.1296 123.23326 
L 145.355175 124.610658 
L 146.58075 125.144584 
L 147.806325 126.05241 
L 149.0319 127.863828 
L 150.257475 128.219822 
L 151.48305 127.97865 
L 153.9342 129.327751 
L 156.38535 130.960146 
L 157.610925 131.188304 
L 160.062075 132.83647 
L 161.28765 134.013142 
L 162.513225 134.739626 
L 164.964375 137.181482 
L 166.18995 138.157831 
L 167.415525 138.467165 
L 168.6411 139.409214 
L 169.866675 140.984018 
L 171.09225 142.054248 
L 172.317825 143.406392 
L 173.5434 143.994556 
L 174.768975 144.99636 
L 175.99455 145.080591 
L 177.220125 145.922898 
L 178.4457 146.958659 
L 179.671275 147.135028 
L 180.89685 148.114628 
L 182.122425 148.227098 
L 183.348 149.246308 
L 184.573575 149.942242 
L 185.79915 151.535303 
L 187.024725 151.974649 
L 189.475875 155.17635 
L 190.70145 155.754992 
L 194.378175 157.221216 
L 195.60375 157.28732 
L 196.829325 158.168858 
L 198.0549 158.570269 
L 200.50605 158.94765 
L 201.731625 160.604059 
L 202.9572 160.571934 
L 204.182775 160.966211 
L 205.40835 161.653261 
L 206.633925 162.767099 
L 209.085075 163.743897 
L 210.31065 164.699338 
L 211.536225 165.402948 
L 212.7618 167.210235 
L 213.987375 166.887251 
L 215.21295 167.616237 
L 216.438525 169.528978 
L 217.6641 169.982767 
L 220.11525 171.305555 
L 221.340825 172.100623 
L 223.791975 174.460577 
L 225.01755 173.688277 
L 227.4687 174.374691 
L 228.694275 175.070799 
L 229.91985 176.096643 
L 232.371 176.751863 
L 233.596575 178.597853 
L 234.82215 179.02194 
L 236.047725 179.792595 
L 237.2733 180.396784 
L 238.498875 181.868058 
L 239.72445 182.14129 
L 240.950025 182.723369 
L 242.1756 184.276738 
L 244.62675 185.723013 
L 245.852325 187.367909 
L 247.0779 187.518605 
L 248.303475 186.946952 
L 249.52905 185.329489 
L 250.754625 185.798013 
L 251.9802 187.248097 
L 254.43135 188.53492 
L 256.8825 188.644539 
L 258.108075 189.634502 
L 259.33365 190.106019 
L 261.7848 192.180138 
L 263.010375 192.203057 
L 265.461525 193.617218 
L 266.6871 194.644099 
L 267.912675 195.94587 
L 269.13825 195.800128 
L 270.363825 196.663471 
L 271.5894 198.051862 
L 272.814975 198.053549 
L 274.04055 198.990945 
L 275.266125 200.426841 
L 276.4917 201.564009 
L 277.717275 201.804945 
L 278.94285 202.793241 
L 281.394 205.28997 
L 285.070725 206.952433 
L 286.2963 207.286509 
L 288.74745 210.873674 
L 289.973025 210.892233 
L 291.1986 211.638294 
L 292.424175 211.917122 
L 293.64975 213.217825 
L 294.875325 213.909063 
L 296.1009 214.049933 
L 297.326475 214.730829 
L 298.55205 215.7403 
L 299.777625 215.711607 
L 301.0032 217.26642 
L 303.45435 218.583244 
L 304.679925 218.726339 
L 305.9055 218.518082 
L 307.131075 220.013556 
L 309.582225 221.088522 
L 310.8078 222.683346 
L 312.033375 223.617483 
L 313.25895 224.223395 
L 314.484525 222.893913 
L 315.7101 223.339059 
L 316.935675 224.052893 
L 320.6124 226.923067 
L 321.837975 226.893062 
L 323.06355 228.084869 
L 325.5147 228.901723 
L 327.96585 231.814807 
L 331.642575 234.439294 
L 332.86815 234.516769 
L 335.3193 235.739774 
L 336.544875 236.118211 
L 337.77045 238.045355 
L 340.2216 239.385623 
L 341.447175 241.373549 
L 342.67275 240.527674 
L 343.898325 241.34316 
L 345.1239 241.124672 
L 346.349475 242.341144 
L 347.57505 242.453345 
L 348.800625 242.130035 
L 351.251775 243.253016 
L 353.702925 244.177855 
L 354.9285 243.925898 
L 356.154075 245.084374 
L 358.605225 245.741531 
L 359.8308 245.719594 
L 361.056375 246.98936 
L 362.28195 247.607708 
L 363.507525 248.034798 
L 364.7331 248.793106 
L 365.958675 249.76894 
L 367.18425 250.314036 
L 368.409825 250.996957 
L 369.6354 251.902406 
L 370.860975 254.18499 
L 372.08655 254.78386 
L 373.312125 255.947051 
L 374.5377 256.780057 
L 376.98885 257.27577 
L 378.214425 257.924581 
L 379.44 258.162175 
L 380.665575 259.308489 
L 381.89115 260.156207 
L 383.116725 260.017866 
L 384.3423 260.557707 
L 385.567875 260.641436 
L 386.79345 261.872374 
L 388.019025 262.060428 
L 389.2446 262.783866 
L 390.470175 262.89575 
L 394.1469 265.737718 
L 395.372475 267.486542 
L 396.59805 268.267142 
L 397.823625 269.373939 
L 399.0492 269.830768 
L 402.725925 269.954492 
L 403.9515 270.411028 
L 405.177075 270.998252 
L 406.40265 271.896824 
L 408.8538 274.793873 
L 411.30495 277.352334 
L 412.530525 277.512382 
L 413.7561 278.21602 
L 414.981675 279.063139 
L 416.20725 280.285867 
L 419.883975 281.00427 
L 421.10955 282.720332 
L 422.335125 283.402083 
L 423.5607 285.098301 
L 424.786275 285.555936 
L 426.01185 286.254288 
L 427.237425 287.586045 
L 428.463 287.666245 
L 429.688575 288.59314 
L 432.139725 289.759196 
L 433.3653 290.355296 
L 434.590875 291.606963 
L 435.81645 292.193675 
L 438.2676 294.656937 
L 439.493175 294.799068 
L 440.71875 295.529711 
L 441.944325 295.660605 
L 443.1699 296.394965 
L 444.395475 297.583038 
L 445.62105 298.340501 
L 448.0722 299.486741 
L 449.297775 300.390226 
L 450.52335 300.929076 
L 451.748925 301.942922 
L 452.9745 301.818388 
L 454.200075 302.08925 
L 455.42565 302.70963 
L 456.651225 302.813632 
L 457.8768 302.744819 
L 459.102375 302.960492 
L 461.553525 305.687366 
L 462.7791 305.604222 
L 464.004675 306.347087 
L 465.23025 306.874376 
L 466.455825 307.529392 
L 467.6814 307.909149 
L 470.13255 309.365978 
L 472.5837 310.000819 
L 476.260425 312.013655 
L 477.486 312.226508 
L 478.711575 312.877712 
L 481.162725 314.836594 
L 482.3883 316.944855 
L 483.613875 318.083128 
L 484.83945 319.504424 
L 486.065025 319.718311 
L 487.2906 320.21703 
L 488.516175 321.439656 
L 489.74175 321.681973 
L 490.967325 322.830132 
L 492.1929 323.701858 
L 493.418475 323.690911 
L 494.64405 324.119848 
L 497.0952 326.030586 
L 498.320775 326.680199 
L 499.54635 327.910108 
L 500.771925 327.520792 
L 501.9975 327.869678 
L 503.223075 328.397947 
L 504.44865 328.711665 
L 506.8998 330.307257 
L 508.125375 331.673832 
L 509.35095 332.579037 
L 513.027675 334.707735 
L 514.25325 335.979461 
L 515.478825 335.598516 
L 516.7044 336.549741 
L 517.929975 336.843501 
L 519.15555 337.904262 
L 520.381125 337.862981 
L 521.6067 337.312374 
L 524.05785 338.12705 
L 525.283425 338.866156 
L 526.509 339.447849 
L 527.734575 340.481406 
L 528.96015 340.829585 
L 530.185725 341.701744 
L 531.4113 342.217431 
L 532.636875 343.568666 
L 533.86245 344.635903 
L 535.088025 344.016091 
L 536.3136 343.011271 
L 538.76475 343.710008 
L 541.2159 345.42727 
L 542.441475 345.518685 
L 543.66705 344.97152 
L 544.892625 345.824687 
L 546.1182 346.185344 
L 548.56935 348.180876 
L 549.794925 348.539094 
L 551.0205 349.03017 
L 552.246075 350.30217 
L 553.47165 350.485407 
L 554.697225 351.724571 
L 555.9228 352.717482 
L 557.148375 353.430519 
L 558.37395 353.796213 
L 559.599525 354.934288 
L 560.8251 356.23496 
L 562.050675 356.425932 
L 563.27625 356.749908 
L 564.501825 357.804473 
L 565.7274 359.154823 
L 566.952975 359.650839 
L 568.17855 359.3849 
L 569.404125 359.624174 
L 570.6297 361.012412 
L 571.855275 361.959783 
L 573.08085 362.658921 
L 574.306425 363.15783 
L 575.532 363.271425 
L 576.757575 363.956197 
L 577.98315 363.299935 
L 579.208725 362.947463 
L 580.4343 364.472997 
L 581.659875 365.699508 
L 584.111025 367.674687 
L 585.3366 368.161363 
L 586.562175 367.511436 
L 587.78775 368.04385 
L 589.013325 367.688161 
L 590.2389 367.451294 
L 592.69005 369.166439 
L 593.915625 370.041846 
L 595.1412 370.654634 
L 597.59235 370.246889 
L 600.0435 371.021762 
L 601.269075 372.205296 
L 602.49465 374.257465 
L 603.720225 374.831541 
L 604.9458 374.428811 
L 606.171375 374.641221 
L 607.39695 375.533403 
L 608.622525 376.890356 
L 609.8481 378.775719 
L 611.073675 379.272119 
L 612.29925 379.377966 
L 613.524825 380.932675 
L 614.7504 381.571182 
L 615.975975 382.585439 
L 617.20155 383.891963 
L 618.427125 384.595228 
L 619.6527 385.772816 
L 620.878275 386.379712 
L 623.329425 388.356859 
L 624.555 387.98701 
L 627.00615 388.045987 
L 628.231725 389.158016 
L 629.4573 390.508742 
L 630.682875 391.637859 
L 631.90845 391.80298 
L 633.134025 392.554103 
L 634.3596 394.120424 
L 635.585175 394.394098 
L 636.81075 395.472942 
L 638.036325 397.016561 
L 639.2619 397.574673 
L 640.487475 397.835825 
L 641.71305 397.78333 
L 642.938625 398.223767 
L 645.389775 399.952401 
L 646.61535 400.84616 
L 647.840925 402.097265 
L 649.0665 401.790916 
L 650.292075 402.538876 
L 651.51765 403.452806 
L 652.743225 403.313973 
L 653.9688 404.39281 
L 655.194375 404.162142 
L 656.41995 405.330474 
L 657.645525 405.267842 
L 658.8711 406.263383 
L 660.096675 406.474821 
L 661.32225 407.073045 
L 662.547825 408.102838 
L 663.7734 408.526411 
L 664.998975 408.823384 
L 666.22455 409.393384 
L 667.450125 409.680945 
L 668.6757 408.365696 
L 669.901275 409.696921 
L 671.12685 410.446564 
L 672.352425 412.147074 
L 673.578 410.956104 
L 674.803575 410.577587 
L 676.02915 411.177329 
L 677.254725 412.518604 
L 678.4803 413.610305 
L 679.705875 414.437796 
L 680.93145 414.841875 
L 682.157025 414.729932 
L 683.3826 415.333143 
L 684.608175 415.690724 
L 688.2849 418.09025 
L 689.510475 419.185996 
L 690.73605 420.089109 
L 691.961625 421.646598 
L 693.1872 421.645766 
L 694.412775 422.059205 
L 695.63835 423.521677 
L 696.863925 425.193701 
L 698.0895 425.721635 
L 699.315075 426.757554 
L 700.54065 426.764193 
L 701.766225 426.931764 
L 704.217375 429.347541 
L 705.44295 430.192379 
L 706.668525 428.839514 
L 707.8941 429.442356 
L 709.119675 430.20479 
L 710.34525 429.666291 
L 711.570825 429.975969 
L 712.7964 431.830534 
L 714.021975 431.997329 
L 715.24755 432.682248 
L 716.473125 432.970442 
L 717.6987 434.147748 
L 718.924275 434.920658 
L 720.14985 435.007093 
L 721.375425 435.514437 
L 722.601 436.450979 
L 723.826575 436.993968 
L 725.05215 436.974645 
L 726.277725 437.807061 
L 728.728875 438.578891 
L 729.95445 440.126318 
L 731.180025 441.173571 
L 732.4056 441.360105 
L 733.631175 440.974171 
L 734.85675 441.636473 
L 736.082325 443.234661 
L 737.3079 443.356412 
L 738.533475 443.727982 
L 739.75905 443.212537 
L 740.984625 444.561802 
L 742.2102 445.087553 
L 743.435775 446.325437 
L 744.66135 445.527129 
L 745.886925 445.996874 
L 747.1125 446.932205 
L 748.338075 446.91897 
L 749.56365 448.02719 
L 750.789225 449.309768 
L 752.0148 449.754134 
L 753.240375 449.615006 
L 754.46595 450.589768 
L 755.691525 450.709115 
L 756.9171 450.700968 
L 758.142675 452.249056 
L 759.36825 453.4609 
L 760.593825 453.362699 
L 761.8194 453.918041 
L 763.044975 454.669526 
L 764.27055 454.408647 
L 765.496125 455.448403 
L 766.7217 456.048134 
L 767.947275 455.076959 
L 769.17285 455.298098 
L 770.398425 455.883871 
L 771.624 456.66559 
L 772.849575 457.070613 
L 774.07515 457.185533 
L 775.300725 457.771998 
L 776.5263 457.674112 
L 777.751875 458.273156 
L 778.97745 458.194562 
L 780.203025 457.954927 
L 781.4286 459.011409 
L 783.87975 460.023809 
L 785.105325 461.208495 
L 786.3309 462.034989 
L 787.556475 461.579374 
L 788.78205 462.654087 
L 790.007625 463.507215 
L 792.458775 464.802003 
L 793.68435 464.760565 
L 798.58665 468.123875 
L 799.812225 468.802056 
L 803.48895 472.510282 
L 804.714525 473.505829 
L 805.9401 473.835938 
L 807.165675 474.676483 
L 808.39125 474.862291 
L 812.067975 474.676309 
L 813.29355 475.452485 
L 814.519125 475.612345 
L 816.970275 477.082598 
L 818.19585 478.078187 
L 819.421425 477.534779 
L 820.647 478.531601 
L 823.09815 479.657249 
L 824.323725 480.723505 
L 825.5493 481.144054 
L 826.774875 481.852854 
L 828.00045 481.921438 
L 829.226025 482.865933 
L 830.4516 483.240305 
L 832.90275 485.121053 
L 834.128325 485.479757 
L 837.80505 487.49931 
L 839.030625 487.390629 
L 840.2562 488.109515 
L 841.481775 489.22448 
L 842.70735 489.52289 
L 843.932925 488.965922 
L 845.1585 489.544664 
L 846.384075 490.34118 
L 847.60965 491.446169 
L 848.835225 492.028686 
L 850.0608 492.463236 
L 851.286375 492.482107 
L 852.51195 493.423903 
L 853.737525 493.731796 
L 854.9631 493.790012 
L 856.188675 493.566 
L 857.41425 493.962857 
L 858.639825 495.056206 
L 859.8654 496.508668 
L 862.31655 498.599632 
L 863.542125 499.124888 
L 864.7677 499.251458 
L 865.993275 499.50191 
L 867.21885 500.08146 
L 868.444425 500.191439 
L 870.895575 502.210974 
L 872.12115 502.820953 
L 873.346725 504.679026 
L 874.5723 505.800899 
L 875.797875 506.377482 
L 878.249025 508.073623 
L 879.4746 508.287059 
L 880.700175 508.302642 
L 881.92575 508.885617 
L 883.151325 510.482783 
L 884.3769 511.251457 
L 885.602475 510.503217 
L 888.053625 512.204652 
L 889.2792 513.326215 
L 890.504775 513.621824 
L 891.73035 514.40947 
L 894.1815 516.182998 
L 895.407075 516.277792 
L 896.63265 516.787491 
L 897.858225 517.109673 
L 899.0838 517.591587 
L 900.309375 518.343987 
L 903.9861 519.787609 
L 905.211675 520.198502 
L 906.43725 520.167401 
L 907.662825 521.373627 
L 908.8884 522.188986 
L 910.113975 522.394471 
L 911.33955 523.127768 
L 913.7907 524.757367 
L 915.016275 525.963857 
L 916.24185 526.236134 
L 917.467425 527.161766 
L 918.693 527.88726 
L 919.918575 528.826266 
L 921.14415 530.343024 
L 924.820875 532.296853 
L 926.04645 531.949858 
L 927.272025 534.019217 
L 928.4976 534.284921 
L 929.723175 534.972665 
L 932.174325 536.746489 
L 933.3999 537.109267 
L 934.625475 538.434918 
L 937.076625 539.743853 
L 938.3022 540.913968 
L 939.527775 541.602748 
L 940.75335 542.740675 
L 941.978925 543.54181 
L 943.2045 542.216959 
L 944.430075 542.98073 
L 945.65565 542.554207 
L 946.881225 543.751638 
L 948.1068 543.730949 
L 949.332375 542.569002 
L 950.55795 543.481098 
L 951.783525 543.96312 
L 953.0091 544.299144 
L 954.234675 545.007825 
L 957.9114 544.879275 
L 959.136975 545.752267 
L 960.36255 547.900438 
L 961.588125 548.838773 
L 962.8137 550.217175 
L 964.039275 551.259632 
L 965.26485 551.940543 
L 966.490425 552.114424 
L 967.716 551.880013 
L 968.941575 553.05035 
L 970.16715 553.635995 
L 971.392725 554.585767 
L 972.6183 555.879008 
L 973.843875 556.743439 
L 975.06945 557.099142 
L 977.5206 559.130593 
L 978.746175 559.422263 
L 979.97175 558.404304 
L 981.197325 558.92776 
L 982.4229 559.654249 
L 983.648475 560.249223 
L 984.87405 561.247239 
L 986.099625 561.551037 
L 987.3252 561.71392 
L 988.550775 562.963654 
L 989.77635 563.64136 
L 991.001925 563.672292 
L 993.453075 564.620692 
L 994.67865 564.71973 
L 995.904225 565.049065 
L 998.355375 566.334453 
L 999.58095 567.168042 
L 1000.806525 567.796212 
L 1002.0321 568.112562 
L 1004.48325 570.09744 
L 1005.708825 570.398395 
L 1006.9344 571.157513 
L 1009.38555 572.029542 
L 1010.611125 573.132193 
L 1011.8367 572.778375 
L 1013.062275 573.260897 
L 1014.28785 572.612249 
L 1015.513425 573.283027 
L 1016.739 574.777642 
L 1019.19015 576.609086 
L 1020.415725 576.628141 
L 1021.6413 577.786733 
L 1022.866875 577.718197 
L 1024.09245 578.550506 
L 1025.318025 579.069391 
L 1026.5436 580.306158 
L 1028.99475 582.366382 
L 1030.220325 582.720219 
L 1032.671475 585.440336 
L 1033.89705 586.328871 
L 1035.122625 586.428433 
L 1036.3482 588.013565 
L 1037.573775 587.14574 
L 1040.024925 586.959561 
L 1041.2505 587.92734 
L 1042.476075 587.798414 
L 1043.70165 588.440239 
L 1044.927225 590.266918 
L 1046.1528 590.822805 
L 1048.60395 590.506922 
L 1049.829525 591.099005 
L 1051.0551 591.831966 
L 1052.280675 592.851813 
L 1053.50625 592.944697 
L 1054.731825 595.249091 
L 1058.40855 596.598138 
L 1059.634125 597.781456 
L 1060.8597 598.486734 
L 1062.085275 599.989622 
L 1063.31085 600.437534 
L 1064.536425 600.672321 
L 1065.762 601.525657 
L 1066.987575 602.015606 
L 1068.21315 602.639106 
L 1069.438725 602.857377 
L 1070.6643 603.251421 
L 1071.889875 603.841722 
L 1073.11545 603.969226 
L 1074.341025 604.627208 
L 1076.792175 605.719377 
L 1078.01775 606.327824 
L 1079.243325 606.225711 
L 1080.4689 606.586123 
L 1081.694475 608.871542 
L 1082.92005 609.396411 
L 1084.145625 610.702795 
L 1085.3712 611.722293 
L 1086.596775 612.328065 
L 1087.82235 613.81942 
L 1089.047925 614.665713 
L 1090.2735 615.972977 
L 1092.72465 616.282337 
L 1093.950225 616.664254 
L 1095.1758 617.554591 
L 1097.62695 617.681221 
L 1098.852525 618.8319 
L 1100.0781 618.442849 
L 1101.303675 618.753807 
L 1102.52925 619.530816 
L 1103.754825 619.443169 
L 1106.205975 620.454662 
L 1107.43155 622.285292 
L 1108.657125 622.710228 
L 1109.8827 622.690066 
L 1112.33385 625.147432 
L 1113.559425 625.866273 
L 1114.785 627.39167 
L 1116.010575 628.085441 
L 1117.23615 628.001831 
L 1118.461725 628.629125 
L 1122.13845 629.751165 
L 1123.364025 629.912291 
L 1125.815175 631.712844 
L 1127.04075 632.543108 
L 1128.266325 631.861594 
L 1129.4919 632.55752 
L 1130.717475 633.029294 
L 1131.94305 634.327298 
L 1133.168625 635.433265 
L 1134.3942 636.156957 
L 1138.070925 637.884051 
L 1139.2965 638.18928 
L 1140.522075 638.359557 
L 1141.74765 639.291321 
L 1142.973225 639.818845 
L 1144.1988 640.966172 
L 1145.424375 642.60147 
L 1146.64995 642.772011 
L 1147.875525 643.489374 
L 1150.326675 643.646826 
L 1151.55225 644.378599 
L 1155.228975 645.968186 
L 1156.45455 645.90814 
L 1157.680125 646.457406 
L 1158.9057 644.223642 
L 1160.131275 644.524367 
L 1161.35685 644.995477 
L 1162.582425 646.054143 
L 1163.808 647.547859 
L 1165.033575 647.88784 
L 1166.25915 648.038927 
L 1167.484725 648.585747 
L 1168.7103 648.694946 
L 1171.16145 650.58263 
L 1172.387025 650.933577 
L 1173.6126 652.224296 
L 1174.838175 653.679926 
L 1176.06375 652.530736 
L 1178.5149 653.423081 
L 1179.740475 653.922555 
L 1180.96605 653.550297 
L 1182.191625 654.088031 
L 1183.4172 655.998405 
L 1184.642775 656.774828 
L 1185.86835 656.412118 
L 1187.093925 656.50953 
L 1188.3195 656.250489 
L 1189.545075 658.008337 
L 1190.77065 658.293743 
L 1191.996225 659.414274 
L 1194.447375 659.709666 
L 1195.67295 659.490826 
L 1196.898525 660.051452 
L 1198.1241 661.127018 
L 1199.349675 662.054638 
L 1200.57525 662.742624 
L 1201.800825 663.238984 
L 1203.0264 663.47906 
L 1204.251975 664.005538 
L 1205.47755 664.153551 
L 1206.703125 664.500516 
L 1209.154275 665.711743 
L 1210.37985 665.706305 
L 1211.605425 665.573732 
L 1212.831 665.815732 
L 1215.28215 666.716367 
L 1216.507725 667.59114 
L 1217.7333 668.092954 
L 1218.958875 669.150343 
L 1220.18445 669.94684 
L 1221.410025 669.722385 
L 1222.6356 670.966813 
L 1223.861175 666.713791 
L 1226.312325 667.848213 
L 1227.5379 669.628718 
L 1229.98905 671.061389 
L 1231.214625 671.454478 
L 1232.4402 673.262956 
L 1234.89135 673.278678 
L 1236.116925 672.955229 
L 1237.3425 674.388406 
L 1238.568075 674.470325 
L 1239.79365 674.873491 
L 1241.019225 675.925954 
L 1242.2448 677.609229 
L 1243.470375 678.39705 
L 1244.69595 678.972922 
L 1245.921525 679.170363 
L 1248.372675 680.298802 
L 1249.59825 681.513005 
L 1250.823825 682.370554 
L 1252.0494 683.068251 
L 1253.274975 681.943462 
L 1254.50055 682.083717 
L 1255.726125 682.688218 
L 1256.9517 684.104421 
L 1258.177275 684.330677 
L 1259.40285 685.402671 
L 1260.628425 685.132832 
L 1261.854 686.311563 
L 1263.079575 686.844776 
L 1264.30515 687.641245 
L 1265.530725 688.249008 
L 1266.7563 689.230374 
L 1267.981875 689.048244 
L 1269.20745 690.16718 
L 1270.433025 690.987309 
L 1271.6586 688.281411 
L 1272.884175 688.938571 
L 1275.335325 691.34167 
L 1276.5609 691.88238 
L 1277.786475 693.042922 
L 1279.01205 696.031208 
L 1280.237625 696.434322 
L 1281.4632 697.179575 
L 1283.91435 698.283572 
L 1285.139925 698.183678 
L 1286.3655 699.018777 
L 1288.81665 700.082676 
L 1290.042225 700.382769 
L 1291.2678 701.12814 
L 1292.493375 702.675789 
L 1296.1701 703.964713 
L 1297.395675 704.464753 
L 1299.846825 706.20673 
L 1301.0724 707.526922 
L 1302.297975 708.627235 
L 1303.52355 708.748884 
L 1307.200275 710.88693 
L 1308.42585 711.585981 
L 1310.877 714.303969 
L 1313.32815 716.01419 
L 1314.553725 717.634858 
L 1315.7793 718.069011 
L 1317.004875 718.686195 
L 1318.23045 720.146822 
L 1321.907175 723.546158 
L 1323.13275 723.618658 
L 1324.358325 723.432222 
L 1325.5839 724.387573 
L 1326.809475 724.59834 
L 1328.03505 725.240588 
L 1329.260625 724.925163 
L 1330.4862 726.401427 
L 1331.711775 727.253935 
L 1332.93735 727.298149 
L 1336.614075 728.752243 
L 1337.83965 729.483158 
L 1339.065225 730.392425 
L 1340.2908 729.532743 
L 1341.516375 730.071525 
L 1343.967525 730.512251 
L 1345.1931 730.912246 
L 1346.418675 732.433337 
L 1347.64425 732.819678 
L 1348.869825 732.811724 
L 1350.0954 733.324946 
L 1351.320975 733.177392 
L 1352.54655 733.372951 
L 1354.9977 735.422294 
L 1356.223275 735.070508 
L 1357.44885 736.184465 
L 1358.674425 737.597541 
L 1358.674425 737.597541 
" style="fill:none;stroke:#0000ff;stroke-linecap:square;stroke-width:2.0;"/>
   </g>
   <g id="line2d_2">
    <path clip-path="url(#pf46429869e)" d="M 134.325 116.141365 
L 135.550575 117.818697 
L 139.2273 119.613225 
L 140.452875 121.501888 
L 141.67845 122.523319 
L 142.904025 122.95302 
L 144.1296 122.926315 
L 145.355175 123.6501 
L 146.58075 125.323897 
L 147.806325 126.27695 
L 149.0319 128.085884 
L 150.257475 129.298975 
L 151.48305 129.845102 
L 152.708625 131.131198 
L 153.9342 131.638375 
L 155.159775 133.28424 
L 156.38535 133.460671 
L 157.610925 133.763514 
L 158.8365 134.181724 
L 160.062075 134.425108 
L 161.28765 135.618864 
L 162.513225 136.33192 
L 163.7388 136.765024 
L 164.964375 137.033806 
L 166.18995 137.658902 
L 167.415525 139.287599 
L 168.6411 140.345399 
L 171.09225 141.841526 
L 173.5434 142.464509 
L 174.768975 143.421494 
L 175.99455 144.09583 
L 177.220125 145.767979 
L 178.4457 146.167571 
L 179.671275 147.048758 
L 180.89685 146.713327 
L 182.122425 147.753245 
L 183.348 149.222021 
L 184.573575 150.409142 
L 185.79915 152.037035 
L 187.024725 152.383821 
L 188.2503 154.326427 
L 190.70145 155.01164 
L 191.927025 155.846961 
L 193.1526 157.167351 
L 194.378175 157.721913 
L 195.60375 157.816082 
L 196.829325 158.806971 
L 198.0549 160.699821 
L 199.280475 161.016059 
L 200.50605 161.755951 
L 202.9572 164.238851 
L 204.182775 164.417076 
L 205.40835 164.434657 
L 206.633925 165.266444 
L 207.8595 165.408687 
L 209.085075 165.809158 
L 210.31065 166.690627 
L 211.536225 168.375936 
L 212.7618 169.257031 
L 213.987375 169.602079 
L 215.21295 169.271379 
L 216.438525 170.368861 
L 217.6641 170.531135 
L 218.889675 170.572003 
L 221.340825 172.310749 
L 222.5664 174.28845 
L 223.791975 174.753317 
L 225.01755 175.343209 
L 226.243125 175.605479 
L 227.4687 176.018708 
L 228.694275 177.10758 
L 231.145425 177.452676 
L 232.371 178.23235 
L 233.596575 178.595076 
L 234.82215 179.905904 
L 236.047725 180.47394 
L 237.2733 182.047743 
L 239.72445 183.324399 
L 240.950025 183.690672 
L 242.1756 184.731719 
L 243.401175 186.292486 
L 244.62675 186.845678 
L 245.852325 188.950376 
L 247.0779 188.955369 
L 248.303475 189.326953 
L 249.52905 190.643448 
L 250.754625 191.093031 
L 251.9802 191.281776 
L 253.205775 192.235694 
L 254.43135 192.285652 
L 255.656925 193.54032 
L 256.8825 194.388194 
L 258.108075 195.713803 
L 259.33365 195.491501 
L 260.559225 196.2793 
L 261.7848 198.198387 
L 263.010375 197.90145 
L 264.23595 198.225306 
L 265.461525 199.07176 
L 266.6871 199.254211 
L 267.912675 200.031372 
L 269.13825 200.54521 
L 270.363825 201.534748 
L 271.5894 201.796359 
L 272.814975 202.420764 
L 274.04055 203.520102 
L 276.4917 204.442523 
L 277.717275 205.789588 
L 280.168425 206.694163 
L 281.394 208.100363 
L 282.619575 208.155053 
L 285.070725 209.357531 
L 286.2963 209.323915 
L 287.521875 210.42185 
L 288.74745 210.190593 
L 289.973025 210.915398 
L 291.1986 212.785003 
L 292.424175 212.561494 
L 293.64975 214.30464 
L 294.875325 214.83584 
L 296.1009 215.047144 
L 297.326475 209.533121 
L 298.55205 209.799403 
L 299.777625 209.268895 
L 302.228775 210.536032 
L 303.45435 210.67986 
L 304.679925 212.285139 
L 305.9055 208.618609 
L 308.35665 210.928973 
L 309.582225 212.200547 
L 310.8078 212.503304 
L 312.033375 213.536789 
L 313.25895 215.013489 
L 314.484525 216.701841 
L 315.7101 216.750894 
L 316.935675 216.201119 
L 318.16125 217.751239 
L 319.386825 217.51482 
L 320.6124 218.155872 
L 321.837975 218.295361 
L 323.06355 219.006061 
L 324.289125 220.253351 
L 325.5147 220.072003 
L 326.740275 220.3673 
L 327.96585 220.293927 
L 329.191425 220.660174 
L 330.417 221.240618 
L 331.642575 222.026785 
L 332.86815 223.01094 
L 334.093725 222.321225 
L 336.544875 225.623513 
L 337.77045 226.203066 
L 338.996025 227.755863 
L 340.2216 227.809252 
L 341.447175 228.781746 
L 343.898325 231.780301 
L 345.1239 232.74996 
L 346.349475 231.836111 
L 347.57505 232.786595 
L 348.800625 233.458369 
L 350.0262 233.232765 
L 351.251775 234.531371 
L 352.47735 235.593659 
L 353.702925 236.292671 
L 356.154075 238.110601 
L 357.37965 238.671626 
L 358.605225 239.524243 
L 359.8308 240.717858 
L 363.507525 241.769991 
L 364.7331 242.698438 
L 365.958675 242.956733 
L 367.18425 244.28615 
L 368.409825 244.928953 
L 369.6354 245.241546 
L 370.860975 246.152702 
L 372.08655 246.473499 
L 373.312125 247.614213 
L 374.5377 248.589712 
L 375.763275 248.301452 
L 376.98885 249.059701 
L 379.44 249.86088 
L 380.665575 250.137774 
L 381.89115 250.982743 
L 383.116725 252.072419 
L 385.567875 254.650188 
L 388.019025 256.114754 
L 389.2446 256.967663 
L 391.69575 257.775861 
L 392.921325 258.854047 
L 394.1469 260.322073 
L 395.372475 260.498415 
L 396.59805 261.907789 
L 397.823625 262.669426 
L 399.0492 263.939584 
L 400.274775 264.895445 
L 401.50035 266.033468 
L 402.725925 266.166145 
L 403.9515 267.173271 
L 405.177075 268.502299 
L 407.628225 269.985295 
L 408.8538 270.227889 
L 410.079375 271.488299 
L 411.30495 271.867968 
L 412.530525 271.7529 
L 413.7561 273.137724 
L 414.981675 273.547794 
L 416.20725 273.502753 
L 417.432825 274.771278 
L 418.6584 272.546864 
L 419.883975 272.415487 
L 421.10955 272.834066 
L 422.335125 273.662486 
L 423.5607 274.688181 
L 424.786275 275.90679 
L 426.01185 275.851675 
L 427.237425 276.734939 
L 428.463 275.794292 
L 429.688575 276.931113 
L 430.91415 277.717577 
L 433.3653 279.605955 
L 434.590875 279.626794 
L 435.81645 280.014304 
L 437.042025 280.143158 
L 440.71875 283.002497 
L 443.1699 284.66333 
L 445.62105 286.260726 
L 446.846625 286.373481 
L 448.0722 287.522197 
L 449.297775 288.202443 
L 450.52335 287.554039 
L 451.748925 288.443955 
L 452.9745 288.803913 
L 454.200075 288.988398 
L 456.651225 290.42777 
L 457.8768 291.053055 
L 459.102375 291.856804 
L 460.32795 292.491398 
L 461.553525 293.583224 
L 462.7791 294.094981 
L 464.004675 293.80637 
L 465.23025 294.55017 
L 466.455825 295.648762 
L 467.6814 296.897591 
L 470.13255 294.799091 
L 471.358125 295.473528 
L 472.5837 296.889163 
L 473.809275 297.344649 
L 475.03485 297.101461 
L 477.486 298.54176 
L 478.711575 299.41284 
L 479.93715 300.128907 
L 481.162725 300.48734 
L 482.3883 301.446782 
L 483.613875 301.632124 
L 486.065025 302.801218 
L 487.2906 302.671133 
L 488.516175 304.934318 
L 489.74175 304.484533 
L 490.967325 305.719436 
L 492.1929 305.955007 
L 493.418475 305.264077 
L 494.64405 305.802418 
L 495.869625 306.184675 
L 498.320775 308.5138 
L 499.54635 310.325945 
L 500.771925 311.182028 
L 501.9975 312.702415 
L 504.44865 314.094457 
L 505.674225 314.136652 
L 506.8998 315.372894 
L 508.125375 315.884313 
L 509.35095 314.032974 
L 511.8021 315.161539 
L 513.027675 316.676365 
L 515.478825 317.982422 
L 516.7044 319.257207 
L 517.929975 320.131944 
L 519.15555 321.332499 
L 521.6067 322.231533 
L 522.832275 323.262486 
L 524.05785 322.748229 
L 525.283425 323.51358 
L 526.509 323.793131 
L 527.734575 325.044522 
L 528.96015 325.634366 
L 530.185725 325.633271 
L 531.4113 326.37165 
L 532.636875 326.338663 
L 533.86245 327.282117 
L 536.3136 326.652839 
L 537.539175 327.336304 
L 538.76475 328.886856 
L 539.990325 329.159665 
L 541.2159 330.055198 
L 543.66705 331.464728 
L 544.892625 331.872438 
L 547.343775 333.734906 
L 548.56935 334.378486 
L 549.794925 336.702253 
L 551.0205 336.967589 
L 553.47165 338.968545 
L 554.697225 339.622588 
L 555.9228 340.806116 
L 557.148375 340.666363 
L 558.37395 341.833257 
L 559.599525 341.766834 
L 560.8251 342.273856 
L 562.050675 343.205738 
L 563.27625 343.847444 
L 564.501825 344.067095 
L 565.7274 345.03554 
L 566.952975 343.189886 
L 568.17855 344.406379 
L 569.404125 344.176094 
L 570.6297 345.171823 
L 571.855275 345.861362 
L 573.08085 344.917889 
L 576.757575 346.814991 
L 577.98315 347.768461 
L 579.208725 348.500607 
L 582.88545 349.540726 
L 584.111025 349.624439 
L 585.3366 351.060236 
L 586.562175 351.664144 
L 589.013325 352.326731 
L 590.2389 353.884885 
L 591.464475 354.493467 
L 592.69005 354.895799 
L 593.915625 356.698628 
L 596.366775 358.347951 
L 597.59235 358.861369 
L 598.817925 359.840904 
L 601.269075 361.613706 
L 602.49465 361.893056 
L 603.720225 362.88996 
L 604.9458 363.659506 
L 607.39695 363.994427 
L 608.622525 364.537742 
L 609.8481 364.718037 
L 611.073675 365.94492 
L 612.29925 366.536826 
L 613.524825 367.298581 
L 614.7504 367.186495 
L 615.975975 367.477688 
L 618.427125 367.312713 
L 619.6527 368.472165 
L 620.878275 369.841485 
L 622.10385 370.85486 
L 623.329425 370.445226 
L 624.555 372.110982 
L 625.780575 372.897218 
L 627.00615 373.859891 
L 628.231725 373.889195 
L 629.4573 374.359064 
L 631.90845 375.734217 
L 634.3596 376.68492 
L 635.585175 377.020473 
L 636.81075 377.932268 
L 638.036325 378.414546 
L 639.2619 379.750497 
L 642.938625 382.138603 
L 644.1642 383.274282 
L 645.389775 383.872992 
L 646.61535 383.267878 
L 647.840925 384.971726 
L 649.0665 383.02749 
L 651.51765 384.764602 
L 652.743225 385.342977 
L 653.9688 386.651493 
L 655.194375 386.95655 
L 656.41995 387.888099 
L 657.645525 388.417792 
L 658.8711 389.702518 
L 660.096675 390.09459 
L 661.32225 390.285417 
L 662.547825 391.34628 
L 664.998975 392.498369 
L 666.22455 393.809364 
L 667.450125 394.174365 
L 668.6757 394.944009 
L 669.901275 396.098088 
L 671.12685 396.345518 
L 672.352425 397.080448 
L 673.578 397.124905 
L 674.803575 396.891994 
L 676.02915 397.132564 
L 677.254725 398.140276 
L 678.4803 398.907722 
L 679.705875 399.533242 
L 680.93145 399.934521 
L 682.157025 401.057748 
L 683.3826 401.136437 
L 684.608175 401.671551 
L 685.83375 402.584688 
L 687.059325 402.733444 
L 688.2849 403.661993 
L 689.510475 404.27834 
L 690.73605 405.248655 
L 691.961625 405.879187 
L 693.1872 406.658421 
L 694.412775 407.249736 
L 696.863925 407.525383 
L 698.0895 407.76103 
L 699.315075 407.730236 
L 700.54065 408.270685 
L 702.9918 408.905994 
L 704.217375 410.185064 
L 705.44295 410.882379 
L 706.668525 411.143893 
L 707.8941 410.39498 
L 709.119675 411.011916 
L 710.34525 412.726932 
L 711.570825 413.697437 
L 712.7964 414.18877 
L 714.021975 415.027584 
L 715.24755 415.714868 
L 716.473125 416.585127 
L 717.6987 416.62695 
L 718.924275 417.691293 
L 722.601 421.789727 
L 723.826575 421.912321 
L 725.05215 421.831009 
L 726.277725 421.944751 
L 727.5033 422.587246 
L 729.95445 424.382384 
L 731.180025 424.574911 
L 732.4056 425.444934 
L 733.631175 425.850319 
L 734.85675 425.46345 
L 736.082325 425.741266 
L 737.3079 426.826436 
L 738.533475 427.622668 
L 739.75905 428.636015 
L 740.984625 428.101317 
L 742.2102 428.953065 
L 743.435775 429.551905 
L 744.66135 429.888744 
L 745.886925 430.767162 
L 748.338075 431.683433 
L 749.56365 432.953654 
L 750.789225 433.780337 
L 753.240375 434.747667 
L 754.46595 434.184863 
L 755.691525 434.906983 
L 756.9171 435.770279 
L 760.593825 439.141394 
L 761.8194 437.922179 
L 763.044975 437.380698 
L 764.27055 437.075129 
L 765.496125 437.563686 
L 766.7217 439.248357 
L 767.947275 439.082165 
L 769.17285 439.967451 
L 770.398425 442.353863 
L 771.624 442.437605 
L 772.849575 442.910349 
L 774.07515 443.516917 
L 775.300725 443.476429 
L 776.5263 443.965807 
L 777.751875 444.126645 
L 781.4286 445.971229 
L 782.654175 446.252272 
L 783.87975 445.370051 
L 785.105325 445.706693 
L 786.3309 447.006682 
L 788.78205 447.442646 
L 790.007625 448.40702 
L 791.2332 448.704219 
L 793.68435 450.56458 
L 794.909925 451.041183 
L 796.1355 452.225199 
L 797.361075 452.740032 
L 798.58665 453.814975 
L 799.812225 454.418675 
L 801.0378 454.600186 
L 802.263375 455.326418 
L 803.48895 454.953271 
L 804.714525 455.428338 
L 805.9401 455.630192 
L 807.165675 456.583216 
L 808.39125 457.064856 
L 809.616825 457.318191 
L 810.8424 458.19984 
L 812.067975 458.559603 
L 813.29355 455.229864 
L 815.7447 456.904641 
L 818.19585 459.245574 
L 819.421425 459.917307 
L 820.647 461.228338 
L 821.872575 461.755303 
L 823.09815 463.512898 
L 824.323725 464.560278 
L 825.5493 464.459491 
L 826.774875 464.950038 
L 828.00045 465.972688 
L 829.226025 467.794732 
L 830.4516 466.528797 
L 831.677175 469.291083 
L 834.128325 470.429622 
L 835.3539 470.951024 
L 836.579475 469.552148 
L 837.80505 470.536363 
L 839.030625 470.624758 
L 840.2562 471.796682 
L 841.481775 471.564491 
L 842.70735 471.748112 
L 843.932925 473.055933 
L 845.1585 473.415608 
L 846.384075 474.869215 
L 847.60965 475.090761 
L 848.835225 474.93642 
L 850.0608 475.401609 
L 851.286375 476.801564 
L 852.51195 477.278084 
L 853.737525 478.146453 
L 854.9631 478.598305 
L 856.188675 479.813159 
L 857.41425 480.509206 
L 858.639825 481.379688 
L 859.8654 481.939804 
L 861.090975 482.670523 
L 862.31655 483.600536 
L 863.542125 484.025189 
L 864.7677 485.453252 
L 865.993275 485.784386 
L 867.21885 485.065686 
L 869.67 485.976205 
L 870.895575 487.125715 
L 872.12115 487.539468 
L 873.346725 487.610661 
L 875.797875 488.468437 
L 877.02345 488.723927 
L 878.249025 489.262517 
L 879.4746 490.33428 
L 880.700175 490.825511 
L 881.92575 492.478286 
L 883.151325 493.504703 
L 884.3769 492.298262 
L 885.602475 492.892123 
L 886.82805 493.282085 
L 888.053625 495.100927 
L 889.2792 495.355501 
L 890.504775 496.031894 
L 891.73035 496.381966 
L 892.955925 496.972092 
L 895.407075 499.094881 
L 896.63265 499.789301 
L 897.858225 500.199545 
L 899.0838 500.250447 
L 900.309375 501.090071 
L 902.760525 503.642846 
L 903.9861 504.328823 
L 905.211675 504.656236 
L 906.43725 505.892097 
L 907.662825 506.788837 
L 908.8884 506.53763 
L 910.113975 507.115443 
L 911.33955 508.18181 
L 912.565125 509.561782 
L 913.7907 509.727712 
L 915.016275 508.300083 
L 916.24185 508.534393 
L 917.467425 509.521907 
L 918.693 509.959517 
L 919.918575 510.921553 
L 921.14415 511.203887 
L 922.369725 512.389928 
L 923.5953 511.484689 
L 924.820875 511.844683 
L 927.272025 513.996785 
L 928.4976 514.446703 
L 930.94875 515.685233 
L 932.174325 515.626143 
L 933.3999 515.808024 
L 934.625475 516.847688 
L 935.85105 518.187456 
L 937.076625 518.098744 
L 939.527775 520.45863 
L 940.75335 521.092068 
L 941.978925 521.094664 
L 943.2045 521.326502 
L 944.430075 522.385786 
L 945.65565 523.659444 
L 946.881225 524.211491 
L 948.1068 524.902207 
L 949.332375 526.258492 
L 950.55795 526.553877 
L 951.783525 527.446689 
L 953.0091 528.657675 
L 954.234675 529.365882 
L 955.46025 530.777605 
L 957.9114 532.080274 
L 959.136975 533.126332 
L 960.36255 533.754788 
L 961.588125 533.881021 
L 962.8137 534.751917 
L 964.039275 534.868148 
L 965.26485 536.123384 
L 966.490425 536.994465 
L 968.941575 538.088198 
L 970.16715 538.042326 
L 971.392725 538.26278 
L 972.6183 539.490256 
L 973.843875 539.566746 
L 975.06945 540.90828 
L 976.295025 541.116823 
L 977.5206 541.924579 
L 978.746175 543.059335 
L 979.97175 544.658841 
L 981.197325 545.317761 
L 982.4229 546.869508 
L 983.648475 547.076556 
L 984.87405 547.42216 
L 986.099625 548.56839 
L 989.77635 548.210297 
L 991.001925 549.096591 
L 992.2275 549.616356 
L 993.453075 549.846194 
L 994.67865 549.458449 
L 995.904225 548.392681 
L 997.1298 549.295355 
L 999.58095 549.441784 
L 1000.806525 549.755694 
L 1002.0321 550.454866 
L 1003.257675 550.81182 
L 1004.48325 552.316541 
L 1005.708825 553.232649 
L 1006.9344 554.472887 
L 1008.159975 555.009406 
L 1009.38555 556.332756 
L 1010.611125 556.384304 
L 1011.8367 557.118222 
L 1013.062275 558.097527 
L 1015.513425 558.700519 
L 1016.739 558.957583 
L 1017.964575 559.343078 
L 1019.19015 560.394792 
L 1020.415725 560.903204 
L 1021.6413 560.851094 
L 1022.866875 561.764721 
L 1024.09245 562.07497 
L 1025.318025 562.966023 
L 1026.5436 563.613533 
L 1027.769175 565.085195 
L 1028.99475 565.770863 
L 1030.220325 566.743991 
L 1031.4459 568.045486 
L 1032.671475 568.20727 
L 1033.89705 568.117669 
L 1035.122625 567.873864 
L 1036.3482 568.238946 
L 1038.79935 569.364631 
L 1040.024925 569.720688 
L 1041.2505 570.65299 
L 1042.476075 570.860618 
L 1043.70165 570.93781 
L 1044.927225 572.06714 
L 1046.1528 572.727468 
L 1048.60395 574.604069 
L 1049.829525 575.327964 
L 1052.280675 577.223735 
L 1053.50625 577.851692 
L 1054.731825 578.335144 
L 1055.9574 578.381338 
L 1057.182975 580.005551 
L 1058.40855 580.42458 
L 1059.634125 580.517241 
L 1062.085275 583.223576 
L 1063.31085 583.380782 
L 1064.536425 583.885873 
L 1065.762 583.928315 
L 1066.987575 584.372095 
L 1068.21315 585.665022 
L 1069.438725 586.728225 
L 1071.889875 586.662467 
L 1073.11545 585.321205 
L 1074.341025 585.547046 
L 1075.5666 585.581574 
L 1078.01775 586.12129 
L 1079.243325 587.058344 
L 1080.4689 588.641837 
L 1081.694475 589.253779 
L 1082.92005 589.721558 
L 1084.145625 590.566827 
L 1085.3712 590.494846 
L 1086.596775 591.380608 
L 1087.82235 592.875635 
L 1089.047925 593.869933 
L 1090.2735 594.628678 
L 1091.499075 594.662683 
L 1092.72465 595.227053 
L 1093.950225 596.04996 
L 1095.1758 597.207804 
L 1096.401375 596.851126 
L 1097.62695 597.947483 
L 1098.852525 596.84467 
L 1101.303675 599.247799 
L 1102.52925 599.552668 
L 1103.754825 599.972629 
L 1106.205975 600.428977 
L 1107.43155 600.268825 
L 1108.657125 600.997882 
L 1109.8827 602.01083 
L 1111.108275 603.409377 
L 1112.33385 604.039857 
L 1113.559425 603.872679 
L 1114.785 604.541185 
L 1116.010575 605.434741 
L 1117.23615 606.782734 
L 1119.6873 609.007024 
L 1120.912875 609.60972 
L 1122.13845 610.069271 
L 1123.364025 609.900691 
L 1124.5896 610.77378 
L 1125.815175 611.085633 
L 1127.04075 611.696492 
L 1128.266325 612.795737 
L 1130.717475 614.265606 
L 1131.94305 615.455533 
L 1133.168625 616.093286 
L 1134.3942 617.051181 
L 1135.619775 616.819999 
L 1136.84535 617.330197 
L 1138.070925 617.97463 
L 1139.2965 619.092208 
L 1140.522075 618.743537 
L 1142.973225 620.047315 
L 1144.1988 620.109798 
L 1146.64995 619.90549 
L 1147.875525 620.239024 
L 1149.1011 621.424303 
L 1150.326675 619.950413 
L 1151.55225 620.540801 
L 1152.777825 620.770022 
L 1154.0034 622.193858 
L 1155.228975 622.611395 
L 1156.45455 624.108457 
L 1157.680125 623.460378 
L 1158.9057 623.921048 
L 1160.131275 623.653615 
L 1162.582425 626.176435 
L 1163.808 626.417665 
L 1165.033575 626.871215 
L 1166.25915 627.639328 
L 1167.484725 627.459648 
L 1168.7103 628.963514 
L 1169.935875 628.667474 
L 1171.16145 630.065497 
L 1173.6126 631.164669 
L 1174.838175 632.087987 
L 1176.06375 631.570199 
L 1177.289325 632.386212 
L 1178.5149 633.85492 
L 1179.740475 634.513032 
L 1180.96605 635.501855 
L 1182.191625 635.179189 
L 1183.4172 635.773392 
L 1184.642775 636.170103 
L 1185.86835 636.806023 
L 1187.093925 637.639561 
L 1188.3195 638.680789 
L 1189.545075 638.895694 
L 1190.77065 639.807911 
L 1191.996225 640.357178 
L 1193.2218 640.582347 
L 1195.67295 642.315382 
L 1196.898525 644.023708 
L 1198.1241 644.823693 
L 1199.349675 644.821743 
L 1201.800825 645.257335 
L 1203.0264 646.217305 
L 1204.251975 646.511438 
L 1205.47755 647.737144 
L 1206.703125 648.07942 
L 1207.9287 650.274429 
L 1210.37985 649.979872 
L 1211.605425 650.027144 
L 1212.831 650.453501 
L 1214.056575 651.793992 
L 1215.28215 652.456545 
L 1216.507725 653.292539 
L 1217.7333 654.628143 
L 1218.958875 656.349629 
L 1220.18445 656.998195 
L 1221.410025 658.32555 
L 1222.6356 659.422449 
L 1223.861175 660.854469 
L 1225.08675 661.5633 
L 1226.312325 663.178568 
L 1227.5379 663.828794 
L 1228.763475 663.237414 
L 1231.214625 664.67592 
L 1232.4402 665.615369 
L 1233.665775 666.25494 
L 1234.89135 666.496134 
L 1236.116925 667.012926 
L 1237.3425 667.651134 
L 1238.568075 669.049727 
L 1239.79365 669.354395 
L 1241.019225 670.574694 
L 1242.2448 671.45773 
L 1243.470375 670.699156 
L 1244.69595 671.111551 
L 1247.1471 673.333268 
L 1248.372675 673.637642 
L 1249.59825 674.627735 
L 1250.823825 675.187933 
L 1252.0494 675.103124 
L 1253.274975 675.285372 
L 1259.40285 678.866864 
L 1260.628425 678.900455 
L 1261.854 679.488391 
L 1263.079575 679.83676 
L 1264.30515 680.930529 
L 1265.530725 681.054518 
L 1266.7563 682.933587 
L 1267.981875 682.805347 
L 1269.20745 682.031857 
L 1270.433025 682.208342 
L 1271.6586 682.599827 
L 1274.10975 684.37784 
L 1275.335325 685.07651 
L 1276.5609 686.045017 
L 1277.786475 687.410908 
L 1279.01205 688.110789 
L 1280.237625 688.186383 
L 1281.4632 690.141906 
L 1282.688775 690.367548 
L 1283.91435 691.524953 
L 1285.139925 692.406961 
L 1286.3655 693.051698 
L 1287.591075 693.482112 
L 1288.81665 694.791616 
L 1291.2678 696.891844 
L 1292.493375 698.147811 
L 1293.71895 697.798661 
L 1294.944525 698.284115 
L 1296.1701 699.092676 
L 1298.62125 701.500637 
L 1299.846825 702.180293 
L 1301.0724 700.730006 
L 1302.297975 700.75522 
L 1303.52355 700.905378 
L 1307.200275 703.548525 
L 1308.42585 701.888187 
L 1309.651425 701.48897 
L 1310.877 701.470632 
L 1315.7793 703.068859 
L 1317.004875 703.897251 
L 1318.23045 704.432253 
L 1319.456025 704.442792 
L 1321.907175 705.628224 
L 1323.13275 706.024573 
L 1325.5839 708.145884 
L 1326.809475 710.397365 
L 1328.03505 710.74375 
L 1329.260625 711.372538 
L 1330.4862 712.196518 
L 1331.711775 713.565528 
L 1332.93735 714.058967 
L 1335.3885 715.778048 
L 1337.83965 719.411966 
L 1339.065225 719.910468 
L 1341.516375 722.246156 
L 1342.74195 722.896294 
L 1343.967525 724.609187 
L 1345.1931 725.364705 
L 1346.418675 725.696917 
L 1347.64425 726.663977 
L 1348.869825 727.449207 
L 1350.0954 727.812755 
L 1351.320975 728.593266 
L 1352.54655 728.977463 
L 1353.772125 728.701941 
L 1356.223275 730.525675 
L 1357.44885 730.504218 
L 1358.674425 731.397685 
L 1358.674425 731.397685 
" style="fill:none;stroke:#008000;stroke-linecap:square;stroke-width:2.0;"/>
   </g>
   <g id="patch_3">
    <path d="M 134.325 51.3 
L 1359.9 51.3 
" style="fill:none;stroke:#000000;stroke-linecap:square;stroke-linejoin:miter;"/>
   </g>
   <g id="patch_4">
    <path d="M 1359.9 747 
L 1359.9 51.3 
" style="fill:none;stroke:#000000;stroke-linecap:square;stroke-linejoin:miter;"/>
   </g>
   <g id="patch_5">
    <path d="M 134.325 747 
L 1359.9 747 
" style="fill:none;stroke:#000000;stroke-linecap:square;stroke-linejoin:miter;"/>
   </g>
   <g id="patch_6">
    <path d="M 134.325 747 
L 134.325 51.3 
" style="fill:none;stroke:#000000;stroke-linecap:square;stroke-linejoin:miter;"/>
   </g>
   <g id="matplotlib.axis_1">
    <g id="xtick_1">
     <g id="line2d_3">
      <defs>
       <path d="M 0 0 
L 0 -4 
" id="me2194427f9" style="stroke:#000000;stroke-width:0.5;"/>
      </defs>
      <g>
       <use style="stroke:#000000;stroke-width:0.5;" x="134.325" xlink:href="#me2194427f9" y="747.0"/>
      </g>
     </g>
     <g id="line2d_4">
      <defs>
       <path d="M 0 0 
L 0 4 
" id="mbd6f4b54dd" style="stroke:#000000;stroke-width:0.5;"/>
      </defs>
      <g>
       <use style="stroke:#000000;stroke-width:0.5;" x="134.325" xlink:href="#mbd6f4b54dd" y="51.3"/>
      </g>
     </g>
     <g id="text_1">
      <!-- 0 -->
      <defs>
       <path d="M 31.78125 66.40625 
Q 24.171875 66.40625 20.328125 58.90625 
Q 16.5 51.421875 16.5 36.375 
Q 16.5 21.390625 20.328125 13.890625 
Q 24.171875 6.390625 31.78125 6.390625 
Q 39.453125 6.390625 43.28125 13.890625 
Q 47.125 21.390625 47.125 36.375 
Q 47.125 51.421875 43.28125 58.90625 
Q 39.453125 66.40625 31.78125 66.40625 
M 31.78125 74.21875 
Q 44.046875 74.21875 50.515625 64.515625 
Q 56.984375 54.828125 56.984375 36.375 
Q 56.984375 17.96875 50.515625 8.265625 
Q 44.046875 -1.421875 31.78125 -1.421875 
Q 19.53125 -1.421875 13.0625 8.265625 
Q 6.59375 17.96875 6.59375 36.375 
Q 6.59375 54.828125 13.0625 64.515625 
Q 19.53125 74.21875 31.78125 74.21875 
" id="BitstreamVeraSans-Roman-30"/>
      </defs>
      <g transform="translate(124.78125 773.7953125)scale(0.3 -0.3)">
       <use xlink:href="#BitstreamVeraSans-Roman-30"/>
      </g>
     </g>
    </g>
    <g id="xtick_2">
     <g id="line2d_5">
      <g>
       <use style="stroke:#000000;stroke-width:0.5;" x="379.44" xlink:href="#me2194427f9" y="747.0"/>
      </g>
     </g>
     <g id="line2d_6">
      <g>
       <use style="stroke:#000000;stroke-width:0.5;" x="379.44" xlink:href="#mbd6f4b54dd" y="51.3"/>
      </g>
     </g>
     <g id="text_2">
      <!-- 200 -->
      <defs>
       <path d="M 19.1875 8.296875 
L 53.609375 8.296875 
L 53.609375 0 
L 7.328125 0 
L 7.328125 8.296875 
Q 12.9375 14.109375 22.625 23.890625 
Q 32.328125 33.6875 34.8125 36.53125 
Q 39.546875 41.84375 41.421875 45.53125 
Q 43.3125 49.21875 43.3125 52.78125 
Q 43.3125 58.59375 39.234375 62.25 
Q 35.15625 65.921875 28.609375 65.921875 
Q 23.96875 65.921875 18.8125 64.3125 
Q 13.671875 62.703125 7.8125 59.421875 
L 7.8125 69.390625 
Q 13.765625 71.78125 18.9375 73 
Q 24.125 74.21875 28.421875 74.21875 
Q 39.75 74.21875 46.484375 68.546875 
Q 53.21875 62.890625 53.21875 53.421875 
Q 53.21875 48.921875 51.53125 44.890625 
Q 49.859375 40.875 45.40625 35.40625 
Q 44.1875 33.984375 37.640625 27.21875 
Q 31.109375 20.453125 19.1875 8.296875 
" id="BitstreamVeraSans-Roman-32"/>
      </defs>
      <g transform="translate(350.80875 773.7953125)scale(0.3 -0.3)">
       <use xlink:href="#BitstreamVeraSans-Roman-32"/>
       <use x="63.623046875" xlink:href="#BitstreamVeraSans-Roman-30"/>
       <use x="127.24609375" xlink:href="#BitstreamVeraSans-Roman-30"/>
      </g>
     </g>
    </g>
    <g id="xtick_3">
     <g id="line2d_7">
      <g>
       <use style="stroke:#000000;stroke-width:0.5;" x="624.555" xlink:href="#me2194427f9" y="747.0"/>
      </g>
     </g>
     <g id="line2d_8">
      <g>
       <use style="stroke:#000000;stroke-width:0.5;" x="624.555" xlink:href="#mbd6f4b54dd" y="51.3"/>
      </g>
     </g>
     <g id="text_3">
      <!-- 400 -->
      <defs>
       <path d="M 37.796875 64.3125 
L 12.890625 25.390625 
L 37.796875 25.390625 
z
M 35.203125 72.90625 
L 47.609375 72.90625 
L 47.609375 25.390625 
L 58.015625 25.390625 
L 58.015625 17.1875 
L 47.609375 17.1875 
L 47.609375 0 
L 37.796875 0 
L 37.796875 17.1875 
L 4.890625 17.1875 
L 4.890625 26.703125 
z
" id="BitstreamVeraSans-Roman-34"/>
      </defs>
      <g transform="translate(595.92375 773.7953125)scale(0.3 -0.3)">
       <use xlink:href="#BitstreamVeraSans-Roman-34"/>
       <use x="63.623046875" xlink:href="#BitstreamVeraSans-Roman-30"/>
       <use x="127.24609375" xlink:href="#BitstreamVeraSans-Roman-30"/>
      </g>
     </g>
    </g>
    <g id="xtick_4">
     <g id="line2d_9">
      <g>
       <use style="stroke:#000000;stroke-width:0.5;" x="869.67" xlink:href="#me2194427f9" y="747.0"/>
      </g>
     </g>
     <g id="line2d_10">
      <g>
       <use style="stroke:#000000;stroke-width:0.5;" x="869.67" xlink:href="#mbd6f4b54dd" y="51.3"/>
      </g>
     </g>
     <g id="text_4">
      <!-- 600 -->
      <defs>
       <path d="M 33.015625 40.375 
Q 26.375 40.375 22.484375 35.828125 
Q 18.609375 31.296875 18.609375 23.390625 
Q 18.609375 15.53125 22.484375 10.953125 
Q 26.375 6.390625 33.015625 6.390625 
Q 39.65625 6.390625 43.53125 10.953125 
Q 47.40625 15.53125 47.40625 23.390625 
Q 47.40625 31.296875 43.53125 35.828125 
Q 39.65625 40.375 33.015625 40.375 
M 52.59375 71.296875 
L 52.59375 62.3125 
Q 48.875 64.0625 45.09375 64.984375 
Q 41.3125 65.921875 37.59375 65.921875 
Q 27.828125 65.921875 22.671875 59.328125 
Q 17.53125 52.734375 16.796875 39.40625 
Q 19.671875 43.65625 24.015625 45.921875 
Q 28.375 48.1875 33.59375 48.1875 
Q 44.578125 48.1875 50.953125 41.515625 
Q 57.328125 34.859375 57.328125 23.390625 
Q 57.328125 12.15625 50.6875 5.359375 
Q 44.046875 -1.421875 33.015625 -1.421875 
Q 20.359375 -1.421875 13.671875 8.265625 
Q 6.984375 17.96875 6.984375 36.375 
Q 6.984375 53.65625 15.1875 63.9375 
Q 23.390625 74.21875 37.203125 74.21875 
Q 40.921875 74.21875 44.703125 73.484375 
Q 48.484375 72.75 52.59375 71.296875 
" id="BitstreamVeraSans-Roman-36"/>
      </defs>
      <g transform="translate(841.03875 773.7953125)scale(0.3 -0.3)">
       <use xlink:href="#BitstreamVeraSans-Roman-36"/>
       <use x="63.623046875" xlink:href="#BitstreamVeraSans-Roman-30"/>
       <use x="127.24609375" xlink:href="#BitstreamVeraSans-Roman-30"/>
      </g>
     </g>
    </g>
    <g id="xtick_5">
     <g id="line2d_11">
      <g>
       <use style="stroke:#000000;stroke-width:0.5;" x="1114.785" xlink:href="#me2194427f9" y="747.0"/>
      </g>
     </g>
     <g id="line2d_12">
      <g>
       <use style="stroke:#000000;stroke-width:0.5;" x="1114.785" xlink:href="#mbd6f4b54dd" y="51.3"/>
      </g>
     </g>
     <g id="text_5">
      <!-- 800 -->
      <defs>
       <path d="M 31.78125 34.625 
Q 24.75 34.625 20.71875 30.859375 
Q 16.703125 27.09375 16.703125 20.515625 
Q 16.703125 13.921875 20.71875 10.15625 
Q 24.75 6.390625 31.78125 6.390625 
Q 38.8125 6.390625 42.859375 10.171875 
Q 46.921875 13.96875 46.921875 20.515625 
Q 46.921875 27.09375 42.890625 30.859375 
Q 38.875 34.625 31.78125 34.625 
M 21.921875 38.8125 
Q 15.578125 40.375 12.03125 44.71875 
Q 8.5 49.078125 8.5 55.328125 
Q 8.5 64.0625 14.71875 69.140625 
Q 20.953125 74.21875 31.78125 74.21875 
Q 42.671875 74.21875 48.875 69.140625 
Q 55.078125 64.0625 55.078125 55.328125 
Q 55.078125 49.078125 51.53125 44.71875 
Q 48 40.375 41.703125 38.8125 
Q 48.828125 37.15625 52.796875 32.3125 
Q 56.78125 27.484375 56.78125 20.515625 
Q 56.78125 9.90625 50.3125 4.234375 
Q 43.84375 -1.421875 31.78125 -1.421875 
Q 19.734375 -1.421875 13.25 4.234375 
Q 6.78125 9.90625 6.78125 20.515625 
Q 6.78125 27.484375 10.78125 32.3125 
Q 14.796875 37.15625 21.921875 38.8125 
M 18.3125 54.390625 
Q 18.3125 48.734375 21.84375 45.5625 
Q 25.390625 42.390625 31.78125 42.390625 
Q 38.140625 42.390625 41.71875 45.5625 
Q 45.3125 48.734375 45.3125 54.390625 
Q 45.3125 60.0625 41.71875 63.234375 
Q 38.140625 66.40625 31.78125 66.40625 
Q 25.390625 66.40625 21.84375 63.234375 
Q 18.3125 60.0625 18.3125 54.390625 
" id="BitstreamVeraSans-Roman-38"/>
      </defs>
      <g transform="translate(1086.15375 773.7953125)scale(0.3 -0.3)">
       <use xlink:href="#BitstreamVeraSans-Roman-38"/>
       <use x="63.623046875" xlink:href="#BitstreamVeraSans-Roman-30"/>
       <use x="127.24609375" xlink:href="#BitstreamVeraSans-Roman-30"/>
      </g>
     </g>
    </g>
    <g id="xtick_6">
     <g id="line2d_13">
      <g>
       <use style="stroke:#000000;stroke-width:0.5;" x="1359.9" xlink:href="#me2194427f9" y="747.0"/>
      </g>
     </g>
     <g id="line2d_14">
      <g>
       <use style="stroke:#000000;stroke-width:0.5;" x="1359.9" xlink:href="#mbd6f4b54dd" y="51.3"/>
      </g>
     </g>
     <g id="text_6">
      <!-- 1000 -->
      <defs>
       <path d="M 12.40625 8.296875 
L 28.515625 8.296875 
L 28.515625 63.921875 
L 10.984375 60.40625 
L 10.984375 69.390625 
L 28.421875 72.90625 
L 38.28125 72.90625 
L 38.28125 8.296875 
L 54.390625 8.296875 
L 54.390625 0 
L 12.40625 0 
z
" id="BitstreamVeraSans-Roman-31"/>
      </defs>
      <g transform="translate(1321.725 773.7953125)scale(0.3 -0.3)">
       <use xlink:href="#BitstreamVeraSans-Roman-31"/>
       <use x="63.623046875" xlink:href="#BitstreamVeraSans-Roman-30"/>
       <use x="127.24609375" xlink:href="#BitstreamVeraSans-Roman-30"/>
       <use x="190.869140625" xlink:href="#BitstreamVeraSans-Roman-30"/>
      </g>
     </g>
    </g>
    <g id="text_7">
     <!-- iterations -->
     <defs>
      <path d="M 54.890625 33.015625 
L 54.890625 0 
L 45.90625 0 
L 45.90625 32.71875 
Q 45.90625 40.484375 42.875 44.328125 
Q 39.84375 48.1875 33.796875 48.1875 
Q 26.515625 48.1875 22.3125 43.546875 
Q 18.109375 38.921875 18.109375 30.90625 
L 18.109375 0 
L 9.078125 0 
L 9.078125 54.6875 
L 18.109375 54.6875 
L 18.109375 46.1875 
Q 21.34375 51.125 25.703125 53.5625 
Q 30.078125 56 35.796875 56 
Q 45.21875 56 50.046875 50.171875 
Q 54.890625 44.34375 54.890625 33.015625 
" id="BitstreamVeraSans-Roman-6e"/>
      <path d="M 34.28125 27.484375 
Q 23.390625 27.484375 19.1875 25 
Q 14.984375 22.515625 14.984375 16.5 
Q 14.984375 11.71875 18.140625 8.90625 
Q 21.296875 6.109375 26.703125 6.109375 
Q 34.1875 6.109375 38.703125 11.40625 
Q 43.21875 16.703125 43.21875 25.484375 
L 43.21875 27.484375 
z
M 52.203125 31.203125 
L 52.203125 0 
L 43.21875 0 
L 43.21875 8.296875 
Q 40.140625 3.328125 35.546875 0.953125 
Q 30.953125 -1.421875 24.3125 -1.421875 
Q 15.921875 -1.421875 10.953125 3.296875 
Q 6 8.015625 6 15.921875 
Q 6 25.140625 12.171875 29.828125 
Q 18.359375 34.515625 30.609375 34.515625 
L 43.21875 34.515625 
L 43.21875 35.40625 
Q 43.21875 41.609375 39.140625 45 
Q 35.0625 48.390625 27.6875 48.390625 
Q 23 48.390625 18.546875 47.265625 
Q 14.109375 46.140625 10.015625 43.890625 
L 10.015625 52.203125 
Q 14.9375 54.109375 19.578125 55.046875 
Q 24.21875 56 28.609375 56 
Q 40.484375 56 46.34375 49.84375 
Q 52.203125 43.703125 52.203125 31.203125 
" id="BitstreamVeraSans-Roman-61"/>
      <path d="M 30.609375 48.390625 
Q 23.390625 48.390625 19.1875 42.75 
Q 14.984375 37.109375 14.984375 27.296875 
Q 14.984375 17.484375 19.15625 11.84375 
Q 23.34375 6.203125 30.609375 6.203125 
Q 37.796875 6.203125 41.984375 11.859375 
Q 46.1875 17.53125 46.1875 27.296875 
Q 46.1875 37.015625 41.984375 42.703125 
Q 37.796875 48.390625 30.609375 48.390625 
M 30.609375 56 
Q 42.328125 56 49.015625 48.375 
Q 55.71875 40.765625 55.71875 27.296875 
Q 55.71875 13.875 49.015625 6.21875 
Q 42.328125 -1.421875 30.609375 -1.421875 
Q 18.84375 -1.421875 12.171875 6.21875 
Q 5.515625 13.875 5.515625 27.296875 
Q 5.515625 40.765625 12.171875 48.375 
Q 18.84375 56 30.609375 56 
" id="BitstreamVeraSans-Roman-6f"/>
      <path d="M 9.421875 54.6875 
L 18.40625 54.6875 
L 18.40625 0 
L 9.421875 0 
z
M 9.421875 75.984375 
L 18.40625 75.984375 
L 18.40625 64.59375 
L 9.421875 64.59375 
z
" id="BitstreamVeraSans-Roman-69"/>
      <path d="M 56.203125 29.59375 
L 56.203125 25.203125 
L 14.890625 25.203125 
Q 15.484375 15.921875 20.484375 11.0625 
Q 25.484375 6.203125 34.421875 6.203125 
Q 39.59375 6.203125 44.453125 7.46875 
Q 49.3125 8.734375 54.109375 11.28125 
L 54.109375 2.78125 
Q 49.265625 0.734375 44.1875 -0.34375 
Q 39.109375 -1.421875 33.890625 -1.421875 
Q 20.796875 -1.421875 13.15625 6.1875 
Q 5.515625 13.8125 5.515625 26.8125 
Q 5.515625 40.234375 12.765625 48.109375 
Q 20.015625 56 32.328125 56 
Q 43.359375 56 49.78125 48.890625 
Q 56.203125 41.796875 56.203125 29.59375 
M 47.21875 32.234375 
Q 47.125 39.59375 43.09375 43.984375 
Q 39.0625 48.390625 32.421875 48.390625 
Q 24.90625 48.390625 20.390625 44.140625 
Q 15.875 39.890625 15.1875 32.171875 
z
" id="BitstreamVeraSans-Roman-65"/>
      <path d="M 18.3125 70.21875 
L 18.3125 54.6875 
L 36.8125 54.6875 
L 36.8125 47.703125 
L 18.3125 47.703125 
L 18.3125 18.015625 
Q 18.3125 11.328125 20.140625 9.421875 
Q 21.96875 7.515625 27.59375 7.515625 
L 36.8125 7.515625 
L 36.8125 0 
L 27.59375 0 
Q 17.1875 0 13.234375 3.875 
Q 9.28125 7.765625 9.28125 18.015625 
L 9.28125 47.703125 
L 2.6875 47.703125 
L 2.6875 54.6875 
L 9.28125 54.6875 
L 9.28125 70.21875 
z
" id="BitstreamVeraSans-Roman-74"/>
      <path d="M 41.109375 46.296875 
Q 39.59375 47.171875 37.8125 47.578125 
Q 36.03125 48 33.890625 48 
Q 26.265625 48 22.1875 43.046875 
Q 18.109375 38.09375 18.109375 28.8125 
L 18.109375 0 
L 9.078125 0 
L 9.078125 54.6875 
L 18.109375 54.6875 
L 18.109375 46.1875 
Q 20.953125 51.171875 25.484375 53.578125 
Q 30.03125 56 36.53125 56 
Q 37.453125 56 38.578125 55.875 
Q 39.703125 55.765625 41.0625 55.515625 
z
" id="BitstreamVeraSans-Roman-72"/>
      <path d="M 44.28125 53.078125 
L 44.28125 44.578125 
Q 40.484375 46.53125 36.375 47.5 
Q 32.28125 48.484375 27.875 48.484375 
Q 21.1875 48.484375 17.84375 46.4375 
Q 14.5 44.390625 14.5 40.28125 
Q 14.5 37.15625 16.890625 35.375 
Q 19.28125 33.59375 26.515625 31.984375 
L 29.59375 31.296875 
Q 39.15625 29.25 43.1875 25.515625 
Q 47.21875 21.78125 47.21875 15.09375 
Q 47.21875 7.46875 41.1875 3.015625 
Q 35.15625 -1.421875 24.609375 -1.421875 
Q 20.21875 -1.421875 15.453125 -0.5625 
Q 10.6875 0.296875 5.421875 2 
L 5.421875 11.28125 
Q 10.40625 8.6875 15.234375 7.390625 
Q 20.0625 6.109375 24.8125 6.109375 
Q 31.15625 6.109375 34.5625 8.28125 
Q 37.984375 10.453125 37.984375 14.40625 
Q 37.984375 18.0625 35.515625 20.015625 
Q 33.0625 21.96875 24.703125 23.78125 
L 21.578125 24.515625 
Q 13.234375 26.265625 9.515625 29.90625 
Q 5.8125 33.546875 5.8125 39.890625 
Q 5.8125 47.609375 11.28125 51.796875 
Q 16.75 56 26.8125 56 
Q 31.78125 56 36.171875 55.265625 
Q 40.578125 54.546875 44.28125 53.078125 
" id="BitstreamVeraSans-Roman-73"/>
     </defs>
     <g transform="translate(675.93046875 807.8296875)scale(0.3 -0.3)">
      <use xlink:href="#BitstreamVeraSans-Roman-69"/>
      <use x="27.783203125" xlink:href="#BitstreamVeraSans-Roman-74"/>
      <use x="66.9921875" xlink:href="#BitstreamVeraSans-Roman-65"/>
      <use x="128.515625" xlink:href="#BitstreamVeraSans-Roman-72"/>
      <use x="169.62890625" xlink:href="#BitstreamVeraSans-Roman-61"/>
      <use x="230.908203125" xlink:href="#BitstreamVeraSans-Roman-74"/>
      <use x="270.1171875" xlink:href="#BitstreamVeraSans-Roman-69"/>
      <use x="297.900390625" xlink:href="#BitstreamVeraSans-Roman-6f"/>
      <use x="359.08203125" xlink:href="#BitstreamVeraSans-Roman-6e"/>
      <use x="422.4609375" xlink:href="#BitstreamVeraSans-Roman-73"/>
     </g>
    </g>
   </g>
   <g id="matplotlib.axis_2">
    <g id="ytick_1">
     <g id="line2d_15">
      <defs>
       <path d="M 0 0 
L 4 0 
" id="m2d2016108e" style="stroke:#000000;stroke-width:0.5;"/>
      </defs>
      <g>
       <use style="stroke:#000000;stroke-width:0.5;" x="134.325" xlink:href="#m2d2016108e" y="747.0"/>
      </g>
     </g>
     <g id="line2d_16">
      <defs>
       <path d="M 0 0 
L -4 0 
" id="m92ba751e23" style="stroke:#000000;stroke-width:0.5;"/>
      </defs>
      <g>
       <use style="stroke:#000000;stroke-width:0.5;" x="1359.9" xlink:href="#m92ba751e23" y="747.0"/>
      </g>
     </g>
     <g id="text_8">
      <!-- 2 -->
      <defs>
       <path d="M 10.59375 35.5 
L 73.1875 35.5 
L 73.1875 27.203125 
L 10.59375 27.203125 
z
" id="BitstreamVeraSans-Roman-2212"/>
      </defs>
      <g transform="translate(86.0984375 755.278125)scale(0.3 -0.3)">
       <use xlink:href="#BitstreamVeraSans-Roman-2212"/>
       <use x="83.7890625" xlink:href="#BitstreamVeraSans-Roman-32"/>
      </g>
     </g>
    </g>
    <g id="ytick_2">
     <g id="line2d_17">
      <g>
       <use style="stroke:#000000;stroke-width:0.5;" x="134.325" xlink:href="#m2d2016108e" y="669.7"/>
      </g>
     </g>
     <g id="line2d_18">
      <g>
       <use style="stroke:#000000;stroke-width:0.5;" x="1359.9" xlink:href="#m92ba751e23" y="669.7"/>
      </g>
     </g>
     <g id="text_9">
      <!-- 0 -->
      <g transform="translate(111.2375 677.978125)scale(0.3 -0.3)">
       <use xlink:href="#BitstreamVeraSans-Roman-30"/>
      </g>
     </g>
    </g>
    <g id="ytick_3">
     <g id="line2d_19">
      <g>
       <use style="stroke:#000000;stroke-width:0.5;" x="134.325" xlink:href="#m2d2016108e" y="592.4"/>
      </g>
     </g>
     <g id="line2d_20">
      <g>
       <use style="stroke:#000000;stroke-width:0.5;" x="1359.9" xlink:href="#m92ba751e23" y="592.4"/>
      </g>
     </g>
     <g id="text_10">
      <!-- 2 -->
      <g transform="translate(111.2375 600.678125)scale(0.3 -0.3)">
       <use xlink:href="#BitstreamVeraSans-Roman-32"/>
      </g>
     </g>
    </g>
    <g id="ytick_4">
     <g id="line2d_21">
      <g>
       <use style="stroke:#000000;stroke-width:0.5;" x="134.325" xlink:href="#m2d2016108e" y="515.1"/>
      </g>
     </g>
     <g id="line2d_22">
      <g>
       <use style="stroke:#000000;stroke-width:0.5;" x="1359.9" xlink:href="#m92ba751e23" y="515.1"/>
      </g>
     </g>
     <g id="text_11">
      <!-- 4 -->
      <g transform="translate(111.2375 523.378125)scale(0.3 -0.3)">
       <use xlink:href="#BitstreamVeraSans-Roman-34"/>
      </g>
     </g>
    </g>
    <g id="ytick_5">
     <g id="line2d_23">
      <g>
       <use style="stroke:#000000;stroke-width:0.5;" x="134.325" xlink:href="#m2d2016108e" y="437.8"/>
      </g>
     </g>
     <g id="line2d_24">
      <g>
       <use style="stroke:#000000;stroke-width:0.5;" x="1359.9" xlink:href="#m92ba751e23" y="437.8"/>
      </g>
     </g>
     <g id="text_12">
      <!-- 6 -->
      <g transform="translate(111.2375 446.078125)scale(0.3 -0.3)">
       <use xlink:href="#BitstreamVeraSans-Roman-36"/>
      </g>
     </g>
    </g>
    <g id="ytick_6">
     <g id="line2d_25">
      <g>
       <use style="stroke:#000000;stroke-width:0.5;" x="134.325" xlink:href="#m2d2016108e" y="360.5"/>
      </g>
     </g>
     <g id="line2d_26">
      <g>
       <use style="stroke:#000000;stroke-width:0.5;" x="1359.9" xlink:href="#m92ba751e23" y="360.5"/>
      </g>
     </g>
     <g id="text_13">
      <!-- 8 -->
      <g transform="translate(111.2375 368.778125)scale(0.3 -0.3)">
       <use xlink:href="#BitstreamVeraSans-Roman-38"/>
      </g>
     </g>
    </g>
    <g id="ytick_7">
     <g id="line2d_27">
      <g>
       <use style="stroke:#000000;stroke-width:0.5;" x="134.325" xlink:href="#m2d2016108e" y="283.2"/>
      </g>
     </g>
     <g id="line2d_28">
      <g>
       <use style="stroke:#000000;stroke-width:0.5;" x="1359.9" xlink:href="#m92ba751e23" y="283.2"/>
      </g>
     </g>
     <g id="text_14">
      <!-- 10 -->
      <g transform="translate(92.15 291.478125)scale(0.3 -0.3)">
       <use xlink:href="#BitstreamVeraSans-Roman-31"/>
       <use x="63.623046875" xlink:href="#BitstreamVeraSans-Roman-30"/>
      </g>
     </g>
    </g>
    <g id="ytick_8">
     <g id="line2d_29">
      <g>
       <use style="stroke:#000000;stroke-width:0.5;" x="134.325" xlink:href="#m2d2016108e" y="205.9"/>
      </g>
     </g>
     <g id="line2d_30">
      <g>
       <use style="stroke:#000000;stroke-width:0.5;" x="1359.9" xlink:href="#m92ba751e23" y="205.9"/>
      </g>
     </g>
     <g id="text_15">
      <!-- 12 -->
      <g transform="translate(92.15 214.178125)scale(0.3 -0.3)">
       <use xlink:href="#BitstreamVeraSans-Roman-31"/>
       <use x="63.623046875" xlink:href="#BitstreamVeraSans-Roman-32"/>
      </g>
     </g>
    </g>
    <g id="ytick_9">
     <g id="line2d_31">
      <g>
       <use style="stroke:#000000;stroke-width:0.5;" x="134.325" xlink:href="#m2d2016108e" y="128.6"/>
      </g>
     </g>
     <g id="line2d_32">
      <g>
       <use style="stroke:#000000;stroke-width:0.5;" x="1359.9" xlink:href="#m92ba751e23" y="128.6"/>
      </g>
     </g>
     <g id="text_16">
      <!-- 14 -->
      <g transform="translate(92.15 136.878125)scale(0.3 -0.3)">
       <use xlink:href="#BitstreamVeraSans-Roman-31"/>
       <use x="63.623046875" xlink:href="#BitstreamVeraSans-Roman-34"/>
      </g>
     </g>
    </g>
    <g id="ytick_10">
     <g id="line2d_33">
      <g>
       <use style="stroke:#000000;stroke-width:0.5;" x="134.325" xlink:href="#m2d2016108e" y="51.3"/>
      </g>
     </g>
     <g id="line2d_34">
      <g>
       <use style="stroke:#000000;stroke-width:0.5;" x="1359.9" xlink:href="#m92ba751e23" y="51.3"/>
      </g>
     </g>
     <g id="text_17">
      <!-- 16 -->
      <g transform="translate(92.15 59.578125)scale(0.3 -0.3)">
       <use xlink:href="#BitstreamVeraSans-Roman-31"/>
       <use x="63.623046875" xlink:href="#BitstreamVeraSans-Roman-36"/>
      </g>
     </g>
    </g>
    <g id="text_18">
     <!-- log(loss) -->
     <defs>
      <path d="M 8.015625 75.875 
L 15.828125 75.875 
Q 23.140625 64.359375 26.78125 53.3125 
Q 30.421875 42.28125 30.421875 31.390625 
Q 30.421875 20.453125 26.78125 9.375 
Q 23.140625 -1.703125 15.828125 -13.1875 
L 8.015625 -13.1875 
Q 14.5 -2 17.703125 9.0625 
Q 20.90625 20.125 20.90625 31.390625 
Q 20.90625 42.671875 17.703125 53.65625 
Q 14.5 64.65625 8.015625 75.875 
" id="BitstreamVeraSans-Roman-29"/>
      <path d="M 31 75.875 
Q 24.46875 64.65625 21.28125 53.65625 
Q 18.109375 42.671875 18.109375 31.390625 
Q 18.109375 20.125 21.3125 9.0625 
Q 24.515625 -2 31 -13.1875 
L 23.1875 -13.1875 
Q 15.875 -1.703125 12.234375 9.375 
Q 8.59375 20.453125 8.59375 31.390625 
Q 8.59375 42.28125 12.203125 53.3125 
Q 15.828125 64.359375 23.1875 75.875 
z
" id="BitstreamVeraSans-Roman-28"/>
      <path d="M 45.40625 27.984375 
Q 45.40625 37.75 41.375 43.109375 
Q 37.359375 48.484375 30.078125 48.484375 
Q 22.859375 48.484375 18.828125 43.109375 
Q 14.796875 37.75 14.796875 27.984375 
Q 14.796875 18.265625 18.828125 12.890625 
Q 22.859375 7.515625 30.078125 7.515625 
Q 37.359375 7.515625 41.375 12.890625 
Q 45.40625 18.265625 45.40625 27.984375 
M 54.390625 6.78125 
Q 54.390625 -7.171875 48.1875 -13.984375 
Q 42 -20.796875 29.203125 -20.796875 
Q 24.46875 -20.796875 20.265625 -20.09375 
Q 16.0625 -19.390625 12.109375 -17.921875 
L 12.109375 -9.1875 
Q 16.0625 -11.328125 19.921875 -12.34375 
Q 23.78125 -13.375 27.78125 -13.375 
Q 36.625 -13.375 41.015625 -8.765625 
Q 45.40625 -4.15625 45.40625 5.171875 
L 45.40625 9.625 
Q 42.625 4.78125 38.28125 2.390625 
Q 33.9375 0 27.875 0 
Q 17.828125 0 11.671875 7.65625 
Q 5.515625 15.328125 5.515625 27.984375 
Q 5.515625 40.671875 11.671875 48.328125 
Q 17.828125 56 27.875 56 
Q 33.9375 56 38.28125 53.609375 
Q 42.625 51.21875 45.40625 46.390625 
L 45.40625 54.6875 
L 54.390625 54.6875 
z
" id="BitstreamVeraSans-Roman-67"/>
      <path d="M 9.421875 75.984375 
L 18.40625 75.984375 
L 18.40625 0 
L 9.421875 0 
z
" id="BitstreamVeraSans-Roman-6c"/>
     </defs>
     <g transform="translate(74.859375 462.69609375)rotate(-90.0)scale(0.3 -0.3)">
      <use xlink:href="#BitstreamVeraSans-Roman-6c"/>
      <use x="27.783203125" xlink:href="#BitstreamVeraSans-Roman-6f"/>
      <use x="88.96484375" xlink:href="#BitstreamVeraSans-Roman-67"/>
      <use x="152.44140625" xlink:href="#BitstreamVeraSans-Roman-28"/>
      <use x="191.455078125" xlink:href="#BitstreamVeraSans-Roman-6c"/>
      <use x="219.23828125" xlink:href="#BitstreamVeraSans-Roman-6f"/>
      <use x="280.419921875" xlink:href="#BitstreamVeraSans-Roman-73"/>
      <use x="332.51953125" xlink:href="#BitstreamVeraSans-Roman-73"/>
      <use x="384.619140625" xlink:href="#BitstreamVeraSans-Roman-29"/>
     </g>
    </g>
   </g>
   <g id="legend_1">
    <g id="patch_7">
     <path d="M 867.726562 163.36875 
L 1344.9 163.36875 
L 1344.9 66.3 
L 867.726562 66.3 
z
" style="fill:#ffffff;stroke:#000000;stroke-linejoin:miter;"/>
    </g>
    <g id="line2d_35">
     <path d="M 888.726562 90.595312 
L 930.726562 90.595312 
" style="fill:none;stroke:#0000ff;stroke-linecap:square;stroke-width:2.0;"/>
    </g>
    <g id="line2d_36"/>
    <g id="text_19">
     <!-- random: step=0.001231 -->
     <defs>
      <path id="BitstreamVeraSans-Roman-20"/>
      <path d="M 40.578125 39.3125 
Q 47.65625 37.796875 51.625 33 
Q 55.609375 28.21875 55.609375 21.1875 
Q 55.609375 10.40625 48.1875 4.484375 
Q 40.765625 -1.421875 27.09375 -1.421875 
Q 22.515625 -1.421875 17.65625 -0.515625 
Q 12.796875 0.390625 7.625 2.203125 
L 7.625 11.71875 
Q 11.71875 9.328125 16.59375 8.109375 
Q 21.484375 6.890625 26.8125 6.890625 
Q 36.078125 6.890625 40.9375 10.546875 
Q 45.796875 14.203125 45.796875 21.1875 
Q 45.796875 27.640625 41.28125 31.265625 
Q 36.765625 34.90625 28.71875 34.90625 
L 20.21875 34.90625 
L 20.21875 43.015625 
L 29.109375 43.015625 
Q 36.375 43.015625 40.234375 45.921875 
Q 44.09375 48.828125 44.09375 54.296875 
Q 44.09375 59.90625 40.109375 62.90625 
Q 36.140625 65.921875 28.71875 65.921875 
Q 24.65625 65.921875 20.015625 65.03125 
Q 15.375 64.15625 9.8125 62.3125 
L 9.8125 71.09375 
Q 15.4375 72.65625 20.34375 73.4375 
Q 25.25 74.21875 29.59375 74.21875 
Q 40.828125 74.21875 47.359375 69.109375 
Q 53.90625 64.015625 53.90625 55.328125 
Q 53.90625 49.265625 50.4375 45.09375 
Q 46.96875 40.921875 40.578125 39.3125 
" id="BitstreamVeraSans-Roman-33"/>
      <path d="M 52 44.1875 
Q 55.375 50.25 60.0625 53.125 
Q 64.75 56 71.09375 56 
Q 79.640625 56 84.28125 50.015625 
Q 88.921875 44.046875 88.921875 33.015625 
L 88.921875 0 
L 79.890625 0 
L 79.890625 32.71875 
Q 79.890625 40.578125 77.09375 44.375 
Q 74.3125 48.1875 68.609375 48.1875 
Q 61.625 48.1875 57.5625 43.546875 
Q 53.515625 38.921875 53.515625 30.90625 
L 53.515625 0 
L 44.484375 0 
L 44.484375 32.71875 
Q 44.484375 40.625 41.703125 44.40625 
Q 38.921875 48.1875 33.109375 48.1875 
Q 26.21875 48.1875 22.15625 43.53125 
Q 18.109375 38.875 18.109375 30.90625 
L 18.109375 0 
L 9.078125 0 
L 9.078125 54.6875 
L 18.109375 54.6875 
L 18.109375 46.1875 
Q 21.1875 51.21875 25.484375 53.609375 
Q 29.78125 56 35.6875 56 
Q 41.65625 56 45.828125 52.96875 
Q 50 49.953125 52 44.1875 
" id="BitstreamVeraSans-Roman-6d"/>
      <path d="M 11.71875 12.40625 
L 22.015625 12.40625 
L 22.015625 0 
L 11.71875 0 
z
M 11.71875 51.703125 
L 22.015625 51.703125 
L 22.015625 39.3125 
L 11.71875 39.3125 
z
" id="BitstreamVeraSans-Roman-3a"/>
      <path d="M 10.6875 12.40625 
L 21 12.40625 
L 21 0 
L 10.6875 0 
z
" id="BitstreamVeraSans-Roman-2e"/>
      <path d="M 10.59375 45.40625 
L 73.1875 45.40625 
L 73.1875 37.203125 
L 10.59375 37.203125 
z
M 10.59375 25.484375 
L 73.1875 25.484375 
L 73.1875 17.1875 
L 10.59375 17.1875 
z
" id="BitstreamVeraSans-Roman-3d"/>
      <path d="M 45.40625 46.390625 
L 45.40625 75.984375 
L 54.390625 75.984375 
L 54.390625 0 
L 45.40625 0 
L 45.40625 8.203125 
Q 42.578125 3.328125 38.25 0.953125 
Q 33.9375 -1.421875 27.875 -1.421875 
Q 17.96875 -1.421875 11.734375 6.484375 
Q 5.515625 14.40625 5.515625 27.296875 
Q 5.515625 40.1875 11.734375 48.09375 
Q 17.96875 56 27.875 56 
Q 33.9375 56 38.25 53.625 
Q 42.578125 51.265625 45.40625 46.390625 
M 14.796875 27.296875 
Q 14.796875 17.390625 18.875 11.75 
Q 22.953125 6.109375 30.078125 6.109375 
Q 37.203125 6.109375 41.296875 11.75 
Q 45.40625 17.390625 45.40625 27.296875 
Q 45.40625 37.203125 41.296875 42.84375 
Q 37.203125 48.484375 30.078125 48.484375 
Q 22.953125 48.484375 18.875 42.84375 
Q 14.796875 37.203125 14.796875 27.296875 
" id="BitstreamVeraSans-Roman-64"/>
      <path d="M 18.109375 8.203125 
L 18.109375 -20.796875 
L 9.078125 -20.796875 
L 9.078125 54.6875 
L 18.109375 54.6875 
L 18.109375 46.390625 
Q 20.953125 51.265625 25.265625 53.625 
Q 29.59375 56 35.59375 56 
Q 45.5625 56 51.78125 48.09375 
Q 58.015625 40.1875 58.015625 27.296875 
Q 58.015625 14.40625 51.78125 6.484375 
Q 45.5625 -1.421875 35.59375 -1.421875 
Q 29.59375 -1.421875 25.265625 0.953125 
Q 20.953125 3.328125 18.109375 8.203125 
M 48.6875 27.296875 
Q 48.6875 37.203125 44.609375 42.84375 
Q 40.53125 48.484375 33.40625 48.484375 
Q 26.265625 48.484375 22.1875 42.84375 
Q 18.109375 37.203125 18.109375 27.296875 
Q 18.109375 17.390625 22.1875 11.75 
Q 26.265625 6.109375 33.40625 6.109375 
Q 40.53125 6.109375 44.609375 11.75 
Q 48.6875 17.390625 48.6875 27.296875 
" id="BitstreamVeraSans-Roman-70"/>
     </defs>
     <g transform="translate(963.7265625 101.0953125)scale(0.3 -0.3)">
      <use xlink:href="#BitstreamVeraSans-Roman-72"/>
      <use x="41.11328125" xlink:href="#BitstreamVeraSans-Roman-61"/>
      <use x="102.392578125" xlink:href="#BitstreamVeraSans-Roman-6e"/>
      <use x="165.771484375" xlink:href="#BitstreamVeraSans-Roman-64"/>
      <use x="229.248046875" xlink:href="#BitstreamVeraSans-Roman-6f"/>
      <use x="290.4296875" xlink:href="#BitstreamVeraSans-Roman-6d"/>
      <use x="387.841796875" xlink:href="#BitstreamVeraSans-Roman-3a"/>
      <use x="421.533203125" xlink:href="#BitstreamVeraSans-Roman-20"/>
      <use x="453.3203125" xlink:href="#BitstreamVeraSans-Roman-73"/>
      <use x="505.419921875" xlink:href="#BitstreamVeraSans-Roman-74"/>
      <use x="544.62890625" xlink:href="#BitstreamVeraSans-Roman-65"/>
      <use x="606.15234375" xlink:href="#BitstreamVeraSans-Roman-70"/>
      <use x="669.62890625" xlink:href="#BitstreamVeraSans-Roman-3d"/>
      <use x="753.41796875" xlink:href="#BitstreamVeraSans-Roman-30"/>
      <use x="817.041015625" xlink:href="#BitstreamVeraSans-Roman-2e"/>
      <use x="848.828125" xlink:href="#BitstreamVeraSans-Roman-30"/>
      <use x="912.451171875" xlink:href="#BitstreamVeraSans-Roman-30"/>
      <use x="976.07421875" xlink:href="#BitstreamVeraSans-Roman-31"/>
      <use x="1039.69726562" xlink:href="#BitstreamVeraSans-Roman-32"/>
      <use x="1103.3203125" xlink:href="#BitstreamVeraSans-Roman-33"/>
      <use x="1166.94335938" xlink:href="#BitstreamVeraSans-Roman-31"/>
     </g>
    </g>
    <g id="line2d_37">
     <path d="M 888.726562 134.629687 
L 930.726562 134.629687 
" style="fill:none;stroke:#008000;stroke-linecap:square;stroke-width:2.0;"/>
    </g>
    <g id="line2d_38"/>
    <g id="text_20">
     <!-- corr: step=0.001231 -->
     <defs>
      <path d="M 48.78125 52.59375 
L 48.78125 44.1875 
Q 44.96875 46.296875 41.140625 47.34375 
Q 37.3125 48.390625 33.40625 48.390625 
Q 24.65625 48.390625 19.8125 42.84375 
Q 14.984375 37.3125 14.984375 27.296875 
Q 14.984375 17.28125 19.8125 11.734375 
Q 24.65625 6.203125 33.40625 6.203125 
Q 37.3125 6.203125 41.140625 7.25 
Q 44.96875 8.296875 48.78125 10.40625 
L 48.78125 2.09375 
Q 45.015625 0.34375 40.984375 -0.53125 
Q 36.96875 -1.421875 32.421875 -1.421875 
Q 20.0625 -1.421875 12.78125 6.34375 
Q 5.515625 14.109375 5.515625 27.296875 
Q 5.515625 40.671875 12.859375 48.328125 
Q 20.21875 56 33.015625 56 
Q 37.15625 56 41.109375 55.140625 
Q 45.0625 54.296875 48.78125 52.59375 
" id="BitstreamVeraSans-Roman-63"/>
     </defs>
     <g transform="translate(963.7265625 145.1296875)scale(0.3 -0.3)">
      <use xlink:href="#BitstreamVeraSans-Roman-63"/>
      <use x="54.98046875" xlink:href="#BitstreamVeraSans-Roman-6f"/>
      <use x="116.162109375" xlink:href="#BitstreamVeraSans-Roman-72"/>
      <use x="157.259765625" xlink:href="#BitstreamVeraSans-Roman-72"/>
      <use x="198.357421875" xlink:href="#BitstreamVeraSans-Roman-3a"/>
      <use x="232.048828125" xlink:href="#BitstreamVeraSans-Roman-20"/>
      <use x="263.8359375" xlink:href="#BitstreamVeraSans-Roman-73"/>
      <use x="315.935546875" xlink:href="#BitstreamVeraSans-Roman-74"/>
      <use x="355.14453125" xlink:href="#BitstreamVeraSans-Roman-65"/>
      <use x="416.66796875" xlink:href="#BitstreamVeraSans-Roman-70"/>
      <use x="480.14453125" xlink:href="#BitstreamVeraSans-Roman-3d"/>
      <use x="563.93359375" xlink:href="#BitstreamVeraSans-Roman-30"/>
      <use x="627.556640625" xlink:href="#BitstreamVeraSans-Roman-2e"/>
      <use x="659.34375" xlink:href="#BitstreamVeraSans-Roman-30"/>
      <use x="722.966796875" xlink:href="#BitstreamVeraSans-Roman-30"/>
      <use x="786.58984375" xlink:href="#BitstreamVeraSans-Roman-31"/>
      <use x="850.212890625" xlink:href="#BitstreamVeraSans-Roman-32"/>
      <use x="913.8359375" xlink:href="#BitstreamVeraSans-Roman-33"/>
      <use x="977.458984375" xlink:href="#BitstreamVeraSans-Roman-31"/>
     </g>
    </g>
   </g>
  </g>
 </g>
 <defs>
  <clipPath id="pf46429869e">
   <rect height="695.7" width="1225.575" x="134.325" y="51.3"/>
  </clipPath>
 </defs>
</svg>
