<?xml version="1.0" encoding="utf-8" standalone="no"?>
<!DOCTYPE svg PUBLIC "-//W3C//DTD SVG 1.1//EN"
  "http://www.w3.org/Graphics/SVG/1.1/DTD/svg11.dtd">
<!-- Created with matplotlib (http://matplotlib.org/) -->
<svg height="864pt" version="1.1" viewBox="0 0 1440 864" width="1440pt" xmlns="http://www.w3.org/2000/svg" xmlns:xlink="http://www.w3.org/1999/xlink">
 <defs>
  <style type="text/css">
*{stroke-linecap:butt;stroke-linejoin:round;stroke-miterlimit:100000;}
  </style>
 </defs>
 <g id="figure_1">
  <g id="patch_1">
   <path d="M 0 864 
L 1440 864 
L 1440 0 
L 0 0 
z
" style="fill:#ffffff;"/>
  </g>
  <g id="axes_1">
   <g id="patch_2">
    <path d="M 158.4 747 
L 1371.825 747 
L 1371.825 51.3 
L 158.4 51.3 
z
" style="fill:#ffffff;"/>
   </g>
   <g id="line2d_1">
    <path clip-path="url(#p6b4b5a87b3)" d="M 158.4 123.9814 
L 160.82685 126.422551 
L 163.2537 128.172425 
L 165.68055 129.646859 
L 172.9611 135.330438 
L 175.38795 136.67123 
L 180.24165 141.123365 
L 189.94905 148.669211 
L 192.3759 150.231326 
L 202.0833 158.23697 
L 204.51015 159.828631 
L 206.937 161.941076 
L 209.36385 163.54977 
L 211.7907 165.652288 
L 214.21755 167.463299 
L 216.6444 168.977225 
L 219.07125 170.733582 
L 223.92495 173.717189 
L 226.3518 175.419332 
L 228.77865 176.974791 
L 231.2055 178.700075 
L 233.63235 179.844839 
L 236.0592 181.771883 
L 238.48605 182.972043 
L 240.9129 184.558585 
L 245.7666 187.087767 
L 250.6203 190.381557 
L 255.474 193.956476 
L 257.90085 195.363277 
L 260.3277 197.025611 
L 262.75455 198.485599 
L 265.1814 200.615383 
L 267.60825 201.669421 
L 270.0351 203.582351 
L 272.46195 205.029712 
L 274.8888 205.875011 
L 277.31565 208.259162 
L 279.7425 210.178873 
L 291.87675 217.066956 
L 294.3036 218.81224 
L 296.73045 220.283485 
L 301.58415 224.020544 
L 304.011 225.116275 
L 306.43785 225.987539 
L 308.8647 227.512554 
L 311.29155 228.404247 
L 313.7184 229.546094 
L 316.14525 231.261348 
L 318.5721 232.63786 
L 320.99895 234.315181 
L 323.4258 236.381164 
L 325.85265 237.892003 
L 328.2795 238.696516 
L 335.56005 243.628121 
L 340.41375 247.780832 
L 345.26745 250.853977 
L 347.6943 252.292481 
L 350.12115 253.988666 
L 352.548 255.989596 
L 354.97485 257.327232 
L 357.4017 259.116419 
L 359.82855 260.757621 
L 362.2554 261.444598 
L 364.68225 263.353793 
L 369.53595 266.099054 
L 376.8165 271.16841 
L 379.24335 272.587115 
L 384.09705 275.105513 
L 386.5239 275.996973 
L 388.95075 277.722592 
L 391.3776 279.22155 
L 393.80445 280.927255 
L 396.2313 282.460468 
L 398.65815 283.79546 
L 403.51185 287.983011 
L 405.9387 289.632955 
L 408.36555 291.467804 
L 410.7924 293.041513 
L 413.21925 294.469411 
L 420.4998 300.056904 
L 422.92665 301.598876 
L 427.78035 304.466619 
L 430.2072 306.054647 
L 432.63405 307.257619 
L 437.48775 310.607291 
L 442.34145 313.372324 
L 447.19515 316.468175 
L 454.4757 319.952051 
L 456.90255 321.59444 
L 461.75625 324.363031 
L 469.0368 329.367555 
L 476.31735 332.895959 
L 478.7442 334.698424 
L 483.5979 337.73971 
L 486.02475 338.891002 
L 490.87845 342.398319 
L 493.3053 343.777925 
L 495.73215 346.226581 
L 505.43955 352.159433 
L 507.8664 353.998111 
L 515.14695 358.498077 
L 517.5738 360.369626 
L 520.00065 361.982035 
L 524.85435 364.47204 
L 527.2812 366.575158 
L 529.70805 368.37302 
L 532.1349 369.844619 
L 534.56175 371.03756 
L 536.9886 372.791937 
L 539.41545 374.276734 
L 541.8423 375.901288 
L 544.26915 377.124881 
L 546.696 378.920094 
L 551.5497 381.415855 
L 553.97655 382.922092 
L 556.4034 383.86996 
L 558.83025 385.341075 
L 561.2571 387.102923 
L 563.68395 388.262371 
L 566.1108 389.828683 
L 568.53765 391.180622 
L 570.9645 392.702334 
L 573.39135 394.904017 
L 575.8182 396.452385 
L 578.24505 397.074879 
L 580.6719 398.632308 
L 583.09875 399.916453 
L 585.5256 401.05037 
L 590.3793 404.243464 
L 600.0867 410.113675 
L 602.51355 411.811522 
L 604.9404 413.265662 
L 609.7941 416.42739 
L 612.22095 417.791096 
L 614.6478 418.934557 
L 621.92835 424.426085 
L 626.78205 426.683068 
L 631.63575 429.719125 
L 634.0626 431.705099 
L 636.48945 433.113043 
L 638.9163 434.807041 
L 641.34315 436.707431 
L 643.77 437.752928 
L 651.05055 441.940898 
L 653.4774 443.238197 
L 655.90425 444.242015 
L 658.3311 445.801208 
L 660.75795 447.553545 
L 663.1848 448.825464 
L 665.61165 451.053187 
L 668.0385 452.322771 
L 670.46535 454.011162 
L 672.8922 455.522213 
L 677.7459 458.197217 
L 682.5996 460.894761 
L 685.02645 462.756036 
L 687.4533 463.933736 
L 692.307 467.001699 
L 694.73385 468.315961 
L 699.58755 470.708391 
L 702.0144 472.197733 
L 704.44125 474.072828 
L 709.29495 477.212792 
L 716.5755 481.38089 
L 719.00235 482.77073 
L 721.4292 484.471595 
L 723.85605 485.749691 
L 726.2829 487.162711 
L 728.70975 488.730183 
L 731.1366 489.926519 
L 735.9903 492.97491 
L 738.41715 494.160764 
L 743.27085 497.12895 
L 748.12455 499.711927 
L 765.1125 510.683001 
L 767.53935 511.636463 
L 769.9662 512.710014 
L 772.39305 514.516919 
L 774.8199 516.126201 
L 777.24675 517.59993 
L 779.6736 519.412509 
L 782.10045 520.848192 
L 784.5273 522.52566 
L 786.95415 523.908135 
L 791.80785 527.16895 
L 794.2347 528.389234 
L 796.66155 529.855961 
L 799.0884 530.798053 
L 801.51525 532.023874 
L 803.9421 533.603099 
L 806.36895 535.383294 
L 808.7958 536.77689 
L 813.6495 539.928609 
L 816.07635 541.637102 
L 818.5032 542.844942 
L 820.93005 544.281195 
L 823.3569 546.031063 
L 830.63745 550.109973 
L 835.49115 551.99832 
L 840.34485 554.391475 
L 842.7717 556.049622 
L 845.19855 557.147167 
L 847.6254 558.829647 
L 850.05225 560.872565 
L 854.90595 563.596968 
L 857.3328 565.647323 
L 859.75965 567.075906 
L 862.1865 569.249796 
L 864.61335 570.579696 
L 867.0402 572.205528 
L 869.46705 574.09049 
L 874.32075 576.975235 
L 876.7476 578.181618 
L 879.17445 579.51756 
L 881.6013 581.63713 
L 896.1624 589.76567 
L 898.58925 591.937646 
L 905.8698 596.22652 
L 908.29665 598.002199 
L 910.7235 599.294665 
L 913.15035 601.018764 
L 918.00405 603.758424 
L 920.4309 605.744686 
L 925.2846 608.265365 
L 927.71145 609.841621 
L 930.1383 611.205664 
L 932.56515 612.823719 
L 934.992 614.957724 
L 937.41885 616.269108 
L 942.27255 619.734968 
L 951.97995 625.527321 
L 954.4068 627.309961 
L 956.83365 628.702093 
L 959.2605 629.83538 
L 961.68735 631.275872 
L 964.1142 632.430453 
L 966.54105 633.807295 
L 968.9679 635.596356 
L 971.39475 636.861492 
L 973.8216 638.393444 
L 983.529 643.942812 
L 985.95585 645.628208 
L 988.3827 647.566837 
L 993.2364 650.76832 
L 995.66325 652.004487 
L 998.0901 653.886601 
L 1000.51695 655.547277 
L 1002.9438 656.564777 
L 1007.7975 659.050093 
L 1012.6512 661.34086 
L 1015.07805 663.016684 
L 1017.5049 664.482202 
L 1019.93175 666.171352 
L 1027.2123 670.655445 
L 1029.63915 672.113597 
L 1032.066 673.860729 
L 1034.49285 674.355865 
L 1036.9197 675.448086 
L 1039.34655 676.741477 
L 1041.7734 678.208309 
L 1044.20025 679.51481 
L 1046.6271 681.046017 
L 1049.05395 682.350873 
L 1051.4808 683.952036 
L 1053.90765 685.339711 
L 1056.3345 687.645677 
L 1058.76135 689.026742 
L 1061.1882 691.06766 
L 1066.0419 694.329434 
L 1068.46875 695.32092 
L 1070.8956 696.743 
L 1073.32245 697.885791 
L 1078.17615 700.532473 
L 1083.02985 703.457653 
L 1085.4567 705.2785 
L 1092.73725 709.482017 
L 1095.1641 710.403247 
L 1097.59095 711.669516 
L 1100.0178 712.624245 
L 1102.44465 714.24987 
L 1107.29835 716.76401 
L 1109.7252 717.717062 
L 1112.15205 718.518665 
L 1114.5789 719.079594 
L 1117.00575 720.191815 
L 1121.85945 720.84721 
L 1124.2863 721.655602 
L 1129.14 722.529835 
L 1131.56685 723.268102 
L 1133.9937 723.661253 
L 1136.42055 724.291318 
L 1138.8474 724.542613 
L 1141.27425 724.159512 
L 1146.12795 724.665177 
L 1148.5548 724.662277 
L 1150.98165 725.02066 
L 1153.4085 725.877365 
L 1155.83535 725.601255 
L 1160.68905 725.432195 
L 1163.1159 724.996922 
L 1170.39645 724.786575 
L 1172.8233 725.028682 
L 1175.25015 725.513359 
L 1177.677 725.453759 
L 1180.10385 725.781479 
L 1182.5307 725.566358 
L 1184.95755 725.53781 
L 1189.81125 725.294511 
L 1192.2381 725.585904 
L 1194.66495 725.313619 
L 1199.51865 725.401034 
L 1201.9455 725.041059 
L 1204.37235 725.119785 
L 1206.7992 724.744276 
L 1211.6529 725.971934 
L 1214.07975 725.790461 
L 1216.5066 726.161908 
L 1218.93345 725.858357 
L 1221.3603 726.32098 
L 1228.64085 725.232607 
L 1233.49455 726.347753 
L 1235.9214 726.558496 
L 1240.7751 725.946142 
L 1243.20195 726.101024 
L 1245.6288 725.549956 
L 1248.05565 725.984754 
L 1250.4825 726.579697 
L 1252.90935 725.857951 
L 1255.3362 726.29811 
L 1257.76305 725.824205 
L 1260.1899 725.539107 
L 1262.61675 725.750872 
L 1265.0436 725.447126 
L 1267.47045 725.842342 
L 1269.8973 726.376586 
L 1272.32415 725.805586 
L 1274.751 725.724921 
L 1277.17785 725.455727 
L 1279.6047 725.853281 
L 1282.03155 724.931299 
L 1286.88525 725.825519 
L 1289.3121 725.71605 
L 1291.73895 725.43627 
L 1294.1658 726.178008 
L 1296.59265 725.462008 
L 1299.0195 725.126197 
L 1301.44635 725.956157 
L 1303.8732 725.933414 
L 1306.30005 726.510105 
L 1308.7269 725.411555 
L 1311.15375 725.682145 
L 1313.5806 725.285945 
L 1316.00745 725.423069 
L 1318.4343 724.926056 
L 1320.86115 724.909831 
L 1325.71485 725.665618 
L 1328.1417 725.241104 
L 1330.56855 725.593313 
L 1332.9954 725.072566 
L 1335.42225 725.541312 
L 1337.8491 726.130197 
L 1342.7028 725.692909 
L 1347.5565 725.627018 
L 1349.98335 726.345998 
L 1352.4102 725.621925 
L 1354.83705 725.490926 
L 1357.2639 725.997025 
L 1359.69075 725.647554 
L 1362.1176 725.580658 
L 1364.54445 725.198484 
L 1366.9713 725.184717 
L 1369.39815 725.423817 
L 1369.39815 725.423817 
" style="fill:none;stroke:#0000ff;stroke-linecap:square;stroke-width:2.0;"/>
   </g>
   <g id="line2d_2">
    <path clip-path="url(#p6b4b5a87b3)" d="M 158.4 123.463563 
L 160.82685 125.243008 
L 163.2537 126.973965 
L 165.68055 128.500481 
L 168.1074 130.448577 
L 170.53425 132.169313 
L 172.9611 134.409658 
L 175.38795 136.484852 
L 177.8148 138.218164 
L 180.24165 139.72965 
L 185.09535 143.645918 
L 187.5222 145.441472 
L 189.94905 146.876173 
L 192.3759 148.604462 
L 197.2296 152.565427 
L 199.65645 154.677291 
L 202.0833 155.982645 
L 204.51015 157.634492 
L 206.937 160.229238 
L 211.7907 162.876077 
L 219.07125 167.256895 
L 226.3518 171.271895 
L 228.77865 173.110094 
L 236.0592 177.555776 
L 240.9129 180.994829 
L 243.33975 182.315784 
L 248.19345 185.288265 
L 250.6203 186.632763 
L 253.04715 188.179169 
L 257.90085 191.526663 
L 260.3277 192.518075 
L 267.60825 197.100508 
L 270.0351 198.878351 
L 272.46195 200.343779 
L 274.8888 202.021907 
L 277.31565 203.84753 
L 279.7425 205.143782 
L 282.16935 207.498886 
L 284.5962 209.215373 
L 289.4499 211.881567 
L 291.87675 213.438515 
L 296.73045 217.030948 
L 299.1573 218.603626 
L 301.58415 220.004916 
L 304.011 221.145523 
L 311.29155 225.669164 
L 325.85265 234.137371 
L 328.2795 235.451951 
L 333.1332 238.238887 
L 337.9869 240.888757 
L 340.41375 242.583413 
L 342.8406 244.056644 
L 345.26745 246.072364 
L 350.12115 249.536975 
L 352.548 250.806954 
L 354.97485 252.626452 
L 362.2554 257.097674 
L 364.68225 258.31307 
L 367.1091 259.330631 
L 369.53595 260.692664 
L 371.9628 262.505331 
L 374.38965 263.333799 
L 376.8165 265.232021 
L 381.6702 268.232776 
L 384.09705 270.335698 
L 386.5239 271.842505 
L 388.95075 273.648841 
L 391.3776 275.251983 
L 398.65815 278.775883 
L 401.085 280.192707 
L 405.9387 283.607376 
L 408.36555 284.995043 
L 410.7924 286.14149 
L 413.21925 287.603664 
L 415.6461 289.253129 
L 418.07295 291.053511 
L 422.92665 293.479776 
L 425.3535 295.080308 
L 430.2072 297.588933 
L 435.0609 300.71003 
L 437.48775 302.216767 
L 439.9146 303.271345 
L 444.7683 307.330799 
L 447.19515 308.705079 
L 456.90255 315.503948 
L 459.3294 316.838131 
L 461.75625 318.441035 
L 464.1831 319.887105 
L 466.60995 321.071995 
L 481.17105 329.965914 
L 486.02475 333.604068 
L 500.58585 342.705867 
L 503.0127 344.391214 
L 505.43955 345.749215 
L 507.8664 346.527333 
L 517.5738 352.969042 
L 520.00065 354.374539 
L 522.4275 355.996141 
L 524.85435 357.868847 
L 532.1349 361.366476 
L 534.56175 362.898412 
L 536.9886 364.250559 
L 539.41545 365.92166 
L 541.8423 367.000383 
L 544.26915 369.033443 
L 549.12285 371.824984 
L 551.5497 373.678833 
L 553.97655 374.966231 
L 556.4034 376.379823 
L 558.83025 378.259486 
L 566.1108 383.121058 
L 568.53765 384.269185 
L 570.9645 386.474628 
L 578.24505 390.579635 
L 580.6719 391.852811 
L 585.5256 394.698566 
L 587.95245 396.641905 
L 590.3793 398.076238 
L 600.0867 403.336056 
L 602.51355 404.796879 
L 604.9404 406.512999 
L 607.36725 407.869301 
L 609.7941 408.796696 
L 612.22095 410.519144 
L 614.6478 411.800508 
L 617.07465 412.893829 
L 619.5015 414.650563 
L 624.3552 417.152812 
L 626.78205 419.204979 
L 629.2089 421.070961 
L 634.0626 423.985031 
L 636.48945 425.016601 
L 641.34315 428.19375 
L 643.77 429.570274 
L 646.19685 430.509141 
L 648.6237 431.852231 
L 651.05055 433.377025 
L 655.90425 436.072191 
L 663.1848 440.935008 
L 665.61165 442.108146 
L 670.46535 445.045439 
L 675.31905 447.85915 
L 677.7459 449.604301 
L 680.17275 450.930141 
L 682.5996 452.568391 
L 699.58755 462.382258 
L 704.44125 465.526836 
L 706.8681 466.603887 
L 709.29495 467.97311 
L 711.7218 469.478222 
L 721.4292 474.231417 
L 723.85605 475.600126 
L 728.70975 478.775745 
L 731.1366 480.096616 
L 733.56345 481.733587 
L 735.9903 483.53013 
L 738.41715 485.171077 
L 745.6977 488.886025 
L 748.12455 490.018227 
L 750.5514 491.280795 
L 752.97825 493.462975 
L 755.4051 494.98087 
L 757.83195 496.134385 
L 762.68565 499.187804 
L 765.1125 500.589084 
L 767.53935 501.776583 
L 769.9662 503.550367 
L 772.39305 504.983746 
L 779.6736 510.073147 
L 782.10045 511.36184 
L 786.95415 514.208052 
L 791.80785 516.978571 
L 799.0884 522.10185 
L 801.51525 523.228174 
L 803.9421 524.903301 
L 806.36895 525.954346 
L 808.7958 527.627813 
L 811.22265 529.027551 
L 813.6495 530.172561 
L 816.07635 531.465161 
L 818.5032 533.455271 
L 825.78375 537.078985 
L 828.2106 538.697547 
L 830.63745 539.645962 
L 833.0643 541.103996 
L 835.49115 542.723328 
L 837.918 543.875359 
L 840.34485 545.358509 
L 842.7717 546.478807 
L 845.19855 548.031318 
L 847.6254 549.183491 
L 852.4791 552.007938 
L 857.3328 554.284411 
L 859.75965 555.742896 
L 862.1865 556.880403 
L 869.46705 562.035813 
L 871.8939 563.511661 
L 874.32075 564.577867 
L 881.6013 568.620238 
L 886.455 571.306009 
L 888.88185 572.901393 
L 891.3087 573.993168 
L 893.73555 575.283115 
L 896.1624 576.83175 
L 901.0161 580.274682 
L 903.44295 581.691079 
L 905.8698 583.606258 
L 910.7235 586.50863 
L 913.15035 587.426305 
L 915.5772 589.006179 
L 918.00405 590.791346 
L 920.4309 591.916905 
L 922.85775 593.785892 
L 925.2846 595.010595 
L 930.1383 597.930726 
L 932.56515 599.230442 
L 934.992 601.236697 
L 937.41885 602.400745 
L 939.8457 603.794154 
L 942.27255 605.047963 
L 947.12625 608.137706 
L 949.5531 609.216763 
L 954.4068 611.949978 
L 956.83365 613.617943 
L 964.1142 618.200591 
L 966.54105 619.422901 
L 968.9679 620.796404 
L 973.8216 623.36669 
L 976.24845 624.63027 
L 978.6753 626.243683 
L 981.10215 627.623389 
L 983.529 629.351108 
L 990.80955 633.198364 
L 995.66325 636.391638 
L 998.0901 638.155211 
L 1000.51695 639.622107 
L 1002.9438 640.850534 
L 1005.37065 642.45018 
L 1007.7975 643.833928 
L 1010.22435 645.709704 
L 1012.6512 647.251801 
L 1019.93175 651.543804 
L 1024.78545 654.669153 
L 1027.2123 655.605394 
L 1034.49285 660.03314 
L 1036.9197 661.120525 
L 1039.34655 662.345617 
L 1046.6271 666.930662 
L 1049.05395 667.841643 
L 1051.4808 668.981642 
L 1053.90765 670.596825 
L 1056.3345 671.955557 
L 1058.76135 673.726645 
L 1061.1882 675.048369 
L 1063.61505 676.536513 
L 1066.0419 678.640038 
L 1070.8956 681.450112 
L 1073.32245 682.998187 
L 1075.7493 684.239632 
L 1080.603 687.457721 
L 1085.4567 690.54001 
L 1087.88355 691.555517 
L 1092.73725 694.85624 
L 1095.1641 696.374071 
L 1097.59095 697.414941 
L 1102.44465 699.990428 
L 1104.8715 701.17453 
L 1109.7252 703.792597 
L 1112.15205 705.505205 
L 1114.5789 706.888061 
L 1117.00575 708.123034 
L 1119.4326 709.573049 
L 1124.2863 712.039961 
L 1126.71315 713.095016 
L 1129.14 714.54487 
L 1131.56685 715.777921 
L 1133.9937 716.54615 
L 1136.42055 717.13777 
L 1138.8474 718.048333 
L 1143.7011 719.412841 
L 1146.12795 720.60069 
L 1148.5548 720.888324 
L 1150.98165 720.851073 
L 1153.4085 721.242067 
L 1155.83535 721.851417 
L 1158.2622 721.727167 
L 1160.68905 721.762043 
L 1163.1159 722.803538 
L 1165.54275 722.545519 
L 1170.39645 722.30821 
L 1172.8233 722.876921 
L 1177.677 722.511516 
L 1182.5307 723.517992 
L 1184.95755 723.562934 
L 1187.3844 723.400562 
L 1189.81125 722.964223 
L 1192.2381 722.744109 
L 1194.66495 722.797216 
L 1197.0918 723.073022 
L 1199.51865 723.625935 
L 1201.9455 723.241094 
L 1204.37235 723.006229 
L 1206.7992 723.115023 
L 1211.6529 722.563318 
L 1214.07975 723.127506 
L 1216.5066 722.944985 
L 1218.93345 723.170438 
L 1223.78715 723.205533 
L 1226.214 722.598611 
L 1228.64085 722.596 
L 1231.0677 722.481216 
L 1233.49455 722.719659 
L 1235.9214 722.605422 
L 1238.34825 722.676521 
L 1240.7751 723.112405 
L 1243.20195 724.190557 
L 1245.6288 723.892839 
L 1248.05565 723.883133 
L 1250.4825 723.416488 
L 1252.90935 723.414951 
L 1255.3362 724.012141 
L 1257.76305 724.199118 
L 1260.1899 723.9091 
L 1262.61675 724.838178 
L 1267.47045 724.932296 
L 1269.8973 724.571149 
L 1272.32415 724.969148 
L 1274.751 725.118493 
L 1277.17785 724.961055 
L 1279.6047 724.691064 
L 1282.03155 724.933167 
L 1284.4584 725.330222 
L 1286.88525 725.364471 
L 1289.3121 725.181202 
L 1291.73895 724.799795 
L 1294.1658 724.699124 
L 1296.59265 724.346057 
L 1299.0195 724.872878 
L 1303.8732 724.802672 
L 1306.30005 724.975379 
L 1308.7269 725.313226 
L 1311.15375 724.711791 
L 1313.5806 724.64018 
L 1316.00745 725.146081 
L 1318.4343 724.79399 
L 1320.86115 725.025698 
L 1323.288 724.879548 
L 1325.71485 725.032954 
L 1328.1417 725.056002 
L 1332.9954 724.769991 
L 1337.8491 725.291949 
L 1340.27595 725.093911 
L 1342.7028 725.262142 
L 1345.12965 724.92925 
L 1347.5565 724.395163 
L 1349.98335 724.457927 
L 1352.4102 724.381497 
L 1359.69075 724.95374 
L 1362.1176 724.899219 
L 1364.54445 724.298621 
L 1366.9713 724.212862 
L 1369.39815 724.572709 
L 1369.39815 724.572709 
" style="fill:none;stroke:#008000;stroke-linecap:square;stroke-width:2.0;"/>
   </g>
   <g id="patch_3">
    <path d="M 158.4 51.3 
L 1371.825 51.3 
" style="fill:none;stroke:#000000;stroke-linecap:square;stroke-linejoin:miter;"/>
   </g>
   <g id="patch_4">
    <path d="M 1371.825 747 
L 1371.825 51.3 
" style="fill:none;stroke:#000000;stroke-linecap:square;stroke-linejoin:miter;"/>
   </g>
   <g id="patch_5">
    <path d="M 158.4 747 
L 1371.825 747 
" style="fill:none;stroke:#000000;stroke-linecap:square;stroke-linejoin:miter;"/>
   </g>
   <g id="patch_6">
    <path d="M 158.4 747 
L 158.4 51.3 
" style="fill:none;stroke:#000000;stroke-linecap:square;stroke-linejoin:miter;"/>
   </g>
   <g id="matplotlib.axis_1">
    <g id="xtick_1">
     <g id="line2d_3">
      <defs>
       <path d="M 0 0 
L 0 -4 
" id="mb12342a89b" style="stroke:#000000;stroke-width:0.5;"/>
      </defs>
      <g>
       <use style="stroke:#000000;stroke-width:0.5;" x="158.4" xlink:href="#mb12342a89b" y="747.0"/>
      </g>
     </g>
     <g id="line2d_4">
      <defs>
       <path d="M 0 0 
L 0 4 
" id="m88f982a0b8" style="stroke:#000000;stroke-width:0.5;"/>
      </defs>
      <g>
       <use style="stroke:#000000;stroke-width:0.5;" x="158.4" xlink:href="#m88f982a0b8" y="51.3"/>
      </g>
     </g>
     <g id="text_1">
      <!-- 0 -->
      <defs>
       <path d="M 31.78125 66.40625 
Q 24.171875 66.40625 20.328125 58.90625 
Q 16.5 51.421875 16.5 36.375 
Q 16.5 21.390625 20.328125 13.890625 
Q 24.171875 6.390625 31.78125 6.390625 
Q 39.453125 6.390625 43.28125 13.890625 
Q 47.125 21.390625 47.125 36.375 
Q 47.125 51.421875 43.28125 58.90625 
Q 39.453125 66.40625 31.78125 66.40625 
M 31.78125 74.21875 
Q 44.046875 74.21875 50.515625 64.515625 
Q 56.984375 54.828125 56.984375 36.375 
Q 56.984375 17.96875 50.515625 8.265625 
Q 44.046875 -1.421875 31.78125 -1.421875 
Q 19.53125 -1.421875 13.0625 8.265625 
Q 6.59375 17.96875 6.59375 36.375 
Q 6.59375 54.828125 13.0625 64.515625 
Q 19.53125 74.21875 31.78125 74.21875 
" id="BitstreamVeraSans-Roman-30"/>
      </defs>
      <g transform="translate(148.85625 773.7953125)scale(0.3 -0.3)">
       <use xlink:href="#BitstreamVeraSans-Roman-30"/>
      </g>
     </g>
    </g>
    <g id="xtick_2">
     <g id="line2d_5">
      <g>
       <use style="stroke:#000000;stroke-width:0.5;" x="401.085" xlink:href="#mb12342a89b" y="747.0"/>
      </g>
     </g>
     <g id="line2d_6">
      <g>
       <use style="stroke:#000000;stroke-width:0.5;" x="401.085" xlink:href="#m88f982a0b8" y="51.3"/>
      </g>
     </g>
     <g id="text_2">
      <!-- 100 -->
      <defs>
       <path d="M 12.40625 8.296875 
L 28.515625 8.296875 
L 28.515625 63.921875 
L 10.984375 60.40625 
L 10.984375 69.390625 
L 28.421875 72.90625 
L 38.28125 72.90625 
L 38.28125 8.296875 
L 54.390625 8.296875 
L 54.390625 0 
L 12.40625 0 
z
" id="BitstreamVeraSans-Roman-31"/>
      </defs>
      <g transform="translate(372.45375 773.7953125)scale(0.3 -0.3)">
       <use xlink:href="#BitstreamVeraSans-Roman-31"/>
       <use x="63.623046875" xlink:href="#BitstreamVeraSans-Roman-30"/>
       <use x="127.24609375" xlink:href="#BitstreamVeraSans-Roman-30"/>
      </g>
     </g>
    </g>
    <g id="xtick_3">
     <g id="line2d_7">
      <g>
       <use style="stroke:#000000;stroke-width:0.5;" x="643.77" xlink:href="#mb12342a89b" y="747.0"/>
      </g>
     </g>
     <g id="line2d_8">
      <g>
       <use style="stroke:#000000;stroke-width:0.5;" x="643.77" xlink:href="#m88f982a0b8" y="51.3"/>
      </g>
     </g>
     <g id="text_3">
      <!-- 200 -->
      <defs>
       <path d="M 19.1875 8.296875 
L 53.609375 8.296875 
L 53.609375 0 
L 7.328125 0 
L 7.328125 8.296875 
Q 12.9375 14.109375 22.625 23.890625 
Q 32.328125 33.6875 34.8125 36.53125 
Q 39.546875 41.84375 41.421875 45.53125 
Q 43.3125 49.21875 43.3125 52.78125 
Q 43.3125 58.59375 39.234375 62.25 
Q 35.15625 65.921875 28.609375 65.921875 
Q 23.96875 65.921875 18.8125 64.3125 
Q 13.671875 62.703125 7.8125 59.421875 
L 7.8125 69.390625 
Q 13.765625 71.78125 18.9375 73 
Q 24.125 74.21875 28.421875 74.21875 
Q 39.75 74.21875 46.484375 68.546875 
Q 53.21875 62.890625 53.21875 53.421875 
Q 53.21875 48.921875 51.53125 44.890625 
Q 49.859375 40.875 45.40625 35.40625 
Q 44.1875 33.984375 37.640625 27.21875 
Q 31.109375 20.453125 19.1875 8.296875 
" id="BitstreamVeraSans-Roman-32"/>
      </defs>
      <g transform="translate(615.13875 773.7953125)scale(0.3 -0.3)">
       <use xlink:href="#BitstreamVeraSans-Roman-32"/>
       <use x="63.623046875" xlink:href="#BitstreamVeraSans-Roman-30"/>
       <use x="127.24609375" xlink:href="#BitstreamVeraSans-Roman-30"/>
      </g>
     </g>
    </g>
    <g id="xtick_4">
     <g id="line2d_9">
      <g>
       <use style="stroke:#000000;stroke-width:0.5;" x="886.455" xlink:href="#mb12342a89b" y="747.0"/>
      </g>
     </g>
     <g id="line2d_10">
      <g>
       <use style="stroke:#000000;stroke-width:0.5;" x="886.455" xlink:href="#m88f982a0b8" y="51.3"/>
      </g>
     </g>
     <g id="text_4">
      <!-- 300 -->
      <defs>
       <path d="M 40.578125 39.3125 
Q 47.65625 37.796875 51.625 33 
Q 55.609375 28.21875 55.609375 21.1875 
Q 55.609375 10.40625 48.1875 4.484375 
Q 40.765625 -1.421875 27.09375 -1.421875 
Q 22.515625 -1.421875 17.65625 -0.515625 
Q 12.796875 0.390625 7.625 2.203125 
L 7.625 11.71875 
Q 11.71875 9.328125 16.59375 8.109375 
Q 21.484375 6.890625 26.8125 6.890625 
Q 36.078125 6.890625 40.9375 10.546875 
Q 45.796875 14.203125 45.796875 21.1875 
Q 45.796875 27.640625 41.28125 31.265625 
Q 36.765625 34.90625 28.71875 34.90625 
L 20.21875 34.90625 
L 20.21875 43.015625 
L 29.109375 43.015625 
Q 36.375 43.015625 40.234375 45.921875 
Q 44.09375 48.828125 44.09375 54.296875 
Q 44.09375 59.90625 40.109375 62.90625 
Q 36.140625 65.921875 28.71875 65.921875 
Q 24.65625 65.921875 20.015625 65.03125 
Q 15.375 64.15625 9.8125 62.3125 
L 9.8125 71.09375 
Q 15.4375 72.65625 20.34375 73.4375 
Q 25.25 74.21875 29.59375 74.21875 
Q 40.828125 74.21875 47.359375 69.109375 
Q 53.90625 64.015625 53.90625 55.328125 
Q 53.90625 49.265625 50.4375 45.09375 
Q 46.96875 40.921875 40.578125 39.3125 
" id="BitstreamVeraSans-Roman-33"/>
      </defs>
      <g transform="translate(857.82375 773.7953125)scale(0.3 -0.3)">
       <use xlink:href="#BitstreamVeraSans-Roman-33"/>
       <use x="63.623046875" xlink:href="#BitstreamVeraSans-Roman-30"/>
       <use x="127.24609375" xlink:href="#BitstreamVeraSans-Roman-30"/>
      </g>
     </g>
    </g>
    <g id="xtick_5">
     <g id="line2d_11">
      <g>
       <use style="stroke:#000000;stroke-width:0.5;" x="1129.14" xlink:href="#mb12342a89b" y="747.0"/>
      </g>
     </g>
     <g id="line2d_12">
      <g>
       <use style="stroke:#000000;stroke-width:0.5;" x="1129.14" xlink:href="#m88f982a0b8" y="51.3"/>
      </g>
     </g>
     <g id="text_5">
      <!-- 400 -->
      <defs>
       <path d="M 37.796875 64.3125 
L 12.890625 25.390625 
L 37.796875 25.390625 
z
M 35.203125 72.90625 
L 47.609375 72.90625 
L 47.609375 25.390625 
L 58.015625 25.390625 
L 58.015625 17.1875 
L 47.609375 17.1875 
L 47.609375 0 
L 37.796875 0 
L 37.796875 17.1875 
L 4.890625 17.1875 
L 4.890625 26.703125 
z
" id="BitstreamVeraSans-Roman-34"/>
      </defs>
      <g transform="translate(1100.50875 773.7953125)scale(0.3 -0.3)">
       <use xlink:href="#BitstreamVeraSans-Roman-34"/>
       <use x="63.623046875" xlink:href="#BitstreamVeraSans-Roman-30"/>
       <use x="127.24609375" xlink:href="#BitstreamVeraSans-Roman-30"/>
      </g>
     </g>
    </g>
    <g id="xtick_6">
     <g id="line2d_13">
      <g>
       <use style="stroke:#000000;stroke-width:0.5;" x="1371.825" xlink:href="#mb12342a89b" y="747.0"/>
      </g>
     </g>
     <g id="line2d_14">
      <g>
       <use style="stroke:#000000;stroke-width:0.5;" x="1371.825" xlink:href="#m88f982a0b8" y="51.3"/>
      </g>
     </g>
     <g id="text_6">
      <!-- 500 -->
      <defs>
       <path d="M 10.796875 72.90625 
L 49.515625 72.90625 
L 49.515625 64.59375 
L 19.828125 64.59375 
L 19.828125 46.734375 
Q 21.96875 47.46875 24.109375 47.828125 
Q 26.265625 48.1875 28.421875 48.1875 
Q 40.625 48.1875 47.75 41.5 
Q 54.890625 34.8125 54.890625 23.390625 
Q 54.890625 11.625 47.5625 5.09375 
Q 40.234375 -1.421875 26.90625 -1.421875 
Q 22.3125 -1.421875 17.546875 -0.640625 
Q 12.796875 0.140625 7.71875 1.703125 
L 7.71875 11.625 
Q 12.109375 9.234375 16.796875 8.0625 
Q 21.484375 6.890625 26.703125 6.890625 
Q 35.15625 6.890625 40.078125 11.328125 
Q 45.015625 15.765625 45.015625 23.390625 
Q 45.015625 31 40.078125 35.4375 
Q 35.15625 39.890625 26.703125 39.890625 
Q 22.75 39.890625 18.8125 39.015625 
Q 14.890625 38.140625 10.796875 36.28125 
z
" id="BitstreamVeraSans-Roman-35"/>
      </defs>
      <g transform="translate(1343.19375 773.7953125)scale(0.3 -0.3)">
       <use xlink:href="#BitstreamVeraSans-Roman-35"/>
       <use x="63.623046875" xlink:href="#BitstreamVeraSans-Roman-30"/>
       <use x="127.24609375" xlink:href="#BitstreamVeraSans-Roman-30"/>
      </g>
     </g>
    </g>
    <g id="text_7">
     <!-- iterations -->
     <defs>
      <path d="M 54.890625 33.015625 
L 54.890625 0 
L 45.90625 0 
L 45.90625 32.71875 
Q 45.90625 40.484375 42.875 44.328125 
Q 39.84375 48.1875 33.796875 48.1875 
Q 26.515625 48.1875 22.3125 43.546875 
Q 18.109375 38.921875 18.109375 30.90625 
L 18.109375 0 
L 9.078125 0 
L 9.078125 54.6875 
L 18.109375 54.6875 
L 18.109375 46.1875 
Q 21.34375 51.125 25.703125 53.5625 
Q 30.078125 56 35.796875 56 
Q 45.21875 56 50.046875 50.171875 
Q 54.890625 44.34375 54.890625 33.015625 
" id="BitstreamVeraSans-Roman-6e"/>
      <path d="M 34.28125 27.484375 
Q 23.390625 27.484375 19.1875 25 
Q 14.984375 22.515625 14.984375 16.5 
Q 14.984375 11.71875 18.140625 8.90625 
Q 21.296875 6.109375 26.703125 6.109375 
Q 34.1875 6.109375 38.703125 11.40625 
Q 43.21875 16.703125 43.21875 25.484375 
L 43.21875 27.484375 
z
M 52.203125 31.203125 
L 52.203125 0 
L 43.21875 0 
L 43.21875 8.296875 
Q 40.140625 3.328125 35.546875 0.953125 
Q 30.953125 -1.421875 24.3125 -1.421875 
Q 15.921875 -1.421875 10.953125 3.296875 
Q 6 8.015625 6 15.921875 
Q 6 25.140625 12.171875 29.828125 
Q 18.359375 34.515625 30.609375 34.515625 
L 43.21875 34.515625 
L 43.21875 35.40625 
Q 43.21875 41.609375 39.140625 45 
Q 35.0625 48.390625 27.6875 48.390625 
Q 23 48.390625 18.546875 47.265625 
Q 14.109375 46.140625 10.015625 43.890625 
L 10.015625 52.203125 
Q 14.9375 54.109375 19.578125 55.046875 
Q 24.21875 56 28.609375 56 
Q 40.484375 56 46.34375 49.84375 
Q 52.203125 43.703125 52.203125 31.203125 
" id="BitstreamVeraSans-Roman-61"/>
      <path d="M 30.609375 48.390625 
Q 23.390625 48.390625 19.1875 42.75 
Q 14.984375 37.109375 14.984375 27.296875 
Q 14.984375 17.484375 19.15625 11.84375 
Q 23.34375 6.203125 30.609375 6.203125 
Q 37.796875 6.203125 41.984375 11.859375 
Q 46.1875 17.53125 46.1875 27.296875 
Q 46.1875 37.015625 41.984375 42.703125 
Q 37.796875 48.390625 30.609375 48.390625 
M 30.609375 56 
Q 42.328125 56 49.015625 48.375 
Q 55.71875 40.765625 55.71875 27.296875 
Q 55.71875 13.875 49.015625 6.21875 
Q 42.328125 -1.421875 30.609375 -1.421875 
Q 18.84375 -1.421875 12.171875 6.21875 
Q 5.515625 13.875 5.515625 27.296875 
Q 5.515625 40.765625 12.171875 48.375 
Q 18.84375 56 30.609375 56 
" id="BitstreamVeraSans-Roman-6f"/>
      <path d="M 9.421875 54.6875 
L 18.40625 54.6875 
L 18.40625 0 
L 9.421875 0 
z
M 9.421875 75.984375 
L 18.40625 75.984375 
L 18.40625 64.59375 
L 9.421875 64.59375 
z
" id="BitstreamVeraSans-Roman-69"/>
      <path d="M 56.203125 29.59375 
L 56.203125 25.203125 
L 14.890625 25.203125 
Q 15.484375 15.921875 20.484375 11.0625 
Q 25.484375 6.203125 34.421875 6.203125 
Q 39.59375 6.203125 44.453125 7.46875 
Q 49.3125 8.734375 54.109375 11.28125 
L 54.109375 2.78125 
Q 49.265625 0.734375 44.1875 -0.34375 
Q 39.109375 -1.421875 33.890625 -1.421875 
Q 20.796875 -1.421875 13.15625 6.1875 
Q 5.515625 13.8125 5.515625 26.8125 
Q 5.515625 40.234375 12.765625 48.109375 
Q 20.015625 56 32.328125 56 
Q 43.359375 56 49.78125 48.890625 
Q 56.203125 41.796875 56.203125 29.59375 
M 47.21875 32.234375 
Q 47.125 39.59375 43.09375 43.984375 
Q 39.0625 48.390625 32.421875 48.390625 
Q 24.90625 48.390625 20.390625 44.140625 
Q 15.875 39.890625 15.1875 32.171875 
z
" id="BitstreamVeraSans-Roman-65"/>
      <path d="M 18.3125 70.21875 
L 18.3125 54.6875 
L 36.8125 54.6875 
L 36.8125 47.703125 
L 18.3125 47.703125 
L 18.3125 18.015625 
Q 18.3125 11.328125 20.140625 9.421875 
Q 21.96875 7.515625 27.59375 7.515625 
L 36.8125 7.515625 
L 36.8125 0 
L 27.59375 0 
Q 17.1875 0 13.234375 3.875 
Q 9.28125 7.765625 9.28125 18.015625 
L 9.28125 47.703125 
L 2.6875 47.703125 
L 2.6875 54.6875 
L 9.28125 54.6875 
L 9.28125 70.21875 
z
" id="BitstreamVeraSans-Roman-74"/>
      <path d="M 41.109375 46.296875 
Q 39.59375 47.171875 37.8125 47.578125 
Q 36.03125 48 33.890625 48 
Q 26.265625 48 22.1875 43.046875 
Q 18.109375 38.09375 18.109375 28.8125 
L 18.109375 0 
L 9.078125 0 
L 9.078125 54.6875 
L 18.109375 54.6875 
L 18.109375 46.1875 
Q 20.953125 51.171875 25.484375 53.578125 
Q 30.03125 56 36.53125 56 
Q 37.453125 56 38.578125 55.875 
Q 39.703125 55.765625 41.0625 55.515625 
z
" id="BitstreamVeraSans-Roman-72"/>
      <path d="M 44.28125 53.078125 
L 44.28125 44.578125 
Q 40.484375 46.53125 36.375 47.5 
Q 32.28125 48.484375 27.875 48.484375 
Q 21.1875 48.484375 17.84375 46.4375 
Q 14.5 44.390625 14.5 40.28125 
Q 14.5 37.15625 16.890625 35.375 
Q 19.28125 33.59375 26.515625 31.984375 
L 29.59375 31.296875 
Q 39.15625 29.25 43.1875 25.515625 
Q 47.21875 21.78125 47.21875 15.09375 
Q 47.21875 7.46875 41.1875 3.015625 
Q 35.15625 -1.421875 24.609375 -1.421875 
Q 20.21875 -1.421875 15.453125 -0.5625 
Q 10.6875 0.296875 5.421875 2 
L 5.421875 11.28125 
Q 10.40625 8.6875 15.234375 7.390625 
Q 20.0625 6.109375 24.8125 6.109375 
Q 31.15625 6.109375 34.5625 8.28125 
Q 37.984375 10.453125 37.984375 14.40625 
Q 37.984375 18.0625 35.515625 20.015625 
Q 33.0625 21.96875 24.703125 23.78125 
L 21.578125 24.515625 
Q 13.234375 26.265625 9.515625 29.90625 
Q 5.8125 33.546875 5.8125 39.890625 
Q 5.8125 47.609375 11.28125 51.796875 
Q 16.75 56 26.8125 56 
Q 31.78125 56 36.171875 55.265625 
Q 40.578125 54.546875 44.28125 53.078125 
" id="BitstreamVeraSans-Roman-73"/>
     </defs>
     <g transform="translate(693.93046875 807.8296875)scale(0.3 -0.3)">
      <use xlink:href="#BitstreamVeraSans-Roman-69"/>
      <use x="27.783203125" xlink:href="#BitstreamVeraSans-Roman-74"/>
      <use x="66.9921875" xlink:href="#BitstreamVeraSans-Roman-65"/>
      <use x="128.515625" xlink:href="#BitstreamVeraSans-Roman-72"/>
      <use x="169.62890625" xlink:href="#BitstreamVeraSans-Roman-61"/>
      <use x="230.908203125" xlink:href="#BitstreamVeraSans-Roman-74"/>
      <use x="270.1171875" xlink:href="#BitstreamVeraSans-Roman-69"/>
      <use x="297.900390625" xlink:href="#BitstreamVeraSans-Roman-6f"/>
      <use x="359.08203125" xlink:href="#BitstreamVeraSans-Roman-6e"/>
      <use x="422.4609375" xlink:href="#BitstreamVeraSans-Roman-73"/>
     </g>
    </g>
   </g>
   <g id="matplotlib.axis_2">
    <g id="ytick_1">
     <g id="line2d_15">
      <defs>
       <path d="M 0 0 
L 4 0 
" id="m14763d64ad" style="stroke:#000000;stroke-width:0.5;"/>
      </defs>
      <g>
       <use style="stroke:#000000;stroke-width:0.5;" x="158.4" xlink:href="#m14763d64ad" y="747.0"/>
      </g>
     </g>
     <g id="line2d_16">
      <defs>
       <path d="M 0 0 
L -4 0 
" id="m929916db1c" style="stroke:#000000;stroke-width:0.5;"/>
      </defs>
      <g>
       <use style="stroke:#000000;stroke-width:0.5;" x="1371.825" xlink:href="#m929916db1c" y="747.0"/>
      </g>
     </g>
     <g id="text_8">
      <!-- −60 -->
      <defs>
       <path d="M 10.59375 35.5 
L 73.1875 35.5 
L 73.1875 27.203125 
L 10.59375 27.203125 
z
" id="BitstreamVeraSans-Roman-2212"/>
       <path d="M 33.015625 40.375 
Q 26.375 40.375 22.484375 35.828125 
Q 18.609375 31.296875 18.609375 23.390625 
Q 18.609375 15.53125 22.484375 10.953125 
Q 26.375 6.390625 33.015625 6.390625 
Q 39.65625 6.390625 43.53125 10.953125 
Q 47.40625 15.53125 47.40625 23.390625 
Q 47.40625 31.296875 43.53125 35.828125 
Q 39.65625 40.375 33.015625 40.375 
M 52.59375 71.296875 
L 52.59375 62.3125 
Q 48.875 64.0625 45.09375 64.984375 
Q 41.3125 65.921875 37.59375 65.921875 
Q 27.828125 65.921875 22.671875 59.328125 
Q 17.53125 52.734375 16.796875 39.40625 
Q 19.671875 43.65625 24.015625 45.921875 
Q 28.375 48.1875 33.59375 48.1875 
Q 44.578125 48.1875 50.953125 41.515625 
Q 57.328125 34.859375 57.328125 23.390625 
Q 57.328125 12.15625 50.6875 5.359375 
Q 44.046875 -1.421875 33.015625 -1.421875 
Q 20.359375 -1.421875 13.671875 8.265625 
Q 6.984375 17.96875 6.984375 36.375 
Q 6.984375 53.65625 15.1875 63.9375 
Q 23.390625 74.21875 37.203125 74.21875 
Q 40.921875 74.21875 44.703125 73.484375 
Q 48.484375 72.75 52.59375 71.296875 
" id="BitstreamVeraSans-Roman-36"/>
      </defs>
      <g transform="translate(91.0859375 755.278125)scale(0.3 -0.3)">
       <use xlink:href="#BitstreamVeraSans-Roman-2212"/>
       <use x="83.7890625" xlink:href="#BitstreamVeraSans-Roman-36"/>
       <use x="147.412109375" xlink:href="#BitstreamVeraSans-Roman-30"/>
      </g>
     </g>
    </g>
    <g id="ytick_2">
     <g id="line2d_17">
      <g>
       <use style="stroke:#000000;stroke-width:0.5;" x="158.4" xlink:href="#m14763d64ad" y="660.0375"/>
      </g>
     </g>
     <g id="line2d_18">
      <g>
       <use style="stroke:#000000;stroke-width:0.5;" x="1371.825" xlink:href="#m929916db1c" y="660.0375"/>
      </g>
     </g>
     <g id="text_9">
      <!-- −50 -->
      <g transform="translate(91.0859375 668.315625)scale(0.3 -0.3)">
       <use xlink:href="#BitstreamVeraSans-Roman-2212"/>
       <use x="83.7890625" xlink:href="#BitstreamVeraSans-Roman-35"/>
       <use x="147.412109375" xlink:href="#BitstreamVeraSans-Roman-30"/>
      </g>
     </g>
    </g>
    <g id="ytick_3">
     <g id="line2d_19">
      <g>
       <use style="stroke:#000000;stroke-width:0.5;" x="158.4" xlink:href="#m14763d64ad" y="573.075"/>
      </g>
     </g>
     <g id="line2d_20">
      <g>
       <use style="stroke:#000000;stroke-width:0.5;" x="1371.825" xlink:href="#m929916db1c" y="573.075"/>
      </g>
     </g>
     <g id="text_10">
      <!-- −40 -->
      <g transform="translate(91.0859375 581.353125)scale(0.3 -0.3)">
       <use xlink:href="#BitstreamVeraSans-Roman-2212"/>
       <use x="83.7890625" xlink:href="#BitstreamVeraSans-Roman-34"/>
       <use x="147.412109375" xlink:href="#BitstreamVeraSans-Roman-30"/>
      </g>
     </g>
    </g>
    <g id="ytick_4">
     <g id="line2d_21">
      <g>
       <use style="stroke:#000000;stroke-width:0.5;" x="158.4" xlink:href="#m14763d64ad" y="486.1125"/>
      </g>
     </g>
     <g id="line2d_22">
      <g>
       <use style="stroke:#000000;stroke-width:0.5;" x="1371.825" xlink:href="#m929916db1c" y="486.1125"/>
      </g>
     </g>
     <g id="text_11">
      <!-- −30 -->
      <g transform="translate(91.0859375 494.390625)scale(0.3 -0.3)">
       <use xlink:href="#BitstreamVeraSans-Roman-2212"/>
       <use x="83.7890625" xlink:href="#BitstreamVeraSans-Roman-33"/>
       <use x="147.412109375" xlink:href="#BitstreamVeraSans-Roman-30"/>
      </g>
     </g>
    </g>
    <g id="ytick_5">
     <g id="line2d_23">
      <g>
       <use style="stroke:#000000;stroke-width:0.5;" x="158.4" xlink:href="#m14763d64ad" y="399.15"/>
      </g>
     </g>
     <g id="line2d_24">
      <g>
       <use style="stroke:#000000;stroke-width:0.5;" x="1371.825" xlink:href="#m929916db1c" y="399.15"/>
      </g>
     </g>
     <g id="text_12">
      <!-- −20 -->
      <g transform="translate(91.0859375 407.428125)scale(0.3 -0.3)">
       <use xlink:href="#BitstreamVeraSans-Roman-2212"/>
       <use x="83.7890625" xlink:href="#BitstreamVeraSans-Roman-32"/>
       <use x="147.412109375" xlink:href="#BitstreamVeraSans-Roman-30"/>
      </g>
     </g>
    </g>
    <g id="ytick_6">
     <g id="line2d_25">
      <g>
       <use style="stroke:#000000;stroke-width:0.5;" x="158.4" xlink:href="#m14763d64ad" y="312.1875"/>
      </g>
     </g>
     <g id="line2d_26">
      <g>
       <use style="stroke:#000000;stroke-width:0.5;" x="1371.825" xlink:href="#m929916db1c" y="312.1875"/>
      </g>
     </g>
     <g id="text_13">
      <!-- −10 -->
      <g transform="translate(91.0859375 320.465625)scale(0.3 -0.3)">
       <use xlink:href="#BitstreamVeraSans-Roman-2212"/>
       <use x="83.7890625" xlink:href="#BitstreamVeraSans-Roman-31"/>
       <use x="147.412109375" xlink:href="#BitstreamVeraSans-Roman-30"/>
      </g>
     </g>
    </g>
    <g id="ytick_7">
     <g id="line2d_27">
      <g>
       <use style="stroke:#000000;stroke-width:0.5;" x="158.4" xlink:href="#m14763d64ad" y="225.225"/>
      </g>
     </g>
     <g id="line2d_28">
      <g>
       <use style="stroke:#000000;stroke-width:0.5;" x="1371.825" xlink:href="#m929916db1c" y="225.225"/>
      </g>
     </g>
     <g id="text_14">
      <!-- 0 -->
      <g transform="translate(135.3125 233.503125)scale(0.3 -0.3)">
       <use xlink:href="#BitstreamVeraSans-Roman-30"/>
      </g>
     </g>
    </g>
    <g id="ytick_8">
     <g id="line2d_29">
      <g>
       <use style="stroke:#000000;stroke-width:0.5;" x="158.4" xlink:href="#m14763d64ad" y="138.2625"/>
      </g>
     </g>
     <g id="line2d_30">
      <g>
       <use style="stroke:#000000;stroke-width:0.5;" x="1371.825" xlink:href="#m929916db1c" y="138.2625"/>
      </g>
     </g>
     <g id="text_15">
      <!-- 10 -->
      <g transform="translate(116.225 146.540625)scale(0.3 -0.3)">
       <use xlink:href="#BitstreamVeraSans-Roman-31"/>
       <use x="63.623046875" xlink:href="#BitstreamVeraSans-Roman-30"/>
      </g>
     </g>
    </g>
    <g id="ytick_9">
     <g id="line2d_31">
      <g>
       <use style="stroke:#000000;stroke-width:0.5;" x="158.4" xlink:href="#m14763d64ad" y="51.3"/>
      </g>
     </g>
     <g id="line2d_32">
      <g>
       <use style="stroke:#000000;stroke-width:0.5;" x="1371.825" xlink:href="#m929916db1c" y="51.3"/>
      </g>
     </g>
     <g id="text_16">
      <!-- 20 -->
      <g transform="translate(116.225 59.578125)scale(0.3 -0.3)">
       <use xlink:href="#BitstreamVeraSans-Roman-32"/>
       <use x="63.623046875" xlink:href="#BitstreamVeraSans-Roman-30"/>
      </g>
     </g>
    </g>
    <g id="text_17">
     <!-- log(loss) -->
     <defs>
      <path d="M 8.015625 75.875 
L 15.828125 75.875 
Q 23.140625 64.359375 26.78125 53.3125 
Q 30.421875 42.28125 30.421875 31.390625 
Q 30.421875 20.453125 26.78125 9.375 
Q 23.140625 -1.703125 15.828125 -13.1875 
L 8.015625 -13.1875 
Q 14.5 -2 17.703125 9.0625 
Q 20.90625 20.125 20.90625 31.390625 
Q 20.90625 42.671875 17.703125 53.65625 
Q 14.5 64.65625 8.015625 75.875 
" id="BitstreamVeraSans-Roman-29"/>
      <path d="M 31 75.875 
Q 24.46875 64.65625 21.28125 53.65625 
Q 18.109375 42.671875 18.109375 31.390625 
Q 18.109375 20.125 21.3125 9.0625 
Q 24.515625 -2 31 -13.1875 
L 23.1875 -13.1875 
Q 15.875 -1.703125 12.234375 9.375 
Q 8.59375 20.453125 8.59375 31.390625 
Q 8.59375 42.28125 12.203125 53.3125 
Q 15.828125 64.359375 23.1875 75.875 
z
" id="BitstreamVeraSans-Roman-28"/>
      <path d="M 45.40625 27.984375 
Q 45.40625 37.75 41.375 43.109375 
Q 37.359375 48.484375 30.078125 48.484375 
Q 22.859375 48.484375 18.828125 43.109375 
Q 14.796875 37.75 14.796875 27.984375 
Q 14.796875 18.265625 18.828125 12.890625 
Q 22.859375 7.515625 30.078125 7.515625 
Q 37.359375 7.515625 41.375 12.890625 
Q 45.40625 18.265625 45.40625 27.984375 
M 54.390625 6.78125 
Q 54.390625 -7.171875 48.1875 -13.984375 
Q 42 -20.796875 29.203125 -20.796875 
Q 24.46875 -20.796875 20.265625 -20.09375 
Q 16.0625 -19.390625 12.109375 -17.921875 
L 12.109375 -9.1875 
Q 16.0625 -11.328125 19.921875 -12.34375 
Q 23.78125 -13.375 27.78125 -13.375 
Q 36.625 -13.375 41.015625 -8.765625 
Q 45.40625 -4.15625 45.40625 5.171875 
L 45.40625 9.625 
Q 42.625 4.78125 38.28125 2.390625 
Q 33.9375 0 27.875 0 
Q 17.828125 0 11.671875 7.65625 
Q 5.515625 15.328125 5.515625 27.984375 
Q 5.515625 40.671875 11.671875 48.328125 
Q 17.828125 56 27.875 56 
Q 33.9375 56 38.28125 53.609375 
Q 42.625 51.21875 45.40625 46.390625 
L 45.40625 54.6875 
L 54.390625 54.6875 
z
" id="BitstreamVeraSans-Roman-67"/>
      <path d="M 9.421875 75.984375 
L 18.40625 75.984375 
L 18.40625 0 
L 9.421875 0 
z
" id="BitstreamVeraSans-Roman-6c"/>
     </defs>
     <g transform="translate(79.846875 462.69609375)rotate(-90.0)scale(0.3 -0.3)">
      <use xlink:href="#BitstreamVeraSans-Roman-6c"/>
      <use x="27.783203125" xlink:href="#BitstreamVeraSans-Roman-6f"/>
      <use x="88.96484375" xlink:href="#BitstreamVeraSans-Roman-67"/>
      <use x="152.44140625" xlink:href="#BitstreamVeraSans-Roman-28"/>
      <use x="191.455078125" xlink:href="#BitstreamVeraSans-Roman-6c"/>
      <use x="219.23828125" xlink:href="#BitstreamVeraSans-Roman-6f"/>
      <use x="280.419921875" xlink:href="#BitstreamVeraSans-Roman-73"/>
      <use x="332.51953125" xlink:href="#BitstreamVeraSans-Roman-73"/>
      <use x="384.619140625" xlink:href="#BitstreamVeraSans-Roman-29"/>
     </g>
    </g>
   </g>
   <g id="legend_1">
    <g id="patch_7">
     <path d="M 879.651562 163.36875 
L 1356.825 163.36875 
L 1356.825 66.3 
L 879.651562 66.3 
z
" style="fill:#ffffff;stroke:#000000;stroke-linejoin:miter;"/>
    </g>
    <g id="line2d_33">
     <path d="M 900.651562 90.595312 
L 942.651562 90.595312 
" style="fill:none;stroke:#0000ff;stroke-linecap:square;stroke-width:2.0;"/>
    </g>
    <g id="line2d_34"/>
    <g id="text_18">
     <!-- random: step=0.009776 -->
     <defs>
      <path id="BitstreamVeraSans-Roman-20"/>
      <path d="M 8.203125 72.90625 
L 55.078125 72.90625 
L 55.078125 68.703125 
L 28.609375 0 
L 18.3125 0 
L 43.21875 64.59375 
L 8.203125 64.59375 
z
" id="BitstreamVeraSans-Roman-37"/>
      <path d="M 52 44.1875 
Q 55.375 50.25 60.0625 53.125 
Q 64.75 56 71.09375 56 
Q 79.640625 56 84.28125 50.015625 
Q 88.921875 44.046875 88.921875 33.015625 
L 88.921875 0 
L 79.890625 0 
L 79.890625 32.71875 
Q 79.890625 40.578125 77.09375 44.375 
Q 74.3125 48.1875 68.609375 48.1875 
Q 61.625 48.1875 57.5625 43.546875 
Q 53.515625 38.921875 53.515625 30.90625 
L 53.515625 0 
L 44.484375 0 
L 44.484375 32.71875 
Q 44.484375 40.625 41.703125 44.40625 
Q 38.921875 48.1875 33.109375 48.1875 
Q 26.21875 48.1875 22.15625 43.53125 
Q 18.109375 38.875 18.109375 30.90625 
L 18.109375 0 
L 9.078125 0 
L 9.078125 54.6875 
L 18.109375 54.6875 
L 18.109375 46.1875 
Q 21.1875 51.21875 25.484375 53.609375 
Q 29.78125 56 35.6875 56 
Q 41.65625 56 45.828125 52.96875 
Q 50 49.953125 52 44.1875 
" id="BitstreamVeraSans-Roman-6d"/>
      <path d="M 10.984375 1.515625 
L 10.984375 10.5 
Q 14.703125 8.734375 18.5 7.8125 
Q 22.3125 6.890625 25.984375 6.890625 
Q 35.75 6.890625 40.890625 13.453125 
Q 46.046875 20.015625 46.78125 33.40625 
Q 43.953125 29.203125 39.59375 26.953125 
Q 35.25 24.703125 29.984375 24.703125 
Q 19.046875 24.703125 12.671875 31.3125 
Q 6.296875 37.9375 6.296875 49.421875 
Q 6.296875 60.640625 12.9375 67.421875 
Q 19.578125 74.21875 30.609375 74.21875 
Q 43.265625 74.21875 49.921875 64.515625 
Q 56.59375 54.828125 56.59375 36.375 
Q 56.59375 19.140625 48.40625 8.859375 
Q 40.234375 -1.421875 26.421875 -1.421875 
Q 22.703125 -1.421875 18.890625 -0.6875 
Q 15.09375 0.046875 10.984375 1.515625 
M 30.609375 32.421875 
Q 37.25 32.421875 41.125 36.953125 
Q 45.015625 41.5 45.015625 49.421875 
Q 45.015625 57.28125 41.125 61.84375 
Q 37.25 66.40625 30.609375 66.40625 
Q 23.96875 66.40625 20.09375 61.84375 
Q 16.21875 57.28125 16.21875 49.421875 
Q 16.21875 41.5 20.09375 36.953125 
Q 23.96875 32.421875 30.609375 32.421875 
" id="BitstreamVeraSans-Roman-39"/>
      <path d="M 11.71875 12.40625 
L 22.015625 12.40625 
L 22.015625 0 
L 11.71875 0 
z
M 11.71875 51.703125 
L 22.015625 51.703125 
L 22.015625 39.3125 
L 11.71875 39.3125 
z
" id="BitstreamVeraSans-Roman-3a"/>
      <path d="M 10.6875 12.40625 
L 21 12.40625 
L 21 0 
L 10.6875 0 
z
" id="BitstreamVeraSans-Roman-2e"/>
      <path d="M 10.59375 45.40625 
L 73.1875 45.40625 
L 73.1875 37.203125 
L 10.59375 37.203125 
z
M 10.59375 25.484375 
L 73.1875 25.484375 
L 73.1875 17.1875 
L 10.59375 17.1875 
z
" id="BitstreamVeraSans-Roman-3d"/>
      <path d="M 45.40625 46.390625 
L 45.40625 75.984375 
L 54.390625 75.984375 
L 54.390625 0 
L 45.40625 0 
L 45.40625 8.203125 
Q 42.578125 3.328125 38.25 0.953125 
Q 33.9375 -1.421875 27.875 -1.421875 
Q 17.96875 -1.421875 11.734375 6.484375 
Q 5.515625 14.40625 5.515625 27.296875 
Q 5.515625 40.1875 11.734375 48.09375 
Q 17.96875 56 27.875 56 
Q 33.9375 56 38.25 53.625 
Q 42.578125 51.265625 45.40625 46.390625 
M 14.796875 27.296875 
Q 14.796875 17.390625 18.875 11.75 
Q 22.953125 6.109375 30.078125 6.109375 
Q 37.203125 6.109375 41.296875 11.75 
Q 45.40625 17.390625 45.40625 27.296875 
Q 45.40625 37.203125 41.296875 42.84375 
Q 37.203125 48.484375 30.078125 48.484375 
Q 22.953125 48.484375 18.875 42.84375 
Q 14.796875 37.203125 14.796875 27.296875 
" id="BitstreamVeraSans-Roman-64"/>
      <path d="M 18.109375 8.203125 
L 18.109375 -20.796875 
L 9.078125 -20.796875 
L 9.078125 54.6875 
L 18.109375 54.6875 
L 18.109375 46.390625 
Q 20.953125 51.265625 25.265625 53.625 
Q 29.59375 56 35.59375 56 
Q 45.5625 56 51.78125 48.09375 
Q 58.015625 40.1875 58.015625 27.296875 
Q 58.015625 14.40625 51.78125 6.484375 
Q 45.5625 -1.421875 35.59375 -1.421875 
Q 29.59375 -1.421875 25.265625 0.953125 
Q 20.953125 3.328125 18.109375 8.203125 
M 48.6875 27.296875 
Q 48.6875 37.203125 44.609375 42.84375 
Q 40.53125 48.484375 33.40625 48.484375 
Q 26.265625 48.484375 22.1875 42.84375 
Q 18.109375 37.203125 18.109375 27.296875 
Q 18.109375 17.390625 22.1875 11.75 
Q 26.265625 6.109375 33.40625 6.109375 
Q 40.53125 6.109375 44.609375 11.75 
Q 48.6875 17.390625 48.6875 27.296875 
" id="BitstreamVeraSans-Roman-70"/>
     </defs>
     <g transform="translate(975.6515625 101.0953125)scale(0.3 -0.3)">
      <use xlink:href="#BitstreamVeraSans-Roman-72"/>
      <use x="41.11328125" xlink:href="#BitstreamVeraSans-Roman-61"/>
      <use x="102.392578125" xlink:href="#BitstreamVeraSans-Roman-6e"/>
      <use x="165.771484375" xlink:href="#BitstreamVeraSans-Roman-64"/>
      <use x="229.248046875" xlink:href="#BitstreamVeraSans-Roman-6f"/>
      <use x="290.4296875" xlink:href="#BitstreamVeraSans-Roman-6d"/>
      <use x="387.841796875" xlink:href="#BitstreamVeraSans-Roman-3a"/>
      <use x="421.533203125" xlink:href="#BitstreamVeraSans-Roman-20"/>
      <use x="453.3203125" xlink:href="#BitstreamVeraSans-Roman-73"/>
      <use x="505.419921875" xlink:href="#BitstreamVeraSans-Roman-74"/>
      <use x="544.62890625" xlink:href="#BitstreamVeraSans-Roman-65"/>
      <use x="606.15234375" xlink:href="#BitstreamVeraSans-Roman-70"/>
      <use x="669.62890625" xlink:href="#BitstreamVeraSans-Roman-3d"/>
      <use x="753.41796875" xlink:href="#BitstreamVeraSans-Roman-30"/>
      <use x="817.041015625" xlink:href="#BitstreamVeraSans-Roman-2e"/>
      <use x="848.828125" xlink:href="#BitstreamVeraSans-Roman-30"/>
      <use x="912.451171875" xlink:href="#BitstreamVeraSans-Roman-30"/>
      <use x="976.07421875" xlink:href="#BitstreamVeraSans-Roman-39"/>
      <use x="1039.69726562" xlink:href="#BitstreamVeraSans-Roman-37"/>
      <use x="1103.3203125" xlink:href="#BitstreamVeraSans-Roman-37"/>
      <use x="1166.94335938" xlink:href="#BitstreamVeraSans-Roman-36"/>
     </g>
    </g>
    <g id="line2d_35">
     <path d="M 900.651562 134.629687 
L 942.651562 134.629687 
" style="fill:none;stroke:#008000;stroke-linecap:square;stroke-width:2.0;"/>
    </g>
    <g id="line2d_36"/>
    <g id="text_19">
     <!-- corr: step=0.009776 -->
     <defs>
      <path d="M 48.78125 52.59375 
L 48.78125 44.1875 
Q 44.96875 46.296875 41.140625 47.34375 
Q 37.3125 48.390625 33.40625 48.390625 
Q 24.65625 48.390625 19.8125 42.84375 
Q 14.984375 37.3125 14.984375 27.296875 
Q 14.984375 17.28125 19.8125 11.734375 
Q 24.65625 6.203125 33.40625 6.203125 
Q 37.3125 6.203125 41.140625 7.25 
Q 44.96875 8.296875 48.78125 10.40625 
L 48.78125 2.09375 
Q 45.015625 0.34375 40.984375 -0.53125 
Q 36.96875 -1.421875 32.421875 -1.421875 
Q 20.0625 -1.421875 12.78125 6.34375 
Q 5.515625 14.109375 5.515625 27.296875 
Q 5.515625 40.671875 12.859375 48.328125 
Q 20.21875 56 33.015625 56 
Q 37.15625 56 41.109375 55.140625 
Q 45.0625 54.296875 48.78125 52.59375 
" id="BitstreamVeraSans-Roman-63"/>
     </defs>
     <g transform="translate(975.6515625 145.1296875)scale(0.3 -0.3)">
      <use xlink:href="#BitstreamVeraSans-Roman-63"/>
      <use x="54.98046875" xlink:href="#BitstreamVeraSans-Roman-6f"/>
      <use x="116.162109375" xlink:href="#BitstreamVeraSans-Roman-72"/>
      <use x="157.259765625" xlink:href="#BitstreamVeraSans-Roman-72"/>
      <use x="198.357421875" xlink:href="#BitstreamVeraSans-Roman-3a"/>
      <use x="232.048828125" xlink:href="#BitstreamVeraSans-Roman-20"/>
      <use x="263.8359375" xlink:href="#BitstreamVeraSans-Roman-73"/>
      <use x="315.935546875" xlink:href="#BitstreamVeraSans-Roman-74"/>
      <use x="355.14453125" xlink:href="#BitstreamVeraSans-Roman-65"/>
      <use x="416.66796875" xlink:href="#BitstreamVeraSans-Roman-70"/>
      <use x="480.14453125" xlink:href="#BitstreamVeraSans-Roman-3d"/>
      <use x="563.93359375" xlink:href="#BitstreamVeraSans-Roman-30"/>
      <use x="627.556640625" xlink:href="#BitstreamVeraSans-Roman-2e"/>
      <use x="659.34375" xlink:href="#BitstreamVeraSans-Roman-30"/>
      <use x="722.966796875" xlink:href="#BitstreamVeraSans-Roman-30"/>
      <use x="786.58984375" xlink:href="#BitstreamVeraSans-Roman-39"/>
      <use x="850.212890625" xlink:href="#BitstreamVeraSans-Roman-37"/>
      <use x="913.8359375" xlink:href="#BitstreamVeraSans-Roman-37"/>
      <use x="977.458984375" xlink:href="#BitstreamVeraSans-Roman-36"/>
     </g>
    </g>
   </g>
  </g>
 </g>
 <defs>
  <clipPath id="p6b4b5a87b3">
   <rect height="695.7" width="1213.425" x="158.4" y="51.3"/>
  </clipPath>
 </defs>
</svg>
