<?xml version="1.0" encoding="utf-8" standalone="no"?>
<!DOCTYPE svg PUBLIC "-//W3C//DTD SVG 1.1//EN"
  "http://www.w3.org/Graphics/SVG/1.1/DTD/svg11.dtd">
<!-- Created with matplotlib (http://matplotlib.org/) -->
<svg height="864pt" version="1.1" viewBox="0 0 1440 864" width="1440pt" xmlns="http://www.w3.org/2000/svg" xmlns:xlink="http://www.w3.org/1999/xlink">
 <defs>
  <style type="text/css">
*{stroke-linecap:butt;stroke-linejoin:round;stroke-miterlimit:100000;}
  </style>
 </defs>
 <g id="figure_1">
  <g id="patch_1">
   <path d="M 0 864 
L 1440 864 
L 1440 0 
L 0 0 
z
" style="fill:#ffffff;"/>
  </g>
  <g id="axes_1">
   <g id="patch_2">
    <path d="M 158.4 747 
L 1371.825 747 
L 1371.825 51.3 
L 158.4 51.3 
z
" style="fill:#ffffff;"/>
   </g>
   <g id="line2d_1">
    <path clip-path="url(#p84e684066c)" d="M 158.4 118.366241 
L 160.82685 121.652147 
L 163.2537 123.582347 
L 165.68055 126.844093 
L 175.38795 136.425157 
L 180.24165 142.563474 
L 182.6685 145.918253 
L 187.5222 149.996389 
L 189.94905 152.902694 
L 192.3759 156.087776 
L 194.80275 158.29625 
L 197.2296 161.578002 
L 199.65645 164.466392 
L 204.51015 168.921355 
L 206.937 171.423031 
L 209.36385 173.428078 
L 211.7907 175.868858 
L 214.21755 177.957868 
L 216.6444 180.430163 
L 219.07125 182.300553 
L 223.92495 188.085522 
L 226.3518 190.682561 
L 228.77865 192.577413 
L 231.2055 194.628822 
L 233.63235 196.470153 
L 238.48605 201.351461 
L 243.33975 205.642336 
L 245.7666 207.451647 
L 248.19345 208.996105 
L 253.04715 213.628606 
L 255.474 215.961249 
L 260.3277 220.18748 
L 262.75455 222.608564 
L 267.60825 228.000023 
L 270.0351 230.801088 
L 279.7425 242.576913 
L 282.16935 244.857141 
L 284.5962 246.901227 
L 287.02305 249.311028 
L 289.4499 251.394589 
L 291.87675 253.706831 
L 294.3036 256.545729 
L 299.1573 261.250581 
L 301.58415 263.780785 
L 304.011 265.388602 
L 306.43785 268.081263 
L 308.8647 270.322524 
L 311.29155 272.910817 
L 313.7184 275.758259 
L 316.14525 277.730275 
L 320.99895 282.170398 
L 323.4258 283.871174 
L 325.85265 286.826307 
L 333.1332 294.154353 
L 337.9869 298.184282 
L 340.41375 300.725822 
L 350.12115 311.60048 
L 352.548 314.07522 
L 354.97485 315.934941 
L 357.4017 318.659154 
L 359.82855 320.733501 
L 362.2554 323.0608 
L 364.68225 325.621936 
L 367.1091 327.955393 
L 369.53595 329.691572 
L 374.38965 334.565165 
L 376.8165 336.632109 
L 379.24335 338.904954 
L 381.6702 341.582508 
L 384.09705 343.980706 
L 388.95075 349.507204 
L 391.3776 351.698092 
L 393.80445 354.392597 
L 396.2313 356.610354 
L 398.65815 359.24765 
L 401.085 361.35694 
L 403.51185 364.022766 
L 405.9387 366.252498 
L 408.36555 368.829121 
L 410.7924 372.047722 
L 413.21925 373.95378 
L 415.6461 376.467979 
L 418.07295 379.259668 
L 420.4998 381.825203 
L 422.92665 383.728696 
L 425.3535 386.003745 
L 430.2072 391.42409 
L 432.63405 393.345225 
L 435.0609 395.83129 
L 437.48775 398.040888 
L 439.9146 401.878561 
L 442.34145 404.952741 
L 444.7683 407.48625 
L 447.19515 409.280136 
L 454.4757 416.354441 
L 456.90255 418.878855 
L 459.3294 420.936625 
L 464.1831 426.802681 
L 466.60995 428.888669 
L 473.8905 436.522544 
L 476.31735 439.358372 
L 478.7442 441.871968 
L 483.5979 447.694551 
L 486.02475 450.127176 
L 490.87845 454.193258 
L 493.3053 456.066021 
L 498.159 460.979207 
L 503.0127 466.588402 
L 512.7201 475.981626 
L 517.5738 481.399388 
L 522.4275 485.723007 
L 527.2812 490.666847 
L 529.70805 493.045475 
L 534.56175 498.530198 
L 536.9886 500.892659 
L 539.41545 503.735925 
L 541.8423 506.083339 
L 546.696 511.598532 
L 551.5497 516.586038 
L 553.97655 518.521226 
L 556.4034 520.052881 
L 561.2571 524.058452 
L 563.68395 526.208143 
L 566.1108 529.038118 
L 568.53765 531.654978 
L 573.39135 535.392287 
L 575.8182 537.520214 
L 578.24505 539.16401 
L 580.6719 541.469593 
L 587.95245 549.771323 
L 590.3793 551.923306 
L 592.80615 555.11442 
L 595.233 558.930594 
L 600.0867 564.312453 
L 602.51355 566.696384 
L 604.9404 569.377944 
L 607.36725 571.677126 
L 612.22095 576.981581 
L 614.6478 580.157278 
L 619.5015 585.307 
L 621.92835 587.262979 
L 624.3552 589.709201 
L 626.78205 591.992027 
L 629.2089 594.498344 
L 636.48945 603.109629 
L 638.9163 606.263795 
L 641.34315 608.336805 
L 643.77 610.809835 
L 646.19685 612.6518 
L 651.05055 617.27055 
L 655.90425 622.17258 
L 658.3311 625.400605 
L 660.75795 628.422885 
L 663.1848 630.597043 
L 665.61165 633.474436 
L 668.0385 635.569503 
L 672.8922 640.244393 
L 675.31905 642.954762 
L 680.17275 647.654844 
L 682.5996 650.758404 
L 685.02645 653.601413 
L 687.4533 655.858902 
L 692.307 659.88074 
L 697.1607 665.612795 
L 699.58755 668.053563 
L 702.0144 670.159771 
L 706.8681 675.99158 
L 709.29495 678.164998 
L 711.7218 680.956786 
L 714.14865 683.56709 
L 719.00235 688.111331 
L 721.4292 690.952336 
L 723.85605 693.53822 
L 726.2829 695.86379 
L 728.70975 697.963545 
L 733.56345 701.597256 
L 735.9903 703.292639 
L 740.844 707.873379 
L 743.27085 709.548483 
L 748.12455 712.139687 
L 750.5514 713.900077 
L 752.97825 715.828234 
L 755.4051 716.412301 
L 757.83195 717.680691 
L 760.2588 718.10718 
L 762.68565 719.053238 
L 767.53935 719.498148 
L 769.9662 719.740317 
L 772.39305 720.671902 
L 777.24675 720.997912 
L 779.6736 721.845172 
L 782.10045 721.461449 
L 784.5273 722.085989 
L 786.95415 721.896044 
L 789.381 721.400593 
L 791.80785 721.567238 
L 794.2347 722.049499 
L 796.66155 721.192634 
L 799.0884 719.963961 
L 801.51525 720.132851 
L 803.9421 720.962706 
L 806.36895 721.616633 
L 808.7958 721.942648 
L 813.6495 723.320094 
L 816.07635 723.423792 
L 818.5032 722.729904 
L 820.93005 722.739398 
L 823.3569 721.8957 
L 825.78375 721.720229 
L 828.2106 722.166563 
L 830.63745 721.40302 
L 833.0643 721.528678 
L 835.49115 722.056039 
L 837.918 722.289957 
L 840.34485 722.168254 
L 842.7717 722.497317 
L 845.19855 722.618138 
L 847.6254 723.03994 
L 850.05225 722.681404 
L 854.90595 723.423039 
L 857.3328 723.12993 
L 859.75965 723.917207 
L 862.1865 723.130587 
L 864.61335 723.081293 
L 867.0402 723.575184 
L 871.8939 722.015929 
L 874.32075 722.384276 
L 876.7476 723.134271 
L 879.17445 722.725651 
L 881.6013 723.534756 
L 884.02815 723.10252 
L 886.455 722.940326 
L 888.88185 723.270774 
L 891.3087 724.119591 
L 893.73555 723.573888 
L 896.1624 723.535752 
L 898.58925 723.350509 
L 901.0161 723.702445 
L 903.44295 723.488362 
L 905.8698 723.126727 
L 913.15035 723.096727 
L 915.5772 722.641689 
L 920.4309 722.852496 
L 925.2846 723.33098 
L 930.1383 722.809158 
L 932.56515 722.779594 
L 934.992 722.571836 
L 937.41885 724.012946 
L 939.8457 723.340762 
L 942.27255 723.514856 
L 944.6994 722.790873 
L 947.12625 723.755092 
L 949.5531 722.896083 
L 951.97995 722.701094 
L 954.4068 722.803759 
L 956.83365 722.688122 
L 959.2605 721.853296 
L 961.68735 721.6674 
L 964.1142 722.084852 
L 966.54105 722.164096 
L 968.9679 721.875232 
L 973.8216 722.895859 
L 976.24845 722.82252 
L 978.6753 722.931814 
L 981.10215 723.455268 
L 983.529 722.773718 
L 988.3827 724.237377 
L 990.80955 723.862552 
L 993.2364 724.436187 
L 995.66325 724.861696 
L 998.0901 723.974887 
L 1000.51695 724.115266 
L 1002.9438 723.742059 
L 1005.37065 724.203998 
L 1007.7975 724.478053 
L 1010.22435 724.297307 
L 1012.6512 722.961243 
L 1015.07805 722.977124 
L 1017.5049 722.592058 
L 1019.93175 723.228996 
L 1022.3586 722.909897 
L 1024.78545 723.499195 
L 1027.2123 723.471839 
L 1029.63915 723.950553 
L 1032.066 724.224897 
L 1034.49285 724.040438 
L 1036.9197 723.62453 
L 1039.34655 723.432866 
L 1041.7734 723.114615 
L 1044.20025 724.207616 
L 1046.6271 723.695693 
L 1049.05395 723.050987 
L 1051.4808 723.30642 
L 1053.90765 722.663858 
L 1056.3345 723.166778 
L 1058.76135 722.425802 
L 1061.1882 723.248796 
L 1063.61505 723.915894 
L 1066.0419 723.184387 
L 1068.46875 722.768384 
L 1070.8956 722.586151 
L 1073.32245 723.053087 
L 1075.7493 722.896369 
L 1078.17615 723.00038 
L 1080.603 723.432628 
L 1083.02985 724.574637 
L 1085.4567 723.881776 
L 1087.88355 724.20124 
L 1090.3104 723.26698 
L 1092.73725 723.742429 
L 1095.1641 723.621133 
L 1097.59095 723.07819 
L 1100.0178 722.206022 
L 1102.44465 721.876408 
L 1104.8715 722.050181 
L 1107.29835 722.036614 
L 1109.7252 722.289331 
L 1112.15205 721.760522 
L 1114.5789 721.042819 
L 1119.4326 721.396279 
L 1121.85945 722.494125 
L 1124.2863 723.062219 
L 1126.71315 722.714017 
L 1129.14 722.755844 
L 1131.56685 722.36127 
L 1133.9937 721.321365 
L 1136.42055 721.121063 
L 1138.8474 721.836407 
L 1141.27425 722.670756 
L 1143.7011 723.008136 
L 1146.12795 723.177365 
L 1148.5548 723.758829 
L 1150.98165 722.677726 
L 1153.4085 722.843841 
L 1155.83535 721.966916 
L 1158.2622 722.465345 
L 1160.68905 723.531608 
L 1163.1159 723.65974 
L 1167.9696 723.159251 
L 1170.39645 722.740514 
L 1172.8233 723.61987 
L 1175.25015 723.436937 
L 1177.677 722.839674 
L 1180.10385 722.537533 
L 1184.95755 723.072654 
L 1187.3844 722.532492 
L 1189.81125 722.974798 
L 1192.2381 723.2727 
L 1194.66495 723.316175 
L 1197.0918 722.653479 
L 1201.9455 722.810302 
L 1204.37235 722.382407 
L 1206.7992 723.164644 
L 1209.22605 723.279436 
L 1211.6529 723.052935 
L 1214.07975 723.011604 
L 1216.5066 722.212956 
L 1218.93345 722.526816 
L 1221.3603 723.735968 
L 1223.78715 723.626976 
L 1226.214 722.145186 
L 1228.64085 723.135069 
L 1231.0677 722.488687 
L 1233.49455 723.247825 
L 1235.9214 721.973221 
L 1240.7751 721.994258 
L 1243.20195 722.202987 
L 1245.6288 722.165644 
L 1248.05565 721.393775 
L 1250.4825 722.068253 
L 1252.90935 722.001619 
L 1255.3362 721.786893 
L 1257.76305 721.311875 
L 1260.1899 721.803456 
L 1262.61675 721.63238 
L 1265.0436 721.857341 
L 1267.47045 722.32767 
L 1269.8973 722.499204 
L 1272.32415 722.400104 
L 1274.751 722.65525 
L 1277.17785 723.553147 
L 1279.6047 723.943444 
L 1282.03155 723.378786 
L 1284.4584 723.652676 
L 1286.88525 723.487976 
L 1291.73895 722.390949 
L 1294.1658 722.925784 
L 1296.59265 724.340408 
L 1299.0195 724.022324 
L 1301.44635 724.071977 
L 1303.8732 723.312961 
L 1306.30005 722.993549 
L 1308.7269 722.91304 
L 1311.15375 723.205656 
L 1313.5806 722.830926 
L 1316.00745 723.304701 
L 1318.4343 722.660472 
L 1320.86115 722.802991 
L 1323.288 722.750717 
L 1325.71485 722.381869 
L 1328.1417 723.06557 
L 1330.56855 723.22839 
L 1332.9954 723.899696 
L 1335.42225 724.093388 
L 1337.8491 723.167823 
L 1340.27595 723.287451 
L 1342.7028 722.920014 
L 1345.12965 722.259713 
L 1347.5565 722.088502 
L 1349.98335 722.094143 
L 1352.4102 722.7461 
L 1357.2639 722.854926 
L 1359.69075 721.993759 
L 1362.1176 722.126373 
L 1364.54445 722.810259 
L 1366.9713 722.727216 
L 1369.39815 722.781439 
L 1369.39815 722.781439 
" style="fill:none;stroke:#0000ff;stroke-linecap:square;stroke-width:2.0;"/>
   </g>
   <g id="line2d_2">
    <path clip-path="url(#p84e684066c)" d="M 158.4 118.689178 
L 160.82685 121.707162 
L 163.2537 125.042073 
L 168.1074 130.711258 
L 170.53425 132.948244 
L 172.9611 135.745166 
L 175.38795 137.986462 
L 177.8148 141.095097 
L 180.24165 143.856974 
L 182.6685 147.292641 
L 185.09535 149.462752 
L 187.5222 151.252266 
L 189.94905 153.664015 
L 192.3759 156.61021 
L 194.80275 159.371091 
L 197.2296 163.067265 
L 199.65645 166.408077 
L 202.0833 169.17093 
L 204.51015 172.469424 
L 206.937 175.306079 
L 209.36385 177.581803 
L 211.7907 180.375166 
L 216.6444 184.312236 
L 219.07125 186.534261 
L 221.4981 189.775274 
L 223.92495 192.585624 
L 226.3518 195.813645 
L 228.77865 198.178652 
L 231.2055 201.90132 
L 233.63235 204.584045 
L 236.0592 206.56069 
L 238.48605 208.948449 
L 240.9129 211.106932 
L 243.33975 213.064217 
L 245.7666 216.229218 
L 248.19345 218.468984 
L 250.6203 220.232188 
L 253.04715 222.844475 
L 255.474 225.279952 
L 262.75455 233.831133 
L 265.1814 236.212182 
L 267.60825 238.312084 
L 270.0351 240.672245 
L 274.8888 244.666487 
L 277.31565 247.628592 
L 284.5962 255.000084 
L 287.02305 258.53001 
L 296.73045 268.305509 
L 301.58415 272.956667 
L 308.8647 280.723219 
L 311.29155 283.452342 
L 316.14525 287.802366 
L 320.99895 292.998245 
L 325.85265 297.723176 
L 328.2795 299.48429 
L 333.1332 303.959651 
L 340.41375 312.472814 
L 342.8406 314.767829 
L 347.6943 320.397454 
L 354.97485 325.974167 
L 362.2554 333.226176 
L 367.1091 337.585604 
L 371.9628 342.16455 
L 376.8165 346.705995 
L 379.24335 349.181478 
L 381.6702 351.09861 
L 384.09705 354.419561 
L 386.5239 356.159136 
L 388.95075 359.39967 
L 391.3776 360.839101 
L 393.80445 363.371258 
L 398.65815 367.917367 
L 405.9387 375.925006 
L 408.36555 378.177746 
L 413.21925 383.732478 
L 415.6461 385.801721 
L 418.07295 387.264959 
L 427.78035 396.837792 
L 430.2072 400.120519 
L 432.63405 401.734427 
L 435.0609 404.420997 
L 437.48775 406.655408 
L 442.34145 411.557702 
L 447.19515 415.542596 
L 452.04885 419.852007 
L 454.4757 421.550378 
L 456.90255 424.706908 
L 459.3294 427.364664 
L 461.75625 429.617715 
L 464.1831 432.889892 
L 466.60995 435.769824 
L 469.0368 437.697586 
L 473.8905 443.32212 
L 476.31735 446.100707 
L 481.17105 452.066066 
L 483.5979 454.303952 
L 486.02475 456.305399 
L 488.4516 459.479961 
L 490.87845 461.936084 
L 493.3053 463.66316 
L 495.73215 466.206426 
L 498.159 469.336928 
L 500.58585 471.816396 
L 503.0127 474.551124 
L 505.43955 477.697983 
L 507.8664 480.046777 
L 510.29325 482.228982 
L 512.7201 485.138339 
L 515.14695 487.074056 
L 517.5738 489.824861 
L 520.00065 492.124619 
L 524.85435 497.99956 
L 527.2812 500.474512 
L 529.70805 502.7891 
L 532.1349 504.568174 
L 534.56175 506.764511 
L 539.41545 511.594317 
L 541.8423 513.89468 
L 544.26915 516.569057 
L 546.696 519.671137 
L 549.12285 522.192426 
L 553.97655 528.115854 
L 556.4034 530.241106 
L 558.83025 532.026749 
L 561.2571 534.166521 
L 563.68395 535.969961 
L 566.1108 538.664605 
L 570.9645 544.716504 
L 573.39135 546.891632 
L 575.8182 548.859965 
L 583.09875 556.04487 
L 585.5256 558.672588 
L 590.3793 563.055758 
L 592.80615 565.608632 
L 595.233 568.344133 
L 600.0867 575.186417 
L 607.36725 582.048609 
L 609.7941 585.054232 
L 612.22095 587.238786 
L 614.6478 590.200175 
L 617.07465 592.279169 
L 619.5015 594.603644 
L 621.92835 596.722019 
L 624.3552 599.878382 
L 626.78205 602.310886 
L 629.2089 604.3866 
L 634.0626 609.710853 
L 636.48945 611.434843 
L 638.9163 613.919882 
L 641.34315 615.948701 
L 643.77 617.586326 
L 646.19685 620.455035 
L 648.6237 622.656204 
L 651.05055 624.415734 
L 655.90425 629.607456 
L 658.3311 631.852732 
L 660.75795 634.444834 
L 663.1848 637.206872 
L 665.61165 639.504124 
L 668.0385 641.355383 
L 670.46535 644.015142 
L 675.31905 649.857917 
L 680.17275 654.987122 
L 682.5996 657.202408 
L 685.02645 659.957294 
L 687.4533 661.702022 
L 689.88015 663.743228 
L 694.73385 668.194937 
L 697.1607 671.161002 
L 699.58755 672.879036 
L 706.8681 680.972142 
L 709.29495 682.575289 
L 711.7218 684.347998 
L 716.5755 688.556275 
L 723.85605 695.547292 
L 728.70975 700.365288 
L 731.1366 702.456211 
L 733.56345 704.327811 
L 735.9903 706.512542 
L 738.41715 708.289871 
L 740.844 710.962611 
L 743.27085 712.772895 
L 750.5514 716.320125 
L 757.83195 718.906784 
L 760.2588 719.546823 
L 762.68565 719.622709 
L 765.1125 720.595473 
L 767.53935 721.03592 
L 769.9662 721.727781 
L 774.8199 721.332682 
L 779.6736 722.648793 
L 782.10045 723.025023 
L 784.5273 723.853885 
L 786.95415 723.214666 
L 789.381 723.378004 
L 794.2347 722.822927 
L 796.66155 722.093118 
L 801.51525 722.691774 
L 803.9421 722.271991 
L 806.36895 722.101499 
L 808.7958 722.570597 
L 811.22265 722.127801 
L 813.6495 722.41632 
L 816.07635 723.172362 
L 818.5032 723.327866 
L 820.93005 723.026145 
L 823.3569 722.039895 
L 825.78375 721.653749 
L 828.2106 721.512699 
L 830.63745 721.688737 
L 833.0643 722.178173 
L 835.49115 722.220437 
L 837.918 722.44443 
L 840.34485 722.014217 
L 842.7717 722.983422 
L 847.6254 722.131316 
L 850.05225 722.326855 
L 852.4791 722.08036 
L 857.3328 722.763917 
L 859.75965 722.267043 
L 862.1865 722.607777 
L 864.61335 721.525716 
L 867.0402 722.050294 
L 869.46705 721.782837 
L 871.8939 721.684607 
L 876.7476 722.899656 
L 879.17445 723.096575 
L 881.6013 724.040615 
L 884.02815 724.20753 
L 886.455 723.481881 
L 888.88185 723.675945 
L 891.3087 723.023201 
L 896.1624 723.032112 
L 898.58925 723.756271 
L 901.0161 723.594408 
L 903.44295 723.695257 
L 905.8698 722.098438 
L 908.29665 722.148497 
L 910.7235 722.783499 
L 918.00405 721.387385 
L 920.4309 721.821604 
L 922.85775 722.436342 
L 925.2846 721.72846 
L 927.71145 721.175537 
L 930.1383 721.484181 
L 932.56515 722.547041 
L 934.992 722.841025 
L 937.41885 722.593198 
L 939.8457 722.536639 
L 942.27255 722.267182 
L 944.6994 722.539966 
L 949.5531 721.975238 
L 951.97995 722.603872 
L 954.4068 722.349922 
L 956.83365 721.587544 
L 959.2605 722.108005 
L 961.68735 723.316853 
L 964.1142 722.682477 
L 966.54105 722.18093 
L 968.9679 722.541803 
L 971.39475 722.501085 
L 973.8216 720.866363 
L 976.24845 721.580674 
L 978.6753 721.587613 
L 981.10215 720.588152 
L 983.529 721.503532 
L 985.95585 721.915213 
L 990.80955 721.926858 
L 993.2364 721.485137 
L 995.66325 721.682948 
L 998.0901 721.761967 
L 1000.51695 722.48669 
L 1002.9438 722.904983 
L 1005.37065 721.964621 
L 1007.7975 722.704143 
L 1010.22435 722.347023 
L 1012.6512 722.447191 
L 1015.07805 722.878681 
L 1017.5049 722.651311 
L 1022.3586 722.602628 
L 1024.78545 722.188824 
L 1027.2123 722.360014 
L 1032.066 722.216276 
L 1034.49285 721.812676 
L 1036.9197 722.472277 
L 1041.7734 722.982556 
L 1044.20025 723.07268 
L 1046.6271 722.940258 
L 1049.05395 723.931547 
L 1051.4808 722.549094 
L 1053.90765 722.903696 
L 1061.1882 723.021751 
L 1063.61505 722.401325 
L 1066.0419 722.660484 
L 1068.46875 722.645979 
L 1070.8956 722.314029 
L 1073.32245 722.11032 
L 1075.7493 722.514547 
L 1078.17615 722.474017 
L 1080.603 721.923735 
L 1083.02985 722.358922 
L 1085.4567 722.536603 
L 1087.88355 722.273292 
L 1090.3104 722.348119 
L 1092.73725 722.894269 
L 1095.1641 722.966834 
L 1097.59095 722.174004 
L 1100.0178 722.796018 
L 1102.44465 723.024348 
L 1104.8715 722.842785 
L 1107.29835 722.509091 
L 1109.7252 722.611846 
L 1112.15205 722.450395 
L 1114.5789 723.161473 
L 1117.00575 723.174869 
L 1119.4326 723.513695 
L 1121.85945 723.444477 
L 1126.71315 723.881831 
L 1129.14 723.611854 
L 1131.56685 722.6723 
L 1133.9937 723.142332 
L 1136.42055 721.918693 
L 1138.8474 722.092155 
L 1141.27425 721.650917 
L 1148.5548 721.771492 
L 1150.98165 721.870841 
L 1153.4085 721.836176 
L 1155.83535 722.311357 
L 1158.2622 722.54064 
L 1160.68905 722.581872 
L 1163.1159 722.466007 
L 1165.54275 722.928602 
L 1167.9696 722.396455 
L 1172.8233 723.317505 
L 1175.25015 723.286171 
L 1177.677 723.059263 
L 1180.10385 724.439435 
L 1182.5307 724.893105 
L 1184.95755 724.223139 
L 1187.3844 724.783433 
L 1189.81125 724.4251 
L 1194.66495 722.917958 
L 1197.0918 723.317713 
L 1199.51865 723.322123 
L 1201.9455 722.733067 
L 1204.37235 721.592906 
L 1206.7992 720.997039 
L 1209.22605 721.549926 
L 1214.07975 720.721371 
L 1216.5066 722.102384 
L 1218.93345 722.70404 
L 1221.3603 721.881476 
L 1223.78715 721.971668 
L 1226.214 722.602905 
L 1228.64085 721.409275 
L 1231.0677 721.117837 
L 1233.49455 721.58313 
L 1235.9214 721.828326 
L 1238.34825 722.774814 
L 1240.7751 722.912386 
L 1243.20195 723.989414 
L 1245.6288 723.177923 
L 1248.05565 722.848078 
L 1250.4825 723.222802 
L 1252.90935 722.496854 
L 1255.3362 722.168854 
L 1262.61675 722.172255 
L 1265.0436 721.349878 
L 1267.47045 721.831668 
L 1269.8973 721.794602 
L 1272.32415 722.670557 
L 1274.751 721.408694 
L 1277.17785 721.832426 
L 1279.6047 722.404612 
L 1282.03155 723.159341 
L 1284.4584 723.290577 
L 1286.88525 723.242096 
L 1289.3121 723.387057 
L 1291.73895 723.259755 
L 1294.1658 723.338213 
L 1296.59265 722.376343 
L 1299.0195 723.461584 
L 1301.44635 723.298082 
L 1303.8732 723.742408 
L 1306.30005 723.683252 
L 1308.7269 724.382198 
L 1313.5806 724.333846 
L 1316.00745 723.477549 
L 1320.86115 723.346956 
L 1323.288 723.933689 
L 1325.71485 723.521409 
L 1330.56855 723.508415 
L 1332.9954 723.169085 
L 1335.42225 722.6907 
L 1337.8491 722.448684 
L 1340.27595 722.568019 
L 1342.7028 721.089993 
L 1345.12965 721.132066 
L 1347.5565 720.598653 
L 1349.98335 722.013252 
L 1352.4102 721.377441 
L 1354.83705 721.47668 
L 1357.2639 720.723819 
L 1359.69075 721.238673 
L 1362.1176 721.527229 
L 1366.9713 721.7487 
L 1369.39815 722.329445 
L 1369.39815 722.329445 
" style="fill:none;stroke:#008000;stroke-linecap:square;stroke-width:2.0;"/>
   </g>
   <g id="patch_3">
    <path d="M 158.4 51.3 
L 1371.825 51.3 
" style="fill:none;stroke:#000000;stroke-linecap:square;stroke-linejoin:miter;"/>
   </g>
   <g id="patch_4">
    <path d="M 1371.825 747 
L 1371.825 51.3 
" style="fill:none;stroke:#000000;stroke-linecap:square;stroke-linejoin:miter;"/>
   </g>
   <g id="patch_5">
    <path d="M 158.4 747 
L 1371.825 747 
" style="fill:none;stroke:#000000;stroke-linecap:square;stroke-linejoin:miter;"/>
   </g>
   <g id="patch_6">
    <path d="M 158.4 747 
L 158.4 51.3 
" style="fill:none;stroke:#000000;stroke-linecap:square;stroke-linejoin:miter;"/>
   </g>
   <g id="matplotlib.axis_1">
    <g id="xtick_1">
     <g id="line2d_3">
      <defs>
       <path d="M 0 0 
L 0 -4 
" id="m7e0bc89c61" style="stroke:#000000;stroke-width:0.5;"/>
      </defs>
      <g>
       <use style="stroke:#000000;stroke-width:0.5;" x="158.4" xlink:href="#m7e0bc89c61" y="747.0"/>
      </g>
     </g>
     <g id="line2d_4">
      <defs>
       <path d="M 0 0 
L 0 4 
" id="m81f5e137b9" style="stroke:#000000;stroke-width:0.5;"/>
      </defs>
      <g>
       <use style="stroke:#000000;stroke-width:0.5;" x="158.4" xlink:href="#m81f5e137b9" y="51.3"/>
      </g>
     </g>
     <g id="text_1">
      <!-- 0 -->
      <defs>
       <path d="M 31.78125 66.40625 
Q 24.171875 66.40625 20.328125 58.90625 
Q 16.5 51.421875 16.5 36.375 
Q 16.5 21.390625 20.328125 13.890625 
Q 24.171875 6.390625 31.78125 6.390625 
Q 39.453125 6.390625 43.28125 13.890625 
Q 47.125 21.390625 47.125 36.375 
Q 47.125 51.421875 43.28125 58.90625 
Q 39.453125 66.40625 31.78125 66.40625 
M 31.78125 74.21875 
Q 44.046875 74.21875 50.515625 64.515625 
Q 56.984375 54.828125 56.984375 36.375 
Q 56.984375 17.96875 50.515625 8.265625 
Q 44.046875 -1.421875 31.78125 -1.421875 
Q 19.53125 -1.421875 13.0625 8.265625 
Q 6.59375 17.96875 6.59375 36.375 
Q 6.59375 54.828125 13.0625 64.515625 
Q 19.53125 74.21875 31.78125 74.21875 
" id="BitstreamVeraSans-Roman-30"/>
      </defs>
      <g transform="translate(148.85625 773.7953125)scale(0.3 -0.3)">
       <use xlink:href="#BitstreamVeraSans-Roman-30"/>
      </g>
     </g>
    </g>
    <g id="xtick_2">
     <g id="line2d_5">
      <g>
       <use style="stroke:#000000;stroke-width:0.5;" x="401.085" xlink:href="#m7e0bc89c61" y="747.0"/>
      </g>
     </g>
     <g id="line2d_6">
      <g>
       <use style="stroke:#000000;stroke-width:0.5;" x="401.085" xlink:href="#m81f5e137b9" y="51.3"/>
      </g>
     </g>
     <g id="text_2">
      <!-- 100 -->
      <defs>
       <path d="M 12.40625 8.296875 
L 28.515625 8.296875 
L 28.515625 63.921875 
L 10.984375 60.40625 
L 10.984375 69.390625 
L 28.421875 72.90625 
L 38.28125 72.90625 
L 38.28125 8.296875 
L 54.390625 8.296875 
L 54.390625 0 
L 12.40625 0 
z
" id="BitstreamVeraSans-Roman-31"/>
      </defs>
      <g transform="translate(372.45375 773.7953125)scale(0.3 -0.3)">
       <use xlink:href="#BitstreamVeraSans-Roman-31"/>
       <use x="63.623046875" xlink:href="#BitstreamVeraSans-Roman-30"/>
       <use x="127.24609375" xlink:href="#BitstreamVeraSans-Roman-30"/>
      </g>
     </g>
    </g>
    <g id="xtick_3">
     <g id="line2d_7">
      <g>
       <use style="stroke:#000000;stroke-width:0.5;" x="643.77" xlink:href="#m7e0bc89c61" y="747.0"/>
      </g>
     </g>
     <g id="line2d_8">
      <g>
       <use style="stroke:#000000;stroke-width:0.5;" x="643.77" xlink:href="#m81f5e137b9" y="51.3"/>
      </g>
     </g>
     <g id="text_3">
      <!-- 200 -->
      <defs>
       <path d="M 19.1875 8.296875 
L 53.609375 8.296875 
L 53.609375 0 
L 7.328125 0 
L 7.328125 8.296875 
Q 12.9375 14.109375 22.625 23.890625 
Q 32.328125 33.6875 34.8125 36.53125 
Q 39.546875 41.84375 41.421875 45.53125 
Q 43.3125 49.21875 43.3125 52.78125 
Q 43.3125 58.59375 39.234375 62.25 
Q 35.15625 65.921875 28.609375 65.921875 
Q 23.96875 65.921875 18.8125 64.3125 
Q 13.671875 62.703125 7.8125 59.421875 
L 7.8125 69.390625 
Q 13.765625 71.78125 18.9375 73 
Q 24.125 74.21875 28.421875 74.21875 
Q 39.75 74.21875 46.484375 68.546875 
Q 53.21875 62.890625 53.21875 53.421875 
Q 53.21875 48.921875 51.53125 44.890625 
Q 49.859375 40.875 45.40625 35.40625 
Q 44.1875 33.984375 37.640625 27.21875 
Q 31.109375 20.453125 19.1875 8.296875 
" id="BitstreamVeraSans-Roman-32"/>
      </defs>
      <g transform="translate(615.13875 773.7953125)scale(0.3 -0.3)">
       <use xlink:href="#BitstreamVeraSans-Roman-32"/>
       <use x="63.623046875" xlink:href="#BitstreamVeraSans-Roman-30"/>
       <use x="127.24609375" xlink:href="#BitstreamVeraSans-Roman-30"/>
      </g>
     </g>
    </g>
    <g id="xtick_4">
     <g id="line2d_9">
      <g>
       <use style="stroke:#000000;stroke-width:0.5;" x="886.455" xlink:href="#m7e0bc89c61" y="747.0"/>
      </g>
     </g>
     <g id="line2d_10">
      <g>
       <use style="stroke:#000000;stroke-width:0.5;" x="886.455" xlink:href="#m81f5e137b9" y="51.3"/>
      </g>
     </g>
     <g id="text_4">
      <!-- 300 -->
      <defs>
       <path d="M 40.578125 39.3125 
Q 47.65625 37.796875 51.625 33 
Q 55.609375 28.21875 55.609375 21.1875 
Q 55.609375 10.40625 48.1875 4.484375 
Q 40.765625 -1.421875 27.09375 -1.421875 
Q 22.515625 -1.421875 17.65625 -0.515625 
Q 12.796875 0.390625 7.625 2.203125 
L 7.625 11.71875 
Q 11.71875 9.328125 16.59375 8.109375 
Q 21.484375 6.890625 26.8125 6.890625 
Q 36.078125 6.890625 40.9375 10.546875 
Q 45.796875 14.203125 45.796875 21.1875 
Q 45.796875 27.640625 41.28125 31.265625 
Q 36.765625 34.90625 28.71875 34.90625 
L 20.21875 34.90625 
L 20.21875 43.015625 
L 29.109375 43.015625 
Q 36.375 43.015625 40.234375 45.921875 
Q 44.09375 48.828125 44.09375 54.296875 
Q 44.09375 59.90625 40.109375 62.90625 
Q 36.140625 65.921875 28.71875 65.921875 
Q 24.65625 65.921875 20.015625 65.03125 
Q 15.375 64.15625 9.8125 62.3125 
L 9.8125 71.09375 
Q 15.4375 72.65625 20.34375 73.4375 
Q 25.25 74.21875 29.59375 74.21875 
Q 40.828125 74.21875 47.359375 69.109375 
Q 53.90625 64.015625 53.90625 55.328125 
Q 53.90625 49.265625 50.4375 45.09375 
Q 46.96875 40.921875 40.578125 39.3125 
" id="BitstreamVeraSans-Roman-33"/>
      </defs>
      <g transform="translate(857.82375 773.7953125)scale(0.3 -0.3)">
       <use xlink:href="#BitstreamVeraSans-Roman-33"/>
       <use x="63.623046875" xlink:href="#BitstreamVeraSans-Roman-30"/>
       <use x="127.24609375" xlink:href="#BitstreamVeraSans-Roman-30"/>
      </g>
     </g>
    </g>
    <g id="xtick_5">
     <g id="line2d_11">
      <g>
       <use style="stroke:#000000;stroke-width:0.5;" x="1129.14" xlink:href="#m7e0bc89c61" y="747.0"/>
      </g>
     </g>
     <g id="line2d_12">
      <g>
       <use style="stroke:#000000;stroke-width:0.5;" x="1129.14" xlink:href="#m81f5e137b9" y="51.3"/>
      </g>
     </g>
     <g id="text_5">
      <!-- 400 -->
      <defs>
       <path d="M 37.796875 64.3125 
L 12.890625 25.390625 
L 37.796875 25.390625 
z
M 35.203125 72.90625 
L 47.609375 72.90625 
L 47.609375 25.390625 
L 58.015625 25.390625 
L 58.015625 17.1875 
L 47.609375 17.1875 
L 47.609375 0 
L 37.796875 0 
L 37.796875 17.1875 
L 4.890625 17.1875 
L 4.890625 26.703125 
z
" id="BitstreamVeraSans-Roman-34"/>
      </defs>
      <g transform="translate(1100.50875 773.7953125)scale(0.3 -0.3)">
       <use xlink:href="#BitstreamVeraSans-Roman-34"/>
       <use x="63.623046875" xlink:href="#BitstreamVeraSans-Roman-30"/>
       <use x="127.24609375" xlink:href="#BitstreamVeraSans-Roman-30"/>
      </g>
     </g>
    </g>
    <g id="xtick_6">
     <g id="line2d_13">
      <g>
       <use style="stroke:#000000;stroke-width:0.5;" x="1371.825" xlink:href="#m7e0bc89c61" y="747.0"/>
      </g>
     </g>
     <g id="line2d_14">
      <g>
       <use style="stroke:#000000;stroke-width:0.5;" x="1371.825" xlink:href="#m81f5e137b9" y="51.3"/>
      </g>
     </g>
     <g id="text_6">
      <!-- 500 -->
      <defs>
       <path d="M 10.796875 72.90625 
L 49.515625 72.90625 
L 49.515625 64.59375 
L 19.828125 64.59375 
L 19.828125 46.734375 
Q 21.96875 47.46875 24.109375 47.828125 
Q 26.265625 48.1875 28.421875 48.1875 
Q 40.625 48.1875 47.75 41.5 
Q 54.890625 34.8125 54.890625 23.390625 
Q 54.890625 11.625 47.5625 5.09375 
Q 40.234375 -1.421875 26.90625 -1.421875 
Q 22.3125 -1.421875 17.546875 -0.640625 
Q 12.796875 0.140625 7.71875 1.703125 
L 7.71875 11.625 
Q 12.109375 9.234375 16.796875 8.0625 
Q 21.484375 6.890625 26.703125 6.890625 
Q 35.15625 6.890625 40.078125 11.328125 
Q 45.015625 15.765625 45.015625 23.390625 
Q 45.015625 31 40.078125 35.4375 
Q 35.15625 39.890625 26.703125 39.890625 
Q 22.75 39.890625 18.8125 39.015625 
Q 14.890625 38.140625 10.796875 36.28125 
z
" id="BitstreamVeraSans-Roman-35"/>
      </defs>
      <g transform="translate(1343.19375 773.7953125)scale(0.3 -0.3)">
       <use xlink:href="#BitstreamVeraSans-Roman-35"/>
       <use x="63.623046875" xlink:href="#BitstreamVeraSans-Roman-30"/>
       <use x="127.24609375" xlink:href="#BitstreamVeraSans-Roman-30"/>
      </g>
     </g>
    </g>
    <g id="text_7">
     <!-- iterations -->
     <defs>
      <path d="M 54.890625 33.015625 
L 54.890625 0 
L 45.90625 0 
L 45.90625 32.71875 
Q 45.90625 40.484375 42.875 44.328125 
Q 39.84375 48.1875 33.796875 48.1875 
Q 26.515625 48.1875 22.3125 43.546875 
Q 18.109375 38.921875 18.109375 30.90625 
L 18.109375 0 
L 9.078125 0 
L 9.078125 54.6875 
L 18.109375 54.6875 
L 18.109375 46.1875 
Q 21.34375 51.125 25.703125 53.5625 
Q 30.078125 56 35.796875 56 
Q 45.21875 56 50.046875 50.171875 
Q 54.890625 44.34375 54.890625 33.015625 
" id="BitstreamVeraSans-Roman-6e"/>
      <path d="M 34.28125 27.484375 
Q 23.390625 27.484375 19.1875 25 
Q 14.984375 22.515625 14.984375 16.5 
Q 14.984375 11.71875 18.140625 8.90625 
Q 21.296875 6.109375 26.703125 6.109375 
Q 34.1875 6.109375 38.703125 11.40625 
Q 43.21875 16.703125 43.21875 25.484375 
L 43.21875 27.484375 
z
M 52.203125 31.203125 
L 52.203125 0 
L 43.21875 0 
L 43.21875 8.296875 
Q 40.140625 3.328125 35.546875 0.953125 
Q 30.953125 -1.421875 24.3125 -1.421875 
Q 15.921875 -1.421875 10.953125 3.296875 
Q 6 8.015625 6 15.921875 
Q 6 25.140625 12.171875 29.828125 
Q 18.359375 34.515625 30.609375 34.515625 
L 43.21875 34.515625 
L 43.21875 35.40625 
Q 43.21875 41.609375 39.140625 45 
Q 35.0625 48.390625 27.6875 48.390625 
Q 23 48.390625 18.546875 47.265625 
Q 14.109375 46.140625 10.015625 43.890625 
L 10.015625 52.203125 
Q 14.9375 54.109375 19.578125 55.046875 
Q 24.21875 56 28.609375 56 
Q 40.484375 56 46.34375 49.84375 
Q 52.203125 43.703125 52.203125 31.203125 
" id="BitstreamVeraSans-Roman-61"/>
      <path d="M 30.609375 48.390625 
Q 23.390625 48.390625 19.1875 42.75 
Q 14.984375 37.109375 14.984375 27.296875 
Q 14.984375 17.484375 19.15625 11.84375 
Q 23.34375 6.203125 30.609375 6.203125 
Q 37.796875 6.203125 41.984375 11.859375 
Q 46.1875 17.53125 46.1875 27.296875 
Q 46.1875 37.015625 41.984375 42.703125 
Q 37.796875 48.390625 30.609375 48.390625 
M 30.609375 56 
Q 42.328125 56 49.015625 48.375 
Q 55.71875 40.765625 55.71875 27.296875 
Q 55.71875 13.875 49.015625 6.21875 
Q 42.328125 -1.421875 30.609375 -1.421875 
Q 18.84375 -1.421875 12.171875 6.21875 
Q 5.515625 13.875 5.515625 27.296875 
Q 5.515625 40.765625 12.171875 48.375 
Q 18.84375 56 30.609375 56 
" id="BitstreamVeraSans-Roman-6f"/>
      <path d="M 9.421875 54.6875 
L 18.40625 54.6875 
L 18.40625 0 
L 9.421875 0 
z
M 9.421875 75.984375 
L 18.40625 75.984375 
L 18.40625 64.59375 
L 9.421875 64.59375 
z
" id="BitstreamVeraSans-Roman-69"/>
      <path d="M 56.203125 29.59375 
L 56.203125 25.203125 
L 14.890625 25.203125 
Q 15.484375 15.921875 20.484375 11.0625 
Q 25.484375 6.203125 34.421875 6.203125 
Q 39.59375 6.203125 44.453125 7.46875 
Q 49.3125 8.734375 54.109375 11.28125 
L 54.109375 2.78125 
Q 49.265625 0.734375 44.1875 -0.34375 
Q 39.109375 -1.421875 33.890625 -1.421875 
Q 20.796875 -1.421875 13.15625 6.1875 
Q 5.515625 13.8125 5.515625 26.8125 
Q 5.515625 40.234375 12.765625 48.109375 
Q 20.015625 56 32.328125 56 
Q 43.359375 56 49.78125 48.890625 
Q 56.203125 41.796875 56.203125 29.59375 
M 47.21875 32.234375 
Q 47.125 39.59375 43.09375 43.984375 
Q 39.0625 48.390625 32.421875 48.390625 
Q 24.90625 48.390625 20.390625 44.140625 
Q 15.875 39.890625 15.1875 32.171875 
z
" id="BitstreamVeraSans-Roman-65"/>
      <path d="M 18.3125 70.21875 
L 18.3125 54.6875 
L 36.8125 54.6875 
L 36.8125 47.703125 
L 18.3125 47.703125 
L 18.3125 18.015625 
Q 18.3125 11.328125 20.140625 9.421875 
Q 21.96875 7.515625 27.59375 7.515625 
L 36.8125 7.515625 
L 36.8125 0 
L 27.59375 0 
Q 17.1875 0 13.234375 3.875 
Q 9.28125 7.765625 9.28125 18.015625 
L 9.28125 47.703125 
L 2.6875 47.703125 
L 2.6875 54.6875 
L 9.28125 54.6875 
L 9.28125 70.21875 
z
" id="BitstreamVeraSans-Roman-74"/>
      <path d="M 41.109375 46.296875 
Q 39.59375 47.171875 37.8125 47.578125 
Q 36.03125 48 33.890625 48 
Q 26.265625 48 22.1875 43.046875 
Q 18.109375 38.09375 18.109375 28.8125 
L 18.109375 0 
L 9.078125 0 
L 9.078125 54.6875 
L 18.109375 54.6875 
L 18.109375 46.1875 
Q 20.953125 51.171875 25.484375 53.578125 
Q 30.03125 56 36.53125 56 
Q 37.453125 56 38.578125 55.875 
Q 39.703125 55.765625 41.0625 55.515625 
z
" id="BitstreamVeraSans-Roman-72"/>
      <path d="M 44.28125 53.078125 
L 44.28125 44.578125 
Q 40.484375 46.53125 36.375 47.5 
Q 32.28125 48.484375 27.875 48.484375 
Q 21.1875 48.484375 17.84375 46.4375 
Q 14.5 44.390625 14.5 40.28125 
Q 14.5 37.15625 16.890625 35.375 
Q 19.28125 33.59375 26.515625 31.984375 
L 29.59375 31.296875 
Q 39.15625 29.25 43.1875 25.515625 
Q 47.21875 21.78125 47.21875 15.09375 
Q 47.21875 7.46875 41.1875 3.015625 
Q 35.15625 -1.421875 24.609375 -1.421875 
Q 20.21875 -1.421875 15.453125 -0.5625 
Q 10.6875 0.296875 5.421875 2 
L 5.421875 11.28125 
Q 10.40625 8.6875 15.234375 7.390625 
Q 20.0625 6.109375 24.8125 6.109375 
Q 31.15625 6.109375 34.5625 8.28125 
Q 37.984375 10.453125 37.984375 14.40625 
Q 37.984375 18.0625 35.515625 20.015625 
Q 33.0625 21.96875 24.703125 23.78125 
L 21.578125 24.515625 
Q 13.234375 26.265625 9.515625 29.90625 
Q 5.8125 33.546875 5.8125 39.890625 
Q 5.8125 47.609375 11.28125 51.796875 
Q 16.75 56 26.8125 56 
Q 31.78125 56 36.171875 55.265625 
Q 40.578125 54.546875 44.28125 53.078125 
" id="BitstreamVeraSans-Roman-73"/>
     </defs>
     <g transform="translate(693.93046875 807.8296875)scale(0.3 -0.3)">
      <use xlink:href="#BitstreamVeraSans-Roman-69"/>
      <use x="27.783203125" xlink:href="#BitstreamVeraSans-Roman-74"/>
      <use x="66.9921875" xlink:href="#BitstreamVeraSans-Roman-65"/>
      <use x="128.515625" xlink:href="#BitstreamVeraSans-Roman-72"/>
      <use x="169.62890625" xlink:href="#BitstreamVeraSans-Roman-61"/>
      <use x="230.908203125" xlink:href="#BitstreamVeraSans-Roman-74"/>
      <use x="270.1171875" xlink:href="#BitstreamVeraSans-Roman-69"/>
      <use x="297.900390625" xlink:href="#BitstreamVeraSans-Roman-6f"/>
      <use x="359.08203125" xlink:href="#BitstreamVeraSans-Roman-6e"/>
      <use x="422.4609375" xlink:href="#BitstreamVeraSans-Roman-73"/>
     </g>
    </g>
   </g>
   <g id="matplotlib.axis_2">
    <g id="ytick_1">
     <g id="line2d_15">
      <defs>
       <path d="M 0 0 
L 4 0 
" id="m833579d7d0" style="stroke:#000000;stroke-width:0.5;"/>
      </defs>
      <g>
       <use style="stroke:#000000;stroke-width:0.5;" x="158.4" xlink:href="#m833579d7d0" y="747.0"/>
      </g>
     </g>
     <g id="line2d_16">
      <defs>
       <path d="M 0 0 
L -4 0 
" id="m9db1181419" style="stroke:#000000;stroke-width:0.5;"/>
      </defs>
      <g>
       <use style="stroke:#000000;stroke-width:0.5;" x="1371.825" xlink:href="#m9db1181419" y="747.0"/>
      </g>
     </g>
     <g id="text_8">
      <!-- −60 -->
      <defs>
       <path d="M 10.59375 35.5 
L 73.1875 35.5 
L 73.1875 27.203125 
L 10.59375 27.203125 
z
" id="BitstreamVeraSans-Roman-2212"/>
       <path d="M 33.015625 40.375 
Q 26.375 40.375 22.484375 35.828125 
Q 18.609375 31.296875 18.609375 23.390625 
Q 18.609375 15.53125 22.484375 10.953125 
Q 26.375 6.390625 33.015625 6.390625 
Q 39.65625 6.390625 43.53125 10.953125 
Q 47.40625 15.53125 47.40625 23.390625 
Q 47.40625 31.296875 43.53125 35.828125 
Q 39.65625 40.375 33.015625 40.375 
M 52.59375 71.296875 
L 52.59375 62.3125 
Q 48.875 64.0625 45.09375 64.984375 
Q 41.3125 65.921875 37.59375 65.921875 
Q 27.828125 65.921875 22.671875 59.328125 
Q 17.53125 52.734375 16.796875 39.40625 
Q 19.671875 43.65625 24.015625 45.921875 
Q 28.375 48.1875 33.59375 48.1875 
Q 44.578125 48.1875 50.953125 41.515625 
Q 57.328125 34.859375 57.328125 23.390625 
Q 57.328125 12.15625 50.6875 5.359375 
Q 44.046875 -1.421875 33.015625 -1.421875 
Q 20.359375 -1.421875 13.671875 8.265625 
Q 6.984375 17.96875 6.984375 36.375 
Q 6.984375 53.65625 15.1875 63.9375 
Q 23.390625 74.21875 37.203125 74.21875 
Q 40.921875 74.21875 44.703125 73.484375 
Q 48.484375 72.75 52.59375 71.296875 
" id="BitstreamVeraSans-Roman-36"/>
      </defs>
      <g transform="translate(91.0859375 755.278125)scale(0.3 -0.3)">
       <use xlink:href="#BitstreamVeraSans-Roman-2212"/>
       <use x="83.7890625" xlink:href="#BitstreamVeraSans-Roman-36"/>
       <use x="147.412109375" xlink:href="#BitstreamVeraSans-Roman-30"/>
      </g>
     </g>
    </g>
    <g id="ytick_2">
     <g id="line2d_17">
      <g>
       <use style="stroke:#000000;stroke-width:0.5;" x="158.4" xlink:href="#m833579d7d0" y="660.0375"/>
      </g>
     </g>
     <g id="line2d_18">
      <g>
       <use style="stroke:#000000;stroke-width:0.5;" x="1371.825" xlink:href="#m9db1181419" y="660.0375"/>
      </g>
     </g>
     <g id="text_9">
      <!-- −50 -->
      <g transform="translate(91.0859375 668.315625)scale(0.3 -0.3)">
       <use xlink:href="#BitstreamVeraSans-Roman-2212"/>
       <use x="83.7890625" xlink:href="#BitstreamVeraSans-Roman-35"/>
       <use x="147.412109375" xlink:href="#BitstreamVeraSans-Roman-30"/>
      </g>
     </g>
    </g>
    <g id="ytick_3">
     <g id="line2d_19">
      <g>
       <use style="stroke:#000000;stroke-width:0.5;" x="158.4" xlink:href="#m833579d7d0" y="573.075"/>
      </g>
     </g>
     <g id="line2d_20">
      <g>
       <use style="stroke:#000000;stroke-width:0.5;" x="1371.825" xlink:href="#m9db1181419" y="573.075"/>
      </g>
     </g>
     <g id="text_10">
      <!-- −40 -->
      <g transform="translate(91.0859375 581.353125)scale(0.3 -0.3)">
       <use xlink:href="#BitstreamVeraSans-Roman-2212"/>
       <use x="83.7890625" xlink:href="#BitstreamVeraSans-Roman-34"/>
       <use x="147.412109375" xlink:href="#BitstreamVeraSans-Roman-30"/>
      </g>
     </g>
    </g>
    <g id="ytick_4">
     <g id="line2d_21">
      <g>
       <use style="stroke:#000000;stroke-width:0.5;" x="158.4" xlink:href="#m833579d7d0" y="486.1125"/>
      </g>
     </g>
     <g id="line2d_22">
      <g>
       <use style="stroke:#000000;stroke-width:0.5;" x="1371.825" xlink:href="#m9db1181419" y="486.1125"/>
      </g>
     </g>
     <g id="text_11">
      <!-- −30 -->
      <g transform="translate(91.0859375 494.390625)scale(0.3 -0.3)">
       <use xlink:href="#BitstreamVeraSans-Roman-2212"/>
       <use x="83.7890625" xlink:href="#BitstreamVeraSans-Roman-33"/>
       <use x="147.412109375" xlink:href="#BitstreamVeraSans-Roman-30"/>
      </g>
     </g>
    </g>
    <g id="ytick_5">
     <g id="line2d_23">
      <g>
       <use style="stroke:#000000;stroke-width:0.5;" x="158.4" xlink:href="#m833579d7d0" y="399.15"/>
      </g>
     </g>
     <g id="line2d_24">
      <g>
       <use style="stroke:#000000;stroke-width:0.5;" x="1371.825" xlink:href="#m9db1181419" y="399.15"/>
      </g>
     </g>
     <g id="text_12">
      <!-- −20 -->
      <g transform="translate(91.0859375 407.428125)scale(0.3 -0.3)">
       <use xlink:href="#BitstreamVeraSans-Roman-2212"/>
       <use x="83.7890625" xlink:href="#BitstreamVeraSans-Roman-32"/>
       <use x="147.412109375" xlink:href="#BitstreamVeraSans-Roman-30"/>
      </g>
     </g>
    </g>
    <g id="ytick_6">
     <g id="line2d_25">
      <g>
       <use style="stroke:#000000;stroke-width:0.5;" x="158.4" xlink:href="#m833579d7d0" y="312.1875"/>
      </g>
     </g>
     <g id="line2d_26">
      <g>
       <use style="stroke:#000000;stroke-width:0.5;" x="1371.825" xlink:href="#m9db1181419" y="312.1875"/>
      </g>
     </g>
     <g id="text_13">
      <!-- −10 -->
      <g transform="translate(91.0859375 320.465625)scale(0.3 -0.3)">
       <use xlink:href="#BitstreamVeraSans-Roman-2212"/>
       <use x="83.7890625" xlink:href="#BitstreamVeraSans-Roman-31"/>
       <use x="147.412109375" xlink:href="#BitstreamVeraSans-Roman-30"/>
      </g>
     </g>
    </g>
    <g id="ytick_7">
     <g id="line2d_27">
      <g>
       <use style="stroke:#000000;stroke-width:0.5;" x="158.4" xlink:href="#m833579d7d0" y="225.225"/>
      </g>
     </g>
     <g id="line2d_28">
      <g>
       <use style="stroke:#000000;stroke-width:0.5;" x="1371.825" xlink:href="#m9db1181419" y="225.225"/>
      </g>
     </g>
     <g id="text_14">
      <!-- 0 -->
      <g transform="translate(135.3125 233.503125)scale(0.3 -0.3)">
       <use xlink:href="#BitstreamVeraSans-Roman-30"/>
      </g>
     </g>
    </g>
    <g id="ytick_8">
     <g id="line2d_29">
      <g>
       <use style="stroke:#000000;stroke-width:0.5;" x="158.4" xlink:href="#m833579d7d0" y="138.2625"/>
      </g>
     </g>
     <g id="line2d_30">
      <g>
       <use style="stroke:#000000;stroke-width:0.5;" x="1371.825" xlink:href="#m9db1181419" y="138.2625"/>
      </g>
     </g>
     <g id="text_15">
      <!-- 10 -->
      <g transform="translate(116.225 146.540625)scale(0.3 -0.3)">
       <use xlink:href="#BitstreamVeraSans-Roman-31"/>
       <use x="63.623046875" xlink:href="#BitstreamVeraSans-Roman-30"/>
      </g>
     </g>
    </g>
    <g id="ytick_9">
     <g id="line2d_31">
      <g>
       <use style="stroke:#000000;stroke-width:0.5;" x="158.4" xlink:href="#m833579d7d0" y="51.3"/>
      </g>
     </g>
     <g id="line2d_32">
      <g>
       <use style="stroke:#000000;stroke-width:0.5;" x="1371.825" xlink:href="#m9db1181419" y="51.3"/>
      </g>
     </g>
     <g id="text_16">
      <!-- 20 -->
      <g transform="translate(116.225 59.578125)scale(0.3 -0.3)">
       <use xlink:href="#BitstreamVeraSans-Roman-32"/>
       <use x="63.623046875" xlink:href="#BitstreamVeraSans-Roman-30"/>
      </g>
     </g>
    </g>
    <g id="text_17">
     <!-- log(loss) -->
     <defs>
      <path d="M 8.015625 75.875 
L 15.828125 75.875 
Q 23.140625 64.359375 26.78125 53.3125 
Q 30.421875 42.28125 30.421875 31.390625 
Q 30.421875 20.453125 26.78125 9.375 
Q 23.140625 -1.703125 15.828125 -13.1875 
L 8.015625 -13.1875 
Q 14.5 -2 17.703125 9.0625 
Q 20.90625 20.125 20.90625 31.390625 
Q 20.90625 42.671875 17.703125 53.65625 
Q 14.5 64.65625 8.015625 75.875 
" id="BitstreamVeraSans-Roman-29"/>
      <path d="M 31 75.875 
Q 24.46875 64.65625 21.28125 53.65625 
Q 18.109375 42.671875 18.109375 31.390625 
Q 18.109375 20.125 21.3125 9.0625 
Q 24.515625 -2 31 -13.1875 
L 23.1875 -13.1875 
Q 15.875 -1.703125 12.234375 9.375 
Q 8.59375 20.453125 8.59375 31.390625 
Q 8.59375 42.28125 12.203125 53.3125 
Q 15.828125 64.359375 23.1875 75.875 
z
" id="BitstreamVeraSans-Roman-28"/>
      <path d="M 45.40625 27.984375 
Q 45.40625 37.75 41.375 43.109375 
Q 37.359375 48.484375 30.078125 48.484375 
Q 22.859375 48.484375 18.828125 43.109375 
Q 14.796875 37.75 14.796875 27.984375 
Q 14.796875 18.265625 18.828125 12.890625 
Q 22.859375 7.515625 30.078125 7.515625 
Q 37.359375 7.515625 41.375 12.890625 
Q 45.40625 18.265625 45.40625 27.984375 
M 54.390625 6.78125 
Q 54.390625 -7.171875 48.1875 -13.984375 
Q 42 -20.796875 29.203125 -20.796875 
Q 24.46875 -20.796875 20.265625 -20.09375 
Q 16.0625 -19.390625 12.109375 -17.921875 
L 12.109375 -9.1875 
Q 16.0625 -11.328125 19.921875 -12.34375 
Q 23.78125 -13.375 27.78125 -13.375 
Q 36.625 -13.375 41.015625 -8.765625 
Q 45.40625 -4.15625 45.40625 5.171875 
L 45.40625 9.625 
Q 42.625 4.78125 38.28125 2.390625 
Q 33.9375 0 27.875 0 
Q 17.828125 0 11.671875 7.65625 
Q 5.515625 15.328125 5.515625 27.984375 
Q 5.515625 40.671875 11.671875 48.328125 
Q 17.828125 56 27.875 56 
Q 33.9375 56 38.28125 53.609375 
Q 42.625 51.21875 45.40625 46.390625 
L 45.40625 54.6875 
L 54.390625 54.6875 
z
" id="BitstreamVeraSans-Roman-67"/>
      <path d="M 9.421875 75.984375 
L 18.40625 75.984375 
L 18.40625 0 
L 9.421875 0 
z
" id="BitstreamVeraSans-Roman-6c"/>
     </defs>
     <g transform="translate(79.846875 462.69609375)rotate(-90.0)scale(0.3 -0.3)">
      <use xlink:href="#BitstreamVeraSans-Roman-6c"/>
      <use x="27.783203125" xlink:href="#BitstreamVeraSans-Roman-6f"/>
      <use x="88.96484375" xlink:href="#BitstreamVeraSans-Roman-67"/>
      <use x="152.44140625" xlink:href="#BitstreamVeraSans-Roman-28"/>
      <use x="191.455078125" xlink:href="#BitstreamVeraSans-Roman-6c"/>
      <use x="219.23828125" xlink:href="#BitstreamVeraSans-Roman-6f"/>
      <use x="280.419921875" xlink:href="#BitstreamVeraSans-Roman-73"/>
      <use x="332.51953125" xlink:href="#BitstreamVeraSans-Roman-73"/>
      <use x="384.619140625" xlink:href="#BitstreamVeraSans-Roman-29"/>
     </g>
    </g>
   </g>
   <g id="legend_1">
    <g id="patch_7">
     <path d="M 879.651562 163.36875 
L 1356.825 163.36875 
L 1356.825 66.3 
L 879.651562 66.3 
z
" style="fill:#ffffff;stroke:#000000;stroke-linejoin:miter;"/>
    </g>
    <g id="line2d_33">
     <path d="M 900.651562 90.595312 
L 942.651562 90.595312 
" style="fill:none;stroke:#0000ff;stroke-linecap:square;stroke-width:2.0;"/>
    </g>
    <g id="line2d_34"/>
    <g id="text_18">
     <!-- random: step=0.004893 -->
     <defs>
      <path id="BitstreamVeraSans-Roman-20"/>
      <path d="M 52 44.1875 
Q 55.375 50.25 60.0625 53.125 
Q 64.75 56 71.09375 56 
Q 79.640625 56 84.28125 50.015625 
Q 88.921875 44.046875 88.921875 33.015625 
L 88.921875 0 
L 79.890625 0 
L 79.890625 32.71875 
Q 79.890625 40.578125 77.09375 44.375 
Q 74.3125 48.1875 68.609375 48.1875 
Q 61.625 48.1875 57.5625 43.546875 
Q 53.515625 38.921875 53.515625 30.90625 
L 53.515625 0 
L 44.484375 0 
L 44.484375 32.71875 
Q 44.484375 40.625 41.703125 44.40625 
Q 38.921875 48.1875 33.109375 48.1875 
Q 26.21875 48.1875 22.15625 43.53125 
Q 18.109375 38.875 18.109375 30.90625 
L 18.109375 0 
L 9.078125 0 
L 9.078125 54.6875 
L 18.109375 54.6875 
L 18.109375 46.1875 
Q 21.1875 51.21875 25.484375 53.609375 
Q 29.78125 56 35.6875 56 
Q 41.65625 56 45.828125 52.96875 
Q 50 49.953125 52 44.1875 
" id="BitstreamVeraSans-Roman-6d"/>
      <path d="M 31.78125 34.625 
Q 24.75 34.625 20.71875 30.859375 
Q 16.703125 27.09375 16.703125 20.515625 
Q 16.703125 13.921875 20.71875 10.15625 
Q 24.75 6.390625 31.78125 6.390625 
Q 38.8125 6.390625 42.859375 10.171875 
Q 46.921875 13.96875 46.921875 20.515625 
Q 46.921875 27.09375 42.890625 30.859375 
Q 38.875 34.625 31.78125 34.625 
M 21.921875 38.8125 
Q 15.578125 40.375 12.03125 44.71875 
Q 8.5 49.078125 8.5 55.328125 
Q 8.5 64.0625 14.71875 69.140625 
Q 20.953125 74.21875 31.78125 74.21875 
Q 42.671875 74.21875 48.875 69.140625 
Q 55.078125 64.0625 55.078125 55.328125 
Q 55.078125 49.078125 51.53125 44.71875 
Q 48 40.375 41.703125 38.8125 
Q 48.828125 37.15625 52.796875 32.3125 
Q 56.78125 27.484375 56.78125 20.515625 
Q 56.78125 9.90625 50.3125 4.234375 
Q 43.84375 -1.421875 31.78125 -1.421875 
Q 19.734375 -1.421875 13.25 4.234375 
Q 6.78125 9.90625 6.78125 20.515625 
Q 6.78125 27.484375 10.78125 32.3125 
Q 14.796875 37.15625 21.921875 38.8125 
M 18.3125 54.390625 
Q 18.3125 48.734375 21.84375 45.5625 
Q 25.390625 42.390625 31.78125 42.390625 
Q 38.140625 42.390625 41.71875 45.5625 
Q 45.3125 48.734375 45.3125 54.390625 
Q 45.3125 60.0625 41.71875 63.234375 
Q 38.140625 66.40625 31.78125 66.40625 
Q 25.390625 66.40625 21.84375 63.234375 
Q 18.3125 60.0625 18.3125 54.390625 
" id="BitstreamVeraSans-Roman-38"/>
      <path d="M 10.984375 1.515625 
L 10.984375 10.5 
Q 14.703125 8.734375 18.5 7.8125 
Q 22.3125 6.890625 25.984375 6.890625 
Q 35.75 6.890625 40.890625 13.453125 
Q 46.046875 20.015625 46.78125 33.40625 
Q 43.953125 29.203125 39.59375 26.953125 
Q 35.25 24.703125 29.984375 24.703125 
Q 19.046875 24.703125 12.671875 31.3125 
Q 6.296875 37.9375 6.296875 49.421875 
Q 6.296875 60.640625 12.9375 67.421875 
Q 19.578125 74.21875 30.609375 74.21875 
Q 43.265625 74.21875 49.921875 64.515625 
Q 56.59375 54.828125 56.59375 36.375 
Q 56.59375 19.140625 48.40625 8.859375 
Q 40.234375 -1.421875 26.421875 -1.421875 
Q 22.703125 -1.421875 18.890625 -0.6875 
Q 15.09375 0.046875 10.984375 1.515625 
M 30.609375 32.421875 
Q 37.25 32.421875 41.125 36.953125 
Q 45.015625 41.5 45.015625 49.421875 
Q 45.015625 57.28125 41.125 61.84375 
Q 37.25 66.40625 30.609375 66.40625 
Q 23.96875 66.40625 20.09375 61.84375 
Q 16.21875 57.28125 16.21875 49.421875 
Q 16.21875 41.5 20.09375 36.953125 
Q 23.96875 32.421875 30.609375 32.421875 
" id="BitstreamVeraSans-Roman-39"/>
      <path d="M 11.71875 12.40625 
L 22.015625 12.40625 
L 22.015625 0 
L 11.71875 0 
z
M 11.71875 51.703125 
L 22.015625 51.703125 
L 22.015625 39.3125 
L 11.71875 39.3125 
z
" id="BitstreamVeraSans-Roman-3a"/>
      <path d="M 10.6875 12.40625 
L 21 12.40625 
L 21 0 
L 10.6875 0 
z
" id="BitstreamVeraSans-Roman-2e"/>
      <path d="M 10.59375 45.40625 
L 73.1875 45.40625 
L 73.1875 37.203125 
L 10.59375 37.203125 
z
M 10.59375 25.484375 
L 73.1875 25.484375 
L 73.1875 17.1875 
L 10.59375 17.1875 
z
" id="BitstreamVeraSans-Roman-3d"/>
      <path d="M 45.40625 46.390625 
L 45.40625 75.984375 
L 54.390625 75.984375 
L 54.390625 0 
L 45.40625 0 
L 45.40625 8.203125 
Q 42.578125 3.328125 38.25 0.953125 
Q 33.9375 -1.421875 27.875 -1.421875 
Q 17.96875 -1.421875 11.734375 6.484375 
Q 5.515625 14.40625 5.515625 27.296875 
Q 5.515625 40.1875 11.734375 48.09375 
Q 17.96875 56 27.875 56 
Q 33.9375 56 38.25 53.625 
Q 42.578125 51.265625 45.40625 46.390625 
M 14.796875 27.296875 
Q 14.796875 17.390625 18.875 11.75 
Q 22.953125 6.109375 30.078125 6.109375 
Q 37.203125 6.109375 41.296875 11.75 
Q 45.40625 17.390625 45.40625 27.296875 
Q 45.40625 37.203125 41.296875 42.84375 
Q 37.203125 48.484375 30.078125 48.484375 
Q 22.953125 48.484375 18.875 42.84375 
Q 14.796875 37.203125 14.796875 27.296875 
" id="BitstreamVeraSans-Roman-64"/>
      <path d="M 18.109375 8.203125 
L 18.109375 -20.796875 
L 9.078125 -20.796875 
L 9.078125 54.6875 
L 18.109375 54.6875 
L 18.109375 46.390625 
Q 20.953125 51.265625 25.265625 53.625 
Q 29.59375 56 35.59375 56 
Q 45.5625 56 51.78125 48.09375 
Q 58.015625 40.1875 58.015625 27.296875 
Q 58.015625 14.40625 51.78125 6.484375 
Q 45.5625 -1.421875 35.59375 -1.421875 
Q 29.59375 -1.421875 25.265625 0.953125 
Q 20.953125 3.328125 18.109375 8.203125 
M 48.6875 27.296875 
Q 48.6875 37.203125 44.609375 42.84375 
Q 40.53125 48.484375 33.40625 48.484375 
Q 26.265625 48.484375 22.1875 42.84375 
Q 18.109375 37.203125 18.109375 27.296875 
Q 18.109375 17.390625 22.1875 11.75 
Q 26.265625 6.109375 33.40625 6.109375 
Q 40.53125 6.109375 44.609375 11.75 
Q 48.6875 17.390625 48.6875 27.296875 
" id="BitstreamVeraSans-Roman-70"/>
     </defs>
     <g transform="translate(975.6515625 101.0953125)scale(0.3 -0.3)">
      <use xlink:href="#BitstreamVeraSans-Roman-72"/>
      <use x="41.11328125" xlink:href="#BitstreamVeraSans-Roman-61"/>
      <use x="102.392578125" xlink:href="#BitstreamVeraSans-Roman-6e"/>
      <use x="165.771484375" xlink:href="#BitstreamVeraSans-Roman-64"/>
      <use x="229.248046875" xlink:href="#BitstreamVeraSans-Roman-6f"/>
      <use x="290.4296875" xlink:href="#BitstreamVeraSans-Roman-6d"/>
      <use x="387.841796875" xlink:href="#BitstreamVeraSans-Roman-3a"/>
      <use x="421.533203125" xlink:href="#BitstreamVeraSans-Roman-20"/>
      <use x="453.3203125" xlink:href="#BitstreamVeraSans-Roman-73"/>
      <use x="505.419921875" xlink:href="#BitstreamVeraSans-Roman-74"/>
      <use x="544.62890625" xlink:href="#BitstreamVeraSans-Roman-65"/>
      <use x="606.15234375" xlink:href="#BitstreamVeraSans-Roman-70"/>
      <use x="669.62890625" xlink:href="#BitstreamVeraSans-Roman-3d"/>
      <use x="753.41796875" xlink:href="#BitstreamVeraSans-Roman-30"/>
      <use x="817.041015625" xlink:href="#BitstreamVeraSans-Roman-2e"/>
      <use x="848.828125" xlink:href="#BitstreamVeraSans-Roman-30"/>
      <use x="912.451171875" xlink:href="#BitstreamVeraSans-Roman-30"/>
      <use x="976.07421875" xlink:href="#BitstreamVeraSans-Roman-34"/>
      <use x="1039.69726562" xlink:href="#BitstreamVeraSans-Roman-38"/>
      <use x="1103.3203125" xlink:href="#BitstreamVeraSans-Roman-39"/>
      <use x="1166.94335938" xlink:href="#BitstreamVeraSans-Roman-33"/>
     </g>
    </g>
    <g id="line2d_35">
     <path d="M 900.651562 134.629687 
L 942.651562 134.629687 
" style="fill:none;stroke:#008000;stroke-linecap:square;stroke-width:2.0;"/>
    </g>
    <g id="line2d_36"/>
    <g id="text_19">
     <!-- corr: step=0.004893 -->
     <defs>
      <path d="M 48.78125 52.59375 
L 48.78125 44.1875 
Q 44.96875 46.296875 41.140625 47.34375 
Q 37.3125 48.390625 33.40625 48.390625 
Q 24.65625 48.390625 19.8125 42.84375 
Q 14.984375 37.3125 14.984375 27.296875 
Q 14.984375 17.28125 19.8125 11.734375 
Q 24.65625 6.203125 33.40625 6.203125 
Q 37.3125 6.203125 41.140625 7.25 
Q 44.96875 8.296875 48.78125 10.40625 
L 48.78125 2.09375 
Q 45.015625 0.34375 40.984375 -0.53125 
Q 36.96875 -1.421875 32.421875 -1.421875 
Q 20.0625 -1.421875 12.78125 6.34375 
Q 5.515625 14.109375 5.515625 27.296875 
Q 5.515625 40.671875 12.859375 48.328125 
Q 20.21875 56 33.015625 56 
Q 37.15625 56 41.109375 55.140625 
Q 45.0625 54.296875 48.78125 52.59375 
" id="BitstreamVeraSans-Roman-63"/>
     </defs>
     <g transform="translate(975.6515625 145.1296875)scale(0.3 -0.3)">
      <use xlink:href="#BitstreamVeraSans-Roman-63"/>
      <use x="54.98046875" xlink:href="#BitstreamVeraSans-Roman-6f"/>
      <use x="116.162109375" xlink:href="#BitstreamVeraSans-Roman-72"/>
      <use x="157.259765625" xlink:href="#BitstreamVeraSans-Roman-72"/>
      <use x="198.357421875" xlink:href="#BitstreamVeraSans-Roman-3a"/>
      <use x="232.048828125" xlink:href="#BitstreamVeraSans-Roman-20"/>
      <use x="263.8359375" xlink:href="#BitstreamVeraSans-Roman-73"/>
      <use x="315.935546875" xlink:href="#BitstreamVeraSans-Roman-74"/>
      <use x="355.14453125" xlink:href="#BitstreamVeraSans-Roman-65"/>
      <use x="416.66796875" xlink:href="#BitstreamVeraSans-Roman-70"/>
      <use x="480.14453125" xlink:href="#BitstreamVeraSans-Roman-3d"/>
      <use x="563.93359375" xlink:href="#BitstreamVeraSans-Roman-30"/>
      <use x="627.556640625" xlink:href="#BitstreamVeraSans-Roman-2e"/>
      <use x="659.34375" xlink:href="#BitstreamVeraSans-Roman-30"/>
      <use x="722.966796875" xlink:href="#BitstreamVeraSans-Roman-30"/>
      <use x="786.58984375" xlink:href="#BitstreamVeraSans-Roman-34"/>
      <use x="850.212890625" xlink:href="#BitstreamVeraSans-Roman-38"/>
      <use x="913.8359375" xlink:href="#BitstreamVeraSans-Roman-39"/>
      <use x="977.458984375" xlink:href="#BitstreamVeraSans-Roman-33"/>
     </g>
    </g>
   </g>
  </g>
 </g>
 <defs>
  <clipPath id="p84e684066c">
   <rect height="695.7" width="1213.425" x="158.4" y="51.3"/>
  </clipPath>
 </defs>
</svg>
