<?xml version="1.0" encoding="utf-8" standalone="no"?>
<!DOCTYPE svg PUBLIC "-//W3C//DTD SVG 1.1//EN"
  "http://www.w3.org/Graphics/SVG/1.1/DTD/svg11.dtd">
<!-- Created with matplotlib (http://matplotlib.org/) -->
<svg height="864pt" version="1.1" viewBox="0 0 1440 864" width="1440pt" xmlns="http://www.w3.org/2000/svg" xmlns:xlink="http://www.w3.org/1999/xlink">
 <defs>
  <style type="text/css">
*{stroke-linecap:butt;stroke-linejoin:round;stroke-miterlimit:100000;}
  </style>
 </defs>
 <g id="figure_1">
  <g id="patch_1">
   <path d="M 0 864 
L 1440 864 
L 1440 0 
L 0 0 
z
" style="fill:#ffffff;"/>
  </g>
  <g id="axes_1">
   <g id="patch_2">
    <path d="M 127.0125 747 
L 1371.825 747 
L 1371.825 51.3 
L 127.0125 51.3 
z
" style="fill:#ffffff;"/>
   </g>
   <g id="line2d_1">
    <path clip-path="url(#p1547a1d7c0)" d="M 127.0125 109.977338 
L 129.502125 111.846251 
L 131.99175 114.051904 
L 134.481375 114.563413 
L 136.971 116.34092 
L 139.460625 119.081856 
L 141.95025 121.065545 
L 144.439875 122.395319 
L 146.9295 123.286957 
L 149.419125 125.862683 
L 151.90875 127.352133 
L 159.377625 132.757308 
L 161.86725 133.830918 
L 164.356875 133.807969 
L 166.8465 136.000349 
L 169.336125 138.576994 
L 171.82575 140.88568 
L 174.315375 142.125501 
L 176.805 144.044442 
L 179.294625 147.081297 
L 181.78425 149.799696 
L 184.273875 151.57682 
L 186.7635 153.865685 
L 189.253125 155.914365 
L 191.74275 158.212406 
L 194.232375 159.689519 
L 196.722 162.066833 
L 201.70125 165.349855 
L 204.190875 167.358963 
L 206.6805 169.617669 
L 211.65975 172.91381 
L 214.149375 174.856082 
L 216.639 176.538796 
L 221.61825 180.698809 
L 224.107875 182.143737 
L 226.5975 184.456923 
L 229.087125 186.441057 
L 231.57675 187.983575 
L 234.066375 189.192264 
L 236.556 190.657007 
L 239.045625 191.731459 
L 241.53525 193.833862 
L 244.024875 195.4476 
L 246.5145 196.431338 
L 249.004125 198.210407 
L 256.473 202.952072 
L 258.962625 204.886345 
L 261.45225 207.619675 
L 263.941875 209.963998 
L 266.4315 211.586527 
L 268.921125 212.632338 
L 273.900375 216.427219 
L 276.39 218.234639 
L 278.879625 219.106214 
L 283.858875 223.037086 
L 286.3485 224.704193 
L 288.838125 226.051693 
L 291.32775 227.256462 
L 293.817375 228.034692 
L 296.307 230.314804 
L 298.796625 232.182753 
L 301.28625 233.123338 
L 303.775875 234.709227 
L 308.755125 238.33326 
L 311.24475 240.704639 
L 313.734375 242.000578 
L 316.224 243.149408 
L 318.713625 244.902866 
L 321.20325 246.278956 
L 323.692875 248.193845 
L 326.1825 249.510972 
L 328.672125 250.520135 
L 331.16175 251.89224 
L 333.651375 253.112101 
L 336.141 254.715186 
L 338.630625 255.909015 
L 341.12025 257.569048 
L 343.609875 258.861889 
L 346.0995 261.211559 
L 348.589125 262.461025 
L 351.07875 264.660182 
L 353.568375 267.508792 
L 356.058 269.142283 
L 358.547625 270.222631 
L 361.03725 271.943888 
L 363.526875 274.143908 
L 366.0165 276.669153 
L 368.506125 277.435714 
L 370.99575 278.843922 
L 375.975 282.084998 
L 378.464625 283.989654 
L 380.95425 285.202155 
L 383.443875 286.977922 
L 385.9335 289.267243 
L 390.91275 291.858445 
L 398.381625 296.669835 
L 400.87125 297.483269 
L 403.360875 299.466195 
L 408.340125 301.84532 
L 410.82975 303.494229 
L 415.809 306.447533 
L 423.277875 309.817429 
L 425.7675 311.724995 
L 428.257125 312.586153 
L 430.74675 313.306144 
L 433.236375 314.27705 
L 435.726 316.190547 
L 438.215625 317.502885 
L 440.70525 319.400197 
L 443.194875 320.328102 
L 445.6845 321.484257 
L 448.174125 322.452466 
L 450.66375 323.88351 
L 453.153375 324.419808 
L 455.643 325.732143 
L 458.132625 326.78847 
L 460.62225 328.294726 
L 463.111875 329.507168 
L 465.6015 331.381711 
L 468.091125 333.034087 
L 470.58075 334.381331 
L 473.070375 336.036794 
L 475.56 337.851114 
L 485.5185 341.857978 
L 488.008125 343.187255 
L 490.49775 345.077844 
L 492.987375 345.540556 
L 495.477 346.757785 
L 502.945875 349.874586 
L 505.4355 351.180576 
L 507.925125 352.154318 
L 510.41475 352.794332 
L 515.394 356.408991 
L 517.883625 357.341553 
L 522.862875 360.018159 
L 527.842125 364.340054 
L 530.33175 364.902426 
L 532.821375 366.687429 
L 537.800625 369.298067 
L 540.29025 370.885873 
L 542.779875 372.611694 
L 545.2695 373.895191 
L 547.759125 375.822187 
L 550.24875 376.690109 
L 552.738375 377.437477 
L 555.228 378.875862 
L 557.717625 380.447952 
L 562.696875 382.571138 
L 565.1865 384.128834 
L 567.676125 385.233223 
L 570.16575 386.920942 
L 572.655375 388.81872 
L 575.145 389.834068 
L 580.12425 392.424284 
L 582.613875 393.989296 
L 585.1035 395.284924 
L 590.08275 396.578796 
L 592.572375 398.362892 
L 595.062 399.598226 
L 597.551625 400.980166 
L 600.04125 401.466029 
L 602.530875 402.451046 
L 605.0205 403.13099 
L 609.99975 405.609925 
L 612.489375 407.401095 
L 614.979 408.49522 
L 622.447875 410.890221 
L 627.427125 413.14665 
L 632.406375 416.458792 
L 637.385625 418.850998 
L 639.87525 419.681095 
L 642.364875 420.676845 
L 647.344125 422.200265 
L 649.83375 423.651687 
L 652.323375 424.715553 
L 654.813 425.318651 
L 657.302625 427.338839 
L 659.79225 428.285775 
L 662.281875 429.548763 
L 667.261125 431.574274 
L 672.240375 433.820903 
L 674.73 434.852828 
L 679.70925 436.422975 
L 684.6885 438.737553 
L 687.178125 439.57524 
L 692.157375 441.665256 
L 694.647 442.590318 
L 697.136625 442.687644 
L 699.62625 444.004009 
L 704.6055 446.191093 
L 707.095125 447.626524 
L 709.58475 448.792906 
L 712.074375 450.111736 
L 714.564 451.257173 
L 719.54325 453.150547 
L 722.032875 454.636905 
L 724.5225 455.43958 
L 727.012125 457.057554 
L 729.50175 458.888203 
L 731.991375 460.345369 
L 734.481 460.97996 
L 736.970625 461.778946 
L 739.46025 463.200506 
L 741.949875 463.985044 
L 744.4395 465.409418 
L 746.929125 465.699318 
L 749.41875 466.997596 
L 751.908375 467.829344 
L 754.398 468.435483 
L 756.887625 469.343587 
L 759.37725 471.45236 
L 761.866875 471.864012 
L 764.3565 473.265483 
L 769.33575 475.602275 
L 771.825375 477.605397 
L 774.315 478.721591 
L 784.2735 483.973209 
L 786.763125 484.61437 
L 789.25275 485.777306 
L 796.721625 488.446974 
L 799.21125 489.080598 
L 806.680125 492.298467 
L 809.16975 492.7267 
L 811.659375 494.17455 
L 819.12825 496.511918 
L 821.617875 497.85982 
L 824.1075 499.629911 
L 831.576375 502.141583 
L 834.066 503.408344 
L 836.555625 504.058296 
L 839.04525 505.756476 
L 841.534875 507.012925 
L 844.0245 507.986649 
L 846.514125 508.248368 
L 849.00375 509.364091 
L 851.493375 510.177478 
L 853.983 511.580718 
L 856.472625 511.833011 
L 858.96225 512.449458 
L 863.9415 515.079794 
L 866.431125 515.93386 
L 868.92075 516.981445 
L 871.410375 517.783653 
L 873.9 518.096365 
L 876.389625 518.642443 
L 881.368875 520.402172 
L 883.8585 521.683459 
L 886.348125 522.576978 
L 891.327375 523.80797 
L 893.817 524.885602 
L 896.306625 526.208346 
L 898.79625 527.254907 
L 903.7755 529.554487 
L 906.265125 530.541158 
L 908.75475 531.358282 
L 913.734 533.553275 
L 916.223625 534.259597 
L 918.71325 535.252115 
L 921.202875 536.400136 
L 923.6925 537.38492 
L 926.182125 537.927542 
L 928.67175 539.368192 
L 931.161375 539.902043 
L 936.140625 541.206427 
L 938.63025 542.362021 
L 941.119875 542.854184 
L 946.099125 544.786265 
L 948.58875 545.92209 
L 951.078375 546.695583 
L 958.54725 550.341155 
L 961.036875 551.232347 
L 963.5265 551.740739 
L 966.016125 552.925991 
L 968.50575 554.46696 
L 970.995375 555.176285 
L 973.485 556.560601 
L 975.974625 556.912956 
L 978.46425 558.647643 
L 980.953875 559.732494 
L 983.4435 560.55948 
L 985.933125 561.736436 
L 988.42275 562.335979 
L 990.912375 563.186822 
L 993.402 563.619708 
L 995.891625 564.698994 
L 1000.870875 566.627646 
L 1003.3605 567.307708 
L 1005.850125 568.847757 
L 1008.33975 569.724206 
L 1010.829375 570.182955 
L 1013.319 571.063889 
L 1015.808625 571.701504 
L 1018.29825 572.223018 
L 1020.787875 573.202643 
L 1023.2775 573.978332 
L 1025.767125 574.99764 
L 1028.25675 575.846511 
L 1035.725625 579.48286 
L 1038.21525 580.308988 
L 1040.704875 581.474392 
L 1045.684125 583.113124 
L 1048.17375 583.309972 
L 1050.663375 583.644732 
L 1055.642625 584.848273 
L 1060.621875 587.278967 
L 1063.1115 589.12056 
L 1065.601125 589.804001 
L 1068.09075 590.833053 
L 1070.580375 592.359914 
L 1073.07 593.443094 
L 1075.559625 594.149022 
L 1078.04925 595.215689 
L 1080.538875 595.521744 
L 1083.0285 596.271454 
L 1085.518125 597.400308 
L 1088.00775 598.052909 
L 1090.497375 599.394674 
L 1092.987 600.29942 
L 1095.476625 601.468916 
L 1097.96625 602.889346 
L 1102.9455 604.207787 
L 1105.435125 605.418314 
L 1107.92475 606.315917 
L 1110.414375 606.890154 
L 1112.904 607.896921 
L 1115.393625 609.149206 
L 1117.88325 610.157833 
L 1120.372875 610.410208 
L 1122.8625 611.465974 
L 1125.352125 612.808768 
L 1127.84175 613.70479 
L 1130.331375 614.30713 
L 1132.821 615.237121 
L 1135.310625 616.400502 
L 1137.80025 617.317069 
L 1140.289875 618.451007 
L 1142.7795 619.859181 
L 1145.269125 621.021283 
L 1147.75875 621.593332 
L 1152.738 623.41079 
L 1155.227625 624.663289 
L 1160.206875 626.697008 
L 1162.6965 628.591302 
L 1165.186125 629.530362 
L 1167.67575 629.944983 
L 1170.165375 631.120493 
L 1172.655 631.867084 
L 1180.123875 635.797282 
L 1182.6135 636.648801 
L 1185.103125 637.347706 
L 1187.59275 638.279538 
L 1190.082375 638.771712 
L 1192.572 639.5928 
L 1195.061625 640.737031 
L 1197.55125 641.743374 
L 1202.5305 642.481099 
L 1205.020125 643.500133 
L 1207.50975 644.816661 
L 1209.999375 645.719447 
L 1212.489 646.98105 
L 1214.978625 648.066664 
L 1217.46825 648.539098 
L 1219.957875 648.773437 
L 1222.4475 649.595655 
L 1227.42675 650.952483 
L 1232.406 652.647103 
L 1237.38525 654.93478 
L 1239.874875 655.66407 
L 1242.3645 656.537874 
L 1244.854125 658.816656 
L 1249.833375 660.467721 
L 1254.812625 662.06667 
L 1259.791875 663.944384 
L 1264.771125 665.087936 
L 1267.26075 666.76184 
L 1269.750375 667.917303 
L 1272.24 668.835411 
L 1274.729625 670.355936 
L 1279.708875 671.981063 
L 1284.688125 674.345121 
L 1287.17775 675.070356 
L 1289.667375 676.196389 
L 1292.157 676.4948 
L 1294.646625 677.736042 
L 1299.625875 679.639409 
L 1302.1155 680.76797 
L 1304.605125 681.77402 
L 1307.09475 682.430599 
L 1309.584375 683.655104 
L 1312.074 684.671384 
L 1314.563625 685.149447 
L 1322.0325 687.236071 
L 1327.01175 688.96512 
L 1329.501375 689.534013 
L 1334.480625 691.106062 
L 1336.97025 692.161651 
L 1341.9495 693.393254 
L 1344.439125 693.970245 
L 1346.92875 695.056602 
L 1351.908 696.301645 
L 1354.397625 697.155217 
L 1356.88725 698.286711 
L 1359.376875 698.919432 
L 1361.8665 700.075934 
L 1364.356125 700.852692 
L 1366.84575 701.841485 
L 1369.335375 702.643627 
L 1369.335375 702.643627 
" style="fill:none;stroke:#0000ff;stroke-linecap:square;stroke-width:2.0;"/>
   </g>
   <g id="line2d_2">
    <path clip-path="url(#p1547a1d7c0)" d="M 127.0125 110.040982 
L 129.502125 112.426376 
L 131.99175 114.615187 
L 134.481375 117.628378 
L 136.971 119.709168 
L 139.460625 121.965464 
L 141.95025 123.997863 
L 144.439875 126.219942 
L 146.9295 127.878165 
L 149.419125 130.109793 
L 151.90875 131.945309 
L 154.398375 134.278122 
L 156.888 136.942059 
L 159.377625 138.715939 
L 161.86725 141.545198 
L 164.356875 143.874894 
L 166.8465 145.945366 
L 169.336125 148.378196 
L 171.82575 149.572923 
L 174.315375 152.07293 
L 176.805 153.05289 
L 179.294625 155.19944 
L 181.78425 157.104793 
L 184.273875 159.235721 
L 186.7635 160.987207 
L 189.253125 163.073814 
L 194.232375 165.793727 
L 199.211625 170.047184 
L 201.70125 171.140513 
L 204.190875 172.550153 
L 206.6805 174.494265 
L 209.170125 175.873503 
L 211.65975 176.431317 
L 214.149375 179.596649 
L 216.639 181.166912 
L 219.128625 183.495816 
L 221.61825 184.682663 
L 224.107875 186.709155 
L 226.5975 188.895286 
L 229.087125 190.031491 
L 231.57675 191.65751 
L 234.066375 193.703381 
L 236.556 196.841324 
L 239.045625 198.752682 
L 246.5145 203.822942 
L 249.004125 205.199374 
L 251.49375 206.10657 
L 253.983375 209.589926 
L 256.473 211.056508 
L 258.962625 212.37112 
L 261.45225 213.889317 
L 263.941875 215.260857 
L 266.4315 216.378965 
L 271.41075 220.474313 
L 273.900375 220.610357 
L 281.36925 225.034089 
L 283.858875 227.236484 
L 286.3485 228.186032 
L 288.838125 230.603746 
L 293.817375 234.067289 
L 296.307 235.534991 
L 298.796625 237.809649 
L 301.28625 239.49515 
L 303.775875 241.353365 
L 306.2655 242.526856 
L 308.755125 244.506696 
L 311.24475 246.340052 
L 313.734375 247.826773 
L 316.224 249.470153 
L 318.713625 250.609128 
L 321.20325 252.445406 
L 323.692875 253.245041 
L 326.1825 255.641333 
L 328.672125 256.278653 
L 331.16175 257.711469 
L 333.651375 259.304977 
L 336.141 260.056803 
L 338.630625 261.112341 
L 341.12025 262.475413 
L 343.609875 263.410475 
L 346.0995 264.868993 
L 348.589125 265.943523 
L 351.07875 267.374803 
L 353.568375 269.080779 
L 356.058 270.575352 
L 358.547625 271.485513 
L 370.99575 279.026953 
L 373.485375 280.300115 
L 378.464625 284.02907 
L 383.443875 286.084338 
L 385.9335 287.477491 
L 388.423125 288.4935 
L 390.91275 290.222328 
L 393.402375 291.556233 
L 395.892 293.175535 
L 398.381625 294.461399 
L 400.87125 295.424219 
L 405.8505 297.974562 
L 408.340125 299.658202 
L 410.82975 300.743269 
L 413.319375 302.146042 
L 415.809 303.990199 
L 418.298625 305.444809 
L 420.78825 307.104302 
L 423.277875 308.094746 
L 428.257125 311.408913 
L 430.74675 312.654618 
L 433.236375 314.718425 
L 435.726 316.025488 
L 438.215625 317.878742 
L 440.70525 318.962541 
L 443.194875 321.403607 
L 445.6845 322.987184 
L 450.66375 326.733124 
L 453.153375 328.358088 
L 455.643 329.437294 
L 460.62225 332.947211 
L 463.111875 334.192294 
L 468.091125 336.853964 
L 470.58075 337.914011 
L 473.070375 339.625899 
L 478.049625 341.278418 
L 480.53925 342.988681 
L 485.5185 345.265228 
L 488.008125 347.234344 
L 490.49775 348.531744 
L 492.987375 348.855985 
L 495.477 349.626704 
L 497.966625 350.807072 
L 502.945875 353.669082 
L 505.4355 354.781937 
L 507.925125 356.12704 
L 512.904375 358.547094 
L 515.394 359.859594 
L 517.883625 360.879346 
L 522.862875 363.339923 
L 525.3525 363.730548 
L 527.842125 365.634564 
L 537.800625 369.209837 
L 540.29025 370.377741 
L 542.779875 372.20998 
L 545.2695 373.537097 
L 547.759125 374.723849 
L 550.24875 376.634887 
L 552.738375 377.421807 
L 555.228 379.423231 
L 560.20725 381.749119 
L 567.676125 384.451788 
L 570.16575 386.23975 
L 572.655375 386.725935 
L 575.145 387.81917 
L 577.634625 388.513089 
L 580.12425 390.117989 
L 585.1035 393.723675 
L 587.593125 394.71632 
L 590.08275 396.27327 
L 592.572375 398.172676 
L 597.551625 399.794266 
L 600.04125 401.101169 
L 602.530875 402.731966 
L 605.0205 403.973806 
L 607.510125 404.206171 
L 609.99975 405.66861 
L 614.979 408.971005 
L 622.447875 412.807483 
L 624.9375 413.494612 
L 627.427125 414.908092 
L 629.91675 415.870808 
L 632.406375 416.61674 
L 634.896 417.647559 
L 637.385625 419.076947 
L 639.87525 420.038613 
L 642.364875 421.571731 
L 644.8545 422.68195 
L 647.344125 424.200008 
L 649.83375 425.320005 
L 652.323375 427.175381 
L 654.813 427.950399 
L 657.302625 429.022458 
L 662.281875 432.268894 
L 664.7715 433.422789 
L 667.261125 434.043205 
L 669.75075 434.473909 
L 672.240375 436.282554 
L 674.73 437.836762 
L 679.70925 440.572437 
L 682.198875 441.145951 
L 684.6885 442.669819 
L 687.178125 444.038804 
L 689.66775 445.574796 
L 692.157375 446.090664 
L 694.647 446.811914 
L 697.136625 447.697694 
L 702.115875 450.135932 
L 704.6055 451.696927 
L 707.095125 452.895584 
L 709.58475 454.33423 
L 714.564 455.880085 
L 719.54325 458.605778 
L 722.032875 459.439638 
L 724.5225 459.625423 
L 727.012125 461.539118 
L 729.50175 461.936758 
L 731.991375 463.899497 
L 734.481 465.708092 
L 736.970625 466.836221 
L 741.949875 468.455718 
L 746.929125 471.105716 
L 749.41875 472.038125 
L 751.908375 472.563174 
L 754.398 473.268072 
L 756.887625 474.413139 
L 759.37725 475.810623 
L 761.866875 476.832058 
L 764.3565 477.592724 
L 766.846125 476.953998 
L 769.33575 477.684124 
L 771.825375 478.807797 
L 774.315 479.523303 
L 776.804625 480.73233 
L 779.29425 481.339973 
L 784.2735 483.652417 
L 786.763125 485.063667 
L 789.25275 485.918415 
L 794.232 489.504157 
L 796.721625 490.5911 
L 799.21125 491.867355 
L 801.700875 492.678447 
L 804.1905 493.610114 
L 806.680125 494.953385 
L 809.16975 495.708216 
L 811.659375 496.901865 
L 814.149 497.733241 
L 816.638625 498.242889 
L 819.12825 499.085598 
L 821.617875 499.757528 
L 824.1075 500.585547 
L 826.597125 501.553594 
L 829.08675 502.364512 
L 834.066 505.06233 
L 836.555625 505.784292 
L 846.514125 509.306285 
L 849.00375 510.624376 
L 851.493375 511.766223 
L 853.983 512.742729 
L 856.472625 514.34545 
L 858.96225 515.613738 
L 861.451875 515.882472 
L 863.9415 517.096834 
L 866.431125 517.95134 
L 868.92075 519.146935 
L 871.410375 519.883206 
L 873.9 521.03786 
L 876.389625 521.95311 
L 878.87925 523.507506 
L 881.368875 524.770123 
L 883.8585 525.499208 
L 886.348125 526.740508 
L 888.83775 527.568244 
L 893.817 529.97026 
L 896.306625 530.155077 
L 898.79625 531.434175 
L 901.285875 533.011733 
L 903.7755 534.037424 
L 906.265125 534.797725 
L 908.75475 536.080439 
L 911.244375 537.229713 
L 913.734 537.725324 
L 916.223625 538.92792 
L 918.71325 540.320037 
L 921.202875 540.82674 
L 923.6925 541.567234 
L 926.182125 542.426652 
L 928.67175 543.547085 
L 931.161375 544.926066 
L 938.63025 547.130505 
L 941.119875 547.320807 
L 943.6095 548.200693 
L 946.099125 548.834922 
L 948.58875 550.017181 
L 951.078375 551.456286 
L 953.568 552.394651 
L 956.057625 553.128228 
L 958.54725 553.74293 
L 961.036875 555.893204 
L 970.995375 559.887451 
L 973.485 560.870829 
L 975.974625 562.094582 
L 978.46425 563.132146 
L 985.933125 566.894193 
L 990.912375 568.664328 
L 993.402 569.148346 
L 995.891625 569.275569 
L 998.38125 569.747877 
L 1000.870875 571.056633 
L 1003.3605 572.120651 
L 1005.850125 572.869991 
L 1008.33975 573.25884 
L 1013.319 574.539542 
L 1015.808625 575.119404 
L 1018.29825 576.179979 
L 1023.2775 579.060873 
L 1025.767125 579.860098 
L 1028.25675 580.502423 
L 1030.746375 580.811899 
L 1033.236 581.658652 
L 1035.725625 582.686533 
L 1038.21525 584.076354 
L 1040.704875 584.944909 
L 1043.1945 586.000727 
L 1045.684125 586.066224 
L 1048.17375 586.831284 
L 1050.663375 587.779853 
L 1055.642625 590.255394 
L 1058.13225 590.829394 
L 1060.621875 592.265814 
L 1063.1115 593.177096 
L 1065.601125 594.251302 
L 1073.07 598.250111 
L 1080.538875 600.848519 
L 1083.0285 602.355859 
L 1085.518125 602.912287 
L 1088.00775 604.426472 
L 1090.497375 604.819972 
L 1092.987 606.124507 
L 1095.476625 606.682819 
L 1097.96625 608.154617 
L 1102.9455 609.845134 
L 1105.435125 610.381196 
L 1107.92475 611.505016 
L 1112.904 613.30874 
L 1115.393625 614.044254 
L 1117.88325 614.615902 
L 1120.372875 615.771455 
L 1122.8625 616.582792 
L 1125.352125 617.956196 
L 1130.331375 620.325974 
L 1135.310625 622.071833 
L 1140.289875 624.592734 
L 1142.7795 625.676777 
L 1147.75875 628.21924 
L 1152.738 629.961063 
L 1155.227625 630.85002 
L 1157.71725 631.528512 
L 1160.206875 632.362815 
L 1162.6965 634.223465 
L 1165.186125 635.02576 
L 1167.67575 636.11403 
L 1170.165375 636.855727 
L 1172.655 637.318676 
L 1175.144625 638.24202 
L 1180.123875 639.841891 
L 1190.082375 643.081853 
L 1192.572 643.582279 
L 1195.061625 644.503576 
L 1197.55125 645.22031 
L 1200.040875 646.38331 
L 1202.5305 647.111999 
L 1205.020125 648.668218 
L 1207.50975 649.429199 
L 1209.999375 650.343403 
L 1212.489 651.741763 
L 1214.978625 652.723827 
L 1217.46825 653.088909 
L 1219.957875 653.737239 
L 1224.937125 654.708446 
L 1227.42675 655.845608 
L 1229.916375 657.158021 
L 1232.406 658.259436 
L 1234.895625 659.038495 
L 1237.38525 659.939797 
L 1239.874875 659.952678 
L 1244.854125 661.79994 
L 1247.34375 663.360253 
L 1252.323 665.138067 
L 1254.812625 665.693915 
L 1257.30225 666.551712 
L 1262.2815 667.43727 
L 1264.771125 668.311787 
L 1269.750375 669.609039 
L 1272.24 671.231187 
L 1274.729625 672.300326 
L 1277.21925 673.217092 
L 1279.708875 674.579356 
L 1282.1985 675.449133 
L 1284.688125 676.031646 
L 1287.17775 677.285526 
L 1289.667375 679.012819 
L 1297.13625 680.910748 
L 1299.625875 682.219207 
L 1304.605125 684.011031 
L 1307.09475 684.648965 
L 1309.584375 685.527667 
L 1312.074 686.056537 
L 1314.563625 686.749445 
L 1317.05325 688.203411 
L 1319.542875 689.189384 
L 1322.0325 690.296777 
L 1324.522125 691.658542 
L 1327.01175 692.695373 
L 1329.501375 693.080995 
L 1331.991 694.489506 
L 1334.480625 695.26133 
L 1339.459875 696.227883 
L 1341.9495 697.42928 
L 1344.439125 698.963923 
L 1346.92875 700.237197 
L 1349.418375 700.885257 
L 1351.908 701.384393 
L 1356.88725 703.160269 
L 1361.8665 704.450051 
L 1364.356125 705.336928 
L 1366.84575 706.556338 
L 1369.335375 707.119135 
L 1369.335375 707.119135 
" style="fill:none;stroke:#008000;stroke-linecap:square;stroke-width:2.0;"/>
   </g>
   <g id="patch_3">
    <path d="M 127.0125 51.3 
L 1371.825 51.3 
" style="fill:none;stroke:#000000;stroke-linecap:square;stroke-linejoin:miter;"/>
   </g>
   <g id="patch_4">
    <path d="M 1371.825 747 
L 1371.825 51.3 
" style="fill:none;stroke:#000000;stroke-linecap:square;stroke-linejoin:miter;"/>
   </g>
   <g id="patch_5">
    <path d="M 127.0125 747 
L 1371.825 747 
" style="fill:none;stroke:#000000;stroke-linecap:square;stroke-linejoin:miter;"/>
   </g>
   <g id="patch_6">
    <path d="M 127.0125 747 
L 127.0125 51.3 
" style="fill:none;stroke:#000000;stroke-linecap:square;stroke-linejoin:miter;"/>
   </g>
   <g id="matplotlib.axis_1">
    <g id="xtick_1">
     <g id="line2d_3">
      <defs>
       <path d="M 0 0 
L 0 -4 
" id="ma56e4b65c6" style="stroke:#000000;stroke-width:0.5;"/>
      </defs>
      <g>
       <use style="stroke:#000000;stroke-width:0.5;" x="127.0125" xlink:href="#ma56e4b65c6" y="747.0"/>
      </g>
     </g>
     <g id="line2d_4">
      <defs>
       <path d="M 0 0 
L 0 4 
" id="m55275756da" style="stroke:#000000;stroke-width:0.5;"/>
      </defs>
      <g>
       <use style="stroke:#000000;stroke-width:0.5;" x="127.0125" xlink:href="#m55275756da" y="51.3"/>
      </g>
     </g>
     <g id="text_1">
      <!-- 0 -->
      <defs>
       <path d="M 31.78125 66.40625 
Q 24.171875 66.40625 20.328125 58.90625 
Q 16.5 51.421875 16.5 36.375 
Q 16.5 21.390625 20.328125 13.890625 
Q 24.171875 6.390625 31.78125 6.390625 
Q 39.453125 6.390625 43.28125 13.890625 
Q 47.125 21.390625 47.125 36.375 
Q 47.125 51.421875 43.28125 58.90625 
Q 39.453125 66.40625 31.78125 66.40625 
M 31.78125 74.21875 
Q 44.046875 74.21875 50.515625 64.515625 
Q 56.984375 54.828125 56.984375 36.375 
Q 56.984375 17.96875 50.515625 8.265625 
Q 44.046875 -1.421875 31.78125 -1.421875 
Q 19.53125 -1.421875 13.0625 8.265625 
Q 6.59375 17.96875 6.59375 36.375 
Q 6.59375 54.828125 13.0625 64.515625 
Q 19.53125 74.21875 31.78125 74.21875 
" id="BitstreamVeraSans-Roman-30"/>
      </defs>
      <g transform="translate(117.46875 773.7953125)scale(0.3 -0.3)">
       <use xlink:href="#BitstreamVeraSans-Roman-30"/>
      </g>
     </g>
    </g>
    <g id="xtick_2">
     <g id="line2d_5">
      <g>
       <use style="stroke:#000000;stroke-width:0.5;" x="375.975" xlink:href="#ma56e4b65c6" y="747.0"/>
      </g>
     </g>
     <g id="line2d_6">
      <g>
       <use style="stroke:#000000;stroke-width:0.5;" x="375.975" xlink:href="#m55275756da" y="51.3"/>
      </g>
     </g>
     <g id="text_2">
      <!-- 100 -->
      <defs>
       <path d="M 12.40625 8.296875 
L 28.515625 8.296875 
L 28.515625 63.921875 
L 10.984375 60.40625 
L 10.984375 69.390625 
L 28.421875 72.90625 
L 38.28125 72.90625 
L 38.28125 8.296875 
L 54.390625 8.296875 
L 54.390625 0 
L 12.40625 0 
z
" id="BitstreamVeraSans-Roman-31"/>
      </defs>
      <g transform="translate(347.34375 773.7953125)scale(0.3 -0.3)">
       <use xlink:href="#BitstreamVeraSans-Roman-31"/>
       <use x="63.623046875" xlink:href="#BitstreamVeraSans-Roman-30"/>
       <use x="127.24609375" xlink:href="#BitstreamVeraSans-Roman-30"/>
      </g>
     </g>
    </g>
    <g id="xtick_3">
     <g id="line2d_7">
      <g>
       <use style="stroke:#000000;stroke-width:0.5;" x="624.9375" xlink:href="#ma56e4b65c6" y="747.0"/>
      </g>
     </g>
     <g id="line2d_8">
      <g>
       <use style="stroke:#000000;stroke-width:0.5;" x="624.9375" xlink:href="#m55275756da" y="51.3"/>
      </g>
     </g>
     <g id="text_3">
      <!-- 200 -->
      <defs>
       <path d="M 19.1875 8.296875 
L 53.609375 8.296875 
L 53.609375 0 
L 7.328125 0 
L 7.328125 8.296875 
Q 12.9375 14.109375 22.625 23.890625 
Q 32.328125 33.6875 34.8125 36.53125 
Q 39.546875 41.84375 41.421875 45.53125 
Q 43.3125 49.21875 43.3125 52.78125 
Q 43.3125 58.59375 39.234375 62.25 
Q 35.15625 65.921875 28.609375 65.921875 
Q 23.96875 65.921875 18.8125 64.3125 
Q 13.671875 62.703125 7.8125 59.421875 
L 7.8125 69.390625 
Q 13.765625 71.78125 18.9375 73 
Q 24.125 74.21875 28.421875 74.21875 
Q 39.75 74.21875 46.484375 68.546875 
Q 53.21875 62.890625 53.21875 53.421875 
Q 53.21875 48.921875 51.53125 44.890625 
Q 49.859375 40.875 45.40625 35.40625 
Q 44.1875 33.984375 37.640625 27.21875 
Q 31.109375 20.453125 19.1875 8.296875 
" id="BitstreamVeraSans-Roman-32"/>
      </defs>
      <g transform="translate(596.30625 773.7953125)scale(0.3 -0.3)">
       <use xlink:href="#BitstreamVeraSans-Roman-32"/>
       <use x="63.623046875" xlink:href="#BitstreamVeraSans-Roman-30"/>
       <use x="127.24609375" xlink:href="#BitstreamVeraSans-Roman-30"/>
      </g>
     </g>
    </g>
    <g id="xtick_4">
     <g id="line2d_9">
      <g>
       <use style="stroke:#000000;stroke-width:0.5;" x="873.9" xlink:href="#ma56e4b65c6" y="747.0"/>
      </g>
     </g>
     <g id="line2d_10">
      <g>
       <use style="stroke:#000000;stroke-width:0.5;" x="873.9" xlink:href="#m55275756da" y="51.3"/>
      </g>
     </g>
     <g id="text_4">
      <!-- 300 -->
      <defs>
       <path d="M 40.578125 39.3125 
Q 47.65625 37.796875 51.625 33 
Q 55.609375 28.21875 55.609375 21.1875 
Q 55.609375 10.40625 48.1875 4.484375 
Q 40.765625 -1.421875 27.09375 -1.421875 
Q 22.515625 -1.421875 17.65625 -0.515625 
Q 12.796875 0.390625 7.625 2.203125 
L 7.625 11.71875 
Q 11.71875 9.328125 16.59375 8.109375 
Q 21.484375 6.890625 26.8125 6.890625 
Q 36.078125 6.890625 40.9375 10.546875 
Q 45.796875 14.203125 45.796875 21.1875 
Q 45.796875 27.640625 41.28125 31.265625 
Q 36.765625 34.90625 28.71875 34.90625 
L 20.21875 34.90625 
L 20.21875 43.015625 
L 29.109375 43.015625 
Q 36.375 43.015625 40.234375 45.921875 
Q 44.09375 48.828125 44.09375 54.296875 
Q 44.09375 59.90625 40.109375 62.90625 
Q 36.140625 65.921875 28.71875 65.921875 
Q 24.65625 65.921875 20.015625 65.03125 
Q 15.375 64.15625 9.8125 62.3125 
L 9.8125 71.09375 
Q 15.4375 72.65625 20.34375 73.4375 
Q 25.25 74.21875 29.59375 74.21875 
Q 40.828125 74.21875 47.359375 69.109375 
Q 53.90625 64.015625 53.90625 55.328125 
Q 53.90625 49.265625 50.4375 45.09375 
Q 46.96875 40.921875 40.578125 39.3125 
" id="BitstreamVeraSans-Roman-33"/>
      </defs>
      <g transform="translate(845.26875 773.7953125)scale(0.3 -0.3)">
       <use xlink:href="#BitstreamVeraSans-Roman-33"/>
       <use x="63.623046875" xlink:href="#BitstreamVeraSans-Roman-30"/>
       <use x="127.24609375" xlink:href="#BitstreamVeraSans-Roman-30"/>
      </g>
     </g>
    </g>
    <g id="xtick_5">
     <g id="line2d_11">
      <g>
       <use style="stroke:#000000;stroke-width:0.5;" x="1122.8625" xlink:href="#ma56e4b65c6" y="747.0"/>
      </g>
     </g>
     <g id="line2d_12">
      <g>
       <use style="stroke:#000000;stroke-width:0.5;" x="1122.8625" xlink:href="#m55275756da" y="51.3"/>
      </g>
     </g>
     <g id="text_5">
      <!-- 400 -->
      <defs>
       <path d="M 37.796875 64.3125 
L 12.890625 25.390625 
L 37.796875 25.390625 
z
M 35.203125 72.90625 
L 47.609375 72.90625 
L 47.609375 25.390625 
L 58.015625 25.390625 
L 58.015625 17.1875 
L 47.609375 17.1875 
L 47.609375 0 
L 37.796875 0 
L 37.796875 17.1875 
L 4.890625 17.1875 
L 4.890625 26.703125 
z
" id="BitstreamVeraSans-Roman-34"/>
      </defs>
      <g transform="translate(1094.23125 773.7953125)scale(0.3 -0.3)">
       <use xlink:href="#BitstreamVeraSans-Roman-34"/>
       <use x="63.623046875" xlink:href="#BitstreamVeraSans-Roman-30"/>
       <use x="127.24609375" xlink:href="#BitstreamVeraSans-Roman-30"/>
      </g>
     </g>
    </g>
    <g id="xtick_6">
     <g id="line2d_13">
      <g>
       <use style="stroke:#000000;stroke-width:0.5;" x="1371.825" xlink:href="#ma56e4b65c6" y="747.0"/>
      </g>
     </g>
     <g id="line2d_14">
      <g>
       <use style="stroke:#000000;stroke-width:0.5;" x="1371.825" xlink:href="#m55275756da" y="51.3"/>
      </g>
     </g>
     <g id="text_6">
      <!-- 500 -->
      <defs>
       <path d="M 10.796875 72.90625 
L 49.515625 72.90625 
L 49.515625 64.59375 
L 19.828125 64.59375 
L 19.828125 46.734375 
Q 21.96875 47.46875 24.109375 47.828125 
Q 26.265625 48.1875 28.421875 48.1875 
Q 40.625 48.1875 47.75 41.5 
Q 54.890625 34.8125 54.890625 23.390625 
Q 54.890625 11.625 47.5625 5.09375 
Q 40.234375 -1.421875 26.90625 -1.421875 
Q 22.3125 -1.421875 17.546875 -0.640625 
Q 12.796875 0.140625 7.71875 1.703125 
L 7.71875 11.625 
Q 12.109375 9.234375 16.796875 8.0625 
Q 21.484375 6.890625 26.703125 6.890625 
Q 35.15625 6.890625 40.078125 11.328125 
Q 45.015625 15.765625 45.015625 23.390625 
Q 45.015625 31 40.078125 35.4375 
Q 35.15625 39.890625 26.703125 39.890625 
Q 22.75 39.890625 18.8125 39.015625 
Q 14.890625 38.140625 10.796875 36.28125 
z
" id="BitstreamVeraSans-Roman-35"/>
      </defs>
      <g transform="translate(1343.19375 773.7953125)scale(0.3 -0.3)">
       <use xlink:href="#BitstreamVeraSans-Roman-35"/>
       <use x="63.623046875" xlink:href="#BitstreamVeraSans-Roman-30"/>
       <use x="127.24609375" xlink:href="#BitstreamVeraSans-Roman-30"/>
      </g>
     </g>
    </g>
    <g id="text_7">
     <!-- iterations -->
     <defs>
      <path d="M 54.890625 33.015625 
L 54.890625 0 
L 45.90625 0 
L 45.90625 32.71875 
Q 45.90625 40.484375 42.875 44.328125 
Q 39.84375 48.1875 33.796875 48.1875 
Q 26.515625 48.1875 22.3125 43.546875 
Q 18.109375 38.921875 18.109375 30.90625 
L 18.109375 0 
L 9.078125 0 
L 9.078125 54.6875 
L 18.109375 54.6875 
L 18.109375 46.1875 
Q 21.34375 51.125 25.703125 53.5625 
Q 30.078125 56 35.796875 56 
Q 45.21875 56 50.046875 50.171875 
Q 54.890625 44.34375 54.890625 33.015625 
" id="BitstreamVeraSans-Roman-6e"/>
      <path d="M 34.28125 27.484375 
Q 23.390625 27.484375 19.1875 25 
Q 14.984375 22.515625 14.984375 16.5 
Q 14.984375 11.71875 18.140625 8.90625 
Q 21.296875 6.109375 26.703125 6.109375 
Q 34.1875 6.109375 38.703125 11.40625 
Q 43.21875 16.703125 43.21875 25.484375 
L 43.21875 27.484375 
z
M 52.203125 31.203125 
L 52.203125 0 
L 43.21875 0 
L 43.21875 8.296875 
Q 40.140625 3.328125 35.546875 0.953125 
Q 30.953125 -1.421875 24.3125 -1.421875 
Q 15.921875 -1.421875 10.953125 3.296875 
Q 6 8.015625 6 15.921875 
Q 6 25.140625 12.171875 29.828125 
Q 18.359375 34.515625 30.609375 34.515625 
L 43.21875 34.515625 
L 43.21875 35.40625 
Q 43.21875 41.609375 39.140625 45 
Q 35.0625 48.390625 27.6875 48.390625 
Q 23 48.390625 18.546875 47.265625 
Q 14.109375 46.140625 10.015625 43.890625 
L 10.015625 52.203125 
Q 14.9375 54.109375 19.578125 55.046875 
Q 24.21875 56 28.609375 56 
Q 40.484375 56 46.34375 49.84375 
Q 52.203125 43.703125 52.203125 31.203125 
" id="BitstreamVeraSans-Roman-61"/>
      <path d="M 30.609375 48.390625 
Q 23.390625 48.390625 19.1875 42.75 
Q 14.984375 37.109375 14.984375 27.296875 
Q 14.984375 17.484375 19.15625 11.84375 
Q 23.34375 6.203125 30.609375 6.203125 
Q 37.796875 6.203125 41.984375 11.859375 
Q 46.1875 17.53125 46.1875 27.296875 
Q 46.1875 37.015625 41.984375 42.703125 
Q 37.796875 48.390625 30.609375 48.390625 
M 30.609375 56 
Q 42.328125 56 49.015625 48.375 
Q 55.71875 40.765625 55.71875 27.296875 
Q 55.71875 13.875 49.015625 6.21875 
Q 42.328125 -1.421875 30.609375 -1.421875 
Q 18.84375 -1.421875 12.171875 6.21875 
Q 5.515625 13.875 5.515625 27.296875 
Q 5.515625 40.765625 12.171875 48.375 
Q 18.84375 56 30.609375 56 
" id="BitstreamVeraSans-Roman-6f"/>
      <path d="M 9.421875 54.6875 
L 18.40625 54.6875 
L 18.40625 0 
L 9.421875 0 
z
M 9.421875 75.984375 
L 18.40625 75.984375 
L 18.40625 64.59375 
L 9.421875 64.59375 
z
" id="BitstreamVeraSans-Roman-69"/>
      <path d="M 56.203125 29.59375 
L 56.203125 25.203125 
L 14.890625 25.203125 
Q 15.484375 15.921875 20.484375 11.0625 
Q 25.484375 6.203125 34.421875 6.203125 
Q 39.59375 6.203125 44.453125 7.46875 
Q 49.3125 8.734375 54.109375 11.28125 
L 54.109375 2.78125 
Q 49.265625 0.734375 44.1875 -0.34375 
Q 39.109375 -1.421875 33.890625 -1.421875 
Q 20.796875 -1.421875 13.15625 6.1875 
Q 5.515625 13.8125 5.515625 26.8125 
Q 5.515625 40.234375 12.765625 48.109375 
Q 20.015625 56 32.328125 56 
Q 43.359375 56 49.78125 48.890625 
Q 56.203125 41.796875 56.203125 29.59375 
M 47.21875 32.234375 
Q 47.125 39.59375 43.09375 43.984375 
Q 39.0625 48.390625 32.421875 48.390625 
Q 24.90625 48.390625 20.390625 44.140625 
Q 15.875 39.890625 15.1875 32.171875 
z
" id="BitstreamVeraSans-Roman-65"/>
      <path d="M 18.3125 70.21875 
L 18.3125 54.6875 
L 36.8125 54.6875 
L 36.8125 47.703125 
L 18.3125 47.703125 
L 18.3125 18.015625 
Q 18.3125 11.328125 20.140625 9.421875 
Q 21.96875 7.515625 27.59375 7.515625 
L 36.8125 7.515625 
L 36.8125 0 
L 27.59375 0 
Q 17.1875 0 13.234375 3.875 
Q 9.28125 7.765625 9.28125 18.015625 
L 9.28125 47.703125 
L 2.6875 47.703125 
L 2.6875 54.6875 
L 9.28125 54.6875 
L 9.28125 70.21875 
z
" id="BitstreamVeraSans-Roman-74"/>
      <path d="M 41.109375 46.296875 
Q 39.59375 47.171875 37.8125 47.578125 
Q 36.03125 48 33.890625 48 
Q 26.265625 48 22.1875 43.046875 
Q 18.109375 38.09375 18.109375 28.8125 
L 18.109375 0 
L 9.078125 0 
L 9.078125 54.6875 
L 18.109375 54.6875 
L 18.109375 46.1875 
Q 20.953125 51.171875 25.484375 53.578125 
Q 30.03125 56 36.53125 56 
Q 37.453125 56 38.578125 55.875 
Q 39.703125 55.765625 41.0625 55.515625 
z
" id="BitstreamVeraSans-Roman-72"/>
      <path d="M 44.28125 53.078125 
L 44.28125 44.578125 
Q 40.484375 46.53125 36.375 47.5 
Q 32.28125 48.484375 27.875 48.484375 
Q 21.1875 48.484375 17.84375 46.4375 
Q 14.5 44.390625 14.5 40.28125 
Q 14.5 37.15625 16.890625 35.375 
Q 19.28125 33.59375 26.515625 31.984375 
L 29.59375 31.296875 
Q 39.15625 29.25 43.1875 25.515625 
Q 47.21875 21.78125 47.21875 15.09375 
Q 47.21875 7.46875 41.1875 3.015625 
Q 35.15625 -1.421875 24.609375 -1.421875 
Q 20.21875 -1.421875 15.453125 -0.5625 
Q 10.6875 0.296875 5.421875 2 
L 5.421875 11.28125 
Q 10.40625 8.6875 15.234375 7.390625 
Q 20.0625 6.109375 24.8125 6.109375 
Q 31.15625 6.109375 34.5625 8.28125 
Q 37.984375 10.453125 37.984375 14.40625 
Q 37.984375 18.0625 35.515625 20.015625 
Q 33.0625 21.96875 24.703125 23.78125 
L 21.578125 24.515625 
Q 13.234375 26.265625 9.515625 29.90625 
Q 5.8125 33.546875 5.8125 39.890625 
Q 5.8125 47.609375 11.28125 51.796875 
Q 16.75 56 26.8125 56 
Q 31.78125 56 36.171875 55.265625 
Q 40.578125 54.546875 44.28125 53.078125 
" id="BitstreamVeraSans-Roman-73"/>
     </defs>
     <g transform="translate(678.23671875 807.8296875)scale(0.3 -0.3)">
      <use xlink:href="#BitstreamVeraSans-Roman-69"/>
      <use x="27.783203125" xlink:href="#BitstreamVeraSans-Roman-74"/>
      <use x="66.9921875" xlink:href="#BitstreamVeraSans-Roman-65"/>
      <use x="128.515625" xlink:href="#BitstreamVeraSans-Roman-72"/>
      <use x="169.62890625" xlink:href="#BitstreamVeraSans-Roman-61"/>
      <use x="230.908203125" xlink:href="#BitstreamVeraSans-Roman-74"/>
      <use x="270.1171875" xlink:href="#BitstreamVeraSans-Roman-69"/>
      <use x="297.900390625" xlink:href="#BitstreamVeraSans-Roman-6f"/>
      <use x="359.08203125" xlink:href="#BitstreamVeraSans-Roman-6e"/>
      <use x="422.4609375" xlink:href="#BitstreamVeraSans-Roman-73"/>
     </g>
    </g>
   </g>
   <g id="matplotlib.axis_2">
    <g id="ytick_1">
     <g id="line2d_15">
      <defs>
       <path d="M 0 0 
L 4 0 
" id="m4284d5c2e4" style="stroke:#000000;stroke-width:0.5;"/>
      </defs>
      <g>
       <use style="stroke:#000000;stroke-width:0.5;" x="127.0125" xlink:href="#m4284d5c2e4" y="747.0"/>
      </g>
     </g>
     <g id="line2d_16">
      <defs>
       <path d="M 0 0 
L -4 0 
" id="mdbda129645" style="stroke:#000000;stroke-width:0.5;"/>
      </defs>
      <g>
       <use style="stroke:#000000;stroke-width:0.5;" x="1371.825" xlink:href="#mdbda129645" y="747.0"/>
      </g>
     </g>
     <g id="text_8">
      <!-- 7 -->
      <defs>
       <path d="M 8.203125 72.90625 
L 55.078125 72.90625 
L 55.078125 68.703125 
L 28.609375 0 
L 18.3125 0 
L 43.21875 64.59375 
L 8.203125 64.59375 
z
" id="BitstreamVeraSans-Roman-37"/>
      </defs>
      <g transform="translate(103.925 755.278125)scale(0.3 -0.3)">
       <use xlink:href="#BitstreamVeraSans-Roman-37"/>
      </g>
     </g>
    </g>
    <g id="ytick_2">
     <g id="line2d_17">
      <g>
       <use style="stroke:#000000;stroke-width:0.5;" x="127.0125" xlink:href="#m4284d5c2e4" y="660.0375"/>
      </g>
     </g>
     <g id="line2d_18">
      <g>
       <use style="stroke:#000000;stroke-width:0.5;" x="1371.825" xlink:href="#mdbda129645" y="660.0375"/>
      </g>
     </g>
     <g id="text_9">
      <!-- 8 -->
      <defs>
       <path d="M 31.78125 34.625 
Q 24.75 34.625 20.71875 30.859375 
Q 16.703125 27.09375 16.703125 20.515625 
Q 16.703125 13.921875 20.71875 10.15625 
Q 24.75 6.390625 31.78125 6.390625 
Q 38.8125 6.390625 42.859375 10.171875 
Q 46.921875 13.96875 46.921875 20.515625 
Q 46.921875 27.09375 42.890625 30.859375 
Q 38.875 34.625 31.78125 34.625 
M 21.921875 38.8125 
Q 15.578125 40.375 12.03125 44.71875 
Q 8.5 49.078125 8.5 55.328125 
Q 8.5 64.0625 14.71875 69.140625 
Q 20.953125 74.21875 31.78125 74.21875 
Q 42.671875 74.21875 48.875 69.140625 
Q 55.078125 64.0625 55.078125 55.328125 
Q 55.078125 49.078125 51.53125 44.71875 
Q 48 40.375 41.703125 38.8125 
Q 48.828125 37.15625 52.796875 32.3125 
Q 56.78125 27.484375 56.78125 20.515625 
Q 56.78125 9.90625 50.3125 4.234375 
Q 43.84375 -1.421875 31.78125 -1.421875 
Q 19.734375 -1.421875 13.25 4.234375 
Q 6.78125 9.90625 6.78125 20.515625 
Q 6.78125 27.484375 10.78125 32.3125 
Q 14.796875 37.15625 21.921875 38.8125 
M 18.3125 54.390625 
Q 18.3125 48.734375 21.84375 45.5625 
Q 25.390625 42.390625 31.78125 42.390625 
Q 38.140625 42.390625 41.71875 45.5625 
Q 45.3125 48.734375 45.3125 54.390625 
Q 45.3125 60.0625 41.71875 63.234375 
Q 38.140625 66.40625 31.78125 66.40625 
Q 25.390625 66.40625 21.84375 63.234375 
Q 18.3125 60.0625 18.3125 54.390625 
" id="BitstreamVeraSans-Roman-38"/>
      </defs>
      <g transform="translate(103.925 668.315625)scale(0.3 -0.3)">
       <use xlink:href="#BitstreamVeraSans-Roman-38"/>
      </g>
     </g>
    </g>
    <g id="ytick_3">
     <g id="line2d_19">
      <g>
       <use style="stroke:#000000;stroke-width:0.5;" x="127.0125" xlink:href="#m4284d5c2e4" y="573.075"/>
      </g>
     </g>
     <g id="line2d_20">
      <g>
       <use style="stroke:#000000;stroke-width:0.5;" x="1371.825" xlink:href="#mdbda129645" y="573.075"/>
      </g>
     </g>
     <g id="text_10">
      <!-- 9 -->
      <defs>
       <path d="M 10.984375 1.515625 
L 10.984375 10.5 
Q 14.703125 8.734375 18.5 7.8125 
Q 22.3125 6.890625 25.984375 6.890625 
Q 35.75 6.890625 40.890625 13.453125 
Q 46.046875 20.015625 46.78125 33.40625 
Q 43.953125 29.203125 39.59375 26.953125 
Q 35.25 24.703125 29.984375 24.703125 
Q 19.046875 24.703125 12.671875 31.3125 
Q 6.296875 37.9375 6.296875 49.421875 
Q 6.296875 60.640625 12.9375 67.421875 
Q 19.578125 74.21875 30.609375 74.21875 
Q 43.265625 74.21875 49.921875 64.515625 
Q 56.59375 54.828125 56.59375 36.375 
Q 56.59375 19.140625 48.40625 8.859375 
Q 40.234375 -1.421875 26.421875 -1.421875 
Q 22.703125 -1.421875 18.890625 -0.6875 
Q 15.09375 0.046875 10.984375 1.515625 
M 30.609375 32.421875 
Q 37.25 32.421875 41.125 36.953125 
Q 45.015625 41.5 45.015625 49.421875 
Q 45.015625 57.28125 41.125 61.84375 
Q 37.25 66.40625 30.609375 66.40625 
Q 23.96875 66.40625 20.09375 61.84375 
Q 16.21875 57.28125 16.21875 49.421875 
Q 16.21875 41.5 20.09375 36.953125 
Q 23.96875 32.421875 30.609375 32.421875 
" id="BitstreamVeraSans-Roman-39"/>
      </defs>
      <g transform="translate(103.925 581.353125)scale(0.3 -0.3)">
       <use xlink:href="#BitstreamVeraSans-Roman-39"/>
      </g>
     </g>
    </g>
    <g id="ytick_4">
     <g id="line2d_21">
      <g>
       <use style="stroke:#000000;stroke-width:0.5;" x="127.0125" xlink:href="#m4284d5c2e4" y="486.1125"/>
      </g>
     </g>
     <g id="line2d_22">
      <g>
       <use style="stroke:#000000;stroke-width:0.5;" x="1371.825" xlink:href="#mdbda129645" y="486.1125"/>
      </g>
     </g>
     <g id="text_11">
      <!-- 10 -->
      <g transform="translate(84.8375 494.390625)scale(0.3 -0.3)">
       <use xlink:href="#BitstreamVeraSans-Roman-31"/>
       <use x="63.623046875" xlink:href="#BitstreamVeraSans-Roman-30"/>
      </g>
     </g>
    </g>
    <g id="ytick_5">
     <g id="line2d_23">
      <g>
       <use style="stroke:#000000;stroke-width:0.5;" x="127.0125" xlink:href="#m4284d5c2e4" y="399.15"/>
      </g>
     </g>
     <g id="line2d_24">
      <g>
       <use style="stroke:#000000;stroke-width:0.5;" x="1371.825" xlink:href="#mdbda129645" y="399.15"/>
      </g>
     </g>
     <g id="text_12">
      <!-- 11 -->
      <g transform="translate(84.8375 407.428125)scale(0.3 -0.3)">
       <use xlink:href="#BitstreamVeraSans-Roman-31"/>
       <use x="63.623046875" xlink:href="#BitstreamVeraSans-Roman-31"/>
      </g>
     </g>
    </g>
    <g id="ytick_6">
     <g id="line2d_25">
      <g>
       <use style="stroke:#000000;stroke-width:0.5;" x="127.0125" xlink:href="#m4284d5c2e4" y="312.1875"/>
      </g>
     </g>
     <g id="line2d_26">
      <g>
       <use style="stroke:#000000;stroke-width:0.5;" x="1371.825" xlink:href="#mdbda129645" y="312.1875"/>
      </g>
     </g>
     <g id="text_13">
      <!-- 12 -->
      <g transform="translate(84.8375 320.465625)scale(0.3 -0.3)">
       <use xlink:href="#BitstreamVeraSans-Roman-31"/>
       <use x="63.623046875" xlink:href="#BitstreamVeraSans-Roman-32"/>
      </g>
     </g>
    </g>
    <g id="ytick_7">
     <g id="line2d_27">
      <g>
       <use style="stroke:#000000;stroke-width:0.5;" x="127.0125" xlink:href="#m4284d5c2e4" y="225.225"/>
      </g>
     </g>
     <g id="line2d_28">
      <g>
       <use style="stroke:#000000;stroke-width:0.5;" x="1371.825" xlink:href="#mdbda129645" y="225.225"/>
      </g>
     </g>
     <g id="text_14">
      <!-- 13 -->
      <g transform="translate(84.8375 233.503125)scale(0.3 -0.3)">
       <use xlink:href="#BitstreamVeraSans-Roman-31"/>
       <use x="63.623046875" xlink:href="#BitstreamVeraSans-Roman-33"/>
      </g>
     </g>
    </g>
    <g id="ytick_8">
     <g id="line2d_29">
      <g>
       <use style="stroke:#000000;stroke-width:0.5;" x="127.0125" xlink:href="#m4284d5c2e4" y="138.2625"/>
      </g>
     </g>
     <g id="line2d_30">
      <g>
       <use style="stroke:#000000;stroke-width:0.5;" x="1371.825" xlink:href="#mdbda129645" y="138.2625"/>
      </g>
     </g>
     <g id="text_15">
      <!-- 14 -->
      <g transform="translate(84.8375 146.540625)scale(0.3 -0.3)">
       <use xlink:href="#BitstreamVeraSans-Roman-31"/>
       <use x="63.623046875" xlink:href="#BitstreamVeraSans-Roman-34"/>
      </g>
     </g>
    </g>
    <g id="ytick_9">
     <g id="line2d_31">
      <g>
       <use style="stroke:#000000;stroke-width:0.5;" x="127.0125" xlink:href="#m4284d5c2e4" y="51.3"/>
      </g>
     </g>
     <g id="line2d_32">
      <g>
       <use style="stroke:#000000;stroke-width:0.5;" x="1371.825" xlink:href="#mdbda129645" y="51.3"/>
      </g>
     </g>
     <g id="text_16">
      <!-- 15 -->
      <g transform="translate(84.8375 59.578125)scale(0.3 -0.3)">
       <use xlink:href="#BitstreamVeraSans-Roman-31"/>
       <use x="63.623046875" xlink:href="#BitstreamVeraSans-Roman-35"/>
      </g>
     </g>
    </g>
    <g id="text_17">
     <!-- log(loss) -->
     <defs>
      <path d="M 8.015625 75.875 
L 15.828125 75.875 
Q 23.140625 64.359375 26.78125 53.3125 
Q 30.421875 42.28125 30.421875 31.390625 
Q 30.421875 20.453125 26.78125 9.375 
Q 23.140625 -1.703125 15.828125 -13.1875 
L 8.015625 -13.1875 
Q 14.5 -2 17.703125 9.0625 
Q 20.90625 20.125 20.90625 31.390625 
Q 20.90625 42.671875 17.703125 53.65625 
Q 14.5 64.65625 8.015625 75.875 
" id="BitstreamVeraSans-Roman-29"/>
      <path d="M 31 75.875 
Q 24.46875 64.65625 21.28125 53.65625 
Q 18.109375 42.671875 18.109375 31.390625 
Q 18.109375 20.125 21.3125 9.0625 
Q 24.515625 -2 31 -13.1875 
L 23.1875 -13.1875 
Q 15.875 -1.703125 12.234375 9.375 
Q 8.59375 20.453125 8.59375 31.390625 
Q 8.59375 42.28125 12.203125 53.3125 
Q 15.828125 64.359375 23.1875 75.875 
z
" id="BitstreamVeraSans-Roman-28"/>
      <path d="M 45.40625 27.984375 
Q 45.40625 37.75 41.375 43.109375 
Q 37.359375 48.484375 30.078125 48.484375 
Q 22.859375 48.484375 18.828125 43.109375 
Q 14.796875 37.75 14.796875 27.984375 
Q 14.796875 18.265625 18.828125 12.890625 
Q 22.859375 7.515625 30.078125 7.515625 
Q 37.359375 7.515625 41.375 12.890625 
Q 45.40625 18.265625 45.40625 27.984375 
M 54.390625 6.78125 
Q 54.390625 -7.171875 48.1875 -13.984375 
Q 42 -20.796875 29.203125 -20.796875 
Q 24.46875 -20.796875 20.265625 -20.09375 
Q 16.0625 -19.390625 12.109375 -17.921875 
L 12.109375 -9.1875 
Q 16.0625 -11.328125 19.921875 -12.34375 
Q 23.78125 -13.375 27.78125 -13.375 
Q 36.625 -13.375 41.015625 -8.765625 
Q 45.40625 -4.15625 45.40625 5.171875 
L 45.40625 9.625 
Q 42.625 4.78125 38.28125 2.390625 
Q 33.9375 0 27.875 0 
Q 17.828125 0 11.671875 7.65625 
Q 5.515625 15.328125 5.515625 27.984375 
Q 5.515625 40.671875 11.671875 48.328125 
Q 17.828125 56 27.875 56 
Q 33.9375 56 38.28125 53.609375 
Q 42.625 51.21875 45.40625 46.390625 
L 45.40625 54.6875 
L 54.390625 54.6875 
z
" id="BitstreamVeraSans-Roman-67"/>
      <path d="M 9.421875 75.984375 
L 18.40625 75.984375 
L 18.40625 0 
L 9.421875 0 
z
" id="BitstreamVeraSans-Roman-6c"/>
     </defs>
     <g transform="translate(73.5984375 462.69609375)rotate(-90.0)scale(0.3 -0.3)">
      <use xlink:href="#BitstreamVeraSans-Roman-6c"/>
      <use x="27.783203125" xlink:href="#BitstreamVeraSans-Roman-6f"/>
      <use x="88.96484375" xlink:href="#BitstreamVeraSans-Roman-67"/>
      <use x="152.44140625" xlink:href="#BitstreamVeraSans-Roman-28"/>
      <use x="191.455078125" xlink:href="#BitstreamVeraSans-Roman-6c"/>
      <use x="219.23828125" xlink:href="#BitstreamVeraSans-Roman-6f"/>
      <use x="280.419921875" xlink:href="#BitstreamVeraSans-Roman-73"/>
      <use x="332.51953125" xlink:href="#BitstreamVeraSans-Roman-73"/>
      <use x="384.619140625" xlink:href="#BitstreamVeraSans-Roman-29"/>
     </g>
    </g>
   </g>
   <g id="legend_1">
    <g id="patch_7">
     <path d="M 879.651563 163.36875 
L 1356.825 163.36875 
L 1356.825 66.3 
L 879.651563 66.3 
z
" style="fill:#ffffff;stroke:#000000;stroke-linejoin:miter;"/>
    </g>
    <g id="line2d_33">
     <path d="M 900.651563 90.595312 
L 942.651563 90.595312 
" style="fill:none;stroke:#0000ff;stroke-linecap:square;stroke-width:2.0;"/>
    </g>
    <g id="line2d_34"/>
    <g id="text_18">
     <!-- random: step=0.001231 -->
     <defs>
      <path id="BitstreamVeraSans-Roman-20"/>
      <path d="M 52 44.1875 
Q 55.375 50.25 60.0625 53.125 
Q 64.75 56 71.09375 56 
Q 79.640625 56 84.28125 50.015625 
Q 88.921875 44.046875 88.921875 33.015625 
L 88.921875 0 
L 79.890625 0 
L 79.890625 32.71875 
Q 79.890625 40.578125 77.09375 44.375 
Q 74.3125 48.1875 68.609375 48.1875 
Q 61.625 48.1875 57.5625 43.546875 
Q 53.515625 38.921875 53.515625 30.90625 
L 53.515625 0 
L 44.484375 0 
L 44.484375 32.71875 
Q 44.484375 40.625 41.703125 44.40625 
Q 38.921875 48.1875 33.109375 48.1875 
Q 26.21875 48.1875 22.15625 43.53125 
Q 18.109375 38.875 18.109375 30.90625 
L 18.109375 0 
L 9.078125 0 
L 9.078125 54.6875 
L 18.109375 54.6875 
L 18.109375 46.1875 
Q 21.1875 51.21875 25.484375 53.609375 
Q 29.78125 56 35.6875 56 
Q 41.65625 56 45.828125 52.96875 
Q 50 49.953125 52 44.1875 
" id="BitstreamVeraSans-Roman-6d"/>
      <path d="M 11.71875 12.40625 
L 22.015625 12.40625 
L 22.015625 0 
L 11.71875 0 
z
M 11.71875 51.703125 
L 22.015625 51.703125 
L 22.015625 39.3125 
L 11.71875 39.3125 
z
" id="BitstreamVeraSans-Roman-3a"/>
      <path d="M 10.6875 12.40625 
L 21 12.40625 
L 21 0 
L 10.6875 0 
z
" id="BitstreamVeraSans-Roman-2e"/>
      <path d="M 10.59375 45.40625 
L 73.1875 45.40625 
L 73.1875 37.203125 
L 10.59375 37.203125 
z
M 10.59375 25.484375 
L 73.1875 25.484375 
L 73.1875 17.1875 
L 10.59375 17.1875 
z
" id="BitstreamVeraSans-Roman-3d"/>
      <path d="M 45.40625 46.390625 
L 45.40625 75.984375 
L 54.390625 75.984375 
L 54.390625 0 
L 45.40625 0 
L 45.40625 8.203125 
Q 42.578125 3.328125 38.25 0.953125 
Q 33.9375 -1.421875 27.875 -1.421875 
Q 17.96875 -1.421875 11.734375 6.484375 
Q 5.515625 14.40625 5.515625 27.296875 
Q 5.515625 40.1875 11.734375 48.09375 
Q 17.96875 56 27.875 56 
Q 33.9375 56 38.25 53.625 
Q 42.578125 51.265625 45.40625 46.390625 
M 14.796875 27.296875 
Q 14.796875 17.390625 18.875 11.75 
Q 22.953125 6.109375 30.078125 6.109375 
Q 37.203125 6.109375 41.296875 11.75 
Q 45.40625 17.390625 45.40625 27.296875 
Q 45.40625 37.203125 41.296875 42.84375 
Q 37.203125 48.484375 30.078125 48.484375 
Q 22.953125 48.484375 18.875 42.84375 
Q 14.796875 37.203125 14.796875 27.296875 
" id="BitstreamVeraSans-Roman-64"/>
      <path d="M 18.109375 8.203125 
L 18.109375 -20.796875 
L 9.078125 -20.796875 
L 9.078125 54.6875 
L 18.109375 54.6875 
L 18.109375 46.390625 
Q 20.953125 51.265625 25.265625 53.625 
Q 29.59375 56 35.59375 56 
Q 45.5625 56 51.78125 48.09375 
Q 58.015625 40.1875 58.015625 27.296875 
Q 58.015625 14.40625 51.78125 6.484375 
Q 45.5625 -1.421875 35.59375 -1.421875 
Q 29.59375 -1.421875 25.265625 0.953125 
Q 20.953125 3.328125 18.109375 8.203125 
M 48.6875 27.296875 
Q 48.6875 37.203125 44.609375 42.84375 
Q 40.53125 48.484375 33.40625 48.484375 
Q 26.265625 48.484375 22.1875 42.84375 
Q 18.109375 37.203125 18.109375 27.296875 
Q 18.109375 17.390625 22.1875 11.75 
Q 26.265625 6.109375 33.40625 6.109375 
Q 40.53125 6.109375 44.609375 11.75 
Q 48.6875 17.390625 48.6875 27.296875 
" id="BitstreamVeraSans-Roman-70"/>
     </defs>
     <g transform="translate(975.6515625 101.0953125)scale(0.3 -0.3)">
      <use xlink:href="#BitstreamVeraSans-Roman-72"/>
      <use x="41.11328125" xlink:href="#BitstreamVeraSans-Roman-61"/>
      <use x="102.392578125" xlink:href="#BitstreamVeraSans-Roman-6e"/>
      <use x="165.771484375" xlink:href="#BitstreamVeraSans-Roman-64"/>
      <use x="229.248046875" xlink:href="#BitstreamVeraSans-Roman-6f"/>
      <use x="290.4296875" xlink:href="#BitstreamVeraSans-Roman-6d"/>
      <use x="387.841796875" xlink:href="#BitstreamVeraSans-Roman-3a"/>
      <use x="421.533203125" xlink:href="#BitstreamVeraSans-Roman-20"/>
      <use x="453.3203125" xlink:href="#BitstreamVeraSans-Roman-73"/>
      <use x="505.419921875" xlink:href="#BitstreamVeraSans-Roman-74"/>
      <use x="544.62890625" xlink:href="#BitstreamVeraSans-Roman-65"/>
      <use x="606.15234375" xlink:href="#BitstreamVeraSans-Roman-70"/>
      <use x="669.62890625" xlink:href="#BitstreamVeraSans-Roman-3d"/>
      <use x="753.41796875" xlink:href="#BitstreamVeraSans-Roman-30"/>
      <use x="817.041015625" xlink:href="#BitstreamVeraSans-Roman-2e"/>
      <use x="848.828125" xlink:href="#BitstreamVeraSans-Roman-30"/>
      <use x="912.451171875" xlink:href="#BitstreamVeraSans-Roman-30"/>
      <use x="976.07421875" xlink:href="#BitstreamVeraSans-Roman-31"/>
      <use x="1039.69726562" xlink:href="#BitstreamVeraSans-Roman-32"/>
      <use x="1103.3203125" xlink:href="#BitstreamVeraSans-Roman-33"/>
      <use x="1166.94335938" xlink:href="#BitstreamVeraSans-Roman-31"/>
     </g>
    </g>
    <g id="line2d_35">
     <path d="M 900.651563 134.629687 
L 942.651563 134.629687 
" style="fill:none;stroke:#008000;stroke-linecap:square;stroke-width:2.0;"/>
    </g>
    <g id="line2d_36"/>
    <g id="text_19">
     <!-- corr: step=0.001231 -->
     <defs>
      <path d="M 48.78125 52.59375 
L 48.78125 44.1875 
Q 44.96875 46.296875 41.140625 47.34375 
Q 37.3125 48.390625 33.40625 48.390625 
Q 24.65625 48.390625 19.8125 42.84375 
Q 14.984375 37.3125 14.984375 27.296875 
Q 14.984375 17.28125 19.8125 11.734375 
Q 24.65625 6.203125 33.40625 6.203125 
Q 37.3125 6.203125 41.140625 7.25 
Q 44.96875 8.296875 48.78125 10.40625 
L 48.78125 2.09375 
Q 45.015625 0.34375 40.984375 -0.53125 
Q 36.96875 -1.421875 32.421875 -1.421875 
Q 20.0625 -1.421875 12.78125 6.34375 
Q 5.515625 14.109375 5.515625 27.296875 
Q 5.515625 40.671875 12.859375 48.328125 
Q 20.21875 56 33.015625 56 
Q 37.15625 56 41.109375 55.140625 
Q 45.0625 54.296875 48.78125 52.59375 
" id="BitstreamVeraSans-Roman-63"/>
     </defs>
     <g transform="translate(975.6515625 145.1296875)scale(0.3 -0.3)">
      <use xlink:href="#BitstreamVeraSans-Roman-63"/>
      <use x="54.98046875" xlink:href="#BitstreamVeraSans-Roman-6f"/>
      <use x="116.162109375" xlink:href="#BitstreamVeraSans-Roman-72"/>
      <use x="157.259765625" xlink:href="#BitstreamVeraSans-Roman-72"/>
      <use x="198.357421875" xlink:href="#BitstreamVeraSans-Roman-3a"/>
      <use x="232.048828125" xlink:href="#BitstreamVeraSans-Roman-20"/>
      <use x="263.8359375" xlink:href="#BitstreamVeraSans-Roman-73"/>
      <use x="315.935546875" xlink:href="#BitstreamVeraSans-Roman-74"/>
      <use x="355.14453125" xlink:href="#BitstreamVeraSans-Roman-65"/>
      <use x="416.66796875" xlink:href="#BitstreamVeraSans-Roman-70"/>
      <use x="480.14453125" xlink:href="#BitstreamVeraSans-Roman-3d"/>
      <use x="563.93359375" xlink:href="#BitstreamVeraSans-Roman-30"/>
      <use x="627.556640625" xlink:href="#BitstreamVeraSans-Roman-2e"/>
      <use x="659.34375" xlink:href="#BitstreamVeraSans-Roman-30"/>
      <use x="722.966796875" xlink:href="#BitstreamVeraSans-Roman-30"/>
      <use x="786.58984375" xlink:href="#BitstreamVeraSans-Roman-31"/>
      <use x="850.212890625" xlink:href="#BitstreamVeraSans-Roman-32"/>
      <use x="913.8359375" xlink:href="#BitstreamVeraSans-Roman-33"/>
      <use x="977.458984375" xlink:href="#BitstreamVeraSans-Roman-31"/>
     </g>
    </g>
   </g>
  </g>
 </g>
 <defs>
  <clipPath id="p1547a1d7c0">
   <rect height="695.7" width="1244.8125" x="127.0125" y="51.3"/>
  </clipPath>
 </defs>
</svg>
