<?xml version="1.0" encoding="utf-8" standalone="no"?>
<!DOCTYPE svg PUBLIC "-//W3C//DTD SVG 1.1//EN"
  "http://www.w3.org/Graphics/SVG/1.1/DTD/svg11.dtd">
<!-- Created with matplotlib (http://matplotlib.org/) -->
<svg height="864pt" version="1.1" viewBox="0 0 1440 864" width="1440pt" xmlns="http://www.w3.org/2000/svg" xmlns:xlink="http://www.w3.org/1999/xlink">
 <defs>
  <style type="text/css">
*{stroke-linecap:butt;stroke-linejoin:round;stroke-miterlimit:100000;}
  </style>
 </defs>
 <g id="figure_1">
  <g id="patch_1">
   <path d="M 0 864 
L 1440 864 
L 1440 0 
L 0 0 
z
" style="fill:#ffffff;"/>
  </g>
  <g id="axes_1">
   <g id="patch_2">
    <path d="M 93.382656 770.338125 
L 1373.2425 770.338125 
L 1373.2425 57.915781 
L 93.382656 57.915781 
z
" style="fill:#ffffff;"/>
   </g>
   <g id="line2d_1">
    <path clip-path="url(#p6cb5589886)" d="M 93.382656 131.884023 
L 95.942376 135.940094 
L 98.502096 138.838091 
L 99.781955 141.18728 
L 102.341675 143.331309 
L 103.621535 145.303152 
L 104.901395 146.228653 
L 106.181255 147.60385 
L 107.461115 149.521395 
L 110.020834 152.191099 
L 111.300694 154.255292 
L 112.580554 155.64419 
L 113.860414 157.788307 
L 117.699993 162.667436 
L 118.979853 163.622028 
L 120.259713 166.02787 
L 121.539573 166.84668 
L 124.099292 171.604186 
L 125.379152 173.114492 
L 126.659012 174.414551 
L 127.938872 176.406527 
L 129.218732 177.847856 
L 130.498592 179.519391 
L 131.778452 180.520041 
L 133.058311 182.61533 
L 135.618031 186.231967 
L 136.897891 187.353351 
L 138.177751 188.844781 
L 139.457611 190.587498 
L 140.73747 192.676874 
L 144.57705 197.580261 
L 145.85691 199.312917 
L 147.13677 200.795445 
L 148.41663 201.547445 
L 149.696489 202.642636 
L 150.976349 204.087327 
L 152.256209 205.802608 
L 153.536069 206.993192 
L 156.095789 210.501748 
L 157.375648 211.992449 
L 158.655508 213.885918 
L 159.935368 215.400953 
L 162.495088 217.619465 
L 163.774948 219.674097 
L 165.054807 220.813603 
L 167.614527 224.108286 
L 168.894387 225.371892 
L 170.174247 226.962288 
L 175.293686 234.891754 
L 176.573546 236.312735 
L 177.853406 237.50929 
L 179.133266 238.876261 
L 180.413126 240.828277 
L 181.692985 242.206081 
L 184.252705 245.917093 
L 185.532565 247.455751 
L 188.092285 250.223174 
L 189.372145 251.766736 
L 190.652004 253.647382 
L 193.211724 255.749834 
L 194.491584 257.813702 
L 195.771444 259.117679 
L 199.611023 262.56152 
L 200.890883 263.837399 
L 202.170743 265.65891 
L 204.730463 270.105214 
L 206.010322 270.781045 
L 208.570042 273.867995 
L 209.849902 275.576069 
L 212.409622 278.045665 
L 214.969341 281.348409 
L 217.529061 283.828986 
L 218.808921 286.051407 
L 220.088781 287.273858 
L 221.368641 288.824426 
L 222.6485 290.884654 
L 223.92836 292.070876 
L 225.20822 293.788964 
L 226.48808 295.747288 
L 227.76794 296.774136 
L 229.0478 297.496076 
L 230.32766 298.418823 
L 231.607519 299.848562 
L 232.887379 301.679002 
L 234.167239 303.261164 
L 235.447099 305.970792 
L 236.726959 307.719435 
L 238.006819 309.014369 
L 239.286678 309.941413 
L 240.566538 311.418317 
L 241.846398 313.180222 
L 243.126258 314.324216 
L 244.406118 315.841214 
L 245.685978 316.870827 
L 248.245697 320.226797 
L 252.085277 323.905099 
L 253.365137 324.825383 
L 254.644997 326.647968 
L 255.924856 328.275658 
L 257.204716 329.101867 
L 259.764436 332.722174 
L 261.044296 334.499376 
L 263.604015 336.772815 
L 264.883875 338.348635 
L 266.163735 340.259846 
L 267.443595 341.400164 
L 268.723455 342.765537 
L 270.003315 344.844207 
L 271.283175 346.564934 
L 273.842894 349.351011 
L 276.402614 352.015214 
L 277.682474 353.792268 
L 278.962334 355.912646 
L 280.242193 356.960908 
L 281.522053 358.638219 
L 284.081773 361.341532 
L 285.361633 363.367522 
L 286.641493 364.542722 
L 287.921353 366.564695 
L 290.481072 368.950987 
L 291.760932 371.600212 
L 293.040792 373.02859 
L 294.320652 374.698566 
L 295.600512 376.604581 
L 296.880371 377.6016 
L 298.160231 378.371986 
L 300.719951 381.130015 
L 301.999811 383.016319 
L 303.279671 385.224149 
L 304.55953 386.679367 
L 305.83939 387.582693 
L 308.39911 390.961173 
L 309.67897 392.113075 
L 310.95883 393.820932 
L 313.518549 396.554394 
L 317.358129 401.679657 
L 318.637989 402.398516 
L 322.477568 406.381248 
L 323.757428 407.466121 
L 325.037288 408.984033 
L 326.317148 410.074364 
L 327.597008 410.741642 
L 330.156727 415.07819 
L 332.716447 418.674746 
L 335.276167 421.219541 
L 336.556027 423.367289 
L 339.115746 425.260296 
L 340.395606 426.908737 
L 341.675466 428.181233 
L 345.515045 433.685494 
L 346.794905 434.998126 
L 348.074765 436.562015 
L 349.354625 437.737191 
L 351.914345 440.408304 
L 353.194205 441.647423 
L 355.753924 444.7543 
L 357.033784 447.165909 
L 359.593504 449.065829 
L 360.873364 450.571924 
L 362.153223 452.270802 
L 363.433083 453.468675 
L 367.272663 458.730465 
L 368.552523 461.317667 
L 369.832382 462.648305 
L 371.112242 464.205947 
L 372.392102 465.978548 
L 374.951822 468.0286 
L 376.231682 469.815209 
L 377.511542 470.859411 
L 378.791401 472.567161 
L 380.071261 473.584372 
L 382.630981 476.944363 
L 383.910841 478.666251 
L 386.47056 480.957629 
L 387.75042 482.108303 
L 389.03028 483.519957 
L 390.31014 485.549503 
L 391.59 487.049325 
L 392.86986 489.324972 
L 394.14972 490.666732 
L 395.429579 492.192607 
L 396.709439 493.282745 
L 397.989299 494.70907 
L 399.269159 496.345207 
L 403.108738 502.735329 
L 404.388598 505.072351 
L 405.668458 506.572206 
L 409.508038 511.610833 
L 414.627477 516.030557 
L 415.907337 517.909021 
L 417.187197 519.436988 
L 418.467057 520.707027 
L 421.026776 525.093284 
L 422.306636 527.003414 
L 423.586496 527.96287 
L 424.866356 530.423322 
L 426.146216 531.487206 
L 427.426075 531.81156 
L 428.705935 534.116626 
L 432.545515 539.627989 
L 433.825375 541.627556 
L 435.105235 542.923854 
L 438.944814 547.539876 
L 441.504534 550.84414 
L 442.784394 552.084612 
L 445.344113 555.854071 
L 449.183693 559.62428 
L 450.463553 561.126208 
L 453.023272 564.676364 
L 454.303132 565.554058 
L 455.582992 566.946606 
L 456.862852 568.63032 
L 458.142712 569.724414 
L 459.422572 571.20486 
L 460.702431 572.481099 
L 461.982291 574.519151 
L 463.262151 575.794028 
L 464.542011 577.369626 
L 467.101731 579.624388 
L 468.38159 581.171396 
L 469.66145 583.160495 
L 470.94131 584.85174 
L 472.22117 585.906009 
L 473.50103 586.362515 
L 474.78089 587.895539 
L 476.06075 589.80111 
L 477.340609 591.915181 
L 478.620469 593.135124 
L 482.460049 597.968718 
L 483.739909 599.208136 
L 486.299628 602.766674 
L 487.579488 603.690418 
L 488.859348 605.25485 
L 490.139208 606.539072 
L 491.419068 608.070804 
L 492.698927 609.415383 
L 493.978787 610.479506 
L 495.258647 611.357895 
L 496.538507 613.104711 
L 497.818367 614.501126 
L 499.098227 615.599595 
L 500.378087 617.31189 
L 501.657946 618.358026 
L 504.217666 622.21218 
L 505.497526 623.605071 
L 506.777386 624.748036 
L 508.057246 625.718394 
L 509.337105 627.576491 
L 511.896825 630.470822 
L 513.176685 631.655002 
L 514.456545 633.312665 
L 515.736405 635.65764 
L 517.016265 637.363559 
L 519.575984 640.110987 
L 523.415564 644.779544 
L 524.695424 646.49973 
L 525.975283 647.998372 
L 529.814863 652.992898 
L 532.374583 655.220562 
L 533.654442 656.751553 
L 534.934302 658.617256 
L 536.214162 660.270436 
L 537.494022 662.581062 
L 538.773882 664.397761 
L 540.053742 665.265647 
L 541.333602 666.387906 
L 542.613461 667.917678 
L 543.893321 668.96289 
L 545.173181 670.703603 
L 546.453041 672.086187 
L 547.732901 673.118449 
L 549.012761 674.395476 
L 550.29262 675.24429 
L 552.85234 677.765802 
L 554.1322 679.714653 
L 555.41206 680.845085 
L 557.97178 682.767721 
L 559.251639 684.524902 
L 560.531499 686.092643 
L 561.811359 687.00083 
L 564.371079 689.802008 
L 565.650939 691.81215 
L 566.930798 693.234767 
L 568.210658 695.183311 
L 569.490518 696.484483 
L 570.770378 698.0919 
L 572.050238 699.178062 
L 574.609957 701.748587 
L 575.889817 704.003835 
L 577.169677 705.766624 
L 578.449537 707.753275 
L 579.729397 708.9951 
L 581.009257 710.663792 
L 584.848836 714.368692 
L 586.128696 715.389321 
L 587.408556 717.268393 
L 588.688416 718.904697 
L 589.968276 719.879373 
L 591.248135 721.124009 
L 595.087715 726.034758 
L 596.367575 727.270502 
L 597.647435 729.148541 
L 598.927295 730.234278 
L 600.207154 731.675834 
L 601.487014 733.67756 
L 602.766874 735.346451 
L 604.046734 736.107328 
L 606.606454 739.198763 
L 607.886313 739.833912 
L 609.166173 740.690081 
L 610.446033 741.965251 
L 613.005753 744.914252 
L 614.285613 746.589227 
L 615.565472 747.277381 
L 616.845332 748.568138 
L 620.684912 751.702024 
L 623.244632 752.50001 
L 624.524491 753.538701 
L 629.643931 755.021395 
L 630.923791 755.614637 
L 632.20365 755.317499 
L 633.48351 756.056453 
L 634.76337 756.323045 
L 636.04323 756.336463 
L 637.32309 756.750783 
L 638.60295 755.914175 
L 639.88281 756.172259 
L 641.162669 757.043151 
L 642.442529 756.456878 
L 643.722389 756.866707 
L 645.002249 756.450312 
L 647.561969 757.012767 
L 648.841828 757.021519 
L 650.121688 758.279324 
L 653.961268 758.874629 
L 655.241128 758.322296 
L 657.800847 757.859639 
L 659.080707 758.42813 
L 660.360567 758.615762 
L 661.640427 758.989829 
L 662.920287 758.089852 
L 664.200147 758.15028 
L 665.480006 758.341304 
L 666.759866 759.84896 
L 668.039726 759.922978 
L 670.599446 759.42125 
L 671.879306 758.836799 
L 673.159165 758.966016 
L 675.718885 758.505636 
L 676.998745 759.328051 
L 678.278605 759.809361 
L 679.558465 759.657817 
L 682.118184 758.403497 
L 683.398044 758.954178 
L 684.677904 759.24828 
L 685.957764 759.385272 
L 687.237624 758.833929 
L 688.517484 759.566958 
L 689.797343 759.809167 
L 691.077203 759.49946 
L 692.357063 758.961517 
L 693.636923 758.17055 
L 694.916783 759.120491 
L 696.196643 759.563557 
L 697.476502 759.786773 
L 698.756362 758.953082 
L 700.036222 759.103583 
L 701.316082 760.034414 
L 702.595942 759.53007 
L 703.875802 758.730853 
L 705.155662 758.65931 
L 706.435521 759.094126 
L 707.715381 758.295862 
L 708.995241 759.094587 
L 710.275101 759.33891 
L 711.554961 758.75678 
L 712.834821 758.355757 
L 714.11468 758.158971 
L 715.39454 758.801365 
L 716.6744 758.251572 
L 717.95426 758.999178 
L 719.23412 758.942219 
L 720.51398 758.185874 
L 721.79384 758.232433 
L 723.073699 757.982638 
L 724.353559 758.444698 
L 725.633419 758.419713 
L 728.193139 758.992889 
L 729.472999 758.702442 
L 730.752858 758.786129 
L 732.032718 759.320233 
L 733.312578 758.428859 
L 734.592438 758.532492 
L 737.152158 759.189978 
L 738.432017 759.164851 
L 739.711877 759.950829 
L 740.991737 758.460695 
L 742.271597 758.561259 
L 744.831317 757.198961 
L 746.111177 757.826039 
L 747.391036 757.661787 
L 748.670896 758.163314 
L 749.950756 758.528314 
L 751.230616 757.826907 
L 752.510476 758.530763 
L 753.790336 758.313509 
L 755.070195 758.804247 
L 756.350055 758.640878 
L 757.629915 758.359852 
L 760.189635 759.106838 
L 761.469495 758.647725 
L 762.749355 758.434005 
L 764.029214 758.367507 
L 765.309074 758.927385 
L 766.588934 757.928888 
L 767.868794 758.030748 
L 769.148654 758.45662 
L 770.428514 758.701969 
L 771.708373 758.264383 
L 772.988233 758.626504 
L 774.268093 758.781242 
L 775.547953 758.47135 
L 776.827813 758.598674 
L 778.107673 758.333338 
L 779.387532 758.48439 
L 780.667392 758.415844 
L 781.947252 758.743656 
L 785.786832 759.071692 
L 787.066692 759.069471 
L 788.346551 759.324944 
L 789.626411 759.011447 
L 790.906271 759.116775 
L 792.186131 758.993043 
L 793.465991 758.427059 
L 794.745851 758.417937 
L 796.02571 758.550994 
L 797.30557 757.869576 
L 798.58543 758.04874 
L 799.86529 758.634558 
L 801.14515 758.642445 
L 802.42501 758.862724 
L 803.70487 758.674654 
L 804.984729 759.210549 
L 806.264589 759.624777 
L 807.544449 756.945477 
L 810.104169 757.473328 
L 811.384029 757.329668 
L 812.663888 758.40206 
L 813.943748 758.381484 
L 816.503468 758.028742 
L 817.783328 758.33351 
L 819.063188 758.294823 
L 820.343047 757.936924 
L 822.902767 757.966844 
L 828.022207 757.469851 
L 829.302066 757.61186 
L 830.581926 758.095979 
L 831.861786 757.631103 
L 833.141646 758.133792 
L 834.421506 757.841311 
L 835.701366 757.408698 
L 836.981225 758.306269 
L 839.540945 758.941382 
L 840.820805 758.585278 
L 842.100665 758.039861 
L 844.660385 757.228058 
L 845.940244 757.720691 
L 847.220104 757.814538 
L 848.499964 757.676036 
L 851.059684 758.00545 
L 852.339544 757.854115 
L 853.619403 757.881635 
L 854.899263 758.344377 
L 856.179123 759.246099 
L 857.458983 758.88831 
L 858.738843 759.508474 
L 860.018703 759.559452 
L 861.298562 759.451481 
L 863.858282 758.874792 
L 865.138142 759.064735 
L 866.418002 759.881618 
L 867.697862 760.178775 
L 868.977722 759.642905 
L 870.257581 759.325116 
L 871.537441 758.862522 
L 872.817301 758.906508 
L 874.097161 759.84468 
L 876.656881 759.263785 
L 877.93674 759.278401 
L 879.2166 758.894936 
L 880.49646 759.037608 
L 881.77632 758.945844 
L 883.05618 759.356734 
L 884.33604 759.386202 
L 885.6159 757.644751 
L 886.895759 758.610139 
L 889.455479 759.111504 
L 890.735339 758.905947 
L 892.015199 759.331697 
L 893.295059 759.95865 
L 894.574918 759.649664 
L 895.854778 758.669973 
L 897.134638 758.463351 
L 898.414498 758.684123 
L 899.694358 759.684238 
L 900.974218 759.527768 
L 902.254077 759.854176 
L 903.533937 759.660886 
L 904.813797 759.166296 
L 906.093657 759.026485 
L 908.653377 759.322388 
L 912.492956 758.965364 
L 913.772816 758.306517 
L 915.052676 759.100873 
L 916.332536 759.475872 
L 920.172115 758.360247 
L 924.011695 758.360989 
L 925.291555 759.169313 
L 926.571415 759.345404 
L 927.851274 758.973549 
L 929.131134 758.451008 
L 930.410994 757.362443 
L 932.970714 758.049748 
L 934.250574 757.786375 
L 935.530433 757.340164 
L 936.810293 757.200066 
L 938.090153 757.648409 
L 940.649873 757.400889 
L 941.929733 757.718223 
L 944.489452 756.820643 
L 945.769312 757.293663 
L 947.049172 757.607773 
L 948.329032 757.731911 
L 949.608892 758.203538 
L 950.888752 758.805124 
L 952.168611 758.565987 
L 953.448471 758.646912 
L 954.728331 759.024093 
L 956.008191 758.97274 
L 957.288051 759.362324 
L 958.567911 759.024527 
L 961.12763 759.100136 
L 962.40749 758.883962 
L 963.68735 759.644861 
L 964.96721 759.052404 
L 966.24707 759.545318 
L 967.52693 758.8065 
L 968.806789 758.837498 
L 970.086649 758.646652 
L 971.366509 758.146616 
L 972.646369 758.753282 
L 973.926229 758.21858 
L 976.485948 758.224831 
L 977.765808 758.135234 
L 979.045668 757.80339 
L 980.325528 757.791123 
L 982.885248 758.236796 
L 986.724827 758.432055 
L 989.284547 758.024388 
L 990.564407 757.479554 
L 991.844267 757.953276 
L 994.403986 758.078216 
L 995.683846 758.083911 
L 996.963706 758.229759 
L 998.243566 757.630022 
L 999.523426 757.770435 
L 1000.803285 757.72669 
L 1002.083145 758.256827 
L 1003.363005 758.569314 
L 1005.922725 758.714201 
L 1008.482445 758.534589 
L 1009.762304 759.206758 
L 1011.042164 758.921965 
L 1012.322024 759.21245 
L 1013.601884 758.688059 
L 1014.881744 759.359801 
L 1017.441463 760.025369 
L 1018.721323 759.385251 
L 1021.281043 759.433977 
L 1022.560903 758.892675 
L 1023.840763 757.770758 
L 1025.120623 757.850111 
L 1026.400482 758.216317 
L 1027.680342 757.964643 
L 1028.960202 758.025717 
L 1030.240062 758.526211 
L 1031.519922 758.17475 
L 1032.799782 757.943842 
L 1034.079641 757.87378 
L 1035.359501 758.369281 
L 1036.639361 758.55035 
L 1037.919221 758.426221 
L 1039.199081 757.93869 
L 1040.478941 758.117941 
L 1041.7588 757.773344 
L 1043.03866 758.219527 
L 1044.31852 758.92562 
L 1045.59838 758.538272 
L 1046.87824 758.297896 
L 1048.1581 758.540686 
L 1050.717819 758.804333 
L 1051.997679 759.024161 
L 1053.277539 758.933436 
L 1054.557399 759.259654 
L 1055.837259 758.901573 
L 1057.117119 759.121738 
L 1058.396978 759.099485 
L 1059.676838 759.196088 
L 1060.956698 759.067104 
L 1062.236558 759.080303 
L 1063.516418 759.575582 
L 1064.796278 757.532038 
L 1066.076137 759.067056 
L 1067.355997 758.753304 
L 1068.635857 759.626909 
L 1069.915717 760.309022 
L 1071.195577 760.187645 
L 1073.755297 759.548387 
L 1075.035156 759.480654 
L 1076.315016 758.427711 
L 1077.594876 758.123224 
L 1080.154596 759.327519 
L 1082.714315 760.200289 
L 1083.994175 760.082517 
L 1085.274035 759.720558 
L 1086.553895 759.840612 
L 1087.833755 760.095025 
L 1089.113615 760.224645 
L 1090.393475 759.382834 
L 1091.673334 759.863139 
L 1092.953194 759.16276 
L 1094.233054 759.219772 
L 1095.512914 759.516556 
L 1096.792774 759.539433 
L 1098.072634 758.91586 
L 1099.352493 758.860733 
L 1100.632353 758.67258 
L 1101.912213 759.370174 
L 1103.192073 757.798396 
L 1104.471933 757.406389 
L 1105.751793 757.42301 
L 1107.031653 757.288603 
L 1108.311512 758.41551 
L 1109.591372 758.174589 
L 1115.990671 757.880423 
L 1117.270531 758.191017 
L 1118.550391 758.69549 
L 1121.110111 758.775593 
L 1122.389971 759.961552 
L 1123.66983 758.781347 
L 1124.94969 759.618849 
L 1126.22955 759.380305 
L 1127.50941 759.378564 
L 1128.78927 759.052542 
L 1130.06913 759.562787 
L 1131.34899 759.391195 
L 1132.628849 758.270107 
L 1133.908709 758.30531 
L 1135.188569 758.854911 
L 1137.748289 759.257236 
L 1139.028149 758.82015 
L 1140.308008 759.438776 
L 1141.587868 759.083774 
L 1142.867728 758.541014 
L 1144.147588 758.807099 
L 1145.427448 758.471323 
L 1146.707308 758.547029 
L 1147.987167 757.107186 
L 1149.267027 757.350668 
L 1150.546887 757.259439 
L 1153.106607 758.711511 
L 1154.386467 758.357558 
L 1155.666327 758.760141 
L 1156.946186 759.324244 
L 1158.226046 758.95692 
L 1159.505906 758.796875 
L 1160.785766 758.845222 
L 1162.065626 758.58795 
L 1164.625345 759.363668 
L 1165.905205 759.245493 
L 1169.744785 758.006774 
L 1171.024645 757.862079 
L 1172.304505 758.090739 
L 1173.584364 758.653306 
L 1174.864224 757.784849 
L 1176.144084 758.496306 
L 1177.423944 759.006867 
L 1178.703804 757.240241 
L 1179.983664 758.200381 
L 1181.263523 758.255245 
L 1182.543383 758.490249 
L 1183.823243 758.000306 
L 1185.103103 758.855026 
L 1186.382963 758.78118 
L 1187.662823 758.563948 
L 1188.942683 758.480686 
L 1190.222542 758.017761 
L 1191.502402 758.187901 
L 1192.782262 758.537294 
L 1194.062122 758.640495 
L 1195.341982 758.432216 
L 1199.181561 758.950737 
L 1200.461421 759.312442 
L 1201.741281 759.19111 
L 1203.021141 758.913683 
L 1204.301001 758.33308 
L 1205.58086 757.993553 
L 1206.86072 758.268363 
L 1208.14058 758.26941 
L 1209.42044 758.568449 
L 1210.7003 758.01707 
L 1211.98016 758.04896 
L 1214.539879 759.060297 
L 1215.819739 758.868388 
L 1217.099599 759.045173 
L 1218.379459 759.685434 
L 1219.659319 759.273195 
L 1220.939179 758.667737 
L 1222.219038 759.193932 
L 1223.498898 758.419633 
L 1224.778758 758.400276 
L 1226.058618 758.861622 
L 1227.338478 758.759803 
L 1228.618338 758.537356 
L 1229.898197 758.639762 
L 1231.178057 758.589796 
L 1233.737777 759.268848 
L 1235.017637 758.879279 
L 1236.297497 758.680008 
L 1237.577357 758.59388 
L 1238.857216 759.857498 
L 1240.137076 759.616694 
L 1241.416936 759.239131 
L 1243.976656 759.440011 
L 1246.536375 758.218854 
L 1247.816235 758.266753 
L 1249.096095 758.111382 
L 1250.375955 758.208669 
L 1252.935675 757.743625 
L 1254.215535 757.73443 
L 1255.495394 757.037583 
L 1256.775254 757.77164 
L 1258.055114 757.594341 
L 1259.334974 758.30153 
L 1260.614834 758.450612 
L 1261.894694 759.4927 
L 1263.174553 758.760091 
L 1264.454413 759.152268 
L 1265.734273 758.799617 
L 1267.014133 759.332823 
L 1269.573853 758.77219 
L 1272.133572 759.363617 
L 1273.413432 758.783878 
L 1274.693292 759.639852 
L 1275.973152 759.169841 
L 1277.253012 759.078359 
L 1278.532872 758.605717 
L 1279.812731 758.280025 
L 1282.372451 759.042664 
L 1283.652311 759.359458 
L 1284.932171 758.845152 
L 1286.212031 758.993743 
L 1287.49189 758.664658 
L 1288.77175 758.805216 
L 1290.05161 759.579269 
L 1291.33147 759.242758 
L 1292.61133 758.221421 
L 1295.17105 757.936907 
L 1296.450909 758.740863 
L 1297.730769 758.116657 
L 1299.010629 759.103087 
L 1301.570349 757.992536 
L 1302.850209 758.385278 
L 1304.130068 758.383875 
L 1305.409928 757.960817 
L 1306.689788 758.246059 
L 1307.969648 758.969508 
L 1309.249508 758.437829 
L 1310.529368 758.70586 
L 1311.809228 758.638879 
L 1313.089087 758.320623 
L 1314.368947 758.672728 
L 1315.648807 758.143518 
L 1318.208527 758.472034 
L 1319.488387 758.892208 
L 1320.768246 758.726939 
L 1322.048106 758.376771 
L 1323.327966 757.797931 
L 1325.887686 758.017907 
L 1327.167546 759.196877 
L 1329.727265 758.263681 
L 1331.007125 758.571791 
L 1332.286985 757.99473 
L 1333.566845 758.152089 
L 1334.846705 757.748308 
L 1336.126565 758.131922 
L 1337.406424 757.513831 
L 1338.686284 757.713023 
L 1339.966144 757.628406 
L 1341.246004 758.118351 
L 1342.525864 757.70191 
L 1343.805724 757.616663 
L 1345.085583 757.256478 
L 1346.365443 757.419741 
L 1347.645303 757.852554 
L 1350.205023 758.003111 
L 1351.484883 757.798327 
L 1354.044602 758.141576 
L 1355.324462 757.623402 
L 1356.604322 758.291733 
L 1357.884182 758.083447 
L 1360.443902 759.317465 
L 1361.723761 758.905282 
L 1363.003621 758.924291 
L 1364.283481 759.062671 
L 1366.843201 757.841548 
L 1368.123061 758.282774 
L 1369.40292 758.417268 
L 1370.68278 758.425135 
L 1371.96264 758.116598 
L 1371.96264 758.116598 
" style="fill:none;stroke:#0000ff;stroke-linecap:square;stroke-width:2.0;"/>
   </g>
   <g id="line2d_2">
    <path clip-path="url(#p6cb5589886)" d="M 93.382656 131.949224 
L 94.662516 133.887642 
L 95.942376 135.521691 
L 97.222236 137.397672 
L 98.502096 138.498793 
L 99.781955 139.852659 
L 101.061815 142.461389 
L 102.341675 143.84218 
L 103.621535 145.885652 
L 104.901395 147.231607 
L 106.181255 148.085926 
L 107.461115 150.956932 
L 108.740974 152.110359 
L 110.020834 153.794809 
L 112.580554 158.005047 
L 113.860414 159.304146 
L 116.420133 162.950155 
L 117.699993 164.420443 
L 120.259713 166.844679 
L 121.539573 168.587043 
L 122.819433 170.555867 
L 124.099292 171.711622 
L 125.379152 173.09116 
L 126.659012 175.664629 
L 127.938872 177.713176 
L 129.218732 179.334765 
L 131.778452 182.057348 
L 133.058311 183.250363 
L 134.338171 184.275299 
L 135.618031 185.545627 
L 138.177751 189.929589 
L 139.457611 191.969879 
L 143.29719 196.581019 
L 144.57705 198.181527 
L 145.85691 200.482786 
L 147.13677 201.554591 
L 152.256209 207.494037 
L 154.815929 211.50397 
L 156.095789 213.402921 
L 157.375648 215.754944 
L 158.655508 217.003345 
L 161.215228 220.189496 
L 162.495088 221.627208 
L 163.774948 224.129949 
L 165.054807 225.27936 
L 166.334667 226.622035 
L 167.614527 228.498119 
L 168.894387 229.811374 
L 170.174247 230.754661 
L 172.733967 233.877435 
L 174.013826 235.86921 
L 175.293686 237.140217 
L 176.573546 238.095182 
L 177.853406 239.286204 
L 179.133266 240.8554 
L 180.413126 242.168559 
L 181.692985 243.856298 
L 182.972845 245.248437 
L 184.252705 247.603548 
L 185.532565 249.284836 
L 186.812425 251.186681 
L 188.092285 252.470795 
L 190.652004 254.819058 
L 191.931864 256.227742 
L 193.211724 257.88261 
L 194.491584 259.261998 
L 195.771444 260.810637 
L 197.051304 261.966286 
L 198.331163 263.788199 
L 199.611023 265.285737 
L 200.890883 267.073174 
L 204.730463 271.227051 
L 206.010322 272.823118 
L 207.290182 273.774914 
L 208.570042 275.446616 
L 212.409622 279.550726 
L 213.689482 281.453754 
L 216.249201 283.72587 
L 220.088781 288.914175 
L 221.368641 290.636965 
L 223.92836 293.583984 
L 225.20822 295.92982 
L 226.48808 297.9553 
L 230.32766 302.550429 
L 231.607519 304.233479 
L 232.887379 306.150684 
L 234.167239 308.288097 
L 235.447099 310.196487 
L 236.726959 311.640699 
L 238.006819 313.952425 
L 239.286678 315.553469 
L 240.566538 317.397306 
L 241.846398 319.570914 
L 243.126258 321.287331 
L 245.685978 323.83342 
L 246.965837 326.061186 
L 248.245697 327.698147 
L 249.525557 329.581079 
L 252.085277 332.829834 
L 253.365137 334.586984 
L 254.644997 335.615546 
L 258.484576 339.290015 
L 259.764436 340.155743 
L 262.324156 342.892916 
L 264.883875 346.803086 
L 266.163735 347.787447 
L 268.723455 350.618385 
L 270.003315 351.727243 
L 272.563034 355.404728 
L 275.122754 357.806799 
L 276.402614 359.288927 
L 277.682474 361.098345 
L 278.962334 362.472218 
L 280.242193 364.487372 
L 281.522053 365.934435 
L 282.801913 368.050995 
L 284.081773 369.313214 
L 285.361633 370.224542 
L 286.641493 371.565356 
L 287.921353 372.496025 
L 289.201212 374.274763 
L 290.481072 375.575679 
L 291.760932 376.64211 
L 294.320652 379.689884 
L 295.600512 381.687824 
L 296.880371 382.620725 
L 298.160231 384.225893 
L 299.440091 385.629371 
L 303.279671 390.940406 
L 304.55953 392.482524 
L 305.83939 393.845248 
L 307.11925 394.467983 
L 309.67897 397.469345 
L 310.95883 399.249912 
L 312.23869 400.310364 
L 313.518549 402.114797 
L 314.798409 403.102873 
L 317.358129 405.47611 
L 318.637989 406.734777 
L 321.197708 409.502119 
L 322.477568 411.712082 
L 323.757428 413.277019 
L 325.037288 414.416049 
L 326.317148 415.251095 
L 327.597008 417.256221 
L 328.876868 418.801593 
L 330.156727 420.578374 
L 331.436587 422.550962 
L 332.716447 423.744073 
L 333.996307 425.923488 
L 335.276167 427.259817 
L 337.835886 429.296252 
L 339.115746 431.048668 
L 341.675466 433.447732 
L 342.955326 435.609034 
L 344.235186 436.610419 
L 345.515045 438.00683 
L 346.794905 440.032322 
L 349.354625 442.208436 
L 351.914345 444.877506 
L 353.194205 445.963599 
L 354.474064 448.187383 
L 355.753924 449.373368 
L 357.033784 450.883073 
L 358.313644 452.813344 
L 359.593504 453.666775 
L 360.873364 454.683087 
L 363.433083 457.91266 
L 365.992803 460.707811 
L 367.272663 461.451053 
L 368.552523 462.902216 
L 372.392102 466.391718 
L 373.671962 468.060678 
L 374.951822 469.527928 
L 376.231682 470.565562 
L 378.791401 473.856234 
L 380.071261 476.136901 
L 381.351121 477.519162 
L 382.630981 479.221707 
L 383.910841 480.169273 
L 385.190701 481.5306 
L 386.47056 483.199842 
L 387.75042 484.22041 
L 391.59 488.563215 
L 392.86986 489.797455 
L 394.14972 491.264474 
L 395.429579 492.916175 
L 396.709439 493.945684 
L 397.989299 495.206001 
L 399.269159 495.842642 
L 400.549019 497.132522 
L 401.828879 498.651005 
L 403.108738 499.932343 
L 405.668458 503.053464 
L 408.228178 505.450465 
L 410.787897 508.963717 
L 413.347617 512.564071 
L 414.627477 514.848919 
L 417.187197 517.492376 
L 418.467057 519.052756 
L 421.026776 521.736665 
L 422.306636 523.537042 
L 423.586496 524.737769 
L 426.146216 528.039752 
L 427.426075 529.954233 
L 429.985795 533.061957 
L 431.265655 533.859132 
L 433.825375 536.600361 
L 436.385094 539.385302 
L 437.664954 541.237395 
L 438.944814 542.22735 
L 440.224674 544.567139 
L 441.504534 546.08002 
L 444.064253 549.864437 
L 445.344113 552.354077 
L 446.623973 554.279478 
L 447.903833 555.250657 
L 449.183693 556.975497 
L 450.463553 558.17172 
L 453.023272 561.11981 
L 454.303132 562.747627 
L 455.582992 563.658811 
L 456.862852 565.780833 
L 459.422572 569.114669 
L 460.702431 570.241765 
L 461.982291 571.63598 
L 463.262151 573.265319 
L 465.821871 578.306639 
L 467.101731 579.75469 
L 468.38159 581.74932 
L 470.94131 584.156912 
L 472.22117 585.904834 
L 473.50103 587.297598 
L 474.78089 588.425676 
L 476.06075 589.860703 
L 477.340609 591.879615 
L 478.620469 592.940002 
L 479.900329 594.237345 
L 481.180189 596.106014 
L 482.460049 597.398442 
L 483.739909 598.463594 
L 485.019768 599.342637 
L 486.299628 601.069241 
L 487.579488 602.49646 
L 488.859348 604.093936 
L 490.139208 605.909085 
L 491.419068 606.791256 
L 492.698927 608.481547 
L 493.978787 609.358635 
L 495.258647 611.031961 
L 496.538507 613.401781 
L 499.098227 615.840339 
L 500.378087 617.719484 
L 501.657946 618.297317 
L 502.937806 619.434565 
L 504.217666 621.164062 
L 505.497526 622.164409 
L 506.777386 624.036473 
L 508.057246 625.531645 
L 509.337105 626.483445 
L 510.616965 627.737358 
L 511.896825 629.859994 
L 513.176685 631.438982 
L 514.456545 632.492469 
L 515.736405 633.34512 
L 517.016265 634.773588 
L 518.296124 636.375569 
L 524.695424 641.802252 
L 525.975283 643.3794 
L 528.535003 645.745742 
L 531.094723 648.854657 
L 533.654442 652.519498 
L 537.494022 656.319414 
L 541.333602 661.516669 
L 542.613461 662.520061 
L 543.893321 664.070082 
L 546.453041 666.05866 
L 549.012761 669.127071 
L 550.29262 669.91608 
L 551.57248 672.492231 
L 552.85234 673.209428 
L 555.41206 675.968232 
L 556.69192 676.868413 
L 557.97178 677.983269 
L 559.251639 679.451508 
L 560.531499 680.663525 
L 561.811359 682.35183 
L 563.091219 683.660689 
L 564.371079 685.501895 
L 565.650939 686.923115 
L 568.210658 690.169367 
L 570.770378 692.193688 
L 572.050238 692.687352 
L 573.330098 694.27852 
L 575.889817 696.500522 
L 579.729397 700.536744 
L 582.289117 704.527592 
L 583.568976 706.047679 
L 584.848836 707.201929 
L 586.128696 709.656033 
L 588.688416 713.21115 
L 591.248135 716.238292 
L 592.527995 716.826024 
L 593.807855 717.931002 
L 595.087715 719.681129 
L 596.367575 721.050475 
L 597.647435 722.750891 
L 598.927295 723.39872 
L 600.207154 724.622042 
L 601.487014 726.015387 
L 602.766874 726.936983 
L 604.046734 728.144157 
L 605.326594 729.822221 
L 606.606454 730.561375 
L 609.166173 732.863364 
L 611.725893 734.396638 
L 613.005753 735.385109 
L 615.565472 737.789173 
L 616.845332 739.556433 
L 618.125192 741.000287 
L 620.684912 742.945298 
L 621.964772 742.89032 
L 623.244632 744.352932 
L 624.524491 744.950032 
L 625.804351 745.944797 
L 627.084211 746.41364 
L 629.643931 748.886366 
L 630.923791 749.599963 
L 632.20365 750.022869 
L 633.48351 751.078856 
L 634.76337 751.698978 
L 636.04323 752.953105 
L 637.32309 753.220325 
L 638.60295 753.870237 
L 639.88281 753.96345 
L 641.162669 754.970322 
L 642.442529 755.61636 
L 643.722389 755.221262 
L 645.002249 755.704481 
L 646.282109 755.758283 
L 647.561969 755.248913 
L 648.841828 755.621552 
L 650.121688 755.86953 
L 651.401548 755.491497 
L 652.681408 755.626706 
L 653.961268 756.68162 
L 655.241128 756.984809 
L 656.520987 757.012127 
L 657.800847 757.552111 
L 659.080707 757.570175 
L 660.360567 757.796409 
L 661.640427 757.176301 
L 662.920287 757.644546 
L 665.480006 758.073286 
L 666.759866 758.543445 
L 668.039726 757.955516 
L 669.319586 758.493334 
L 670.599446 758.841499 
L 671.879306 758.872271 
L 673.159165 759.18419 
L 674.439025 759.099969 
L 675.718885 758.186669 
L 676.998745 757.985618 
L 678.278605 758.122068 
L 679.558465 758.697518 
L 680.838325 758.889151 
L 682.118184 758.730369 
L 683.398044 758.040392 
L 685.957764 757.481878 
L 687.237624 758.074102 
L 688.517484 758.163412 
L 689.797343 758.740877 
L 691.077203 758.484893 
L 693.636923 758.577415 
L 696.196643 759.013423 
L 697.476502 759.766135 
L 701.316082 759.449097 
L 702.595942 758.55499 
L 703.875802 758.582415 
L 705.155662 758.762081 
L 706.435521 758.45028 
L 707.715381 758.342295 
L 708.995241 759.153212 
L 710.275101 757.798886 
L 711.554961 758.320217 
L 714.11468 759.553209 
L 716.6744 760.095022 
L 717.95426 759.443987 
L 719.23412 759.193489 
L 720.51398 758.253729 
L 721.79384 758.977135 
L 724.353559 759.797966 
L 725.633419 759.594763 
L 726.913279 758.472997 
L 728.193139 758.867726 
L 729.472999 758.465321 
L 730.752858 758.406706 
L 732.032718 758.869477 
L 733.312578 758.431038 
L 734.592438 758.196689 
L 735.872298 759.125092 
L 737.152158 758.426515 
L 738.432017 758.244565 
L 739.711877 758.277139 
L 740.991737 757.755863 
L 742.271597 757.866252 
L 743.551457 757.82827 
L 744.831317 757.924076 
L 746.111177 757.629246 
L 747.391036 757.649657 
L 748.670896 758.101269 
L 749.950756 758.169279 
L 751.230616 758.103565 
L 752.510476 757.758728 
L 753.790336 758.124459 
L 755.070195 757.979254 
L 756.350055 757.436787 
L 757.629915 757.557397 
L 758.909775 758.18523 
L 760.189635 758.429889 
L 761.469495 757.754715 
L 765.309074 758.038051 
L 766.588934 758.633984 
L 769.148654 757.900017 
L 770.428514 757.884287 
L 772.988233 758.293616 
L 774.268093 758.758019 
L 775.547953 758.147599 
L 776.827813 758.019363 
L 778.107673 758.040421 
L 779.387532 758.643153 
L 780.667392 758.172244 
L 781.947252 758.29597 
L 783.227112 758.762489 
L 785.786832 759.01739 
L 787.066692 758.813523 
L 788.346551 758.041977 
L 789.626411 758.125048 
L 790.906271 758.657653 
L 792.186131 758.5633 
L 793.465991 758.704681 
L 794.745851 759.000294 
L 796.02571 758.874969 
L 797.30557 758.100458 
L 799.86529 759.042496 
L 801.14515 758.779245 
L 802.42501 758.341539 
L 803.70487 758.304073 
L 804.984729 758.055701 
L 806.264589 758.118968 
L 807.544449 758.597197 
L 808.824309 758.035524 
L 810.104169 758.455265 
L 811.384029 758.390022 
L 812.663888 757.709032 
L 813.943748 758.127822 
L 815.223608 757.3039 
L 816.503468 757.46357 
L 817.783328 757.29068 
L 819.063188 758.599316 
L 820.343047 758.314258 
L 821.622907 757.868543 
L 822.902767 757.167061 
L 824.182627 757.751332 
L 825.462487 757.806333 
L 826.742347 758.039661 
L 828.022207 757.970748 
L 829.302066 758.657404 
L 830.581926 757.901509 
L 831.861786 757.925792 
L 833.141646 757.720336 
L 834.421506 757.366996 
L 835.701366 757.666752 
L 836.981225 756.927936 
L 838.261085 757.749139 
L 839.540945 757.439266 
L 840.820805 757.890941 
L 842.100665 757.616443 
L 845.940244 757.453319 
L 847.220104 757.643976 
L 848.499964 757.964114 
L 849.779824 758.73003 
L 851.059684 757.988395 
L 852.339544 758.121921 
L 853.619403 758.742644 
L 854.899263 759.135547 
L 857.458983 759.103905 
L 860.018703 758.867796 
L 861.298562 759.181391 
L 862.578422 758.852687 
L 863.858282 759.006357 
L 865.138142 758.863458 
L 866.418002 758.156643 
L 868.977722 758.116546 
L 870.257581 758.756888 
L 871.537441 758.773417 
L 872.817301 758.66332 
L 874.097161 758.185739 
L 875.377021 758.294205 
L 876.656881 757.829141 
L 877.93674 758.302635 
L 879.2166 758.153129 
L 880.49646 757.621097 
L 884.33604 758.05606 
L 886.895759 758.020952 
L 888.175619 758.553246 
L 890.735339 757.838049 
L 892.015199 758.124797 
L 893.295059 758.105625 
L 895.854778 757.51726 
L 897.134638 757.765876 
L 898.414498 757.276497 
L 903.533937 757.874703 
L 904.813797 757.645788 
L 906.093657 758.323567 
L 907.373517 758.18558 
L 908.653377 757.725096 
L 912.492956 757.305216 
L 913.772816 756.793572 
L 915.052676 756.591683 
L 916.332536 756.784721 
L 917.612396 757.402234 
L 918.892255 757.505864 
L 920.172115 756.76245 
L 921.451975 757.843771 
L 922.731835 757.926872 
L 924.011695 758.344678 
L 926.571415 757.939284 
L 927.851274 758.342618 
L 930.410994 757.659597 
L 931.690854 757.716882 
L 932.970714 757.608935 
L 934.250574 756.816472 
L 936.810293 757.760039 
L 938.090153 757.446975 
L 939.370013 757.286104 
L 940.649873 757.358204 
L 941.929733 757.927778 
L 943.209592 757.606266 
L 944.489452 758.590701 
L 945.769312 758.040132 
L 949.608892 758.067923 
L 950.888752 757.813297 
L 952.168611 757.223113 
L 953.448471 757.200891 
L 954.728331 756.890562 
L 956.008191 757.784084 
L 957.288051 757.253059 
L 958.567911 758.12407 
L 959.84777 758.306538 
L 961.12763 758.824375 
L 962.40749 758.595586 
L 963.68735 758.531522 
L 964.96721 759.433505 
L 966.24707 759.382739 
L 967.52693 758.397737 
L 968.806789 758.271776 
L 970.086649 758.477708 
L 971.366509 759.612747 
L 972.646369 759.704413 
L 973.926229 759.116046 
L 975.206089 759.050171 
L 976.485948 758.363888 
L 977.765808 758.11865 
L 979.045668 757.998835 
L 980.325528 757.723165 
L 981.605388 758.377701 
L 982.885248 757.679114 
L 984.165107 758.490679 
L 985.444967 758.389248 
L 986.724827 758.887492 
L 989.284547 759.183216 
L 990.564407 759.314191 
L 991.844267 758.960031 
L 994.403986 759.009281 
L 995.683846 758.893724 
L 996.963706 759.230812 
L 998.243566 758.731477 
L 1000.803285 759.419495 
L 1002.083145 759.51278 
L 1003.363005 759.486209 
L 1004.642865 758.571346 
L 1007.202585 758.708524 
L 1008.482445 758.896689 
L 1011.042164 758.636263 
L 1012.322024 758.609188 
L 1013.601884 758.155926 
L 1014.881744 759.203431 
L 1016.161604 759.190572 
L 1017.441463 759.473758 
L 1018.721323 759.167888 
L 1020.001183 759.170479 
L 1021.281043 758.709821 
L 1022.560903 758.921669 
L 1023.840763 759.274751 
L 1025.120623 759.447163 
L 1026.400482 759.413692 
L 1027.680342 759.678331 
L 1030.240062 759.210672 
L 1032.799782 759.522942 
L 1034.079641 759.057781 
L 1035.359501 758.931571 
L 1036.639361 759.812598 
L 1037.919221 758.900985 
L 1039.199081 757.777657 
L 1040.478941 758.847458 
L 1043.03866 758.336152 
L 1045.59838 758.194913 
L 1046.87824 757.572637 
L 1048.1581 757.251559 
L 1049.43796 757.349381 
L 1050.717819 757.584475 
L 1051.997679 758.198469 
L 1053.277539 757.206862 
L 1054.557399 758.611537 
L 1058.396978 758.403415 
L 1059.676838 758.785937 
L 1060.956698 758.365113 
L 1062.236558 758.425359 
L 1063.516418 758.741441 
L 1064.796278 758.736616 
L 1066.076137 758.986002 
L 1067.355997 758.920782 
L 1068.635857 759.778548 
L 1069.915717 759.375101 
L 1071.195577 759.190557 
L 1072.475437 759.703991 
L 1073.755297 759.41377 
L 1075.035156 758.746437 
L 1076.315016 759.145812 
L 1077.594876 757.114935 
L 1078.874736 757.68763 
L 1080.154596 757.163442 
L 1081.434456 757.089492 
L 1082.714315 757.902999 
L 1083.994175 757.842006 
L 1085.274035 757.421634 
L 1087.833755 757.480908 
L 1089.113615 757.556414 
L 1091.673334 757.386803 
L 1092.953194 758.067144 
L 1094.233054 758.075036 
L 1095.512914 758.672116 
L 1096.792774 758.793578 
L 1098.072634 757.831685 
L 1099.352493 757.995495 
L 1100.632353 757.48436 
L 1101.912213 757.555884 
L 1103.192073 758.465723 
L 1104.471933 757.889279 
L 1105.751793 757.547002 
L 1107.031653 757.427149 
L 1108.311512 757.786225 
L 1109.591372 757.498028 
L 1110.871232 758.427046 
L 1112.151092 758.270196 
L 1113.430952 758.323464 
L 1114.710812 758.561392 
L 1115.990671 758.970618 
L 1117.270531 758.457 
L 1118.550391 758.885536 
L 1119.830251 758.947952 
L 1122.389971 757.922078 
L 1123.66983 757.557927 
L 1124.94969 757.641514 
L 1126.22955 756.611845 
L 1128.78927 757.43346 
L 1130.06913 757.571824 
L 1131.34899 757.021925 
L 1132.628849 756.921405 
L 1133.908709 756.624526 
L 1135.188569 757.125777 
L 1136.468429 757.880686 
L 1139.028149 758.277735 
L 1140.308008 758.186287 
L 1141.587868 757.96657 
L 1142.867728 758.508475 
L 1144.147588 757.799648 
L 1145.427448 757.837537 
L 1146.707308 758.617699 
L 1147.987167 757.975987 
L 1149.267027 758.791367 
L 1150.546887 757.951752 
L 1151.826747 757.830152 
L 1154.386467 758.085127 
L 1156.946186 757.531412 
L 1159.505906 758.220769 
L 1160.785766 757.662032 
L 1162.065626 758.030771 
L 1164.625345 757.814563 
L 1165.905205 757.22688 
L 1167.185065 757.055695 
L 1168.464925 757.085068 
L 1169.744785 756.958025 
L 1171.024645 757.360571 
L 1172.304505 757.161212 
L 1173.584364 757.522827 
L 1174.864224 757.752433 
L 1177.423944 758.545655 
L 1178.703804 758.465305 
L 1179.983664 758.824358 
L 1181.263523 758.78912 
L 1183.823243 759.177958 
L 1185.103103 759.034838 
L 1186.382963 759.039656 
L 1187.662823 759.210307 
L 1188.942683 759.016112 
L 1191.502402 759.438946 
L 1192.782262 758.609886 
L 1194.062122 757.54965 
L 1195.341982 757.961392 
L 1196.621842 758.046335 
L 1197.901701 758.610597 
L 1199.181561 758.098325 
L 1200.461421 757.979061 
L 1201.741281 758.421143 
L 1203.021141 757.786039 
L 1205.58086 757.65022 
L 1209.42044 758.186077 
L 1210.7003 758.628369 
L 1211.98016 758.025722 
L 1213.26002 758.615506 
L 1214.539879 758.871393 
L 1215.819739 758.919803 
L 1218.379459 758.10734 
L 1220.939179 758.450143 
L 1222.219038 758.9972 
L 1223.498898 759.18514 
L 1224.778758 758.667041 
L 1226.058618 758.333338 
L 1227.338478 758.587094 
L 1228.618338 758.543312 
L 1229.898197 758.831982 
L 1231.178057 758.596843 
L 1232.457917 757.996706 
L 1233.737777 758.106003 
L 1235.017637 757.838929 
L 1236.297497 758.196853 
L 1237.577357 758.266724 
L 1240.137076 757.862059 
L 1241.416936 758.196008 
L 1242.696796 758.166829 
L 1243.976656 758.524141 
L 1245.256516 757.775629 
L 1246.536375 757.687472 
L 1250.375955 756.669491 
L 1251.655815 757.348932 
L 1252.935675 757.091706 
L 1254.215535 757.876562 
L 1255.495394 757.726547 
L 1256.775254 758.111039 
L 1258.055114 757.711244 
L 1259.334974 758.521162 
L 1260.614834 758.391678 
L 1261.894694 758.926264 
L 1263.174553 758.806517 
L 1265.734273 758.982475 
L 1267.014133 758.752075 
L 1268.293993 758.847864 
L 1269.573853 758.78693 
L 1270.853713 757.822324 
L 1272.133572 757.948167 
L 1273.413432 757.855292 
L 1274.693292 758.615073 
L 1275.973152 758.525582 
L 1277.253012 757.713062 
L 1279.812731 757.805651 
L 1281.092591 758.099807 
L 1282.372451 757.807269 
L 1283.652311 758.24867 
L 1286.212031 757.545827 
L 1287.49189 757.579144 
L 1288.77175 757.41379 
L 1290.05161 757.852018 
L 1291.33147 758.099167 
L 1293.89119 759.101152 
L 1295.17105 759.344495 
L 1296.450909 758.521513 
L 1297.730769 759.678789 
L 1299.010629 758.727136 
L 1300.290489 758.145341 
L 1301.570349 758.298553 
L 1304.130068 757.889541 
L 1305.409928 758.224544 
L 1306.689788 758.186456 
L 1307.969648 757.931219 
L 1309.249508 757.13468 
L 1310.529368 757.341379 
L 1311.809228 757.72386 
L 1313.089087 757.890687 
L 1314.368947 757.875511 
L 1315.648807 758.14725 
L 1316.928667 758.903387 
L 1318.208527 757.908508 
L 1319.488387 758.281745 
L 1320.768246 757.082642 
L 1322.048106 756.801771 
L 1323.327966 757.047453 
L 1324.607826 757.426853 
L 1325.887686 757.224992 
L 1327.167546 757.620198 
L 1328.447405 757.730269 
L 1329.727265 757.507268 
L 1331.007125 758.239443 
L 1332.286985 758.066272 
L 1334.846705 759.081358 
L 1336.126565 758.792243 
L 1337.406424 759.175304 
L 1338.686284 758.79943 
L 1339.966144 759.385923 
L 1341.246004 759.315518 
L 1342.525864 759.117462 
L 1343.805724 759.219675 
L 1346.365443 758.388751 
L 1347.645303 758.558379 
L 1348.925163 758.523277 
L 1351.484883 759.387014 
L 1352.764743 759.00685 
L 1354.044602 759.016642 
L 1355.324462 758.397604 
L 1356.604322 758.419289 
L 1357.884182 759.067403 
L 1359.164042 759.173257 
L 1360.443902 760.043925 
L 1361.723761 759.64453 
L 1363.003621 759.10026 
L 1364.283481 759.407396 
L 1365.563341 758.831607 
L 1366.843201 758.081685 
L 1368.123061 758.385852 
L 1369.40292 757.676816 
L 1370.68278 757.404992 
L 1371.96264 758.620977 
L 1371.96264 758.620977 
" style="fill:none;stroke:#008000;stroke-linecap:square;stroke-width:2.0;"/>
   </g>
   <g id="patch_3">
    <path d="M 93.382656 57.915781 
L 1373.2425 57.915781 
" style="fill:none;stroke:#000000;stroke-linecap:square;stroke-linejoin:miter;"/>
   </g>
   <g id="patch_4">
    <path d="M 1373.2425 770.338125 
L 1373.2425 57.915781 
" style="fill:none;stroke:#000000;stroke-linecap:square;stroke-linejoin:miter;"/>
   </g>
   <g id="patch_5">
    <path d="M 93.382656 770.338125 
L 1373.2425 770.338125 
" style="fill:none;stroke:#000000;stroke-linecap:square;stroke-linejoin:miter;"/>
   </g>
   <g id="patch_6">
    <path d="M 93.382656 770.338125 
L 93.382656 57.915781 
" style="fill:none;stroke:#000000;stroke-linecap:square;stroke-linejoin:miter;"/>
   </g>
   <g id="matplotlib.axis_1">
    <g id="xtick_1">
     <g id="line2d_3">
      <defs>
       <path d="M 0 0 
L 0 -4 
" id="m69403f9722" style="stroke:#000000;stroke-width:0.5;"/>
      </defs>
      <g>
       <use style="stroke:#000000;stroke-width:0.5;" x="93.38265625" xlink:href="#m69403f9722" y="770.338125"/>
      </g>
     </g>
     <g id="line2d_4">
      <defs>
       <path d="M 0 0 
L 0 4 
" id="m22a6391030" style="stroke:#000000;stroke-width:0.5;"/>
      </defs>
      <g>
       <use style="stroke:#000000;stroke-width:0.5;" x="93.38265625" xlink:href="#m22a6391030" y="57.91578125"/>
      </g>
     </g>
     <g id="text_1">
      <!-- 0 -->
      <defs>
       <path d="M 31.78125 66.40625 
Q 24.171875 66.40625 20.328125 58.90625 
Q 16.5 51.421875 16.5 36.375 
Q 16.5 21.390625 20.328125 13.890625 
Q 24.171875 6.390625 31.78125 6.390625 
Q 39.453125 6.390625 43.28125 13.890625 
Q 47.125 21.390625 47.125 36.375 
Q 47.125 51.421875 43.28125 58.90625 
Q 39.453125 66.40625 31.78125 66.40625 
M 31.78125 74.21875 
Q 44.046875 74.21875 50.515625 64.515625 
Q 56.984375 54.828125 56.984375 36.375 
Q 56.984375 17.96875 50.515625 8.265625 
Q 44.046875 -1.421875 31.78125 -1.421875 
Q 19.53125 -1.421875 13.0625 8.265625 
Q 6.59375 17.96875 6.59375 36.375 
Q 6.59375 54.828125 13.0625 64.515625 
Q 19.53125 74.21875 31.78125 74.21875 
" id="BitstreamVeraSans-Roman-30"/>
      </defs>
      <g transform="translate(83.83890625 797.1334375)scale(0.3 -0.3)">
       <use xlink:href="#BitstreamVeraSans-Roman-30"/>
      </g>
     </g>
    </g>
    <g id="xtick_2">
     <g id="line2d_5">
      <g>
       <use style="stroke:#000000;stroke-width:0.5;" x="349.354625" xlink:href="#m69403f9722" y="770.338125"/>
      </g>
     </g>
     <g id="line2d_6">
      <g>
       <use style="stroke:#000000;stroke-width:0.5;" x="349.354625" xlink:href="#m22a6391030" y="57.91578125"/>
      </g>
     </g>
     <g id="text_2">
      <!-- 200 -->
      <defs>
       <path d="M 19.1875 8.296875 
L 53.609375 8.296875 
L 53.609375 0 
L 7.328125 0 
L 7.328125 8.296875 
Q 12.9375 14.109375 22.625 23.890625 
Q 32.328125 33.6875 34.8125 36.53125 
Q 39.546875 41.84375 41.421875 45.53125 
Q 43.3125 49.21875 43.3125 52.78125 
Q 43.3125 58.59375 39.234375 62.25 
Q 35.15625 65.921875 28.609375 65.921875 
Q 23.96875 65.921875 18.8125 64.3125 
Q 13.671875 62.703125 7.8125 59.421875 
L 7.8125 69.390625 
Q 13.765625 71.78125 18.9375 73 
Q 24.125 74.21875 28.421875 74.21875 
Q 39.75 74.21875 46.484375 68.546875 
Q 53.21875 62.890625 53.21875 53.421875 
Q 53.21875 48.921875 51.53125 44.890625 
Q 49.859375 40.875 45.40625 35.40625 
Q 44.1875 33.984375 37.640625 27.21875 
Q 31.109375 20.453125 19.1875 8.296875 
" id="BitstreamVeraSans-Roman-32"/>
      </defs>
      <g transform="translate(320.723375 797.1334375)scale(0.3 -0.3)">
       <use xlink:href="#BitstreamVeraSans-Roman-32"/>
       <use x="63.623046875" xlink:href="#BitstreamVeraSans-Roman-30"/>
       <use x="127.24609375" xlink:href="#BitstreamVeraSans-Roman-30"/>
      </g>
     </g>
    </g>
    <g id="xtick_3">
     <g id="line2d_7">
      <g>
       <use style="stroke:#000000;stroke-width:0.5;" x="605.32659375" xlink:href="#m69403f9722" y="770.338125"/>
      </g>
     </g>
     <g id="line2d_8">
      <g>
       <use style="stroke:#000000;stroke-width:0.5;" x="605.32659375" xlink:href="#m22a6391030" y="57.91578125"/>
      </g>
     </g>
     <g id="text_3">
      <!-- 400 -->
      <defs>
       <path d="M 37.796875 64.3125 
L 12.890625 25.390625 
L 37.796875 25.390625 
z
M 35.203125 72.90625 
L 47.609375 72.90625 
L 47.609375 25.390625 
L 58.015625 25.390625 
L 58.015625 17.1875 
L 47.609375 17.1875 
L 47.609375 0 
L 37.796875 0 
L 37.796875 17.1875 
L 4.890625 17.1875 
L 4.890625 26.703125 
z
" id="BitstreamVeraSans-Roman-34"/>
      </defs>
      <g transform="translate(576.69534375 797.1334375)scale(0.3 -0.3)">
       <use xlink:href="#BitstreamVeraSans-Roman-34"/>
       <use x="63.623046875" xlink:href="#BitstreamVeraSans-Roman-30"/>
       <use x="127.24609375" xlink:href="#BitstreamVeraSans-Roman-30"/>
      </g>
     </g>
    </g>
    <g id="xtick_4">
     <g id="line2d_9">
      <g>
       <use style="stroke:#000000;stroke-width:0.5;" x="861.2985625" xlink:href="#m69403f9722" y="770.338125"/>
      </g>
     </g>
     <g id="line2d_10">
      <g>
       <use style="stroke:#000000;stroke-width:0.5;" x="861.2985625" xlink:href="#m22a6391030" y="57.91578125"/>
      </g>
     </g>
     <g id="text_4">
      <!-- 600 -->
      <defs>
       <path d="M 33.015625 40.375 
Q 26.375 40.375 22.484375 35.828125 
Q 18.609375 31.296875 18.609375 23.390625 
Q 18.609375 15.53125 22.484375 10.953125 
Q 26.375 6.390625 33.015625 6.390625 
Q 39.65625 6.390625 43.53125 10.953125 
Q 47.40625 15.53125 47.40625 23.390625 
Q 47.40625 31.296875 43.53125 35.828125 
Q 39.65625 40.375 33.015625 40.375 
M 52.59375 71.296875 
L 52.59375 62.3125 
Q 48.875 64.0625 45.09375 64.984375 
Q 41.3125 65.921875 37.59375 65.921875 
Q 27.828125 65.921875 22.671875 59.328125 
Q 17.53125 52.734375 16.796875 39.40625 
Q 19.671875 43.65625 24.015625 45.921875 
Q 28.375 48.1875 33.59375 48.1875 
Q 44.578125 48.1875 50.953125 41.515625 
Q 57.328125 34.859375 57.328125 23.390625 
Q 57.328125 12.15625 50.6875 5.359375 
Q 44.046875 -1.421875 33.015625 -1.421875 
Q 20.359375 -1.421875 13.671875 8.265625 
Q 6.984375 17.96875 6.984375 36.375 
Q 6.984375 53.65625 15.1875 63.9375 
Q 23.390625 74.21875 37.203125 74.21875 
Q 40.921875 74.21875 44.703125 73.484375 
Q 48.484375 72.75 52.59375 71.296875 
" id="BitstreamVeraSans-Roman-36"/>
      </defs>
      <g transform="translate(832.6673125 797.1334375)scale(0.3 -0.3)">
       <use xlink:href="#BitstreamVeraSans-Roman-36"/>
       <use x="63.623046875" xlink:href="#BitstreamVeraSans-Roman-30"/>
       <use x="127.24609375" xlink:href="#BitstreamVeraSans-Roman-30"/>
      </g>
     </g>
    </g>
    <g id="xtick_5">
     <g id="line2d_11">
      <g>
       <use style="stroke:#000000;stroke-width:0.5;" x="1117.27053125" xlink:href="#m69403f9722" y="770.338125"/>
      </g>
     </g>
     <g id="line2d_12">
      <g>
       <use style="stroke:#000000;stroke-width:0.5;" x="1117.27053125" xlink:href="#m22a6391030" y="57.91578125"/>
      </g>
     </g>
     <g id="text_5">
      <!-- 800 -->
      <defs>
       <path d="M 31.78125 34.625 
Q 24.75 34.625 20.71875 30.859375 
Q 16.703125 27.09375 16.703125 20.515625 
Q 16.703125 13.921875 20.71875 10.15625 
Q 24.75 6.390625 31.78125 6.390625 
Q 38.8125 6.390625 42.859375 10.171875 
Q 46.921875 13.96875 46.921875 20.515625 
Q 46.921875 27.09375 42.890625 30.859375 
Q 38.875 34.625 31.78125 34.625 
M 21.921875 38.8125 
Q 15.578125 40.375 12.03125 44.71875 
Q 8.5 49.078125 8.5 55.328125 
Q 8.5 64.0625 14.71875 69.140625 
Q 20.953125 74.21875 31.78125 74.21875 
Q 42.671875 74.21875 48.875 69.140625 
Q 55.078125 64.0625 55.078125 55.328125 
Q 55.078125 49.078125 51.53125 44.71875 
Q 48 40.375 41.703125 38.8125 
Q 48.828125 37.15625 52.796875 32.3125 
Q 56.78125 27.484375 56.78125 20.515625 
Q 56.78125 9.90625 50.3125 4.234375 
Q 43.84375 -1.421875 31.78125 -1.421875 
Q 19.734375 -1.421875 13.25 4.234375 
Q 6.78125 9.90625 6.78125 20.515625 
Q 6.78125 27.484375 10.78125 32.3125 
Q 14.796875 37.15625 21.921875 38.8125 
M 18.3125 54.390625 
Q 18.3125 48.734375 21.84375 45.5625 
Q 25.390625 42.390625 31.78125 42.390625 
Q 38.140625 42.390625 41.71875 45.5625 
Q 45.3125 48.734375 45.3125 54.390625 
Q 45.3125 60.0625 41.71875 63.234375 
Q 38.140625 66.40625 31.78125 66.40625 
Q 25.390625 66.40625 21.84375 63.234375 
Q 18.3125 60.0625 18.3125 54.390625 
" id="BitstreamVeraSans-Roman-38"/>
      </defs>
      <g transform="translate(1088.63928125 797.1334375)scale(0.3 -0.3)">
       <use xlink:href="#BitstreamVeraSans-Roman-38"/>
       <use x="63.623046875" xlink:href="#BitstreamVeraSans-Roman-30"/>
       <use x="127.24609375" xlink:href="#BitstreamVeraSans-Roman-30"/>
      </g>
     </g>
    </g>
    <g id="xtick_6">
     <g id="line2d_13">
      <g>
       <use style="stroke:#000000;stroke-width:0.5;" x="1373.2425" xlink:href="#m69403f9722" y="770.338125"/>
      </g>
     </g>
     <g id="line2d_14">
      <g>
       <use style="stroke:#000000;stroke-width:0.5;" x="1373.2425" xlink:href="#m22a6391030" y="57.91578125"/>
      </g>
     </g>
     <g id="text_6">
      <!-- 1000 -->
      <defs>
       <path d="M 12.40625 8.296875 
L 28.515625 8.296875 
L 28.515625 63.921875 
L 10.984375 60.40625 
L 10.984375 69.390625 
L 28.421875 72.90625 
L 38.28125 72.90625 
L 38.28125 8.296875 
L 54.390625 8.296875 
L 54.390625 0 
L 12.40625 0 
z
" id="BitstreamVeraSans-Roman-31"/>
      </defs>
      <g transform="translate(1335.0675 797.1334375)scale(0.3 -0.3)">
       <use xlink:href="#BitstreamVeraSans-Roman-31"/>
       <use x="63.623046875" xlink:href="#BitstreamVeraSans-Roman-30"/>
       <use x="127.24609375" xlink:href="#BitstreamVeraSans-Roman-30"/>
       <use x="190.869140625" xlink:href="#BitstreamVeraSans-Roman-30"/>
      </g>
     </g>
    </g>
    <g id="text_7">
     <!-- iterations -->
     <defs>
      <path d="M 54.890625 33.015625 
L 54.890625 0 
L 45.90625 0 
L 45.90625 32.71875 
Q 45.90625 40.484375 42.875 44.328125 
Q 39.84375 48.1875 33.796875 48.1875 
Q 26.515625 48.1875 22.3125 43.546875 
Q 18.109375 38.921875 18.109375 30.90625 
L 18.109375 0 
L 9.078125 0 
L 9.078125 54.6875 
L 18.109375 54.6875 
L 18.109375 46.1875 
Q 21.34375 51.125 25.703125 53.5625 
Q 30.078125 56 35.796875 56 
Q 45.21875 56 50.046875 50.171875 
Q 54.890625 44.34375 54.890625 33.015625 
" id="BitstreamVeraSans-Roman-6e"/>
      <path d="M 34.28125 27.484375 
Q 23.390625 27.484375 19.1875 25 
Q 14.984375 22.515625 14.984375 16.5 
Q 14.984375 11.71875 18.140625 8.90625 
Q 21.296875 6.109375 26.703125 6.109375 
Q 34.1875 6.109375 38.703125 11.40625 
Q 43.21875 16.703125 43.21875 25.484375 
L 43.21875 27.484375 
z
M 52.203125 31.203125 
L 52.203125 0 
L 43.21875 0 
L 43.21875 8.296875 
Q 40.140625 3.328125 35.546875 0.953125 
Q 30.953125 -1.421875 24.3125 -1.421875 
Q 15.921875 -1.421875 10.953125 3.296875 
Q 6 8.015625 6 15.921875 
Q 6 25.140625 12.171875 29.828125 
Q 18.359375 34.515625 30.609375 34.515625 
L 43.21875 34.515625 
L 43.21875 35.40625 
Q 43.21875 41.609375 39.140625 45 
Q 35.0625 48.390625 27.6875 48.390625 
Q 23 48.390625 18.546875 47.265625 
Q 14.109375 46.140625 10.015625 43.890625 
L 10.015625 52.203125 
Q 14.9375 54.109375 19.578125 55.046875 
Q 24.21875 56 28.609375 56 
Q 40.484375 56 46.34375 49.84375 
Q 52.203125 43.703125 52.203125 31.203125 
" id="BitstreamVeraSans-Roman-61"/>
      <path d="M 30.609375 48.390625 
Q 23.390625 48.390625 19.1875 42.75 
Q 14.984375 37.109375 14.984375 27.296875 
Q 14.984375 17.484375 19.15625 11.84375 
Q 23.34375 6.203125 30.609375 6.203125 
Q 37.796875 6.203125 41.984375 11.859375 
Q 46.1875 17.53125 46.1875 27.296875 
Q 46.1875 37.015625 41.984375 42.703125 
Q 37.796875 48.390625 30.609375 48.390625 
M 30.609375 56 
Q 42.328125 56 49.015625 48.375 
Q 55.71875 40.765625 55.71875 27.296875 
Q 55.71875 13.875 49.015625 6.21875 
Q 42.328125 -1.421875 30.609375 -1.421875 
Q 18.84375 -1.421875 12.171875 6.21875 
Q 5.515625 13.875 5.515625 27.296875 
Q 5.515625 40.765625 12.171875 48.375 
Q 18.84375 56 30.609375 56 
" id="BitstreamVeraSans-Roman-6f"/>
      <path d="M 9.421875 54.6875 
L 18.40625 54.6875 
L 18.40625 0 
L 9.421875 0 
z
M 9.421875 75.984375 
L 18.40625 75.984375 
L 18.40625 64.59375 
L 9.421875 64.59375 
z
" id="BitstreamVeraSans-Roman-69"/>
      <path d="M 56.203125 29.59375 
L 56.203125 25.203125 
L 14.890625 25.203125 
Q 15.484375 15.921875 20.484375 11.0625 
Q 25.484375 6.203125 34.421875 6.203125 
Q 39.59375 6.203125 44.453125 7.46875 
Q 49.3125 8.734375 54.109375 11.28125 
L 54.109375 2.78125 
Q 49.265625 0.734375 44.1875 -0.34375 
Q 39.109375 -1.421875 33.890625 -1.421875 
Q 20.796875 -1.421875 13.15625 6.1875 
Q 5.515625 13.8125 5.515625 26.8125 
Q 5.515625 40.234375 12.765625 48.109375 
Q 20.015625 56 32.328125 56 
Q 43.359375 56 49.78125 48.890625 
Q 56.203125 41.796875 56.203125 29.59375 
M 47.21875 32.234375 
Q 47.125 39.59375 43.09375 43.984375 
Q 39.0625 48.390625 32.421875 48.390625 
Q 24.90625 48.390625 20.390625 44.140625 
Q 15.875 39.890625 15.1875 32.171875 
z
" id="BitstreamVeraSans-Roman-65"/>
      <path d="M 18.3125 70.21875 
L 18.3125 54.6875 
L 36.8125 54.6875 
L 36.8125 47.703125 
L 18.3125 47.703125 
L 18.3125 18.015625 
Q 18.3125 11.328125 20.140625 9.421875 
Q 21.96875 7.515625 27.59375 7.515625 
L 36.8125 7.515625 
L 36.8125 0 
L 27.59375 0 
Q 17.1875 0 13.234375 3.875 
Q 9.28125 7.765625 9.28125 18.015625 
L 9.28125 47.703125 
L 2.6875 47.703125 
L 2.6875 54.6875 
L 9.28125 54.6875 
L 9.28125 70.21875 
z
" id="BitstreamVeraSans-Roman-74"/>
      <path d="M 41.109375 46.296875 
Q 39.59375 47.171875 37.8125 47.578125 
Q 36.03125 48 33.890625 48 
Q 26.265625 48 22.1875 43.046875 
Q 18.109375 38.09375 18.109375 28.8125 
L 18.109375 0 
L 9.078125 0 
L 9.078125 54.6875 
L 18.109375 54.6875 
L 18.109375 46.1875 
Q 20.953125 51.171875 25.484375 53.578125 
Q 30.03125 56 36.53125 56 
Q 37.453125 56 38.578125 55.875 
Q 39.703125 55.765625 41.0625 55.515625 
z
" id="BitstreamVeraSans-Roman-72"/>
      <path d="M 44.28125 53.078125 
L 44.28125 44.578125 
Q 40.484375 46.53125 36.375 47.5 
Q 32.28125 48.484375 27.875 48.484375 
Q 21.1875 48.484375 17.84375 46.4375 
Q 14.5 44.390625 14.5 40.28125 
Q 14.5 37.15625 16.890625 35.375 
Q 19.28125 33.59375 26.515625 31.984375 
L 29.59375 31.296875 
Q 39.15625 29.25 43.1875 25.515625 
Q 47.21875 21.78125 47.21875 15.09375 
Q 47.21875 7.46875 41.1875 3.015625 
Q 35.15625 -1.421875 24.609375 -1.421875 
Q 20.21875 -1.421875 15.453125 -0.5625 
Q 10.6875 0.296875 5.421875 2 
L 5.421875 11.28125 
Q 10.40625 8.6875 15.234375 7.390625 
Q 20.0625 6.109375 24.8125 6.109375 
Q 31.15625 6.109375 34.5625 8.28125 
Q 37.984375 10.453125 37.984375 14.40625 
Q 37.984375 18.0625 35.515625 20.015625 
Q 33.0625 21.96875 24.703125 23.78125 
L 21.578125 24.515625 
Q 13.234375 26.265625 9.515625 29.90625 
Q 5.8125 33.546875 5.8125 39.890625 
Q 5.8125 47.609375 11.28125 51.796875 
Q 16.75 56 26.8125 56 
Q 31.78125 56 36.171875 55.265625 
Q 40.578125 54.546875 44.28125 53.078125 
" id="BitstreamVeraSans-Roman-73"/>
     </defs>
     <g transform="translate(662.130546875 831.1678125)scale(0.3 -0.3)">
      <use xlink:href="#BitstreamVeraSans-Roman-69"/>
      <use x="27.783203125" xlink:href="#BitstreamVeraSans-Roman-74"/>
      <use x="66.9921875" xlink:href="#BitstreamVeraSans-Roman-65"/>
      <use x="128.515625" xlink:href="#BitstreamVeraSans-Roman-72"/>
      <use x="169.62890625" xlink:href="#BitstreamVeraSans-Roman-61"/>
      <use x="230.908203125" xlink:href="#BitstreamVeraSans-Roman-74"/>
      <use x="270.1171875" xlink:href="#BitstreamVeraSans-Roman-69"/>
      <use x="297.900390625" xlink:href="#BitstreamVeraSans-Roman-6f"/>
      <use x="359.08203125" xlink:href="#BitstreamVeraSans-Roman-6e"/>
      <use x="422.4609375" xlink:href="#BitstreamVeraSans-Roman-73"/>
     </g>
    </g>
   </g>
   <g id="matplotlib.axis_2">
    <g id="ytick_1">
     <g id="line2d_15">
      <defs>
       <path d="M 0 0 
L 4 0 
" id="m0595206599" style="stroke:#000000;stroke-width:0.5;"/>
      </defs>
      <g>
       <use style="stroke:#000000;stroke-width:0.5;" x="93.38265625" xlink:href="#m0595206599" y="770.338125"/>
      </g>
     </g>
     <g id="line2d_16">
      <defs>
       <path d="M 0 0 
L -4 0 
" id="m5bbad15a06" style="stroke:#000000;stroke-width:0.5;"/>
      </defs>
      <g>
       <use style="stroke:#000000;stroke-width:0.5;" x="1373.2425" xlink:href="#m5bbad15a06" y="770.338125"/>
      </g>
     </g>
     <g id="text_8">
      <!-- 60 -->
      <defs>
       <path d="M 10.59375 35.5 
L 73.1875 35.5 
L 73.1875 27.203125 
L 10.59375 27.203125 
z
" id="BitstreamVeraSans-Roman-2212"/>
      </defs>
      <g transform="translate(26.06859375 778.61625)scale(0.3 -0.3)">
       <use xlink:href="#BitstreamVeraSans-Roman-2212"/>
       <use x="83.7890625" xlink:href="#BitstreamVeraSans-Roman-36"/>
       <use x="147.412109375" xlink:href="#BitstreamVeraSans-Roman-30"/>
      </g>
     </g>
    </g>
    <g id="ytick_2">
     <g id="line2d_17">
      <g>
       <use style="stroke:#000000;stroke-width:0.5;" x="93.38265625" xlink:href="#m0595206599" y="681.285332031"/>
      </g>
     </g>
     <g id="line2d_18">
      <g>
       <use style="stroke:#000000;stroke-width:0.5;" x="1373.2425" xlink:href="#m5bbad15a06" y="681.285332031"/>
      </g>
     </g>
     <g id="text_9">
      <!-- 50 -->
      <defs>
       <path d="M 10.796875 72.90625 
L 49.515625 72.90625 
L 49.515625 64.59375 
L 19.828125 64.59375 
L 19.828125 46.734375 
Q 21.96875 47.46875 24.109375 47.828125 
Q 26.265625 48.1875 28.421875 48.1875 
Q 40.625 48.1875 47.75 41.5 
Q 54.890625 34.8125 54.890625 23.390625 
Q 54.890625 11.625 47.5625 5.09375 
Q 40.234375 -1.421875 26.90625 -1.421875 
Q 22.3125 -1.421875 17.546875 -0.640625 
Q 12.796875 0.140625 7.71875 1.703125 
L 7.71875 11.625 
Q 12.109375 9.234375 16.796875 8.0625 
Q 21.484375 6.890625 26.703125 6.890625 
Q 35.15625 6.890625 40.078125 11.328125 
Q 45.015625 15.765625 45.015625 23.390625 
Q 45.015625 31 40.078125 35.4375 
Q 35.15625 39.890625 26.703125 39.890625 
Q 22.75 39.890625 18.8125 39.015625 
Q 14.890625 38.140625 10.796875 36.28125 
z
" id="BitstreamVeraSans-Roman-35"/>
      </defs>
      <g transform="translate(26.06859375 689.563457031)scale(0.3 -0.3)">
       <use xlink:href="#BitstreamVeraSans-Roman-2212"/>
       <use x="83.7890625" xlink:href="#BitstreamVeraSans-Roman-35"/>
       <use x="147.412109375" xlink:href="#BitstreamVeraSans-Roman-30"/>
      </g>
     </g>
    </g>
    <g id="ytick_3">
     <g id="line2d_19">
      <g>
       <use style="stroke:#000000;stroke-width:0.5;" x="93.38265625" xlink:href="#m0595206599" y="592.232539062"/>
      </g>
     </g>
     <g id="line2d_20">
      <g>
       <use style="stroke:#000000;stroke-width:0.5;" x="1373.2425" xlink:href="#m5bbad15a06" y="592.232539062"/>
      </g>
     </g>
     <g id="text_10">
      <!-- 40 -->
      <g transform="translate(26.06859375 600.510664062)scale(0.3 -0.3)">
       <use xlink:href="#BitstreamVeraSans-Roman-2212"/>
       <use x="83.7890625" xlink:href="#BitstreamVeraSans-Roman-34"/>
       <use x="147.412109375" xlink:href="#BitstreamVeraSans-Roman-30"/>
      </g>
     </g>
    </g>
    <g id="ytick_4">
     <g id="line2d_21">
      <g>
       <use style="stroke:#000000;stroke-width:0.5;" x="93.38265625" xlink:href="#m0595206599" y="503.179746094"/>
      </g>
     </g>
     <g id="line2d_22">
      <g>
       <use style="stroke:#000000;stroke-width:0.5;" x="1373.2425" xlink:href="#m5bbad15a06" y="503.179746094"/>
      </g>
     </g>
     <g id="text_11">
      <!-- 30 -->
      <defs>
       <path d="M 40.578125 39.3125 
Q 47.65625 37.796875 51.625 33 
Q 55.609375 28.21875 55.609375 21.1875 
Q 55.609375 10.40625 48.1875 4.484375 
Q 40.765625 -1.421875 27.09375 -1.421875 
Q 22.515625 -1.421875 17.65625 -0.515625 
Q 12.796875 0.390625 7.625 2.203125 
L 7.625 11.71875 
Q 11.71875 9.328125 16.59375 8.109375 
Q 21.484375 6.890625 26.8125 6.890625 
Q 36.078125 6.890625 40.9375 10.546875 
Q 45.796875 14.203125 45.796875 21.1875 
Q 45.796875 27.640625 41.28125 31.265625 
Q 36.765625 34.90625 28.71875 34.90625 
L 20.21875 34.90625 
L 20.21875 43.015625 
L 29.109375 43.015625 
Q 36.375 43.015625 40.234375 45.921875 
Q 44.09375 48.828125 44.09375 54.296875 
Q 44.09375 59.90625 40.109375 62.90625 
Q 36.140625 65.921875 28.71875 65.921875 
Q 24.65625 65.921875 20.015625 65.03125 
Q 15.375 64.15625 9.8125 62.3125 
L 9.8125 71.09375 
Q 15.4375 72.65625 20.34375 73.4375 
Q 25.25 74.21875 29.59375 74.21875 
Q 40.828125 74.21875 47.359375 69.109375 
Q 53.90625 64.015625 53.90625 55.328125 
Q 53.90625 49.265625 50.4375 45.09375 
Q 46.96875 40.921875 40.578125 39.3125 
" id="BitstreamVeraSans-Roman-33"/>
      </defs>
      <g transform="translate(26.06859375 511.457871094)scale(0.3 -0.3)">
       <use xlink:href="#BitstreamVeraSans-Roman-2212"/>
       <use x="83.7890625" xlink:href="#BitstreamVeraSans-Roman-33"/>
       <use x="147.412109375" xlink:href="#BitstreamVeraSans-Roman-30"/>
      </g>
     </g>
    </g>
    <g id="ytick_5">
     <g id="line2d_23">
      <g>
       <use style="stroke:#000000;stroke-width:0.5;" x="93.38265625" xlink:href="#m0595206599" y="414.126953125"/>
      </g>
     </g>
     <g id="line2d_24">
      <g>
       <use style="stroke:#000000;stroke-width:0.5;" x="1373.2425" xlink:href="#m5bbad15a06" y="414.126953125"/>
      </g>
     </g>
     <g id="text_12">
      <!-- 20 -->
      <g transform="translate(26.06859375 422.405078125)scale(0.3 -0.3)">
       <use xlink:href="#BitstreamVeraSans-Roman-2212"/>
       <use x="83.7890625" xlink:href="#BitstreamVeraSans-Roman-32"/>
       <use x="147.412109375" xlink:href="#BitstreamVeraSans-Roman-30"/>
      </g>
     </g>
    </g>
    <g id="ytick_6">
     <g id="line2d_25">
      <g>
       <use style="stroke:#000000;stroke-width:0.5;" x="93.38265625" xlink:href="#m0595206599" y="325.074160156"/>
      </g>
     </g>
     <g id="line2d_26">
      <g>
       <use style="stroke:#000000;stroke-width:0.5;" x="1373.2425" xlink:href="#m5bbad15a06" y="325.074160156"/>
      </g>
     </g>
     <g id="text_13">
      <!-- 10 -->
      <g transform="translate(26.06859375 333.352285156)scale(0.3 -0.3)">
       <use xlink:href="#BitstreamVeraSans-Roman-2212"/>
       <use x="83.7890625" xlink:href="#BitstreamVeraSans-Roman-31"/>
       <use x="147.412109375" xlink:href="#BitstreamVeraSans-Roman-30"/>
      </g>
     </g>
    </g>
    <g id="ytick_7">
     <g id="line2d_27">
      <g>
       <use style="stroke:#000000;stroke-width:0.5;" x="93.38265625" xlink:href="#m0595206599" y="236.021367188"/>
      </g>
     </g>
     <g id="line2d_28">
      <g>
       <use style="stroke:#000000;stroke-width:0.5;" x="1373.2425" xlink:href="#m5bbad15a06" y="236.021367188"/>
      </g>
     </g>
     <g id="text_14">
      <!-- 0 -->
      <g transform="translate(70.29515625 244.299492188)scale(0.3 -0.3)">
       <use xlink:href="#BitstreamVeraSans-Roman-30"/>
      </g>
     </g>
    </g>
    <g id="ytick_8">
     <g id="line2d_29">
      <g>
       <use style="stroke:#000000;stroke-width:0.5;" x="93.38265625" xlink:href="#m0595206599" y="146.968574219"/>
      </g>
     </g>
     <g id="line2d_30">
      <g>
       <use style="stroke:#000000;stroke-width:0.5;" x="1373.2425" xlink:href="#m5bbad15a06" y="146.968574219"/>
      </g>
     </g>
     <g id="text_15">
      <!-- 10 -->
      <g transform="translate(51.20765625 155.246699219)scale(0.3 -0.3)">
       <use xlink:href="#BitstreamVeraSans-Roman-31"/>
       <use x="63.623046875" xlink:href="#BitstreamVeraSans-Roman-30"/>
      </g>
     </g>
    </g>
    <g id="ytick_9">
     <g id="line2d_31">
      <g>
       <use style="stroke:#000000;stroke-width:0.5;" x="93.38265625" xlink:href="#m0595206599" y="57.91578125"/>
      </g>
     </g>
     <g id="line2d_32">
      <g>
       <use style="stroke:#000000;stroke-width:0.5;" x="1373.2425" xlink:href="#m5bbad15a06" y="57.91578125"/>
      </g>
     </g>
     <g id="text_16">
      <!-- 20 -->
      <g transform="translate(51.20765625 66.19390625)scale(0.3 -0.3)">
       <use xlink:href="#BitstreamVeraSans-Roman-32"/>
       <use x="63.623046875" xlink:href="#BitstreamVeraSans-Roman-30"/>
      </g>
     </g>
    </g>
   </g>
   <g id="text_17">
    <!-- log(loss) -->
    <defs>
     <path d="M 8.015625 75.875 
L 15.828125 75.875 
Q 23.140625 64.359375 26.78125 53.3125 
Q 30.421875 42.28125 30.421875 31.390625 
Q 30.421875 20.453125 26.78125 9.375 
Q 23.140625 -1.703125 15.828125 -13.1875 
L 8.015625 -13.1875 
Q 14.5 -2 17.703125 9.0625 
Q 20.90625 20.125 20.90625 31.390625 
Q 20.90625 42.671875 17.703125 53.65625 
Q 14.5 64.65625 8.015625 75.875 
" id="BitstreamVeraSans-Roman-29"/>
     <path d="M 31 75.875 
Q 24.46875 64.65625 21.28125 53.65625 
Q 18.109375 42.671875 18.109375 31.390625 
Q 18.109375 20.125 21.3125 9.0625 
Q 24.515625 -2 31 -13.1875 
L 23.1875 -13.1875 
Q 15.875 -1.703125 12.234375 9.375 
Q 8.59375 20.453125 8.59375 31.390625 
Q 8.59375 42.28125 12.203125 53.3125 
Q 15.828125 64.359375 23.1875 75.875 
z
" id="BitstreamVeraSans-Roman-28"/>
     <path d="M 45.40625 27.984375 
Q 45.40625 37.75 41.375 43.109375 
Q 37.359375 48.484375 30.078125 48.484375 
Q 22.859375 48.484375 18.828125 43.109375 
Q 14.796875 37.75 14.796875 27.984375 
Q 14.796875 18.265625 18.828125 12.890625 
Q 22.859375 7.515625 30.078125 7.515625 
Q 37.359375 7.515625 41.375 12.890625 
Q 45.40625 18.265625 45.40625 27.984375 
M 54.390625 6.78125 
Q 54.390625 -7.171875 48.1875 -13.984375 
Q 42 -20.796875 29.203125 -20.796875 
Q 24.46875 -20.796875 20.265625 -20.09375 
Q 16.0625 -19.390625 12.109375 -17.921875 
L 12.109375 -9.1875 
Q 16.0625 -11.328125 19.921875 -12.34375 
Q 23.78125 -13.375 27.78125 -13.375 
Q 36.625 -13.375 41.015625 -8.765625 
Q 45.40625 -4.15625 45.40625 5.171875 
L 45.40625 9.625 
Q 42.625 4.78125 38.28125 2.390625 
Q 33.9375 0 27.875 0 
Q 17.828125 0 11.671875 7.65625 
Q 5.515625 15.328125 5.515625 27.984375 
Q 5.515625 40.671875 11.671875 48.328125 
Q 17.828125 56 27.875 56 
Q 33.9375 56 38.28125 53.609375 
Q 42.625 51.21875 45.40625 46.390625 
L 45.40625 54.6875 
L 54.390625 54.6875 
z
" id="BitstreamVeraSans-Roman-67"/>
     <path d="M 9.421875 75.984375 
L 18.40625 75.984375 
L 18.40625 0 
L 9.421875 0 
z
" id="BitstreamVeraSans-Roman-6c"/>
    </defs>
    <g transform="translate(669.766484375 52.91578125)scale(0.3 -0.3)">
     <use xlink:href="#BitstreamVeraSans-Roman-6c"/>
     <use x="27.783203125" xlink:href="#BitstreamVeraSans-Roman-6f"/>
     <use x="88.96484375" xlink:href="#BitstreamVeraSans-Roman-67"/>
     <use x="152.44140625" xlink:href="#BitstreamVeraSans-Roman-28"/>
     <use x="191.455078125" xlink:href="#BitstreamVeraSans-Roman-6c"/>
     <use x="219.23828125" xlink:href="#BitstreamVeraSans-Roman-6f"/>
     <use x="280.419921875" xlink:href="#BitstreamVeraSans-Roman-73"/>
     <use x="332.51953125" xlink:href="#BitstreamVeraSans-Roman-73"/>
     <use x="384.619140625" xlink:href="#BitstreamVeraSans-Roman-29"/>
    </g>
   </g>
   <g id="legend_1">
    <g id="patch_7">
     <path d="M 1133.889375 169.984531 
L 1358.2425 169.984531 
L 1358.2425 72.915781 
L 1133.889375 72.915781 
z
" style="fill:#ffffff;stroke:#000000;stroke-linejoin:miter;"/>
    </g>
    <g id="line2d_33">
     <path d="M 1154.889375 97.211094 
L 1196.889375 97.211094 
" style="fill:none;stroke:#0000ff;stroke-linecap:square;stroke-width:2.0;"/>
    </g>
    <g id="line2d_34"/>
    <g id="text_18">
     <!-- random -->
     <defs>
      <path d="M 45.40625 46.390625 
L 45.40625 75.984375 
L 54.390625 75.984375 
L 54.390625 0 
L 45.40625 0 
L 45.40625 8.203125 
Q 42.578125 3.328125 38.25 0.953125 
Q 33.9375 -1.421875 27.875 -1.421875 
Q 17.96875 -1.421875 11.734375 6.484375 
Q 5.515625 14.40625 5.515625 27.296875 
Q 5.515625 40.1875 11.734375 48.09375 
Q 17.96875 56 27.875 56 
Q 33.9375 56 38.25 53.625 
Q 42.578125 51.265625 45.40625 46.390625 
M 14.796875 27.296875 
Q 14.796875 17.390625 18.875 11.75 
Q 22.953125 6.109375 30.078125 6.109375 
Q 37.203125 6.109375 41.296875 11.75 
Q 45.40625 17.390625 45.40625 27.296875 
Q 45.40625 37.203125 41.296875 42.84375 
Q 37.203125 48.484375 30.078125 48.484375 
Q 22.953125 48.484375 18.875 42.84375 
Q 14.796875 37.203125 14.796875 27.296875 
" id="BitstreamVeraSans-Roman-64"/>
      <path d="M 52 44.1875 
Q 55.375 50.25 60.0625 53.125 
Q 64.75 56 71.09375 56 
Q 79.640625 56 84.28125 50.015625 
Q 88.921875 44.046875 88.921875 33.015625 
L 88.921875 0 
L 79.890625 0 
L 79.890625 32.71875 
Q 79.890625 40.578125 77.09375 44.375 
Q 74.3125 48.1875 68.609375 48.1875 
Q 61.625 48.1875 57.5625 43.546875 
Q 53.515625 38.921875 53.515625 30.90625 
L 53.515625 0 
L 44.484375 0 
L 44.484375 32.71875 
Q 44.484375 40.625 41.703125 44.40625 
Q 38.921875 48.1875 33.109375 48.1875 
Q 26.21875 48.1875 22.15625 43.53125 
Q 18.109375 38.875 18.109375 30.90625 
L 18.109375 0 
L 9.078125 0 
L 9.078125 54.6875 
L 18.109375 54.6875 
L 18.109375 46.1875 
Q 21.1875 51.21875 25.484375 53.609375 
Q 29.78125 56 35.6875 56 
Q 41.65625 56 45.828125 52.96875 
Q 50 49.953125 52 44.1875 
" id="BitstreamVeraSans-Roman-6d"/>
     </defs>
     <g transform="translate(1229.889375 107.71109375)scale(0.3 -0.3)">
      <use xlink:href="#BitstreamVeraSans-Roman-72"/>
      <use x="41.11328125" xlink:href="#BitstreamVeraSans-Roman-61"/>
      <use x="102.392578125" xlink:href="#BitstreamVeraSans-Roman-6e"/>
      <use x="165.771484375" xlink:href="#BitstreamVeraSans-Roman-64"/>
      <use x="229.248046875" xlink:href="#BitstreamVeraSans-Roman-6f"/>
      <use x="290.4296875" xlink:href="#BitstreamVeraSans-Roman-6d"/>
     </g>
    </g>
    <g id="line2d_35">
     <path d="M 1154.889375 141.245469 
L 1196.889375 141.245469 
" style="fill:none;stroke:#008000;stroke-linecap:square;stroke-width:2.0;"/>
    </g>
    <g id="line2d_36"/>
    <g id="text_19">
     <!-- corr -->
     <defs>
      <path d="M 48.78125 52.59375 
L 48.78125 44.1875 
Q 44.96875 46.296875 41.140625 47.34375 
Q 37.3125 48.390625 33.40625 48.390625 
Q 24.65625 48.390625 19.8125 42.84375 
Q 14.984375 37.3125 14.984375 27.296875 
Q 14.984375 17.28125 19.8125 11.734375 
Q 24.65625 6.203125 33.40625 6.203125 
Q 37.3125 6.203125 41.140625 7.25 
Q 44.96875 8.296875 48.78125 10.40625 
L 48.78125 2.09375 
Q 45.015625 0.34375 40.984375 -0.53125 
Q 36.96875 -1.421875 32.421875 -1.421875 
Q 20.0625 -1.421875 12.78125 6.34375 
Q 5.515625 14.109375 5.515625 27.296875 
Q 5.515625 40.671875 12.859375 48.328125 
Q 20.21875 56 33.015625 56 
Q 37.15625 56 41.109375 55.140625 
Q 45.0625 54.296875 48.78125 52.59375 
" id="BitstreamVeraSans-Roman-63"/>
     </defs>
     <g transform="translate(1229.889375 151.74546875)scale(0.3 -0.3)">
      <use xlink:href="#BitstreamVeraSans-Roman-63"/>
      <use x="54.98046875" xlink:href="#BitstreamVeraSans-Roman-6f"/>
      <use x="116.162109375" xlink:href="#BitstreamVeraSans-Roman-72"/>
      <use x="157.259765625" xlink:href="#BitstreamVeraSans-Roman-72"/>
     </g>
    </g>
   </g>
  </g>
 </g>
 <defs>
  <clipPath id="p6cb5589886">
   <rect height="712.42234375" width="1279.85984375" x="93.38265625" y="57.91578125"/>
  </clipPath>
 </defs>
</svg>
