<?xml version="1.0" encoding="utf-8" standalone="no"?>
<!DOCTYPE svg PUBLIC "-//W3C//DTD SVG 1.1//EN"
  "http://www.w3.org/Graphics/SVG/1.1/DTD/svg11.dtd">
<!-- Created with matplotlib (http://matplotlib.org/) -->
<svg height="864pt" version="1.1" viewBox="0 0 1440 864" width="1440pt" xmlns="http://www.w3.org/2000/svg" xmlns:xlink="http://www.w3.org/1999/xlink">
 <defs>
  <style type="text/css">
*{stroke-linecap:butt;stroke-linejoin:round;stroke-miterlimit:100000;}
  </style>
 </defs>
 <g id="figure_1">
  <g id="patch_1">
   <path d="M 0 864 
L 1440 864 
L 1440 0 
L 0 0 
z
" style="fill:#ffffff;"/>
  </g>
  <g id="axes_1">
   <g id="patch_2">
    <path d="M 70.7575 770.338125 
L 1381.831875 770.338125 
L 1381.831875 57.915781 
L 70.7575 57.915781 
z
" style="fill:#ffffff;"/>
   </g>
   <g id="line2d_1">
    <path clip-path="url(#pd460cac06d)" d="M 70.7575 155.386626 
L 83.868244 165.186363 
L 96.978987 174.042456 
L 110.089731 179.986178 
L 123.200475 187.902357 
L 136.311219 193.587692 
L 149.421963 202.158715 
L 162.532706 208.646553 
L 175.64345 213.439431 
L 188.754194 221.813292 
L 201.864937 227.01462 
L 214.975681 234.752695 
L 228.086425 242.861938 
L 241.197169 251.146337 
L 254.307913 258.040154 
L 267.418656 263.63401 
L 280.5294 267.948349 
L 293.640144 275.930344 
L 306.750887 283.880065 
L 319.861631 290.68542 
L 332.972375 297.368691 
L 346.083119 303.184455 
L 359.193863 309.355235 
L 372.304606 315.421315 
L 385.41535 321.429713 
L 398.526094 325.386177 
L 411.636838 330.410041 
L 424.747581 336.250136 
L 437.858325 342.522818 
L 450.969069 349.793422 
L 464.079813 353.691855 
L 477.190556 356.916779 
L 490.3013 363.338239 
L 503.412044 368.978251 
L 516.522788 375.663352 
L 529.633531 380.105612 
L 542.744275 386.130798 
L 555.855019 392.322911 
L 568.965762 398.092346 
L 582.076506 404.643775 
L 595.18725 411.333497 
L 608.297994 418.220537 
L 621.408738 422.875393 
L 634.519481 427.778194 
L 647.630225 434.584911 
L 660.740969 442.405903 
L 673.851713 448.110928 
L 686.962456 453.074723 
L 700.0732 458.156873 
L 713.183944 463.091971 
L 726.294688 469.873296 
L 739.405431 476.094137 
L 752.516175 482.136973 
L 765.626919 487.742197 
L 778.737662 492.623966 
L 791.848406 496.781303 
L 804.95915 501.078661 
L 818.069894 506.220561 
L 831.180638 511.335959 
L 844.291381 516.599752 
L 857.402125 521.432448 
L 870.512869 526.89558 
L 883.623613 530.022162 
L 896.734356 535.59605 
L 909.8451 542.217192 
L 922.955844 547.648051 
L 936.066587 551.436114 
L 949.177331 554.744024 
L 962.288075 559.908297 
L 975.398819 563.658731 
L 988.509563 568.955663 
L 1001.620306 575.246906 
L 1014.73105 579.736122 
L 1027.841794 584.373704 
L 1040.952538 588.897511 
L 1054.063281 595.144928 
L 1067.174025 599.560515 
L 1080.284769 604.630467 
L 1093.395512 609.78649 
L 1106.506256 614.231427 
L 1119.617 618.958301 
L 1132.727744 622.752338 
L 1145.838487 626.034353 
L 1158.949231 630.659718 
L 1172.059975 635.161836 
L 1185.170719 637.857912 
L 1198.281463 643.11851 
L 1211.392206 649.036076 
L 1224.50295 655.841337 
L 1237.613694 659.397805 
L 1250.724438 665.099106 
L 1263.835181 669.880408 
L 1276.945925 674.258278 
L 1290.056669 679.933338 
L 1303.167412 684.807688 
L 1316.278156 692.100927 
L 1329.3889 696.476579 
L 1342.499644 701.601696 
L 1355.610388 706.634149 
L 1368.721131 709.673453 
" style="fill:none;stroke:#0000ff;stroke-linecap:square;stroke-width:2.0;"/>
   </g>
   <g id="line2d_2">
    <path clip-path="url(#pd460cac06d)" d="M 70.7575 148.711633 
L 83.868244 157.409316 
L 96.978987 166.503242 
L 110.089731 175.807516 
L 123.200475 181.955899 
L 136.311219 191.981474 
L 149.421963 199.812207 
L 162.532706 207.976365 
L 175.64345 214.340586 
L 188.754194 222.167716 
L 201.864937 227.95698 
L 214.975681 233.187351 
L 228.086425 240.866208 
L 241.197169 247.751063 
L 254.307913 255.172097 
L 267.418656 262.538822 
L 280.5294 269.509078 
L 293.640144 275.767454 
L 306.750887 281.982619 
L 319.861631 288.885529 
L 332.972375 294.556714 
L 346.083119 301.471169 
L 359.193863 305.184318 
L 372.304606 311.493527 
L 385.41535 317.773693 
L 398.526094 324.985088 
L 411.636838 330.758233 
L 424.747581 337.265657 
L 437.858325 343.267451 
L 450.969069 347.487909 
L 464.079813 352.579621 
L 477.190556 356.443404 
L 490.3013 362.609745 
L 503.412044 367.706641 
L 516.522788 373.243171 
L 529.633531 378.744425 
L 542.744275 385.017221 
L 555.855019 392.578447 
L 568.965762 398.002469 
L 582.076506 404.096822 
L 595.18725 410.966157 
L 608.297994 416.052803 
L 621.408738 421.452848 
L 634.519481 426.665864 
L 647.630225 430.966996 
L 660.740969 435.881867 
L 673.851713 442.461469 
L 686.962456 446.807347 
L 700.0732 451.896122 
L 713.183944 455.559007 
L 726.294688 460.802157 
L 739.405431 467.122796 
L 752.516175 473.595455 
L 765.626919 477.826444 
L 778.737662 482.348707 
L 791.848406 487.380552 
L 804.95915 493.343633 
L 818.069894 498.080243 
L 831.180638 503.832567 
L 844.291381 508.103194 
L 857.402125 512.517512 
L 870.512869 517.934775 
L 883.623613 522.133314 
L 896.734356 526.853415 
L 909.8451 531.464035 
L 922.955844 535.256641 
L 936.066587 539.074706 
L 949.177331 543.069418 
L 962.288075 547.534091 
L 975.398819 553.003177 
L 988.509563 558.227181 
L 1001.620306 563.675968 
L 1014.73105 565.637387 
L 1027.841794 569.203905 
L 1040.952538 574.062517 
L 1054.063281 580.276285 
L 1067.174025 585.866557 
L 1080.284769 590.334882 
L 1093.395512 595.592272 
L 1106.506256 601.811034 
L 1119.617 605.98541 
L 1132.727744 608.854804 
L 1145.838487 613.347793 
L 1158.949231 620.461142 
L 1172.059975 624.113065 
L 1185.170719 628.429733 
L 1198.281463 632.335072 
L 1211.392206 634.993096 
L 1224.50295 639.558581 
L 1237.613694 644.236111 
L 1250.724438 648.997019 
L 1263.835181 653.674161 
L 1276.945925 659.519085 
L 1290.056669 664.860938 
L 1303.167412 670.094072 
L 1316.278156 674.61027 
L 1329.3889 678.412844 
L 1342.499644 683.97728 
L 1355.610388 688.907702 
L 1368.721131 693.312983 
" style="fill:none;stroke:#008000;stroke-linecap:square;stroke-width:2.0;"/>
   </g>
   <g id="patch_3">
    <path d="M 70.7575 57.915781 
L 1381.831875 57.915781 
" style="fill:none;stroke:#000000;stroke-linecap:square;stroke-linejoin:miter;"/>
   </g>
   <g id="patch_4">
    <path d="M 1381.831875 770.338125 
L 1381.831875 57.915781 
" style="fill:none;stroke:#000000;stroke-linecap:square;stroke-linejoin:miter;"/>
   </g>
   <g id="patch_5">
    <path d="M 70.7575 770.338125 
L 1381.831875 770.338125 
" style="fill:none;stroke:#000000;stroke-linecap:square;stroke-linejoin:miter;"/>
   </g>
   <g id="patch_6">
    <path d="M 70.7575 770.338125 
L 70.7575 57.915781 
" style="fill:none;stroke:#000000;stroke-linecap:square;stroke-linejoin:miter;"/>
   </g>
   <g id="matplotlib.axis_1">
    <g id="xtick_1">
     <g id="line2d_3">
      <defs>
       <path d="M 0 0 
L 0 -4 
" id="mc10b713a50" style="stroke:#000000;stroke-width:0.5;"/>
      </defs>
      <g>
       <use style="stroke:#000000;stroke-width:0.5;" x="70.7575" xlink:href="#mc10b713a50" y="770.338125"/>
      </g>
     </g>
     <g id="line2d_4">
      <defs>
       <path d="M 0 0 
L 0 4 
" id="m021854a56c" style="stroke:#000000;stroke-width:0.5;"/>
      </defs>
      <g>
       <use style="stroke:#000000;stroke-width:0.5;" x="70.7575" xlink:href="#m021854a56c" y="57.91578125"/>
      </g>
     </g>
     <g id="text_1">
      <!-- 0 -->
      <defs>
       <path d="M 31.78125 66.40625 
Q 24.171875 66.40625 20.328125 58.90625 
Q 16.5 51.421875 16.5 36.375 
Q 16.5 21.390625 20.328125 13.890625 
Q 24.171875 6.390625 31.78125 6.390625 
Q 39.453125 6.390625 43.28125 13.890625 
Q 47.125 21.390625 47.125 36.375 
Q 47.125 51.421875 43.28125 58.90625 
Q 39.453125 66.40625 31.78125 66.40625 
M 31.78125 74.21875 
Q 44.046875 74.21875 50.515625 64.515625 
Q 56.984375 54.828125 56.984375 36.375 
Q 56.984375 17.96875 50.515625 8.265625 
Q 44.046875 -1.421875 31.78125 -1.421875 
Q 19.53125 -1.421875 13.0625 8.265625 
Q 6.59375 17.96875 6.59375 36.375 
Q 6.59375 54.828125 13.0625 64.515625 
Q 19.53125 74.21875 31.78125 74.21875 
" id="BitstreamVeraSans-Roman-30"/>
      </defs>
      <g transform="translate(61.21375 797.1334375)scale(0.3 -0.3)">
       <use xlink:href="#BitstreamVeraSans-Roman-30"/>
      </g>
     </g>
    </g>
    <g id="xtick_2">
     <g id="line2d_5">
      <g>
       <use style="stroke:#000000;stroke-width:0.5;" x="332.972375" xlink:href="#mc10b713a50" y="770.338125"/>
      </g>
     </g>
     <g id="line2d_6">
      <g>
       <use style="stroke:#000000;stroke-width:0.5;" x="332.972375" xlink:href="#m021854a56c" y="57.91578125"/>
      </g>
     </g>
     <g id="text_2">
      <!-- 20 -->
      <defs>
       <path d="M 19.1875 8.296875 
L 53.609375 8.296875 
L 53.609375 0 
L 7.328125 0 
L 7.328125 8.296875 
Q 12.9375 14.109375 22.625 23.890625 
Q 32.328125 33.6875 34.8125 36.53125 
Q 39.546875 41.84375 41.421875 45.53125 
Q 43.3125 49.21875 43.3125 52.78125 
Q 43.3125 58.59375 39.234375 62.25 
Q 35.15625 65.921875 28.609375 65.921875 
Q 23.96875 65.921875 18.8125 64.3125 
Q 13.671875 62.703125 7.8125 59.421875 
L 7.8125 69.390625 
Q 13.765625 71.78125 18.9375 73 
Q 24.125 74.21875 28.421875 74.21875 
Q 39.75 74.21875 46.484375 68.546875 
Q 53.21875 62.890625 53.21875 53.421875 
Q 53.21875 48.921875 51.53125 44.890625 
Q 49.859375 40.875 45.40625 35.40625 
Q 44.1875 33.984375 37.640625 27.21875 
Q 31.109375 20.453125 19.1875 8.296875 
" id="BitstreamVeraSans-Roman-32"/>
      </defs>
      <g transform="translate(313.884875 797.1334375)scale(0.3 -0.3)">
       <use xlink:href="#BitstreamVeraSans-Roman-32"/>
       <use x="63.623046875" xlink:href="#BitstreamVeraSans-Roman-30"/>
      </g>
     </g>
    </g>
    <g id="xtick_3">
     <g id="line2d_7">
      <g>
       <use style="stroke:#000000;stroke-width:0.5;" x="595.18725" xlink:href="#mc10b713a50" y="770.338125"/>
      </g>
     </g>
     <g id="line2d_8">
      <g>
       <use style="stroke:#000000;stroke-width:0.5;" x="595.18725" xlink:href="#m021854a56c" y="57.91578125"/>
      </g>
     </g>
     <g id="text_3">
      <!-- 40 -->
      <defs>
       <path d="M 37.796875 64.3125 
L 12.890625 25.390625 
L 37.796875 25.390625 
z
M 35.203125 72.90625 
L 47.609375 72.90625 
L 47.609375 25.390625 
L 58.015625 25.390625 
L 58.015625 17.1875 
L 47.609375 17.1875 
L 47.609375 0 
L 37.796875 0 
L 37.796875 17.1875 
L 4.890625 17.1875 
L 4.890625 26.703125 
z
" id="BitstreamVeraSans-Roman-34"/>
      </defs>
      <g transform="translate(576.09975 797.1334375)scale(0.3 -0.3)">
       <use xlink:href="#BitstreamVeraSans-Roman-34"/>
       <use x="63.623046875" xlink:href="#BitstreamVeraSans-Roman-30"/>
      </g>
     </g>
    </g>
    <g id="xtick_4">
     <g id="line2d_9">
      <g>
       <use style="stroke:#000000;stroke-width:0.5;" x="857.402125" xlink:href="#mc10b713a50" y="770.338125"/>
      </g>
     </g>
     <g id="line2d_10">
      <g>
       <use style="stroke:#000000;stroke-width:0.5;" x="857.402125" xlink:href="#m021854a56c" y="57.91578125"/>
      </g>
     </g>
     <g id="text_4">
      <!-- 60 -->
      <defs>
       <path d="M 33.015625 40.375 
Q 26.375 40.375 22.484375 35.828125 
Q 18.609375 31.296875 18.609375 23.390625 
Q 18.609375 15.53125 22.484375 10.953125 
Q 26.375 6.390625 33.015625 6.390625 
Q 39.65625 6.390625 43.53125 10.953125 
Q 47.40625 15.53125 47.40625 23.390625 
Q 47.40625 31.296875 43.53125 35.828125 
Q 39.65625 40.375 33.015625 40.375 
M 52.59375 71.296875 
L 52.59375 62.3125 
Q 48.875 64.0625 45.09375 64.984375 
Q 41.3125 65.921875 37.59375 65.921875 
Q 27.828125 65.921875 22.671875 59.328125 
Q 17.53125 52.734375 16.796875 39.40625 
Q 19.671875 43.65625 24.015625 45.921875 
Q 28.375 48.1875 33.59375 48.1875 
Q 44.578125 48.1875 50.953125 41.515625 
Q 57.328125 34.859375 57.328125 23.390625 
Q 57.328125 12.15625 50.6875 5.359375 
Q 44.046875 -1.421875 33.015625 -1.421875 
Q 20.359375 -1.421875 13.671875 8.265625 
Q 6.984375 17.96875 6.984375 36.375 
Q 6.984375 53.65625 15.1875 63.9375 
Q 23.390625 74.21875 37.203125 74.21875 
Q 40.921875 74.21875 44.703125 73.484375 
Q 48.484375 72.75 52.59375 71.296875 
" id="BitstreamVeraSans-Roman-36"/>
      </defs>
      <g transform="translate(838.314625 797.1334375)scale(0.3 -0.3)">
       <use xlink:href="#BitstreamVeraSans-Roman-36"/>
       <use x="63.623046875" xlink:href="#BitstreamVeraSans-Roman-30"/>
      </g>
     </g>
    </g>
    <g id="xtick_5">
     <g id="line2d_11">
      <g>
       <use style="stroke:#000000;stroke-width:0.5;" x="1119.617" xlink:href="#mc10b713a50" y="770.338125"/>
      </g>
     </g>
     <g id="line2d_12">
      <g>
       <use style="stroke:#000000;stroke-width:0.5;" x="1119.617" xlink:href="#m021854a56c" y="57.91578125"/>
      </g>
     </g>
     <g id="text_5">
      <!-- 80 -->
      <defs>
       <path d="M 31.78125 34.625 
Q 24.75 34.625 20.71875 30.859375 
Q 16.703125 27.09375 16.703125 20.515625 
Q 16.703125 13.921875 20.71875 10.15625 
Q 24.75 6.390625 31.78125 6.390625 
Q 38.8125 6.390625 42.859375 10.171875 
Q 46.921875 13.96875 46.921875 20.515625 
Q 46.921875 27.09375 42.890625 30.859375 
Q 38.875 34.625 31.78125 34.625 
M 21.921875 38.8125 
Q 15.578125 40.375 12.03125 44.71875 
Q 8.5 49.078125 8.5 55.328125 
Q 8.5 64.0625 14.71875 69.140625 
Q 20.953125 74.21875 31.78125 74.21875 
Q 42.671875 74.21875 48.875 69.140625 
Q 55.078125 64.0625 55.078125 55.328125 
Q 55.078125 49.078125 51.53125 44.71875 
Q 48 40.375 41.703125 38.8125 
Q 48.828125 37.15625 52.796875 32.3125 
Q 56.78125 27.484375 56.78125 20.515625 
Q 56.78125 9.90625 50.3125 4.234375 
Q 43.84375 -1.421875 31.78125 -1.421875 
Q 19.734375 -1.421875 13.25 4.234375 
Q 6.78125 9.90625 6.78125 20.515625 
Q 6.78125 27.484375 10.78125 32.3125 
Q 14.796875 37.15625 21.921875 38.8125 
M 18.3125 54.390625 
Q 18.3125 48.734375 21.84375 45.5625 
Q 25.390625 42.390625 31.78125 42.390625 
Q 38.140625 42.390625 41.71875 45.5625 
Q 45.3125 48.734375 45.3125 54.390625 
Q 45.3125 60.0625 41.71875 63.234375 
Q 38.140625 66.40625 31.78125 66.40625 
Q 25.390625 66.40625 21.84375 63.234375 
Q 18.3125 60.0625 18.3125 54.390625 
" id="BitstreamVeraSans-Roman-38"/>
      </defs>
      <g transform="translate(1100.5295 797.1334375)scale(0.3 -0.3)">
       <use xlink:href="#BitstreamVeraSans-Roman-38"/>
       <use x="63.623046875" xlink:href="#BitstreamVeraSans-Roman-30"/>
      </g>
     </g>
    </g>
    <g id="xtick_6">
     <g id="line2d_13">
      <g>
       <use style="stroke:#000000;stroke-width:0.5;" x="1381.831875" xlink:href="#mc10b713a50" y="770.338125"/>
      </g>
     </g>
     <g id="line2d_14">
      <g>
       <use style="stroke:#000000;stroke-width:0.5;" x="1381.831875" xlink:href="#m021854a56c" y="57.91578125"/>
      </g>
     </g>
     <g id="text_6">
      <!-- 100 -->
      <defs>
       <path d="M 12.40625 8.296875 
L 28.515625 8.296875 
L 28.515625 63.921875 
L 10.984375 60.40625 
L 10.984375 69.390625 
L 28.421875 72.90625 
L 38.28125 72.90625 
L 38.28125 8.296875 
L 54.390625 8.296875 
L 54.390625 0 
L 12.40625 0 
z
" id="BitstreamVeraSans-Roman-31"/>
      </defs>
      <g transform="translate(1353.200625 797.1334375)scale(0.3 -0.3)">
       <use xlink:href="#BitstreamVeraSans-Roman-31"/>
       <use x="63.623046875" xlink:href="#BitstreamVeraSans-Roman-30"/>
       <use x="127.24609375" xlink:href="#BitstreamVeraSans-Roman-30"/>
      </g>
     </g>
    </g>
    <g id="text_7">
     <!-- iterations -->
     <defs>
      <path d="M 54.890625 33.015625 
L 54.890625 0 
L 45.90625 0 
L 45.90625 32.71875 
Q 45.90625 40.484375 42.875 44.328125 
Q 39.84375 48.1875 33.796875 48.1875 
Q 26.515625 48.1875 22.3125 43.546875 
Q 18.109375 38.921875 18.109375 30.90625 
L 18.109375 0 
L 9.078125 0 
L 9.078125 54.6875 
L 18.109375 54.6875 
L 18.109375 46.1875 
Q 21.34375 51.125 25.703125 53.5625 
Q 30.078125 56 35.796875 56 
Q 45.21875 56 50.046875 50.171875 
Q 54.890625 44.34375 54.890625 33.015625 
" id="BitstreamVeraSans-Roman-6e"/>
      <path d="M 34.28125 27.484375 
Q 23.390625 27.484375 19.1875 25 
Q 14.984375 22.515625 14.984375 16.5 
Q 14.984375 11.71875 18.140625 8.90625 
Q 21.296875 6.109375 26.703125 6.109375 
Q 34.1875 6.109375 38.703125 11.40625 
Q 43.21875 16.703125 43.21875 25.484375 
L 43.21875 27.484375 
z
M 52.203125 31.203125 
L 52.203125 0 
L 43.21875 0 
L 43.21875 8.296875 
Q 40.140625 3.328125 35.546875 0.953125 
Q 30.953125 -1.421875 24.3125 -1.421875 
Q 15.921875 -1.421875 10.953125 3.296875 
Q 6 8.015625 6 15.921875 
Q 6 25.140625 12.171875 29.828125 
Q 18.359375 34.515625 30.609375 34.515625 
L 43.21875 34.515625 
L 43.21875 35.40625 
Q 43.21875 41.609375 39.140625 45 
Q 35.0625 48.390625 27.6875 48.390625 
Q 23 48.390625 18.546875 47.265625 
Q 14.109375 46.140625 10.015625 43.890625 
L 10.015625 52.203125 
Q 14.9375 54.109375 19.578125 55.046875 
Q 24.21875 56 28.609375 56 
Q 40.484375 56 46.34375 49.84375 
Q 52.203125 43.703125 52.203125 31.203125 
" id="BitstreamVeraSans-Roman-61"/>
      <path d="M 30.609375 48.390625 
Q 23.390625 48.390625 19.1875 42.75 
Q 14.984375 37.109375 14.984375 27.296875 
Q 14.984375 17.484375 19.15625 11.84375 
Q 23.34375 6.203125 30.609375 6.203125 
Q 37.796875 6.203125 41.984375 11.859375 
Q 46.1875 17.53125 46.1875 27.296875 
Q 46.1875 37.015625 41.984375 42.703125 
Q 37.796875 48.390625 30.609375 48.390625 
M 30.609375 56 
Q 42.328125 56 49.015625 48.375 
Q 55.71875 40.765625 55.71875 27.296875 
Q 55.71875 13.875 49.015625 6.21875 
Q 42.328125 -1.421875 30.609375 -1.421875 
Q 18.84375 -1.421875 12.171875 6.21875 
Q 5.515625 13.875 5.515625 27.296875 
Q 5.515625 40.765625 12.171875 48.375 
Q 18.84375 56 30.609375 56 
" id="BitstreamVeraSans-Roman-6f"/>
      <path d="M 9.421875 54.6875 
L 18.40625 54.6875 
L 18.40625 0 
L 9.421875 0 
z
M 9.421875 75.984375 
L 18.40625 75.984375 
L 18.40625 64.59375 
L 9.421875 64.59375 
z
" id="BitstreamVeraSans-Roman-69"/>
      <path d="M 56.203125 29.59375 
L 56.203125 25.203125 
L 14.890625 25.203125 
Q 15.484375 15.921875 20.484375 11.0625 
Q 25.484375 6.203125 34.421875 6.203125 
Q 39.59375 6.203125 44.453125 7.46875 
Q 49.3125 8.734375 54.109375 11.28125 
L 54.109375 2.78125 
Q 49.265625 0.734375 44.1875 -0.34375 
Q 39.109375 -1.421875 33.890625 -1.421875 
Q 20.796875 -1.421875 13.15625 6.1875 
Q 5.515625 13.8125 5.515625 26.8125 
Q 5.515625 40.234375 12.765625 48.109375 
Q 20.015625 56 32.328125 56 
Q 43.359375 56 49.78125 48.890625 
Q 56.203125 41.796875 56.203125 29.59375 
M 47.21875 32.234375 
Q 47.125 39.59375 43.09375 43.984375 
Q 39.0625 48.390625 32.421875 48.390625 
Q 24.90625 48.390625 20.390625 44.140625 
Q 15.875 39.890625 15.1875 32.171875 
z
" id="BitstreamVeraSans-Roman-65"/>
      <path d="M 18.3125 70.21875 
L 18.3125 54.6875 
L 36.8125 54.6875 
L 36.8125 47.703125 
L 18.3125 47.703125 
L 18.3125 18.015625 
Q 18.3125 11.328125 20.140625 9.421875 
Q 21.96875 7.515625 27.59375 7.515625 
L 36.8125 7.515625 
L 36.8125 0 
L 27.59375 0 
Q 17.1875 0 13.234375 3.875 
Q 9.28125 7.765625 9.28125 18.015625 
L 9.28125 47.703125 
L 2.6875 47.703125 
L 2.6875 54.6875 
L 9.28125 54.6875 
L 9.28125 70.21875 
z
" id="BitstreamVeraSans-Roman-74"/>
      <path d="M 41.109375 46.296875 
Q 39.59375 47.171875 37.8125 47.578125 
Q 36.03125 48 33.890625 48 
Q 26.265625 48 22.1875 43.046875 
Q 18.109375 38.09375 18.109375 28.8125 
L 18.109375 0 
L 9.078125 0 
L 9.078125 54.6875 
L 18.109375 54.6875 
L 18.109375 46.1875 
Q 20.953125 51.171875 25.484375 53.578125 
Q 30.03125 56 36.53125 56 
Q 37.453125 56 38.578125 55.875 
Q 39.703125 55.765625 41.0625 55.515625 
z
" id="BitstreamVeraSans-Roman-72"/>
      <path d="M 44.28125 53.078125 
L 44.28125 44.578125 
Q 40.484375 46.53125 36.375 47.5 
Q 32.28125 48.484375 27.875 48.484375 
Q 21.1875 48.484375 17.84375 46.4375 
Q 14.5 44.390625 14.5 40.28125 
Q 14.5 37.15625 16.890625 35.375 
Q 19.28125 33.59375 26.515625 31.984375 
L 29.59375 31.296875 
Q 39.15625 29.25 43.1875 25.515625 
Q 47.21875 21.78125 47.21875 15.09375 
Q 47.21875 7.46875 41.1875 3.015625 
Q 35.15625 -1.421875 24.609375 -1.421875 
Q 20.21875 -1.421875 15.453125 -0.5625 
Q 10.6875 0.296875 5.421875 2 
L 5.421875 11.28125 
Q 10.40625 8.6875 15.234375 7.390625 
Q 20.0625 6.109375 24.8125 6.109375 
Q 31.15625 6.109375 34.5625 8.28125 
Q 37.984375 10.453125 37.984375 14.40625 
Q 37.984375 18.0625 35.515625 20.015625 
Q 33.0625 21.96875 24.703125 23.78125 
L 21.578125 24.515625 
Q 13.234375 26.265625 9.515625 29.90625 
Q 5.8125 33.546875 5.8125 39.890625 
Q 5.8125 47.609375 11.28125 51.796875 
Q 16.75 56 26.8125 56 
Q 31.78125 56 36.171875 55.265625 
Q 40.578125 54.546875 44.28125 53.078125 
" id="BitstreamVeraSans-Roman-73"/>
     </defs>
     <g transform="translate(655.11265625 831.1678125)scale(0.3 -0.3)">
      <use xlink:href="#BitstreamVeraSans-Roman-69"/>
      <use x="27.783203125" xlink:href="#BitstreamVeraSans-Roman-74"/>
      <use x="66.9921875" xlink:href="#BitstreamVeraSans-Roman-65"/>
      <use x="128.515625" xlink:href="#BitstreamVeraSans-Roman-72"/>
      <use x="169.62890625" xlink:href="#BitstreamVeraSans-Roman-61"/>
      <use x="230.908203125" xlink:href="#BitstreamVeraSans-Roman-74"/>
      <use x="270.1171875" xlink:href="#BitstreamVeraSans-Roman-69"/>
      <use x="297.900390625" xlink:href="#BitstreamVeraSans-Roman-6f"/>
      <use x="359.08203125" xlink:href="#BitstreamVeraSans-Roman-6e"/>
      <use x="422.4609375" xlink:href="#BitstreamVeraSans-Roman-73"/>
     </g>
    </g>
   </g>
   <g id="matplotlib.axis_2">
    <g id="ytick_1">
     <g id="line2d_15">
      <defs>
       <path d="M 0 0 
L 4 0 
" id="me6af328b7d" style="stroke:#000000;stroke-width:0.5;"/>
      </defs>
      <g>
       <use style="stroke:#000000;stroke-width:0.5;" x="70.7575" xlink:href="#me6af328b7d" y="770.338125"/>
      </g>
     </g>
     <g id="line2d_16">
      <defs>
       <path d="M 0 0 
L -4 0 
" id="m437fa5bfef" style="stroke:#000000;stroke-width:0.5;"/>
      </defs>
      <g>
       <use style="stroke:#000000;stroke-width:0.5;" x="1381.831875" xlink:href="#m437fa5bfef" y="770.338125"/>
      </g>
     </g>
     <g id="text_8">
      <!-- 2 -->
      <g transform="translate(47.67 778.61625)scale(0.3 -0.3)">
       <use xlink:href="#BitstreamVeraSans-Roman-32"/>
      </g>
     </g>
    </g>
    <g id="ytick_2">
     <g id="line2d_17">
      <g>
       <use style="stroke:#000000;stroke-width:0.5;" x="70.7575" xlink:href="#me6af328b7d" y="668.563504464"/>
      </g>
     </g>
     <g id="line2d_18">
      <g>
       <use style="stroke:#000000;stroke-width:0.5;" x="1381.831875" xlink:href="#m437fa5bfef" y="668.563504464"/>
      </g>
     </g>
     <g id="text_9">
      <!-- 4 -->
      <g transform="translate(47.67 676.841629464)scale(0.3 -0.3)">
       <use xlink:href="#BitstreamVeraSans-Roman-34"/>
      </g>
     </g>
    </g>
    <g id="ytick_3">
     <g id="line2d_19">
      <g>
       <use style="stroke:#000000;stroke-width:0.5;" x="70.7575" xlink:href="#me6af328b7d" y="566.788883929"/>
      </g>
     </g>
     <g id="line2d_20">
      <g>
       <use style="stroke:#000000;stroke-width:0.5;" x="1381.831875" xlink:href="#m437fa5bfef" y="566.788883929"/>
      </g>
     </g>
     <g id="text_10">
      <!-- 6 -->
      <g transform="translate(47.67 575.067008929)scale(0.3 -0.3)">
       <use xlink:href="#BitstreamVeraSans-Roman-36"/>
      </g>
     </g>
    </g>
    <g id="ytick_4">
     <g id="line2d_21">
      <g>
       <use style="stroke:#000000;stroke-width:0.5;" x="70.7575" xlink:href="#me6af328b7d" y="465.014263393"/>
      </g>
     </g>
     <g id="line2d_22">
      <g>
       <use style="stroke:#000000;stroke-width:0.5;" x="1381.831875" xlink:href="#m437fa5bfef" y="465.014263393"/>
      </g>
     </g>
     <g id="text_11">
      <!-- 8 -->
      <g transform="translate(47.67 473.292388393)scale(0.3 -0.3)">
       <use xlink:href="#BitstreamVeraSans-Roman-38"/>
      </g>
     </g>
    </g>
    <g id="ytick_5">
     <g id="line2d_23">
      <g>
       <use style="stroke:#000000;stroke-width:0.5;" x="70.7575" xlink:href="#me6af328b7d" y="363.239642857"/>
      </g>
     </g>
     <g id="line2d_24">
      <g>
       <use style="stroke:#000000;stroke-width:0.5;" x="1381.831875" xlink:href="#m437fa5bfef" y="363.239642857"/>
      </g>
     </g>
     <g id="text_12">
      <!-- 10 -->
      <g transform="translate(28.5825 371.517767857)scale(0.3 -0.3)">
       <use xlink:href="#BitstreamVeraSans-Roman-31"/>
       <use x="63.623046875" xlink:href="#BitstreamVeraSans-Roman-30"/>
      </g>
     </g>
    </g>
    <g id="ytick_6">
     <g id="line2d_25">
      <g>
       <use style="stroke:#000000;stroke-width:0.5;" x="70.7575" xlink:href="#me6af328b7d" y="261.465022321"/>
      </g>
     </g>
     <g id="line2d_26">
      <g>
       <use style="stroke:#000000;stroke-width:0.5;" x="1381.831875" xlink:href="#m437fa5bfef" y="261.465022321"/>
      </g>
     </g>
     <g id="text_13">
      <!-- 12 -->
      <g transform="translate(28.5825 269.743147321)scale(0.3 -0.3)">
       <use xlink:href="#BitstreamVeraSans-Roman-31"/>
       <use x="63.623046875" xlink:href="#BitstreamVeraSans-Roman-32"/>
      </g>
     </g>
    </g>
    <g id="ytick_7">
     <g id="line2d_27">
      <g>
       <use style="stroke:#000000;stroke-width:0.5;" x="70.7575" xlink:href="#me6af328b7d" y="159.690401786"/>
      </g>
     </g>
     <g id="line2d_28">
      <g>
       <use style="stroke:#000000;stroke-width:0.5;" x="1381.831875" xlink:href="#m437fa5bfef" y="159.690401786"/>
      </g>
     </g>
     <g id="text_14">
      <!-- 14 -->
      <g transform="translate(28.5825 167.968526786)scale(0.3 -0.3)">
       <use xlink:href="#BitstreamVeraSans-Roman-31"/>
       <use x="63.623046875" xlink:href="#BitstreamVeraSans-Roman-34"/>
      </g>
     </g>
    </g>
    <g id="ytick_8">
     <g id="line2d_29">
      <g>
       <use style="stroke:#000000;stroke-width:0.5;" x="70.7575" xlink:href="#me6af328b7d" y="57.91578125"/>
      </g>
     </g>
     <g id="line2d_30">
      <g>
       <use style="stroke:#000000;stroke-width:0.5;" x="1381.831875" xlink:href="#m437fa5bfef" y="57.91578125"/>
      </g>
     </g>
     <g id="text_15">
      <!-- 16 -->
      <g transform="translate(28.5825 66.19390625)scale(0.3 -0.3)">
       <use xlink:href="#BitstreamVeraSans-Roman-31"/>
       <use x="63.623046875" xlink:href="#BitstreamVeraSans-Roman-36"/>
      </g>
     </g>
    </g>
   </g>
   <g id="text_16">
    <!-- log(loss) -->
    <defs>
     <path d="M 8.015625 75.875 
L 15.828125 75.875 
Q 23.140625 64.359375 26.78125 53.3125 
Q 30.421875 42.28125 30.421875 31.390625 
Q 30.421875 20.453125 26.78125 9.375 
Q 23.140625 -1.703125 15.828125 -13.1875 
L 8.015625 -13.1875 
Q 14.5 -2 17.703125 9.0625 
Q 20.90625 20.125 20.90625 31.390625 
Q 20.90625 42.671875 17.703125 53.65625 
Q 14.5 64.65625 8.015625 75.875 
" id="BitstreamVeraSans-Roman-29"/>
     <path d="M 31 75.875 
Q 24.46875 64.65625 21.28125 53.65625 
Q 18.109375 42.671875 18.109375 31.390625 
Q 18.109375 20.125 21.3125 9.0625 
Q 24.515625 -2 31 -13.1875 
L 23.1875 -13.1875 
Q 15.875 -1.703125 12.234375 9.375 
Q 8.59375 20.453125 8.59375 31.390625 
Q 8.59375 42.28125 12.203125 53.3125 
Q 15.828125 64.359375 23.1875 75.875 
z
" id="BitstreamVeraSans-Roman-28"/>
     <path d="M 45.40625 27.984375 
Q 45.40625 37.75 41.375 43.109375 
Q 37.359375 48.484375 30.078125 48.484375 
Q 22.859375 48.484375 18.828125 43.109375 
Q 14.796875 37.75 14.796875 27.984375 
Q 14.796875 18.265625 18.828125 12.890625 
Q 22.859375 7.515625 30.078125 7.515625 
Q 37.359375 7.515625 41.375 12.890625 
Q 45.40625 18.265625 45.40625 27.984375 
M 54.390625 6.78125 
Q 54.390625 -7.171875 48.1875 -13.984375 
Q 42 -20.796875 29.203125 -20.796875 
Q 24.46875 -20.796875 20.265625 -20.09375 
Q 16.0625 -19.390625 12.109375 -17.921875 
L 12.109375 -9.1875 
Q 16.0625 -11.328125 19.921875 -12.34375 
Q 23.78125 -13.375 27.78125 -13.375 
Q 36.625 -13.375 41.015625 -8.765625 
Q 45.40625 -4.15625 45.40625 5.171875 
L 45.40625 9.625 
Q 42.625 4.78125 38.28125 2.390625 
Q 33.9375 0 27.875 0 
Q 17.828125 0 11.671875 7.65625 
Q 5.515625 15.328125 5.515625 27.984375 
Q 5.515625 40.671875 11.671875 48.328125 
Q 17.828125 56 27.875 56 
Q 33.9375 56 38.28125 53.609375 
Q 42.625 51.21875 45.40625 46.390625 
L 45.40625 54.6875 
L 54.390625 54.6875 
z
" id="BitstreamVeraSans-Roman-67"/>
     <path d="M 9.421875 75.984375 
L 18.40625 75.984375 
L 18.40625 0 
L 9.421875 0 
z
" id="BitstreamVeraSans-Roman-6c"/>
    </defs>
    <g transform="translate(662.74859375 52.91578125)scale(0.3 -0.3)">
     <use xlink:href="#BitstreamVeraSans-Roman-6c"/>
     <use x="27.783203125" xlink:href="#BitstreamVeraSans-Roman-6f"/>
     <use x="88.96484375" xlink:href="#BitstreamVeraSans-Roman-67"/>
     <use x="152.44140625" xlink:href="#BitstreamVeraSans-Roman-28"/>
     <use x="191.455078125" xlink:href="#BitstreamVeraSans-Roman-6c"/>
     <use x="219.23828125" xlink:href="#BitstreamVeraSans-Roman-6f"/>
     <use x="280.419921875" xlink:href="#BitstreamVeraSans-Roman-73"/>
     <use x="332.51953125" xlink:href="#BitstreamVeraSans-Roman-73"/>
     <use x="384.619140625" xlink:href="#BitstreamVeraSans-Roman-29"/>
    </g>
   </g>
   <g id="legend_1">
    <g id="patch_7">
     <path d="M 1142.47875 169.984531 
L 1366.831875 169.984531 
L 1366.831875 72.915781 
L 1142.47875 72.915781 
z
" style="fill:#ffffff;stroke:#000000;stroke-linejoin:miter;"/>
    </g>
    <g id="line2d_31">
     <path d="M 1163.47875 97.211094 
L 1205.47875 97.211094 
" style="fill:none;stroke:#0000ff;stroke-linecap:square;stroke-width:2.0;"/>
    </g>
    <g id="line2d_32"/>
    <g id="text_17">
     <!-- random -->
     <defs>
      <path d="M 45.40625 46.390625 
L 45.40625 75.984375 
L 54.390625 75.984375 
L 54.390625 0 
L 45.40625 0 
L 45.40625 8.203125 
Q 42.578125 3.328125 38.25 0.953125 
Q 33.9375 -1.421875 27.875 -1.421875 
Q 17.96875 -1.421875 11.734375 6.484375 
Q 5.515625 14.40625 5.515625 27.296875 
Q 5.515625 40.1875 11.734375 48.09375 
Q 17.96875 56 27.875 56 
Q 33.9375 56 38.25 53.625 
Q 42.578125 51.265625 45.40625 46.390625 
M 14.796875 27.296875 
Q 14.796875 17.390625 18.875 11.75 
Q 22.953125 6.109375 30.078125 6.109375 
Q 37.203125 6.109375 41.296875 11.75 
Q 45.40625 17.390625 45.40625 27.296875 
Q 45.40625 37.203125 41.296875 42.84375 
Q 37.203125 48.484375 30.078125 48.484375 
Q 22.953125 48.484375 18.875 42.84375 
Q 14.796875 37.203125 14.796875 27.296875 
" id="BitstreamVeraSans-Roman-64"/>
      <path d="M 52 44.1875 
Q 55.375 50.25 60.0625 53.125 
Q 64.75 56 71.09375 56 
Q 79.640625 56 84.28125 50.015625 
Q 88.921875 44.046875 88.921875 33.015625 
L 88.921875 0 
L 79.890625 0 
L 79.890625 32.71875 
Q 79.890625 40.578125 77.09375 44.375 
Q 74.3125 48.1875 68.609375 48.1875 
Q 61.625 48.1875 57.5625 43.546875 
Q 53.515625 38.921875 53.515625 30.90625 
L 53.515625 0 
L 44.484375 0 
L 44.484375 32.71875 
Q 44.484375 40.625 41.703125 44.40625 
Q 38.921875 48.1875 33.109375 48.1875 
Q 26.21875 48.1875 22.15625 43.53125 
Q 18.109375 38.875 18.109375 30.90625 
L 18.109375 0 
L 9.078125 0 
L 9.078125 54.6875 
L 18.109375 54.6875 
L 18.109375 46.1875 
Q 21.1875 51.21875 25.484375 53.609375 
Q 29.78125 56 35.6875 56 
Q 41.65625 56 45.828125 52.96875 
Q 50 49.953125 52 44.1875 
" id="BitstreamVeraSans-Roman-6d"/>
     </defs>
     <g transform="translate(1238.47875 107.71109375)scale(0.3 -0.3)">
      <use xlink:href="#BitstreamVeraSans-Roman-72"/>
      <use x="41.11328125" xlink:href="#BitstreamVeraSans-Roman-61"/>
      <use x="102.392578125" xlink:href="#BitstreamVeraSans-Roman-6e"/>
      <use x="165.771484375" xlink:href="#BitstreamVeraSans-Roman-64"/>
      <use x="229.248046875" xlink:href="#BitstreamVeraSans-Roman-6f"/>
      <use x="290.4296875" xlink:href="#BitstreamVeraSans-Roman-6d"/>
     </g>
    </g>
    <g id="line2d_33">
     <path d="M 1163.47875 141.245469 
L 1205.47875 141.245469 
" style="fill:none;stroke:#008000;stroke-linecap:square;stroke-width:2.0;"/>
    </g>
    <g id="line2d_34"/>
    <g id="text_18">
     <!-- corr -->
     <defs>
      <path d="M 48.78125 52.59375 
L 48.78125 44.1875 
Q 44.96875 46.296875 41.140625 47.34375 
Q 37.3125 48.390625 33.40625 48.390625 
Q 24.65625 48.390625 19.8125 42.84375 
Q 14.984375 37.3125 14.984375 27.296875 
Q 14.984375 17.28125 19.8125 11.734375 
Q 24.65625 6.203125 33.40625 6.203125 
Q 37.3125 6.203125 41.140625 7.25 
Q 44.96875 8.296875 48.78125 10.40625 
L 48.78125 2.09375 
Q 45.015625 0.34375 40.984375 -0.53125 
Q 36.96875 -1.421875 32.421875 -1.421875 
Q 20.0625 -1.421875 12.78125 6.34375 
Q 5.515625 14.109375 5.515625 27.296875 
Q 5.515625 40.671875 12.859375 48.328125 
Q 20.21875 56 33.015625 56 
Q 37.15625 56 41.109375 55.140625 
Q 45.0625 54.296875 48.78125 52.59375 
" id="BitstreamVeraSans-Roman-63"/>
     </defs>
     <g transform="translate(1238.47875 151.74546875)scale(0.3 -0.3)">
      <use xlink:href="#BitstreamVeraSans-Roman-63"/>
      <use x="54.98046875" xlink:href="#BitstreamVeraSans-Roman-6f"/>
      <use x="116.162109375" xlink:href="#BitstreamVeraSans-Roman-72"/>
      <use x="157.259765625" xlink:href="#BitstreamVeraSans-Roman-72"/>
     </g>
    </g>
   </g>
  </g>
 </g>
 <defs>
  <clipPath id="pd460cac06d">
   <rect height="712.42234375" width="1311.074375" x="70.7575" y="57.91578125"/>
  </clipPath>
 </defs>
</svg>
