<?xml version="1.0" encoding="utf-8" standalone="no"?>
<!DOCTYPE svg PUBLIC "-//W3C//DTD SVG 1.1//EN"
  "http://www.w3.org/Graphics/SVG/1.1/DTD/svg11.dtd">
<!-- Created with matplotlib (http://matplotlib.org/) -->
<svg height="864pt" version="1.1" viewBox="0 0 1440 864" width="1440pt" xmlns="http://www.w3.org/2000/svg" xmlns:xlink="http://www.w3.org/1999/xlink">
 <defs>
  <style type="text/css">
*{stroke-linecap:butt;stroke-linejoin:round;stroke-miterlimit:100000;}
  </style>
 </defs>
 <g id="figure_1">
  <g id="patch_1">
   <path d="M 0 864 
L 1440 864 
L 1440 0 
L 0 0 
z
" style="fill:#ffffff;"/>
  </g>
  <g id="axes_1">
   <g id="patch_2">
    <path d="M 158.4 747 
L 1371.88125 747 
L 1371.88125 51.3 
L 158.4 51.3 
z
" style="fill:#ffffff;"/>
   </g>
   <g id="line2d_1">
    <path clip-path="url(#p6431c1cf80)" d="M 158.4 120.006201 
L 164.467406 124.347719 
L 170.534813 128.228227 
L 176.602219 132.397766 
L 182.669625 137.334839 
L 188.737031 140.689907 
L 194.804438 144.23262 
L 200.871844 147.98237 
L 206.93925 152.221339 
L 225.141469 164.100285 
L 231.208875 168.265006 
L 237.276281 171.397366 
L 243.343688 175.174145 
L 249.411094 178.381953 
L 273.680719 193.460076 
L 279.748125 196.470978 
L 285.815531 200.491173 
L 304.01775 210.947081 
L 310.085156 214.842149 
L 316.152563 219.320223 
L 322.219969 223.284175 
L 328.287375 226.080898 
L 334.354781 229.215781 
L 352.557 239.421417 
L 358.624406 242.725079 
L 364.691813 245.594508 
L 370.759219 249.723657 
L 382.894031 256.892323 
L 388.961437 261.033917 
L 395.028844 264.524932 
L 407.163656 270.609008 
L 413.231063 274.311909 
L 419.298469 277.153641 
L 431.433281 285.07304 
L 437.500688 288.366092 
L 443.568094 292.476241 
L 449.6355 295.768303 
L 455.702906 298.608188 
L 461.770312 301.646315 
L 467.837719 304.492301 
L 479.972531 310.675199 
L 498.17475 320.190096 
L 504.242156 323.293339 
L 510.309563 326.60402 
L 516.376969 330.752855 
L 528.511781 338.608723 
L 534.579187 341.398656 
L 546.714 347.846224 
L 552.781406 351.041064 
L 558.848813 354.456235 
L 564.916219 357.738516 
L 570.983625 361.363717 
L 577.051031 364.226014 
L 583.118438 367.572079 
L 589.185844 370.497108 
L 595.25325 373.954388 
L 601.320656 376.593843 
L 607.388062 379.442406 
L 613.455469 382.634919 
L 619.522875 386.289257 
L 625.590281 389.812927 
L 631.657688 392.745132 
L 637.725094 396.253704 
L 643.7925 398.903328 
L 649.859906 402.646896 
L 661.994719 409.349718 
L 674.129531 415.805334 
L 686.264344 421.682275 
L 692.33175 424.74223 
L 698.399156 428.568849 
L 710.533969 434.664883 
L 716.601375 437.60439 
L 722.668781 440.708108 
L 728.736187 444.383685 
L 734.803594 447.537177 
L 740.871 451.435396 
L 753.005813 457.75578 
L 759.073219 461.330211 
L 765.140625 464.00482 
L 771.208031 467.431065 
L 777.275437 470.691095 
L 783.342844 473.678231 
L 789.41025 477.447343 
L 795.477656 480.890498 
L 801.545063 485.177409 
L 807.612469 488.046022 
L 813.679875 491.118864 
L 819.747281 494.528796 
L 825.814687 497.742624 
L 831.882094 501.27036 
L 837.9495 504.952505 
L 844.016906 508.488675 
L 856.151719 514.854581 
L 862.219125 517.763209 
L 880.421344 527.761706 
L 898.623562 537.083961 
L 904.690969 540.992541 
L 910.758375 544.367452 
L 916.825781 547.339378 
L 928.960594 553.685684 
L 941.095406 560.119495 
L 947.162812 563.265861 
L 953.230219 566.56036 
L 959.297625 569.249269 
L 971.432437 575.587741 
L 977.499844 578.532136 
L 983.56725 581.783596 
L 989.634656 584.773978 
L 995.702063 587.464537 
L 1001.769469 590.713213 
L 1013.904281 596.619989 
L 1019.971687 599.810816 
L 1026.039094 603.43156 
L 1032.1065 606.840592 
L 1038.173906 609.875558 
L 1044.241313 612.332109 
L 1056.376125 619.080564 
L 1062.443531 622.180227 
L 1068.510937 625.534296 
L 1074.578344 628.668643 
L 1086.713156 634.53621 
L 1092.780562 638.269263 
L 1098.847969 642.481418 
L 1123.117594 656.38166 
L 1129.185 658.72799 
L 1135.252406 662.035207 
L 1141.319812 664.826276 
L 1147.387219 668.220339 
L 1153.454625 671.799758 
L 1159.522031 675.234534 
L 1165.589438 678.143197 
L 1171.656844 682.105655 
L 1177.72425 685.36669 
L 1183.791656 689.066425 
L 1189.859062 691.703782 
L 1201.993875 697.720759 
L 1208.061281 700.308124 
L 1214.128688 703.683525 
L 1220.196094 706.733882 
L 1226.2635 709.49366 
L 1232.330906 711.581686 
L 1238.398312 714.206495 
L 1244.465719 716.048974 
L 1250.533125 718.452176 
L 1256.600531 719.370361 
L 1262.667937 721.093304 
L 1268.735344 722.485315 
L 1274.80275 722.530055 
L 1280.870156 723.091287 
L 1286.937563 724.356059 
L 1293.004969 725.268628 
L 1299.072375 725.544816 
L 1305.139781 725.61726 
L 1311.207187 725.546417 
L 1317.274594 725.619231 
L 1323.342 726.268879 
L 1329.409406 726.059413 
L 1335.476813 726.282643 
L 1341.544219 725.970932 
L 1347.611625 726.170704 
L 1353.679031 726.902535 
L 1359.746437 726.656856 
L 1365.813844 726.730314 
L 1365.813844 726.730314 
" style="fill:none;stroke:#0000ff;stroke-linecap:square;stroke-width:2.0;"/>
   </g>
   <g id="line2d_2">
    <path clip-path="url(#p6431c1cf80)" d="M 158.4 119.811403 
L 164.467406 124.009582 
L 170.534813 128.167153 
L 182.669625 135.935891 
L 188.737031 140.273888 
L 194.804438 143.578809 
L 200.871844 147.509547 
L 206.93925 151.274719 
L 213.006656 156.206832 
L 219.074063 160.09836 
L 225.141469 164.533976 
L 231.208875 168.701819 
L 237.276281 172.704948 
L 243.343688 175.959065 
L 249.411094 180.316581 
L 255.4785 184.408373 
L 261.545906 187.429666 
L 267.613313 190.791114 
L 273.680719 194.661622 
L 291.882938 205.112212 
L 297.950344 208.421672 
L 304.01775 212.029861 
L 310.085156 215.788061 
L 322.219969 222.917505 
L 328.287375 225.699329 
L 340.422188 231.860752 
L 346.489594 234.715225 
L 358.624406 242.179312 
L 364.691813 245.25499 
L 370.759219 248.782743 
L 382.894031 255.010632 
L 388.961437 258.867567 
L 395.028844 262.37804 
L 401.09625 265.372717 
L 407.163656 269.17105 
L 419.298469 275.680239 
L 425.365875 279.893219 
L 431.433281 283.26951 
L 437.500688 286.817583 
L 449.6355 294.534535 
L 455.702906 297.977561 
L 461.770312 301.867695 
L 467.837719 306.03207 
L 473.905125 308.763407 
L 479.972531 312.961078 
L 492.107344 319.960616 
L 498.17475 323.130439 
L 504.242156 327.225657 
L 510.309563 330.91458 
L 516.376969 333.869894 
L 522.444375 337.180975 
L 528.511781 340.718168 
L 534.579187 344.530222 
L 540.646594 348.578791 
L 546.714 351.858546 
L 558.848813 357.887866 
L 564.916219 361.059086 
L 570.983625 363.796249 
L 577.051031 367.343818 
L 583.118438 370.240171 
L 589.185844 374.019727 
L 595.25325 376.861604 
L 601.320656 380.162886 
L 607.388062 383.107743 
L 613.455469 386.331071 
L 619.522875 388.888084 
L 625.590281 392.742823 
L 631.657688 396.045092 
L 643.7925 403.184364 
L 649.859906 406.729063 
L 655.927312 410.065529 
L 668.062125 416.210802 
L 674.129531 420.340149 
L 680.196937 423.372935 
L 692.33175 430.160102 
L 698.399156 432.951481 
L 704.466563 436.277013 
L 710.533969 439.838558 
L 716.601375 442.899789 
L 722.668781 446.142058 
L 728.736187 449.557525 
L 734.803594 452.334706 
L 746.938406 458.924862 
L 753.005813 462.18539 
L 759.073219 465.268277 
L 765.140625 468.132355 
L 777.275437 474.987604 
L 783.342844 477.945009 
L 789.41025 481.042731 
L 795.477656 483.777571 
L 801.545063 488.050157 
L 807.612469 491.943607 
L 813.679875 494.714791 
L 825.814687 501.460987 
L 831.882094 504.528982 
L 837.9495 508.177466 
L 844.016906 510.945147 
L 850.084312 514.807522 
L 856.151719 518.082693 
L 862.219125 521.559253 
L 868.286531 524.430094 
L 874.353938 528.133313 
L 880.421344 532.02267 
L 886.48875 534.657451 
L 892.556156 538.122719 
L 898.623562 540.650167 
L 904.690969 544.165316 
L 910.758375 548.428328 
L 916.825781 551.925559 
L 922.893188 554.983696 
L 928.960594 558.554887 
L 935.028 562.44819 
L 941.095406 566.204971 
L 953.230219 572.90822 
L 959.297625 575.785694 
L 965.365031 579.774874 
L 977.499844 586.03823 
L 983.56725 589.663118 
L 989.634656 593.642139 
L 1001.769469 600.182299 
L 1007.836875 603.811333 
L 1019.971687 610.056837 
L 1026.039094 612.898029 
L 1032.1065 616.063465 
L 1038.173906 619.827673 
L 1044.241313 623.121015 
L 1050.308719 626.616527 
L 1056.376125 630.578734 
L 1062.443531 633.684751 
L 1068.510937 637.176671 
L 1080.64575 643.665891 
L 1086.713156 647.840741 
L 1092.780562 651.473686 
L 1098.847969 654.739382 
L 1104.915375 658.232662 
L 1110.982781 661.538055 
L 1117.050187 665.235279 
L 1123.117594 668.260494 
L 1135.252406 675.191809 
L 1141.319812 678.889545 
L 1153.454625 685.846813 
L 1159.522031 688.964811 
L 1165.589438 692.909794 
L 1171.656844 696.705809 
L 1177.72425 699.380408 
L 1183.791656 702.2849 
L 1189.859062 704.487218 
L 1195.926469 707.510703 
L 1201.993875 710.155272 
L 1208.061281 712.067875 
L 1214.128688 714.645881 
L 1220.196094 716.761567 
L 1226.2635 719.592368 
L 1232.330906 720.34959 
L 1238.398312 721.502373 
L 1262.667937 724.528759 
L 1268.735344 725.359505 
L 1274.80275 725.504894 
L 1280.870156 725.140113 
L 1286.937563 725.015593 
L 1293.004969 725.691581 
L 1299.072375 725.014048 
L 1305.139781 725.430324 
L 1311.207187 725.366393 
L 1317.274594 726.304686 
L 1323.342 726.367023 
L 1329.409406 725.480175 
L 1341.544219 727.132743 
L 1347.611625 726.593563 
L 1353.679031 726.258261 
L 1359.746437 726.161907 
L 1365.813844 726.979684 
L 1365.813844 726.979684 
" style="fill:none;stroke:#008000;stroke-linecap:square;stroke-width:2.0;"/>
   </g>
   <g id="patch_3">
    <path d="M 158.4 51.3 
L 1371.88125 51.3 
" style="fill:none;stroke:#000000;stroke-linecap:square;stroke-linejoin:miter;"/>
   </g>
   <g id="patch_4">
    <path d="M 1371.88125 747 
L 1371.88125 51.3 
" style="fill:none;stroke:#000000;stroke-linecap:square;stroke-linejoin:miter;"/>
   </g>
   <g id="patch_5">
    <path d="M 158.4 747 
L 1371.88125 747 
" style="fill:none;stroke:#000000;stroke-linecap:square;stroke-linejoin:miter;"/>
   </g>
   <g id="patch_6">
    <path d="M 158.4 747 
L 158.4 51.3 
" style="fill:none;stroke:#000000;stroke-linecap:square;stroke-linejoin:miter;"/>
   </g>
   <g id="matplotlib.axis_1">
    <g id="xtick_1">
     <g id="line2d_3">
      <defs>
       <path d="M 0 0 
L 0 -4 
" id="mfb3109ccf6" style="stroke:#000000;stroke-width:0.5;"/>
      </defs>
      <g>
       <use style="stroke:#000000;stroke-width:0.5;" x="158.4" xlink:href="#mfb3109ccf6" y="747.0"/>
      </g>
     </g>
     <g id="line2d_4">
      <defs>
       <path d="M 0 0 
L 0 4 
" id="m0d7136fc8d" style="stroke:#000000;stroke-width:0.5;"/>
      </defs>
      <g>
       <use style="stroke:#000000;stroke-width:0.5;" x="158.4" xlink:href="#m0d7136fc8d" y="51.3"/>
      </g>
     </g>
     <g id="text_1">
      <!-- 0 -->
      <defs>
       <path d="M 31.78125 66.40625 
Q 24.171875 66.40625 20.328125 58.90625 
Q 16.5 51.421875 16.5 36.375 
Q 16.5 21.390625 20.328125 13.890625 
Q 24.171875 6.390625 31.78125 6.390625 
Q 39.453125 6.390625 43.28125 13.890625 
Q 47.125 21.390625 47.125 36.375 
Q 47.125 51.421875 43.28125 58.90625 
Q 39.453125 66.40625 31.78125 66.40625 
M 31.78125 74.21875 
Q 44.046875 74.21875 50.515625 64.515625 
Q 56.984375 54.828125 56.984375 36.375 
Q 56.984375 17.96875 50.515625 8.265625 
Q 44.046875 -1.421875 31.78125 -1.421875 
Q 19.53125 -1.421875 13.0625 8.265625 
Q 6.59375 17.96875 6.59375 36.375 
Q 6.59375 54.828125 13.0625 64.515625 
Q 19.53125 74.21875 31.78125 74.21875 
" id="BitstreamVeraSans-Roman-30"/>
      </defs>
      <g transform="translate(148.85625 773.7953125)scale(0.3 -0.3)">
       <use xlink:href="#BitstreamVeraSans-Roman-30"/>
      </g>
     </g>
    </g>
    <g id="xtick_2">
     <g id="line2d_5">
      <g>
       <use style="stroke:#000000;stroke-width:0.5;" x="461.7703125" xlink:href="#mfb3109ccf6" y="747.0"/>
      </g>
     </g>
     <g id="line2d_6">
      <g>
       <use style="stroke:#000000;stroke-width:0.5;" x="461.7703125" xlink:href="#m0d7136fc8d" y="51.3"/>
      </g>
     </g>
     <g id="text_2">
      <!-- 50 -->
      <defs>
       <path d="M 10.796875 72.90625 
L 49.515625 72.90625 
L 49.515625 64.59375 
L 19.828125 64.59375 
L 19.828125 46.734375 
Q 21.96875 47.46875 24.109375 47.828125 
Q 26.265625 48.1875 28.421875 48.1875 
Q 40.625 48.1875 47.75 41.5 
Q 54.890625 34.8125 54.890625 23.390625 
Q 54.890625 11.625 47.5625 5.09375 
Q 40.234375 -1.421875 26.90625 -1.421875 
Q 22.3125 -1.421875 17.546875 -0.640625 
Q 12.796875 0.140625 7.71875 1.703125 
L 7.71875 11.625 
Q 12.109375 9.234375 16.796875 8.0625 
Q 21.484375 6.890625 26.703125 6.890625 
Q 35.15625 6.890625 40.078125 11.328125 
Q 45.015625 15.765625 45.015625 23.390625 
Q 45.015625 31 40.078125 35.4375 
Q 35.15625 39.890625 26.703125 39.890625 
Q 22.75 39.890625 18.8125 39.015625 
Q 14.890625 38.140625 10.796875 36.28125 
z
" id="BitstreamVeraSans-Roman-35"/>
      </defs>
      <g transform="translate(442.6828125 773.7953125)scale(0.3 -0.3)">
       <use xlink:href="#BitstreamVeraSans-Roman-35"/>
       <use x="63.623046875" xlink:href="#BitstreamVeraSans-Roman-30"/>
      </g>
     </g>
    </g>
    <g id="xtick_3">
     <g id="line2d_7">
      <g>
       <use style="stroke:#000000;stroke-width:0.5;" x="765.140625" xlink:href="#mfb3109ccf6" y="747.0"/>
      </g>
     </g>
     <g id="line2d_8">
      <g>
       <use style="stroke:#000000;stroke-width:0.5;" x="765.140625" xlink:href="#m0d7136fc8d" y="51.3"/>
      </g>
     </g>
     <g id="text_3">
      <!-- 100 -->
      <defs>
       <path d="M 12.40625 8.296875 
L 28.515625 8.296875 
L 28.515625 63.921875 
L 10.984375 60.40625 
L 10.984375 69.390625 
L 28.421875 72.90625 
L 38.28125 72.90625 
L 38.28125 8.296875 
L 54.390625 8.296875 
L 54.390625 0 
L 12.40625 0 
z
" id="BitstreamVeraSans-Roman-31"/>
      </defs>
      <g transform="translate(736.509375 773.7953125)scale(0.3 -0.3)">
       <use xlink:href="#BitstreamVeraSans-Roman-31"/>
       <use x="63.623046875" xlink:href="#BitstreamVeraSans-Roman-30"/>
       <use x="127.24609375" xlink:href="#BitstreamVeraSans-Roman-30"/>
      </g>
     </g>
    </g>
    <g id="xtick_4">
     <g id="line2d_9">
      <g>
       <use style="stroke:#000000;stroke-width:0.5;" x="1068.5109375" xlink:href="#mfb3109ccf6" y="747.0"/>
      </g>
     </g>
     <g id="line2d_10">
      <g>
       <use style="stroke:#000000;stroke-width:0.5;" x="1068.5109375" xlink:href="#m0d7136fc8d" y="51.3"/>
      </g>
     </g>
     <g id="text_4">
      <!-- 150 -->
      <g transform="translate(1039.8796875 773.7953125)scale(0.3 -0.3)">
       <use xlink:href="#BitstreamVeraSans-Roman-31"/>
       <use x="63.623046875" xlink:href="#BitstreamVeraSans-Roman-35"/>
       <use x="127.24609375" xlink:href="#BitstreamVeraSans-Roman-30"/>
      </g>
     </g>
    </g>
    <g id="xtick_5">
     <g id="line2d_11">
      <g>
       <use style="stroke:#000000;stroke-width:0.5;" x="1371.88125" xlink:href="#mfb3109ccf6" y="747.0"/>
      </g>
     </g>
     <g id="line2d_12">
      <g>
       <use style="stroke:#000000;stroke-width:0.5;" x="1371.88125" xlink:href="#m0d7136fc8d" y="51.3"/>
      </g>
     </g>
     <g id="text_5">
      <!-- 200 -->
      <defs>
       <path d="M 19.1875 8.296875 
L 53.609375 8.296875 
L 53.609375 0 
L 7.328125 0 
L 7.328125 8.296875 
Q 12.9375 14.109375 22.625 23.890625 
Q 32.328125 33.6875 34.8125 36.53125 
Q 39.546875 41.84375 41.421875 45.53125 
Q 43.3125 49.21875 43.3125 52.78125 
Q 43.3125 58.59375 39.234375 62.25 
Q 35.15625 65.921875 28.609375 65.921875 
Q 23.96875 65.921875 18.8125 64.3125 
Q 13.671875 62.703125 7.8125 59.421875 
L 7.8125 69.390625 
Q 13.765625 71.78125 18.9375 73 
Q 24.125 74.21875 28.421875 74.21875 
Q 39.75 74.21875 46.484375 68.546875 
Q 53.21875 62.890625 53.21875 53.421875 
Q 53.21875 48.921875 51.53125 44.890625 
Q 49.859375 40.875 45.40625 35.40625 
Q 44.1875 33.984375 37.640625 27.21875 
Q 31.109375 20.453125 19.1875 8.296875 
" id="BitstreamVeraSans-Roman-32"/>
      </defs>
      <g transform="translate(1343.25 773.7953125)scale(0.3 -0.3)">
       <use xlink:href="#BitstreamVeraSans-Roman-32"/>
       <use x="63.623046875" xlink:href="#BitstreamVeraSans-Roman-30"/>
       <use x="127.24609375" xlink:href="#BitstreamVeraSans-Roman-30"/>
      </g>
     </g>
    </g>
    <g id="text_6">
     <!-- iterations -->
     <defs>
      <path d="M 54.890625 33.015625 
L 54.890625 0 
L 45.90625 0 
L 45.90625 32.71875 
Q 45.90625 40.484375 42.875 44.328125 
Q 39.84375 48.1875 33.796875 48.1875 
Q 26.515625 48.1875 22.3125 43.546875 
Q 18.109375 38.921875 18.109375 30.90625 
L 18.109375 0 
L 9.078125 0 
L 9.078125 54.6875 
L 18.109375 54.6875 
L 18.109375 46.1875 
Q 21.34375 51.125 25.703125 53.5625 
Q 30.078125 56 35.796875 56 
Q 45.21875 56 50.046875 50.171875 
Q 54.890625 44.34375 54.890625 33.015625 
" id="BitstreamVeraSans-Roman-6e"/>
      <path d="M 34.28125 27.484375 
Q 23.390625 27.484375 19.1875 25 
Q 14.984375 22.515625 14.984375 16.5 
Q 14.984375 11.71875 18.140625 8.90625 
Q 21.296875 6.109375 26.703125 6.109375 
Q 34.1875 6.109375 38.703125 11.40625 
Q 43.21875 16.703125 43.21875 25.484375 
L 43.21875 27.484375 
z
M 52.203125 31.203125 
L 52.203125 0 
L 43.21875 0 
L 43.21875 8.296875 
Q 40.140625 3.328125 35.546875 0.953125 
Q 30.953125 -1.421875 24.3125 -1.421875 
Q 15.921875 -1.421875 10.953125 3.296875 
Q 6 8.015625 6 15.921875 
Q 6 25.140625 12.171875 29.828125 
Q 18.359375 34.515625 30.609375 34.515625 
L 43.21875 34.515625 
L 43.21875 35.40625 
Q 43.21875 41.609375 39.140625 45 
Q 35.0625 48.390625 27.6875 48.390625 
Q 23 48.390625 18.546875 47.265625 
Q 14.109375 46.140625 10.015625 43.890625 
L 10.015625 52.203125 
Q 14.9375 54.109375 19.578125 55.046875 
Q 24.21875 56 28.609375 56 
Q 40.484375 56 46.34375 49.84375 
Q 52.203125 43.703125 52.203125 31.203125 
" id="BitstreamVeraSans-Roman-61"/>
      <path d="M 30.609375 48.390625 
Q 23.390625 48.390625 19.1875 42.75 
Q 14.984375 37.109375 14.984375 27.296875 
Q 14.984375 17.484375 19.15625 11.84375 
Q 23.34375 6.203125 30.609375 6.203125 
Q 37.796875 6.203125 41.984375 11.859375 
Q 46.1875 17.53125 46.1875 27.296875 
Q 46.1875 37.015625 41.984375 42.703125 
Q 37.796875 48.390625 30.609375 48.390625 
M 30.609375 56 
Q 42.328125 56 49.015625 48.375 
Q 55.71875 40.765625 55.71875 27.296875 
Q 55.71875 13.875 49.015625 6.21875 
Q 42.328125 -1.421875 30.609375 -1.421875 
Q 18.84375 -1.421875 12.171875 6.21875 
Q 5.515625 13.875 5.515625 27.296875 
Q 5.515625 40.765625 12.171875 48.375 
Q 18.84375 56 30.609375 56 
" id="BitstreamVeraSans-Roman-6f"/>
      <path d="M 9.421875 54.6875 
L 18.40625 54.6875 
L 18.40625 0 
L 9.421875 0 
z
M 9.421875 75.984375 
L 18.40625 75.984375 
L 18.40625 64.59375 
L 9.421875 64.59375 
z
" id="BitstreamVeraSans-Roman-69"/>
      <path d="M 56.203125 29.59375 
L 56.203125 25.203125 
L 14.890625 25.203125 
Q 15.484375 15.921875 20.484375 11.0625 
Q 25.484375 6.203125 34.421875 6.203125 
Q 39.59375 6.203125 44.453125 7.46875 
Q 49.3125 8.734375 54.109375 11.28125 
L 54.109375 2.78125 
Q 49.265625 0.734375 44.1875 -0.34375 
Q 39.109375 -1.421875 33.890625 -1.421875 
Q 20.796875 -1.421875 13.15625 6.1875 
Q 5.515625 13.8125 5.515625 26.8125 
Q 5.515625 40.234375 12.765625 48.109375 
Q 20.015625 56 32.328125 56 
Q 43.359375 56 49.78125 48.890625 
Q 56.203125 41.796875 56.203125 29.59375 
M 47.21875 32.234375 
Q 47.125 39.59375 43.09375 43.984375 
Q 39.0625 48.390625 32.421875 48.390625 
Q 24.90625 48.390625 20.390625 44.140625 
Q 15.875 39.890625 15.1875 32.171875 
z
" id="BitstreamVeraSans-Roman-65"/>
      <path d="M 18.3125 70.21875 
L 18.3125 54.6875 
L 36.8125 54.6875 
L 36.8125 47.703125 
L 18.3125 47.703125 
L 18.3125 18.015625 
Q 18.3125 11.328125 20.140625 9.421875 
Q 21.96875 7.515625 27.59375 7.515625 
L 36.8125 7.515625 
L 36.8125 0 
L 27.59375 0 
Q 17.1875 0 13.234375 3.875 
Q 9.28125 7.765625 9.28125 18.015625 
L 9.28125 47.703125 
L 2.6875 47.703125 
L 2.6875 54.6875 
L 9.28125 54.6875 
L 9.28125 70.21875 
z
" id="BitstreamVeraSans-Roman-74"/>
      <path d="M 41.109375 46.296875 
Q 39.59375 47.171875 37.8125 47.578125 
Q 36.03125 48 33.890625 48 
Q 26.265625 48 22.1875 43.046875 
Q 18.109375 38.09375 18.109375 28.8125 
L 18.109375 0 
L 9.078125 0 
L 9.078125 54.6875 
L 18.109375 54.6875 
L 18.109375 46.1875 
Q 20.953125 51.171875 25.484375 53.578125 
Q 30.03125 56 36.53125 56 
Q 37.453125 56 38.578125 55.875 
Q 39.703125 55.765625 41.0625 55.515625 
z
" id="BitstreamVeraSans-Roman-72"/>
      <path d="M 44.28125 53.078125 
L 44.28125 44.578125 
Q 40.484375 46.53125 36.375 47.5 
Q 32.28125 48.484375 27.875 48.484375 
Q 21.1875 48.484375 17.84375 46.4375 
Q 14.5 44.390625 14.5 40.28125 
Q 14.5 37.15625 16.890625 35.375 
Q 19.28125 33.59375 26.515625 31.984375 
L 29.59375 31.296875 
Q 39.15625 29.25 43.1875 25.515625 
Q 47.21875 21.78125 47.21875 15.09375 
Q 47.21875 7.46875 41.1875 3.015625 
Q 35.15625 -1.421875 24.609375 -1.421875 
Q 20.21875 -1.421875 15.453125 -0.5625 
Q 10.6875 0.296875 5.421875 2 
L 5.421875 11.28125 
Q 10.40625 8.6875 15.234375 7.390625 
Q 20.0625 6.109375 24.8125 6.109375 
Q 31.15625 6.109375 34.5625 8.28125 
Q 37.984375 10.453125 37.984375 14.40625 
Q 37.984375 18.0625 35.515625 20.015625 
Q 33.0625 21.96875 24.703125 23.78125 
L 21.578125 24.515625 
Q 13.234375 26.265625 9.515625 29.90625 
Q 5.8125 33.546875 5.8125 39.890625 
Q 5.8125 47.609375 11.28125 51.796875 
Q 16.75 56 26.8125 56 
Q 31.78125 56 36.171875 55.265625 
Q 40.578125 54.546875 44.28125 53.078125 
" id="BitstreamVeraSans-Roman-73"/>
     </defs>
     <g transform="translate(693.95859375 807.8296875)scale(0.3 -0.3)">
      <use xlink:href="#BitstreamVeraSans-Roman-69"/>
      <use x="27.783203125" xlink:href="#BitstreamVeraSans-Roman-74"/>
      <use x="66.9921875" xlink:href="#BitstreamVeraSans-Roman-65"/>
      <use x="128.515625" xlink:href="#BitstreamVeraSans-Roman-72"/>
      <use x="169.62890625" xlink:href="#BitstreamVeraSans-Roman-61"/>
      <use x="230.908203125" xlink:href="#BitstreamVeraSans-Roman-74"/>
      <use x="270.1171875" xlink:href="#BitstreamVeraSans-Roman-69"/>
      <use x="297.900390625" xlink:href="#BitstreamVeraSans-Roman-6f"/>
      <use x="359.08203125" xlink:href="#BitstreamVeraSans-Roman-6e"/>
      <use x="422.4609375" xlink:href="#BitstreamVeraSans-Roman-73"/>
     </g>
    </g>
   </g>
   <g id="matplotlib.axis_2">
    <g id="ytick_1">
     <g id="line2d_13">
      <defs>
       <path d="M 0 0 
L 4 0 
" id="ma5e20bbe01" style="stroke:#000000;stroke-width:0.5;"/>
      </defs>
      <g>
       <use style="stroke:#000000;stroke-width:0.5;" x="158.4" xlink:href="#ma5e20bbe01" y="747.0"/>
      </g>
     </g>
     <g id="line2d_14">
      <defs>
       <path d="M 0 0 
L -4 0 
" id="me9da677146" style="stroke:#000000;stroke-width:0.5;"/>
      </defs>
      <g>
       <use style="stroke:#000000;stroke-width:0.5;" x="1371.88125" xlink:href="#me9da677146" y="747.0"/>
      </g>
     </g>
     <g id="text_7">
      <!-- −60 -->
      <defs>
       <path d="M 10.59375 35.5 
L 73.1875 35.5 
L 73.1875 27.203125 
L 10.59375 27.203125 
z
" id="BitstreamVeraSans-Roman-2212"/>
       <path d="M 33.015625 40.375 
Q 26.375 40.375 22.484375 35.828125 
Q 18.609375 31.296875 18.609375 23.390625 
Q 18.609375 15.53125 22.484375 10.953125 
Q 26.375 6.390625 33.015625 6.390625 
Q 39.65625 6.390625 43.53125 10.953125 
Q 47.40625 15.53125 47.40625 23.390625 
Q 47.40625 31.296875 43.53125 35.828125 
Q 39.65625 40.375 33.015625 40.375 
M 52.59375 71.296875 
L 52.59375 62.3125 
Q 48.875 64.0625 45.09375 64.984375 
Q 41.3125 65.921875 37.59375 65.921875 
Q 27.828125 65.921875 22.671875 59.328125 
Q 17.53125 52.734375 16.796875 39.40625 
Q 19.671875 43.65625 24.015625 45.921875 
Q 28.375 48.1875 33.59375 48.1875 
Q 44.578125 48.1875 50.953125 41.515625 
Q 57.328125 34.859375 57.328125 23.390625 
Q 57.328125 12.15625 50.6875 5.359375 
Q 44.046875 -1.421875 33.015625 -1.421875 
Q 20.359375 -1.421875 13.671875 8.265625 
Q 6.984375 17.96875 6.984375 36.375 
Q 6.984375 53.65625 15.1875 63.9375 
Q 23.390625 74.21875 37.203125 74.21875 
Q 40.921875 74.21875 44.703125 73.484375 
Q 48.484375 72.75 52.59375 71.296875 
" id="BitstreamVeraSans-Roman-36"/>
      </defs>
      <g transform="translate(91.0859375 755.278125)scale(0.3 -0.3)">
       <use xlink:href="#BitstreamVeraSans-Roman-2212"/>
       <use x="83.7890625" xlink:href="#BitstreamVeraSans-Roman-36"/>
       <use x="147.412109375" xlink:href="#BitstreamVeraSans-Roman-30"/>
      </g>
     </g>
    </g>
    <g id="ytick_2">
     <g id="line2d_15">
      <g>
       <use style="stroke:#000000;stroke-width:0.5;" x="158.4" xlink:href="#ma5e20bbe01" y="660.0375"/>
      </g>
     </g>
     <g id="line2d_16">
      <g>
       <use style="stroke:#000000;stroke-width:0.5;" x="1371.88125" xlink:href="#me9da677146" y="660.0375"/>
      </g>
     </g>
     <g id="text_8">
      <!-- −50 -->
      <g transform="translate(91.0859375 668.315625)scale(0.3 -0.3)">
       <use xlink:href="#BitstreamVeraSans-Roman-2212"/>
       <use x="83.7890625" xlink:href="#BitstreamVeraSans-Roman-35"/>
       <use x="147.412109375" xlink:href="#BitstreamVeraSans-Roman-30"/>
      </g>
     </g>
    </g>
    <g id="ytick_3">
     <g id="line2d_17">
      <g>
       <use style="stroke:#000000;stroke-width:0.5;" x="158.4" xlink:href="#ma5e20bbe01" y="573.075"/>
      </g>
     </g>
     <g id="line2d_18">
      <g>
       <use style="stroke:#000000;stroke-width:0.5;" x="1371.88125" xlink:href="#me9da677146" y="573.075"/>
      </g>
     </g>
     <g id="text_9">
      <!-- −40 -->
      <defs>
       <path d="M 37.796875 64.3125 
L 12.890625 25.390625 
L 37.796875 25.390625 
z
M 35.203125 72.90625 
L 47.609375 72.90625 
L 47.609375 25.390625 
L 58.015625 25.390625 
L 58.015625 17.1875 
L 47.609375 17.1875 
L 47.609375 0 
L 37.796875 0 
L 37.796875 17.1875 
L 4.890625 17.1875 
L 4.890625 26.703125 
z
" id="BitstreamVeraSans-Roman-34"/>
      </defs>
      <g transform="translate(91.0859375 581.353125)scale(0.3 -0.3)">
       <use xlink:href="#BitstreamVeraSans-Roman-2212"/>
       <use x="83.7890625" xlink:href="#BitstreamVeraSans-Roman-34"/>
       <use x="147.412109375" xlink:href="#BitstreamVeraSans-Roman-30"/>
      </g>
     </g>
    </g>
    <g id="ytick_4">
     <g id="line2d_19">
      <g>
       <use style="stroke:#000000;stroke-width:0.5;" x="158.4" xlink:href="#ma5e20bbe01" y="486.1125"/>
      </g>
     </g>
     <g id="line2d_20">
      <g>
       <use style="stroke:#000000;stroke-width:0.5;" x="1371.88125" xlink:href="#me9da677146" y="486.1125"/>
      </g>
     </g>
     <g id="text_10">
      <!-- −30 -->
      <defs>
       <path d="M 40.578125 39.3125 
Q 47.65625 37.796875 51.625 33 
Q 55.609375 28.21875 55.609375 21.1875 
Q 55.609375 10.40625 48.1875 4.484375 
Q 40.765625 -1.421875 27.09375 -1.421875 
Q 22.515625 -1.421875 17.65625 -0.515625 
Q 12.796875 0.390625 7.625 2.203125 
L 7.625 11.71875 
Q 11.71875 9.328125 16.59375 8.109375 
Q 21.484375 6.890625 26.8125 6.890625 
Q 36.078125 6.890625 40.9375 10.546875 
Q 45.796875 14.203125 45.796875 21.1875 
Q 45.796875 27.640625 41.28125 31.265625 
Q 36.765625 34.90625 28.71875 34.90625 
L 20.21875 34.90625 
L 20.21875 43.015625 
L 29.109375 43.015625 
Q 36.375 43.015625 40.234375 45.921875 
Q 44.09375 48.828125 44.09375 54.296875 
Q 44.09375 59.90625 40.109375 62.90625 
Q 36.140625 65.921875 28.71875 65.921875 
Q 24.65625 65.921875 20.015625 65.03125 
Q 15.375 64.15625 9.8125 62.3125 
L 9.8125 71.09375 
Q 15.4375 72.65625 20.34375 73.4375 
Q 25.25 74.21875 29.59375 74.21875 
Q 40.828125 74.21875 47.359375 69.109375 
Q 53.90625 64.015625 53.90625 55.328125 
Q 53.90625 49.265625 50.4375 45.09375 
Q 46.96875 40.921875 40.578125 39.3125 
" id="BitstreamVeraSans-Roman-33"/>
      </defs>
      <g transform="translate(91.0859375 494.390625)scale(0.3 -0.3)">
       <use xlink:href="#BitstreamVeraSans-Roman-2212"/>
       <use x="83.7890625" xlink:href="#BitstreamVeraSans-Roman-33"/>
       <use x="147.412109375" xlink:href="#BitstreamVeraSans-Roman-30"/>
      </g>
     </g>
    </g>
    <g id="ytick_5">
     <g id="line2d_21">
      <g>
       <use style="stroke:#000000;stroke-width:0.5;" x="158.4" xlink:href="#ma5e20bbe01" y="399.15"/>
      </g>
     </g>
     <g id="line2d_22">
      <g>
       <use style="stroke:#000000;stroke-width:0.5;" x="1371.88125" xlink:href="#me9da677146" y="399.15"/>
      </g>
     </g>
     <g id="text_11">
      <!-- −20 -->
      <g transform="translate(91.0859375 407.428125)scale(0.3 -0.3)">
       <use xlink:href="#BitstreamVeraSans-Roman-2212"/>
       <use x="83.7890625" xlink:href="#BitstreamVeraSans-Roman-32"/>
       <use x="147.412109375" xlink:href="#BitstreamVeraSans-Roman-30"/>
      </g>
     </g>
    </g>
    <g id="ytick_6">
     <g id="line2d_23">
      <g>
       <use style="stroke:#000000;stroke-width:0.5;" x="158.4" xlink:href="#ma5e20bbe01" y="312.1875"/>
      </g>
     </g>
     <g id="line2d_24">
      <g>
       <use style="stroke:#000000;stroke-width:0.5;" x="1371.88125" xlink:href="#me9da677146" y="312.1875"/>
      </g>
     </g>
     <g id="text_12">
      <!-- −10 -->
      <g transform="translate(91.0859375 320.465625)scale(0.3 -0.3)">
       <use xlink:href="#BitstreamVeraSans-Roman-2212"/>
       <use x="83.7890625" xlink:href="#BitstreamVeraSans-Roman-31"/>
       <use x="147.412109375" xlink:href="#BitstreamVeraSans-Roman-30"/>
      </g>
     </g>
    </g>
    <g id="ytick_7">
     <g id="line2d_25">
      <g>
       <use style="stroke:#000000;stroke-width:0.5;" x="158.4" xlink:href="#ma5e20bbe01" y="225.225"/>
      </g>
     </g>
     <g id="line2d_26">
      <g>
       <use style="stroke:#000000;stroke-width:0.5;" x="1371.88125" xlink:href="#me9da677146" y="225.225"/>
      </g>
     </g>
     <g id="text_13">
      <!-- 0 -->
      <g transform="translate(135.3125 233.503125)scale(0.3 -0.3)">
       <use xlink:href="#BitstreamVeraSans-Roman-30"/>
      </g>
     </g>
    </g>
    <g id="ytick_8">
     <g id="line2d_27">
      <g>
       <use style="stroke:#000000;stroke-width:0.5;" x="158.4" xlink:href="#ma5e20bbe01" y="138.2625"/>
      </g>
     </g>
     <g id="line2d_28">
      <g>
       <use style="stroke:#000000;stroke-width:0.5;" x="1371.88125" xlink:href="#me9da677146" y="138.2625"/>
      </g>
     </g>
     <g id="text_14">
      <!-- 10 -->
      <g transform="translate(116.225 146.540625)scale(0.3 -0.3)">
       <use xlink:href="#BitstreamVeraSans-Roman-31"/>
       <use x="63.623046875" xlink:href="#BitstreamVeraSans-Roman-30"/>
      </g>
     </g>
    </g>
    <g id="ytick_9">
     <g id="line2d_29">
      <g>
       <use style="stroke:#000000;stroke-width:0.5;" x="158.4" xlink:href="#ma5e20bbe01" y="51.3"/>
      </g>
     </g>
     <g id="line2d_30">
      <g>
       <use style="stroke:#000000;stroke-width:0.5;" x="1371.88125" xlink:href="#me9da677146" y="51.3"/>
      </g>
     </g>
     <g id="text_15">
      <!-- 20 -->
      <g transform="translate(116.225 59.578125)scale(0.3 -0.3)">
       <use xlink:href="#BitstreamVeraSans-Roman-32"/>
       <use x="63.623046875" xlink:href="#BitstreamVeraSans-Roman-30"/>
      </g>
     </g>
    </g>
    <g id="text_16">
     <!-- log(loss) -->
     <defs>
      <path d="M 8.015625 75.875 
L 15.828125 75.875 
Q 23.140625 64.359375 26.78125 53.3125 
Q 30.421875 42.28125 30.421875 31.390625 
Q 30.421875 20.453125 26.78125 9.375 
Q 23.140625 -1.703125 15.828125 -13.1875 
L 8.015625 -13.1875 
Q 14.5 -2 17.703125 9.0625 
Q 20.90625 20.125 20.90625 31.390625 
Q 20.90625 42.671875 17.703125 53.65625 
Q 14.5 64.65625 8.015625 75.875 
" id="BitstreamVeraSans-Roman-29"/>
      <path d="M 31 75.875 
Q 24.46875 64.65625 21.28125 53.65625 
Q 18.109375 42.671875 18.109375 31.390625 
Q 18.109375 20.125 21.3125 9.0625 
Q 24.515625 -2 31 -13.1875 
L 23.1875 -13.1875 
Q 15.875 -1.703125 12.234375 9.375 
Q 8.59375 20.453125 8.59375 31.390625 
Q 8.59375 42.28125 12.203125 53.3125 
Q 15.828125 64.359375 23.1875 75.875 
z
" id="BitstreamVeraSans-Roman-28"/>
      <path d="M 45.40625 27.984375 
Q 45.40625 37.75 41.375 43.109375 
Q 37.359375 48.484375 30.078125 48.484375 
Q 22.859375 48.484375 18.828125 43.109375 
Q 14.796875 37.75 14.796875 27.984375 
Q 14.796875 18.265625 18.828125 12.890625 
Q 22.859375 7.515625 30.078125 7.515625 
Q 37.359375 7.515625 41.375 12.890625 
Q 45.40625 18.265625 45.40625 27.984375 
M 54.390625 6.78125 
Q 54.390625 -7.171875 48.1875 -13.984375 
Q 42 -20.796875 29.203125 -20.796875 
Q 24.46875 -20.796875 20.265625 -20.09375 
Q 16.0625 -19.390625 12.109375 -17.921875 
L 12.109375 -9.1875 
Q 16.0625 -11.328125 19.921875 -12.34375 
Q 23.78125 -13.375 27.78125 -13.375 
Q 36.625 -13.375 41.015625 -8.765625 
Q 45.40625 -4.15625 45.40625 5.171875 
L 45.40625 9.625 
Q 42.625 4.78125 38.28125 2.390625 
Q 33.9375 0 27.875 0 
Q 17.828125 0 11.671875 7.65625 
Q 5.515625 15.328125 5.515625 27.984375 
Q 5.515625 40.671875 11.671875 48.328125 
Q 17.828125 56 27.875 56 
Q 33.9375 56 38.28125 53.609375 
Q 42.625 51.21875 45.40625 46.390625 
L 45.40625 54.6875 
L 54.390625 54.6875 
z
" id="BitstreamVeraSans-Roman-67"/>
      <path d="M 9.421875 75.984375 
L 18.40625 75.984375 
L 18.40625 0 
L 9.421875 0 
z
" id="BitstreamVeraSans-Roman-6c"/>
     </defs>
     <g transform="translate(79.846875 462.69609375)rotate(-90.0)scale(0.3 -0.3)">
      <use xlink:href="#BitstreamVeraSans-Roman-6c"/>
      <use x="27.783203125" xlink:href="#BitstreamVeraSans-Roman-6f"/>
      <use x="88.96484375" xlink:href="#BitstreamVeraSans-Roman-67"/>
      <use x="152.44140625" xlink:href="#BitstreamVeraSans-Roman-28"/>
      <use x="191.455078125" xlink:href="#BitstreamVeraSans-Roman-6c"/>
      <use x="219.23828125" xlink:href="#BitstreamVeraSans-Roman-6f"/>
      <use x="280.419921875" xlink:href="#BitstreamVeraSans-Roman-73"/>
      <use x="332.51953125" xlink:href="#BitstreamVeraSans-Roman-73"/>
      <use x="384.619140625" xlink:href="#BitstreamVeraSans-Roman-29"/>
     </g>
    </g>
   </g>
   <g id="legend_1">
    <g id="patch_7">
     <path d="M 879.707812 163.36875 
L 1356.88125 163.36875 
L 1356.88125 66.3 
L 879.707812 66.3 
z
" style="fill:#ffffff;stroke:#000000;stroke-linejoin:miter;"/>
    </g>
    <g id="line2d_31">
     <path d="M 900.707812 90.595312 
L 942.707812 90.595312 
" style="fill:none;stroke:#0000ff;stroke-linecap:square;stroke-width:2.0;"/>
    </g>
    <g id="line2d_32"/>
    <g id="text_17">
     <!-- random: step=0.004893 -->
     <defs>
      <path id="BitstreamVeraSans-Roman-20"/>
      <path d="M 52 44.1875 
Q 55.375 50.25 60.0625 53.125 
Q 64.75 56 71.09375 56 
Q 79.640625 56 84.28125 50.015625 
Q 88.921875 44.046875 88.921875 33.015625 
L 88.921875 0 
L 79.890625 0 
L 79.890625 32.71875 
Q 79.890625 40.578125 77.09375 44.375 
Q 74.3125 48.1875 68.609375 48.1875 
Q 61.625 48.1875 57.5625 43.546875 
Q 53.515625 38.921875 53.515625 30.90625 
L 53.515625 0 
L 44.484375 0 
L 44.484375 32.71875 
Q 44.484375 40.625 41.703125 44.40625 
Q 38.921875 48.1875 33.109375 48.1875 
Q 26.21875 48.1875 22.15625 43.53125 
Q 18.109375 38.875 18.109375 30.90625 
L 18.109375 0 
L 9.078125 0 
L 9.078125 54.6875 
L 18.109375 54.6875 
L 18.109375 46.1875 
Q 21.1875 51.21875 25.484375 53.609375 
Q 29.78125 56 35.6875 56 
Q 41.65625 56 45.828125 52.96875 
Q 50 49.953125 52 44.1875 
" id="BitstreamVeraSans-Roman-6d"/>
      <path d="M 31.78125 34.625 
Q 24.75 34.625 20.71875 30.859375 
Q 16.703125 27.09375 16.703125 20.515625 
Q 16.703125 13.921875 20.71875 10.15625 
Q 24.75 6.390625 31.78125 6.390625 
Q 38.8125 6.390625 42.859375 10.171875 
Q 46.921875 13.96875 46.921875 20.515625 
Q 46.921875 27.09375 42.890625 30.859375 
Q 38.875 34.625 31.78125 34.625 
M 21.921875 38.8125 
Q 15.578125 40.375 12.03125 44.71875 
Q 8.5 49.078125 8.5 55.328125 
Q 8.5 64.0625 14.71875 69.140625 
Q 20.953125 74.21875 31.78125 74.21875 
Q 42.671875 74.21875 48.875 69.140625 
Q 55.078125 64.0625 55.078125 55.328125 
Q 55.078125 49.078125 51.53125 44.71875 
Q 48 40.375 41.703125 38.8125 
Q 48.828125 37.15625 52.796875 32.3125 
Q 56.78125 27.484375 56.78125 20.515625 
Q 56.78125 9.90625 50.3125 4.234375 
Q 43.84375 -1.421875 31.78125 -1.421875 
Q 19.734375 -1.421875 13.25 4.234375 
Q 6.78125 9.90625 6.78125 20.515625 
Q 6.78125 27.484375 10.78125 32.3125 
Q 14.796875 37.15625 21.921875 38.8125 
M 18.3125 54.390625 
Q 18.3125 48.734375 21.84375 45.5625 
Q 25.390625 42.390625 31.78125 42.390625 
Q 38.140625 42.390625 41.71875 45.5625 
Q 45.3125 48.734375 45.3125 54.390625 
Q 45.3125 60.0625 41.71875 63.234375 
Q 38.140625 66.40625 31.78125 66.40625 
Q 25.390625 66.40625 21.84375 63.234375 
Q 18.3125 60.0625 18.3125 54.390625 
" id="BitstreamVeraSans-Roman-38"/>
      <path d="M 10.984375 1.515625 
L 10.984375 10.5 
Q 14.703125 8.734375 18.5 7.8125 
Q 22.3125 6.890625 25.984375 6.890625 
Q 35.75 6.890625 40.890625 13.453125 
Q 46.046875 20.015625 46.78125 33.40625 
Q 43.953125 29.203125 39.59375 26.953125 
Q 35.25 24.703125 29.984375 24.703125 
Q 19.046875 24.703125 12.671875 31.3125 
Q 6.296875 37.9375 6.296875 49.421875 
Q 6.296875 60.640625 12.9375 67.421875 
Q 19.578125 74.21875 30.609375 74.21875 
Q 43.265625 74.21875 49.921875 64.515625 
Q 56.59375 54.828125 56.59375 36.375 
Q 56.59375 19.140625 48.40625 8.859375 
Q 40.234375 -1.421875 26.421875 -1.421875 
Q 22.703125 -1.421875 18.890625 -0.6875 
Q 15.09375 0.046875 10.984375 1.515625 
M 30.609375 32.421875 
Q 37.25 32.421875 41.125 36.953125 
Q 45.015625 41.5 45.015625 49.421875 
Q 45.015625 57.28125 41.125 61.84375 
Q 37.25 66.40625 30.609375 66.40625 
Q 23.96875 66.40625 20.09375 61.84375 
Q 16.21875 57.28125 16.21875 49.421875 
Q 16.21875 41.5 20.09375 36.953125 
Q 23.96875 32.421875 30.609375 32.421875 
" id="BitstreamVeraSans-Roman-39"/>
      <path d="M 11.71875 12.40625 
L 22.015625 12.40625 
L 22.015625 0 
L 11.71875 0 
z
M 11.71875 51.703125 
L 22.015625 51.703125 
L 22.015625 39.3125 
L 11.71875 39.3125 
z
" id="BitstreamVeraSans-Roman-3a"/>
      <path d="M 10.6875 12.40625 
L 21 12.40625 
L 21 0 
L 10.6875 0 
z
" id="BitstreamVeraSans-Roman-2e"/>
      <path d="M 10.59375 45.40625 
L 73.1875 45.40625 
L 73.1875 37.203125 
L 10.59375 37.203125 
z
M 10.59375 25.484375 
L 73.1875 25.484375 
L 73.1875 17.1875 
L 10.59375 17.1875 
z
" id="BitstreamVeraSans-Roman-3d"/>
      <path d="M 45.40625 46.390625 
L 45.40625 75.984375 
L 54.390625 75.984375 
L 54.390625 0 
L 45.40625 0 
L 45.40625 8.203125 
Q 42.578125 3.328125 38.25 0.953125 
Q 33.9375 -1.421875 27.875 -1.421875 
Q 17.96875 -1.421875 11.734375 6.484375 
Q 5.515625 14.40625 5.515625 27.296875 
Q 5.515625 40.1875 11.734375 48.09375 
Q 17.96875 56 27.875 56 
Q 33.9375 56 38.25 53.625 
Q 42.578125 51.265625 45.40625 46.390625 
M 14.796875 27.296875 
Q 14.796875 17.390625 18.875 11.75 
Q 22.953125 6.109375 30.078125 6.109375 
Q 37.203125 6.109375 41.296875 11.75 
Q 45.40625 17.390625 45.40625 27.296875 
Q 45.40625 37.203125 41.296875 42.84375 
Q 37.203125 48.484375 30.078125 48.484375 
Q 22.953125 48.484375 18.875 42.84375 
Q 14.796875 37.203125 14.796875 27.296875 
" id="BitstreamVeraSans-Roman-64"/>
      <path d="M 18.109375 8.203125 
L 18.109375 -20.796875 
L 9.078125 -20.796875 
L 9.078125 54.6875 
L 18.109375 54.6875 
L 18.109375 46.390625 
Q 20.953125 51.265625 25.265625 53.625 
Q 29.59375 56 35.59375 56 
Q 45.5625 56 51.78125 48.09375 
Q 58.015625 40.1875 58.015625 27.296875 
Q 58.015625 14.40625 51.78125 6.484375 
Q 45.5625 -1.421875 35.59375 -1.421875 
Q 29.59375 -1.421875 25.265625 0.953125 
Q 20.953125 3.328125 18.109375 8.203125 
M 48.6875 27.296875 
Q 48.6875 37.203125 44.609375 42.84375 
Q 40.53125 48.484375 33.40625 48.484375 
Q 26.265625 48.484375 22.1875 42.84375 
Q 18.109375 37.203125 18.109375 27.296875 
Q 18.109375 17.390625 22.1875 11.75 
Q 26.265625 6.109375 33.40625 6.109375 
Q 40.53125 6.109375 44.609375 11.75 
Q 48.6875 17.390625 48.6875 27.296875 
" id="BitstreamVeraSans-Roman-70"/>
     </defs>
     <g transform="translate(975.7078125 101.0953125)scale(0.3 -0.3)">
      <use xlink:href="#BitstreamVeraSans-Roman-72"/>
      <use x="41.11328125" xlink:href="#BitstreamVeraSans-Roman-61"/>
      <use x="102.392578125" xlink:href="#BitstreamVeraSans-Roman-6e"/>
      <use x="165.771484375" xlink:href="#BitstreamVeraSans-Roman-64"/>
      <use x="229.248046875" xlink:href="#BitstreamVeraSans-Roman-6f"/>
      <use x="290.4296875" xlink:href="#BitstreamVeraSans-Roman-6d"/>
      <use x="387.841796875" xlink:href="#BitstreamVeraSans-Roman-3a"/>
      <use x="421.533203125" xlink:href="#BitstreamVeraSans-Roman-20"/>
      <use x="453.3203125" xlink:href="#BitstreamVeraSans-Roman-73"/>
      <use x="505.419921875" xlink:href="#BitstreamVeraSans-Roman-74"/>
      <use x="544.62890625" xlink:href="#BitstreamVeraSans-Roman-65"/>
      <use x="606.15234375" xlink:href="#BitstreamVeraSans-Roman-70"/>
      <use x="669.62890625" xlink:href="#BitstreamVeraSans-Roman-3d"/>
      <use x="753.41796875" xlink:href="#BitstreamVeraSans-Roman-30"/>
      <use x="817.041015625" xlink:href="#BitstreamVeraSans-Roman-2e"/>
      <use x="848.828125" xlink:href="#BitstreamVeraSans-Roman-30"/>
      <use x="912.451171875" xlink:href="#BitstreamVeraSans-Roman-30"/>
      <use x="976.07421875" xlink:href="#BitstreamVeraSans-Roman-34"/>
      <use x="1039.69726562" xlink:href="#BitstreamVeraSans-Roman-38"/>
      <use x="1103.3203125" xlink:href="#BitstreamVeraSans-Roman-39"/>
      <use x="1166.94335938" xlink:href="#BitstreamVeraSans-Roman-33"/>
     </g>
    </g>
    <g id="line2d_33">
     <path d="M 900.707812 134.629687 
L 942.707812 134.629687 
" style="fill:none;stroke:#008000;stroke-linecap:square;stroke-width:2.0;"/>
    </g>
    <g id="line2d_34"/>
    <g id="text_18">
     <!-- corr: step=0.004893 -->
     <defs>
      <path d="M 48.78125 52.59375 
L 48.78125 44.1875 
Q 44.96875 46.296875 41.140625 47.34375 
Q 37.3125 48.390625 33.40625 48.390625 
Q 24.65625 48.390625 19.8125 42.84375 
Q 14.984375 37.3125 14.984375 27.296875 
Q 14.984375 17.28125 19.8125 11.734375 
Q 24.65625 6.203125 33.40625 6.203125 
Q 37.3125 6.203125 41.140625 7.25 
Q 44.96875 8.296875 48.78125 10.40625 
L 48.78125 2.09375 
Q 45.015625 0.34375 40.984375 -0.53125 
Q 36.96875 -1.421875 32.421875 -1.421875 
Q 20.0625 -1.421875 12.78125 6.34375 
Q 5.515625 14.109375 5.515625 27.296875 
Q 5.515625 40.671875 12.859375 48.328125 
Q 20.21875 56 33.015625 56 
Q 37.15625 56 41.109375 55.140625 
Q 45.0625 54.296875 48.78125 52.59375 
" id="BitstreamVeraSans-Roman-63"/>
     </defs>
     <g transform="translate(975.7078125 145.1296875)scale(0.3 -0.3)">
      <use xlink:href="#BitstreamVeraSans-Roman-63"/>
      <use x="54.98046875" xlink:href="#BitstreamVeraSans-Roman-6f"/>
      <use x="116.162109375" xlink:href="#BitstreamVeraSans-Roman-72"/>
      <use x="157.259765625" xlink:href="#BitstreamVeraSans-Roman-72"/>
      <use x="198.357421875" xlink:href="#BitstreamVeraSans-Roman-3a"/>
      <use x="232.048828125" xlink:href="#BitstreamVeraSans-Roman-20"/>
      <use x="263.8359375" xlink:href="#BitstreamVeraSans-Roman-73"/>
      <use x="315.935546875" xlink:href="#BitstreamVeraSans-Roman-74"/>
      <use x="355.14453125" xlink:href="#BitstreamVeraSans-Roman-65"/>
      <use x="416.66796875" xlink:href="#BitstreamVeraSans-Roman-70"/>
      <use x="480.14453125" xlink:href="#BitstreamVeraSans-Roman-3d"/>
      <use x="563.93359375" xlink:href="#BitstreamVeraSans-Roman-30"/>
      <use x="627.556640625" xlink:href="#BitstreamVeraSans-Roman-2e"/>
      <use x="659.34375" xlink:href="#BitstreamVeraSans-Roman-30"/>
      <use x="722.966796875" xlink:href="#BitstreamVeraSans-Roman-30"/>
      <use x="786.58984375" xlink:href="#BitstreamVeraSans-Roman-34"/>
      <use x="850.212890625" xlink:href="#BitstreamVeraSans-Roman-38"/>
      <use x="913.8359375" xlink:href="#BitstreamVeraSans-Roman-39"/>
      <use x="977.458984375" xlink:href="#BitstreamVeraSans-Roman-33"/>
     </g>
    </g>
   </g>
  </g>
 </g>
 <defs>
  <clipPath id="p6431c1cf80">
   <rect height="695.7" width="1213.48125" x="158.4" y="51.3"/>
  </clipPath>
 </defs>
</svg>
