<?xml version="1.0" encoding="utf-8" standalone="no"?>
<!DOCTYPE svg PUBLIC "-//W3C//DTD SVG 1.1//EN"
  "http://www.w3.org/Graphics/SVG/1.1/DTD/svg11.dtd">
<!-- Created with matplotlib (http://matplotlib.org/) -->
<svg height="864pt" version="1.1" viewBox="0 0 1440 864" width="1440pt" xmlns="http://www.w3.org/2000/svg" xmlns:xlink="http://www.w3.org/1999/xlink">
 <defs>
  <style type="text/css">
*{stroke-linecap:butt;stroke-linejoin:round;stroke-miterlimit:100000;}
  </style>
 </defs>
 <g id="figure_1">
  <g id="patch_1">
   <path d="M 0 864 
L 1440 864 
L 1440 0 
L 0 0 
z
" style="fill:#ffffff;"/>
  </g>
  <g id="axes_1">
   <g id="patch_2">
    <path d="M 158.2875 747 
L 1371.825 747 
L 1371.825 51.3 
L 158.2875 51.3 
z
" style="fill:#ffffff;"/>
   </g>
   <g id="line2d_1">
    <path clip-path="url(#p5fb36fb028)" d="M 158.2875 68.394437 
L 160.714575 71.242347 
L 163.14165 74.882598 
L 165.568725 76.699874 
L 167.9958 79.813793 
L 170.422875 82.434125 
L 172.84995 84.698201 
L 177.7041 90.019976 
L 180.131175 92.350932 
L 182.55825 94.909709 
L 184.985325 97.158539 
L 187.4124 99.252457 
L 192.26655 104.103012 
L 194.693625 106.901691 
L 199.547775 110.951139 
L 204.401925 114.027767 
L 206.829 116.426492 
L 209.256075 117.902438 
L 211.68315 119.973817 
L 214.110225 121.779749 
L 218.964375 126.307937 
L 221.39145 127.96021 
L 228.672675 133.690745 
L 231.09975 135.807577 
L 233.526825 138.270434 
L 240.80805 144.321143 
L 243.235125 146.030827 
L 245.6622 148.26609 
L 248.089275 150.287682 
L 250.51635 151.754955 
L 252.943425 153.661471 
L 255.3705 155.33712 
L 260.22465 157.744497 
L 265.0788 160.594357 
L 267.505875 162.271314 
L 269.93295 164.262657 
L 272.360025 165.951011 
L 274.7871 167.845873 
L 277.214175 169.050361 
L 282.068325 172.530026 
L 284.4954 173.929925 
L 286.922475 175.652674 
L 289.34955 177.125385 
L 294.2037 179.704867 
L 296.630775 181.418949 
L 299.05785 182.863885 
L 301.484925 184.994767 
L 308.76615 190.082486 
L 313.6203 192.91733 
L 316.047375 194.182528 
L 318.47445 195.859077 
L 323.3286 198.641554 
L 325.755675 200.813919 
L 328.18275 202.489405 
L 330.609825 204.422244 
L 333.0369 205.90766 
L 337.89105 208.4975 
L 340.318125 210.439587 
L 342.7452 211.728514 
L 345.172275 213.390939 
L 347.59935 214.822629 
L 350.026425 215.894172 
L 352.4535 217.350242 
L 354.880575 218.58282 
L 357.30765 220.235508 
L 359.734725 221.641604 
L 362.1618 223.683527 
L 364.588875 225.153316 
L 367.01595 226.08949 
L 374.297175 230.261143 
L 376.72425 232.053817 
L 386.43255 238.154732 
L 388.859625 240.183067 
L 396.14085 244.769948 
L 398.567925 245.825734 
L 400.995 247.064811 
L 403.422075 248.651681 
L 405.84915 249.891021 
L 408.276225 251.369868 
L 410.7033 252.490264 
L 413.130375 254.290424 
L 415.55745 255.767485 
L 417.984525 257.391186 
L 420.4116 258.596493 
L 422.838675 260.134449 
L 425.26575 261.437839 
L 427.692825 262.878544 
L 430.1199 264.089147 
L 432.546975 265.442137 
L 437.401125 267.844941 
L 439.8282 269.540225 
L 442.255275 270.67039 
L 444.68235 271.639573 
L 447.109425 273.091823 
L 449.5365 275.098909 
L 451.963575 276.555799 
L 454.39065 278.539347 
L 456.817725 279.989816 
L 459.2448 281.135211 
L 461.671875 282.422609 
L 464.09895 283.536429 
L 466.526025 284.911787 
L 471.380175 286.956461 
L 473.80725 288.692899 
L 478.6614 291.019225 
L 481.088475 292.831856 
L 485.942625 295.614679 
L 498.078 302.669671 
L 502.93215 305.143808 
L 505.359225 306.588204 
L 507.7863 307.692925 
L 510.213375 309.085221 
L 512.64045 310.27562 
L 515.067525 311.626656 
L 522.34875 315.027352 
L 527.2029 318.380817 
L 529.629975 319.636957 
L 534.484125 322.452351 
L 536.9112 323.445106 
L 539.338275 324.901908 
L 541.76535 325.989137 
L 544.192425 326.86364 
L 546.6195 328.270137 
L 553.900725 331.988537 
L 556.3278 333.140217 
L 558.754875 335.159464 
L 561.18195 336.2864 
L 566.0361 339.320025 
L 568.463175 340.43111 
L 578.171475 345.523038 
L 580.59855 347.586852 
L 585.4527 350.557285 
L 587.879775 351.442138 
L 590.30685 352.624418 
L 592.733925 354.159367 
L 595.161 355.372283 
L 600.01515 358.102674 
L 609.72345 362.872972 
L 612.150525 364.34242 
L 614.5776 365.676052 
L 617.004675 366.604824 
L 619.43175 367.873431 
L 624.2859 370.058806 
L 626.712975 371.246172 
L 629.14005 372.85236 
L 631.567125 374.284487 
L 636.421275 376.277481 
L 638.84835 377.500343 
L 643.7025 380.836041 
L 646.129575 382.197538 
L 658.26495 387.927707 
L 660.692025 388.957174 
L 665.546175 391.343267 
L 667.97325 393.244308 
L 670.400325 394.492998 
L 675.254475 396.549628 
L 677.68155 398.000078 
L 680.108625 398.740553 
L 682.5357 399.800321 
L 684.962775 401.194242 
L 687.38985 402.297279 
L 689.816925 403.961892 
L 692.244 405.43945 
L 694.671075 406.55338 
L 697.09815 408.164049 
L 699.525225 409.184216 
L 701.9523 410.407235 
L 704.379375 412.057124 
L 706.80645 413.297986 
L 709.233525 414.403248 
L 711.6606 415.800916 
L 716.51475 418.182305 
L 718.941825 419.037776 
L 721.3689 420.086318 
L 726.22305 422.569352 
L 728.650125 423.158668 
L 738.358425 428.344203 
L 743.212575 430.49666 
L 745.63965 432.048613 
L 748.066725 433.210995 
L 752.920875 436.22223 
L 755.34795 437.287047 
L 760.2021 440.039149 
L 762.629175 441.575151 
L 772.337475 446.141386 
L 774.76455 447.088716 
L 777.191625 448.498146 
L 779.6187 449.641271 
L 782.045775 450.538746 
L 789.327 454.564997 
L 796.608225 457.669531 
L 799.0353 458.972261 
L 808.7436 463.206714 
L 811.170675 464.776094 
L 813.59775 465.810931 
L 816.024825 467.531035 
L 818.4519 468.640009 
L 823.30605 471.369188 
L 825.733125 472.44425 
L 828.1602 473.669163 
L 830.587275 475.194772 
L 835.441425 477.127325 
L 842.72265 480.634151 
L 847.5768 482.737999 
L 850.003875 483.856692 
L 852.43095 484.675652 
L 854.858025 486.627544 
L 857.2851 487.621854 
L 859.712175 488.971225 
L 864.566325 490.898886 
L 866.9934 491.811841 
L 869.420475 493.731806 
L 871.84755 495.328129 
L 876.7017 497.648972 
L 879.128775 498.540191 
L 881.55585 500.410281 
L 883.982925 501.398941 
L 886.41 502.603736 
L 888.837075 503.39761 
L 891.26415 504.460702 
L 893.691225 505.998915 
L 896.1183 506.834449 
L 898.545375 507.799909 
L 900.97245 508.925804 
L 903.399525 510.515236 
L 910.68075 513.797726 
L 913.107825 515.088222 
L 917.961975 516.897866 
L 920.38905 518.382498 
L 922.816125 519.453312 
L 925.2432 520.745428 
L 927.670275 521.633408 
L 930.09735 522.956754 
L 932.524425 523.897398 
L 937.378575 526.682516 
L 939.80565 527.792378 
L 944.6598 530.195093 
L 947.086875 531.168374 
L 951.941025 533.988659 
L 956.795175 536.324692 
L 964.0764 539.150334 
L 968.93055 541.02996 
L 971.357625 542.305571 
L 973.7847 543.276457 
L 976.211775 544.515794 
L 978.63885 545.344569 
L 981.065925 546.296109 
L 983.493 547.630252 
L 985.920075 548.541 
L 988.34715 549.682715 
L 993.2013 552.552037 
L 1000.482525 555.790208 
L 1005.336675 557.880721 
L 1007.76375 559.1008 
L 1019.899125 564.42169 
L 1022.3262 565.482591 
L 1024.753275 566.861019 
L 1034.461575 571.24631 
L 1036.88865 572.066974 
L 1041.7428 574.494998 
L 1044.169875 575.315462 
L 1046.59695 576.607847 
L 1049.024025 577.641148 
L 1051.4511 578.841072 
L 1053.878175 580.36311 
L 1063.586475 584.575978 
L 1068.440625 586.374045 
L 1078.148925 591.340248 
L 1087.857225 595.14956 
L 1090.2843 595.870579 
L 1092.711375 596.848363 
L 1102.419675 601.172748 
L 1104.84675 602.18323 
L 1107.273825 603.413991 
L 1109.7009 604.326145 
L 1112.127975 605.367596 
L 1116.982125 608.056009 
L 1119.4092 608.97946 
L 1121.836275 610.095605 
L 1124.26335 610.679944 
L 1126.690425 612.008575 
L 1131.544575 614.095833 
L 1136.398725 616.415203 
L 1138.8258 617.376656 
L 1141.252875 618.764408 
L 1143.67995 619.59526 
L 1146.107025 620.629273 
L 1155.815325 625.958703 
L 1158.2424 627.198602 
L 1160.669475 628.005796 
L 1163.09655 629.231644 
L 1170.377775 632.216138 
L 1172.80485 633.786408 
L 1175.231925 634.490829 
L 1177.659 635.427172 
L 1180.086075 636.719866 
L 1184.940225 638.60637 
L 1187.3673 640.32931 
L 1189.794375 641.242323 
L 1192.22145 642.667066 
L 1197.0756 645.062568 
L 1199.502675 646.515912 
L 1201.92975 647.619365 
L 1204.356825 648.940558 
L 1209.210975 651.111935 
L 1211.63805 652.724638 
L 1226.2005 659.760269 
L 1228.627575 660.709153 
L 1231.05465 661.95774 
L 1233.481725 662.693261 
L 1235.9088 663.738253 
L 1238.335875 664.964393 
L 1240.76295 665.713905 
L 1243.190025 666.822723 
L 1248.044175 668.906059 
L 1252.898325 671.106215 
L 1257.752475 672.693797 
L 1260.17955 673.757444 
L 1265.0337 676.292845 
L 1269.88785 678.472857 
L 1282.023225 684.872629 
L 1284.4503 685.944236 
L 1286.877375 687.292075 
L 1291.731525 689.384789 
L 1294.1586 690.533542 
L 1296.585675 691.881593 
L 1299.01275 692.691651 
L 1301.439825 693.643213 
L 1303.8669 695.378879 
L 1306.293975 696.769913 
L 1308.72105 697.876345 
L 1313.5752 699.781347 
L 1316.002275 700.955579 
L 1318.42935 701.927636 
L 1323.2835 703.554767 
L 1325.710575 704.54401 
L 1328.13765 705.772645 
L 1330.564725 707.292401 
L 1332.9918 708.410801 
L 1335.418875 709.285552 
L 1337.84595 710.406445 
L 1340.273025 711.392789 
L 1345.127175 714.190713 
L 1347.55425 715.017102 
L 1349.981325 716.070826 
L 1352.4084 717.506417 
L 1357.26255 719.875245 
L 1362.1167 722.440501 
L 1364.543775 723.96459 
L 1366.97085 725.344491 
L 1369.397925 726.543178 
L 1369.397925 726.543178 
" style="fill:none;stroke:#0000ff;stroke-linecap:square;stroke-width:2.0;"/>
   </g>
   <g id="line2d_2">
    <path clip-path="url(#p5fb36fb028)" d="M 158.2875 68.961755 
L 160.714575 71.959662 
L 163.14165 74.788845 
L 165.568725 77.771671 
L 167.9958 79.855324 
L 170.422875 82.459195 
L 172.84995 84.374462 
L 175.277025 86.454498 
L 177.7041 89.606257 
L 180.131175 91.464077 
L 182.55825 93.46472 
L 184.985325 95.627627 
L 187.4124 97.388912 
L 189.839475 99.660365 
L 197.1207 105.664825 
L 201.97485 108.730912 
L 206.829 112.45004 
L 211.68315 117.204193 
L 214.110225 119.337035 
L 218.964375 123.10513 
L 221.39145 125.149969 
L 223.818525 126.911496 
L 231.09975 133.284101 
L 233.526825 134.899363 
L 235.9539 136.963248 
L 238.380975 138.394307 
L 240.80805 140.129967 
L 243.235125 141.654857 
L 245.6622 143.702317 
L 248.089275 145.334032 
L 250.51635 147.539221 
L 252.943425 149.393299 
L 255.3705 150.353069 
L 257.797575 152.146079 
L 260.22465 153.676536 
L 265.0788 157.170253 
L 267.505875 158.568682 
L 269.93295 160.330373 
L 272.360025 161.836001 
L 274.7871 163.511954 
L 277.214175 165.53429 
L 279.64125 167.341973 
L 284.4954 170.411837 
L 286.922475 171.747189 
L 289.34955 173.889166 
L 291.776625 175.131604 
L 294.2037 176.216465 
L 296.630775 178.035154 
L 301.484925 181.038268 
L 311.193225 187.080856 
L 313.6203 189.040558 
L 316.047375 190.758343 
L 318.47445 192.113165 
L 320.901525 193.658431 
L 323.3286 195.62406 
L 325.755675 197.218311 
L 328.18275 198.953059 
L 330.609825 200.457468 
L 340.318125 205.665917 
L 342.7452 207.557651 
L 345.172275 208.790801 
L 347.59935 210.362369 
L 350.026425 211.707339 
L 352.4535 213.35006 
L 357.30765 215.253699 
L 364.588875 219.447321 
L 367.01595 220.541501 
L 369.443025 222.310211 
L 376.72425 226.850193 
L 381.5784 229.600894 
L 384.005475 231.016043 
L 386.43255 232.143972 
L 388.859625 233.470612 
L 391.2867 234.464541 
L 393.713775 235.832797 
L 398.567925 238.22915 
L 400.995 239.997235 
L 403.422075 241.029991 
L 405.84915 242.237118 
L 408.276225 243.940222 
L 413.130375 246.371469 
L 417.984525 249.231383 
L 427.692825 254.371399 
L 430.1199 255.925 
L 432.546975 257.009158 
L 434.97405 258.483858 
L 437.401125 259.795904 
L 442.255275 262.024347 
L 444.68235 263.743997 
L 447.109425 265.158361 
L 449.5365 266.359241 
L 451.963575 267.834306 
L 454.39065 268.710657 
L 456.817725 270.353662 
L 466.526025 276.124505 
L 468.9531 277.178709 
L 471.380175 278.682289 
L 476.234325 281.201789 
L 481.088475 284.337575 
L 483.51555 285.372556 
L 488.3697 288.031257 
L 490.796775 289.272057 
L 495.650925 291.5485 
L 498.078 293.443365 
L 500.505075 294.778472 
L 502.93215 295.649729 
L 505.359225 297.079905 
L 510.213375 300.167831 
L 515.067525 302.836248 
L 517.4946 304.002514 
L 522.34875 305.985655 
L 524.775825 307.10448 
L 527.2029 308.376314 
L 529.629975 309.369999 
L 532.05705 310.745205 
L 534.484125 312.398906 
L 536.9112 313.673915 
L 541.76535 315.945851 
L 544.192425 316.733994 
L 549.046575 318.768985 
L 551.47365 320.323682 
L 553.900725 321.621514 
L 556.3278 322.753133 
L 558.754875 324.299674 
L 561.18195 325.340319 
L 563.609025 327.03529 
L 566.0361 328.092968 
L 568.463175 328.973358 
L 573.317325 331.162325 
L 578.171475 333.020531 
L 580.59855 334.440059 
L 583.025625 335.590833 
L 585.4527 336.888317 
L 587.879775 338.02055 
L 595.161 341.823763 
L 597.588075 343.498053 
L 600.01515 344.554036 
L 602.442225 345.441646 
L 609.72345 348.566354 
L 612.150525 350.097096 
L 619.43175 353.811259 
L 621.858825 355.788976 
L 624.2859 357.324884 
L 633.9942 361.745603 
L 638.84835 364.324407 
L 641.275425 365.236875 
L 643.7025 366.609737 
L 648.55665 368.671623 
L 650.983725 369.866294 
L 658.26495 373.116077 
L 665.546175 377.023991 
L 667.97325 377.956625 
L 672.8274 380.22414 
L 675.254475 381.308063 
L 677.68155 383.058056 
L 682.5357 385.492278 
L 684.962775 386.544086 
L 687.38985 388.190299 
L 692.244 391.012062 
L 697.09815 393.032546 
L 699.525225 393.965675 
L 701.9523 395.290112 
L 704.379375 396.173336 
L 706.80645 397.227552 
L 714.087675 400.868347 
L 716.51475 402.565681 
L 718.941825 403.861435 
L 721.3689 404.754159 
L 723.795975 405.792223 
L 726.22305 407.495503 
L 728.650125 408.921679 
L 731.0772 410.023337 
L 738.358425 413.754297 
L 740.7855 414.735291 
L 743.212575 416.276991 
L 745.63965 417.264501 
L 748.066725 418.121517 
L 750.4938 419.11437 
L 752.920875 420.409527 
L 755.34795 421.948178 
L 757.775025 422.923523 
L 760.2021 424.087334 
L 762.629175 424.951217 
L 767.483325 426.988197 
L 777.191625 431.461273 
L 779.6187 433.065856 
L 782.045775 434.374605 
L 784.47285 435.328074 
L 786.899925 436.448563 
L 791.754075 438.531607 
L 796.608225 440.859376 
L 799.0353 441.739564 
L 801.462375 442.997882 
L 803.88945 444.437714 
L 806.316525 445.541755 
L 808.7436 446.396421 
L 811.170675 447.685698 
L 813.59775 448.567014 
L 816.024825 449.699776 
L 818.4519 450.517404 
L 820.878975 451.601169 
L 823.30605 452.326213 
L 828.1602 454.582183 
L 830.587275 455.957702 
L 835.441425 457.701883 
L 842.72265 461.14513 
L 845.149725 462.043014 
L 847.5768 463.427365 
L 852.43095 465.98364 
L 854.858025 467.281198 
L 857.2851 468.12774 
L 862.13925 470.621211 
L 866.9934 472.731818 
L 869.420475 474.024318 
L 871.84755 475.65587 
L 874.274625 476.466435 
L 876.7017 477.867984 
L 879.128775 478.844719 
L 883.982925 481.647523 
L 886.41 482.605121 
L 888.837075 483.944769 
L 898.545375 488.692488 
L 903.399525 490.637985 
L 908.253675 492.939442 
L 913.107825 495.037194 
L 920.38905 498.487051 
L 922.816125 499.918396 
L 925.2432 501.530694 
L 927.670275 502.490924 
L 930.09735 503.138809 
L 932.524425 504.732948 
L 934.9515 505.954743 
L 937.378575 506.785264 
L 939.80565 507.910934 
L 942.232725 508.895678 
L 944.6598 510.126455 
L 947.086875 511.179834 
L 954.3681 515.333302 
L 956.795175 516.341758 
L 959.22225 517.539289 
L 961.649325 518.593983 
L 964.0764 519.87854 
L 968.93055 522.065573 
L 971.357625 523.3586 
L 973.7847 524.220023 
L 976.211775 525.252607 
L 983.493 529.022077 
L 993.2013 533.695929 
L 995.628375 535.237028 
L 998.05545 536.115407 
L 1007.76375 540.904324 
L 1010.190825 541.772835 
L 1015.044975 543.658944 
L 1017.47205 544.443905 
L 1022.3262 547.276857 
L 1024.753275 548.247105 
L 1032.0345 551.584065 
L 1041.7428 556.116045 
L 1044.169875 557.375214 
L 1046.59695 558.177641 
L 1049.024025 559.220823 
L 1053.878175 561.628034 
L 1056.30525 563.088994 
L 1061.1594 565.460663 
L 1066.01355 567.48738 
L 1068.440625 568.833307 
L 1078.148925 573.583366 
L 1080.576 574.326366 
L 1083.003075 575.389118 
L 1087.857225 577.059155 
L 1090.2843 578.162353 
L 1095.13845 579.932916 
L 1097.565525 581.5181 
L 1099.9926 582.710986 
L 1102.419675 584.154484 
L 1107.273825 587.253941 
L 1109.7009 588.780548 
L 1114.55505 590.594061 
L 1116.982125 592.02805 
L 1119.4092 593.069398 
L 1124.26335 595.810083 
L 1126.690425 597.543267 
L 1141.252875 604.005207 
L 1143.67995 605.591166 
L 1148.5341 607.808627 
L 1150.961175 608.973407 
L 1155.815325 611.619052 
L 1158.2424 612.912572 
L 1160.669475 613.684144 
L 1163.09655 614.690136 
L 1165.523625 615.919494 
L 1167.9507 616.917264 
L 1170.377775 618.202994 
L 1172.80485 619.193229 
L 1175.231925 620.714562 
L 1177.659 621.848136 
L 1180.086075 622.542963 
L 1182.51315 623.669614 
L 1184.940225 624.932547 
L 1187.3673 625.904943 
L 1189.794375 627.062692 
L 1192.22145 628.529286 
L 1194.648525 629.851557 
L 1197.0756 630.971669 
L 1201.92975 633.350624 
L 1206.7839 635.663861 
L 1209.210975 636.405382 
L 1211.63805 637.265915 
L 1214.065125 638.746399 
L 1216.4922 639.73886 
L 1218.919275 641.118844 
L 1221.34635 642.236997 
L 1223.773425 643.698389 
L 1228.627575 646.085657 
L 1233.481725 647.854506 
L 1235.9088 648.543836 
L 1240.76295 651.330159 
L 1243.190025 652.518596 
L 1250.47125 655.153554 
L 1255.3254 657.315637 
L 1260.17955 658.969055 
L 1262.606625 660.042132 
L 1265.0337 660.803087 
L 1267.460775 661.779451 
L 1272.314925 664.254745 
L 1274.742 665.89185 
L 1277.169075 666.892246 
L 1279.59615 668.293888 
L 1282.023225 669.301557 
L 1284.4503 670.073988 
L 1286.877375 671.109066 
L 1289.30445 671.998159 
L 1291.731525 673.327276 
L 1294.1586 674.214561 
L 1299.01275 676.806552 
L 1303.8669 678.867792 
L 1306.293975 680.262342 
L 1308.72105 681.316927 
L 1311.148125 682.15746 
L 1313.5752 683.704711 
L 1318.42935 686.119624 
L 1320.856425 686.988423 
L 1323.2835 688.277097 
L 1325.710575 689.215588 
L 1328.13765 690.520469 
L 1330.564725 691.619071 
L 1332.9918 693.129806 
L 1335.418875 694.284058 
L 1337.84595 695.301301 
L 1340.273025 696.605766 
L 1345.127175 698.226504 
L 1347.55425 699.709639 
L 1349.981325 700.994334 
L 1352.4084 701.996448 
L 1354.835475 702.745968 
L 1357.26255 703.623135 
L 1359.689625 705.164472 
L 1364.543775 707.230159 
L 1366.97085 708.127132 
L 1369.397925 709.65099 
L 1369.397925 709.65099 
" style="fill:none;stroke:#008000;stroke-linecap:square;stroke-width:2.0;"/>
   </g>
   <g id="patch_3">
    <path d="M 158.2875 51.3 
L 1371.825 51.3 
" style="fill:none;stroke:#000000;stroke-linecap:square;stroke-linejoin:miter;"/>
   </g>
   <g id="patch_4">
    <path d="M 1371.825 747 
L 1371.825 51.3 
" style="fill:none;stroke:#000000;stroke-linecap:square;stroke-linejoin:miter;"/>
   </g>
   <g id="patch_5">
    <path d="M 158.2875 747 
L 1371.825 747 
" style="fill:none;stroke:#000000;stroke-linecap:square;stroke-linejoin:miter;"/>
   </g>
   <g id="patch_6">
    <path d="M 158.2875 747 
L 158.2875 51.3 
" style="fill:none;stroke:#000000;stroke-linecap:square;stroke-linejoin:miter;"/>
   </g>
   <g id="matplotlib.axis_1">
    <g id="xtick_1">
     <g id="line2d_3">
      <defs>
       <path d="M 0 0 
L 0 -4 
" id="mb3909e0195" style="stroke:#000000;stroke-width:0.5;"/>
      </defs>
      <g>
       <use style="stroke:#000000;stroke-width:0.5;" x="158.2875" xlink:href="#mb3909e0195" y="747.0"/>
      </g>
     </g>
     <g id="line2d_4">
      <defs>
       <path d="M 0 0 
L 0 4 
" id="m4ae8dcb4b1" style="stroke:#000000;stroke-width:0.5;"/>
      </defs>
      <g>
       <use style="stroke:#000000;stroke-width:0.5;" x="158.2875" xlink:href="#m4ae8dcb4b1" y="51.3"/>
      </g>
     </g>
     <g id="text_1">
      <!-- 0 -->
      <defs>
       <path d="M 31.78125 66.40625 
Q 24.171875 66.40625 20.328125 58.90625 
Q 16.5 51.421875 16.5 36.375 
Q 16.5 21.390625 20.328125 13.890625 
Q 24.171875 6.390625 31.78125 6.390625 
Q 39.453125 6.390625 43.28125 13.890625 
Q 47.125 21.390625 47.125 36.375 
Q 47.125 51.421875 43.28125 58.90625 
Q 39.453125 66.40625 31.78125 66.40625 
M 31.78125 74.21875 
Q 44.046875 74.21875 50.515625 64.515625 
Q 56.984375 54.828125 56.984375 36.375 
Q 56.984375 17.96875 50.515625 8.265625 
Q 44.046875 -1.421875 31.78125 -1.421875 
Q 19.53125 -1.421875 13.0625 8.265625 
Q 6.59375 17.96875 6.59375 36.375 
Q 6.59375 54.828125 13.0625 64.515625 
Q 19.53125 74.21875 31.78125 74.21875 
" id="BitstreamVeraSans-Roman-30"/>
      </defs>
      <g transform="translate(148.74375 773.7953125)scale(0.3 -0.3)">
       <use xlink:href="#BitstreamVeraSans-Roman-30"/>
      </g>
     </g>
    </g>
    <g id="xtick_2">
     <g id="line2d_5">
      <g>
       <use style="stroke:#000000;stroke-width:0.5;" x="400.995" xlink:href="#mb3909e0195" y="747.0"/>
      </g>
     </g>
     <g id="line2d_6">
      <g>
       <use style="stroke:#000000;stroke-width:0.5;" x="400.995" xlink:href="#m4ae8dcb4b1" y="51.3"/>
      </g>
     </g>
     <g id="text_2">
      <!-- 100 -->
      <defs>
       <path d="M 12.40625 8.296875 
L 28.515625 8.296875 
L 28.515625 63.921875 
L 10.984375 60.40625 
L 10.984375 69.390625 
L 28.421875 72.90625 
L 38.28125 72.90625 
L 38.28125 8.296875 
L 54.390625 8.296875 
L 54.390625 0 
L 12.40625 0 
z
" id="BitstreamVeraSans-Roman-31"/>
      </defs>
      <g transform="translate(372.36375 773.7953125)scale(0.3 -0.3)">
       <use xlink:href="#BitstreamVeraSans-Roman-31"/>
       <use x="63.623046875" xlink:href="#BitstreamVeraSans-Roman-30"/>
       <use x="127.24609375" xlink:href="#BitstreamVeraSans-Roman-30"/>
      </g>
     </g>
    </g>
    <g id="xtick_3">
     <g id="line2d_7">
      <g>
       <use style="stroke:#000000;stroke-width:0.5;" x="643.7025" xlink:href="#mb3909e0195" y="747.0"/>
      </g>
     </g>
     <g id="line2d_8">
      <g>
       <use style="stroke:#000000;stroke-width:0.5;" x="643.7025" xlink:href="#m4ae8dcb4b1" y="51.3"/>
      </g>
     </g>
     <g id="text_3">
      <!-- 200 -->
      <defs>
       <path d="M 19.1875 8.296875 
L 53.609375 8.296875 
L 53.609375 0 
L 7.328125 0 
L 7.328125 8.296875 
Q 12.9375 14.109375 22.625 23.890625 
Q 32.328125 33.6875 34.8125 36.53125 
Q 39.546875 41.84375 41.421875 45.53125 
Q 43.3125 49.21875 43.3125 52.78125 
Q 43.3125 58.59375 39.234375 62.25 
Q 35.15625 65.921875 28.609375 65.921875 
Q 23.96875 65.921875 18.8125 64.3125 
Q 13.671875 62.703125 7.8125 59.421875 
L 7.8125 69.390625 
Q 13.765625 71.78125 18.9375 73 
Q 24.125 74.21875 28.421875 74.21875 
Q 39.75 74.21875 46.484375 68.546875 
Q 53.21875 62.890625 53.21875 53.421875 
Q 53.21875 48.921875 51.53125 44.890625 
Q 49.859375 40.875 45.40625 35.40625 
Q 44.1875 33.984375 37.640625 27.21875 
Q 31.109375 20.453125 19.1875 8.296875 
" id="BitstreamVeraSans-Roman-32"/>
      </defs>
      <g transform="translate(615.07125 773.7953125)scale(0.3 -0.3)">
       <use xlink:href="#BitstreamVeraSans-Roman-32"/>
       <use x="63.623046875" xlink:href="#BitstreamVeraSans-Roman-30"/>
       <use x="127.24609375" xlink:href="#BitstreamVeraSans-Roman-30"/>
      </g>
     </g>
    </g>
    <g id="xtick_4">
     <g id="line2d_9">
      <g>
       <use style="stroke:#000000;stroke-width:0.5;" x="886.41" xlink:href="#mb3909e0195" y="747.0"/>
      </g>
     </g>
     <g id="line2d_10">
      <g>
       <use style="stroke:#000000;stroke-width:0.5;" x="886.41" xlink:href="#m4ae8dcb4b1" y="51.3"/>
      </g>
     </g>
     <g id="text_4">
      <!-- 300 -->
      <defs>
       <path d="M 40.578125 39.3125 
Q 47.65625 37.796875 51.625 33 
Q 55.609375 28.21875 55.609375 21.1875 
Q 55.609375 10.40625 48.1875 4.484375 
Q 40.765625 -1.421875 27.09375 -1.421875 
Q 22.515625 -1.421875 17.65625 -0.515625 
Q 12.796875 0.390625 7.625 2.203125 
L 7.625 11.71875 
Q 11.71875 9.328125 16.59375 8.109375 
Q 21.484375 6.890625 26.8125 6.890625 
Q 36.078125 6.890625 40.9375 10.546875 
Q 45.796875 14.203125 45.796875 21.1875 
Q 45.796875 27.640625 41.28125 31.265625 
Q 36.765625 34.90625 28.71875 34.90625 
L 20.21875 34.90625 
L 20.21875 43.015625 
L 29.109375 43.015625 
Q 36.375 43.015625 40.234375 45.921875 
Q 44.09375 48.828125 44.09375 54.296875 
Q 44.09375 59.90625 40.109375 62.90625 
Q 36.140625 65.921875 28.71875 65.921875 
Q 24.65625 65.921875 20.015625 65.03125 
Q 15.375 64.15625 9.8125 62.3125 
L 9.8125 71.09375 
Q 15.4375 72.65625 20.34375 73.4375 
Q 25.25 74.21875 29.59375 74.21875 
Q 40.828125 74.21875 47.359375 69.109375 
Q 53.90625 64.015625 53.90625 55.328125 
Q 53.90625 49.265625 50.4375 45.09375 
Q 46.96875 40.921875 40.578125 39.3125 
" id="BitstreamVeraSans-Roman-33"/>
      </defs>
      <g transform="translate(857.77875 773.7953125)scale(0.3 -0.3)">
       <use xlink:href="#BitstreamVeraSans-Roman-33"/>
       <use x="63.623046875" xlink:href="#BitstreamVeraSans-Roman-30"/>
       <use x="127.24609375" xlink:href="#BitstreamVeraSans-Roman-30"/>
      </g>
     </g>
    </g>
    <g id="xtick_5">
     <g id="line2d_11">
      <g>
       <use style="stroke:#000000;stroke-width:0.5;" x="1129.1175" xlink:href="#mb3909e0195" y="747.0"/>
      </g>
     </g>
     <g id="line2d_12">
      <g>
       <use style="stroke:#000000;stroke-width:0.5;" x="1129.1175" xlink:href="#m4ae8dcb4b1" y="51.3"/>
      </g>
     </g>
     <g id="text_5">
      <!-- 400 -->
      <defs>
       <path d="M 37.796875 64.3125 
L 12.890625 25.390625 
L 37.796875 25.390625 
z
M 35.203125 72.90625 
L 47.609375 72.90625 
L 47.609375 25.390625 
L 58.015625 25.390625 
L 58.015625 17.1875 
L 47.609375 17.1875 
L 47.609375 0 
L 37.796875 0 
L 37.796875 17.1875 
L 4.890625 17.1875 
L 4.890625 26.703125 
z
" id="BitstreamVeraSans-Roman-34"/>
      </defs>
      <g transform="translate(1100.48625 773.7953125)scale(0.3 -0.3)">
       <use xlink:href="#BitstreamVeraSans-Roman-34"/>
       <use x="63.623046875" xlink:href="#BitstreamVeraSans-Roman-30"/>
       <use x="127.24609375" xlink:href="#BitstreamVeraSans-Roman-30"/>
      </g>
     </g>
    </g>
    <g id="xtick_6">
     <g id="line2d_13">
      <g>
       <use style="stroke:#000000;stroke-width:0.5;" x="1371.825" xlink:href="#mb3909e0195" y="747.0"/>
      </g>
     </g>
     <g id="line2d_14">
      <g>
       <use style="stroke:#000000;stroke-width:0.5;" x="1371.825" xlink:href="#m4ae8dcb4b1" y="51.3"/>
      </g>
     </g>
     <g id="text_6">
      <!-- 500 -->
      <defs>
       <path d="M 10.796875 72.90625 
L 49.515625 72.90625 
L 49.515625 64.59375 
L 19.828125 64.59375 
L 19.828125 46.734375 
Q 21.96875 47.46875 24.109375 47.828125 
Q 26.265625 48.1875 28.421875 48.1875 
Q 40.625 48.1875 47.75 41.5 
Q 54.890625 34.8125 54.890625 23.390625 
Q 54.890625 11.625 47.5625 5.09375 
Q 40.234375 -1.421875 26.90625 -1.421875 
Q 22.3125 -1.421875 17.546875 -0.640625 
Q 12.796875 0.140625 7.71875 1.703125 
L 7.71875 11.625 
Q 12.109375 9.234375 16.796875 8.0625 
Q 21.484375 6.890625 26.703125 6.890625 
Q 35.15625 6.890625 40.078125 11.328125 
Q 45.015625 15.765625 45.015625 23.390625 
Q 45.015625 31 40.078125 35.4375 
Q 35.15625 39.890625 26.703125 39.890625 
Q 22.75 39.890625 18.8125 39.015625 
Q 14.890625 38.140625 10.796875 36.28125 
z
" id="BitstreamVeraSans-Roman-35"/>
      </defs>
      <g transform="translate(1343.19375 773.7953125)scale(0.3 -0.3)">
       <use xlink:href="#BitstreamVeraSans-Roman-35"/>
       <use x="63.623046875" xlink:href="#BitstreamVeraSans-Roman-30"/>
       <use x="127.24609375" xlink:href="#BitstreamVeraSans-Roman-30"/>
      </g>
     </g>
    </g>
    <g id="text_7">
     <!-- iterations -->
     <defs>
      <path d="M 54.890625 33.015625 
L 54.890625 0 
L 45.90625 0 
L 45.90625 32.71875 
Q 45.90625 40.484375 42.875 44.328125 
Q 39.84375 48.1875 33.796875 48.1875 
Q 26.515625 48.1875 22.3125 43.546875 
Q 18.109375 38.921875 18.109375 30.90625 
L 18.109375 0 
L 9.078125 0 
L 9.078125 54.6875 
L 18.109375 54.6875 
L 18.109375 46.1875 
Q 21.34375 51.125 25.703125 53.5625 
Q 30.078125 56 35.796875 56 
Q 45.21875 56 50.046875 50.171875 
Q 54.890625 44.34375 54.890625 33.015625 
" id="BitstreamVeraSans-Roman-6e"/>
      <path d="M 34.28125 27.484375 
Q 23.390625 27.484375 19.1875 25 
Q 14.984375 22.515625 14.984375 16.5 
Q 14.984375 11.71875 18.140625 8.90625 
Q 21.296875 6.109375 26.703125 6.109375 
Q 34.1875 6.109375 38.703125 11.40625 
Q 43.21875 16.703125 43.21875 25.484375 
L 43.21875 27.484375 
z
M 52.203125 31.203125 
L 52.203125 0 
L 43.21875 0 
L 43.21875 8.296875 
Q 40.140625 3.328125 35.546875 0.953125 
Q 30.953125 -1.421875 24.3125 -1.421875 
Q 15.921875 -1.421875 10.953125 3.296875 
Q 6 8.015625 6 15.921875 
Q 6 25.140625 12.171875 29.828125 
Q 18.359375 34.515625 30.609375 34.515625 
L 43.21875 34.515625 
L 43.21875 35.40625 
Q 43.21875 41.609375 39.140625 45 
Q 35.0625 48.390625 27.6875 48.390625 
Q 23 48.390625 18.546875 47.265625 
Q 14.109375 46.140625 10.015625 43.890625 
L 10.015625 52.203125 
Q 14.9375 54.109375 19.578125 55.046875 
Q 24.21875 56 28.609375 56 
Q 40.484375 56 46.34375 49.84375 
Q 52.203125 43.703125 52.203125 31.203125 
" id="BitstreamVeraSans-Roman-61"/>
      <path d="M 30.609375 48.390625 
Q 23.390625 48.390625 19.1875 42.75 
Q 14.984375 37.109375 14.984375 27.296875 
Q 14.984375 17.484375 19.15625 11.84375 
Q 23.34375 6.203125 30.609375 6.203125 
Q 37.796875 6.203125 41.984375 11.859375 
Q 46.1875 17.53125 46.1875 27.296875 
Q 46.1875 37.015625 41.984375 42.703125 
Q 37.796875 48.390625 30.609375 48.390625 
M 30.609375 56 
Q 42.328125 56 49.015625 48.375 
Q 55.71875 40.765625 55.71875 27.296875 
Q 55.71875 13.875 49.015625 6.21875 
Q 42.328125 -1.421875 30.609375 -1.421875 
Q 18.84375 -1.421875 12.171875 6.21875 
Q 5.515625 13.875 5.515625 27.296875 
Q 5.515625 40.765625 12.171875 48.375 
Q 18.84375 56 30.609375 56 
" id="BitstreamVeraSans-Roman-6f"/>
      <path d="M 9.421875 54.6875 
L 18.40625 54.6875 
L 18.40625 0 
L 9.421875 0 
z
M 9.421875 75.984375 
L 18.40625 75.984375 
L 18.40625 64.59375 
L 9.421875 64.59375 
z
" id="BitstreamVeraSans-Roman-69"/>
      <path d="M 56.203125 29.59375 
L 56.203125 25.203125 
L 14.890625 25.203125 
Q 15.484375 15.921875 20.484375 11.0625 
Q 25.484375 6.203125 34.421875 6.203125 
Q 39.59375 6.203125 44.453125 7.46875 
Q 49.3125 8.734375 54.109375 11.28125 
L 54.109375 2.78125 
Q 49.265625 0.734375 44.1875 -0.34375 
Q 39.109375 -1.421875 33.890625 -1.421875 
Q 20.796875 -1.421875 13.15625 6.1875 
Q 5.515625 13.8125 5.515625 26.8125 
Q 5.515625 40.234375 12.765625 48.109375 
Q 20.015625 56 32.328125 56 
Q 43.359375 56 49.78125 48.890625 
Q 56.203125 41.796875 56.203125 29.59375 
M 47.21875 32.234375 
Q 47.125 39.59375 43.09375 43.984375 
Q 39.0625 48.390625 32.421875 48.390625 
Q 24.90625 48.390625 20.390625 44.140625 
Q 15.875 39.890625 15.1875 32.171875 
z
" id="BitstreamVeraSans-Roman-65"/>
      <path d="M 18.3125 70.21875 
L 18.3125 54.6875 
L 36.8125 54.6875 
L 36.8125 47.703125 
L 18.3125 47.703125 
L 18.3125 18.015625 
Q 18.3125 11.328125 20.140625 9.421875 
Q 21.96875 7.515625 27.59375 7.515625 
L 36.8125 7.515625 
L 36.8125 0 
L 27.59375 0 
Q 17.1875 0 13.234375 3.875 
Q 9.28125 7.765625 9.28125 18.015625 
L 9.28125 47.703125 
L 2.6875 47.703125 
L 2.6875 54.6875 
L 9.28125 54.6875 
L 9.28125 70.21875 
z
" id="BitstreamVeraSans-Roman-74"/>
      <path d="M 41.109375 46.296875 
Q 39.59375 47.171875 37.8125 47.578125 
Q 36.03125 48 33.890625 48 
Q 26.265625 48 22.1875 43.046875 
Q 18.109375 38.09375 18.109375 28.8125 
L 18.109375 0 
L 9.078125 0 
L 9.078125 54.6875 
L 18.109375 54.6875 
L 18.109375 46.1875 
Q 20.953125 51.171875 25.484375 53.578125 
Q 30.03125 56 36.53125 56 
Q 37.453125 56 38.578125 55.875 
Q 39.703125 55.765625 41.0625 55.515625 
z
" id="BitstreamVeraSans-Roman-72"/>
      <path d="M 44.28125 53.078125 
L 44.28125 44.578125 
Q 40.484375 46.53125 36.375 47.5 
Q 32.28125 48.484375 27.875 48.484375 
Q 21.1875 48.484375 17.84375 46.4375 
Q 14.5 44.390625 14.5 40.28125 
Q 14.5 37.15625 16.890625 35.375 
Q 19.28125 33.59375 26.515625 31.984375 
L 29.59375 31.296875 
Q 39.15625 29.25 43.1875 25.515625 
Q 47.21875 21.78125 47.21875 15.09375 
Q 47.21875 7.46875 41.1875 3.015625 
Q 35.15625 -1.421875 24.609375 -1.421875 
Q 20.21875 -1.421875 15.453125 -0.5625 
Q 10.6875 0.296875 5.421875 2 
L 5.421875 11.28125 
Q 10.40625 8.6875 15.234375 7.390625 
Q 20.0625 6.109375 24.8125 6.109375 
Q 31.15625 6.109375 34.5625 8.28125 
Q 37.984375 10.453125 37.984375 14.40625 
Q 37.984375 18.0625 35.515625 20.015625 
Q 33.0625 21.96875 24.703125 23.78125 
L 21.578125 24.515625 
Q 13.234375 26.265625 9.515625 29.90625 
Q 5.8125 33.546875 5.8125 39.890625 
Q 5.8125 47.609375 11.28125 51.796875 
Q 16.75 56 26.8125 56 
Q 31.78125 56 36.171875 55.265625 
Q 40.578125 54.546875 44.28125 53.078125 
" id="BitstreamVeraSans-Roman-73"/>
     </defs>
     <g transform="translate(693.87421875 807.8296875)scale(0.3 -0.3)">
      <use xlink:href="#BitstreamVeraSans-Roman-69"/>
      <use x="27.783203125" xlink:href="#BitstreamVeraSans-Roman-74"/>
      <use x="66.9921875" xlink:href="#BitstreamVeraSans-Roman-65"/>
      <use x="128.515625" xlink:href="#BitstreamVeraSans-Roman-72"/>
      <use x="169.62890625" xlink:href="#BitstreamVeraSans-Roman-61"/>
      <use x="230.908203125" xlink:href="#BitstreamVeraSans-Roman-74"/>
      <use x="270.1171875" xlink:href="#BitstreamVeraSans-Roman-69"/>
      <use x="297.900390625" xlink:href="#BitstreamVeraSans-Roman-6f"/>
      <use x="359.08203125" xlink:href="#BitstreamVeraSans-Roman-6e"/>
      <use x="422.4609375" xlink:href="#BitstreamVeraSans-Roman-73"/>
     </g>
    </g>
   </g>
   <g id="matplotlib.axis_2">
    <g id="ytick_1">
     <g id="line2d_15">
      <defs>
       <path d="M 0 0 
L 4 0 
" id="m258b3bb4b0" style="stroke:#000000;stroke-width:0.5;"/>
      </defs>
      <g>
       <use style="stroke:#000000;stroke-width:0.5;" x="158.2875" xlink:href="#m258b3bb4b0" y="747.0"/>
      </g>
     </g>
     <g id="line2d_16">
      <defs>
       <path d="M 0 0 
L -4 0 
" id="m37248eb629" style="stroke:#000000;stroke-width:0.5;"/>
      </defs>
      <g>
       <use style="stroke:#000000;stroke-width:0.5;" x="1371.825" xlink:href="#m37248eb629" y="747.0"/>
      </g>
     </g>
     <g id="text_8">
      <!-- −15 -->
      <defs>
       <path d="M 10.59375 35.5 
L 73.1875 35.5 
L 73.1875 27.203125 
L 10.59375 27.203125 
z
" id="BitstreamVeraSans-Roman-2212"/>
      </defs>
      <g transform="translate(90.9734375 755.278125)scale(0.3 -0.3)">
       <use xlink:href="#BitstreamVeraSans-Roman-2212"/>
       <use x="83.7890625" xlink:href="#BitstreamVeraSans-Roman-31"/>
       <use x="147.412109375" xlink:href="#BitstreamVeraSans-Roman-35"/>
      </g>
     </g>
    </g>
    <g id="ytick_2">
     <g id="line2d_17">
      <g>
       <use style="stroke:#000000;stroke-width:0.5;" x="158.2875" xlink:href="#m258b3bb4b0" y="631.05"/>
      </g>
     </g>
     <g id="line2d_18">
      <g>
       <use style="stroke:#000000;stroke-width:0.5;" x="1371.825" xlink:href="#m37248eb629" y="631.05"/>
      </g>
     </g>
     <g id="text_9">
      <!-- −10 -->
      <g transform="translate(90.9734375 639.328125)scale(0.3 -0.3)">
       <use xlink:href="#BitstreamVeraSans-Roman-2212"/>
       <use x="83.7890625" xlink:href="#BitstreamVeraSans-Roman-31"/>
       <use x="147.412109375" xlink:href="#BitstreamVeraSans-Roman-30"/>
      </g>
     </g>
    </g>
    <g id="ytick_3">
     <g id="line2d_19">
      <g>
       <use style="stroke:#000000;stroke-width:0.5;" x="158.2875" xlink:href="#m258b3bb4b0" y="515.1"/>
      </g>
     </g>
     <g id="line2d_20">
      <g>
       <use style="stroke:#000000;stroke-width:0.5;" x="1371.825" xlink:href="#m37248eb629" y="515.1"/>
      </g>
     </g>
     <g id="text_10">
      <!-- −5 -->
      <g transform="translate(110.0609375 523.378125)scale(0.3 -0.3)">
       <use xlink:href="#BitstreamVeraSans-Roman-2212"/>
       <use x="83.7890625" xlink:href="#BitstreamVeraSans-Roman-35"/>
      </g>
     </g>
    </g>
    <g id="ytick_4">
     <g id="line2d_21">
      <g>
       <use style="stroke:#000000;stroke-width:0.5;" x="158.2875" xlink:href="#m258b3bb4b0" y="399.15"/>
      </g>
     </g>
     <g id="line2d_22">
      <g>
       <use style="stroke:#000000;stroke-width:0.5;" x="1371.825" xlink:href="#m37248eb629" y="399.15"/>
      </g>
     </g>
     <g id="text_11">
      <!-- 0 -->
      <g transform="translate(135.2 407.428125)scale(0.3 -0.3)">
       <use xlink:href="#BitstreamVeraSans-Roman-30"/>
      </g>
     </g>
    </g>
    <g id="ytick_5">
     <g id="line2d_23">
      <g>
       <use style="stroke:#000000;stroke-width:0.5;" x="158.2875" xlink:href="#m258b3bb4b0" y="283.2"/>
      </g>
     </g>
     <g id="line2d_24">
      <g>
       <use style="stroke:#000000;stroke-width:0.5;" x="1371.825" xlink:href="#m37248eb629" y="283.2"/>
      </g>
     </g>
     <g id="text_12">
      <!-- 5 -->
      <g transform="translate(135.2 291.478125)scale(0.3 -0.3)">
       <use xlink:href="#BitstreamVeraSans-Roman-35"/>
      </g>
     </g>
    </g>
    <g id="ytick_6">
     <g id="line2d_25">
      <g>
       <use style="stroke:#000000;stroke-width:0.5;" x="158.2875" xlink:href="#m258b3bb4b0" y="167.25"/>
      </g>
     </g>
     <g id="line2d_26">
      <g>
       <use style="stroke:#000000;stroke-width:0.5;" x="1371.825" xlink:href="#m37248eb629" y="167.25"/>
      </g>
     </g>
     <g id="text_13">
      <!-- 10 -->
      <g transform="translate(116.1125 175.528125)scale(0.3 -0.3)">
       <use xlink:href="#BitstreamVeraSans-Roman-31"/>
       <use x="63.623046875" xlink:href="#BitstreamVeraSans-Roman-30"/>
      </g>
     </g>
    </g>
    <g id="ytick_7">
     <g id="line2d_27">
      <g>
       <use style="stroke:#000000;stroke-width:0.5;" x="158.2875" xlink:href="#m258b3bb4b0" y="51.3"/>
      </g>
     </g>
     <g id="line2d_28">
      <g>
       <use style="stroke:#000000;stroke-width:0.5;" x="1371.825" xlink:href="#m37248eb629" y="51.3"/>
      </g>
     </g>
     <g id="text_14">
      <!-- 15 -->
      <g transform="translate(116.1125 59.578125)scale(0.3 -0.3)">
       <use xlink:href="#BitstreamVeraSans-Roman-31"/>
       <use x="63.623046875" xlink:href="#BitstreamVeraSans-Roman-35"/>
      </g>
     </g>
    </g>
    <g id="text_15">
     <!-- log(loss) -->
     <defs>
      <path d="M 8.015625 75.875 
L 15.828125 75.875 
Q 23.140625 64.359375 26.78125 53.3125 
Q 30.421875 42.28125 30.421875 31.390625 
Q 30.421875 20.453125 26.78125 9.375 
Q 23.140625 -1.703125 15.828125 -13.1875 
L 8.015625 -13.1875 
Q 14.5 -2 17.703125 9.0625 
Q 20.90625 20.125 20.90625 31.390625 
Q 20.90625 42.671875 17.703125 53.65625 
Q 14.5 64.65625 8.015625 75.875 
" id="BitstreamVeraSans-Roman-29"/>
      <path d="M 31 75.875 
Q 24.46875 64.65625 21.28125 53.65625 
Q 18.109375 42.671875 18.109375 31.390625 
Q 18.109375 20.125 21.3125 9.0625 
Q 24.515625 -2 31 -13.1875 
L 23.1875 -13.1875 
Q 15.875 -1.703125 12.234375 9.375 
Q 8.59375 20.453125 8.59375 31.390625 
Q 8.59375 42.28125 12.203125 53.3125 
Q 15.828125 64.359375 23.1875 75.875 
z
" id="BitstreamVeraSans-Roman-28"/>
      <path d="M 45.40625 27.984375 
Q 45.40625 37.75 41.375 43.109375 
Q 37.359375 48.484375 30.078125 48.484375 
Q 22.859375 48.484375 18.828125 43.109375 
Q 14.796875 37.75 14.796875 27.984375 
Q 14.796875 18.265625 18.828125 12.890625 
Q 22.859375 7.515625 30.078125 7.515625 
Q 37.359375 7.515625 41.375 12.890625 
Q 45.40625 18.265625 45.40625 27.984375 
M 54.390625 6.78125 
Q 54.390625 -7.171875 48.1875 -13.984375 
Q 42 -20.796875 29.203125 -20.796875 
Q 24.46875 -20.796875 20.265625 -20.09375 
Q 16.0625 -19.390625 12.109375 -17.921875 
L 12.109375 -9.1875 
Q 16.0625 -11.328125 19.921875 -12.34375 
Q 23.78125 -13.375 27.78125 -13.375 
Q 36.625 -13.375 41.015625 -8.765625 
Q 45.40625 -4.15625 45.40625 5.171875 
L 45.40625 9.625 
Q 42.625 4.78125 38.28125 2.390625 
Q 33.9375 0 27.875 0 
Q 17.828125 0 11.671875 7.65625 
Q 5.515625 15.328125 5.515625 27.984375 
Q 5.515625 40.671875 11.671875 48.328125 
Q 17.828125 56 27.875 56 
Q 33.9375 56 38.28125 53.609375 
Q 42.625 51.21875 45.40625 46.390625 
L 45.40625 54.6875 
L 54.390625 54.6875 
z
" id="BitstreamVeraSans-Roman-67"/>
      <path d="M 9.421875 75.984375 
L 18.40625 75.984375 
L 18.40625 0 
L 9.421875 0 
z
" id="BitstreamVeraSans-Roman-6c"/>
     </defs>
     <g transform="translate(79.734375 462.69609375)rotate(-90.0)scale(0.3 -0.3)">
      <use xlink:href="#BitstreamVeraSans-Roman-6c"/>
      <use x="27.783203125" xlink:href="#BitstreamVeraSans-Roman-6f"/>
      <use x="88.96484375" xlink:href="#BitstreamVeraSans-Roman-67"/>
      <use x="152.44140625" xlink:href="#BitstreamVeraSans-Roman-28"/>
      <use x="191.455078125" xlink:href="#BitstreamVeraSans-Roman-6c"/>
      <use x="219.23828125" xlink:href="#BitstreamVeraSans-Roman-6f"/>
      <use x="280.419921875" xlink:href="#BitstreamVeraSans-Roman-73"/>
      <use x="332.51953125" xlink:href="#BitstreamVeraSans-Roman-73"/>
      <use x="384.619140625" xlink:href="#BitstreamVeraSans-Roman-29"/>
     </g>
    </g>
   </g>
   <g id="legend_1">
    <g id="patch_7">
     <path d="M 879.651562 163.36875 
L 1356.825 163.36875 
L 1356.825 66.3 
L 879.651562 66.3 
z
" style="fill:#ffffff;stroke:#000000;stroke-linejoin:miter;"/>
    </g>
    <g id="line2d_29">
     <path d="M 900.651562 90.595312 
L 942.651562 90.595312 
" style="fill:none;stroke:#0000ff;stroke-linecap:square;stroke-width:2.0;"/>
    </g>
    <g id="line2d_30"/>
    <g id="text_16">
     <!-- random: step=0.000620 -->
     <defs>
      <path id="BitstreamVeraSans-Roman-20"/>
      <path d="M 33.015625 40.375 
Q 26.375 40.375 22.484375 35.828125 
Q 18.609375 31.296875 18.609375 23.390625 
Q 18.609375 15.53125 22.484375 10.953125 
Q 26.375 6.390625 33.015625 6.390625 
Q 39.65625 6.390625 43.53125 10.953125 
Q 47.40625 15.53125 47.40625 23.390625 
Q 47.40625 31.296875 43.53125 35.828125 
Q 39.65625 40.375 33.015625 40.375 
M 52.59375 71.296875 
L 52.59375 62.3125 
Q 48.875 64.0625 45.09375 64.984375 
Q 41.3125 65.921875 37.59375 65.921875 
Q 27.828125 65.921875 22.671875 59.328125 
Q 17.53125 52.734375 16.796875 39.40625 
Q 19.671875 43.65625 24.015625 45.921875 
Q 28.375 48.1875 33.59375 48.1875 
Q 44.578125 48.1875 50.953125 41.515625 
Q 57.328125 34.859375 57.328125 23.390625 
Q 57.328125 12.15625 50.6875 5.359375 
Q 44.046875 -1.421875 33.015625 -1.421875 
Q 20.359375 -1.421875 13.671875 8.265625 
Q 6.984375 17.96875 6.984375 36.375 
Q 6.984375 53.65625 15.1875 63.9375 
Q 23.390625 74.21875 37.203125 74.21875 
Q 40.921875 74.21875 44.703125 73.484375 
Q 48.484375 72.75 52.59375 71.296875 
" id="BitstreamVeraSans-Roman-36"/>
      <path d="M 52 44.1875 
Q 55.375 50.25 60.0625 53.125 
Q 64.75 56 71.09375 56 
Q 79.640625 56 84.28125 50.015625 
Q 88.921875 44.046875 88.921875 33.015625 
L 88.921875 0 
L 79.890625 0 
L 79.890625 32.71875 
Q 79.890625 40.578125 77.09375 44.375 
Q 74.3125 48.1875 68.609375 48.1875 
Q 61.625 48.1875 57.5625 43.546875 
Q 53.515625 38.921875 53.515625 30.90625 
L 53.515625 0 
L 44.484375 0 
L 44.484375 32.71875 
Q 44.484375 40.625 41.703125 44.40625 
Q 38.921875 48.1875 33.109375 48.1875 
Q 26.21875 48.1875 22.15625 43.53125 
Q 18.109375 38.875 18.109375 30.90625 
L 18.109375 0 
L 9.078125 0 
L 9.078125 54.6875 
L 18.109375 54.6875 
L 18.109375 46.1875 
Q 21.1875 51.21875 25.484375 53.609375 
Q 29.78125 56 35.6875 56 
Q 41.65625 56 45.828125 52.96875 
Q 50 49.953125 52 44.1875 
" id="BitstreamVeraSans-Roman-6d"/>
      <path d="M 11.71875 12.40625 
L 22.015625 12.40625 
L 22.015625 0 
L 11.71875 0 
z
M 11.71875 51.703125 
L 22.015625 51.703125 
L 22.015625 39.3125 
L 11.71875 39.3125 
z
" id="BitstreamVeraSans-Roman-3a"/>
      <path d="M 10.6875 12.40625 
L 21 12.40625 
L 21 0 
L 10.6875 0 
z
" id="BitstreamVeraSans-Roman-2e"/>
      <path d="M 10.59375 45.40625 
L 73.1875 45.40625 
L 73.1875 37.203125 
L 10.59375 37.203125 
z
M 10.59375 25.484375 
L 73.1875 25.484375 
L 73.1875 17.1875 
L 10.59375 17.1875 
z
" id="BitstreamVeraSans-Roman-3d"/>
      <path d="M 45.40625 46.390625 
L 45.40625 75.984375 
L 54.390625 75.984375 
L 54.390625 0 
L 45.40625 0 
L 45.40625 8.203125 
Q 42.578125 3.328125 38.25 0.953125 
Q 33.9375 -1.421875 27.875 -1.421875 
Q 17.96875 -1.421875 11.734375 6.484375 
Q 5.515625 14.40625 5.515625 27.296875 
Q 5.515625 40.1875 11.734375 48.09375 
Q 17.96875 56 27.875 56 
Q 33.9375 56 38.25 53.625 
Q 42.578125 51.265625 45.40625 46.390625 
M 14.796875 27.296875 
Q 14.796875 17.390625 18.875 11.75 
Q 22.953125 6.109375 30.078125 6.109375 
Q 37.203125 6.109375 41.296875 11.75 
Q 45.40625 17.390625 45.40625 27.296875 
Q 45.40625 37.203125 41.296875 42.84375 
Q 37.203125 48.484375 30.078125 48.484375 
Q 22.953125 48.484375 18.875 42.84375 
Q 14.796875 37.203125 14.796875 27.296875 
" id="BitstreamVeraSans-Roman-64"/>
      <path d="M 18.109375 8.203125 
L 18.109375 -20.796875 
L 9.078125 -20.796875 
L 9.078125 54.6875 
L 18.109375 54.6875 
L 18.109375 46.390625 
Q 20.953125 51.265625 25.265625 53.625 
Q 29.59375 56 35.59375 56 
Q 45.5625 56 51.78125 48.09375 
Q 58.015625 40.1875 58.015625 27.296875 
Q 58.015625 14.40625 51.78125 6.484375 
Q 45.5625 -1.421875 35.59375 -1.421875 
Q 29.59375 -1.421875 25.265625 0.953125 
Q 20.953125 3.328125 18.109375 8.203125 
M 48.6875 27.296875 
Q 48.6875 37.203125 44.609375 42.84375 
Q 40.53125 48.484375 33.40625 48.484375 
Q 26.265625 48.484375 22.1875 42.84375 
Q 18.109375 37.203125 18.109375 27.296875 
Q 18.109375 17.390625 22.1875 11.75 
Q 26.265625 6.109375 33.40625 6.109375 
Q 40.53125 6.109375 44.609375 11.75 
Q 48.6875 17.390625 48.6875 27.296875 
" id="BitstreamVeraSans-Roman-70"/>
     </defs>
     <g transform="translate(975.6515625 101.0953125)scale(0.3 -0.3)">
      <use xlink:href="#BitstreamVeraSans-Roman-72"/>
      <use x="41.11328125" xlink:href="#BitstreamVeraSans-Roman-61"/>
      <use x="102.392578125" xlink:href="#BitstreamVeraSans-Roman-6e"/>
      <use x="165.771484375" xlink:href="#BitstreamVeraSans-Roman-64"/>
      <use x="229.248046875" xlink:href="#BitstreamVeraSans-Roman-6f"/>
      <use x="290.4296875" xlink:href="#BitstreamVeraSans-Roman-6d"/>
      <use x="387.841796875" xlink:href="#BitstreamVeraSans-Roman-3a"/>
      <use x="421.533203125" xlink:href="#BitstreamVeraSans-Roman-20"/>
      <use x="453.3203125" xlink:href="#BitstreamVeraSans-Roman-73"/>
      <use x="505.419921875" xlink:href="#BitstreamVeraSans-Roman-74"/>
      <use x="544.62890625" xlink:href="#BitstreamVeraSans-Roman-65"/>
      <use x="606.15234375" xlink:href="#BitstreamVeraSans-Roman-70"/>
      <use x="669.62890625" xlink:href="#BitstreamVeraSans-Roman-3d"/>
      <use x="753.41796875" xlink:href="#BitstreamVeraSans-Roman-30"/>
      <use x="817.041015625" xlink:href="#BitstreamVeraSans-Roman-2e"/>
      <use x="848.828125" xlink:href="#BitstreamVeraSans-Roman-30"/>
      <use x="912.451171875" xlink:href="#BitstreamVeraSans-Roman-30"/>
      <use x="976.07421875" xlink:href="#BitstreamVeraSans-Roman-30"/>
      <use x="1039.69726562" xlink:href="#BitstreamVeraSans-Roman-36"/>
      <use x="1103.3203125" xlink:href="#BitstreamVeraSans-Roman-32"/>
      <use x="1166.94335938" xlink:href="#BitstreamVeraSans-Roman-30"/>
     </g>
    </g>
    <g id="line2d_31">
     <path d="M 900.651562 134.629687 
L 942.651562 134.629687 
" style="fill:none;stroke:#008000;stroke-linecap:square;stroke-width:2.0;"/>
    </g>
    <g id="line2d_32"/>
    <g id="text_17">
     <!-- corr: step=0.000620 -->
     <defs>
      <path d="M 48.78125 52.59375 
L 48.78125 44.1875 
Q 44.96875 46.296875 41.140625 47.34375 
Q 37.3125 48.390625 33.40625 48.390625 
Q 24.65625 48.390625 19.8125 42.84375 
Q 14.984375 37.3125 14.984375 27.296875 
Q 14.984375 17.28125 19.8125 11.734375 
Q 24.65625 6.203125 33.40625 6.203125 
Q 37.3125 6.203125 41.140625 7.25 
Q 44.96875 8.296875 48.78125 10.40625 
L 48.78125 2.09375 
Q 45.015625 0.34375 40.984375 -0.53125 
Q 36.96875 -1.421875 32.421875 -1.421875 
Q 20.0625 -1.421875 12.78125 6.34375 
Q 5.515625 14.109375 5.515625 27.296875 
Q 5.515625 40.671875 12.859375 48.328125 
Q 20.21875 56 33.015625 56 
Q 37.15625 56 41.109375 55.140625 
Q 45.0625 54.296875 48.78125 52.59375 
" id="BitstreamVeraSans-Roman-63"/>
     </defs>
     <g transform="translate(975.6515625 145.1296875)scale(0.3 -0.3)">
      <use xlink:href="#BitstreamVeraSans-Roman-63"/>
      <use x="54.98046875" xlink:href="#BitstreamVeraSans-Roman-6f"/>
      <use x="116.162109375" xlink:href="#BitstreamVeraSans-Roman-72"/>
      <use x="157.259765625" xlink:href="#BitstreamVeraSans-Roman-72"/>
      <use x="198.357421875" xlink:href="#BitstreamVeraSans-Roman-3a"/>
      <use x="232.048828125" xlink:href="#BitstreamVeraSans-Roman-20"/>
      <use x="263.8359375" xlink:href="#BitstreamVeraSans-Roman-73"/>
      <use x="315.935546875" xlink:href="#BitstreamVeraSans-Roman-74"/>
      <use x="355.14453125" xlink:href="#BitstreamVeraSans-Roman-65"/>
      <use x="416.66796875" xlink:href="#BitstreamVeraSans-Roman-70"/>
      <use x="480.14453125" xlink:href="#BitstreamVeraSans-Roman-3d"/>
      <use x="563.93359375" xlink:href="#BitstreamVeraSans-Roman-30"/>
      <use x="627.556640625" xlink:href="#BitstreamVeraSans-Roman-2e"/>
      <use x="659.34375" xlink:href="#BitstreamVeraSans-Roman-30"/>
      <use x="722.966796875" xlink:href="#BitstreamVeraSans-Roman-30"/>
      <use x="786.58984375" xlink:href="#BitstreamVeraSans-Roman-30"/>
      <use x="850.212890625" xlink:href="#BitstreamVeraSans-Roman-36"/>
      <use x="913.8359375" xlink:href="#BitstreamVeraSans-Roman-32"/>
      <use x="977.458984375" xlink:href="#BitstreamVeraSans-Roman-30"/>
     </g>
    </g>
   </g>
  </g>
 </g>
 <defs>
  <clipPath id="p5fb36fb028">
   <rect height="695.7" width="1213.5375" x="158.2875" y="51.3"/>
  </clipPath>
 </defs>
</svg>
