<?xml version="1.0" encoding="utf-8" standalone="no"?>
<!DOCTYPE svg PUBLIC "-//W3C//DTD SVG 1.1//EN"
  "http://www.w3.org/Graphics/SVG/1.1/DTD/svg11.dtd">
<!-- Created with matplotlib (http://matplotlib.org/) -->
<svg height="864pt" version="1.1" viewBox="0 0 1440 864" width="1440pt" xmlns="http://www.w3.org/2000/svg" xmlns:xlink="http://www.w3.org/1999/xlink">
 <defs>
  <style type="text/css">
*{stroke-linecap:butt;stroke-linejoin:round;stroke-miterlimit:100000;}
  </style>
 </defs>
 <g id="figure_1">
  <g id="patch_1">
   <path d="M 0 864 
L 1440 864 
L 1440 0 
L 0 0 
z
" style="fill:#ffffff;"/>
  </g>
  <g id="axes_1">
   <g id="patch_2">
    <path d="M 93.382656 770.338125 
L 1373.2425 770.338125 
L 1373.2425 57.915781 
L 93.382656 57.915781 
z
" style="fill:#ffffff;"/>
   </g>
   <g id="line2d_1">
    <path clip-path="url(#p1b707e7d1d)" d="M 93.382656 125.128451 
L 94.662516 126.825661 
L 95.942376 128.357986 
L 97.222236 129.896373 
L 99.781955 135.011892 
L 102.341675 138.095739 
L 103.621535 139.704118 
L 106.181255 142.286385 
L 107.461115 144.224035 
L 110.020834 147.539932 
L 111.300694 148.929878 
L 112.580554 149.549491 
L 113.860414 151.347633 
L 117.699993 155.378046 
L 118.979853 157.244564 
L 120.259713 158.902953 
L 121.539573 160.241203 
L 122.819433 162.336554 
L 124.099292 163.744446 
L 125.379152 165.695547 
L 126.659012 167.116273 
L 129.218732 170.438955 
L 130.498592 171.996293 
L 131.778452 172.882201 
L 133.058311 174.657717 
L 134.338171 176.781756 
L 135.618031 177.88135 
L 136.897891 179.985476 
L 139.457611 182.881394 
L 142.01733 185.963229 
L 143.29719 187.786861 
L 144.57705 190.055088 
L 145.85691 191.604959 
L 147.13677 193.581529 
L 148.41663 194.513572 
L 149.696489 196.675481 
L 150.976349 197.785996 
L 152.256209 199.78728 
L 153.536069 201.123891 
L 154.815929 203.578128 
L 157.375648 206.534884 
L 159.935368 210.818424 
L 162.495088 214.196156 
L 163.774948 215.604006 
L 166.334667 219.723574 
L 167.614527 220.758737 
L 172.733967 227.475878 
L 175.293686 230.143654 
L 177.853406 234.391689 
L 179.133266 236.06328 
L 181.692985 240.120284 
L 182.972845 241.368169 
L 184.252705 243.604379 
L 185.532565 245.264265 
L 186.812425 246.060633 
L 188.092285 248.311964 
L 190.652004 251.917543 
L 191.931864 253.937355 
L 193.211724 255.541463 
L 195.771444 259.46713 
L 197.051304 260.67844 
L 198.331163 262.820325 
L 200.890883 266.471654 
L 202.170743 268.352192 
L 203.450603 269.877422 
L 204.730463 271.708277 
L 206.010322 272.95267 
L 207.290182 274.800406 
L 209.849902 277.745752 
L 211.129762 280.289125 
L 212.409622 282.388724 
L 213.689482 283.725983 
L 216.249201 287.773164 
L 217.529061 289.43697 
L 218.808921 290.432001 
L 220.088781 292.244549 
L 222.6485 294.703322 
L 223.92836 296.933398 
L 225.20822 298.468433 
L 226.48808 300.543242 
L 227.76794 301.819675 
L 229.0478 303.872138 
L 231.607519 306.415921 
L 232.887379 308.345098 
L 234.167239 311.21447 
L 235.447099 312.827502 
L 236.726959 314.023127 
L 238.006819 315.550332 
L 240.566538 319.223359 
L 241.846398 321.820238 
L 243.126258 322.746365 
L 244.406118 324.763705 
L 245.685978 327.341318 
L 246.965837 328.944351 
L 248.245697 330.808501 
L 250.805417 335.340236 
L 252.085277 337.118697 
L 258.484576 344.176222 
L 259.764436 346.573441 
L 261.044296 347.739481 
L 262.324156 349.31055 
L 263.604015 350.695071 
L 264.883875 352.713503 
L 267.443595 355.718668 
L 268.723455 357.371874 
L 270.003315 359.256083 
L 271.283175 361.728031 
L 275.122754 366.453915 
L 276.402614 367.528183 
L 277.682474 369.595901 
L 278.962334 371.093173 
L 282.801913 374.764621 
L 284.081773 376.998262 
L 285.361633 378.32695 
L 286.641493 380.671425 
L 289.201212 383.74842 
L 290.481072 384.891076 
L 291.760932 387.107599 
L 294.320652 390.951584 
L 295.600512 392.341972 
L 296.880371 394.060338 
L 298.160231 395.449729 
L 299.440091 397.480686 
L 301.999811 400.357093 
L 303.279671 401.905018 
L 304.55953 403.136197 
L 307.11925 407.081973 
L 308.39911 408.628669 
L 309.67897 410.37302 
L 310.95883 411.820313 
L 312.23869 413.445154 
L 313.518549 415.55221 
L 314.798409 416.900068 
L 317.358129 418.621748 
L 318.637989 420.650452 
L 319.917849 421.815224 
L 321.197708 423.959563 
L 322.477568 425.304901 
L 323.757428 427.122065 
L 326.317148 431.307454 
L 327.597008 433.087306 
L 330.156727 435.629622 
L 331.436587 437.915216 
L 332.716447 439.411772 
L 333.996307 440.368244 
L 335.276167 442.375354 
L 336.556027 444.686494 
L 337.835886 445.94785 
L 340.395606 449.594604 
L 341.675466 452.33141 
L 342.955326 454.094193 
L 344.235186 456.580296 
L 345.515045 458.344488 
L 346.794905 459.66401 
L 348.074765 460.79995 
L 350.634485 463.804768 
L 351.914345 465.887054 
L 354.474064 469.113625 
L 355.753924 470.207096 
L 358.313644 473.255287 
L 359.593504 475.308826 
L 360.873364 476.620465 
L 362.153223 478.433651 
L 363.433083 479.591154 
L 368.552523 486.2132 
L 371.112242 489.215329 
L 372.392102 485.498838 
L 373.671962 486.998186 
L 374.951822 489.557731 
L 376.231682 491.308658 
L 377.511542 493.424202 
L 381.351121 498.594288 
L 382.630981 499.706339 
L 383.910841 501.478266 
L 386.47056 504.367855 
L 387.75042 505.284349 
L 389.03028 507.226295 
L 390.31014 508.802477 
L 391.59 510.641022 
L 392.86986 513.383032 
L 395.429579 516.658642 
L 396.709439 518.199847 
L 397.989299 520.077146 
L 399.269159 521.297182 
L 400.549019 523.300726 
L 403.108738 526.494723 
L 404.388598 528.200428 
L 405.668458 530.128438 
L 406.948318 531.643655 
L 408.228178 532.869798 
L 409.508038 534.667573 
L 410.787897 536.173561 
L 412.067757 538.01127 
L 413.347617 539.06824 
L 414.627477 540.896792 
L 415.907337 542.302574 
L 417.187197 544.06225 
L 418.467057 544.928757 
L 419.746916 546.458253 
L 421.026776 547.628277 
L 422.306636 549.67338 
L 423.586496 551.04775 
L 424.866356 552.936271 
L 427.426075 557.332193 
L 428.705935 559.123714 
L 429.985795 560.541205 
L 431.265655 561.752667 
L 432.545515 563.183086 
L 433.825375 564.964655 
L 435.105235 567.584617 
L 436.385094 568.981926 
L 437.664954 569.961276 
L 438.944814 572.118727 
L 440.224674 574.759638 
L 441.504534 575.95277 
L 442.784394 577.802054 
L 444.064253 579.894151 
L 445.344113 581.538267 
L 446.623973 582.068984 
L 447.903833 584.069014 
L 449.183693 585.5479 
L 450.463553 587.650611 
L 451.743412 589.080327 
L 455.582992 595.412198 
L 456.862852 596.680442 
L 459.422572 601.162075 
L 460.702431 602.588567 
L 464.542011 608.573534 
L 467.101731 612.032154 
L 469.66145 615.797527 
L 470.94131 617.133504 
L 472.22117 618.708961 
L 473.50103 619.878365 
L 474.78089 621.268387 
L 476.06075 622.05176 
L 477.340609 624.518795 
L 478.620469 626.024994 
L 481.180189 629.7127 
L 482.460049 631.310886 
L 485.019768 635.224807 
L 486.299628 636.669185 
L 487.579488 638.449817 
L 490.139208 641.149291 
L 491.419068 643.648813 
L 495.258647 648.233849 
L 496.538507 650.463622 
L 499.098227 653.740482 
L 500.378087 655.599177 
L 502.937806 659.674386 
L 505.497526 663.188418 
L 506.777386 664.164557 
L 508.057246 665.947993 
L 509.337105 667.192508 
L 510.616965 668.01039 
L 511.896825 669.077562 
L 513.176685 671.117146 
L 514.456545 673.563237 
L 515.736405 675.239683 
L 517.016265 676.600269 
L 518.296124 678.131289 
L 519.575984 678.992743 
L 522.135704 683.082101 
L 523.415564 684.623583 
L 524.695424 686.411547 
L 527.255143 688.906127 
L 528.535003 691.880854 
L 529.814863 693.193242 
L 532.374583 697.246483 
L 533.654442 699.064573 
L 536.214162 703.660298 
L 538.773882 707.395512 
L 540.053742 708.922399 
L 542.613461 713.227404 
L 543.893321 714.695235 
L 545.173181 716.441267 
L 546.453041 717.732168 
L 547.732901 719.547211 
L 549.012761 720.604091 
L 550.29262 721.388691 
L 551.57248 722.470171 
L 554.1322 725.841163 
L 555.41206 726.480608 
L 559.251639 730.016475 
L 560.531499 730.255273 
L 561.811359 730.989461 
L 563.091219 731.466149 
L 564.371079 731.778183 
L 565.650939 732.392776 
L 568.210658 733.2076 
L 570.770378 734.258947 
L 572.050238 734.972345 
L 573.330098 735.984216 
L 574.609957 736.338798 
L 575.889817 736.563517 
L 577.169677 736.450698 
L 578.449537 737.135926 
L 579.729397 737.677126 
L 581.009257 736.932937 
L 582.289117 737.286216 
L 583.568976 737.209131 
L 584.848836 736.896226 
L 586.128696 737.371956 
L 587.408556 738.014946 
L 588.688416 738.953214 
L 589.968276 738.687462 
L 591.248135 738.932659 
L 592.527995 738.382396 
L 593.807855 738.873163 
L 595.087715 738.865776 
L 596.367575 738.39897 
L 597.647435 738.294016 
L 598.927295 738.660088 
L 600.207154 739.193215 
L 601.487014 739.211626 
L 602.766874 737.46746 
L 604.046734 737.120154 
L 606.606454 737.0352 
L 607.886313 737.611192 
L 610.446033 736.780204 
L 611.725893 737.011656 
L 613.005753 736.045396 
L 614.285613 736.541215 
L 615.565472 737.331474 
L 619.405052 737.873145 
L 620.684912 737.937593 
L 621.964772 738.800294 
L 623.244632 739.383618 
L 624.524491 738.943254 
L 625.804351 739.216046 
L 627.084211 738.212394 
L 628.364071 739.095835 
L 629.643931 738.361174 
L 630.923791 738.333682 
L 632.20365 737.346875 
L 633.48351 736.500922 
L 634.76337 736.778095 
L 636.04323 736.466711 
L 638.60295 736.413585 
L 639.88281 736.723963 
L 641.162669 735.944717 
L 642.442529 736.301438 
L 643.722389 737.680718 
L 645.002249 737.366612 
L 646.282109 737.246148 
L 647.561969 736.727128 
L 648.841828 736.813315 
L 650.121688 736.212742 
L 651.401548 737.107669 
L 652.681408 735.527306 
L 653.961268 735.508618 
L 656.520987 736.159215 
L 657.800847 737.416105 
L 659.080707 737.486266 
L 660.360567 738.475056 
L 661.640427 738.000464 
L 662.920287 737.201165 
L 664.200147 737.55262 
L 665.480006 737.382407 
L 666.759866 736.909473 
L 668.039726 737.328187 
L 670.599446 738.491094 
L 671.879306 737.828297 
L 674.439025 737.285135 
L 675.718885 737.405649 
L 678.278605 738.34919 
L 679.558465 737.33455 
L 680.838325 737.167887 
L 682.118184 738.152627 
L 683.398044 738.07157 
L 685.957764 738.440881 
L 687.237624 737.15752 
L 688.517484 737.64263 
L 689.797343 738.62163 
L 691.077203 737.717121 
L 692.357063 737.964631 
L 693.636923 738.476428 
L 694.916783 738.752477 
L 696.196643 738.688044 
L 698.756362 738.283181 
L 700.036222 738.230499 
L 701.316082 738.419816 
L 702.595942 738.110217 
L 703.875802 737.661468 
L 706.435521 738.204939 
L 708.995241 737.876318 
L 710.275101 737.27131 
L 711.554961 737.634559 
L 712.834821 737.428454 
L 714.11468 737.798354 
L 715.39454 737.026097 
L 716.6744 737.630523 
L 717.95426 737.782792 
L 721.79384 737.389227 
L 723.073699 738.062315 
L 724.353559 737.747385 
L 726.913279 737.937548 
L 728.193139 737.245557 
L 729.472999 737.627232 
L 730.752858 737.129361 
L 732.032718 736.263409 
L 734.592438 737.366931 
L 735.872298 737.207633 
L 738.432017 737.506733 
L 739.711877 737.752085 
L 742.271597 737.556083 
L 743.551457 737.855876 
L 744.831317 737.967381 
L 747.391036 737.722379 
L 748.670896 738.288971 
L 749.950756 738.306539 
L 751.230616 738.588986 
L 753.790336 736.724549 
L 755.070195 737.215523 
L 756.350055 736.787014 
L 757.629915 736.781401 
L 758.909775 737.887855 
L 760.189635 737.406942 
L 761.469495 736.223135 
L 762.749355 736.962576 
L 764.029214 737.373254 
L 765.309074 737.122357 
L 766.588934 737.503753 
L 767.868794 736.951203 
L 769.148654 737.418183 
L 770.428514 737.309796 
L 771.708373 736.931416 
L 772.988233 737.592496 
L 774.268093 737.204536 
L 775.547953 737.710387 
L 776.827813 737.233271 
L 778.107673 736.539174 
L 779.387532 737.167068 
L 780.667392 737.485275 
L 781.947252 736.995412 
L 783.227112 736.766392 
L 784.506972 736.697296 
L 785.786832 736.218096 
L 787.066692 736.203676 
L 788.346551 735.962943 
L 789.626411 736.221529 
L 790.906271 737.007371 
L 793.465991 737.806498 
L 794.745851 738.441538 
L 796.02571 738.140113 
L 798.58543 738.441085 
L 799.86529 737.573918 
L 801.14515 738.069065 
L 802.42501 738.206907 
L 803.70487 739.818892 
L 807.544449 737.507786 
L 808.824309 739.138216 
L 810.104169 737.616386 
L 812.663888 739.736062 
L 813.943748 739.590551 
L 815.223608 738.202308 
L 816.503468 737.577202 
L 817.783328 738.090863 
L 819.063188 738.084157 
L 820.343047 737.628115 
L 821.622907 737.647091 
L 822.902767 738.248875 
L 824.182627 739.343011 
L 825.462487 739.539325 
L 828.022207 739.562902 
L 829.302066 739.906776 
L 830.581926 738.279154 
L 831.861786 738.665037 
L 833.141646 737.927667 
L 834.421506 737.429684 
L 835.701366 736.415602 
L 836.981225 737.05327 
L 839.540945 737.697821 
L 840.820805 737.696977 
L 842.100665 738.041506 
L 843.380525 738.60453 
L 844.660385 739.002835 
L 845.940244 737.980694 
L 847.220104 739.202621 
L 848.499964 739.038445 
L 849.779824 739.878571 
L 851.059684 738.88746 
L 852.339544 738.960222 
L 853.619403 739.397073 
L 854.899263 738.944565 
L 856.179123 739.63378 
L 857.458983 739.939265 
L 858.738843 740.372253 
L 861.298562 740.076338 
L 862.578422 740.19909 
L 863.858282 740.040378 
L 865.138142 738.998944 
L 866.418002 738.371698 
L 867.697862 738.820879 
L 868.977722 738.328257 
L 870.257581 736.523358 
L 871.537441 736.345049 
L 874.097161 736.992984 
L 875.377021 736.414222 
L 876.656881 737.137837 
L 877.93674 735.260735 
L 879.2166 735.522954 
L 880.49646 736.432562 
L 881.77632 736.563883 
L 883.05618 737.263591 
L 886.895759 736.598152 
L 888.175619 736.896119 
L 889.455479 736.315493 
L 890.735339 736.660654 
L 892.015199 735.875125 
L 893.295059 736.354357 
L 894.574918 735.870631 
L 895.854778 734.819395 
L 897.134638 734.677129 
L 898.414498 735.373668 
L 899.694358 735.349984 
L 900.974218 736.832622 
L 902.254077 737.396773 
L 903.533937 737.620501 
L 904.813797 737.55452 
L 906.093657 738.145066 
L 907.373517 737.670166 
L 908.653377 738.355769 
L 909.933237 738.17379 
L 911.213096 738.513653 
L 913.772816 736.990479 
L 915.052676 737.398742 
L 916.332536 737.455702 
L 917.612396 737.812295 
L 918.892255 737.846839 
L 920.172115 738.042951 
L 921.451975 737.658044 
L 922.731835 737.663346 
L 924.011695 737.175337 
L 925.291555 736.405442 
L 926.571415 735.274909 
L 927.851274 735.500338 
L 929.131134 735.497109 
L 930.410994 736.563441 
L 932.970714 737.260212 
L 934.250574 737.176452 
L 935.530433 737.381839 
L 936.810293 737.37781 
L 938.090153 736.878331 
L 939.370013 736.070541 
L 940.649873 737.030156 
L 941.929733 737.816755 
L 943.209592 737.970835 
L 944.489452 737.691427 
L 945.769312 737.752274 
L 947.049172 738.000798 
L 948.329032 737.368313 
L 949.608892 738.709456 
L 950.888752 738.244987 
L 953.448471 738.15372 
L 954.728331 737.661857 
L 956.008191 737.472507 
L 957.288051 738.009903 
L 959.84777 737.360609 
L 961.12763 736.811107 
L 962.40749 737.128098 
L 963.68735 737.763559 
L 964.96721 737.145313 
L 966.24707 738.207105 
L 967.52693 738.418724 
L 968.806789 738.180007 
L 970.086649 737.778297 
L 971.366509 737.066765 
L 972.646369 737.179052 
L 973.926229 737.432587 
L 976.485948 737.212409 
L 977.765808 737.950099 
L 979.045668 737.24792 
L 980.325528 738.539864 
L 981.605388 739.085848 
L 984.165107 738.891912 
L 985.444967 739.432918 
L 986.724827 739.375637 
L 988.004687 738.502157 
L 989.284547 737.766903 
L 990.564407 737.790575 
L 991.844267 737.618788 
L 993.124126 737.898323 
L 994.403986 737.710484 
L 996.963706 735.85034 
L 998.243566 736.421124 
L 999.523426 736.701871 
L 1000.803285 736.852465 
L 1002.083145 737.928516 
L 1003.363005 737.523423 
L 1004.642865 737.549409 
L 1005.922725 737.384327 
L 1007.202585 737.461285 
L 1008.482445 736.781103 
L 1009.762304 737.152994 
L 1011.042164 738.187196 
L 1012.322024 738.551824 
L 1013.601884 738.079164 
L 1014.881744 738.186074 
L 1016.161604 736.914714 
L 1018.721323 737.003279 
L 1020.001183 738.21233 
L 1021.281043 738.163125 
L 1022.560903 737.547566 
L 1023.840763 737.52073 
L 1025.120623 738.068948 
L 1026.400482 737.538537 
L 1027.680342 737.231062 
L 1028.960202 737.252659 
L 1030.240062 738.002797 
L 1031.519922 737.445941 
L 1032.799782 737.399011 
L 1034.079641 737.495229 
L 1035.359501 737.792261 
L 1036.639361 738.410981 
L 1037.919221 738.133689 
L 1039.199081 737.251091 
L 1041.7588 737.254974 
L 1043.03866 737.961509 
L 1044.31852 739.065029 
L 1045.59838 739.656898 
L 1048.1581 738.563063 
L 1049.43796 737.791093 
L 1051.997679 738.438923 
L 1055.837259 739.894468 
L 1057.117119 738.403235 
L 1058.396978 738.369685 
L 1059.676838 738.839539 
L 1060.956698 738.951434 
L 1062.236558 738.5881 
L 1064.796278 738.467154 
L 1066.076137 738.431503 
L 1067.355997 738.076034 
L 1068.635857 737.284302 
L 1069.915717 736.832794 
L 1071.195577 737.224666 
L 1072.475437 736.847776 
L 1073.755297 737.486559 
L 1075.035156 738.514049 
L 1076.315016 738.053914 
L 1077.594876 737.89925 
L 1078.874736 737.93819 
L 1080.154596 738.092896 
L 1081.434456 738.526523 
L 1082.714315 738.819831 
L 1083.994175 738.529915 
L 1085.274035 739.003531 
L 1086.553895 737.988375 
L 1087.833755 738.568036 
L 1089.113615 738.757253 
L 1090.393475 738.350193 
L 1091.673334 737.56603 
L 1092.953194 737.483158 
L 1094.233054 738.023996 
L 1095.512914 738.23286 
L 1096.792774 737.966906 
L 1098.072634 738.215721 
L 1099.352493 738.57791 
L 1100.632353 737.435544 
L 1101.912213 736.865521 
L 1103.192073 737.195812 
L 1104.471933 737.225158 
L 1105.751793 736.842981 
L 1108.311512 737.288043 
L 1109.591372 737.862126 
L 1110.871232 737.44165 
L 1112.151092 738.021909 
L 1113.430952 738.28324 
L 1114.710812 738.335256 
L 1115.990671 738.24957 
L 1117.270531 737.847101 
L 1118.550391 737.952683 
L 1119.830251 737.591673 
L 1122.389971 738.312685 
L 1123.66983 738.076518 
L 1124.94969 737.185894 
L 1127.50941 737.883197 
L 1128.78927 737.041921 
L 1130.06913 736.536194 
L 1131.34899 736.266621 
L 1132.628849 736.347934 
L 1133.908709 736.723543 
L 1135.188569 736.3774 
L 1136.468429 736.253569 
L 1139.028149 735.445901 
L 1140.308008 735.405749 
L 1141.587868 736.217302 
L 1142.867728 736.73007 
L 1144.147588 736.873088 
L 1145.427448 737.814468 
L 1146.707308 737.889709 
L 1147.987167 738.878658 
L 1150.546887 739.348323 
L 1151.826747 738.465934 
L 1153.106607 739.003561 
L 1154.386467 739.026239 
L 1155.666327 739.414581 
L 1156.946186 738.20371 
L 1158.226046 737.846405 
L 1159.505906 738.834752 
L 1160.785766 739.046398 
L 1162.065626 738.320618 
L 1164.625345 739.03842 
L 1167.185065 737.952775 
L 1168.464925 738.650012 
L 1169.744785 737.676845 
L 1173.584364 737.65716 
L 1174.864224 737.891552 
L 1176.144084 737.324649 
L 1177.423944 737.27464 
L 1178.703804 737.552254 
L 1181.263523 737.297637 
L 1183.823243 738.423916 
L 1185.103103 737.60945 
L 1186.382963 737.743601 
L 1187.662823 736.879179 
L 1188.942683 737.198391 
L 1190.222542 737.882049 
L 1191.502402 737.129742 
L 1192.782262 737.745796 
L 1194.062122 737.878151 
L 1196.621842 737.745791 
L 1197.901701 737.452146 
L 1199.181561 737.510895 
L 1200.461421 737.41495 
L 1201.741281 737.461356 
L 1203.021141 737.724536 
L 1204.301001 736.955936 
L 1205.58086 737.271151 
L 1206.86072 737.960294 
L 1209.42044 737.310683 
L 1210.7003 737.995933 
L 1211.98016 738.116084 
L 1213.26002 736.033924 
L 1214.539879 737.156144 
L 1215.819739 737.125957 
L 1218.379459 736.738228 
L 1219.659319 737.47876 
L 1220.939179 737.518806 
L 1222.219038 737.351586 
L 1223.498898 738.095378 
L 1224.778758 738.166785 
L 1226.058618 736.683719 
L 1227.338478 736.744286 
L 1228.618338 737.518967 
L 1229.898197 737.273858 
L 1231.178057 737.16879 
L 1233.737777 737.233901 
L 1235.017637 737.944517 
L 1236.297497 738.17351 
L 1237.577357 737.78895 
L 1238.857216 737.998477 
L 1240.137076 738.55075 
L 1241.416936 738.084586 
L 1243.976656 738.476048 
L 1247.816235 737.82994 
L 1250.375955 739.156093 
L 1251.655815 739.387847 
L 1252.935675 738.83482 
L 1254.215535 739.115489 
L 1255.495394 738.898556 
L 1256.775254 738.879933 
L 1258.055114 739.215626 
L 1259.334974 738.655229 
L 1260.614834 737.873259 
L 1261.894694 738.356203 
L 1263.174553 737.973082 
L 1264.454413 738.902012 
L 1265.734273 738.191683 
L 1268.293993 737.5742 
L 1269.573853 737.721972 
L 1270.853713 737.368511 
L 1273.413432 736.199123 
L 1275.973152 737.738246 
L 1277.253012 737.662244 
L 1278.532872 738.273612 
L 1279.812731 739.108596 
L 1281.092591 737.328797 
L 1282.372451 737.20087 
L 1283.652311 737.259364 
L 1284.932171 737.543228 
L 1286.212031 737.586239 
L 1287.49189 738.332419 
L 1288.77175 738.782257 
L 1290.05161 738.677201 
L 1291.33147 738.906471 
L 1292.61133 738.344078 
L 1293.89119 738.240814 
L 1295.17105 738.404985 
L 1296.450909 736.642326 
L 1297.730769 737.238825 
L 1299.010629 737.99932 
L 1300.290489 737.779673 
L 1301.570349 736.495634 
L 1302.850209 736.199493 
L 1304.130068 735.273035 
L 1305.409928 735.955587 
L 1307.969648 736.427694 
L 1309.249508 736.51727 
L 1310.529368 736.426584 
L 1311.809228 735.506983 
L 1313.089087 735.870684 
L 1314.368947 736.470594 
L 1315.648807 736.693707 
L 1316.928667 737.821587 
L 1318.208527 737.334653 
L 1320.768246 738.365382 
L 1322.048106 738.16253 
L 1323.327966 738.809205 
L 1324.607826 738.816188 
L 1325.887686 739.116054 
L 1327.167546 738.880685 
L 1328.447405 738.498721 
L 1329.727265 738.866815 
L 1331.007125 738.875825 
L 1332.286985 737.605899 
L 1333.566845 737.411881 
L 1334.846705 737.602468 
L 1338.686284 736.097396 
L 1339.966144 736.173534 
L 1341.246004 737.513113 
L 1342.525864 736.997618 
L 1343.805724 736.768155 
L 1345.085583 736.806056 
L 1346.365443 737.257684 
L 1347.645303 736.45573 
L 1348.925163 737.326899 
L 1350.205023 737.606123 
L 1351.484883 736.409955 
L 1352.764743 737.198526 
L 1354.044602 737.666432 
L 1355.324462 737.569714 
L 1356.604322 738.212173 
L 1357.884182 737.515408 
L 1359.164042 737.416889 
L 1360.443902 736.956873 
L 1361.723761 736.871325 
L 1363.003621 737.31873 
L 1364.283481 737.243083 
L 1365.563341 737.713302 
L 1370.68278 738.415729 
L 1371.96264 737.504438 
L 1371.96264 737.504438 
" style="fill:none;stroke:#0000ff;stroke-linecap:square;stroke-width:2.0;"/>
   </g>
   <g id="line2d_2">
    <path clip-path="url(#p1b707e7d1d)" d="M 93.382656 125.748218 
L 94.662516 127.473915 
L 95.942376 129.035775 
L 97.222236 130.097698 
L 98.502096 132.613164 
L 101.061815 136.926665 
L 103.621535 139.997145 
L 106.181255 144.515161 
L 107.461115 146.312519 
L 108.740974 147.806649 
L 110.020834 149.480513 
L 111.300694 151.59759 
L 112.580554 153.447585 
L 113.860414 154.919764 
L 118.979853 162.667537 
L 122.819433 168.246286 
L 124.099292 170.415359 
L 125.379152 173.129479 
L 127.938872 175.952742 
L 130.498592 179.811457 
L 135.618031 185.591503 
L 136.897891 188.034156 
L 138.177751 191.052165 
L 139.457611 192.287457 
L 140.73747 193.791857 
L 142.01733 195.62878 
L 143.29719 198.073133 
L 144.57705 200.26436 
L 145.85691 202.684581 
L 147.13677 205.570903 
L 148.41663 207.377381 
L 149.696489 208.709959 
L 150.976349 210.653688 
L 153.536069 213.940291 
L 154.815929 215.435576 
L 156.095789 217.397742 
L 157.375648 219.583017 
L 158.655508 221.416447 
L 159.935368 222.7939 
L 161.215228 224.686251 
L 162.495088 226.377579 
L 163.774948 227.655333 
L 165.054807 229.542223 
L 166.334667 232.177161 
L 167.614527 234.494173 
L 168.894387 236.169657 
L 170.174247 237.435327 
L 171.454107 239.320674 
L 172.733967 240.577905 
L 175.293686 243.828055 
L 176.573546 245.097261 
L 180.413126 250.272223 
L 181.692985 251.146709 
L 184.252705 253.609442 
L 185.532565 255.406194 
L 186.812425 256.87377 
L 190.652004 262.360815 
L 191.931864 264.797557 
L 193.211724 265.765889 
L 194.491584 267.750336 
L 195.771444 270.539206 
L 198.331163 273.841124 
L 199.611023 275.945219 
L 200.890883 277.295143 
L 202.170743 279.299066 
L 203.450603 280.516673 
L 204.730463 281.9873 
L 206.010322 284.146072 
L 207.290182 285.7259 
L 208.570042 288.119695 
L 209.849902 289.796303 
L 212.409622 292.541534 
L 213.689482 294.217914 
L 214.969341 296.157088 
L 217.529061 299.439662 
L 218.808921 301.285795 
L 220.088781 303.534202 
L 221.368641 305.083221 
L 222.6485 306.30615 
L 223.92836 308.475878 
L 225.20822 310.365413 
L 226.48808 311.591324 
L 229.0478 315.337195 
L 230.32766 317.61785 
L 231.607519 318.666503 
L 232.887379 320.542328 
L 234.167239 322.081817 
L 235.447099 324.28141 
L 236.726959 325.66754 
L 238.006819 326.485567 
L 239.286678 327.703734 
L 240.566538 329.424302 
L 241.846398 330.523737 
L 244.406118 334.020848 
L 246.965837 337.564796 
L 248.245697 339.729826 
L 249.525557 342.185958 
L 250.805417 343.927302 
L 252.085277 345.939766 
L 253.365137 347.687975 
L 254.644997 349.884116 
L 255.924856 351.093737 
L 257.204716 352.041255 
L 259.764436 355.474828 
L 261.044296 357.52255 
L 262.324156 358.637317 
L 264.883875 361.59699 
L 266.163735 362.60764 
L 267.443595 364.510145 
L 268.723455 366.980246 
L 270.003315 368.465362 
L 272.563034 371.077981 
L 273.842894 373.19464 
L 275.122754 374.444487 
L 277.682474 378.021896 
L 278.962334 379.115806 
L 280.242193 380.431298 
L 281.522053 382.165803 
L 282.801913 383.34398 
L 284.081773 384.131762 
L 285.361633 385.624291 
L 287.921353 389.347364 
L 289.201212 390.779014 
L 290.481072 391.065897 
L 291.760932 392.248143 
L 295.600512 396.935845 
L 296.880371 398.404963 
L 299.440091 402.13935 
L 300.719951 403.963734 
L 303.279671 406.373206 
L 304.55953 408.053518 
L 305.83939 409.223885 
L 307.11925 411.197304 
L 308.39911 412.43195 
L 309.67897 414.125763 
L 310.95883 415.39562 
L 312.23869 417.404376 
L 313.518549 418.871259 
L 314.798409 421.244924 
L 317.358129 424.972977 
L 318.637989 426.219709 
L 319.917849 428.249894 
L 321.197708 429.579489 
L 322.477568 431.718317 
L 323.757428 433.023754 
L 325.037288 434.141629 
L 326.317148 436.382559 
L 328.876868 440.327053 
L 330.156727 441.908153 
L 332.716447 444.622914 
L 333.996307 446.327533 
L 336.556027 449.424482 
L 337.835886 451.841254 
L 339.115746 453.408353 
L 340.395606 455.227741 
L 341.675466 456.382259 
L 342.955326 458.338049 
L 344.235186 459.667329 
L 345.515045 461.516805 
L 346.794905 462.390155 
L 348.074765 464.00784 
L 350.634485 467.919785 
L 351.914345 469.413058 
L 353.194205 471.098393 
L 354.474064 468.812014 
L 357.033784 471.476466 
L 358.313644 473.369795 
L 359.593504 474.89746 
L 360.873364 476.949445 
L 362.153223 478.106742 
L 363.433083 479.608734 
L 364.712943 481.514905 
L 367.272663 486.163711 
L 368.552523 487.747553 
L 369.832382 490.968529 
L 371.112242 493.16993 
L 372.392102 495.852535 
L 373.671962 497.704558 
L 374.951822 498.689949 
L 376.231682 499.968035 
L 377.511542 501.71691 
L 380.071261 505.737339 
L 381.351121 508.100979 
L 382.630981 509.307302 
L 386.47056 514.464519 
L 387.75042 515.810627 
L 389.03028 518.707304 
L 394.14972 524.618337 
L 396.709439 527.874301 
L 397.989299 529.379012 
L 399.269159 532.198782 
L 400.549019 533.472747 
L 403.108738 537.641104 
L 404.388598 538.743738 
L 405.668458 541.101664 
L 406.948318 542.706371 
L 408.228178 544.126336 
L 409.508038 545.787838 
L 412.067757 548.551544 
L 413.347617 550.434898 
L 415.907337 554.848189 
L 417.187197 556.63856 
L 419.746916 559.01081 
L 421.026776 560.88445 
L 424.866356 565.296187 
L 426.146216 566.970181 
L 431.265655 575.129834 
L 432.545515 576.324344 
L 433.825375 578.441125 
L 435.105235 580.332607 
L 437.664954 584.44682 
L 438.944814 585.968925 
L 442.784394 591.913855 
L 444.064253 593.41616 
L 445.344113 594.482764 
L 446.623973 596.294103 
L 447.903833 597.527123 
L 449.183693 599.562924 
L 453.023272 604.411419 
L 454.303132 605.609874 
L 455.582992 607.473213 
L 456.862852 608.919765 
L 460.702431 613.837498 
L 463.262151 617.094363 
L 464.542011 619.622901 
L 465.821871 621.733153 
L 468.38159 625.086174 
L 469.66145 627.156483 
L 470.94131 628.522661 
L 473.50103 632.394261 
L 474.78089 633.757971 
L 476.06075 636.269779 
L 477.340609 636.978894 
L 479.900329 639.780962 
L 481.180189 640.805485 
L 482.460049 642.553422 
L 483.739909 643.65448 
L 485.019768 645.351309 
L 486.299628 646.384687 
L 488.859348 650.963479 
L 490.139208 653.247032 
L 491.419068 654.220699 
L 492.698927 655.594938 
L 493.978787 656.599879 
L 495.258647 658.073512 
L 496.538507 660.201165 
L 499.098227 664.990662 
L 500.378087 665.665348 
L 501.657946 667.273835 
L 502.937806 668.391011 
L 504.217666 670.155183 
L 505.497526 672.497889 
L 506.777386 674.119768 
L 508.057246 676.943576 
L 509.337105 678.136167 
L 511.896825 681.450155 
L 513.176685 682.252557 
L 514.456545 683.963749 
L 515.736405 685.958842 
L 517.016265 686.892957 
L 519.575984 690.591025 
L 520.855844 691.977746 
L 523.415564 696.821619 
L 524.695424 698.294151 
L 527.255143 701.68393 
L 529.814863 704.969595 
L 531.094723 706.062115 
L 532.374583 708.445765 
L 533.654442 710.010763 
L 534.934302 712.671362 
L 536.214162 714.753905 
L 537.494022 715.6394 
L 538.773882 717.288919 
L 540.053742 719.208688 
L 541.333602 721.441322 
L 543.893321 724.262447 
L 545.173181 725.193598 
L 546.453041 725.786981 
L 547.732901 725.714189 
L 549.012761 727.020571 
L 550.29262 727.910748 
L 551.57248 728.35129 
L 552.85234 729.308821 
L 554.1322 730.839913 
L 555.41206 731.736322 
L 556.69192 732.29614 
L 557.97178 732.446007 
L 559.251639 732.461988 
L 560.531499 733.414384 
L 561.811359 733.538196 
L 563.091219 734.081321 
L 564.371079 734.481176 
L 565.650939 734.316985 
L 566.930798 735.562662 
L 568.210658 736.018464 
L 569.490518 736.134105 
L 570.770378 736.377541 
L 572.050238 737.016354 
L 573.330098 737.46039 
L 574.609957 737.757144 
L 575.889817 737.601988 
L 577.169677 737.123904 
L 578.449537 737.44771 
L 579.729397 738.106641 
L 581.009257 739.543126 
L 582.289117 738.507142 
L 583.568976 738.455486 
L 584.848836 738.578223 
L 586.128696 739.238183 
L 587.408556 739.15163 
L 588.688416 738.127387 
L 589.968276 739.01346 
L 591.248135 739.282502 
L 592.527995 739.310953 
L 593.807855 738.806389 
L 595.087715 738.775808 
L 598.927295 739.772115 
L 600.207154 739.37985 
L 601.487014 739.88869 
L 604.046734 738.024436 
L 605.326594 738.939946 
L 606.606454 739.074219 
L 607.886313 738.341027 
L 609.166173 738.44038 
L 610.446033 738.786372 
L 614.285613 739.231145 
L 615.565472 738.89712 
L 616.845332 739.282794 
L 618.125192 737.628781 
L 619.405052 738.890367 
L 620.684912 739.301264 
L 621.964772 739.111247 
L 623.244632 739.357342 
L 624.524491 739.353062 
L 625.804351 740.653814 
L 627.084211 739.271552 
L 628.364071 739.279047 
L 629.643931 738.533217 
L 630.923791 738.313544 
L 632.20365 738.531356 
L 633.48351 737.134156 
L 634.76337 737.203642 
L 636.04323 737.569768 
L 637.32309 738.115672 
L 638.60295 738.356391 
L 639.88281 738.283148 
L 641.162669 737.828389 
L 642.442529 738.247908 
L 643.722389 738.89246 
L 646.282109 739.596116 
L 647.561969 738.900358 
L 648.841828 738.874545 
L 650.121688 739.265931 
L 651.401548 739.486063 
L 652.681408 738.838861 
L 653.961268 738.375893 
L 655.241128 738.481819 
L 656.520987 737.810916 
L 657.800847 737.853955 
L 659.080707 737.732179 
L 660.360567 738.353432 
L 661.640427 737.790635 
L 664.200147 738.347177 
L 665.480006 738.570835 
L 666.759866 739.211228 
L 668.039726 738.374087 
L 669.319586 738.880284 
L 670.599446 738.85008 
L 671.879306 739.274749 
L 673.159165 739.086909 
L 674.439025 739.183703 
L 675.718885 739.461867 
L 676.998745 738.127597 
L 678.278605 738.719048 
L 679.558465 738.291247 
L 680.838325 739.105876 
L 682.118184 737.500088 
L 683.398044 737.467655 
L 684.677904 739.049563 
L 687.237624 737.723966 
L 688.517484 737.509378 
L 689.797343 736.673474 
L 692.357063 736.567767 
L 693.636923 737.001281 
L 694.916783 736.973719 
L 696.196643 738.102567 
L 697.476502 738.464229 
L 701.316082 738.891525 
L 702.595942 739.301971 
L 703.875802 739.314411 
L 705.155662 739.530063 
L 706.435521 738.202611 
L 707.715381 738.466794 
L 708.995241 738.593907 
L 711.554961 739.193597 
L 712.834821 739.49823 
L 714.11468 738.98223 
L 715.39454 738.762265 
L 716.6744 739.203231 
L 717.95426 738.647866 
L 719.23412 737.50265 
L 720.51398 737.690066 
L 721.79384 737.394061 
L 723.073699 738.130193 
L 724.353559 738.500393 
L 725.633419 738.255693 
L 728.193139 738.423532 
L 730.752858 738.432037 
L 732.032718 738.878479 
L 733.312578 738.420431 
L 735.872298 738.653881 
L 737.152158 738.531001 
L 738.432017 738.657991 
L 739.711877 738.968517 
L 740.991737 738.37368 
L 742.271597 737.552669 
L 744.831317 737.973283 
L 746.111177 738.062784 
L 747.391036 738.705051 
L 749.950756 738.707039 
L 752.510476 737.605347 
L 755.070195 738.223027 
L 756.350055 738.088796 
L 757.629915 738.260267 
L 760.189635 738.960288 
L 761.469495 738.745801 
L 762.749355 738.336439 
L 764.029214 738.278781 
L 765.309074 737.732458 
L 766.588934 737.946626 
L 767.868794 738.320635 
L 769.148654 739.173484 
L 770.428514 739.464149 
L 771.708373 739.504532 
L 772.988233 739.278164 
L 776.827813 738.996857 
L 778.107673 738.838237 
L 779.387532 738.792642 
L 780.667392 738.276964 
L 781.947252 737.588723 
L 783.227112 738.051381 
L 784.506972 737.443783 
L 785.786832 737.972657 
L 787.066692 738.928386 
L 788.346551 739.262091 
L 789.626411 739.456306 
L 792.186131 739.473426 
L 793.465991 739.307253 
L 794.745851 737.747875 
L 796.02571 739.364085 
L 797.30557 739.204714 
L 798.58543 739.202257 
L 799.86529 739.012473 
L 801.14515 739.187355 
L 802.42501 738.638797 
L 803.70487 737.393573 
L 804.984729 736.952787 
L 806.264589 737.280627 
L 807.544449 737.005367 
L 808.824309 737.050142 
L 810.104169 737.447495 
L 811.384029 737.377057 
L 812.663888 737.520988 
L 813.943748 736.876047 
L 815.223608 737.470309 
L 816.503468 737.901609 
L 817.783328 737.263075 
L 819.063188 738.016719 
L 820.343047 738.272901 
L 821.622907 738.157403 
L 822.902767 736.924733 
L 824.182627 736.947802 
L 825.462487 737.484045 
L 826.742347 737.544556 
L 828.022207 737.906815 
L 830.581926 738.123568 
L 831.861786 739.200719 
L 833.141646 738.237226 
L 834.421506 738.472971 
L 836.981225 740.084549 
L 838.261085 738.759358 
L 840.820805 738.616731 
L 843.380525 738.97636 
L 844.660385 739.352899 
L 845.940244 739.114027 
L 847.220104 737.76454 
L 848.499964 736.722673 
L 849.779824 736.942376 
L 851.059684 737.304603 
L 852.339544 738.052034 
L 853.619403 736.988779 
L 854.899263 736.651562 
L 856.179123 736.186535 
L 857.458983 736.4092 
L 858.738843 736.746024 
L 860.018703 737.483819 
L 861.298562 737.615354 
L 862.578422 739.078747 
L 863.858282 738.804537 
L 865.138142 738.647487 
L 866.418002 738.975626 
L 867.697862 738.685228 
L 868.977722 739.015729 
L 870.257581 738.740383 
L 871.537441 738.889409 
L 872.817301 738.49625 
L 874.097161 738.556805 
L 875.377021 738.169038 
L 876.656881 738.812272 
L 877.93674 738.261903 
L 879.2166 738.262547 
L 880.49646 738.908025 
L 881.77632 738.304552 
L 883.05618 737.524188 
L 884.33604 737.976519 
L 885.6159 738.683117 
L 886.895759 738.410087 
L 888.175619 737.038079 
L 890.735339 737.690308 
L 892.015199 737.787387 
L 893.295059 737.568205 
L 894.574918 738.099988 
L 895.854778 738.954671 
L 897.134638 738.256807 
L 898.414498 738.545992 
L 899.694358 738.364532 
L 900.974218 738.900048 
L 902.254077 738.719506 
L 903.533937 737.951226 
L 904.813797 738.815087 
L 907.373517 738.644319 
L 908.653377 738.112977 
L 909.933237 739.203589 
L 912.492956 737.983094 
L 913.772816 738.051295 
L 915.052676 737.436803 
L 916.332536 738.13857 
L 917.612396 738.244985 
L 918.892255 737.622184 
L 920.172115 738.253758 
L 921.451975 738.453292 
L 922.731835 737.938802 
L 924.011695 737.702122 
L 925.291555 738.428705 
L 926.571415 738.462311 
L 927.851274 738.226722 
L 929.131134 738.9897 
L 930.410994 739.090781 
L 931.690854 737.252267 
L 934.250574 736.184231 
L 935.530433 736.57796 
L 936.810293 736.717788 
L 938.090153 737.48207 
L 940.649873 738.467495 
L 941.929733 738.048267 
L 944.489452 737.654686 
L 945.769312 737.888012 
L 947.049172 738.929373 
L 948.329032 738.230375 
L 949.608892 738.594578 
L 950.888752 738.437857 
L 952.168611 738.762749 
L 953.448471 739.679799 
L 954.728331 739.906783 
L 956.008191 738.249224 
L 957.288051 736.06451 
L 959.84777 736.572164 
L 961.12763 735.972273 
L 964.96721 737.631928 
L 966.24707 739.019286 
L 967.52693 738.718248 
L 968.806789 738.560478 
L 971.366509 737.783541 
L 972.646369 738.181431 
L 973.926229 737.717773 
L 975.206089 736.000008 
L 977.765808 736.101425 
L 979.045668 736.86125 
L 980.325528 736.642308 
L 981.605388 736.902547 
L 982.885248 737.007757 
L 984.165107 736.898826 
L 985.444967 737.094031 
L 986.724827 736.529611 
L 988.004687 736.964618 
L 989.284547 736.995226 
L 990.564407 736.912366 
L 991.844267 737.514602 
L 993.124126 736.975749 
L 994.403986 737.612873 
L 995.683846 737.155859 
L 996.963706 738.188024 
L 999.523426 737.543397 
L 1000.803285 738.724027 
L 1002.083145 738.534209 
L 1003.363005 738.890468 
L 1004.642865 739.514927 
L 1005.922725 739.923365 
L 1007.202585 739.905579 
L 1008.482445 740.416696 
L 1011.042164 740.436193 
L 1012.322024 740.974227 
L 1013.601884 739.661083 
L 1014.881744 739.161062 
L 1016.161604 738.14673 
L 1017.441463 737.906879 
L 1018.721323 737.945082 
L 1020.001183 737.56762 
L 1021.281043 737.38197 
L 1022.560903 738.448726 
L 1023.840763 739.183478 
L 1025.120623 738.440315 
L 1027.680342 738.17387 
L 1028.960202 738.420643 
L 1030.240062 739.216185 
L 1031.519922 738.958977 
L 1032.799782 739.259367 
L 1034.079641 737.935591 
L 1035.359501 737.162076 
L 1036.639361 738.256965 
L 1039.199081 738.070452 
L 1040.478941 737.604698 
L 1041.7588 737.947175 
L 1043.03866 738.514637 
L 1044.31852 739.374946 
L 1045.59838 738.818257 
L 1046.87824 739.230824 
L 1049.43796 740.31359 
L 1050.717819 740.60627 
L 1051.997679 739.882323 
L 1053.277539 740.127651 
L 1054.557399 739.738412 
L 1055.837259 740.398419 
L 1058.396978 739.579492 
L 1059.676838 739.675351 
L 1060.956698 738.723028 
L 1063.516418 738.241652 
L 1064.796278 737.320778 
L 1066.076137 737.397596 
L 1067.355997 735.416395 
L 1068.635857 735.990238 
L 1069.915717 736.094276 
L 1071.195577 735.886065 
L 1073.755297 737.642074 
L 1075.035156 736.882661 
L 1076.315016 737.806667 
L 1077.594876 738.112854 
L 1078.874736 738.976834 
L 1080.154596 738.83448 
L 1081.434456 738.537255 
L 1082.714315 737.77343 
L 1083.994175 737.650785 
L 1086.553895 737.907945 
L 1087.833755 738.179315 
L 1089.113615 738.17582 
L 1090.393475 738.536917 
L 1091.673334 738.591702 
L 1092.953194 738.22039 
L 1094.233054 738.217117 
L 1096.792774 737.71536 
L 1099.352493 738.248232 
L 1100.632353 738.152574 
L 1101.912213 738.320797 
L 1103.192073 737.466919 
L 1104.471933 737.538877 
L 1107.031653 739.03911 
L 1108.311512 738.455985 
L 1109.591372 738.240003 
L 1110.871232 738.35448 
L 1112.151092 738.685196 
L 1113.430952 739.138026 
L 1114.710812 738.834989 
L 1115.990671 739.583612 
L 1117.270531 739.080556 
L 1118.550391 738.722493 
L 1119.830251 738.147527 
L 1121.110111 738.617773 
L 1123.66983 739.167498 
L 1124.94969 737.936668 
L 1126.22955 738.971787 
L 1127.50941 739.549784 
L 1128.78927 739.965974 
L 1130.06913 740.800104 
L 1131.34899 738.76384 
L 1133.908709 738.848667 
L 1135.188569 739.588343 
L 1136.468429 738.998529 
L 1137.748289 739.219489 
L 1139.028149 739.296275 
L 1140.308008 739.784183 
L 1141.587868 739.417587 
L 1142.867728 739.272704 
L 1144.147588 738.245439 
L 1145.427448 738.38263 
L 1146.707308 737.228365 
L 1147.987167 736.717196 
L 1149.267027 735.695873 
L 1150.546887 735.805728 
L 1151.826747 736.542335 
L 1153.106607 738.181631 
L 1154.386467 737.223284 
L 1155.666327 737.356598 
L 1156.946186 738.987449 
L 1158.226046 738.856636 
L 1159.505906 737.736097 
L 1160.785766 737.852039 
L 1162.065626 738.104207 
L 1163.345486 738.140176 
L 1164.625345 738.054074 
L 1165.905205 737.823152 
L 1167.185065 736.945117 
L 1168.464925 736.941993 
L 1169.744785 737.693144 
L 1171.024645 733.307067 
L 1172.304505 733.395138 
L 1174.864224 734.526217 
L 1176.144084 735.771025 
L 1177.423944 735.188988 
L 1178.703804 735.704108 
L 1179.983664 734.884229 
L 1181.263523 736.220155 
L 1185.103103 736.555629 
L 1186.382963 735.999109 
L 1187.662823 734.957174 
L 1188.942683 735.364879 
L 1190.222542 735.924644 
L 1191.502402 736.183277 
L 1192.782262 736.894211 
L 1194.062122 736.211751 
L 1195.341982 737.158054 
L 1196.621842 739.206145 
L 1197.901701 738.722885 
L 1199.181561 739.413934 
L 1200.461421 739.511991 
L 1201.741281 738.931134 
L 1203.021141 740.061607 
L 1204.301001 740.080283 
L 1205.58086 739.835729 
L 1208.14058 738.977192 
L 1209.42044 736.216833 
L 1210.7003 736.641009 
L 1211.98016 736.946871 
L 1213.26002 736.268991 
L 1214.539879 735.994707 
L 1217.099599 736.468986 
L 1218.379459 737.26103 
L 1220.939179 738.206505 
L 1222.219038 739.122024 
L 1224.778758 739.482751 
L 1226.058618 740.013311 
L 1227.338478 739.356593 
L 1228.618338 739.78962 
L 1229.898197 738.709109 
L 1231.178057 738.634961 
L 1232.457917 739.005557 
L 1233.737777 738.270596 
L 1235.017637 738.357804 
L 1236.297497 738.181258 
L 1237.577357 738.378383 
L 1238.857216 737.40483 
L 1240.137076 737.784298 
L 1242.696796 738.749164 
L 1243.976656 738.927484 
L 1245.256516 738.627003 
L 1246.536375 739.202741 
L 1247.816235 738.786369 
L 1249.096095 739.645292 
L 1252.935675 737.608942 
L 1254.215535 737.164172 
L 1255.495394 736.996735 
L 1256.775254 738.03189 
L 1258.055114 738.460119 
L 1259.334974 738.246228 
L 1261.894694 737.284024 
L 1263.174553 736.44012 
L 1264.454413 737.017775 
L 1267.014133 736.818899 
L 1268.293993 737.708677 
L 1269.573853 737.786451 
L 1270.853713 738.281227 
L 1272.133572 737.775817 
L 1273.413432 737.78479 
L 1274.693292 737.401642 
L 1277.253012 737.566827 
L 1278.532872 736.9755 
L 1281.092591 737.703388 
L 1282.372451 737.823015 
L 1283.652311 737.771535 
L 1284.932171 737.864022 
L 1286.212031 739.007052 
L 1287.49189 737.83572 
L 1288.77175 737.882923 
L 1290.05161 737.411498 
L 1291.33147 738.367585 
L 1292.61133 738.078794 
L 1293.89119 738.612255 
L 1295.17105 737.616899 
L 1296.450909 737.021241 
L 1297.730769 737.530139 
L 1299.010629 738.702233 
L 1300.290489 738.086536 
L 1301.570349 738.419288 
L 1302.850209 739.156587 
L 1304.130068 739.339877 
L 1305.409928 738.124158 
L 1306.689788 738.053096 
L 1307.969648 738.220688 
L 1310.529368 738.000666 
L 1313.089087 738.617697 
L 1314.368947 738.488517 
L 1315.648807 738.600295 
L 1316.928667 737.918987 
L 1318.208527 737.572755 
L 1319.488387 737.387281 
L 1320.768246 738.012891 
L 1322.048106 737.776014 
L 1323.327966 736.216837 
L 1324.607826 737.213905 
L 1325.887686 737.206431 
L 1328.447405 737.631055 
L 1329.727265 737.706361 
L 1331.007125 736.769675 
L 1332.286985 737.029835 
L 1333.566845 736.591066 
L 1334.846705 736.461324 
L 1336.126565 736.888701 
L 1337.406424 736.996258 
L 1339.966144 737.898344 
L 1341.246004 738.433954 
L 1342.525864 737.500824 
L 1343.805724 737.849238 
L 1345.085583 737.008762 
L 1346.365443 736.742366 
L 1347.645303 737.672626 
L 1348.925163 737.888815 
L 1350.205023 737.603954 
L 1351.484883 737.646361 
L 1352.764743 738.07608 
L 1354.044602 738.133161 
L 1355.324462 736.889452 
L 1356.604322 736.988866 
L 1357.884182 737.347017 
L 1359.164042 738.215596 
L 1360.443902 738.407042 
L 1361.723761 737.899745 
L 1363.003621 737.798446 
L 1364.283481 738.631182 
L 1368.123061 737.875296 
L 1369.40292 738.428993 
L 1370.68278 739.130052 
L 1371.96264 739.332849 
L 1371.96264 739.332849 
" style="fill:none;stroke:#008000;stroke-linecap:square;stroke-width:2.0;"/>
   </g>
   <g id="patch_3">
    <path d="M 93.382656 57.915781 
L 1373.2425 57.915781 
" style="fill:none;stroke:#000000;stroke-linecap:square;stroke-linejoin:miter;"/>
   </g>
   <g id="patch_4">
    <path d="M 1373.2425 770.338125 
L 1373.2425 57.915781 
" style="fill:none;stroke:#000000;stroke-linecap:square;stroke-linejoin:miter;"/>
   </g>
   <g id="patch_5">
    <path d="M 93.382656 770.338125 
L 1373.2425 770.338125 
" style="fill:none;stroke:#000000;stroke-linecap:square;stroke-linejoin:miter;"/>
   </g>
   <g id="patch_6">
    <path d="M 93.382656 770.338125 
L 93.382656 57.915781 
" style="fill:none;stroke:#000000;stroke-linecap:square;stroke-linejoin:miter;"/>
   </g>
   <g id="matplotlib.axis_1">
    <g id="xtick_1">
     <g id="line2d_3">
      <defs>
       <path d="M 0 0 
L 0 -4 
" id="mc63dd11563" style="stroke:#000000;stroke-width:0.5;"/>
      </defs>
      <g>
       <use style="stroke:#000000;stroke-width:0.5;" x="93.38265625" xlink:href="#mc63dd11563" y="770.338125"/>
      </g>
     </g>
     <g id="line2d_4">
      <defs>
       <path d="M 0 0 
L 0 4 
" id="mc8aca85d89" style="stroke:#000000;stroke-width:0.5;"/>
      </defs>
      <g>
       <use style="stroke:#000000;stroke-width:0.5;" x="93.38265625" xlink:href="#mc8aca85d89" y="57.91578125"/>
      </g>
     </g>
     <g id="text_1">
      <!-- 0 -->
      <defs>
       <path d="M 31.78125 66.40625 
Q 24.171875 66.40625 20.328125 58.90625 
Q 16.5 51.421875 16.5 36.375 
Q 16.5 21.390625 20.328125 13.890625 
Q 24.171875 6.390625 31.78125 6.390625 
Q 39.453125 6.390625 43.28125 13.890625 
Q 47.125 21.390625 47.125 36.375 
Q 47.125 51.421875 43.28125 58.90625 
Q 39.453125 66.40625 31.78125 66.40625 
M 31.78125 74.21875 
Q 44.046875 74.21875 50.515625 64.515625 
Q 56.984375 54.828125 56.984375 36.375 
Q 56.984375 17.96875 50.515625 8.265625 
Q 44.046875 -1.421875 31.78125 -1.421875 
Q 19.53125 -1.421875 13.0625 8.265625 
Q 6.59375 17.96875 6.59375 36.375 
Q 6.59375 54.828125 13.0625 64.515625 
Q 19.53125 74.21875 31.78125 74.21875 
" id="BitstreamVeraSans-Roman-30"/>
      </defs>
      <g transform="translate(83.83890625 797.1334375)scale(0.3 -0.3)">
       <use xlink:href="#BitstreamVeraSans-Roman-30"/>
      </g>
     </g>
    </g>
    <g id="xtick_2">
     <g id="line2d_5">
      <g>
       <use style="stroke:#000000;stroke-width:0.5;" x="349.354625" xlink:href="#mc63dd11563" y="770.338125"/>
      </g>
     </g>
     <g id="line2d_6">
      <g>
       <use style="stroke:#000000;stroke-width:0.5;" x="349.354625" xlink:href="#mc8aca85d89" y="57.91578125"/>
      </g>
     </g>
     <g id="text_2">
      <!-- 200 -->
      <defs>
       <path d="M 19.1875 8.296875 
L 53.609375 8.296875 
L 53.609375 0 
L 7.328125 0 
L 7.328125 8.296875 
Q 12.9375 14.109375 22.625 23.890625 
Q 32.328125 33.6875 34.8125 36.53125 
Q 39.546875 41.84375 41.421875 45.53125 
Q 43.3125 49.21875 43.3125 52.78125 
Q 43.3125 58.59375 39.234375 62.25 
Q 35.15625 65.921875 28.609375 65.921875 
Q 23.96875 65.921875 18.8125 64.3125 
Q 13.671875 62.703125 7.8125 59.421875 
L 7.8125 69.390625 
Q 13.765625 71.78125 18.9375 73 
Q 24.125 74.21875 28.421875 74.21875 
Q 39.75 74.21875 46.484375 68.546875 
Q 53.21875 62.890625 53.21875 53.421875 
Q 53.21875 48.921875 51.53125 44.890625 
Q 49.859375 40.875 45.40625 35.40625 
Q 44.1875 33.984375 37.640625 27.21875 
Q 31.109375 20.453125 19.1875 8.296875 
" id="BitstreamVeraSans-Roman-32"/>
      </defs>
      <g transform="translate(320.723375 797.1334375)scale(0.3 -0.3)">
       <use xlink:href="#BitstreamVeraSans-Roman-32"/>
       <use x="63.623046875" xlink:href="#BitstreamVeraSans-Roman-30"/>
       <use x="127.24609375" xlink:href="#BitstreamVeraSans-Roman-30"/>
      </g>
     </g>
    </g>
    <g id="xtick_3">
     <g id="line2d_7">
      <g>
       <use style="stroke:#000000;stroke-width:0.5;" x="605.32659375" xlink:href="#mc63dd11563" y="770.338125"/>
      </g>
     </g>
     <g id="line2d_8">
      <g>
       <use style="stroke:#000000;stroke-width:0.5;" x="605.32659375" xlink:href="#mc8aca85d89" y="57.91578125"/>
      </g>
     </g>
     <g id="text_3">
      <!-- 400 -->
      <defs>
       <path d="M 37.796875 64.3125 
L 12.890625 25.390625 
L 37.796875 25.390625 
z
M 35.203125 72.90625 
L 47.609375 72.90625 
L 47.609375 25.390625 
L 58.015625 25.390625 
L 58.015625 17.1875 
L 47.609375 17.1875 
L 47.609375 0 
L 37.796875 0 
L 37.796875 17.1875 
L 4.890625 17.1875 
L 4.890625 26.703125 
z
" id="BitstreamVeraSans-Roman-34"/>
      </defs>
      <g transform="translate(576.69534375 797.1334375)scale(0.3 -0.3)">
       <use xlink:href="#BitstreamVeraSans-Roman-34"/>
       <use x="63.623046875" xlink:href="#BitstreamVeraSans-Roman-30"/>
       <use x="127.24609375" xlink:href="#BitstreamVeraSans-Roman-30"/>
      </g>
     </g>
    </g>
    <g id="xtick_4">
     <g id="line2d_9">
      <g>
       <use style="stroke:#000000;stroke-width:0.5;" x="861.2985625" xlink:href="#mc63dd11563" y="770.338125"/>
      </g>
     </g>
     <g id="line2d_10">
      <g>
       <use style="stroke:#000000;stroke-width:0.5;" x="861.2985625" xlink:href="#mc8aca85d89" y="57.91578125"/>
      </g>
     </g>
     <g id="text_4">
      <!-- 600 -->
      <defs>
       <path d="M 33.015625 40.375 
Q 26.375 40.375 22.484375 35.828125 
Q 18.609375 31.296875 18.609375 23.390625 
Q 18.609375 15.53125 22.484375 10.953125 
Q 26.375 6.390625 33.015625 6.390625 
Q 39.65625 6.390625 43.53125 10.953125 
Q 47.40625 15.53125 47.40625 23.390625 
Q 47.40625 31.296875 43.53125 35.828125 
Q 39.65625 40.375 33.015625 40.375 
M 52.59375 71.296875 
L 52.59375 62.3125 
Q 48.875 64.0625 45.09375 64.984375 
Q 41.3125 65.921875 37.59375 65.921875 
Q 27.828125 65.921875 22.671875 59.328125 
Q 17.53125 52.734375 16.796875 39.40625 
Q 19.671875 43.65625 24.015625 45.921875 
Q 28.375 48.1875 33.59375 48.1875 
Q 44.578125 48.1875 50.953125 41.515625 
Q 57.328125 34.859375 57.328125 23.390625 
Q 57.328125 12.15625 50.6875 5.359375 
Q 44.046875 -1.421875 33.015625 -1.421875 
Q 20.359375 -1.421875 13.671875 8.265625 
Q 6.984375 17.96875 6.984375 36.375 
Q 6.984375 53.65625 15.1875 63.9375 
Q 23.390625 74.21875 37.203125 74.21875 
Q 40.921875 74.21875 44.703125 73.484375 
Q 48.484375 72.75 52.59375 71.296875 
" id="BitstreamVeraSans-Roman-36"/>
      </defs>
      <g transform="translate(832.6673125 797.1334375)scale(0.3 -0.3)">
       <use xlink:href="#BitstreamVeraSans-Roman-36"/>
       <use x="63.623046875" xlink:href="#BitstreamVeraSans-Roman-30"/>
       <use x="127.24609375" xlink:href="#BitstreamVeraSans-Roman-30"/>
      </g>
     </g>
    </g>
    <g id="xtick_5">
     <g id="line2d_11">
      <g>
       <use style="stroke:#000000;stroke-width:0.5;" x="1117.27053125" xlink:href="#mc63dd11563" y="770.338125"/>
      </g>
     </g>
     <g id="line2d_12">
      <g>
       <use style="stroke:#000000;stroke-width:0.5;" x="1117.27053125" xlink:href="#mc8aca85d89" y="57.91578125"/>
      </g>
     </g>
     <g id="text_5">
      <!-- 800 -->
      <defs>
       <path d="M 31.78125 34.625 
Q 24.75 34.625 20.71875 30.859375 
Q 16.703125 27.09375 16.703125 20.515625 
Q 16.703125 13.921875 20.71875 10.15625 
Q 24.75 6.390625 31.78125 6.390625 
Q 38.8125 6.390625 42.859375 10.171875 
Q 46.921875 13.96875 46.921875 20.515625 
Q 46.921875 27.09375 42.890625 30.859375 
Q 38.875 34.625 31.78125 34.625 
M 21.921875 38.8125 
Q 15.578125 40.375 12.03125 44.71875 
Q 8.5 49.078125 8.5 55.328125 
Q 8.5 64.0625 14.71875 69.140625 
Q 20.953125 74.21875 31.78125 74.21875 
Q 42.671875 74.21875 48.875 69.140625 
Q 55.078125 64.0625 55.078125 55.328125 
Q 55.078125 49.078125 51.53125 44.71875 
Q 48 40.375 41.703125 38.8125 
Q 48.828125 37.15625 52.796875 32.3125 
Q 56.78125 27.484375 56.78125 20.515625 
Q 56.78125 9.90625 50.3125 4.234375 
Q 43.84375 -1.421875 31.78125 -1.421875 
Q 19.734375 -1.421875 13.25 4.234375 
Q 6.78125 9.90625 6.78125 20.515625 
Q 6.78125 27.484375 10.78125 32.3125 
Q 14.796875 37.15625 21.921875 38.8125 
M 18.3125 54.390625 
Q 18.3125 48.734375 21.84375 45.5625 
Q 25.390625 42.390625 31.78125 42.390625 
Q 38.140625 42.390625 41.71875 45.5625 
Q 45.3125 48.734375 45.3125 54.390625 
Q 45.3125 60.0625 41.71875 63.234375 
Q 38.140625 66.40625 31.78125 66.40625 
Q 25.390625 66.40625 21.84375 63.234375 
Q 18.3125 60.0625 18.3125 54.390625 
" id="BitstreamVeraSans-Roman-38"/>
      </defs>
      <g transform="translate(1088.63928125 797.1334375)scale(0.3 -0.3)">
       <use xlink:href="#BitstreamVeraSans-Roman-38"/>
       <use x="63.623046875" xlink:href="#BitstreamVeraSans-Roman-30"/>
       <use x="127.24609375" xlink:href="#BitstreamVeraSans-Roman-30"/>
      </g>
     </g>
    </g>
    <g id="xtick_6">
     <g id="line2d_13">
      <g>
       <use style="stroke:#000000;stroke-width:0.5;" x="1373.2425" xlink:href="#mc63dd11563" y="770.338125"/>
      </g>
     </g>
     <g id="line2d_14">
      <g>
       <use style="stroke:#000000;stroke-width:0.5;" x="1373.2425" xlink:href="#mc8aca85d89" y="57.91578125"/>
      </g>
     </g>
     <g id="text_6">
      <!-- 1000 -->
      <defs>
       <path d="M 12.40625 8.296875 
L 28.515625 8.296875 
L 28.515625 63.921875 
L 10.984375 60.40625 
L 10.984375 69.390625 
L 28.421875 72.90625 
L 38.28125 72.90625 
L 38.28125 8.296875 
L 54.390625 8.296875 
L 54.390625 0 
L 12.40625 0 
z
" id="BitstreamVeraSans-Roman-31"/>
      </defs>
      <g transform="translate(1335.0675 797.1334375)scale(0.3 -0.3)">
       <use xlink:href="#BitstreamVeraSans-Roman-31"/>
       <use x="63.623046875" xlink:href="#BitstreamVeraSans-Roman-30"/>
       <use x="127.24609375" xlink:href="#BitstreamVeraSans-Roman-30"/>
       <use x="190.869140625" xlink:href="#BitstreamVeraSans-Roman-30"/>
      </g>
     </g>
    </g>
    <g id="text_7">
     <!-- iterations -->
     <defs>
      <path d="M 54.890625 33.015625 
L 54.890625 0 
L 45.90625 0 
L 45.90625 32.71875 
Q 45.90625 40.484375 42.875 44.328125 
Q 39.84375 48.1875 33.796875 48.1875 
Q 26.515625 48.1875 22.3125 43.546875 
Q 18.109375 38.921875 18.109375 30.90625 
L 18.109375 0 
L 9.078125 0 
L 9.078125 54.6875 
L 18.109375 54.6875 
L 18.109375 46.1875 
Q 21.34375 51.125 25.703125 53.5625 
Q 30.078125 56 35.796875 56 
Q 45.21875 56 50.046875 50.171875 
Q 54.890625 44.34375 54.890625 33.015625 
" id="BitstreamVeraSans-Roman-6e"/>
      <path d="M 34.28125 27.484375 
Q 23.390625 27.484375 19.1875 25 
Q 14.984375 22.515625 14.984375 16.5 
Q 14.984375 11.71875 18.140625 8.90625 
Q 21.296875 6.109375 26.703125 6.109375 
Q 34.1875 6.109375 38.703125 11.40625 
Q 43.21875 16.703125 43.21875 25.484375 
L 43.21875 27.484375 
z
M 52.203125 31.203125 
L 52.203125 0 
L 43.21875 0 
L 43.21875 8.296875 
Q 40.140625 3.328125 35.546875 0.953125 
Q 30.953125 -1.421875 24.3125 -1.421875 
Q 15.921875 -1.421875 10.953125 3.296875 
Q 6 8.015625 6 15.921875 
Q 6 25.140625 12.171875 29.828125 
Q 18.359375 34.515625 30.609375 34.515625 
L 43.21875 34.515625 
L 43.21875 35.40625 
Q 43.21875 41.609375 39.140625 45 
Q 35.0625 48.390625 27.6875 48.390625 
Q 23 48.390625 18.546875 47.265625 
Q 14.109375 46.140625 10.015625 43.890625 
L 10.015625 52.203125 
Q 14.9375 54.109375 19.578125 55.046875 
Q 24.21875 56 28.609375 56 
Q 40.484375 56 46.34375 49.84375 
Q 52.203125 43.703125 52.203125 31.203125 
" id="BitstreamVeraSans-Roman-61"/>
      <path d="M 30.609375 48.390625 
Q 23.390625 48.390625 19.1875 42.75 
Q 14.984375 37.109375 14.984375 27.296875 
Q 14.984375 17.484375 19.15625 11.84375 
Q 23.34375 6.203125 30.609375 6.203125 
Q 37.796875 6.203125 41.984375 11.859375 
Q 46.1875 17.53125 46.1875 27.296875 
Q 46.1875 37.015625 41.984375 42.703125 
Q 37.796875 48.390625 30.609375 48.390625 
M 30.609375 56 
Q 42.328125 56 49.015625 48.375 
Q 55.71875 40.765625 55.71875 27.296875 
Q 55.71875 13.875 49.015625 6.21875 
Q 42.328125 -1.421875 30.609375 -1.421875 
Q 18.84375 -1.421875 12.171875 6.21875 
Q 5.515625 13.875 5.515625 27.296875 
Q 5.515625 40.765625 12.171875 48.375 
Q 18.84375 56 30.609375 56 
" id="BitstreamVeraSans-Roman-6f"/>
      <path d="M 9.421875 54.6875 
L 18.40625 54.6875 
L 18.40625 0 
L 9.421875 0 
z
M 9.421875 75.984375 
L 18.40625 75.984375 
L 18.40625 64.59375 
L 9.421875 64.59375 
z
" id="BitstreamVeraSans-Roman-69"/>
      <path d="M 56.203125 29.59375 
L 56.203125 25.203125 
L 14.890625 25.203125 
Q 15.484375 15.921875 20.484375 11.0625 
Q 25.484375 6.203125 34.421875 6.203125 
Q 39.59375 6.203125 44.453125 7.46875 
Q 49.3125 8.734375 54.109375 11.28125 
L 54.109375 2.78125 
Q 49.265625 0.734375 44.1875 -0.34375 
Q 39.109375 -1.421875 33.890625 -1.421875 
Q 20.796875 -1.421875 13.15625 6.1875 
Q 5.515625 13.8125 5.515625 26.8125 
Q 5.515625 40.234375 12.765625 48.109375 
Q 20.015625 56 32.328125 56 
Q 43.359375 56 49.78125 48.890625 
Q 56.203125 41.796875 56.203125 29.59375 
M 47.21875 32.234375 
Q 47.125 39.59375 43.09375 43.984375 
Q 39.0625 48.390625 32.421875 48.390625 
Q 24.90625 48.390625 20.390625 44.140625 
Q 15.875 39.890625 15.1875 32.171875 
z
" id="BitstreamVeraSans-Roman-65"/>
      <path d="M 18.3125 70.21875 
L 18.3125 54.6875 
L 36.8125 54.6875 
L 36.8125 47.703125 
L 18.3125 47.703125 
L 18.3125 18.015625 
Q 18.3125 11.328125 20.140625 9.421875 
Q 21.96875 7.515625 27.59375 7.515625 
L 36.8125 7.515625 
L 36.8125 0 
L 27.59375 0 
Q 17.1875 0 13.234375 3.875 
Q 9.28125 7.765625 9.28125 18.015625 
L 9.28125 47.703125 
L 2.6875 47.703125 
L 2.6875 54.6875 
L 9.28125 54.6875 
L 9.28125 70.21875 
z
" id="BitstreamVeraSans-Roman-74"/>
      <path d="M 41.109375 46.296875 
Q 39.59375 47.171875 37.8125 47.578125 
Q 36.03125 48 33.890625 48 
Q 26.265625 48 22.1875 43.046875 
Q 18.109375 38.09375 18.109375 28.8125 
L 18.109375 0 
L 9.078125 0 
L 9.078125 54.6875 
L 18.109375 54.6875 
L 18.109375 46.1875 
Q 20.953125 51.171875 25.484375 53.578125 
Q 30.03125 56 36.53125 56 
Q 37.453125 56 38.578125 55.875 
Q 39.703125 55.765625 41.0625 55.515625 
z
" id="BitstreamVeraSans-Roman-72"/>
      <path d="M 44.28125 53.078125 
L 44.28125 44.578125 
Q 40.484375 46.53125 36.375 47.5 
Q 32.28125 48.484375 27.875 48.484375 
Q 21.1875 48.484375 17.84375 46.4375 
Q 14.5 44.390625 14.5 40.28125 
Q 14.5 37.15625 16.890625 35.375 
Q 19.28125 33.59375 26.515625 31.984375 
L 29.59375 31.296875 
Q 39.15625 29.25 43.1875 25.515625 
Q 47.21875 21.78125 47.21875 15.09375 
Q 47.21875 7.46875 41.1875 3.015625 
Q 35.15625 -1.421875 24.609375 -1.421875 
Q 20.21875 -1.421875 15.453125 -0.5625 
Q 10.6875 0.296875 5.421875 2 
L 5.421875 11.28125 
Q 10.40625 8.6875 15.234375 7.390625 
Q 20.0625 6.109375 24.8125 6.109375 
Q 31.15625 6.109375 34.5625 8.28125 
Q 37.984375 10.453125 37.984375 14.40625 
Q 37.984375 18.0625 35.515625 20.015625 
Q 33.0625 21.96875 24.703125 23.78125 
L 21.578125 24.515625 
Q 13.234375 26.265625 9.515625 29.90625 
Q 5.8125 33.546875 5.8125 39.890625 
Q 5.8125 47.609375 11.28125 51.796875 
Q 16.75 56 26.8125 56 
Q 31.78125 56 36.171875 55.265625 
Q 40.578125 54.546875 44.28125 53.078125 
" id="BitstreamVeraSans-Roman-73"/>
     </defs>
     <g transform="translate(662.130546875 831.1678125)scale(0.3 -0.3)">
      <use xlink:href="#BitstreamVeraSans-Roman-69"/>
      <use x="27.783203125" xlink:href="#BitstreamVeraSans-Roman-74"/>
      <use x="66.9921875" xlink:href="#BitstreamVeraSans-Roman-65"/>
      <use x="128.515625" xlink:href="#BitstreamVeraSans-Roman-72"/>
      <use x="169.62890625" xlink:href="#BitstreamVeraSans-Roman-61"/>
      <use x="230.908203125" xlink:href="#BitstreamVeraSans-Roman-74"/>
      <use x="270.1171875" xlink:href="#BitstreamVeraSans-Roman-69"/>
      <use x="297.900390625" xlink:href="#BitstreamVeraSans-Roman-6f"/>
      <use x="359.08203125" xlink:href="#BitstreamVeraSans-Roman-6e"/>
      <use x="422.4609375" xlink:href="#BitstreamVeraSans-Roman-73"/>
     </g>
    </g>
   </g>
   <g id="matplotlib.axis_2">
    <g id="ytick_1">
     <g id="line2d_15">
      <defs>
       <path d="M 0 0 
L 4 0 
" id="m3db08bc79a" style="stroke:#000000;stroke-width:0.5;"/>
      </defs>
      <g>
       <use style="stroke:#000000;stroke-width:0.5;" x="93.38265625" xlink:href="#m3db08bc79a" y="770.338125"/>
      </g>
     </g>
     <g id="line2d_16">
      <defs>
       <path d="M 0 0 
L -4 0 
" id="m56dff16f8a" style="stroke:#000000;stroke-width:0.5;"/>
      </defs>
      <g>
       <use style="stroke:#000000;stroke-width:0.5;" x="1373.2425" xlink:href="#m56dff16f8a" y="770.338125"/>
      </g>
     </g>
     <g id="text_8">
      <!-- 60 -->
      <defs>
       <path d="M 10.59375 35.5 
L 73.1875 35.5 
L 73.1875 27.203125 
L 10.59375 27.203125 
z
" id="BitstreamVeraSans-Roman-2212"/>
      </defs>
      <g transform="translate(26.06859375 778.61625)scale(0.3 -0.3)">
       <use xlink:href="#BitstreamVeraSans-Roman-2212"/>
       <use x="83.7890625" xlink:href="#BitstreamVeraSans-Roman-36"/>
       <use x="147.412109375" xlink:href="#BitstreamVeraSans-Roman-30"/>
      </g>
     </g>
    </g>
    <g id="ytick_2">
     <g id="line2d_17">
      <g>
       <use style="stroke:#000000;stroke-width:0.5;" x="93.38265625" xlink:href="#m3db08bc79a" y="681.285332031"/>
      </g>
     </g>
     <g id="line2d_18">
      <g>
       <use style="stroke:#000000;stroke-width:0.5;" x="1373.2425" xlink:href="#m56dff16f8a" y="681.285332031"/>
      </g>
     </g>
     <g id="text_9">
      <!-- 50 -->
      <defs>
       <path d="M 10.796875 72.90625 
L 49.515625 72.90625 
L 49.515625 64.59375 
L 19.828125 64.59375 
L 19.828125 46.734375 
Q 21.96875 47.46875 24.109375 47.828125 
Q 26.265625 48.1875 28.421875 48.1875 
Q 40.625 48.1875 47.75 41.5 
Q 54.890625 34.8125 54.890625 23.390625 
Q 54.890625 11.625 47.5625 5.09375 
Q 40.234375 -1.421875 26.90625 -1.421875 
Q 22.3125 -1.421875 17.546875 -0.640625 
Q 12.796875 0.140625 7.71875 1.703125 
L 7.71875 11.625 
Q 12.109375 9.234375 16.796875 8.0625 
Q 21.484375 6.890625 26.703125 6.890625 
Q 35.15625 6.890625 40.078125 11.328125 
Q 45.015625 15.765625 45.015625 23.390625 
Q 45.015625 31 40.078125 35.4375 
Q 35.15625 39.890625 26.703125 39.890625 
Q 22.75 39.890625 18.8125 39.015625 
Q 14.890625 38.140625 10.796875 36.28125 
z
" id="BitstreamVeraSans-Roman-35"/>
      </defs>
      <g transform="translate(26.06859375 689.563457031)scale(0.3 -0.3)">
       <use xlink:href="#BitstreamVeraSans-Roman-2212"/>
       <use x="83.7890625" xlink:href="#BitstreamVeraSans-Roman-35"/>
       <use x="147.412109375" xlink:href="#BitstreamVeraSans-Roman-30"/>
      </g>
     </g>
    </g>
    <g id="ytick_3">
     <g id="line2d_19">
      <g>
       <use style="stroke:#000000;stroke-width:0.5;" x="93.38265625" xlink:href="#m3db08bc79a" y="592.232539062"/>
      </g>
     </g>
     <g id="line2d_20">
      <g>
       <use style="stroke:#000000;stroke-width:0.5;" x="1373.2425" xlink:href="#m56dff16f8a" y="592.232539062"/>
      </g>
     </g>
     <g id="text_10">
      <!-- 40 -->
      <g transform="translate(26.06859375 600.510664062)scale(0.3 -0.3)">
       <use xlink:href="#BitstreamVeraSans-Roman-2212"/>
       <use x="83.7890625" xlink:href="#BitstreamVeraSans-Roman-34"/>
       <use x="147.412109375" xlink:href="#BitstreamVeraSans-Roman-30"/>
      </g>
     </g>
    </g>
    <g id="ytick_4">
     <g id="line2d_21">
      <g>
       <use style="stroke:#000000;stroke-width:0.5;" x="93.38265625" xlink:href="#m3db08bc79a" y="503.179746094"/>
      </g>
     </g>
     <g id="line2d_22">
      <g>
       <use style="stroke:#000000;stroke-width:0.5;" x="1373.2425" xlink:href="#m56dff16f8a" y="503.179746094"/>
      </g>
     </g>
     <g id="text_11">
      <!-- 30 -->
      <defs>
       <path d="M 40.578125 39.3125 
Q 47.65625 37.796875 51.625 33 
Q 55.609375 28.21875 55.609375 21.1875 
Q 55.609375 10.40625 48.1875 4.484375 
Q 40.765625 -1.421875 27.09375 -1.421875 
Q 22.515625 -1.421875 17.65625 -0.515625 
Q 12.796875 0.390625 7.625 2.203125 
L 7.625 11.71875 
Q 11.71875 9.328125 16.59375 8.109375 
Q 21.484375 6.890625 26.8125 6.890625 
Q 36.078125 6.890625 40.9375 10.546875 
Q 45.796875 14.203125 45.796875 21.1875 
Q 45.796875 27.640625 41.28125 31.265625 
Q 36.765625 34.90625 28.71875 34.90625 
L 20.21875 34.90625 
L 20.21875 43.015625 
L 29.109375 43.015625 
Q 36.375 43.015625 40.234375 45.921875 
Q 44.09375 48.828125 44.09375 54.296875 
Q 44.09375 59.90625 40.109375 62.90625 
Q 36.140625 65.921875 28.71875 65.921875 
Q 24.65625 65.921875 20.015625 65.03125 
Q 15.375 64.15625 9.8125 62.3125 
L 9.8125 71.09375 
Q 15.4375 72.65625 20.34375 73.4375 
Q 25.25 74.21875 29.59375 74.21875 
Q 40.828125 74.21875 47.359375 69.109375 
Q 53.90625 64.015625 53.90625 55.328125 
Q 53.90625 49.265625 50.4375 45.09375 
Q 46.96875 40.921875 40.578125 39.3125 
" id="BitstreamVeraSans-Roman-33"/>
      </defs>
      <g transform="translate(26.06859375 511.457871094)scale(0.3 -0.3)">
       <use xlink:href="#BitstreamVeraSans-Roman-2212"/>
       <use x="83.7890625" xlink:href="#BitstreamVeraSans-Roman-33"/>
       <use x="147.412109375" xlink:href="#BitstreamVeraSans-Roman-30"/>
      </g>
     </g>
    </g>
    <g id="ytick_5">
     <g id="line2d_23">
      <g>
       <use style="stroke:#000000;stroke-width:0.5;" x="93.38265625" xlink:href="#m3db08bc79a" y="414.126953125"/>
      </g>
     </g>
     <g id="line2d_24">
      <g>
       <use style="stroke:#000000;stroke-width:0.5;" x="1373.2425" xlink:href="#m56dff16f8a" y="414.126953125"/>
      </g>
     </g>
     <g id="text_12">
      <!-- 20 -->
      <g transform="translate(26.06859375 422.405078125)scale(0.3 -0.3)">
       <use xlink:href="#BitstreamVeraSans-Roman-2212"/>
       <use x="83.7890625" xlink:href="#BitstreamVeraSans-Roman-32"/>
       <use x="147.412109375" xlink:href="#BitstreamVeraSans-Roman-30"/>
      </g>
     </g>
    </g>
    <g id="ytick_6">
     <g id="line2d_25">
      <g>
       <use style="stroke:#000000;stroke-width:0.5;" x="93.38265625" xlink:href="#m3db08bc79a" y="325.074160156"/>
      </g>
     </g>
     <g id="line2d_26">
      <g>
       <use style="stroke:#000000;stroke-width:0.5;" x="1373.2425" xlink:href="#m56dff16f8a" y="325.074160156"/>
      </g>
     </g>
     <g id="text_13">
      <!-- 10 -->
      <g transform="translate(26.06859375 333.352285156)scale(0.3 -0.3)">
       <use xlink:href="#BitstreamVeraSans-Roman-2212"/>
       <use x="83.7890625" xlink:href="#BitstreamVeraSans-Roman-31"/>
       <use x="147.412109375" xlink:href="#BitstreamVeraSans-Roman-30"/>
      </g>
     </g>
    </g>
    <g id="ytick_7">
     <g id="line2d_27">
      <g>
       <use style="stroke:#000000;stroke-width:0.5;" x="93.38265625" xlink:href="#m3db08bc79a" y="236.021367188"/>
      </g>
     </g>
     <g id="line2d_28">
      <g>
       <use style="stroke:#000000;stroke-width:0.5;" x="1373.2425" xlink:href="#m56dff16f8a" y="236.021367188"/>
      </g>
     </g>
     <g id="text_14">
      <!-- 0 -->
      <g transform="translate(70.29515625 244.299492188)scale(0.3 -0.3)">
       <use xlink:href="#BitstreamVeraSans-Roman-30"/>
      </g>
     </g>
    </g>
    <g id="ytick_8">
     <g id="line2d_29">
      <g>
       <use style="stroke:#000000;stroke-width:0.5;" x="93.38265625" xlink:href="#m3db08bc79a" y="146.968574219"/>
      </g>
     </g>
     <g id="line2d_30">
      <g>
       <use style="stroke:#000000;stroke-width:0.5;" x="1373.2425" xlink:href="#m56dff16f8a" y="146.968574219"/>
      </g>
     </g>
     <g id="text_15">
      <!-- 10 -->
      <g transform="translate(51.20765625 155.246699219)scale(0.3 -0.3)">
       <use xlink:href="#BitstreamVeraSans-Roman-31"/>
       <use x="63.623046875" xlink:href="#BitstreamVeraSans-Roman-30"/>
      </g>
     </g>
    </g>
    <g id="ytick_9">
     <g id="line2d_31">
      <g>
       <use style="stroke:#000000;stroke-width:0.5;" x="93.38265625" xlink:href="#m3db08bc79a" y="57.91578125"/>
      </g>
     </g>
     <g id="line2d_32">
      <g>
       <use style="stroke:#000000;stroke-width:0.5;" x="1373.2425" xlink:href="#m56dff16f8a" y="57.91578125"/>
      </g>
     </g>
     <g id="text_16">
      <!-- 20 -->
      <g transform="translate(51.20765625 66.19390625)scale(0.3 -0.3)">
       <use xlink:href="#BitstreamVeraSans-Roman-32"/>
       <use x="63.623046875" xlink:href="#BitstreamVeraSans-Roman-30"/>
      </g>
     </g>
    </g>
   </g>
   <g id="text_17">
    <!-- log(loss) -->
    <defs>
     <path d="M 8.015625 75.875 
L 15.828125 75.875 
Q 23.140625 64.359375 26.78125 53.3125 
Q 30.421875 42.28125 30.421875 31.390625 
Q 30.421875 20.453125 26.78125 9.375 
Q 23.140625 -1.703125 15.828125 -13.1875 
L 8.015625 -13.1875 
Q 14.5 -2 17.703125 9.0625 
Q 20.90625 20.125 20.90625 31.390625 
Q 20.90625 42.671875 17.703125 53.65625 
Q 14.5 64.65625 8.015625 75.875 
" id="BitstreamVeraSans-Roman-29"/>
     <path d="M 31 75.875 
Q 24.46875 64.65625 21.28125 53.65625 
Q 18.109375 42.671875 18.109375 31.390625 
Q 18.109375 20.125 21.3125 9.0625 
Q 24.515625 -2 31 -13.1875 
L 23.1875 -13.1875 
Q 15.875 -1.703125 12.234375 9.375 
Q 8.59375 20.453125 8.59375 31.390625 
Q 8.59375 42.28125 12.203125 53.3125 
Q 15.828125 64.359375 23.1875 75.875 
z
" id="BitstreamVeraSans-Roman-28"/>
     <path d="M 45.40625 27.984375 
Q 45.40625 37.75 41.375 43.109375 
Q 37.359375 48.484375 30.078125 48.484375 
Q 22.859375 48.484375 18.828125 43.109375 
Q 14.796875 37.75 14.796875 27.984375 
Q 14.796875 18.265625 18.828125 12.890625 
Q 22.859375 7.515625 30.078125 7.515625 
Q 37.359375 7.515625 41.375 12.890625 
Q 45.40625 18.265625 45.40625 27.984375 
M 54.390625 6.78125 
Q 54.390625 -7.171875 48.1875 -13.984375 
Q 42 -20.796875 29.203125 -20.796875 
Q 24.46875 -20.796875 20.265625 -20.09375 
Q 16.0625 -19.390625 12.109375 -17.921875 
L 12.109375 -9.1875 
Q 16.0625 -11.328125 19.921875 -12.34375 
Q 23.78125 -13.375 27.78125 -13.375 
Q 36.625 -13.375 41.015625 -8.765625 
Q 45.40625 -4.15625 45.40625 5.171875 
L 45.40625 9.625 
Q 42.625 4.78125 38.28125 2.390625 
Q 33.9375 0 27.875 0 
Q 17.828125 0 11.671875 7.65625 
Q 5.515625 15.328125 5.515625 27.984375 
Q 5.515625 40.671875 11.671875 48.328125 
Q 17.828125 56 27.875 56 
Q 33.9375 56 38.28125 53.609375 
Q 42.625 51.21875 45.40625 46.390625 
L 45.40625 54.6875 
L 54.390625 54.6875 
z
" id="BitstreamVeraSans-Roman-67"/>
     <path d="M 9.421875 75.984375 
L 18.40625 75.984375 
L 18.40625 0 
L 9.421875 0 
z
" id="BitstreamVeraSans-Roman-6c"/>
    </defs>
    <g transform="translate(669.766484375 52.91578125)scale(0.3 -0.3)">
     <use xlink:href="#BitstreamVeraSans-Roman-6c"/>
     <use x="27.783203125" xlink:href="#BitstreamVeraSans-Roman-6f"/>
     <use x="88.96484375" xlink:href="#BitstreamVeraSans-Roman-67"/>
     <use x="152.44140625" xlink:href="#BitstreamVeraSans-Roman-28"/>
     <use x="191.455078125" xlink:href="#BitstreamVeraSans-Roman-6c"/>
     <use x="219.23828125" xlink:href="#BitstreamVeraSans-Roman-6f"/>
     <use x="280.419921875" xlink:href="#BitstreamVeraSans-Roman-73"/>
     <use x="332.51953125" xlink:href="#BitstreamVeraSans-Roman-73"/>
     <use x="384.619140625" xlink:href="#BitstreamVeraSans-Roman-29"/>
    </g>
   </g>
   <g id="legend_1">
    <g id="patch_7">
     <path d="M 1133.889375 169.984531 
L 1358.2425 169.984531 
L 1358.2425 72.915781 
L 1133.889375 72.915781 
z
" style="fill:#ffffff;stroke:#000000;stroke-linejoin:miter;"/>
    </g>
    <g id="line2d_33">
     <path d="M 1154.889375 97.211094 
L 1196.889375 97.211094 
" style="fill:none;stroke:#0000ff;stroke-linecap:square;stroke-width:2.0;"/>
    </g>
    <g id="line2d_34"/>
    <g id="text_18">
     <!-- random -->
     <defs>
      <path d="M 45.40625 46.390625 
L 45.40625 75.984375 
L 54.390625 75.984375 
L 54.390625 0 
L 45.40625 0 
L 45.40625 8.203125 
Q 42.578125 3.328125 38.25 0.953125 
Q 33.9375 -1.421875 27.875 -1.421875 
Q 17.96875 -1.421875 11.734375 6.484375 
Q 5.515625 14.40625 5.515625 27.296875 
Q 5.515625 40.1875 11.734375 48.09375 
Q 17.96875 56 27.875 56 
Q 33.9375 56 38.25 53.625 
Q 42.578125 51.265625 45.40625 46.390625 
M 14.796875 27.296875 
Q 14.796875 17.390625 18.875 11.75 
Q 22.953125 6.109375 30.078125 6.109375 
Q 37.203125 6.109375 41.296875 11.75 
Q 45.40625 17.390625 45.40625 27.296875 
Q 45.40625 37.203125 41.296875 42.84375 
Q 37.203125 48.484375 30.078125 48.484375 
Q 22.953125 48.484375 18.875 42.84375 
Q 14.796875 37.203125 14.796875 27.296875 
" id="BitstreamVeraSans-Roman-64"/>
      <path d="M 52 44.1875 
Q 55.375 50.25 60.0625 53.125 
Q 64.75 56 71.09375 56 
Q 79.640625 56 84.28125 50.015625 
Q 88.921875 44.046875 88.921875 33.015625 
L 88.921875 0 
L 79.890625 0 
L 79.890625 32.71875 
Q 79.890625 40.578125 77.09375 44.375 
Q 74.3125 48.1875 68.609375 48.1875 
Q 61.625 48.1875 57.5625 43.546875 
Q 53.515625 38.921875 53.515625 30.90625 
L 53.515625 0 
L 44.484375 0 
L 44.484375 32.71875 
Q 44.484375 40.625 41.703125 44.40625 
Q 38.921875 48.1875 33.109375 48.1875 
Q 26.21875 48.1875 22.15625 43.53125 
Q 18.109375 38.875 18.109375 30.90625 
L 18.109375 0 
L 9.078125 0 
L 9.078125 54.6875 
L 18.109375 54.6875 
L 18.109375 46.1875 
Q 21.1875 51.21875 25.484375 53.609375 
Q 29.78125 56 35.6875 56 
Q 41.65625 56 45.828125 52.96875 
Q 50 49.953125 52 44.1875 
" id="BitstreamVeraSans-Roman-6d"/>
     </defs>
     <g transform="translate(1229.889375 107.71109375)scale(0.3 -0.3)">
      <use xlink:href="#BitstreamVeraSans-Roman-72"/>
      <use x="41.11328125" xlink:href="#BitstreamVeraSans-Roman-61"/>
      <use x="102.392578125" xlink:href="#BitstreamVeraSans-Roman-6e"/>
      <use x="165.771484375" xlink:href="#BitstreamVeraSans-Roman-64"/>
      <use x="229.248046875" xlink:href="#BitstreamVeraSans-Roman-6f"/>
      <use x="290.4296875" xlink:href="#BitstreamVeraSans-Roman-6d"/>
     </g>
    </g>
    <g id="line2d_35">
     <path d="M 1154.889375 141.245469 
L 1196.889375 141.245469 
" style="fill:none;stroke:#008000;stroke-linecap:square;stroke-width:2.0;"/>
    </g>
    <g id="line2d_36"/>
    <g id="text_19">
     <!-- corr -->
     <defs>
      <path d="M 48.78125 52.59375 
L 48.78125 44.1875 
Q 44.96875 46.296875 41.140625 47.34375 
Q 37.3125 48.390625 33.40625 48.390625 
Q 24.65625 48.390625 19.8125 42.84375 
Q 14.984375 37.3125 14.984375 27.296875 
Q 14.984375 17.28125 19.8125 11.734375 
Q 24.65625 6.203125 33.40625 6.203125 
Q 37.3125 6.203125 41.140625 7.25 
Q 44.96875 8.296875 48.78125 10.40625 
L 48.78125 2.09375 
Q 45.015625 0.34375 40.984375 -0.53125 
Q 36.96875 -1.421875 32.421875 -1.421875 
Q 20.0625 -1.421875 12.78125 6.34375 
Q 5.515625 14.109375 5.515625 27.296875 
Q 5.515625 40.671875 12.859375 48.328125 
Q 20.21875 56 33.015625 56 
Q 37.15625 56 41.109375 55.140625 
Q 45.0625 54.296875 48.78125 52.59375 
" id="BitstreamVeraSans-Roman-63"/>
     </defs>
     <g transform="translate(1229.889375 151.74546875)scale(0.3 -0.3)">
      <use xlink:href="#BitstreamVeraSans-Roman-63"/>
      <use x="54.98046875" xlink:href="#BitstreamVeraSans-Roman-6f"/>
      <use x="116.162109375" xlink:href="#BitstreamVeraSans-Roman-72"/>
      <use x="157.259765625" xlink:href="#BitstreamVeraSans-Roman-72"/>
     </g>
    </g>
   </g>
  </g>
 </g>
 <defs>
  <clipPath id="p1b707e7d1d">
   <rect height="712.42234375" width="1279.85984375" x="93.38265625" y="57.91578125"/>
  </clipPath>
 </defs>
</svg>
