<?xml version="1.0" encoding="utf-8" standalone="no"?>
<!DOCTYPE svg PUBLIC "-//W3C//DTD SVG 1.1//EN"
  "http://www.w3.org/Graphics/SVG/1.1/DTD/svg11.dtd">
<!-- Created with matplotlib (http://matplotlib.org/) -->
<svg height="864pt" version="1.1" viewBox="0 0 1440 864" width="1440pt" xmlns="http://www.w3.org/2000/svg" xmlns:xlink="http://www.w3.org/1999/xlink">
 <defs>
  <style type="text/css">
*{stroke-linecap:butt;stroke-linejoin:round;stroke-miterlimit:100000;}
  </style>
 </defs>
 <g id="figure_1">
  <g id="patch_1">
   <path d="M 0 864 
L 1440 864 
L 1440 0 
L 0 0 
z
" style="fill:#ffffff;"/>
  </g>
  <g id="axes_1">
   <g id="patch_2">
    <path d="M 158.4 747 
L 1371.825 747 
L 1371.825 51.3 
L 158.4 51.3 
z
" style="fill:#ffffff;"/>
   </g>
   <g id="line2d_1">
    <path clip-path="url(#pfcc003c366)" d="M 158.4 124.326074 
L 160.82685 127.53376 
L 163.2537 130.646532 
L 165.68055 135.467289 
L 168.1074 138.710913 
L 172.9611 146.910531 
L 175.38795 149.769653 
L 177.8148 151.779509 
L 180.24165 155.498599 
L 182.6685 158.216807 
L 185.09535 161.848992 
L 187.5222 165.243726 
L 189.94905 168.244943 
L 199.65645 182.822987 
L 202.0833 186.271605 
L 204.51015 189.481717 
L 206.937 193.451454 
L 209.36385 196.917212 
L 211.7907 200.009903 
L 214.21755 202.352603 
L 219.07125 210.347984 
L 221.4981 213.457282 
L 223.92495 216.293061 
L 226.3518 218.745631 
L 228.77865 222.214391 
L 231.2055 224.866902 
L 233.63235 228.502027 
L 236.0592 230.565846 
L 240.9129 236.040498 
L 243.33975 239.095747 
L 245.7666 241.80461 
L 248.19345 244.931747 
L 255.474 255.349047 
L 257.90085 258.483536 
L 260.3277 263.06895 
L 265.1814 269.171611 
L 267.60825 271.855191 
L 270.0351 274.954683 
L 272.46195 277.226602 
L 274.8888 280.129011 
L 277.31565 283.624063 
L 279.7425 287.797696 
L 282.16935 291.145156 
L 284.5962 293.54984 
L 287.02305 296.759547 
L 291.87675 302.611157 
L 294.3036 305.686613 
L 296.73045 309.504989 
L 299.1573 312.674757 
L 304.011 316.919687 
L 306.43785 320.196512 
L 308.8647 323.871867 
L 311.29155 327.334326 
L 313.7184 330.383721 
L 316.14525 333.857821 
L 318.5721 336.465013 
L 320.99895 339.498023 
L 323.4258 342.280207 
L 325.85265 346.028003 
L 328.2795 348.191051 
L 330.70635 351.74916 
L 333.1332 356.165885 
L 335.56005 358.840149 
L 337.9869 361.993894 
L 340.41375 364.490264 
L 342.8406 368.022667 
L 345.26745 370.856901 
L 347.6943 374.054707 
L 350.12115 376.768159 
L 369.53595 400.361657 
L 371.9628 404.15354 
L 374.38965 407.126856 
L 376.8165 409.815122 
L 379.24335 412.929837 
L 381.6702 416.59956 
L 384.09705 420.041872 
L 386.5239 422.771611 
L 388.95075 425.69601 
L 391.3776 427.752203 
L 393.80445 431.213254 
L 396.2313 434.112215 
L 398.65815 437.526806 
L 401.085 440.416486 
L 403.51185 443.535956 
L 408.36555 449.028301 
L 410.7924 451.3255 
L 413.21925 453.840005 
L 418.07295 459.409855 
L 420.4998 463.037206 
L 422.92665 466.169895 
L 430.2072 474.30144 
L 432.63405 477.203232 
L 435.0609 479.921731 
L 439.9146 486.123017 
L 444.7683 491.74639 
L 447.19515 494.761121 
L 449.622 497.273245 
L 452.04885 500.030858 
L 454.4757 503.001393 
L 456.90255 507.38198 
L 459.3294 510.914705 
L 461.75625 513.422574 
L 464.1831 517.382697 
L 469.0368 523.786625 
L 471.46365 526.198799 
L 473.8905 528.773673 
L 476.31735 532.057607 
L 478.7442 534.938052 
L 481.17105 538.482071 
L 483.5979 540.9336 
L 486.02475 544.731833 
L 493.3053 555.232655 
L 495.73215 557.507594 
L 498.159 561.130002 
L 500.58585 564.035724 
L 503.0127 567.497852 
L 505.43955 571.332505 
L 507.8664 574.426036 
L 510.29325 577.304368 
L 512.7201 581.199051 
L 515.14695 583.878779 
L 520.00065 591.977708 
L 529.70805 602.388619 
L 532.1349 605.377942 
L 534.56175 608.754178 
L 536.9886 611.387167 
L 539.41545 614.964924 
L 544.26915 620.255754 
L 546.696 623.826297 
L 549.12285 626.107873 
L 551.5497 629.47032 
L 553.97655 631.960914 
L 556.4034 634.097217 
L 558.83025 637.303902 
L 561.2571 639.553727 
L 566.1108 646.163777 
L 568.53765 649.274882 
L 570.9645 652.691559 
L 573.39135 655.168088 
L 575.8182 657.849774 
L 578.24505 661.656046 
L 583.09875 667.666046 
L 585.5256 670.287232 
L 587.95245 673.284492 
L 592.80615 678.701957 
L 595.233 681.039627 
L 600.0867 688.353025 
L 602.51355 690.609205 
L 607.36725 695.877333 
L 609.7941 697.846498 
L 612.22095 700.207725 
L 617.07465 705.675174 
L 619.5015 708.720919 
L 621.92835 710.825863 
L 624.3552 713.541598 
L 629.2089 719.580293 
L 631.63575 721.305483 
L 636.48945 724.427278 
L 641.34315 728.65758 
L 646.19685 731.50262 
L 648.6237 731.883076 
L 651.05055 732.497884 
L 653.4774 733.83252 
L 655.90425 734.815409 
L 658.3311 735.206476 
L 660.75795 736.135407 
L 663.1848 735.682057 
L 665.61165 735.782979 
L 670.46535 736.41799 
L 672.8922 736.161153 
L 675.31905 736.016373 
L 677.7459 736.627808 
L 680.17275 736.808649 
L 682.5996 737.157314 
L 685.02645 737.084649 
L 687.4533 736.573733 
L 689.88015 736.872658 
L 692.307 736.530857 
L 694.73385 737.429182 
L 697.1607 736.927411 
L 699.58755 737.616046 
L 702.0144 736.907061 
L 706.8681 737.066383 
L 709.29495 736.785714 
L 711.7218 736.882546 
L 714.14865 736.845193 
L 716.5755 735.977897 
L 719.00235 735.533723 
L 721.4292 735.350962 
L 723.85605 736.242253 
L 728.70975 736.120995 
L 731.1366 736.457371 
L 735.9903 735.048997 
L 738.41715 735.827778 
L 740.844 735.418779 
L 743.27085 735.140443 
L 745.6977 735.301332 
L 750.5514 735.801248 
L 752.97825 736.853616 
L 755.4051 737.165448 
L 757.83195 738.029861 
L 760.2588 738.351351 
L 762.68565 737.934706 
L 765.1125 736.838372 
L 767.53935 736.528617 
L 769.9662 737.800129 
L 772.39305 736.713125 
L 774.8199 736.742571 
L 777.24675 737.014779 
L 779.6736 736.685671 
L 782.10045 735.460408 
L 786.95415 735.020365 
L 789.381 736.39874 
L 791.80785 736.205347 
L 794.2347 736.403528 
L 796.66155 737.249613 
L 801.51525 736.52929 
L 803.9421 737.852256 
L 806.36895 738.403358 
L 808.7958 737.719646 
L 811.22265 737.693147 
L 813.6495 736.453073 
L 816.07635 735.616317 
L 818.5032 735.48755 
L 820.93005 735.592088 
L 823.3569 735.186237 
L 825.78375 735.540139 
L 828.2106 735.696363 
L 830.63745 736.050727 
L 835.49115 736.297981 
L 837.918 736.049207 
L 840.34485 736.181457 
L 842.7717 736.631383 
L 845.19855 736.164889 
L 847.6254 735.962454 
L 850.05225 736.485796 
L 852.4791 736.533506 
L 854.90595 736.888949 
L 857.3328 736.864111 
L 859.75965 738.97504 
L 862.1865 739.280605 
L 864.61335 739.100706 
L 867.0402 737.014369 
L 869.46705 736.639214 
L 871.8939 736.513895 
L 874.32075 737.05603 
L 876.7476 735.919929 
L 879.17445 736.258759 
L 881.6013 735.569689 
L 884.02815 736.20868 
L 886.455 737.45346 
L 888.88185 737.613538 
L 891.3087 736.513283 
L 893.73555 737.361376 
L 896.1624 736.646694 
L 898.58925 733.449029 
L 901.0161 733.918794 
L 903.44295 734.923652 
L 905.8698 735.513999 
L 910.7235 736.956955 
L 913.15035 736.22346 
L 915.5772 735.919096 
L 920.4309 735.973827 
L 922.85775 735.346408 
L 925.2846 735.389664 
L 927.71145 736.073112 
L 930.1383 736.621706 
L 932.56515 736.60891 
L 934.992 736.41012 
L 937.41885 736.470647 
L 939.8457 736.887468 
L 942.27255 736.243885 
L 944.6994 736.227738 
L 947.12625 736.709712 
L 949.5531 736.583461 
L 951.97995 736.677327 
L 954.4068 737.65396 
L 956.83365 737.880129 
L 961.68735 736.398544 
L 964.1142 737.15402 
L 966.54105 737.127907 
L 968.9679 737.447895 
L 971.39475 738.019806 
L 973.8216 736.545822 
L 976.24845 736.403881 
L 978.6753 736.719563 
L 981.10215 736.199463 
L 983.529 735.921221 
L 985.95585 736.316945 
L 988.3827 737.393539 
L 990.80955 736.281985 
L 993.2364 736.943584 
L 995.66325 736.747543 
L 998.0901 735.752754 
L 1000.51695 736.500713 
L 1002.9438 735.790974 
L 1007.7975 737.81521 
L 1010.22435 736.71633 
L 1012.6512 736.558343 
L 1017.5049 737.482688 
L 1019.93175 737.223051 
L 1022.3586 737.356617 
L 1024.78545 737.266148 
L 1027.2123 736.835631 
L 1029.63915 735.940911 
L 1032.066 736.023222 
L 1036.9197 736.687909 
L 1039.34655 736.112489 
L 1041.7734 736.695051 
L 1044.20025 736.801287 
L 1046.6271 737.050642 
L 1051.4808 736.64066 
L 1053.90765 737.724697 
L 1056.3345 737.462798 
L 1058.76135 738.526348 
L 1061.1882 736.173132 
L 1063.61505 736.162395 
L 1066.0419 736.872447 
L 1068.46875 736.91252 
L 1070.8956 736.602653 
L 1073.32245 737.138499 
L 1075.7493 736.465837 
L 1078.17615 736.748001 
L 1080.603 735.731549 
L 1083.02985 735.885979 
L 1085.4567 736.394416 
L 1087.88355 736.716281 
L 1090.3104 735.714725 
L 1092.73725 735.504501 
L 1095.1641 736.338153 
L 1097.59095 737.533284 
L 1100.0178 737.78203 
L 1102.44465 737.766718 
L 1104.8715 736.985086 
L 1107.29835 736.010303 
L 1109.7252 736.807754 
L 1112.15205 735.962571 
L 1114.5789 736.310104 
L 1117.00575 736.845125 
L 1119.4326 736.182015 
L 1126.71315 737.345128 
L 1129.14 736.857027 
L 1131.56685 737.033546 
L 1133.9937 735.989663 
L 1138.8474 735.747088 
L 1143.7011 735.448997 
L 1146.12795 735.681962 
L 1148.5548 737.026228 
L 1150.98165 736.572173 
L 1153.4085 737.200926 
L 1155.83535 737.067264 
L 1158.2622 736.728264 
L 1160.68905 736.839801 
L 1165.54275 735.968801 
L 1167.9696 736.540695 
L 1170.39645 737.393773 
L 1172.8233 737.018071 
L 1175.25015 735.965318 
L 1182.5307 737.786748 
L 1187.3844 737.968349 
L 1189.81125 737.69903 
L 1192.2381 738.121163 
L 1194.66495 738.16707 
L 1197.0918 736.313634 
L 1199.51865 736.917574 
L 1201.9455 737.171326 
L 1204.37235 736.879236 
L 1206.7992 736.914581 
L 1209.22605 737.08801 
L 1211.6529 737.601883 
L 1214.07975 736.896004 
L 1216.5066 736.870563 
L 1218.93345 737.093367 
L 1221.3603 735.924852 
L 1223.78715 737.079471 
L 1226.214 736.685822 
L 1228.64085 736.862031 
L 1231.0677 736.905636 
L 1233.49455 736.626624 
L 1235.9214 736.667336 
L 1238.34825 737.192652 
L 1240.7751 735.642148 
L 1243.20195 735.419754 
L 1245.6288 737.019527 
L 1248.05565 736.784456 
L 1250.4825 737.825 
L 1252.90935 737.419665 
L 1255.3362 737.723924 
L 1257.76305 737.418536 
L 1262.61675 737.515928 
L 1267.47045 736.289413 
L 1269.8973 736.517117 
L 1272.32415 737.176157 
L 1274.751 737.58108 
L 1277.17785 736.628917 
L 1279.6047 736.627528 
L 1282.03155 735.671483 
L 1284.4584 736.78715 
L 1286.88525 736.814081 
L 1289.3121 736.409708 
L 1291.73895 736.170933 
L 1294.1658 736.342753 
L 1296.59265 737.346155 
L 1299.0195 737.912764 
L 1301.44635 738.047658 
L 1303.8732 738.329833 
L 1306.30005 738.466757 
L 1308.7269 737.674738 
L 1311.15375 737.479055 
L 1313.5806 736.723955 
L 1316.00745 736.481742 
L 1318.4343 737.067455 
L 1320.86115 736.810511 
L 1323.288 736.757345 
L 1325.71485 735.576171 
L 1328.1417 735.681979 
L 1330.56855 736.503639 
L 1332.9954 736.802087 
L 1335.42225 736.389773 
L 1337.8491 736.435257 
L 1340.27595 735.902787 
L 1345.12965 737.450617 
L 1347.5565 737.681384 
L 1349.98335 737.279839 
L 1352.4102 737.585943 
L 1354.83705 737.155742 
L 1357.2639 738.430608 
L 1359.69075 736.742666 
L 1362.1176 736.650584 
L 1364.54445 736.927866 
L 1366.9713 736.442525 
L 1369.39815 736.392131 
L 1369.39815 736.392131 
" style="fill:none;stroke:#0000ff;stroke-linecap:square;stroke-width:2.0;"/>
   </g>
   <g id="line2d_2">
    <path clip-path="url(#pfcc003c366)" d="M 158.4 125.920658 
L 160.82685 129.756236 
L 163.2537 133.060703 
L 165.68055 135.638484 
L 168.1074 139.351132 
L 170.53425 142.188915 
L 172.9611 145.8498 
L 180.24165 155.502792 
L 182.6685 159.277746 
L 187.5222 165.749102 
L 189.94905 169.888679 
L 192.3759 172.378808 
L 194.80275 175.994093 
L 197.2296 178.180045 
L 199.65645 180.634999 
L 202.0833 183.432955 
L 204.51015 186.567613 
L 206.937 188.978217 
L 209.36385 191.576436 
L 211.7907 194.50667 
L 214.21755 198.019012 
L 216.6444 200.531876 
L 219.07125 202.794349 
L 223.92495 208.500201 
L 226.3518 211.098561 
L 233.63235 219.504767 
L 236.0592 221.805005 
L 238.48605 224.863615 
L 240.9129 227.700193 
L 243.33975 230.858293 
L 245.7666 233.578498 
L 248.19345 236.579093 
L 250.6203 238.773963 
L 255.474 244.360106 
L 257.90085 246.922248 
L 262.75455 253.661375 
L 265.1814 257.219775 
L 267.60825 260.265121 
L 270.0351 263.490257 
L 272.46195 266.228491 
L 274.8888 268.333636 
L 277.31565 270.714054 
L 279.7425 273.674534 
L 282.16935 276.926031 
L 284.5962 279.455817 
L 289.4499 285.541466 
L 291.87675 288.279323 
L 294.3036 290.813269 
L 296.73045 293.669227 
L 299.1573 296.822068 
L 301.58415 300.266167 
L 304.011 303.363792 
L 306.43785 306.250117 
L 311.29155 310.322948 
L 316.14525 315.300974 
L 323.4258 324.798397 
L 325.85265 326.994075 
L 328.2795 330.395838 
L 330.70635 332.966196 
L 333.1332 335.983344 
L 337.9869 342.32695 
L 340.41375 345.263051 
L 342.8406 349.255271 
L 345.26745 351.257803 
L 347.6943 354.068154 
L 350.12115 357.153902 
L 352.548 360.461843 
L 354.97485 362.551316 
L 357.4017 365.89987 
L 359.82855 369.879426 
L 362.2554 372.157461 
L 367.1091 378.214581 
L 369.53595 380.822547 
L 371.9628 383.602754 
L 374.38965 386.616276 
L 376.8165 390.216094 
L 379.24335 393.352949 
L 381.6702 396.218597 
L 384.09705 399.838105 
L 388.95075 406.026165 
L 391.3776 408.68997 
L 393.80445 411.975575 
L 396.2313 415.639388 
L 398.65815 418.540959 
L 401.085 422.068185 
L 403.51185 424.753691 
L 405.9387 427.19256 
L 410.7924 433.122154 
L 415.6461 437.981997 
L 418.07295 441.664912 
L 425.3535 449.499433 
L 427.78035 453.285409 
L 432.63405 458.955547 
L 435.0609 462.543999 
L 437.48775 465.415357 
L 439.9146 468.100015 
L 442.34145 470.552775 
L 444.7683 472.704949 
L 447.19515 475.47328 
L 449.622 478.53707 
L 452.04885 481.029118 
L 454.4757 483.861823 
L 456.90255 487.118062 
L 459.3294 489.213471 
L 461.75625 494.00919 
L 466.60995 498.636264 
L 469.0368 501.532704 
L 473.8905 504.799182 
L 476.31735 507.62792 
L 478.7442 510.69157 
L 481.17105 514.198267 
L 483.5979 517.907535 
L 486.02475 520.372011 
L 488.4516 523.016692 
L 498.159 532.882999 
L 500.58585 535.76383 
L 505.43955 542.634205 
L 507.8664 545.721412 
L 510.29325 548.546768 
L 512.7201 550.67876 
L 515.14695 553.016799 
L 517.5738 556.299189 
L 520.00065 558.605471 
L 522.4275 561.673059 
L 524.85435 564.045242 
L 527.2812 566.684659 
L 529.70805 568.75404 
L 532.1349 571.348675 
L 534.56175 574.894634 
L 536.9886 578.92282 
L 539.41545 581.597262 
L 541.8423 584.642941 
L 544.26915 588.029861 
L 546.696 590.388677 
L 549.12285 594.04681 
L 553.97655 600.365007 
L 556.4034 602.611958 
L 558.83025 605.265676 
L 561.2571 607.672754 
L 563.68395 610.506735 
L 566.1108 613.670803 
L 573.39135 621.422016 
L 578.24505 626.762437 
L 580.6719 630.022187 
L 583.09875 632.521602 
L 587.95245 638.047551 
L 590.3793 641.05176 
L 592.80615 643.133651 
L 595.233 643.789554 
L 597.65985 647.362068 
L 600.0867 650.169225 
L 602.51355 653.604134 
L 604.9404 656.381406 
L 607.36725 658.559619 
L 609.7941 661.865472 
L 612.22095 664.894862 
L 617.07465 671.615611 
L 619.5015 673.758985 
L 626.78205 682.204546 
L 629.2089 684.684065 
L 631.63575 686.549937 
L 634.0626 688.800351 
L 636.48945 692.365125 
L 638.9163 696.938511 
L 641.34315 699.251088 
L 643.77 702.25668 
L 648.6237 707.684821 
L 651.05055 710.338415 
L 653.4774 713.211152 
L 655.90425 715.469462 
L 658.3311 718.481355 
L 660.75795 722.269968 
L 663.1848 724.761626 
L 665.61165 726.135694 
L 668.0385 727.348422 
L 672.8922 731.038002 
L 675.31905 732.326474 
L 677.7459 733.830967 
L 680.17275 734.244783 
L 682.5996 736.046879 
L 685.02645 735.32747 
L 687.4533 735.807029 
L 689.88015 736.04603 
L 692.307 735.757545 
L 694.73385 736.362686 
L 697.1607 736.307632 
L 699.58755 735.750177 
L 702.0144 736.451405 
L 704.44125 736.812803 
L 706.8681 735.634868 
L 711.7218 736.181947 
L 714.14865 736.213686 
L 716.5755 736.965762 
L 721.4292 735.910377 
L 723.85605 736.036454 
L 726.2829 736.370062 
L 728.70975 737.215552 
L 731.1366 737.082617 
L 733.56345 735.290035 
L 735.9903 735.121598 
L 738.41715 736.422944 
L 740.844 736.429966 
L 743.27085 736.836952 
L 745.6977 736.597436 
L 748.12455 737.052284 
L 750.5514 737.66128 
L 755.4051 736.926404 
L 757.83195 736.708261 
L 760.2588 736.018078 
L 762.68565 736.787558 
L 767.53935 737.122368 
L 769.9662 736.863532 
L 772.39305 737.179826 
L 774.8199 736.379293 
L 777.24675 737.356509 
L 779.6736 736.880043 
L 782.10045 736.831524 
L 784.5273 737.299347 
L 789.381 737.669628 
L 791.80785 737.580401 
L 794.2347 737.763349 
L 796.66155 737.307218 
L 799.0884 737.427239 
L 801.51525 737.763895 
L 806.36895 737.286402 
L 808.7958 737.27247 
L 811.22265 737.100411 
L 813.6495 738.421145 
L 816.07635 737.739962 
L 818.5032 737.650774 
L 820.93005 737.074398 
L 823.3569 737.270267 
L 825.78375 737.184014 
L 828.2106 736.088224 
L 833.0643 735.640155 
L 835.49115 735.500194 
L 837.918 736.014455 
L 840.34485 736.228259 
L 842.7717 735.274984 
L 845.19855 735.527452 
L 847.6254 735.667618 
L 850.05225 736.092999 
L 852.4791 735.638259 
L 854.90595 736.389691 
L 857.3328 735.651499 
L 859.75965 736.276451 
L 862.1865 737.252786 
L 864.61335 736.928755 
L 867.0402 736.429141 
L 871.8939 736.766859 
L 874.32075 737.245682 
L 876.7476 738.029061 
L 879.17445 736.774489 
L 881.6013 736.871359 
L 884.02815 736.245243 
L 886.455 737.233773 
L 888.88185 736.984056 
L 891.3087 735.829432 
L 893.73555 736.693703 
L 896.1624 736.00357 
L 898.58925 735.736783 
L 901.0161 736.525552 
L 903.44295 736.602394 
L 905.8698 735.065325 
L 908.29665 736.210803 
L 910.7235 737.170649 
L 913.15035 736.610765 
L 915.5772 737.349579 
L 918.00405 736.218259 
L 920.4309 735.58368 
L 925.2846 735.536898 
L 927.71145 735.990777 
L 930.1383 737.130856 
L 932.56515 736.809754 
L 934.992 737.019304 
L 937.41885 737.377651 
L 939.8457 736.927383 
L 942.27255 738.388072 
L 944.6994 737.576852 
L 947.12625 737.820821 
L 949.5531 737.310528 
L 951.97995 736.202636 
L 954.4068 737.421734 
L 956.83365 736.932565 
L 959.2605 736.305428 
L 961.68735 736.053496 
L 964.1142 735.019328 
L 966.54105 735.365642 
L 968.9679 736.575859 
L 971.39475 736.321016 
L 973.8216 737.209185 
L 976.24845 736.805767 
L 978.6753 737.406638 
L 981.10215 737.110254 
L 983.529 736.045413 
L 985.95585 735.920454 
L 988.3827 736.329472 
L 990.80955 736.906217 
L 993.2364 736.461411 
L 995.66325 736.733246 
L 1000.51695 735.430623 
L 1002.9438 735.379024 
L 1005.37065 736.942722 
L 1007.7975 736.651789 
L 1010.22435 737.263039 
L 1012.6512 736.670548 
L 1015.07805 736.749761 
L 1017.5049 736.64353 
L 1019.93175 736.827161 
L 1022.3586 736.862198 
L 1024.78545 736.527649 
L 1027.2123 736.813634 
L 1029.63915 737.597981 
L 1032.066 736.641468 
L 1034.49285 737.333529 
L 1036.9197 737.236551 
L 1039.34655 736.325281 
L 1041.7734 736.252584 
L 1044.20025 736.825857 
L 1046.6271 735.76454 
L 1049.05395 736.219656 
L 1051.4808 736.556753 
L 1053.90765 736.305172 
L 1056.3345 737.329184 
L 1061.1882 735.219935 
L 1066.0419 735.990956 
L 1068.46875 736.337118 
L 1070.8956 734.826534 
L 1073.32245 734.688842 
L 1075.7493 734.768655 
L 1078.17615 735.148804 
L 1080.603 735.808517 
L 1083.02985 736.341759 
L 1085.4567 736.488017 
L 1087.88355 736.296774 
L 1092.73725 737.951717 
L 1095.1641 737.914403 
L 1097.59095 738.882101 
L 1102.44465 738.848749 
L 1104.8715 738.39222 
L 1107.29835 736.876008 
L 1109.7252 738.274482 
L 1112.15205 737.320259 
L 1114.5789 736.833104 
L 1117.00575 736.885212 
L 1119.4326 736.658932 
L 1121.85945 737.03694 
L 1126.71315 736.88591 
L 1129.14 737.107789 
L 1131.56685 735.853934 
L 1133.9937 736.288141 
L 1136.42055 736.549061 
L 1146.12795 736.961102 
L 1148.5548 737.180256 
L 1150.98165 736.884219 
L 1153.4085 735.873165 
L 1155.83535 736.750537 
L 1158.2622 736.764195 
L 1160.68905 737.358537 
L 1165.54275 737.088337 
L 1167.9696 735.750362 
L 1170.39645 735.62527 
L 1172.8233 736.305489 
L 1175.25015 736.560854 
L 1177.677 737.213931 
L 1180.10385 736.39911 
L 1182.5307 736.481861 
L 1184.95755 736.257797 
L 1187.3844 736.671784 
L 1189.81125 737.400175 
L 1192.2381 736.562164 
L 1194.66495 736.536028 
L 1197.0918 736.289054 
L 1199.51865 736.832499 
L 1201.9455 736.624823 
L 1204.37235 734.955176 
L 1209.22605 736.227419 
L 1211.6529 736.400636 
L 1214.07975 736.933776 
L 1216.5066 738.205486 
L 1218.93345 737.298071 
L 1221.3603 737.620192 
L 1223.78715 737.26871 
L 1226.214 737.556457 
L 1228.64085 736.954733 
L 1231.0677 737.096111 
L 1233.49455 736.888518 
L 1235.9214 737.462317 
L 1240.7751 737.24053 
L 1243.20195 736.303674 
L 1248.05565 738.043512 
L 1250.4825 737.109247 
L 1252.90935 737.097437 
L 1255.3362 737.313687 
L 1257.76305 736.755455 
L 1260.1899 737.095739 
L 1262.61675 736.652835 
L 1265.0436 737.01821 
L 1267.47045 737.216529 
L 1269.8973 736.706956 
L 1272.32415 737.505546 
L 1274.751 736.912781 
L 1277.17785 736.164329 
L 1279.6047 736.655497 
L 1282.03155 736.502861 
L 1284.4584 736.948372 
L 1286.88525 736.934387 
L 1289.3121 737.086548 
L 1291.73895 737.649015 
L 1294.1658 736.395768 
L 1296.59265 735.740292 
L 1299.0195 735.59048 
L 1303.8732 736.275018 
L 1306.30005 736.90162 
L 1308.7269 736.67683 
L 1311.15375 736.581791 
L 1313.5806 734.603965 
L 1316.00745 735.139379 
L 1318.4343 735.812972 
L 1320.86115 736.928868 
L 1323.288 738.187583 
L 1325.71485 737.064457 
L 1328.1417 737.53963 
L 1330.56855 737.37887 
L 1332.9954 737.043167 
L 1335.42225 735.718184 
L 1337.8491 735.025163 
L 1342.7028 735.934039 
L 1345.12965 736.860969 
L 1347.5565 736.472876 
L 1352.4102 736.817363 
L 1354.83705 736.882599 
L 1357.2639 737.148276 
L 1359.69075 736.793047 
L 1362.1176 736.827583 
L 1364.54445 737.128743 
L 1369.39815 736.050574 
L 1369.39815 736.050574 
" style="fill:none;stroke:#008000;stroke-linecap:square;stroke-width:2.0;"/>
   </g>
   <g id="patch_3">
    <path d="M 158.4 51.3 
L 1371.825 51.3 
" style="fill:none;stroke:#000000;stroke-linecap:square;stroke-linejoin:miter;"/>
   </g>
   <g id="patch_4">
    <path d="M 1371.825 747 
L 1371.825 51.3 
" style="fill:none;stroke:#000000;stroke-linecap:square;stroke-linejoin:miter;"/>
   </g>
   <g id="patch_5">
    <path d="M 158.4 747 
L 1371.825 747 
" style="fill:none;stroke:#000000;stroke-linecap:square;stroke-linejoin:miter;"/>
   </g>
   <g id="patch_6">
    <path d="M 158.4 747 
L 158.4 51.3 
" style="fill:none;stroke:#000000;stroke-linecap:square;stroke-linejoin:miter;"/>
   </g>
   <g id="matplotlib.axis_1">
    <g id="xtick_1">
     <g id="line2d_3">
      <defs>
       <path d="M 0 0 
L 0 -4 
" id="m15c8da5db4" style="stroke:#000000;stroke-width:0.5;"/>
      </defs>
      <g>
       <use style="stroke:#000000;stroke-width:0.5;" x="158.4" xlink:href="#m15c8da5db4" y="747.0"/>
      </g>
     </g>
     <g id="line2d_4">
      <defs>
       <path d="M 0 0 
L 0 4 
" id="m9890af74cf" style="stroke:#000000;stroke-width:0.5;"/>
      </defs>
      <g>
       <use style="stroke:#000000;stroke-width:0.5;" x="158.4" xlink:href="#m9890af74cf" y="51.3"/>
      </g>
     </g>
     <g id="text_1">
      <!-- 0 -->
      <defs>
       <path d="M 31.78125 66.40625 
Q 24.171875 66.40625 20.328125 58.90625 
Q 16.5 51.421875 16.5 36.375 
Q 16.5 21.390625 20.328125 13.890625 
Q 24.171875 6.390625 31.78125 6.390625 
Q 39.453125 6.390625 43.28125 13.890625 
Q 47.125 21.390625 47.125 36.375 
Q 47.125 51.421875 43.28125 58.90625 
Q 39.453125 66.40625 31.78125 66.40625 
M 31.78125 74.21875 
Q 44.046875 74.21875 50.515625 64.515625 
Q 56.984375 54.828125 56.984375 36.375 
Q 56.984375 17.96875 50.515625 8.265625 
Q 44.046875 -1.421875 31.78125 -1.421875 
Q 19.53125 -1.421875 13.0625 8.265625 
Q 6.59375 17.96875 6.59375 36.375 
Q 6.59375 54.828125 13.0625 64.515625 
Q 19.53125 74.21875 31.78125 74.21875 
" id="BitstreamVeraSans-Roman-30"/>
      </defs>
      <g transform="translate(148.85625 773.7953125)scale(0.3 -0.3)">
       <use xlink:href="#BitstreamVeraSans-Roman-30"/>
      </g>
     </g>
    </g>
    <g id="xtick_2">
     <g id="line2d_5">
      <g>
       <use style="stroke:#000000;stroke-width:0.5;" x="401.085" xlink:href="#m15c8da5db4" y="747.0"/>
      </g>
     </g>
     <g id="line2d_6">
      <g>
       <use style="stroke:#000000;stroke-width:0.5;" x="401.085" xlink:href="#m9890af74cf" y="51.3"/>
      </g>
     </g>
     <g id="text_2">
      <!-- 100 -->
      <defs>
       <path d="M 12.40625 8.296875 
L 28.515625 8.296875 
L 28.515625 63.921875 
L 10.984375 60.40625 
L 10.984375 69.390625 
L 28.421875 72.90625 
L 38.28125 72.90625 
L 38.28125 8.296875 
L 54.390625 8.296875 
L 54.390625 0 
L 12.40625 0 
z
" id="BitstreamVeraSans-Roman-31"/>
      </defs>
      <g transform="translate(372.45375 773.7953125)scale(0.3 -0.3)">
       <use xlink:href="#BitstreamVeraSans-Roman-31"/>
       <use x="63.623046875" xlink:href="#BitstreamVeraSans-Roman-30"/>
       <use x="127.24609375" xlink:href="#BitstreamVeraSans-Roman-30"/>
      </g>
     </g>
    </g>
    <g id="xtick_3">
     <g id="line2d_7">
      <g>
       <use style="stroke:#000000;stroke-width:0.5;" x="643.77" xlink:href="#m15c8da5db4" y="747.0"/>
      </g>
     </g>
     <g id="line2d_8">
      <g>
       <use style="stroke:#000000;stroke-width:0.5;" x="643.77" xlink:href="#m9890af74cf" y="51.3"/>
      </g>
     </g>
     <g id="text_3">
      <!-- 200 -->
      <defs>
       <path d="M 19.1875 8.296875 
L 53.609375 8.296875 
L 53.609375 0 
L 7.328125 0 
L 7.328125 8.296875 
Q 12.9375 14.109375 22.625 23.890625 
Q 32.328125 33.6875 34.8125 36.53125 
Q 39.546875 41.84375 41.421875 45.53125 
Q 43.3125 49.21875 43.3125 52.78125 
Q 43.3125 58.59375 39.234375 62.25 
Q 35.15625 65.921875 28.609375 65.921875 
Q 23.96875 65.921875 18.8125 64.3125 
Q 13.671875 62.703125 7.8125 59.421875 
L 7.8125 69.390625 
Q 13.765625 71.78125 18.9375 73 
Q 24.125 74.21875 28.421875 74.21875 
Q 39.75 74.21875 46.484375 68.546875 
Q 53.21875 62.890625 53.21875 53.421875 
Q 53.21875 48.921875 51.53125 44.890625 
Q 49.859375 40.875 45.40625 35.40625 
Q 44.1875 33.984375 37.640625 27.21875 
Q 31.109375 20.453125 19.1875 8.296875 
" id="BitstreamVeraSans-Roman-32"/>
      </defs>
      <g transform="translate(615.13875 773.7953125)scale(0.3 -0.3)">
       <use xlink:href="#BitstreamVeraSans-Roman-32"/>
       <use x="63.623046875" xlink:href="#BitstreamVeraSans-Roman-30"/>
       <use x="127.24609375" xlink:href="#BitstreamVeraSans-Roman-30"/>
      </g>
     </g>
    </g>
    <g id="xtick_4">
     <g id="line2d_9">
      <g>
       <use style="stroke:#000000;stroke-width:0.5;" x="886.455" xlink:href="#m15c8da5db4" y="747.0"/>
      </g>
     </g>
     <g id="line2d_10">
      <g>
       <use style="stroke:#000000;stroke-width:0.5;" x="886.455" xlink:href="#m9890af74cf" y="51.3"/>
      </g>
     </g>
     <g id="text_4">
      <!-- 300 -->
      <defs>
       <path d="M 40.578125 39.3125 
Q 47.65625 37.796875 51.625 33 
Q 55.609375 28.21875 55.609375 21.1875 
Q 55.609375 10.40625 48.1875 4.484375 
Q 40.765625 -1.421875 27.09375 -1.421875 
Q 22.515625 -1.421875 17.65625 -0.515625 
Q 12.796875 0.390625 7.625 2.203125 
L 7.625 11.71875 
Q 11.71875 9.328125 16.59375 8.109375 
Q 21.484375 6.890625 26.8125 6.890625 
Q 36.078125 6.890625 40.9375 10.546875 
Q 45.796875 14.203125 45.796875 21.1875 
Q 45.796875 27.640625 41.28125 31.265625 
Q 36.765625 34.90625 28.71875 34.90625 
L 20.21875 34.90625 
L 20.21875 43.015625 
L 29.109375 43.015625 
Q 36.375 43.015625 40.234375 45.921875 
Q 44.09375 48.828125 44.09375 54.296875 
Q 44.09375 59.90625 40.109375 62.90625 
Q 36.140625 65.921875 28.71875 65.921875 
Q 24.65625 65.921875 20.015625 65.03125 
Q 15.375 64.15625 9.8125 62.3125 
L 9.8125 71.09375 
Q 15.4375 72.65625 20.34375 73.4375 
Q 25.25 74.21875 29.59375 74.21875 
Q 40.828125 74.21875 47.359375 69.109375 
Q 53.90625 64.015625 53.90625 55.328125 
Q 53.90625 49.265625 50.4375 45.09375 
Q 46.96875 40.921875 40.578125 39.3125 
" id="BitstreamVeraSans-Roman-33"/>
      </defs>
      <g transform="translate(857.82375 773.7953125)scale(0.3 -0.3)">
       <use xlink:href="#BitstreamVeraSans-Roman-33"/>
       <use x="63.623046875" xlink:href="#BitstreamVeraSans-Roman-30"/>
       <use x="127.24609375" xlink:href="#BitstreamVeraSans-Roman-30"/>
      </g>
     </g>
    </g>
    <g id="xtick_5">
     <g id="line2d_11">
      <g>
       <use style="stroke:#000000;stroke-width:0.5;" x="1129.14" xlink:href="#m15c8da5db4" y="747.0"/>
      </g>
     </g>
     <g id="line2d_12">
      <g>
       <use style="stroke:#000000;stroke-width:0.5;" x="1129.14" xlink:href="#m9890af74cf" y="51.3"/>
      </g>
     </g>
     <g id="text_5">
      <!-- 400 -->
      <defs>
       <path d="M 37.796875 64.3125 
L 12.890625 25.390625 
L 37.796875 25.390625 
z
M 35.203125 72.90625 
L 47.609375 72.90625 
L 47.609375 25.390625 
L 58.015625 25.390625 
L 58.015625 17.1875 
L 47.609375 17.1875 
L 47.609375 0 
L 37.796875 0 
L 37.796875 17.1875 
L 4.890625 17.1875 
L 4.890625 26.703125 
z
" id="BitstreamVeraSans-Roman-34"/>
      </defs>
      <g transform="translate(1100.50875 773.7953125)scale(0.3 -0.3)">
       <use xlink:href="#BitstreamVeraSans-Roman-34"/>
       <use x="63.623046875" xlink:href="#BitstreamVeraSans-Roman-30"/>
       <use x="127.24609375" xlink:href="#BitstreamVeraSans-Roman-30"/>
      </g>
     </g>
    </g>
    <g id="xtick_6">
     <g id="line2d_13">
      <g>
       <use style="stroke:#000000;stroke-width:0.5;" x="1371.825" xlink:href="#m15c8da5db4" y="747.0"/>
      </g>
     </g>
     <g id="line2d_14">
      <g>
       <use style="stroke:#000000;stroke-width:0.5;" x="1371.825" xlink:href="#m9890af74cf" y="51.3"/>
      </g>
     </g>
     <g id="text_6">
      <!-- 500 -->
      <defs>
       <path d="M 10.796875 72.90625 
L 49.515625 72.90625 
L 49.515625 64.59375 
L 19.828125 64.59375 
L 19.828125 46.734375 
Q 21.96875 47.46875 24.109375 47.828125 
Q 26.265625 48.1875 28.421875 48.1875 
Q 40.625 48.1875 47.75 41.5 
Q 54.890625 34.8125 54.890625 23.390625 
Q 54.890625 11.625 47.5625 5.09375 
Q 40.234375 -1.421875 26.90625 -1.421875 
Q 22.3125 -1.421875 17.546875 -0.640625 
Q 12.796875 0.140625 7.71875 1.703125 
L 7.71875 11.625 
Q 12.109375 9.234375 16.796875 8.0625 
Q 21.484375 6.890625 26.703125 6.890625 
Q 35.15625 6.890625 40.078125 11.328125 
Q 45.015625 15.765625 45.015625 23.390625 
Q 45.015625 31 40.078125 35.4375 
Q 35.15625 39.890625 26.703125 39.890625 
Q 22.75 39.890625 18.8125 39.015625 
Q 14.890625 38.140625 10.796875 36.28125 
z
" id="BitstreamVeraSans-Roman-35"/>
      </defs>
      <g transform="translate(1343.19375 773.7953125)scale(0.3 -0.3)">
       <use xlink:href="#BitstreamVeraSans-Roman-35"/>
       <use x="63.623046875" xlink:href="#BitstreamVeraSans-Roman-30"/>
       <use x="127.24609375" xlink:href="#BitstreamVeraSans-Roman-30"/>
      </g>
     </g>
    </g>
    <g id="text_7">
     <!-- iterations -->
     <defs>
      <path d="M 54.890625 33.015625 
L 54.890625 0 
L 45.90625 0 
L 45.90625 32.71875 
Q 45.90625 40.484375 42.875 44.328125 
Q 39.84375 48.1875 33.796875 48.1875 
Q 26.515625 48.1875 22.3125 43.546875 
Q 18.109375 38.921875 18.109375 30.90625 
L 18.109375 0 
L 9.078125 0 
L 9.078125 54.6875 
L 18.109375 54.6875 
L 18.109375 46.1875 
Q 21.34375 51.125 25.703125 53.5625 
Q 30.078125 56 35.796875 56 
Q 45.21875 56 50.046875 50.171875 
Q 54.890625 44.34375 54.890625 33.015625 
" id="BitstreamVeraSans-Roman-6e"/>
      <path d="M 34.28125 27.484375 
Q 23.390625 27.484375 19.1875 25 
Q 14.984375 22.515625 14.984375 16.5 
Q 14.984375 11.71875 18.140625 8.90625 
Q 21.296875 6.109375 26.703125 6.109375 
Q 34.1875 6.109375 38.703125 11.40625 
Q 43.21875 16.703125 43.21875 25.484375 
L 43.21875 27.484375 
z
M 52.203125 31.203125 
L 52.203125 0 
L 43.21875 0 
L 43.21875 8.296875 
Q 40.140625 3.328125 35.546875 0.953125 
Q 30.953125 -1.421875 24.3125 -1.421875 
Q 15.921875 -1.421875 10.953125 3.296875 
Q 6 8.015625 6 15.921875 
Q 6 25.140625 12.171875 29.828125 
Q 18.359375 34.515625 30.609375 34.515625 
L 43.21875 34.515625 
L 43.21875 35.40625 
Q 43.21875 41.609375 39.140625 45 
Q 35.0625 48.390625 27.6875 48.390625 
Q 23 48.390625 18.546875 47.265625 
Q 14.109375 46.140625 10.015625 43.890625 
L 10.015625 52.203125 
Q 14.9375 54.109375 19.578125 55.046875 
Q 24.21875 56 28.609375 56 
Q 40.484375 56 46.34375 49.84375 
Q 52.203125 43.703125 52.203125 31.203125 
" id="BitstreamVeraSans-Roman-61"/>
      <path d="M 30.609375 48.390625 
Q 23.390625 48.390625 19.1875 42.75 
Q 14.984375 37.109375 14.984375 27.296875 
Q 14.984375 17.484375 19.15625 11.84375 
Q 23.34375 6.203125 30.609375 6.203125 
Q 37.796875 6.203125 41.984375 11.859375 
Q 46.1875 17.53125 46.1875 27.296875 
Q 46.1875 37.015625 41.984375 42.703125 
Q 37.796875 48.390625 30.609375 48.390625 
M 30.609375 56 
Q 42.328125 56 49.015625 48.375 
Q 55.71875 40.765625 55.71875 27.296875 
Q 55.71875 13.875 49.015625 6.21875 
Q 42.328125 -1.421875 30.609375 -1.421875 
Q 18.84375 -1.421875 12.171875 6.21875 
Q 5.515625 13.875 5.515625 27.296875 
Q 5.515625 40.765625 12.171875 48.375 
Q 18.84375 56 30.609375 56 
" id="BitstreamVeraSans-Roman-6f"/>
      <path d="M 9.421875 54.6875 
L 18.40625 54.6875 
L 18.40625 0 
L 9.421875 0 
z
M 9.421875 75.984375 
L 18.40625 75.984375 
L 18.40625 64.59375 
L 9.421875 64.59375 
z
" id="BitstreamVeraSans-Roman-69"/>
      <path d="M 56.203125 29.59375 
L 56.203125 25.203125 
L 14.890625 25.203125 
Q 15.484375 15.921875 20.484375 11.0625 
Q 25.484375 6.203125 34.421875 6.203125 
Q 39.59375 6.203125 44.453125 7.46875 
Q 49.3125 8.734375 54.109375 11.28125 
L 54.109375 2.78125 
Q 49.265625 0.734375 44.1875 -0.34375 
Q 39.109375 -1.421875 33.890625 -1.421875 
Q 20.796875 -1.421875 13.15625 6.1875 
Q 5.515625 13.8125 5.515625 26.8125 
Q 5.515625 40.234375 12.765625 48.109375 
Q 20.015625 56 32.328125 56 
Q 43.359375 56 49.78125 48.890625 
Q 56.203125 41.796875 56.203125 29.59375 
M 47.21875 32.234375 
Q 47.125 39.59375 43.09375 43.984375 
Q 39.0625 48.390625 32.421875 48.390625 
Q 24.90625 48.390625 20.390625 44.140625 
Q 15.875 39.890625 15.1875 32.171875 
z
" id="BitstreamVeraSans-Roman-65"/>
      <path d="M 18.3125 70.21875 
L 18.3125 54.6875 
L 36.8125 54.6875 
L 36.8125 47.703125 
L 18.3125 47.703125 
L 18.3125 18.015625 
Q 18.3125 11.328125 20.140625 9.421875 
Q 21.96875 7.515625 27.59375 7.515625 
L 36.8125 7.515625 
L 36.8125 0 
L 27.59375 0 
Q 17.1875 0 13.234375 3.875 
Q 9.28125 7.765625 9.28125 18.015625 
L 9.28125 47.703125 
L 2.6875 47.703125 
L 2.6875 54.6875 
L 9.28125 54.6875 
L 9.28125 70.21875 
z
" id="BitstreamVeraSans-Roman-74"/>
      <path d="M 41.109375 46.296875 
Q 39.59375 47.171875 37.8125 47.578125 
Q 36.03125 48 33.890625 48 
Q 26.265625 48 22.1875 43.046875 
Q 18.109375 38.09375 18.109375 28.8125 
L 18.109375 0 
L 9.078125 0 
L 9.078125 54.6875 
L 18.109375 54.6875 
L 18.109375 46.1875 
Q 20.953125 51.171875 25.484375 53.578125 
Q 30.03125 56 36.53125 56 
Q 37.453125 56 38.578125 55.875 
Q 39.703125 55.765625 41.0625 55.515625 
z
" id="BitstreamVeraSans-Roman-72"/>
      <path d="M 44.28125 53.078125 
L 44.28125 44.578125 
Q 40.484375 46.53125 36.375 47.5 
Q 32.28125 48.484375 27.875 48.484375 
Q 21.1875 48.484375 17.84375 46.4375 
Q 14.5 44.390625 14.5 40.28125 
Q 14.5 37.15625 16.890625 35.375 
Q 19.28125 33.59375 26.515625 31.984375 
L 29.59375 31.296875 
Q 39.15625 29.25 43.1875 25.515625 
Q 47.21875 21.78125 47.21875 15.09375 
Q 47.21875 7.46875 41.1875 3.015625 
Q 35.15625 -1.421875 24.609375 -1.421875 
Q 20.21875 -1.421875 15.453125 -0.5625 
Q 10.6875 0.296875 5.421875 2 
L 5.421875 11.28125 
Q 10.40625 8.6875 15.234375 7.390625 
Q 20.0625 6.109375 24.8125 6.109375 
Q 31.15625 6.109375 34.5625 8.28125 
Q 37.984375 10.453125 37.984375 14.40625 
Q 37.984375 18.0625 35.515625 20.015625 
Q 33.0625 21.96875 24.703125 23.78125 
L 21.578125 24.515625 
Q 13.234375 26.265625 9.515625 29.90625 
Q 5.8125 33.546875 5.8125 39.890625 
Q 5.8125 47.609375 11.28125 51.796875 
Q 16.75 56 26.8125 56 
Q 31.78125 56 36.171875 55.265625 
Q 40.578125 54.546875 44.28125 53.078125 
" id="BitstreamVeraSans-Roman-73"/>
     </defs>
     <g transform="translate(693.93046875 807.8296875)scale(0.3 -0.3)">
      <use xlink:href="#BitstreamVeraSans-Roman-69"/>
      <use x="27.783203125" xlink:href="#BitstreamVeraSans-Roman-74"/>
      <use x="66.9921875" xlink:href="#BitstreamVeraSans-Roman-65"/>
      <use x="128.515625" xlink:href="#BitstreamVeraSans-Roman-72"/>
      <use x="169.62890625" xlink:href="#BitstreamVeraSans-Roman-61"/>
      <use x="230.908203125" xlink:href="#BitstreamVeraSans-Roman-74"/>
      <use x="270.1171875" xlink:href="#BitstreamVeraSans-Roman-69"/>
      <use x="297.900390625" xlink:href="#BitstreamVeraSans-Roman-6f"/>
      <use x="359.08203125" xlink:href="#BitstreamVeraSans-Roman-6e"/>
      <use x="422.4609375" xlink:href="#BitstreamVeraSans-Roman-73"/>
     </g>
    </g>
   </g>
   <g id="matplotlib.axis_2">
    <g id="ytick_1">
     <g id="line2d_15">
      <defs>
       <path d="M 0 0 
L 4 0 
" id="m9e5e9bf38d" style="stroke:#000000;stroke-width:0.5;"/>
      </defs>
      <g>
       <use style="stroke:#000000;stroke-width:0.5;" x="158.4" xlink:href="#m9e5e9bf38d" y="747.0"/>
      </g>
     </g>
     <g id="line2d_16">
      <defs>
       <path d="M 0 0 
L -4 0 
" id="m728da2ef2d" style="stroke:#000000;stroke-width:0.5;"/>
      </defs>
      <g>
       <use style="stroke:#000000;stroke-width:0.5;" x="1371.825" xlink:href="#m728da2ef2d" y="747.0"/>
      </g>
     </g>
     <g id="text_8">
      <!-- −60 -->
      <defs>
       <path d="M 10.59375 35.5 
L 73.1875 35.5 
L 73.1875 27.203125 
L 10.59375 27.203125 
z
" id="BitstreamVeraSans-Roman-2212"/>
       <path d="M 33.015625 40.375 
Q 26.375 40.375 22.484375 35.828125 
Q 18.609375 31.296875 18.609375 23.390625 
Q 18.609375 15.53125 22.484375 10.953125 
Q 26.375 6.390625 33.015625 6.390625 
Q 39.65625 6.390625 43.53125 10.953125 
Q 47.40625 15.53125 47.40625 23.390625 
Q 47.40625 31.296875 43.53125 35.828125 
Q 39.65625 40.375 33.015625 40.375 
M 52.59375 71.296875 
L 52.59375 62.3125 
Q 48.875 64.0625 45.09375 64.984375 
Q 41.3125 65.921875 37.59375 65.921875 
Q 27.828125 65.921875 22.671875 59.328125 
Q 17.53125 52.734375 16.796875 39.40625 
Q 19.671875 43.65625 24.015625 45.921875 
Q 28.375 48.1875 33.59375 48.1875 
Q 44.578125 48.1875 50.953125 41.515625 
Q 57.328125 34.859375 57.328125 23.390625 
Q 57.328125 12.15625 50.6875 5.359375 
Q 44.046875 -1.421875 33.015625 -1.421875 
Q 20.359375 -1.421875 13.671875 8.265625 
Q 6.984375 17.96875 6.984375 36.375 
Q 6.984375 53.65625 15.1875 63.9375 
Q 23.390625 74.21875 37.203125 74.21875 
Q 40.921875 74.21875 44.703125 73.484375 
Q 48.484375 72.75 52.59375 71.296875 
" id="BitstreamVeraSans-Roman-36"/>
      </defs>
      <g transform="translate(91.0859375 755.278125)scale(0.3 -0.3)">
       <use xlink:href="#BitstreamVeraSans-Roman-2212"/>
       <use x="83.7890625" xlink:href="#BitstreamVeraSans-Roman-36"/>
       <use x="147.412109375" xlink:href="#BitstreamVeraSans-Roman-30"/>
      </g>
     </g>
    </g>
    <g id="ytick_2">
     <g id="line2d_17">
      <g>
       <use style="stroke:#000000;stroke-width:0.5;" x="158.4" xlink:href="#m9e5e9bf38d" y="660.0375"/>
      </g>
     </g>
     <g id="line2d_18">
      <g>
       <use style="stroke:#000000;stroke-width:0.5;" x="1371.825" xlink:href="#m728da2ef2d" y="660.0375"/>
      </g>
     </g>
     <g id="text_9">
      <!-- −50 -->
      <g transform="translate(91.0859375 668.315625)scale(0.3 -0.3)">
       <use xlink:href="#BitstreamVeraSans-Roman-2212"/>
       <use x="83.7890625" xlink:href="#BitstreamVeraSans-Roman-35"/>
       <use x="147.412109375" xlink:href="#BitstreamVeraSans-Roman-30"/>
      </g>
     </g>
    </g>
    <g id="ytick_3">
     <g id="line2d_19">
      <g>
       <use style="stroke:#000000;stroke-width:0.5;" x="158.4" xlink:href="#m9e5e9bf38d" y="573.075"/>
      </g>
     </g>
     <g id="line2d_20">
      <g>
       <use style="stroke:#000000;stroke-width:0.5;" x="1371.825" xlink:href="#m728da2ef2d" y="573.075"/>
      </g>
     </g>
     <g id="text_10">
      <!-- −40 -->
      <g transform="translate(91.0859375 581.353125)scale(0.3 -0.3)">
       <use xlink:href="#BitstreamVeraSans-Roman-2212"/>
       <use x="83.7890625" xlink:href="#BitstreamVeraSans-Roman-34"/>
       <use x="147.412109375" xlink:href="#BitstreamVeraSans-Roman-30"/>
      </g>
     </g>
    </g>
    <g id="ytick_4">
     <g id="line2d_21">
      <g>
       <use style="stroke:#000000;stroke-width:0.5;" x="158.4" xlink:href="#m9e5e9bf38d" y="486.1125"/>
      </g>
     </g>
     <g id="line2d_22">
      <g>
       <use style="stroke:#000000;stroke-width:0.5;" x="1371.825" xlink:href="#m728da2ef2d" y="486.1125"/>
      </g>
     </g>
     <g id="text_11">
      <!-- −30 -->
      <g transform="translate(91.0859375 494.390625)scale(0.3 -0.3)">
       <use xlink:href="#BitstreamVeraSans-Roman-2212"/>
       <use x="83.7890625" xlink:href="#BitstreamVeraSans-Roman-33"/>
       <use x="147.412109375" xlink:href="#BitstreamVeraSans-Roman-30"/>
      </g>
     </g>
    </g>
    <g id="ytick_5">
     <g id="line2d_23">
      <g>
       <use style="stroke:#000000;stroke-width:0.5;" x="158.4" xlink:href="#m9e5e9bf38d" y="399.15"/>
      </g>
     </g>
     <g id="line2d_24">
      <g>
       <use style="stroke:#000000;stroke-width:0.5;" x="1371.825" xlink:href="#m728da2ef2d" y="399.15"/>
      </g>
     </g>
     <g id="text_12">
      <!-- −20 -->
      <g transform="translate(91.0859375 407.428125)scale(0.3 -0.3)">
       <use xlink:href="#BitstreamVeraSans-Roman-2212"/>
       <use x="83.7890625" xlink:href="#BitstreamVeraSans-Roman-32"/>
       <use x="147.412109375" xlink:href="#BitstreamVeraSans-Roman-30"/>
      </g>
     </g>
    </g>
    <g id="ytick_6">
     <g id="line2d_25">
      <g>
       <use style="stroke:#000000;stroke-width:0.5;" x="158.4" xlink:href="#m9e5e9bf38d" y="312.1875"/>
      </g>
     </g>
     <g id="line2d_26">
      <g>
       <use style="stroke:#000000;stroke-width:0.5;" x="1371.825" xlink:href="#m728da2ef2d" y="312.1875"/>
      </g>
     </g>
     <g id="text_13">
      <!-- −10 -->
      <g transform="translate(91.0859375 320.465625)scale(0.3 -0.3)">
       <use xlink:href="#BitstreamVeraSans-Roman-2212"/>
       <use x="83.7890625" xlink:href="#BitstreamVeraSans-Roman-31"/>
       <use x="147.412109375" xlink:href="#BitstreamVeraSans-Roman-30"/>
      </g>
     </g>
    </g>
    <g id="ytick_7">
     <g id="line2d_27">
      <g>
       <use style="stroke:#000000;stroke-width:0.5;" x="158.4" xlink:href="#m9e5e9bf38d" y="225.225"/>
      </g>
     </g>
     <g id="line2d_28">
      <g>
       <use style="stroke:#000000;stroke-width:0.5;" x="1371.825" xlink:href="#m728da2ef2d" y="225.225"/>
      </g>
     </g>
     <g id="text_14">
      <!-- 0 -->
      <g transform="translate(135.3125 233.503125)scale(0.3 -0.3)">
       <use xlink:href="#BitstreamVeraSans-Roman-30"/>
      </g>
     </g>
    </g>
    <g id="ytick_8">
     <g id="line2d_29">
      <g>
       <use style="stroke:#000000;stroke-width:0.5;" x="158.4" xlink:href="#m9e5e9bf38d" y="138.2625"/>
      </g>
     </g>
     <g id="line2d_30">
      <g>
       <use style="stroke:#000000;stroke-width:0.5;" x="1371.825" xlink:href="#m728da2ef2d" y="138.2625"/>
      </g>
     </g>
     <g id="text_15">
      <!-- 10 -->
      <g transform="translate(116.225 146.540625)scale(0.3 -0.3)">
       <use xlink:href="#BitstreamVeraSans-Roman-31"/>
       <use x="63.623046875" xlink:href="#BitstreamVeraSans-Roman-30"/>
      </g>
     </g>
    </g>
    <g id="ytick_9">
     <g id="line2d_31">
      <g>
       <use style="stroke:#000000;stroke-width:0.5;" x="158.4" xlink:href="#m9e5e9bf38d" y="51.3"/>
      </g>
     </g>
     <g id="line2d_32">
      <g>
       <use style="stroke:#000000;stroke-width:0.5;" x="1371.825" xlink:href="#m728da2ef2d" y="51.3"/>
      </g>
     </g>
     <g id="text_16">
      <!-- 20 -->
      <g transform="translate(116.225 59.578125)scale(0.3 -0.3)">
       <use xlink:href="#BitstreamVeraSans-Roman-32"/>
       <use x="63.623046875" xlink:href="#BitstreamVeraSans-Roman-30"/>
      </g>
     </g>
    </g>
    <g id="text_17">
     <!-- log(loss) -->
     <defs>
      <path d="M 8.015625 75.875 
L 15.828125 75.875 
Q 23.140625 64.359375 26.78125 53.3125 
Q 30.421875 42.28125 30.421875 31.390625 
Q 30.421875 20.453125 26.78125 9.375 
Q 23.140625 -1.703125 15.828125 -13.1875 
L 8.015625 -13.1875 
Q 14.5 -2 17.703125 9.0625 
Q 20.90625 20.125 20.90625 31.390625 
Q 20.90625 42.671875 17.703125 53.65625 
Q 14.5 64.65625 8.015625 75.875 
" id="BitstreamVeraSans-Roman-29"/>
      <path d="M 31 75.875 
Q 24.46875 64.65625 21.28125 53.65625 
Q 18.109375 42.671875 18.109375 31.390625 
Q 18.109375 20.125 21.3125 9.0625 
Q 24.515625 -2 31 -13.1875 
L 23.1875 -13.1875 
Q 15.875 -1.703125 12.234375 9.375 
Q 8.59375 20.453125 8.59375 31.390625 
Q 8.59375 42.28125 12.203125 53.3125 
Q 15.828125 64.359375 23.1875 75.875 
z
" id="BitstreamVeraSans-Roman-28"/>
      <path d="M 45.40625 27.984375 
Q 45.40625 37.75 41.375 43.109375 
Q 37.359375 48.484375 30.078125 48.484375 
Q 22.859375 48.484375 18.828125 43.109375 
Q 14.796875 37.75 14.796875 27.984375 
Q 14.796875 18.265625 18.828125 12.890625 
Q 22.859375 7.515625 30.078125 7.515625 
Q 37.359375 7.515625 41.375 12.890625 
Q 45.40625 18.265625 45.40625 27.984375 
M 54.390625 6.78125 
Q 54.390625 -7.171875 48.1875 -13.984375 
Q 42 -20.796875 29.203125 -20.796875 
Q 24.46875 -20.796875 20.265625 -20.09375 
Q 16.0625 -19.390625 12.109375 -17.921875 
L 12.109375 -9.1875 
Q 16.0625 -11.328125 19.921875 -12.34375 
Q 23.78125 -13.375 27.78125 -13.375 
Q 36.625 -13.375 41.015625 -8.765625 
Q 45.40625 -4.15625 45.40625 5.171875 
L 45.40625 9.625 
Q 42.625 4.78125 38.28125 2.390625 
Q 33.9375 0 27.875 0 
Q 17.828125 0 11.671875 7.65625 
Q 5.515625 15.328125 5.515625 27.984375 
Q 5.515625 40.671875 11.671875 48.328125 
Q 17.828125 56 27.875 56 
Q 33.9375 56 38.28125 53.609375 
Q 42.625 51.21875 45.40625 46.390625 
L 45.40625 54.6875 
L 54.390625 54.6875 
z
" id="BitstreamVeraSans-Roman-67"/>
      <path d="M 9.421875 75.984375 
L 18.40625 75.984375 
L 18.40625 0 
L 9.421875 0 
z
" id="BitstreamVeraSans-Roman-6c"/>
     </defs>
     <g transform="translate(79.846875 462.69609375)rotate(-90.0)scale(0.3 -0.3)">
      <use xlink:href="#BitstreamVeraSans-Roman-6c"/>
      <use x="27.783203125" xlink:href="#BitstreamVeraSans-Roman-6f"/>
      <use x="88.96484375" xlink:href="#BitstreamVeraSans-Roman-67"/>
      <use x="152.44140625" xlink:href="#BitstreamVeraSans-Roman-28"/>
      <use x="191.455078125" xlink:href="#BitstreamVeraSans-Roman-6c"/>
      <use x="219.23828125" xlink:href="#BitstreamVeraSans-Roman-6f"/>
      <use x="280.419921875" xlink:href="#BitstreamVeraSans-Roman-73"/>
      <use x="332.51953125" xlink:href="#BitstreamVeraSans-Roman-73"/>
      <use x="384.619140625" xlink:href="#BitstreamVeraSans-Roman-29"/>
     </g>
    </g>
   </g>
   <g id="legend_1">
    <g id="patch_7">
     <path d="M 879.651562 163.36875 
L 1356.825 163.36875 
L 1356.825 66.3 
L 879.651562 66.3 
z
" style="fill:#ffffff;stroke:#000000;stroke-linejoin:miter;"/>
    </g>
    <g id="line2d_33">
     <path d="M 900.651562 90.595312 
L 942.651562 90.595312 
" style="fill:none;stroke:#0000ff;stroke-linecap:square;stroke-width:2.0;"/>
    </g>
    <g id="line2d_34"/>
    <g id="text_18">
     <!-- random: step=0.009776 -->
     <defs>
      <path id="BitstreamVeraSans-Roman-20"/>
      <path d="M 8.203125 72.90625 
L 55.078125 72.90625 
L 55.078125 68.703125 
L 28.609375 0 
L 18.3125 0 
L 43.21875 64.59375 
L 8.203125 64.59375 
z
" id="BitstreamVeraSans-Roman-37"/>
      <path d="M 52 44.1875 
Q 55.375 50.25 60.0625 53.125 
Q 64.75 56 71.09375 56 
Q 79.640625 56 84.28125 50.015625 
Q 88.921875 44.046875 88.921875 33.015625 
L 88.921875 0 
L 79.890625 0 
L 79.890625 32.71875 
Q 79.890625 40.578125 77.09375 44.375 
Q 74.3125 48.1875 68.609375 48.1875 
Q 61.625 48.1875 57.5625 43.546875 
Q 53.515625 38.921875 53.515625 30.90625 
L 53.515625 0 
L 44.484375 0 
L 44.484375 32.71875 
Q 44.484375 40.625 41.703125 44.40625 
Q 38.921875 48.1875 33.109375 48.1875 
Q 26.21875 48.1875 22.15625 43.53125 
Q 18.109375 38.875 18.109375 30.90625 
L 18.109375 0 
L 9.078125 0 
L 9.078125 54.6875 
L 18.109375 54.6875 
L 18.109375 46.1875 
Q 21.1875 51.21875 25.484375 53.609375 
Q 29.78125 56 35.6875 56 
Q 41.65625 56 45.828125 52.96875 
Q 50 49.953125 52 44.1875 
" id="BitstreamVeraSans-Roman-6d"/>
      <path d="M 10.984375 1.515625 
L 10.984375 10.5 
Q 14.703125 8.734375 18.5 7.8125 
Q 22.3125 6.890625 25.984375 6.890625 
Q 35.75 6.890625 40.890625 13.453125 
Q 46.046875 20.015625 46.78125 33.40625 
Q 43.953125 29.203125 39.59375 26.953125 
Q 35.25 24.703125 29.984375 24.703125 
Q 19.046875 24.703125 12.671875 31.3125 
Q 6.296875 37.9375 6.296875 49.421875 
Q 6.296875 60.640625 12.9375 67.421875 
Q 19.578125 74.21875 30.609375 74.21875 
Q 43.265625 74.21875 49.921875 64.515625 
Q 56.59375 54.828125 56.59375 36.375 
Q 56.59375 19.140625 48.40625 8.859375 
Q 40.234375 -1.421875 26.421875 -1.421875 
Q 22.703125 -1.421875 18.890625 -0.6875 
Q 15.09375 0.046875 10.984375 1.515625 
M 30.609375 32.421875 
Q 37.25 32.421875 41.125 36.953125 
Q 45.015625 41.5 45.015625 49.421875 
Q 45.015625 57.28125 41.125 61.84375 
Q 37.25 66.40625 30.609375 66.40625 
Q 23.96875 66.40625 20.09375 61.84375 
Q 16.21875 57.28125 16.21875 49.421875 
Q 16.21875 41.5 20.09375 36.953125 
Q 23.96875 32.421875 30.609375 32.421875 
" id="BitstreamVeraSans-Roman-39"/>
      <path d="M 11.71875 12.40625 
L 22.015625 12.40625 
L 22.015625 0 
L 11.71875 0 
z
M 11.71875 51.703125 
L 22.015625 51.703125 
L 22.015625 39.3125 
L 11.71875 39.3125 
z
" id="BitstreamVeraSans-Roman-3a"/>
      <path d="M 10.6875 12.40625 
L 21 12.40625 
L 21 0 
L 10.6875 0 
z
" id="BitstreamVeraSans-Roman-2e"/>
      <path d="M 10.59375 45.40625 
L 73.1875 45.40625 
L 73.1875 37.203125 
L 10.59375 37.203125 
z
M 10.59375 25.484375 
L 73.1875 25.484375 
L 73.1875 17.1875 
L 10.59375 17.1875 
z
" id="BitstreamVeraSans-Roman-3d"/>
      <path d="M 45.40625 46.390625 
L 45.40625 75.984375 
L 54.390625 75.984375 
L 54.390625 0 
L 45.40625 0 
L 45.40625 8.203125 
Q 42.578125 3.328125 38.25 0.953125 
Q 33.9375 -1.421875 27.875 -1.421875 
Q 17.96875 -1.421875 11.734375 6.484375 
Q 5.515625 14.40625 5.515625 27.296875 
Q 5.515625 40.1875 11.734375 48.09375 
Q 17.96875 56 27.875 56 
Q 33.9375 56 38.25 53.625 
Q 42.578125 51.265625 45.40625 46.390625 
M 14.796875 27.296875 
Q 14.796875 17.390625 18.875 11.75 
Q 22.953125 6.109375 30.078125 6.109375 
Q 37.203125 6.109375 41.296875 11.75 
Q 45.40625 17.390625 45.40625 27.296875 
Q 45.40625 37.203125 41.296875 42.84375 
Q 37.203125 48.484375 30.078125 48.484375 
Q 22.953125 48.484375 18.875 42.84375 
Q 14.796875 37.203125 14.796875 27.296875 
" id="BitstreamVeraSans-Roman-64"/>
      <path d="M 18.109375 8.203125 
L 18.109375 -20.796875 
L 9.078125 -20.796875 
L 9.078125 54.6875 
L 18.109375 54.6875 
L 18.109375 46.390625 
Q 20.953125 51.265625 25.265625 53.625 
Q 29.59375 56 35.59375 56 
Q 45.5625 56 51.78125 48.09375 
Q 58.015625 40.1875 58.015625 27.296875 
Q 58.015625 14.40625 51.78125 6.484375 
Q 45.5625 -1.421875 35.59375 -1.421875 
Q 29.59375 -1.421875 25.265625 0.953125 
Q 20.953125 3.328125 18.109375 8.203125 
M 48.6875 27.296875 
Q 48.6875 37.203125 44.609375 42.84375 
Q 40.53125 48.484375 33.40625 48.484375 
Q 26.265625 48.484375 22.1875 42.84375 
Q 18.109375 37.203125 18.109375 27.296875 
Q 18.109375 17.390625 22.1875 11.75 
Q 26.265625 6.109375 33.40625 6.109375 
Q 40.53125 6.109375 44.609375 11.75 
Q 48.6875 17.390625 48.6875 27.296875 
" id="BitstreamVeraSans-Roman-70"/>
     </defs>
     <g transform="translate(975.6515625 101.0953125)scale(0.3 -0.3)">
      <use xlink:href="#BitstreamVeraSans-Roman-72"/>
      <use x="41.11328125" xlink:href="#BitstreamVeraSans-Roman-61"/>
      <use x="102.392578125" xlink:href="#BitstreamVeraSans-Roman-6e"/>
      <use x="165.771484375" xlink:href="#BitstreamVeraSans-Roman-64"/>
      <use x="229.248046875" xlink:href="#BitstreamVeraSans-Roman-6f"/>
      <use x="290.4296875" xlink:href="#BitstreamVeraSans-Roman-6d"/>
      <use x="387.841796875" xlink:href="#BitstreamVeraSans-Roman-3a"/>
      <use x="421.533203125" xlink:href="#BitstreamVeraSans-Roman-20"/>
      <use x="453.3203125" xlink:href="#BitstreamVeraSans-Roman-73"/>
      <use x="505.419921875" xlink:href="#BitstreamVeraSans-Roman-74"/>
      <use x="544.62890625" xlink:href="#BitstreamVeraSans-Roman-65"/>
      <use x="606.15234375" xlink:href="#BitstreamVeraSans-Roman-70"/>
      <use x="669.62890625" xlink:href="#BitstreamVeraSans-Roman-3d"/>
      <use x="753.41796875" xlink:href="#BitstreamVeraSans-Roman-30"/>
      <use x="817.041015625" xlink:href="#BitstreamVeraSans-Roman-2e"/>
      <use x="848.828125" xlink:href="#BitstreamVeraSans-Roman-30"/>
      <use x="912.451171875" xlink:href="#BitstreamVeraSans-Roman-30"/>
      <use x="976.07421875" xlink:href="#BitstreamVeraSans-Roman-39"/>
      <use x="1039.69726562" xlink:href="#BitstreamVeraSans-Roman-37"/>
      <use x="1103.3203125" xlink:href="#BitstreamVeraSans-Roman-37"/>
      <use x="1166.94335938" xlink:href="#BitstreamVeraSans-Roman-36"/>
     </g>
    </g>
    <g id="line2d_35">
     <path d="M 900.651562 134.629687 
L 942.651562 134.629687 
" style="fill:none;stroke:#008000;stroke-linecap:square;stroke-width:2.0;"/>
    </g>
    <g id="line2d_36"/>
    <g id="text_19">
     <!-- corr: step=0.009776 -->
     <defs>
      <path d="M 48.78125 52.59375 
L 48.78125 44.1875 
Q 44.96875 46.296875 41.140625 47.34375 
Q 37.3125 48.390625 33.40625 48.390625 
Q 24.65625 48.390625 19.8125 42.84375 
Q 14.984375 37.3125 14.984375 27.296875 
Q 14.984375 17.28125 19.8125 11.734375 
Q 24.65625 6.203125 33.40625 6.203125 
Q 37.3125 6.203125 41.140625 7.25 
Q 44.96875 8.296875 48.78125 10.40625 
L 48.78125 2.09375 
Q 45.015625 0.34375 40.984375 -0.53125 
Q 36.96875 -1.421875 32.421875 -1.421875 
Q 20.0625 -1.421875 12.78125 6.34375 
Q 5.515625 14.109375 5.515625 27.296875 
Q 5.515625 40.671875 12.859375 48.328125 
Q 20.21875 56 33.015625 56 
Q 37.15625 56 41.109375 55.140625 
Q 45.0625 54.296875 48.78125 52.59375 
" id="BitstreamVeraSans-Roman-63"/>
     </defs>
     <g transform="translate(975.6515625 145.1296875)scale(0.3 -0.3)">
      <use xlink:href="#BitstreamVeraSans-Roman-63"/>
      <use x="54.98046875" xlink:href="#BitstreamVeraSans-Roman-6f"/>
      <use x="116.162109375" xlink:href="#BitstreamVeraSans-Roman-72"/>
      <use x="157.259765625" xlink:href="#BitstreamVeraSans-Roman-72"/>
      <use x="198.357421875" xlink:href="#BitstreamVeraSans-Roman-3a"/>
      <use x="232.048828125" xlink:href="#BitstreamVeraSans-Roman-20"/>
      <use x="263.8359375" xlink:href="#BitstreamVeraSans-Roman-73"/>
      <use x="315.935546875" xlink:href="#BitstreamVeraSans-Roman-74"/>
      <use x="355.14453125" xlink:href="#BitstreamVeraSans-Roman-65"/>
      <use x="416.66796875" xlink:href="#BitstreamVeraSans-Roman-70"/>
      <use x="480.14453125" xlink:href="#BitstreamVeraSans-Roman-3d"/>
      <use x="563.93359375" xlink:href="#BitstreamVeraSans-Roman-30"/>
      <use x="627.556640625" xlink:href="#BitstreamVeraSans-Roman-2e"/>
      <use x="659.34375" xlink:href="#BitstreamVeraSans-Roman-30"/>
      <use x="722.966796875" xlink:href="#BitstreamVeraSans-Roman-30"/>
      <use x="786.58984375" xlink:href="#BitstreamVeraSans-Roman-39"/>
      <use x="850.212890625" xlink:href="#BitstreamVeraSans-Roman-37"/>
      <use x="913.8359375" xlink:href="#BitstreamVeraSans-Roman-37"/>
      <use x="977.458984375" xlink:href="#BitstreamVeraSans-Roman-36"/>
     </g>
    </g>
   </g>
  </g>
 </g>
 <defs>
  <clipPath id="pfcc003c366">
   <rect height="695.7" width="1213.425" x="158.4" y="51.3"/>
  </clipPath>
 </defs>
</svg>
