<?xml version="1.0" encoding="utf-8" standalone="no"?>
<!DOCTYPE svg PUBLIC "-//W3C//DTD SVG 1.1//EN"
  "http://www.w3.org/Graphics/SVG/1.1/DTD/svg11.dtd">
<!-- Created with matplotlib (http://matplotlib.org/) -->
<svg height="864pt" version="1.1" viewBox="0 0 1440 864" width="1440pt" xmlns="http://www.w3.org/2000/svg" xmlns:xlink="http://www.w3.org/1999/xlink">
 <defs>
  <style type="text/css">
*{stroke-linecap:butt;stroke-linejoin:round;stroke-miterlimit:100000;}
  </style>
 </defs>
 <g id="figure_1">
  <g id="patch_1">
   <path d="M 0 864 
L 1440 864 
L 1440 0 
L 0 0 
z
" style="fill:#ffffff;"/>
  </g>
  <g id="axes_1">
   <g id="patch_2">
    <path d="M 93.382656 770.338125 
L 1373.2425 770.338125 
L 1373.2425 57.915781 
L 93.382656 57.915781 
z
" style="fill:#ffffff;"/>
   </g>
   <g id="line2d_1">
    <path clip-path="url(#pa2232bf43f)" d="M 93.382656 125.13383 
L 94.662516 126.596487 
L 95.942376 127.828008 
L 97.222236 129.770076 
L 98.502096 131.473341 
L 99.781955 133.472418 
L 102.341675 136.487836 
L 107.461115 141.654313 
L 108.740974 143.344823 
L 110.020834 144.497716 
L 111.300694 145.38338 
L 112.580554 147.011645 
L 113.860414 148.139862 
L 115.140274 149.868782 
L 116.420133 151.306825 
L 118.979853 153.344616 
L 120.259713 154.785757 
L 121.539573 155.899606 
L 122.819433 156.582696 
L 124.099293 157.637514 
L 125.379152 159.192482 
L 126.659012 160.976027 
L 127.938872 161.702039 
L 130.498592 164.847953 
L 131.778452 165.541162 
L 133.058311 166.731116 
L 134.338171 168.605029 
L 135.618031 169.609448 
L 136.897891 170.860103 
L 138.177751 171.696597 
L 139.457611 173.126992 
L 140.73747 174.153532 
L 143.29719 177.105111 
L 145.85691 179.213381 
L 148.41663 182.149771 
L 150.976349 185.670815 
L 153.536069 187.813029 
L 157.375648 192.380817 
L 161.215228 195.750539 
L 162.495088 196.792077 
L 163.774948 198.586127 
L 165.054808 199.652647 
L 166.334667 200.557932 
L 167.614527 201.831577 
L 168.894387 203.666728 
L 171.454107 206.194036 
L 172.733967 207.999616 
L 174.013826 209.213053 
L 175.293686 210.756717 
L 176.573546 211.618145 
L 177.853406 213.161082 
L 179.133266 214.37386 
L 180.413126 215.994542 
L 181.692985 217.328249 
L 182.972845 219.195306 
L 184.252705 220.274326 
L 185.532565 221.651274 
L 189.372145 225.052107 
L 190.652004 226.973778 
L 191.931864 228.04419 
L 194.491584 230.619991 
L 195.771444 232.313064 
L 197.051304 233.213133 
L 198.331163 234.567588 
L 202.170743 237.559042 
L 204.730463 241.458215 
L 206.010323 242.433257 
L 207.290182 244.183715 
L 208.570042 245.263151 
L 209.849902 246.638024 
L 212.409622 249.904173 
L 213.689482 251.480568 
L 214.969341 251.992682 
L 216.249201 253.137925 
L 218.808921 255.046746 
L 220.088781 257.112399 
L 221.368641 258.219333 
L 222.6485 259.631513 
L 226.48808 263.259611 
L 227.76794 264.580379 
L 229.0478 265.316679 
L 231.607519 267.621144 
L 232.887379 269.243675 
L 234.167239 270.162446 
L 235.447099 272.215398 
L 236.726959 273.499789 
L 239.286678 275.801389 
L 240.566538 277.525378 
L 241.846398 278.819609 
L 243.126258 280.399856 
L 244.406118 281.515678 
L 245.685978 283.029732 
L 246.965838 284.873 
L 248.245697 285.697643 
L 250.805417 288.97437 
L 252.085277 290.087371 
L 253.365137 291.73577 
L 254.644997 292.301246 
L 257.204716 294.524641 
L 259.764436 297.591574 
L 263.604015 301.40511 
L 264.883875 303.13367 
L 267.443595 305.01504 
L 268.723455 306.483246 
L 271.283175 308.83194 
L 272.563034 310.218115 
L 273.842894 311.231179 
L 275.122754 312.549734 
L 276.402614 314.394289 
L 277.682474 315.734872 
L 278.962334 316.823272 
L 280.242193 317.724411 
L 282.801913 320.260839 
L 285.361633 323.555956 
L 286.641493 324.700681 
L 287.921353 326.020416 
L 289.201212 327.111528 
L 290.481072 328.608581 
L 291.760932 329.56049 
L 293.040792 331.591752 
L 294.320652 332.25541 
L 295.600512 333.900499 
L 298.160231 335.808292 
L 299.440091 337.014208 
L 300.719951 338.46353 
L 301.999811 339.645683 
L 303.279671 341.011222 
L 304.55953 341.637388 
L 305.83939 343.193198 
L 310.95883 348.276372 
L 312.23869 349.736328 
L 313.518549 350.714579 
L 314.798409 352.542103 
L 316.078269 353.807189 
L 317.358129 354.890358 
L 318.637989 355.778947 
L 319.917849 356.981555 
L 321.197708 358.484877 
L 322.477568 359.555595 
L 325.037288 362.144489 
L 326.317148 363.835118 
L 330.156727 367.631223 
L 331.436587 368.436805 
L 332.716447 369.65301 
L 333.996307 371.045849 
L 335.276167 372.657364 
L 336.556027 373.652991 
L 340.395606 377.656863 
L 341.675466 378.595571 
L 342.955326 380.226653 
L 344.235186 381.361555 
L 345.515045 382.261879 
L 346.794905 383.747672 
L 351.914345 388.260981 
L 353.194205 390.032787 
L 354.474064 392.026768 
L 357.033784 394.402571 
L 358.313644 395.590736 
L 360.873364 397.239789 
L 364.712943 401.250791 
L 365.992803 402.148763 
L 367.272663 402.870124 
L 368.552523 403.797483 
L 369.832382 405.282388 
L 371.112242 406.300798 
L 373.671962 408.982483 
L 374.951822 410.741228 
L 376.231682 412.702739 
L 377.511542 414.111804 
L 380.071261 416.227386 
L 385.190701 422.546302 
L 386.47056 423.551996 
L 387.75042 425.053802 
L 390.31014 427.383544 
L 391.59 428.596973 
L 392.86986 429.618015 
L 394.14972 430.873808 
L 395.429579 432.341621 
L 399.269159 435.682186 
L 400.549019 436.550844 
L 401.828879 437.897169 
L 404.388598 439.975757 
L 408.228178 443.868208 
L 409.508038 445.696307 
L 410.787897 446.941694 
L 412.067757 447.761817 
L 413.347617 449.17744 
L 414.627477 449.834244 
L 415.907337 451.353064 
L 418.467057 453.952162 
L 419.746916 455.000734 
L 422.306636 457.798583 
L 423.586496 458.550379 
L 424.866356 460.660755 
L 433.825375 468.994029 
L 435.105235 470.344229 
L 436.385094 471.200632 
L 437.664954 472.535981 
L 438.944814 473.592712 
L 441.504534 476.048636 
L 442.784394 476.963296 
L 446.623973 481.012703 
L 447.903833 482.000909 
L 449.183693 483.619364 
L 450.463553 484.67827 
L 451.743413 485.403915 
L 454.303132 487.61652 
L 455.582992 488.88989 
L 459.422572 492.32171 
L 460.702431 493.884208 
L 461.982291 495.051938 
L 463.262151 496.802351 
L 464.542011 497.913893 
L 465.821871 499.468616 
L 467.101731 500.406783 
L 470.94131 504.807419 
L 472.22117 506.084001 
L 473.50103 506.976745 
L 476.06075 511.021062 
L 477.340609 512.363812 
L 478.620469 513.276902 
L 479.900329 514.734633 
L 481.180189 515.952449 
L 482.460049 517.416871 
L 483.739909 518.6339 
L 485.019768 519.404515 
L 486.299628 520.337579 
L 487.579488 521.74701 
L 488.859348 522.716794 
L 490.139208 524.634628 
L 491.419068 525.55837 
L 496.538507 530.683106 
L 505.497526 537.834444 
L 506.777386 539.27032 
L 508.057246 540.904449 
L 509.337105 542.314993 
L 514.456545 545.978788 
L 517.016265 548.425582 
L 518.296124 549.991412 
L 520.855844 552.134931 
L 522.135704 553.578019 
L 523.415564 554.645394 
L 524.695424 556.241309 
L 527.255143 557.865549 
L 528.535003 559.132576 
L 529.814863 560.057377 
L 531.094723 561.360828 
L 534.934302 564.865481 
L 536.214162 566.227932 
L 537.494022 567.006326 
L 538.773882 568.500117 
L 540.053742 568.935588 
L 541.333602 569.863647 
L 542.613461 571.032078 
L 543.893321 572.736002 
L 545.173181 573.618513 
L 547.732901 575.756272 
L 549.012761 577.830565 
L 550.29262 577.49036 
L 551.57248 579.178324 
L 552.85234 580.320148 
L 555.41206 583.137736 
L 556.69192 584.167635 
L 557.97178 585.757372 
L 560.531499 588.0622 
L 561.811359 589.582015 
L 563.091219 590.716375 
L 564.371079 592.223085 
L 565.650939 593.371897 
L 566.930798 595.16708 
L 569.490518 597.514877 
L 570.770378 598.857252 
L 572.050238 599.592848 
L 574.609957 603.66338 
L 577.169677 605.983654 
L 578.449537 607.577555 
L 579.729397 608.524934 
L 581.009257 609.876508 
L 582.289117 611.8375 
L 583.568976 612.856812 
L 584.848836 614.267436 
L 586.128696 615.184605 
L 587.408556 616.582273 
L 588.688416 617.703475 
L 589.968276 619.149814 
L 591.248135 620.20481 
L 592.527995 621.893334 
L 593.807855 623.043016 
L 595.087715 623.875441 
L 597.647435 626.920771 
L 598.927295 627.90751 
L 600.207154 629.322008 
L 601.487014 630.363817 
L 602.766874 631.594923 
L 604.046734 632.545083 
L 605.326594 633.771718 
L 607.886313 637.24597 
L 609.166173 638.477473 
L 610.446033 639.982527 
L 611.725893 641.08807 
L 613.005753 642.522847 
L 614.285613 644.308416 
L 615.565472 645.681167 
L 616.845332 647.246157 
L 618.125192 648.042585 
L 619.405052 649.110834 
L 620.684912 650.462191 
L 621.964772 651.319369 
L 623.244632 652.934045 
L 625.804351 656.598733 
L 627.084211 657.658443 
L 628.364071 658.456351 
L 630.923791 660.616698 
L 632.20365 662.160647 
L 633.48351 663.481325 
L 634.76337 665.593819 
L 637.32309 668.700451 
L 638.60295 670.633287 
L 641.162669 673.193422 
L 642.442529 674.604585 
L 643.722389 675.740004 
L 645.002249 676.621813 
L 646.282109 678.102897 
L 647.561969 679.083345 
L 648.841828 680.797817 
L 650.121688 681.835686 
L 651.401548 683.11071 
L 652.681408 684.15453 
L 653.961268 684.979577 
L 655.241128 685.986259 
L 656.520987 687.344256 
L 657.800847 689.882415 
L 659.080707 691.021239 
L 660.360567 692.883211 
L 662.920287 694.691418 
L 664.200147 695.931569 
L 665.480006 696.832595 
L 669.319586 700.343217 
L 670.599446 701.73104 
L 671.879306 703.691875 
L 673.159165 704.831149 
L 674.439025 705.634621 
L 676.998745 708.534543 
L 678.278605 709.400785 
L 680.838325 712.65317 
L 682.118184 713.50004 
L 683.398044 714.753061 
L 684.677904 716.299536 
L 685.957764 717.31313 
L 688.517484 720.271732 
L 689.797343 721.347827 
L 692.357063 724.070372 
L 693.636923 724.846556 
L 694.916783 725.839651 
L 696.196643 726.66788 
L 697.476502 727.82809 
L 698.756362 728.275204 
L 700.036222 729.725999 
L 701.316082 730.226409 
L 702.595942 730.859406 
L 707.715381 734.627685 
L 708.995241 735.202999 
L 710.275101 735.579349 
L 711.554961 737.11881 
L 714.11468 738.796464 
L 715.39454 739.093042 
L 716.6744 739.86329 
L 717.95426 740.256561 
L 720.51398 741.412524 
L 721.79384 741.379731 
L 723.073699 741.815536 
L 724.353559 742.065545 
L 725.633419 742.153824 
L 726.913279 742.771454 
L 728.193139 742.767359 
L 729.472999 743.298031 
L 730.752858 744.103638 
L 732.032718 743.82948 
L 733.312578 744.249692 
L 734.592438 744.308671 
L 735.872298 744.541181 
L 737.152158 745.488519 
L 738.432017 745.597203 
L 739.711877 744.812273 
L 740.991737 744.513112 
L 742.271597 744.370025 
L 743.551457 745.214434 
L 744.831317 745.045218 
L 746.111177 745.1837 
L 747.391036 744.847302 
L 748.670896 745.139367 
L 749.950756 745.274009 
L 752.510476 744.924836 
L 753.790336 744.431511 
L 755.070195 745.2206 
L 756.350055 745.423311 
L 758.909775 745.413072 
L 760.189635 745.891481 
L 761.469495 745.159676 
L 762.749355 746.04515 
L 764.029214 746.113907 
L 765.309074 745.724087 
L 767.868794 745.956089 
L 769.148654 745.84362 
L 770.428514 746.093655 
L 771.708373 745.99661 
L 774.268093 745.018875 
L 775.547953 745.546952 
L 776.827813 746.240082 
L 778.107673 746.471825 
L 779.387532 746.265431 
L 780.667392 746.40311 
L 781.947252 746.228812 
L 783.227112 746.413689 
L 784.506972 746.833245 
L 785.786832 746.918766 
L 787.066692 746.88753 
L 788.346551 746.654829 
L 789.626411 746.271572 
L 790.906271 746.36453 
L 792.186131 746.055817 
L 797.30557 746.627057 
L 799.86529 746.322241 
L 801.14515 745.875314 
L 802.42501 745.75119 
L 803.70487 745.973445 
L 804.984729 744.010999 
L 806.264589 744.248981 
L 807.544449 744.815028 
L 808.824309 744.387548 
L 810.104169 745.657444 
L 811.384029 745.481248 
L 812.663888 745.667981 
L 813.943748 746.215564 
L 815.223608 746.141418 
L 816.503468 746.920035 
L 817.783328 746.606922 
L 820.343047 746.725615 
L 821.622907 746.574269 
L 822.902767 746.619951 
L 824.182627 747.090287 
L 828.022207 746.786914 
L 829.302066 746.862084 
L 830.581926 746.662013 
L 831.861786 746.131419 
L 833.141646 746.818966 
L 836.981225 746.924362 
L 838.261085 746.508689 
L 839.540945 746.479387 
L 840.820805 746.825152 
L 842.100665 746.945655 
L 843.380525 746.882856 
L 844.660385 747.0901 
L 845.940244 746.854729 
L 847.220104 746.922844 
L 848.499964 746.644038 
L 849.779824 746.62754 
L 851.059684 746.415497 
L 852.339544 746.515091 
L 854.899263 745.330152 
L 856.179123 745.385268 
L 857.458983 745.813858 
L 858.738843 745.939239 
L 860.018703 745.215221 
L 861.298562 744.887161 
L 862.578422 745.17674 
L 863.858282 744.902552 
L 865.138142 745.071585 
L 867.697862 745.050168 
L 868.977722 745.556535 
L 871.537441 745.72037 
L 872.817301 745.203573 
L 874.097161 744.870444 
L 875.377021 744.848005 
L 876.656881 745.299273 
L 877.93674 744.602914 
L 879.2166 744.516391 
L 880.49646 744.948522 
L 881.77632 745.144039 
L 884.33604 744.957376 
L 885.6159 745.200362 
L 888.175619 745.258182 
L 889.455479 745.892324 
L 890.735339 746.17051 
L 892.015199 746.323476 
L 893.295059 746.266467 
L 894.574918 746.565985 
L 895.854778 746.711149 
L 900.974218 745.555088 
L 902.254077 745.497321 
L 903.533937 745.61436 
L 904.813797 745.038769 
L 906.093657 745.807488 
L 907.373517 746.048607 
L 908.653377 746.707125 
L 909.933237 746.827764 
L 911.213096 747.073001 
L 913.772816 745.580791 
L 915.052676 745.170291 
L 916.332536 745.831289 
L 917.612396 745.920495 
L 918.892255 745.747898 
L 920.172115 746.209699 
L 921.451975 745.575008 
L 922.731835 745.564901 
L 924.011695 746.406799 
L 925.291555 745.888019 
L 926.571415 745.12594 
L 929.131134 745.41527 
L 930.410994 745.3014 
L 931.690854 745.536042 
L 932.970714 744.562696 
L 934.250574 744.131473 
L 935.530433 744.385518 
L 936.810293 744.387101 
L 938.090153 745.106766 
L 939.370013 744.296265 
L 941.929733 744.429465 
L 943.209592 745.017969 
L 944.489452 745.266759 
L 945.769312 745.843646 
L 947.049172 745.192012 
L 948.329032 745.211117 
L 949.608892 745.474525 
L 950.888752 745.969154 
L 952.168611 745.744325 
L 953.448471 746.005142 
L 954.728331 746.123919 
L 956.008191 746.393878 
L 957.288051 745.982027 
L 958.567911 745.947499 
L 959.84777 746.138361 
L 961.12763 746.158479 
L 964.96721 745.622343 
L 966.24707 746.147225 
L 967.52693 746.947317 
L 968.806789 746.563688 
L 970.086649 746.515497 
L 971.366509 746.315011 
L 972.646369 747.111959 
L 975.206089 747.706082 
L 976.485948 747.460656 
L 979.045668 747.614092 
L 980.325528 748.140283 
L 981.605388 748.247125 
L 982.885248 747.344627 
L 984.165107 746.8776 
L 985.444967 746.978757 
L 986.724827 745.808368 
L 988.004687 746.405878 
L 989.284547 746.035133 
L 991.844267 745.811449 
L 993.124126 746.059538 
L 994.403986 745.704389 
L 995.683846 745.865584 
L 996.963706 746.450131 
L 998.243566 746.628001 
L 999.523426 747.121044 
L 1000.803285 746.751379 
L 1002.083145 746.576181 
L 1003.363005 746.719634 
L 1004.642865 746.265608 
L 1005.922725 747.046767 
L 1007.202585 746.937878 
L 1008.482445 747.183852 
L 1009.762304 746.596083 
L 1012.322024 746.909995 
L 1013.601884 746.325128 
L 1014.881744 745.974137 
L 1016.161604 746.616902 
L 1018.721323 746.105358 
L 1020.001183 745.342987 
L 1021.281043 745.677817 
L 1022.560903 745.841483 
L 1023.840763 745.763339 
L 1025.120623 745.213471 
L 1026.400482 745.697642 
L 1027.680342 745.682346 
L 1028.960202 746.252843 
L 1030.240062 745.968541 
L 1031.519922 745.93486 
L 1032.799782 745.764956 
L 1034.079641 746.232002 
L 1035.359501 745.931283 
L 1039.199081 745.846382 
L 1040.478941 746.504993 
L 1041.7588 746.726131 
L 1043.03866 746.657327 
L 1044.31852 746.791387 
L 1045.59838 746.686187 
L 1046.87824 745.990353 
L 1048.1581 745.88112 
L 1049.43796 746.031522 
L 1050.717819 746.497431 
L 1053.277539 746.776857 
L 1054.557399 746.709416 
L 1055.837259 746.13542 
L 1057.117119 746.122692 
L 1058.396978 746.233767 
L 1059.676838 746.204548 
L 1060.956698 746.583817 
L 1063.516418 746.317114 
L 1066.076137 745.933219 
L 1067.355997 746.33975 
L 1068.635857 746.271647 
L 1069.915717 746.75533 
L 1071.195577 746.803313 
L 1072.475437 747.386424 
L 1073.755297 747.005598 
L 1075.035156 747.271315 
L 1078.874736 747.232385 
L 1080.154596 747.511218 
L 1082.714315 747.201196 
L 1085.274035 746.271033 
L 1086.553895 746.439002 
L 1089.113615 747.068407 
L 1090.393475 746.666894 
L 1092.953194 746.676721 
L 1095.512914 747.241966 
L 1096.792774 747.388117 
L 1098.072634 747.281091 
L 1099.352493 746.964935 
L 1100.632353 746.793006 
L 1101.912213 747.075501 
L 1103.192073 746.684865 
L 1104.471933 746.601975 
L 1105.751793 745.924277 
L 1107.031653 746.32779 
L 1108.311512 746.449895 
L 1109.591372 745.652297 
L 1112.151092 746.511798 
L 1113.430952 746.475235 
L 1114.710812 746.10325 
L 1117.270531 745.971223 
L 1118.550391 746.884886 
L 1119.830251 746.669852 
L 1121.110111 746.846696 
L 1122.389971 746.857859 
L 1123.66983 746.735399 
L 1124.94969 746.169034 
L 1127.50941 746.250741 
L 1128.78927 746.061455 
L 1130.06913 746.020771 
L 1131.34899 745.731373 
L 1132.628849 745.297898 
L 1133.908709 745.280052 
L 1136.468429 745.723895 
L 1137.748289 746.248952 
L 1140.308008 746.823361 
L 1141.587868 746.065332 
L 1142.867728 745.738832 
L 1144.147588 745.941177 
L 1145.427448 746.746732 
L 1146.707308 746.535567 
L 1147.987167 746.054892 
L 1149.267027 745.762567 
L 1150.546887 745.249334 
L 1156.946186 745.238163 
L 1158.226046 744.612393 
L 1159.505906 744.594462 
L 1160.785766 745.204903 
L 1162.065626 746.033931 
L 1163.345486 745.79566 
L 1164.625345 745.395902 
L 1165.905205 745.563163 
L 1167.185065 745.872823 
L 1168.464925 745.561501 
L 1169.744785 746.302687 
L 1171.024645 745.545865 
L 1172.304505 745.795485 
L 1174.864224 745.190949 
L 1176.144084 745.159688 
L 1177.423944 745.340217 
L 1178.703804 744.960235 
L 1179.983664 745.401681 
L 1181.263523 745.410664 
L 1182.543383 745.133647 
L 1183.823243 745.269756 
L 1186.382963 745.221618 
L 1187.662823 745.867577 
L 1188.942683 746.165961 
L 1190.222542 746.798899 
L 1191.502402 746.781859 
L 1192.782262 747.136492 
L 1194.062122 746.92159 
L 1195.341982 747.078381 
L 1196.621842 746.146868 
L 1197.901701 746.744733 
L 1199.181561 747.184132 
L 1201.741281 746.933515 
L 1203.021141 746.866966 
L 1204.301001 746.544736 
L 1205.58086 745.408603 
L 1208.14058 745.852878 
L 1209.42044 745.970096 
L 1210.7003 745.825458 
L 1214.539879 745.907049 
L 1215.819739 745.624701 
L 1217.099599 746.405096 
L 1219.659319 746.23814 
L 1220.939179 745.865968 
L 1224.778758 746.229151 
L 1226.058618 745.292747 
L 1227.338478 745.47111 
L 1228.618338 745.521052 
L 1229.898197 744.694716 
L 1231.178057 744.578951 
L 1232.457917 744.076045 
L 1233.737777 744.649791 
L 1235.017637 744.878382 
L 1236.297497 745.368176 
L 1238.857216 744.618886 
L 1240.137076 744.1477 
L 1242.696796 744.826921 
L 1243.976656 745.503035 
L 1245.256516 745.567987 
L 1246.536375 745.952339 
L 1247.816235 745.708778 
L 1249.096095 745.238382 
L 1250.375955 745.153192 
L 1251.655815 745.370129 
L 1252.935675 745.739083 
L 1254.215535 745.634546 
L 1255.495394 745.830705 
L 1256.775254 745.573047 
L 1258.055114 745.473977 
L 1259.334974 746.182672 
L 1260.614834 746.148233 
L 1261.894694 745.86774 
L 1263.174553 745.921071 
L 1264.454413 745.8336 
L 1265.734273 745.965583 
L 1267.014133 745.589931 
L 1268.293993 745.344166 
L 1270.853713 745.171273 
L 1272.133572 745.549787 
L 1274.693292 745.904851 
L 1275.973152 745.953016 
L 1277.253012 746.153681 
L 1278.532872 746.528989 
L 1279.812731 746.433925 
L 1281.092591 746.143091 
L 1282.372451 746.544581 
L 1283.652311 747.181481 
L 1284.932171 747.657303 
L 1286.212031 748.459361 
L 1287.49189 747.955779 
L 1288.77175 747.296774 
L 1290.05161 747.655981 
L 1291.33147 747.761929 
L 1292.61133 748.042075 
L 1293.89119 747.586217 
L 1296.450909 747.438889 
L 1297.730769 747.460297 
L 1299.010629 746.771822 
L 1300.290489 747.086245 
L 1301.570349 747.260498 
L 1302.850209 746.748645 
L 1304.130068 747.092216 
L 1305.409928 746.888984 
L 1307.969648 747.089368 
L 1310.529368 746.163341 
L 1311.809228 746.086227 
L 1313.089087 746.285573 
L 1314.368947 746.076497 
L 1315.648807 745.726152 
L 1316.928667 745.90328 
L 1318.208527 745.761479 
L 1319.488387 746.300847 
L 1320.768246 746.597505 
L 1322.048106 746.075056 
L 1323.327966 746.713126 
L 1324.607826 745.652844 
L 1325.887686 745.379024 
L 1327.167546 745.290512 
L 1328.447405 744.246542 
L 1331.007125 745.243634 
L 1333.566845 745.182149 
L 1334.846705 745.595844 
L 1336.126565 744.479565 
L 1337.406424 744.995096 
L 1338.686284 744.700087 
L 1339.966144 745.002347 
L 1341.246004 744.921654 
L 1342.525864 745.621804 
L 1345.085583 746.4752 
L 1346.365443 746.125743 
L 1347.645303 746.115468 
L 1348.925163 745.670078 
L 1351.484883 745.885871 
L 1354.044602 746.255 
L 1355.324462 745.992156 
L 1356.604322 746.608076 
L 1357.884182 746.4401 
L 1359.164042 746.111315 
L 1360.443902 745.470393 
L 1361.723761 745.681523 
L 1363.003621 746.251496 
L 1364.283481 746.416897 
L 1365.563341 746.040572 
L 1366.843201 745.417394 
L 1368.123061 745.944797 
L 1369.40292 745.230851 
L 1370.68278 744.928306 
L 1371.96264 745.072455 
L 1371.96264 745.072455 
" style="fill:none;stroke:#0000ff;stroke-linecap:square;stroke-width:2.0;"/>
   </g>
   <g id="line2d_2">
    <path clip-path="url(#pa2232bf43f)" d="M 93.382656 125.109119 
L 94.662516 126.275665 
L 95.942376 128.151312 
L 97.222236 130.267029 
L 99.781955 133.334748 
L 102.341675 135.570287 
L 103.621535 137.789399 
L 106.181255 140.603651 
L 107.461115 141.70359 
L 108.740974 142.578262 
L 110.020834 144.083025 
L 111.300694 145.239438 
L 112.580554 146.846997 
L 113.860414 148.015714 
L 115.140274 149.561697 
L 116.420133 150.898616 
L 117.699993 151.75201 
L 120.259713 154.535953 
L 121.539573 156.131231 
L 122.819433 157.122586 
L 124.099293 158.566757 
L 125.379152 159.840145 
L 127.938872 162.929154 
L 129.218732 163.973821 
L 130.498592 165.570956 
L 131.778452 167.788682 
L 133.058311 169.259518 
L 135.618031 171.437593 
L 136.897891 172.31182 
L 139.457611 174.636127 
L 140.73747 176.102973 
L 142.01733 177.271895 
L 144.57705 180.489042 
L 147.13677 183.216926 
L 148.41663 183.930357 
L 150.976349 186.293355 
L 152.256209 187.616253 
L 156.095789 192.878785 
L 157.375648 194.334904 
L 158.655508 195.120304 
L 161.215228 197.547725 
L 162.495088 198.981219 
L 163.774948 199.995789 
L 165.054808 201.430594 
L 168.894387 204.169524 
L 171.454107 206.786164 
L 172.733967 208.455774 
L 174.013826 209.650106 
L 175.293686 211.174451 
L 176.573546 212.306896 
L 179.133266 215.500855 
L 180.413126 217.150038 
L 181.692985 217.9467 
L 182.972845 218.936356 
L 184.252705 220.213852 
L 185.532565 221.805329 
L 186.812425 223.065376 
L 188.092285 225.014187 
L 189.372145 226.275938 
L 191.931864 229.48896 
L 193.211724 231.060195 
L 194.491584 232.412262 
L 195.771444 233.323564 
L 197.051304 234.939434 
L 198.331163 235.867459 
L 199.611023 237.154727 
L 200.890883 238.739542 
L 202.170743 239.731147 
L 207.290182 244.785876 
L 208.570042 246.147703 
L 209.849902 247.820087 
L 211.129762 248.987648 
L 213.689482 250.93691 
L 214.969341 251.932879 
L 216.249201 253.313068 
L 217.529061 255.162433 
L 220.088781 258.404241 
L 222.6485 260.516804 
L 226.48808 264.760641 
L 227.76794 265.903935 
L 230.32766 268.83728 
L 232.887379 271.791567 
L 234.167239 273.15145 
L 235.447099 274.119895 
L 236.726959 275.620328 
L 239.286678 278.237182 
L 241.846398 280.338522 
L 243.126258 281.458282 
L 245.685978 284.21451 
L 246.965838 284.964967 
L 248.245697 285.880644 
L 252.085277 289.297296 
L 253.365137 290.975423 
L 254.644997 291.950846 
L 258.484576 296.137112 
L 259.764436 297.107941 
L 262.324156 299.880706 
L 263.604015 300.710392 
L 266.163735 303.386211 
L 267.443595 304.556499 
L 268.723455 305.266998 
L 271.283175 307.691073 
L 272.563034 308.838379 
L 273.842894 309.741663 
L 275.122754 311.259332 
L 277.682474 313.759106 
L 278.962334 314.746597 
L 280.242193 316.266922 
L 281.522053 317.195589 
L 282.801913 317.967511 
L 284.081773 319.103202 
L 285.361633 320.825629 
L 286.641493 322.276244 
L 287.921353 323.413235 
L 289.201212 324.923778 
L 290.481072 325.933402 
L 291.760932 327.104129 
L 293.040792 328.620462 
L 294.320652 329.765652 
L 295.600512 331.150394 
L 296.880371 331.931395 
L 298.160231 333.10625 
L 304.55953 340.14404 
L 305.83939 340.662405 
L 307.11925 342.15737 
L 308.39911 343.47896 
L 309.67897 345.2357 
L 310.95883 346.539346 
L 312.23869 348.313024 
L 313.518549 349.152232 
L 314.798409 350.185875 
L 316.078269 351.378869 
L 317.358129 352.211073 
L 318.637989 353.550622 
L 319.917849 354.601492 
L 322.477568 357.61286 
L 323.757428 358.727737 
L 325.037288 360.354509 
L 326.317148 361.074525 
L 327.597008 362.850083 
L 328.876868 364.183033 
L 330.156727 365.206024 
L 331.436587 366.410374 
L 332.716447 367.865667 
L 335.276167 370.312624 
L 336.556027 371.257392 
L 337.835886 372.432267 
L 339.115746 373.803781 
L 341.675466 376.104926 
L 344.235186 379.408129 
L 345.515045 380.156886 
L 346.794905 381.765192 
L 348.074765 382.739334 
L 349.354625 383.917105 
L 350.634485 385.252729 
L 351.914345 386.784419 
L 353.194205 387.790669 
L 354.474064 389.032074 
L 355.753924 390.918519 
L 357.033784 391.723991 
L 358.313644 392.81565 
L 363.433083 398.525021 
L 364.712943 400.216664 
L 365.992803 400.979233 
L 367.272663 402.269436 
L 369.832382 404.239025 
L 371.112242 405.807945 
L 372.392102 406.97244 
L 377.511542 412.736167 
L 378.791401 413.665529 
L 380.071261 415.053724 
L 381.351121 416.018064 
L 385.190701 419.244818 
L 386.47056 420.210726 
L 387.75042 420.995207 
L 389.03028 422.690728 
L 390.31014 423.681045 
L 391.59 425.081239 
L 392.86986 426.795628 
L 394.14972 427.838542 
L 395.429579 429.673985 
L 396.709439 430.723483 
L 397.989299 431.53904 
L 401.828879 435.554794 
L 404.388598 438.54889 
L 405.668458 439.690844 
L 406.948318 441.158592 
L 408.228178 442.050069 
L 410.787897 444.167625 
L 412.067757 445.450818 
L 413.347617 446.512269 
L 414.627477 447.738213 
L 415.907337 449.133995 
L 417.187197 450.050988 
L 418.467057 451.70155 
L 419.746916 452.707244 
L 421.026776 454.26857 
L 422.306636 455.234234 
L 423.586496 456.497901 
L 424.866356 457.527688 
L 427.426075 459.843305 
L 428.705935 460.426535 
L 429.985795 462.021524 
L 431.265655 463.177263 
L 433.825375 466.641738 
L 435.105235 468.590003 
L 436.385094 469.780546 
L 437.664954 471.781711 
L 440.224674 474.233293 
L 441.504534 474.859773 
L 442.784394 476.201717 
L 444.064253 477.132129 
L 445.344113 478.303793 
L 446.623973 480.38736 
L 447.903833 481.486586 
L 449.183693 482.975005 
L 451.743413 485.186693 
L 455.582992 488.34087 
L 456.862852 489.793678 
L 459.422572 493.273122 
L 463.262151 496.865477 
L 464.542011 498.316213 
L 465.821871 499.386856 
L 467.101731 501.162249 
L 468.38159 502.338725 
L 470.94131 505.399082 
L 474.78089 508.878808 
L 476.06075 510.62974 
L 477.340609 511.596288 
L 479.900329 514.445747 
L 481.180189 516.051274 
L 482.460049 517.120837 
L 483.739909 518.569927 
L 485.019768 519.67753 
L 486.299628 521.24661 
L 487.579488 522.039746 
L 490.139208 525.777513 
L 491.419068 527.572135 
L 493.978787 530.010008 
L 496.538507 533.181412 
L 497.818367 534.772787 
L 500.378087 537.347255 
L 501.657946 538.619533 
L 502.937806 539.587855 
L 504.217666 541.298695 
L 505.497526 542.613503 
L 506.777386 544.212749 
L 508.057246 545.266042 
L 510.616965 548.155053 
L 513.176685 550.840743 
L 514.456545 551.906409 
L 515.736405 553.608762 
L 517.016265 554.618775 
L 519.575984 556.90741 
L 520.855844 557.728136 
L 523.415564 560.317144 
L 524.695424 561.892115 
L 525.975283 563.006887 
L 527.255143 563.925878 
L 528.535003 565.008135 
L 529.814863 565.703675 
L 531.094723 566.606736 
L 532.374583 568.235622 
L 533.654442 569.443358 
L 536.214162 573.319237 
L 537.494022 574.42253 
L 538.773882 576.228615 
L 540.053742 577.161487 
L 542.613461 580.262274 
L 543.893321 581.657448 
L 545.173181 582.759206 
L 547.732901 585.69428 
L 554.1322 591.518923 
L 555.41206 592.642236 
L 560.531499 596.243464 
L 561.811359 597.400809 
L 563.091219 598.886459 
L 564.371079 600.157605 
L 565.650939 601.981763 
L 566.930798 603.552096 
L 570.770378 607.67201 
L 572.050238 608.831845 
L 573.330098 611.159768 
L 574.609957 612.606376 
L 575.889817 613.609645 
L 578.449537 616.750146 
L 581.009257 619.800695 
L 582.289117 620.974071 
L 584.848836 623.932415 
L 586.128696 625.108033 
L 587.408556 626.534585 
L 589.968276 628.677293 
L 591.248135 629.59332 
L 593.807855 632.4592 
L 598.927295 636.388768 
L 600.207154 637.782202 
L 601.487014 638.666217 
L 604.046734 641.951759 
L 605.326594 643.117327 
L 606.606454 644.599608 
L 607.886313 645.813902 
L 609.166173 646.620522 
L 611.725893 649.785592 
L 613.005753 650.698133 
L 615.565472 653.480948 
L 616.845332 655.631828 
L 618.125192 656.874194 
L 620.684912 658.966408 
L 621.964772 660.085079 
L 623.244632 661.871307 
L 624.524491 663.404375 
L 625.804351 665.375659 
L 628.364071 667.497637 
L 629.643931 668.901693 
L 632.20365 671.024567 
L 633.48351 671.75167 
L 641.162669 679.936073 
L 642.442529 681.587828 
L 643.722389 682.730666 
L 645.002249 684.223439 
L 646.282109 685.393934 
L 647.561969 685.856011 
L 650.121688 687.949449 
L 651.401548 688.690996 
L 652.681408 690.012651 
L 653.961268 690.906783 
L 656.520987 693.237331 
L 657.800847 694.737505 
L 659.080707 695.851006 
L 660.360567 697.638475 
L 662.920287 700.345713 
L 664.200147 701.283131 
L 666.759866 703.783683 
L 669.319586 706.647407 
L 673.159165 709.63642 
L 676.998745 713.374771 
L 678.278605 714.393553 
L 679.558465 715.780755 
L 680.838325 716.836397 
L 683.398044 719.252413 
L 684.677904 721.037389 
L 687.237624 723.442354 
L 689.797343 725.182532 
L 692.357063 727.234412 
L 693.636923 728.406986 
L 694.916783 729.745757 
L 696.196643 730.378165 
L 697.476502 731.259949 
L 698.756362 731.903108 
L 701.316082 734.25699 
L 702.595942 736.162277 
L 703.875802 736.758496 
L 706.435521 738.915561 
L 707.715381 738.976699 
L 711.554961 740.732529 
L 712.834821 741.001373 
L 715.39454 742.376466 
L 716.6744 743.222961 
L 717.95426 743.787456 
L 719.23412 743.740097 
L 720.51398 744.40776 
L 721.79384 744.329236 
L 723.073699 744.419165 
L 724.353559 743.98252 
L 726.913279 745.23497 
L 728.193139 745.236233 
L 729.472999 745.644618 
L 730.752858 745.710993 
L 732.032718 745.59513 
L 733.312578 745.697789 
L 734.592438 746.050116 
L 735.872298 746.751041 
L 737.152158 747.112408 
L 738.432017 746.395163 
L 739.711877 746.431891 
L 740.991737 746.05005 
L 742.271597 746.379982 
L 744.831317 745.959445 
L 746.111177 746.559371 
L 747.391036 746.027793 
L 748.670896 745.884526 
L 749.950756 746.402024 
L 751.230616 745.890762 
L 752.510476 745.772514 
L 753.790336 745.172298 
L 755.070195 745.714053 
L 756.350055 745.914912 
L 757.629915 745.872523 
L 758.909775 746.026453 
L 760.189635 745.828785 
L 761.469495 746.439787 
L 762.749355 746.416772 
L 764.029214 747.053077 
L 765.309074 747.019602 
L 766.588934 747.385806 
L 767.868794 747.597896 
L 770.428514 747.582725 
L 771.708373 747.619397 
L 772.988233 746.796209 
L 774.268093 747.135952 
L 775.547953 747.24748 
L 776.827813 746.434835 
L 778.107673 746.531887 
L 779.387532 746.298563 
L 780.667392 746.49007 
L 781.947252 746.505679 
L 783.227112 746.766667 
L 784.506972 746.804225 
L 787.066692 747.205526 
L 788.346551 747.774786 
L 789.626411 747.168654 
L 790.906271 746.84184 
L 792.186131 746.67366 
L 793.465991 747.070726 
L 794.745851 746.725766 
L 796.02571 747.445506 
L 797.30557 746.550685 
L 801.14515 746.900251 
L 802.42501 747.823435 
L 803.70487 747.286507 
L 804.984729 747.098296 
L 806.264589 747.161599 
L 807.544449 746.631883 
L 808.824309 746.245804 
L 811.384029 745.838131 
L 812.663888 746.171548 
L 813.943748 746.185784 
L 815.223608 745.84399 
L 816.503468 745.69499 
L 817.783328 746.47924 
L 819.063188 746.559434 
L 821.622907 746.434564 
L 822.902767 745.73439 
L 824.182627 745.629705 
L 825.462487 745.647306 
L 826.742347 745.266656 
L 828.022207 745.551164 
L 829.302066 745.560424 
L 831.861786 744.905189 
L 833.141646 745.019432 
L 834.421506 745.49829 
L 836.981225 745.330391 
L 838.261085 745.376095 
L 839.540945 745.997067 
L 840.820805 745.540701 
L 842.100665 744.748232 
L 843.380525 744.207438 
L 845.940244 744.692158 
L 847.220104 744.813923 
L 848.499964 745.286471 
L 849.779824 745.284933 
L 851.059684 745.551592 
L 852.339544 745.124466 
L 853.619403 744.830852 
L 854.899263 745.846889 
L 856.179123 745.77252 
L 857.458983 744.553938 
L 858.738843 744.940375 
L 860.018703 744.925586 
L 861.298562 745.452167 
L 862.578422 745.095313 
L 863.858282 745.50809 
L 865.138142 745.73532 
L 866.418002 745.196748 
L 867.697862 745.180147 
L 868.977722 744.838934 
L 871.537441 745.117067 
L 872.817301 744.817321 
L 874.097161 744.65477 
L 875.377021 744.907347 
L 876.656881 744.649302 
L 877.93674 745.097416 
L 879.2166 744.68317 
L 880.49646 744.890902 
L 881.77632 744.844264 
L 883.05618 745.132903 
L 885.6159 745.38072 
L 886.895759 745.144663 
L 889.455479 746.521154 
L 890.735339 746.705134 
L 892.015199 746.58112 
L 893.295059 747.021641 
L 894.574918 746.945508 
L 895.854778 746.544863 
L 897.134638 746.267803 
L 898.414498 745.718185 
L 900.974218 746.546023 
L 902.254077 746.477049 
L 903.533937 746.082415 
L 904.813797 746.113317 
L 906.093657 745.705252 
L 907.373517 744.980458 
L 908.653377 744.807853 
L 909.933237 745.230693 
L 911.213096 745.466556 
L 912.492956 744.724562 
L 913.772816 745.237884 
L 915.052676 744.628365 
L 916.332536 744.746732 
L 917.612396 745.382842 
L 918.892255 745.241132 
L 920.172115 745.660289 
L 922.731835 746.014284 
L 924.011695 746.573549 
L 925.291555 746.898818 
L 926.571415 747.361155 
L 927.851274 747.10075 
L 929.131134 747.287592 
L 930.410994 746.743856 
L 931.690854 746.654715 
L 932.970714 745.764054 
L 934.250574 746.065518 
L 935.530433 746.920218 
L 936.810293 746.649393 
L 938.090153 746.579582 
L 939.370013 746.35403 
L 943.209592 746.210288 
L 944.489452 745.674807 
L 945.769312 746.110458 
L 948.329032 746.60419 
L 949.608892 746.266453 
L 950.888752 745.613531 
L 952.168611 746.237909 
L 953.448471 746.29237 
L 954.728331 745.886739 
L 956.008191 745.870927 
L 957.288051 744.760686 
L 961.12763 746.305055 
L 962.40749 745.836177 
L 963.68735 746.178954 
L 964.96721 746.731794 
L 966.24707 746.643974 
L 967.52693 747.192135 
L 968.806789 747.436674 
L 970.086649 747.292438 
L 971.366509 746.924061 
L 975.206089 747.126521 
L 976.485948 747.325245 
L 977.765808 747.082756 
L 979.045668 747.161139 
L 980.325528 747.369133 
L 984.165107 746.321055 
L 985.444967 745.769865 
L 986.724827 745.629591 
L 988.004687 745.375811 
L 989.284547 745.984033 
L 990.564407 745.970228 
L 991.844267 746.133654 
L 993.124126 746.479882 
L 995.683846 746.222796 
L 996.963706 747.112161 
L 998.243566 747.468209 
L 999.523426 747.055064 
L 1000.803285 747.297432 
L 1002.083145 747.1729 
L 1003.363005 747.560272 
L 1004.642865 747.301304 
L 1007.202585 746.623993 
L 1008.482445 746.398275 
L 1009.762304 745.348148 
L 1011.042164 745.413573 
L 1013.601884 745.093079 
L 1014.881744 745.13744 
L 1016.161604 745.799111 
L 1017.441463 745.594226 
L 1018.721323 745.16843 
L 1020.001183 745.172786 
L 1021.281043 746.041117 
L 1022.560903 746.092599 
L 1023.840763 746.650502 
L 1025.120623 746.854387 
L 1026.400482 746.851199 
L 1027.680342 747.692061 
L 1028.960202 747.285979 
L 1030.240062 747.216625 
L 1031.519922 746.930916 
L 1034.079641 747.745551 
L 1035.359501 747.497351 
L 1036.639361 746.984169 
L 1037.919221 747.226729 
L 1039.199081 747.228725 
L 1040.478941 747.856094 
L 1041.7588 747.615638 
L 1043.03866 747.22893 
L 1044.31852 747.040351 
L 1045.59838 747.451178 
L 1046.87824 747.285957 
L 1048.1581 746.928251 
L 1050.717819 748.394427 
L 1051.997679 748.027374 
L 1053.277539 747.853334 
L 1054.557399 747.315014 
L 1055.837259 747.267639 
L 1057.117119 746.305589 
L 1058.396978 746.365611 
L 1059.676838 745.293664 
L 1060.956698 745.386737 
L 1062.236558 745.274899 
L 1063.516418 745.699547 
L 1064.796278 745.890357 
L 1066.076137 745.798853 
L 1067.355997 745.470213 
L 1069.915717 746.222837 
L 1071.195577 746.039469 
L 1072.475437 745.641105 
L 1073.755297 745.476701 
L 1075.035156 745.508797 
L 1076.315016 746.238309 
L 1077.594876 746.129721 
L 1080.154596 745.642636 
L 1081.434456 745.845134 
L 1082.714315 744.69217 
L 1083.994175 745.143258 
L 1085.274035 745.179447 
L 1086.553895 745.078732 
L 1087.833755 745.412316 
L 1089.113615 745.603057 
L 1090.393475 745.675489 
L 1091.673334 746.190749 
L 1092.953194 746.072109 
L 1094.233054 745.507545 
L 1095.512914 745.735969 
L 1096.792774 746.165793 
L 1098.072634 745.85697 
L 1099.352493 746.378836 
L 1101.912213 746.613317 
L 1103.192073 746.352475 
L 1104.471933 746.23095 
L 1105.751793 746.75664 
L 1107.031653 746.661614 
L 1108.311512 745.875158 
L 1112.151092 746.570912 
L 1113.430952 746.152934 
L 1115.990671 746.881322 
L 1118.550391 746.712675 
L 1119.830251 746.81653 
L 1121.110111 747.322582 
L 1122.389971 746.427977 
L 1123.66983 746.819271 
L 1124.94969 745.903791 
L 1126.22955 746.351663 
L 1127.50941 746.347997 
L 1128.78927 747.180054 
L 1130.06913 746.975916 
L 1131.34899 745.890985 
L 1132.628849 746.002892 
L 1133.908709 746.269316 
L 1135.188569 746.19869 
L 1136.468429 746.508227 
L 1139.028149 746.632572 
L 1140.308008 745.998944 
L 1141.587868 746.446334 
L 1142.867728 746.611348 
L 1145.427448 747.147107 
L 1146.707308 745.995394 
L 1147.987167 745.003092 
L 1149.267027 745.335962 
L 1150.546887 745.264269 
L 1151.826747 745.464445 
L 1153.106607 745.526581 
L 1155.666327 744.992692 
L 1156.946186 745.123513 
L 1158.226046 744.664458 
L 1159.505906 745.016411 
L 1160.785766 744.929995 
L 1162.065626 746.065285 
L 1163.345486 745.828078 
L 1164.625345 745.770335 
L 1165.905205 745.515038 
L 1167.185065 745.620467 
L 1168.464925 746.19383 
L 1169.744785 746.372608 
L 1171.024645 746.759189 
L 1173.584364 745.960973 
L 1174.864224 746.515308 
L 1177.423944 746.135883 
L 1178.703804 746.393435 
L 1179.983664 745.836917 
L 1181.263523 745.785461 
L 1182.543383 745.541612 
L 1183.823243 745.757758 
L 1188.942683 745.558832 
L 1190.222542 746.117042 
L 1191.502402 746.098428 
L 1194.062122 746.508724 
L 1195.341982 746.068397 
L 1196.621842 746.626057 
L 1197.901701 745.884892 
L 1199.181561 745.721555 
L 1200.461421 745.999718 
L 1201.741281 745.613594 
L 1203.021141 746.16954 
L 1204.301001 746.337606 
L 1205.58086 746.648902 
L 1206.86072 747.164688 
L 1208.14058 747.368061 
L 1209.42044 747.048396 
L 1210.7003 747.477197 
L 1211.98016 745.694402 
L 1213.26002 745.139559 
L 1214.539879 745.05954 
L 1218.379459 745.861259 
L 1219.659319 745.726896 
L 1220.939179 745.951207 
L 1222.219038 745.207982 
L 1223.498898 745.28644 
L 1227.338478 746.030872 
L 1229.898197 745.749081 
L 1231.178057 746.188391 
L 1232.457917 745.846369 
L 1233.737777 745.100948 
L 1235.017637 744.959058 
L 1236.297497 745.316013 
L 1237.577357 746.097793 
L 1238.857216 746.284016 
L 1240.137076 745.991469 
L 1241.416936 745.896892 
L 1243.976656 746.429122 
L 1245.256516 745.715334 
L 1246.536375 745.822074 
L 1247.816235 746.18463 
L 1249.096095 745.628709 
L 1250.375955 745.284145 
L 1251.655815 745.286159 
L 1254.215535 746.231248 
L 1256.775254 745.843107 
L 1258.055114 745.84312 
L 1259.334974 746.351058 
L 1260.614834 745.506795 
L 1261.894694 745.289553 
L 1263.174553 744.721646 
L 1264.454413 745.3006 
L 1265.734273 745.484037 
L 1267.014133 744.971098 
L 1268.293993 744.992084 
L 1269.573853 745.186753 
L 1270.853713 744.805054 
L 1272.133572 745.008456 
L 1274.693292 745.953812 
L 1275.973152 745.439534 
L 1278.532872 744.953712 
L 1279.812731 745.68354 
L 1281.092591 745.321103 
L 1282.372451 745.223393 
L 1283.652311 745.269665 
L 1284.932171 745.136779 
L 1286.212031 745.269677 
L 1287.49189 745.287643 
L 1288.77175 745.728281 
L 1290.05161 745.737214 
L 1291.33147 746.175156 
L 1292.61133 746.253911 
L 1293.89119 745.874831 
L 1296.450909 745.56152 
L 1297.730769 745.834203 
L 1300.290489 745.8353 
L 1301.570349 745.522243 
L 1302.850209 745.972265 
L 1304.130068 746.052085 
L 1306.689788 745.975621 
L 1307.969648 746.014509 
L 1309.249508 746.331111 
L 1310.529368 746.505889 
L 1311.809228 746.918261 
L 1313.089087 746.958821 
L 1314.368947 746.770877 
L 1315.648807 746.331832 
L 1316.928667 746.509452 
L 1318.208527 746.965009 
L 1319.488387 746.899344 
L 1320.768246 747.210153 
L 1322.048106 746.634191 
L 1323.327966 746.528034 
L 1324.607826 747.010575 
L 1331.007125 746.374532 
L 1332.286985 746.810748 
L 1333.566845 747.095214 
L 1334.846705 747.59092 
L 1336.126565 747.147152 
L 1337.406424 747.192233 
L 1339.966144 746.428178 
L 1341.246004 746.526708 
L 1343.805724 746.274831 
L 1347.645303 746.916047 
L 1348.925163 746.927165 
L 1350.205023 746.79584 
L 1351.484883 747.240674 
L 1352.764743 746.312093 
L 1354.044602 746.974115 
L 1355.324462 746.967523 
L 1356.604322 746.51238 
L 1357.884182 746.280091 
L 1360.443902 746.310415 
L 1361.723761 745.872361 
L 1363.003621 744.970727 
L 1364.283481 745.690378 
L 1365.563341 745.529472 
L 1369.40292 745.933941 
L 1371.96264 745.805851 
L 1371.96264 745.805851 
" style="fill:none;stroke:#008000;stroke-linecap:square;stroke-width:2.0;"/>
   </g>
   <g id="patch_3">
    <path d="M 93.382656 57.915781 
L 1373.2425 57.915781 
" style="fill:none;stroke:#000000;stroke-linecap:square;stroke-linejoin:miter;"/>
   </g>
   <g id="patch_4">
    <path d="M 1373.2425 770.338125 
L 1373.2425 57.915781 
" style="fill:none;stroke:#000000;stroke-linecap:square;stroke-linejoin:miter;"/>
   </g>
   <g id="patch_5">
    <path d="M 93.382656 770.338125 
L 1373.2425 770.338125 
" style="fill:none;stroke:#000000;stroke-linecap:square;stroke-linejoin:miter;"/>
   </g>
   <g id="patch_6">
    <path d="M 93.382656 770.338125 
L 93.382656 57.915781 
" style="fill:none;stroke:#000000;stroke-linecap:square;stroke-linejoin:miter;"/>
   </g>
   <g id="matplotlib.axis_1">
    <g id="xtick_1">
     <g id="line2d_3">
      <defs>
       <path d="M 0 0 
L 0 -4 
" id="m724bd6790c" style="stroke:#000000;stroke-width:0.5;"/>
      </defs>
      <g>
       <use style="stroke:#000000;stroke-width:0.5;" x="93.38265625" xlink:href="#m724bd6790c" y="770.338125"/>
      </g>
     </g>
     <g id="line2d_4">
      <defs>
       <path d="M 0 0 
L 0 4 
" id="m11217a6274" style="stroke:#000000;stroke-width:0.5;"/>
      </defs>
      <g>
       <use style="stroke:#000000;stroke-width:0.5;" x="93.38265625" xlink:href="#m11217a6274" y="57.91578125"/>
      </g>
     </g>
     <g id="text_1">
      <!-- 0 -->
      <defs>
       <path d="M 31.78125 66.40625 
Q 24.171875 66.40625 20.328125 58.90625 
Q 16.5 51.421875 16.5 36.375 
Q 16.5 21.390625 20.328125 13.890625 
Q 24.171875 6.390625 31.78125 6.390625 
Q 39.453125 6.390625 43.28125 13.890625 
Q 47.125 21.390625 47.125 36.375 
Q 47.125 51.421875 43.28125 58.90625 
Q 39.453125 66.40625 31.78125 66.40625 
M 31.78125 74.21875 
Q 44.046875 74.21875 50.515625 64.515625 
Q 56.984375 54.828125 56.984375 36.375 
Q 56.984375 17.96875 50.515625 8.265625 
Q 44.046875 -1.421875 31.78125 -1.421875 
Q 19.53125 -1.421875 13.0625 8.265625 
Q 6.59375 17.96875 6.59375 36.375 
Q 6.59375 54.828125 13.0625 64.515625 
Q 19.53125 74.21875 31.78125 74.21875 
" id="BitstreamVeraSans-Roman-30"/>
      </defs>
      <g transform="translate(83.83890625 797.1334375)scale(0.3 -0.3)">
       <use xlink:href="#BitstreamVeraSans-Roman-30"/>
      </g>
     </g>
    </g>
    <g id="xtick_2">
     <g id="line2d_5">
      <g>
       <use style="stroke:#000000;stroke-width:0.5;" x="349.354625" xlink:href="#m724bd6790c" y="770.338125"/>
      </g>
     </g>
     <g id="line2d_6">
      <g>
       <use style="stroke:#000000;stroke-width:0.5;" x="349.354625" xlink:href="#m11217a6274" y="57.91578125"/>
      </g>
     </g>
     <g id="text_2">
      <!-- 200 -->
      <defs>
       <path d="M 19.1875 8.296875 
L 53.609375 8.296875 
L 53.609375 0 
L 7.328125 0 
L 7.328125 8.296875 
Q 12.9375 14.109375 22.625 23.890625 
Q 32.328125 33.6875 34.8125 36.53125 
Q 39.546875 41.84375 41.421875 45.53125 
Q 43.3125 49.21875 43.3125 52.78125 
Q 43.3125 58.59375 39.234375 62.25 
Q 35.15625 65.921875 28.609375 65.921875 
Q 23.96875 65.921875 18.8125 64.3125 
Q 13.671875 62.703125 7.8125 59.421875 
L 7.8125 69.390625 
Q 13.765625 71.78125 18.9375 73 
Q 24.125 74.21875 28.421875 74.21875 
Q 39.75 74.21875 46.484375 68.546875 
Q 53.21875 62.890625 53.21875 53.421875 
Q 53.21875 48.921875 51.53125 44.890625 
Q 49.859375 40.875 45.40625 35.40625 
Q 44.1875 33.984375 37.640625 27.21875 
Q 31.109375 20.453125 19.1875 8.296875 
" id="BitstreamVeraSans-Roman-32"/>
      </defs>
      <g transform="translate(320.723375 797.1334375)scale(0.3 -0.3)">
       <use xlink:href="#BitstreamVeraSans-Roman-32"/>
       <use x="63.623046875" xlink:href="#BitstreamVeraSans-Roman-30"/>
       <use x="127.24609375" xlink:href="#BitstreamVeraSans-Roman-30"/>
      </g>
     </g>
    </g>
    <g id="xtick_3">
     <g id="line2d_7">
      <g>
       <use style="stroke:#000000;stroke-width:0.5;" x="605.32659375" xlink:href="#m724bd6790c" y="770.338125"/>
      </g>
     </g>
     <g id="line2d_8">
      <g>
       <use style="stroke:#000000;stroke-width:0.5;" x="605.32659375" xlink:href="#m11217a6274" y="57.91578125"/>
      </g>
     </g>
     <g id="text_3">
      <!-- 400 -->
      <defs>
       <path d="M 37.796875 64.3125 
L 12.890625 25.390625 
L 37.796875 25.390625 
z
M 35.203125 72.90625 
L 47.609375 72.90625 
L 47.609375 25.390625 
L 58.015625 25.390625 
L 58.015625 17.1875 
L 47.609375 17.1875 
L 47.609375 0 
L 37.796875 0 
L 37.796875 17.1875 
L 4.890625 17.1875 
L 4.890625 26.703125 
z
" id="BitstreamVeraSans-Roman-34"/>
      </defs>
      <g transform="translate(576.69534375 797.1334375)scale(0.3 -0.3)">
       <use xlink:href="#BitstreamVeraSans-Roman-34"/>
       <use x="63.623046875" xlink:href="#BitstreamVeraSans-Roman-30"/>
       <use x="127.24609375" xlink:href="#BitstreamVeraSans-Roman-30"/>
      </g>
     </g>
    </g>
    <g id="xtick_4">
     <g id="line2d_9">
      <g>
       <use style="stroke:#000000;stroke-width:0.5;" x="861.2985625" xlink:href="#m724bd6790c" y="770.338125"/>
      </g>
     </g>
     <g id="line2d_10">
      <g>
       <use style="stroke:#000000;stroke-width:0.5;" x="861.2985625" xlink:href="#m11217a6274" y="57.91578125"/>
      </g>
     </g>
     <g id="text_4">
      <!-- 600 -->
      <defs>
       <path d="M 33.015625 40.375 
Q 26.375 40.375 22.484375 35.828125 
Q 18.609375 31.296875 18.609375 23.390625 
Q 18.609375 15.53125 22.484375 10.953125 
Q 26.375 6.390625 33.015625 6.390625 
Q 39.65625 6.390625 43.53125 10.953125 
Q 47.40625 15.53125 47.40625 23.390625 
Q 47.40625 31.296875 43.53125 35.828125 
Q 39.65625 40.375 33.015625 40.375 
M 52.59375 71.296875 
L 52.59375 62.3125 
Q 48.875 64.0625 45.09375 64.984375 
Q 41.3125 65.921875 37.59375 65.921875 
Q 27.828125 65.921875 22.671875 59.328125 
Q 17.53125 52.734375 16.796875 39.40625 
Q 19.671875 43.65625 24.015625 45.921875 
Q 28.375 48.1875 33.59375 48.1875 
Q 44.578125 48.1875 50.953125 41.515625 
Q 57.328125 34.859375 57.328125 23.390625 
Q 57.328125 12.15625 50.6875 5.359375 
Q 44.046875 -1.421875 33.015625 -1.421875 
Q 20.359375 -1.421875 13.671875 8.265625 
Q 6.984375 17.96875 6.984375 36.375 
Q 6.984375 53.65625 15.1875 63.9375 
Q 23.390625 74.21875 37.203125 74.21875 
Q 40.921875 74.21875 44.703125 73.484375 
Q 48.484375 72.75 52.59375 71.296875 
" id="BitstreamVeraSans-Roman-36"/>
      </defs>
      <g transform="translate(832.6673125 797.1334375)scale(0.3 -0.3)">
       <use xlink:href="#BitstreamVeraSans-Roman-36"/>
       <use x="63.623046875" xlink:href="#BitstreamVeraSans-Roman-30"/>
       <use x="127.24609375" xlink:href="#BitstreamVeraSans-Roman-30"/>
      </g>
     </g>
    </g>
    <g id="xtick_5">
     <g id="line2d_11">
      <g>
       <use style="stroke:#000000;stroke-width:0.5;" x="1117.27053125" xlink:href="#m724bd6790c" y="770.338125"/>
      </g>
     </g>
     <g id="line2d_12">
      <g>
       <use style="stroke:#000000;stroke-width:0.5;" x="1117.27053125" xlink:href="#m11217a6274" y="57.91578125"/>
      </g>
     </g>
     <g id="text_5">
      <!-- 800 -->
      <defs>
       <path d="M 31.78125 34.625 
Q 24.75 34.625 20.71875 30.859375 
Q 16.703125 27.09375 16.703125 20.515625 
Q 16.703125 13.921875 20.71875 10.15625 
Q 24.75 6.390625 31.78125 6.390625 
Q 38.8125 6.390625 42.859375 10.171875 
Q 46.921875 13.96875 46.921875 20.515625 
Q 46.921875 27.09375 42.890625 30.859375 
Q 38.875 34.625 31.78125 34.625 
M 21.921875 38.8125 
Q 15.578125 40.375 12.03125 44.71875 
Q 8.5 49.078125 8.5 55.328125 
Q 8.5 64.0625 14.71875 69.140625 
Q 20.953125 74.21875 31.78125 74.21875 
Q 42.671875 74.21875 48.875 69.140625 
Q 55.078125 64.0625 55.078125 55.328125 
Q 55.078125 49.078125 51.53125 44.71875 
Q 48 40.375 41.703125 38.8125 
Q 48.828125 37.15625 52.796875 32.3125 
Q 56.78125 27.484375 56.78125 20.515625 
Q 56.78125 9.90625 50.3125 4.234375 
Q 43.84375 -1.421875 31.78125 -1.421875 
Q 19.734375 -1.421875 13.25 4.234375 
Q 6.78125 9.90625 6.78125 20.515625 
Q 6.78125 27.484375 10.78125 32.3125 
Q 14.796875 37.15625 21.921875 38.8125 
M 18.3125 54.390625 
Q 18.3125 48.734375 21.84375 45.5625 
Q 25.390625 42.390625 31.78125 42.390625 
Q 38.140625 42.390625 41.71875 45.5625 
Q 45.3125 48.734375 45.3125 54.390625 
Q 45.3125 60.0625 41.71875 63.234375 
Q 38.140625 66.40625 31.78125 66.40625 
Q 25.390625 66.40625 21.84375 63.234375 
Q 18.3125 60.0625 18.3125 54.390625 
" id="BitstreamVeraSans-Roman-38"/>
      </defs>
      <g transform="translate(1088.63928125 797.1334375)scale(0.3 -0.3)">
       <use xlink:href="#BitstreamVeraSans-Roman-38"/>
       <use x="63.623046875" xlink:href="#BitstreamVeraSans-Roman-30"/>
       <use x="127.24609375" xlink:href="#BitstreamVeraSans-Roman-30"/>
      </g>
     </g>
    </g>
    <g id="xtick_6">
     <g id="line2d_13">
      <g>
       <use style="stroke:#000000;stroke-width:0.5;" x="1373.2425" xlink:href="#m724bd6790c" y="770.338125"/>
      </g>
     </g>
     <g id="line2d_14">
      <g>
       <use style="stroke:#000000;stroke-width:0.5;" x="1373.2425" xlink:href="#m11217a6274" y="57.91578125"/>
      </g>
     </g>
     <g id="text_6">
      <!-- 1000 -->
      <defs>
       <path d="M 12.40625 8.296875 
L 28.515625 8.296875 
L 28.515625 63.921875 
L 10.984375 60.40625 
L 10.984375 69.390625 
L 28.421875 72.90625 
L 38.28125 72.90625 
L 38.28125 8.296875 
L 54.390625 8.296875 
L 54.390625 0 
L 12.40625 0 
z
" id="BitstreamVeraSans-Roman-31"/>
      </defs>
      <g transform="translate(1335.0675 797.1334375)scale(0.3 -0.3)">
       <use xlink:href="#BitstreamVeraSans-Roman-31"/>
       <use x="63.623046875" xlink:href="#BitstreamVeraSans-Roman-30"/>
       <use x="127.24609375" xlink:href="#BitstreamVeraSans-Roman-30"/>
       <use x="190.869140625" xlink:href="#BitstreamVeraSans-Roman-30"/>
      </g>
     </g>
    </g>
    <g id="text_7">
     <!-- iterations -->
     <defs>
      <path d="M 54.890625 33.015625 
L 54.890625 0 
L 45.90625 0 
L 45.90625 32.71875 
Q 45.90625 40.484375 42.875 44.328125 
Q 39.84375 48.1875 33.796875 48.1875 
Q 26.515625 48.1875 22.3125 43.546875 
Q 18.109375 38.921875 18.109375 30.90625 
L 18.109375 0 
L 9.078125 0 
L 9.078125 54.6875 
L 18.109375 54.6875 
L 18.109375 46.1875 
Q 21.34375 51.125 25.703125 53.5625 
Q 30.078125 56 35.796875 56 
Q 45.21875 56 50.046875 50.171875 
Q 54.890625 44.34375 54.890625 33.015625 
" id="BitstreamVeraSans-Roman-6e"/>
      <path d="M 34.28125 27.484375 
Q 23.390625 27.484375 19.1875 25 
Q 14.984375 22.515625 14.984375 16.5 
Q 14.984375 11.71875 18.140625 8.90625 
Q 21.296875 6.109375 26.703125 6.109375 
Q 34.1875 6.109375 38.703125 11.40625 
Q 43.21875 16.703125 43.21875 25.484375 
L 43.21875 27.484375 
z
M 52.203125 31.203125 
L 52.203125 0 
L 43.21875 0 
L 43.21875 8.296875 
Q 40.140625 3.328125 35.546875 0.953125 
Q 30.953125 -1.421875 24.3125 -1.421875 
Q 15.921875 -1.421875 10.953125 3.296875 
Q 6 8.015625 6 15.921875 
Q 6 25.140625 12.171875 29.828125 
Q 18.359375 34.515625 30.609375 34.515625 
L 43.21875 34.515625 
L 43.21875 35.40625 
Q 43.21875 41.609375 39.140625 45 
Q 35.0625 48.390625 27.6875 48.390625 
Q 23 48.390625 18.546875 47.265625 
Q 14.109375 46.140625 10.015625 43.890625 
L 10.015625 52.203125 
Q 14.9375 54.109375 19.578125 55.046875 
Q 24.21875 56 28.609375 56 
Q 40.484375 56 46.34375 49.84375 
Q 52.203125 43.703125 52.203125 31.203125 
" id="BitstreamVeraSans-Roman-61"/>
      <path d="M 30.609375 48.390625 
Q 23.390625 48.390625 19.1875 42.75 
Q 14.984375 37.109375 14.984375 27.296875 
Q 14.984375 17.484375 19.15625 11.84375 
Q 23.34375 6.203125 30.609375 6.203125 
Q 37.796875 6.203125 41.984375 11.859375 
Q 46.1875 17.53125 46.1875 27.296875 
Q 46.1875 37.015625 41.984375 42.703125 
Q 37.796875 48.390625 30.609375 48.390625 
M 30.609375 56 
Q 42.328125 56 49.015625 48.375 
Q 55.71875 40.765625 55.71875 27.296875 
Q 55.71875 13.875 49.015625 6.21875 
Q 42.328125 -1.421875 30.609375 -1.421875 
Q 18.84375 -1.421875 12.171875 6.21875 
Q 5.515625 13.875 5.515625 27.296875 
Q 5.515625 40.765625 12.171875 48.375 
Q 18.84375 56 30.609375 56 
" id="BitstreamVeraSans-Roman-6f"/>
      <path d="M 9.421875 54.6875 
L 18.40625 54.6875 
L 18.40625 0 
L 9.421875 0 
z
M 9.421875 75.984375 
L 18.40625 75.984375 
L 18.40625 64.59375 
L 9.421875 64.59375 
z
" id="BitstreamVeraSans-Roman-69"/>
      <path d="M 56.203125 29.59375 
L 56.203125 25.203125 
L 14.890625 25.203125 
Q 15.484375 15.921875 20.484375 11.0625 
Q 25.484375 6.203125 34.421875 6.203125 
Q 39.59375 6.203125 44.453125 7.46875 
Q 49.3125 8.734375 54.109375 11.28125 
L 54.109375 2.78125 
Q 49.265625 0.734375 44.1875 -0.34375 
Q 39.109375 -1.421875 33.890625 -1.421875 
Q 20.796875 -1.421875 13.15625 6.1875 
Q 5.515625 13.8125 5.515625 26.8125 
Q 5.515625 40.234375 12.765625 48.109375 
Q 20.015625 56 32.328125 56 
Q 43.359375 56 49.78125 48.890625 
Q 56.203125 41.796875 56.203125 29.59375 
M 47.21875 32.234375 
Q 47.125 39.59375 43.09375 43.984375 
Q 39.0625 48.390625 32.421875 48.390625 
Q 24.90625 48.390625 20.390625 44.140625 
Q 15.875 39.890625 15.1875 32.171875 
z
" id="BitstreamVeraSans-Roman-65"/>
      <path d="M 18.3125 70.21875 
L 18.3125 54.6875 
L 36.8125 54.6875 
L 36.8125 47.703125 
L 18.3125 47.703125 
L 18.3125 18.015625 
Q 18.3125 11.328125 20.140625 9.421875 
Q 21.96875 7.515625 27.59375 7.515625 
L 36.8125 7.515625 
L 36.8125 0 
L 27.59375 0 
Q 17.1875 0 13.234375 3.875 
Q 9.28125 7.765625 9.28125 18.015625 
L 9.28125 47.703125 
L 2.6875 47.703125 
L 2.6875 54.6875 
L 9.28125 54.6875 
L 9.28125 70.21875 
z
" id="BitstreamVeraSans-Roman-74"/>
      <path d="M 41.109375 46.296875 
Q 39.59375 47.171875 37.8125 47.578125 
Q 36.03125 48 33.890625 48 
Q 26.265625 48 22.1875 43.046875 
Q 18.109375 38.09375 18.109375 28.8125 
L 18.109375 0 
L 9.078125 0 
L 9.078125 54.6875 
L 18.109375 54.6875 
L 18.109375 46.1875 
Q 20.953125 51.171875 25.484375 53.578125 
Q 30.03125 56 36.53125 56 
Q 37.453125 56 38.578125 55.875 
Q 39.703125 55.765625 41.0625 55.515625 
z
" id="BitstreamVeraSans-Roman-72"/>
      <path d="M 44.28125 53.078125 
L 44.28125 44.578125 
Q 40.484375 46.53125 36.375 47.5 
Q 32.28125 48.484375 27.875 48.484375 
Q 21.1875 48.484375 17.84375 46.4375 
Q 14.5 44.390625 14.5 40.28125 
Q 14.5 37.15625 16.890625 35.375 
Q 19.28125 33.59375 26.515625 31.984375 
L 29.59375 31.296875 
Q 39.15625 29.25 43.1875 25.515625 
Q 47.21875 21.78125 47.21875 15.09375 
Q 47.21875 7.46875 41.1875 3.015625 
Q 35.15625 -1.421875 24.609375 -1.421875 
Q 20.21875 -1.421875 15.453125 -0.5625 
Q 10.6875 0.296875 5.421875 2 
L 5.421875 11.28125 
Q 10.40625 8.6875 15.234375 7.390625 
Q 20.0625 6.109375 24.8125 6.109375 
Q 31.15625 6.109375 34.5625 8.28125 
Q 37.984375 10.453125 37.984375 14.40625 
Q 37.984375 18.0625 35.515625 20.015625 
Q 33.0625 21.96875 24.703125 23.78125 
L 21.578125 24.515625 
Q 13.234375 26.265625 9.515625 29.90625 
Q 5.8125 33.546875 5.8125 39.890625 
Q 5.8125 47.609375 11.28125 51.796875 
Q 16.75 56 26.8125 56 
Q 31.78125 56 36.171875 55.265625 
Q 40.578125 54.546875 44.28125 53.078125 
" id="BitstreamVeraSans-Roman-73"/>
     </defs>
     <g transform="translate(662.130546875 831.1678125)scale(0.3 -0.3)">
      <use xlink:href="#BitstreamVeraSans-Roman-69"/>
      <use x="27.783203125" xlink:href="#BitstreamVeraSans-Roman-74"/>
      <use x="66.9921875" xlink:href="#BitstreamVeraSans-Roman-65"/>
      <use x="128.515625" xlink:href="#BitstreamVeraSans-Roman-72"/>
      <use x="169.62890625" xlink:href="#BitstreamVeraSans-Roman-61"/>
      <use x="230.908203125" xlink:href="#BitstreamVeraSans-Roman-74"/>
      <use x="270.1171875" xlink:href="#BitstreamVeraSans-Roman-69"/>
      <use x="297.900390625" xlink:href="#BitstreamVeraSans-Roman-6f"/>
      <use x="359.08203125" xlink:href="#BitstreamVeraSans-Roman-6e"/>
      <use x="422.4609375" xlink:href="#BitstreamVeraSans-Roman-73"/>
     </g>
    </g>
   </g>
   <g id="matplotlib.axis_2">
    <g id="ytick_1">
     <g id="line2d_15">
      <defs>
       <path d="M 0 0 
L 4 0 
" id="mced25fe334" style="stroke:#000000;stroke-width:0.5;"/>
      </defs>
      <g>
       <use style="stroke:#000000;stroke-width:0.5;" x="93.38265625" xlink:href="#mced25fe334" y="770.338125"/>
      </g>
     </g>
     <g id="line2d_16">
      <defs>
       <path d="M 0 0 
L -4 0 
" id="m27f02a9249" style="stroke:#000000;stroke-width:0.5;"/>
      </defs>
      <g>
       <use style="stroke:#000000;stroke-width:0.5;" x="1373.2425" xlink:href="#m27f02a9249" y="770.338125"/>
      </g>
     </g>
     <g id="text_8">
      <!-- 60 -->
      <defs>
       <path d="M 10.59375 35.5 
L 73.1875 35.5 
L 73.1875 27.203125 
L 10.59375 27.203125 
z
" id="BitstreamVeraSans-Roman-2212"/>
      </defs>
      <g transform="translate(26.06859375 778.61625)scale(0.3 -0.3)">
       <use xlink:href="#BitstreamVeraSans-Roman-2212"/>
       <use x="83.7890625" xlink:href="#BitstreamVeraSans-Roman-36"/>
       <use x="147.412109375" xlink:href="#BitstreamVeraSans-Roman-30"/>
      </g>
     </g>
    </g>
    <g id="ytick_2">
     <g id="line2d_17">
      <g>
       <use style="stroke:#000000;stroke-width:0.5;" x="93.38265625" xlink:href="#mced25fe334" y="681.285332031"/>
      </g>
     </g>
     <g id="line2d_18">
      <g>
       <use style="stroke:#000000;stroke-width:0.5;" x="1373.2425" xlink:href="#m27f02a9249" y="681.285332031"/>
      </g>
     </g>
     <g id="text_9">
      <!-- 50 -->
      <defs>
       <path d="M 10.796875 72.90625 
L 49.515625 72.90625 
L 49.515625 64.59375 
L 19.828125 64.59375 
L 19.828125 46.734375 
Q 21.96875 47.46875 24.109375 47.828125 
Q 26.265625 48.1875 28.421875 48.1875 
Q 40.625 48.1875 47.75 41.5 
Q 54.890625 34.8125 54.890625 23.390625 
Q 54.890625 11.625 47.5625 5.09375 
Q 40.234375 -1.421875 26.90625 -1.421875 
Q 22.3125 -1.421875 17.546875 -0.640625 
Q 12.796875 0.140625 7.71875 1.703125 
L 7.71875 11.625 
Q 12.109375 9.234375 16.796875 8.0625 
Q 21.484375 6.890625 26.703125 6.890625 
Q 35.15625 6.890625 40.078125 11.328125 
Q 45.015625 15.765625 45.015625 23.390625 
Q 45.015625 31 40.078125 35.4375 
Q 35.15625 39.890625 26.703125 39.890625 
Q 22.75 39.890625 18.8125 39.015625 
Q 14.890625 38.140625 10.796875 36.28125 
z
" id="BitstreamVeraSans-Roman-35"/>
      </defs>
      <g transform="translate(26.06859375 689.563457031)scale(0.3 -0.3)">
       <use xlink:href="#BitstreamVeraSans-Roman-2212"/>
       <use x="83.7890625" xlink:href="#BitstreamVeraSans-Roman-35"/>
       <use x="147.412109375" xlink:href="#BitstreamVeraSans-Roman-30"/>
      </g>
     </g>
    </g>
    <g id="ytick_3">
     <g id="line2d_19">
      <g>
       <use style="stroke:#000000;stroke-width:0.5;" x="93.38265625" xlink:href="#mced25fe334" y="592.232539062"/>
      </g>
     </g>
     <g id="line2d_20">
      <g>
       <use style="stroke:#000000;stroke-width:0.5;" x="1373.2425" xlink:href="#m27f02a9249" y="592.232539062"/>
      </g>
     </g>
     <g id="text_10">
      <!-- 40 -->
      <g transform="translate(26.06859375 600.510664062)scale(0.3 -0.3)">
       <use xlink:href="#BitstreamVeraSans-Roman-2212"/>
       <use x="83.7890625" xlink:href="#BitstreamVeraSans-Roman-34"/>
       <use x="147.412109375" xlink:href="#BitstreamVeraSans-Roman-30"/>
      </g>
     </g>
    </g>
    <g id="ytick_4">
     <g id="line2d_21">
      <g>
       <use style="stroke:#000000;stroke-width:0.5;" x="93.38265625" xlink:href="#mced25fe334" y="503.179746094"/>
      </g>
     </g>
     <g id="line2d_22">
      <g>
       <use style="stroke:#000000;stroke-width:0.5;" x="1373.2425" xlink:href="#m27f02a9249" y="503.179746094"/>
      </g>
     </g>
     <g id="text_11">
      <!-- 30 -->
      <defs>
       <path d="M 40.578125 39.3125 
Q 47.65625 37.796875 51.625 33 
Q 55.609375 28.21875 55.609375 21.1875 
Q 55.609375 10.40625 48.1875 4.484375 
Q 40.765625 -1.421875 27.09375 -1.421875 
Q 22.515625 -1.421875 17.65625 -0.515625 
Q 12.796875 0.390625 7.625 2.203125 
L 7.625 11.71875 
Q 11.71875 9.328125 16.59375 8.109375 
Q 21.484375 6.890625 26.8125 6.890625 
Q 36.078125 6.890625 40.9375 10.546875 
Q 45.796875 14.203125 45.796875 21.1875 
Q 45.796875 27.640625 41.28125 31.265625 
Q 36.765625 34.90625 28.71875 34.90625 
L 20.21875 34.90625 
L 20.21875 43.015625 
L 29.109375 43.015625 
Q 36.375 43.015625 40.234375 45.921875 
Q 44.09375 48.828125 44.09375 54.296875 
Q 44.09375 59.90625 40.109375 62.90625 
Q 36.140625 65.921875 28.71875 65.921875 
Q 24.65625 65.921875 20.015625 65.03125 
Q 15.375 64.15625 9.8125 62.3125 
L 9.8125 71.09375 
Q 15.4375 72.65625 20.34375 73.4375 
Q 25.25 74.21875 29.59375 74.21875 
Q 40.828125 74.21875 47.359375 69.109375 
Q 53.90625 64.015625 53.90625 55.328125 
Q 53.90625 49.265625 50.4375 45.09375 
Q 46.96875 40.921875 40.578125 39.3125 
" id="BitstreamVeraSans-Roman-33"/>
      </defs>
      <g transform="translate(26.06859375 511.457871094)scale(0.3 -0.3)">
       <use xlink:href="#BitstreamVeraSans-Roman-2212"/>
       <use x="83.7890625" xlink:href="#BitstreamVeraSans-Roman-33"/>
       <use x="147.412109375" xlink:href="#BitstreamVeraSans-Roman-30"/>
      </g>
     </g>
    </g>
    <g id="ytick_5">
     <g id="line2d_23">
      <g>
       <use style="stroke:#000000;stroke-width:0.5;" x="93.38265625" xlink:href="#mced25fe334" y="414.126953125"/>
      </g>
     </g>
     <g id="line2d_24">
      <g>
       <use style="stroke:#000000;stroke-width:0.5;" x="1373.2425" xlink:href="#m27f02a9249" y="414.126953125"/>
      </g>
     </g>
     <g id="text_12">
      <!-- 20 -->
      <g transform="translate(26.06859375 422.405078125)scale(0.3 -0.3)">
       <use xlink:href="#BitstreamVeraSans-Roman-2212"/>
       <use x="83.7890625" xlink:href="#BitstreamVeraSans-Roman-32"/>
       <use x="147.412109375" xlink:href="#BitstreamVeraSans-Roman-30"/>
      </g>
     </g>
    </g>
    <g id="ytick_6">
     <g id="line2d_25">
      <g>
       <use style="stroke:#000000;stroke-width:0.5;" x="93.38265625" xlink:href="#mced25fe334" y="325.074160156"/>
      </g>
     </g>
     <g id="line2d_26">
      <g>
       <use style="stroke:#000000;stroke-width:0.5;" x="1373.2425" xlink:href="#m27f02a9249" y="325.074160156"/>
      </g>
     </g>
     <g id="text_13">
      <!-- 10 -->
      <g transform="translate(26.06859375 333.352285156)scale(0.3 -0.3)">
       <use xlink:href="#BitstreamVeraSans-Roman-2212"/>
       <use x="83.7890625" xlink:href="#BitstreamVeraSans-Roman-31"/>
       <use x="147.412109375" xlink:href="#BitstreamVeraSans-Roman-30"/>
      </g>
     </g>
    </g>
    <g id="ytick_7">
     <g id="line2d_27">
      <g>
       <use style="stroke:#000000;stroke-width:0.5;" x="93.38265625" xlink:href="#mced25fe334" y="236.021367188"/>
      </g>
     </g>
     <g id="line2d_28">
      <g>
       <use style="stroke:#000000;stroke-width:0.5;" x="1373.2425" xlink:href="#m27f02a9249" y="236.021367188"/>
      </g>
     </g>
     <g id="text_14">
      <!-- 0 -->
      <g transform="translate(70.29515625 244.299492188)scale(0.3 -0.3)">
       <use xlink:href="#BitstreamVeraSans-Roman-30"/>
      </g>
     </g>
    </g>
    <g id="ytick_8">
     <g id="line2d_29">
      <g>
       <use style="stroke:#000000;stroke-width:0.5;" x="93.38265625" xlink:href="#mced25fe334" y="146.968574219"/>
      </g>
     </g>
     <g id="line2d_30">
      <g>
       <use style="stroke:#000000;stroke-width:0.5;" x="1373.2425" xlink:href="#m27f02a9249" y="146.968574219"/>
      </g>
     </g>
     <g id="text_15">
      <!-- 10 -->
      <g transform="translate(51.20765625 155.246699219)scale(0.3 -0.3)">
       <use xlink:href="#BitstreamVeraSans-Roman-31"/>
       <use x="63.623046875" xlink:href="#BitstreamVeraSans-Roman-30"/>
      </g>
     </g>
    </g>
    <g id="ytick_9">
     <g id="line2d_31">
      <g>
       <use style="stroke:#000000;stroke-width:0.5;" x="93.38265625" xlink:href="#mced25fe334" y="57.91578125"/>
      </g>
     </g>
     <g id="line2d_32">
      <g>
       <use style="stroke:#000000;stroke-width:0.5;" x="1373.2425" xlink:href="#m27f02a9249" y="57.91578125"/>
      </g>
     </g>
     <g id="text_16">
      <!-- 20 -->
      <g transform="translate(51.20765625 66.19390625)scale(0.3 -0.3)">
       <use xlink:href="#BitstreamVeraSans-Roman-32"/>
       <use x="63.623046875" xlink:href="#BitstreamVeraSans-Roman-30"/>
      </g>
     </g>
    </g>
   </g>
   <g id="text_17">
    <!-- log(loss) -->
    <defs>
     <path d="M 8.015625 75.875 
L 15.828125 75.875 
Q 23.140625 64.359375 26.78125 53.3125 
Q 30.421875 42.28125 30.421875 31.390625 
Q 30.421875 20.453125 26.78125 9.375 
Q 23.140625 -1.703125 15.828125 -13.1875 
L 8.015625 -13.1875 
Q 14.5 -2 17.703125 9.0625 
Q 20.90625 20.125 20.90625 31.390625 
Q 20.90625 42.671875 17.703125 53.65625 
Q 14.5 64.65625 8.015625 75.875 
" id="BitstreamVeraSans-Roman-29"/>
     <path d="M 31 75.875 
Q 24.46875 64.65625 21.28125 53.65625 
Q 18.109375 42.671875 18.109375 31.390625 
Q 18.109375 20.125 21.3125 9.0625 
Q 24.515625 -2 31 -13.1875 
L 23.1875 -13.1875 
Q 15.875 -1.703125 12.234375 9.375 
Q 8.59375 20.453125 8.59375 31.390625 
Q 8.59375 42.28125 12.203125 53.3125 
Q 15.828125 64.359375 23.1875 75.875 
z
" id="BitstreamVeraSans-Roman-28"/>
     <path d="M 45.40625 27.984375 
Q 45.40625 37.75 41.375 43.109375 
Q 37.359375 48.484375 30.078125 48.484375 
Q 22.859375 48.484375 18.828125 43.109375 
Q 14.796875 37.75 14.796875 27.984375 
Q 14.796875 18.265625 18.828125 12.890625 
Q 22.859375 7.515625 30.078125 7.515625 
Q 37.359375 7.515625 41.375 12.890625 
Q 45.40625 18.265625 45.40625 27.984375 
M 54.390625 6.78125 
Q 54.390625 -7.171875 48.1875 -13.984375 
Q 42 -20.796875 29.203125 -20.796875 
Q 24.46875 -20.796875 20.265625 -20.09375 
Q 16.0625 -19.390625 12.109375 -17.921875 
L 12.109375 -9.1875 
Q 16.0625 -11.328125 19.921875 -12.34375 
Q 23.78125 -13.375 27.78125 -13.375 
Q 36.625 -13.375 41.015625 -8.765625 
Q 45.40625 -4.15625 45.40625 5.171875 
L 45.40625 9.625 
Q 42.625 4.78125 38.28125 2.390625 
Q 33.9375 0 27.875 0 
Q 17.828125 0 11.671875 7.65625 
Q 5.515625 15.328125 5.515625 27.984375 
Q 5.515625 40.671875 11.671875 48.328125 
Q 17.828125 56 27.875 56 
Q 33.9375 56 38.28125 53.609375 
Q 42.625 51.21875 45.40625 46.390625 
L 45.40625 54.6875 
L 54.390625 54.6875 
z
" id="BitstreamVeraSans-Roman-67"/>
     <path d="M 9.421875 75.984375 
L 18.40625 75.984375 
L 18.40625 0 
L 9.421875 0 
z
" id="BitstreamVeraSans-Roman-6c"/>
    </defs>
    <g transform="translate(669.766484375 52.91578125)scale(0.3 -0.3)">
     <use xlink:href="#BitstreamVeraSans-Roman-6c"/>
     <use x="27.783203125" xlink:href="#BitstreamVeraSans-Roman-6f"/>
     <use x="88.96484375" xlink:href="#BitstreamVeraSans-Roman-67"/>
     <use x="152.44140625" xlink:href="#BitstreamVeraSans-Roman-28"/>
     <use x="191.455078125" xlink:href="#BitstreamVeraSans-Roman-6c"/>
     <use x="219.23828125" xlink:href="#BitstreamVeraSans-Roman-6f"/>
     <use x="280.419921875" xlink:href="#BitstreamVeraSans-Roman-73"/>
     <use x="332.51953125" xlink:href="#BitstreamVeraSans-Roman-73"/>
     <use x="384.619140625" xlink:href="#BitstreamVeraSans-Roman-29"/>
    </g>
   </g>
   <g id="legend_1">
    <g id="patch_7">
     <path d="M 1133.889375 169.984531 
L 1358.2425 169.984531 
L 1358.2425 72.915781 
L 1133.889375 72.915781 
z
" style="fill:#ffffff;stroke:#000000;stroke-linejoin:miter;"/>
    </g>
    <g id="line2d_33">
     <path d="M 1154.889375 97.211094 
L 1196.889375 97.211094 
" style="fill:none;stroke:#0000ff;stroke-linecap:square;stroke-width:2.0;"/>
    </g>
    <g id="line2d_34"/>
    <g id="text_18">
     <!-- random -->
     <defs>
      <path d="M 45.40625 46.390625 
L 45.40625 75.984375 
L 54.390625 75.984375 
L 54.390625 0 
L 45.40625 0 
L 45.40625 8.203125 
Q 42.578125 3.328125 38.25 0.953125 
Q 33.9375 -1.421875 27.875 -1.421875 
Q 17.96875 -1.421875 11.734375 6.484375 
Q 5.515625 14.40625 5.515625 27.296875 
Q 5.515625 40.1875 11.734375 48.09375 
Q 17.96875 56 27.875 56 
Q 33.9375 56 38.25 53.625 
Q 42.578125 51.265625 45.40625 46.390625 
M 14.796875 27.296875 
Q 14.796875 17.390625 18.875 11.75 
Q 22.953125 6.109375 30.078125 6.109375 
Q 37.203125 6.109375 41.296875 11.75 
Q 45.40625 17.390625 45.40625 27.296875 
Q 45.40625 37.203125 41.296875 42.84375 
Q 37.203125 48.484375 30.078125 48.484375 
Q 22.953125 48.484375 18.875 42.84375 
Q 14.796875 37.203125 14.796875 27.296875 
" id="BitstreamVeraSans-Roman-64"/>
      <path d="M 52 44.1875 
Q 55.375 50.25 60.0625 53.125 
Q 64.75 56 71.09375 56 
Q 79.640625 56 84.28125 50.015625 
Q 88.921875 44.046875 88.921875 33.015625 
L 88.921875 0 
L 79.890625 0 
L 79.890625 32.71875 
Q 79.890625 40.578125 77.09375 44.375 
Q 74.3125 48.1875 68.609375 48.1875 
Q 61.625 48.1875 57.5625 43.546875 
Q 53.515625 38.921875 53.515625 30.90625 
L 53.515625 0 
L 44.484375 0 
L 44.484375 32.71875 
Q 44.484375 40.625 41.703125 44.40625 
Q 38.921875 48.1875 33.109375 48.1875 
Q 26.21875 48.1875 22.15625 43.53125 
Q 18.109375 38.875 18.109375 30.90625 
L 18.109375 0 
L 9.078125 0 
L 9.078125 54.6875 
L 18.109375 54.6875 
L 18.109375 46.1875 
Q 21.1875 51.21875 25.484375 53.609375 
Q 29.78125 56 35.6875 56 
Q 41.65625 56 45.828125 52.96875 
Q 50 49.953125 52 44.1875 
" id="BitstreamVeraSans-Roman-6d"/>
     </defs>
     <g transform="translate(1229.889375 107.71109375)scale(0.3 -0.3)">
      <use xlink:href="#BitstreamVeraSans-Roman-72"/>
      <use x="41.11328125" xlink:href="#BitstreamVeraSans-Roman-61"/>
      <use x="102.392578125" xlink:href="#BitstreamVeraSans-Roman-6e"/>
      <use x="165.771484375" xlink:href="#BitstreamVeraSans-Roman-64"/>
      <use x="229.248046875" xlink:href="#BitstreamVeraSans-Roman-6f"/>
      <use x="290.4296875" xlink:href="#BitstreamVeraSans-Roman-6d"/>
     </g>
    </g>
    <g id="line2d_35">
     <path d="M 1154.889375 141.245469 
L 1196.889375 141.245469 
" style="fill:none;stroke:#008000;stroke-linecap:square;stroke-width:2.0;"/>
    </g>
    <g id="line2d_36"/>
    <g id="text_19">
     <!-- corr -->
     <defs>
      <path d="M 48.78125 52.59375 
L 48.78125 44.1875 
Q 44.96875 46.296875 41.140625 47.34375 
Q 37.3125 48.390625 33.40625 48.390625 
Q 24.65625 48.390625 19.8125 42.84375 
Q 14.984375 37.3125 14.984375 27.296875 
Q 14.984375 17.28125 19.8125 11.734375 
Q 24.65625 6.203125 33.40625 6.203125 
Q 37.3125 6.203125 41.140625 7.25 
Q 44.96875 8.296875 48.78125 10.40625 
L 48.78125 2.09375 
Q 45.015625 0.34375 40.984375 -0.53125 
Q 36.96875 -1.421875 32.421875 -1.421875 
Q 20.0625 -1.421875 12.78125 6.34375 
Q 5.515625 14.109375 5.515625 27.296875 
Q 5.515625 40.671875 12.859375 48.328125 
Q 20.21875 56 33.015625 56 
Q 37.15625 56 41.109375 55.140625 
Q 45.0625 54.296875 48.78125 52.59375 
" id="BitstreamVeraSans-Roman-63"/>
     </defs>
     <g transform="translate(1229.889375 151.74546875)scale(0.3 -0.3)">
      <use xlink:href="#BitstreamVeraSans-Roman-63"/>
      <use x="54.98046875" xlink:href="#BitstreamVeraSans-Roman-6f"/>
      <use x="116.162109375" xlink:href="#BitstreamVeraSans-Roman-72"/>
      <use x="157.259765625" xlink:href="#BitstreamVeraSans-Roman-72"/>
     </g>
    </g>
   </g>
  </g>
 </g>
 <defs>
  <clipPath id="pa2232bf43f">
   <rect height="712.42234375" width="1279.85984375" x="93.38265625" y="57.91578125"/>
  </clipPath>
 </defs>
</svg>
