<?xml version="1.0" encoding="utf-8" standalone="no"?>
<!DOCTYPE svg PUBLIC "-//W3C//DTD SVG 1.1//EN"
  "http://www.w3.org/Graphics/SVG/1.1/DTD/svg11.dtd">
<!-- Created with matplotlib (http://matplotlib.org/) -->
<svg height="864pt" version="1.1" viewBox="0 0 1440 864" width="1440pt" xmlns="http://www.w3.org/2000/svg" xmlns:xlink="http://www.w3.org/1999/xlink">
 <defs>
  <style type="text/css">
*{stroke-linecap:butt;stroke-linejoin:round;stroke-miterlimit:100000;}
  </style>
 </defs>
 <g id="figure_1">
  <g id="patch_1">
   <path d="M 0 864 
L 1440 864 
L 1440 0 
L 0 0 
z
" style="fill:#ffffff;"/>
  </g>
  <g id="axes_1">
   <g id="patch_2">
    <path d="M 158.4 747 
L 1359.9 747 
L 1359.9 51.3 
L 158.4 51.3 
z
" style="fill:#ffffff;"/>
   </g>
   <g id="line2d_1">
    <path clip-path="url(#p448bcef82d)" d="M 158.4 124.858437 
L 159.6015 126.346966 
L 160.803 128.513961 
L 162.0045 133.225056 
L 164.4075 137.42869 
L 170.415 147.596082 
L 171.6165 150.110029 
L 172.818 153.687356 
L 174.0195 156.520462 
L 175.221 159.759195 
L 176.4225 162.649632 
L 177.624 167.213773 
L 183.6315 179.385877 
L 186.0345 185.93743 
L 187.236 187.219707 
L 188.4375 189.201851 
L 189.639 190.815469 
L 190.8405 193.879078 
L 192.042 197.636135 
L 194.445 202.275967 
L 195.6465 205.131851 
L 196.848 207.400142 
L 198.0495 210.092976 
L 199.251 212.238412 
L 204.057 223.2056 
L 205.2585 224.625951 
L 206.46 226.849334 
L 207.6615 229.882239 
L 208.863 233.81593 
L 210.0645 236.448812 
L 211.266 238.755124 
L 212.4675 242.284784 
L 213.669 244.64398 
L 214.8705 247.688435 
L 216.072 249.639328 
L 217.2735 252.50945 
L 220.878 258.429218 
L 223.281 264.972464 
L 224.4825 268.882848 
L 225.684 270.145155 
L 226.8855 272.043328 
L 228.087 274.863809 
L 229.2885 278.603145 
L 231.6915 284.611848 
L 232.893 288.104885 
L 234.0945 290.306455 
L 235.296 293.24499 
L 236.4975 294.609273 
L 237.699 297.572014 
L 238.9005 299.028455 
L 240.102 301.364183 
L 241.3035 302.98522 
L 242.505 306.318494 
L 243.7065 309.040301 
L 244.908 311.232501 
L 246.1095 314.755748 
L 248.5125 320.223149 
L 249.714 324.910459 
L 250.9155 327.029688 
L 253.3185 332.536474 
L 255.7215 338.900951 
L 258.1245 342.914412 
L 260.5275 347.307331 
L 261.729 348.758028 
L 262.9305 352.203963 
L 264.132 354.073803 
L 265.3335 357.071632 
L 266.535 359.258305 
L 267.7365 361.210138 
L 268.938 364.491612 
L 270.1395 367.28033 
L 271.341 369.528826 
L 272.5425 371.226566 
L 273.744 373.803354 
L 276.147 379.488567 
L 277.3485 381.066382 
L 278.55 383.569025 
L 279.7515 385.567642 
L 280.953 388.845188 
L 282.1545 391.068061 
L 283.356 394.889188 
L 284.5575 396.945664 
L 285.759 399.368499 
L 286.9605 403.833196 
L 288.162 407.092409 
L 289.3635 408.758662 
L 291.7665 413.864497 
L 292.968 416.564732 
L 294.1695 418.568672 
L 295.371 420.97147 
L 297.774 426.648569 
L 298.9755 429.110047 
L 300.177 431.857751 
L 301.3785 433.831626 
L 302.58 436.756338 
L 303.7815 439.164308 
L 304.983 442.572665 
L 306.1845 445.369202 
L 307.386 448.802797 
L 308.5875 452.688374 
L 309.789 457.042119 
L 310.9905 459.553989 
L 312.192 463.456379 
L 313.3935 465.724639 
L 314.595 468.927437 
L 315.7965 471.737584 
L 316.998 473.936213 
L 318.1995 477.051515 
L 319.401 478.373553 
L 320.6025 480.801126 
L 323.0055 488.242275 
L 324.207 489.87931 
L 329.013 502.152692 
L 330.2145 504.310425 
L 331.416 506.027439 
L 332.6175 508.360335 
L 333.819 511.401534 
L 335.0205 513.766691 
L 337.4235 517.490379 
L 338.625 521.464483 
L 339.8265 523.629149 
L 342.2295 529.945156 
L 345.834 537.068844 
L 347.0355 539.804802 
L 348.237 542.980957 
L 349.4385 545.49556 
L 350.64 546.737255 
L 351.8415 549.633699 
L 353.043 551.581222 
L 354.2445 555.071342 
L 355.446 557.05266 
L 356.6475 560.95991 
L 357.849 563.31831 
L 359.0505 566.045177 
L 360.252 568.055775 
L 361.4535 570.518538 
L 362.655 573.684151 
L 363.8565 576.456269 
L 365.058 578.310788 
L 366.2595 582.145977 
L 367.461 584.782588 
L 368.6625 587.076144 
L 369.864 588.832099 
L 371.0655 591.319928 
L 373.4685 595.200907 
L 374.67 597.457378 
L 375.8715 600.585274 
L 377.073 601.851846 
L 379.476 607.349745 
L 380.6775 611.026455 
L 381.879 612.766907 
L 384.282 616.752736 
L 385.4835 619.269222 
L 386.685 621.441351 
L 389.088 627.485226 
L 390.2895 630.81584 
L 391.491 633.190572 
L 392.6925 634.949132 
L 393.894 636.932714 
L 395.0955 638.130097 
L 396.297 642.408263 
L 398.7 648.264607 
L 399.9015 649.272921 
L 402.3045 656.036182 
L 403.506 658.395976 
L 404.7075 661.115303 
L 405.909 662.873119 
L 408.312 669.265355 
L 409.5135 671.582497 
L 410.715 674.831107 
L 411.9165 676.474998 
L 413.118 679.021759 
L 414.3195 680.437848 
L 415.521 682.909302 
L 416.7225 686.441284 
L 417.924 688.561131 
L 419.1255 691.331042 
L 420.327 692.6984 
L 421.5285 694.396289 
L 422.73 696.652236 
L 423.9315 699.364474 
L 427.536 708.431313 
L 428.7375 710.309957 
L 429.939 713.324372 
L 431.1405 715.085426 
L 433.5435 719.183706 
L 434.745 722.902478 
L 435.9465 723.163754 
L 437.148 725.030183 
L 438.3495 726.632789 
L 439.551 727.799998 
L 440.7525 729.602716 
L 441.954 730.741581 
L 443.1555 731.450682 
L 444.357 731.300464 
L 445.5585 731.496335 
L 446.76 732.166759 
L 447.9615 732.090629 
L 449.163 731.864518 
L 450.3645 732.788411 
L 451.566 732.529486 
L 452.7675 733.495845 
L 453.969 733.458717 
L 456.372 734.096362 
L 457.5735 734.520672 
L 458.775 734.14189 
L 459.9765 733.908145 
L 461.178 734.517821 
L 462.3795 733.835007 
L 463.581 731.696109 
L 464.7825 730.701841 
L 465.984 732.205425 
L 467.1855 733.330662 
L 468.387 734.737872 
L 469.5885 734.002178 
L 471.9915 734.070858 
L 473.193 732.901296 
L 474.3945 732.953989 
L 475.596 733.736668 
L 477.999 734.335459 
L 479.2005 735.117119 
L 480.402 733.871514 
L 481.6035 733.475539 
L 482.805 733.650766 
L 484.0065 734.528082 
L 485.208 734.532764 
L 486.4095 735.382483 
L 487.611 735.216814 
L 488.8125 732.351318 
L 490.014 733.676799 
L 491.2155 733.997333 
L 492.417 732.554451 
L 493.6185 733.678541 
L 494.82 731.506222 
L 496.0215 731.778624 
L 497.223 732.534127 
L 498.4245 732.288739 
L 499.626 732.608185 
L 500.8275 733.207547 
L 502.029 732.58955 
L 503.2305 733.017706 
L 504.432 733.210292 
L 505.6335 732.070614 
L 508.0365 733.541344 
L 509.238 733.065129 
L 510.4395 731.636694 
L 511.641 733.128707 
L 512.8425 733.23097 
L 514.044 733.013994 
L 516.447 734.278096 
L 517.6485 734.467591 
L 518.85 733.525324 
L 520.0515 733.524658 
L 521.253 734.445481 
L 522.4545 733.362428 
L 523.656 733.407189 
L 526.059 733.886954 
L 527.2605 734.370054 
L 529.6635 734.278699 
L 530.865 733.629255 
L 533.268 733.662636 
L 534.4695 735.102617 
L 535.671 734.013384 
L 536.8725 733.397605 
L 538.074 733.208428 
L 539.2755 733.366823 
L 540.477 734.227556 
L 541.6785 734.184536 
L 542.88 735.108551 
L 544.0815 734.729756 
L 545.283 735.209864 
L 546.4845 733.195413 
L 547.686 734.120066 
L 548.8875 734.067836 
L 550.089 734.411914 
L 551.2905 733.396057 
L 552.492 732.93498 
L 553.6935 731.85153 
L 554.895 733.271227 
L 556.0965 733.705011 
L 558.4995 733.738276 
L 559.701 733.37188 
L 560.9025 734.170399 
L 562.104 734.432218 
L 563.3055 735.001526 
L 564.507 734.667933 
L 566.91 734.695296 
L 568.1115 733.305265 
L 569.313 733.770946 
L 570.5145 733.900155 
L 571.716 734.820618 
L 572.9175 734.275663 
L 574.119 735.315939 
L 575.3205 734.87865 
L 576.522 735.818172 
L 577.7235 735.751999 
L 578.925 735.971773 
L 580.1265 735.335836 
L 582.5295 735.920754 
L 583.731 734.979454 
L 586.134 734.769178 
L 587.3355 732.944213 
L 588.537 733.82022 
L 589.7385 734.264327 
L 590.94 735.083193 
L 592.1415 734.831454 
L 593.343 734.168362 
L 594.5445 734.081985 
L 595.746 734.493884 
L 596.9475 734.12961 
L 598.149 735.204861 
L 599.3505 735.12288 
L 600.552 736.282162 
L 601.7535 735.374841 
L 602.955 736.420399 
L 604.1565 736.271041 
L 605.358 735.935219 
L 606.5595 734.035315 
L 607.761 734.283769 
L 608.9625 734.937752 
L 610.164 736.257806 
L 611.3655 734.521273 
L 612.567 734.151936 
L 613.7685 734.24954 
L 614.97 730.765567 
L 616.1715 731.579278 
L 618.5745 732.706104 
L 619.776 732.316406 
L 620.9775 728.921304 
L 622.179 729.757358 
L 623.3805 730.966728 
L 624.582 731.867369 
L 625.7835 731.459319 
L 626.985 732.908127 
L 629.388 733.229973 
L 631.791 732.453978 
L 632.9925 734.371404 
L 634.194 734.82431 
L 635.3955 735.066063 
L 636.597 735.075475 
L 637.7985 734.618787 
L 639 733.620619 
L 640.2015 733.817305 
L 641.403 734.335484 
L 645.0075 734.558011 
L 648.612 734.126938 
L 649.8135 733.568672 
L 651.015 733.999649 
L 652.2165 733.619479 
L 653.418 734.345184 
L 654.6195 734.686192 
L 655.821 735.262179 
L 657.0225 734.057557 
L 658.224 734.466456 
L 659.4255 734.384638 
L 660.627 734.704662 
L 661.8285 733.43734 
L 663.03 733.771488 
L 664.2315 734.350716 
L 665.433 733.857395 
L 666.6345 733.836983 
L 667.836 733.988667 
L 670.239 734.67113 
L 671.4405 733.608981 
L 672.642 734.312588 
L 673.8435 734.062357 
L 675.045 733.658384 
L 676.2465 733.517006 
L 677.448 733.111009 
L 678.6495 733.957178 
L 679.851 734.651983 
L 681.0525 736.211931 
L 682.254 735.147864 
L 683.4555 734.782191 
L 684.657 735.079768 
L 685.8585 735.105166 
L 688.2615 733.851744 
L 689.463 734.861065 
L 691.866 734.941487 
L 693.0675 735.467329 
L 694.269 734.897936 
L 695.4705 733.620084 
L 696.672 732.912938 
L 697.8735 733.701328 
L 699.075 734.333989 
L 700.2765 734.668193 
L 701.478 735.705075 
L 702.6795 734.649606 
L 703.881 733.750993 
L 705.0825 734.584057 
L 706.284 733.957254 
L 707.4855 733.806394 
L 708.687 733.924292 
L 709.8885 733.528079 
L 711.09 733.014239 
L 712.2915 733.139282 
L 713.493 732.838402 
L 714.6945 732.061993 
L 715.896 732.708477 
L 717.0975 734.028231 
L 718.299 733.527893 
L 719.5005 733.374876 
L 720.702 733.071978 
L 721.9035 734.024732 
L 723.105 734.260407 
L 724.3065 734.258406 
L 725.508 734.493056 
L 727.911 735.492802 
L 729.1125 734.896311 
L 730.314 734.164563 
L 731.5155 733.983335 
L 732.717 734.212514 
L 733.9185 733.603785 
L 735.12 733.225483 
L 736.3215 735.245785 
L 737.523 734.632978 
L 738.7245 733.874153 
L 739.926 733.605526 
L 741.1275 733.853712 
L 742.329 733.88017 
L 743.5305 735.92071 
L 744.732 734.875603 
L 745.9335 733.336226 
L 748.3365 733.423215 
L 749.538 733.695022 
L 750.7395 733.267968 
L 751.941 733.433819 
L 753.1425 734.458791 
L 754.344 733.395184 
L 755.5455 735.380564 
L 756.747 735.984566 
L 757.9485 736.231094 
L 759.15 735.003171 
L 760.3515 734.6778 
L 761.553 734.909521 
L 762.7545 733.814796 
L 763.956 733.349488 
L 765.1575 733.676056 
L 766.359 733.466186 
L 767.5605 734.120906 
L 768.762 734.262374 
L 769.9635 734.143115 
L 771.165 734.256501 
L 772.3665 735.567064 
L 773.568 734.236569 
L 774.7695 733.780801 
L 775.971 734.575217 
L 777.1725 733.347761 
L 778.374 734.048186 
L 779.5755 733.808346 
L 780.777 734.936232 
L 781.9785 734.833142 
L 783.18 735.319212 
L 784.3815 734.890767 
L 785.583 735.654071 
L 786.7845 734.430636 
L 787.986 735.055095 
L 789.1875 733.928257 
L 790.389 734.568248 
L 791.5905 734.91694 
L 792.792 734.50655 
L 793.9935 733.66264 
L 795.195 734.38435 
L 796.3965 734.634689 
L 797.598 733.652565 
L 798.7995 733.607044 
L 800.001 735.595777 
L 801.2025 735.766109 
L 802.404 735.622161 
L 803.6055 734.870922 
L 804.807 735.93725 
L 806.0085 734.898581 
L 807.21 733.66477 
L 808.4115 734.39224 
L 809.613 733.656202 
L 810.8145 733.678735 
L 812.016 734.28497 
L 813.2175 733.225061 
L 815.6205 734.010913 
L 816.822 733.878096 
L 818.0235 733.23951 
L 819.225 733.744602 
L 820.4265 732.442493 
L 821.628 732.865767 
L 822.8295 732.390848 
L 824.031 733.230707 
L 825.2325 732.833395 
L 826.434 732.991747 
L 827.6355 732.987214 
L 828.837 732.38616 
L 830.0385 732.913533 
L 831.24 733.03511 
L 832.4415 733.382995 
L 833.643 735.213454 
L 834.8445 734.611967 
L 836.046 735.181541 
L 837.2475 734.80942 
L 839.6505 733.548949 
L 840.852 734.566793 
L 842.0535 734.178041 
L 843.255 734.507542 
L 844.4565 735.21756 
L 845.658 734.458145 
L 846.8595 733.994519 
L 848.061 734.786952 
L 849.2625 734.155201 
L 850.464 735.467073 
L 851.6655 735.144685 
L 852.867 735.25494 
L 854.0685 734.048567 
L 855.27 733.003807 
L 856.4715 732.444204 
L 857.673 731.416713 
L 858.8745 731.711242 
L 860.076 732.413654 
L 861.2775 733.594932 
L 862.479 733.144333 
L 863.6805 733.237151 
L 864.882 734.328376 
L 866.0835 734.81229 
L 867.285 734.236761 
L 868.4865 734.191625 
L 869.688 733.913061 
L 872.091 733.783016 
L 873.2925 732.817855 
L 874.494 732.363394 
L 875.6955 732.930859 
L 876.897 733.726483 
L 878.0985 733.3087 
L 879.3 733.198806 
L 880.5015 734.056797 
L 881.703 734.065861 
L 882.9045 733.882723 
L 884.106 734.205188 
L 885.3075 735.304204 
L 886.509 735.33987 
L 887.7105 734.262596 
L 888.912 734.592932 
L 890.1135 735.54121 
L 892.5165 734.314435 
L 893.718 733.637839 
L 894.9195 732.6268 
L 896.121 732.062106 
L 897.3225 733.531941 
L 899.7255 732.582523 
L 900.927 732.979831 
L 903.33 732.138607 
L 904.5315 733.045149 
L 905.733 734.54863 
L 906.9345 734.131876 
L 908.136 732.791884 
L 909.3375 732.76568 
L 910.539 732.992251 
L 912.942 731.80912 
L 914.1435 731.949966 
L 915.345 732.296897 
L 916.5465 732.380902 
L 917.748 733.160664 
L 918.9495 733.303807 
L 921.3525 732.805277 
L 922.554 732.272918 
L 923.7555 732.544163 
L 924.957 732.501348 
L 927.36 732.218912 
L 928.5615 732.990309 
L 929.763 734.005442 
L 932.166 734.516923 
L 933.3675 733.897608 
L 935.7705 733.564314 
L 936.972 732.86372 
L 938.1735 734.728594 
L 939.375 734.880186 
L 940.5765 733.454602 
L 941.778 733.109674 
L 942.9795 733.225605 
L 944.181 732.123595 
L 945.3825 732.483383 
L 946.584 733.515633 
L 947.7855 733.861524 
L 948.987 733.15607 
L 950.1885 734.089586 
L 951.39 735.228919 
L 952.5915 734.28604 
L 953.793 733.647736 
L 954.9945 732.130731 
L 956.196 732.796883 
L 957.3975 732.534379 
L 958.599 732.620294 
L 959.8005 732.841339 
L 961.002 733.84663 
L 962.2035 733.807834 
L 963.405 732.390972 
L 964.6065 733.320384 
L 965.808 733.097973 
L 967.0095 733.212748 
L 968.211 733.726386 
L 969.4125 733.935737 
L 970.614 734.014471 
L 974.2185 734.91869 
L 975.42 735.389564 
L 976.6215 735.08371 
L 977.823 735.974271 
L 979.0245 735.276361 
L 980.226 734.316893 
L 981.4275 735.01743 
L 982.629 734.445069 
L 983.8305 735.401091 
L 985.032 734.041264 
L 986.2335 734.792252 
L 987.435 734.893847 
L 988.6365 736.345229 
L 989.838 735.600817 
L 992.241 734.961811 
L 993.4425 735.814807 
L 994.644 736.200547 
L 995.8455 735.619113 
L 997.047 736.322822 
L 998.2485 735.880196 
L 999.45 735.556828 
L 1000.6515 734.411066 
L 1001.853 733.852552 
L 1003.0545 734.583528 
L 1004.256 734.742369 
L 1005.4575 734.60111 
L 1006.659 735.525055 
L 1007.8605 735.719864 
L 1009.062 736.307289 
L 1010.2635 734.428026 
L 1011.465 734.978313 
L 1012.6665 734.898561 
L 1013.868 735.302388 
L 1015.0695 734.542118 
L 1017.4725 735.177878 
L 1018.674 734.906997 
L 1019.8755 734.825397 
L 1021.077 734.868288 
L 1022.2785 735.517653 
L 1023.48 735.55192 
L 1024.6815 734.691513 
L 1025.883 735.584564 
L 1027.0845 735.111355 
L 1029.4875 733.109244 
L 1031.8905 733.135193 
L 1033.092 734.355262 
L 1034.2935 733.548258 
L 1035.495 733.608781 
L 1036.6965 734.25757 
L 1037.898 733.793513 
L 1039.0995 734.419234 
L 1040.301 734.794465 
L 1041.5025 736.311394 
L 1042.704 734.36415 
L 1043.9055 735.240805 
L 1045.107 736.351817 
L 1046.3085 736.287393 
L 1047.51 734.57844 
L 1048.7115 734.847889 
L 1049.913 734.713968 
L 1051.1145 732.184159 
L 1052.316 732.819711 
L 1053.5175 732.92907 
L 1054.719 732.743942 
L 1055.9205 731.713256 
L 1057.122 732.588852 
L 1058.3235 733.030182 
L 1059.525 731.927046 
L 1060.7265 732.464153 
L 1061.928 733.272279 
L 1063.1295 732.305443 
L 1064.331 732.324995 
L 1065.5325 732.482363 
L 1066.734 732.17241 
L 1067.9355 732.035425 
L 1069.137 732.149885 
L 1070.3385 732.796118 
L 1071.54 732.9724 
L 1072.7415 734.329262 
L 1073.943 735.095177 
L 1075.1445 735.458456 
L 1076.346 734.552265 
L 1077.5475 734.678943 
L 1078.749 734.968906 
L 1079.9505 735.107243 
L 1082.3535 734.479953 
L 1083.555 733.920012 
L 1085.958 736.062419 
L 1087.1595 735.236932 
L 1088.361 736.101597 
L 1089.5625 736.502368 
L 1090.764 733.73656 
L 1091.9655 733.282436 
L 1093.167 734.226166 
L 1094.3685 733.755756 
L 1095.57 734.619679 
L 1096.7715 735.72793 
L 1099.1745 736.266655 
L 1101.5775 735.338938 
L 1102.779 734.403376 
L 1103.9805 734.429894 
L 1105.182 734.089651 
L 1106.3835 732.61599 
L 1107.585 733.274033 
L 1108.7865 733.309679 
L 1109.988 732.413179 
L 1111.1895 733.811977 
L 1112.391 733.328239 
L 1113.5925 733.345682 
L 1115.9955 734.220456 
L 1117.197 734.306931 
L 1118.3985 734.676194 
L 1119.6 734.5177 
L 1120.8015 733.735618 
L 1122.003 734.273721 
L 1124.406 734.060125 
L 1125.6075 733.360383 
L 1126.809 734.495015 
L 1128.0105 735.14008 
L 1129.212 734.607095 
L 1130.4135 734.913182 
L 1131.615 735.706121 
L 1132.8165 735.400806 
L 1134.018 734.537405 
L 1135.2195 732.370554 
L 1136.421 733.085746 
L 1137.6225 735.344728 
L 1141.227 733.466902 
L 1142.4285 733.5845 
L 1144.8315 734.205542 
L 1146.033 733.232268 
L 1147.2345 733.257326 
L 1149.6375 734.49718 
L 1150.839 733.913001 
L 1153.242 734.488741 
L 1154.4435 734.129524 
L 1156.8465 734.590243 
L 1158.048 735.233284 
L 1159.2495 735.709228 
L 1160.451 736.038599 
L 1161.6525 735.47267 
L 1164.0555 734.775492 
L 1165.257 735.468136 
L 1166.4585 734.02795 
L 1167.66 735.458253 
L 1168.8615 735.550916 
L 1170.063 735.332653 
L 1171.2645 734.062832 
L 1172.466 733.867466 
L 1173.6675 733.912699 
L 1177.272 734.756872 
L 1178.4735 734.063436 
L 1179.675 733.586104 
L 1182.078 734.215004 
L 1183.2795 733.660228 
L 1184.481 734.46296 
L 1185.6825 735.849888 
L 1186.884 735.22146 
L 1188.0855 735.329704 
L 1189.287 735.063332 
L 1190.4885 734.12127 
L 1191.69 733.884637 
L 1192.8915 733.315723 
L 1194.093 732.459732 
L 1195.2945 732.796613 
L 1196.496 734.127013 
L 1197.6975 733.3893 
L 1198.899 733.613848 
L 1200.1005 733.228466 
L 1201.302 733.549893 
L 1202.5035 734.871741 
L 1203.705 734.660512 
L 1204.9065 735.78602 
L 1206.108 735.30971 
L 1207.3095 735.313336 
L 1208.511 734.078667 
L 1209.7125 734.404192 
L 1210.914 734.286821 
L 1212.1155 733.86296 
L 1214.5185 736.175008 
L 1215.72 735.961159 
L 1216.9215 736.578867 
L 1218.123 735.020272 
L 1219.3245 735.327192 
L 1220.526 734.311378 
L 1221.7275 733.965414 
L 1222.929 733.749223 
L 1224.1305 734.553013 
L 1225.332 733.965134 
L 1227.735 733.829873 
L 1228.9365 734.753563 
L 1230.138 735.430481 
L 1233.7425 735.551622 
L 1234.944 735.961438 
L 1236.1455 733.82601 
L 1237.347 733.78786 
L 1238.5485 733.438192 
L 1239.75 732.925334 
L 1240.9515 732.971346 
L 1243.3545 732.638983 
L 1244.556 733.221313 
L 1245.7575 732.702243 
L 1246.959 733.283826 
L 1248.1605 734.384671 
L 1249.362 734.673281 
L 1250.5635 734.051871 
L 1252.9665 734.187874 
L 1254.168 735.216658 
L 1255.3695 736.566109 
L 1256.571 734.716016 
L 1258.974 734.509261 
L 1260.1755 734.639877 
L 1261.377 735.650718 
L 1262.5785 734.790337 
L 1263.78 734.458941 
L 1264.9815 733.551492 
L 1266.183 733.379919 
L 1267.3845 732.906122 
L 1268.586 732.972131 
L 1269.7875 733.394281 
L 1272.1905 733.751192 
L 1273.392 733.414147 
L 1274.5935 733.685761 
L 1275.795 733.704152 
L 1276.9965 733.27682 
L 1278.198 732.609933 
L 1279.3995 731.495268 
L 1281.8025 733.002973 
L 1283.004 733.254378 
L 1284.2055 732.769298 
L 1285.407 734.869361 
L 1286.6085 735.479641 
L 1289.0115 733.461939 
L 1290.213 732.977328 
L 1291.4145 731.865607 
L 1292.616 732.809382 
L 1293.8175 732.377551 
L 1295.019 733.124023 
L 1296.2205 733.236321 
L 1298.6235 733.690295 
L 1302.228 733.044231 
L 1303.4295 733.822886 
L 1304.631 733.786734 
L 1305.8325 734.017097 
L 1307.034 732.160451 
L 1308.2355 734.453876 
L 1309.437 734.283803 
L 1310.6385 734.395724 
L 1311.84 734.965063 
L 1313.0415 734.4744 
L 1314.243 734.303939 
L 1315.4445 734.599676 
L 1316.646 735.196109 
L 1317.8475 735.420077 
L 1320.2505 733.36504 
L 1321.452 734.934012 
L 1323.855 732.676843 
L 1325.0565 733.937236 
L 1327.4595 734.696577 
L 1328.661 734.384513 
L 1329.8625 733.292314 
L 1331.064 733.455849 
L 1332.2655 732.757586 
L 1334.6685 734.501001 
L 1335.87 735.764941 
L 1337.0715 734.798756 
L 1338.273 734.337844 
L 1339.4745 735.104015 
L 1340.676 734.890923 
L 1341.8775 733.83375 
L 1343.079 734.304615 
L 1344.2805 734.068232 
L 1345.482 733.457619 
L 1346.6835 733.522324 
L 1347.885 734.801425 
L 1349.0865 733.787388 
L 1350.288 734.079598 
L 1351.4895 734.909595 
L 1352.691 734.397226 
L 1353.8925 734.103617 
L 1355.094 732.948368 
L 1356.2955 733.178998 
L 1357.497 734.467603 
L 1358.6985 735.22055 
L 1358.6985 735.22055 
" style="fill:none;stroke:#0000ff;stroke-linecap:square;stroke-width:2.0;"/>
   </g>
   <g id="line2d_2">
    <path clip-path="url(#p448bcef82d)" d="M 158.4 124.312934 
L 159.6015 127.56733 
L 162.0045 132.746461 
L 163.206 135.398178 
L 164.4075 138.765286 
L 165.609 140.568028 
L 166.8105 143.11646 
L 168.012 147.65709 
L 169.2135 150.811954 
L 170.415 153.082062 
L 171.6165 156.088779 
L 172.818 158.476364 
L 175.221 165.191051 
L 176.4225 168.77171 
L 177.624 171.124481 
L 180.027 176.99673 
L 181.2285 179.298907 
L 182.43 182.333154 
L 186.0345 189.932466 
L 187.236 192.110971 
L 188.4375 195.266164 
L 189.639 197.947896 
L 190.8405 199.11572 
L 192.042 201.362349 
L 193.2435 203.217467 
L 194.445 206.382257 
L 195.6465 208.380515 
L 196.848 211.697254 
L 199.251 215.311902 
L 200.4525 218.40209 
L 201.654 222.070711 
L 204.057 225.961443 
L 205.2585 228.668924 
L 206.46 230.818342 
L 210.0645 238.577502 
L 212.4675 243.073428 
L 213.669 246.119367 
L 214.8705 247.967428 
L 216.072 251.38841 
L 217.2735 253.710171 
L 218.475 255.600363 
L 219.6765 260.259041 
L 222.0795 265.917091 
L 224.4825 269.433214 
L 225.684 270.605392 
L 228.087 274.857178 
L 230.49 280.56578 
L 231.6915 282.846204 
L 235.296 291.149988 
L 238.9005 297.895366 
L 240.102 300.630581 
L 241.3035 302.278528 
L 243.7065 308.380812 
L 244.908 310.487646 
L 246.1095 313.174807 
L 247.311 315.328756 
L 249.714 320.518913 
L 250.9155 322.472835 
L 252.117 325.816852 
L 253.3185 326.891858 
L 254.52 329.334772 
L 255.7215 331.393433 
L 256.923 334.043995 
L 260.5275 342.800768 
L 261.729 346.660359 
L 262.9305 349.305418 
L 264.132 351.64833 
L 266.535 357.487464 
L 267.7365 359.732369 
L 268.938 361.140103 
L 272.5425 370.866397 
L 273.744 372.571906 
L 274.9455 375.915271 
L 277.3485 380.329236 
L 278.55 383.193953 
L 279.7515 385.096439 
L 280.953 387.41024 
L 282.1545 389.336172 
L 283.356 392.060596 
L 284.5575 393.49006 
L 285.759 396.260725 
L 289.3635 403.536125 
L 296.5725 419.592516 
L 298.9755 423.245275 
L 300.177 425.597581 
L 301.3785 428.544172 
L 302.58 430.648219 
L 304.983 436.434501 
L 307.386 441.824546 
L 308.5875 443.732944 
L 309.789 447.598601 
L 310.9905 449.420201 
L 312.192 450.687207 
L 313.3935 453.014555 
L 314.595 456.0986 
L 315.7965 458.416312 
L 316.998 460.117291 
L 318.1995 462.337529 
L 320.6025 468.165006 
L 321.804 470.145831 
L 323.0055 472.495282 
L 324.207 475.6735 
L 325.4085 478.396575 
L 327.8115 484.692513 
L 329.013 486.330549 
L 330.2145 489.993591 
L 332.6175 493.817854 
L 333.819 496.536104 
L 335.0205 498.919008 
L 336.222 500.632671 
L 337.4235 503.138874 
L 338.625 506.38587 
L 339.8265 508.7708 
L 341.028 510.140619 
L 342.2295 512.252508 
L 343.431 513.882392 
L 344.6325 516.593443 
L 347.0355 520.569183 
L 348.237 522.059302 
L 350.64 526.743852 
L 351.8415 529.711417 
L 353.043 531.608005 
L 354.2445 534.958077 
L 355.446 537.487508 
L 356.6475 539.412401 
L 357.849 542.445505 
L 359.0505 546.339617 
L 360.252 548.485031 
L 361.4535 550.151328 
L 362.655 552.297696 
L 365.058 558.08839 
L 367.461 563.090883 
L 368.6625 566.205968 
L 369.864 568.569675 
L 371.0655 571.58985 
L 372.267 572.081633 
L 373.4685 574.270719 
L 377.073 583.371953 
L 378.2745 585.398541 
L 379.476 587.110263 
L 380.6775 591.874674 
L 381.879 594.138354 
L 383.0805 596.074774 
L 384.282 598.345351 
L 385.4835 600.288023 
L 386.685 602.569685 
L 387.8865 604.160036 
L 389.088 606.543849 
L 391.491 612.433425 
L 395.0955 619.057422 
L 397.4985 624.659163 
L 398.7 626.694542 
L 402.3045 634.720323 
L 403.506 637.815544 
L 405.909 642.785994 
L 407.1105 645.958517 
L 408.312 648.279172 
L 409.5135 651.298407 
L 413.118 656.664027 
L 414.3195 657.763551 
L 416.7225 664.046237 
L 417.924 666.494066 
L 419.1255 668.182991 
L 420.327 670.199215 
L 421.5285 671.894593 
L 422.73 674.448245 
L 423.9315 676.344467 
L 426.3345 681.483202 
L 427.536 684.776226 
L 428.7375 687.734328 
L 429.939 689.533915 
L 431.1405 691.744088 
L 433.5435 695.176412 
L 434.745 697.56301 
L 435.9465 700.978268 
L 437.148 703.139033 
L 438.3495 704.448357 
L 440.7525 710.26386 
L 441.954 712.116677 
L 443.1555 713.709375 
L 444.357 715.638926 
L 445.5585 717.218078 
L 446.76 719.278909 
L 447.9615 721.083514 
L 449.163 722.492304 
L 452.7675 727.475111 
L 453.969 728.599233 
L 455.1705 729.876013 
L 456.372 731.391316 
L 457.5735 732.45381 
L 458.775 733.153336 
L 459.9765 731.790612 
L 461.178 731.48696 
L 462.3795 731.52883 
L 464.7825 733.474606 
L 465.984 732.481345 
L 467.1855 732.311417 
L 468.387 732.437982 
L 469.5885 733.822509 
L 470.79 734.425018 
L 471.9915 733.822286 
L 473.193 734.286956 
L 474.3945 733.313537 
L 475.596 733.194154 
L 476.7975 734.140423 
L 477.999 734.775066 
L 479.2005 733.971972 
L 480.402 733.86606 
L 481.6035 733.449819 
L 482.805 733.80968 
L 484.0065 734.8254 
L 485.208 735.475272 
L 486.4095 735.140694 
L 488.8125 734.938405 
L 490.014 735.876555 
L 491.2155 735.761 
L 492.417 735.982932 
L 493.6185 734.600344 
L 494.82 733.485808 
L 496.0215 732.16351 
L 497.223 732.040905 
L 498.4245 732.198376 
L 500.8275 731.965564 
L 502.029 733.45737 
L 503.2305 731.825872 
L 504.432 732.02623 
L 505.6335 731.283402 
L 506.835 730.804175 
L 508.0365 731.543109 
L 509.238 732.13805 
L 510.4395 732.527227 
L 512.8425 732.963782 
L 514.044 732.833266 
L 515.2455 733.582764 
L 516.447 734.026473 
L 517.6485 734.242643 
L 518.85 734.244109 
L 520.0515 734.524192 
L 521.253 735.005781 
L 522.4545 735.094747 
L 523.656 734.21877 
L 524.8575 734.519755 
L 526.059 733.337326 
L 527.2605 733.102484 
L 528.462 733.171737 
L 529.6635 732.501873 
L 530.865 733.273371 
L 532.0665 733.69832 
L 533.268 733.524196 
L 534.4695 734.011149 
L 535.671 733.92943 
L 536.8725 735.399006 
L 538.074 734.556204 
L 539.2755 735.003201 
L 540.477 733.671965 
L 541.6785 734.237908 
L 542.88 734.652259 
L 544.0815 734.820743 
L 545.283 735.751236 
L 546.4845 734.142529 
L 547.686 733.320359 
L 548.8875 733.284862 
L 550.089 733.52909 
L 551.2905 734.227902 
L 552.492 734.195713 
L 554.895 735.715316 
L 556.0965 733.958482 
L 557.298 733.452809 
L 558.4995 733.421096 
L 559.701 733.662089 
L 562.104 733.213167 
L 563.3055 732.632858 
L 564.507 730.541349 
L 565.7085 731.506262 
L 568.1115 734.433503 
L 569.313 734.005812 
L 570.5145 733.415971 
L 571.716 732.977718 
L 572.9175 734.190733 
L 574.119 733.483486 
L 575.3205 733.465005 
L 576.522 734.005188 
L 577.7235 734.680653 
L 578.925 734.48839 
L 580.1265 734.178336 
L 581.328 734.501924 
L 582.5295 734.611173 
L 583.731 734.448157 
L 584.9325 735.171593 
L 587.3355 733.715183 
L 588.537 733.432637 
L 589.7385 732.757457 
L 590.94 732.95869 
L 592.1415 734.226342 
L 593.343 734.279947 
L 594.5445 733.029555 
L 595.746 732.945969 
L 598.149 733.661736 
L 599.3505 732.807195 
L 601.7535 732.401121 
L 602.955 733.140966 
L 605.358 734.001743 
L 606.5595 734.107916 
L 607.761 733.556731 
L 608.9625 734.380893 
L 610.164 734.536028 
L 611.3655 733.457058 
L 612.567 734.070923 
L 613.7685 733.851746 
L 614.97 735.246831 
L 616.1715 735.104147 
L 617.373 735.261815 
L 618.5745 734.860883 
L 619.776 734.664381 
L 620.9775 733.888311 
L 622.179 733.781237 
L 623.3805 734.268443 
L 624.582 731.84714 
L 625.7835 731.776865 
L 626.985 732.760071 
L 628.1865 732.305453 
L 629.388 732.68639 
L 630.5895 733.347126 
L 631.791 733.782527 
L 632.9925 733.743678 
L 634.194 732.654704 
L 635.3955 734.122313 
L 636.597 733.603881 
L 637.7985 734.691646 
L 639 735.244181 
L 640.2015 734.912076 
L 641.403 734.718674 
L 642.6045 735.012587 
L 643.806 735.006653 
L 645.0075 735.295803 
L 646.209 733.803293 
L 647.4105 734.382611 
L 648.612 734.109475 
L 649.8135 734.614584 
L 651.015 734.948792 
L 652.2165 732.990044 
L 653.418 732.1538 
L 655.821 733.138626 
L 657.0225 733.005337 
L 658.224 733.589596 
L 659.4255 733.449397 
L 660.627 733.952824 
L 661.8285 734.187965 
L 663.03 732.906968 
L 664.2315 733.28252 
L 665.433 731.936249 
L 667.836 734.005883 
L 669.0375 733.298071 
L 670.239 734.217436 
L 671.4405 734.220805 
L 672.642 733.863067 
L 673.8435 734.545962 
L 675.045 733.944716 
L 676.2465 734.757018 
L 677.448 734.849257 
L 678.6495 735.62662 
L 679.851 734.868448 
L 681.0525 733.669653 
L 682.254 732.70097 
L 683.4555 732.264196 
L 684.657 732.237917 
L 685.8585 733.068822 
L 687.06 733.242241 
L 688.2615 733.145542 
L 690.6645 734.674396 
L 691.866 734.346369 
L 693.0675 734.732896 
L 694.269 734.751368 
L 696.672 733.940025 
L 697.8735 733.89465 
L 699.075 733.090415 
L 700.2765 733.843768 
L 701.478 731.716818 
L 702.6795 731.858981 
L 703.881 729.631596 
L 705.0825 730.454945 
L 706.284 731.539787 
L 707.4855 731.68423 
L 708.687 732.808059 
L 709.8885 733.741693 
L 712.2915 732.795034 
L 713.493 733.097955 
L 714.6945 733.631586 
L 715.896 734.5898 
L 717.0975 735.385993 
L 718.299 734.824298 
L 719.5005 735.334185 
L 720.702 734.521141 
L 721.9035 733.988756 
L 723.105 733.777546 
L 725.508 733.168707 
L 726.7095 733.012292 
L 727.911 732.362088 
L 729.1125 732.450212 
L 730.314 732.408443 
L 731.5155 731.746512 
L 732.717 730.681971 
L 733.9185 731.655098 
L 735.12 731.125757 
L 736.3215 731.400522 
L 738.7245 732.443264 
L 739.926 732.972996 
L 741.1275 733.979857 
L 742.329 734.615509 
L 743.5305 734.501513 
L 744.732 733.785706 
L 745.9335 734.578297 
L 747.135 734.360535 
L 748.3365 734.449031 
L 749.538 733.098692 
L 750.7395 733.019954 
L 753.1425 734.079602 
L 754.344 733.863442 
L 755.5455 734.156999 
L 756.747 732.624328 
L 759.15 734.211097 
L 760.3515 733.950583 
L 761.553 734.247725 
L 762.7545 734.318239 
L 763.956 734.176502 
L 765.1575 734.678948 
L 766.359 735.530724 
L 767.5605 734.741258 
L 768.762 735.060045 
L 769.9635 733.883688 
L 771.165 735.094449 
L 772.3665 734.011627 
L 773.568 734.513357 
L 774.7695 734.049539 
L 775.971 734.673349 
L 777.1725 734.413168 
L 778.374 733.666418 
L 779.5755 733.719275 
L 780.777 734.13068 
L 781.9785 733.734622 
L 783.18 734.466851 
L 784.3815 734.805947 
L 785.583 735.548595 
L 786.7845 734.713866 
L 787.986 734.867951 
L 789.1875 734.095056 
L 790.389 733.651859 
L 791.5905 733.036319 
L 792.792 733.53512 
L 793.9935 732.145824 
L 795.195 732.842961 
L 796.3965 733.286282 
L 797.598 733.553051 
L 798.7995 732.945136 
L 800.001 733.267631 
L 801.2025 733.765505 
L 803.6055 734.350022 
L 804.807 735.384757 
L 806.0085 733.511656 
L 807.21 732.317878 
L 808.4115 733.765936 
L 809.613 734.416493 
L 810.8145 733.66099 
L 812.016 733.109294 
L 813.2175 733.263297 
L 814.419 731.472345 
L 815.6205 731.518179 
L 816.822 731.379566 
L 818.0235 731.034956 
L 819.225 731.332603 
L 820.4265 730.425324 
L 821.628 731.938775 
L 822.8295 733.111112 
L 824.031 733.610644 
L 825.2325 733.30191 
L 826.434 732.546071 
L 827.6355 733.748706 
L 828.837 733.44545 
L 830.0385 731.74341 
L 831.24 730.943384 
L 832.4415 732.195187 
L 833.643 732.010513 
L 836.046 734.926766 
L 837.2475 734.477308 
L 838.449 734.437048 
L 839.6505 734.109278 
L 840.852 735.471641 
L 842.0535 734.089597 
L 843.255 734.250253 
L 844.4565 733.530771 
L 845.658 732.99262 
L 846.8595 733.861813 
L 848.061 733.880842 
L 849.2625 733.440079 
L 850.464 732.579863 
L 851.6655 732.611077 
L 852.867 732.106392 
L 855.27 733.982884 
L 856.4715 734.616205 
L 857.673 734.407982 
L 858.8745 733.423482 
L 860.076 733.07929 
L 861.2775 733.380962 
L 862.479 733.872236 
L 863.6805 734.819353 
L 864.882 734.357968 
L 866.0835 735.453837 
L 867.285 734.915559 
L 868.4865 733.83721 
L 869.688 733.917922 
L 870.8895 733.560315 
L 872.091 733.568537 
L 874.494 734.732855 
L 875.6955 735.696013 
L 878.0985 734.970751 
L 879.3 735.588758 
L 880.5015 734.859299 
L 881.703 734.951487 
L 882.9045 734.635096 
L 884.106 735.330732 
L 885.3075 734.388308 
L 886.509 734.441398 
L 887.7105 733.601295 
L 888.912 733.781022 
L 890.1135 734.69039 
L 891.315 734.610552 
L 892.5165 734.752876 
L 893.718 733.423595 
L 894.9195 733.816627 
L 896.121 733.330052 
L 898.524 735.453598 
L 899.7255 734.739718 
L 900.927 734.77522 
L 903.33 733.19266 
L 904.5315 728.665472 
L 905.733 729.231694 
L 906.9345 730.717222 
L 908.136 730.796237 
L 909.3375 731.041789 
L 910.539 731.933296 
L 911.7405 732.18195 
L 912.942 732.568619 
L 914.1435 731.326223 
L 915.345 731.124171 
L 916.5465 731.724179 
L 917.748 733.005106 
L 918.9495 732.306765 
L 920.151 733.471104 
L 921.3525 733.52131 
L 922.554 733.043944 
L 923.7555 733.539265 
L 924.957 734.530669 
L 926.1585 733.899426 
L 927.36 734.673209 
L 928.5615 733.446598 
L 929.763 734.972915 
L 930.9645 734.430551 
L 932.166 734.656574 
L 933.3675 734.999554 
L 934.569 734.189704 
L 935.7705 734.108685 
L 936.972 733.719991 
L 939.375 733.581552 
L 940.5765 733.816185 
L 941.778 734.312798 
L 942.9795 733.802529 
L 944.181 734.139305 
L 945.3825 733.935372 
L 946.584 733.046275 
L 947.7855 733.483381 
L 948.987 734.132645 
L 950.1885 734.34858 
L 951.39 733.197974 
L 952.5915 734.269541 
L 953.793 733.950547 
L 954.9945 733.893429 
L 956.196 734.940191 
L 958.599 734.693696 
L 959.8005 735.920276 
L 961.002 734.978477 
L 963.405 735.752661 
L 964.6065 736.031858 
L 965.808 735.388644 
L 967.0095 733.936856 
L 968.211 733.52089 
L 969.4125 732.307346 
L 970.614 732.375352 
L 973.017 733.300399 
L 974.2185 732.955474 
L 975.42 733.779604 
L 976.6215 733.71738 
L 977.823 732.405815 
L 979.0245 732.384149 
L 980.226 733.072733 
L 981.4275 732.477525 
L 982.629 733.45557 
L 983.8305 734.634401 
L 985.032 734.550991 
L 986.2335 732.6214 
L 987.435 732.891743 
L 991.0395 732.820021 
L 992.241 733.564026 
L 993.4425 734.455932 
L 994.644 734.155464 
L 995.8455 733.216042 
L 997.047 733.58259 
L 998.2485 733.656716 
L 999.45 734.351493 
L 1000.6515 734.732622 
L 1001.853 734.161854 
L 1003.0545 734.072994 
L 1004.256 733.85472 
L 1005.4575 733.05272 
L 1006.659 733.610925 
L 1007.8605 733.400823 
L 1009.062 733.52064 
L 1010.2635 734.150388 
L 1011.465 735.623192 
L 1012.6665 735.579624 
L 1013.868 735.200557 
L 1015.0695 735.898643 
L 1017.4725 734.698001 
L 1019.8755 735.163254 
L 1021.077 730.449017 
L 1022.2785 731.246551 
L 1024.6815 730.948164 
L 1025.883 730.8611 
L 1027.0845 731.203708 
L 1028.286 730.624761 
L 1029.4875 731.656175 
L 1031.8905 731.296809 
L 1033.092 731.654149 
L 1034.2935 731.125201 
L 1035.495 731.594603 
L 1036.6965 732.463304 
L 1037.898 732.995626 
L 1039.0995 732.65243 
L 1040.301 731.909997 
L 1041.5025 731.46868 
L 1042.704 731.401769 
L 1043.9055 731.666954 
L 1045.107 732.760676 
L 1046.3085 734.042472 
L 1047.51 734.442137 
L 1048.7115 732.626526 
L 1049.913 732.556187 
L 1051.1145 732.701248 
L 1052.316 733.282528 
L 1053.5175 732.787074 
L 1055.9205 733.912594 
L 1057.122 734.117562 
L 1058.3235 733.322532 
L 1060.7265 734.626158 
L 1061.928 734.749071 
L 1063.1295 735.100433 
L 1064.331 735.159206 
L 1065.5325 735.554609 
L 1066.734 734.141535 
L 1067.9355 733.284513 
L 1069.137 733.289171 
L 1070.3385 733.787592 
L 1071.54 733.363413 
L 1072.7415 734.190171 
L 1073.943 733.866821 
L 1075.1445 733.423147 
L 1076.346 732.727672 
L 1077.5475 732.999903 
L 1078.749 733.86077 
L 1079.9505 734.44882 
L 1082.3535 734.953299 
L 1083.555 734.450493 
L 1084.7565 734.777589 
L 1088.361 735.335257 
L 1089.5625 734.679582 
L 1090.764 734.379679 
L 1091.9655 733.795845 
L 1093.167 733.440075 
L 1094.3685 733.897412 
L 1095.57 734.574249 
L 1096.7715 734.925173 
L 1097.973 734.837455 
L 1099.1745 735.018507 
L 1100.376 734.87989 
L 1101.5775 735.289728 
L 1102.779 734.769799 
L 1103.9805 734.977827 
L 1105.182 734.909991 
L 1106.3835 736.21306 
L 1107.585 735.166187 
L 1108.7865 735.095725 
L 1109.988 734.391325 
L 1111.1895 734.388643 
L 1112.391 734.508101 
L 1113.5925 734.396627 
L 1114.794 734.704227 
L 1115.9955 735.230402 
L 1117.197 735.879157 
L 1118.3985 734.676892 
L 1119.6 735.496228 
L 1120.8015 735.004523 
L 1122.003 735.615405 
L 1123.2045 734.943473 
L 1124.406 734.954293 
L 1125.6075 733.315347 
L 1126.809 732.546115 
L 1128.0105 732.897072 
L 1129.212 733.041873 
L 1130.4135 733.606539 
L 1131.615 734.489137 
L 1132.8165 735.072743 
L 1134.018 735.039782 
L 1135.2195 734.669992 
L 1136.421 735.175106 
L 1137.6225 734.60849 
L 1138.824 732.898191 
L 1140.0255 733.286694 
L 1141.227 734.690751 
L 1142.4285 734.175647 
L 1143.63 734.155681 
L 1144.8315 733.517636 
L 1146.033 733.709464 
L 1147.2345 734.769103 
L 1148.436 733.891574 
L 1149.6375 733.640241 
L 1150.839 732.918941 
L 1152.0405 733.666853 
L 1153.242 733.486837 
L 1154.4435 734.670594 
L 1155.645 733.939284 
L 1156.8465 736.129948 
L 1158.048 736.064189 
L 1159.2495 733.806545 
L 1160.451 733.207748 
L 1161.6525 733.453566 
L 1162.854 733.530949 
L 1164.0555 733.307978 
L 1165.257 732.288997 
L 1166.4585 732.121737 
L 1167.66 732.721207 
L 1168.8615 733.126847 
L 1170.063 733.047937 
L 1171.2645 734.147765 
L 1172.466 733.659821 
L 1173.6675 733.581437 
L 1174.869 734.645319 
L 1176.0705 734.543088 
L 1177.272 733.719448 
L 1178.4735 733.921787 
L 1180.8765 735.179265 
L 1182.078 735.698052 
L 1183.2795 734.785828 
L 1184.481 735.4014 
L 1185.6825 734.509313 
L 1186.884 735.19766 
L 1188.0855 734.262346 
L 1189.287 734.317147 
L 1190.4885 734.947761 
L 1191.69 733.763623 
L 1192.8915 734.357441 
L 1194.093 734.135653 
L 1195.2945 734.28924 
L 1196.496 733.666223 
L 1197.6975 733.373535 
L 1198.899 732.573598 
L 1200.1005 734.07208 
L 1201.302 734.190146 
L 1202.5035 734.651932 
L 1204.9065 734.232979 
L 1206.108 733.7039 
L 1207.3095 732.845057 
L 1208.511 733.520888 
L 1210.914 733.748303 
L 1212.1155 734.033868 
L 1213.317 734.122002 
L 1214.5185 733.655369 
L 1215.72 733.043004 
L 1216.9215 734.463549 
L 1218.123 734.389002 
L 1219.3245 732.9888 
L 1220.526 732.84478 
L 1222.929 732.246615 
L 1225.332 733.890015 
L 1226.5335 733.997538 
L 1227.735 733.687828 
L 1230.138 733.788151 
L 1231.3395 733.461981 
L 1234.944 733.478813 
L 1236.1455 734.170315 
L 1237.347 730.812111 
L 1238.5485 730.34216 
L 1239.75 731.60519 
L 1240.9515 731.487988 
L 1242.153 732.657323 
L 1243.3545 732.945748 
L 1244.556 732.862614 
L 1245.7575 733.682659 
L 1246.959 733.980045 
L 1248.1605 733.841347 
L 1249.362 733.823358 
L 1250.5635 733.997877 
L 1251.765 734.345578 
L 1254.168 734.331467 
L 1255.3695 734.983361 
L 1256.571 734.835633 
L 1258.974 734.219446 
L 1260.1755 732.983544 
L 1261.377 733.502935 
L 1263.78 733.876987 
L 1264.9815 732.850153 
L 1266.183 732.079365 
L 1267.3845 733.228951 
L 1268.586 732.648841 
L 1269.7875 732.794367 
L 1270.989 733.600727 
L 1272.1905 734.107003 
L 1273.392 734.134004 
L 1274.5935 733.740264 
L 1275.795 733.886717 
L 1278.198 732.906872 
L 1279.3995 731.786878 
L 1280.601 731.210599 
L 1281.8025 731.812405 
L 1283.004 733.029381 
L 1285.407 733.888801 
L 1286.6085 733.920701 
L 1287.81 734.101573 
L 1289.0115 734.422184 
L 1290.213 734.961358 
L 1291.4145 733.538296 
L 1292.616 734.05402 
L 1293.8175 732.319453 
L 1295.019 732.358128 
L 1296.2205 732.235875 
L 1297.422 731.969243 
L 1298.6235 732.631718 
L 1299.825 733.093272 
L 1301.0265 734.024212 
L 1302.228 733.740344 
L 1303.4295 733.832767 
L 1304.631 734.578499 
L 1305.8325 734.519076 
L 1307.034 735.341009 
L 1308.2355 735.098098 
L 1309.437 735.153703 
L 1310.6385 734.721496 
L 1311.84 733.387121 
L 1313.0415 732.932076 
L 1314.243 733.125338 
L 1315.4445 732.400169 
L 1317.8475 733.957533 
L 1319.049 733.551346 
L 1320.2505 733.71871 
L 1321.452 734.142239 
L 1322.6535 733.926845 
L 1323.855 734.542443 
L 1325.0565 734.667231 
L 1327.4595 734.585794 
L 1328.661 734.712641 
L 1329.8625 735.094136 
L 1331.064 735.302305 
L 1332.2655 735.145897 
L 1333.467 733.885096 
L 1334.6685 735.151794 
L 1335.87 734.651572 
L 1337.0715 735.159965 
L 1338.273 735.269982 
L 1339.4745 735.06495 
L 1340.676 734.664093 
L 1341.8775 734.569256 
L 1343.079 735.730644 
L 1344.2805 735.31956 
L 1345.482 735.055626 
L 1346.6835 735.833466 
L 1347.885 735.420001 
L 1349.0865 734.852167 
L 1350.288 734.691106 
L 1351.4895 734.156403 
L 1352.691 734.510123 
L 1353.8925 733.136522 
L 1356.2955 734.269789 
L 1357.497 734.045046 
L 1358.6985 733.955204 
L 1358.6985 733.955204 
" style="fill:none;stroke:#008000;stroke-linecap:square;stroke-width:2.0;"/>
   </g>
   <g id="patch_3">
    <path d="M 158.4 51.3 
L 1359.9 51.3 
" style="fill:none;stroke:#000000;stroke-linecap:square;stroke-linejoin:miter;"/>
   </g>
   <g id="patch_4">
    <path d="M 1359.9 747 
L 1359.9 51.3 
" style="fill:none;stroke:#000000;stroke-linecap:square;stroke-linejoin:miter;"/>
   </g>
   <g id="patch_5">
    <path d="M 158.4 747 
L 1359.9 747 
" style="fill:none;stroke:#000000;stroke-linecap:square;stroke-linejoin:miter;"/>
   </g>
   <g id="patch_6">
    <path d="M 158.4 747 
L 158.4 51.3 
" style="fill:none;stroke:#000000;stroke-linecap:square;stroke-linejoin:miter;"/>
   </g>
   <g id="matplotlib.axis_1">
    <g id="xtick_1">
     <g id="line2d_3">
      <defs>
       <path d="M 0 0 
L 0 -4 
" id="mb86a51bba7" style="stroke:#000000;stroke-width:0.5;"/>
      </defs>
      <g>
       <use style="stroke:#000000;stroke-width:0.5;" x="158.4" xlink:href="#mb86a51bba7" y="747.0"/>
      </g>
     </g>
     <g id="line2d_4">
      <defs>
       <path d="M 0 0 
L 0 4 
" id="m345d6ea1c7" style="stroke:#000000;stroke-width:0.5;"/>
      </defs>
      <g>
       <use style="stroke:#000000;stroke-width:0.5;" x="158.4" xlink:href="#m345d6ea1c7" y="51.3"/>
      </g>
     </g>
     <g id="text_1">
      <!-- 0 -->
      <defs>
       <path d="M 31.78125 66.40625 
Q 24.171875 66.40625 20.328125 58.90625 
Q 16.5 51.421875 16.5 36.375 
Q 16.5 21.390625 20.328125 13.890625 
Q 24.171875 6.390625 31.78125 6.390625 
Q 39.453125 6.390625 43.28125 13.890625 
Q 47.125 21.390625 47.125 36.375 
Q 47.125 51.421875 43.28125 58.90625 
Q 39.453125 66.40625 31.78125 66.40625 
M 31.78125 74.21875 
Q 44.046875 74.21875 50.515625 64.515625 
Q 56.984375 54.828125 56.984375 36.375 
Q 56.984375 17.96875 50.515625 8.265625 
Q 44.046875 -1.421875 31.78125 -1.421875 
Q 19.53125 -1.421875 13.0625 8.265625 
Q 6.59375 17.96875 6.59375 36.375 
Q 6.59375 54.828125 13.0625 64.515625 
Q 19.53125 74.21875 31.78125 74.21875 
" id="BitstreamVeraSans-Roman-30"/>
      </defs>
      <g transform="translate(148.85625 773.7953125)scale(0.3 -0.3)">
       <use xlink:href="#BitstreamVeraSans-Roman-30"/>
      </g>
     </g>
    </g>
    <g id="xtick_2">
     <g id="line2d_5">
      <g>
       <use style="stroke:#000000;stroke-width:0.5;" x="398.7" xlink:href="#mb86a51bba7" y="747.0"/>
      </g>
     </g>
     <g id="line2d_6">
      <g>
       <use style="stroke:#000000;stroke-width:0.5;" x="398.7" xlink:href="#m345d6ea1c7" y="51.3"/>
      </g>
     </g>
     <g id="text_2">
      <!-- 200 -->
      <defs>
       <path d="M 19.1875 8.296875 
L 53.609375 8.296875 
L 53.609375 0 
L 7.328125 0 
L 7.328125 8.296875 
Q 12.9375 14.109375 22.625 23.890625 
Q 32.328125 33.6875 34.8125 36.53125 
Q 39.546875 41.84375 41.421875 45.53125 
Q 43.3125 49.21875 43.3125 52.78125 
Q 43.3125 58.59375 39.234375 62.25 
Q 35.15625 65.921875 28.609375 65.921875 
Q 23.96875 65.921875 18.8125 64.3125 
Q 13.671875 62.703125 7.8125 59.421875 
L 7.8125 69.390625 
Q 13.765625 71.78125 18.9375 73 
Q 24.125 74.21875 28.421875 74.21875 
Q 39.75 74.21875 46.484375 68.546875 
Q 53.21875 62.890625 53.21875 53.421875 
Q 53.21875 48.921875 51.53125 44.890625 
Q 49.859375 40.875 45.40625 35.40625 
Q 44.1875 33.984375 37.640625 27.21875 
Q 31.109375 20.453125 19.1875 8.296875 
" id="BitstreamVeraSans-Roman-32"/>
      </defs>
      <g transform="translate(370.06875 773.7953125)scale(0.3 -0.3)">
       <use xlink:href="#BitstreamVeraSans-Roman-32"/>
       <use x="63.623046875" xlink:href="#BitstreamVeraSans-Roman-30"/>
       <use x="127.24609375" xlink:href="#BitstreamVeraSans-Roman-30"/>
      </g>
     </g>
    </g>
    <g id="xtick_3">
     <g id="line2d_7">
      <g>
       <use style="stroke:#000000;stroke-width:0.5;" x="639.0" xlink:href="#mb86a51bba7" y="747.0"/>
      </g>
     </g>
     <g id="line2d_8">
      <g>
       <use style="stroke:#000000;stroke-width:0.5;" x="639.0" xlink:href="#m345d6ea1c7" y="51.3"/>
      </g>
     </g>
     <g id="text_3">
      <!-- 400 -->
      <defs>
       <path d="M 37.796875 64.3125 
L 12.890625 25.390625 
L 37.796875 25.390625 
z
M 35.203125 72.90625 
L 47.609375 72.90625 
L 47.609375 25.390625 
L 58.015625 25.390625 
L 58.015625 17.1875 
L 47.609375 17.1875 
L 47.609375 0 
L 37.796875 0 
L 37.796875 17.1875 
L 4.890625 17.1875 
L 4.890625 26.703125 
z
" id="BitstreamVeraSans-Roman-34"/>
      </defs>
      <g transform="translate(610.36875 773.7953125)scale(0.3 -0.3)">
       <use xlink:href="#BitstreamVeraSans-Roman-34"/>
       <use x="63.623046875" xlink:href="#BitstreamVeraSans-Roman-30"/>
       <use x="127.24609375" xlink:href="#BitstreamVeraSans-Roman-30"/>
      </g>
     </g>
    </g>
    <g id="xtick_4">
     <g id="line2d_9">
      <g>
       <use style="stroke:#000000;stroke-width:0.5;" x="879.3" xlink:href="#mb86a51bba7" y="747.0"/>
      </g>
     </g>
     <g id="line2d_10">
      <g>
       <use style="stroke:#000000;stroke-width:0.5;" x="879.3" xlink:href="#m345d6ea1c7" y="51.3"/>
      </g>
     </g>
     <g id="text_4">
      <!-- 600 -->
      <defs>
       <path d="M 33.015625 40.375 
Q 26.375 40.375 22.484375 35.828125 
Q 18.609375 31.296875 18.609375 23.390625 
Q 18.609375 15.53125 22.484375 10.953125 
Q 26.375 6.390625 33.015625 6.390625 
Q 39.65625 6.390625 43.53125 10.953125 
Q 47.40625 15.53125 47.40625 23.390625 
Q 47.40625 31.296875 43.53125 35.828125 
Q 39.65625 40.375 33.015625 40.375 
M 52.59375 71.296875 
L 52.59375 62.3125 
Q 48.875 64.0625 45.09375 64.984375 
Q 41.3125 65.921875 37.59375 65.921875 
Q 27.828125 65.921875 22.671875 59.328125 
Q 17.53125 52.734375 16.796875 39.40625 
Q 19.671875 43.65625 24.015625 45.921875 
Q 28.375 48.1875 33.59375 48.1875 
Q 44.578125 48.1875 50.953125 41.515625 
Q 57.328125 34.859375 57.328125 23.390625 
Q 57.328125 12.15625 50.6875 5.359375 
Q 44.046875 -1.421875 33.015625 -1.421875 
Q 20.359375 -1.421875 13.671875 8.265625 
Q 6.984375 17.96875 6.984375 36.375 
Q 6.984375 53.65625 15.1875 63.9375 
Q 23.390625 74.21875 37.203125 74.21875 
Q 40.921875 74.21875 44.703125 73.484375 
Q 48.484375 72.75 52.59375 71.296875 
" id="BitstreamVeraSans-Roman-36"/>
      </defs>
      <g transform="translate(850.66875 773.7953125)scale(0.3 -0.3)">
       <use xlink:href="#BitstreamVeraSans-Roman-36"/>
       <use x="63.623046875" xlink:href="#BitstreamVeraSans-Roman-30"/>
       <use x="127.24609375" xlink:href="#BitstreamVeraSans-Roman-30"/>
      </g>
     </g>
    </g>
    <g id="xtick_5">
     <g id="line2d_11">
      <g>
       <use style="stroke:#000000;stroke-width:0.5;" x="1119.6" xlink:href="#mb86a51bba7" y="747.0"/>
      </g>
     </g>
     <g id="line2d_12">
      <g>
       <use style="stroke:#000000;stroke-width:0.5;" x="1119.6" xlink:href="#m345d6ea1c7" y="51.3"/>
      </g>
     </g>
     <g id="text_5">
      <!-- 800 -->
      <defs>
       <path d="M 31.78125 34.625 
Q 24.75 34.625 20.71875 30.859375 
Q 16.703125 27.09375 16.703125 20.515625 
Q 16.703125 13.921875 20.71875 10.15625 
Q 24.75 6.390625 31.78125 6.390625 
Q 38.8125 6.390625 42.859375 10.171875 
Q 46.921875 13.96875 46.921875 20.515625 
Q 46.921875 27.09375 42.890625 30.859375 
Q 38.875 34.625 31.78125 34.625 
M 21.921875 38.8125 
Q 15.578125 40.375 12.03125 44.71875 
Q 8.5 49.078125 8.5 55.328125 
Q 8.5 64.0625 14.71875 69.140625 
Q 20.953125 74.21875 31.78125 74.21875 
Q 42.671875 74.21875 48.875 69.140625 
Q 55.078125 64.0625 55.078125 55.328125 
Q 55.078125 49.078125 51.53125 44.71875 
Q 48 40.375 41.703125 38.8125 
Q 48.828125 37.15625 52.796875 32.3125 
Q 56.78125 27.484375 56.78125 20.515625 
Q 56.78125 9.90625 50.3125 4.234375 
Q 43.84375 -1.421875 31.78125 -1.421875 
Q 19.734375 -1.421875 13.25 4.234375 
Q 6.78125 9.90625 6.78125 20.515625 
Q 6.78125 27.484375 10.78125 32.3125 
Q 14.796875 37.15625 21.921875 38.8125 
M 18.3125 54.390625 
Q 18.3125 48.734375 21.84375 45.5625 
Q 25.390625 42.390625 31.78125 42.390625 
Q 38.140625 42.390625 41.71875 45.5625 
Q 45.3125 48.734375 45.3125 54.390625 
Q 45.3125 60.0625 41.71875 63.234375 
Q 38.140625 66.40625 31.78125 66.40625 
Q 25.390625 66.40625 21.84375 63.234375 
Q 18.3125 60.0625 18.3125 54.390625 
" id="BitstreamVeraSans-Roman-38"/>
      </defs>
      <g transform="translate(1090.96875 773.7953125)scale(0.3 -0.3)">
       <use xlink:href="#BitstreamVeraSans-Roman-38"/>
       <use x="63.623046875" xlink:href="#BitstreamVeraSans-Roman-30"/>
       <use x="127.24609375" xlink:href="#BitstreamVeraSans-Roman-30"/>
      </g>
     </g>
    </g>
    <g id="xtick_6">
     <g id="line2d_13">
      <g>
       <use style="stroke:#000000;stroke-width:0.5;" x="1359.9" xlink:href="#mb86a51bba7" y="747.0"/>
      </g>
     </g>
     <g id="line2d_14">
      <g>
       <use style="stroke:#000000;stroke-width:0.5;" x="1359.9" xlink:href="#m345d6ea1c7" y="51.3"/>
      </g>
     </g>
     <g id="text_6">
      <!-- 1000 -->
      <defs>
       <path d="M 12.40625 8.296875 
L 28.515625 8.296875 
L 28.515625 63.921875 
L 10.984375 60.40625 
L 10.984375 69.390625 
L 28.421875 72.90625 
L 38.28125 72.90625 
L 38.28125 8.296875 
L 54.390625 8.296875 
L 54.390625 0 
L 12.40625 0 
z
" id="BitstreamVeraSans-Roman-31"/>
      </defs>
      <g transform="translate(1321.725 773.7953125)scale(0.3 -0.3)">
       <use xlink:href="#BitstreamVeraSans-Roman-31"/>
       <use x="63.623046875" xlink:href="#BitstreamVeraSans-Roman-30"/>
       <use x="127.24609375" xlink:href="#BitstreamVeraSans-Roman-30"/>
       <use x="190.869140625" xlink:href="#BitstreamVeraSans-Roman-30"/>
      </g>
     </g>
    </g>
    <g id="text_7">
     <!-- iterations -->
     <defs>
      <path d="M 54.890625 33.015625 
L 54.890625 0 
L 45.90625 0 
L 45.90625 32.71875 
Q 45.90625 40.484375 42.875 44.328125 
Q 39.84375 48.1875 33.796875 48.1875 
Q 26.515625 48.1875 22.3125 43.546875 
Q 18.109375 38.921875 18.109375 30.90625 
L 18.109375 0 
L 9.078125 0 
L 9.078125 54.6875 
L 18.109375 54.6875 
L 18.109375 46.1875 
Q 21.34375 51.125 25.703125 53.5625 
Q 30.078125 56 35.796875 56 
Q 45.21875 56 50.046875 50.171875 
Q 54.890625 44.34375 54.890625 33.015625 
" id="BitstreamVeraSans-Roman-6e"/>
      <path d="M 34.28125 27.484375 
Q 23.390625 27.484375 19.1875 25 
Q 14.984375 22.515625 14.984375 16.5 
Q 14.984375 11.71875 18.140625 8.90625 
Q 21.296875 6.109375 26.703125 6.109375 
Q 34.1875 6.109375 38.703125 11.40625 
Q 43.21875 16.703125 43.21875 25.484375 
L 43.21875 27.484375 
z
M 52.203125 31.203125 
L 52.203125 0 
L 43.21875 0 
L 43.21875 8.296875 
Q 40.140625 3.328125 35.546875 0.953125 
Q 30.953125 -1.421875 24.3125 -1.421875 
Q 15.921875 -1.421875 10.953125 3.296875 
Q 6 8.015625 6 15.921875 
Q 6 25.140625 12.171875 29.828125 
Q 18.359375 34.515625 30.609375 34.515625 
L 43.21875 34.515625 
L 43.21875 35.40625 
Q 43.21875 41.609375 39.140625 45 
Q 35.0625 48.390625 27.6875 48.390625 
Q 23 48.390625 18.546875 47.265625 
Q 14.109375 46.140625 10.015625 43.890625 
L 10.015625 52.203125 
Q 14.9375 54.109375 19.578125 55.046875 
Q 24.21875 56 28.609375 56 
Q 40.484375 56 46.34375 49.84375 
Q 52.203125 43.703125 52.203125 31.203125 
" id="BitstreamVeraSans-Roman-61"/>
      <path d="M 30.609375 48.390625 
Q 23.390625 48.390625 19.1875 42.75 
Q 14.984375 37.109375 14.984375 27.296875 
Q 14.984375 17.484375 19.15625 11.84375 
Q 23.34375 6.203125 30.609375 6.203125 
Q 37.796875 6.203125 41.984375 11.859375 
Q 46.1875 17.53125 46.1875 27.296875 
Q 46.1875 37.015625 41.984375 42.703125 
Q 37.796875 48.390625 30.609375 48.390625 
M 30.609375 56 
Q 42.328125 56 49.015625 48.375 
Q 55.71875 40.765625 55.71875 27.296875 
Q 55.71875 13.875 49.015625 6.21875 
Q 42.328125 -1.421875 30.609375 -1.421875 
Q 18.84375 -1.421875 12.171875 6.21875 
Q 5.515625 13.875 5.515625 27.296875 
Q 5.515625 40.765625 12.171875 48.375 
Q 18.84375 56 30.609375 56 
" id="BitstreamVeraSans-Roman-6f"/>
      <path d="M 9.421875 54.6875 
L 18.40625 54.6875 
L 18.40625 0 
L 9.421875 0 
z
M 9.421875 75.984375 
L 18.40625 75.984375 
L 18.40625 64.59375 
L 9.421875 64.59375 
z
" id="BitstreamVeraSans-Roman-69"/>
      <path d="M 56.203125 29.59375 
L 56.203125 25.203125 
L 14.890625 25.203125 
Q 15.484375 15.921875 20.484375 11.0625 
Q 25.484375 6.203125 34.421875 6.203125 
Q 39.59375 6.203125 44.453125 7.46875 
Q 49.3125 8.734375 54.109375 11.28125 
L 54.109375 2.78125 
Q 49.265625 0.734375 44.1875 -0.34375 
Q 39.109375 -1.421875 33.890625 -1.421875 
Q 20.796875 -1.421875 13.15625 6.1875 
Q 5.515625 13.8125 5.515625 26.8125 
Q 5.515625 40.234375 12.765625 48.109375 
Q 20.015625 56 32.328125 56 
Q 43.359375 56 49.78125 48.890625 
Q 56.203125 41.796875 56.203125 29.59375 
M 47.21875 32.234375 
Q 47.125 39.59375 43.09375 43.984375 
Q 39.0625 48.390625 32.421875 48.390625 
Q 24.90625 48.390625 20.390625 44.140625 
Q 15.875 39.890625 15.1875 32.171875 
z
" id="BitstreamVeraSans-Roman-65"/>
      <path d="M 18.3125 70.21875 
L 18.3125 54.6875 
L 36.8125 54.6875 
L 36.8125 47.703125 
L 18.3125 47.703125 
L 18.3125 18.015625 
Q 18.3125 11.328125 20.140625 9.421875 
Q 21.96875 7.515625 27.59375 7.515625 
L 36.8125 7.515625 
L 36.8125 0 
L 27.59375 0 
Q 17.1875 0 13.234375 3.875 
Q 9.28125 7.765625 9.28125 18.015625 
L 9.28125 47.703125 
L 2.6875 47.703125 
L 2.6875 54.6875 
L 9.28125 54.6875 
L 9.28125 70.21875 
z
" id="BitstreamVeraSans-Roman-74"/>
      <path d="M 41.109375 46.296875 
Q 39.59375 47.171875 37.8125 47.578125 
Q 36.03125 48 33.890625 48 
Q 26.265625 48 22.1875 43.046875 
Q 18.109375 38.09375 18.109375 28.8125 
L 18.109375 0 
L 9.078125 0 
L 9.078125 54.6875 
L 18.109375 54.6875 
L 18.109375 46.1875 
Q 20.953125 51.171875 25.484375 53.578125 
Q 30.03125 56 36.53125 56 
Q 37.453125 56 38.578125 55.875 
Q 39.703125 55.765625 41.0625 55.515625 
z
" id="BitstreamVeraSans-Roman-72"/>
      <path d="M 44.28125 53.078125 
L 44.28125 44.578125 
Q 40.484375 46.53125 36.375 47.5 
Q 32.28125 48.484375 27.875 48.484375 
Q 21.1875 48.484375 17.84375 46.4375 
Q 14.5 44.390625 14.5 40.28125 
Q 14.5 37.15625 16.890625 35.375 
Q 19.28125 33.59375 26.515625 31.984375 
L 29.59375 31.296875 
Q 39.15625 29.25 43.1875 25.515625 
Q 47.21875 21.78125 47.21875 15.09375 
Q 47.21875 7.46875 41.1875 3.015625 
Q 35.15625 -1.421875 24.609375 -1.421875 
Q 20.21875 -1.421875 15.453125 -0.5625 
Q 10.6875 0.296875 5.421875 2 
L 5.421875 11.28125 
Q 10.40625 8.6875 15.234375 7.390625 
Q 20.0625 6.109375 24.8125 6.109375 
Q 31.15625 6.109375 34.5625 8.28125 
Q 37.984375 10.453125 37.984375 14.40625 
Q 37.984375 18.0625 35.515625 20.015625 
Q 33.0625 21.96875 24.703125 23.78125 
L 21.578125 24.515625 
Q 13.234375 26.265625 9.515625 29.90625 
Q 5.8125 33.546875 5.8125 39.890625 
Q 5.8125 47.609375 11.28125 51.796875 
Q 16.75 56 26.8125 56 
Q 31.78125 56 36.171875 55.265625 
Q 40.578125 54.546875 44.28125 53.078125 
" id="BitstreamVeraSans-Roman-73"/>
     </defs>
     <g transform="translate(687.96796875 807.8296875)scale(0.3 -0.3)">
      <use xlink:href="#BitstreamVeraSans-Roman-69"/>
      <use x="27.783203125" xlink:href="#BitstreamVeraSans-Roman-74"/>
      <use x="66.9921875" xlink:href="#BitstreamVeraSans-Roman-65"/>
      <use x="128.515625" xlink:href="#BitstreamVeraSans-Roman-72"/>
      <use x="169.62890625" xlink:href="#BitstreamVeraSans-Roman-61"/>
      <use x="230.908203125" xlink:href="#BitstreamVeraSans-Roman-74"/>
      <use x="270.1171875" xlink:href="#BitstreamVeraSans-Roman-69"/>
      <use x="297.900390625" xlink:href="#BitstreamVeraSans-Roman-6f"/>
      <use x="359.08203125" xlink:href="#BitstreamVeraSans-Roman-6e"/>
      <use x="422.4609375" xlink:href="#BitstreamVeraSans-Roman-73"/>
     </g>
    </g>
   </g>
   <g id="matplotlib.axis_2">
    <g id="ytick_1">
     <g id="line2d_15">
      <defs>
       <path d="M 0 0 
L 4 0 
" id="mfb45a5d121" style="stroke:#000000;stroke-width:0.5;"/>
      </defs>
      <g>
       <use style="stroke:#000000;stroke-width:0.5;" x="158.4" xlink:href="#mfb45a5d121" y="747.0"/>
      </g>
     </g>
     <g id="line2d_16">
      <defs>
       <path d="M 0 0 
L -4 0 
" id="m6ed88f926f" style="stroke:#000000;stroke-width:0.5;"/>
      </defs>
      <g>
       <use style="stroke:#000000;stroke-width:0.5;" x="1359.9" xlink:href="#m6ed88f926f" y="747.0"/>
      </g>
     </g>
     <g id="text_8">
      <!-- 60 -->
      <defs>
       <path d="M 10.59375 35.5 
L 73.1875 35.5 
L 73.1875 27.203125 
L 10.59375 27.203125 
z
" id="BitstreamVeraSans-Roman-2212"/>
      </defs>
      <g transform="translate(91.0859375 755.278125)scale(0.3 -0.3)">
       <use xlink:href="#BitstreamVeraSans-Roman-2212"/>
       <use x="83.7890625" xlink:href="#BitstreamVeraSans-Roman-36"/>
       <use x="147.412109375" xlink:href="#BitstreamVeraSans-Roman-30"/>
      </g>
     </g>
    </g>
    <g id="ytick_2">
     <g id="line2d_17">
      <g>
       <use style="stroke:#000000;stroke-width:0.5;" x="158.4" xlink:href="#mfb45a5d121" y="660.0375"/>
      </g>
     </g>
     <g id="line2d_18">
      <g>
       <use style="stroke:#000000;stroke-width:0.5;" x="1359.9" xlink:href="#m6ed88f926f" y="660.0375"/>
      </g>
     </g>
     <g id="text_9">
      <!-- 50 -->
      <defs>
       <path d="M 10.796875 72.90625 
L 49.515625 72.90625 
L 49.515625 64.59375 
L 19.828125 64.59375 
L 19.828125 46.734375 
Q 21.96875 47.46875 24.109375 47.828125 
Q 26.265625 48.1875 28.421875 48.1875 
Q 40.625 48.1875 47.75 41.5 
Q 54.890625 34.8125 54.890625 23.390625 
Q 54.890625 11.625 47.5625 5.09375 
Q 40.234375 -1.421875 26.90625 -1.421875 
Q 22.3125 -1.421875 17.546875 -0.640625 
Q 12.796875 0.140625 7.71875 1.703125 
L 7.71875 11.625 
Q 12.109375 9.234375 16.796875 8.0625 
Q 21.484375 6.890625 26.703125 6.890625 
Q 35.15625 6.890625 40.078125 11.328125 
Q 45.015625 15.765625 45.015625 23.390625 
Q 45.015625 31 40.078125 35.4375 
Q 35.15625 39.890625 26.703125 39.890625 
Q 22.75 39.890625 18.8125 39.015625 
Q 14.890625 38.140625 10.796875 36.28125 
z
" id="BitstreamVeraSans-Roman-35"/>
      </defs>
      <g transform="translate(91.0859375 668.315625)scale(0.3 -0.3)">
       <use xlink:href="#BitstreamVeraSans-Roman-2212"/>
       <use x="83.7890625" xlink:href="#BitstreamVeraSans-Roman-35"/>
       <use x="147.412109375" xlink:href="#BitstreamVeraSans-Roman-30"/>
      </g>
     </g>
    </g>
    <g id="ytick_3">
     <g id="line2d_19">
      <g>
       <use style="stroke:#000000;stroke-width:0.5;" x="158.4" xlink:href="#mfb45a5d121" y="573.075"/>
      </g>
     </g>
     <g id="line2d_20">
      <g>
       <use style="stroke:#000000;stroke-width:0.5;" x="1359.9" xlink:href="#m6ed88f926f" y="573.075"/>
      </g>
     </g>
     <g id="text_10">
      <!-- 40 -->
      <g transform="translate(91.0859375 581.353125)scale(0.3 -0.3)">
       <use xlink:href="#BitstreamVeraSans-Roman-2212"/>
       <use x="83.7890625" xlink:href="#BitstreamVeraSans-Roman-34"/>
       <use x="147.412109375" xlink:href="#BitstreamVeraSans-Roman-30"/>
      </g>
     </g>
    </g>
    <g id="ytick_4">
     <g id="line2d_21">
      <g>
       <use style="stroke:#000000;stroke-width:0.5;" x="158.4" xlink:href="#mfb45a5d121" y="486.1125"/>
      </g>
     </g>
     <g id="line2d_22">
      <g>
       <use style="stroke:#000000;stroke-width:0.5;" x="1359.9" xlink:href="#m6ed88f926f" y="486.1125"/>
      </g>
     </g>
     <g id="text_11">
      <!-- 30 -->
      <defs>
       <path d="M 40.578125 39.3125 
Q 47.65625 37.796875 51.625 33 
Q 55.609375 28.21875 55.609375 21.1875 
Q 55.609375 10.40625 48.1875 4.484375 
Q 40.765625 -1.421875 27.09375 -1.421875 
Q 22.515625 -1.421875 17.65625 -0.515625 
Q 12.796875 0.390625 7.625 2.203125 
L 7.625 11.71875 
Q 11.71875 9.328125 16.59375 8.109375 
Q 21.484375 6.890625 26.8125 6.890625 
Q 36.078125 6.890625 40.9375 10.546875 
Q 45.796875 14.203125 45.796875 21.1875 
Q 45.796875 27.640625 41.28125 31.265625 
Q 36.765625 34.90625 28.71875 34.90625 
L 20.21875 34.90625 
L 20.21875 43.015625 
L 29.109375 43.015625 
Q 36.375 43.015625 40.234375 45.921875 
Q 44.09375 48.828125 44.09375 54.296875 
Q 44.09375 59.90625 40.109375 62.90625 
Q 36.140625 65.921875 28.71875 65.921875 
Q 24.65625 65.921875 20.015625 65.03125 
Q 15.375 64.15625 9.8125 62.3125 
L 9.8125 71.09375 
Q 15.4375 72.65625 20.34375 73.4375 
Q 25.25 74.21875 29.59375 74.21875 
Q 40.828125 74.21875 47.359375 69.109375 
Q 53.90625 64.015625 53.90625 55.328125 
Q 53.90625 49.265625 50.4375 45.09375 
Q 46.96875 40.921875 40.578125 39.3125 
" id="BitstreamVeraSans-Roman-33"/>
      </defs>
      <g transform="translate(91.0859375 494.390625)scale(0.3 -0.3)">
       <use xlink:href="#BitstreamVeraSans-Roman-2212"/>
       <use x="83.7890625" xlink:href="#BitstreamVeraSans-Roman-33"/>
       <use x="147.412109375" xlink:href="#BitstreamVeraSans-Roman-30"/>
      </g>
     </g>
    </g>
    <g id="ytick_5">
     <g id="line2d_23">
      <g>
       <use style="stroke:#000000;stroke-width:0.5;" x="158.4" xlink:href="#mfb45a5d121" y="399.15"/>
      </g>
     </g>
     <g id="line2d_24">
      <g>
       <use style="stroke:#000000;stroke-width:0.5;" x="1359.9" xlink:href="#m6ed88f926f" y="399.15"/>
      </g>
     </g>
     <g id="text_12">
      <!-- 20 -->
      <g transform="translate(91.0859375 407.428125)scale(0.3 -0.3)">
       <use xlink:href="#BitstreamVeraSans-Roman-2212"/>
       <use x="83.7890625" xlink:href="#BitstreamVeraSans-Roman-32"/>
       <use x="147.412109375" xlink:href="#BitstreamVeraSans-Roman-30"/>
      </g>
     </g>
    </g>
    <g id="ytick_6">
     <g id="line2d_25">
      <g>
       <use style="stroke:#000000;stroke-width:0.5;" x="158.4" xlink:href="#mfb45a5d121" y="312.1875"/>
      </g>
     </g>
     <g id="line2d_26">
      <g>
       <use style="stroke:#000000;stroke-width:0.5;" x="1359.9" xlink:href="#m6ed88f926f" y="312.1875"/>
      </g>
     </g>
     <g id="text_13">
      <!-- 10 -->
      <g transform="translate(91.0859375 320.465625)scale(0.3 -0.3)">
       <use xlink:href="#BitstreamVeraSans-Roman-2212"/>
       <use x="83.7890625" xlink:href="#BitstreamVeraSans-Roman-31"/>
       <use x="147.412109375" xlink:href="#BitstreamVeraSans-Roman-30"/>
      </g>
     </g>
    </g>
    <g id="ytick_7">
     <g id="line2d_27">
      <g>
       <use style="stroke:#000000;stroke-width:0.5;" x="158.4" xlink:href="#mfb45a5d121" y="225.225"/>
      </g>
     </g>
     <g id="line2d_28">
      <g>
       <use style="stroke:#000000;stroke-width:0.5;" x="1359.9" xlink:href="#m6ed88f926f" y="225.225"/>
      </g>
     </g>
     <g id="text_14">
      <!-- 0 -->
      <g transform="translate(135.3125 233.503125)scale(0.3 -0.3)">
       <use xlink:href="#BitstreamVeraSans-Roman-30"/>
      </g>
     </g>
    </g>
    <g id="ytick_8">
     <g id="line2d_29">
      <g>
       <use style="stroke:#000000;stroke-width:0.5;" x="158.4" xlink:href="#mfb45a5d121" y="138.2625"/>
      </g>
     </g>
     <g id="line2d_30">
      <g>
       <use style="stroke:#000000;stroke-width:0.5;" x="1359.9" xlink:href="#m6ed88f926f" y="138.2625"/>
      </g>
     </g>
     <g id="text_15">
      <!-- 10 -->
      <g transform="translate(116.225 146.540625)scale(0.3 -0.3)">
       <use xlink:href="#BitstreamVeraSans-Roman-31"/>
       <use x="63.623046875" xlink:href="#BitstreamVeraSans-Roman-30"/>
      </g>
     </g>
    </g>
    <g id="ytick_9">
     <g id="line2d_31">
      <g>
       <use style="stroke:#000000;stroke-width:0.5;" x="158.4" xlink:href="#mfb45a5d121" y="51.3"/>
      </g>
     </g>
     <g id="line2d_32">
      <g>
       <use style="stroke:#000000;stroke-width:0.5;" x="1359.9" xlink:href="#m6ed88f926f" y="51.3"/>
      </g>
     </g>
     <g id="text_16">
      <!-- 20 -->
      <g transform="translate(116.225 59.578125)scale(0.3 -0.3)">
       <use xlink:href="#BitstreamVeraSans-Roman-32"/>
       <use x="63.623046875" xlink:href="#BitstreamVeraSans-Roman-30"/>
      </g>
     </g>
    </g>
    <g id="text_17">
     <!-- log(loss) -->
     <defs>
      <path d="M 8.015625 75.875 
L 15.828125 75.875 
Q 23.140625 64.359375 26.78125 53.3125 
Q 30.421875 42.28125 30.421875 31.390625 
Q 30.421875 20.453125 26.78125 9.375 
Q 23.140625 -1.703125 15.828125 -13.1875 
L 8.015625 -13.1875 
Q 14.5 -2 17.703125 9.0625 
Q 20.90625 20.125 20.90625 31.390625 
Q 20.90625 42.671875 17.703125 53.65625 
Q 14.5 64.65625 8.015625 75.875 
" id="BitstreamVeraSans-Roman-29"/>
      <path d="M 31 75.875 
Q 24.46875 64.65625 21.28125 53.65625 
Q 18.109375 42.671875 18.109375 31.390625 
Q 18.109375 20.125 21.3125 9.0625 
Q 24.515625 -2 31 -13.1875 
L 23.1875 -13.1875 
Q 15.875 -1.703125 12.234375 9.375 
Q 8.59375 20.453125 8.59375 31.390625 
Q 8.59375 42.28125 12.203125 53.3125 
Q 15.828125 64.359375 23.1875 75.875 
z
" id="BitstreamVeraSans-Roman-28"/>
      <path d="M 45.40625 27.984375 
Q 45.40625 37.75 41.375 43.109375 
Q 37.359375 48.484375 30.078125 48.484375 
Q 22.859375 48.484375 18.828125 43.109375 
Q 14.796875 37.75 14.796875 27.984375 
Q 14.796875 18.265625 18.828125 12.890625 
Q 22.859375 7.515625 30.078125 7.515625 
Q 37.359375 7.515625 41.375 12.890625 
Q 45.40625 18.265625 45.40625 27.984375 
M 54.390625 6.78125 
Q 54.390625 -7.171875 48.1875 -13.984375 
Q 42 -20.796875 29.203125 -20.796875 
Q 24.46875 -20.796875 20.265625 -20.09375 
Q 16.0625 -19.390625 12.109375 -17.921875 
L 12.109375 -9.1875 
Q 16.0625 -11.328125 19.921875 -12.34375 
Q 23.78125 -13.375 27.78125 -13.375 
Q 36.625 -13.375 41.015625 -8.765625 
Q 45.40625 -4.15625 45.40625 5.171875 
L 45.40625 9.625 
Q 42.625 4.78125 38.28125 2.390625 
Q 33.9375 0 27.875 0 
Q 17.828125 0 11.671875 7.65625 
Q 5.515625 15.328125 5.515625 27.984375 
Q 5.515625 40.671875 11.671875 48.328125 
Q 17.828125 56 27.875 56 
Q 33.9375 56 38.28125 53.609375 
Q 42.625 51.21875 45.40625 46.390625 
L 45.40625 54.6875 
L 54.390625 54.6875 
z
" id="BitstreamVeraSans-Roman-67"/>
      <path d="M 9.421875 75.984375 
L 18.40625 75.984375 
L 18.40625 0 
L 9.421875 0 
z
" id="BitstreamVeraSans-Roman-6c"/>
     </defs>
     <g transform="translate(79.846875 462.69609375)rotate(-90.0)scale(0.3 -0.3)">
      <use xlink:href="#BitstreamVeraSans-Roman-6c"/>
      <use x="27.783203125" xlink:href="#BitstreamVeraSans-Roman-6f"/>
      <use x="88.96484375" xlink:href="#BitstreamVeraSans-Roman-67"/>
      <use x="152.44140625" xlink:href="#BitstreamVeraSans-Roman-28"/>
      <use x="191.455078125" xlink:href="#BitstreamVeraSans-Roman-6c"/>
      <use x="219.23828125" xlink:href="#BitstreamVeraSans-Roman-6f"/>
      <use x="280.419921875" xlink:href="#BitstreamVeraSans-Roman-73"/>
      <use x="332.51953125" xlink:href="#BitstreamVeraSans-Roman-73"/>
      <use x="384.619140625" xlink:href="#BitstreamVeraSans-Roman-29"/>
     </g>
    </g>
   </g>
   <g id="legend_1">
    <g id="patch_7">
     <path d="M 867.726562 163.36875 
L 1344.9 163.36875 
L 1344.9 66.3 
L 867.726562 66.3 
z
" style="fill:#ffffff;stroke:#000000;stroke-linejoin:miter;"/>
    </g>
    <g id="line2d_33">
     <path d="M 888.726562 90.595312 
L 930.726562 90.595312 
" style="fill:none;stroke:#0000ff;stroke-linecap:square;stroke-width:2.0;"/>
    </g>
    <g id="line2d_34"/>
    <g id="text_18">
     <!-- random: step=0.009776 -->
     <defs>
      <path id="BitstreamVeraSans-Roman-20"/>
      <path d="M 8.203125 72.90625 
L 55.078125 72.90625 
L 55.078125 68.703125 
L 28.609375 0 
L 18.3125 0 
L 43.21875 64.59375 
L 8.203125 64.59375 
z
" id="BitstreamVeraSans-Roman-37"/>
      <path d="M 52 44.1875 
Q 55.375 50.25 60.0625 53.125 
Q 64.75 56 71.09375 56 
Q 79.640625 56 84.28125 50.015625 
Q 88.921875 44.046875 88.921875 33.015625 
L 88.921875 0 
L 79.890625 0 
L 79.890625 32.71875 
Q 79.890625 40.578125 77.09375 44.375 
Q 74.3125 48.1875 68.609375 48.1875 
Q 61.625 48.1875 57.5625 43.546875 
Q 53.515625 38.921875 53.515625 30.90625 
L 53.515625 0 
L 44.484375 0 
L 44.484375 32.71875 
Q 44.484375 40.625 41.703125 44.40625 
Q 38.921875 48.1875 33.109375 48.1875 
Q 26.21875 48.1875 22.15625 43.53125 
Q 18.109375 38.875 18.109375 30.90625 
L 18.109375 0 
L 9.078125 0 
L 9.078125 54.6875 
L 18.109375 54.6875 
L 18.109375 46.1875 
Q 21.1875 51.21875 25.484375 53.609375 
Q 29.78125 56 35.6875 56 
Q 41.65625 56 45.828125 52.96875 
Q 50 49.953125 52 44.1875 
" id="BitstreamVeraSans-Roman-6d"/>
      <path d="M 10.984375 1.515625 
L 10.984375 10.5 
Q 14.703125 8.734375 18.5 7.8125 
Q 22.3125 6.890625 25.984375 6.890625 
Q 35.75 6.890625 40.890625 13.453125 
Q 46.046875 20.015625 46.78125 33.40625 
Q 43.953125 29.203125 39.59375 26.953125 
Q 35.25 24.703125 29.984375 24.703125 
Q 19.046875 24.703125 12.671875 31.3125 
Q 6.296875 37.9375 6.296875 49.421875 
Q 6.296875 60.640625 12.9375 67.421875 
Q 19.578125 74.21875 30.609375 74.21875 
Q 43.265625 74.21875 49.921875 64.515625 
Q 56.59375 54.828125 56.59375 36.375 
Q 56.59375 19.140625 48.40625 8.859375 
Q 40.234375 -1.421875 26.421875 -1.421875 
Q 22.703125 -1.421875 18.890625 -0.6875 
Q 15.09375 0.046875 10.984375 1.515625 
M 30.609375 32.421875 
Q 37.25 32.421875 41.125 36.953125 
Q 45.015625 41.5 45.015625 49.421875 
Q 45.015625 57.28125 41.125 61.84375 
Q 37.25 66.40625 30.609375 66.40625 
Q 23.96875 66.40625 20.09375 61.84375 
Q 16.21875 57.28125 16.21875 49.421875 
Q 16.21875 41.5 20.09375 36.953125 
Q 23.96875 32.421875 30.609375 32.421875 
" id="BitstreamVeraSans-Roman-39"/>
      <path d="M 11.71875 12.40625 
L 22.015625 12.40625 
L 22.015625 0 
L 11.71875 0 
z
M 11.71875 51.703125 
L 22.015625 51.703125 
L 22.015625 39.3125 
L 11.71875 39.3125 
z
" id="BitstreamVeraSans-Roman-3a"/>
      <path d="M 10.6875 12.40625 
L 21 12.40625 
L 21 0 
L 10.6875 0 
z
" id="BitstreamVeraSans-Roman-2e"/>
      <path d="M 10.59375 45.40625 
L 73.1875 45.40625 
L 73.1875 37.203125 
L 10.59375 37.203125 
z
M 10.59375 25.484375 
L 73.1875 25.484375 
L 73.1875 17.1875 
L 10.59375 17.1875 
z
" id="BitstreamVeraSans-Roman-3d"/>
      <path d="M 45.40625 46.390625 
L 45.40625 75.984375 
L 54.390625 75.984375 
L 54.390625 0 
L 45.40625 0 
L 45.40625 8.203125 
Q 42.578125 3.328125 38.25 0.953125 
Q 33.9375 -1.421875 27.875 -1.421875 
Q 17.96875 -1.421875 11.734375 6.484375 
Q 5.515625 14.40625 5.515625 27.296875 
Q 5.515625 40.1875 11.734375 48.09375 
Q 17.96875 56 27.875 56 
Q 33.9375 56 38.25 53.625 
Q 42.578125 51.265625 45.40625 46.390625 
M 14.796875 27.296875 
Q 14.796875 17.390625 18.875 11.75 
Q 22.953125 6.109375 30.078125 6.109375 
Q 37.203125 6.109375 41.296875 11.75 
Q 45.40625 17.390625 45.40625 27.296875 
Q 45.40625 37.203125 41.296875 42.84375 
Q 37.203125 48.484375 30.078125 48.484375 
Q 22.953125 48.484375 18.875 42.84375 
Q 14.796875 37.203125 14.796875 27.296875 
" id="BitstreamVeraSans-Roman-64"/>
      <path d="M 18.109375 8.203125 
L 18.109375 -20.796875 
L 9.078125 -20.796875 
L 9.078125 54.6875 
L 18.109375 54.6875 
L 18.109375 46.390625 
Q 20.953125 51.265625 25.265625 53.625 
Q 29.59375 56 35.59375 56 
Q 45.5625 56 51.78125 48.09375 
Q 58.015625 40.1875 58.015625 27.296875 
Q 58.015625 14.40625 51.78125 6.484375 
Q 45.5625 -1.421875 35.59375 -1.421875 
Q 29.59375 -1.421875 25.265625 0.953125 
Q 20.953125 3.328125 18.109375 8.203125 
M 48.6875 27.296875 
Q 48.6875 37.203125 44.609375 42.84375 
Q 40.53125 48.484375 33.40625 48.484375 
Q 26.265625 48.484375 22.1875 42.84375 
Q 18.109375 37.203125 18.109375 27.296875 
Q 18.109375 17.390625 22.1875 11.75 
Q 26.265625 6.109375 33.40625 6.109375 
Q 40.53125 6.109375 44.609375 11.75 
Q 48.6875 17.390625 48.6875 27.296875 
" id="BitstreamVeraSans-Roman-70"/>
     </defs>
     <g transform="translate(963.7265625 101.0953125)scale(0.3 -0.3)">
      <use xlink:href="#BitstreamVeraSans-Roman-72"/>
      <use x="41.11328125" xlink:href="#BitstreamVeraSans-Roman-61"/>
      <use x="102.392578125" xlink:href="#BitstreamVeraSans-Roman-6e"/>
      <use x="165.771484375" xlink:href="#BitstreamVeraSans-Roman-64"/>
      <use x="229.248046875" xlink:href="#BitstreamVeraSans-Roman-6f"/>
      <use x="290.4296875" xlink:href="#BitstreamVeraSans-Roman-6d"/>
      <use x="387.841796875" xlink:href="#BitstreamVeraSans-Roman-3a"/>
      <use x="421.533203125" xlink:href="#BitstreamVeraSans-Roman-20"/>
      <use x="453.3203125" xlink:href="#BitstreamVeraSans-Roman-73"/>
      <use x="505.419921875" xlink:href="#BitstreamVeraSans-Roman-74"/>
      <use x="544.62890625" xlink:href="#BitstreamVeraSans-Roman-65"/>
      <use x="606.15234375" xlink:href="#BitstreamVeraSans-Roman-70"/>
      <use x="669.62890625" xlink:href="#BitstreamVeraSans-Roman-3d"/>
      <use x="753.41796875" xlink:href="#BitstreamVeraSans-Roman-30"/>
      <use x="817.041015625" xlink:href="#BitstreamVeraSans-Roman-2e"/>
      <use x="848.828125" xlink:href="#BitstreamVeraSans-Roman-30"/>
      <use x="912.451171875" xlink:href="#BitstreamVeraSans-Roman-30"/>
      <use x="976.07421875" xlink:href="#BitstreamVeraSans-Roman-39"/>
      <use x="1039.69726562" xlink:href="#BitstreamVeraSans-Roman-37"/>
      <use x="1103.3203125" xlink:href="#BitstreamVeraSans-Roman-37"/>
      <use x="1166.94335938" xlink:href="#BitstreamVeraSans-Roman-36"/>
     </g>
    </g>
    <g id="line2d_35">
     <path d="M 888.726562 134.629687 
L 930.726562 134.629687 
" style="fill:none;stroke:#008000;stroke-linecap:square;stroke-width:2.0;"/>
    </g>
    <g id="line2d_36"/>
    <g id="text_19">
     <!-- corr: step=0.009776 -->
     <defs>
      <path d="M 48.78125 52.59375 
L 48.78125 44.1875 
Q 44.96875 46.296875 41.140625 47.34375 
Q 37.3125 48.390625 33.40625 48.390625 
Q 24.65625 48.390625 19.8125 42.84375 
Q 14.984375 37.3125 14.984375 27.296875 
Q 14.984375 17.28125 19.8125 11.734375 
Q 24.65625 6.203125 33.40625 6.203125 
Q 37.3125 6.203125 41.140625 7.25 
Q 44.96875 8.296875 48.78125 10.40625 
L 48.78125 2.09375 
Q 45.015625 0.34375 40.984375 -0.53125 
Q 36.96875 -1.421875 32.421875 -1.421875 
Q 20.0625 -1.421875 12.78125 6.34375 
Q 5.515625 14.109375 5.515625 27.296875 
Q 5.515625 40.671875 12.859375 48.328125 
Q 20.21875 56 33.015625 56 
Q 37.15625 56 41.109375 55.140625 
Q 45.0625 54.296875 48.78125 52.59375 
" id="BitstreamVeraSans-Roman-63"/>
     </defs>
     <g transform="translate(963.7265625 145.1296875)scale(0.3 -0.3)">
      <use xlink:href="#BitstreamVeraSans-Roman-63"/>
      <use x="54.98046875" xlink:href="#BitstreamVeraSans-Roman-6f"/>
      <use x="116.162109375" xlink:href="#BitstreamVeraSans-Roman-72"/>
      <use x="157.259765625" xlink:href="#BitstreamVeraSans-Roman-72"/>
      <use x="198.357421875" xlink:href="#BitstreamVeraSans-Roman-3a"/>
      <use x="232.048828125" xlink:href="#BitstreamVeraSans-Roman-20"/>
      <use x="263.8359375" xlink:href="#BitstreamVeraSans-Roman-73"/>
      <use x="315.935546875" xlink:href="#BitstreamVeraSans-Roman-74"/>
      <use x="355.14453125" xlink:href="#BitstreamVeraSans-Roman-65"/>
      <use x="416.66796875" xlink:href="#BitstreamVeraSans-Roman-70"/>
      <use x="480.14453125" xlink:href="#BitstreamVeraSans-Roman-3d"/>
      <use x="563.93359375" xlink:href="#BitstreamVeraSans-Roman-30"/>
      <use x="627.556640625" xlink:href="#BitstreamVeraSans-Roman-2e"/>
      <use x="659.34375" xlink:href="#BitstreamVeraSans-Roman-30"/>
      <use x="722.966796875" xlink:href="#BitstreamVeraSans-Roman-30"/>
      <use x="786.58984375" xlink:href="#BitstreamVeraSans-Roman-39"/>
      <use x="850.212890625" xlink:href="#BitstreamVeraSans-Roman-37"/>
      <use x="913.8359375" xlink:href="#BitstreamVeraSans-Roman-37"/>
      <use x="977.458984375" xlink:href="#BitstreamVeraSans-Roman-36"/>
     </g>
    </g>
   </g>
  </g>
 </g>
 <defs>
  <clipPath id="p448bcef82d">
   <rect height="695.7" width="1201.5" x="158.4" y="51.3"/>
  </clipPath>
 </defs>
</svg>
