<?xml version="1.0" encoding="utf-8" standalone="no"?>
<!DOCTYPE svg PUBLIC "-//W3C//DTD SVG 1.1//EN"
  "http://www.w3.org/Graphics/SVG/1.1/DTD/svg11.dtd">
<!-- Created with matplotlib (http://matplotlib.org/) -->
<svg height="864pt" version="1.1" viewBox="0 0 1440 864" width="1440pt" xmlns="http://www.w3.org/2000/svg" xmlns:xlink="http://www.w3.org/1999/xlink">
 <defs>
  <style type="text/css">
*{stroke-linecap:butt;stroke-linejoin:round;stroke-miterlimit:100000;}
  </style>
 </defs>
 <g id="figure_1">
  <g id="patch_1">
   <path d="M 0 864 
L 1440 864 
L 1440 0 
L 0 0 
z
" style="fill:#ffffff;"/>
  </g>
  <g id="axes_1">
   <g id="patch_2">
    <path d="M 93.382656 770.338125 
L 1373.2425 770.338125 
L 1373.2425 57.915781 
L 93.382656 57.915781 
z
" style="fill:#ffffff;"/>
   </g>
   <g id="line2d_1">
    <path clip-path="url(#pcb790f45e4)" d="M 93.382656 96.259827 
L 94.662516 97.120723 
L 95.942376 97.919333 
L 97.222236 98.594671 
L 99.781955 100.698341 
L 101.061815 101.308319 
L 102.341675 102.052934 
L 104.901395 103.858884 
L 106.181255 104.499247 
L 107.461115 105.287604 
L 108.740974 106.545982 
L 110.020834 107.280205 
L 111.300694 108.16979 
L 115.140274 110.227354 
L 116.420133 111.301092 
L 117.699993 111.648539 
L 118.979853 112.317418 
L 120.259713 113.319079 
L 121.539573 114.07063 
L 122.819433 115.135066 
L 125.379152 116.368763 
L 126.659012 117.342252 
L 127.938872 118.095109 
L 129.218732 118.395105 
L 130.498592 119.651765 
L 134.338171 122.7476 
L 136.897891 124.413359 
L 142.01733 127.980191 
L 143.29719 128.645504 
L 145.85691 130.581115 
L 147.13677 131.804174 
L 149.696489 133.786202 
L 152.256209 135.155309 
L 154.815929 137.096373 
L 157.375648 138.539978 
L 158.655508 139.043462 
L 159.935368 139.683205 
L 161.215228 140.480385 
L 162.495088 141.499638 
L 163.774948 142.676125 
L 165.054808 143.451326 
L 168.894387 145.341277 
L 170.174247 146.265811 
L 171.454107 146.929423 
L 174.013826 148.900313 
L 175.293686 150.360945 
L 176.573546 151.485153 
L 177.853406 152.060451 
L 179.133266 153.160296 
L 182.972845 155.460342 
L 185.532565 157.002092 
L 186.812425 157.640135 
L 189.372145 158.650012 
L 191.931864 160.253605 
L 195.771444 162.798898 
L 198.331163 163.871783 
L 199.611023 164.823492 
L 204.730463 167.199125 
L 206.010323 168.121988 
L 209.849902 170.213609 
L 213.689482 172.91543 
L 216.249201 174.6921 
L 217.529061 174.996504 
L 221.368641 177.506141 
L 222.6485 178.587854 
L 223.92836 179.008613 
L 226.48808 180.498101 
L 229.0478 182.47986 
L 230.32766 182.924298 
L 232.887379 184.14987 
L 234.167239 185.15879 
L 235.447099 185.876496 
L 236.726959 186.250406 
L 238.006819 187.13621 
L 239.286678 187.856006 
L 240.566538 188.389555 
L 241.846398 189.31146 
L 248.245697 192.984707 
L 249.525557 193.502937 
L 250.805417 194.247812 
L 252.085277 194.707029 
L 258.484576 197.855242 
L 259.764436 198.664347 
L 261.044296 199.212377 
L 262.324156 199.893539 
L 264.883875 201.577503 
L 270.003315 203.695008 
L 272.563034 205.185237 
L 273.842894 205.666665 
L 276.402614 207.018302 
L 278.962334 208.717336 
L 280.242193 209.141036 
L 282.801913 210.597087 
L 285.361633 211.795402 
L 287.921353 213.424531 
L 289.201212 213.918013 
L 296.880371 217.621914 
L 298.160231 218.103035 
L 299.440091 218.859339 
L 300.719951 219.448933 
L 301.999811 220.461817 
L 308.39911 223.176296 
L 309.67897 224.033626 
L 310.95883 225.046607 
L 312.23869 225.656388 
L 314.798409 227.161782 
L 317.358129 228.364926 
L 318.637989 228.875638 
L 319.917849 229.557949 
L 321.197708 229.831762 
L 330.156727 234.60648 
L 333.996307 236.079613 
L 335.276167 236.850938 
L 336.556027 237.342223 
L 337.835886 238.133425 
L 340.395606 239.459538 
L 341.675466 240.35352 
L 345.515045 241.813642 
L 346.794905 242.708474 
L 348.074765 243.425446 
L 350.634485 244.502535 
L 351.914345 245.363316 
L 353.194205 245.941563 
L 354.474064 246.700298 
L 355.753924 247.244335 
L 357.033784 248.334583 
L 359.593504 249.734525 
L 360.873364 250.252014 
L 363.433083 251.59865 
L 365.992803 253.498671 
L 369.832382 255.636255 
L 373.671962 257.195761 
L 376.231682 258.571349 
L 377.511542 258.958772 
L 378.791401 259.520546 
L 382.630981 261.838357 
L 386.47056 263.561778 
L 387.75042 264.527797 
L 389.03028 265.220227 
L 392.86986 266.603241 
L 394.14972 266.995914 
L 396.709439 268.688778 
L 399.269159 269.861744 
L 404.388598 273.015279 
L 406.948318 274.250942 
L 409.508038 275.416689 
L 410.787897 276.346555 
L 414.627477 277.965302 
L 415.907337 278.772743 
L 417.187197 279.290048 
L 418.467057 280.048202 
L 423.586496 282.213872 
L 424.866356 283.092178 
L 426.146216 283.740104 
L 427.426075 284.237507 
L 428.705935 285.220403 
L 429.985795 285.582307 
L 432.545515 286.821243 
L 433.825375 287.718927 
L 438.944814 290.521698 
L 440.224674 291.052731 
L 441.504534 291.963055 
L 442.784394 292.735883 
L 445.344113 293.778482 
L 447.903833 295.209122 
L 449.183693 295.985861 
L 456.862852 299.242868 
L 458.142712 300.00185 
L 459.422572 300.337523 
L 460.702431 301.406791 
L 461.982291 301.879377 
L 465.821871 304.061958 
L 468.38159 305.383776 
L 470.94131 306.377097 
L 472.22117 306.99322 
L 473.50103 308.179014 
L 474.78089 308.646671 
L 476.06075 309.383201 
L 477.340609 309.797088 
L 478.620469 310.654612 
L 483.739909 313.346261 
L 485.019768 314.03752 
L 486.299628 315.045728 
L 487.579488 315.816517 
L 488.859348 316.77683 
L 490.139208 317.494275 
L 491.419068 317.899651 
L 492.698928 318.46581 
L 495.258647 319.77507 
L 496.538507 320.394093 
L 497.818367 321.219455 
L 500.378087 322.440741 
L 502.937806 323.315 
L 505.497526 324.708319 
L 508.057246 325.817644 
L 509.337105 326.837272 
L 510.616965 327.683662 
L 513.176685 328.579184 
L 518.296124 331.978397 
L 519.575984 332.431639 
L 525.975283 335.943843 
L 527.255143 336.412358 
L 528.535003 337.003101 
L 531.094723 338.413773 
L 536.214162 340.726756 
L 537.494022 341.632814 
L 540.053742 343.693673 
L 541.333602 344.441405 
L 542.613461 344.941929 
L 543.893321 345.878 
L 546.453041 347.026947 
L 547.732901 347.971451 
L 550.29262 349.438816 
L 551.57248 349.896955 
L 555.41206 351.781778 
L 556.69192 352.298146 
L 557.97178 353.040728 
L 563.091219 355.182187 
L 564.371079 356.127844 
L 565.650939 356.708048 
L 566.930798 357.415337 
L 568.210658 358.274801 
L 570.770378 359.435038 
L 572.050238 360.170578 
L 573.330098 361.173073 
L 574.609957 361.622731 
L 575.889817 362.349527 
L 577.169677 362.858116 
L 578.449537 363.500791 
L 581.009257 364.473343 
L 589.968276 369.600556 
L 591.248135 369.971365 
L 592.527995 370.216321 
L 593.807855 370.959218 
L 597.647435 372.798298 
L 598.927295 373.529771 
L 600.207154 374.501665 
L 602.766874 375.585009 
L 604.046734 376.109397 
L 607.886313 377.972743 
L 611.725893 379.605239 
L 613.005753 379.944223 
L 616.845332 381.730075 
L 618.125192 382.172285 
L 619.405052 382.860726 
L 627.084211 385.859973 
L 628.364071 386.706078 
L 629.643931 387.417353 
L 630.923791 388.327835 
L 633.48351 389.310986 
L 634.76337 390.129877 
L 636.04323 390.595268 
L 638.60295 391.900523 
L 639.88281 392.546429 
L 642.442529 393.493151 
L 645.002249 394.735505 
L 646.282109 395.723591 
L 647.561969 396.51398 
L 648.841828 397.165987 
L 661.640427 402.330854 
L 662.920287 403.203817 
L 664.200147 403.658182 
L 670.599446 406.973774 
L 675.718885 409.075003 
L 676.998745 409.913551 
L 678.278605 410.887783 
L 679.558465 411.460221 
L 680.838325 412.324407 
L 683.398044 413.382977 
L 684.677904 414.075099 
L 688.517484 415.820008 
L 691.077203 417.546726 
L 692.357063 418.056849 
L 693.636923 418.707316 
L 694.916783 419.185614 
L 697.476502 420.727312 
L 698.756362 421.321483 
L 700.036222 421.691239 
L 701.316082 422.216058 
L 702.595942 422.569504 
L 705.155662 424.184267 
L 706.435521 424.789349 
L 711.554961 428.053858 
L 714.11468 429.172778 
L 715.39454 429.645712 
L 716.6744 430.468407 
L 719.23412 431.722054 
L 721.79384 432.522841 
L 723.073699 433.256435 
L 724.353559 433.798494 
L 725.633419 434.805493 
L 728.193139 436.023625 
L 729.472999 436.752633 
L 730.752858 437.618325 
L 733.312578 438.533745 
L 734.592438 439.207643 
L 735.872298 439.698356 
L 737.152158 440.64921 
L 738.432017 441.093107 
L 740.991737 442.381548 
L 743.551457 443.834425 
L 744.831317 444.548629 
L 746.111177 445.10021 
L 747.391036 445.947628 
L 748.670896 446.659485 
L 749.950756 447.100485 
L 751.230616 447.862095 
L 755.070195 449.631756 
L 756.350055 450.470109 
L 757.629915 451.034763 
L 758.909775 451.82562 
L 760.189635 452.459552 
L 762.749355 453.441298 
L 765.309074 454.757287 
L 766.588934 455.167577 
L 767.868794 456.042939 
L 769.148654 456.618308 
L 771.708373 458.211362 
L 775.547953 460.074975 
L 778.107673 461.508911 
L 783.227112 463.663512 
L 784.506972 464.347112 
L 785.786832 464.841217 
L 789.626411 467.224539 
L 792.186131 468.175339 
L 794.745851 469.937292 
L 801.14515 472.694186 
L 802.42501 473.351709 
L 803.70487 474.158156 
L 806.264589 475.188883 
L 807.544449 475.806793 
L 808.824309 476.617986 
L 810.104169 477.110586 
L 811.384029 477.971715 
L 813.943748 478.97778 
L 815.223608 479.862273 
L 816.503468 480.336858 
L 817.783328 481.132431 
L 820.343047 482.004653 
L 822.902767 483.050068 
L 824.182627 483.789685 
L 826.742347 484.709146 
L 828.022207 485.303322 
L 829.302066 486.084784 
L 831.861786 487.254715 
L 833.141646 488.127906 
L 834.421506 488.747634 
L 835.701366 489.620222 
L 836.981225 489.986033 
L 839.540945 491.420707 
L 840.820805 492.038692 
L 842.100665 492.842537 
L 844.660385 493.783587 
L 845.940244 494.426209 
L 847.220104 495.337567 
L 853.619403 498.345301 
L 854.899263 499.16139 
L 863.858282 502.69239 
L 865.138142 503.489492 
L 866.418002 504.126925 
L 868.977722 505.11803 
L 871.537441 506.730235 
L 872.817301 507.687155 
L 875.377021 508.909328 
L 876.656881 510.033822 
L 879.2166 511.295047 
L 881.77632 511.959008 
L 889.455479 515.516467 
L 890.735339 515.915002 
L 893.295059 517.080984 
L 894.574918 517.769391 
L 895.854778 518.318524 
L 897.134638 518.689434 
L 899.694358 519.954136 
L 904.813797 522.32063 
L 906.093657 522.769404 
L 907.373517 523.631723 
L 908.653377 524.092175 
L 909.933237 524.728526 
L 911.213096 525.231652 
L 912.492956 526.00473 
L 913.772816 526.634872 
L 915.052676 527.07029 
L 917.612396 528.206838 
L 918.892255 528.581761 
L 920.172115 529.218151 
L 921.451975 530.117944 
L 922.731835 530.858201 
L 925.291555 531.945463 
L 926.571415 532.681824 
L 927.851274 533.162076 
L 931.690854 535.243843 
L 932.970714 535.641272 
L 936.810293 537.856266 
L 939.370013 538.9044 
L 940.649873 539.561426 
L 944.489452 541.09643 
L 949.608892 543.992079 
L 952.168611 544.858456 
L 953.448471 545.795582 
L 954.728331 546.103361 
L 956.008191 546.565721 
L 958.567911 547.902563 
L 961.12763 548.842092 
L 962.40749 549.722654 
L 963.68735 550.271121 
L 964.96721 551.080611 
L 967.52693 552.140328 
L 968.806789 553.006377 
L 971.366509 554.12137 
L 972.646369 554.615047 
L 973.926229 555.339642 
L 979.045668 557.59946 
L 982.885248 559.362328 
L 986.724827 561.020438 
L 988.004687 561.975771 
L 989.284547 562.546567 
L 991.844267 564.008801 
L 998.243566 567.485926 
L 1000.803285 568.473675 
L 1002.083145 568.82551 
L 1004.642865 569.993619 
L 1005.922725 570.91246 
L 1007.202585 571.484079 
L 1008.482445 571.894575 
L 1016.161604 575.516691 
L 1017.441463 575.907273 
L 1020.001183 577.309051 
L 1025.120623 579.692014 
L 1026.400482 580.600998 
L 1027.680342 581.208126 
L 1028.960202 582.02051 
L 1030.240062 582.684442 
L 1031.519922 583.155816 
L 1035.359501 585.084853 
L 1036.639361 585.804823 
L 1037.919221 586.242313 
L 1040.478941 587.492283 
L 1041.7588 587.847024 
L 1043.03866 588.528021 
L 1045.59838 589.423895 
L 1046.87824 589.766942 
L 1051.997679 592.568252 
L 1053.277539 593.078705 
L 1055.837259 594.487362 
L 1059.676838 596.49904 
L 1062.236558 597.577902 
L 1063.516418 597.862492 
L 1064.796278 598.552956 
L 1067.355997 600.355056 
L 1068.635857 600.874806 
L 1071.195577 602.169643 
L 1072.475437 603.105055 
L 1073.755297 603.581086 
L 1077.594876 605.845706 
L 1078.874736 606.264335 
L 1082.714315 608.088072 
L 1083.994175 608.848464 
L 1085.274035 609.358599 
L 1086.553895 610.117837 
L 1087.833755 610.733527 
L 1089.113615 610.97933 
L 1095.512914 613.985225 
L 1098.072634 614.733635 
L 1099.352493 615.398325 
L 1100.632353 616.445921 
L 1101.912213 617.183242 
L 1104.471933 618.18497 
L 1105.751793 618.51522 
L 1107.031653 619.061473 
L 1114.710812 623.118218 
L 1119.830251 625.323213 
L 1122.389971 626.843932 
L 1124.94969 627.87348 
L 1126.22955 628.307824 
L 1128.78927 629.807572 
L 1132.628849 631.4127 
L 1140.308008 634.735273 
L 1142.867728 635.71144 
L 1144.147588 636.363923 
L 1147.987167 637.804685 
L 1150.546887 639.088598 
L 1151.826747 639.712305 
L 1153.106607 640.086184 
L 1155.666327 641.180545 
L 1156.946186 641.607061 
L 1158.226046 642.260109 
L 1159.505906 642.738677 
L 1160.785766 643.436782 
L 1164.625345 644.742894 
L 1165.905205 645.019559 
L 1169.744785 646.882507 
L 1174.864224 649.376948 
L 1176.144084 649.788128 
L 1178.703804 650.977224 
L 1179.983664 651.263853 
L 1182.543383 652.403011 
L 1183.823243 653.375334 
L 1185.103103 653.835062 
L 1186.382963 654.164531 
L 1190.222542 656.034363 
L 1194.062122 658.277955 
L 1195.341982 658.625751 
L 1197.901701 659.537774 
L 1199.181561 660.39817 
L 1200.461421 660.833999 
L 1201.741281 661.455271 
L 1205.58086 662.883093 
L 1208.14058 664.406043 
L 1213.26002 666.579913 
L 1214.539879 667.598887 
L 1215.819739 668.245026 
L 1218.379459 669.331023 
L 1219.659319 670.145562 
L 1222.219038 671.134396 
L 1223.498898 671.571086 
L 1224.778758 672.243043 
L 1228.618338 673.868013 
L 1229.898197 674.183494 
L 1233.737777 675.794964 
L 1236.297497 676.958224 
L 1237.577357 677.732989 
L 1238.857216 678.26051 
L 1240.137076 679.156485 
L 1243.976656 680.679414 
L 1245.256516 681.632407 
L 1250.375955 684.226401 
L 1251.655815 685.04602 
L 1252.935675 685.502529 
L 1255.495394 686.97863 
L 1256.775254 687.628463 
L 1258.055114 688.041484 
L 1263.174553 690.427465 
L 1265.734273 691.38152 
L 1267.014133 692.062937 
L 1268.293993 692.579712 
L 1269.573853 693.533789 
L 1274.693292 696.193193 
L 1277.253012 697.232362 
L 1278.532872 697.782958 
L 1279.812731 698.202464 
L 1282.372451 699.625219 
L 1283.652311 699.995666 
L 1284.932171 700.955071 
L 1286.212031 701.47611 
L 1288.77175 702.058219 
L 1290.05161 702.938967 
L 1291.33147 703.309944 
L 1293.89119 704.493607 
L 1295.17105 704.994653 
L 1297.730769 706.279894 
L 1299.010629 707.093769 
L 1300.290489 707.434511 
L 1301.570349 708.200294 
L 1304.130068 709.107961 
L 1305.409928 709.935594 
L 1306.689788 710.523676 
L 1307.969648 711.330413 
L 1310.529368 712.456531 
L 1311.809228 712.840427 
L 1313.089087 713.495111 
L 1314.368947 714.374814 
L 1316.928667 715.314381 
L 1318.208527 716.019718 
L 1319.488387 716.470979 
L 1322.048106 717.862136 
L 1323.327966 718.26141 
L 1324.607826 719.031168 
L 1325.887686 719.548423 
L 1327.167546 720.214914 
L 1331.007125 721.808859 
L 1332.286985 722.449782 
L 1333.566845 723.255018 
L 1336.126565 724.160772 
L 1337.406424 724.676939 
L 1338.686284 725.04819 
L 1339.966144 725.786268 
L 1341.246004 726.182582 
L 1342.525864 726.782866 
L 1345.085583 728.418738 
L 1346.365443 729.145814 
L 1347.645303 729.641956 
L 1348.925163 730.274064 
L 1350.205023 730.705118 
L 1356.604322 733.567898 
L 1359.164042 734.941829 
L 1360.443902 735.405445 
L 1363.003621 736.712572 
L 1364.283481 737.145434 
L 1366.843201 738.330065 
L 1368.123061 738.83911 
L 1369.40292 739.209414 
L 1371.96264 740.823804 
L 1371.96264 740.823804 
" style="fill:none;stroke:#0000ff;stroke-linecap:square;stroke-width:2.0;"/>
   </g>
   <g id="line2d_2">
    <path clip-path="url(#pcb790f45e4)" d="M 93.382656 95.943792 
L 94.662516 96.658679 
L 97.222236 98.728093 
L 101.061815 100.959328 
L 103.621535 102.038517 
L 106.181255 103.667734 
L 108.740974 105.011811 
L 110.020834 106.297527 
L 111.300694 107.247476 
L 113.860414 108.632466 
L 115.140274 109.905705 
L 117.699993 111.730729 
L 121.539573 113.598312 
L 122.819433 114.783085 
L 124.099293 115.422614 
L 125.379152 116.262011 
L 126.659012 117.366939 
L 127.938872 118.202537 
L 129.218732 118.742222 
L 130.498592 119.7632 
L 131.778452 120.383692 
L 135.618031 122.932149 
L 138.177751 125.257933 
L 140.73747 126.448573 
L 143.29719 128.022477 
L 144.57705 128.731758 
L 145.85691 129.631498 
L 147.13677 130.206755 
L 149.696489 131.87428 
L 153.536069 134.306996 
L 156.095789 135.595321 
L 157.375648 136.637114 
L 158.655508 137.852954 
L 159.935368 138.686033 
L 163.774948 141.741257 
L 165.054808 142.616298 
L 166.334667 143.22147 
L 167.614527 143.626284 
L 168.894387 144.466094 
L 170.174247 145.496422 
L 174.013826 147.609077 
L 176.573546 149.255562 
L 177.853406 149.743572 
L 181.692985 151.859853 
L 184.252705 153.632305 
L 186.812425 155.136927 
L 189.372145 156.741393 
L 190.652004 157.386942 
L 197.051304 161.19122 
L 202.170743 163.958329 
L 203.450603 164.940346 
L 204.730463 165.730752 
L 206.010323 166.250309 
L 208.570042 167.61282 
L 209.849902 168.310255 
L 212.409622 170.015633 
L 213.689482 170.802007 
L 220.088781 174.077608 
L 223.92836 176.328486 
L 226.48808 178.661254 
L 235.447099 184.175831 
L 236.726959 184.66892 
L 238.006819 185.362025 
L 239.286678 185.749887 
L 240.566538 186.404043 
L 243.126258 188.188796 
L 244.406118 189.011197 
L 245.685978 189.591797 
L 246.965838 190.303162 
L 249.525557 191.428814 
L 252.085277 192.903915 
L 253.365137 193.206799 
L 255.924856 194.822329 
L 257.204716 195.824223 
L 258.484576 196.515469 
L 259.764436 196.945998 
L 262.324156 198.197753 
L 263.604015 199.046812 
L 264.883875 199.44206 
L 266.163735 200.204626 
L 267.443595 201.103739 
L 270.003315 202.395572 
L 272.563034 203.60436 
L 277.682474 207.100176 
L 278.962334 207.790148 
L 280.242193 208.204242 
L 281.522053 209.089319 
L 285.361633 211.067233 
L 291.760932 215.276549 
L 295.600512 217.534726 
L 296.880371 218.13659 
L 298.160231 219.1571 
L 303.279671 222.079419 
L 304.55953 223.199642 
L 307.11925 224.272284 
L 309.67897 225.922594 
L 310.95883 226.863193 
L 316.078269 229.718447 
L 317.358129 230.292579 
L 318.637989 231.309853 
L 319.917849 231.788249 
L 321.197708 232.412821 
L 322.477568 232.879481 
L 325.037288 234.003658 
L 326.317148 234.56183 
L 327.597008 235.321898 
L 328.876868 236.370193 
L 330.156727 236.724717 
L 333.996307 238.620444 
L 335.276167 239.087395 
L 336.556027 239.712015 
L 337.835886 239.94523 
L 339.115746 240.693726 
L 340.395606 241.188584 
L 341.675466 241.902247 
L 342.955326 242.415129 
L 344.235186 243.108787 
L 345.515045 243.559559 
L 346.794905 244.601246 
L 348.074765 245.349941 
L 349.354625 245.893424 
L 351.914345 247.623665 
L 357.033784 250.691178 
L 358.313644 251.205636 
L 362.153223 253.07819 
L 364.712943 255.00072 
L 365.992803 255.718663 
L 368.552523 256.71895 
L 369.832382 257.611394 
L 371.112242 257.974684 
L 374.951822 259.33964 
L 376.231682 260.065506 
L 377.511542 260.622191 
L 378.791401 261.341471 
L 380.071261 261.761988 
L 381.351121 262.350831 
L 382.630981 263.231766 
L 383.910841 263.8263 
L 386.47056 265.674346 
L 387.75042 266.386945 
L 389.03028 267.467077 
L 390.31014 268.216027 
L 391.59 268.735792 
L 392.86986 269.391681 
L 395.429579 271.031766 
L 396.709439 271.475364 
L 399.269159 272.728311 
L 400.549019 273.707078 
L 403.108738 274.683851 
L 404.388598 275.339505 
L 405.668458 275.782096 
L 406.948318 276.597699 
L 408.228178 277.149286 
L 409.508038 277.869168 
L 412.067757 279.556313 
L 413.347617 280.284885 
L 414.627477 280.851877 
L 415.907337 281.106762 
L 419.746916 283.550201 
L 421.026776 284.708809 
L 423.586496 285.862309 
L 426.146216 287.493926 
L 427.426075 287.966962 
L 428.705935 288.866125 
L 436.385094 292.960407 
L 437.664954 293.822743 
L 438.944814 294.488763 
L 440.224674 294.98767 
L 441.504534 295.794798 
L 446.623973 298.041024 
L 451.743413 300.192996 
L 454.303132 301.373038 
L 458.142712 303.13542 
L 459.422572 303.584894 
L 460.702431 304.298324 
L 461.982291 304.702888 
L 463.262151 305.331221 
L 464.542011 306.203126 
L 465.821871 306.730659 
L 468.38159 307.913109 
L 474.78089 310.886465 
L 478.620469 312.953258 
L 481.180189 314.298757 
L 482.460049 314.762955 
L 483.739909 315.391277 
L 485.019768 315.73267 
L 486.299628 316.205802 
L 488.859348 317.56097 
L 490.139208 318.102115 
L 492.698928 319.565537 
L 493.978787 320.344395 
L 496.538507 321.340561 
L 497.818367 322.057955 
L 500.378087 323.121829 
L 504.217666 324.68463 
L 505.497526 325.083244 
L 506.777386 325.63359 
L 508.057246 326.339378 
L 509.337105 326.620502 
L 510.616965 327.341158 
L 513.176685 328.513276 
L 514.456545 329.516218 
L 515.736405 330.22107 
L 517.016265 330.710117 
L 518.296124 331.919204 
L 520.855844 333.585483 
L 524.695424 335.671534 
L 525.975283 336.119833 
L 528.535003 337.795419 
L 531.094723 339.310359 
L 534.934302 341.872139 
L 536.214162 342.824818 
L 537.494022 343.440051 
L 538.773882 344.355042 
L 540.053742 345.130216 
L 543.893321 346.253493 
L 545.173181 347.235459 
L 546.453041 347.904348 
L 549.012761 349.021244 
L 550.29262 349.792848 
L 554.1322 351.54145 
L 556.69192 352.91898 
L 559.251639 354.03379 
L 560.531499 354.426324 
L 564.371079 356.141495 
L 565.650939 356.648277 
L 568.210658 358.039401 
L 570.770378 359.047229 
L 572.050238 360.272967 
L 574.609957 361.208161 
L 575.889817 361.908859 
L 577.169677 362.481437 
L 578.449537 363.281471 
L 581.009257 364.476776 
L 583.568976 365.686071 
L 584.848836 366.374856 
L 586.128696 366.89547 
L 587.408556 367.209435 
L 588.688416 367.864556 
L 591.248135 369.632932 
L 592.527995 370.201407 
L 595.087715 371.637299 
L 597.647435 372.594114 
L 598.927295 373.373258 
L 601.487014 374.415639 
L 602.766874 375.211523 
L 606.606454 376.935767 
L 607.886313 377.867713 
L 610.446033 379.013498 
L 611.725893 379.897953 
L 615.565472 381.47096 
L 616.845332 382.04813 
L 618.125192 382.947123 
L 619.405052 383.523805 
L 620.684912 384.263455 
L 621.964772 384.782892 
L 623.244632 385.841693 
L 625.804351 386.841233 
L 627.084211 387.706111 
L 628.364071 388.301291 
L 630.923791 390.189748 
L 632.20365 390.888612 
L 633.48351 391.768645 
L 636.04323 393.121582 
L 637.32309 393.805362 
L 638.60295 394.207103 
L 639.88281 394.927116 
L 641.162669 395.509575 
L 642.442529 396.309861 
L 646.282109 398.103589 
L 647.561969 398.939151 
L 648.841828 399.434368 
L 650.121688 400.257927 
L 651.401548 400.855221 
L 652.681408 401.591028 
L 653.961268 402.009424 
L 656.520987 403.601427 
L 660.360567 405.156797 
L 661.640427 405.500085 
L 662.920287 406.109365 
L 664.200147 406.592019 
L 665.480006 407.491495 
L 666.759866 408.212977 
L 669.319586 409.206209 
L 671.879306 410.829668 
L 673.159165 411.524988 
L 674.439025 412.07675 
L 675.718885 412.851759 
L 676.998745 413.970217 
L 679.558465 415.152604 
L 682.118184 416.299255 
L 684.677904 417.32709 
L 685.957764 417.837966 
L 689.797343 419.850305 
L 691.077203 420.258084 
L 697.476502 423.451739 
L 698.756362 424.088918 
L 700.036222 424.935351 
L 701.316082 425.496567 
L 702.595942 426.212338 
L 705.155662 427.261211 
L 706.435521 427.664942 
L 707.715381 428.208414 
L 708.995241 429.072894 
L 714.11468 431.43591 
L 715.39454 432.149079 
L 716.6744 432.523737 
L 720.51398 434.254196 
L 721.79384 434.644886 
L 723.073699 435.413638 
L 724.353559 436.020806 
L 725.633419 436.349014 
L 726.913279 437.225929 
L 728.193139 437.750492 
L 729.472999 438.495074 
L 732.032718 439.429112 
L 734.592438 441.092887 
L 735.872298 441.759753 
L 737.152158 442.112636 
L 738.432017 442.952725 
L 739.711877 443.547295 
L 740.991737 444.299072 
L 743.551457 445.243543 
L 748.670896 447.119253 
L 749.950756 447.61708 
L 751.230616 447.97065 
L 753.790336 449.715065 
L 756.350055 450.778754 
L 757.629915 451.830337 
L 760.189635 453.194077 
L 765.309074 455.69987 
L 766.588934 455.997058 
L 772.988233 458.63649 
L 774.268093 459.170065 
L 775.547953 459.825898 
L 780.667392 461.930709 
L 784.506972 464.310147 
L 787.066692 465.250268 
L 788.346551 465.771952 
L 789.626411 466.451844 
L 790.906271 466.94041 
L 799.86529 471.248426 
L 801.14515 472.022933 
L 802.42501 472.615885 
L 803.70487 473.379426 
L 807.544449 475.000133 
L 808.824309 475.803385 
L 810.104169 476.336778 
L 811.384029 476.719969 
L 813.943748 477.926269 
L 815.223608 478.571701 
L 816.503468 479.510473 
L 821.622907 482.072472 
L 822.902767 482.490448 
L 829.302066 485.532377 
L 830.581926 486.221217 
L 833.141646 487.301321 
L 834.421506 488.153722 
L 835.701366 488.840978 
L 836.981225 489.769046 
L 839.540945 491.203579 
L 840.820805 491.750044 
L 842.100665 492.086953 
L 844.660385 493.54138 
L 845.940244 493.937519 
L 848.499964 495.444154 
L 849.779824 496.032155 
L 851.059684 496.84139 
L 854.899263 498.275307 
L 857.458983 499.864132 
L 860.018703 501.110054 
L 862.578422 502.076598 
L 863.858282 502.724114 
L 865.138142 503.221832 
L 866.418002 503.985963 
L 871.537441 506.424236 
L 874.097161 507.38383 
L 876.656881 508.795896 
L 881.77632 511.097214 
L 883.05618 511.578998 
L 886.895759 513.46341 
L 889.455479 514.613771 
L 890.735339 515.024168 
L 893.295059 516.145322 
L 894.574918 517.029635 
L 897.134638 517.953914 
L 898.414498 518.774194 
L 899.694358 519.329872 
L 900.974218 520.368149 
L 902.254077 521.12905 
L 904.813797 522.233507 
L 906.093657 522.7197 
L 908.653377 524.114661 
L 909.933237 524.475221 
L 913.772816 526.076178 
L 915.052676 526.995022 
L 918.892255 528.591111 
L 925.291555 531.221775 
L 926.571415 531.921186 
L 927.851274 532.46778 
L 929.131134 533.289075 
L 932.970714 535.074085 
L 934.250574 535.734147 
L 935.530433 536.541869 
L 936.810293 537.096172 
L 938.090153 537.787448 
L 940.649873 538.645333 
L 941.929733 539.04982 
L 945.769312 540.914481 
L 947.049172 541.443351 
L 948.329032 542.179704 
L 953.448471 544.404809 
L 954.728331 544.873489 
L 956.008191 545.660554 
L 958.567911 547.01425 
L 961.12763 548.697725 
L 962.40749 549.13896 
L 964.96721 551.029891 
L 966.24707 551.549746 
L 967.52693 552.306469 
L 968.806789 552.919268 
L 970.086649 553.395958 
L 971.366509 554.055828 
L 972.646369 554.569237 
L 976.485948 556.584982 
L 977.765808 557.165926 
L 980.325528 558.631551 
L 984.165107 560.289371 
L 985.444967 560.60808 
L 986.724827 561.24811 
L 988.004687 562.220174 
L 989.284547 562.501707 
L 991.844267 563.531047 
L 993.124126 564.1933 
L 994.403986 564.600465 
L 995.683846 565.340432 
L 996.963706 565.832175 
L 999.523426 567.113439 
L 1000.803285 567.699659 
L 1002.083145 568.576564 
L 1003.363005 569.210629 
L 1004.642865 570.09321 
L 1007.202585 571.357679 
L 1009.762304 572.414243 
L 1011.042164 573.155484 
L 1014.881744 574.723913 
L 1016.161604 575.364089 
L 1017.441463 575.792338 
L 1023.840763 578.748035 
L 1025.120623 579.410943 
L 1026.400482 580.255904 
L 1027.680342 580.771654 
L 1028.960202 581.533083 
L 1030.240062 581.891555 
L 1032.799782 583.561016 
L 1035.359501 584.501052 
L 1036.639361 584.947678 
L 1039.199081 586.282808 
L 1041.7588 587.417512 
L 1043.03866 588.012106 
L 1044.31852 588.832571 
L 1045.59838 589.356484 
L 1046.87824 590.008742 
L 1048.1581 590.872977 
L 1049.43796 591.881191 
L 1050.717819 592.582955 
L 1054.557399 594.297971 
L 1055.837259 595.139345 
L 1057.117119 595.777488 
L 1058.396978 596.631605 
L 1062.236558 598.0982 
L 1066.076137 599.926111 
L 1067.355997 600.610381 
L 1068.635857 601.441378 
L 1072.475437 603.10366 
L 1076.315016 605.434208 
L 1080.154596 606.813502 
L 1083.994175 608.262722 
L 1085.274035 608.911131 
L 1086.553895 609.434845 
L 1089.113615 610.819613 
L 1091.673334 612.464566 
L 1095.512914 614.317914 
L 1098.072634 616.001387 
L 1099.352493 616.560655 
L 1101.912213 617.477978 
L 1103.192073 618.135608 
L 1104.471933 618.959609 
L 1105.751793 619.616202 
L 1110.871232 621.684343 
L 1112.151092 622.385112 
L 1113.430952 622.916106 
L 1115.990671 623.801984 
L 1117.270531 624.418872 
L 1118.550391 625.495044 
L 1121.110111 626.530661 
L 1122.389971 627.218231 
L 1124.94969 628.135187 
L 1126.22955 628.895076 
L 1128.78927 629.734185 
L 1130.06913 630.387117 
L 1131.34899 630.72563 
L 1133.908709 632.244259 
L 1135.188569 632.765537 
L 1136.468429 633.518245 
L 1137.748289 634.015301 
L 1140.308008 635.421992 
L 1141.587868 636.169851 
L 1142.867728 637.06956 
L 1145.427448 638.178949 
L 1146.707308 638.980429 
L 1147.987167 639.334811 
L 1149.267027 639.824819 
L 1153.106607 641.898379 
L 1154.386467 642.315785 
L 1160.785766 645.241108 
L 1162.065626 645.677983 
L 1164.625345 647.022971 
L 1165.905205 647.773431 
L 1167.185065 648.251809 
L 1171.024645 649.984645 
L 1172.304505 650.465652 
L 1173.584364 650.825325 
L 1174.864224 651.510532 
L 1176.144084 652.021561 
L 1179.983664 654.350029 
L 1181.263523 654.896132 
L 1182.543383 655.876695 
L 1187.662823 658.655295 
L 1188.942683 659.056423 
L 1191.502402 660.35524 
L 1192.782262 660.617205 
L 1194.062122 661.194431 
L 1195.341982 661.636598 
L 1196.621842 662.257954 
L 1197.901701 663.004975 
L 1199.181561 663.427484 
L 1203.021141 665.214538 
L 1205.58086 666.278248 
L 1206.86072 667.170365 
L 1210.7003 668.959274 
L 1211.98016 669.478478 
L 1217.099599 672.185175 
L 1223.498898 674.691676 
L 1227.338478 676.955777 
L 1231.178057 678.87284 
L 1233.737777 680.194287 
L 1235.017637 681.059253 
L 1237.577357 682.044775 
L 1240.137076 682.658097 
L 1241.416936 683.113095 
L 1242.696796 683.929957 
L 1246.536375 685.518912 
L 1249.096095 686.855414 
L 1251.655815 687.694584 
L 1255.495394 689.133708 
L 1258.055114 690.158228 
L 1260.614834 691.488713 
L 1263.174553 692.569442 
L 1264.454413 693.208508 
L 1267.014133 694.809636 
L 1269.573853 695.895571 
L 1270.853713 696.483665 
L 1272.133572 697.248578 
L 1273.413432 697.713405 
L 1277.253012 699.683018 
L 1278.532872 700.151032 
L 1281.092591 701.356646 
L 1283.652311 702.382479 
L 1284.932171 703.020392 
L 1287.49189 703.786344 
L 1288.77175 704.690743 
L 1291.33147 705.557161 
L 1292.61133 706.445631 
L 1295.17105 707.772185 
L 1296.450909 708.384035 
L 1297.730769 708.802579 
L 1299.010629 709.526382 
L 1301.570349 710.670953 
L 1302.850209 711.315985 
L 1304.130068 711.706657 
L 1306.689788 712.86307 
L 1307.969648 713.697206 
L 1309.249508 714.344954 
L 1310.529368 714.82272 
L 1311.809228 715.670766 
L 1313.089087 716.297524 
L 1314.368947 717.25256 
L 1319.488387 720.336606 
L 1325.887686 722.946551 
L 1328.447405 723.938737 
L 1331.007125 725.548473 
L 1332.286985 726.067229 
L 1333.566845 726.83886 
L 1337.406424 728.659214 
L 1338.686284 729.292594 
L 1342.525864 730.676523 
L 1343.805724 731.478319 
L 1346.365443 732.504903 
L 1348.925163 733.798086 
L 1350.205023 734.323144 
L 1351.484883 735.01112 
L 1352.764743 735.317363 
L 1355.324462 736.533549 
L 1356.604322 737.165091 
L 1359.164042 738.134161 
L 1363.003621 740.013029 
L 1365.563341 741.055851 
L 1368.123061 742.27326 
L 1369.40292 742.736713 
L 1370.68278 743.434386 
L 1371.96264 743.995224 
L 1371.96264 743.995224 
" style="fill:none;stroke:#008000;stroke-linecap:square;stroke-width:2.0;"/>
   </g>
   <g id="patch_3">
    <path d="M 93.382656 57.915781 
L 1373.2425 57.915781 
" style="fill:none;stroke:#000000;stroke-linecap:square;stroke-linejoin:miter;"/>
   </g>
   <g id="patch_4">
    <path d="M 1373.2425 770.338125 
L 1373.2425 57.915781 
" style="fill:none;stroke:#000000;stroke-linecap:square;stroke-linejoin:miter;"/>
   </g>
   <g id="patch_5">
    <path d="M 93.382656 770.338125 
L 1373.2425 770.338125 
" style="fill:none;stroke:#000000;stroke-linecap:square;stroke-linejoin:miter;"/>
   </g>
   <g id="patch_6">
    <path d="M 93.382656 770.338125 
L 93.382656 57.915781 
" style="fill:none;stroke:#000000;stroke-linecap:square;stroke-linejoin:miter;"/>
   </g>
   <g id="matplotlib.axis_1">
    <g id="xtick_1">
     <g id="line2d_3">
      <defs>
       <path d="M 0 0 
L 0 -4 
" id="mbe5bfac43c" style="stroke:#000000;stroke-width:0.5;"/>
      </defs>
      <g>
       <use style="stroke:#000000;stroke-width:0.5;" x="93.38265625" xlink:href="#mbe5bfac43c" y="770.338125"/>
      </g>
     </g>
     <g id="line2d_4">
      <defs>
       <path d="M 0 0 
L 0 4 
" id="m3ae39938f9" style="stroke:#000000;stroke-width:0.5;"/>
      </defs>
      <g>
       <use style="stroke:#000000;stroke-width:0.5;" x="93.38265625" xlink:href="#m3ae39938f9" y="57.91578125"/>
      </g>
     </g>
     <g id="text_1">
      <!-- 0 -->
      <defs>
       <path d="M 31.78125 66.40625 
Q 24.171875 66.40625 20.328125 58.90625 
Q 16.5 51.421875 16.5 36.375 
Q 16.5 21.390625 20.328125 13.890625 
Q 24.171875 6.390625 31.78125 6.390625 
Q 39.453125 6.390625 43.28125 13.890625 
Q 47.125 21.390625 47.125 36.375 
Q 47.125 51.421875 43.28125 58.90625 
Q 39.453125 66.40625 31.78125 66.40625 
M 31.78125 74.21875 
Q 44.046875 74.21875 50.515625 64.515625 
Q 56.984375 54.828125 56.984375 36.375 
Q 56.984375 17.96875 50.515625 8.265625 
Q 44.046875 -1.421875 31.78125 -1.421875 
Q 19.53125 -1.421875 13.0625 8.265625 
Q 6.59375 17.96875 6.59375 36.375 
Q 6.59375 54.828125 13.0625 64.515625 
Q 19.53125 74.21875 31.78125 74.21875 
" id="BitstreamVeraSans-Roman-30"/>
      </defs>
      <g transform="translate(83.83890625 797.1334375)scale(0.3 -0.3)">
       <use xlink:href="#BitstreamVeraSans-Roman-30"/>
      </g>
     </g>
    </g>
    <g id="xtick_2">
     <g id="line2d_5">
      <g>
       <use style="stroke:#000000;stroke-width:0.5;" x="349.354625" xlink:href="#mbe5bfac43c" y="770.338125"/>
      </g>
     </g>
     <g id="line2d_6">
      <g>
       <use style="stroke:#000000;stroke-width:0.5;" x="349.354625" xlink:href="#m3ae39938f9" y="57.91578125"/>
      </g>
     </g>
     <g id="text_2">
      <!-- 200 -->
      <defs>
       <path d="M 19.1875 8.296875 
L 53.609375 8.296875 
L 53.609375 0 
L 7.328125 0 
L 7.328125 8.296875 
Q 12.9375 14.109375 22.625 23.890625 
Q 32.328125 33.6875 34.8125 36.53125 
Q 39.546875 41.84375 41.421875 45.53125 
Q 43.3125 49.21875 43.3125 52.78125 
Q 43.3125 58.59375 39.234375 62.25 
Q 35.15625 65.921875 28.609375 65.921875 
Q 23.96875 65.921875 18.8125 64.3125 
Q 13.671875 62.703125 7.8125 59.421875 
L 7.8125 69.390625 
Q 13.765625 71.78125 18.9375 73 
Q 24.125 74.21875 28.421875 74.21875 
Q 39.75 74.21875 46.484375 68.546875 
Q 53.21875 62.890625 53.21875 53.421875 
Q 53.21875 48.921875 51.53125 44.890625 
Q 49.859375 40.875 45.40625 35.40625 
Q 44.1875 33.984375 37.640625 27.21875 
Q 31.109375 20.453125 19.1875 8.296875 
" id="BitstreamVeraSans-Roman-32"/>
      </defs>
      <g transform="translate(320.723375 797.1334375)scale(0.3 -0.3)">
       <use xlink:href="#BitstreamVeraSans-Roman-32"/>
       <use x="63.623046875" xlink:href="#BitstreamVeraSans-Roman-30"/>
       <use x="127.24609375" xlink:href="#BitstreamVeraSans-Roman-30"/>
      </g>
     </g>
    </g>
    <g id="xtick_3">
     <g id="line2d_7">
      <g>
       <use style="stroke:#000000;stroke-width:0.5;" x="605.32659375" xlink:href="#mbe5bfac43c" y="770.338125"/>
      </g>
     </g>
     <g id="line2d_8">
      <g>
       <use style="stroke:#000000;stroke-width:0.5;" x="605.32659375" xlink:href="#m3ae39938f9" y="57.91578125"/>
      </g>
     </g>
     <g id="text_3">
      <!-- 400 -->
      <defs>
       <path d="M 37.796875 64.3125 
L 12.890625 25.390625 
L 37.796875 25.390625 
z
M 35.203125 72.90625 
L 47.609375 72.90625 
L 47.609375 25.390625 
L 58.015625 25.390625 
L 58.015625 17.1875 
L 47.609375 17.1875 
L 47.609375 0 
L 37.796875 0 
L 37.796875 17.1875 
L 4.890625 17.1875 
L 4.890625 26.703125 
z
" id="BitstreamVeraSans-Roman-34"/>
      </defs>
      <g transform="translate(576.69534375 797.1334375)scale(0.3 -0.3)">
       <use xlink:href="#BitstreamVeraSans-Roman-34"/>
       <use x="63.623046875" xlink:href="#BitstreamVeraSans-Roman-30"/>
       <use x="127.24609375" xlink:href="#BitstreamVeraSans-Roman-30"/>
      </g>
     </g>
    </g>
    <g id="xtick_4">
     <g id="line2d_9">
      <g>
       <use style="stroke:#000000;stroke-width:0.5;" x="861.2985625" xlink:href="#mbe5bfac43c" y="770.338125"/>
      </g>
     </g>
     <g id="line2d_10">
      <g>
       <use style="stroke:#000000;stroke-width:0.5;" x="861.2985625" xlink:href="#m3ae39938f9" y="57.91578125"/>
      </g>
     </g>
     <g id="text_4">
      <!-- 600 -->
      <defs>
       <path d="M 33.015625 40.375 
Q 26.375 40.375 22.484375 35.828125 
Q 18.609375 31.296875 18.609375 23.390625 
Q 18.609375 15.53125 22.484375 10.953125 
Q 26.375 6.390625 33.015625 6.390625 
Q 39.65625 6.390625 43.53125 10.953125 
Q 47.40625 15.53125 47.40625 23.390625 
Q 47.40625 31.296875 43.53125 35.828125 
Q 39.65625 40.375 33.015625 40.375 
M 52.59375 71.296875 
L 52.59375 62.3125 
Q 48.875 64.0625 45.09375 64.984375 
Q 41.3125 65.921875 37.59375 65.921875 
Q 27.828125 65.921875 22.671875 59.328125 
Q 17.53125 52.734375 16.796875 39.40625 
Q 19.671875 43.65625 24.015625 45.921875 
Q 28.375 48.1875 33.59375 48.1875 
Q 44.578125 48.1875 50.953125 41.515625 
Q 57.328125 34.859375 57.328125 23.390625 
Q 57.328125 12.15625 50.6875 5.359375 
Q 44.046875 -1.421875 33.015625 -1.421875 
Q 20.359375 -1.421875 13.671875 8.265625 
Q 6.984375 17.96875 6.984375 36.375 
Q 6.984375 53.65625 15.1875 63.9375 
Q 23.390625 74.21875 37.203125 74.21875 
Q 40.921875 74.21875 44.703125 73.484375 
Q 48.484375 72.75 52.59375 71.296875 
" id="BitstreamVeraSans-Roman-36"/>
      </defs>
      <g transform="translate(832.6673125 797.1334375)scale(0.3 -0.3)">
       <use xlink:href="#BitstreamVeraSans-Roman-36"/>
       <use x="63.623046875" xlink:href="#BitstreamVeraSans-Roman-30"/>
       <use x="127.24609375" xlink:href="#BitstreamVeraSans-Roman-30"/>
      </g>
     </g>
    </g>
    <g id="xtick_5">
     <g id="line2d_11">
      <g>
       <use style="stroke:#000000;stroke-width:0.5;" x="1117.27053125" xlink:href="#mbe5bfac43c" y="770.338125"/>
      </g>
     </g>
     <g id="line2d_12">
      <g>
       <use style="stroke:#000000;stroke-width:0.5;" x="1117.27053125" xlink:href="#m3ae39938f9" y="57.91578125"/>
      </g>
     </g>
     <g id="text_5">
      <!-- 800 -->
      <defs>
       <path d="M 31.78125 34.625 
Q 24.75 34.625 20.71875 30.859375 
Q 16.703125 27.09375 16.703125 20.515625 
Q 16.703125 13.921875 20.71875 10.15625 
Q 24.75 6.390625 31.78125 6.390625 
Q 38.8125 6.390625 42.859375 10.171875 
Q 46.921875 13.96875 46.921875 20.515625 
Q 46.921875 27.09375 42.890625 30.859375 
Q 38.875 34.625 31.78125 34.625 
M 21.921875 38.8125 
Q 15.578125 40.375 12.03125 44.71875 
Q 8.5 49.078125 8.5 55.328125 
Q 8.5 64.0625 14.71875 69.140625 
Q 20.953125 74.21875 31.78125 74.21875 
Q 42.671875 74.21875 48.875 69.140625 
Q 55.078125 64.0625 55.078125 55.328125 
Q 55.078125 49.078125 51.53125 44.71875 
Q 48 40.375 41.703125 38.8125 
Q 48.828125 37.15625 52.796875 32.3125 
Q 56.78125 27.484375 56.78125 20.515625 
Q 56.78125 9.90625 50.3125 4.234375 
Q 43.84375 -1.421875 31.78125 -1.421875 
Q 19.734375 -1.421875 13.25 4.234375 
Q 6.78125 9.90625 6.78125 20.515625 
Q 6.78125 27.484375 10.78125 32.3125 
Q 14.796875 37.15625 21.921875 38.8125 
M 18.3125 54.390625 
Q 18.3125 48.734375 21.84375 45.5625 
Q 25.390625 42.390625 31.78125 42.390625 
Q 38.140625 42.390625 41.71875 45.5625 
Q 45.3125 48.734375 45.3125 54.390625 
Q 45.3125 60.0625 41.71875 63.234375 
Q 38.140625 66.40625 31.78125 66.40625 
Q 25.390625 66.40625 21.84375 63.234375 
Q 18.3125 60.0625 18.3125 54.390625 
" id="BitstreamVeraSans-Roman-38"/>
      </defs>
      <g transform="translate(1088.63928125 797.1334375)scale(0.3 -0.3)">
       <use xlink:href="#BitstreamVeraSans-Roman-38"/>
       <use x="63.623046875" xlink:href="#BitstreamVeraSans-Roman-30"/>
       <use x="127.24609375" xlink:href="#BitstreamVeraSans-Roman-30"/>
      </g>
     </g>
    </g>
    <g id="xtick_6">
     <g id="line2d_13">
      <g>
       <use style="stroke:#000000;stroke-width:0.5;" x="1373.2425" xlink:href="#mbe5bfac43c" y="770.338125"/>
      </g>
     </g>
     <g id="line2d_14">
      <g>
       <use style="stroke:#000000;stroke-width:0.5;" x="1373.2425" xlink:href="#m3ae39938f9" y="57.91578125"/>
      </g>
     </g>
     <g id="text_6">
      <!-- 1000 -->
      <defs>
       <path d="M 12.40625 8.296875 
L 28.515625 8.296875 
L 28.515625 63.921875 
L 10.984375 60.40625 
L 10.984375 69.390625 
L 28.421875 72.90625 
L 38.28125 72.90625 
L 38.28125 8.296875 
L 54.390625 8.296875 
L 54.390625 0 
L 12.40625 0 
z
" id="BitstreamVeraSans-Roman-31"/>
      </defs>
      <g transform="translate(1335.0675 797.1334375)scale(0.3 -0.3)">
       <use xlink:href="#BitstreamVeraSans-Roman-31"/>
       <use x="63.623046875" xlink:href="#BitstreamVeraSans-Roman-30"/>
       <use x="127.24609375" xlink:href="#BitstreamVeraSans-Roman-30"/>
       <use x="190.869140625" xlink:href="#BitstreamVeraSans-Roman-30"/>
      </g>
     </g>
    </g>
    <g id="text_7">
     <!-- iterations -->
     <defs>
      <path d="M 54.890625 33.015625 
L 54.890625 0 
L 45.90625 0 
L 45.90625 32.71875 
Q 45.90625 40.484375 42.875 44.328125 
Q 39.84375 48.1875 33.796875 48.1875 
Q 26.515625 48.1875 22.3125 43.546875 
Q 18.109375 38.921875 18.109375 30.90625 
L 18.109375 0 
L 9.078125 0 
L 9.078125 54.6875 
L 18.109375 54.6875 
L 18.109375 46.1875 
Q 21.34375 51.125 25.703125 53.5625 
Q 30.078125 56 35.796875 56 
Q 45.21875 56 50.046875 50.171875 
Q 54.890625 44.34375 54.890625 33.015625 
" id="BitstreamVeraSans-Roman-6e"/>
      <path d="M 34.28125 27.484375 
Q 23.390625 27.484375 19.1875 25 
Q 14.984375 22.515625 14.984375 16.5 
Q 14.984375 11.71875 18.140625 8.90625 
Q 21.296875 6.109375 26.703125 6.109375 
Q 34.1875 6.109375 38.703125 11.40625 
Q 43.21875 16.703125 43.21875 25.484375 
L 43.21875 27.484375 
z
M 52.203125 31.203125 
L 52.203125 0 
L 43.21875 0 
L 43.21875 8.296875 
Q 40.140625 3.328125 35.546875 0.953125 
Q 30.953125 -1.421875 24.3125 -1.421875 
Q 15.921875 -1.421875 10.953125 3.296875 
Q 6 8.015625 6 15.921875 
Q 6 25.140625 12.171875 29.828125 
Q 18.359375 34.515625 30.609375 34.515625 
L 43.21875 34.515625 
L 43.21875 35.40625 
Q 43.21875 41.609375 39.140625 45 
Q 35.0625 48.390625 27.6875 48.390625 
Q 23 48.390625 18.546875 47.265625 
Q 14.109375 46.140625 10.015625 43.890625 
L 10.015625 52.203125 
Q 14.9375 54.109375 19.578125 55.046875 
Q 24.21875 56 28.609375 56 
Q 40.484375 56 46.34375 49.84375 
Q 52.203125 43.703125 52.203125 31.203125 
" id="BitstreamVeraSans-Roman-61"/>
      <path d="M 30.609375 48.390625 
Q 23.390625 48.390625 19.1875 42.75 
Q 14.984375 37.109375 14.984375 27.296875 
Q 14.984375 17.484375 19.15625 11.84375 
Q 23.34375 6.203125 30.609375 6.203125 
Q 37.796875 6.203125 41.984375 11.859375 
Q 46.1875 17.53125 46.1875 27.296875 
Q 46.1875 37.015625 41.984375 42.703125 
Q 37.796875 48.390625 30.609375 48.390625 
M 30.609375 56 
Q 42.328125 56 49.015625 48.375 
Q 55.71875 40.765625 55.71875 27.296875 
Q 55.71875 13.875 49.015625 6.21875 
Q 42.328125 -1.421875 30.609375 -1.421875 
Q 18.84375 -1.421875 12.171875 6.21875 
Q 5.515625 13.875 5.515625 27.296875 
Q 5.515625 40.765625 12.171875 48.375 
Q 18.84375 56 30.609375 56 
" id="BitstreamVeraSans-Roman-6f"/>
      <path d="M 9.421875 54.6875 
L 18.40625 54.6875 
L 18.40625 0 
L 9.421875 0 
z
M 9.421875 75.984375 
L 18.40625 75.984375 
L 18.40625 64.59375 
L 9.421875 64.59375 
z
" id="BitstreamVeraSans-Roman-69"/>
      <path d="M 56.203125 29.59375 
L 56.203125 25.203125 
L 14.890625 25.203125 
Q 15.484375 15.921875 20.484375 11.0625 
Q 25.484375 6.203125 34.421875 6.203125 
Q 39.59375 6.203125 44.453125 7.46875 
Q 49.3125 8.734375 54.109375 11.28125 
L 54.109375 2.78125 
Q 49.265625 0.734375 44.1875 -0.34375 
Q 39.109375 -1.421875 33.890625 -1.421875 
Q 20.796875 -1.421875 13.15625 6.1875 
Q 5.515625 13.8125 5.515625 26.8125 
Q 5.515625 40.234375 12.765625 48.109375 
Q 20.015625 56 32.328125 56 
Q 43.359375 56 49.78125 48.890625 
Q 56.203125 41.796875 56.203125 29.59375 
M 47.21875 32.234375 
Q 47.125 39.59375 43.09375 43.984375 
Q 39.0625 48.390625 32.421875 48.390625 
Q 24.90625 48.390625 20.390625 44.140625 
Q 15.875 39.890625 15.1875 32.171875 
z
" id="BitstreamVeraSans-Roman-65"/>
      <path d="M 18.3125 70.21875 
L 18.3125 54.6875 
L 36.8125 54.6875 
L 36.8125 47.703125 
L 18.3125 47.703125 
L 18.3125 18.015625 
Q 18.3125 11.328125 20.140625 9.421875 
Q 21.96875 7.515625 27.59375 7.515625 
L 36.8125 7.515625 
L 36.8125 0 
L 27.59375 0 
Q 17.1875 0 13.234375 3.875 
Q 9.28125 7.765625 9.28125 18.015625 
L 9.28125 47.703125 
L 2.6875 47.703125 
L 2.6875 54.6875 
L 9.28125 54.6875 
L 9.28125 70.21875 
z
" id="BitstreamVeraSans-Roman-74"/>
      <path d="M 41.109375 46.296875 
Q 39.59375 47.171875 37.8125 47.578125 
Q 36.03125 48 33.890625 48 
Q 26.265625 48 22.1875 43.046875 
Q 18.109375 38.09375 18.109375 28.8125 
L 18.109375 0 
L 9.078125 0 
L 9.078125 54.6875 
L 18.109375 54.6875 
L 18.109375 46.1875 
Q 20.953125 51.171875 25.484375 53.578125 
Q 30.03125 56 36.53125 56 
Q 37.453125 56 38.578125 55.875 
Q 39.703125 55.765625 41.0625 55.515625 
z
" id="BitstreamVeraSans-Roman-72"/>
      <path d="M 44.28125 53.078125 
L 44.28125 44.578125 
Q 40.484375 46.53125 36.375 47.5 
Q 32.28125 48.484375 27.875 48.484375 
Q 21.1875 48.484375 17.84375 46.4375 
Q 14.5 44.390625 14.5 40.28125 
Q 14.5 37.15625 16.890625 35.375 
Q 19.28125 33.59375 26.515625 31.984375 
L 29.59375 31.296875 
Q 39.15625 29.25 43.1875 25.515625 
Q 47.21875 21.78125 47.21875 15.09375 
Q 47.21875 7.46875 41.1875 3.015625 
Q 35.15625 -1.421875 24.609375 -1.421875 
Q 20.21875 -1.421875 15.453125 -0.5625 
Q 10.6875 0.296875 5.421875 2 
L 5.421875 11.28125 
Q 10.40625 8.6875 15.234375 7.390625 
Q 20.0625 6.109375 24.8125 6.109375 
Q 31.15625 6.109375 34.5625 8.28125 
Q 37.984375 10.453125 37.984375 14.40625 
Q 37.984375 18.0625 35.515625 20.015625 
Q 33.0625 21.96875 24.703125 23.78125 
L 21.578125 24.515625 
Q 13.234375 26.265625 9.515625 29.90625 
Q 5.8125 33.546875 5.8125 39.890625 
Q 5.8125 47.609375 11.28125 51.796875 
Q 16.75 56 26.8125 56 
Q 31.78125 56 36.171875 55.265625 
Q 40.578125 54.546875 44.28125 53.078125 
" id="BitstreamVeraSans-Roman-73"/>
     </defs>
     <g transform="translate(662.130546875 831.1678125)scale(0.3 -0.3)">
      <use xlink:href="#BitstreamVeraSans-Roman-69"/>
      <use x="27.783203125" xlink:href="#BitstreamVeraSans-Roman-74"/>
      <use x="66.9921875" xlink:href="#BitstreamVeraSans-Roman-65"/>
      <use x="128.515625" xlink:href="#BitstreamVeraSans-Roman-72"/>
      <use x="169.62890625" xlink:href="#BitstreamVeraSans-Roman-61"/>
      <use x="230.908203125" xlink:href="#BitstreamVeraSans-Roman-74"/>
      <use x="270.1171875" xlink:href="#BitstreamVeraSans-Roman-69"/>
      <use x="297.900390625" xlink:href="#BitstreamVeraSans-Roman-6f"/>
      <use x="359.08203125" xlink:href="#BitstreamVeraSans-Roman-6e"/>
      <use x="422.4609375" xlink:href="#BitstreamVeraSans-Roman-73"/>
     </g>
    </g>
   </g>
   <g id="matplotlib.axis_2">
    <g id="ytick_1">
     <g id="line2d_15">
      <defs>
       <path d="M 0 0 
L 4 0 
" id="m6f62c44c98" style="stroke:#000000;stroke-width:0.5;"/>
      </defs>
      <g>
       <use style="stroke:#000000;stroke-width:0.5;" x="93.38265625" xlink:href="#m6f62c44c98" y="770.338125"/>
      </g>
     </g>
     <g id="line2d_16">
      <defs>
       <path d="M 0 0 
L -4 0 
" id="m385929a79a" style="stroke:#000000;stroke-width:0.5;"/>
      </defs>
      <g>
       <use style="stroke:#000000;stroke-width:0.5;" x="1373.2425" xlink:href="#m385929a79a" y="770.338125"/>
      </g>
     </g>
     <g id="text_8">
      <!-- −30 -->
      <defs>
       <path d="M 10.59375 35.5 
L 73.1875 35.5 
L 73.1875 27.203125 
L 10.59375 27.203125 
z
" id="BitstreamVeraSans-Roman-2212"/>
       <path d="M 40.578125 39.3125 
Q 47.65625 37.796875 51.625 33 
Q 55.609375 28.21875 55.609375 21.1875 
Q 55.609375 10.40625 48.1875 4.484375 
Q 40.765625 -1.421875 27.09375 -1.421875 
Q 22.515625 -1.421875 17.65625 -0.515625 
Q 12.796875 0.390625 7.625 2.203125 
L 7.625 11.71875 
Q 11.71875 9.328125 16.59375 8.109375 
Q 21.484375 6.890625 26.8125 6.890625 
Q 36.078125 6.890625 40.9375 10.546875 
Q 45.796875 14.203125 45.796875 21.1875 
Q 45.796875 27.640625 41.28125 31.265625 
Q 36.765625 34.90625 28.71875 34.90625 
L 20.21875 34.90625 
L 20.21875 43.015625 
L 29.109375 43.015625 
Q 36.375 43.015625 40.234375 45.921875 
Q 44.09375 48.828125 44.09375 54.296875 
Q 44.09375 59.90625 40.109375 62.90625 
Q 36.140625 65.921875 28.71875 65.921875 
Q 24.65625 65.921875 20.015625 65.03125 
Q 15.375 64.15625 9.8125 62.3125 
L 9.8125 71.09375 
Q 15.4375 72.65625 20.34375 73.4375 
Q 25.25 74.21875 29.59375 74.21875 
Q 40.828125 74.21875 47.359375 69.109375 
Q 53.90625 64.015625 53.90625 55.328125 
Q 53.90625 49.265625 50.4375 45.09375 
Q 46.96875 40.921875 40.578125 39.3125 
" id="BitstreamVeraSans-Roman-33"/>
      </defs>
      <g transform="translate(26.06859375 778.61625)scale(0.3 -0.3)">
       <use xlink:href="#BitstreamVeraSans-Roman-2212"/>
       <use x="83.7890625" xlink:href="#BitstreamVeraSans-Roman-33"/>
       <use x="147.412109375" xlink:href="#BitstreamVeraSans-Roman-30"/>
      </g>
     </g>
    </g>
    <g id="ytick_2">
     <g id="line2d_17">
      <g>
       <use style="stroke:#000000;stroke-width:0.5;" x="93.38265625" xlink:href="#m6f62c44c98" y="691.180086806"/>
      </g>
     </g>
     <g id="line2d_18">
      <g>
       <use style="stroke:#000000;stroke-width:0.5;" x="1373.2425" xlink:href="#m385929a79a" y="691.180086806"/>
      </g>
     </g>
     <g id="text_9">
      <!-- −25 -->
      <defs>
       <path d="M 10.796875 72.90625 
L 49.515625 72.90625 
L 49.515625 64.59375 
L 19.828125 64.59375 
L 19.828125 46.734375 
Q 21.96875 47.46875 24.109375 47.828125 
Q 26.265625 48.1875 28.421875 48.1875 
Q 40.625 48.1875 47.75 41.5 
Q 54.890625 34.8125 54.890625 23.390625 
Q 54.890625 11.625 47.5625 5.09375 
Q 40.234375 -1.421875 26.90625 -1.421875 
Q 22.3125 -1.421875 17.546875 -0.640625 
Q 12.796875 0.140625 7.71875 1.703125 
L 7.71875 11.625 
Q 12.109375 9.234375 16.796875 8.0625 
Q 21.484375 6.890625 26.703125 6.890625 
Q 35.15625 6.890625 40.078125 11.328125 
Q 45.015625 15.765625 45.015625 23.390625 
Q 45.015625 31 40.078125 35.4375 
Q 35.15625 39.890625 26.703125 39.890625 
Q 22.75 39.890625 18.8125 39.015625 
Q 14.890625 38.140625 10.796875 36.28125 
z
" id="BitstreamVeraSans-Roman-35"/>
      </defs>
      <g transform="translate(26.06859375 699.458211806)scale(0.3 -0.3)">
       <use xlink:href="#BitstreamVeraSans-Roman-2212"/>
       <use x="83.7890625" xlink:href="#BitstreamVeraSans-Roman-32"/>
       <use x="147.412109375" xlink:href="#BitstreamVeraSans-Roman-35"/>
      </g>
     </g>
    </g>
    <g id="ytick_3">
     <g id="line2d_19">
      <g>
       <use style="stroke:#000000;stroke-width:0.5;" x="93.38265625" xlink:href="#m6f62c44c98" y="612.022048611"/>
      </g>
     </g>
     <g id="line2d_20">
      <g>
       <use style="stroke:#000000;stroke-width:0.5;" x="1373.2425" xlink:href="#m385929a79a" y="612.022048611"/>
      </g>
     </g>
     <g id="text_10">
      <!-- −20 -->
      <g transform="translate(26.06859375 620.300173611)scale(0.3 -0.3)">
       <use xlink:href="#BitstreamVeraSans-Roman-2212"/>
       <use x="83.7890625" xlink:href="#BitstreamVeraSans-Roman-32"/>
       <use x="147.412109375" xlink:href="#BitstreamVeraSans-Roman-30"/>
      </g>
     </g>
    </g>
    <g id="ytick_4">
     <g id="line2d_21">
      <g>
       <use style="stroke:#000000;stroke-width:0.5;" x="93.38265625" xlink:href="#m6f62c44c98" y="532.864010417"/>
      </g>
     </g>
     <g id="line2d_22">
      <g>
       <use style="stroke:#000000;stroke-width:0.5;" x="1373.2425" xlink:href="#m385929a79a" y="532.864010417"/>
      </g>
     </g>
     <g id="text_11">
      <!-- −15 -->
      <g transform="translate(26.06859375 541.142135417)scale(0.3 -0.3)">
       <use xlink:href="#BitstreamVeraSans-Roman-2212"/>
       <use x="83.7890625" xlink:href="#BitstreamVeraSans-Roman-31"/>
       <use x="147.412109375" xlink:href="#BitstreamVeraSans-Roman-35"/>
      </g>
     </g>
    </g>
    <g id="ytick_5">
     <g id="line2d_23">
      <g>
       <use style="stroke:#000000;stroke-width:0.5;" x="93.38265625" xlink:href="#m6f62c44c98" y="453.705972222"/>
      </g>
     </g>
     <g id="line2d_24">
      <g>
       <use style="stroke:#000000;stroke-width:0.5;" x="1373.2425" xlink:href="#m385929a79a" y="453.705972222"/>
      </g>
     </g>
     <g id="text_12">
      <!-- −10 -->
      <g transform="translate(26.06859375 461.984097222)scale(0.3 -0.3)">
       <use xlink:href="#BitstreamVeraSans-Roman-2212"/>
       <use x="83.7890625" xlink:href="#BitstreamVeraSans-Roman-31"/>
       <use x="147.412109375" xlink:href="#BitstreamVeraSans-Roman-30"/>
      </g>
     </g>
    </g>
    <g id="ytick_6">
     <g id="line2d_25">
      <g>
       <use style="stroke:#000000;stroke-width:0.5;" x="93.38265625" xlink:href="#m6f62c44c98" y="374.547934028"/>
      </g>
     </g>
     <g id="line2d_26">
      <g>
       <use style="stroke:#000000;stroke-width:0.5;" x="1373.2425" xlink:href="#m385929a79a" y="374.547934028"/>
      </g>
     </g>
     <g id="text_13">
      <!-- −5 -->
      <g transform="translate(45.15609375 382.826059028)scale(0.3 -0.3)">
       <use xlink:href="#BitstreamVeraSans-Roman-2212"/>
       <use x="83.7890625" xlink:href="#BitstreamVeraSans-Roman-35"/>
      </g>
     </g>
    </g>
    <g id="ytick_7">
     <g id="line2d_27">
      <g>
       <use style="stroke:#000000;stroke-width:0.5;" x="93.38265625" xlink:href="#m6f62c44c98" y="295.389895833"/>
      </g>
     </g>
     <g id="line2d_28">
      <g>
       <use style="stroke:#000000;stroke-width:0.5;" x="1373.2425" xlink:href="#m385929a79a" y="295.389895833"/>
      </g>
     </g>
     <g id="text_14">
      <!-- 0 -->
      <g transform="translate(70.29515625 303.668020833)scale(0.3 -0.3)">
       <use xlink:href="#BitstreamVeraSans-Roman-30"/>
      </g>
     </g>
    </g>
    <g id="ytick_8">
     <g id="line2d_29">
      <g>
       <use style="stroke:#000000;stroke-width:0.5;" x="93.38265625" xlink:href="#m6f62c44c98" y="216.231857639"/>
      </g>
     </g>
     <g id="line2d_30">
      <g>
       <use style="stroke:#000000;stroke-width:0.5;" x="1373.2425" xlink:href="#m385929a79a" y="216.231857639"/>
      </g>
     </g>
     <g id="text_15">
      <!-- 5 -->
      <g transform="translate(70.29515625 224.509982639)scale(0.3 -0.3)">
       <use xlink:href="#BitstreamVeraSans-Roman-35"/>
      </g>
     </g>
    </g>
    <g id="ytick_9">
     <g id="line2d_31">
      <g>
       <use style="stroke:#000000;stroke-width:0.5;" x="93.38265625" xlink:href="#m6f62c44c98" y="137.073819444"/>
      </g>
     </g>
     <g id="line2d_32">
      <g>
       <use style="stroke:#000000;stroke-width:0.5;" x="1373.2425" xlink:href="#m385929a79a" y="137.073819444"/>
      </g>
     </g>
     <g id="text_16">
      <!-- 10 -->
      <g transform="translate(51.20765625 145.351944444)scale(0.3 -0.3)">
       <use xlink:href="#BitstreamVeraSans-Roman-31"/>
       <use x="63.623046875" xlink:href="#BitstreamVeraSans-Roman-30"/>
      </g>
     </g>
    </g>
    <g id="ytick_10">
     <g id="line2d_33">
      <g>
       <use style="stroke:#000000;stroke-width:0.5;" x="93.38265625" xlink:href="#m6f62c44c98" y="57.91578125"/>
      </g>
     </g>
     <g id="line2d_34">
      <g>
       <use style="stroke:#000000;stroke-width:0.5;" x="1373.2425" xlink:href="#m385929a79a" y="57.91578125"/>
      </g>
     </g>
     <g id="text_17">
      <!-- 15 -->
      <g transform="translate(51.20765625 66.19390625)scale(0.3 -0.3)">
       <use xlink:href="#BitstreamVeraSans-Roman-31"/>
       <use x="63.623046875" xlink:href="#BitstreamVeraSans-Roman-35"/>
      </g>
     </g>
    </g>
   </g>
   <g id="text_18">
    <!-- log(loss) -->
    <defs>
     <path d="M 8.015625 75.875 
L 15.828125 75.875 
Q 23.140625 64.359375 26.78125 53.3125 
Q 30.421875 42.28125 30.421875 31.390625 
Q 30.421875 20.453125 26.78125 9.375 
Q 23.140625 -1.703125 15.828125 -13.1875 
L 8.015625 -13.1875 
Q 14.5 -2 17.703125 9.0625 
Q 20.90625 20.125 20.90625 31.390625 
Q 20.90625 42.671875 17.703125 53.65625 
Q 14.5 64.65625 8.015625 75.875 
" id="BitstreamVeraSans-Roman-29"/>
     <path d="M 31 75.875 
Q 24.46875 64.65625 21.28125 53.65625 
Q 18.109375 42.671875 18.109375 31.390625 
Q 18.109375 20.125 21.3125 9.0625 
Q 24.515625 -2 31 -13.1875 
L 23.1875 -13.1875 
Q 15.875 -1.703125 12.234375 9.375 
Q 8.59375 20.453125 8.59375 31.390625 
Q 8.59375 42.28125 12.203125 53.3125 
Q 15.828125 64.359375 23.1875 75.875 
z
" id="BitstreamVeraSans-Roman-28"/>
     <path d="M 45.40625 27.984375 
Q 45.40625 37.75 41.375 43.109375 
Q 37.359375 48.484375 30.078125 48.484375 
Q 22.859375 48.484375 18.828125 43.109375 
Q 14.796875 37.75 14.796875 27.984375 
Q 14.796875 18.265625 18.828125 12.890625 
Q 22.859375 7.515625 30.078125 7.515625 
Q 37.359375 7.515625 41.375 12.890625 
Q 45.40625 18.265625 45.40625 27.984375 
M 54.390625 6.78125 
Q 54.390625 -7.171875 48.1875 -13.984375 
Q 42 -20.796875 29.203125 -20.796875 
Q 24.46875 -20.796875 20.265625 -20.09375 
Q 16.0625 -19.390625 12.109375 -17.921875 
L 12.109375 -9.1875 
Q 16.0625 -11.328125 19.921875 -12.34375 
Q 23.78125 -13.375 27.78125 -13.375 
Q 36.625 -13.375 41.015625 -8.765625 
Q 45.40625 -4.15625 45.40625 5.171875 
L 45.40625 9.625 
Q 42.625 4.78125 38.28125 2.390625 
Q 33.9375 0 27.875 0 
Q 17.828125 0 11.671875 7.65625 
Q 5.515625 15.328125 5.515625 27.984375 
Q 5.515625 40.671875 11.671875 48.328125 
Q 17.828125 56 27.875 56 
Q 33.9375 56 38.28125 53.609375 
Q 42.625 51.21875 45.40625 46.390625 
L 45.40625 54.6875 
L 54.390625 54.6875 
z
" id="BitstreamVeraSans-Roman-67"/>
     <path d="M 9.421875 75.984375 
L 18.40625 75.984375 
L 18.40625 0 
L 9.421875 0 
z
" id="BitstreamVeraSans-Roman-6c"/>
    </defs>
    <g transform="translate(669.766484375 52.91578125)scale(0.3 -0.3)">
     <use xlink:href="#BitstreamVeraSans-Roman-6c"/>
     <use x="27.783203125" xlink:href="#BitstreamVeraSans-Roman-6f"/>
     <use x="88.96484375" xlink:href="#BitstreamVeraSans-Roman-67"/>
     <use x="152.44140625" xlink:href="#BitstreamVeraSans-Roman-28"/>
     <use x="191.455078125" xlink:href="#BitstreamVeraSans-Roman-6c"/>
     <use x="219.23828125" xlink:href="#BitstreamVeraSans-Roman-6f"/>
     <use x="280.419921875" xlink:href="#BitstreamVeraSans-Roman-73"/>
     <use x="332.51953125" xlink:href="#BitstreamVeraSans-Roman-73"/>
     <use x="384.619140625" xlink:href="#BitstreamVeraSans-Roman-29"/>
    </g>
   </g>
   <g id="legend_1">
    <g id="patch_7">
     <path d="M 1133.889375 169.984531 
L 1358.2425 169.984531 
L 1358.2425 72.915781 
L 1133.889375 72.915781 
z
" style="fill:#ffffff;stroke:#000000;stroke-linejoin:miter;"/>
    </g>
    <g id="line2d_35">
     <path d="M 1154.889375 97.211094 
L 1196.889375 97.211094 
" style="fill:none;stroke:#0000ff;stroke-linecap:square;stroke-width:2.0;"/>
    </g>
    <g id="line2d_36"/>
    <g id="text_19">
     <!-- random -->
     <defs>
      <path d="M 45.40625 46.390625 
L 45.40625 75.984375 
L 54.390625 75.984375 
L 54.390625 0 
L 45.40625 0 
L 45.40625 8.203125 
Q 42.578125 3.328125 38.25 0.953125 
Q 33.9375 -1.421875 27.875 -1.421875 
Q 17.96875 -1.421875 11.734375 6.484375 
Q 5.515625 14.40625 5.515625 27.296875 
Q 5.515625 40.1875 11.734375 48.09375 
Q 17.96875 56 27.875 56 
Q 33.9375 56 38.25 53.625 
Q 42.578125 51.265625 45.40625 46.390625 
M 14.796875 27.296875 
Q 14.796875 17.390625 18.875 11.75 
Q 22.953125 6.109375 30.078125 6.109375 
Q 37.203125 6.109375 41.296875 11.75 
Q 45.40625 17.390625 45.40625 27.296875 
Q 45.40625 37.203125 41.296875 42.84375 
Q 37.203125 48.484375 30.078125 48.484375 
Q 22.953125 48.484375 18.875 42.84375 
Q 14.796875 37.203125 14.796875 27.296875 
" id="BitstreamVeraSans-Roman-64"/>
      <path d="M 52 44.1875 
Q 55.375 50.25 60.0625 53.125 
Q 64.75 56 71.09375 56 
Q 79.640625 56 84.28125 50.015625 
Q 88.921875 44.046875 88.921875 33.015625 
L 88.921875 0 
L 79.890625 0 
L 79.890625 32.71875 
Q 79.890625 40.578125 77.09375 44.375 
Q 74.3125 48.1875 68.609375 48.1875 
Q 61.625 48.1875 57.5625 43.546875 
Q 53.515625 38.921875 53.515625 30.90625 
L 53.515625 0 
L 44.484375 0 
L 44.484375 32.71875 
Q 44.484375 40.625 41.703125 44.40625 
Q 38.921875 48.1875 33.109375 48.1875 
Q 26.21875 48.1875 22.15625 43.53125 
Q 18.109375 38.875 18.109375 30.90625 
L 18.109375 0 
L 9.078125 0 
L 9.078125 54.6875 
L 18.109375 54.6875 
L 18.109375 46.1875 
Q 21.1875 51.21875 25.484375 53.609375 
Q 29.78125 56 35.6875 56 
Q 41.65625 56 45.828125 52.96875 
Q 50 49.953125 52 44.1875 
" id="BitstreamVeraSans-Roman-6d"/>
     </defs>
     <g transform="translate(1229.889375 107.71109375)scale(0.3 -0.3)">
      <use xlink:href="#BitstreamVeraSans-Roman-72"/>
      <use x="41.11328125" xlink:href="#BitstreamVeraSans-Roman-61"/>
      <use x="102.392578125" xlink:href="#BitstreamVeraSans-Roman-6e"/>
      <use x="165.771484375" xlink:href="#BitstreamVeraSans-Roman-64"/>
      <use x="229.248046875" xlink:href="#BitstreamVeraSans-Roman-6f"/>
      <use x="290.4296875" xlink:href="#BitstreamVeraSans-Roman-6d"/>
     </g>
    </g>
    <g id="line2d_37">
     <path d="M 1154.889375 141.245469 
L 1196.889375 141.245469 
" style="fill:none;stroke:#008000;stroke-linecap:square;stroke-width:2.0;"/>
    </g>
    <g id="line2d_38"/>
    <g id="text_20">
     <!-- corr -->
     <defs>
      <path d="M 48.78125 52.59375 
L 48.78125 44.1875 
Q 44.96875 46.296875 41.140625 47.34375 
Q 37.3125 48.390625 33.40625 48.390625 
Q 24.65625 48.390625 19.8125 42.84375 
Q 14.984375 37.3125 14.984375 27.296875 
Q 14.984375 17.28125 19.8125 11.734375 
Q 24.65625 6.203125 33.40625 6.203125 
Q 37.3125 6.203125 41.140625 7.25 
Q 44.96875 8.296875 48.78125 10.40625 
L 48.78125 2.09375 
Q 45.015625 0.34375 40.984375 -0.53125 
Q 36.96875 -1.421875 32.421875 -1.421875 
Q 20.0625 -1.421875 12.78125 6.34375 
Q 5.515625 14.109375 5.515625 27.296875 
Q 5.515625 40.671875 12.859375 48.328125 
Q 20.21875 56 33.015625 56 
Q 37.15625 56 41.109375 55.140625 
Q 45.0625 54.296875 48.78125 52.59375 
" id="BitstreamVeraSans-Roman-63"/>
     </defs>
     <g transform="translate(1229.889375 151.74546875)scale(0.3 -0.3)">
      <use xlink:href="#BitstreamVeraSans-Roman-63"/>
      <use x="54.98046875" xlink:href="#BitstreamVeraSans-Roman-6f"/>
      <use x="116.162109375" xlink:href="#BitstreamVeraSans-Roman-72"/>
      <use x="157.259765625" xlink:href="#BitstreamVeraSans-Roman-72"/>
     </g>
    </g>
   </g>
  </g>
 </g>
 <defs>
  <clipPath id="pcb790f45e4">
   <rect height="712.42234375" width="1279.85984375" x="93.38265625" y="57.91578125"/>
  </clipPath>
 </defs>
</svg>
