<?xml version="1.0" encoding="utf-8" standalone="no"?>
<!DOCTYPE svg PUBLIC "-//W3C//DTD SVG 1.1//EN"
  "http://www.w3.org/Graphics/SVG/1.1/DTD/svg11.dtd">
<!-- Created with matplotlib (http://matplotlib.org/) -->
<svg height="864pt" version="1.1" viewBox="0 0 1440 864" width="1440pt" xmlns="http://www.w3.org/2000/svg" xmlns:xlink="http://www.w3.org/1999/xlink">
 <defs>
  <style type="text/css">
*{stroke-linecap:butt;stroke-linejoin:round;stroke-miterlimit:100000;}
  </style>
 </defs>
 <g id="figure_1">
  <g id="patch_1">
   <path d="M 0 864 
L 1440 864 
L 1440 0 
L 0 0 
z
" style="fill:#ffffff;"/>
  </g>
  <g id="axes_1">
   <g id="patch_2">
    <path d="M 93.382656 770.338125 
L 1381.831875 770.338125 
L 1381.831875 57.915781 
L 93.382656 57.915781 
z
" style="fill:#ffffff;"/>
   </g>
   <g id="line2d_1">
    <path clip-path="url(#p3eb26a2dab)" d="M 93.382656 140.253091 
L 99.824902 151.509557 
L 106.267148 161.147575 
L 112.709395 170.393722 
L 119.151641 180.470942 
L 125.593887 188.652154 
L 144.920625 217.658135 
L 151.362871 226.187913 
L 157.805117 236.886031 
L 164.247363 246.586592 
L 170.689609 256.075501 
L 177.131855 266.444927 
L 183.574102 275.909269 
L 190.016348 285.030683 
L 196.458594 294.924593 
L 202.90084 306.157436 
L 209.343086 314.701215 
L 215.785332 324.96367 
L 222.227578 336.143523 
L 228.669824 345.259097 
L 235.11207 352.864876 
L 241.554316 359.413462 
L 247.996563 370.661527 
L 254.438809 381.665439 
L 260.881055 390.17744 
L 267.323301 401.039629 
L 273.765547 410.317561 
L 280.207793 420.416897 
L 286.650039 433.689982 
L 293.092285 443.268317 
L 299.534531 454.817115 
L 305.976777 455.874189 
L 312.419023 467.037622 
L 318.86127 475.682713 
L 325.303516 486.684196 
L 331.745762 494.416762 
L 338.188008 503.949631 
L 344.630254 512.930135 
L 351.0725 522.793712 
L 357.514746 531.162182 
L 363.956992 539.897817 
L 370.399238 549.174437 
L 383.28373 564.126682 
L 389.725977 576.356252 
L 402.610469 597.643882 
L 409.052715 606.774202 
L 415.494961 617.27167 
L 421.937207 627.448839 
L 428.379453 637.117633 
L 434.821699 646.228188 
L 441.263945 657.911219 
L 447.706191 665.865164 
L 454.148438 674.543002 
L 460.590684 685.577279 
L 467.03293 696.040215 
L 473.475176 705.679296 
L 479.917422 716.927484 
L 486.359668 726.257461 
L 492.801914 734.358939 
L 499.24416 741.462478 
L 505.686406 745.75247 
L 512.128652 747.473739 
L 518.570898 749.828112 
L 525.013145 750.702117 
L 531.455391 748.803602 
L 537.897637 750.786413 
L 544.339883 748.778954 
L 550.782129 750.52659 
L 557.224375 752.478478 
L 563.666621 753.161084 
L 570.108867 749.771057 
L 576.551113 751.865045 
L 582.993359 751.175511 
L 589.435605 750.774561 
L 595.877852 752.543408 
L 602.320098 752.355487 
L 608.762344 753.925773 
L 615.20459 752.489797 
L 621.646836 750.928003 
L 628.089082 750.991759 
L 634.531328 749.045869 
L 640.973574 749.228603 
L 647.41582 750.959828 
L 653.858066 748.113053 
L 660.300313 749.83012 
L 666.742559 748.816995 
L 673.184805 750.801446 
L 679.627051 749.526201 
L 686.069297 749.529558 
L 692.511543 751.185975 
L 698.953789 753.158125 
L 705.396035 752.062193 
L 711.838281 751.565481 
L 718.280527 751.911816 
L 724.722773 750.433537 
L 737.607266 748.596967 
L 744.049512 750.50946 
L 750.491758 749.234519 
L 756.934004 750.296722 
L 763.37625 752.271501 
L 769.818496 750.656911 
L 776.260742 750.779649 
L 782.702988 751.455976 
L 789.145234 751.815675 
L 795.58748 752.484871 
L 802.029727 754.357893 
L 808.471973 752.432471 
L 814.914219 751.338821 
L 821.356465 752.246425 
L 827.798711 751.047665 
L 834.240957 752.595042 
L 840.683203 751.819738 
L 847.125449 749.974961 
L 853.567695 752.366596 
L 860.009941 751.372501 
L 866.452188 749.942494 
L 872.894434 751.32841 
L 879.33668 749.573295 
L 885.778926 749.230579 
L 892.221172 749.466352 
L 898.663418 751.255653 
L 905.105664 750.4757 
L 911.54791 752.155467 
L 917.990156 752.396976 
L 924.432402 752.891455 
L 930.874648 750.126682 
L 943.759141 752.243469 
L 950.201387 752.396958 
L 963.085879 753.422401 
L 969.528125 752.482839 
L 975.970371 751.93228 
L 982.412617 749.9559 
L 988.854863 751.399404 
L 995.297109 753.926227 
L 1001.739355 751.760371 
L 1008.181602 751.224493 
L 1021.066094 752.142135 
L 1027.50834 752.3551 
L 1033.950586 753.545184 
L 1040.392832 752.376492 
L 1046.835078 749.018738 
L 1053.277324 749.737535 
L 1059.71957 748.180276 
L 1066.161816 749.929109 
L 1072.604063 751.320053 
L 1079.046309 750.999459 
L 1085.488555 751.558466 
L 1091.930801 751.011337 
L 1098.373047 749.748682 
L 1104.815293 752.297094 
L 1111.257539 750.032049 
L 1117.699785 749.894417 
L 1124.142031 751.378266 
L 1130.584277 751.918089 
L 1137.026523 750.018594 
L 1143.46877 750.647482 
L 1149.911016 749.26632 
L 1156.353262 752.177397 
L 1162.795508 750.464052 
L 1169.237754 748.566409 
L 1175.68 750.058172 
L 1182.122246 750.550415 
L 1188.564492 748.943973 
L 1195.006738 749.253545 
L 1201.448984 751.43424 
L 1207.89123 750.478528 
L 1214.333477 752.091844 
L 1220.775723 751.013692 
L 1227.217969 750.558015 
L 1233.660215 750.425445 
L 1240.102461 750.629055 
L 1246.544707 750.153286 
L 1252.986953 752.29175 
L 1259.429199 751.639515 
L 1265.871445 752.150472 
L 1272.313691 751.575373 
L 1278.755938 752.220797 
L 1285.198184 753.674664 
L 1291.64043 752.926 
L 1298.082676 753.393553 
L 1304.524922 753.34421 
L 1310.967168 752.142686 
L 1317.409414 752.196626 
L 1323.85166 749.738655 
L 1330.293906 751.987938 
L 1336.736152 752.005245 
L 1343.178398 751.381839 
L 1356.062891 753.471917 
L 1362.505137 750.8541 
L 1368.947383 750.723488 
L 1375.389629 750.820145 
L 1375.389629 750.820145 
" style="fill:none;stroke:#0000ff;stroke-linecap:square;stroke-width:2.0;"/>
   </g>
   <g id="line2d_2">
    <path clip-path="url(#p3eb26a2dab)" d="M 93.382656 139.851284 
L 99.824902 148.763668 
L 106.267148 156.581156 
L 112.709395 167.142084 
L 119.151641 176.291807 
L 125.593887 186.278144 
L 132.036133 197.010649 
L 138.478379 206.178681 
L 144.920625 215.912803 
L 151.362871 227.52235 
L 157.805117 238.108528 
L 164.247363 247.783072 
L 170.689609 258.687062 
L 177.131855 270.309244 
L 183.574102 278.728538 
L 190.016348 291.60633 
L 196.458594 301.036799 
L 209.343086 321.913466 
L 215.785332 330.837045 
L 222.227578 338.463874 
L 228.669824 348.434075 
L 235.11207 356.44466 
L 247.996563 376.622977 
L 254.438809 388.024078 
L 260.881055 398.682722 
L 267.323301 408.538728 
L 273.765547 415.629319 
L 280.207793 422.35762 
L 286.650039 431.88047 
L 293.092285 442.460994 
L 299.534531 451.9566 
L 305.976777 462.706279 
L 312.419023 472.194748 
L 318.86127 481.412203 
L 325.303516 491.04739 
L 338.188008 508.961331 
L 344.630254 517.147137 
L 351.0725 524.142656 
L 357.514746 533.048223 
L 363.956992 543.193602 
L 370.399238 553.104061 
L 376.841484 561.877255 
L 383.28373 569.755043 
L 389.725977 579.234313 
L 396.168223 587.741592 
L 402.610469 597.227714 
L 409.052715 607.651668 
L 415.494961 616.169339 
L 428.379453 632.621542 
L 434.821699 641.267191 
L 441.263945 651.677404 
L 447.706191 661.661517 
L 454.148438 672.585356 
L 460.590684 682.732964 
L 467.03293 692.310504 
L 473.475176 703.592565 
L 486.359668 720.995671 
L 492.801914 730.943492 
L 499.24416 738.633616 
L 505.686406 745.558536 
L 512.128652 748.225406 
L 525.013145 751.946337 
L 531.455391 751.82215 
L 537.897637 752.30297 
L 544.339883 751.33531 
L 550.782129 752.169797 
L 557.224375 753.767991 
L 563.666621 751.843087 
L 570.108867 751.071784 
L 576.551113 751.575467 
L 582.993359 750.770451 
L 589.435605 751.776274 
L 595.877852 753.028605 
L 602.320098 750.800773 
L 608.762344 750.016256 
L 615.20459 750.816412 
L 621.646836 752.423999 
L 628.089082 751.94039 
L 634.531328 753.320437 
L 640.973574 751.047249 
L 647.41582 751.15672 
L 653.858066 751.675908 
L 660.300313 751.192362 
L 666.742559 750.877936 
L 673.184805 751.876082 
L 679.627051 750.246168 
L 686.069297 752.775048 
L 692.511543 749.678934 
L 698.953789 750.603254 
L 705.396035 751.880243 
L 711.838281 750.371437 
L 718.280527 749.808948 
L 724.722773 750.26683 
L 737.607266 753.233 
L 744.049512 751.228873 
L 750.491758 748.761117 
L 756.934004 751.187093 
L 769.818496 752.196243 
L 776.260742 753.112248 
L 782.702988 750.628379 
L 789.145234 751.464001 
L 795.58748 753.543883 
L 802.029727 752.36723 
L 808.471973 751.000684 
L 814.914219 750.526663 
L 821.356465 751.877599 
L 827.798711 750.829999 
L 834.240957 748.495493 
L 840.683203 749.754436 
L 847.125449 750.248093 
L 853.567695 749.389312 
L 860.009941 750.927258 
L 866.452188 752.838772 
L 872.894434 751.731909 
L 879.33668 752.603485 
L 885.778926 751.581496 
L 892.221172 750.76241 
L 898.663418 750.166876 
L 905.105664 750.969621 
L 911.54791 749.503441 
L 917.990156 750.815198 
L 924.432402 752.290852 
L 930.874648 754.561226 
L 937.316895 753.660584 
L 950.201387 750.23473 
L 956.643633 750.499191 
L 963.085879 752.655635 
L 969.528125 752.772751 
L 975.970371 751.297957 
L 982.412617 751.822095 
L 988.854863 753.213294 
L 995.297109 751.346695 
L 1001.739355 749.768812 
L 1008.181602 749.906555 
L 1014.623848 751.112861 
L 1021.066094 751.940476 
L 1027.50834 753.254259 
L 1033.950586 752.83453 
L 1040.392832 751.373292 
L 1046.835078 752.166479 
L 1053.277324 750.200486 
L 1059.71957 751.17127 
L 1066.161816 751.271114 
L 1072.604063 750.361194 
L 1079.046309 751.346109 
L 1085.488555 751.913346 
L 1091.930801 751.356606 
L 1098.373047 751.546178 
L 1104.815293 752.452324 
L 1111.257539 751.284585 
L 1117.699785 751.099089 
L 1124.142031 750.563771 
L 1137.026523 750.479619 
L 1143.46877 752.845232 
L 1149.911016 752.752376 
L 1156.353262 750.548808 
L 1162.795508 749.756382 
L 1169.237754 748.725466 
L 1175.68 749.80772 
L 1182.122246 753.470819 
L 1188.564492 752.676356 
L 1195.006738 752.99772 
L 1207.89123 751.365926 
L 1214.333477 751.432039 
L 1220.775723 753.234214 
L 1227.217969 752.442212 
L 1233.660215 750.826549 
L 1240.102461 750.442381 
L 1246.544707 751.783808 
L 1252.986953 749.771327 
L 1259.429199 749.722637 
L 1265.871445 748.990231 
L 1272.313691 751.022052 
L 1278.755938 750.342003 
L 1285.198184 750.659794 
L 1291.64043 752.602258 
L 1298.082676 752.827206 
L 1304.524922 751.486495 
L 1310.967168 750.70169 
L 1317.409414 752.923038 
L 1323.85166 749.709838 
L 1330.293906 749.524854 
L 1336.736152 750.411192 
L 1343.178398 752.033528 
L 1349.620645 750.723835 
L 1356.062891 751.12978 
L 1362.505137 752.781551 
L 1368.947383 752.767811 
L 1375.389629 753.236105 
L 1375.389629 753.236105 
" style="fill:none;stroke:#008000;stroke-linecap:square;stroke-width:2.0;"/>
   </g>
   <g id="patch_3">
    <path d="M 93.382656 57.915781 
L 1381.831875 57.915781 
" style="fill:none;stroke:#000000;stroke-linecap:square;stroke-linejoin:miter;"/>
   </g>
   <g id="patch_4">
    <path d="M 1381.831875 770.338125 
L 1381.831875 57.915781 
" style="fill:none;stroke:#000000;stroke-linecap:square;stroke-linejoin:miter;"/>
   </g>
   <g id="patch_5">
    <path d="M 93.382656 770.338125 
L 1381.831875 770.338125 
" style="fill:none;stroke:#000000;stroke-linecap:square;stroke-linejoin:miter;"/>
   </g>
   <g id="patch_6">
    <path d="M 93.382656 770.338125 
L 93.382656 57.915781 
" style="fill:none;stroke:#000000;stroke-linecap:square;stroke-linejoin:miter;"/>
   </g>
   <g id="matplotlib.axis_1">
    <g id="xtick_1">
     <g id="line2d_3">
      <defs>
       <path d="M 0 0 
L 0 -4 
" id="m6b8d9a9d73" style="stroke:#000000;stroke-width:0.5;"/>
      </defs>
      <g>
       <use style="stroke:#000000;stroke-width:0.5;" x="93.38265625" xlink:href="#m6b8d9a9d73" y="770.338125"/>
      </g>
     </g>
     <g id="line2d_4">
      <defs>
       <path d="M 0 0 
L 0 4 
" id="mbfcaa70426" style="stroke:#000000;stroke-width:0.5;"/>
      </defs>
      <g>
       <use style="stroke:#000000;stroke-width:0.5;" x="93.38265625" xlink:href="#mbfcaa70426" y="57.91578125"/>
      </g>
     </g>
     <g id="text_1">
      <!-- 0 -->
      <defs>
       <path d="M 31.78125 66.40625 
Q 24.171875 66.40625 20.328125 58.90625 
Q 16.5 51.421875 16.5 36.375 
Q 16.5 21.390625 20.328125 13.890625 
Q 24.171875 6.390625 31.78125 6.390625 
Q 39.453125 6.390625 43.28125 13.890625 
Q 47.125 21.390625 47.125 36.375 
Q 47.125 51.421875 43.28125 58.90625 
Q 39.453125 66.40625 31.78125 66.40625 
M 31.78125 74.21875 
Q 44.046875 74.21875 50.515625 64.515625 
Q 56.984375 54.828125 56.984375 36.375 
Q 56.984375 17.96875 50.515625 8.265625 
Q 44.046875 -1.421875 31.78125 -1.421875 
Q 19.53125 -1.421875 13.0625 8.265625 
Q 6.59375 17.96875 6.59375 36.375 
Q 6.59375 54.828125 13.0625 64.515625 
Q 19.53125 74.21875 31.78125 74.21875 
" id="BitstreamVeraSans-Roman-30"/>
      </defs>
      <g transform="translate(83.83890625 797.1334375)scale(0.3 -0.3)">
       <use xlink:href="#BitstreamVeraSans-Roman-30"/>
      </g>
     </g>
    </g>
    <g id="xtick_2">
     <g id="line2d_5">
      <g>
       <use style="stroke:#000000;stroke-width:0.5;" x="415.494960938" xlink:href="#m6b8d9a9d73" y="770.338125"/>
      </g>
     </g>
     <g id="line2d_6">
      <g>
       <use style="stroke:#000000;stroke-width:0.5;" x="415.494960938" xlink:href="#mbfcaa70426" y="57.91578125"/>
      </g>
     </g>
     <g id="text_2">
      <!-- 50 -->
      <defs>
       <path d="M 10.796875 72.90625 
L 49.515625 72.90625 
L 49.515625 64.59375 
L 19.828125 64.59375 
L 19.828125 46.734375 
Q 21.96875 47.46875 24.109375 47.828125 
Q 26.265625 48.1875 28.421875 48.1875 
Q 40.625 48.1875 47.75 41.5 
Q 54.890625 34.8125 54.890625 23.390625 
Q 54.890625 11.625 47.5625 5.09375 
Q 40.234375 -1.421875 26.90625 -1.421875 
Q 22.3125 -1.421875 17.546875 -0.640625 
Q 12.796875 0.140625 7.71875 1.703125 
L 7.71875 11.625 
Q 12.109375 9.234375 16.796875 8.0625 
Q 21.484375 6.890625 26.703125 6.890625 
Q 35.15625 6.890625 40.078125 11.328125 
Q 45.015625 15.765625 45.015625 23.390625 
Q 45.015625 31 40.078125 35.4375 
Q 35.15625 39.890625 26.703125 39.890625 
Q 22.75 39.890625 18.8125 39.015625 
Q 14.890625 38.140625 10.796875 36.28125 
z
" id="BitstreamVeraSans-Roman-35"/>
      </defs>
      <g transform="translate(396.407460938 797.1334375)scale(0.3 -0.3)">
       <use xlink:href="#BitstreamVeraSans-Roman-35"/>
       <use x="63.623046875" xlink:href="#BitstreamVeraSans-Roman-30"/>
      </g>
     </g>
    </g>
    <g id="xtick_3">
     <g id="line2d_7">
      <g>
       <use style="stroke:#000000;stroke-width:0.5;" x="737.607265625" xlink:href="#m6b8d9a9d73" y="770.338125"/>
      </g>
     </g>
     <g id="line2d_8">
      <g>
       <use style="stroke:#000000;stroke-width:0.5;" x="737.607265625" xlink:href="#mbfcaa70426" y="57.91578125"/>
      </g>
     </g>
     <g id="text_3">
      <!-- 100 -->
      <defs>
       <path d="M 12.40625 8.296875 
L 28.515625 8.296875 
L 28.515625 63.921875 
L 10.984375 60.40625 
L 10.984375 69.390625 
L 28.421875 72.90625 
L 38.28125 72.90625 
L 38.28125 8.296875 
L 54.390625 8.296875 
L 54.390625 0 
L 12.40625 0 
z
" id="BitstreamVeraSans-Roman-31"/>
      </defs>
      <g transform="translate(708.976015625 797.1334375)scale(0.3 -0.3)">
       <use xlink:href="#BitstreamVeraSans-Roman-31"/>
       <use x="63.623046875" xlink:href="#BitstreamVeraSans-Roman-30"/>
       <use x="127.24609375" xlink:href="#BitstreamVeraSans-Roman-30"/>
      </g>
     </g>
    </g>
    <g id="xtick_4">
     <g id="line2d_9">
      <g>
       <use style="stroke:#000000;stroke-width:0.5;" x="1059.71957031" xlink:href="#m6b8d9a9d73" y="770.338125"/>
      </g>
     </g>
     <g id="line2d_10">
      <g>
       <use style="stroke:#000000;stroke-width:0.5;" x="1059.71957031" xlink:href="#mbfcaa70426" y="57.91578125"/>
      </g>
     </g>
     <g id="text_4">
      <!-- 150 -->
      <g transform="translate(1031.08832031 797.1334375)scale(0.3 -0.3)">
       <use xlink:href="#BitstreamVeraSans-Roman-31"/>
       <use x="63.623046875" xlink:href="#BitstreamVeraSans-Roman-35"/>
       <use x="127.24609375" xlink:href="#BitstreamVeraSans-Roman-30"/>
      </g>
     </g>
    </g>
    <g id="xtick_5">
     <g id="line2d_11">
      <g>
       <use style="stroke:#000000;stroke-width:0.5;" x="1381.831875" xlink:href="#m6b8d9a9d73" y="770.338125"/>
      </g>
     </g>
     <g id="line2d_12">
      <g>
       <use style="stroke:#000000;stroke-width:0.5;" x="1381.831875" xlink:href="#mbfcaa70426" y="57.91578125"/>
      </g>
     </g>
     <g id="text_5">
      <!-- 200 -->
      <defs>
       <path d="M 19.1875 8.296875 
L 53.609375 8.296875 
L 53.609375 0 
L 7.328125 0 
L 7.328125 8.296875 
Q 12.9375 14.109375 22.625 23.890625 
Q 32.328125 33.6875 34.8125 36.53125 
Q 39.546875 41.84375 41.421875 45.53125 
Q 43.3125 49.21875 43.3125 52.78125 
Q 43.3125 58.59375 39.234375 62.25 
Q 35.15625 65.921875 28.609375 65.921875 
Q 23.96875 65.921875 18.8125 64.3125 
Q 13.671875 62.703125 7.8125 59.421875 
L 7.8125 69.390625 
Q 13.765625 71.78125 18.9375 73 
Q 24.125 74.21875 28.421875 74.21875 
Q 39.75 74.21875 46.484375 68.546875 
Q 53.21875 62.890625 53.21875 53.421875 
Q 53.21875 48.921875 51.53125 44.890625 
Q 49.859375 40.875 45.40625 35.40625 
Q 44.1875 33.984375 37.640625 27.21875 
Q 31.109375 20.453125 19.1875 8.296875 
" id="BitstreamVeraSans-Roman-32"/>
      </defs>
      <g transform="translate(1353.200625 797.1334375)scale(0.3 -0.3)">
       <use xlink:href="#BitstreamVeraSans-Roman-32"/>
       <use x="63.623046875" xlink:href="#BitstreamVeraSans-Roman-30"/>
       <use x="127.24609375" xlink:href="#BitstreamVeraSans-Roman-30"/>
      </g>
     </g>
    </g>
    <g id="text_6">
     <!-- iterations -->
     <defs>
      <path d="M 54.890625 33.015625 
L 54.890625 0 
L 45.90625 0 
L 45.90625 32.71875 
Q 45.90625 40.484375 42.875 44.328125 
Q 39.84375 48.1875 33.796875 48.1875 
Q 26.515625 48.1875 22.3125 43.546875 
Q 18.109375 38.921875 18.109375 30.90625 
L 18.109375 0 
L 9.078125 0 
L 9.078125 54.6875 
L 18.109375 54.6875 
L 18.109375 46.1875 
Q 21.34375 51.125 25.703125 53.5625 
Q 30.078125 56 35.796875 56 
Q 45.21875 56 50.046875 50.171875 
Q 54.890625 44.34375 54.890625 33.015625 
" id="BitstreamVeraSans-Roman-6e"/>
      <path d="M 34.28125 27.484375 
Q 23.390625 27.484375 19.1875 25 
Q 14.984375 22.515625 14.984375 16.5 
Q 14.984375 11.71875 18.140625 8.90625 
Q 21.296875 6.109375 26.703125 6.109375 
Q 34.1875 6.109375 38.703125 11.40625 
Q 43.21875 16.703125 43.21875 25.484375 
L 43.21875 27.484375 
z
M 52.203125 31.203125 
L 52.203125 0 
L 43.21875 0 
L 43.21875 8.296875 
Q 40.140625 3.328125 35.546875 0.953125 
Q 30.953125 -1.421875 24.3125 -1.421875 
Q 15.921875 -1.421875 10.953125 3.296875 
Q 6 8.015625 6 15.921875 
Q 6 25.140625 12.171875 29.828125 
Q 18.359375 34.515625 30.609375 34.515625 
L 43.21875 34.515625 
L 43.21875 35.40625 
Q 43.21875 41.609375 39.140625 45 
Q 35.0625 48.390625 27.6875 48.390625 
Q 23 48.390625 18.546875 47.265625 
Q 14.109375 46.140625 10.015625 43.890625 
L 10.015625 52.203125 
Q 14.9375 54.109375 19.578125 55.046875 
Q 24.21875 56 28.609375 56 
Q 40.484375 56 46.34375 49.84375 
Q 52.203125 43.703125 52.203125 31.203125 
" id="BitstreamVeraSans-Roman-61"/>
      <path d="M 30.609375 48.390625 
Q 23.390625 48.390625 19.1875 42.75 
Q 14.984375 37.109375 14.984375 27.296875 
Q 14.984375 17.484375 19.15625 11.84375 
Q 23.34375 6.203125 30.609375 6.203125 
Q 37.796875 6.203125 41.984375 11.859375 
Q 46.1875 17.53125 46.1875 27.296875 
Q 46.1875 37.015625 41.984375 42.703125 
Q 37.796875 48.390625 30.609375 48.390625 
M 30.609375 56 
Q 42.328125 56 49.015625 48.375 
Q 55.71875 40.765625 55.71875 27.296875 
Q 55.71875 13.875 49.015625 6.21875 
Q 42.328125 -1.421875 30.609375 -1.421875 
Q 18.84375 -1.421875 12.171875 6.21875 
Q 5.515625 13.875 5.515625 27.296875 
Q 5.515625 40.765625 12.171875 48.375 
Q 18.84375 56 30.609375 56 
" id="BitstreamVeraSans-Roman-6f"/>
      <path d="M 9.421875 54.6875 
L 18.40625 54.6875 
L 18.40625 0 
L 9.421875 0 
z
M 9.421875 75.984375 
L 18.40625 75.984375 
L 18.40625 64.59375 
L 9.421875 64.59375 
z
" id="BitstreamVeraSans-Roman-69"/>
      <path d="M 56.203125 29.59375 
L 56.203125 25.203125 
L 14.890625 25.203125 
Q 15.484375 15.921875 20.484375 11.0625 
Q 25.484375 6.203125 34.421875 6.203125 
Q 39.59375 6.203125 44.453125 7.46875 
Q 49.3125 8.734375 54.109375 11.28125 
L 54.109375 2.78125 
Q 49.265625 0.734375 44.1875 -0.34375 
Q 39.109375 -1.421875 33.890625 -1.421875 
Q 20.796875 -1.421875 13.15625 6.1875 
Q 5.515625 13.8125 5.515625 26.8125 
Q 5.515625 40.234375 12.765625 48.109375 
Q 20.015625 56 32.328125 56 
Q 43.359375 56 49.78125 48.890625 
Q 56.203125 41.796875 56.203125 29.59375 
M 47.21875 32.234375 
Q 47.125 39.59375 43.09375 43.984375 
Q 39.0625 48.390625 32.421875 48.390625 
Q 24.90625 48.390625 20.390625 44.140625 
Q 15.875 39.890625 15.1875 32.171875 
z
" id="BitstreamVeraSans-Roman-65"/>
      <path d="M 18.3125 70.21875 
L 18.3125 54.6875 
L 36.8125 54.6875 
L 36.8125 47.703125 
L 18.3125 47.703125 
L 18.3125 18.015625 
Q 18.3125 11.328125 20.140625 9.421875 
Q 21.96875 7.515625 27.59375 7.515625 
L 36.8125 7.515625 
L 36.8125 0 
L 27.59375 0 
Q 17.1875 0 13.234375 3.875 
Q 9.28125 7.765625 9.28125 18.015625 
L 9.28125 47.703125 
L 2.6875 47.703125 
L 2.6875 54.6875 
L 9.28125 54.6875 
L 9.28125 70.21875 
z
" id="BitstreamVeraSans-Roman-74"/>
      <path d="M 41.109375 46.296875 
Q 39.59375 47.171875 37.8125 47.578125 
Q 36.03125 48 33.890625 48 
Q 26.265625 48 22.1875 43.046875 
Q 18.109375 38.09375 18.109375 28.8125 
L 18.109375 0 
L 9.078125 0 
L 9.078125 54.6875 
L 18.109375 54.6875 
L 18.109375 46.1875 
Q 20.953125 51.171875 25.484375 53.578125 
Q 30.03125 56 36.53125 56 
Q 37.453125 56 38.578125 55.875 
Q 39.703125 55.765625 41.0625 55.515625 
z
" id="BitstreamVeraSans-Roman-72"/>
      <path d="M 44.28125 53.078125 
L 44.28125 44.578125 
Q 40.484375 46.53125 36.375 47.5 
Q 32.28125 48.484375 27.875 48.484375 
Q 21.1875 48.484375 17.84375 46.4375 
Q 14.5 44.390625 14.5 40.28125 
Q 14.5 37.15625 16.890625 35.375 
Q 19.28125 33.59375 26.515625 31.984375 
L 29.59375 31.296875 
Q 39.15625 29.25 43.1875 25.515625 
Q 47.21875 21.78125 47.21875 15.09375 
Q 47.21875 7.46875 41.1875 3.015625 
Q 35.15625 -1.421875 24.609375 -1.421875 
Q 20.21875 -1.421875 15.453125 -0.5625 
Q 10.6875 0.296875 5.421875 2 
L 5.421875 11.28125 
Q 10.40625 8.6875 15.234375 7.390625 
Q 20.0625 6.109375 24.8125 6.109375 
Q 31.15625 6.109375 34.5625 8.28125 
Q 37.984375 10.453125 37.984375 14.40625 
Q 37.984375 18.0625 35.515625 20.015625 
Q 33.0625 21.96875 24.703125 23.78125 
L 21.578125 24.515625 
Q 13.234375 26.265625 9.515625 29.90625 
Q 5.8125 33.546875 5.8125 39.890625 
Q 5.8125 47.609375 11.28125 51.796875 
Q 16.75 56 26.8125 56 
Q 31.78125 56 36.171875 55.265625 
Q 40.578125 54.546875 44.28125 53.078125 
" id="BitstreamVeraSans-Roman-73"/>
     </defs>
     <g transform="translate(666.425234375 831.1678125)scale(0.3 -0.3)">
      <use xlink:href="#BitstreamVeraSans-Roman-69"/>
      <use x="27.783203125" xlink:href="#BitstreamVeraSans-Roman-74"/>
      <use x="66.9921875" xlink:href="#BitstreamVeraSans-Roman-65"/>
      <use x="128.515625" xlink:href="#BitstreamVeraSans-Roman-72"/>
      <use x="169.62890625" xlink:href="#BitstreamVeraSans-Roman-61"/>
      <use x="230.908203125" xlink:href="#BitstreamVeraSans-Roman-74"/>
      <use x="270.1171875" xlink:href="#BitstreamVeraSans-Roman-69"/>
      <use x="297.900390625" xlink:href="#BitstreamVeraSans-Roman-6f"/>
      <use x="359.08203125" xlink:href="#BitstreamVeraSans-Roman-6e"/>
      <use x="422.4609375" xlink:href="#BitstreamVeraSans-Roman-73"/>
     </g>
    </g>
   </g>
   <g id="matplotlib.axis_2">
    <g id="ytick_1">
     <g id="line2d_13">
      <defs>
       <path d="M 0 0 
L 4 0 
" id="me7b8dc39e0" style="stroke:#000000;stroke-width:0.5;"/>
      </defs>
      <g>
       <use style="stroke:#000000;stroke-width:0.5;" x="93.38265625" xlink:href="#me7b8dc39e0" y="770.338125"/>
      </g>
     </g>
     <g id="line2d_14">
      <defs>
       <path d="M 0 0 
L -4 0 
" id="mc85893d13d" style="stroke:#000000;stroke-width:0.5;"/>
      </defs>
      <g>
       <use style="stroke:#000000;stroke-width:0.5;" x="1381.831875" xlink:href="#mc85893d13d" y="770.338125"/>
      </g>
     </g>
     <g id="text_7">
      <!-- −60 -->
      <defs>
       <path d="M 10.59375 35.5 
L 73.1875 35.5 
L 73.1875 27.203125 
L 10.59375 27.203125 
z
" id="BitstreamVeraSans-Roman-2212"/>
       <path d="M 33.015625 40.375 
Q 26.375 40.375 22.484375 35.828125 
Q 18.609375 31.296875 18.609375 23.390625 
Q 18.609375 15.53125 22.484375 10.953125 
Q 26.375 6.390625 33.015625 6.390625 
Q 39.65625 6.390625 43.53125 10.953125 
Q 47.40625 15.53125 47.40625 23.390625 
Q 47.40625 31.296875 43.53125 35.828125 
Q 39.65625 40.375 33.015625 40.375 
M 52.59375 71.296875 
L 52.59375 62.3125 
Q 48.875 64.0625 45.09375 64.984375 
Q 41.3125 65.921875 37.59375 65.921875 
Q 27.828125 65.921875 22.671875 59.328125 
Q 17.53125 52.734375 16.796875 39.40625 
Q 19.671875 43.65625 24.015625 45.921875 
Q 28.375 48.1875 33.59375 48.1875 
Q 44.578125 48.1875 50.953125 41.515625 
Q 57.328125 34.859375 57.328125 23.390625 
Q 57.328125 12.15625 50.6875 5.359375 
Q 44.046875 -1.421875 33.015625 -1.421875 
Q 20.359375 -1.421875 13.671875 8.265625 
Q 6.984375 17.96875 6.984375 36.375 
Q 6.984375 53.65625 15.1875 63.9375 
Q 23.390625 74.21875 37.203125 74.21875 
Q 40.921875 74.21875 44.703125 73.484375 
Q 48.484375 72.75 52.59375 71.296875 
" id="BitstreamVeraSans-Roman-36"/>
      </defs>
      <g transform="translate(26.06859375 778.61625)scale(0.3 -0.3)">
       <use xlink:href="#BitstreamVeraSans-Roman-2212"/>
       <use x="83.7890625" xlink:href="#BitstreamVeraSans-Roman-36"/>
       <use x="147.412109375" xlink:href="#BitstreamVeraSans-Roman-30"/>
      </g>
     </g>
    </g>
    <g id="ytick_2">
     <g id="line2d_15">
      <g>
       <use style="stroke:#000000;stroke-width:0.5;" x="93.38265625" xlink:href="#me7b8dc39e0" y="681.285332031"/>
      </g>
     </g>
     <g id="line2d_16">
      <g>
       <use style="stroke:#000000;stroke-width:0.5;" x="1381.831875" xlink:href="#mc85893d13d" y="681.285332031"/>
      </g>
     </g>
     <g id="text_8">
      <!-- −50 -->
      <g transform="translate(26.06859375 689.563457031)scale(0.3 -0.3)">
       <use xlink:href="#BitstreamVeraSans-Roman-2212"/>
       <use x="83.7890625" xlink:href="#BitstreamVeraSans-Roman-35"/>
       <use x="147.412109375" xlink:href="#BitstreamVeraSans-Roman-30"/>
      </g>
     </g>
    </g>
    <g id="ytick_3">
     <g id="line2d_17">
      <g>
       <use style="stroke:#000000;stroke-width:0.5;" x="93.38265625" xlink:href="#me7b8dc39e0" y="592.232539062"/>
      </g>
     </g>
     <g id="line2d_18">
      <g>
       <use style="stroke:#000000;stroke-width:0.5;" x="1381.831875" xlink:href="#mc85893d13d" y="592.232539062"/>
      </g>
     </g>
     <g id="text_9">
      <!-- −40 -->
      <defs>
       <path d="M 37.796875 64.3125 
L 12.890625 25.390625 
L 37.796875 25.390625 
z
M 35.203125 72.90625 
L 47.609375 72.90625 
L 47.609375 25.390625 
L 58.015625 25.390625 
L 58.015625 17.1875 
L 47.609375 17.1875 
L 47.609375 0 
L 37.796875 0 
L 37.796875 17.1875 
L 4.890625 17.1875 
L 4.890625 26.703125 
z
" id="BitstreamVeraSans-Roman-34"/>
      </defs>
      <g transform="translate(26.06859375 600.510664062)scale(0.3 -0.3)">
       <use xlink:href="#BitstreamVeraSans-Roman-2212"/>
       <use x="83.7890625" xlink:href="#BitstreamVeraSans-Roman-34"/>
       <use x="147.412109375" xlink:href="#BitstreamVeraSans-Roman-30"/>
      </g>
     </g>
    </g>
    <g id="ytick_4">
     <g id="line2d_19">
      <g>
       <use style="stroke:#000000;stroke-width:0.5;" x="93.38265625" xlink:href="#me7b8dc39e0" y="503.179746094"/>
      </g>
     </g>
     <g id="line2d_20">
      <g>
       <use style="stroke:#000000;stroke-width:0.5;" x="1381.831875" xlink:href="#mc85893d13d" y="503.179746094"/>
      </g>
     </g>
     <g id="text_10">
      <!-- −30 -->
      <defs>
       <path d="M 40.578125 39.3125 
Q 47.65625 37.796875 51.625 33 
Q 55.609375 28.21875 55.609375 21.1875 
Q 55.609375 10.40625 48.1875 4.484375 
Q 40.765625 -1.421875 27.09375 -1.421875 
Q 22.515625 -1.421875 17.65625 -0.515625 
Q 12.796875 0.390625 7.625 2.203125 
L 7.625 11.71875 
Q 11.71875 9.328125 16.59375 8.109375 
Q 21.484375 6.890625 26.8125 6.890625 
Q 36.078125 6.890625 40.9375 10.546875 
Q 45.796875 14.203125 45.796875 21.1875 
Q 45.796875 27.640625 41.28125 31.265625 
Q 36.765625 34.90625 28.71875 34.90625 
L 20.21875 34.90625 
L 20.21875 43.015625 
L 29.109375 43.015625 
Q 36.375 43.015625 40.234375 45.921875 
Q 44.09375 48.828125 44.09375 54.296875 
Q 44.09375 59.90625 40.109375 62.90625 
Q 36.140625 65.921875 28.71875 65.921875 
Q 24.65625 65.921875 20.015625 65.03125 
Q 15.375 64.15625 9.8125 62.3125 
L 9.8125 71.09375 
Q 15.4375 72.65625 20.34375 73.4375 
Q 25.25 74.21875 29.59375 74.21875 
Q 40.828125 74.21875 47.359375 69.109375 
Q 53.90625 64.015625 53.90625 55.328125 
Q 53.90625 49.265625 50.4375 45.09375 
Q 46.96875 40.921875 40.578125 39.3125 
" id="BitstreamVeraSans-Roman-33"/>
      </defs>
      <g transform="translate(26.06859375 511.457871094)scale(0.3 -0.3)">
       <use xlink:href="#BitstreamVeraSans-Roman-2212"/>
       <use x="83.7890625" xlink:href="#BitstreamVeraSans-Roman-33"/>
       <use x="147.412109375" xlink:href="#BitstreamVeraSans-Roman-30"/>
      </g>
     </g>
    </g>
    <g id="ytick_5">
     <g id="line2d_21">
      <g>
       <use style="stroke:#000000;stroke-width:0.5;" x="93.38265625" xlink:href="#me7b8dc39e0" y="414.126953125"/>
      </g>
     </g>
     <g id="line2d_22">
      <g>
       <use style="stroke:#000000;stroke-width:0.5;" x="1381.831875" xlink:href="#mc85893d13d" y="414.126953125"/>
      </g>
     </g>
     <g id="text_11">
      <!-- −20 -->
      <g transform="translate(26.06859375 422.405078125)scale(0.3 -0.3)">
       <use xlink:href="#BitstreamVeraSans-Roman-2212"/>
       <use x="83.7890625" xlink:href="#BitstreamVeraSans-Roman-32"/>
       <use x="147.412109375" xlink:href="#BitstreamVeraSans-Roman-30"/>
      </g>
     </g>
    </g>
    <g id="ytick_6">
     <g id="line2d_23">
      <g>
       <use style="stroke:#000000;stroke-width:0.5;" x="93.38265625" xlink:href="#me7b8dc39e0" y="325.074160156"/>
      </g>
     </g>
     <g id="line2d_24">
      <g>
       <use style="stroke:#000000;stroke-width:0.5;" x="1381.831875" xlink:href="#mc85893d13d" y="325.074160156"/>
      </g>
     </g>
     <g id="text_12">
      <!-- −10 -->
      <g transform="translate(26.06859375 333.352285156)scale(0.3 -0.3)">
       <use xlink:href="#BitstreamVeraSans-Roman-2212"/>
       <use x="83.7890625" xlink:href="#BitstreamVeraSans-Roman-31"/>
       <use x="147.412109375" xlink:href="#BitstreamVeraSans-Roman-30"/>
      </g>
     </g>
    </g>
    <g id="ytick_7">
     <g id="line2d_25">
      <g>
       <use style="stroke:#000000;stroke-width:0.5;" x="93.38265625" xlink:href="#me7b8dc39e0" y="236.021367188"/>
      </g>
     </g>
     <g id="line2d_26">
      <g>
       <use style="stroke:#000000;stroke-width:0.5;" x="1381.831875" xlink:href="#mc85893d13d" y="236.021367188"/>
      </g>
     </g>
     <g id="text_13">
      <!-- 0 -->
      <g transform="translate(70.29515625 244.299492188)scale(0.3 -0.3)">
       <use xlink:href="#BitstreamVeraSans-Roman-30"/>
      </g>
     </g>
    </g>
    <g id="ytick_8">
     <g id="line2d_27">
      <g>
       <use style="stroke:#000000;stroke-width:0.5;" x="93.38265625" xlink:href="#me7b8dc39e0" y="146.968574219"/>
      </g>
     </g>
     <g id="line2d_28">
      <g>
       <use style="stroke:#000000;stroke-width:0.5;" x="1381.831875" xlink:href="#mc85893d13d" y="146.968574219"/>
      </g>
     </g>
     <g id="text_14">
      <!-- 10 -->
      <g transform="translate(51.20765625 155.246699219)scale(0.3 -0.3)">
       <use xlink:href="#BitstreamVeraSans-Roman-31"/>
       <use x="63.623046875" xlink:href="#BitstreamVeraSans-Roman-30"/>
      </g>
     </g>
    </g>
    <g id="ytick_9">
     <g id="line2d_29">
      <g>
       <use style="stroke:#000000;stroke-width:0.5;" x="93.38265625" xlink:href="#me7b8dc39e0" y="57.91578125"/>
      </g>
     </g>
     <g id="line2d_30">
      <g>
       <use style="stroke:#000000;stroke-width:0.5;" x="1381.831875" xlink:href="#mc85893d13d" y="57.91578125"/>
      </g>
     </g>
     <g id="text_15">
      <!-- 20 -->
      <g transform="translate(51.20765625 66.19390625)scale(0.3 -0.3)">
       <use xlink:href="#BitstreamVeraSans-Roman-32"/>
       <use x="63.623046875" xlink:href="#BitstreamVeraSans-Roman-30"/>
      </g>
     </g>
    </g>
   </g>
   <g id="text_16">
    <!-- log(loss) -->
    <defs>
     <path d="M 8.015625 75.875 
L 15.828125 75.875 
Q 23.140625 64.359375 26.78125 53.3125 
Q 30.421875 42.28125 30.421875 31.390625 
Q 30.421875 20.453125 26.78125 9.375 
Q 23.140625 -1.703125 15.828125 -13.1875 
L 8.015625 -13.1875 
Q 14.5 -2 17.703125 9.0625 
Q 20.90625 20.125 20.90625 31.390625 
Q 20.90625 42.671875 17.703125 53.65625 
Q 14.5 64.65625 8.015625 75.875 
" id="BitstreamVeraSans-Roman-29"/>
     <path d="M 31 75.875 
Q 24.46875 64.65625 21.28125 53.65625 
Q 18.109375 42.671875 18.109375 31.390625 
Q 18.109375 20.125 21.3125 9.0625 
Q 24.515625 -2 31 -13.1875 
L 23.1875 -13.1875 
Q 15.875 -1.703125 12.234375 9.375 
Q 8.59375 20.453125 8.59375 31.390625 
Q 8.59375 42.28125 12.203125 53.3125 
Q 15.828125 64.359375 23.1875 75.875 
z
" id="BitstreamVeraSans-Roman-28"/>
     <path d="M 45.40625 27.984375 
Q 45.40625 37.75 41.375 43.109375 
Q 37.359375 48.484375 30.078125 48.484375 
Q 22.859375 48.484375 18.828125 43.109375 
Q 14.796875 37.75 14.796875 27.984375 
Q 14.796875 18.265625 18.828125 12.890625 
Q 22.859375 7.515625 30.078125 7.515625 
Q 37.359375 7.515625 41.375 12.890625 
Q 45.40625 18.265625 45.40625 27.984375 
M 54.390625 6.78125 
Q 54.390625 -7.171875 48.1875 -13.984375 
Q 42 -20.796875 29.203125 -20.796875 
Q 24.46875 -20.796875 20.265625 -20.09375 
Q 16.0625 -19.390625 12.109375 -17.921875 
L 12.109375 -9.1875 
Q 16.0625 -11.328125 19.921875 -12.34375 
Q 23.78125 -13.375 27.78125 -13.375 
Q 36.625 -13.375 41.015625 -8.765625 
Q 45.40625 -4.15625 45.40625 5.171875 
L 45.40625 9.625 
Q 42.625 4.78125 38.28125 2.390625 
Q 33.9375 0 27.875 0 
Q 17.828125 0 11.671875 7.65625 
Q 5.515625 15.328125 5.515625 27.984375 
Q 5.515625 40.671875 11.671875 48.328125 
Q 17.828125 56 27.875 56 
Q 33.9375 56 38.28125 53.609375 
Q 42.625 51.21875 45.40625 46.390625 
L 45.40625 54.6875 
L 54.390625 54.6875 
z
" id="BitstreamVeraSans-Roman-67"/>
     <path d="M 9.421875 75.984375 
L 18.40625 75.984375 
L 18.40625 0 
L 9.421875 0 
z
" id="BitstreamVeraSans-Roman-6c"/>
    </defs>
    <g transform="translate(674.061171875 52.91578125)scale(0.3 -0.3)">
     <use xlink:href="#BitstreamVeraSans-Roman-6c"/>
     <use x="27.783203125" xlink:href="#BitstreamVeraSans-Roman-6f"/>
     <use x="88.96484375" xlink:href="#BitstreamVeraSans-Roman-67"/>
     <use x="152.44140625" xlink:href="#BitstreamVeraSans-Roman-28"/>
     <use x="191.455078125" xlink:href="#BitstreamVeraSans-Roman-6c"/>
     <use x="219.23828125" xlink:href="#BitstreamVeraSans-Roman-6f"/>
     <use x="280.419921875" xlink:href="#BitstreamVeraSans-Roman-73"/>
     <use x="332.51953125" xlink:href="#BitstreamVeraSans-Roman-73"/>
     <use x="384.619140625" xlink:href="#BitstreamVeraSans-Roman-29"/>
    </g>
   </g>
   <g id="legend_1">
    <g id="patch_7">
     <path d="M 1142.47875 169.984531 
L 1366.831875 169.984531 
L 1366.831875 72.915781 
L 1142.47875 72.915781 
z
" style="fill:#ffffff;stroke:#000000;stroke-linejoin:miter;"/>
    </g>
    <g id="line2d_31">
     <path d="M 1163.47875 97.211094 
L 1205.47875 97.211094 
" style="fill:none;stroke:#0000ff;stroke-linecap:square;stroke-width:2.0;"/>
    </g>
    <g id="line2d_32"/>
    <g id="text_17">
     <!-- random -->
     <defs>
      <path d="M 45.40625 46.390625 
L 45.40625 75.984375 
L 54.390625 75.984375 
L 54.390625 0 
L 45.40625 0 
L 45.40625 8.203125 
Q 42.578125 3.328125 38.25 0.953125 
Q 33.9375 -1.421875 27.875 -1.421875 
Q 17.96875 -1.421875 11.734375 6.484375 
Q 5.515625 14.40625 5.515625 27.296875 
Q 5.515625 40.1875 11.734375 48.09375 
Q 17.96875 56 27.875 56 
Q 33.9375 56 38.25 53.625 
Q 42.578125 51.265625 45.40625 46.390625 
M 14.796875 27.296875 
Q 14.796875 17.390625 18.875 11.75 
Q 22.953125 6.109375 30.078125 6.109375 
Q 37.203125 6.109375 41.296875 11.75 
Q 45.40625 17.390625 45.40625 27.296875 
Q 45.40625 37.203125 41.296875 42.84375 
Q 37.203125 48.484375 30.078125 48.484375 
Q 22.953125 48.484375 18.875 42.84375 
Q 14.796875 37.203125 14.796875 27.296875 
" id="BitstreamVeraSans-Roman-64"/>
      <path d="M 52 44.1875 
Q 55.375 50.25 60.0625 53.125 
Q 64.75 56 71.09375 56 
Q 79.640625 56 84.28125 50.015625 
Q 88.921875 44.046875 88.921875 33.015625 
L 88.921875 0 
L 79.890625 0 
L 79.890625 32.71875 
Q 79.890625 40.578125 77.09375 44.375 
Q 74.3125 48.1875 68.609375 48.1875 
Q 61.625 48.1875 57.5625 43.546875 
Q 53.515625 38.921875 53.515625 30.90625 
L 53.515625 0 
L 44.484375 0 
L 44.484375 32.71875 
Q 44.484375 40.625 41.703125 44.40625 
Q 38.921875 48.1875 33.109375 48.1875 
Q 26.21875 48.1875 22.15625 43.53125 
Q 18.109375 38.875 18.109375 30.90625 
L 18.109375 0 
L 9.078125 0 
L 9.078125 54.6875 
L 18.109375 54.6875 
L 18.109375 46.1875 
Q 21.1875 51.21875 25.484375 53.609375 
Q 29.78125 56 35.6875 56 
Q 41.65625 56 45.828125 52.96875 
Q 50 49.953125 52 44.1875 
" id="BitstreamVeraSans-Roman-6d"/>
     </defs>
     <g transform="translate(1238.47875 107.71109375)scale(0.3 -0.3)">
      <use xlink:href="#BitstreamVeraSans-Roman-72"/>
      <use x="41.11328125" xlink:href="#BitstreamVeraSans-Roman-61"/>
      <use x="102.392578125" xlink:href="#BitstreamVeraSans-Roman-6e"/>
      <use x="165.771484375" xlink:href="#BitstreamVeraSans-Roman-64"/>
      <use x="229.248046875" xlink:href="#BitstreamVeraSans-Roman-6f"/>
      <use x="290.4296875" xlink:href="#BitstreamVeraSans-Roman-6d"/>
     </g>
    </g>
    <g id="line2d_33">
     <path d="M 1163.47875 141.245469 
L 1205.47875 141.245469 
" style="fill:none;stroke:#008000;stroke-linecap:square;stroke-width:2.0;"/>
    </g>
    <g id="line2d_34"/>
    <g id="text_18">
     <!-- corr -->
     <defs>
      <path d="M 48.78125 52.59375 
L 48.78125 44.1875 
Q 44.96875 46.296875 41.140625 47.34375 
Q 37.3125 48.390625 33.40625 48.390625 
Q 24.65625 48.390625 19.8125 42.84375 
Q 14.984375 37.3125 14.984375 27.296875 
Q 14.984375 17.28125 19.8125 11.734375 
Q 24.65625 6.203125 33.40625 6.203125 
Q 37.3125 6.203125 41.140625 7.25 
Q 44.96875 8.296875 48.78125 10.40625 
L 48.78125 2.09375 
Q 45.015625 0.34375 40.984375 -0.53125 
Q 36.96875 -1.421875 32.421875 -1.421875 
Q 20.0625 -1.421875 12.78125 6.34375 
Q 5.515625 14.109375 5.515625 27.296875 
Q 5.515625 40.671875 12.859375 48.328125 
Q 20.21875 56 33.015625 56 
Q 37.15625 56 41.109375 55.140625 
Q 45.0625 54.296875 48.78125 52.59375 
" id="BitstreamVeraSans-Roman-63"/>
     </defs>
     <g transform="translate(1238.47875 151.74546875)scale(0.3 -0.3)">
      <use xlink:href="#BitstreamVeraSans-Roman-63"/>
      <use x="54.98046875" xlink:href="#BitstreamVeraSans-Roman-6f"/>
      <use x="116.162109375" xlink:href="#BitstreamVeraSans-Roman-72"/>
      <use x="157.259765625" xlink:href="#BitstreamVeraSans-Roman-72"/>
     </g>
    </g>
   </g>
  </g>
 </g>
 <defs>
  <clipPath id="p3eb26a2dab">
   <rect height="712.42234375" width="1288.44921875" x="93.38265625" y="57.91578125"/>
  </clipPath>
 </defs>
</svg>
