<?xml version="1.0" encoding="utf-8" standalone="no"?>
<!DOCTYPE svg PUBLIC "-//W3C//DTD SVG 1.1//EN"
  "http://www.w3.org/Graphics/SVG/1.1/DTD/svg11.dtd">
<!-- Created with matplotlib (http://matplotlib.org/) -->
<svg height="864pt" version="1.1" viewBox="0 0 1440 864" width="1440pt" xmlns="http://www.w3.org/2000/svg" xmlns:xlink="http://www.w3.org/1999/xlink">
 <defs>
  <style type="text/css">
*{stroke-linecap:butt;stroke-linejoin:round;stroke-miterlimit:100000;}
  </style>
 </defs>
 <g id="figure_1">
  <g id="patch_1">
   <path d="M 0 864 
L 1440 864 
L 1440 0 
L 0 0 
z
" style="fill:#ffffff;"/>
  </g>
  <g id="axes_1">
   <g id="patch_2">
    <path d="M 91.1475 806.04 
L 1411.12125 806.04 
L 1411.12125 21.96 
L 91.1475 21.96 
z
" style="fill:#ffffff;"/>
   </g>
   <g id="patch_3">
    <path clip-path="url(#p67c2cf75d0)" d="M 667.674093 806.04 
L 674.273961 806.04 
L 674.273961 805.726368 
L 667.674093 805.726368 
z
" style="fill:#0000ff;stroke:#000000;stroke-linejoin:miter;"/>
   </g>
   <g id="patch_4">
    <path clip-path="url(#p67c2cf75d0)" d="M 670.154848 806.04 
L 676.754716 806.04 
L 676.754716 806.04 
L 670.154848 806.04 
z
" style="fill:#0000ff;stroke:#000000;stroke-linejoin:miter;"/>
   </g>
   <g id="patch_5">
    <path clip-path="url(#p67c2cf75d0)" d="M 672.635603 806.04 
L 679.235471 806.04 
L 679.235471 806.04 
L 672.635603 806.04 
z
" style="fill:#0000ff;stroke:#000000;stroke-linejoin:miter;"/>
   </g>
   <g id="patch_6">
    <path clip-path="url(#p67c2cf75d0)" d="M 675.116358 806.04 
L 681.716226 806.04 
L 681.716226 806.04 
L 675.116358 806.04 
z
" style="fill:#0000ff;stroke:#000000;stroke-linejoin:miter;"/>
   </g>
   <g id="patch_7">
    <path clip-path="url(#p67c2cf75d0)" d="M 677.597113 806.04 
L 684.196981 806.04 
L 684.196981 806.04 
L 677.597113 806.04 
z
" style="fill:#0000ff;stroke:#000000;stroke-linejoin:miter;"/>
   </g>
   <g id="patch_8">
    <path clip-path="url(#p67c2cf75d0)" d="M 680.077868 806.04 
L 686.677737 806.04 
L 686.677737 806.04 
L 680.077868 806.04 
z
" style="fill:#0000ff;stroke:#000000;stroke-linejoin:miter;"/>
   </g>
   <g id="patch_9">
    <path clip-path="url(#p67c2cf75d0)" d="M 682.558623 806.04 
L 689.158492 806.04 
L 689.158492 806.04 
L 682.558623 806.04 
z
" style="fill:#0000ff;stroke:#000000;stroke-linejoin:miter;"/>
   </g>
   <g id="patch_10">
    <path clip-path="url(#p67c2cf75d0)" d="M 685.039378 806.04 
L 691.639247 806.04 
L 691.639247 806.04 
L 685.039378 806.04 
z
" style="fill:#0000ff;stroke:#000000;stroke-linejoin:miter;"/>
   </g>
   <g id="patch_11">
    <path clip-path="url(#p67c2cf75d0)" d="M 687.520133 806.04 
L 694.120002 806.04 
L 694.120002 806.04 
L 687.520133 806.04 
z
" style="fill:#0000ff;stroke:#000000;stroke-linejoin:miter;"/>
   </g>
   <g id="patch_12">
    <path clip-path="url(#p67c2cf75d0)" d="M 690.000888 806.04 
L 696.600757 806.04 
L 696.600757 806.04 
L 690.000888 806.04 
z
" style="fill:#0000ff;stroke:#000000;stroke-linejoin:miter;"/>
   </g>
   <g id="patch_13">
    <path clip-path="url(#p67c2cf75d0)" d="M 692.481643 806.04 
L 699.081512 806.04 
L 699.081512 806.04 
L 692.481643 806.04 
z
" style="fill:#0000ff;stroke:#000000;stroke-linejoin:miter;"/>
   </g>
   <g id="patch_14">
    <path clip-path="url(#p67c2cf75d0)" d="M 694.962398 806.04 
L 701.562267 806.04 
L 701.562267 805.412736 
L 694.962398 805.412736 
z
" style="fill:#0000ff;stroke:#000000;stroke-linejoin:miter;"/>
   </g>
   <g id="patch_15">
    <path clip-path="url(#p67c2cf75d0)" d="M 697.443153 806.04 
L 704.043022 806.04 
L 704.043022 806.04 
L 697.443153 806.04 
z
" style="fill:#0000ff;stroke:#000000;stroke-linejoin:miter;"/>
   </g>
   <g id="patch_16">
    <path clip-path="url(#p67c2cf75d0)" d="M 699.923908 806.04 
L 706.523777 806.04 
L 706.523777 806.04 
L 699.923908 806.04 
z
" style="fill:#0000ff;stroke:#000000;stroke-linejoin:miter;"/>
   </g>
   <g id="patch_17">
    <path clip-path="url(#p67c2cf75d0)" d="M 702.404663 806.04 
L 709.004532 806.04 
L 709.004532 805.726368 
L 702.404663 805.726368 
z
" style="fill:#0000ff;stroke:#000000;stroke-linejoin:miter;"/>
   </g>
   <g id="patch_18">
    <path clip-path="url(#p67c2cf75d0)" d="M 704.885418 806.04 
L 711.485287 806.04 
L 711.485287 806.04 
L 704.885418 806.04 
z
" style="fill:#0000ff;stroke:#000000;stroke-linejoin:miter;"/>
   </g>
   <g id="patch_19">
    <path clip-path="url(#p67c2cf75d0)" d="M 707.366173 806.04 
L 713.966042 806.04 
L 713.966042 805.412736 
L 707.366173 805.412736 
z
" style="fill:#0000ff;stroke:#000000;stroke-linejoin:miter;"/>
   </g>
   <g id="patch_20">
    <path clip-path="url(#p67c2cf75d0)" d="M 709.846928 806.04 
L 716.446797 806.04 
L 716.446797 805.412736 
L 709.846928 805.412736 
z
" style="fill:#0000ff;stroke:#000000;stroke-linejoin:miter;"/>
   </g>
   <g id="patch_21">
    <path clip-path="url(#p67c2cf75d0)" d="M 712.327684 806.04 
L 718.927552 806.04 
L 718.927552 805.726368 
L 712.327684 805.726368 
z
" style="fill:#0000ff;stroke:#000000;stroke-linejoin:miter;"/>
   </g>
   <g id="patch_22">
    <path clip-path="url(#p67c2cf75d0)" d="M 714.808439 806.04 
L 721.408307 806.04 
L 721.408307 805.726368 
L 714.808439 805.726368 
z
" style="fill:#0000ff;stroke:#000000;stroke-linejoin:miter;"/>
   </g>
   <g id="patch_23">
    <path clip-path="url(#p67c2cf75d0)" d="M 717.289194 806.04 
L 723.889062 806.04 
L 723.889062 805.099104 
L 717.289194 805.099104 
z
" style="fill:#0000ff;stroke:#000000;stroke-linejoin:miter;"/>
   </g>
   <g id="patch_24">
    <path clip-path="url(#p67c2cf75d0)" d="M 719.769949 806.04 
L 726.369817 806.04 
L 726.369817 805.726368 
L 719.769949 805.726368 
z
" style="fill:#0000ff;stroke:#000000;stroke-linejoin:miter;"/>
   </g>
   <g id="patch_25">
    <path clip-path="url(#p67c2cf75d0)" d="M 722.250704 806.04 
L 728.850573 806.04 
L 728.850573 804.158208 
L 722.250704 804.158208 
z
" style="fill:#0000ff;stroke:#000000;stroke-linejoin:miter;"/>
   </g>
   <g id="patch_26">
    <path clip-path="url(#p67c2cf75d0)" d="M 724.731459 806.04 
L 731.331328 806.04 
L 731.331328 805.099104 
L 724.731459 805.099104 
z
" style="fill:#0000ff;stroke:#000000;stroke-linejoin:miter;"/>
   </g>
   <g id="patch_27">
    <path clip-path="url(#p67c2cf75d0)" d="M 727.212214 806.04 
L 733.812083 806.04 
L 733.812083 804.785472 
L 727.212214 804.785472 
z
" style="fill:#0000ff;stroke:#000000;stroke-linejoin:miter;"/>
   </g>
   <g id="patch_28">
    <path clip-path="url(#p67c2cf75d0)" d="M 729.692969 806.04 
L 736.292838 806.04 
L 736.292838 804.47184 
L 729.692969 804.47184 
z
" style="fill:#0000ff;stroke:#000000;stroke-linejoin:miter;"/>
   </g>
   <g id="patch_29">
    <path clip-path="url(#p67c2cf75d0)" d="M 732.173724 806.04 
L 738.773593 806.04 
L 738.773593 804.158208 
L 732.173724 804.158208 
z
" style="fill:#0000ff;stroke:#000000;stroke-linejoin:miter;"/>
   </g>
   <g id="patch_30">
    <path clip-path="url(#p67c2cf75d0)" d="M 734.654479 806.04 
L 741.254348 806.04 
L 741.254348 803.217312 
L 734.654479 803.217312 
z
" style="fill:#0000ff;stroke:#000000;stroke-linejoin:miter;"/>
   </g>
   <g id="patch_31">
    <path clip-path="url(#p67c2cf75d0)" d="M 737.135234 806.04 
L 743.735103 806.04 
L 743.735103 802.590048 
L 737.135234 802.590048 
z
" style="fill:#0000ff;stroke:#000000;stroke-linejoin:miter;"/>
   </g>
   <g id="patch_32">
    <path clip-path="url(#p67c2cf75d0)" d="M 739.615989 806.04 
L 746.215858 806.04 
L 746.215858 802.90368 
L 739.615989 802.90368 
z
" style="fill:#0000ff;stroke:#000000;stroke-linejoin:miter;"/>
   </g>
   <g id="patch_33">
    <path clip-path="url(#p67c2cf75d0)" d="M 742.096744 806.04 
L 748.696613 806.04 
L 748.696613 801.649152 
L 742.096744 801.649152 
z
" style="fill:#0000ff;stroke:#000000;stroke-linejoin:miter;"/>
   </g>
   <g id="patch_34">
    <path clip-path="url(#p67c2cf75d0)" d="M 744.577499 806.04 
L 751.177368 806.04 
L 751.177368 802.276416 
L 744.577499 802.276416 
z
" style="fill:#0000ff;stroke:#000000;stroke-linejoin:miter;"/>
   </g>
   <g id="patch_35">
    <path clip-path="url(#p67c2cf75d0)" d="M 747.058254 806.04 
L 753.658123 806.04 
L 753.658123 800.708256 
L 747.058254 800.708256 
z
" style="fill:#0000ff;stroke:#000000;stroke-linejoin:miter;"/>
   </g>
   <g id="patch_36">
    <path clip-path="url(#p67c2cf75d0)" d="M 749.539009 806.04 
L 756.138878 806.04 
L 756.138878 799.76736 
L 749.539009 799.76736 
z
" style="fill:#0000ff;stroke:#000000;stroke-linejoin:miter;"/>
   </g>
   <g id="patch_37">
    <path clip-path="url(#p67c2cf75d0)" d="M 752.019764 806.04 
L 758.619633 806.04 
L 758.619633 801.33552 
L 752.019764 801.33552 
z
" style="fill:#0000ff;stroke:#000000;stroke-linejoin:miter;"/>
   </g>
   <g id="patch_38">
    <path clip-path="url(#p67c2cf75d0)" d="M 754.50052 806.04 
L 761.100388 806.04 
L 761.100388 798.512832 
L 754.50052 798.512832 
z
" style="fill:#0000ff;stroke:#000000;stroke-linejoin:miter;"/>
   </g>
   <g id="patch_39">
    <path clip-path="url(#p67c2cf75d0)" d="M 756.981275 806.04 
L 763.581143 806.04 
L 763.581143 797.258304 
L 756.981275 797.258304 
z
" style="fill:#0000ff;stroke:#000000;stroke-linejoin:miter;"/>
   </g>
   <g id="patch_40">
    <path clip-path="url(#p67c2cf75d0)" d="M 759.46203 806.04 
L 766.061898 806.04 
L 766.061898 795.06288 
L 759.46203 795.06288 
z
" style="fill:#0000ff;stroke:#000000;stroke-linejoin:miter;"/>
   </g>
   <g id="patch_41">
    <path clip-path="url(#p67c2cf75d0)" d="M 761.942785 806.04 
L 768.542653 806.04 
L 768.542653 794.749248 
L 761.942785 794.749248 
z
" style="fill:#0000ff;stroke:#000000;stroke-linejoin:miter;"/>
   </g>
   <g id="patch_42">
    <path clip-path="url(#p67c2cf75d0)" d="M 764.42354 806.04 
L 771.023408 806.04 
L 771.023408 794.121984 
L 764.42354 794.121984 
z
" style="fill:#0000ff;stroke:#000000;stroke-linejoin:miter;"/>
   </g>
   <g id="patch_43">
    <path clip-path="url(#p67c2cf75d0)" d="M 766.904295 806.04 
L 773.504164 806.04 
L 773.504164 795.376512 
L 766.904295 795.376512 
z
" style="fill:#0000ff;stroke:#000000;stroke-linejoin:miter;"/>
   </g>
   <g id="patch_44">
    <path clip-path="url(#p67c2cf75d0)" d="M 769.38505 806.04 
L 775.984919 806.04 
L 775.984919 790.3584 
L 769.38505 790.3584 
z
" style="fill:#0000ff;stroke:#000000;stroke-linejoin:miter;"/>
   </g>
   <g id="patch_45">
    <path clip-path="url(#p67c2cf75d0)" d="M 771.865805 806.04 
L 778.465674 806.04 
L 778.465674 785.967552 
L 771.865805 785.967552 
z
" style="fill:#0000ff;stroke:#000000;stroke-linejoin:miter;"/>
   </g>
   <g id="patch_46">
    <path clip-path="url(#p67c2cf75d0)" d="M 774.34656 806.04 
L 780.946429 806.04 
L 780.946429 789.103872 
L 774.34656 789.103872 
z
" style="fill:#0000ff;stroke:#000000;stroke-linejoin:miter;"/>
   </g>
   <g id="patch_47">
    <path clip-path="url(#p67c2cf75d0)" d="M 776.827315 806.04 
L 783.427184 806.04 
L 783.427184 788.162976 
L 776.827315 788.162976 
z
" style="fill:#0000ff;stroke:#000000;stroke-linejoin:miter;"/>
   </g>
   <g id="patch_48">
    <path clip-path="url(#p67c2cf75d0)" d="M 779.30807 806.04 
L 785.907939 806.04 
L 785.907939 786.281184 
L 779.30807 786.281184 
z
" style="fill:#0000ff;stroke:#000000;stroke-linejoin:miter;"/>
   </g>
   <g id="patch_49">
    <path clip-path="url(#p67c2cf75d0)" d="M 781.788825 806.04 
L 788.388694 806.04 
L 788.388694 782.831232 
L 781.788825 782.831232 
z
" style="fill:#0000ff;stroke:#000000;stroke-linejoin:miter;"/>
   </g>
   <g id="patch_50">
    <path clip-path="url(#p67c2cf75d0)" d="M 784.26958 806.04 
L 790.869449 806.04 
L 790.869449 779.38128 
L 784.26958 779.38128 
z
" style="fill:#0000ff;stroke:#000000;stroke-linejoin:miter;"/>
   </g>
   <g id="patch_51">
    <path clip-path="url(#p67c2cf75d0)" d="M 786.750335 806.04 
L 793.350204 806.04 
L 793.350204 777.185856 
L 786.750335 777.185856 
z
" style="fill:#0000ff;stroke:#000000;stroke-linejoin:miter;"/>
   </g>
   <g id="patch_52">
    <path clip-path="url(#p67c2cf75d0)" d="M 789.23109 806.04 
L 795.830959 806.04 
L 795.830959 769.658688 
L 789.23109 769.658688 
z
" style="fill:#0000ff;stroke:#000000;stroke-linejoin:miter;"/>
   </g>
   <g id="patch_53">
    <path clip-path="url(#p67c2cf75d0)" d="M 791.711845 806.04 
L 798.311714 806.04 
L 798.311714 765.895104 
L 791.711845 765.895104 
z
" style="fill:#0000ff;stroke:#000000;stroke-linejoin:miter;"/>
   </g>
   <g id="patch_54">
    <path clip-path="url(#p67c2cf75d0)" d="M 794.1926 806.04 
L 800.792469 806.04 
L 800.792469 760.249728 
L 794.1926 760.249728 
z
" style="fill:#0000ff;stroke:#000000;stroke-linejoin:miter;"/>
   </g>
   <g id="patch_55">
    <path clip-path="url(#p67c2cf75d0)" d="M 796.673355 806.04 
L 803.273224 806.04 
L 803.273224 764.954208 
L 796.673355 764.954208 
z
" style="fill:#0000ff;stroke:#000000;stroke-linejoin:miter;"/>
   </g>
   <g id="patch_56">
    <path clip-path="url(#p67c2cf75d0)" d="M 799.154111 806.04 
L 805.753979 806.04 
L 805.753979 760.56336 
L 799.154111 760.56336 
z
" style="fill:#0000ff;stroke:#000000;stroke-linejoin:miter;"/>
   </g>
   <g id="patch_57">
    <path clip-path="url(#p67c2cf75d0)" d="M 801.634866 806.04 
L 808.234734 806.04 
L 808.234734 746.136288 
L 801.634866 746.136288 
z
" style="fill:#0000ff;stroke:#000000;stroke-linejoin:miter;"/>
   </g>
   <g id="patch_58">
    <path clip-path="url(#p67c2cf75d0)" d="M 804.115621 806.04 
L 810.715489 806.04 
L 810.715489 746.136288 
L 804.115621 746.136288 
z
" style="fill:#0000ff;stroke:#000000;stroke-linejoin:miter;"/>
   </g>
   <g id="patch_59">
    <path clip-path="url(#p67c2cf75d0)" d="M 806.596376 806.04 
L 813.196244 806.04 
L 813.196244 740.804544 
L 806.596376 740.804544 
z
" style="fill:#0000ff;stroke:#000000;stroke-linejoin:miter;"/>
   </g>
   <g id="patch_60">
    <path clip-path="url(#p67c2cf75d0)" d="M 809.077131 806.04 
L 815.677 806.04 
L 815.677 741.118176 
L 809.077131 741.118176 
z
" style="fill:#0000ff;stroke:#000000;stroke-linejoin:miter;"/>
   </g>
   <g id="patch_61">
    <path clip-path="url(#p67c2cf75d0)" d="M 811.557886 806.04 
L 818.157755 806.04 
L 818.157755 731.395584 
L 811.557886 731.395584 
z
" style="fill:#0000ff;stroke:#000000;stroke-linejoin:miter;"/>
   </g>
   <g id="patch_62">
    <path clip-path="url(#p67c2cf75d0)" d="M 814.038641 806.04 
L 820.63851 806.04 
L 820.63851 716.65488 
L 814.038641 716.65488 
z
" style="fill:#0000ff;stroke:#000000;stroke-linejoin:miter;"/>
   </g>
   <g id="patch_63">
    <path clip-path="url(#p67c2cf75d0)" d="M 816.519396 806.04 
L 823.119265 806.04 
L 823.119265 719.7912 
L 816.519396 719.7912 
z
" style="fill:#0000ff;stroke:#000000;stroke-linejoin:miter;"/>
   </g>
   <g id="patch_64">
    <path clip-path="url(#p67c2cf75d0)" d="M 819.000151 806.04 
L 825.60002 806.04 
L 825.60002 711.009504 
L 819.000151 711.009504 
z
" style="fill:#0000ff;stroke:#000000;stroke-linejoin:miter;"/>
   </g>
   <g id="patch_65">
    <path clip-path="url(#p67c2cf75d0)" d="M 821.480906 806.04 
L 828.080775 806.04 
L 828.080775 685.918944 
L 821.480906 685.918944 
z
" style="fill:#0000ff;stroke:#000000;stroke-linejoin:miter;"/>
   </g>
   <g id="patch_66">
    <path clip-path="url(#p67c2cf75d0)" d="M 823.961661 806.04 
L 830.56153 806.04 
L 830.56153 684.037152 
L 823.961661 684.037152 
z
" style="fill:#0000ff;stroke:#000000;stroke-linejoin:miter;"/>
   </g>
   <g id="patch_67">
    <path clip-path="url(#p67c2cf75d0)" d="M 826.442416 806.04 
L 833.042285 806.04 
L 833.042285 681.528096 
L 826.442416 681.528096 
z
" style="fill:#0000ff;stroke:#000000;stroke-linejoin:miter;"/>
   </g>
   <g id="patch_68">
    <path clip-path="url(#p67c2cf75d0)" d="M 828.923171 806.04 
L 835.52304 806.04 
L 835.52304 666.160128 
L 828.923171 666.160128 
z
" style="fill:#0000ff;stroke:#000000;stroke-linejoin:miter;"/>
   </g>
   <g id="patch_69">
    <path clip-path="url(#p67c2cf75d0)" d="M 831.403926 806.04 
L 838.003795 806.04 
L 838.003795 665.846496 
L 831.403926 665.846496 
z
" style="fill:#0000ff;stroke:#000000;stroke-linejoin:miter;"/>
   </g>
   <g id="patch_70">
    <path clip-path="url(#p67c2cf75d0)" d="M 833.884681 806.04 
L 840.48455 806.04 
L 840.48455 646.401312 
L 833.884681 646.401312 
z
" style="fill:#0000ff;stroke:#000000;stroke-linejoin:miter;"/>
   </g>
   <g id="patch_71">
    <path clip-path="url(#p67c2cf75d0)" d="M 836.365436 806.04 
L 842.965305 806.04 
L 842.965305 636.051456 
L 836.365436 636.051456 
z
" style="fill:#0000ff;stroke:#000000;stroke-linejoin:miter;"/>
   </g>
   <g id="patch_72">
    <path clip-path="url(#p67c2cf75d0)" d="M 838.846191 806.04 
L 845.44606 806.04 
L 845.44606 629.778816 
L 838.846191 629.778816 
z
" style="fill:#0000ff;stroke:#000000;stroke-linejoin:miter;"/>
   </g>
   <g id="patch_73">
    <path clip-path="url(#p67c2cf75d0)" d="M 841.326947 806.04 
L 847.926815 806.04 
L 847.926815 602.492832 
L 841.326947 602.492832 
z
" style="fill:#0000ff;stroke:#000000;stroke-linejoin:miter;"/>
   </g>
   <g id="patch_74">
    <path clip-path="url(#p67c2cf75d0)" d="M 843.807702 806.04 
L 850.40757 806.04 
L 850.40757 587.438496 
L 843.807702 587.438496 
z
" style="fill:#0000ff;stroke:#000000;stroke-linejoin:miter;"/>
   </g>
   <g id="patch_75">
    <path clip-path="url(#p67c2cf75d0)" d="M 846.288457 806.04 
L 852.888325 806.04 
L 852.888325 581.165856 
L 846.288457 581.165856 
z
" style="fill:#0000ff;stroke:#000000;stroke-linejoin:miter;"/>
   </g>
   <g id="patch_76">
    <path clip-path="url(#p67c2cf75d0)" d="M 848.769212 806.04 
L 855.36908 806.04 
L 855.36908 562.347936 
L 848.769212 562.347936 
z
" style="fill:#0000ff;stroke:#000000;stroke-linejoin:miter;"/>
   </g>
   <g id="patch_77">
    <path clip-path="url(#p67c2cf75d0)" d="M 851.249967 806.04 
L 857.849835 806.04 
L 857.849835 561.40704 
L 851.249967 561.40704 
z
" style="fill:#0000ff;stroke:#000000;stroke-linejoin:miter;"/>
   </g>
   <g id="patch_78">
    <path clip-path="url(#p67c2cf75d0)" d="M 853.730722 806.04 
L 860.330591 806.04 
L 860.330591 531.298368 
L 853.730722 531.298368 
z
" style="fill:#0000ff;stroke:#000000;stroke-linejoin:miter;"/>
   </g>
   <g id="patch_79">
    <path clip-path="url(#p67c2cf75d0)" d="M 856.211477 806.04 
L 862.811346 806.04 
L 862.811346 527.534784 
L 856.211477 527.534784 
z
" style="fill:#0000ff;stroke:#000000;stroke-linejoin:miter;"/>
   </g>
   <g id="patch_80">
    <path clip-path="url(#p67c2cf75d0)" d="M 858.692232 806.04 
L 865.292101 806.04 
L 865.292101 522.516672 
L 858.692232 522.516672 
z
" style="fill:#0000ff;stroke:#000000;stroke-linejoin:miter;"/>
   </g>
   <g id="patch_81">
    <path clip-path="url(#p67c2cf75d0)" d="M 861.172987 806.04 
L 867.772856 806.04 
L 867.772856 496.485216 
L 861.172987 496.485216 
z
" style="fill:#0000ff;stroke:#000000;stroke-linejoin:miter;"/>
   </g>
   <g id="patch_82">
    <path clip-path="url(#p67c2cf75d0)" d="M 863.653742 806.04 
L 870.253611 806.04 
L 870.253611 479.549088 
L 863.653742 479.549088 
z
" style="fill:#0000ff;stroke:#000000;stroke-linejoin:miter;"/>
   </g>
   <g id="patch_83">
    <path clip-path="url(#p67c2cf75d0)" d="M 866.134497 806.04 
L 872.734366 806.04 
L 872.734366 460.731168 
L 866.134497 460.731168 
z
" style="fill:#0000ff;stroke:#000000;stroke-linejoin:miter;"/>
   </g>
   <g id="patch_84">
    <path clip-path="url(#p67c2cf75d0)" d="M 868.615252 806.04 
L 875.215121 806.04 
L 875.215121 442.854144 
L 868.615252 442.854144 
z
" style="fill:#0000ff;stroke:#000000;stroke-linejoin:miter;"/>
   </g>
   <g id="patch_85">
    <path clip-path="url(#p67c2cf75d0)" d="M 871.096007 806.04 
L 877.695876 806.04 
L 877.695876 415.881792 
L 871.096007 415.881792 
z
" style="fill:#0000ff;stroke:#000000;stroke-linejoin:miter;"/>
   </g>
   <g id="patch_86">
    <path clip-path="url(#p67c2cf75d0)" d="M 873.576762 806.04 
L 880.176631 806.04 
L 880.176631 439.09056 
L 873.576762 439.09056 
z
" style="fill:#0000ff;stroke:#000000;stroke-linejoin:miter;"/>
   </g>
   <g id="patch_87">
    <path clip-path="url(#p67c2cf75d0)" d="M 876.057517 806.04 
L 882.657386 806.04 
L 882.657386 403.963776 
L 876.057517 403.963776 
z
" style="fill:#0000ff;stroke:#000000;stroke-linejoin:miter;"/>
   </g>
   <g id="patch_88">
    <path clip-path="url(#p67c2cf75d0)" d="M 878.538272 806.04 
L 885.138141 806.04 
L 885.138141 382.323168 
L 878.538272 382.323168 
z
" style="fill:#0000ff;stroke:#000000;stroke-linejoin:miter;"/>
   </g>
   <g id="patch_89">
    <path clip-path="url(#p67c2cf75d0)" d="M 881.019027 806.04 
L 887.618896 806.04 
L 887.618896 371.973312 
L 881.019027 371.973312 
z
" style="fill:#0000ff;stroke:#000000;stroke-linejoin:miter;"/>
   </g>
   <g id="patch_90">
    <path clip-path="url(#p67c2cf75d0)" d="M 883.499782 806.04 
L 890.099651 806.04 
L 890.099651 333.396576 
L 883.499782 333.396576 
z
" style="fill:#0000ff;stroke:#000000;stroke-linejoin:miter;"/>
   </g>
   <g id="patch_91">
    <path clip-path="url(#p67c2cf75d0)" d="M 885.980538 806.04 
L 892.580406 806.04 
L 892.580406 322.419456 
L 885.980538 322.419456 
z
" style="fill:#0000ff;stroke:#000000;stroke-linejoin:miter;"/>
   </g>
   <g id="patch_92">
    <path clip-path="url(#p67c2cf75d0)" d="M 888.461293 806.04 
L 895.061161 806.04 
L 895.061161 338.72832 
L 888.461293 338.72832 
z
" style="fill:#0000ff;stroke:#000000;stroke-linejoin:miter;"/>
   </g>
   <g id="patch_93">
    <path clip-path="url(#p67c2cf75d0)" d="M 890.942048 806.04 
L 897.541916 806.04 
L 897.541916 296.074368 
L 890.942048 296.074368 
z
" style="fill:#0000ff;stroke:#000000;stroke-linejoin:miter;"/>
   </g>
   <g id="patch_94">
    <path clip-path="url(#p67c2cf75d0)" d="M 893.422803 806.04 
L 900.022671 806.04 
L 900.022671 279.451872 
L 893.422803 279.451872 
z
" style="fill:#0000ff;stroke:#000000;stroke-linejoin:miter;"/>
   </g>
   <g id="patch_95">
    <path clip-path="url(#p67c2cf75d0)" d="M 895.903558 806.04 
L 902.503427 806.04 
L 902.503427 265.652064 
L 895.903558 265.652064 
z
" style="fill:#0000ff;stroke:#000000;stroke-linejoin:miter;"/>
   </g>
   <g id="patch_96">
    <path clip-path="url(#p67c2cf75d0)" d="M 898.384313 806.04 
L 904.984182 806.04 
L 904.984182 257.811264 
L 898.384313 257.811264 
z
" style="fill:#0000ff;stroke:#000000;stroke-linejoin:miter;"/>
   </g>
   <g id="patch_97">
    <path clip-path="url(#p67c2cf75d0)" d="M 900.865068 806.04 
L 907.464937 806.04 
L 907.464937 250.597728 
L 900.865068 250.597728 
z
" style="fill:#0000ff;stroke:#000000;stroke-linejoin:miter;"/>
   </g>
   <g id="patch_98">
    <path clip-path="url(#p67c2cf75d0)" d="M 903.345823 806.04 
L 909.945692 806.04 
L 909.945692 238.36608 
L 903.345823 238.36608 
z
" style="fill:#0000ff;stroke:#000000;stroke-linejoin:miter;"/>
   </g>
   <g id="patch_99">
    <path clip-path="url(#p67c2cf75d0)" d="M 905.826578 806.04 
L 912.426447 806.04 
L 912.426447 214.84368 
L 905.826578 214.84368 
z
" style="fill:#0000ff;stroke:#000000;stroke-linejoin:miter;"/>
   </g>
   <g id="patch_100">
    <path clip-path="url(#p67c2cf75d0)" d="M 908.307333 806.04 
L 914.907202 806.04 
L 914.907202 182.225952 
L 908.307333 182.225952 
z
" style="fill:#0000ff;stroke:#000000;stroke-linejoin:miter;"/>
   </g>
   <g id="patch_101">
    <path clip-path="url(#p67c2cf75d0)" d="M 910.788088 806.04 
L 917.387957 806.04 
L 917.387957 196.966656 
L 910.788088 196.966656 
z
" style="fill:#0000ff;stroke:#000000;stroke-linejoin:miter;"/>
   </g>
   <g id="patch_102">
    <path clip-path="url(#p67c2cf75d0)" d="M 913.268843 806.04 
L 919.868712 806.04 
L 919.868712 165.289824 
L 913.268843 165.289824 
z
" style="fill:#0000ff;stroke:#000000;stroke-linejoin:miter;"/>
   </g>
   <g id="patch_103">
    <path clip-path="url(#p67c2cf75d0)" d="M 915.749598 806.04 
L 922.349467 806.04 
L 922.349467 156.508128 
L 915.749598 156.508128 
z
" style="fill:#0000ff;stroke:#000000;stroke-linejoin:miter;"/>
   </g>
   <g id="patch_104">
    <path clip-path="url(#p67c2cf75d0)" d="M 918.230353 806.04 
L 924.830222 806.04 
L 924.830222 166.544352 
L 918.230353 166.544352 
z
" style="fill:#0000ff;stroke:#000000;stroke-linejoin:miter;"/>
   </g>
   <g id="patch_105">
    <path clip-path="url(#p67c2cf75d0)" d="M 920.711108 806.04 
L 927.310977 806.04 
L 927.310977 133.926624 
L 920.711108 133.926624 
z
" style="fill:#0000ff;stroke:#000000;stroke-linejoin:miter;"/>
   </g>
   <g id="patch_106">
    <path clip-path="url(#p67c2cf75d0)" d="M 923.191863 806.04 
L 929.791732 806.04 
L 929.791732 138.944736 
L 923.191863 138.944736 
z
" style="fill:#0000ff;stroke:#000000;stroke-linejoin:miter;"/>
   </g>
   <g id="patch_107">
    <path clip-path="url(#p67c2cf75d0)" d="M 925.672618 806.04 
L 932.272487 806.04 
L 932.272487 153.058176 
L 925.672618 153.058176 
z
" style="fill:#0000ff;stroke:#000000;stroke-linejoin:miter;"/>
   </g>
   <g id="patch_108">
    <path clip-path="url(#p67c2cf75d0)" d="M 928.153374 806.04 
L 934.753242 806.04 
L 934.753242 144.903744 
L 928.153374 144.903744 
z
" style="fill:#0000ff;stroke:#000000;stroke-linejoin:miter;"/>
   </g>
   <g id="patch_109">
    <path clip-path="url(#p67c2cf75d0)" d="M 930.634129 806.04 
L 937.233997 806.04 
L 937.233997 116.0496 
L 930.634129 116.0496 
z
" style="fill:#0000ff;stroke:#000000;stroke-linejoin:miter;"/>
   </g>
   <g id="patch_110">
    <path clip-path="url(#p67c2cf75d0)" d="M 933.114884 806.04 
L 939.714752 806.04 
L 939.714752 141.767424 
L 933.114884 141.767424 
z
" style="fill:#0000ff;stroke:#000000;stroke-linejoin:miter;"/>
   </g>
   <g id="patch_111">
    <path clip-path="url(#p67c2cf75d0)" d="M 935.595639 806.04 
L 942.195507 806.04 
L 942.195507 143.021952 
L 935.595639 143.021952 
z
" style="fill:#0000ff;stroke:#000000;stroke-linejoin:miter;"/>
   </g>
   <g id="patch_112">
    <path clip-path="url(#p67c2cf75d0)" d="M 938.076394 806.04 
L 944.676262 806.04 
L 944.676262 125.772192 
L 938.076394 125.772192 
z
" style="fill:#0000ff;stroke:#000000;stroke-linejoin:miter;"/>
   </g>
   <g id="patch_113">
    <path clip-path="url(#p67c2cf75d0)" d="M 940.557149 806.04 
L 947.157018 806.04 
L 947.157018 135.808416 
L 940.557149 135.808416 
z
" style="fill:#0000ff;stroke:#000000;stroke-linejoin:miter;"/>
   </g>
   <g id="patch_114">
    <path clip-path="url(#p67c2cf75d0)" d="M 943.037904 806.04 
L 949.637773 806.04 
L 949.637773 136.749312 
L 943.037904 136.749312 
z
" style="fill:#0000ff;stroke:#000000;stroke-linejoin:miter;"/>
   </g>
   <g id="patch_115">
    <path clip-path="url(#p67c2cf75d0)" d="M 945.518659 806.04 
L 952.118528 806.04 
L 952.118528 155.2536 
L 945.518659 155.2536 
z
" style="fill:#0000ff;stroke:#000000;stroke-linejoin:miter;"/>
   </g>
   <g id="patch_116">
    <path clip-path="url(#p67c2cf75d0)" d="M 947.999414 806.04 
L 954.599283 806.04 
L 954.599283 132.985728 
L 947.999414 132.985728 
z
" style="fill:#0000ff;stroke:#000000;stroke-linejoin:miter;"/>
   </g>
   <g id="patch_117">
    <path clip-path="url(#p67c2cf75d0)" d="M 950.480169 806.04 
L 957.080038 806.04 
L 957.080038 142.081056 
L 950.480169 142.081056 
z
" style="fill:#0000ff;stroke:#000000;stroke-linejoin:miter;"/>
   </g>
   <g id="patch_118">
    <path clip-path="url(#p67c2cf75d0)" d="M 952.960924 806.04 
L 959.560793 806.04 
L 959.560793 157.135392 
L 952.960924 157.135392 
z
" style="fill:#0000ff;stroke:#000000;stroke-linejoin:miter;"/>
   </g>
   <g id="patch_119">
    <path clip-path="url(#p67c2cf75d0)" d="M 955.441679 806.04 
L 962.041548 806.04 
L 962.041548 180.34416 
L 955.441679 180.34416 
z
" style="fill:#0000ff;stroke:#000000;stroke-linejoin:miter;"/>
   </g>
   <g id="patch_120">
    <path clip-path="url(#p67c2cf75d0)" d="M 957.922434 806.04 
L 964.522303 806.04 
L 964.522303 184.735008 
L 957.922434 184.735008 
z
" style="fill:#0000ff;stroke:#000000;stroke-linejoin:miter;"/>
   </g>
   <g id="patch_121">
    <path clip-path="url(#p67c2cf75d0)" d="M 960.403189 806.04 
L 967.003058 806.04 
L 967.003058 213.589152 
L 960.403189 213.589152 
z
" style="fill:#0000ff;stroke:#000000;stroke-linejoin:miter;"/>
   </g>
   <g id="patch_122">
    <path clip-path="url(#p67c2cf75d0)" d="M 962.883944 806.04 
L 969.483813 806.04 
L 969.483813 194.771232 
L 962.883944 194.771232 
z
" style="fill:#0000ff;stroke:#000000;stroke-linejoin:miter;"/>
   </g>
   <g id="patch_123">
    <path clip-path="url(#p67c2cf75d0)" d="M 965.364699 806.04 
L 971.964568 806.04 
L 971.964568 228.95712 
L 965.364699 228.95712 
z
" style="fill:#0000ff;stroke:#000000;stroke-linejoin:miter;"/>
   </g>
   <g id="patch_124">
    <path clip-path="url(#p67c2cf75d0)" d="M 967.845454 806.04 
L 974.445323 806.04 
L 974.445323 254.361312 
L 967.845454 254.361312 
z
" style="fill:#0000ff;stroke:#000000;stroke-linejoin:miter;"/>
   </g>
   <g id="patch_125">
    <path clip-path="url(#p67c2cf75d0)" d="M 970.326209 806.04 
L 976.926078 806.04 
L 976.926078 254.988576 
L 970.326209 254.988576 
z
" style="fill:#0000ff;stroke:#000000;stroke-linejoin:miter;"/>
   </g>
   <g id="patch_126">
    <path clip-path="url(#p67c2cf75d0)" d="M 972.806965 806.04 
L 979.406833 806.04 
L 979.406833 248.715936 
L 972.806965 248.715936 
z
" style="fill:#0000ff;stroke:#000000;stroke-linejoin:miter;"/>
   </g>
   <g id="patch_127">
    <path clip-path="url(#p67c2cf75d0)" d="M 975.28772 806.04 
L 981.887588 806.04 
L 981.887588 255.302208 
L 975.28772 255.302208 
z
" style="fill:#0000ff;stroke:#000000;stroke-linejoin:miter;"/>
   </g>
   <g id="patch_128">
    <path clip-path="url(#p67c2cf75d0)" d="M 977.768475 806.04 
L 984.368343 806.04 
L 984.368343 293.565312 
L 977.768475 293.565312 
z
" style="fill:#0000ff;stroke:#000000;stroke-linejoin:miter;"/>
   </g>
   <g id="patch_129">
    <path clip-path="url(#p67c2cf75d0)" d="M 980.24923 806.04 
L 986.849098 806.04 
L 986.849098 295.133472 
L 980.24923 295.133472 
z
" style="fill:#0000ff;stroke:#000000;stroke-linejoin:miter;"/>
   </g>
   <g id="patch_130">
    <path clip-path="url(#p67c2cf75d0)" d="M 982.729985 806.04 
L 989.329854 806.04 
L 989.329854 331.828416 
L 982.729985 331.828416 
z
" style="fill:#0000ff;stroke:#000000;stroke-linejoin:miter;"/>
   </g>
   <g id="patch_131">
    <path clip-path="url(#p67c2cf75d0)" d="M 985.21074 806.04 
L 991.810609 806.04 
L 991.810609 347.196384 
L 985.21074 347.196384 
z
" style="fill:#0000ff;stroke:#000000;stroke-linejoin:miter;"/>
   </g>
   <g id="patch_132">
    <path clip-path="url(#p67c2cf75d0)" d="M 987.691495 806.04 
L 994.291364 806.04 
L 994.291364 354.096288 
L 987.691495 354.096288 
z
" style="fill:#0000ff;stroke:#000000;stroke-linejoin:miter;"/>
   </g>
   <g id="patch_133">
    <path clip-path="url(#p67c2cf75d0)" d="M 990.17225 806.04 
L 996.772119 806.04 
L 996.772119 381.382272 
L 990.17225 381.382272 
z
" style="fill:#0000ff;stroke:#000000;stroke-linejoin:miter;"/>
   </g>
   <g id="patch_134">
    <path clip-path="url(#p67c2cf75d0)" d="M 992.653005 806.04 
L 999.252874 806.04 
L 999.252874 421.213536 
L 992.653005 421.213536 
z
" style="fill:#0000ff;stroke:#000000;stroke-linejoin:miter;"/>
   </g>
   <g id="patch_135">
    <path clip-path="url(#p67c2cf75d0)" d="M 995.13376 806.04 
L 1001.733629 806.04 
L 1001.733629 422.154432 
L 995.13376 422.154432 
z
" style="fill:#0000ff;stroke:#000000;stroke-linejoin:miter;"/>
   </g>
   <g id="patch_136">
    <path clip-path="url(#p67c2cf75d0)" d="M 997.614515 806.04 
L 1004.214384 806.04 
L 1004.214384 436.267872 
L 997.614515 436.267872 
z
" style="fill:#0000ff;stroke:#000000;stroke-linejoin:miter;"/>
   </g>
   <g id="patch_137">
    <path clip-path="url(#p67c2cf75d0)" d="M 1000.09527 806.04 
L 1006.695139 806.04 
L 1006.695139 462.926592 
L 1000.09527 462.926592 
z
" style="fill:#0000ff;stroke:#000000;stroke-linejoin:miter;"/>
   </g>
   <g id="patch_138">
    <path clip-path="url(#p67c2cf75d0)" d="M 1002.576025 806.04 
L 1009.175894 806.04 
L 1009.175894 482.058144 
L 1002.576025 482.058144 
z
" style="fill:#0000ff;stroke:#000000;stroke-linejoin:miter;"/>
   </g>
   <g id="patch_139">
    <path clip-path="url(#p67c2cf75d0)" d="M 1005.05678 806.04 
L 1011.656649 806.04 
L 1011.656649 485.821728 
L 1005.05678 485.821728 
z
" style="fill:#0000ff;stroke:#000000;stroke-linejoin:miter;"/>
   </g>
   <g id="patch_140">
    <path clip-path="url(#p67c2cf75d0)" d="M 1007.537535 806.04 
L 1014.137404 806.04 
L 1014.137404 517.812192 
L 1007.537535 517.812192 
z
" style="fill:#0000ff;stroke:#000000;stroke-linejoin:miter;"/>
   </g>
   <g id="patch_141">
    <path clip-path="url(#p67c2cf75d0)" d="M 1010.01829 806.04 
L 1016.618159 806.04 
L 1016.618159 538.825536 
L 1010.01829 538.825536 
z
" style="fill:#0000ff;stroke:#000000;stroke-linejoin:miter;"/>
   </g>
   <g id="patch_142">
    <path clip-path="url(#p67c2cf75d0)" d="M 1012.499045 806.04 
L 1019.098914 806.04 
L 1019.098914 550.116288 
L 1012.499045 550.116288 
z
" style="fill:#0000ff;stroke:#000000;stroke-linejoin:miter;"/>
   </g>
   <g id="patch_143">
    <path clip-path="url(#p67c2cf75d0)" d="M 1014.979801 806.04 
L 1021.579669 806.04 
L 1021.579669 553.879872 
L 1014.979801 553.879872 
z
" style="fill:#0000ff;stroke:#000000;stroke-linejoin:miter;"/>
   </g>
   <g id="patch_144">
    <path clip-path="url(#p67c2cf75d0)" d="M 1017.460556 806.04 
L 1024.060424 806.04 
L 1024.060424 571.129632 
L 1017.460556 571.129632 
z
" style="fill:#0000ff;stroke:#000000;stroke-linejoin:miter;"/>
   </g>
   <g id="patch_145">
    <path clip-path="url(#p67c2cf75d0)" d="M 1019.941311 806.04 
L 1026.541179 806.04 
L 1026.541179 592.456608 
L 1019.941311 592.456608 
z
" style="fill:#0000ff;stroke:#000000;stroke-linejoin:miter;"/>
   </g>
   <g id="patch_146">
    <path clip-path="url(#p67c2cf75d0)" d="M 1022.422066 806.04 
L 1029.021934 806.04 
L 1029.021934 616.606272 
L 1022.422066 616.606272 
z
" style="fill:#0000ff;stroke:#000000;stroke-linejoin:miter;"/>
   </g>
   <g id="patch_147">
    <path clip-path="url(#p67c2cf75d0)" d="M 1024.902821 806.04 
L 1031.50269 806.04 
L 1031.50269 621.938016 
L 1024.902821 621.938016 
z
" style="fill:#0000ff;stroke:#000000;stroke-linejoin:miter;"/>
   </g>
   <g id="patch_148">
    <path clip-path="url(#p67c2cf75d0)" d="M 1027.383576 806.04 
L 1033.983445 806.04 
L 1033.983445 634.483296 
L 1027.383576 634.483296 
z
" style="fill:#0000ff;stroke:#000000;stroke-linejoin:miter;"/>
   </g>
   <g id="patch_149">
    <path clip-path="url(#p67c2cf75d0)" d="M 1029.864331 806.04 
L 1036.4642 806.04 
L 1036.4642 667.728288 
L 1029.864331 667.728288 
z
" style="fill:#0000ff;stroke:#000000;stroke-linejoin:miter;"/>
   </g>
   <g id="patch_150">
    <path clip-path="url(#p67c2cf75d0)" d="M 1032.345086 806.04 
L 1038.944955 806.04 
L 1038.944955 653.92848 
L 1032.345086 653.92848 
z
" style="fill:#0000ff;stroke:#000000;stroke-linejoin:miter;"/>
   </g>
   <g id="patch_151">
    <path clip-path="url(#p67c2cf75d0)" d="M 1034.825841 806.04 
L 1041.42571 806.04 
L 1041.42571 677.45088 
L 1034.825841 677.45088 
z
" style="fill:#0000ff;stroke:#000000;stroke-linejoin:miter;"/>
   </g>
   <g id="patch_152">
    <path clip-path="url(#p67c2cf75d0)" d="M 1037.306596 806.04 
L 1043.906465 806.04 
L 1043.906465 695.327904 
L 1037.306596 695.327904 
z
" style="fill:#0000ff;stroke:#000000;stroke-linejoin:miter;"/>
   </g>
   <g id="patch_153">
    <path clip-path="url(#p67c2cf75d0)" d="M 1039.787351 806.04 
L 1046.38722 806.04 
L 1046.38722 691.877952 
L 1039.787351 691.877952 
z
" style="fill:#0000ff;stroke:#000000;stroke-linejoin:miter;"/>
   </g>
   <g id="patch_154">
    <path clip-path="url(#p67c2cf75d0)" d="M 1042.268106 806.04 
L 1048.867975 806.04 
L 1048.867975 711.636768 
L 1042.268106 711.636768 
z
" style="fill:#0000ff;stroke:#000000;stroke-linejoin:miter;"/>
   </g>
   <g id="patch_155">
    <path clip-path="url(#p67c2cf75d0)" d="M 1044.748861 806.04 
L 1051.34873 806.04 
L 1051.34873 722.613888 
L 1044.748861 722.613888 
z
" style="fill:#0000ff;stroke:#000000;stroke-linejoin:miter;"/>
   </g>
   <g id="patch_156">
    <path clip-path="url(#p67c2cf75d0)" d="M 1047.229616 806.04 
L 1053.829485 806.04 
L 1053.829485 715.713984 
L 1047.229616 715.713984 
z
" style="fill:#0000ff;stroke:#000000;stroke-linejoin:miter;"/>
   </g>
   <g id="patch_157">
    <path clip-path="url(#p67c2cf75d0)" d="M 1049.710371 806.04 
L 1056.31024 806.04 
L 1056.31024 732.963744 
L 1049.710371 732.963744 
z
" style="fill:#0000ff;stroke:#000000;stroke-linejoin:miter;"/>
   </g>
   <g id="patch_158">
    <path clip-path="url(#p67c2cf75d0)" d="M 1052.191126 806.04 
L 1058.790995 806.04 
L 1058.790995 737.981856 
L 1052.191126 737.981856 
z
" style="fill:#0000ff;stroke:#000000;stroke-linejoin:miter;"/>
   </g>
   <g id="patch_159">
    <path clip-path="url(#p67c2cf75d0)" d="M 1054.671881 806.04 
L 1061.27175 806.04 
L 1061.27175 741.74544 
L 1054.671881 741.74544 
z
" style="fill:#0000ff;stroke:#000000;stroke-linejoin:miter;"/>
   </g>
   <g id="patch_160">
    <path clip-path="url(#p67c2cf75d0)" d="M 1057.152636 806.04 
L 1063.752505 806.04 
L 1063.752505 750.213504 
L 1057.152636 750.213504 
z
" style="fill:#0000ff;stroke:#000000;stroke-linejoin:miter;"/>
   </g>
   <g id="patch_161">
    <path clip-path="url(#p67c2cf75d0)" d="M 1059.633392 806.04 
L 1066.23326 806.04 
L 1066.23326 766.208736 
L 1059.633392 766.208736 
z
" style="fill:#0000ff;stroke:#000000;stroke-linejoin:miter;"/>
   </g>
   <g id="patch_162">
    <path clip-path="url(#p67c2cf75d0)" d="M 1062.114147 806.04 
L 1068.714015 806.04 
L 1068.714015 766.208736 
L 1062.114147 766.208736 
z
" style="fill:#0000ff;stroke:#000000;stroke-linejoin:miter;"/>
   </g>
   <g id="patch_163">
    <path clip-path="url(#p67c2cf75d0)" d="M 1064.594902 806.04 
L 1071.19477 806.04 
L 1071.19477 767.149632 
L 1064.594902 767.149632 
z
" style="fill:#0000ff;stroke:#000000;stroke-linejoin:miter;"/>
   </g>
   <g id="patch_164">
    <path clip-path="url(#p67c2cf75d0)" d="M 1067.075657 806.04 
L 1073.675525 806.04 
L 1073.675525 773.422272 
L 1067.075657 773.422272 
z
" style="fill:#0000ff;stroke:#000000;stroke-linejoin:miter;"/>
   </g>
   <g id="patch_165">
    <path clip-path="url(#p67c2cf75d0)" d="M 1069.556412 806.04 
L 1076.156281 806.04 
L 1076.156281 779.067648 
L 1069.556412 779.067648 
z
" style="fill:#0000ff;stroke:#000000;stroke-linejoin:miter;"/>
   </g>
   <g id="patch_166">
    <path clip-path="url(#p67c2cf75d0)" d="M 1072.037167 806.04 
L 1078.637036 806.04 
L 1078.637036 781.263072 
L 1072.037167 781.263072 
z
" style="fill:#0000ff;stroke:#000000;stroke-linejoin:miter;"/>
   </g>
   <g id="patch_167">
    <path clip-path="url(#p67c2cf75d0)" d="M 1074.517922 806.04 
L 1081.117791 806.04 
L 1081.117791 780.635808 
L 1074.517922 780.635808 
z
" style="fill:#0000ff;stroke:#000000;stroke-linejoin:miter;"/>
   </g>
   <g id="patch_168">
    <path clip-path="url(#p67c2cf75d0)" d="M 1076.998677 806.04 
L 1083.598546 806.04 
L 1083.598546 779.067648 
L 1076.998677 779.067648 
z
" style="fill:#0000ff;stroke:#000000;stroke-linejoin:miter;"/>
   </g>
   <g id="patch_169">
    <path clip-path="url(#p67c2cf75d0)" d="M 1079.479432 806.04 
L 1086.079301 806.04 
L 1086.079301 789.731136 
L 1079.479432 789.731136 
z
" style="fill:#0000ff;stroke:#000000;stroke-linejoin:miter;"/>
   </g>
   <g id="patch_170">
    <path clip-path="url(#p67c2cf75d0)" d="M 1081.960187 806.04 
L 1088.560056 806.04 
L 1088.560056 792.867456 
L 1081.960187 792.867456 
z
" style="fill:#0000ff;stroke:#000000;stroke-linejoin:miter;"/>
   </g>
   <g id="patch_171">
    <path clip-path="url(#p67c2cf75d0)" d="M 1084.440942 806.04 
L 1091.040811 806.04 
L 1091.040811 792.240192 
L 1084.440942 792.240192 
z
" style="fill:#0000ff;stroke:#000000;stroke-linejoin:miter;"/>
   </g>
   <g id="patch_172">
    <path clip-path="url(#p67c2cf75d0)" d="M 1086.921697 806.04 
L 1093.521566 806.04 
L 1093.521566 796.63104 
L 1086.921697 796.63104 
z
" style="fill:#0000ff;stroke:#000000;stroke-linejoin:miter;"/>
   </g>
   <g id="patch_173">
    <path clip-path="url(#p67c2cf75d0)" d="M 1089.402452 806.04 
L 1096.002321 806.04 
L 1096.002321 797.571936 
L 1089.402452 797.571936 
z
" style="fill:#0000ff;stroke:#000000;stroke-linejoin:miter;"/>
   </g>
   <g id="patch_174">
    <path clip-path="url(#p67c2cf75d0)" d="M 1091.883207 806.04 
L 1098.483076 806.04 
L 1098.483076 797.885568 
L 1091.883207 797.885568 
z
" style="fill:#0000ff;stroke:#000000;stroke-linejoin:miter;"/>
   </g>
   <g id="patch_175">
    <path clip-path="url(#p67c2cf75d0)" d="M 1094.363962 806.04 
L 1100.963831 806.04 
L 1100.963831 797.571936 
L 1094.363962 797.571936 
z
" style="fill:#0000ff;stroke:#000000;stroke-linejoin:miter;"/>
   </g>
   <g id="patch_176">
    <path clip-path="url(#p67c2cf75d0)" d="M 1096.844717 806.04 
L 1103.444586 806.04 
L 1103.444586 801.021888 
L 1096.844717 801.021888 
z
" style="fill:#0000ff;stroke:#000000;stroke-linejoin:miter;"/>
   </g>
   <g id="patch_177">
    <path clip-path="url(#p67c2cf75d0)" d="M 1099.325472 806.04 
L 1105.925341 806.04 
L 1105.925341 800.080992 
L 1099.325472 800.080992 
z
" style="fill:#0000ff;stroke:#000000;stroke-linejoin:miter;"/>
   </g>
   <g id="patch_178">
    <path clip-path="url(#p67c2cf75d0)" d="M 1101.806228 806.04 
L 1108.406096 806.04 
L 1108.406096 800.394624 
L 1101.806228 800.394624 
z
" style="fill:#0000ff;stroke:#000000;stroke-linejoin:miter;"/>
   </g>
   <g id="patch_179">
    <path clip-path="url(#p67c2cf75d0)" d="M 1104.286983 806.04 
L 1110.886851 806.04 
L 1110.886851 799.453728 
L 1104.286983 799.453728 
z
" style="fill:#0000ff;stroke:#000000;stroke-linejoin:miter;"/>
   </g>
   <g id="patch_180">
    <path clip-path="url(#p67c2cf75d0)" d="M 1106.767738 806.04 
L 1113.367606 806.04 
L 1113.367606 802.276416 
L 1106.767738 802.276416 
z
" style="fill:#0000ff;stroke:#000000;stroke-linejoin:miter;"/>
   </g>
   <g id="patch_181">
    <path clip-path="url(#p67c2cf75d0)" d="M 1109.248493 806.04 
L 1115.848361 806.04 
L 1115.848361 801.649152 
L 1109.248493 801.649152 
z
" style="fill:#0000ff;stroke:#000000;stroke-linejoin:miter;"/>
   </g>
   <g id="patch_182">
    <path clip-path="url(#p67c2cf75d0)" d="M 1111.729248 806.04 
L 1118.329117 806.04 
L 1118.329117 803.844576 
L 1111.729248 803.844576 
z
" style="fill:#0000ff;stroke:#000000;stroke-linejoin:miter;"/>
   </g>
   <g id="patch_183">
    <path clip-path="url(#p67c2cf75d0)" d="M 1114.210003 806.04 
L 1120.809872 806.04 
L 1120.809872 804.158208 
L 1114.210003 804.158208 
z
" style="fill:#0000ff;stroke:#000000;stroke-linejoin:miter;"/>
   </g>
   <g id="patch_184">
    <path clip-path="url(#p67c2cf75d0)" d="M 1116.690758 806.04 
L 1123.290627 806.04 
L 1123.290627 804.47184 
L 1116.690758 804.47184 
z
" style="fill:#0000ff;stroke:#000000;stroke-linejoin:miter;"/>
   </g>
   <g id="patch_185">
    <path clip-path="url(#p67c2cf75d0)" d="M 1119.171513 806.04 
L 1125.771382 806.04 
L 1125.771382 803.844576 
L 1119.171513 803.844576 
z
" style="fill:#0000ff;stroke:#000000;stroke-linejoin:miter;"/>
   </g>
   <g id="patch_186">
    <path clip-path="url(#p67c2cf75d0)" d="M 1121.652268 806.04 
L 1128.252137 806.04 
L 1128.252137 804.785472 
L 1121.652268 804.785472 
z
" style="fill:#0000ff;stroke:#000000;stroke-linejoin:miter;"/>
   </g>
   <g id="patch_187">
    <path clip-path="url(#p67c2cf75d0)" d="M 1124.133023 806.04 
L 1130.732892 806.04 
L 1130.732892 804.785472 
L 1124.133023 804.785472 
z
" style="fill:#0000ff;stroke:#000000;stroke-linejoin:miter;"/>
   </g>
   <g id="patch_188">
    <path clip-path="url(#p67c2cf75d0)" d="M 1126.613778 806.04 
L 1133.213647 806.04 
L 1133.213647 805.726368 
L 1126.613778 805.726368 
z
" style="fill:#0000ff;stroke:#000000;stroke-linejoin:miter;"/>
   </g>
   <g id="patch_189">
    <path clip-path="url(#p67c2cf75d0)" d="M 1129.094533 806.04 
L 1135.694402 806.04 
L 1135.694402 805.726368 
L 1129.094533 805.726368 
z
" style="fill:#0000ff;stroke:#000000;stroke-linejoin:miter;"/>
   </g>
   <g id="patch_190">
    <path clip-path="url(#p67c2cf75d0)" d="M 1131.575288 806.04 
L 1138.175157 806.04 
L 1138.175157 805.412736 
L 1131.575288 805.412736 
z
" style="fill:#0000ff;stroke:#000000;stroke-linejoin:miter;"/>
   </g>
   <g id="patch_191">
    <path clip-path="url(#p67c2cf75d0)" d="M 1134.056043 806.04 
L 1140.655912 806.04 
L 1140.655912 805.412736 
L 1134.056043 805.412736 
z
" style="fill:#0000ff;stroke:#000000;stroke-linejoin:miter;"/>
   </g>
   <g id="patch_192">
    <path clip-path="url(#p67c2cf75d0)" d="M 1136.536798 806.04 
L 1143.136667 806.04 
L 1143.136667 805.726368 
L 1136.536798 805.726368 
z
" style="fill:#0000ff;stroke:#000000;stroke-linejoin:miter;"/>
   </g>
   <g id="patch_193">
    <path clip-path="url(#p67c2cf75d0)" d="M 1139.017553 806.04 
L 1145.617422 806.04 
L 1145.617422 805.726368 
L 1139.017553 805.726368 
z
" style="fill:#0000ff;stroke:#000000;stroke-linejoin:miter;"/>
   </g>
   <g id="patch_194">
    <path clip-path="url(#p67c2cf75d0)" d="M 1141.498308 806.04 
L 1148.098177 806.04 
L 1148.098177 805.726368 
L 1141.498308 805.726368 
z
" style="fill:#0000ff;stroke:#000000;stroke-linejoin:miter;"/>
   </g>
   <g id="patch_195">
    <path clip-path="url(#p67c2cf75d0)" d="M 1143.979063 806.04 
L 1150.578932 806.04 
L 1150.578932 806.04 
L 1143.979063 806.04 
z
" style="fill:#0000ff;stroke:#000000;stroke-linejoin:miter;"/>
   </g>
   <g id="patch_196">
    <path clip-path="url(#p67c2cf75d0)" d="M 1146.459819 806.04 
L 1153.059687 806.04 
L 1153.059687 805.726368 
L 1146.459819 805.726368 
z
" style="fill:#0000ff;stroke:#000000;stroke-linejoin:miter;"/>
   </g>
   <g id="patch_197">
    <path clip-path="url(#p67c2cf75d0)" d="M 1148.940574 806.04 
L 1155.540442 806.04 
L 1155.540442 806.04 
L 1148.940574 806.04 
z
" style="fill:#0000ff;stroke:#000000;stroke-linejoin:miter;"/>
   </g>
   <g id="patch_198">
    <path clip-path="url(#p67c2cf75d0)" d="M 1151.421329 806.04 
L 1158.021197 806.04 
L 1158.021197 806.04 
L 1151.421329 806.04 
z
" style="fill:#0000ff;stroke:#000000;stroke-linejoin:miter;"/>
   </g>
   <g id="patch_199">
    <path clip-path="url(#p67c2cf75d0)" d="M 1153.902084 806.04 
L 1160.501952 806.04 
L 1160.501952 806.04 
L 1153.902084 806.04 
z
" style="fill:#0000ff;stroke:#000000;stroke-linejoin:miter;"/>
   </g>
   <g id="patch_200">
    <path clip-path="url(#p67c2cf75d0)" d="M 1156.382839 806.04 
L 1162.982708 806.04 
L 1162.982708 805.726368 
L 1156.382839 805.726368 
z
" style="fill:#0000ff;stroke:#000000;stroke-linejoin:miter;"/>
   </g>
   <g id="patch_201">
    <path clip-path="url(#p67c2cf75d0)" d="M 1158.863594 806.04 
L 1165.463463 806.04 
L 1165.463463 806.04 
L 1158.863594 806.04 
z
" style="fill:#0000ff;stroke:#000000;stroke-linejoin:miter;"/>
   </g>
   <g id="patch_202">
    <path clip-path="url(#p67c2cf75d0)" d="M 1161.344349 806.04 
L 1167.944218 806.04 
L 1167.944218 805.726368 
L 1161.344349 805.726368 
z
" style="fill:#0000ff;stroke:#000000;stroke-linejoin:miter;"/>
   </g>
   <g id="patch_203">
    <path d="M 91.1475 21.96 
L 1411.12125 21.96 
" style="fill:none;stroke:#000000;stroke-linecap:square;stroke-linejoin:miter;"/>
   </g>
   <g id="patch_204">
    <path d="M 1411.12125 806.04 
L 1411.12125 21.96 
" style="fill:none;stroke:#000000;stroke-linecap:square;stroke-linejoin:miter;"/>
   </g>
   <g id="patch_205">
    <path d="M 91.1475 806.04 
L 1411.12125 806.04 
" style="fill:none;stroke:#000000;stroke-linecap:square;stroke-linejoin:miter;"/>
   </g>
   <g id="patch_206">
    <path d="M 91.1475 806.04 
L 91.1475 21.96 
" style="fill:none;stroke:#000000;stroke-linecap:square;stroke-linejoin:miter;"/>
   </g>
   <g id="matplotlib.axis_1">
    <g id="xtick_1">
     <g id="line2d_1">
      <defs>
       <path d="M 0 0 
L 0 -4 
" id="m32b84571a8" style="stroke:#000000;stroke-width:0.5;"/>
      </defs>
      <g>
       <use style="stroke:#000000;stroke-width:0.5;" x="91.1475" xlink:href="#m32b84571a8" y="806.04"/>
      </g>
     </g>
     <g id="line2d_2">
      <defs>
       <path d="M 0 0 
L 0 4 
" id="m8786edb864" style="stroke:#000000;stroke-width:0.5;"/>
      </defs>
      <g>
       <use style="stroke:#000000;stroke-width:0.5;" x="91.1475" xlink:href="#m8786edb864" y="21.96"/>
      </g>
     </g>
     <g id="text_1">
      <!-- 0.0 -->
      <defs>
       <path d="M 31.78125 66.40625 
Q 24.171875 66.40625 20.328125 58.90625 
Q 16.5 51.421875 16.5 36.375 
Q 16.5 21.390625 20.328125 13.890625 
Q 24.171875 6.390625 31.78125 6.390625 
Q 39.453125 6.390625 43.28125 13.890625 
Q 47.125 21.390625 47.125 36.375 
Q 47.125 51.421875 43.28125 58.90625 
Q 39.453125 66.40625 31.78125 66.40625 
M 31.78125 74.21875 
Q 44.046875 74.21875 50.515625 64.515625 
Q 56.984375 54.828125 56.984375 36.375 
Q 56.984375 17.96875 50.515625 8.265625 
Q 44.046875 -1.421875 31.78125 -1.421875 
Q 19.53125 -1.421875 13.0625 8.265625 
Q 6.59375 17.96875 6.59375 36.375 
Q 6.59375 54.828125 13.0625 64.515625 
Q 19.53125 74.21875 31.78125 74.21875 
" id="BitstreamVeraSans-Roman-30"/>
       <path d="M 10.6875 12.40625 
L 21 12.40625 
L 21 0 
L 10.6875 0 
z
" id="BitstreamVeraSans-Roman-2e"/>
      </defs>
      <g transform="translate(75.244375 825.236875)scale(0.2 -0.2)">
       <use xlink:href="#BitstreamVeraSans-Roman-30"/>
       <use x="63.623046875" xlink:href="#BitstreamVeraSans-Roman-2e"/>
       <use x="95.41015625" xlink:href="#BitstreamVeraSans-Roman-30"/>
      </g>
     </g>
    </g>
    <g id="xtick_2">
     <g id="line2d_3">
      <g>
       <use style="stroke:#000000;stroke-width:0.5;" x="355.14225" xlink:href="#m32b84571a8" y="806.04"/>
      </g>
     </g>
     <g id="line2d_4">
      <g>
       <use style="stroke:#000000;stroke-width:0.5;" x="355.14225" xlink:href="#m8786edb864" y="21.96"/>
      </g>
     </g>
     <g id="text_2">
      <!-- 0.2 -->
      <defs>
       <path d="M 19.1875 8.296875 
L 53.609375 8.296875 
L 53.609375 0 
L 7.328125 0 
L 7.328125 8.296875 
Q 12.9375 14.109375 22.625 23.890625 
Q 32.328125 33.6875 34.8125 36.53125 
Q 39.546875 41.84375 41.421875 45.53125 
Q 43.3125 49.21875 43.3125 52.78125 
Q 43.3125 58.59375 39.234375 62.25 
Q 35.15625 65.921875 28.609375 65.921875 
Q 23.96875 65.921875 18.8125 64.3125 
Q 13.671875 62.703125 7.8125 59.421875 
L 7.8125 69.390625 
Q 13.765625 71.78125 18.9375 73 
Q 24.125 74.21875 28.421875 74.21875 
Q 39.75 74.21875 46.484375 68.546875 
Q 53.21875 62.890625 53.21875 53.421875 
Q 53.21875 48.921875 51.53125 44.890625 
Q 49.859375 40.875 45.40625 35.40625 
Q 44.1875 33.984375 37.640625 27.21875 
Q 31.109375 20.453125 19.1875 8.296875 
" id="BitstreamVeraSans-Roman-32"/>
      </defs>
      <g transform="translate(339.239125 825.236875)scale(0.2 -0.2)">
       <use xlink:href="#BitstreamVeraSans-Roman-30"/>
       <use x="63.623046875" xlink:href="#BitstreamVeraSans-Roman-2e"/>
       <use x="95.41015625" xlink:href="#BitstreamVeraSans-Roman-32"/>
      </g>
     </g>
    </g>
    <g id="xtick_3">
     <g id="line2d_5">
      <g>
       <use style="stroke:#000000;stroke-width:0.5;" x="619.137" xlink:href="#m32b84571a8" y="806.04"/>
      </g>
     </g>
     <g id="line2d_6">
      <g>
       <use style="stroke:#000000;stroke-width:0.5;" x="619.137" xlink:href="#m8786edb864" y="21.96"/>
      </g>
     </g>
     <g id="text_3">
      <!-- 0.4 -->
      <defs>
       <path d="M 37.796875 64.3125 
L 12.890625 25.390625 
L 37.796875 25.390625 
z
M 35.203125 72.90625 
L 47.609375 72.90625 
L 47.609375 25.390625 
L 58.015625 25.390625 
L 58.015625 17.1875 
L 47.609375 17.1875 
L 47.609375 0 
L 37.796875 0 
L 37.796875 17.1875 
L 4.890625 17.1875 
L 4.890625 26.703125 
z
" id="BitstreamVeraSans-Roman-34"/>
      </defs>
      <g transform="translate(603.233875 825.236875)scale(0.2 -0.2)">
       <use xlink:href="#BitstreamVeraSans-Roman-30"/>
       <use x="63.623046875" xlink:href="#BitstreamVeraSans-Roman-2e"/>
       <use x="95.41015625" xlink:href="#BitstreamVeraSans-Roman-34"/>
      </g>
     </g>
    </g>
    <g id="xtick_4">
     <g id="line2d_7">
      <g>
       <use style="stroke:#000000;stroke-width:0.5;" x="883.13175" xlink:href="#m32b84571a8" y="806.04"/>
      </g>
     </g>
     <g id="line2d_8">
      <g>
       <use style="stroke:#000000;stroke-width:0.5;" x="883.13175" xlink:href="#m8786edb864" y="21.96"/>
      </g>
     </g>
     <g id="text_4">
      <!-- 0.6 -->
      <defs>
       <path d="M 33.015625 40.375 
Q 26.375 40.375 22.484375 35.828125 
Q 18.609375 31.296875 18.609375 23.390625 
Q 18.609375 15.53125 22.484375 10.953125 
Q 26.375 6.390625 33.015625 6.390625 
Q 39.65625 6.390625 43.53125 10.953125 
Q 47.40625 15.53125 47.40625 23.390625 
Q 47.40625 31.296875 43.53125 35.828125 
Q 39.65625 40.375 33.015625 40.375 
M 52.59375 71.296875 
L 52.59375 62.3125 
Q 48.875 64.0625 45.09375 64.984375 
Q 41.3125 65.921875 37.59375 65.921875 
Q 27.828125 65.921875 22.671875 59.328125 
Q 17.53125 52.734375 16.796875 39.40625 
Q 19.671875 43.65625 24.015625 45.921875 
Q 28.375 48.1875 33.59375 48.1875 
Q 44.578125 48.1875 50.953125 41.515625 
Q 57.328125 34.859375 57.328125 23.390625 
Q 57.328125 12.15625 50.6875 5.359375 
Q 44.046875 -1.421875 33.015625 -1.421875 
Q 20.359375 -1.421875 13.671875 8.265625 
Q 6.984375 17.96875 6.984375 36.375 
Q 6.984375 53.65625 15.1875 63.9375 
Q 23.390625 74.21875 37.203125 74.21875 
Q 40.921875 74.21875 44.703125 73.484375 
Q 48.484375 72.75 52.59375 71.296875 
" id="BitstreamVeraSans-Roman-36"/>
      </defs>
      <g transform="translate(867.228625 825.236875)scale(0.2 -0.2)">
       <use xlink:href="#BitstreamVeraSans-Roman-30"/>
       <use x="63.623046875" xlink:href="#BitstreamVeraSans-Roman-2e"/>
       <use x="95.41015625" xlink:href="#BitstreamVeraSans-Roman-36"/>
      </g>
     </g>
    </g>
    <g id="xtick_5">
     <g id="line2d_9">
      <g>
       <use style="stroke:#000000;stroke-width:0.5;" x="1147.1265" xlink:href="#m32b84571a8" y="806.04"/>
      </g>
     </g>
     <g id="line2d_10">
      <g>
       <use style="stroke:#000000;stroke-width:0.5;" x="1147.1265" xlink:href="#m8786edb864" y="21.96"/>
      </g>
     </g>
     <g id="text_5">
      <!-- 0.8 -->
      <defs>
       <path d="M 31.78125 34.625 
Q 24.75 34.625 20.71875 30.859375 
Q 16.703125 27.09375 16.703125 20.515625 
Q 16.703125 13.921875 20.71875 10.15625 
Q 24.75 6.390625 31.78125 6.390625 
Q 38.8125 6.390625 42.859375 10.171875 
Q 46.921875 13.96875 46.921875 20.515625 
Q 46.921875 27.09375 42.890625 30.859375 
Q 38.875 34.625 31.78125 34.625 
M 21.921875 38.8125 
Q 15.578125 40.375 12.03125 44.71875 
Q 8.5 49.078125 8.5 55.328125 
Q 8.5 64.0625 14.71875 69.140625 
Q 20.953125 74.21875 31.78125 74.21875 
Q 42.671875 74.21875 48.875 69.140625 
Q 55.078125 64.0625 55.078125 55.328125 
Q 55.078125 49.078125 51.53125 44.71875 
Q 48 40.375 41.703125 38.8125 
Q 48.828125 37.15625 52.796875 32.3125 
Q 56.78125 27.484375 56.78125 20.515625 
Q 56.78125 9.90625 50.3125 4.234375 
Q 43.84375 -1.421875 31.78125 -1.421875 
Q 19.734375 -1.421875 13.25 4.234375 
Q 6.78125 9.90625 6.78125 20.515625 
Q 6.78125 27.484375 10.78125 32.3125 
Q 14.796875 37.15625 21.921875 38.8125 
M 18.3125 54.390625 
Q 18.3125 48.734375 21.84375 45.5625 
Q 25.390625 42.390625 31.78125 42.390625 
Q 38.140625 42.390625 41.71875 45.5625 
Q 45.3125 48.734375 45.3125 54.390625 
Q 45.3125 60.0625 41.71875 63.234375 
Q 38.140625 66.40625 31.78125 66.40625 
Q 25.390625 66.40625 21.84375 63.234375 
Q 18.3125 60.0625 18.3125 54.390625 
" id="BitstreamVeraSans-Roman-38"/>
      </defs>
      <g transform="translate(1131.223375 825.236875)scale(0.2 -0.2)">
       <use xlink:href="#BitstreamVeraSans-Roman-30"/>
       <use x="63.623046875" xlink:href="#BitstreamVeraSans-Roman-2e"/>
       <use x="95.41015625" xlink:href="#BitstreamVeraSans-Roman-38"/>
      </g>
     </g>
    </g>
    <g id="xtick_6">
     <g id="line2d_11">
      <g>
       <use style="stroke:#000000;stroke-width:0.5;" x="1411.12125" xlink:href="#m32b84571a8" y="806.04"/>
      </g>
     </g>
     <g id="line2d_12">
      <g>
       <use style="stroke:#000000;stroke-width:0.5;" x="1411.12125" xlink:href="#m8786edb864" y="21.96"/>
      </g>
     </g>
     <g id="text_6">
      <!-- 1.0 -->
      <defs>
       <path d="M 12.40625 8.296875 
L 28.515625 8.296875 
L 28.515625 63.921875 
L 10.984375 60.40625 
L 10.984375 69.390625 
L 28.421875 72.90625 
L 38.28125 72.90625 
L 38.28125 8.296875 
L 54.390625 8.296875 
L 54.390625 0 
L 12.40625 0 
z
" id="BitstreamVeraSans-Roman-31"/>
      </defs>
      <g transform="translate(1395.218125 825.236875)scale(0.2 -0.2)">
       <use xlink:href="#BitstreamVeraSans-Roman-31"/>
       <use x="63.623046875" xlink:href="#BitstreamVeraSans-Roman-2e"/>
       <use x="95.41015625" xlink:href="#BitstreamVeraSans-Roman-30"/>
      </g>
     </g>
    </g>
    <g id="text_7">
     <!-- correlation -->
     <defs>
      <path d="M 54.890625 33.015625 
L 54.890625 0 
L 45.90625 0 
L 45.90625 32.71875 
Q 45.90625 40.484375 42.875 44.328125 
Q 39.84375 48.1875 33.796875 48.1875 
Q 26.515625 48.1875 22.3125 43.546875 
Q 18.109375 38.921875 18.109375 30.90625 
L 18.109375 0 
L 9.078125 0 
L 9.078125 54.6875 
L 18.109375 54.6875 
L 18.109375 46.1875 
Q 21.34375 51.125 25.703125 53.5625 
Q 30.078125 56 35.796875 56 
Q 45.21875 56 50.046875 50.171875 
Q 54.890625 44.34375 54.890625 33.015625 
" id="BitstreamVeraSans-Roman-6e"/>
      <path d="M 41.109375 46.296875 
Q 39.59375 47.171875 37.8125 47.578125 
Q 36.03125 48 33.890625 48 
Q 26.265625 48 22.1875 43.046875 
Q 18.109375 38.09375 18.109375 28.8125 
L 18.109375 0 
L 9.078125 0 
L 9.078125 54.6875 
L 18.109375 54.6875 
L 18.109375 46.1875 
Q 20.953125 51.171875 25.484375 53.578125 
Q 30.03125 56 36.53125 56 
Q 37.453125 56 38.578125 55.875 
Q 39.703125 55.765625 41.0625 55.515625 
z
" id="BitstreamVeraSans-Roman-72"/>
      <path d="M 30.609375 48.390625 
Q 23.390625 48.390625 19.1875 42.75 
Q 14.984375 37.109375 14.984375 27.296875 
Q 14.984375 17.484375 19.15625 11.84375 
Q 23.34375 6.203125 30.609375 6.203125 
Q 37.796875 6.203125 41.984375 11.859375 
Q 46.1875 17.53125 46.1875 27.296875 
Q 46.1875 37.015625 41.984375 42.703125 
Q 37.796875 48.390625 30.609375 48.390625 
M 30.609375 56 
Q 42.328125 56 49.015625 48.375 
Q 55.71875 40.765625 55.71875 27.296875 
Q 55.71875 13.875 49.015625 6.21875 
Q 42.328125 -1.421875 30.609375 -1.421875 
Q 18.84375 -1.421875 12.171875 6.21875 
Q 5.515625 13.875 5.515625 27.296875 
Q 5.515625 40.765625 12.171875 48.375 
Q 18.84375 56 30.609375 56 
" id="BitstreamVeraSans-Roman-6f"/>
      <path d="M 9.421875 75.984375 
L 18.40625 75.984375 
L 18.40625 0 
L 9.421875 0 
z
" id="BitstreamVeraSans-Roman-6c"/>
      <path d="M 9.421875 54.6875 
L 18.40625 54.6875 
L 18.40625 0 
L 9.421875 0 
z
M 9.421875 75.984375 
L 18.40625 75.984375 
L 18.40625 64.59375 
L 9.421875 64.59375 
z
" id="BitstreamVeraSans-Roman-69"/>
      <path d="M 56.203125 29.59375 
L 56.203125 25.203125 
L 14.890625 25.203125 
Q 15.484375 15.921875 20.484375 11.0625 
Q 25.484375 6.203125 34.421875 6.203125 
Q 39.59375 6.203125 44.453125 7.46875 
Q 49.3125 8.734375 54.109375 11.28125 
L 54.109375 2.78125 
Q 49.265625 0.734375 44.1875 -0.34375 
Q 39.109375 -1.421875 33.890625 -1.421875 
Q 20.796875 -1.421875 13.15625 6.1875 
Q 5.515625 13.8125 5.515625 26.8125 
Q 5.515625 40.234375 12.765625 48.109375 
Q 20.015625 56 32.328125 56 
Q 43.359375 56 49.78125 48.890625 
Q 56.203125 41.796875 56.203125 29.59375 
M 47.21875 32.234375 
Q 47.125 39.59375 43.09375 43.984375 
Q 39.0625 48.390625 32.421875 48.390625 
Q 24.90625 48.390625 20.390625 44.140625 
Q 15.875 39.890625 15.1875 32.171875 
z
" id="BitstreamVeraSans-Roman-65"/>
      <path d="M 18.3125 70.21875 
L 18.3125 54.6875 
L 36.8125 54.6875 
L 36.8125 47.703125 
L 18.3125 47.703125 
L 18.3125 18.015625 
Q 18.3125 11.328125 20.140625 9.421875 
Q 21.96875 7.515625 27.59375 7.515625 
L 36.8125 7.515625 
L 36.8125 0 
L 27.59375 0 
Q 17.1875 0 13.234375 3.875 
Q 9.28125 7.765625 9.28125 18.015625 
L 9.28125 47.703125 
L 2.6875 47.703125 
L 2.6875 54.6875 
L 9.28125 54.6875 
L 9.28125 70.21875 
z
" id="BitstreamVeraSans-Roman-74"/>
      <path d="M 34.28125 27.484375 
Q 23.390625 27.484375 19.1875 25 
Q 14.984375 22.515625 14.984375 16.5 
Q 14.984375 11.71875 18.140625 8.90625 
Q 21.296875 6.109375 26.703125 6.109375 
Q 34.1875 6.109375 38.703125 11.40625 
Q 43.21875 16.703125 43.21875 25.484375 
L 43.21875 27.484375 
z
M 52.203125 31.203125 
L 52.203125 0 
L 43.21875 0 
L 43.21875 8.296875 
Q 40.140625 3.328125 35.546875 0.953125 
Q 30.953125 -1.421875 24.3125 -1.421875 
Q 15.921875 -1.421875 10.953125 3.296875 
Q 6 8.015625 6 15.921875 
Q 6 25.140625 12.171875 29.828125 
Q 18.359375 34.515625 30.609375 34.515625 
L 43.21875 34.515625 
L 43.21875 35.40625 
Q 43.21875 41.609375 39.140625 45 
Q 35.0625 48.390625 27.6875 48.390625 
Q 23 48.390625 18.546875 47.265625 
Q 14.109375 46.140625 10.015625 43.890625 
L 10.015625 52.203125 
Q 14.9375 54.109375 19.578125 55.046875 
Q 24.21875 56 28.609375 56 
Q 40.484375 56 46.34375 49.84375 
Q 52.203125 43.703125 52.203125 31.203125 
" id="BitstreamVeraSans-Roman-61"/>
      <path d="M 48.78125 52.59375 
L 48.78125 44.1875 
Q 44.96875 46.296875 41.140625 47.34375 
Q 37.3125 48.390625 33.40625 48.390625 
Q 24.65625 48.390625 19.8125 42.84375 
Q 14.984375 37.3125 14.984375 27.296875 
Q 14.984375 17.28125 19.8125 11.734375 
Q 24.65625 6.203125 33.40625 6.203125 
Q 37.3125 6.203125 41.140625 7.25 
Q 44.96875 8.296875 48.78125 10.40625 
L 48.78125 2.09375 
Q 45.015625 0.34375 40.984375 -0.53125 
Q 36.96875 -1.421875 32.421875 -1.421875 
Q 20.0625 -1.421875 12.78125 6.34375 
Q 5.515625 14.109375 5.515625 27.296875 
Q 5.515625 40.671875 12.859375 48.328125 
Q 20.21875 56 33.015625 56 
Q 37.15625 56 41.109375 55.140625 
Q 45.0625 54.296875 48.78125 52.59375 
" id="BitstreamVeraSans-Roman-63"/>
     </defs>
     <g transform="translate(697.0859375 849.593125)scale(0.2 -0.2)">
      <use xlink:href="#BitstreamVeraSans-Roman-63"/>
      <use x="54.98046875" xlink:href="#BitstreamVeraSans-Roman-6f"/>
      <use x="116.162109375" xlink:href="#BitstreamVeraSans-Roman-72"/>
      <use x="157.259765625" xlink:href="#BitstreamVeraSans-Roman-72"/>
      <use x="198.341796875" xlink:href="#BitstreamVeraSans-Roman-65"/>
      <use x="259.865234375" xlink:href="#BitstreamVeraSans-Roman-6c"/>
      <use x="287.6484375" xlink:href="#BitstreamVeraSans-Roman-61"/>
      <use x="348.927734375" xlink:href="#BitstreamVeraSans-Roman-74"/>
      <use x="388.13671875" xlink:href="#BitstreamVeraSans-Roman-69"/>
      <use x="415.919921875" xlink:href="#BitstreamVeraSans-Roman-6f"/>
      <use x="477.1015625" xlink:href="#BitstreamVeraSans-Roman-6e"/>
     </g>
    </g>
   </g>
   <g id="matplotlib.axis_2">
    <g id="ytick_1">
     <g id="line2d_13">
      <defs>
       <path d="M 0 0 
L 4 0 
" id="mf6a022b120" style="stroke:#000000;stroke-width:0.5;"/>
      </defs>
      <g>
       <use style="stroke:#000000;stroke-width:0.5;" x="91.1475" xlink:href="#mf6a022b120" y="806.04"/>
      </g>
     </g>
     <g id="line2d_14">
      <defs>
       <path d="M 0 0 
L -4 0 
" id="m91ebf57fa3" style="stroke:#000000;stroke-width:0.5;"/>
      </defs>
      <g>
       <use style="stroke:#000000;stroke-width:0.5;" x="1411.12125" xlink:href="#m91ebf57fa3" y="806.04"/>
      </g>
     </g>
     <g id="text_8">
      <!-- 0 -->
      <g transform="translate(74.4225 811.55875)scale(0.2 -0.2)">
       <use xlink:href="#BitstreamVeraSans-Roman-30"/>
      </g>
     </g>
    </g>
    <g id="ytick_2">
     <g id="line2d_15">
      <g>
       <use style="stroke:#000000;stroke-width:0.5;" x="91.1475" xlink:href="#mf6a022b120" y="649.224"/>
      </g>
     </g>
     <g id="line2d_16">
      <g>
       <use style="stroke:#000000;stroke-width:0.5;" x="1411.12125" xlink:href="#m91ebf57fa3" y="649.224"/>
      </g>
     </g>
     <g id="text_9">
      <!-- 500 -->
      <defs>
       <path d="M 10.796875 72.90625 
L 49.515625 72.90625 
L 49.515625 64.59375 
L 19.828125 64.59375 
L 19.828125 46.734375 
Q 21.96875 47.46875 24.109375 47.828125 
Q 26.265625 48.1875 28.421875 48.1875 
Q 40.625 48.1875 47.75 41.5 
Q 54.890625 34.8125 54.890625 23.390625 
Q 54.890625 11.625 47.5625 5.09375 
Q 40.234375 -1.421875 26.90625 -1.421875 
Q 22.3125 -1.421875 17.546875 -0.640625 
Q 12.796875 0.140625 7.71875 1.703125 
L 7.71875 11.625 
Q 12.109375 9.234375 16.796875 8.0625 
Q 21.484375 6.890625 26.703125 6.890625 
Q 35.15625 6.890625 40.078125 11.328125 
Q 45.015625 15.765625 45.015625 23.390625 
Q 45.015625 31 40.078125 35.4375 
Q 35.15625 39.890625 26.703125 39.890625 
Q 22.75 39.890625 18.8125 39.015625 
Q 14.890625 38.140625 10.796875 36.28125 
z
" id="BitstreamVeraSans-Roman-35"/>
      </defs>
      <g transform="translate(48.9725 654.74275)scale(0.2 -0.2)">
       <use xlink:href="#BitstreamVeraSans-Roman-35"/>
       <use x="63.623046875" xlink:href="#BitstreamVeraSans-Roman-30"/>
       <use x="127.24609375" xlink:href="#BitstreamVeraSans-Roman-30"/>
      </g>
     </g>
    </g>
    <g id="ytick_3">
     <g id="line2d_17">
      <g>
       <use style="stroke:#000000;stroke-width:0.5;" x="91.1475" xlink:href="#mf6a022b120" y="492.408"/>
      </g>
     </g>
     <g id="line2d_18">
      <g>
       <use style="stroke:#000000;stroke-width:0.5;" x="1411.12125" xlink:href="#m91ebf57fa3" y="492.408"/>
      </g>
     </g>
     <g id="text_10">
      <!-- 1000 -->
      <g transform="translate(36.2475 497.92675)scale(0.2 -0.2)">
       <use xlink:href="#BitstreamVeraSans-Roman-31"/>
       <use x="63.623046875" xlink:href="#BitstreamVeraSans-Roman-30"/>
       <use x="127.24609375" xlink:href="#BitstreamVeraSans-Roman-30"/>
       <use x="190.869140625" xlink:href="#BitstreamVeraSans-Roman-30"/>
      </g>
     </g>
    </g>
    <g id="ytick_4">
     <g id="line2d_19">
      <g>
       <use style="stroke:#000000;stroke-width:0.5;" x="91.1475" xlink:href="#mf6a022b120" y="335.592"/>
      </g>
     </g>
     <g id="line2d_20">
      <g>
       <use style="stroke:#000000;stroke-width:0.5;" x="1411.12125" xlink:href="#m91ebf57fa3" y="335.592"/>
      </g>
     </g>
     <g id="text_11">
      <!-- 1500 -->
      <g transform="translate(36.2475 341.11075)scale(0.2 -0.2)">
       <use xlink:href="#BitstreamVeraSans-Roman-31"/>
       <use x="63.623046875" xlink:href="#BitstreamVeraSans-Roman-35"/>
       <use x="127.24609375" xlink:href="#BitstreamVeraSans-Roman-30"/>
       <use x="190.869140625" xlink:href="#BitstreamVeraSans-Roman-30"/>
      </g>
     </g>
    </g>
    <g id="ytick_5">
     <g id="line2d_21">
      <g>
       <use style="stroke:#000000;stroke-width:0.5;" x="91.1475" xlink:href="#mf6a022b120" y="178.776"/>
      </g>
     </g>
     <g id="line2d_22">
      <g>
       <use style="stroke:#000000;stroke-width:0.5;" x="1411.12125" xlink:href="#m91ebf57fa3" y="178.776"/>
      </g>
     </g>
     <g id="text_12">
      <!-- 2000 -->
      <g transform="translate(36.2475 184.29475)scale(0.2 -0.2)">
       <use xlink:href="#BitstreamVeraSans-Roman-32"/>
       <use x="63.623046875" xlink:href="#BitstreamVeraSans-Roman-30"/>
       <use x="127.24609375" xlink:href="#BitstreamVeraSans-Roman-30"/>
       <use x="190.869140625" xlink:href="#BitstreamVeraSans-Roman-30"/>
      </g>
     </g>
    </g>
    <g id="ytick_6">
     <g id="line2d_23">
      <g>
       <use style="stroke:#000000;stroke-width:0.5;" x="91.1475" xlink:href="#mf6a022b120" y="21.96"/>
      </g>
     </g>
     <g id="line2d_24">
      <g>
       <use style="stroke:#000000;stroke-width:0.5;" x="1411.12125" xlink:href="#m91ebf57fa3" y="21.96"/>
      </g>
     </g>
     <g id="text_13">
      <!-- 2500 -->
      <g transform="translate(36.2475 27.47875)scale(0.2 -0.2)">
       <use xlink:href="#BitstreamVeraSans-Roman-32"/>
       <use x="63.623046875" xlink:href="#BitstreamVeraSans-Roman-35"/>
       <use x="127.24609375" xlink:href="#BitstreamVeraSans-Roman-30"/>
       <use x="190.869140625" xlink:href="#BitstreamVeraSans-Roman-30"/>
      </g>
     </g>
    </g>
    <g id="text_14">
     <!-- number -->
     <defs>
      <path d="M 52 44.1875 
Q 55.375 50.25 60.0625 53.125 
Q 64.75 56 71.09375 56 
Q 79.640625 56 84.28125 50.015625 
Q 88.921875 44.046875 88.921875 33.015625 
L 88.921875 0 
L 79.890625 0 
L 79.890625 32.71875 
Q 79.890625 40.578125 77.09375 44.375 
Q 74.3125 48.1875 68.609375 48.1875 
Q 61.625 48.1875 57.5625 43.546875 
Q 53.515625 38.921875 53.515625 30.90625 
L 53.515625 0 
L 44.484375 0 
L 44.484375 32.71875 
Q 44.484375 40.625 41.703125 44.40625 
Q 38.921875 48.1875 33.109375 48.1875 
Q 26.21875 48.1875 22.15625 43.53125 
Q 18.109375 38.875 18.109375 30.90625 
L 18.109375 0 
L 9.078125 0 
L 9.078125 54.6875 
L 18.109375 54.6875 
L 18.109375 46.1875 
Q 21.1875 51.21875 25.484375 53.609375 
Q 29.78125 56 35.6875 56 
Q 41.65625 56 45.828125 52.96875 
Q 50 49.953125 52 44.1875 
" id="BitstreamVeraSans-Roman-6d"/>
      <path d="M 8.5 21.578125 
L 8.5 54.6875 
L 17.484375 54.6875 
L 17.484375 21.921875 
Q 17.484375 14.15625 20.5 10.265625 
Q 23.53125 6.390625 29.59375 6.390625 
Q 36.859375 6.390625 41.078125 11.03125 
Q 45.3125 15.671875 45.3125 23.6875 
L 45.3125 54.6875 
L 54.296875 54.6875 
L 54.296875 0 
L 45.3125 0 
L 45.3125 8.40625 
Q 42.046875 3.421875 37.71875 1 
Q 33.40625 -1.421875 27.6875 -1.421875 
Q 18.265625 -1.421875 13.375 4.4375 
Q 8.5 10.296875 8.5 21.578125 
" id="BitstreamVeraSans-Roman-75"/>
      <path d="M 48.6875 27.296875 
Q 48.6875 37.203125 44.609375 42.84375 
Q 40.53125 48.484375 33.40625 48.484375 
Q 26.265625 48.484375 22.1875 42.84375 
Q 18.109375 37.203125 18.109375 27.296875 
Q 18.109375 17.390625 22.1875 11.75 
Q 26.265625 6.109375 33.40625 6.109375 
Q 40.53125 6.109375 44.609375 11.75 
Q 48.6875 17.390625 48.6875 27.296875 
M 18.109375 46.390625 
Q 20.953125 51.265625 25.265625 53.625 
Q 29.59375 56 35.59375 56 
Q 45.5625 56 51.78125 48.09375 
Q 58.015625 40.1875 58.015625 27.296875 
Q 58.015625 14.40625 51.78125 6.484375 
Q 45.5625 -1.421875 35.59375 -1.421875 
Q 29.59375 -1.421875 25.265625 0.953125 
Q 20.953125 3.328125 18.109375 8.203125 
L 18.109375 0 
L 9.078125 0 
L 9.078125 75.984375 
L 18.109375 75.984375 
z
" id="BitstreamVeraSans-Roman-62"/>
     </defs>
     <g transform="translate(27.088125 453.028125)rotate(-90.0)scale(0.2 -0.2)">
      <use xlink:href="#BitstreamVeraSans-Roman-6e"/>
      <use x="63.37890625" xlink:href="#BitstreamVeraSans-Roman-75"/>
      <use x="126.7578125" xlink:href="#BitstreamVeraSans-Roman-6d"/>
      <use x="224.169921875" xlink:href="#BitstreamVeraSans-Roman-62"/>
      <use x="287.646484375" xlink:href="#BitstreamVeraSans-Roman-65"/>
      <use x="349.169921875" xlink:href="#BitstreamVeraSans-Roman-72"/>
     </g>
    </g>
   </g>
  </g>
 </g>
 <defs>
  <clipPath id="p67c2cf75d0">
   <rect height="784.08" width="1319.97375" x="91.1475" y="21.96"/>
  </clipPath>
 </defs>
</svg>
